<?xml version="1.0" encoding="utf-8" standalone="no"?>
<!DOCTYPE svg PUBLIC "-//W3C//DTD SVG 1.1//EN"
  "http://www.w3.org/Graphics/SVG/1.1/DTD/svg11.dtd">
<!-- Created with matplotlib (https://matplotlib.org/) -->
<svg height="504pt" version="1.1" viewBox="0 0 864 504" width="864pt" xmlns="http://www.w3.org/2000/svg" xmlns:xlink="http://www.w3.org/1999/xlink">
 <metadata>
  <rdf:RDF xmlns:cc="http://creativecommons.org/ns#" xmlns:dc="http://purl.org/dc/elements/1.1/" xmlns:rdf="http://www.w3.org/1999/02/22-rdf-syntax-ns#">
   <cc:Work>
    <dc:type rdf:resource="http://purl.org/dc/dcmitype/StillImage"/>
    <dc:date>2022-05-29T17:34:37.263437</dc:date>
    <dc:format>image/svg+xml</dc:format>
    <dc:creator>
     <cc:Agent>
      <dc:title>Matplotlib v3.3.4, https://matplotlib.org/</dc:title>
     </cc:Agent>
    </dc:creator>
   </cc:Work>
  </rdf:RDF>
 </metadata>
 <defs>
  <style type="text/css">*{stroke-linecap:butt;stroke-linejoin:round;}</style>
 </defs>
 <g id="figure_1">
  <g id="patch_1">
   <path d="M 0 504 
L 864 504 
L 864 0 
L 0 0 
z
" style="fill:#ffffff;"/>
  </g>
  <g id="axes_1">
   <g id="patch_2">
    <path d="M 108 448.56 
L 643.68 448.56 
L 643.68 60.48 
L 108 60.48 
z
" style="fill:#ffffff;"/>
   </g>
   <g id="matplotlib.axis_1">
    <g id="xtick_1">
     <g id="line2d_1">
      <defs>
       <path d="M 0 0 
L 0 3.5 
" id="m7fc500af80" style="stroke:#000000;stroke-width:0.8;"/>
      </defs>
      <g>
       <use style="stroke:#000000;stroke-width:0.8;" x="132.349091" xlink:href="#m7fc500af80" y="448.56"/>
      </g>
     </g>
     <g id="text_1">
      <!-- 0 -->
      <g transform="translate(135.108466 461.9225)rotate(-90)scale(0.1 -0.1)">
       <defs>
        <path d="M 31.78125 66.40625 
Q 24.171875 66.40625 20.328125 58.90625 
Q 16.5 51.421875 16.5 36.375 
Q 16.5 21.390625 20.328125 13.890625 
Q 24.171875 6.390625 31.78125 6.390625 
Q 39.453125 6.390625 43.28125 13.890625 
Q 47.125 21.390625 47.125 36.375 
Q 47.125 51.421875 43.28125 58.90625 
Q 39.453125 66.40625 31.78125 66.40625 
z
M 31.78125 74.21875 
Q 44.046875 74.21875 50.515625 64.515625 
Q 56.984375 54.828125 56.984375 36.375 
Q 56.984375 17.96875 50.515625 8.265625 
Q 44.046875 -1.421875 31.78125 -1.421875 
Q 19.53125 -1.421875 13.0625 8.265625 
Q 6.59375 17.96875 6.59375 36.375 
Q 6.59375 54.828125 13.0625 64.515625 
Q 19.53125 74.21875 31.78125 74.21875 
z
" id="DejaVuSans-48"/>
       </defs>
       <use xlink:href="#DejaVuSans-48"/>
      </g>
     </g>
    </g>
    <g id="xtick_2">
     <g id="line2d_2">
      <g>
       <use style="stroke:#000000;stroke-width:0.8;" x="156.597148" xlink:href="#m7fc500af80" y="448.56"/>
      </g>
     </g>
     <g id="text_2">
      <!-- 12 -->
      <g transform="translate(159.356523 468.285)rotate(-90)scale(0.1 -0.1)">
       <defs>
        <path d="M 12.40625 8.296875 
L 28.515625 8.296875 
L 28.515625 63.921875 
L 10.984375 60.40625 
L 10.984375 69.390625 
L 28.421875 72.90625 
L 38.28125 72.90625 
L 38.28125 8.296875 
L 54.390625 8.296875 
L 54.390625 0 
L 12.40625 0 
z
" id="DejaVuSans-49"/>
        <path d="M 19.1875 8.296875 
L 53.609375 8.296875 
L 53.609375 0 
L 7.328125 0 
L 7.328125 8.296875 
Q 12.9375 14.109375 22.625 23.890625 
Q 32.328125 33.6875 34.8125 36.53125 
Q 39.546875 41.84375 41.421875 45.53125 
Q 43.3125 49.21875 43.3125 52.78125 
Q 43.3125 58.59375 39.234375 62.25 
Q 35.15625 65.921875 28.609375 65.921875 
Q 23.96875 65.921875 18.8125 64.3125 
Q 13.671875 62.703125 7.8125 59.421875 
L 7.8125 69.390625 
Q 13.765625 71.78125 18.9375 73 
Q 24.125 74.21875 28.421875 74.21875 
Q 39.75 74.21875 46.484375 68.546875 
Q 53.21875 62.890625 53.21875 53.421875 
Q 53.21875 48.921875 51.53125 44.890625 
Q 49.859375 40.875 45.40625 35.40625 
Q 44.1875 33.984375 37.640625 27.21875 
Q 31.109375 20.453125 19.1875 8.296875 
z
" id="DejaVuSans-50"/>
       </defs>
       <use xlink:href="#DejaVuSans-49"/>
       <use x="63.623047" xlink:href="#DejaVuSans-50"/>
      </g>
     </g>
    </g>
    <g id="xtick_3">
     <g id="line2d_3">
      <g>
       <use style="stroke:#000000;stroke-width:0.8;" x="180.845206" xlink:href="#m7fc500af80" y="448.56"/>
      </g>
     </g>
     <g id="text_3">
      <!-- 24 -->
      <g transform="translate(183.604581 468.285)rotate(-90)scale(0.1 -0.1)">
       <defs>
        <path d="M 37.796875 64.3125 
L 12.890625 25.390625 
L 37.796875 25.390625 
z
M 35.203125 72.90625 
L 47.609375 72.90625 
L 47.609375 25.390625 
L 58.015625 25.390625 
L 58.015625 17.1875 
L 47.609375 17.1875 
L 47.609375 0 
L 37.796875 0 
L 37.796875 17.1875 
L 4.890625 17.1875 
L 4.890625 26.703125 
z
" id="DejaVuSans-52"/>
       </defs>
       <use xlink:href="#DejaVuSans-50"/>
       <use x="63.623047" xlink:href="#DejaVuSans-52"/>
      </g>
     </g>
    </g>
    <g id="xtick_4">
     <g id="line2d_4">
      <g>
       <use style="stroke:#000000;stroke-width:0.8;" x="205.093263" xlink:href="#m7fc500af80" y="448.56"/>
      </g>
     </g>
     <g id="text_4">
      <!-- 36 -->
      <g transform="translate(207.852638 468.285)rotate(-90)scale(0.1 -0.1)">
       <defs>
        <path d="M 40.578125 39.3125 
Q 47.65625 37.796875 51.625 33 
Q 55.609375 28.21875 55.609375 21.1875 
Q 55.609375 10.40625 48.1875 4.484375 
Q 40.765625 -1.421875 27.09375 -1.421875 
Q 22.515625 -1.421875 17.65625 -0.515625 
Q 12.796875 0.390625 7.625 2.203125 
L 7.625 11.71875 
Q 11.71875 9.328125 16.59375 8.109375 
Q 21.484375 6.890625 26.8125 6.890625 
Q 36.078125 6.890625 40.9375 10.546875 
Q 45.796875 14.203125 45.796875 21.1875 
Q 45.796875 27.640625 41.28125 31.265625 
Q 36.765625 34.90625 28.71875 34.90625 
L 20.21875 34.90625 
L 20.21875 43.015625 
L 29.109375 43.015625 
Q 36.375 43.015625 40.234375 45.921875 
Q 44.09375 48.828125 44.09375 54.296875 
Q 44.09375 59.90625 40.109375 62.90625 
Q 36.140625 65.921875 28.71875 65.921875 
Q 24.65625 65.921875 20.015625 65.03125 
Q 15.375 64.15625 9.8125 62.3125 
L 9.8125 71.09375 
Q 15.4375 72.65625 20.34375 73.4375 
Q 25.25 74.21875 29.59375 74.21875 
Q 40.828125 74.21875 47.359375 69.109375 
Q 53.90625 64.015625 53.90625 55.328125 
Q 53.90625 49.265625 50.4375 45.09375 
Q 46.96875 40.921875 40.578125 39.3125 
z
" id="DejaVuSans-51"/>
        <path d="M 33.015625 40.375 
Q 26.375 40.375 22.484375 35.828125 
Q 18.609375 31.296875 18.609375 23.390625 
Q 18.609375 15.53125 22.484375 10.953125 
Q 26.375 6.390625 33.015625 6.390625 
Q 39.65625 6.390625 43.53125 10.953125 
Q 47.40625 15.53125 47.40625 23.390625 
Q 47.40625 31.296875 43.53125 35.828125 
Q 39.65625 40.375 33.015625 40.375 
z
M 52.59375 71.296875 
L 52.59375 62.3125 
Q 48.875 64.0625 45.09375 64.984375 
Q 41.3125 65.921875 37.59375 65.921875 
Q 27.828125 65.921875 22.671875 59.328125 
Q 17.53125 52.734375 16.796875 39.40625 
Q 19.671875 43.65625 24.015625 45.921875 
Q 28.375 48.1875 33.59375 48.1875 
Q 44.578125 48.1875 50.953125 41.515625 
Q 57.328125 34.859375 57.328125 23.390625 
Q 57.328125 12.15625 50.6875 5.359375 
Q 44.046875 -1.421875 33.015625 -1.421875 
Q 20.359375 -1.421875 13.671875 8.265625 
Q 6.984375 17.96875 6.984375 36.375 
Q 6.984375 53.65625 15.1875 63.9375 
Q 23.390625 74.21875 37.203125 74.21875 
Q 40.921875 74.21875 44.703125 73.484375 
Q 48.484375 72.75 52.59375 71.296875 
z
" id="DejaVuSans-54"/>
       </defs>
       <use xlink:href="#DejaVuSans-51"/>
       <use x="63.623047" xlink:href="#DejaVuSans-54"/>
      </g>
     </g>
    </g>
    <g id="xtick_5">
     <g id="line2d_5">
      <g>
       <use style="stroke:#000000;stroke-width:0.8;" x="229.34132" xlink:href="#m7fc500af80" y="448.56"/>
      </g>
     </g>
     <g id="text_5">
      <!-- 48 -->
      <g transform="translate(232.100695 468.285)rotate(-90)scale(0.1 -0.1)">
       <defs>
        <path d="M 31.78125 34.625 
Q 24.75 34.625 20.71875 30.859375 
Q 16.703125 27.09375 16.703125 20.515625 
Q 16.703125 13.921875 20.71875 10.15625 
Q 24.75 6.390625 31.78125 6.390625 
Q 38.8125 6.390625 42.859375 10.171875 
Q 46.921875 13.96875 46.921875 20.515625 
Q 46.921875 27.09375 42.890625 30.859375 
Q 38.875 34.625 31.78125 34.625 
z
M 21.921875 38.8125 
Q 15.578125 40.375 12.03125 44.71875 
Q 8.5 49.078125 8.5 55.328125 
Q 8.5 64.0625 14.71875 69.140625 
Q 20.953125 74.21875 31.78125 74.21875 
Q 42.671875 74.21875 48.875 69.140625 
Q 55.078125 64.0625 55.078125 55.328125 
Q 55.078125 49.078125 51.53125 44.71875 
Q 48 40.375 41.703125 38.8125 
Q 48.828125 37.15625 52.796875 32.3125 
Q 56.78125 27.484375 56.78125 20.515625 
Q 56.78125 9.90625 50.3125 4.234375 
Q 43.84375 -1.421875 31.78125 -1.421875 
Q 19.734375 -1.421875 13.25 4.234375 
Q 6.78125 9.90625 6.78125 20.515625 
Q 6.78125 27.484375 10.78125 32.3125 
Q 14.796875 37.15625 21.921875 38.8125 
z
M 18.3125 54.390625 
Q 18.3125 48.734375 21.84375 45.5625 
Q 25.390625 42.390625 31.78125 42.390625 
Q 38.140625 42.390625 41.71875 45.5625 
Q 45.3125 48.734375 45.3125 54.390625 
Q 45.3125 60.0625 41.71875 63.234375 
Q 38.140625 66.40625 31.78125 66.40625 
Q 25.390625 66.40625 21.84375 63.234375 
Q 18.3125 60.0625 18.3125 54.390625 
z
" id="DejaVuSans-56"/>
       </defs>
       <use xlink:href="#DejaVuSans-52"/>
       <use x="63.623047" xlink:href="#DejaVuSans-56"/>
      </g>
     </g>
    </g>
    <g id="xtick_6">
     <g id="line2d_6">
      <g>
       <use style="stroke:#000000;stroke-width:0.8;" x="253.589378" xlink:href="#m7fc500af80" y="448.56"/>
      </g>
     </g>
     <g id="text_6">
      <!-- 60 -->
      <g transform="translate(256.348753 468.285)rotate(-90)scale(0.1 -0.1)">
       <use xlink:href="#DejaVuSans-54"/>
       <use x="63.623047" xlink:href="#DejaVuSans-48"/>
      </g>
     </g>
    </g>
    <g id="xtick_7">
     <g id="line2d_7">
      <g>
       <use style="stroke:#000000;stroke-width:0.8;" x="277.837435" xlink:href="#m7fc500af80" y="448.56"/>
      </g>
     </g>
     <g id="text_7">
      <!-- 72 -->
      <g transform="translate(280.59681 468.285)rotate(-90)scale(0.1 -0.1)">
       <defs>
        <path d="M 8.203125 72.90625 
L 55.078125 72.90625 
L 55.078125 68.703125 
L 28.609375 0 
L 18.3125 0 
L 43.21875 64.59375 
L 8.203125 64.59375 
z
" id="DejaVuSans-55"/>
       </defs>
       <use xlink:href="#DejaVuSans-55"/>
       <use x="63.623047" xlink:href="#DejaVuSans-50"/>
      </g>
     </g>
    </g>
    <g id="xtick_8">
     <g id="line2d_8">
      <g>
       <use style="stroke:#000000;stroke-width:0.8;" x="302.085492" xlink:href="#m7fc500af80" y="448.56"/>
      </g>
     </g>
     <g id="text_8">
      <!-- 84 -->
      <g transform="translate(304.844867 468.285)rotate(-90)scale(0.1 -0.1)">
       <use xlink:href="#DejaVuSans-56"/>
       <use x="63.623047" xlink:href="#DejaVuSans-52"/>
      </g>
     </g>
    </g>
    <g id="xtick_9">
     <g id="line2d_9">
      <g>
       <use style="stroke:#000000;stroke-width:0.8;" x="326.33355" xlink:href="#m7fc500af80" y="448.56"/>
      </g>
     </g>
     <g id="text_9">
      <!-- 96 -->
      <g transform="translate(329.092925 468.285)rotate(-90)scale(0.1 -0.1)">
       <defs>
        <path d="M 10.984375 1.515625 
L 10.984375 10.5 
Q 14.703125 8.734375 18.5 7.8125 
Q 22.3125 6.890625 25.984375 6.890625 
Q 35.75 6.890625 40.890625 13.453125 
Q 46.046875 20.015625 46.78125 33.40625 
Q 43.953125 29.203125 39.59375 26.953125 
Q 35.25 24.703125 29.984375 24.703125 
Q 19.046875 24.703125 12.671875 31.3125 
Q 6.296875 37.9375 6.296875 49.421875 
Q 6.296875 60.640625 12.9375 67.421875 
Q 19.578125 74.21875 30.609375 74.21875 
Q 43.265625 74.21875 49.921875 64.515625 
Q 56.59375 54.828125 56.59375 36.375 
Q 56.59375 19.140625 48.40625 8.859375 
Q 40.234375 -1.421875 26.421875 -1.421875 
Q 22.703125 -1.421875 18.890625 -0.6875 
Q 15.09375 0.046875 10.984375 1.515625 
z
M 30.609375 32.421875 
Q 37.25 32.421875 41.125 36.953125 
Q 45.015625 41.5 45.015625 49.421875 
Q 45.015625 57.28125 41.125 61.84375 
Q 37.25 66.40625 30.609375 66.40625 
Q 23.96875 66.40625 20.09375 61.84375 
Q 16.21875 57.28125 16.21875 49.421875 
Q 16.21875 41.5 20.09375 36.953125 
Q 23.96875 32.421875 30.609375 32.421875 
z
" id="DejaVuSans-57"/>
       </defs>
       <use xlink:href="#DejaVuSans-57"/>
       <use x="63.623047" xlink:href="#DejaVuSans-54"/>
      </g>
     </g>
    </g>
    <g id="xtick_10">
     <g id="line2d_10">
      <g>
       <use style="stroke:#000000;stroke-width:0.8;" x="350.581607" xlink:href="#m7fc500af80" y="448.56"/>
      </g>
     </g>
     <g id="text_10">
      <!-- 108 -->
      <g transform="translate(353.340982 474.6475)rotate(-90)scale(0.1 -0.1)">
       <use xlink:href="#DejaVuSans-49"/>
       <use x="63.623047" xlink:href="#DejaVuSans-48"/>
       <use x="127.246094" xlink:href="#DejaVuSans-56"/>
      </g>
     </g>
    </g>
    <g id="xtick_11">
     <g id="line2d_11">
      <g>
       <use style="stroke:#000000;stroke-width:0.8;" x="374.829664" xlink:href="#m7fc500af80" y="448.56"/>
      </g>
     </g>
     <g id="text_11">
      <!-- 120 -->
      <g transform="translate(377.589039 474.6475)rotate(-90)scale(0.1 -0.1)">
       <use xlink:href="#DejaVuSans-49"/>
       <use x="63.623047" xlink:href="#DejaVuSans-50"/>
       <use x="127.246094" xlink:href="#DejaVuSans-48"/>
      </g>
     </g>
    </g>
    <g id="xtick_12">
     <g id="line2d_12">
      <g>
       <use style="stroke:#000000;stroke-width:0.8;" x="399.077722" xlink:href="#m7fc500af80" y="448.56"/>
      </g>
     </g>
     <g id="text_12">
      <!-- 132 -->
      <g transform="translate(401.837097 474.6475)rotate(-90)scale(0.1 -0.1)">
       <use xlink:href="#DejaVuSans-49"/>
       <use x="63.623047" xlink:href="#DejaVuSans-51"/>
       <use x="127.246094" xlink:href="#DejaVuSans-50"/>
      </g>
     </g>
    </g>
    <g id="xtick_13">
     <g id="line2d_13">
      <g>
       <use style="stroke:#000000;stroke-width:0.8;" x="423.325779" xlink:href="#m7fc500af80" y="448.56"/>
      </g>
     </g>
     <g id="text_13">
      <!-- 144 -->
      <g transform="translate(426.085154 474.6475)rotate(-90)scale(0.1 -0.1)">
       <use xlink:href="#DejaVuSans-49"/>
       <use x="63.623047" xlink:href="#DejaVuSans-52"/>
       <use x="127.246094" xlink:href="#DejaVuSans-52"/>
      </g>
     </g>
    </g>
    <g id="xtick_14">
     <g id="line2d_14">
      <g>
       <use style="stroke:#000000;stroke-width:0.8;" x="447.573836" xlink:href="#m7fc500af80" y="448.56"/>
      </g>
     </g>
     <g id="text_14">
      <!-- 156 -->
      <g transform="translate(450.333211 474.6475)rotate(-90)scale(0.1 -0.1)">
       <defs>
        <path d="M 10.796875 72.90625 
L 49.515625 72.90625 
L 49.515625 64.59375 
L 19.828125 64.59375 
L 19.828125 46.734375 
Q 21.96875 47.46875 24.109375 47.828125 
Q 26.265625 48.1875 28.421875 48.1875 
Q 40.625 48.1875 47.75 41.5 
Q 54.890625 34.8125 54.890625 23.390625 
Q 54.890625 11.625 47.5625 5.09375 
Q 40.234375 -1.421875 26.90625 -1.421875 
Q 22.3125 -1.421875 17.546875 -0.640625 
Q 12.796875 0.140625 7.71875 1.703125 
L 7.71875 11.625 
Q 12.109375 9.234375 16.796875 8.0625 
Q 21.484375 6.890625 26.703125 6.890625 
Q 35.15625 6.890625 40.078125 11.328125 
Q 45.015625 15.765625 45.015625 23.390625 
Q 45.015625 31 40.078125 35.4375 
Q 35.15625 39.890625 26.703125 39.890625 
Q 22.75 39.890625 18.8125 39.015625 
Q 14.890625 38.140625 10.796875 36.28125 
z
" id="DejaVuSans-53"/>
       </defs>
       <use xlink:href="#DejaVuSans-49"/>
       <use x="63.623047" xlink:href="#DejaVuSans-53"/>
       <use x="127.246094" xlink:href="#DejaVuSans-54"/>
      </g>
     </g>
    </g>
    <g id="xtick_15">
     <g id="line2d_15">
      <g>
       <use style="stroke:#000000;stroke-width:0.8;" x="471.821894" xlink:href="#m7fc500af80" y="448.56"/>
      </g>
     </g>
     <g id="text_15">
      <!-- 168 -->
      <g transform="translate(474.581269 474.6475)rotate(-90)scale(0.1 -0.1)">
       <use xlink:href="#DejaVuSans-49"/>
       <use x="63.623047" xlink:href="#DejaVuSans-54"/>
       <use x="127.246094" xlink:href="#DejaVuSans-56"/>
      </g>
     </g>
    </g>
    <g id="xtick_16">
     <g id="line2d_16">
      <g>
       <use style="stroke:#000000;stroke-width:0.8;" x="496.069951" xlink:href="#m7fc500af80" y="448.56"/>
      </g>
     </g>
     <g id="text_16">
      <!-- 180 -->
      <g transform="translate(498.829326 474.6475)rotate(-90)scale(0.1 -0.1)">
       <use xlink:href="#DejaVuSans-49"/>
       <use x="63.623047" xlink:href="#DejaVuSans-56"/>
       <use x="127.246094" xlink:href="#DejaVuSans-48"/>
      </g>
     </g>
    </g>
    <g id="xtick_17">
     <g id="line2d_17">
      <g>
       <use style="stroke:#000000;stroke-width:0.8;" x="520.318008" xlink:href="#m7fc500af80" y="448.56"/>
      </g>
     </g>
     <g id="text_17">
      <!-- 192 -->
      <g transform="translate(523.077383 474.6475)rotate(-90)scale(0.1 -0.1)">
       <use xlink:href="#DejaVuSans-49"/>
       <use x="63.623047" xlink:href="#DejaVuSans-57"/>
       <use x="127.246094" xlink:href="#DejaVuSans-50"/>
      </g>
     </g>
    </g>
    <g id="xtick_18">
     <g id="line2d_18">
      <g>
       <use style="stroke:#000000;stroke-width:0.8;" x="544.566066" xlink:href="#m7fc500af80" y="448.56"/>
      </g>
     </g>
     <g id="text_18">
      <!-- 204 -->
      <g transform="translate(547.325441 474.6475)rotate(-90)scale(0.1 -0.1)">
       <use xlink:href="#DejaVuSans-50"/>
       <use x="63.623047" xlink:href="#DejaVuSans-48"/>
       <use x="127.246094" xlink:href="#DejaVuSans-52"/>
      </g>
     </g>
    </g>
    <g id="xtick_19">
     <g id="line2d_19">
      <g>
       <use style="stroke:#000000;stroke-width:0.8;" x="568.814123" xlink:href="#m7fc500af80" y="448.56"/>
      </g>
     </g>
     <g id="text_19">
      <!-- 216 -->
      <g transform="translate(571.573498 474.6475)rotate(-90)scale(0.1 -0.1)">
       <use xlink:href="#DejaVuSans-50"/>
       <use x="63.623047" xlink:href="#DejaVuSans-49"/>
       <use x="127.246094" xlink:href="#DejaVuSans-54"/>
      </g>
     </g>
    </g>
    <g id="xtick_20">
     <g id="line2d_20">
      <g>
       <use style="stroke:#000000;stroke-width:0.8;" x="593.06218" xlink:href="#m7fc500af80" y="448.56"/>
      </g>
     </g>
     <g id="text_20">
      <!-- 228 -->
      <g transform="translate(595.821555 474.6475)rotate(-90)scale(0.1 -0.1)">
       <use xlink:href="#DejaVuSans-50"/>
       <use x="63.623047" xlink:href="#DejaVuSans-50"/>
       <use x="127.246094" xlink:href="#DejaVuSans-56"/>
      </g>
     </g>
    </g>
    <g id="xtick_21">
     <g id="line2d_21">
      <g>
       <use style="stroke:#000000;stroke-width:0.8;" x="617.310238" xlink:href="#m7fc500af80" y="448.56"/>
      </g>
     </g>
     <g id="text_21">
      <!-- 240 -->
      <g transform="translate(620.069613 474.6475)rotate(-90)scale(0.1 -0.1)">
       <use xlink:href="#DejaVuSans-50"/>
       <use x="63.623047" xlink:href="#DejaVuSans-52"/>
       <use x="127.246094" xlink:href="#DejaVuSans-48"/>
      </g>
     </g>
    </g>
    <g id="text_22">
     <!-- seconds -->
     <g transform="translate(359.49 484.72625)scale(0.08 -0.08)">
      <defs>
       <path d="M 44.28125 53.078125 
L 44.28125 44.578125 
Q 40.484375 46.53125 36.375 47.5 
Q 32.28125 48.484375 27.875 48.484375 
Q 21.1875 48.484375 17.84375 46.4375 
Q 14.5 44.390625 14.5 40.28125 
Q 14.5 37.15625 16.890625 35.375 
Q 19.28125 33.59375 26.515625 31.984375 
L 29.59375 31.296875 
Q 39.15625 29.25 43.1875 25.515625 
Q 47.21875 21.78125 47.21875 15.09375 
Q 47.21875 7.46875 41.1875 3.015625 
Q 35.15625 -1.421875 24.609375 -1.421875 
Q 20.21875 -1.421875 15.453125 -0.5625 
Q 10.6875 0.296875 5.421875 2 
L 5.421875 11.28125 
Q 10.40625 8.6875 15.234375 7.390625 
Q 20.0625 6.109375 24.8125 6.109375 
Q 31.15625 6.109375 34.5625 8.28125 
Q 37.984375 10.453125 37.984375 14.40625 
Q 37.984375 18.0625 35.515625 20.015625 
Q 33.0625 21.96875 24.703125 23.78125 
L 21.578125 24.515625 
Q 13.234375 26.265625 9.515625 29.90625 
Q 5.8125 33.546875 5.8125 39.890625 
Q 5.8125 47.609375 11.28125 51.796875 
Q 16.75 56 26.8125 56 
Q 31.78125 56 36.171875 55.265625 
Q 40.578125 54.546875 44.28125 53.078125 
z
" id="DejaVuSans-115"/>
       <path d="M 56.203125 29.59375 
L 56.203125 25.203125 
L 14.890625 25.203125 
Q 15.484375 15.921875 20.484375 11.0625 
Q 25.484375 6.203125 34.421875 6.203125 
Q 39.59375 6.203125 44.453125 7.46875 
Q 49.3125 8.734375 54.109375 11.28125 
L 54.109375 2.78125 
Q 49.265625 0.734375 44.1875 -0.34375 
Q 39.109375 -1.421875 33.890625 -1.421875 
Q 20.796875 -1.421875 13.15625 6.1875 
Q 5.515625 13.8125 5.515625 26.8125 
Q 5.515625 40.234375 12.765625 48.109375 
Q 20.015625 56 32.328125 56 
Q 43.359375 56 49.78125 48.890625 
Q 56.203125 41.796875 56.203125 29.59375 
z
M 47.21875 32.234375 
Q 47.125 39.59375 43.09375 43.984375 
Q 39.0625 48.390625 32.421875 48.390625 
Q 24.90625 48.390625 20.390625 44.140625 
Q 15.875 39.890625 15.1875 32.171875 
z
" id="DejaVuSans-101"/>
       <path d="M 48.78125 52.59375 
L 48.78125 44.1875 
Q 44.96875 46.296875 41.140625 47.34375 
Q 37.3125 48.390625 33.40625 48.390625 
Q 24.65625 48.390625 19.8125 42.84375 
Q 14.984375 37.3125 14.984375 27.296875 
Q 14.984375 17.28125 19.8125 11.734375 
Q 24.65625 6.203125 33.40625 6.203125 
Q 37.3125 6.203125 41.140625 7.25 
Q 44.96875 8.296875 48.78125 10.40625 
L 48.78125 2.09375 
Q 45.015625 0.34375 40.984375 -0.53125 
Q 36.96875 -1.421875 32.421875 -1.421875 
Q 20.0625 -1.421875 12.78125 6.34375 
Q 5.515625 14.109375 5.515625 27.296875 
Q 5.515625 40.671875 12.859375 48.328125 
Q 20.21875 56 33.015625 56 
Q 37.15625 56 41.109375 55.140625 
Q 45.0625 54.296875 48.78125 52.59375 
z
" id="DejaVuSans-99"/>
       <path d="M 30.609375 48.390625 
Q 23.390625 48.390625 19.1875 42.75 
Q 14.984375 37.109375 14.984375 27.296875 
Q 14.984375 17.484375 19.15625 11.84375 
Q 23.34375 6.203125 30.609375 6.203125 
Q 37.796875 6.203125 41.984375 11.859375 
Q 46.1875 17.53125 46.1875 27.296875 
Q 46.1875 37.015625 41.984375 42.703125 
Q 37.796875 48.390625 30.609375 48.390625 
z
M 30.609375 56 
Q 42.328125 56 49.015625 48.375 
Q 55.71875 40.765625 55.71875 27.296875 
Q 55.71875 13.875 49.015625 6.21875 
Q 42.328125 -1.421875 30.609375 -1.421875 
Q 18.84375 -1.421875 12.171875 6.21875 
Q 5.515625 13.875 5.515625 27.296875 
Q 5.515625 40.765625 12.171875 48.375 
Q 18.84375 56 30.609375 56 
z
" id="DejaVuSans-111"/>
       <path d="M 54.890625 33.015625 
L 54.890625 0 
L 45.90625 0 
L 45.90625 32.71875 
Q 45.90625 40.484375 42.875 44.328125 
Q 39.84375 48.1875 33.796875 48.1875 
Q 26.515625 48.1875 22.3125 43.546875 
Q 18.109375 38.921875 18.109375 30.90625 
L 18.109375 0 
L 9.078125 0 
L 9.078125 54.6875 
L 18.109375 54.6875 
L 18.109375 46.1875 
Q 21.34375 51.125 25.703125 53.5625 
Q 30.078125 56 35.796875 56 
Q 45.21875 56 50.046875 50.171875 
Q 54.890625 44.34375 54.890625 33.015625 
z
" id="DejaVuSans-110"/>
       <path d="M 45.40625 46.390625 
L 45.40625 75.984375 
L 54.390625 75.984375 
L 54.390625 0 
L 45.40625 0 
L 45.40625 8.203125 
Q 42.578125 3.328125 38.25 0.953125 
Q 33.9375 -1.421875 27.875 -1.421875 
Q 17.96875 -1.421875 11.734375 6.484375 
Q 5.515625 14.40625 5.515625 27.296875 
Q 5.515625 40.1875 11.734375 48.09375 
Q 17.96875 56 27.875 56 
Q 33.9375 56 38.25 53.625 
Q 42.578125 51.265625 45.40625 46.390625 
z
M 14.796875 27.296875 
Q 14.796875 17.390625 18.875 11.75 
Q 22.953125 6.109375 30.078125 6.109375 
Q 37.203125 6.109375 41.296875 11.75 
Q 45.40625 17.390625 45.40625 27.296875 
Q 45.40625 37.203125 41.296875 42.84375 
Q 37.203125 48.484375 30.078125 48.484375 
Q 22.953125 48.484375 18.875 42.84375 
Q 14.796875 37.203125 14.796875 27.296875 
z
" id="DejaVuSans-100"/>
      </defs>
      <use xlink:href="#DejaVuSans-115"/>
      <use x="52.099609" xlink:href="#DejaVuSans-101"/>
      <use x="113.623047" xlink:href="#DejaVuSans-99"/>
      <use x="168.603516" xlink:href="#DejaVuSans-111"/>
      <use x="229.785156" xlink:href="#DejaVuSans-110"/>
      <use x="293.164062" xlink:href="#DejaVuSans-100"/>
      <use x="356.640625" xlink:href="#DejaVuSans-115"/>
     </g>
    </g>
   </g>
   <g id="matplotlib.axis_2">
    <g id="ytick_1">
     <g id="line2d_22">
      <defs>
       <path d="M 0 0 
L -3.5 0 
" id="m90066e4e46" style="stroke:#000000;stroke-width:0.8;"/>
      </defs>
      <g>
       <use style="stroke:#000000;stroke-width:0.8;" x="108" xlink:href="#m90066e4e46" y="427.977736"/>
      </g>
     </g>
     <g id="text_23">
      <!-- 14550 -->
      <g transform="translate(69.1875 431.776955)scale(0.1 -0.1)">
       <use xlink:href="#DejaVuSans-49"/>
       <use x="63.623047" xlink:href="#DejaVuSans-52"/>
       <use x="127.246094" xlink:href="#DejaVuSans-53"/>
       <use x="190.869141" xlink:href="#DejaVuSans-53"/>
       <use x="254.492188" xlink:href="#DejaVuSans-48"/>
      </g>
     </g>
    </g>
    <g id="ytick_2">
     <g id="line2d_23">
      <g>
       <use style="stroke:#000000;stroke-width:0.8;" x="108" xlink:href="#m90066e4e46" y="363.274602"/>
      </g>
     </g>
     <g id="text_24">
      <!-- 14600 -->
      <g transform="translate(69.1875 367.073821)scale(0.1 -0.1)">
       <use xlink:href="#DejaVuSans-49"/>
       <use x="63.623047" xlink:href="#DejaVuSans-52"/>
       <use x="127.246094" xlink:href="#DejaVuSans-54"/>
       <use x="190.869141" xlink:href="#DejaVuSans-48"/>
       <use x="254.492188" xlink:href="#DejaVuSans-48"/>
      </g>
     </g>
    </g>
    <g id="ytick_3">
     <g id="line2d_24">
      <g>
       <use style="stroke:#000000;stroke-width:0.8;" x="108" xlink:href="#m90066e4e46" y="298.571467"/>
      </g>
     </g>
     <g id="text_25">
      <!-- 14650 -->
      <g transform="translate(69.1875 302.370686)scale(0.1 -0.1)">
       <use xlink:href="#DejaVuSans-49"/>
       <use x="63.623047" xlink:href="#DejaVuSans-52"/>
       <use x="127.246094" xlink:href="#DejaVuSans-54"/>
       <use x="190.869141" xlink:href="#DejaVuSans-53"/>
       <use x="254.492188" xlink:href="#DejaVuSans-48"/>
      </g>
     </g>
    </g>
    <g id="ytick_4">
     <g id="line2d_25">
      <g>
       <use style="stroke:#000000;stroke-width:0.8;" x="108" xlink:href="#m90066e4e46" y="233.868333"/>
      </g>
     </g>
     <g id="text_26">
      <!-- 14700 -->
      <g transform="translate(69.1875 237.667552)scale(0.1 -0.1)">
       <use xlink:href="#DejaVuSans-49"/>
       <use x="63.623047" xlink:href="#DejaVuSans-52"/>
       <use x="127.246094" xlink:href="#DejaVuSans-55"/>
       <use x="190.869141" xlink:href="#DejaVuSans-48"/>
       <use x="254.492188" xlink:href="#DejaVuSans-48"/>
      </g>
     </g>
    </g>
    <g id="ytick_5">
     <g id="line2d_26">
      <g>
       <use style="stroke:#000000;stroke-width:0.8;" x="108" xlink:href="#m90066e4e46" y="169.165199"/>
      </g>
     </g>
     <g id="text_27">
      <!-- 14750 -->
      <g transform="translate(69.1875 172.964417)scale(0.1 -0.1)">
       <use xlink:href="#DejaVuSans-49"/>
       <use x="63.623047" xlink:href="#DejaVuSans-52"/>
       <use x="127.246094" xlink:href="#DejaVuSans-55"/>
       <use x="190.869141" xlink:href="#DejaVuSans-53"/>
       <use x="254.492188" xlink:href="#DejaVuSans-48"/>
      </g>
     </g>
    </g>
    <g id="ytick_6">
     <g id="line2d_27">
      <g>
       <use style="stroke:#000000;stroke-width:0.8;" x="108" xlink:href="#m90066e4e46" y="104.462064"/>
      </g>
     </g>
     <g id="text_28">
      <!-- 14800 -->
      <g transform="translate(69.1875 108.261283)scale(0.1 -0.1)">
       <use xlink:href="#DejaVuSans-49"/>
       <use x="63.623047" xlink:href="#DejaVuSans-52"/>
       <use x="127.246094" xlink:href="#DejaVuSans-56"/>
       <use x="190.869141" xlink:href="#DejaVuSans-48"/>
       <use x="254.492188" xlink:href="#DejaVuSans-48"/>
      </g>
     </g>
    </g>
    <g id="text_29">
     <!-- MB -->
     <g transform="translate(63.52375 260.715625)rotate(-90)scale(0.08 -0.08)">
      <defs>
       <path d="M 9.8125 72.90625 
L 24.515625 72.90625 
L 43.109375 23.296875 
L 61.8125 72.90625 
L 76.515625 72.90625 
L 76.515625 0 
L 66.890625 0 
L 66.890625 64.015625 
L 48.09375 14.015625 
L 38.1875 14.015625 
L 19.390625 64.015625 
L 19.390625 0 
L 9.8125 0 
z
" id="DejaVuSans-77"/>
       <path d="M 19.671875 34.8125 
L 19.671875 8.109375 
L 35.5 8.109375 
Q 43.453125 8.109375 47.28125 11.40625 
Q 51.125 14.703125 51.125 21.484375 
Q 51.125 28.328125 47.28125 31.5625 
Q 43.453125 34.8125 35.5 34.8125 
z
M 19.671875 64.796875 
L 19.671875 42.828125 
L 34.28125 42.828125 
Q 41.5 42.828125 45.03125 45.53125 
Q 48.578125 48.25 48.578125 53.8125 
Q 48.578125 59.328125 45.03125 62.0625 
Q 41.5 64.796875 34.28125 64.796875 
z
M 9.8125 72.90625 
L 35.015625 72.90625 
Q 46.296875 72.90625 52.390625 68.21875 
Q 58.5 63.53125 58.5 54.890625 
Q 58.5 48.1875 55.375 44.234375 
Q 52.25 40.28125 46.1875 39.3125 
Q 53.46875 37.75 57.5 32.78125 
Q 61.53125 27.828125 61.53125 20.40625 
Q 61.53125 10.640625 54.890625 5.3125 
Q 48.25 0 35.984375 0 
L 9.8125 0 
z
" id="DejaVuSans-66"/>
      </defs>
      <use xlink:href="#DejaVuSans-77"/>
      <use x="86.279297" xlink:href="#DejaVuSans-66"/>
     </g>
    </g>
   </g>
   <g id="line2d_28">
    <path clip-path="url(#p6ac30cf7de)" d="M 132.349091 160.107837 
L 134.369762 150.344351 
L 136.390434 163.399435 
L 138.411105 186.016587 
L 140.431777 186.048389 
L 142.452448 172.023317 
L 144.47312 193.686382 
L 146.493791 194.868389 
L 148.514462 193.156334 
L 150.535134 202.082344 
L 152.555805 199.797837 
L 154.576477 243.304183 
L 156.597148 233.588401 
L 158.61782 210.144375 
L 160.638491 212.699207 
L 162.659163 212.094952 
L 164.679834 210.001262 
L 166.700505 207.255613 
L 168.721177 203.534675 
L 170.741848 181.463474 
L 172.76252 179.825625 
L 174.783191 176.836154 
L 176.803863 176.952764 
L 178.824534 178.823834 
L 180.845206 174.901478 
L 184.886548 170.470276 
L 186.90722 170.17345 
L 188.927891 172.04982 
L 190.948563 172.071022 
L 192.969234 170.464976 
L 194.989906 174.090505 
L 197.010577 165.98607 
L 199.031249 166.532019 
L 201.05192 163.277524 
L 203.072591 164.369423 
L 205.093263 188.274591 
L 207.113934 199.214784 
L 209.134606 200.524002 
L 211.155277 199.750132 
L 215.19662 194.015012 
L 217.217292 193.935505 
L 219.237963 194.587464 
L 221.258634 195.085709 
L 223.279306 207.65845 
L 225.299977 209.253894 
L 227.320649 188.58732 
L 229.34132 190.013149 
L 231.361992 183.928197 
L 233.382663 187.336406 
L 235.403335 186.483029 
L 237.424006 193.320649 
L 239.444677 198.483317 
L 241.465349 186.032488 
L 243.48602 186.117296 
L 245.506692 183.583666 
L 247.527363 182.868101 
L 249.548035 186.917668 
L 251.568706 185.422933 
L 253.589378 175.516334 
L 255.610049 174.0428 
L 257.63072 176.618834 
L 259.651392 179.788522 
L 261.672063 176.618834 
L 263.692735 198.260697 
L 265.713406 199.527512 
L 267.734078 198.043377 
L 269.754749 199.766034 
L 271.775421 194.550361 
L 273.796092 194.269435 
L 275.816763 197.693546 
L 277.837435 199.193582 
L 279.858106 197.349014 
L 281.878778 196.511538 
L 283.899449 196.251815 
L 285.920121 197.380817 
L 287.940792 196.591046 
L 289.961464 185.210913 
L 294.002806 185.899976 
L 296.023478 181.86101 
L 298.044149 181.97762 
L 300.064821 192.165144 
L 302.085492 191.698702 
L 304.106164 188.635024 
L 306.126835 189.721623 
L 308.147507 188.407103 
L 310.168178 188.576719 
L 312.188849 185.990084 
L 314.209521 186.859363 
L 316.230192 177.053474 
L 318.250864 178.22488 
L 320.271535 174.360829 
L 322.292207 174.975685 
L 324.312878 176.300805 
L 326.33355 199.235986 
L 328.354221 204.255541 
L 330.374892 205.67607 
L 332.395564 203.900409 
L 334.416235 204.218438 
L 336.436907 191.052043 
L 338.457578 189.997248 
L 340.47825 188.80994 
L 342.498921 188.417704 
L 344.519593 189.36649 
L 346.540264 190.103257 
L 348.560935 189.80643 
L 350.581607 189.297584 
L 352.602278 170.210553 
L 354.62295 172.590469 
L 356.643621 171.954411 
L 358.664293 173.915589 
L 360.684964 170.666394 
L 362.705636 179.390986 
L 364.726307 181.914014 
L 366.746978 180.6525 
L 368.76765 175.198305 
L 370.788321 175.023389 
L 372.808993 171.074531 
L 374.829664 169.277668 
L 376.850336 168.297079 
L 378.871007 189.594411 
L 380.891679 203.121238 
L 382.91235 202.681298 
L 384.933022 199.363197 
L 386.953693 202.819111 
L 388.974364 201.562897 
L 390.995036 200.142368 
L 393.015707 202.495781 
L 395.036379 201.891526 
L 397.05705 202.48518 
L 399.077722 196.585745 
L 401.098393 192.276454 
L 403.119065 195.970889 
L 405.139736 195.133413 
L 407.160407 196.19881 
L 409.181079 179.55 
L 411.20175 177.085276 
L 413.222422 179.290276 
L 415.243093 175.595841 
L 417.263765 171.042728 
L 419.284436 179.178966 
L 421.305108 178.177175 
L 423.325779 175.118798 
L 425.34645 167.629219 
L 427.367122 167.31649 
L 429.387793 164.782861 
L 431.408465 167.342993 
L 433.429136 165.275805 
L 435.449808 165.848257 
L 437.470479 187.325805 
L 439.491151 192.265853 
L 441.511822 190.638606 
L 443.532493 190.156262 
L 445.553165 190.421286 
L 449.594508 187.2728 
L 451.615179 190.304675 
L 453.635851 189.785228 
L 455.656522 191.290565 
L 457.677194 185.094303 
L 459.697865 188.14738 
L 461.718536 189.430096 
L 463.739208 189.000757 
L 465.759879 186.38762 
L 467.780551 188.937151 
L 469.801222 190.495493 
L 471.821894 167.009063 
L 473.842565 165.736947 
L 475.863237 170.528582 
L 479.904579 166.717536 
L 481.925251 163.510745 
L 483.945922 167.284688 
L 485.966594 173.332536 
L 487.987265 169.797115 
L 490.007937 166.738738 
L 494.04928 171.535673 
L 496.069951 170.486178 
L 498.090622 165.683942 
L 500.111294 165.901262 
L 502.131965 162.869387 
L 504.152637 182.910505 
L 506.173308 193.909002 
L 508.19398 191.046743 
L 510.214651 194.401947 
L 512.235323 196.363125 
L 514.255994 212.868822 
L 516.276665 212.609099 
L 518.297337 211.999543 
L 520.318008 214.400661 
L 522.33868 198.011575 
L 524.359351 186.292212 
L 526.380023 185.126106 
L 528.400694 172.60637 
L 530.421366 168.694615 
L 532.442037 167.793534 
L 534.462708 168.97024 
L 536.48338 169.145156 
L 538.504051 182.247945 
L 540.524723 175.171803 
L 542.545394 175.919171 
L 544.566066 175.436827 
L 546.586737 171.403161 
L 548.607409 173.783077 
L 550.62808 173.083413 
L 552.648751 174.026899 
L 554.669423 171.222945 
L 556.690094 170.703498 
L 558.710766 197.619339 
L 560.731437 193.050325 
L 562.752109 190.638606 
L 564.77278 188.571418 
L 566.793452 188.338197 
L 570.834794 190.612103 
L 572.855466 189.610313 
L 574.876137 191.253462 
L 576.896809 192.34006 
L 578.91748 191.635096 
L 580.938152 187.675637 
L 582.958823 168.684014 
L 584.979495 167.258185 
L 587.000166 164.766959 
L 589.020837 162.604363 
L 591.041509 164.782861 
L 593.06218 172.256538 
L 595.082852 167.454303 
L 597.103523 173.544555 
L 599.124195 171.890805 
L 601.144866 168.805925 
L 603.165538 167.851839 
L 605.186209 169.775913 
L 607.20688 170.427873 
L 609.227552 192.393065 
L 611.248223 194.041514 
L 613.268895 194.32774 
L 615.289566 194.751779 
L 617.310238 193.267644 
L 619.330909 193.023822 
L 619.330909 193.023822 
" style="fill:none;stroke:#1f77b4;stroke-linecap:square;stroke-width:1.5;"/>
   </g>
   <g id="line2d_29">
    <path clip-path="url(#p6ac30cf7de)" d="M 132.349091 165.031983 
L 134.369762 167.666322 
L 136.390434 167.947248 
L 138.411105 166.489615 
L 140.431777 167.581514 
L 142.452448 174.360829 
L 144.47312 174.307825 
L 146.493791 173.857284 
L 148.514462 171.710589 
L 150.535134 167.698125 
L 152.555805 164.311118 
L 154.576477 164.931274 
L 156.597148 179.348582 
L 158.61782 183.917596 
L 160.638491 209.333401 
L 162.659163 221.418498 
L 164.679834 230.254399 
L 166.700505 234.250962 
L 168.721177 254.922837 
L 170.741848 264.262284 
L 172.76252 262.279904 
L 174.783191 261.871767 
L 176.803863 262.582031 
L 178.824534 261.1403 
L 180.845206 267.447873 
L 182.865877 271.333125 
L 184.886548 273.251899 
L 186.90722 274.322596 
L 188.927891 273.686538 
L 190.948563 275.896839 
L 192.969234 273.379111 
L 194.989906 274.757236 
L 197.010577 269.414351 
L 199.031249 271.068101 
L 201.05192 277.306767 
L 203.072591 277.062945 
L 207.113934 278.398666 
L 209.134606 277.990529 
L 211.155277 266.255264 
L 213.175949 265.857728 
L 215.19662 265.76232 
L 217.217292 266.806514 
L 219.237963 268.068029 
L 221.258634 270.018606 
L 223.279306 268.8525 
L 225.299977 270.850781 
L 227.320649 269.599868 
L 229.34132 265.576803 
L 231.361992 274.073474 
L 233.382663 273.48512 
L 235.403335 273.501022 
L 237.424006 268.211142 
L 239.444677 270.564555 
L 241.465349 273.776647 
L 243.48602 274.725433 
L 245.506692 273.47982 
L 247.527363 269.700577 
L 249.548035 270.326034 
L 251.568706 274.089375 
L 253.589378 273.214796 
L 255.610049 269.122825 
L 257.63072 271.131707 
L 259.651392 268.401959 
L 261.672063 274.905649 
L 263.692735 276.294375 
L 265.713406 277.492284 
L 267.734078 277.699002 
L 269.754749 275.191875 
L 271.775421 269.435553 
L 273.796092 266.610397 
L 275.816763 267.734099 
L 277.837435 264.527308 
L 279.858106 279.310349 
L 281.878778 288.533185 
L 283.899449 286.16387 
L 285.920121 265.815325 
L 287.940792 263.721635 
L 289.961464 263.112079 
L 291.982135 258.007716 
L 294.002806 254.117163 
L 296.023478 252.744339 
L 298.044149 251.970469 
L 300.064821 254.641911 
L 302.085492 261.007788 
L 304.106164 260.901779 
L 306.126835 258.49006 
L 308.147507 254.599507 
L 310.168178 252.431611 
L 312.188849 253.300889 
L 314.209521 252.034075 
L 318.250864 247.661178 
L 320.271535 253.719627 
L 322.292207 274.725433 
L 324.312878 271.990385 
L 326.33355 268.545072 
L 328.354221 252.951058 
L 330.374892 253.258486 
L 332.395564 248.514555 
L 336.436907 243.341286 
L 338.457578 245.169952 
L 340.47825 253.4175 
L 342.498921 252.988161 
L 344.519593 253.550012 
L 346.540264 256.465276 
L 348.560935 253.921046 
L 350.581607 253.057067 
L 352.602278 257.843401 
L 354.62295 259.083714 
L 356.643621 257.991815 
L 358.664293 254.08006 
L 360.684964 265.698714 
L 362.705636 267.129844 
L 364.726307 263.430108 
L 366.746978 257.774495 
L 368.76765 258.696779 
L 370.788321 255.702007 
L 372.808993 257.811599 
L 374.829664 251.074688 
L 376.850336 251.572933 
L 378.871007 251.731947 
L 380.891679 262.825853 
L 382.91235 261.57494 
L 384.933022 260.456538 
L 386.953693 260.467139 
L 388.974364 257.737392 
L 390.995036 253.057067 
L 393.015707 255.357476 
L 395.036379 255.489988 
L 397.05705 252.802644 
L 399.077722 249.526947 
L 401.098393 264.734026 
L 403.119065 274.449808 
L 405.139736 275.631815 
L 407.160407 270.824279 
L 409.181079 255.415781 
L 411.20175 260.604952 
L 413.222422 259.046611 
L 415.243093 255.426382 
L 417.263765 254.403389 
L 419.284436 251.132993 
L 421.305108 256.126046 
L 423.325779 252.813245 
L 425.34645 251.742548 
L 427.367122 251.037584 
L 429.387793 254.429892 
L 431.408465 254.270877 
L 433.429136 253.666623 
L 435.449808 252.389207 
L 437.470479 252.378606 
L 439.491151 250.502236 
L 441.511822 253.518209 
L 443.532493 255.569495 
L 445.553165 252.86095 
L 447.573836 250.687752 
L 449.594508 243.972043 
L 451.615179 251.159495 
L 453.635851 249.977488 
L 455.656522 250.019892 
L 457.677194 251.965168 
L 459.697865 257.509471 
L 461.718536 253.714327 
L 463.739208 250.693053 
L 465.759879 250.76726 
L 467.780551 250.406827 
L 469.801222 252.463413 
L 471.821894 248.01631 
L 473.842565 247.608173 
L 475.863237 247.475661 
L 477.883908 249.675361 
L 479.904579 253.518209 
L 481.925251 252.733738 
L 483.945922 249.680661 
L 485.966594 250.915673 
L 487.987265 246.383762 
L 490.007937 249.256623 
L 492.028608 253.905144 
L 494.04928 252.659531 
L 496.069951 244.284772 
L 498.090622 243.892536 
L 500.111294 251.578233 
L 502.131965 249.55345 
L 504.152637 248.742476 
L 506.173308 247.761887 
L 508.19398 247.094026 
L 510.214651 251.32381 
L 512.235323 248.519856 
L 514.255994 250.290216 
L 516.276665 252.3203 
L 518.297337 251.265505 
L 520.318008 254.896334 
L 522.33868 254.652512 
L 522.33868 254.652512 
" style="fill:none;stroke:#ff7f0e;stroke-linecap:square;stroke-width:1.5;"/>
   </g>
   <g id="line2d_30">
    <path clip-path="url(#p6ac30cf7de)" d="M 132.349091 189.514904 
L 134.369762 188.285192 
L 136.390434 184.198522 
L 138.411105 186.991875 
L 140.431777 194.629868 
L 144.47312 191.242861 
L 146.493791 186.864663 
L 148.514462 185.772764 
L 150.535134 186.223305 
L 152.555805 181.776202 
L 154.576477 182.290349 
L 156.597148 190.490192 
L 158.61782 200.900337 
L 160.638491 229.242007 
L 162.659163 233.46649 
L 164.679834 241.687536 
L 166.700505 246.436767 
L 168.721177 260.901779 
L 170.741848 269.032716 
L 172.76252 278.7803 
L 174.783191 281.154916 
L 176.803863 278.66369 
L 178.824534 278.859808 
L 180.845206 288.289363 
L 182.865877 293.960877 
L 184.886548 291.098618 
L 186.90722 292.762969 
L 188.927891 289.497873 
L 190.948563 289.407764 
L 192.969234 287.208065 
L 197.010577 284.377608 
L 199.031249 285.564916 
L 201.05192 282.596647 
L 203.072591 285.416502 
L 205.093263 283.799856 
L 207.113934 284.976563 
L 209.134606 279.395156 
L 211.155277 286.200974 
L 213.175949 285.538413 
L 215.19662 287.102055 
L 217.217292 283.285709 
L 219.237963 289.216947 
L 221.258634 296.282488 
L 223.279306 289.715192 
L 225.299977 285.257488 
L 227.320649 287.102055 
L 229.34132 281.207921 
L 231.361992 284.112584 
L 233.382663 280.672572 
L 235.403335 282.124904 
L 237.424006 283.004784 
L 239.444677 291.713474 
L 241.465349 290.960805 
L 243.48602 292.757668 
L 245.506692 286.784026 
L 247.527363 288.024339 
L 249.548035 281.266226 
L 251.568706 283.911166 
L 253.589378 282.336923 
L 255.610049 281.600156 
L 257.63072 281.987091 
L 259.651392 289.211647 
L 261.672063 288.405974 
L 263.692735 288.612692 
L 265.713406 285.109075 
L 267.734078 282.96238 
L 269.754749 284.430613 
L 271.775421 287.854724 
L 273.796092 282.792764 
L 275.816763 283.683245 
L 277.837435 287.547296 
L 279.858106 292.879579 
L 281.878778 291.920192 
L 283.899449 291.527957 
L 285.920121 293.1022 
L 287.940792 293.997981 
L 289.961464 286.921839 
L 291.982135 285.60732 
L 294.002806 281.843978 
L 296.023478 281.759171 
L 298.044149 274.3597 
L 300.064821 283.460625 
L 302.085492 282.315721 
L 304.106164 279.591274 
L 306.126835 278.430469 
L 308.147507 278.653089 
L 310.168178 275.668918 
L 312.188849 275.589411 
L 314.209521 271.545144 
L 316.230192 272.923269 
L 318.250864 272.970974 
L 320.271535 277.137151 
L 322.292207 271.036298 
L 324.312878 271.460337 
L 326.33355 271.121106 
L 328.354221 271.317224 
L 330.374892 276.304976 
L 332.395564 272.748353 
L 336.436907 272.340216 
L 338.457578 270.347236 
L 342.498921 272.191803 
L 344.519593 273.2678 
L 346.540264 267.64399 
L 348.560935 274.884447 
L 350.581607 271.301322 
L 352.602278 268.672284 
L 354.62295 265.359483 
L 356.643621 269.589267 
L 358.664293 268.804796 
L 360.684964 277.683101 
L 362.705636 274.089375 
L 364.726307 267.993822 
L 366.746978 244.963233 
L 368.76765 246.887308 
L 370.788321 253.703726 
L 372.808993 254.504099 
L 374.829664 254.350385 
L 376.850336 253.926346 
L 378.871007 262.274603 
L 380.891679 257.292151 
L 382.91235 273.2678 
L 384.933022 274.174183 
L 386.953693 269.29244 
L 388.974364 271.354327 
L 390.995036 255.51119 
L 393.015707 255.84512 
L 395.036379 254.228474 
L 397.05705 256.327464 
L 399.077722 256.417572 
L 401.098393 257.334555 
L 403.119065 254.037656 
L 405.139736 255.458185 
L 407.160407 255.209063 
L 409.181079 259.624363 
L 411.20175 254.281478 
L 413.222422 252.3203 
L 415.243093 253.226683 
L 417.263765 251.753149 
L 419.284436 257.202043 
L 421.305108 260.657957 
L 423.325779 262.221599 
L 425.34645 262.110288 
L 427.367122 258.05012 
L 429.387793 260.991887 
L 431.408465 260.281623 
L 433.429136 261.596142 
L 435.449808 260.652656 
L 437.470479 260.154411 
L 439.491151 270.887885 
L 441.511822 277.078846 
L 443.532493 268.158137 
L 445.553165 269.419651 
L 447.573836 267.606887 
L 449.594508 261.198606 
L 451.615179 247.078125 
L 453.635851 250.677151 
L 455.656522 252.325601 
L 457.677194 248.095817 
L 459.697865 252.606526 
L 461.718536 248.726575 
L 463.739208 247.68238 
L 465.759879 247.030421 
L 467.780551 243.733522 
L 469.801222 256.406971 
L 471.821894 256.905216 
L 473.842565 256.481178 
L 475.863237 252.961659 
L 477.883908 254.610108 
L 479.904579 257.641983 
L 481.925251 254.949339 
L 483.945922 254.451094 
L 485.966594 254.117163 
L 487.987265 256.751502 
L 490.007937 257.180841 
L 492.028608 255.320373 
L 494.04928 254.106563 
L 496.069951 254.74262 
L 498.090622 253.279688 
L 500.111294 242.17518 
L 502.131965 244.327175 
L 504.152637 245.03744 
L 508.19398 243.60631 
L 510.214651 249.950986 
L 512.235323 251.970469 
L 514.255994 253.608317 
L 516.276665 247.581671 
L 518.297337 254.85393 
L 520.318008 258.505962 
L 522.33868 251.175397 
L 524.359351 247.125829 
L 526.380023 248.111719 
L 528.400694 259.417644 
L 530.421366 269.976202 
L 530.421366 269.976202 
" style="fill:none;stroke:#2ca02c;stroke-linecap:square;stroke-width:1.5;"/>
   </g>
   <g id="line2d_31">
    <path clip-path="url(#p6ac30cf7de)" d="M 132.349091 183.244435 
L 134.369762 184.267428 
L 136.390434 179.905132 
L 138.411105 188.078474 
L 140.431777 187.585529 
L 142.452448 185.963582 
L 144.47312 186.218005 
L 146.493791 189.530805 
L 148.514462 189.594411 
L 150.535134 191.529087 
L 152.555805 188.253389 
L 154.576477 186.424724 
L 156.597148 195.228822 
L 158.61782 208.713245 
L 160.638491 215.38655 
L 162.659163 233.02125 
L 164.679834 238.274026 
L 166.700505 241.274099 
L 168.721177 244.730012 
L 170.741848 261.930072 
L 172.76252 274.375601 
L 174.783191 274.03107 
L 176.803863 279.803293 
L 178.824534 277.380974 
L 180.845206 280.672572 
L 182.865877 282.766262 
L 184.886548 283.031286 
L 186.90722 304.78976 
L 188.927891 306.401106 
L 190.948563 305.086587 
L 192.969234 303.056502 
L 194.989906 283.264507 
L 197.010577 288.003137 
L 201.05192 292.77357 
L 203.072591 287.367079 
L 205.093263 285.183281 
L 207.113934 299.844411 
L 209.134606 297.856731 
L 211.155277 298.015745 
L 213.175949 293.372524 
L 215.19662 277.953425 
L 217.217292 284.377608 
L 219.237963 282.162007 
L 221.258634 284.557825 
L 223.279306 281.41994 
L 225.299977 277.142452 
L 227.320649 279.776791 
L 229.34132 280.815685 
L 231.361992 279.861599 
L 233.382663 280.884591 
L 235.403335 280.752079 
L 237.424006 284.748642 
L 239.444677 286.110865 
L 241.465349 285.776935 
L 243.48602 282.257416 
L 245.506692 280.667272 
L 247.527363 285.676226 
L 249.548035 286.206274 
L 251.568706 282.999483 
L 253.589378 284.457115 
L 255.610049 283.1797 
L 257.63072 290.690481 
L 259.651392 290.446659 
L 261.672063 290.854796 
L 263.692735 290.807091 
L 265.713406 278.706094 
L 267.734078 284.690337 
L 269.754749 288.644495 
L 271.775421 287.345877 
L 273.796092 286.799928 
L 275.816763 282.352825 
L 277.837435 289.630385 
L 279.858106 288.517284 
L 281.878778 285.193882 
L 283.899449 281.499447 
L 285.920121 280.253834 
L 287.940792 289.826502 
L 289.961464 285.087873 
L 291.982135 279.156635 
L 294.002806 279.448161 
L 296.023478 281.711466 
L 298.044149 279.744988 
L 300.064821 278.181346 
L 302.085492 275.35619 
L 304.106164 277.206058 
L 306.126835 284.557825 
L 308.147507 281.494147 
L 310.168178 285.098474 
L 312.188849 283.185 
L 314.209521 277.810313 
L 316.230192 264.940745 
L 318.250864 265.603305 
L 320.271535 263.626226 
L 322.292207 263.090877 
L 324.312878 260.928281 
L 326.33355 266.97613 
L 328.354221 272.478029 
L 332.395564 268.423161 
L 334.416235 266.700505 
L 336.436907 274.455108 
L 338.457578 272.38262 
L 340.47825 267.431971 
L 342.498921 269.000913 
L 344.519593 265.5397 
L 346.540264 273.448017 
L 348.560935 272.626442 
L 350.581607 272.1653 
L 352.602278 271.444435 
L 354.62295 271.963882 
L 356.643621 266.361274 
L 358.664293 267.760601 
L 360.684964 267.166947 
L 362.705636 266.886022 
L 364.726307 265.062656 
L 366.746978 266.239363 
L 368.76765 266.6475 
L 370.788321 265.242873 
L 372.808993 260.47774 
L 374.829664 261.855865 
L 376.850336 269.811887 
L 378.871007 269.144026 
L 380.891679 261.834663 
L 382.91235 261.251611 
L 384.933022 261.368221 
L 386.953693 272.626442 
L 388.974364 268.640481 
L 390.995036 268.142236 
L 393.015707 267.935517 
L 395.036379 277.656599 
L 397.05705 288.050841 
L 399.077722 286.397091 
L 401.098393 286.921839 
L 403.119065 271.985084 
L 405.139736 270.538053 
L 407.160407 284.488918 
L 409.181079 286.640913 
L 411.20175 282.73976 
L 413.222422 278.287356 
L 415.243093 265.317079 
L 417.263765 271.879075 
L 419.284436 269.711178 
L 421.305108 261.066094 
L 423.325779 264.77643 
L 425.34645 265.301178 
L 427.367122 266.679303 
L 429.387793 264.855938 
L 431.408465 265.067957 
L 433.429136 266.504387 
L 435.449808 264.559111 
L 437.470479 275.610613 
L 439.491151 274.783738 
L 441.511822 275.960445 
L 443.532493 269.064519 
L 445.553165 265.454892 
L 447.573836 265.120962 
L 449.594508 262.772849 
L 451.615179 263.175685 
L 453.635851 262.730445 
L 455.656522 264.060865 
L 457.677194 268.550373 
L 459.697865 263.387704 
L 463.739208 261.68625 
L 465.759879 260.403534 
L 467.780551 260.80107 
L 469.801222 258.739183 
L 471.821894 256.459976 
L 473.842565 257.975913 
L 475.863237 258.871695 
L 477.883908 257.520072 
L 479.904579 258.9353 
L 481.925251 258.908798 
L 483.945922 276.495793 
L 485.966594 277.995829 
L 487.987265 281.282127 
L 490.007937 278.244952 
L 492.028608 265.534399 
L 494.04928 262.635036 
L 496.069951 272.796058 
L 498.090622 275.128269 
L 500.111294 268.825998 
L 502.131965 266.98143 
L 504.152637 267.850709 
L 506.173308 266.917825 
L 508.19398 265.831226 
L 510.214651 264.961947 
L 512.235323 266.249964 
L 514.255994 265.158065 
L 516.276665 261.225108 
L 518.297337 259.359339 
L 520.318008 279.199038 
L 522.33868 284.849351 
L 524.359351 284.923558 
L 526.380023 78.12 
L 526.380023 78.12 
" style="fill:none;stroke:#d62728;stroke-linecap:square;stroke-width:1.5;"/>
   </g>
   <g id="line2d_32">
    <path clip-path="url(#p6ac30cf7de)" d="M 132.349091 207.017091 
L 134.369762 207.801563 
L 136.390434 207.250313 
L 138.411105 205.797981 
L 140.431777 206.370433 
L 142.452448 205.01351 
L 144.47312 201.668906 
L 146.493791 201.027548 
L 148.514462 196.368425 
L 150.535134 198.589327 
L 152.555805 201.525793 
L 154.576477 202.289063 
L 156.597148 211.315781 
L 158.61782 216.849483 
L 160.638491 237.070817 
L 162.659163 246.420865 
L 164.679834 247.443858 
L 166.700505 251.832656 
L 168.721177 263.684531 
L 170.741848 267.31006 
L 172.76252 283.147897 
L 174.783191 279.649579 
L 176.803863 277.762608 
L 178.824534 273.437416 
L 180.845206 271.61405 
L 182.865877 284.101983 
L 184.886548 281.875781 
L 186.90722 280.524159 
L 188.927891 272.849063 
L 190.948563 273.320805 
L 192.969234 279.029423 
L 194.989906 277.709603 
L 197.010577 273.2625 
L 199.031249 267.776502 
L 201.05192 269.647572 
L 203.072591 272.663546 
L 205.093263 269.73768 
L 207.113934 275.382692 
L 209.134606 270.087512 
L 211.155277 271.290721 
L 213.175949 274.836743 
L 215.19662 276.01345 
L 217.217292 276.283774 
L 219.237963 272.668846 
L 221.258634 267.887813 
L 223.279306 278.631887 
L 227.320649 279.729087 
L 229.34132 274.274892 
L 231.361992 273.37381 
L 233.382663 274.121178 
L 235.403335 273.92506 
L 237.424006 269.350745 
L 239.444677 265.900132 
L 241.465349 278.11774 
L 243.48602 279.888101 
L 245.506692 276.13006 
L 247.527363 271.301322 
L 249.548035 271.158209 
L 251.568706 277.179555 
L 253.589378 294.745349 
L 255.610049 295.073978 
L 257.63072 290.79119 
L 259.651392 291.310637 
L 261.672063 287.133858 
L 263.692735 287.722212 
L 267.734078 281.266226 
L 269.754749 272.430325 
L 271.775421 281.303329 
L 273.796092 285.299892 
L 275.816763 280.969399 
L 277.837435 271.16881 
L 279.858106 270.993894 
L 281.878778 282.379327 
L 283.899449 283.116094 
L 285.920121 283.041887 
L 287.940792 277.624796 
L 289.961464 278.244952 
L 291.982135 281.97649 
L 294.002806 279.776791 
L 296.023478 277.00994 
L 298.044149 285.824639 
L 300.064821 284.128486 
L 302.085492 288.14095 
L 304.106164 285.617921 
L 306.126835 273.03988 
L 308.147507 265.21637 
L 310.168178 265.232272 
L 312.188849 270.389639 
L 314.209521 267.85601 
L 316.230192 266.117452 
L 318.250864 275.414495 
L 320.271535 273.532825 
L 322.292207 282.835168 
L 324.312878 284.165589 
L 326.33355 269.287139 
L 328.354221 264.378894 
L 330.374892 264.813534 
L 332.395564 270.373738 
L 334.416235 266.992031 
L 336.436907 267.30476 
L 338.457578 263.822344 
L 340.47825 264.707524 
L 342.498921 270.156418 
L 344.519593 269.965601 
L 346.540264 270.405541 
L 350.581607 261.294014 
L 352.602278 259.359339 
L 356.643621 261.341719 
L 358.664293 252.940457 
L 360.684964 253.444002 
L 362.705636 265.507897 
L 364.726307 266.514988 
L 366.746978 262.089087 
L 368.76765 256.990024 
L 370.788321 257.901707 
L 372.808993 261.961875 
L 374.829664 261.336418 
L 376.850336 260.864675 
L 378.871007 257.93351 
L 380.891679 256.656094 
L 382.91235 266.181058 
L 384.933022 265.624507 
L 386.953693 262.078486 
L 388.974364 262.099688 
L 390.995036 263.260493 
L 393.015707 269.705877 
L 395.036379 263.276394 
L 397.05705 258.786887 
L 399.077722 259.385841 
L 401.098393 265.772921 
L 403.119065 268.348954 
L 405.139736 265.444291 
L 407.160407 254.466995 
L 409.181079 253.348594 
L 411.20175 261.46893 
L 413.222422 265.173966 
L 415.243093 263.567921 
L 417.263765 258.103125 
L 419.284436 260.403534 
L 421.305108 272.896767 
L 423.325779 271.486839 
L 425.34645 266.350673 
L 427.367122 262.34351 
L 429.387793 261.02369 
L 431.408465 267.320661 
L 433.429136 268.571575 
L 435.449808 268.046827 
L 437.470479 263.742837 
L 439.491151 263.032572 
L 441.511822 258.622572 
L 443.532493 259.120817 
L 445.553165 258.908798 
L 447.573836 250.094099 
L 449.594508 250.682452 
L 451.615179 262.703942 
L 453.635851 262.189796 
L 455.656522 260.573149 
L 457.677194 257.085433 
L 459.697865 258.119026 
L 461.718536 262.01488 
L 463.739208 259.136719 
L 465.759879 258.219736 
L 467.780551 253.910445 
L 469.801222 253.74613 
L 471.821894 262.226899 
L 473.842565 262.698642 
L 475.863237 261.638546 
L 477.883908 257.28155 
L 479.904579 256.523582 
L 481.925251 265.87363 
L 483.945922 266.408978 
L 485.966594 261.548438 
L 487.987265 257.8222 
L 490.007937 256.746202 
L 492.028608 259.343438 
L 494.04928 259.905288 
L 496.069951 256.311563 
L 498.090622 252.129483 
L 500.111294 249.203618 
L 502.131965 260.101406 
L 504.152637 255.998834 
L 506.173308 256.295661 
L 508.19398 249.214219 
L 510.214651 248.588762 
L 512.235323 258.500661 
L 514.255994 259.221526 
L 516.276665 253.830938 
L 518.297337 249.304327 
L 520.318008 247.178834 
L 522.33868 256.857512 
L 522.33868 256.857512 
" style="fill:none;stroke:#9467bd;stroke-linecap:square;stroke-width:1.5;"/>
   </g>
   <g id="line2d_33">
    <path clip-path="url(#p6ac30cf7de)" d="M 132.349091 189.069663 
L 134.369762 188.635024 
L 136.390434 183.159627 
L 138.411105 178.680721 
L 140.431777 192.859507 
L 142.452448 198.064579 
L 144.47312 192.912512 
L 146.493791 192.053834 
L 148.514462 186.080192 
L 150.535134 187.951262 
L 152.555805 197.174099 
L 154.576477 195.31893 
L 156.597148 188.804639 
L 158.61782 200.05226 
L 160.638491 203.873906 
L 162.659163 236.567272 
L 164.679834 241.655733 
L 166.700505 252.595925 
L 168.721177 253.4122 
L 170.741848 267.898413 
L 172.76252 283.444724 
L 174.783191 283.895264 
L 176.803863 283.057788 
L 178.824534 277.476382 
L 180.845206 280.227332 
L 182.865877 284.706238 
L 184.886548 279.522368 
L 186.90722 275.732524 
L 188.927891 274.518714 
L 190.948563 281.101911 
L 192.969234 283.598438 
L 194.989906 282.458834 
L 197.010577 280.052416 
L 199.031249 279.702584 
L 201.05192 280.084219 
L 203.072591 282.607248 
L 205.093263 284.541923 
L 207.113934 280.911094 
L 209.134606 277.036442 
L 211.155277 287.181563 
L 213.175949 286.513702 
L 215.19662 287.515493 
L 217.217292 277.683101 
L 219.237963 276.776719 
L 221.258634 283.40232 
L 223.279306 285.94125 
L 225.299977 284.207993 
L 227.320649 282.766262 
L 229.34132 282.586046 
L 231.361992 290.059724 
L 233.382663 289.91131 
L 235.403335 290.091526 
L 237.424006 285.199183 
L 239.444677 284.955361 
L 241.465349 287.457188 
L 243.48602 288.443077 
L 245.506692 288.045541 
L 249.548035 278.790901 
L 251.568706 286.847632 
L 253.589378 286.805228 
L 255.610049 285.994255 
L 257.63072 283.783954 
L 259.651392 282.596647 
L 261.672063 294.326611 
L 263.692735 292.784171 
L 265.713406 289.179844 
L 267.734078 284.563125 
L 269.754749 284.2875 
L 271.775421 285.533113 
L 273.796092 285.246887 
L 275.816763 285.432404 
L 277.837435 280.921695 
L 279.858106 280.391647 
L 281.878778 289.619784 
L 283.899449 288.830012 
L 285.920121 289.344159 
L 287.940792 281.684964 
L 289.961464 281.054207 
L 291.982135 284.632031 
L 294.002806 282.336923 
L 296.023478 278.202548 
L 298.044149 267.681094 
L 300.064821 265.264075 
L 302.085492 277.020541 
L 304.106164 275.059363 
L 306.126835 271.121106 
L 308.147507 264.914243 
L 310.168178 263.583822 
L 312.188849 268.661683 
L 314.209521 268.417861 
L 316.230192 264.516707 
L 318.250864 257.350457 
L 320.271535 256.587188 
L 322.292207 266.504387 
L 324.312878 268.391358 
L 326.33355 268.046827 
L 328.354221 263.949555 
L 330.374892 262.889459 
L 332.395564 272.218305 
L 334.416235 272.085793 
L 336.436907 266.218161 
L 338.457578 266.006142 
L 340.47825 272.043389 
L 342.498921 269.133425 
L 344.519593 270.241226 
L 346.540264 265.666911 
L 348.560935 266.186358 
L 350.581607 262.163293 
L 352.602278 265.476094 
L 354.62295 261.373522 
L 356.643621 257.928209 
L 358.664293 256.534183 
L 360.684964 268.205841 
L 362.705636 270.257127 
L 364.726307 269.038017 
L 366.746978 264.347091 
L 368.76765 264.850637 
L 370.788321 270.967392 
L 372.808993 268.492067 
L 374.829664 268.073329 
L 376.850336 263.34 
L 378.871007 261.585541 
L 380.891679 270.750072 
L 382.91235 270.442644 
L 384.933022 270.930288 
L 386.953693 264.10857 
L 388.974364 262.073185 
L 390.995036 271.592849 
L 393.015707 270.972692 
L 395.036379 269.424952 
L 397.05705 264.77113 
L 399.077722 274.815541 
L 401.098393 291.798281 
L 403.119065 292.179916 
L 405.139736 290.807091 
L 407.160407 272.387921 
L 409.181079 272.122897 
L 411.20175 273.914459 
L 415.243093 271.60345 
L 417.263765 260.710962 
L 419.284436 260.430036 
L 421.305108 293.134002 
L 423.325779 292.11101 
L 425.34645 293.404327 
L 427.367122 285.421803 
L 429.387793 272.101695 
L 431.408465 274.449808 
L 433.429136 277.105349 
L 435.449808 274.386202 
L 437.470479 267.124543 
L 439.491151 263.504315 
L 441.511822 272.112296 
L 443.532493 267.214651 
L 445.553165 267.331262 
L 447.573836 261.007788 
L 449.594508 257.302752 
L 451.615179 263.832945 
L 453.635851 264.490204 
L 455.656522 264.140373 
L 457.677194 260.053702 
L 459.697865 257.535974 
L 461.718536 261.474231 
L 463.739208 262.544928 
L 465.759879 262.258702 
L 467.780551 253.777933 
L 469.801222 251.816755 
L 471.821894 257.875204 
L 473.842565 259.59256 
L 475.863237 258.9353 
L 477.883908 254.424591 
L 479.904579 256.083642 
L 481.925251 260.604952 
L 483.945922 259.677368 
L 485.966594 252.087079 
L 487.987265 252.145385 
L 490.007937 262.094387 
L 492.028608 265.025553 
L 494.04928 263.493714 
L 496.069951 259.820481 
L 498.090622 260.180913 
L 500.111294 263.56262 
L 502.131965 268.052127 
L 504.152637 267.681094 
L 506.173308 260.790469 
L 508.19398 257.859303 
L 510.214651 262.868257 
L 512.235323 266.843618 
L 514.255994 266.419579 
L 516.276665 277.137151 
L 518.297337 277.031142 
L 520.318008 280.566563 
L 522.33868 269.679375 
L 524.359351 308.706815 
L 526.380023 428.184952 
L 528.400694 430.92 
L 528.400694 430.92 
" style="fill:none;stroke:#8c564b;stroke-linecap:square;stroke-width:1.5;"/>
   </g>
   <g id="line2d_34">
    <path clip-path="url(#p6ac30cf7de)" d="M 132.349091 186.361118 
L 134.369762 183.652572 
L 136.390434 179.486394 
L 138.411105 189.700421 
L 140.431777 203.333257 
L 142.452448 193.569772 
L 144.47312 182.030625 
L 146.493791 183.239135 
L 148.514462 186.122596 
L 150.535134 187.797548 
L 152.555805 184.770974 
L 154.576477 180.885721 
L 156.597148 186.509531 
L 158.61782 206.820974 
L 160.638491 207.1178 
L 162.659163 232.565409 
L 164.679834 238.772272 
L 166.700505 238.507248 
L 168.721177 248.700072 
L 170.741848 248.249531 
L 172.76252 264.601514 
L 174.783191 265.242873 
L 176.803863 278.027632 
L 178.824534 297.708317 
L 180.845206 294.835457 
L 182.865877 294.035084 
L 184.886548 289.985517 
L 186.90722 289.651587 
L 188.927891 294.734748 
L 190.948563 295.190589 
L 192.969234 290.833594 
L 194.989906 288.628594 
L 197.010577 285.776935 
L 199.031249 296.706526 
L 201.05192 306.55482 
L 203.072591 296.96625 
L 205.093263 292.307127 
L 207.113934 291.830084 
L 209.134606 294.586334 
L 211.155277 293.982079 
L 213.175949 293.732957 
L 215.19662 288.225757 
L 217.217292 288.967825 
L 219.237963 296.494507 
L 221.258634 298.227764 
L 223.279306 297.920337 
L 225.299977 295.715337 
L 227.320649 294.798353 
L 229.34132 302.828582 
L 231.361992 302.802079 
L 235.403335 295.349603 
L 237.424006 295.826647 
L 239.444677 310.652091 
L 241.465349 306.719135 
L 243.48602 305.807452 
L 245.506692 302.14482 
L 247.527363 312.708678 
L 249.548035 322.519868 
L 251.568706 322.170036 
L 253.589378 318.586911 
L 255.610049 306.390505 
L 257.63072 312.570865 
L 259.651392 314.924279 
L 261.672063 314.749363 
L 263.692735 307.249183 
L 265.713406 302.213726 
L 267.734078 305.743846 
L 269.754749 306.321599 
L 271.775421 306.289796 
L 273.796092 302.690769 
L 275.816763 303.003498 
L 277.837435 312.242236 
L 279.858106 313.339435 
L 281.878778 311.092031 
L 283.899449 306.798642 
L 285.920121 305.966466 
L 287.940792 311.998413 
L 289.961464 313.159219 
L 291.982135 309.910024 
L 294.002806 300.798498 
L 296.023478 236.508966 
L 298.044149 249.786671 
L 300.064821 247.226538 
L 302.085492 245.270661 
L 304.106164 241.014375 
L 306.126835 240.288209 
L 308.147507 257.292151 
L 310.168178 256.61899 
L 312.188849 255.277969 
L 314.209521 251.233702 
L 316.230192 249.823774 
L 318.250864 253.936947 
L 320.271535 253.613618 
L 322.292207 248.747776 
L 324.312878 246.071034 
L 326.33355 246.834303 
L 328.354221 255.776214 
L 330.374892 254.106563 
L 332.395564 253.327392 
L 334.416235 249.744267 
L 336.436907 249.203618 
L 338.457578 268.788894 
L 340.47825 269.965601 
L 342.498921 264.023762 
L 344.519593 259.857584 
L 348.560935 259.089014 
L 350.581607 260.059002 
L 352.602278 259.836382 
L 354.62295 256.375168 
L 356.643621 255.315072 
L 358.664293 266.371875 
L 360.684964 266.387776 
L 362.705636 264.585613 
L 364.726307 258.988305 
L 366.746978 257.965313 
L 368.76765 264.564411 
L 370.788321 260.483041 
L 372.808993 259.518353 
L 374.829664 254.774423 
L 376.850336 254.753221 
L 378.871007 276.607103 
L 380.891679 273.872055 
L 382.91235 273.559327 
L 384.933022 254.901635 
L 386.953693 250.836166 
L 388.974364 265.115661 
L 390.995036 266.589195 
L 393.015707 263.414207 
L 397.05705 248.334339 
L 399.077722 259.295733 
L 401.098393 259.15262 
L 403.119065 254.885733 
L 405.139736 255.670204 
L 407.160407 263.366502 
L 409.181079 265.523798 
L 411.20175 261.866466 
L 413.222422 257.689688 
L 415.243093 259.354038 
L 417.263765 261.596142 
L 419.284436 261.193305 
L 421.305108 260.059002 
L 423.325779 255.389279 
L 425.34645 254.546502 
L 427.367122 260.504243 
L 429.387793 263.281695 
L 431.408465 261.945974 
L 433.429136 258.527163 
L 435.449808 257.339856 
L 437.470479 267.824207 
L 439.491151 272.435625 
L 441.511822 266.711106 
L 443.532493 258.728582 
L 445.553165 258.654375 
L 447.573836 254.133065 
L 449.594508 256.433474 
L 451.615179 254.127764 
L 453.635851 250.730156 
L 455.656522 249.277825 
L 457.677194 253.491707 
L 459.697865 249.659459 
L 461.718536 248.493353 
L 463.739208 245.668197 
L 465.759879 245.901418 
L 467.780551 256.608389 
L 471.821894 257.541274 
L 473.842565 254.260276 
L 475.863237 252.267296 
L 477.883908 255.686106 
L 479.904579 255.717909 
L 481.925251 255.219663 
L 483.945922 251.747849 
L 485.966594 251.10649 
L 487.987265 260.58375 
L 490.007937 257.663185 
L 492.028608 255.230264 
L 494.04928 251.011082 
L 496.069951 250.809663 
L 498.090622 257.758594 
L 500.111294 254.800925 
L 502.131965 256.406971 
L 504.152637 252.876851 
L 506.173308 252.442212 
L 508.19398 258.214435 
L 510.214651 257.944111 
L 512.235323 257.403462 
L 514.255994 251.668341 
L 516.276665 251.949267 
L 518.297337 258.007716 
L 520.318008 258.834591 
L 522.33868 258.802788 
L 524.359351 251.143594 
L 526.380023 269.541563 
L 528.400694 323.526959 
L 530.421366 317.500313 
L 532.442037 292.529748 
L 532.442037 292.529748 
" style="fill:none;stroke:#e377c2;stroke-linecap:square;stroke-width:1.5;"/>
   </g>
   <g id="line2d_35"/>
   <g id="line2d_36"/>
   <g id="line2d_37"/>
   <g id="line2d_38"/>
   <g id="line2d_39"/>
   <g id="line2d_40"/>
   <g id="line2d_41"/>
   <g id="patch_3">
    <path d="M 108 448.56 
L 108 60.48 
" style="fill:none;stroke:#000000;stroke-linecap:square;stroke-linejoin:miter;stroke-width:0.8;"/>
   </g>
   <g id="patch_4">
    <path d="M 643.68 448.56 
L 643.68 60.48 
" style="fill:none;stroke:#000000;stroke-linecap:square;stroke-linejoin:miter;stroke-width:0.8;"/>
   </g>
   <g id="patch_5">
    <path d="M 108 448.56 
L 643.68 448.56 
" style="fill:none;stroke:#000000;stroke-linecap:square;stroke-linejoin:miter;stroke-width:0.8;"/>
   </g>
   <g id="patch_6">
    <path d="M 108 60.48 
L 643.68 60.48 
" style="fill:none;stroke:#000000;stroke-linecap:square;stroke-linejoin:miter;stroke-width:0.8;"/>
   </g>
   <g id="text_30">
    <!-- free -->
    <g transform="translate(361.055625 54.48)scale(0.15 -0.15)">
     <defs>
      <path d="M 37.109375 75.984375 
L 37.109375 68.5 
L 28.515625 68.5 
Q 23.6875 68.5 21.796875 66.546875 
Q 19.921875 64.59375 19.921875 59.515625 
L 19.921875 54.6875 
L 34.71875 54.6875 
L 34.71875 47.703125 
L 19.921875 47.703125 
L 19.921875 0 
L 10.890625 0 
L 10.890625 47.703125 
L 2.296875 47.703125 
L 2.296875 54.6875 
L 10.890625 54.6875 
L 10.890625 58.5 
Q 10.890625 67.625 15.140625 71.796875 
Q 19.390625 75.984375 28.609375 75.984375 
z
" id="DejaVuSans-102"/>
      <path d="M 41.109375 46.296875 
Q 39.59375 47.171875 37.8125 47.578125 
Q 36.03125 48 33.890625 48 
Q 26.265625 48 22.1875 43.046875 
Q 18.109375 38.09375 18.109375 28.8125 
L 18.109375 0 
L 9.078125 0 
L 9.078125 54.6875 
L 18.109375 54.6875 
L 18.109375 46.1875 
Q 20.953125 51.171875 25.484375 53.578125 
Q 30.03125 56 36.53125 56 
Q 37.453125 56 38.578125 55.875 
Q 39.703125 55.765625 41.0625 55.515625 
z
" id="DejaVuSans-114"/>
     </defs>
     <use xlink:href="#DejaVuSans-102"/>
     <use x="35.205078" xlink:href="#DejaVuSans-114"/>
     <use x="74.068359" xlink:href="#DejaVuSans-101"/>
     <use x="135.591797" xlink:href="#DejaVuSans-101"/>
    </g>
   </g>
   <g id="legend_1">
    <g id="patch_7">
     <path d="M 650.68 308.227812 
L 800.1925 308.227812 
Q 802.1925 308.227812 802.1925 306.227812 
L 802.1925 202.812187 
Q 802.1925 200.812187 800.1925 200.812187 
L 650.68 200.812187 
Q 648.68 200.812187 648.68 202.812187 
L 648.68 306.227812 
Q 648.68 308.227812 650.68 308.227812 
z
" style="fill:#ffffff;opacity:0.8;stroke:#cccccc;stroke-linejoin:miter;"/>
    </g>
    <g id="line2d_42">
     <path d="M 652.68 208.910625 
L 672.68 208.910625 
" style="fill:none;stroke:#1f77b4;stroke-linecap:square;stroke-width:1.5;"/>
    </g>
    <g id="line2d_43"/>
    <g id="text_31">
     <!-- docker -->
     <g transform="translate(680.68 212.410625)scale(0.1 -0.1)">
      <defs>
       <path d="M 9.078125 75.984375 
L 18.109375 75.984375 
L 18.109375 31.109375 
L 44.921875 54.6875 
L 56.390625 54.6875 
L 27.390625 29.109375 
L 57.625 0 
L 45.90625 0 
L 18.109375 26.703125 
L 18.109375 0 
L 9.078125 0 
z
" id="DejaVuSans-107"/>
      </defs>
      <use xlink:href="#DejaVuSans-100"/>
      <use x="63.476562" xlink:href="#DejaVuSans-111"/>
      <use x="124.658203" xlink:href="#DejaVuSans-99"/>
      <use x="179.638672" xlink:href="#DejaVuSans-107"/>
      <use x="233.923828" xlink:href="#DejaVuSans-101"/>
      <use x="295.447266" xlink:href="#DejaVuSans-114"/>
     </g>
    </g>
    <g id="line2d_44">
     <path d="M 652.68 223.58875 
L 672.68 223.58875 
" style="fill:none;stroke:#ff7f0e;stroke-linecap:square;stroke-width:1.5;"/>
    </g>
    <g id="line2d_45"/>
    <g id="text_32">
     <!-- unikernel_allocpool -->
     <g transform="translate(680.68 227.08875)scale(0.1 -0.1)">
      <defs>
       <path d="M 8.5 21.578125 
L 8.5 54.6875 
L 17.484375 54.6875 
L 17.484375 21.921875 
Q 17.484375 14.15625 20.5 10.265625 
Q 23.53125 6.390625 29.59375 6.390625 
Q 36.859375 6.390625 41.078125 11.03125 
Q 45.3125 15.671875 45.3125 23.6875 
L 45.3125 54.6875 
L 54.296875 54.6875 
L 54.296875 0 
L 45.3125 0 
L 45.3125 8.40625 
Q 42.046875 3.421875 37.71875 1 
Q 33.40625 -1.421875 27.6875 -1.421875 
Q 18.265625 -1.421875 13.375 4.4375 
Q 8.5 10.296875 8.5 21.578125 
z
M 31.109375 56 
z
" id="DejaVuSans-117"/>
       <path d="M 9.421875 54.6875 
L 18.40625 54.6875 
L 18.40625 0 
L 9.421875 0 
z
M 9.421875 75.984375 
L 18.40625 75.984375 
L 18.40625 64.59375 
L 9.421875 64.59375 
z
" id="DejaVuSans-105"/>
       <path d="M 9.421875 75.984375 
L 18.40625 75.984375 
L 18.40625 0 
L 9.421875 0 
z
" id="DejaVuSans-108"/>
       <path d="M 50.984375 -16.609375 
L 50.984375 -23.578125 
L -0.984375 -23.578125 
L -0.984375 -16.609375 
z
" id="DejaVuSans-95"/>
       <path d="M 34.28125 27.484375 
Q 23.390625 27.484375 19.1875 25 
Q 14.984375 22.515625 14.984375 16.5 
Q 14.984375 11.71875 18.140625 8.90625 
Q 21.296875 6.109375 26.703125 6.109375 
Q 34.1875 6.109375 38.703125 11.40625 
Q 43.21875 16.703125 43.21875 25.484375 
L 43.21875 27.484375 
z
M 52.203125 31.203125 
L 52.203125 0 
L 43.21875 0 
L 43.21875 8.296875 
Q 40.140625 3.328125 35.546875 0.953125 
Q 30.953125 -1.421875 24.3125 -1.421875 
Q 15.921875 -1.421875 10.953125 3.296875 
Q 6 8.015625 6 15.921875 
Q 6 25.140625 12.171875 29.828125 
Q 18.359375 34.515625 30.609375 34.515625 
L 43.21875 34.515625 
L 43.21875 35.40625 
Q 43.21875 41.609375 39.140625 45 
Q 35.0625 48.390625 27.6875 48.390625 
Q 23 48.390625 18.546875 47.265625 
Q 14.109375 46.140625 10.015625 43.890625 
L 10.015625 52.203125 
Q 14.9375 54.109375 19.578125 55.046875 
Q 24.21875 56 28.609375 56 
Q 40.484375 56 46.34375 49.84375 
Q 52.203125 43.703125 52.203125 31.203125 
z
" id="DejaVuSans-97"/>
       <path d="M 18.109375 8.203125 
L 18.109375 -20.796875 
L 9.078125 -20.796875 
L 9.078125 54.6875 
L 18.109375 54.6875 
L 18.109375 46.390625 
Q 20.953125 51.265625 25.265625 53.625 
Q 29.59375 56 35.59375 56 
Q 45.5625 56 51.78125 48.09375 
Q 58.015625 40.1875 58.015625 27.296875 
Q 58.015625 14.40625 51.78125 6.484375 
Q 45.5625 -1.421875 35.59375 -1.421875 
Q 29.59375 -1.421875 25.265625 0.953125 
Q 20.953125 3.328125 18.109375 8.203125 
z
M 48.6875 27.296875 
Q 48.6875 37.203125 44.609375 42.84375 
Q 40.53125 48.484375 33.40625 48.484375 
Q 26.265625 48.484375 22.1875 42.84375 
Q 18.109375 37.203125 18.109375 27.296875 
Q 18.109375 17.390625 22.1875 11.75 
Q 26.265625 6.109375 33.40625 6.109375 
Q 40.53125 6.109375 44.609375 11.75 
Q 48.6875 17.390625 48.6875 27.296875 
z
" id="DejaVuSans-112"/>
      </defs>
      <use xlink:href="#DejaVuSans-117"/>
      <use x="63.378906" xlink:href="#DejaVuSans-110"/>
      <use x="126.757812" xlink:href="#DejaVuSans-105"/>
      <use x="154.541016" xlink:href="#DejaVuSans-107"/>
      <use x="208.826172" xlink:href="#DejaVuSans-101"/>
      <use x="270.349609" xlink:href="#DejaVuSans-114"/>
      <use x="309.712891" xlink:href="#DejaVuSans-110"/>
      <use x="373.091797" xlink:href="#DejaVuSans-101"/>
      <use x="434.615234" xlink:href="#DejaVuSans-108"/>
      <use x="462.398438" xlink:href="#DejaVuSans-95"/>
      <use x="512.398438" xlink:href="#DejaVuSans-97"/>
      <use x="573.677734" xlink:href="#DejaVuSans-108"/>
      <use x="601.460938" xlink:href="#DejaVuSans-108"/>
      <use x="629.244141" xlink:href="#DejaVuSans-111"/>
      <use x="690.425781" xlink:href="#DejaVuSans-99"/>
      <use x="745.40625" xlink:href="#DejaVuSans-112"/>
      <use x="808.882812" xlink:href="#DejaVuSans-111"/>
      <use x="870.064453" xlink:href="#DejaVuSans-111"/>
      <use x="931.246094" xlink:href="#DejaVuSans-108"/>
     </g>
    </g>
    <g id="line2d_46">
     <path d="M 652.68 238.545 
L 672.68 238.545 
" style="fill:none;stroke:#2ca02c;stroke-linecap:square;stroke-width:1.5;"/>
    </g>
    <g id="line2d_47"/>
    <g id="text_33">
     <!-- unikernel_base -->
     <g transform="translate(680.68 242.045)scale(0.1 -0.1)">
      <defs>
       <path d="M 48.6875 27.296875 
Q 48.6875 37.203125 44.609375 42.84375 
Q 40.53125 48.484375 33.40625 48.484375 
Q 26.265625 48.484375 22.1875 42.84375 
Q 18.109375 37.203125 18.109375 27.296875 
Q 18.109375 17.390625 22.1875 11.75 
Q 26.265625 6.109375 33.40625 6.109375 
Q 40.53125 6.109375 44.609375 11.75 
Q 48.6875 17.390625 48.6875 27.296875 
z
M 18.109375 46.390625 
Q 20.953125 51.265625 25.265625 53.625 
Q 29.59375 56 35.59375 56 
Q 45.5625 56 51.78125 48.09375 
Q 58.015625 40.1875 58.015625 27.296875 
Q 58.015625 14.40625 51.78125 6.484375 
Q 45.5625 -1.421875 35.59375 -1.421875 
Q 29.59375 -1.421875 25.265625 0.953125 
Q 20.953125 3.328125 18.109375 8.203125 
L 18.109375 0 
L 9.078125 0 
L 9.078125 75.984375 
L 18.109375 75.984375 
z
" id="DejaVuSans-98"/>
      </defs>
      <use xlink:href="#DejaVuSans-117"/>
      <use x="63.378906" xlink:href="#DejaVuSans-110"/>
      <use x="126.757812" xlink:href="#DejaVuSans-105"/>
      <use x="154.541016" xlink:href="#DejaVuSans-107"/>
      <use x="208.826172" xlink:href="#DejaVuSans-101"/>
      <use x="270.349609" xlink:href="#DejaVuSans-114"/>
      <use x="309.712891" xlink:href="#DejaVuSans-110"/>
      <use x="373.091797" xlink:href="#DejaVuSans-101"/>
      <use x="434.615234" xlink:href="#DejaVuSans-108"/>
      <use x="462.398438" xlink:href="#DejaVuSans-95"/>
      <use x="512.398438" xlink:href="#DejaVuSans-98"/>
      <use x="575.875" xlink:href="#DejaVuSans-97"/>
      <use x="637.154297" xlink:href="#DejaVuSans-115"/>
      <use x="689.253906" xlink:href="#DejaVuSans-101"/>
     </g>
    </g>
    <g id="line2d_48">
     <path d="M 652.68 253.50125 
L 672.68 253.50125 
" style="fill:none;stroke:#d62728;stroke-linecap:square;stroke-width:1.5;"/>
    </g>
    <g id="line2d_49"/>
    <g id="text_34">
     <!-- unikernel_dce -->
     <g transform="translate(680.68 257.00125)scale(0.1 -0.1)">
      <use xlink:href="#DejaVuSans-117"/>
      <use x="63.378906" xlink:href="#DejaVuSans-110"/>
      <use x="126.757812" xlink:href="#DejaVuSans-105"/>
      <use x="154.541016" xlink:href="#DejaVuSans-107"/>
      <use x="208.826172" xlink:href="#DejaVuSans-101"/>
      <use x="270.349609" xlink:href="#DejaVuSans-114"/>
      <use x="309.712891" xlink:href="#DejaVuSans-110"/>
      <use x="373.091797" xlink:href="#DejaVuSans-101"/>
      <use x="434.615234" xlink:href="#DejaVuSans-108"/>
      <use x="462.398438" xlink:href="#DejaVuSans-95"/>
      <use x="512.398438" xlink:href="#DejaVuSans-100"/>
      <use x="575.875" xlink:href="#DejaVuSans-99"/>
      <use x="630.855469" xlink:href="#DejaVuSans-101"/>
     </g>
    </g>
    <g id="line2d_50">
     <path d="M 652.68 268.4575 
L 672.68 268.4575 
" style="fill:none;stroke:#9467bd;stroke-linecap:square;stroke-width:1.5;"/>
    </g>
    <g id="line2d_51"/>
    <g id="text_35">
     <!-- unikernel_dce-allocpool -->
     <g transform="translate(680.68 271.9575)scale(0.1 -0.1)">
      <defs>
       <path d="M 4.890625 31.390625 
L 31.203125 31.390625 
L 31.203125 23.390625 
L 4.890625 23.390625 
z
" id="DejaVuSans-45"/>
      </defs>
      <use xlink:href="#DejaVuSans-117"/>
      <use x="63.378906" xlink:href="#DejaVuSans-110"/>
      <use x="126.757812" xlink:href="#DejaVuSans-105"/>
      <use x="154.541016" xlink:href="#DejaVuSans-107"/>
      <use x="208.826172" xlink:href="#DejaVuSans-101"/>
      <use x="270.349609" xlink:href="#DejaVuSans-114"/>
      <use x="309.712891" xlink:href="#DejaVuSans-110"/>
      <use x="373.091797" xlink:href="#DejaVuSans-101"/>
      <use x="434.615234" xlink:href="#DejaVuSans-108"/>
      <use x="462.398438" xlink:href="#DejaVuSans-95"/>
      <use x="512.398438" xlink:href="#DejaVuSans-100"/>
      <use x="575.875" xlink:href="#DejaVuSans-99"/>
      <use x="630.855469" xlink:href="#DejaVuSans-101"/>
      <use x="692.378906" xlink:href="#DejaVuSans-45"/>
      <use x="728.462891" xlink:href="#DejaVuSans-97"/>
      <use x="789.742188" xlink:href="#DejaVuSans-108"/>
      <use x="817.525391" xlink:href="#DejaVuSans-108"/>
      <use x="845.308594" xlink:href="#DejaVuSans-111"/>
      <use x="906.490234" xlink:href="#DejaVuSans-99"/>
      <use x="961.470703" xlink:href="#DejaVuSans-112"/>
      <use x="1024.947266" xlink:href="#DejaVuSans-111"/>
      <use x="1086.128906" xlink:href="#DejaVuSans-111"/>
      <use x="1147.310547" xlink:href="#DejaVuSans-108"/>
     </g>
    </g>
    <g id="line2d_52">
     <path d="M 652.68 283.41375 
L 672.68 283.41375 
" style="fill:none;stroke:#8c564b;stroke-linecap:square;stroke-width:1.5;"/>
    </g>
    <g id="line2d_53"/>
    <g id="text_36">
     <!-- unikernel_falloc -->
     <g transform="translate(680.68 286.91375)scale(0.1 -0.1)">
      <use xlink:href="#DejaVuSans-117"/>
      <use x="63.378906" xlink:href="#DejaVuSans-110"/>
      <use x="126.757812" xlink:href="#DejaVuSans-105"/>
      <use x="154.541016" xlink:href="#DejaVuSans-107"/>
      <use x="208.826172" xlink:href="#DejaVuSans-101"/>
      <use x="270.349609" xlink:href="#DejaVuSans-114"/>
      <use x="309.712891" xlink:href="#DejaVuSans-110"/>
      <use x="373.091797" xlink:href="#DejaVuSans-101"/>
      <use x="434.615234" xlink:href="#DejaVuSans-108"/>
      <use x="462.398438" xlink:href="#DejaVuSans-95"/>
      <use x="512.398438" xlink:href="#DejaVuSans-102"/>
      <use x="547.603516" xlink:href="#DejaVuSans-97"/>
      <use x="608.882812" xlink:href="#DejaVuSans-108"/>
      <use x="636.666016" xlink:href="#DejaVuSans-108"/>
      <use x="664.449219" xlink:href="#DejaVuSans-111"/>
      <use x="725.630859" xlink:href="#DejaVuSans-99"/>
     </g>
    </g>
    <g id="line2d_54">
     <path d="M 652.68 298.37 
L 672.68 298.37 
" style="fill:none;stroke:#e377c2;stroke-linecap:square;stroke-width:1.5;"/>
    </g>
    <g id="line2d_55"/>
    <g id="text_37">
     <!-- unikernel_fbuddyalloc -->
     <g transform="translate(680.68 301.87)scale(0.1 -0.1)">
      <defs>
       <path d="M 32.171875 -5.078125 
Q 28.375 -14.84375 24.75 -17.8125 
Q 21.140625 -20.796875 15.09375 -20.796875 
L 7.90625 -20.796875 
L 7.90625 -13.28125 
L 13.1875 -13.28125 
Q 16.890625 -13.28125 18.9375 -11.515625 
Q 21 -9.765625 23.484375 -3.21875 
L 25.09375 0.875 
L 2.984375 54.6875 
L 12.5 54.6875 
L 29.59375 11.921875 
L 46.6875 54.6875 
L 56.203125 54.6875 
z
" id="DejaVuSans-121"/>
      </defs>
      <use xlink:href="#DejaVuSans-117"/>
      <use x="63.378906" xlink:href="#DejaVuSans-110"/>
      <use x="126.757812" xlink:href="#DejaVuSans-105"/>
      <use x="154.541016" xlink:href="#DejaVuSans-107"/>
      <use x="208.826172" xlink:href="#DejaVuSans-101"/>
      <use x="270.349609" xlink:href="#DejaVuSans-114"/>
      <use x="309.712891" xlink:href="#DejaVuSans-110"/>
      <use x="373.091797" xlink:href="#DejaVuSans-101"/>
      <use x="434.615234" xlink:href="#DejaVuSans-108"/>
      <use x="462.398438" xlink:href="#DejaVuSans-95"/>
      <use x="512.398438" xlink:href="#DejaVuSans-102"/>
      <use x="547.603516" xlink:href="#DejaVuSans-98"/>
      <use x="611.080078" xlink:href="#DejaVuSans-117"/>
      <use x="674.458984" xlink:href="#DejaVuSans-100"/>
      <use x="737.935547" xlink:href="#DejaVuSans-100"/>
      <use x="801.412109" xlink:href="#DejaVuSans-121"/>
      <use x="860.591797" xlink:href="#DejaVuSans-97"/>
      <use x="921.871094" xlink:href="#DejaVuSans-108"/>
      <use x="949.654297" xlink:href="#DejaVuSans-108"/>
      <use x="977.4375" xlink:href="#DejaVuSans-111"/>
      <use x="1038.619141" xlink:href="#DejaVuSans-99"/>
     </g>
    </g>
   </g>
  </g>
 </g>
 <defs>
  <clipPath id="p6ac30cf7de">
   <rect height="388.08" width="535.68" x="108" y="60.48"/>
  </clipPath>
 </defs>
</svg>
