<?xml version="1.0" encoding="utf-8" standalone="no"?>
<!DOCTYPE svg PUBLIC "-//W3C//DTD SVG 1.1//EN"
  "http://www.w3.org/Graphics/SVG/1.1/DTD/svg11.dtd">
<!-- Created with matplotlib (https://matplotlib.org/) -->
<svg height="504pt" version="1.1" viewBox="0 0 864 504" width="864pt" xmlns="http://www.w3.org/2000/svg" xmlns:xlink="http://www.w3.org/1999/xlink">
 <metadata>
  <rdf:RDF xmlns:cc="http://creativecommons.org/ns#" xmlns:dc="http://purl.org/dc/elements/1.1/" xmlns:rdf="http://www.w3.org/1999/02/22-rdf-syntax-ns#">
   <cc:Work>
    <dc:type rdf:resource="http://purl.org/dc/dcmitype/StillImage"/>
    <dc:date>2022-05-29T17:34:40.604406</dc:date>
    <dc:format>image/svg+xml</dc:format>
    <dc:creator>
     <cc:Agent>
      <dc:title>Matplotlib v3.3.4, https://matplotlib.org/</dc:title>
     </cc:Agent>
    </dc:creator>
   </cc:Work>
  </rdf:RDF>
 </metadata>
 <defs>
  <style type="text/css">*{stroke-linecap:butt;stroke-linejoin:round;}</style>
 </defs>
 <g id="figure_1">
  <g id="patch_1">
   <path d="M 0 504 
L 864 504 
L 864 0 
L 0 0 
z
" style="fill:#ffffff;"/>
  </g>
  <g id="axes_1">
   <g id="patch_2">
    <path d="M 108 448.56 
L 643.68 448.56 
L 643.68 60.48 
L 108 60.48 
z
" style="fill:#ffffff;"/>
   </g>
   <g id="matplotlib.axis_1">
    <g id="xtick_1">
     <g id="line2d_1">
      <defs>
       <path d="M 0 0 
L 0 3.5 
" id="m6b51a8f000" style="stroke:#000000;stroke-width:0.8;"/>
      </defs>
      <g>
       <use style="stroke:#000000;stroke-width:0.8;" x="132.349091" xlink:href="#m6b51a8f000" y="448.56"/>
      </g>
     </g>
     <g id="text_1">
      <!-- 0 -->
      <g transform="translate(135.108466 461.9225)rotate(-90)scale(0.1 -0.1)">
       <defs>
        <path d="M 31.78125 66.40625 
Q 24.171875 66.40625 20.328125 58.90625 
Q 16.5 51.421875 16.5 36.375 
Q 16.5 21.390625 20.328125 13.890625 
Q 24.171875 6.390625 31.78125 6.390625 
Q 39.453125 6.390625 43.28125 13.890625 
Q 47.125 21.390625 47.125 36.375 
Q 47.125 51.421875 43.28125 58.90625 
Q 39.453125 66.40625 31.78125 66.40625 
z
M 31.78125 74.21875 
Q 44.046875 74.21875 50.515625 64.515625 
Q 56.984375 54.828125 56.984375 36.375 
Q 56.984375 17.96875 50.515625 8.265625 
Q 44.046875 -1.421875 31.78125 -1.421875 
Q 19.53125 -1.421875 13.0625 8.265625 
Q 6.59375 17.96875 6.59375 36.375 
Q 6.59375 54.828125 13.0625 64.515625 
Q 19.53125 74.21875 31.78125 74.21875 
z
" id="DejaVuSans-48"/>
       </defs>
       <use xlink:href="#DejaVuSans-48"/>
      </g>
     </g>
    </g>
    <g id="xtick_2">
     <g id="line2d_2">
      <g>
       <use style="stroke:#000000;stroke-width:0.8;" x="156.597148" xlink:href="#m6b51a8f000" y="448.56"/>
      </g>
     </g>
     <g id="text_2">
      <!-- 12 -->
      <g transform="translate(159.356523 468.285)rotate(-90)scale(0.1 -0.1)">
       <defs>
        <path d="M 12.40625 8.296875 
L 28.515625 8.296875 
L 28.515625 63.921875 
L 10.984375 60.40625 
L 10.984375 69.390625 
L 28.421875 72.90625 
L 38.28125 72.90625 
L 38.28125 8.296875 
L 54.390625 8.296875 
L 54.390625 0 
L 12.40625 0 
z
" id="DejaVuSans-49"/>
        <path d="M 19.1875 8.296875 
L 53.609375 8.296875 
L 53.609375 0 
L 7.328125 0 
L 7.328125 8.296875 
Q 12.9375 14.109375 22.625 23.890625 
Q 32.328125 33.6875 34.8125 36.53125 
Q 39.546875 41.84375 41.421875 45.53125 
Q 43.3125 49.21875 43.3125 52.78125 
Q 43.3125 58.59375 39.234375 62.25 
Q 35.15625 65.921875 28.609375 65.921875 
Q 23.96875 65.921875 18.8125 64.3125 
Q 13.671875 62.703125 7.8125 59.421875 
L 7.8125 69.390625 
Q 13.765625 71.78125 18.9375 73 
Q 24.125 74.21875 28.421875 74.21875 
Q 39.75 74.21875 46.484375 68.546875 
Q 53.21875 62.890625 53.21875 53.421875 
Q 53.21875 48.921875 51.53125 44.890625 
Q 49.859375 40.875 45.40625 35.40625 
Q 44.1875 33.984375 37.640625 27.21875 
Q 31.109375 20.453125 19.1875 8.296875 
z
" id="DejaVuSans-50"/>
       </defs>
       <use xlink:href="#DejaVuSans-49"/>
       <use x="63.623047" xlink:href="#DejaVuSans-50"/>
      </g>
     </g>
    </g>
    <g id="xtick_3">
     <g id="line2d_3">
      <g>
       <use style="stroke:#000000;stroke-width:0.8;" x="180.845206" xlink:href="#m6b51a8f000" y="448.56"/>
      </g>
     </g>
     <g id="text_3">
      <!-- 24 -->
      <g transform="translate(183.604581 468.285)rotate(-90)scale(0.1 -0.1)">
       <defs>
        <path d="M 37.796875 64.3125 
L 12.890625 25.390625 
L 37.796875 25.390625 
z
M 35.203125 72.90625 
L 47.609375 72.90625 
L 47.609375 25.390625 
L 58.015625 25.390625 
L 58.015625 17.1875 
L 47.609375 17.1875 
L 47.609375 0 
L 37.796875 0 
L 37.796875 17.1875 
L 4.890625 17.1875 
L 4.890625 26.703125 
z
" id="DejaVuSans-52"/>
       </defs>
       <use xlink:href="#DejaVuSans-50"/>
       <use x="63.623047" xlink:href="#DejaVuSans-52"/>
      </g>
     </g>
    </g>
    <g id="xtick_4">
     <g id="line2d_4">
      <g>
       <use style="stroke:#000000;stroke-width:0.8;" x="205.093263" xlink:href="#m6b51a8f000" y="448.56"/>
      </g>
     </g>
     <g id="text_4">
      <!-- 36 -->
      <g transform="translate(207.852638 468.285)rotate(-90)scale(0.1 -0.1)">
       <defs>
        <path d="M 40.578125 39.3125 
Q 47.65625 37.796875 51.625 33 
Q 55.609375 28.21875 55.609375 21.1875 
Q 55.609375 10.40625 48.1875 4.484375 
Q 40.765625 -1.421875 27.09375 -1.421875 
Q 22.515625 -1.421875 17.65625 -0.515625 
Q 12.796875 0.390625 7.625 2.203125 
L 7.625 11.71875 
Q 11.71875 9.328125 16.59375 8.109375 
Q 21.484375 6.890625 26.8125 6.890625 
Q 36.078125 6.890625 40.9375 10.546875 
Q 45.796875 14.203125 45.796875 21.1875 
Q 45.796875 27.640625 41.28125 31.265625 
Q 36.765625 34.90625 28.71875 34.90625 
L 20.21875 34.90625 
L 20.21875 43.015625 
L 29.109375 43.015625 
Q 36.375 43.015625 40.234375 45.921875 
Q 44.09375 48.828125 44.09375 54.296875 
Q 44.09375 59.90625 40.109375 62.90625 
Q 36.140625 65.921875 28.71875 65.921875 
Q 24.65625 65.921875 20.015625 65.03125 
Q 15.375 64.15625 9.8125 62.3125 
L 9.8125 71.09375 
Q 15.4375 72.65625 20.34375 73.4375 
Q 25.25 74.21875 29.59375 74.21875 
Q 40.828125 74.21875 47.359375 69.109375 
Q 53.90625 64.015625 53.90625 55.328125 
Q 53.90625 49.265625 50.4375 45.09375 
Q 46.96875 40.921875 40.578125 39.3125 
z
" id="DejaVuSans-51"/>
        <path d="M 33.015625 40.375 
Q 26.375 40.375 22.484375 35.828125 
Q 18.609375 31.296875 18.609375 23.390625 
Q 18.609375 15.53125 22.484375 10.953125 
Q 26.375 6.390625 33.015625 6.390625 
Q 39.65625 6.390625 43.53125 10.953125 
Q 47.40625 15.53125 47.40625 23.390625 
Q 47.40625 31.296875 43.53125 35.828125 
Q 39.65625 40.375 33.015625 40.375 
z
M 52.59375 71.296875 
L 52.59375 62.3125 
Q 48.875 64.0625 45.09375 64.984375 
Q 41.3125 65.921875 37.59375 65.921875 
Q 27.828125 65.921875 22.671875 59.328125 
Q 17.53125 52.734375 16.796875 39.40625 
Q 19.671875 43.65625 24.015625 45.921875 
Q 28.375 48.1875 33.59375 48.1875 
Q 44.578125 48.1875 50.953125 41.515625 
Q 57.328125 34.859375 57.328125 23.390625 
Q 57.328125 12.15625 50.6875 5.359375 
Q 44.046875 -1.421875 33.015625 -1.421875 
Q 20.359375 -1.421875 13.671875 8.265625 
Q 6.984375 17.96875 6.984375 36.375 
Q 6.984375 53.65625 15.1875 63.9375 
Q 23.390625 74.21875 37.203125 74.21875 
Q 40.921875 74.21875 44.703125 73.484375 
Q 48.484375 72.75 52.59375 71.296875 
z
" id="DejaVuSans-54"/>
       </defs>
       <use xlink:href="#DejaVuSans-51"/>
       <use x="63.623047" xlink:href="#DejaVuSans-54"/>
      </g>
     </g>
    </g>
    <g id="xtick_5">
     <g id="line2d_5">
      <g>
       <use style="stroke:#000000;stroke-width:0.8;" x="229.34132" xlink:href="#m6b51a8f000" y="448.56"/>
      </g>
     </g>
     <g id="text_5">
      <!-- 48 -->
      <g transform="translate(232.100695 468.285)rotate(-90)scale(0.1 -0.1)">
       <defs>
        <path d="M 31.78125 34.625 
Q 24.75 34.625 20.71875 30.859375 
Q 16.703125 27.09375 16.703125 20.515625 
Q 16.703125 13.921875 20.71875 10.15625 
Q 24.75 6.390625 31.78125 6.390625 
Q 38.8125 6.390625 42.859375 10.171875 
Q 46.921875 13.96875 46.921875 20.515625 
Q 46.921875 27.09375 42.890625 30.859375 
Q 38.875 34.625 31.78125 34.625 
z
M 21.921875 38.8125 
Q 15.578125 40.375 12.03125 44.71875 
Q 8.5 49.078125 8.5 55.328125 
Q 8.5 64.0625 14.71875 69.140625 
Q 20.953125 74.21875 31.78125 74.21875 
Q 42.671875 74.21875 48.875 69.140625 
Q 55.078125 64.0625 55.078125 55.328125 
Q 55.078125 49.078125 51.53125 44.71875 
Q 48 40.375 41.703125 38.8125 
Q 48.828125 37.15625 52.796875 32.3125 
Q 56.78125 27.484375 56.78125 20.515625 
Q 56.78125 9.90625 50.3125 4.234375 
Q 43.84375 -1.421875 31.78125 -1.421875 
Q 19.734375 -1.421875 13.25 4.234375 
Q 6.78125 9.90625 6.78125 20.515625 
Q 6.78125 27.484375 10.78125 32.3125 
Q 14.796875 37.15625 21.921875 38.8125 
z
M 18.3125 54.390625 
Q 18.3125 48.734375 21.84375 45.5625 
Q 25.390625 42.390625 31.78125 42.390625 
Q 38.140625 42.390625 41.71875 45.5625 
Q 45.3125 48.734375 45.3125 54.390625 
Q 45.3125 60.0625 41.71875 63.234375 
Q 38.140625 66.40625 31.78125 66.40625 
Q 25.390625 66.40625 21.84375 63.234375 
Q 18.3125 60.0625 18.3125 54.390625 
z
" id="DejaVuSans-56"/>
       </defs>
       <use xlink:href="#DejaVuSans-52"/>
       <use x="63.623047" xlink:href="#DejaVuSans-56"/>
      </g>
     </g>
    </g>
    <g id="xtick_6">
     <g id="line2d_6">
      <g>
       <use style="stroke:#000000;stroke-width:0.8;" x="253.589378" xlink:href="#m6b51a8f000" y="448.56"/>
      </g>
     </g>
     <g id="text_6">
      <!-- 60 -->
      <g transform="translate(256.348753 468.285)rotate(-90)scale(0.1 -0.1)">
       <use xlink:href="#DejaVuSans-54"/>
       <use x="63.623047" xlink:href="#DejaVuSans-48"/>
      </g>
     </g>
    </g>
    <g id="xtick_7">
     <g id="line2d_7">
      <g>
       <use style="stroke:#000000;stroke-width:0.8;" x="277.837435" xlink:href="#m6b51a8f000" y="448.56"/>
      </g>
     </g>
     <g id="text_7">
      <!-- 72 -->
      <g transform="translate(280.59681 468.285)rotate(-90)scale(0.1 -0.1)">
       <defs>
        <path d="M 8.203125 72.90625 
L 55.078125 72.90625 
L 55.078125 68.703125 
L 28.609375 0 
L 18.3125 0 
L 43.21875 64.59375 
L 8.203125 64.59375 
z
" id="DejaVuSans-55"/>
       </defs>
       <use xlink:href="#DejaVuSans-55"/>
       <use x="63.623047" xlink:href="#DejaVuSans-50"/>
      </g>
     </g>
    </g>
    <g id="xtick_8">
     <g id="line2d_8">
      <g>
       <use style="stroke:#000000;stroke-width:0.8;" x="302.085492" xlink:href="#m6b51a8f000" y="448.56"/>
      </g>
     </g>
     <g id="text_8">
      <!-- 84 -->
      <g transform="translate(304.844867 468.285)rotate(-90)scale(0.1 -0.1)">
       <use xlink:href="#DejaVuSans-56"/>
       <use x="63.623047" xlink:href="#DejaVuSans-52"/>
      </g>
     </g>
    </g>
    <g id="xtick_9">
     <g id="line2d_9">
      <g>
       <use style="stroke:#000000;stroke-width:0.8;" x="326.33355" xlink:href="#m6b51a8f000" y="448.56"/>
      </g>
     </g>
     <g id="text_9">
      <!-- 96 -->
      <g transform="translate(329.092925 468.285)rotate(-90)scale(0.1 -0.1)">
       <defs>
        <path d="M 10.984375 1.515625 
L 10.984375 10.5 
Q 14.703125 8.734375 18.5 7.8125 
Q 22.3125 6.890625 25.984375 6.890625 
Q 35.75 6.890625 40.890625 13.453125 
Q 46.046875 20.015625 46.78125 33.40625 
Q 43.953125 29.203125 39.59375 26.953125 
Q 35.25 24.703125 29.984375 24.703125 
Q 19.046875 24.703125 12.671875 31.3125 
Q 6.296875 37.9375 6.296875 49.421875 
Q 6.296875 60.640625 12.9375 67.421875 
Q 19.578125 74.21875 30.609375 74.21875 
Q 43.265625 74.21875 49.921875 64.515625 
Q 56.59375 54.828125 56.59375 36.375 
Q 56.59375 19.140625 48.40625 8.859375 
Q 40.234375 -1.421875 26.421875 -1.421875 
Q 22.703125 -1.421875 18.890625 -0.6875 
Q 15.09375 0.046875 10.984375 1.515625 
z
M 30.609375 32.421875 
Q 37.25 32.421875 41.125 36.953125 
Q 45.015625 41.5 45.015625 49.421875 
Q 45.015625 57.28125 41.125 61.84375 
Q 37.25 66.40625 30.609375 66.40625 
Q 23.96875 66.40625 20.09375 61.84375 
Q 16.21875 57.28125 16.21875 49.421875 
Q 16.21875 41.5 20.09375 36.953125 
Q 23.96875 32.421875 30.609375 32.421875 
z
" id="DejaVuSans-57"/>
       </defs>
       <use xlink:href="#DejaVuSans-57"/>
       <use x="63.623047" xlink:href="#DejaVuSans-54"/>
      </g>
     </g>
    </g>
    <g id="xtick_10">
     <g id="line2d_10">
      <g>
       <use style="stroke:#000000;stroke-width:0.8;" x="350.581607" xlink:href="#m6b51a8f000" y="448.56"/>
      </g>
     </g>
     <g id="text_10">
      <!-- 108 -->
      <g transform="translate(353.340982 474.6475)rotate(-90)scale(0.1 -0.1)">
       <use xlink:href="#DejaVuSans-49"/>
       <use x="63.623047" xlink:href="#DejaVuSans-48"/>
       <use x="127.246094" xlink:href="#DejaVuSans-56"/>
      </g>
     </g>
    </g>
    <g id="xtick_11">
     <g id="line2d_11">
      <g>
       <use style="stroke:#000000;stroke-width:0.8;" x="374.829664" xlink:href="#m6b51a8f000" y="448.56"/>
      </g>
     </g>
     <g id="text_11">
      <!-- 120 -->
      <g transform="translate(377.589039 474.6475)rotate(-90)scale(0.1 -0.1)">
       <use xlink:href="#DejaVuSans-49"/>
       <use x="63.623047" xlink:href="#DejaVuSans-50"/>
       <use x="127.246094" xlink:href="#DejaVuSans-48"/>
      </g>
     </g>
    </g>
    <g id="xtick_12">
     <g id="line2d_12">
      <g>
       <use style="stroke:#000000;stroke-width:0.8;" x="399.077722" xlink:href="#m6b51a8f000" y="448.56"/>
      </g>
     </g>
     <g id="text_12">
      <!-- 132 -->
      <g transform="translate(401.837097 474.6475)rotate(-90)scale(0.1 -0.1)">
       <use xlink:href="#DejaVuSans-49"/>
       <use x="63.623047" xlink:href="#DejaVuSans-51"/>
       <use x="127.246094" xlink:href="#DejaVuSans-50"/>
      </g>
     </g>
    </g>
    <g id="xtick_13">
     <g id="line2d_13">
      <g>
       <use style="stroke:#000000;stroke-width:0.8;" x="423.325779" xlink:href="#m6b51a8f000" y="448.56"/>
      </g>
     </g>
     <g id="text_13">
      <!-- 144 -->
      <g transform="translate(426.085154 474.6475)rotate(-90)scale(0.1 -0.1)">
       <use xlink:href="#DejaVuSans-49"/>
       <use x="63.623047" xlink:href="#DejaVuSans-52"/>
       <use x="127.246094" xlink:href="#DejaVuSans-52"/>
      </g>
     </g>
    </g>
    <g id="xtick_14">
     <g id="line2d_14">
      <g>
       <use style="stroke:#000000;stroke-width:0.8;" x="447.573836" xlink:href="#m6b51a8f000" y="448.56"/>
      </g>
     </g>
     <g id="text_14">
      <!-- 156 -->
      <g transform="translate(450.333211 474.6475)rotate(-90)scale(0.1 -0.1)">
       <defs>
        <path d="M 10.796875 72.90625 
L 49.515625 72.90625 
L 49.515625 64.59375 
L 19.828125 64.59375 
L 19.828125 46.734375 
Q 21.96875 47.46875 24.109375 47.828125 
Q 26.265625 48.1875 28.421875 48.1875 
Q 40.625 48.1875 47.75 41.5 
Q 54.890625 34.8125 54.890625 23.390625 
Q 54.890625 11.625 47.5625 5.09375 
Q 40.234375 -1.421875 26.90625 -1.421875 
Q 22.3125 -1.421875 17.546875 -0.640625 
Q 12.796875 0.140625 7.71875 1.703125 
L 7.71875 11.625 
Q 12.109375 9.234375 16.796875 8.0625 
Q 21.484375 6.890625 26.703125 6.890625 
Q 35.15625 6.890625 40.078125 11.328125 
Q 45.015625 15.765625 45.015625 23.390625 
Q 45.015625 31 40.078125 35.4375 
Q 35.15625 39.890625 26.703125 39.890625 
Q 22.75 39.890625 18.8125 39.015625 
Q 14.890625 38.140625 10.796875 36.28125 
z
" id="DejaVuSans-53"/>
       </defs>
       <use xlink:href="#DejaVuSans-49"/>
       <use x="63.623047" xlink:href="#DejaVuSans-53"/>
       <use x="127.246094" xlink:href="#DejaVuSans-54"/>
      </g>
     </g>
    </g>
    <g id="xtick_15">
     <g id="line2d_15">
      <g>
       <use style="stroke:#000000;stroke-width:0.8;" x="471.821894" xlink:href="#m6b51a8f000" y="448.56"/>
      </g>
     </g>
     <g id="text_15">
      <!-- 168 -->
      <g transform="translate(474.581269 474.6475)rotate(-90)scale(0.1 -0.1)">
       <use xlink:href="#DejaVuSans-49"/>
       <use x="63.623047" xlink:href="#DejaVuSans-54"/>
       <use x="127.246094" xlink:href="#DejaVuSans-56"/>
      </g>
     </g>
    </g>
    <g id="xtick_16">
     <g id="line2d_16">
      <g>
       <use style="stroke:#000000;stroke-width:0.8;" x="496.069951" xlink:href="#m6b51a8f000" y="448.56"/>
      </g>
     </g>
     <g id="text_16">
      <!-- 180 -->
      <g transform="translate(498.829326 474.6475)rotate(-90)scale(0.1 -0.1)">
       <use xlink:href="#DejaVuSans-49"/>
       <use x="63.623047" xlink:href="#DejaVuSans-56"/>
       <use x="127.246094" xlink:href="#DejaVuSans-48"/>
      </g>
     </g>
    </g>
    <g id="xtick_17">
     <g id="line2d_17">
      <g>
       <use style="stroke:#000000;stroke-width:0.8;" x="520.318008" xlink:href="#m6b51a8f000" y="448.56"/>
      </g>
     </g>
     <g id="text_17">
      <!-- 192 -->
      <g transform="translate(523.077383 474.6475)rotate(-90)scale(0.1 -0.1)">
       <use xlink:href="#DejaVuSans-49"/>
       <use x="63.623047" xlink:href="#DejaVuSans-57"/>
       <use x="127.246094" xlink:href="#DejaVuSans-50"/>
      </g>
     </g>
    </g>
    <g id="xtick_18">
     <g id="line2d_18">
      <g>
       <use style="stroke:#000000;stroke-width:0.8;" x="544.566066" xlink:href="#m6b51a8f000" y="448.56"/>
      </g>
     </g>
     <g id="text_18">
      <!-- 204 -->
      <g transform="translate(547.325441 474.6475)rotate(-90)scale(0.1 -0.1)">
       <use xlink:href="#DejaVuSans-50"/>
       <use x="63.623047" xlink:href="#DejaVuSans-48"/>
       <use x="127.246094" xlink:href="#DejaVuSans-52"/>
      </g>
     </g>
    </g>
    <g id="xtick_19">
     <g id="line2d_19">
      <g>
       <use style="stroke:#000000;stroke-width:0.8;" x="568.814123" xlink:href="#m6b51a8f000" y="448.56"/>
      </g>
     </g>
     <g id="text_19">
      <!-- 216 -->
      <g transform="translate(571.573498 474.6475)rotate(-90)scale(0.1 -0.1)">
       <use xlink:href="#DejaVuSans-50"/>
       <use x="63.623047" xlink:href="#DejaVuSans-49"/>
       <use x="127.246094" xlink:href="#DejaVuSans-54"/>
      </g>
     </g>
    </g>
    <g id="xtick_20">
     <g id="line2d_20">
      <g>
       <use style="stroke:#000000;stroke-width:0.8;" x="593.06218" xlink:href="#m6b51a8f000" y="448.56"/>
      </g>
     </g>
     <g id="text_20">
      <!-- 228 -->
      <g transform="translate(595.821555 474.6475)rotate(-90)scale(0.1 -0.1)">
       <use xlink:href="#DejaVuSans-50"/>
       <use x="63.623047" xlink:href="#DejaVuSans-50"/>
       <use x="127.246094" xlink:href="#DejaVuSans-56"/>
      </g>
     </g>
    </g>
    <g id="xtick_21">
     <g id="line2d_21">
      <g>
       <use style="stroke:#000000;stroke-width:0.8;" x="617.310238" xlink:href="#m6b51a8f000" y="448.56"/>
      </g>
     </g>
     <g id="text_21">
      <!-- 240 -->
      <g transform="translate(620.069613 474.6475)rotate(-90)scale(0.1 -0.1)">
       <use xlink:href="#DejaVuSans-50"/>
       <use x="63.623047" xlink:href="#DejaVuSans-52"/>
       <use x="127.246094" xlink:href="#DejaVuSans-48"/>
      </g>
     </g>
    </g>
    <g id="text_22">
     <!-- seconds -->
     <g transform="translate(359.49 484.72625)scale(0.08 -0.08)">
      <defs>
       <path d="M 44.28125 53.078125 
L 44.28125 44.578125 
Q 40.484375 46.53125 36.375 47.5 
Q 32.28125 48.484375 27.875 48.484375 
Q 21.1875 48.484375 17.84375 46.4375 
Q 14.5 44.390625 14.5 40.28125 
Q 14.5 37.15625 16.890625 35.375 
Q 19.28125 33.59375 26.515625 31.984375 
L 29.59375 31.296875 
Q 39.15625 29.25 43.1875 25.515625 
Q 47.21875 21.78125 47.21875 15.09375 
Q 47.21875 7.46875 41.1875 3.015625 
Q 35.15625 -1.421875 24.609375 -1.421875 
Q 20.21875 -1.421875 15.453125 -0.5625 
Q 10.6875 0.296875 5.421875 2 
L 5.421875 11.28125 
Q 10.40625 8.6875 15.234375 7.390625 
Q 20.0625 6.109375 24.8125 6.109375 
Q 31.15625 6.109375 34.5625 8.28125 
Q 37.984375 10.453125 37.984375 14.40625 
Q 37.984375 18.0625 35.515625 20.015625 
Q 33.0625 21.96875 24.703125 23.78125 
L 21.578125 24.515625 
Q 13.234375 26.265625 9.515625 29.90625 
Q 5.8125 33.546875 5.8125 39.890625 
Q 5.8125 47.609375 11.28125 51.796875 
Q 16.75 56 26.8125 56 
Q 31.78125 56 36.171875 55.265625 
Q 40.578125 54.546875 44.28125 53.078125 
z
" id="DejaVuSans-115"/>
       <path d="M 56.203125 29.59375 
L 56.203125 25.203125 
L 14.890625 25.203125 
Q 15.484375 15.921875 20.484375 11.0625 
Q 25.484375 6.203125 34.421875 6.203125 
Q 39.59375 6.203125 44.453125 7.46875 
Q 49.3125 8.734375 54.109375 11.28125 
L 54.109375 2.78125 
Q 49.265625 0.734375 44.1875 -0.34375 
Q 39.109375 -1.421875 33.890625 -1.421875 
Q 20.796875 -1.421875 13.15625 6.1875 
Q 5.515625 13.8125 5.515625 26.8125 
Q 5.515625 40.234375 12.765625 48.109375 
Q 20.015625 56 32.328125 56 
Q 43.359375 56 49.78125 48.890625 
Q 56.203125 41.796875 56.203125 29.59375 
z
M 47.21875 32.234375 
Q 47.125 39.59375 43.09375 43.984375 
Q 39.0625 48.390625 32.421875 48.390625 
Q 24.90625 48.390625 20.390625 44.140625 
Q 15.875 39.890625 15.1875 32.171875 
z
" id="DejaVuSans-101"/>
       <path d="M 48.78125 52.59375 
L 48.78125 44.1875 
Q 44.96875 46.296875 41.140625 47.34375 
Q 37.3125 48.390625 33.40625 48.390625 
Q 24.65625 48.390625 19.8125 42.84375 
Q 14.984375 37.3125 14.984375 27.296875 
Q 14.984375 17.28125 19.8125 11.734375 
Q 24.65625 6.203125 33.40625 6.203125 
Q 37.3125 6.203125 41.140625 7.25 
Q 44.96875 8.296875 48.78125 10.40625 
L 48.78125 2.09375 
Q 45.015625 0.34375 40.984375 -0.53125 
Q 36.96875 -1.421875 32.421875 -1.421875 
Q 20.0625 -1.421875 12.78125 6.34375 
Q 5.515625 14.109375 5.515625 27.296875 
Q 5.515625 40.671875 12.859375 48.328125 
Q 20.21875 56 33.015625 56 
Q 37.15625 56 41.109375 55.140625 
Q 45.0625 54.296875 48.78125 52.59375 
z
" id="DejaVuSans-99"/>
       <path d="M 30.609375 48.390625 
Q 23.390625 48.390625 19.1875 42.75 
Q 14.984375 37.109375 14.984375 27.296875 
Q 14.984375 17.484375 19.15625 11.84375 
Q 23.34375 6.203125 30.609375 6.203125 
Q 37.796875 6.203125 41.984375 11.859375 
Q 46.1875 17.53125 46.1875 27.296875 
Q 46.1875 37.015625 41.984375 42.703125 
Q 37.796875 48.390625 30.609375 48.390625 
z
M 30.609375 56 
Q 42.328125 56 49.015625 48.375 
Q 55.71875 40.765625 55.71875 27.296875 
Q 55.71875 13.875 49.015625 6.21875 
Q 42.328125 -1.421875 30.609375 -1.421875 
Q 18.84375 -1.421875 12.171875 6.21875 
Q 5.515625 13.875 5.515625 27.296875 
Q 5.515625 40.765625 12.171875 48.375 
Q 18.84375 56 30.609375 56 
z
" id="DejaVuSans-111"/>
       <path d="M 54.890625 33.015625 
L 54.890625 0 
L 45.90625 0 
L 45.90625 32.71875 
Q 45.90625 40.484375 42.875 44.328125 
Q 39.84375 48.1875 33.796875 48.1875 
Q 26.515625 48.1875 22.3125 43.546875 
Q 18.109375 38.921875 18.109375 30.90625 
L 18.109375 0 
L 9.078125 0 
L 9.078125 54.6875 
L 18.109375 54.6875 
L 18.109375 46.1875 
Q 21.34375 51.125 25.703125 53.5625 
Q 30.078125 56 35.796875 56 
Q 45.21875 56 50.046875 50.171875 
Q 54.890625 44.34375 54.890625 33.015625 
z
" id="DejaVuSans-110"/>
       <path d="M 45.40625 46.390625 
L 45.40625 75.984375 
L 54.390625 75.984375 
L 54.390625 0 
L 45.40625 0 
L 45.40625 8.203125 
Q 42.578125 3.328125 38.25 0.953125 
Q 33.9375 -1.421875 27.875 -1.421875 
Q 17.96875 -1.421875 11.734375 6.484375 
Q 5.515625 14.40625 5.515625 27.296875 
Q 5.515625 40.1875 11.734375 48.09375 
Q 17.96875 56 27.875 56 
Q 33.9375 56 38.25 53.625 
Q 42.578125 51.265625 45.40625 46.390625 
z
M 14.796875 27.296875 
Q 14.796875 17.390625 18.875 11.75 
Q 22.953125 6.109375 30.078125 6.109375 
Q 37.203125 6.109375 41.296875 11.75 
Q 45.40625 17.390625 45.40625 27.296875 
Q 45.40625 37.203125 41.296875 42.84375 
Q 37.203125 48.484375 30.078125 48.484375 
Q 22.953125 48.484375 18.875 42.84375 
Q 14.796875 37.203125 14.796875 27.296875 
z
" id="DejaVuSans-100"/>
      </defs>
      <use xlink:href="#DejaVuSans-115"/>
      <use x="52.099609" xlink:href="#DejaVuSans-101"/>
      <use x="113.623047" xlink:href="#DejaVuSans-99"/>
      <use x="168.603516" xlink:href="#DejaVuSans-111"/>
      <use x="229.785156" xlink:href="#DejaVuSans-110"/>
      <use x="293.164062" xlink:href="#DejaVuSans-100"/>
      <use x="356.640625" xlink:href="#DejaVuSans-115"/>
     </g>
    </g>
   </g>
   <g id="matplotlib.axis_2">
    <g id="ytick_1">
     <g id="line2d_22">
      <defs>
       <path d="M 0 0 
L -3.5 0 
" id="mc71b469329" style="stroke:#000000;stroke-width:0.8;"/>
      </defs>
      <g>
       <use style="stroke:#000000;stroke-width:0.8;" x="108" xlink:href="#mc71b469329" y="422.873888"/>
      </g>
     </g>
     <g id="text_23">
      <!-- 13200 -->
      <g transform="translate(69.1875 426.673107)scale(0.1 -0.1)">
       <use xlink:href="#DejaVuSans-49"/>
       <use x="63.623047" xlink:href="#DejaVuSans-51"/>
       <use x="127.246094" xlink:href="#DejaVuSans-50"/>
       <use x="190.869141" xlink:href="#DejaVuSans-48"/>
       <use x="254.492188" xlink:href="#DejaVuSans-48"/>
      </g>
     </g>
    </g>
    <g id="ytick_2">
     <g id="line2d_23">
      <g>
       <use style="stroke:#000000;stroke-width:0.8;" x="108" xlink:href="#mc71b469329" y="359.658051"/>
      </g>
     </g>
     <g id="text_24">
      <!-- 13250 -->
      <g transform="translate(69.1875 363.45727)scale(0.1 -0.1)">
       <use xlink:href="#DejaVuSans-49"/>
       <use x="63.623047" xlink:href="#DejaVuSans-51"/>
       <use x="127.246094" xlink:href="#DejaVuSans-50"/>
       <use x="190.869141" xlink:href="#DejaVuSans-53"/>
       <use x="254.492188" xlink:href="#DejaVuSans-48"/>
      </g>
     </g>
    </g>
    <g id="ytick_3">
     <g id="line2d_24">
      <g>
       <use style="stroke:#000000;stroke-width:0.8;" x="108" xlink:href="#mc71b469329" y="296.442214"/>
      </g>
     </g>
     <g id="text_25">
      <!-- 13300 -->
      <g transform="translate(69.1875 300.241433)scale(0.1 -0.1)">
       <use xlink:href="#DejaVuSans-49"/>
       <use x="63.623047" xlink:href="#DejaVuSans-51"/>
       <use x="127.246094" xlink:href="#DejaVuSans-51"/>
       <use x="190.869141" xlink:href="#DejaVuSans-48"/>
       <use x="254.492188" xlink:href="#DejaVuSans-48"/>
      </g>
     </g>
    </g>
    <g id="ytick_4">
     <g id="line2d_25">
      <g>
       <use style="stroke:#000000;stroke-width:0.8;" x="108" xlink:href="#mc71b469329" y="233.226377"/>
      </g>
     </g>
     <g id="text_26">
      <!-- 13350 -->
      <g transform="translate(69.1875 237.025596)scale(0.1 -0.1)">
       <use xlink:href="#DejaVuSans-49"/>
       <use x="63.623047" xlink:href="#DejaVuSans-51"/>
       <use x="127.246094" xlink:href="#DejaVuSans-51"/>
       <use x="190.869141" xlink:href="#DejaVuSans-53"/>
       <use x="254.492188" xlink:href="#DejaVuSans-48"/>
      </g>
     </g>
    </g>
    <g id="ytick_5">
     <g id="line2d_26">
      <g>
       <use style="stroke:#000000;stroke-width:0.8;" x="108" xlink:href="#mc71b469329" y="170.010541"/>
      </g>
     </g>
     <g id="text_27">
      <!-- 13400 -->
      <g transform="translate(69.1875 173.809759)scale(0.1 -0.1)">
       <use xlink:href="#DejaVuSans-49"/>
       <use x="63.623047" xlink:href="#DejaVuSans-51"/>
       <use x="127.246094" xlink:href="#DejaVuSans-52"/>
       <use x="190.869141" xlink:href="#DejaVuSans-48"/>
       <use x="254.492188" xlink:href="#DejaVuSans-48"/>
      </g>
     </g>
    </g>
    <g id="ytick_6">
     <g id="line2d_27">
      <g>
       <use style="stroke:#000000;stroke-width:0.8;" x="108" xlink:href="#mc71b469329" y="106.794704"/>
      </g>
     </g>
     <g id="text_28">
      <!-- 13450 -->
      <g transform="translate(69.1875 110.593922)scale(0.1 -0.1)">
       <use xlink:href="#DejaVuSans-49"/>
       <use x="63.623047" xlink:href="#DejaVuSans-51"/>
       <use x="127.246094" xlink:href="#DejaVuSans-52"/>
       <use x="190.869141" xlink:href="#DejaVuSans-53"/>
       <use x="254.492188" xlink:href="#DejaVuSans-48"/>
      </g>
     </g>
    </g>
   </g>
   <g id="line2d_28">
    <path clip-path="url(#p10920de640)" d="M 132.349091 273.927262 
L 134.369762 271.939756 
L 136.390434 292.892013 
L 138.411105 317.075864 
L 140.431777 318.102489 
L 142.452448 309.029752 
L 144.47312 325.101746 
L 146.493791 329.440881 
L 148.514462 323.068725 
L 150.535134 332.535929 
L 152.555805 330.38659 
L 154.576477 371.026787 
L 156.597148 362.737927 
L 158.61782 340.920877 
L 160.638491 342.832524 
L 162.659163 342.883097 
L 164.679834 341.234428 
L 166.700505 337.279645 
L 168.721177 335.469144 
L 170.741848 336.136703 
L 172.76252 311.593786 
L 174.783191 308.468395 
L 176.803863 308.640342 
L 178.824534 311.664588 
L 180.845206 308.604941 
L 182.865877 304.397295 
L 184.886548 303.188609 
L 186.90722 303.947199 
L 188.927891 304.994053 
L 190.948563 304.983938 
L 192.969234 304.594529 
L 194.989906 306.066193 
L 197.010577 300.027817 
L 199.031249 299.056821 
L 201.05192 296.609104 
L 203.072591 297.398038 
L 205.093263 319.381977 
L 207.113934 331.261497 
L 209.134606 331.266555 
L 211.155277 330.730484 
L 213.175949 329.157674 
L 215.19662 325.50127 
L 221.258634 327.104424 
L 223.279306 341.654181 
L 225.299977 341.45189 
L 227.320649 342.078991 
L 229.34132 323.134469 
L 231.361992 313.207054 
L 233.382663 319.609554 
L 235.403335 318.496956 
L 237.424006 326.320548 
L 239.444677 330.290502 
L 241.465349 317.814225 
L 243.48602 319.255546 
L 245.506692 313.960587 
L 247.527363 315.164217 
L 249.548035 318.795334 
L 251.568706 317.69285 
L 253.589378 308.822404 
L 255.610049 307.391197 
L 257.63072 309.510192 
L 259.651392 312.266403 
L 261.672063 310.890826 
L 263.692735 330.629339 
L 265.713406 331.337356 
L 267.734078 330.113498 
L 269.754749 331.620563 
L 271.775421 327.003279 
L 273.796092 327.883243 
L 275.816763 330.781057 
L 277.837435 331.929057 
L 279.858106 330.892317 
L 281.878778 329.279049 
L 283.899449 329.880864 
L 285.920121 330.194414 
L 287.940792 329.921322 
L 289.961464 320.216426 
L 291.982135 319.179687 
L 294.002806 318.613273 
L 296.023478 316.383018 
L 298.044149 315.346278 
L 300.064821 325.931138 
L 302.085492 325.860336 
L 304.106164 321.349254 
L 306.126835 323.124355 
L 308.147507 321.779122 
L 310.168178 323.28113 
L 312.188849 319.48818 
L 314.209521 321.081219 
L 316.230192 312.332147 
L 318.250864 312.898561 
L 320.271535 308.513911 
L 322.292207 309.282615 
L 324.312878 310.936342 
L 326.33355 333.269232 
L 328.354221 337.638711 
L 330.374892 338.781653 
L 332.395564 338.043292 
L 334.416235 337.921918 
L 336.436907 325.475984 
L 338.457578 325.177605 
L 340.47825 323.802029 
L 342.498921 321.65269 
L 344.519593 323.973976 
L 346.540264 324.459473 
L 348.560935 324.231896 
L 350.581607 324.707279 
L 352.602278 306.000449 
L 354.62295 308.14473 
L 356.643621 307.97784 
L 358.664293 308.832518 
L 360.684964 305.636326 
L 362.705636 314.476428 
L 364.726307 315.351336 
L 366.746978 315.578913 
L 368.76765 309.919831 
L 370.788321 310.637963 
L 372.808993 304.18489 
L 374.829664 305.545295 
L 376.850336 304.169718 
L 378.871007 324.474645 
L 380.891679 337.760085 
L 382.91235 336.657601 
L 384.933022 334.766183 
L 386.953693 337.213901 
L 388.974364 336.450253 
L 390.995036 335.266853 
L 393.015707 339.019345 
L 395.036379 335.459029 
L 397.05705 337.623539 
L 399.077722 330.401762 
L 401.098393 327.564635 
L 403.119065 330.543365 
L 405.139736 330.285445 
L 407.160407 331.119894 
L 409.181079 315.25019 
L 411.20175 313.181768 
L 413.222422 315.032728 
L 415.243093 311.528042 
L 417.263765 307.522686 
L 419.284436 315.609256 
L 421.305108 314.056675 
L 423.325779 310.203038 
L 425.34645 304.983938 
L 427.367122 304.66533 
L 429.387793 302.303587 
L 431.408465 303.840996 
L 433.429136 302.217613 
L 435.449808 302.07601 
L 437.470479 322.219104 
L 439.491151 328.990785 
L 441.511822 325.430469 
L 443.532493 326.006997 
L 445.553165 324.74268 
L 447.573836 325.809764 
L 449.594508 323.397447 
L 451.615179 325.546786 
L 453.635851 325.769305 
L 455.656522 327.332001 
L 457.677194 321.804408 
L 459.697865 323.200214 
L 461.718536 325.865394 
L 463.739208 325.475984 
L 465.759879 323.346875 
L 467.780551 323.852601 
L 469.801222 326.952706 
L 471.821894 326.184001 
L 473.842565 303.406071 
L 475.863237 307.376026 
L 477.883908 305.206458 
L 479.904579 304.023058 
L 481.925251 301.711887 
L 483.945922 303.70445 
L 485.966594 310.637963 
L 487.987265 307.097876 
L 490.007937 304.134317 
L 492.028608 307.350739 
L 494.04928 308.746545 
L 496.069951 308.974122 
L 498.090622 303.876397 
L 500.111294 303.947199 
L 502.131965 301.31742 
L 504.152637 320.196197 
L 506.173308 330.341075 
L 508.19398 328.024847 
L 510.214651 330.270273 
L 512.235323 333.785074 
L 514.255994 348.274143 
L 516.276665 348.172998 
L 518.297337 349.128822 
L 520.318008 351.622054 
L 522.33868 334.366659 
L 524.359351 324.489817 
L 526.380023 323.453077 
L 528.400694 333.618184 
L 530.421366 307.011902 
L 532.442037 306.40503 
L 534.462708 307.790721 
L 536.48338 307.401312 
L 538.504051 320.02425 
L 540.524723 313.51049 
L 542.545394 314.557345 
L 544.566066 314.461257 
L 546.586737 309.353417 
L 548.607409 313.333486 
L 550.62808 311.522984 
L 552.648751 315.675001 
L 554.669423 309.520307 
L 556.690094 309.115725 
L 558.710766 333.678871 
L 560.731437 331.473903 
L 562.752109 327.99956 
L 564.77278 326.922362 
L 566.793452 327.387631 
L 568.814123 328.510344 
L 570.834794 327.215684 
L 572.855466 327.453375 
L 574.876137 328.631719 
L 576.896809 330.963119 
L 578.91748 332.161691 
L 580.938152 326.578468 
L 582.958823 307.320396 
L 584.979495 306.991673 
L 587.000166 303.365613 
L 589.020837 301.732116 
L 591.041509 303.866282 
L 593.06218 311.664588 
L 595.082852 307.770492 
L 597.103523 312.569839 
L 599.124195 310.835196 
L 601.144866 308.483567 
L 603.165538 307.209136 
L 605.186209 309.151126 
L 607.20688 310.744165 
L 609.227552 331.711594 
L 611.248223 333.324862 
L 613.268895 332.318466 
L 615.289566 333.92162 
L 617.310238 331.681251 
L 619.330909 331.53459 
L 619.330909 331.53459 
" style="fill:none;stroke:#1f77b4;stroke-linecap:square;stroke-width:1.5;"/>
   </g>
   <g id="line2d_29">
    <path clip-path="url(#p10920de640)" d="M 132.349091 141.973053 
L 134.369762 140.875626 
L 136.390434 140.926198 
L 138.411105 139.631538 
L 140.431777 141.022286 
L 142.452448 147.515817 
L 144.47312 147.82431 
L 148.514462 145.073157 
L 150.535134 141.229634 
L 152.555805 137.785636 
L 154.576477 137.325424 
L 156.597148 152.456767 
L 158.61782 156.199145 
L 160.638491 180.509427 
L 162.659163 191.271291 
L 164.679834 200.167023 
L 166.700505 203.611022 
L 168.721177 218.777766 
L 170.741848 231.916545 
L 172.76252 232.022748 
L 174.783191 230.586484 
L 176.803863 231.542308 
L 178.824534 229.923982 
L 180.845206 236.093848 
L 182.865877 239.649107 
L 184.886548 242.627837 
L 186.90722 243.244823 
L 188.927891 242.60255 
L 190.948563 244.650744 
L 192.969234 242.997017 
L 194.989906 243.426885 
L 197.010577 237.975151 
L 199.031249 239.305212 
L 201.05192 244.736717 
L 203.072591 245.97069 
L 205.093263 244.640629 
L 207.113934 247.396839 
L 209.134606 247.037774 
L 211.155277 236.230394 
L 213.175949 235.178483 
L 215.19662 235.810641 
L 217.217292 235.648808 
L 219.237963 236.994041 
L 221.258634 239.011891 
L 223.279306 238.738798 
L 225.299977 239.502446 
L 227.320649 239.507503 
L 229.34132 235.112738 
L 231.361992 243.912383 
L 233.382663 242.997017 
L 235.403335 243.184136 
L 237.424006 238.359503 
L 239.444677 240.417811 
L 241.465349 242.774497 
L 243.48602 243.801123 
L 245.506692 243.447114 
L 247.527363 238.966375 
L 249.548035 240.518956 
L 251.568706 243.411713 
L 253.589378 242.759326 
L 255.610049 237.99538 
L 257.63072 241.53041 
L 259.651392 239.563133 
L 261.672063 243.866867 
L 263.692735 246.516875 
L 265.713406 246.815254 
L 267.734078 246.501703 
L 269.754749 244.923836 
L 271.775421 240.078974 
L 273.796092 236.918182 
L 275.816763 237.868949 
L 277.837435 234.510923 
L 279.858106 249.222513 
L 281.878778 257.046105 
L 283.899449 255.812132 
L 285.920121 236.786693 
L 287.940792 234.359205 
L 289.961464 233.61073 
L 294.002806 225.645534 
L 298.044149 223.288848 
L 300.064821 226.014715 
L 302.085492 230.758431 
L 304.106164 231.198413 
L 306.126835 230.004898 
L 308.147507 227.294203 
L 310.168178 219.470611 
L 312.188849 224.426733 
L 314.209521 223.597341 
L 316.230192 225.761851 
L 318.250864 218.236638 
L 320.271535 225.291526 
L 322.292207 245.201986 
L 324.312878 242.450832 
L 326.33355 239.118093 
L 328.354221 224.962803 
L 330.374892 224.153641 
L 332.395564 220.537695 
L 334.416235 217.912973 
L 336.436907 214.954472 
L 338.457578 217.751141 
L 340.47825 225.549446 
L 342.498921 224.684654 
L 344.519593 223.460795 
L 346.540264 226.975596 
L 348.560935 226.348494 
L 350.581607 223.111844 
L 352.602278 228.634379 
L 354.62295 230.975894 
L 356.643621 228.775983 
L 358.664293 226.323208 
L 360.684964 236.584403 
L 362.705636 237.975151 
L 364.726307 234.182201 
L 366.746978 229.246308 
L 368.76765 230.652229 
L 370.788321 227.764529 
L 372.808993 229.195736 
L 374.829664 223.334363 
L 376.850336 223.127015 
L 378.871007 225.175208 
L 380.891679 234.814359 
L 382.91235 233.357866 
L 384.933022 232.917884 
L 386.953693 233.605673 
L 390.995036 225.220724 
L 393.015707 227.415578 
L 395.036379 227.602697 
L 397.05705 225.569675 
L 399.077722 219.799334 
L 403.119065 246.451131 
L 405.139736 246.926514 
L 407.160407 247.639588 
L 409.181079 227.284089 
L 411.20175 234.723329 
L 413.222422 231.193356 
L 415.243093 228.401745 
L 417.263765 226.727789 
L 419.284436 225.362327 
L 421.305108 229.767207 
L 423.325779 225.038662 
L 425.34645 224.780742 
L 427.367122 222.869095 
L 429.387793 227.956705 
L 431.408465 227.177886 
L 433.429136 226.581129 
L 435.449808 225.74668 
L 437.470479 225.367385 
L 439.491151 223.015756 
L 441.511822 226.232177 
L 443.532493 228.872071 
L 445.553165 225.07912 
L 447.573836 222.990469 
L 449.594508 216.183388 
L 451.615179 223.632742 
L 453.635851 222.965183 
L 455.656522 223.086557 
L 457.677194 224.310416 
L 459.697865 230.717973 
L 461.718536 226.363666 
L 463.739208 224.027209 
L 465.759879 223.486081 
L 467.780551 223.551826 
L 469.801222 226.849164 
L 471.821894 222.287509 
L 473.842565 221.043421 
L 475.863237 220.795615 
L 477.883908 222.479685 
L 479.904579 228.619207 
L 483.945922 223.693429 
L 485.966594 224.239614 
L 487.987265 220.982734 
L 490.007937 223.076443 
L 492.028608 226.378838 
L 494.04928 226.98571 
L 496.069951 218.004004 
L 498.090622 217.488163 
L 500.111294 223.693429 
L 502.131965 223.946293 
L 504.152637 221.078822 
L 506.173308 221.281113 
L 508.19398 220.901818 
L 510.214651 225.306697 
L 512.235323 221.756496 
L 514.255994 223.779403 
L 516.276665 226.050116 
L 518.297337 226.040001 
L 520.318008 228.94793 
L 522.33868 228.998502 
L 522.33868 228.998502 
" style="fill:none;stroke:#ff7f0e;stroke-linecap:square;stroke-width:1.5;"/>
   </g>
   <g id="line2d_30">
    <path clip-path="url(#p10920de640)" d="M 132.349091 170.147087 
L 134.369762 169.100233 
L 136.390434 165.853467 
L 138.411105 167.466735 
L 140.431777 174.7492 
L 142.452448 173.788319 
L 144.47312 172.30654 
L 146.493791 168.49336 
L 148.514462 167.001467 
L 150.535134 167.188586 
L 152.555805 163.456323 
L 154.576477 161.923971 
L 156.597148 170.804531 
L 158.61782 182.684052 
L 160.638491 207.550633 
L 162.659163 211.869539 
L 164.679834 226.550785 
L 166.700505 224.517764 
L 168.721177 238.359503 
L 170.741848 246.228611 
L 172.76252 254.861366 
L 174.783191 258.098016 
L 176.803863 255.387321 
L 178.824534 254.16852 
L 180.845206 264.025133 
L 182.865877 269.921907 
L 184.886548 267.282013 
L 186.90722 268.273237 
L 188.927891 265.810348 
L 190.948563 266.477908 
L 192.969234 264.404428 
L 194.989906 262.695072 
L 197.010577 262.067971 
L 199.031249 262.523125 
L 201.05192 258.55317 
L 203.072591 262.239918 
L 205.093263 261.516729 
L 207.113934 261.673504 
L 209.134606 257.020819 
L 211.155277 263.640781 
L 213.175949 262.715301 
L 215.19662 264.156622 
L 217.217292 260.29287 
L 219.237963 266.002525 
L 221.258634 273.755315 
L 223.279306 267.059493 
L 225.299977 262.462438 
L 227.320649 263.655953 
L 229.34132 259.933804 
L 231.361992 260.727795 
L 233.382663 253.854969 
L 235.403335 260.166439 
L 237.424006 261.27398 
L 239.444677 267.352815 
L 241.465349 268.677819 
L 243.48602 270.205113 
L 245.506692 264.728093 
L 247.527363 266.589168 
L 249.548035 258.55317 
L 251.568706 261.450984 
L 253.589378 259.635426 
L 255.610049 259.913575 
L 257.63072 259.387619 
L 259.651392 266.801573 
L 261.672063 265.112446 
L 263.692735 265.299565 
L 265.713406 262.062914 
L 267.734078 261.309381 
L 269.754749 262.740587 
L 271.775421 264.69775 
L 273.796092 260.854227 
L 275.816763 261.799936 
L 277.837435 265.203476 
L 279.858106 270.321431 
L 281.878778 269.284691 
L 283.899449 268.050718 
L 285.920121 271.191281 
L 287.940792 271.818382 
L 289.961464 265.092217 
L 291.982135 263.29183 
L 294.002806 259.079126 
L 296.023478 259.852888 
L 298.044149 253.794282 
L 300.064821 262.108429 
L 302.085492 260.105751 
L 304.106164 258.512712 
L 306.126835 256.206599 
L 308.147507 257.956413 
L 310.168178 254.901824 
L 312.188849 254.037031 
L 314.209521 250.365455 
L 316.230192 250.916697 
L 318.250864 252.039411 
L 320.271535 256.054881 
L 322.292207 249.601808 
L 324.312878 250.957155 
L 326.33355 250.982442 
L 328.354221 249.900187 
L 330.374892 255.326634 
L 332.395564 251.098759 
L 334.416235 251.371851 
L 336.436907 250.775094 
L 338.457578 249.490548 
L 340.47825 250.57786 
L 342.498921 250.977384 
L 344.519593 252.615939 
L 346.540264 247.5435 
L 348.560935 255.427779 
L 350.581607 251.103816 
L 352.602278 248.276804 
L 354.62295 245.186814 
L 356.643621 248.565068 
L 358.664293 248.63587 
L 360.684964 256.464519 
L 362.705636 252.615939 
L 364.726307 248.064399 
L 366.746978 226.222063 
L 368.76765 227.825216 
L 370.788321 233.11006 
L 372.808993 235.83087 
L 374.829664 234.379434 
L 376.850336 234.242888 
L 378.871007 243.052647 
L 380.891679 238.445477 
L 382.91235 253.414987 
L 384.933022 254.214035 
L 386.953693 250.31994 
L 388.974364 250.532345 
L 390.995036 236.801865 
L 393.015707 237.246905 
L 395.036379 235.704438 
L 397.05705 236.837266 
L 399.077722 237.605971 
L 401.098393 239.027063 
L 403.119065 234.880104 
L 405.139736 237.317706 
L 407.160407 237.085072 
L 409.181079 241.060084 
L 411.20175 236.22028 
L 413.222422 233.767505 
L 415.243093 234.7385 
L 417.263765 233.898994 
L 419.284436 238.693283 
L 421.305108 242.086709 
L 423.325779 242.885757 
L 425.34645 242.855414 
L 427.367122 240.301494 
L 429.387793 242.526691 
L 431.408465 241.580982 
L 433.429136 242.167625 
L 437.470479 242.471061 
L 439.491151 252.363076 
L 441.511822 257.238281 
L 443.532493 250.09742 
L 445.553165 251.058301 
L 447.573836 249.035394 
L 449.594508 243.58366 
L 451.615179 231.021409 
L 453.635851 233.256721 
L 455.656522 233.580386 
L 457.677194 229.898696 
L 459.697865 231.082096 
L 461.718536 230.439823 
L 463.739208 231.572651 
L 465.759879 230.293163 
L 467.780551 226.656988 
L 469.801222 238.369618 
L 471.821894 239.148437 
L 473.842565 238.475821 
L 475.863237 235.71961 
L 477.883908 237.676772 
L 479.904579 239.922199 
L 481.925251 237.540226 
L 483.945922 236.002817 
L 485.966594 237.449195 
L 487.987265 239.279926 
L 490.007937 239.578305 
L 492.028608 237.388508 
L 494.04928 236.862552 
L 496.069951 237.090129 
L 498.090622 236.382112 
L 500.111294 225.792195 
L 504.152637 228.073022 
L 506.173308 226.919966 
L 508.19398 226.935137 
L 510.214651 232.62962 
L 512.235323 235.011593 
L 514.255994 235.916844 
L 516.276665 231.127612 
L 518.297337 238.167327 
L 520.318008 241.282604 
L 522.33868 233.964738 
L 524.359351 230.849462 
L 526.380023 231.506907 
L 528.400694 239.052349 
L 530.421366 251.149332 
L 530.421366 251.149332 
" style="fill:none;stroke:#2ca02c;stroke-linecap:square;stroke-width:1.5;"/>
   </g>
   <g id="line2d_31">
    <path clip-path="url(#p10920de640)" d="M 132.349091 172.751579 
L 134.369762 172.432971 
L 136.390434 168.584391 
L 138.411105 176.832794 
L 140.431777 176.91371 
L 142.452448 175.123437 
L 144.47312 174.764371 
L 146.493791 178.901216 
L 148.514462 178.567436 
L 150.535134 180.858378 
L 152.555805 177.768388 
L 154.576477 175.588706 
L 156.597148 183.821937 
L 158.61782 197.704134 
L 160.638491 203.373331 
L 162.659163 220.300003 
L 164.679834 225.625305 
L 166.700505 227.901075 
L 168.721177 232.169409 
L 170.741848 241.727643 
L 172.76252 260.161381 
L 174.783191 260.100694 
L 176.803863 265.168076 
L 178.824534 263.145169 
L 180.845206 265.132675 
L 182.865877 268.167035 
L 184.886548 269.122858 
L 186.90722 289.660419 
L 188.927891 290.257177 
L 190.948563 288.745054 
L 192.969234 288.077495 
L 194.989906 271.868954 
L 197.010577 273.760372 
L 199.031249 274.695967 
L 201.05192 278.711436 
L 203.072591 273.062469 
L 205.093263 270.179827 
L 207.113934 283.950765 
L 209.134606 283.495611 
L 211.155277 282.691506 
L 213.175949 283.576527 
L 215.19662 263.059195 
L 217.217292 270.478206 
L 219.237963 267.651194 
L 221.258634 270.002823 
L 223.279306 267.651194 
L 225.299977 263.949274 
L 227.320649 265.147847 
L 229.34132 267.499476 
L 231.361992 266.659969 
L 233.382663 266.240216 
L 235.403335 266.548709 
L 237.424006 270.377061 
L 239.444677 272.668002 
L 241.465349 272.313994 
L 243.48602 268.333925 
L 245.506692 267.221326 
L 247.527363 271.985271 
L 249.548035 271.772866 
L 251.568706 270.498435 
L 253.589378 271.353113 
L 255.610049 269.699387 
L 257.63072 276.481182 
L 259.651392 277.674697 
L 261.672063 276.769446 
L 263.692735 276.850362 
L 265.713406 265.522084 
L 267.734078 271.282311 
L 269.754749 275.409041 
L 271.775421 273.836231 
L 273.796092 274.084037 
L 275.816763 269.203775 
L 277.837435 274.549306 
L 279.858106 275.677076 
L 281.878778 271.909412 
L 283.899449 268.733449 
L 285.920121 269.218946 
L 287.940792 276.713816 
L 289.961464 270.554065 
L 291.982135 266.912833 
L 294.002806 266.204815 
L 296.023478 267.185925 
L 298.044149 266.902718 
L 300.064821 264.434772 
L 302.085492 262.361292 
L 304.106164 264.455001 
L 306.126835 271.929641 
L 308.147507 272.637659 
L 310.168178 271.181166 
L 312.188849 269.982594 
L 314.209521 265.663688 
L 316.230192 251.983781 
L 318.250864 252.87386 
L 320.271535 252.413648 
L 322.292207 251.579199 
L 324.312878 249.546178 
L 328.354221 260.272641 
L 330.374892 257.73895 
L 332.395564 255.913277 
L 334.416235 254.618617 
L 336.436907 261.825222 
L 338.457578 260.242298 
L 340.47825 256.105453 
L 342.498921 256.656695 
L 344.519593 254.992854 
L 346.540264 260.925029 
L 350.581607 260.692394 
L 352.602278 259.352219 
L 354.62295 261.21835 
L 356.643621 254.208978 
L 358.664293 256.540378 
L 360.684964 256.049823 
L 364.726307 253.500961 
L 366.746978 255.372149 
L 368.76765 255.063656 
L 370.788321 254.016802 
L 372.808993 249.070795 
L 374.829664 250.714407 
L 376.850336 258.12836 
L 378.871007 257.263567 
L 380.891679 251.498283 
L 382.91235 249.98616 
L 384.933022 249.804099 
L 386.953693 258.846492 
L 388.974364 257.374827 
L 390.995036 256.226828 
L 393.015707 256.378546 
L 395.036379 261.587531 
L 397.05705 275.449499 
L 399.077722 274.19024 
L 401.098393 274.938715 
L 403.119065 260.495161 
L 405.139736 257.718721 
L 407.160407 271.833553 
L 409.181079 274.003121 
L 411.20175 271.499774 
L 413.222422 267.529819 
L 415.243093 255.215374 
L 417.263765 260.540676 
L 419.284436 257.976642 
L 421.305108 251.260591 
L 423.325779 253.829683 
L 425.34645 256.044766 
L 427.367122 255.053542 
L 429.387793 254.416326 
L 431.408465 253.652679 
L 433.429136 255.913277 
L 435.449808 254.416326 
L 437.470479 264.611776 
L 439.491151 263.554807 
L 441.511822 265.218648 
L 443.532493 258.07273 
L 445.553165 255.716044 
L 447.573836 254.59333 
L 449.594508 253.288555 
L 451.615179 253.758881 
L 453.635851 252.712027 
L 455.656522 253.308785 
L 457.677194 257.885611 
L 459.697865 253.207639 
L 461.718536 252.282159 
L 463.739208 251.179675 
L 465.759879 250.416028 
L 467.780551 251.493226 
L 471.821894 246.72928 
L 475.863237 249.758583 
L 477.883908 248.332434 
L 479.904579 248.848275 
L 481.925251 249.22757 
L 483.945922 266.037925 
L 485.966594 266.255388 
L 487.987265 270.54395 
L 490.007937 268.703105 
L 492.028608 255.928449 
L 494.04928 253.870141 
L 496.069951 262.942878 
L 498.090622 263.787442 
L 500.111294 257.885611 
L 502.131965 257.470915 
L 504.152637 258.618915 
L 506.173308 257.218052 
L 508.19398 255.665471 
L 510.214651 254.967568 
L 512.235323 255.614898 
L 514.255994 255.453066 
L 516.276665 252.069754 
L 518.297337 249.697896 
L 520.318008 269.95225 
L 522.33868 274.073923 
L 524.359351 274.908372 
L 526.380023 78.12 
L 526.380023 78.12 
" style="fill:none;stroke:#d62728;stroke-linecap:square;stroke-width:1.5;"/>
   </g>
   <g id="line2d_32">
    <path clip-path="url(#p10920de640)" d="M 132.349091 202.129243 
L 134.369762 203.580679 
L 136.390434 203.054723 
L 138.411105 202.983921 
L 140.431777 202.513595 
L 142.452448 201.749948 
L 144.47312 198.553755 
L 146.493791 198.235147 
L 148.514462 197.476557 
L 150.535134 195.089527 
L 152.555805 199.150513 
L 154.576477 200.890213 
L 156.597148 207.682122 
L 158.61782 212.815248 
L 160.638491 232.811682 
L 162.659163 243.077934 
L 164.679834 248.236346 
L 166.700505 250.57786 
L 168.721177 258.679602 
L 170.741848 260.318157 
L 172.76252 276.263719 
L 174.783191 273.805888 
L 176.803863 272.324108 
L 178.824534 267.155581 
L 180.845206 265.88115 
L 182.865877 277.320688 
L 184.886548 275.626504 
L 186.90722 274.872971 
L 188.927891 267.792797 
L 190.948563 267.362929 
L 192.969234 272.779262 
L 194.989906 271.762752 
L 197.010577 267.519705 
L 199.031249 263.812728 
L 201.05192 263.170455 
L 203.072591 267.135352 
L 205.093263 264.272939 
L 207.113934 270.184884 
L 209.134606 265.628287 
L 211.155277 265.744604 
L 213.175949 269.542611 
L 215.19662 270.351774 
L 217.217292 271.297483 
L 219.237963 267.863599 
L 221.258634 262.998508 
L 223.279306 273.067527 
L 225.299977 272.991668 
L 227.320649 274.352072 
L 229.34132 270.847386 
L 231.361992 266.128956 
L 233.382663 269.719616 
L 235.403335 268.495757 
L 237.424006 263.888587 
L 239.444677 261.648218 
L 241.465349 272.688232 
L 243.48602 274.39253 
L 245.506692 271.125536 
L 247.527363 266.513309 
L 249.548035 266.412163 
L 251.568706 271.176109 
L 253.589378 288.704596 
L 255.610049 289.311468 
L 257.63072 285.907927 
L 259.651392 285.432544 
L 261.672063 280.931577 
L 263.692735 282.716792 
L 265.713406 279.727947 
L 267.734078 276.273834 
L 269.754749 267.560163 
L 271.775421 274.817341 
L 273.796092 279.854379 
L 275.816763 275.742821 
L 277.837435 267.721995 
L 279.858106 266.91789 
L 281.878778 277.811243 
L 283.899449 278.064106 
L 285.920121 278.003419 
L 287.940792 273.664284 
L 289.961464 273.583368 
L 291.982135 276.997023 
L 294.002806 275.459614 
L 296.023478 273.143386 
L 298.044149 282.676334 
L 300.064821 278.933956 
L 302.085492 283.541126 
L 304.106164 281.482819 
L 306.126835 268.485643 
L 308.147507 262.36635 
L 310.168178 261.521786 
L 312.188849 266.665027 
L 314.209521 264.025133 
L 316.230192 262.765874 
L 318.250864 270.973818 
L 320.271535 269.537554 
L 322.292207 278.418115 
L 324.312878 279.753233 
L 326.33355 264.758437 
L 328.354221 261.572359 
L 330.374892 261.66339 
L 332.395564 268.389555 
L 334.416235 263.312059 
L 336.436907 263.322173 
L 338.457578 260.803654 
L 340.47825 261.830279 
L 342.498921 265.729432 
L 344.519593 266.907775 
L 346.540264 267.332586 
L 348.560935 263.564922 
L 350.581607 258.305364 
L 352.602278 256.545435 
L 354.62295 256.762898 
L 356.643621 257.68332 
L 358.664293 251.144274 
L 360.684964 250.355341 
L 362.705636 261.450984 
L 364.726307 262.882191 
L 366.746978 259.266245 
L 368.76765 254.426441 
L 370.788321 254.831022 
L 372.808993 259.407849 
L 374.829664 258.477311 
L 376.850336 258.441911 
L 380.891679 253.951057 
L 382.91235 262.583812 
L 384.933022 262.695072 
L 386.953693 259.347161 
L 390.995036 261.486385 
L 393.015707 266.209873 
L 395.036379 261.567302 
L 397.05705 256.641523 
L 399.077722 257.228166 
L 401.098393 263.129997 
L 403.119065 265.193362 
L 405.139736 263.074367 
L 407.160407 254.59333 
L 409.181079 252.2063 
L 411.20175 258.993153 
L 413.222422 262.093257 
L 415.243093 261.031231 
L 417.263765 257.870439 
L 419.284436 257.546774 
L 421.305108 269.153202 
L 423.325779 269.36055 
L 425.34645 264.485345 
L 427.367122 260.333328 
L 429.387793 260.156324 
L 431.408465 265.461397 
L 433.429136 266.058155 
L 435.449808 266.209873 
L 437.470479 261.577416 
L 439.491151 260.353557 
L 441.511822 257.283796 
L 443.532493 257.445629 
L 445.553165 256.49992 
L 447.573836 248.534725 
L 449.594508 249.778812 
L 451.615179 260.358615 
L 455.656522 259.286474 
L 457.677194 255.655356 
L 459.697865 256.252114 
L 461.718536 260.414245 
L 463.739208 257.774351 
L 465.759879 256.955074 
L 467.780551 253.066036 
L 469.801222 252.92949 
L 471.821894 260.085522 
L 473.842565 261.450984 
L 475.863237 260.525505 
L 477.883908 256.712325 
L 479.904579 254.987797 
L 481.925251 264.303283 
L 483.945922 264.505574 
L 485.966594 259.782086 
L 487.987265 256.737612 
L 490.007937 255.225489 
L 492.028608 259.1651 
L 494.04928 258.72006 
L 496.069951 255.554211 
L 498.090622 251.0229 
L 500.111294 249.72824 
L 502.131965 259.129699 
L 504.152637 254.876537 
L 506.173308 255.276061 
L 508.19398 248.893791 
L 510.214651 247.639588 
L 512.235323 257.744008 
L 514.255994 257.90584 
L 516.276665 253.662793 
L 518.297337 250.021561 
L 520.318008 247.032716 
L 522.33868 256.550493 
L 522.33868 256.550493 
" style="fill:none;stroke:#9467bd;stroke-linecap:square;stroke-width:1.5;"/>
   </g>
   <g id="line2d_33">
    <path clip-path="url(#p10920de640)" d="M 132.349091 195.853175 
L 134.369762 195.463765 
L 136.390434 190.103062 
L 138.411105 185.288544 
L 140.431777 199.357861 
L 142.452448 204.652819 
L 146.493791 198.917878 
L 148.514462 192.995819 
L 150.535134 194.735519 
L 152.555805 203.798141 
L 154.576477 201.547657 
L 156.597148 196.677509 
L 158.61782 206.42792 
L 160.638491 210.074209 
L 162.659163 240.301494 
L 164.679834 246.203324 
L 166.700505 256.570722 
L 168.721177 257.460801 
L 170.741848 271.980214 
L 172.76252 285.210025 
L 174.783191 286.610887 
L 176.803863 286.165848 
L 178.824534 280.855718 
L 180.845206 282.802765 
L 182.865877 286.686746 
L 184.886548 282.029004 
L 186.90722 279.631859 
L 188.927891 278.023648 
L 190.948563 284.183399 
L 192.969234 287.116614 
L 194.989906 285.42243 
L 197.010577 283.161831 
L 199.031249 282.484158 
L 201.05192 282.914025 
L 203.072591 285.670236 
L 205.093263 286.216421 
L 207.113934 283.748474 
L 209.134606 280.820317 
L 211.155277 289.402499 
L 215.19662 289.513759 
L 217.217292 280.693885 
L 219.237963 279.874608 
L 221.258634 286.964896 
L 223.279306 289.356983 
L 225.299977 287.404878 
L 227.320649 286.034359 
L 229.34132 285.210025 
L 231.361992 291.683326 
L 233.382663 292.462145 
L 235.403335 292.259855 
L 237.424006 289.109177 
L 239.444677 288.269671 
L 241.465349 290.373494 
L 243.48602 291.845159 
L 245.506692 290.919679 
L 249.548035 282.81288 
L 251.568706 290.130745 
L 253.589378 289.817195 
L 255.610049 290.413952 
L 257.63072 286.545143 
L 259.651392 286.221478 
L 261.672063 297.448611 
L 263.692735 296.482673 
L 265.713406 293.438198 
L 267.734078 288.340473 
L 269.754749 288.112896 
L 271.775421 288.67931 
L 273.796092 289.564331 
L 275.816763 289.038376 
L 277.837435 285.47806 
L 279.858106 284.957161 
L 281.878778 292.988101 
L 285.920121 293.271308 
L 287.940792 286.307451 
L 289.961464 285.326342 
L 291.982135 289.169865 
L 294.002806 286.464227 
L 296.023478 283.40458 
L 298.044149 272.440425 
L 300.064821 269.805589 
L 302.085492 281.786255 
L 304.106164 280.987207 
L 306.126835 276.344636 
L 308.147507 270.250629 
L 310.168178 269.436409 
L 312.188849 274.296442 
L 314.209521 273.755315 
L 316.230192 270.053395 
L 318.250864 262.563583 
L 320.271535 262.543354 
L 322.292207 271.686893 
L 326.33355 274.215526 
L 328.354221 269.669043 
L 330.374892 268.677819 
L 332.395564 277.411719 
L 334.416235 277.644353 
L 336.436907 272.081359 
L 338.457578 271.939756 
L 340.47825 277.624124 
L 342.498921 275.575931 
L 344.519593 276.324406 
L 346.540264 271.105307 
L 348.560935 272.162276 
L 350.581607 267.777625 
L 352.602278 270.538893 
L 354.62295 268.005202 
L 356.643621 264.374085 
L 358.664293 263.66101 
L 360.684964 274.230698 
L 362.705636 276.026028 
L 364.726307 275.469728 
L 366.746978 271.555404 
L 368.76765 271.10025 
L 370.788321 276.273834 
L 372.808993 274.205412 
L 374.829664 273.128214 
L 376.850336 269.734788 
L 378.871007 268.121519 
L 380.891679 274.367244 
L 382.91235 276.268777 
L 384.933022 277.103226 
L 386.953693 270.938417 
L 388.974364 268.419898 
L 390.995036 277.416776 
L 393.015707 277.260001 
L 395.036379 276.385094 
L 397.05705 270.569237 
L 399.077722 277.088054 
L 401.098393 296.922655 
L 403.119065 296.947941 
L 405.139736 296.604047 
L 407.160407 278.544547 
L 409.181079 278.483859 
L 411.20175 279.884722 
L 413.222422 278.787295 
L 415.243093 278.028705 
L 417.263765 268.344039 
L 419.284436 267.45396 
L 421.305108 298.075712 
L 423.325779 298.11617 
L 425.34645 299.663693 
L 427.367122 290.393723 
L 429.387793 279.030044 
L 431.408465 280.097128 
L 433.429136 283.156774 
L 435.449808 280.496652 
L 437.470479 274.766768 
L 439.491151 270.589466 
L 441.511822 278.504089 
L 443.532493 273.507509 
L 445.553165 274.913429 
L 447.573836 268.905396 
L 449.594508 265.431053 
L 451.615179 270.513607 
L 453.635851 270.98899 
L 455.656522 271.090135 
L 457.677194 267.585449 
L 459.697865 265.213591 
L 461.718536 269.385836 
L 463.739208 270.103968 
L 465.759879 269.825818 
L 467.780551 262.6799 
L 469.801222 260.914914 
L 471.821894 266.1593 
L 473.842565 267.059493 
L 475.863237 266.417221 
L 477.883908 262.826561 
L 479.904579 264.030191 
L 481.925251 267.701766 
L 483.945922 267.899 
L 485.966594 260.242298 
L 487.987265 260.095637 
L 490.007937 269.901677 
L 492.028608 273.006839 
L 494.04928 271.686893 
L 496.069951 267.529819 
L 498.090622 268.869995 
L 500.111294 270.427633 
L 502.131965 274.883085 
L 504.152637 274.83757 
L 506.173308 268.900339 
L 508.19398 266.037925 
L 510.214651 271.560461 
L 512.235323 274.711138 
L 514.255994 274.979173 
L 516.276665 284.901531 
L 518.297337 284.815558 
L 520.318008 287.890376 
L 522.33868 278.180423 
L 524.359351 315.912692 
L 526.380023 428.907208 
L 528.400694 430.92 
L 528.400694 430.92 
" style="fill:none;stroke:#8c564b;stroke-linecap:square;stroke-width:1.5;"/>
   </g>
   <g id="line2d_34">
    <path clip-path="url(#p10920de640)" d="M 132.349091 207.899585 
L 134.369762 205.229348 
L 136.390434 202.033155 
L 138.411105 210.898544 
L 140.431777 222.474628 
L 142.452448 214.509432 
L 144.47312 204.253295 
L 146.493791 204.764079 
L 148.514462 208.177734 
L 150.535134 209.113329 
L 152.555805 207.292713 
L 154.576477 202.599569 
L 156.597148 207.940043 
L 158.61782 227.177886 
L 160.638491 226.879507 
L 162.659163 253.000291 
L 164.679834 258.537999 
L 166.700505 257.455743 
L 168.721177 267.246612 
L 170.741848 267.479247 
L 172.76252 283.303435 
L 174.783191 283.819276 
L 176.803863 295.107096 
L 178.824534 314.26908 
L 180.845206 311.902279 
L 182.865877 310.445787 
L 184.886548 306.956272 
L 186.90722 307.699691 
L 188.927891 311.897222 
L 190.948563 311.710103 
L 192.969234 310.177751 
L 194.989906 305.11037 
L 197.010577 303.107692 
L 199.031249 313.884728 
L 201.05192 321.500972 
L 203.072591 315.988551 
L 205.093263 312.170315 
L 207.113934 311.08806 
L 209.134606 312.80753 
L 211.155277 312.868217 
L 213.175949 312.301804 
L 215.19662 308.867919 
L 217.217292 308.402651 
L 219.237963 316.104868 
L 221.258634 317.10115 
L 223.279306 316.666225 
L 225.299977 314.425856 
L 227.320649 313.647037 
L 229.34132 320.914329 
L 231.361992 321.293624 
L 233.382663 317.404586 
L 235.403335 314.582631 
L 237.424006 314.506772 
L 239.444677 328.287824 
L 241.465349 325.496213 
L 243.48602 324.975315 
L 245.506692 320.454118 
L 247.527363 327.771983 
L 249.548035 340.217917 
L 251.568706 340.329177 
L 253.589378 336.632315 
L 255.610049 324.980372 
L 257.63072 331.094608 
L 259.651392 333.835646 
L 261.672063 333.269232 
L 263.692735 326.305376 
L 265.713406 321.445342 
L 267.734078 324.20661 
L 269.754749 326.072742 
L 271.775421 325.036002 
L 273.796092 322.315192 
L 275.816763 321.809465 
L 277.837435 330.578766 
L 279.858106 332.212264 
L 281.878778 329.774661 
L 283.899449 326.330662 
L 285.920121 325.561958 
L 287.940792 329.390309 
L 289.961464 332.065603 
L 291.982135 329.056529 
L 294.002806 320.717096 
L 296.023478 259.094298 
L 298.044149 268.470471 
L 300.064821 268.586788 
L 302.085492 267.828198 
L 304.106164 262.84679 
L 306.126835 261.936482 
L 308.147507 278.114679 
L 310.168178 278.377657 
L 312.188849 277.654468 
L 314.209521 273.300161 
L 316.230192 271.757694 
L 318.250864 275.940054 
L 320.271535 275.080319 
L 324.312878 267.914172 
L 326.33355 269.092515 
L 328.354221 276.885763 
L 330.374892 276.905992 
L 332.395564 274.903314 
L 334.416235 272.465712 
L 336.436907 271.868954 
L 338.457578 290.176261 
L 340.47825 290.08523 
L 344.519593 282.514501 
L 346.540264 281.674995 
L 348.560935 281.730625 
L 350.581607 281.2957 
L 352.602278 282.342554 
L 354.62295 278.236053 
L 356.643621 278.20571 
L 358.664293 288.901829 
L 360.684964 287.597055 
L 362.705636 287.1065 
L 364.726307 280.881004 
L 366.746978 280.471365 
L 368.76765 286.798006 
L 370.788321 283.252862 
L 372.808993 281.958202 
L 374.829664 277.846644 
L 376.850336 277.39149 
L 378.871007 298.065597 
L 380.891679 296.103378 
L 382.91235 295.213299 
L 384.933022 278.160194 
L 386.953693 274.883085 
L 388.974364 287.177301 
L 390.995036 289.291239 
L 393.015707 285.639892 
L 395.036379 278.660864 
L 397.05705 270.978875 
L 399.077722 281.098466 
L 401.098393 281.012493 
L 403.119065 277.634239 
L 405.139736 278.064106 
L 407.160407 285.948385 
L 409.181079 287.870147 
L 411.20175 283.697902 
L 413.222422 281.437303 
L 415.243093 282.261638 
L 417.263765 284.127769 
L 419.284436 284.446377 
L 421.305108 283.343893 
L 423.325779 278.949128 
L 425.34645 278.175366 
L 427.367122 283.874906 
L 429.387793 285.599434 
L 431.408465 286.277108 
L 433.429136 280.769744 
L 435.449808 280.016211 
L 437.470479 290.489811 
L 439.491151 294.651942 
L 441.511822 289.276067 
L 443.532493 281.659823 
L 445.553165 281.538449 
L 447.573836 278.003419 
L 449.594508 279.257621 
L 451.615179 278.691207 
L 453.635851 274.240812 
L 455.656522 273.780601 
L 457.677194 277.699983 
L 459.697865 273.522681 
L 461.718536 273.254645 
L 463.739208 269.52744 
L 465.759879 269.926964 
L 467.780551 279.864493 
L 469.801222 281.270414 
L 471.821894 280.334819 
L 473.842565 277.452177 
L 475.863237 276.683472 
L 477.883908 279.641974 
L 479.904579 280.006097 
L 481.925251 279.561057 
L 483.945922 275.904653 
L 485.966594 275.697305 
L 487.987265 284.633496 
L 492.028608 279.449797 
L 494.04928 275.884424 
L 496.069951 274.786997 
L 498.090622 281.497991 
L 500.111294 278.939013 
L 502.131965 279.874608 
L 504.152637 276.956565 
L 506.173308 276.885763 
L 508.19398 282.059347 
L 510.214651 282.792651 
L 512.235323 280.830431 
L 514.255994 276.511525 
L 516.276665 276.481182 
L 518.297337 281.680052 
L 520.318008 282.782536 
L 522.33868 283.409637 
L 524.359351 276.450838 
L 526.380023 292.73018 
L 528.400694 344.526709 
L 530.421366 339.100261 
L 532.442037 315.351336 
L 532.442037 315.351336 
" style="fill:none;stroke:#e377c2;stroke-linecap:square;stroke-width:1.5;"/>
   </g>
   <g id="line2d_35"/>
   <g id="line2d_36"/>
   <g id="line2d_37"/>
   <g id="line2d_38"/>
   <g id="line2d_39"/>
   <g id="line2d_40"/>
   <g id="line2d_41"/>
   <g id="patch_3">
    <path d="M 108 448.56 
L 108 60.48 
" style="fill:none;stroke:#000000;stroke-linecap:square;stroke-linejoin:miter;stroke-width:0.8;"/>
   </g>
   <g id="patch_4">
    <path d="M 643.68 448.56 
L 643.68 60.48 
" style="fill:none;stroke:#000000;stroke-linecap:square;stroke-linejoin:miter;stroke-width:0.8;"/>
   </g>
   <g id="patch_5">
    <path d="M 108 448.56 
L 643.68 448.56 
" style="fill:none;stroke:#000000;stroke-linecap:square;stroke-linejoin:miter;stroke-width:0.8;"/>
   </g>
   <g id="patch_6">
    <path d="M 108 60.48 
L 643.68 60.48 
" style="fill:none;stroke:#000000;stroke-linecap:square;stroke-linejoin:miter;stroke-width:0.8;"/>
   </g>
   <g id="text_29">
    <!-- vmstat -->
    <g transform="translate(349.711875 54.48)scale(0.15 -0.15)">
     <defs>
      <path d="M 2.984375 54.6875 
L 12.5 54.6875 
L 29.59375 8.796875 
L 46.6875 54.6875 
L 56.203125 54.6875 
L 35.6875 0 
L 23.484375 0 
z
" id="DejaVuSans-118"/>
      <path d="M 52 44.1875 
Q 55.375 50.25 60.0625 53.125 
Q 64.75 56 71.09375 56 
Q 79.640625 56 84.28125 50.015625 
Q 88.921875 44.046875 88.921875 33.015625 
L 88.921875 0 
L 79.890625 0 
L 79.890625 32.71875 
Q 79.890625 40.578125 77.09375 44.375 
Q 74.3125 48.1875 68.609375 48.1875 
Q 61.625 48.1875 57.5625 43.546875 
Q 53.515625 38.921875 53.515625 30.90625 
L 53.515625 0 
L 44.484375 0 
L 44.484375 32.71875 
Q 44.484375 40.625 41.703125 44.40625 
Q 38.921875 48.1875 33.109375 48.1875 
Q 26.21875 48.1875 22.15625 43.53125 
Q 18.109375 38.875 18.109375 30.90625 
L 18.109375 0 
L 9.078125 0 
L 9.078125 54.6875 
L 18.109375 54.6875 
L 18.109375 46.1875 
Q 21.1875 51.21875 25.484375 53.609375 
Q 29.78125 56 35.6875 56 
Q 41.65625 56 45.828125 52.96875 
Q 50 49.953125 52 44.1875 
z
" id="DejaVuSans-109"/>
      <path d="M 18.3125 70.21875 
L 18.3125 54.6875 
L 36.8125 54.6875 
L 36.8125 47.703125 
L 18.3125 47.703125 
L 18.3125 18.015625 
Q 18.3125 11.328125 20.140625 9.421875 
Q 21.96875 7.515625 27.59375 7.515625 
L 36.8125 7.515625 
L 36.8125 0 
L 27.59375 0 
Q 17.1875 0 13.234375 3.875 
Q 9.28125 7.765625 9.28125 18.015625 
L 9.28125 47.703125 
L 2.6875 47.703125 
L 2.6875 54.6875 
L 9.28125 54.6875 
L 9.28125 70.21875 
z
" id="DejaVuSans-116"/>
      <path d="M 34.28125 27.484375 
Q 23.390625 27.484375 19.1875 25 
Q 14.984375 22.515625 14.984375 16.5 
Q 14.984375 11.71875 18.140625 8.90625 
Q 21.296875 6.109375 26.703125 6.109375 
Q 34.1875 6.109375 38.703125 11.40625 
Q 43.21875 16.703125 43.21875 25.484375 
L 43.21875 27.484375 
z
M 52.203125 31.203125 
L 52.203125 0 
L 43.21875 0 
L 43.21875 8.296875 
Q 40.140625 3.328125 35.546875 0.953125 
Q 30.953125 -1.421875 24.3125 -1.421875 
Q 15.921875 -1.421875 10.953125 3.296875 
Q 6 8.015625 6 15.921875 
Q 6 25.140625 12.171875 29.828125 
Q 18.359375 34.515625 30.609375 34.515625 
L 43.21875 34.515625 
L 43.21875 35.40625 
Q 43.21875 41.609375 39.140625 45 
Q 35.0625 48.390625 27.6875 48.390625 
Q 23 48.390625 18.546875 47.265625 
Q 14.109375 46.140625 10.015625 43.890625 
L 10.015625 52.203125 
Q 14.9375 54.109375 19.578125 55.046875 
Q 24.21875 56 28.609375 56 
Q 40.484375 56 46.34375 49.84375 
Q 52.203125 43.703125 52.203125 31.203125 
z
" id="DejaVuSans-97"/>
     </defs>
     <use xlink:href="#DejaVuSans-118"/>
     <use x="59.179688" xlink:href="#DejaVuSans-109"/>
     <use x="156.591797" xlink:href="#DejaVuSans-115"/>
     <use x="208.691406" xlink:href="#DejaVuSans-116"/>
     <use x="247.900391" xlink:href="#DejaVuSans-97"/>
     <use x="309.179688" xlink:href="#DejaVuSans-116"/>
    </g>
   </g>
   <g id="legend_1">
    <g id="patch_7">
     <path d="M 650.68 308.227812 
L 800.1925 308.227812 
Q 802.1925 308.227812 802.1925 306.227812 
L 802.1925 202.812187 
Q 802.1925 200.812187 800.1925 200.812187 
L 650.68 200.812187 
Q 648.68 200.812187 648.68 202.812187 
L 648.68 306.227812 
Q 648.68 308.227812 650.68 308.227812 
z
" style="fill:#ffffff;opacity:0.8;stroke:#cccccc;stroke-linejoin:miter;"/>
    </g>
    <g id="line2d_42">
     <path d="M 652.68 208.910625 
L 672.68 208.910625 
" style="fill:none;stroke:#1f77b4;stroke-linecap:square;stroke-width:1.5;"/>
    </g>
    <g id="line2d_43"/>
    <g id="text_30">
     <!-- docker -->
     <g transform="translate(680.68 212.410625)scale(0.1 -0.1)">
      <defs>
       <path d="M 9.078125 75.984375 
L 18.109375 75.984375 
L 18.109375 31.109375 
L 44.921875 54.6875 
L 56.390625 54.6875 
L 27.390625 29.109375 
L 57.625 0 
L 45.90625 0 
L 18.109375 26.703125 
L 18.109375 0 
L 9.078125 0 
z
" id="DejaVuSans-107"/>
       <path d="M 41.109375 46.296875 
Q 39.59375 47.171875 37.8125 47.578125 
Q 36.03125 48 33.890625 48 
Q 26.265625 48 22.1875 43.046875 
Q 18.109375 38.09375 18.109375 28.8125 
L 18.109375 0 
L 9.078125 0 
L 9.078125 54.6875 
L 18.109375 54.6875 
L 18.109375 46.1875 
Q 20.953125 51.171875 25.484375 53.578125 
Q 30.03125 56 36.53125 56 
Q 37.453125 56 38.578125 55.875 
Q 39.703125 55.765625 41.0625 55.515625 
z
" id="DejaVuSans-114"/>
      </defs>
      <use xlink:href="#DejaVuSans-100"/>
      <use x="63.476562" xlink:href="#DejaVuSans-111"/>
      <use x="124.658203" xlink:href="#DejaVuSans-99"/>
      <use x="179.638672" xlink:href="#DejaVuSans-107"/>
      <use x="233.923828" xlink:href="#DejaVuSans-101"/>
      <use x="295.447266" xlink:href="#DejaVuSans-114"/>
     </g>
    </g>
    <g id="line2d_44">
     <path d="M 652.68 223.58875 
L 672.68 223.58875 
" style="fill:none;stroke:#ff7f0e;stroke-linecap:square;stroke-width:1.5;"/>
    </g>
    <g id="line2d_45"/>
    <g id="text_31">
     <!-- unikernel_allocpool -->
     <g transform="translate(680.68 227.08875)scale(0.1 -0.1)">
      <defs>
       <path d="M 8.5 21.578125 
L 8.5 54.6875 
L 17.484375 54.6875 
L 17.484375 21.921875 
Q 17.484375 14.15625 20.5 10.265625 
Q 23.53125 6.390625 29.59375 6.390625 
Q 36.859375 6.390625 41.078125 11.03125 
Q 45.3125 15.671875 45.3125 23.6875 
L 45.3125 54.6875 
L 54.296875 54.6875 
L 54.296875 0 
L 45.3125 0 
L 45.3125 8.40625 
Q 42.046875 3.421875 37.71875 1 
Q 33.40625 -1.421875 27.6875 -1.421875 
Q 18.265625 -1.421875 13.375 4.4375 
Q 8.5 10.296875 8.5 21.578125 
z
M 31.109375 56 
z
" id="DejaVuSans-117"/>
       <path d="M 9.421875 54.6875 
L 18.40625 54.6875 
L 18.40625 0 
L 9.421875 0 
z
M 9.421875 75.984375 
L 18.40625 75.984375 
L 18.40625 64.59375 
L 9.421875 64.59375 
z
" id="DejaVuSans-105"/>
       <path d="M 9.421875 75.984375 
L 18.40625 75.984375 
L 18.40625 0 
L 9.421875 0 
z
" id="DejaVuSans-108"/>
       <path d="M 50.984375 -16.609375 
L 50.984375 -23.578125 
L -0.984375 -23.578125 
L -0.984375 -16.609375 
z
" id="DejaVuSans-95"/>
       <path d="M 18.109375 8.203125 
L 18.109375 -20.796875 
L 9.078125 -20.796875 
L 9.078125 54.6875 
L 18.109375 54.6875 
L 18.109375 46.390625 
Q 20.953125 51.265625 25.265625 53.625 
Q 29.59375 56 35.59375 56 
Q 45.5625 56 51.78125 48.09375 
Q 58.015625 40.1875 58.015625 27.296875 
Q 58.015625 14.40625 51.78125 6.484375 
Q 45.5625 -1.421875 35.59375 -1.421875 
Q 29.59375 -1.421875 25.265625 0.953125 
Q 20.953125 3.328125 18.109375 8.203125 
z
M 48.6875 27.296875 
Q 48.6875 37.203125 44.609375 42.84375 
Q 40.53125 48.484375 33.40625 48.484375 
Q 26.265625 48.484375 22.1875 42.84375 
Q 18.109375 37.203125 18.109375 27.296875 
Q 18.109375 17.390625 22.1875 11.75 
Q 26.265625 6.109375 33.40625 6.109375 
Q 40.53125 6.109375 44.609375 11.75 
Q 48.6875 17.390625 48.6875 27.296875 
z
" id="DejaVuSans-112"/>
      </defs>
      <use xlink:href="#DejaVuSans-117"/>
      <use x="63.378906" xlink:href="#DejaVuSans-110"/>
      <use x="126.757812" xlink:href="#DejaVuSans-105"/>
      <use x="154.541016" xlink:href="#DejaVuSans-107"/>
      <use x="208.826172" xlink:href="#DejaVuSans-101"/>
      <use x="270.349609" xlink:href="#DejaVuSans-114"/>
      <use x="309.712891" xlink:href="#DejaVuSans-110"/>
      <use x="373.091797" xlink:href="#DejaVuSans-101"/>
      <use x="434.615234" xlink:href="#DejaVuSans-108"/>
      <use x="462.398438" xlink:href="#DejaVuSans-95"/>
      <use x="512.398438" xlink:href="#DejaVuSans-97"/>
      <use x="573.677734" xlink:href="#DejaVuSans-108"/>
      <use x="601.460938" xlink:href="#DejaVuSans-108"/>
      <use x="629.244141" xlink:href="#DejaVuSans-111"/>
      <use x="690.425781" xlink:href="#DejaVuSans-99"/>
      <use x="745.40625" xlink:href="#DejaVuSans-112"/>
      <use x="808.882812" xlink:href="#DejaVuSans-111"/>
      <use x="870.064453" xlink:href="#DejaVuSans-111"/>
      <use x="931.246094" xlink:href="#DejaVuSans-108"/>
     </g>
    </g>
    <g id="line2d_46">
     <path d="M 652.68 238.545 
L 672.68 238.545 
" style="fill:none;stroke:#2ca02c;stroke-linecap:square;stroke-width:1.5;"/>
    </g>
    <g id="line2d_47"/>
    <g id="text_32">
     <!-- unikernel_base -->
     <g transform="translate(680.68 242.045)scale(0.1 -0.1)">
      <defs>
       <path d="M 48.6875 27.296875 
Q 48.6875 37.203125 44.609375 42.84375 
Q 40.53125 48.484375 33.40625 48.484375 
Q 26.265625 48.484375 22.1875 42.84375 
Q 18.109375 37.203125 18.109375 27.296875 
Q 18.109375 17.390625 22.1875 11.75 
Q 26.265625 6.109375 33.40625 6.109375 
Q 40.53125 6.109375 44.609375 11.75 
Q 48.6875 17.390625 48.6875 27.296875 
z
M 18.109375 46.390625 
Q 20.953125 51.265625 25.265625 53.625 
Q 29.59375 56 35.59375 56 
Q 45.5625 56 51.78125 48.09375 
Q 58.015625 40.1875 58.015625 27.296875 
Q 58.015625 14.40625 51.78125 6.484375 
Q 45.5625 -1.421875 35.59375 -1.421875 
Q 29.59375 -1.421875 25.265625 0.953125 
Q 20.953125 3.328125 18.109375 8.203125 
L 18.109375 0 
L 9.078125 0 
L 9.078125 75.984375 
L 18.109375 75.984375 
z
" id="DejaVuSans-98"/>
      </defs>
      <use xlink:href="#DejaVuSans-117"/>
      <use x="63.378906" xlink:href="#DejaVuSans-110"/>
      <use x="126.757812" xlink:href="#DejaVuSans-105"/>
      <use x="154.541016" xlink:href="#DejaVuSans-107"/>
      <use x="208.826172" xlink:href="#DejaVuSans-101"/>
      <use x="270.349609" xlink:href="#DejaVuSans-114"/>
      <use x="309.712891" xlink:href="#DejaVuSans-110"/>
      <use x="373.091797" xlink:href="#DejaVuSans-101"/>
      <use x="434.615234" xlink:href="#DejaVuSans-108"/>
      <use x="462.398438" xlink:href="#DejaVuSans-95"/>
      <use x="512.398438" xlink:href="#DejaVuSans-98"/>
      <use x="575.875" xlink:href="#DejaVuSans-97"/>
      <use x="637.154297" xlink:href="#DejaVuSans-115"/>
      <use x="689.253906" xlink:href="#DejaVuSans-101"/>
     </g>
    </g>
    <g id="line2d_48">
     <path d="M 652.68 253.50125 
L 672.68 253.50125 
" style="fill:none;stroke:#d62728;stroke-linecap:square;stroke-width:1.5;"/>
    </g>
    <g id="line2d_49"/>
    <g id="text_33">
     <!-- unikernel_dce -->
     <g transform="translate(680.68 257.00125)scale(0.1 -0.1)">
      <use xlink:href="#DejaVuSans-117"/>
      <use x="63.378906" xlink:href="#DejaVuSans-110"/>
      <use x="126.757812" xlink:href="#DejaVuSans-105"/>
      <use x="154.541016" xlink:href="#DejaVuSans-107"/>
      <use x="208.826172" xlink:href="#DejaVuSans-101"/>
      <use x="270.349609" xlink:href="#DejaVuSans-114"/>
      <use x="309.712891" xlink:href="#DejaVuSans-110"/>
      <use x="373.091797" xlink:href="#DejaVuSans-101"/>
      <use x="434.615234" xlink:href="#DejaVuSans-108"/>
      <use x="462.398438" xlink:href="#DejaVuSans-95"/>
      <use x="512.398438" xlink:href="#DejaVuSans-100"/>
      <use x="575.875" xlink:href="#DejaVuSans-99"/>
      <use x="630.855469" xlink:href="#DejaVuSans-101"/>
     </g>
    </g>
    <g id="line2d_50">
     <path d="M 652.68 268.4575 
L 672.68 268.4575 
" style="fill:none;stroke:#9467bd;stroke-linecap:square;stroke-width:1.5;"/>
    </g>
    <g id="line2d_51"/>
    <g id="text_34">
     <!-- unikernel_dce-allocpool -->
     <g transform="translate(680.68 271.9575)scale(0.1 -0.1)">
      <defs>
       <path d="M 4.890625 31.390625 
L 31.203125 31.390625 
L 31.203125 23.390625 
L 4.890625 23.390625 
z
" id="DejaVuSans-45"/>
      </defs>
      <use xlink:href="#DejaVuSans-117"/>
      <use x="63.378906" xlink:href="#DejaVuSans-110"/>
      <use x="126.757812" xlink:href="#DejaVuSans-105"/>
      <use x="154.541016" xlink:href="#DejaVuSans-107"/>
      <use x="208.826172" xlink:href="#DejaVuSans-101"/>
      <use x="270.349609" xlink:href="#DejaVuSans-114"/>
      <use x="309.712891" xlink:href="#DejaVuSans-110"/>
      <use x="373.091797" xlink:href="#DejaVuSans-101"/>
      <use x="434.615234" xlink:href="#DejaVuSans-108"/>
      <use x="462.398438" xlink:href="#DejaVuSans-95"/>
      <use x="512.398438" xlink:href="#DejaVuSans-100"/>
      <use x="575.875" xlink:href="#DejaVuSans-99"/>
      <use x="630.855469" xlink:href="#DejaVuSans-101"/>
      <use x="692.378906" xlink:href="#DejaVuSans-45"/>
      <use x="728.462891" xlink:href="#DejaVuSans-97"/>
      <use x="789.742188" xlink:href="#DejaVuSans-108"/>
      <use x="817.525391" xlink:href="#DejaVuSans-108"/>
      <use x="845.308594" xlink:href="#DejaVuSans-111"/>
      <use x="906.490234" xlink:href="#DejaVuSans-99"/>
      <use x="961.470703" xlink:href="#DejaVuSans-112"/>
      <use x="1024.947266" xlink:href="#DejaVuSans-111"/>
      <use x="1086.128906" xlink:href="#DejaVuSans-111"/>
      <use x="1147.310547" xlink:href="#DejaVuSans-108"/>
     </g>
    </g>
    <g id="line2d_52">
     <path d="M 652.68 283.41375 
L 672.68 283.41375 
" style="fill:none;stroke:#8c564b;stroke-linecap:square;stroke-width:1.5;"/>
    </g>
    <g id="line2d_53"/>
    <g id="text_35">
     <!-- unikernel_falloc -->
     <g transform="translate(680.68 286.91375)scale(0.1 -0.1)">
      <defs>
       <path d="M 37.109375 75.984375 
L 37.109375 68.5 
L 28.515625 68.5 
Q 23.6875 68.5 21.796875 66.546875 
Q 19.921875 64.59375 19.921875 59.515625 
L 19.921875 54.6875 
L 34.71875 54.6875 
L 34.71875 47.703125 
L 19.921875 47.703125 
L 19.921875 0 
L 10.890625 0 
L 10.890625 47.703125 
L 2.296875 47.703125 
L 2.296875 54.6875 
L 10.890625 54.6875 
L 10.890625 58.5 
Q 10.890625 67.625 15.140625 71.796875 
Q 19.390625 75.984375 28.609375 75.984375 
z
" id="DejaVuSans-102"/>
      </defs>
      <use xlink:href="#DejaVuSans-117"/>
      <use x="63.378906" xlink:href="#DejaVuSans-110"/>
      <use x="126.757812" xlink:href="#DejaVuSans-105"/>
      <use x="154.541016" xlink:href="#DejaVuSans-107"/>
      <use x="208.826172" xlink:href="#DejaVuSans-101"/>
      <use x="270.349609" xlink:href="#DejaVuSans-114"/>
      <use x="309.712891" xlink:href="#DejaVuSans-110"/>
      <use x="373.091797" xlink:href="#DejaVuSans-101"/>
      <use x="434.615234" xlink:href="#DejaVuSans-108"/>
      <use x="462.398438" xlink:href="#DejaVuSans-95"/>
      <use x="512.398438" xlink:href="#DejaVuSans-102"/>
      <use x="547.603516" xlink:href="#DejaVuSans-97"/>
      <use x="608.882812" xlink:href="#DejaVuSans-108"/>
      <use x="636.666016" xlink:href="#DejaVuSans-108"/>
      <use x="664.449219" xlink:href="#DejaVuSans-111"/>
      <use x="725.630859" xlink:href="#DejaVuSans-99"/>
     </g>
    </g>
    <g id="line2d_54">
     <path d="M 652.68 298.37 
L 672.68 298.37 
" style="fill:none;stroke:#e377c2;stroke-linecap:square;stroke-width:1.5;"/>
    </g>
    <g id="line2d_55"/>
    <g id="text_36">
     <!-- unikernel_fbuddyalloc -->
     <g transform="translate(680.68 301.87)scale(0.1 -0.1)">
      <defs>
       <path d="M 32.171875 -5.078125 
Q 28.375 -14.84375 24.75 -17.8125 
Q 21.140625 -20.796875 15.09375 -20.796875 
L 7.90625 -20.796875 
L 7.90625 -13.28125 
L 13.1875 -13.28125 
Q 16.890625 -13.28125 18.9375 -11.515625 
Q 21 -9.765625 23.484375 -3.21875 
L 25.09375 0.875 
L 2.984375 54.6875 
L 12.5 54.6875 
L 29.59375 11.921875 
L 46.6875 54.6875 
L 56.203125 54.6875 
z
" id="DejaVuSans-121"/>
      </defs>
      <use xlink:href="#DejaVuSans-117"/>
      <use x="63.378906" xlink:href="#DejaVuSans-110"/>
      <use x="126.757812" xlink:href="#DejaVuSans-105"/>
      <use x="154.541016" xlink:href="#DejaVuSans-107"/>
      <use x="208.826172" xlink:href="#DejaVuSans-101"/>
      <use x="270.349609" xlink:href="#DejaVuSans-114"/>
      <use x="309.712891" xlink:href="#DejaVuSans-110"/>
      <use x="373.091797" xlink:href="#DejaVuSans-101"/>
      <use x="434.615234" xlink:href="#DejaVuSans-108"/>
      <use x="462.398438" xlink:href="#DejaVuSans-95"/>
      <use x="512.398438" xlink:href="#DejaVuSans-102"/>
      <use x="547.603516" xlink:href="#DejaVuSans-98"/>
      <use x="611.080078" xlink:href="#DejaVuSans-117"/>
      <use x="674.458984" xlink:href="#DejaVuSans-100"/>
      <use x="737.935547" xlink:href="#DejaVuSans-100"/>
      <use x="801.412109" xlink:href="#DejaVuSans-121"/>
      <use x="860.591797" xlink:href="#DejaVuSans-97"/>
      <use x="921.871094" xlink:href="#DejaVuSans-108"/>
      <use x="949.654297" xlink:href="#DejaVuSans-108"/>
      <use x="977.4375" xlink:href="#DejaVuSans-111"/>
      <use x="1038.619141" xlink:href="#DejaVuSans-99"/>
     </g>
    </g>
   </g>
  </g>
 </g>
 <defs>
  <clipPath id="p10920de640">
   <rect height="388.08" width="535.68" x="108" y="60.48"/>
  </clipPath>
 </defs>
</svg>
