<?xml version="1.0" encoding="utf-8" standalone="no"?>
<!DOCTYPE svg PUBLIC "-//W3C//DTD SVG 1.1//EN"
  "http://www.w3.org/Graphics/SVG/1.1/DTD/svg11.dtd">
<!-- Created with matplotlib (https://matplotlib.org/) -->
<svg height="504pt" version="1.1" viewBox="0 0 864 504" width="864pt" xmlns="http://www.w3.org/2000/svg" xmlns:xlink="http://www.w3.org/1999/xlink">
 <metadata>
  <rdf:RDF xmlns:cc="http://creativecommons.org/ns#" xmlns:dc="http://purl.org/dc/elements/1.1/" xmlns:rdf="http://www.w3.org/1999/02/22-rdf-syntax-ns#">
   <cc:Work>
    <dc:type rdf:resource="http://purl.org/dc/dcmitype/StillImage"/>
    <dc:date>2022-05-29T17:21:51.097789</dc:date>
    <dc:format>image/svg+xml</dc:format>
    <dc:creator>
     <cc:Agent>
      <dc:title>Matplotlib v3.3.4, https://matplotlib.org/</dc:title>
     </cc:Agent>
    </dc:creator>
   </cc:Work>
  </rdf:RDF>
 </metadata>
 <defs>
  <style type="text/css">*{stroke-linecap:butt;stroke-linejoin:round;}</style>
 </defs>
 <g id="figure_1">
  <g id="patch_1">
   <path d="M 0 504 
L 864 504 
L 864 0 
L 0 0 
z
" style="fill:#ffffff;"/>
  </g>
  <g id="axes_1">
   <g id="patch_2">
    <path d="M 108 448.56 
L 643.68 448.56 
L 643.68 60.48 
L 108 60.48 
z
" style="fill:#ffffff;"/>
   </g>
   <g id="matplotlib.axis_1">
    <g id="xtick_1">
     <g id="line2d_1">
      <defs>
       <path d="M 0 0 
L 0 3.5 
" id="m6309c47a7d" style="stroke:#000000;stroke-width:0.8;"/>
      </defs>
      <g>
       <use style="stroke:#000000;stroke-width:0.8;" x="132.349091" xlink:href="#m6309c47a7d" y="448.56"/>
      </g>
     </g>
     <g id="text_1">
      <!-- 17:37:06 -->
      <g transform="translate(135.108466 500.4725)rotate(-90)scale(0.1 -0.1)">
       <defs>
        <path d="M 12.40625 8.296875 
L 28.515625 8.296875 
L 28.515625 63.921875 
L 10.984375 60.40625 
L 10.984375 69.390625 
L 28.421875 72.90625 
L 38.28125 72.90625 
L 38.28125 8.296875 
L 54.390625 8.296875 
L 54.390625 0 
L 12.40625 0 
z
" id="DejaVuSans-49"/>
        <path d="M 8.203125 72.90625 
L 55.078125 72.90625 
L 55.078125 68.703125 
L 28.609375 0 
L 18.3125 0 
L 43.21875 64.59375 
L 8.203125 64.59375 
z
" id="DejaVuSans-55"/>
        <path d="M 11.71875 12.40625 
L 22.015625 12.40625 
L 22.015625 0 
L 11.71875 0 
z
M 11.71875 51.703125 
L 22.015625 51.703125 
L 22.015625 39.3125 
L 11.71875 39.3125 
z
" id="DejaVuSans-58"/>
        <path d="M 40.578125 39.3125 
Q 47.65625 37.796875 51.625 33 
Q 55.609375 28.21875 55.609375 21.1875 
Q 55.609375 10.40625 48.1875 4.484375 
Q 40.765625 -1.421875 27.09375 -1.421875 
Q 22.515625 -1.421875 17.65625 -0.515625 
Q 12.796875 0.390625 7.625 2.203125 
L 7.625 11.71875 
Q 11.71875 9.328125 16.59375 8.109375 
Q 21.484375 6.890625 26.8125 6.890625 
Q 36.078125 6.890625 40.9375 10.546875 
Q 45.796875 14.203125 45.796875 21.1875 
Q 45.796875 27.640625 41.28125 31.265625 
Q 36.765625 34.90625 28.71875 34.90625 
L 20.21875 34.90625 
L 20.21875 43.015625 
L 29.109375 43.015625 
Q 36.375 43.015625 40.234375 45.921875 
Q 44.09375 48.828125 44.09375 54.296875 
Q 44.09375 59.90625 40.109375 62.90625 
Q 36.140625 65.921875 28.71875 65.921875 
Q 24.65625 65.921875 20.015625 65.03125 
Q 15.375 64.15625 9.8125 62.3125 
L 9.8125 71.09375 
Q 15.4375 72.65625 20.34375 73.4375 
Q 25.25 74.21875 29.59375 74.21875 
Q 40.828125 74.21875 47.359375 69.109375 
Q 53.90625 64.015625 53.90625 55.328125 
Q 53.90625 49.265625 50.4375 45.09375 
Q 46.96875 40.921875 40.578125 39.3125 
z
" id="DejaVuSans-51"/>
        <path d="M 31.78125 66.40625 
Q 24.171875 66.40625 20.328125 58.90625 
Q 16.5 51.421875 16.5 36.375 
Q 16.5 21.390625 20.328125 13.890625 
Q 24.171875 6.390625 31.78125 6.390625 
Q 39.453125 6.390625 43.28125 13.890625 
Q 47.125 21.390625 47.125 36.375 
Q 47.125 51.421875 43.28125 58.90625 
Q 39.453125 66.40625 31.78125 66.40625 
z
M 31.78125 74.21875 
Q 44.046875 74.21875 50.515625 64.515625 
Q 56.984375 54.828125 56.984375 36.375 
Q 56.984375 17.96875 50.515625 8.265625 
Q 44.046875 -1.421875 31.78125 -1.421875 
Q 19.53125 -1.421875 13.0625 8.265625 
Q 6.59375 17.96875 6.59375 36.375 
Q 6.59375 54.828125 13.0625 64.515625 
Q 19.53125 74.21875 31.78125 74.21875 
z
" id="DejaVuSans-48"/>
        <path d="M 33.015625 40.375 
Q 26.375 40.375 22.484375 35.828125 
Q 18.609375 31.296875 18.609375 23.390625 
Q 18.609375 15.53125 22.484375 10.953125 
Q 26.375 6.390625 33.015625 6.390625 
Q 39.65625 6.390625 43.53125 10.953125 
Q 47.40625 15.53125 47.40625 23.390625 
Q 47.40625 31.296875 43.53125 35.828125 
Q 39.65625 40.375 33.015625 40.375 
z
M 52.59375 71.296875 
L 52.59375 62.3125 
Q 48.875 64.0625 45.09375 64.984375 
Q 41.3125 65.921875 37.59375 65.921875 
Q 27.828125 65.921875 22.671875 59.328125 
Q 17.53125 52.734375 16.796875 39.40625 
Q 19.671875 43.65625 24.015625 45.921875 
Q 28.375 48.1875 33.59375 48.1875 
Q 44.578125 48.1875 50.953125 41.515625 
Q 57.328125 34.859375 57.328125 23.390625 
Q 57.328125 12.15625 50.6875 5.359375 
Q 44.046875 -1.421875 33.015625 -1.421875 
Q 20.359375 -1.421875 13.671875 8.265625 
Q 6.984375 17.96875 6.984375 36.375 
Q 6.984375 53.65625 15.1875 63.9375 
Q 23.390625 74.21875 37.203125 74.21875 
Q 40.921875 74.21875 44.703125 73.484375 
Q 48.484375 72.75 52.59375 71.296875 
z
" id="DejaVuSans-54"/>
       </defs>
       <use xlink:href="#DejaVuSans-49"/>
       <use x="63.623047" xlink:href="#DejaVuSans-55"/>
       <use x="127.246094" xlink:href="#DejaVuSans-58"/>
       <use x="160.9375" xlink:href="#DejaVuSans-51"/>
       <use x="224.560547" xlink:href="#DejaVuSans-55"/>
       <use x="288.183594" xlink:href="#DejaVuSans-58"/>
       <use x="321.875" xlink:href="#DejaVuSans-48"/>
       <use x="385.498047" xlink:href="#DejaVuSans-54"/>
      </g>
     </g>
    </g>
    <g id="xtick_2">
     <g id="line2d_2">
      <g>
       <use style="stroke:#000000;stroke-width:0.8;" x="156.698182" xlink:href="#m6309c47a7d" y="448.56"/>
      </g>
     </g>
     <g id="text_2">
      <!-- 17:38:33 -->
      <g transform="translate(159.457557 500.4725)rotate(-90)scale(0.1 -0.1)">
       <defs>
        <path d="M 31.78125 34.625 
Q 24.75 34.625 20.71875 30.859375 
Q 16.703125 27.09375 16.703125 20.515625 
Q 16.703125 13.921875 20.71875 10.15625 
Q 24.75 6.390625 31.78125 6.390625 
Q 38.8125 6.390625 42.859375 10.171875 
Q 46.921875 13.96875 46.921875 20.515625 
Q 46.921875 27.09375 42.890625 30.859375 
Q 38.875 34.625 31.78125 34.625 
z
M 21.921875 38.8125 
Q 15.578125 40.375 12.03125 44.71875 
Q 8.5 49.078125 8.5 55.328125 
Q 8.5 64.0625 14.71875 69.140625 
Q 20.953125 74.21875 31.78125 74.21875 
Q 42.671875 74.21875 48.875 69.140625 
Q 55.078125 64.0625 55.078125 55.328125 
Q 55.078125 49.078125 51.53125 44.71875 
Q 48 40.375 41.703125 38.8125 
Q 48.828125 37.15625 52.796875 32.3125 
Q 56.78125 27.484375 56.78125 20.515625 
Q 56.78125 9.90625 50.3125 4.234375 
Q 43.84375 -1.421875 31.78125 -1.421875 
Q 19.734375 -1.421875 13.25 4.234375 
Q 6.78125 9.90625 6.78125 20.515625 
Q 6.78125 27.484375 10.78125 32.3125 
Q 14.796875 37.15625 21.921875 38.8125 
z
M 18.3125 54.390625 
Q 18.3125 48.734375 21.84375 45.5625 
Q 25.390625 42.390625 31.78125 42.390625 
Q 38.140625 42.390625 41.71875 45.5625 
Q 45.3125 48.734375 45.3125 54.390625 
Q 45.3125 60.0625 41.71875 63.234375 
Q 38.140625 66.40625 31.78125 66.40625 
Q 25.390625 66.40625 21.84375 63.234375 
Q 18.3125 60.0625 18.3125 54.390625 
z
" id="DejaVuSans-56"/>
       </defs>
       <use xlink:href="#DejaVuSans-49"/>
       <use x="63.623047" xlink:href="#DejaVuSans-55"/>
       <use x="127.246094" xlink:href="#DejaVuSans-58"/>
       <use x="160.9375" xlink:href="#DejaVuSans-51"/>
       <use x="224.560547" xlink:href="#DejaVuSans-56"/>
       <use x="288.183594" xlink:href="#DejaVuSans-58"/>
       <use x="321.875" xlink:href="#DejaVuSans-51"/>
       <use x="385.498047" xlink:href="#DejaVuSans-51"/>
      </g>
     </g>
    </g>
    <g id="xtick_3">
     <g id="line2d_3">
      <g>
       <use style="stroke:#000000;stroke-width:0.8;" x="181.047273" xlink:href="#m6309c47a7d" y="448.56"/>
      </g>
     </g>
     <g id="text_3">
      <!-- 17:39:59 -->
      <g transform="translate(183.806648 500.4725)rotate(-90)scale(0.1 -0.1)">
       <defs>
        <path d="M 10.984375 1.515625 
L 10.984375 10.5 
Q 14.703125 8.734375 18.5 7.8125 
Q 22.3125 6.890625 25.984375 6.890625 
Q 35.75 6.890625 40.890625 13.453125 
Q 46.046875 20.015625 46.78125 33.40625 
Q 43.953125 29.203125 39.59375 26.953125 
Q 35.25 24.703125 29.984375 24.703125 
Q 19.046875 24.703125 12.671875 31.3125 
Q 6.296875 37.9375 6.296875 49.421875 
Q 6.296875 60.640625 12.9375 67.421875 
Q 19.578125 74.21875 30.609375 74.21875 
Q 43.265625 74.21875 49.921875 64.515625 
Q 56.59375 54.828125 56.59375 36.375 
Q 56.59375 19.140625 48.40625 8.859375 
Q 40.234375 -1.421875 26.421875 -1.421875 
Q 22.703125 -1.421875 18.890625 -0.6875 
Q 15.09375 0.046875 10.984375 1.515625 
z
M 30.609375 32.421875 
Q 37.25 32.421875 41.125 36.953125 
Q 45.015625 41.5 45.015625 49.421875 
Q 45.015625 57.28125 41.125 61.84375 
Q 37.25 66.40625 30.609375 66.40625 
Q 23.96875 66.40625 20.09375 61.84375 
Q 16.21875 57.28125 16.21875 49.421875 
Q 16.21875 41.5 20.09375 36.953125 
Q 23.96875 32.421875 30.609375 32.421875 
z
" id="DejaVuSans-57"/>
        <path d="M 10.796875 72.90625 
L 49.515625 72.90625 
L 49.515625 64.59375 
L 19.828125 64.59375 
L 19.828125 46.734375 
Q 21.96875 47.46875 24.109375 47.828125 
Q 26.265625 48.1875 28.421875 48.1875 
Q 40.625 48.1875 47.75 41.5 
Q 54.890625 34.8125 54.890625 23.390625 
Q 54.890625 11.625 47.5625 5.09375 
Q 40.234375 -1.421875 26.90625 -1.421875 
Q 22.3125 -1.421875 17.546875 -0.640625 
Q 12.796875 0.140625 7.71875 1.703125 
L 7.71875 11.625 
Q 12.109375 9.234375 16.796875 8.0625 
Q 21.484375 6.890625 26.703125 6.890625 
Q 35.15625 6.890625 40.078125 11.328125 
Q 45.015625 15.765625 45.015625 23.390625 
Q 45.015625 31 40.078125 35.4375 
Q 35.15625 39.890625 26.703125 39.890625 
Q 22.75 39.890625 18.8125 39.015625 
Q 14.890625 38.140625 10.796875 36.28125 
z
" id="DejaVuSans-53"/>
       </defs>
       <use xlink:href="#DejaVuSans-49"/>
       <use x="63.623047" xlink:href="#DejaVuSans-55"/>
       <use x="127.246094" xlink:href="#DejaVuSans-58"/>
       <use x="160.9375" xlink:href="#DejaVuSans-51"/>
       <use x="224.560547" xlink:href="#DejaVuSans-57"/>
       <use x="288.183594" xlink:href="#DejaVuSans-58"/>
       <use x="321.875" xlink:href="#DejaVuSans-53"/>
       <use x="385.498047" xlink:href="#DejaVuSans-57"/>
      </g>
     </g>
    </g>
    <g id="xtick_4">
     <g id="line2d_4">
      <g>
       <use style="stroke:#000000;stroke-width:0.8;" x="205.396364" xlink:href="#m6309c47a7d" y="448.56"/>
      </g>
     </g>
     <g id="text_4">
      <!-- 17:41:26 -->
      <g transform="translate(208.155739 500.4725)rotate(-90)scale(0.1 -0.1)">
       <defs>
        <path d="M 37.796875 64.3125 
L 12.890625 25.390625 
L 37.796875 25.390625 
z
M 35.203125 72.90625 
L 47.609375 72.90625 
L 47.609375 25.390625 
L 58.015625 25.390625 
L 58.015625 17.1875 
L 47.609375 17.1875 
L 47.609375 0 
L 37.796875 0 
L 37.796875 17.1875 
L 4.890625 17.1875 
L 4.890625 26.703125 
z
" id="DejaVuSans-52"/>
        <path d="M 19.1875 8.296875 
L 53.609375 8.296875 
L 53.609375 0 
L 7.328125 0 
L 7.328125 8.296875 
Q 12.9375 14.109375 22.625 23.890625 
Q 32.328125 33.6875 34.8125 36.53125 
Q 39.546875 41.84375 41.421875 45.53125 
Q 43.3125 49.21875 43.3125 52.78125 
Q 43.3125 58.59375 39.234375 62.25 
Q 35.15625 65.921875 28.609375 65.921875 
Q 23.96875 65.921875 18.8125 64.3125 
Q 13.671875 62.703125 7.8125 59.421875 
L 7.8125 69.390625 
Q 13.765625 71.78125 18.9375 73 
Q 24.125 74.21875 28.421875 74.21875 
Q 39.75 74.21875 46.484375 68.546875 
Q 53.21875 62.890625 53.21875 53.421875 
Q 53.21875 48.921875 51.53125 44.890625 
Q 49.859375 40.875 45.40625 35.40625 
Q 44.1875 33.984375 37.640625 27.21875 
Q 31.109375 20.453125 19.1875 8.296875 
z
" id="DejaVuSans-50"/>
       </defs>
       <use xlink:href="#DejaVuSans-49"/>
       <use x="63.623047" xlink:href="#DejaVuSans-55"/>
       <use x="127.246094" xlink:href="#DejaVuSans-58"/>
       <use x="160.9375" xlink:href="#DejaVuSans-52"/>
       <use x="224.560547" xlink:href="#DejaVuSans-49"/>
       <use x="288.183594" xlink:href="#DejaVuSans-58"/>
       <use x="321.875" xlink:href="#DejaVuSans-50"/>
       <use x="385.498047" xlink:href="#DejaVuSans-54"/>
      </g>
     </g>
    </g>
    <g id="xtick_5">
     <g id="line2d_5">
      <g>
       <use style="stroke:#000000;stroke-width:0.8;" x="229.745455" xlink:href="#m6309c47a7d" y="448.56"/>
      </g>
     </g>
     <g id="text_5">
      <!-- 17:42:53 -->
      <g transform="translate(232.50483 500.4725)rotate(-90)scale(0.1 -0.1)">
       <use xlink:href="#DejaVuSans-49"/>
       <use x="63.623047" xlink:href="#DejaVuSans-55"/>
       <use x="127.246094" xlink:href="#DejaVuSans-58"/>
       <use x="160.9375" xlink:href="#DejaVuSans-52"/>
       <use x="224.560547" xlink:href="#DejaVuSans-50"/>
       <use x="288.183594" xlink:href="#DejaVuSans-58"/>
       <use x="321.875" xlink:href="#DejaVuSans-53"/>
       <use x="385.498047" xlink:href="#DejaVuSans-51"/>
      </g>
     </g>
    </g>
    <g id="xtick_6">
     <g id="line2d_6">
      <g>
       <use style="stroke:#000000;stroke-width:0.8;" x="254.094545" xlink:href="#m6309c47a7d" y="448.56"/>
      </g>
     </g>
     <g id="text_6">
      <!-- 17:44:19 -->
      <g transform="translate(256.85392 500.4725)rotate(-90)scale(0.1 -0.1)">
       <use xlink:href="#DejaVuSans-49"/>
       <use x="63.623047" xlink:href="#DejaVuSans-55"/>
       <use x="127.246094" xlink:href="#DejaVuSans-58"/>
       <use x="160.9375" xlink:href="#DejaVuSans-52"/>
       <use x="224.560547" xlink:href="#DejaVuSans-52"/>
       <use x="288.183594" xlink:href="#DejaVuSans-58"/>
       <use x="321.875" xlink:href="#DejaVuSans-49"/>
       <use x="385.498047" xlink:href="#DejaVuSans-57"/>
      </g>
     </g>
    </g>
    <g id="xtick_7">
     <g id="line2d_7">
      <g>
       <use style="stroke:#000000;stroke-width:0.8;" x="278.443636" xlink:href="#m6309c47a7d" y="448.56"/>
      </g>
     </g>
     <g id="text_7">
      <!-- 17:45:45 -->
      <g transform="translate(281.203011 500.4725)rotate(-90)scale(0.1 -0.1)">
       <use xlink:href="#DejaVuSans-49"/>
       <use x="63.623047" xlink:href="#DejaVuSans-55"/>
       <use x="127.246094" xlink:href="#DejaVuSans-58"/>
       <use x="160.9375" xlink:href="#DejaVuSans-52"/>
       <use x="224.560547" xlink:href="#DejaVuSans-53"/>
       <use x="288.183594" xlink:href="#DejaVuSans-58"/>
       <use x="321.875" xlink:href="#DejaVuSans-52"/>
       <use x="385.498047" xlink:href="#DejaVuSans-53"/>
      </g>
     </g>
    </g>
    <g id="xtick_8">
     <g id="line2d_8">
      <g>
       <use style="stroke:#000000;stroke-width:0.8;" x="302.792727" xlink:href="#m6309c47a7d" y="448.56"/>
      </g>
     </g>
     <g id="text_8">
      <!-- 17:47:12 -->
      <g transform="translate(305.552102 500.4725)rotate(-90)scale(0.1 -0.1)">
       <use xlink:href="#DejaVuSans-49"/>
       <use x="63.623047" xlink:href="#DejaVuSans-55"/>
       <use x="127.246094" xlink:href="#DejaVuSans-58"/>
       <use x="160.9375" xlink:href="#DejaVuSans-52"/>
       <use x="224.560547" xlink:href="#DejaVuSans-55"/>
       <use x="288.183594" xlink:href="#DejaVuSans-58"/>
       <use x="321.875" xlink:href="#DejaVuSans-49"/>
       <use x="385.498047" xlink:href="#DejaVuSans-50"/>
      </g>
     </g>
    </g>
    <g id="xtick_9">
     <g id="line2d_9">
      <g>
       <use style="stroke:#000000;stroke-width:0.8;" x="327.141818" xlink:href="#m6309c47a7d" y="448.56"/>
      </g>
     </g>
     <g id="text_9">
      <!-- 17:48:38 -->
      <g transform="translate(329.901193 500.4725)rotate(-90)scale(0.1 -0.1)">
       <use xlink:href="#DejaVuSans-49"/>
       <use x="63.623047" xlink:href="#DejaVuSans-55"/>
       <use x="127.246094" xlink:href="#DejaVuSans-58"/>
       <use x="160.9375" xlink:href="#DejaVuSans-52"/>
       <use x="224.560547" xlink:href="#DejaVuSans-56"/>
       <use x="288.183594" xlink:href="#DejaVuSans-58"/>
       <use x="321.875" xlink:href="#DejaVuSans-51"/>
       <use x="385.498047" xlink:href="#DejaVuSans-56"/>
      </g>
     </g>
    </g>
    <g id="xtick_10">
     <g id="line2d_10">
      <g>
       <use style="stroke:#000000;stroke-width:0.8;" x="351.490909" xlink:href="#m6309c47a7d" y="448.56"/>
      </g>
     </g>
     <g id="text_10">
      <!-- 17:50:05 -->
      <g transform="translate(354.250284 500.4725)rotate(-90)scale(0.1 -0.1)">
       <use xlink:href="#DejaVuSans-49"/>
       <use x="63.623047" xlink:href="#DejaVuSans-55"/>
       <use x="127.246094" xlink:href="#DejaVuSans-58"/>
       <use x="160.9375" xlink:href="#DejaVuSans-53"/>
       <use x="224.560547" xlink:href="#DejaVuSans-48"/>
       <use x="288.183594" xlink:href="#DejaVuSans-58"/>
       <use x="321.875" xlink:href="#DejaVuSans-48"/>
       <use x="385.498047" xlink:href="#DejaVuSans-53"/>
      </g>
     </g>
    </g>
    <g id="xtick_11">
     <g id="line2d_11">
      <g>
       <use style="stroke:#000000;stroke-width:0.8;" x="375.84" xlink:href="#m6309c47a7d" y="448.56"/>
      </g>
     </g>
     <g id="text_11">
      <!-- 17:51:31 -->
      <g transform="translate(378.599375 500.4725)rotate(-90)scale(0.1 -0.1)">
       <use xlink:href="#DejaVuSans-49"/>
       <use x="63.623047" xlink:href="#DejaVuSans-55"/>
       <use x="127.246094" xlink:href="#DejaVuSans-58"/>
       <use x="160.9375" xlink:href="#DejaVuSans-53"/>
       <use x="224.560547" xlink:href="#DejaVuSans-49"/>
       <use x="288.183594" xlink:href="#DejaVuSans-58"/>
       <use x="321.875" xlink:href="#DejaVuSans-51"/>
       <use x="385.498047" xlink:href="#DejaVuSans-49"/>
      </g>
     </g>
    </g>
    <g id="xtick_12">
     <g id="line2d_12">
      <g>
       <use style="stroke:#000000;stroke-width:0.8;" x="400.189091" xlink:href="#m6309c47a7d" y="448.56"/>
      </g>
     </g>
     <g id="text_12">
      <!-- 17:52:57 -->
      <g transform="translate(402.948466 500.4725)rotate(-90)scale(0.1 -0.1)">
       <use xlink:href="#DejaVuSans-49"/>
       <use x="63.623047" xlink:href="#DejaVuSans-55"/>
       <use x="127.246094" xlink:href="#DejaVuSans-58"/>
       <use x="160.9375" xlink:href="#DejaVuSans-53"/>
       <use x="224.560547" xlink:href="#DejaVuSans-50"/>
       <use x="288.183594" xlink:href="#DejaVuSans-58"/>
       <use x="321.875" xlink:href="#DejaVuSans-53"/>
       <use x="385.498047" xlink:href="#DejaVuSans-55"/>
      </g>
     </g>
    </g>
    <g id="xtick_13">
     <g id="line2d_13">
      <g>
       <use style="stroke:#000000;stroke-width:0.8;" x="424.538182" xlink:href="#m6309c47a7d" y="448.56"/>
      </g>
     </g>
     <g id="text_13">
      <!-- 17:54:24 -->
      <g transform="translate(427.297557 500.4725)rotate(-90)scale(0.1 -0.1)">
       <use xlink:href="#DejaVuSans-49"/>
       <use x="63.623047" xlink:href="#DejaVuSans-55"/>
       <use x="127.246094" xlink:href="#DejaVuSans-58"/>
       <use x="160.9375" xlink:href="#DejaVuSans-53"/>
       <use x="224.560547" xlink:href="#DejaVuSans-52"/>
       <use x="288.183594" xlink:href="#DejaVuSans-58"/>
       <use x="321.875" xlink:href="#DejaVuSans-50"/>
       <use x="385.498047" xlink:href="#DejaVuSans-52"/>
      </g>
     </g>
    </g>
    <g id="xtick_14">
     <g id="line2d_14">
      <g>
       <use style="stroke:#000000;stroke-width:0.8;" x="448.887273" xlink:href="#m6309c47a7d" y="448.56"/>
      </g>
     </g>
     <g id="text_14">
      <!-- 17:55:50 -->
      <g transform="translate(451.646648 500.4725)rotate(-90)scale(0.1 -0.1)">
       <use xlink:href="#DejaVuSans-49"/>
       <use x="63.623047" xlink:href="#DejaVuSans-55"/>
       <use x="127.246094" xlink:href="#DejaVuSans-58"/>
       <use x="160.9375" xlink:href="#DejaVuSans-53"/>
       <use x="224.560547" xlink:href="#DejaVuSans-53"/>
       <use x="288.183594" xlink:href="#DejaVuSans-58"/>
       <use x="321.875" xlink:href="#DejaVuSans-53"/>
       <use x="385.498047" xlink:href="#DejaVuSans-48"/>
      </g>
     </g>
    </g>
    <g id="xtick_15">
     <g id="line2d_15">
      <g>
       <use style="stroke:#000000;stroke-width:0.8;" x="473.236364" xlink:href="#m6309c47a7d" y="448.56"/>
      </g>
     </g>
     <g id="text_15">
      <!-- 17:57:16 -->
      <g transform="translate(475.995739 500.4725)rotate(-90)scale(0.1 -0.1)">
       <use xlink:href="#DejaVuSans-49"/>
       <use x="63.623047" xlink:href="#DejaVuSans-55"/>
       <use x="127.246094" xlink:href="#DejaVuSans-58"/>
       <use x="160.9375" xlink:href="#DejaVuSans-53"/>
       <use x="224.560547" xlink:href="#DejaVuSans-55"/>
       <use x="288.183594" xlink:href="#DejaVuSans-58"/>
       <use x="321.875" xlink:href="#DejaVuSans-49"/>
       <use x="385.498047" xlink:href="#DejaVuSans-54"/>
      </g>
     </g>
    </g>
    <g id="xtick_16">
     <g id="line2d_16">
      <g>
       <use style="stroke:#000000;stroke-width:0.8;" x="497.585455" xlink:href="#m6309c47a7d" y="448.56"/>
      </g>
     </g>
     <g id="text_16">
      <!-- 17:58:43 -->
      <g transform="translate(500.34483 500.4725)rotate(-90)scale(0.1 -0.1)">
       <use xlink:href="#DejaVuSans-49"/>
       <use x="63.623047" xlink:href="#DejaVuSans-55"/>
       <use x="127.246094" xlink:href="#DejaVuSans-58"/>
       <use x="160.9375" xlink:href="#DejaVuSans-53"/>
       <use x="224.560547" xlink:href="#DejaVuSans-56"/>
       <use x="288.183594" xlink:href="#DejaVuSans-58"/>
       <use x="321.875" xlink:href="#DejaVuSans-52"/>
       <use x="385.498047" xlink:href="#DejaVuSans-51"/>
      </g>
     </g>
    </g>
    <g id="xtick_17">
     <g id="line2d_17">
      <g>
       <use style="stroke:#000000;stroke-width:0.8;" x="521.934545" xlink:href="#m6309c47a7d" y="448.56"/>
      </g>
     </g>
     <g id="text_17">
      <!-- 18:00:09 -->
      <g transform="translate(524.69392 500.4725)rotate(-90)scale(0.1 -0.1)">
       <use xlink:href="#DejaVuSans-49"/>
       <use x="63.623047" xlink:href="#DejaVuSans-56"/>
       <use x="127.246094" xlink:href="#DejaVuSans-58"/>
       <use x="160.9375" xlink:href="#DejaVuSans-48"/>
       <use x="224.560547" xlink:href="#DejaVuSans-48"/>
       <use x="288.183594" xlink:href="#DejaVuSans-58"/>
       <use x="321.875" xlink:href="#DejaVuSans-48"/>
       <use x="385.498047" xlink:href="#DejaVuSans-57"/>
      </g>
     </g>
    </g>
    <g id="xtick_18">
     <g id="line2d_18">
      <g>
       <use style="stroke:#000000;stroke-width:0.8;" x="546.283636" xlink:href="#m6309c47a7d" y="448.56"/>
      </g>
     </g>
     <g id="text_18">
      <!-- 18:01:35 -->
      <g transform="translate(549.043011 500.4725)rotate(-90)scale(0.1 -0.1)">
       <use xlink:href="#DejaVuSans-49"/>
       <use x="63.623047" xlink:href="#DejaVuSans-56"/>
       <use x="127.246094" xlink:href="#DejaVuSans-58"/>
       <use x="160.9375" xlink:href="#DejaVuSans-48"/>
       <use x="224.560547" xlink:href="#DejaVuSans-49"/>
       <use x="288.183594" xlink:href="#DejaVuSans-58"/>
       <use x="321.875" xlink:href="#DejaVuSans-51"/>
       <use x="385.498047" xlink:href="#DejaVuSans-53"/>
      </g>
     </g>
    </g>
    <g id="xtick_19">
     <g id="line2d_19">
      <g>
       <use style="stroke:#000000;stroke-width:0.8;" x="570.632727" xlink:href="#m6309c47a7d" y="448.56"/>
      </g>
     </g>
     <g id="text_19">
      <!-- 18:03:02 -->
      <g transform="translate(573.392102 500.4725)rotate(-90)scale(0.1 -0.1)">
       <use xlink:href="#DejaVuSans-49"/>
       <use x="63.623047" xlink:href="#DejaVuSans-56"/>
       <use x="127.246094" xlink:href="#DejaVuSans-58"/>
       <use x="160.9375" xlink:href="#DejaVuSans-48"/>
       <use x="224.560547" xlink:href="#DejaVuSans-51"/>
       <use x="288.183594" xlink:href="#DejaVuSans-58"/>
       <use x="321.875" xlink:href="#DejaVuSans-48"/>
       <use x="385.498047" xlink:href="#DejaVuSans-50"/>
      </g>
     </g>
    </g>
    <g id="xtick_20">
     <g id="line2d_20">
      <g>
       <use style="stroke:#000000;stroke-width:0.8;" x="594.981818" xlink:href="#m6309c47a7d" y="448.56"/>
      </g>
     </g>
     <g id="text_20">
      <!-- 18:04:28 -->
      <g transform="translate(597.741193 500.4725)rotate(-90)scale(0.1 -0.1)">
       <use xlink:href="#DejaVuSans-49"/>
       <use x="63.623047" xlink:href="#DejaVuSans-56"/>
       <use x="127.246094" xlink:href="#DejaVuSans-58"/>
       <use x="160.9375" xlink:href="#DejaVuSans-48"/>
       <use x="224.560547" xlink:href="#DejaVuSans-52"/>
       <use x="288.183594" xlink:href="#DejaVuSans-58"/>
       <use x="321.875" xlink:href="#DejaVuSans-50"/>
       <use x="385.498047" xlink:href="#DejaVuSans-56"/>
      </g>
     </g>
    </g>
    <g id="xtick_21">
     <g id="line2d_21">
      <g>
       <use style="stroke:#000000;stroke-width:0.8;" x="619.330909" xlink:href="#m6309c47a7d" y="448.56"/>
      </g>
     </g>
     <g id="text_21">
      <!-- 18:05:54 -->
      <g transform="translate(622.090284 500.4725)rotate(-90)scale(0.1 -0.1)">
       <use xlink:href="#DejaVuSans-49"/>
       <use x="63.623047" xlink:href="#DejaVuSans-56"/>
       <use x="127.246094" xlink:href="#DejaVuSans-58"/>
       <use x="160.9375" xlink:href="#DejaVuSans-48"/>
       <use x="224.560547" xlink:href="#DejaVuSans-53"/>
       <use x="288.183594" xlink:href="#DejaVuSans-58"/>
       <use x="321.875" xlink:href="#DejaVuSans-53"/>
       <use x="385.498047" xlink:href="#DejaVuSans-52"/>
      </g>
     </g>
    </g>
    <g id="text_22">
     <!-- timestamp -->
     <g transform="translate(354.264375 510.55125)scale(0.08 -0.08)">
      <defs>
       <path d="M 18.3125 70.21875 
L 18.3125 54.6875 
L 36.8125 54.6875 
L 36.8125 47.703125 
L 18.3125 47.703125 
L 18.3125 18.015625 
Q 18.3125 11.328125 20.140625 9.421875 
Q 21.96875 7.515625 27.59375 7.515625 
L 36.8125 7.515625 
L 36.8125 0 
L 27.59375 0 
Q 17.1875 0 13.234375 3.875 
Q 9.28125 7.765625 9.28125 18.015625 
L 9.28125 47.703125 
L 2.6875 47.703125 
L 2.6875 54.6875 
L 9.28125 54.6875 
L 9.28125 70.21875 
z
" id="DejaVuSans-116"/>
       <path d="M 9.421875 54.6875 
L 18.40625 54.6875 
L 18.40625 0 
L 9.421875 0 
z
M 9.421875 75.984375 
L 18.40625 75.984375 
L 18.40625 64.59375 
L 9.421875 64.59375 
z
" id="DejaVuSans-105"/>
       <path d="M 52 44.1875 
Q 55.375 50.25 60.0625 53.125 
Q 64.75 56 71.09375 56 
Q 79.640625 56 84.28125 50.015625 
Q 88.921875 44.046875 88.921875 33.015625 
L 88.921875 0 
L 79.890625 0 
L 79.890625 32.71875 
Q 79.890625 40.578125 77.09375 44.375 
Q 74.3125 48.1875 68.609375 48.1875 
Q 61.625 48.1875 57.5625 43.546875 
Q 53.515625 38.921875 53.515625 30.90625 
L 53.515625 0 
L 44.484375 0 
L 44.484375 32.71875 
Q 44.484375 40.625 41.703125 44.40625 
Q 38.921875 48.1875 33.109375 48.1875 
Q 26.21875 48.1875 22.15625 43.53125 
Q 18.109375 38.875 18.109375 30.90625 
L 18.109375 0 
L 9.078125 0 
L 9.078125 54.6875 
L 18.109375 54.6875 
L 18.109375 46.1875 
Q 21.1875 51.21875 25.484375 53.609375 
Q 29.78125 56 35.6875 56 
Q 41.65625 56 45.828125 52.96875 
Q 50 49.953125 52 44.1875 
z
" id="DejaVuSans-109"/>
       <path d="M 56.203125 29.59375 
L 56.203125 25.203125 
L 14.890625 25.203125 
Q 15.484375 15.921875 20.484375 11.0625 
Q 25.484375 6.203125 34.421875 6.203125 
Q 39.59375 6.203125 44.453125 7.46875 
Q 49.3125 8.734375 54.109375 11.28125 
L 54.109375 2.78125 
Q 49.265625 0.734375 44.1875 -0.34375 
Q 39.109375 -1.421875 33.890625 -1.421875 
Q 20.796875 -1.421875 13.15625 6.1875 
Q 5.515625 13.8125 5.515625 26.8125 
Q 5.515625 40.234375 12.765625 48.109375 
Q 20.015625 56 32.328125 56 
Q 43.359375 56 49.78125 48.890625 
Q 56.203125 41.796875 56.203125 29.59375 
z
M 47.21875 32.234375 
Q 47.125 39.59375 43.09375 43.984375 
Q 39.0625 48.390625 32.421875 48.390625 
Q 24.90625 48.390625 20.390625 44.140625 
Q 15.875 39.890625 15.1875 32.171875 
z
" id="DejaVuSans-101"/>
       <path d="M 44.28125 53.078125 
L 44.28125 44.578125 
Q 40.484375 46.53125 36.375 47.5 
Q 32.28125 48.484375 27.875 48.484375 
Q 21.1875 48.484375 17.84375 46.4375 
Q 14.5 44.390625 14.5 40.28125 
Q 14.5 37.15625 16.890625 35.375 
Q 19.28125 33.59375 26.515625 31.984375 
L 29.59375 31.296875 
Q 39.15625 29.25 43.1875 25.515625 
Q 47.21875 21.78125 47.21875 15.09375 
Q 47.21875 7.46875 41.1875 3.015625 
Q 35.15625 -1.421875 24.609375 -1.421875 
Q 20.21875 -1.421875 15.453125 -0.5625 
Q 10.6875 0.296875 5.421875 2 
L 5.421875 11.28125 
Q 10.40625 8.6875 15.234375 7.390625 
Q 20.0625 6.109375 24.8125 6.109375 
Q 31.15625 6.109375 34.5625 8.28125 
Q 37.984375 10.453125 37.984375 14.40625 
Q 37.984375 18.0625 35.515625 20.015625 
Q 33.0625 21.96875 24.703125 23.78125 
L 21.578125 24.515625 
Q 13.234375 26.265625 9.515625 29.90625 
Q 5.8125 33.546875 5.8125 39.890625 
Q 5.8125 47.609375 11.28125 51.796875 
Q 16.75 56 26.8125 56 
Q 31.78125 56 36.171875 55.265625 
Q 40.578125 54.546875 44.28125 53.078125 
z
" id="DejaVuSans-115"/>
       <path d="M 34.28125 27.484375 
Q 23.390625 27.484375 19.1875 25 
Q 14.984375 22.515625 14.984375 16.5 
Q 14.984375 11.71875 18.140625 8.90625 
Q 21.296875 6.109375 26.703125 6.109375 
Q 34.1875 6.109375 38.703125 11.40625 
Q 43.21875 16.703125 43.21875 25.484375 
L 43.21875 27.484375 
z
M 52.203125 31.203125 
L 52.203125 0 
L 43.21875 0 
L 43.21875 8.296875 
Q 40.140625 3.328125 35.546875 0.953125 
Q 30.953125 -1.421875 24.3125 -1.421875 
Q 15.921875 -1.421875 10.953125 3.296875 
Q 6 8.015625 6 15.921875 
Q 6 25.140625 12.171875 29.828125 
Q 18.359375 34.515625 30.609375 34.515625 
L 43.21875 34.515625 
L 43.21875 35.40625 
Q 43.21875 41.609375 39.140625 45 
Q 35.0625 48.390625 27.6875 48.390625 
Q 23 48.390625 18.546875 47.265625 
Q 14.109375 46.140625 10.015625 43.890625 
L 10.015625 52.203125 
Q 14.9375 54.109375 19.578125 55.046875 
Q 24.21875 56 28.609375 56 
Q 40.484375 56 46.34375 49.84375 
Q 52.203125 43.703125 52.203125 31.203125 
z
" id="DejaVuSans-97"/>
       <path d="M 18.109375 8.203125 
L 18.109375 -20.796875 
L 9.078125 -20.796875 
L 9.078125 54.6875 
L 18.109375 54.6875 
L 18.109375 46.390625 
Q 20.953125 51.265625 25.265625 53.625 
Q 29.59375 56 35.59375 56 
Q 45.5625 56 51.78125 48.09375 
Q 58.015625 40.1875 58.015625 27.296875 
Q 58.015625 14.40625 51.78125 6.484375 
Q 45.5625 -1.421875 35.59375 -1.421875 
Q 29.59375 -1.421875 25.265625 0.953125 
Q 20.953125 3.328125 18.109375 8.203125 
z
M 48.6875 27.296875 
Q 48.6875 37.203125 44.609375 42.84375 
Q 40.53125 48.484375 33.40625 48.484375 
Q 26.265625 48.484375 22.1875 42.84375 
Q 18.109375 37.203125 18.109375 27.296875 
Q 18.109375 17.390625 22.1875 11.75 
Q 26.265625 6.109375 33.40625 6.109375 
Q 40.53125 6.109375 44.609375 11.75 
Q 48.6875 17.390625 48.6875 27.296875 
z
" id="DejaVuSans-112"/>
      </defs>
      <use xlink:href="#DejaVuSans-116"/>
      <use x="39.208984" xlink:href="#DejaVuSans-105"/>
      <use x="66.992188" xlink:href="#DejaVuSans-109"/>
      <use x="164.404297" xlink:href="#DejaVuSans-101"/>
      <use x="225.927734" xlink:href="#DejaVuSans-115"/>
      <use x="278.027344" xlink:href="#DejaVuSans-116"/>
      <use x="317.236328" xlink:href="#DejaVuSans-97"/>
      <use x="378.515625" xlink:href="#DejaVuSans-109"/>
      <use x="475.927734" xlink:href="#DejaVuSans-112"/>
     </g>
    </g>
   </g>
   <g id="matplotlib.axis_2">
    <g id="ytick_1">
     <g id="line2d_22">
      <defs>
       <path d="M 0 0 
L -3.5 0 
" id="ma33a3330ad" style="stroke:#000000;stroke-width:0.8;"/>
      </defs>
      <g>
       <use style="stroke:#000000;stroke-width:0.8;" x="108" xlink:href="#ma33a3330ad" y="411.740876"/>
      </g>
     </g>
     <g id="text_23">
      <!-- 12200 -->
      <g transform="translate(69.1875 415.540095)scale(0.1 -0.1)">
       <use xlink:href="#DejaVuSans-49"/>
       <use x="63.623047" xlink:href="#DejaVuSans-50"/>
       <use x="127.246094" xlink:href="#DejaVuSans-50"/>
       <use x="190.869141" xlink:href="#DejaVuSans-48"/>
       <use x="254.492188" xlink:href="#DejaVuSans-48"/>
      </g>
     </g>
    </g>
    <g id="ytick_2">
     <g id="line2d_23">
      <g>
       <use style="stroke:#000000;stroke-width:0.8;" x="108" xlink:href="#ma33a3330ad" y="357.115285"/>
      </g>
     </g>
     <g id="text_24">
      <!-- 12400 -->
      <g transform="translate(69.1875 360.914504)scale(0.1 -0.1)">
       <use xlink:href="#DejaVuSans-49"/>
       <use x="63.623047" xlink:href="#DejaVuSans-50"/>
       <use x="127.246094" xlink:href="#DejaVuSans-52"/>
       <use x="190.869141" xlink:href="#DejaVuSans-48"/>
       <use x="254.492188" xlink:href="#DejaVuSans-48"/>
      </g>
     </g>
    </g>
    <g id="ytick_3">
     <g id="line2d_24">
      <g>
       <use style="stroke:#000000;stroke-width:0.8;" x="108" xlink:href="#ma33a3330ad" y="302.489694"/>
      </g>
     </g>
     <g id="text_25">
      <!-- 12600 -->
      <g transform="translate(69.1875 306.288913)scale(0.1 -0.1)">
       <use xlink:href="#DejaVuSans-49"/>
       <use x="63.623047" xlink:href="#DejaVuSans-50"/>
       <use x="127.246094" xlink:href="#DejaVuSans-54"/>
       <use x="190.869141" xlink:href="#DejaVuSans-48"/>
       <use x="254.492188" xlink:href="#DejaVuSans-48"/>
      </g>
     </g>
    </g>
    <g id="ytick_4">
     <g id="line2d_25">
      <g>
       <use style="stroke:#000000;stroke-width:0.8;" x="108" xlink:href="#ma33a3330ad" y="247.864103"/>
      </g>
     </g>
     <g id="text_26">
      <!-- 12800 -->
      <g transform="translate(69.1875 251.663322)scale(0.1 -0.1)">
       <use xlink:href="#DejaVuSans-49"/>
       <use x="63.623047" xlink:href="#DejaVuSans-50"/>
       <use x="127.246094" xlink:href="#DejaVuSans-56"/>
       <use x="190.869141" xlink:href="#DejaVuSans-48"/>
       <use x="254.492188" xlink:href="#DejaVuSans-48"/>
      </g>
     </g>
    </g>
    <g id="ytick_5">
     <g id="line2d_26">
      <g>
       <use style="stroke:#000000;stroke-width:0.8;" x="108" xlink:href="#ma33a3330ad" y="193.238512"/>
      </g>
     </g>
     <g id="text_27">
      <!-- 13000 -->
      <g transform="translate(69.1875 197.037731)scale(0.1 -0.1)">
       <use xlink:href="#DejaVuSans-49"/>
       <use x="63.623047" xlink:href="#DejaVuSans-51"/>
       <use x="127.246094" xlink:href="#DejaVuSans-48"/>
       <use x="190.869141" xlink:href="#DejaVuSans-48"/>
       <use x="254.492188" xlink:href="#DejaVuSans-48"/>
      </g>
     </g>
    </g>
    <g id="ytick_6">
     <g id="line2d_27">
      <g>
       <use style="stroke:#000000;stroke-width:0.8;" x="108" xlink:href="#ma33a3330ad" y="138.612921"/>
      </g>
     </g>
     <g id="text_28">
      <!-- 13200 -->
      <g transform="translate(69.1875 142.41214)scale(0.1 -0.1)">
       <use xlink:href="#DejaVuSans-49"/>
       <use x="63.623047" xlink:href="#DejaVuSans-51"/>
       <use x="127.246094" xlink:href="#DejaVuSans-50"/>
       <use x="190.869141" xlink:href="#DejaVuSans-48"/>
       <use x="254.492188" xlink:href="#DejaVuSans-48"/>
      </g>
     </g>
    </g>
    <g id="ytick_7">
     <g id="line2d_28">
      <g>
       <use style="stroke:#000000;stroke-width:0.8;" x="108" xlink:href="#ma33a3330ad" y="83.98733"/>
      </g>
     </g>
     <g id="text_29">
      <!-- 13400 -->
      <g transform="translate(69.1875 87.786549)scale(0.1 -0.1)">
       <use xlink:href="#DejaVuSans-49"/>
       <use x="63.623047" xlink:href="#DejaVuSans-51"/>
       <use x="127.246094" xlink:href="#DejaVuSans-52"/>
       <use x="190.869141" xlink:href="#DejaVuSans-48"/>
       <use x="254.492188" xlink:href="#DejaVuSans-48"/>
      </g>
     </g>
    </g>
    <g id="text_30">
     <!-- MB -->
     <g transform="translate(63.52375 260.715625)rotate(-90)scale(0.08 -0.08)">
      <defs>
       <path d="M 9.8125 72.90625 
L 24.515625 72.90625 
L 43.109375 23.296875 
L 61.8125 72.90625 
L 76.515625 72.90625 
L 76.515625 0 
L 66.890625 0 
L 66.890625 64.015625 
L 48.09375 14.015625 
L 38.1875 14.015625 
L 19.390625 64.015625 
L 19.390625 0 
L 9.8125 0 
z
" id="DejaVuSans-77"/>
       <path d="M 19.671875 34.8125 
L 19.671875 8.109375 
L 35.5 8.109375 
Q 43.453125 8.109375 47.28125 11.40625 
Q 51.125 14.703125 51.125 21.484375 
Q 51.125 28.328125 47.28125 31.5625 
Q 43.453125 34.8125 35.5 34.8125 
z
M 19.671875 64.796875 
L 19.671875 42.828125 
L 34.28125 42.828125 
Q 41.5 42.828125 45.03125 45.53125 
Q 48.578125 48.25 48.578125 53.8125 
Q 48.578125 59.328125 45.03125 62.0625 
Q 41.5 64.796875 34.28125 64.796875 
z
M 9.8125 72.90625 
L 35.015625 72.90625 
Q 46.296875 72.90625 52.390625 68.21875 
Q 58.5 63.53125 58.5 54.890625 
Q 58.5 48.1875 55.375 44.234375 
Q 52.25 40.28125 46.1875 39.3125 
Q 53.46875 37.75 57.5 32.78125 
Q 61.53125 27.828125 61.53125 20.40625 
Q 61.53125 10.640625 54.890625 5.3125 
Q 48.25 0 35.984375 0 
L 9.8125 0 
z
" id="DejaVuSans-66"/>
      </defs>
      <use xlink:href="#DejaVuSans-77"/>
      <use x="86.279297" xlink:href="#DejaVuSans-66"/>
     </g>
    </g>
   </g>
   <g id="line2d_29">
    <path clip-path="url(#p23921f4ceb)" d="M 132.349091 80.171755 
L 132.678133 80.248947 
L 133.007174 78.12 
L 133.336216 78.250892 
L 133.665258 79.146996 
L 133.9943 79.604558 
L 134.323342 80.441369 
L 134.652383 79.896547 
L 134.981425 78.767746 
L 135.310467 78.952337 
L 135.639509 85.922038 
L 136.297592 126.095708 
L 136.955676 215.830328 
L 137.613759 260.710504 
L 138.271843 334.243647 
L 138.929926 374.953189 
L 139.258968 384.145811 
L 139.58801 386.370969 
L 139.917052 386.998578 
L 140.246093 386.026399 
L 140.575135 385.92012 
L 140.904177 385.408859 
L 141.233219 386.491792 
L 141.891302 386.195328 
L 142.220344 384.762232 
L 142.549386 386.136035 
L 142.878428 388.138566 
L 143.207469 387.862239 
L 143.536511 387.945025 
L 143.865553 386.664077 
L 144.194595 388.299663 
L 144.523636 388.093816 
L 144.852678 388.323156 
L 145.18172 391.14348 
L 145.839803 391.91988 
L 146.168845 387.575843 
L 146.497887 386.621565 
L 146.826929 386.799443 
L 147.155971 387.762672 
L 147.485012 387.368878 
L 147.814054 387.53445 
L 148.143096 387.043327 
L 148.472138 388.878048 
L 148.801179 388.573752 
L 149.130221 388.568159 
L 149.459263 387.436002 
L 149.788305 387.434883 
L 150.117346 387.616118 
L 150.77543 387.297279 
L 151.104472 386.144985 
L 151.433514 388.639758 
L 151.762555 388.512222 
L 152.091597 388.129616 
L 152.420639 386.884467 
L 153.078722 386.745744 
L 153.407764 386.885586 
L 154.065848 386.529829 
L 154.394889 388.564803 
L 154.723931 388.025574 
L 155.052973 388.026692 
L 155.382015 388.454048 
L 155.711057 387.623949 
L 156.36914 388.234777 
L 156.698182 388.238133 
L 157.027224 386.737913 
L 157.356265 388.446217 
L 157.685307 386.99634 
L 158.014349 386.809512 
L 158.343391 386.800562 
L 158.672432 386.178547 
L 159.001474 388.501035 
L 159.659558 388.680032 
L 159.9886 388.014386 
L 160.317641 387.750366 
L 160.646683 388.590533 
L 160.975725 387.883495 
L 161.304767 387.741416 
L 161.633808 385.776922 
L 161.96285 388.211283 
L 162.291892 388.12626 
L 162.620934 388.203452 
L 162.949975 387.208899 
L 163.279017 387.423696 
L 163.608059 388.31085 
L 163.937101 388.27617 
L 164.595184 386.877755 
L 164.924226 388.366787 
L 165.253268 389.06152 
L 165.58231 388.724781 
L 165.911351 387.482989 
L 166.240393 387.421458 
L 166.569435 389.133118 
L 167.227518 388.394755 
L 167.55656 387.400202 
L 167.885602 388.788549 
L 168.872727 386.604784 
L 169.201769 387.704498 
L 169.530811 388.309732 
L 169.859853 388.102766 
L 170.188894 387.609405 
L 170.517936 387.536688 
L 170.846978 388.836654 
L 171.17602 388.86686 
L 171.505061 389.08725 
L 171.834103 388.251558 
L 172.492187 388.370143 
L 172.821229 387.289448 
L 173.15027 387.584793 
L 173.479312 386.665195 
L 173.808354 388.730375 
L 174.137396 388.761699 
L 174.466437 387.571368 
L 174.795479 387.110451 
L 175.124521 387.849933 
L 175.453563 387.630661 
L 175.782604 387.810777 
L 176.111646 387.778334 
L 176.440688 386.359782 
L 176.76973 388.910491 
L 177.098771 389.129762 
L 177.427813 388.430555 
L 177.756855 386.811749 
L 178.085897 387.069058 
L 178.414939 387.881257 
L 178.74398 387.933838 
L 179.073022 387.821964 
L 179.402064 387.109332 
L 179.731106 388.967546 
L 180.060147 389.135356 
L 180.389189 388.730375 
L 180.718231 388.093816 
L 181.047273 387.108213 
L 181.376314 388.120666 
L 182.034398 388.318681 
L 182.36344 388.041236 
L 182.692482 389.03467 
L 183.021523 389.258416 
L 183.350565 389.071588 
L 183.679607 387.193237 
L 184.008649 387.237986 
L 184.33769 388.296307 
L 184.666732 388.25827 
L 184.995774 387.978587 
L 185.324816 387.279379 
L 185.653857 389.172274 
L 185.982899 389.363577 
L 186.640983 388.075917 
L 186.970025 388.996633 
L 187.299066 393.960447 
L 187.628108 393.785925 
L 187.95715 393.794875 
L 188.286192 393.299277 
L 188.615233 389.012295 
L 188.944275 394.09022 
L 189.273317 393.281377 
L 189.602359 391.881843 
L 190.260442 393.489461 
L 190.589484 396.45522 
L 190.918526 396.426133 
L 191.247568 395.676583 
L 191.576609 397.512422 
L 191.905651 394.321798 
L 192.234693 394.224468 
L 192.563735 393.530854 
L 192.892776 393.309345 
L 193.221818 394.282642 
L 193.55086 393.930242 
L 193.879902 393.996247 
L 194.208943 393.100143 
L 194.537985 393.641609 
L 194.867027 393.903392 
L 195.525111 392.678381 
L 195.854152 394.000722 
L 196.183194 394.699929 
L 196.512236 394.376616 
L 196.841278 392.614613 
L 197.170319 392.179426 
L 197.499361 393.605809 
L 197.828403 393.712089 
L 198.157445 393.348501 
L 198.486486 392.249906 
L 198.815528 394.658536 
L 199.14457 395.264889 
L 199.473612 394.727898 
L 199.802654 394.552257 
L 200.131695 394.24908 
L 200.460737 395.329776 
L 200.789779 395.489754 
L 201.118821 395.391306 
L 201.447862 394.839771 
L 201.776904 394.767053 
L 202.105946 395.637427 
L 203.093071 394.315086 
L 203.422113 393.383182 
L 203.751155 393.399963 
L 204.080197 393.02295 
L 204.409238 391.838213 
L 204.73828 393.509598 
L 205.067322 394.555613 
L 205.396364 394.820752 
L 206.054447 393.663983 
L 206.383489 395.032193 
L 206.712531 394.835296 
L 207.041572 394.161819 
L 207.370614 392.81151 
L 207.699656 395.064636 
L 208.028698 395.309638 
L 208.686781 393.770263 
L 209.015823 393.634896 
L 209.344865 394.503033 
L 210.002948 393.176216 
L 210.33199 392.999457 
L 210.661032 395.46738 
L 211.319115 395.693364 
L 211.648157 394.546663 
L 211.977199 392.686212 
L 212.306241 394.385566 
L 212.635283 394.320679 
L 213.293366 393.511836 
L 213.622408 395.627358 
L 213.95145 395.949553 
L 214.938575 393.698664 
L 215.267617 393.548754 
L 215.596658 393.559941 
L 215.9257 392.501621 
L 216.254742 392.947995 
L 216.583784 394.665249 
L 216.912826 394.958357 
L 217.241867 394.600362 
L 217.570909 393.374232 
L 217.899951 393.827318 
L 218.228993 395.534504 
L 218.558034 395.472973 
L 218.887076 394.481777 
L 219.216118 394.083508 
L 219.54516 394.160701 
L 219.874201 394.371022 
L 220.203243 393.759076 
L 220.532285 393.470443 
L 220.861327 393.58791 
L 221.190369 394.733491 
L 221.51941 394.616025 
L 221.848452 394.69098 
L 222.177494 394.029809 
L 222.506536 395.083655 
L 222.835577 395.50206 
L 223.164619 395.522198 
L 223.493661 393.652796 
L 223.822703 394.353122 
L 224.151744 394.460521 
L 224.809828 394.297186 
L 225.13887 393.219847 
L 225.467912 395.627358 
L 225.796953 395.394662 
L 226.125995 395.495348 
L 226.784079 393.97611 
L 227.11312 394.642874 
L 227.771204 395.150778 
L 228.100246 394.105883 
L 228.429287 394.560088 
L 228.758329 394.09917 
L 229.087371 394.150632 
L 229.416413 396.760634 
L 229.745455 398.236242 
L 230.074496 399.101022 
L 230.403538 398.746383 
L 230.73258 395.922704 
L 231.061622 395.289501 
L 231.390663 395.611696 
L 231.719705 395.494229 
L 232.048747 394.070083 
L 232.377789 393.328364 
L 232.70683 394.027571 
L 233.035872 396.350059 
L 233.364914 396.38474 
L 234.022998 394.620499 
L 234.352039 395.575897 
L 234.681081 395.280551 
L 235.010123 394.574631 
L 235.339165 394.358716 
L 235.668206 394.292711 
L 235.997248 395.43158 
L 236.32629 395.490873 
L 236.655332 395.83768 
L 236.984373 394.476183 
L 237.313415 398.44097 
L 237.971499 398.518162 
L 238.300541 397.770849 
L 238.629582 396.266154 
L 239.287666 396.68456 
L 239.616708 394.253555 
L 239.945749 393.923529 
L 240.274791 393.823962 
L 240.932875 394.244605 
L 241.261916 393.219847 
L 241.590958 394.133851 
L 241.92 396.09387 
L 242.249042 394.777122 
L 242.578084 394.971781 
L 242.907125 394.074558 
L 243.236167 395.270483 
L 243.894251 395.093723 
L 244.223292 394.358716 
L 244.552334 394.934863 
L 244.881376 396.180012 
L 245.539459 396.335516 
L 245.868501 395.432699 
L 246.526585 396.051358 
L 246.855627 394.215518 
L 247.184668 393.953735 
L 247.51371 394.744679 
L 247.842752 396.192318 
L 248.171794 396.086038 
L 248.500835 395.801881 
L 248.829877 394.92032 
L 249.158919 395.946197 
L 249.487961 395.377881 
L 249.817002 395.395781 
L 250.146044 394.572394 
L 250.475086 394.873333 
L 250.804128 396.644286 
L 251.13317 395.656445 
L 251.462211 395.428224 
L 251.791253 394.516457 
L 252.120295 396.945225 
L 253.10742 393.407794 
L 253.436462 393.939192 
L 253.765504 395.085892 
L 254.094545 394.624974 
L 254.423587 394.958357 
L 254.752629 393.732226 
L 255.410713 395.664276 
L 255.739754 395.638546 
L 256.068796 393.71992 
L 256.397838 393.928004 
L 257.055921 394.590294 
L 257.384963 394.381091 
L 257.714005 393.663983 
L 258.043047 396.757278 
L 258.372088 395.448361 
L 258.70113 394.746916 
L 259.030172 393.648321 
L 259.359214 393.691952 
L 259.688256 394.778241 
L 260.017297 394.171888 
L 260.346339 394.114833 
L 260.675381 393.484986 
L 261.004423 395.622883 
L 261.333464 395.130641 
L 261.662506 395.37005 
L 261.991548 394.817396 
L 262.32059 394.812921 
L 262.649631 396.397046 
L 262.978673 396.270629 
L 263.307715 396.356772 
L 263.636757 395.399137 
L 263.965799 397.252876 
L 264.29484 395.197765 
L 264.623882 395.074705 
L 264.952924 394.008553 
L 265.281966 394.009672 
L 265.611007 395.683295 
L 265.940049 395.447242 
L 266.269091 394.683148 
L 266.598133 393.544279 
L 266.927174 394.044352 
L 267.256216 395.433818 
L 267.585258 395.446124 
L 268.243342 393.87878 
L 268.572383 396.237067 
L 268.901425 396.092751 
L 269.230467 395.588203 
L 269.559509 394.648468 
L 269.88855 395.93501 
L 270.217592 395.409206 
L 270.546634 395.349913 
L 270.875676 394.35536 
L 271.204717 395.126166 
L 271.533759 396.238186 
L 271.862801 400.100049 
L 272.191843 400.352883 
L 272.520885 399.398604 
L 272.849926 397.416211 
L 273.178968 396.168825 
L 273.50801 396.240424 
L 273.837052 395.457311 
L 274.166093 394.162938 
L 274.495135 395.841036 
L 274.824177 396.223643 
L 275.153219 404.11406 
L 275.48226 403.069164 
L 275.811302 404.446324 
L 276.140344 404.598471 
L 276.469386 401.792691 
L 276.798428 401.940364 
L 277.127469 400.474825 
L 277.456511 402.048881 
L 277.785553 402.279339 
L 278.443636 400.713114 
L 278.772678 403.184394 
L 279.10172 401.340723 
L 279.430762 401.439172 
L 279.759803 400.709758 
L 280.088845 398.879513 
L 280.417887 400.794782 
L 280.746929 400.305896 
L 281.075971 400.243247 
L 281.405012 399.255407 
L 281.734054 402.149566 
L 282.063096 401.150539 
L 282.392138 401.000629 
L 282.721179 399.888609 
L 283.050221 399.183808 
L 283.379263 401.686411 
L 283.708305 401.562232 
L 284.037346 401.640543 
L 284.366388 400.718708 
L 284.69543 403.123982 
L 285.024472 403.657617 
L 285.353514 402.110411 
L 285.682555 402.096986 
L 286.011597 400.555373 
L 286.340639 401.304924 
L 286.669681 400.778001 
L 286.998722 400.908893 
L 287.327764 398.945518 
L 287.656806 400.710877 
L 287.985848 401.301568 
L 288.314889 401.364217 
L 288.643931 400.680671 
L 288.972973 399.60557 
L 289.302015 400.243247 
L 289.631057 400.619141 
L 290.28914 399.617876 
L 290.947224 401.664037 
L 291.276265 401.439172 
L 291.605307 401.576776 
L 291.934349 400.795901 
L 292.263391 400.309252 
L 292.592432 400.213041 
L 292.921474 400.706402 
L 293.250516 399.944546 
L 293.579558 402.156279 
L 294.237641 401.310517 
L 294.566683 400.026213 
L 294.895725 400.02845 
L 295.224767 401.631594 
L 295.553808 401.092365 
L 295.88285 401.31723 
L 296.211892 399.714087 
L 296.540934 402.975191 
L 297.199017 402.244659 
L 297.528059 401.454834 
L 297.857101 401.439172 
L 298.186143 402.526579 
L 298.844226 402.715645 
L 299.173268 402.000775 
L 299.50231 402.648521 
L 299.831351 402.911423 
L 300.489435 401.026359 
L 300.818477 404.882629 
L 301.147518 406.641276 
L 301.47656 406.467872 
L 302.134644 404.65217 
L 302.463686 406.736368 
L 302.792727 405.904031 
L 303.121769 405.857045 
L 303.450811 404.995621 
L 303.779853 404.974365 
L 304.108894 406.303419 
L 304.437936 405.958849 
L 304.766978 405.830195 
L 305.09602 405.086238 
L 305.425061 406.265382 
L 306.083145 406.594289 
L 306.412187 405.844739 
L 306.741229 405.386058 
L 307.07027 405.61428 
L 307.399312 406.08191 
L 307.728354 405.130988 
L 308.057396 404.866967 
L 308.386437 407.249866 
L 309.044521 406.93774 
L 309.373563 404.856898 
L 309.702604 405.236148 
L 310.031646 406.614426 
L 310.360688 406.719587 
L 310.68973 406.584221 
L 311.018771 405.868232 
L 311.347813 406.227345 
L 311.676855 407.313634 
L 312.005897 407.489275 
L 312.66398 406.267619 
L 312.993022 406.391799 
L 313.651106 406.803492 
L 313.980147 409.160661 
L 314.309189 410.656405 
L 314.638231 410.896933 
L 314.967273 410.957344 
L 315.296314 407.065275 
L 315.625356 405.890607 
L 315.954398 407.437813 
L 316.28344 406.586458 
L 316.612482 406.429836 
L 316.941523 405.531494 
L 317.270565 407.707428 
L 317.599607 407.047376 
L 317.928649 406.793423 
L 318.25769 405.830195 
L 318.586732 405.356971 
L 318.915774 406.364949 
L 319.244816 406.3023 
L 319.573857 406.502553 
L 319.902899 405.845857 
L 320.231941 407.013814 
L 320.560983 412.013427 
L 320.890025 411.966441 
L 321.548108 409.973979 
L 322.206192 410.576975 
L 322.535233 409.571235 
L 322.864275 409.077874 
L 323.193317 410.490833 
L 323.522359 410.496427 
L 323.8514 410.631793 
L 324.180442 409.609272 
L 324.509484 409.433631 
L 324.838526 410.764922 
L 325.167568 410.817503 
L 325.496609 411.289608 
L 325.825651 410.261493 
L 326.154693 411.480911 
L 326.483735 411.602853 
L 326.812776 411.899317 
L 327.141818 410.872321 
L 327.47086 410.873439 
L 327.799902 410.636268 
L 328.128943 410.867846 
L 328.457985 410.655287 
L 328.787027 409.645072 
L 329.116069 411.036774 
L 329.445111 410.666474 
L 330.103194 408.921252 
L 331.090319 410.493071 
L 331.419361 410.197725 
L 331.748403 409.519774 
L 332.077445 411.282895 
L 332.406486 412.071602 
L 332.735528 411.809818 
L 333.06457 410.754854 
L 333.393612 411.615159 
L 333.722654 411.948541 
L 334.051695 411.977628 
L 334.380737 411.471961 
L 334.709779 410.478527 
L 335.038821 412.920719 
L 335.367862 412.865901 
L 335.696904 412.42624 
L 336.025946 411.602853 
L 336.354988 412.483295 
L 337.013071 410.804078 
L 337.342113 409.695415 
L 337.671155 409.460481 
L 338.000197 411.618515 
L 338.65828 411.394769 
L 339.316364 410.205556 
L 339.645405 411.677808 
L 339.974447 411.634177 
L 340.303489 410.598231 
L 340.632531 410.481883 
L 340.961572 412.752909 
L 341.290614 412.909532 
L 341.619656 412.404984 
L 341.948698 411.615159 
L 342.27774 411.806462 
L 342.606781 412.210324 
L 342.935823 412.25843 
L 343.264865 410.37001 
L 343.593907 410.318548 
L 343.922948 412.387084 
L 344.25199 412.742841 
L 344.910074 411.912742 
L 345.239115 410.549007 
L 345.568157 411.84338 
L 345.897199 411.412668 
L 346.226241 411.821006 
L 346.555283 410.91707 
L 346.884324 412.566081 
L 347.542408 412.270736 
L 347.87145 411.513354 
L 348.200491 411.983222 
L 348.529533 412.111876 
L 348.858575 412.47882 
L 349.516658 410.799603 
L 349.8457 412.571675 
L 350.174742 412.839052 
L 350.503784 412.166694 
L 350.832826 410.789535 
L 351.161867 411.692351 
L 351.490909 413.48456 
L 351.819951 412.564962 
L 352.148993 412.342335 
L 352.478034 411.735982 
L 352.807076 412.006715 
L 353.136118 411.646483 
L 353.46516 411.612921 
L 353.794201 410.804078 
L 354.123243 410.968532 
L 354.452285 412.140963 
L 354.781327 411.365682 
L 355.110369 411.485386 
L 355.43941 410.486358 
L 355.768452 412.345691 
L 356.097494 412.768572 
L 356.426536 414.294522 
L 356.755577 414.147968 
L 357.084619 414.959049 
L 357.413661 412.882682 
L 357.742703 411.884773 
L 358.071744 412.459802 
L 358.400786 411.819887 
L 358.729828 412.739485 
L 359.387912 412.579506 
L 359.716953 416.015132 
L 360.045995 415.030648 
L 360.375037 416.875437 
L 360.704079 413.477848 
L 361.03312 413.513647 
L 361.362162 412.416171 
L 361.691204 413.738512 
L 362.020246 413.054967 
L 362.349287 412.813321 
L 362.678329 412.156625 
L 363.007371 412.30206 
L 363.336413 413.188096 
L 363.665455 412.172287 
L 363.994496 412.199137 
L 364.323538 411.276183 
L 364.65258 412.871495 
L 364.981622 413.3436 
L 365.310663 413.3615 
L 365.968747 412.221512 
L 366.297789 414.536168 
L 366.62683 413.259695 
L 366.955872 413.113141 
L 367.284914 412.242768 
L 367.613956 412.076076 
L 367.942998 412.359116 
L 368.272039 412.181237 
L 368.601081 415.989401 
L 368.930123 416.497306 
L 369.259165 418.942854 
L 369.917248 418.722464 
L 370.24629 417.708893 
L 370.575332 418.234697 
L 370.904373 418.244765 
L 371.562457 416.171755 
L 372.220541 418.560248 
L 372.549582 418.293989 
L 372.878624 418.588216 
L 373.207666 417.360967 
L 373.536708 418.848881 
L 373.865749 419.055846 
L 374.194791 418.924954 
L 374.523833 417.611563 
L 375.181916 420.153322 
L 375.510958 420.26967 
L 376.169042 418.32867 
L 376.498084 418.241409 
L 376.827125 418.403625 
L 377.156167 418.122823 
L 377.485209 416.612535 
L 377.814251 417.192038 
L 378.143292 418.521092 
L 378.472334 418.166454 
L 379.130418 416.919068 
L 379.459459 418.809725 
L 379.788501 418.749313 
L 380.117543 417.713368 
L 380.446585 417.458297 
L 380.775627 417.484027 
L 381.104668 418.615066 
L 381.43371 418.698971 
L 381.762752 418.436068 
L 382.091794 417.030941 
L 382.420835 418.382369 
L 382.749877 418.340976 
L 383.078919 417.952776 
L 383.407961 416.694203 
L 383.737002 416.006182 
L 384.066044 417.733505 
L 384.395086 416.924661 
L 384.724128 417.02311 
L 385.05317 416.314952 
L 385.382211 418.296227 
L 385.711253 418.068006 
L 386.040295 418.062412 
L 386.369337 417.021991 
L 386.698378 417.259162 
L 387.02742 418.783994 
L 387.356462 419.024522 
L 387.685504 419.005503 
L 388.014545 417.753642 
L 388.343587 418.16086 
L 388.672629 418.219034 
L 389.001671 417.679806 
L 389.330713 416.76692 
L 389.659754 416.631554 
L 389.988796 418.714633 
L 390.317838 418.068006 
L 390.64688 418.060174 
L 390.975921 416.858656 
L 391.304963 418.678833 
L 391.634005 418.230222 
L 391.963047 418.088143 
L 392.292088 417.092471 
L 392.62113 417.218888 
L 392.950172 417.796154 
L 393.608256 417.619394 
L 393.937297 416.688609 
L 394.266339 422.910997 
L 394.595381 423.305909 
L 394.924423 421.642355 
L 395.253464 421.684866 
L 395.582506 422.342681 
L 395.911548 422.56419 
L 396.24059 421.927631 
L 396.569631 421.816877 
L 396.898673 421.174725 
L 397.227715 423.912262 
L 397.556757 423.377508 
L 397.885799 423.442395 
L 398.21484 422.771155 
L 398.543882 426.024428 
L 398.872924 427.163298 
L 399.201966 427.084986 
L 399.531007 427.318801 
L 399.860049 423.27906 
L 400.189091 424.533158 
L 400.518133 424.231101 
L 401.176216 422.755493 
L 401.505258 422.727525 
L 401.8343 427.112955 
L 402.163342 426.181051 
L 402.492383 426.239225 
L 402.821425 425.830888 
L 403.150467 424.84081 
L 403.479509 424.683069 
L 403.80855 424.750192 
L 404.137592 423.255566 
L 404.466634 423.009445 
L 404.795676 422.550765 
L 405.124717 422.778986 
L 405.453759 422.78458 
L 405.782801 421.208287 
L 406.111843 422.720812 
L 406.440885 422.670469 
L 406.769926 422.739831 
L 407.42801 422.084254 
L 407.757052 422.614533 
L 408.086093 422.707388 
L 408.415135 420.860361 
L 408.744177 420.987896 
L 409.073219 422.404211 
L 409.40226 423.016158 
L 409.731302 422.966933 
L 410.060344 421.838133 
L 410.389386 422.062998 
L 410.718428 423.885413 
L 411.047469 423.348421 
L 411.376511 423.376389 
L 411.705553 422.492591 
L 412.034595 423.866394 
L 412.363636 423.71089 
L 412.692678 423.94023 
L 413.02172 423.292485 
L 413.350762 421.492445 
L 413.679803 423.329403 
L 414.337887 423.036295 
L 414.666929 422.196127 
L 414.995971 423.895481 
L 415.325012 423.752283 
L 415.654054 423.73774 
L 415.983096 421.557331 
L 416.312138 421.784434 
L 416.641179 423.19963 
L 417.299263 422.886385 
L 417.628305 422.073067 
L 417.957346 422.360581 
L 418.286388 423.025108 
L 418.61543 422.795767 
L 418.944472 422.82038 
L 419.273514 421.894069 
L 419.602555 424.537633 
L 419.931597 424.306056 
L 420.260639 424.424641 
L 420.918722 422.50266 
L 421.247764 422.49371 
L 421.576806 422.235283 
L 421.905848 421.710597 
L 422.234889 420.655633 
L 422.563931 421.665848 
L 422.892973 421.228424 
L 423.222015 421.321279 
L 423.551057 421.137806 
L 423.880098 421.590893 
L 424.20914 423.235429 
L 424.538182 422.61677 
L 424.867224 422.624601 
L 425.196265 421.366028 
L 425.525307 423.980505 
L 426.183391 423.218648 
L 426.512432 422.122291 
L 427.170516 423.600136 
L 427.499558 423.160474 
L 427.8286 420.664583 
L 428.157641 419.326579 
L 428.486683 422.344918 
L 428.815725 421.80569 
L 429.144767 422.103272 
L 429.473808 420.919654 
L 429.80285 421.653542 
L 430.131892 420.953216 
L 430.460934 421.025933 
L 430.789975 421.239611 
L 431.119017 420.394968 
L 431.448059 421.839252 
L 431.777101 421.806808 
L 432.106143 421.970143 
L 432.435184 420.761912 
L 432.764226 420.90511 
L 433.093268 421.530481 
L 433.42231 421.52265 
L 434.080393 420.850292 
L 434.409435 422.557478 
L 434.738477 422.565309 
L 435.067518 420.969997 
L 435.39656 420.84358 
L 435.725602 420.274145 
L 436.054644 421.892951 
L 436.383686 421.677035 
L 437.041769 420.457617 
L 437.370811 422.37848 
L 438.028894 421.062851 
L 438.357936 420.503485 
L 438.686978 421.234017 
L 439.01602 422.384074 
L 439.345061 422.443367 
L 439.674103 422.215146 
L 440.003145 421.314566 
L 440.332187 421.739684 
L 440.661229 421.495801 
L 440.99027 424.944852 
L 441.319312 423.71984 
L 441.648354 423.621392 
L 441.977396 420.616477 
L 442.635479 420.797712 
L 442.964521 419.606262 
L 443.293563 422.038386 
L 443.622604 420.881617 
L 443.951646 420.972234 
L 444.280688 422.735356 
L 444.60973 423.690753 
L 444.938771 424.137127 
L 445.267813 424.254594 
L 445.596855 421.261986 
L 445.925897 420.538166 
L 446.254939 422.057404 
L 447.571106 419.328817 
L 447.900147 420.794356 
L 448.229189 420.381544 
L 448.558231 420.532572 
L 448.887273 419.378041 
L 449.216314 419.946357 
L 449.545356 419.963138 
L 450.20344 418.440543 
L 450.532482 418.834337 
L 450.861523 419.671149 
L 451.519607 418.471868 
L 451.848649 417.803985 
L 452.17769 419.072627 
L 452.506732 418.7963 
L 452.835774 418.99096 
L 453.164816 417.500808 
L 453.493857 418.366707 
L 453.822899 420.760794 
L 454.151941 419.546969 
L 454.480983 419.380278 
L 454.810025 418.632965 
L 455.139066 419.521239 
L 455.468108 419.843433 
L 455.79715 419.631993 
L 456.126192 418.59381 
L 456.455233 418.424881 
L 456.784275 419.711423 
L 457.113317 419.535782 
L 457.442359 419.526832 
L 457.7714 418.582622 
L 458.100442 419.294136 
L 458.758526 419.313154 
L 459.087568 418.164217 
L 459.745651 419.475371 
L 460.074693 418.415931 
L 460.403735 417.770423 
L 460.732776 417.906908 
L 461.061818 419.089408 
L 461.39086 419.332173 
L 461.719902 419.270643 
L 462.048943 418.034444 
L 462.377985 418.368945 
L 462.707027 419.14982 
L 463.036069 418.400269 
L 463.365111 418.361113 
L 463.694152 416.794888 
L 464.023194 422.099916 
L 464.352236 422.476929 
L 465.010319 421.534956 
L 465.339361 421.69046 
L 465.668403 423.170543 
L 465.997445 422.503778 
L 466.326486 423.224242 
L 466.655528 421.69046 
L 466.98457 422.885266 
L 467.313612 422.362818 
L 467.642654 422.539578 
L 467.971695 421.387284 
L 468.300737 421.239611 
L 468.629779 421.896307 
L 468.958821 421.383928 
L 469.287862 421.283242 
L 469.616904 418.935023 
L 469.945946 422.262132 
L 470.274988 422.275557 
L 470.604029 422.075304 
L 470.933071 424.671881 
L 471.591155 426.459615 
L 471.920197 425.096999 
L 472.249238 424.771448 
L 472.57828 423.056432 
L 472.907322 426.140776 
L 473.236364 424.809485 
L 473.565405 424.240051 
L 473.894447 423.394289 
L 474.223489 423.509519 
L 474.552531 424.423523 
L 474.881572 424.491765 
L 475.210614 424.384367 
L 475.539656 424.131534 
L 475.868698 425.000788 
L 476.19774 425.515405 
L 476.855823 424.599164 
L 477.184865 425.150699 
L 477.513907 424.687543 
L 477.842948 425.027638 
L 478.17199 424.778161 
L 478.501032 424.303818 
L 478.830074 425.98751 
L 479.159115 425.648534 
L 479.488157 423.8787 
L 480.146241 423.565455 
L 480.475283 424.6909 
L 480.804324 424.525327 
L 481.133366 424.564483 
L 481.462408 423.600136 
L 481.79145 426.175457 
L 482.449533 424.846403 
L 482.778575 423.610204 
L 483.107617 427.457524 
L 483.436658 427.751751 
L 483.7657 427.139804 
L 484.094742 430.92 
L 484.423784 427.322158 
L 484.752826 429.613321 
L 485.081867 426.443953 
L 485.739951 423.464769 
L 486.398034 426.493177 
L 487.056118 426.223563 
L 487.38516 425.019807 
L 487.714201 428.28203 
L 488.043243 426.470802 
L 488.372285 426.289568 
L 488.701327 425.066794 
L 489.030369 425.708946 
L 489.35941 426.753842 
L 489.688452 426.550232 
L 490.017494 426.555826 
L 490.346536 425.71454 
L 490.675577 426.28733 
L 491.004619 426.290687 
L 491.333661 426.101621 
L 491.662703 424.684187 
L 491.991744 425.940523 
L 492.320786 424.933665 
L 492.649828 424.724462 
L 492.97887 423.12915 
L 493.307912 423.31374 
L 493.636953 424.49624 
L 493.965995 424.255713 
L 494.295037 424.494003 
L 494.624079 423.228717 
L 495.282162 424.235576 
L 495.611204 424.190826 
L 495.940246 424.354161 
L 496.269287 422.963577 
L 496.598329 425.143986 
L 497.585455 423.898837 
L 498.243538 424.344093 
L 498.57258 424.411217 
L 498.901622 424.227745 
L 499.230663 423.577761 
L 499.559705 423.990573 
L 499.888747 423.929043 
L 500.217789 424.132652 
L 500.54683 423.182849 
L 500.875872 424.029729 
L 501.204914 424.556652 
L 501.533956 424.758024 
L 501.862998 423.712009 
L 502.192039 423.501687 
L 502.521081 423.695228 
L 502.850123 424.025254 
L 503.508206 423.267872 
L 504.16629 425.779426 
L 504.495332 425.163005 
L 504.824373 424.885559 
L 505.153415 424.139365 
L 505.482457 425.508693 
L 505.811499 425.591479 
L 506.140541 424.982889 
L 506.469582 423.840663 
L 507.127666 424.283681 
L 507.456708 423.450226 
L 507.785749 423.389814 
L 508.114791 422.593277 
L 508.443833 421.145638 
L 508.772875 420.804424 
L 509.101916 419.923982 
L 509.430958 419.783022 
L 510.089042 421.618861 
L 510.418084 421.822471 
L 510.747125 421.892951 
L 511.076167 421.041596 
L 511.734251 422.339325 
L 512.063292 422.268845 
L 512.392334 421.118788 
L 512.721376 421.481257 
L 513.050418 423.28801 
L 513.379459 422.80248 
L 513.708501 421.994755 
L 514.037543 420.771981 
L 514.366585 421.1613 
L 514.695627 421.115432 
L 515.024668 420.514673 
L 515.35371 419.611856 
L 515.682752 420.457617 
L 516.011794 422.354987 
L 516.340835 421.691579 
L 516.669877 422.129003 
L 516.998919 420.678008 
L 517.657002 419.488795 
L 517.986044 419.544732 
L 518.315086 418.608353 
L 518.97317 421.008034 
L 519.631253 421.255273 
L 519.960295 419.483202 
L 520.289337 420.886092 
L 520.618378 421.166894 
L 520.94742 421.051664 
L 521.276462 419.901608 
L 521.605504 420.154441 
L 521.934545 420.939791 
L 522.263587 419.717017 
L 522.592629 418.989841 
L 522.921671 418.738126 
L 523.250713 419.525714 
L 523.908796 419.729323 
L 524.56688 419.478727 
L 524.895921 421.570756 
L 525.224963 420.65787 
L 525.554005 424.226626 
L 525.883047 422.78458 
L 526.212088 424.558889 
L 526.54113 421.48797 
L 526.870172 421.221711 
L 527.199214 420.184647 
L 527.528256 420.35805 
L 527.857297 419.615212 
L 528.186339 416.438013 
L 528.515381 419.597312 
L 528.844423 418.620659 
L 529.173464 422.095441 
L 529.502506 421.307854 
L 529.831548 417.714486 
L 530.16059 416.751258 
L 530.489631 417.284893 
L 530.818673 418.457324 
L 531.147715 418.242528 
L 531.476757 418.396913 
L 531.805799 416.856419 
L 532.13484 418.592691 
L 532.463882 417.94942 
L 532.792924 418.159742 
L 533.121966 416.735596 
L 533.451007 417.085759 
L 533.780049 418.277208 
L 534.438133 417.863278 
L 534.767174 416.658403 
L 535.096216 416.754614 
L 535.425258 416.172873 
L 535.7543 415.235376 
L 536.083342 415.139165 
L 536.412383 414.069657 
L 536.741425 416.292578 
L 537.070467 416.386551 
L 537.399509 416.685253 
L 537.72855 414.604411 
L 538.057592 417.147289 
L 538.386634 417.297199 
L 539.044717 415.061972 
L 539.373759 415.469191 
L 539.702801 417.460534 
L 540.031843 415.939058 
L 540.360885 415.576589 
L 540.689926 414.761033 
L 541.018968 416.050932 
L 541.34801 415.166015 
L 541.677052 415.079872 
L 542.006093 414.134544 
L 542.335135 414.545118 
L 542.664177 414.237467 
L 542.993219 414.180412 
L 543.32226 414.33144 
L 543.651302 413.186977 
L 543.980344 415.707481 
L 544.309386 416.217623 
L 544.638428 416.175111 
L 544.967469 414.784527 
L 545.296511 414.652516 
L 545.625553 416.294815 
L 545.954595 415.453529 
L 546.283636 415.104484 
L 546.612678 414.464569 
L 546.94172 420.479992 
L 547.270762 420.59634 
L 547.599803 420.463211 
L 547.928845 419.653249 
L 548.257887 419.395941 
L 548.586929 420.495654 
L 548.915971 419.539138 
L 549.245012 419.92622 
L 549.574054 419.486558 
L 549.903096 420.532572 
L 550.232138 420.500129 
L 550.561179 420.23499 
L 550.890221 419.212469 
L 551.219263 418.818675 
L 551.877346 416.782582 
L 552.206388 416.509612 
L 552.53543 415.606795 
L 552.864472 419.442927 
L 553.193514 419.435096 
L 553.522555 419.06144 
L 553.851597 417.143933 
L 554.180639 417.57017 
L 554.509681 418.48753 
L 554.838722 418.516617 
L 555.167764 416.776989 
L 555.496806 416.679659 
L 555.825848 418.316364 
L 556.154889 418.517736 
L 556.483931 416.304884 
L 556.812973 416.120293 
L 557.142015 416.549886 
L 557.471057 417.732386 
L 557.800098 418.102686 
L 558.12914 418.038919 
L 558.458182 416.022963 
L 558.787224 417.581357 
L 559.116265 414.96688 
L 559.445307 414.936674 
L 559.774349 413.367093 
L 560.103391 414.245298 
L 560.432432 415.991639 
L 560.761474 415.465835 
L 561.419558 414.756559 
L 561.7486 415.426679 
L 562.077641 414.500369 
L 562.406683 413.963378 
L 562.735725 412.972181 
L 563.393808 415.204051 
L 563.72285 415.224189 
L 564.051892 415.12574 
L 564.380934 413.20264 
L 564.709975 414.777814 
L 565.039017 414.828157 
L 565.368059 414.629023 
L 565.697101 412.947569 
L 566.026143 414.26991 
L 566.355184 418.813081 
L 567.013268 418.421525 
L 567.34231 417.430328 
L 567.671351 418.645271 
L 568.000393 418.710158 
L 568.329435 418.24924 
L 568.658477 414.052876 
L 568.987518 414.073013 
L 569.31656 414.264316 
L 569.645602 413.894016 
L 570.303686 412.441902 
L 570.632727 413.492391 
L 570.961769 413.55504 
L 571.619853 413.391705 
L 571.948894 412.570556 
L 572.277936 414.202786 
L 572.606978 414.038333 
L 572.93602 413.600908 
L 573.265061 412.683548 
L 573.923145 415.294669 
L 574.252187 415.035123 
L 574.581229 415.067566 
L 574.91027 413.849267 
L 575.239312 413.392824 
L 575.568354 412.569437 
L 575.897396 412.061533 
L 576.226437 411.033418 
L 576.555479 411.827718 
L 576.884521 411.416025 
L 577.213563 411.551391 
L 577.542604 410.271562 
L 577.871646 409.961673 
L 578.200688 410.809672 
L 578.52973 410.5725 
L 578.858771 410.873439 
L 579.187813 410.306242 
L 579.516855 412.765215 
L 579.845897 412.865901 
L 580.174939 413.223896 
L 580.50398 413.119853 
L 580.833022 411.345544 
L 581.162064 410.512089 
L 581.491106 410.911476 
L 581.820147 410.770516 
L 582.149189 409.439225 
L 582.478231 411.48203 
L 582.807273 410.383435 
L 583.136314 410.295055 
L 583.465356 409.535436 
L 584.12344 410.047815 
L 584.452482 409.698771 
L 584.781523 409.701008 
L 585.110565 408.602413 
L 585.439607 410.141789 
L 585.768649 409.648428 
L 586.09769 409.639478 
L 586.426732 409.481737 
L 586.755774 408.394329 
L 587.084816 410.659762 
L 587.742899 411.197872 
L 588.071941 409.129336 
L 588.400983 410.983075 
L 588.730025 411.865755 
L 589.388108 409.410138 
L 589.71715 406.844885 
L 590.046192 409.155067 
L 590.704275 409.179679 
L 591.033317 408.236588 
L 591.362359 408.546477 
L 591.6914 408.522983 
L 592.020442 408.784767 
L 592.349484 408.751205 
L 592.678526 407.330415 
L 593.007568 409.753589 
L 593.665651 409.475024 
L 593.994693 407.950192 
L 594.323735 408.473759 
L 594.652776 409.722264 
L 594.981818 409.14388 
L 595.31086 409.043194 
L 595.639902 408.245538 
L 595.968943 410.592638 
L 596.297985 410.413641 
L 596.627027 410.562432 
L 596.956069 409.675277 
L 597.285111 409.874412 
L 597.614152 408.731067 
L 597.943194 408.611363 
L 598.601278 405.858163 
L 598.930319 407.831607 
L 599.917445 405.932 
L 600.246486 405.793277 
L 600.575528 407.018289 
L 600.90457 406.433192 
L 601.233612 406.832579 
L 601.562654 406.033804 
L 601.891695 407.239798 
L 602.220737 407.4669 
L 602.549779 407.372927 
L 602.878821 406.663651 
L 603.207862 407.783501 
L 603.536904 408.115765 
L 603.865946 407.842794 
L 604.194988 406.841529 
L 604.524029 405.186924 
L 604.853071 407.695122 
L 605.182113 407.589961 
L 605.511155 407.191692 
L 605.840197 405.402839 
L 606.169238 405.745171 
L 606.49828 405.890607 
L 606.827322 404.620846 
L 607.156364 404.541416 
L 607.485405 403.905976 
L 607.814447 405.224961 
L 608.143489 405.381584 
L 608.472531 405.332359 
L 609.130614 403.641955 
L 609.459656 404.667832 
L 609.788698 404.660001 
L 610.11774 408.047522 
L 610.446781 407.196167 
L 610.775823 408.49949 
L 611.104865 405.640011 
L 611.762948 403.789628 
L 612.09199 404.29977 
L 612.421032 405.408433 
L 612.750074 404.504498 
L 613.079115 403.942894 
L 613.408157 405.433045 
L 613.737199 407.965855 
L 614.395283 407.838319 
L 614.724324 404.492192 
L 615.053366 404.317669 
L 615.382408 405.529256 
L 615.71145 404.571621 
L 616.040491 404.304245 
L 616.369533 403.696773 
L 616.698575 405.593024 
L 617.356658 405.392771 
L 617.6857 404.372487 
L 618.014742 404.684613 
L 618.343784 403.702367 
L 618.672826 404.203559 
L 619.001867 402.84318 
L 619.330909 414.399683 
L 619.330909 414.399683 
" style="fill:none;stroke:#1f77b4;stroke-linecap:square;stroke-width:1.5;"/>
   </g>
   <g id="patch_3">
    <path d="M 108 448.56 
L 108 60.48 
" style="fill:none;stroke:#000000;stroke-linecap:square;stroke-linejoin:miter;stroke-width:0.8;"/>
   </g>
   <g id="patch_4">
    <path d="M 643.68 448.56 
L 643.68 60.48 
" style="fill:none;stroke:#000000;stroke-linecap:square;stroke-linejoin:miter;stroke-width:0.8;"/>
   </g>
   <g id="patch_5">
    <path d="M 108 448.56 
L 643.68 448.56 
" style="fill:none;stroke:#000000;stroke-linecap:square;stroke-linejoin:miter;stroke-width:0.8;"/>
   </g>
   <g id="patch_6">
    <path d="M 108 60.48 
L 643.68 60.48 
" style="fill:none;stroke:#000000;stroke-linecap:square;stroke-linejoin:miter;stroke-width:0.8;"/>
   </g>
   <g id="text_31">
    <!-- unikernel_falloc - free -->
    <g transform="translate(295.036875 54.48)scale(0.15 -0.15)">
     <defs>
      <path d="M 8.5 21.578125 
L 8.5 54.6875 
L 17.484375 54.6875 
L 17.484375 21.921875 
Q 17.484375 14.15625 20.5 10.265625 
Q 23.53125 6.390625 29.59375 6.390625 
Q 36.859375 6.390625 41.078125 11.03125 
Q 45.3125 15.671875 45.3125 23.6875 
L 45.3125 54.6875 
L 54.296875 54.6875 
L 54.296875 0 
L 45.3125 0 
L 45.3125 8.40625 
Q 42.046875 3.421875 37.71875 1 
Q 33.40625 -1.421875 27.6875 -1.421875 
Q 18.265625 -1.421875 13.375 4.4375 
Q 8.5 10.296875 8.5 21.578125 
z
M 31.109375 56 
z
" id="DejaVuSans-117"/>
      <path d="M 54.890625 33.015625 
L 54.890625 0 
L 45.90625 0 
L 45.90625 32.71875 
Q 45.90625 40.484375 42.875 44.328125 
Q 39.84375 48.1875 33.796875 48.1875 
Q 26.515625 48.1875 22.3125 43.546875 
Q 18.109375 38.921875 18.109375 30.90625 
L 18.109375 0 
L 9.078125 0 
L 9.078125 54.6875 
L 18.109375 54.6875 
L 18.109375 46.1875 
Q 21.34375 51.125 25.703125 53.5625 
Q 30.078125 56 35.796875 56 
Q 45.21875 56 50.046875 50.171875 
Q 54.890625 44.34375 54.890625 33.015625 
z
" id="DejaVuSans-110"/>
      <path d="M 9.078125 75.984375 
L 18.109375 75.984375 
L 18.109375 31.109375 
L 44.921875 54.6875 
L 56.390625 54.6875 
L 27.390625 29.109375 
L 57.625 0 
L 45.90625 0 
L 18.109375 26.703125 
L 18.109375 0 
L 9.078125 0 
z
" id="DejaVuSans-107"/>
      <path d="M 41.109375 46.296875 
Q 39.59375 47.171875 37.8125 47.578125 
Q 36.03125 48 33.890625 48 
Q 26.265625 48 22.1875 43.046875 
Q 18.109375 38.09375 18.109375 28.8125 
L 18.109375 0 
L 9.078125 0 
L 9.078125 54.6875 
L 18.109375 54.6875 
L 18.109375 46.1875 
Q 20.953125 51.171875 25.484375 53.578125 
Q 30.03125 56 36.53125 56 
Q 37.453125 56 38.578125 55.875 
Q 39.703125 55.765625 41.0625 55.515625 
z
" id="DejaVuSans-114"/>
      <path d="M 9.421875 75.984375 
L 18.40625 75.984375 
L 18.40625 0 
L 9.421875 0 
z
" id="DejaVuSans-108"/>
      <path d="M 50.984375 -16.609375 
L 50.984375 -23.578125 
L -0.984375 -23.578125 
L -0.984375 -16.609375 
z
" id="DejaVuSans-95"/>
      <path d="M 37.109375 75.984375 
L 37.109375 68.5 
L 28.515625 68.5 
Q 23.6875 68.5 21.796875 66.546875 
Q 19.921875 64.59375 19.921875 59.515625 
L 19.921875 54.6875 
L 34.71875 54.6875 
L 34.71875 47.703125 
L 19.921875 47.703125 
L 19.921875 0 
L 10.890625 0 
L 10.890625 47.703125 
L 2.296875 47.703125 
L 2.296875 54.6875 
L 10.890625 54.6875 
L 10.890625 58.5 
Q 10.890625 67.625 15.140625 71.796875 
Q 19.390625 75.984375 28.609375 75.984375 
z
" id="DejaVuSans-102"/>
      <path d="M 30.609375 48.390625 
Q 23.390625 48.390625 19.1875 42.75 
Q 14.984375 37.109375 14.984375 27.296875 
Q 14.984375 17.484375 19.15625 11.84375 
Q 23.34375 6.203125 30.609375 6.203125 
Q 37.796875 6.203125 41.984375 11.859375 
Q 46.1875 17.53125 46.1875 27.296875 
Q 46.1875 37.015625 41.984375 42.703125 
Q 37.796875 48.390625 30.609375 48.390625 
z
M 30.609375 56 
Q 42.328125 56 49.015625 48.375 
Q 55.71875 40.765625 55.71875 27.296875 
Q 55.71875 13.875 49.015625 6.21875 
Q 42.328125 -1.421875 30.609375 -1.421875 
Q 18.84375 -1.421875 12.171875 6.21875 
Q 5.515625 13.875 5.515625 27.296875 
Q 5.515625 40.765625 12.171875 48.375 
Q 18.84375 56 30.609375 56 
z
" id="DejaVuSans-111"/>
      <path d="M 48.78125 52.59375 
L 48.78125 44.1875 
Q 44.96875 46.296875 41.140625 47.34375 
Q 37.3125 48.390625 33.40625 48.390625 
Q 24.65625 48.390625 19.8125 42.84375 
Q 14.984375 37.3125 14.984375 27.296875 
Q 14.984375 17.28125 19.8125 11.734375 
Q 24.65625 6.203125 33.40625 6.203125 
Q 37.3125 6.203125 41.140625 7.25 
Q 44.96875 8.296875 48.78125 10.40625 
L 48.78125 2.09375 
Q 45.015625 0.34375 40.984375 -0.53125 
Q 36.96875 -1.421875 32.421875 -1.421875 
Q 20.0625 -1.421875 12.78125 6.34375 
Q 5.515625 14.109375 5.515625 27.296875 
Q 5.515625 40.671875 12.859375 48.328125 
Q 20.21875 56 33.015625 56 
Q 37.15625 56 41.109375 55.140625 
Q 45.0625 54.296875 48.78125 52.59375 
z
" id="DejaVuSans-99"/>
      <path id="DejaVuSans-32"/>
      <path d="M 4.890625 31.390625 
L 31.203125 31.390625 
L 31.203125 23.390625 
L 4.890625 23.390625 
z
" id="DejaVuSans-45"/>
     </defs>
     <use xlink:href="#DejaVuSans-117"/>
     <use x="63.378906" xlink:href="#DejaVuSans-110"/>
     <use x="126.757812" xlink:href="#DejaVuSans-105"/>
     <use x="154.541016" xlink:href="#DejaVuSans-107"/>
     <use x="208.826172" xlink:href="#DejaVuSans-101"/>
     <use x="270.349609" xlink:href="#DejaVuSans-114"/>
     <use x="309.712891" xlink:href="#DejaVuSans-110"/>
     <use x="373.091797" xlink:href="#DejaVuSans-101"/>
     <use x="434.615234" xlink:href="#DejaVuSans-108"/>
     <use x="462.398438" xlink:href="#DejaVuSans-95"/>
     <use x="512.398438" xlink:href="#DejaVuSans-102"/>
     <use x="547.603516" xlink:href="#DejaVuSans-97"/>
     <use x="608.882812" xlink:href="#DejaVuSans-108"/>
     <use x="636.666016" xlink:href="#DejaVuSans-108"/>
     <use x="664.449219" xlink:href="#DejaVuSans-111"/>
     <use x="725.630859" xlink:href="#DejaVuSans-99"/>
     <use x="780.611328" xlink:href="#DejaVuSans-32"/>
     <use x="812.398438" xlink:href="#DejaVuSans-45"/>
     <use x="848.482422" xlink:href="#DejaVuSans-32"/>
     <use x="880.269531" xlink:href="#DejaVuSans-102"/>
     <use x="915.474609" xlink:href="#DejaVuSans-114"/>
     <use x="954.337891" xlink:href="#DejaVuSans-101"/>
     <use x="1015.861328" xlink:href="#DejaVuSans-101"/>
    </g>
   </g>
   <g id="legend_1">
    <g id="patch_7">
     <path d="M 650.68 258.52 
L 654.68 258.52 
Q 656.68 258.52 656.68 256.52 
L 656.68 252.52 
Q 656.68 250.52 654.68 250.52 
L 650.68 250.52 
Q 648.68 250.52 648.68 252.52 
L 648.68 256.52 
Q 648.68 258.52 650.68 258.52 
z
" style="fill:#ffffff;opacity:0.8;stroke:#cccccc;stroke-linejoin:miter;"/>
    </g>
   </g>
  </g>
 </g>
 <defs>
  <clipPath id="p23921f4ceb">
   <rect height="388.08" width="535.68" x="108" y="60.48"/>
  </clipPath>
 </defs>
</svg>
