<?xml version="1.0" encoding="utf-8" standalone="no"?>
<!DOCTYPE svg PUBLIC "-//W3C//DTD SVG 1.1//EN"
  "http://www.w3.org/Graphics/SVG/1.1/DTD/svg11.dtd">
<!-- Created with matplotlib (https://matplotlib.org/) -->
<svg height="504pt" version="1.1" viewBox="0 0 864 504" width="864pt" xmlns="http://www.w3.org/2000/svg" xmlns:xlink="http://www.w3.org/1999/xlink">
 <metadata>
  <rdf:RDF xmlns:cc="http://creativecommons.org/ns#" xmlns:dc="http://purl.org/dc/elements/1.1/" xmlns:rdf="http://www.w3.org/1999/02/22-rdf-syntax-ns#">
   <cc:Work>
    <dc:type rdf:resource="http://purl.org/dc/dcmitype/StillImage"/>
    <dc:date>2022-05-29T17:20:45.397190</dc:date>
    <dc:format>image/svg+xml</dc:format>
    <dc:creator>
     <cc:Agent>
      <dc:title>Matplotlib v3.3.4, https://matplotlib.org/</dc:title>
     </cc:Agent>
    </dc:creator>
   </cc:Work>
  </rdf:RDF>
 </metadata>
 <defs>
  <style type="text/css">*{stroke-linecap:butt;stroke-linejoin:round;}</style>
 </defs>
 <g id="figure_1">
  <g id="patch_1">
   <path d="M 0 504 
L 864 504 
L 864 0 
L 0 0 
z
" style="fill:#ffffff;"/>
  </g>
  <g id="axes_1">
   <g id="patch_2">
    <path d="M 108 448.56 
L 643.68 448.56 
L 643.68 60.48 
L 108 60.48 
z
" style="fill:#ffffff;"/>
   </g>
   <g id="matplotlib.axis_1">
    <g id="xtick_1">
     <g id="line2d_1">
      <defs>
       <path d="M 0 0 
L 0 3.5 
" id="m9a2fcfd583" style="stroke:#000000;stroke-width:0.8;"/>
      </defs>
      <g>
       <use style="stroke:#000000;stroke-width:0.8;" x="132.349091" xlink:href="#m9a2fcfd583" y="448.56"/>
      </g>
     </g>
     <g id="text_1">
      <!-- 14:33:16 -->
      <g transform="translate(135.108466 500.4725)rotate(-90)scale(0.1 -0.1)">
       <defs>
        <path d="M 12.40625 8.296875 
L 28.515625 8.296875 
L 28.515625 63.921875 
L 10.984375 60.40625 
L 10.984375 69.390625 
L 28.421875 72.90625 
L 38.28125 72.90625 
L 38.28125 8.296875 
L 54.390625 8.296875 
L 54.390625 0 
L 12.40625 0 
z
" id="DejaVuSans-49"/>
        <path d="M 37.796875 64.3125 
L 12.890625 25.390625 
L 37.796875 25.390625 
z
M 35.203125 72.90625 
L 47.609375 72.90625 
L 47.609375 25.390625 
L 58.015625 25.390625 
L 58.015625 17.1875 
L 47.609375 17.1875 
L 47.609375 0 
L 37.796875 0 
L 37.796875 17.1875 
L 4.890625 17.1875 
L 4.890625 26.703125 
z
" id="DejaVuSans-52"/>
        <path d="M 11.71875 12.40625 
L 22.015625 12.40625 
L 22.015625 0 
L 11.71875 0 
z
M 11.71875 51.703125 
L 22.015625 51.703125 
L 22.015625 39.3125 
L 11.71875 39.3125 
z
" id="DejaVuSans-58"/>
        <path d="M 40.578125 39.3125 
Q 47.65625 37.796875 51.625 33 
Q 55.609375 28.21875 55.609375 21.1875 
Q 55.609375 10.40625 48.1875 4.484375 
Q 40.765625 -1.421875 27.09375 -1.421875 
Q 22.515625 -1.421875 17.65625 -0.515625 
Q 12.796875 0.390625 7.625 2.203125 
L 7.625 11.71875 
Q 11.71875 9.328125 16.59375 8.109375 
Q 21.484375 6.890625 26.8125 6.890625 
Q 36.078125 6.890625 40.9375 10.546875 
Q 45.796875 14.203125 45.796875 21.1875 
Q 45.796875 27.640625 41.28125 31.265625 
Q 36.765625 34.90625 28.71875 34.90625 
L 20.21875 34.90625 
L 20.21875 43.015625 
L 29.109375 43.015625 
Q 36.375 43.015625 40.234375 45.921875 
Q 44.09375 48.828125 44.09375 54.296875 
Q 44.09375 59.90625 40.109375 62.90625 
Q 36.140625 65.921875 28.71875 65.921875 
Q 24.65625 65.921875 20.015625 65.03125 
Q 15.375 64.15625 9.8125 62.3125 
L 9.8125 71.09375 
Q 15.4375 72.65625 20.34375 73.4375 
Q 25.25 74.21875 29.59375 74.21875 
Q 40.828125 74.21875 47.359375 69.109375 
Q 53.90625 64.015625 53.90625 55.328125 
Q 53.90625 49.265625 50.4375 45.09375 
Q 46.96875 40.921875 40.578125 39.3125 
z
" id="DejaVuSans-51"/>
        <path d="M 33.015625 40.375 
Q 26.375 40.375 22.484375 35.828125 
Q 18.609375 31.296875 18.609375 23.390625 
Q 18.609375 15.53125 22.484375 10.953125 
Q 26.375 6.390625 33.015625 6.390625 
Q 39.65625 6.390625 43.53125 10.953125 
Q 47.40625 15.53125 47.40625 23.390625 
Q 47.40625 31.296875 43.53125 35.828125 
Q 39.65625 40.375 33.015625 40.375 
z
M 52.59375 71.296875 
L 52.59375 62.3125 
Q 48.875 64.0625 45.09375 64.984375 
Q 41.3125 65.921875 37.59375 65.921875 
Q 27.828125 65.921875 22.671875 59.328125 
Q 17.53125 52.734375 16.796875 39.40625 
Q 19.671875 43.65625 24.015625 45.921875 
Q 28.375 48.1875 33.59375 48.1875 
Q 44.578125 48.1875 50.953125 41.515625 
Q 57.328125 34.859375 57.328125 23.390625 
Q 57.328125 12.15625 50.6875 5.359375 
Q 44.046875 -1.421875 33.015625 -1.421875 
Q 20.359375 -1.421875 13.671875 8.265625 
Q 6.984375 17.96875 6.984375 36.375 
Q 6.984375 53.65625 15.1875 63.9375 
Q 23.390625 74.21875 37.203125 74.21875 
Q 40.921875 74.21875 44.703125 73.484375 
Q 48.484375 72.75 52.59375 71.296875 
z
" id="DejaVuSans-54"/>
       </defs>
       <use xlink:href="#DejaVuSans-49"/>
       <use x="63.623047" xlink:href="#DejaVuSans-52"/>
       <use x="127.246094" xlink:href="#DejaVuSans-58"/>
       <use x="160.9375" xlink:href="#DejaVuSans-51"/>
       <use x="224.560547" xlink:href="#DejaVuSans-51"/>
       <use x="288.183594" xlink:href="#DejaVuSans-58"/>
       <use x="321.875" xlink:href="#DejaVuSans-49"/>
       <use x="385.498047" xlink:href="#DejaVuSans-54"/>
      </g>
     </g>
    </g>
    <g id="xtick_2">
     <g id="line2d_2">
      <g>
       <use style="stroke:#000000;stroke-width:0.8;" x="156.463734" xlink:href="#m9a2fcfd583" y="448.56"/>
      </g>
     </g>
     <g id="text_2">
      <!-- 14:34:40 -->
      <g transform="translate(159.223109 500.4725)rotate(-90)scale(0.1 -0.1)">
       <defs>
        <path d="M 31.78125 66.40625 
Q 24.171875 66.40625 20.328125 58.90625 
Q 16.5 51.421875 16.5 36.375 
Q 16.5 21.390625 20.328125 13.890625 
Q 24.171875 6.390625 31.78125 6.390625 
Q 39.453125 6.390625 43.28125 13.890625 
Q 47.125 21.390625 47.125 36.375 
Q 47.125 51.421875 43.28125 58.90625 
Q 39.453125 66.40625 31.78125 66.40625 
z
M 31.78125 74.21875 
Q 44.046875 74.21875 50.515625 64.515625 
Q 56.984375 54.828125 56.984375 36.375 
Q 56.984375 17.96875 50.515625 8.265625 
Q 44.046875 -1.421875 31.78125 -1.421875 
Q 19.53125 -1.421875 13.0625 8.265625 
Q 6.59375 17.96875 6.59375 36.375 
Q 6.59375 54.828125 13.0625 64.515625 
Q 19.53125 74.21875 31.78125 74.21875 
z
" id="DejaVuSans-48"/>
       </defs>
       <use xlink:href="#DejaVuSans-49"/>
       <use x="63.623047" xlink:href="#DejaVuSans-52"/>
       <use x="127.246094" xlink:href="#DejaVuSans-58"/>
       <use x="160.9375" xlink:href="#DejaVuSans-51"/>
       <use x="224.560547" xlink:href="#DejaVuSans-52"/>
       <use x="288.183594" xlink:href="#DejaVuSans-58"/>
       <use x="321.875" xlink:href="#DejaVuSans-52"/>
       <use x="385.498047" xlink:href="#DejaVuSans-48"/>
      </g>
     </g>
    </g>
    <g id="xtick_3">
     <g id="line2d_3">
      <g>
       <use style="stroke:#000000;stroke-width:0.8;" x="180.578377" xlink:href="#m9a2fcfd583" y="448.56"/>
      </g>
     </g>
     <g id="text_3">
      <!-- 14:36:04 -->
      <g transform="translate(183.337752 500.4725)rotate(-90)scale(0.1 -0.1)">
       <use xlink:href="#DejaVuSans-49"/>
       <use x="63.623047" xlink:href="#DejaVuSans-52"/>
       <use x="127.246094" xlink:href="#DejaVuSans-58"/>
       <use x="160.9375" xlink:href="#DejaVuSans-51"/>
       <use x="224.560547" xlink:href="#DejaVuSans-54"/>
       <use x="288.183594" xlink:href="#DejaVuSans-58"/>
       <use x="321.875" xlink:href="#DejaVuSans-48"/>
       <use x="385.498047" xlink:href="#DejaVuSans-52"/>
      </g>
     </g>
    </g>
    <g id="xtick_4">
     <g id="line2d_4">
      <g>
       <use style="stroke:#000000;stroke-width:0.8;" x="204.69302" xlink:href="#m9a2fcfd583" y="448.56"/>
      </g>
     </g>
     <g id="text_4">
      <!-- 14:37:28 -->
      <g transform="translate(207.452395 500.4725)rotate(-90)scale(0.1 -0.1)">
       <defs>
        <path d="M 8.203125 72.90625 
L 55.078125 72.90625 
L 55.078125 68.703125 
L 28.609375 0 
L 18.3125 0 
L 43.21875 64.59375 
L 8.203125 64.59375 
z
" id="DejaVuSans-55"/>
        <path d="M 19.1875 8.296875 
L 53.609375 8.296875 
L 53.609375 0 
L 7.328125 0 
L 7.328125 8.296875 
Q 12.9375 14.109375 22.625 23.890625 
Q 32.328125 33.6875 34.8125 36.53125 
Q 39.546875 41.84375 41.421875 45.53125 
Q 43.3125 49.21875 43.3125 52.78125 
Q 43.3125 58.59375 39.234375 62.25 
Q 35.15625 65.921875 28.609375 65.921875 
Q 23.96875 65.921875 18.8125 64.3125 
Q 13.671875 62.703125 7.8125 59.421875 
L 7.8125 69.390625 
Q 13.765625 71.78125 18.9375 73 
Q 24.125 74.21875 28.421875 74.21875 
Q 39.75 74.21875 46.484375 68.546875 
Q 53.21875 62.890625 53.21875 53.421875 
Q 53.21875 48.921875 51.53125 44.890625 
Q 49.859375 40.875 45.40625 35.40625 
Q 44.1875 33.984375 37.640625 27.21875 
Q 31.109375 20.453125 19.1875 8.296875 
z
" id="DejaVuSans-50"/>
        <path d="M 31.78125 34.625 
Q 24.75 34.625 20.71875 30.859375 
Q 16.703125 27.09375 16.703125 20.515625 
Q 16.703125 13.921875 20.71875 10.15625 
Q 24.75 6.390625 31.78125 6.390625 
Q 38.8125 6.390625 42.859375 10.171875 
Q 46.921875 13.96875 46.921875 20.515625 
Q 46.921875 27.09375 42.890625 30.859375 
Q 38.875 34.625 31.78125 34.625 
z
M 21.921875 38.8125 
Q 15.578125 40.375 12.03125 44.71875 
Q 8.5 49.078125 8.5 55.328125 
Q 8.5 64.0625 14.71875 69.140625 
Q 20.953125 74.21875 31.78125 74.21875 
Q 42.671875 74.21875 48.875 69.140625 
Q 55.078125 64.0625 55.078125 55.328125 
Q 55.078125 49.078125 51.53125 44.71875 
Q 48 40.375 41.703125 38.8125 
Q 48.828125 37.15625 52.796875 32.3125 
Q 56.78125 27.484375 56.78125 20.515625 
Q 56.78125 9.90625 50.3125 4.234375 
Q 43.84375 -1.421875 31.78125 -1.421875 
Q 19.734375 -1.421875 13.25 4.234375 
Q 6.78125 9.90625 6.78125 20.515625 
Q 6.78125 27.484375 10.78125 32.3125 
Q 14.796875 37.15625 21.921875 38.8125 
z
M 18.3125 54.390625 
Q 18.3125 48.734375 21.84375 45.5625 
Q 25.390625 42.390625 31.78125 42.390625 
Q 38.140625 42.390625 41.71875 45.5625 
Q 45.3125 48.734375 45.3125 54.390625 
Q 45.3125 60.0625 41.71875 63.234375 
Q 38.140625 66.40625 31.78125 66.40625 
Q 25.390625 66.40625 21.84375 63.234375 
Q 18.3125 60.0625 18.3125 54.390625 
z
" id="DejaVuSans-56"/>
       </defs>
       <use xlink:href="#DejaVuSans-49"/>
       <use x="63.623047" xlink:href="#DejaVuSans-52"/>
       <use x="127.246094" xlink:href="#DejaVuSans-58"/>
       <use x="160.9375" xlink:href="#DejaVuSans-51"/>
       <use x="224.560547" xlink:href="#DejaVuSans-55"/>
       <use x="288.183594" xlink:href="#DejaVuSans-58"/>
       <use x="321.875" xlink:href="#DejaVuSans-50"/>
       <use x="385.498047" xlink:href="#DejaVuSans-56"/>
      </g>
     </g>
    </g>
    <g id="xtick_5">
     <g id="line2d_5">
      <g>
       <use style="stroke:#000000;stroke-width:0.8;" x="228.807663" xlink:href="#m9a2fcfd583" y="448.56"/>
      </g>
     </g>
     <g id="text_5">
      <!-- 14:38:52 -->
      <g transform="translate(231.567038 500.4725)rotate(-90)scale(0.1 -0.1)">
       <defs>
        <path d="M 10.796875 72.90625 
L 49.515625 72.90625 
L 49.515625 64.59375 
L 19.828125 64.59375 
L 19.828125 46.734375 
Q 21.96875 47.46875 24.109375 47.828125 
Q 26.265625 48.1875 28.421875 48.1875 
Q 40.625 48.1875 47.75 41.5 
Q 54.890625 34.8125 54.890625 23.390625 
Q 54.890625 11.625 47.5625 5.09375 
Q 40.234375 -1.421875 26.90625 -1.421875 
Q 22.3125 -1.421875 17.546875 -0.640625 
Q 12.796875 0.140625 7.71875 1.703125 
L 7.71875 11.625 
Q 12.109375 9.234375 16.796875 8.0625 
Q 21.484375 6.890625 26.703125 6.890625 
Q 35.15625 6.890625 40.078125 11.328125 
Q 45.015625 15.765625 45.015625 23.390625 
Q 45.015625 31 40.078125 35.4375 
Q 35.15625 39.890625 26.703125 39.890625 
Q 22.75 39.890625 18.8125 39.015625 
Q 14.890625 38.140625 10.796875 36.28125 
z
" id="DejaVuSans-53"/>
       </defs>
       <use xlink:href="#DejaVuSans-49"/>
       <use x="63.623047" xlink:href="#DejaVuSans-52"/>
       <use x="127.246094" xlink:href="#DejaVuSans-58"/>
       <use x="160.9375" xlink:href="#DejaVuSans-51"/>
       <use x="224.560547" xlink:href="#DejaVuSans-56"/>
       <use x="288.183594" xlink:href="#DejaVuSans-58"/>
       <use x="321.875" xlink:href="#DejaVuSans-53"/>
       <use x="385.498047" xlink:href="#DejaVuSans-50"/>
      </g>
     </g>
    </g>
    <g id="xtick_6">
     <g id="line2d_6">
      <g>
       <use style="stroke:#000000;stroke-width:0.8;" x="252.922306" xlink:href="#m9a2fcfd583" y="448.56"/>
      </g>
     </g>
     <g id="text_6">
      <!-- 14:40:16 -->
      <g transform="translate(255.681681 500.4725)rotate(-90)scale(0.1 -0.1)">
       <use xlink:href="#DejaVuSans-49"/>
       <use x="63.623047" xlink:href="#DejaVuSans-52"/>
       <use x="127.246094" xlink:href="#DejaVuSans-58"/>
       <use x="160.9375" xlink:href="#DejaVuSans-52"/>
       <use x="224.560547" xlink:href="#DejaVuSans-48"/>
       <use x="288.183594" xlink:href="#DejaVuSans-58"/>
       <use x="321.875" xlink:href="#DejaVuSans-49"/>
       <use x="385.498047" xlink:href="#DejaVuSans-54"/>
      </g>
     </g>
    </g>
    <g id="xtick_7">
     <g id="line2d_7">
      <g>
       <use style="stroke:#000000;stroke-width:0.8;" x="277.036949" xlink:href="#m9a2fcfd583" y="448.56"/>
      </g>
     </g>
     <g id="text_7">
      <!-- 14:41:40 -->
      <g transform="translate(279.796324 500.4725)rotate(-90)scale(0.1 -0.1)">
       <use xlink:href="#DejaVuSans-49"/>
       <use x="63.623047" xlink:href="#DejaVuSans-52"/>
       <use x="127.246094" xlink:href="#DejaVuSans-58"/>
       <use x="160.9375" xlink:href="#DejaVuSans-52"/>
       <use x="224.560547" xlink:href="#DejaVuSans-49"/>
       <use x="288.183594" xlink:href="#DejaVuSans-58"/>
       <use x="321.875" xlink:href="#DejaVuSans-52"/>
       <use x="385.498047" xlink:href="#DejaVuSans-48"/>
      </g>
     </g>
    </g>
    <g id="xtick_8">
     <g id="line2d_8">
      <g>
       <use style="stroke:#000000;stroke-width:0.8;" x="301.151592" xlink:href="#m9a2fcfd583" y="448.56"/>
      </g>
     </g>
     <g id="text_8">
      <!-- 14:43:04 -->
      <g transform="translate(303.910967 500.4725)rotate(-90)scale(0.1 -0.1)">
       <use xlink:href="#DejaVuSans-49"/>
       <use x="63.623047" xlink:href="#DejaVuSans-52"/>
       <use x="127.246094" xlink:href="#DejaVuSans-58"/>
       <use x="160.9375" xlink:href="#DejaVuSans-52"/>
       <use x="224.560547" xlink:href="#DejaVuSans-51"/>
       <use x="288.183594" xlink:href="#DejaVuSans-58"/>
       <use x="321.875" xlink:href="#DejaVuSans-48"/>
       <use x="385.498047" xlink:href="#DejaVuSans-52"/>
      </g>
     </g>
    </g>
    <g id="xtick_9">
     <g id="line2d_9">
      <g>
       <use style="stroke:#000000;stroke-width:0.8;" x="325.266235" xlink:href="#m9a2fcfd583" y="448.56"/>
      </g>
     </g>
     <g id="text_9">
      <!-- 14:44:27 -->
      <g transform="translate(328.02561 500.4725)rotate(-90)scale(0.1 -0.1)">
       <use xlink:href="#DejaVuSans-49"/>
       <use x="63.623047" xlink:href="#DejaVuSans-52"/>
       <use x="127.246094" xlink:href="#DejaVuSans-58"/>
       <use x="160.9375" xlink:href="#DejaVuSans-52"/>
       <use x="224.560547" xlink:href="#DejaVuSans-52"/>
       <use x="288.183594" xlink:href="#DejaVuSans-58"/>
       <use x="321.875" xlink:href="#DejaVuSans-50"/>
       <use x="385.498047" xlink:href="#DejaVuSans-55"/>
      </g>
     </g>
    </g>
    <g id="xtick_10">
     <g id="line2d_10">
      <g>
       <use style="stroke:#000000;stroke-width:0.8;" x="349.380878" xlink:href="#m9a2fcfd583" y="448.56"/>
      </g>
     </g>
     <g id="text_10">
      <!-- 14:45:51 -->
      <g transform="translate(352.140253 500.4725)rotate(-90)scale(0.1 -0.1)">
       <use xlink:href="#DejaVuSans-49"/>
       <use x="63.623047" xlink:href="#DejaVuSans-52"/>
       <use x="127.246094" xlink:href="#DejaVuSans-58"/>
       <use x="160.9375" xlink:href="#DejaVuSans-52"/>
       <use x="224.560547" xlink:href="#DejaVuSans-53"/>
       <use x="288.183594" xlink:href="#DejaVuSans-58"/>
       <use x="321.875" xlink:href="#DejaVuSans-53"/>
       <use x="385.498047" xlink:href="#DejaVuSans-49"/>
      </g>
     </g>
    </g>
    <g id="xtick_11">
     <g id="line2d_11">
      <g>
       <use style="stroke:#000000;stroke-width:0.8;" x="373.495521" xlink:href="#m9a2fcfd583" y="448.56"/>
      </g>
     </g>
     <g id="text_11">
      <!-- 14:47:15 -->
      <g transform="translate(376.254896 500.4725)rotate(-90)scale(0.1 -0.1)">
       <use xlink:href="#DejaVuSans-49"/>
       <use x="63.623047" xlink:href="#DejaVuSans-52"/>
       <use x="127.246094" xlink:href="#DejaVuSans-58"/>
       <use x="160.9375" xlink:href="#DejaVuSans-52"/>
       <use x="224.560547" xlink:href="#DejaVuSans-55"/>
       <use x="288.183594" xlink:href="#DejaVuSans-58"/>
       <use x="321.875" xlink:href="#DejaVuSans-49"/>
       <use x="385.498047" xlink:href="#DejaVuSans-53"/>
      </g>
     </g>
    </g>
    <g id="xtick_12">
     <g id="line2d_12">
      <g>
       <use style="stroke:#000000;stroke-width:0.8;" x="397.610164" xlink:href="#m9a2fcfd583" y="448.56"/>
      </g>
     </g>
     <g id="text_12">
      <!-- 14:48:39 -->
      <g transform="translate(400.369539 500.4725)rotate(-90)scale(0.1 -0.1)">
       <defs>
        <path d="M 10.984375 1.515625 
L 10.984375 10.5 
Q 14.703125 8.734375 18.5 7.8125 
Q 22.3125 6.890625 25.984375 6.890625 
Q 35.75 6.890625 40.890625 13.453125 
Q 46.046875 20.015625 46.78125 33.40625 
Q 43.953125 29.203125 39.59375 26.953125 
Q 35.25 24.703125 29.984375 24.703125 
Q 19.046875 24.703125 12.671875 31.3125 
Q 6.296875 37.9375 6.296875 49.421875 
Q 6.296875 60.640625 12.9375 67.421875 
Q 19.578125 74.21875 30.609375 74.21875 
Q 43.265625 74.21875 49.921875 64.515625 
Q 56.59375 54.828125 56.59375 36.375 
Q 56.59375 19.140625 48.40625 8.859375 
Q 40.234375 -1.421875 26.421875 -1.421875 
Q 22.703125 -1.421875 18.890625 -0.6875 
Q 15.09375 0.046875 10.984375 1.515625 
z
M 30.609375 32.421875 
Q 37.25 32.421875 41.125 36.953125 
Q 45.015625 41.5 45.015625 49.421875 
Q 45.015625 57.28125 41.125 61.84375 
Q 37.25 66.40625 30.609375 66.40625 
Q 23.96875 66.40625 20.09375 61.84375 
Q 16.21875 57.28125 16.21875 49.421875 
Q 16.21875 41.5 20.09375 36.953125 
Q 23.96875 32.421875 30.609375 32.421875 
z
" id="DejaVuSans-57"/>
       </defs>
       <use xlink:href="#DejaVuSans-49"/>
       <use x="63.623047" xlink:href="#DejaVuSans-52"/>
       <use x="127.246094" xlink:href="#DejaVuSans-58"/>
       <use x="160.9375" xlink:href="#DejaVuSans-52"/>
       <use x="224.560547" xlink:href="#DejaVuSans-56"/>
       <use x="288.183594" xlink:href="#DejaVuSans-58"/>
       <use x="321.875" xlink:href="#DejaVuSans-51"/>
       <use x="385.498047" xlink:href="#DejaVuSans-57"/>
      </g>
     </g>
    </g>
    <g id="xtick_13">
     <g id="line2d_13">
      <g>
       <use style="stroke:#000000;stroke-width:0.8;" x="421.724807" xlink:href="#m9a2fcfd583" y="448.56"/>
      </g>
     </g>
     <g id="text_13">
      <!-- 14:50:04 -->
      <g transform="translate(424.484182 500.4725)rotate(-90)scale(0.1 -0.1)">
       <use xlink:href="#DejaVuSans-49"/>
       <use x="63.623047" xlink:href="#DejaVuSans-52"/>
       <use x="127.246094" xlink:href="#DejaVuSans-58"/>
       <use x="160.9375" xlink:href="#DejaVuSans-53"/>
       <use x="224.560547" xlink:href="#DejaVuSans-48"/>
       <use x="288.183594" xlink:href="#DejaVuSans-58"/>
       <use x="321.875" xlink:href="#DejaVuSans-48"/>
       <use x="385.498047" xlink:href="#DejaVuSans-52"/>
      </g>
     </g>
    </g>
    <g id="xtick_14">
     <g id="line2d_14">
      <g>
       <use style="stroke:#000000;stroke-width:0.8;" x="445.83945" xlink:href="#m9a2fcfd583" y="448.56"/>
      </g>
     </g>
     <g id="text_14">
      <!-- 14:51:28 -->
      <g transform="translate(448.598825 500.4725)rotate(-90)scale(0.1 -0.1)">
       <use xlink:href="#DejaVuSans-49"/>
       <use x="63.623047" xlink:href="#DejaVuSans-52"/>
       <use x="127.246094" xlink:href="#DejaVuSans-58"/>
       <use x="160.9375" xlink:href="#DejaVuSans-53"/>
       <use x="224.560547" xlink:href="#DejaVuSans-49"/>
       <use x="288.183594" xlink:href="#DejaVuSans-58"/>
       <use x="321.875" xlink:href="#DejaVuSans-50"/>
       <use x="385.498047" xlink:href="#DejaVuSans-56"/>
      </g>
     </g>
    </g>
    <g id="xtick_15">
     <g id="line2d_15">
      <g>
       <use style="stroke:#000000;stroke-width:0.8;" x="469.954093" xlink:href="#m9a2fcfd583" y="448.56"/>
      </g>
     </g>
     <g id="text_15">
      <!-- 14:52:52 -->
      <g transform="translate(472.713468 500.4725)rotate(-90)scale(0.1 -0.1)">
       <use xlink:href="#DejaVuSans-49"/>
       <use x="63.623047" xlink:href="#DejaVuSans-52"/>
       <use x="127.246094" xlink:href="#DejaVuSans-58"/>
       <use x="160.9375" xlink:href="#DejaVuSans-53"/>
       <use x="224.560547" xlink:href="#DejaVuSans-50"/>
       <use x="288.183594" xlink:href="#DejaVuSans-58"/>
       <use x="321.875" xlink:href="#DejaVuSans-53"/>
       <use x="385.498047" xlink:href="#DejaVuSans-50"/>
      </g>
     </g>
    </g>
    <g id="xtick_16">
     <g id="line2d_16">
      <g>
       <use style="stroke:#000000;stroke-width:0.8;" x="494.068736" xlink:href="#m9a2fcfd583" y="448.56"/>
      </g>
     </g>
     <g id="text_16">
      <!-- 14:54:16 -->
      <g transform="translate(496.828111 500.4725)rotate(-90)scale(0.1 -0.1)">
       <use xlink:href="#DejaVuSans-49"/>
       <use x="63.623047" xlink:href="#DejaVuSans-52"/>
       <use x="127.246094" xlink:href="#DejaVuSans-58"/>
       <use x="160.9375" xlink:href="#DejaVuSans-53"/>
       <use x="224.560547" xlink:href="#DejaVuSans-52"/>
       <use x="288.183594" xlink:href="#DejaVuSans-58"/>
       <use x="321.875" xlink:href="#DejaVuSans-49"/>
       <use x="385.498047" xlink:href="#DejaVuSans-54"/>
      </g>
     </g>
    </g>
    <g id="xtick_17">
     <g id="line2d_17">
      <g>
       <use style="stroke:#000000;stroke-width:0.8;" x="518.183379" xlink:href="#m9a2fcfd583" y="448.56"/>
      </g>
     </g>
     <g id="text_17">
      <!-- 14:55:40 -->
      <g transform="translate(520.942754 500.4725)rotate(-90)scale(0.1 -0.1)">
       <use xlink:href="#DejaVuSans-49"/>
       <use x="63.623047" xlink:href="#DejaVuSans-52"/>
       <use x="127.246094" xlink:href="#DejaVuSans-58"/>
       <use x="160.9375" xlink:href="#DejaVuSans-53"/>
       <use x="224.560547" xlink:href="#DejaVuSans-53"/>
       <use x="288.183594" xlink:href="#DejaVuSans-58"/>
       <use x="321.875" xlink:href="#DejaVuSans-52"/>
       <use x="385.498047" xlink:href="#DejaVuSans-48"/>
      </g>
     </g>
    </g>
    <g id="xtick_18">
     <g id="line2d_18">
      <g>
       <use style="stroke:#000000;stroke-width:0.8;" x="542.298022" xlink:href="#m9a2fcfd583" y="448.56"/>
      </g>
     </g>
     <g id="text_18">
      <!-- 14:57:04 -->
      <g transform="translate(545.057397 500.4725)rotate(-90)scale(0.1 -0.1)">
       <use xlink:href="#DejaVuSans-49"/>
       <use x="63.623047" xlink:href="#DejaVuSans-52"/>
       <use x="127.246094" xlink:href="#DejaVuSans-58"/>
       <use x="160.9375" xlink:href="#DejaVuSans-53"/>
       <use x="224.560547" xlink:href="#DejaVuSans-55"/>
       <use x="288.183594" xlink:href="#DejaVuSans-58"/>
       <use x="321.875" xlink:href="#DejaVuSans-48"/>
       <use x="385.498047" xlink:href="#DejaVuSans-52"/>
      </g>
     </g>
    </g>
    <g id="xtick_19">
     <g id="line2d_19">
      <g>
       <use style="stroke:#000000;stroke-width:0.8;" x="566.412665" xlink:href="#m9a2fcfd583" y="448.56"/>
      </g>
     </g>
     <g id="text_19">
      <!-- 14:58:28 -->
      <g transform="translate(569.17204 500.4725)rotate(-90)scale(0.1 -0.1)">
       <use xlink:href="#DejaVuSans-49"/>
       <use x="63.623047" xlink:href="#DejaVuSans-52"/>
       <use x="127.246094" xlink:href="#DejaVuSans-58"/>
       <use x="160.9375" xlink:href="#DejaVuSans-53"/>
       <use x="224.560547" xlink:href="#DejaVuSans-56"/>
       <use x="288.183594" xlink:href="#DejaVuSans-58"/>
       <use x="321.875" xlink:href="#DejaVuSans-50"/>
       <use x="385.498047" xlink:href="#DejaVuSans-56"/>
      </g>
     </g>
    </g>
    <g id="xtick_20">
     <g id="line2d_20">
      <g>
       <use style="stroke:#000000;stroke-width:0.8;" x="590.527308" xlink:href="#m9a2fcfd583" y="448.56"/>
      </g>
     </g>
     <g id="text_20">
      <!-- 14:59:52 -->
      <g transform="translate(593.286683 500.4725)rotate(-90)scale(0.1 -0.1)">
       <use xlink:href="#DejaVuSans-49"/>
       <use x="63.623047" xlink:href="#DejaVuSans-52"/>
       <use x="127.246094" xlink:href="#DejaVuSans-58"/>
       <use x="160.9375" xlink:href="#DejaVuSans-53"/>
       <use x="224.560547" xlink:href="#DejaVuSans-57"/>
       <use x="288.183594" xlink:href="#DejaVuSans-58"/>
       <use x="321.875" xlink:href="#DejaVuSans-53"/>
       <use x="385.498047" xlink:href="#DejaVuSans-50"/>
      </g>
     </g>
    </g>
    <g id="xtick_21">
     <g id="line2d_21">
      <g>
       <use style="stroke:#000000;stroke-width:0.8;" x="614.641951" xlink:href="#m9a2fcfd583" y="448.56"/>
      </g>
     </g>
     <g id="text_21">
      <!-- 15:01:15 -->
      <g transform="translate(617.401326 500.4725)rotate(-90)scale(0.1 -0.1)">
       <use xlink:href="#DejaVuSans-49"/>
       <use x="63.623047" xlink:href="#DejaVuSans-53"/>
       <use x="127.246094" xlink:href="#DejaVuSans-58"/>
       <use x="160.9375" xlink:href="#DejaVuSans-48"/>
       <use x="224.560547" xlink:href="#DejaVuSans-49"/>
       <use x="288.183594" xlink:href="#DejaVuSans-58"/>
       <use x="321.875" xlink:href="#DejaVuSans-49"/>
       <use x="385.498047" xlink:href="#DejaVuSans-53"/>
      </g>
     </g>
    </g>
    <g id="text_22">
     <!-- timestamp -->
     <g transform="translate(354.264375 510.55125)scale(0.08 -0.08)">
      <defs>
       <path d="M 18.3125 70.21875 
L 18.3125 54.6875 
L 36.8125 54.6875 
L 36.8125 47.703125 
L 18.3125 47.703125 
L 18.3125 18.015625 
Q 18.3125 11.328125 20.140625 9.421875 
Q 21.96875 7.515625 27.59375 7.515625 
L 36.8125 7.515625 
L 36.8125 0 
L 27.59375 0 
Q 17.1875 0 13.234375 3.875 
Q 9.28125 7.765625 9.28125 18.015625 
L 9.28125 47.703125 
L 2.6875 47.703125 
L 2.6875 54.6875 
L 9.28125 54.6875 
L 9.28125 70.21875 
z
" id="DejaVuSans-116"/>
       <path d="M 9.421875 54.6875 
L 18.40625 54.6875 
L 18.40625 0 
L 9.421875 0 
z
M 9.421875 75.984375 
L 18.40625 75.984375 
L 18.40625 64.59375 
L 9.421875 64.59375 
z
" id="DejaVuSans-105"/>
       <path d="M 52 44.1875 
Q 55.375 50.25 60.0625 53.125 
Q 64.75 56 71.09375 56 
Q 79.640625 56 84.28125 50.015625 
Q 88.921875 44.046875 88.921875 33.015625 
L 88.921875 0 
L 79.890625 0 
L 79.890625 32.71875 
Q 79.890625 40.578125 77.09375 44.375 
Q 74.3125 48.1875 68.609375 48.1875 
Q 61.625 48.1875 57.5625 43.546875 
Q 53.515625 38.921875 53.515625 30.90625 
L 53.515625 0 
L 44.484375 0 
L 44.484375 32.71875 
Q 44.484375 40.625 41.703125 44.40625 
Q 38.921875 48.1875 33.109375 48.1875 
Q 26.21875 48.1875 22.15625 43.53125 
Q 18.109375 38.875 18.109375 30.90625 
L 18.109375 0 
L 9.078125 0 
L 9.078125 54.6875 
L 18.109375 54.6875 
L 18.109375 46.1875 
Q 21.1875 51.21875 25.484375 53.609375 
Q 29.78125 56 35.6875 56 
Q 41.65625 56 45.828125 52.96875 
Q 50 49.953125 52 44.1875 
z
" id="DejaVuSans-109"/>
       <path d="M 56.203125 29.59375 
L 56.203125 25.203125 
L 14.890625 25.203125 
Q 15.484375 15.921875 20.484375 11.0625 
Q 25.484375 6.203125 34.421875 6.203125 
Q 39.59375 6.203125 44.453125 7.46875 
Q 49.3125 8.734375 54.109375 11.28125 
L 54.109375 2.78125 
Q 49.265625 0.734375 44.1875 -0.34375 
Q 39.109375 -1.421875 33.890625 -1.421875 
Q 20.796875 -1.421875 13.15625 6.1875 
Q 5.515625 13.8125 5.515625 26.8125 
Q 5.515625 40.234375 12.765625 48.109375 
Q 20.015625 56 32.328125 56 
Q 43.359375 56 49.78125 48.890625 
Q 56.203125 41.796875 56.203125 29.59375 
z
M 47.21875 32.234375 
Q 47.125 39.59375 43.09375 43.984375 
Q 39.0625 48.390625 32.421875 48.390625 
Q 24.90625 48.390625 20.390625 44.140625 
Q 15.875 39.890625 15.1875 32.171875 
z
" id="DejaVuSans-101"/>
       <path d="M 44.28125 53.078125 
L 44.28125 44.578125 
Q 40.484375 46.53125 36.375 47.5 
Q 32.28125 48.484375 27.875 48.484375 
Q 21.1875 48.484375 17.84375 46.4375 
Q 14.5 44.390625 14.5 40.28125 
Q 14.5 37.15625 16.890625 35.375 
Q 19.28125 33.59375 26.515625 31.984375 
L 29.59375 31.296875 
Q 39.15625 29.25 43.1875 25.515625 
Q 47.21875 21.78125 47.21875 15.09375 
Q 47.21875 7.46875 41.1875 3.015625 
Q 35.15625 -1.421875 24.609375 -1.421875 
Q 20.21875 -1.421875 15.453125 -0.5625 
Q 10.6875 0.296875 5.421875 2 
L 5.421875 11.28125 
Q 10.40625 8.6875 15.234375 7.390625 
Q 20.0625 6.109375 24.8125 6.109375 
Q 31.15625 6.109375 34.5625 8.28125 
Q 37.984375 10.453125 37.984375 14.40625 
Q 37.984375 18.0625 35.515625 20.015625 
Q 33.0625 21.96875 24.703125 23.78125 
L 21.578125 24.515625 
Q 13.234375 26.265625 9.515625 29.90625 
Q 5.8125 33.546875 5.8125 39.890625 
Q 5.8125 47.609375 11.28125 51.796875 
Q 16.75 56 26.8125 56 
Q 31.78125 56 36.171875 55.265625 
Q 40.578125 54.546875 44.28125 53.078125 
z
" id="DejaVuSans-115"/>
       <path d="M 34.28125 27.484375 
Q 23.390625 27.484375 19.1875 25 
Q 14.984375 22.515625 14.984375 16.5 
Q 14.984375 11.71875 18.140625 8.90625 
Q 21.296875 6.109375 26.703125 6.109375 
Q 34.1875 6.109375 38.703125 11.40625 
Q 43.21875 16.703125 43.21875 25.484375 
L 43.21875 27.484375 
z
M 52.203125 31.203125 
L 52.203125 0 
L 43.21875 0 
L 43.21875 8.296875 
Q 40.140625 3.328125 35.546875 0.953125 
Q 30.953125 -1.421875 24.3125 -1.421875 
Q 15.921875 -1.421875 10.953125 3.296875 
Q 6 8.015625 6 15.921875 
Q 6 25.140625 12.171875 29.828125 
Q 18.359375 34.515625 30.609375 34.515625 
L 43.21875 34.515625 
L 43.21875 35.40625 
Q 43.21875 41.609375 39.140625 45 
Q 35.0625 48.390625 27.6875 48.390625 
Q 23 48.390625 18.546875 47.265625 
Q 14.109375 46.140625 10.015625 43.890625 
L 10.015625 52.203125 
Q 14.9375 54.109375 19.578125 55.046875 
Q 24.21875 56 28.609375 56 
Q 40.484375 56 46.34375 49.84375 
Q 52.203125 43.703125 52.203125 31.203125 
z
" id="DejaVuSans-97"/>
       <path d="M 18.109375 8.203125 
L 18.109375 -20.796875 
L 9.078125 -20.796875 
L 9.078125 54.6875 
L 18.109375 54.6875 
L 18.109375 46.390625 
Q 20.953125 51.265625 25.265625 53.625 
Q 29.59375 56 35.59375 56 
Q 45.5625 56 51.78125 48.09375 
Q 58.015625 40.1875 58.015625 27.296875 
Q 58.015625 14.40625 51.78125 6.484375 
Q 45.5625 -1.421875 35.59375 -1.421875 
Q 29.59375 -1.421875 25.265625 0.953125 
Q 20.953125 3.328125 18.109375 8.203125 
z
M 48.6875 27.296875 
Q 48.6875 37.203125 44.609375 42.84375 
Q 40.53125 48.484375 33.40625 48.484375 
Q 26.265625 48.484375 22.1875 42.84375 
Q 18.109375 37.203125 18.109375 27.296875 
Q 18.109375 17.390625 22.1875 11.75 
Q 26.265625 6.109375 33.40625 6.109375 
Q 40.53125 6.109375 44.609375 11.75 
Q 48.6875 17.390625 48.6875 27.296875 
z
" id="DejaVuSans-112"/>
      </defs>
      <use xlink:href="#DejaVuSans-116"/>
      <use x="39.208984" xlink:href="#DejaVuSans-105"/>
      <use x="66.992188" xlink:href="#DejaVuSans-109"/>
      <use x="164.404297" xlink:href="#DejaVuSans-101"/>
      <use x="225.927734" xlink:href="#DejaVuSans-115"/>
      <use x="278.027344" xlink:href="#DejaVuSans-116"/>
      <use x="317.236328" xlink:href="#DejaVuSans-97"/>
      <use x="378.515625" xlink:href="#DejaVuSans-109"/>
      <use x="475.927734" xlink:href="#DejaVuSans-112"/>
     </g>
    </g>
   </g>
   <g id="matplotlib.axis_2">
    <g id="ytick_1">
     <g id="line2d_22">
      <defs>
       <path d="M 0 0 
L -3.5 0 
" id="m495ae06dba" style="stroke:#000000;stroke-width:0.8;"/>
      </defs>
      <g>
       <use style="stroke:#000000;stroke-width:0.8;" x="108" xlink:href="#m495ae06dba" y="448.22217"/>
      </g>
     </g>
     <g id="text_23">
      <!-- 12200 -->
      <g transform="translate(69.1875 452.021389)scale(0.1 -0.1)">
       <use xlink:href="#DejaVuSans-49"/>
       <use x="63.623047" xlink:href="#DejaVuSans-50"/>
       <use x="127.246094" xlink:href="#DejaVuSans-50"/>
       <use x="190.869141" xlink:href="#DejaVuSans-48"/>
       <use x="254.492188" xlink:href="#DejaVuSans-48"/>
      </g>
     </g>
    </g>
    <g id="ytick_2">
     <g id="line2d_23">
      <g>
       <use style="stroke:#000000;stroke-width:0.8;" x="108" xlink:href="#m495ae06dba" y="389.177552"/>
      </g>
     </g>
     <g id="text_24">
      <!-- 12400 -->
      <g transform="translate(69.1875 392.976771)scale(0.1 -0.1)">
       <use xlink:href="#DejaVuSans-49"/>
       <use x="63.623047" xlink:href="#DejaVuSans-50"/>
       <use x="127.246094" xlink:href="#DejaVuSans-52"/>
       <use x="190.869141" xlink:href="#DejaVuSans-48"/>
       <use x="254.492188" xlink:href="#DejaVuSans-48"/>
      </g>
     </g>
    </g>
    <g id="ytick_3">
     <g id="line2d_24">
      <g>
       <use style="stroke:#000000;stroke-width:0.8;" x="108" xlink:href="#m495ae06dba" y="330.132934"/>
      </g>
     </g>
     <g id="text_25">
      <!-- 12600 -->
      <g transform="translate(69.1875 333.932153)scale(0.1 -0.1)">
       <use xlink:href="#DejaVuSans-49"/>
       <use x="63.623047" xlink:href="#DejaVuSans-50"/>
       <use x="127.246094" xlink:href="#DejaVuSans-54"/>
       <use x="190.869141" xlink:href="#DejaVuSans-48"/>
       <use x="254.492188" xlink:href="#DejaVuSans-48"/>
      </g>
     </g>
    </g>
    <g id="ytick_4">
     <g id="line2d_25">
      <g>
       <use style="stroke:#000000;stroke-width:0.8;" x="108" xlink:href="#m495ae06dba" y="271.088317"/>
      </g>
     </g>
     <g id="text_26">
      <!-- 12800 -->
      <g transform="translate(69.1875 274.887535)scale(0.1 -0.1)">
       <use xlink:href="#DejaVuSans-49"/>
       <use x="63.623047" xlink:href="#DejaVuSans-50"/>
       <use x="127.246094" xlink:href="#DejaVuSans-56"/>
       <use x="190.869141" xlink:href="#DejaVuSans-48"/>
       <use x="254.492188" xlink:href="#DejaVuSans-48"/>
      </g>
     </g>
    </g>
    <g id="ytick_5">
     <g id="line2d_26">
      <g>
       <use style="stroke:#000000;stroke-width:0.8;" x="108" xlink:href="#m495ae06dba" y="212.043699"/>
      </g>
     </g>
     <g id="text_27">
      <!-- 13000 -->
      <g transform="translate(69.1875 215.842917)scale(0.1 -0.1)">
       <use xlink:href="#DejaVuSans-49"/>
       <use x="63.623047" xlink:href="#DejaVuSans-51"/>
       <use x="127.246094" xlink:href="#DejaVuSans-48"/>
       <use x="190.869141" xlink:href="#DejaVuSans-48"/>
       <use x="254.492188" xlink:href="#DejaVuSans-48"/>
      </g>
     </g>
    </g>
    <g id="ytick_6">
     <g id="line2d_27">
      <g>
       <use style="stroke:#000000;stroke-width:0.8;" x="108" xlink:href="#m495ae06dba" y="152.999081"/>
      </g>
     </g>
     <g id="text_28">
      <!-- 13200 -->
      <g transform="translate(69.1875 156.798299)scale(0.1 -0.1)">
       <use xlink:href="#DejaVuSans-49"/>
       <use x="63.623047" xlink:href="#DejaVuSans-51"/>
       <use x="127.246094" xlink:href="#DejaVuSans-50"/>
       <use x="190.869141" xlink:href="#DejaVuSans-48"/>
       <use x="254.492188" xlink:href="#DejaVuSans-48"/>
      </g>
     </g>
    </g>
    <g id="ytick_7">
     <g id="line2d_28">
      <g>
       <use style="stroke:#000000;stroke-width:0.8;" x="108" xlink:href="#m495ae06dba" y="93.954463"/>
      </g>
     </g>
     <g id="text_29">
      <!-- 13400 -->
      <g transform="translate(69.1875 97.753682)scale(0.1 -0.1)">
       <use xlink:href="#DejaVuSans-49"/>
       <use x="63.623047" xlink:href="#DejaVuSans-51"/>
       <use x="127.246094" xlink:href="#DejaVuSans-52"/>
       <use x="190.869141" xlink:href="#DejaVuSans-48"/>
       <use x="254.492188" xlink:href="#DejaVuSans-48"/>
      </g>
     </g>
    </g>
    <g id="text_30">
     <!-- MB -->
     <g transform="translate(63.52375 260.715625)rotate(-90)scale(0.08 -0.08)">
      <defs>
       <path d="M 9.8125 72.90625 
L 24.515625 72.90625 
L 43.109375 23.296875 
L 61.8125 72.90625 
L 76.515625 72.90625 
L 76.515625 0 
L 66.890625 0 
L 66.890625 64.015625 
L 48.09375 14.015625 
L 38.1875 14.015625 
L 19.390625 64.015625 
L 19.390625 0 
L 9.8125 0 
z
" id="DejaVuSans-77"/>
       <path d="M 19.671875 34.8125 
L 19.671875 8.109375 
L 35.5 8.109375 
Q 43.453125 8.109375 47.28125 11.40625 
Q 51.125 14.703125 51.125 21.484375 
Q 51.125 28.328125 47.28125 31.5625 
Q 43.453125 34.8125 35.5 34.8125 
z
M 19.671875 64.796875 
L 19.671875 42.828125 
L 34.28125 42.828125 
Q 41.5 42.828125 45.03125 45.53125 
Q 48.578125 48.25 48.578125 53.8125 
Q 48.578125 59.328125 45.03125 62.0625 
Q 41.5 64.796875 34.28125 64.796875 
z
M 9.8125 72.90625 
L 35.015625 72.90625 
Q 46.296875 72.90625 52.390625 68.21875 
Q 58.5 63.53125 58.5 54.890625 
Q 58.5 48.1875 55.375 44.234375 
Q 52.25 40.28125 46.1875 39.3125 
Q 53.46875 37.75 57.5 32.78125 
Q 61.53125 27.828125 61.53125 20.40625 
Q 61.53125 10.640625 54.890625 5.3125 
Q 48.25 0 35.984375 0 
L 9.8125 0 
z
" id="DejaVuSans-66"/>
      </defs>
      <use xlink:href="#DejaVuSans-77"/>
      <use x="86.279297" xlink:href="#DejaVuSans-66"/>
     </g>
    </g>
   </g>
   <g id="line2d_29">
    <path clip-path="url(#pfd1a17f6e1)" d="M 132.349091 80.042682 
L 132.684017 79.44532 
L 133.018942 81.609849 
L 133.353868 80.927841 
L 133.688793 81.000395 
L 134.023719 79.962872 
L 134.358644 80.17207 
L 134.69357 79.874598 
L 135.028496 79.818973 
L 135.363421 79.970128 
L 135.698347 78.12 
L 136.033272 79.955617 
L 136.368198 92.634433 
L 136.703124 118.840947 
L 137.038049 132.96117 
L 137.372975 203.575586 
L 137.7079 227.879975 
L 138.042826 263.578975 
L 138.377752 281.282157 
L 139.047603 354.386385 
L 139.382528 385.092458 
L 139.717454 404.78604 
L 140.05238 411.088566 
L 140.387305 411.723414 
L 140.722231 413.114033 
L 141.057156 413.236165 
L 141.727008 414.085047 
L 142.061933 415.900107 
L 142.396859 415.586916 
L 142.731784 415.56515 
L 143.06671 415.81667 
L 143.401636 413.416341 
L 143.736561 417.36328 
L 144.071487 415.723559 
L 144.406412 415.981126 
L 144.741338 414.925465 
L 145.076264 416.435798 
L 145.411189 415.62682 
L 145.746115 415.562731 
L 146.08104 414.485304 
L 146.415966 413.941149 
L 146.750892 416.152837 
L 147.085817 416.628066 
L 147.420743 416.007729 
L 147.755668 414.526418 
L 148.090594 415.444226 
L 148.42552 415.173358 
L 148.760445 414.205971 
L 149.095371 414.079001 
L 149.430296 415.386183 
L 149.765222 414.792449 
L 150.100148 414.67999 
L 150.435073 414.785194 
L 150.769999 413.886733 
L 151.104924 415.32693 
L 151.774776 414.968997 
L 152.109701 413.585634 
L 152.444627 413.73316 
L 152.779552 414.6812 
L 153.114478 414.751335 
L 153.449404 414.313593 
L 153.784329 412.945949 
L 154.119255 416.649832 
L 154.45418 416.852983 
L 154.789106 416.915864 
L 155.124032 415.435762 
L 155.458957 415.76951 
L 155.793883 416.967861 
L 156.128808 417.198824 
L 156.463734 415.762255 
L 156.798659 415.013739 
L 157.133585 417.116596 
L 157.803436 417.220591 
L 158.138362 416.378964 
L 158.473287 414.861375 
L 158.808213 415.649796 
L 159.143139 414.439353 
L 159.478064 414.3801 
L 159.81299 413.660606 
L 160.147915 415.95936 
L 160.482841 415.473248 
L 160.817767 415.567568 
L 161.152692 414.820262 
L 161.487618 415.218099 
L 161.822543 416.846937 
L 162.492395 416.191533 
L 162.82732 415.486549 
L 163.162246 416.958187 
L 163.497171 417.053716 
L 163.832097 416.809451 
L 164.167023 415.983544 
L 164.501948 415.875923 
L 164.836874 416.63774 
L 165.171799 416.422496 
L 165.841651 414.571159 
L 166.176576 417.541038 
L 166.511502 416.139536 
L 166.846427 416.052471 
L 167.181353 415.158847 
L 167.516279 414.705384 
L 167.851204 416.514398 
L 168.18613 416.897725 
L 168.521055 420.992191 
L 168.855981 419.930483 
L 169.190907 421.067163 
L 169.525832 418.382664 
L 169.860758 418.364526 
L 170.195683 416.739316 
L 170.530609 416.994464 
L 170.865535 415.455109 
L 171.20046 419.90388 
L 171.535386 420.022385 
L 171.870311 415.728396 
L 172.205237 418.917146 
L 172.540163 416.878377 
L 172.875088 417.091203 
L 173.210014 415.357161 
L 173.879865 416.060935 
L 174.549716 415.867458 
L 174.884642 414.881932 
L 175.219567 417.654705 
L 175.554493 418.391129 
L 175.889419 418.695856 
L 176.224344 416.688528 
L 176.894195 417.368117 
L 177.564047 416.992045 
L 177.898972 415.724768 
L 178.233898 418.496332 
L 178.568823 417.866321 
L 178.903749 418.070682 
L 179.238675 416.719968 
L 179.5736 416.225391 
L 179.908526 416.487795 
L 180.243451 416.489004 
L 180.578377 416.236274 
L 180.913302 414.559067 
L 181.248228 416.848147 
L 181.583154 417.797395 
L 181.918079 417.012602 
L 182.253005 415.410368 
L 182.58793 415.967824 
L 182.922856 417.265332 
L 183.257782 417.087575 
L 183.592707 417.092412 
L 183.927633 416.008938 
L 184.262558 417.148037 
L 184.597484 417.781675 
L 184.93241 417.995709 
L 185.267335 416.118979 
L 185.602261 417.712749 
L 185.937186 417.171012 
L 186.607038 417.166175 
L 186.941963 416.096003 
L 187.276889 415.499851 
L 187.611814 415.862621 
L 187.94674 415.932757 
L 188.281666 414.383728 
L 188.616591 415.782812 
L 188.951517 417.762327 
L 189.621368 417.728469 
L 189.956294 416.671598 
L 190.291219 417.681309 
L 190.96107 417.681309 
L 191.295996 416.271342 
L 191.630922 417.570059 
L 191.965847 418.069473 
L 192.300773 418.144445 
L 192.970624 415.83239 
L 193.30555 416.96907 
L 193.640475 416.972698 
L 193.975401 415.978707 
L 194.310326 415.472039 
L 194.645252 416.518026 
L 194.980178 418.368153 
L 195.315103 418.001756 
L 195.650029 418.174676 
L 195.984954 417.348769 
L 196.31988 418.955841 
L 196.654806 418.87845 
L 196.989731 417.144409 
L 197.324657 416.123816 
L 197.659582 416.168557 
L 197.994508 416.84331 
L 198.329434 416.985999 
L 198.664359 416.863867 
L 198.999285 415.977498 
L 199.33421 417.814324 
L 199.669136 418.363316 
L 200.004062 417.381419 
L 200.338987 415.973871 
L 200.673913 416.174603 
L 201.008838 417.401976 
L 201.343764 417.369326 
L 201.67869 417.524108 
L 202.013615 416.626857 
L 202.348541 419.311356 
L 202.683466 418.454009 
L 203.018392 419.015093 
L 203.688243 416.382592 
L 204.023169 417.746607 
L 204.69302 417.626893 
L 205.027945 416.319711 
L 205.362871 417.354816 
L 205.697797 417.383837 
L 206.032722 417.145618 
L 206.367648 415.80095 
L 206.702573 417.171012 
L 207.037499 417.856648 
L 207.372425 417.116596 
L 207.70735 416.977535 
L 208.042276 416.330595 
L 208.377201 417.838509 
L 208.712127 417.901389 
L 209.381978 416.457564 
L 209.716904 416.709085 
L 210.051829 419.152946 
L 210.386755 419.360934 
L 210.721681 419.261777 
L 211.056606 417.469693 
L 211.391532 421.952322 
L 211.726457 422.217145 
L 212.061383 420.945031 
L 212.396309 421.02484 
L 212.731234 418.16863 
L 213.06616 419.607618 
L 213.401085 418.171048 
L 213.736011 415.842064 
L 214.070937 415.124988 
L 214.405862 417.744189 
L 215.075713 417.372954 
L 215.410639 416.588161 
L 215.745565 416.429752 
L 216.08049 418.255695 
L 216.750341 417.588198 
L 217.085267 416.595417 
L 217.420193 422.987426 
L 217.755118 422.864085 
L 218.090044 422.987426 
L 218.424969 421.926928 
L 218.759895 417.780466 
L 219.094821 419.081601 
L 219.764672 417.954595 
L 220.099597 417.119015 
L 220.434523 418.76841 
L 221.104374 416.823962 
L 221.4393 415.907363 
L 221.774225 417.304028 
L 222.109151 417.545874 
L 222.779002 417.665589 
L 223.113928 416.503515 
L 223.783779 417.524108 
L 224.118705 417.437043 
L 224.45363 416.326967 
L 224.788556 417.254449 
L 225.123481 418.521726 
L 226.128258 417.576105 
L 226.463184 418.223045 
L 226.798109 418.069473 
L 227.46796 417.117806 
L 227.802886 417.377791 
L 228.137812 417.830044 
L 228.472737 416.932793 
L 228.807663 417.117806 
L 229.142588 415.682445 
L 229.81244 418.173467 
L 230.147365 418.364526 
L 230.482291 417.530154 
L 230.817216 417.36328 
L 231.152142 419.641477 
L 231.487068 420.161447 
L 231.821993 419.772074 
L 232.156919 418.210953 
L 232.491844 418.139608 
L 232.82677 417.793767 
L 233.161696 417.684936 
L 233.496621 416.607509 
L 233.831547 416.437007 
L 234.166472 418.082774 
L 234.501398 417.348769 
L 234.836324 416.281016 
L 235.171249 416.094794 
L 235.506175 417.912272 
L 235.8411 417.213335 
L 236.176026 417.460019 
L 236.510952 416.394684 
L 236.845877 416.059726 
L 237.180803 419.963133 
L 237.850654 419.223082 
L 238.18558 417.478157 
L 238.520505 418.757527 
L 238.855431 418.346387 
L 239.190356 418.538655 
L 239.525282 417.409231 
L 239.860208 418.5314 
L 240.195133 420.145727 
L 240.864984 420.373063 
L 241.869761 417.919528 
L 242.204687 417.859066 
L 242.539612 417.035578 
L 242.874538 417.469693 
L 243.209464 418.467311 
L 243.544389 418.476984 
L 243.879315 418.34276 
L 244.21424 417.272588 
L 244.549166 418.826453 
L 245.219017 418.381455 
L 245.553943 417.310074 
L 246.223794 419.649941 
L 246.55872 419.65115 
L 246.893645 419.414141 
L 247.228571 418.364526 
L 247.563496 419.707984 
L 248.233348 418.573723 
L 248.568273 417.528945 
L 248.903199 418.65837 
L 249.238124 420.940194 
L 249.907975 420.375481 
L 250.242901 418.792594 
L 250.577827 418.196442 
L 250.912752 418.426197 
L 251.247678 418.386292 
L 251.582603 417.60029 
L 251.917529 417.69461 
L 252.252455 419.109414 
L 252.58738 418.795013 
L 252.922306 418.889333 
L 253.257231 417.682518 
L 253.592157 418.739388 
L 253.927083 419.038069 
L 254.262008 418.686182 
L 254.596934 421.824144 
L 254.931859 423.15551 
L 255.266785 423.355034 
L 255.601711 420.208607 
L 255.936636 420.20498 
L 256.271562 419.543529 
L 256.606487 421.051443 
L 256.941413 419.299263 
L 257.276339 423.353824 
L 257.611264 422.657306 
L 257.94619 419.196479 
L 258.281115 422.474711 
L 258.616041 422.830226 
L 258.950967 422.639167 
L 259.285892 420.207398 
L 259.620818 419.880905 
L 260.290669 419.506042 
L 260.625595 419.704357 
L 260.96052 418.744225 
L 261.295446 419.906299 
L 261.630371 419.946203 
L 261.965297 419.578596 
L 262.300223 418.492704 
L 262.970074 420.804759 
L 263.304999 419.545947 
L 263.639925 419.597944 
L 263.974851 418.607582 
L 264.309776 420.837409 
L 264.644702 420.26665 
L 264.979627 420.149355 
L 265.314553 418.741807 
L 265.649479 421.520626 
L 265.984404 420.970425 
L 266.31933 421.131253 
L 266.654255 421.099813 
L 266.989181 419.784166 
L 267.324107 419.947413 
L 267.659032 420.25093 
L 267.993958 420.215863 
L 268.328883 419.167457 
L 268.663809 419.671707 
L 268.998735 420.697138 
L 269.33366 420.379109 
L 269.668586 420.279952 
L 270.003511 419.091275 
L 270.338437 419.994573 
L 270.673363 419.524181 
L 271.008288 419.437116 
L 271.343214 418.351224 
L 271.678139 418.449172 
L 272.013065 420.292044 
L 272.34799 420.560494 
L 272.682916 420.676581 
L 273.017842 418.323412 
L 273.687693 418.522935 
L 274.022618 418.408058 
L 274.357544 417.643822 
L 274.69247 418.849428 
L 275.027395 420.663279 
L 275.362321 420.422642 
L 275.697246 420.689882 
L 276.032172 419.703148 
L 276.367098 420.432315 
L 276.702023 419.405676 
L 277.036949 419.260568 
L 277.371874 418.220627 
L 277.7068 418.363316 
L 278.041726 420.508497 
L 278.376651 420.444408 
L 278.711577 420.966797 
L 279.046502 420.039314 
L 279.381428 421.104649 
L 280.051279 421.420259 
L 280.386205 420.057453 
L 280.72113 421.057489 
L 281.056056 423.084165 
L 281.390982 421.850747 
L 281.725907 422.036969 
L 282.060833 420.51938 
L 282.395758 420.224327 
L 282.730684 419.339168 
L 283.06561 419.111832 
L 283.400535 418.009011 
L 284.070386 420.212235 
L 284.740238 419.675335 
L 285.075163 418.409267 
L 285.410089 421.107068 
L 285.745014 421.879768 
L 286.414866 419.873649 
L 286.749791 419.814397 
L 287.084717 420.952286 
L 287.419642 420.695928 
L 287.754568 420.954704 
L 288.089494 419.914763 
L 288.424419 421.420259 
L 288.759345 421.48314 
L 289.09427 421.143345 
L 289.429196 420.322275 
L 289.764122 420.738252 
L 290.099047 418.780502 
L 290.433973 418.9897 
L 290.768898 418.608791 
L 291.103824 417.588198 
L 291.43875 420.527845 
L 291.773675 420.496405 
L 292.108601 420.812015 
L 292.443526 419.427442 
L 292.778452 419.050161 
L 293.113378 419.845837 
L 293.448303 420.226746 
L 293.783229 424.506224 
L 294.118154 423.627111 
L 294.45308 425.993582 
L 294.788006 426.488158 
L 295.122931 426.357561 
L 295.457857 425.551002 
L 295.792782 425.044333 
L 296.127708 425.767455 
L 296.462633 425.553421 
L 296.797559 426.114505 
L 297.132485 425.264414 
L 297.46741 426.945249 
L 297.802336 429.870385 
L 298.137261 429.842573 
L 298.472187 428.385446 
L 298.807113 425.454263 
L 299.476964 426.206407 
L 299.811889 425.877495 
L 300.146815 423.529163 
L 300.481741 425.962142 
L 300.816666 426.049206 
L 301.151592 425.796476 
L 301.486517 424.168848 
L 301.821443 424.957268 
L 302.156369 426.415604 
L 302.491294 426.350306 
L 302.82622 425.72755 
L 303.161145 424.784348 
L 303.496071 426.337004 
L 303.830997 427.225791 
L 304.500848 425.236601 
L 304.835773 425.662252 
L 305.170699 426.520808 
L 305.84055 426.347887 
L 306.175476 424.757745 
L 306.510401 425.546165 
L 306.845327 425.561885 
L 307.180253 425.413149 
L 307.515178 423.757708 
L 307.850104 424.823043 
L 308.185029 426.328539 
L 308.519955 425.27046 
L 308.854881 425.246275 
L 309.189806 424.112014 
L 309.524732 425.671925 
L 309.859657 426.029859 
L 310.194583 425.939166 
L 310.529509 425.489331 
L 310.864434 425.765036 
L 311.19936 426.34305 
L 311.534285 426.531691 
L 311.869211 426.428906 
L 312.204137 425.438543 
L 312.539062 425.734806 
L 313.208913 425.64895 
L 313.543839 425.015311 
L 314.21369 428.06379 
L 314.548616 428.039605 
L 315.218467 426.783211 
L 315.553393 426.73726 
L 316.223244 426.83279 
L 316.558169 425.778338 
L 316.893095 425.75899 
L 317.228021 426.063717 
L 317.562946 426.072182 
L 317.897872 425.751735 
L 318.232797 425.037078 
L 318.567723 427.150818 
L 318.902648 426.986363 
L 319.5725 425.243857 
L 319.907425 425.87024 
L 320.242351 426.941621 
L 320.577276 426.899298 
L 320.912202 427.103658 
L 321.247128 426.46881 
L 321.582053 426.567968 
L 321.916979 426.796513 
L 322.58683 424.982662 
L 323.256681 426.651405 
L 323.926532 427.239092 
L 324.261458 426.410767 
L 324.596384 426.704611 
L 324.931309 426.795304 
L 325.266235 427.106077 
L 325.60116 425.685227 
L 325.936086 424.991127 
L 326.271012 426.997246 
L 326.940863 426.933156 
L 327.275788 425.812197 
L 327.610714 427.333413 
L 327.94564 425.957305 
L 328.280565 425.893215 
L 328.615491 425.404685 
L 328.950416 424.554593 
L 329.285342 426.684054 
L 329.620268 426.566758 
L 329.955193 426.925901 
L 330.290119 425.704575 
L 330.625044 426.270496 
L 330.95997 427.257231 
L 331.294896 427.403548 
L 331.629821 426.976689 
L 331.964747 426.355142 
L 332.299672 428.502742 
L 332.634598 427.572841 
L 332.969524 426.297099 
L 333.304449 426.242684 
L 333.639375 426.676799 
L 333.9743 428.15811 
L 334.309226 428.243966 
L 334.644152 424.762582 
L 334.979077 423.744407 
L 335.314003 424.176103 
L 335.648928 424.18094 
L 335.983854 424.058808 
L 336.31878 423.032168 
L 336.653705 423.06119 
L 336.988631 425.003219 
L 337.323556 424.783139 
L 337.993408 423.403403 
L 338.328333 425.035868 
L 338.663259 424.919782 
L 339.33311 423.280061 
L 339.668036 423.866539 
L 340.002961 425.31762 
L 340.672812 425.391383 
L 341.007738 428.901789 
L 341.342663 429.507615 
L 341.677589 429.268187 
L 342.012515 426.538946 
L 342.34744 425.646532 
L 342.682366 425.346642 
L 343.017291 426.58006 
L 343.352217 428.705893 
L 343.687143 429.472547 
L 344.022068 428.794167 
L 344.356994 426.242684 
L 344.691919 426.031068 
L 345.361771 423.323593 
L 346.031622 426.259613 
L 346.366547 425.494168 
L 346.701473 425.381709 
L 347.036399 424.884714 
L 347.371324 424.640449 
L 347.70625 424.630775 
L 348.376101 423.275224 
L 348.711027 423.977789 
L 349.045952 425.616301 
L 349.715803 425.451845 
L 350.050729 424.443344 
L 350.385655 425.842427 
L 350.72058 425.784384 
L 351.055506 425.883541 
L 351.390431 424.6864 
L 351.725357 427.175003 
L 352.060283 425.102376 
L 352.395208 424.492922 
L 352.730134 424.436088 
L 353.065059 423.705711 
L 353.399985 425.944003 
L 353.734911 425.861775 
L 354.069836 425.922237 
L 354.404762 425.078192 
L 354.739687 425.220881 
L 355.074613 425.992372 
L 355.744464 425.856938 
L 356.07939 424.295817 
L 356.414315 426.4543 
L 356.749241 426.58006 
L 357.419092 424.657378 
L 357.754018 425.745689 
L 358.423869 426.882368 
L 358.758795 426.710657 
L 359.09372 425.646532 
L 359.428646 425.453054 
L 359.763571 425.618719 
L 360.098497 424.177312 
L 360.433423 424.375627 
L 360.768348 425.524399 
L 361.103274 427.630884 
L 361.438199 427.178631 
L 361.773125 426.973061 
L 362.108051 426.206407 
L 362.442976 426.555875 
L 362.777902 426.549829 
L 363.447753 424.283725 
L 363.782679 426.262031 
L 364.117604 426.73726 
L 364.45253 426.601826 
L 364.787455 424.982662 
L 365.122381 425.404685 
L 365.457306 427.728832 
L 365.792232 427.156864 
L 366.462083 425.23781 
L 367.131934 427.603072 
L 367.46686 427.17984 
L 367.801786 427.409594 
L 368.136711 426.375699 
L 368.471637 428.154482 
L 368.806562 426.321284 
L 369.141488 425.119306 
L 369.476414 424.958477 
L 369.811339 426.037114 
L 370.146265 427.520844 
L 370.48119 427.387828 
L 370.816116 427.02143 
L 371.151042 425.23781 
L 371.485967 427.71553 
L 371.820893 427.457964 
L 372.155818 427.343086 
L 372.490744 426.416813 
L 372.82567 426.427697 
L 373.160595 427.939239 
L 373.495521 428.146018 
L 373.830446 427.675626 
L 374.165372 426.511134 
L 374.835223 426.661079 
L 375.170149 424.194242 
L 375.505074 423.766173 
L 375.84 426.235428 
L 376.174926 426.633266 
L 376.509851 426.009302 
L 376.844777 426.359979 
L 377.179702 425.397429 
L 377.514628 426.132643 
L 377.849554 426.520808 
L 378.184479 426.237847 
L 378.519405 425.363571 
L 379.189256 427.327366 
L 379.859107 427.184677 
L 380.194033 426.525644 
L 380.528958 427.034732 
L 380.863884 426.716703 
L 381.19881 424.925828 
L 381.868661 425.164047 
L 382.203586 425.801313 
L 382.538512 425.687645 
L 382.873438 425.769873 
L 383.543289 425.488122 
L 383.878214 428.956204 
L 384.21314 429.518498 
L 384.548066 428.555948 
L 384.882991 428.801422 
L 385.217917 430.92 
L 385.552842 427.335831 
L 386.222694 426.133853 
L 386.557619 428.368517 
L 387.22747 426.39142 
L 387.897321 425.809778 
L 388.232247 426.307982 
L 388.567173 425.843637 
L 388.902098 426.020185 
L 389.237024 424.448181 
L 389.571949 425.398639 
L 390.241801 425.997209 
L 390.576726 424.390138 
L 390.911652 424.994755 
L 391.246577 426.948876 
L 391.581503 426.75419 
L 392.251354 425.203952 
L 392.58628 426.419232 
L 392.921205 426.604245 
L 393.591057 424.254703 
L 393.925982 424.633194 
L 394.260908 426.820698 
L 394.930759 426.110877 
L 395.265685 425.541328 
L 395.60061 426.78563 
L 395.935536 425.953677 
L 396.270461 425.876286 
L 396.605387 424.771046 
L 396.940313 425.390174 
L 397.275238 426.867858 
L 397.610164 426.7687 
L 397.945089 426.924692 
L 398.280015 425.840009 
L 398.614941 427.391456 
L 398.949866 426.840045 
L 399.284792 426.680426 
L 399.619717 425.841218 
L 399.954643 427.484567 
L 400.289569 427.986399 
L 400.624494 427.766318 
L 400.95942 425.621138 
L 401.294345 426.034696 
L 401.629271 426.928319 
L 401.964197 426.963387 
L 402.299122 426.523226 
L 402.634048 425.167675 
L 402.968973 425.713039 
L 403.303899 428.266941 
L 403.638825 427.881196 
L 403.97375 428.109741 
L 404.308676 427.518425 
L 404.643601 427.707066 
L 404.978527 426.333376 
L 405.313453 426.48574 
L 405.648378 425.194278 
L 405.983304 426.239056 
L 406.318229 427.797758 
L 406.653155 427.872731 
L 406.988081 427.69981 
L 407.323006 426.586106 
L 407.657932 427.023849 
L 407.992857 427.012966 
L 408.327783 426.619965 
L 408.662709 425.467565 
L 408.997634 427.029895 
L 409.33256 427.919891 
L 410.002411 426.994827 
L 410.337337 426.078228 
L 410.672262 428.309264 
L 411.007188 427.644186 
L 411.342113 427.970679 
L 411.677039 427.032313 
L 412.011964 427.520844 
L 412.34689 428.545065 
L 412.681816 428.668407 
L 413.016741 428.589807 
L 414.021518 427.958586 
L 414.356444 428.033559 
L 414.691369 426.403512 
L 415.36122 427.606699 
L 415.696146 427.588561 
L 416.031072 426.009302 
L 416.365997 425.231764 
L 416.700923 427.306809 
L 417.035848 427.031104 
L 417.7057 425.794058 
L 418.040625 426.035905 
L 418.375551 427.704647 
L 419.045402 427.080683 
L 419.380328 426.370863 
L 419.715253 427.130261 
L 420.050179 427.003292 
L 420.385104 426.56434 
L 420.72003 425.662252 
L 421.054956 427.744552 
L 421.389881 426.558294 
L 421.724807 426.363607 
L 422.059732 424.479621 
L 422.394658 425.255949 
L 422.729584 426.5329 
L 423.064509 425.410731 
L 423.73436 424.662215 
L 424.069286 426.91139 
L 424.404212 427.21128 
L 424.739137 427.217326 
L 425.408988 425.546165 
L 425.743914 426.789257 
L 426.07884 426.530481 
L 426.413765 425.511097 
L 426.748691 427.745761 
L 427.083616 428.143599 
L 427.753468 428.483394 
L 428.088393 424.238983 
L 428.423319 424.995964 
L 428.758244 426.75419 
L 429.09317 426.45309 
L 429.428096 430.356497 
L 429.763021 429.917545 
L 430.097947 430.468956 
L 430.432872 427.172585 
L 430.767798 425.928283 
L 431.102724 425.338177 
L 431.437649 425.27046 
L 431.772575 426.347887 
L 432.1075 426.410767 
L 432.442426 426.31161 
L 432.777352 425.600581 
L 433.112277 426.709448 
L 433.447203 426.803768 
L 433.782128 426.514761 
L 434.117054 425.252321 
L 434.451979 426.032277 
L 434.786905 425.3805 
L 435.121831 425.104795 
L 435.456756 425.203952 
L 435.791682 424.010438 
L 436.126607 425.930701 
L 436.461533 426.64294 
L 436.796459 426.716703 
L 437.131384 425.15921 
L 437.46631 424.800068 
L 437.801235 424.913736 
L 438.136161 424.186986 
L 438.806012 421.901535 
L 439.140938 423.905235 
L 439.475863 423.6126 
L 439.810789 423.498932 
L 440.145715 422.954777 
L 440.48064 423.43968 
L 440.815566 424.18094 
L 441.150491 423.883469 
L 441.485417 423.292153 
L 441.820343 422.448108 
L 442.155268 424.584824 
L 442.825119 424.514689 
L 443.160045 423.208716 
L 444.164822 423.394938 
L 444.499747 423.702084 
L 444.834673 422.209889 
L 445.169599 424.675517 
L 445.504524 423.490468 
L 445.83945 423.623483 
L 446.174375 421.510952 
L 446.509301 421.837445 
L 446.844227 424.061226 
L 447.179152 423.254667 
L 447.514078 423.58116 
L 447.849003 422.273979 
L 448.183929 423.605345 
L 448.518855 423.119233 
L 448.85378 423.02975 
L 449.188706 422.289699 
L 449.523631 422.554521 
L 449.858557 423.053934 
L 450.193483 423.338104 
L 450.528408 422.843528 
L 450.863334 421.685082 
L 451.198259 424.159174 
L 451.533185 423.107141 
L 451.868111 423.192996 
L 452.537962 419.993364 
L 452.872887 421.144554 
L 453.207813 420.704393 
L 453.542739 421.172367 
L 453.877664 420.86643 
L 454.21259 423.267969 
L 454.547515 423.176067 
L 454.882441 422.877386 
L 455.217367 421.826562 
L 455.552292 421.808424 
L 455.887218 423.415495 
L 456.222143 423.021285 
L 456.557069 423.086584 
L 456.891994 422.028504 
L 457.22692 422.58717 
L 457.561846 422.683909 
L 457.896771 421.039351 
L 458.231697 420.248512 
L 458.901548 422.11436 
L 459.236474 422.023667 
L 459.571399 421.148182 
L 459.906325 419.578596 
L 460.24125 420.169912 
L 460.911102 419.896625 
L 461.246027 418.362107 
L 461.580953 418.250858 
L 461.915878 420.526636 
L 462.250804 420.383946 
L 462.58573 419.944994 
L 462.920655 419.074346 
L 463.255581 421.15181 
L 463.590506 419.902671 
L 463.925432 420.269069 
L 464.260358 418.541074 
L 464.595283 419.55683 
L 464.930209 421.301755 
L 465.265134 419.822862 
L 465.60006 419.496369 
L 465.934986 418.653533 
L 466.269911 419.044115 
L 466.604837 418.980026 
L 466.939762 417.903808 
L 467.274688 417.516853 
L 467.609614 418.225464 
L 467.944539 420.624584 
L 468.279465 419.017512 
L 468.61439 418.9897 
L 468.949316 418.033196 
L 469.284242 419.236383 
L 469.619167 417.85302 
L 469.954093 420.966797 
L 470.289018 419.890579 
L 470.623944 420.600399 
L 471.628721 418.996955 
L 471.963646 416.965442 
L 472.633498 418.213371 
L 472.968423 418.913518 
L 473.303349 417.392302 
L 473.638274 417.601499 
L 473.9732 420.195306 
L 474.308126 418.931656 
L 474.643051 418.767201 
L 474.977977 418.080356 
L 475.312902 417.906226 
L 475.647828 418.022313 
L 475.982754 417.927992 
L 476.317679 416.689737 
L 476.652605 417.209707 
L 476.98753 419.290799 
L 477.992307 416.366872 
L 478.327233 418.322203 
L 478.997084 418.473357 
L 479.33201 417.905017 
L 479.666935 416.941258 
L 480.001861 418.67288 
L 480.336786 418.776874 
L 480.671712 417.93162 
L 481.006637 414.848074 
L 481.341563 415.985963 
L 481.676489 415.814252 
L 482.34634 414.962951 
L 482.681265 414.123743 
L 483.016191 415.381346 
L 483.686042 415.031877 
L 484.020968 414.187832 
L 485.025745 414.439353 
L 485.36067 413.072919 
L 485.695596 412.643641 
L 486.030521 414.053607 
L 486.365447 414.187832 
L 486.700373 414.594135 
L 487.035298 413.473175 
L 487.370224 415.877132 
L 487.705149 415.601427 
L 488.040075 413.631585 
L 488.375001 412.945949 
L 488.709926 413.24463 
L 489.044852 415.135872 
L 489.379777 414.509488 
L 489.714703 414.579624 
L 490.384554 413.076546 
L 490.71948 413.248258 
L 491.389331 410.857602 
L 491.724257 411.359434 
L 492.059182 413.063245 
L 492.394108 412.843164 
L 492.729033 412.361889 
L 493.063959 411.211908 
L 493.398885 412.578342 
L 493.73381 412.529973 
L 494.068736 411.238511 
L 494.403661 410.469438 
L 494.738587 411.251813 
L 495.073513 412.409049 
L 495.408438 412.504579 
L 495.743364 412.429606 
L 496.078289 411.947122 
L 496.413215 413.069291 
L 496.748141 413.297836 
L 497.083066 413.174494 
L 497.417992 412.432025 
L 497.752917 413.179331 
L 498.087843 414.785194 
L 498.422769 414.405494 
L 499.09262 411.340087 
L 499.427545 411.896334 
L 500.097397 412.059581 
L 500.432322 411.204653 
L 500.767248 410.945877 
L 501.102173 412.262732 
L 501.437099 411.167166 
L 501.772025 410.994246 
L 502.10695 409.493587 
L 502.441876 410.520226 
L 502.776801 409.832172 
L 503.111727 409.760827 
L 503.446652 408.337559 
L 503.781578 408.678563 
L 504.116504 409.526236 
L 504.451429 409.496005 
L 505.12128 407.024331 
L 505.456206 410.62422 
L 505.791132 410.748771 
L 506.126057 410.346097 
L 506.460983 408.375046 
L 506.795908 409.067936 
L 507.130834 409.047379 
L 507.46576 408.691865 
L 508.135611 407.23111 
L 508.470536 410.393257 
L 508.805462 410.220336 
L 509.810239 407.182741 
L 510.145164 407.327849 
L 510.815016 405.410004 
L 511.149941 405.339869 
L 511.484867 407.523745 
L 511.819792 412.602527 
L 512.154718 412.528764 
L 512.489644 411.462219 
L 512.824569 414.300291 
L 513.159495 416.10084 
L 513.829346 415.950895 
L 514.164272 411.405385 
L 514.499197 413.825062 
L 514.834123 413.59168 
L 515.169048 411.925356 
L 515.503974 414.752544 
L 515.8389 414.497396 
L 516.173825 415.551848 
L 516.508751 412.314729 
L 516.843676 412.030559 
L 517.178602 411.363062 
L 517.513528 411.075265 
L 518.183379 411.275997 
L 518.518304 409.962769 
L 518.85323 409.838218 
L 519.188156 412.09223 
L 519.858007 412.490068 
L 520.192932 410.734261 
L 520.527858 411.972516 
L 520.862784 412.02935 
L 521.197709 412.248221 
L 521.532635 410.93983 
L 521.86756 411.244557 
L 522.202486 410.800768 
L 522.537412 410.586734 
L 522.872337 410.188896 
L 523.207263 409.52019 
L 523.542188 412.416305 
L 524.21204 410.548039 
L 524.546965 409.232392 
L 524.881891 409.198534 
L 525.216816 409.552839 
L 525.551742 408.872041 
L 525.886668 407.818798 
L 526.221593 407.170649 
L 526.556519 408.645914 
L 526.891444 408.631403 
L 527.22637 408.360535 
L 527.561295 407.586625 
L 527.896221 408.11506 
L 528.231147 409.839428 
L 528.566072 409.401685 
L 528.900998 409.687064 
L 529.235923 409.261414 
L 529.570849 411.052289 
L 529.905775 409.832172 
L 530.2407 409.942212 
L 530.575626 408.664052 
L 531.245477 407.856284 
L 531.915328 408.495969 
L 532.250254 406.842946 
L 532.585179 407.938512 
L 532.920105 407.820007 
L 533.255031 406.046061 
L 533.589956 406.01583 
L 533.924882 406.354416 
L 534.259807 407.818798 
L 534.594733 407.408868 
L 534.929659 407.313338 
L 535.264584 406.771602 
L 535.59951 408.907108 
L 535.934435 407.851447 
L 536.269361 407.823635 
L 536.604287 406.720814 
L 536.939212 406.634958 
L 537.274138 407.639831 
L 537.943989 407.003774 
L 538.278915 406.390693 
L 538.61384 405.030305 
L 538.948766 405.391866 
L 539.283691 404.119752 
L 539.618617 403.921438 
L 539.953543 404.573215 
L 540.288468 407.746244 
L 540.958319 407.333895 
L 541.293245 405.513998 
L 541.963096 407.233529 
L 542.298022 406.844156 
L 542.632947 404.913009 
L 543.302799 407.765592 
L 543.637724 407.48384 
L 543.97265 406.967497 
L 544.307575 405.747381 
L 544.642501 407.167021 
L 544.977427 406.983217 
L 545.647278 404.881569 
L 546.317129 407.256504 
L 546.652055 407.572114 
L 546.98698 407.435471 
L 547.321906 406.501942 
L 547.991757 405.708685 
L 548.326683 404.972262 
L 548.661608 403.382119 
L 548.996534 402.902053 
L 549.331459 403.905717 
L 549.666385 403.874277 
L 550.00131 404.260023 
L 550.336236 403.035069 
L 550.671162 405.515208 
L 551.006087 405.170576 
L 551.675938 403.79084 
L 552.010864 404.632467 
L 552.34579 408.791022 
L 552.680715 407.971161 
L 553.015641 406.41125 
L 553.350566 406.771602 
L 553.685492 406.216563 
L 554.020418 406.287908 
L 554.355343 404.952914 
L 554.690269 402.480031 
L 555.025194 402.603373 
L 555.36012 402.26116 
L 555.695046 402.129353 
L 556.029971 405.961415 
L 556.364897 405.692965 
L 556.699822 407.712385 
L 557.034748 407.780102 
L 557.369674 403.925065 
L 557.704599 402.642068 
L 558.039525 402.879078 
L 558.37445 403.353098 
L 558.709376 402.378455 
L 559.044302 401.781094 
L 559.379227 400.899562 
L 559.714153 402.146282 
L 560.049078 401.814952 
L 560.384004 402.126935 
L 560.71893 401.262332 
L 561.053855 402.103959 
L 561.388781 402.253904 
L 561.723706 401.908063 
L 562.058632 401.967316 
L 562.393558 400.349361 
L 562.728483 402.93833 
L 563.063409 403.326494 
L 563.398334 402.84401 
L 563.73326 401.900808 
L 564.068186 402.160793 
L 564.403111 401.322794 
L 564.738037 401.106341 
L 565.072962 401.302237 
L 565.407888 400.469075 
L 565.742814 402.845219 
L 566.412665 403.181386 
L 566.74759 402.093076 
L 567.082516 402.072519 
L 567.417442 402.302273 
L 567.752367 402.392966 
L 568.087293 402.233347 
L 568.422218 400.112351 
L 568.757144 402.795641 
L 569.09207 402.547748 
L 569.761921 399.395275 
L 570.096846 399.432762 
L 570.431772 400.375964 
L 570.766698 400.449727 
L 571.101623 400.404986 
L 571.436549 399.327558 
L 571.771474 399.227192 
L 572.441325 397.598354 
L 572.776251 397.514917 
L 573.111177 398.843865 
L 573.446102 398.654015 
L 574.115953 398.621366 
L 574.450879 397.239212 
L 574.785805 398.911582 
L 575.12073 398.89949 
L 575.455656 398.727778 
L 575.790581 397.558449 
L 576.460433 400.111142 
L 576.795358 398.229574 
L 577.465209 397.183587 
L 577.800135 398.356544 
L 578.469986 398.196925 
L 578.804912 397.238002 
L 579.139837 397.297255 
L 579.474763 397.60561 
L 580.47954 394.482159 
L 580.814465 396.788167 
L 581.149391 396.318985 
L 581.819242 394.892089 
L 582.154168 395.420524 
L 582.489093 396.980436 
L 582.824019 396.305683 
L 583.158945 396.435071 
L 583.49387 395.502752 
L 583.828796 397.106196 
L 584.163721 397.071128 
L 584.498647 396.876442 
L 584.833573 396.219828 
L 585.168498 396.947786 
L 585.503424 397.958706 
L 585.838349 398.167903 
L 586.173275 398.030051 
L 586.508201 396.476185 
L 586.843126 396.540275 
L 587.178052 396.210154 
L 587.512977 396.192015 
L 587.847903 394.351561 
L 588.517754 396.875232 
L 588.85268 396.715613 
L 589.187605 396.986482 
L 589.522531 395.736134 
L 589.857457 396.123089 
L 590.192382 396.194434 
L 590.527308 395.693811 
L 590.862233 394.072228 
L 591.197159 394.684101 
L 591.532085 395.811107 
L 591.86701 394.951341 
L 592.201936 394.818326 
L 592.536861 393.742108 
L 592.871787 394.546248 
L 593.206713 394.35398 
L 593.541638 393.951305 
L 593.876564 391.404659 
L 594.211489 392.873878 
L 594.546415 393.615138 
L 594.881341 393.231811 
L 595.216266 393.212463 
L 595.551192 392.229356 
L 595.886117 393.340642 
L 596.221043 397.594726 
L 596.555968 397.865595 
L 596.890894 397.048153 
L 597.22582 397.343206 
L 597.560745 398.849911 
L 597.895671 397.235584 
L 598.230596 396.606782 
L 598.565522 395.607955 
L 598.900448 395.927193 
L 599.235373 400.620229 
L 599.570299 401.126898 
L 599.905224 399.618984 
L 600.24015 396.933276 
L 600.575076 397.986518 
L 600.910001 398.170322 
L 601.244927 397.381901 
L 601.579852 395.572888 
L 601.914778 399.650424 
L 602.249704 399.643168 
L 602.584629 399.136499 
L 602.919555 398.933348 
L 603.25448 396.607992 
L 603.589406 398.55123 
L 603.924332 403.12818 
L 604.594183 400.904399 
L 604.929108 402.030196 
L 605.264034 401.004766 
L 605.59896 400.755663 
L 605.933885 400.057936 
L 606.268811 400.949141 
L 606.603736 402.911727 
L 606.938662 402.824662 
L 607.273588 402.90689 
L 607.608513 402.00843 
L 608.278364 401.857275 
L 608.948216 399.749581 
L 609.283141 400.823381 
L 609.618067 402.673508 
L 609.952992 401.66138 
L 610.287918 401.934666 
L 610.622844 400.486004 
L 610.957769 401.938294 
L 611.292695 401.457019 
L 611.62762 401.175268 
L 611.962546 400.281644 
L 612.297472 400.371127 
L 612.632397 401.663798 
L 612.967323 401.378419 
L 613.302248 401.47153 
L 613.637174 400.163139 
L 613.9721 401.122061 
L 614.307025 401.695238 
L 614.641951 400.923747 
L 614.976876 398.645551 
L 615.311802 399.300955 
L 615.981653 398.338405 
L 616.316579 396.230711 
L 617.321356 397.113451 
L 617.656281 396.865558 
L 617.991207 396.152111 
L 618.326132 396.754309 
L 618.661058 398.387984 
L 618.995983 398.130417 
L 619.330909 398.223528 
L 619.330909 398.223528 
" style="fill:none;stroke:#1f77b4;stroke-linecap:square;stroke-width:1.5;"/>
   </g>
   <g id="patch_3">
    <path d="M 108 448.56 
L 108 60.48 
" style="fill:none;stroke:#000000;stroke-linecap:square;stroke-linejoin:miter;stroke-width:0.8;"/>
   </g>
   <g id="patch_4">
    <path d="M 643.68 448.56 
L 643.68 60.48 
" style="fill:none;stroke:#000000;stroke-linecap:square;stroke-linejoin:miter;stroke-width:0.8;"/>
   </g>
   <g id="patch_5">
    <path d="M 108 448.56 
L 643.68 448.56 
" style="fill:none;stroke:#000000;stroke-linecap:square;stroke-linejoin:miter;stroke-width:0.8;"/>
   </g>
   <g id="patch_6">
    <path d="M 108 60.48 
L 643.68 60.48 
" style="fill:none;stroke:#000000;stroke-linecap:square;stroke-linejoin:miter;stroke-width:0.8;"/>
   </g>
   <g id="text_31">
    <!-- unikernel_dce - free -->
    <g transform="translate(301.653281 54.48)scale(0.15 -0.15)">
     <defs>
      <path d="M 8.5 21.578125 
L 8.5 54.6875 
L 17.484375 54.6875 
L 17.484375 21.921875 
Q 17.484375 14.15625 20.5 10.265625 
Q 23.53125 6.390625 29.59375 6.390625 
Q 36.859375 6.390625 41.078125 11.03125 
Q 45.3125 15.671875 45.3125 23.6875 
L 45.3125 54.6875 
L 54.296875 54.6875 
L 54.296875 0 
L 45.3125 0 
L 45.3125 8.40625 
Q 42.046875 3.421875 37.71875 1 
Q 33.40625 -1.421875 27.6875 -1.421875 
Q 18.265625 -1.421875 13.375 4.4375 
Q 8.5 10.296875 8.5 21.578125 
z
M 31.109375 56 
z
" id="DejaVuSans-117"/>
      <path d="M 54.890625 33.015625 
L 54.890625 0 
L 45.90625 0 
L 45.90625 32.71875 
Q 45.90625 40.484375 42.875 44.328125 
Q 39.84375 48.1875 33.796875 48.1875 
Q 26.515625 48.1875 22.3125 43.546875 
Q 18.109375 38.921875 18.109375 30.90625 
L 18.109375 0 
L 9.078125 0 
L 9.078125 54.6875 
L 18.109375 54.6875 
L 18.109375 46.1875 
Q 21.34375 51.125 25.703125 53.5625 
Q 30.078125 56 35.796875 56 
Q 45.21875 56 50.046875 50.171875 
Q 54.890625 44.34375 54.890625 33.015625 
z
" id="DejaVuSans-110"/>
      <path d="M 9.078125 75.984375 
L 18.109375 75.984375 
L 18.109375 31.109375 
L 44.921875 54.6875 
L 56.390625 54.6875 
L 27.390625 29.109375 
L 57.625 0 
L 45.90625 0 
L 18.109375 26.703125 
L 18.109375 0 
L 9.078125 0 
z
" id="DejaVuSans-107"/>
      <path d="M 41.109375 46.296875 
Q 39.59375 47.171875 37.8125 47.578125 
Q 36.03125 48 33.890625 48 
Q 26.265625 48 22.1875 43.046875 
Q 18.109375 38.09375 18.109375 28.8125 
L 18.109375 0 
L 9.078125 0 
L 9.078125 54.6875 
L 18.109375 54.6875 
L 18.109375 46.1875 
Q 20.953125 51.171875 25.484375 53.578125 
Q 30.03125 56 36.53125 56 
Q 37.453125 56 38.578125 55.875 
Q 39.703125 55.765625 41.0625 55.515625 
z
" id="DejaVuSans-114"/>
      <path d="M 9.421875 75.984375 
L 18.40625 75.984375 
L 18.40625 0 
L 9.421875 0 
z
" id="DejaVuSans-108"/>
      <path d="M 50.984375 -16.609375 
L 50.984375 -23.578125 
L -0.984375 -23.578125 
L -0.984375 -16.609375 
z
" id="DejaVuSans-95"/>
      <path d="M 45.40625 46.390625 
L 45.40625 75.984375 
L 54.390625 75.984375 
L 54.390625 0 
L 45.40625 0 
L 45.40625 8.203125 
Q 42.578125 3.328125 38.25 0.953125 
Q 33.9375 -1.421875 27.875 -1.421875 
Q 17.96875 -1.421875 11.734375 6.484375 
Q 5.515625 14.40625 5.515625 27.296875 
Q 5.515625 40.1875 11.734375 48.09375 
Q 17.96875 56 27.875 56 
Q 33.9375 56 38.25 53.625 
Q 42.578125 51.265625 45.40625 46.390625 
z
M 14.796875 27.296875 
Q 14.796875 17.390625 18.875 11.75 
Q 22.953125 6.109375 30.078125 6.109375 
Q 37.203125 6.109375 41.296875 11.75 
Q 45.40625 17.390625 45.40625 27.296875 
Q 45.40625 37.203125 41.296875 42.84375 
Q 37.203125 48.484375 30.078125 48.484375 
Q 22.953125 48.484375 18.875 42.84375 
Q 14.796875 37.203125 14.796875 27.296875 
z
" id="DejaVuSans-100"/>
      <path d="M 48.78125 52.59375 
L 48.78125 44.1875 
Q 44.96875 46.296875 41.140625 47.34375 
Q 37.3125 48.390625 33.40625 48.390625 
Q 24.65625 48.390625 19.8125 42.84375 
Q 14.984375 37.3125 14.984375 27.296875 
Q 14.984375 17.28125 19.8125 11.734375 
Q 24.65625 6.203125 33.40625 6.203125 
Q 37.3125 6.203125 41.140625 7.25 
Q 44.96875 8.296875 48.78125 10.40625 
L 48.78125 2.09375 
Q 45.015625 0.34375 40.984375 -0.53125 
Q 36.96875 -1.421875 32.421875 -1.421875 
Q 20.0625 -1.421875 12.78125 6.34375 
Q 5.515625 14.109375 5.515625 27.296875 
Q 5.515625 40.671875 12.859375 48.328125 
Q 20.21875 56 33.015625 56 
Q 37.15625 56 41.109375 55.140625 
Q 45.0625 54.296875 48.78125 52.59375 
z
" id="DejaVuSans-99"/>
      <path id="DejaVuSans-32"/>
      <path d="M 4.890625 31.390625 
L 31.203125 31.390625 
L 31.203125 23.390625 
L 4.890625 23.390625 
z
" id="DejaVuSans-45"/>
      <path d="M 37.109375 75.984375 
L 37.109375 68.5 
L 28.515625 68.5 
Q 23.6875 68.5 21.796875 66.546875 
Q 19.921875 64.59375 19.921875 59.515625 
L 19.921875 54.6875 
L 34.71875 54.6875 
L 34.71875 47.703125 
L 19.921875 47.703125 
L 19.921875 0 
L 10.890625 0 
L 10.890625 47.703125 
L 2.296875 47.703125 
L 2.296875 54.6875 
L 10.890625 54.6875 
L 10.890625 58.5 
Q 10.890625 67.625 15.140625 71.796875 
Q 19.390625 75.984375 28.609375 75.984375 
z
" id="DejaVuSans-102"/>
     </defs>
     <use xlink:href="#DejaVuSans-117"/>
     <use x="63.378906" xlink:href="#DejaVuSans-110"/>
     <use x="126.757812" xlink:href="#DejaVuSans-105"/>
     <use x="154.541016" xlink:href="#DejaVuSans-107"/>
     <use x="208.826172" xlink:href="#DejaVuSans-101"/>
     <use x="270.349609" xlink:href="#DejaVuSans-114"/>
     <use x="309.712891" xlink:href="#DejaVuSans-110"/>
     <use x="373.091797" xlink:href="#DejaVuSans-101"/>
     <use x="434.615234" xlink:href="#DejaVuSans-108"/>
     <use x="462.398438" xlink:href="#DejaVuSans-95"/>
     <use x="512.398438" xlink:href="#DejaVuSans-100"/>
     <use x="575.875" xlink:href="#DejaVuSans-99"/>
     <use x="630.855469" xlink:href="#DejaVuSans-101"/>
     <use x="692.378906" xlink:href="#DejaVuSans-32"/>
     <use x="724.166016" xlink:href="#DejaVuSans-45"/>
     <use x="760.25" xlink:href="#DejaVuSans-32"/>
     <use x="792.037109" xlink:href="#DejaVuSans-102"/>
     <use x="827.242188" xlink:href="#DejaVuSans-114"/>
     <use x="866.105469" xlink:href="#DejaVuSans-101"/>
     <use x="927.628906" xlink:href="#DejaVuSans-101"/>
    </g>
   </g>
   <g id="legend_1">
    <g id="patch_7">
     <path d="M 650.68 258.52 
L 654.68 258.52 
Q 656.68 258.52 656.68 256.52 
L 656.68 252.52 
Q 656.68 250.52 654.68 250.52 
L 650.68 250.52 
Q 648.68 250.52 648.68 252.52 
L 648.68 256.52 
Q 648.68 258.52 650.68 258.52 
z
" style="fill:#ffffff;opacity:0.8;stroke:#cccccc;stroke-linejoin:miter;"/>
    </g>
   </g>
  </g>
 </g>
 <defs>
  <clipPath id="pfd1a17f6e1">
   <rect height="388.08" width="535.68" x="108" y="60.48"/>
  </clipPath>
 </defs>
</svg>
