<?xml version="1.0" encoding="utf-8" standalone="no"?>
<!DOCTYPE svg PUBLIC "-//W3C//DTD SVG 1.1//EN"
  "http://www.w3.org/Graphics/SVG/1.1/DTD/svg11.dtd">
<!-- Created with matplotlib (https://matplotlib.org/) -->
<svg height="504pt" version="1.1" viewBox="0 0 864 504" width="864pt" xmlns="http://www.w3.org/2000/svg" xmlns:xlink="http://www.w3.org/1999/xlink">
 <metadata>
  <rdf:RDF xmlns:cc="http://creativecommons.org/ns#" xmlns:dc="http://purl.org/dc/elements/1.1/" xmlns:rdf="http://www.w3.org/1999/02/22-rdf-syntax-ns#">
   <cc:Work>
    <dc:type rdf:resource="http://purl.org/dc/dcmitype/StillImage"/>
    <dc:date>2022-05-29T17:20:20.064535</dc:date>
    <dc:format>image/svg+xml</dc:format>
    <dc:creator>
     <cc:Agent>
      <dc:title>Matplotlib v3.3.4, https://matplotlib.org/</dc:title>
     </cc:Agent>
    </dc:creator>
   </cc:Work>
  </rdf:RDF>
 </metadata>
 <defs>
  <style type="text/css">*{stroke-linecap:butt;stroke-linejoin:round;}</style>
 </defs>
 <g id="figure_1">
  <g id="patch_1">
   <path d="M 0 504 
L 864 504 
L 864 0 
L 0 0 
z
" style="fill:#ffffff;"/>
  </g>
  <g id="axes_1">
   <g id="patch_2">
    <path d="M 108 448.56 
L 643.68 448.56 
L 643.68 60.48 
L 108 60.48 
z
" style="fill:#ffffff;"/>
   </g>
   <g id="matplotlib.axis_1">
    <g id="xtick_1">
     <g id="line2d_1">
      <defs>
       <path d="M 0 0 
L 0 3.5 
" id="mef7c83e8e0" style="stroke:#000000;stroke-width:0.8;"/>
      </defs>
      <g>
       <use style="stroke:#000000;stroke-width:0.8;" x="132.349091" xlink:href="#mef7c83e8e0" y="448.56"/>
      </g>
     </g>
     <g id="text_1">
      <!-- 14:03:04 -->
      <g transform="translate(135.108466 500.4725)rotate(-90)scale(0.1 -0.1)">
       <defs>
        <path d="M 12.40625 8.296875 
L 28.515625 8.296875 
L 28.515625 63.921875 
L 10.984375 60.40625 
L 10.984375 69.390625 
L 28.421875 72.90625 
L 38.28125 72.90625 
L 38.28125 8.296875 
L 54.390625 8.296875 
L 54.390625 0 
L 12.40625 0 
z
" id="DejaVuSans-49"/>
        <path d="M 37.796875 64.3125 
L 12.890625 25.390625 
L 37.796875 25.390625 
z
M 35.203125 72.90625 
L 47.609375 72.90625 
L 47.609375 25.390625 
L 58.015625 25.390625 
L 58.015625 17.1875 
L 47.609375 17.1875 
L 47.609375 0 
L 37.796875 0 
L 37.796875 17.1875 
L 4.890625 17.1875 
L 4.890625 26.703125 
z
" id="DejaVuSans-52"/>
        <path d="M 11.71875 12.40625 
L 22.015625 12.40625 
L 22.015625 0 
L 11.71875 0 
z
M 11.71875 51.703125 
L 22.015625 51.703125 
L 22.015625 39.3125 
L 11.71875 39.3125 
z
" id="DejaVuSans-58"/>
        <path d="M 31.78125 66.40625 
Q 24.171875 66.40625 20.328125 58.90625 
Q 16.5 51.421875 16.5 36.375 
Q 16.5 21.390625 20.328125 13.890625 
Q 24.171875 6.390625 31.78125 6.390625 
Q 39.453125 6.390625 43.28125 13.890625 
Q 47.125 21.390625 47.125 36.375 
Q 47.125 51.421875 43.28125 58.90625 
Q 39.453125 66.40625 31.78125 66.40625 
z
M 31.78125 74.21875 
Q 44.046875 74.21875 50.515625 64.515625 
Q 56.984375 54.828125 56.984375 36.375 
Q 56.984375 17.96875 50.515625 8.265625 
Q 44.046875 -1.421875 31.78125 -1.421875 
Q 19.53125 -1.421875 13.0625 8.265625 
Q 6.59375 17.96875 6.59375 36.375 
Q 6.59375 54.828125 13.0625 64.515625 
Q 19.53125 74.21875 31.78125 74.21875 
z
" id="DejaVuSans-48"/>
        <path d="M 40.578125 39.3125 
Q 47.65625 37.796875 51.625 33 
Q 55.609375 28.21875 55.609375 21.1875 
Q 55.609375 10.40625 48.1875 4.484375 
Q 40.765625 -1.421875 27.09375 -1.421875 
Q 22.515625 -1.421875 17.65625 -0.515625 
Q 12.796875 0.390625 7.625 2.203125 
L 7.625 11.71875 
Q 11.71875 9.328125 16.59375 8.109375 
Q 21.484375 6.890625 26.8125 6.890625 
Q 36.078125 6.890625 40.9375 10.546875 
Q 45.796875 14.203125 45.796875 21.1875 
Q 45.796875 27.640625 41.28125 31.265625 
Q 36.765625 34.90625 28.71875 34.90625 
L 20.21875 34.90625 
L 20.21875 43.015625 
L 29.109375 43.015625 
Q 36.375 43.015625 40.234375 45.921875 
Q 44.09375 48.828125 44.09375 54.296875 
Q 44.09375 59.90625 40.109375 62.90625 
Q 36.140625 65.921875 28.71875 65.921875 
Q 24.65625 65.921875 20.015625 65.03125 
Q 15.375 64.15625 9.8125 62.3125 
L 9.8125 71.09375 
Q 15.4375 72.65625 20.34375 73.4375 
Q 25.25 74.21875 29.59375 74.21875 
Q 40.828125 74.21875 47.359375 69.109375 
Q 53.90625 64.015625 53.90625 55.328125 
Q 53.90625 49.265625 50.4375 45.09375 
Q 46.96875 40.921875 40.578125 39.3125 
z
" id="DejaVuSans-51"/>
       </defs>
       <use xlink:href="#DejaVuSans-49"/>
       <use x="63.623047" xlink:href="#DejaVuSans-52"/>
       <use x="127.246094" xlink:href="#DejaVuSans-58"/>
       <use x="160.9375" xlink:href="#DejaVuSans-48"/>
       <use x="224.560547" xlink:href="#DejaVuSans-51"/>
       <use x="288.183594" xlink:href="#DejaVuSans-58"/>
       <use x="321.875" xlink:href="#DejaVuSans-48"/>
       <use x="385.498047" xlink:href="#DejaVuSans-52"/>
      </g>
     </g>
    </g>
    <g id="xtick_2">
     <g id="line2d_2">
      <g>
       <use style="stroke:#000000;stroke-width:0.8;" x="156.646849" xlink:href="#mef7c83e8e0" y="448.56"/>
      </g>
     </g>
     <g id="text_2">
      <!-- 14:04:27 -->
      <g transform="translate(159.406224 500.4725)rotate(-90)scale(0.1 -0.1)">
       <defs>
        <path d="M 19.1875 8.296875 
L 53.609375 8.296875 
L 53.609375 0 
L 7.328125 0 
L 7.328125 8.296875 
Q 12.9375 14.109375 22.625 23.890625 
Q 32.328125 33.6875 34.8125 36.53125 
Q 39.546875 41.84375 41.421875 45.53125 
Q 43.3125 49.21875 43.3125 52.78125 
Q 43.3125 58.59375 39.234375 62.25 
Q 35.15625 65.921875 28.609375 65.921875 
Q 23.96875 65.921875 18.8125 64.3125 
Q 13.671875 62.703125 7.8125 59.421875 
L 7.8125 69.390625 
Q 13.765625 71.78125 18.9375 73 
Q 24.125 74.21875 28.421875 74.21875 
Q 39.75 74.21875 46.484375 68.546875 
Q 53.21875 62.890625 53.21875 53.421875 
Q 53.21875 48.921875 51.53125 44.890625 
Q 49.859375 40.875 45.40625 35.40625 
Q 44.1875 33.984375 37.640625 27.21875 
Q 31.109375 20.453125 19.1875 8.296875 
z
" id="DejaVuSans-50"/>
        <path d="M 8.203125 72.90625 
L 55.078125 72.90625 
L 55.078125 68.703125 
L 28.609375 0 
L 18.3125 0 
L 43.21875 64.59375 
L 8.203125 64.59375 
z
" id="DejaVuSans-55"/>
       </defs>
       <use xlink:href="#DejaVuSans-49"/>
       <use x="63.623047" xlink:href="#DejaVuSans-52"/>
       <use x="127.246094" xlink:href="#DejaVuSans-58"/>
       <use x="160.9375" xlink:href="#DejaVuSans-48"/>
       <use x="224.560547" xlink:href="#DejaVuSans-52"/>
       <use x="288.183594" xlink:href="#DejaVuSans-58"/>
       <use x="321.875" xlink:href="#DejaVuSans-50"/>
       <use x="385.498047" xlink:href="#DejaVuSans-55"/>
      </g>
     </g>
    </g>
    <g id="xtick_3">
     <g id="line2d_3">
      <g>
       <use style="stroke:#000000;stroke-width:0.8;" x="180.944606" xlink:href="#mef7c83e8e0" y="448.56"/>
      </g>
     </g>
     <g id="text_3">
      <!-- 14:05:50 -->
      <g transform="translate(183.703981 500.4725)rotate(-90)scale(0.1 -0.1)">
       <defs>
        <path d="M 10.796875 72.90625 
L 49.515625 72.90625 
L 49.515625 64.59375 
L 19.828125 64.59375 
L 19.828125 46.734375 
Q 21.96875 47.46875 24.109375 47.828125 
Q 26.265625 48.1875 28.421875 48.1875 
Q 40.625 48.1875 47.75 41.5 
Q 54.890625 34.8125 54.890625 23.390625 
Q 54.890625 11.625 47.5625 5.09375 
Q 40.234375 -1.421875 26.90625 -1.421875 
Q 22.3125 -1.421875 17.546875 -0.640625 
Q 12.796875 0.140625 7.71875 1.703125 
L 7.71875 11.625 
Q 12.109375 9.234375 16.796875 8.0625 
Q 21.484375 6.890625 26.703125 6.890625 
Q 35.15625 6.890625 40.078125 11.328125 
Q 45.015625 15.765625 45.015625 23.390625 
Q 45.015625 31 40.078125 35.4375 
Q 35.15625 39.890625 26.703125 39.890625 
Q 22.75 39.890625 18.8125 39.015625 
Q 14.890625 38.140625 10.796875 36.28125 
z
" id="DejaVuSans-53"/>
       </defs>
       <use xlink:href="#DejaVuSans-49"/>
       <use x="63.623047" xlink:href="#DejaVuSans-52"/>
       <use x="127.246094" xlink:href="#DejaVuSans-58"/>
       <use x="160.9375" xlink:href="#DejaVuSans-48"/>
       <use x="224.560547" xlink:href="#DejaVuSans-53"/>
       <use x="288.183594" xlink:href="#DejaVuSans-58"/>
       <use x="321.875" xlink:href="#DejaVuSans-53"/>
       <use x="385.498047" xlink:href="#DejaVuSans-48"/>
      </g>
     </g>
    </g>
    <g id="xtick_4">
     <g id="line2d_4">
      <g>
       <use style="stroke:#000000;stroke-width:0.8;" x="205.242364" xlink:href="#mef7c83e8e0" y="448.56"/>
      </g>
     </g>
     <g id="text_4">
      <!-- 14:07:13 -->
      <g transform="translate(208.001739 500.4725)rotate(-90)scale(0.1 -0.1)">
       <use xlink:href="#DejaVuSans-49"/>
       <use x="63.623047" xlink:href="#DejaVuSans-52"/>
       <use x="127.246094" xlink:href="#DejaVuSans-58"/>
       <use x="160.9375" xlink:href="#DejaVuSans-48"/>
       <use x="224.560547" xlink:href="#DejaVuSans-55"/>
       <use x="288.183594" xlink:href="#DejaVuSans-58"/>
       <use x="321.875" xlink:href="#DejaVuSans-49"/>
       <use x="385.498047" xlink:href="#DejaVuSans-51"/>
      </g>
     </g>
    </g>
    <g id="xtick_5">
     <g id="line2d_5">
      <g>
       <use style="stroke:#000000;stroke-width:0.8;" x="229.540121" xlink:href="#mef7c83e8e0" y="448.56"/>
      </g>
     </g>
     <g id="text_5">
      <!-- 14:08:36 -->
      <g transform="translate(232.299496 500.4725)rotate(-90)scale(0.1 -0.1)">
       <defs>
        <path d="M 31.78125 34.625 
Q 24.75 34.625 20.71875 30.859375 
Q 16.703125 27.09375 16.703125 20.515625 
Q 16.703125 13.921875 20.71875 10.15625 
Q 24.75 6.390625 31.78125 6.390625 
Q 38.8125 6.390625 42.859375 10.171875 
Q 46.921875 13.96875 46.921875 20.515625 
Q 46.921875 27.09375 42.890625 30.859375 
Q 38.875 34.625 31.78125 34.625 
z
M 21.921875 38.8125 
Q 15.578125 40.375 12.03125 44.71875 
Q 8.5 49.078125 8.5 55.328125 
Q 8.5 64.0625 14.71875 69.140625 
Q 20.953125 74.21875 31.78125 74.21875 
Q 42.671875 74.21875 48.875 69.140625 
Q 55.078125 64.0625 55.078125 55.328125 
Q 55.078125 49.078125 51.53125 44.71875 
Q 48 40.375 41.703125 38.8125 
Q 48.828125 37.15625 52.796875 32.3125 
Q 56.78125 27.484375 56.78125 20.515625 
Q 56.78125 9.90625 50.3125 4.234375 
Q 43.84375 -1.421875 31.78125 -1.421875 
Q 19.734375 -1.421875 13.25 4.234375 
Q 6.78125 9.90625 6.78125 20.515625 
Q 6.78125 27.484375 10.78125 32.3125 
Q 14.796875 37.15625 21.921875 38.8125 
z
M 18.3125 54.390625 
Q 18.3125 48.734375 21.84375 45.5625 
Q 25.390625 42.390625 31.78125 42.390625 
Q 38.140625 42.390625 41.71875 45.5625 
Q 45.3125 48.734375 45.3125 54.390625 
Q 45.3125 60.0625 41.71875 63.234375 
Q 38.140625 66.40625 31.78125 66.40625 
Q 25.390625 66.40625 21.84375 63.234375 
Q 18.3125 60.0625 18.3125 54.390625 
z
" id="DejaVuSans-56"/>
        <path d="M 33.015625 40.375 
Q 26.375 40.375 22.484375 35.828125 
Q 18.609375 31.296875 18.609375 23.390625 
Q 18.609375 15.53125 22.484375 10.953125 
Q 26.375 6.390625 33.015625 6.390625 
Q 39.65625 6.390625 43.53125 10.953125 
Q 47.40625 15.53125 47.40625 23.390625 
Q 47.40625 31.296875 43.53125 35.828125 
Q 39.65625 40.375 33.015625 40.375 
z
M 52.59375 71.296875 
L 52.59375 62.3125 
Q 48.875 64.0625 45.09375 64.984375 
Q 41.3125 65.921875 37.59375 65.921875 
Q 27.828125 65.921875 22.671875 59.328125 
Q 17.53125 52.734375 16.796875 39.40625 
Q 19.671875 43.65625 24.015625 45.921875 
Q 28.375 48.1875 33.59375 48.1875 
Q 44.578125 48.1875 50.953125 41.515625 
Q 57.328125 34.859375 57.328125 23.390625 
Q 57.328125 12.15625 50.6875 5.359375 
Q 44.046875 -1.421875 33.015625 -1.421875 
Q 20.359375 -1.421875 13.671875 8.265625 
Q 6.984375 17.96875 6.984375 36.375 
Q 6.984375 53.65625 15.1875 63.9375 
Q 23.390625 74.21875 37.203125 74.21875 
Q 40.921875 74.21875 44.703125 73.484375 
Q 48.484375 72.75 52.59375 71.296875 
z
" id="DejaVuSans-54"/>
       </defs>
       <use xlink:href="#DejaVuSans-49"/>
       <use x="63.623047" xlink:href="#DejaVuSans-52"/>
       <use x="127.246094" xlink:href="#DejaVuSans-58"/>
       <use x="160.9375" xlink:href="#DejaVuSans-48"/>
       <use x="224.560547" xlink:href="#DejaVuSans-56"/>
       <use x="288.183594" xlink:href="#DejaVuSans-58"/>
       <use x="321.875" xlink:href="#DejaVuSans-51"/>
       <use x="385.498047" xlink:href="#DejaVuSans-54"/>
      </g>
     </g>
    </g>
    <g id="xtick_6">
     <g id="line2d_6">
      <g>
       <use style="stroke:#000000;stroke-width:0.8;" x="253.837879" xlink:href="#mef7c83e8e0" y="448.56"/>
      </g>
     </g>
     <g id="text_6">
      <!-- 14:09:59 -->
      <g transform="translate(256.597254 500.4725)rotate(-90)scale(0.1 -0.1)">
       <defs>
        <path d="M 10.984375 1.515625 
L 10.984375 10.5 
Q 14.703125 8.734375 18.5 7.8125 
Q 22.3125 6.890625 25.984375 6.890625 
Q 35.75 6.890625 40.890625 13.453125 
Q 46.046875 20.015625 46.78125 33.40625 
Q 43.953125 29.203125 39.59375 26.953125 
Q 35.25 24.703125 29.984375 24.703125 
Q 19.046875 24.703125 12.671875 31.3125 
Q 6.296875 37.9375 6.296875 49.421875 
Q 6.296875 60.640625 12.9375 67.421875 
Q 19.578125 74.21875 30.609375 74.21875 
Q 43.265625 74.21875 49.921875 64.515625 
Q 56.59375 54.828125 56.59375 36.375 
Q 56.59375 19.140625 48.40625 8.859375 
Q 40.234375 -1.421875 26.421875 -1.421875 
Q 22.703125 -1.421875 18.890625 -0.6875 
Q 15.09375 0.046875 10.984375 1.515625 
z
M 30.609375 32.421875 
Q 37.25 32.421875 41.125 36.953125 
Q 45.015625 41.5 45.015625 49.421875 
Q 45.015625 57.28125 41.125 61.84375 
Q 37.25 66.40625 30.609375 66.40625 
Q 23.96875 66.40625 20.09375 61.84375 
Q 16.21875 57.28125 16.21875 49.421875 
Q 16.21875 41.5 20.09375 36.953125 
Q 23.96875 32.421875 30.609375 32.421875 
z
" id="DejaVuSans-57"/>
       </defs>
       <use xlink:href="#DejaVuSans-49"/>
       <use x="63.623047" xlink:href="#DejaVuSans-52"/>
       <use x="127.246094" xlink:href="#DejaVuSans-58"/>
       <use x="160.9375" xlink:href="#DejaVuSans-48"/>
       <use x="224.560547" xlink:href="#DejaVuSans-57"/>
       <use x="288.183594" xlink:href="#DejaVuSans-58"/>
       <use x="321.875" xlink:href="#DejaVuSans-53"/>
       <use x="385.498047" xlink:href="#DejaVuSans-57"/>
      </g>
     </g>
    </g>
    <g id="xtick_7">
     <g id="line2d_7">
      <g>
       <use style="stroke:#000000;stroke-width:0.8;" x="278.135637" xlink:href="#mef7c83e8e0" y="448.56"/>
      </g>
     </g>
     <g id="text_7">
      <!-- 14:11:22 -->
      <g transform="translate(280.895012 500.4725)rotate(-90)scale(0.1 -0.1)">
       <use xlink:href="#DejaVuSans-49"/>
       <use x="63.623047" xlink:href="#DejaVuSans-52"/>
       <use x="127.246094" xlink:href="#DejaVuSans-58"/>
       <use x="160.9375" xlink:href="#DejaVuSans-49"/>
       <use x="224.560547" xlink:href="#DejaVuSans-49"/>
       <use x="288.183594" xlink:href="#DejaVuSans-58"/>
       <use x="321.875" xlink:href="#DejaVuSans-50"/>
       <use x="385.498047" xlink:href="#DejaVuSans-50"/>
      </g>
     </g>
    </g>
    <g id="xtick_8">
     <g id="line2d_8">
      <g>
       <use style="stroke:#000000;stroke-width:0.8;" x="302.433394" xlink:href="#mef7c83e8e0" y="448.56"/>
      </g>
     </g>
     <g id="text_8">
      <!-- 14:12:45 -->
      <g transform="translate(305.192769 500.4725)rotate(-90)scale(0.1 -0.1)">
       <use xlink:href="#DejaVuSans-49"/>
       <use x="63.623047" xlink:href="#DejaVuSans-52"/>
       <use x="127.246094" xlink:href="#DejaVuSans-58"/>
       <use x="160.9375" xlink:href="#DejaVuSans-49"/>
       <use x="224.560547" xlink:href="#DejaVuSans-50"/>
       <use x="288.183594" xlink:href="#DejaVuSans-58"/>
       <use x="321.875" xlink:href="#DejaVuSans-52"/>
       <use x="385.498047" xlink:href="#DejaVuSans-53"/>
      </g>
     </g>
    </g>
    <g id="xtick_9">
     <g id="line2d_9">
      <g>
       <use style="stroke:#000000;stroke-width:0.8;" x="326.731152" xlink:href="#mef7c83e8e0" y="448.56"/>
      </g>
     </g>
     <g id="text_9">
      <!-- 14:14:07 -->
      <g transform="translate(329.490527 500.4725)rotate(-90)scale(0.1 -0.1)">
       <use xlink:href="#DejaVuSans-49"/>
       <use x="63.623047" xlink:href="#DejaVuSans-52"/>
       <use x="127.246094" xlink:href="#DejaVuSans-58"/>
       <use x="160.9375" xlink:href="#DejaVuSans-49"/>
       <use x="224.560547" xlink:href="#DejaVuSans-52"/>
       <use x="288.183594" xlink:href="#DejaVuSans-58"/>
       <use x="321.875" xlink:href="#DejaVuSans-48"/>
       <use x="385.498047" xlink:href="#DejaVuSans-55"/>
      </g>
     </g>
    </g>
    <g id="xtick_10">
     <g id="line2d_10">
      <g>
       <use style="stroke:#000000;stroke-width:0.8;" x="351.028909" xlink:href="#mef7c83e8e0" y="448.56"/>
      </g>
     </g>
     <g id="text_10">
      <!-- 14:15:31 -->
      <g transform="translate(353.788284 500.4725)rotate(-90)scale(0.1 -0.1)">
       <use xlink:href="#DejaVuSans-49"/>
       <use x="63.623047" xlink:href="#DejaVuSans-52"/>
       <use x="127.246094" xlink:href="#DejaVuSans-58"/>
       <use x="160.9375" xlink:href="#DejaVuSans-49"/>
       <use x="224.560547" xlink:href="#DejaVuSans-53"/>
       <use x="288.183594" xlink:href="#DejaVuSans-58"/>
       <use x="321.875" xlink:href="#DejaVuSans-51"/>
       <use x="385.498047" xlink:href="#DejaVuSans-49"/>
      </g>
     </g>
    </g>
    <g id="xtick_11">
     <g id="line2d_11">
      <g>
       <use style="stroke:#000000;stroke-width:0.8;" x="375.326667" xlink:href="#mef7c83e8e0" y="448.56"/>
      </g>
     </g>
     <g id="text_11">
      <!-- 14:16:53 -->
      <g transform="translate(378.086042 500.4725)rotate(-90)scale(0.1 -0.1)">
       <use xlink:href="#DejaVuSans-49"/>
       <use x="63.623047" xlink:href="#DejaVuSans-52"/>
       <use x="127.246094" xlink:href="#DejaVuSans-58"/>
       <use x="160.9375" xlink:href="#DejaVuSans-49"/>
       <use x="224.560547" xlink:href="#DejaVuSans-54"/>
       <use x="288.183594" xlink:href="#DejaVuSans-58"/>
       <use x="321.875" xlink:href="#DejaVuSans-53"/>
       <use x="385.498047" xlink:href="#DejaVuSans-51"/>
      </g>
     </g>
    </g>
    <g id="xtick_12">
     <g id="line2d_12">
      <g>
       <use style="stroke:#000000;stroke-width:0.8;" x="399.624425" xlink:href="#mef7c83e8e0" y="448.56"/>
      </g>
     </g>
     <g id="text_12">
      <!-- 14:18:16 -->
      <g transform="translate(402.3838 500.4725)rotate(-90)scale(0.1 -0.1)">
       <use xlink:href="#DejaVuSans-49"/>
       <use x="63.623047" xlink:href="#DejaVuSans-52"/>
       <use x="127.246094" xlink:href="#DejaVuSans-58"/>
       <use x="160.9375" xlink:href="#DejaVuSans-49"/>
       <use x="224.560547" xlink:href="#DejaVuSans-56"/>
       <use x="288.183594" xlink:href="#DejaVuSans-58"/>
       <use x="321.875" xlink:href="#DejaVuSans-49"/>
       <use x="385.498047" xlink:href="#DejaVuSans-54"/>
      </g>
     </g>
    </g>
    <g id="xtick_13">
     <g id="line2d_13">
      <g>
       <use style="stroke:#000000;stroke-width:0.8;" x="423.922182" xlink:href="#mef7c83e8e0" y="448.56"/>
      </g>
     </g>
     <g id="text_13">
      <!-- 14:19:39 -->
      <g transform="translate(426.681557 500.4725)rotate(-90)scale(0.1 -0.1)">
       <use xlink:href="#DejaVuSans-49"/>
       <use x="63.623047" xlink:href="#DejaVuSans-52"/>
       <use x="127.246094" xlink:href="#DejaVuSans-58"/>
       <use x="160.9375" xlink:href="#DejaVuSans-49"/>
       <use x="224.560547" xlink:href="#DejaVuSans-57"/>
       <use x="288.183594" xlink:href="#DejaVuSans-58"/>
       <use x="321.875" xlink:href="#DejaVuSans-51"/>
       <use x="385.498047" xlink:href="#DejaVuSans-57"/>
      </g>
     </g>
    </g>
    <g id="xtick_14">
     <g id="line2d_14">
      <g>
       <use style="stroke:#000000;stroke-width:0.8;" x="448.21994" xlink:href="#mef7c83e8e0" y="448.56"/>
      </g>
     </g>
     <g id="text_14">
      <!-- 14:21:02 -->
      <g transform="translate(450.979315 500.4725)rotate(-90)scale(0.1 -0.1)">
       <use xlink:href="#DejaVuSans-49"/>
       <use x="63.623047" xlink:href="#DejaVuSans-52"/>
       <use x="127.246094" xlink:href="#DejaVuSans-58"/>
       <use x="160.9375" xlink:href="#DejaVuSans-50"/>
       <use x="224.560547" xlink:href="#DejaVuSans-49"/>
       <use x="288.183594" xlink:href="#DejaVuSans-58"/>
       <use x="321.875" xlink:href="#DejaVuSans-48"/>
       <use x="385.498047" xlink:href="#DejaVuSans-50"/>
      </g>
     </g>
    </g>
    <g id="xtick_15">
     <g id="line2d_15">
      <g>
       <use style="stroke:#000000;stroke-width:0.8;" x="472.517698" xlink:href="#mef7c83e8e0" y="448.56"/>
      </g>
     </g>
     <g id="text_15">
      <!-- 14:22:26 -->
      <g transform="translate(475.277073 500.4725)rotate(-90)scale(0.1 -0.1)">
       <use xlink:href="#DejaVuSans-49"/>
       <use x="63.623047" xlink:href="#DejaVuSans-52"/>
       <use x="127.246094" xlink:href="#DejaVuSans-58"/>
       <use x="160.9375" xlink:href="#DejaVuSans-50"/>
       <use x="224.560547" xlink:href="#DejaVuSans-50"/>
       <use x="288.183594" xlink:href="#DejaVuSans-58"/>
       <use x="321.875" xlink:href="#DejaVuSans-50"/>
       <use x="385.498047" xlink:href="#DejaVuSans-54"/>
      </g>
     </g>
    </g>
    <g id="xtick_16">
     <g id="line2d_16">
      <g>
       <use style="stroke:#000000;stroke-width:0.8;" x="496.815455" xlink:href="#mef7c83e8e0" y="448.56"/>
      </g>
     </g>
     <g id="text_16">
      <!-- 14:23:49 -->
      <g transform="translate(499.57483 500.4725)rotate(-90)scale(0.1 -0.1)">
       <use xlink:href="#DejaVuSans-49"/>
       <use x="63.623047" xlink:href="#DejaVuSans-52"/>
       <use x="127.246094" xlink:href="#DejaVuSans-58"/>
       <use x="160.9375" xlink:href="#DejaVuSans-50"/>
       <use x="224.560547" xlink:href="#DejaVuSans-51"/>
       <use x="288.183594" xlink:href="#DejaVuSans-58"/>
       <use x="321.875" xlink:href="#DejaVuSans-52"/>
       <use x="385.498047" xlink:href="#DejaVuSans-57"/>
      </g>
     </g>
    </g>
    <g id="xtick_17">
     <g id="line2d_17">
      <g>
       <use style="stroke:#000000;stroke-width:0.8;" x="521.113213" xlink:href="#mef7c83e8e0" y="448.56"/>
      </g>
     </g>
     <g id="text_17">
      <!-- 14:25:12 -->
      <g transform="translate(523.872588 500.4725)rotate(-90)scale(0.1 -0.1)">
       <use xlink:href="#DejaVuSans-49"/>
       <use x="63.623047" xlink:href="#DejaVuSans-52"/>
       <use x="127.246094" xlink:href="#DejaVuSans-58"/>
       <use x="160.9375" xlink:href="#DejaVuSans-50"/>
       <use x="224.560547" xlink:href="#DejaVuSans-53"/>
       <use x="288.183594" xlink:href="#DejaVuSans-58"/>
       <use x="321.875" xlink:href="#DejaVuSans-49"/>
       <use x="385.498047" xlink:href="#DejaVuSans-50"/>
      </g>
     </g>
    </g>
    <g id="xtick_18">
     <g id="line2d_18">
      <g>
       <use style="stroke:#000000;stroke-width:0.8;" x="545.41097" xlink:href="#mef7c83e8e0" y="448.56"/>
      </g>
     </g>
     <g id="text_18">
      <!-- 14:26:35 -->
      <g transform="translate(548.170345 500.4725)rotate(-90)scale(0.1 -0.1)">
       <use xlink:href="#DejaVuSans-49"/>
       <use x="63.623047" xlink:href="#DejaVuSans-52"/>
       <use x="127.246094" xlink:href="#DejaVuSans-58"/>
       <use x="160.9375" xlink:href="#DejaVuSans-50"/>
       <use x="224.560547" xlink:href="#DejaVuSans-54"/>
       <use x="288.183594" xlink:href="#DejaVuSans-58"/>
       <use x="321.875" xlink:href="#DejaVuSans-51"/>
       <use x="385.498047" xlink:href="#DejaVuSans-53"/>
      </g>
     </g>
    </g>
    <g id="xtick_19">
     <g id="line2d_19">
      <g>
       <use style="stroke:#000000;stroke-width:0.8;" x="569.708728" xlink:href="#mef7c83e8e0" y="448.56"/>
      </g>
     </g>
     <g id="text_19">
      <!-- 14:27:58 -->
      <g transform="translate(572.468103 500.4725)rotate(-90)scale(0.1 -0.1)">
       <use xlink:href="#DejaVuSans-49"/>
       <use x="63.623047" xlink:href="#DejaVuSans-52"/>
       <use x="127.246094" xlink:href="#DejaVuSans-58"/>
       <use x="160.9375" xlink:href="#DejaVuSans-50"/>
       <use x="224.560547" xlink:href="#DejaVuSans-55"/>
       <use x="288.183594" xlink:href="#DejaVuSans-58"/>
       <use x="321.875" xlink:href="#DejaVuSans-53"/>
       <use x="385.498047" xlink:href="#DejaVuSans-56"/>
      </g>
     </g>
    </g>
    <g id="xtick_20">
     <g id="line2d_20">
      <g>
       <use style="stroke:#000000;stroke-width:0.8;" x="594.006486" xlink:href="#mef7c83e8e0" y="448.56"/>
      </g>
     </g>
     <g id="text_20">
      <!-- 14:29:20 -->
      <g transform="translate(596.765861 500.4725)rotate(-90)scale(0.1 -0.1)">
       <use xlink:href="#DejaVuSans-49"/>
       <use x="63.623047" xlink:href="#DejaVuSans-52"/>
       <use x="127.246094" xlink:href="#DejaVuSans-58"/>
       <use x="160.9375" xlink:href="#DejaVuSans-50"/>
       <use x="224.560547" xlink:href="#DejaVuSans-57"/>
       <use x="288.183594" xlink:href="#DejaVuSans-58"/>
       <use x="321.875" xlink:href="#DejaVuSans-50"/>
       <use x="385.498047" xlink:href="#DejaVuSans-48"/>
      </g>
     </g>
    </g>
    <g id="xtick_21">
     <g id="line2d_21">
      <g>
       <use style="stroke:#000000;stroke-width:0.8;" x="618.304243" xlink:href="#mef7c83e8e0" y="448.56"/>
      </g>
     </g>
     <g id="text_21">
      <!-- 14:30:43 -->
      <g transform="translate(621.063618 500.4725)rotate(-90)scale(0.1 -0.1)">
       <use xlink:href="#DejaVuSans-49"/>
       <use x="63.623047" xlink:href="#DejaVuSans-52"/>
       <use x="127.246094" xlink:href="#DejaVuSans-58"/>
       <use x="160.9375" xlink:href="#DejaVuSans-51"/>
       <use x="224.560547" xlink:href="#DejaVuSans-48"/>
       <use x="288.183594" xlink:href="#DejaVuSans-58"/>
       <use x="321.875" xlink:href="#DejaVuSans-52"/>
       <use x="385.498047" xlink:href="#DejaVuSans-51"/>
      </g>
     </g>
    </g>
    <g id="text_22">
     <!-- timestamp -->
     <g transform="translate(354.264375 510.55125)scale(0.08 -0.08)">
      <defs>
       <path d="M 18.3125 70.21875 
L 18.3125 54.6875 
L 36.8125 54.6875 
L 36.8125 47.703125 
L 18.3125 47.703125 
L 18.3125 18.015625 
Q 18.3125 11.328125 20.140625 9.421875 
Q 21.96875 7.515625 27.59375 7.515625 
L 36.8125 7.515625 
L 36.8125 0 
L 27.59375 0 
Q 17.1875 0 13.234375 3.875 
Q 9.28125 7.765625 9.28125 18.015625 
L 9.28125 47.703125 
L 2.6875 47.703125 
L 2.6875 54.6875 
L 9.28125 54.6875 
L 9.28125 70.21875 
z
" id="DejaVuSans-116"/>
       <path d="M 9.421875 54.6875 
L 18.40625 54.6875 
L 18.40625 0 
L 9.421875 0 
z
M 9.421875 75.984375 
L 18.40625 75.984375 
L 18.40625 64.59375 
L 9.421875 64.59375 
z
" id="DejaVuSans-105"/>
       <path d="M 52 44.1875 
Q 55.375 50.25 60.0625 53.125 
Q 64.75 56 71.09375 56 
Q 79.640625 56 84.28125 50.015625 
Q 88.921875 44.046875 88.921875 33.015625 
L 88.921875 0 
L 79.890625 0 
L 79.890625 32.71875 
Q 79.890625 40.578125 77.09375 44.375 
Q 74.3125 48.1875 68.609375 48.1875 
Q 61.625 48.1875 57.5625 43.546875 
Q 53.515625 38.921875 53.515625 30.90625 
L 53.515625 0 
L 44.484375 0 
L 44.484375 32.71875 
Q 44.484375 40.625 41.703125 44.40625 
Q 38.921875 48.1875 33.109375 48.1875 
Q 26.21875 48.1875 22.15625 43.53125 
Q 18.109375 38.875 18.109375 30.90625 
L 18.109375 0 
L 9.078125 0 
L 9.078125 54.6875 
L 18.109375 54.6875 
L 18.109375 46.1875 
Q 21.1875 51.21875 25.484375 53.609375 
Q 29.78125 56 35.6875 56 
Q 41.65625 56 45.828125 52.96875 
Q 50 49.953125 52 44.1875 
z
" id="DejaVuSans-109"/>
       <path d="M 56.203125 29.59375 
L 56.203125 25.203125 
L 14.890625 25.203125 
Q 15.484375 15.921875 20.484375 11.0625 
Q 25.484375 6.203125 34.421875 6.203125 
Q 39.59375 6.203125 44.453125 7.46875 
Q 49.3125 8.734375 54.109375 11.28125 
L 54.109375 2.78125 
Q 49.265625 0.734375 44.1875 -0.34375 
Q 39.109375 -1.421875 33.890625 -1.421875 
Q 20.796875 -1.421875 13.15625 6.1875 
Q 5.515625 13.8125 5.515625 26.8125 
Q 5.515625 40.234375 12.765625 48.109375 
Q 20.015625 56 32.328125 56 
Q 43.359375 56 49.78125 48.890625 
Q 56.203125 41.796875 56.203125 29.59375 
z
M 47.21875 32.234375 
Q 47.125 39.59375 43.09375 43.984375 
Q 39.0625 48.390625 32.421875 48.390625 
Q 24.90625 48.390625 20.390625 44.140625 
Q 15.875 39.890625 15.1875 32.171875 
z
" id="DejaVuSans-101"/>
       <path d="M 44.28125 53.078125 
L 44.28125 44.578125 
Q 40.484375 46.53125 36.375 47.5 
Q 32.28125 48.484375 27.875 48.484375 
Q 21.1875 48.484375 17.84375 46.4375 
Q 14.5 44.390625 14.5 40.28125 
Q 14.5 37.15625 16.890625 35.375 
Q 19.28125 33.59375 26.515625 31.984375 
L 29.59375 31.296875 
Q 39.15625 29.25 43.1875 25.515625 
Q 47.21875 21.78125 47.21875 15.09375 
Q 47.21875 7.46875 41.1875 3.015625 
Q 35.15625 -1.421875 24.609375 -1.421875 
Q 20.21875 -1.421875 15.453125 -0.5625 
Q 10.6875 0.296875 5.421875 2 
L 5.421875 11.28125 
Q 10.40625 8.6875 15.234375 7.390625 
Q 20.0625 6.109375 24.8125 6.109375 
Q 31.15625 6.109375 34.5625 8.28125 
Q 37.984375 10.453125 37.984375 14.40625 
Q 37.984375 18.0625 35.515625 20.015625 
Q 33.0625 21.96875 24.703125 23.78125 
L 21.578125 24.515625 
Q 13.234375 26.265625 9.515625 29.90625 
Q 5.8125 33.546875 5.8125 39.890625 
Q 5.8125 47.609375 11.28125 51.796875 
Q 16.75 56 26.8125 56 
Q 31.78125 56 36.171875 55.265625 
Q 40.578125 54.546875 44.28125 53.078125 
z
" id="DejaVuSans-115"/>
       <path d="M 34.28125 27.484375 
Q 23.390625 27.484375 19.1875 25 
Q 14.984375 22.515625 14.984375 16.5 
Q 14.984375 11.71875 18.140625 8.90625 
Q 21.296875 6.109375 26.703125 6.109375 
Q 34.1875 6.109375 38.703125 11.40625 
Q 43.21875 16.703125 43.21875 25.484375 
L 43.21875 27.484375 
z
M 52.203125 31.203125 
L 52.203125 0 
L 43.21875 0 
L 43.21875 8.296875 
Q 40.140625 3.328125 35.546875 0.953125 
Q 30.953125 -1.421875 24.3125 -1.421875 
Q 15.921875 -1.421875 10.953125 3.296875 
Q 6 8.015625 6 15.921875 
Q 6 25.140625 12.171875 29.828125 
Q 18.359375 34.515625 30.609375 34.515625 
L 43.21875 34.515625 
L 43.21875 35.40625 
Q 43.21875 41.609375 39.140625 45 
Q 35.0625 48.390625 27.6875 48.390625 
Q 23 48.390625 18.546875 47.265625 
Q 14.109375 46.140625 10.015625 43.890625 
L 10.015625 52.203125 
Q 14.9375 54.109375 19.578125 55.046875 
Q 24.21875 56 28.609375 56 
Q 40.484375 56 46.34375 49.84375 
Q 52.203125 43.703125 52.203125 31.203125 
z
" id="DejaVuSans-97"/>
       <path d="M 18.109375 8.203125 
L 18.109375 -20.796875 
L 9.078125 -20.796875 
L 9.078125 54.6875 
L 18.109375 54.6875 
L 18.109375 46.390625 
Q 20.953125 51.265625 25.265625 53.625 
Q 29.59375 56 35.59375 56 
Q 45.5625 56 51.78125 48.09375 
Q 58.015625 40.1875 58.015625 27.296875 
Q 58.015625 14.40625 51.78125 6.484375 
Q 45.5625 -1.421875 35.59375 -1.421875 
Q 29.59375 -1.421875 25.265625 0.953125 
Q 20.953125 3.328125 18.109375 8.203125 
z
M 48.6875 27.296875 
Q 48.6875 37.203125 44.609375 42.84375 
Q 40.53125 48.484375 33.40625 48.484375 
Q 26.265625 48.484375 22.1875 42.84375 
Q 18.109375 37.203125 18.109375 27.296875 
Q 18.109375 17.390625 22.1875 11.75 
Q 26.265625 6.109375 33.40625 6.109375 
Q 40.53125 6.109375 44.609375 11.75 
Q 48.6875 17.390625 48.6875 27.296875 
z
" id="DejaVuSans-112"/>
      </defs>
      <use xlink:href="#DejaVuSans-116"/>
      <use x="39.208984" xlink:href="#DejaVuSans-105"/>
      <use x="66.992188" xlink:href="#DejaVuSans-109"/>
      <use x="164.404297" xlink:href="#DejaVuSans-101"/>
      <use x="225.927734" xlink:href="#DejaVuSans-115"/>
      <use x="278.027344" xlink:href="#DejaVuSans-116"/>
      <use x="317.236328" xlink:href="#DejaVuSans-97"/>
      <use x="378.515625" xlink:href="#DejaVuSans-109"/>
      <use x="475.927734" xlink:href="#DejaVuSans-112"/>
     </g>
    </g>
   </g>
   <g id="matplotlib.axis_2">
    <g id="ytick_1">
     <g id="line2d_22">
      <defs>
       <path d="M 0 0 
L -3.5 0 
" id="me55a95b9ed" style="stroke:#000000;stroke-width:0.8;"/>
      </defs>
      <g>
       <use style="stroke:#000000;stroke-width:0.8;" x="108" xlink:href="#me55a95b9ed" y="428.981609"/>
      </g>
     </g>
     <g id="text_23">
      <!-- 12200 -->
      <g transform="translate(69.1875 432.780828)scale(0.1 -0.1)">
       <use xlink:href="#DejaVuSans-49"/>
       <use x="63.623047" xlink:href="#DejaVuSans-50"/>
       <use x="127.246094" xlink:href="#DejaVuSans-50"/>
       <use x="190.869141" xlink:href="#DejaVuSans-48"/>
       <use x="254.492188" xlink:href="#DejaVuSans-48"/>
      </g>
     </g>
    </g>
    <g id="ytick_2">
     <g id="line2d_23">
      <g>
       <use style="stroke:#000000;stroke-width:0.8;" x="108" xlink:href="#me55a95b9ed" y="372.898075"/>
      </g>
     </g>
     <g id="text_24">
      <!-- 12400 -->
      <g transform="translate(69.1875 376.697293)scale(0.1 -0.1)">
       <use xlink:href="#DejaVuSans-49"/>
       <use x="63.623047" xlink:href="#DejaVuSans-50"/>
       <use x="127.246094" xlink:href="#DejaVuSans-52"/>
       <use x="190.869141" xlink:href="#DejaVuSans-48"/>
       <use x="254.492188" xlink:href="#DejaVuSans-48"/>
      </g>
     </g>
    </g>
    <g id="ytick_3">
     <g id="line2d_24">
      <g>
       <use style="stroke:#000000;stroke-width:0.8;" x="108" xlink:href="#me55a95b9ed" y="316.81454"/>
      </g>
     </g>
     <g id="text_25">
      <!-- 12600 -->
      <g transform="translate(69.1875 320.613758)scale(0.1 -0.1)">
       <use xlink:href="#DejaVuSans-49"/>
       <use x="63.623047" xlink:href="#DejaVuSans-50"/>
       <use x="127.246094" xlink:href="#DejaVuSans-54"/>
       <use x="190.869141" xlink:href="#DejaVuSans-48"/>
       <use x="254.492188" xlink:href="#DejaVuSans-48"/>
      </g>
     </g>
    </g>
    <g id="ytick_4">
     <g id="line2d_25">
      <g>
       <use style="stroke:#000000;stroke-width:0.8;" x="108" xlink:href="#me55a95b9ed" y="260.731005"/>
      </g>
     </g>
     <g id="text_26">
      <!-- 12800 -->
      <g transform="translate(69.1875 264.530223)scale(0.1 -0.1)">
       <use xlink:href="#DejaVuSans-49"/>
       <use x="63.623047" xlink:href="#DejaVuSans-50"/>
       <use x="127.246094" xlink:href="#DejaVuSans-56"/>
       <use x="190.869141" xlink:href="#DejaVuSans-48"/>
       <use x="254.492188" xlink:href="#DejaVuSans-48"/>
      </g>
     </g>
    </g>
    <g id="ytick_5">
     <g id="line2d_26">
      <g>
       <use style="stroke:#000000;stroke-width:0.8;" x="108" xlink:href="#me55a95b9ed" y="204.64747"/>
      </g>
     </g>
     <g id="text_27">
      <!-- 13000 -->
      <g transform="translate(69.1875 208.446689)scale(0.1 -0.1)">
       <use xlink:href="#DejaVuSans-49"/>
       <use x="63.623047" xlink:href="#DejaVuSans-51"/>
       <use x="127.246094" xlink:href="#DejaVuSans-48"/>
       <use x="190.869141" xlink:href="#DejaVuSans-48"/>
       <use x="254.492188" xlink:href="#DejaVuSans-48"/>
      </g>
     </g>
    </g>
    <g id="ytick_6">
     <g id="line2d_27">
      <g>
       <use style="stroke:#000000;stroke-width:0.8;" x="108" xlink:href="#me55a95b9ed" y="148.563935"/>
      </g>
     </g>
     <g id="text_28">
      <!-- 13200 -->
      <g transform="translate(69.1875 152.363154)scale(0.1 -0.1)">
       <use xlink:href="#DejaVuSans-49"/>
       <use x="63.623047" xlink:href="#DejaVuSans-51"/>
       <use x="127.246094" xlink:href="#DejaVuSans-50"/>
       <use x="190.869141" xlink:href="#DejaVuSans-48"/>
       <use x="254.492188" xlink:href="#DejaVuSans-48"/>
      </g>
     </g>
    </g>
    <g id="ytick_7">
     <g id="line2d_28">
      <g>
       <use style="stroke:#000000;stroke-width:0.8;" x="108" xlink:href="#me55a95b9ed" y="92.4804"/>
      </g>
     </g>
     <g id="text_29">
      <!-- 13400 -->
      <g transform="translate(69.1875 96.279619)scale(0.1 -0.1)">
       <use xlink:href="#DejaVuSans-49"/>
       <use x="63.623047" xlink:href="#DejaVuSans-51"/>
       <use x="127.246094" xlink:href="#DejaVuSans-52"/>
       <use x="190.869141" xlink:href="#DejaVuSans-48"/>
       <use x="254.492188" xlink:href="#DejaVuSans-48"/>
      </g>
     </g>
    </g>
    <g id="text_30">
     <!-- MB -->
     <g transform="translate(63.52375 260.715625)rotate(-90)scale(0.08 -0.08)">
      <defs>
       <path d="M 9.8125 72.90625 
L 24.515625 72.90625 
L 43.109375 23.296875 
L 61.8125 72.90625 
L 76.515625 72.90625 
L 76.515625 0 
L 66.890625 0 
L 66.890625 64.015625 
L 48.09375 14.015625 
L 38.1875 14.015625 
L 19.390625 64.015625 
L 19.390625 0 
L 9.8125 0 
z
" id="DejaVuSans-77"/>
       <path d="M 19.671875 34.8125 
L 19.671875 8.109375 
L 35.5 8.109375 
Q 43.453125 8.109375 47.28125 11.40625 
Q 51.125 14.703125 51.125 21.484375 
Q 51.125 28.328125 47.28125 31.5625 
Q 43.453125 34.8125 35.5 34.8125 
z
M 19.671875 64.796875 
L 19.671875 42.828125 
L 34.28125 42.828125 
Q 41.5 42.828125 45.03125 45.53125 
Q 48.578125 48.25 48.578125 53.8125 
Q 48.578125 59.328125 45.03125 62.0625 
Q 41.5 64.796875 34.28125 64.796875 
z
M 9.8125 72.90625 
L 35.015625 72.90625 
Q 46.296875 72.90625 52.390625 68.21875 
Q 58.5 63.53125 58.5 54.890625 
Q 58.5 48.1875 55.375 44.234375 
Q 52.25 40.28125 46.1875 39.3125 
Q 53.46875 37.75 57.5 32.78125 
Q 61.53125 27.828125 61.53125 20.40625 
Q 61.53125 10.640625 54.890625 5.3125 
Q 48.25 0 35.984375 0 
L 9.8125 0 
z
" id="DejaVuSans-66"/>
      </defs>
      <use xlink:href="#DejaVuSans-77"/>
      <use x="86.279297" xlink:href="#DejaVuSans-66"/>
     </g>
    </g>
   </g>
   <g id="line2d_29">
    <path clip-path="url(#pb6759c3d8e)" d="M 132.349091 79.806131 
L 132.691313 84.90932 
L 133.033535 85.141336 
L 133.375757 85.034517 
L 133.717979 80.343672 
L 134.060201 79.48912 
L 134.402423 79.910653 
L 135.086866 78.410593 
L 135.429088 78.61734 
L 135.77131 78.12 
L 136.113532 78.169389 
L 136.797976 82.303168 
L 137.824642 145.938543 
L 138.166864 197.723908 
L 139.19353 280.486766 
L 139.535752 322.066902 
L 140.562417 387.337871 
L 140.904639 393.220953 
L 141.246861 393.071636 
L 141.589083 393.608028 
L 141.931305 392.774151 
L 142.273527 393.195684 
L 142.957971 396.797665 
L 143.300193 395.103493 
L 143.642415 394.433865 
L 143.984637 396.54842 
L 144.326859 396.615039 
L 144.669081 396.258976 
L 145.011303 395.560632 
L 145.353525 395.797242 
L 145.695747 396.95617 
L 146.38019 396.642605 
L 146.722412 395.76623 
L 147.064634 398.188608 
L 147.406856 397.926729 
L 147.749078 397.463847 
L 148.0913 396.80111 
L 148.433522 396.967656 
L 148.775744 398.352857 
L 149.117966 397.938215 
L 149.460188 398.197797 
L 149.80241 396.451939 
L 150.144632 398.766349 
L 150.486854 398.584872 
L 150.829076 398.218471 
L 151.171298 396.525449 
L 151.513519 396.870026 
L 151.855741 398.291981 
L 152.197963 398.194351 
L 152.882407 396.595513 
L 153.224629 398.56994 
L 153.566851 398.543523 
L 154.251295 396.608147 
L 154.593517 396.716115 
L 154.935739 397.999091 
L 155.277961 397.383446 
L 155.620183 397.304193 
L 155.962405 396.590918 
L 156.304627 397.509791 
L 156.646849 398.051926 
L 156.98907 397.927878 
L 157.331292 397.223792 
L 158.015736 399.602523 
L 158.357958 399.689816 
L 158.70018 399.416452 
L 159.384624 396.80111 
L 160.069068 398.110504 
L 160.41129 397.195077 
L 160.753512 397.612016 
L 161.095734 398.310359 
L 161.437956 398.362045 
L 161.780178 398.190905 
L 162.1224 397.581004 
L 162.464621 398.684799 
L 162.806843 398.123138 
L 163.149065 397.999091 
L 163.491287 396.904484 
L 163.833509 396.797665 
L 164.175731 398.580278 
L 164.860175 398.15415 
L 165.202397 396.635713 
L 165.544619 399.262541 
L 165.886841 399.435978 
L 166.229063 398.97769 
L 166.913507 397.675188 
L 167.255729 398.165636 
L 167.597951 397.757887 
L 167.940172 397.821059 
L 168.282394 397.281221 
L 168.624616 397.979565 
L 168.966838 397.900312 
L 169.30906 397.941661 
L 169.651282 397.121567 
L 169.993504 397.692417 
L 170.335726 398.498728 
L 170.677948 398.722703 
L 171.362392 398.171379 
L 171.704614 399.473881 
L 172.046836 399.383143 
L 172.389058 398.668719 
L 172.73128 401.302438 
L 173.415724 403.425034 
L 173.757945 400.200939 
L 174.442389 400.36289 
L 174.784611 400.906174 
L 175.126833 402.442988 
L 175.469055 402.696827 
L 175.811277 401.858356 
L 176.153499 398.61933 
L 176.495721 401.334598 
L 176.837943 401.312775 
L 177.180165 400.539773 
L 177.522387 397.37196 
L 177.864609 399.805824 
L 178.206831 400.041285 
L 178.891275 398.478053 
L 179.233496 399.213151 
L 179.575718 400.617878 
L 179.91794 399.674885 
L 180.260162 399.634684 
L 180.602384 398.932895 
L 180.944606 400.226208 
L 181.286828 400.374376 
L 181.62905 400.361742 
L 181.971272 399.060389 
L 182.313494 398.221917 
L 182.655716 398.945529 
L 183.34016 398.61129 
L 183.682382 397.427092 
L 184.024604 400.305461 
L 184.366826 400.522545 
L 184.709047 400.570785 
L 185.051269 399.070726 
L 185.393491 398.900734 
L 185.735713 400.68105 
L 187.104601 399.508339 
L 187.446823 399.623198 
L 187.789045 399.540499 
L 188.131267 398.637707 
L 188.473489 399.578403 
L 188.815711 399.504893 
L 189.157933 399.23038 
L 189.500155 398.457378 
L 189.842377 398.451635 
L 190.184598 398.148407 
L 190.52682 398.49643 
L 190.869042 398.521699 
L 191.211264 397.629244 
L 191.553486 397.879637 
L 191.895708 399.403817 
L 192.23793 398.988027 
L 192.922374 397.289262 
L 193.264596 399.656507 
L 193.606818 399.742651 
L 193.94904 399.579552 
L 194.291262 398.885803 
L 194.633484 400.562745 
L 195.660149 399.00181 
L 196.002371 399.288958 
L 196.344593 400.616729 
L 196.686815 399.81731 
L 197.029037 399.911494 
L 197.371259 399.485367 
L 197.713481 400.774086 
L 198.055703 399.421046 
L 198.397925 399.147681 
L 198.740147 398.550414 
L 199.082369 398.685948 
L 199.424591 400.109052 
L 199.766813 404.23479 
L 200.109035 404.124525 
L 200.451257 403.112617 
L 200.793479 405.243253 
L 201.135701 405.422433 
L 201.477922 404.611528 
L 201.820144 404.436942 
L 202.162366 405.362706 
L 202.504588 405.129542 
L 202.84681 403.706438 
L 203.189032 403.252745 
L 203.531254 402.428057 
L 203.873476 404.354244 
L 204.215698 404.416267 
L 204.55792 404.695375 
L 204.900142 404.086622 
L 205.242364 404.627608 
L 205.926808 404.606933 
L 206.26903 404.804491 
L 206.611252 403.062079 
L 206.953473 404.25891 
L 207.295695 404.683889 
L 207.980139 404.090068 
L 208.322361 403.959128 
L 208.664583 404.328975 
L 209.006805 402.856481 
L 209.691249 402.082331 
L 210.033471 404.706861 
L 210.375693 404.794154 
L 210.717915 404.730981 
L 211.060137 403.473274 
L 211.402359 404.206075 
L 211.744581 404.366878 
L 212.086803 404.850435 
L 212.429024 404.490926 
L 212.771246 403.489355 
L 213.113468 405.706135 
L 213.45569 406.279282 
L 213.797912 405.852006 
L 214.482356 404.038381 
L 214.824578 404.23479 
L 215.1668 403.576648 
L 215.509022 403.596174 
L 215.851244 402.309752 
L 216.193466 404.997454 
L 216.535688 408.720037 
L 216.87791 408.653419 
L 217.220132 407.314162 
L 217.562354 404.564436 
L 217.904575 405.900247 
L 218.246797 406.45961 
L 218.589019 406.382655 
L 218.931241 404.171618 
L 219.273463 405.945042 
L 219.957907 405.955379 
L 220.300129 403.841972 
L 220.642351 404.417416 
L 220.984573 406.647979 
L 221.326795 405.533846 
L 221.669017 405.753227 
L 222.011239 405.0009 
L 222.353461 405.935853 
L 223.380126 403.278014 
L 223.722348 403.879876 
L 224.06457 405.052587 
L 224.406792 404.643688 
L 224.749014 404.704564 
L 225.091236 403.894807 
L 225.433458 406.790405 
L 225.77568 406.235635 
L 226.117902 406.146045 
L 226.460124 405.569453 
L 226.802346 405.271968 
L 227.144568 406.157531 
L 227.48679 406.257458 
L 227.829012 406.079427 
L 228.171234 404.743616 
L 228.513456 406.066792 
L 228.855678 405.901395 
L 229.197899 405.127245 
L 229.540121 403.955682 
L 229.882343 403.381387 
L 230.224565 405.787685 
L 230.566787 404.232493 
L 230.909009 404.37377 
L 231.251231 403.907442 
L 231.593453 404.946916 
L 232.277897 404.865366 
L 232.620119 403.603065 
L 233.304563 405.560264 
L 233.646785 405.637219 
L 234.331229 405.076707 
L 234.67345 406.538863 
L 235.015672 406.360832 
L 235.357894 405.931259 
L 235.700116 405.259333 
L 236.042338 406.169017 
L 236.38456 405.803765 
L 236.726782 404.455319 
L 237.069004 404.276139 
L 237.411226 403.366455 
L 237.753448 405.962271 
L 238.09567 406.013957 
L 238.437892 406.231041 
L 238.780114 404.377215 
L 239.122336 404.368027 
L 239.464558 405.302979 
L 239.80678 405.428176 
L 240.149001 405.429324 
L 240.491223 404.212967 
L 241.175667 409.990379 
L 241.517889 409.887005 
L 241.860111 408.809627 
L 242.202333 409.289738 
L 242.544555 407.254435 
L 242.886777 406.80189 
L 243.228999 406.689329 
L 243.571221 405.118056 
L 243.913443 405.594722 
L 244.255665 405.692352 
L 244.597887 405.178932 
L 244.940109 405.165149 
L 245.282331 404.486331 
L 245.624552 405.973757 
L 246.308996 405.807211 
L 246.651218 404.353095 
L 246.99344 405.722215 
L 247.335662 405.917476 
L 247.677884 405.779645 
L 248.020106 405.114611 
L 248.362328 406.676694 
L 248.70455 406.638791 
L 249.046772 406.139154 
L 249.388994 405.306425 
L 250.073438 405.44081 
L 250.41566 404.849286 
L 250.757882 404.659769 
L 251.100103 403.783394 
L 251.442325 405.390272 
L 251.784547 405.047992 
L 252.126769 404.873407 
L 252.811213 403.317066 
L 253.153435 406.669803 
L 253.495657 406.429747 
L 253.837879 406.486028 
L 254.180101 409.656139 
L 254.522323 409.988081 
L 254.864545 410.132804 
L 255.206767 409.855993 
L 255.548989 409.812347 
L 255.891211 409.131233 
L 256.233433 411.362945 
L 256.575655 411.583474 
L 256.917876 411.620229 
L 257.260098 410.137398 
L 257.60232 410.403871 
L 257.944542 411.679956 
L 258.286764 411.632863 
L 258.628986 410.588794 
L 258.971208 408.808479 
L 259.31343 412.054396 
L 259.655652 412.146283 
L 259.997874 411.449089 
L 260.340096 414.085105 
L 260.682318 414.709938 
L 261.02454 413.825523 
L 261.366762 413.934639 
L 261.708984 411.245788 
L 262.051206 410.316578 
L 262.393427 411.261869 
L 262.735649 410.461301 
L 263.077871 413.954165 
L 263.420093 412.668892 
L 263.762315 414.364212 
L 264.104537 411.915417 
L 264.788981 412.057842 
L 265.131203 410.272932 
L 265.473425 411.08154 
L 266.157869 411.034448 
L 266.500091 409.545874 
L 266.842313 409.868628 
L 267.184535 411.607594 
L 267.526757 411.838461 
L 268.2112 409.896194 
L 268.553422 410.334956 
L 268.895644 410.004162 
L 269.237866 410.000716 
L 269.580088 409.623978 
L 269.92231 410.293607 
L 270.264532 411.964806 
L 270.606754 411.624823 
L 270.948976 411.79022 
L 271.291198 411.42382 
L 271.63342 412.71943 
L 272.317864 412.219793 
L 272.660086 409.896194 
L 273.344529 412.063585 
L 273.686751 411.740831 
L 274.028973 411.739682 
L 274.371195 410.977018 
L 274.713417 412.416202 
L 275.055639 411.486992 
L 275.397861 411.667321 
L 275.740083 410.82081 
L 276.082305 412.115272 
L 276.424527 412.968674 
L 277.108971 413.000835 
L 277.451193 412.220942 
L 277.793415 411.977441 
L 278.135637 411.553611 
L 278.477859 411.57888 
L 278.82008 410.190233 
L 279.504524 412.219793 
L 279.846746 412.040613 
L 280.188968 409.7285 
L 280.53119 409.815793 
L 280.873412 411.029853 
L 281.557856 411.498478 
L 281.900078 410.325767 
L 282.2423 410.67379 
L 282.584522 412.639029 
L 283.268966 412.684973 
L 283.611188 411.559354 
L 283.95341 411.084986 
L 284.295632 410.82081 
L 284.637853 410.767975 
L 284.980075 409.49993 
L 285.664519 412.249657 
L 286.006741 412.292154 
L 286.348963 412.706796 
L 286.691185 411.894742 
L 287.033407 412.2554 
L 287.375629 412.031424 
L 288.060073 409.996121 
L 288.402295 411.044785 
L 288.744517 413.259268 
L 289.086739 412.486266 
L 289.428961 412.297897 
L 289.771183 411.706373 
L 290.113404 412.297897 
L 290.455626 412.33695 
L 290.797848 411.949874 
L 291.14007 411.181467 
L 291.824514 413.896736 
L 292.166736 412.705647 
L 292.508958 412.814763 
L 292.85118 411.468615 
L 293.193402 411.397402 
L 293.877846 411.398551 
L 294.220068 411.165387 
L 294.904512 412.075071 
L 295.246734 412.2956 
L 295.588955 409.929503 
L 295.931177 410.189085 
L 296.273399 412.449511 
L 296.615621 412.333504 
L 297.300065 410.916143 
L 297.642287 411.352607 
L 297.984509 413.275348 
L 298.326731 412.984755 
L 298.668953 412.982458 
L 299.011175 412.110677 
L 299.353397 410.914994 
L 300.037841 410.965532 
L 300.380063 410.426843 
L 301.064506 411.650092 
L 301.74895 411.674213 
L 302.091172 409.913423 
L 302.433394 411.266463 
L 302.775616 411.388214 
L 303.117838 411.238897 
L 303.46006 410.417654 
L 303.802282 411.091877 
L 304.144504 413.329332 
L 304.486726 416.539643 
L 304.828948 416.572952 
L 305.17117 415.534626 
L 305.513392 416.730309 
L 305.855614 413.846198 
L 306.197836 414.060984 
L 306.540057 412.867598 
L 306.882279 413.267308 
L 307.224501 414.03227 
L 307.566723 413.943828 
L 307.908945 412.348435 
L 308.251167 411.705225 
L 308.593389 412.253102 
L 309.277833 412.194524 
L 309.620055 411.078094 
L 309.962277 412.668892 
L 310.304499 413.024955 
L 310.646721 412.665446 
L 310.988943 412.900908 
L 311.331165 411.888999 
L 311.673387 413.428111 
L 312.35783 413.414328 
L 312.700052 412.487415 
L 313.042274 412.309383 
L 313.384496 412.918136 
L 313.726718 413.036441 
L 314.06894 413.448785 
L 314.411162 411.986629 
L 314.753384 413.077791 
L 315.095606 413.023807 
L 315.437828 412.62984 
L 315.78005 411.75002 
L 316.122272 412.285263 
L 316.464494 413.556753 
L 316.806716 412.966377 
L 317.148938 413.144409 
L 317.49116 412.421945 
L 317.833381 413.008875 
L 318.175603 412.542547 
L 318.517825 411.392808 
L 318.860047 411.632863 
L 319.202269 412.6218 
L 319.544491 413.961057 
L 319.886713 413.57513 
L 320.228935 413.40399 
L 320.571157 412.216347 
L 320.913379 412.006155 
L 321.255601 412.161215 
L 321.597823 411.251531 
L 321.940045 409.733094 
L 322.282267 411.071202 
L 322.624489 413.010024 
L 323.651154 410.780609 
L 323.993376 412.794089 
L 324.335598 412.495455 
L 324.67782 412.756185 
L 325.020042 411.406591 
L 325.704486 413.985177 
L 326.046708 414.051796 
L 326.731152 413.160489 
L 327.073374 413.051373 
L 327.415596 413.239742 
L 327.757818 412.565519 
L 328.10004 411.596108 
L 328.442262 412.432283 
L 328.784483 414.939656 
L 329.468927 413.658978 
L 330.153371 412.301343 
L 330.495593 412.934217 
L 330.837815 413.098465 
L 331.180037 417.167922 
L 331.522259 416.8601 
L 331.864481 417.747961 
L 332.206703 417.96045 
L 332.548925 417.981125 
L 332.891147 417.135762 
L 333.233369 418.591026 
L 333.917813 418.223477 
L 334.260034 417.340211 
L 334.602256 417.677897 
L 335.2867 417.589455 
L 335.628922 417.048469 
L 335.971144 416.872735 
L 336.313366 417.587158 
L 336.655588 418.015582 
L 336.99781 418.087944 
L 337.340032 416.424784 
L 337.682254 417.563038 
L 338.024476 419.330719 
L 338.366698 418.239558 
L 338.70892 418.175237 
L 339.051142 417.849037 
L 339.393364 420.032508 
L 340.420029 418.135036 
L 341.104473 419.222751 
L 341.446695 419.427201 
L 341.788917 418.914929 
L 342.131139 417.165625 
L 342.473361 418.566906 
L 342.815583 419.205522 
L 343.157805 419.029788 
L 343.500027 417.809985 
L 343.842249 417.102453 
L 344.184471 418.331445 
L 344.868915 418.135036 
L 345.211137 417.682491 
L 345.553358 418.875877 
L 345.89558 418.825339 
L 346.237802 418.56346 
L 346.580024 417.943221 
L 346.922246 418.004097 
L 347.264468 418.870134 
L 347.60669 419.133161 
L 347.948912 419.249169 
L 348.633356 423.373758 
L 348.975578 423.533413 
L 349.3178 423.109583 
L 349.660022 419.308896 
L 350.002244 419.880894 
L 350.344466 419.171065 
L 350.686688 417.179408 
L 351.028909 421.536013 
L 351.371131 420.101423 
L 351.713353 422.969455 
L 352.055575 419.693674 
L 352.397797 419.509899 
L 352.740019 418.731154 
L 353.082241 418.424481 
L 353.424463 419.197482 
L 353.766685 419.388148 
L 354.108907 419.08492 
L 354.451129 417.877752 
L 354.793351 418.935604 
L 355.135573 419.292815 
L 355.477795 419.307747 
L 355.820017 417.713503 
L 356.162239 418.334891 
L 356.50446 420.380531 
L 356.846682 419.593746 
L 357.188904 418.334891 
L 357.531126 417.505608 
L 357.873348 418.398063 
L 358.21557 418.346377 
L 358.557792 418.582986 
L 358.900014 417.69168 
L 359.242236 417.501014 
L 359.584458 419.218157 
L 360.268902 418.919523 
L 360.611124 418.135036 
L 360.953346 419.293964 
L 361.295568 419.545505 
L 361.63779 418.975804 
L 361.980011 417.584861 
L 362.322233 418.291244 
L 362.664455 419.293964 
L 363.348899 418.922969 
L 363.691121 418.185574 
L 364.033343 419.716645 
L 364.375565 420.210539 
L 364.717787 419.692525 
L 365.060009 418.525557 
L 365.744453 420.031359 
L 366.428897 420.086492 
L 366.771119 419.029788 
L 367.113341 419.413417 
L 367.797784 419.576517 
L 368.482228 418.61285 
L 368.82445 420.267969 
L 369.166672 420.070411 
L 369.851116 417.464259 
L 370.193338 418.607107 
L 370.53556 418.855202 
L 370.877782 418.724263 
L 371.220004 417.074887 
L 371.562226 418.578392 
L 371.904448 421.117926 
L 372.24667 421.274135 
L 372.931114 419.907311 
L 373.273335 421.030633 
L 373.615557 420.277158 
L 373.957779 419.97393 
L 374.300001 419.171065 
L 374.642223 419.160727 
L 374.984445 420.107166 
L 375.668889 420.031359 
L 376.011111 418.922969 
L 376.353333 420.974352 
L 377.037777 419.298558 
L 377.379999 418.2051 
L 377.722221 417.963896 
L 378.064443 419.62361 
L 378.748886 419.480036 
L 379.091108 418.851757 
L 379.43333 419.101001 
L 379.775552 420.522956 
L 380.117774 419.364028 
L 380.459996 419.40308 
L 380.802218 419.035531 
L 381.14444 420.533293 
L 381.486662 420.513767 
L 381.828884 420.369045 
L 382.171106 418.956278 
L 382.513328 420.815847 
L 382.85555 418.823042 
L 383.197772 418.739195 
L 383.539994 416.872735 
L 383.882216 416.883072 
L 384.224437 418.068418 
L 384.908881 418.349822 
L 385.251103 417.50446 
L 385.593325 417.904169 
L 385.935547 419.349096 
L 386.277769 419.393891 
L 386.619991 419.323827 
L 386.962213 418.62893 
L 387.304435 420.533293 
L 387.646657 421.015702 
L 387.988879 420.798618 
L 388.331101 419.90042 
L 388.673323 419.515642 
L 389.015545 419.725834 
L 389.357767 419.5501 
L 390.04221 417.790459 
L 390.384432 418.835676 
L 390.726654 418.78399 
L 391.068876 418.556569 
L 391.411098 416.984148 
L 391.75332 419.50875 
L 392.095542 419.658067 
L 392.437764 423.033776 
L 392.779986 422.396308 
L 393.122208 422.098823 
L 393.46443 421.295958 
L 393.806652 421.040971 
L 394.148874 421.085766 
L 394.491096 419.934878 
L 394.833318 421.457909 
L 395.17554 419.681039 
L 395.517761 419.399634 
L 395.859983 417.754852 
L 396.202205 417.850185 
L 396.544427 419.246872 
L 396.886649 419.455915 
L 397.228871 419.509899 
L 397.571093 418.46583 
L 397.913315 420.967461 
L 398.597759 419.999199 
L 398.939981 420.16115 
L 399.282203 417.301159 
L 399.624425 419.722388 
L 400.308869 419.604083 
L 400.651091 419.07688 
L 400.993312 420.534442 
L 401.335534 424.748622 
L 401.677756 423.914745 
L 402.3622 422.934997 
L 402.704422 424.806051 
L 403.046644 425.189681 
L 403.388866 425.309134 
L 403.731088 423.427742 
L 404.07331 424.253579 
L 404.415532 424.760108 
L 404.757754 424.647546 
L 405.099976 424.965705 
L 405.442198 424.330535 
L 405.78442 426.669065 
L 406.126642 425.624996 
L 406.468863 425.32866 
L 407.153307 424.177772 
L 407.495529 425.27123 
L 407.837751 424.824429 
L 408.179973 424.104262 
L 408.522195 424.027307 
L 408.864417 425.669791 
L 409.206639 425.125359 
L 409.548861 424.933545 
L 409.891083 424.023861 
L 410.233305 426.155645 
L 410.575527 426.415227 
L 410.917749 425.877686 
L 411.602193 424.161692 
L 411.944414 425.906401 
L 412.286636 429.11901 
L 412.628858 428.700923 
L 412.97108 427.582195 
L 413.313302 428.437895 
L 413.655524 425.341295 
L 413.997746 425.210355 
L 414.339968 424.21223 
L 415.024412 425.865052 
L 415.708856 426.24983 
L 416.051078 425.615808 
L 416.735522 425.826 
L 417.419966 423.990552 
L 417.762187 424.430462 
L 418.104409 426.048826 
L 418.446631 425.917887 
L 418.788853 425.041512 
L 419.131075 424.606196 
L 419.473297 425.743301 
L 419.815519 426.10281 
L 420.499963 425.102388 
L 420.842185 425.643374 
L 421.184407 427.04006 
L 421.526629 426.515154 
L 421.868851 426.628865 
L 422.211073 425.784651 
L 422.895517 425.095496 
L 423.57996 423.024587 
L 423.922182 423.332409 
L 424.264404 425.109279 
L 424.606626 425.07597 
L 424.948848 425.357375 
L 425.29107 424.42357 
L 425.633292 426.134971 
L 425.975514 426.051124 
L 426.659958 424.708421 
L 427.00218 424.956517 
L 427.344402 426.370432 
L 427.686624 425.824851 
L 428.028846 426.172874 
L 428.713289 424.1548 
L 429.055511 424.626871 
L 429.397733 423.853869 
L 429.739955 422.635215 
L 430.082177 423.302546 
L 430.424399 424.777336 
L 430.766621 424.492486 
L 431.108843 424.569441 
L 431.451065 423.702255 
L 431.793287 424.89679 
L 432.135509 425.629591 
L 432.819953 424.020415 
L 433.162175 424.577482 
L 433.504397 426.066055 
L 433.846619 425.587093 
L 434.18884 425.317174 
L 434.531062 423.968729 
L 434.873284 425.113874 
L 435.215506 424.661329 
L 435.557728 425.041512 
L 435.89995 424.270808 
L 436.242172 428.249526 
L 436.584394 430.530628 
L 436.926616 430.783318 
L 437.268838 430.12977 
L 437.61106 425.279271 
L 437.953282 425.514732 
L 438.295504 425.47568 
L 438.637726 424.444245 
L 438.979948 427.525914 
L 439.32217 428.217366 
L 439.664391 429.665739 
L 440.006613 426.082136 
L 440.348835 424.633763 
L 440.691057 424.022712 
L 441.033279 425.024283 
L 441.375501 424.974894 
L 441.717723 423.22559 
L 442.059945 423.010804 
L 442.402167 423.94346 
L 442.744389 424.439651 
L 443.428833 424.103114 
L 443.771055 422.519207 
L 444.113277 424.781931 
L 444.455499 425.194275 
L 445.139943 423.819412 
L 445.482164 423.688472 
L 445.824386 423.830898 
L 446.166608 423.795291 
L 446.50883 423.972174 
L 446.851052 423.370313 
L 447.193274 425.901807 
L 447.877718 425.278122 
L 448.21994 424.463771 
L 448.562162 424.560253 
L 448.904384 430.200982 
L 449.246606 430.0643 
L 449.588828 429.678373 
L 449.93105 428.404586 
L 450.273272 429.24076 
L 450.957715 429.563514 
L 451.299937 428.80085 
L 451.642159 428.526337 
L 451.984381 428.558497 
L 452.326603 428.395397 
L 452.668825 428.591806 
L 453.011047 427.58679 
L 453.353269 427.589087 
L 453.695491 427.721175 
L 454.037713 427.400718 
L 454.379935 426.126931 
L 454.722157 426.95851 
L 455.064379 428.594104 
L 455.748823 428.0669 
L 456.091045 427.416798 
L 456.433266 428.056563 
L 456.775488 428.11629 
L 457.11771 428.448233 
L 457.459932 427.647665 
L 457.802154 427.546589 
L 458.144376 428.193245 
L 458.486598 428.170274 
L 458.82882 427.253698 
L 459.171042 425.995991 
L 459.513264 427.661448 
L 459.855486 427.747592 
L 460.53993 426.45313 
L 461.224374 429.809313 
L 461.566596 428.950167 
L 461.908817 429.120158 
L 462.251039 426.890743 
L 462.593261 429.750735 
L 463.277705 429.401563 
L 463.619927 428.429855 
L 463.962149 429.005299 
L 464.304371 429.910389 
L 464.646593 429.268326 
L 464.988815 428.886994 
L 465.331037 427.313425 
L 465.673259 428.367831 
L 466.015481 428.088724 
L 466.357703 425.936265 
L 466.699925 425.884578 
L 467.042147 427.631585 
L 467.384368 427.068775 
L 467.72659 425.966128 
L 468.068812 425.425142 
L 468.411034 426.247533 
L 468.753256 426.623122 
L 469.095478 426.284288 
L 469.4377 425.576756 
L 469.779922 425.366564 
L 470.122144 427.840628 
L 470.464366 426.988374 
L 470.806588 427.17904 
L 471.14881 426.6817 
L 471.491032 427.104381 
L 471.833254 428.366683 
L 472.517698 427.875086 
L 472.85992 425.877686 
L 473.202141 427.478822 
L 473.544363 427.424838 
L 473.886585 427.52132 
L 474.228807 425.626145 
L 474.913251 426.667917 
L 475.255473 426.864326 
L 475.597695 426.589813 
L 475.939917 425.796136 
L 476.282139 426.294625 
L 476.966583 425.982208 
L 477.651027 424.337426 
L 477.993249 425.778908 
L 478.335471 426.016666 
L 479.019914 424.634911 
L 479.362136 426.906824 
L 479.704358 426.067204 
L 480.04658 429.427981 
L 480.388802 428.978882 
L 480.731024 429.16725 
L 481.073246 430.92 
L 481.415468 427.547737 
L 481.75769 427.748741 
L 482.099912 425.652563 
L 482.442134 426.223412 
L 483.126578 424.922059 
L 483.4688 423.253156 
L 483.811022 424.373032 
L 484.153243 423.35653 
L 484.495465 423.10384 
L 484.837687 423.080868 
L 485.179909 422.50887 
L 485.522131 424.526944 
L 485.864353 424.498229 
L 486.206575 424.262768 
L 486.891019 422.787977 
L 487.233241 423.651717 
L 487.575463 423.795291 
L 487.917685 424.087033 
L 488.259907 423.104988 
L 488.602129 424.531538 
L 488.944351 428.993813 
L 489.286573 427.590235 
L 489.628794 427.064181 
L 490.313238 428.453976 
L 490.65546 427.639625 
L 491.339904 426.928647 
L 492.024348 427.328357 
L 492.36657 426.922904 
L 492.708792 426.193549 
L 493.051014 426.777033 
L 493.393236 427.981905 
L 493.735458 427.837182 
L 494.07768 427.825696 
L 494.419902 426.907972 
L 494.762124 427.344437 
L 495.104345 427.508685 
L 495.788789 425.64682 
L 496.131011 426.91027 
L 496.473233 427.729215 
L 496.815455 427.3743 
L 497.157677 427.717729 
L 497.499899 426.191252 
L 497.842121 429.244206 
L 498.526565 427.52936 
L 499.211009 427.935961 
L 499.553231 427.400718 
L 499.895453 427.158365 
L 500.237675 426.300368 
L 500.579897 424.744027 
L 500.922118 426.433604 
L 501.26434 426.365837 
L 501.948784 424.848549 
L 502.291006 425.004757 
L 502.633228 424.976043 
L 502.97545 424.149057 
L 503.317672 424.338575 
L 503.659894 423.277277 
L 504.002116 425.05989 
L 504.344338 425.056444 
L 504.68656 425.278122 
L 505.028782 424.444245 
L 505.371004 426.495628 
L 505.713226 426.580624 
L 506.055448 425.457302 
L 506.397669 425.595133 
L 506.739891 424.984083 
L 507.082113 426.083284 
L 507.424335 425.579053 
L 507.766557 425.750193 
L 508.451001 424.694638 
L 508.793223 425.26319 
L 509.135445 424.145611 
L 509.477667 424.331683 
L 509.819889 423.853869 
L 510.162111 425.26319 
L 510.504333 425.005906 
L 510.846555 423.510441 
L 511.188777 422.840812 
L 511.87322 424.056021 
L 512.215442 424.052576 
L 512.557664 423.813669 
L 512.899886 423.173904 
L 513.242108 425.840932 
L 513.58433 424.431611 
L 513.926552 424.653289 
L 514.268774 423.588545 
L 514.610996 424.927802 
L 514.953218 425.146034 
L 515.29544 424.837063 
L 515.637662 424.043387 
L 515.979884 424.026158 
L 516.322106 423.781508 
L 517.348771 421.112183 
L 517.690993 423.053302 
L 518.033215 423.423148 
L 518.375437 423.222144 
L 518.717659 422.354958 
L 519.059881 421.918494 
L 519.402103 422.68001 
L 519.744325 422.611094 
L 520.086547 422.327392 
L 520.428769 421.753097 
L 520.770991 423.825155 
L 521.455435 423.158972 
L 521.797657 421.885185 
L 522.139879 421.151235 
L 522.482101 421.811675 
L 523.166544 420.688353 
L 523.508766 420.022171 
L 523.850988 421.194882 
L 524.535432 430.222805 
L 524.877654 428.534377 
L 525.219876 425.027729 
L 525.562098 425.046107 
L 525.90432 424.469514 
L 526.246542 424.703827 
L 526.930986 429.246503 
L 527.273208 429.458993 
L 527.61543 426.531235 
L 527.957652 425.64682 
L 528.299874 425.486017 
L 528.642095 425.16556 
L 528.984317 425.027729 
L 529.326539 424.28574 
L 529.668761 422.269963 
L 530.010983 425.086307 
L 530.353205 423.842384 
L 530.695427 423.879138 
L 531.037649 422.94878 
L 531.379871 423.363421 
L 531.722093 424.722204 
L 532.064315 423.940014 
L 532.406537 424.232904 
L 532.748759 422.805206 
L 533.090981 425.302242 
L 533.433203 424.661329 
L 533.775425 424.412085 
L 534.117646 423.011952 
L 534.459868 422.132132 
L 534.80209 423.771171 
L 535.144312 423.888327 
L 535.486534 423.797588 
L 535.828756 422.678861 
L 536.170978 424.139869 
L 536.5132 423.829749 
L 536.855422 422.9729 
L 537.197644 420.771052 
L 537.539866 421.759988 
L 537.882088 423.443823 
L 538.22431 423.072828 
L 538.566532 423.040667 
L 538.908754 422.108011 
L 539.250976 423.911299 
L 539.593197 423.528818 
L 539.935419 423.394433 
L 540.277641 422.715616 
L 540.619863 423.430039 
L 540.962085 424.521201 
L 541.304307 424.842806 
L 541.646529 424.868075 
L 541.988751 423.643677 
L 542.330973 423.846978 
L 543.015417 422.561705 
L 543.357639 420.629775 
L 543.699861 420.659638 
L 544.042083 420.973204 
L 544.726527 419.710902 
L 545.068748 418.075309 
L 545.41097 420.138178 
L 545.753192 420.143921 
L 546.437636 418.511774 
L 546.779858 418.534745 
L 547.12208 419.896974 
L 547.464302 419.707457 
L 547.806524 420.106018 
L 548.148746 419.181402 
L 548.490968 419.589152 
L 548.83319 419.172213 
L 549.175412 419.270992 
L 549.517634 418.239558 
L 549.859856 419.601786 
L 550.202078 420.352965 
L 550.544299 420.208242 
L 551.228743 417.590604 
L 551.570965 418.635821 
L 551.913187 418.863242 
L 552.255409 418.659942 
L 552.597631 417.405681 
L 552.939853 417.939775 
L 553.282075 419.824613 
L 553.624297 419.740766 
L 554.308741 417.845591 
L 554.650963 418.545083 
L 554.993185 418.355565 
L 555.335407 418.377389 
L 555.677629 417.571078 
L 556.019851 418.09943 
L 556.362072 418.949387 
L 556.704294 418.618593 
L 557.046516 418.777098 
L 557.388738 418.044297 
L 557.73096 417.574524 
L 558.073182 417.366629 
L 558.757626 415.582867 
L 559.099848 416.641868 
L 559.44207 418.697845 
L 559.784292 418.174088 
L 560.468736 416.347829 
L 560.810958 417.656073 
L 561.15318 417.47115 
L 561.495402 417.739921 
L 561.837623 417.026646 
L 562.179845 417.27589 
L 562.522067 418.338336 
L 562.864289 418.48191 
L 563.206511 418.076458 
L 563.548733 417.265553 
L 563.890955 418.899997 
L 564.233177 418.640416 
L 564.575399 418.619741 
L 564.917621 416.800373 
L 565.259843 417.337914 
L 565.602065 417.63425 
L 565.944287 415.880352 
L 566.286509 415.17282 
L 566.628731 413.531484 
L 566.970953 412.961783 
L 567.313174 413.198393 
L 567.655396 413.740527 
L 567.997618 416.228375 
L 568.682062 418.665685 
L 569.024284 415.116539 
L 569.366506 414.922427 
L 569.708728 414.193072 
L 570.05095 416.056087 
L 571.077616 414.013892 
L 571.419838 414.06443 
L 571.76206 414.709938 
L 572.104282 413.913965 
L 572.446504 413.870318 
L 572.788725 413.237445 
L 573.130947 414.893713 
L 573.473169 413.278794 
L 573.815391 413.105357 
L 574.157613 412.574708 
L 574.499835 411.329635 
L 574.842057 412.748145 
L 575.526501 412.465592 
L 575.868723 411.227411 
L 576.553167 412.455254 
L 576.895389 411.283692 
L 577.237611 415.215318 
L 577.579833 414.187329 
L 577.922055 416.059532 
L 578.264276 416.381138 
L 578.606498 416.858951 
L 578.94872 416.165203 
L 579.290942 417.209272 
L 579.633164 417.571078 
L 580.317608 414.924725 
L 580.65983 414.590485 
L 581.002052 417.336765 
L 581.344274 416.593627 
L 581.686496 416.711932 
L 582.37094 415.330177 
L 582.713162 416.42823 
L 583.055384 416.345531 
L 583.397606 419.672999 
L 583.739828 419.090663 
L 584.082049 420.791726 
L 584.424271 420.915774 
L 584.766493 417.494122 
L 585.108715 416.738349 
L 585.450937 416.580993 
L 585.793159 416.246753 
L 586.135381 415.640297 
L 586.477603 415.544964 
L 586.819825 414.147129 
L 587.162047 416.45235 
L 587.504269 416.259387 
L 587.846491 415.32788 
L 588.188713 413.393653 
L 588.530935 412.846924 
L 588.873157 413.603845 
L 589.215379 412.542547 
L 589.5576 412.276074 
L 589.899822 411.462872 
L 590.242044 413.920856 
L 590.584266 413.46946 
L 590.926488 413.351155 
L 591.26871 412.830844 
L 591.610932 413.147855 
L 591.953154 411.931497 
L 592.295376 412.152026 
L 592.637598 411.86373 
L 592.97982 410.939115 
L 593.322042 413.854238 
L 593.664264 413.707218 
L 594.006486 413.301766 
L 594.69093 418.240706 
L 595.033151 416.93361 
L 595.375373 415.107351 
L 595.717595 412.38519 
L 596.059817 411.232005 
L 596.402039 413.424665 
L 596.744261 412.796386 
L 597.086483 412.831992 
L 597.428705 412.20601 
L 597.770927 413.284537 
L 598.113149 411.83961 
L 598.455371 411.722453 
L 598.797593 410.223542 
L 599.139815 409.364397 
L 599.482037 411.741979 
L 599.824259 411.925754 
L 600.166481 411.66847 
L 600.508702 410.542851 
L 600.850924 411.682253 
L 601.193146 411.940686 
L 601.87759 410.198273 
L 602.219812 410.191382 
L 602.562034 410.406168 
L 602.904256 410.380899 
L 603.246478 411.079243 
L 603.5887 409.821536 
L 603.930922 410.291309 
L 604.273144 412.496604 
L 604.615366 412.048653 
L 604.957588 412.138243 
L 605.29981 411.106809 
L 605.642032 412.201416 
L 605.984253 411.566245 
L 606.326475 411.634012 
L 606.668697 409.553914 
L 607.353141 411.994669 
L 607.695363 411.857987 
L 608.379807 410.326916 
L 608.722029 411.269909 
L 609.064251 410.842633 
L 609.406473 411.035596 
L 609.748695 409.634315 
L 610.090917 409.835319 
L 610.433139 410.541702 
L 611.117583 409.424123 
L 611.802026 406.95695 
L 612.144248 411.325041 
L 612.828692 409.650396 
L 613.170914 407.736843 
L 613.513136 409.828427 
L 613.855358 408.601732 
L 614.19758 408.507548 
L 614.539802 411.469763 
L 614.882024 412.805575 
L 615.224246 413.356898 
L 615.566468 413.341966 
L 615.90869 412.140541 
L 616.250912 409.5654 
L 616.593134 411.214776 
L 617.277577 409.05198 
L 617.619799 407.440507 
L 617.962021 408.007911 
L 618.646465 407.38882 
L 618.988687 406.585955 
L 619.330909 408.971578 
L 619.330909 408.971578 
" style="fill:none;stroke:#1f77b4;stroke-linecap:square;stroke-width:1.5;"/>
   </g>
   <g id="patch_3">
    <path d="M 108 448.56 
L 108 60.48 
" style="fill:none;stroke:#000000;stroke-linecap:square;stroke-linejoin:miter;stroke-width:0.8;"/>
   </g>
   <g id="patch_4">
    <path d="M 643.68 448.56 
L 643.68 60.48 
" style="fill:none;stroke:#000000;stroke-linecap:square;stroke-linejoin:miter;stroke-width:0.8;"/>
   </g>
   <g id="patch_5">
    <path d="M 108 448.56 
L 643.68 448.56 
" style="fill:none;stroke:#000000;stroke-linecap:square;stroke-linejoin:miter;stroke-width:0.8;"/>
   </g>
   <g id="patch_6">
    <path d="M 108 60.48 
L 643.68 60.48 
" style="fill:none;stroke:#000000;stroke-linecap:square;stroke-linejoin:miter;stroke-width:0.8;"/>
   </g>
   <g id="text_31">
    <!-- unikernel_base - free -->
    <g transform="translate(297.273984 54.48)scale(0.15 -0.15)">
     <defs>
      <path d="M 8.5 21.578125 
L 8.5 54.6875 
L 17.484375 54.6875 
L 17.484375 21.921875 
Q 17.484375 14.15625 20.5 10.265625 
Q 23.53125 6.390625 29.59375 6.390625 
Q 36.859375 6.390625 41.078125 11.03125 
Q 45.3125 15.671875 45.3125 23.6875 
L 45.3125 54.6875 
L 54.296875 54.6875 
L 54.296875 0 
L 45.3125 0 
L 45.3125 8.40625 
Q 42.046875 3.421875 37.71875 1 
Q 33.40625 -1.421875 27.6875 -1.421875 
Q 18.265625 -1.421875 13.375 4.4375 
Q 8.5 10.296875 8.5 21.578125 
z
M 31.109375 56 
z
" id="DejaVuSans-117"/>
      <path d="M 54.890625 33.015625 
L 54.890625 0 
L 45.90625 0 
L 45.90625 32.71875 
Q 45.90625 40.484375 42.875 44.328125 
Q 39.84375 48.1875 33.796875 48.1875 
Q 26.515625 48.1875 22.3125 43.546875 
Q 18.109375 38.921875 18.109375 30.90625 
L 18.109375 0 
L 9.078125 0 
L 9.078125 54.6875 
L 18.109375 54.6875 
L 18.109375 46.1875 
Q 21.34375 51.125 25.703125 53.5625 
Q 30.078125 56 35.796875 56 
Q 45.21875 56 50.046875 50.171875 
Q 54.890625 44.34375 54.890625 33.015625 
z
" id="DejaVuSans-110"/>
      <path d="M 9.078125 75.984375 
L 18.109375 75.984375 
L 18.109375 31.109375 
L 44.921875 54.6875 
L 56.390625 54.6875 
L 27.390625 29.109375 
L 57.625 0 
L 45.90625 0 
L 18.109375 26.703125 
L 18.109375 0 
L 9.078125 0 
z
" id="DejaVuSans-107"/>
      <path d="M 41.109375 46.296875 
Q 39.59375 47.171875 37.8125 47.578125 
Q 36.03125 48 33.890625 48 
Q 26.265625 48 22.1875 43.046875 
Q 18.109375 38.09375 18.109375 28.8125 
L 18.109375 0 
L 9.078125 0 
L 9.078125 54.6875 
L 18.109375 54.6875 
L 18.109375 46.1875 
Q 20.953125 51.171875 25.484375 53.578125 
Q 30.03125 56 36.53125 56 
Q 37.453125 56 38.578125 55.875 
Q 39.703125 55.765625 41.0625 55.515625 
z
" id="DejaVuSans-114"/>
      <path d="M 9.421875 75.984375 
L 18.40625 75.984375 
L 18.40625 0 
L 9.421875 0 
z
" id="DejaVuSans-108"/>
      <path d="M 50.984375 -16.609375 
L 50.984375 -23.578125 
L -0.984375 -23.578125 
L -0.984375 -16.609375 
z
" id="DejaVuSans-95"/>
      <path d="M 48.6875 27.296875 
Q 48.6875 37.203125 44.609375 42.84375 
Q 40.53125 48.484375 33.40625 48.484375 
Q 26.265625 48.484375 22.1875 42.84375 
Q 18.109375 37.203125 18.109375 27.296875 
Q 18.109375 17.390625 22.1875 11.75 
Q 26.265625 6.109375 33.40625 6.109375 
Q 40.53125 6.109375 44.609375 11.75 
Q 48.6875 17.390625 48.6875 27.296875 
z
M 18.109375 46.390625 
Q 20.953125 51.265625 25.265625 53.625 
Q 29.59375 56 35.59375 56 
Q 45.5625 56 51.78125 48.09375 
Q 58.015625 40.1875 58.015625 27.296875 
Q 58.015625 14.40625 51.78125 6.484375 
Q 45.5625 -1.421875 35.59375 -1.421875 
Q 29.59375 -1.421875 25.265625 0.953125 
Q 20.953125 3.328125 18.109375 8.203125 
L 18.109375 0 
L 9.078125 0 
L 9.078125 75.984375 
L 18.109375 75.984375 
z
" id="DejaVuSans-98"/>
      <path id="DejaVuSans-32"/>
      <path d="M 4.890625 31.390625 
L 31.203125 31.390625 
L 31.203125 23.390625 
L 4.890625 23.390625 
z
" id="DejaVuSans-45"/>
      <path d="M 37.109375 75.984375 
L 37.109375 68.5 
L 28.515625 68.5 
Q 23.6875 68.5 21.796875 66.546875 
Q 19.921875 64.59375 19.921875 59.515625 
L 19.921875 54.6875 
L 34.71875 54.6875 
L 34.71875 47.703125 
L 19.921875 47.703125 
L 19.921875 0 
L 10.890625 0 
L 10.890625 47.703125 
L 2.296875 47.703125 
L 2.296875 54.6875 
L 10.890625 54.6875 
L 10.890625 58.5 
Q 10.890625 67.625 15.140625 71.796875 
Q 19.390625 75.984375 28.609375 75.984375 
z
" id="DejaVuSans-102"/>
     </defs>
     <use xlink:href="#DejaVuSans-117"/>
     <use x="63.378906" xlink:href="#DejaVuSans-110"/>
     <use x="126.757812" xlink:href="#DejaVuSans-105"/>
     <use x="154.541016" xlink:href="#DejaVuSans-107"/>
     <use x="208.826172" xlink:href="#DejaVuSans-101"/>
     <use x="270.349609" xlink:href="#DejaVuSans-114"/>
     <use x="309.712891" xlink:href="#DejaVuSans-110"/>
     <use x="373.091797" xlink:href="#DejaVuSans-101"/>
     <use x="434.615234" xlink:href="#DejaVuSans-108"/>
     <use x="462.398438" xlink:href="#DejaVuSans-95"/>
     <use x="512.398438" xlink:href="#DejaVuSans-98"/>
     <use x="575.875" xlink:href="#DejaVuSans-97"/>
     <use x="637.154297" xlink:href="#DejaVuSans-115"/>
     <use x="689.253906" xlink:href="#DejaVuSans-101"/>
     <use x="750.777344" xlink:href="#DejaVuSans-32"/>
     <use x="782.564453" xlink:href="#DejaVuSans-45"/>
     <use x="818.648438" xlink:href="#DejaVuSans-32"/>
     <use x="850.435547" xlink:href="#DejaVuSans-102"/>
     <use x="885.640625" xlink:href="#DejaVuSans-114"/>
     <use x="924.503906" xlink:href="#DejaVuSans-101"/>
     <use x="986.027344" xlink:href="#DejaVuSans-101"/>
    </g>
   </g>
   <g id="legend_1">
    <g id="patch_7">
     <path d="M 650.68 258.52 
L 654.68 258.52 
Q 656.68 258.52 656.68 256.52 
L 656.68 252.52 
Q 656.68 250.52 654.68 250.52 
L 650.68 250.52 
Q 648.68 250.52 648.68 252.52 
L 648.68 256.52 
Q 648.68 258.52 650.68 258.52 
z
" style="fill:#ffffff;opacity:0.8;stroke:#cccccc;stroke-linejoin:miter;"/>
    </g>
   </g>
  </g>
 </g>
 <defs>
  <clipPath id="pb6759c3d8e">
   <rect height="388.08" width="535.68" x="108" y="60.48"/>
  </clipPath>
 </defs>
</svg>
