<?xml version="1.0" encoding="utf-8" standalone="no"?>
<!DOCTYPE svg PUBLIC "-//W3C//DTD SVG 1.1//EN"
  "http://www.w3.org/Graphics/SVG/1.1/DTD/svg11.dtd">
<!-- Created with matplotlib (https://matplotlib.org/) -->
<svg height="504pt" version="1.1" viewBox="0 0 864 504" width="864pt" xmlns="http://www.w3.org/2000/svg" xmlns:xlink="http://www.w3.org/1999/xlink">
 <metadata>
  <rdf:RDF xmlns:cc="http://creativecommons.org/ns#" xmlns:dc="http://purl.org/dc/elements/1.1/" xmlns:rdf="http://www.w3.org/1999/02/22-rdf-syntax-ns#">
   <cc:Work>
    <dc:type rdf:resource="http://purl.org/dc/dcmitype/StillImage"/>
    <dc:date>2022-05-29T17:21:33.537762</dc:date>
    <dc:format>image/svg+xml</dc:format>
    <dc:creator>
     <cc:Agent>
      <dc:title>Matplotlib v3.3.4, https://matplotlib.org/</dc:title>
     </cc:Agent>
    </dc:creator>
   </cc:Work>
  </rdf:RDF>
 </metadata>
 <defs>
  <style type="text/css">*{stroke-linecap:butt;stroke-linejoin:round;}</style>
 </defs>
 <g id="figure_1">
  <g id="patch_1">
   <path d="M 0 504 
L 864 504 
L 864 0 
L 0 0 
z
" style="fill:#ffffff;"/>
  </g>
  <g id="axes_1">
   <g id="patch_2">
    <path d="M 108 448.56 
L 643.68 448.56 
L 643.68 60.48 
L 108 60.48 
z
" style="fill:#ffffff;"/>
   </g>
   <g id="matplotlib.axis_1">
    <g id="xtick_1">
     <g id="line2d_1">
      <defs>
       <path d="M 0 0 
L 0 3.5 
" id="mc871e8644d" style="stroke:#000000;stroke-width:0.8;"/>
      </defs>
      <g>
       <use style="stroke:#000000;stroke-width:0.8;" x="132.349091" xlink:href="#mc871e8644d" y="448.56"/>
      </g>
     </g>
     <g id="text_1">
      <!-- 17:07:47 -->
      <g transform="translate(135.108466 500.4725)rotate(-90)scale(0.1 -0.1)">
       <defs>
        <path d="M 12.40625 8.296875 
L 28.515625 8.296875 
L 28.515625 63.921875 
L 10.984375 60.40625 
L 10.984375 69.390625 
L 28.421875 72.90625 
L 38.28125 72.90625 
L 38.28125 8.296875 
L 54.390625 8.296875 
L 54.390625 0 
L 12.40625 0 
z
" id="DejaVuSans-49"/>
        <path d="M 8.203125 72.90625 
L 55.078125 72.90625 
L 55.078125 68.703125 
L 28.609375 0 
L 18.3125 0 
L 43.21875 64.59375 
L 8.203125 64.59375 
z
" id="DejaVuSans-55"/>
        <path d="M 11.71875 12.40625 
L 22.015625 12.40625 
L 22.015625 0 
L 11.71875 0 
z
M 11.71875 51.703125 
L 22.015625 51.703125 
L 22.015625 39.3125 
L 11.71875 39.3125 
z
" id="DejaVuSans-58"/>
        <path d="M 31.78125 66.40625 
Q 24.171875 66.40625 20.328125 58.90625 
Q 16.5 51.421875 16.5 36.375 
Q 16.5 21.390625 20.328125 13.890625 
Q 24.171875 6.390625 31.78125 6.390625 
Q 39.453125 6.390625 43.28125 13.890625 
Q 47.125 21.390625 47.125 36.375 
Q 47.125 51.421875 43.28125 58.90625 
Q 39.453125 66.40625 31.78125 66.40625 
z
M 31.78125 74.21875 
Q 44.046875 74.21875 50.515625 64.515625 
Q 56.984375 54.828125 56.984375 36.375 
Q 56.984375 17.96875 50.515625 8.265625 
Q 44.046875 -1.421875 31.78125 -1.421875 
Q 19.53125 -1.421875 13.0625 8.265625 
Q 6.59375 17.96875 6.59375 36.375 
Q 6.59375 54.828125 13.0625 64.515625 
Q 19.53125 74.21875 31.78125 74.21875 
z
" id="DejaVuSans-48"/>
        <path d="M 37.796875 64.3125 
L 12.890625 25.390625 
L 37.796875 25.390625 
z
M 35.203125 72.90625 
L 47.609375 72.90625 
L 47.609375 25.390625 
L 58.015625 25.390625 
L 58.015625 17.1875 
L 47.609375 17.1875 
L 47.609375 0 
L 37.796875 0 
L 37.796875 17.1875 
L 4.890625 17.1875 
L 4.890625 26.703125 
z
" id="DejaVuSans-52"/>
       </defs>
       <use xlink:href="#DejaVuSans-49"/>
       <use x="63.623047" xlink:href="#DejaVuSans-55"/>
       <use x="127.246094" xlink:href="#DejaVuSans-58"/>
       <use x="160.9375" xlink:href="#DejaVuSans-48"/>
       <use x="224.560547" xlink:href="#DejaVuSans-55"/>
       <use x="288.183594" xlink:href="#DejaVuSans-58"/>
       <use x="321.875" xlink:href="#DejaVuSans-52"/>
       <use x="385.498047" xlink:href="#DejaVuSans-55"/>
      </g>
     </g>
    </g>
    <g id="xtick_2">
     <g id="line2d_2">
      <g>
       <use style="stroke:#000000;stroke-width:0.8;" x="156.426883" xlink:href="#mc871e8644d" y="448.56"/>
      </g>
     </g>
     <g id="text_2">
      <!-- 17:09:10 -->
      <g transform="translate(159.186258 500.4725)rotate(-90)scale(0.1 -0.1)">
       <defs>
        <path d="M 10.984375 1.515625 
L 10.984375 10.5 
Q 14.703125 8.734375 18.5 7.8125 
Q 22.3125 6.890625 25.984375 6.890625 
Q 35.75 6.890625 40.890625 13.453125 
Q 46.046875 20.015625 46.78125 33.40625 
Q 43.953125 29.203125 39.59375 26.953125 
Q 35.25 24.703125 29.984375 24.703125 
Q 19.046875 24.703125 12.671875 31.3125 
Q 6.296875 37.9375 6.296875 49.421875 
Q 6.296875 60.640625 12.9375 67.421875 
Q 19.578125 74.21875 30.609375 74.21875 
Q 43.265625 74.21875 49.921875 64.515625 
Q 56.59375 54.828125 56.59375 36.375 
Q 56.59375 19.140625 48.40625 8.859375 
Q 40.234375 -1.421875 26.421875 -1.421875 
Q 22.703125 -1.421875 18.890625 -0.6875 
Q 15.09375 0.046875 10.984375 1.515625 
z
M 30.609375 32.421875 
Q 37.25 32.421875 41.125 36.953125 
Q 45.015625 41.5 45.015625 49.421875 
Q 45.015625 57.28125 41.125 61.84375 
Q 37.25 66.40625 30.609375 66.40625 
Q 23.96875 66.40625 20.09375 61.84375 
Q 16.21875 57.28125 16.21875 49.421875 
Q 16.21875 41.5 20.09375 36.953125 
Q 23.96875 32.421875 30.609375 32.421875 
z
" id="DejaVuSans-57"/>
       </defs>
       <use xlink:href="#DejaVuSans-49"/>
       <use x="63.623047" xlink:href="#DejaVuSans-55"/>
       <use x="127.246094" xlink:href="#DejaVuSans-58"/>
       <use x="160.9375" xlink:href="#DejaVuSans-48"/>
       <use x="224.560547" xlink:href="#DejaVuSans-57"/>
       <use x="288.183594" xlink:href="#DejaVuSans-58"/>
       <use x="321.875" xlink:href="#DejaVuSans-49"/>
       <use x="385.498047" xlink:href="#DejaVuSans-48"/>
      </g>
     </g>
    </g>
    <g id="xtick_3">
     <g id="line2d_3">
      <g>
       <use style="stroke:#000000;stroke-width:0.8;" x="180.504675" xlink:href="#mc871e8644d" y="448.56"/>
      </g>
     </g>
     <g id="text_3">
      <!-- 17:10:34 -->
      <g transform="translate(183.26405 500.4725)rotate(-90)scale(0.1 -0.1)">
       <defs>
        <path d="M 40.578125 39.3125 
Q 47.65625 37.796875 51.625 33 
Q 55.609375 28.21875 55.609375 21.1875 
Q 55.609375 10.40625 48.1875 4.484375 
Q 40.765625 -1.421875 27.09375 -1.421875 
Q 22.515625 -1.421875 17.65625 -0.515625 
Q 12.796875 0.390625 7.625 2.203125 
L 7.625 11.71875 
Q 11.71875 9.328125 16.59375 8.109375 
Q 21.484375 6.890625 26.8125 6.890625 
Q 36.078125 6.890625 40.9375 10.546875 
Q 45.796875 14.203125 45.796875 21.1875 
Q 45.796875 27.640625 41.28125 31.265625 
Q 36.765625 34.90625 28.71875 34.90625 
L 20.21875 34.90625 
L 20.21875 43.015625 
L 29.109375 43.015625 
Q 36.375 43.015625 40.234375 45.921875 
Q 44.09375 48.828125 44.09375 54.296875 
Q 44.09375 59.90625 40.109375 62.90625 
Q 36.140625 65.921875 28.71875 65.921875 
Q 24.65625 65.921875 20.015625 65.03125 
Q 15.375 64.15625 9.8125 62.3125 
L 9.8125 71.09375 
Q 15.4375 72.65625 20.34375 73.4375 
Q 25.25 74.21875 29.59375 74.21875 
Q 40.828125 74.21875 47.359375 69.109375 
Q 53.90625 64.015625 53.90625 55.328125 
Q 53.90625 49.265625 50.4375 45.09375 
Q 46.96875 40.921875 40.578125 39.3125 
z
" id="DejaVuSans-51"/>
       </defs>
       <use xlink:href="#DejaVuSans-49"/>
       <use x="63.623047" xlink:href="#DejaVuSans-55"/>
       <use x="127.246094" xlink:href="#DejaVuSans-58"/>
       <use x="160.9375" xlink:href="#DejaVuSans-49"/>
       <use x="224.560547" xlink:href="#DejaVuSans-48"/>
       <use x="288.183594" xlink:href="#DejaVuSans-58"/>
       <use x="321.875" xlink:href="#DejaVuSans-51"/>
       <use x="385.498047" xlink:href="#DejaVuSans-52"/>
      </g>
     </g>
    </g>
    <g id="xtick_4">
     <g id="line2d_4">
      <g>
       <use style="stroke:#000000;stroke-width:0.8;" x="204.582466" xlink:href="#mc871e8644d" y="448.56"/>
      </g>
     </g>
     <g id="text_4">
      <!-- 17:11:57 -->
      <g transform="translate(207.341841 500.4725)rotate(-90)scale(0.1 -0.1)">
       <defs>
        <path d="M 10.796875 72.90625 
L 49.515625 72.90625 
L 49.515625 64.59375 
L 19.828125 64.59375 
L 19.828125 46.734375 
Q 21.96875 47.46875 24.109375 47.828125 
Q 26.265625 48.1875 28.421875 48.1875 
Q 40.625 48.1875 47.75 41.5 
Q 54.890625 34.8125 54.890625 23.390625 
Q 54.890625 11.625 47.5625 5.09375 
Q 40.234375 -1.421875 26.90625 -1.421875 
Q 22.3125 -1.421875 17.546875 -0.640625 
Q 12.796875 0.140625 7.71875 1.703125 
L 7.71875 11.625 
Q 12.109375 9.234375 16.796875 8.0625 
Q 21.484375 6.890625 26.703125 6.890625 
Q 35.15625 6.890625 40.078125 11.328125 
Q 45.015625 15.765625 45.015625 23.390625 
Q 45.015625 31 40.078125 35.4375 
Q 35.15625 39.890625 26.703125 39.890625 
Q 22.75 39.890625 18.8125 39.015625 
Q 14.890625 38.140625 10.796875 36.28125 
z
" id="DejaVuSans-53"/>
       </defs>
       <use xlink:href="#DejaVuSans-49"/>
       <use x="63.623047" xlink:href="#DejaVuSans-55"/>
       <use x="127.246094" xlink:href="#DejaVuSans-58"/>
       <use x="160.9375" xlink:href="#DejaVuSans-49"/>
       <use x="224.560547" xlink:href="#DejaVuSans-49"/>
       <use x="288.183594" xlink:href="#DejaVuSans-58"/>
       <use x="321.875" xlink:href="#DejaVuSans-53"/>
       <use x="385.498047" xlink:href="#DejaVuSans-55"/>
      </g>
     </g>
    </g>
    <g id="xtick_5">
     <g id="line2d_5">
      <g>
       <use style="stroke:#000000;stroke-width:0.8;" x="228.660258" xlink:href="#mc871e8644d" y="448.56"/>
      </g>
     </g>
     <g id="text_5">
      <!-- 17:13:19 -->
      <g transform="translate(231.419633 500.4725)rotate(-90)scale(0.1 -0.1)">
       <use xlink:href="#DejaVuSans-49"/>
       <use x="63.623047" xlink:href="#DejaVuSans-55"/>
       <use x="127.246094" xlink:href="#DejaVuSans-58"/>
       <use x="160.9375" xlink:href="#DejaVuSans-49"/>
       <use x="224.560547" xlink:href="#DejaVuSans-51"/>
       <use x="288.183594" xlink:href="#DejaVuSans-58"/>
       <use x="321.875" xlink:href="#DejaVuSans-49"/>
       <use x="385.498047" xlink:href="#DejaVuSans-57"/>
      </g>
     </g>
    </g>
    <g id="xtick_6">
     <g id="line2d_6">
      <g>
       <use style="stroke:#000000;stroke-width:0.8;" x="252.73805" xlink:href="#mc871e8644d" y="448.56"/>
      </g>
     </g>
     <g id="text_6">
      <!-- 17:14:42 -->
      <g transform="translate(255.497425 500.4725)rotate(-90)scale(0.1 -0.1)">
       <defs>
        <path d="M 19.1875 8.296875 
L 53.609375 8.296875 
L 53.609375 0 
L 7.328125 0 
L 7.328125 8.296875 
Q 12.9375 14.109375 22.625 23.890625 
Q 32.328125 33.6875 34.8125 36.53125 
Q 39.546875 41.84375 41.421875 45.53125 
Q 43.3125 49.21875 43.3125 52.78125 
Q 43.3125 58.59375 39.234375 62.25 
Q 35.15625 65.921875 28.609375 65.921875 
Q 23.96875 65.921875 18.8125 64.3125 
Q 13.671875 62.703125 7.8125 59.421875 
L 7.8125 69.390625 
Q 13.765625 71.78125 18.9375 73 
Q 24.125 74.21875 28.421875 74.21875 
Q 39.75 74.21875 46.484375 68.546875 
Q 53.21875 62.890625 53.21875 53.421875 
Q 53.21875 48.921875 51.53125 44.890625 
Q 49.859375 40.875 45.40625 35.40625 
Q 44.1875 33.984375 37.640625 27.21875 
Q 31.109375 20.453125 19.1875 8.296875 
z
" id="DejaVuSans-50"/>
       </defs>
       <use xlink:href="#DejaVuSans-49"/>
       <use x="63.623047" xlink:href="#DejaVuSans-55"/>
       <use x="127.246094" xlink:href="#DejaVuSans-58"/>
       <use x="160.9375" xlink:href="#DejaVuSans-49"/>
       <use x="224.560547" xlink:href="#DejaVuSans-52"/>
       <use x="288.183594" xlink:href="#DejaVuSans-58"/>
       <use x="321.875" xlink:href="#DejaVuSans-52"/>
       <use x="385.498047" xlink:href="#DejaVuSans-50"/>
      </g>
     </g>
    </g>
    <g id="xtick_7">
     <g id="line2d_7">
      <g>
       <use style="stroke:#000000;stroke-width:0.8;" x="276.815842" xlink:href="#mc871e8644d" y="448.56"/>
      </g>
     </g>
     <g id="text_7">
      <!-- 17:16:05 -->
      <g transform="translate(279.575217 500.4725)rotate(-90)scale(0.1 -0.1)">
       <defs>
        <path d="M 33.015625 40.375 
Q 26.375 40.375 22.484375 35.828125 
Q 18.609375 31.296875 18.609375 23.390625 
Q 18.609375 15.53125 22.484375 10.953125 
Q 26.375 6.390625 33.015625 6.390625 
Q 39.65625 6.390625 43.53125 10.953125 
Q 47.40625 15.53125 47.40625 23.390625 
Q 47.40625 31.296875 43.53125 35.828125 
Q 39.65625 40.375 33.015625 40.375 
z
M 52.59375 71.296875 
L 52.59375 62.3125 
Q 48.875 64.0625 45.09375 64.984375 
Q 41.3125 65.921875 37.59375 65.921875 
Q 27.828125 65.921875 22.671875 59.328125 
Q 17.53125 52.734375 16.796875 39.40625 
Q 19.671875 43.65625 24.015625 45.921875 
Q 28.375 48.1875 33.59375 48.1875 
Q 44.578125 48.1875 50.953125 41.515625 
Q 57.328125 34.859375 57.328125 23.390625 
Q 57.328125 12.15625 50.6875 5.359375 
Q 44.046875 -1.421875 33.015625 -1.421875 
Q 20.359375 -1.421875 13.671875 8.265625 
Q 6.984375 17.96875 6.984375 36.375 
Q 6.984375 53.65625 15.1875 63.9375 
Q 23.390625 74.21875 37.203125 74.21875 
Q 40.921875 74.21875 44.703125 73.484375 
Q 48.484375 72.75 52.59375 71.296875 
z
" id="DejaVuSans-54"/>
       </defs>
       <use xlink:href="#DejaVuSans-49"/>
       <use x="63.623047" xlink:href="#DejaVuSans-55"/>
       <use x="127.246094" xlink:href="#DejaVuSans-58"/>
       <use x="160.9375" xlink:href="#DejaVuSans-49"/>
       <use x="224.560547" xlink:href="#DejaVuSans-54"/>
       <use x="288.183594" xlink:href="#DejaVuSans-58"/>
       <use x="321.875" xlink:href="#DejaVuSans-48"/>
       <use x="385.498047" xlink:href="#DejaVuSans-53"/>
      </g>
     </g>
    </g>
    <g id="xtick_8">
     <g id="line2d_8">
      <g>
       <use style="stroke:#000000;stroke-width:0.8;" x="300.893634" xlink:href="#mc871e8644d" y="448.56"/>
      </g>
     </g>
     <g id="text_8">
      <!-- 17:17:28 -->
      <g transform="translate(303.653009 500.4725)rotate(-90)scale(0.1 -0.1)">
       <defs>
        <path d="M 31.78125 34.625 
Q 24.75 34.625 20.71875 30.859375 
Q 16.703125 27.09375 16.703125 20.515625 
Q 16.703125 13.921875 20.71875 10.15625 
Q 24.75 6.390625 31.78125 6.390625 
Q 38.8125 6.390625 42.859375 10.171875 
Q 46.921875 13.96875 46.921875 20.515625 
Q 46.921875 27.09375 42.890625 30.859375 
Q 38.875 34.625 31.78125 34.625 
z
M 21.921875 38.8125 
Q 15.578125 40.375 12.03125 44.71875 
Q 8.5 49.078125 8.5 55.328125 
Q 8.5 64.0625 14.71875 69.140625 
Q 20.953125 74.21875 31.78125 74.21875 
Q 42.671875 74.21875 48.875 69.140625 
Q 55.078125 64.0625 55.078125 55.328125 
Q 55.078125 49.078125 51.53125 44.71875 
Q 48 40.375 41.703125 38.8125 
Q 48.828125 37.15625 52.796875 32.3125 
Q 56.78125 27.484375 56.78125 20.515625 
Q 56.78125 9.90625 50.3125 4.234375 
Q 43.84375 -1.421875 31.78125 -1.421875 
Q 19.734375 -1.421875 13.25 4.234375 
Q 6.78125 9.90625 6.78125 20.515625 
Q 6.78125 27.484375 10.78125 32.3125 
Q 14.796875 37.15625 21.921875 38.8125 
z
M 18.3125 54.390625 
Q 18.3125 48.734375 21.84375 45.5625 
Q 25.390625 42.390625 31.78125 42.390625 
Q 38.140625 42.390625 41.71875 45.5625 
Q 45.3125 48.734375 45.3125 54.390625 
Q 45.3125 60.0625 41.71875 63.234375 
Q 38.140625 66.40625 31.78125 66.40625 
Q 25.390625 66.40625 21.84375 63.234375 
Q 18.3125 60.0625 18.3125 54.390625 
z
" id="DejaVuSans-56"/>
       </defs>
       <use xlink:href="#DejaVuSans-49"/>
       <use x="63.623047" xlink:href="#DejaVuSans-55"/>
       <use x="127.246094" xlink:href="#DejaVuSans-58"/>
       <use x="160.9375" xlink:href="#DejaVuSans-49"/>
       <use x="224.560547" xlink:href="#DejaVuSans-55"/>
       <use x="288.183594" xlink:href="#DejaVuSans-58"/>
       <use x="321.875" xlink:href="#DejaVuSans-50"/>
       <use x="385.498047" xlink:href="#DejaVuSans-56"/>
      </g>
     </g>
    </g>
    <g id="xtick_9">
     <g id="line2d_9">
      <g>
       <use style="stroke:#000000;stroke-width:0.8;" x="324.971426" xlink:href="#mc871e8644d" y="448.56"/>
      </g>
     </g>
     <g id="text_9">
      <!-- 17:18:51 -->
      <g transform="translate(327.730801 500.4725)rotate(-90)scale(0.1 -0.1)">
       <use xlink:href="#DejaVuSans-49"/>
       <use x="63.623047" xlink:href="#DejaVuSans-55"/>
       <use x="127.246094" xlink:href="#DejaVuSans-58"/>
       <use x="160.9375" xlink:href="#DejaVuSans-49"/>
       <use x="224.560547" xlink:href="#DejaVuSans-56"/>
       <use x="288.183594" xlink:href="#DejaVuSans-58"/>
       <use x="321.875" xlink:href="#DejaVuSans-53"/>
       <use x="385.498047" xlink:href="#DejaVuSans-49"/>
      </g>
     </g>
    </g>
    <g id="xtick_10">
     <g id="line2d_10">
      <g>
       <use style="stroke:#000000;stroke-width:0.8;" x="349.049218" xlink:href="#mc871e8644d" y="448.56"/>
      </g>
     </g>
     <g id="text_10">
      <!-- 17:20:14 -->
      <g transform="translate(351.808593 500.4725)rotate(-90)scale(0.1 -0.1)">
       <use xlink:href="#DejaVuSans-49"/>
       <use x="63.623047" xlink:href="#DejaVuSans-55"/>
       <use x="127.246094" xlink:href="#DejaVuSans-58"/>
       <use x="160.9375" xlink:href="#DejaVuSans-50"/>
       <use x="224.560547" xlink:href="#DejaVuSans-48"/>
       <use x="288.183594" xlink:href="#DejaVuSans-58"/>
       <use x="321.875" xlink:href="#DejaVuSans-49"/>
       <use x="385.498047" xlink:href="#DejaVuSans-52"/>
      </g>
     </g>
    </g>
    <g id="xtick_11">
     <g id="line2d_11">
      <g>
       <use style="stroke:#000000;stroke-width:0.8;" x="373.127009" xlink:href="#mc871e8644d" y="448.56"/>
      </g>
     </g>
     <g id="text_11">
      <!-- 17:21:36 -->
      <g transform="translate(375.886384 500.4725)rotate(-90)scale(0.1 -0.1)">
       <use xlink:href="#DejaVuSans-49"/>
       <use x="63.623047" xlink:href="#DejaVuSans-55"/>
       <use x="127.246094" xlink:href="#DejaVuSans-58"/>
       <use x="160.9375" xlink:href="#DejaVuSans-50"/>
       <use x="224.560547" xlink:href="#DejaVuSans-49"/>
       <use x="288.183594" xlink:href="#DejaVuSans-58"/>
       <use x="321.875" xlink:href="#DejaVuSans-51"/>
       <use x="385.498047" xlink:href="#DejaVuSans-54"/>
      </g>
     </g>
    </g>
    <g id="xtick_12">
     <g id="line2d_12">
      <g>
       <use style="stroke:#000000;stroke-width:0.8;" x="397.204801" xlink:href="#mc871e8644d" y="448.56"/>
      </g>
     </g>
     <g id="text_12">
      <!-- 17:22:59 -->
      <g transform="translate(399.964176 500.4725)rotate(-90)scale(0.1 -0.1)">
       <use xlink:href="#DejaVuSans-49"/>
       <use x="63.623047" xlink:href="#DejaVuSans-55"/>
       <use x="127.246094" xlink:href="#DejaVuSans-58"/>
       <use x="160.9375" xlink:href="#DejaVuSans-50"/>
       <use x="224.560547" xlink:href="#DejaVuSans-50"/>
       <use x="288.183594" xlink:href="#DejaVuSans-58"/>
       <use x="321.875" xlink:href="#DejaVuSans-53"/>
       <use x="385.498047" xlink:href="#DejaVuSans-57"/>
      </g>
     </g>
    </g>
    <g id="xtick_13">
     <g id="line2d_13">
      <g>
       <use style="stroke:#000000;stroke-width:0.8;" x="421.282593" xlink:href="#mc871e8644d" y="448.56"/>
      </g>
     </g>
     <g id="text_13">
      <!-- 17:24:22 -->
      <g transform="translate(424.041968 500.4725)rotate(-90)scale(0.1 -0.1)">
       <use xlink:href="#DejaVuSans-49"/>
       <use x="63.623047" xlink:href="#DejaVuSans-55"/>
       <use x="127.246094" xlink:href="#DejaVuSans-58"/>
       <use x="160.9375" xlink:href="#DejaVuSans-50"/>
       <use x="224.560547" xlink:href="#DejaVuSans-52"/>
       <use x="288.183594" xlink:href="#DejaVuSans-58"/>
       <use x="321.875" xlink:href="#DejaVuSans-50"/>
       <use x="385.498047" xlink:href="#DejaVuSans-50"/>
      </g>
     </g>
    </g>
    <g id="xtick_14">
     <g id="line2d_14">
      <g>
       <use style="stroke:#000000;stroke-width:0.8;" x="445.360385" xlink:href="#mc871e8644d" y="448.56"/>
      </g>
     </g>
     <g id="text_14">
      <!-- 17:25:45 -->
      <g transform="translate(448.11976 500.4725)rotate(-90)scale(0.1 -0.1)">
       <use xlink:href="#DejaVuSans-49"/>
       <use x="63.623047" xlink:href="#DejaVuSans-55"/>
       <use x="127.246094" xlink:href="#DejaVuSans-58"/>
       <use x="160.9375" xlink:href="#DejaVuSans-50"/>
       <use x="224.560547" xlink:href="#DejaVuSans-53"/>
       <use x="288.183594" xlink:href="#DejaVuSans-58"/>
       <use x="321.875" xlink:href="#DejaVuSans-52"/>
       <use x="385.498047" xlink:href="#DejaVuSans-53"/>
      </g>
     </g>
    </g>
    <g id="xtick_15">
     <g id="line2d_15">
      <g>
       <use style="stroke:#000000;stroke-width:0.8;" x="469.438177" xlink:href="#mc871e8644d" y="448.56"/>
      </g>
     </g>
     <g id="text_15">
      <!-- 17:27:08 -->
      <g transform="translate(472.197552 500.4725)rotate(-90)scale(0.1 -0.1)">
       <use xlink:href="#DejaVuSans-49"/>
       <use x="63.623047" xlink:href="#DejaVuSans-55"/>
       <use x="127.246094" xlink:href="#DejaVuSans-58"/>
       <use x="160.9375" xlink:href="#DejaVuSans-50"/>
       <use x="224.560547" xlink:href="#DejaVuSans-55"/>
       <use x="288.183594" xlink:href="#DejaVuSans-58"/>
       <use x="321.875" xlink:href="#DejaVuSans-48"/>
       <use x="385.498047" xlink:href="#DejaVuSans-56"/>
      </g>
     </g>
    </g>
    <g id="xtick_16">
     <g id="line2d_16">
      <g>
       <use style="stroke:#000000;stroke-width:0.8;" x="493.515969" xlink:href="#mc871e8644d" y="448.56"/>
      </g>
     </g>
     <g id="text_16">
      <!-- 17:28:31 -->
      <g transform="translate(496.275344 500.4725)rotate(-90)scale(0.1 -0.1)">
       <use xlink:href="#DejaVuSans-49"/>
       <use x="63.623047" xlink:href="#DejaVuSans-55"/>
       <use x="127.246094" xlink:href="#DejaVuSans-58"/>
       <use x="160.9375" xlink:href="#DejaVuSans-50"/>
       <use x="224.560547" xlink:href="#DejaVuSans-56"/>
       <use x="288.183594" xlink:href="#DejaVuSans-58"/>
       <use x="321.875" xlink:href="#DejaVuSans-51"/>
       <use x="385.498047" xlink:href="#DejaVuSans-49"/>
      </g>
     </g>
    </g>
    <g id="xtick_17">
     <g id="line2d_17">
      <g>
       <use style="stroke:#000000;stroke-width:0.8;" x="517.59376" xlink:href="#mc871e8644d" y="448.56"/>
      </g>
     </g>
     <g id="text_17">
      <!-- 17:29:54 -->
      <g transform="translate(520.353135 500.4725)rotate(-90)scale(0.1 -0.1)">
       <use xlink:href="#DejaVuSans-49"/>
       <use x="63.623047" xlink:href="#DejaVuSans-55"/>
       <use x="127.246094" xlink:href="#DejaVuSans-58"/>
       <use x="160.9375" xlink:href="#DejaVuSans-50"/>
       <use x="224.560547" xlink:href="#DejaVuSans-57"/>
       <use x="288.183594" xlink:href="#DejaVuSans-58"/>
       <use x="321.875" xlink:href="#DejaVuSans-53"/>
       <use x="385.498047" xlink:href="#DejaVuSans-52"/>
      </g>
     </g>
    </g>
    <g id="xtick_18">
     <g id="line2d_18">
      <g>
       <use style="stroke:#000000;stroke-width:0.8;" x="541.671552" xlink:href="#mc871e8644d" y="448.56"/>
      </g>
     </g>
     <g id="text_18">
      <!-- 17:31:16 -->
      <g transform="translate(544.430927 500.4725)rotate(-90)scale(0.1 -0.1)">
       <use xlink:href="#DejaVuSans-49"/>
       <use x="63.623047" xlink:href="#DejaVuSans-55"/>
       <use x="127.246094" xlink:href="#DejaVuSans-58"/>
       <use x="160.9375" xlink:href="#DejaVuSans-51"/>
       <use x="224.560547" xlink:href="#DejaVuSans-49"/>
       <use x="288.183594" xlink:href="#DejaVuSans-58"/>
       <use x="321.875" xlink:href="#DejaVuSans-49"/>
       <use x="385.498047" xlink:href="#DejaVuSans-54"/>
      </g>
     </g>
    </g>
    <g id="xtick_19">
     <g id="line2d_19">
      <g>
       <use style="stroke:#000000;stroke-width:0.8;" x="565.749344" xlink:href="#mc871e8644d" y="448.56"/>
      </g>
     </g>
     <g id="text_19">
      <!-- 17:32:39 -->
      <g transform="translate(568.508719 500.4725)rotate(-90)scale(0.1 -0.1)">
       <use xlink:href="#DejaVuSans-49"/>
       <use x="63.623047" xlink:href="#DejaVuSans-55"/>
       <use x="127.246094" xlink:href="#DejaVuSans-58"/>
       <use x="160.9375" xlink:href="#DejaVuSans-51"/>
       <use x="224.560547" xlink:href="#DejaVuSans-50"/>
       <use x="288.183594" xlink:href="#DejaVuSans-58"/>
       <use x="321.875" xlink:href="#DejaVuSans-51"/>
       <use x="385.498047" xlink:href="#DejaVuSans-57"/>
      </g>
     </g>
    </g>
    <g id="xtick_20">
     <g id="line2d_20">
      <g>
       <use style="stroke:#000000;stroke-width:0.8;" x="589.827136" xlink:href="#mc871e8644d" y="448.56"/>
      </g>
     </g>
     <g id="text_20">
      <!-- 17:34:02 -->
      <g transform="translate(592.586511 500.4725)rotate(-90)scale(0.1 -0.1)">
       <use xlink:href="#DejaVuSans-49"/>
       <use x="63.623047" xlink:href="#DejaVuSans-55"/>
       <use x="127.246094" xlink:href="#DejaVuSans-58"/>
       <use x="160.9375" xlink:href="#DejaVuSans-51"/>
       <use x="224.560547" xlink:href="#DejaVuSans-52"/>
       <use x="288.183594" xlink:href="#DejaVuSans-58"/>
       <use x="321.875" xlink:href="#DejaVuSans-48"/>
       <use x="385.498047" xlink:href="#DejaVuSans-50"/>
      </g>
     </g>
    </g>
    <g id="xtick_21">
     <g id="line2d_21">
      <g>
       <use style="stroke:#000000;stroke-width:0.8;" x="613.904928" xlink:href="#mc871e8644d" y="448.56"/>
      </g>
     </g>
     <g id="text_21">
      <!-- 17:35:25 -->
      <g transform="translate(616.664303 500.4725)rotate(-90)scale(0.1 -0.1)">
       <use xlink:href="#DejaVuSans-49"/>
       <use x="63.623047" xlink:href="#DejaVuSans-55"/>
       <use x="127.246094" xlink:href="#DejaVuSans-58"/>
       <use x="160.9375" xlink:href="#DejaVuSans-51"/>
       <use x="224.560547" xlink:href="#DejaVuSans-53"/>
       <use x="288.183594" xlink:href="#DejaVuSans-58"/>
       <use x="321.875" xlink:href="#DejaVuSans-50"/>
       <use x="385.498047" xlink:href="#DejaVuSans-53"/>
      </g>
     </g>
    </g>
    <g id="text_22">
     <!-- timestamp -->
     <g transform="translate(354.264375 510.55125)scale(0.08 -0.08)">
      <defs>
       <path d="M 18.3125 70.21875 
L 18.3125 54.6875 
L 36.8125 54.6875 
L 36.8125 47.703125 
L 18.3125 47.703125 
L 18.3125 18.015625 
Q 18.3125 11.328125 20.140625 9.421875 
Q 21.96875 7.515625 27.59375 7.515625 
L 36.8125 7.515625 
L 36.8125 0 
L 27.59375 0 
Q 17.1875 0 13.234375 3.875 
Q 9.28125 7.765625 9.28125 18.015625 
L 9.28125 47.703125 
L 2.6875 47.703125 
L 2.6875 54.6875 
L 9.28125 54.6875 
L 9.28125 70.21875 
z
" id="DejaVuSans-116"/>
       <path d="M 9.421875 54.6875 
L 18.40625 54.6875 
L 18.40625 0 
L 9.421875 0 
z
M 9.421875 75.984375 
L 18.40625 75.984375 
L 18.40625 64.59375 
L 9.421875 64.59375 
z
" id="DejaVuSans-105"/>
       <path d="M 52 44.1875 
Q 55.375 50.25 60.0625 53.125 
Q 64.75 56 71.09375 56 
Q 79.640625 56 84.28125 50.015625 
Q 88.921875 44.046875 88.921875 33.015625 
L 88.921875 0 
L 79.890625 0 
L 79.890625 32.71875 
Q 79.890625 40.578125 77.09375 44.375 
Q 74.3125 48.1875 68.609375 48.1875 
Q 61.625 48.1875 57.5625 43.546875 
Q 53.515625 38.921875 53.515625 30.90625 
L 53.515625 0 
L 44.484375 0 
L 44.484375 32.71875 
Q 44.484375 40.625 41.703125 44.40625 
Q 38.921875 48.1875 33.109375 48.1875 
Q 26.21875 48.1875 22.15625 43.53125 
Q 18.109375 38.875 18.109375 30.90625 
L 18.109375 0 
L 9.078125 0 
L 9.078125 54.6875 
L 18.109375 54.6875 
L 18.109375 46.1875 
Q 21.1875 51.21875 25.484375 53.609375 
Q 29.78125 56 35.6875 56 
Q 41.65625 56 45.828125 52.96875 
Q 50 49.953125 52 44.1875 
z
" id="DejaVuSans-109"/>
       <path d="M 56.203125 29.59375 
L 56.203125 25.203125 
L 14.890625 25.203125 
Q 15.484375 15.921875 20.484375 11.0625 
Q 25.484375 6.203125 34.421875 6.203125 
Q 39.59375 6.203125 44.453125 7.46875 
Q 49.3125 8.734375 54.109375 11.28125 
L 54.109375 2.78125 
Q 49.265625 0.734375 44.1875 -0.34375 
Q 39.109375 -1.421875 33.890625 -1.421875 
Q 20.796875 -1.421875 13.15625 6.1875 
Q 5.515625 13.8125 5.515625 26.8125 
Q 5.515625 40.234375 12.765625 48.109375 
Q 20.015625 56 32.328125 56 
Q 43.359375 56 49.78125 48.890625 
Q 56.203125 41.796875 56.203125 29.59375 
z
M 47.21875 32.234375 
Q 47.125 39.59375 43.09375 43.984375 
Q 39.0625 48.390625 32.421875 48.390625 
Q 24.90625 48.390625 20.390625 44.140625 
Q 15.875 39.890625 15.1875 32.171875 
z
" id="DejaVuSans-101"/>
       <path d="M 44.28125 53.078125 
L 44.28125 44.578125 
Q 40.484375 46.53125 36.375 47.5 
Q 32.28125 48.484375 27.875 48.484375 
Q 21.1875 48.484375 17.84375 46.4375 
Q 14.5 44.390625 14.5 40.28125 
Q 14.5 37.15625 16.890625 35.375 
Q 19.28125 33.59375 26.515625 31.984375 
L 29.59375 31.296875 
Q 39.15625 29.25 43.1875 25.515625 
Q 47.21875 21.78125 47.21875 15.09375 
Q 47.21875 7.46875 41.1875 3.015625 
Q 35.15625 -1.421875 24.609375 -1.421875 
Q 20.21875 -1.421875 15.453125 -0.5625 
Q 10.6875 0.296875 5.421875 2 
L 5.421875 11.28125 
Q 10.40625 8.6875 15.234375 7.390625 
Q 20.0625 6.109375 24.8125 6.109375 
Q 31.15625 6.109375 34.5625 8.28125 
Q 37.984375 10.453125 37.984375 14.40625 
Q 37.984375 18.0625 35.515625 20.015625 
Q 33.0625 21.96875 24.703125 23.78125 
L 21.578125 24.515625 
Q 13.234375 26.265625 9.515625 29.90625 
Q 5.8125 33.546875 5.8125 39.890625 
Q 5.8125 47.609375 11.28125 51.796875 
Q 16.75 56 26.8125 56 
Q 31.78125 56 36.171875 55.265625 
Q 40.578125 54.546875 44.28125 53.078125 
z
" id="DejaVuSans-115"/>
       <path d="M 34.28125 27.484375 
Q 23.390625 27.484375 19.1875 25 
Q 14.984375 22.515625 14.984375 16.5 
Q 14.984375 11.71875 18.140625 8.90625 
Q 21.296875 6.109375 26.703125 6.109375 
Q 34.1875 6.109375 38.703125 11.40625 
Q 43.21875 16.703125 43.21875 25.484375 
L 43.21875 27.484375 
z
M 52.203125 31.203125 
L 52.203125 0 
L 43.21875 0 
L 43.21875 8.296875 
Q 40.140625 3.328125 35.546875 0.953125 
Q 30.953125 -1.421875 24.3125 -1.421875 
Q 15.921875 -1.421875 10.953125 3.296875 
Q 6 8.015625 6 15.921875 
Q 6 25.140625 12.171875 29.828125 
Q 18.359375 34.515625 30.609375 34.515625 
L 43.21875 34.515625 
L 43.21875 35.40625 
Q 43.21875 41.609375 39.140625 45 
Q 35.0625 48.390625 27.6875 48.390625 
Q 23 48.390625 18.546875 47.265625 
Q 14.109375 46.140625 10.015625 43.890625 
L 10.015625 52.203125 
Q 14.9375 54.109375 19.578125 55.046875 
Q 24.21875 56 28.609375 56 
Q 40.484375 56 46.34375 49.84375 
Q 52.203125 43.703125 52.203125 31.203125 
z
" id="DejaVuSans-97"/>
       <path d="M 18.109375 8.203125 
L 18.109375 -20.796875 
L 9.078125 -20.796875 
L 9.078125 54.6875 
L 18.109375 54.6875 
L 18.109375 46.390625 
Q 20.953125 51.265625 25.265625 53.625 
Q 29.59375 56 35.59375 56 
Q 45.5625 56 51.78125 48.09375 
Q 58.015625 40.1875 58.015625 27.296875 
Q 58.015625 14.40625 51.78125 6.484375 
Q 45.5625 -1.421875 35.59375 -1.421875 
Q 29.59375 -1.421875 25.265625 0.953125 
Q 20.953125 3.328125 18.109375 8.203125 
z
M 48.6875 27.296875 
Q 48.6875 37.203125 44.609375 42.84375 
Q 40.53125 48.484375 33.40625 48.484375 
Q 26.265625 48.484375 22.1875 42.84375 
Q 18.109375 37.203125 18.109375 27.296875 
Q 18.109375 17.390625 22.1875 11.75 
Q 26.265625 6.109375 33.40625 6.109375 
Q 40.53125 6.109375 44.609375 11.75 
Q 48.6875 17.390625 48.6875 27.296875 
z
" id="DejaVuSans-112"/>
      </defs>
      <use xlink:href="#DejaVuSans-116"/>
      <use x="39.208984" xlink:href="#DejaVuSans-105"/>
      <use x="66.992188" xlink:href="#DejaVuSans-109"/>
      <use x="164.404297" xlink:href="#DejaVuSans-101"/>
      <use x="225.927734" xlink:href="#DejaVuSans-115"/>
      <use x="278.027344" xlink:href="#DejaVuSans-116"/>
      <use x="317.236328" xlink:href="#DejaVuSans-97"/>
      <use x="378.515625" xlink:href="#DejaVuSans-109"/>
      <use x="475.927734" xlink:href="#DejaVuSans-112"/>
     </g>
    </g>
   </g>
   <g id="matplotlib.axis_2">
    <g id="ytick_1">
     <g id="line2d_22">
      <defs>
       <path d="M 0 0 
L -3.5 0 
" id="mdd91b1c805" style="stroke:#000000;stroke-width:0.8;"/>
      </defs>
      <g>
       <use style="stroke:#000000;stroke-width:0.8;" x="108" xlink:href="#mdd91b1c805" y="434.110716"/>
      </g>
     </g>
     <g id="text_23">
      <!-- 12200 -->
      <g transform="translate(69.1875 437.909935)scale(0.1 -0.1)">
       <use xlink:href="#DejaVuSans-49"/>
       <use x="63.623047" xlink:href="#DejaVuSans-50"/>
       <use x="127.246094" xlink:href="#DejaVuSans-50"/>
       <use x="190.869141" xlink:href="#DejaVuSans-48"/>
       <use x="254.492188" xlink:href="#DejaVuSans-48"/>
      </g>
     </g>
    </g>
    <g id="ytick_2">
     <g id="line2d_23">
      <g>
       <use style="stroke:#000000;stroke-width:0.8;" x="108" xlink:href="#mdd91b1c805" y="376.093977"/>
      </g>
     </g>
     <g id="text_24">
      <!-- 12400 -->
      <g transform="translate(69.1875 379.893195)scale(0.1 -0.1)">
       <use xlink:href="#DejaVuSans-49"/>
       <use x="63.623047" xlink:href="#DejaVuSans-50"/>
       <use x="127.246094" xlink:href="#DejaVuSans-52"/>
       <use x="190.869141" xlink:href="#DejaVuSans-48"/>
       <use x="254.492188" xlink:href="#DejaVuSans-48"/>
      </g>
     </g>
    </g>
    <g id="ytick_3">
     <g id="line2d_24">
      <g>
       <use style="stroke:#000000;stroke-width:0.8;" x="108" xlink:href="#mdd91b1c805" y="318.077237"/>
      </g>
     </g>
     <g id="text_25">
      <!-- 12600 -->
      <g transform="translate(69.1875 321.876455)scale(0.1 -0.1)">
       <use xlink:href="#DejaVuSans-49"/>
       <use x="63.623047" xlink:href="#DejaVuSans-50"/>
       <use x="127.246094" xlink:href="#DejaVuSans-54"/>
       <use x="190.869141" xlink:href="#DejaVuSans-48"/>
       <use x="254.492188" xlink:href="#DejaVuSans-48"/>
      </g>
     </g>
    </g>
    <g id="ytick_4">
     <g id="line2d_25">
      <g>
       <use style="stroke:#000000;stroke-width:0.8;" x="108" xlink:href="#mdd91b1c805" y="260.060497"/>
      </g>
     </g>
     <g id="text_26">
      <!-- 12800 -->
      <g transform="translate(69.1875 263.859715)scale(0.1 -0.1)">
       <use xlink:href="#DejaVuSans-49"/>
       <use x="63.623047" xlink:href="#DejaVuSans-50"/>
       <use x="127.246094" xlink:href="#DejaVuSans-56"/>
       <use x="190.869141" xlink:href="#DejaVuSans-48"/>
       <use x="254.492188" xlink:href="#DejaVuSans-48"/>
      </g>
     </g>
    </g>
    <g id="ytick_5">
     <g id="line2d_26">
      <g>
       <use style="stroke:#000000;stroke-width:0.8;" x="108" xlink:href="#mdd91b1c805" y="202.043757"/>
      </g>
     </g>
     <g id="text_27">
      <!-- 13000 -->
      <g transform="translate(69.1875 205.842975)scale(0.1 -0.1)">
       <use xlink:href="#DejaVuSans-49"/>
       <use x="63.623047" xlink:href="#DejaVuSans-51"/>
       <use x="127.246094" xlink:href="#DejaVuSans-48"/>
       <use x="190.869141" xlink:href="#DejaVuSans-48"/>
       <use x="254.492188" xlink:href="#DejaVuSans-48"/>
      </g>
     </g>
    </g>
    <g id="ytick_6">
     <g id="line2d_27">
      <g>
       <use style="stroke:#000000;stroke-width:0.8;" x="108" xlink:href="#mdd91b1c805" y="144.027017"/>
      </g>
     </g>
     <g id="text_28">
      <!-- 13200 -->
      <g transform="translate(69.1875 147.826235)scale(0.1 -0.1)">
       <use xlink:href="#DejaVuSans-49"/>
       <use x="63.623047" xlink:href="#DejaVuSans-51"/>
       <use x="127.246094" xlink:href="#DejaVuSans-50"/>
       <use x="190.869141" xlink:href="#DejaVuSans-48"/>
       <use x="254.492188" xlink:href="#DejaVuSans-48"/>
      </g>
     </g>
    </g>
    <g id="ytick_7">
     <g id="line2d_28">
      <g>
       <use style="stroke:#000000;stroke-width:0.8;" x="108" xlink:href="#mdd91b1c805" y="86.010277"/>
      </g>
     </g>
     <g id="text_29">
      <!-- 13400 -->
      <g transform="translate(69.1875 89.809495)scale(0.1 -0.1)">
       <use xlink:href="#DejaVuSans-49"/>
       <use x="63.623047" xlink:href="#DejaVuSans-51"/>
       <use x="127.246094" xlink:href="#DejaVuSans-52"/>
       <use x="190.869141" xlink:href="#DejaVuSans-48"/>
       <use x="254.492188" xlink:href="#DejaVuSans-48"/>
      </g>
     </g>
    </g>
    <g id="text_30">
     <!-- MB -->
     <g transform="translate(63.52375 260.715625)rotate(-90)scale(0.08 -0.08)">
      <defs>
       <path d="M 9.8125 72.90625 
L 24.515625 72.90625 
L 43.109375 23.296875 
L 61.8125 72.90625 
L 76.515625 72.90625 
L 76.515625 0 
L 66.890625 0 
L 66.890625 64.015625 
L 48.09375 14.015625 
L 38.1875 14.015625 
L 19.390625 64.015625 
L 19.390625 0 
L 9.8125 0 
z
" id="DejaVuSans-77"/>
       <path d="M 19.671875 34.8125 
L 19.671875 8.109375 
L 35.5 8.109375 
Q 43.453125 8.109375 47.28125 11.40625 
Q 51.125 14.703125 51.125 21.484375 
Q 51.125 28.328125 47.28125 31.5625 
Q 43.453125 34.8125 35.5 34.8125 
z
M 19.671875 64.796875 
L 19.671875 42.828125 
L 34.28125 42.828125 
Q 41.5 42.828125 45.03125 45.53125 
Q 48.578125 48.25 48.578125 53.8125 
Q 48.578125 59.328125 45.03125 62.0625 
Q 41.5 64.796875 34.28125 64.796875 
z
M 9.8125 72.90625 
L 35.015625 72.90625 
Q 46.296875 72.90625 52.390625 68.21875 
Q 58.5 63.53125 58.5 54.890625 
Q 58.5 48.1875 55.375 44.234375 
Q 52.25 40.28125 46.1875 39.3125 
Q 53.46875 37.75 57.5 32.78125 
Q 61.53125 27.828125 61.53125 20.40625 
Q 61.53125 10.640625 54.890625 5.3125 
Q 48.25 0 35.984375 0 
L 9.8125 0 
z
" id="DejaVuSans-66"/>
      </defs>
      <use xlink:href="#DejaVuSans-77"/>
      <use x="86.279297" xlink:href="#DejaVuSans-66"/>
     </g>
    </g>
   </g>
   <g id="line2d_29">
    <path clip-path="url(#p693883c78f)" d="M 132.349091 79.624239 
L 132.688215 79.772762 
L 133.027339 79.74781 
L 133.366462 78.12 
L 133.705586 80.889654 
L 134.04471 81.669102 
L 134.383834 83.888628 
L 134.722958 79.713353 
L 135.062082 78.893507 
L 135.401205 79.35571 
L 135.740329 78.510912 
L 136.079453 87.082463 
L 136.757701 126.884212 
L 137.775072 240.646777 
L 138.114196 268.080731 
L 138.792444 341.997585 
L 139.470691 393.336589 
L 139.809815 401.7311 
L 140.148939 404.430652 
L 140.488063 405.574872 
L 140.827187 405.741218 
L 141.16631 403.126027 
L 141.505434 405.69369 
L 141.844558 405.258815 
L 142.183682 406.376895 
L 142.522806 405.839837 
L 142.86193 406.953164 
L 143.201053 407.126639 
L 143.879301 405.205347 
L 144.218425 404.877409 
L 144.557549 407.578148 
L 144.896673 407.453389 
L 145.235796 407.702907 
L 145.57492 406.94247 
L 145.914044 407.579336 
L 146.253168 407.458142 
L 146.592292 407.758752 
L 146.931416 407.258527 
L 147.270539 406.101237 
L 147.609663 408.332644 
L 147.948787 408.408688 
L 148.287911 408.639195 
L 148.966159 406.489773 
L 149.305282 407.273973 
L 149.644406 406.287782 
L 149.98353 406.613344 
L 150.322654 405.397833 
L 150.661778 407.736177 
L 151.000901 407.455765 
L 151.679149 405.748347 
L 152.357397 407.762317 
L 152.696521 407.418932 
L 153.035644 407.803903 
L 153.374768 407.108816 
L 153.713892 408.035599 
L 154.053016 408.281552 
L 154.39214 407.811032 
L 154.731264 407.137332 
L 155.409511 408.940994 
L 155.748635 408.758014 
L 156.087759 408.752073 
L 156.426883 405.577248 
L 156.766007 407.036337 
L 157.10513 406.898508 
L 157.444254 407.314372 
L 157.783378 406.492149 
L 158.122502 406.455315 
L 158.461626 407.378533 
L 158.80075 407.559137 
L 159.139873 406.948411 
L 159.478997 405.578437 
L 159.818121 408.065303 
L 160.496369 408.081938 
L 160.835493 407.139709 
L 161.174616 409.343788 
L 161.852864 409.018226 
L 162.191988 408.859009 
L 162.531112 407.845489 
L 162.870236 409.625387 
L 163.209359 409.018226 
L 163.548483 407.165849 
L 163.887607 407.273973 
L 164.226731 406.68107 
L 164.565855 408.004706 
L 164.904978 407.695778 
L 165.244102 407.561514 
L 165.583226 406.795136 
L 165.92235 409.26418 
L 166.261474 408.617808 
L 166.600598 408.796036 
L 166.939721 407.959555 
L 167.278845 407.542503 
L 167.957093 407.38091 
L 168.296217 407.808656 
L 168.635341 407.177731 
L 168.974464 407.883511 
L 169.652712 408.222143 
L 169.991836 407.13258 
L 170.33096 407.026831 
L 170.670084 409.036049 
L 171.348331 409.855895 
L 171.687455 406.792759 
L 172.026579 409.409138 
L 172.365703 407.831231 
L 172.704827 407.667262 
L 173.04395 406.580075 
L 173.383074 406.729786 
L 173.722198 408.015399 
L 174.061322 407.854995 
L 174.400446 407.938168 
L 174.73957 406.735727 
L 175.078693 409.382998 
L 175.417817 408.652265 
L 175.756941 407.266844 
L 176.096065 407.423684 
L 176.435189 407.938168 
L 176.774312 408.722368 
L 177.113436 412.444945 
L 177.45256 412.253648 
L 177.791684 411.130815 
L 178.130808 408.766331 
L 178.469932 408.003518 
L 178.809055 408.108078 
L 179.148179 407.502105 
L 179.487303 408.142535 
L 179.826427 408.235213 
L 180.165551 407.643498 
L 180.504675 411.312607 
L 180.843798 411.437366 
L 181.182922 409.026543 
L 181.522046 408.689099 
L 181.86117 408.518001 
L 182.200294 406.82484 
L 182.539418 409.175066 
L 182.878541 408.383736 
L 183.217665 408.556023 
L 183.556789 407.680332 
L 183.895913 407.411803 
L 184.574161 407.170602 
L 184.913284 407.339323 
L 185.252408 406.683447 
L 185.591532 408.275612 
L 185.930656 408.908913 
L 186.26978 408.60355 
L 186.608904 407.636369 
L 186.948027 408.079561 
L 187.287151 409.676479 
L 187.626275 409.367552 
L 187.965399 409.234475 
L 188.304523 408.573845 
L 188.643646 410.322851 
L 188.98277 410.468997 
L 189.321894 410.204032 
L 189.661018 409.344976 
L 190.000142 408.801977 
L 190.339266 409.511322 
L 190.678389 409.006344 
L 191.017513 409.228534 
L 191.356637 408.308881 
L 191.695761 411.208047 
L 192.034885 411.194977 
L 192.713132 408.870891 
L 193.052256 408.535824 
L 193.39138 409.581424 
L 193.730504 409.142985 
L 194.069628 409.350917 
L 194.408752 408.495425 
L 194.747875 409.848766 
L 195.086999 409.663409 
L 195.426123 409.657468 
L 195.765247 408.241154 
L 196.104371 407.931039 
L 196.443495 408.910101 
L 196.782618 408.942182 
L 197.121742 409.363987 
L 197.460866 407.818161 
L 197.79999 409.399632 
L 198.478238 409.870153 
L 198.817361 408.421758 
L 199.156485 408.490673 
L 199.495609 409.104963 
L 199.834733 407.696966 
L 200.173857 407.445072 
L 200.512981 406.470762 
L 200.852104 408.641572 
L 201.191228 408.640384 
L 201.530352 408.399183 
L 201.869476 407.670826 
L 202.2086 408.262542 
L 202.547723 409.691925 
L 202.886847 408.541764 
L 203.225971 408.892278 
L 203.565095 407.914404 
L 203.904219 409.758464 
L 204.243343 408.805541 
L 204.582466 408.946935 
L 204.92159 408.280364 
L 205.260714 408.537012 
L 205.599838 409.863024 
L 205.938962 408.746132 
L 206.278086 408.988521 
L 206.617209 407.835984 
L 206.956333 410.510583 
L 207.295457 410.242054 
L 207.634581 410.699505 
L 208.312829 408.062927 
L 208.651952 409.343788 
L 208.991076 409.289131 
L 209.3302 408.975451 
L 209.669324 407.998765 
L 210.008448 409.851142 
L 210.347572 410.217102 
L 210.686695 410.163634 
L 211.025819 409.125162 
L 211.364943 409.746582 
L 211.704067 409.064565 
L 212.043191 409.17269 
L 212.382315 408.437204 
L 212.721438 408.522754 
L 213.060562 409.986595 
L 213.399686 410.862286 
L 213.73881 410.777925 
L 214.077934 408.692664 
L 214.417057 408.98258 
L 214.756181 409.997288 
L 215.095305 410.00917 
L 215.434429 409.661033 
L 215.773553 408.794847 
L 216.112677 410.30384 
L 217.130048 409.325965 
L 217.808296 409.927186 
L 218.486543 409.915304 
L 218.825667 408.194815 
L 219.164791 409.973525 
L 219.503915 410.054321 
L 219.843039 409.803615 
L 220.182163 408.465721 
L 220.521286 413.110327 
L 220.86041 414.126224 
L 221.199534 414.18088 
L 221.538658 413.205382 
L 221.877782 409.8654 
L 222.216906 412.032646 
L 223.234277 409.411514 
L 223.573401 409.668162 
L 224.590772 409.729947 
L 224.929896 408.282741 
L 225.26902 411.149826 
L 225.608144 410.253936 
L 225.947268 409.998477 
L 226.286391 409.170313 
L 226.625515 409.456665 
L 226.964639 410.416717 
L 227.303763 410.488008 
L 227.642887 410.183833 
L 227.982011 409.128727 
L 228.321134 410.846839 
L 228.660258 411.102299 
L 228.999382 410.912189 
L 229.338506 410.246807 
L 229.67763 409.063377 
L 230.016754 410.194527 
L 230.355877 410.338297 
L 230.695001 410.332356 
L 231.034125 413.961066 
L 231.373249 415.12905 
L 231.712373 415.315595 
L 232.39062 414.398318 
L 232.729744 414.848639 
L 233.068868 415.64591 
L 233.747116 413.707983 
L 234.08624 413.509557 
L 234.425363 416.550117 
L 234.764487 415.984542 
L 235.103611 416.030881 
L 235.442735 414.968645 
L 235.781859 414.644272 
L 236.120983 416.56794 
L 236.460106 415.754034 
L 236.79923 415.660168 
L 237.138354 414.826064 
L 237.477478 415.251433 
L 237.816602 415.290643 
L 238.155726 415.523527 
L 238.494849 414.452974 
L 238.833973 415.31203 
L 239.173097 417.569578 
L 239.512221 416.058209 
L 239.851345 416.159205 
L 240.190468 415.088652 
L 240.529592 415.945332 
L 240.868716 415.669673 
L 241.20784 414.02404 
L 241.546964 414.323462 
L 242.225211 415.883546 
L 242.564335 416.105736 
L 242.903459 415.758787 
L 243.242583 414.865274 
L 243.581707 416.191286 
L 243.920831 416.455062 
L 244.599078 415.669673 
L 244.938202 416.211485 
L 245.277326 415.345299 
L 245.61645 415.291831 
L 245.955574 414.490996 
L 246.294697 413.281426 
L 246.633821 415.149249 
L 246.972945 415.783739 
L 247.312069 415.7374 
L 247.651193 414.595556 
L 247.990317 418.190997 
L 248.32944 418.984703 
L 248.668564 417.909398 
L 249.007688 417.835731 
L 249.346812 413.970572 
L 249.685936 417.757311 
L 250.02506 415.93345 
L 250.703307 414.227219 
L 251.042431 414.474361 
L 251.381555 414.86765 
L 252.059802 414.43634 
L 252.398926 413.431137 
L 252.73805 416.250695 
L 253.077174 416.190097 
L 253.416298 415.852653 
L 253.755422 414.805864 
L 254.094545 414.218902 
L 254.433669 415.884734 
L 254.772793 415.586501 
L 255.451041 414.178504 
L 255.790165 415.346488 
L 256.468412 414.98528 
L 256.807536 414.4102 
L 257.14666 413.313507 
L 257.485784 415.71126 
L 257.824908 415.912063 
L 258.164031 415.912063 
L 258.503155 414.601497 
L 258.842279 416.400406 
L 259.181403 417.113315 
L 259.520527 416.794882 
L 259.859651 414.435151 
L 260.198774 414.384059 
L 260.537898 416.96004 
L 260.877022 416.431299 
L 261.216146 416.458627 
L 261.55527 416.255447 
L 262.233517 414.656153 
L 262.572641 414.466044 
L 262.911765 413.37648 
L 263.590013 415.436789 
L 263.929136 415.707695 
L 264.26826 419.290066 
L 264.607384 417.802462 
L 264.946508 419.463541 
L 265.285632 416.809141 
L 265.624756 417.007567 
L 265.963879 415.708883 
L 266.642127 417.253521 
L 266.981251 417.416302 
L 267.320375 417.377092 
L 267.998622 422.28904 
L 268.337746 421.744852 
L 268.67687 417.40442 
L 269.015994 416.542988 
L 269.355118 416.708145 
L 269.694242 417.716912 
L 270.033365 422.49816 
L 270.372489 422.411423 
L 270.711613 421.868423 
L 271.389861 421.991994 
L 271.728985 421.511968 
L 272.068108 420.573304 
L 272.407232 420.98798 
L 272.746356 423.140967 
L 273.08548 423.350087 
L 273.424604 423.116015 
L 273.763728 422.122694 
L 274.102851 422.573016 
L 274.441975 422.349637 
L 274.781099 421.653362 
L 275.120223 419.892475 
L 275.79847 421.869611 
L 276.815842 420.839457 
L 277.154966 422.573016 
L 277.49409 422.713221 
L 278.172337 420.769354 
L 278.511461 420.866785 
L 278.850585 423.072052 
L 279.189709 421.774557 
L 279.528833 421.776933 
L 279.867956 420.750343 
L 280.20708 421.794756 
L 280.885328 421.526227 
L 281.224452 420.480626 
L 281.902699 422.404294 
L 282.241823 422.662129 
L 282.920071 420.262 
L 283.259195 421.181653 
L 283.598319 421.285025 
L 283.937442 421.146008 
L 284.276566 420.364184 
L 284.61569 420.776483 
L 284.954814 422.89026 
L 285.293938 422.050215 
L 285.633062 422.460138 
L 285.972185 422.309239 
L 286.311309 423.17186 
L 286.650433 422.564698 
L 286.989557 422.316368 
L 287.328681 421.724653 
L 287.667805 422.166657 
L 288.006928 423.3287 
L 288.346052 423.169483 
L 288.685176 423.146908 
L 289.0243 420.932135 
L 289.363424 423.661391 
L 289.702547 422.744114 
L 290.719919 421.267203 
L 291.059043 423.022149 
L 291.398167 422.859368 
L 291.73729 422.946105 
L 292.076414 422.268841 
L 292.754662 422.180915 
L 293.093786 421.831589 
L 293.43291 421.104422 
L 293.772033 421.217299 
L 294.111157 421.868423 
L 294.450281 421.797132 
L 294.789405 422.401917 
L 295.128529 421.320671 
L 295.467653 422.736985 
L 295.806776 422.716786 
L 296.1459 422.416175 
L 296.485024 421.608211 
L 296.824148 421.661679 
L 297.163272 422.938976 
L 297.502396 422.183292 
L 297.841519 421.931397 
L 298.180643 421.004614 
L 298.519767 421.890999 
L 299.198015 421.901692 
L 299.537139 420.605385 
L 299.876262 421.711583 
L 300.215386 422.115565 
L 300.55451 422.202303 
L 300.893634 422.147646 
L 301.232758 421.214923 
L 301.571881 422.144082 
L 301.911005 422.454197 
L 302.250129 422.27597 
L 302.589253 421.122244 
L 302.928377 421.656927 
L 303.267501 422.633613 
L 303.606624 421.813767 
L 303.945748 421.848224 
L 304.284872 421.05333 
L 304.623996 422.083484 
L 304.96312 421.598706 
L 305.302244 422.085861 
L 305.980491 421.121056 
L 306.319615 423.007891 
L 306.658739 421.817331 
L 306.997863 421.807826 
L 307.336987 420.960651 
L 307.67611 425.614764 
L 308.015234 425.523274 
L 308.354358 425.652785 
L 308.693482 424.750955 
L 309.032606 422.549252 
L 309.37173 423.555643 
L 309.710853 423.597229 
L 310.049977 421.009367 
L 310.389101 420.799059 
L 310.728225 422.449445 
L 311.406473 422.494596 
L 311.745596 421.1971 
L 312.08472 422.198738 
L 312.423844 423.74694 
L 312.762968 422.75956 
L 313.102092 422.655 
L 313.441215 422.05378 
L 313.780339 423.159978 
L 314.119463 422.135764 
L 314.458587 421.86367 
L 314.797711 422.065662 
L 315.136835 422.488655 
L 316.154206 422.941352 
L 316.49333 421.305225 
L 316.832454 423.209882 
L 317.171578 423.227704 
L 317.510701 423.440389 
L 317.849825 422.675199 
L 318.188949 422.701339 
L 318.867197 423.032842 
L 319.206321 422.605097 
L 319.545444 421.755546 
L 319.884568 423.757634 
L 320.223692 423.130273 
L 320.562816 422.166657 
L 320.90194 422.556381 
L 321.241064 422.306863 
L 321.580187 423.449895 
L 322.258435 423.937049 
L 322.597559 422.5243 
L 322.936683 424.961263 
L 323.275807 424.822246 
L 323.61493 424.48599 
L 323.954054 423.492669 
L 324.293178 423.669708 
L 324.632302 424.331526 
L 325.31055 424.522824 
L 325.649673 423.295431 
L 325.988797 423.024525 
L 326.327921 421.44543 
L 326.667045 420.891737 
L 327.006169 420.587562 
L 327.345292 421.906445 
L 327.684416 422.499348 
L 328.362664 422.507666 
L 328.701788 421.232745 
L 329.040912 423.405932 
L 329.719159 423.904969 
L 330.058283 422.028828 
L 330.397407 422.436375 
L 330.736531 423.875264 
L 331.414778 423.458212 
L 331.753902 421.869611 
L 332.093026 423.123144 
L 332.43215 422.808276 
L 332.771274 423.105321 
L 333.110398 421.987241 
L 333.788645 424.228154 
L 334.127769 424.200826 
L 334.466893 424.481237 
L 334.806017 423.546137 
L 335.145141 423.774268 
L 335.484264 423.600794 
L 335.823388 423.610299 
L 336.162512 421.390774 
L 336.501636 421.691384 
L 336.84076 423.383356 
L 337.519007 423.020961 
L 337.858131 421.174524 
L 338.197255 423.361969 
L 338.536379 423.868135 
L 339.214626 422.833228 
L 339.55375 422.902142 
L 339.892874 425.330788 
L 340.231998 425.494757 
L 340.910246 423.776645 
L 341.588493 424.017846 
L 341.927617 423.787338 
L 342.266741 423.116015 
L 343.284112 423.249092 
L 343.623236 422.221313 
L 343.96236 422.279534 
L 344.301484 425.403267 
L 344.979732 425.017108 
L 345.657979 422.930659 
L 345.997103 424.450344 
L 346.675351 424.301822 
L 347.014475 423.234833 
L 347.353598 423.099381 
L 347.692722 423.878829 
L 348.031846 423.52475 
L 348.37097 422.880755 
L 348.710094 423.049477 
L 349.049218 423.70773 
L 349.388341 423.596041 
L 349.727465 422.956799 
L 350.066589 421.812579 
L 350.405713 424.259047 
L 351.08396 423.356028 
L 351.423084 426.68294 
L 351.762208 426.685316 
L 352.101332 428.707604 
L 352.440456 426.021122 
L 352.77958 425.952208 
L 353.118703 425.204841 
L 353.457827 426.509465 
L 353.796951 424.912548 
L 354.136075 424.874526 
L 354.475199 424.293504 
L 354.814323 425.372374 
L 355.153446 428.378477 
L 355.49257 425.532779 
L 355.831694 425.676549 
L 356.509942 423.05423 
L 356.849066 424.758084 
L 357.188189 422.658565 
L 357.527313 422.103683 
L 357.866437 421.847036 
L 358.205561 424.219837 
L 358.544685 424.566786 
L 358.883809 424.609561 
L 359.222932 423.505739 
L 359.562056 423.441577 
L 359.90118 425.651597 
L 360.240304 424.82581 
L 360.579428 424.651147 
L 360.918552 422.777383 
L 361.257675 425.409208 
L 361.596799 425.582683 
L 361.935923 425.158501 
L 362.614171 423.476035 
L 362.953295 424.285187 
L 363.292418 423.626934 
L 363.631542 423.869323 
L 363.970666 423.152849 
L 364.30979 424.30301 
L 364.648914 424.068938 
L 364.988037 422.690646 
L 365.327161 422.924718 
L 365.666285 422.807088 
L 366.005409 424.260235 
L 366.344533 423.915662 
L 366.683657 424.029728 
L 367.02278 422.98175 
L 367.361904 424.876902 
L 367.701028 424.796106 
L 368.040152 424.853138 
L 368.379276 423.86457 
L 369.057523 424.987403 
L 369.735771 424.77353 
L 370.074895 423.893087 
L 370.414019 425.601694 
L 370.753143 425.027801 
L 371.092266 424.906607 
L 371.43139 424.085572 
L 372.109638 424.942252 
L 372.787886 424.14617 
L 373.127009 423.030466 
L 373.466133 426.53917 
L 373.805257 426.590262 
L 374.483505 424.317268 
L 374.822629 424.363607 
L 375.161752 425.285637 
L 375.84 424.899478 
L 376.179124 424.370736 
L 376.518248 426.327673 
L 376.857371 426.489266 
L 377.196495 426.985927 
L 377.874743 424.408758 
L 378.213867 425.576742 
L 378.552991 424.800858 
L 378.892114 425.039683 
L 379.231238 424.205579 
L 379.570362 425.658726 
L 379.909486 424.672535 
L 380.24861 424.292316 
L 380.587734 423.378604 
L 380.926857 423.899028 
L 381.265981 424.806799 
L 381.605105 425.280884 
L 381.944229 425.105033 
L 382.283353 424.559657 
L 382.622477 425.920127 
L 382.9616 425.877352 
L 383.300724 425.977159 
L 383.639848 425.096716 
L 383.978972 425.403267 
L 384.318096 426.577192 
L 384.65722 426.945528 
L 385.335467 425.201276 
L 386.013715 425.497134 
L 386.352839 425.356928 
L 386.691963 424.74739 
L 387.031086 423.370286 
L 387.37021 425.099092 
L 387.709334 424.293504 
L 388.048458 424.22459 
L 388.387582 423.502175 
L 388.726705 425.990229 
L 389.065829 426.057956 
L 389.404953 425.701501 
L 389.744077 423.92992 
L 390.422325 425.765663 
L 390.761448 425.561295 
L 391.439696 424.69511 
L 391.77882 425.164442 
L 392.117944 425.334352 
L 392.457068 424.967204 
L 392.796191 424.278058 
L 393.135315 425.179889 
L 393.474439 425.465053 
L 393.813563 425.304648 
L 394.152687 425.385444 
L 394.491811 423.992894 
L 394.830934 425.896363 
L 395.170058 430.140552 
L 395.848306 427.67032 
L 396.18743 425.223851 
L 396.526554 426.896813 
L 396.865677 427.065535 
L 397.543925 425.480499 
L 397.883049 426.753043 
L 398.561297 426.425104 
L 398.90042 425.728829 
L 399.239544 425.738335 
L 399.578668 427.196235 
L 399.917792 426.570063 
L 400.256916 426.725715 
L 400.935163 425.64328 
L 401.274287 425.348611 
L 401.613411 424.766401 
L 401.952535 424.960075 
L 402.291659 424.232907 
L 402.630782 425.026613 
L 402.969906 425.001661 
L 403.30903 424.677287 
L 403.648154 423.636439 
L 403.987278 425.980724 
L 404.326402 426.09479 
L 404.665525 425.942702 
L 405.004649 425.246427 
L 405.343773 425.771604 
L 405.682897 427.02276 
L 406.022021 426.523724 
L 406.361145 426.560557 
L 406.700268 425.665856 
L 407.039392 425.832201 
L 407.378516 425.399703 
L 407.71764 425.70863 
L 408.056764 423.908533 
L 408.735011 425.574365 
L 409.413259 425.607635 
L 409.752383 424.729567 
L 410.091507 427.214058 
L 410.430631 427.551502 
L 411.108878 425.071764 
L 411.448002 424.788977 
L 411.787126 426.220737 
L 412.12625 425.951019 
L 412.465374 426.06152 
L 413.143621 424.019034 
L 413.482745 423.697037 
L 413.821869 423.572277 
L 414.160993 422.779759 
L 414.500116 422.90333 
L 414.83924 425.3296 
L 415.178364 425.470994 
L 415.517488 425.145431 
L 415.856612 423.689907 
L 416.195736 425.953396 
L 416.534859 425.415149 
L 416.873983 425.222663 
L 417.213107 423.880017 
L 417.891355 430.92 
L 418.230479 429.748452 
L 418.569602 429.787662 
L 418.908726 425.898739 
L 419.24785 426.718585 
L 419.586974 425.562484 
L 419.926098 425.08721 
L 420.265222 423.950119 
L 420.604345 425.145431 
L 420.943469 425.857153 
L 421.282593 425.966466 
L 421.621717 425.579118 
L 421.960841 424.23766 
L 422.639088 425.323659 
L 422.978212 425.239298 
L 423.317336 423.298995 
L 423.65646 424.108148 
L 423.995584 425.689619 
L 424.334708 425.784674 
L 425.012955 424.070126 
L 425.352079 426.621155 
L 425.691203 426.158951 
L 426.030327 426.059144 
L 426.708574 425.033742 
L 427.386822 425.207217 
L 427.725946 424.003588 
L 428.06507 423.783774 
L 428.404193 425.914186 
L 428.743317 424.571539 
L 429.082441 424.640454 
L 429.421565 423.493857 
L 429.760689 423.036407 
L 430.099813 424.90423 
L 430.438936 424.849574 
L 430.77806 423.859818 
L 431.117184 423.61624 
L 431.456308 424.665406 
L 431.795432 424.178251 
L 432.134556 423.948931 
L 432.473679 423.01502 
L 433.151927 425.613575 
L 433.491051 425.659915 
L 433.830175 425.492381 
L 434.169299 424.333903 
L 434.508422 424.206767 
L 434.847546 424.402817 
L 435.18667 423.802785 
L 435.525794 422.375777 
L 435.864918 422.268841 
L 436.204042 425.053941 
L 436.543165 425.283261 
L 437.221413 423.523562 
L 437.560537 424.345784 
L 437.899661 424.601244 
L 438.238785 424.425393 
L 438.577908 427.480211 
L 438.917032 427.805773 
L 439.256156 428.429569 
L 439.59528 428.712356 
L 439.934404 425.883293 
L 440.273527 424.96958 
L 440.612651 425.475746 
L 440.951775 424.696298 
L 441.290899 424.610749 
L 441.630023 423.099381 
L 441.969147 427.120191 
L 442.30827 427.913897 
L 442.647394 428.107571 
L 442.986518 428.113512 
L 443.325642 424.051115 
L 443.664766 427.540808 
L 444.00389 425.431783 
L 444.343013 425.196523 
L 444.682137 424.684416 
L 445.021261 424.529953 
L 445.360385 425.169195 
L 445.699509 424.165181 
L 446.038633 424.462226 
L 446.377756 423.105321 
L 446.71688 424.139041 
L 447.056004 424.605996 
L 447.395128 424.686793 
L 447.734252 422.19755 
L 448.412499 423.670897 
L 448.751623 423.962001 
L 449.090747 423.467717 
L 449.429871 422.606285 
L 449.768995 423.156413 
L 450.108119 423.092251 
L 450.447242 422.513606 
L 450.786366 421.483452 
L 451.12549 422.607473 
L 451.464614 424.419452 
L 451.803738 423.506927 
L 452.142861 423.278796 
L 452.481985 422.372213 
L 452.821109 422.455385 
L 453.160233 421.996747 
L 453.499357 420.96184 
L 453.838481 420.632713 
L 454.177604 421.766239 
L 454.516728 424.193697 
L 454.855852 422.868873 
L 455.194976 422.649059 
L 455.5341 421.343246 
L 455.873224 422.587274 
L 456.212347 422.562322 
L 456.551471 421.737723 
L 456.890595 420.279823 
L 457.229719 420.845398 
L 457.568843 421.653362 
L 458.24709 421.473946 
L 458.586214 421.075905 
L 458.925338 422.127447 
L 459.264462 421.225616 
L 459.603586 421.61534 
L 459.94271 420.928571 
L 460.281833 420.709945 
L 460.620957 421.204229 
L 460.960081 421.018872 
L 461.299205 420.096843 
L 461.638329 419.943567 
L 461.977453 422.980562 
L 462.316576 422.821346 
L 462.6557 422.11913 
L 462.994824 420.787177 
L 463.333948 421.235122 
L 463.673072 422.405482 
L 464.012195 422.031204 
L 464.351319 421.460876 
L 464.690443 421.23631 
L 465.029567 422.870061 
L 465.368691 423.161166 
L 465.707815 422.594403 
L 466.386062 421.068776 
L 466.725186 421.222052 
L 467.403434 420.28814 
L 467.742558 417.867812 
L 468.420805 418.568839 
L 468.759929 418.862321 
L 469.099053 417.851177 
L 469.438177 418.962128 
L 469.777301 419.683355 
L 470.116424 419.716624 
L 470.455548 419.544338 
L 470.794672 418.939552 
L 471.133796 419.714248 
L 471.47292 419.828313 
L 471.812044 419.606123 
L 472.151167 418.932423 
L 472.490291 420.033869 
L 472.829415 417.688396 
L 473.168539 418.10426 
L 473.507663 417.113315 
L 473.846787 416.98618 
L 474.18591 420.130112 
L 474.525034 418.993021 
L 474.864158 418.6532 
L 475.203282 417.838107 
L 475.542406 418.436951 
L 475.88153 419.790291 
L 476.220653 419.839007 
L 476.898901 418.368037 
L 477.238025 419.569289 
L 477.916272 418.376354 
L 478.255396 417.309366 
L 478.59452 418.382295 
L 478.933644 418.488043 
L 479.272768 418.214761 
L 479.611892 418.438139 
L 479.951015 417.152525 
L 480.290139 418.844498 
L 480.629263 418.472597 
L 481.307511 416.812705 
L 481.646635 415.833643 
L 481.985758 420.869161 
L 482.324882 421.848224 
L 482.664006 421.106798 
L 483.342254 419.072629 
L 483.681378 419.377992 
L 484.020501 418.688846 
L 484.359625 417.446007 
L 484.698749 419.631075 
L 485.037873 419.342346 
L 485.376997 418.687658 
L 485.716121 418.414376 
L 486.055244 417.63968 
L 486.394368 417.888011 
L 486.733492 417.505416 
L 487.072616 417.676514 
L 487.41174 416.75092 
L 487.750864 417.246392 
L 488.089987 417.166784 
L 488.429111 416.673688 
L 488.768235 414.99835 
L 489.107359 414.688234 
L 489.446483 415.266879 
L 489.785606 414.868838 
L 490.12473 414.717939 
L 490.463854 413.772145 
L 490.802978 414.56704 
L 491.142102 414.856956 
L 491.481226 414.853392 
L 491.820349 414.084637 
L 492.159473 413.993147 
L 492.498597 415.901369 
L 492.837721 415.821761 
L 493.176845 414.328215 
L 493.515969 413.810167 
L 493.855092 415.227669 
L 494.194216 414.091767 
L 494.872464 413.608176 
L 495.211588 413.086564 
L 495.550712 414.688234 
L 495.889835 413.928985 
L 496.228959 413.742441 
L 496.568083 412.936853 
L 496.907207 412.978439 
L 497.246331 414.818934 
L 497.585455 414.902107 
L 498.263702 412.512672 
L 498.602826 415.446295 
L 498.94195 415.131426 
L 499.281074 414.385248 
L 499.620198 412.896455 
L 499.959321 413.921856 
L 500.298445 411.945908 
L 500.637569 412.234637 
L 500.976693 411.255574 
L 501.315817 410.808817 
L 501.65494 411.290031 
L 502.333188 411.281714 
L 502.672312 410.338297 
L 503.011436 413.028343 
L 503.35056 413.4751 
L 504.028807 411.325677 
L 504.367931 411.311419 
L 504.707055 412.700404 
L 505.046179 412.847739 
L 505.385303 412.467521 
L 505.724426 411.530044 
L 506.06355 413.921856 
L 506.402674 411.841348 
L 506.741798 411.878182 
L 507.080922 410.819511 
L 507.759169 411.980366 
L 508.098293 412.080173 
L 508.437417 411.915016 
L 508.776541 410.485632 
L 509.115665 413.437078 
L 509.454789 413.677091 
L 509.793912 413.01052 
L 510.47216 407.999953 
L 510.811284 409.43409 
L 511.828655 407.523492 
L 512.167779 407.751623 
L 512.506903 407.554385 
L 512.846027 407.227634 
L 513.185151 406.543241 
L 513.524274 406.259265 
L 513.863398 408.350467 
L 514.202522 408.621373 
L 514.541646 408.45978 
L 514.88077 407.351205 
L 515.219894 408.654642 
L 515.559017 408.677217 
L 515.898141 408.345714 
L 516.237265 408.220955 
L 516.576389 407.467647 
L 516.915513 409.700243 
L 517.254637 409.642022 
L 517.932884 407.025643 
L 518.272008 407.976189 
L 519.28938 406.466009 
L 519.628503 406.286593 
L 519.967627 407.241892 
L 520.306751 407.268032 
L 520.645875 406.55037 
L 520.984999 405.298025 
L 521.324123 407.994012 
L 521.663246 407.247833 
L 522.00237 407.296549 
L 522.341494 406.855733 
L 522.680618 406.11906 
L 523.019742 408.21145 
L 523.358866 408.122336 
L 523.697989 407.70766 
L 524.037113 406.96861 
L 524.376237 406.683447 
L 524.715361 408.553646 
L 525.393609 408.586915 
L 525.732732 411.891252 
L 526.071856 410.092343 
L 526.41098 410.339485 
L 526.750104 410.419093 
L 527.089228 405.194653 
L 527.428351 406.633543 
L 527.767475 407.502105 
L 528.106599 406.719092 
L 528.445723 406.268771 
L 528.784847 408.134218 
L 529.123971 411.77481 
L 529.463094 411.092793 
L 529.802218 411.200918 
L 530.141342 407.087429 
L 530.480466 406.892567 
L 530.81959 408.774648 
L 531.158714 408.097384 
L 531.497837 408.325515 
L 531.836961 406.651366 
L 532.176085 407.761128 
L 532.515209 407.850242 
L 533.193457 406.255701 
L 533.53258 406.363825 
L 533.871704 412.380783 
L 534.210828 412.099184 
L 534.889076 409.579048 
L 535.2282 410.933577 
L 535.906447 409.025355 
L 536.245571 408.11996 
L 536.923819 409.154867 
L 537.262943 409.078823 
L 537.602066 408.784154 
L 537.94119 407.458142 
L 538.280314 408.123524 
L 538.958562 408.622561 
L 539.297685 407.429625 
L 539.975933 410.331168 
L 540.315057 410.42147 
L 540.654181 409.959267 
L 540.993305 408.868515 
L 541.332428 408.908913 
L 542.010676 407.325065 
L 542.3498 406.218867 
L 542.688924 406.918707 
L 543.028048 407.919157 
L 543.367171 408.343338 
L 543.706295 407.850242 
L 544.045419 406.741667 
L 544.384543 408.736626 
L 544.723667 409.274873 
L 545.062791 409.223781 
L 545.401914 407.0601 
L 545.741038 406.418482 
L 546.080162 412.273847 
L 546.419286 411.77481 
L 546.75841 411.854418 
L 547.097534 410.977539 
L 547.436657 411.727283 
L 547.775781 412.029081 
L 548.454029 411.038137 
L 548.793153 411.155767 
L 549.132277 412.702781 
L 549.4714 412.156217 
L 549.810524 412.194239 
L 550.149648 410.201656 
L 550.488772 412.787142 
L 550.827896 413.111516 
L 551.167019 412.263153 
L 551.506143 410.68287 
L 552.184391 411.987495 
L 552.523515 411.95779 
L 552.862639 411.266268 
L 553.201762 410.857533 
L 553.540886 411.694014 
L 553.88001 411.708272 
L 554.558258 410.404835 
L 554.897382 411.042889 
L 555.236505 412.289293 
L 555.575629 411.272209 
L 555.914753 411.092793 
L 556.253877 410.359684 
L 556.593001 410.964469 
L 556.932125 409.897481 
L 557.271248 409.363987 
L 557.610372 407.840737 
L 557.949496 408.451463 
L 558.28862 408.389677 
L 558.627744 408.203132 
L 559.305991 406.846228 
L 559.645115 409.085952 
L 560.323363 408.698605 
L 560.662487 406.83791 
L 561.001611 408.056986 
L 561.340734 408.853068 
L 561.679858 408.932677 
L 562.358106 408.161546 
L 562.69723 409.435278 
L 563.036354 409.652715 
L 563.375477 409.531521 
L 563.714601 408.528694 
L 564.053725 406.183222 
L 564.392849 405.83746 
L 564.731973 406.00143 
L 565.071096 405.987171 
L 565.41022 405.15782 
L 565.749344 406.475515 
L 566.088468 406.466009 
L 566.427592 406.738103 
L 566.766716 405.813697 
L 567.105839 406.266394 
L 567.444963 407.442695 
L 567.784087 407.834796 
L 568.123211 407.322689 
L 568.462335 404.972463 
L 569.140582 405.376445 
L 569.479706 409.478053 
L 569.81883 407.794397 
L 570.157954 407.663697 
L 570.497078 405.879047 
L 570.836202 406.253324 
L 571.175325 406.310357 
L 571.853573 405.015238 
L 572.192697 405.483382 
L 572.531821 405.554673 
L 572.870945 404.513825 
L 573.210068 404.461545 
L 573.549192 405.4715 
L 573.888316 405.788745 
L 574.22744 404.509072 
L 574.566564 403.867453 
L 574.905688 404.577987 
L 575.244811 404.772849 
L 575.923059 402.910966 
L 576.601307 404.917807 
L 577.279554 404.645713 
L 577.618678 403.824679 
L 577.957802 403.94825 
L 578.63605 403.463471 
L 578.975173 401.943785 
L 579.653421 402.610356 
L 579.992545 402.665012 
L 580.331669 400.809071 
L 580.670793 400.628467 
L 581.009916 402.914531 
L 581.34904 401.7311 
L 581.688164 401.450689 
L 582.027288 400.787683 
L 582.366412 401.37821 
L 582.705536 402.402424 
L 583.383783 401.935468 
L 583.722907 400.896996 
L 584.401155 400.889867 
L 584.740279 400.630843 
L 585.079402 399.517516 
L 585.418526 401.31286 
L 586.435898 401.178595 
L 586.775022 400.111607 
L 587.114145 405.155443 
L 587.792393 405.286144 
L 588.131517 404.014788 
L 588.470641 401.798827 
L 588.809764 403.32683 
L 589.148888 401.377022 
L 589.827136 399.40345 
L 590.16626 400.419347 
L 590.505384 399.277503 
L 590.844507 399.315525 
L 591.183631 398.917484 
L 591.522755 399.440284 
L 591.861879 400.798377 
L 592.540127 400.804318 
L 592.87925 399.85496 
L 593.557498 400.712828 
L 594.235746 398.335274 
L 594.57487 398.444587 
L 594.913993 399.93338 
L 595.253117 404.859586 
L 595.592241 405.24931 
L 595.931365 404.062315 
L 596.270489 405.482194 
L 596.609613 405.520216 
L 596.948736 405.359811 
L 597.28786 404.297575 
L 597.626984 404.596997 
L 597.966108 405.555861 
L 598.305232 405.49764 
L 598.644356 403.732 
L 599.322603 403.684473 
L 599.661727 403.83062 
L 600.000851 403.841313 
L 600.339975 402.13033 
L 600.679099 402.101814 
L 601.018222 403.84963 
L 601.357346 402.057851 
L 601.69647 402.13033 
L 602.035594 401.138197 
L 602.374718 402.31331 
L 602.713841 402.333509 
L 603.052965 402.903837 
L 603.392089 401.917645 
L 603.731213 402.200433 
L 604.070337 403.894781 
L 604.409461 403.009585 
L 604.748584 402.785019 
L 605.087708 406.742856 
L 605.426832 407.244269 
L 606.10508 405.2101 
L 606.444204 405.123362 
L 606.783327 405.754288 
L 607.122451 405.305154 
L 607.461575 404.610067 
L 607.800699 404.372431 
L 608.139823 403.399309 
L 608.478947 405.326542 
L 608.81807 405.865977 
L 609.157194 405.817261 
L 609.496318 404.278564 
L 609.835442 404.397383 
L 610.174566 404.90949 
L 610.51369 404.890479 
L 611.191937 402.426187 
L 611.531061 404.91543 
L 611.870185 405.126927 
L 612.209309 404.800177 
L 612.548433 404.113407 
L 612.887556 408.344526 
L 613.22668 407.601912 
L 613.565804 407.189612 
L 613.904928 405.971725 
L 614.244052 402.364402 
L 614.583175 405.231487 
L 614.922299 405.126927 
L 615.939671 401.594459 
L 616.278795 407.202682 
L 616.617918 407.453389 
L 616.957042 407.086241 
L 617.296166 406.427987 
L 617.63529 405.333671 
L 618.313538 405.365752 
L 618.652661 403.62744 
L 618.991785 403.610806 
L 619.330909 404.860774 
L 619.330909 404.860774 
" style="fill:none;stroke:#1f77b4;stroke-linecap:square;stroke-width:1.5;"/>
   </g>
   <g id="patch_3">
    <path d="M 108 448.56 
L 108 60.48 
" style="fill:none;stroke:#000000;stroke-linecap:square;stroke-linejoin:miter;stroke-width:0.8;"/>
   </g>
   <g id="patch_4">
    <path d="M 643.68 448.56 
L 643.68 60.48 
" style="fill:none;stroke:#000000;stroke-linecap:square;stroke-linejoin:miter;stroke-width:0.8;"/>
   </g>
   <g id="patch_5">
    <path d="M 108 448.56 
L 643.68 448.56 
" style="fill:none;stroke:#000000;stroke-linecap:square;stroke-linejoin:miter;stroke-width:0.8;"/>
   </g>
   <g id="patch_6">
    <path d="M 108 60.48 
L 643.68 60.48 
" style="fill:none;stroke:#000000;stroke-linecap:square;stroke-linejoin:miter;stroke-width:0.8;"/>
   </g>
   <g id="text_31">
    <!-- unikernel_dce-allocpool - free -->
    <g transform="translate(265.448203 54.48)scale(0.15 -0.15)">
     <defs>
      <path d="M 8.5 21.578125 
L 8.5 54.6875 
L 17.484375 54.6875 
L 17.484375 21.921875 
Q 17.484375 14.15625 20.5 10.265625 
Q 23.53125 6.390625 29.59375 6.390625 
Q 36.859375 6.390625 41.078125 11.03125 
Q 45.3125 15.671875 45.3125 23.6875 
L 45.3125 54.6875 
L 54.296875 54.6875 
L 54.296875 0 
L 45.3125 0 
L 45.3125 8.40625 
Q 42.046875 3.421875 37.71875 1 
Q 33.40625 -1.421875 27.6875 -1.421875 
Q 18.265625 -1.421875 13.375 4.4375 
Q 8.5 10.296875 8.5 21.578125 
z
M 31.109375 56 
z
" id="DejaVuSans-117"/>
      <path d="M 54.890625 33.015625 
L 54.890625 0 
L 45.90625 0 
L 45.90625 32.71875 
Q 45.90625 40.484375 42.875 44.328125 
Q 39.84375 48.1875 33.796875 48.1875 
Q 26.515625 48.1875 22.3125 43.546875 
Q 18.109375 38.921875 18.109375 30.90625 
L 18.109375 0 
L 9.078125 0 
L 9.078125 54.6875 
L 18.109375 54.6875 
L 18.109375 46.1875 
Q 21.34375 51.125 25.703125 53.5625 
Q 30.078125 56 35.796875 56 
Q 45.21875 56 50.046875 50.171875 
Q 54.890625 44.34375 54.890625 33.015625 
z
" id="DejaVuSans-110"/>
      <path d="M 9.078125 75.984375 
L 18.109375 75.984375 
L 18.109375 31.109375 
L 44.921875 54.6875 
L 56.390625 54.6875 
L 27.390625 29.109375 
L 57.625 0 
L 45.90625 0 
L 18.109375 26.703125 
L 18.109375 0 
L 9.078125 0 
z
" id="DejaVuSans-107"/>
      <path d="M 41.109375 46.296875 
Q 39.59375 47.171875 37.8125 47.578125 
Q 36.03125 48 33.890625 48 
Q 26.265625 48 22.1875 43.046875 
Q 18.109375 38.09375 18.109375 28.8125 
L 18.109375 0 
L 9.078125 0 
L 9.078125 54.6875 
L 18.109375 54.6875 
L 18.109375 46.1875 
Q 20.953125 51.171875 25.484375 53.578125 
Q 30.03125 56 36.53125 56 
Q 37.453125 56 38.578125 55.875 
Q 39.703125 55.765625 41.0625 55.515625 
z
" id="DejaVuSans-114"/>
      <path d="M 9.421875 75.984375 
L 18.40625 75.984375 
L 18.40625 0 
L 9.421875 0 
z
" id="DejaVuSans-108"/>
      <path d="M 50.984375 -16.609375 
L 50.984375 -23.578125 
L -0.984375 -23.578125 
L -0.984375 -16.609375 
z
" id="DejaVuSans-95"/>
      <path d="M 45.40625 46.390625 
L 45.40625 75.984375 
L 54.390625 75.984375 
L 54.390625 0 
L 45.40625 0 
L 45.40625 8.203125 
Q 42.578125 3.328125 38.25 0.953125 
Q 33.9375 -1.421875 27.875 -1.421875 
Q 17.96875 -1.421875 11.734375 6.484375 
Q 5.515625 14.40625 5.515625 27.296875 
Q 5.515625 40.1875 11.734375 48.09375 
Q 17.96875 56 27.875 56 
Q 33.9375 56 38.25 53.625 
Q 42.578125 51.265625 45.40625 46.390625 
z
M 14.796875 27.296875 
Q 14.796875 17.390625 18.875 11.75 
Q 22.953125 6.109375 30.078125 6.109375 
Q 37.203125 6.109375 41.296875 11.75 
Q 45.40625 17.390625 45.40625 27.296875 
Q 45.40625 37.203125 41.296875 42.84375 
Q 37.203125 48.484375 30.078125 48.484375 
Q 22.953125 48.484375 18.875 42.84375 
Q 14.796875 37.203125 14.796875 27.296875 
z
" id="DejaVuSans-100"/>
      <path d="M 48.78125 52.59375 
L 48.78125 44.1875 
Q 44.96875 46.296875 41.140625 47.34375 
Q 37.3125 48.390625 33.40625 48.390625 
Q 24.65625 48.390625 19.8125 42.84375 
Q 14.984375 37.3125 14.984375 27.296875 
Q 14.984375 17.28125 19.8125 11.734375 
Q 24.65625 6.203125 33.40625 6.203125 
Q 37.3125 6.203125 41.140625 7.25 
Q 44.96875 8.296875 48.78125 10.40625 
L 48.78125 2.09375 
Q 45.015625 0.34375 40.984375 -0.53125 
Q 36.96875 -1.421875 32.421875 -1.421875 
Q 20.0625 -1.421875 12.78125 6.34375 
Q 5.515625 14.109375 5.515625 27.296875 
Q 5.515625 40.671875 12.859375 48.328125 
Q 20.21875 56 33.015625 56 
Q 37.15625 56 41.109375 55.140625 
Q 45.0625 54.296875 48.78125 52.59375 
z
" id="DejaVuSans-99"/>
      <path d="M 4.890625 31.390625 
L 31.203125 31.390625 
L 31.203125 23.390625 
L 4.890625 23.390625 
z
" id="DejaVuSans-45"/>
      <path d="M 30.609375 48.390625 
Q 23.390625 48.390625 19.1875 42.75 
Q 14.984375 37.109375 14.984375 27.296875 
Q 14.984375 17.484375 19.15625 11.84375 
Q 23.34375 6.203125 30.609375 6.203125 
Q 37.796875 6.203125 41.984375 11.859375 
Q 46.1875 17.53125 46.1875 27.296875 
Q 46.1875 37.015625 41.984375 42.703125 
Q 37.796875 48.390625 30.609375 48.390625 
z
M 30.609375 56 
Q 42.328125 56 49.015625 48.375 
Q 55.71875 40.765625 55.71875 27.296875 
Q 55.71875 13.875 49.015625 6.21875 
Q 42.328125 -1.421875 30.609375 -1.421875 
Q 18.84375 -1.421875 12.171875 6.21875 
Q 5.515625 13.875 5.515625 27.296875 
Q 5.515625 40.765625 12.171875 48.375 
Q 18.84375 56 30.609375 56 
z
" id="DejaVuSans-111"/>
      <path id="DejaVuSans-32"/>
      <path d="M 37.109375 75.984375 
L 37.109375 68.5 
L 28.515625 68.5 
Q 23.6875 68.5 21.796875 66.546875 
Q 19.921875 64.59375 19.921875 59.515625 
L 19.921875 54.6875 
L 34.71875 54.6875 
L 34.71875 47.703125 
L 19.921875 47.703125 
L 19.921875 0 
L 10.890625 0 
L 10.890625 47.703125 
L 2.296875 47.703125 
L 2.296875 54.6875 
L 10.890625 54.6875 
L 10.890625 58.5 
Q 10.890625 67.625 15.140625 71.796875 
Q 19.390625 75.984375 28.609375 75.984375 
z
" id="DejaVuSans-102"/>
     </defs>
     <use xlink:href="#DejaVuSans-117"/>
     <use x="63.378906" xlink:href="#DejaVuSans-110"/>
     <use x="126.757812" xlink:href="#DejaVuSans-105"/>
     <use x="154.541016" xlink:href="#DejaVuSans-107"/>
     <use x="208.826172" xlink:href="#DejaVuSans-101"/>
     <use x="270.349609" xlink:href="#DejaVuSans-114"/>
     <use x="309.712891" xlink:href="#DejaVuSans-110"/>
     <use x="373.091797" xlink:href="#DejaVuSans-101"/>
     <use x="434.615234" xlink:href="#DejaVuSans-108"/>
     <use x="462.398438" xlink:href="#DejaVuSans-95"/>
     <use x="512.398438" xlink:href="#DejaVuSans-100"/>
     <use x="575.875" xlink:href="#DejaVuSans-99"/>
     <use x="630.855469" xlink:href="#DejaVuSans-101"/>
     <use x="692.378906" xlink:href="#DejaVuSans-45"/>
     <use x="728.462891" xlink:href="#DejaVuSans-97"/>
     <use x="789.742188" xlink:href="#DejaVuSans-108"/>
     <use x="817.525391" xlink:href="#DejaVuSans-108"/>
     <use x="845.308594" xlink:href="#DejaVuSans-111"/>
     <use x="906.490234" xlink:href="#DejaVuSans-99"/>
     <use x="961.470703" xlink:href="#DejaVuSans-112"/>
     <use x="1024.947266" xlink:href="#DejaVuSans-111"/>
     <use x="1086.128906" xlink:href="#DejaVuSans-111"/>
     <use x="1147.310547" xlink:href="#DejaVuSans-108"/>
     <use x="1175.09375" xlink:href="#DejaVuSans-32"/>
     <use x="1206.880859" xlink:href="#DejaVuSans-45"/>
     <use x="1242.964844" xlink:href="#DejaVuSans-32"/>
     <use x="1274.751953" xlink:href="#DejaVuSans-102"/>
     <use x="1309.957031" xlink:href="#DejaVuSans-114"/>
     <use x="1348.820312" xlink:href="#DejaVuSans-101"/>
     <use x="1410.34375" xlink:href="#DejaVuSans-101"/>
    </g>
   </g>
   <g id="legend_1">
    <g id="patch_7">
     <path d="M 650.68 258.52 
L 654.68 258.52 
Q 656.68 258.52 656.68 256.52 
L 656.68 252.52 
Q 656.68 250.52 654.68 250.52 
L 650.68 250.52 
Q 648.68 250.52 648.68 252.52 
L 648.68 256.52 
Q 648.68 258.52 650.68 258.52 
z
" style="fill:#ffffff;opacity:0.8;stroke:#cccccc;stroke-linejoin:miter;"/>
    </g>
   </g>
  </g>
 </g>
 <defs>
  <clipPath id="p693883c78f">
   <rect height="388.08" width="535.68" x="108" y="60.48"/>
  </clipPath>
 </defs>
</svg>
