<?xml version="1.0" encoding="utf-8" standalone="no"?>
<!DOCTYPE svg PUBLIC "-//W3C//DTD SVG 1.1//EN"
  "http://www.w3.org/Graphics/SVG/1.1/DTD/svg11.dtd">
<!-- Created with matplotlib (https://matplotlib.org/) -->
<svg height="504pt" version="1.1" viewBox="0 0 864 504" width="864pt" xmlns="http://www.w3.org/2000/svg" xmlns:xlink="http://www.w3.org/1999/xlink">
 <metadata>
  <rdf:RDF xmlns:cc="http://creativecommons.org/ns#" xmlns:dc="http://purl.org/dc/elements/1.1/" xmlns:rdf="http://www.w3.org/1999/02/22-rdf-syntax-ns#">
   <cc:Work>
    <dc:type rdf:resource="http://purl.org/dc/dcmitype/StillImage"/>
    <dc:date>2022-05-29T17:19:32.481410</dc:date>
    <dc:format>image/svg+xml</dc:format>
    <dc:creator>
     <cc:Agent>
      <dc:title>Matplotlib v3.3.4, https://matplotlib.org/</dc:title>
     </cc:Agent>
    </dc:creator>
   </cc:Work>
  </rdf:RDF>
 </metadata>
 <defs>
  <style type="text/css">*{stroke-linecap:butt;stroke-linejoin:round;}</style>
 </defs>
 <g id="figure_1">
  <g id="patch_1">
   <path d="M 0 504 
L 864 504 
L 864 0 
L 0 0 
z
" style="fill:#ffffff;"/>
  </g>
  <g id="axes_1">
   <g id="patch_2">
    <path d="M 108 448.56 
L 643.68 448.56 
L 643.68 60.48 
L 108 60.48 
z
" style="fill:#ffffff;"/>
   </g>
   <g id="matplotlib.axis_1">
    <g id="xtick_1">
     <g id="line2d_1">
      <defs>
       <path d="M 0 0 
L 0 3.5 
" id="m5ca9ee6d2f" style="stroke:#000000;stroke-width:0.8;"/>
      </defs>
      <g>
       <use style="stroke:#000000;stroke-width:0.8;" x="132.349091" xlink:href="#m5ca9ee6d2f" y="448.56"/>
      </g>
     </g>
     <g id="text_1">
      <!-- 19:28:38 -->
      <g transform="translate(135.108466 500.4725)rotate(-90)scale(0.1 -0.1)">
       <defs>
        <path d="M 12.40625 8.296875 
L 28.515625 8.296875 
L 28.515625 63.921875 
L 10.984375 60.40625 
L 10.984375 69.390625 
L 28.421875 72.90625 
L 38.28125 72.90625 
L 38.28125 8.296875 
L 54.390625 8.296875 
L 54.390625 0 
L 12.40625 0 
z
" id="DejaVuSans-49"/>
        <path d="M 10.984375 1.515625 
L 10.984375 10.5 
Q 14.703125 8.734375 18.5 7.8125 
Q 22.3125 6.890625 25.984375 6.890625 
Q 35.75 6.890625 40.890625 13.453125 
Q 46.046875 20.015625 46.78125 33.40625 
Q 43.953125 29.203125 39.59375 26.953125 
Q 35.25 24.703125 29.984375 24.703125 
Q 19.046875 24.703125 12.671875 31.3125 
Q 6.296875 37.9375 6.296875 49.421875 
Q 6.296875 60.640625 12.9375 67.421875 
Q 19.578125 74.21875 30.609375 74.21875 
Q 43.265625 74.21875 49.921875 64.515625 
Q 56.59375 54.828125 56.59375 36.375 
Q 56.59375 19.140625 48.40625 8.859375 
Q 40.234375 -1.421875 26.421875 -1.421875 
Q 22.703125 -1.421875 18.890625 -0.6875 
Q 15.09375 0.046875 10.984375 1.515625 
z
M 30.609375 32.421875 
Q 37.25 32.421875 41.125 36.953125 
Q 45.015625 41.5 45.015625 49.421875 
Q 45.015625 57.28125 41.125 61.84375 
Q 37.25 66.40625 30.609375 66.40625 
Q 23.96875 66.40625 20.09375 61.84375 
Q 16.21875 57.28125 16.21875 49.421875 
Q 16.21875 41.5 20.09375 36.953125 
Q 23.96875 32.421875 30.609375 32.421875 
z
" id="DejaVuSans-57"/>
        <path d="M 11.71875 12.40625 
L 22.015625 12.40625 
L 22.015625 0 
L 11.71875 0 
z
M 11.71875 51.703125 
L 22.015625 51.703125 
L 22.015625 39.3125 
L 11.71875 39.3125 
z
" id="DejaVuSans-58"/>
        <path d="M 19.1875 8.296875 
L 53.609375 8.296875 
L 53.609375 0 
L 7.328125 0 
L 7.328125 8.296875 
Q 12.9375 14.109375 22.625 23.890625 
Q 32.328125 33.6875 34.8125 36.53125 
Q 39.546875 41.84375 41.421875 45.53125 
Q 43.3125 49.21875 43.3125 52.78125 
Q 43.3125 58.59375 39.234375 62.25 
Q 35.15625 65.921875 28.609375 65.921875 
Q 23.96875 65.921875 18.8125 64.3125 
Q 13.671875 62.703125 7.8125 59.421875 
L 7.8125 69.390625 
Q 13.765625 71.78125 18.9375 73 
Q 24.125 74.21875 28.421875 74.21875 
Q 39.75 74.21875 46.484375 68.546875 
Q 53.21875 62.890625 53.21875 53.421875 
Q 53.21875 48.921875 51.53125 44.890625 
Q 49.859375 40.875 45.40625 35.40625 
Q 44.1875 33.984375 37.640625 27.21875 
Q 31.109375 20.453125 19.1875 8.296875 
z
" id="DejaVuSans-50"/>
        <path d="M 31.78125 34.625 
Q 24.75 34.625 20.71875 30.859375 
Q 16.703125 27.09375 16.703125 20.515625 
Q 16.703125 13.921875 20.71875 10.15625 
Q 24.75 6.390625 31.78125 6.390625 
Q 38.8125 6.390625 42.859375 10.171875 
Q 46.921875 13.96875 46.921875 20.515625 
Q 46.921875 27.09375 42.890625 30.859375 
Q 38.875 34.625 31.78125 34.625 
z
M 21.921875 38.8125 
Q 15.578125 40.375 12.03125 44.71875 
Q 8.5 49.078125 8.5 55.328125 
Q 8.5 64.0625 14.71875 69.140625 
Q 20.953125 74.21875 31.78125 74.21875 
Q 42.671875 74.21875 48.875 69.140625 
Q 55.078125 64.0625 55.078125 55.328125 
Q 55.078125 49.078125 51.53125 44.71875 
Q 48 40.375 41.703125 38.8125 
Q 48.828125 37.15625 52.796875 32.3125 
Q 56.78125 27.484375 56.78125 20.515625 
Q 56.78125 9.90625 50.3125 4.234375 
Q 43.84375 -1.421875 31.78125 -1.421875 
Q 19.734375 -1.421875 13.25 4.234375 
Q 6.78125 9.90625 6.78125 20.515625 
Q 6.78125 27.484375 10.78125 32.3125 
Q 14.796875 37.15625 21.921875 38.8125 
z
M 18.3125 54.390625 
Q 18.3125 48.734375 21.84375 45.5625 
Q 25.390625 42.390625 31.78125 42.390625 
Q 38.140625 42.390625 41.71875 45.5625 
Q 45.3125 48.734375 45.3125 54.390625 
Q 45.3125 60.0625 41.71875 63.234375 
Q 38.140625 66.40625 31.78125 66.40625 
Q 25.390625 66.40625 21.84375 63.234375 
Q 18.3125 60.0625 18.3125 54.390625 
z
" id="DejaVuSans-56"/>
        <path d="M 40.578125 39.3125 
Q 47.65625 37.796875 51.625 33 
Q 55.609375 28.21875 55.609375 21.1875 
Q 55.609375 10.40625 48.1875 4.484375 
Q 40.765625 -1.421875 27.09375 -1.421875 
Q 22.515625 -1.421875 17.65625 -0.515625 
Q 12.796875 0.390625 7.625 2.203125 
L 7.625 11.71875 
Q 11.71875 9.328125 16.59375 8.109375 
Q 21.484375 6.890625 26.8125 6.890625 
Q 36.078125 6.890625 40.9375 10.546875 
Q 45.796875 14.203125 45.796875 21.1875 
Q 45.796875 27.640625 41.28125 31.265625 
Q 36.765625 34.90625 28.71875 34.90625 
L 20.21875 34.90625 
L 20.21875 43.015625 
L 29.109375 43.015625 
Q 36.375 43.015625 40.234375 45.921875 
Q 44.09375 48.828125 44.09375 54.296875 
Q 44.09375 59.90625 40.109375 62.90625 
Q 36.140625 65.921875 28.71875 65.921875 
Q 24.65625 65.921875 20.015625 65.03125 
Q 15.375 64.15625 9.8125 62.3125 
L 9.8125 71.09375 
Q 15.4375 72.65625 20.34375 73.4375 
Q 25.25 74.21875 29.59375 74.21875 
Q 40.828125 74.21875 47.359375 69.109375 
Q 53.90625 64.015625 53.90625 55.328125 
Q 53.90625 49.265625 50.4375 45.09375 
Q 46.96875 40.921875 40.578125 39.3125 
z
" id="DejaVuSans-51"/>
       </defs>
       <use xlink:href="#DejaVuSans-49"/>
       <use x="63.623047" xlink:href="#DejaVuSans-57"/>
       <use x="127.246094" xlink:href="#DejaVuSans-58"/>
       <use x="160.9375" xlink:href="#DejaVuSans-50"/>
       <use x="224.560547" xlink:href="#DejaVuSans-56"/>
       <use x="288.183594" xlink:href="#DejaVuSans-58"/>
       <use x="321.875" xlink:href="#DejaVuSans-51"/>
       <use x="385.498047" xlink:href="#DejaVuSans-56"/>
      </g>
     </g>
    </g>
    <g id="xtick_2">
     <g id="line2d_2">
      <g>
       <use style="stroke:#000000;stroke-width:0.8;" x="156.421672" xlink:href="#m5ca9ee6d2f" y="448.56"/>
      </g>
     </g>
     <g id="text_2">
      <!-- 19:29:57 -->
      <g transform="translate(159.181047 500.4725)rotate(-90)scale(0.1 -0.1)">
       <defs>
        <path d="M 10.796875 72.90625 
L 49.515625 72.90625 
L 49.515625 64.59375 
L 19.828125 64.59375 
L 19.828125 46.734375 
Q 21.96875 47.46875 24.109375 47.828125 
Q 26.265625 48.1875 28.421875 48.1875 
Q 40.625 48.1875 47.75 41.5 
Q 54.890625 34.8125 54.890625 23.390625 
Q 54.890625 11.625 47.5625 5.09375 
Q 40.234375 -1.421875 26.90625 -1.421875 
Q 22.3125 -1.421875 17.546875 -0.640625 
Q 12.796875 0.140625 7.71875 1.703125 
L 7.71875 11.625 
Q 12.109375 9.234375 16.796875 8.0625 
Q 21.484375 6.890625 26.703125 6.890625 
Q 35.15625 6.890625 40.078125 11.328125 
Q 45.015625 15.765625 45.015625 23.390625 
Q 45.015625 31 40.078125 35.4375 
Q 35.15625 39.890625 26.703125 39.890625 
Q 22.75 39.890625 18.8125 39.015625 
Q 14.890625 38.140625 10.796875 36.28125 
z
" id="DejaVuSans-53"/>
        <path d="M 8.203125 72.90625 
L 55.078125 72.90625 
L 55.078125 68.703125 
L 28.609375 0 
L 18.3125 0 
L 43.21875 64.59375 
L 8.203125 64.59375 
z
" id="DejaVuSans-55"/>
       </defs>
       <use xlink:href="#DejaVuSans-49"/>
       <use x="63.623047" xlink:href="#DejaVuSans-57"/>
       <use x="127.246094" xlink:href="#DejaVuSans-58"/>
       <use x="160.9375" xlink:href="#DejaVuSans-50"/>
       <use x="224.560547" xlink:href="#DejaVuSans-57"/>
       <use x="288.183594" xlink:href="#DejaVuSans-58"/>
       <use x="321.875" xlink:href="#DejaVuSans-53"/>
       <use x="385.498047" xlink:href="#DejaVuSans-55"/>
      </g>
     </g>
    </g>
    <g id="xtick_3">
     <g id="line2d_3">
      <g>
       <use style="stroke:#000000;stroke-width:0.8;" x="180.494254" xlink:href="#m5ca9ee6d2f" y="448.56"/>
      </g>
     </g>
     <g id="text_3">
      <!-- 19:31:16 -->
      <g transform="translate(183.253629 500.4725)rotate(-90)scale(0.1 -0.1)">
       <defs>
        <path d="M 33.015625 40.375 
Q 26.375 40.375 22.484375 35.828125 
Q 18.609375 31.296875 18.609375 23.390625 
Q 18.609375 15.53125 22.484375 10.953125 
Q 26.375 6.390625 33.015625 6.390625 
Q 39.65625 6.390625 43.53125 10.953125 
Q 47.40625 15.53125 47.40625 23.390625 
Q 47.40625 31.296875 43.53125 35.828125 
Q 39.65625 40.375 33.015625 40.375 
z
M 52.59375 71.296875 
L 52.59375 62.3125 
Q 48.875 64.0625 45.09375 64.984375 
Q 41.3125 65.921875 37.59375 65.921875 
Q 27.828125 65.921875 22.671875 59.328125 
Q 17.53125 52.734375 16.796875 39.40625 
Q 19.671875 43.65625 24.015625 45.921875 
Q 28.375 48.1875 33.59375 48.1875 
Q 44.578125 48.1875 50.953125 41.515625 
Q 57.328125 34.859375 57.328125 23.390625 
Q 57.328125 12.15625 50.6875 5.359375 
Q 44.046875 -1.421875 33.015625 -1.421875 
Q 20.359375 -1.421875 13.671875 8.265625 
Q 6.984375 17.96875 6.984375 36.375 
Q 6.984375 53.65625 15.1875 63.9375 
Q 23.390625 74.21875 37.203125 74.21875 
Q 40.921875 74.21875 44.703125 73.484375 
Q 48.484375 72.75 52.59375 71.296875 
z
" id="DejaVuSans-54"/>
       </defs>
       <use xlink:href="#DejaVuSans-49"/>
       <use x="63.623047" xlink:href="#DejaVuSans-57"/>
       <use x="127.246094" xlink:href="#DejaVuSans-58"/>
       <use x="160.9375" xlink:href="#DejaVuSans-51"/>
       <use x="224.560547" xlink:href="#DejaVuSans-49"/>
       <use x="288.183594" xlink:href="#DejaVuSans-58"/>
       <use x="321.875" xlink:href="#DejaVuSans-49"/>
       <use x="385.498047" xlink:href="#DejaVuSans-54"/>
      </g>
     </g>
    </g>
    <g id="xtick_4">
     <g id="line2d_4">
      <g>
       <use style="stroke:#000000;stroke-width:0.8;" x="204.566835" xlink:href="#m5ca9ee6d2f" y="448.56"/>
      </g>
     </g>
     <g id="text_4">
      <!-- 19:32:36 -->
      <g transform="translate(207.32621 500.4725)rotate(-90)scale(0.1 -0.1)">
       <use xlink:href="#DejaVuSans-49"/>
       <use x="63.623047" xlink:href="#DejaVuSans-57"/>
       <use x="127.246094" xlink:href="#DejaVuSans-58"/>
       <use x="160.9375" xlink:href="#DejaVuSans-51"/>
       <use x="224.560547" xlink:href="#DejaVuSans-50"/>
       <use x="288.183594" xlink:href="#DejaVuSans-58"/>
       <use x="321.875" xlink:href="#DejaVuSans-51"/>
       <use x="385.498047" xlink:href="#DejaVuSans-54"/>
      </g>
     </g>
    </g>
    <g id="xtick_5">
     <g id="line2d_5">
      <g>
       <use style="stroke:#000000;stroke-width:0.8;" x="228.639417" xlink:href="#m5ca9ee6d2f" y="448.56"/>
      </g>
     </g>
     <g id="text_5">
      <!-- 19:33:55 -->
      <g transform="translate(231.398792 500.4725)rotate(-90)scale(0.1 -0.1)">
       <use xlink:href="#DejaVuSans-49"/>
       <use x="63.623047" xlink:href="#DejaVuSans-57"/>
       <use x="127.246094" xlink:href="#DejaVuSans-58"/>
       <use x="160.9375" xlink:href="#DejaVuSans-51"/>
       <use x="224.560547" xlink:href="#DejaVuSans-51"/>
       <use x="288.183594" xlink:href="#DejaVuSans-58"/>
       <use x="321.875" xlink:href="#DejaVuSans-53"/>
       <use x="385.498047" xlink:href="#DejaVuSans-53"/>
      </g>
     </g>
    </g>
    <g id="xtick_6">
     <g id="line2d_6">
      <g>
       <use style="stroke:#000000;stroke-width:0.8;" x="252.711999" xlink:href="#m5ca9ee6d2f" y="448.56"/>
      </g>
     </g>
     <g id="text_6">
      <!-- 19:35:15 -->
      <g transform="translate(255.471374 500.4725)rotate(-90)scale(0.1 -0.1)">
       <use xlink:href="#DejaVuSans-49"/>
       <use x="63.623047" xlink:href="#DejaVuSans-57"/>
       <use x="127.246094" xlink:href="#DejaVuSans-58"/>
       <use x="160.9375" xlink:href="#DejaVuSans-51"/>
       <use x="224.560547" xlink:href="#DejaVuSans-53"/>
       <use x="288.183594" xlink:href="#DejaVuSans-58"/>
       <use x="321.875" xlink:href="#DejaVuSans-49"/>
       <use x="385.498047" xlink:href="#DejaVuSans-53"/>
      </g>
     </g>
    </g>
    <g id="xtick_7">
     <g id="line2d_7">
      <g>
       <use style="stroke:#000000;stroke-width:0.8;" x="276.78458" xlink:href="#m5ca9ee6d2f" y="448.56"/>
      </g>
     </g>
     <g id="text_7">
      <!-- 19:36:35 -->
      <g transform="translate(279.543955 500.4725)rotate(-90)scale(0.1 -0.1)">
       <use xlink:href="#DejaVuSans-49"/>
       <use x="63.623047" xlink:href="#DejaVuSans-57"/>
       <use x="127.246094" xlink:href="#DejaVuSans-58"/>
       <use x="160.9375" xlink:href="#DejaVuSans-51"/>
       <use x="224.560547" xlink:href="#DejaVuSans-54"/>
       <use x="288.183594" xlink:href="#DejaVuSans-58"/>
       <use x="321.875" xlink:href="#DejaVuSans-51"/>
       <use x="385.498047" xlink:href="#DejaVuSans-53"/>
      </g>
     </g>
    </g>
    <g id="xtick_8">
     <g id="line2d_8">
      <g>
       <use style="stroke:#000000;stroke-width:0.8;" x="300.857162" xlink:href="#m5ca9ee6d2f" y="448.56"/>
      </g>
     </g>
     <g id="text_8">
      <!-- 19:37:54 -->
      <g transform="translate(303.616537 500.4725)rotate(-90)scale(0.1 -0.1)">
       <defs>
        <path d="M 37.796875 64.3125 
L 12.890625 25.390625 
L 37.796875 25.390625 
z
M 35.203125 72.90625 
L 47.609375 72.90625 
L 47.609375 25.390625 
L 58.015625 25.390625 
L 58.015625 17.1875 
L 47.609375 17.1875 
L 47.609375 0 
L 37.796875 0 
L 37.796875 17.1875 
L 4.890625 17.1875 
L 4.890625 26.703125 
z
" id="DejaVuSans-52"/>
       </defs>
       <use xlink:href="#DejaVuSans-49"/>
       <use x="63.623047" xlink:href="#DejaVuSans-57"/>
       <use x="127.246094" xlink:href="#DejaVuSans-58"/>
       <use x="160.9375" xlink:href="#DejaVuSans-51"/>
       <use x="224.560547" xlink:href="#DejaVuSans-55"/>
       <use x="288.183594" xlink:href="#DejaVuSans-58"/>
       <use x="321.875" xlink:href="#DejaVuSans-53"/>
       <use x="385.498047" xlink:href="#DejaVuSans-52"/>
      </g>
     </g>
    </g>
    <g id="xtick_9">
     <g id="line2d_9">
      <g>
       <use style="stroke:#000000;stroke-width:0.8;" x="324.929743" xlink:href="#m5ca9ee6d2f" y="448.56"/>
      </g>
     </g>
     <g id="text_9">
      <!-- 19:39:14 -->
      <g transform="translate(327.689118 500.4725)rotate(-90)scale(0.1 -0.1)">
       <use xlink:href="#DejaVuSans-49"/>
       <use x="63.623047" xlink:href="#DejaVuSans-57"/>
       <use x="127.246094" xlink:href="#DejaVuSans-58"/>
       <use x="160.9375" xlink:href="#DejaVuSans-51"/>
       <use x="224.560547" xlink:href="#DejaVuSans-57"/>
       <use x="288.183594" xlink:href="#DejaVuSans-58"/>
       <use x="321.875" xlink:href="#DejaVuSans-49"/>
       <use x="385.498047" xlink:href="#DejaVuSans-52"/>
      </g>
     </g>
    </g>
    <g id="xtick_10">
     <g id="line2d_10">
      <g>
       <use style="stroke:#000000;stroke-width:0.8;" x="349.002325" xlink:href="#m5ca9ee6d2f" y="448.56"/>
      </g>
     </g>
     <g id="text_10">
      <!-- 19:40:33 -->
      <g transform="translate(351.7617 500.4725)rotate(-90)scale(0.1 -0.1)">
       <defs>
        <path d="M 31.78125 66.40625 
Q 24.171875 66.40625 20.328125 58.90625 
Q 16.5 51.421875 16.5 36.375 
Q 16.5 21.390625 20.328125 13.890625 
Q 24.171875 6.390625 31.78125 6.390625 
Q 39.453125 6.390625 43.28125 13.890625 
Q 47.125 21.390625 47.125 36.375 
Q 47.125 51.421875 43.28125 58.90625 
Q 39.453125 66.40625 31.78125 66.40625 
z
M 31.78125 74.21875 
Q 44.046875 74.21875 50.515625 64.515625 
Q 56.984375 54.828125 56.984375 36.375 
Q 56.984375 17.96875 50.515625 8.265625 
Q 44.046875 -1.421875 31.78125 -1.421875 
Q 19.53125 -1.421875 13.0625 8.265625 
Q 6.59375 17.96875 6.59375 36.375 
Q 6.59375 54.828125 13.0625 64.515625 
Q 19.53125 74.21875 31.78125 74.21875 
z
" id="DejaVuSans-48"/>
       </defs>
       <use xlink:href="#DejaVuSans-49"/>
       <use x="63.623047" xlink:href="#DejaVuSans-57"/>
       <use x="127.246094" xlink:href="#DejaVuSans-58"/>
       <use x="160.9375" xlink:href="#DejaVuSans-52"/>
       <use x="224.560547" xlink:href="#DejaVuSans-48"/>
       <use x="288.183594" xlink:href="#DejaVuSans-58"/>
       <use x="321.875" xlink:href="#DejaVuSans-51"/>
       <use x="385.498047" xlink:href="#DejaVuSans-51"/>
      </g>
     </g>
    </g>
    <g id="xtick_11">
     <g id="line2d_11">
      <g>
       <use style="stroke:#000000;stroke-width:0.8;" x="373.074906" xlink:href="#m5ca9ee6d2f" y="448.56"/>
      </g>
     </g>
     <g id="text_11">
      <!-- 19:41:53 -->
      <g transform="translate(375.834281 500.4725)rotate(-90)scale(0.1 -0.1)">
       <use xlink:href="#DejaVuSans-49"/>
       <use x="63.623047" xlink:href="#DejaVuSans-57"/>
       <use x="127.246094" xlink:href="#DejaVuSans-58"/>
       <use x="160.9375" xlink:href="#DejaVuSans-52"/>
       <use x="224.560547" xlink:href="#DejaVuSans-49"/>
       <use x="288.183594" xlink:href="#DejaVuSans-58"/>
       <use x="321.875" xlink:href="#DejaVuSans-53"/>
       <use x="385.498047" xlink:href="#DejaVuSans-51"/>
      </g>
     </g>
    </g>
    <g id="xtick_12">
     <g id="line2d_12">
      <g>
       <use style="stroke:#000000;stroke-width:0.8;" x="397.147488" xlink:href="#m5ca9ee6d2f" y="448.56"/>
      </g>
     </g>
     <g id="text_12">
      <!-- 19:43:12 -->
      <g transform="translate(399.906863 500.4725)rotate(-90)scale(0.1 -0.1)">
       <use xlink:href="#DejaVuSans-49"/>
       <use x="63.623047" xlink:href="#DejaVuSans-57"/>
       <use x="127.246094" xlink:href="#DejaVuSans-58"/>
       <use x="160.9375" xlink:href="#DejaVuSans-52"/>
       <use x="224.560547" xlink:href="#DejaVuSans-51"/>
       <use x="288.183594" xlink:href="#DejaVuSans-58"/>
       <use x="321.875" xlink:href="#DejaVuSans-49"/>
       <use x="385.498047" xlink:href="#DejaVuSans-50"/>
      </g>
     </g>
    </g>
    <g id="xtick_13">
     <g id="line2d_13">
      <g>
       <use style="stroke:#000000;stroke-width:0.8;" x="421.220069" xlink:href="#m5ca9ee6d2f" y="448.56"/>
      </g>
     </g>
     <g id="text_13">
      <!-- 19:44:32 -->
      <g transform="translate(423.979444 500.4725)rotate(-90)scale(0.1 -0.1)">
       <use xlink:href="#DejaVuSans-49"/>
       <use x="63.623047" xlink:href="#DejaVuSans-57"/>
       <use x="127.246094" xlink:href="#DejaVuSans-58"/>
       <use x="160.9375" xlink:href="#DejaVuSans-52"/>
       <use x="224.560547" xlink:href="#DejaVuSans-52"/>
       <use x="288.183594" xlink:href="#DejaVuSans-58"/>
       <use x="321.875" xlink:href="#DejaVuSans-51"/>
       <use x="385.498047" xlink:href="#DejaVuSans-50"/>
      </g>
     </g>
    </g>
    <g id="xtick_14">
     <g id="line2d_14">
      <g>
       <use style="stroke:#000000;stroke-width:0.8;" x="445.292651" xlink:href="#m5ca9ee6d2f" y="448.56"/>
      </g>
     </g>
     <g id="text_14">
      <!-- 19:45:51 -->
      <g transform="translate(448.052026 500.4725)rotate(-90)scale(0.1 -0.1)">
       <use xlink:href="#DejaVuSans-49"/>
       <use x="63.623047" xlink:href="#DejaVuSans-57"/>
       <use x="127.246094" xlink:href="#DejaVuSans-58"/>
       <use x="160.9375" xlink:href="#DejaVuSans-52"/>
       <use x="224.560547" xlink:href="#DejaVuSans-53"/>
       <use x="288.183594" xlink:href="#DejaVuSans-58"/>
       <use x="321.875" xlink:href="#DejaVuSans-53"/>
       <use x="385.498047" xlink:href="#DejaVuSans-49"/>
      </g>
     </g>
    </g>
    <g id="xtick_15">
     <g id="line2d_15">
      <g>
       <use style="stroke:#000000;stroke-width:0.8;" x="469.365232" xlink:href="#m5ca9ee6d2f" y="448.56"/>
      </g>
     </g>
     <g id="text_15">
      <!-- 19:47:10 -->
      <g transform="translate(472.124607 500.4725)rotate(-90)scale(0.1 -0.1)">
       <use xlink:href="#DejaVuSans-49"/>
       <use x="63.623047" xlink:href="#DejaVuSans-57"/>
       <use x="127.246094" xlink:href="#DejaVuSans-58"/>
       <use x="160.9375" xlink:href="#DejaVuSans-52"/>
       <use x="224.560547" xlink:href="#DejaVuSans-55"/>
       <use x="288.183594" xlink:href="#DejaVuSans-58"/>
       <use x="321.875" xlink:href="#DejaVuSans-49"/>
       <use x="385.498047" xlink:href="#DejaVuSans-48"/>
      </g>
     </g>
    </g>
    <g id="xtick_16">
     <g id="line2d_16">
      <g>
       <use style="stroke:#000000;stroke-width:0.8;" x="493.437814" xlink:href="#m5ca9ee6d2f" y="448.56"/>
      </g>
     </g>
     <g id="text_16">
      <!-- 19:48:29 -->
      <g transform="translate(496.197189 500.4725)rotate(-90)scale(0.1 -0.1)">
       <use xlink:href="#DejaVuSans-49"/>
       <use x="63.623047" xlink:href="#DejaVuSans-57"/>
       <use x="127.246094" xlink:href="#DejaVuSans-58"/>
       <use x="160.9375" xlink:href="#DejaVuSans-52"/>
       <use x="224.560547" xlink:href="#DejaVuSans-56"/>
       <use x="288.183594" xlink:href="#DejaVuSans-58"/>
       <use x="321.875" xlink:href="#DejaVuSans-50"/>
       <use x="385.498047" xlink:href="#DejaVuSans-57"/>
      </g>
     </g>
    </g>
    <g id="xtick_17">
     <g id="line2d_17">
      <g>
       <use style="stroke:#000000;stroke-width:0.8;" x="517.510395" xlink:href="#m5ca9ee6d2f" y="448.56"/>
      </g>
     </g>
     <g id="text_17">
      <!-- 19:49:49 -->
      <g transform="translate(520.26977 500.4725)rotate(-90)scale(0.1 -0.1)">
       <use xlink:href="#DejaVuSans-49"/>
       <use x="63.623047" xlink:href="#DejaVuSans-57"/>
       <use x="127.246094" xlink:href="#DejaVuSans-58"/>
       <use x="160.9375" xlink:href="#DejaVuSans-52"/>
       <use x="224.560547" xlink:href="#DejaVuSans-57"/>
       <use x="288.183594" xlink:href="#DejaVuSans-58"/>
       <use x="321.875" xlink:href="#DejaVuSans-52"/>
       <use x="385.498047" xlink:href="#DejaVuSans-57"/>
      </g>
     </g>
    </g>
    <g id="xtick_18">
     <g id="line2d_18">
      <g>
       <use style="stroke:#000000;stroke-width:0.8;" x="541.582977" xlink:href="#m5ca9ee6d2f" y="448.56"/>
      </g>
     </g>
     <g id="text_18">
      <!-- 19:51:09 -->
      <g transform="translate(544.342352 500.4725)rotate(-90)scale(0.1 -0.1)">
       <use xlink:href="#DejaVuSans-49"/>
       <use x="63.623047" xlink:href="#DejaVuSans-57"/>
       <use x="127.246094" xlink:href="#DejaVuSans-58"/>
       <use x="160.9375" xlink:href="#DejaVuSans-53"/>
       <use x="224.560547" xlink:href="#DejaVuSans-49"/>
       <use x="288.183594" xlink:href="#DejaVuSans-58"/>
       <use x="321.875" xlink:href="#DejaVuSans-48"/>
       <use x="385.498047" xlink:href="#DejaVuSans-57"/>
      </g>
     </g>
    </g>
    <g id="xtick_19">
     <g id="line2d_19">
      <g>
       <use style="stroke:#000000;stroke-width:0.8;" x="565.655558" xlink:href="#m5ca9ee6d2f" y="448.56"/>
      </g>
     </g>
     <g id="text_19">
      <!-- 19:52:29 -->
      <g transform="translate(568.414933 500.4725)rotate(-90)scale(0.1 -0.1)">
       <use xlink:href="#DejaVuSans-49"/>
       <use x="63.623047" xlink:href="#DejaVuSans-57"/>
       <use x="127.246094" xlink:href="#DejaVuSans-58"/>
       <use x="160.9375" xlink:href="#DejaVuSans-53"/>
       <use x="224.560547" xlink:href="#DejaVuSans-50"/>
       <use x="288.183594" xlink:href="#DejaVuSans-58"/>
       <use x="321.875" xlink:href="#DejaVuSans-50"/>
       <use x="385.498047" xlink:href="#DejaVuSans-57"/>
      </g>
     </g>
    </g>
    <g id="xtick_20">
     <g id="line2d_20">
      <g>
       <use style="stroke:#000000;stroke-width:0.8;" x="589.72814" xlink:href="#m5ca9ee6d2f" y="448.56"/>
      </g>
     </g>
     <g id="text_20">
      <!-- 19:53:48 -->
      <g transform="translate(592.487515 500.4725)rotate(-90)scale(0.1 -0.1)">
       <use xlink:href="#DejaVuSans-49"/>
       <use x="63.623047" xlink:href="#DejaVuSans-57"/>
       <use x="127.246094" xlink:href="#DejaVuSans-58"/>
       <use x="160.9375" xlink:href="#DejaVuSans-53"/>
       <use x="224.560547" xlink:href="#DejaVuSans-51"/>
       <use x="288.183594" xlink:href="#DejaVuSans-58"/>
       <use x="321.875" xlink:href="#DejaVuSans-52"/>
       <use x="385.498047" xlink:href="#DejaVuSans-56"/>
      </g>
     </g>
    </g>
    <g id="xtick_21">
     <g id="line2d_21">
      <g>
       <use style="stroke:#000000;stroke-width:0.8;" x="613.800721" xlink:href="#m5ca9ee6d2f" y="448.56"/>
      </g>
     </g>
     <g id="text_21">
      <!-- 19:55:08 -->
      <g transform="translate(616.560096 500.4725)rotate(-90)scale(0.1 -0.1)">
       <use xlink:href="#DejaVuSans-49"/>
       <use x="63.623047" xlink:href="#DejaVuSans-57"/>
       <use x="127.246094" xlink:href="#DejaVuSans-58"/>
       <use x="160.9375" xlink:href="#DejaVuSans-53"/>
       <use x="224.560547" xlink:href="#DejaVuSans-53"/>
       <use x="288.183594" xlink:href="#DejaVuSans-58"/>
       <use x="321.875" xlink:href="#DejaVuSans-48"/>
       <use x="385.498047" xlink:href="#DejaVuSans-56"/>
      </g>
     </g>
    </g>
    <g id="text_22">
     <!-- timestamp -->
     <g transform="translate(354.264375 510.55125)scale(0.08 -0.08)">
      <defs>
       <path d="M 18.3125 70.21875 
L 18.3125 54.6875 
L 36.8125 54.6875 
L 36.8125 47.703125 
L 18.3125 47.703125 
L 18.3125 18.015625 
Q 18.3125 11.328125 20.140625 9.421875 
Q 21.96875 7.515625 27.59375 7.515625 
L 36.8125 7.515625 
L 36.8125 0 
L 27.59375 0 
Q 17.1875 0 13.234375 3.875 
Q 9.28125 7.765625 9.28125 18.015625 
L 9.28125 47.703125 
L 2.6875 47.703125 
L 2.6875 54.6875 
L 9.28125 54.6875 
L 9.28125 70.21875 
z
" id="DejaVuSans-116"/>
       <path d="M 9.421875 54.6875 
L 18.40625 54.6875 
L 18.40625 0 
L 9.421875 0 
z
M 9.421875 75.984375 
L 18.40625 75.984375 
L 18.40625 64.59375 
L 9.421875 64.59375 
z
" id="DejaVuSans-105"/>
       <path d="M 52 44.1875 
Q 55.375 50.25 60.0625 53.125 
Q 64.75 56 71.09375 56 
Q 79.640625 56 84.28125 50.015625 
Q 88.921875 44.046875 88.921875 33.015625 
L 88.921875 0 
L 79.890625 0 
L 79.890625 32.71875 
Q 79.890625 40.578125 77.09375 44.375 
Q 74.3125 48.1875 68.609375 48.1875 
Q 61.625 48.1875 57.5625 43.546875 
Q 53.515625 38.921875 53.515625 30.90625 
L 53.515625 0 
L 44.484375 0 
L 44.484375 32.71875 
Q 44.484375 40.625 41.703125 44.40625 
Q 38.921875 48.1875 33.109375 48.1875 
Q 26.21875 48.1875 22.15625 43.53125 
Q 18.109375 38.875 18.109375 30.90625 
L 18.109375 0 
L 9.078125 0 
L 9.078125 54.6875 
L 18.109375 54.6875 
L 18.109375 46.1875 
Q 21.1875 51.21875 25.484375 53.609375 
Q 29.78125 56 35.6875 56 
Q 41.65625 56 45.828125 52.96875 
Q 50 49.953125 52 44.1875 
z
" id="DejaVuSans-109"/>
       <path d="M 56.203125 29.59375 
L 56.203125 25.203125 
L 14.890625 25.203125 
Q 15.484375 15.921875 20.484375 11.0625 
Q 25.484375 6.203125 34.421875 6.203125 
Q 39.59375 6.203125 44.453125 7.46875 
Q 49.3125 8.734375 54.109375 11.28125 
L 54.109375 2.78125 
Q 49.265625 0.734375 44.1875 -0.34375 
Q 39.109375 -1.421875 33.890625 -1.421875 
Q 20.796875 -1.421875 13.15625 6.1875 
Q 5.515625 13.8125 5.515625 26.8125 
Q 5.515625 40.234375 12.765625 48.109375 
Q 20.015625 56 32.328125 56 
Q 43.359375 56 49.78125 48.890625 
Q 56.203125 41.796875 56.203125 29.59375 
z
M 47.21875 32.234375 
Q 47.125 39.59375 43.09375 43.984375 
Q 39.0625 48.390625 32.421875 48.390625 
Q 24.90625 48.390625 20.390625 44.140625 
Q 15.875 39.890625 15.1875 32.171875 
z
" id="DejaVuSans-101"/>
       <path d="M 44.28125 53.078125 
L 44.28125 44.578125 
Q 40.484375 46.53125 36.375 47.5 
Q 32.28125 48.484375 27.875 48.484375 
Q 21.1875 48.484375 17.84375 46.4375 
Q 14.5 44.390625 14.5 40.28125 
Q 14.5 37.15625 16.890625 35.375 
Q 19.28125 33.59375 26.515625 31.984375 
L 29.59375 31.296875 
Q 39.15625 29.25 43.1875 25.515625 
Q 47.21875 21.78125 47.21875 15.09375 
Q 47.21875 7.46875 41.1875 3.015625 
Q 35.15625 -1.421875 24.609375 -1.421875 
Q 20.21875 -1.421875 15.453125 -0.5625 
Q 10.6875 0.296875 5.421875 2 
L 5.421875 11.28125 
Q 10.40625 8.6875 15.234375 7.390625 
Q 20.0625 6.109375 24.8125 6.109375 
Q 31.15625 6.109375 34.5625 8.28125 
Q 37.984375 10.453125 37.984375 14.40625 
Q 37.984375 18.0625 35.515625 20.015625 
Q 33.0625 21.96875 24.703125 23.78125 
L 21.578125 24.515625 
Q 13.234375 26.265625 9.515625 29.90625 
Q 5.8125 33.546875 5.8125 39.890625 
Q 5.8125 47.609375 11.28125 51.796875 
Q 16.75 56 26.8125 56 
Q 31.78125 56 36.171875 55.265625 
Q 40.578125 54.546875 44.28125 53.078125 
z
" id="DejaVuSans-115"/>
       <path d="M 34.28125 27.484375 
Q 23.390625 27.484375 19.1875 25 
Q 14.984375 22.515625 14.984375 16.5 
Q 14.984375 11.71875 18.140625 8.90625 
Q 21.296875 6.109375 26.703125 6.109375 
Q 34.1875 6.109375 38.703125 11.40625 
Q 43.21875 16.703125 43.21875 25.484375 
L 43.21875 27.484375 
z
M 52.203125 31.203125 
L 52.203125 0 
L 43.21875 0 
L 43.21875 8.296875 
Q 40.140625 3.328125 35.546875 0.953125 
Q 30.953125 -1.421875 24.3125 -1.421875 
Q 15.921875 -1.421875 10.953125 3.296875 
Q 6 8.015625 6 15.921875 
Q 6 25.140625 12.171875 29.828125 
Q 18.359375 34.515625 30.609375 34.515625 
L 43.21875 34.515625 
L 43.21875 35.40625 
Q 43.21875 41.609375 39.140625 45 
Q 35.0625 48.390625 27.6875 48.390625 
Q 23 48.390625 18.546875 47.265625 
Q 14.109375 46.140625 10.015625 43.890625 
L 10.015625 52.203125 
Q 14.9375 54.109375 19.578125 55.046875 
Q 24.21875 56 28.609375 56 
Q 40.484375 56 46.34375 49.84375 
Q 52.203125 43.703125 52.203125 31.203125 
z
" id="DejaVuSans-97"/>
       <path d="M 18.109375 8.203125 
L 18.109375 -20.796875 
L 9.078125 -20.796875 
L 9.078125 54.6875 
L 18.109375 54.6875 
L 18.109375 46.390625 
Q 20.953125 51.265625 25.265625 53.625 
Q 29.59375 56 35.59375 56 
Q 45.5625 56 51.78125 48.09375 
Q 58.015625 40.1875 58.015625 27.296875 
Q 58.015625 14.40625 51.78125 6.484375 
Q 45.5625 -1.421875 35.59375 -1.421875 
Q 29.59375 -1.421875 25.265625 0.953125 
Q 20.953125 3.328125 18.109375 8.203125 
z
M 48.6875 27.296875 
Q 48.6875 37.203125 44.609375 42.84375 
Q 40.53125 48.484375 33.40625 48.484375 
Q 26.265625 48.484375 22.1875 42.84375 
Q 18.109375 37.203125 18.109375 27.296875 
Q 18.109375 17.390625 22.1875 11.75 
Q 26.265625 6.109375 33.40625 6.109375 
Q 40.53125 6.109375 44.609375 11.75 
Q 48.6875 17.390625 48.6875 27.296875 
z
" id="DejaVuSans-112"/>
      </defs>
      <use xlink:href="#DejaVuSans-116"/>
      <use x="39.208984" xlink:href="#DejaVuSans-105"/>
      <use x="66.992188" xlink:href="#DejaVuSans-109"/>
      <use x="164.404297" xlink:href="#DejaVuSans-101"/>
      <use x="225.927734" xlink:href="#DejaVuSans-115"/>
      <use x="278.027344" xlink:href="#DejaVuSans-116"/>
      <use x="317.236328" xlink:href="#DejaVuSans-97"/>
      <use x="378.515625" xlink:href="#DejaVuSans-109"/>
      <use x="475.927734" xlink:href="#DejaVuSans-112"/>
     </g>
    </g>
   </g>
   <g id="matplotlib.axis_2">
    <g id="ytick_1">
     <g id="line2d_22">
      <defs>
       <path d="M 0 0 
L -3.5 0 
" id="m2e4f69f098" style="stroke:#000000;stroke-width:0.8;"/>
      </defs>
      <g>
       <use style="stroke:#000000;stroke-width:0.8;" x="108" xlink:href="#m2e4f69f098" y="427.642492"/>
      </g>
     </g>
     <g id="text_23">
      <!-- 14460 -->
      <g transform="translate(69.1875 431.441711)scale(0.1 -0.1)">
       <use xlink:href="#DejaVuSans-49"/>
       <use x="63.623047" xlink:href="#DejaVuSans-52"/>
       <use x="127.246094" xlink:href="#DejaVuSans-52"/>
       <use x="190.869141" xlink:href="#DejaVuSans-54"/>
       <use x="254.492188" xlink:href="#DejaVuSans-48"/>
      </g>
     </g>
    </g>
    <g id="ytick_2">
     <g id="line2d_23">
      <g>
       <use style="stroke:#000000;stroke-width:0.8;" x="108" xlink:href="#m2e4f69f098" y="361.358439"/>
      </g>
     </g>
     <g id="text_24">
      <!-- 14480 -->
      <g transform="translate(69.1875 365.157658)scale(0.1 -0.1)">
       <use xlink:href="#DejaVuSans-49"/>
       <use x="63.623047" xlink:href="#DejaVuSans-52"/>
       <use x="127.246094" xlink:href="#DejaVuSans-52"/>
       <use x="190.869141" xlink:href="#DejaVuSans-56"/>
       <use x="254.492188" xlink:href="#DejaVuSans-48"/>
      </g>
     </g>
    </g>
    <g id="ytick_3">
     <g id="line2d_24">
      <g>
       <use style="stroke:#000000;stroke-width:0.8;" x="108" xlink:href="#m2e4f69f098" y="295.074386"/>
      </g>
     </g>
     <g id="text_25">
      <!-- 14500 -->
      <g transform="translate(69.1875 298.873605)scale(0.1 -0.1)">
       <use xlink:href="#DejaVuSans-49"/>
       <use x="63.623047" xlink:href="#DejaVuSans-52"/>
       <use x="127.246094" xlink:href="#DejaVuSans-53"/>
       <use x="190.869141" xlink:href="#DejaVuSans-48"/>
       <use x="254.492188" xlink:href="#DejaVuSans-48"/>
      </g>
     </g>
    </g>
    <g id="ytick_4">
     <g id="line2d_25">
      <g>
       <use style="stroke:#000000;stroke-width:0.8;" x="108" xlink:href="#m2e4f69f098" y="228.790334"/>
      </g>
     </g>
     <g id="text_26">
      <!-- 14520 -->
      <g transform="translate(69.1875 232.589552)scale(0.1 -0.1)">
       <use xlink:href="#DejaVuSans-49"/>
       <use x="63.623047" xlink:href="#DejaVuSans-52"/>
       <use x="127.246094" xlink:href="#DejaVuSans-53"/>
       <use x="190.869141" xlink:href="#DejaVuSans-50"/>
       <use x="254.492188" xlink:href="#DejaVuSans-48"/>
      </g>
     </g>
    </g>
    <g id="ytick_5">
     <g id="line2d_26">
      <g>
       <use style="stroke:#000000;stroke-width:0.8;" x="108" xlink:href="#m2e4f69f098" y="162.506281"/>
      </g>
     </g>
     <g id="text_27">
      <!-- 14540 -->
      <g transform="translate(69.1875 166.305499)scale(0.1 -0.1)">
       <use xlink:href="#DejaVuSans-49"/>
       <use x="63.623047" xlink:href="#DejaVuSans-52"/>
       <use x="127.246094" xlink:href="#DejaVuSans-53"/>
       <use x="190.869141" xlink:href="#DejaVuSans-52"/>
       <use x="254.492188" xlink:href="#DejaVuSans-48"/>
      </g>
     </g>
    </g>
    <g id="ytick_6">
     <g id="line2d_27">
      <g>
       <use style="stroke:#000000;stroke-width:0.8;" x="108" xlink:href="#m2e4f69f098" y="96.222228"/>
      </g>
     </g>
     <g id="text_28">
      <!-- 14560 -->
      <g transform="translate(69.1875 100.021447)scale(0.1 -0.1)">
       <use xlink:href="#DejaVuSans-49"/>
       <use x="63.623047" xlink:href="#DejaVuSans-52"/>
       <use x="127.246094" xlink:href="#DejaVuSans-53"/>
       <use x="190.869141" xlink:href="#DejaVuSans-54"/>
       <use x="254.492188" xlink:href="#DejaVuSans-48"/>
      </g>
     </g>
    </g>
    <g id="text_29">
     <!-- MB -->
     <g transform="translate(63.52375 260.715625)rotate(-90)scale(0.08 -0.08)">
      <defs>
       <path d="M 9.8125 72.90625 
L 24.515625 72.90625 
L 43.109375 23.296875 
L 61.8125 72.90625 
L 76.515625 72.90625 
L 76.515625 0 
L 66.890625 0 
L 66.890625 64.015625 
L 48.09375 14.015625 
L 38.1875 14.015625 
L 19.390625 64.015625 
L 19.390625 0 
L 9.8125 0 
z
" id="DejaVuSans-77"/>
       <path d="M 19.671875 34.8125 
L 19.671875 8.109375 
L 35.5 8.109375 
Q 43.453125 8.109375 47.28125 11.40625 
Q 51.125 14.703125 51.125 21.484375 
Q 51.125 28.328125 47.28125 31.5625 
Q 43.453125 34.8125 35.5 34.8125 
z
M 19.671875 64.796875 
L 19.671875 42.828125 
L 34.28125 42.828125 
Q 41.5 42.828125 45.03125 45.53125 
Q 48.578125 48.25 48.578125 53.8125 
Q 48.578125 59.328125 45.03125 62.0625 
Q 41.5 64.796875 34.28125 64.796875 
z
M 9.8125 72.90625 
L 35.015625 72.90625 
Q 46.296875 72.90625 52.390625 68.21875 
Q 58.5 63.53125 58.5 54.890625 
Q 58.5 48.1875 55.375 44.234375 
Q 52.25 40.28125 46.1875 39.3125 
Q 53.46875 37.75 57.5 32.78125 
Q 61.53125 27.828125 61.53125 20.40625 
Q 61.53125 10.640625 54.890625 5.3125 
Q 48.25 0 35.984375 0 
L 9.8125 0 
z
" id="DejaVuSans-66"/>
      </defs>
      <use xlink:href="#DejaVuSans-77"/>
      <use x="86.279297" xlink:href="#DejaVuSans-66"/>
     </g>
    </g>
   </g>
   <g id="line2d_28">
    <path clip-path="url(#p1d44e30bcf)" d="M 132.349091 108.622967 
L 132.674396 87.350982 
L 132.999701 81.174369 
L 133.325006 101.78118 
L 133.650312 107.482669 
L 133.975617 104.767674 
L 134.300922 108.473642 
L 134.626227 95.360217 
L 135.276837 107.713443 
L 135.927448 89.821628 
L 136.578058 78.12 
L 136.903363 88.59988 
L 137.228668 95.061568 
L 137.553973 94.545719 
L 138.529889 124.722886 
L 138.855194 119.510096 
L 139.505804 139.125933 
L 139.831109 144.026499 
L 140.156415 145.96772 
L 140.48172 143.5378 
L 141.13233 140.904255 
L 141.457635 147.026568 
L 141.78294 150.759686 
L 142.108246 151.750659 
L 142.433551 149.565088 
L 142.758856 149.877313 
L 143.084161 149.483638 
L 143.409466 147.868217 
L 143.734771 151.465585 
L 144.060077 152.673757 
L 144.385382 158.415971 
L 144.710687 152.347958 
L 145.361297 156.148951 
L 145.686602 152.904532 
L 146.011907 154.723578 
L 146.337213 155.320877 
L 146.662518 151.194085 
L 146.987823 150.013062 
L 147.313128 149.727988 
L 147.638433 155.768851 
L 147.963738 153.93623 
L 148.289044 154.01768 
L 148.614349 157.479298 
L 149.264959 161.60609 
L 149.590264 155.443052 
L 149.915569 157.343548 
L 150.240874 153.596856 
L 150.56618 164.239635 
L 150.891485 154.601404 
L 151.21679 152.755207 
L 151.542095 147.759617 
L 151.8674 154.832178 
L 152.192705 155.850301 
L 152.518011 155.348027 
L 152.843316 148.47909 
L 153.493926 161.999765 
L 154.144536 152.755207 
L 154.469842 159.990668 
L 154.795147 152.768782 
L 155.120452 137.605536 
L 155.771062 128.130204 
L 156.096367 130.682299 
L 156.421672 129.311227 
L 156.746978 139.831832 
L 157.072283 141.243629 
L 157.397588 140.456281 
L 157.722893 138.922309 
L 158.048198 138.881584 
L 158.373503 142.370352 
L 158.698809 137.809161 
L 159.024114 141.230054 
L 159.349419 141.067155 
L 159.674724 150.610361 
L 160.000029 147.691742 
L 160.325334 139.397433 
L 160.650639 138.840859 
L 160.975945 141.542279 
L 161.30125 149.537938 
L 161.95186 137.171137 
L 162.277165 137.727711 
L 162.60247 135.474265 
L 162.927776 143.34775 
L 163.253081 146.646469 
L 163.578386 140.741355 
L 163.903691 181.398402 
L 164.228996 179.91873 
L 164.554301 180.665354 
L 164.879606 183.217449 
L 165.204912 149.727988 
L 165.530217 146.388544 
L 165.855522 151.23481 
L 166.180827 151.031186 
L 166.506132 144.623798 
L 166.831437 145.804821 
L 167.482048 195.950775 
L 167.807353 190.833009 
L 168.132658 201.720139 
L 168.457963 204.693058 
L 168.783268 203.960009 
L 169.108574 170.850648 
L 169.433879 163.981711 
L 169.759184 159.596994 
L 170.409794 166.045107 
L 170.735099 159.773469 
L 171.060404 159.732744 
L 171.38571 149.266439 
L 172.03632 159.746319 
L 172.361625 157.859397 
L 172.68693 157.615048 
L 173.012235 165.502108 
L 173.337541 152.375108 
L 173.662846 154.967928 
L 173.988151 159.501969 
L 174.313456 151.248385 
L 174.638761 164.52471 
L 174.964066 170.212624 
L 175.289371 164.714759 
L 175.939982 162.352714 
L 176.265287 171.217172 
L 176.590592 170.742048 
L 176.915897 160.927342 
L 177.241202 157.777948 
L 178.217118 171.963795 
L 178.542423 171.570121 
L 178.867728 163.397987 
L 179.193033 168.189953 
L 179.518338 167.796278 
L 179.843644 163.004313 
L 180.168949 169.167351 
L 180.494254 166.81888 
L 180.819559 167.497629 
L 181.144864 171.868771 
L 181.470169 170.307649 
L 182.12078 161.076666 
L 182.446085 168.434302 
L 182.77139 166.289456 
L 183.096695 167.131105 
L 183.422 169.140201 
L 183.747306 161.945465 
L 184.072611 170.579148 
L 184.397916 169.669625 
L 185.048526 176.063438 
L 185.373831 183.135999 
L 185.699136 174.909565 
L 186.024442 173.185543 
L 186.349747 167.687679 
L 186.675052 175.438989 
L 187.000357 172.19457 
L 187.325662 173.429893 
L 187.650967 170.144749 
L 187.976273 169.3574 
L 188.626883 175.859813 
L 188.952188 168.882276 
L 189.277493 174.027192 
L 189.602798 172.371045 
L 189.928103 181.113328 
L 190.253409 175.262514 
L 190.578714 173.131243 
L 190.904019 168.719377 
L 191.229324 162.366289 
L 191.879934 172.208145 
L 192.20524 168.936576 
L 192.530545 173.036218 
L 192.85585 172.208145 
L 193.181155 172.561094 
L 193.50646 166.520231 
L 193.831765 180.366704 
L 194.157071 184.425622 
L 194.482376 180.339554 
L 194.807681 170.348374 
L 195.132986 166.778155 
L 195.458291 173.470618 
L 195.783596 175.05889 
L 196.108901 182.063576 
L 196.434207 169.031601 
L 196.759512 168.502177 
L 197.084817 172.832594 
L 197.410122 158.334522 
L 198.386038 143.5921 
L 198.711343 141.908803 
L 199.036648 147.257343 
L 199.361953 149.252864 
L 199.687258 146.402119 
L 200.012563 139.954007 
L 200.337868 137.048962 
L 200.663174 147.393092 
L 201.313784 150.203112 
L 201.639089 146.26637 
L 201.964394 152.605882 
L 202.289699 155.266577 
L 202.615005 154.587829 
L 202.94031 150.094512 
L 203.265615 150.284562 
L 203.59092 150.963311 
L 203.916225 143.687125 
L 204.24153 140.64633 
L 204.566835 141.990253 
L 204.892141 142.533252 
L 205.217446 153.732605 
L 205.542751 154.574254 
L 205.868056 141.773053 
L 206.193361 142.411077 
L 206.518666 155.673827 
L 206.843972 158.239497 
L 207.169277 157.655773 
L 207.819887 145.139647 
L 208.145192 157.329973 
L 208.470497 156.31185 
L 208.795803 164.47041 
L 209.121108 161.307441 
L 209.446413 146.782219 
L 209.771718 148.66914 
L 210.097023 149.184989 
L 210.422328 148.085416 
L 210.747633 157.058474 
L 211.072939 150.257412 
L 211.398244 156.5019 
L 211.723549 156.135376 
L 212.048854 153.067432 
L 212.699464 164.158185 
L 213.350075 155.157978 
L 213.67538 157.153499 
L 214.000685 161.321016 
L 214.32599 168.081353 
L 214.651295 163.533737 
L 214.9766 153.162456 
L 215.301906 159.868494 
L 215.627211 162.162664 
L 215.952516 173.552067 
L 216.603126 154.234879 
L 216.928431 155.850301 
L 217.253737 162.379864 
L 217.904347 165.122009 
L 218.229652 155.972476 
L 218.554957 154.329904 
L 219.205567 164.687609 
L 219.530873 161.565365 
L 219.856178 166.262306 
L 220.181483 164.30751 
L 220.506788 166.73743 
L 220.832093 153.82763 
L 221.157398 163.221512 
L 221.482704 162.868563 
L 221.808009 163.818811 
L 222.133314 161.68754 
L 222.458619 162.556338 
L 222.783924 162.203389 
L 223.109229 164.049586 
L 223.434535 171.97737 
L 223.75984 163.072187 
L 224.41045 167.986328 
L 224.735755 165.176308 
L 225.06106 165.963657 
L 225.386365 164.022436 
L 225.711671 166.995355 
L 226.036976 168.013478 
L 226.362281 173.674242 
L 226.687586 163.818811 
L 227.012891 168.189953 
L 227.338196 165.149158 
L 227.663502 160.425068 
L 228.314112 165.963657 
L 228.639417 165.040559 
L 228.964722 165.719307 
L 229.290027 169.398125 
L 229.615332 171.366497 
L 229.940638 167.850578 
L 230.265943 165.868632 
L 230.591248 166.072257 
L 230.916553 176.959386 
L 231.241858 170.972822 
L 231.567163 174.081491 
L 232.217774 172.574669 
L 232.543079 179.335006 
L 232.868384 175.438989 
L 233.193689 167.538354 
L 233.518994 166.995355 
L 233.8443 168.067778 
L 234.169605 171.692296 
L 234.49491 167.796278 
L 234.820215 168.936576 
L 235.14552 172.153845 
L 235.470825 172.24887 
L 235.79613 178.031809 
L 236.121436 177.855334 
L 236.446741 168.583627 
L 236.772046 167.185405 
L 237.422656 178.004659 
L 237.747961 180.380279 
L 238.073267 174.773815 
L 238.398572 173.334868 
L 238.723877 168.692227 
L 239.049182 168.665077 
L 239.374487 177.665285 
L 239.699792 175.968413 
L 240.025097 185.674519 
L 240.350403 178.954907 
L 240.675708 146.890818 
L 241.001013 153.501831 
L 241.326318 152.999557 
L 241.651623 161.402466 
L 242.302234 148.411216 
L 242.627539 148.112566 
L 242.952844 155.592377 
L 243.278149 149.727988 
L 243.603454 153.176031 
L 243.928759 148.77774 
L 244.254064 151.682784 
L 244.57937 160.492942 
L 244.904675 158.470271 
L 245.22998 153.678305 
L 245.555285 146.809369 
L 246.205895 156.081076 
L 246.531201 156.74625 
L 246.856506 152.470133 
L 247.181811 152.035734 
L 247.507116 160.764442 
L 247.832421 156.800549 
L 248.157726 160.330043 
L 248.483032 165.420658 
L 249.458947 158.592446 
L 249.784252 148.384066 
L 250.109557 159.501969 
L 250.434862 160.112843 
L 250.760168 156.800549 
L 251.085473 145.818395 
L 251.410778 153.976955 
L 251.736083 148.994939 
L 252.061388 156.596925 
L 252.386693 160.343618 
L 252.711999 156.895574 
L 253.037304 155.823151 
L 253.362609 154.112705 
L 253.687914 163.316537 
L 254.013219 165.746457 
L 254.338524 162.271264 
L 254.663829 183.203874 
L 254.989135 164.796209 
L 255.639745 174.203666 
L 255.96505 138.420035 
L 256.290355 142.275327 
L 256.61566 131.564673 
L 256.940966 136.180164 
L 257.266271 130.27505 
L 257.591576 130.16645 
L 258.242186 135.012716 
L 258.567491 130.112151 
L 258.892797 131.809022 
L 259.218102 131.605398 
L 259.543407 143.34775 
L 259.868712 145.153222 
L 260.194017 134.686917 
L 260.519322 141.02643 
L 260.844627 135.175616 
L 261.169933 143.999349 
L 261.495238 145.804821 
L 261.820543 150.447462 
L 262.145848 141.325079 
L 262.471153 137.619111 
L 262.796458 147.596717 
L 263.121764 147.773192 
L 263.447069 152.388683 
L 263.772374 149.117114 
L 264.097679 139.424583 
L 264.422984 144.420173 
L 264.748289 140.497006 
L 265.3989 137.076112 
L 265.724205 145.519746 
L 266.04951 141.705178 
L 266.374815 143.469925 
L 266.70012 147.732467 
L 267.025425 149.320739 
L 268.001341 146.850094 
L 268.326646 150.379587 
L 268.651951 150.718961 
L 268.977256 150.664661 
L 269.302561 140.59203 
L 269.627867 144.365873 
L 269.953172 143.497075 
L 270.278477 148.058266 
L 270.603782 148.94064 
L 270.929087 148.221166 
L 271.254392 138.43361 
L 272.230308 155.958901 
L 272.880918 146.008445 
L 273.206223 139.288833 
L 273.531529 147.230193 
L 273.856834 142.003828 
L 274.182139 143.049101 
L 274.832749 149.388614 
L 275.158054 144.936022 
L 275.483359 147.433817 
L 275.808665 147.773192 
L 276.13397 158.375246 
L 276.459275 155.728127 
L 276.78458 147.555992 
L 277.109885 143.089826 
L 277.43519 150.895436 
L 277.760496 161.945465 
L 278.085801 153.80048 
L 278.411106 149.904463 
L 278.736411 147.569567 
L 279.061716 158.388821 
L 279.387021 165.257758 
L 279.712326 158.388821 
L 280.037632 154.669279 
L 280.688242 162.162664 
L 281.013547 161.321016 
L 281.664157 150.189537 
L 281.989463 147.257343 
L 282.314768 155.144403 
L 282.965378 121.573492 
L 283.290683 130.478675 
L 283.615988 130.315775 
L 283.941293 126.487632 
L 284.266599 124.424236 
L 284.591904 123.935537 
L 284.917209 128.415279 
L 285.567819 122.292965 
L 285.893124 123.528288 
L 286.21843 122.835964 
L 286.543735 123.460413 
L 286.86904 132.528496 
L 287.194345 122.46944 
L 287.51965 122.510165 
L 287.844955 123.121039 
L 288.495566 137.564811 
L 288.820871 140.293381 
L 289.146176 127.003481 
L 289.471481 130.505825 
L 289.796786 144.012924 
L 290.122091 136.818188 
L 290.447397 136.057989 
L 291.098007 119.971645 
L 291.423312 126.297583 
L 291.748617 122.252241 
L 292.073922 125.550959 
L 292.399228 125.442359 
L 292.724533 125.836034 
L 293.049838 125.903909 
L 293.375143 127.940155 
L 293.700448 128.333829 
L 294.025753 132.338446 
L 294.351058 134.116768 
L 294.676364 125.903909 
L 295.001669 124.342787 
L 295.326974 123.976262 
L 295.652279 128.062329 
L 295.977584 135.284216 
L 296.302889 132.637096 
L 296.628195 127.370006 
L 296.9535 131.089549 
L 297.278805 136.668863 
L 297.60411 138.338585 
L 298.25472 126.243283 
L 298.580026 125.849609 
L 298.905331 133.723094 
L 299.230636 137.619111 
L 299.555941 133.451594 
L 300.206551 118.586998 
L 301.182467 138.745834 
L 301.507772 133.288694 
L 301.833077 134.361117 
L 302.158382 129.134752 
L 302.483687 135.745765 
L 302.808993 137.591961 
L 303.134298 143.361325 
L 303.459603 142.791176 
L 303.784908 136.791038 
L 304.110213 133.356569 
L 304.435518 133.05792 
L 304.760823 140.70063 
L 305.086129 140.510581 
L 305.736739 130.614425 
L 306.062044 139.397433 
L 306.387349 140.89068 
L 306.712654 147.976816 
L 307.03796 140.076181 
L 307.363265 135.78649 
L 307.68857 137.686986 
L 308.33918 150.528911 
L 308.664485 139.858982 
L 308.98979 143.049101 
L 309.315096 137.97206 
L 309.640401 147.393092 
L 309.965706 143.361325 
L 310.291011 146.782219 
L 310.616316 144.555923 
L 310.941621 143.67355 
L 311.266927 142.085278 
L 311.592232 152.755207 
L 311.917537 148.655565 
L 312.242842 149.958763 
L 312.568147 151.818534 
L 312.893452 144.745973 
L 313.218758 150.026637 
L 313.544063 153.379656 
L 313.869368 154.031255 
L 314.194673 156.189676 
L 314.519978 149.184989 
L 314.845283 145.370421 
L 315.495894 154.12628 
L 315.821199 154.967928 
L 316.146504 146.429269 
L 316.471809 141.311504 
L 316.797114 145.071772 
L 317.122419 154.04483 
L 317.447725 155.660252 
L 318.098335 143.198425 
L 318.42364 147.012993 
L 318.748945 152.415833 
L 319.07425 149.524363 
L 319.399555 152.877382 
L 319.724861 150.053787 
L 320.050166 156.067501 
L 320.375471 150.583211 
L 320.700776 150.881861 
L 321.351386 159.854919 
L 321.676692 158.117322 
L 322.001997 152.660182 
L 322.327302 157.520023 
L 322.652607 158.253072 
L 322.977912 162.203389 
L 323.303217 168.760102 
L 323.628522 163.560887 
L 323.953828 160.873042 
L 324.279133 154.737153 
L 324.604438 167.592654 
L 325.255048 155.714552 
L 325.580353 156.6648 
L 325.905659 153.583281 
L 326.230964 162.013339 
L 326.556269 162.882138 
L 326.881574 138.284285 
L 327.206879 132.81357 
L 327.532184 124.329212 
L 328.182795 133.845268 
L 328.5081 123.935537 
L 329.15871 133.451594 
L 329.484015 128.890403 
L 329.80932 129.189052 
L 330.134626 135.447115 
L 330.459931 131.944772 
L 330.785236 136.777463 
L 331.110541 129.107602 
L 331.435846 126.813432 
L 331.761151 132.691396 
L 332.086457 133.695944 
L 332.411762 136.845338 
L 332.737067 123.636888 
L 333.062372 125.822459 
L 333.387677 122.157216 
L 333.712982 142.478952 
L 334.363593 129.446977 
L 334.688898 127.87228 
L 335.014203 132.609946 
L 335.339508 139.628207 
L 335.664813 136.207314 
L 335.990118 131.252448 
L 336.315424 138.610084 
L 336.640729 131.320323 
L 336.966034 137.252587 
L 337.291339 135.284216 
L 337.616644 129.650601 
L 337.941949 131.361048 
L 338.267255 132.419896 
L 338.59256 128.089479 
L 338.917865 130.207175 
L 339.24317 134.591892 
L 339.568475 135.039866 
L 339.89378 138.501484 
L 340.219085 130.261475 
L 340.544391 128.442429 
L 340.869696 141.230054 
L 341.195001 144.705248 
L 341.520306 142.302477 
L 341.845611 135.121316 
L 342.170916 132.161972 
L 342.496222 136.397363 
L 342.821527 149.836588 
L 343.146832 139.994732 
L 343.472137 135.935814 
L 344.448052 143.632825 
L 344.773358 142.003828 
L 345.098663 142.180302 
L 345.423968 133.845268 
L 345.749273 130.261475 
L 346.074578 139.085208 
L 346.399883 141.745903 
L 346.725189 136.153014 
L 347.375799 142.316052 
L 347.701104 137.768436 
L 348.026409 144.650948 
L 348.351714 147.936091 
L 348.677019 143.904324 
L 349.002325 145.193947 
L 349.32763 140.72778 
L 349.652935 144.270848 
L 349.97824 150.406737 
L 350.303545 154.058405 
L 350.62885 149.429339 
L 350.954156 178.751282 
L 351.279461 180.841828 
L 351.604766 189.421212 
L 351.930071 193.385104 
L 352.255376 156.814124 
L 352.580681 152.700907 
L 352.905987 153.298206 
L 353.231292 152.673757 
L 353.556597 151.764234 
L 353.881902 155.253002 
L 354.207207 145.288971 
L 354.532512 145.166797 
L 354.857817 152.049309 
L 355.183123 150.433887 
L 355.508428 150.121662 
L 355.833733 142.926926 
L 356.159038 147.175893 
L 356.484343 149.945188 
L 356.809648 142.275327 
L 357.134954 148.72344 
L 357.460259 157.601473 
L 357.785564 158.578871 
L 358.110869 165.963657 
L 358.436174 148.72344 
L 358.761479 147.148743 
L 359.41209 161.93189 
L 359.737395 161.82329 
L 360.0627 150.773261 
L 360.388005 146.890818 
L 360.71331 150.990461 
L 361.038615 160.479367 
L 361.363921 163.683061 
L 361.689226 150.909011 
L 362.014531 147.203043 
L 362.339836 146.999418 
L 362.665141 154.886478 
L 362.990446 158.293797 
L 363.315752 156.4476 
L 363.641057 150.786836 
L 363.966362 153.352506 
L 364.616972 150.203112 
L 364.942277 156.121801 
L 365.267582 156.42045 
L 365.592888 154.628554 
L 365.918193 154.628554 
L 366.243498 150.623936 
L 366.568803 153.230331 
L 366.894108 149.931613 
L 367.219413 156.067501 
L 367.544719 151.329835 
L 367.870024 160.778017 
L 368.195329 163.330112 
L 368.520634 163.873111 
L 368.845939 157.506448 
L 369.171244 128.483154 
L 369.496549 127.342856 
L 369.821855 128.456004 
L 370.14716 132.75927 
L 370.79777 128.062329 
L 371.123075 123.365388 
L 371.44838 126.311158 
L 371.773686 133.505894 
L 372.098991 129.080452 
L 372.424296 129.799926 
L 372.749601 126.012508 
L 373.074906 124.112012 
L 373.400211 125.890334 
L 373.725516 131.591823 
L 374.376127 129.894951 
L 374.701432 136.003689 
L 375.026737 127.152806 
L 375.352042 134.605467 
L 375.677347 131.605398 
L 376.002653 134.931266 
L 376.327958 133.655219 
L 376.653263 129.392677 
L 377.303873 137.591961 
L 377.629178 136.994662 
L 377.954484 131.456073 
L 378.279789 133.492319 
L 378.605094 134.076043 
L 378.930399 137.143987 
L 379.255704 142.845476 
L 379.581009 139.682507 
L 379.906314 130.044276 
L 380.23162 134.157493 
L 380.556925 144.623798 
L 380.88223 148.954214 
L 381.207535 135.73219 
L 381.53284 136.804613 
L 381.858145 132.053372 
L 382.183451 133.750244 
L 382.508756 131.143849 
L 382.834061 132.637096 
L 383.159366 129.066878 
L 383.484671 129.066878 
L 383.809976 141.759478 
L 384.135281 131.320323 
L 384.460587 134.252518 
L 384.785892 138.338585 
L 385.111197 146.768644 
L 385.436502 142.044553 
L 385.761807 132.89502 
L 386.087112 141.691603 
L 386.412418 140.904255 
L 386.737723 146.198495 
L 387.063028 149.470063 
L 387.388333 140.551306 
L 387.713638 140.361256 
L 388.038943 137.130412 
L 388.364248 142.709726 
L 388.689554 140.497006 
L 389.014859 136.804613 
L 389.665469 149.782288 
L 389.990774 147.352368 
L 390.316079 147.284493 
L 390.641385 134.795517 
L 390.96669 139.139508 
L 391.291995 140.904255 
L 391.6173 144.501623 
L 391.942605 138.623659 
L 392.26791 139.085208 
L 392.593216 143.144126 
L 392.918521 145.479021 
L 393.243826 143.23915 
L 393.894436 151.53346 
L 394.219741 151.47916 
L 394.545046 138.732259 
L 395.195657 151.07191 
L 395.520962 154.614979 
L 395.846267 156.786974 
L 396.171572 142.926926 
L 396.496877 138.840859 
L 396.822183 142.193877 
L 397.147488 151.112635 
L 397.472793 152.198633 
L 398.123403 142.777601 
L 398.448708 143.171276 
L 398.774013 153.447531 
L 399.099319 158.98612 
L 399.424624 150.664661 
L 399.749929 150.135237 
L 400.075234 148.845615 
L 400.400539 154.710003 
L 400.725844 154.737153 
L 401.05115 151.927134 
L 401.376455 152.497283 
L 401.70176 155.361602 
L 402.027065 141.406529 
L 402.35237 147.881792 
L 402.677675 151.886409 
L 403.328286 155.986051 
L 403.653591 148.69629 
L 403.978896 153.895505 
L 404.304201 153.366081 
L 404.629506 154.737153 
L 405.280117 150.447462 
L 405.605422 155.891026 
L 405.930727 155.958901 
L 406.256032 167.131105 
L 406.581337 161.144541 
L 406.906642 151.37056 
L 407.231948 153.678305 
L 407.882558 171.271472 
L 408.207863 168.963726 
L 408.533168 159.31192 
L 408.858473 157.452148 
L 409.183778 151.587759 
L 409.509084 151.384135 
L 409.834389 158.144472 
L 410.159694 156.651225 
L 410.484999 160.085693 
L 410.810304 159.434094 
L 411.135609 155.768851 
L 411.460915 135.54214 
L 411.78622 134.415417 
L 412.111525 130.885924 
L 412.43683 133.315844 
L 412.762135 128.754653 
L 413.08744 128.320254 
L 413.412745 125.347335 
L 413.738051 133.750244 
L 414.063356 134.496867 
L 414.388661 125.632409 
L 414.713966 132.433471 
L 415.039271 131.062399 
L 415.364576 134.456142 
L 415.689882 134.496867 
L 416.015187 134.048893 
L 416.340492 135.202766 
L 416.665797 129.365527 
L 416.991102 137.551236 
L 417.316407 136.763888 
L 417.641713 129.989976 
L 418.292323 126.976332 
L 418.617628 131.822597 
L 419.268238 135.243491 
L 419.593543 130.49225 
L 419.918849 135.59644 
L 420.244154 133.899568 
L 420.569459 133.777394 
L 420.894764 135.026291 
L 421.220069 141.881653 
L 421.545374 141.868078 
L 422.195985 133.573769 
L 422.52129 136.315914 
L 422.846595 144.854572 
L 423.1719 143.741424 
L 423.497205 140.59203 
L 423.82251 130.777324 
L 424.147816 135.78649 
L 424.473121 146.062745 
L 424.798426 134.401842 
L 425.123731 128.822528 
L 425.449036 127.207106 
L 426.099647 142.044553 
L 426.424952 139.478883 
L 426.750257 139.601057 
L 427.075562 130.885924 
L 427.400867 128.130204 
L 427.726172 132.962895 
L 428.051478 135.338516 
L 428.376783 134.890541 
L 428.702088 134.971991 
L 429.027393 138.202835 
L 429.352698 136.207314 
L 429.678003 133.424444 
L 430.003308 137.782011 
L 430.328614 136.750313 
L 430.653919 140.80923 
L 430.979224 143.049101 
L 431.304529 134.306817 
L 431.629834 144.501623 
L 431.955139 149.280014 
L 432.280445 148.655565 
L 432.931055 137.062537 
L 433.25636 144.610223 
L 433.90697 144.854572 
L 434.232275 191.973307 
L 434.557581 194.905502 
L 434.882886 193.887379 
L 435.208191 199.439543 
L 435.533496 166.533806 
L 436.184106 147.813917 
L 436.509412 151.682784 
L 436.834717 147.827492 
L 437.160022 145.736946 
L 437.485327 186.597617 
L 437.810632 185.932444 
L 438.135937 193.520854 
L 438.461242 153.922655 
L 438.786548 154.04483 
L 439.111853 154.940778 
L 439.437158 158.782496 
L 440.087768 142.723301 
L 440.413073 148.438365 
L 441.063684 166.017957 
L 441.388989 160.248593 
L 441.714294 152.008584 
L 442.039599 150.148812 
L 442.69021 165.610708 
L 443.015515 163.615186 
L 443.34082 153.013132 
L 443.666125 155.402327 
L 443.99143 155.144403 
L 444.316735 169.778225 
L 444.64204 170.823498 
L 445.617956 150.623936 
L 445.943261 153.298206 
L 446.268566 154.655704 
L 446.593871 160.981641 
L 446.919177 159.06757 
L 447.244482 162.990738 
L 447.895092 162.488464 
L 448.220397 158.388821 
L 448.871007 165.841482 
L 449.196313 165.841482 
L 449.521618 160.682992 
L 449.846923 161.388891 
L 450.172228 175.303239 
L 450.497533 163.927411 
L 450.822838 158.470271 
L 451.148144 156.488325 
L 451.473449 165.026984 
L 451.798754 167.416179 
L 452.124059 165.800757 
L 452.449364 157.872972 
L 452.774669 132.881445 
L 453.099974 130.54655 
L 453.42528 135.610015 
L 454.07589 131.985497 
L 454.401195 133.573769 
L 454.7265 126.881307 
L 455.051805 129.419827 
L 455.377111 129.406252 
L 456.027721 126.609807 
L 456.353026 132.623521 
L 456.678331 126.827007 
L 457.003636 129.867801 
L 457.654247 140.795655 
L 457.979552 140.578456 
L 458.304857 129.827076 
L 458.630162 135.43354 
L 458.955467 131.890472 
L 459.280772 133.750244 
L 459.606078 136.926787 
L 459.931383 135.691465 
L 460.256688 137.958486 
L 460.581993 135.338516 
L 460.907298 145.058197 
L 461.557909 130.49225 
L 461.883214 137.116837 
L 462.208519 135.134891 
L 462.533824 146.687194 
L 462.859129 142.126003 
L 463.184434 140.659905 
L 463.509739 131.537523 
L 463.835045 129.718476 
L 464.16035 126.691257 
L 464.485655 133.628069 
L 464.81096 132.243421 
L 465.136265 133.723094 
L 465.46157 142.098853 
L 466.112181 135.35209 
L 466.437486 138.650809 
L 466.762791 144.515198 
L 467.088096 146.850094 
L 467.413401 140.252656 
L 467.738707 141.542279 
L 468.064012 145.356846 
L 468.389317 147.813917 
L 468.714622 151.47916 
L 469.039927 146.279945 
L 469.365232 139.125933 
L 469.690537 145.641921 
L 470.015843 148.737015 
L 470.341148 147.732467 
L 470.666453 142.180302 
L 470.991758 142.126003 
L 471.642368 150.895436 
L 471.967674 151.737084 
L 472.618284 137.632686 
L 472.943589 135.555715 
L 473.268894 144.406598 
L 473.594199 146.931543 
L 473.919504 142.845476 
L 474.24481 144.976747 
L 474.570115 142.492527 
L 474.89542 141.718753 
L 475.220725 139.506033 
L 475.54603 148.574115 
L 475.871335 145.872695 
L 476.196641 155.388752 
L 476.521946 144.420173 
L 476.847251 140.130481 
L 477.172556 146.32067 
L 477.497861 154.967928 
L 478.148471 142.058128 
L 478.473777 142.886201 
L 478.799082 146.15777 
L 479.124387 160.492942 
L 479.449692 152.768782 
L 480.100302 148.954214 
L 480.425608 149.537938 
L 480.750913 150.651086 
L 481.076218 152.918107 
L 481.401523 147.936091 
L 481.726828 147.488117 
L 482.052133 144.555923 
L 482.377439 147.854642 
L 482.702744 146.768644 
L 483.028049 147.298068 
L 483.353354 152.320808 
L 483.678659 160.044968 
L 484.003964 158.076597 
L 484.329269 151.574184 
L 484.654575 154.04483 
L 485.305185 157.452148 
L 485.63049 150.284562 
L 485.955795 155.796001 
L 486.2811 157.316398 
L 486.606406 159.773469 
L 487.257016 154.085555 
L 487.582321 154.411354 
L 488.232931 166.574531 
L 488.558236 161.57894 
L 488.883542 152.212208 
L 489.208847 153.624006 
L 489.534152 149.510788 
L 489.859457 162.121939 
L 490.184762 153.379656 
L 490.510067 152.415833 
L 490.835373 150.813986 
L 491.160678 150.895436 
L 491.485983 152.999557 
L 491.811288 160.669417 
L 492.136593 160.262168 
L 492.461898 162.800688 
L 492.787203 168.732952 
L 493.112509 157.777948 
L 493.437814 158.565296 
L 493.763119 163.723786 
L 494.088424 163.235087 
L 494.413729 169.927549 
L 495.06434 158.239497 
L 495.389645 164.891234 
L 495.71495 164.30751 
L 496.040255 167.918453 
L 496.36556 170.090449 
L 496.690865 158.483846 
L 497.016171 164.538285 
L 497.341476 161.68754 
L 497.666781 168.515752 
L 497.992086 141.678028 
L 498.317391 145.221097 
L 498.642696 137.782011 
L 498.968001 134.849816 
L 499.293307 135.270641 
L 499.618612 126.799857 
L 499.943917 129.216202 
L 500.269222 117.541725 
L 500.594527 130.451525 
L 500.919832 132.86787 
L 501.245138 131.564673 
L 501.570443 133.383719 
L 501.895748 137.211862 
L 502.221053 135.039866 
L 502.546358 136.940362 
L 502.871663 140.78208 
L 503.196968 138.284285 
L 503.522274 137.388337 
L 503.847579 131.700422 
L 504.172884 134.171068 
L 504.498189 137.944911 
L 504.823494 134.537592 
L 505.148799 142.967651 
L 505.474105 141.08073 
L 505.79941 137.877036 
L 506.124715 138.148535 
L 506.45002 145.88627 
L 506.775325 147.365943 
L 507.10063 138.420035 
L 507.751241 132.990045 
L 508.401851 145.655496 
L 508.727156 141.08073 
L 509.377766 135.012716 
L 510.028377 141.528704 
L 510.353682 138.039935 
L 510.678987 141.05358 
L 511.004292 137.510511 
L 511.329597 132.460621 
L 511.654903 131.523948 
L 511.980208 139.655357 
L 512.305513 144.148674 
L 512.630818 144.813847 
L 512.956123 142.994801 
L 513.281428 142.709726 
L 513.606733 176.470687 
L 513.932039 182.497975 
L 514.257344 194.973376 
L 514.582649 188.07729 
L 514.907954 147.053718 
L 515.233259 148.845615 
L 515.558564 156.026776 
L 516.209175 141.949528 
L 516.53448 137.659836 
L 516.859785 145.343271 
L 517.18509 147.108018 
L 517.510395 147.094443 
L 517.8357 136.845338 
L 518.161006 140.75493 
L 518.486311 142.641852 
L 519.136921 139.166658 
L 519.462226 138.881584 
L 519.787531 135.324941 
L 520.112837 141.732328 
L 520.438142 137.944911 
L 521.088752 144.555923 
L 521.414057 146.21207 
L 521.739362 149.755138 
L 522.064668 145.777671 
L 522.389973 144.610223 
L 522.715278 144.202974 
L 523.040583 149.429339 
L 523.365888 145.750521 
L 523.691193 145.655496 
L 524.016498 139.736807 
L 524.667109 148.981364 
L 525.317719 139.098783 
L 525.643024 148.601265 
L 525.968329 151.547035 
L 526.293635 158.93182 
L 526.61894 157.384273 
L 526.944245 149.999487 
L 527.26955 152.062884 
L 527.594855 150.243837 
L 527.92016 153.759755 
L 528.245465 150.936161 
L 528.570771 150.515336 
L 528.896076 156.624075 
L 529.221381 158.660321 
L 529.546686 149.239289 
L 529.871991 153.895505 
L 530.197296 153.040282 
L 530.522602 153.528981 
L 530.847907 155.999626 
L 531.173212 149.660113 
L 531.498517 155.877451 
L 532.149127 171.461521 
L 532.474433 169.615325 
L 532.799738 163.601611 
L 533.125043 162.325564 
L 533.450348 162.800688 
L 533.775653 167.633379 
L 534.100958 161.321016 
L 534.426263 161.470341 
L 534.751569 161.076666 
L 535.076874 160.194293 
L 535.402179 172.506794 
L 535.727484 166.303031 
L 536.052789 157.017749 
L 536.378094 166.316606 
L 537.028705 168.990876 
L 537.35401 170.742048 
L 537.679315 164.60616 
L 538.00462 163.832386 
L 538.329925 170.117599 
L 538.980536 163.710211 
L 539.631146 170.592723 
L 539.956451 184.086247 
L 540.281756 141.786628 
L 540.607061 137.605536 
L 540.932367 144.745973 
L 541.257672 138.990184 
L 541.582977 142.044553 
L 541.908282 141.406529 
L 542.233587 132.433471 
L 542.558892 136.614563 
L 542.884197 142.261752 
L 543.209503 139.981157 
L 543.534808 139.954007 
L 543.860113 133.885993 
L 544.185418 140.320531 
L 544.510723 143.782149 
L 544.836028 139.750382 
L 545.161334 141.868078 
L 545.486639 140.795655 
L 545.811944 123.338238 
L 546.137249 131.320323 
L 546.462554 129.894951 
L 546.787859 134.089618 
L 547.113165 134.238943 
L 547.43847 140.72778 
L 547.763775 141.325079 
L 548.08908 134.442567 
L 548.414385 141.773053 
L 548.73969 145.696221 
L 549.064995 146.985843 
L 549.390301 139.886132 
L 549.715606 136.668863 
L 550.040911 138.569359 
L 550.366216 150.053787 
L 550.691521 143.144126 
L 551.016826 138.732259 
L 551.342132 141.596579 
L 551.667437 140.198356 
L 551.992742 146.402119 
L 552.643352 136.913213 
L 552.968657 136.465238 
L 553.293962 143.904324 
L 553.619268 144.379448 
L 553.944573 143.008376 
L 554.269878 143.23915 
L 554.595183 138.202835 
L 554.920488 135.528565 
L 555.245793 135.528565 
L 555.571099 138.175685 
L 555.896404 142.818326 
L 556.221709 139.696082 
L 556.547014 138.949459 
L 556.872319 141.854503 
L 557.197624 149.660113 
L 557.522929 144.460898 
L 557.848235 143.836449 
L 558.17354 137.619111 
L 558.498845 135.257066 
L 558.82415 141.325079 
L 559.149455 144.284423 
L 559.47476 146.13062 
L 559.800066 135.311366 
L 560.125371 132.623521 
L 560.450676 139.587482 
L 560.775981 136.546688 
L 561.101286 146.700769 
L 561.426591 142.723301 
L 561.751897 135.935814 
L 562.077202 138.392885 
L 562.402507 144.202974 
L 563.053117 146.225645 
L 563.703727 137.877036 
L 564.029033 143.632825 
L 564.354338 138.148535 
L 564.679643 137.646261 
L 565.004948 146.483569 
L 565.330253 149.958763 
L 565.655558 143.116976 
L 565.980864 142.587552 
L 566.306169 155.130828 
L 566.631474 151.384135 
L 567.282084 140.97213 
L 567.932694 153.176031 
L 568.258 150.813986 
L 568.583305 157.547173 
L 568.90861 152.565158 
L 569.233915 150.270987 
L 569.55922 158.090172 
L 569.884525 159.732744 
L 570.209831 160.479367 
L 570.535136 153.081007 
L 570.860441 152.144333 
L 571.185746 155.538077 
L 571.511051 160.506517 
L 572.812272 140.86353 
L 573.137577 144.542348 
L 573.462882 154.302754 
L 573.788187 152.985982 
L 574.113492 150.528911 
L 574.764103 148.356916 
L 575.089408 154.764303 
L 575.414713 156.651225 
L 575.740018 153.88193 
L 576.065323 161.918315 
L 576.390629 155.185128 
L 576.715934 159.977093 
L 577.041239 154.207729 
L 577.691849 159.909219 
L 578.342459 151.981434 
L 578.667765 160.465792 
L 578.99307 159.39337 
L 579.318375 163.940986 
L 579.64368 157.031324 
L 579.968985 156.108226 
L 580.29429 159.732744 
L 580.619596 167.00893 
L 580.944901 165.339208 
L 581.270206 154.085555 
L 581.595511 150.420312 
L 581.920816 151.682784 
L 582.571426 159.12187 
L 582.896732 162.637788 
L 583.222037 163.845961 
L 583.547342 160.900192 
L 583.872647 137.686986 
L 584.197952 127.193531 
L 584.523257 137.388337 
L 584.848563 134.849816 
L 585.173868 142.193877 
L 585.499173 130.736599 
L 585.824478 129.311227 
L 586.149783 131.252448 
L 586.475088 136.492388 
L 586.800394 137.686986 
L 587.451004 125.442359 
L 588.101614 140.456281 
L 588.752224 132.772845 
L 589.07753 133.736669 
L 589.402835 135.800065 
L 589.72814 136.777463 
L 590.053445 132.732121 
L 590.37875 134.795517 
L 590.704055 135.134891 
L 591.029361 128.931128 
L 592.005276 134.171068 
L 592.330581 132.270571 
L 592.655886 135.718615 
L 592.981191 136.505963 
L 593.306497 132.569221 
L 593.631802 133.967443 
L 593.957107 134.863391 
L 594.282412 140.456281 
L 594.933022 135.40639 
L 595.583633 143.442775 
L 595.908938 143.850024 
L 596.234243 140.021882 
L 596.559548 142.533252 
L 596.884853 143.198425 
L 597.210158 150.175962 
L 597.535464 146.21207 
L 597.860769 138.29786 
L 598.186074 140.130481 
L 598.836684 150.976886 
L 599.161989 143.67355 
L 599.487295 143.836449 
L 599.8126 140.062606 
L 600.137905 137.97206 
L 600.46321 141.827353 
L 600.788515 143.4835 
L 601.11382 142.859051 
L 601.439126 145.112497 
L 601.764431 148.56054 
L 602.089736 144.040074 
L 602.740346 146.714344 
L 603.065651 148.69629 
L 603.390956 151.913559 
L 603.716262 141.827353 
L 604.366872 151.547035 
L 604.692177 151.53346 
L 605.017482 148.655565 
L 605.342787 141.284354 
L 605.993398 152.877382 
L 606.318703 151.42486 
L 606.644008 154.614979 
L 606.969313 149.225714 
L 607.294618 145.791246 
L 607.945229 152.280083 
L 608.270534 151.669209 
L 608.595839 155.212278 
L 608.921144 147.841067 
L 609.246449 143.809299 
L 609.89706 149.076389 
L 610.222365 146.510719 
L 610.54767 154.872903 
L 610.872975 152.022159 
L 611.19828 147.488117 
L 611.523585 150.216687 
L 611.848891 155.415902 
L 612.174196 154.15343 
L 612.499501 159.298345 
L 613.150111 145.139647 
L 613.800721 160.207868 
L 614.126027 154.167005 
L 614.451332 155.660252 
L 614.776637 151.872834 
L 615.101942 155.008653 
L 615.427247 167.389029 
L 616.403163 146.999418 
L 616.728468 149.334314 
L 617.053773 157.547173 
L 617.379078 148.58769 
L 617.704383 153.243906 
L 618.029688 155.510927 
L 618.354994 147.325218 
L 618.680299 202.982611 
L 619.005604 430.92 
L 619.330909 405.643398 
L 619.330909 405.643398 
" style="fill:none;stroke:#1f77b4;stroke-linecap:square;stroke-width:1.5;"/>
   </g>
   <g id="patch_3">
    <path d="M 108 448.56 
L 108 60.48 
" style="fill:none;stroke:#000000;stroke-linecap:square;stroke-linejoin:miter;stroke-width:0.8;"/>
   </g>
   <g id="patch_4">
    <path d="M 643.68 448.56 
L 643.68 60.48 
" style="fill:none;stroke:#000000;stroke-linecap:square;stroke-linejoin:miter;stroke-width:0.8;"/>
   </g>
   <g id="patch_5">
    <path d="M 108 448.56 
L 643.68 448.56 
" style="fill:none;stroke:#000000;stroke-linecap:square;stroke-linejoin:miter;stroke-width:0.8;"/>
   </g>
   <g id="patch_6">
    <path d="M 108 60.48 
L 643.68 60.48 
" style="fill:none;stroke:#000000;stroke-linecap:square;stroke-linejoin:miter;stroke-width:0.8;"/>
   </g>
   <g id="text_30">
    <!-- docker - free -->
    <g transform="translate(328.339219 54.48)scale(0.15 -0.15)">
     <defs>
      <path d="M 45.40625 46.390625 
L 45.40625 75.984375 
L 54.390625 75.984375 
L 54.390625 0 
L 45.40625 0 
L 45.40625 8.203125 
Q 42.578125 3.328125 38.25 0.953125 
Q 33.9375 -1.421875 27.875 -1.421875 
Q 17.96875 -1.421875 11.734375 6.484375 
Q 5.515625 14.40625 5.515625 27.296875 
Q 5.515625 40.1875 11.734375 48.09375 
Q 17.96875 56 27.875 56 
Q 33.9375 56 38.25 53.625 
Q 42.578125 51.265625 45.40625 46.390625 
z
M 14.796875 27.296875 
Q 14.796875 17.390625 18.875 11.75 
Q 22.953125 6.109375 30.078125 6.109375 
Q 37.203125 6.109375 41.296875 11.75 
Q 45.40625 17.390625 45.40625 27.296875 
Q 45.40625 37.203125 41.296875 42.84375 
Q 37.203125 48.484375 30.078125 48.484375 
Q 22.953125 48.484375 18.875 42.84375 
Q 14.796875 37.203125 14.796875 27.296875 
z
" id="DejaVuSans-100"/>
      <path d="M 30.609375 48.390625 
Q 23.390625 48.390625 19.1875 42.75 
Q 14.984375 37.109375 14.984375 27.296875 
Q 14.984375 17.484375 19.15625 11.84375 
Q 23.34375 6.203125 30.609375 6.203125 
Q 37.796875 6.203125 41.984375 11.859375 
Q 46.1875 17.53125 46.1875 27.296875 
Q 46.1875 37.015625 41.984375 42.703125 
Q 37.796875 48.390625 30.609375 48.390625 
z
M 30.609375 56 
Q 42.328125 56 49.015625 48.375 
Q 55.71875 40.765625 55.71875 27.296875 
Q 55.71875 13.875 49.015625 6.21875 
Q 42.328125 -1.421875 30.609375 -1.421875 
Q 18.84375 -1.421875 12.171875 6.21875 
Q 5.515625 13.875 5.515625 27.296875 
Q 5.515625 40.765625 12.171875 48.375 
Q 18.84375 56 30.609375 56 
z
" id="DejaVuSans-111"/>
      <path d="M 48.78125 52.59375 
L 48.78125 44.1875 
Q 44.96875 46.296875 41.140625 47.34375 
Q 37.3125 48.390625 33.40625 48.390625 
Q 24.65625 48.390625 19.8125 42.84375 
Q 14.984375 37.3125 14.984375 27.296875 
Q 14.984375 17.28125 19.8125 11.734375 
Q 24.65625 6.203125 33.40625 6.203125 
Q 37.3125 6.203125 41.140625 7.25 
Q 44.96875 8.296875 48.78125 10.40625 
L 48.78125 2.09375 
Q 45.015625 0.34375 40.984375 -0.53125 
Q 36.96875 -1.421875 32.421875 -1.421875 
Q 20.0625 -1.421875 12.78125 6.34375 
Q 5.515625 14.109375 5.515625 27.296875 
Q 5.515625 40.671875 12.859375 48.328125 
Q 20.21875 56 33.015625 56 
Q 37.15625 56 41.109375 55.140625 
Q 45.0625 54.296875 48.78125 52.59375 
z
" id="DejaVuSans-99"/>
      <path d="M 9.078125 75.984375 
L 18.109375 75.984375 
L 18.109375 31.109375 
L 44.921875 54.6875 
L 56.390625 54.6875 
L 27.390625 29.109375 
L 57.625 0 
L 45.90625 0 
L 18.109375 26.703125 
L 18.109375 0 
L 9.078125 0 
z
" id="DejaVuSans-107"/>
      <path d="M 41.109375 46.296875 
Q 39.59375 47.171875 37.8125 47.578125 
Q 36.03125 48 33.890625 48 
Q 26.265625 48 22.1875 43.046875 
Q 18.109375 38.09375 18.109375 28.8125 
L 18.109375 0 
L 9.078125 0 
L 9.078125 54.6875 
L 18.109375 54.6875 
L 18.109375 46.1875 
Q 20.953125 51.171875 25.484375 53.578125 
Q 30.03125 56 36.53125 56 
Q 37.453125 56 38.578125 55.875 
Q 39.703125 55.765625 41.0625 55.515625 
z
" id="DejaVuSans-114"/>
      <path id="DejaVuSans-32"/>
      <path d="M 4.890625 31.390625 
L 31.203125 31.390625 
L 31.203125 23.390625 
L 4.890625 23.390625 
z
" id="DejaVuSans-45"/>
      <path d="M 37.109375 75.984375 
L 37.109375 68.5 
L 28.515625 68.5 
Q 23.6875 68.5 21.796875 66.546875 
Q 19.921875 64.59375 19.921875 59.515625 
L 19.921875 54.6875 
L 34.71875 54.6875 
L 34.71875 47.703125 
L 19.921875 47.703125 
L 19.921875 0 
L 10.890625 0 
L 10.890625 47.703125 
L 2.296875 47.703125 
L 2.296875 54.6875 
L 10.890625 54.6875 
L 10.890625 58.5 
Q 10.890625 67.625 15.140625 71.796875 
Q 19.390625 75.984375 28.609375 75.984375 
z
" id="DejaVuSans-102"/>
     </defs>
     <use xlink:href="#DejaVuSans-100"/>
     <use x="63.476562" xlink:href="#DejaVuSans-111"/>
     <use x="124.658203" xlink:href="#DejaVuSans-99"/>
     <use x="179.638672" xlink:href="#DejaVuSans-107"/>
     <use x="233.923828" xlink:href="#DejaVuSans-101"/>
     <use x="295.447266" xlink:href="#DejaVuSans-114"/>
     <use x="336.560547" xlink:href="#DejaVuSans-32"/>
     <use x="368.347656" xlink:href="#DejaVuSans-45"/>
     <use x="404.431641" xlink:href="#DejaVuSans-32"/>
     <use x="436.21875" xlink:href="#DejaVuSans-102"/>
     <use x="471.423828" xlink:href="#DejaVuSans-114"/>
     <use x="510.287109" xlink:href="#DejaVuSans-101"/>
     <use x="571.810547" xlink:href="#DejaVuSans-101"/>
    </g>
   </g>
   <g id="legend_1">
    <g id="patch_7">
     <path d="M 650.68 258.52 
L 654.68 258.52 
Q 656.68 258.52 656.68 256.52 
L 656.68 252.52 
Q 656.68 250.52 654.68 250.52 
L 650.68 250.52 
Q 648.68 250.52 648.68 252.52 
L 648.68 256.52 
Q 648.68 258.52 650.68 258.52 
z
" style="fill:#ffffff;opacity:0.8;stroke:#cccccc;stroke-linejoin:miter;"/>
    </g>
   </g>
  </g>
 </g>
 <defs>
  <clipPath id="p1d44e30bcf">
   <rect height="388.08" width="535.68" x="108" y="60.48"/>
  </clipPath>
 </defs>
</svg>
