<?xml version="1.0" encoding="utf-8" standalone="no"?>
<!DOCTYPE svg PUBLIC "-//W3C//DTD SVG 1.1//EN"
  "http://www.w3.org/Graphics/SVG/1.1/DTD/svg11.dtd">
<!-- Created with matplotlib (https://matplotlib.org/) -->
<svg height="504pt" version="1.1" viewBox="0 0 864 504" width="864pt" xmlns="http://www.w3.org/2000/svg" xmlns:xlink="http://www.w3.org/1999/xlink">
 <metadata>
  <rdf:RDF xmlns:cc="http://creativecommons.org/ns#" xmlns:dc="http://purl.org/dc/elements/1.1/" xmlns:rdf="http://www.w3.org/1999/02/22-rdf-syntax-ns#">
   <cc:Work>
    <dc:type rdf:resource="http://purl.org/dc/dcmitype/StillImage"/>
    <dc:date>2022-06-15T17:02:30.841879</dc:date>
    <dc:format>image/svg+xml</dc:format>
    <dc:creator>
     <cc:Agent>
      <dc:title>Matplotlib v3.3.4, https://matplotlib.org/</dc:title>
     </cc:Agent>
    </dc:creator>
   </cc:Work>
  </rdf:RDF>
 </metadata>
 <defs>
  <style type="text/css">*{stroke-linecap:butt;stroke-linejoin:round;}</style>
 </defs>
 <g id="figure_1">
  <g id="patch_1">
   <path d="M 0 504 
L 864 504 
L 864 0 
L 0 0 
z
" style="fill:#ffffff;"/>
  </g>
  <g id="axes_1">
   <g id="patch_2">
    <path d="M 108 448.56 
L 643.68 448.56 
L 643.68 60.48 
L 108 60.48 
z
" style="fill:#ffffff;"/>
   </g>
   <g id="matplotlib.axis_1">
    <g id="xtick_1">
     <g id="line2d_1">
      <defs>
       <path d="M 0 0 
L 0 3.5 
" id="mc927d26165" style="stroke:#000000;stroke-width:0.8;"/>
      </defs>
      <g>
       <use style="stroke:#000000;stroke-width:0.8;" x="132.023786" xlink:href="#mc927d26165" y="448.56"/>
      </g>
     </g>
     <g id="text_1">
      <!-- 0 -->
      <g transform="translate(128.842536 463.158437)scale(0.1 -0.1)">
       <defs>
        <path d="M 31.78125 66.40625 
Q 24.171875 66.40625 20.328125 58.90625 
Q 16.5 51.421875 16.5 36.375 
Q 16.5 21.390625 20.328125 13.890625 
Q 24.171875 6.390625 31.78125 6.390625 
Q 39.453125 6.390625 43.28125 13.890625 
Q 47.125 21.390625 47.125 36.375 
Q 47.125 51.421875 43.28125 58.90625 
Q 39.453125 66.40625 31.78125 66.40625 
z
M 31.78125 74.21875 
Q 44.046875 74.21875 50.515625 64.515625 
Q 56.984375 54.828125 56.984375 36.375 
Q 56.984375 17.96875 50.515625 8.265625 
Q 44.046875 -1.421875 31.78125 -1.421875 
Q 19.53125 -1.421875 13.0625 8.265625 
Q 6.59375 17.96875 6.59375 36.375 
Q 6.59375 54.828125 13.0625 64.515625 
Q 19.53125 74.21875 31.78125 74.21875 
z
" id="DejaVuSans-48"/>
       </defs>
       <use xlink:href="#DejaVuSans-48"/>
      </g>
     </g>
    </g>
    <g id="xtick_2">
     <g id="line2d_2">
      <g>
       <use style="stroke:#000000;stroke-width:0.8;" x="197.084817" xlink:href="#mc927d26165" y="448.56"/>
      </g>
     </g>
     <g id="text_2">
      <!-- 200 -->
      <g transform="translate(187.541067 463.158437)scale(0.1 -0.1)">
       <defs>
        <path d="M 19.1875 8.296875 
L 53.609375 8.296875 
L 53.609375 0 
L 7.328125 0 
L 7.328125 8.296875 
Q 12.9375 14.109375 22.625 23.890625 
Q 32.328125 33.6875 34.8125 36.53125 
Q 39.546875 41.84375 41.421875 45.53125 
Q 43.3125 49.21875 43.3125 52.78125 
Q 43.3125 58.59375 39.234375 62.25 
Q 35.15625 65.921875 28.609375 65.921875 
Q 23.96875 65.921875 18.8125 64.3125 
Q 13.671875 62.703125 7.8125 59.421875 
L 7.8125 69.390625 
Q 13.765625 71.78125 18.9375 73 
Q 24.125 74.21875 28.421875 74.21875 
Q 39.75 74.21875 46.484375 68.546875 
Q 53.21875 62.890625 53.21875 53.421875 
Q 53.21875 48.921875 51.53125 44.890625 
Q 49.859375 40.875 45.40625 35.40625 
Q 44.1875 33.984375 37.640625 27.21875 
Q 31.109375 20.453125 19.1875 8.296875 
z
" id="DejaVuSans-50"/>
       </defs>
       <use xlink:href="#DejaVuSans-50"/>
       <use x="63.623047" xlink:href="#DejaVuSans-48"/>
       <use x="127.246094" xlink:href="#DejaVuSans-48"/>
      </g>
     </g>
    </g>
    <g id="xtick_3">
     <g id="line2d_3">
      <g>
       <use style="stroke:#000000;stroke-width:0.8;" x="262.145848" xlink:href="#mc927d26165" y="448.56"/>
      </g>
     </g>
     <g id="text_3">
      <!-- 400 -->
      <g transform="translate(252.602098 463.158437)scale(0.1 -0.1)">
       <defs>
        <path d="M 37.796875 64.3125 
L 12.890625 25.390625 
L 37.796875 25.390625 
z
M 35.203125 72.90625 
L 47.609375 72.90625 
L 47.609375 25.390625 
L 58.015625 25.390625 
L 58.015625 17.1875 
L 47.609375 17.1875 
L 47.609375 0 
L 37.796875 0 
L 37.796875 17.1875 
L 4.890625 17.1875 
L 4.890625 26.703125 
z
" id="DejaVuSans-52"/>
       </defs>
       <use xlink:href="#DejaVuSans-52"/>
       <use x="63.623047" xlink:href="#DejaVuSans-48"/>
       <use x="127.246094" xlink:href="#DejaVuSans-48"/>
      </g>
     </g>
    </g>
    <g id="xtick_4">
     <g id="line2d_4">
      <g>
       <use style="stroke:#000000;stroke-width:0.8;" x="327.206879" xlink:href="#mc927d26165" y="448.56"/>
      </g>
     </g>
     <g id="text_4">
      <!-- 600 -->
      <g transform="translate(317.663129 463.158437)scale(0.1 -0.1)">
       <defs>
        <path d="M 33.015625 40.375 
Q 26.375 40.375 22.484375 35.828125 
Q 18.609375 31.296875 18.609375 23.390625 
Q 18.609375 15.53125 22.484375 10.953125 
Q 26.375 6.390625 33.015625 6.390625 
Q 39.65625 6.390625 43.53125 10.953125 
Q 47.40625 15.53125 47.40625 23.390625 
Q 47.40625 31.296875 43.53125 35.828125 
Q 39.65625 40.375 33.015625 40.375 
z
M 52.59375 71.296875 
L 52.59375 62.3125 
Q 48.875 64.0625 45.09375 64.984375 
Q 41.3125 65.921875 37.59375 65.921875 
Q 27.828125 65.921875 22.671875 59.328125 
Q 17.53125 52.734375 16.796875 39.40625 
Q 19.671875 43.65625 24.015625 45.921875 
Q 28.375 48.1875 33.59375 48.1875 
Q 44.578125 48.1875 50.953125 41.515625 
Q 57.328125 34.859375 57.328125 23.390625 
Q 57.328125 12.15625 50.6875 5.359375 
Q 44.046875 -1.421875 33.015625 -1.421875 
Q 20.359375 -1.421875 13.671875 8.265625 
Q 6.984375 17.96875 6.984375 36.375 
Q 6.984375 53.65625 15.1875 63.9375 
Q 23.390625 74.21875 37.203125 74.21875 
Q 40.921875 74.21875 44.703125 73.484375 
Q 48.484375 72.75 52.59375 71.296875 
z
" id="DejaVuSans-54"/>
       </defs>
       <use xlink:href="#DejaVuSans-54"/>
       <use x="63.623047" xlink:href="#DejaVuSans-48"/>
       <use x="127.246094" xlink:href="#DejaVuSans-48"/>
      </g>
     </g>
    </g>
    <g id="xtick_5">
     <g id="line2d_5">
      <g>
       <use style="stroke:#000000;stroke-width:0.8;" x="392.26791" xlink:href="#mc927d26165" y="448.56"/>
      </g>
     </g>
     <g id="text_5">
      <!-- 800 -->
      <g transform="translate(382.72416 463.158437)scale(0.1 -0.1)">
       <defs>
        <path d="M 31.78125 34.625 
Q 24.75 34.625 20.71875 30.859375 
Q 16.703125 27.09375 16.703125 20.515625 
Q 16.703125 13.921875 20.71875 10.15625 
Q 24.75 6.390625 31.78125 6.390625 
Q 38.8125 6.390625 42.859375 10.171875 
Q 46.921875 13.96875 46.921875 20.515625 
Q 46.921875 27.09375 42.890625 30.859375 
Q 38.875 34.625 31.78125 34.625 
z
M 21.921875 38.8125 
Q 15.578125 40.375 12.03125 44.71875 
Q 8.5 49.078125 8.5 55.328125 
Q 8.5 64.0625 14.71875 69.140625 
Q 20.953125 74.21875 31.78125 74.21875 
Q 42.671875 74.21875 48.875 69.140625 
Q 55.078125 64.0625 55.078125 55.328125 
Q 55.078125 49.078125 51.53125 44.71875 
Q 48 40.375 41.703125 38.8125 
Q 48.828125 37.15625 52.796875 32.3125 
Q 56.78125 27.484375 56.78125 20.515625 
Q 56.78125 9.90625 50.3125 4.234375 
Q 43.84375 -1.421875 31.78125 -1.421875 
Q 19.734375 -1.421875 13.25 4.234375 
Q 6.78125 9.90625 6.78125 20.515625 
Q 6.78125 27.484375 10.78125 32.3125 
Q 14.796875 37.15625 21.921875 38.8125 
z
M 18.3125 54.390625 
Q 18.3125 48.734375 21.84375 45.5625 
Q 25.390625 42.390625 31.78125 42.390625 
Q 38.140625 42.390625 41.71875 45.5625 
Q 45.3125 48.734375 45.3125 54.390625 
Q 45.3125 60.0625 41.71875 63.234375 
Q 38.140625 66.40625 31.78125 66.40625 
Q 25.390625 66.40625 21.84375 63.234375 
Q 18.3125 60.0625 18.3125 54.390625 
z
" id="DejaVuSans-56"/>
       </defs>
       <use xlink:href="#DejaVuSans-56"/>
       <use x="63.623047" xlink:href="#DejaVuSans-48"/>
       <use x="127.246094" xlink:href="#DejaVuSans-48"/>
      </g>
     </g>
    </g>
    <g id="xtick_6">
     <g id="line2d_6">
      <g>
       <use style="stroke:#000000;stroke-width:0.8;" x="457.328942" xlink:href="#mc927d26165" y="448.56"/>
      </g>
     </g>
     <g id="text_6">
      <!-- 1000 -->
      <g transform="translate(444.603942 463.158437)scale(0.1 -0.1)">
       <defs>
        <path d="M 12.40625 8.296875 
L 28.515625 8.296875 
L 28.515625 63.921875 
L 10.984375 60.40625 
L 10.984375 69.390625 
L 28.421875 72.90625 
L 38.28125 72.90625 
L 38.28125 8.296875 
L 54.390625 8.296875 
L 54.390625 0 
L 12.40625 0 
z
" id="DejaVuSans-49"/>
       </defs>
       <use xlink:href="#DejaVuSans-49"/>
       <use x="63.623047" xlink:href="#DejaVuSans-48"/>
       <use x="127.246094" xlink:href="#DejaVuSans-48"/>
       <use x="190.869141" xlink:href="#DejaVuSans-48"/>
      </g>
     </g>
    </g>
    <g id="xtick_7">
     <g id="line2d_7">
      <g>
       <use style="stroke:#000000;stroke-width:0.8;" x="522.389973" xlink:href="#mc927d26165" y="448.56"/>
      </g>
     </g>
     <g id="text_7">
      <!-- 1200 -->
      <g transform="translate(509.664973 463.158437)scale(0.1 -0.1)">
       <use xlink:href="#DejaVuSans-49"/>
       <use x="63.623047" xlink:href="#DejaVuSans-50"/>
       <use x="127.246094" xlink:href="#DejaVuSans-48"/>
       <use x="190.869141" xlink:href="#DejaVuSans-48"/>
      </g>
     </g>
    </g>
    <g id="xtick_8">
     <g id="line2d_8">
      <g>
       <use style="stroke:#000000;stroke-width:0.8;" x="587.451004" xlink:href="#mc927d26165" y="448.56"/>
      </g>
     </g>
     <g id="text_8">
      <!-- 1400 -->
      <g transform="translate(574.726004 463.158437)scale(0.1 -0.1)">
       <use xlink:href="#DejaVuSans-49"/>
       <use x="63.623047" xlink:href="#DejaVuSans-52"/>
       <use x="127.246094" xlink:href="#DejaVuSans-48"/>
       <use x="190.869141" xlink:href="#DejaVuSans-48"/>
      </g>
     </g>
    </g>
    <g id="text_9">
     <!-- timestamp -->
     <g transform="translate(354.264375 475.316875)scale(0.08 -0.08)">
      <defs>
       <path d="M 18.3125 70.21875 
L 18.3125 54.6875 
L 36.8125 54.6875 
L 36.8125 47.703125 
L 18.3125 47.703125 
L 18.3125 18.015625 
Q 18.3125 11.328125 20.140625 9.421875 
Q 21.96875 7.515625 27.59375 7.515625 
L 36.8125 7.515625 
L 36.8125 0 
L 27.59375 0 
Q 17.1875 0 13.234375 3.875 
Q 9.28125 7.765625 9.28125 18.015625 
L 9.28125 47.703125 
L 2.6875 47.703125 
L 2.6875 54.6875 
L 9.28125 54.6875 
L 9.28125 70.21875 
z
" id="DejaVuSans-116"/>
       <path d="M 9.421875 54.6875 
L 18.40625 54.6875 
L 18.40625 0 
L 9.421875 0 
z
M 9.421875 75.984375 
L 18.40625 75.984375 
L 18.40625 64.59375 
L 9.421875 64.59375 
z
" id="DejaVuSans-105"/>
       <path d="M 52 44.1875 
Q 55.375 50.25 60.0625 53.125 
Q 64.75 56 71.09375 56 
Q 79.640625 56 84.28125 50.015625 
Q 88.921875 44.046875 88.921875 33.015625 
L 88.921875 0 
L 79.890625 0 
L 79.890625 32.71875 
Q 79.890625 40.578125 77.09375 44.375 
Q 74.3125 48.1875 68.609375 48.1875 
Q 61.625 48.1875 57.5625 43.546875 
Q 53.515625 38.921875 53.515625 30.90625 
L 53.515625 0 
L 44.484375 0 
L 44.484375 32.71875 
Q 44.484375 40.625 41.703125 44.40625 
Q 38.921875 48.1875 33.109375 48.1875 
Q 26.21875 48.1875 22.15625 43.53125 
Q 18.109375 38.875 18.109375 30.90625 
L 18.109375 0 
L 9.078125 0 
L 9.078125 54.6875 
L 18.109375 54.6875 
L 18.109375 46.1875 
Q 21.1875 51.21875 25.484375 53.609375 
Q 29.78125 56 35.6875 56 
Q 41.65625 56 45.828125 52.96875 
Q 50 49.953125 52 44.1875 
z
" id="DejaVuSans-109"/>
       <path d="M 56.203125 29.59375 
L 56.203125 25.203125 
L 14.890625 25.203125 
Q 15.484375 15.921875 20.484375 11.0625 
Q 25.484375 6.203125 34.421875 6.203125 
Q 39.59375 6.203125 44.453125 7.46875 
Q 49.3125 8.734375 54.109375 11.28125 
L 54.109375 2.78125 
Q 49.265625 0.734375 44.1875 -0.34375 
Q 39.109375 -1.421875 33.890625 -1.421875 
Q 20.796875 -1.421875 13.15625 6.1875 
Q 5.515625 13.8125 5.515625 26.8125 
Q 5.515625 40.234375 12.765625 48.109375 
Q 20.015625 56 32.328125 56 
Q 43.359375 56 49.78125 48.890625 
Q 56.203125 41.796875 56.203125 29.59375 
z
M 47.21875 32.234375 
Q 47.125 39.59375 43.09375 43.984375 
Q 39.0625 48.390625 32.421875 48.390625 
Q 24.90625 48.390625 20.390625 44.140625 
Q 15.875 39.890625 15.1875 32.171875 
z
" id="DejaVuSans-101"/>
       <path d="M 44.28125 53.078125 
L 44.28125 44.578125 
Q 40.484375 46.53125 36.375 47.5 
Q 32.28125 48.484375 27.875 48.484375 
Q 21.1875 48.484375 17.84375 46.4375 
Q 14.5 44.390625 14.5 40.28125 
Q 14.5 37.15625 16.890625 35.375 
Q 19.28125 33.59375 26.515625 31.984375 
L 29.59375 31.296875 
Q 39.15625 29.25 43.1875 25.515625 
Q 47.21875 21.78125 47.21875 15.09375 
Q 47.21875 7.46875 41.1875 3.015625 
Q 35.15625 -1.421875 24.609375 -1.421875 
Q 20.21875 -1.421875 15.453125 -0.5625 
Q 10.6875 0.296875 5.421875 2 
L 5.421875 11.28125 
Q 10.40625 8.6875 15.234375 7.390625 
Q 20.0625 6.109375 24.8125 6.109375 
Q 31.15625 6.109375 34.5625 8.28125 
Q 37.984375 10.453125 37.984375 14.40625 
Q 37.984375 18.0625 35.515625 20.015625 
Q 33.0625 21.96875 24.703125 23.78125 
L 21.578125 24.515625 
Q 13.234375 26.265625 9.515625 29.90625 
Q 5.8125 33.546875 5.8125 39.890625 
Q 5.8125 47.609375 11.28125 51.796875 
Q 16.75 56 26.8125 56 
Q 31.78125 56 36.171875 55.265625 
Q 40.578125 54.546875 44.28125 53.078125 
z
" id="DejaVuSans-115"/>
       <path d="M 34.28125 27.484375 
Q 23.390625 27.484375 19.1875 25 
Q 14.984375 22.515625 14.984375 16.5 
Q 14.984375 11.71875 18.140625 8.90625 
Q 21.296875 6.109375 26.703125 6.109375 
Q 34.1875 6.109375 38.703125 11.40625 
Q 43.21875 16.703125 43.21875 25.484375 
L 43.21875 27.484375 
z
M 52.203125 31.203125 
L 52.203125 0 
L 43.21875 0 
L 43.21875 8.296875 
Q 40.140625 3.328125 35.546875 0.953125 
Q 30.953125 -1.421875 24.3125 -1.421875 
Q 15.921875 -1.421875 10.953125 3.296875 
Q 6 8.015625 6 15.921875 
Q 6 25.140625 12.171875 29.828125 
Q 18.359375 34.515625 30.609375 34.515625 
L 43.21875 34.515625 
L 43.21875 35.40625 
Q 43.21875 41.609375 39.140625 45 
Q 35.0625 48.390625 27.6875 48.390625 
Q 23 48.390625 18.546875 47.265625 
Q 14.109375 46.140625 10.015625 43.890625 
L 10.015625 52.203125 
Q 14.9375 54.109375 19.578125 55.046875 
Q 24.21875 56 28.609375 56 
Q 40.484375 56 46.34375 49.84375 
Q 52.203125 43.703125 52.203125 31.203125 
z
" id="DejaVuSans-97"/>
       <path d="M 18.109375 8.203125 
L 18.109375 -20.796875 
L 9.078125 -20.796875 
L 9.078125 54.6875 
L 18.109375 54.6875 
L 18.109375 46.390625 
Q 20.953125 51.265625 25.265625 53.625 
Q 29.59375 56 35.59375 56 
Q 45.5625 56 51.78125 48.09375 
Q 58.015625 40.1875 58.015625 27.296875 
Q 58.015625 14.40625 51.78125 6.484375 
Q 45.5625 -1.421875 35.59375 -1.421875 
Q 29.59375 -1.421875 25.265625 0.953125 
Q 20.953125 3.328125 18.109375 8.203125 
z
M 48.6875 27.296875 
Q 48.6875 37.203125 44.609375 42.84375 
Q 40.53125 48.484375 33.40625 48.484375 
Q 26.265625 48.484375 22.1875 42.84375 
Q 18.109375 37.203125 18.109375 27.296875 
Q 18.109375 17.390625 22.1875 11.75 
Q 26.265625 6.109375 33.40625 6.109375 
Q 40.53125 6.109375 44.609375 11.75 
Q 48.6875 17.390625 48.6875 27.296875 
z
" id="DejaVuSans-112"/>
      </defs>
      <use xlink:href="#DejaVuSans-116"/>
      <use x="39.208984" xlink:href="#DejaVuSans-105"/>
      <use x="66.992188" xlink:href="#DejaVuSans-109"/>
      <use x="164.404297" xlink:href="#DejaVuSans-101"/>
      <use x="225.927734" xlink:href="#DejaVuSans-115"/>
      <use x="278.027344" xlink:href="#DejaVuSans-116"/>
      <use x="317.236328" xlink:href="#DejaVuSans-97"/>
      <use x="378.515625" xlink:href="#DejaVuSans-109"/>
      <use x="475.927734" xlink:href="#DejaVuSans-112"/>
     </g>
    </g>
   </g>
   <g id="matplotlib.axis_2">
    <g id="ytick_1">
     <g id="line2d_9">
      <defs>
       <path d="M 0 0 
L -3.5 0 
" id="md91bf32024" style="stroke:#000000;stroke-width:0.8;"/>
      </defs>
      <g>
       <use style="stroke:#000000;stroke-width:0.8;" x="108" xlink:href="#md91bf32024" y="434.087248"/>
      </g>
     </g>
     <g id="text_10">
      <!-- 25.0 -->
      <g transform="translate(78.734375 437.886466)scale(0.1 -0.1)">
       <defs>
        <path d="M 10.796875 72.90625 
L 49.515625 72.90625 
L 49.515625 64.59375 
L 19.828125 64.59375 
L 19.828125 46.734375 
Q 21.96875 47.46875 24.109375 47.828125 
Q 26.265625 48.1875 28.421875 48.1875 
Q 40.625 48.1875 47.75 41.5 
Q 54.890625 34.8125 54.890625 23.390625 
Q 54.890625 11.625 47.5625 5.09375 
Q 40.234375 -1.421875 26.90625 -1.421875 
Q 22.3125 -1.421875 17.546875 -0.640625 
Q 12.796875 0.140625 7.71875 1.703125 
L 7.71875 11.625 
Q 12.109375 9.234375 16.796875 8.0625 
Q 21.484375 6.890625 26.703125 6.890625 
Q 35.15625 6.890625 40.078125 11.328125 
Q 45.015625 15.765625 45.015625 23.390625 
Q 45.015625 31 40.078125 35.4375 
Q 35.15625 39.890625 26.703125 39.890625 
Q 22.75 39.890625 18.8125 39.015625 
Q 14.890625 38.140625 10.796875 36.28125 
z
" id="DejaVuSans-53"/>
        <path d="M 10.6875 12.40625 
L 21 12.40625 
L 21 0 
L 10.6875 0 
z
" id="DejaVuSans-46"/>
       </defs>
       <use xlink:href="#DejaVuSans-50"/>
       <use x="63.623047" xlink:href="#DejaVuSans-53"/>
       <use x="127.246094" xlink:href="#DejaVuSans-46"/>
       <use x="159.033203" xlink:href="#DejaVuSans-48"/>
      </g>
     </g>
    </g>
    <g id="ytick_2">
     <g id="line2d_10">
      <g>
       <use style="stroke:#000000;stroke-width:0.8;" x="108" xlink:href="#md91bf32024" y="381.699309"/>
      </g>
     </g>
     <g id="text_11">
      <!-- 27.5 -->
      <g transform="translate(78.734375 385.498528)scale(0.1 -0.1)">
       <defs>
        <path d="M 8.203125 72.90625 
L 55.078125 72.90625 
L 55.078125 68.703125 
L 28.609375 0 
L 18.3125 0 
L 43.21875 64.59375 
L 8.203125 64.59375 
z
" id="DejaVuSans-55"/>
       </defs>
       <use xlink:href="#DejaVuSans-50"/>
       <use x="63.623047" xlink:href="#DejaVuSans-55"/>
       <use x="127.246094" xlink:href="#DejaVuSans-46"/>
       <use x="159.033203" xlink:href="#DejaVuSans-53"/>
      </g>
     </g>
    </g>
    <g id="ytick_3">
     <g id="line2d_11">
      <g>
       <use style="stroke:#000000;stroke-width:0.8;" x="108" xlink:href="#md91bf32024" y="329.31137"/>
      </g>
     </g>
     <g id="text_12">
      <!-- 30.0 -->
      <g transform="translate(78.734375 333.110589)scale(0.1 -0.1)">
       <defs>
        <path d="M 40.578125 39.3125 
Q 47.65625 37.796875 51.625 33 
Q 55.609375 28.21875 55.609375 21.1875 
Q 55.609375 10.40625 48.1875 4.484375 
Q 40.765625 -1.421875 27.09375 -1.421875 
Q 22.515625 -1.421875 17.65625 -0.515625 
Q 12.796875 0.390625 7.625 2.203125 
L 7.625 11.71875 
Q 11.71875 9.328125 16.59375 8.109375 
Q 21.484375 6.890625 26.8125 6.890625 
Q 36.078125 6.890625 40.9375 10.546875 
Q 45.796875 14.203125 45.796875 21.1875 
Q 45.796875 27.640625 41.28125 31.265625 
Q 36.765625 34.90625 28.71875 34.90625 
L 20.21875 34.90625 
L 20.21875 43.015625 
L 29.109375 43.015625 
Q 36.375 43.015625 40.234375 45.921875 
Q 44.09375 48.828125 44.09375 54.296875 
Q 44.09375 59.90625 40.109375 62.90625 
Q 36.140625 65.921875 28.71875 65.921875 
Q 24.65625 65.921875 20.015625 65.03125 
Q 15.375 64.15625 9.8125 62.3125 
L 9.8125 71.09375 
Q 15.4375 72.65625 20.34375 73.4375 
Q 25.25 74.21875 29.59375 74.21875 
Q 40.828125 74.21875 47.359375 69.109375 
Q 53.90625 64.015625 53.90625 55.328125 
Q 53.90625 49.265625 50.4375 45.09375 
Q 46.96875 40.921875 40.578125 39.3125 
z
" id="DejaVuSans-51"/>
       </defs>
       <use xlink:href="#DejaVuSans-51"/>
       <use x="63.623047" xlink:href="#DejaVuSans-48"/>
       <use x="127.246094" xlink:href="#DejaVuSans-46"/>
       <use x="159.033203" xlink:href="#DejaVuSans-48"/>
      </g>
     </g>
    </g>
    <g id="ytick_4">
     <g id="line2d_12">
      <g>
       <use style="stroke:#000000;stroke-width:0.8;" x="108" xlink:href="#md91bf32024" y="276.923431"/>
      </g>
     </g>
     <g id="text_13">
      <!-- 32.5 -->
      <g transform="translate(78.734375 280.72265)scale(0.1 -0.1)">
       <use xlink:href="#DejaVuSans-51"/>
       <use x="63.623047" xlink:href="#DejaVuSans-50"/>
       <use x="127.246094" xlink:href="#DejaVuSans-46"/>
       <use x="159.033203" xlink:href="#DejaVuSans-53"/>
      </g>
     </g>
    </g>
    <g id="ytick_5">
     <g id="line2d_13">
      <g>
       <use style="stroke:#000000;stroke-width:0.8;" x="108" xlink:href="#md91bf32024" y="224.535492"/>
      </g>
     </g>
     <g id="text_14">
      <!-- 35.0 -->
      <g transform="translate(78.734375 228.334711)scale(0.1 -0.1)">
       <use xlink:href="#DejaVuSans-51"/>
       <use x="63.623047" xlink:href="#DejaVuSans-53"/>
       <use x="127.246094" xlink:href="#DejaVuSans-46"/>
       <use x="159.033203" xlink:href="#DejaVuSans-48"/>
      </g>
     </g>
    </g>
    <g id="ytick_6">
     <g id="line2d_14">
      <g>
       <use style="stroke:#000000;stroke-width:0.8;" x="108" xlink:href="#md91bf32024" y="172.147553"/>
      </g>
     </g>
     <g id="text_15">
      <!-- 37.5 -->
      <g transform="translate(78.734375 175.946772)scale(0.1 -0.1)">
       <use xlink:href="#DejaVuSans-51"/>
       <use x="63.623047" xlink:href="#DejaVuSans-55"/>
       <use x="127.246094" xlink:href="#DejaVuSans-46"/>
       <use x="159.033203" xlink:href="#DejaVuSans-53"/>
      </g>
     </g>
    </g>
    <g id="ytick_7">
     <g id="line2d_15">
      <g>
       <use style="stroke:#000000;stroke-width:0.8;" x="108" xlink:href="#md91bf32024" y="119.759614"/>
      </g>
     </g>
     <g id="text_16">
      <!-- 40.0 -->
      <g transform="translate(78.734375 123.558833)scale(0.1 -0.1)">
       <use xlink:href="#DejaVuSans-52"/>
       <use x="63.623047" xlink:href="#DejaVuSans-48"/>
       <use x="127.246094" xlink:href="#DejaVuSans-46"/>
       <use x="159.033203" xlink:href="#DejaVuSans-48"/>
      </g>
     </g>
    </g>
    <g id="ytick_8">
     <g id="line2d_16">
      <g>
       <use style="stroke:#000000;stroke-width:0.8;" x="108" xlink:href="#md91bf32024" y="67.371675"/>
      </g>
     </g>
     <g id="text_17">
      <!-- 42.5 -->
      <g transform="translate(78.734375 71.170894)scale(0.1 -0.1)">
       <use xlink:href="#DejaVuSans-52"/>
       <use x="63.623047" xlink:href="#DejaVuSans-50"/>
       <use x="127.246094" xlink:href="#DejaVuSans-46"/>
       <use x="159.033203" xlink:href="#DejaVuSans-53"/>
      </g>
     </g>
    </g>
    <g id="text_18">
     <!-- MB -->
     <g transform="translate(73.070625 260.715625)rotate(-90)scale(0.08 -0.08)">
      <defs>
       <path d="M 9.8125 72.90625 
L 24.515625 72.90625 
L 43.109375 23.296875 
L 61.8125 72.90625 
L 76.515625 72.90625 
L 76.515625 0 
L 66.890625 0 
L 66.890625 64.015625 
L 48.09375 14.015625 
L 38.1875 14.015625 
L 19.390625 64.015625 
L 19.390625 0 
L 9.8125 0 
z
" id="DejaVuSans-77"/>
       <path d="M 19.671875 34.8125 
L 19.671875 8.109375 
L 35.5 8.109375 
Q 43.453125 8.109375 47.28125 11.40625 
Q 51.125 14.703125 51.125 21.484375 
Q 51.125 28.328125 47.28125 31.5625 
Q 43.453125 34.8125 35.5 34.8125 
z
M 19.671875 64.796875 
L 19.671875 42.828125 
L 34.28125 42.828125 
Q 41.5 42.828125 45.03125 45.53125 
Q 48.578125 48.25 48.578125 53.8125 
Q 48.578125 59.328125 45.03125 62.0625 
Q 41.5 64.796875 34.28125 64.796875 
z
M 9.8125 72.90625 
L 35.015625 72.90625 
Q 46.296875 72.90625 52.390625 68.21875 
Q 58.5 63.53125 58.5 54.890625 
Q 58.5 48.1875 55.375 44.234375 
Q 52.25 40.28125 46.1875 39.3125 
Q 53.46875 37.75 57.5 32.78125 
Q 61.53125 27.828125 61.53125 20.40625 
Q 61.53125 10.640625 54.890625 5.3125 
Q 48.25 0 35.984375 0 
L 9.8125 0 
z
" id="DejaVuSans-66"/>
      </defs>
      <use xlink:href="#DejaVuSans-77"/>
      <use x="86.279297" xlink:href="#DejaVuSans-66"/>
     </g>
    </g>
   </g>
   <g id="line2d_17">
    <path clip-path="url(#p917a02b0bf)" d="M 132.349091 430.92 
L 132.674396 428.173363 
L 132.999701 430.92 
L 133.325006 430.832108 
L 133.650312 430.92 
L 133.975617 430.832108 
L 134.300922 430.92 
L 134.626227 430.832108 
L 134.951532 430.92 
L 135.276837 430.832108 
L 135.602142 430.414619 
L 135.927448 419.823587 
L 136.252753 399.542422 
L 136.903363 321.603857 
L 137.553973 251.311928 
L 138.204584 193.280987 
L 138.855194 125.55991 
L 139.180499 109.08009 
L 139.505804 106.663049 
L 140.156415 106.267534 
L 140.48172 103.520897 
L 141.13233 103.520897 
L 141.457635 105.322691 
L 141.78294 104.905202 
L 142.433551 105.740179 
L 142.758856 104.026278 
L 143.084161 104.421794 
L 143.409466 104.092197 
L 143.734771 104.509686 
L 144.060077 104.707444 
L 144.385382 101.631211 
L 144.710687 103.850493 
L 145.035992 102.729865 
L 145.361297 102.729865 
L 145.686602 102.114619 
L 146.011907 99.28009 
L 146.337213 98.598924 
L 146.662518 100.466637 
L 146.987823 98.07157 
L 147.313128 100.840179 
L 147.963738 101.455426 
L 148.289044 98.423139 
L 148.614349 101.785022 
L 148.939654 100.598475 
L 149.264959 104.18009 
L 149.590264 101.785022 
L 149.915569 104.509686 
L 150.56618 103.037489 
L 150.891485 102.861704 
L 151.21679 100.290852 
L 151.542095 103.125381 
L 151.8674 102.444215 
L 152.192705 96.687265 
L 152.843316 102.26843 
L 153.168621 101.763049 
L 153.493926 99.016413 
L 153.819231 100.906099 
L 154.144536 101.169776 
L 154.469842 99.192197 
L 154.795147 101.587265 
L 155.120452 101.675157 
L 155.445757 100.818206 
L 155.771062 101.455426 
L 156.096367 101.455426 
L 156.421672 101.938834 
L 157.397588 100.664395 
L 158.048198 100.400717 
L 158.373503 97.412377 
L 158.698809 97.654081 
L 159.024114 100.400717 
L 159.349419 100.400717 
L 159.674724 100.664395 
L 160.000029 100.400717 
L 160.650639 99.56574 
L 160.975945 99.56574 
L 161.30125 99.983229 
L 161.626555 99.895336 
L 161.95186 100.752287 
L 162.277165 100.752287 
L 162.60247 101.323587 
L 162.927776 96.79713 
L 163.253081 99.192197 
L 163.578386 96.335695 
L 163.903691 99.170224 
L 164.554301 99.104305 
L 164.879606 98.752735 
L 165.204912 98.708789 
L 165.530217 97.851839 
L 165.855522 97.36843 
L 166.506132 97.302511 
L 167.156743 98.00565 
L 167.482048 95.500717 
L 167.807353 97.807892 
L 168.132658 94.995336 
L 168.457963 98.401166 
L 169.108574 97.807892 
L 169.759184 100.642422 
L 170.084489 100.554529 
L 170.409794 99.763498 
L 170.735099 98.64287 
L 171.060404 98.313274 
L 171.38571 98.2913 
L 171.711015 92.798027 
L 172.03632 98.489058 
L 172.68693 98.401166 
L 173.012235 98.489058 
L 173.337541 98.401166 
L 173.662846 97.43435 
L 173.988151 97.807892 
L 174.313456 97.785919 
L 174.638761 97.895785 
L 174.964066 92.46843 
L 175.289371 95.742422 
L 175.614677 95.852287 
L 175.939982 99.016413 
L 176.265287 95.940179 
L 176.590592 99.631659 
L 176.915897 94.204305 
L 177.241202 99.521794 
L 177.566508 99.499821 
L 177.891813 96.072018 
L 178.217118 98.401166 
L 178.542423 98.664843 
L 178.867728 95.852287 
L 179.193033 98.401166 
L 179.518338 98.137489 
L 179.843644 97.72 
L 180.168949 97.895785 
L 180.494254 95.061256 
L 180.819559 97.983677 
L 181.144864 98.489058 
L 181.470169 95.23704 
L 181.795475 94.995336 
L 182.12078 98.07157 
L 182.446085 98.489058 
L 182.77139 98.511031 
L 183.096695 95.808341 
L 183.422 98.2913 
L 183.747306 98.093543 
L 184.072611 98.862601 
L 184.397916 99.258117 
L 184.723221 99.016413 
L 185.048526 99.082332 
L 185.373831 93.589058 
L 185.699136 99.082332 
L 186.024442 99.016413 
L 186.349747 99.170224 
L 186.675052 98.906547 
L 187.000357 98.225381 
L 187.325662 98.203408 
L 187.650967 98.027623 
L 187.976273 97.258565 
L 188.301578 97.016861 
L 188.952188 97.390404 
L 189.277493 97.214619 
L 189.602798 95.522691 
L 189.928103 98.159462 
L 190.253409 95.061256 
L 190.578714 95.061256 
L 190.904019 97.632108 
L 191.879934 97.500269 
L 192.20524 97.851839 
L 192.530545 98.379193 
L 192.85585 98.35722 
L 193.181155 97.302511 
L 193.50646 97.324484 
L 193.831765 97.1487 
L 194.157071 97.280538 
L 194.482376 96.599372 
L 194.807681 94.204305 
L 195.132986 96.709238 
L 195.458291 96.709238 
L 195.783596 97.1487 
L 196.108901 97.236592 
L 196.434207 96.906996 
L 196.759512 96.841076 
L 197.084817 94.995336 
L 197.410122 96.885022 
L 197.735427 97.126726 
L 198.060732 96.709238 
L 198.386038 97.060807 
L 198.711343 97.060807 
L 199.036648 94.226278 
L 199.361953 97.236592 
L 199.687258 94.577848 
L 200.012563 94.402063 
L 200.337868 96.555426 
L 200.663174 96.775157 
L 200.988479 94.204305 
L 201.313784 97.390404 
L 201.639089 96.621345 
L 201.964394 96.621345 
L 202.289699 96.379641 
L 202.615005 96.401614 
L 202.94031 96.731211 
L 203.265615 96.79713 
L 203.59092 97.324484 
L 203.916225 97.346457 
L 204.24153 94.292197 
L 204.566835 96.863049 
L 204.892141 96.643318 
L 205.217446 96.22583 
L 205.542751 94.072466 
L 205.868056 97.478296 
L 206.193361 97.390404 
L 206.518666 97.829865 
L 206.843972 97.654081 
L 207.169277 98.093543 
L 207.494582 97.566188 
L 207.819887 96.028072 
L 208.470497 95.764395 
L 209.121108 96.445561 
L 209.446413 93.962601 
L 209.771718 93.808789 
L 210.097023 95.742422 
L 210.422328 92.53435 
L 210.747633 95.127175 
L 211.072939 95.368879 
L 211.723549 94.95139 
L 212.048854 95.127175 
L 212.374159 95.127175 
L 212.699464 96.247803 
L 213.02477 95.632556 
L 213.350075 92.732108 
L 213.67538 95.918206 
L 214.000685 93.676951 
L 214.32599 96.753184 
L 214.651295 96.753184 
L 214.9766 96.577399 
L 215.301906 95.720448 
L 215.627211 95.544664 
L 215.952516 92.710135 
L 216.277821 96.137937 
L 216.928431 95.962152 
L 217.253737 96.972915 
L 217.579042 97.566188 
L 217.904347 97.917758 
L 218.229652 92.336592 
L 218.554957 97.390404 
L 219.205567 96.269776 
L 219.530873 96.093991 
L 220.181483 96.863049 
L 220.506788 96.79713 
L 220.832093 95.478744 
L 221.482704 94.907444 
L 221.808009 95.149148 
L 222.133314 95.742422 
L 222.458619 96.093991 
L 223.109229 95.940179 
L 223.434535 95.676502 
L 223.75984 92.754081 
L 224.085145 95.017309 
L 224.41045 94.687713 
L 224.735755 95.544664 
L 225.06106 95.720448 
L 225.386365 95.720448 
L 226.036976 94.841525 
L 226.362281 94.138386 
L 226.687586 94.66574 
L 227.012891 94.753632 
L 227.338196 92.006996 
L 227.663502 94.687713 
L 227.988807 92.358565 
L 228.314112 94.424036 
L 228.639417 94.336143 
L 229.290027 93.808789 
L 229.615332 93.720897 
L 229.940638 93.984574 
L 230.265943 88.754978 
L 230.591248 92.863946 
L 230.916553 93.127623 
L 231.241858 93.567085 
L 231.567163 91.172018 
L 231.892469 94.006547 
L 232.217774 94.072466 
L 232.543079 94.006547 
L 232.868384 91.61148 
L 233.193689 93.918655 
L 233.8443 93.830762 
L 234.169605 93.830762 
L 234.49491 94.424036 
L 234.820215 95.544664 
L 235.14552 95.193094 
L 235.470825 96.15991 
L 235.79613 94.599821 
L 236.121436 94.775605 
L 236.446741 94.424036 
L 236.772046 93.567085 
L 237.097351 91.062152 
L 237.422656 91.150045 
L 237.747961 94.160359 
L 238.073267 94.577848 
L 239.049182 94.907444 
L 239.374487 94.731659 
L 239.699792 94.907444 
L 240.025097 94.687713 
L 240.350403 91.413722 
L 240.675708 91.765291 
L 241.001013 94.248251 
L 241.326318 94.621794 
L 241.976928 92.863946 
L 242.302234 91.985022 
L 242.627539 92.226726 
L 242.952844 89.831659 
L 243.278149 92.754081 
L 243.603454 92.666188 
L 243.928759 89.919552 
L 244.254064 89.919552 
L 244.57937 92.314619 
L 244.904675 93.259462 
L 245.22998 93.10565 
L 245.555285 90.424933 
L 245.88059 93.17157 
L 246.205895 93.17157 
L 246.531201 89.985471 
L 246.856506 92.402511 
L 247.507116 93.896682 
L 247.832421 91.32583 
L 248.157726 93.45722 
L 248.483032 94.292197 
L 249.133642 93.720897 
L 249.458947 93.45722 
L 249.784252 93.347354 
L 250.109557 93.698924 
L 250.760168 93.633004 
L 251.085473 89.392197 
L 251.410778 92.402511 
L 251.736083 92.226726 
L 252.061388 89.48009 
L 252.386693 92.907892 
L 252.711999 92.644215 
L 253.037304 89.897578 
L 253.362609 92.907892 
L 253.687914 90.68861 
L 254.013219 93.720897 
L 254.338524 93.633004 
L 254.663829 90.798475 
L 254.989135 90.622691 
L 255.31444 93.633004 
L 255.639745 93.45722 
L 255.96505 93.545112 
L 256.290355 93.808789 
L 256.61566 92.270673 
L 256.940966 88.645112 
L 257.266271 93.874709 
L 257.591576 93.369327 
L 258.242186 93.74287 
L 258.567491 93.654978 
L 258.892797 93.3913 
L 259.218102 93.874709 
L 259.543407 93.479193 
L 260.194017 93.303408 
L 260.519322 93.3913 
L 260.844627 93.303408 
L 261.169933 94.248251 
L 261.820543 94.66574 
L 262.145848 94.577848 
L 262.471153 94.775605 
L 262.796458 95.105202 
L 263.121764 94.95139 
L 263.447069 88.579193 
L 263.772374 93.74287 
L 264.422984 94.402063 
L 264.748289 94.402063 
L 265.073594 94.599821 
L 265.3989 93.918655 
L 265.724205 90.534798 
L 266.04951 93.3913 
L 266.374815 90.710583 
L 266.70012 94.226278 
L 267.025425 94.819552 
L 267.350731 91.809238 
L 267.676036 93.852735 
L 268.001341 93.764843 
L 268.326646 93.523139 
L 268.651951 93.720897 
L 268.977256 93.193543 
L 269.302561 93.633004 
L 269.627867 90.886368 
L 269.953172 93.633004 
L 270.278477 93.984574 
L 270.603782 91.150045 
L 270.929087 93.808789 
L 271.579698 93.808789 
L 271.905003 93.039731 
L 272.230308 92.622242 
L 272.555613 92.600269 
L 272.880918 92.885919 
L 273.206223 92.885919 
L 273.531529 91.765291 
L 273.856834 91.413722 
L 274.182139 91.919103 
L 274.507444 92.094888 
L 274.832749 89.348251 
L 275.158054 89.172466 
L 275.483359 92.622242 
L 275.808665 90.468879 
L 276.13397 93.984574 
L 276.459275 93.3913 
L 276.78458 93.369327 
L 277.109885 92.995785 
L 277.43519 89.567982 
L 278.085801 92.314619 
L 278.411106 92.336592 
L 278.736411 92.688161 
L 279.061716 92.600269 
L 279.387021 89.76574 
L 279.712326 92.688161 
L 280.037632 92.863946 
L 280.362937 92.688161 
L 280.688242 92.951839 
L 281.338852 92.358565 
L 281.664157 92.424484 
L 281.989463 92.929865 
L 282.314768 92.841973 
L 282.640073 87.194888 
L 282.965378 92.46843 
L 283.290683 91.545561 
L 283.941293 91.963049 
L 284.266599 92.050942 
L 284.591904 89.150493 
L 284.917209 91.633453 
L 285.242514 91.633453 
L 285.567819 89.150493 
L 285.893124 91.89713 
L 286.21843 91.985022 
L 286.543735 89.41417 
L 286.86904 92.050942 
L 287.194345 90.68861 
L 287.51965 85.832556 
L 287.844955 87.722242 
L 288.170261 87.898027 
L 288.820871 89.963498 
L 289.146176 89.633901 
L 289.471481 89.633901 
L 290.122091 90.380987 
L 290.447397 90.380987 
L 290.772702 91.32583 
L 291.098007 91.655426 
L 291.423312 92.446457 
L 291.748617 92.53435 
L 292.399228 92.446457 
L 293.049838 91.677399 
L 293.375143 92.18278 
L 293.700448 92.270673 
L 294.025753 92.578296 
L 294.351058 92.666188 
L 294.676364 92.578296 
L 295.001669 92.138834 
L 295.326974 91.391749 
L 295.652279 87.326726 
L 295.977584 90.161256 
L 296.302889 90.468879 
L 296.628195 90.315067 
L 297.278805 90.842422 
L 297.60411 87.832108 
L 297.929415 91.172018 
L 298.25472 91.567534 
L 298.580026 92.138834 
L 298.905331 92.380538 
L 299.230636 92.028969 
L 299.555941 91.875157 
L 299.881246 91.215964 
L 300.206551 91.128072 
L 300.531856 89.743767 
L 300.857162 92.710135 
L 301.182467 92.600269 
L 301.507772 92.226726 
L 301.833077 92.226726 
L 302.158382 92.402511 
L 302.483687 93.083677 
L 303.134298 92.710135 
L 303.784908 91.655426 
L 304.110213 91.743318 
L 304.435518 92.512377 
L 304.760823 89.677848 
L 305.086129 92.885919 
L 305.411434 91.941076 
L 305.736739 92.336592 
L 306.062044 89.062601 
L 306.387349 92.512377 
L 306.712654 92.754081 
L 307.363265 92.841973 
L 307.68857 93.347354 
L 308.013875 93.259462 
L 308.33918 91.89713 
L 308.664485 92.116861 
L 308.98979 91.567534 
L 309.315096 88.996682 
L 309.640401 91.831211 
L 309.965706 91.919103 
L 310.291011 91.743318 
L 310.616316 91.743318 
L 310.941621 88.996682 
L 311.266927 91.677399 
L 311.592232 90.97426 
L 311.917537 91.062152 
L 312.242842 88.84287 
L 312.568147 91.391749 
L 312.893452 91.831211 
L 313.218758 89.260359 
L 313.544063 90.97426 
L 313.869368 91.237937 
L 314.194673 91.150045 
L 314.519978 91.391749 
L 315.170588 91.501614 
L 315.495894 89.216413 
L 315.821199 92.270673 
L 316.146504 91.567534 
L 316.797114 91.303857 
L 317.77303 92.512377 
L 318.098335 89.41417 
L 318.42364 91.567534 
L 318.748945 91.391749 
L 319.07425 91.765291 
L 319.399555 91.941076 
L 319.724861 89.370224 
L 320.050166 91.347803 
L 320.375471 91.765291 
L 320.700776 91.589507 
L 321.026081 91.237937 
L 321.351386 89.787713 
L 321.676692 90.886368 
L 322.001997 88.315516 
L 322.327302 90.97426 
L 322.652607 88.55722 
L 322.977912 88.425381 
L 323.303217 88.425381 
L 323.628522 90.556771 
L 323.953828 91.391749 
L 324.279133 91.215964 
L 324.604438 91.743318 
L 324.929743 88.645112 
L 325.255048 91.237937 
L 325.580353 91.237937 
L 325.905659 90.468879 
L 326.230964 87.458565 
L 326.556269 90.468879 
L 326.881574 90.996233 
L 327.206879 90.908341 
L 327.532184 91.32583 
L 327.85749 90.97426 
L 328.182795 91.237937 
L 328.5081 91.150045 
L 328.833405 91.413722 
L 329.15871 91.853184 
L 329.484015 91.589507 
L 329.80932 87.876054 
L 330.134626 87.700269 
L 330.459931 90.864395 
L 330.785236 88.403408 
L 331.110541 88.249596 
L 331.435846 90.446906 
L 332.086457 91.040179 
L 332.411762 88.293543 
L 332.737067 91.128072 
L 333.062372 91.128072 
L 333.387677 90.97426 
L 334.038287 90.886368 
L 334.363593 89.853632 
L 334.688898 87.260807 
L 335.014203 90.600717 
L 335.339508 90.68861 
L 335.664813 91.040179 
L 336.640729 89.392197 
L 336.966034 87.788161 
L 337.291339 90.710583 
L 338.267255 91.150045 
L 338.59256 91.25991 
L 338.917865 91.237937 
L 339.24317 91.589507 
L 339.568475 88.403408 
L 339.89378 91.32583 
L 340.219085 91.150045 
L 340.544391 91.128072 
L 340.869696 87.876054 
L 341.195001 90.710583 
L 341.845611 90.710583 
L 342.170916 90.534798 
L 342.496222 90.007444 
L 342.821527 87.260807 
L 343.146832 90.446906 
L 343.472137 91.237937 
L 343.797442 91.237937 
L 344.122747 91.413722 
L 344.448052 88.315516 
L 344.773358 90.534798 
L 345.098663 90.97426 
L 345.423968 90.908341 
L 346.074578 91.765291 
L 346.399883 91.413722 
L 346.725189 91.413722 
L 347.375799 90.183229 
L 347.701104 90.271121 
L 348.026409 90.534798 
L 348.351714 90.622691 
L 348.677019 87.788161 
L 349.002325 90.183229 
L 349.652935 91.303857 
L 349.97824 91.303857 
L 350.303545 90.249148 
L 350.62885 89.985471 
L 351.279461 90.930314 
L 351.604766 88.27157 
L 351.930071 90.842422 
L 352.255376 88.711031 
L 352.580681 91.106099 
L 353.556597 92.995785 
L 353.881902 92.644215 
L 354.207207 86.821345 
L 354.532512 92.226726 
L 354.857817 92.226726 
L 355.183123 92.402511 
L 355.508428 89.216413 
L 355.833733 92.578296 
L 356.159038 92.160807 
L 357.134954 91.545561 
L 357.460259 89.062601 
L 357.785564 91.567534 
L 358.110869 91.919103 
L 358.436174 89.502063 
L 358.761479 91.128072 
L 359.086784 91.677399 
L 359.41209 91.413722 
L 359.737395 89.018655 
L 360.0627 91.765291 
L 360.388005 92.006996 
L 360.71331 92.072915 
L 361.038615 92.006996 
L 361.363921 92.512377 
L 361.689226 88.886816 
L 362.014531 88.139731 
L 362.339836 90.798475 
L 362.665141 90.886368 
L 362.990446 91.237937 
L 364.291667 89.941525 
L 364.942277 90.380987 
L 365.267582 91.128072 
L 365.592888 91.062152 
L 365.918193 91.150045 
L 366.243498 91.062152 
L 366.568803 91.479641 
L 366.894108 91.413722 
L 367.219413 91.853184 
L 367.544719 91.61148 
L 367.870024 92.050942 
L 368.195329 91.875157 
L 368.520634 92.116861 
L 368.845939 92.116861 
L 369.171244 91.32583 
L 369.496549 91.150045 
L 369.821855 91.32583 
L 370.14716 91.150045 
L 370.472465 91.237937 
L 370.79777 91.589507 
L 371.123075 91.501614 
L 371.44838 91.589507 
L 371.773686 91.106099 
L 372.098991 91.172018 
L 372.424296 88.425381 
L 372.749601 90.644664 
L 373.074906 89.963498 
L 373.400211 89.875605 
L 373.725516 90.139283 
L 375.352042 90.578744 
L 375.677347 90.468879 
L 376.327958 90.710583 
L 376.653263 90.380987 
L 376.978568 87.458565 
L 377.303873 87.370673 
L 377.629178 89.589955 
L 377.954484 90.468879 
L 378.279789 90.380987 
L 378.605094 90.886368 
L 379.255704 90.380987 
L 379.581009 90.468879 
L 380.23162 90.117309 
L 380.556925 90.798475 
L 380.88223 88.073812 
L 381.207535 91.589507 
L 381.53284 91.677399 
L 381.858145 91.501614 
L 382.183451 92.204753 
L 382.508756 91.589507 
L 382.834061 91.303857 
L 383.159366 88.579193 
L 383.484671 91.479641 
L 383.809976 91.501614 
L 384.135281 86.07426 
L 384.460587 91.32583 
L 385.111197 91.150045 
L 385.436502 90.798475 
L 385.761807 90.029417 
L 386.412418 90.97426 
L 386.737723 90.97426 
L 387.063028 91.237937 
L 387.388333 88.4913 
L 387.713638 91.062152 
L 388.689554 91.128072 
L 389.014859 90.798475 
L 389.340164 90.644664 
L 389.665469 90.644664 
L 389.990774 90.996233 
L 390.316079 88.84287 
L 390.641385 91.919103 
L 390.96669 90.776502 
L 391.291995 90.161256 
L 391.6173 90.33704 
L 391.942605 90.249148 
L 392.26791 90.600717 
L 392.593216 90.776502 
L 392.918521 90.776502 
L 393.243826 91.040179 
L 393.569131 91.831211 
L 393.894436 91.919103 
L 394.219741 90.556771 
L 394.545046 90.293094 
L 394.870352 90.622691 
L 395.195657 87.414619 
L 395.520962 90.68861 
L 395.846267 90.952287 
L 396.171572 90.952287 
L 396.822183 85.371121 
L 397.147488 91.589507 
L 397.472793 88.733004 
L 397.798098 90.424933 
L 398.123403 90.512825 
L 398.448708 88.029865 
L 398.774013 88.117758 
L 399.099319 90.600717 
L 399.424624 90.776502 
L 399.749929 90.512825 
L 400.075234 89.743767 
L 400.400539 90.446906 
L 400.725844 90.359013 
L 401.05115 91.150045 
L 401.376455 91.062152 
L 401.70176 90.622691 
L 402.027065 90.534798 
L 402.35237 90.622691 
L 403.002981 89.853632 
L 403.328286 90.029417 
L 403.653591 89.941525 
L 404.304201 90.864395 
L 404.954811 89.194439 
L 405.605422 88.403408 
L 405.930727 88.381435 
L 406.256032 89.062601 
L 407.231948 90.249148 
L 407.557253 90.073363 
L 407.882558 89.743767 
L 408.207863 90.33704 
L 408.533168 90.183229 
L 408.858473 90.33704 
L 409.183778 87.502511 
L 409.509084 87.085022 
L 409.834389 83.547354 
L 410.159694 90.095336 
L 410.484999 90.271121 
L 410.810304 89.831659 
L 411.135609 90.446906 
L 411.460915 90.710583 
L 411.78622 88.227623 
L 412.111525 90.622691 
L 412.43683 87.546457 
L 412.762135 90.380987 
L 413.08744 90.271121 
L 413.412745 90.68861 
L 413.738051 90.864395 
L 414.388661 90.864395 
L 414.713966 91.391749 
L 415.039271 91.567534 
L 415.364576 88.535247 
L 415.689882 91.457668 
L 416.015187 90.952287 
L 416.340492 90.776502 
L 416.991102 90.864395 
L 417.316407 90.534798 
L 417.641713 91.106099 
L 417.967018 91.193991 
L 418.292323 91.743318 
L 418.617628 89.436143 
L 418.942933 92.2487 
L 419.268238 92.2487 
L 419.593543 91.743318 
L 419.918849 91.743318 
L 420.569459 91.413722 
L 421.220069 90.710583 
L 421.545374 90.864395 
L 421.87068 90.68861 
L 422.195985 91.040179 
L 422.52129 90.446906 
L 422.846595 90.644664 
L 423.1719 91.150045 
L 423.497205 91.150045 
L 423.82251 91.567534 
L 424.147816 90.864395 
L 424.473121 88.20565 
L 424.798426 90.952287 
L 425.123731 90.798475 
L 425.449036 91.128072 
L 425.774341 90.776502 
L 426.099647 90.930314 
L 426.424952 91.281883 
L 426.750257 91.018206 
L 427.075562 85.063498 
L 427.726172 90.534798 
L 428.051478 90.622691 
L 428.702088 90.249148 
L 429.027393 89.743767 
L 429.352698 89.897578 
L 429.678003 87.238834 
L 430.003308 90.424933 
L 430.328614 91.369776 
L 430.653919 89.897578 
L 430.979224 89.655874 
L 431.304529 89.567982 
L 431.629834 86.909238 
L 431.955139 87.260807 
L 432.280445 89.743767 
L 432.931055 89.831659 
L 433.25636 90.622691 
L 433.581665 90.622691 
L 433.90697 90.798475 
L 434.232275 88.051839 
L 434.557581 87.963946 
L 434.882886 89.941525 
L 435.208191 88.20565 
L 435.533496 88.381435 
L 435.858801 88.381435 
L 436.184106 86.228072 
L 436.509412 88.974709 
L 436.834717 88.447354 
L 437.160022 87.238834 
L 437.485327 87.194888 
L 438.135937 88.27157 
L 438.461242 88.007892 
L 438.786548 88.117758 
L 439.111853 88.029865 
L 439.437158 88.776951 
L 440.087768 88.007892 
L 440.738379 87.941973 
L 441.388989 87.28278 
L 441.714294 87.370673 
L 442.69021 87.128969 
L 443.015515 86.71148 
L 443.34082 87.128969 
L 443.666125 84.624036 
L 443.99143 87.326726 
L 444.316735 87.656323 
L 444.64204 85.173363 
L 444.967346 88.403408 
L 445.292651 85.656771 
L 445.617956 88.403408 
L 445.943261 88.403408 
L 446.268566 88.974709 
L 446.593871 88.996682 
L 446.919177 89.589955 
L 447.244482 89.502063 
L 447.569787 89.655874 
L 447.895092 88.667085 
L 448.220397 86.513722 
L 448.545702 81.591749 
L 448.871007 83.239731 
L 449.196313 81.17426 
L 449.521618 84.184574 
L 449.846923 84.272466 
L 450.172228 81.218206 
L 450.497533 80.734798 
L 450.822838 80.493094 
L 451.148144 83.811031 
L 451.473449 84.382332 
L 452.124059 84.470224 
L 452.449364 81.81148 
L 452.774669 84.558117 
L 453.099974 84.558117 
L 453.42528 81.987265 
L 453.750585 84.909686 
L 454.07589 85.261256 
L 454.401195 85.261256 
L 454.7265 85.43704 
L 455.377111 85.261256 
L 455.702416 84.909686 
L 456.027721 84.382332 
L 456.353026 85.349148 
L 457.003636 85.371121 
L 457.654247 83.085919 
L 458.304857 82.228969 
L 458.630162 78.12 
L 458.955467 80.866637 
L 459.606078 81.877399 
L 459.931383 83.481435 
L 460.256688 83.393543 
L 460.581993 83.65722 
L 460.907298 83.5913 
L 461.232603 83.679193 
L 461.557909 83.327623 
L 461.883214 83.151839 
L 462.208519 84.338386 
L 462.533824 86.909238 
L 463.184434 86.99713 
L 463.509739 86.733453 
L 463.835045 86.667534 
L 464.16035 83.393543 
L 464.485655 85.415067 
L 464.81096 82.404753 
L 465.136265 85.920448 
L 465.46157 85.656771 
L 465.786876 86.579641 
L 466.437486 86.667534 
L 466.762791 86.755426 
L 467.088096 84.733901 
L 467.413401 87.041076 
L 467.738707 87.106996 
L 468.064012 87.019103 
L 468.389317 87.106996 
L 468.714622 87.810135 
L 469.039927 84.536143 
L 469.365232 87.28278 
L 469.690537 88.139731 
L 470.015843 82.624484 
L 470.341148 89.238386 
L 471.967674 88.733004 
L 472.292979 86.99713 
L 472.618284 89.743767 
L 472.943589 86.667534 
L 473.268894 89.062601 
L 473.594199 88.337489 
L 473.919504 88.095785 
L 474.89542 88.908789 
L 475.220725 88.820897 
L 475.871335 88.007892 
L 476.196641 88.029865 
L 476.521946 84.909686 
L 476.847251 88.27157 
L 477.172556 85.854529 
L 477.497861 88.930762 
L 477.823166 88.84287 
L 478.148471 89.963498 
L 478.473777 87.963946 
L 479.124387 87.612377 
L 479.449692 88.051839 
L 479.774997 88.886816 
L 480.100302 88.974709 
L 480.425608 88.798924 
L 480.750913 88.403408 
L 481.076218 88.579193 
L 481.401523 88.315516 
L 481.726828 85.063498 
L 482.052133 88.337489 
L 482.377439 88.249596 
L 482.702744 87.810135 
L 483.353354 88.20565 
L 483.678659 85.129417 
L 484.003964 88.227623 
L 484.329269 88.667085 
L 484.654575 87.898027 
L 485.955795 88.249596 
L 486.2811 88.579193 
L 486.606406 88.579193 
L 486.931711 89.018655 
L 487.257016 88.930762 
L 487.582321 89.370224 
L 487.907626 89.436143 
L 488.232931 88.996682 
L 488.558236 89.084574 
L 488.883542 87.876054 
L 489.208847 87.260807 
L 489.534152 87.788161 
L 489.859457 87.963946 
L 490.184762 87.963946 
L 490.510067 85.744664 
L 490.835373 88.403408 
L 491.485983 87.128969 
L 491.811288 87.700269 
L 492.461898 87.260807 
L 492.787203 87.436592 
L 493.112509 87.436592 
L 493.437814 84.689955 
L 493.763119 88.051839 
L 494.088424 87.56843 
L 494.413729 87.744215 
L 494.739034 88.249596 
L 495.06434 85.327175 
L 495.389645 87.216861 
L 495.71495 86.689507 
L 496.040255 86.623587 
L 496.690865 87.414619 
L 497.016171 87.414619 
L 497.341476 86.975157 
L 497.666781 86.799372 
L 497.992086 84.733901 
L 498.317391 87.63435 
L 498.642696 87.963946 
L 498.968001 87.612377 
L 499.293307 82.360807 
L 499.618612 87.854081 
L 499.943917 87.854081 
L 500.269222 87.458565 
L 500.594527 88.337489 
L 500.919832 85.327175 
L 501.245138 88.689058 
L 501.895748 88.425381 
L 502.221053 88.579193 
L 502.546358 85.744664 
L 502.871663 87.963946 
L 503.196968 82.822242 
L 503.522274 88.996682 
L 503.847579 86.096233 
L 504.172884 88.754978 
L 504.498189 85.920448 
L 504.823494 88.667085 
L 505.474105 88.754978 
L 505.79941 88.337489 
L 506.124715 88.513274 
L 506.45002 85.634798 
L 506.775325 85.744664 
L 507.10063 88.996682 
L 507.425936 88.754978 
L 507.751241 88.667085 
L 508.076546 88.754978 
L 508.401851 88.513274 
L 509.052461 87.678296 
L 509.377766 88.007892 
L 510.028377 87.92 
L 510.353682 87.832108 
L 510.678987 88.007892 
L 511.004292 82.602511 
L 511.329597 87.92 
L 511.654903 87.216861 
L 511.980208 87.128969 
L 512.305513 87.216861 
L 512.630818 87.480538 
L 512.956123 87.304753 
L 513.281428 87.722242 
L 513.606733 84.382332 
L 513.932039 86.931211 
L 514.582649 87.194888 
L 514.907954 87.370673 
L 515.558564 87.28278 
L 515.88387 84.624036 
L 516.209175 84.975605 
L 516.53448 87.678296 
L 516.859785 87.304753 
L 517.18509 87.392646 
L 517.510395 87.216861 
L 517.8357 86.513722 
L 518.161006 86.513722 
L 518.486311 87.041076 
L 518.811616 87.041076 
L 519.136921 87.546457 
L 519.787531 87.722242 
L 520.112837 87.304753 
L 520.438142 87.656323 
L 520.763447 87.041076 
L 521.088752 86.953184 
L 521.414057 87.392646 
L 521.739362 87.458565 
L 522.064668 87.898027 
L 522.389973 85.239283 
L 522.715278 87.92 
L 523.040583 88.403408 
L 523.365888 88.293543 
L 523.691193 88.754978 
L 524.016498 85.898475 
L 524.341804 88.073812 
L 524.992414 87.985919 
L 525.643024 88.579193 
L 526.293635 81.81148 
L 526.61894 81.613722 
L 526.944245 87.546457 
L 527.26955 87.370673 
L 527.594855 87.458565 
L 527.92016 87.28278 
L 528.245465 88.403408 
L 528.570771 88.579193 
L 528.896076 88.579193 
L 529.221381 88.754978 
L 530.197296 88.84287 
L 530.847907 87.216861 
L 531.173212 87.656323 
L 531.498517 87.656323 
L 531.823822 87.480538 
L 532.149127 87.480538 
L 532.474433 87.216861 
L 532.799738 86.601614 
L 533.125043 86.513722 
L 533.450348 81.218206 
L 533.775653 86.513722 
L 534.100958 87.63435 
L 534.751569 87.480538 
L 535.076874 87.56843 
L 535.402179 87.480538 
L 535.727484 81.723587 
L 536.052789 87.063049 
L 536.378094 87.304753 
L 536.7034 86.975157 
L 537.028705 87.150942 
L 537.35401 86.975157 
L 538.00462 87.480538 
L 538.329925 87.304753 
L 538.65523 86.272018 
L 538.980536 86.689507 
L 539.305841 86.777399 
L 539.631146 87.041076 
L 539.956451 87.106996 
L 540.281756 86.777399 
L 540.607061 83.437489 
L 540.932367 86.535695 
L 541.257672 84.799821 
L 541.582977 88.667085 
L 541.908282 88.315516 
L 542.233587 85.568879 
L 542.558892 88.4913 
L 542.884197 86.337937 
L 543.209503 89.326278 
L 543.534808 89.062601 
L 543.860113 89.853632 
L 544.510723 89.611928 
L 544.836028 88.293543 
L 545.161334 88.55722 
L 545.486639 88.55722 
L 545.811944 88.820897 
L 546.137249 86.07426 
L 546.462554 88.55722 
L 546.787859 88.073812 
L 547.113165 87.810135 
L 547.43847 88.579193 
L 547.763775 86.07426 
L 548.08908 89.106547 
L 548.414385 88.84287 
L 548.73969 86.030314 
L 549.064995 85.942422 
L 549.390301 88.864843 
L 550.040911 88.689058 
L 550.366216 86.799372 
L 550.691521 89.611928 
L 551.016826 89.611928 
L 551.342132 89.370224 
L 551.667437 89.633901 
L 551.992742 89.633901 
L 552.318047 87.128969 
L 552.643352 86.777399 
L 552.968657 88.996682 
L 553.293962 85.898475 
L 553.619268 88.908789 
L 553.944573 86.140179 
L 554.269878 89.172466 
L 554.595183 89.172466 
L 554.920488 88.908789 
L 555.245793 85.898475 
L 555.571099 88.974709 
L 555.896404 86.315964 
L 556.221709 89.150493 
L 556.547014 89.589955 
L 556.872319 89.524036 
L 557.197624 89.76574 
L 557.522929 89.062601 
L 557.848235 88.996682 
L 558.498845 89.436143 
L 558.82415 89.787713 
L 559.47476 84.030762 
L 559.800066 89.677848 
L 560.125371 89.831659 
L 560.450676 87.260807 
L 560.775981 87.238834 
L 561.101286 90.095336 
L 561.426591 89.809686 
L 561.751897 87.085022 
L 562.077202 89.831659 
L 562.727812 89.831659 
L 563.053117 89.018655 
L 563.378422 89.677848 
L 563.703727 89.853632 
L 564.029033 89.699821 
L 564.354338 89.76574 
L 564.679643 90.183229 
L 565.004948 90.029417 
L 565.330253 87.260807 
L 565.655558 89.743767 
L 565.980864 89.743767 
L 566.306169 90.205202 
L 566.631474 87.3487 
L 566.956779 90.952287 
L 567.282084 88.20565 
L 567.607389 90.952287 
L 567.932694 91.369776 
L 568.258 91.457668 
L 568.583305 88.535247 
L 568.90861 91.281883 
L 569.233915 90.161256 
L 569.55922 89.897578 
L 569.884525 89.963498 
L 570.209831 89.809686 
L 570.535136 89.809686 
L 570.860441 89.985471 
L 571.185746 89.985471 
L 571.511051 90.864395 
L 571.836356 90.33704 
L 572.161662 87.524484 
L 572.486967 90.622691 
L 573.137577 90.161256 
L 573.462882 89.875605 
L 574.438798 89.699821 
L 574.764103 89.875605 
L 575.089408 89.084574 
L 575.740018 86.315964 
L 576.065323 85.634798 
L 576.390629 87.194888 
L 577.366544 87.106996 
L 577.691849 83.833004 
L 578.017154 83.5913 
L 578.342459 86.755426 
L 578.667765 87.172915 
L 579.318375 87.436592 
L 579.64368 87.436592 
L 579.968985 87.612377 
L 580.29429 84.777848 
L 580.619596 84.250493 
L 580.944901 87.436592 
L 581.270206 87.963946 
L 581.595511 85.634798 
L 581.920816 88.293543 
L 582.246121 88.183677 
L 582.571426 87.722242 
L 583.222037 87.524484 
L 583.547342 87.678296 
L 583.872647 88.161704 
L 584.197952 87.590404 
L 584.523257 87.590404 
L 584.848563 87.941973 
L 585.173868 88.029865 
L 585.499173 85.305202 
L 585.824478 86.07426 
L 586.149783 88.029865 
L 586.475088 88.117758 
L 586.800394 88.051839 
L 587.451004 88.117758 
L 588.101614 89.326278 
L 588.426919 89.41417 
L 588.752224 86.250045 
L 589.07753 88.711031 
L 589.402835 85.898475 
L 589.72814 89.150493 
L 590.053445 89.260359 
L 590.37875 89.106547 
L 590.704055 89.084574 
L 591.029361 88.820897 
L 591.354666 88.820897 
L 591.679971 86.07426 
L 592.005276 89.084574 
L 592.655886 89.941525 
L 593.306497 89.875605 
L 593.957107 88.645112 
L 594.607717 88.55722 
L 595.258328 88.996682 
L 595.583633 88.029865 
L 595.908938 87.414619 
L 596.234243 87.590404 
L 596.559548 88.117758 
L 596.884853 88.20565 
L 597.535464 89.831659 
L 597.860769 89.48009 
L 598.186074 89.48009 
L 598.511379 88.667085 
L 598.836684 85.327175 
L 599.161989 88.161704 
L 599.487295 88.403408 
L 599.8126 88.315516 
L 600.137905 85.393094 
L 600.46321 88.513274 
L 600.788515 85.766637 
L 601.11382 88.425381 
L 601.439126 88.908789 
L 601.764431 88.930762 
L 602.089736 88.754978 
L 602.415041 85.590852 
L 602.740346 88.425381 
L 603.065651 88.403408 
L 603.390956 85.129417 
L 603.716262 88.315516 
L 604.041567 88.579193 
L 604.366872 88.667085 
L 604.692177 86.337937 
L 605.017482 88.733004 
L 605.342787 87.876054 
L 605.668093 88.051839 
L 606.318703 86.777399 
L 606.644008 86.513722 
L 606.969313 86.953184 
L 607.294618 84.558117 
L 607.619923 87.304753 
L 607.945229 86.250045 
L 608.270534 86.162152 
L 608.595839 86.42583 
L 608.921144 85.656771 
L 609.246449 85.810583 
L 609.89706 85.832556 
L 610.222365 87.128969 
L 610.54767 86.513722 
L 610.872975 86.42583 
L 611.19828 86.206099 
L 611.523585 85.173363 
L 611.848891 84.558117 
L 612.499501 84.558117 
L 612.824806 81.987265 
L 613.150111 84.821794 
L 613.475416 84.997578 
L 613.800721 85.590852 
L 614.126027 85.590852 
L 614.451332 83.195785 
L 614.776637 85.942422 
L 615.101942 83.547354 
L 615.427247 87.832108 
L 615.752552 88.249596 
L 616.077858 88.425381 
L 619.005604 88.513274 
L 619.330909 85.766637 
L 619.330909 85.766637 
" style="fill:none;stroke:#1f77b4;stroke-linecap:square;stroke-width:1.5;"/>
   </g>
   <g id="patch_3">
    <path d="M 108 448.56 
L 108 60.48 
" style="fill:none;stroke:#000000;stroke-linecap:square;stroke-linejoin:miter;stroke-width:0.8;"/>
   </g>
   <g id="patch_4">
    <path d="M 643.68 448.56 
L 643.68 60.48 
" style="fill:none;stroke:#000000;stroke-linecap:square;stroke-linejoin:miter;stroke-width:0.8;"/>
   </g>
   <g id="patch_5">
    <path d="M 108 448.56 
L 643.68 448.56 
" style="fill:none;stroke:#000000;stroke-linecap:square;stroke-linejoin:miter;stroke-width:0.8;"/>
   </g>
   <g id="patch_6">
    <path d="M 108 60.48 
L 643.68 60.48 
" style="fill:none;stroke:#000000;stroke-linecap:square;stroke-linejoin:miter;stroke-width:0.8;"/>
   </g>
   <g id="text_19">
    <!-- docker - stats -->
    <g transform="translate(324.832969 54.48)scale(0.15 -0.15)">
     <defs>
      <path d="M 45.40625 46.390625 
L 45.40625 75.984375 
L 54.390625 75.984375 
L 54.390625 0 
L 45.40625 0 
L 45.40625 8.203125 
Q 42.578125 3.328125 38.25 0.953125 
Q 33.9375 -1.421875 27.875 -1.421875 
Q 17.96875 -1.421875 11.734375 6.484375 
Q 5.515625 14.40625 5.515625 27.296875 
Q 5.515625 40.1875 11.734375 48.09375 
Q 17.96875 56 27.875 56 
Q 33.9375 56 38.25 53.625 
Q 42.578125 51.265625 45.40625 46.390625 
z
M 14.796875 27.296875 
Q 14.796875 17.390625 18.875 11.75 
Q 22.953125 6.109375 30.078125 6.109375 
Q 37.203125 6.109375 41.296875 11.75 
Q 45.40625 17.390625 45.40625 27.296875 
Q 45.40625 37.203125 41.296875 42.84375 
Q 37.203125 48.484375 30.078125 48.484375 
Q 22.953125 48.484375 18.875 42.84375 
Q 14.796875 37.203125 14.796875 27.296875 
z
" id="DejaVuSans-100"/>
      <path d="M 30.609375 48.390625 
Q 23.390625 48.390625 19.1875 42.75 
Q 14.984375 37.109375 14.984375 27.296875 
Q 14.984375 17.484375 19.15625 11.84375 
Q 23.34375 6.203125 30.609375 6.203125 
Q 37.796875 6.203125 41.984375 11.859375 
Q 46.1875 17.53125 46.1875 27.296875 
Q 46.1875 37.015625 41.984375 42.703125 
Q 37.796875 48.390625 30.609375 48.390625 
z
M 30.609375 56 
Q 42.328125 56 49.015625 48.375 
Q 55.71875 40.765625 55.71875 27.296875 
Q 55.71875 13.875 49.015625 6.21875 
Q 42.328125 -1.421875 30.609375 -1.421875 
Q 18.84375 -1.421875 12.171875 6.21875 
Q 5.515625 13.875 5.515625 27.296875 
Q 5.515625 40.765625 12.171875 48.375 
Q 18.84375 56 30.609375 56 
z
" id="DejaVuSans-111"/>
      <path d="M 48.78125 52.59375 
L 48.78125 44.1875 
Q 44.96875 46.296875 41.140625 47.34375 
Q 37.3125 48.390625 33.40625 48.390625 
Q 24.65625 48.390625 19.8125 42.84375 
Q 14.984375 37.3125 14.984375 27.296875 
Q 14.984375 17.28125 19.8125 11.734375 
Q 24.65625 6.203125 33.40625 6.203125 
Q 37.3125 6.203125 41.140625 7.25 
Q 44.96875 8.296875 48.78125 10.40625 
L 48.78125 2.09375 
Q 45.015625 0.34375 40.984375 -0.53125 
Q 36.96875 -1.421875 32.421875 -1.421875 
Q 20.0625 -1.421875 12.78125 6.34375 
Q 5.515625 14.109375 5.515625 27.296875 
Q 5.515625 40.671875 12.859375 48.328125 
Q 20.21875 56 33.015625 56 
Q 37.15625 56 41.109375 55.140625 
Q 45.0625 54.296875 48.78125 52.59375 
z
" id="DejaVuSans-99"/>
      <path d="M 9.078125 75.984375 
L 18.109375 75.984375 
L 18.109375 31.109375 
L 44.921875 54.6875 
L 56.390625 54.6875 
L 27.390625 29.109375 
L 57.625 0 
L 45.90625 0 
L 18.109375 26.703125 
L 18.109375 0 
L 9.078125 0 
z
" id="DejaVuSans-107"/>
      <path d="M 41.109375 46.296875 
Q 39.59375 47.171875 37.8125 47.578125 
Q 36.03125 48 33.890625 48 
Q 26.265625 48 22.1875 43.046875 
Q 18.109375 38.09375 18.109375 28.8125 
L 18.109375 0 
L 9.078125 0 
L 9.078125 54.6875 
L 18.109375 54.6875 
L 18.109375 46.1875 
Q 20.953125 51.171875 25.484375 53.578125 
Q 30.03125 56 36.53125 56 
Q 37.453125 56 38.578125 55.875 
Q 39.703125 55.765625 41.0625 55.515625 
z
" id="DejaVuSans-114"/>
      <path id="DejaVuSans-32"/>
      <path d="M 4.890625 31.390625 
L 31.203125 31.390625 
L 31.203125 23.390625 
L 4.890625 23.390625 
z
" id="DejaVuSans-45"/>
     </defs>
     <use xlink:href="#DejaVuSans-100"/>
     <use x="63.476562" xlink:href="#DejaVuSans-111"/>
     <use x="124.658203" xlink:href="#DejaVuSans-99"/>
     <use x="179.638672" xlink:href="#DejaVuSans-107"/>
     <use x="233.923828" xlink:href="#DejaVuSans-101"/>
     <use x="295.447266" xlink:href="#DejaVuSans-114"/>
     <use x="336.560547" xlink:href="#DejaVuSans-32"/>
     <use x="368.347656" xlink:href="#DejaVuSans-45"/>
     <use x="404.431641" xlink:href="#DejaVuSans-32"/>
     <use x="436.21875" xlink:href="#DejaVuSans-115"/>
     <use x="488.318359" xlink:href="#DejaVuSans-116"/>
     <use x="527.527344" xlink:href="#DejaVuSans-97"/>
     <use x="588.806641" xlink:href="#DejaVuSans-116"/>
     <use x="628.015625" xlink:href="#DejaVuSans-115"/>
    </g>
   </g>
   <g id="legend_1">
    <g id="patch_7">
     <path d="M 650.68 258.52 
L 654.68 258.52 
Q 656.68 258.52 656.68 256.52 
L 656.68 252.52 
Q 656.68 250.52 654.68 250.52 
L 650.68 250.52 
Q 648.68 250.52 648.68 252.52 
L 648.68 256.52 
Q 648.68 258.52 650.68 258.52 
z
" style="fill:#ffffff;opacity:0.8;stroke:#cccccc;stroke-linejoin:miter;"/>
    </g>
   </g>
  </g>
 </g>
 <defs>
  <clipPath id="p917a02b0bf">
   <rect height="388.08" width="535.68" x="108" y="60.48"/>
  </clipPath>
 </defs>
</svg>
