<?xml version="1.0" encoding="utf-8" standalone="no"?>
<!DOCTYPE svg PUBLIC "-//W3C//DTD SVG 1.1//EN"
  "http://www.w3.org/Graphics/SVG/1.1/DTD/svg11.dtd">
<!-- Created with matplotlib (https://matplotlib.org/) -->
<svg height="504pt" version="1.1" viewBox="0 0 864 504" width="864pt" xmlns="http://www.w3.org/2000/svg" xmlns:xlink="http://www.w3.org/1999/xlink">
 <metadata>
  <rdf:RDF xmlns:cc="http://creativecommons.org/ns#" xmlns:dc="http://purl.org/dc/elements/1.1/" xmlns:rdf="http://www.w3.org/1999/02/22-rdf-syntax-ns#">
   <cc:Work>
    <dc:type rdf:resource="http://purl.org/dc/dcmitype/StillImage"/>
    <dc:date>2022-05-29T17:21:45.784287</dc:date>
    <dc:format>image/svg+xml</dc:format>
    <dc:creator>
     <cc:Agent>
      <dc:title>Matplotlib v3.3.4, https://matplotlib.org/</dc:title>
     </cc:Agent>
    </dc:creator>
   </cc:Work>
  </rdf:RDF>
 </metadata>
 <defs>
  <style type="text/css">*{stroke-linecap:butt;stroke-linejoin:round;}</style>
 </defs>
 <g id="figure_1">
  <g id="patch_1">
   <path d="M 0 504 
L 864 504 
L 864 0 
L 0 0 
z
" style="fill:#ffffff;"/>
  </g>
  <g id="axes_1">
   <g id="patch_2">
    <path d="M 108 448.56 
L 643.68 448.56 
L 643.68 60.48 
L 108 60.48 
z
" style="fill:#ffffff;"/>
   </g>
   <g id="matplotlib.axis_1">
    <g id="xtick_1">
     <g id="line2d_1">
      <defs>
       <path d="M 0 0 
L 0 3.5 
" id="me1215c00ed" style="stroke:#000000;stroke-width:0.8;"/>
      </defs>
      <g>
       <use style="stroke:#000000;stroke-width:0.8;" x="132.349091" xlink:href="#me1215c00ed" y="448.56"/>
      </g>
     </g>
     <g id="text_1">
      <!-- 17:07:47 -->
      <g transform="translate(135.108466 500.4725)rotate(-90)scale(0.1 -0.1)">
       <defs>
        <path d="M 12.40625 8.296875 
L 28.515625 8.296875 
L 28.515625 63.921875 
L 10.984375 60.40625 
L 10.984375 69.390625 
L 28.421875 72.90625 
L 38.28125 72.90625 
L 38.28125 8.296875 
L 54.390625 8.296875 
L 54.390625 0 
L 12.40625 0 
z
" id="DejaVuSans-49"/>
        <path d="M 8.203125 72.90625 
L 55.078125 72.90625 
L 55.078125 68.703125 
L 28.609375 0 
L 18.3125 0 
L 43.21875 64.59375 
L 8.203125 64.59375 
z
" id="DejaVuSans-55"/>
        <path d="M 11.71875 12.40625 
L 22.015625 12.40625 
L 22.015625 0 
L 11.71875 0 
z
M 11.71875 51.703125 
L 22.015625 51.703125 
L 22.015625 39.3125 
L 11.71875 39.3125 
z
" id="DejaVuSans-58"/>
        <path d="M 31.78125 66.40625 
Q 24.171875 66.40625 20.328125 58.90625 
Q 16.5 51.421875 16.5 36.375 
Q 16.5 21.390625 20.328125 13.890625 
Q 24.171875 6.390625 31.78125 6.390625 
Q 39.453125 6.390625 43.28125 13.890625 
Q 47.125 21.390625 47.125 36.375 
Q 47.125 51.421875 43.28125 58.90625 
Q 39.453125 66.40625 31.78125 66.40625 
z
M 31.78125 74.21875 
Q 44.046875 74.21875 50.515625 64.515625 
Q 56.984375 54.828125 56.984375 36.375 
Q 56.984375 17.96875 50.515625 8.265625 
Q 44.046875 -1.421875 31.78125 -1.421875 
Q 19.53125 -1.421875 13.0625 8.265625 
Q 6.59375 17.96875 6.59375 36.375 
Q 6.59375 54.828125 13.0625 64.515625 
Q 19.53125 74.21875 31.78125 74.21875 
z
" id="DejaVuSans-48"/>
        <path d="M 37.796875 64.3125 
L 12.890625 25.390625 
L 37.796875 25.390625 
z
M 35.203125 72.90625 
L 47.609375 72.90625 
L 47.609375 25.390625 
L 58.015625 25.390625 
L 58.015625 17.1875 
L 47.609375 17.1875 
L 47.609375 0 
L 37.796875 0 
L 37.796875 17.1875 
L 4.890625 17.1875 
L 4.890625 26.703125 
z
" id="DejaVuSans-52"/>
       </defs>
       <use xlink:href="#DejaVuSans-49"/>
       <use x="63.623047" xlink:href="#DejaVuSans-55"/>
       <use x="127.246094" xlink:href="#DejaVuSans-58"/>
       <use x="160.9375" xlink:href="#DejaVuSans-48"/>
       <use x="224.560547" xlink:href="#DejaVuSans-55"/>
       <use x="288.183594" xlink:href="#DejaVuSans-58"/>
       <use x="321.875" xlink:href="#DejaVuSans-52"/>
       <use x="385.498047" xlink:href="#DejaVuSans-55"/>
      </g>
     </g>
    </g>
    <g id="xtick_2">
     <g id="line2d_2">
      <g>
       <use style="stroke:#000000;stroke-width:0.8;" x="156.426883" xlink:href="#me1215c00ed" y="448.56"/>
      </g>
     </g>
     <g id="text_2">
      <!-- 17:09:10 -->
      <g transform="translate(159.186258 500.4725)rotate(-90)scale(0.1 -0.1)">
       <defs>
        <path d="M 10.984375 1.515625 
L 10.984375 10.5 
Q 14.703125 8.734375 18.5 7.8125 
Q 22.3125 6.890625 25.984375 6.890625 
Q 35.75 6.890625 40.890625 13.453125 
Q 46.046875 20.015625 46.78125 33.40625 
Q 43.953125 29.203125 39.59375 26.953125 
Q 35.25 24.703125 29.984375 24.703125 
Q 19.046875 24.703125 12.671875 31.3125 
Q 6.296875 37.9375 6.296875 49.421875 
Q 6.296875 60.640625 12.9375 67.421875 
Q 19.578125 74.21875 30.609375 74.21875 
Q 43.265625 74.21875 49.921875 64.515625 
Q 56.59375 54.828125 56.59375 36.375 
Q 56.59375 19.140625 48.40625 8.859375 
Q 40.234375 -1.421875 26.421875 -1.421875 
Q 22.703125 -1.421875 18.890625 -0.6875 
Q 15.09375 0.046875 10.984375 1.515625 
z
M 30.609375 32.421875 
Q 37.25 32.421875 41.125 36.953125 
Q 45.015625 41.5 45.015625 49.421875 
Q 45.015625 57.28125 41.125 61.84375 
Q 37.25 66.40625 30.609375 66.40625 
Q 23.96875 66.40625 20.09375 61.84375 
Q 16.21875 57.28125 16.21875 49.421875 
Q 16.21875 41.5 20.09375 36.953125 
Q 23.96875 32.421875 30.609375 32.421875 
z
" id="DejaVuSans-57"/>
       </defs>
       <use xlink:href="#DejaVuSans-49"/>
       <use x="63.623047" xlink:href="#DejaVuSans-55"/>
       <use x="127.246094" xlink:href="#DejaVuSans-58"/>
       <use x="160.9375" xlink:href="#DejaVuSans-48"/>
       <use x="224.560547" xlink:href="#DejaVuSans-57"/>
       <use x="288.183594" xlink:href="#DejaVuSans-58"/>
       <use x="321.875" xlink:href="#DejaVuSans-49"/>
       <use x="385.498047" xlink:href="#DejaVuSans-48"/>
      </g>
     </g>
    </g>
    <g id="xtick_3">
     <g id="line2d_3">
      <g>
       <use style="stroke:#000000;stroke-width:0.8;" x="180.504675" xlink:href="#me1215c00ed" y="448.56"/>
      </g>
     </g>
     <g id="text_3">
      <!-- 17:10:34 -->
      <g transform="translate(183.26405 500.4725)rotate(-90)scale(0.1 -0.1)">
       <defs>
        <path d="M 40.578125 39.3125 
Q 47.65625 37.796875 51.625 33 
Q 55.609375 28.21875 55.609375 21.1875 
Q 55.609375 10.40625 48.1875 4.484375 
Q 40.765625 -1.421875 27.09375 -1.421875 
Q 22.515625 -1.421875 17.65625 -0.515625 
Q 12.796875 0.390625 7.625 2.203125 
L 7.625 11.71875 
Q 11.71875 9.328125 16.59375 8.109375 
Q 21.484375 6.890625 26.8125 6.890625 
Q 36.078125 6.890625 40.9375 10.546875 
Q 45.796875 14.203125 45.796875 21.1875 
Q 45.796875 27.640625 41.28125 31.265625 
Q 36.765625 34.90625 28.71875 34.90625 
L 20.21875 34.90625 
L 20.21875 43.015625 
L 29.109375 43.015625 
Q 36.375 43.015625 40.234375 45.921875 
Q 44.09375 48.828125 44.09375 54.296875 
Q 44.09375 59.90625 40.109375 62.90625 
Q 36.140625 65.921875 28.71875 65.921875 
Q 24.65625 65.921875 20.015625 65.03125 
Q 15.375 64.15625 9.8125 62.3125 
L 9.8125 71.09375 
Q 15.4375 72.65625 20.34375 73.4375 
Q 25.25 74.21875 29.59375 74.21875 
Q 40.828125 74.21875 47.359375 69.109375 
Q 53.90625 64.015625 53.90625 55.328125 
Q 53.90625 49.265625 50.4375 45.09375 
Q 46.96875 40.921875 40.578125 39.3125 
z
" id="DejaVuSans-51"/>
       </defs>
       <use xlink:href="#DejaVuSans-49"/>
       <use x="63.623047" xlink:href="#DejaVuSans-55"/>
       <use x="127.246094" xlink:href="#DejaVuSans-58"/>
       <use x="160.9375" xlink:href="#DejaVuSans-49"/>
       <use x="224.560547" xlink:href="#DejaVuSans-48"/>
       <use x="288.183594" xlink:href="#DejaVuSans-58"/>
       <use x="321.875" xlink:href="#DejaVuSans-51"/>
       <use x="385.498047" xlink:href="#DejaVuSans-52"/>
      </g>
     </g>
    </g>
    <g id="xtick_4">
     <g id="line2d_4">
      <g>
       <use style="stroke:#000000;stroke-width:0.8;" x="204.582466" xlink:href="#me1215c00ed" y="448.56"/>
      </g>
     </g>
     <g id="text_4">
      <!-- 17:11:57 -->
      <g transform="translate(207.341841 500.4725)rotate(-90)scale(0.1 -0.1)">
       <defs>
        <path d="M 10.796875 72.90625 
L 49.515625 72.90625 
L 49.515625 64.59375 
L 19.828125 64.59375 
L 19.828125 46.734375 
Q 21.96875 47.46875 24.109375 47.828125 
Q 26.265625 48.1875 28.421875 48.1875 
Q 40.625 48.1875 47.75 41.5 
Q 54.890625 34.8125 54.890625 23.390625 
Q 54.890625 11.625 47.5625 5.09375 
Q 40.234375 -1.421875 26.90625 -1.421875 
Q 22.3125 -1.421875 17.546875 -0.640625 
Q 12.796875 0.140625 7.71875 1.703125 
L 7.71875 11.625 
Q 12.109375 9.234375 16.796875 8.0625 
Q 21.484375 6.890625 26.703125 6.890625 
Q 35.15625 6.890625 40.078125 11.328125 
Q 45.015625 15.765625 45.015625 23.390625 
Q 45.015625 31 40.078125 35.4375 
Q 35.15625 39.890625 26.703125 39.890625 
Q 22.75 39.890625 18.8125 39.015625 
Q 14.890625 38.140625 10.796875 36.28125 
z
" id="DejaVuSans-53"/>
       </defs>
       <use xlink:href="#DejaVuSans-49"/>
       <use x="63.623047" xlink:href="#DejaVuSans-55"/>
       <use x="127.246094" xlink:href="#DejaVuSans-58"/>
       <use x="160.9375" xlink:href="#DejaVuSans-49"/>
       <use x="224.560547" xlink:href="#DejaVuSans-49"/>
       <use x="288.183594" xlink:href="#DejaVuSans-58"/>
       <use x="321.875" xlink:href="#DejaVuSans-53"/>
       <use x="385.498047" xlink:href="#DejaVuSans-55"/>
      </g>
     </g>
    </g>
    <g id="xtick_5">
     <g id="line2d_5">
      <g>
       <use style="stroke:#000000;stroke-width:0.8;" x="228.660258" xlink:href="#me1215c00ed" y="448.56"/>
      </g>
     </g>
     <g id="text_5">
      <!-- 17:13:19 -->
      <g transform="translate(231.419633 500.4725)rotate(-90)scale(0.1 -0.1)">
       <use xlink:href="#DejaVuSans-49"/>
       <use x="63.623047" xlink:href="#DejaVuSans-55"/>
       <use x="127.246094" xlink:href="#DejaVuSans-58"/>
       <use x="160.9375" xlink:href="#DejaVuSans-49"/>
       <use x="224.560547" xlink:href="#DejaVuSans-51"/>
       <use x="288.183594" xlink:href="#DejaVuSans-58"/>
       <use x="321.875" xlink:href="#DejaVuSans-49"/>
       <use x="385.498047" xlink:href="#DejaVuSans-57"/>
      </g>
     </g>
    </g>
    <g id="xtick_6">
     <g id="line2d_6">
      <g>
       <use style="stroke:#000000;stroke-width:0.8;" x="252.73805" xlink:href="#me1215c00ed" y="448.56"/>
      </g>
     </g>
     <g id="text_6">
      <!-- 17:14:42 -->
      <g transform="translate(255.497425 500.4725)rotate(-90)scale(0.1 -0.1)">
       <defs>
        <path d="M 19.1875 8.296875 
L 53.609375 8.296875 
L 53.609375 0 
L 7.328125 0 
L 7.328125 8.296875 
Q 12.9375 14.109375 22.625 23.890625 
Q 32.328125 33.6875 34.8125 36.53125 
Q 39.546875 41.84375 41.421875 45.53125 
Q 43.3125 49.21875 43.3125 52.78125 
Q 43.3125 58.59375 39.234375 62.25 
Q 35.15625 65.921875 28.609375 65.921875 
Q 23.96875 65.921875 18.8125 64.3125 
Q 13.671875 62.703125 7.8125 59.421875 
L 7.8125 69.390625 
Q 13.765625 71.78125 18.9375 73 
Q 24.125 74.21875 28.421875 74.21875 
Q 39.75 74.21875 46.484375 68.546875 
Q 53.21875 62.890625 53.21875 53.421875 
Q 53.21875 48.921875 51.53125 44.890625 
Q 49.859375 40.875 45.40625 35.40625 
Q 44.1875 33.984375 37.640625 27.21875 
Q 31.109375 20.453125 19.1875 8.296875 
z
" id="DejaVuSans-50"/>
       </defs>
       <use xlink:href="#DejaVuSans-49"/>
       <use x="63.623047" xlink:href="#DejaVuSans-55"/>
       <use x="127.246094" xlink:href="#DejaVuSans-58"/>
       <use x="160.9375" xlink:href="#DejaVuSans-49"/>
       <use x="224.560547" xlink:href="#DejaVuSans-52"/>
       <use x="288.183594" xlink:href="#DejaVuSans-58"/>
       <use x="321.875" xlink:href="#DejaVuSans-52"/>
       <use x="385.498047" xlink:href="#DejaVuSans-50"/>
      </g>
     </g>
    </g>
    <g id="xtick_7">
     <g id="line2d_7">
      <g>
       <use style="stroke:#000000;stroke-width:0.8;" x="276.815842" xlink:href="#me1215c00ed" y="448.56"/>
      </g>
     </g>
     <g id="text_7">
      <!-- 17:16:05 -->
      <g transform="translate(279.575217 500.4725)rotate(-90)scale(0.1 -0.1)">
       <defs>
        <path d="M 33.015625 40.375 
Q 26.375 40.375 22.484375 35.828125 
Q 18.609375 31.296875 18.609375 23.390625 
Q 18.609375 15.53125 22.484375 10.953125 
Q 26.375 6.390625 33.015625 6.390625 
Q 39.65625 6.390625 43.53125 10.953125 
Q 47.40625 15.53125 47.40625 23.390625 
Q 47.40625 31.296875 43.53125 35.828125 
Q 39.65625 40.375 33.015625 40.375 
z
M 52.59375 71.296875 
L 52.59375 62.3125 
Q 48.875 64.0625 45.09375 64.984375 
Q 41.3125 65.921875 37.59375 65.921875 
Q 27.828125 65.921875 22.671875 59.328125 
Q 17.53125 52.734375 16.796875 39.40625 
Q 19.671875 43.65625 24.015625 45.921875 
Q 28.375 48.1875 33.59375 48.1875 
Q 44.578125 48.1875 50.953125 41.515625 
Q 57.328125 34.859375 57.328125 23.390625 
Q 57.328125 12.15625 50.6875 5.359375 
Q 44.046875 -1.421875 33.015625 -1.421875 
Q 20.359375 -1.421875 13.671875 8.265625 
Q 6.984375 17.96875 6.984375 36.375 
Q 6.984375 53.65625 15.1875 63.9375 
Q 23.390625 74.21875 37.203125 74.21875 
Q 40.921875 74.21875 44.703125 73.484375 
Q 48.484375 72.75 52.59375 71.296875 
z
" id="DejaVuSans-54"/>
       </defs>
       <use xlink:href="#DejaVuSans-49"/>
       <use x="63.623047" xlink:href="#DejaVuSans-55"/>
       <use x="127.246094" xlink:href="#DejaVuSans-58"/>
       <use x="160.9375" xlink:href="#DejaVuSans-49"/>
       <use x="224.560547" xlink:href="#DejaVuSans-54"/>
       <use x="288.183594" xlink:href="#DejaVuSans-58"/>
       <use x="321.875" xlink:href="#DejaVuSans-48"/>
       <use x="385.498047" xlink:href="#DejaVuSans-53"/>
      </g>
     </g>
    </g>
    <g id="xtick_8">
     <g id="line2d_8">
      <g>
       <use style="stroke:#000000;stroke-width:0.8;" x="300.893634" xlink:href="#me1215c00ed" y="448.56"/>
      </g>
     </g>
     <g id="text_8">
      <!-- 17:17:28 -->
      <g transform="translate(303.653009 500.4725)rotate(-90)scale(0.1 -0.1)">
       <defs>
        <path d="M 31.78125 34.625 
Q 24.75 34.625 20.71875 30.859375 
Q 16.703125 27.09375 16.703125 20.515625 
Q 16.703125 13.921875 20.71875 10.15625 
Q 24.75 6.390625 31.78125 6.390625 
Q 38.8125 6.390625 42.859375 10.171875 
Q 46.921875 13.96875 46.921875 20.515625 
Q 46.921875 27.09375 42.890625 30.859375 
Q 38.875 34.625 31.78125 34.625 
z
M 21.921875 38.8125 
Q 15.578125 40.375 12.03125 44.71875 
Q 8.5 49.078125 8.5 55.328125 
Q 8.5 64.0625 14.71875 69.140625 
Q 20.953125 74.21875 31.78125 74.21875 
Q 42.671875 74.21875 48.875 69.140625 
Q 55.078125 64.0625 55.078125 55.328125 
Q 55.078125 49.078125 51.53125 44.71875 
Q 48 40.375 41.703125 38.8125 
Q 48.828125 37.15625 52.796875 32.3125 
Q 56.78125 27.484375 56.78125 20.515625 
Q 56.78125 9.90625 50.3125 4.234375 
Q 43.84375 -1.421875 31.78125 -1.421875 
Q 19.734375 -1.421875 13.25 4.234375 
Q 6.78125 9.90625 6.78125 20.515625 
Q 6.78125 27.484375 10.78125 32.3125 
Q 14.796875 37.15625 21.921875 38.8125 
z
M 18.3125 54.390625 
Q 18.3125 48.734375 21.84375 45.5625 
Q 25.390625 42.390625 31.78125 42.390625 
Q 38.140625 42.390625 41.71875 45.5625 
Q 45.3125 48.734375 45.3125 54.390625 
Q 45.3125 60.0625 41.71875 63.234375 
Q 38.140625 66.40625 31.78125 66.40625 
Q 25.390625 66.40625 21.84375 63.234375 
Q 18.3125 60.0625 18.3125 54.390625 
z
" id="DejaVuSans-56"/>
       </defs>
       <use xlink:href="#DejaVuSans-49"/>
       <use x="63.623047" xlink:href="#DejaVuSans-55"/>
       <use x="127.246094" xlink:href="#DejaVuSans-58"/>
       <use x="160.9375" xlink:href="#DejaVuSans-49"/>
       <use x="224.560547" xlink:href="#DejaVuSans-55"/>
       <use x="288.183594" xlink:href="#DejaVuSans-58"/>
       <use x="321.875" xlink:href="#DejaVuSans-50"/>
       <use x="385.498047" xlink:href="#DejaVuSans-56"/>
      </g>
     </g>
    </g>
    <g id="xtick_9">
     <g id="line2d_9">
      <g>
       <use style="stroke:#000000;stroke-width:0.8;" x="324.971426" xlink:href="#me1215c00ed" y="448.56"/>
      </g>
     </g>
     <g id="text_9">
      <!-- 17:18:51 -->
      <g transform="translate(327.730801 500.4725)rotate(-90)scale(0.1 -0.1)">
       <use xlink:href="#DejaVuSans-49"/>
       <use x="63.623047" xlink:href="#DejaVuSans-55"/>
       <use x="127.246094" xlink:href="#DejaVuSans-58"/>
       <use x="160.9375" xlink:href="#DejaVuSans-49"/>
       <use x="224.560547" xlink:href="#DejaVuSans-56"/>
       <use x="288.183594" xlink:href="#DejaVuSans-58"/>
       <use x="321.875" xlink:href="#DejaVuSans-53"/>
       <use x="385.498047" xlink:href="#DejaVuSans-49"/>
      </g>
     </g>
    </g>
    <g id="xtick_10">
     <g id="line2d_10">
      <g>
       <use style="stroke:#000000;stroke-width:0.8;" x="349.049218" xlink:href="#me1215c00ed" y="448.56"/>
      </g>
     </g>
     <g id="text_10">
      <!-- 17:20:14 -->
      <g transform="translate(351.808593 500.4725)rotate(-90)scale(0.1 -0.1)">
       <use xlink:href="#DejaVuSans-49"/>
       <use x="63.623047" xlink:href="#DejaVuSans-55"/>
       <use x="127.246094" xlink:href="#DejaVuSans-58"/>
       <use x="160.9375" xlink:href="#DejaVuSans-50"/>
       <use x="224.560547" xlink:href="#DejaVuSans-48"/>
       <use x="288.183594" xlink:href="#DejaVuSans-58"/>
       <use x="321.875" xlink:href="#DejaVuSans-49"/>
       <use x="385.498047" xlink:href="#DejaVuSans-52"/>
      </g>
     </g>
    </g>
    <g id="xtick_11">
     <g id="line2d_11">
      <g>
       <use style="stroke:#000000;stroke-width:0.8;" x="373.127009" xlink:href="#me1215c00ed" y="448.56"/>
      </g>
     </g>
     <g id="text_11">
      <!-- 17:21:36 -->
      <g transform="translate(375.886384 500.4725)rotate(-90)scale(0.1 -0.1)">
       <use xlink:href="#DejaVuSans-49"/>
       <use x="63.623047" xlink:href="#DejaVuSans-55"/>
       <use x="127.246094" xlink:href="#DejaVuSans-58"/>
       <use x="160.9375" xlink:href="#DejaVuSans-50"/>
       <use x="224.560547" xlink:href="#DejaVuSans-49"/>
       <use x="288.183594" xlink:href="#DejaVuSans-58"/>
       <use x="321.875" xlink:href="#DejaVuSans-51"/>
       <use x="385.498047" xlink:href="#DejaVuSans-54"/>
      </g>
     </g>
    </g>
    <g id="xtick_12">
     <g id="line2d_12">
      <g>
       <use style="stroke:#000000;stroke-width:0.8;" x="397.204801" xlink:href="#me1215c00ed" y="448.56"/>
      </g>
     </g>
     <g id="text_12">
      <!-- 17:22:59 -->
      <g transform="translate(399.964176 500.4725)rotate(-90)scale(0.1 -0.1)">
       <use xlink:href="#DejaVuSans-49"/>
       <use x="63.623047" xlink:href="#DejaVuSans-55"/>
       <use x="127.246094" xlink:href="#DejaVuSans-58"/>
       <use x="160.9375" xlink:href="#DejaVuSans-50"/>
       <use x="224.560547" xlink:href="#DejaVuSans-50"/>
       <use x="288.183594" xlink:href="#DejaVuSans-58"/>
       <use x="321.875" xlink:href="#DejaVuSans-53"/>
       <use x="385.498047" xlink:href="#DejaVuSans-57"/>
      </g>
     </g>
    </g>
    <g id="xtick_13">
     <g id="line2d_13">
      <g>
       <use style="stroke:#000000;stroke-width:0.8;" x="421.282593" xlink:href="#me1215c00ed" y="448.56"/>
      </g>
     </g>
     <g id="text_13">
      <!-- 17:24:22 -->
      <g transform="translate(424.041968 500.4725)rotate(-90)scale(0.1 -0.1)">
       <use xlink:href="#DejaVuSans-49"/>
       <use x="63.623047" xlink:href="#DejaVuSans-55"/>
       <use x="127.246094" xlink:href="#DejaVuSans-58"/>
       <use x="160.9375" xlink:href="#DejaVuSans-50"/>
       <use x="224.560547" xlink:href="#DejaVuSans-52"/>
       <use x="288.183594" xlink:href="#DejaVuSans-58"/>
       <use x="321.875" xlink:href="#DejaVuSans-50"/>
       <use x="385.498047" xlink:href="#DejaVuSans-50"/>
      </g>
     </g>
    </g>
    <g id="xtick_14">
     <g id="line2d_14">
      <g>
       <use style="stroke:#000000;stroke-width:0.8;" x="445.360385" xlink:href="#me1215c00ed" y="448.56"/>
      </g>
     </g>
     <g id="text_14">
      <!-- 17:25:45 -->
      <g transform="translate(448.11976 500.4725)rotate(-90)scale(0.1 -0.1)">
       <use xlink:href="#DejaVuSans-49"/>
       <use x="63.623047" xlink:href="#DejaVuSans-55"/>
       <use x="127.246094" xlink:href="#DejaVuSans-58"/>
       <use x="160.9375" xlink:href="#DejaVuSans-50"/>
       <use x="224.560547" xlink:href="#DejaVuSans-53"/>
       <use x="288.183594" xlink:href="#DejaVuSans-58"/>
       <use x="321.875" xlink:href="#DejaVuSans-52"/>
       <use x="385.498047" xlink:href="#DejaVuSans-53"/>
      </g>
     </g>
    </g>
    <g id="xtick_15">
     <g id="line2d_15">
      <g>
       <use style="stroke:#000000;stroke-width:0.8;" x="469.438177" xlink:href="#me1215c00ed" y="448.56"/>
      </g>
     </g>
     <g id="text_15">
      <!-- 17:27:08 -->
      <g transform="translate(472.197552 500.4725)rotate(-90)scale(0.1 -0.1)">
       <use xlink:href="#DejaVuSans-49"/>
       <use x="63.623047" xlink:href="#DejaVuSans-55"/>
       <use x="127.246094" xlink:href="#DejaVuSans-58"/>
       <use x="160.9375" xlink:href="#DejaVuSans-50"/>
       <use x="224.560547" xlink:href="#DejaVuSans-55"/>
       <use x="288.183594" xlink:href="#DejaVuSans-58"/>
       <use x="321.875" xlink:href="#DejaVuSans-48"/>
       <use x="385.498047" xlink:href="#DejaVuSans-56"/>
      </g>
     </g>
    </g>
    <g id="xtick_16">
     <g id="line2d_16">
      <g>
       <use style="stroke:#000000;stroke-width:0.8;" x="493.515969" xlink:href="#me1215c00ed" y="448.56"/>
      </g>
     </g>
     <g id="text_16">
      <!-- 17:28:31 -->
      <g transform="translate(496.275344 500.4725)rotate(-90)scale(0.1 -0.1)">
       <use xlink:href="#DejaVuSans-49"/>
       <use x="63.623047" xlink:href="#DejaVuSans-55"/>
       <use x="127.246094" xlink:href="#DejaVuSans-58"/>
       <use x="160.9375" xlink:href="#DejaVuSans-50"/>
       <use x="224.560547" xlink:href="#DejaVuSans-56"/>
       <use x="288.183594" xlink:href="#DejaVuSans-58"/>
       <use x="321.875" xlink:href="#DejaVuSans-51"/>
       <use x="385.498047" xlink:href="#DejaVuSans-49"/>
      </g>
     </g>
    </g>
    <g id="xtick_17">
     <g id="line2d_17">
      <g>
       <use style="stroke:#000000;stroke-width:0.8;" x="517.59376" xlink:href="#me1215c00ed" y="448.56"/>
      </g>
     </g>
     <g id="text_17">
      <!-- 17:29:54 -->
      <g transform="translate(520.353135 500.4725)rotate(-90)scale(0.1 -0.1)">
       <use xlink:href="#DejaVuSans-49"/>
       <use x="63.623047" xlink:href="#DejaVuSans-55"/>
       <use x="127.246094" xlink:href="#DejaVuSans-58"/>
       <use x="160.9375" xlink:href="#DejaVuSans-50"/>
       <use x="224.560547" xlink:href="#DejaVuSans-57"/>
       <use x="288.183594" xlink:href="#DejaVuSans-58"/>
       <use x="321.875" xlink:href="#DejaVuSans-53"/>
       <use x="385.498047" xlink:href="#DejaVuSans-52"/>
      </g>
     </g>
    </g>
    <g id="xtick_18">
     <g id="line2d_18">
      <g>
       <use style="stroke:#000000;stroke-width:0.8;" x="541.671552" xlink:href="#me1215c00ed" y="448.56"/>
      </g>
     </g>
     <g id="text_18">
      <!-- 17:31:16 -->
      <g transform="translate(544.430927 500.4725)rotate(-90)scale(0.1 -0.1)">
       <use xlink:href="#DejaVuSans-49"/>
       <use x="63.623047" xlink:href="#DejaVuSans-55"/>
       <use x="127.246094" xlink:href="#DejaVuSans-58"/>
       <use x="160.9375" xlink:href="#DejaVuSans-51"/>
       <use x="224.560547" xlink:href="#DejaVuSans-49"/>
       <use x="288.183594" xlink:href="#DejaVuSans-58"/>
       <use x="321.875" xlink:href="#DejaVuSans-49"/>
       <use x="385.498047" xlink:href="#DejaVuSans-54"/>
      </g>
     </g>
    </g>
    <g id="xtick_19">
     <g id="line2d_19">
      <g>
       <use style="stroke:#000000;stroke-width:0.8;" x="565.749344" xlink:href="#me1215c00ed" y="448.56"/>
      </g>
     </g>
     <g id="text_19">
      <!-- 17:32:39 -->
      <g transform="translate(568.508719 500.4725)rotate(-90)scale(0.1 -0.1)">
       <use xlink:href="#DejaVuSans-49"/>
       <use x="63.623047" xlink:href="#DejaVuSans-55"/>
       <use x="127.246094" xlink:href="#DejaVuSans-58"/>
       <use x="160.9375" xlink:href="#DejaVuSans-51"/>
       <use x="224.560547" xlink:href="#DejaVuSans-50"/>
       <use x="288.183594" xlink:href="#DejaVuSans-58"/>
       <use x="321.875" xlink:href="#DejaVuSans-51"/>
       <use x="385.498047" xlink:href="#DejaVuSans-57"/>
      </g>
     </g>
    </g>
    <g id="xtick_20">
     <g id="line2d_20">
      <g>
       <use style="stroke:#000000;stroke-width:0.8;" x="589.827136" xlink:href="#me1215c00ed" y="448.56"/>
      </g>
     </g>
     <g id="text_20">
      <!-- 17:34:02 -->
      <g transform="translate(592.586511 500.4725)rotate(-90)scale(0.1 -0.1)">
       <use xlink:href="#DejaVuSans-49"/>
       <use x="63.623047" xlink:href="#DejaVuSans-55"/>
       <use x="127.246094" xlink:href="#DejaVuSans-58"/>
       <use x="160.9375" xlink:href="#DejaVuSans-51"/>
       <use x="224.560547" xlink:href="#DejaVuSans-52"/>
       <use x="288.183594" xlink:href="#DejaVuSans-58"/>
       <use x="321.875" xlink:href="#DejaVuSans-48"/>
       <use x="385.498047" xlink:href="#DejaVuSans-50"/>
      </g>
     </g>
    </g>
    <g id="xtick_21">
     <g id="line2d_21">
      <g>
       <use style="stroke:#000000;stroke-width:0.8;" x="613.904928" xlink:href="#me1215c00ed" y="448.56"/>
      </g>
     </g>
     <g id="text_21">
      <!-- 17:35:25 -->
      <g transform="translate(616.664303 500.4725)rotate(-90)scale(0.1 -0.1)">
       <use xlink:href="#DejaVuSans-49"/>
       <use x="63.623047" xlink:href="#DejaVuSans-55"/>
       <use x="127.246094" xlink:href="#DejaVuSans-58"/>
       <use x="160.9375" xlink:href="#DejaVuSans-51"/>
       <use x="224.560547" xlink:href="#DejaVuSans-53"/>
       <use x="288.183594" xlink:href="#DejaVuSans-58"/>
       <use x="321.875" xlink:href="#DejaVuSans-50"/>
       <use x="385.498047" xlink:href="#DejaVuSans-53"/>
      </g>
     </g>
    </g>
    <g id="text_22">
     <!-- timestamp -->
     <g transform="translate(354.264375 510.55125)scale(0.08 -0.08)">
      <defs>
       <path d="M 18.3125 70.21875 
L 18.3125 54.6875 
L 36.8125 54.6875 
L 36.8125 47.703125 
L 18.3125 47.703125 
L 18.3125 18.015625 
Q 18.3125 11.328125 20.140625 9.421875 
Q 21.96875 7.515625 27.59375 7.515625 
L 36.8125 7.515625 
L 36.8125 0 
L 27.59375 0 
Q 17.1875 0 13.234375 3.875 
Q 9.28125 7.765625 9.28125 18.015625 
L 9.28125 47.703125 
L 2.6875 47.703125 
L 2.6875 54.6875 
L 9.28125 54.6875 
L 9.28125 70.21875 
z
" id="DejaVuSans-116"/>
       <path d="M 9.421875 54.6875 
L 18.40625 54.6875 
L 18.40625 0 
L 9.421875 0 
z
M 9.421875 75.984375 
L 18.40625 75.984375 
L 18.40625 64.59375 
L 9.421875 64.59375 
z
" id="DejaVuSans-105"/>
       <path d="M 52 44.1875 
Q 55.375 50.25 60.0625 53.125 
Q 64.75 56 71.09375 56 
Q 79.640625 56 84.28125 50.015625 
Q 88.921875 44.046875 88.921875 33.015625 
L 88.921875 0 
L 79.890625 0 
L 79.890625 32.71875 
Q 79.890625 40.578125 77.09375 44.375 
Q 74.3125 48.1875 68.609375 48.1875 
Q 61.625 48.1875 57.5625 43.546875 
Q 53.515625 38.921875 53.515625 30.90625 
L 53.515625 0 
L 44.484375 0 
L 44.484375 32.71875 
Q 44.484375 40.625 41.703125 44.40625 
Q 38.921875 48.1875 33.109375 48.1875 
Q 26.21875 48.1875 22.15625 43.53125 
Q 18.109375 38.875 18.109375 30.90625 
L 18.109375 0 
L 9.078125 0 
L 9.078125 54.6875 
L 18.109375 54.6875 
L 18.109375 46.1875 
Q 21.1875 51.21875 25.484375 53.609375 
Q 29.78125 56 35.6875 56 
Q 41.65625 56 45.828125 52.96875 
Q 50 49.953125 52 44.1875 
z
" id="DejaVuSans-109"/>
       <path d="M 56.203125 29.59375 
L 56.203125 25.203125 
L 14.890625 25.203125 
Q 15.484375 15.921875 20.484375 11.0625 
Q 25.484375 6.203125 34.421875 6.203125 
Q 39.59375 6.203125 44.453125 7.46875 
Q 49.3125 8.734375 54.109375 11.28125 
L 54.109375 2.78125 
Q 49.265625 0.734375 44.1875 -0.34375 
Q 39.109375 -1.421875 33.890625 -1.421875 
Q 20.796875 -1.421875 13.15625 6.1875 
Q 5.515625 13.8125 5.515625 26.8125 
Q 5.515625 40.234375 12.765625 48.109375 
Q 20.015625 56 32.328125 56 
Q 43.359375 56 49.78125 48.890625 
Q 56.203125 41.796875 56.203125 29.59375 
z
M 47.21875 32.234375 
Q 47.125 39.59375 43.09375 43.984375 
Q 39.0625 48.390625 32.421875 48.390625 
Q 24.90625 48.390625 20.390625 44.140625 
Q 15.875 39.890625 15.1875 32.171875 
z
" id="DejaVuSans-101"/>
       <path d="M 44.28125 53.078125 
L 44.28125 44.578125 
Q 40.484375 46.53125 36.375 47.5 
Q 32.28125 48.484375 27.875 48.484375 
Q 21.1875 48.484375 17.84375 46.4375 
Q 14.5 44.390625 14.5 40.28125 
Q 14.5 37.15625 16.890625 35.375 
Q 19.28125 33.59375 26.515625 31.984375 
L 29.59375 31.296875 
Q 39.15625 29.25 43.1875 25.515625 
Q 47.21875 21.78125 47.21875 15.09375 
Q 47.21875 7.46875 41.1875 3.015625 
Q 35.15625 -1.421875 24.609375 -1.421875 
Q 20.21875 -1.421875 15.453125 -0.5625 
Q 10.6875 0.296875 5.421875 2 
L 5.421875 11.28125 
Q 10.40625 8.6875 15.234375 7.390625 
Q 20.0625 6.109375 24.8125 6.109375 
Q 31.15625 6.109375 34.5625 8.28125 
Q 37.984375 10.453125 37.984375 14.40625 
Q 37.984375 18.0625 35.515625 20.015625 
Q 33.0625 21.96875 24.703125 23.78125 
L 21.578125 24.515625 
Q 13.234375 26.265625 9.515625 29.90625 
Q 5.8125 33.546875 5.8125 39.890625 
Q 5.8125 47.609375 11.28125 51.796875 
Q 16.75 56 26.8125 56 
Q 31.78125 56 36.171875 55.265625 
Q 40.578125 54.546875 44.28125 53.078125 
z
" id="DejaVuSans-115"/>
       <path d="M 34.28125 27.484375 
Q 23.390625 27.484375 19.1875 25 
Q 14.984375 22.515625 14.984375 16.5 
Q 14.984375 11.71875 18.140625 8.90625 
Q 21.296875 6.109375 26.703125 6.109375 
Q 34.1875 6.109375 38.703125 11.40625 
Q 43.21875 16.703125 43.21875 25.484375 
L 43.21875 27.484375 
z
M 52.203125 31.203125 
L 52.203125 0 
L 43.21875 0 
L 43.21875 8.296875 
Q 40.140625 3.328125 35.546875 0.953125 
Q 30.953125 -1.421875 24.3125 -1.421875 
Q 15.921875 -1.421875 10.953125 3.296875 
Q 6 8.015625 6 15.921875 
Q 6 25.140625 12.171875 29.828125 
Q 18.359375 34.515625 30.609375 34.515625 
L 43.21875 34.515625 
L 43.21875 35.40625 
Q 43.21875 41.609375 39.140625 45 
Q 35.0625 48.390625 27.6875 48.390625 
Q 23 48.390625 18.546875 47.265625 
Q 14.109375 46.140625 10.015625 43.890625 
L 10.015625 52.203125 
Q 14.9375 54.109375 19.578125 55.046875 
Q 24.21875 56 28.609375 56 
Q 40.484375 56 46.34375 49.84375 
Q 52.203125 43.703125 52.203125 31.203125 
z
" id="DejaVuSans-97"/>
       <path d="M 18.109375 8.203125 
L 18.109375 -20.796875 
L 9.078125 -20.796875 
L 9.078125 54.6875 
L 18.109375 54.6875 
L 18.109375 46.390625 
Q 20.953125 51.265625 25.265625 53.625 
Q 29.59375 56 35.59375 56 
Q 45.5625 56 51.78125 48.09375 
Q 58.015625 40.1875 58.015625 27.296875 
Q 58.015625 14.40625 51.78125 6.484375 
Q 45.5625 -1.421875 35.59375 -1.421875 
Q 29.59375 -1.421875 25.265625 0.953125 
Q 20.953125 3.328125 18.109375 8.203125 
z
M 48.6875 27.296875 
Q 48.6875 37.203125 44.609375 42.84375 
Q 40.53125 48.484375 33.40625 48.484375 
Q 26.265625 48.484375 22.1875 42.84375 
Q 18.109375 37.203125 18.109375 27.296875 
Q 18.109375 17.390625 22.1875 11.75 
Q 26.265625 6.109375 33.40625 6.109375 
Q 40.53125 6.109375 44.609375 11.75 
Q 48.6875 17.390625 48.6875 27.296875 
z
" id="DejaVuSans-112"/>
      </defs>
      <use xlink:href="#DejaVuSans-116"/>
      <use x="39.208984" xlink:href="#DejaVuSans-105"/>
      <use x="66.992188" xlink:href="#DejaVuSans-109"/>
      <use x="164.404297" xlink:href="#DejaVuSans-101"/>
      <use x="225.927734" xlink:href="#DejaVuSans-115"/>
      <use x="278.027344" xlink:href="#DejaVuSans-116"/>
      <use x="317.236328" xlink:href="#DejaVuSans-97"/>
      <use x="378.515625" xlink:href="#DejaVuSans-109"/>
      <use x="475.927734" xlink:href="#DejaVuSans-112"/>
     </g>
    </g>
   </g>
   <g id="matplotlib.axis_2">
    <g id="ytick_1">
     <g id="line2d_22">
      <defs>
       <path d="M 0 0 
L -3.5 0 
" id="mbcde094699" style="stroke:#000000;stroke-width:0.8;"/>
      </defs>
      <g>
       <use style="stroke:#000000;stroke-width:0.8;" x="108" xlink:href="#mbcde094699" y="399.540098"/>
      </g>
     </g>
     <g id="text_23">
      <!-- 10800 -->
      <g transform="translate(69.1875 403.339317)scale(0.1 -0.1)">
       <use xlink:href="#DejaVuSans-49"/>
       <use x="63.623047" xlink:href="#DejaVuSans-48"/>
       <use x="127.246094" xlink:href="#DejaVuSans-56"/>
       <use x="190.869141" xlink:href="#DejaVuSans-48"/>
       <use x="254.492188" xlink:href="#DejaVuSans-48"/>
      </g>
     </g>
    </g>
    <g id="ytick_2">
     <g id="line2d_23">
      <g>
       <use style="stroke:#000000;stroke-width:0.8;" x="108" xlink:href="#mbcde094699" y="341.461435"/>
      </g>
     </g>
     <g id="text_24">
      <!-- 11000 -->
      <g transform="translate(69.1875 345.260654)scale(0.1 -0.1)">
       <use xlink:href="#DejaVuSans-49"/>
       <use x="63.623047" xlink:href="#DejaVuSans-49"/>
       <use x="127.246094" xlink:href="#DejaVuSans-48"/>
       <use x="190.869141" xlink:href="#DejaVuSans-48"/>
       <use x="254.492188" xlink:href="#DejaVuSans-48"/>
      </g>
     </g>
    </g>
    <g id="ytick_3">
     <g id="line2d_24">
      <g>
       <use style="stroke:#000000;stroke-width:0.8;" x="108" xlink:href="#mbcde094699" y="283.382772"/>
      </g>
     </g>
     <g id="text_25">
      <!-- 11200 -->
      <g transform="translate(69.1875 287.181991)scale(0.1 -0.1)">
       <use xlink:href="#DejaVuSans-49"/>
       <use x="63.623047" xlink:href="#DejaVuSans-49"/>
       <use x="127.246094" xlink:href="#DejaVuSans-50"/>
       <use x="190.869141" xlink:href="#DejaVuSans-48"/>
       <use x="254.492188" xlink:href="#DejaVuSans-48"/>
      </g>
     </g>
    </g>
    <g id="ytick_4">
     <g id="line2d_25">
      <g>
       <use style="stroke:#000000;stroke-width:0.8;" x="108" xlink:href="#mbcde094699" y="225.304109"/>
      </g>
     </g>
     <g id="text_26">
      <!-- 11400 -->
      <g transform="translate(69.1875 229.103328)scale(0.1 -0.1)">
       <use xlink:href="#DejaVuSans-49"/>
       <use x="63.623047" xlink:href="#DejaVuSans-49"/>
       <use x="127.246094" xlink:href="#DejaVuSans-52"/>
       <use x="190.869141" xlink:href="#DejaVuSans-48"/>
       <use x="254.492188" xlink:href="#DejaVuSans-48"/>
      </g>
     </g>
    </g>
    <g id="ytick_5">
     <g id="line2d_26">
      <g>
       <use style="stroke:#000000;stroke-width:0.8;" x="108" xlink:href="#mbcde094699" y="167.225446"/>
      </g>
     </g>
     <g id="text_27">
      <!-- 11600 -->
      <g transform="translate(69.1875 171.024665)scale(0.1 -0.1)">
       <use xlink:href="#DejaVuSans-49"/>
       <use x="63.623047" xlink:href="#DejaVuSans-49"/>
       <use x="127.246094" xlink:href="#DejaVuSans-54"/>
       <use x="190.869141" xlink:href="#DejaVuSans-48"/>
       <use x="254.492188" xlink:href="#DejaVuSans-48"/>
      </g>
     </g>
    </g>
    <g id="ytick_6">
     <g id="line2d_27">
      <g>
       <use style="stroke:#000000;stroke-width:0.8;" x="108" xlink:href="#mbcde094699" y="109.146783"/>
      </g>
     </g>
     <g id="text_28">
      <!-- 11800 -->
      <g transform="translate(69.1875 112.946002)scale(0.1 -0.1)">
       <use xlink:href="#DejaVuSans-49"/>
       <use x="63.623047" xlink:href="#DejaVuSans-49"/>
       <use x="127.246094" xlink:href="#DejaVuSans-56"/>
       <use x="190.869141" xlink:href="#DejaVuSans-48"/>
       <use x="254.492188" xlink:href="#DejaVuSans-48"/>
      </g>
     </g>
    </g>
    <g id="text_29">
     <!-- MB -->
     <g transform="translate(63.52375 260.715625)rotate(-90)scale(0.08 -0.08)">
      <defs>
       <path d="M 9.8125 72.90625 
L 24.515625 72.90625 
L 43.109375 23.296875 
L 61.8125 72.90625 
L 76.515625 72.90625 
L 76.515625 0 
L 66.890625 0 
L 66.890625 64.015625 
L 48.09375 14.015625 
L 38.1875 14.015625 
L 19.390625 64.015625 
L 19.390625 0 
L 9.8125 0 
z
" id="DejaVuSans-77"/>
       <path d="M 19.671875 34.8125 
L 19.671875 8.109375 
L 35.5 8.109375 
Q 43.453125 8.109375 47.28125 11.40625 
Q 51.125 14.703125 51.125 21.484375 
Q 51.125 28.328125 47.28125 31.5625 
Q 43.453125 34.8125 35.5 34.8125 
z
M 19.671875 64.796875 
L 19.671875 42.828125 
L 34.28125 42.828125 
Q 41.5 42.828125 45.03125 45.53125 
Q 48.578125 48.25 48.578125 53.8125 
Q 48.578125 59.328125 45.03125 62.0625 
Q 41.5 64.796875 34.28125 64.796875 
z
M 9.8125 72.90625 
L 35.015625 72.90625 
Q 46.296875 72.90625 52.390625 68.21875 
Q 58.5 63.53125 58.5 54.890625 
Q 58.5 48.1875 55.375 44.234375 
Q 52.25 40.28125 46.1875 39.3125 
Q 53.46875 37.75 57.5 32.78125 
Q 61.53125 27.828125 61.53125 20.40625 
Q 61.53125 10.640625 54.890625 5.3125 
Q 48.25 0 35.984375 0 
L 9.8125 0 
z
" id="DejaVuSans-66"/>
      </defs>
      <use xlink:href="#DejaVuSans-77"/>
      <use x="86.279297" xlink:href="#DejaVuSans-66"/>
     </g>
    </g>
   </g>
   <g id="line2d_28">
    <path clip-path="url(#p94027bcfaa)" d="M 132.349091 79.566159 
L 133.027339 79.705548 
L 133.366462 78.12 
L 133.705586 80.631321 
L 134.04471 81.605881 
L 134.383834 83.860495 
L 134.722958 79.713679 
L 135.062082 78.755381 
L 135.401205 79.274604 
L 135.740329 78.689171 
L 136.079453 86.901494 
L 136.418577 109.789133 
L 136.757701 123.441104 
L 137.775072 237.087109 
L 138.45332 297.077721 
L 138.792444 336.264557 
L 139.470691 386.632696 
L 139.809815 394.516294 
L 140.148939 397.189074 
L 140.488063 398.616648 
L 140.827187 398.638718 
L 141.16631 395.920636 
L 141.505434 398.651495 
L 141.844558 398.346001 
L 142.183682 399.247382 
L 142.522806 398.808307 
L 142.86193 399.808422 
L 143.201053 399.837461 
L 144.218425 397.788446 
L 144.557549 400.485619 
L 144.896673 400.654047 
L 145.235796 400.614554 
L 145.57492 400.027959 
L 145.914044 400.723742 
L 146.253168 400.381077 
L 146.592292 400.507689 
L 146.931416 400.070937 
L 147.270539 399.080115 
L 147.609663 401.17327 
L 148.287911 401.388161 
L 148.627035 400.705156 
L 148.966159 399.04643 
L 149.305282 400.361331 
L 149.644406 399.394902 
L 149.98353 399.485504 
L 150.322654 398.693311 
L 150.661778 400.849191 
L 151.000901 400.604099 
L 151.679149 399.006936 
L 152.018273 399.749182 
L 152.357397 401.01065 
L 152.696521 400.780659 
L 153.035644 400.730711 
L 153.374768 400.291636 
L 153.713892 401.227864 
L 154.053016 401.517096 
L 154.731264 400.652886 
L 155.070387 401.165139 
L 155.409511 402.200101 
L 155.748635 401.898092 
L 156.087759 401.958494 
L 156.766007 400.377593 
L 157.10513 400.267243 
L 157.444254 400.55299 
L 157.783378 399.986143 
L 158.122502 399.897863 
L 158.461626 400.687733 
L 158.80075 400.699348 
L 159.139873 400.431025 
L 159.478997 398.878002 
L 159.818121 401.655323 
L 160.496369 401.360284 
L 160.835493 400.59713 
L 161.174616 402.315097 
L 161.51374 402.646145 
L 162.191988 402.269796 
L 162.531112 400.920047 
L 162.870236 403.219962 
L 163.209359 402.477717 
L 163.548483 400.688894 
L 163.887607 400.878231 
L 164.226731 400.048867 
L 164.565855 401.562397 
L 164.904978 401.240642 
L 165.244102 401.107061 
L 165.583226 400.490265 
L 165.92235 402.87149 
L 166.261474 402.414992 
L 166.600598 402.151315 
L 166.939721 401.432301 
L 167.278845 401.146554 
L 167.617969 401.369576 
L 167.957093 400.879392 
L 168.296217 401.141908 
L 168.635341 400.793436 
L 168.974464 401.610022 
L 169.313588 401.692494 
L 169.652712 402.00728 
L 169.991836 400.771366 
L 170.33096 400.562283 
L 170.670084 402.784372 
L 171.348331 403.31405 
L 171.687455 401.795874 
L 172.026579 402.749525 
L 172.365703 401.577498 
L 172.704827 401.418362 
L 173.04395 400.400824 
L 173.383074 400.681925 
L 173.722198 402.000311 
L 174.061322 401.714564 
L 174.400446 401.69714 
L 174.73957 400.997873 
L 175.078693 402.914469 
L 175.417817 402.223333 
L 175.756941 401.174432 
L 176.096065 401.191856 
L 176.435189 400.976965 
L 176.774312 402.56135 
L 177.113436 406.099503 
L 177.45256 405.778908 
L 177.791684 404.933283 
L 178.130808 402.559027 
L 178.469932 401.928293 
L 178.809055 401.936424 
L 179.148179 401.536843 
L 179.487303 402.739071 
L 180.165551 401.598406 
L 180.504675 405.890419 
L 180.843798 405.299179 
L 181.182922 402.980678 
L 181.522046 402.64963 
L 181.86117 402.53115 
L 182.200294 400.650562 
L 182.539418 403.124713 
L 182.878541 402.542765 
L 183.217665 402.73094 
L 183.556789 401.714564 
L 183.895913 401.143069 
L 184.235037 401.353314 
L 184.574161 401.255742 
L 184.913284 401.439271 
L 185.252408 400.753942 
L 185.591532 402.586905 
L 185.930656 402.786696 
L 186.26978 402.748364 
L 186.608904 401.845821 
L 186.948027 401.718048 
L 187.287151 403.6904 
L 187.965399 403.400006 
L 188.304523 402.76811 
L 188.643646 405.05641 
L 189.321894 404.342042 
L 189.661018 403.49874 
L 190.000142 403.110775 
L 190.339266 403.25481 
L 190.678389 403.250163 
L 191.017513 403.389552 
L 191.356637 402.506756 
L 191.695761 405.30731 
L 192.034885 405.653458 
L 192.713132 403.400006 
L 193.052256 402.563674 
L 193.39138 403.89019 
L 193.730504 403.657876 
L 194.069628 403.634644 
L 194.408752 402.66473 
L 194.747875 404.173614 
L 195.086999 403.974985 
L 195.426123 404.017963 
L 195.765247 402.694931 
L 196.104371 402.209394 
L 196.443495 403.465054 
L 196.782618 403.633483 
L 197.121742 403.56495 
L 197.460866 402.358075 
L 197.79999 403.735701 
L 198.139114 404.14109 
L 198.478238 404.191038 
L 198.817361 402.795988 
L 199.156485 402.701901 
L 199.495609 403.452277 
L 199.834733 402.161769 
L 200.173857 402.183839 
L 200.512981 401.150039 
L 200.852104 403.135168 
L 201.530352 403.000425 
L 201.869476 402.403376 
L 202.2086 402.79715 
L 202.547723 404.072557 
L 202.886847 403.219962 
L 203.225971 403.570758 
L 203.565095 402.766949 
L 203.904219 404.353658 
L 204.243343 403.503386 
L 204.582466 403.354705 
L 204.92159 402.751848 
L 205.260714 403.192085 
L 205.599838 404.597588 
L 205.938962 403.631159 
L 206.278086 403.640452 
L 206.617209 402.621752 
L 206.956333 404.95303 
L 207.634581 405.35958 
L 208.312829 403.005071 
L 208.651952 404.208461 
L 208.991076 404.292095 
L 209.3302 403.841404 
L 209.669324 402.910984 
L 210.008448 405.169082 
L 210.686695 404.682383 
L 211.025819 403.952915 
L 211.364943 404.373405 
L 211.704067 403.991247 
L 212.043191 404.253763 
L 212.382315 403.281526 
L 212.721438 403.420915 
L 213.060562 404.785763 
L 213.399686 405.53614 
L 213.73881 405.723153 
L 214.077934 403.827465 
L 214.417057 403.750801 
L 214.756181 404.996008 
L 215.434429 404.670767 
L 215.773553 403.801911 
L 216.112677 405.472253 
L 216.4518 404.900759 
L 216.790924 404.947222 
L 217.130048 404.38502 
L 217.469172 404.596427 
L 217.808296 405.148174 
L 218.14742 404.980908 
L 218.486543 405.086611 
L 218.825667 403.409299 
L 219.164791 404.973938 
L 219.503915 405.171406 
L 219.843039 404.927475 
L 220.182163 403.633483 
L 220.521286 408.03236 
L 220.86041 409.256659 
L 221.199534 409.032475 
L 221.538658 408.45285 
L 221.877782 404.88682 
L 222.216906 407.051993 
L 222.556029 406.468883 
L 223.234277 404.547641 
L 223.912525 404.913536 
L 224.590772 404.745108 
L 224.929896 403.15143 
L 225.26902 406.058848 
L 225.608144 405.522201 
L 225.947268 405.279432 
L 226.286391 404.373405 
L 226.625515 404.68006 
L 226.964639 405.483869 
L 227.303763 405.711537 
L 227.642887 405.525685 
L 227.982011 404.278156 
L 228.321134 406.042585 
L 228.660258 406.348079 
L 228.999382 406.367826 
L 229.338506 405.647651 
L 229.67763 404.475623 
L 230.016754 405.677851 
L 230.355877 405.763808 
L 230.695001 405.539624 
L 231.034125 409.478519 
L 231.373249 410.307882 
L 231.712373 410.74928 
L 232.39062 409.616746 
L 232.729744 410.166171 
L 233.068868 410.999019 
L 233.747116 409.126562 
L 234.08624 409.234589 
L 234.425363 411.872522 
L 234.764487 411.476425 
L 235.103611 411.37653 
L 235.442735 410.348538 
L 235.781859 410.045367 
L 236.120983 411.903884 
L 236.460106 411.217394 
L 236.79923 411.136084 
L 237.138354 410.288136 
L 237.477478 410.845691 
L 237.816602 410.743472 
L 238.155726 411.203455 
L 238.494849 410.008197 
L 238.833973 411.015281 
L 239.173097 412.923745 
L 239.512221 411.769142 
L 239.851345 411.629753 
L 240.190468 410.873569 
L 240.529592 411.970094 
L 241.546964 409.879262 
L 242.225211 411.567028 
L 242.564335 411.731971 
L 242.903459 411.198809 
L 243.242583 410.42404 
L 243.581707 411.677377 
L 243.920831 411.914338 
L 244.259954 411.997972 
L 244.599078 411.010634 
L 244.938202 412.047919 
L 245.277326 411.058259 
L 245.61645 411.02225 
L 245.955574 410.391516 
L 246.294697 409.23575 
L 246.633821 410.694686 
L 246.972945 411.359106 
L 247.312069 411.655307 
L 247.651193 410.309044 
L 247.990317 414.439599 
L 248.32944 414.662621 
L 248.668564 413.731039 
L 249.007688 413.596296 
L 249.346812 409.652755 
L 249.685936 413.424384 
L 250.364183 410.824783 
L 250.703307 410.074406 
L 251.381555 410.791097 
L 251.720679 410.475149 
L 252.059802 410.382223 
L 252.398926 409.479681 
L 252.73805 411.984033 
L 253.077174 412.039788 
L 253.416298 411.97474 
L 253.755422 410.706302 
L 254.094545 410.304398 
L 254.433669 411.672731 
L 254.772793 411.320774 
L 255.451041 410.180109 
L 255.790165 411.462486 
L 256.468412 411.036189 
L 256.807536 410.404293 
L 257.14666 409.28686 
L 257.485784 411.555412 
L 257.824908 412.065343 
L 258.164031 411.905046 
L 258.503155 410.72721 
L 258.842279 410.945586 
L 259.181403 412.965562 
L 259.520527 412.863344 
L 259.859651 410.663324 
L 260.198774 410.551813 
L 260.537898 413.149091 
L 260.877022 412.414976 
L 261.216146 412.543911 
L 261.55527 412.232609 
L 261.894394 412.960916 
L 262.233517 410.953717 
L 262.572641 410.842206 
L 262.911765 409.519174 
L 263.590013 411.758688 
L 263.929136 411.948024 
L 264.26826 415.379311 
L 264.607384 414.038856 
L 264.946508 415.711521 
L 265.285632 412.98647 
L 265.624756 413.182776 
L 265.963879 411.928277 
L 266.303003 412.197762 
L 266.642127 413.524279 
L 266.981251 413.700838 
L 267.320375 413.527764 
L 267.998622 418.526013 
L 268.337746 418.055576 
L 268.67687 413.714777 
L 269.015994 412.91213 
L 269.355118 412.930715 
L 269.694242 414.07138 
L 270.033365 418.988319 
L 270.372489 418.643332 
L 270.711613 417.88134 
L 271.050737 418.247236 
L 271.728985 417.952196 
L 272.068108 417.045007 
L 272.407232 417.226213 
L 272.746356 419.281036 
L 273.08548 419.628346 
L 273.424604 419.380931 
L 273.763728 418.593385 
L 274.102851 418.860546 
L 274.441975 418.703734 
L 274.781099 418.172895 
L 275.120223 416.451443 
L 275.79847 418.253044 
L 276.476718 417.951035 
L 276.815842 417.235505 
L 277.154966 418.873324 
L 277.49409 419.032459 
L 277.833213 418.290214 
L 278.172337 417.241313 
L 278.511461 417.252929 
L 278.850585 419.513351 
L 279.189709 418.339 
L 279.528833 418.406371 
L 279.867956 417.344693 
L 280.20708 418.450511 
L 280.546204 418.206581 
L 280.885328 418.131078 
L 281.224452 417.141418 
L 281.563576 418.192642 
L 282.241823 419.224119 
L 282.920071 417.01016 
L 283.259195 417.996336 
L 283.598319 417.698973 
L 283.937442 417.852301 
L 284.276566 417.007837 
L 284.61569 417.607209 
L 284.954814 419.403001 
L 285.293938 418.758328 
L 285.633062 419.251997 
L 285.972185 419.075437 
L 286.311309 420.03722 
L 286.650433 419.362346 
L 286.989557 419.211342 
L 287.328681 418.400563 
L 287.667805 419.009228 
L 288.006928 420.005858 
L 288.685176 419.801421 
L 289.0243 417.892956 
L 289.363424 420.444932 
L 289.702547 419.552844 
L 290.041671 419.058014 
L 290.380795 418.098554 
L 290.719919 418.566668 
L 291.059043 419.781674 
L 291.398167 419.788643 
L 291.73729 420.004696 
L 292.076414 419.157909 
L 292.754662 419.002258 
L 293.093786 418.940695 
L 293.43291 418.01376 
L 293.772033 418.048607 
L 294.111157 418.932564 
L 294.450281 418.794337 
L 294.789405 419.181141 
L 295.128529 418.201934 
L 295.467653 419.649255 
L 295.806776 419.651578 
L 296.1459 419.50522 
L 296.485024 418.670048 
L 296.824148 418.643332 
L 297.163272 420.054644 
L 297.502396 419.31356 
L 297.841519 419.008066 
L 298.180643 418.243751 
L 298.519767 418.948826 
L 298.858891 419.067306 
L 299.198015 418.939533 
L 299.537139 417.831393 
L 299.876262 418.917464 
L 300.55451 419.344922 
L 300.893634 419.087053 
L 301.232758 418.103201 
L 301.571881 419.27639 
L 301.911005 419.603953 
L 302.250129 419.35073 
L 302.589253 418.179864 
L 302.928377 418.551568 
L 303.267501 419.657386 
L 303.606624 419.146293 
L 303.945748 419.010389 
L 304.284872 418.246074 
L 304.623996 419.157909 
L 304.96312 418.615454 
L 305.302244 419.281036 
L 305.980491 418.3541 
L 306.319615 420.01515 
L 306.658739 419.061499 
L 306.997863 419.055691 
L 307.336987 418.46445 
L 307.67611 422.777371 
L 308.015234 422.958577 
L 308.354358 422.740201 
L 308.693482 421.977047 
L 309.032606 419.850207 
L 309.37173 420.831736 
L 309.710853 420.960671 
L 310.049977 418.471419 
L 310.389101 418.157795 
L 310.728225 419.78632 
L 311.067349 419.919901 
L 311.406473 419.666678 
L 311.745596 418.719996 
L 312.08472 419.687587 
L 312.423844 421.007134 
L 312.762968 420.399631 
L 313.102092 420.086006 
L 313.441215 419.365831 
L 313.780339 420.76088 
L 314.119463 419.415778 
L 314.458587 419.340276 
L 314.797711 419.552844 
L 315.136835 420.212618 
L 315.475958 420.217264 
L 316.154206 420.527404 
L 316.49333 418.8408 
L 316.832454 420.741134 
L 317.510701 421.134907 
L 317.849825 420.225395 
L 318.188949 420.052321 
L 318.528073 420.606391 
L 318.867197 420.604068 
L 319.206321 420.388015 
L 319.545444 419.19508 
L 319.884568 421.317274 
L 320.223692 420.846837 
L 320.562816 420.708609 
L 320.90194 420.161508 
L 321.241064 420.202164 
L 321.580187 421.091929 
L 322.258435 421.663423 
L 322.597559 420.20681 
L 322.936683 422.683284 
L 323.275807 422.718131 
L 323.61493 422.313904 
L 323.954054 421.126776 
L 324.632302 421.925938 
L 324.971426 422.261633 
L 325.31055 422.269764 
L 325.649673 421.198793 
L 325.988797 423.409267 
L 326.327921 419.418102 
L 326.667045 419.507543 
L 327.006169 418.435411 
L 327.345292 419.868792 
L 327.684416 420.551797 
L 328.02354 420.375238 
L 328.362664 420.566898 
L 328.701788 419.111446 
L 329.040912 421.125614 
L 329.380035 421.612313 
L 329.719159 421.756349 
L 330.058283 420.004696 
L 330.397407 420.645885 
L 330.736531 421.824881 
L 331.414778 421.355606 
L 331.753902 419.966364 
L 332.093026 421.124453 
L 332.43215 420.9084 
L 332.771274 421.044304 
L 333.110398 420.152216 
L 333.449521 420.33226 
L 333.788645 422.236078 
L 334.466893 422.423092 
L 334.806017 421.726148 
L 335.145141 422.105982 
L 335.484264 421.765641 
L 335.823388 421.644838 
L 336.162512 419.580722 
L 336.501636 419.954748 
L 336.84076 421.332374 
L 337.179884 421.389291 
L 337.519007 421.044304 
L 337.858131 419.422748 
L 338.197255 421.503126 
L 338.536379 422.140829 
L 338.875503 421.69827 
L 339.214626 421.060566 
L 339.55375 421.01875 
L 339.892874 423.51497 
L 340.231998 423.686883 
L 340.910246 421.932908 
L 341.249369 422.558996 
L 341.588493 422.109467 
L 342.266741 422.183808 
L 342.605865 421.424139 
L 343.284112 421.659938 
L 343.623236 420.656339 
L 343.96236 420.795727 
L 344.301484 423.45573 
L 345.318855 423.353512 
L 345.657979 421.332374 
L 345.997103 422.92373 
L 346.336227 422.56248 
L 346.675351 422.452131 
L 347.014475 421.582113 
L 347.353598 421.458986 
L 347.692722 422.309257 
L 348.031846 422.003764 
L 348.37097 421.433431 
L 348.710094 421.518226 
L 349.049218 422.102497 
L 349.388341 421.932908 
L 349.727465 421.606506 
L 350.066589 420.463518 
L 350.405713 421.15233 
L 350.744837 422.366175 
L 351.08396 422.047903 
L 351.423084 425.910135 
L 351.762208 425.320055 
L 352.101332 427.077516 
L 352.440456 424.618465 
L 352.77958 424.400089 
L 353.118703 423.836726 
L 353.457827 424.745077 
L 353.796951 423.599765 
L 354.136075 423.735669 
L 354.475199 423.685722 
L 354.814323 424.258377 
L 355.153446 426.943935 
L 355.49257 424.181714 
L 355.831694 424.187521 
L 356.509942 421.863213 
L 356.849066 423.474315 
L 357.188189 421.32889 
L 357.866437 420.486749 
L 358.205561 422.604297 
L 358.544685 423.163014 
L 358.883809 423.373259 
L 359.222932 422.467231 
L 359.562056 422.080427 
L 359.90118 424.338526 
L 360.240304 423.583503 
L 360.579428 423.605573 
L 360.918552 421.651807 
L 361.257675 424.136412 
L 361.596799 424.32691 
L 361.935923 423.983084 
L 362.275047 423.322149 
L 362.614171 421.980532 
L 362.953295 423.097966 
L 363.292418 422.597328 
L 363.631542 422.636821 
L 363.970666 422.37779 
L 364.30979 423.18973 
L 364.648914 423.071249 
L 364.988037 421.52868 
L 365.327161 421.865536 
L 365.666285 421.872506 
L 366.005409 422.942315 
L 366.344533 423.12352 
L 366.683657 422.972516 
L 367.02278 422.063004 
L 367.361904 423.64739 
L 367.701028 424.012124 
L 368.040152 423.679914 
L 368.379276 422.890044 
L 369.057523 423.701984 
L 369.735771 423.819303 
L 370.074895 423.103774 
L 370.414019 424.560386 
L 371.092266 423.9796 
L 371.43139 423.078219 
L 372.109638 424.036517 
L 372.448762 423.870412 
L 372.787886 423.158367 
L 373.127009 422.139668 
L 373.466133 425.638326 
L 373.805257 425.626711 
L 374.483505 423.491739 
L 374.822629 423.64739 
L 375.161752 424.503469 
L 375.500876 424.417513 
L 375.84 424.135251 
L 376.179124 423.490577 
L 376.518248 425.705698 
L 377.196495 426.066947 
L 377.535619 425.105164 
L 377.874743 423.458053 
L 378.213867 424.941382 
L 378.552991 424.110858 
L 378.892114 424.328072 
L 379.231238 423.31518 
L 379.570362 424.831033 
L 380.587734 422.707677 
L 380.926857 422.979485 
L 381.265981 424.265347 
L 381.605105 424.523216 
L 381.944229 424.580133 
L 382.283353 423.875058 
L 382.622477 425.321217 
L 382.9616 425.156273 
L 383.300724 425.459444 
L 383.639848 424.777601 
L 383.978972 425.001784 
L 384.318096 425.838117 
L 384.65722 426.154065 
L 385.335467 424.920474 
L 385.674591 424.829871 
L 386.013715 424.907697 
L 386.352839 424.685836 
L 386.691963 424.019093 
L 387.031086 422.969031 
L 387.37021 424.336203 
L 387.709334 423.870412 
L 388.048458 423.878543 
L 388.387582 423.106097 
L 388.726705 425.539593 
L 389.065829 425.612772 
L 389.404953 425.251522 
L 389.744077 423.642744 
L 390.083201 424.246762 
L 390.422325 425.454798 
L 390.761448 425.172536 
L 391.100572 425.16092 
L 391.439696 424.317618 
L 391.77882 424.820579 
L 392.117944 424.912343 
L 392.457068 424.862395 
L 392.796191 424.14222 
L 393.135315 425.043601 
L 393.813563 424.930928 
L 394.152687 425.151627 
L 394.491811 423.636936 
L 394.830934 425.610449 
L 395.170058 429.609745 
L 395.848306 427.412049 
L 396.18743 425.034308 
L 396.526554 426.603594 
L 396.865677 426.899795 
L 397.204801 426.787122 
L 397.543925 425.372326 
L 397.883049 426.452589 
L 398.561297 426.200528 
L 398.90042 425.605802 
L 399.239544 425.504745 
L 399.578668 426.816162 
L 399.917792 426.917219 
L 400.935163 425.494291 
L 401.274287 425.401365 
L 401.613411 424.660282 
L 401.952535 424.772954 
L 402.291659 424.158482 
L 402.630782 425.097033 
L 403.30903 424.971583 
L 403.648154 423.518455 
L 403.987278 425.986798 
L 404.665525 425.968213 
L 405.004649 425.295662 
L 405.343773 425.869479 
L 405.682897 426.94045 
L 406.361145 426.461882 
L 406.700268 425.710344 
L 407.039392 425.562824 
L 407.378516 425.831148 
L 407.71764 425.519846 
L 408.056764 424.003993 
L 408.395888 425.058701 
L 408.735011 425.626711 
L 409.413259 425.61161 
L 409.752383 424.800832 
L 410.091507 427.238974 
L 410.430631 427.68618 
L 411.108878 425.378134 
L 411.448002 425.462929 
L 411.787126 426.292292 
L 412.465374 426.244668 
L 413.482745 424.036517 
L 413.821869 423.93546 
L 414.160993 423.106097 
L 414.500116 423.409267 
L 414.83924 425.598833 
L 415.517488 425.450152 
L 415.856612 423.991216 
L 416.195736 426.141288 
L 416.873983 425.514038 
L 417.213107 424.401251 
L 417.891355 430.92 
L 418.230479 429.921047 
L 418.569602 430.214925 
L 418.908726 426.413096 
L 419.24785 427.068223 
L 419.586974 425.961244 
L 419.926098 425.588379 
L 420.265222 424.398928 
L 420.604345 425.656912 
L 421.282593 426.706974 
L 421.621717 426.105279 
L 421.960841 424.804317 
L 422.299965 425.416466 
L 422.978212 425.998414 
L 423.317336 423.927329 
L 423.65646 424.631242 
L 423.995584 426.23189 
L 424.334708 426.506022 
L 424.673831 425.531462 
L 425.012955 424.920474 
L 425.352079 427.189027 
L 425.691203 426.809192 
L 426.030327 426.798738 
L 426.36945 426.039069 
L 426.708574 425.787008 
L 427.386822 425.997253 
L 427.725946 425.031985 
L 428.06507 424.7474 
L 428.404193 426.684904 
L 428.743317 425.453636 
L 429.082441 425.46409 
L 429.421565 424.346657 
L 429.760689 423.837888 
L 430.099813 425.747514 
L 430.438936 425.7812 
L 430.77806 424.791539 
L 431.117184 424.266508 
L 431.456308 425.550047 
L 431.795432 425.071479 
L 432.134556 424.944867 
L 432.473679 424.124796 
L 433.151927 426.523445 
L 433.830175 426.591978 
L 434.169299 425.246876 
L 434.508422 425.523331 
L 434.847546 425.500099 
L 435.18667 424.957644 
L 435.525794 423.753093 
L 435.864918 423.356997 
L 436.204042 426.158711 
L 436.543165 426.028615 
L 437.221413 424.700937 
L 437.560537 425.570955 
L 438.238785 425.554693 
L 438.577908 428.51322 
L 438.917032 428.8524 
L 439.256156 429.476164 
L 439.59528 429.838575 
L 439.934404 426.797576 
L 440.273527 426.267899 
L 440.612651 426.729044 
L 440.951775 425.919427 
L 441.290899 425.776554 
L 441.630023 424.145705 
L 441.969147 428.333176 
L 442.30827 428.924417 
L 442.647394 428.965072 
L 442.986518 429.418086 
L 443.325642 425.333994 
L 443.664766 428.277421 
L 444.00389 426.725559 
L 444.682137 425.871803 
L 445.021261 425.949628 
L 445.360385 426.688389 
L 445.699509 425.947305 
L 446.038633 425.662719 
L 446.377756 424.545286 
L 446.71688 425.777715 
L 447.056004 426.11341 
L 447.395128 426.115733 
L 447.734252 423.520778 
L 448.073376 424.609172 
L 448.751623 425.23526 
L 449.090747 424.975068 
L 449.429871 424.138735 
L 449.768995 424.502308 
L 450.108119 424.62195 
L 450.786366 423.154883 
L 451.464614 425.706859 
L 451.803738 425.084256 
L 452.142861 424.727653 
L 452.481985 424.087626 
L 452.821109 423.980761 
L 453.160233 423.699661 
L 453.499357 422.751817 
L 453.838481 422.373144 
L 454.177604 423.243162 
L 454.516728 425.754484 
L 454.855852 424.88795 
L 455.194976 424.374535 
L 455.5341 423.183922 
L 455.873224 424.2305 
L 456.212347 424.240954 
L 456.551471 423.634613 
L 456.890595 422.367336 
L 457.229719 422.62869 
L 457.568843 423.360481 
L 458.24709 423.434822 
L 458.586214 422.893529 
L 458.925338 424.072526 
L 459.264462 423.12352 
L 459.603586 423.333765 
L 459.94271 422.744847 
L 460.281833 422.48814 
L 460.620957 422.929538 
L 460.960081 422.837773 
L 461.299205 421.993309 
L 461.638329 421.813266 
L 461.977453 424.726491 
L 462.316576 424.800832 
L 462.6557 424.261862 
L 462.994824 422.663537 
L 463.333948 423.103774 
L 463.673072 424.361757 
L 464.012195 424.221207 
L 464.351319 423.764709 
L 464.690443 422.962062 
L 465.029567 424.840326 
L 465.368691 425.063348 
L 465.707815 424.743915 
L 466.386062 423.132813 
L 466.725186 423.284979 
L 467.06431 423.008525 
L 467.403434 422.312742 
L 467.742558 420.144085 
L 468.081681 420.349683 
L 468.420805 420.870068 
L 468.759929 421.039658 
L 469.099053 420.045351 
L 469.438177 421.158138 
L 469.777301 421.780742 
L 470.455548 421.820235 
L 470.794672 421.188339 
L 471.133796 421.934069 
L 471.812044 421.916646 
L 472.151167 421.4253 
L 472.490291 422.211685 
L 472.829415 420.07439 
L 473.168539 420.263727 
L 473.507663 419.796774 
L 473.846787 419.126547 
L 474.18591 422.119921 
L 474.525034 421.136068 
L 474.864158 421.198793 
L 475.203282 420.201002 
L 475.542406 420.741134 
L 475.88153 422.038611 
L 476.220653 422.05255 
L 476.898901 420.710933 
L 477.238025 422.339458 
L 477.577149 421.389291 
L 477.916272 421.080313 
L 478.255396 419.76425 
L 478.59452 420.139439 
L 478.933644 421.170916 
L 479.272768 420.699317 
L 479.611892 420.857291 
L 479.951015 419.8897 
L 480.290139 421.202278 
L 480.629263 421.355606 
L 481.646635 418.422633 
L 481.985758 420.43564 
L 482.324882 424.318779 
L 482.664006 423.803041 
L 483.342254 421.740087 
L 483.681378 421.973563 
L 484.020501 421.233641 
L 484.359625 420.079037 
L 485.037873 421.936392 
L 485.716121 421.247579 
L 486.055244 420.4066 
L 486.394368 420.670278 
L 486.733492 420.312513 
L 487.072616 420.469325 
L 487.41174 419.580722 
L 487.750864 420.189386 
L 488.089987 420.225395 
L 488.768235 418.814083 
L 489.107359 417.259898 
L 489.446483 418.351777 
L 489.785606 417.823261 
L 490.12473 417.664126 
L 490.463854 416.749968 
L 491.142102 417.983559 
L 491.481226 417.768668 
L 491.820349 417.862755 
L 492.159473 417.191366 
L 492.498597 418.814083 
L 492.837721 418.905848 
L 493.176845 417.374894 
L 493.515969 416.864964 
L 493.855092 418.114816 
L 494.194216 417.192527 
L 494.872464 416.630326 
L 495.211588 415.907827 
L 495.550712 417.633925 
L 495.889835 417.125156 
L 496.228959 416.874256 
L 496.568083 416.102971 
L 496.907207 416.072771 
L 497.246331 418.042799 
L 497.585455 418.009113 
L 498.263702 415.612788 
L 498.602826 418.536467 
L 498.94195 418.39824 
L 499.281074 417.57817 
L 499.620198 416.294631 
L 499.959321 416.040247 
L 500.298445 415.257346 
L 500.976693 415.364211 
L 501.315817 414.040017 
L 501.65494 414.633581 
L 502.333188 414.642874 
L 502.672312 413.688061 
L 503.35056 416.731383 
L 504.028807 415.372342 
L 504.367931 414.29324 
L 504.707055 415.977522 
L 505.046179 416.284177 
L 505.385303 415.843941 
L 505.724426 415.008769 
L 506.06355 415.759146 
L 506.402674 415.166743 
L 506.741798 415.304971 
L 507.080922 414.539494 
L 507.420046 414.227031 
L 507.759169 415.79167 
L 508.098293 415.796316 
L 508.437417 415.574456 
L 508.776541 414.109712 
L 509.115665 417.006675 
L 509.454789 417.150711 
L 509.793912 416.486291 
L 510.47216 411.615814 
L 510.811284 412.958593 
L 511.150408 412.335989 
L 511.489532 411.953832 
L 511.828655 411.197648 
L 512.506903 411.716871 
L 512.846027 411.043158 
L 513.185151 411.078006 
L 513.524274 410.184756 
L 513.863398 412.079282 
L 514.202522 412.474217 
L 514.541646 412.204732 
L 514.88077 411.168608 
L 515.559017 412.691431 
L 515.898141 412.088574 
L 516.237265 412.257002 
L 516.576389 411.265019 
L 516.915513 413.461554 
L 517.254637 413.36282 
L 517.932884 411.060582 
L 518.272008 411.363753 
L 518.611132 411.302189 
L 518.950256 411.008311 
L 519.28938 411.138407 
L 519.628503 410.471664 
L 519.967627 411.203455 
L 520.306751 411.360268 
L 520.984999 409.420441 
L 521.324123 410.566913 
L 521.663246 411.153508 
L 522.00237 411.344006 
L 522.341494 411.10356 
L 522.680618 410.19521 
L 523.019742 412.356898 
L 523.697989 411.81212 
L 524.037113 411.138407 
L 524.376237 410.860791 
L 524.715361 412.850566 
L 525.393609 412.657745 
L 525.732732 416.034439 
L 526.071856 414.220061 
L 526.41098 414.511616 
L 526.750104 414.635904 
L 527.089228 409.385593 
L 527.767475 411.889945 
L 528.106599 410.753927 
L 528.784847 410.309044 
L 529.123971 415.761469 
L 529.463094 415.300324 
L 529.802218 415.41532 
L 530.141342 411.323098 
L 530.480466 411.299866 
L 530.81959 413.159545 
L 531.158714 412.506741 
L 531.497837 412.576435 
L 531.836961 411.019927 
L 532.176085 412.037465 
L 532.515209 412.355736 
L 532.854333 411.404408 
L 533.193457 410.842206 
L 533.53258 411.122145 
L 533.871704 411.987517 
L 534.210828 416.408465 
L 534.549952 415.42229 
L 534.889076 414.038856 
L 535.2282 416.09484 
L 535.906447 413.160706 
L 536.245571 412.585728 
L 536.584695 413.412768 
L 536.923819 413.607912 
L 537.262943 413.600943 
L 537.602066 413.021318 
L 537.94119 412.001456 
L 538.280314 412.791326 
L 538.958562 413.22227 
L 539.297685 412.097867 
L 539.975933 414.755547 
L 540.315057 414.598734 
L 540.654181 414.261878 
L 540.993305 413.553318 
L 541.671552 412.744863 
L 542.3498 410.853822 
L 543.028048 412.532295 
L 543.367171 412.715824 
L 543.706295 412.438208 
L 544.045419 411.292897 
L 544.384543 413.480139 
L 544.723667 413.755432 
L 545.062791 413.653213 
L 545.401914 411.909692 
L 545.741038 411.12563 
L 546.080162 416.941627 
L 547.097534 415.867172 
L 547.775781 416.86961 
L 548.114905 416.564116 
L 548.454029 415.950805 
L 548.793153 415.93222 
L 549.132277 417.369086 
L 549.4714 416.92885 
L 549.810524 416.959051 
L 550.149648 415.100534 
L 550.488772 417.870886 
L 550.827896 417.801192 
L 551.167019 417.065916 
L 551.506143 415.561678 
L 552.184391 416.98809 
L 552.523515 416.713959 
L 553.201762 415.514054 
L 553.540886 416.476998 
L 553.88001 416.521138 
L 554.558258 415.206237 
L 555.236505 417.173942 
L 555.575629 416.090194 
L 555.914753 415.983329 
L 556.253877 415.180682 
L 556.593001 415.869495 
L 557.271248 414.401267 
L 557.610372 412.916776 
L 557.949496 413.597458 
L 558.627744 413.221108 
L 558.966868 412.691431 
L 559.305991 411.931762 
L 559.645115 413.969161 
L 560.323363 413.897144 
L 560.662487 412.10019 
L 561.001611 413.301257 
L 561.340734 413.99007 
L 561.679858 414.094611 
L 562.018982 413.769371 
L 562.358106 413.161868 
L 562.69723 414.680044 
L 563.036354 414.598734 
L 563.375477 414.664944 
L 563.714601 413.677607 
L 564.053725 411.474102 
L 564.392849 411.069875 
L 565.071096 411.390469 
L 565.41022 410.327629 
L 565.749344 411.628591 
L 566.088468 411.922469 
L 566.427592 412.028172 
L 566.766716 411.174416 
L 567.105839 411.741264 
L 567.444963 413.014348 
L 567.784087 412.951623 
L 568.123211 412.444016 
L 568.462335 410.392677 
L 568.801459 410.758573 
L 569.140582 410.93397 
L 569.479706 414.725346 
L 569.81883 413.389536 
L 570.157954 413.048034 
L 570.497078 411.232495 
L 570.836202 411.685508 
L 571.175325 411.725002 
L 571.853573 410.584337 
L 572.192697 410.973464 
L 572.531821 411.1477 
L 572.870945 410.1139 
L 573.210068 410.376415 
L 573.549192 410.995534 
L 573.888316 411.225525 
L 574.566564 409.275244 
L 574.905688 410.019812 
L 575.244811 410.348538 
L 575.923059 408.577138 
L 576.601307 410.533228 
L 576.94043 410.436817 
L 577.279554 410.171978 
L 577.618678 409.308929 
L 577.957802 409.869969 
L 578.63605 409.170702 
L 578.975173 407.728028 
L 579.653421 408.508606 
L 579.992545 408.441234 
L 580.331669 406.777861 
L 580.670793 406.609433 
L 581.009916 408.764152 
L 581.34904 407.547984 
L 581.688164 407.435312 
L 582.027288 406.779023 
L 582.366412 407.199512 
L 582.705536 408.308815 
L 583.044659 408.207758 
L 583.383783 407.715251 
L 583.722907 406.940482 
L 584.062031 406.93932 
L 584.401155 406.749984 
L 584.740279 406.874272 
L 585.079402 405.636035 
L 585.418526 407.199512 
L 585.75765 407.371425 
L 586.435898 407.170473 
L 586.775022 406.079756 
L 587.114145 411.082652 
L 587.792393 411.151185 
L 588.131517 409.989611 
L 588.470641 407.783784 
L 588.809764 409.490135 
L 589.148888 407.672273 
L 589.827136 405.695275 
L 590.16626 406.518831 
L 590.505384 405.510585 
L 590.844507 405.435083 
L 591.183631 404.94606 
L 591.861879 407.0276 
L 592.540127 407.003207 
L 592.87925 406.135511 
L 593.557498 406.801093 
L 594.235746 404.838034 
L 594.57487 404.719554 
L 594.913993 406.186621 
L 595.253117 411.08846 
L 595.592241 411.367237 
L 595.931365 410.328791 
L 596.270489 411.718032 
L 596.609613 411.858583 
L 596.948736 411.526373 
L 597.28786 410.453079 
L 597.966108 411.809797 
L 598.305232 411.889945 
L 598.644356 410.043044 
L 598.983479 409.730581 
L 599.661727 410.138293 
L 600.000851 410.245158 
L 600.339975 408.634055 
L 600.679099 408.704911 
L 601.018222 410.040721 
L 601.357346 408.678195 
L 601.69647 408.744405 
L 602.035594 407.64788 
L 602.374718 408.78506 
L 602.713841 408.929095 
L 603.052965 409.588869 
L 603.392089 408.359924 
L 603.731213 408.671226 
L 604.070337 410.34273 
L 604.409461 409.461096 
L 604.748584 409.426248 
L 605.087708 413.280348 
L 605.426832 413.779825 
L 606.10508 411.578644 
L 606.444204 411.554251 
L 606.783327 412.281395 
L 607.461575 411.29522 
L 607.800699 410.923516 
L 608.139823 409.901332 
L 608.478947 412.147815 
L 608.81807 412.267457 
L 609.157194 412.533457 
L 609.496318 410.952556 
L 609.835442 411.076844 
L 610.174566 411.586775 
L 610.51369 411.75288 
L 610.852813 410.694686 
L 611.191937 409.137017 
L 611.531061 411.36956 
L 611.870185 411.814443 
L 612.209309 411.537989 
L 612.548433 410.802713 
L 612.887556 414.927459 
L 613.22668 414.131782 
L 613.565804 413.851843 
L 613.904928 412.733247 
L 614.244052 409.370493 
L 614.583175 412.024688 
L 614.922299 412.014234 
L 615.939671 408.680518 
L 616.617918 414.230515 
L 617.296166 413.271056 
L 617.63529 412.360382 
L 617.974414 412.119937 
L 618.313538 412.257002 
L 618.652661 410.644739 
L 618.991785 410.562267 
L 619.330909 411.491526 
L 619.330909 411.491526 
" style="fill:none;stroke:#1f77b4;stroke-linecap:square;stroke-width:1.5;"/>
   </g>
   <g id="patch_3">
    <path d="M 108 448.56 
L 108 60.48 
" style="fill:none;stroke:#000000;stroke-linecap:square;stroke-linejoin:miter;stroke-width:0.8;"/>
   </g>
   <g id="patch_4">
    <path d="M 643.68 448.56 
L 643.68 60.48 
" style="fill:none;stroke:#000000;stroke-linecap:square;stroke-linejoin:miter;stroke-width:0.8;"/>
   </g>
   <g id="patch_5">
    <path d="M 108 448.56 
L 643.68 448.56 
" style="fill:none;stroke:#000000;stroke-linecap:square;stroke-linejoin:miter;stroke-width:0.8;"/>
   </g>
   <g id="patch_6">
    <path d="M 108 60.48 
L 643.68 60.48 
" style="fill:none;stroke:#000000;stroke-linecap:square;stroke-linejoin:miter;stroke-width:0.8;"/>
   </g>
   <g id="text_30">
    <!-- unikernel_dce-allocpool - vmstat -->
    <g transform="translate(254.104453 54.48)scale(0.15 -0.15)">
     <defs>
      <path d="M 8.5 21.578125 
L 8.5 54.6875 
L 17.484375 54.6875 
L 17.484375 21.921875 
Q 17.484375 14.15625 20.5 10.265625 
Q 23.53125 6.390625 29.59375 6.390625 
Q 36.859375 6.390625 41.078125 11.03125 
Q 45.3125 15.671875 45.3125 23.6875 
L 45.3125 54.6875 
L 54.296875 54.6875 
L 54.296875 0 
L 45.3125 0 
L 45.3125 8.40625 
Q 42.046875 3.421875 37.71875 1 
Q 33.40625 -1.421875 27.6875 -1.421875 
Q 18.265625 -1.421875 13.375 4.4375 
Q 8.5 10.296875 8.5 21.578125 
z
M 31.109375 56 
z
" id="DejaVuSans-117"/>
      <path d="M 54.890625 33.015625 
L 54.890625 0 
L 45.90625 0 
L 45.90625 32.71875 
Q 45.90625 40.484375 42.875 44.328125 
Q 39.84375 48.1875 33.796875 48.1875 
Q 26.515625 48.1875 22.3125 43.546875 
Q 18.109375 38.921875 18.109375 30.90625 
L 18.109375 0 
L 9.078125 0 
L 9.078125 54.6875 
L 18.109375 54.6875 
L 18.109375 46.1875 
Q 21.34375 51.125 25.703125 53.5625 
Q 30.078125 56 35.796875 56 
Q 45.21875 56 50.046875 50.171875 
Q 54.890625 44.34375 54.890625 33.015625 
z
" id="DejaVuSans-110"/>
      <path d="M 9.078125 75.984375 
L 18.109375 75.984375 
L 18.109375 31.109375 
L 44.921875 54.6875 
L 56.390625 54.6875 
L 27.390625 29.109375 
L 57.625 0 
L 45.90625 0 
L 18.109375 26.703125 
L 18.109375 0 
L 9.078125 0 
z
" id="DejaVuSans-107"/>
      <path d="M 41.109375 46.296875 
Q 39.59375 47.171875 37.8125 47.578125 
Q 36.03125 48 33.890625 48 
Q 26.265625 48 22.1875 43.046875 
Q 18.109375 38.09375 18.109375 28.8125 
L 18.109375 0 
L 9.078125 0 
L 9.078125 54.6875 
L 18.109375 54.6875 
L 18.109375 46.1875 
Q 20.953125 51.171875 25.484375 53.578125 
Q 30.03125 56 36.53125 56 
Q 37.453125 56 38.578125 55.875 
Q 39.703125 55.765625 41.0625 55.515625 
z
" id="DejaVuSans-114"/>
      <path d="M 9.421875 75.984375 
L 18.40625 75.984375 
L 18.40625 0 
L 9.421875 0 
z
" id="DejaVuSans-108"/>
      <path d="M 50.984375 -16.609375 
L 50.984375 -23.578125 
L -0.984375 -23.578125 
L -0.984375 -16.609375 
z
" id="DejaVuSans-95"/>
      <path d="M 45.40625 46.390625 
L 45.40625 75.984375 
L 54.390625 75.984375 
L 54.390625 0 
L 45.40625 0 
L 45.40625 8.203125 
Q 42.578125 3.328125 38.25 0.953125 
Q 33.9375 -1.421875 27.875 -1.421875 
Q 17.96875 -1.421875 11.734375 6.484375 
Q 5.515625 14.40625 5.515625 27.296875 
Q 5.515625 40.1875 11.734375 48.09375 
Q 17.96875 56 27.875 56 
Q 33.9375 56 38.25 53.625 
Q 42.578125 51.265625 45.40625 46.390625 
z
M 14.796875 27.296875 
Q 14.796875 17.390625 18.875 11.75 
Q 22.953125 6.109375 30.078125 6.109375 
Q 37.203125 6.109375 41.296875 11.75 
Q 45.40625 17.390625 45.40625 27.296875 
Q 45.40625 37.203125 41.296875 42.84375 
Q 37.203125 48.484375 30.078125 48.484375 
Q 22.953125 48.484375 18.875 42.84375 
Q 14.796875 37.203125 14.796875 27.296875 
z
" id="DejaVuSans-100"/>
      <path d="M 48.78125 52.59375 
L 48.78125 44.1875 
Q 44.96875 46.296875 41.140625 47.34375 
Q 37.3125 48.390625 33.40625 48.390625 
Q 24.65625 48.390625 19.8125 42.84375 
Q 14.984375 37.3125 14.984375 27.296875 
Q 14.984375 17.28125 19.8125 11.734375 
Q 24.65625 6.203125 33.40625 6.203125 
Q 37.3125 6.203125 41.140625 7.25 
Q 44.96875 8.296875 48.78125 10.40625 
L 48.78125 2.09375 
Q 45.015625 0.34375 40.984375 -0.53125 
Q 36.96875 -1.421875 32.421875 -1.421875 
Q 20.0625 -1.421875 12.78125 6.34375 
Q 5.515625 14.109375 5.515625 27.296875 
Q 5.515625 40.671875 12.859375 48.328125 
Q 20.21875 56 33.015625 56 
Q 37.15625 56 41.109375 55.140625 
Q 45.0625 54.296875 48.78125 52.59375 
z
" id="DejaVuSans-99"/>
      <path d="M 4.890625 31.390625 
L 31.203125 31.390625 
L 31.203125 23.390625 
L 4.890625 23.390625 
z
" id="DejaVuSans-45"/>
      <path d="M 30.609375 48.390625 
Q 23.390625 48.390625 19.1875 42.75 
Q 14.984375 37.109375 14.984375 27.296875 
Q 14.984375 17.484375 19.15625 11.84375 
Q 23.34375 6.203125 30.609375 6.203125 
Q 37.796875 6.203125 41.984375 11.859375 
Q 46.1875 17.53125 46.1875 27.296875 
Q 46.1875 37.015625 41.984375 42.703125 
Q 37.796875 48.390625 30.609375 48.390625 
z
M 30.609375 56 
Q 42.328125 56 49.015625 48.375 
Q 55.71875 40.765625 55.71875 27.296875 
Q 55.71875 13.875 49.015625 6.21875 
Q 42.328125 -1.421875 30.609375 -1.421875 
Q 18.84375 -1.421875 12.171875 6.21875 
Q 5.515625 13.875 5.515625 27.296875 
Q 5.515625 40.765625 12.171875 48.375 
Q 18.84375 56 30.609375 56 
z
" id="DejaVuSans-111"/>
      <path id="DejaVuSans-32"/>
      <path d="M 2.984375 54.6875 
L 12.5 54.6875 
L 29.59375 8.796875 
L 46.6875 54.6875 
L 56.203125 54.6875 
L 35.6875 0 
L 23.484375 0 
z
" id="DejaVuSans-118"/>
     </defs>
     <use xlink:href="#DejaVuSans-117"/>
     <use x="63.378906" xlink:href="#DejaVuSans-110"/>
     <use x="126.757812" xlink:href="#DejaVuSans-105"/>
     <use x="154.541016" xlink:href="#DejaVuSans-107"/>
     <use x="208.826172" xlink:href="#DejaVuSans-101"/>
     <use x="270.349609" xlink:href="#DejaVuSans-114"/>
     <use x="309.712891" xlink:href="#DejaVuSans-110"/>
     <use x="373.091797" xlink:href="#DejaVuSans-101"/>
     <use x="434.615234" xlink:href="#DejaVuSans-108"/>
     <use x="462.398438" xlink:href="#DejaVuSans-95"/>
     <use x="512.398438" xlink:href="#DejaVuSans-100"/>
     <use x="575.875" xlink:href="#DejaVuSans-99"/>
     <use x="630.855469" xlink:href="#DejaVuSans-101"/>
     <use x="692.378906" xlink:href="#DejaVuSans-45"/>
     <use x="728.462891" xlink:href="#DejaVuSans-97"/>
     <use x="789.742188" xlink:href="#DejaVuSans-108"/>
     <use x="817.525391" xlink:href="#DejaVuSans-108"/>
     <use x="845.308594" xlink:href="#DejaVuSans-111"/>
     <use x="906.490234" xlink:href="#DejaVuSans-99"/>
     <use x="961.470703" xlink:href="#DejaVuSans-112"/>
     <use x="1024.947266" xlink:href="#DejaVuSans-111"/>
     <use x="1086.128906" xlink:href="#DejaVuSans-111"/>
     <use x="1147.310547" xlink:href="#DejaVuSans-108"/>
     <use x="1175.09375" xlink:href="#DejaVuSans-32"/>
     <use x="1206.880859" xlink:href="#DejaVuSans-45"/>
     <use x="1242.964844" xlink:href="#DejaVuSans-32"/>
     <use x="1274.751953" xlink:href="#DejaVuSans-118"/>
     <use x="1333.931641" xlink:href="#DejaVuSans-109"/>
     <use x="1431.34375" xlink:href="#DejaVuSans-115"/>
     <use x="1483.443359" xlink:href="#DejaVuSans-116"/>
     <use x="1522.652344" xlink:href="#DejaVuSans-97"/>
     <use x="1583.931641" xlink:href="#DejaVuSans-116"/>
    </g>
   </g>
   <g id="legend_1">
    <g id="patch_7">
     <path d="M 650.68 258.52 
L 654.68 258.52 
Q 656.68 258.52 656.68 256.52 
L 656.68 252.52 
Q 656.68 250.52 654.68 250.52 
L 650.68 250.52 
Q 648.68 250.52 648.68 252.52 
L 648.68 256.52 
Q 648.68 258.52 650.68 258.52 
z
" style="fill:#ffffff;opacity:0.8;stroke:#cccccc;stroke-linejoin:miter;"/>
    </g>
   </g>
  </g>
 </g>
 <defs>
  <clipPath id="p94027bcfaa">
   <rect height="388.08" width="535.68" x="108" y="60.48"/>
  </clipPath>
 </defs>
</svg>
