<?xml version="1.0" encoding="utf-8" standalone="no"?>
<!DOCTYPE svg PUBLIC "-//W3C//DTD SVG 1.1//EN"
  "http://www.w3.org/Graphics/SVG/1.1/DTD/svg11.dtd">
<!-- Created with matplotlib (https://matplotlib.org/) -->
<svg height="504pt" version="1.1" viewBox="0 0 864 504" width="864pt" xmlns="http://www.w3.org/2000/svg" xmlns:xlink="http://www.w3.org/1999/xlink">
 <metadata>
  <rdf:RDF xmlns:cc="http://creativecommons.org/ns#" xmlns:dc="http://purl.org/dc/elements/1.1/" xmlns:rdf="http://www.w3.org/1999/02/22-rdf-syntax-ns#">
   <cc:Work>
    <dc:type rdf:resource="http://purl.org/dc/dcmitype/StillImage"/>
    <dc:date>2022-05-29T17:22:12.658842</dc:date>
    <dc:format>image/svg+xml</dc:format>
    <dc:creator>
     <cc:Agent>
      <dc:title>Matplotlib v3.3.4, https://matplotlib.org/</dc:title>
     </cc:Agent>
    </dc:creator>
   </cc:Work>
  </rdf:RDF>
 </metadata>
 <defs>
  <style type="text/css">*{stroke-linecap:butt;stroke-linejoin:round;}</style>
 </defs>
 <g id="figure_1">
  <g id="patch_1">
   <path d="M 0 504 
L 864 504 
L 864 0 
L 0 0 
z
" style="fill:#ffffff;"/>
  </g>
  <g id="axes_1">
   <g id="patch_2">
    <path d="M 108 448.56 
L 643.68 448.56 
L 643.68 60.48 
L 108 60.48 
z
" style="fill:#ffffff;"/>
   </g>
   <g id="matplotlib.axis_1">
    <g id="xtick_1">
     <g id="line2d_1">
      <defs>
       <path d="M 0 0 
L 0 3.5 
" id="m6f00c781ef" style="stroke:#000000;stroke-width:0.8;"/>
      </defs>
      <g>
       <use style="stroke:#000000;stroke-width:0.8;" x="132.349091" xlink:href="#m6f00c781ef" y="448.56"/>
      </g>
     </g>
     <g id="text_1">
      <!-- 17:37:06 -->
      <g transform="translate(135.108466 500.4725)rotate(-90)scale(0.1 -0.1)">
       <defs>
        <path d="M 12.40625 8.296875 
L 28.515625 8.296875 
L 28.515625 63.921875 
L 10.984375 60.40625 
L 10.984375 69.390625 
L 28.421875 72.90625 
L 38.28125 72.90625 
L 38.28125 8.296875 
L 54.390625 8.296875 
L 54.390625 0 
L 12.40625 0 
z
" id="DejaVuSans-49"/>
        <path d="M 8.203125 72.90625 
L 55.078125 72.90625 
L 55.078125 68.703125 
L 28.609375 0 
L 18.3125 0 
L 43.21875 64.59375 
L 8.203125 64.59375 
z
" id="DejaVuSans-55"/>
        <path d="M 11.71875 12.40625 
L 22.015625 12.40625 
L 22.015625 0 
L 11.71875 0 
z
M 11.71875 51.703125 
L 22.015625 51.703125 
L 22.015625 39.3125 
L 11.71875 39.3125 
z
" id="DejaVuSans-58"/>
        <path d="M 40.578125 39.3125 
Q 47.65625 37.796875 51.625 33 
Q 55.609375 28.21875 55.609375 21.1875 
Q 55.609375 10.40625 48.1875 4.484375 
Q 40.765625 -1.421875 27.09375 -1.421875 
Q 22.515625 -1.421875 17.65625 -0.515625 
Q 12.796875 0.390625 7.625 2.203125 
L 7.625 11.71875 
Q 11.71875 9.328125 16.59375 8.109375 
Q 21.484375 6.890625 26.8125 6.890625 
Q 36.078125 6.890625 40.9375 10.546875 
Q 45.796875 14.203125 45.796875 21.1875 
Q 45.796875 27.640625 41.28125 31.265625 
Q 36.765625 34.90625 28.71875 34.90625 
L 20.21875 34.90625 
L 20.21875 43.015625 
L 29.109375 43.015625 
Q 36.375 43.015625 40.234375 45.921875 
Q 44.09375 48.828125 44.09375 54.296875 
Q 44.09375 59.90625 40.109375 62.90625 
Q 36.140625 65.921875 28.71875 65.921875 
Q 24.65625 65.921875 20.015625 65.03125 
Q 15.375 64.15625 9.8125 62.3125 
L 9.8125 71.09375 
Q 15.4375 72.65625 20.34375 73.4375 
Q 25.25 74.21875 29.59375 74.21875 
Q 40.828125 74.21875 47.359375 69.109375 
Q 53.90625 64.015625 53.90625 55.328125 
Q 53.90625 49.265625 50.4375 45.09375 
Q 46.96875 40.921875 40.578125 39.3125 
z
" id="DejaVuSans-51"/>
        <path d="M 31.78125 66.40625 
Q 24.171875 66.40625 20.328125 58.90625 
Q 16.5 51.421875 16.5 36.375 
Q 16.5 21.390625 20.328125 13.890625 
Q 24.171875 6.390625 31.78125 6.390625 
Q 39.453125 6.390625 43.28125 13.890625 
Q 47.125 21.390625 47.125 36.375 
Q 47.125 51.421875 43.28125 58.90625 
Q 39.453125 66.40625 31.78125 66.40625 
z
M 31.78125 74.21875 
Q 44.046875 74.21875 50.515625 64.515625 
Q 56.984375 54.828125 56.984375 36.375 
Q 56.984375 17.96875 50.515625 8.265625 
Q 44.046875 -1.421875 31.78125 -1.421875 
Q 19.53125 -1.421875 13.0625 8.265625 
Q 6.59375 17.96875 6.59375 36.375 
Q 6.59375 54.828125 13.0625 64.515625 
Q 19.53125 74.21875 31.78125 74.21875 
z
" id="DejaVuSans-48"/>
        <path d="M 33.015625 40.375 
Q 26.375 40.375 22.484375 35.828125 
Q 18.609375 31.296875 18.609375 23.390625 
Q 18.609375 15.53125 22.484375 10.953125 
Q 26.375 6.390625 33.015625 6.390625 
Q 39.65625 6.390625 43.53125 10.953125 
Q 47.40625 15.53125 47.40625 23.390625 
Q 47.40625 31.296875 43.53125 35.828125 
Q 39.65625 40.375 33.015625 40.375 
z
M 52.59375 71.296875 
L 52.59375 62.3125 
Q 48.875 64.0625 45.09375 64.984375 
Q 41.3125 65.921875 37.59375 65.921875 
Q 27.828125 65.921875 22.671875 59.328125 
Q 17.53125 52.734375 16.796875 39.40625 
Q 19.671875 43.65625 24.015625 45.921875 
Q 28.375 48.1875 33.59375 48.1875 
Q 44.578125 48.1875 50.953125 41.515625 
Q 57.328125 34.859375 57.328125 23.390625 
Q 57.328125 12.15625 50.6875 5.359375 
Q 44.046875 -1.421875 33.015625 -1.421875 
Q 20.359375 -1.421875 13.671875 8.265625 
Q 6.984375 17.96875 6.984375 36.375 
Q 6.984375 53.65625 15.1875 63.9375 
Q 23.390625 74.21875 37.203125 74.21875 
Q 40.921875 74.21875 44.703125 73.484375 
Q 48.484375 72.75 52.59375 71.296875 
z
" id="DejaVuSans-54"/>
       </defs>
       <use xlink:href="#DejaVuSans-49"/>
       <use x="63.623047" xlink:href="#DejaVuSans-55"/>
       <use x="127.246094" xlink:href="#DejaVuSans-58"/>
       <use x="160.9375" xlink:href="#DejaVuSans-51"/>
       <use x="224.560547" xlink:href="#DejaVuSans-55"/>
       <use x="288.183594" xlink:href="#DejaVuSans-58"/>
       <use x="321.875" xlink:href="#DejaVuSans-48"/>
       <use x="385.498047" xlink:href="#DejaVuSans-54"/>
      </g>
     </g>
    </g>
    <g id="xtick_2">
     <g id="line2d_2">
      <g>
       <use style="stroke:#000000;stroke-width:0.8;" x="156.698182" xlink:href="#m6f00c781ef" y="448.56"/>
      </g>
     </g>
     <g id="text_2">
      <!-- 17:38:33 -->
      <g transform="translate(159.457557 500.4725)rotate(-90)scale(0.1 -0.1)">
       <defs>
        <path d="M 31.78125 34.625 
Q 24.75 34.625 20.71875 30.859375 
Q 16.703125 27.09375 16.703125 20.515625 
Q 16.703125 13.921875 20.71875 10.15625 
Q 24.75 6.390625 31.78125 6.390625 
Q 38.8125 6.390625 42.859375 10.171875 
Q 46.921875 13.96875 46.921875 20.515625 
Q 46.921875 27.09375 42.890625 30.859375 
Q 38.875 34.625 31.78125 34.625 
z
M 21.921875 38.8125 
Q 15.578125 40.375 12.03125 44.71875 
Q 8.5 49.078125 8.5 55.328125 
Q 8.5 64.0625 14.71875 69.140625 
Q 20.953125 74.21875 31.78125 74.21875 
Q 42.671875 74.21875 48.875 69.140625 
Q 55.078125 64.0625 55.078125 55.328125 
Q 55.078125 49.078125 51.53125 44.71875 
Q 48 40.375 41.703125 38.8125 
Q 48.828125 37.15625 52.796875 32.3125 
Q 56.78125 27.484375 56.78125 20.515625 
Q 56.78125 9.90625 50.3125 4.234375 
Q 43.84375 -1.421875 31.78125 -1.421875 
Q 19.734375 -1.421875 13.25 4.234375 
Q 6.78125 9.90625 6.78125 20.515625 
Q 6.78125 27.484375 10.78125 32.3125 
Q 14.796875 37.15625 21.921875 38.8125 
z
M 18.3125 54.390625 
Q 18.3125 48.734375 21.84375 45.5625 
Q 25.390625 42.390625 31.78125 42.390625 
Q 38.140625 42.390625 41.71875 45.5625 
Q 45.3125 48.734375 45.3125 54.390625 
Q 45.3125 60.0625 41.71875 63.234375 
Q 38.140625 66.40625 31.78125 66.40625 
Q 25.390625 66.40625 21.84375 63.234375 
Q 18.3125 60.0625 18.3125 54.390625 
z
" id="DejaVuSans-56"/>
       </defs>
       <use xlink:href="#DejaVuSans-49"/>
       <use x="63.623047" xlink:href="#DejaVuSans-55"/>
       <use x="127.246094" xlink:href="#DejaVuSans-58"/>
       <use x="160.9375" xlink:href="#DejaVuSans-51"/>
       <use x="224.560547" xlink:href="#DejaVuSans-56"/>
       <use x="288.183594" xlink:href="#DejaVuSans-58"/>
       <use x="321.875" xlink:href="#DejaVuSans-51"/>
       <use x="385.498047" xlink:href="#DejaVuSans-51"/>
      </g>
     </g>
    </g>
    <g id="xtick_3">
     <g id="line2d_3">
      <g>
       <use style="stroke:#000000;stroke-width:0.8;" x="181.047273" xlink:href="#m6f00c781ef" y="448.56"/>
      </g>
     </g>
     <g id="text_3">
      <!-- 17:39:59 -->
      <g transform="translate(183.806648 500.4725)rotate(-90)scale(0.1 -0.1)">
       <defs>
        <path d="M 10.984375 1.515625 
L 10.984375 10.5 
Q 14.703125 8.734375 18.5 7.8125 
Q 22.3125 6.890625 25.984375 6.890625 
Q 35.75 6.890625 40.890625 13.453125 
Q 46.046875 20.015625 46.78125 33.40625 
Q 43.953125 29.203125 39.59375 26.953125 
Q 35.25 24.703125 29.984375 24.703125 
Q 19.046875 24.703125 12.671875 31.3125 
Q 6.296875 37.9375 6.296875 49.421875 
Q 6.296875 60.640625 12.9375 67.421875 
Q 19.578125 74.21875 30.609375 74.21875 
Q 43.265625 74.21875 49.921875 64.515625 
Q 56.59375 54.828125 56.59375 36.375 
Q 56.59375 19.140625 48.40625 8.859375 
Q 40.234375 -1.421875 26.421875 -1.421875 
Q 22.703125 -1.421875 18.890625 -0.6875 
Q 15.09375 0.046875 10.984375 1.515625 
z
M 30.609375 32.421875 
Q 37.25 32.421875 41.125 36.953125 
Q 45.015625 41.5 45.015625 49.421875 
Q 45.015625 57.28125 41.125 61.84375 
Q 37.25 66.40625 30.609375 66.40625 
Q 23.96875 66.40625 20.09375 61.84375 
Q 16.21875 57.28125 16.21875 49.421875 
Q 16.21875 41.5 20.09375 36.953125 
Q 23.96875 32.421875 30.609375 32.421875 
z
" id="DejaVuSans-57"/>
        <path d="M 10.796875 72.90625 
L 49.515625 72.90625 
L 49.515625 64.59375 
L 19.828125 64.59375 
L 19.828125 46.734375 
Q 21.96875 47.46875 24.109375 47.828125 
Q 26.265625 48.1875 28.421875 48.1875 
Q 40.625 48.1875 47.75 41.5 
Q 54.890625 34.8125 54.890625 23.390625 
Q 54.890625 11.625 47.5625 5.09375 
Q 40.234375 -1.421875 26.90625 -1.421875 
Q 22.3125 -1.421875 17.546875 -0.640625 
Q 12.796875 0.140625 7.71875 1.703125 
L 7.71875 11.625 
Q 12.109375 9.234375 16.796875 8.0625 
Q 21.484375 6.890625 26.703125 6.890625 
Q 35.15625 6.890625 40.078125 11.328125 
Q 45.015625 15.765625 45.015625 23.390625 
Q 45.015625 31 40.078125 35.4375 
Q 35.15625 39.890625 26.703125 39.890625 
Q 22.75 39.890625 18.8125 39.015625 
Q 14.890625 38.140625 10.796875 36.28125 
z
" id="DejaVuSans-53"/>
       </defs>
       <use xlink:href="#DejaVuSans-49"/>
       <use x="63.623047" xlink:href="#DejaVuSans-55"/>
       <use x="127.246094" xlink:href="#DejaVuSans-58"/>
       <use x="160.9375" xlink:href="#DejaVuSans-51"/>
       <use x="224.560547" xlink:href="#DejaVuSans-57"/>
       <use x="288.183594" xlink:href="#DejaVuSans-58"/>
       <use x="321.875" xlink:href="#DejaVuSans-53"/>
       <use x="385.498047" xlink:href="#DejaVuSans-57"/>
      </g>
     </g>
    </g>
    <g id="xtick_4">
     <g id="line2d_4">
      <g>
       <use style="stroke:#000000;stroke-width:0.8;" x="205.396364" xlink:href="#m6f00c781ef" y="448.56"/>
      </g>
     </g>
     <g id="text_4">
      <!-- 17:41:26 -->
      <g transform="translate(208.155739 500.4725)rotate(-90)scale(0.1 -0.1)">
       <defs>
        <path d="M 37.796875 64.3125 
L 12.890625 25.390625 
L 37.796875 25.390625 
z
M 35.203125 72.90625 
L 47.609375 72.90625 
L 47.609375 25.390625 
L 58.015625 25.390625 
L 58.015625 17.1875 
L 47.609375 17.1875 
L 47.609375 0 
L 37.796875 0 
L 37.796875 17.1875 
L 4.890625 17.1875 
L 4.890625 26.703125 
z
" id="DejaVuSans-52"/>
        <path d="M 19.1875 8.296875 
L 53.609375 8.296875 
L 53.609375 0 
L 7.328125 0 
L 7.328125 8.296875 
Q 12.9375 14.109375 22.625 23.890625 
Q 32.328125 33.6875 34.8125 36.53125 
Q 39.546875 41.84375 41.421875 45.53125 
Q 43.3125 49.21875 43.3125 52.78125 
Q 43.3125 58.59375 39.234375 62.25 
Q 35.15625 65.921875 28.609375 65.921875 
Q 23.96875 65.921875 18.8125 64.3125 
Q 13.671875 62.703125 7.8125 59.421875 
L 7.8125 69.390625 
Q 13.765625 71.78125 18.9375 73 
Q 24.125 74.21875 28.421875 74.21875 
Q 39.75 74.21875 46.484375 68.546875 
Q 53.21875 62.890625 53.21875 53.421875 
Q 53.21875 48.921875 51.53125 44.890625 
Q 49.859375 40.875 45.40625 35.40625 
Q 44.1875 33.984375 37.640625 27.21875 
Q 31.109375 20.453125 19.1875 8.296875 
z
" id="DejaVuSans-50"/>
       </defs>
       <use xlink:href="#DejaVuSans-49"/>
       <use x="63.623047" xlink:href="#DejaVuSans-55"/>
       <use x="127.246094" xlink:href="#DejaVuSans-58"/>
       <use x="160.9375" xlink:href="#DejaVuSans-52"/>
       <use x="224.560547" xlink:href="#DejaVuSans-49"/>
       <use x="288.183594" xlink:href="#DejaVuSans-58"/>
       <use x="321.875" xlink:href="#DejaVuSans-50"/>
       <use x="385.498047" xlink:href="#DejaVuSans-54"/>
      </g>
     </g>
    </g>
    <g id="xtick_5">
     <g id="line2d_5">
      <g>
       <use style="stroke:#000000;stroke-width:0.8;" x="229.745455" xlink:href="#m6f00c781ef" y="448.56"/>
      </g>
     </g>
     <g id="text_5">
      <!-- 17:42:53 -->
      <g transform="translate(232.50483 500.4725)rotate(-90)scale(0.1 -0.1)">
       <use xlink:href="#DejaVuSans-49"/>
       <use x="63.623047" xlink:href="#DejaVuSans-55"/>
       <use x="127.246094" xlink:href="#DejaVuSans-58"/>
       <use x="160.9375" xlink:href="#DejaVuSans-52"/>
       <use x="224.560547" xlink:href="#DejaVuSans-50"/>
       <use x="288.183594" xlink:href="#DejaVuSans-58"/>
       <use x="321.875" xlink:href="#DejaVuSans-53"/>
       <use x="385.498047" xlink:href="#DejaVuSans-51"/>
      </g>
     </g>
    </g>
    <g id="xtick_6">
     <g id="line2d_6">
      <g>
       <use style="stroke:#000000;stroke-width:0.8;" x="254.094545" xlink:href="#m6f00c781ef" y="448.56"/>
      </g>
     </g>
     <g id="text_6">
      <!-- 17:44:19 -->
      <g transform="translate(256.85392 500.4725)rotate(-90)scale(0.1 -0.1)">
       <use xlink:href="#DejaVuSans-49"/>
       <use x="63.623047" xlink:href="#DejaVuSans-55"/>
       <use x="127.246094" xlink:href="#DejaVuSans-58"/>
       <use x="160.9375" xlink:href="#DejaVuSans-52"/>
       <use x="224.560547" xlink:href="#DejaVuSans-52"/>
       <use x="288.183594" xlink:href="#DejaVuSans-58"/>
       <use x="321.875" xlink:href="#DejaVuSans-49"/>
       <use x="385.498047" xlink:href="#DejaVuSans-57"/>
      </g>
     </g>
    </g>
    <g id="xtick_7">
     <g id="line2d_7">
      <g>
       <use style="stroke:#000000;stroke-width:0.8;" x="278.443636" xlink:href="#m6f00c781ef" y="448.56"/>
      </g>
     </g>
     <g id="text_7">
      <!-- 17:45:45 -->
      <g transform="translate(281.203011 500.4725)rotate(-90)scale(0.1 -0.1)">
       <use xlink:href="#DejaVuSans-49"/>
       <use x="63.623047" xlink:href="#DejaVuSans-55"/>
       <use x="127.246094" xlink:href="#DejaVuSans-58"/>
       <use x="160.9375" xlink:href="#DejaVuSans-52"/>
       <use x="224.560547" xlink:href="#DejaVuSans-53"/>
       <use x="288.183594" xlink:href="#DejaVuSans-58"/>
       <use x="321.875" xlink:href="#DejaVuSans-52"/>
       <use x="385.498047" xlink:href="#DejaVuSans-53"/>
      </g>
     </g>
    </g>
    <g id="xtick_8">
     <g id="line2d_8">
      <g>
       <use style="stroke:#000000;stroke-width:0.8;" x="302.792727" xlink:href="#m6f00c781ef" y="448.56"/>
      </g>
     </g>
     <g id="text_8">
      <!-- 17:47:12 -->
      <g transform="translate(305.552102 500.4725)rotate(-90)scale(0.1 -0.1)">
       <use xlink:href="#DejaVuSans-49"/>
       <use x="63.623047" xlink:href="#DejaVuSans-55"/>
       <use x="127.246094" xlink:href="#DejaVuSans-58"/>
       <use x="160.9375" xlink:href="#DejaVuSans-52"/>
       <use x="224.560547" xlink:href="#DejaVuSans-55"/>
       <use x="288.183594" xlink:href="#DejaVuSans-58"/>
       <use x="321.875" xlink:href="#DejaVuSans-49"/>
       <use x="385.498047" xlink:href="#DejaVuSans-50"/>
      </g>
     </g>
    </g>
    <g id="xtick_9">
     <g id="line2d_9">
      <g>
       <use style="stroke:#000000;stroke-width:0.8;" x="327.141818" xlink:href="#m6f00c781ef" y="448.56"/>
      </g>
     </g>
     <g id="text_9">
      <!-- 17:48:38 -->
      <g transform="translate(329.901193 500.4725)rotate(-90)scale(0.1 -0.1)">
       <use xlink:href="#DejaVuSans-49"/>
       <use x="63.623047" xlink:href="#DejaVuSans-55"/>
       <use x="127.246094" xlink:href="#DejaVuSans-58"/>
       <use x="160.9375" xlink:href="#DejaVuSans-52"/>
       <use x="224.560547" xlink:href="#DejaVuSans-56"/>
       <use x="288.183594" xlink:href="#DejaVuSans-58"/>
       <use x="321.875" xlink:href="#DejaVuSans-51"/>
       <use x="385.498047" xlink:href="#DejaVuSans-56"/>
      </g>
     </g>
    </g>
    <g id="xtick_10">
     <g id="line2d_10">
      <g>
       <use style="stroke:#000000;stroke-width:0.8;" x="351.490909" xlink:href="#m6f00c781ef" y="448.56"/>
      </g>
     </g>
     <g id="text_10">
      <!-- 17:50:05 -->
      <g transform="translate(354.250284 500.4725)rotate(-90)scale(0.1 -0.1)">
       <use xlink:href="#DejaVuSans-49"/>
       <use x="63.623047" xlink:href="#DejaVuSans-55"/>
       <use x="127.246094" xlink:href="#DejaVuSans-58"/>
       <use x="160.9375" xlink:href="#DejaVuSans-53"/>
       <use x="224.560547" xlink:href="#DejaVuSans-48"/>
       <use x="288.183594" xlink:href="#DejaVuSans-58"/>
       <use x="321.875" xlink:href="#DejaVuSans-48"/>
       <use x="385.498047" xlink:href="#DejaVuSans-53"/>
      </g>
     </g>
    </g>
    <g id="xtick_11">
     <g id="line2d_11">
      <g>
       <use style="stroke:#000000;stroke-width:0.8;" x="375.84" xlink:href="#m6f00c781ef" y="448.56"/>
      </g>
     </g>
     <g id="text_11">
      <!-- 17:51:31 -->
      <g transform="translate(378.599375 500.4725)rotate(-90)scale(0.1 -0.1)">
       <use xlink:href="#DejaVuSans-49"/>
       <use x="63.623047" xlink:href="#DejaVuSans-55"/>
       <use x="127.246094" xlink:href="#DejaVuSans-58"/>
       <use x="160.9375" xlink:href="#DejaVuSans-53"/>
       <use x="224.560547" xlink:href="#DejaVuSans-49"/>
       <use x="288.183594" xlink:href="#DejaVuSans-58"/>
       <use x="321.875" xlink:href="#DejaVuSans-51"/>
       <use x="385.498047" xlink:href="#DejaVuSans-49"/>
      </g>
     </g>
    </g>
    <g id="xtick_12">
     <g id="line2d_12">
      <g>
       <use style="stroke:#000000;stroke-width:0.8;" x="400.189091" xlink:href="#m6f00c781ef" y="448.56"/>
      </g>
     </g>
     <g id="text_12">
      <!-- 17:52:57 -->
      <g transform="translate(402.948466 500.4725)rotate(-90)scale(0.1 -0.1)">
       <use xlink:href="#DejaVuSans-49"/>
       <use x="63.623047" xlink:href="#DejaVuSans-55"/>
       <use x="127.246094" xlink:href="#DejaVuSans-58"/>
       <use x="160.9375" xlink:href="#DejaVuSans-53"/>
       <use x="224.560547" xlink:href="#DejaVuSans-50"/>
       <use x="288.183594" xlink:href="#DejaVuSans-58"/>
       <use x="321.875" xlink:href="#DejaVuSans-53"/>
       <use x="385.498047" xlink:href="#DejaVuSans-55"/>
      </g>
     </g>
    </g>
    <g id="xtick_13">
     <g id="line2d_13">
      <g>
       <use style="stroke:#000000;stroke-width:0.8;" x="424.538182" xlink:href="#m6f00c781ef" y="448.56"/>
      </g>
     </g>
     <g id="text_13">
      <!-- 17:54:24 -->
      <g transform="translate(427.297557 500.4725)rotate(-90)scale(0.1 -0.1)">
       <use xlink:href="#DejaVuSans-49"/>
       <use x="63.623047" xlink:href="#DejaVuSans-55"/>
       <use x="127.246094" xlink:href="#DejaVuSans-58"/>
       <use x="160.9375" xlink:href="#DejaVuSans-53"/>
       <use x="224.560547" xlink:href="#DejaVuSans-52"/>
       <use x="288.183594" xlink:href="#DejaVuSans-58"/>
       <use x="321.875" xlink:href="#DejaVuSans-50"/>
       <use x="385.498047" xlink:href="#DejaVuSans-52"/>
      </g>
     </g>
    </g>
    <g id="xtick_14">
     <g id="line2d_14">
      <g>
       <use style="stroke:#000000;stroke-width:0.8;" x="448.887273" xlink:href="#m6f00c781ef" y="448.56"/>
      </g>
     </g>
     <g id="text_14">
      <!-- 17:55:50 -->
      <g transform="translate(451.646648 500.4725)rotate(-90)scale(0.1 -0.1)">
       <use xlink:href="#DejaVuSans-49"/>
       <use x="63.623047" xlink:href="#DejaVuSans-55"/>
       <use x="127.246094" xlink:href="#DejaVuSans-58"/>
       <use x="160.9375" xlink:href="#DejaVuSans-53"/>
       <use x="224.560547" xlink:href="#DejaVuSans-53"/>
       <use x="288.183594" xlink:href="#DejaVuSans-58"/>
       <use x="321.875" xlink:href="#DejaVuSans-53"/>
       <use x="385.498047" xlink:href="#DejaVuSans-48"/>
      </g>
     </g>
    </g>
    <g id="xtick_15">
     <g id="line2d_15">
      <g>
       <use style="stroke:#000000;stroke-width:0.8;" x="473.236364" xlink:href="#m6f00c781ef" y="448.56"/>
      </g>
     </g>
     <g id="text_15">
      <!-- 17:57:16 -->
      <g transform="translate(475.995739 500.4725)rotate(-90)scale(0.1 -0.1)">
       <use xlink:href="#DejaVuSans-49"/>
       <use x="63.623047" xlink:href="#DejaVuSans-55"/>
       <use x="127.246094" xlink:href="#DejaVuSans-58"/>
       <use x="160.9375" xlink:href="#DejaVuSans-53"/>
       <use x="224.560547" xlink:href="#DejaVuSans-55"/>
       <use x="288.183594" xlink:href="#DejaVuSans-58"/>
       <use x="321.875" xlink:href="#DejaVuSans-49"/>
       <use x="385.498047" xlink:href="#DejaVuSans-54"/>
      </g>
     </g>
    </g>
    <g id="xtick_16">
     <g id="line2d_16">
      <g>
       <use style="stroke:#000000;stroke-width:0.8;" x="497.585455" xlink:href="#m6f00c781ef" y="448.56"/>
      </g>
     </g>
     <g id="text_16">
      <!-- 17:58:43 -->
      <g transform="translate(500.34483 500.4725)rotate(-90)scale(0.1 -0.1)">
       <use xlink:href="#DejaVuSans-49"/>
       <use x="63.623047" xlink:href="#DejaVuSans-55"/>
       <use x="127.246094" xlink:href="#DejaVuSans-58"/>
       <use x="160.9375" xlink:href="#DejaVuSans-53"/>
       <use x="224.560547" xlink:href="#DejaVuSans-56"/>
       <use x="288.183594" xlink:href="#DejaVuSans-58"/>
       <use x="321.875" xlink:href="#DejaVuSans-52"/>
       <use x="385.498047" xlink:href="#DejaVuSans-51"/>
      </g>
     </g>
    </g>
    <g id="xtick_17">
     <g id="line2d_17">
      <g>
       <use style="stroke:#000000;stroke-width:0.8;" x="521.934545" xlink:href="#m6f00c781ef" y="448.56"/>
      </g>
     </g>
     <g id="text_17">
      <!-- 18:00:09 -->
      <g transform="translate(524.69392 500.4725)rotate(-90)scale(0.1 -0.1)">
       <use xlink:href="#DejaVuSans-49"/>
       <use x="63.623047" xlink:href="#DejaVuSans-56"/>
       <use x="127.246094" xlink:href="#DejaVuSans-58"/>
       <use x="160.9375" xlink:href="#DejaVuSans-48"/>
       <use x="224.560547" xlink:href="#DejaVuSans-48"/>
       <use x="288.183594" xlink:href="#DejaVuSans-58"/>
       <use x="321.875" xlink:href="#DejaVuSans-48"/>
       <use x="385.498047" xlink:href="#DejaVuSans-57"/>
      </g>
     </g>
    </g>
    <g id="xtick_18">
     <g id="line2d_18">
      <g>
       <use style="stroke:#000000;stroke-width:0.8;" x="546.283636" xlink:href="#m6f00c781ef" y="448.56"/>
      </g>
     </g>
     <g id="text_18">
      <!-- 18:01:35 -->
      <g transform="translate(549.043011 500.4725)rotate(-90)scale(0.1 -0.1)">
       <use xlink:href="#DejaVuSans-49"/>
       <use x="63.623047" xlink:href="#DejaVuSans-56"/>
       <use x="127.246094" xlink:href="#DejaVuSans-58"/>
       <use x="160.9375" xlink:href="#DejaVuSans-48"/>
       <use x="224.560547" xlink:href="#DejaVuSans-49"/>
       <use x="288.183594" xlink:href="#DejaVuSans-58"/>
       <use x="321.875" xlink:href="#DejaVuSans-51"/>
       <use x="385.498047" xlink:href="#DejaVuSans-53"/>
      </g>
     </g>
    </g>
    <g id="xtick_19">
     <g id="line2d_19">
      <g>
       <use style="stroke:#000000;stroke-width:0.8;" x="570.632727" xlink:href="#m6f00c781ef" y="448.56"/>
      </g>
     </g>
     <g id="text_19">
      <!-- 18:03:02 -->
      <g transform="translate(573.392102 500.4725)rotate(-90)scale(0.1 -0.1)">
       <use xlink:href="#DejaVuSans-49"/>
       <use x="63.623047" xlink:href="#DejaVuSans-56"/>
       <use x="127.246094" xlink:href="#DejaVuSans-58"/>
       <use x="160.9375" xlink:href="#DejaVuSans-48"/>
       <use x="224.560547" xlink:href="#DejaVuSans-51"/>
       <use x="288.183594" xlink:href="#DejaVuSans-58"/>
       <use x="321.875" xlink:href="#DejaVuSans-48"/>
       <use x="385.498047" xlink:href="#DejaVuSans-50"/>
      </g>
     </g>
    </g>
    <g id="xtick_20">
     <g id="line2d_20">
      <g>
       <use style="stroke:#000000;stroke-width:0.8;" x="594.981818" xlink:href="#m6f00c781ef" y="448.56"/>
      </g>
     </g>
     <g id="text_20">
      <!-- 18:04:28 -->
      <g transform="translate(597.741193 500.4725)rotate(-90)scale(0.1 -0.1)">
       <use xlink:href="#DejaVuSans-49"/>
       <use x="63.623047" xlink:href="#DejaVuSans-56"/>
       <use x="127.246094" xlink:href="#DejaVuSans-58"/>
       <use x="160.9375" xlink:href="#DejaVuSans-48"/>
       <use x="224.560547" xlink:href="#DejaVuSans-52"/>
       <use x="288.183594" xlink:href="#DejaVuSans-58"/>
       <use x="321.875" xlink:href="#DejaVuSans-50"/>
       <use x="385.498047" xlink:href="#DejaVuSans-56"/>
      </g>
     </g>
    </g>
    <g id="xtick_21">
     <g id="line2d_21">
      <g>
       <use style="stroke:#000000;stroke-width:0.8;" x="619.330909" xlink:href="#m6f00c781ef" y="448.56"/>
      </g>
     </g>
     <g id="text_21">
      <!-- 18:05:54 -->
      <g transform="translate(622.090284 500.4725)rotate(-90)scale(0.1 -0.1)">
       <use xlink:href="#DejaVuSans-49"/>
       <use x="63.623047" xlink:href="#DejaVuSans-56"/>
       <use x="127.246094" xlink:href="#DejaVuSans-58"/>
       <use x="160.9375" xlink:href="#DejaVuSans-48"/>
       <use x="224.560547" xlink:href="#DejaVuSans-53"/>
       <use x="288.183594" xlink:href="#DejaVuSans-58"/>
       <use x="321.875" xlink:href="#DejaVuSans-53"/>
       <use x="385.498047" xlink:href="#DejaVuSans-52"/>
      </g>
     </g>
    </g>
    <g id="text_22">
     <!-- timestamp -->
     <g transform="translate(354.264375 510.55125)scale(0.08 -0.08)">
      <defs>
       <path d="M 18.3125 70.21875 
L 18.3125 54.6875 
L 36.8125 54.6875 
L 36.8125 47.703125 
L 18.3125 47.703125 
L 18.3125 18.015625 
Q 18.3125 11.328125 20.140625 9.421875 
Q 21.96875 7.515625 27.59375 7.515625 
L 36.8125 7.515625 
L 36.8125 0 
L 27.59375 0 
Q 17.1875 0 13.234375 3.875 
Q 9.28125 7.765625 9.28125 18.015625 
L 9.28125 47.703125 
L 2.6875 47.703125 
L 2.6875 54.6875 
L 9.28125 54.6875 
L 9.28125 70.21875 
z
" id="DejaVuSans-116"/>
       <path d="M 9.421875 54.6875 
L 18.40625 54.6875 
L 18.40625 0 
L 9.421875 0 
z
M 9.421875 75.984375 
L 18.40625 75.984375 
L 18.40625 64.59375 
L 9.421875 64.59375 
z
" id="DejaVuSans-105"/>
       <path d="M 52 44.1875 
Q 55.375 50.25 60.0625 53.125 
Q 64.75 56 71.09375 56 
Q 79.640625 56 84.28125 50.015625 
Q 88.921875 44.046875 88.921875 33.015625 
L 88.921875 0 
L 79.890625 0 
L 79.890625 32.71875 
Q 79.890625 40.578125 77.09375 44.375 
Q 74.3125 48.1875 68.609375 48.1875 
Q 61.625 48.1875 57.5625 43.546875 
Q 53.515625 38.921875 53.515625 30.90625 
L 53.515625 0 
L 44.484375 0 
L 44.484375 32.71875 
Q 44.484375 40.625 41.703125 44.40625 
Q 38.921875 48.1875 33.109375 48.1875 
Q 26.21875 48.1875 22.15625 43.53125 
Q 18.109375 38.875 18.109375 30.90625 
L 18.109375 0 
L 9.078125 0 
L 9.078125 54.6875 
L 18.109375 54.6875 
L 18.109375 46.1875 
Q 21.1875 51.21875 25.484375 53.609375 
Q 29.78125 56 35.6875 56 
Q 41.65625 56 45.828125 52.96875 
Q 50 49.953125 52 44.1875 
z
" id="DejaVuSans-109"/>
       <path d="M 56.203125 29.59375 
L 56.203125 25.203125 
L 14.890625 25.203125 
Q 15.484375 15.921875 20.484375 11.0625 
Q 25.484375 6.203125 34.421875 6.203125 
Q 39.59375 6.203125 44.453125 7.46875 
Q 49.3125 8.734375 54.109375 11.28125 
L 54.109375 2.78125 
Q 49.265625 0.734375 44.1875 -0.34375 
Q 39.109375 -1.421875 33.890625 -1.421875 
Q 20.796875 -1.421875 13.15625 6.1875 
Q 5.515625 13.8125 5.515625 26.8125 
Q 5.515625 40.234375 12.765625 48.109375 
Q 20.015625 56 32.328125 56 
Q 43.359375 56 49.78125 48.890625 
Q 56.203125 41.796875 56.203125 29.59375 
z
M 47.21875 32.234375 
Q 47.125 39.59375 43.09375 43.984375 
Q 39.0625 48.390625 32.421875 48.390625 
Q 24.90625 48.390625 20.390625 44.140625 
Q 15.875 39.890625 15.1875 32.171875 
z
" id="DejaVuSans-101"/>
       <path d="M 44.28125 53.078125 
L 44.28125 44.578125 
Q 40.484375 46.53125 36.375 47.5 
Q 32.28125 48.484375 27.875 48.484375 
Q 21.1875 48.484375 17.84375 46.4375 
Q 14.5 44.390625 14.5 40.28125 
Q 14.5 37.15625 16.890625 35.375 
Q 19.28125 33.59375 26.515625 31.984375 
L 29.59375 31.296875 
Q 39.15625 29.25 43.1875 25.515625 
Q 47.21875 21.78125 47.21875 15.09375 
Q 47.21875 7.46875 41.1875 3.015625 
Q 35.15625 -1.421875 24.609375 -1.421875 
Q 20.21875 -1.421875 15.453125 -0.5625 
Q 10.6875 0.296875 5.421875 2 
L 5.421875 11.28125 
Q 10.40625 8.6875 15.234375 7.390625 
Q 20.0625 6.109375 24.8125 6.109375 
Q 31.15625 6.109375 34.5625 8.28125 
Q 37.984375 10.453125 37.984375 14.40625 
Q 37.984375 18.0625 35.515625 20.015625 
Q 33.0625 21.96875 24.703125 23.78125 
L 21.578125 24.515625 
Q 13.234375 26.265625 9.515625 29.90625 
Q 5.8125 33.546875 5.8125 39.890625 
Q 5.8125 47.609375 11.28125 51.796875 
Q 16.75 56 26.8125 56 
Q 31.78125 56 36.171875 55.265625 
Q 40.578125 54.546875 44.28125 53.078125 
z
" id="DejaVuSans-115"/>
       <path d="M 34.28125 27.484375 
Q 23.390625 27.484375 19.1875 25 
Q 14.984375 22.515625 14.984375 16.5 
Q 14.984375 11.71875 18.140625 8.90625 
Q 21.296875 6.109375 26.703125 6.109375 
Q 34.1875 6.109375 38.703125 11.40625 
Q 43.21875 16.703125 43.21875 25.484375 
L 43.21875 27.484375 
z
M 52.203125 31.203125 
L 52.203125 0 
L 43.21875 0 
L 43.21875 8.296875 
Q 40.140625 3.328125 35.546875 0.953125 
Q 30.953125 -1.421875 24.3125 -1.421875 
Q 15.921875 -1.421875 10.953125 3.296875 
Q 6 8.015625 6 15.921875 
Q 6 25.140625 12.171875 29.828125 
Q 18.359375 34.515625 30.609375 34.515625 
L 43.21875 34.515625 
L 43.21875 35.40625 
Q 43.21875 41.609375 39.140625 45 
Q 35.0625 48.390625 27.6875 48.390625 
Q 23 48.390625 18.546875 47.265625 
Q 14.109375 46.140625 10.015625 43.890625 
L 10.015625 52.203125 
Q 14.9375 54.109375 19.578125 55.046875 
Q 24.21875 56 28.609375 56 
Q 40.484375 56 46.34375 49.84375 
Q 52.203125 43.703125 52.203125 31.203125 
z
" id="DejaVuSans-97"/>
       <path d="M 18.109375 8.203125 
L 18.109375 -20.796875 
L 9.078125 -20.796875 
L 9.078125 54.6875 
L 18.109375 54.6875 
L 18.109375 46.390625 
Q 20.953125 51.265625 25.265625 53.625 
Q 29.59375 56 35.59375 56 
Q 45.5625 56 51.78125 48.09375 
Q 58.015625 40.1875 58.015625 27.296875 
Q 58.015625 14.40625 51.78125 6.484375 
Q 45.5625 -1.421875 35.59375 -1.421875 
Q 29.59375 -1.421875 25.265625 0.953125 
Q 20.953125 3.328125 18.109375 8.203125 
z
M 48.6875 27.296875 
Q 48.6875 37.203125 44.609375 42.84375 
Q 40.53125 48.484375 33.40625 48.484375 
Q 26.265625 48.484375 22.1875 42.84375 
Q 18.109375 37.203125 18.109375 27.296875 
Q 18.109375 17.390625 22.1875 11.75 
Q 26.265625 6.109375 33.40625 6.109375 
Q 40.53125 6.109375 44.609375 11.75 
Q 48.6875 17.390625 48.6875 27.296875 
z
" id="DejaVuSans-112"/>
      </defs>
      <use xlink:href="#DejaVuSans-116"/>
      <use x="39.208984" xlink:href="#DejaVuSans-105"/>
      <use x="66.992188" xlink:href="#DejaVuSans-109"/>
      <use x="164.404297" xlink:href="#DejaVuSans-101"/>
      <use x="225.927734" xlink:href="#DejaVuSans-115"/>
      <use x="278.027344" xlink:href="#DejaVuSans-116"/>
      <use x="317.236328" xlink:href="#DejaVuSans-97"/>
      <use x="378.515625" xlink:href="#DejaVuSans-109"/>
      <use x="475.927734" xlink:href="#DejaVuSans-112"/>
     </g>
    </g>
   </g>
   <g id="matplotlib.axis_2">
    <g id="ytick_1">
     <g id="line2d_22">
      <defs>
       <path d="M 0 0 
L -3.5 0 
" id="m2242b84b9e" style="stroke:#000000;stroke-width:0.8;"/>
      </defs>
      <g>
       <use style="stroke:#000000;stroke-width:0.8;" x="108" xlink:href="#m2242b84b9e" y="416.847871"/>
      </g>
     </g>
     <g id="text_23">
      <!-- 10600 -->
      <g transform="translate(69.1875 420.647089)scale(0.1 -0.1)">
       <use xlink:href="#DejaVuSans-49"/>
       <use x="63.623047" xlink:href="#DejaVuSans-48"/>
       <use x="127.246094" xlink:href="#DejaVuSans-54"/>
       <use x="190.869141" xlink:href="#DejaVuSans-48"/>
       <use x="254.492188" xlink:href="#DejaVuSans-48"/>
      </g>
     </g>
    </g>
    <g id="ytick_2">
     <g id="line2d_23">
      <g>
       <use style="stroke:#000000;stroke-width:0.8;" x="108" xlink:href="#m2242b84b9e" y="362.498538"/>
      </g>
     </g>
     <g id="text_24">
      <!-- 10800 -->
      <g transform="translate(69.1875 366.297756)scale(0.1 -0.1)">
       <use xlink:href="#DejaVuSans-49"/>
       <use x="63.623047" xlink:href="#DejaVuSans-48"/>
       <use x="127.246094" xlink:href="#DejaVuSans-56"/>
       <use x="190.869141" xlink:href="#DejaVuSans-48"/>
       <use x="254.492188" xlink:href="#DejaVuSans-48"/>
      </g>
     </g>
    </g>
    <g id="ytick_3">
     <g id="line2d_24">
      <g>
       <use style="stroke:#000000;stroke-width:0.8;" x="108" xlink:href="#m2242b84b9e" y="308.149204"/>
      </g>
     </g>
     <g id="text_25">
      <!-- 11000 -->
      <g transform="translate(69.1875 311.948423)scale(0.1 -0.1)">
       <use xlink:href="#DejaVuSans-49"/>
       <use x="63.623047" xlink:href="#DejaVuSans-49"/>
       <use x="127.246094" xlink:href="#DejaVuSans-48"/>
       <use x="190.869141" xlink:href="#DejaVuSans-48"/>
       <use x="254.492188" xlink:href="#DejaVuSans-48"/>
      </g>
     </g>
    </g>
    <g id="ytick_4">
     <g id="line2d_25">
      <g>
       <use style="stroke:#000000;stroke-width:0.8;" x="108" xlink:href="#m2242b84b9e" y="253.799871"/>
      </g>
     </g>
     <g id="text_26">
      <!-- 11200 -->
      <g transform="translate(69.1875 257.59909)scale(0.1 -0.1)">
       <use xlink:href="#DejaVuSans-49"/>
       <use x="63.623047" xlink:href="#DejaVuSans-49"/>
       <use x="127.246094" xlink:href="#DejaVuSans-50"/>
       <use x="190.869141" xlink:href="#DejaVuSans-48"/>
       <use x="254.492188" xlink:href="#DejaVuSans-48"/>
      </g>
     </g>
    </g>
    <g id="ytick_5">
     <g id="line2d_26">
      <g>
       <use style="stroke:#000000;stroke-width:0.8;" x="108" xlink:href="#m2242b84b9e" y="199.450538"/>
      </g>
     </g>
     <g id="text_27">
      <!-- 11400 -->
      <g transform="translate(69.1875 203.249757)scale(0.1 -0.1)">
       <use xlink:href="#DejaVuSans-49"/>
       <use x="63.623047" xlink:href="#DejaVuSans-49"/>
       <use x="127.246094" xlink:href="#DejaVuSans-52"/>
       <use x="190.869141" xlink:href="#DejaVuSans-48"/>
       <use x="254.492188" xlink:href="#DejaVuSans-48"/>
      </g>
     </g>
    </g>
    <g id="ytick_6">
     <g id="line2d_27">
      <g>
       <use style="stroke:#000000;stroke-width:0.8;" x="108" xlink:href="#m2242b84b9e" y="145.101205"/>
      </g>
     </g>
     <g id="text_28">
      <!-- 11600 -->
      <g transform="translate(69.1875 148.900424)scale(0.1 -0.1)">
       <use xlink:href="#DejaVuSans-49"/>
       <use x="63.623047" xlink:href="#DejaVuSans-49"/>
       <use x="127.246094" xlink:href="#DejaVuSans-54"/>
       <use x="190.869141" xlink:href="#DejaVuSans-48"/>
       <use x="254.492188" xlink:href="#DejaVuSans-48"/>
      </g>
     </g>
    </g>
    <g id="ytick_7">
     <g id="line2d_28">
      <g>
       <use style="stroke:#000000;stroke-width:0.8;" x="108" xlink:href="#m2242b84b9e" y="90.751872"/>
      </g>
     </g>
     <g id="text_29">
      <!-- 11800 -->
      <g transform="translate(69.1875 94.551091)scale(0.1 -0.1)">
       <use xlink:href="#DejaVuSans-49"/>
       <use x="63.623047" xlink:href="#DejaVuSans-49"/>
       <use x="127.246094" xlink:href="#DejaVuSans-56"/>
       <use x="190.869141" xlink:href="#DejaVuSans-48"/>
       <use x="254.492188" xlink:href="#DejaVuSans-48"/>
      </g>
     </g>
    </g>
    <g id="text_30">
     <!-- MB -->
     <g transform="translate(63.52375 260.715625)rotate(-90)scale(0.08 -0.08)">
      <defs>
       <path d="M 9.8125 72.90625 
L 24.515625 72.90625 
L 43.109375 23.296875 
L 61.8125 72.90625 
L 76.515625 72.90625 
L 76.515625 0 
L 66.890625 0 
L 66.890625 64.015625 
L 48.09375 14.015625 
L 38.1875 14.015625 
L 19.390625 64.015625 
L 19.390625 0 
L 9.8125 0 
z
" id="DejaVuSans-77"/>
       <path d="M 19.671875 34.8125 
L 19.671875 8.109375 
L 35.5 8.109375 
Q 43.453125 8.109375 47.28125 11.40625 
Q 51.125 14.703125 51.125 21.484375 
Q 51.125 28.328125 47.28125 31.5625 
Q 43.453125 34.8125 35.5 34.8125 
z
M 19.671875 64.796875 
L 19.671875 42.828125 
L 34.28125 42.828125 
Q 41.5 42.828125 45.03125 45.53125 
Q 48.578125 48.25 48.578125 53.8125 
Q 48.578125 59.328125 45.03125 62.0625 
Q 41.5 64.796875 34.28125 64.796875 
z
M 9.8125 72.90625 
L 35.015625 72.90625 
Q 46.296875 72.90625 52.390625 68.21875 
Q 58.5 63.53125 58.5 54.890625 
Q 58.5 48.1875 55.375 44.234375 
Q 52.25 40.28125 46.1875 39.3125 
Q 53.46875 37.75 57.5 32.78125 
Q 61.53125 27.828125 61.53125 20.40625 
Q 61.53125 10.640625 54.890625 5.3125 
Q 48.25 0 35.984375 0 
L 9.8125 0 
z
" id="DejaVuSans-66"/>
      </defs>
      <use xlink:href="#DejaVuSans-77"/>
      <use x="86.279297" xlink:href="#DejaVuSans-66"/>
     </g>
    </g>
   </g>
   <g id="line2d_29">
    <path clip-path="url(#p72f1b48b26)" d="M 132.349091 80.03201 
L 132.678133 80.250494 
L 133.007174 78.12 
L 133.336216 78.123261 
L 133.9943 79.679826 
L 134.323342 80.197232 
L 134.981425 78.867847 
L 135.310467 78.883065 
L 135.639509 83.551672 
L 136.626634 160.844033 
L 137.284717 233.306912 
L 137.613759 255.595573 
L 138.600885 344.643695 
L 138.929926 364.440983 
L 139.258968 374.49887 
L 139.58801 377.875051 
L 139.917052 378.403326 
L 140.246093 377.39569 
L 140.575135 377.427212 
L 140.904177 376.810891 
L 141.233219 377.832658 
L 141.56226 377.939183 
L 141.891302 377.681567 
L 142.220344 376.267398 
L 142.878428 379.395745 
L 143.536511 379.320743 
L 143.865553 378.410935 
L 144.194595 379.788147 
L 144.523636 379.593577 
L 144.852678 379.752277 
L 145.18172 382.623009 
L 145.510762 383.086065 
L 145.839803 383.249113 
L 146.168845 378.973994 
L 146.497887 378.929428 
L 146.826929 378.113101 
L 147.155971 380.20555 
L 147.485012 378.879427 
L 147.814054 379.058779 
L 148.143096 378.51746 
L 148.472138 379.76206 
L 148.801179 380.31751 
L 149.130221 380.290335 
L 149.459263 379.939239 
L 149.788305 378.879427 
L 150.117346 379.201175 
L 150.446388 379.012039 
L 150.77543 378.996821 
L 151.104472 377.854398 
L 151.433514 380.120765 
L 151.762555 380.152288 
L 152.420639 379.583794 
L 152.749681 378.853339 
L 153.078722 378.555505 
L 153.736806 378.332672 
L 154.065848 378.384848 
L 154.723931 379.826192 
L 155.382015 379.890324 
L 155.711057 379.287047 
L 156.36914 379.892498 
L 156.698182 380.085982 
L 157.027224 378.828338 
L 157.356265 379.894672 
L 157.685307 378.765293 
L 158.343391 378.734857 
L 158.672432 378.163102 
L 159.001474 380.433817 
L 159.330516 380.239247 
L 159.659558 380.547951 
L 159.9886 380.007719 
L 160.317641 379.774017 
L 160.646683 380.538168 
L 161.304767 379.556619 
L 161.633808 377.726134 
L 161.96285 380.268596 
L 162.291892 380.132722 
L 162.620934 380.202289 
L 162.949975 379.249002 
L 163.279017 379.529445 
L 163.608059 380.239247 
L 163.937101 380.305553 
L 164.266143 379.742494 
L 164.595184 378.94682 
L 164.924226 380.4436 
L 165.253268 380.871873 
L 165.58231 380.716434 
L 165.911351 379.555532 
L 166.240393 379.460964 
L 166.569435 381.213187 
L 166.898477 380.669694 
L 167.227518 380.489254 
L 167.55656 379.61423 
L 167.885602 380.626214 
L 168.214644 380.2849 
L 168.872727 378.889209 
L 169.530811 380.32838 
L 169.859853 380.365337 
L 170.517936 379.476182 
L 170.846978 380.875134 
L 171.17602 381.172968 
L 171.505061 381.14362 
L 171.834103 380.525124 
L 172.492187 380.646867 
L 172.821229 379.813148 
L 173.15027 379.781625 
L 173.479312 378.880514 
L 173.808354 381.395801 
L 174.137396 381.084922 
L 174.466437 379.932717 
L 174.795479 379.320743 
L 175.124521 380.144679 
L 175.782604 380.199028 
L 176.111646 380.133809 
L 176.440688 378.917471 
L 176.76973 381.270797 
L 177.098771 381.430584 
L 177.427813 381.090357 
L 177.756855 379.377266 
L 178.085897 379.626186 
L 178.414939 380.521863 
L 178.74398 380.446861 
L 179.073022 380.230551 
L 179.402064 379.327265 
L 179.731106 381.813204 
L 180.060147 381.602328 
L 180.718231 380.651215 
L 181.047273 379.814235 
L 181.376314 380.717521 
L 182.034398 380.928396 
L 182.36344 380.452296 
L 182.692482 381.466455 
L 183.021523 381.732767 
L 183.350565 381.645808 
L 183.679607 379.760973 
L 184.008649 380.132722 
L 184.33769 380.852307 
L 184.666732 380.651215 
L 184.995774 380.62404 
L 185.324816 379.924021 
L 185.653857 381.726245 
L 185.982899 381.981686 
L 186.640983 380.961006 
L 186.970025 381.743636 
L 187.299066 386.392678 
L 187.628108 386.380722 
L 187.95715 386.636163 
L 188.286192 386.160063 
L 188.615233 381.830595 
L 188.944275 386.59051 
L 189.273317 385.849185 
L 189.602359 384.68937 
L 189.9314 385.350258 
L 190.260442 386.318763 
L 190.589484 389.166668 
L 190.918526 389.01449 
L 191.247568 388.635132 
L 191.576609 389.993865 
L 191.905651 386.941607 
L 192.234693 386.878561 
L 192.563735 386.082887 
L 192.892776 386.183977 
L 193.221818 386.845952 
L 193.55086 386.78182 
L 193.879902 386.851387 
L 194.208943 385.87636 
L 194.867027 386.539422 
L 195.196069 386.160063 
L 195.525111 385.564395 
L 196.183194 387.745977 
L 196.512236 387.530753 
L 196.841278 385.340475 
L 197.170319 385.199167 
L 197.499361 386.392678 
L 197.828403 386.595945 
L 198.157445 386.405722 
L 198.486486 385.285039 
L 198.815528 387.299225 
L 199.14457 388.143814 
L 199.473612 387.39488 
L 199.802654 387.541623 
L 200.131695 387.028566 
L 200.460737 388.293818 
L 201.118821 388.234034 
L 201.447862 387.678584 
L 201.776904 387.662279 
L 202.105946 388.589478 
L 202.434988 388.094899 
L 202.764029 387.929678 
L 203.422113 386.502464 
L 203.751155 386.343764 
L 204.080197 385.913317 
L 204.409238 384.882854 
L 204.73828 385.581786 
L 205.067322 387.401402 
L 205.396364 387.842719 
L 205.725405 388.024245 
L 206.054447 387.140525 
L 206.383489 388.149249 
L 206.712531 388.104682 
L 207.370614 385.938318 
L 207.699656 386.753558 
L 208.028698 388.477519 
L 208.35774 387.56445 
L 208.686781 387.674236 
L 209.015823 386.919867 
L 209.344865 387.847067 
L 209.673907 386.882909 
L 210.002948 386.456811 
L 210.33199 386.316589 
L 210.661032 388.381864 
L 210.990074 388.841659 
L 211.319115 388.843833 
L 211.648157 387.885111 
L 211.977199 385.080685 
L 212.306241 387.670975 
L 212.635283 387.616625 
L 213.293366 386.782907 
L 213.622408 388.711221 
L 213.95145 389.091666 
L 214.280491 388.698177 
L 214.609533 387.83511 
L 214.938575 386.328546 
L 215.267617 386.899214 
L 215.596658 386.978564 
L 215.9257 385.888317 
L 216.254742 386.177455 
L 216.583784 387.912286 
L 216.912826 388.216642 
L 217.241867 388.006854 
L 217.570909 386.933998 
L 217.899951 386.853561 
L 218.228993 388.867747 
L 218.558034 388.655785 
L 219.216118 387.677497 
L 219.54516 387.637278 
L 219.874201 387.916634 
L 220.532285 386.970955 
L 220.861327 387.117698 
L 221.190369 388.238382 
L 221.51941 388.128596 
L 221.848452 388.215555 
L 222.177494 387.435099 
L 222.506536 390.071041 
L 222.835577 388.954706 
L 223.164619 389.131885 
L 223.493661 387.209005 
L 223.822703 387.81337 
L 224.151744 388.045985 
L 224.809828 387.920982 
L 225.13887 386.851387 
L 225.467912 389.291672 
L 225.796953 389.030795 
L 226.125995 388.94601 
L 226.455037 388.453605 
L 226.784079 387.479665 
L 227.11312 388.488389 
L 227.771204 388.76557 
L 228.100246 387.985114 
L 228.429287 388.584043 
L 228.758329 387.916634 
L 229.087371 387.66554 
L 229.416413 390.665623 
L 230.074496 392.673287 
L 230.403538 392.474369 
L 230.73258 389.66016 
L 231.061622 389.223192 
L 231.390663 389.311238 
L 231.719705 389.144929 
L 232.377789 387.03074 
L 232.70683 387.872067 
L 233.035872 390.24822 
L 233.364914 390.178653 
L 233.693956 389.589506 
L 234.022998 388.427517 
L 234.352039 389.426458 
L 234.681081 389.14819 
L 235.010123 388.274252 
L 235.668206 388.138379 
L 235.997248 389.409066 
L 236.32629 389.322107 
L 236.655332 389.691683 
L 236.984373 388.592739 
L 237.313415 392.460238 
L 237.642457 392.403715 
L 237.971499 392.199361 
L 238.300541 391.667825 
L 238.629582 390.202567 
L 238.958624 390.143869 
L 239.287666 390.541706 
L 239.616708 388.02968 
L 239.945749 388.186206 
L 240.274791 387.764456 
L 240.932875 388.39056 
L 241.261916 387.388358 
L 241.590958 388.032941 
L 241.92 390.017779 
L 242.249042 388.853616 
L 242.578084 388.792745 
L 242.907125 388.249252 
L 243.236167 389.209061 
L 243.894251 389.167755 
L 244.223292 388.577522 
L 244.552334 389.278628 
L 244.881376 390.278656 
L 245.539459 390.363441 
L 245.868501 389.582984 
L 246.526585 389.998213 
L 246.855627 389.398196 
L 247.184668 388.179684 
L 247.51371 388.656872 
L 247.842752 390.375397 
L 248.500835 390.061258 
L 248.829877 389.177538 
L 249.158919 390.082998 
L 249.487961 389.625377 
L 249.817002 389.663421 
L 250.146044 388.839485 
L 250.475086 389.161233 
L 250.804128 390.81454 
L 251.13317 390.016692 
L 251.462211 389.723206 
L 251.791253 388.805789 
L 252.120295 391.035198 
L 252.449337 390.029736 
L 252.778378 388.485128 
L 253.10742 387.73402 
L 253.436462 387.730759 
L 253.765504 389.451459 
L 254.094545 389.119928 
L 254.423587 389.110145 
L 254.752629 388.144901 
L 255.410713 390.027562 
L 255.739754 390.113434 
L 256.397838 388.178597 
L 256.72688 388.717743 
L 257.055921 388.981881 
L 257.384963 388.862312 
L 257.714005 388.001419 
L 258.043047 390.158 
L 258.372088 389.75038 
L 258.70113 389.124276 
L 259.030172 388.168815 
L 259.359214 388.243817 
L 259.688256 389.297107 
L 260.017297 388.632958 
L 260.346339 388.680785 
L 260.675381 387.893807 
L 261.004423 390.222132 
L 261.333464 389.55581 
L 261.991548 390.11126 
L 262.32059 389.438415 
L 262.649631 390.953674 
L 263.307715 390.753669 
L 263.636757 389.947125 
L 263.965799 391.322163 
L 264.29484 390.000387 
L 264.623882 389.823208 
L 265.281966 388.622088 
L 265.611007 390.430834 
L 265.940049 390.065606 
L 266.269091 389.467764 
L 266.598133 388.305775 
L 266.927174 388.78731 
L 267.256216 390.024301 
L 267.585258 390.061258 
L 268.243342 388.752526 
L 268.572383 390.97324 
L 269.230467 390.754756 
L 269.559509 389.53407 
L 269.88855 390.065606 
L 270.546634 390.192784 
L 270.875676 389.625377 
L 271.204717 389.737336 
L 271.533759 391.103679 
L 271.862801 394.790737 
L 272.191843 395.115746 
L 272.520885 394.183112 
L 272.849926 390.517793 
L 273.178968 391.046068 
L 273.837052 391.183029 
L 274.166093 389.376457 
L 274.495135 390.88302 
L 274.824177 391.21129 
L 275.153219 398.622365 
L 275.48226 397.73321 
L 275.811302 399.184337 
L 276.140344 399.375647 
L 276.469386 396.548395 
L 276.798428 396.592961 
L 277.127469 395.784243 
L 277.456511 396.935362 
L 277.785553 397.075583 
L 278.114595 396.674485 
L 278.443636 395.686414 
L 278.772678 397.179934 
L 279.10172 396.308171 
L 279.430762 396.416869 
L 279.759803 395.587499 
L 280.088845 393.733099 
L 280.417887 395.622282 
L 280.746929 395.3201 
L 281.075971 395.360318 
L 281.405012 394.29181 
L 281.734054 396.448392 
L 282.721179 395.522279 
L 283.050221 394.321159 
L 283.379263 396.738617 
L 283.708305 396.704921 
L 284.037346 396.850577 
L 284.366388 395.827723 
L 284.69543 397.760385 
L 285.024472 398.699541 
L 285.353514 397.231022 
L 285.682555 397.103845 
L 286.011597 396.19295 
L 286.340639 396.222299 
L 286.669681 395.986423 
L 286.998722 395.936421 
L 287.327764 394.233113 
L 287.656806 397.182108 
L 287.985848 396.311432 
L 288.314889 396.401652 
L 288.643931 395.89729 
L 288.972973 394.964655 
L 289.631057 395.588586 
L 289.960098 395.405972 
L 290.28914 394.960307 
L 290.618182 395.686414 
L 290.947224 396.765792 
L 291.276265 396.606005 
L 291.605307 396.846229 
L 291.934349 395.87555 
L 292.263391 395.551628 
L 292.592432 395.430972 
L 292.921474 395.882072 
L 293.250516 395.261403 
L 293.579558 395.89729 
L 293.9086 396.815793 
L 294.237641 396.820141 
L 294.566683 395.411407 
L 294.895725 395.115746 
L 295.224767 397.025582 
L 295.553808 396.519046 
L 295.88285 396.740791 
L 296.211892 395.337492 
L 296.540934 397.678861 
L 296.869975 397.974521 
L 297.528059 397.625599 
L 297.857101 396.771227 
L 298.186143 397.89191 
L 298.844226 398.110395 
L 299.173268 397.419071 
L 299.50231 399.0789 
L 299.831351 398.110395 
L 300.160393 397.537553 
L 300.489435 396.650571 
L 300.818477 400.323499 
L 301.147518 402.127897 
L 301.47656 401.898543 
L 302.134644 400.347413 
L 302.463686 401.917022 
L 302.792727 401.447444 
L 303.121769 401.262656 
L 303.450811 400.538723 
L 303.779853 400.636552 
L 304.108894 401.78767 
L 304.437936 401.686581 
L 304.766978 401.276787 
L 305.09602 400.639813 
L 305.425061 401.786583 
L 306.083145 402.120288 
L 306.741229 400.976778 
L 307.399312 401.563751 
L 307.728354 400.624595 
L 308.057396 400.589811 
L 308.386437 402.701826 
L 309.044521 402.603997 
L 309.373563 400.501765 
L 309.702604 400.635465 
L 310.031646 402.257249 
L 310.360688 402.290945 
L 310.68973 402.139854 
L 311.018771 401.530055 
L 311.347813 401.913761 
L 311.676855 403.008356 
L 312.005897 403.079011 
L 312.334939 402.73661 
L 312.66398 402.04746 
L 312.993022 402.114853 
L 313.322064 402.439862 
L 313.651106 402.522473 
L 314.309189 406.291056 
L 314.638231 406.564977 
L 314.967273 406.548672 
L 315.296314 403.042053 
L 315.625356 401.568099 
L 315.954398 403.048575 
L 316.941523 401.408312 
L 317.270565 403.176839 
L 317.599607 402.634433 
L 318.25769 402.29638 
L 318.586732 401.306135 
L 318.915774 402.109419 
L 319.244816 402.096375 
L 319.573857 402.351817 
L 319.902899 401.760496 
L 320.231941 403.394237 
L 320.560983 407.725879 
L 320.890025 407.697617 
L 321.219066 406.860637 
L 321.548108 405.436685 
L 322.206192 406.522584 
L 322.864275 404.966019 
L 323.193317 407.173689 
L 323.522359 406.409538 
L 323.8514 406.526932 
L 324.509484 405.089936 
L 324.838526 406.521497 
L 325.167568 406.636718 
L 325.496609 407.131297 
L 325.825651 406.318231 
L 326.154693 407.432392 
L 326.483735 407.710661 
L 326.812776 407.800881 
L 327.141818 406.939987 
L 327.799902 406.509541 
L 328.128943 406.858463 
L 328.457985 406.691067 
L 328.787027 405.63669 
L 329.116069 407.047599 
L 329.445111 406.695415 
L 330.103194 405.055152 
L 330.761278 406.32584 
L 331.419361 406.316057 
L 331.748403 405.675822 
L 332.077445 407.324781 
L 332.406486 408.028061 
L 332.735528 408.012843 
L 333.06457 406.904117 
L 333.393612 407.675877 
L 333.722654 408.075888 
L 334.051695 408.047627 
L 334.380737 407.641094 
L 334.709779 406.910639 
L 335.038821 409.234616 
L 335.367862 409.032437 
L 335.696904 408.582424 
L 336.025946 407.724792 
L 336.354988 408.626991 
L 337.013071 407.020424 
L 337.342113 406.183445 
L 337.671155 406.122573 
L 338.000197 408.015017 
L 338.329238 407.805229 
L 338.65828 407.813925 
L 339.316364 406.49541 
L 339.645405 408.008495 
L 339.974447 407.975886 
L 340.303489 407.229126 
L 340.632531 406.978032 
L 340.961572 409.035698 
L 341.290614 408.863954 
L 341.619656 408.924825 
L 341.948698 407.924797 
L 342.27774 408.192196 
L 342.606781 408.720471 
L 342.935823 408.725906 
L 343.264865 406.819332 
L 343.593907 406.716068 
L 343.922948 408.947652 
L 344.25199 409.049828 
L 344.910074 408.292199 
L 345.239115 406.9139 
L 345.568157 408.318286 
L 345.897199 407.884579 
L 346.226241 408.134586 
L 346.555283 407.538917 
L 346.884324 408.971565 
L 347.542408 408.785691 
L 347.87145 407.911753 
L 348.200491 408.116107 
L 348.858575 408.975913 
L 349.187617 408.425898 
L 349.516658 407.406305 
L 349.8457 409.134613 
L 350.174742 409.360707 
L 350.832826 407.50522 
L 351.161867 408.318286 
L 351.490909 410.147685 
L 351.819951 409.181354 
L 352.148993 409.060698 
L 352.478034 408.349809 
L 352.807076 408.585685 
L 353.136118 408.325895 
L 353.46516 408.453073 
L 353.794201 407.62805 
L 354.123243 407.605223 
L 354.452285 408.824822 
L 354.781327 408.310677 
L 355.110369 408.21611 
L 355.43941 407.285649 
L 355.768452 409.174832 
L 356.097494 409.531363 
L 356.426536 410.984665 
L 356.755577 410.894445 
L 357.084619 411.756425 
L 357.413661 409.638975 
L 357.742703 408.592207 
L 358.071744 409.169397 
L 358.400786 408.691123 
L 358.729828 409.400925 
L 359.05887 409.530276 
L 359.387912 409.461796 
L 359.716953 412.652102 
L 360.045995 411.71512 
L 360.375037 413.711914 
L 360.704079 413.128202 
L 361.03312 410.338995 
L 361.362162 409.392229 
L 361.691204 410.409649 
L 362.678329 409.103091 
L 363.007371 409.063959 
L 363.336413 410.069422 
L 363.665455 409.023741 
L 363.994496 409.323749 
L 364.323538 408.442203 
L 364.65258 409.793327 
L 364.981622 410.397692 
L 365.310663 410.348777 
L 365.639705 409.663976 
L 365.968747 409.40636 
L 366.297789 411.467287 
L 366.62683 410.362908 
L 366.955872 410.060726 
L 367.284914 409.30527 
L 367.942998 409.318314 
L 368.272039 409.497667 
L 368.601081 413.026026 
L 368.930123 413.453211 
L 369.259165 415.8598 
L 369.588206 415.428266 
L 369.917248 415.669577 
L 370.24629 414.767378 
L 370.575332 415.39457 
L 370.904373 415.303263 
L 371.562457 413.239075 
L 371.891499 414.732595 
L 372.220541 415.566313 
L 372.549582 415.640228 
L 372.878624 415.475007 
L 373.207666 414.766291 
L 373.536708 415.842408 
L 373.865749 416.0185 
L 374.194791 416.05437 
L 374.523833 414.916295 
L 374.852875 415.900018 
L 375.181916 417.414191 
L 375.510958 417.328319 
L 375.84 416.580472 
L 376.169042 415.493485 
L 376.498084 415.636968 
L 377.156167 415.411961 
L 377.485209 414.006488 
L 377.814251 414.732595 
L 378.143292 415.878279 
L 378.472334 415.590227 
L 379.130418 414.188014 
L 379.459459 416.098937 
L 379.788501 415.971759 
L 380.117543 415.211956 
L 380.446585 414.788031 
L 380.775627 415.158693 
L 381.104668 416.041327 
L 381.43371 416.071762 
L 381.762752 415.634794 
L 382.091794 414.259755 
L 382.420835 415.702187 
L 382.749877 415.813059 
L 383.078919 415.11304 
L 383.737002 413.421689 
L 384.066044 415.253261 
L 384.395086 414.168449 
L 384.724128 414.585851 
L 385.05317 413.841266 
L 385.382211 415.659794 
L 386.040295 415.584792 
L 386.369337 414.666288 
L 386.698378 414.157579 
L 387.02742 416.35764 
L 387.356462 416.36851 
L 387.685504 416.622864 
L 388.014545 415.346742 
L 388.672629 415.854365 
L 389.330713 414.365193 
L 389.659754 414.296713 
L 389.988796 416.406554 
L 390.317838 415.47718 
L 390.64688 415.74784 
L 390.975921 414.585851 
L 391.304963 415.570661 
L 391.634005 415.865235 
L 391.963047 415.80545 
L 392.292088 414.858685 
L 392.62113 414.348888 
L 392.950172 415.3837 
L 393.279214 415.481528 
L 393.608256 415.355438 
L 393.937297 414.198884 
L 394.266339 421.536044 
L 395.253464 419.243589 
L 395.582506 419.904477 
L 395.911548 420.153397 
L 396.24059 419.692515 
L 396.569631 419.668601 
L 396.898673 418.980539 
L 397.227715 421.397997 
L 397.556757 421.030595 
L 397.885799 421.182773 
L 398.21484 420.403404 
L 398.872924 424.791569 
L 399.201966 424.627434 
L 399.531007 424.74809 
L 399.860049 421.016465 
L 400.189091 422.268673 
L 400.518133 421.889315 
L 401.505258 419.789257 
L 401.8343 424.402428 
L 402.163342 423.962198 
L 402.492383 423.91111 
L 403.479509 422.244759 
L 403.80855 422.438243 
L 404.466634 420.32188 
L 404.795676 420.507755 
L 405.124717 420.384925 
L 405.453759 420.588192 
L 405.782801 419.267503 
L 406.111843 420.844721 
L 406.440885 420.52406 
L 406.769926 420.605584 
L 407.098968 420.270792 
L 407.42801 419.644687 
L 407.757052 420.24253 
L 408.086093 420.553408 
L 408.415135 418.846839 
L 408.744177 418.819664 
L 409.073219 420.206659 
L 409.40226 420.930593 
L 409.731302 421.108858 
L 410.389386 420.126222 
L 410.718428 421.890402 
L 411.047469 421.218644 
L 411.376511 421.25995 
L 411.705553 420.70776 
L 412.034595 422.176279 
L 412.363636 421.818661 
L 412.692678 421.666483 
L 413.02172 421.267558 
L 413.350762 419.704472 
L 413.679803 421.724093 
L 414.008845 421.199078 
L 414.337887 421.124076 
L 414.666929 420.237095 
L 415.325012 421.853444 
L 415.654054 422.012144 
L 415.983096 420.505581 
L 416.312138 419.785996 
L 416.641179 421.564306 
L 416.970221 421.199078 
L 417.299263 421.29582 
L 417.628305 420.19579 
L 417.957346 420.486015 
L 418.286388 421.357778 
L 418.61543 421.304516 
L 418.944472 421.102336 
L 419.273514 420.409926 
L 419.602555 422.776296 
L 420.260639 422.61977 
L 420.918722 420.769719 
L 421.247764 420.988203 
L 421.576806 420.53819 
L 422.234889 419.187066 
L 422.563931 419.84578 
L 422.892973 419.576207 
L 423.222015 419.683819 
L 423.551057 419.559902 
L 423.880098 420.070786 
L 424.20914 421.556697 
L 424.538182 421.141468 
L 424.867224 421.066466 
L 425.196265 419.981653 
L 425.525307 422.254542 
L 426.183391 421.594741 
L 426.512432 420.541451 
L 427.170516 421.968665 
L 427.499558 421.60235 
L 427.8286 419.3012 
L 428.157641 419.519684 
L 428.486683 421.02516 
L 428.815725 420.227312 
L 429.144767 420.566452 
L 429.473808 419.51751 
L 429.80285 420.245791 
L 430.131892 419.29033 
L 430.460934 419.608817 
L 430.789975 419.533815 
L 431.119017 419.056628 
L 431.448059 420.568626 
L 431.777101 420.327315 
L 432.106143 420.49145 
L 432.435184 419.422942 
L 433.093268 420.292531 
L 433.42231 420.213181 
L 433.751351 419.994697 
L 434.080393 419.291417 
L 434.409435 421.067553 
L 434.738477 421.32843 
L 435.067518 419.876216 
L 435.39656 419.627296 
L 435.725602 419.071845 
L 436.054644 420.496885 
L 436.712727 420.047959 
L 437.041769 419.312069 
L 437.370811 420.980594 
L 438.028894 419.896868 
L 438.357936 419.314243 
L 438.686978 419.842519 
L 439.01602 421.237123 
L 439.345061 421.234949 
L 439.674103 421.084945 
L 440.003145 420.291444 
L 440.332187 421.784964 
L 440.661229 420.519712 
L 440.99027 423.6948 
L 441.319312 422.594769 
L 441.648354 422.334979 
L 441.977396 422.238238 
L 442.306437 419.754473 
L 442.635479 419.551206 
L 442.964521 418.708792 
L 443.293563 421.006682 
L 443.622604 419.961 
L 443.951646 419.976218 
L 444.280688 419.690341 
L 444.60973 422.742599 
L 444.938771 423.246961 
L 445.267813 423.280658 
L 445.596855 420.358838 
L 445.925897 419.669688 
L 446.254939 421.96323 
L 446.58398 420.177311 
L 447.571106 418.332694 
L 447.900147 419.839258 
L 448.229189 419.599034 
L 448.558231 419.715341 
L 448.887273 418.433784 
L 449.216314 419.103368 
L 449.545356 419.204458 
L 449.874398 418.597919 
L 450.20344 417.551151 
L 450.532482 418.042469 
L 450.861523 419.132717 
L 451.190565 418.256605 
L 451.848649 417.176141 
L 452.17769 418.29465 
L 452.506732 417.790288 
L 452.835774 418.202256 
L 453.164816 416.676127 
L 453.493857 417.688111 
L 453.822899 419.90339 
L 454.151941 418.804447 
L 454.480983 418.56531 
L 454.810025 418.081601 
L 455.468108 419.240328 
L 455.79715 419.072932 
L 456.126192 417.98812 
L 456.455233 417.841376 
L 456.784275 418.976191 
L 457.113317 418.978365 
L 457.442359 418.784881 
L 457.7714 418.051165 
L 458.100442 418.567484 
L 458.429484 418.826186 
L 458.758526 418.801186 
L 459.087568 417.527237 
L 459.416609 418.392479 
L 459.745651 418.920754 
L 460.074693 417.891378 
L 460.403735 417.343537 
L 460.732776 417.484845 
L 461.061818 418.760967 
L 461.39086 418.890319 
L 461.719902 418.794664 
L 462.048943 417.588109 
L 462.377985 417.975076 
L 462.707027 418.950103 
L 463.036069 418.037034 
L 463.365111 417.821811 
L 463.694152 416.545688 
L 464.023194 421.565393 
L 464.681278 421.646917 
L 465.010319 421.146903 
L 465.339361 421.208861 
L 465.668403 422.653466 
L 465.997445 422.03171 
L 466.326486 422.801297 
L 466.655528 421.326256 
L 466.98457 422.559986 
L 467.313612 421.789312 
L 467.642654 422.300196 
L 467.971695 421.052335 
L 468.300737 421.075162 
L 468.629779 421.633873 
L 468.958821 421.074075 
L 469.287862 420.865373 
L 469.616904 418.588136 
L 469.945946 421.877358 
L 470.604029 421.721919 
L 470.933071 424.344818 
L 471.591155 426.076387 
L 471.920197 424.819831 
L 472.249238 424.667653 
L 472.57828 422.715425 
L 472.907322 425.723117 
L 473.236364 424.528518 
L 473.894447 423.319789 
L 474.223489 423.25457 
L 474.552531 423.945894 
L 474.881572 423.996982 
L 475.210614 424.166552 
L 475.539656 423.916545 
L 475.868698 425.052446 
L 476.19774 425.111143 
L 476.526781 424.83831 
L 476.855823 424.193727 
L 477.184865 425.127448 
L 477.513907 424.471995 
L 477.842948 424.883963 
L 478.501032 424.274164 
L 478.830074 425.785075 
L 479.159115 425.545938 
L 479.817199 423.660016 
L 480.146241 423.636102 
L 480.475283 424.540475 
L 480.804324 424.482865 
L 481.133366 424.549171 
L 481.462408 423.589362 
L 481.79145 425.877469 
L 482.120491 425.532894 
L 482.449533 424.825266 
L 482.778575 423.703496 
L 483.107617 426.520965 
L 483.436658 427.816653 
L 483.7657 426.936194 
L 484.094742 430.92 
L 484.423784 427.082937 
L 484.752826 429.097123 
L 485.081867 426.469877 
L 485.410909 425.791597 
L 485.739951 423.664364 
L 486.398034 426.636186 
L 487.056118 426.142694 
L 487.38516 425.142666 
L 487.714201 428.250361 
L 488.043243 426.576401 
L 488.372285 426.366613 
L 488.701327 425.249191 
L 489.030369 425.71116 
L 489.35941 426.780755 
L 490.017494 426.816625 
L 490.346536 426.116606 
L 490.675577 426.452485 
L 491.333661 426.188347 
L 491.662703 425.111143 
L 491.991744 426.15465 
L 492.320786 425.269843 
L 492.649828 425.125274 
L 492.97887 423.198047 
L 493.307912 423.421966 
L 493.636953 424.940486 
L 493.965995 424.644826 
L 494.295037 424.804613 
L 494.624079 423.738279 
L 494.95312 423.860022 
L 495.282162 424.653522 
L 495.611204 424.624173 
L 495.940246 424.722002 
L 496.269287 423.20783 
L 496.598329 425.701377 
L 497.256413 424.552432 
L 497.585455 424.423081 
L 497.914496 424.513301 
L 498.243538 424.735046 
L 498.57258 424.708958 
L 498.901622 424.539388 
L 499.230663 423.886109 
L 499.559705 424.691566 
L 499.888747 424.440473 
L 500.217789 424.653522 
L 500.54683 423.803498 
L 500.875872 424.352427 
L 501.204914 425.122013 
L 501.533956 425.291583 
L 501.862998 424.361122 
L 502.192039 424.021983 
L 502.850123 424.474169 
L 503.179165 424.289381 
L 503.508206 423.880674 
L 504.16629 426.273132 
L 504.824373 425.491589 
L 505.153415 424.581781 
L 505.482457 425.879643 
L 505.811499 426.16552 
L 506.140541 425.720943 
L 506.469582 424.662218 
L 507.127666 424.903529 
L 508.114791 423.279571 
L 508.443833 423.792628 
L 508.772875 421.48713 
L 509.101916 420.715369 
L 509.430958 420.668629 
L 509.76 421.218644 
L 510.089042 422.442591 
L 510.418084 422.730642 
L 510.747125 422.538246 
L 511.076167 421.669744 
L 511.734251 423.041521 
L 512.063292 423.071956 
L 512.392334 422.04258 
L 512.721376 422.54042 
L 513.050418 424.014374 
L 513.379459 423.654581 
L 513.708501 422.844776 
L 514.037543 421.664309 
L 514.366585 422.265412 
L 514.695627 422.079537 
L 515.024668 421.514304 
L 515.35371 420.725152 
L 515.682752 421.481695 
L 516.011794 423.202395 
L 516.340835 422.723034 
L 516.669877 423.002389 
L 517.327961 420.905592 
L 517.657002 420.576235 
L 517.986044 420.693629 
L 518.315086 419.885998 
L 518.97317 422.205628 
L 519.631253 422.246933 
L 519.960295 420.744718 
L 520.289337 422.068668 
L 520.94742 422.348023 
L 521.276462 421.191469 
L 521.605504 421.190382 
L 521.934545 422.117582 
L 522.592629 420.111005 
L 522.921671 420.503407 
L 523.579754 420.918636 
L 523.908796 421.012117 
L 524.237838 420.771893 
L 524.56688 420.676238 
L 524.895921 422.779557 
L 525.224963 421.811052 
L 525.554005 425.647028 
L 525.883047 424.176335 
L 526.212088 425.695942 
L 526.54113 422.726295 
L 526.870172 422.451287 
L 527.199214 421.548001 
L 527.528256 421.866488 
L 527.857297 421.004508 
L 528.186339 417.862029 
L 528.515381 421.084945 
L 528.844423 419.980566 
L 529.173464 423.42414 
L 529.502506 422.849124 
L 529.831548 419.141413 
L 530.16059 418.137037 
L 530.489631 418.674008 
L 530.818673 419.770778 
L 531.476757 419.963174 
L 531.805799 418.358782 
L 532.13484 420.079482 
L 532.463882 419.400115 
L 532.792924 419.606643 
L 533.121966 418.250083 
L 533.451007 418.632703 
L 533.780049 419.741429 
L 534.438133 419.709907 
L 534.767174 418.460959 
L 535.096216 418.558788 
L 535.7543 417.066355 
L 536.083342 416.728302 
L 536.412383 415.860887 
L 536.741425 417.935944 
L 537.399509 418.332694 
L 537.72855 416.39351 
L 538.057592 418.753358 
L 538.386634 418.981625 
L 538.715676 418.246823 
L 539.044717 416.904394 
L 539.373759 417.465279 
L 539.702801 419.064236 
L 540.031843 417.751157 
L 540.360885 417.551151 
L 540.689926 416.698953 
L 541.018968 417.70659 
L 541.34801 416.927221 
L 541.677052 416.991353 
L 542.006093 415.992412 
L 542.664177 416.764173 
L 542.993219 416.228288 
L 543.32226 416.197853 
L 543.651302 415.13478 
L 543.980344 417.583761 
L 544.309386 418.083775 
L 544.638428 417.987033 
L 544.967469 416.803304 
L 545.296511 416.70004 
L 545.625553 418.277258 
L 545.954595 417.392451 
L 546.612678 416.530471 
L 546.94172 422.373024 
L 547.599803 422.525202 
L 547.928845 421.595828 
L 548.257887 421.241471 
L 548.586929 422.312153 
L 548.915971 421.384953 
L 549.245012 421.850183 
L 549.574054 421.447998 
L 549.903096 423.560013 
L 550.232138 422.473027 
L 550.561179 422.091494 
L 550.890221 421.331691 
L 551.219263 420.861025 
L 551.877346 418.915319 
L 552.206388 418.727271 
L 552.53543 417.868551 
L 552.864472 421.393649 
L 553.193514 421.516478 
L 553.522555 421.224079 
L 553.851597 419.245763 
L 554.180639 419.485987 
L 554.509681 420.562104 
L 554.838722 420.893635 
L 555.167764 418.969669 
L 555.496806 418.864231 
L 555.825848 420.567539 
L 556.154889 420.754501 
L 556.812973 418.265301 
L 557.142015 418.910971 
L 557.471057 420.019698 
L 557.800098 420.30014 
L 558.12914 420.400143 
L 558.458182 418.308781 
L 558.787224 419.814257 
L 559.116265 417.273969 
L 559.445307 417.358754 
L 559.774349 415.800016 
L 560.103391 416.6533 
L 560.432432 418.322912 
L 560.761474 417.905509 
L 561.090516 417.765287 
L 561.419558 417.079399 
L 561.7486 417.69572 
L 562.735725 415.603271 
L 563.064767 416.347857 
L 563.393808 417.667459 
L 563.72285 417.801158 
L 564.051892 417.652241 
L 564.380934 415.788059 
L 564.709975 417.009832 
L 565.039017 417.418539 
L 565.368059 417.109834 
L 565.697101 415.576096 
L 566.026143 416.89135 
L 566.355184 420.653411 
L 566.684226 421.167556 
L 567.013268 421.00016 
L 567.34231 420.059916 
L 567.671351 420.462101 
L 568.000393 421.240384 
L 568.329435 420.806676 
L 568.658477 416.657648 
L 568.987518 416.711997 
L 569.31656 417.025049 
L 569.645602 416.708736 
L 569.974644 415.67936 
L 570.303686 415.204347 
L 570.632727 416.244593 
L 570.961769 416.332639 
L 571.290811 416.285899 
L 571.619853 416.36851 
L 571.948894 415.445658 
L 572.277936 416.673953 
L 572.606978 416.904394 
L 572.93602 416.359814 
L 573.265061 415.52066 
L 573.923145 418.082688 
L 574.252187 417.692459 
L 574.581229 417.893552 
L 574.91027 416.403293 
L 575.239312 416.300029 
L 575.568354 415.507616 
L 575.897396 415.020646 
L 576.226437 414.105403 
L 576.555479 413.768437 
L 576.884521 414.284756 
L 577.213563 414.48911 
L 577.542604 413.322773 
L 577.871646 412.765149 
L 578.200688 413.714088 
L 578.52973 413.634738 
L 578.858771 413.935833 
L 579.187813 413.476038 
L 579.516855 414.413021 
L 579.845897 416.055457 
L 580.174939 416.196766 
L 580.50398 416.181548 
L 580.833022 415.302176 
L 581.162064 413.854309 
L 581.820147 414.043445 
L 582.149189 412.786889 
L 582.478231 413.46082 
L 582.807273 413.595607 
L 583.136314 413.47169 
L 583.465356 413.696696 
L 583.794398 413.220596 
L 584.12344 413.264076 
L 584.452482 412.94885 
L 584.781523 412.871673 
L 585.110565 412.024911 
L 585.768649 412.933632 
L 586.426732 412.853195 
L 586.755774 412.037955 
L 587.084816 413.954312 
L 587.413857 414.022792 
L 587.742899 414.407586 
L 588.071941 412.554273 
L 588.400983 412.923849 
L 588.730025 415.067387 
L 589.059066 413.999966 
L 589.388108 413.406471 
L 589.71715 410.35856 
L 590.046192 412.562969 
L 590.375233 412.535795 
L 590.704275 412.641232 
L 591.033317 411.628161 
L 591.362359 411.992301 
L 591.6914 411.645553 
L 592.020442 412.255352 
L 592.349484 412.15861 
L 592.678526 410.789007 
L 593.007568 413.348861 
L 593.336609 413.230379 
L 593.665651 412.909718 
L 593.994693 411.496635 
L 594.323735 412.012954 
L 594.652776 413.120593 
L 594.981818 412.787975 
L 595.31086 412.791236 
L 595.639902 411.918386 
L 595.968943 414.023879 
L 596.297985 414.28693 
L 596.627027 414.04888 
L 596.956069 413.301033 
L 597.285111 413.292337 
L 597.614152 412.304266 
L 597.943194 412.198829 
L 598.601278 409.610713 
L 598.930319 411.859689 
L 599.259361 413.054287 
L 599.588403 412.546664 
L 599.917445 411.575985 
L 600.246486 411.66077 
L 600.575528 412.923849 
L 600.90457 412.390138 
L 601.233612 412.471662 
L 601.562654 411.99991 
L 601.891695 413.173856 
L 602.549779 413.366252 
L 602.878821 412.601014 
L 603.207862 413.811917 
L 603.536904 414.074968 
L 603.865946 413.710827 
L 604.194988 412.867326 
L 604.524029 411.146626 
L 604.853071 413.946703 
L 605.182113 413.861918 
L 605.511155 413.347774 
L 606.169238 410.521608 
L 606.49828 412.019476 
L 606.827322 410.907489 
L 607.156364 410.725962 
L 607.485405 410.061813 
L 607.814447 411.47707 
L 608.472531 411.540115 
L 609.130614 409.84659 
L 609.459656 410.740093 
L 609.788698 410.855313 
L 610.11774 414.158666 
L 610.446781 413.336904 
L 610.775823 414.373889 
L 611.104865 414.559764 
L 611.433907 410.827052 
L 611.762948 409.998768 
L 612.09199 410.547696 
L 612.421032 411.514027 
L 612.750074 410.778137 
L 613.079115 410.405301 
L 613.408157 409.715064 
L 613.737199 414.074968 
L 614.066241 414.043445 
L 614.395283 414.332584 
L 614.724324 410.753136 
L 615.053366 410.721614 
L 615.382408 412.047738 
L 615.71145 410.908576 
L 616.040491 410.803138 
L 616.369533 410.069422 
L 616.698575 412.206438 
L 617.027617 411.899907 
L 617.356658 411.827079 
L 617.6857 410.775963 
L 618.014742 411.092276 
L 618.343784 410.318342 
L 618.672826 410.740093 
L 619.001867 409.4281 
L 619.330909 420.749066 
L 619.330909 420.749066 
" style="fill:none;stroke:#1f77b4;stroke-linecap:square;stroke-width:1.5;"/>
   </g>
   <g id="patch_3">
    <path d="M 108 448.56 
L 108 60.48 
" style="fill:none;stroke:#000000;stroke-linecap:square;stroke-linejoin:miter;stroke-width:0.8;"/>
   </g>
   <g id="patch_4">
    <path d="M 643.68 448.56 
L 643.68 60.48 
" style="fill:none;stroke:#000000;stroke-linecap:square;stroke-linejoin:miter;stroke-width:0.8;"/>
   </g>
   <g id="patch_5">
    <path d="M 108 448.56 
L 643.68 448.56 
" style="fill:none;stroke:#000000;stroke-linecap:square;stroke-linejoin:miter;stroke-width:0.8;"/>
   </g>
   <g id="patch_6">
    <path d="M 108 60.48 
L 643.68 60.48 
" style="fill:none;stroke:#000000;stroke-linecap:square;stroke-linejoin:miter;stroke-width:0.8;"/>
   </g>
   <g id="text_31">
    <!-- unikernel_falloc - vmstat -->
    <g transform="translate(283.693125 54.48)scale(0.15 -0.15)">
     <defs>
      <path d="M 8.5 21.578125 
L 8.5 54.6875 
L 17.484375 54.6875 
L 17.484375 21.921875 
Q 17.484375 14.15625 20.5 10.265625 
Q 23.53125 6.390625 29.59375 6.390625 
Q 36.859375 6.390625 41.078125 11.03125 
Q 45.3125 15.671875 45.3125 23.6875 
L 45.3125 54.6875 
L 54.296875 54.6875 
L 54.296875 0 
L 45.3125 0 
L 45.3125 8.40625 
Q 42.046875 3.421875 37.71875 1 
Q 33.40625 -1.421875 27.6875 -1.421875 
Q 18.265625 -1.421875 13.375 4.4375 
Q 8.5 10.296875 8.5 21.578125 
z
M 31.109375 56 
z
" id="DejaVuSans-117"/>
      <path d="M 54.890625 33.015625 
L 54.890625 0 
L 45.90625 0 
L 45.90625 32.71875 
Q 45.90625 40.484375 42.875 44.328125 
Q 39.84375 48.1875 33.796875 48.1875 
Q 26.515625 48.1875 22.3125 43.546875 
Q 18.109375 38.921875 18.109375 30.90625 
L 18.109375 0 
L 9.078125 0 
L 9.078125 54.6875 
L 18.109375 54.6875 
L 18.109375 46.1875 
Q 21.34375 51.125 25.703125 53.5625 
Q 30.078125 56 35.796875 56 
Q 45.21875 56 50.046875 50.171875 
Q 54.890625 44.34375 54.890625 33.015625 
z
" id="DejaVuSans-110"/>
      <path d="M 9.078125 75.984375 
L 18.109375 75.984375 
L 18.109375 31.109375 
L 44.921875 54.6875 
L 56.390625 54.6875 
L 27.390625 29.109375 
L 57.625 0 
L 45.90625 0 
L 18.109375 26.703125 
L 18.109375 0 
L 9.078125 0 
z
" id="DejaVuSans-107"/>
      <path d="M 41.109375 46.296875 
Q 39.59375 47.171875 37.8125 47.578125 
Q 36.03125 48 33.890625 48 
Q 26.265625 48 22.1875 43.046875 
Q 18.109375 38.09375 18.109375 28.8125 
L 18.109375 0 
L 9.078125 0 
L 9.078125 54.6875 
L 18.109375 54.6875 
L 18.109375 46.1875 
Q 20.953125 51.171875 25.484375 53.578125 
Q 30.03125 56 36.53125 56 
Q 37.453125 56 38.578125 55.875 
Q 39.703125 55.765625 41.0625 55.515625 
z
" id="DejaVuSans-114"/>
      <path d="M 9.421875 75.984375 
L 18.40625 75.984375 
L 18.40625 0 
L 9.421875 0 
z
" id="DejaVuSans-108"/>
      <path d="M 50.984375 -16.609375 
L 50.984375 -23.578125 
L -0.984375 -23.578125 
L -0.984375 -16.609375 
z
" id="DejaVuSans-95"/>
      <path d="M 37.109375 75.984375 
L 37.109375 68.5 
L 28.515625 68.5 
Q 23.6875 68.5 21.796875 66.546875 
Q 19.921875 64.59375 19.921875 59.515625 
L 19.921875 54.6875 
L 34.71875 54.6875 
L 34.71875 47.703125 
L 19.921875 47.703125 
L 19.921875 0 
L 10.890625 0 
L 10.890625 47.703125 
L 2.296875 47.703125 
L 2.296875 54.6875 
L 10.890625 54.6875 
L 10.890625 58.5 
Q 10.890625 67.625 15.140625 71.796875 
Q 19.390625 75.984375 28.609375 75.984375 
z
" id="DejaVuSans-102"/>
      <path d="M 30.609375 48.390625 
Q 23.390625 48.390625 19.1875 42.75 
Q 14.984375 37.109375 14.984375 27.296875 
Q 14.984375 17.484375 19.15625 11.84375 
Q 23.34375 6.203125 30.609375 6.203125 
Q 37.796875 6.203125 41.984375 11.859375 
Q 46.1875 17.53125 46.1875 27.296875 
Q 46.1875 37.015625 41.984375 42.703125 
Q 37.796875 48.390625 30.609375 48.390625 
z
M 30.609375 56 
Q 42.328125 56 49.015625 48.375 
Q 55.71875 40.765625 55.71875 27.296875 
Q 55.71875 13.875 49.015625 6.21875 
Q 42.328125 -1.421875 30.609375 -1.421875 
Q 18.84375 -1.421875 12.171875 6.21875 
Q 5.515625 13.875 5.515625 27.296875 
Q 5.515625 40.765625 12.171875 48.375 
Q 18.84375 56 30.609375 56 
z
" id="DejaVuSans-111"/>
      <path d="M 48.78125 52.59375 
L 48.78125 44.1875 
Q 44.96875 46.296875 41.140625 47.34375 
Q 37.3125 48.390625 33.40625 48.390625 
Q 24.65625 48.390625 19.8125 42.84375 
Q 14.984375 37.3125 14.984375 27.296875 
Q 14.984375 17.28125 19.8125 11.734375 
Q 24.65625 6.203125 33.40625 6.203125 
Q 37.3125 6.203125 41.140625 7.25 
Q 44.96875 8.296875 48.78125 10.40625 
L 48.78125 2.09375 
Q 45.015625 0.34375 40.984375 -0.53125 
Q 36.96875 -1.421875 32.421875 -1.421875 
Q 20.0625 -1.421875 12.78125 6.34375 
Q 5.515625 14.109375 5.515625 27.296875 
Q 5.515625 40.671875 12.859375 48.328125 
Q 20.21875 56 33.015625 56 
Q 37.15625 56 41.109375 55.140625 
Q 45.0625 54.296875 48.78125 52.59375 
z
" id="DejaVuSans-99"/>
      <path id="DejaVuSans-32"/>
      <path d="M 4.890625 31.390625 
L 31.203125 31.390625 
L 31.203125 23.390625 
L 4.890625 23.390625 
z
" id="DejaVuSans-45"/>
      <path d="M 2.984375 54.6875 
L 12.5 54.6875 
L 29.59375 8.796875 
L 46.6875 54.6875 
L 56.203125 54.6875 
L 35.6875 0 
L 23.484375 0 
z
" id="DejaVuSans-118"/>
     </defs>
     <use xlink:href="#DejaVuSans-117"/>
     <use x="63.378906" xlink:href="#DejaVuSans-110"/>
     <use x="126.757812" xlink:href="#DejaVuSans-105"/>
     <use x="154.541016" xlink:href="#DejaVuSans-107"/>
     <use x="208.826172" xlink:href="#DejaVuSans-101"/>
     <use x="270.349609" xlink:href="#DejaVuSans-114"/>
     <use x="309.712891" xlink:href="#DejaVuSans-110"/>
     <use x="373.091797" xlink:href="#DejaVuSans-101"/>
     <use x="434.615234" xlink:href="#DejaVuSans-108"/>
     <use x="462.398438" xlink:href="#DejaVuSans-95"/>
     <use x="512.398438" xlink:href="#DejaVuSans-102"/>
     <use x="547.603516" xlink:href="#DejaVuSans-97"/>
     <use x="608.882812" xlink:href="#DejaVuSans-108"/>
     <use x="636.666016" xlink:href="#DejaVuSans-108"/>
     <use x="664.449219" xlink:href="#DejaVuSans-111"/>
     <use x="725.630859" xlink:href="#DejaVuSans-99"/>
     <use x="780.611328" xlink:href="#DejaVuSans-32"/>
     <use x="812.398438" xlink:href="#DejaVuSans-45"/>
     <use x="848.482422" xlink:href="#DejaVuSans-32"/>
     <use x="880.269531" xlink:href="#DejaVuSans-118"/>
     <use x="939.449219" xlink:href="#DejaVuSans-109"/>
     <use x="1036.861328" xlink:href="#DejaVuSans-115"/>
     <use x="1088.960938" xlink:href="#DejaVuSans-116"/>
     <use x="1128.169922" xlink:href="#DejaVuSans-97"/>
     <use x="1189.449219" xlink:href="#DejaVuSans-116"/>
    </g>
   </g>
   <g id="legend_1">
    <g id="patch_7">
     <path d="M 650.68 258.52 
L 654.68 258.52 
Q 656.68 258.52 656.68 256.52 
L 656.68 252.52 
Q 656.68 250.52 654.68 250.52 
L 650.68 250.52 
Q 648.68 250.52 648.68 252.52 
L 648.68 256.52 
Q 648.68 258.52 650.68 258.52 
z
" style="fill:#ffffff;opacity:0.8;stroke:#cccccc;stroke-linejoin:miter;"/>
    </g>
   </g>
  </g>
 </g>
 <defs>
  <clipPath id="p72f1b48b26">
   <rect height="388.08" width="535.68" x="108" y="60.48"/>
  </clipPath>
 </defs>
</svg>
