<?xml version="1.0" encoding="utf-8" standalone="no"?>
<!DOCTYPE svg PUBLIC "-//W3C//DTD SVG 1.1//EN"
  "http://www.w3.org/Graphics/SVG/1.1/DTD/svg11.dtd">
<!-- Created with matplotlib (https://matplotlib.org/) -->
<svg height="504pt" version="1.1" viewBox="0 0 864 504" width="864pt" xmlns="http://www.w3.org/2000/svg" xmlns:xlink="http://www.w3.org/1999/xlink">
 <metadata>
  <rdf:RDF xmlns:cc="http://creativecommons.org/ns#" xmlns:dc="http://purl.org/dc/elements/1.1/" xmlns:rdf="http://www.w3.org/1999/02/22-rdf-syntax-ns#">
   <cc:Work>
    <dc:type rdf:resource="http://purl.org/dc/dcmitype/StillImage"/>
    <dc:date>2022-05-29T17:20:34.162218</dc:date>
    <dc:format>image/svg+xml</dc:format>
    <dc:creator>
     <cc:Agent>
      <dc:title>Matplotlib v3.3.4, https://matplotlib.org/</dc:title>
     </cc:Agent>
    </dc:creator>
   </cc:Work>
  </rdf:RDF>
 </metadata>
 <defs>
  <style type="text/css">*{stroke-linecap:butt;stroke-linejoin:round;}</style>
 </defs>
 <g id="figure_1">
  <g id="patch_1">
   <path d="M 0 504 
L 864 504 
L 864 0 
L 0 0 
z
" style="fill:#ffffff;"/>
  </g>
  <g id="axes_1">
   <g id="patch_2">
    <path d="M 108 448.56 
L 643.68 448.56 
L 643.68 60.48 
L 108 60.48 
z
" style="fill:#ffffff;"/>
   </g>
   <g id="matplotlib.axis_1">
    <g id="xtick_1">
     <g id="line2d_1">
      <defs>
       <path d="M 0 0 
L 0 3.5 
" id="m46fa0695bd" style="stroke:#000000;stroke-width:0.8;"/>
      </defs>
      <g>
       <use style="stroke:#000000;stroke-width:0.8;" x="132.349091" xlink:href="#m46fa0695bd" y="448.56"/>
      </g>
     </g>
     <g id="text_1">
      <!-- 14:03:04 -->
      <g transform="translate(135.108466 500.4725)rotate(-90)scale(0.1 -0.1)">
       <defs>
        <path d="M 12.40625 8.296875 
L 28.515625 8.296875 
L 28.515625 63.921875 
L 10.984375 60.40625 
L 10.984375 69.390625 
L 28.421875 72.90625 
L 38.28125 72.90625 
L 38.28125 8.296875 
L 54.390625 8.296875 
L 54.390625 0 
L 12.40625 0 
z
" id="DejaVuSans-49"/>
        <path d="M 37.796875 64.3125 
L 12.890625 25.390625 
L 37.796875 25.390625 
z
M 35.203125 72.90625 
L 47.609375 72.90625 
L 47.609375 25.390625 
L 58.015625 25.390625 
L 58.015625 17.1875 
L 47.609375 17.1875 
L 47.609375 0 
L 37.796875 0 
L 37.796875 17.1875 
L 4.890625 17.1875 
L 4.890625 26.703125 
z
" id="DejaVuSans-52"/>
        <path d="M 11.71875 12.40625 
L 22.015625 12.40625 
L 22.015625 0 
L 11.71875 0 
z
M 11.71875 51.703125 
L 22.015625 51.703125 
L 22.015625 39.3125 
L 11.71875 39.3125 
z
" id="DejaVuSans-58"/>
        <path d="M 31.78125 66.40625 
Q 24.171875 66.40625 20.328125 58.90625 
Q 16.5 51.421875 16.5 36.375 
Q 16.5 21.390625 20.328125 13.890625 
Q 24.171875 6.390625 31.78125 6.390625 
Q 39.453125 6.390625 43.28125 13.890625 
Q 47.125 21.390625 47.125 36.375 
Q 47.125 51.421875 43.28125 58.90625 
Q 39.453125 66.40625 31.78125 66.40625 
z
M 31.78125 74.21875 
Q 44.046875 74.21875 50.515625 64.515625 
Q 56.984375 54.828125 56.984375 36.375 
Q 56.984375 17.96875 50.515625 8.265625 
Q 44.046875 -1.421875 31.78125 -1.421875 
Q 19.53125 -1.421875 13.0625 8.265625 
Q 6.59375 17.96875 6.59375 36.375 
Q 6.59375 54.828125 13.0625 64.515625 
Q 19.53125 74.21875 31.78125 74.21875 
z
" id="DejaVuSans-48"/>
        <path d="M 40.578125 39.3125 
Q 47.65625 37.796875 51.625 33 
Q 55.609375 28.21875 55.609375 21.1875 
Q 55.609375 10.40625 48.1875 4.484375 
Q 40.765625 -1.421875 27.09375 -1.421875 
Q 22.515625 -1.421875 17.65625 -0.515625 
Q 12.796875 0.390625 7.625 2.203125 
L 7.625 11.71875 
Q 11.71875 9.328125 16.59375 8.109375 
Q 21.484375 6.890625 26.8125 6.890625 
Q 36.078125 6.890625 40.9375 10.546875 
Q 45.796875 14.203125 45.796875 21.1875 
Q 45.796875 27.640625 41.28125 31.265625 
Q 36.765625 34.90625 28.71875 34.90625 
L 20.21875 34.90625 
L 20.21875 43.015625 
L 29.109375 43.015625 
Q 36.375 43.015625 40.234375 45.921875 
Q 44.09375 48.828125 44.09375 54.296875 
Q 44.09375 59.90625 40.109375 62.90625 
Q 36.140625 65.921875 28.71875 65.921875 
Q 24.65625 65.921875 20.015625 65.03125 
Q 15.375 64.15625 9.8125 62.3125 
L 9.8125 71.09375 
Q 15.4375 72.65625 20.34375 73.4375 
Q 25.25 74.21875 29.59375 74.21875 
Q 40.828125 74.21875 47.359375 69.109375 
Q 53.90625 64.015625 53.90625 55.328125 
Q 53.90625 49.265625 50.4375 45.09375 
Q 46.96875 40.921875 40.578125 39.3125 
z
" id="DejaVuSans-51"/>
       </defs>
       <use xlink:href="#DejaVuSans-49"/>
       <use x="63.623047" xlink:href="#DejaVuSans-52"/>
       <use x="127.246094" xlink:href="#DejaVuSans-58"/>
       <use x="160.9375" xlink:href="#DejaVuSans-48"/>
       <use x="224.560547" xlink:href="#DejaVuSans-51"/>
       <use x="288.183594" xlink:href="#DejaVuSans-58"/>
       <use x="321.875" xlink:href="#DejaVuSans-48"/>
       <use x="385.498047" xlink:href="#DejaVuSans-52"/>
      </g>
     </g>
    </g>
    <g id="xtick_2">
     <g id="line2d_2">
      <g>
       <use style="stroke:#000000;stroke-width:0.8;" x="156.646849" xlink:href="#m46fa0695bd" y="448.56"/>
      </g>
     </g>
     <g id="text_2">
      <!-- 14:04:27 -->
      <g transform="translate(159.406224 500.4725)rotate(-90)scale(0.1 -0.1)">
       <defs>
        <path d="M 19.1875 8.296875 
L 53.609375 8.296875 
L 53.609375 0 
L 7.328125 0 
L 7.328125 8.296875 
Q 12.9375 14.109375 22.625 23.890625 
Q 32.328125 33.6875 34.8125 36.53125 
Q 39.546875 41.84375 41.421875 45.53125 
Q 43.3125 49.21875 43.3125 52.78125 
Q 43.3125 58.59375 39.234375 62.25 
Q 35.15625 65.921875 28.609375 65.921875 
Q 23.96875 65.921875 18.8125 64.3125 
Q 13.671875 62.703125 7.8125 59.421875 
L 7.8125 69.390625 
Q 13.765625 71.78125 18.9375 73 
Q 24.125 74.21875 28.421875 74.21875 
Q 39.75 74.21875 46.484375 68.546875 
Q 53.21875 62.890625 53.21875 53.421875 
Q 53.21875 48.921875 51.53125 44.890625 
Q 49.859375 40.875 45.40625 35.40625 
Q 44.1875 33.984375 37.640625 27.21875 
Q 31.109375 20.453125 19.1875 8.296875 
z
" id="DejaVuSans-50"/>
        <path d="M 8.203125 72.90625 
L 55.078125 72.90625 
L 55.078125 68.703125 
L 28.609375 0 
L 18.3125 0 
L 43.21875 64.59375 
L 8.203125 64.59375 
z
" id="DejaVuSans-55"/>
       </defs>
       <use xlink:href="#DejaVuSans-49"/>
       <use x="63.623047" xlink:href="#DejaVuSans-52"/>
       <use x="127.246094" xlink:href="#DejaVuSans-58"/>
       <use x="160.9375" xlink:href="#DejaVuSans-48"/>
       <use x="224.560547" xlink:href="#DejaVuSans-52"/>
       <use x="288.183594" xlink:href="#DejaVuSans-58"/>
       <use x="321.875" xlink:href="#DejaVuSans-50"/>
       <use x="385.498047" xlink:href="#DejaVuSans-55"/>
      </g>
     </g>
    </g>
    <g id="xtick_3">
     <g id="line2d_3">
      <g>
       <use style="stroke:#000000;stroke-width:0.8;" x="180.944606" xlink:href="#m46fa0695bd" y="448.56"/>
      </g>
     </g>
     <g id="text_3">
      <!-- 14:05:50 -->
      <g transform="translate(183.703981 500.4725)rotate(-90)scale(0.1 -0.1)">
       <defs>
        <path d="M 10.796875 72.90625 
L 49.515625 72.90625 
L 49.515625 64.59375 
L 19.828125 64.59375 
L 19.828125 46.734375 
Q 21.96875 47.46875 24.109375 47.828125 
Q 26.265625 48.1875 28.421875 48.1875 
Q 40.625 48.1875 47.75 41.5 
Q 54.890625 34.8125 54.890625 23.390625 
Q 54.890625 11.625 47.5625 5.09375 
Q 40.234375 -1.421875 26.90625 -1.421875 
Q 22.3125 -1.421875 17.546875 -0.640625 
Q 12.796875 0.140625 7.71875 1.703125 
L 7.71875 11.625 
Q 12.109375 9.234375 16.796875 8.0625 
Q 21.484375 6.890625 26.703125 6.890625 
Q 35.15625 6.890625 40.078125 11.328125 
Q 45.015625 15.765625 45.015625 23.390625 
Q 45.015625 31 40.078125 35.4375 
Q 35.15625 39.890625 26.703125 39.890625 
Q 22.75 39.890625 18.8125 39.015625 
Q 14.890625 38.140625 10.796875 36.28125 
z
" id="DejaVuSans-53"/>
       </defs>
       <use xlink:href="#DejaVuSans-49"/>
       <use x="63.623047" xlink:href="#DejaVuSans-52"/>
       <use x="127.246094" xlink:href="#DejaVuSans-58"/>
       <use x="160.9375" xlink:href="#DejaVuSans-48"/>
       <use x="224.560547" xlink:href="#DejaVuSans-53"/>
       <use x="288.183594" xlink:href="#DejaVuSans-58"/>
       <use x="321.875" xlink:href="#DejaVuSans-53"/>
       <use x="385.498047" xlink:href="#DejaVuSans-48"/>
      </g>
     </g>
    </g>
    <g id="xtick_4">
     <g id="line2d_4">
      <g>
       <use style="stroke:#000000;stroke-width:0.8;" x="205.242364" xlink:href="#m46fa0695bd" y="448.56"/>
      </g>
     </g>
     <g id="text_4">
      <!-- 14:07:13 -->
      <g transform="translate(208.001739 500.4725)rotate(-90)scale(0.1 -0.1)">
       <use xlink:href="#DejaVuSans-49"/>
       <use x="63.623047" xlink:href="#DejaVuSans-52"/>
       <use x="127.246094" xlink:href="#DejaVuSans-58"/>
       <use x="160.9375" xlink:href="#DejaVuSans-48"/>
       <use x="224.560547" xlink:href="#DejaVuSans-55"/>
       <use x="288.183594" xlink:href="#DejaVuSans-58"/>
       <use x="321.875" xlink:href="#DejaVuSans-49"/>
       <use x="385.498047" xlink:href="#DejaVuSans-51"/>
      </g>
     </g>
    </g>
    <g id="xtick_5">
     <g id="line2d_5">
      <g>
       <use style="stroke:#000000;stroke-width:0.8;" x="229.540121" xlink:href="#m46fa0695bd" y="448.56"/>
      </g>
     </g>
     <g id="text_5">
      <!-- 14:08:36 -->
      <g transform="translate(232.299496 500.4725)rotate(-90)scale(0.1 -0.1)">
       <defs>
        <path d="M 31.78125 34.625 
Q 24.75 34.625 20.71875 30.859375 
Q 16.703125 27.09375 16.703125 20.515625 
Q 16.703125 13.921875 20.71875 10.15625 
Q 24.75 6.390625 31.78125 6.390625 
Q 38.8125 6.390625 42.859375 10.171875 
Q 46.921875 13.96875 46.921875 20.515625 
Q 46.921875 27.09375 42.890625 30.859375 
Q 38.875 34.625 31.78125 34.625 
z
M 21.921875 38.8125 
Q 15.578125 40.375 12.03125 44.71875 
Q 8.5 49.078125 8.5 55.328125 
Q 8.5 64.0625 14.71875 69.140625 
Q 20.953125 74.21875 31.78125 74.21875 
Q 42.671875 74.21875 48.875 69.140625 
Q 55.078125 64.0625 55.078125 55.328125 
Q 55.078125 49.078125 51.53125 44.71875 
Q 48 40.375 41.703125 38.8125 
Q 48.828125 37.15625 52.796875 32.3125 
Q 56.78125 27.484375 56.78125 20.515625 
Q 56.78125 9.90625 50.3125 4.234375 
Q 43.84375 -1.421875 31.78125 -1.421875 
Q 19.734375 -1.421875 13.25 4.234375 
Q 6.78125 9.90625 6.78125 20.515625 
Q 6.78125 27.484375 10.78125 32.3125 
Q 14.796875 37.15625 21.921875 38.8125 
z
M 18.3125 54.390625 
Q 18.3125 48.734375 21.84375 45.5625 
Q 25.390625 42.390625 31.78125 42.390625 
Q 38.140625 42.390625 41.71875 45.5625 
Q 45.3125 48.734375 45.3125 54.390625 
Q 45.3125 60.0625 41.71875 63.234375 
Q 38.140625 66.40625 31.78125 66.40625 
Q 25.390625 66.40625 21.84375 63.234375 
Q 18.3125 60.0625 18.3125 54.390625 
z
" id="DejaVuSans-56"/>
        <path d="M 33.015625 40.375 
Q 26.375 40.375 22.484375 35.828125 
Q 18.609375 31.296875 18.609375 23.390625 
Q 18.609375 15.53125 22.484375 10.953125 
Q 26.375 6.390625 33.015625 6.390625 
Q 39.65625 6.390625 43.53125 10.953125 
Q 47.40625 15.53125 47.40625 23.390625 
Q 47.40625 31.296875 43.53125 35.828125 
Q 39.65625 40.375 33.015625 40.375 
z
M 52.59375 71.296875 
L 52.59375 62.3125 
Q 48.875 64.0625 45.09375 64.984375 
Q 41.3125 65.921875 37.59375 65.921875 
Q 27.828125 65.921875 22.671875 59.328125 
Q 17.53125 52.734375 16.796875 39.40625 
Q 19.671875 43.65625 24.015625 45.921875 
Q 28.375 48.1875 33.59375 48.1875 
Q 44.578125 48.1875 50.953125 41.515625 
Q 57.328125 34.859375 57.328125 23.390625 
Q 57.328125 12.15625 50.6875 5.359375 
Q 44.046875 -1.421875 33.015625 -1.421875 
Q 20.359375 -1.421875 13.671875 8.265625 
Q 6.984375 17.96875 6.984375 36.375 
Q 6.984375 53.65625 15.1875 63.9375 
Q 23.390625 74.21875 37.203125 74.21875 
Q 40.921875 74.21875 44.703125 73.484375 
Q 48.484375 72.75 52.59375 71.296875 
z
" id="DejaVuSans-54"/>
       </defs>
       <use xlink:href="#DejaVuSans-49"/>
       <use x="63.623047" xlink:href="#DejaVuSans-52"/>
       <use x="127.246094" xlink:href="#DejaVuSans-58"/>
       <use x="160.9375" xlink:href="#DejaVuSans-48"/>
       <use x="224.560547" xlink:href="#DejaVuSans-56"/>
       <use x="288.183594" xlink:href="#DejaVuSans-58"/>
       <use x="321.875" xlink:href="#DejaVuSans-51"/>
       <use x="385.498047" xlink:href="#DejaVuSans-54"/>
      </g>
     </g>
    </g>
    <g id="xtick_6">
     <g id="line2d_6">
      <g>
       <use style="stroke:#000000;stroke-width:0.8;" x="253.837879" xlink:href="#m46fa0695bd" y="448.56"/>
      </g>
     </g>
     <g id="text_6">
      <!-- 14:09:59 -->
      <g transform="translate(256.597254 500.4725)rotate(-90)scale(0.1 -0.1)">
       <defs>
        <path d="M 10.984375 1.515625 
L 10.984375 10.5 
Q 14.703125 8.734375 18.5 7.8125 
Q 22.3125 6.890625 25.984375 6.890625 
Q 35.75 6.890625 40.890625 13.453125 
Q 46.046875 20.015625 46.78125 33.40625 
Q 43.953125 29.203125 39.59375 26.953125 
Q 35.25 24.703125 29.984375 24.703125 
Q 19.046875 24.703125 12.671875 31.3125 
Q 6.296875 37.9375 6.296875 49.421875 
Q 6.296875 60.640625 12.9375 67.421875 
Q 19.578125 74.21875 30.609375 74.21875 
Q 43.265625 74.21875 49.921875 64.515625 
Q 56.59375 54.828125 56.59375 36.375 
Q 56.59375 19.140625 48.40625 8.859375 
Q 40.234375 -1.421875 26.421875 -1.421875 
Q 22.703125 -1.421875 18.890625 -0.6875 
Q 15.09375 0.046875 10.984375 1.515625 
z
M 30.609375 32.421875 
Q 37.25 32.421875 41.125 36.953125 
Q 45.015625 41.5 45.015625 49.421875 
Q 45.015625 57.28125 41.125 61.84375 
Q 37.25 66.40625 30.609375 66.40625 
Q 23.96875 66.40625 20.09375 61.84375 
Q 16.21875 57.28125 16.21875 49.421875 
Q 16.21875 41.5 20.09375 36.953125 
Q 23.96875 32.421875 30.609375 32.421875 
z
" id="DejaVuSans-57"/>
       </defs>
       <use xlink:href="#DejaVuSans-49"/>
       <use x="63.623047" xlink:href="#DejaVuSans-52"/>
       <use x="127.246094" xlink:href="#DejaVuSans-58"/>
       <use x="160.9375" xlink:href="#DejaVuSans-48"/>
       <use x="224.560547" xlink:href="#DejaVuSans-57"/>
       <use x="288.183594" xlink:href="#DejaVuSans-58"/>
       <use x="321.875" xlink:href="#DejaVuSans-53"/>
       <use x="385.498047" xlink:href="#DejaVuSans-57"/>
      </g>
     </g>
    </g>
    <g id="xtick_7">
     <g id="line2d_7">
      <g>
       <use style="stroke:#000000;stroke-width:0.8;" x="278.135637" xlink:href="#m46fa0695bd" y="448.56"/>
      </g>
     </g>
     <g id="text_7">
      <!-- 14:11:22 -->
      <g transform="translate(280.895012 500.4725)rotate(-90)scale(0.1 -0.1)">
       <use xlink:href="#DejaVuSans-49"/>
       <use x="63.623047" xlink:href="#DejaVuSans-52"/>
       <use x="127.246094" xlink:href="#DejaVuSans-58"/>
       <use x="160.9375" xlink:href="#DejaVuSans-49"/>
       <use x="224.560547" xlink:href="#DejaVuSans-49"/>
       <use x="288.183594" xlink:href="#DejaVuSans-58"/>
       <use x="321.875" xlink:href="#DejaVuSans-50"/>
       <use x="385.498047" xlink:href="#DejaVuSans-50"/>
      </g>
     </g>
    </g>
    <g id="xtick_8">
     <g id="line2d_8">
      <g>
       <use style="stroke:#000000;stroke-width:0.8;" x="302.433394" xlink:href="#m46fa0695bd" y="448.56"/>
      </g>
     </g>
     <g id="text_8">
      <!-- 14:12:45 -->
      <g transform="translate(305.192769 500.4725)rotate(-90)scale(0.1 -0.1)">
       <use xlink:href="#DejaVuSans-49"/>
       <use x="63.623047" xlink:href="#DejaVuSans-52"/>
       <use x="127.246094" xlink:href="#DejaVuSans-58"/>
       <use x="160.9375" xlink:href="#DejaVuSans-49"/>
       <use x="224.560547" xlink:href="#DejaVuSans-50"/>
       <use x="288.183594" xlink:href="#DejaVuSans-58"/>
       <use x="321.875" xlink:href="#DejaVuSans-52"/>
       <use x="385.498047" xlink:href="#DejaVuSans-53"/>
      </g>
     </g>
    </g>
    <g id="xtick_9">
     <g id="line2d_9">
      <g>
       <use style="stroke:#000000;stroke-width:0.8;" x="326.731152" xlink:href="#m46fa0695bd" y="448.56"/>
      </g>
     </g>
     <g id="text_9">
      <!-- 14:14:07 -->
      <g transform="translate(329.490527 500.4725)rotate(-90)scale(0.1 -0.1)">
       <use xlink:href="#DejaVuSans-49"/>
       <use x="63.623047" xlink:href="#DejaVuSans-52"/>
       <use x="127.246094" xlink:href="#DejaVuSans-58"/>
       <use x="160.9375" xlink:href="#DejaVuSans-49"/>
       <use x="224.560547" xlink:href="#DejaVuSans-52"/>
       <use x="288.183594" xlink:href="#DejaVuSans-58"/>
       <use x="321.875" xlink:href="#DejaVuSans-48"/>
       <use x="385.498047" xlink:href="#DejaVuSans-55"/>
      </g>
     </g>
    </g>
    <g id="xtick_10">
     <g id="line2d_10">
      <g>
       <use style="stroke:#000000;stroke-width:0.8;" x="351.028909" xlink:href="#m46fa0695bd" y="448.56"/>
      </g>
     </g>
     <g id="text_10">
      <!-- 14:15:31 -->
      <g transform="translate(353.788284 500.4725)rotate(-90)scale(0.1 -0.1)">
       <use xlink:href="#DejaVuSans-49"/>
       <use x="63.623047" xlink:href="#DejaVuSans-52"/>
       <use x="127.246094" xlink:href="#DejaVuSans-58"/>
       <use x="160.9375" xlink:href="#DejaVuSans-49"/>
       <use x="224.560547" xlink:href="#DejaVuSans-53"/>
       <use x="288.183594" xlink:href="#DejaVuSans-58"/>
       <use x="321.875" xlink:href="#DejaVuSans-51"/>
       <use x="385.498047" xlink:href="#DejaVuSans-49"/>
      </g>
     </g>
    </g>
    <g id="xtick_11">
     <g id="line2d_11">
      <g>
       <use style="stroke:#000000;stroke-width:0.8;" x="375.326667" xlink:href="#m46fa0695bd" y="448.56"/>
      </g>
     </g>
     <g id="text_11">
      <!-- 14:16:53 -->
      <g transform="translate(378.086042 500.4725)rotate(-90)scale(0.1 -0.1)">
       <use xlink:href="#DejaVuSans-49"/>
       <use x="63.623047" xlink:href="#DejaVuSans-52"/>
       <use x="127.246094" xlink:href="#DejaVuSans-58"/>
       <use x="160.9375" xlink:href="#DejaVuSans-49"/>
       <use x="224.560547" xlink:href="#DejaVuSans-54"/>
       <use x="288.183594" xlink:href="#DejaVuSans-58"/>
       <use x="321.875" xlink:href="#DejaVuSans-53"/>
       <use x="385.498047" xlink:href="#DejaVuSans-51"/>
      </g>
     </g>
    </g>
    <g id="xtick_12">
     <g id="line2d_12">
      <g>
       <use style="stroke:#000000;stroke-width:0.8;" x="399.624425" xlink:href="#m46fa0695bd" y="448.56"/>
      </g>
     </g>
     <g id="text_12">
      <!-- 14:18:16 -->
      <g transform="translate(402.3838 500.4725)rotate(-90)scale(0.1 -0.1)">
       <use xlink:href="#DejaVuSans-49"/>
       <use x="63.623047" xlink:href="#DejaVuSans-52"/>
       <use x="127.246094" xlink:href="#DejaVuSans-58"/>
       <use x="160.9375" xlink:href="#DejaVuSans-49"/>
       <use x="224.560547" xlink:href="#DejaVuSans-56"/>
       <use x="288.183594" xlink:href="#DejaVuSans-58"/>
       <use x="321.875" xlink:href="#DejaVuSans-49"/>
       <use x="385.498047" xlink:href="#DejaVuSans-54"/>
      </g>
     </g>
    </g>
    <g id="xtick_13">
     <g id="line2d_13">
      <g>
       <use style="stroke:#000000;stroke-width:0.8;" x="423.922182" xlink:href="#m46fa0695bd" y="448.56"/>
      </g>
     </g>
     <g id="text_13">
      <!-- 14:19:39 -->
      <g transform="translate(426.681557 500.4725)rotate(-90)scale(0.1 -0.1)">
       <use xlink:href="#DejaVuSans-49"/>
       <use x="63.623047" xlink:href="#DejaVuSans-52"/>
       <use x="127.246094" xlink:href="#DejaVuSans-58"/>
       <use x="160.9375" xlink:href="#DejaVuSans-49"/>
       <use x="224.560547" xlink:href="#DejaVuSans-57"/>
       <use x="288.183594" xlink:href="#DejaVuSans-58"/>
       <use x="321.875" xlink:href="#DejaVuSans-51"/>
       <use x="385.498047" xlink:href="#DejaVuSans-57"/>
      </g>
     </g>
    </g>
    <g id="xtick_14">
     <g id="line2d_14">
      <g>
       <use style="stroke:#000000;stroke-width:0.8;" x="448.21994" xlink:href="#m46fa0695bd" y="448.56"/>
      </g>
     </g>
     <g id="text_14">
      <!-- 14:21:02 -->
      <g transform="translate(450.979315 500.4725)rotate(-90)scale(0.1 -0.1)">
       <use xlink:href="#DejaVuSans-49"/>
       <use x="63.623047" xlink:href="#DejaVuSans-52"/>
       <use x="127.246094" xlink:href="#DejaVuSans-58"/>
       <use x="160.9375" xlink:href="#DejaVuSans-50"/>
       <use x="224.560547" xlink:href="#DejaVuSans-49"/>
       <use x="288.183594" xlink:href="#DejaVuSans-58"/>
       <use x="321.875" xlink:href="#DejaVuSans-48"/>
       <use x="385.498047" xlink:href="#DejaVuSans-50"/>
      </g>
     </g>
    </g>
    <g id="xtick_15">
     <g id="line2d_15">
      <g>
       <use style="stroke:#000000;stroke-width:0.8;" x="472.517698" xlink:href="#m46fa0695bd" y="448.56"/>
      </g>
     </g>
     <g id="text_15">
      <!-- 14:22:26 -->
      <g transform="translate(475.277073 500.4725)rotate(-90)scale(0.1 -0.1)">
       <use xlink:href="#DejaVuSans-49"/>
       <use x="63.623047" xlink:href="#DejaVuSans-52"/>
       <use x="127.246094" xlink:href="#DejaVuSans-58"/>
       <use x="160.9375" xlink:href="#DejaVuSans-50"/>
       <use x="224.560547" xlink:href="#DejaVuSans-50"/>
       <use x="288.183594" xlink:href="#DejaVuSans-58"/>
       <use x="321.875" xlink:href="#DejaVuSans-50"/>
       <use x="385.498047" xlink:href="#DejaVuSans-54"/>
      </g>
     </g>
    </g>
    <g id="xtick_16">
     <g id="line2d_16">
      <g>
       <use style="stroke:#000000;stroke-width:0.8;" x="496.815455" xlink:href="#m46fa0695bd" y="448.56"/>
      </g>
     </g>
     <g id="text_16">
      <!-- 14:23:49 -->
      <g transform="translate(499.57483 500.4725)rotate(-90)scale(0.1 -0.1)">
       <use xlink:href="#DejaVuSans-49"/>
       <use x="63.623047" xlink:href="#DejaVuSans-52"/>
       <use x="127.246094" xlink:href="#DejaVuSans-58"/>
       <use x="160.9375" xlink:href="#DejaVuSans-50"/>
       <use x="224.560547" xlink:href="#DejaVuSans-51"/>
       <use x="288.183594" xlink:href="#DejaVuSans-58"/>
       <use x="321.875" xlink:href="#DejaVuSans-52"/>
       <use x="385.498047" xlink:href="#DejaVuSans-57"/>
      </g>
     </g>
    </g>
    <g id="xtick_17">
     <g id="line2d_17">
      <g>
       <use style="stroke:#000000;stroke-width:0.8;" x="521.113213" xlink:href="#m46fa0695bd" y="448.56"/>
      </g>
     </g>
     <g id="text_17">
      <!-- 14:25:12 -->
      <g transform="translate(523.872588 500.4725)rotate(-90)scale(0.1 -0.1)">
       <use xlink:href="#DejaVuSans-49"/>
       <use x="63.623047" xlink:href="#DejaVuSans-52"/>
       <use x="127.246094" xlink:href="#DejaVuSans-58"/>
       <use x="160.9375" xlink:href="#DejaVuSans-50"/>
       <use x="224.560547" xlink:href="#DejaVuSans-53"/>
       <use x="288.183594" xlink:href="#DejaVuSans-58"/>
       <use x="321.875" xlink:href="#DejaVuSans-49"/>
       <use x="385.498047" xlink:href="#DejaVuSans-50"/>
      </g>
     </g>
    </g>
    <g id="xtick_18">
     <g id="line2d_18">
      <g>
       <use style="stroke:#000000;stroke-width:0.8;" x="545.41097" xlink:href="#m46fa0695bd" y="448.56"/>
      </g>
     </g>
     <g id="text_18">
      <!-- 14:26:35 -->
      <g transform="translate(548.170345 500.4725)rotate(-90)scale(0.1 -0.1)">
       <use xlink:href="#DejaVuSans-49"/>
       <use x="63.623047" xlink:href="#DejaVuSans-52"/>
       <use x="127.246094" xlink:href="#DejaVuSans-58"/>
       <use x="160.9375" xlink:href="#DejaVuSans-50"/>
       <use x="224.560547" xlink:href="#DejaVuSans-54"/>
       <use x="288.183594" xlink:href="#DejaVuSans-58"/>
       <use x="321.875" xlink:href="#DejaVuSans-51"/>
       <use x="385.498047" xlink:href="#DejaVuSans-53"/>
      </g>
     </g>
    </g>
    <g id="xtick_19">
     <g id="line2d_19">
      <g>
       <use style="stroke:#000000;stroke-width:0.8;" x="569.708728" xlink:href="#m46fa0695bd" y="448.56"/>
      </g>
     </g>
     <g id="text_19">
      <!-- 14:27:58 -->
      <g transform="translate(572.468103 500.4725)rotate(-90)scale(0.1 -0.1)">
       <use xlink:href="#DejaVuSans-49"/>
       <use x="63.623047" xlink:href="#DejaVuSans-52"/>
       <use x="127.246094" xlink:href="#DejaVuSans-58"/>
       <use x="160.9375" xlink:href="#DejaVuSans-50"/>
       <use x="224.560547" xlink:href="#DejaVuSans-55"/>
       <use x="288.183594" xlink:href="#DejaVuSans-58"/>
       <use x="321.875" xlink:href="#DejaVuSans-53"/>
       <use x="385.498047" xlink:href="#DejaVuSans-56"/>
      </g>
     </g>
    </g>
    <g id="xtick_20">
     <g id="line2d_20">
      <g>
       <use style="stroke:#000000;stroke-width:0.8;" x="594.006486" xlink:href="#m46fa0695bd" y="448.56"/>
      </g>
     </g>
     <g id="text_20">
      <!-- 14:29:20 -->
      <g transform="translate(596.765861 500.4725)rotate(-90)scale(0.1 -0.1)">
       <use xlink:href="#DejaVuSans-49"/>
       <use x="63.623047" xlink:href="#DejaVuSans-52"/>
       <use x="127.246094" xlink:href="#DejaVuSans-58"/>
       <use x="160.9375" xlink:href="#DejaVuSans-50"/>
       <use x="224.560547" xlink:href="#DejaVuSans-57"/>
       <use x="288.183594" xlink:href="#DejaVuSans-58"/>
       <use x="321.875" xlink:href="#DejaVuSans-50"/>
       <use x="385.498047" xlink:href="#DejaVuSans-48"/>
      </g>
     </g>
    </g>
    <g id="xtick_21">
     <g id="line2d_21">
      <g>
       <use style="stroke:#000000;stroke-width:0.8;" x="618.304243" xlink:href="#m46fa0695bd" y="448.56"/>
      </g>
     </g>
     <g id="text_21">
      <!-- 14:30:43 -->
      <g transform="translate(621.063618 500.4725)rotate(-90)scale(0.1 -0.1)">
       <use xlink:href="#DejaVuSans-49"/>
       <use x="63.623047" xlink:href="#DejaVuSans-52"/>
       <use x="127.246094" xlink:href="#DejaVuSans-58"/>
       <use x="160.9375" xlink:href="#DejaVuSans-51"/>
       <use x="224.560547" xlink:href="#DejaVuSans-48"/>
       <use x="288.183594" xlink:href="#DejaVuSans-58"/>
       <use x="321.875" xlink:href="#DejaVuSans-52"/>
       <use x="385.498047" xlink:href="#DejaVuSans-51"/>
      </g>
     </g>
    </g>
    <g id="text_22">
     <!-- timestamp -->
     <g transform="translate(354.264375 510.55125)scale(0.08 -0.08)">
      <defs>
       <path d="M 18.3125 70.21875 
L 18.3125 54.6875 
L 36.8125 54.6875 
L 36.8125 47.703125 
L 18.3125 47.703125 
L 18.3125 18.015625 
Q 18.3125 11.328125 20.140625 9.421875 
Q 21.96875 7.515625 27.59375 7.515625 
L 36.8125 7.515625 
L 36.8125 0 
L 27.59375 0 
Q 17.1875 0 13.234375 3.875 
Q 9.28125 7.765625 9.28125 18.015625 
L 9.28125 47.703125 
L 2.6875 47.703125 
L 2.6875 54.6875 
L 9.28125 54.6875 
L 9.28125 70.21875 
z
" id="DejaVuSans-116"/>
       <path d="M 9.421875 54.6875 
L 18.40625 54.6875 
L 18.40625 0 
L 9.421875 0 
z
M 9.421875 75.984375 
L 18.40625 75.984375 
L 18.40625 64.59375 
L 9.421875 64.59375 
z
" id="DejaVuSans-105"/>
       <path d="M 52 44.1875 
Q 55.375 50.25 60.0625 53.125 
Q 64.75 56 71.09375 56 
Q 79.640625 56 84.28125 50.015625 
Q 88.921875 44.046875 88.921875 33.015625 
L 88.921875 0 
L 79.890625 0 
L 79.890625 32.71875 
Q 79.890625 40.578125 77.09375 44.375 
Q 74.3125 48.1875 68.609375 48.1875 
Q 61.625 48.1875 57.5625 43.546875 
Q 53.515625 38.921875 53.515625 30.90625 
L 53.515625 0 
L 44.484375 0 
L 44.484375 32.71875 
Q 44.484375 40.625 41.703125 44.40625 
Q 38.921875 48.1875 33.109375 48.1875 
Q 26.21875 48.1875 22.15625 43.53125 
Q 18.109375 38.875 18.109375 30.90625 
L 18.109375 0 
L 9.078125 0 
L 9.078125 54.6875 
L 18.109375 54.6875 
L 18.109375 46.1875 
Q 21.1875 51.21875 25.484375 53.609375 
Q 29.78125 56 35.6875 56 
Q 41.65625 56 45.828125 52.96875 
Q 50 49.953125 52 44.1875 
z
" id="DejaVuSans-109"/>
       <path d="M 56.203125 29.59375 
L 56.203125 25.203125 
L 14.890625 25.203125 
Q 15.484375 15.921875 20.484375 11.0625 
Q 25.484375 6.203125 34.421875 6.203125 
Q 39.59375 6.203125 44.453125 7.46875 
Q 49.3125 8.734375 54.109375 11.28125 
L 54.109375 2.78125 
Q 49.265625 0.734375 44.1875 -0.34375 
Q 39.109375 -1.421875 33.890625 -1.421875 
Q 20.796875 -1.421875 13.15625 6.1875 
Q 5.515625 13.8125 5.515625 26.8125 
Q 5.515625 40.234375 12.765625 48.109375 
Q 20.015625 56 32.328125 56 
Q 43.359375 56 49.78125 48.890625 
Q 56.203125 41.796875 56.203125 29.59375 
z
M 47.21875 32.234375 
Q 47.125 39.59375 43.09375 43.984375 
Q 39.0625 48.390625 32.421875 48.390625 
Q 24.90625 48.390625 20.390625 44.140625 
Q 15.875 39.890625 15.1875 32.171875 
z
" id="DejaVuSans-101"/>
       <path d="M 44.28125 53.078125 
L 44.28125 44.578125 
Q 40.484375 46.53125 36.375 47.5 
Q 32.28125 48.484375 27.875 48.484375 
Q 21.1875 48.484375 17.84375 46.4375 
Q 14.5 44.390625 14.5 40.28125 
Q 14.5 37.15625 16.890625 35.375 
Q 19.28125 33.59375 26.515625 31.984375 
L 29.59375 31.296875 
Q 39.15625 29.25 43.1875 25.515625 
Q 47.21875 21.78125 47.21875 15.09375 
Q 47.21875 7.46875 41.1875 3.015625 
Q 35.15625 -1.421875 24.609375 -1.421875 
Q 20.21875 -1.421875 15.453125 -0.5625 
Q 10.6875 0.296875 5.421875 2 
L 5.421875 11.28125 
Q 10.40625 8.6875 15.234375 7.390625 
Q 20.0625 6.109375 24.8125 6.109375 
Q 31.15625 6.109375 34.5625 8.28125 
Q 37.984375 10.453125 37.984375 14.40625 
Q 37.984375 18.0625 35.515625 20.015625 
Q 33.0625 21.96875 24.703125 23.78125 
L 21.578125 24.515625 
Q 13.234375 26.265625 9.515625 29.90625 
Q 5.8125 33.546875 5.8125 39.890625 
Q 5.8125 47.609375 11.28125 51.796875 
Q 16.75 56 26.8125 56 
Q 31.78125 56 36.171875 55.265625 
Q 40.578125 54.546875 44.28125 53.078125 
z
" id="DejaVuSans-115"/>
       <path d="M 34.28125 27.484375 
Q 23.390625 27.484375 19.1875 25 
Q 14.984375 22.515625 14.984375 16.5 
Q 14.984375 11.71875 18.140625 8.90625 
Q 21.296875 6.109375 26.703125 6.109375 
Q 34.1875 6.109375 38.703125 11.40625 
Q 43.21875 16.703125 43.21875 25.484375 
L 43.21875 27.484375 
z
M 52.203125 31.203125 
L 52.203125 0 
L 43.21875 0 
L 43.21875 8.296875 
Q 40.140625 3.328125 35.546875 0.953125 
Q 30.953125 -1.421875 24.3125 -1.421875 
Q 15.921875 -1.421875 10.953125 3.296875 
Q 6 8.015625 6 15.921875 
Q 6 25.140625 12.171875 29.828125 
Q 18.359375 34.515625 30.609375 34.515625 
L 43.21875 34.515625 
L 43.21875 35.40625 
Q 43.21875 41.609375 39.140625 45 
Q 35.0625 48.390625 27.6875 48.390625 
Q 23 48.390625 18.546875 47.265625 
Q 14.109375 46.140625 10.015625 43.890625 
L 10.015625 52.203125 
Q 14.9375 54.109375 19.578125 55.046875 
Q 24.21875 56 28.609375 56 
Q 40.484375 56 46.34375 49.84375 
Q 52.203125 43.703125 52.203125 31.203125 
z
" id="DejaVuSans-97"/>
       <path d="M 18.109375 8.203125 
L 18.109375 -20.796875 
L 9.078125 -20.796875 
L 9.078125 54.6875 
L 18.109375 54.6875 
L 18.109375 46.390625 
Q 20.953125 51.265625 25.265625 53.625 
Q 29.59375 56 35.59375 56 
Q 45.5625 56 51.78125 48.09375 
Q 58.015625 40.1875 58.015625 27.296875 
Q 58.015625 14.40625 51.78125 6.484375 
Q 45.5625 -1.421875 35.59375 -1.421875 
Q 29.59375 -1.421875 25.265625 0.953125 
Q 20.953125 3.328125 18.109375 8.203125 
z
M 48.6875 27.296875 
Q 48.6875 37.203125 44.609375 42.84375 
Q 40.53125 48.484375 33.40625 48.484375 
Q 26.265625 48.484375 22.1875 42.84375 
Q 18.109375 37.203125 18.109375 27.296875 
Q 18.109375 17.390625 22.1875 11.75 
Q 26.265625 6.109375 33.40625 6.109375 
Q 40.53125 6.109375 44.609375 11.75 
Q 48.6875 17.390625 48.6875 27.296875 
z
" id="DejaVuSans-112"/>
      </defs>
      <use xlink:href="#DejaVuSans-116"/>
      <use x="39.208984" xlink:href="#DejaVuSans-105"/>
      <use x="66.992188" xlink:href="#DejaVuSans-109"/>
      <use x="164.404297" xlink:href="#DejaVuSans-101"/>
      <use x="225.927734" xlink:href="#DejaVuSans-115"/>
      <use x="278.027344" xlink:href="#DejaVuSans-116"/>
      <use x="317.236328" xlink:href="#DejaVuSans-97"/>
      <use x="378.515625" xlink:href="#DejaVuSans-109"/>
      <use x="475.927734" xlink:href="#DejaVuSans-112"/>
     </g>
    </g>
   </g>
   <g id="matplotlib.axis_2">
    <g id="ytick_1">
     <g id="line2d_22">
      <defs>
       <path d="M 0 0 
L -3.5 0 
" id="m7fc3dc2153" style="stroke:#000000;stroke-width:0.8;"/>
      </defs>
      <g>
       <use style="stroke:#000000;stroke-width:0.8;" x="108" xlink:href="#m7fc3dc2153" y="432.704014"/>
      </g>
     </g>
     <g id="text_23">
      <!-- 10800 -->
      <g transform="translate(69.1875 436.503233)scale(0.1 -0.1)">
       <use xlink:href="#DejaVuSans-49"/>
       <use x="63.623047" xlink:href="#DejaVuSans-48"/>
       <use x="127.246094" xlink:href="#DejaVuSans-56"/>
       <use x="190.869141" xlink:href="#DejaVuSans-48"/>
       <use x="254.492188" xlink:href="#DejaVuSans-48"/>
      </g>
     </g>
    </g>
    <g id="ytick_2">
     <g id="line2d_23">
      <g>
       <use style="stroke:#000000;stroke-width:0.8;" x="108" xlink:href="#m7fc3dc2153" y="376.953564"/>
      </g>
     </g>
     <g id="text_24">
      <!-- 11000 -->
      <g transform="translate(69.1875 380.752783)scale(0.1 -0.1)">
       <use xlink:href="#DejaVuSans-49"/>
       <use x="63.623047" xlink:href="#DejaVuSans-49"/>
       <use x="127.246094" xlink:href="#DejaVuSans-48"/>
       <use x="190.869141" xlink:href="#DejaVuSans-48"/>
       <use x="254.492188" xlink:href="#DejaVuSans-48"/>
      </g>
     </g>
    </g>
    <g id="ytick_3">
     <g id="line2d_24">
      <g>
       <use style="stroke:#000000;stroke-width:0.8;" x="108" xlink:href="#m7fc3dc2153" y="321.203114"/>
      </g>
     </g>
     <g id="text_25">
      <!-- 11200 -->
      <g transform="translate(69.1875 325.002332)scale(0.1 -0.1)">
       <use xlink:href="#DejaVuSans-49"/>
       <use x="63.623047" xlink:href="#DejaVuSans-49"/>
       <use x="127.246094" xlink:href="#DejaVuSans-50"/>
       <use x="190.869141" xlink:href="#DejaVuSans-48"/>
       <use x="254.492188" xlink:href="#DejaVuSans-48"/>
      </g>
     </g>
    </g>
    <g id="ytick_4">
     <g id="line2d_25">
      <g>
       <use style="stroke:#000000;stroke-width:0.8;" x="108" xlink:href="#m7fc3dc2153" y="265.452663"/>
      </g>
     </g>
     <g id="text_26">
      <!-- 11400 -->
      <g transform="translate(69.1875 269.251882)scale(0.1 -0.1)">
       <use xlink:href="#DejaVuSans-49"/>
       <use x="63.623047" xlink:href="#DejaVuSans-49"/>
       <use x="127.246094" xlink:href="#DejaVuSans-52"/>
       <use x="190.869141" xlink:href="#DejaVuSans-48"/>
       <use x="254.492188" xlink:href="#DejaVuSans-48"/>
      </g>
     </g>
    </g>
    <g id="ytick_5">
     <g id="line2d_26">
      <g>
       <use style="stroke:#000000;stroke-width:0.8;" x="108" xlink:href="#m7fc3dc2153" y="209.702213"/>
      </g>
     </g>
     <g id="text_27">
      <!-- 11600 -->
      <g transform="translate(69.1875 213.501432)scale(0.1 -0.1)">
       <use xlink:href="#DejaVuSans-49"/>
       <use x="63.623047" xlink:href="#DejaVuSans-49"/>
       <use x="127.246094" xlink:href="#DejaVuSans-54"/>
       <use x="190.869141" xlink:href="#DejaVuSans-48"/>
       <use x="254.492188" xlink:href="#DejaVuSans-48"/>
      </g>
     </g>
    </g>
    <g id="ytick_6">
     <g id="line2d_27">
      <g>
       <use style="stroke:#000000;stroke-width:0.8;" x="108" xlink:href="#m7fc3dc2153" y="153.951763"/>
      </g>
     </g>
     <g id="text_28">
      <!-- 11800 -->
      <g transform="translate(69.1875 157.750981)scale(0.1 -0.1)">
       <use xlink:href="#DejaVuSans-49"/>
       <use x="63.623047" xlink:href="#DejaVuSans-49"/>
       <use x="127.246094" xlink:href="#DejaVuSans-56"/>
       <use x="190.869141" xlink:href="#DejaVuSans-48"/>
       <use x="254.492188" xlink:href="#DejaVuSans-48"/>
      </g>
     </g>
    </g>
    <g id="ytick_7">
     <g id="line2d_28">
      <g>
       <use style="stroke:#000000;stroke-width:0.8;" x="108" xlink:href="#m7fc3dc2153" y="98.201312"/>
      </g>
     </g>
     <g id="text_29">
      <!-- 12000 -->
      <g transform="translate(69.1875 102.000531)scale(0.1 -0.1)">
       <use xlink:href="#DejaVuSans-49"/>
       <use x="63.623047" xlink:href="#DejaVuSans-50"/>
       <use x="127.246094" xlink:href="#DejaVuSans-48"/>
       <use x="190.869141" xlink:href="#DejaVuSans-48"/>
       <use x="254.492188" xlink:href="#DejaVuSans-48"/>
      </g>
     </g>
    </g>
    <g id="text_30">
     <!-- MB -->
     <g transform="translate(63.52375 260.715625)rotate(-90)scale(0.08 -0.08)">
      <defs>
       <path d="M 9.8125 72.90625 
L 24.515625 72.90625 
L 43.109375 23.296875 
L 61.8125 72.90625 
L 76.515625 72.90625 
L 76.515625 0 
L 66.890625 0 
L 66.890625 64.015625 
L 48.09375 14.015625 
L 38.1875 14.015625 
L 19.390625 64.015625 
L 19.390625 0 
L 9.8125 0 
z
" id="DejaVuSans-77"/>
       <path d="M 19.671875 34.8125 
L 19.671875 8.109375 
L 35.5 8.109375 
Q 43.453125 8.109375 47.28125 11.40625 
Q 51.125 14.703125 51.125 21.484375 
Q 51.125 28.328125 47.28125 31.5625 
Q 43.453125 34.8125 35.5 34.8125 
z
M 19.671875 64.796875 
L 19.671875 42.828125 
L 34.28125 42.828125 
Q 41.5 42.828125 45.03125 45.53125 
Q 48.578125 48.25 48.578125 53.8125 
Q 48.578125 59.328125 45.03125 62.0625 
Q 41.5 64.796875 34.28125 64.796875 
z
M 9.8125 72.90625 
L 35.015625 72.90625 
Q 46.296875 72.90625 52.390625 68.21875 
Q 58.5 63.53125 58.5 54.890625 
Q 58.5 48.1875 55.375 44.234375 
Q 52.25 40.28125 46.1875 39.3125 
Q 53.46875 37.75 57.5 32.78125 
Q 61.53125 27.828125 61.53125 20.40625 
Q 61.53125 10.640625 54.890625 5.3125 
Q 48.25 0 35.984375 0 
L 9.8125 0 
z
" id="DejaVuSans-66"/>
      </defs>
      <use xlink:href="#DejaVuSans-77"/>
      <use x="86.279297" xlink:href="#DejaVuSans-66"/>
     </g>
    </g>
   </g>
   <g id="line2d_29">
    <path clip-path="url(#pbc172645c6)" d="M 132.349091 79.658712 
L 132.691313 84.475551 
L 133.375757 84.711933 
L 133.717979 80.212872 
L 134.060201 79.463586 
L 134.402423 79.701083 
L 135.086866 78.480148 
L 135.429088 78.616179 
L 135.77131 78.14007 
L 136.113532 78.12 
L 136.797976 82.227693 
L 137.140198 104.624879 
L 137.48242 118.94494 
L 137.824642 138.132015 
L 138.166864 194.221428 
L 139.19353 273.542054 
L 139.535752 315.052724 
L 140.562417 378.371856 
L 140.904639 384.227883 
L 141.246861 384.080702 
L 141.589083 384.347189 
L 141.931305 383.748429 
L 142.273527 384.313739 
L 142.615749 386.391 
L 142.957971 387.425729 
L 143.300193 386.111133 
L 143.642415 385.355157 
L 143.984637 387.461409 
L 144.669081 387.206072 
L 145.011303 386.605082 
L 145.353525 386.708778 
L 145.695747 387.914103 
L 146.38019 387.542805 
L 146.722412 386.792404 
L 147.064634 388.924301 
L 147.406856 388.81057 
L 147.749078 388.441502 
L 148.0913 387.758001 
L 148.433522 387.774726 
L 148.775744 389.337969 
L 149.117966 389.159568 
L 149.460188 389.160683 
L 149.80241 387.425729 
L 150.144632 389.835263 
L 150.829076 389.426055 
L 151.171298 387.492629 
L 151.513519 387.897377 
L 151.855741 389.278874 
L 152.197963 389.47846 
L 152.540185 388.750359 
L 152.882407 387.734586 
L 153.224629 389.46062 
L 153.566851 389.621181 
L 154.251295 387.871732 
L 154.593517 387.828247 
L 154.935739 389.379224 
L 155.277961 388.559693 
L 155.620183 388.307701 
L 155.962405 387.750196 
L 156.646849 389.166258 
L 156.98907 389.176293 
L 157.331292 388.502827 
L 157.673514 389.42271 
L 158.015736 390.823161 
L 158.357958 390.915707 
L 158.70018 390.757376 
L 159.384624 388.146024 
L 160.069068 389.167373 
L 160.41129 388.632168 
L 160.753512 388.693494 
L 161.095734 389.824113 
L 161.437956 389.565431 
L 161.780178 389.662437 
L 162.1224 388.936566 
L 162.464621 389.952339 
L 162.806843 389.521946 
L 163.149065 389.306749 
L 163.491287 388.232995 
L 163.833509 388.23634 
L 164.175731 389.966834 
L 164.517953 389.639022 
L 164.860175 389.544246 
L 165.202397 388.212925 
L 165.544619 390.428448 
L 165.886841 390.903442 
L 166.229063 390.601274 
L 166.571285 389.644597 
L 166.913507 389.159568 
L 167.255729 389.977984 
L 167.597951 389.026882 
L 167.940172 389.250998 
L 168.282394 388.811685 
L 168.624616 389.452815 
L 169.30906 389.43609 
L 169.651282 388.80388 
L 170.677948 390.228861 
L 171.02017 390.12851 
L 171.362392 389.515256 
L 171.704614 390.985952 
L 172.046836 390.726155 
L 172.389058 390.294647 
L 172.73128 392.811222 
L 173.415724 395.02117 
L 173.757945 391.822209 
L 174.100167 391.603667 
L 174.442389 391.776494 
L 174.784611 392.526895 
L 175.126833 393.983097 
L 175.469055 394.283034 
L 175.811277 393.472422 
L 176.153499 390.376042 
L 176.495721 392.803417 
L 176.837943 392.864743 
L 177.180165 392.182357 
L 177.522387 389.025767 
L 177.864609 391.35502 
L 178.206831 391.729663 
L 178.891275 390.470818 
L 179.233496 390.861071 
L 179.575718 392.407589 
L 179.91794 391.379551 
L 180.260162 391.487706 
L 180.602384 390.812011 
L 180.944606 392.003956 
L 181.62905 392.299433 
L 181.971272 390.925742 
L 182.313494 390.154156 
L 182.655716 390.699395 
L 182.997938 390.69828 
L 183.34016 390.558904 
L 183.682382 389.281104 
L 184.024604 392.257063 
L 184.366826 392.315043 
L 184.709047 392.578185 
L 185.051269 390.987067 
L 185.393491 390.888947 
L 185.735713 392.451074 
L 186.420157 392.015106 
L 186.762379 391.87127 
L 187.104601 391.90249 
L 187.446823 391.492166 
L 187.789045 391.657188 
L 188.131267 390.785251 
L 188.473489 391.481016 
L 188.815711 391.534537 
L 189.157933 391.110833 
L 189.500155 390.313602 
L 190.184598 390.284612 
L 190.52682 390.715005 
L 190.869042 390.623574 
L 191.211264 389.828573 
L 191.553486 390.145236 
L 191.895708 391.474326 
L 192.23793 391.164354 
L 192.580152 391.203379 
L 192.922374 389.664667 
L 193.264596 391.815519 
L 193.94904 391.919215 
L 194.291262 391.181079 
L 194.633484 392.58599 
L 195.317928 391.9404 
L 195.660149 391.258015 
L 196.344593 392.988509 
L 196.686815 392.082006 
L 197.029037 391.974965 
L 197.371259 391.728548 
L 197.713481 393.073249 
L 198.055703 391.758654 
L 198.397925 391.505547 
L 198.740147 390.944697 
L 199.082369 391.35279 
L 199.424591 392.59714 
L 199.766813 396.553192 
L 200.109035 396.451727 
L 200.451257 395.379088 
L 200.793479 397.360459 
L 201.135701 397.751827 
L 201.477922 396.737169 
L 201.820144 396.532007 
L 202.162366 398.010509 
L 202.504588 397.413979 
L 202.84681 396.130604 
L 203.189032 395.68014 
L 203.531254 394.809318 
L 203.873476 396.845325 
L 204.215698 396.765044 
L 204.55792 396.892155 
L 204.900142 396.488522 
L 205.242364 396.797379 
L 205.926808 396.92003 
L 206.26903 397.007001 
L 206.611252 395.587595 
L 206.953473 396.767274 
L 207.295695 397.102892 
L 207.980139 396.484062 
L 208.322361 396.501902 
L 208.664583 396.936755 
L 209.006805 395.366823 
L 209.349027 394.632032 
L 209.691249 394.789248 
L 210.033471 397.168677 
L 210.717915 397.153067 
L 211.060137 396.013528 
L 211.402359 396.671383 
L 212.429024 397.130767 
L 212.771246 396.191929 
L 213.113468 398.303757 
L 213.45569 398.597004 
L 213.797912 398.369542 
L 214.140134 397.415094 
L 214.482356 396.92449 
L 214.824578 396.789574 
L 215.1668 396.176319 
L 215.509022 396.162939 
L 215.851244 395.132671 
L 216.193466 397.333699 
L 216.535688 401.223965 
L 216.87791 401.165985 
L 217.220132 400.024215 
L 217.562354 397.248958 
L 217.904575 398.76983 
L 218.246797 398.704045 
L 218.589019 398.959382 
L 218.931241 397.052716 
L 219.273463 398.493308 
L 219.957907 398.822236 
L 220.300129 397.426244 
L 220.642351 397.329239 
L 220.984573 399.437721 
L 221.326795 398.360622 
L 221.669017 398.436443 
L 222.011239 397.920193 
L 222.353461 398.74753 
L 223.037905 397.161987 
L 223.380126 396.127259 
L 224.06457 397.806463 
L 224.406792 397.44297 
L 224.749014 397.620256 
L 225.091236 396.810759 
L 225.433458 399.511311 
L 226.117902 399.071998 
L 226.460124 398.319367 
L 226.802346 398.246891 
L 227.144568 399.176809 
L 227.48679 399.064193 
L 227.829012 399.083148 
L 228.171234 397.571196 
L 228.513456 398.982797 
L 228.855678 398.986142 
L 229.540121 397.252303 
L 229.882343 396.494097 
L 230.224565 398.631569 
L 230.566787 397.47419 
L 230.909009 397.366034 
L 231.251231 397.110697 
L 231.593453 398.191141 
L 231.935675 397.867788 
L 232.277897 397.991554 
L 232.620119 396.768389 
L 233.304563 398.573589 
L 233.646785 398.74753 
L 233.989007 398.717425 
L 234.331229 398.14654 
L 234.67345 399.606087 
L 235.357894 399.074228 
L 235.700116 398.355047 
L 236.042338 399.442181 
L 236.38456 399.008442 
L 236.726782 397.719492 
L 237.069004 397.564506 
L 237.411226 396.783999 
L 237.753448 399.36413 
L 238.09567 399.347405 
L 238.437892 399.458906 
L 238.780114 397.626946 
L 239.122336 397.696077 
L 239.464558 398.428638 
L 240.149001 398.775405 
L 240.491223 397.682697 
L 240.833445 399.885954 
L 241.175667 402.937734 
L 241.517889 403.089375 
L 241.860111 402.197368 
L 242.202333 402.539676 
L 242.544555 400.558305 
L 242.886777 400.280667 
L 243.228999 400.260597 
L 243.571221 398.563554 
L 243.913443 399.137783 
L 244.255665 399.233674 
L 244.597887 398.753105 
L 244.940109 398.589199 
L 245.282331 397.54332 
L 245.624552 399.096528 
L 245.966774 399.37082 
L 246.308996 399.279389 
L 246.651218 397.941379 
L 246.99344 399.380855 
L 247.335662 399.577097 
L 247.677884 399.229214 
L 248.020106 398.660559 
L 248.362328 399.277159 
L 248.70455 400.267287 
L 249.046772 399.602742 
L 249.388994 399.795639 
L 249.731216 398.786555 
L 250.073438 399.008442 
L 250.41566 398.543483 
L 250.757882 398.372887 
L 251.100103 397.4675 
L 251.442325 397.797542 
L 251.784547 398.768715 
L 252.126769 398.531218 
L 252.468991 398.611499 
L 252.811213 397.188748 
L 253.153435 400.376558 
L 253.837879 400.059896 
L 254.180101 403.291192 
L 254.522323 403.04143 
L 254.864545 403.622349 
L 255.206767 403.68033 
L 255.548989 403.537609 
L 255.891211 402.758218 
L 256.233433 404.952555 
L 256.575655 405.321623 
L 256.917876 405.295978 
L 257.260098 403.853156 
L 257.944542 405.284828 
L 258.286764 405.424204 
L 258.628986 404.333725 
L 258.971208 402.613266 
L 259.31343 405.775432 
L 259.655652 405.934878 
L 259.997874 405.256953 
L 260.340096 407.880569 
L 260.682318 406.618379 
L 261.02454 407.612967 
L 261.366762 407.725583 
L 261.708984 405.047331 
L 262.051206 404.165359 
L 262.393427 405.091931 
L 262.735649 404.313655 
L 263.077871 407.795828 
L 263.420093 406.548133 
L 263.762315 408.345528 
L 264.104537 405.729717 
L 264.446759 405.884703 
L 264.788981 405.802192 
L 265.131203 403.990302 
L 265.473425 405.061826 
L 266.157869 404.9559 
L 266.500091 403.475168 
L 266.842313 403.70709 
L 267.184535 405.540165 
L 267.526757 405.701841 
L 268.2112 403.939012 
L 268.553422 404.396166 
L 268.895644 404.078388 
L 269.237866 403.925632 
L 269.580088 403.636845 
L 269.92231 404.29247 
L 270.264532 405.914808 
L 270.606754 405.5279 
L 270.948976 405.792157 
L 271.291198 405.456539 
L 271.63342 406.76779 
L 271.975642 406.312866 
L 272.317864 406.260461 
L 272.660086 404.189889 
L 273.002308 404.928025 
L 273.344529 406.250426 
L 273.686751 405.938223 
L 274.028973 405.875783 
L 274.371195 405.032836 
L 274.713417 406.503533 
L 275.055639 405.655011 
L 275.397861 405.834527 
L 275.740083 405.026146 
L 276.424527 407.069957 
L 276.766749 406.931696 
L 277.108971 407.024242 
L 277.451193 406.263806 
L 278.135637 405.875783 
L 278.477859 405.909233 
L 278.82008 404.814294 
L 279.162302 405.214582 
L 279.504524 406.18464 
L 279.846746 406.484578 
L 280.188968 404.29916 
L 280.53119 404.167589 
L 280.873412 405.488875 
L 281.215634 405.522325 
L 281.557856 405.914808 
L 281.900078 404.660423 
L 282.2423 405.056251 
L 282.584522 406.800125 
L 282.926744 407.064382 
L 283.268966 407.030932 
L 283.611188 405.869093 
L 284.295632 405.180017 
L 284.637853 405.211237 
L 284.980075 404.131909 
L 285.322297 405.161062 
L 285.664519 406.667439 
L 286.006741 406.667439 
L 286.348963 406.971837 
L 286.691185 406.342971 
L 287.033407 406.625069 
L 287.375629 406.505763 
L 288.060073 404.467526 
L 288.402295 405.642746 
L 288.744517 407.563906 
L 289.086739 406.78786 
L 289.428961 406.578238 
L 289.771183 406.094324 
L 290.113404 406.74103 
L 290.455626 406.83915 
L 290.797848 406.543673 
L 291.14007 405.853483 
L 291.824514 408.484904 
L 292.166736 407.311914 
L 292.508958 407.335329 
L 292.85118 406.267151 
L 293.535624 406.093209 
L 293.877846 406.347431 
L 294.220068 405.756477 
L 294.56229 406.190215 
L 294.904512 406.843611 
L 295.246734 406.993022 
L 295.588955 404.963705 
L 295.931177 404.96482 
L 296.273399 407.140203 
L 296.615621 407.135743 
L 297.300065 405.781007 
L 297.642287 406.066449 
L 297.984509 408.089076 
L 298.326731 407.662027 
L 298.668953 407.691017 
L 299.011175 406.907166 
L 299.353397 405.785467 
L 300.037841 405.825607 
L 300.722285 404.963705 
L 301.064506 406.529178 
L 301.406728 406.461162 
L 301.74895 406.574893 
L 302.091172 404.757429 
L 302.775616 406.098784 
L 303.117838 406.097669 
L 303.46006 405.384064 
L 303.802282 406.258231 
L 304.144504 408.173816 
L 304.486726 411.182111 
L 304.828948 411.214446 
L 305.17117 410.464045 
L 305.513392 411.136395 
L 305.855614 408.723516 
L 306.197836 408.909722 
L 306.540057 407.602932 
L 306.882279 407.897294 
L 307.224501 408.993348 
L 307.566723 408.800451 
L 307.908945 407.38216 
L 308.251167 406.759985 
L 308.593389 407.130168 
L 308.935611 407.268429 
L 309.277833 407.250589 
L 309.620055 406.233701 
L 309.962277 407.617427 
L 310.304499 408.195001 
L 310.646721 407.784678 
L 310.988943 407.790253 
L 311.331165 406.917201 
L 311.673387 408.471524 
L 312.015609 408.464834 
L 312.35783 408.647695 
L 312.700052 407.581746 
L 313.042274 407.563906 
L 313.384496 407.95862 
L 313.726718 408.097996 
L 314.06894 408.63543 
L 314.411162 406.889326 
L 314.753384 408.171586 
L 315.437828 408.02106 
L 315.78005 407.014207 
L 316.122272 407.556101 
L 316.464494 408.565184 
L 316.806716 408.241832 
L 317.148938 408.415773 
L 317.49116 407.791368 
L 317.833381 408.04113 
L 318.175603 407.767953 
L 318.517825 406.757755 
L 318.860047 406.914971 
L 319.202269 407.756803 
L 319.544491 409.159484 
L 319.886713 409.047983 
L 320.228935 408.746931 
L 320.571157 407.484741 
L 320.913379 407.259509 
L 321.255601 407.450175 
L 321.597823 407.337559 
L 321.940045 405.217927 
L 322.282267 405.933763 
L 322.624489 408.269707 
L 323.308932 407.243899 
L 323.651154 406.441092 
L 323.993376 407.97423 
L 324.67782 407.949699 
L 325.020042 406.930581 
L 325.362264 407.510386 
L 325.704486 409.487297 
L 326.731152 408.6778 
L 327.073374 410.026961 
L 327.415596 408.701216 
L 327.757818 408.773691 
L 328.10004 406.937271 
L 328.442262 407.799173 
L 328.784483 410.198673 
L 329.468927 409.402556 
L 329.811149 408.461489 
L 330.153371 407.953044 
L 330.495593 408.506089 
L 330.837815 408.836132 
L 331.180037 412.745353 
L 331.522259 412.430921 
L 331.864481 413.119996 
L 332.206703 413.523629 
L 332.548925 413.576035 
L 332.891147 412.579217 
L 333.233369 414.206015 
L 333.917813 413.817992 
L 334.260034 413.073166 
L 334.602256 413.174632 
L 334.944478 412.946055 
L 335.2867 413.056441 
L 335.628922 412.668418 
L 335.971144 412.505626 
L 336.313366 413.358608 
L 336.655588 413.782312 
L 336.99781 413.709836 
L 337.340032 412.249174 
L 337.682254 413.220347 
L 338.024476 414.954186 
L 338.366698 413.896042 
L 338.70892 413.986358 
L 339.051142 413.422164 
L 339.393364 415.734692 
L 339.735586 415.096907 
L 340.077807 414.780245 
L 340.420029 413.836947 
L 341.104473 415.062342 
L 341.446695 415.110287 
L 341.788917 414.705539 
L 342.131139 413.01853 
L 342.473361 414.454662 
L 342.815583 415.093562 
L 343.157805 414.815925 
L 343.842249 412.928215 
L 344.184471 414.362116 
L 344.526693 413.986358 
L 344.868915 414.098974 
L 345.211137 413.727676 
L 345.553358 414.592923 
L 345.89558 414.714459 
L 346.237802 414.459122 
L 346.580024 413.728791 
L 346.922246 414.030959 
L 347.264468 414.804775 
L 348.291134 415.457055 
L 348.633356 418.911353 
L 348.975578 419.319446 
L 349.3178 419.116515 
L 349.660022 415.292034 
L 350.002244 415.730232 
L 350.344466 415.202833 
L 350.686688 413.250452 
L 351.028909 417.342535 
L 351.371131 416.325647 
L 351.713353 418.799852 
L 352.055575 415.651067 
L 352.397797 415.532876 
L 353.082241 414.501492 
L 353.424463 415.205063 
L 353.766685 415.347784 
L 354.108907 415.263044 
L 354.451129 413.738826 
L 354.793351 415.186108 
L 355.135573 415.452595 
L 355.477795 415.392385 
L 355.820017 413.999738 
L 356.162239 414.444627 
L 356.50446 416.293312 
L 356.846682 415.877413 
L 357.531126 413.6329 
L 357.873348 414.628603 
L 358.21557 414.493687 
L 358.557792 414.741219 
L 358.900014 414.096744 
L 359.242236 413.836947 
L 359.584458 415.508346 
L 360.268902 415.312104 
L 360.611124 414.462467 
L 360.953346 415.465975 
L 361.295568 415.872953 
L 361.63779 415.299839 
L 361.980011 414.059949 
L 362.664455 415.560751 
L 363.006677 415.309874 
L 363.348899 415.323254 
L 363.691121 414.366576 
L 364.033343 416.095955 
L 364.375565 416.393663 
L 364.717787 416.020135 
L 365.060009 414.968681 
L 365.402231 415.596431 
L 365.744453 416.603284 
L 366.086675 416.408158 
L 366.428897 416.527464 
L 366.771119 415.509461 
L 367.113341 415.929819 
L 367.455563 415.992259 
L 367.797784 415.918669 
L 368.140006 415.385695 
L 368.482228 415.144853 
L 368.82445 416.585444 
L 369.166672 416.541959 
L 369.851116 413.990818 
L 370.193338 415.089102 
L 370.53556 415.360049 
L 370.877782 415.328829 
L 371.220004 413.906078 
L 371.562226 414.780245 
L 371.904448 417.418356 
L 372.24667 417.823104 
L 372.931114 416.572064 
L 373.273335 417.629093 
L 373.615557 416.864196 
L 373.957779 416.70921 
L 374.300001 415.878528 
L 374.642223 415.798248 
L 374.984445 416.72705 
L 375.668889 416.964547 
L 376.011111 415.668907 
L 376.353333 417.31466 
L 377.379999 415.007706 
L 377.722221 414.878365 
L 378.064443 416.209686 
L 378.406665 416.432688 
L 378.748886 416.087035 
L 379.091108 415.566326 
L 379.43333 415.719082 
L 379.775552 417.053748 
L 380.117774 416.137211 
L 380.459996 416.188501 
L 380.802218 415.720197 
L 381.14444 417.238839 
L 381.486662 417.248875 
L 381.828884 417.098348 
L 382.171106 415.861803 
L 382.513328 416.846356 
L 382.85555 415.829468 
L 383.197772 415.817203 
L 383.539994 414.096744 
L 383.882216 413.968518 
L 384.224437 415.123667 
L 384.566659 415.178303 
L 384.908881 415.42026 
L 385.251103 414.703309 
L 385.593325 414.851605 
L 385.935547 416.262092 
L 386.277769 416.395893 
L 386.619991 416.408158 
L 386.962213 415.885219 
L 387.304435 417.464071 
L 387.646657 418.005966 
L 387.988879 417.881085 
L 388.331101 416.864196 
L 388.673323 416.480633 
L 389.015545 416.787261 
L 389.357767 416.504049 
L 390.04221 414.80366 
L 390.384432 416.104875 
L 391.068876 415.488275 
L 391.411098 414.482537 
L 392.095542 416.72036 
L 392.437764 420.159048 
L 392.779986 420.167968 
L 393.122208 419.263696 
L 393.46443 421.024295 
L 393.806652 418.060601 
L 394.148874 418.250153 
L 394.491096 417.242185 
L 394.833318 417.596757 
L 395.17554 417.008033 
L 395.517761 416.783916 
L 395.859983 415.026662 
L 396.202205 415.103597 
L 396.544427 416.429343 
L 396.886649 416.68468 
L 397.228871 416.74489 
L 397.571093 415.704587 
L 397.913315 416.228641 
L 398.255537 417.845404 
L 398.597759 417.180859 
L 398.939981 417.304625 
L 399.282203 416.64231 
L 399.624425 417.218769 
L 399.966647 416.942247 
L 400.308869 416.989077 
L 400.651091 416.489553 
L 400.993312 416.478403 
L 401.335534 422.036723 
L 401.677756 421.460264 
L 402.019978 421.526049 
L 402.3622 420.553761 
L 402.704422 422.036723 
L 403.046644 422.499452 
L 403.388866 422.507257 
L 403.731088 420.893839 
L 404.07331 420.908334 
L 404.415532 422.079094 
L 404.757754 421.974283 
L 405.099976 422.215125 
L 405.442198 421.810376 
L 405.78442 424.053775 
L 406.126642 422.954376 
L 406.468863 422.694579 
L 406.811085 421.988778 
L 407.153307 421.013145 
L 407.495529 422.865175 
L 407.837751 422.379031 
L 408.179973 422.261955 
L 408.522195 421.483679 
L 408.864417 423.064762 
L 409.206639 422.620988 
L 409.548861 422.442587 
L 409.891083 421.550579 
L 410.233305 422.173869 
L 410.575527 423.669096 
L 410.917749 423.43606 
L 411.259971 422.681198 
L 411.602193 421.63532 
L 411.944414 423.443865 
L 412.286636 426.386373 
L 412.628858 426.028455 
L 412.97108 425.013797 
L 413.313302 426.365188 
L 413.655524 422.93542 
L 413.997746 422.673393 
L 414.339968 421.708911 
L 414.68219 421.976513 
L 415.024412 423.486235 
L 415.708856 423.816278 
L 416.051078 423.268808 
L 416.3933 423.947849 
L 416.735522 423.369159 
L 417.077744 423.44498 
L 417.419966 421.714486 
L 417.762187 421.262907 
L 418.104409 423.656831 
L 418.446631 423.688052 
L 418.788853 422.842875 
L 419.131075 422.500567 
L 419.473297 423.466165 
L 419.815519 423.743802 
L 420.499963 422.947686 
L 420.842185 423.698087 
L 421.184407 424.77184 
L 421.868851 424.403887 
L 422.553295 423.000091 
L 422.895517 423.079257 
L 423.237738 422.782664 
L 423.57996 420.993075 
L 423.922182 421.765776 
L 424.264404 423.019046 
L 424.948848 423.188528 
L 425.29107 422.408021 
L 425.633292 423.836348 
L 425.975514 423.870913 
L 426.317736 423.417104 
L 426.659958 422.639943 
L 427.344402 424.352597 
L 427.686624 423.990219 
L 428.028846 423.967919 
L 428.371068 422.965526 
L 428.713289 422.858485 
L 429.055511 422.627678 
L 429.397733 422.82615 
L 429.739955 420.712093 
L 430.082177 421.468069 
L 430.424399 423.042461 
L 430.766621 422.616528 
L 431.108843 422.645518 
L 431.451065 421.705566 
L 431.793287 423.110477 
L 432.135509 423.683592 
L 432.477731 423.044691 
L 432.819953 422.124809 
L 433.162175 422.763709 
L 433.504397 424.216566 
L 433.846619 423.602196 
L 434.18884 423.4316 
L 434.531062 422.347811 
L 434.873284 423.916628 
L 435.215506 422.89528 
L 435.557728 423.082602 
L 435.89995 422.463772 
L 436.242172 426.405329 
L 436.584394 428.741272 
L 436.926616 428.756883 
L 437.268838 428.293039 
L 437.61106 423.604426 
L 437.953282 423.810703 
L 438.295504 423.647911 
L 438.637726 422.729144 
L 438.979948 425.699528 
L 439.32217 426.487839 
L 439.664391 427.975261 
L 440.006613 424.433993 
L 440.348835 423.175147 
L 440.691057 422.341121 
L 441.033279 423.50742 
L 441.375501 423.412644 
L 441.717723 421.547234 
L 442.059945 421.487024 
L 442.744389 422.777089 
L 443.428833 422.670048 
L 443.771055 421.199351 
L 444.113277 423.215288 
L 444.455499 423.362469 
L 444.797721 423.044691 
L 445.139943 422.376801 
L 445.482164 422.113659 
L 446.166608 422.350041 
L 446.50883 422.329971 
L 446.851052 421.951983 
L 447.193274 424.378242 
L 447.535496 424.16639 
L 447.877718 423.812933 
L 448.21994 422.876325 
L 448.562162 423.226438 
L 448.904384 428.652072 
L 449.588828 428.392275 
L 449.93105 427.128969 
L 450.273272 428.002021 
L 450.615494 427.965226 
L 450.957715 428.104602 
L 451.299937 427.455667 
L 451.642159 427.142349 
L 451.984381 427.398802 
L 452.326603 427.246045 
L 452.668825 427.341936 
L 453.011047 426.257032 
L 453.695491 426.385258 
L 454.037713 426.081976 
L 454.379935 425.009337 
L 454.722157 425.701758 
L 455.064379 427.22709 
L 455.748823 426.882552 
L 456.091045 426.327278 
L 456.433266 426.834607 
L 457.11771 427.029734 
L 457.459932 426.62164 
L 457.802154 426.560315 
L 458.144376 427.015238 
L 458.486598 427.23155 
L 459.171042 425.178819 
L 459.513264 426.395293 
L 459.855486 426.396408 
L 460.197708 426.54805 
L 460.53993 425.351645 
L 461.224374 428.49151 
L 461.566596 428.033242 
L 461.908817 427.925086 
L 462.251039 427.419987 
L 462.593261 428.939744 
L 462.935483 428.566216 
L 463.277705 428.41792 
L 463.962149 426.854677 
L 464.304371 428.783643 
L 464.646593 428.472555 
L 464.988815 427.959651 
L 465.331037 426.226927 
L 465.673259 427.551558 
L 466.015481 427.288416 
L 466.357703 425.33269 
L 466.699925 425.032752 
L 467.042147 426.319473 
L 467.384368 426.274872 
L 467.72659 425.278054 
L 468.068812 425.349415 
L 468.411034 424.77184 
L 468.753256 425.874584 
L 469.095478 425.702873 
L 469.4377 424.685985 
L 469.779922 424.755115 
L 470.122144 425.670538 
L 470.464366 426.194592 
L 470.806588 426.224697 
L 471.14881 426.658436 
L 471.491032 426.201282 
L 471.833254 427.851495 
L 472.175476 427.333016 
L 472.517698 427.048689 
L 472.85992 425.610327 
L 473.202141 427.758949 
L 473.544363 426.832377 
L 473.886585 426.887012 
L 474.228807 425.495481 
L 474.571029 425.746358 
L 474.913251 426.233617 
L 475.255473 426.214662 
L 475.597695 426.056331 
L 475.939917 424.997072 
L 476.282139 426.02957 
L 476.624361 425.38398 
L 476.966583 425.398475 
L 477.651027 423.819623 
L 477.993249 425.234569 
L 478.335471 425.360565 
L 478.677692 425.327115 
L 479.019914 424.359287 
L 479.362136 426.500104 
L 479.704358 425.534506 
L 480.04658 429.109225 
L 480.388802 428.617506 
L 480.731024 428.645382 
L 481.073246 430.176289 
L 481.415468 427.131199 
L 481.75769 427.203675 
L 482.099912 425.243489 
L 482.442134 425.98274 
L 483.126578 424.650304 
L 483.4688 423.043576 
L 483.811022 424.071615 
L 484.153243 423.167342 
L 484.837687 422.87521 
L 485.179909 422.119234 
L 485.522131 424.553299 
L 485.864353 424.178656 
L 486.206575 424.025899 
L 486.548797 423.243163 
L 486.891019 422.82838 
L 487.233241 423.366929 
L 487.575463 423.673556 
L 487.917685 423.787287 
L 488.259907 422.783779 
L 488.602129 424.060465 
L 488.944351 428.650957 
L 489.628794 426.636135 
L 489.971016 427.620688 
L 490.313238 428.223908 
L 490.65546 427.444517 
L 490.997682 427.228205 
L 491.339904 426.684081 
L 492.024348 427.290646 
L 492.708792 425.92476 
L 493.393236 427.724384 
L 493.735458 427.80578 
L 494.07768 427.612883 
L 494.419902 426.953913 
L 494.762124 427.436712 
L 495.104345 427.576088 
L 495.788789 425.732978 
L 496.473233 427.590583 
L 496.815455 427.419987 
L 497.157677 427.756719 
L 497.499899 426.618295 
L 497.842121 429.369022 
L 498.184343 428.136938 
L 498.526565 427.566053 
L 498.868787 427.649679 
L 499.211009 427.929546 
L 500.237675 426.830147 
L 500.579897 424.916792 
L 500.922118 426.844642 
L 501.26434 426.598225 
L 501.948784 425.076238 
L 502.633228 425.179934 
L 502.97545 424.561104 
L 503.317672 424.590094 
L 503.659894 423.49404 
L 504.002116 425.268019 
L 504.68656 425.707333 
L 505.028782 424.67818 
L 505.371004 426.529095 
L 505.713226 426.999628 
L 506.055448 425.813259 
L 506.397669 425.912495 
L 506.739891 425.39067 
L 507.082113 426.406444 
L 507.424335 425.99389 
L 507.766557 426.092011 
L 508.108779 425.428581 
L 508.451001 425.38621 
L 508.793223 425.476526 
L 509.135445 424.953587 
L 509.477667 424.658109 
L 509.819889 424.032589 
L 510.162111 425.692838 
L 510.504333 425.437501 
L 511.188777 423.359124 
L 511.530999 423.110477 
L 511.87322 424.69825 
L 512.215442 424.719435 
L 512.557664 424.485283 
L 512.899886 423.795092 
L 513.242108 426.243652 
L 513.58433 425.048363 
L 513.926552 425.240144 
L 514.268774 424.16862 
L 514.953218 425.433041 
L 515.637662 425.340495 
L 515.979884 424.551069 
L 516.322106 424.478593 
L 517.348771 421.711141 
L 518.033215 424.293501 
L 518.375437 424.0705 
L 518.717659 423.027966 
L 519.059881 422.92204 
L 519.402103 423.428254 
L 520.086547 423.374734 
L 520.428769 422.594228 
L 521.113213 424.142975 
L 521.455435 424.120675 
L 521.797657 423.652371 
L 522.139879 422.25415 
L 522.482101 422.801619 
L 522.824322 422.106969 
L 523.166544 421.67546 
L 523.508766 420.970775 
L 523.850988 422.26084 
L 524.535432 430.92 
L 524.877654 430.059213 
L 525.219876 426.158912 
L 525.562098 425.893539 
L 525.90432 425.425236 
L 526.246542 425.620362 
L 526.930986 429.936562 
L 527.273208 430.164024 
L 527.61543 427.472392 
L 527.957652 427.421102 
L 528.299874 426.486724 
L 528.984317 425.94929 
L 529.326539 425.336035 
L 529.668761 423.382539 
L 530.010983 425.916955 
L 530.353205 424.799716 
L 530.695427 424.911216 
L 531.037649 423.936699 
L 531.379871 424.450718 
L 531.722093 425.874584 
L 532.064315 425.29478 
L 532.406537 425.156518 
L 532.748759 424.208761 
L 533.090981 426.304978 
L 533.433203 425.815489 
L 533.775425 425.573532 
L 534.459868 423.403724 
L 534.80209 425.050593 
L 535.144312 425.187739 
L 535.486534 425.159863 
L 535.828756 423.934469 
L 536.170978 426.055216 
L 536.855422 424.335872 
L 537.197644 421.850517 
L 537.539866 422.24523 
L 537.882088 424.577829 
L 538.22431 424.197611 
L 538.566532 424.372667 
L 538.908754 423.374734 
L 539.250976 424.954702 
L 539.593197 424.879996 
L 540.277641 424.290156 
L 540.619863 424.612394 
L 540.962085 425.866779 
L 541.304307 426.117656 
L 541.646529 425.939255 
L 541.988751 425.078468 
L 542.330973 425.069548 
L 542.673195 424.752885 
L 543.015417 424.05266 
L 543.357639 422.2653 
L 543.699861 421.714486 
L 544.042083 422.610953 
L 544.726527 421.145831 
L 545.068748 419.668444 
L 545.41097 421.837137 
L 545.753192 421.907382 
L 546.437636 420.000717 
L 547.12208 421.490369 
L 547.464302 421.138026 
L 547.806524 421.728981 
L 548.148746 420.935094 
L 548.490968 421.743476 
L 548.83319 420.680872 
L 549.175412 420.995305 
L 549.517634 420.102183 
L 550.202078 422.054563 
L 550.544299 422.031148 
L 551.228743 419.359587 
L 551.570965 420.39097 
L 551.913187 420.530346 
L 552.255409 420.500241 
L 552.597631 419.296031 
L 552.939853 419.8212 
L 553.282075 421.430158 
L 553.624297 421.235032 
L 553.966519 420.658572 
L 554.308741 419.861341 
L 554.650963 420.529231 
L 555.335407 420.309574 
L 555.677629 419.456592 
L 556.362072 420.807983 
L 556.704294 420.3709 
L 557.046516 420.805753 
L 557.388738 419.983992 
L 557.73096 421.075585 
L 558.073182 419.569208 
L 558.757626 417.718293 
L 559.099848 418.564585 
L 559.44207 420.577176 
L 559.784292 420.184693 
L 560.468736 418.251268 
L 560.810958 419.652834 
L 561.15318 419.701894 
L 561.495402 419.963921 
L 561.837623 419.284881 
L 562.179845 419.455477 
L 562.522067 420.486861 
L 562.864289 420.498011 
L 563.206511 420.146783 
L 563.548733 419.486698 
L 563.890955 420.9652 
L 564.575399 420.608397 
L 564.917621 419.19791 
L 565.602065 419.759875 
L 565.944287 418.164297 
L 566.286509 417.517592 
L 566.628731 416.008985 
L 566.970953 415.597546 
L 567.655396 415.822778 
L 567.997618 418.59692 
L 568.33984 419.196795 
L 568.682062 420.903874 
L 569.024284 420.38428 
L 569.366506 417.177514 
L 569.708728 416.616664 
L 570.05095 418.329318 
L 570.735394 417.313545 
L 571.077616 416.432688 
L 571.419838 417.103923 
L 571.76206 417.217654 
L 572.104282 416.295542 
L 572.446504 416.480633 
L 572.788725 415.575246 
L 573.130947 417.32581 
L 573.473169 415.713507 
L 573.815391 415.739152 
L 574.157613 415.131472 
L 574.499835 413.427739 
L 574.842057 415.531761 
L 575.184279 415.149313 
L 575.526501 415.125897 
L 575.868723 414.009773 
L 576.553167 414.918506 
L 576.895389 414.085594 
L 577.237611 417.8822 
L 577.579833 416.846356 
L 577.922055 418.640406 
L 578.606498 419.345091 
L 578.94872 418.760827 
L 579.290942 418.947033 
L 579.633164 420.104413 
L 580.317608 417.721638 
L 580.65983 417.452921 
L 581.002052 420.040857 
L 581.344274 419.396382 
L 581.686496 419.364047 
L 582.028718 418.660476 
L 582.37094 418.265763 
L 582.713162 419.261466 
L 583.055384 419.059649 
L 583.397606 422.326626 
L 583.739828 421.65093 
L 584.082049 423.361354 
L 584.424271 423.477315 
L 584.766493 420.120023 
L 585.108715 419.478893 
L 585.793159 419.032889 
L 586.135381 418.419634 
L 586.477603 418.589115 
L 586.819825 416.999113 
L 587.162047 419.355127 
L 587.504269 419.335056 
L 587.846491 418.185482 
L 588.188713 416.487323 
L 588.530935 415.809398 
L 588.873157 416.609974 
L 589.215379 415.43587 
L 589.5576 415.351129 
L 589.899822 414.446857 
L 590.242044 417.026988 
L 590.584266 416.593249 
L 590.926488 416.339027 
L 591.26871 415.845078 
L 591.610932 416.060275 
L 591.953154 415.140393 
L 592.637598 415.176073 
L 592.97982 414.062179 
L 593.322042 416.916602 
L 594.006486 416.526349 
L 594.348708 419.010589 
L 594.69093 420.222604 
L 595.033151 420.007407 
L 595.375373 418.324858 
L 595.717595 415.528416 
L 596.059817 414.87502 
L 596.402039 416.543074 
L 596.744261 416.031285 
L 597.086483 415.860688 
L 597.428705 415.269734 
L 597.770927 415.765913 
L 598.113149 415.159348 
L 598.455371 415.027777 
L 598.797593 414.594038 
L 599.139815 412.130983 
L 599.482037 415.084642 
L 600.166481 415.208408 
L 600.508702 413.938413 
L 600.850924 415.014397 
L 601.193146 415.419145 
L 601.535368 414.26065 
L 601.87759 414.391106 
L 602.219812 413.426624 
L 602.562034 413.976323 
L 602.904256 413.938413 
L 603.246478 414.558358 
L 603.5887 413.431084 
L 603.930922 414.008658 
L 604.273144 415.884104 
L 604.615366 415.40688 
L 604.957588 415.636572 
L 605.29981 414.565048 
L 605.642032 415.540681 
L 605.984253 415.206178 
L 606.326475 415.248548 
L 606.668697 413.134491 
L 607.010919 414.110124 
L 607.353141 415.627651 
L 607.695363 415.168268 
L 608.037585 415.024432 
L 608.379807 414.067754 
L 608.722029 414.745679 
L 609.064251 414.15584 
L 609.406473 414.740104 
L 609.748695 413.395403 
L 610.433139 414.081134 
L 610.775361 413.765586 
L 611.459805 412.114258 
L 611.802026 410.916738 
L 612.144248 414.892861 
L 612.48647 414.337586 
L 612.828692 413.424394 
L 613.170914 411.564559 
L 613.513136 413.6106 
L 613.855358 412.418656 
L 614.19758 412.556917 
L 614.539802 414.925196 
L 614.882024 416.421538 
L 615.224246 417.012493 
L 615.566468 417.003573 
L 615.90869 415.995604 
L 616.250912 413.351918 
L 616.593134 415.043387 
L 617.277577 412.954975 
L 617.619799 411.185456 
L 617.962021 412.031747 
L 618.304243 411.822126 
L 618.646465 411.376122 
L 618.988687 410.533175 
L 619.330909 411.228941 
L 619.330909 411.228941 
" style="fill:none;stroke:#1f77b4;stroke-linecap:square;stroke-width:1.5;"/>
   </g>
   <g id="patch_3">
    <path d="M 108 448.56 
L 108 60.48 
" style="fill:none;stroke:#000000;stroke-linecap:square;stroke-linejoin:miter;stroke-width:0.8;"/>
   </g>
   <g id="patch_4">
    <path d="M 643.68 448.56 
L 643.68 60.48 
" style="fill:none;stroke:#000000;stroke-linecap:square;stroke-linejoin:miter;stroke-width:0.8;"/>
   </g>
   <g id="patch_5">
    <path d="M 108 448.56 
L 643.68 448.56 
" style="fill:none;stroke:#000000;stroke-linecap:square;stroke-linejoin:miter;stroke-width:0.8;"/>
   </g>
   <g id="patch_6">
    <path d="M 108 60.48 
L 643.68 60.48 
" style="fill:none;stroke:#000000;stroke-linecap:square;stroke-linejoin:miter;stroke-width:0.8;"/>
   </g>
   <g id="text_31">
    <!-- unikernel_base - vmstat -->
    <g transform="translate(285.930234 54.48)scale(0.15 -0.15)">
     <defs>
      <path d="M 8.5 21.578125 
L 8.5 54.6875 
L 17.484375 54.6875 
L 17.484375 21.921875 
Q 17.484375 14.15625 20.5 10.265625 
Q 23.53125 6.390625 29.59375 6.390625 
Q 36.859375 6.390625 41.078125 11.03125 
Q 45.3125 15.671875 45.3125 23.6875 
L 45.3125 54.6875 
L 54.296875 54.6875 
L 54.296875 0 
L 45.3125 0 
L 45.3125 8.40625 
Q 42.046875 3.421875 37.71875 1 
Q 33.40625 -1.421875 27.6875 -1.421875 
Q 18.265625 -1.421875 13.375 4.4375 
Q 8.5 10.296875 8.5 21.578125 
z
M 31.109375 56 
z
" id="DejaVuSans-117"/>
      <path d="M 54.890625 33.015625 
L 54.890625 0 
L 45.90625 0 
L 45.90625 32.71875 
Q 45.90625 40.484375 42.875 44.328125 
Q 39.84375 48.1875 33.796875 48.1875 
Q 26.515625 48.1875 22.3125 43.546875 
Q 18.109375 38.921875 18.109375 30.90625 
L 18.109375 0 
L 9.078125 0 
L 9.078125 54.6875 
L 18.109375 54.6875 
L 18.109375 46.1875 
Q 21.34375 51.125 25.703125 53.5625 
Q 30.078125 56 35.796875 56 
Q 45.21875 56 50.046875 50.171875 
Q 54.890625 44.34375 54.890625 33.015625 
z
" id="DejaVuSans-110"/>
      <path d="M 9.078125 75.984375 
L 18.109375 75.984375 
L 18.109375 31.109375 
L 44.921875 54.6875 
L 56.390625 54.6875 
L 27.390625 29.109375 
L 57.625 0 
L 45.90625 0 
L 18.109375 26.703125 
L 18.109375 0 
L 9.078125 0 
z
" id="DejaVuSans-107"/>
      <path d="M 41.109375 46.296875 
Q 39.59375 47.171875 37.8125 47.578125 
Q 36.03125 48 33.890625 48 
Q 26.265625 48 22.1875 43.046875 
Q 18.109375 38.09375 18.109375 28.8125 
L 18.109375 0 
L 9.078125 0 
L 9.078125 54.6875 
L 18.109375 54.6875 
L 18.109375 46.1875 
Q 20.953125 51.171875 25.484375 53.578125 
Q 30.03125 56 36.53125 56 
Q 37.453125 56 38.578125 55.875 
Q 39.703125 55.765625 41.0625 55.515625 
z
" id="DejaVuSans-114"/>
      <path d="M 9.421875 75.984375 
L 18.40625 75.984375 
L 18.40625 0 
L 9.421875 0 
z
" id="DejaVuSans-108"/>
      <path d="M 50.984375 -16.609375 
L 50.984375 -23.578125 
L -0.984375 -23.578125 
L -0.984375 -16.609375 
z
" id="DejaVuSans-95"/>
      <path d="M 48.6875 27.296875 
Q 48.6875 37.203125 44.609375 42.84375 
Q 40.53125 48.484375 33.40625 48.484375 
Q 26.265625 48.484375 22.1875 42.84375 
Q 18.109375 37.203125 18.109375 27.296875 
Q 18.109375 17.390625 22.1875 11.75 
Q 26.265625 6.109375 33.40625 6.109375 
Q 40.53125 6.109375 44.609375 11.75 
Q 48.6875 17.390625 48.6875 27.296875 
z
M 18.109375 46.390625 
Q 20.953125 51.265625 25.265625 53.625 
Q 29.59375 56 35.59375 56 
Q 45.5625 56 51.78125 48.09375 
Q 58.015625 40.1875 58.015625 27.296875 
Q 58.015625 14.40625 51.78125 6.484375 
Q 45.5625 -1.421875 35.59375 -1.421875 
Q 29.59375 -1.421875 25.265625 0.953125 
Q 20.953125 3.328125 18.109375 8.203125 
L 18.109375 0 
L 9.078125 0 
L 9.078125 75.984375 
L 18.109375 75.984375 
z
" id="DejaVuSans-98"/>
      <path id="DejaVuSans-32"/>
      <path d="M 4.890625 31.390625 
L 31.203125 31.390625 
L 31.203125 23.390625 
L 4.890625 23.390625 
z
" id="DejaVuSans-45"/>
      <path d="M 2.984375 54.6875 
L 12.5 54.6875 
L 29.59375 8.796875 
L 46.6875 54.6875 
L 56.203125 54.6875 
L 35.6875 0 
L 23.484375 0 
z
" id="DejaVuSans-118"/>
     </defs>
     <use xlink:href="#DejaVuSans-117"/>
     <use x="63.378906" xlink:href="#DejaVuSans-110"/>
     <use x="126.757812" xlink:href="#DejaVuSans-105"/>
     <use x="154.541016" xlink:href="#DejaVuSans-107"/>
     <use x="208.826172" xlink:href="#DejaVuSans-101"/>
     <use x="270.349609" xlink:href="#DejaVuSans-114"/>
     <use x="309.712891" xlink:href="#DejaVuSans-110"/>
     <use x="373.091797" xlink:href="#DejaVuSans-101"/>
     <use x="434.615234" xlink:href="#DejaVuSans-108"/>
     <use x="462.398438" xlink:href="#DejaVuSans-95"/>
     <use x="512.398438" xlink:href="#DejaVuSans-98"/>
     <use x="575.875" xlink:href="#DejaVuSans-97"/>
     <use x="637.154297" xlink:href="#DejaVuSans-115"/>
     <use x="689.253906" xlink:href="#DejaVuSans-101"/>
     <use x="750.777344" xlink:href="#DejaVuSans-32"/>
     <use x="782.564453" xlink:href="#DejaVuSans-45"/>
     <use x="818.648438" xlink:href="#DejaVuSans-32"/>
     <use x="850.435547" xlink:href="#DejaVuSans-118"/>
     <use x="909.615234" xlink:href="#DejaVuSans-109"/>
     <use x="1007.027344" xlink:href="#DejaVuSans-115"/>
     <use x="1059.126953" xlink:href="#DejaVuSans-116"/>
     <use x="1098.335938" xlink:href="#DejaVuSans-97"/>
     <use x="1159.615234" xlink:href="#DejaVuSans-116"/>
    </g>
   </g>
   <g id="legend_1">
    <g id="patch_7">
     <path d="M 650.68 258.52 
L 654.68 258.52 
Q 656.68 258.52 656.68 256.52 
L 656.68 252.52 
Q 656.68 250.52 654.68 250.52 
L 650.68 250.52 
Q 648.68 250.52 648.68 252.52 
L 648.68 256.52 
Q 648.68 258.52 650.68 258.52 
z
" style="fill:#ffffff;opacity:0.8;stroke:#cccccc;stroke-linejoin:miter;"/>
    </g>
   </g>
  </g>
 </g>
 <defs>
  <clipPath id="pbc172645c6">
   <rect height="388.08" width="535.68" x="108" y="60.48"/>
  </clipPath>
 </defs>
</svg>
