<?xml version="1.0" encoding="utf-8" standalone="no"?>
<!DOCTYPE svg PUBLIC "-//W3C//DTD SVG 1.1//EN"
  "http://www.w3.org/Graphics/SVG/1.1/DTD/svg11.dtd">
<!-- Created with matplotlib (https://matplotlib.org/) -->
<svg height="504pt" version="1.1" viewBox="0 0 864 504" width="864pt" xmlns="http://www.w3.org/2000/svg" xmlns:xlink="http://www.w3.org/1999/xlink">
 <metadata>
  <rdf:RDF xmlns:cc="http://creativecommons.org/ns#" xmlns:dc="http://purl.org/dc/elements/1.1/" xmlns:rdf="http://www.w3.org/1999/02/22-rdf-syntax-ns#">
   <cc:Work>
    <dc:type rdf:resource="http://purl.org/dc/dcmitype/StillImage"/>
    <dc:date>2022-05-29T17:32:58.735196</dc:date>
    <dc:format>image/svg+xml</dc:format>
    <dc:creator>
     <cc:Agent>
      <dc:title>Matplotlib v3.3.4, https://matplotlib.org/</dc:title>
     </cc:Agent>
    </dc:creator>
   </cc:Work>
  </rdf:RDF>
 </metadata>
 <defs>
  <style type="text/css">*{stroke-linecap:butt;stroke-linejoin:round;}</style>
 </defs>
 <g id="figure_1">
  <g id="patch_1">
   <path d="M 0 504 
L 864 504 
L 864 0 
L 0 0 
z
" style="fill:#ffffff;"/>
  </g>
  <g id="axes_1">
   <g id="patch_2">
    <path d="M 108 448.56 
L 643.68 448.56 
L 643.68 60.48 
L 108 60.48 
z
" style="fill:#ffffff;"/>
   </g>
   <g id="matplotlib.axis_1">
    <g id="xtick_1">
     <g id="line2d_1">
      <defs>
       <path d="M 0 0 
L 0 3.5 
" id="maee2f6e0b6" style="stroke:#000000;stroke-width:0.8;"/>
      </defs>
      <g>
       <use style="stroke:#000000;stroke-width:0.8;" x="132.349091" xlink:href="#maee2f6e0b6" y="448.56"/>
      </g>
     </g>
     <g id="text_1">
      <!-- 0 -->
      <g transform="translate(135.108466 461.9225)rotate(-90)scale(0.1 -0.1)">
       <defs>
        <path d="M 31.78125 66.40625 
Q 24.171875 66.40625 20.328125 58.90625 
Q 16.5 51.421875 16.5 36.375 
Q 16.5 21.390625 20.328125 13.890625 
Q 24.171875 6.390625 31.78125 6.390625 
Q 39.453125 6.390625 43.28125 13.890625 
Q 47.125 21.390625 47.125 36.375 
Q 47.125 51.421875 43.28125 58.90625 
Q 39.453125 66.40625 31.78125 66.40625 
z
M 31.78125 74.21875 
Q 44.046875 74.21875 50.515625 64.515625 
Q 56.984375 54.828125 56.984375 36.375 
Q 56.984375 17.96875 50.515625 8.265625 
Q 44.046875 -1.421875 31.78125 -1.421875 
Q 19.53125 -1.421875 13.0625 8.265625 
Q 6.59375 17.96875 6.59375 36.375 
Q 6.59375 54.828125 13.0625 64.515625 
Q 19.53125 74.21875 31.78125 74.21875 
z
" id="DejaVuSans-48"/>
       </defs>
       <use xlink:href="#DejaVuSans-48"/>
      </g>
     </g>
    </g>
    <g id="xtick_2">
     <g id="line2d_2">
      <g>
       <use style="stroke:#000000;stroke-width:0.8;" x="154.894545" xlink:href="#maee2f6e0b6" y="448.56"/>
      </g>
     </g>
     <g id="text_2">
      <!-- 10 -->
      <g transform="translate(157.65392 468.285)rotate(-90)scale(0.1 -0.1)">
       <defs>
        <path d="M 12.40625 8.296875 
L 28.515625 8.296875 
L 28.515625 63.921875 
L 10.984375 60.40625 
L 10.984375 69.390625 
L 28.421875 72.90625 
L 38.28125 72.90625 
L 38.28125 8.296875 
L 54.390625 8.296875 
L 54.390625 0 
L 12.40625 0 
z
" id="DejaVuSans-49"/>
       </defs>
       <use xlink:href="#DejaVuSans-49"/>
       <use x="63.623047" xlink:href="#DejaVuSans-48"/>
      </g>
     </g>
    </g>
    <g id="xtick_3">
     <g id="line2d_3">
      <g>
       <use style="stroke:#000000;stroke-width:0.8;" x="177.44" xlink:href="#maee2f6e0b6" y="448.56"/>
      </g>
     </g>
     <g id="text_3">
      <!-- 20 -->
      <g transform="translate(180.199375 468.285)rotate(-90)scale(0.1 -0.1)">
       <defs>
        <path d="M 19.1875 8.296875 
L 53.609375 8.296875 
L 53.609375 0 
L 7.328125 0 
L 7.328125 8.296875 
Q 12.9375 14.109375 22.625 23.890625 
Q 32.328125 33.6875 34.8125 36.53125 
Q 39.546875 41.84375 41.421875 45.53125 
Q 43.3125 49.21875 43.3125 52.78125 
Q 43.3125 58.59375 39.234375 62.25 
Q 35.15625 65.921875 28.609375 65.921875 
Q 23.96875 65.921875 18.8125 64.3125 
Q 13.671875 62.703125 7.8125 59.421875 
L 7.8125 69.390625 
Q 13.765625 71.78125 18.9375 73 
Q 24.125 74.21875 28.421875 74.21875 
Q 39.75 74.21875 46.484375 68.546875 
Q 53.21875 62.890625 53.21875 53.421875 
Q 53.21875 48.921875 51.53125 44.890625 
Q 49.859375 40.875 45.40625 35.40625 
Q 44.1875 33.984375 37.640625 27.21875 
Q 31.109375 20.453125 19.1875 8.296875 
z
" id="DejaVuSans-50"/>
       </defs>
       <use xlink:href="#DejaVuSans-50"/>
       <use x="63.623047" xlink:href="#DejaVuSans-48"/>
      </g>
     </g>
    </g>
    <g id="xtick_4">
     <g id="line2d_4">
      <g>
       <use style="stroke:#000000;stroke-width:0.8;" x="199.985455" xlink:href="#maee2f6e0b6" y="448.56"/>
      </g>
     </g>
     <g id="text_4">
      <!-- 30 -->
      <g transform="translate(202.74483 468.285)rotate(-90)scale(0.1 -0.1)">
       <defs>
        <path d="M 40.578125 39.3125 
Q 47.65625 37.796875 51.625 33 
Q 55.609375 28.21875 55.609375 21.1875 
Q 55.609375 10.40625 48.1875 4.484375 
Q 40.765625 -1.421875 27.09375 -1.421875 
Q 22.515625 -1.421875 17.65625 -0.515625 
Q 12.796875 0.390625 7.625 2.203125 
L 7.625 11.71875 
Q 11.71875 9.328125 16.59375 8.109375 
Q 21.484375 6.890625 26.8125 6.890625 
Q 36.078125 6.890625 40.9375 10.546875 
Q 45.796875 14.203125 45.796875 21.1875 
Q 45.796875 27.640625 41.28125 31.265625 
Q 36.765625 34.90625 28.71875 34.90625 
L 20.21875 34.90625 
L 20.21875 43.015625 
L 29.109375 43.015625 
Q 36.375 43.015625 40.234375 45.921875 
Q 44.09375 48.828125 44.09375 54.296875 
Q 44.09375 59.90625 40.109375 62.90625 
Q 36.140625 65.921875 28.71875 65.921875 
Q 24.65625 65.921875 20.015625 65.03125 
Q 15.375 64.15625 9.8125 62.3125 
L 9.8125 71.09375 
Q 15.4375 72.65625 20.34375 73.4375 
Q 25.25 74.21875 29.59375 74.21875 
Q 40.828125 74.21875 47.359375 69.109375 
Q 53.90625 64.015625 53.90625 55.328125 
Q 53.90625 49.265625 50.4375 45.09375 
Q 46.96875 40.921875 40.578125 39.3125 
z
" id="DejaVuSans-51"/>
       </defs>
       <use xlink:href="#DejaVuSans-51"/>
       <use x="63.623047" xlink:href="#DejaVuSans-48"/>
      </g>
     </g>
    </g>
    <g id="xtick_5">
     <g id="line2d_5">
      <g>
       <use style="stroke:#000000;stroke-width:0.8;" x="222.530909" xlink:href="#maee2f6e0b6" y="448.56"/>
      </g>
     </g>
     <g id="text_5">
      <!-- 40 -->
      <g transform="translate(225.290284 468.285)rotate(-90)scale(0.1 -0.1)">
       <defs>
        <path d="M 37.796875 64.3125 
L 12.890625 25.390625 
L 37.796875 25.390625 
z
M 35.203125 72.90625 
L 47.609375 72.90625 
L 47.609375 25.390625 
L 58.015625 25.390625 
L 58.015625 17.1875 
L 47.609375 17.1875 
L 47.609375 0 
L 37.796875 0 
L 37.796875 17.1875 
L 4.890625 17.1875 
L 4.890625 26.703125 
z
" id="DejaVuSans-52"/>
       </defs>
       <use xlink:href="#DejaVuSans-52"/>
       <use x="63.623047" xlink:href="#DejaVuSans-48"/>
      </g>
     </g>
    </g>
    <g id="xtick_6">
     <g id="line2d_6">
      <g>
       <use style="stroke:#000000;stroke-width:0.8;" x="245.076364" xlink:href="#maee2f6e0b6" y="448.56"/>
      </g>
     </g>
     <g id="text_6">
      <!-- 50 -->
      <g transform="translate(247.835739 468.285)rotate(-90)scale(0.1 -0.1)">
       <defs>
        <path d="M 10.796875 72.90625 
L 49.515625 72.90625 
L 49.515625 64.59375 
L 19.828125 64.59375 
L 19.828125 46.734375 
Q 21.96875 47.46875 24.109375 47.828125 
Q 26.265625 48.1875 28.421875 48.1875 
Q 40.625 48.1875 47.75 41.5 
Q 54.890625 34.8125 54.890625 23.390625 
Q 54.890625 11.625 47.5625 5.09375 
Q 40.234375 -1.421875 26.90625 -1.421875 
Q 22.3125 -1.421875 17.546875 -0.640625 
Q 12.796875 0.140625 7.71875 1.703125 
L 7.71875 11.625 
Q 12.109375 9.234375 16.796875 8.0625 
Q 21.484375 6.890625 26.703125 6.890625 
Q 35.15625 6.890625 40.078125 11.328125 
Q 45.015625 15.765625 45.015625 23.390625 
Q 45.015625 31 40.078125 35.4375 
Q 35.15625 39.890625 26.703125 39.890625 
Q 22.75 39.890625 18.8125 39.015625 
Q 14.890625 38.140625 10.796875 36.28125 
z
" id="DejaVuSans-53"/>
       </defs>
       <use xlink:href="#DejaVuSans-53"/>
       <use x="63.623047" xlink:href="#DejaVuSans-48"/>
      </g>
     </g>
    </g>
    <g id="xtick_7">
     <g id="line2d_7">
      <g>
       <use style="stroke:#000000;stroke-width:0.8;" x="267.621818" xlink:href="#maee2f6e0b6" y="448.56"/>
      </g>
     </g>
     <g id="text_7">
      <!-- 60 -->
      <g transform="translate(270.381193 468.285)rotate(-90)scale(0.1 -0.1)">
       <defs>
        <path d="M 33.015625 40.375 
Q 26.375 40.375 22.484375 35.828125 
Q 18.609375 31.296875 18.609375 23.390625 
Q 18.609375 15.53125 22.484375 10.953125 
Q 26.375 6.390625 33.015625 6.390625 
Q 39.65625 6.390625 43.53125 10.953125 
Q 47.40625 15.53125 47.40625 23.390625 
Q 47.40625 31.296875 43.53125 35.828125 
Q 39.65625 40.375 33.015625 40.375 
z
M 52.59375 71.296875 
L 52.59375 62.3125 
Q 48.875 64.0625 45.09375 64.984375 
Q 41.3125 65.921875 37.59375 65.921875 
Q 27.828125 65.921875 22.671875 59.328125 
Q 17.53125 52.734375 16.796875 39.40625 
Q 19.671875 43.65625 24.015625 45.921875 
Q 28.375 48.1875 33.59375 48.1875 
Q 44.578125 48.1875 50.953125 41.515625 
Q 57.328125 34.859375 57.328125 23.390625 
Q 57.328125 12.15625 50.6875 5.359375 
Q 44.046875 -1.421875 33.015625 -1.421875 
Q 20.359375 -1.421875 13.671875 8.265625 
Q 6.984375 17.96875 6.984375 36.375 
Q 6.984375 53.65625 15.1875 63.9375 
Q 23.390625 74.21875 37.203125 74.21875 
Q 40.921875 74.21875 44.703125 73.484375 
Q 48.484375 72.75 52.59375 71.296875 
z
" id="DejaVuSans-54"/>
       </defs>
       <use xlink:href="#DejaVuSans-54"/>
       <use x="63.623047" xlink:href="#DejaVuSans-48"/>
      </g>
     </g>
    </g>
    <g id="xtick_8">
     <g id="line2d_8">
      <g>
       <use style="stroke:#000000;stroke-width:0.8;" x="290.167273" xlink:href="#maee2f6e0b6" y="448.56"/>
      </g>
     </g>
     <g id="text_8">
      <!-- 70 -->
      <g transform="translate(292.926648 468.285)rotate(-90)scale(0.1 -0.1)">
       <defs>
        <path d="M 8.203125 72.90625 
L 55.078125 72.90625 
L 55.078125 68.703125 
L 28.609375 0 
L 18.3125 0 
L 43.21875 64.59375 
L 8.203125 64.59375 
z
" id="DejaVuSans-55"/>
       </defs>
       <use xlink:href="#DejaVuSans-55"/>
       <use x="63.623047" xlink:href="#DejaVuSans-48"/>
      </g>
     </g>
    </g>
    <g id="xtick_9">
     <g id="line2d_9">
      <g>
       <use style="stroke:#000000;stroke-width:0.8;" x="312.712727" xlink:href="#maee2f6e0b6" y="448.56"/>
      </g>
     </g>
     <g id="text_9">
      <!-- 80 -->
      <g transform="translate(315.472102 468.285)rotate(-90)scale(0.1 -0.1)">
       <defs>
        <path d="M 31.78125 34.625 
Q 24.75 34.625 20.71875 30.859375 
Q 16.703125 27.09375 16.703125 20.515625 
Q 16.703125 13.921875 20.71875 10.15625 
Q 24.75 6.390625 31.78125 6.390625 
Q 38.8125 6.390625 42.859375 10.171875 
Q 46.921875 13.96875 46.921875 20.515625 
Q 46.921875 27.09375 42.890625 30.859375 
Q 38.875 34.625 31.78125 34.625 
z
M 21.921875 38.8125 
Q 15.578125 40.375 12.03125 44.71875 
Q 8.5 49.078125 8.5 55.328125 
Q 8.5 64.0625 14.71875 69.140625 
Q 20.953125 74.21875 31.78125 74.21875 
Q 42.671875 74.21875 48.875 69.140625 
Q 55.078125 64.0625 55.078125 55.328125 
Q 55.078125 49.078125 51.53125 44.71875 
Q 48 40.375 41.703125 38.8125 
Q 48.828125 37.15625 52.796875 32.3125 
Q 56.78125 27.484375 56.78125 20.515625 
Q 56.78125 9.90625 50.3125 4.234375 
Q 43.84375 -1.421875 31.78125 -1.421875 
Q 19.734375 -1.421875 13.25 4.234375 
Q 6.78125 9.90625 6.78125 20.515625 
Q 6.78125 27.484375 10.78125 32.3125 
Q 14.796875 37.15625 21.921875 38.8125 
z
M 18.3125 54.390625 
Q 18.3125 48.734375 21.84375 45.5625 
Q 25.390625 42.390625 31.78125 42.390625 
Q 38.140625 42.390625 41.71875 45.5625 
Q 45.3125 48.734375 45.3125 54.390625 
Q 45.3125 60.0625 41.71875 63.234375 
Q 38.140625 66.40625 31.78125 66.40625 
Q 25.390625 66.40625 21.84375 63.234375 
Q 18.3125 60.0625 18.3125 54.390625 
z
" id="DejaVuSans-56"/>
       </defs>
       <use xlink:href="#DejaVuSans-56"/>
       <use x="63.623047" xlink:href="#DejaVuSans-48"/>
      </g>
     </g>
    </g>
    <g id="xtick_10">
     <g id="line2d_10">
      <g>
       <use style="stroke:#000000;stroke-width:0.8;" x="335.258182" xlink:href="#maee2f6e0b6" y="448.56"/>
      </g>
     </g>
     <g id="text_10">
      <!-- 90 -->
      <g transform="translate(338.017557 468.285)rotate(-90)scale(0.1 -0.1)">
       <defs>
        <path d="M 10.984375 1.515625 
L 10.984375 10.5 
Q 14.703125 8.734375 18.5 7.8125 
Q 22.3125 6.890625 25.984375 6.890625 
Q 35.75 6.890625 40.890625 13.453125 
Q 46.046875 20.015625 46.78125 33.40625 
Q 43.953125 29.203125 39.59375 26.953125 
Q 35.25 24.703125 29.984375 24.703125 
Q 19.046875 24.703125 12.671875 31.3125 
Q 6.296875 37.9375 6.296875 49.421875 
Q 6.296875 60.640625 12.9375 67.421875 
Q 19.578125 74.21875 30.609375 74.21875 
Q 43.265625 74.21875 49.921875 64.515625 
Q 56.59375 54.828125 56.59375 36.375 
Q 56.59375 19.140625 48.40625 8.859375 
Q 40.234375 -1.421875 26.421875 -1.421875 
Q 22.703125 -1.421875 18.890625 -0.6875 
Q 15.09375 0.046875 10.984375 1.515625 
z
M 30.609375 32.421875 
Q 37.25 32.421875 41.125 36.953125 
Q 45.015625 41.5 45.015625 49.421875 
Q 45.015625 57.28125 41.125 61.84375 
Q 37.25 66.40625 30.609375 66.40625 
Q 23.96875 66.40625 20.09375 61.84375 
Q 16.21875 57.28125 16.21875 49.421875 
Q 16.21875 41.5 20.09375 36.953125 
Q 23.96875 32.421875 30.609375 32.421875 
z
" id="DejaVuSans-57"/>
       </defs>
       <use xlink:href="#DejaVuSans-57"/>
       <use x="63.623047" xlink:href="#DejaVuSans-48"/>
      </g>
     </g>
    </g>
    <g id="xtick_11">
     <g id="line2d_11">
      <g>
       <use style="stroke:#000000;stroke-width:0.8;" x="357.803636" xlink:href="#maee2f6e0b6" y="448.56"/>
      </g>
     </g>
     <g id="text_11">
      <!-- 100 -->
      <g transform="translate(360.563011 474.6475)rotate(-90)scale(0.1 -0.1)">
       <use xlink:href="#DejaVuSans-49"/>
       <use x="63.623047" xlink:href="#DejaVuSans-48"/>
       <use x="127.246094" xlink:href="#DejaVuSans-48"/>
      </g>
     </g>
    </g>
    <g id="xtick_12">
     <g id="line2d_12">
      <g>
       <use style="stroke:#000000;stroke-width:0.8;" x="380.349091" xlink:href="#maee2f6e0b6" y="448.56"/>
      </g>
     </g>
     <g id="text_12">
      <!-- 110 -->
      <g transform="translate(383.108466 474.6475)rotate(-90)scale(0.1 -0.1)">
       <use xlink:href="#DejaVuSans-49"/>
       <use x="63.623047" xlink:href="#DejaVuSans-49"/>
       <use x="127.246094" xlink:href="#DejaVuSans-48"/>
      </g>
     </g>
    </g>
    <g id="xtick_13">
     <g id="line2d_13">
      <g>
       <use style="stroke:#000000;stroke-width:0.8;" x="402.894545" xlink:href="#maee2f6e0b6" y="448.56"/>
      </g>
     </g>
     <g id="text_13">
      <!-- 120 -->
      <g transform="translate(405.65392 474.6475)rotate(-90)scale(0.1 -0.1)">
       <use xlink:href="#DejaVuSans-49"/>
       <use x="63.623047" xlink:href="#DejaVuSans-50"/>
       <use x="127.246094" xlink:href="#DejaVuSans-48"/>
      </g>
     </g>
    </g>
    <g id="xtick_14">
     <g id="line2d_14">
      <g>
       <use style="stroke:#000000;stroke-width:0.8;" x="425.44" xlink:href="#maee2f6e0b6" y="448.56"/>
      </g>
     </g>
     <g id="text_14">
      <!-- 130 -->
      <g transform="translate(428.199375 474.6475)rotate(-90)scale(0.1 -0.1)">
       <use xlink:href="#DejaVuSans-49"/>
       <use x="63.623047" xlink:href="#DejaVuSans-51"/>
       <use x="127.246094" xlink:href="#DejaVuSans-48"/>
      </g>
     </g>
    </g>
    <g id="xtick_15">
     <g id="line2d_15">
      <g>
       <use style="stroke:#000000;stroke-width:0.8;" x="447.985455" xlink:href="#maee2f6e0b6" y="448.56"/>
      </g>
     </g>
     <g id="text_15">
      <!-- 140 -->
      <g transform="translate(450.74483 474.6475)rotate(-90)scale(0.1 -0.1)">
       <use xlink:href="#DejaVuSans-49"/>
       <use x="63.623047" xlink:href="#DejaVuSans-52"/>
       <use x="127.246094" xlink:href="#DejaVuSans-48"/>
      </g>
     </g>
    </g>
    <g id="xtick_16">
     <g id="line2d_16">
      <g>
       <use style="stroke:#000000;stroke-width:0.8;" x="470.530909" xlink:href="#maee2f6e0b6" y="448.56"/>
      </g>
     </g>
     <g id="text_16">
      <!-- 150 -->
      <g transform="translate(473.290284 474.6475)rotate(-90)scale(0.1 -0.1)">
       <use xlink:href="#DejaVuSans-49"/>
       <use x="63.623047" xlink:href="#DejaVuSans-53"/>
       <use x="127.246094" xlink:href="#DejaVuSans-48"/>
      </g>
     </g>
    </g>
    <g id="xtick_17">
     <g id="line2d_17">
      <g>
       <use style="stroke:#000000;stroke-width:0.8;" x="493.076364" xlink:href="#maee2f6e0b6" y="448.56"/>
      </g>
     </g>
     <g id="text_17">
      <!-- 160 -->
      <g transform="translate(495.835739 474.6475)rotate(-90)scale(0.1 -0.1)">
       <use xlink:href="#DejaVuSans-49"/>
       <use x="63.623047" xlink:href="#DejaVuSans-54"/>
       <use x="127.246094" xlink:href="#DejaVuSans-48"/>
      </g>
     </g>
    </g>
    <g id="xtick_18">
     <g id="line2d_18">
      <g>
       <use style="stroke:#000000;stroke-width:0.8;" x="515.621818" xlink:href="#maee2f6e0b6" y="448.56"/>
      </g>
     </g>
     <g id="text_18">
      <!-- 170 -->
      <g transform="translate(518.381193 474.6475)rotate(-90)scale(0.1 -0.1)">
       <use xlink:href="#DejaVuSans-49"/>
       <use x="63.623047" xlink:href="#DejaVuSans-55"/>
       <use x="127.246094" xlink:href="#DejaVuSans-48"/>
      </g>
     </g>
    </g>
    <g id="xtick_19">
     <g id="line2d_19">
      <g>
       <use style="stroke:#000000;stroke-width:0.8;" x="538.167273" xlink:href="#maee2f6e0b6" y="448.56"/>
      </g>
     </g>
     <g id="text_19">
      <!-- 180 -->
      <g transform="translate(540.926648 474.6475)rotate(-90)scale(0.1 -0.1)">
       <use xlink:href="#DejaVuSans-49"/>
       <use x="63.623047" xlink:href="#DejaVuSans-56"/>
       <use x="127.246094" xlink:href="#DejaVuSans-48"/>
      </g>
     </g>
    </g>
    <g id="xtick_20">
     <g id="line2d_20">
      <g>
       <use style="stroke:#000000;stroke-width:0.8;" x="560.712727" xlink:href="#maee2f6e0b6" y="448.56"/>
      </g>
     </g>
     <g id="text_20">
      <!-- 190 -->
      <g transform="translate(563.472102 474.6475)rotate(-90)scale(0.1 -0.1)">
       <use xlink:href="#DejaVuSans-49"/>
       <use x="63.623047" xlink:href="#DejaVuSans-57"/>
       <use x="127.246094" xlink:href="#DejaVuSans-48"/>
      </g>
     </g>
    </g>
    <g id="xtick_21">
     <g id="line2d_21">
      <g>
       <use style="stroke:#000000;stroke-width:0.8;" x="583.258182" xlink:href="#maee2f6e0b6" y="448.56"/>
      </g>
     </g>
     <g id="text_21">
      <!-- 200 -->
      <g transform="translate(586.017557 474.6475)rotate(-90)scale(0.1 -0.1)">
       <use xlink:href="#DejaVuSans-50"/>
       <use x="63.623047" xlink:href="#DejaVuSans-48"/>
       <use x="127.246094" xlink:href="#DejaVuSans-48"/>
      </g>
     </g>
    </g>
    <g id="xtick_22">
     <g id="line2d_22">
      <g>
       <use style="stroke:#000000;stroke-width:0.8;" x="605.803636" xlink:href="#maee2f6e0b6" y="448.56"/>
      </g>
     </g>
     <g id="text_22">
      <!-- 210 -->
      <g transform="translate(608.563011 474.6475)rotate(-90)scale(0.1 -0.1)">
       <use xlink:href="#DejaVuSans-50"/>
       <use x="63.623047" xlink:href="#DejaVuSans-49"/>
       <use x="127.246094" xlink:href="#DejaVuSans-48"/>
      </g>
     </g>
    </g>
    <g id="text_23">
     <!-- seconds -->
     <g transform="translate(359.49 484.72625)scale(0.08 -0.08)">
      <defs>
       <path d="M 44.28125 53.078125 
L 44.28125 44.578125 
Q 40.484375 46.53125 36.375 47.5 
Q 32.28125 48.484375 27.875 48.484375 
Q 21.1875 48.484375 17.84375 46.4375 
Q 14.5 44.390625 14.5 40.28125 
Q 14.5 37.15625 16.890625 35.375 
Q 19.28125 33.59375 26.515625 31.984375 
L 29.59375 31.296875 
Q 39.15625 29.25 43.1875 25.515625 
Q 47.21875 21.78125 47.21875 15.09375 
Q 47.21875 7.46875 41.1875 3.015625 
Q 35.15625 -1.421875 24.609375 -1.421875 
Q 20.21875 -1.421875 15.453125 -0.5625 
Q 10.6875 0.296875 5.421875 2 
L 5.421875 11.28125 
Q 10.40625 8.6875 15.234375 7.390625 
Q 20.0625 6.109375 24.8125 6.109375 
Q 31.15625 6.109375 34.5625 8.28125 
Q 37.984375 10.453125 37.984375 14.40625 
Q 37.984375 18.0625 35.515625 20.015625 
Q 33.0625 21.96875 24.703125 23.78125 
L 21.578125 24.515625 
Q 13.234375 26.265625 9.515625 29.90625 
Q 5.8125 33.546875 5.8125 39.890625 
Q 5.8125 47.609375 11.28125 51.796875 
Q 16.75 56 26.8125 56 
Q 31.78125 56 36.171875 55.265625 
Q 40.578125 54.546875 44.28125 53.078125 
z
" id="DejaVuSans-115"/>
       <path d="M 56.203125 29.59375 
L 56.203125 25.203125 
L 14.890625 25.203125 
Q 15.484375 15.921875 20.484375 11.0625 
Q 25.484375 6.203125 34.421875 6.203125 
Q 39.59375 6.203125 44.453125 7.46875 
Q 49.3125 8.734375 54.109375 11.28125 
L 54.109375 2.78125 
Q 49.265625 0.734375 44.1875 -0.34375 
Q 39.109375 -1.421875 33.890625 -1.421875 
Q 20.796875 -1.421875 13.15625 6.1875 
Q 5.515625 13.8125 5.515625 26.8125 
Q 5.515625 40.234375 12.765625 48.109375 
Q 20.015625 56 32.328125 56 
Q 43.359375 56 49.78125 48.890625 
Q 56.203125 41.796875 56.203125 29.59375 
z
M 47.21875 32.234375 
Q 47.125 39.59375 43.09375 43.984375 
Q 39.0625 48.390625 32.421875 48.390625 
Q 24.90625 48.390625 20.390625 44.140625 
Q 15.875 39.890625 15.1875 32.171875 
z
" id="DejaVuSans-101"/>
       <path d="M 48.78125 52.59375 
L 48.78125 44.1875 
Q 44.96875 46.296875 41.140625 47.34375 
Q 37.3125 48.390625 33.40625 48.390625 
Q 24.65625 48.390625 19.8125 42.84375 
Q 14.984375 37.3125 14.984375 27.296875 
Q 14.984375 17.28125 19.8125 11.734375 
Q 24.65625 6.203125 33.40625 6.203125 
Q 37.3125 6.203125 41.140625 7.25 
Q 44.96875 8.296875 48.78125 10.40625 
L 48.78125 2.09375 
Q 45.015625 0.34375 40.984375 -0.53125 
Q 36.96875 -1.421875 32.421875 -1.421875 
Q 20.0625 -1.421875 12.78125 6.34375 
Q 5.515625 14.109375 5.515625 27.296875 
Q 5.515625 40.671875 12.859375 48.328125 
Q 20.21875 56 33.015625 56 
Q 37.15625 56 41.109375 55.140625 
Q 45.0625 54.296875 48.78125 52.59375 
z
" id="DejaVuSans-99"/>
       <path d="M 30.609375 48.390625 
Q 23.390625 48.390625 19.1875 42.75 
Q 14.984375 37.109375 14.984375 27.296875 
Q 14.984375 17.484375 19.15625 11.84375 
Q 23.34375 6.203125 30.609375 6.203125 
Q 37.796875 6.203125 41.984375 11.859375 
Q 46.1875 17.53125 46.1875 27.296875 
Q 46.1875 37.015625 41.984375 42.703125 
Q 37.796875 48.390625 30.609375 48.390625 
z
M 30.609375 56 
Q 42.328125 56 49.015625 48.375 
Q 55.71875 40.765625 55.71875 27.296875 
Q 55.71875 13.875 49.015625 6.21875 
Q 42.328125 -1.421875 30.609375 -1.421875 
Q 18.84375 -1.421875 12.171875 6.21875 
Q 5.515625 13.875 5.515625 27.296875 
Q 5.515625 40.765625 12.171875 48.375 
Q 18.84375 56 30.609375 56 
z
" id="DejaVuSans-111"/>
       <path d="M 54.890625 33.015625 
L 54.890625 0 
L 45.90625 0 
L 45.90625 32.71875 
Q 45.90625 40.484375 42.875 44.328125 
Q 39.84375 48.1875 33.796875 48.1875 
Q 26.515625 48.1875 22.3125 43.546875 
Q 18.109375 38.921875 18.109375 30.90625 
L 18.109375 0 
L 9.078125 0 
L 9.078125 54.6875 
L 18.109375 54.6875 
L 18.109375 46.1875 
Q 21.34375 51.125 25.703125 53.5625 
Q 30.078125 56 35.796875 56 
Q 45.21875 56 50.046875 50.171875 
Q 54.890625 44.34375 54.890625 33.015625 
z
" id="DejaVuSans-110"/>
       <path d="M 45.40625 46.390625 
L 45.40625 75.984375 
L 54.390625 75.984375 
L 54.390625 0 
L 45.40625 0 
L 45.40625 8.203125 
Q 42.578125 3.328125 38.25 0.953125 
Q 33.9375 -1.421875 27.875 -1.421875 
Q 17.96875 -1.421875 11.734375 6.484375 
Q 5.515625 14.40625 5.515625 27.296875 
Q 5.515625 40.1875 11.734375 48.09375 
Q 17.96875 56 27.875 56 
Q 33.9375 56 38.25 53.625 
Q 42.578125 51.265625 45.40625 46.390625 
z
M 14.796875 27.296875 
Q 14.796875 17.390625 18.875 11.75 
Q 22.953125 6.109375 30.078125 6.109375 
Q 37.203125 6.109375 41.296875 11.75 
Q 45.40625 17.390625 45.40625 27.296875 
Q 45.40625 37.203125 41.296875 42.84375 
Q 37.203125 48.484375 30.078125 48.484375 
Q 22.953125 48.484375 18.875 42.84375 
Q 14.796875 37.203125 14.796875 27.296875 
z
" id="DejaVuSans-100"/>
      </defs>
      <use xlink:href="#DejaVuSans-115"/>
      <use x="52.099609" xlink:href="#DejaVuSans-101"/>
      <use x="113.623047" xlink:href="#DejaVuSans-99"/>
      <use x="168.603516" xlink:href="#DejaVuSans-111"/>
      <use x="229.785156" xlink:href="#DejaVuSans-110"/>
      <use x="293.164062" xlink:href="#DejaVuSans-100"/>
      <use x="356.640625" xlink:href="#DejaVuSans-115"/>
     </g>
    </g>
   </g>
   <g id="matplotlib.axis_2">
    <g id="ytick_1">
     <g id="line2d_23">
      <defs>
       <path d="M 0 0 
L -3.5 0 
" id="m0f14f268fa" style="stroke:#000000;stroke-width:0.8;"/>
      </defs>
      <g>
       <use style="stroke:#000000;stroke-width:0.8;" x="108" xlink:href="#m0f14f268fa" y="431.91253"/>
      </g>
     </g>
     <g id="text_24">
      <!-- 14450 -->
      <g transform="translate(69.1875 435.711749)scale(0.1 -0.1)">
       <use xlink:href="#DejaVuSans-49"/>
       <use x="63.623047" xlink:href="#DejaVuSans-52"/>
       <use x="127.246094" xlink:href="#DejaVuSans-52"/>
       <use x="190.869141" xlink:href="#DejaVuSans-53"/>
       <use x="254.492188" xlink:href="#DejaVuSans-48"/>
      </g>
     </g>
    </g>
    <g id="ytick_2">
     <g id="line2d_24">
      <g>
       <use style="stroke:#000000;stroke-width:0.8;" x="108" xlink:href="#m0f14f268fa" y="384.3936"/>
      </g>
     </g>
     <g id="text_25">
      <!-- 14500 -->
      <g transform="translate(69.1875 388.192819)scale(0.1 -0.1)">
       <use xlink:href="#DejaVuSans-49"/>
       <use x="63.623047" xlink:href="#DejaVuSans-52"/>
       <use x="127.246094" xlink:href="#DejaVuSans-53"/>
       <use x="190.869141" xlink:href="#DejaVuSans-48"/>
       <use x="254.492188" xlink:href="#DejaVuSans-48"/>
      </g>
     </g>
    </g>
    <g id="ytick_3">
     <g id="line2d_25">
      <g>
       <use style="stroke:#000000;stroke-width:0.8;" x="108" xlink:href="#m0f14f268fa" y="336.87467"/>
      </g>
     </g>
     <g id="text_26">
      <!-- 14550 -->
      <g transform="translate(69.1875 340.673889)scale(0.1 -0.1)">
       <use xlink:href="#DejaVuSans-49"/>
       <use x="63.623047" xlink:href="#DejaVuSans-52"/>
       <use x="127.246094" xlink:href="#DejaVuSans-53"/>
       <use x="190.869141" xlink:href="#DejaVuSans-53"/>
       <use x="254.492188" xlink:href="#DejaVuSans-48"/>
      </g>
     </g>
    </g>
    <g id="ytick_4">
     <g id="line2d_26">
      <g>
       <use style="stroke:#000000;stroke-width:0.8;" x="108" xlink:href="#m0f14f268fa" y="289.35574"/>
      </g>
     </g>
     <g id="text_27">
      <!-- 14600 -->
      <g transform="translate(69.1875 293.154959)scale(0.1 -0.1)">
       <use xlink:href="#DejaVuSans-49"/>
       <use x="63.623047" xlink:href="#DejaVuSans-52"/>
       <use x="127.246094" xlink:href="#DejaVuSans-54"/>
       <use x="190.869141" xlink:href="#DejaVuSans-48"/>
       <use x="254.492188" xlink:href="#DejaVuSans-48"/>
      </g>
     </g>
    </g>
    <g id="ytick_5">
     <g id="line2d_27">
      <g>
       <use style="stroke:#000000;stroke-width:0.8;" x="108" xlink:href="#m0f14f268fa" y="241.83681"/>
      </g>
     </g>
     <g id="text_28">
      <!-- 14650 -->
      <g transform="translate(69.1875 245.636029)scale(0.1 -0.1)">
       <use xlink:href="#DejaVuSans-49"/>
       <use x="63.623047" xlink:href="#DejaVuSans-52"/>
       <use x="127.246094" xlink:href="#DejaVuSans-54"/>
       <use x="190.869141" xlink:href="#DejaVuSans-53"/>
       <use x="254.492188" xlink:href="#DejaVuSans-48"/>
      </g>
     </g>
    </g>
    <g id="ytick_6">
     <g id="line2d_28">
      <g>
       <use style="stroke:#000000;stroke-width:0.8;" x="108" xlink:href="#m0f14f268fa" y="194.31788"/>
      </g>
     </g>
     <g id="text_29">
      <!-- 14700 -->
      <g transform="translate(69.1875 198.117099)scale(0.1 -0.1)">
       <use xlink:href="#DejaVuSans-49"/>
       <use x="63.623047" xlink:href="#DejaVuSans-52"/>
       <use x="127.246094" xlink:href="#DejaVuSans-55"/>
       <use x="190.869141" xlink:href="#DejaVuSans-48"/>
       <use x="254.492188" xlink:href="#DejaVuSans-48"/>
      </g>
     </g>
    </g>
    <g id="ytick_7">
     <g id="line2d_29">
      <g>
       <use style="stroke:#000000;stroke-width:0.8;" x="108" xlink:href="#m0f14f268fa" y="146.79895"/>
      </g>
     </g>
     <g id="text_30">
      <!-- 14750 -->
      <g transform="translate(69.1875 150.598169)scale(0.1 -0.1)">
       <use xlink:href="#DejaVuSans-49"/>
       <use x="63.623047" xlink:href="#DejaVuSans-52"/>
       <use x="127.246094" xlink:href="#DejaVuSans-55"/>
       <use x="190.869141" xlink:href="#DejaVuSans-53"/>
       <use x="254.492188" xlink:href="#DejaVuSans-48"/>
      </g>
     </g>
    </g>
    <g id="ytick_8">
     <g id="line2d_30">
      <g>
       <use style="stroke:#000000;stroke-width:0.8;" x="108" xlink:href="#m0f14f268fa" y="99.28002"/>
      </g>
     </g>
     <g id="text_31">
      <!-- 14800 -->
      <g transform="translate(69.1875 103.079239)scale(0.1 -0.1)">
       <use xlink:href="#DejaVuSans-49"/>
       <use x="63.623047" xlink:href="#DejaVuSans-52"/>
       <use x="127.246094" xlink:href="#DejaVuSans-56"/>
       <use x="190.869141" xlink:href="#DejaVuSans-48"/>
       <use x="254.492188" xlink:href="#DejaVuSans-48"/>
      </g>
     </g>
    </g>
    <g id="text_32">
     <!-- MB -->
     <g transform="translate(63.52375 260.715625)rotate(-90)scale(0.08 -0.08)">
      <defs>
       <path d="M 9.8125 72.90625 
L 24.515625 72.90625 
L 43.109375 23.296875 
L 61.8125 72.90625 
L 76.515625 72.90625 
L 76.515625 0 
L 66.890625 0 
L 66.890625 64.015625 
L 48.09375 14.015625 
L 38.1875 14.015625 
L 19.390625 64.015625 
L 19.390625 0 
L 9.8125 0 
z
" id="DejaVuSans-77"/>
       <path d="M 19.671875 34.8125 
L 19.671875 8.109375 
L 35.5 8.109375 
Q 43.453125 8.109375 47.28125 11.40625 
Q 51.125 14.703125 51.125 21.484375 
Q 51.125 28.328125 47.28125 31.5625 
Q 43.453125 34.8125 35.5 34.8125 
z
M 19.671875 64.796875 
L 19.671875 42.828125 
L 34.28125 42.828125 
Q 41.5 42.828125 45.03125 45.53125 
Q 48.578125 48.25 48.578125 53.8125 
Q 48.578125 59.328125 45.03125 62.0625 
Q 41.5 64.796875 34.28125 64.796875 
z
M 9.8125 72.90625 
L 35.015625 72.90625 
Q 46.296875 72.90625 52.390625 68.21875 
Q 58.5 63.53125 58.5 54.890625 
Q 58.5 48.1875 55.375 44.234375 
Q 52.25 40.28125 46.1875 39.3125 
Q 53.46875 37.75 57.5 32.78125 
Q 61.53125 27.828125 61.53125 20.40625 
Q 61.53125 10.640625 54.890625 5.3125 
Q 48.25 0 35.984375 0 
L 9.8125 0 
z
" id="DejaVuSans-66"/>
      </defs>
      <use xlink:href="#DejaVuSans-77"/>
      <use x="86.279297" xlink:href="#DejaVuSans-66"/>
     </g>
    </g>
   </g>
   <g id="line2d_31">
    <path clip-path="url(#pefc8b6bdd5)" d="M 132.349091 139.12719 
L 134.603636 137.433843 
L 136.858182 152.64282 
L 139.112727 196.206594 
L 141.367273 201.477378 
L 143.621818 199.939742 
L 145.876364 188.740298 
L 148.130909 169.86435 
L 150.385455 167.240636 
L 152.64 167.789513 
L 154.894545 159.863873 
L 157.149091 156.523893 
L 159.403636 157.60997 
L 161.658182 158.119921 
L 163.912727 159.202105 
L 166.167273 159.61863 
L 168.421818 143.136723 
L 170.676364 143.479285 
L 172.930909 142.105144 
L 175.185455 137.85426 
L 177.44 138.4771 
L 179.694545 143.160079 
L 181.949091 142.124608 
L 184.203636 141.820973 
L 186.458182 138.656167 
L 188.712727 137.589553 
L 190.967273 136.791539 
L 193.221818 137.702443 
L 195.476364 137.180814 
L 197.730909 133.560556 
L 199.985455 151.619027 
L 202.24 163.997974 
L 204.494545 160.657994 
L 206.749091 159.015253 
L 209.003636 156.107368 
L 211.258182 156.753565 
L 213.512727 155.27432 
L 215.767273 154.38288 
L 218.021818 151.498352 
L 220.276364 153.682185 
L 222.530909 154.939543 
L 224.785455 140.956783 
L 227.04 140.228838 
L 229.294545 138.609454 
L 231.549091 136.293267 
L 233.803636 136.912214 
L 236.058182 144.56147 
L 238.312727 142.801946 
L 240.567273 137.492234 
L 242.821818 135.701569 
L 247.330909 133.922582 
L 249.585455 133.973188 
L 251.84 133.412632 
L 254.094545 133.58002 
L 256.349091 150.019106 
L 258.603636 156.492751 
L 260.858182 156.617319 
L 263.112727 155.889374 
L 265.367273 154.172671 
L 267.621818 158.240596 
L 269.876364 152.747925 
L 272.130909 152.152334 
L 274.385455 153.433049 
L 276.64 152.526038 
L 278.894545 152.066693 
L 281.149091 162.771758 
L 283.403636 146.38717 
L 285.658182 142.899265 
L 287.912727 140.077021 
L 290.167273 139.294578 
L 292.421818 148.216763 
L 294.676364 144.53422 
L 296.930909 143.915273 
L 299.185455 140.738788 
L 301.44 140.836107 
L 303.694545 138.784628 
L 305.949091 139.177795 
L 308.203636 141.536802 
L 310.458182 141.22149 
L 312.712727 140.754359 
L 314.967273 142.1285 
L 317.221818 142.256961 
L 319.476364 159.381172 
L 321.730909 157.757895 
L 323.985455 157.781251 
L 326.24 156.16576 
L 328.494545 153.475869 
L 330.749091 152.187368 
L 333.003636 151.895412 
L 335.258182 153.316266 
L 337.512727 152.82578 
L 339.767273 151.984945 
L 342.021818 152.276902 
L 344.276364 141.692512 
L 346.530909 139.999166 
L 348.785455 138.644489 
L 351.04 135.242224 
L 353.294545 135.678213 
L 355.549091 144.207229 
L 357.803636 142.140179 
L 360.058182 141.548481 
L 362.312727 138.558848 
L 364.567273 138.885839 
L 366.821818 138.990943 
L 369.076364 139.243972 
L 371.330909 141.15142 
L 373.585455 140.886713 
L 375.84 155.679166 
L 378.094545 161.10566 
L 380.349091 161.452115 
L 382.603636 160.739742 
L 384.858182 156.87424 
L 387.112727 156.360397 
L 389.367273 156.948203 
L 391.621818 158.489732 
L 393.876364 156.850884 
L 398.385455 156.753565 
L 400.64 148.263476 
L 402.894545 144.09434 
L 405.149091 141.918292 
L 407.403636 137.102959 
L 409.658182 137.725799 
L 411.912727 148.026018 
L 414.167273 146.865978 
L 416.421818 143.588282 
L 418.676364 138.150109 
L 423.185455 138.270785 
L 425.44 140.481867 
L 427.694545 140.197696 
L 429.949091 136.729255 
L 432.203636 152.802423 
L 434.458182 161.973744 
L 436.712727 160.66578 
L 438.967273 158.298987 
L 441.221818 156.702959 
L 443.476364 154.865581 
L 445.730909 166.680079 
L 447.985455 167.517021 
L 450.24 168.891162 
L 452.494545 167.735015 
L 454.749091 157.874677 
L 457.003636 156.679603 
L 459.258182 147.780775 
L 461.512727 144.152731 
L 466.021818 138.66006 
L 468.276364 139.2829 
L 470.530909 147.045045 
L 472.785455 146.42999 
L 475.04 144.64711 
L 477.294545 142.245283 
L 479.549091 142.661807 
L 484.058182 141.217597 
L 486.312727 140.766038 
L 488.567273 142.070109 
L 490.821818 161.253585 
L 493.076364 161.350904 
L 495.330909 161.60004 
L 497.585455 161.191301 
L 499.84 158.112135 
L 504.349091 153.95857 
L 506.603636 155.951658 
L 508.858182 155.570169 
L 511.112727 156.119047 
L 513.367273 151.007865 
L 515.621818 164.772632 
L 517.876364 147.870308 
L 520.130909 146.624628 
L 522.385455 142.626773 
L 524.64 144.308441 
L 526.894545 149.341768 
L 529.149091 148.497041 
L 531.403636 148.092195 
L 533.658182 145.853863 
L 535.912727 144.456365 
L 538.167273 142.720199 
L 540.421818 142.319245 
L 542.676364 142.233605 
L 547.185455 142.696842 
L 549.44 159.552453 
L 551.694545 160.354359 
L 553.949091 160.035154 
L 556.203636 156.952095 
L 558.458182 152.385899 
L 560.712727 153.405799 
L 562.967273 153.849573 
L 565.221818 154.055889 
L 567.476364 152.701212 
L 569.730909 150.361668 
L 571.985455 152.533823 
L 574.24 152.280794 
L 576.494545 146.632413 
L 578.749091 145.877219 
L 581.003636 144.433009 
L 583.258182 140.894499 
L 585.512727 141.996147 
L 587.767273 155.644131 
L 590.021818 152.607786 
L 592.276364 151.533386 
L 594.530909 146.947726 
L 596.785455 148.236226 
L 599.04 145.729295 
L 601.294545 147.204647 
L 603.549091 178.124767 
L 605.803636 175.364806 
L 608.058182 159.638093 
L 610.312727 133.638411 
L 612.567273 109.386574 
L 612.567273 109.386574 
" style="fill:none;stroke:#1f77b4;stroke-linecap:square;stroke-width:1.5;"/>
   </g>
   <g id="line2d_32">
    <path clip-path="url(#pefc8b6bdd5)" d="M 132.349091 252.332274 
L 134.603636 257.330566 
L 136.858182 255.442582 
L 139.112727 250.619464 
L 141.367273 251.522582 
L 143.621818 249.953803 
L 145.876364 251.035988 
L 148.130909 244.89712 
L 150.385455 246.033803 
L 152.64 246.79289 
L 154.894545 251.312373 
L 157.149091 250.942562 
L 159.403636 252.048103 
L 161.658182 257.042502 
L 163.912727 275.972949 
L 166.167273 280.282224 
L 168.421818 315.589474 
L 170.676364 331.94292 
L 172.930909 344.267368 
L 175.185455 360.324965 
L 177.44 387.535293 
L 179.694545 405.114955 
L 181.949091 400.587686 
L 184.203636 398.287071 
L 186.458182 399.637855 
L 188.712727 399.046157 
L 190.967273 397.652552 
L 193.221818 394.215253 
L 195.476364 396.909037 
L 197.730909 397.781013 
L 199.985455 404.383118 
L 202.24 401.327309 
L 204.494545 401.595909 
L 206.749091 401.576445 
L 209.003636 402.101966 
L 211.258182 401.265025 
L 213.512727 403.487786 
L 215.767273 397.193208 
L 218.021818 398.695809 
L 220.276364 392.996822 
L 222.530909 396.659901 
L 224.785455 397.547448 
L 227.04 397.886117 
L 229.294545 397.099782 
L 231.549091 397.983436 
L 233.803636 405.916862 
L 236.058182 404.869712 
L 238.312727 404.480437 
L 240.567273 403.265899 
L 242.821818 405.122741 
L 245.076364 403.355432 
L 247.330909 398.956624 
L 249.585455 400.054379 
L 251.84 400.346336 
L 254.094545 399.898669 
L 256.349091 399.848064 
L 258.603636 401.062602 
L 260.858182 401.101529 
L 263.112727 400.167269 
L 265.367273 402.063039 
L 267.621818 402.713128 
L 269.876364 405.46141 
L 272.130909 409.657795 
L 274.385455 407.127507 
L 276.64 402.296604 
L 278.894545 406.668163 
L 281.149091 405.130526 
L 283.403636 404.028878 
L 285.658182 403.697994 
L 287.912727 401.366236 
L 290.167273 405.792294 
L 292.421818 405.663833 
L 294.676364 404.453188 
L 296.930909 406.430705 
L 299.185455 409.653903 
L 301.44 404.14566 
L 303.694545 406.130963 
L 305.949091 407.049652 
L 308.203636 408.322582 
L 310.458182 412.059623 
L 312.712727 408.077339 
L 314.967273 409.4943 
L 317.221818 409.163416 
L 319.476364 406.496882 
L 321.730909 411.082542 
L 323.985455 410.222244 
L 326.24 409.007706 
L 328.494545 404.95146 
L 330.749091 405.465303 
L 333.003636 420.903952 
L 335.258182 424.158292 
L 337.512727 419.603774 
L 339.767273 421.612433 
L 342.021818 413.270268 
L 344.276364 412.713605 
L 346.530909 421.487865 
L 348.785455 423.317458 
L 351.04 421.628004 
L 353.294545 412.997776 
L 355.549091 417.100735 
L 357.803636 423.266852 
L 360.058182 420.643138 
L 362.312727 412.83428 
L 364.567273 410.837299 
L 366.821818 413.893108 
L 369.076364 410.73998 
L 371.330909 409.502085 
L 373.585455 406.948441 
L 375.84 408.271976 
L 378.094545 409.751221 
L 380.349091 409.794042 
L 382.603636 408.061768 
L 384.858182 410.257279 
L 387.112727 409.132274 
L 389.367273 406.644806 
L 391.621818 403.838133 
L 393.876364 406.286673 
L 396.130909 405.332949 
L 398.385455 407.006832 
L 400.64 406.446276 
L 402.894545 408.431579 
L 405.149091 406.964012 
L 407.403636 408.159086 
L 409.658182 405.181132 
L 411.912727 407.08858 
L 414.167273 408.844211 
L 416.421818 407.466177 
L 418.676364 405.19281 
L 420.930909 407.080794 
L 423.185455 407.252075 
L 425.44 409.809613 
L 427.694545 406.434598 
L 429.949091 407.376643 
L 432.203636 408.622324 
L 434.458182 412.803138 
L 436.712727 410.331241 
L 438.967273 412.312651 
L 441.221818 409.739543 
L 443.476364 405.73001 
L 445.730909 405.889613 
L 447.985455 408.077339 
L 450.24 406.629235 
L 452.494545 407.497319 
L 454.749091 404.188481 
L 457.003636 408.143515 
L 459.258182 408.669037 
L 461.512727 407.104151 
L 463.767273 409.116703 
L 466.021818 407.851559 
L 468.276364 411.323893 
L 470.530909 411.222681 
L 472.785455 407.55571 
L 475.04 406.81998 
L 479.549091 401.514161 
L 481.803636 397.473486 
L 484.058182 398.715273 
L 486.312727 401.424628 
L 488.567273 401.315631 
L 490.821818 389.571202 
L 493.076364 391.050447 
L 495.330909 391.490328 
L 497.585455 393.872691 
L 499.84 394.0829 
L 502.094545 393.841549 
L 504.349091 389.804767 
L 506.603636 391.077696 
L 508.858182 388.765402 
L 511.112727 389.789196 
L 513.367273 392.019742 
L 515.621818 390.369215 
L 517.876364 388.500695 
L 520.130909 388.753724 
L 522.385455 393.487309 
L 524.64 394.79138 
L 526.894545 389.423277 
L 529.149091 390.116187 
L 531.403636 391.844568 
L 533.658182 390.497676 
L 535.912727 386.842383 
L 538.167273 389.968262 
L 540.421818 389.388242 
L 542.676364 392.011956 
L 544.930909 387.138232 
L 547.185455 386.457001 
L 551.694545 389.255889 
L 553.949091 385.433208 
L 556.203636 390.415929 
L 558.458182 390.384786 
L 560.712727 389.867051 
L 562.967273 386.963059 
L 565.221818 386.678888 
L 567.476364 387.068163 
L 569.730909 385.982085 
L 571.985455 384.171956 
L 574.24 387.033128 
L 576.494545 385.838054 
L 578.749091 391.529255 
L 581.003636 388.882185 
L 583.258182 388.835472 
L 585.512727 390.556068 
L 587.767273 390.038332 
L 590.021818 386.188401 
L 592.276364 387.585899 
L 594.530909 388.730367 
L 601.294545 382.704389 
L 603.549091 384.257597 
L 605.803636 382.972989 
L 608.058182 382.494181 
L 610.312727 383.066415 
L 612.567273 416.376683 
L 614.821818 414.652195 
L 617.076364 87.482066 
L 619.330909 88.583714 
L 619.330909 88.583714 
" style="fill:none;stroke:#ff7f0e;stroke-linecap:square;stroke-width:1.5;"/>
   </g>
   <g id="line2d_33">
    <path clip-path="url(#pefc8b6bdd5)" d="M 132.349091 255.929176 
L 134.603636 255.080556 
L 136.858182 257.034717 
L 139.112727 258.428322 
L 141.367273 256.637656 
L 143.621818 259.825819 
L 145.876364 257.719841 
L 148.130909 259.919245 
L 150.385455 260.320199 
L 152.64 260.039921 
L 154.894545 261.994081 
L 157.149091 259.48715 
L 159.403636 266.571956 
L 161.658182 284.529215 
L 163.912727 287.374816 
L 166.167273 324.040636 
L 168.421818 332.974499 
L 170.676364 355.073644 
L 172.930909 368.733307 
L 175.185455 383.514081 
L 177.44 400.949712 
L 179.694545 401.872294 
L 184.203636 402.288818 
L 186.458182 402.374459 
L 188.712727 401.681549 
L 190.967273 399.44711 
L 193.221818 407.236504 
L 195.476364 407.477855 
L 197.730909 408.933744 
L 199.985455 406.092036 
L 202.24 405.118848 
L 204.494545 408.131837 
L 206.749091 405.441946 
L 209.003636 406.080357 
L 211.258182 404.589434 
L 213.512727 404.036663 
L 215.767273 409.2257 
L 218.021818 408.408222 
L 220.276364 411.479603 
L 222.530909 412.589037 
L 224.785455 410.599841 
L 227.04 414.65998 
L 229.294545 412.694141 
L 233.803636 412.258153 
L 236.058182 414.052711 
L 238.312727 413.558332 
L 240.567273 414.406951 
L 242.821818 413.204091 
L 245.076364 413.001668 
L 247.330909 414.948044 
L 249.585455 416.48568 
L 254.094545 411.413426 
L 256.349091 409.73565 
L 258.603636 415.738272 
L 260.858182 414.874081 
L 265.367273 412.32433 
L 267.621818 410.868441 
L 269.876364 413.780218 
L 272.130909 412.939384 
L 274.385455 412.655214 
L 276.64 412.818709 
L 278.894545 412.219225 
L 281.149091 416.999523 
L 283.403636 416.723138 
L 285.658182 418.615015 
L 287.912727 418.875829 
L 290.167273 418.101172 
L 294.676364 420.993486 
L 296.930909 417.174697 
L 299.185455 415.189394 
L 301.44 412.075194 
L 303.694545 414.484806 
L 305.949091 415.528064 
L 308.203636 417.096842 
L 310.458182 412.838173 
L 312.712727 413.616723 
L 314.967273 416.466216 
L 317.221818 415.675988 
L 319.476364 411.911698 
L 321.730909 413.028918 
L 323.985455 412.845958 
L 326.24 423.979225 
L 328.494545 420.09426 
L 330.749091 420.538034 
L 333.003636 421.343833 
L 335.258182 416.022443 
L 339.767273 415.995194 
L 342.021818 417.0657 
L 344.276364 415.022006 
L 346.530909 412.195869 
L 348.785455 413.531082 
L 351.04 413.928143 
L 353.294545 414.846832 
L 355.549091 411.351142 
L 357.803636 411.43289 
L 360.058182 413.067845 
L 362.312727 412.620179 
L 364.567273 410.537557 
L 366.821818 409.467051 
L 369.076364 410.611519 
L 371.330909 417.369335 
L 373.585455 415.391817 
L 375.84 414.387488 
L 378.094545 413.92425 
L 380.349091 409.988679 
L 382.603636 411.654777 
L 384.858182 413.955392 
L 387.112727 414.477021 
L 389.367273 412.713605 
L 391.621818 413.6829 
L 393.876364 416.505144 
L 396.130909 420.098153 
L 398.385455 418.482661 
L 400.64 415.808342 
L 402.894545 412.592929 
L 405.149091 413.982642 
L 407.403636 428.381927 
L 409.658182 424.123257 
L 411.912727 424.364608 
L 414.167273 422.044528 
L 416.421818 415.500814 
L 418.676364 412.931599 
L 420.930909 414.527627 
L 423.185455 424.757776 
L 425.44 430.92 
L 427.694545 426.042383 
L 429.949091 413.83861 
L 432.203636 414.138352 
L 434.458182 414.239563 
L 436.712727 418.506018 
L 438.967273 417.287587 
L 441.221818 418.755154 
L 443.476364 417.739146 
L 445.730909 414.994757 
L 447.985455 417.330407 
L 450.24 418.560516 
L 452.494545 417.583436 
L 454.749091 414.73005 
L 457.003636 416.551857 
L 459.258182 417.925998 
L 461.512727 411.678133 
L 463.767273 407.676385 
L 466.021818 407.719206 
L 468.276364 407.995591 
L 470.530909 413.390943 
L 472.785455 412.040159 
L 475.04 410.919047 
L 477.294545 410.864548 
L 479.549091 410.078213 
L 481.803636 414.562661 
L 484.058182 411.767666 
L 488.567273 405.698868 
L 490.821818 401.821688 
L 493.076364 404.332512 
L 495.330909 405.274558 
L 497.585455 404.939782 
L 499.84 402.296604 
L 502.094545 404.165124 
L 504.349091 405.877934 
L 508.858182 404.939782 
L 511.112727 402.257676 
L 513.367273 401.366236 
L 515.621818 398.82427 
L 517.876364 397.921152 
L 520.130909 397.263277 
L 522.385455 396.757219 
L 524.64 397.839404 
L 526.894545 395.803496 
L 529.149091 398.146931 
L 531.403636 396.02149 
L 533.658182 393.405561 
L 535.912727 391.996385 
L 538.167273 400.677219 
L 540.421818 403.674638 
L 542.676364 403.425501 
L 544.930909 400.050487 
L 547.185455 398.306534 
L 549.44 400.953605 
L 551.694545 400.268481 
L 553.949091 397.290526 
L 556.203636 398.302642 
L 558.458182 398.691917 
L 560.712727 401.934578 
L 562.967273 400.132234 
L 565.221818 400.603257 
L 567.476364 401.303952 
L 569.730909 401.603694 
L 571.985455 392.34284 
L 574.24 390.618352 
L 578.749091 392.346733 
L 581.003636 396.453585 
L 583.258182 399.925919 
L 585.512727 398.86709 
L 587.767273 399.60282 
L 590.021818 397.956187 
L 592.276364 399.789672 
L 594.530909 400.237339 
L 596.785455 398.51285 
L 599.04 395.632214 
L 601.294545 394.577279 
L 603.549091 400.245124 
L 605.803636 414.909116 
L 608.058182 91.01279 
L 610.312727 94.940576 
L 612.567273 95.026216 
L 612.567273 95.026216 
" style="fill:none;stroke:#2ca02c;stroke-linecap:square;stroke-width:1.5;"/>
   </g>
   <g id="line2d_34">
    <path clip-path="url(#pefc8b6bdd5)" d="M 132.349091 250.164012 
L 134.603636 248.754836 
L 136.858182 245.029474 
L 139.112727 256.972433 
L 141.367273 258.541212 
L 143.621818 254.302006 
L 145.876364 251.273446 
L 148.130909 248.692552 
L 150.385455 248.525164 
L 152.64 251.654935 
L 154.894545 251.456405 
L 157.149091 250.75571 
L 159.403636 250.853029 
L 161.658182 260.183952 
L 163.912727 289.519722 
L 166.167273 328.381053 
L 168.421818 334.70288 
L 170.676364 348.926991 
L 172.930909 354.119921 
L 175.185455 382.264508 
L 177.44 392.739901 
L 179.694545 396.414657 
L 181.949091 390.240755 
L 184.203636 389.567309 
L 186.458182 393.436703 
L 188.712727 392.444052 
L 190.967273 391.828997 
L 193.221818 388.418947 
L 195.476364 388.313843 
L 197.730909 397.788798 
L 199.985455 397.496842 
L 202.24 396.80004 
L 204.494545 391.498113 
L 206.749091 390.09283 
L 209.003636 400.953605 
L 211.258182 396.613188 
L 213.512727 396.329017 
L 215.767273 390.859702 
L 218.021818 390.863595 
L 220.276364 395.632214 
L 222.530909 395.056087 
L 224.785455 391.572075 
L 227.04 388.967825 
L 229.294545 389.442741 
L 231.549091 397.636981 
L 233.803636 394.966554 
L 236.058182 395.737319 
L 238.312727 380.240278 
L 240.567273 378.519682 
L 242.821818 379.37998 
L 245.076364 379.251519 
L 247.330909 378.784389 
L 249.585455 375.257557 
L 251.84 375.109633 
L 254.094545 382.630427 
L 256.349091 382.513644 
L 258.603636 381.053863 
L 260.858182 375.168024 
L 263.112727 376.304707 
L 265.367273 388.142562 
L 267.621818 385.729057 
L 269.876364 384.966077 
L 272.130909 381.264071 
L 274.385455 388.952254 
L 276.64 398.376604 
L 278.894545 396.722185 
L 281.149091 395.822959 
L 283.403636 383.272731 
L 287.912727 389.789196 
L 290.167273 388.3372 
L 292.421818 383.658113 
L 294.676364 383.735968 
L 296.930909 384.506733 
L 299.185455 387.286157 
L 301.44 387.122661 
L 303.694545 384.654657 
L 305.949091 379.582403 
L 308.203636 386.889096 
L 310.458182 391.712214 
L 312.712727 396.184985 
L 314.967273 390.310824 
L 317.221818 388.356663 
L 319.476364 409.677259 
L 321.730909 414.554876 
L 323.985455 411.378391 
L 328.494545 391.817319 
L 330.749091 399.264151 
L 333.003636 398.205323 
L 335.258182 397.333347 
L 337.512727 391.486435 
L 339.767273 391.015412 
L 342.021818 397.018034 
L 344.276364 390.127865 
L 346.530909 390.05001 
L 351.04 384.794796 
L 353.294545 391.178908 
L 355.549091 392.747686 
L 357.803636 392.759364 
L 360.058182 386.437537 
L 362.312727 397.045283 
L 364.567273 405.877934 
L 366.821818 405.512016 
L 369.076364 402.518491 
L 371.330909 388.123098 
L 373.585455 389.150785 
L 375.84 394.094578 
L 378.094545 392.957895 
L 380.349091 392.109275 
L 382.603636 388.780973 
L 384.858182 389.434955 
L 387.112727 396.698828 
L 389.367273 396.543118 
L 391.621818 395.819067 
L 393.876364 393.767587 
L 396.130909 394.647349 
L 398.385455 395.184548 
L 400.64 396.037061 
L 402.894545 395.807388 
L 405.149091 392.206594 
L 407.403636 392.373982 
L 409.658182 395.293545 
L 411.912727 395.612751 
L 414.167273 392.206594 
L 416.421818 389.785303 
L 418.676364 389.146892 
L 420.930909 400.751182 
L 423.185455 397.609732 
L 425.44 397.683694 
L 427.694545 393.833764 
L 432.203636 396.547011 
L 436.712727 395.316902 
L 438.967273 392.362304 
L 441.221818 392.34284 
L 443.476364 396.196663 
L 445.730909 394.612314 
L 447.985455 394.051758 
L 450.24 390.143436 
L 452.494545 390.583317 
L 454.749091 392.712651 
L 457.003636 393.245958 
L 459.258182 390.63003 
L 461.512727 387.605362 
L 463.767273 387.75718 
L 466.021818 397.15428 
L 468.276364 393.331599 
L 470.530909 393.055214 
L 472.785455 391.36576 
L 475.04 387.780536 
L 477.294545 390.287468 
L 479.549091 388.703118 
L 481.803636 384.121351 
L 484.058182 383.3428 
L 486.312727 385.378709 
L 488.567273 386.449215 
L 490.821818 386.659424 
L 493.076364 384.716941 
L 495.330909 394.308679 
L 497.585455 398.47003 
L 499.84 401.9229 
L 502.094545 400.45144 
L 504.349091 385.203535 
L 506.603636 384.810367 
L 508.858182 389.477776 
L 511.112727 403.001192 
L 515.621818 397.547448 
L 517.876364 387.768858 
L 520.130909 386.367468 
L 522.385455 382.595392 
L 524.64 382.256723 
L 526.894545 377.056008 
L 529.149091 377.192254 
L 531.403636 382.926276 
L 533.658182 384.962185 
L 535.912727 385.055611 
L 538.167273 381.649454 
L 540.421818 380.831976 
L 542.676364 382.431897 
L 544.930909 383.159841 
L 547.185455 383.599722 
L 549.44 377.90852 
L 551.694545 378.508004 
L 553.949091 383.599722 
L 556.203636 383.576365 
L 558.458182 382.272294 
L 560.712727 378.301688 
L 562.967273 378.107051 
L 565.221818 385.596703 
L 567.476364 386.079404 
L 569.730909 385.141251 
L 571.985455 382.45136 
L 574.24 382.416326 
L 576.494545 383.510189 
L 578.749091 382.533108 
L 581.003636 381.867448 
L 583.258182 379.395551 
L 585.512727 376.145104 
L 587.767273 384.46002 
L 590.021818 385.370924 
L 592.276364 383.957855 
L 594.530909 376.943118 
L 596.785455 376.900298 
L 599.04 379.924965 
L 601.294545 378.986812 
L 603.549091 379.278769 
L 605.803636 78.12 
L 608.058182 78.735055 
L 608.058182 78.735055 
" style="fill:none;stroke:#d62728;stroke-linecap:square;stroke-width:1.5;"/>
   </g>
   <g id="line2d_35">
    <path clip-path="url(#pefc8b6bdd5)" d="M 132.349091 253.667488 
L 134.603636 253.850447 
L 136.858182 258.167507 
L 139.112727 253.795948 
L 141.367273 256.536445 
L 143.621818 256.174419 
L 145.876364 256.450804 
L 148.130909 252.211599 
L 150.385455 247.37291 
L 152.64 255.302443 
L 154.894545 254.570606 
L 157.149091 253.558491 
L 159.403636 250.67007 
L 161.658182 252.65148 
L 163.912727 259.28862 
L 166.167273 274.949156 
L 168.421818 313.452354 
L 170.676364 317.057041 
L 172.930909 340.732751 
L 175.185455 375.962145 
L 177.44 381.077219 
L 179.694545 393.775372 
L 181.949091 391.1828 
L 184.203636 390.256326 
L 186.458182 403.133545 
L 188.712727 403.160794 
L 190.967273 400.194518 
L 193.221818 403.153009 
L 195.476364 406.613664 
L 197.730909 407.220933 
L 199.985455 407.217041 
L 202.24 404.998173 
L 204.494545 403.643496 
L 206.749091 411.288858 
L 209.003636 413.075631 
L 211.258182 412.845958 
L 213.512727 408.750785 
L 215.767273 408.042304 
L 218.021818 403.892632 
L 220.276364 405.589871 
L 222.530909 403.927666 
L 224.785455 400.175055 
L 227.04 399.727388 
L 229.294545 406.029752 
L 231.549091 406.979583 
L 233.803636 406.029752 
L 236.058182 404.149553 
L 238.312727 404.0172 
L 240.567273 406.130963 
L 242.821818 407.559603 
L 245.076364 406.858908 
L 247.330909 415.738272 
L 249.585455 413.869752 
L 251.84 422.071778 
L 254.094545 413.375372 
L 256.349091 413.063952 
L 258.603636 406.201033 
L 260.858182 405.593764 
L 263.112727 410.27285 
L 265.367273 409.786256 
L 267.621818 409.548798 
L 269.876364 405.753366 
L 272.130909 405.41859 
L 274.385455 404.566077 
L 276.64 401.34288 
L 278.894545 401.03146 
L 281.149091 397.971758 
L 283.403636 397.718729 
L 285.658182 406.687627 
L 287.912727 407.146971 
L 290.167273 407.991698 
L 292.421818 403.974379 
L 294.676364 403.09851 
L 296.930909 407.820417 
L 299.185455 407.723098 
L 301.44 408.513327 
L 303.694545 402.331639 
L 305.949091 401.401271 
L 308.203636 404.916425 
L 310.458182 405.258987 
L 312.712727 403.651281 
L 314.967273 400.042701 
L 317.221818 399.789672 
L 319.476364 403.503357 
L 321.730909 403.289255 
L 323.985455 403.569533 
L 326.24 400.0972 
L 328.494545 398.617954 
L 330.749091 404.573863 
L 333.003636 404.169017 
L 335.258182 404.122304 
L 337.512727 401.194955 
L 339.767273 399.295293 
L 342.021818 403.966594 
L 344.276364 404.235194 
L 346.530909 402.950586 
L 348.785455 397.991221 
L 351.04 398.014578 
L 353.294545 403.378788 
L 355.549091 403.032334 
L 357.803636 402.288818 
L 360.058182 399.478252 
L 362.312727 399.260258 
L 364.567273 409.801827 
L 366.821818 407.380536 
L 369.076364 403.830348 
L 371.330909 402.935015 
L 373.585455 407.127507 
L 375.84 407.921629 
L 378.094545 407.322145 
L 380.349091 405.776723 
L 382.603636 405.255094 
L 384.858182 409.342483 
L 387.112727 409.373625 
L 389.367273 410.420775 
L 391.621818 406.489096 
L 393.876364 400.599364 
L 396.130909 401.907329 
L 398.385455 406.099821 
L 400.64 404.320834 
L 402.894545 397.26717 
L 405.149091 395.791817 
L 407.403636 401.802224 
L 409.658182 402.137001 
L 411.912727 401.156028 
L 414.167273 397.726514 
L 416.421818 395.499861 
L 418.676364 402.604131 
L 420.930909 401.934578 
L 423.185455 402.105859 
L 425.44 398.540099 
L 427.694545 399.057835 
L 429.949091 398.407746 
L 432.203636 399.427646 
L 434.458182 399.482145 
L 436.712727 397.337239 
L 438.967273 394.834201 
L 441.221818 402.440636 
L 443.476364 402.31996 
L 445.730909 401.265025 
L 447.985455 395.9086 
L 450.24 396.511976 
L 452.494545 404.45708 
L 454.749091 403.838133 
L 457.003636 399.816922 
L 459.258182 394.954876 
L 461.512727 394.908163 
L 463.767273 400.373585 
L 468.276364 397.784906 
L 470.530909 394.596743 
L 472.785455 395.032731 
L 475.04 400.428083 
L 477.294545 401.194955 
L 479.549091 400.420298 
L 481.803636 394.923734 
L 484.058182 392.105382 
L 486.312727 401.120993 
L 488.567273 400.136127 
L 490.821818 397.69148 
L 493.076364 391.393009 
L 495.330909 391.311261 
L 497.585455 396.091559 
L 499.84 396.484727 
L 502.094545 392.911182 
L 504.349091 386.445323 
L 506.603636 386.13001 
L 508.858182 393.802622 
L 511.112727 391.630467 
L 513.367273 389.27146 
L 515.621818 385.514955 
L 517.876364 383.354479 
L 520.130909 386.741172 
L 524.64 387.204409 
L 526.894545 383.486832 
L 529.149091 381.832413 
L 531.403636 390.408143 
L 533.658182 390.855809 
L 535.912727 386.974737 
L 538.167273 383.331122 
L 540.421818 389.294816 
L 542.676364 384.1486 
L 544.930909 382.751102 
L 547.185455 378.971241 
L 549.44 378.959563 
L 551.694545 384.962185 
L 553.949091 385.211321 
L 556.203636 384.129136 
L 558.458182 380.318133 
L 560.712727 382.015372 
L 562.967273 387.484687 
L 565.221818 385.830268 
L 567.476364 385.631738 
L 569.730909 382.941847 
L 571.985455 383.066415 
L 574.24 389.785303 
L 576.494545 402.736485 
L 578.749091 401.459662 
L 581.003636 398.232572 
L 585.512727 392.323376 
L 587.767273 394.553923 
L 590.021818 393.280993 
L 592.276364 395.978669 
L 594.530909 426.295412 
L 596.785455 421.149196 
L 599.04 413.546653 
L 601.294545 85.710864 
L 603.549091 97.132195 
L 605.803636 95.571202 
L 605.803636 95.571202 
" style="fill:none;stroke:#9467bd;stroke-linecap:square;stroke-width:1.5;"/>
   </g>
   <g id="line2d_36">
    <path clip-path="url(#pefc8b6bdd5)" d="M 132.349091 257.645879 
L 134.603636 258.144151 
L 136.858182 253.437815 
L 139.112727 249.829235 
L 141.367273 260.763972 
L 143.621818 257.003575 
L 145.876364 252.067567 
L 148.130909 250.40147 
L 150.385455 247.112095 
L 152.64 246.376365 
L 154.894545 255.695611 
L 157.149091 253.406673 
L 159.403636 261.075392 
L 161.658182 266.186574 
L 163.912727 281.921072 
L 166.167273 324.281986 
L 168.421818 335.660497 
L 170.676364 349.557617 
L 172.930909 369.157617 
L 175.185455 385.476028 
L 177.44 403.246435 
L 179.694545 402.281033 
L 181.949091 404.577756 
L 184.203636 401.868401 
L 186.458182 399.521072 
L 188.712727 408.567825 
L 190.967273 405.636584 
L 193.221818 410.506415 
L 195.476364 407.758133 
L 197.730909 408.64568 
L 199.985455 403.312612 
L 202.24 403.269791 
L 204.494545 410.171639 
L 206.749091 411.043615 
L 209.003636 410.409096 
L 211.258182 417.571758 
L 213.512727 407.948878 
L 215.767273 406.672056 
L 218.021818 401.549196 
L 220.276364 399.497716 
L 222.530909 407.6686 
L 224.785455 407.388322 
L 227.04 403.063476 
L 229.294545 401.315631 
L 231.549091 407.851559 
L 233.803636 412.421648 
L 236.058182 407.882701 
L 238.312727 404.445402 
L 240.567273 404.266336 
L 242.821818 407.812632 
L 245.076364 410.833406 
L 247.330909 409.264628 
L 249.585455 405.5743 
L 251.84 406.123178 
L 254.094545 409.611082 
L 256.349091 404.359762 
L 258.603636 402.981728 
L 260.858182 400.821251 
L 263.112727 398.82427 
L 265.367273 410.514201 
L 267.621818 405.235631 
L 269.876364 405.550943 
L 272.130909 401.241668 
L 274.385455 399.676783 
L 276.64 402.27714 
L 278.894545 404.340298 
L 281.149091 401.992969 
L 283.403636 397.769335 
L 285.658182 398.462244 
L 287.912727 408.797498 
L 290.167273 409.062205 
L 292.421818 408.723535 
L 294.676364 405.313486 
L 296.930909 405.889613 
L 299.185455 409.023277 
L 301.44 408.575611 
L 303.694545 408.474399 
L 305.949091 404.297478 
L 308.203636 403.238649 
L 310.458182 411.794916 
L 312.712727 412.308759 
L 314.967273 411.39007 
L 317.221818 407.271539 
L 319.476364 406.598093 
L 321.730909 408.999921 
L 323.985455 409.731758 
L 326.24 404.714002 
L 328.494545 400.459225 
L 330.749091 401.284489 
L 333.003636 411.370606 
L 335.258182 409.525442 
L 337.512727 408.964886 
L 339.767273 404.305263 
L 342.021818 404.313049 
L 344.276364 422.608977 
L 346.530909 420.826097 
L 348.785455 420.592532 
L 351.04 416.516822 
L 353.294545 406.380099 
L 355.549091 413.161271 
L 357.803636 412.79146 
L 360.058182 413.087309 
L 362.312727 407.150864 
L 364.567273 407.32993 
L 366.821818 415.831698 
L 369.076364 416.213188 
L 371.330909 412.90435 
L 373.585455 408.641787 
L 375.84 402.12143 
L 378.094545 406.317815 
L 380.349091 401.903436 
L 382.603636 400.965283 
L 384.858182 398.466137 
L 387.112727 397.89001 
L 389.367273 400.49426 
L 391.621818 400.478689 
L 393.876364 399.78578 
L 396.130909 397.274955 
L 398.385455 395.947527 
L 400.64 406.415134 
L 402.894545 406.057001 
L 405.149091 405.558729 
L 407.403636 400.112771 
L 409.658182 405.589871 
L 411.912727 411.755988 
L 414.167273 409.7629 
L 416.421818 405.955789 
L 418.676364 404.943674 
L 420.930909 411.168183 
L 423.185455 409.062205 
L 425.44 404.733466 
L 427.694545 401.210526 
L 429.949091 401.218312 
L 432.203636 405.294022 
L 434.458182 403.063476 
L 436.712727 403.382681 
L 438.967273 399.668997 
L 441.221818 399.44711 
L 443.476364 406.50856 
L 445.730909 406.006395 
L 447.985455 407.026296 
L 450.24 403.806991 
L 452.494545 403.557855 
L 454.749091 408.766356 
L 457.003636 409.034955 
L 459.258182 407.633565 
L 461.512727 402.386137 
L 463.767273 402.522383 
L 466.021818 407.75424 
L 468.276364 409.365839 
L 470.530909 407.773704 
L 472.785455 403.518928 
L 475.04 401.202741 
L 477.294545 408.976564 
L 479.549091 406.672056 
L 481.803636 406.243853 
L 484.058182 401.903436 
L 486.312727 401.475233 
L 488.567273 404.519364 
L 490.821818 402.34721 
L 493.076364 400.790109 
L 495.330909 395.262403 
L 497.585455 394.838093 
L 499.84 403.849811 
L 502.094545 400.529295 
L 504.349091 398.972195 
L 506.603636 393.339384 
L 508.858182 393.288779 
L 511.112727 396.255055 
L 513.367273 396.06431 
L 515.621818 394.43714 
L 517.876364 390.275789 
L 520.130909 391.910745 
L 522.385455 391.914638 
L 524.64 390.345859 
L 526.894545 390.657279 
L 529.149091 387.379583 
L 531.403636 386.892989 
L 533.658182 390.147329 
L 535.912727 390.229076 
L 538.167273 390.594995 
L 540.421818 383.704826 
L 542.676364 383.366157 
L 544.930909 391.377438 
L 547.185455 392.155988 
L 549.44 391.237299 
L 551.694545 388.341092 
L 553.949091 389.178034 
L 556.203636 393.646912 
L 558.458182 393.03575 
L 562.967273 387.593684 
L 565.221818 389.82423 
L 567.476364 397.963972 
L 569.730909 396.138272 
L 571.985455 395.799603 
L 574.24 393.210924 
L 576.494545 385.304747 
L 578.749091 389.886514 
L 581.003636 390.00719 
L 583.258182 389.189712 
L 585.512727 387.060377 
L 587.767273 387.005879 
L 590.021818 395.815174 
L 592.276364 392.778828 
L 594.530909 388.539623 
L 596.785455 388.839364 
L 599.04 392.96568 
L 601.294545 394.23861 
L 603.549091 392.61144 
L 605.803636 386.651639 
L 608.058182 387.325084 
L 610.312727 393.012393 
L 612.567273 392.323376 
L 614.821818 392.128739 
L 617.076364 389.93712 
L 619.330909 390.240755 
L 619.330909 390.240755 
" style="fill:none;stroke:#8c564b;stroke-linecap:square;stroke-width:1.5;"/>
   </g>
   <g id="line2d_37">
    <path clip-path="url(#pefc8b6bdd5)" d="M 132.349091 248.104747 
L 134.603636 245.870308 
L 136.858182 246.45422 
L 139.112727 255.275194 
L 141.367273 254.068441 
L 143.621818 253.254856 
L 145.876364 249.412711 
L 148.130909 248.451202 
L 150.385455 250.744032 
L 152.64 250.471539 
L 154.894545 250.471539 
L 157.149091 245.558888 
L 159.403636 243.768222 
L 163.912727 274.493704 
L 166.167273 281.726435 
L 168.421818 311.505978 
L 170.676364 333.418272 
L 172.930909 349.499225 
L 175.185455 371.220775 
L 177.44 373.922344 
L 179.694545 389.765839 
L 181.949091 398.111897 
L 184.203636 396.605402 
L 186.458182 394.503317 
L 188.712727 392.560834 
L 190.967273 391.899067 
L 193.221818 396.286197 
L 195.476364 396.441907 
L 197.730909 395.959206 
L 199.985455 393.136961 
L 202.24 392.155988 
L 204.494545 393.681946 
L 206.749091 394.674598 
L 209.003636 395.180655 
L 211.258182 389.236425 
L 213.512727 393.467845 
L 215.767273 403.771956 
L 218.021818 407.579067 
L 220.276364 404.671182 
L 222.530909 400.447547 
L 224.785455 398.835948 
L 227.04 403.059583 
L 229.294545 403.230864 
L 231.549091 403.997736 
L 233.803636 400.91857 
L 236.058182 400.751182 
L 238.312727 412.102443 
L 240.567273 409.930288 
L 242.821818 410.514201 
L 245.076364 408.742999 
L 247.330909 403.565641 
L 249.585455 406.150427 
L 251.84 406.81998 
L 254.094545 406.033644 
L 256.349091 403.682423 
L 258.603636 403.83424 
L 260.858182 410.724409 
L 263.112727 410.121033 
L 265.367273 407.983913 
L 267.621818 405.095492 
L 269.876364 404.040556 
L 272.130909 412.320437 
L 274.385455 407.832095 
L 276.64 408.205799 
L 278.894545 404.313049 
L 281.149091 403.733029 
L 283.403636 406.528024 
L 285.658182 405.706653 
L 287.912727 404.760715 
L 290.167273 401.553088 
L 292.421818 399.493823 
L 294.676364 406.134856 
L 296.930909 405.722224 
L 299.185455 405.710546 
L 301.44 398.540099 
L 303.694545 398.450566 
L 305.949091 411.425104 
L 308.203636 407.127507 
L 310.458182 405.640477 
L 312.712727 402.175929 
L 314.967273 401.790546 
L 317.221818 407.520675 
L 319.476364 407.302681 
L 321.730909 407.567388 
L 323.985455 402.288818 
L 326.24 402.249891 
L 328.494545 403.067368 
L 330.749091 404.044449 
L 333.003636 403.110189 
L 337.512727 396.776683 
L 339.767273 406.193247 
L 342.021818 405.34852 
L 344.276364 400.412512 
L 346.530909 400.249017 
L 348.785455 403.503357 
L 351.04 405.535372 
L 353.294545 403.682423 
L 355.549091 399.20576 
L 357.803636 398.839841 
L 360.058182 408.303118 
L 362.312727 411.175968 
L 364.567273 408.299225 
L 366.821818 400.482582 
L 369.076364 399.707925 
L 371.330909 403.604568 
L 373.585455 407.080794 
L 375.84 404.098947 
L 378.094545 412.74864 
L 380.349091 412.48004 
L 382.603636 415.442423 
L 384.858182 407.076902 
L 387.112727 405.585978 
L 389.367273 402.89998 
L 391.621818 401.771082 
L 393.876364 404.982602 
L 396.130909 407.528461 
L 398.385455 406.504667 
L 400.64 399.957061 
L 402.894545 399.233009 
L 405.149091 410.490844 
L 407.403636 410.268957 
L 409.658182 408.976564 
L 411.912727 404.624469 
L 414.167273 404.741251 
L 416.421818 408.419901 
L 418.676364 405.10717 
L 420.930909 403.507249 
L 423.185455 399.71571 
L 425.44 399.104548 
L 427.694545 404.647825 
L 429.949091 405.92854 
L 432.203636 405.360199 
L 434.458182 402.160357 
L 436.712727 401.883972 
L 438.967273 404.935889 
L 441.221818 402.39003 
L 443.476364 402.101966 
L 445.730909 394.877021 
L 447.985455 392.88004 
L 450.24 398.026256 
L 452.494545 398.508957 
L 454.749091 397.395631 
L 457.003636 394.117934 
L 459.258182 393.5457 
L 461.512727 397.839404 
L 463.767273 395.488183 
L 466.021818 394.032294 
L 468.276364 389.948798 
L 470.530909 389.139106 
L 472.785455 391.256763 
L 475.04 389.843694 
L 477.294545 389.037895 
L 479.549091 386.21565 
L 481.803636 384.210884 
L 484.058182 392.607547 
L 486.312727 392.845005 
L 488.567273 392.082026 
L 490.821818 385.331996 
L 493.076364 384.619623 
L 495.330909 394.744667 
L 497.585455 392.066455 
L 499.84 390.330288 
L 502.094545 386.168937 
L 504.349091 387.982959 
L 506.603636 394.678491 
L 508.858182 391.447507 
L 511.112727 390.026653 
L 513.367273 385.110109 
L 515.621818 384.440556 
L 517.876364 386.098868 
L 520.130909 385.296961 
L 522.385455 381.918054 
L 524.64 379.18145 
L 526.894545 390.696207 
L 529.149091 393.066892 
L 531.403636 394.067329 
L 533.658182 386.39861 
L 535.912727 383.198769 
L 538.167273 386.889096 
L 540.421818 388.991182 
L 542.676364 388.271023 
L 544.930909 385.226892 
L 547.185455 384.354916 
L 549.44 392.564727 
L 551.694545 392.311698 
L 553.949091 392.198808 
L 556.203636 388.551301 
L 558.458182 388.376127 
L 560.712727 393.864906 
L 562.967273 394.744667 
L 565.221818 394.666812 
L 567.476364 391.782284 
L 569.730909 388.543515 
L 571.985455 393.370526 
L 574.24 396.161629 
L 578.749091 390.579424 
L 581.003636 388.313843 
L 583.258182 388.718689 
L 585.512727 390.602781 
L 587.767273 390.879166 
L 590.021818 386.231221 
L 592.276364 387.169374 
L 594.530909 395.157299 
L 596.785455 393.417239 
L 599.04 390.614459 
L 601.294545 387.44576 
L 603.549091 387.819464 
L 605.803636 394.694062 
L 608.058182 407.217041 
L 610.312727 406.866693 
L 612.567273 92.947488 
L 614.821818 90.206991 
L 614.821818 90.206991 
" style="fill:none;stroke:#e377c2;stroke-linecap:square;stroke-width:1.5;"/>
   </g>
   <g id="line2d_38"/>
   <g id="line2d_39"/>
   <g id="line2d_40"/>
   <g id="line2d_41"/>
   <g id="line2d_42"/>
   <g id="line2d_43"/>
   <g id="line2d_44"/>
   <g id="patch_3">
    <path d="M 108 448.56 
L 108 60.48 
" style="fill:none;stroke:#000000;stroke-linecap:square;stroke-linejoin:miter;stroke-width:0.8;"/>
   </g>
   <g id="patch_4">
    <path d="M 643.68 448.56 
L 643.68 60.48 
" style="fill:none;stroke:#000000;stroke-linecap:square;stroke-linejoin:miter;stroke-width:0.8;"/>
   </g>
   <g id="patch_5">
    <path d="M 108 448.56 
L 643.68 448.56 
" style="fill:none;stroke:#000000;stroke-linecap:square;stroke-linejoin:miter;stroke-width:0.8;"/>
   </g>
   <g id="patch_6">
    <path d="M 108 60.48 
L 643.68 60.48 
" style="fill:none;stroke:#000000;stroke-linecap:square;stroke-linejoin:miter;stroke-width:0.8;"/>
   </g>
   <g id="text_33">
    <!-- free -->
    <g transform="translate(361.055625 54.48)scale(0.15 -0.15)">
     <defs>
      <path d="M 37.109375 75.984375 
L 37.109375 68.5 
L 28.515625 68.5 
Q 23.6875 68.5 21.796875 66.546875 
Q 19.921875 64.59375 19.921875 59.515625 
L 19.921875 54.6875 
L 34.71875 54.6875 
L 34.71875 47.703125 
L 19.921875 47.703125 
L 19.921875 0 
L 10.890625 0 
L 10.890625 47.703125 
L 2.296875 47.703125 
L 2.296875 54.6875 
L 10.890625 54.6875 
L 10.890625 58.5 
Q 10.890625 67.625 15.140625 71.796875 
Q 19.390625 75.984375 28.609375 75.984375 
z
" id="DejaVuSans-102"/>
      <path d="M 41.109375 46.296875 
Q 39.59375 47.171875 37.8125 47.578125 
Q 36.03125 48 33.890625 48 
Q 26.265625 48 22.1875 43.046875 
Q 18.109375 38.09375 18.109375 28.8125 
L 18.109375 0 
L 9.078125 0 
L 9.078125 54.6875 
L 18.109375 54.6875 
L 18.109375 46.1875 
Q 20.953125 51.171875 25.484375 53.578125 
Q 30.03125 56 36.53125 56 
Q 37.453125 56 38.578125 55.875 
Q 39.703125 55.765625 41.0625 55.515625 
z
" id="DejaVuSans-114"/>
     </defs>
     <use xlink:href="#DejaVuSans-102"/>
     <use x="35.205078" xlink:href="#DejaVuSans-114"/>
     <use x="74.068359" xlink:href="#DejaVuSans-101"/>
     <use x="135.591797" xlink:href="#DejaVuSans-101"/>
    </g>
   </g>
   <g id="legend_1">
    <g id="patch_7">
     <path d="M 650.68 308.227812 
L 800.1925 308.227812 
Q 802.1925 308.227812 802.1925 306.227812 
L 802.1925 202.812187 
Q 802.1925 200.812187 800.1925 200.812187 
L 650.68 200.812187 
Q 648.68 200.812187 648.68 202.812187 
L 648.68 306.227812 
Q 648.68 308.227812 650.68 308.227812 
z
" style="fill:#ffffff;opacity:0.8;stroke:#cccccc;stroke-linejoin:miter;"/>
    </g>
    <g id="line2d_45">
     <path d="M 652.68 208.910625 
L 672.68 208.910625 
" style="fill:none;stroke:#1f77b4;stroke-linecap:square;stroke-width:1.5;"/>
    </g>
    <g id="line2d_46"/>
    <g id="text_34">
     <!-- docker -->
     <g transform="translate(680.68 212.410625)scale(0.1 -0.1)">
      <defs>
       <path d="M 9.078125 75.984375 
L 18.109375 75.984375 
L 18.109375 31.109375 
L 44.921875 54.6875 
L 56.390625 54.6875 
L 27.390625 29.109375 
L 57.625 0 
L 45.90625 0 
L 18.109375 26.703125 
L 18.109375 0 
L 9.078125 0 
z
" id="DejaVuSans-107"/>
      </defs>
      <use xlink:href="#DejaVuSans-100"/>
      <use x="63.476562" xlink:href="#DejaVuSans-111"/>
      <use x="124.658203" xlink:href="#DejaVuSans-99"/>
      <use x="179.638672" xlink:href="#DejaVuSans-107"/>
      <use x="233.923828" xlink:href="#DejaVuSans-101"/>
      <use x="295.447266" xlink:href="#DejaVuSans-114"/>
     </g>
    </g>
    <g id="line2d_47">
     <path d="M 652.68 223.58875 
L 672.68 223.58875 
" style="fill:none;stroke:#ff7f0e;stroke-linecap:square;stroke-width:1.5;"/>
    </g>
    <g id="line2d_48"/>
    <g id="text_35">
     <!-- unikernel_allocpool -->
     <g transform="translate(680.68 227.08875)scale(0.1 -0.1)">
      <defs>
       <path d="M 8.5 21.578125 
L 8.5 54.6875 
L 17.484375 54.6875 
L 17.484375 21.921875 
Q 17.484375 14.15625 20.5 10.265625 
Q 23.53125 6.390625 29.59375 6.390625 
Q 36.859375 6.390625 41.078125 11.03125 
Q 45.3125 15.671875 45.3125 23.6875 
L 45.3125 54.6875 
L 54.296875 54.6875 
L 54.296875 0 
L 45.3125 0 
L 45.3125 8.40625 
Q 42.046875 3.421875 37.71875 1 
Q 33.40625 -1.421875 27.6875 -1.421875 
Q 18.265625 -1.421875 13.375 4.4375 
Q 8.5 10.296875 8.5 21.578125 
z
M 31.109375 56 
z
" id="DejaVuSans-117"/>
       <path d="M 9.421875 54.6875 
L 18.40625 54.6875 
L 18.40625 0 
L 9.421875 0 
z
M 9.421875 75.984375 
L 18.40625 75.984375 
L 18.40625 64.59375 
L 9.421875 64.59375 
z
" id="DejaVuSans-105"/>
       <path d="M 9.421875 75.984375 
L 18.40625 75.984375 
L 18.40625 0 
L 9.421875 0 
z
" id="DejaVuSans-108"/>
       <path d="M 50.984375 -16.609375 
L 50.984375 -23.578125 
L -0.984375 -23.578125 
L -0.984375 -16.609375 
z
" id="DejaVuSans-95"/>
       <path d="M 34.28125 27.484375 
Q 23.390625 27.484375 19.1875 25 
Q 14.984375 22.515625 14.984375 16.5 
Q 14.984375 11.71875 18.140625 8.90625 
Q 21.296875 6.109375 26.703125 6.109375 
Q 34.1875 6.109375 38.703125 11.40625 
Q 43.21875 16.703125 43.21875 25.484375 
L 43.21875 27.484375 
z
M 52.203125 31.203125 
L 52.203125 0 
L 43.21875 0 
L 43.21875 8.296875 
Q 40.140625 3.328125 35.546875 0.953125 
Q 30.953125 -1.421875 24.3125 -1.421875 
Q 15.921875 -1.421875 10.953125 3.296875 
Q 6 8.015625 6 15.921875 
Q 6 25.140625 12.171875 29.828125 
Q 18.359375 34.515625 30.609375 34.515625 
L 43.21875 34.515625 
L 43.21875 35.40625 
Q 43.21875 41.609375 39.140625 45 
Q 35.0625 48.390625 27.6875 48.390625 
Q 23 48.390625 18.546875 47.265625 
Q 14.109375 46.140625 10.015625 43.890625 
L 10.015625 52.203125 
Q 14.9375 54.109375 19.578125 55.046875 
Q 24.21875 56 28.609375 56 
Q 40.484375 56 46.34375 49.84375 
Q 52.203125 43.703125 52.203125 31.203125 
z
" id="DejaVuSans-97"/>
       <path d="M 18.109375 8.203125 
L 18.109375 -20.796875 
L 9.078125 -20.796875 
L 9.078125 54.6875 
L 18.109375 54.6875 
L 18.109375 46.390625 
Q 20.953125 51.265625 25.265625 53.625 
Q 29.59375 56 35.59375 56 
Q 45.5625 56 51.78125 48.09375 
Q 58.015625 40.1875 58.015625 27.296875 
Q 58.015625 14.40625 51.78125 6.484375 
Q 45.5625 -1.421875 35.59375 -1.421875 
Q 29.59375 -1.421875 25.265625 0.953125 
Q 20.953125 3.328125 18.109375 8.203125 
z
M 48.6875 27.296875 
Q 48.6875 37.203125 44.609375 42.84375 
Q 40.53125 48.484375 33.40625 48.484375 
Q 26.265625 48.484375 22.1875 42.84375 
Q 18.109375 37.203125 18.109375 27.296875 
Q 18.109375 17.390625 22.1875 11.75 
Q 26.265625 6.109375 33.40625 6.109375 
Q 40.53125 6.109375 44.609375 11.75 
Q 48.6875 17.390625 48.6875 27.296875 
z
" id="DejaVuSans-112"/>
      </defs>
      <use xlink:href="#DejaVuSans-117"/>
      <use x="63.378906" xlink:href="#DejaVuSans-110"/>
      <use x="126.757812" xlink:href="#DejaVuSans-105"/>
      <use x="154.541016" xlink:href="#DejaVuSans-107"/>
      <use x="208.826172" xlink:href="#DejaVuSans-101"/>
      <use x="270.349609" xlink:href="#DejaVuSans-114"/>
      <use x="309.712891" xlink:href="#DejaVuSans-110"/>
      <use x="373.091797" xlink:href="#DejaVuSans-101"/>
      <use x="434.615234" xlink:href="#DejaVuSans-108"/>
      <use x="462.398438" xlink:href="#DejaVuSans-95"/>
      <use x="512.398438" xlink:href="#DejaVuSans-97"/>
      <use x="573.677734" xlink:href="#DejaVuSans-108"/>
      <use x="601.460938" xlink:href="#DejaVuSans-108"/>
      <use x="629.244141" xlink:href="#DejaVuSans-111"/>
      <use x="690.425781" xlink:href="#DejaVuSans-99"/>
      <use x="745.40625" xlink:href="#DejaVuSans-112"/>
      <use x="808.882812" xlink:href="#DejaVuSans-111"/>
      <use x="870.064453" xlink:href="#DejaVuSans-111"/>
      <use x="931.246094" xlink:href="#DejaVuSans-108"/>
     </g>
    </g>
    <g id="line2d_49">
     <path d="M 652.68 238.545 
L 672.68 238.545 
" style="fill:none;stroke:#2ca02c;stroke-linecap:square;stroke-width:1.5;"/>
    </g>
    <g id="line2d_50"/>
    <g id="text_36">
     <!-- unikernel_base -->
     <g transform="translate(680.68 242.045)scale(0.1 -0.1)">
      <defs>
       <path d="M 48.6875 27.296875 
Q 48.6875 37.203125 44.609375 42.84375 
Q 40.53125 48.484375 33.40625 48.484375 
Q 26.265625 48.484375 22.1875 42.84375 
Q 18.109375 37.203125 18.109375 27.296875 
Q 18.109375 17.390625 22.1875 11.75 
Q 26.265625 6.109375 33.40625 6.109375 
Q 40.53125 6.109375 44.609375 11.75 
Q 48.6875 17.390625 48.6875 27.296875 
z
M 18.109375 46.390625 
Q 20.953125 51.265625 25.265625 53.625 
Q 29.59375 56 35.59375 56 
Q 45.5625 56 51.78125 48.09375 
Q 58.015625 40.1875 58.015625 27.296875 
Q 58.015625 14.40625 51.78125 6.484375 
Q 45.5625 -1.421875 35.59375 -1.421875 
Q 29.59375 -1.421875 25.265625 0.953125 
Q 20.953125 3.328125 18.109375 8.203125 
L 18.109375 0 
L 9.078125 0 
L 9.078125 75.984375 
L 18.109375 75.984375 
z
" id="DejaVuSans-98"/>
      </defs>
      <use xlink:href="#DejaVuSans-117"/>
      <use x="63.378906" xlink:href="#DejaVuSans-110"/>
      <use x="126.757812" xlink:href="#DejaVuSans-105"/>
      <use x="154.541016" xlink:href="#DejaVuSans-107"/>
      <use x="208.826172" xlink:href="#DejaVuSans-101"/>
      <use x="270.349609" xlink:href="#DejaVuSans-114"/>
      <use x="309.712891" xlink:href="#DejaVuSans-110"/>
      <use x="373.091797" xlink:href="#DejaVuSans-101"/>
      <use x="434.615234" xlink:href="#DejaVuSans-108"/>
      <use x="462.398438" xlink:href="#DejaVuSans-95"/>
      <use x="512.398438" xlink:href="#DejaVuSans-98"/>
      <use x="575.875" xlink:href="#DejaVuSans-97"/>
      <use x="637.154297" xlink:href="#DejaVuSans-115"/>
      <use x="689.253906" xlink:href="#DejaVuSans-101"/>
     </g>
    </g>
    <g id="line2d_51">
     <path d="M 652.68 253.50125 
L 672.68 253.50125 
" style="fill:none;stroke:#d62728;stroke-linecap:square;stroke-width:1.5;"/>
    </g>
    <g id="line2d_52"/>
    <g id="text_37">
     <!-- unikernel_dce -->
     <g transform="translate(680.68 257.00125)scale(0.1 -0.1)">
      <use xlink:href="#DejaVuSans-117"/>
      <use x="63.378906" xlink:href="#DejaVuSans-110"/>
      <use x="126.757812" xlink:href="#DejaVuSans-105"/>
      <use x="154.541016" xlink:href="#DejaVuSans-107"/>
      <use x="208.826172" xlink:href="#DejaVuSans-101"/>
      <use x="270.349609" xlink:href="#DejaVuSans-114"/>
      <use x="309.712891" xlink:href="#DejaVuSans-110"/>
      <use x="373.091797" xlink:href="#DejaVuSans-101"/>
      <use x="434.615234" xlink:href="#DejaVuSans-108"/>
      <use x="462.398438" xlink:href="#DejaVuSans-95"/>
      <use x="512.398438" xlink:href="#DejaVuSans-100"/>
      <use x="575.875" xlink:href="#DejaVuSans-99"/>
      <use x="630.855469" xlink:href="#DejaVuSans-101"/>
     </g>
    </g>
    <g id="line2d_53">
     <path d="M 652.68 268.4575 
L 672.68 268.4575 
" style="fill:none;stroke:#9467bd;stroke-linecap:square;stroke-width:1.5;"/>
    </g>
    <g id="line2d_54"/>
    <g id="text_38">
     <!-- unikernel_dce-allocpool -->
     <g transform="translate(680.68 271.9575)scale(0.1 -0.1)">
      <defs>
       <path d="M 4.890625 31.390625 
L 31.203125 31.390625 
L 31.203125 23.390625 
L 4.890625 23.390625 
z
" id="DejaVuSans-45"/>
      </defs>
      <use xlink:href="#DejaVuSans-117"/>
      <use x="63.378906" xlink:href="#DejaVuSans-110"/>
      <use x="126.757812" xlink:href="#DejaVuSans-105"/>
      <use x="154.541016" xlink:href="#DejaVuSans-107"/>
      <use x="208.826172" xlink:href="#DejaVuSans-101"/>
      <use x="270.349609" xlink:href="#DejaVuSans-114"/>
      <use x="309.712891" xlink:href="#DejaVuSans-110"/>
      <use x="373.091797" xlink:href="#DejaVuSans-101"/>
      <use x="434.615234" xlink:href="#DejaVuSans-108"/>
      <use x="462.398438" xlink:href="#DejaVuSans-95"/>
      <use x="512.398438" xlink:href="#DejaVuSans-100"/>
      <use x="575.875" xlink:href="#DejaVuSans-99"/>
      <use x="630.855469" xlink:href="#DejaVuSans-101"/>
      <use x="692.378906" xlink:href="#DejaVuSans-45"/>
      <use x="728.462891" xlink:href="#DejaVuSans-97"/>
      <use x="789.742188" xlink:href="#DejaVuSans-108"/>
      <use x="817.525391" xlink:href="#DejaVuSans-108"/>
      <use x="845.308594" xlink:href="#DejaVuSans-111"/>
      <use x="906.490234" xlink:href="#DejaVuSans-99"/>
      <use x="961.470703" xlink:href="#DejaVuSans-112"/>
      <use x="1024.947266" xlink:href="#DejaVuSans-111"/>
      <use x="1086.128906" xlink:href="#DejaVuSans-111"/>
      <use x="1147.310547" xlink:href="#DejaVuSans-108"/>
     </g>
    </g>
    <g id="line2d_55">
     <path d="M 652.68 283.41375 
L 672.68 283.41375 
" style="fill:none;stroke:#8c564b;stroke-linecap:square;stroke-width:1.5;"/>
    </g>
    <g id="line2d_56"/>
    <g id="text_39">
     <!-- unikernel_falloc -->
     <g transform="translate(680.68 286.91375)scale(0.1 -0.1)">
      <use xlink:href="#DejaVuSans-117"/>
      <use x="63.378906" xlink:href="#DejaVuSans-110"/>
      <use x="126.757812" xlink:href="#DejaVuSans-105"/>
      <use x="154.541016" xlink:href="#DejaVuSans-107"/>
      <use x="208.826172" xlink:href="#DejaVuSans-101"/>
      <use x="270.349609" xlink:href="#DejaVuSans-114"/>
      <use x="309.712891" xlink:href="#DejaVuSans-110"/>
      <use x="373.091797" xlink:href="#DejaVuSans-101"/>
      <use x="434.615234" xlink:href="#DejaVuSans-108"/>
      <use x="462.398438" xlink:href="#DejaVuSans-95"/>
      <use x="512.398438" xlink:href="#DejaVuSans-102"/>
      <use x="547.603516" xlink:href="#DejaVuSans-97"/>
      <use x="608.882812" xlink:href="#DejaVuSans-108"/>
      <use x="636.666016" xlink:href="#DejaVuSans-108"/>
      <use x="664.449219" xlink:href="#DejaVuSans-111"/>
      <use x="725.630859" xlink:href="#DejaVuSans-99"/>
     </g>
    </g>
    <g id="line2d_57">
     <path d="M 652.68 298.37 
L 672.68 298.37 
" style="fill:none;stroke:#e377c2;stroke-linecap:square;stroke-width:1.5;"/>
    </g>
    <g id="line2d_58"/>
    <g id="text_40">
     <!-- unikernel_fbuddyalloc -->
     <g transform="translate(680.68 301.87)scale(0.1 -0.1)">
      <defs>
       <path d="M 32.171875 -5.078125 
Q 28.375 -14.84375 24.75 -17.8125 
Q 21.140625 -20.796875 15.09375 -20.796875 
L 7.90625 -20.796875 
L 7.90625 -13.28125 
L 13.1875 -13.28125 
Q 16.890625 -13.28125 18.9375 -11.515625 
Q 21 -9.765625 23.484375 -3.21875 
L 25.09375 0.875 
L 2.984375 54.6875 
L 12.5 54.6875 
L 29.59375 11.921875 
L 46.6875 54.6875 
L 56.203125 54.6875 
z
" id="DejaVuSans-121"/>
      </defs>
      <use xlink:href="#DejaVuSans-117"/>
      <use x="63.378906" xlink:href="#DejaVuSans-110"/>
      <use x="126.757812" xlink:href="#DejaVuSans-105"/>
      <use x="154.541016" xlink:href="#DejaVuSans-107"/>
      <use x="208.826172" xlink:href="#DejaVuSans-101"/>
      <use x="270.349609" xlink:href="#DejaVuSans-114"/>
      <use x="309.712891" xlink:href="#DejaVuSans-110"/>
      <use x="373.091797" xlink:href="#DejaVuSans-101"/>
      <use x="434.615234" xlink:href="#DejaVuSans-108"/>
      <use x="462.398438" xlink:href="#DejaVuSans-95"/>
      <use x="512.398438" xlink:href="#DejaVuSans-102"/>
      <use x="547.603516" xlink:href="#DejaVuSans-98"/>
      <use x="611.080078" xlink:href="#DejaVuSans-117"/>
      <use x="674.458984" xlink:href="#DejaVuSans-100"/>
      <use x="737.935547" xlink:href="#DejaVuSans-100"/>
      <use x="801.412109" xlink:href="#DejaVuSans-121"/>
      <use x="860.591797" xlink:href="#DejaVuSans-97"/>
      <use x="921.871094" xlink:href="#DejaVuSans-108"/>
      <use x="949.654297" xlink:href="#DejaVuSans-108"/>
      <use x="977.4375" xlink:href="#DejaVuSans-111"/>
      <use x="1038.619141" xlink:href="#DejaVuSans-99"/>
     </g>
    </g>
   </g>
  </g>
 </g>
 <defs>
  <clipPath id="pefc8b6bdd5">
   <rect height="388.08" width="535.68" x="108" y="60.48"/>
  </clipPath>
 </defs>
</svg>
