<?xml version="1.0" encoding="utf-8" standalone="no"?>
<!DOCTYPE svg PUBLIC "-//W3C//DTD SVG 1.1//EN"
  "http://www.w3.org/Graphics/SVG/1.1/DTD/svg11.dtd">
<!-- Created with matplotlib (https://matplotlib.org/) -->
<svg height="504pt" version="1.1" viewBox="0 0 864 504" width="864pt" xmlns="http://www.w3.org/2000/svg" xmlns:xlink="http://www.w3.org/1999/xlink">
 <metadata>
  <rdf:RDF xmlns:cc="http://creativecommons.org/ns#" xmlns:dc="http://purl.org/dc/elements/1.1/" xmlns:rdf="http://www.w3.org/1999/02/22-rdf-syntax-ns#">
   <cc:Work>
    <dc:type rdf:resource="http://purl.org/dc/dcmitype/StillImage"/>
    <dc:date>2022-05-29T17:13:08.710421</dc:date>
    <dc:format>image/svg+xml</dc:format>
    <dc:creator>
     <cc:Agent>
      <dc:title>Matplotlib v3.3.4, https://matplotlib.org/</dc:title>
     </cc:Agent>
    </dc:creator>
   </cc:Work>
  </rdf:RDF>
 </metadata>
 <defs>
  <style type="text/css">*{stroke-linecap:butt;stroke-linejoin:round;}</style>
 </defs>
 <g id="figure_1">
  <g id="patch_1">
   <path d="M 0 504 
L 864 504 
L 864 0 
L 0 0 
z
" style="fill:#ffffff;"/>
  </g>
  <g id="axes_1">
   <g id="patch_2">
    <path d="M 108 448.56 
L 643.68 448.56 
L 643.68 60.48 
L 108 60.48 
z
" style="fill:#ffffff;"/>
   </g>
   <g id="matplotlib.axis_1">
    <g id="xtick_1">
     <g id="line2d_1">
      <defs>
       <path d="M 0 0 
L 0 3.5 
" id="m34a84fbe95" style="stroke:#000000;stroke-width:0.8;"/>
      </defs>
      <g>
       <use style="stroke:#000000;stroke-width:0.8;" x="132.349091" xlink:href="#m34a84fbe95" y="448.56"/>
      </g>
     </g>
     <g id="text_1">
      <!-- 23:08:02 -->
      <g transform="translate(135.108466 500.4725)rotate(-90)scale(0.1 -0.1)">
       <defs>
        <path d="M 19.1875 8.296875 
L 53.609375 8.296875 
L 53.609375 0 
L 7.328125 0 
L 7.328125 8.296875 
Q 12.9375 14.109375 22.625 23.890625 
Q 32.328125 33.6875 34.8125 36.53125 
Q 39.546875 41.84375 41.421875 45.53125 
Q 43.3125 49.21875 43.3125 52.78125 
Q 43.3125 58.59375 39.234375 62.25 
Q 35.15625 65.921875 28.609375 65.921875 
Q 23.96875 65.921875 18.8125 64.3125 
Q 13.671875 62.703125 7.8125 59.421875 
L 7.8125 69.390625 
Q 13.765625 71.78125 18.9375 73 
Q 24.125 74.21875 28.421875 74.21875 
Q 39.75 74.21875 46.484375 68.546875 
Q 53.21875 62.890625 53.21875 53.421875 
Q 53.21875 48.921875 51.53125 44.890625 
Q 49.859375 40.875 45.40625 35.40625 
Q 44.1875 33.984375 37.640625 27.21875 
Q 31.109375 20.453125 19.1875 8.296875 
z
" id="DejaVuSans-50"/>
        <path d="M 40.578125 39.3125 
Q 47.65625 37.796875 51.625 33 
Q 55.609375 28.21875 55.609375 21.1875 
Q 55.609375 10.40625 48.1875 4.484375 
Q 40.765625 -1.421875 27.09375 -1.421875 
Q 22.515625 -1.421875 17.65625 -0.515625 
Q 12.796875 0.390625 7.625 2.203125 
L 7.625 11.71875 
Q 11.71875 9.328125 16.59375 8.109375 
Q 21.484375 6.890625 26.8125 6.890625 
Q 36.078125 6.890625 40.9375 10.546875 
Q 45.796875 14.203125 45.796875 21.1875 
Q 45.796875 27.640625 41.28125 31.265625 
Q 36.765625 34.90625 28.71875 34.90625 
L 20.21875 34.90625 
L 20.21875 43.015625 
L 29.109375 43.015625 
Q 36.375 43.015625 40.234375 45.921875 
Q 44.09375 48.828125 44.09375 54.296875 
Q 44.09375 59.90625 40.109375 62.90625 
Q 36.140625 65.921875 28.71875 65.921875 
Q 24.65625 65.921875 20.015625 65.03125 
Q 15.375 64.15625 9.8125 62.3125 
L 9.8125 71.09375 
Q 15.4375 72.65625 20.34375 73.4375 
Q 25.25 74.21875 29.59375 74.21875 
Q 40.828125 74.21875 47.359375 69.109375 
Q 53.90625 64.015625 53.90625 55.328125 
Q 53.90625 49.265625 50.4375 45.09375 
Q 46.96875 40.921875 40.578125 39.3125 
z
" id="DejaVuSans-51"/>
        <path d="M 11.71875 12.40625 
L 22.015625 12.40625 
L 22.015625 0 
L 11.71875 0 
z
M 11.71875 51.703125 
L 22.015625 51.703125 
L 22.015625 39.3125 
L 11.71875 39.3125 
z
" id="DejaVuSans-58"/>
        <path d="M 31.78125 66.40625 
Q 24.171875 66.40625 20.328125 58.90625 
Q 16.5 51.421875 16.5 36.375 
Q 16.5 21.390625 20.328125 13.890625 
Q 24.171875 6.390625 31.78125 6.390625 
Q 39.453125 6.390625 43.28125 13.890625 
Q 47.125 21.390625 47.125 36.375 
Q 47.125 51.421875 43.28125 58.90625 
Q 39.453125 66.40625 31.78125 66.40625 
z
M 31.78125 74.21875 
Q 44.046875 74.21875 50.515625 64.515625 
Q 56.984375 54.828125 56.984375 36.375 
Q 56.984375 17.96875 50.515625 8.265625 
Q 44.046875 -1.421875 31.78125 -1.421875 
Q 19.53125 -1.421875 13.0625 8.265625 
Q 6.59375 17.96875 6.59375 36.375 
Q 6.59375 54.828125 13.0625 64.515625 
Q 19.53125 74.21875 31.78125 74.21875 
z
" id="DejaVuSans-48"/>
        <path d="M 31.78125 34.625 
Q 24.75 34.625 20.71875 30.859375 
Q 16.703125 27.09375 16.703125 20.515625 
Q 16.703125 13.921875 20.71875 10.15625 
Q 24.75 6.390625 31.78125 6.390625 
Q 38.8125 6.390625 42.859375 10.171875 
Q 46.921875 13.96875 46.921875 20.515625 
Q 46.921875 27.09375 42.890625 30.859375 
Q 38.875 34.625 31.78125 34.625 
z
M 21.921875 38.8125 
Q 15.578125 40.375 12.03125 44.71875 
Q 8.5 49.078125 8.5 55.328125 
Q 8.5 64.0625 14.71875 69.140625 
Q 20.953125 74.21875 31.78125 74.21875 
Q 42.671875 74.21875 48.875 69.140625 
Q 55.078125 64.0625 55.078125 55.328125 
Q 55.078125 49.078125 51.53125 44.71875 
Q 48 40.375 41.703125 38.8125 
Q 48.828125 37.15625 52.796875 32.3125 
Q 56.78125 27.484375 56.78125 20.515625 
Q 56.78125 9.90625 50.3125 4.234375 
Q 43.84375 -1.421875 31.78125 -1.421875 
Q 19.734375 -1.421875 13.25 4.234375 
Q 6.78125 9.90625 6.78125 20.515625 
Q 6.78125 27.484375 10.78125 32.3125 
Q 14.796875 37.15625 21.921875 38.8125 
z
M 18.3125 54.390625 
Q 18.3125 48.734375 21.84375 45.5625 
Q 25.390625 42.390625 31.78125 42.390625 
Q 38.140625 42.390625 41.71875 45.5625 
Q 45.3125 48.734375 45.3125 54.390625 
Q 45.3125 60.0625 41.71875 63.234375 
Q 38.140625 66.40625 31.78125 66.40625 
Q 25.390625 66.40625 21.84375 63.234375 
Q 18.3125 60.0625 18.3125 54.390625 
z
" id="DejaVuSans-56"/>
       </defs>
       <use xlink:href="#DejaVuSans-50"/>
       <use x="63.623047" xlink:href="#DejaVuSans-51"/>
       <use x="127.246094" xlink:href="#DejaVuSans-58"/>
       <use x="160.9375" xlink:href="#DejaVuSans-48"/>
       <use x="224.560547" xlink:href="#DejaVuSans-56"/>
       <use x="288.183594" xlink:href="#DejaVuSans-58"/>
       <use x="321.875" xlink:href="#DejaVuSans-48"/>
       <use x="385.498047" xlink:href="#DejaVuSans-50"/>
      </g>
     </g>
    </g>
    <g id="xtick_2">
     <g id="line2d_2">
      <g>
       <use style="stroke:#000000;stroke-width:0.8;" x="156.632551" xlink:href="#m34a84fbe95" y="448.56"/>
      </g>
     </g>
     <g id="text_2">
      <!-- 23:09:21 -->
      <g transform="translate(159.391926 500.4725)rotate(-90)scale(0.1 -0.1)">
       <defs>
        <path d="M 10.984375 1.515625 
L 10.984375 10.5 
Q 14.703125 8.734375 18.5 7.8125 
Q 22.3125 6.890625 25.984375 6.890625 
Q 35.75 6.890625 40.890625 13.453125 
Q 46.046875 20.015625 46.78125 33.40625 
Q 43.953125 29.203125 39.59375 26.953125 
Q 35.25 24.703125 29.984375 24.703125 
Q 19.046875 24.703125 12.671875 31.3125 
Q 6.296875 37.9375 6.296875 49.421875 
Q 6.296875 60.640625 12.9375 67.421875 
Q 19.578125 74.21875 30.609375 74.21875 
Q 43.265625 74.21875 49.921875 64.515625 
Q 56.59375 54.828125 56.59375 36.375 
Q 56.59375 19.140625 48.40625 8.859375 
Q 40.234375 -1.421875 26.421875 -1.421875 
Q 22.703125 -1.421875 18.890625 -0.6875 
Q 15.09375 0.046875 10.984375 1.515625 
z
M 30.609375 32.421875 
Q 37.25 32.421875 41.125 36.953125 
Q 45.015625 41.5 45.015625 49.421875 
Q 45.015625 57.28125 41.125 61.84375 
Q 37.25 66.40625 30.609375 66.40625 
Q 23.96875 66.40625 20.09375 61.84375 
Q 16.21875 57.28125 16.21875 49.421875 
Q 16.21875 41.5 20.09375 36.953125 
Q 23.96875 32.421875 30.609375 32.421875 
z
" id="DejaVuSans-57"/>
        <path d="M 12.40625 8.296875 
L 28.515625 8.296875 
L 28.515625 63.921875 
L 10.984375 60.40625 
L 10.984375 69.390625 
L 28.421875 72.90625 
L 38.28125 72.90625 
L 38.28125 8.296875 
L 54.390625 8.296875 
L 54.390625 0 
L 12.40625 0 
z
" id="DejaVuSans-49"/>
       </defs>
       <use xlink:href="#DejaVuSans-50"/>
       <use x="63.623047" xlink:href="#DejaVuSans-51"/>
       <use x="127.246094" xlink:href="#DejaVuSans-58"/>
       <use x="160.9375" xlink:href="#DejaVuSans-48"/>
       <use x="224.560547" xlink:href="#DejaVuSans-57"/>
       <use x="288.183594" xlink:href="#DejaVuSans-58"/>
       <use x="321.875" xlink:href="#DejaVuSans-50"/>
       <use x="385.498047" xlink:href="#DejaVuSans-49"/>
      </g>
     </g>
    </g>
    <g id="xtick_3">
     <g id="line2d_3">
      <g>
       <use style="stroke:#000000;stroke-width:0.8;" x="180.916011" xlink:href="#m34a84fbe95" y="448.56"/>
      </g>
     </g>
     <g id="text_3">
      <!-- 23:10:41 -->
      <g transform="translate(183.675386 500.4725)rotate(-90)scale(0.1 -0.1)">
       <defs>
        <path d="M 37.796875 64.3125 
L 12.890625 25.390625 
L 37.796875 25.390625 
z
M 35.203125 72.90625 
L 47.609375 72.90625 
L 47.609375 25.390625 
L 58.015625 25.390625 
L 58.015625 17.1875 
L 47.609375 17.1875 
L 47.609375 0 
L 37.796875 0 
L 37.796875 17.1875 
L 4.890625 17.1875 
L 4.890625 26.703125 
z
" id="DejaVuSans-52"/>
       </defs>
       <use xlink:href="#DejaVuSans-50"/>
       <use x="63.623047" xlink:href="#DejaVuSans-51"/>
       <use x="127.246094" xlink:href="#DejaVuSans-58"/>
       <use x="160.9375" xlink:href="#DejaVuSans-49"/>
       <use x="224.560547" xlink:href="#DejaVuSans-48"/>
       <use x="288.183594" xlink:href="#DejaVuSans-58"/>
       <use x="321.875" xlink:href="#DejaVuSans-52"/>
       <use x="385.498047" xlink:href="#DejaVuSans-49"/>
      </g>
     </g>
    </g>
    <g id="xtick_4">
     <g id="line2d_4">
      <g>
       <use style="stroke:#000000;stroke-width:0.8;" x="205.199471" xlink:href="#m34a84fbe95" y="448.56"/>
      </g>
     </g>
     <g id="text_4">
      <!-- 23:12:00 -->
      <g transform="translate(207.958846 500.4725)rotate(-90)scale(0.1 -0.1)">
       <use xlink:href="#DejaVuSans-50"/>
       <use x="63.623047" xlink:href="#DejaVuSans-51"/>
       <use x="127.246094" xlink:href="#DejaVuSans-58"/>
       <use x="160.9375" xlink:href="#DejaVuSans-49"/>
       <use x="224.560547" xlink:href="#DejaVuSans-50"/>
       <use x="288.183594" xlink:href="#DejaVuSans-58"/>
       <use x="321.875" xlink:href="#DejaVuSans-48"/>
       <use x="385.498047" xlink:href="#DejaVuSans-48"/>
      </g>
     </g>
    </g>
    <g id="xtick_5">
     <g id="line2d_5">
      <g>
       <use style="stroke:#000000;stroke-width:0.8;" x="229.482931" xlink:href="#m34a84fbe95" y="448.56"/>
      </g>
     </g>
     <g id="text_5">
      <!-- 23:13:20 -->
      <g transform="translate(232.242306 500.4725)rotate(-90)scale(0.1 -0.1)">
       <use xlink:href="#DejaVuSans-50"/>
       <use x="63.623047" xlink:href="#DejaVuSans-51"/>
       <use x="127.246094" xlink:href="#DejaVuSans-58"/>
       <use x="160.9375" xlink:href="#DejaVuSans-49"/>
       <use x="224.560547" xlink:href="#DejaVuSans-51"/>
       <use x="288.183594" xlink:href="#DejaVuSans-58"/>
       <use x="321.875" xlink:href="#DejaVuSans-50"/>
       <use x="385.498047" xlink:href="#DejaVuSans-48"/>
      </g>
     </g>
    </g>
    <g id="xtick_6">
     <g id="line2d_6">
      <g>
       <use style="stroke:#000000;stroke-width:0.8;" x="253.766391" xlink:href="#m34a84fbe95" y="448.56"/>
      </g>
     </g>
     <g id="text_6">
      <!-- 23:14:40 -->
      <g transform="translate(256.525766 500.4725)rotate(-90)scale(0.1 -0.1)">
       <use xlink:href="#DejaVuSans-50"/>
       <use x="63.623047" xlink:href="#DejaVuSans-51"/>
       <use x="127.246094" xlink:href="#DejaVuSans-58"/>
       <use x="160.9375" xlink:href="#DejaVuSans-49"/>
       <use x="224.560547" xlink:href="#DejaVuSans-52"/>
       <use x="288.183594" xlink:href="#DejaVuSans-58"/>
       <use x="321.875" xlink:href="#DejaVuSans-52"/>
       <use x="385.498047" xlink:href="#DejaVuSans-48"/>
      </g>
     </g>
    </g>
    <g id="xtick_7">
     <g id="line2d_7">
      <g>
       <use style="stroke:#000000;stroke-width:0.8;" x="278.049851" xlink:href="#m34a84fbe95" y="448.56"/>
      </g>
     </g>
     <g id="text_7">
      <!-- 23:16:00 -->
      <g transform="translate(280.809226 500.4725)rotate(-90)scale(0.1 -0.1)">
       <defs>
        <path d="M 33.015625 40.375 
Q 26.375 40.375 22.484375 35.828125 
Q 18.609375 31.296875 18.609375 23.390625 
Q 18.609375 15.53125 22.484375 10.953125 
Q 26.375 6.390625 33.015625 6.390625 
Q 39.65625 6.390625 43.53125 10.953125 
Q 47.40625 15.53125 47.40625 23.390625 
Q 47.40625 31.296875 43.53125 35.828125 
Q 39.65625 40.375 33.015625 40.375 
z
M 52.59375 71.296875 
L 52.59375 62.3125 
Q 48.875 64.0625 45.09375 64.984375 
Q 41.3125 65.921875 37.59375 65.921875 
Q 27.828125 65.921875 22.671875 59.328125 
Q 17.53125 52.734375 16.796875 39.40625 
Q 19.671875 43.65625 24.015625 45.921875 
Q 28.375 48.1875 33.59375 48.1875 
Q 44.578125 48.1875 50.953125 41.515625 
Q 57.328125 34.859375 57.328125 23.390625 
Q 57.328125 12.15625 50.6875 5.359375 
Q 44.046875 -1.421875 33.015625 -1.421875 
Q 20.359375 -1.421875 13.671875 8.265625 
Q 6.984375 17.96875 6.984375 36.375 
Q 6.984375 53.65625 15.1875 63.9375 
Q 23.390625 74.21875 37.203125 74.21875 
Q 40.921875 74.21875 44.703125 73.484375 
Q 48.484375 72.75 52.59375 71.296875 
z
" id="DejaVuSans-54"/>
       </defs>
       <use xlink:href="#DejaVuSans-50"/>
       <use x="63.623047" xlink:href="#DejaVuSans-51"/>
       <use x="127.246094" xlink:href="#DejaVuSans-58"/>
       <use x="160.9375" xlink:href="#DejaVuSans-49"/>
       <use x="224.560547" xlink:href="#DejaVuSans-54"/>
       <use x="288.183594" xlink:href="#DejaVuSans-58"/>
       <use x="321.875" xlink:href="#DejaVuSans-48"/>
       <use x="385.498047" xlink:href="#DejaVuSans-48"/>
      </g>
     </g>
    </g>
    <g id="xtick_8">
     <g id="line2d_8">
      <g>
       <use style="stroke:#000000;stroke-width:0.8;" x="302.33331" xlink:href="#m34a84fbe95" y="448.56"/>
      </g>
     </g>
     <g id="text_8">
      <!-- 23:17:19 -->
      <g transform="translate(305.092685 500.4725)rotate(-90)scale(0.1 -0.1)">
       <defs>
        <path d="M 8.203125 72.90625 
L 55.078125 72.90625 
L 55.078125 68.703125 
L 28.609375 0 
L 18.3125 0 
L 43.21875 64.59375 
L 8.203125 64.59375 
z
" id="DejaVuSans-55"/>
       </defs>
       <use xlink:href="#DejaVuSans-50"/>
       <use x="63.623047" xlink:href="#DejaVuSans-51"/>
       <use x="127.246094" xlink:href="#DejaVuSans-58"/>
       <use x="160.9375" xlink:href="#DejaVuSans-49"/>
       <use x="224.560547" xlink:href="#DejaVuSans-55"/>
       <use x="288.183594" xlink:href="#DejaVuSans-58"/>
       <use x="321.875" xlink:href="#DejaVuSans-49"/>
       <use x="385.498047" xlink:href="#DejaVuSans-57"/>
      </g>
     </g>
    </g>
    <g id="xtick_9">
     <g id="line2d_9">
      <g>
       <use style="stroke:#000000;stroke-width:0.8;" x="326.61677" xlink:href="#m34a84fbe95" y="448.56"/>
      </g>
     </g>
     <g id="text_9">
      <!-- 23:18:39 -->
      <g transform="translate(329.376145 500.4725)rotate(-90)scale(0.1 -0.1)">
       <use xlink:href="#DejaVuSans-50"/>
       <use x="63.623047" xlink:href="#DejaVuSans-51"/>
       <use x="127.246094" xlink:href="#DejaVuSans-58"/>
       <use x="160.9375" xlink:href="#DejaVuSans-49"/>
       <use x="224.560547" xlink:href="#DejaVuSans-56"/>
       <use x="288.183594" xlink:href="#DejaVuSans-58"/>
       <use x="321.875" xlink:href="#DejaVuSans-51"/>
       <use x="385.498047" xlink:href="#DejaVuSans-57"/>
      </g>
     </g>
    </g>
    <g id="xtick_10">
     <g id="line2d_10">
      <g>
       <use style="stroke:#000000;stroke-width:0.8;" x="350.90023" xlink:href="#m34a84fbe95" y="448.56"/>
      </g>
     </g>
     <g id="text_10">
      <!-- 23:19:59 -->
      <g transform="translate(353.659605 500.4725)rotate(-90)scale(0.1 -0.1)">
       <defs>
        <path d="M 10.796875 72.90625 
L 49.515625 72.90625 
L 49.515625 64.59375 
L 19.828125 64.59375 
L 19.828125 46.734375 
Q 21.96875 47.46875 24.109375 47.828125 
Q 26.265625 48.1875 28.421875 48.1875 
Q 40.625 48.1875 47.75 41.5 
Q 54.890625 34.8125 54.890625 23.390625 
Q 54.890625 11.625 47.5625 5.09375 
Q 40.234375 -1.421875 26.90625 -1.421875 
Q 22.3125 -1.421875 17.546875 -0.640625 
Q 12.796875 0.140625 7.71875 1.703125 
L 7.71875 11.625 
Q 12.109375 9.234375 16.796875 8.0625 
Q 21.484375 6.890625 26.703125 6.890625 
Q 35.15625 6.890625 40.078125 11.328125 
Q 45.015625 15.765625 45.015625 23.390625 
Q 45.015625 31 40.078125 35.4375 
Q 35.15625 39.890625 26.703125 39.890625 
Q 22.75 39.890625 18.8125 39.015625 
Q 14.890625 38.140625 10.796875 36.28125 
z
" id="DejaVuSans-53"/>
       </defs>
       <use xlink:href="#DejaVuSans-50"/>
       <use x="63.623047" xlink:href="#DejaVuSans-51"/>
       <use x="127.246094" xlink:href="#DejaVuSans-58"/>
       <use x="160.9375" xlink:href="#DejaVuSans-49"/>
       <use x="224.560547" xlink:href="#DejaVuSans-57"/>
       <use x="288.183594" xlink:href="#DejaVuSans-58"/>
       <use x="321.875" xlink:href="#DejaVuSans-53"/>
       <use x="385.498047" xlink:href="#DejaVuSans-57"/>
      </g>
     </g>
    </g>
    <g id="xtick_11">
     <g id="line2d_11">
      <g>
       <use style="stroke:#000000;stroke-width:0.8;" x="375.18369" xlink:href="#m34a84fbe95" y="448.56"/>
      </g>
     </g>
     <g id="text_11">
      <!-- 23:21:19 -->
      <g transform="translate(377.943065 500.4725)rotate(-90)scale(0.1 -0.1)">
       <use xlink:href="#DejaVuSans-50"/>
       <use x="63.623047" xlink:href="#DejaVuSans-51"/>
       <use x="127.246094" xlink:href="#DejaVuSans-58"/>
       <use x="160.9375" xlink:href="#DejaVuSans-50"/>
       <use x="224.560547" xlink:href="#DejaVuSans-49"/>
       <use x="288.183594" xlink:href="#DejaVuSans-58"/>
       <use x="321.875" xlink:href="#DejaVuSans-49"/>
       <use x="385.498047" xlink:href="#DejaVuSans-57"/>
      </g>
     </g>
    </g>
    <g id="xtick_12">
     <g id="line2d_12">
      <g>
       <use style="stroke:#000000;stroke-width:0.8;" x="399.46715" xlink:href="#m34a84fbe95" y="448.56"/>
      </g>
     </g>
     <g id="text_12">
      <!-- 23:22:39 -->
      <g transform="translate(402.226525 500.4725)rotate(-90)scale(0.1 -0.1)">
       <use xlink:href="#DejaVuSans-50"/>
       <use x="63.623047" xlink:href="#DejaVuSans-51"/>
       <use x="127.246094" xlink:href="#DejaVuSans-58"/>
       <use x="160.9375" xlink:href="#DejaVuSans-50"/>
       <use x="224.560547" xlink:href="#DejaVuSans-50"/>
       <use x="288.183594" xlink:href="#DejaVuSans-58"/>
       <use x="321.875" xlink:href="#DejaVuSans-51"/>
       <use x="385.498047" xlink:href="#DejaVuSans-57"/>
      </g>
     </g>
    </g>
    <g id="xtick_13">
     <g id="line2d_13">
      <g>
       <use style="stroke:#000000;stroke-width:0.8;" x="423.75061" xlink:href="#m34a84fbe95" y="448.56"/>
      </g>
     </g>
     <g id="text_13">
      <!-- 23:23:59 -->
      <g transform="translate(426.509985 500.4725)rotate(-90)scale(0.1 -0.1)">
       <use xlink:href="#DejaVuSans-50"/>
       <use x="63.623047" xlink:href="#DejaVuSans-51"/>
       <use x="127.246094" xlink:href="#DejaVuSans-58"/>
       <use x="160.9375" xlink:href="#DejaVuSans-50"/>
       <use x="224.560547" xlink:href="#DejaVuSans-51"/>
       <use x="288.183594" xlink:href="#DejaVuSans-58"/>
       <use x="321.875" xlink:href="#DejaVuSans-53"/>
       <use x="385.498047" xlink:href="#DejaVuSans-57"/>
      </g>
     </g>
    </g>
    <g id="xtick_14">
     <g id="line2d_14">
      <g>
       <use style="stroke:#000000;stroke-width:0.8;" x="448.03407" xlink:href="#m34a84fbe95" y="448.56"/>
      </g>
     </g>
     <g id="text_14">
      <!-- 23:25:18 -->
      <g transform="translate(450.793445 500.4725)rotate(-90)scale(0.1 -0.1)">
       <use xlink:href="#DejaVuSans-50"/>
       <use x="63.623047" xlink:href="#DejaVuSans-51"/>
       <use x="127.246094" xlink:href="#DejaVuSans-58"/>
       <use x="160.9375" xlink:href="#DejaVuSans-50"/>
       <use x="224.560547" xlink:href="#DejaVuSans-53"/>
       <use x="288.183594" xlink:href="#DejaVuSans-58"/>
       <use x="321.875" xlink:href="#DejaVuSans-49"/>
       <use x="385.498047" xlink:href="#DejaVuSans-56"/>
      </g>
     </g>
    </g>
    <g id="xtick_15">
     <g id="line2d_15">
      <g>
       <use style="stroke:#000000;stroke-width:0.8;" x="472.31753" xlink:href="#m34a84fbe95" y="448.56"/>
      </g>
     </g>
     <g id="text_15">
      <!-- 23:26:38 -->
      <g transform="translate(475.076905 500.4725)rotate(-90)scale(0.1 -0.1)">
       <use xlink:href="#DejaVuSans-50"/>
       <use x="63.623047" xlink:href="#DejaVuSans-51"/>
       <use x="127.246094" xlink:href="#DejaVuSans-58"/>
       <use x="160.9375" xlink:href="#DejaVuSans-50"/>
       <use x="224.560547" xlink:href="#DejaVuSans-54"/>
       <use x="288.183594" xlink:href="#DejaVuSans-58"/>
       <use x="321.875" xlink:href="#DejaVuSans-51"/>
       <use x="385.498047" xlink:href="#DejaVuSans-56"/>
      </g>
     </g>
    </g>
    <g id="xtick_16">
     <g id="line2d_16">
      <g>
       <use style="stroke:#000000;stroke-width:0.8;" x="496.60099" xlink:href="#m34a84fbe95" y="448.56"/>
      </g>
     </g>
     <g id="text_16">
      <!-- 23:27:57 -->
      <g transform="translate(499.360365 500.4725)rotate(-90)scale(0.1 -0.1)">
       <use xlink:href="#DejaVuSans-50"/>
       <use x="63.623047" xlink:href="#DejaVuSans-51"/>
       <use x="127.246094" xlink:href="#DejaVuSans-58"/>
       <use x="160.9375" xlink:href="#DejaVuSans-50"/>
       <use x="224.560547" xlink:href="#DejaVuSans-55"/>
       <use x="288.183594" xlink:href="#DejaVuSans-58"/>
       <use x="321.875" xlink:href="#DejaVuSans-53"/>
       <use x="385.498047" xlink:href="#DejaVuSans-55"/>
      </g>
     </g>
    </g>
    <g id="xtick_17">
     <g id="line2d_17">
      <g>
       <use style="stroke:#000000;stroke-width:0.8;" x="520.88445" xlink:href="#m34a84fbe95" y="448.56"/>
      </g>
     </g>
     <g id="text_17">
      <!-- 23:29:17 -->
      <g transform="translate(523.643825 500.4725)rotate(-90)scale(0.1 -0.1)">
       <use xlink:href="#DejaVuSans-50"/>
       <use x="63.623047" xlink:href="#DejaVuSans-51"/>
       <use x="127.246094" xlink:href="#DejaVuSans-58"/>
       <use x="160.9375" xlink:href="#DejaVuSans-50"/>
       <use x="224.560547" xlink:href="#DejaVuSans-57"/>
       <use x="288.183594" xlink:href="#DejaVuSans-58"/>
       <use x="321.875" xlink:href="#DejaVuSans-49"/>
       <use x="385.498047" xlink:href="#DejaVuSans-55"/>
      </g>
     </g>
    </g>
    <g id="xtick_18">
     <g id="line2d_18">
      <g>
       <use style="stroke:#000000;stroke-width:0.8;" x="545.16791" xlink:href="#m34a84fbe95" y="448.56"/>
      </g>
     </g>
     <g id="text_18">
      <!-- 23:30:36 -->
      <g transform="translate(547.927285 500.4725)rotate(-90)scale(0.1 -0.1)">
       <use xlink:href="#DejaVuSans-50"/>
       <use x="63.623047" xlink:href="#DejaVuSans-51"/>
       <use x="127.246094" xlink:href="#DejaVuSans-58"/>
       <use x="160.9375" xlink:href="#DejaVuSans-51"/>
       <use x="224.560547" xlink:href="#DejaVuSans-48"/>
       <use x="288.183594" xlink:href="#DejaVuSans-58"/>
       <use x="321.875" xlink:href="#DejaVuSans-51"/>
       <use x="385.498047" xlink:href="#DejaVuSans-54"/>
      </g>
     </g>
    </g>
    <g id="xtick_19">
     <g id="line2d_19">
      <g>
       <use style="stroke:#000000;stroke-width:0.8;" x="569.45137" xlink:href="#m34a84fbe95" y="448.56"/>
      </g>
     </g>
     <g id="text_19">
      <!-- 23:31:56 -->
      <g transform="translate(572.210745 500.4725)rotate(-90)scale(0.1 -0.1)">
       <use xlink:href="#DejaVuSans-50"/>
       <use x="63.623047" xlink:href="#DejaVuSans-51"/>
       <use x="127.246094" xlink:href="#DejaVuSans-58"/>
       <use x="160.9375" xlink:href="#DejaVuSans-51"/>
       <use x="224.560547" xlink:href="#DejaVuSans-49"/>
       <use x="288.183594" xlink:href="#DejaVuSans-58"/>
       <use x="321.875" xlink:href="#DejaVuSans-53"/>
       <use x="385.498047" xlink:href="#DejaVuSans-54"/>
      </g>
     </g>
    </g>
    <g id="xtick_20">
     <g id="line2d_20">
      <g>
       <use style="stroke:#000000;stroke-width:0.8;" x="593.73483" xlink:href="#m34a84fbe95" y="448.56"/>
      </g>
     </g>
     <g id="text_20">
      <!-- 23:33:16 -->
      <g transform="translate(596.494205 500.4725)rotate(-90)scale(0.1 -0.1)">
       <use xlink:href="#DejaVuSans-50"/>
       <use x="63.623047" xlink:href="#DejaVuSans-51"/>
       <use x="127.246094" xlink:href="#DejaVuSans-58"/>
       <use x="160.9375" xlink:href="#DejaVuSans-51"/>
       <use x="224.560547" xlink:href="#DejaVuSans-51"/>
       <use x="288.183594" xlink:href="#DejaVuSans-58"/>
       <use x="321.875" xlink:href="#DejaVuSans-49"/>
       <use x="385.498047" xlink:href="#DejaVuSans-54"/>
      </g>
     </g>
    </g>
    <g id="xtick_21">
     <g id="line2d_21">
      <g>
       <use style="stroke:#000000;stroke-width:0.8;" x="618.01829" xlink:href="#m34a84fbe95" y="448.56"/>
      </g>
     </g>
     <g id="text_21">
      <!-- 23:34:35 -->
      <g transform="translate(620.777665 500.4725)rotate(-90)scale(0.1 -0.1)">
       <use xlink:href="#DejaVuSans-50"/>
       <use x="63.623047" xlink:href="#DejaVuSans-51"/>
       <use x="127.246094" xlink:href="#DejaVuSans-58"/>
       <use x="160.9375" xlink:href="#DejaVuSans-51"/>
       <use x="224.560547" xlink:href="#DejaVuSans-52"/>
       <use x="288.183594" xlink:href="#DejaVuSans-58"/>
       <use x="321.875" xlink:href="#DejaVuSans-51"/>
       <use x="385.498047" xlink:href="#DejaVuSans-53"/>
      </g>
     </g>
    </g>
    <g id="text_22">
     <!-- timestamp -->
     <g transform="translate(354.264375 510.55125)scale(0.08 -0.08)">
      <defs>
       <path d="M 18.3125 70.21875 
L 18.3125 54.6875 
L 36.8125 54.6875 
L 36.8125 47.703125 
L 18.3125 47.703125 
L 18.3125 18.015625 
Q 18.3125 11.328125 20.140625 9.421875 
Q 21.96875 7.515625 27.59375 7.515625 
L 36.8125 7.515625 
L 36.8125 0 
L 27.59375 0 
Q 17.1875 0 13.234375 3.875 
Q 9.28125 7.765625 9.28125 18.015625 
L 9.28125 47.703125 
L 2.6875 47.703125 
L 2.6875 54.6875 
L 9.28125 54.6875 
L 9.28125 70.21875 
z
" id="DejaVuSans-116"/>
       <path d="M 9.421875 54.6875 
L 18.40625 54.6875 
L 18.40625 0 
L 9.421875 0 
z
M 9.421875 75.984375 
L 18.40625 75.984375 
L 18.40625 64.59375 
L 9.421875 64.59375 
z
" id="DejaVuSans-105"/>
       <path d="M 52 44.1875 
Q 55.375 50.25 60.0625 53.125 
Q 64.75 56 71.09375 56 
Q 79.640625 56 84.28125 50.015625 
Q 88.921875 44.046875 88.921875 33.015625 
L 88.921875 0 
L 79.890625 0 
L 79.890625 32.71875 
Q 79.890625 40.578125 77.09375 44.375 
Q 74.3125 48.1875 68.609375 48.1875 
Q 61.625 48.1875 57.5625 43.546875 
Q 53.515625 38.921875 53.515625 30.90625 
L 53.515625 0 
L 44.484375 0 
L 44.484375 32.71875 
Q 44.484375 40.625 41.703125 44.40625 
Q 38.921875 48.1875 33.109375 48.1875 
Q 26.21875 48.1875 22.15625 43.53125 
Q 18.109375 38.875 18.109375 30.90625 
L 18.109375 0 
L 9.078125 0 
L 9.078125 54.6875 
L 18.109375 54.6875 
L 18.109375 46.1875 
Q 21.1875 51.21875 25.484375 53.609375 
Q 29.78125 56 35.6875 56 
Q 41.65625 56 45.828125 52.96875 
Q 50 49.953125 52 44.1875 
z
" id="DejaVuSans-109"/>
       <path d="M 56.203125 29.59375 
L 56.203125 25.203125 
L 14.890625 25.203125 
Q 15.484375 15.921875 20.484375 11.0625 
Q 25.484375 6.203125 34.421875 6.203125 
Q 39.59375 6.203125 44.453125 7.46875 
Q 49.3125 8.734375 54.109375 11.28125 
L 54.109375 2.78125 
Q 49.265625 0.734375 44.1875 -0.34375 
Q 39.109375 -1.421875 33.890625 -1.421875 
Q 20.796875 -1.421875 13.15625 6.1875 
Q 5.515625 13.8125 5.515625 26.8125 
Q 5.515625 40.234375 12.765625 48.109375 
Q 20.015625 56 32.328125 56 
Q 43.359375 56 49.78125 48.890625 
Q 56.203125 41.796875 56.203125 29.59375 
z
M 47.21875 32.234375 
Q 47.125 39.59375 43.09375 43.984375 
Q 39.0625 48.390625 32.421875 48.390625 
Q 24.90625 48.390625 20.390625 44.140625 
Q 15.875 39.890625 15.1875 32.171875 
z
" id="DejaVuSans-101"/>
       <path d="M 44.28125 53.078125 
L 44.28125 44.578125 
Q 40.484375 46.53125 36.375 47.5 
Q 32.28125 48.484375 27.875 48.484375 
Q 21.1875 48.484375 17.84375 46.4375 
Q 14.5 44.390625 14.5 40.28125 
Q 14.5 37.15625 16.890625 35.375 
Q 19.28125 33.59375 26.515625 31.984375 
L 29.59375 31.296875 
Q 39.15625 29.25 43.1875 25.515625 
Q 47.21875 21.78125 47.21875 15.09375 
Q 47.21875 7.46875 41.1875 3.015625 
Q 35.15625 -1.421875 24.609375 -1.421875 
Q 20.21875 -1.421875 15.453125 -0.5625 
Q 10.6875 0.296875 5.421875 2 
L 5.421875 11.28125 
Q 10.40625 8.6875 15.234375 7.390625 
Q 20.0625 6.109375 24.8125 6.109375 
Q 31.15625 6.109375 34.5625 8.28125 
Q 37.984375 10.453125 37.984375 14.40625 
Q 37.984375 18.0625 35.515625 20.015625 
Q 33.0625 21.96875 24.703125 23.78125 
L 21.578125 24.515625 
Q 13.234375 26.265625 9.515625 29.90625 
Q 5.8125 33.546875 5.8125 39.890625 
Q 5.8125 47.609375 11.28125 51.796875 
Q 16.75 56 26.8125 56 
Q 31.78125 56 36.171875 55.265625 
Q 40.578125 54.546875 44.28125 53.078125 
z
" id="DejaVuSans-115"/>
       <path d="M 34.28125 27.484375 
Q 23.390625 27.484375 19.1875 25 
Q 14.984375 22.515625 14.984375 16.5 
Q 14.984375 11.71875 18.140625 8.90625 
Q 21.296875 6.109375 26.703125 6.109375 
Q 34.1875 6.109375 38.703125 11.40625 
Q 43.21875 16.703125 43.21875 25.484375 
L 43.21875 27.484375 
z
M 52.203125 31.203125 
L 52.203125 0 
L 43.21875 0 
L 43.21875 8.296875 
Q 40.140625 3.328125 35.546875 0.953125 
Q 30.953125 -1.421875 24.3125 -1.421875 
Q 15.921875 -1.421875 10.953125 3.296875 
Q 6 8.015625 6 15.921875 
Q 6 25.140625 12.171875 29.828125 
Q 18.359375 34.515625 30.609375 34.515625 
L 43.21875 34.515625 
L 43.21875 35.40625 
Q 43.21875 41.609375 39.140625 45 
Q 35.0625 48.390625 27.6875 48.390625 
Q 23 48.390625 18.546875 47.265625 
Q 14.109375 46.140625 10.015625 43.890625 
L 10.015625 52.203125 
Q 14.9375 54.109375 19.578125 55.046875 
Q 24.21875 56 28.609375 56 
Q 40.484375 56 46.34375 49.84375 
Q 52.203125 43.703125 52.203125 31.203125 
z
" id="DejaVuSans-97"/>
       <path d="M 18.109375 8.203125 
L 18.109375 -20.796875 
L 9.078125 -20.796875 
L 9.078125 54.6875 
L 18.109375 54.6875 
L 18.109375 46.390625 
Q 20.953125 51.265625 25.265625 53.625 
Q 29.59375 56 35.59375 56 
Q 45.5625 56 51.78125 48.09375 
Q 58.015625 40.1875 58.015625 27.296875 
Q 58.015625 14.40625 51.78125 6.484375 
Q 45.5625 -1.421875 35.59375 -1.421875 
Q 29.59375 -1.421875 25.265625 0.953125 
Q 20.953125 3.328125 18.109375 8.203125 
z
M 48.6875 27.296875 
Q 48.6875 37.203125 44.609375 42.84375 
Q 40.53125 48.484375 33.40625 48.484375 
Q 26.265625 48.484375 22.1875 42.84375 
Q 18.109375 37.203125 18.109375 27.296875 
Q 18.109375 17.390625 22.1875 11.75 
Q 26.265625 6.109375 33.40625 6.109375 
Q 40.53125 6.109375 44.609375 11.75 
Q 48.6875 17.390625 48.6875 27.296875 
z
" id="DejaVuSans-112"/>
      </defs>
      <use xlink:href="#DejaVuSans-116"/>
      <use x="39.208984" xlink:href="#DejaVuSans-105"/>
      <use x="66.992188" xlink:href="#DejaVuSans-109"/>
      <use x="164.404297" xlink:href="#DejaVuSans-101"/>
      <use x="225.927734" xlink:href="#DejaVuSans-115"/>
      <use x="278.027344" xlink:href="#DejaVuSans-116"/>
      <use x="317.236328" xlink:href="#DejaVuSans-97"/>
      <use x="378.515625" xlink:href="#DejaVuSans-109"/>
      <use x="475.927734" xlink:href="#DejaVuSans-112"/>
     </g>
    </g>
   </g>
   <g id="matplotlib.axis_2">
    <g id="ytick_1">
     <g id="line2d_22">
      <defs>
       <path d="M 0 0 
L -3.5 0 
" id="m26e4bcf312" style="stroke:#000000;stroke-width:0.8;"/>
      </defs>
      <g>
       <use style="stroke:#000000;stroke-width:0.8;" x="108" xlink:href="#m26e4bcf312" y="391.320323"/>
      </g>
     </g>
     <g id="text_23">
      <!-- 14540 -->
      <g transform="translate(69.1875 395.119542)scale(0.1 -0.1)">
       <use xlink:href="#DejaVuSans-49"/>
       <use x="63.623047" xlink:href="#DejaVuSans-52"/>
       <use x="127.246094" xlink:href="#DejaVuSans-53"/>
       <use x="190.869141" xlink:href="#DejaVuSans-52"/>
       <use x="254.492188" xlink:href="#DejaVuSans-48"/>
      </g>
     </g>
    </g>
    <g id="ytick_2">
     <g id="line2d_23">
      <g>
       <use style="stroke:#000000;stroke-width:0.8;" x="108" xlink:href="#m26e4bcf312" y="332.418037"/>
      </g>
     </g>
     <g id="text_24">
      <!-- 14560 -->
      <g transform="translate(69.1875 336.217256)scale(0.1 -0.1)">
       <use xlink:href="#DejaVuSans-49"/>
       <use x="63.623047" xlink:href="#DejaVuSans-52"/>
       <use x="127.246094" xlink:href="#DejaVuSans-53"/>
       <use x="190.869141" xlink:href="#DejaVuSans-54"/>
       <use x="254.492188" xlink:href="#DejaVuSans-48"/>
      </g>
     </g>
    </g>
    <g id="ytick_3">
     <g id="line2d_24">
      <g>
       <use style="stroke:#000000;stroke-width:0.8;" x="108" xlink:href="#m26e4bcf312" y="273.515752"/>
      </g>
     </g>
     <g id="text_25">
      <!-- 14580 -->
      <g transform="translate(69.1875 277.31497)scale(0.1 -0.1)">
       <use xlink:href="#DejaVuSans-49"/>
       <use x="63.623047" xlink:href="#DejaVuSans-52"/>
       <use x="127.246094" xlink:href="#DejaVuSans-53"/>
       <use x="190.869141" xlink:href="#DejaVuSans-56"/>
       <use x="254.492188" xlink:href="#DejaVuSans-48"/>
      </g>
     </g>
    </g>
    <g id="ytick_4">
     <g id="line2d_25">
      <g>
       <use style="stroke:#000000;stroke-width:0.8;" x="108" xlink:href="#m26e4bcf312" y="214.613466"/>
      </g>
     </g>
     <g id="text_26">
      <!-- 14600 -->
      <g transform="translate(69.1875 218.412685)scale(0.1 -0.1)">
       <use xlink:href="#DejaVuSans-49"/>
       <use x="63.623047" xlink:href="#DejaVuSans-52"/>
       <use x="127.246094" xlink:href="#DejaVuSans-54"/>
       <use x="190.869141" xlink:href="#DejaVuSans-48"/>
       <use x="254.492188" xlink:href="#DejaVuSans-48"/>
      </g>
     </g>
    </g>
    <g id="ytick_5">
     <g id="line2d_26">
      <g>
       <use style="stroke:#000000;stroke-width:0.8;" x="108" xlink:href="#m26e4bcf312" y="155.71118"/>
      </g>
     </g>
     <g id="text_27">
      <!-- 14620 -->
      <g transform="translate(69.1875 159.510399)scale(0.1 -0.1)">
       <use xlink:href="#DejaVuSans-49"/>
       <use x="63.623047" xlink:href="#DejaVuSans-52"/>
       <use x="127.246094" xlink:href="#DejaVuSans-54"/>
       <use x="190.869141" xlink:href="#DejaVuSans-50"/>
       <use x="254.492188" xlink:href="#DejaVuSans-48"/>
      </g>
     </g>
    </g>
    <g id="ytick_6">
     <g id="line2d_27">
      <g>
       <use style="stroke:#000000;stroke-width:0.8;" x="108" xlink:href="#m26e4bcf312" y="96.808894"/>
      </g>
     </g>
     <g id="text_28">
      <!-- 14640 -->
      <g transform="translate(69.1875 100.608113)scale(0.1 -0.1)">
       <use xlink:href="#DejaVuSans-49"/>
       <use x="63.623047" xlink:href="#DejaVuSans-52"/>
       <use x="127.246094" xlink:href="#DejaVuSans-54"/>
       <use x="190.869141" xlink:href="#DejaVuSans-52"/>
       <use x="254.492188" xlink:href="#DejaVuSans-48"/>
      </g>
     </g>
    </g>
    <g id="text_29">
     <!-- MB -->
     <g transform="translate(63.52375 260.715625)rotate(-90)scale(0.08 -0.08)">
      <defs>
       <path d="M 9.8125 72.90625 
L 24.515625 72.90625 
L 43.109375 23.296875 
L 61.8125 72.90625 
L 76.515625 72.90625 
L 76.515625 0 
L 66.890625 0 
L 66.890625 64.015625 
L 48.09375 14.015625 
L 38.1875 14.015625 
L 19.390625 64.015625 
L 19.390625 0 
L 9.8125 0 
z
" id="DejaVuSans-77"/>
       <path d="M 19.671875 34.8125 
L 19.671875 8.109375 
L 35.5 8.109375 
Q 43.453125 8.109375 47.28125 11.40625 
Q 51.125 14.703125 51.125 21.484375 
Q 51.125 28.328125 47.28125 31.5625 
Q 43.453125 34.8125 35.5 34.8125 
z
M 19.671875 64.796875 
L 19.671875 42.828125 
L 34.28125 42.828125 
Q 41.5 42.828125 45.03125 45.53125 
Q 48.578125 48.25 48.578125 53.8125 
Q 48.578125 59.328125 45.03125 62.0625 
Q 41.5 64.796875 34.28125 64.796875 
z
M 9.8125 72.90625 
L 35.015625 72.90625 
Q 46.296875 72.90625 52.390625 68.21875 
Q 58.5 63.53125 58.5 54.890625 
Q 58.5 48.1875 55.375 44.234375 
Q 52.25 40.28125 46.1875 39.3125 
Q 53.46875 37.75 57.5 32.78125 
Q 61.53125 27.828125 61.53125 20.40625 
Q 61.53125 10.640625 54.890625 5.3125 
Q 48.25 0 35.984375 0 
L 9.8125 0 
z
" id="DejaVuSans-66"/>
      </defs>
      <use xlink:href="#DejaVuSans-77"/>
      <use x="86.279297" xlink:href="#DejaVuSans-66"/>
     </g>
    </g>
   </g>
   <g id="line2d_28">
    <path clip-path="url(#pa615aa85e7)" d="M 132.349091 264.049919 
L 132.677246 259.51416 
L 133.005401 272.747477 
L 133.333556 258.15102 
L 133.66171 256.908511 
L 133.989865 250.382326 
L 134.31802 238.668971 
L 134.646175 232.697693 
L 134.97433 234.953509 
L 135.302485 239.778784 
L 135.958794 242.879023 
L 136.286949 242.915213 
L 136.615104 244.965955 
L 136.943259 246.1964 
L 137.271414 250.539148 
L 137.599569 266.004155 
L 137.927724 259.453844 
L 138.255878 261.130627 
L 138.584033 276.607697 
L 138.912188 275.883906 
L 139.240343 388.264567 
L 139.568498 379.98922 
L 140.224808 335.548435 
L 140.552963 335.11416 
L 140.881117 339.577539 
L 141.209272 336.815069 
L 141.537427 315.716553 
L 141.865582 307.996113 
L 142.193737 312.64044 
L 142.521892 321.350062 
L 142.850047 318.491087 
L 143.506356 303.894629 
L 143.834511 301.36136 
L 144.162666 297.018612 
L 144.490821 297.368444 
L 144.818976 292.615548 
L 145.147131 291.33685 
L 145.475285 295.148818 
L 145.80344 292.000326 
L 146.131595 291.252408 
L 146.45975 287.802336 
L 146.787905 295.148818 
L 147.444215 287.428377 
L 147.77237 289.310235 
L 148.428679 300.468684 
L 148.756834 297.645898 
L 149.084989 296.355136 
L 149.413144 296.186252 
L 149.741299 297.525266 
L 150.397608 301.819761 
L 150.725763 295.293576 
L 151.053918 295.016123 
L 151.382073 297.332255 
L 151.710228 300.770263 
L 152.038383 300.709947 
L 152.366538 306.295203 
L 152.694692 296.379263 
L 153.022847 302.567678 
L 153.351002 302.483236 
L 153.679157 299.165859 
L 154.007312 303.207027 
L 154.335467 300.480747 
L 154.663622 304.256525 
L 154.991777 302.266099 
L 155.319931 302.085151 
L 155.976241 305.004442 
L 156.304396 295.221197 
L 156.632551 302.736563 
L 156.960706 307.272322 
L 157.288861 305.559349 
L 157.617015 313.460737 
L 157.94517 311.144605 
L 158.273325 307.634217 
L 158.60148 306.657099 
L 158.929635 313.77438 
L 159.25779 314.232781 
L 159.585945 308.225314 
L 159.914099 306.669162 
L 160.242254 302.109277 
L 160.570409 306.415835 
L 161.226719 311.627133 
L 161.554874 303.858439 
L 161.883029 300.203293 
L 162.211184 348.866194 
L 162.539338 351.869928 
L 162.867493 359.228473 
L 163.195648 323.49731 
L 163.851958 315.511479 
L 164.180113 320.505639 
L 164.508268 312.592188 
L 164.836422 307.549775 
L 165.164577 317.441589 
L 165.492732 349.879502 
L 166.477197 355.295874 
L 166.805352 329.02225 
L 167.133506 326.006453 
L 167.461661 321.555136 
L 168.117971 318.780603 
L 168.446126 321.892906 
L 168.774281 321.651642 
L 169.102436 314.992762 
L 169.430591 313.171221 
L 169.758745 319.202815 
L 170.0869 321.675768 
L 170.415055 321.289746 
L 170.74321 318.961551 
L 171.071365 314.860067 
L 171.39952 318.334265 
L 171.727675 323.038909 
L 172.055829 323.9919 
L 172.383984 321.108798 
L 172.712139 322.085917 
L 173.040294 317.429526 
L 173.368449 317.284768 
L 173.696604 322.689076 
L 174.024759 317.815548 
L 174.352914 323.412867 
L 174.681068 311.699512 
L 175.009223 313.593432 
L 175.337378 321.181178 
L 175.665533 317.06763 
L 175.993688 327.88831 
L 176.321843 324.969019 
L 176.649998 318.901235 
L 177.306307 323.630005 
L 177.634462 326.79056 
L 177.962617 328.575912 
L 178.290772 319.468205 
L 178.618927 321.83259 
L 178.947082 329.179071 
L 179.275236 323.678258 
L 179.603391 332.592954 
L 179.931546 325.005208 
L 180.259701 328.75686 
L 180.587856 331.012676 
L 180.916011 329.939052 
L 181.244166 330.38539 
L 181.572321 325.765189 
L 181.900475 327.996879 
L 182.22863 326.163274 
L 182.556785 325.222346 
L 182.88494 323.207793 
L 183.213095 329.058439 
L 183.54125 324.257291 
L 183.869405 317.296831 
L 184.197559 298.936659 
L 184.525714 303.448291 
L 184.853869 303.038143 
L 185.182024 306.090129 
L 185.510179 300.335989 
L 185.838334 302.531489 
L 186.166489 299.563944 
L 186.494643 304.425409 
L 186.822798 307.308511 
L 187.150953 308.973231 
L 187.479108 306.307267 
L 187.807263 306.090129 
L 188.135418 299.576008 
L 188.791728 306.476151 
L 189.119882 305.499033 
L 189.448037 305.499033 
L 189.776192 308.490704 
L 190.104347 301.313107 
L 190.432502 306.090129 
L 190.760657 309.093863 
L 191.088812 313.219473 
L 191.745121 299.479502 
L 192.073276 302.869258 
L 192.401431 311.397932 
L 192.729586 301.264854 
L 193.057741 304.039387 
L 193.71405 306.041876 
L 194.042205 309.87797 
L 194.698515 304.328904 
L 195.354825 309.660833 
L 195.68298 318.684098 
L 196.011135 314.377539 
L 196.339289 307.815165 
L 196.667444 305.921245 
L 196.995599 310.14336 
L 197.323754 321.434505 
L 197.651909 315.752743 
L 197.980064 314.90832 
L 198.308219 308.840536 
L 198.636373 314.510235 
L 198.964528 310.770646 
L 199.292683 316.138765 
L 199.620838 313.496927 
L 199.948993 307.971987 
L 200.277148 317.815548 
L 200.605303 317.152073 
L 200.933457 319.287257 
L 201.261612 318.73235 
L 201.589767 320.879598 
L 201.917922 311.566817 
L 202.246077 313.267726 
L 202.574232 310.806836 
L 202.902387 319.721532 
L 203.558696 313.086778 
L 203.886851 313.943265 
L 204.215006 319.745658 
L 204.543161 319.685342 
L 204.871316 322.001474 
L 205.199471 320.372944 
L 205.527626 315.4391 
L 205.85578 315.583858 
L 206.183935 317.091757 
L 206.51209 323.050972 
L 207.1684 309.829718 
L 207.496555 307.803102 
L 207.82471 318.50315 
L 208.152864 319.612963 
L 208.481019 320.324691 
L 208.809174 312.049344 
L 209.137329 318.032685 
L 209.465484 320.011048 
L 209.793639 318.153317 
L 210.121794 318.479023 
L 210.449949 321.627516 
L 210.778103 312.568061 
L 211.434413 310.276056 
L 211.762568 316.971125 
L 212.090723 316.380029 
L 212.418878 321.892906 
L 212.747033 317.89999 
L 213.075187 316.199081 
L 213.403342 317.586348 
L 213.731497 325.765189 
L 214.059652 327.273088 
L 214.387807 323.72651 
L 214.715962 323.376678 
L 215.044117 322.435749 
L 215.372272 324.763944 
L 216.028581 325.499799 
L 216.356736 319.371699 
L 216.684891 318.406644 
L 217.013046 323.7627 
L 217.341201 327.080077 
L 217.669356 326.211527 
L 217.99751 323.412867 
L 218.325665 330.795539 
L 218.65382 324.727755 
L 218.981975 334.426558 
L 219.31013 333.75102 
L 219.638285 330.566338 
L 219.96644 331.664088 
L 220.294594 322.170359 
L 220.622749 331.012676 
L 220.950904 326.935318 
L 221.607214 335.150349 
L 221.935369 330.180316 
L 222.263524 331.109181 
L 223.247988 335.138286 
L 223.576143 335.258918 
L 223.904298 327.743552 
L 224.232453 326.609612 
L 224.560608 332.641206 
L 225.216917 335.572561 
L 225.873227 323.967774 
L 226.201382 332.978976 
L 226.529537 328.744797 
L 226.857692 338.503916 
L 227.185847 336.018899 
L 227.514001 343.112054 
L 227.842156 335.982709 
L 228.170311 313.291853 
L 228.498466 312.362987 
L 228.826621 316.367966 
L 229.482931 297.477013 
L 229.811086 294.509469 
L 230.13924 296.198315 
L 231.123705 306.729478 
L 231.45186 303.665428 
L 231.780015 301.928329 
L 232.10817 312.857578 
L 232.764479 310.324308 
L 233.092634 298.224931 
L 233.420789 299.841398 
L 233.748944 306.717415 
L 234.077099 310.589698 
L 234.405254 306.62091 
L 234.733408 306.331393 
L 235.061563 305.113011 
L 235.389718 306.62091 
L 236.046028 315.390847 
L 236.374183 301.868013 
L 236.702338 307.778976 
L 237.030493 306.753605 
L 237.358647 308.430388 
L 237.686802 306.222824 
L 238.014957 301.566434 
L 238.343112 302.036898 
L 238.671267 304.835558 
L 238.999422 303.074332 
L 239.327577 309.286874 
L 239.655731 309.238621 
L 239.983886 312.67663 
L 240.312041 307.98405 
L 240.640196 316.078449 
L 240.968351 311.434122 
L 241.624661 325.174093 
L 241.952815 321.543073 
L 242.28097 310.312245 
L 242.609125 305.366338 
L 242.93728 312.085534 
L 243.265435 308.309756 
L 243.921745 308.659588 
L 244.578054 312.845515 
L 244.906209 313.364232 
L 245.234364 315.366721 
L 245.562519 315.4391 
L 245.890674 314.268971 
L 246.218829 310.613825 
L 246.546984 312.206166 
L 246.875138 317.97237 
L 247.531448 315.378784 
L 247.859603 309.117989 
L 248.187758 316.319713 
L 248.515913 320.517702 
L 248.844068 319.697405 
L 249.172222 318.406644 
L 249.500377 311.892523 
L 249.828532 314.944509 
L 250.156687 311.156668 
L 250.812997 324.402049 
L 251.141152 320.879598 
L 251.469307 319.395826 
L 251.797461 319.03393 
L 252.125616 324.631249 
L 252.453771 319.504394 
L 252.781926 320.493576 
L 253.110081 318.515213 
L 253.438236 344.077109 
L 253.766391 342.701905 
L 254.094545 339.649919 
L 254.4227 333.063418 
L 254.750855 299.09348 
L 255.07901 310.806836 
L 255.73532 299.66045 
L 256.063475 294.907554 
L 256.39163 296.63259 
L 256.719784 290.709564 
L 257.047939 302.519426 
L 257.376094 307.875481 
L 257.704249 301.276917 
L 258.032404 302.205783 
L 258.688714 298.755711 
L 259.016868 302.338478 
L 259.345023 304.594294 
L 259.673178 314.618803 
L 260.001333 308.961168 
L 260.329488 307.212006 
L 260.657643 307.163753 
L 260.985798 309.998602 
L 261.313952 314.654993 
L 261.642107 313.400421 
L 261.970262 302.350541 
L 262.298417 301.481991 
L 262.954727 313.20741 
L 263.282882 307.887544 
L 263.611037 310.698267 
L 263.939191 302.410857 
L 264.267346 302.772753 
L 264.595501 308.949105 
L 265.579966 311.409995 
L 265.908121 301.011527 
L 266.236275 299.600134 
L 266.56443 300.673758 
L 266.892585 307.45327 
L 267.22074 311.060163 
L 267.548895 308.020239 
L 267.87705 310.251929 
L 268.205205 311.060163 
L 268.861514 317.272705 
L 269.189669 299.793145 
L 269.845979 278.694629 
L 270.174134 289.889268 
L 270.502289 286.282374 
L 270.830444 289.370551 
L 271.158598 281.408846 
L 271.486753 279.744126 
L 271.814908 286.318564 
L 272.143063 290.420048 
L 272.471218 290.130531 
L 272.799373 283.158009 
L 273.127528 279.828569 
L 273.783837 287.910905 
L 274.111992 292.217463 
L 274.440147 288.707075 
L 274.768302 277.295299 
L 275.096457 273.133499 
L 275.424612 272.735414 
L 275.752766 274.255376 
L 276.080921 277.946711 
L 276.409076 284.062748 
L 276.737231 280.226654 
L 277.065386 278.248291 
L 277.393541 280.262843 
L 278.049851 289.551498 
L 278.70616 280.443791 
L 279.034315 280.383475 
L 279.36247 285.208751 
L 279.690625 288.30899 
L 280.01878 285.8481 
L 280.346935 280.793624 
L 280.675089 284.255759 
L 281.003244 290.432111 
L 281.331399 286.390943 
L 281.659554 292.024452 
L 281.987709 289.068971 
L 282.315864 287.500756 
L 282.644019 281.638047 
L 282.972173 280.492044 
L 283.300328 288.489938 
L 283.628483 283.459588 
L 283.956638 288.996592 
L 284.284793 282.434217 
L 284.612948 285.534457 
L 284.941103 287.331872 
L 285.269258 286.222058 
L 285.597412 292.422537 
L 285.925567 286.716649 
L 286.253722 286.161742 
L 286.581877 289.068971 
L 286.910032 297.706213 
L 287.238187 293.954562 
L 287.566342 293.134265 
L 287.894496 285.232877 
L 288.222651 286.60808 
L 288.550806 295.884672 
L 288.878961 295.426271 
L 289.207116 288.719138 
L 289.535271 284.907171 
L 289.863426 287.959157 
L 290.19158 294.859301 
L 290.519735 298.285247 
L 290.84789 295.788167 
L 291.176045 286.921723 
L 292.16051 293.435845 
L 292.488665 294.43709 
L 292.816819 285.269067 
L 293.144974 287.066482 
L 293.473129 286.089363 
L 293.801284 293.158392 
L 294.129439 291.421292 
L 294.457594 295.727851 
L 294.785749 295.378018 
L 295.113903 294.171699 
L 295.442058 294.750732 
L 295.770213 296.198315 
L 296.098368 307.803102 
L 296.426523 301.62675 
L 296.754678 303.918755 
L 297.082833 294.605974 
L 297.410988 291.433356 
L 297.739142 298.5627 
L 298.067297 301.89214 
L 298.395452 300.577252 
L 299.051762 294.147573 
L 299.379917 300.311862 
L 299.708072 297.392571 
L 300.036226 300.818516 
L 300.364381 301.047717 
L 300.692536 294.328521 
L 301.020691 296.741158 
L 301.348846 303.629239 
L 301.677001 298.635079 
L 302.005156 302.302288 
L 302.33331 294.786922 
L 302.661465 294.738669 
L 302.98962 299.732829 
L 303.317775 298.900469 
L 303.64593 300.215357 
L 303.974085 298.466194 
L 304.30224 292.012389 
L 304.630395 299.346807 
L 305.286704 304.244461 
L 305.943014 309.516075 
L 306.271169 306.8863 
L 307.255633 312.857578 
L 307.583788 311.771891 
L 307.911943 310.227803 
L 308.240098 311.651259 
L 308.568253 311.482374 
L 308.896408 309.974476 
L 309.224563 305.836802 
L 309.552717 304.220335 
L 309.880872 309.745275 
L 310.209027 313.135031 
L 310.865337 302.338478 
L 311.193492 311.796017 
L 311.521647 307.236132 
L 311.849802 307.103437 
L 312.177956 302.965764 
L 312.834266 315.463226 
L 313.162421 310.348435 
L 313.490576 282.313585 
L 313.818731 285.003676 
L 314.146886 291.686683 
L 314.47504 295.836419 
L 314.803195 290.938765 
L 315.13135 284.243696 
L 315.459505 290.407985 
L 315.78766 287.271556 
L 316.115815 285.353509 
L 316.44397 284.352264 
L 316.772124 282.012006 
L 317.100279 281.215835 
L 317.428434 404.694629 
L 317.756589 371.882757 
L 318.084744 353.269258 
L 318.412899 317.550158 
L 318.741054 309.576391 
L 319.069209 316.729861 
L 319.397363 293.628856 
L 319.725518 285.413825 
L 320.053673 284.400517 
L 320.381828 286.258248 
L 320.709983 285.679215 
L 321.038138 275.341063 
L 321.366293 278.549871 
L 321.694447 276.08898 
L 322.022602 279.647621 
L 322.350757 279.213346 
L 322.678912 276.909277 
L 323.007067 281.493289 
L 323.335222 280.902192 
L 323.663377 283.01325 
L 323.991531 282.494533 
L 324.319686 278.308607 
L 324.647841 277.247046 
L 325.304151 289.563562 
L 325.632306 293.218708 
L 325.960461 285.01574 
L 326.288616 282.289459 
L 326.61677 284.135127 
L 326.944925 290.178784 
L 327.27308 288.538191 
L 327.601235 286.125553 
L 327.92939 289.828952 
L 328.5857 287.162987 
L 328.913854 288.333116 
L 329.242009 285.425888 
L 329.570164 286.90966 
L 329.898319 282.615165 
L 330.226474 281.987879 
L 330.554629 283.978305 
L 330.882784 283.990369 
L 331.210938 293.351403 
L 331.539093 285.437951 
L 331.867248 284.388454 
L 332.195403 286.415069 
L 332.523558 293.242834 
L 332.851713 297.115117 
L 333.179868 289.020718 
L 333.508023 290.371795 
L 333.836177 287.21124 
L 334.164332 292.410474 
L 334.492487 288.827707 
L 335.476952 285.462078 
L 335.805107 286.137616 
L 336.133261 290.130531 
L 336.461416 290.528617 
L 336.789571 288.634696 
L 337.117726 328.817176 
L 337.445881 329.999368 
L 337.774036 332.363753 
L 338.102191 335.886204 
L 338.430346 295.944988 
L 338.7585 293.098076 
L 339.086655 291.553988 
L 339.41481 297.296065 
L 339.742965 291.674619 
L 340.07112 292.977444 
L 340.399275 291.023207 
L 340.72743 291.095586 
L 341.055584 289.165476 
L 341.383739 291.07146 
L 341.711894 301.36136 
L 342.040049 299.889651 
L 342.368204 303.387975 
L 342.696359 296.125936 
L 343.024514 292.277779 
L 343.352668 300.601379 
L 343.680823 301.59056 
L 344.008978 295.028186 
L 344.337133 294.70248 
L 344.665288 289.551498 
L 344.993443 300.22742 
L 345.321598 304.280651 
L 345.649753 302.447046 
L 345.977907 295.788167 
L 346.306062 299.443313 
L 346.634217 299.045227 
L 346.962372 295.53484 
L 347.290527 297.573518 
L 347.618682 297.633834 
L 347.946837 296.994485 
L 348.274991 298.502384 
L 348.603146 297.790656 
L 348.931301 299.081417 
L 349.259456 306.934552 
L 349.915766 299.877587 
L 350.243921 301.807697 
L 350.90023 311.590943 
L 351.228385 308.116745 
L 351.55654 306.186635 
L 351.884695 303.074332 
L 352.21285 306.753605 
L 352.541005 301.843887 
L 352.86916 307.778976 
L 353.197314 306.488214 
L 353.525469 302.145467 
L 353.853624 310.794773 
L 354.181779 286.559828 
L 354.509934 287.247429 
L 354.838089 286.969976 
L 355.166244 269.273279 
L 355.494398 272.723351 
L 355.822553 274.436324 
L 356.150708 274.786156 
L 356.478863 278.224165 
L 356.807018 275.968348 
L 357.135173 264.146424 
L 357.463328 264.797836 
L 357.791482 273.567774 
L 358.119637 272.457961 
L 358.447792 274.231249 
L 358.775947 272.554466 
L 359.104102 267.717128 
L 359.432257 269.019952 
L 360.088567 280.636802 
L 360.416721 277.403868 
L 360.744876 269.912628 
L 361.073031 273.965859 
L 361.401186 284.690034 
L 361.729341 285.715404 
L 362.057496 280.395539 
L 362.385651 269.683427 
L 362.713805 270.757051 
L 363.04196 272.602719 
L 363.69827 281.010761 
L 364.026425 272.626845 
L 364.35458 278.212101 
L 364.682735 278.610187 
L 365.010889 285.498267 
L 365.339044 279.961264 
L 365.667199 279.008272 
L 365.995354 283.869737 
L 366.323509 274.532829 
L 366.651664 275.268684 
L 367.307974 281.059014 
L 367.636128 282.977061 
L 367.964283 279.997453 
L 368.292438 278.561934 
L 368.620593 278.344797 
L 368.948748 290.299416 
L 369.276903 292.398411 
L 369.605058 285.908416 
L 369.933212 288.695012 
L 370.261367 283.930053 
L 370.589522 285.522393 
L 370.917677 286.499512 
L 371.245832 281.818995 
L 371.573987 278.960019 
L 371.902142 279.695874 
L 372.230296 290.661312 
L 372.558451 289.056908 
L 372.886606 282.964998 
L 373.214761 282.18089 
L 373.542916 288.405495 
L 373.871071 283.519904 
L 374.199226 294.111383 
L 374.527381 288.658822 
L 374.855535 290.106405 
L 375.18369 287.392188 
L 375.511845 287.17505 
L 375.84 282.192954 
L 376.168155 281.034888 
L 376.49631 286.354753 
L 376.824465 289.756573 
L 377.152619 285.377635 
L 377.480774 283.399272 
L 377.808929 283.218325 
L 378.137084 293.87012 
L 378.465239 295.474524 
L 378.793394 292.579359 
L 379.121549 285.655089 
L 379.777858 293.592666 
L 380.106013 292.289842 
L 380.434168 295.414208 
L 380.762323 286.415069 
L 381.090478 290.50449 
L 381.418633 292.856812 
L 381.746788 298.152551 
L 382.074942 295.944988 
L 382.403097 287.693767 
L 382.731252 288.429622 
L 383.059407 289.901331 
L 383.387562 295.378018 
L 383.715717 294.774859 
L 384.700181 289.201666 
L 385.028336 285.027803 
L 385.356491 287.898842 
L 385.684646 297.440823 
L 386.012801 293.073949 
L 386.340956 284.931297 
L 386.997265 295.872609 
L 387.32542 299.720766 
L 387.653575 298.948722 
L 387.98173 295.281513 
L 388.309885 294.774859 
L 388.63804 293.26696 
L 388.966195 296.162125 
L 389.294349 294.256142 
L 389.622504 285.317319 
L 389.950659 287.898842 
L 390.278814 295.486587 
L 390.606969 299.274428 
L 390.935124 291.095586 
L 391.263279 294.340584 
L 391.591433 290.576869 
L 391.919588 297.766529 
L 392.247743 302.362604 
L 392.575898 296.487831 
L 393.232208 295.80023 
L 393.560363 292.410474 
L 393.888518 293.025697 
L 394.216672 294.642164 
L 394.544827 295.607219 
L 395.201137 300.396304 
L 395.529292 296.511958 
L 395.857447 296.86179 
L 396.185602 297.718277 
L 396.513756 303.207027 
L 396.841911 298.840153 
L 397.170066 291.855567 
L 397.498221 301.228664 
L 397.826376 285.51033 
L 398.154531 277.283236 
L 398.482686 275.437568 
L 399.138995 265.678449 
L 399.46715 275.244557 
L 399.795305 279.020335 
L 400.77977 268.33235 
L 401.107925 275.172178 
L 401.436079 275.280747 
L 401.764234 275.883906 
L 402.092389 272.614782 
L 402.420544 273.531584 
L 402.748699 266.13685 
L 403.076854 267.80157 
L 403.733163 273.024931 
L 404.061318 270.286587 
L 404.389473 271.866865 
L 404.717628 272.433834 
L 405.045783 279.020335 
L 405.373938 280.745371 
L 405.702093 276.462939 
L 406.030247 278.984146 
L 406.358402 276.233739 
L 406.686557 272.277013 
L 407.014712 281.131393 
L 407.342867 281.879311 
L 407.671022 276.040728 
L 407.999177 272.554466 
L 408.327332 267.077779 
L 408.655486 279.502863 
L 408.983641 282.470407 
L 409.311796 278.694629 
L 409.639951 278.525744 
L 409.968106 276.969593 
L 410.296261 279.430483 
L 410.624416 279.647621 
L 410.95257 281.758679 
L 411.280725 276.933404 
L 411.60888 275.099799 
L 411.937035 278.32067 
L 412.26519 272.457961 
L 412.593345 279.213346 
L 413.249654 286.041111 
L 413.905964 275.123925 
L 414.234119 274.42426 
L 414.562274 286.415069 
L 414.890429 289.081034 
L 415.218584 281.6863 
L 415.546739 279.961264 
L 415.874893 279.466673 
L 416.203048 283.821484 
L 416.531203 290.432111 
L 416.859358 289.744509 
L 417.187513 286.885534 
L 417.515668 286.547764 
L 417.843823 286.403006 
L 418.171977 289.081034 
L 418.500132 289.611814 
L 418.828287 285.317319 
L 419.156442 283.158009 
L 419.484597 283.230388 
L 419.812752 289.430866 
L 420.140907 291.650493 
L 420.469062 286.185869 
L 420.797216 287.102671 
L 421.125371 289.310235 
L 421.781681 279.925074 
L 422.109836 286.306501 
L 422.437991 287.910905 
L 422.766146 287.187113 
L 423.0943 285.823973 
L 423.422455 286.427133 
L 423.75061 293.435845 
L 424.078765 296.29482 
L 424.40692 295.812293 
L 425.06323 287.597262 
L 425.391384 294.340584 
L 425.719539 294.618037 
L 426.047694 290.842259 
L 426.375849 281.999943 
L 426.704004 282.156764 
L 427.032159 292.157147 
L 427.360314 293.049823 
L 427.688469 292.446663 
L 428.016623 292.555232 
L 428.344778 287.030292 
L 428.672933 288.767391 
L 429.001088 287.283619 
L 429.329243 291.60224 
L 429.657398 292.338095 
L 429.985553 295.23326 
L 430.313707 291.409229 
L 430.641862 284.014495 
L 430.970017 286.499512 
L 431.298172 286.511575 
L 431.626327 295.19707 
L 431.954482 290.649248 
L 432.282637 283.809421 
L 432.610791 288.803581 
L 432.938946 296.789411 
L 433.267101 296.06562 
L 433.595256 296.318947 
L 434.251566 286.957913 
L 434.579721 298.671269 
L 434.907876 299.684576 
L 435.23603 298.442068 
L 435.89234 289.008655 
L 436.220495 302.98989 
L 436.54865 300.878832 
L 436.876805 301.385486 
L 437.20496 301.566434 
L 437.533114 294.09932 
L 437.861269 299.346807 
L 438.189424 300.082662 
L 438.517579 302.965764 
L 438.845734 303.532733 
L 439.173889 299.491565 
L 439.830198 302.193719 
L 440.158353 282.168827 
L 440.486508 273.3627 
L 440.814663 275.497884 
L 441.470973 271.99956 
L 441.799128 273.133499 
L 442.127283 280.55236 
L 442.455437 280.974572 
L 442.783592 273.012867 
L 443.111747 274.677587 
L 443.439902 277.126415 
L 443.768057 276.39056 
L 444.424367 280.841876 
L 444.752521 280.926319 
L 445.080676 281.372657 
L 445.408831 281.42091 
L 445.736986 276.535318 
L 446.065141 278.947956 
L 446.393296 274.810282 
L 446.721451 274.918851 
L 447.049605 274.315692 
L 447.37776 279.309852 
L 447.705915 280.383475 
L 448.03407 282.989124 
L 448.362225 275.135989 
L 448.69038 274.942978 
L 449.018535 279.044461 
L 449.34669 279.406357 
L 449.674844 283.218325 
L 450.002999 283.737042 
L 450.331154 280.85394 
L 450.659309 276.137233 
L 450.987464 281.541541 
L 451.315619 277.994964 
L 451.643774 280.130148 
L 451.971928 276.306118 
L 452.300083 279.128904 
L 452.628238 275.29281 
L 452.956393 281.855184 
L 453.284548 284.665907 
L 453.612703 281.565668 
L 454.597167 286.041111 
L 454.925322 286.415069 
L 455.253477 283.712915 
L 455.581632 287.524883 
L 455.909787 286.185869 
L 456.237942 287.886778 
L 456.566097 288.333116 
L 456.894251 292.663801 
L 457.550561 288.622633 
L 457.878716 286.282374 
L 458.206871 288.779454 
L 458.535026 288.152169 
L 458.863181 290.938765 
L 459.191335 292.072705 
L 459.51949 285.100182 
L 459.847645 281.806932 
L 460.1758 281.167583 
L 460.503955 294.36471 
L 460.83211 292.386348 
L 461.160265 286.813155 
L 461.48842 288.357243 
L 462.144729 295.957051 
L 462.472884 290.227037 
L 462.801039 291.505735 
L 463.129194 287.922968 
L 463.457349 294.207889 
L 463.785504 289.032781 
L 464.113658 295.824356 
L 464.441813 290.999081 
L 464.769968 287.922968 
L 465.098123 291.698746 
L 465.426278 288.465811 
L 465.754433 283.893863 
L 466.082588 287.874715 
L 466.410742 283.35102 
L 466.738897 289.225792 
L 467.067052 289.575625 
L 467.395207 286.861407 
L 467.723362 289.322298 
L 468.051517 288.212484 
L 468.379672 285.558583 
L 468.707827 286.34269 
L 469.035981 291.578114 
L 469.364136 293.459971 
L 469.692291 300.637568 
L 470.020446 296.499895 
L 470.348601 289.732446 
L 470.676756 292.350158 
L 471.004911 300.046472 
L 471.333065 298.695395 
L 471.989375 290.661312 
L 472.31753 289.997836 
L 472.97384 300.034409 
L 473.301995 299.382997 
L 473.630149 288.34518 
L 473.958304 293.640919 
L 474.286459 292.133021 
L 474.942769 302.531489 
L 475.927234 291.421292 
L 476.255388 295.305639 
L 476.583543 295.619282 
L 476.911698 291.047334 
L 477.239853 296.150062 
L 477.568008 292.893001 
L 477.896163 291.360977 
L 478.224318 296.427516 
L 478.552472 297.875098 
L 478.880627 306.524404 
L 479.208782 305.173327 
L 479.536937 297.561455 
L 479.865092 297.670024 
L 480.521402 304.220335 
L 480.849556 302.266099 
L 481.177711 302.640057 
L 481.505866 306.572657 
L 481.834021 303.737808 
L 482.162176 303.810187 
L 482.490331 304.714926 
L 483.146641 300.625505 
L 483.474795 307.766912 
L 483.80295 310.879215 
L 484.131105 305.836802 
L 484.45926 304.160019 
L 484.787415 283.604347 
L 485.11557 275.329 
L 485.443725 279.430483 
L 485.771879 279.333978 
L 486.100034 276.052791 
L 486.428189 277.536563 
L 486.756344 275.82359 
L 487.084499 277.283236 
L 487.412654 272.723351 
L 487.740809 276.92134 
L 488.068963 285.01574 
L 488.397118 282.458344 
L 488.725273 277.801953 
L 489.053428 275.883906 
L 489.381583 286.390943 
L 489.709738 285.341446 
L 490.037893 282.470407 
L 490.694202 273.89348 
L 491.022357 282.964998 
L 491.350512 285.317319 
L 491.678667 282.349775 
L 492.006822 275.82359 
L 492.991286 289.479119 
L 493.975751 282.072322 
L 494.303906 277.934648 
L 494.632061 277.041972 
L 494.960216 279.044461 
L 495.28837 279.864758 
L 495.616525 285.751594 
L 496.272835 273.495395 
L 496.60099 282.361838 
L 496.929145 287.44044 
L 497.2573 289.97371 
L 497.585455 289.093097 
L 497.913609 284.581465 
L 498.241764 277.681321 
L 498.569919 283.121819 
L 498.898074 291.047334 
L 499.226229 290.166721 
L 499.554384 281.9155 
L 499.882539 279.15303 
L 500.210693 287.428377 
L 500.538848 290.794007 
L 500.867003 289.491182 
L 501.195158 318.937425 
L 501.851468 330.349201 
L 502.179623 326.476917 
L 502.507778 296.668779 
L 502.835932 292.639674 
L 503.164087 294.4009 
L 503.492242 292.301905 
L 503.820397 282.48247 
L 504.476707 285.24494 
L 504.804862 293.809804 
L 505.133016 283.04944 
L 505.461171 284.738286 
L 506.117481 299.563944 
L 506.773791 292.760306 
L 507.101946 286.185869 
L 507.4301 285.027803 
L 507.758255 294.714543 
L 508.08641 296.475768 
L 508.414565 292.603485 
L 508.74272 286.415069 
L 509.39903 297.19956 
L 509.727185 297.887161 
L 510.055339 284.919234 
L 510.383494 294.66629 
L 510.711649 295.80023 
L 511.039804 294.593911 
L 511.367959 291.60224 
L 511.696114 299.829335 
L 512.024269 296.186252 
L 512.352423 295.739914 
L 512.680578 289.213729 
L 513.336888 284.726223 
L 513.665043 285.51033 
L 513.993198 295.836419 
L 514.321353 292.422537 
L 514.977662 292.929191 
L 515.633972 302.760689 
L 515.962127 303.810187 
L 516.618437 291.324787 
L 516.946592 297.778593 
L 517.274746 302.012772 
L 517.602901 302.784816 
L 518.259211 288.115979 
L 518.587366 298.538573 
L 518.915521 304.220335 
L 519.243676 299.551881 
L 519.57183 292.760306 
L 519.899985 297.247812 
L 520.22814 299.515692 
L 520.556295 304.12383 
L 520.88445 303.339722 
L 521.212605 298.345562 
L 521.54076 300.070598 
L 521.868914 294.123447 
L 522.197069 296.934169 
L 522.525224 303.713681 
L 522.853379 303.134648 
L 523.181534 299.829335 
L 523.509689 301.904203 
L 523.837844 301.699129 
L 524.165999 299.69664 
L 524.494153 303.182901 
L 524.822308 312.773135 
L 525.150463 313.2436 
L 525.478618 304.401283 
L 525.806773 303.303533 
L 526.134928 310.686204 
L 526.463083 310.686204 
L 526.791237 304.292714 
L 527.119392 304.220335 
L 527.447547 305.595539 
L 527.775702 311.796017 
L 528.103857 314.389603 
L 528.432012 314.703246 
L 529.416476 307.766912 
L 529.744631 310.674141 
L 530.072786 309.697022 
L 530.400941 312.966146 
L 530.729096 291.264471 
L 531.057251 283.531967 
L 531.385406 283.905926 
L 531.71356 287.295682 
L 532.041715 283.8818 
L 532.36987 286.511575 
L 532.698025 281.6863 
L 533.354335 276.450876 
L 534.010644 291.710809 
L 534.338799 282.844366 
L 534.666954 287.717894 
L 534.995109 282.494533 
L 535.323264 283.857674 
L 535.651419 284.509086 
L 535.979574 325.801379 
L 536.635883 318.985677 
L 536.964038 323.666194 
L 537.292193 301.771508 
L 537.620348 297.151307 
L 537.948503 296.958296 
L 538.276658 300.311862 
L 538.932967 289.925457 
L 539.261122 289.841015 
L 539.589277 289.032781 
L 539.917432 291.192092 
L 540.573742 279.044461 
L 541.558206 290.263226 
L 541.886361 284.653844 
L 542.214516 281.855184 
L 542.542671 277.596879 
L 542.870826 288.526127 
L 543.198981 284.581465 
L 543.527136 287.319809 
L 543.85529 281.6863 
L 544.183445 282.012006 
L 544.5116 295.100565 
L 544.839755 295.317702 
L 545.16791 295.80023 
L 545.496065 290.456237 
L 545.82422 288.284864 
L 546.152374 290.407985 
L 546.480529 290.866386 
L 546.808684 296.487831 
L 547.136839 283.531967 
L 547.464994 289.768636 
L 547.793149 288.888023 
L 548.449458 292.844749 
L 548.777613 289.322298 
L 549.105768 292.724117 
L 549.433923 285.257003 
L 549.762078 290.046089 
L 550.090233 288.514064 
L 550.418388 289.696257 
L 550.746543 294.871364 
L 551.402852 287.862652 
L 551.731007 290.251163 
L 552.059162 302.254035 
L 552.387317 305.293959 
L 552.715472 300.589315 
L 553.043627 292.338095 
L 553.371781 292.760306 
L 554.028091 299.684576 
L 554.356246 301.397549 
L 554.684401 295.619282 
L 555.012556 296.162125 
L 555.668865 304.558104 
L 555.99702 300.360115 
L 556.325175 292.229526 
L 556.65333 302.664184 
L 556.981485 301.05978 
L 557.30964 296.210378 
L 557.637795 298.586826 
L 557.96595 299.214112 
L 558.294104 295.751977 
L 558.622259 288.851833 
L 558.950414 294.412963 
L 559.278569 296.33101 
L 559.606724 296.041494 
L 559.934879 296.355136 
L 560.263034 295.631345 
L 560.591188 300.142978 
L 560.919343 296.005304 
L 561.247498 300.830579 
L 561.575653 304.003198 
L 562.231963 295.848483 
L 562.560118 303.448291 
L 562.888272 301.940393 
L 563.216427 301.083906 
L 563.544582 298.707458 
L 563.872737 300.818516 
L 564.200892 301.192475 
L 564.529047 299.563944 
L 564.857202 299.515692 
L 565.185357 304.787305 
L 565.513511 297.46495 
L 565.841666 306.488214 
L 566.169821 311.0481 
L 566.497976 310.070981 
L 566.826131 303.182901 
L 567.154286 302.652121 
L 567.482441 303.110522 
L 567.810595 297.42876 
L 568.13875 295.329765 
L 568.466905 302.338478 
L 568.79506 304.968253 
L 569.123215 304.980316 
L 569.45137 308.020239 
L 569.779525 306.427899 
L 570.435834 314.582614 
L 570.763989 312.664567 
L 571.092144 311.687449 
L 571.420299 306.174572 
L 571.748454 313.726127 
L 572.076609 294.871364 
L 572.404764 283.363083 
L 572.732918 284.207506 
L 573.061073 280.841876 
L 573.389228 287.766146 
L 574.045538 282.964998 
L 574.373693 281.782805 
L 574.701848 284.509086 
L 575.030002 288.634696 
L 575.358157 283.917989 
L 575.686312 288.031537 
L 576.014467 281.38472 
L 576.342622 281.782805 
L 576.670777 278.308607 
L 576.998932 277.608942 
L 577.327086 285.860163 
L 577.655241 278.549871 
L 577.983396 287.295682 
L 578.639706 281.674236 
L 578.967861 285.28113 
L 579.296016 290.938765 
L 579.624171 294.352647 
L 579.952325 289.225792 
L 580.28048 281.674236 
L 580.608635 281.987879 
L 580.93679 293.363466 
L 581.264945 290.576869 
L 581.921255 290.709564 
L 582.249409 291.397166 
L 582.577564 296.656716 
L 582.905719 289.274045 
L 583.233874 289.479119 
L 583.562029 287.283619 
L 583.890184 293.025697 
L 584.218339 292.784433 
L 584.546494 286.390943 
L 584.874648 285.715404 
L 585.202803 286.185869 
L 585.530958 285.534457 
L 585.859113 286.752839 
L 586.187268 282.060258 
L 587.171732 294.376774 
L 587.499887 290.27529 
L 587.828042 290.588933 
L 588.156197 290.492427 
L 588.484352 292.410474 
L 588.812507 297.12718 
L 589.140662 293.279023 
L 589.468816 285.341446 
L 590.453281 295.727851 
L 590.781436 297.090991 
L 591.109591 295.896735 
L 591.437746 293.906309 
L 591.765901 301.120096 
L 592.42221 297.838909 
L 592.750365 294.581848 
L 593.07852 300.49281 
L 593.406675 297.69415 
L 593.73483 292.712054 
L 594.062985 298.743648 
L 594.391139 294.111383 
L 594.719294 291.505735 
L 595.047449 287.162987 
L 595.375604 289.068971 
L 595.703759 290.178784 
L 596.031914 290.371795 
L 596.360069 305.064758 
L 596.688223 295.812293 
L 597.016378 293.665045 
L 597.344533 296.005304 
L 597.672688 296.005304 
L 598.000843 300.384241 
L 598.328998 300.818516 
L 598.657153 290.118468 
L 598.985308 289.479119 
L 599.313462 299.407123 
L 599.641617 296.680843 
L 599.969772 299.250302 
L 600.297927 293.665045 
L 600.626082 291.626367 
L 600.954237 296.572274 
L 601.282392 298.490321 
L 601.610546 299.455376 
L 601.938701 298.900469 
L 602.266856 299.033164 
L 602.595011 296.02943 
L 602.923166 299.865524 
L 603.251321 294.328521 
L 603.90763 305.474907 
L 604.235785 294.43709 
L 604.56394 297.477013 
L 604.892095 296.053557 
L 605.22025 298.779837 
L 605.548405 304.751115 
L 606.204715 294.895491 
L 606.532869 297.863035 
L 606.861024 307.694533 
L 607.189179 306.8863 
L 607.517334 303.134648 
L 607.845489 296.463705 
L 608.829953 309.214495 
L 609.158108 307.598028 
L 609.486263 296.524021 
L 609.814418 298.779837 
L 610.142573 309.286874 
L 610.470728 315.17371 
L 611.783347 300.348052 
L 612.111502 304.811431 
L 612.439657 304.847621 
L 612.767812 305.993624 
L 613.095967 303.231154 
L 613.424122 294.605974 
L 613.752276 299.455376 
L 614.080431 302.073088 
L 614.408586 309.890034 
L 614.736741 306.934552 
L 615.064896 308.635462 
L 615.393051 306.488214 
L 615.721206 306.572657 
L 616.04936 312.423303 
L 616.377515 315.101331 
L 616.70567 298.550637 
L 617.033825 299.756955 
L 617.36198 305.511096 
L 617.690135 309.311 
L 618.01829 287.138861 
L 618.346444 430.92 
L 618.674599 417.348913 
L 619.002754 112.74135 
L 619.330909 78.12 
L 619.330909 78.12 
" style="fill:none;stroke:#1f77b4;stroke-linecap:square;stroke-width:1.5;"/>
   </g>
   <g id="patch_3">
    <path d="M 108 448.56 
L 108 60.48 
" style="fill:none;stroke:#000000;stroke-linecap:square;stroke-linejoin:miter;stroke-width:0.8;"/>
   </g>
   <g id="patch_4">
    <path d="M 643.68 448.56 
L 643.68 60.48 
" style="fill:none;stroke:#000000;stroke-linecap:square;stroke-linejoin:miter;stroke-width:0.8;"/>
   </g>
   <g id="patch_5">
    <path d="M 108 448.56 
L 643.68 448.56 
" style="fill:none;stroke:#000000;stroke-linecap:square;stroke-linejoin:miter;stroke-width:0.8;"/>
   </g>
   <g id="patch_6">
    <path d="M 108 60.48 
L 643.68 60.48 
" style="fill:none;stroke:#000000;stroke-linecap:square;stroke-linejoin:miter;stroke-width:0.8;"/>
   </g>
   <g id="text_30">
    <!-- docker - free -->
    <g transform="translate(328.339219 54.48)scale(0.15 -0.15)">
     <defs>
      <path d="M 45.40625 46.390625 
L 45.40625 75.984375 
L 54.390625 75.984375 
L 54.390625 0 
L 45.40625 0 
L 45.40625 8.203125 
Q 42.578125 3.328125 38.25 0.953125 
Q 33.9375 -1.421875 27.875 -1.421875 
Q 17.96875 -1.421875 11.734375 6.484375 
Q 5.515625 14.40625 5.515625 27.296875 
Q 5.515625 40.1875 11.734375 48.09375 
Q 17.96875 56 27.875 56 
Q 33.9375 56 38.25 53.625 
Q 42.578125 51.265625 45.40625 46.390625 
z
M 14.796875 27.296875 
Q 14.796875 17.390625 18.875 11.75 
Q 22.953125 6.109375 30.078125 6.109375 
Q 37.203125 6.109375 41.296875 11.75 
Q 45.40625 17.390625 45.40625 27.296875 
Q 45.40625 37.203125 41.296875 42.84375 
Q 37.203125 48.484375 30.078125 48.484375 
Q 22.953125 48.484375 18.875 42.84375 
Q 14.796875 37.203125 14.796875 27.296875 
z
" id="DejaVuSans-100"/>
      <path d="M 30.609375 48.390625 
Q 23.390625 48.390625 19.1875 42.75 
Q 14.984375 37.109375 14.984375 27.296875 
Q 14.984375 17.484375 19.15625 11.84375 
Q 23.34375 6.203125 30.609375 6.203125 
Q 37.796875 6.203125 41.984375 11.859375 
Q 46.1875 17.53125 46.1875 27.296875 
Q 46.1875 37.015625 41.984375 42.703125 
Q 37.796875 48.390625 30.609375 48.390625 
z
M 30.609375 56 
Q 42.328125 56 49.015625 48.375 
Q 55.71875 40.765625 55.71875 27.296875 
Q 55.71875 13.875 49.015625 6.21875 
Q 42.328125 -1.421875 30.609375 -1.421875 
Q 18.84375 -1.421875 12.171875 6.21875 
Q 5.515625 13.875 5.515625 27.296875 
Q 5.515625 40.765625 12.171875 48.375 
Q 18.84375 56 30.609375 56 
z
" id="DejaVuSans-111"/>
      <path d="M 48.78125 52.59375 
L 48.78125 44.1875 
Q 44.96875 46.296875 41.140625 47.34375 
Q 37.3125 48.390625 33.40625 48.390625 
Q 24.65625 48.390625 19.8125 42.84375 
Q 14.984375 37.3125 14.984375 27.296875 
Q 14.984375 17.28125 19.8125 11.734375 
Q 24.65625 6.203125 33.40625 6.203125 
Q 37.3125 6.203125 41.140625 7.25 
Q 44.96875 8.296875 48.78125 10.40625 
L 48.78125 2.09375 
Q 45.015625 0.34375 40.984375 -0.53125 
Q 36.96875 -1.421875 32.421875 -1.421875 
Q 20.0625 -1.421875 12.78125 6.34375 
Q 5.515625 14.109375 5.515625 27.296875 
Q 5.515625 40.671875 12.859375 48.328125 
Q 20.21875 56 33.015625 56 
Q 37.15625 56 41.109375 55.140625 
Q 45.0625 54.296875 48.78125 52.59375 
z
" id="DejaVuSans-99"/>
      <path d="M 9.078125 75.984375 
L 18.109375 75.984375 
L 18.109375 31.109375 
L 44.921875 54.6875 
L 56.390625 54.6875 
L 27.390625 29.109375 
L 57.625 0 
L 45.90625 0 
L 18.109375 26.703125 
L 18.109375 0 
L 9.078125 0 
z
" id="DejaVuSans-107"/>
      <path d="M 41.109375 46.296875 
Q 39.59375 47.171875 37.8125 47.578125 
Q 36.03125 48 33.890625 48 
Q 26.265625 48 22.1875 43.046875 
Q 18.109375 38.09375 18.109375 28.8125 
L 18.109375 0 
L 9.078125 0 
L 9.078125 54.6875 
L 18.109375 54.6875 
L 18.109375 46.1875 
Q 20.953125 51.171875 25.484375 53.578125 
Q 30.03125 56 36.53125 56 
Q 37.453125 56 38.578125 55.875 
Q 39.703125 55.765625 41.0625 55.515625 
z
" id="DejaVuSans-114"/>
      <path id="DejaVuSans-32"/>
      <path d="M 4.890625 31.390625 
L 31.203125 31.390625 
L 31.203125 23.390625 
L 4.890625 23.390625 
z
" id="DejaVuSans-45"/>
      <path d="M 37.109375 75.984375 
L 37.109375 68.5 
L 28.515625 68.5 
Q 23.6875 68.5 21.796875 66.546875 
Q 19.921875 64.59375 19.921875 59.515625 
L 19.921875 54.6875 
L 34.71875 54.6875 
L 34.71875 47.703125 
L 19.921875 47.703125 
L 19.921875 0 
L 10.890625 0 
L 10.890625 47.703125 
L 2.296875 47.703125 
L 2.296875 54.6875 
L 10.890625 54.6875 
L 10.890625 58.5 
Q 10.890625 67.625 15.140625 71.796875 
Q 19.390625 75.984375 28.609375 75.984375 
z
" id="DejaVuSans-102"/>
     </defs>
     <use xlink:href="#DejaVuSans-100"/>
     <use x="63.476562" xlink:href="#DejaVuSans-111"/>
     <use x="124.658203" xlink:href="#DejaVuSans-99"/>
     <use x="179.638672" xlink:href="#DejaVuSans-107"/>
     <use x="233.923828" xlink:href="#DejaVuSans-101"/>
     <use x="295.447266" xlink:href="#DejaVuSans-114"/>
     <use x="336.560547" xlink:href="#DejaVuSans-32"/>
     <use x="368.347656" xlink:href="#DejaVuSans-45"/>
     <use x="404.431641" xlink:href="#DejaVuSans-32"/>
     <use x="436.21875" xlink:href="#DejaVuSans-102"/>
     <use x="471.423828" xlink:href="#DejaVuSans-114"/>
     <use x="510.287109" xlink:href="#DejaVuSans-101"/>
     <use x="571.810547" xlink:href="#DejaVuSans-101"/>
    </g>
   </g>
   <g id="legend_1">
    <g id="patch_7">
     <path d="M 650.68 258.52 
L 654.68 258.52 
Q 656.68 258.52 656.68 256.52 
L 656.68 252.52 
Q 656.68 250.52 654.68 250.52 
L 650.68 250.52 
Q 648.68 250.52 648.68 252.52 
L 648.68 256.52 
Q 648.68 258.52 650.68 258.52 
z
" style="fill:#ffffff;opacity:0.8;stroke:#cccccc;stroke-linejoin:miter;"/>
    </g>
   </g>
  </g>
 </g>
 <defs>
  <clipPath id="pa615aa85e7">
   <rect height="388.08" width="535.68" x="108" y="60.48"/>
  </clipPath>
 </defs>
</svg>
