<?xml version="1.0" encoding="utf-8" standalone="no"?>
<!DOCTYPE svg PUBLIC "-//W3C//DTD SVG 1.1//EN"
  "http://www.w3.org/Graphics/SVG/1.1/DTD/svg11.dtd">
<!-- Created with matplotlib (https://matplotlib.org/) -->
<svg height="504pt" version="1.1" viewBox="0 0 864 504" width="864pt" xmlns="http://www.w3.org/2000/svg" xmlns:xlink="http://www.w3.org/1999/xlink">
 <metadata>
  <rdf:RDF xmlns:cc="http://creativecommons.org/ns#" xmlns:dc="http://purl.org/dc/elements/1.1/" xmlns:rdf="http://www.w3.org/1999/02/22-rdf-syntax-ns#">
   <cc:Work>
    <dc:type rdf:resource="http://purl.org/dc/dcmitype/StillImage"/>
    <dc:date>2022-05-29T17:16:21.442959</dc:date>
    <dc:format>image/svg+xml</dc:format>
    <dc:creator>
     <cc:Agent>
      <dc:title>Matplotlib v3.3.4, https://matplotlib.org/</dc:title>
     </cc:Agent>
    </dc:creator>
   </cc:Work>
  </rdf:RDF>
 </metadata>
 <defs>
  <style type="text/css">*{stroke-linecap:butt;stroke-linejoin:round;}</style>
 </defs>
 <g id="figure_1">
  <g id="patch_1">
   <path d="M 0 504 
L 864 504 
L 864 0 
L 0 0 
z
" style="fill:#ffffff;"/>
  </g>
  <g id="axes_1">
   <g id="patch_2">
    <path d="M 108 448.56 
L 643.68 448.56 
L 643.68 60.48 
L 108 60.48 
z
" style="fill:#ffffff;"/>
   </g>
   <g id="matplotlib.axis_1">
    <g id="xtick_1">
     <g id="line2d_1">
      <defs>
       <path d="M 0 0 
L 0 3.5 
" id="m55a5641f19" style="stroke:#000000;stroke-width:0.8;"/>
      </defs>
      <g>
       <use style="stroke:#000000;stroke-width:0.8;" x="132.349091" xlink:href="#m55a5641f19" y="448.56"/>
      </g>
     </g>
     <g id="text_1">
      <!-- 20:32:14 -->
      <g transform="translate(135.108466 500.4725)rotate(-90)scale(0.1 -0.1)">
       <defs>
        <path d="M 19.1875 8.296875 
L 53.609375 8.296875 
L 53.609375 0 
L 7.328125 0 
L 7.328125 8.296875 
Q 12.9375 14.109375 22.625 23.890625 
Q 32.328125 33.6875 34.8125 36.53125 
Q 39.546875 41.84375 41.421875 45.53125 
Q 43.3125 49.21875 43.3125 52.78125 
Q 43.3125 58.59375 39.234375 62.25 
Q 35.15625 65.921875 28.609375 65.921875 
Q 23.96875 65.921875 18.8125 64.3125 
Q 13.671875 62.703125 7.8125 59.421875 
L 7.8125 69.390625 
Q 13.765625 71.78125 18.9375 73 
Q 24.125 74.21875 28.421875 74.21875 
Q 39.75 74.21875 46.484375 68.546875 
Q 53.21875 62.890625 53.21875 53.421875 
Q 53.21875 48.921875 51.53125 44.890625 
Q 49.859375 40.875 45.40625 35.40625 
Q 44.1875 33.984375 37.640625 27.21875 
Q 31.109375 20.453125 19.1875 8.296875 
z
" id="DejaVuSans-50"/>
        <path d="M 31.78125 66.40625 
Q 24.171875 66.40625 20.328125 58.90625 
Q 16.5 51.421875 16.5 36.375 
Q 16.5 21.390625 20.328125 13.890625 
Q 24.171875 6.390625 31.78125 6.390625 
Q 39.453125 6.390625 43.28125 13.890625 
Q 47.125 21.390625 47.125 36.375 
Q 47.125 51.421875 43.28125 58.90625 
Q 39.453125 66.40625 31.78125 66.40625 
z
M 31.78125 74.21875 
Q 44.046875 74.21875 50.515625 64.515625 
Q 56.984375 54.828125 56.984375 36.375 
Q 56.984375 17.96875 50.515625 8.265625 
Q 44.046875 -1.421875 31.78125 -1.421875 
Q 19.53125 -1.421875 13.0625 8.265625 
Q 6.59375 17.96875 6.59375 36.375 
Q 6.59375 54.828125 13.0625 64.515625 
Q 19.53125 74.21875 31.78125 74.21875 
z
" id="DejaVuSans-48"/>
        <path d="M 11.71875 12.40625 
L 22.015625 12.40625 
L 22.015625 0 
L 11.71875 0 
z
M 11.71875 51.703125 
L 22.015625 51.703125 
L 22.015625 39.3125 
L 11.71875 39.3125 
z
" id="DejaVuSans-58"/>
        <path d="M 40.578125 39.3125 
Q 47.65625 37.796875 51.625 33 
Q 55.609375 28.21875 55.609375 21.1875 
Q 55.609375 10.40625 48.1875 4.484375 
Q 40.765625 -1.421875 27.09375 -1.421875 
Q 22.515625 -1.421875 17.65625 -0.515625 
Q 12.796875 0.390625 7.625 2.203125 
L 7.625 11.71875 
Q 11.71875 9.328125 16.59375 8.109375 
Q 21.484375 6.890625 26.8125 6.890625 
Q 36.078125 6.890625 40.9375 10.546875 
Q 45.796875 14.203125 45.796875 21.1875 
Q 45.796875 27.640625 41.28125 31.265625 
Q 36.765625 34.90625 28.71875 34.90625 
L 20.21875 34.90625 
L 20.21875 43.015625 
L 29.109375 43.015625 
Q 36.375 43.015625 40.234375 45.921875 
Q 44.09375 48.828125 44.09375 54.296875 
Q 44.09375 59.90625 40.109375 62.90625 
Q 36.140625 65.921875 28.71875 65.921875 
Q 24.65625 65.921875 20.015625 65.03125 
Q 15.375 64.15625 9.8125 62.3125 
L 9.8125 71.09375 
Q 15.4375 72.65625 20.34375 73.4375 
Q 25.25 74.21875 29.59375 74.21875 
Q 40.828125 74.21875 47.359375 69.109375 
Q 53.90625 64.015625 53.90625 55.328125 
Q 53.90625 49.265625 50.4375 45.09375 
Q 46.96875 40.921875 40.578125 39.3125 
z
" id="DejaVuSans-51"/>
        <path d="M 12.40625 8.296875 
L 28.515625 8.296875 
L 28.515625 63.921875 
L 10.984375 60.40625 
L 10.984375 69.390625 
L 28.421875 72.90625 
L 38.28125 72.90625 
L 38.28125 8.296875 
L 54.390625 8.296875 
L 54.390625 0 
L 12.40625 0 
z
" id="DejaVuSans-49"/>
        <path d="M 37.796875 64.3125 
L 12.890625 25.390625 
L 37.796875 25.390625 
z
M 35.203125 72.90625 
L 47.609375 72.90625 
L 47.609375 25.390625 
L 58.015625 25.390625 
L 58.015625 17.1875 
L 47.609375 17.1875 
L 47.609375 0 
L 37.796875 0 
L 37.796875 17.1875 
L 4.890625 17.1875 
L 4.890625 26.703125 
z
" id="DejaVuSans-52"/>
       </defs>
       <use xlink:href="#DejaVuSans-50"/>
       <use x="63.623047" xlink:href="#DejaVuSans-48"/>
       <use x="127.246094" xlink:href="#DejaVuSans-58"/>
       <use x="160.9375" xlink:href="#DejaVuSans-51"/>
       <use x="224.560547" xlink:href="#DejaVuSans-50"/>
       <use x="288.183594" xlink:href="#DejaVuSans-58"/>
       <use x="321.875" xlink:href="#DejaVuSans-49"/>
       <use x="385.498047" xlink:href="#DejaVuSans-52"/>
      </g>
     </g>
    </g>
    <g id="xtick_2">
     <g id="line2d_2">
      <g>
       <use style="stroke:#000000;stroke-width:0.8;" x="156.581997" xlink:href="#m55a5641f19" y="448.56"/>
      </g>
     </g>
     <g id="text_2">
      <!-- 20:33:39 -->
      <g transform="translate(159.341372 500.4725)rotate(-90)scale(0.1 -0.1)">
       <defs>
        <path d="M 10.984375 1.515625 
L 10.984375 10.5 
Q 14.703125 8.734375 18.5 7.8125 
Q 22.3125 6.890625 25.984375 6.890625 
Q 35.75 6.890625 40.890625 13.453125 
Q 46.046875 20.015625 46.78125 33.40625 
Q 43.953125 29.203125 39.59375 26.953125 
Q 35.25 24.703125 29.984375 24.703125 
Q 19.046875 24.703125 12.671875 31.3125 
Q 6.296875 37.9375 6.296875 49.421875 
Q 6.296875 60.640625 12.9375 67.421875 
Q 19.578125 74.21875 30.609375 74.21875 
Q 43.265625 74.21875 49.921875 64.515625 
Q 56.59375 54.828125 56.59375 36.375 
Q 56.59375 19.140625 48.40625 8.859375 
Q 40.234375 -1.421875 26.421875 -1.421875 
Q 22.703125 -1.421875 18.890625 -0.6875 
Q 15.09375 0.046875 10.984375 1.515625 
z
M 30.609375 32.421875 
Q 37.25 32.421875 41.125 36.953125 
Q 45.015625 41.5 45.015625 49.421875 
Q 45.015625 57.28125 41.125 61.84375 
Q 37.25 66.40625 30.609375 66.40625 
Q 23.96875 66.40625 20.09375 61.84375 
Q 16.21875 57.28125 16.21875 49.421875 
Q 16.21875 41.5 20.09375 36.953125 
Q 23.96875 32.421875 30.609375 32.421875 
z
" id="DejaVuSans-57"/>
       </defs>
       <use xlink:href="#DejaVuSans-50"/>
       <use x="63.623047" xlink:href="#DejaVuSans-48"/>
       <use x="127.246094" xlink:href="#DejaVuSans-58"/>
       <use x="160.9375" xlink:href="#DejaVuSans-51"/>
       <use x="224.560547" xlink:href="#DejaVuSans-51"/>
       <use x="288.183594" xlink:href="#DejaVuSans-58"/>
       <use x="321.875" xlink:href="#DejaVuSans-51"/>
       <use x="385.498047" xlink:href="#DejaVuSans-57"/>
      </g>
     </g>
    </g>
    <g id="xtick_3">
     <g id="line2d_3">
      <g>
       <use style="stroke:#000000;stroke-width:0.8;" x="180.814902" xlink:href="#m55a5641f19" y="448.56"/>
      </g>
     </g>
     <g id="text_3">
      <!-- 20:35:05 -->
      <g transform="translate(183.574277 500.4725)rotate(-90)scale(0.1 -0.1)">
       <defs>
        <path d="M 10.796875 72.90625 
L 49.515625 72.90625 
L 49.515625 64.59375 
L 19.828125 64.59375 
L 19.828125 46.734375 
Q 21.96875 47.46875 24.109375 47.828125 
Q 26.265625 48.1875 28.421875 48.1875 
Q 40.625 48.1875 47.75 41.5 
Q 54.890625 34.8125 54.890625 23.390625 
Q 54.890625 11.625 47.5625 5.09375 
Q 40.234375 -1.421875 26.90625 -1.421875 
Q 22.3125 -1.421875 17.546875 -0.640625 
Q 12.796875 0.140625 7.71875 1.703125 
L 7.71875 11.625 
Q 12.109375 9.234375 16.796875 8.0625 
Q 21.484375 6.890625 26.703125 6.890625 
Q 35.15625 6.890625 40.078125 11.328125 
Q 45.015625 15.765625 45.015625 23.390625 
Q 45.015625 31 40.078125 35.4375 
Q 35.15625 39.890625 26.703125 39.890625 
Q 22.75 39.890625 18.8125 39.015625 
Q 14.890625 38.140625 10.796875 36.28125 
z
" id="DejaVuSans-53"/>
       </defs>
       <use xlink:href="#DejaVuSans-50"/>
       <use x="63.623047" xlink:href="#DejaVuSans-48"/>
       <use x="127.246094" xlink:href="#DejaVuSans-58"/>
       <use x="160.9375" xlink:href="#DejaVuSans-51"/>
       <use x="224.560547" xlink:href="#DejaVuSans-53"/>
       <use x="288.183594" xlink:href="#DejaVuSans-58"/>
       <use x="321.875" xlink:href="#DejaVuSans-48"/>
       <use x="385.498047" xlink:href="#DejaVuSans-53"/>
      </g>
     </g>
    </g>
    <g id="xtick_4">
     <g id="line2d_4">
      <g>
       <use style="stroke:#000000;stroke-width:0.8;" x="205.047808" xlink:href="#m55a5641f19" y="448.56"/>
      </g>
     </g>
     <g id="text_4">
      <!-- 20:36:30 -->
      <g transform="translate(207.807183 500.4725)rotate(-90)scale(0.1 -0.1)">
       <defs>
        <path d="M 33.015625 40.375 
Q 26.375 40.375 22.484375 35.828125 
Q 18.609375 31.296875 18.609375 23.390625 
Q 18.609375 15.53125 22.484375 10.953125 
Q 26.375 6.390625 33.015625 6.390625 
Q 39.65625 6.390625 43.53125 10.953125 
Q 47.40625 15.53125 47.40625 23.390625 
Q 47.40625 31.296875 43.53125 35.828125 
Q 39.65625 40.375 33.015625 40.375 
z
M 52.59375 71.296875 
L 52.59375 62.3125 
Q 48.875 64.0625 45.09375 64.984375 
Q 41.3125 65.921875 37.59375 65.921875 
Q 27.828125 65.921875 22.671875 59.328125 
Q 17.53125 52.734375 16.796875 39.40625 
Q 19.671875 43.65625 24.015625 45.921875 
Q 28.375 48.1875 33.59375 48.1875 
Q 44.578125 48.1875 50.953125 41.515625 
Q 57.328125 34.859375 57.328125 23.390625 
Q 57.328125 12.15625 50.6875 5.359375 
Q 44.046875 -1.421875 33.015625 -1.421875 
Q 20.359375 -1.421875 13.671875 8.265625 
Q 6.984375 17.96875 6.984375 36.375 
Q 6.984375 53.65625 15.1875 63.9375 
Q 23.390625 74.21875 37.203125 74.21875 
Q 40.921875 74.21875 44.703125 73.484375 
Q 48.484375 72.75 52.59375 71.296875 
z
" id="DejaVuSans-54"/>
       </defs>
       <use xlink:href="#DejaVuSans-50"/>
       <use x="63.623047" xlink:href="#DejaVuSans-48"/>
       <use x="127.246094" xlink:href="#DejaVuSans-58"/>
       <use x="160.9375" xlink:href="#DejaVuSans-51"/>
       <use x="224.560547" xlink:href="#DejaVuSans-54"/>
       <use x="288.183594" xlink:href="#DejaVuSans-58"/>
       <use x="321.875" xlink:href="#DejaVuSans-51"/>
       <use x="385.498047" xlink:href="#DejaVuSans-48"/>
      </g>
     </g>
    </g>
    <g id="xtick_5">
     <g id="line2d_5">
      <g>
       <use style="stroke:#000000;stroke-width:0.8;" x="229.280714" xlink:href="#m55a5641f19" y="448.56"/>
      </g>
     </g>
     <g id="text_5">
      <!-- 20:37:55 -->
      <g transform="translate(232.040089 500.4725)rotate(-90)scale(0.1 -0.1)">
       <defs>
        <path d="M 8.203125 72.90625 
L 55.078125 72.90625 
L 55.078125 68.703125 
L 28.609375 0 
L 18.3125 0 
L 43.21875 64.59375 
L 8.203125 64.59375 
z
" id="DejaVuSans-55"/>
       </defs>
       <use xlink:href="#DejaVuSans-50"/>
       <use x="63.623047" xlink:href="#DejaVuSans-48"/>
       <use x="127.246094" xlink:href="#DejaVuSans-58"/>
       <use x="160.9375" xlink:href="#DejaVuSans-51"/>
       <use x="224.560547" xlink:href="#DejaVuSans-55"/>
       <use x="288.183594" xlink:href="#DejaVuSans-58"/>
       <use x="321.875" xlink:href="#DejaVuSans-53"/>
       <use x="385.498047" xlink:href="#DejaVuSans-53"/>
      </g>
     </g>
    </g>
    <g id="xtick_6">
     <g id="line2d_6">
      <g>
       <use style="stroke:#000000;stroke-width:0.8;" x="253.51362" xlink:href="#m55a5641f19" y="448.56"/>
      </g>
     </g>
     <g id="text_6">
      <!-- 20:39:20 -->
      <g transform="translate(256.272995 500.4725)rotate(-90)scale(0.1 -0.1)">
       <use xlink:href="#DejaVuSans-50"/>
       <use x="63.623047" xlink:href="#DejaVuSans-48"/>
       <use x="127.246094" xlink:href="#DejaVuSans-58"/>
       <use x="160.9375" xlink:href="#DejaVuSans-51"/>
       <use x="224.560547" xlink:href="#DejaVuSans-57"/>
       <use x="288.183594" xlink:href="#DejaVuSans-58"/>
       <use x="321.875" xlink:href="#DejaVuSans-50"/>
       <use x="385.498047" xlink:href="#DejaVuSans-48"/>
      </g>
     </g>
    </g>
    <g id="xtick_7">
     <g id="line2d_7">
      <g>
       <use style="stroke:#000000;stroke-width:0.8;" x="277.746525" xlink:href="#m55a5641f19" y="448.56"/>
      </g>
     </g>
     <g id="text_7">
      <!-- 20:40:45 -->
      <g transform="translate(280.5059 500.4725)rotate(-90)scale(0.1 -0.1)">
       <use xlink:href="#DejaVuSans-50"/>
       <use x="63.623047" xlink:href="#DejaVuSans-48"/>
       <use x="127.246094" xlink:href="#DejaVuSans-58"/>
       <use x="160.9375" xlink:href="#DejaVuSans-52"/>
       <use x="224.560547" xlink:href="#DejaVuSans-48"/>
       <use x="288.183594" xlink:href="#DejaVuSans-58"/>
       <use x="321.875" xlink:href="#DejaVuSans-52"/>
       <use x="385.498047" xlink:href="#DejaVuSans-53"/>
      </g>
     </g>
    </g>
    <g id="xtick_8">
     <g id="line2d_8">
      <g>
       <use style="stroke:#000000;stroke-width:0.8;" x="301.979431" xlink:href="#m55a5641f19" y="448.56"/>
      </g>
     </g>
     <g id="text_8">
      <!-- 20:42:11 -->
      <g transform="translate(304.738806 500.4725)rotate(-90)scale(0.1 -0.1)">
       <use xlink:href="#DejaVuSans-50"/>
       <use x="63.623047" xlink:href="#DejaVuSans-48"/>
       <use x="127.246094" xlink:href="#DejaVuSans-58"/>
       <use x="160.9375" xlink:href="#DejaVuSans-52"/>
       <use x="224.560547" xlink:href="#DejaVuSans-50"/>
       <use x="288.183594" xlink:href="#DejaVuSans-58"/>
       <use x="321.875" xlink:href="#DejaVuSans-49"/>
       <use x="385.498047" xlink:href="#DejaVuSans-49"/>
      </g>
     </g>
    </g>
    <g id="xtick_9">
     <g id="line2d_9">
      <g>
       <use style="stroke:#000000;stroke-width:0.8;" x="326.212337" xlink:href="#m55a5641f19" y="448.56"/>
      </g>
     </g>
     <g id="text_9">
      <!-- 20:43:36 -->
      <g transform="translate(328.971712 500.4725)rotate(-90)scale(0.1 -0.1)">
       <use xlink:href="#DejaVuSans-50"/>
       <use x="63.623047" xlink:href="#DejaVuSans-48"/>
       <use x="127.246094" xlink:href="#DejaVuSans-58"/>
       <use x="160.9375" xlink:href="#DejaVuSans-52"/>
       <use x="224.560547" xlink:href="#DejaVuSans-51"/>
       <use x="288.183594" xlink:href="#DejaVuSans-58"/>
       <use x="321.875" xlink:href="#DejaVuSans-51"/>
       <use x="385.498047" xlink:href="#DejaVuSans-54"/>
      </g>
     </g>
    </g>
    <g id="xtick_10">
     <g id="line2d_10">
      <g>
       <use style="stroke:#000000;stroke-width:0.8;" x="350.445243" xlink:href="#m55a5641f19" y="448.56"/>
      </g>
     </g>
     <g id="text_10">
      <!-- 20:45:01 -->
      <g transform="translate(353.204618 500.4725)rotate(-90)scale(0.1 -0.1)">
       <use xlink:href="#DejaVuSans-50"/>
       <use x="63.623047" xlink:href="#DejaVuSans-48"/>
       <use x="127.246094" xlink:href="#DejaVuSans-58"/>
       <use x="160.9375" xlink:href="#DejaVuSans-52"/>
       <use x="224.560547" xlink:href="#DejaVuSans-53"/>
       <use x="288.183594" xlink:href="#DejaVuSans-58"/>
       <use x="321.875" xlink:href="#DejaVuSans-48"/>
       <use x="385.498047" xlink:href="#DejaVuSans-49"/>
      </g>
     </g>
    </g>
    <g id="xtick_11">
     <g id="line2d_11">
      <g>
       <use style="stroke:#000000;stroke-width:0.8;" x="374.678148" xlink:href="#m55a5641f19" y="448.56"/>
      </g>
     </g>
     <g id="text_11">
      <!-- 20:46:26 -->
      <g transform="translate(377.437523 500.4725)rotate(-90)scale(0.1 -0.1)">
       <use xlink:href="#DejaVuSans-50"/>
       <use x="63.623047" xlink:href="#DejaVuSans-48"/>
       <use x="127.246094" xlink:href="#DejaVuSans-58"/>
       <use x="160.9375" xlink:href="#DejaVuSans-52"/>
       <use x="224.560547" xlink:href="#DejaVuSans-54"/>
       <use x="288.183594" xlink:href="#DejaVuSans-58"/>
       <use x="321.875" xlink:href="#DejaVuSans-50"/>
       <use x="385.498047" xlink:href="#DejaVuSans-54"/>
      </g>
     </g>
    </g>
    <g id="xtick_12">
     <g id="line2d_12">
      <g>
       <use style="stroke:#000000;stroke-width:0.8;" x="398.911054" xlink:href="#m55a5641f19" y="448.56"/>
      </g>
     </g>
     <g id="text_12">
      <!-- 20:47:51 -->
      <g transform="translate(401.670429 500.4725)rotate(-90)scale(0.1 -0.1)">
       <use xlink:href="#DejaVuSans-50"/>
       <use x="63.623047" xlink:href="#DejaVuSans-48"/>
       <use x="127.246094" xlink:href="#DejaVuSans-58"/>
       <use x="160.9375" xlink:href="#DejaVuSans-52"/>
       <use x="224.560547" xlink:href="#DejaVuSans-55"/>
       <use x="288.183594" xlink:href="#DejaVuSans-58"/>
       <use x="321.875" xlink:href="#DejaVuSans-53"/>
       <use x="385.498047" xlink:href="#DejaVuSans-49"/>
      </g>
     </g>
    </g>
    <g id="xtick_13">
     <g id="line2d_13">
      <g>
       <use style="stroke:#000000;stroke-width:0.8;" x="423.14396" xlink:href="#m55a5641f19" y="448.56"/>
      </g>
     </g>
     <g id="text_13">
      <!-- 20:49:16 -->
      <g transform="translate(425.903335 500.4725)rotate(-90)scale(0.1 -0.1)">
       <use xlink:href="#DejaVuSans-50"/>
       <use x="63.623047" xlink:href="#DejaVuSans-48"/>
       <use x="127.246094" xlink:href="#DejaVuSans-58"/>
       <use x="160.9375" xlink:href="#DejaVuSans-52"/>
       <use x="224.560547" xlink:href="#DejaVuSans-57"/>
       <use x="288.183594" xlink:href="#DejaVuSans-58"/>
       <use x="321.875" xlink:href="#DejaVuSans-49"/>
       <use x="385.498047" xlink:href="#DejaVuSans-54"/>
      </g>
     </g>
    </g>
    <g id="xtick_14">
     <g id="line2d_14">
      <g>
       <use style="stroke:#000000;stroke-width:0.8;" x="447.376866" xlink:href="#m55a5641f19" y="448.56"/>
      </g>
     </g>
     <g id="text_14">
      <!-- 20:50:42 -->
      <g transform="translate(450.136241 500.4725)rotate(-90)scale(0.1 -0.1)">
       <use xlink:href="#DejaVuSans-50"/>
       <use x="63.623047" xlink:href="#DejaVuSans-48"/>
       <use x="127.246094" xlink:href="#DejaVuSans-58"/>
       <use x="160.9375" xlink:href="#DejaVuSans-53"/>
       <use x="224.560547" xlink:href="#DejaVuSans-48"/>
       <use x="288.183594" xlink:href="#DejaVuSans-58"/>
       <use x="321.875" xlink:href="#DejaVuSans-52"/>
       <use x="385.498047" xlink:href="#DejaVuSans-50"/>
      </g>
     </g>
    </g>
    <g id="xtick_15">
     <g id="line2d_15">
      <g>
       <use style="stroke:#000000;stroke-width:0.8;" x="471.609771" xlink:href="#m55a5641f19" y="448.56"/>
      </g>
     </g>
     <g id="text_15">
      <!-- 20:52:07 -->
      <g transform="translate(474.369146 500.4725)rotate(-90)scale(0.1 -0.1)">
       <use xlink:href="#DejaVuSans-50"/>
       <use x="63.623047" xlink:href="#DejaVuSans-48"/>
       <use x="127.246094" xlink:href="#DejaVuSans-58"/>
       <use x="160.9375" xlink:href="#DejaVuSans-53"/>
       <use x="224.560547" xlink:href="#DejaVuSans-50"/>
       <use x="288.183594" xlink:href="#DejaVuSans-58"/>
       <use x="321.875" xlink:href="#DejaVuSans-48"/>
       <use x="385.498047" xlink:href="#DejaVuSans-55"/>
      </g>
     </g>
    </g>
    <g id="xtick_16">
     <g id="line2d_16">
      <g>
       <use style="stroke:#000000;stroke-width:0.8;" x="495.842677" xlink:href="#m55a5641f19" y="448.56"/>
      </g>
     </g>
     <g id="text_16">
      <!-- 20:53:32 -->
      <g transform="translate(498.602052 500.4725)rotate(-90)scale(0.1 -0.1)">
       <use xlink:href="#DejaVuSans-50"/>
       <use x="63.623047" xlink:href="#DejaVuSans-48"/>
       <use x="127.246094" xlink:href="#DejaVuSans-58"/>
       <use x="160.9375" xlink:href="#DejaVuSans-53"/>
       <use x="224.560547" xlink:href="#DejaVuSans-51"/>
       <use x="288.183594" xlink:href="#DejaVuSans-58"/>
       <use x="321.875" xlink:href="#DejaVuSans-51"/>
       <use x="385.498047" xlink:href="#DejaVuSans-50"/>
      </g>
     </g>
    </g>
    <g id="xtick_17">
     <g id="line2d_17">
      <g>
       <use style="stroke:#000000;stroke-width:0.8;" x="520.075583" xlink:href="#m55a5641f19" y="448.56"/>
      </g>
     </g>
     <g id="text_17">
      <!-- 20:54:57 -->
      <g transform="translate(522.834958 500.4725)rotate(-90)scale(0.1 -0.1)">
       <use xlink:href="#DejaVuSans-50"/>
       <use x="63.623047" xlink:href="#DejaVuSans-48"/>
       <use x="127.246094" xlink:href="#DejaVuSans-58"/>
       <use x="160.9375" xlink:href="#DejaVuSans-53"/>
       <use x="224.560547" xlink:href="#DejaVuSans-52"/>
       <use x="288.183594" xlink:href="#DejaVuSans-58"/>
       <use x="321.875" xlink:href="#DejaVuSans-53"/>
       <use x="385.498047" xlink:href="#DejaVuSans-55"/>
      </g>
     </g>
    </g>
    <g id="xtick_18">
     <g id="line2d_18">
      <g>
       <use style="stroke:#000000;stroke-width:0.8;" x="544.308489" xlink:href="#m55a5641f19" y="448.56"/>
      </g>
     </g>
     <g id="text_18">
      <!-- 20:56:23 -->
      <g transform="translate(547.067864 500.4725)rotate(-90)scale(0.1 -0.1)">
       <use xlink:href="#DejaVuSans-50"/>
       <use x="63.623047" xlink:href="#DejaVuSans-48"/>
       <use x="127.246094" xlink:href="#DejaVuSans-58"/>
       <use x="160.9375" xlink:href="#DejaVuSans-53"/>
       <use x="224.560547" xlink:href="#DejaVuSans-54"/>
       <use x="288.183594" xlink:href="#DejaVuSans-58"/>
       <use x="321.875" xlink:href="#DejaVuSans-50"/>
       <use x="385.498047" xlink:href="#DejaVuSans-51"/>
      </g>
     </g>
    </g>
    <g id="xtick_19">
     <g id="line2d_19">
      <g>
       <use style="stroke:#000000;stroke-width:0.8;" x="568.541394" xlink:href="#m55a5641f19" y="448.56"/>
      </g>
     </g>
     <g id="text_19">
      <!-- 20:57:48 -->
      <g transform="translate(571.300769 500.4725)rotate(-90)scale(0.1 -0.1)">
       <defs>
        <path d="M 31.78125 34.625 
Q 24.75 34.625 20.71875 30.859375 
Q 16.703125 27.09375 16.703125 20.515625 
Q 16.703125 13.921875 20.71875 10.15625 
Q 24.75 6.390625 31.78125 6.390625 
Q 38.8125 6.390625 42.859375 10.171875 
Q 46.921875 13.96875 46.921875 20.515625 
Q 46.921875 27.09375 42.890625 30.859375 
Q 38.875 34.625 31.78125 34.625 
z
M 21.921875 38.8125 
Q 15.578125 40.375 12.03125 44.71875 
Q 8.5 49.078125 8.5 55.328125 
Q 8.5 64.0625 14.71875 69.140625 
Q 20.953125 74.21875 31.78125 74.21875 
Q 42.671875 74.21875 48.875 69.140625 
Q 55.078125 64.0625 55.078125 55.328125 
Q 55.078125 49.078125 51.53125 44.71875 
Q 48 40.375 41.703125 38.8125 
Q 48.828125 37.15625 52.796875 32.3125 
Q 56.78125 27.484375 56.78125 20.515625 
Q 56.78125 9.90625 50.3125 4.234375 
Q 43.84375 -1.421875 31.78125 -1.421875 
Q 19.734375 -1.421875 13.25 4.234375 
Q 6.78125 9.90625 6.78125 20.515625 
Q 6.78125 27.484375 10.78125 32.3125 
Q 14.796875 37.15625 21.921875 38.8125 
z
M 18.3125 54.390625 
Q 18.3125 48.734375 21.84375 45.5625 
Q 25.390625 42.390625 31.78125 42.390625 
Q 38.140625 42.390625 41.71875 45.5625 
Q 45.3125 48.734375 45.3125 54.390625 
Q 45.3125 60.0625 41.71875 63.234375 
Q 38.140625 66.40625 31.78125 66.40625 
Q 25.390625 66.40625 21.84375 63.234375 
Q 18.3125 60.0625 18.3125 54.390625 
z
" id="DejaVuSans-56"/>
       </defs>
       <use xlink:href="#DejaVuSans-50"/>
       <use x="63.623047" xlink:href="#DejaVuSans-48"/>
       <use x="127.246094" xlink:href="#DejaVuSans-58"/>
       <use x="160.9375" xlink:href="#DejaVuSans-53"/>
       <use x="224.560547" xlink:href="#DejaVuSans-55"/>
       <use x="288.183594" xlink:href="#DejaVuSans-58"/>
       <use x="321.875" xlink:href="#DejaVuSans-52"/>
       <use x="385.498047" xlink:href="#DejaVuSans-56"/>
      </g>
     </g>
    </g>
    <g id="xtick_20">
     <g id="line2d_20">
      <g>
       <use style="stroke:#000000;stroke-width:0.8;" x="592.7743" xlink:href="#m55a5641f19" y="448.56"/>
      </g>
     </g>
     <g id="text_20">
      <!-- 20:59:13 -->
      <g transform="translate(595.533675 500.4725)rotate(-90)scale(0.1 -0.1)">
       <use xlink:href="#DejaVuSans-50"/>
       <use x="63.623047" xlink:href="#DejaVuSans-48"/>
       <use x="127.246094" xlink:href="#DejaVuSans-58"/>
       <use x="160.9375" xlink:href="#DejaVuSans-53"/>
       <use x="224.560547" xlink:href="#DejaVuSans-57"/>
       <use x="288.183594" xlink:href="#DejaVuSans-58"/>
       <use x="321.875" xlink:href="#DejaVuSans-49"/>
       <use x="385.498047" xlink:href="#DejaVuSans-51"/>
      </g>
     </g>
    </g>
    <g id="xtick_21">
     <g id="line2d_21">
      <g>
       <use style="stroke:#000000;stroke-width:0.8;" x="617.007206" xlink:href="#m55a5641f19" y="448.56"/>
      </g>
     </g>
     <g id="text_21">
      <!-- 21:00:38 -->
      <g transform="translate(619.766581 500.4725)rotate(-90)scale(0.1 -0.1)">
       <use xlink:href="#DejaVuSans-50"/>
       <use x="63.623047" xlink:href="#DejaVuSans-49"/>
       <use x="127.246094" xlink:href="#DejaVuSans-58"/>
       <use x="160.9375" xlink:href="#DejaVuSans-48"/>
       <use x="224.560547" xlink:href="#DejaVuSans-48"/>
       <use x="288.183594" xlink:href="#DejaVuSans-58"/>
       <use x="321.875" xlink:href="#DejaVuSans-51"/>
       <use x="385.498047" xlink:href="#DejaVuSans-56"/>
      </g>
     </g>
    </g>
    <g id="text_22">
     <!-- timestamp -->
     <g transform="translate(354.264375 510.55125)scale(0.08 -0.08)">
      <defs>
       <path d="M 18.3125 70.21875 
L 18.3125 54.6875 
L 36.8125 54.6875 
L 36.8125 47.703125 
L 18.3125 47.703125 
L 18.3125 18.015625 
Q 18.3125 11.328125 20.140625 9.421875 
Q 21.96875 7.515625 27.59375 7.515625 
L 36.8125 7.515625 
L 36.8125 0 
L 27.59375 0 
Q 17.1875 0 13.234375 3.875 
Q 9.28125 7.765625 9.28125 18.015625 
L 9.28125 47.703125 
L 2.6875 47.703125 
L 2.6875 54.6875 
L 9.28125 54.6875 
L 9.28125 70.21875 
z
" id="DejaVuSans-116"/>
       <path d="M 9.421875 54.6875 
L 18.40625 54.6875 
L 18.40625 0 
L 9.421875 0 
z
M 9.421875 75.984375 
L 18.40625 75.984375 
L 18.40625 64.59375 
L 9.421875 64.59375 
z
" id="DejaVuSans-105"/>
       <path d="M 52 44.1875 
Q 55.375 50.25 60.0625 53.125 
Q 64.75 56 71.09375 56 
Q 79.640625 56 84.28125 50.015625 
Q 88.921875 44.046875 88.921875 33.015625 
L 88.921875 0 
L 79.890625 0 
L 79.890625 32.71875 
Q 79.890625 40.578125 77.09375 44.375 
Q 74.3125 48.1875 68.609375 48.1875 
Q 61.625 48.1875 57.5625 43.546875 
Q 53.515625 38.921875 53.515625 30.90625 
L 53.515625 0 
L 44.484375 0 
L 44.484375 32.71875 
Q 44.484375 40.625 41.703125 44.40625 
Q 38.921875 48.1875 33.109375 48.1875 
Q 26.21875 48.1875 22.15625 43.53125 
Q 18.109375 38.875 18.109375 30.90625 
L 18.109375 0 
L 9.078125 0 
L 9.078125 54.6875 
L 18.109375 54.6875 
L 18.109375 46.1875 
Q 21.1875 51.21875 25.484375 53.609375 
Q 29.78125 56 35.6875 56 
Q 41.65625 56 45.828125 52.96875 
Q 50 49.953125 52 44.1875 
z
" id="DejaVuSans-109"/>
       <path d="M 56.203125 29.59375 
L 56.203125 25.203125 
L 14.890625 25.203125 
Q 15.484375 15.921875 20.484375 11.0625 
Q 25.484375 6.203125 34.421875 6.203125 
Q 39.59375 6.203125 44.453125 7.46875 
Q 49.3125 8.734375 54.109375 11.28125 
L 54.109375 2.78125 
Q 49.265625 0.734375 44.1875 -0.34375 
Q 39.109375 -1.421875 33.890625 -1.421875 
Q 20.796875 -1.421875 13.15625 6.1875 
Q 5.515625 13.8125 5.515625 26.8125 
Q 5.515625 40.234375 12.765625 48.109375 
Q 20.015625 56 32.328125 56 
Q 43.359375 56 49.78125 48.890625 
Q 56.203125 41.796875 56.203125 29.59375 
z
M 47.21875 32.234375 
Q 47.125 39.59375 43.09375 43.984375 
Q 39.0625 48.390625 32.421875 48.390625 
Q 24.90625 48.390625 20.390625 44.140625 
Q 15.875 39.890625 15.1875 32.171875 
z
" id="DejaVuSans-101"/>
       <path d="M 44.28125 53.078125 
L 44.28125 44.578125 
Q 40.484375 46.53125 36.375 47.5 
Q 32.28125 48.484375 27.875 48.484375 
Q 21.1875 48.484375 17.84375 46.4375 
Q 14.5 44.390625 14.5 40.28125 
Q 14.5 37.15625 16.890625 35.375 
Q 19.28125 33.59375 26.515625 31.984375 
L 29.59375 31.296875 
Q 39.15625 29.25 43.1875 25.515625 
Q 47.21875 21.78125 47.21875 15.09375 
Q 47.21875 7.46875 41.1875 3.015625 
Q 35.15625 -1.421875 24.609375 -1.421875 
Q 20.21875 -1.421875 15.453125 -0.5625 
Q 10.6875 0.296875 5.421875 2 
L 5.421875 11.28125 
Q 10.40625 8.6875 15.234375 7.390625 
Q 20.0625 6.109375 24.8125 6.109375 
Q 31.15625 6.109375 34.5625 8.28125 
Q 37.984375 10.453125 37.984375 14.40625 
Q 37.984375 18.0625 35.515625 20.015625 
Q 33.0625 21.96875 24.703125 23.78125 
L 21.578125 24.515625 
Q 13.234375 26.265625 9.515625 29.90625 
Q 5.8125 33.546875 5.8125 39.890625 
Q 5.8125 47.609375 11.28125 51.796875 
Q 16.75 56 26.8125 56 
Q 31.78125 56 36.171875 55.265625 
Q 40.578125 54.546875 44.28125 53.078125 
z
" id="DejaVuSans-115"/>
       <path d="M 34.28125 27.484375 
Q 23.390625 27.484375 19.1875 25 
Q 14.984375 22.515625 14.984375 16.5 
Q 14.984375 11.71875 18.140625 8.90625 
Q 21.296875 6.109375 26.703125 6.109375 
Q 34.1875 6.109375 38.703125 11.40625 
Q 43.21875 16.703125 43.21875 25.484375 
L 43.21875 27.484375 
z
M 52.203125 31.203125 
L 52.203125 0 
L 43.21875 0 
L 43.21875 8.296875 
Q 40.140625 3.328125 35.546875 0.953125 
Q 30.953125 -1.421875 24.3125 -1.421875 
Q 15.921875 -1.421875 10.953125 3.296875 
Q 6 8.015625 6 15.921875 
Q 6 25.140625 12.171875 29.828125 
Q 18.359375 34.515625 30.609375 34.515625 
L 43.21875 34.515625 
L 43.21875 35.40625 
Q 43.21875 41.609375 39.140625 45 
Q 35.0625 48.390625 27.6875 48.390625 
Q 23 48.390625 18.546875 47.265625 
Q 14.109375 46.140625 10.015625 43.890625 
L 10.015625 52.203125 
Q 14.9375 54.109375 19.578125 55.046875 
Q 24.21875 56 28.609375 56 
Q 40.484375 56 46.34375 49.84375 
Q 52.203125 43.703125 52.203125 31.203125 
z
" id="DejaVuSans-97"/>
       <path d="M 18.109375 8.203125 
L 18.109375 -20.796875 
L 9.078125 -20.796875 
L 9.078125 54.6875 
L 18.109375 54.6875 
L 18.109375 46.390625 
Q 20.953125 51.265625 25.265625 53.625 
Q 29.59375 56 35.59375 56 
Q 45.5625 56 51.78125 48.09375 
Q 58.015625 40.1875 58.015625 27.296875 
Q 58.015625 14.40625 51.78125 6.484375 
Q 45.5625 -1.421875 35.59375 -1.421875 
Q 29.59375 -1.421875 25.265625 0.953125 
Q 20.953125 3.328125 18.109375 8.203125 
z
M 48.6875 27.296875 
Q 48.6875 37.203125 44.609375 42.84375 
Q 40.53125 48.484375 33.40625 48.484375 
Q 26.265625 48.484375 22.1875 42.84375 
Q 18.109375 37.203125 18.109375 27.296875 
Q 18.109375 17.390625 22.1875 11.75 
Q 26.265625 6.109375 33.40625 6.109375 
Q 40.53125 6.109375 44.609375 11.75 
Q 48.6875 17.390625 48.6875 27.296875 
z
" id="DejaVuSans-112"/>
      </defs>
      <use xlink:href="#DejaVuSans-116"/>
      <use x="39.208984" xlink:href="#DejaVuSans-105"/>
      <use x="66.992188" xlink:href="#DejaVuSans-109"/>
      <use x="164.404297" xlink:href="#DejaVuSans-101"/>
      <use x="225.927734" xlink:href="#DejaVuSans-115"/>
      <use x="278.027344" xlink:href="#DejaVuSans-116"/>
      <use x="317.236328" xlink:href="#DejaVuSans-97"/>
      <use x="378.515625" xlink:href="#DejaVuSans-109"/>
      <use x="475.927734" xlink:href="#DejaVuSans-112"/>
     </g>
    </g>
   </g>
   <g id="matplotlib.axis_2">
    <g id="ytick_1">
     <g id="line2d_22">
      <defs>
       <path d="M 0 0 
L -3.5 0 
" id="mfdf3e19c9e" style="stroke:#000000;stroke-width:0.8;"/>
      </defs>
      <g>
       <use style="stroke:#000000;stroke-width:0.8;" x="108" xlink:href="#mfdf3e19c9e" y="405.75081"/>
      </g>
     </g>
     <g id="text_23">
      <!-- 12200 -->
      <g transform="translate(69.1875 409.550029)scale(0.1 -0.1)">
       <use xlink:href="#DejaVuSans-49"/>
       <use x="63.623047" xlink:href="#DejaVuSans-50"/>
       <use x="127.246094" xlink:href="#DejaVuSans-50"/>
       <use x="190.869141" xlink:href="#DejaVuSans-48"/>
       <use x="254.492188" xlink:href="#DejaVuSans-48"/>
      </g>
     </g>
    </g>
    <g id="ytick_2">
     <g id="line2d_23">
      <g>
       <use style="stroke:#000000;stroke-width:0.8;" x="108" xlink:href="#mfdf3e19c9e" y="347.60973"/>
      </g>
     </g>
     <g id="text_24">
      <!-- 12400 -->
      <g transform="translate(69.1875 351.408949)scale(0.1 -0.1)">
       <use xlink:href="#DejaVuSans-49"/>
       <use x="63.623047" xlink:href="#DejaVuSans-50"/>
       <use x="127.246094" xlink:href="#DejaVuSans-52"/>
       <use x="190.869141" xlink:href="#DejaVuSans-48"/>
       <use x="254.492188" xlink:href="#DejaVuSans-48"/>
      </g>
     </g>
    </g>
    <g id="ytick_3">
     <g id="line2d_24">
      <g>
       <use style="stroke:#000000;stroke-width:0.8;" x="108" xlink:href="#mfdf3e19c9e" y="289.46865"/>
      </g>
     </g>
     <g id="text_25">
      <!-- 12600 -->
      <g transform="translate(69.1875 293.267869)scale(0.1 -0.1)">
       <use xlink:href="#DejaVuSans-49"/>
       <use x="63.623047" xlink:href="#DejaVuSans-50"/>
       <use x="127.246094" xlink:href="#DejaVuSans-54"/>
       <use x="190.869141" xlink:href="#DejaVuSans-48"/>
       <use x="254.492188" xlink:href="#DejaVuSans-48"/>
      </g>
     </g>
    </g>
    <g id="ytick_4">
     <g id="line2d_25">
      <g>
       <use style="stroke:#000000;stroke-width:0.8;" x="108" xlink:href="#mfdf3e19c9e" y="231.32757"/>
      </g>
     </g>
     <g id="text_26">
      <!-- 12800 -->
      <g transform="translate(69.1875 235.126788)scale(0.1 -0.1)">
       <use xlink:href="#DejaVuSans-49"/>
       <use x="63.623047" xlink:href="#DejaVuSans-50"/>
       <use x="127.246094" xlink:href="#DejaVuSans-56"/>
       <use x="190.869141" xlink:href="#DejaVuSans-48"/>
       <use x="254.492188" xlink:href="#DejaVuSans-48"/>
      </g>
     </g>
    </g>
    <g id="ytick_5">
     <g id="line2d_26">
      <g>
       <use style="stroke:#000000;stroke-width:0.8;" x="108" xlink:href="#mfdf3e19c9e" y="173.186489"/>
      </g>
     </g>
     <g id="text_27">
      <!-- 13000 -->
      <g transform="translate(69.1875 176.985708)scale(0.1 -0.1)">
       <use xlink:href="#DejaVuSans-49"/>
       <use x="63.623047" xlink:href="#DejaVuSans-51"/>
       <use x="127.246094" xlink:href="#DejaVuSans-48"/>
       <use x="190.869141" xlink:href="#DejaVuSans-48"/>
       <use x="254.492188" xlink:href="#DejaVuSans-48"/>
      </g>
     </g>
    </g>
    <g id="ytick_6">
     <g id="line2d_27">
      <g>
       <use style="stroke:#000000;stroke-width:0.8;" x="108" xlink:href="#mfdf3e19c9e" y="115.045409"/>
      </g>
     </g>
     <g id="text_28">
      <!-- 13200 -->
      <g transform="translate(69.1875 118.844628)scale(0.1 -0.1)">
       <use xlink:href="#DejaVuSans-49"/>
       <use x="63.623047" xlink:href="#DejaVuSans-51"/>
       <use x="127.246094" xlink:href="#DejaVuSans-50"/>
       <use x="190.869141" xlink:href="#DejaVuSans-48"/>
       <use x="254.492188" xlink:href="#DejaVuSans-48"/>
      </g>
     </g>
    </g>
    <g id="text_29">
     <!-- MB -->
     <g transform="translate(63.52375 260.715625)rotate(-90)scale(0.08 -0.08)">
      <defs>
       <path d="M 9.8125 72.90625 
L 24.515625 72.90625 
L 43.109375 23.296875 
L 61.8125 72.90625 
L 76.515625 72.90625 
L 76.515625 0 
L 66.890625 0 
L 66.890625 64.015625 
L 48.09375 14.015625 
L 38.1875 14.015625 
L 19.390625 64.015625 
L 19.390625 0 
L 9.8125 0 
z
" id="DejaVuSans-77"/>
       <path d="M 19.671875 34.8125 
L 19.671875 8.109375 
L 35.5 8.109375 
Q 43.453125 8.109375 47.28125 11.40625 
Q 51.125 14.703125 51.125 21.484375 
Q 51.125 28.328125 47.28125 31.5625 
Q 43.453125 34.8125 35.5 34.8125 
z
M 19.671875 64.796875 
L 19.671875 42.828125 
L 34.28125 42.828125 
Q 41.5 42.828125 45.03125 45.53125 
Q 48.578125 48.25 48.578125 53.8125 
Q 48.578125 59.328125 45.03125 62.0625 
Q 41.5 64.796875 34.28125 64.796875 
z
M 9.8125 72.90625 
L 35.015625 72.90625 
Q 46.296875 72.90625 52.390625 68.21875 
Q 58.5 63.53125 58.5 54.890625 
Q 58.5 48.1875 55.375 44.234375 
Q 52.25 40.28125 46.1875 39.3125 
Q 53.46875 37.75 57.5 32.78125 
Q 61.53125 27.828125 61.53125 20.40625 
Q 61.53125 10.640625 54.890625 5.3125 
Q 48.25 0 35.984375 0 
L 9.8125 0 
z
" id="DejaVuSans-66"/>
      </defs>
      <use xlink:href="#DejaVuSans-77"/>
      <use x="86.279297" xlink:href="#DejaVuSans-66"/>
     </g>
    </g>
   </g>
   <g id="line2d_28">
    <path clip-path="url(#p7d27331ed5)" d="M 132.349091 80.183534 
L 132.681049 79.446472 
L 133.013006 85.795441 
L 133.344964 84.724976 
L 133.676921 80.197823 
L 134.008879 78.828484 
L 134.672794 80.889636 
L 135.004752 79.452426 
L 135.668667 78.12 
L 136.000625 79.956105 
L 136.66454 99.738882 
L 137.328455 156.424742 
L 137.660413 222.49593 
L 137.99237 245.680621 
L 138.324328 279.602118 
L 138.656286 293.71226 
L 138.988243 336.823806 
L 139.652158 391.042475 
L 139.984116 406.913706 
L 140.316074 409.789317 
L 140.648031 409.199906 
L 140.979989 409.265397 
L 141.643904 407.570989 
L 141.975862 409.14037 
L 142.639777 409.348748 
L 142.971735 408.399736 
L 143.63565 409.232056 
L 143.967607 408.820064 
L 144.299565 408.675986 
L 144.631523 407.503117 
L 144.96348 409.397568 
L 145.627395 409.754786 
L 145.959353 408.311622 
L 146.291311 408.515237 
L 146.623268 409.790508 
L 147.287183 409.664291 
L 147.619141 408.733141 
L 147.951099 411.509921 
L 148.283056 412.148152 
L 148.615014 410.581152 
L 148.946972 409.611899 
L 149.278929 409.346366 
L 149.610887 410.175114 
L 149.942844 409.927442 
L 150.274802 409.988169 
L 150.60676 408.263993 
L 150.938717 408.905796 
L 151.270675 408.799821 
L 151.93459 407.666247 
L 152.598505 409.54879 
L 152.930463 409.496398 
L 153.262421 408.826017 
L 153.594378 407.868671 
L 153.926336 410.210836 
L 154.258293 410.187021 
L 154.590251 409.598801 
L 154.922209 408.760527 
L 155.254166 408.842688 
L 155.586124 407.804372 
L 155.918081 408.188977 
L 156.250039 407.167331 
L 156.581997 407.5567 
L 156.913954 410.079855 
L 157.245912 409.95602 
L 157.577869 410.083428 
L 158.241785 408.17707 
L 158.573742 410.974093 
L 158.9057 411.125316 
L 159.569615 410.110814 
L 159.901573 410.066757 
L 160.23353 410.206073 
L 160.565488 409.024869 
L 160.897446 408.45451 
L 161.229403 410.110814 
L 161.561361 409.46663 
L 161.893318 409.382088 
L 162.225276 409.659528 
L 162.557234 408.979622 
L 162.889191 409.589275 
L 163.553107 409.590466 
L 163.885064 408.565248 
L 164.217022 409.045112 
L 164.548979 411.806413 
L 165.212895 411.113408 
L 165.544852 410.179877 
L 166.208767 410.244176 
L 166.872683 408.37235 
L 167.536598 410.088191 
L 167.868555 410.163206 
L 168.200513 410.00603 
L 168.532471 409.154659 
L 168.864428 410.537095 
L 169.528344 408.603351 
L 169.860301 408.468799 
L 170.192259 408.980812 
L 170.524216 410.564482 
L 170.856174 411.053872 
L 171.188132 411.00148 
L 171.520089 409.789317 
L 171.852047 412.241029 
L 172.184004 410.585915 
L 172.515962 410.715705 
L 172.84792 409.559507 
L 173.179877 410.138201 
L 173.511835 413.929483 
L 173.843793 413.886617 
L 174.17575 413.590125 
L 174.507708 410.157253 
L 174.839665 413.118597 
L 175.171623 412.402968 
L 175.503581 411.081259 
L 175.835538 414.516513 
L 176.167496 414.643921 
L 176.499453 413.635373 
L 176.831411 411.005052 
L 177.163369 410.959804 
L 177.495326 410.203691 
L 177.827284 411.509921 
L 178.159241 411.900481 
L 178.491199 411.944538 
L 178.823157 410.689509 
L 179.155114 411.274157 
L 179.487072 412.520851 
L 179.81903 412.462505 
L 180.482945 411.296781 
L 180.814902 413.246005 
L 181.14686 413.318639 
L 181.810775 410.925273 
L 182.142733 410.745473 
L 182.47469 411.820702 
L 182.806648 411.313451 
L 183.138606 411.240817 
L 183.470563 410.052469 
L 183.802521 410.621637 
L 184.134479 410.547812 
L 184.466436 410.301331 
L 184.798394 409.453532 
L 185.130351 409.761931 
L 185.462309 411.450385 
L 185.794267 411.654 
L 186.126224 411.106264 
L 186.458182 410.109624 
L 186.790139 411.237244 
L 187.122097 411.399183 
L 187.454055 410.930036 
L 187.786012 409.846472 
L 188.11797 410.64188 
L 188.449927 412.647068 
L 189.113843 412.520851 
L 189.4458 411.943347 
L 189.777758 411.03482 
L 190.109716 411.139605 
L 190.441673 410.000077 
L 190.773631 409.946494 
L 191.105588 408.839115 
L 191.437546 411.226528 
L 191.769504 411.321786 
L 192.433419 409.651193 
L 192.765376 410.802628 
L 193.097334 410.856211 
L 193.429292 410.647833 
L 193.761249 409.698822 
L 194.093207 409.950066 
L 194.425165 410.883598 
L 194.757122 411.027676 
L 195.08908 410.884788 
L 195.421037 410.121531 
L 195.752995 410.809772 
L 196.084953 411.043155 
L 196.41691 410.925273 
L 196.748868 410.38111 
L 197.080825 408.596207 
L 197.412783 410.288233 
L 198.076698 409.703585 
L 198.408656 408.710517 
L 198.740613 411.194378 
L 199.072571 415.203564 
L 199.404529 415.435756 
L 199.736486 413.871138 
L 200.068444 413.452001 
L 200.732359 413.667523 
L 201.396274 411.288446 
L 201.728232 412.538711 
L 202.724105 409.521403 
L 203.056062 410.057232 
L 203.38802 411.743304 
L 204.051935 411.846898 
L 204.715851 409.913153 
L 205.047808 410.880026 
L 205.379766 411.024104 
L 205.711723 410.41326 
L 206.043681 410.045324 
L 206.375639 412.191018 
L 207.371511 410.880026 
L 207.703469 413.174561 
L 208.035427 411.879047 
L 208.367384 411.548025 
L 208.699342 409.628569 
L 209.031299 410.052469 
L 209.363257 412.289849 
L 209.695215 412.005265 
L 210.35913 410.209645 
L 210.691088 413.431758 
L 211.023045 413.135267 
L 211.355003 411.618278 
L 211.68696 410.890742 
L 212.018918 409.701203 
L 212.350876 411.565886 
L 212.682833 411.487297 
L 213.014791 411.584937 
L 213.346748 410.529951 
L 213.678706 412.605392 
L 214.342621 412.776857 
L 214.674579 411.864759 
L 215.006537 411.29559 
L 215.338494 413.340072 
L 215.670452 413.338882 
L 216.002409 414.517704 
L 216.334367 414.661782 
L 216.666325 416.917023 
L 216.998282 416.262122 
L 217.33024 412.968565 
L 217.662197 412.261272 
L 217.994155 412.301756 
L 218.326113 411.698057 
L 218.65807 411.496823 
L 218.990028 411.096738 
L 219.321985 409.970308 
L 219.653943 411.345601 
L 219.985901 411.592082 
L 220.317858 411.394421 
L 220.649816 410.720468 
L 220.981774 410.831206 
L 221.313731 410.720468 
L 221.645689 410.735947 
L 221.977646 410.256083 
L 222.309604 409.455913 
L 222.973519 411.812367 
L 223.305477 415.185703 
L 223.637434 414.458167 
L 223.969392 414.456976 
L 224.30135 415.865609 
L 224.633307 412.712558 
L 224.965265 413.082875 
L 225.297223 411.815939 
L 225.62918 412.594676 
L 225.961138 412.810198 
L 226.293095 412.851873 
L 226.625053 411.656381 
L 226.957011 409.866715 
L 227.288968 412.648259 
L 227.952883 411.820702 
L 228.284841 410.534714 
L 228.616799 411.127697 
L 229.280714 410.681174 
L 229.612672 409.611899 
L 229.944629 409.779792 
L 230.276587 412.735182 
L 230.940502 412.22674 
L 231.27246 411.268203 
L 231.604417 411.608752 
L 231.936375 411.620659 
L 232.268332 411.927867 
L 232.60029 411.657572 
L 232.932248 411.219383 
L 233.264205 412.430355 
L 233.596163 412.630398 
L 233.92812 411.277729 
L 234.260078 410.766906 
L 234.592036 411.693294 
L 234.923993 413.347217 
L 235.255951 413.250768 
L 235.919866 412.214833 
L 236.251824 412.819724 
L 236.583781 412.231503 
L 236.915739 410.519235 
L 237.247697 410.599013 
L 237.579654 411.413472 
L 237.911612 412.7971 
L 238.243569 412.401778 
L 238.575527 412.267225 
L 238.907485 411.440859 
L 239.239442 413.653234 
L 239.5714 413.055488 
L 239.903358 412.795909 
L 240.235315 411.911197 
L 240.567273 412.686362 
L 240.89923 414.54509 
L 241.231188 414.69155 
L 241.563146 414.2998 
L 241.895103 413.19004 
L 242.227061 413.334119 
L 242.559018 413.702054 
L 242.890976 413.273391 
L 243.222934 412.155297 
L 243.554891 412.65064 
L 243.886849 412.24222 
L 244.218806 412.271988 
L 244.550764 409.79289 
L 244.882722 410.64307 
L 245.214679 412.873306 
L 245.546637 412.791146 
L 245.878595 412.392252 
L 246.210552 411.259868 
L 246.874467 412.231503 
L 247.206425 411.925486 
L 247.538383 413.22219 
L 247.87034 412.623253 
L 248.202298 414.547472 
L 248.534255 414.552235 
L 248.866213 414.321233 
L 249.198171 413.794931 
L 249.530128 413.622275 
L 249.862086 414.376007 
L 250.194044 413.850895 
L 250.526001 411.625422 
L 250.857959 411.918341 
L 251.189916 415.166651 
L 251.521874 413.885426 
L 251.853832 413.717533 
L 252.185789 412.527995 
L 252.517747 412.824486 
L 252.849704 413.812792 
L 253.181662 414.104521 
L 253.51362 414.08666 
L 253.845577 412.58515 
L 254.177535 414.661782 
L 254.509492 415.058295 
L 254.84145 415.194038 
L 255.173408 413.818745 
L 255.505365 414.285511 
L 255.837323 413.260293 
L 256.169281 412.760187 
L 256.501238 412.010028 
L 256.833196 410.818108 
L 257.165153 413.46629 
L 257.497111 413.619894 
L 257.829069 413.637755 
L 258.161026 412.918554 
L 258.492984 413.243623 
L 258.824941 417.726719 
L 259.156899 418.051788 
L 259.488857 418.064886 
L 259.820814 413.506774 
L 260.152772 415.747727 
L 260.816687 415.856083 
L 261.148645 418.294697 
L 261.480602 418.412579 
L 261.81256 418.830525 
L 262.144518 416.066842 
L 262.808433 413.061442 
L 263.14039 415.319064 
L 263.472348 415.113068 
L 263.804306 415.095207 
L 264.136263 414.304563 
L 264.468221 412.179111 
L 264.800178 414.290274 
L 265.132136 414.223593 
L 265.464094 414.308135 
L 265.796051 412.744708 
L 266.128009 414.657019 
L 266.459967 414.813004 
L 266.791924 414.470074 
L 267.123882 413.131695 
L 267.787797 415.040434 
L 268.119755 414.851108 
L 268.451712 412.611346 
L 268.78367 412.999524 
L 269.115627 416.238307 
L 269.447585 417.599311 
L 269.779543 416.256168 
L 270.1115 415.563164 
L 270.443458 416.576475 
L 270.775416 418.253021 
L 271.107373 416.840817 
L 271.439331 416.607434 
L 271.771288 415.45838 
L 272.103246 416.212111 
L 272.435204 415.926336 
L 272.767161 416.057317 
L 273.099119 415.119022 
L 273.431076 415.601267 
L 273.763034 416.343092 
L 274.094992 416.237117 
L 274.426949 416.375241 
L 274.758907 414.518894 
L 275.090864 416.268076 
L 275.422822 416.644346 
L 275.75478 416.576475 
L 276.086737 415.260719 
L 276.418695 416.319277 
L 276.750653 417.848174 
L 277.08261 416.296653 
L 277.414568 416.791997 
L 277.746525 415.940625 
L 278.078483 417.028952 
L 278.410441 417.565971 
L 278.742398 417.404031 
L 279.074356 416.680068 
L 279.406313 416.97656 
L 279.738271 417.521914 
L 280.070229 417.386171 
L 280.402186 417.446898 
L 280.734144 415.972775 
L 281.066102 415.472669 
L 281.398059 415.664376 
L 282.061974 414.870159 
L 282.393932 415.065439 
L 282.72589 416.48717 
L 283.389805 415.247621 
L 283.721762 414.180727 
L 284.05372 416.886064 
L 284.385678 417.575496 
L 284.717635 417.438563 
L 285.049593 415.681046 
L 285.38155 415.596504 
L 285.713508 416.92774 
L 286.045466 416.936075 
L 286.709381 415.053532 
L 287.041339 416.145431 
L 287.373296 416.482407 
L 287.705254 416.087085 
L 288.037211 414.197397 
L 288.701127 416.719362 
L 289.033084 416.050172 
L 289.365042 417.118256 
L 289.696999 416.045409 
L 290.028957 417.359974 
L 290.692872 417.357593 
L 291.02483 416.378814 
L 291.688745 418.411388 
L 292.020703 418.406626 
L 292.35266 418.150619 
L 292.684618 417.27067 
L 293.016576 418.235161 
L 293.348533 418.132758 
L 293.680491 417.044431 
L 294.012448 416.472881 
L 294.676364 418.665014 
L 295.340279 418.037499 
L 295.672236 417.379026 
L 296.004194 417.702905 
L 296.336152 417.655275 
L 296.668109 417.475475 
L 297.000067 416.571712 
L 297.332025 417.077772 
L 297.663982 418.774561 
L 298.327897 418.403053 
L 298.659855 417.72791 
L 298.991813 419.519957 
L 299.32377 419.593783 
L 299.655728 419.124635 
L 299.987685 417.931525 
L 300.319643 417.999396 
L 300.651601 420.015301 
L 300.983558 419.630695 
L 301.315516 422.082407 
L 301.647474 420.724976 
L 301.979431 422.166949 
L 302.311389 422.109794 
L 302.643346 417.533821 
L 302.975304 416.794378 
L 303.307262 418.030355 
L 303.639219 418.693591 
L 303.971177 418.534034 
L 304.303134 417.904138 
L 304.635092 417.008709 
L 304.96705 418.67573 
L 305.630965 418.389955 
L 305.962922 417.069437 
L 306.29488 418.105371 
L 306.626838 418.337563 
L 306.958795 418.176815 
L 307.290753 417.345686 
L 307.622711 417.468331 
L 307.954668 418.726932 
L 308.286626 418.781705 
L 308.618583 418.95317 
L 308.950541 417.59812 
L 309.282499 417.879132 
L 309.614456 418.993655 
L 309.946414 419.596164 
L 310.278371 419.390168 
L 310.610329 418.05536 
L 310.942287 417.899375 
L 311.274244 418.454255 
L 311.606202 418.504265 
L 311.93816 417.624316 
L 312.602075 418.695973 
L 312.934032 417.265907 
L 313.26599 417.414748 
L 313.597948 416.202586 
L 313.929905 418.597142 
L 314.261863 418.670967 
L 314.59382 418.289934 
L 314.925778 417.223041 
L 315.257736 418.041072 
L 315.589693 419.550916 
L 315.921651 419.525911 
L 316.253608 419.748578 
L 316.585566 418.204202 
L 316.917524 420.551129 
L 317.249481 420.696398 
L 317.913397 418.743602 
L 318.245354 418.988892 
L 318.577312 418.485214 
L 318.909269 417.639796 
L 319.241227 417.370691 
L 319.573185 416.123997 
L 319.905142 419.596164 
L 320.2371 419.677134 
L 320.569057 418.38162 
L 320.901015 417.640987 
L 321.232973 417.495718 
L 321.56493 418.743602 
L 321.896888 419.134161 
L 322.228846 418.898397 
L 322.560803 417.473094 
L 322.892761 419.839073 
L 323.224718 420.142709 
L 323.556676 419.777155 
L 323.888634 418.685256 
L 324.220591 419.554489 
L 324.552549 419.990296 
L 325.216464 419.352065 
L 325.548422 418.653107 
L 325.880379 420.705924 
L 326.212337 419.76882 
L 326.544294 419.762866 
L 326.876252 418.67454 
L 327.20821 417.09206 
L 327.540167 419.365163 
L 328.204083 419.124635 
L 328.53604 417.839838 
L 328.867998 420.888105 
L 329.199955 419.463993 
L 329.863871 417.756487 
L 330.527786 420.409432 
L 330.859743 420.549938 
L 331.191701 420.29155 
L 331.523659 419.144878 
L 331.855616 419.874795 
L 332.187574 419.847408 
L 332.519532 420.021255 
L 332.851489 419.016279 
L 333.183447 418.922211 
L 333.515404 421.092911 
L 333.847362 421.088148 
L 334.17932 420.430865 
L 334.511277 419.525911 
L 334.843235 420.965503 
L 335.175192 420.76546 
L 335.50715 419.608071 
L 335.839108 419.198461 
L 336.171065 419.614025 
L 336.503023 421.048854 
L 336.83498 420.572562 
L 337.166938 420.663058 
L 337.498896 419.893846 
L 337.830853 420.448726 
L 338.162811 419.106774 
L 338.494769 418.455445 
L 338.826726 418.3971 
L 339.158684 419.138924 
L 339.490641 420.741646 
L 339.822599 420.701161 
L 340.154557 420.476113 
L 340.486514 419.303245 
L 340.818472 420.401097 
L 341.150429 420.30822 
L 341.814345 417.843411 
L 342.146302 418.774561 
L 342.47826 420.71545 
L 342.810218 420.898822 
L 343.142175 420.582088 
L 343.474133 419.277049 
L 343.80609 419.39374 
L 344.138048 423.063568 
L 344.470006 422.636096 
L 344.801963 421.598971 
L 345.133921 419.292528 
L 345.465878 420.730929 
L 345.797836 420.179622 
L 346.129794 420.130802 
L 346.793709 424.587701 
L 347.125666 424.749641 
L 347.457624 421.904988 
L 347.789582 421.117916 
L 348.121539 421.583491 
L 348.453497 422.938541 
L 348.785455 421.51562 
L 349.117412 427.668118 
L 349.44937 425.503372 
L 349.781327 422.301501 
L 350.113285 422.620617 
L 350.445243 422.033587 
L 350.7772 420.326081 
L 351.109158 420.112941 
L 351.441115 421.323912 
L 351.773073 420.888105 
L 352.105031 420.96074 
L 352.436988 419.856934 
L 352.768946 421.120298 
L 353.100904 421.109581 
L 353.432861 420.744027 
L 353.764819 419.680706 
L 354.096776 420.174859 
L 354.428734 421.913323 
L 355.092649 420.922637 
L 355.424607 419.308008 
L 355.756564 421.944282 
L 356.088522 421.701374 
L 356.752437 419.906945 
L 357.084395 418.542369 
L 357.416352 420.218916 
L 357.74831 420.347514 
L 358.080268 420.266545 
L 358.412225 419.210368 
L 358.744183 420.8631 
L 359.076141 421.111963 
L 359.408098 421.003606 
L 359.740056 420.5035 
L 360.072013 421.323912 
L 360.403971 422.52893 
L 360.735929 422.383661 
L 361.067886 421.782343 
L 361.399844 420.497546 
L 361.731801 421.377495 
L 362.063759 421.403691 
L 362.727674 419.443751 
L 363.059632 419.841454 
L 363.39159 421.691848 
L 363.723547 421.010751 
L 364.055505 421.509666 
L 364.387462 420.397525 
L 364.71942 420.499928 
L 365.051378 424.594846 
L 365.383335 423.582726 
L 365.715293 423.331482 
L 366.04725 423.826825 
L 366.379208 422.427718 
L 366.711166 423.512473 
L 367.043123 423.318384 
L 367.375081 421.657317 
L 367.707038 422.314599 
L 368.038996 422.477729 
L 368.370954 422.775411 
L 368.702911 421.587064 
L 369.034869 422.351512 
L 369.366827 423.652979 
L 369.698784 422.280068 
L 370.030742 421.522764 
L 370.362699 421.263185 
L 370.694657 422.925443 
L 371.026615 422.581323 
L 371.358572 422.532503 
L 371.69053 421.587064 
L 372.022487 422.170521 
L 372.354445 423.857784 
L 372.686403 423.547004 
L 373.01836 423.580344 
L 373.350318 422.220532 
L 373.682276 422.650385 
L 374.014233 422.648003 
L 374.346191 422.46344 
L 374.678148 420.904776 
L 375.010106 422.10384 
L 375.342064 422.106222 
L 375.674021 421.884746 
L 376.005979 420.480876 
L 376.337936 419.750959 
L 376.669894 422.309836 
L 377.333809 422.378899 
L 377.665767 421.506094 
L 377.997724 421.827591 
L 378.66164 422.196717 
L 378.993597 422.543219 
L 379.325555 421.242943 
L 379.657513 422.931397 
L 379.98947 422.493209 
L 380.321428 422.269351 
L 380.653385 421.234608 
L 380.985343 421.831163 
L 381.317301 421.45013 
L 381.981216 421.525146 
L 382.313173 420.638052 
L 382.645131 423.233842 
L 382.977089 423.675603 
L 383.309046 423.179069 
L 383.641004 421.085767 
L 383.972962 421.207221 
L 384.304919 423.374348 
L 384.636877 422.661101 
L 384.968834 422.496781 
L 385.300792 421.509666 
L 385.63275 425.599821 
L 385.964707 424.003053 
L 386.296665 423.712515 
L 386.628622 422.393187 
L 386.96058 426.504776 
L 387.292538 427.097759 
L 387.624495 426.87152 
L 387.956453 423.758954 
L 388.28841 423.323147 
L 388.620368 424.969926 
L 389.284283 423.878027 
L 389.616241 421.494187 
L 389.948199 422.037159 
L 390.280156 422.868288 
L 390.612114 421.743049 
L 390.944071 421.866885 
L 391.276029 421.02623 
L 391.607987 423.183832 
L 391.939944 422.319362 
L 392.271902 422.546791 
L 392.603859 421.508475 
L 392.935817 422.20148 
L 393.267775 423.301714 
L 393.599732 422.983789 
L 393.93169 423.06714 
L 394.263648 421.913323 
L 394.595605 422.62538 
L 395.25952 423.059996 
L 395.591478 421.632311 
L 395.923436 422.47892 
L 396.255393 423.669649 
L 396.587351 423.24575 
L 396.919308 423.005222 
L 397.583224 421.838307 
L 397.915181 421.300098 
L 398.247139 420.548748 
L 398.579096 420.703542 
L 398.911054 422.975454 
L 399.243012 424.154276 
L 399.906927 424.530546 
L 400.238885 423.333863 
L 400.570842 424.136415 
L 400.9028 424.000672 
L 401.234757 424.29121 
L 401.566715 423.268373 
L 402.23063 425.446217 
L 402.562588 425.53195 
L 402.894545 425.049704 
L 403.226503 424.126889 
L 403.558461 425.768905 
L 404.222376 424.098312 
L 404.554334 423.874455 
L 404.886291 424.385277 
L 405.218249 426.698865 
L 405.550206 426.65957 
L 405.882164 426.261867 
L 406.214122 425.098524 
L 406.546079 425.92489 
L 406.878037 424.563887 
L 407.209994 424.576985 
L 407.541952 423.265992 
L 407.87391 423.411261 
L 408.205867 424.456721 
L 408.537825 424.360272 
L 408.869782 424.560315 
L 409.20174 423.518427 
L 409.533698 426.08802 
L 410.197613 425.085426 
L 410.529571 424.057827 
L 411.193486 424.994931 
L 411.525443 424.109028 
L 411.857401 424.198333 
L 412.189359 423.31124 
L 412.521316 425.149726 
L 412.853274 425.721276 
L 413.185231 425.202118 
L 413.517189 423.730376 
L 413.849147 423.308858 
L 414.181104 425.185448 
L 414.513062 425.013983 
L 414.84502 425.236649 
L 415.176977 423.839923 
L 415.508935 425.072328 
L 416.17285 425.508135 
L 416.504808 424.361463 
L 416.836765 425.174731 
L 417.168723 426.873902 
L 417.50068 426.836989 
L 417.832638 425.191401 
L 418.164596 424.406711 
L 418.496553 425.097334 
L 418.828511 424.122126 
L 419.160468 424.231673 
L 419.492426 423.500566 
L 419.824384 425.530759 
L 420.156341 426.032056 
L 420.488299 426.099928 
L 421.152214 423.598205 
L 421.484172 425.751044 
L 421.816129 425.930844 
L 422.148087 425.617682 
L 422.480045 424.070925 
L 422.812002 424.335267 
L 423.14396 425.197355 
L 423.475917 425.092571 
L 423.807875 424.574603 
L 424.139833 423.799439 
L 424.47179 425.883215 
L 425.135706 425.621255 
L 425.467663 424.861569 
L 425.799621 425.680791 
L 426.131578 425.090189 
L 426.463536 425.162824 
L 426.795494 424.856806 
L 427.127451 423.552958 
L 427.459409 425.917746 
L 427.791366 425.797482 
L 428.123324 426.048726 
L 428.455282 424.92825 
L 428.787239 423.357678 
L 429.119197 424.804414 
L 429.451154 428.134884 
L 429.783112 428.795739 
L 430.11507 428.113451 
L 430.447027 426.4631 
L 430.778985 426.382131 
L 431.110943 427.183491 
L 431.4429 426.496441 
L 431.774858 430.215088 
L 432.106815 430.846175 
L 432.438773 430.92 
L 432.770731 426.754829 
L 433.102688 425.354531 
L 433.434646 426.816747 
L 433.766603 427.351384 
L 434.098561 426.542879 
L 434.430519 424.153085 
L 434.762476 425.297376 
L 435.094434 427.331142 
L 435.426392 426.972732 
L 435.758349 426.792932 
L 436.090307 425.979664 
L 436.754222 425.942751 
L 437.08618 426.00586 
L 437.418137 424.837755 
L 437.750095 424.578176 
L 438.082052 425.740327 
L 438.41401 425.620064 
L 439.077925 423.381493 
L 439.409883 424.329313 
L 439.74184 426.058252 
L 440.737713 424.803223 
L 441.069671 426.326166 
L 441.401629 426.288063 
L 441.733586 425.118767 
L 442.065544 424.562696 
L 442.729459 427.040604 
L 443.393374 426.416662 
L 443.725332 424.004244 
L 444.057289 425.275943 
L 444.389247 424.407901 
L 444.721205 425.878452 
L 445.053162 425.181875 
L 445.38512 425.556955 
L 445.717078 426.735777 
L 446.049035 425.396207 
L 446.380993 424.827038 
L 446.71295 424.550789 
L 447.044908 426.719107 
L 447.708823 426.420234 
L 448.040781 425.714131 
L 448.704696 427.282322 
L 449.036654 427.488318 
L 449.368611 426.976304 
L 449.700569 426.254723 
L 450.032526 427.363292 
L 450.696442 426.138031 
L 451.360357 423.124295 
L 451.692315 423.368395 
L 452.024272 422.956402 
L 452.35623 423.1493 
L 452.688187 422.209815 
L 453.020145 423.487468 
L 453.352103 422.767076 
L 453.68406 421.59778 
L 454.016018 421.976432 
L 454.347975 421.770436 
L 454.679933 423.922084 
L 455.675806 421.030993 
L 456.007764 423.185022 
L 456.339721 423.572009 
L 457.003636 420.548748 
L 457.335594 421.766864 
L 457.667552 424.401948 
L 457.999509 424.29121 
L 458.331467 424.035203 
L 458.663424 423.043326 
L 459.32734 423.386256 
L 459.659297 423.804202 
L 459.991255 422.36461 
L 460.65517 422.921871 
L 461.651043 420.583279 
L 461.983001 423.366013 
L 462.314958 423.256466 
L 462.646916 423.307667 
L 463.310831 421.882364 
L 463.642789 423.007604 
L 463.974746 423.219553 
L 464.306704 423.174306 
L 464.638661 422.281259 
L 464.970619 424.218575 
L 465.302577 424.515067 
L 465.634534 424.493634 
L 466.29845 422.592039 
L 466.630407 423.280281 
L 466.962365 423.171924 
L 467.294322 421.987149 
L 467.62628 421.278665 
L 467.958238 423.098099 
L 468.290195 423.087383 
L 468.622153 422.74088 
L 468.95411 421.84307 
L 469.286068 421.788297 
L 469.618026 424.559124 
L 469.949983 423.058805 
L 470.281941 423.012367 
L 470.613898 422.224104 
L 470.945856 424.374561 
L 471.609771 423.945898 
L 471.941729 422.825422 
L 472.273687 427.909836 
L 472.605644 428.420659 
L 472.937602 428.437329 
L 473.269559 424.793698 
L 473.601517 422.432481 
L 473.933475 423.658933 
L 474.265432 423.227889 
L 474.929347 420.058167 
L 475.261305 419.565205 
L 475.593263 421.121488 
L 475.92522 419.413983 
L 476.257178 419.677134 
L 476.589136 418.836479 
L 476.921093 421.067906 
L 477.253051 420.721403 
L 477.585008 420.620191 
L 477.916966 419.554489 
L 478.248924 420.001012 
L 478.580881 418.47926 
L 478.912839 418.075603 
L 479.576754 416.399056 
L 479.908712 419.01866 
L 480.240669 419.267523 
L 480.572627 419.012707 
L 480.904584 417.184937 
L 481.236542 416.541943 
L 481.5685 417.429037 
L 481.900457 417.638605 
L 482.232415 417.688616 
L 482.564373 416.719362 
L 482.89633 418.470925 
L 483.228288 418.992464 
L 484.224161 417.234948 
L 484.556118 418.305414 
L 485.220033 418.033927 
L 485.551991 416.646728 
L 485.883949 418.372094 
L 486.215906 416.693166 
L 486.547864 416.713408 
L 486.879822 416.059698 
L 487.211779 417.132545 
L 488.207652 416.496696 
L 488.53961 416.022785 
L 488.871567 419.571159 
L 489.203525 418.712643 
L 489.535482 418.239923 
L 489.86744 416.631248 
L 490.199398 416.632439 
L 490.531355 418.535224 
L 491.19527 417.783874 
L 491.527228 416.788424 
L 491.859186 418.543559 
L 492.191143 417.007519 
L 492.523101 416.789615 
L 492.855059 415.933481 
L 493.518974 417.550491 
L 494.182889 417.846983 
L 494.514847 416.149003 
L 494.846804 418.990083 
L 495.510719 419.187744 
L 495.842677 417.14088 
L 496.174635 416.553851 
L 496.506592 417.789828 
L 496.83855 417.407604 
L 497.502465 414.486745 
L 497.834423 415.354786 
L 498.16638 413.137648 
L 498.498338 412.880451 
L 498.830296 411.988595 
L 499.162253 411.924295 
L 499.494211 414.74037 
L 499.826168 414.959464 
L 500.490084 412.913791 
L 500.822041 413.671095 
L 501.153999 413.306732 
L 501.817914 410.393017 
L 502.149872 409.53212 
L 502.481829 410.910984 
L 502.813787 410.981238 
L 503.145745 410.922892 
L 503.477702 410.321573 
L 503.80966 412.024316 
L 504.141617 409.85838 
L 504.473575 409.759549 
L 504.805533 409.328505 
L 505.13749 410.058422 
L 505.469448 415.294059 
L 505.801405 415.00233 
L 506.133363 414.411729 
L 506.465321 409.444006 
L 506.797278 412.932843 
L 507.129236 412.816151 
L 507.461194 411.80165 
L 507.793151 410.117959 
L 508.457066 410.390636 
L 508.789024 410.244176 
L 509.120982 409.176092 
L 509.452939 408.770053 
L 509.784897 410.325146 
L 510.116854 409.341603 
L 510.448812 409.43448 
L 510.78077 407.950831 
L 511.112727 408.700991 
L 511.776642 409.334459 
L 512.440558 408.429505 
L 512.772515 411.277729 
L 513.104473 411.495633 
L 513.436431 411.01815 
L 513.768388 409.322552 
L 514.100346 409.853617 
L 514.432303 410.864546 
L 514.764261 414.044984 
L 515.096219 414.139052 
L 515.428176 413.537733 
L 515.760134 415.21309 
L 516.092091 412.261272 
L 517.087964 407.688871 
L 517.419922 413.318639 
L 517.75188 413.005477 
L 518.083837 410.292996 
L 518.415795 409.164185 
L 518.747752 409.551172 
L 519.07971 408.796249 
L 519.411668 407.717448 
L 519.743625 405.77775 
L 520.075583 405.814663 
L 520.40754 406.405265 
L 521.071456 405.480068 
L 521.403413 405.193102 
L 521.735371 405.815854 
L 522.399286 405.696781 
L 522.731244 404.245282 
L 523.395159 404.945431 
L 523.727117 404.094059 
L 524.059074 401.726889 
L 524.391032 401.767374 
L 525.054947 402.171031 
L 525.386905 401.663781 
L 525.718862 400.374221 
L 526.05082 402.154361 
L 526.382777 403.05098 
L 526.714735 402.696143 
L 527.046693 402.605647 
L 527.37865 402.074582 
L 527.710608 402.703287 
L 528.042566 402.942624 
L 528.374523 402.881897 
L 529.038438 400.97673 
L 529.370396 402.648514 
L 529.702354 402.432992 
L 530.034311 402.442518 
L 530.366269 401.320851 
L 530.698226 401.388722 
L 531.030184 404.966864 
L 531.362142 404.055956 
L 531.694099 403.852341 
L 532.026057 404.507242 
L 532.358015 403.123615 
L 532.689972 403.111707 
L 533.02193 402.842603 
L 533.353887 401.292273 
L 533.685845 400.702862 
L 534.34976 400.464716 
L 534.681718 399.674072 
L 535.345633 402.159124 
L 535.677591 402.086489 
L 536.009548 401.749513 
L 536.673463 400.399226 
L 537.005421 400.351597 
L 537.669336 398.553596 
L 538.001294 400.511155 
L 538.333252 401.132715 
L 538.665209 400.713579 
L 538.997167 400.695718 
L 539.329124 399.825294 
L 539.661082 401.523275 
L 540.324997 401.079132 
L 540.656955 400.670712 
L 540.988912 401.032694 
L 541.32087 402.618745 
L 541.652828 402.016236 
L 541.984785 402.100778 
L 542.316743 401.082705 
L 542.980658 398.700055 
L 543.312616 398.199949 
L 543.644573 396.684151 
L 544.972404 397.117576 
L 545.304361 396.001863 
L 545.636319 396.919915 
L 546.300234 395.618448 
L 546.632192 393.749003 
L 547.628065 395.713706 
L 547.960022 395.517236 
L 548.29198 393.812111 
L 548.623938 394.782556 
L 549.287853 395.076666 
L 549.61981 393.637074 
L 549.951768 393.373923 
L 550.283726 394.105031 
L 550.615683 393.437032 
L 550.947641 391.86646 
L 551.279598 391.677134 
L 551.611556 393.849024 
L 551.943514 393.410836 
L 552.275471 393.216747 
L 552.607429 392.026017 
L 552.939387 391.970053 
L 553.271344 393.693038 
L 554.267217 391.979579 
L 554.599175 394.177665 
L 554.931132 394.207434 
L 555.26309 393.871648 
L 555.595047 392.91192 
L 555.927005 393.106009 
L 556.258963 391.498524 
L 556.59092 391.662845 
L 556.922878 391.581875 
L 557.586793 397.016364 
L 557.918751 397.473604 
L 558.250708 397.258082 
L 558.582666 392.478495 
L 558.914624 392.620191 
L 559.246581 393.260804 
L 559.910496 391.516385 
L 560.242454 391.09963 
L 560.574412 393.492996 
L 560.906369 393.145303 
L 561.238327 393.10839 
L 561.570284 392.105796 
L 562.2342 393.639456 
L 562.566157 393.772817 
L 562.898115 393.775199 
L 563.230073 392.530887 
L 563.56203 393.883555 
L 563.893988 393.733523 
L 564.225945 393.966906 
L 564.557903 392.083172 
L 564.889861 390.893634 
L 565.221818 392.049832 
L 565.553776 391.23061 
L 565.885733 390.100608 
L 566.217691 388.397865 
L 566.549649 389.557636 
L 566.881606 388.608624 
L 567.213564 388.295462 
L 567.545521 387.476241 
L 567.877479 387.806073 
L 568.209437 389.337351 
L 568.541394 387.982301 
L 568.873352 387.384555 
L 569.20531 386.109283 
L 569.537267 386.61058 
L 570.201182 386.49627 
L 570.53314 385.206711 
L 570.865098 386.150959 
L 571.197055 384.837585 
L 571.529013 384.89593 
L 571.86097 382.87169 
L 572.192928 382.651405 
L 572.524886 385.641327 
L 573.188801 385.249577 
L 573.520759 384.205307 
L 573.852716 384.261272 
L 574.184674 386.210495 
L 575.180547 383.157465 
L 575.512504 385.493676 
L 575.844462 385.404372 
L 576.176419 385.062632 
L 576.508377 383.992167 
L 576.840335 384.262462 
L 577.172292 383.986213 
L 577.50425 383.901671 
L 577.836207 383.537308 
L 578.168165 382.233459 
L 578.500123 382.902649 
L 579.164038 383.118171 
L 579.495996 382.02151 
L 579.827953 382.964567 
L 580.159911 385.160272 
L 580.491868 384.245792 
L 580.823826 384.741135 
L 581.155784 383.779026 
L 581.487741 385.184087 
L 581.819699 385.517491 
L 582.151656 385.468671 
L 582.483614 384.202926 
L 583.147529 385.794931 
L 583.479487 385.54845 
L 584.143402 383.259868 
L 584.47536 385.849704 
L 584.807317 386.040221 
L 585.139275 385.462717 
L 585.471233 383.552788 
L 586.135148 386.116428 
L 586.799063 385.742539 
L 587.462978 383.427761 
L 588.126893 382.558529 
L 588.458851 380.586681 
L 589.122766 380.893889 
L 589.786682 380.347344 
L 590.118639 379.26259 
L 590.450597 382.537095 
L 590.782554 382.437074 
L 591.114512 381.971499 
L 591.44647 377.909921 
L 591.778427 377.624146 
L 592.110385 378.270712 
L 592.442342 377.424104 
L 592.7743 377.200247 
L 593.106258 376.728718 
L 593.438215 378.82202 
L 593.770173 378.939902 
L 594.102131 378.46361 
L 594.434088 377.586043 
L 594.766046 377.553893 
L 595.098003 377.330036 
L 595.429961 377.495548 
L 595.761919 377.305031 
L 596.093876 376.297674 
L 596.425834 378.570776 
L 596.757791 378.480281 
L 597.089749 377.745601 
L 597.421707 376.34054 
L 597.753664 376.442943 
L 598.085622 376.708475 
L 598.417579 376.550108 
L 598.749537 374.644942 
L 599.081495 374.764014 
L 599.413452 377.166906 
L 599.74541 377.222871 
L 600.077368 380.690274 
L 600.409325 379.447153 
L 600.741283 379.615046 
L 601.07324 380.330674 
L 601.405198 377.247876 
L 601.737156 377.403861 
L 602.069113 376.751342 
L 602.401071 375.512983 
L 602.733028 379.748407 
L 603.064986 379.871053 
L 603.396944 379.089934 
L 603.728901 376.447706 
L 604.060859 378.367161 
L 604.392817 378.088531 
L 605.056732 374.503245 
L 605.388689 376.504861 
L 605.720647 376.606073 
L 606.384562 374.599694 
L 606.71652 375.533226 
L 607.048477 377.191912 
L 607.712393 376.221467 
L 608.376308 381.509496 
L 608.708265 381.289211 
L 609.040223 378.374306 
L 609.372181 376.897801 
L 609.704138 378.500523 
L 610.368054 375.487978 
L 610.700011 373.208922 
L 611.031969 372.735012 
L 611.363926 373.114854 
L 611.695884 373.155339 
L 612.359799 372.053915 
L 612.691757 372.249194 
L 613.023714 373.709028 
L 613.355672 371.871733 
L 613.68763 371.350193 
L 614.019587 369.915365 
L 614.351545 371.424019 
L 615.01546 370.747684 
L 615.347418 369.828441 
L 615.679375 369.504563 
L 616.011333 369.90703 
L 616.343291 369.686745 
L 616.675248 368.974688 
L 617.007206 367.803011 
L 617.339163 370.588127 
L 617.671121 370.715535 
L 618.003079 370.228526 
L 618.666994 368.596037 
L 618.998951 369.930844 
L 619.330909 369.521233 
L 619.330909 369.521233 
" style="fill:none;stroke:#1f77b4;stroke-linecap:square;stroke-width:1.5;"/>
   </g>
   <g id="patch_3">
    <path d="M 108 448.56 
L 108 60.48 
" style="fill:none;stroke:#000000;stroke-linecap:square;stroke-linejoin:miter;stroke-width:0.8;"/>
   </g>
   <g id="patch_4">
    <path d="M 643.68 448.56 
L 643.68 60.48 
" style="fill:none;stroke:#000000;stroke-linecap:square;stroke-linejoin:miter;stroke-width:0.8;"/>
   </g>
   <g id="patch_5">
    <path d="M 108 448.56 
L 643.68 448.56 
" style="fill:none;stroke:#000000;stroke-linecap:square;stroke-linejoin:miter;stroke-width:0.8;"/>
   </g>
   <g id="patch_6">
    <path d="M 108 60.48 
L 643.68 60.48 
" style="fill:none;stroke:#000000;stroke-linecap:square;stroke-linejoin:miter;stroke-width:0.8;"/>
   </g>
   <g id="text_30">
    <!-- unikernel_base - free -->
    <g transform="translate(297.273984 54.48)scale(0.15 -0.15)">
     <defs>
      <path d="M 8.5 21.578125 
L 8.5 54.6875 
L 17.484375 54.6875 
L 17.484375 21.921875 
Q 17.484375 14.15625 20.5 10.265625 
Q 23.53125 6.390625 29.59375 6.390625 
Q 36.859375 6.390625 41.078125 11.03125 
Q 45.3125 15.671875 45.3125 23.6875 
L 45.3125 54.6875 
L 54.296875 54.6875 
L 54.296875 0 
L 45.3125 0 
L 45.3125 8.40625 
Q 42.046875 3.421875 37.71875 1 
Q 33.40625 -1.421875 27.6875 -1.421875 
Q 18.265625 -1.421875 13.375 4.4375 
Q 8.5 10.296875 8.5 21.578125 
z
M 31.109375 56 
z
" id="DejaVuSans-117"/>
      <path d="M 54.890625 33.015625 
L 54.890625 0 
L 45.90625 0 
L 45.90625 32.71875 
Q 45.90625 40.484375 42.875 44.328125 
Q 39.84375 48.1875 33.796875 48.1875 
Q 26.515625 48.1875 22.3125 43.546875 
Q 18.109375 38.921875 18.109375 30.90625 
L 18.109375 0 
L 9.078125 0 
L 9.078125 54.6875 
L 18.109375 54.6875 
L 18.109375 46.1875 
Q 21.34375 51.125 25.703125 53.5625 
Q 30.078125 56 35.796875 56 
Q 45.21875 56 50.046875 50.171875 
Q 54.890625 44.34375 54.890625 33.015625 
z
" id="DejaVuSans-110"/>
      <path d="M 9.078125 75.984375 
L 18.109375 75.984375 
L 18.109375 31.109375 
L 44.921875 54.6875 
L 56.390625 54.6875 
L 27.390625 29.109375 
L 57.625 0 
L 45.90625 0 
L 18.109375 26.703125 
L 18.109375 0 
L 9.078125 0 
z
" id="DejaVuSans-107"/>
      <path d="M 41.109375 46.296875 
Q 39.59375 47.171875 37.8125 47.578125 
Q 36.03125 48 33.890625 48 
Q 26.265625 48 22.1875 43.046875 
Q 18.109375 38.09375 18.109375 28.8125 
L 18.109375 0 
L 9.078125 0 
L 9.078125 54.6875 
L 18.109375 54.6875 
L 18.109375 46.1875 
Q 20.953125 51.171875 25.484375 53.578125 
Q 30.03125 56 36.53125 56 
Q 37.453125 56 38.578125 55.875 
Q 39.703125 55.765625 41.0625 55.515625 
z
" id="DejaVuSans-114"/>
      <path d="M 9.421875 75.984375 
L 18.40625 75.984375 
L 18.40625 0 
L 9.421875 0 
z
" id="DejaVuSans-108"/>
      <path d="M 50.984375 -16.609375 
L 50.984375 -23.578125 
L -0.984375 -23.578125 
L -0.984375 -16.609375 
z
" id="DejaVuSans-95"/>
      <path d="M 48.6875 27.296875 
Q 48.6875 37.203125 44.609375 42.84375 
Q 40.53125 48.484375 33.40625 48.484375 
Q 26.265625 48.484375 22.1875 42.84375 
Q 18.109375 37.203125 18.109375 27.296875 
Q 18.109375 17.390625 22.1875 11.75 
Q 26.265625 6.109375 33.40625 6.109375 
Q 40.53125 6.109375 44.609375 11.75 
Q 48.6875 17.390625 48.6875 27.296875 
z
M 18.109375 46.390625 
Q 20.953125 51.265625 25.265625 53.625 
Q 29.59375 56 35.59375 56 
Q 45.5625 56 51.78125 48.09375 
Q 58.015625 40.1875 58.015625 27.296875 
Q 58.015625 14.40625 51.78125 6.484375 
Q 45.5625 -1.421875 35.59375 -1.421875 
Q 29.59375 -1.421875 25.265625 0.953125 
Q 20.953125 3.328125 18.109375 8.203125 
L 18.109375 0 
L 9.078125 0 
L 9.078125 75.984375 
L 18.109375 75.984375 
z
" id="DejaVuSans-98"/>
      <path id="DejaVuSans-32"/>
      <path d="M 4.890625 31.390625 
L 31.203125 31.390625 
L 31.203125 23.390625 
L 4.890625 23.390625 
z
" id="DejaVuSans-45"/>
      <path d="M 37.109375 75.984375 
L 37.109375 68.5 
L 28.515625 68.5 
Q 23.6875 68.5 21.796875 66.546875 
Q 19.921875 64.59375 19.921875 59.515625 
L 19.921875 54.6875 
L 34.71875 54.6875 
L 34.71875 47.703125 
L 19.921875 47.703125 
L 19.921875 0 
L 10.890625 0 
L 10.890625 47.703125 
L 2.296875 47.703125 
L 2.296875 54.6875 
L 10.890625 54.6875 
L 10.890625 58.5 
Q 10.890625 67.625 15.140625 71.796875 
Q 19.390625 75.984375 28.609375 75.984375 
z
" id="DejaVuSans-102"/>
     </defs>
     <use xlink:href="#DejaVuSans-117"/>
     <use x="63.378906" xlink:href="#DejaVuSans-110"/>
     <use x="126.757812" xlink:href="#DejaVuSans-105"/>
     <use x="154.541016" xlink:href="#DejaVuSans-107"/>
     <use x="208.826172" xlink:href="#DejaVuSans-101"/>
     <use x="270.349609" xlink:href="#DejaVuSans-114"/>
     <use x="309.712891" xlink:href="#DejaVuSans-110"/>
     <use x="373.091797" xlink:href="#DejaVuSans-101"/>
     <use x="434.615234" xlink:href="#DejaVuSans-108"/>
     <use x="462.398438" xlink:href="#DejaVuSans-95"/>
     <use x="512.398438" xlink:href="#DejaVuSans-98"/>
     <use x="575.875" xlink:href="#DejaVuSans-97"/>
     <use x="637.154297" xlink:href="#DejaVuSans-115"/>
     <use x="689.253906" xlink:href="#DejaVuSans-101"/>
     <use x="750.777344" xlink:href="#DejaVuSans-32"/>
     <use x="782.564453" xlink:href="#DejaVuSans-45"/>
     <use x="818.648438" xlink:href="#DejaVuSans-32"/>
     <use x="850.435547" xlink:href="#DejaVuSans-102"/>
     <use x="885.640625" xlink:href="#DejaVuSans-114"/>
     <use x="924.503906" xlink:href="#DejaVuSans-101"/>
     <use x="986.027344" xlink:href="#DejaVuSans-101"/>
    </g>
   </g>
   <g id="legend_1">
    <g id="patch_7">
     <path d="M 650.68 258.52 
L 654.68 258.52 
Q 656.68 258.52 656.68 256.52 
L 656.68 252.52 
Q 656.68 250.52 654.68 250.52 
L 650.68 250.52 
Q 648.68 250.52 648.68 252.52 
L 648.68 256.52 
Q 648.68 258.52 650.68 258.52 
z
" style="fill:#ffffff;opacity:0.8;stroke:#cccccc;stroke-linejoin:miter;"/>
    </g>
   </g>
  </g>
 </g>
 <defs>
  <clipPath id="p7d27331ed5">
   <rect height="388.08" width="535.68" x="108" y="60.48"/>
  </clipPath>
 </defs>
</svg>
