<?xml version="1.0" encoding="utf-8" standalone="no"?>
<!DOCTYPE svg PUBLIC "-//W3C//DTD SVG 1.1//EN"
  "http://www.w3.org/Graphics/SVG/1.1/DTD/svg11.dtd">
<!-- Created with matplotlib (https://matplotlib.org/) -->
<svg height="504pt" version="1.1" viewBox="0 0 864 504" width="864pt" xmlns="http://www.w3.org/2000/svg" xmlns:xlink="http://www.w3.org/1999/xlink">
 <metadata>
  <rdf:RDF xmlns:cc="http://creativecommons.org/ns#" xmlns:dc="http://purl.org/dc/elements/1.1/" xmlns:rdf="http://www.w3.org/1999/02/22-rdf-syntax-ns#">
   <cc:Work>
    <dc:type rdf:resource="http://purl.org/dc/dcmitype/StillImage"/>
    <dc:date>2022-05-29T17:17:59.483289</dc:date>
    <dc:format>image/svg+xml</dc:format>
    <dc:creator>
     <cc:Agent>
      <dc:title>Matplotlib v3.3.4, https://matplotlib.org/</dc:title>
     </cc:Agent>
    </dc:creator>
   </cc:Work>
  </rdf:RDF>
 </metadata>
 <defs>
  <style type="text/css">*{stroke-linecap:butt;stroke-linejoin:round;}</style>
 </defs>
 <g id="figure_1">
  <g id="patch_1">
   <path d="M 0 504 
L 864 504 
L 864 0 
L 0 0 
z
" style="fill:#ffffff;"/>
  </g>
  <g id="axes_1">
   <g id="patch_2">
    <path d="M 108 448.56 
L 643.68 448.56 
L 643.68 60.48 
L 108 60.48 
z
" style="fill:#ffffff;"/>
   </g>
   <g id="matplotlib.axis_1">
    <g id="xtick_1">
     <g id="line2d_1">
      <defs>
       <path d="M 0 0 
L 0 3.5 
" id="mff69a60ec8" style="stroke:#000000;stroke-width:0.8;"/>
      </defs>
      <g>
       <use style="stroke:#000000;stroke-width:0.8;" x="132.349091" xlink:href="#mff69a60ec8" y="448.56"/>
      </g>
     </g>
     <g id="text_1">
      <!-- 22:38:49 -->
      <g transform="translate(135.108466 500.4725)rotate(-90)scale(0.1 -0.1)">
       <defs>
        <path d="M 19.1875 8.296875 
L 53.609375 8.296875 
L 53.609375 0 
L 7.328125 0 
L 7.328125 8.296875 
Q 12.9375 14.109375 22.625 23.890625 
Q 32.328125 33.6875 34.8125 36.53125 
Q 39.546875 41.84375 41.421875 45.53125 
Q 43.3125 49.21875 43.3125 52.78125 
Q 43.3125 58.59375 39.234375 62.25 
Q 35.15625 65.921875 28.609375 65.921875 
Q 23.96875 65.921875 18.8125 64.3125 
Q 13.671875 62.703125 7.8125 59.421875 
L 7.8125 69.390625 
Q 13.765625 71.78125 18.9375 73 
Q 24.125 74.21875 28.421875 74.21875 
Q 39.75 74.21875 46.484375 68.546875 
Q 53.21875 62.890625 53.21875 53.421875 
Q 53.21875 48.921875 51.53125 44.890625 
Q 49.859375 40.875 45.40625 35.40625 
Q 44.1875 33.984375 37.640625 27.21875 
Q 31.109375 20.453125 19.1875 8.296875 
z
" id="DejaVuSans-50"/>
        <path d="M 11.71875 12.40625 
L 22.015625 12.40625 
L 22.015625 0 
L 11.71875 0 
z
M 11.71875 51.703125 
L 22.015625 51.703125 
L 22.015625 39.3125 
L 11.71875 39.3125 
z
" id="DejaVuSans-58"/>
        <path d="M 40.578125 39.3125 
Q 47.65625 37.796875 51.625 33 
Q 55.609375 28.21875 55.609375 21.1875 
Q 55.609375 10.40625 48.1875 4.484375 
Q 40.765625 -1.421875 27.09375 -1.421875 
Q 22.515625 -1.421875 17.65625 -0.515625 
Q 12.796875 0.390625 7.625 2.203125 
L 7.625 11.71875 
Q 11.71875 9.328125 16.59375 8.109375 
Q 21.484375 6.890625 26.8125 6.890625 
Q 36.078125 6.890625 40.9375 10.546875 
Q 45.796875 14.203125 45.796875 21.1875 
Q 45.796875 27.640625 41.28125 31.265625 
Q 36.765625 34.90625 28.71875 34.90625 
L 20.21875 34.90625 
L 20.21875 43.015625 
L 29.109375 43.015625 
Q 36.375 43.015625 40.234375 45.921875 
Q 44.09375 48.828125 44.09375 54.296875 
Q 44.09375 59.90625 40.109375 62.90625 
Q 36.140625 65.921875 28.71875 65.921875 
Q 24.65625 65.921875 20.015625 65.03125 
Q 15.375 64.15625 9.8125 62.3125 
L 9.8125 71.09375 
Q 15.4375 72.65625 20.34375 73.4375 
Q 25.25 74.21875 29.59375 74.21875 
Q 40.828125 74.21875 47.359375 69.109375 
Q 53.90625 64.015625 53.90625 55.328125 
Q 53.90625 49.265625 50.4375 45.09375 
Q 46.96875 40.921875 40.578125 39.3125 
z
" id="DejaVuSans-51"/>
        <path d="M 31.78125 34.625 
Q 24.75 34.625 20.71875 30.859375 
Q 16.703125 27.09375 16.703125 20.515625 
Q 16.703125 13.921875 20.71875 10.15625 
Q 24.75 6.390625 31.78125 6.390625 
Q 38.8125 6.390625 42.859375 10.171875 
Q 46.921875 13.96875 46.921875 20.515625 
Q 46.921875 27.09375 42.890625 30.859375 
Q 38.875 34.625 31.78125 34.625 
z
M 21.921875 38.8125 
Q 15.578125 40.375 12.03125 44.71875 
Q 8.5 49.078125 8.5 55.328125 
Q 8.5 64.0625 14.71875 69.140625 
Q 20.953125 74.21875 31.78125 74.21875 
Q 42.671875 74.21875 48.875 69.140625 
Q 55.078125 64.0625 55.078125 55.328125 
Q 55.078125 49.078125 51.53125 44.71875 
Q 48 40.375 41.703125 38.8125 
Q 48.828125 37.15625 52.796875 32.3125 
Q 56.78125 27.484375 56.78125 20.515625 
Q 56.78125 9.90625 50.3125 4.234375 
Q 43.84375 -1.421875 31.78125 -1.421875 
Q 19.734375 -1.421875 13.25 4.234375 
Q 6.78125 9.90625 6.78125 20.515625 
Q 6.78125 27.484375 10.78125 32.3125 
Q 14.796875 37.15625 21.921875 38.8125 
z
M 18.3125 54.390625 
Q 18.3125 48.734375 21.84375 45.5625 
Q 25.390625 42.390625 31.78125 42.390625 
Q 38.140625 42.390625 41.71875 45.5625 
Q 45.3125 48.734375 45.3125 54.390625 
Q 45.3125 60.0625 41.71875 63.234375 
Q 38.140625 66.40625 31.78125 66.40625 
Q 25.390625 66.40625 21.84375 63.234375 
Q 18.3125 60.0625 18.3125 54.390625 
z
" id="DejaVuSans-56"/>
        <path d="M 37.796875 64.3125 
L 12.890625 25.390625 
L 37.796875 25.390625 
z
M 35.203125 72.90625 
L 47.609375 72.90625 
L 47.609375 25.390625 
L 58.015625 25.390625 
L 58.015625 17.1875 
L 47.609375 17.1875 
L 47.609375 0 
L 37.796875 0 
L 37.796875 17.1875 
L 4.890625 17.1875 
L 4.890625 26.703125 
z
" id="DejaVuSans-52"/>
        <path d="M 10.984375 1.515625 
L 10.984375 10.5 
Q 14.703125 8.734375 18.5 7.8125 
Q 22.3125 6.890625 25.984375 6.890625 
Q 35.75 6.890625 40.890625 13.453125 
Q 46.046875 20.015625 46.78125 33.40625 
Q 43.953125 29.203125 39.59375 26.953125 
Q 35.25 24.703125 29.984375 24.703125 
Q 19.046875 24.703125 12.671875 31.3125 
Q 6.296875 37.9375 6.296875 49.421875 
Q 6.296875 60.640625 12.9375 67.421875 
Q 19.578125 74.21875 30.609375 74.21875 
Q 43.265625 74.21875 49.921875 64.515625 
Q 56.59375 54.828125 56.59375 36.375 
Q 56.59375 19.140625 48.40625 8.859375 
Q 40.234375 -1.421875 26.421875 -1.421875 
Q 22.703125 -1.421875 18.890625 -0.6875 
Q 15.09375 0.046875 10.984375 1.515625 
z
M 30.609375 32.421875 
Q 37.25 32.421875 41.125 36.953125 
Q 45.015625 41.5 45.015625 49.421875 
Q 45.015625 57.28125 41.125 61.84375 
Q 37.25 66.40625 30.609375 66.40625 
Q 23.96875 66.40625 20.09375 61.84375 
Q 16.21875 57.28125 16.21875 49.421875 
Q 16.21875 41.5 20.09375 36.953125 
Q 23.96875 32.421875 30.609375 32.421875 
z
" id="DejaVuSans-57"/>
       </defs>
       <use xlink:href="#DejaVuSans-50"/>
       <use x="63.623047" xlink:href="#DejaVuSans-50"/>
       <use x="127.246094" xlink:href="#DejaVuSans-58"/>
       <use x="160.9375" xlink:href="#DejaVuSans-51"/>
       <use x="224.560547" xlink:href="#DejaVuSans-56"/>
       <use x="288.183594" xlink:href="#DejaVuSans-58"/>
       <use x="321.875" xlink:href="#DejaVuSans-52"/>
       <use x="385.498047" xlink:href="#DejaVuSans-57"/>
      </g>
     </g>
    </g>
    <g id="xtick_2">
     <g id="line2d_2">
      <g>
       <use style="stroke:#000000;stroke-width:0.8;" x="156.463734" xlink:href="#mff69a60ec8" y="448.56"/>
      </g>
     </g>
     <g id="text_2">
      <!-- 22:40:13 -->
      <g transform="translate(159.223109 500.4725)rotate(-90)scale(0.1 -0.1)">
       <defs>
        <path d="M 31.78125 66.40625 
Q 24.171875 66.40625 20.328125 58.90625 
Q 16.5 51.421875 16.5 36.375 
Q 16.5 21.390625 20.328125 13.890625 
Q 24.171875 6.390625 31.78125 6.390625 
Q 39.453125 6.390625 43.28125 13.890625 
Q 47.125 21.390625 47.125 36.375 
Q 47.125 51.421875 43.28125 58.90625 
Q 39.453125 66.40625 31.78125 66.40625 
z
M 31.78125 74.21875 
Q 44.046875 74.21875 50.515625 64.515625 
Q 56.984375 54.828125 56.984375 36.375 
Q 56.984375 17.96875 50.515625 8.265625 
Q 44.046875 -1.421875 31.78125 -1.421875 
Q 19.53125 -1.421875 13.0625 8.265625 
Q 6.59375 17.96875 6.59375 36.375 
Q 6.59375 54.828125 13.0625 64.515625 
Q 19.53125 74.21875 31.78125 74.21875 
z
" id="DejaVuSans-48"/>
        <path d="M 12.40625 8.296875 
L 28.515625 8.296875 
L 28.515625 63.921875 
L 10.984375 60.40625 
L 10.984375 69.390625 
L 28.421875 72.90625 
L 38.28125 72.90625 
L 38.28125 8.296875 
L 54.390625 8.296875 
L 54.390625 0 
L 12.40625 0 
z
" id="DejaVuSans-49"/>
       </defs>
       <use xlink:href="#DejaVuSans-50"/>
       <use x="63.623047" xlink:href="#DejaVuSans-50"/>
       <use x="127.246094" xlink:href="#DejaVuSans-58"/>
       <use x="160.9375" xlink:href="#DejaVuSans-52"/>
       <use x="224.560547" xlink:href="#DejaVuSans-48"/>
       <use x="288.183594" xlink:href="#DejaVuSans-58"/>
       <use x="321.875" xlink:href="#DejaVuSans-49"/>
       <use x="385.498047" xlink:href="#DejaVuSans-51"/>
      </g>
     </g>
    </g>
    <g id="xtick_3">
     <g id="line2d_3">
      <g>
       <use style="stroke:#000000;stroke-width:0.8;" x="180.578377" xlink:href="#mff69a60ec8" y="448.56"/>
      </g>
     </g>
     <g id="text_3">
      <!-- 22:41:37 -->
      <g transform="translate(183.337752 500.4725)rotate(-90)scale(0.1 -0.1)">
       <defs>
        <path d="M 8.203125 72.90625 
L 55.078125 72.90625 
L 55.078125 68.703125 
L 28.609375 0 
L 18.3125 0 
L 43.21875 64.59375 
L 8.203125 64.59375 
z
" id="DejaVuSans-55"/>
       </defs>
       <use xlink:href="#DejaVuSans-50"/>
       <use x="63.623047" xlink:href="#DejaVuSans-50"/>
       <use x="127.246094" xlink:href="#DejaVuSans-58"/>
       <use x="160.9375" xlink:href="#DejaVuSans-52"/>
       <use x="224.560547" xlink:href="#DejaVuSans-49"/>
       <use x="288.183594" xlink:href="#DejaVuSans-58"/>
       <use x="321.875" xlink:href="#DejaVuSans-51"/>
       <use x="385.498047" xlink:href="#DejaVuSans-55"/>
      </g>
     </g>
    </g>
    <g id="xtick_4">
     <g id="line2d_4">
      <g>
       <use style="stroke:#000000;stroke-width:0.8;" x="204.69302" xlink:href="#mff69a60ec8" y="448.56"/>
      </g>
     </g>
     <g id="text_4">
      <!-- 22:43:01 -->
      <g transform="translate(207.452395 500.4725)rotate(-90)scale(0.1 -0.1)">
       <use xlink:href="#DejaVuSans-50"/>
       <use x="63.623047" xlink:href="#DejaVuSans-50"/>
       <use x="127.246094" xlink:href="#DejaVuSans-58"/>
       <use x="160.9375" xlink:href="#DejaVuSans-52"/>
       <use x="224.560547" xlink:href="#DejaVuSans-51"/>
       <use x="288.183594" xlink:href="#DejaVuSans-58"/>
       <use x="321.875" xlink:href="#DejaVuSans-48"/>
       <use x="385.498047" xlink:href="#DejaVuSans-49"/>
      </g>
     </g>
    </g>
    <g id="xtick_5">
     <g id="line2d_5">
      <g>
       <use style="stroke:#000000;stroke-width:0.8;" x="228.807663" xlink:href="#mff69a60ec8" y="448.56"/>
      </g>
     </g>
     <g id="text_5">
      <!-- 22:44:25 -->
      <g transform="translate(231.567038 500.4725)rotate(-90)scale(0.1 -0.1)">
       <defs>
        <path d="M 10.796875 72.90625 
L 49.515625 72.90625 
L 49.515625 64.59375 
L 19.828125 64.59375 
L 19.828125 46.734375 
Q 21.96875 47.46875 24.109375 47.828125 
Q 26.265625 48.1875 28.421875 48.1875 
Q 40.625 48.1875 47.75 41.5 
Q 54.890625 34.8125 54.890625 23.390625 
Q 54.890625 11.625 47.5625 5.09375 
Q 40.234375 -1.421875 26.90625 -1.421875 
Q 22.3125 -1.421875 17.546875 -0.640625 
Q 12.796875 0.140625 7.71875 1.703125 
L 7.71875 11.625 
Q 12.109375 9.234375 16.796875 8.0625 
Q 21.484375 6.890625 26.703125 6.890625 
Q 35.15625 6.890625 40.078125 11.328125 
Q 45.015625 15.765625 45.015625 23.390625 
Q 45.015625 31 40.078125 35.4375 
Q 35.15625 39.890625 26.703125 39.890625 
Q 22.75 39.890625 18.8125 39.015625 
Q 14.890625 38.140625 10.796875 36.28125 
z
" id="DejaVuSans-53"/>
       </defs>
       <use xlink:href="#DejaVuSans-50"/>
       <use x="63.623047" xlink:href="#DejaVuSans-50"/>
       <use x="127.246094" xlink:href="#DejaVuSans-58"/>
       <use x="160.9375" xlink:href="#DejaVuSans-52"/>
       <use x="224.560547" xlink:href="#DejaVuSans-52"/>
       <use x="288.183594" xlink:href="#DejaVuSans-58"/>
       <use x="321.875" xlink:href="#DejaVuSans-50"/>
       <use x="385.498047" xlink:href="#DejaVuSans-53"/>
      </g>
     </g>
    </g>
    <g id="xtick_6">
     <g id="line2d_6">
      <g>
       <use style="stroke:#000000;stroke-width:0.8;" x="252.922306" xlink:href="#mff69a60ec8" y="448.56"/>
      </g>
     </g>
     <g id="text_6">
      <!-- 22:45:49 -->
      <g transform="translate(255.681681 500.4725)rotate(-90)scale(0.1 -0.1)">
       <use xlink:href="#DejaVuSans-50"/>
       <use x="63.623047" xlink:href="#DejaVuSans-50"/>
       <use x="127.246094" xlink:href="#DejaVuSans-58"/>
       <use x="160.9375" xlink:href="#DejaVuSans-52"/>
       <use x="224.560547" xlink:href="#DejaVuSans-53"/>
       <use x="288.183594" xlink:href="#DejaVuSans-58"/>
       <use x="321.875" xlink:href="#DejaVuSans-52"/>
       <use x="385.498047" xlink:href="#DejaVuSans-57"/>
      </g>
     </g>
    </g>
    <g id="xtick_7">
     <g id="line2d_7">
      <g>
       <use style="stroke:#000000;stroke-width:0.8;" x="277.036949" xlink:href="#mff69a60ec8" y="448.56"/>
      </g>
     </g>
     <g id="text_7">
      <!-- 22:47:13 -->
      <g transform="translate(279.796324 500.4725)rotate(-90)scale(0.1 -0.1)">
       <use xlink:href="#DejaVuSans-50"/>
       <use x="63.623047" xlink:href="#DejaVuSans-50"/>
       <use x="127.246094" xlink:href="#DejaVuSans-58"/>
       <use x="160.9375" xlink:href="#DejaVuSans-52"/>
       <use x="224.560547" xlink:href="#DejaVuSans-55"/>
       <use x="288.183594" xlink:href="#DejaVuSans-58"/>
       <use x="321.875" xlink:href="#DejaVuSans-49"/>
       <use x="385.498047" xlink:href="#DejaVuSans-51"/>
      </g>
     </g>
    </g>
    <g id="xtick_8">
     <g id="line2d_8">
      <g>
       <use style="stroke:#000000;stroke-width:0.8;" x="301.151592" xlink:href="#mff69a60ec8" y="448.56"/>
      </g>
     </g>
     <g id="text_8">
      <!-- 22:48:37 -->
      <g transform="translate(303.910967 500.4725)rotate(-90)scale(0.1 -0.1)">
       <use xlink:href="#DejaVuSans-50"/>
       <use x="63.623047" xlink:href="#DejaVuSans-50"/>
       <use x="127.246094" xlink:href="#DejaVuSans-58"/>
       <use x="160.9375" xlink:href="#DejaVuSans-52"/>
       <use x="224.560547" xlink:href="#DejaVuSans-56"/>
       <use x="288.183594" xlink:href="#DejaVuSans-58"/>
       <use x="321.875" xlink:href="#DejaVuSans-51"/>
       <use x="385.498047" xlink:href="#DejaVuSans-55"/>
      </g>
     </g>
    </g>
    <g id="xtick_9">
     <g id="line2d_9">
      <g>
       <use style="stroke:#000000;stroke-width:0.8;" x="325.266235" xlink:href="#mff69a60ec8" y="448.56"/>
      </g>
     </g>
     <g id="text_9">
      <!-- 22:50:01 -->
      <g transform="translate(328.02561 500.4725)rotate(-90)scale(0.1 -0.1)">
       <use xlink:href="#DejaVuSans-50"/>
       <use x="63.623047" xlink:href="#DejaVuSans-50"/>
       <use x="127.246094" xlink:href="#DejaVuSans-58"/>
       <use x="160.9375" xlink:href="#DejaVuSans-53"/>
       <use x="224.560547" xlink:href="#DejaVuSans-48"/>
       <use x="288.183594" xlink:href="#DejaVuSans-58"/>
       <use x="321.875" xlink:href="#DejaVuSans-48"/>
       <use x="385.498047" xlink:href="#DejaVuSans-49"/>
      </g>
     </g>
    </g>
    <g id="xtick_10">
     <g id="line2d_10">
      <g>
       <use style="stroke:#000000;stroke-width:0.8;" x="349.380878" xlink:href="#mff69a60ec8" y="448.56"/>
      </g>
     </g>
     <g id="text_10">
      <!-- 22:51:25 -->
      <g transform="translate(352.140253 500.4725)rotate(-90)scale(0.1 -0.1)">
       <use xlink:href="#DejaVuSans-50"/>
       <use x="63.623047" xlink:href="#DejaVuSans-50"/>
       <use x="127.246094" xlink:href="#DejaVuSans-58"/>
       <use x="160.9375" xlink:href="#DejaVuSans-53"/>
       <use x="224.560547" xlink:href="#DejaVuSans-49"/>
       <use x="288.183594" xlink:href="#DejaVuSans-58"/>
       <use x="321.875" xlink:href="#DejaVuSans-50"/>
       <use x="385.498047" xlink:href="#DejaVuSans-53"/>
      </g>
     </g>
    </g>
    <g id="xtick_11">
     <g id="line2d_11">
      <g>
       <use style="stroke:#000000;stroke-width:0.8;" x="373.495521" xlink:href="#mff69a60ec8" y="448.56"/>
      </g>
     </g>
     <g id="text_11">
      <!-- 22:52:49 -->
      <g transform="translate(376.254896 500.4725)rotate(-90)scale(0.1 -0.1)">
       <use xlink:href="#DejaVuSans-50"/>
       <use x="63.623047" xlink:href="#DejaVuSans-50"/>
       <use x="127.246094" xlink:href="#DejaVuSans-58"/>
       <use x="160.9375" xlink:href="#DejaVuSans-53"/>
       <use x="224.560547" xlink:href="#DejaVuSans-50"/>
       <use x="288.183594" xlink:href="#DejaVuSans-58"/>
       <use x="321.875" xlink:href="#DejaVuSans-52"/>
       <use x="385.498047" xlink:href="#DejaVuSans-57"/>
      </g>
     </g>
    </g>
    <g id="xtick_12">
     <g id="line2d_12">
      <g>
       <use style="stroke:#000000;stroke-width:0.8;" x="397.610164" xlink:href="#mff69a60ec8" y="448.56"/>
      </g>
     </g>
     <g id="text_12">
      <!-- 22:54:13 -->
      <g transform="translate(400.369539 500.4725)rotate(-90)scale(0.1 -0.1)">
       <use xlink:href="#DejaVuSans-50"/>
       <use x="63.623047" xlink:href="#DejaVuSans-50"/>
       <use x="127.246094" xlink:href="#DejaVuSans-58"/>
       <use x="160.9375" xlink:href="#DejaVuSans-53"/>
       <use x="224.560547" xlink:href="#DejaVuSans-52"/>
       <use x="288.183594" xlink:href="#DejaVuSans-58"/>
       <use x="321.875" xlink:href="#DejaVuSans-49"/>
       <use x="385.498047" xlink:href="#DejaVuSans-51"/>
      </g>
     </g>
    </g>
    <g id="xtick_13">
     <g id="line2d_13">
      <g>
       <use style="stroke:#000000;stroke-width:0.8;" x="421.724807" xlink:href="#mff69a60ec8" y="448.56"/>
      </g>
     </g>
     <g id="text_13">
      <!-- 22:55:37 -->
      <g transform="translate(424.484182 500.4725)rotate(-90)scale(0.1 -0.1)">
       <use xlink:href="#DejaVuSans-50"/>
       <use x="63.623047" xlink:href="#DejaVuSans-50"/>
       <use x="127.246094" xlink:href="#DejaVuSans-58"/>
       <use x="160.9375" xlink:href="#DejaVuSans-53"/>
       <use x="224.560547" xlink:href="#DejaVuSans-53"/>
       <use x="288.183594" xlink:href="#DejaVuSans-58"/>
       <use x="321.875" xlink:href="#DejaVuSans-51"/>
       <use x="385.498047" xlink:href="#DejaVuSans-55"/>
      </g>
     </g>
    </g>
    <g id="xtick_14">
     <g id="line2d_14">
      <g>
       <use style="stroke:#000000;stroke-width:0.8;" x="445.83945" xlink:href="#mff69a60ec8" y="448.56"/>
      </g>
     </g>
     <g id="text_14">
      <!-- 22:57:01 -->
      <g transform="translate(448.598825 500.4725)rotate(-90)scale(0.1 -0.1)">
       <use xlink:href="#DejaVuSans-50"/>
       <use x="63.623047" xlink:href="#DejaVuSans-50"/>
       <use x="127.246094" xlink:href="#DejaVuSans-58"/>
       <use x="160.9375" xlink:href="#DejaVuSans-53"/>
       <use x="224.560547" xlink:href="#DejaVuSans-55"/>
       <use x="288.183594" xlink:href="#DejaVuSans-58"/>
       <use x="321.875" xlink:href="#DejaVuSans-48"/>
       <use x="385.498047" xlink:href="#DejaVuSans-49"/>
      </g>
     </g>
    </g>
    <g id="xtick_15">
     <g id="line2d_15">
      <g>
       <use style="stroke:#000000;stroke-width:0.8;" x="469.954093" xlink:href="#mff69a60ec8" y="448.56"/>
      </g>
     </g>
     <g id="text_15">
      <!-- 22:58:25 -->
      <g transform="translate(472.713468 500.4725)rotate(-90)scale(0.1 -0.1)">
       <use xlink:href="#DejaVuSans-50"/>
       <use x="63.623047" xlink:href="#DejaVuSans-50"/>
       <use x="127.246094" xlink:href="#DejaVuSans-58"/>
       <use x="160.9375" xlink:href="#DejaVuSans-53"/>
       <use x="224.560547" xlink:href="#DejaVuSans-56"/>
       <use x="288.183594" xlink:href="#DejaVuSans-58"/>
       <use x="321.875" xlink:href="#DejaVuSans-50"/>
       <use x="385.498047" xlink:href="#DejaVuSans-53"/>
      </g>
     </g>
    </g>
    <g id="xtick_16">
     <g id="line2d_16">
      <g>
       <use style="stroke:#000000;stroke-width:0.8;" x="494.068736" xlink:href="#mff69a60ec8" y="448.56"/>
      </g>
     </g>
     <g id="text_16">
      <!-- 22:59:49 -->
      <g transform="translate(496.828111 500.4725)rotate(-90)scale(0.1 -0.1)">
       <use xlink:href="#DejaVuSans-50"/>
       <use x="63.623047" xlink:href="#DejaVuSans-50"/>
       <use x="127.246094" xlink:href="#DejaVuSans-58"/>
       <use x="160.9375" xlink:href="#DejaVuSans-53"/>
       <use x="224.560547" xlink:href="#DejaVuSans-57"/>
       <use x="288.183594" xlink:href="#DejaVuSans-58"/>
       <use x="321.875" xlink:href="#DejaVuSans-52"/>
       <use x="385.498047" xlink:href="#DejaVuSans-57"/>
      </g>
     </g>
    </g>
    <g id="xtick_17">
     <g id="line2d_17">
      <g>
       <use style="stroke:#000000;stroke-width:0.8;" x="518.183379" xlink:href="#mff69a60ec8" y="448.56"/>
      </g>
     </g>
     <g id="text_17">
      <!-- 23:01:13 -->
      <g transform="translate(520.942754 500.4725)rotate(-90)scale(0.1 -0.1)">
       <use xlink:href="#DejaVuSans-50"/>
       <use x="63.623047" xlink:href="#DejaVuSans-51"/>
       <use x="127.246094" xlink:href="#DejaVuSans-58"/>
       <use x="160.9375" xlink:href="#DejaVuSans-48"/>
       <use x="224.560547" xlink:href="#DejaVuSans-49"/>
       <use x="288.183594" xlink:href="#DejaVuSans-58"/>
       <use x="321.875" xlink:href="#DejaVuSans-49"/>
       <use x="385.498047" xlink:href="#DejaVuSans-51"/>
      </g>
     </g>
    </g>
    <g id="xtick_18">
     <g id="line2d_18">
      <g>
       <use style="stroke:#000000;stroke-width:0.8;" x="542.298022" xlink:href="#mff69a60ec8" y="448.56"/>
      </g>
     </g>
     <g id="text_18">
      <!-- 23:02:37 -->
      <g transform="translate(545.057397 500.4725)rotate(-90)scale(0.1 -0.1)">
       <use xlink:href="#DejaVuSans-50"/>
       <use x="63.623047" xlink:href="#DejaVuSans-51"/>
       <use x="127.246094" xlink:href="#DejaVuSans-58"/>
       <use x="160.9375" xlink:href="#DejaVuSans-48"/>
       <use x="224.560547" xlink:href="#DejaVuSans-50"/>
       <use x="288.183594" xlink:href="#DejaVuSans-58"/>
       <use x="321.875" xlink:href="#DejaVuSans-51"/>
       <use x="385.498047" xlink:href="#DejaVuSans-55"/>
      </g>
     </g>
    </g>
    <g id="xtick_19">
     <g id="line2d_19">
      <g>
       <use style="stroke:#000000;stroke-width:0.8;" x="566.412665" xlink:href="#mff69a60ec8" y="448.56"/>
      </g>
     </g>
     <g id="text_19">
      <!-- 23:04:01 -->
      <g transform="translate(569.17204 500.4725)rotate(-90)scale(0.1 -0.1)">
       <use xlink:href="#DejaVuSans-50"/>
       <use x="63.623047" xlink:href="#DejaVuSans-51"/>
       <use x="127.246094" xlink:href="#DejaVuSans-58"/>
       <use x="160.9375" xlink:href="#DejaVuSans-48"/>
       <use x="224.560547" xlink:href="#DejaVuSans-52"/>
       <use x="288.183594" xlink:href="#DejaVuSans-58"/>
       <use x="321.875" xlink:href="#DejaVuSans-48"/>
       <use x="385.498047" xlink:href="#DejaVuSans-49"/>
      </g>
     </g>
    </g>
    <g id="xtick_20">
     <g id="line2d_20">
      <g>
       <use style="stroke:#000000;stroke-width:0.8;" x="590.527308" xlink:href="#mff69a60ec8" y="448.56"/>
      </g>
     </g>
     <g id="text_20">
      <!-- 23:05:25 -->
      <g transform="translate(593.286683 500.4725)rotate(-90)scale(0.1 -0.1)">
       <use xlink:href="#DejaVuSans-50"/>
       <use x="63.623047" xlink:href="#DejaVuSans-51"/>
       <use x="127.246094" xlink:href="#DejaVuSans-58"/>
       <use x="160.9375" xlink:href="#DejaVuSans-48"/>
       <use x="224.560547" xlink:href="#DejaVuSans-53"/>
       <use x="288.183594" xlink:href="#DejaVuSans-58"/>
       <use x="321.875" xlink:href="#DejaVuSans-50"/>
       <use x="385.498047" xlink:href="#DejaVuSans-53"/>
      </g>
     </g>
    </g>
    <g id="xtick_21">
     <g id="line2d_21">
      <g>
       <use style="stroke:#000000;stroke-width:0.8;" x="614.641951" xlink:href="#mff69a60ec8" y="448.56"/>
      </g>
     </g>
     <g id="text_21">
      <!-- 23:06:50 -->
      <g transform="translate(617.401326 500.4725)rotate(-90)scale(0.1 -0.1)">
       <defs>
        <path d="M 33.015625 40.375 
Q 26.375 40.375 22.484375 35.828125 
Q 18.609375 31.296875 18.609375 23.390625 
Q 18.609375 15.53125 22.484375 10.953125 
Q 26.375 6.390625 33.015625 6.390625 
Q 39.65625 6.390625 43.53125 10.953125 
Q 47.40625 15.53125 47.40625 23.390625 
Q 47.40625 31.296875 43.53125 35.828125 
Q 39.65625 40.375 33.015625 40.375 
z
M 52.59375 71.296875 
L 52.59375 62.3125 
Q 48.875 64.0625 45.09375 64.984375 
Q 41.3125 65.921875 37.59375 65.921875 
Q 27.828125 65.921875 22.671875 59.328125 
Q 17.53125 52.734375 16.796875 39.40625 
Q 19.671875 43.65625 24.015625 45.921875 
Q 28.375 48.1875 33.59375 48.1875 
Q 44.578125 48.1875 50.953125 41.515625 
Q 57.328125 34.859375 57.328125 23.390625 
Q 57.328125 12.15625 50.6875 5.359375 
Q 44.046875 -1.421875 33.015625 -1.421875 
Q 20.359375 -1.421875 13.671875 8.265625 
Q 6.984375 17.96875 6.984375 36.375 
Q 6.984375 53.65625 15.1875 63.9375 
Q 23.390625 74.21875 37.203125 74.21875 
Q 40.921875 74.21875 44.703125 73.484375 
Q 48.484375 72.75 52.59375 71.296875 
z
" id="DejaVuSans-54"/>
       </defs>
       <use xlink:href="#DejaVuSans-50"/>
       <use x="63.623047" xlink:href="#DejaVuSans-51"/>
       <use x="127.246094" xlink:href="#DejaVuSans-58"/>
       <use x="160.9375" xlink:href="#DejaVuSans-48"/>
       <use x="224.560547" xlink:href="#DejaVuSans-54"/>
       <use x="288.183594" xlink:href="#DejaVuSans-58"/>
       <use x="321.875" xlink:href="#DejaVuSans-53"/>
       <use x="385.498047" xlink:href="#DejaVuSans-48"/>
      </g>
     </g>
    </g>
    <g id="text_22">
     <!-- timestamp -->
     <g transform="translate(354.264375 510.55125)scale(0.08 -0.08)">
      <defs>
       <path d="M 18.3125 70.21875 
L 18.3125 54.6875 
L 36.8125 54.6875 
L 36.8125 47.703125 
L 18.3125 47.703125 
L 18.3125 18.015625 
Q 18.3125 11.328125 20.140625 9.421875 
Q 21.96875 7.515625 27.59375 7.515625 
L 36.8125 7.515625 
L 36.8125 0 
L 27.59375 0 
Q 17.1875 0 13.234375 3.875 
Q 9.28125 7.765625 9.28125 18.015625 
L 9.28125 47.703125 
L 2.6875 47.703125 
L 2.6875 54.6875 
L 9.28125 54.6875 
L 9.28125 70.21875 
z
" id="DejaVuSans-116"/>
       <path d="M 9.421875 54.6875 
L 18.40625 54.6875 
L 18.40625 0 
L 9.421875 0 
z
M 9.421875 75.984375 
L 18.40625 75.984375 
L 18.40625 64.59375 
L 9.421875 64.59375 
z
" id="DejaVuSans-105"/>
       <path d="M 52 44.1875 
Q 55.375 50.25 60.0625 53.125 
Q 64.75 56 71.09375 56 
Q 79.640625 56 84.28125 50.015625 
Q 88.921875 44.046875 88.921875 33.015625 
L 88.921875 0 
L 79.890625 0 
L 79.890625 32.71875 
Q 79.890625 40.578125 77.09375 44.375 
Q 74.3125 48.1875 68.609375 48.1875 
Q 61.625 48.1875 57.5625 43.546875 
Q 53.515625 38.921875 53.515625 30.90625 
L 53.515625 0 
L 44.484375 0 
L 44.484375 32.71875 
Q 44.484375 40.625 41.703125 44.40625 
Q 38.921875 48.1875 33.109375 48.1875 
Q 26.21875 48.1875 22.15625 43.53125 
Q 18.109375 38.875 18.109375 30.90625 
L 18.109375 0 
L 9.078125 0 
L 9.078125 54.6875 
L 18.109375 54.6875 
L 18.109375 46.1875 
Q 21.1875 51.21875 25.484375 53.609375 
Q 29.78125 56 35.6875 56 
Q 41.65625 56 45.828125 52.96875 
Q 50 49.953125 52 44.1875 
z
" id="DejaVuSans-109"/>
       <path d="M 56.203125 29.59375 
L 56.203125 25.203125 
L 14.890625 25.203125 
Q 15.484375 15.921875 20.484375 11.0625 
Q 25.484375 6.203125 34.421875 6.203125 
Q 39.59375 6.203125 44.453125 7.46875 
Q 49.3125 8.734375 54.109375 11.28125 
L 54.109375 2.78125 
Q 49.265625 0.734375 44.1875 -0.34375 
Q 39.109375 -1.421875 33.890625 -1.421875 
Q 20.796875 -1.421875 13.15625 6.1875 
Q 5.515625 13.8125 5.515625 26.8125 
Q 5.515625 40.234375 12.765625 48.109375 
Q 20.015625 56 32.328125 56 
Q 43.359375 56 49.78125 48.890625 
Q 56.203125 41.796875 56.203125 29.59375 
z
M 47.21875 32.234375 
Q 47.125 39.59375 43.09375 43.984375 
Q 39.0625 48.390625 32.421875 48.390625 
Q 24.90625 48.390625 20.390625 44.140625 
Q 15.875 39.890625 15.1875 32.171875 
z
" id="DejaVuSans-101"/>
       <path d="M 44.28125 53.078125 
L 44.28125 44.578125 
Q 40.484375 46.53125 36.375 47.5 
Q 32.28125 48.484375 27.875 48.484375 
Q 21.1875 48.484375 17.84375 46.4375 
Q 14.5 44.390625 14.5 40.28125 
Q 14.5 37.15625 16.890625 35.375 
Q 19.28125 33.59375 26.515625 31.984375 
L 29.59375 31.296875 
Q 39.15625 29.25 43.1875 25.515625 
Q 47.21875 21.78125 47.21875 15.09375 
Q 47.21875 7.46875 41.1875 3.015625 
Q 35.15625 -1.421875 24.609375 -1.421875 
Q 20.21875 -1.421875 15.453125 -0.5625 
Q 10.6875 0.296875 5.421875 2 
L 5.421875 11.28125 
Q 10.40625 8.6875 15.234375 7.390625 
Q 20.0625 6.109375 24.8125 6.109375 
Q 31.15625 6.109375 34.5625 8.28125 
Q 37.984375 10.453125 37.984375 14.40625 
Q 37.984375 18.0625 35.515625 20.015625 
Q 33.0625 21.96875 24.703125 23.78125 
L 21.578125 24.515625 
Q 13.234375 26.265625 9.515625 29.90625 
Q 5.8125 33.546875 5.8125 39.890625 
Q 5.8125 47.609375 11.28125 51.796875 
Q 16.75 56 26.8125 56 
Q 31.78125 56 36.171875 55.265625 
Q 40.578125 54.546875 44.28125 53.078125 
z
" id="DejaVuSans-115"/>
       <path d="M 34.28125 27.484375 
Q 23.390625 27.484375 19.1875 25 
Q 14.984375 22.515625 14.984375 16.5 
Q 14.984375 11.71875 18.140625 8.90625 
Q 21.296875 6.109375 26.703125 6.109375 
Q 34.1875 6.109375 38.703125 11.40625 
Q 43.21875 16.703125 43.21875 25.484375 
L 43.21875 27.484375 
z
M 52.203125 31.203125 
L 52.203125 0 
L 43.21875 0 
L 43.21875 8.296875 
Q 40.140625 3.328125 35.546875 0.953125 
Q 30.953125 -1.421875 24.3125 -1.421875 
Q 15.921875 -1.421875 10.953125 3.296875 
Q 6 8.015625 6 15.921875 
Q 6 25.140625 12.171875 29.828125 
Q 18.359375 34.515625 30.609375 34.515625 
L 43.21875 34.515625 
L 43.21875 35.40625 
Q 43.21875 41.609375 39.140625 45 
Q 35.0625 48.390625 27.6875 48.390625 
Q 23 48.390625 18.546875 47.265625 
Q 14.109375 46.140625 10.015625 43.890625 
L 10.015625 52.203125 
Q 14.9375 54.109375 19.578125 55.046875 
Q 24.21875 56 28.609375 56 
Q 40.484375 56 46.34375 49.84375 
Q 52.203125 43.703125 52.203125 31.203125 
z
" id="DejaVuSans-97"/>
       <path d="M 18.109375 8.203125 
L 18.109375 -20.796875 
L 9.078125 -20.796875 
L 9.078125 54.6875 
L 18.109375 54.6875 
L 18.109375 46.390625 
Q 20.953125 51.265625 25.265625 53.625 
Q 29.59375 56 35.59375 56 
Q 45.5625 56 51.78125 48.09375 
Q 58.015625 40.1875 58.015625 27.296875 
Q 58.015625 14.40625 51.78125 6.484375 
Q 45.5625 -1.421875 35.59375 -1.421875 
Q 29.59375 -1.421875 25.265625 0.953125 
Q 20.953125 3.328125 18.109375 8.203125 
z
M 48.6875 27.296875 
Q 48.6875 37.203125 44.609375 42.84375 
Q 40.53125 48.484375 33.40625 48.484375 
Q 26.265625 48.484375 22.1875 42.84375 
Q 18.109375 37.203125 18.109375 27.296875 
Q 18.109375 17.390625 22.1875 11.75 
Q 26.265625 6.109375 33.40625 6.109375 
Q 40.53125 6.109375 44.609375 11.75 
Q 48.6875 17.390625 48.6875 27.296875 
z
" id="DejaVuSans-112"/>
      </defs>
      <use xlink:href="#DejaVuSans-116"/>
      <use x="39.208984" xlink:href="#DejaVuSans-105"/>
      <use x="66.992188" xlink:href="#DejaVuSans-109"/>
      <use x="164.404297" xlink:href="#DejaVuSans-101"/>
      <use x="225.927734" xlink:href="#DejaVuSans-115"/>
      <use x="278.027344" xlink:href="#DejaVuSans-116"/>
      <use x="317.236328" xlink:href="#DejaVuSans-97"/>
      <use x="378.515625" xlink:href="#DejaVuSans-109"/>
      <use x="475.927734" xlink:href="#DejaVuSans-112"/>
     </g>
    </g>
   </g>
   <g id="matplotlib.axis_2">
    <g id="ytick_1">
     <g id="line2d_22">
      <defs>
       <path d="M 0 0 
L -3.5 0 
" id="m9d62e8a5b0" style="stroke:#000000;stroke-width:0.8;"/>
      </defs>
      <g>
       <use style="stroke:#000000;stroke-width:0.8;" x="108" xlink:href="#m9d62e8a5b0" y="403.117206"/>
      </g>
     </g>
     <g id="text_23">
      <!-- 12200 -->
      <g transform="translate(69.1875 406.916425)scale(0.1 -0.1)">
       <use xlink:href="#DejaVuSans-49"/>
       <use x="63.623047" xlink:href="#DejaVuSans-50"/>
       <use x="127.246094" xlink:href="#DejaVuSans-50"/>
       <use x="190.869141" xlink:href="#DejaVuSans-48"/>
       <use x="254.492188" xlink:href="#DejaVuSans-48"/>
      </g>
     </g>
    </g>
    <g id="ytick_2">
     <g id="line2d_23">
      <g>
       <use style="stroke:#000000;stroke-width:0.8;" x="108" xlink:href="#m9d62e8a5b0" y="344.45162"/>
      </g>
     </g>
     <g id="text_24">
      <!-- 12400 -->
      <g transform="translate(69.1875 348.250839)scale(0.1 -0.1)">
       <use xlink:href="#DejaVuSans-49"/>
       <use x="63.623047" xlink:href="#DejaVuSans-50"/>
       <use x="127.246094" xlink:href="#DejaVuSans-52"/>
       <use x="190.869141" xlink:href="#DejaVuSans-48"/>
       <use x="254.492188" xlink:href="#DejaVuSans-48"/>
      </g>
     </g>
    </g>
    <g id="ytick_3">
     <g id="line2d_24">
      <g>
       <use style="stroke:#000000;stroke-width:0.8;" x="108" xlink:href="#m9d62e8a5b0" y="285.786035"/>
      </g>
     </g>
     <g id="text_25">
      <!-- 12600 -->
      <g transform="translate(69.1875 289.585254)scale(0.1 -0.1)">
       <use xlink:href="#DejaVuSans-49"/>
       <use x="63.623047" xlink:href="#DejaVuSans-50"/>
       <use x="127.246094" xlink:href="#DejaVuSans-54"/>
       <use x="190.869141" xlink:href="#DejaVuSans-48"/>
       <use x="254.492188" xlink:href="#DejaVuSans-48"/>
      </g>
     </g>
    </g>
    <g id="ytick_4">
     <g id="line2d_25">
      <g>
       <use style="stroke:#000000;stroke-width:0.8;" x="108" xlink:href="#m9d62e8a5b0" y="227.12045"/>
      </g>
     </g>
     <g id="text_26">
      <!-- 12800 -->
      <g transform="translate(69.1875 230.919668)scale(0.1 -0.1)">
       <use xlink:href="#DejaVuSans-49"/>
       <use x="63.623047" xlink:href="#DejaVuSans-50"/>
       <use x="127.246094" xlink:href="#DejaVuSans-56"/>
       <use x="190.869141" xlink:href="#DejaVuSans-48"/>
       <use x="254.492188" xlink:href="#DejaVuSans-48"/>
      </g>
     </g>
    </g>
    <g id="ytick_5">
     <g id="line2d_26">
      <g>
       <use style="stroke:#000000;stroke-width:0.8;" x="108" xlink:href="#m9d62e8a5b0" y="168.454864"/>
      </g>
     </g>
     <g id="text_27">
      <!-- 13000 -->
      <g transform="translate(69.1875 172.254083)scale(0.1 -0.1)">
       <use xlink:href="#DejaVuSans-49"/>
       <use x="63.623047" xlink:href="#DejaVuSans-51"/>
       <use x="127.246094" xlink:href="#DejaVuSans-48"/>
       <use x="190.869141" xlink:href="#DejaVuSans-48"/>
       <use x="254.492188" xlink:href="#DejaVuSans-48"/>
      </g>
     </g>
    </g>
    <g id="ytick_6">
     <g id="line2d_27">
      <g>
       <use style="stroke:#000000;stroke-width:0.8;" x="108" xlink:href="#m9d62e8a5b0" y="109.789279"/>
      </g>
     </g>
     <g id="text_28">
      <!-- 13200 -->
      <g transform="translate(69.1875 113.588497)scale(0.1 -0.1)">
       <use xlink:href="#DejaVuSans-49"/>
       <use x="63.623047" xlink:href="#DejaVuSans-51"/>
       <use x="127.246094" xlink:href="#DejaVuSans-50"/>
       <use x="190.869141" xlink:href="#DejaVuSans-48"/>
       <use x="254.492188" xlink:href="#DejaVuSans-48"/>
      </g>
     </g>
    </g>
    <g id="text_29">
     <!-- MB -->
     <g transform="translate(63.52375 260.715625)rotate(-90)scale(0.08 -0.08)">
      <defs>
       <path d="M 9.8125 72.90625 
L 24.515625 72.90625 
L 43.109375 23.296875 
L 61.8125 72.90625 
L 76.515625 72.90625 
L 76.515625 0 
L 66.890625 0 
L 66.890625 64.015625 
L 48.09375 14.015625 
L 38.1875 14.015625 
L 19.390625 64.015625 
L 19.390625 0 
L 9.8125 0 
z
" id="DejaVuSans-77"/>
       <path d="M 19.671875 34.8125 
L 19.671875 8.109375 
L 35.5 8.109375 
Q 43.453125 8.109375 47.28125 11.40625 
Q 51.125 14.703125 51.125 21.484375 
Q 51.125 28.328125 47.28125 31.5625 
Q 43.453125 34.8125 35.5 34.8125 
z
M 19.671875 64.796875 
L 19.671875 42.828125 
L 34.28125 42.828125 
Q 41.5 42.828125 45.03125 45.53125 
Q 48.578125 48.25 48.578125 53.8125 
Q 48.578125 59.328125 45.03125 62.0625 
Q 41.5 64.796875 34.28125 64.796875 
z
M 9.8125 72.90625 
L 35.015625 72.90625 
Q 46.296875 72.90625 52.390625 68.21875 
Q 58.5 63.53125 58.5 54.890625 
Q 58.5 48.1875 55.375 44.234375 
Q 52.25 40.28125 46.1875 39.3125 
Q 53.46875 37.75 57.5 32.78125 
Q 61.53125 27.828125 61.53125 20.40625 
Q 61.53125 10.640625 54.890625 5.3125 
Q 48.25 0 35.984375 0 
L 9.8125 0 
z
" id="DejaVuSans-66"/>
      </defs>
      <use xlink:href="#DejaVuSans-77"/>
      <use x="86.279297" xlink:href="#DejaVuSans-66"/>
     </g>
    </g>
   </g>
   <g id="line2d_28">
    <path clip-path="url(#pbd5b522a47)" d="M 132.349091 81.213788 
L 132.684017 80.836526 
L 133.018942 79.763613 
L 133.353868 80.197344 
L 133.688793 79.358717 
L 134.023719 78.888942 
L 134.358644 78.12 
L 135.028496 80.975897 
L 135.363421 80.593829 
L 135.698347 80.563792 
L 136.033272 79.65548 
L 136.368198 80.080801 
L 136.703124 81.965909 
L 137.7079 147.454499 
L 138.042826 204.521978 
L 138.712677 271.881259 
L 139.047603 295.412072 
L 139.717454 371.04228 
L 140.387305 410.269113 
L 140.722231 411.142583 
L 141.057156 412.914753 
L 141.392082 413.233143 
L 141.727008 412.604773 
L 142.061933 409.366808 
L 142.396859 410.597115 
L 142.731784 409.783719 
L 143.06671 409.714034 
L 143.401636 408.85378 
L 143.736561 409.395644 
L 144.071487 410.836208 
L 144.406412 410.388059 
L 144.741338 410.432513 
L 145.076264 408.732432 
L 145.411189 415.37897 
L 145.746115 415.374164 
L 146.08104 414.464651 
L 146.415966 412.394516 
L 146.750892 417.529604 
L 147.085817 418.658987 
L 147.420743 418.8332 
L 147.755668 415.124258 
L 148.42552 413.83508 
L 148.760445 412.321226 
L 149.095371 411.708476 
L 149.430296 410.688427 
L 149.765222 416.311312 
L 150.100148 418.109914 
L 150.435073 417.008165 
L 150.769999 413.833878 
L 151.104924 413.055325 
L 151.43985 414.540343 
L 151.774776 414.677311 
L 152.109701 413.847094 
L 152.444627 411.98962 
L 152.779552 413.556338 
L 153.114478 415.726195 
L 153.449404 414.679714 
L 154.119255 413.627225 
L 154.45418 414.81548 
L 154.789106 414.745795 
L 155.124032 415.005313 
L 155.458957 414.264005 
L 155.793883 414.382951 
L 156.128808 414.900785 
L 156.463734 414.763817 
L 156.798659 414.86474 
L 157.133585 413.086563 
L 157.468511 414.23517 
L 157.803436 414.376943 
L 158.138362 414.683318 
L 158.473287 412.354867 
L 158.808213 412.55311 
L 159.143139 414.88877 
L 160.147915 412.455791 
L 160.482841 415.231189 
L 161.487618 414.143858 
L 161.822543 414.203931 
L 162.157469 415.053371 
L 162.492395 414.402174 
L 162.82732 414.474262 
L 163.162246 413.665672 
L 163.497171 414.489881 
L 164.167023 413.378521 
L 164.501948 411.307184 
L 164.836874 413.505877 
L 165.171799 413.943212 
L 165.841651 413.714933 
L 166.176576 412.783792 
L 166.511502 413.917981 
L 166.846427 414.23517 
L 167.181353 413.740163 
L 167.516279 412.776584 
L 167.851204 415.310486 
L 168.18613 414.845517 
L 168.521055 415.467879 
L 168.855981 414.053747 
L 169.190907 414.23517 
L 169.525832 415.853551 
L 169.860758 415.399395 
L 170.195683 415.578414 
L 170.530609 414.13785 
L 170.865535 414.92962 
L 171.20046 412.523073 
L 171.535386 413.102182 
L 171.870311 412.935178 
L 172.205237 411.827421 
L 172.540163 414.184708 
L 172.875088 414.617237 
L 173.544939 413.304029 
L 173.879865 414.649677 
L 174.214791 415.409007 
L 175.219567 413.094973 
L 175.554493 416.036175 
L 175.889419 416.4651 
L 176.224344 415.449857 
L 176.55927 413.917981 
L 176.894195 415.740613 
L 177.229121 415.243204 
L 177.564047 417.749473 
L 177.898972 416.727021 
L 178.233898 417.952521 
L 178.568823 418.358619 
L 178.903749 414.533134 
L 179.238675 413.764193 
L 179.5736 413.540719 
L 179.908526 416.922861 
L 180.578377 415.879984 
L 180.913302 414.779436 
L 181.248228 414.536739 
L 181.583154 416.308909 
L 181.918079 415.310486 
L 182.253005 415.399395 
L 182.58793 414.756608 
L 182.922856 415.37897 
L 183.257782 415.582019 
L 183.592707 414.237573 
L 183.927633 413.383327 
L 184.262558 413.499869 
L 184.597484 415.351336 
L 184.93241 414.843114 
L 185.267335 415.048566 
L 185.602261 413.970846 
L 185.937186 415.655309 
L 186.272112 416.176747 
L 186.607038 415.74662 
L 186.941963 414.75781 
L 187.276889 415.797082 
L 187.611814 414.926016 
L 187.94674 414.704945 
L 188.616591 413.701716 
L 188.951517 415.511132 
L 189.286442 415.769448 
L 189.621368 418.254091 
L 189.956294 416.94689 
L 190.291219 417.58367 
L 190.96107 415.340523 
L 191.295996 414.820286 
L 191.630922 414.585999 
L 191.965847 416.084234 
L 192.300773 416.423049 
L 192.635698 416.277671 
L 192.970624 416.622493 
L 193.30555 414.887568 
L 193.640475 415.935251 
L 194.310326 416.336543 
L 194.645252 414.730176 
L 194.980178 415.494311 
L 195.650029 414.750601 
L 195.984954 413.409759 
L 196.31988 413.55754 
L 196.654806 414.617237 
L 196.989731 413.609203 
L 197.324657 414.07177 
L 197.659582 413.197098 
L 197.994508 413.025288 
L 198.329434 415.638488 
L 198.664359 416.229612 
L 198.999285 416.044585 
L 199.33421 414.342101 
L 199.669136 416.296894 
L 200.004062 415.85235 
L 200.338987 415.600041 
L 200.673913 414.688124 
L 201.008838 414.886367 
L 201.343764 416.193568 
L 201.67869 416.197172 
L 202.348541 414.625648 
L 202.683466 415.728598 
L 203.018392 415.054573 
L 203.353317 414.078978 
L 203.688243 412.244332 
L 204.023169 413.003662 
L 204.358094 414.718161 
L 205.027945 414.414189 
L 205.362871 413.891549 
L 205.697797 414.738586 
L 206.032722 414.674908 
L 206.367648 414.440621 
L 206.702573 413.391737 
L 207.037499 414.482673 
L 207.372425 416.385803 
L 208.042276 415.41141 
L 208.377201 414.982485 
L 208.712127 416.420646 
L 209.047053 416.0566 
L 209.381978 416.078226 
L 209.716904 414.817883 
L 210.051829 416.010944 
L 210.386755 418.330985 
L 210.721681 417.668974 
L 211.391532 413.081757 
L 211.726457 416.235619 
L 212.061383 416.236821 
L 212.396309 415.478692 
L 212.731234 414.431009 
L 213.06616 415.103833 
L 213.401085 416.466302 
L 213.736011 414.821488 
L 214.070937 414.785443 
L 214.405862 414.36613 
L 214.740788 417.374614 
L 215.075713 417.497164 
L 215.410639 417.06944 
L 215.745565 416.378594 
L 216.08049 416.411034 
L 216.415416 416.674156 
L 216.750341 416.312513 
L 217.085267 414.08859 
L 217.420193 414.086187 
L 217.755118 416.475913 
L 218.424969 416.288484 
L 218.759895 415.344128 
L 219.094821 413.553935 
L 219.429746 415.475088 
L 219.764672 415.406604 
L 220.434523 414.61964 
L 220.769449 416.098651 
L 221.104374 415.735807 
L 221.4393 415.745419 
L 221.774225 414.626849 
L 222.109151 414.924814 
L 222.444077 415.731001 
L 222.779002 415.827119 
L 223.113928 416.702991 
L 223.448853 414.382951 
L 223.783779 415.690151 
L 224.118705 416.140703 
L 224.45363 414.68452 
L 224.788556 413.901161 
L 225.123481 415.136273 
L 225.458407 415.000507 
L 225.793332 414.127037 
L 226.128258 414.36613 
L 226.463184 412.917156 
L 226.798109 415.132669 
L 227.133035 415.466678 
L 227.46796 415.531557 
L 227.802886 413.978055 
L 228.137812 414.656886 
L 228.472737 416.574434 
L 229.142588 416.08904 
L 229.477514 414.942836 
L 229.81244 417.988566 
L 230.147365 417.936902 
L 230.817216 415.57481 
L 231.152142 415.98331 
L 231.487068 417.825166 
L 232.156919 417.564446 
L 232.491844 416.468705 
L 232.82677 423.273837 
L 233.161696 423.612652 
L 233.496621 423.440842 
L 233.831547 418.43311 
L 234.166472 417.185983 
L 234.501398 418.913698 
L 234.836324 418.893273 
L 235.506175 416.962509 
L 235.8411 422.126432 
L 236.176026 422.558962 
L 236.510952 422.045934 
L 236.845877 421.154442 
L 237.180803 418.542444 
L 237.515728 419.844839 
L 237.850654 419.605746 
L 238.18558 417.160752 
L 238.520505 416.82434 
L 238.855431 419.059076 
L 239.190356 418.995398 
L 239.860208 417.855202 
L 240.195133 417.82036 
L 240.530059 419.287356 
L 240.864984 419.3234 
L 241.19991 419.194843 
L 241.534836 418.195219 
L 241.869761 419.330609 
L 242.204687 419.121553 
L 242.539612 419.060278 
L 242.874538 417.54282 
L 243.209464 419.265729 
L 243.544389 419.167209 
L 243.879315 418.830797 
L 244.21424 418.764716 
L 244.549166 417.938104 
L 244.884092 419.599738 
L 245.219017 419.084307 
L 245.553943 419.020629 
L 245.888868 417.785517 
L 246.223794 418.370633 
L 246.55872 420.439567 
L 246.893645 420.290584 
L 247.228571 420.479215 
L 247.563496 418.490781 
L 247.898422 419.242902 
L 248.233348 418.057049 
L 248.568273 418.019804 
L 248.903199 417.284503 
L 249.238124 418.251688 
L 249.57305 420.13199 
L 249.907975 419.548075 
L 250.242901 419.525247 
L 250.577827 418.673404 
L 250.912752 418.970168 
L 251.247678 418.425901 
L 251.582603 418.177197 
L 251.917529 417.158349 
L 252.252455 416.782289 
L 252.58738 418.455938 
L 253.257231 418.728672 
L 253.592157 418.058251 
L 254.262008 419.444749 
L 254.596934 419.313788 
L 255.266785 417.823964 
L 255.601711 420.218496 
L 255.936636 420.046686 
L 256.271562 420.039477 
L 256.606487 419.384675 
L 256.941413 419.910919 
L 257.611264 419.642991 
L 257.94619 418.353813 
L 258.281115 418.708247 
L 258.616041 419.995022 
L 258.950967 420.118774 
L 259.285892 419.8136 
L 259.620818 417.1187 
L 259.955743 419.588925 
L 260.625595 418.717859 
L 260.96052 417.777107 
L 261.295446 418.499191 
L 261.630371 419.816003 
L 261.965297 419.352235 
L 262.300223 419.360646 
L 262.635148 418.852423 
L 262.970074 420.356665 
L 263.304999 420.485223 
L 263.639925 419.956575 
L 264.309776 418.189211 
L 264.644702 419.066285 
L 264.979627 418.815178 
L 265.314553 418.328582 
L 265.649479 416.922861 
L 265.984404 420.125983 
L 266.31933 420.276167 
L 266.654255 419.765541 
L 266.989181 417.519992 
L 267.659032 420.176445 
L 267.993958 419.614156 
L 268.328883 419.855652 
L 268.663809 418.910094 
L 268.998735 419.542068 
L 269.33366 419.280147 
L 269.668586 419.512031 
L 270.003511 418.500392 
L 270.338437 419.472383 
L 271.008288 418.828394 
L 271.678139 416.402624 
L 272.013065 419.031443 
L 272.34799 419.614156 
L 272.682916 419.224879 
L 273.017842 417.894851 
L 273.352767 418.373036 
L 273.687693 419.823212 
L 274.022618 420.199273 
L 274.69247 418.464348 
L 275.027395 420.301398 
L 275.362321 420.330233 
L 275.697246 424.271058 
L 276.032172 423.391582 
L 276.367098 423.70036 
L 276.702023 424.919853 
L 277.036949 420.465999 
L 277.371874 419.122754 
L 277.7068 419.479591 
L 278.041726 420.445574 
L 278.376651 418.965362 
L 278.711577 418.707045 
L 279.046502 417.808345 
L 279.381428 417.421471 
L 279.716354 419.866465 
L 280.386205 419.83763 
L 280.72113 419.042256 
L 281.056056 418.900482 
L 281.725907 419.88689 
L 282.395758 418.340597 
L 282.730684 420.592154 
L 283.06561 420.928566 
L 283.400535 420.552505 
L 283.735461 419.759534 
L 284.070386 419.37266 
L 284.405312 420.612579 
L 285.075163 418.644569 
L 285.410089 418.740687 
L 285.745014 421.167658 
L 286.07994 420.463596 
L 286.414866 420.879305 
L 286.749791 419.980605 
L 287.084717 420.469604 
L 287.419642 420.410732 
L 287.754568 420.111565 
L 288.089494 419.318594 
L 288.424419 419.533658 
L 288.759345 420.67866 
L 289.429196 420.665443 
L 289.764122 419.182828 
L 290.099047 421.529301 
L 290.433973 421.893347 
L 291.103824 419.916927 
L 291.43875 419.275341 
L 291.773675 420.003433 
L 292.443526 420.081528 
L 292.778452 419.116747 
L 293.113378 419.908517 
L 293.448303 420.075521 
L 293.783229 419.578112 
L 294.118154 419.489203 
L 294.45308 418.650576 
L 294.788006 420.92376 
L 295.122931 420.962207 
L 295.792782 419.354638 
L 296.127708 420.774777 
L 296.797559 420.598161 
L 297.132485 419.727094 
L 297.46741 420.100752 
L 297.802336 422.092791 
L 298.137261 421.173666 
L 298.472187 420.828843 
L 298.807113 420.057499 
L 299.142038 420.386702 
L 299.476964 421.015072 
L 300.146815 421.016273 
L 300.481741 419.84604 
L 301.151592 419.984209 
L 301.821443 418.654181 
L 302.156369 420.496036 
L 302.491294 421.580964 
L 302.82622 421.034295 
L 303.496071 420.367479 
L 303.830997 420.85888 
L 304.165922 420.025059 
L 304.500848 419.912121 
L 304.835773 418.695031 
L 305.170699 419.360646 
L 305.505625 421.161651 
L 305.84055 421.349081 
L 306.175476 421.289007 
L 306.510401 420.21369 
L 306.845327 421.695104 
L 307.515178 421.112391 
L 307.850104 420.062305 
L 308.519955 422.080776 
L 308.854881 421.841684 
L 309.189806 422.318668 
L 309.524732 421.86331 
L 309.859657 421.644642 
L 310.194583 421.802035 
L 310.529509 421.399542 
L 310.864434 420.258145 
L 311.19936 420.576535 
L 311.534285 421.680687 
L 311.869211 420.648623 
L 312.204137 420.93217 
L 312.539062 419.96859 
L 312.873988 421.910168 
L 313.208913 421.661463 
L 313.543839 421.728745 
L 313.878765 420.672652 
L 314.21369 420.827642 
L 314.548616 421.94501 
L 315.218467 420.74474 
L 315.553393 419.942158 
L 316.558169 420.54049 
L 316.893095 419.528852 
L 317.562946 420.961005 
L 317.897872 421.036698 
L 318.232797 419.116747 
L 318.567723 418.984585 
L 318.902648 426.021602 
L 319.237574 426.385648 
L 319.5725 425.470127 
L 319.907425 421.377916 
L 320.242351 421.798431 
L 320.577276 422.939828 
L 320.912202 422.423196 
L 321.582053 420.529677 
L 321.916979 425.531402 
L 322.251904 425.951917 
L 322.58683 425.861806 
L 322.921756 424.774475 
L 323.256681 422.860531 
L 323.591607 423.713576 
L 323.926532 423.833723 
L 324.261458 421.137622 
L 324.596384 420.980229 
L 324.931309 421.441594 
L 325.60116 420.920155 
L 325.936086 420.174042 
L 326.271012 420.729121 
L 326.605937 421.896951 
L 326.940863 421.137622 
L 327.275788 421.12801 
L 327.610714 420.527274 
L 327.94564 423.816902 
L 328.280565 423.818104 
L 328.615491 423.497311 
L 328.950416 422.987887 
L 329.285342 423.389179 
L 329.955193 422.81848 
L 330.290119 420.229309 
L 330.625044 420.235317 
L 330.95997 421.464422 
L 331.294896 421.61821 
L 331.629821 420.070715 
L 331.964747 419.141978 
L 332.299672 420.636608 
L 332.634598 422.656281 
L 332.969524 421.976248 
L 333.304449 422.017098 
L 333.639375 421.25897 
L 333.9743 422.202125 
L 334.309226 422.194916 
L 334.644152 422.397965 
L 334.979077 421.696306 
L 335.314003 422.601013 
L 335.648928 423.147683 
L 336.31878 421.643441 
L 336.653705 420.769971 
L 336.988631 422.747593 
L 337.323556 422.676706 
L 337.993408 421.069138 
L 338.328333 421.856101 
L 338.998184 421.460817 
L 339.33311 420.741136 
L 339.668036 420.691876 
L 340.002961 423.342321 
L 340.337887 423.10443 
L 340.672812 423.265427 
L 341.007738 421.264978 
L 341.342663 421.230135 
L 341.677589 421.798431 
L 342.012515 422.080776 
L 342.34744 421.896951 
L 342.682366 421.007863 
L 343.017291 422.125231 
L 343.352217 422.400368 
L 344.022068 420.717107 
L 344.691919 422.454434 
L 345.026845 427.976396 
L 345.361771 427.551075 
L 345.696696 426.236665 
L 346.031622 427.006808 
L 346.366547 423.405999 
L 346.701473 422.963858 
L 347.036399 422.126432 
L 347.371324 422.680311 
L 347.70625 423.78206 
L 348.041175 423.786866 
L 348.376101 423.470879 
L 348.711027 422.607021 
L 349.045952 423.534557 
L 349.715803 423.045558 
L 350.050729 422.145656 
L 350.385655 422.452031 
L 350.72058 423.852946 
L 351.055506 423.791671 
L 351.390431 423.57781 
L 351.725357 422.458038 
L 352.060283 424.429653 
L 352.395208 425.143327 
L 352.730134 423.559787 
L 353.065059 422.999902 
L 353.399985 423.982705 
L 353.734911 423.988713 
L 354.069836 423.237793 
L 354.404762 422.831696 
L 354.739687 421.971443 
L 355.074613 424.201373 
L 355.744464 422.462844 
L 356.07939 422.256191 
L 356.414315 422.913396 
L 356.749241 423.925035 
L 357.084167 423.690748 
L 357.419092 423.74121 
L 357.754018 422.212938 
L 358.088943 425.783711 
L 358.423869 424.531778 
L 358.758795 423.946661 
L 359.09372 422.939828 
L 359.428646 423.01432 
L 359.763571 424.261447 
L 360.098497 424.150911 
L 360.433423 423.813298 
L 360.768348 423.134467 
L 361.103274 423.23539 
L 361.438199 423.454058 
L 361.773125 423.133265 
L 362.108051 426.221046 
L 362.442976 427.120948 
L 362.777902 428.685264 
L 363.112827 425.753674 
L 363.782679 423.146481 
L 364.117604 423.661913 
L 364.787455 423.109236 
L 365.122381 422.092791 
L 365.792232 423.47208 
L 366.462083 423.666718 
L 366.797009 422.951843 
L 367.131934 423.826514 
L 367.46686 423.624667 
L 367.801786 423.566996 
L 368.136711 422.781234 
L 368.806562 424.818929 
L 369.141488 424.462092 
L 369.476414 424.76246 
L 369.811339 423.788067 
L 370.146265 424.669947 
L 370.48119 424.195366 
L 370.816116 422.504896 
L 371.485967 423.151287 
L 371.820893 425.037597 
L 372.155818 425.354785 
L 372.490744 423.964683 
L 372.82567 423.222174 
L 373.160595 424.711998 
L 373.495521 424.714401 
L 373.830446 424.495734 
L 374.165372 423.404798 
L 374.500298 423.746016 
L 374.835223 425.253862 
L 375.170149 424.959501 
L 375.505074 424.499338 
L 375.84 423.258218 
L 376.174926 423.764038 
L 376.844777 423.789268 
L 377.179702 422.584193 
L 377.849554 424.522166 
L 378.184479 424.554606 
L 378.85433 422.273012 
L 379.189256 424.415235 
L 379.524182 425.109685 
L 379.859107 424.654328 
L 380.194033 423.688345 
L 380.528958 423.412007 
L 380.863884 424.994344 
L 381.19881 425.085656 
L 381.533735 424.458488 
L 381.868661 423.380768 
L 382.203586 425.163752 
L 382.538512 425.819755 
L 382.873438 425.751271 
L 383.208363 424.404422 
L 383.543289 425.316338 
L 383.878214 426.571876 
L 384.548066 425.978349 
L 384.882991 424.802109 
L 385.217917 424.70479 
L 385.552842 424.817728 
L 385.887768 424.531778 
L 386.222694 422.759608 
L 386.557619 423.327904 
L 386.892545 425.21181 
L 387.22747 425.178169 
L 387.562396 423.679935 
L 387.897321 422.868942 
L 388.232247 425.417262 
L 388.567173 425.158946 
L 388.902098 425.160147 
L 389.237024 424.259044 
L 389.906875 425.157744 
L 390.241801 425.265877 
L 390.576726 425.08926 
L 390.911652 424.142501 
L 391.246577 426.122526 
L 391.581503 426.050437 
L 391.916429 425.442493 
L 392.58628 423.425223 
L 392.921205 425.226228 
L 393.256131 424.989538 
L 393.591057 424.40322 
L 393.925982 423.475685 
L 394.260908 424.34555 
L 394.595833 423.848141 
L 394.930759 424.045182 
L 395.265685 423.330306 
L 395.60061 424.214589 
L 395.935536 425.662362 
L 396.270461 425.796927 
L 396.605387 426.228255 
L 396.940313 425.401643 
L 397.275238 425.789718 
L 397.610164 425.754875 
L 398.280015 422.945836 
L 398.614941 423.833723 
L 398.949866 424.284275 
L 399.284792 423.140474 
L 399.619717 423.172914 
L 399.954643 422.28743 
L 400.289569 425.580662 
L 400.624494 424.866988 
L 400.95942 424.955897 
L 401.294345 424.406825 
L 401.629271 424.102852 
L 401.964197 425.000351 
L 402.299122 425.219019 
L 402.634048 425.607094 
L 402.968973 424.12568 
L 403.303899 425.541013 
L 403.638825 425.527797 
L 404.308676 423.333911 
L 404.643601 424.028361 
L 404.978527 429.461414 
L 405.313453 429.413355 
L 405.648378 428.364471 
L 405.983304 425.449702 
L 406.318229 428.754949 
L 406.653155 427.575104 
L 406.988081 427.649595 
L 407.323006 424.690372 
L 407.657932 424.906637 
L 407.992857 424.483719 
L 408.327783 429.583964 
L 408.662709 429.675276 
L 409.33256 427.149783 
L 409.667485 427.173813 
L 410.337337 424.80331 
L 410.672262 423.98631 
L 411.007188 426.086481 
L 411.342113 426.52622 
L 412.011964 424.959501 
L 412.34689 427.637581 
L 413.351667 425.632325 
L 413.686592 425.712824 
L 414.021518 427.703662 
L 414.356444 427.351631 
L 414.691369 427.17982 
L 415.696146 423.993519 
L 416.031072 424.034369 
L 416.365997 422.874949 
L 416.700923 423.987511 
L 417.035848 425.783711 
L 418.040625 423.791671 
L 418.375551 425.812546 
L 419.045402 425.764487 
L 419.380328 424.761259 
L 420.050179 426.563465 
L 420.385104 426.308754 
L 421.054956 425.146931 
L 421.389881 426.753298 
L 421.724807 426.813371 
L 422.059732 424.375586 
L 422.394658 424.716804 
L 423.064509 426.766514 
L 423.73436 427.045255 
L 424.069286 424.317916 
L 424.404212 426.556257 
L 424.739137 426.439714 
L 425.074063 426.54304 
L 425.743914 425.257466 
L 426.07884 426.427699 
L 426.748691 425.834172 
L 427.083616 425.092865 
L 427.418542 427.820204 
L 427.753468 427.877875 
L 428.088393 426.80376 
L 428.423319 425.343972 
L 428.758244 425.5302 
L 429.09317 426.484168 
L 429.428096 425.420866 
L 429.763021 424.869391 
L 430.097947 425.00756 
L 430.432872 425.460515 
L 431.102724 425.131312 
L 431.437649 424.195366 
L 431.772575 424.227805 
L 432.1075 426.484168 
L 432.442426 426.197017 
L 433.112277 424.623089 
L 433.447203 426.218643 
L 433.782128 426.358014 
L 434.117054 425.882231 
L 434.451979 424.678357 
L 434.786905 425.240646 
L 435.121831 426.522615 
L 435.456756 426.678807 
L 435.791682 426.639158 
L 436.126607 425.574655 
L 436.461533 425.733249 
L 436.796459 425.653952 
L 437.131384 425.802934 
L 437.46631 425.053216 
L 437.801235 425.192587 
L 438.136161 424.371982 
L 438.471087 424.462092 
L 438.806012 423.193339 
L 439.140938 422.902583 
L 439.475863 426.056445 
L 439.810789 426.072064 
L 440.48064 424.641112 
L 440.815566 426.105705 
L 441.485417 425.324749 
L 441.820343 423.858954 
L 442.155268 423.59463 
L 442.490194 425.810143 
L 442.825119 426.219845 
L 443.160045 426.260695 
L 443.494971 425.074843 
L 443.829896 426.132137 
L 444.164822 425.191385 
L 444.499747 425.066432 
L 444.834673 424.498136 
L 445.169599 423.671524 
L 445.504524 424.964307 
L 445.83945 424.50895 
L 446.174375 425.047209 
L 446.509301 423.861357 
L 446.844227 427.20385 
L 447.179152 427.17141 
L 447.514078 426.243874 
L 447.849003 428.459387 
L 448.183929 428.860678 
L 448.518855 430.411778 
L 448.85378 430.92 
L 449.188706 427.645991 
L 449.523631 426.224651 
L 449.858557 428.454581 
L 450.863334 426.225852 
L 451.198259 426.883057 
L 451.533185 426.568271 
L 451.868111 425.553028 
L 452.203036 425.59508 
L 452.537962 424.106457 
L 452.872887 425.7753 
L 453.877664 422.124029 
L 454.21259 423.10443 
L 454.547515 422.224953 
L 454.882441 422.597409 
L 455.217367 422.533731 
L 455.552292 421.34067 
L 455.887218 424.232611 
L 456.222143 423.689546 
L 456.891994 420.92376 
L 457.22692 420.844463 
L 457.561846 422.513306 
L 457.896771 422.417188 
L 458.231697 421.415161 
L 458.566622 420.870895 
L 458.901548 422.585394 
L 459.236474 421.358692 
L 459.571399 421.345476 
L 459.906325 420.826441 
L 460.24125 421.636232 
L 460.576176 423.017924 
L 460.911102 421.447601 
L 461.246027 421.418766 
L 461.580953 420.198071 
L 461.915878 420.387904 
L 462.58573 420.065909 
L 462.920655 418.857229 
L 463.255581 420.019052 
L 463.590506 422.038725 
L 463.925432 420.979027 
L 464.595283 419.538463 
L 464.930209 421.096772 
L 465.265134 420.954998 
L 465.60006 421.048713 
L 465.934986 419.724691 
L 466.269911 420.580139 
L 466.604837 422.715153 
L 467.274688 421.550928 
L 467.609614 420.065909 
L 467.944539 421.990666 
L 468.61439 421.548525 
L 468.949316 419.393085 
L 469.284242 420.252137 
L 469.619167 422.537336 
L 469.954093 421.770797 
L 470.289018 421.716731 
L 470.623944 421.106383 
L 470.95887 420.794001 
L 471.293795 420.748345 
L 471.628721 420.868492 
L 471.963646 419.948165 
L 472.298572 420.583743 
L 472.633498 422.516911 
L 473.303349 421.655456 
L 473.638274 420.626996 
L 473.9732 421.965435 
L 474.308126 422.253788 
L 474.643051 422.098799 
L 474.977977 420.868492 
L 475.647828 421.796028 
L 475.982754 420.673854 
L 476.652605 417.643743 
L 476.98753 418.704642 
L 477.322456 418.743089 
L 477.657382 418.516011 
L 477.992307 416.993747 
L 478.327233 417.917679 
L 478.662158 417.693004 
L 478.997084 417.041806 
L 479.33201 416.885615 
L 479.666935 414.802264 
L 480.001861 417.004561 
L 480.336786 417.003359 
L 480.671712 416.605672 
L 481.006637 415.180727 
L 481.341563 416.41584 
L 482.011414 416.639313 
L 482.34634 414.977679 
L 482.681265 414.694132 
L 483.016191 418.087086 
L 483.351117 418.112317 
L 483.686042 417.717033 
L 484.020968 416.629702 
L 484.355893 416.771475 
L 484.690819 418.28653 
L 485.025745 415.41141 
L 485.36067 415.698562 
L 485.695596 415.044961 
L 486.030521 417.041806 
L 486.365447 416.900033 
L 486.700373 416.990143 
L 487.370224 414.473061 
L 487.705149 415.69736 
L 488.040075 415.871573 
L 488.375001 415.789873 
L 488.709926 414.728974 
L 489.044852 415.095423 
L 489.379777 415.082207 
L 490.049629 413.569555 
L 490.384554 414.330086 
L 490.71948 415.936453 
L 491.054405 419.156396 
L 491.389331 419.333012 
L 491.724257 418.231263 
L 492.059182 416.239224 
L 492.394108 416.635709 
L 492.729033 416.181553 
L 493.063959 414.81548 
L 493.398885 414.301251 
L 493.73381 414.17029 
L 494.068736 418.151966 
L 494.403661 419.143179 
L 494.738587 418.296142 
L 495.073513 419.516837 
L 495.408438 417.055022 
L 496.078289 414.715758 
L 496.413215 415.001708 
L 496.748141 416.109465 
L 497.083066 415.726195 
L 497.417992 414.992096 
L 497.752917 413.72935 
L 498.087843 414.927217 
L 498.422769 414.680915 
L 498.757694 417.304928 
L 499.427545 414.845517 
L 499.762471 416.283678 
L 500.097397 413.145435 
L 500.432322 412.741741 
L 500.767248 411.531859 
L 501.102173 412.74895 
L 501.437099 412.410135 
L 501.772025 411.806996 
L 502.441876 408.504152 
L 502.776801 408.675962 
L 503.111727 409.222632 
L 503.446652 406.945844 
L 503.781578 406.80407 
L 504.116504 408.430862 
L 504.451429 408.714409 
L 504.786355 408.037981 
L 505.12128 406.945844 
L 505.456206 407.725599 
L 505.791132 409.05803 
L 506.126057 409.395644 
L 506.460983 409.365607 
L 506.795908 408.764871 
L 507.130834 411.160605 
L 507.46576 410.738888 
L 507.800685 408.341953 
L 508.135611 407.004716 
L 508.805462 408.870601 
L 509.140388 407.749628 
L 509.475313 406.081986 
L 510.145164 405.945018 
L 510.48009 406.079583 
L 510.815016 405.673486 
L 511.149941 405.05593 
L 511.484867 405.635039 
L 511.819792 407.319501 
L 512.154718 407.637891 
L 512.489644 411.438145 
L 512.824569 410.73168 
L 513.159495 412.644422 
L 513.49442 412.251541 
L 513.829346 407.788075 
L 514.164272 407.124863 
L 514.834123 408.898235 
L 515.503974 408.605076 
L 515.8389 407.573012 
L 516.173825 408.166539 
L 516.508751 408.291492 
L 517.178602 406.397973 
L 517.513528 406.491688 
L 517.848453 410.162182 
L 518.183379 409.652758 
L 518.518304 409.364405 
L 518.85323 407.857761 
L 519.188156 408.565427 
L 519.523081 408.64112 
L 519.858007 407.043163 
L 520.527858 405.966645 
L 520.862784 407.856559 
L 521.532635 405.895758 
L 521.86756 403.348639 
L 522.202486 404.646228 
L 522.537412 403.884495 
L 522.872337 403.572113 
L 523.207263 401.36501 
L 523.877114 403.036257 
L 524.21204 402.346612 
L 524.546965 401.260482 
L 524.881891 399.538774 
L 525.216816 405.474042 
L 525.886668 404.437172 
L 526.556519 401.995783 
L 526.891444 403.97821 
L 527.22637 403.184038 
L 527.561295 403.65141 
L 527.896221 402.507609 
L 528.231147 402.264912 
L 528.566072 402.522027 
L 528.900998 402.177205 
L 529.235923 399.964095 
L 529.905775 403.154001 
L 530.2407 403.258529 
L 530.575626 402.251696 
L 530.910551 400.686179 
L 531.245477 402.21445 
L 531.580403 401.804749 
L 531.915328 401.885247 
L 532.250254 400.630911 
L 532.585179 401.310944 
L 532.920105 403.08792 
L 533.255031 402.817589 
L 533.589956 402.157981 
L 533.924882 404.928574 
L 534.259807 406.366735 
L 534.594733 406.707953 
L 534.929659 406.112023 
L 535.264584 401.666579 
L 535.59951 402.244487 
L 535.934435 403.08792 
L 536.269361 402.467961 
L 536.604287 400.650135 
L 536.939212 399.819918 
L 537.274138 401.73266 
L 537.943989 401.284512 
L 538.278915 400.344961 
L 538.61384 400.593666 
L 538.948766 401.644953 
L 539.283691 401.70743 
L 539.618617 401.249669 
L 539.953543 400.264463 
L 540.288468 402.662599 
L 540.623394 402.841618 
L 540.958319 402.59772 
L 541.293245 401.538022 
L 541.963096 402.757515 
L 542.298022 402.692636 
L 542.967873 400.733036 
L 543.302799 402.370642 
L 543.637724 402.344209 
L 543.97265 401.811957 
L 544.307575 399.872783 
L 544.977427 398.942844 
L 545.312352 398.044144 
L 545.647278 397.966048 
L 545.982203 397.334074 
L 546.317129 399.14349 
L 546.98698 398.802272 
L 547.656831 396.477425 
L 547.991757 397.587585 
L 548.326683 396.627609 
L 548.661608 396.131402 
L 548.996534 395.064495 
L 549.331459 395.760147 
L 549.666385 395.422534 
L 550.00131 394.740098 
L 550.336236 393.730862 
L 550.671162 394.430119 
L 551.006087 396.294802 
L 551.341013 395.466988 
L 551.675938 395.120964 
L 552.010864 395.808206 
L 552.34579 397.837491 
L 552.680715 397.741373 
L 553.015641 397.886751 
L 553.350566 396.605983 
L 553.685492 396.769383 
L 554.020418 397.433796 
L 554.355343 396.933984 
L 554.690269 397.19951 
L 555.025194 396.47262 
L 555.36012 397.046923 
L 556.029971 396.639624 
L 556.364897 395.351647 
L 556.699822 396.201087 
L 557.369674 395.911532 
L 557.704599 395.67244 
L 558.039525 395.232701 
L 558.37445 398.038136 
L 558.709376 396.866702 
L 559.044302 396.740548 
L 559.379227 396.055709 
L 559.714153 395.727707 
L 560.049078 398.187119 
L 560.384004 398.879166 
L 560.71893 399.244414 
L 561.053855 397.361708 
L 561.388781 399.288868 
L 561.723706 399.077409 
L 562.393558 397.603204 
L 562.728483 397.191099 
L 563.063409 398.420204 
L 563.398334 398.686931 
L 563.73326 398.481479 
L 564.068186 397.282411 
L 564.403111 397.241561 
L 564.738037 397.489064 
L 565.072962 397.469841 
L 565.407888 396.827054 
L 565.742814 398.068173 
L 566.077739 400.159935 
L 566.412665 400.432669 
L 566.74759 399.855962 
L 567.082516 398.598022 
L 567.417442 399.664928 
L 567.752367 399.054581 
L 568.422218 395.388893 
L 568.757144 395.715693 
L 569.09207 397.535922 
L 569.426995 396.908754 
L 569.761921 396.771786 
L 570.096846 395.728909 
L 570.431772 395.661626 
L 570.766698 395.871884 
L 571.101623 395.491018 
L 571.436549 393.947127 
L 572.1064 393.592693 
L 572.441325 392.601479 
L 572.776251 392.554622 
L 573.111177 390.667111 
L 573.446102 393.199812 
L 573.781028 393.130127 
L 574.115953 393.328369 
L 574.450879 392.841774 
L 574.785805 392.894638 
L 575.12073 393.550642 
L 575.455656 393.333175 
L 575.790581 393.275505 
L 576.125507 391.810911 
L 576.460433 394.337605 
L 576.795358 393.084471 
L 577.130284 395.727707 
L 577.465209 394.499804 
L 577.800135 394.87226 
L 578.135061 395.690462 
L 578.469986 392.755268 
L 578.804912 392.298709 
L 579.139837 391.414426 
L 579.809689 391.604258 
L 580.144614 390.381161 
L 580.47954 394.340008 
L 581.149391 396.199886 
L 581.484317 392.619501 
L 581.819242 392.595472 
L 582.154168 391.707585 
L 582.489093 393.347593 
L 582.824019 392.48734 
L 583.158945 392.459706 
L 583.49387 391.259436 
L 583.828796 391.381986 
L 584.163721 391.640302 
L 584.498647 391.400008 
L 584.833573 391.863776 
L 585.168498 391.657123 
L 585.503424 393.139738 
L 585.838349 393.515799 
L 586.508201 391.031157 
L 587.512977 392.238635 
L 587.847903 391.665533 
L 588.182829 390.489293 
L 588.517754 392.426065 
L 588.85268 393.053233 
L 589.187605 392.750462 
L 589.522531 391.443261 
L 590.192382 392.441684 
L 590.862233 391.831336 
L 591.197159 390.292252 
L 591.532085 390.646686 
L 591.86701 389.835693 
L 592.201936 388.475627 
L 592.536861 387.671843 
L 592.871787 388.64143 
L 593.206713 390.280237 
L 593.541638 390.048353 
L 593.876564 388.025076 
L 594.211489 386.882477 
L 594.546415 389.202517 
L 595.216266 387.743931 
L 595.551192 384.151532 
L 595.886117 385.109105 
L 596.221043 386.517229 
L 596.555968 386.481185 
L 596.890894 386.254107 
L 597.22582 385.408271 
L 597.560745 386.561684 
L 597.895671 385.953739 
L 598.230596 386.058267 
L 598.565522 385.092284 
L 598.900448 386.154385 
L 599.235373 385.77472 
L 599.570299 385.699027 
L 599.905224 385.172783 
L 600.24015 384.352178 
L 600.575076 385.78313 
L 600.910001 385.127127 
L 601.244927 385.185999 
L 601.579852 383.505141 
L 601.914778 385.533224 
L 602.249704 384.120294 
L 602.919555 384.579256 
L 603.25448 383.755047 
L 603.589406 386.113535 
L 603.924332 385.520008 
L 604.259257 385.741079 
L 604.594183 384.906056 
L 604.929108 385.515202 
L 605.264034 387.770364 
L 605.59896 387.629792 
L 606.268811 384.898848 
L 606.603736 386.941349 
L 607.273588 386.780351 
L 607.608513 385.936919 
L 607.943439 387.212881 
L 608.278364 385.049031 
L 608.61329 385.044226 
L 608.948216 382.84313 
L 609.283141 384.40264 
L 609.618067 385.184798 
L 610.287918 385.720654 
L 610.622844 385.37463 
L 610.957769 387.937368 
L 611.292695 387.2285 
L 611.62762 387.072309 
L 611.962546 386.381463 
L 612.297472 384.963727 
L 612.632397 386.249301 
L 612.967323 386.1664 
L 613.302248 385.886457 
L 613.637174 383.955693 
L 613.9721 384.123899 
L 614.307025 383.556804 
L 614.976876 381.341291 
L 615.311802 381.13584 
L 615.646728 378.742509 
L 615.981653 378.175415 
L 616.316579 378.349628 
L 616.651504 377.400466 
L 616.98643 380.339264 
L 617.656281 379.57633 
L 617.991207 381.301643 
L 618.326132 381.642861 
L 618.661058 384.611696 
L 618.995983 384.144324 
L 619.330909 382.835922 
L 619.330909 382.835922 
" style="fill:none;stroke:#1f77b4;stroke-linecap:square;stroke-width:1.5;"/>
   </g>
   <g id="patch_3">
    <path d="M 108 448.56 
L 108 60.48 
" style="fill:none;stroke:#000000;stroke-linecap:square;stroke-linejoin:miter;stroke-width:0.8;"/>
   </g>
   <g id="patch_4">
    <path d="M 643.68 448.56 
L 643.68 60.48 
" style="fill:none;stroke:#000000;stroke-linecap:square;stroke-linejoin:miter;stroke-width:0.8;"/>
   </g>
   <g id="patch_5">
    <path d="M 108 448.56 
L 643.68 448.56 
" style="fill:none;stroke:#000000;stroke-linecap:square;stroke-linejoin:miter;stroke-width:0.8;"/>
   </g>
   <g id="patch_6">
    <path d="M 108 60.48 
L 643.68 60.48 
" style="fill:none;stroke:#000000;stroke-linecap:square;stroke-linejoin:miter;stroke-width:0.8;"/>
   </g>
   <g id="text_30">
    <!-- unikernel_fbuddyalloc - free -->
    <g transform="translate(271.560703 54.48)scale(0.15 -0.15)">
     <defs>
      <path d="M 8.5 21.578125 
L 8.5 54.6875 
L 17.484375 54.6875 
L 17.484375 21.921875 
Q 17.484375 14.15625 20.5 10.265625 
Q 23.53125 6.390625 29.59375 6.390625 
Q 36.859375 6.390625 41.078125 11.03125 
Q 45.3125 15.671875 45.3125 23.6875 
L 45.3125 54.6875 
L 54.296875 54.6875 
L 54.296875 0 
L 45.3125 0 
L 45.3125 8.40625 
Q 42.046875 3.421875 37.71875 1 
Q 33.40625 -1.421875 27.6875 -1.421875 
Q 18.265625 -1.421875 13.375 4.4375 
Q 8.5 10.296875 8.5 21.578125 
z
M 31.109375 56 
z
" id="DejaVuSans-117"/>
      <path d="M 54.890625 33.015625 
L 54.890625 0 
L 45.90625 0 
L 45.90625 32.71875 
Q 45.90625 40.484375 42.875 44.328125 
Q 39.84375 48.1875 33.796875 48.1875 
Q 26.515625 48.1875 22.3125 43.546875 
Q 18.109375 38.921875 18.109375 30.90625 
L 18.109375 0 
L 9.078125 0 
L 9.078125 54.6875 
L 18.109375 54.6875 
L 18.109375 46.1875 
Q 21.34375 51.125 25.703125 53.5625 
Q 30.078125 56 35.796875 56 
Q 45.21875 56 50.046875 50.171875 
Q 54.890625 44.34375 54.890625 33.015625 
z
" id="DejaVuSans-110"/>
      <path d="M 9.078125 75.984375 
L 18.109375 75.984375 
L 18.109375 31.109375 
L 44.921875 54.6875 
L 56.390625 54.6875 
L 27.390625 29.109375 
L 57.625 0 
L 45.90625 0 
L 18.109375 26.703125 
L 18.109375 0 
L 9.078125 0 
z
" id="DejaVuSans-107"/>
      <path d="M 41.109375 46.296875 
Q 39.59375 47.171875 37.8125 47.578125 
Q 36.03125 48 33.890625 48 
Q 26.265625 48 22.1875 43.046875 
Q 18.109375 38.09375 18.109375 28.8125 
L 18.109375 0 
L 9.078125 0 
L 9.078125 54.6875 
L 18.109375 54.6875 
L 18.109375 46.1875 
Q 20.953125 51.171875 25.484375 53.578125 
Q 30.03125 56 36.53125 56 
Q 37.453125 56 38.578125 55.875 
Q 39.703125 55.765625 41.0625 55.515625 
z
" id="DejaVuSans-114"/>
      <path d="M 9.421875 75.984375 
L 18.40625 75.984375 
L 18.40625 0 
L 9.421875 0 
z
" id="DejaVuSans-108"/>
      <path d="M 50.984375 -16.609375 
L 50.984375 -23.578125 
L -0.984375 -23.578125 
L -0.984375 -16.609375 
z
" id="DejaVuSans-95"/>
      <path d="M 37.109375 75.984375 
L 37.109375 68.5 
L 28.515625 68.5 
Q 23.6875 68.5 21.796875 66.546875 
Q 19.921875 64.59375 19.921875 59.515625 
L 19.921875 54.6875 
L 34.71875 54.6875 
L 34.71875 47.703125 
L 19.921875 47.703125 
L 19.921875 0 
L 10.890625 0 
L 10.890625 47.703125 
L 2.296875 47.703125 
L 2.296875 54.6875 
L 10.890625 54.6875 
L 10.890625 58.5 
Q 10.890625 67.625 15.140625 71.796875 
Q 19.390625 75.984375 28.609375 75.984375 
z
" id="DejaVuSans-102"/>
      <path d="M 48.6875 27.296875 
Q 48.6875 37.203125 44.609375 42.84375 
Q 40.53125 48.484375 33.40625 48.484375 
Q 26.265625 48.484375 22.1875 42.84375 
Q 18.109375 37.203125 18.109375 27.296875 
Q 18.109375 17.390625 22.1875 11.75 
Q 26.265625 6.109375 33.40625 6.109375 
Q 40.53125 6.109375 44.609375 11.75 
Q 48.6875 17.390625 48.6875 27.296875 
z
M 18.109375 46.390625 
Q 20.953125 51.265625 25.265625 53.625 
Q 29.59375 56 35.59375 56 
Q 45.5625 56 51.78125 48.09375 
Q 58.015625 40.1875 58.015625 27.296875 
Q 58.015625 14.40625 51.78125 6.484375 
Q 45.5625 -1.421875 35.59375 -1.421875 
Q 29.59375 -1.421875 25.265625 0.953125 
Q 20.953125 3.328125 18.109375 8.203125 
L 18.109375 0 
L 9.078125 0 
L 9.078125 75.984375 
L 18.109375 75.984375 
z
" id="DejaVuSans-98"/>
      <path d="M 45.40625 46.390625 
L 45.40625 75.984375 
L 54.390625 75.984375 
L 54.390625 0 
L 45.40625 0 
L 45.40625 8.203125 
Q 42.578125 3.328125 38.25 0.953125 
Q 33.9375 -1.421875 27.875 -1.421875 
Q 17.96875 -1.421875 11.734375 6.484375 
Q 5.515625 14.40625 5.515625 27.296875 
Q 5.515625 40.1875 11.734375 48.09375 
Q 17.96875 56 27.875 56 
Q 33.9375 56 38.25 53.625 
Q 42.578125 51.265625 45.40625 46.390625 
z
M 14.796875 27.296875 
Q 14.796875 17.390625 18.875 11.75 
Q 22.953125 6.109375 30.078125 6.109375 
Q 37.203125 6.109375 41.296875 11.75 
Q 45.40625 17.390625 45.40625 27.296875 
Q 45.40625 37.203125 41.296875 42.84375 
Q 37.203125 48.484375 30.078125 48.484375 
Q 22.953125 48.484375 18.875 42.84375 
Q 14.796875 37.203125 14.796875 27.296875 
z
" id="DejaVuSans-100"/>
      <path d="M 32.171875 -5.078125 
Q 28.375 -14.84375 24.75 -17.8125 
Q 21.140625 -20.796875 15.09375 -20.796875 
L 7.90625 -20.796875 
L 7.90625 -13.28125 
L 13.1875 -13.28125 
Q 16.890625 -13.28125 18.9375 -11.515625 
Q 21 -9.765625 23.484375 -3.21875 
L 25.09375 0.875 
L 2.984375 54.6875 
L 12.5 54.6875 
L 29.59375 11.921875 
L 46.6875 54.6875 
L 56.203125 54.6875 
z
" id="DejaVuSans-121"/>
      <path d="M 30.609375 48.390625 
Q 23.390625 48.390625 19.1875 42.75 
Q 14.984375 37.109375 14.984375 27.296875 
Q 14.984375 17.484375 19.15625 11.84375 
Q 23.34375 6.203125 30.609375 6.203125 
Q 37.796875 6.203125 41.984375 11.859375 
Q 46.1875 17.53125 46.1875 27.296875 
Q 46.1875 37.015625 41.984375 42.703125 
Q 37.796875 48.390625 30.609375 48.390625 
z
M 30.609375 56 
Q 42.328125 56 49.015625 48.375 
Q 55.71875 40.765625 55.71875 27.296875 
Q 55.71875 13.875 49.015625 6.21875 
Q 42.328125 -1.421875 30.609375 -1.421875 
Q 18.84375 -1.421875 12.171875 6.21875 
Q 5.515625 13.875 5.515625 27.296875 
Q 5.515625 40.765625 12.171875 48.375 
Q 18.84375 56 30.609375 56 
z
" id="DejaVuSans-111"/>
      <path d="M 48.78125 52.59375 
L 48.78125 44.1875 
Q 44.96875 46.296875 41.140625 47.34375 
Q 37.3125 48.390625 33.40625 48.390625 
Q 24.65625 48.390625 19.8125 42.84375 
Q 14.984375 37.3125 14.984375 27.296875 
Q 14.984375 17.28125 19.8125 11.734375 
Q 24.65625 6.203125 33.40625 6.203125 
Q 37.3125 6.203125 41.140625 7.25 
Q 44.96875 8.296875 48.78125 10.40625 
L 48.78125 2.09375 
Q 45.015625 0.34375 40.984375 -0.53125 
Q 36.96875 -1.421875 32.421875 -1.421875 
Q 20.0625 -1.421875 12.78125 6.34375 
Q 5.515625 14.109375 5.515625 27.296875 
Q 5.515625 40.671875 12.859375 48.328125 
Q 20.21875 56 33.015625 56 
Q 37.15625 56 41.109375 55.140625 
Q 45.0625 54.296875 48.78125 52.59375 
z
" id="DejaVuSans-99"/>
      <path id="DejaVuSans-32"/>
      <path d="M 4.890625 31.390625 
L 31.203125 31.390625 
L 31.203125 23.390625 
L 4.890625 23.390625 
z
" id="DejaVuSans-45"/>
     </defs>
     <use xlink:href="#DejaVuSans-117"/>
     <use x="63.378906" xlink:href="#DejaVuSans-110"/>
     <use x="126.757812" xlink:href="#DejaVuSans-105"/>
     <use x="154.541016" xlink:href="#DejaVuSans-107"/>
     <use x="208.826172" xlink:href="#DejaVuSans-101"/>
     <use x="270.349609" xlink:href="#DejaVuSans-114"/>
     <use x="309.712891" xlink:href="#DejaVuSans-110"/>
     <use x="373.091797" xlink:href="#DejaVuSans-101"/>
     <use x="434.615234" xlink:href="#DejaVuSans-108"/>
     <use x="462.398438" xlink:href="#DejaVuSans-95"/>
     <use x="512.398438" xlink:href="#DejaVuSans-102"/>
     <use x="547.603516" xlink:href="#DejaVuSans-98"/>
     <use x="611.080078" xlink:href="#DejaVuSans-117"/>
     <use x="674.458984" xlink:href="#DejaVuSans-100"/>
     <use x="737.935547" xlink:href="#DejaVuSans-100"/>
     <use x="801.412109" xlink:href="#DejaVuSans-121"/>
     <use x="860.591797" xlink:href="#DejaVuSans-97"/>
     <use x="921.871094" xlink:href="#DejaVuSans-108"/>
     <use x="949.654297" xlink:href="#DejaVuSans-108"/>
     <use x="977.4375" xlink:href="#DejaVuSans-111"/>
     <use x="1038.619141" xlink:href="#DejaVuSans-99"/>
     <use x="1093.599609" xlink:href="#DejaVuSans-32"/>
     <use x="1125.386719" xlink:href="#DejaVuSans-45"/>
     <use x="1161.470703" xlink:href="#DejaVuSans-32"/>
     <use x="1193.257812" xlink:href="#DejaVuSans-102"/>
     <use x="1228.462891" xlink:href="#DejaVuSans-114"/>
     <use x="1267.326172" xlink:href="#DejaVuSans-101"/>
     <use x="1328.849609" xlink:href="#DejaVuSans-101"/>
    </g>
   </g>
   <g id="legend_1">
    <g id="patch_7">
     <path d="M 650.68 258.52 
L 654.68 258.52 
Q 656.68 258.52 656.68 256.52 
L 656.68 252.52 
Q 656.68 250.52 654.68 250.52 
L 650.68 250.52 
Q 648.68 250.52 648.68 252.52 
L 648.68 256.52 
Q 648.68 258.52 650.68 258.52 
z
" style="fill:#ffffff;opacity:0.8;stroke:#cccccc;stroke-linejoin:miter;"/>
    </g>
   </g>
  </g>
 </g>
 <defs>
  <clipPath id="pbd5b522a47">
   <rect height="388.08" width="535.68" x="108" y="60.48"/>
  </clipPath>
 </defs>
</svg>
