<?xml version="1.0" encoding="utf-8" standalone="no"?>
<!DOCTYPE svg PUBLIC "-//W3C//DTD SVG 1.1//EN"
  "http://www.w3.org/Graphics/SVG/1.1/DTD/svg11.dtd">
<!-- Created with matplotlib (https://matplotlib.org/) -->
<svg height="504pt" version="1.1" viewBox="0 0 864 504" width="864pt" xmlns="http://www.w3.org/2000/svg" xmlns:xlink="http://www.w3.org/1999/xlink">
 <metadata>
  <rdf:RDF xmlns:cc="http://creativecommons.org/ns#" xmlns:dc="http://purl.org/dc/elements/1.1/" xmlns:rdf="http://www.w3.org/1999/02/22-rdf-syntax-ns#">
   <cc:Work>
    <dc:type rdf:resource="http://purl.org/dc/dcmitype/StillImage"/>
    <dc:date>2022-05-29T17:17:16.460318</dc:date>
    <dc:format>image/svg+xml</dc:format>
    <dc:creator>
     <cc:Agent>
      <dc:title>Matplotlib v3.3.4, https://matplotlib.org/</dc:title>
     </cc:Agent>
    </dc:creator>
   </cc:Work>
  </rdf:RDF>
 </metadata>
 <defs>
  <style type="text/css">*{stroke-linecap:butt;stroke-linejoin:round;}</style>
 </defs>
 <g id="figure_1">
  <g id="patch_1">
   <path d="M 0 504 
L 864 504 
L 864 0 
L 0 0 
z
" style="fill:#ffffff;"/>
  </g>
  <g id="axes_1">
   <g id="patch_2">
    <path d="M 108 448.56 
L 643.68 448.56 
L 643.68 60.48 
L 108 60.48 
z
" style="fill:#ffffff;"/>
   </g>
   <g id="matplotlib.axis_1">
    <g id="xtick_1">
     <g id="line2d_1">
      <defs>
       <path d="M 0 0 
L 0 3.5 
" id="m7ce328742c" style="stroke:#000000;stroke-width:0.8;"/>
      </defs>
      <g>
       <use style="stroke:#000000;stroke-width:0.8;" x="132.349091" xlink:href="#m7ce328742c" y="448.56"/>
      </g>
     </g>
     <g id="text_1">
      <!-- 21:32:59 -->
      <g transform="translate(135.108466 500.4725)rotate(-90)scale(0.1 -0.1)">
       <defs>
        <path d="M 19.1875 8.296875 
L 53.609375 8.296875 
L 53.609375 0 
L 7.328125 0 
L 7.328125 8.296875 
Q 12.9375 14.109375 22.625 23.890625 
Q 32.328125 33.6875 34.8125 36.53125 
Q 39.546875 41.84375 41.421875 45.53125 
Q 43.3125 49.21875 43.3125 52.78125 
Q 43.3125 58.59375 39.234375 62.25 
Q 35.15625 65.921875 28.609375 65.921875 
Q 23.96875 65.921875 18.8125 64.3125 
Q 13.671875 62.703125 7.8125 59.421875 
L 7.8125 69.390625 
Q 13.765625 71.78125 18.9375 73 
Q 24.125 74.21875 28.421875 74.21875 
Q 39.75 74.21875 46.484375 68.546875 
Q 53.21875 62.890625 53.21875 53.421875 
Q 53.21875 48.921875 51.53125 44.890625 
Q 49.859375 40.875 45.40625 35.40625 
Q 44.1875 33.984375 37.640625 27.21875 
Q 31.109375 20.453125 19.1875 8.296875 
z
" id="DejaVuSans-50"/>
        <path d="M 12.40625 8.296875 
L 28.515625 8.296875 
L 28.515625 63.921875 
L 10.984375 60.40625 
L 10.984375 69.390625 
L 28.421875 72.90625 
L 38.28125 72.90625 
L 38.28125 8.296875 
L 54.390625 8.296875 
L 54.390625 0 
L 12.40625 0 
z
" id="DejaVuSans-49"/>
        <path d="M 11.71875 12.40625 
L 22.015625 12.40625 
L 22.015625 0 
L 11.71875 0 
z
M 11.71875 51.703125 
L 22.015625 51.703125 
L 22.015625 39.3125 
L 11.71875 39.3125 
z
" id="DejaVuSans-58"/>
        <path d="M 40.578125 39.3125 
Q 47.65625 37.796875 51.625 33 
Q 55.609375 28.21875 55.609375 21.1875 
Q 55.609375 10.40625 48.1875 4.484375 
Q 40.765625 -1.421875 27.09375 -1.421875 
Q 22.515625 -1.421875 17.65625 -0.515625 
Q 12.796875 0.390625 7.625 2.203125 
L 7.625 11.71875 
Q 11.71875 9.328125 16.59375 8.109375 
Q 21.484375 6.890625 26.8125 6.890625 
Q 36.078125 6.890625 40.9375 10.546875 
Q 45.796875 14.203125 45.796875 21.1875 
Q 45.796875 27.640625 41.28125 31.265625 
Q 36.765625 34.90625 28.71875 34.90625 
L 20.21875 34.90625 
L 20.21875 43.015625 
L 29.109375 43.015625 
Q 36.375 43.015625 40.234375 45.921875 
Q 44.09375 48.828125 44.09375 54.296875 
Q 44.09375 59.90625 40.109375 62.90625 
Q 36.140625 65.921875 28.71875 65.921875 
Q 24.65625 65.921875 20.015625 65.03125 
Q 15.375 64.15625 9.8125 62.3125 
L 9.8125 71.09375 
Q 15.4375 72.65625 20.34375 73.4375 
Q 25.25 74.21875 29.59375 74.21875 
Q 40.828125 74.21875 47.359375 69.109375 
Q 53.90625 64.015625 53.90625 55.328125 
Q 53.90625 49.265625 50.4375 45.09375 
Q 46.96875 40.921875 40.578125 39.3125 
z
" id="DejaVuSans-51"/>
        <path d="M 10.796875 72.90625 
L 49.515625 72.90625 
L 49.515625 64.59375 
L 19.828125 64.59375 
L 19.828125 46.734375 
Q 21.96875 47.46875 24.109375 47.828125 
Q 26.265625 48.1875 28.421875 48.1875 
Q 40.625 48.1875 47.75 41.5 
Q 54.890625 34.8125 54.890625 23.390625 
Q 54.890625 11.625 47.5625 5.09375 
Q 40.234375 -1.421875 26.90625 -1.421875 
Q 22.3125 -1.421875 17.546875 -0.640625 
Q 12.796875 0.140625 7.71875 1.703125 
L 7.71875 11.625 
Q 12.109375 9.234375 16.796875 8.0625 
Q 21.484375 6.890625 26.703125 6.890625 
Q 35.15625 6.890625 40.078125 11.328125 
Q 45.015625 15.765625 45.015625 23.390625 
Q 45.015625 31 40.078125 35.4375 
Q 35.15625 39.890625 26.703125 39.890625 
Q 22.75 39.890625 18.8125 39.015625 
Q 14.890625 38.140625 10.796875 36.28125 
z
" id="DejaVuSans-53"/>
        <path d="M 10.984375 1.515625 
L 10.984375 10.5 
Q 14.703125 8.734375 18.5 7.8125 
Q 22.3125 6.890625 25.984375 6.890625 
Q 35.75 6.890625 40.890625 13.453125 
Q 46.046875 20.015625 46.78125 33.40625 
Q 43.953125 29.203125 39.59375 26.953125 
Q 35.25 24.703125 29.984375 24.703125 
Q 19.046875 24.703125 12.671875 31.3125 
Q 6.296875 37.9375 6.296875 49.421875 
Q 6.296875 60.640625 12.9375 67.421875 
Q 19.578125 74.21875 30.609375 74.21875 
Q 43.265625 74.21875 49.921875 64.515625 
Q 56.59375 54.828125 56.59375 36.375 
Q 56.59375 19.140625 48.40625 8.859375 
Q 40.234375 -1.421875 26.421875 -1.421875 
Q 22.703125 -1.421875 18.890625 -0.6875 
Q 15.09375 0.046875 10.984375 1.515625 
z
M 30.609375 32.421875 
Q 37.25 32.421875 41.125 36.953125 
Q 45.015625 41.5 45.015625 49.421875 
Q 45.015625 57.28125 41.125 61.84375 
Q 37.25 66.40625 30.609375 66.40625 
Q 23.96875 66.40625 20.09375 61.84375 
Q 16.21875 57.28125 16.21875 49.421875 
Q 16.21875 41.5 20.09375 36.953125 
Q 23.96875 32.421875 30.609375 32.421875 
z
" id="DejaVuSans-57"/>
       </defs>
       <use xlink:href="#DejaVuSans-50"/>
       <use x="63.623047" xlink:href="#DejaVuSans-49"/>
       <use x="127.246094" xlink:href="#DejaVuSans-58"/>
       <use x="160.9375" xlink:href="#DejaVuSans-51"/>
       <use x="224.560547" xlink:href="#DejaVuSans-50"/>
       <use x="288.183594" xlink:href="#DejaVuSans-58"/>
       <use x="321.875" xlink:href="#DejaVuSans-53"/>
       <use x="385.498047" xlink:href="#DejaVuSans-57"/>
      </g>
     </g>
    </g>
    <g id="xtick_2">
     <g id="line2d_2">
      <g>
       <use style="stroke:#000000;stroke-width:0.8;" x="156.483288" xlink:href="#m7ce328742c" y="448.56"/>
      </g>
     </g>
     <g id="text_2">
      <!-- 21:34:24 -->
      <g transform="translate(159.242663 500.4725)rotate(-90)scale(0.1 -0.1)">
       <defs>
        <path d="M 37.796875 64.3125 
L 12.890625 25.390625 
L 37.796875 25.390625 
z
M 35.203125 72.90625 
L 47.609375 72.90625 
L 47.609375 25.390625 
L 58.015625 25.390625 
L 58.015625 17.1875 
L 47.609375 17.1875 
L 47.609375 0 
L 37.796875 0 
L 37.796875 17.1875 
L 4.890625 17.1875 
L 4.890625 26.703125 
z
" id="DejaVuSans-52"/>
       </defs>
       <use xlink:href="#DejaVuSans-50"/>
       <use x="63.623047" xlink:href="#DejaVuSans-49"/>
       <use x="127.246094" xlink:href="#DejaVuSans-58"/>
       <use x="160.9375" xlink:href="#DejaVuSans-51"/>
       <use x="224.560547" xlink:href="#DejaVuSans-52"/>
       <use x="288.183594" xlink:href="#DejaVuSans-58"/>
       <use x="321.875" xlink:href="#DejaVuSans-50"/>
       <use x="385.498047" xlink:href="#DejaVuSans-52"/>
      </g>
     </g>
    </g>
    <g id="xtick_3">
     <g id="line2d_3">
      <g>
       <use style="stroke:#000000;stroke-width:0.8;" x="180.617486" xlink:href="#m7ce328742c" y="448.56"/>
      </g>
     </g>
     <g id="text_3">
      <!-- 21:35:49 -->
      <g transform="translate(183.376861 500.4725)rotate(-90)scale(0.1 -0.1)">
       <use xlink:href="#DejaVuSans-50"/>
       <use x="63.623047" xlink:href="#DejaVuSans-49"/>
       <use x="127.246094" xlink:href="#DejaVuSans-58"/>
       <use x="160.9375" xlink:href="#DejaVuSans-51"/>
       <use x="224.560547" xlink:href="#DejaVuSans-53"/>
       <use x="288.183594" xlink:href="#DejaVuSans-58"/>
       <use x="321.875" xlink:href="#DejaVuSans-52"/>
       <use x="385.498047" xlink:href="#DejaVuSans-57"/>
      </g>
     </g>
    </g>
    <g id="xtick_4">
     <g id="line2d_4">
      <g>
       <use style="stroke:#000000;stroke-width:0.8;" x="204.751683" xlink:href="#m7ce328742c" y="448.56"/>
      </g>
     </g>
     <g id="text_4">
      <!-- 21:37:15 -->
      <g transform="translate(207.511058 500.4725)rotate(-90)scale(0.1 -0.1)">
       <defs>
        <path d="M 8.203125 72.90625 
L 55.078125 72.90625 
L 55.078125 68.703125 
L 28.609375 0 
L 18.3125 0 
L 43.21875 64.59375 
L 8.203125 64.59375 
z
" id="DejaVuSans-55"/>
       </defs>
       <use xlink:href="#DejaVuSans-50"/>
       <use x="63.623047" xlink:href="#DejaVuSans-49"/>
       <use x="127.246094" xlink:href="#DejaVuSans-58"/>
       <use x="160.9375" xlink:href="#DejaVuSans-51"/>
       <use x="224.560547" xlink:href="#DejaVuSans-55"/>
       <use x="288.183594" xlink:href="#DejaVuSans-58"/>
       <use x="321.875" xlink:href="#DejaVuSans-49"/>
       <use x="385.498047" xlink:href="#DejaVuSans-53"/>
      </g>
     </g>
    </g>
    <g id="xtick_5">
     <g id="line2d_5">
      <g>
       <use style="stroke:#000000;stroke-width:0.8;" x="228.88588" xlink:href="#m7ce328742c" y="448.56"/>
      </g>
     </g>
     <g id="text_5">
      <!-- 21:38:40 -->
      <g transform="translate(231.645255 500.4725)rotate(-90)scale(0.1 -0.1)">
       <defs>
        <path d="M 31.78125 34.625 
Q 24.75 34.625 20.71875 30.859375 
Q 16.703125 27.09375 16.703125 20.515625 
Q 16.703125 13.921875 20.71875 10.15625 
Q 24.75 6.390625 31.78125 6.390625 
Q 38.8125 6.390625 42.859375 10.171875 
Q 46.921875 13.96875 46.921875 20.515625 
Q 46.921875 27.09375 42.890625 30.859375 
Q 38.875 34.625 31.78125 34.625 
z
M 21.921875 38.8125 
Q 15.578125 40.375 12.03125 44.71875 
Q 8.5 49.078125 8.5 55.328125 
Q 8.5 64.0625 14.71875 69.140625 
Q 20.953125 74.21875 31.78125 74.21875 
Q 42.671875 74.21875 48.875 69.140625 
Q 55.078125 64.0625 55.078125 55.328125 
Q 55.078125 49.078125 51.53125 44.71875 
Q 48 40.375 41.703125 38.8125 
Q 48.828125 37.15625 52.796875 32.3125 
Q 56.78125 27.484375 56.78125 20.515625 
Q 56.78125 9.90625 50.3125 4.234375 
Q 43.84375 -1.421875 31.78125 -1.421875 
Q 19.734375 -1.421875 13.25 4.234375 
Q 6.78125 9.90625 6.78125 20.515625 
Q 6.78125 27.484375 10.78125 32.3125 
Q 14.796875 37.15625 21.921875 38.8125 
z
M 18.3125 54.390625 
Q 18.3125 48.734375 21.84375 45.5625 
Q 25.390625 42.390625 31.78125 42.390625 
Q 38.140625 42.390625 41.71875 45.5625 
Q 45.3125 48.734375 45.3125 54.390625 
Q 45.3125 60.0625 41.71875 63.234375 
Q 38.140625 66.40625 31.78125 66.40625 
Q 25.390625 66.40625 21.84375 63.234375 
Q 18.3125 60.0625 18.3125 54.390625 
z
" id="DejaVuSans-56"/>
        <path d="M 31.78125 66.40625 
Q 24.171875 66.40625 20.328125 58.90625 
Q 16.5 51.421875 16.5 36.375 
Q 16.5 21.390625 20.328125 13.890625 
Q 24.171875 6.390625 31.78125 6.390625 
Q 39.453125 6.390625 43.28125 13.890625 
Q 47.125 21.390625 47.125 36.375 
Q 47.125 51.421875 43.28125 58.90625 
Q 39.453125 66.40625 31.78125 66.40625 
z
M 31.78125 74.21875 
Q 44.046875 74.21875 50.515625 64.515625 
Q 56.984375 54.828125 56.984375 36.375 
Q 56.984375 17.96875 50.515625 8.265625 
Q 44.046875 -1.421875 31.78125 -1.421875 
Q 19.53125 -1.421875 13.0625 8.265625 
Q 6.59375 17.96875 6.59375 36.375 
Q 6.59375 54.828125 13.0625 64.515625 
Q 19.53125 74.21875 31.78125 74.21875 
z
" id="DejaVuSans-48"/>
       </defs>
       <use xlink:href="#DejaVuSans-50"/>
       <use x="63.623047" xlink:href="#DejaVuSans-49"/>
       <use x="127.246094" xlink:href="#DejaVuSans-58"/>
       <use x="160.9375" xlink:href="#DejaVuSans-51"/>
       <use x="224.560547" xlink:href="#DejaVuSans-56"/>
       <use x="288.183594" xlink:href="#DejaVuSans-58"/>
       <use x="321.875" xlink:href="#DejaVuSans-52"/>
       <use x="385.498047" xlink:href="#DejaVuSans-48"/>
      </g>
     </g>
    </g>
    <g id="xtick_6">
     <g id="line2d_6">
      <g>
       <use style="stroke:#000000;stroke-width:0.8;" x="253.020078" xlink:href="#m7ce328742c" y="448.56"/>
      </g>
     </g>
     <g id="text_6">
      <!-- 21:40:05 -->
      <g transform="translate(255.779453 500.4725)rotate(-90)scale(0.1 -0.1)">
       <use xlink:href="#DejaVuSans-50"/>
       <use x="63.623047" xlink:href="#DejaVuSans-49"/>
       <use x="127.246094" xlink:href="#DejaVuSans-58"/>
       <use x="160.9375" xlink:href="#DejaVuSans-52"/>
       <use x="224.560547" xlink:href="#DejaVuSans-48"/>
       <use x="288.183594" xlink:href="#DejaVuSans-58"/>
       <use x="321.875" xlink:href="#DejaVuSans-48"/>
       <use x="385.498047" xlink:href="#DejaVuSans-53"/>
      </g>
     </g>
    </g>
    <g id="xtick_7">
     <g id="line2d_7">
      <g>
       <use style="stroke:#000000;stroke-width:0.8;" x="277.154275" xlink:href="#m7ce328742c" y="448.56"/>
      </g>
     </g>
     <g id="text_7">
      <!-- 21:41:30 -->
      <g transform="translate(279.91365 500.4725)rotate(-90)scale(0.1 -0.1)">
       <use xlink:href="#DejaVuSans-50"/>
       <use x="63.623047" xlink:href="#DejaVuSans-49"/>
       <use x="127.246094" xlink:href="#DejaVuSans-58"/>
       <use x="160.9375" xlink:href="#DejaVuSans-52"/>
       <use x="224.560547" xlink:href="#DejaVuSans-49"/>
       <use x="288.183594" xlink:href="#DejaVuSans-58"/>
       <use x="321.875" xlink:href="#DejaVuSans-51"/>
       <use x="385.498047" xlink:href="#DejaVuSans-48"/>
      </g>
     </g>
    </g>
    <g id="xtick_8">
     <g id="line2d_8">
      <g>
       <use style="stroke:#000000;stroke-width:0.8;" x="301.288473" xlink:href="#m7ce328742c" y="448.56"/>
      </g>
     </g>
     <g id="text_8">
      <!-- 21:42:55 -->
      <g transform="translate(304.047848 500.4725)rotate(-90)scale(0.1 -0.1)">
       <use xlink:href="#DejaVuSans-50"/>
       <use x="63.623047" xlink:href="#DejaVuSans-49"/>
       <use x="127.246094" xlink:href="#DejaVuSans-58"/>
       <use x="160.9375" xlink:href="#DejaVuSans-52"/>
       <use x="224.560547" xlink:href="#DejaVuSans-50"/>
       <use x="288.183594" xlink:href="#DejaVuSans-58"/>
       <use x="321.875" xlink:href="#DejaVuSans-53"/>
       <use x="385.498047" xlink:href="#DejaVuSans-53"/>
      </g>
     </g>
    </g>
    <g id="xtick_9">
     <g id="line2d_9">
      <g>
       <use style="stroke:#000000;stroke-width:0.8;" x="325.42267" xlink:href="#m7ce328742c" y="448.56"/>
      </g>
     </g>
     <g id="text_9">
      <!-- 21:44:21 -->
      <g transform="translate(328.182045 500.4725)rotate(-90)scale(0.1 -0.1)">
       <use xlink:href="#DejaVuSans-50"/>
       <use x="63.623047" xlink:href="#DejaVuSans-49"/>
       <use x="127.246094" xlink:href="#DejaVuSans-58"/>
       <use x="160.9375" xlink:href="#DejaVuSans-52"/>
       <use x="224.560547" xlink:href="#DejaVuSans-52"/>
       <use x="288.183594" xlink:href="#DejaVuSans-58"/>
       <use x="321.875" xlink:href="#DejaVuSans-50"/>
       <use x="385.498047" xlink:href="#DejaVuSans-49"/>
      </g>
     </g>
    </g>
    <g id="xtick_10">
     <g id="line2d_10">
      <g>
       <use style="stroke:#000000;stroke-width:0.8;" x="349.556867" xlink:href="#m7ce328742c" y="448.56"/>
      </g>
     </g>
     <g id="text_10">
      <!-- 21:45:46 -->
      <g transform="translate(352.316242 500.4725)rotate(-90)scale(0.1 -0.1)">
       <defs>
        <path d="M 33.015625 40.375 
Q 26.375 40.375 22.484375 35.828125 
Q 18.609375 31.296875 18.609375 23.390625 
Q 18.609375 15.53125 22.484375 10.953125 
Q 26.375 6.390625 33.015625 6.390625 
Q 39.65625 6.390625 43.53125 10.953125 
Q 47.40625 15.53125 47.40625 23.390625 
Q 47.40625 31.296875 43.53125 35.828125 
Q 39.65625 40.375 33.015625 40.375 
z
M 52.59375 71.296875 
L 52.59375 62.3125 
Q 48.875 64.0625 45.09375 64.984375 
Q 41.3125 65.921875 37.59375 65.921875 
Q 27.828125 65.921875 22.671875 59.328125 
Q 17.53125 52.734375 16.796875 39.40625 
Q 19.671875 43.65625 24.015625 45.921875 
Q 28.375 48.1875 33.59375 48.1875 
Q 44.578125 48.1875 50.953125 41.515625 
Q 57.328125 34.859375 57.328125 23.390625 
Q 57.328125 12.15625 50.6875 5.359375 
Q 44.046875 -1.421875 33.015625 -1.421875 
Q 20.359375 -1.421875 13.671875 8.265625 
Q 6.984375 17.96875 6.984375 36.375 
Q 6.984375 53.65625 15.1875 63.9375 
Q 23.390625 74.21875 37.203125 74.21875 
Q 40.921875 74.21875 44.703125 73.484375 
Q 48.484375 72.75 52.59375 71.296875 
z
" id="DejaVuSans-54"/>
       </defs>
       <use xlink:href="#DejaVuSans-50"/>
       <use x="63.623047" xlink:href="#DejaVuSans-49"/>
       <use x="127.246094" xlink:href="#DejaVuSans-58"/>
       <use x="160.9375" xlink:href="#DejaVuSans-52"/>
       <use x="224.560547" xlink:href="#DejaVuSans-53"/>
       <use x="288.183594" xlink:href="#DejaVuSans-58"/>
       <use x="321.875" xlink:href="#DejaVuSans-52"/>
       <use x="385.498047" xlink:href="#DejaVuSans-54"/>
      </g>
     </g>
    </g>
    <g id="xtick_11">
     <g id="line2d_11">
      <g>
       <use style="stroke:#000000;stroke-width:0.8;" x="373.691065" xlink:href="#m7ce328742c" y="448.56"/>
      </g>
     </g>
     <g id="text_11">
      <!-- 21:47:11 -->
      <g transform="translate(376.45044 500.4725)rotate(-90)scale(0.1 -0.1)">
       <use xlink:href="#DejaVuSans-50"/>
       <use x="63.623047" xlink:href="#DejaVuSans-49"/>
       <use x="127.246094" xlink:href="#DejaVuSans-58"/>
       <use x="160.9375" xlink:href="#DejaVuSans-52"/>
       <use x="224.560547" xlink:href="#DejaVuSans-55"/>
       <use x="288.183594" xlink:href="#DejaVuSans-58"/>
       <use x="321.875" xlink:href="#DejaVuSans-49"/>
       <use x="385.498047" xlink:href="#DejaVuSans-49"/>
      </g>
     </g>
    </g>
    <g id="xtick_12">
     <g id="line2d_12">
      <g>
       <use style="stroke:#000000;stroke-width:0.8;" x="397.825262" xlink:href="#m7ce328742c" y="448.56"/>
      </g>
     </g>
     <g id="text_12">
      <!-- 21:48:36 -->
      <g transform="translate(400.584637 500.4725)rotate(-90)scale(0.1 -0.1)">
       <use xlink:href="#DejaVuSans-50"/>
       <use x="63.623047" xlink:href="#DejaVuSans-49"/>
       <use x="127.246094" xlink:href="#DejaVuSans-58"/>
       <use x="160.9375" xlink:href="#DejaVuSans-52"/>
       <use x="224.560547" xlink:href="#DejaVuSans-56"/>
       <use x="288.183594" xlink:href="#DejaVuSans-58"/>
       <use x="321.875" xlink:href="#DejaVuSans-51"/>
       <use x="385.498047" xlink:href="#DejaVuSans-54"/>
      </g>
     </g>
    </g>
    <g id="xtick_13">
     <g id="line2d_13">
      <g>
       <use style="stroke:#000000;stroke-width:0.8;" x="421.959459" xlink:href="#m7ce328742c" y="448.56"/>
      </g>
     </g>
     <g id="text_13">
      <!-- 21:50:01 -->
      <g transform="translate(424.718834 500.4725)rotate(-90)scale(0.1 -0.1)">
       <use xlink:href="#DejaVuSans-50"/>
       <use x="63.623047" xlink:href="#DejaVuSans-49"/>
       <use x="127.246094" xlink:href="#DejaVuSans-58"/>
       <use x="160.9375" xlink:href="#DejaVuSans-53"/>
       <use x="224.560547" xlink:href="#DejaVuSans-48"/>
       <use x="288.183594" xlink:href="#DejaVuSans-58"/>
       <use x="321.875" xlink:href="#DejaVuSans-48"/>
       <use x="385.498047" xlink:href="#DejaVuSans-49"/>
      </g>
     </g>
    </g>
    <g id="xtick_14">
     <g id="line2d_14">
      <g>
       <use style="stroke:#000000;stroke-width:0.8;" x="446.093657" xlink:href="#m7ce328742c" y="448.56"/>
      </g>
     </g>
     <g id="text_14">
      <!-- 21:51:27 -->
      <g transform="translate(448.853032 500.4725)rotate(-90)scale(0.1 -0.1)">
       <use xlink:href="#DejaVuSans-50"/>
       <use x="63.623047" xlink:href="#DejaVuSans-49"/>
       <use x="127.246094" xlink:href="#DejaVuSans-58"/>
       <use x="160.9375" xlink:href="#DejaVuSans-53"/>
       <use x="224.560547" xlink:href="#DejaVuSans-49"/>
       <use x="288.183594" xlink:href="#DejaVuSans-58"/>
       <use x="321.875" xlink:href="#DejaVuSans-50"/>
       <use x="385.498047" xlink:href="#DejaVuSans-55"/>
      </g>
     </g>
    </g>
    <g id="xtick_15">
     <g id="line2d_15">
      <g>
       <use style="stroke:#000000;stroke-width:0.8;" x="470.227854" xlink:href="#m7ce328742c" y="448.56"/>
      </g>
     </g>
     <g id="text_15">
      <!-- 21:52:52 -->
      <g transform="translate(472.987229 500.4725)rotate(-90)scale(0.1 -0.1)">
       <use xlink:href="#DejaVuSans-50"/>
       <use x="63.623047" xlink:href="#DejaVuSans-49"/>
       <use x="127.246094" xlink:href="#DejaVuSans-58"/>
       <use x="160.9375" xlink:href="#DejaVuSans-53"/>
       <use x="224.560547" xlink:href="#DejaVuSans-50"/>
       <use x="288.183594" xlink:href="#DejaVuSans-58"/>
       <use x="321.875" xlink:href="#DejaVuSans-53"/>
       <use x="385.498047" xlink:href="#DejaVuSans-50"/>
      </g>
     </g>
    </g>
    <g id="xtick_16">
     <g id="line2d_16">
      <g>
       <use style="stroke:#000000;stroke-width:0.8;" x="494.362051" xlink:href="#m7ce328742c" y="448.56"/>
      </g>
     </g>
     <g id="text_16">
      <!-- 21:54:17 -->
      <g transform="translate(497.121426 500.4725)rotate(-90)scale(0.1 -0.1)">
       <use xlink:href="#DejaVuSans-50"/>
       <use x="63.623047" xlink:href="#DejaVuSans-49"/>
       <use x="127.246094" xlink:href="#DejaVuSans-58"/>
       <use x="160.9375" xlink:href="#DejaVuSans-53"/>
       <use x="224.560547" xlink:href="#DejaVuSans-52"/>
       <use x="288.183594" xlink:href="#DejaVuSans-58"/>
       <use x="321.875" xlink:href="#DejaVuSans-49"/>
       <use x="385.498047" xlink:href="#DejaVuSans-55"/>
      </g>
     </g>
    </g>
    <g id="xtick_17">
     <g id="line2d_17">
      <g>
       <use style="stroke:#000000;stroke-width:0.8;" x="518.496249" xlink:href="#m7ce328742c" y="448.56"/>
      </g>
     </g>
     <g id="text_17">
      <!-- 21:55:42 -->
      <g transform="translate(521.255624 500.4725)rotate(-90)scale(0.1 -0.1)">
       <use xlink:href="#DejaVuSans-50"/>
       <use x="63.623047" xlink:href="#DejaVuSans-49"/>
       <use x="127.246094" xlink:href="#DejaVuSans-58"/>
       <use x="160.9375" xlink:href="#DejaVuSans-53"/>
       <use x="224.560547" xlink:href="#DejaVuSans-53"/>
       <use x="288.183594" xlink:href="#DejaVuSans-58"/>
       <use x="321.875" xlink:href="#DejaVuSans-52"/>
       <use x="385.498047" xlink:href="#DejaVuSans-50"/>
      </g>
     </g>
    </g>
    <g id="xtick_18">
     <g id="line2d_18">
      <g>
       <use style="stroke:#000000;stroke-width:0.8;" x="542.630446" xlink:href="#m7ce328742c" y="448.56"/>
      </g>
     </g>
     <g id="text_18">
      <!-- 21:57:07 -->
      <g transform="translate(545.389821 500.4725)rotate(-90)scale(0.1 -0.1)">
       <use xlink:href="#DejaVuSans-50"/>
       <use x="63.623047" xlink:href="#DejaVuSans-49"/>
       <use x="127.246094" xlink:href="#DejaVuSans-58"/>
       <use x="160.9375" xlink:href="#DejaVuSans-53"/>
       <use x="224.560547" xlink:href="#DejaVuSans-55"/>
       <use x="288.183594" xlink:href="#DejaVuSans-58"/>
       <use x="321.875" xlink:href="#DejaVuSans-48"/>
       <use x="385.498047" xlink:href="#DejaVuSans-55"/>
      </g>
     </g>
    </g>
    <g id="xtick_19">
     <g id="line2d_19">
      <g>
       <use style="stroke:#000000;stroke-width:0.8;" x="566.764644" xlink:href="#m7ce328742c" y="448.56"/>
      </g>
     </g>
     <g id="text_19">
      <!-- 21:58:32 -->
      <g transform="translate(569.524019 500.4725)rotate(-90)scale(0.1 -0.1)">
       <use xlink:href="#DejaVuSans-50"/>
       <use x="63.623047" xlink:href="#DejaVuSans-49"/>
       <use x="127.246094" xlink:href="#DejaVuSans-58"/>
       <use x="160.9375" xlink:href="#DejaVuSans-53"/>
       <use x="224.560547" xlink:href="#DejaVuSans-56"/>
       <use x="288.183594" xlink:href="#DejaVuSans-58"/>
       <use x="321.875" xlink:href="#DejaVuSans-51"/>
       <use x="385.498047" xlink:href="#DejaVuSans-50"/>
      </g>
     </g>
    </g>
    <g id="xtick_20">
     <g id="line2d_20">
      <g>
       <use style="stroke:#000000;stroke-width:0.8;" x="590.898841" xlink:href="#m7ce328742c" y="448.56"/>
      </g>
     </g>
     <g id="text_20">
      <!-- 21:59:57 -->
      <g transform="translate(593.658216 500.4725)rotate(-90)scale(0.1 -0.1)">
       <use xlink:href="#DejaVuSans-50"/>
       <use x="63.623047" xlink:href="#DejaVuSans-49"/>
       <use x="127.246094" xlink:href="#DejaVuSans-58"/>
       <use x="160.9375" xlink:href="#DejaVuSans-53"/>
       <use x="224.560547" xlink:href="#DejaVuSans-57"/>
       <use x="288.183594" xlink:href="#DejaVuSans-58"/>
       <use x="321.875" xlink:href="#DejaVuSans-53"/>
       <use x="385.498047" xlink:href="#DejaVuSans-55"/>
      </g>
     </g>
    </g>
    <g id="xtick_21">
     <g id="line2d_21">
      <g>
       <use style="stroke:#000000;stroke-width:0.8;" x="615.033038" xlink:href="#m7ce328742c" y="448.56"/>
      </g>
     </g>
     <g id="text_21">
      <!-- 22:01:22 -->
      <g transform="translate(617.792413 500.4725)rotate(-90)scale(0.1 -0.1)">
       <use xlink:href="#DejaVuSans-50"/>
       <use x="63.623047" xlink:href="#DejaVuSans-50"/>
       <use x="127.246094" xlink:href="#DejaVuSans-58"/>
       <use x="160.9375" xlink:href="#DejaVuSans-48"/>
       <use x="224.560547" xlink:href="#DejaVuSans-49"/>
       <use x="288.183594" xlink:href="#DejaVuSans-58"/>
       <use x="321.875" xlink:href="#DejaVuSans-50"/>
       <use x="385.498047" xlink:href="#DejaVuSans-50"/>
      </g>
     </g>
    </g>
    <g id="text_22">
     <!-- timestamp -->
     <g transform="translate(354.264375 510.55125)scale(0.08 -0.08)">
      <defs>
       <path d="M 18.3125 70.21875 
L 18.3125 54.6875 
L 36.8125 54.6875 
L 36.8125 47.703125 
L 18.3125 47.703125 
L 18.3125 18.015625 
Q 18.3125 11.328125 20.140625 9.421875 
Q 21.96875 7.515625 27.59375 7.515625 
L 36.8125 7.515625 
L 36.8125 0 
L 27.59375 0 
Q 17.1875 0 13.234375 3.875 
Q 9.28125 7.765625 9.28125 18.015625 
L 9.28125 47.703125 
L 2.6875 47.703125 
L 2.6875 54.6875 
L 9.28125 54.6875 
L 9.28125 70.21875 
z
" id="DejaVuSans-116"/>
       <path d="M 9.421875 54.6875 
L 18.40625 54.6875 
L 18.40625 0 
L 9.421875 0 
z
M 9.421875 75.984375 
L 18.40625 75.984375 
L 18.40625 64.59375 
L 9.421875 64.59375 
z
" id="DejaVuSans-105"/>
       <path d="M 52 44.1875 
Q 55.375 50.25 60.0625 53.125 
Q 64.75 56 71.09375 56 
Q 79.640625 56 84.28125 50.015625 
Q 88.921875 44.046875 88.921875 33.015625 
L 88.921875 0 
L 79.890625 0 
L 79.890625 32.71875 
Q 79.890625 40.578125 77.09375 44.375 
Q 74.3125 48.1875 68.609375 48.1875 
Q 61.625 48.1875 57.5625 43.546875 
Q 53.515625 38.921875 53.515625 30.90625 
L 53.515625 0 
L 44.484375 0 
L 44.484375 32.71875 
Q 44.484375 40.625 41.703125 44.40625 
Q 38.921875 48.1875 33.109375 48.1875 
Q 26.21875 48.1875 22.15625 43.53125 
Q 18.109375 38.875 18.109375 30.90625 
L 18.109375 0 
L 9.078125 0 
L 9.078125 54.6875 
L 18.109375 54.6875 
L 18.109375 46.1875 
Q 21.1875 51.21875 25.484375 53.609375 
Q 29.78125 56 35.6875 56 
Q 41.65625 56 45.828125 52.96875 
Q 50 49.953125 52 44.1875 
z
" id="DejaVuSans-109"/>
       <path d="M 56.203125 29.59375 
L 56.203125 25.203125 
L 14.890625 25.203125 
Q 15.484375 15.921875 20.484375 11.0625 
Q 25.484375 6.203125 34.421875 6.203125 
Q 39.59375 6.203125 44.453125 7.46875 
Q 49.3125 8.734375 54.109375 11.28125 
L 54.109375 2.78125 
Q 49.265625 0.734375 44.1875 -0.34375 
Q 39.109375 -1.421875 33.890625 -1.421875 
Q 20.796875 -1.421875 13.15625 6.1875 
Q 5.515625 13.8125 5.515625 26.8125 
Q 5.515625 40.234375 12.765625 48.109375 
Q 20.015625 56 32.328125 56 
Q 43.359375 56 49.78125 48.890625 
Q 56.203125 41.796875 56.203125 29.59375 
z
M 47.21875 32.234375 
Q 47.125 39.59375 43.09375 43.984375 
Q 39.0625 48.390625 32.421875 48.390625 
Q 24.90625 48.390625 20.390625 44.140625 
Q 15.875 39.890625 15.1875 32.171875 
z
" id="DejaVuSans-101"/>
       <path d="M 44.28125 53.078125 
L 44.28125 44.578125 
Q 40.484375 46.53125 36.375 47.5 
Q 32.28125 48.484375 27.875 48.484375 
Q 21.1875 48.484375 17.84375 46.4375 
Q 14.5 44.390625 14.5 40.28125 
Q 14.5 37.15625 16.890625 35.375 
Q 19.28125 33.59375 26.515625 31.984375 
L 29.59375 31.296875 
Q 39.15625 29.25 43.1875 25.515625 
Q 47.21875 21.78125 47.21875 15.09375 
Q 47.21875 7.46875 41.1875 3.015625 
Q 35.15625 -1.421875 24.609375 -1.421875 
Q 20.21875 -1.421875 15.453125 -0.5625 
Q 10.6875 0.296875 5.421875 2 
L 5.421875 11.28125 
Q 10.40625 8.6875 15.234375 7.390625 
Q 20.0625 6.109375 24.8125 6.109375 
Q 31.15625 6.109375 34.5625 8.28125 
Q 37.984375 10.453125 37.984375 14.40625 
Q 37.984375 18.0625 35.515625 20.015625 
Q 33.0625 21.96875 24.703125 23.78125 
L 21.578125 24.515625 
Q 13.234375 26.265625 9.515625 29.90625 
Q 5.8125 33.546875 5.8125 39.890625 
Q 5.8125 47.609375 11.28125 51.796875 
Q 16.75 56 26.8125 56 
Q 31.78125 56 36.171875 55.265625 
Q 40.578125 54.546875 44.28125 53.078125 
z
" id="DejaVuSans-115"/>
       <path d="M 34.28125 27.484375 
Q 23.390625 27.484375 19.1875 25 
Q 14.984375 22.515625 14.984375 16.5 
Q 14.984375 11.71875 18.140625 8.90625 
Q 21.296875 6.109375 26.703125 6.109375 
Q 34.1875 6.109375 38.703125 11.40625 
Q 43.21875 16.703125 43.21875 25.484375 
L 43.21875 27.484375 
z
M 52.203125 31.203125 
L 52.203125 0 
L 43.21875 0 
L 43.21875 8.296875 
Q 40.140625 3.328125 35.546875 0.953125 
Q 30.953125 -1.421875 24.3125 -1.421875 
Q 15.921875 -1.421875 10.953125 3.296875 
Q 6 8.015625 6 15.921875 
Q 6 25.140625 12.171875 29.828125 
Q 18.359375 34.515625 30.609375 34.515625 
L 43.21875 34.515625 
L 43.21875 35.40625 
Q 43.21875 41.609375 39.140625 45 
Q 35.0625 48.390625 27.6875 48.390625 
Q 23 48.390625 18.546875 47.265625 
Q 14.109375 46.140625 10.015625 43.890625 
L 10.015625 52.203125 
Q 14.9375 54.109375 19.578125 55.046875 
Q 24.21875 56 28.609375 56 
Q 40.484375 56 46.34375 49.84375 
Q 52.203125 43.703125 52.203125 31.203125 
z
" id="DejaVuSans-97"/>
       <path d="M 18.109375 8.203125 
L 18.109375 -20.796875 
L 9.078125 -20.796875 
L 9.078125 54.6875 
L 18.109375 54.6875 
L 18.109375 46.390625 
Q 20.953125 51.265625 25.265625 53.625 
Q 29.59375 56 35.59375 56 
Q 45.5625 56 51.78125 48.09375 
Q 58.015625 40.1875 58.015625 27.296875 
Q 58.015625 14.40625 51.78125 6.484375 
Q 45.5625 -1.421875 35.59375 -1.421875 
Q 29.59375 -1.421875 25.265625 0.953125 
Q 20.953125 3.328125 18.109375 8.203125 
z
M 48.6875 27.296875 
Q 48.6875 37.203125 44.609375 42.84375 
Q 40.53125 48.484375 33.40625 48.484375 
Q 26.265625 48.484375 22.1875 42.84375 
Q 18.109375 37.203125 18.109375 27.296875 
Q 18.109375 17.390625 22.1875 11.75 
Q 26.265625 6.109375 33.40625 6.109375 
Q 40.53125 6.109375 44.609375 11.75 
Q 48.6875 17.390625 48.6875 27.296875 
z
" id="DejaVuSans-112"/>
      </defs>
      <use xlink:href="#DejaVuSans-116"/>
      <use x="39.208984" xlink:href="#DejaVuSans-105"/>
      <use x="66.992188" xlink:href="#DejaVuSans-109"/>
      <use x="164.404297" xlink:href="#DejaVuSans-101"/>
      <use x="225.927734" xlink:href="#DejaVuSans-115"/>
      <use x="278.027344" xlink:href="#DejaVuSans-116"/>
      <use x="317.236328" xlink:href="#DejaVuSans-97"/>
      <use x="378.515625" xlink:href="#DejaVuSans-109"/>
      <use x="475.927734" xlink:href="#DejaVuSans-112"/>
     </g>
    </g>
   </g>
   <g id="matplotlib.axis_2">
    <g id="ytick_1">
     <g id="line2d_22">
      <defs>
       <path d="M 0 0 
L -3.5 0 
" id="ma60e6e6ec9" style="stroke:#000000;stroke-width:0.8;"/>
      </defs>
      <g>
       <use style="stroke:#000000;stroke-width:0.8;" x="108" xlink:href="#ma60e6e6ec9" y="407.748173"/>
      </g>
     </g>
     <g id="text_23">
      <!-- 12200 -->
      <g transform="translate(69.1875 411.547391)scale(0.1 -0.1)">
       <use xlink:href="#DejaVuSans-49"/>
       <use x="63.623047" xlink:href="#DejaVuSans-50"/>
       <use x="127.246094" xlink:href="#DejaVuSans-50"/>
       <use x="190.869141" xlink:href="#DejaVuSans-48"/>
       <use x="254.492188" xlink:href="#DejaVuSans-48"/>
      </g>
     </g>
    </g>
    <g id="ytick_2">
     <g id="line2d_23">
      <g>
       <use style="stroke:#000000;stroke-width:0.8;" x="108" xlink:href="#ma60e6e6ec9" y="348.903834"/>
      </g>
     </g>
     <g id="text_24">
      <!-- 12400 -->
      <g transform="translate(69.1875 352.703053)scale(0.1 -0.1)">
       <use xlink:href="#DejaVuSans-49"/>
       <use x="63.623047" xlink:href="#DejaVuSans-50"/>
       <use x="127.246094" xlink:href="#DejaVuSans-52"/>
       <use x="190.869141" xlink:href="#DejaVuSans-48"/>
       <use x="254.492188" xlink:href="#DejaVuSans-48"/>
      </g>
     </g>
    </g>
    <g id="ytick_3">
     <g id="line2d_24">
      <g>
       <use style="stroke:#000000;stroke-width:0.8;" x="108" xlink:href="#ma60e6e6ec9" y="290.059495"/>
      </g>
     </g>
     <g id="text_25">
      <!-- 12600 -->
      <g transform="translate(69.1875 293.858714)scale(0.1 -0.1)">
       <use xlink:href="#DejaVuSans-49"/>
       <use x="63.623047" xlink:href="#DejaVuSans-50"/>
       <use x="127.246094" xlink:href="#DejaVuSans-54"/>
       <use x="190.869141" xlink:href="#DejaVuSans-48"/>
       <use x="254.492188" xlink:href="#DejaVuSans-48"/>
      </g>
     </g>
    </g>
    <g id="ytick_4">
     <g id="line2d_25">
      <g>
       <use style="stroke:#000000;stroke-width:0.8;" x="108" xlink:href="#ma60e6e6ec9" y="231.215156"/>
      </g>
     </g>
     <g id="text_26">
      <!-- 12800 -->
      <g transform="translate(69.1875 235.014375)scale(0.1 -0.1)">
       <use xlink:href="#DejaVuSans-49"/>
       <use x="63.623047" xlink:href="#DejaVuSans-50"/>
       <use x="127.246094" xlink:href="#DejaVuSans-56"/>
       <use x="190.869141" xlink:href="#DejaVuSans-48"/>
       <use x="254.492188" xlink:href="#DejaVuSans-48"/>
      </g>
     </g>
    </g>
    <g id="ytick_5">
     <g id="line2d_26">
      <g>
       <use style="stroke:#000000;stroke-width:0.8;" x="108" xlink:href="#ma60e6e6ec9" y="172.370817"/>
      </g>
     </g>
     <g id="text_27">
      <!-- 13000 -->
      <g transform="translate(69.1875 176.170036)scale(0.1 -0.1)">
       <use xlink:href="#DejaVuSans-49"/>
       <use x="63.623047" xlink:href="#DejaVuSans-51"/>
       <use x="127.246094" xlink:href="#DejaVuSans-48"/>
       <use x="190.869141" xlink:href="#DejaVuSans-48"/>
       <use x="254.492188" xlink:href="#DejaVuSans-48"/>
      </g>
     </g>
    </g>
    <g id="ytick_6">
     <g id="line2d_27">
      <g>
       <use style="stroke:#000000;stroke-width:0.8;" x="108" xlink:href="#ma60e6e6ec9" y="113.526479"/>
      </g>
     </g>
     <g id="text_28">
      <!-- 13200 -->
      <g transform="translate(69.1875 117.325697)scale(0.1 -0.1)">
       <use xlink:href="#DejaVuSans-49"/>
       <use x="63.623047" xlink:href="#DejaVuSans-51"/>
       <use x="127.246094" xlink:href="#DejaVuSans-50"/>
       <use x="190.869141" xlink:href="#DejaVuSans-48"/>
       <use x="254.492188" xlink:href="#DejaVuSans-48"/>
      </g>
     </g>
    </g>
    <g id="text_29">
     <!-- MB -->
     <g transform="translate(63.52375 260.715625)rotate(-90)scale(0.08 -0.08)">
      <defs>
       <path d="M 9.8125 72.90625 
L 24.515625 72.90625 
L 43.109375 23.296875 
L 61.8125 72.90625 
L 76.515625 72.90625 
L 76.515625 0 
L 66.890625 0 
L 66.890625 64.015625 
L 48.09375 14.015625 
L 38.1875 14.015625 
L 19.390625 64.015625 
L 19.390625 0 
L 9.8125 0 
z
" id="DejaVuSans-77"/>
       <path d="M 19.671875 34.8125 
L 19.671875 8.109375 
L 35.5 8.109375 
Q 43.453125 8.109375 47.28125 11.40625 
Q 51.125 14.703125 51.125 21.484375 
Q 51.125 28.328125 47.28125 31.5625 
Q 43.453125 34.8125 35.5 34.8125 
z
M 19.671875 64.796875 
L 19.671875 42.828125 
L 34.28125 42.828125 
Q 41.5 42.828125 45.03125 45.53125 
Q 48.578125 48.25 48.578125 53.8125 
Q 48.578125 59.328125 45.03125 62.0625 
Q 41.5 64.796875 34.28125 64.796875 
z
M 9.8125 72.90625 
L 35.015625 72.90625 
Q 46.296875 72.90625 52.390625 68.21875 
Q 58.5 63.53125 58.5 54.890625 
Q 58.5 48.1875 55.375 44.234375 
Q 52.25 40.28125 46.1875 39.3125 
Q 53.46875 37.75 57.5 32.78125 
Q 61.53125 27.828125 61.53125 20.40625 
Q 61.53125 10.640625 54.890625 5.3125 
Q 48.25 0 35.984375 0 
L 9.8125 0 
z
" id="DejaVuSans-66"/>
      </defs>
      <use xlink:href="#DejaVuSans-77"/>
      <use x="86.279297" xlink:href="#DejaVuSans-66"/>
     </g>
    </g>
   </g>
   <g id="line2d_28">
    <path clip-path="url(#p0add0ee4f8)" d="M 132.349091 80.186801 
L 132.679696 78.12 
L 133.010302 79.043131 
L 133.340907 79.335978 
L 134.002118 78.553848 
L 134.332724 78.62254 
L 134.663329 80.443495 
L 134.993934 80.204878 
L 135.32454 80.115699 
L 135.655145 79.568569 
L 135.985751 80.774906 
L 136.316356 80.812265 
L 136.646962 85.717152 
L 136.977567 103.228926 
L 137.638778 155.953454 
L 137.969383 228.996508 
L 138.299989 248.356955 
L 139.291805 334.507025 
L 139.622411 365.833228 
L 140.283622 398.265742 
L 140.614227 401.324367 
L 140.944832 401.039956 
L 141.275438 403.928657 
L 141.936649 407.774234 
L 142.267254 407.407874 
L 142.59786 407.751336 
L 143.259071 406.177434 
L 143.589676 406.839051 
L 143.920281 406.947513 
L 144.250887 409.054084 
L 144.581492 409.448162 
L 144.912098 410.372498 
L 145.573309 410.542422 
L 145.903914 409.534932 
L 146.23452 410.329114 
L 146.565125 413.9891 
L 146.89573 414.090331 
L 147.226336 411.657169 
L 147.556941 410.779833 
L 147.887547 412.056068 
L 148.218152 416.552416 
L 148.548758 416.096876 
L 148.879363 415.025513 
L 149.209969 415.288232 
L 149.540574 412.563428 
L 149.871179 411.100398 
L 150.201785 410.948552 
L 150.53239 409.712086 
L 150.862996 413.306995 
L 151.193601 413.434739 
L 151.524207 413.250354 
L 151.854812 412.523659 
L 152.185418 413.754099 
L 152.516023 415.489489 
L 152.846628 414.890538 
L 153.177234 414.955616 
L 153.507839 413.832433 
L 153.838445 414.165049 
L 154.16905 414.702538 
L 154.499656 414.424152 
L 154.830261 413.250354 
L 155.160867 413.185277 
L 155.491472 414.895359 
L 155.822077 414.498871 
L 156.152683 411.948811 
L 156.483288 412.042811 
L 156.813894 414.67241 
L 157.144499 414.073459 
L 157.475105 414.057792 
L 157.80571 413.12502 
L 158.466921 414.625409 
L 158.797526 414.397639 
L 159.128132 413.957766 
L 159.458737 413.016558 
L 159.789343 415.916106 
L 160.119948 415.836567 
L 160.450554 417.512906 
L 160.781159 418.260088 
L 161.111764 417.303213 
L 161.44237 418.14801 
L 161.772975 414.136126 
L 162.103581 413.705894 
L 162.434186 413.705894 
L 162.764792 414.850769 
L 163.095397 414.056587 
L 163.426003 417.852753 
L 163.756608 416.751262 
L 164.087213 414.691692 
L 164.417819 416.628339 
L 164.748424 416.788621 
L 165.07903 416.18244 
L 165.409635 414.501281 
L 165.740241 416.464441 
L 166.070846 416.165568 
L 166.401452 415.573848 
L 166.732057 414.35787 
L 167.393268 415.748593 
L 168.054479 414.657948 
L 168.385084 414.58323 
L 168.71569 414.084305 
L 169.046295 414.121664 
L 169.376901 414.381973 
L 169.707506 413.315431 
L 170.368717 415.629284 
L 170.699322 415.460566 
L 171.029928 415.735336 
L 171.360533 414.002356 
L 171.691139 414.983334 
L 172.35235 415.766669 
L 172.682955 414.344614 
L 173.344166 416.760903 
L 173.674771 416.425877 
L 174.335982 415.507566 
L 174.666588 415.967927 
L 174.997193 415.261719 
L 175.327799 414.906205 
L 175.658404 414.210844 
L 175.989009 414.960436 
L 176.319615 417.079058 
L 176.65022 417.453854 
L 176.980826 416.947699 
L 177.311431 415.373796 
L 177.642037 415.981183 
L 177.972642 416.161953 
L 178.303248 415.732926 
L 178.633853 414.154203 
L 178.964458 414.383178 
L 179.295064 416.953725 
L 179.625669 416.581339 
L 180.28688 415.070103 
L 180.617486 416.131825 
L 180.948091 416.707878 
L 181.278697 415.123129 
L 181.609302 414.199998 
L 182.270513 416.757288 
L 182.601118 416.212568 
L 182.931724 415.972747 
L 183.262329 415.370181 
L 183.592935 415.6799 
L 183.92354 415.112283 
L 184.254146 415.372591 
L 184.584751 414.480794 
L 184.915356 414.861615 
L 185.245962 416.464441 
L 185.576567 416.359594 
L 185.907173 415.941414 
L 186.237778 415.007436 
L 186.568384 415.379822 
L 186.898989 415.970337 
L 187.229595 415.812465 
L 187.5602 414.821846 
L 188.221411 415.76908 
L 188.882622 415.68231 
L 189.213227 414.602512 
L 189.543833 415.193027 
L 189.874438 415.411156 
L 190.205044 415.044795 
L 190.535649 414.108408 
L 190.866254 414.731461 
L 191.19686 416.165568 
L 191.527465 416.00167 
L 191.858071 415.670259 
L 192.188676 415.681105 
L 192.519282 416.617493 
L 193.180493 414.22169 
L 193.511098 414.439819 
L 193.841703 415.340053 
L 194.172309 417.040494 
L 194.502914 417.217648 
L 194.83352 416.885032 
L 195.164125 414.878487 
L 195.494731 417.158597 
L 196.155941 416.589775 
L 196.486547 415.074924 
L 196.817152 415.738951 
L 197.147758 417.516521 
L 198.139574 416.124594 
L 198.47018 416.436723 
L 198.800785 416.324646 
L 199.13139 416.064337 
L 199.792601 414.639871 
L 200.123207 416.293312 
L 200.453812 416.483723 
L 200.784418 416.037824 
L 201.115023 414.425358 
L 201.445629 416.27644 
L 201.776234 416.571698 
L 202.106839 416.677749 
L 202.437445 414.81582 
L 203.098656 421.511534 
L 203.429261 421.398252 
L 203.759867 420.337735 
L 204.090472 418.163677 
L 204.421078 418.849397 
L 205.082288 418.105831 
L 205.412894 416.462031 
L 205.743499 418.949423 
L 206.074105 416.423466 
L 206.40471 416.235466 
L 206.735316 415.86549 
L 207.065921 413.616714 
L 207.396527 416.629544 
L 208.057737 416.745237 
L 208.388343 415.084565 
L 208.718948 416.076388 
L 209.049554 417.608111 
L 209.380159 415.772695 
L 209.710765 415.855849 
L 210.04137 415.199052 
L 210.371976 416.451184 
L 210.702581 416.566877 
L 211.033186 416.186055 
L 211.363792 415.305104 
L 211.694397 415.197847 
L 212.025003 416.625929 
L 212.355608 416.63798 
L 213.016819 415.173745 
L 213.347425 418.005805 
L 214.008635 417.147751 
L 214.339241 415.976362 
L 214.669846 415.250873 
L 215.331057 416.437928 
L 215.661663 416.292107 
L 215.992268 415.390668 
L 216.322874 417.040494 
L 216.984084 415.867901 
L 217.31469 414.761589 
L 217.645295 416.900699 
L 217.975901 417.69006 
L 218.306506 417.2767 
L 218.637112 417.065802 
L 218.967717 416.335492 
L 219.298323 417.23452 
L 219.628928 416.625929 
L 219.959533 416.448774 
L 220.290139 415.321976 
L 220.620744 416.139055 
L 220.95135 415.006231 
L 221.281955 414.842333 
L 221.612561 415.073719 
L 221.943166 414.250613 
L 222.273772 417.020007 
L 222.604377 417.444213 
L 222.934982 417.537008 
L 223.265588 415.840183 
L 223.596193 416.290902 
L 223.926799 417.456265 
L 224.58801 417.2767 
L 224.918615 416.840442 
L 225.249221 417.206802 
L 225.579826 416.54639 
L 225.910431 416.739211 
L 226.241037 415.691951 
L 226.571642 416.734391 
L 226.902248 416.481313 
L 227.232853 416.59339 
L 227.563459 415.805234 
L 227.894064 415.848618 
L 228.22467 417.146546 
L 228.88588 416.942878 
L 229.216486 414.971282 
L 229.547091 417.647881 
L 229.877697 416.91516 
L 230.208302 417.393598 
L 230.538908 416.648826 
L 230.869513 415.613618 
L 231.200118 419.135014 
L 231.530724 417.064597 
L 231.861329 416.721134 
L 232.191935 415.800413 
L 232.52254 417.859984 
L 233.183751 418.338421 
L 233.514357 417.277905 
L 233.844962 416.830801 
L 234.175567 417.41529 
L 234.836778 417.862394 
L 235.167384 416.442749 
L 235.497989 418.544499 
L 235.828595 416.625929 
L 236.1592 416.678954 
L 236.489806 415.794388 
L 236.820411 416.49939 
L 237.151016 417.811779 
L 237.812227 417.610522 
L 238.142833 416.86575 
L 238.473438 417.862394 
L 238.804044 417.896138 
L 239.134649 418.160062 
L 239.465255 417.144135 
L 239.79586 417.820215 
L 240.126465 421.419944 
L 240.457071 419.996683 
L 240.787676 419.897862 
L 241.118282 417.590034 
L 241.779493 418.472191 
L 242.110098 418.289011 
L 242.440704 417.052545 
L 243.101914 419.372425 
L 243.43252 419.404963 
L 243.763125 419.147065 
L 244.093731 418.085344 
L 244.424336 418.286601 
L 244.754942 417.925061 
L 245.085547 417.981702 
L 245.416153 419.918349 
L 245.746758 419.69781 
L 246.077363 422.66123 
L 246.407969 422.669666 
L 246.738574 419.477271 
L 247.06918 417.714163 
L 247.730391 419.147065 
L 248.060996 423.249334 
L 248.391602 423.432515 
L 248.722207 422.411768 
L 249.052812 420.968019 
L 249.383418 420.46789 
L 249.714023 420.589608 
L 250.044629 419.485707 
L 250.375234 419.495348 
L 251.036445 417.226084 
L 251.367051 416.465646 
L 251.697656 416.434313 
L 252.028261 417.827445 
L 252.689472 417.797317 
L 253.020078 417.148956 
L 253.350683 418.013036 
L 253.681289 419.23986 
L 254.011894 419.186834 
L 254.3425 418.795166 
L 254.673105 417.289956 
L 255.00371 419.520656 
L 255.334316 419.404963 
L 255.664921 419.439912 
L 255.995527 418.497499 
L 256.326132 419.999093 
L 256.656738 419.484502 
L 256.987343 419.633938 
L 257.648554 417.456265 
L 257.979159 420.123222 
L 258.309765 420.038863 
L 258.64037 419.447143 
L 258.970976 418.139575 
L 259.301581 417.627393 
L 259.632187 419.271194 
L 259.962792 418.481832 
L 260.293398 418.636089 
L 260.624003 417.679214 
L 260.954608 419.783375 
L 261.285214 419.817118 
L 261.615819 419.966555 
L 261.946425 419.109706 
L 262.27703 419.173578 
L 262.938241 420.446197 
L 263.268847 420.532967 
L 263.599452 419.113321 
L 263.930057 421.028276 
L 264.260663 420.74748 
L 264.591268 418.372165 
L 264.921874 418.150421 
L 265.252479 419.075962 
L 265.583085 417.926266 
L 265.91369 417.564727 
L 266.244296 417.667163 
L 266.574901 416.377671 
L 266.905506 419.161527 
L 267.236112 419.626707 
L 267.566717 419.573682 
L 267.897323 418.578243 
L 268.227928 418.248036 
L 268.558534 420.013555 
L 268.889139 419.091629 
L 269.219744 418.830115 
L 269.55035 418.114267 
L 269.880955 420.661916 
L 270.542166 419.708656 
L 270.872772 418.581858 
L 271.203377 419.313373 
L 271.533983 420.798096 
L 271.864588 419.877375 
L 272.195193 419.791811 
L 272.525799 418.743346 
L 272.856404 420.593223 
L 273.18701 419.8364 
L 273.517615 419.658041 
L 273.848221 418.980757 
L 274.178826 417.45506 
L 274.509432 419.724323 
L 274.840037 419.350732 
L 275.170642 419.605015 
L 275.501248 418.129933 
L 275.831853 418.890372 
L 276.162459 418.880731 
L 276.493064 418.639704 
L 276.82367 417.541829 
L 277.484881 420.023196 
L 278.146091 419.42304 
L 278.476697 418.516781 
L 278.807302 419.668887 
L 279.137908 419.859298 
L 279.468513 419.88099 
L 279.799119 419.382066 
L 280.46033 420.851122 
L 280.790935 420.955968 
L 281.452146 418.575832 
L 281.782751 420.523326 
L 282.113357 420.898122 
L 282.443962 419.389296 
L 282.774568 418.639704 
L 283.105173 418.542089 
L 283.435779 419.630323 
L 283.766384 419.37604 
L 284.096989 419.625502 
L 284.427595 418.68791 
L 284.7582 420.330505 
L 285.088806 419.985837 
L 285.750017 419.033783 
L 286.080622 419.114526 
L 286.411228 420.128042 
L 286.741833 420.379915 
L 287.072438 419.794221 
L 287.403044 418.785525 
L 288.064255 423.775977 
L 288.39486 423.749464 
L 288.725466 423.039641 
L 289.056071 418.291421 
L 289.386677 419.294091 
L 289.717282 418.994013 
L 290.047887 419.113321 
L 290.378493 417.421316 
L 290.709098 419.543553 
L 291.039704 420.366659 
L 291.370309 420.690839 
L 291.700915 418.254062 
L 292.03152 418.403498 
L 292.362126 420.307607 
L 293.023336 419.78458 
L 293.353942 418.534858 
L 294.015153 419.895452 
L 294.345758 420.060555 
L 294.676364 418.936167 
L 295.006969 418.691525 
L 295.337575 417.624983 
L 295.66818 417.568342 
L 295.998785 417.386367 
L 296.329391 416.529518 
L 296.659996 418.433627 
L 296.990602 419.473656 
L 297.651813 417.369495 
L 297.982418 417.012776 
L 298.313024 419.984632 
L 298.643629 419.447143 
L 298.974234 419.409784 
L 299.30484 418.442063 
L 299.635445 420.581172 
L 299.966051 420.036452 
L 300.296656 419.801452 
L 300.627262 418.539678 
L 300.957867 419.001244 
L 301.288473 419.890631 
L 301.619078 419.856888 
L 301.949683 419.570066 
L 302.280289 420.029222 
L 302.610894 421.446457 
L 302.9415 421.363303 
L 303.602711 419.790605 
L 303.933316 418.795166 
L 304.263921 420.041273 
L 304.925132 419.6954 
L 305.255738 418.686704 
L 305.586343 420.052119 
L 305.916949 420.531762 
L 306.247554 420.118401 
L 306.57816 420.115991 
L 306.908765 419.32663 
L 307.23937 421.395841 
L 307.569976 421.416329 
L 307.900581 421.258456 
L 308.231187 420.642634 
L 308.561792 422.446716 
L 308.892398 423.134847 
L 309.553609 420.201555 
L 309.884214 419.889426 
L 310.214819 422.38646 
L 310.545425 422.094818 
L 311.206636 420.522121 
L 311.537241 420.138889 
L 311.867847 421.177712 
L 312.529058 421.356072 
L 312.859663 420.226863 
L 313.190268 421.394636 
L 313.520874 425.495701 
L 313.851479 425.811445 
L 314.182085 424.875058 
L 314.51269 425.878933 
L 314.843296 423.340924 
L 315.173901 423.227642 
L 315.504507 423.248129 
L 315.835112 421.401867 
L 316.165717 422.791384 
L 316.496323 422.455152 
L 316.826928 422.438281 
L 317.157534 420.028016 
L 317.488139 419.549579 
L 317.818745 421.845356 
L 318.14935 421.807997 
L 318.810561 420.323274 
L 319.141166 422.150254 
L 319.471772 421.654945 
L 319.802377 421.657355 
L 320.132983 420.147325 
L 320.463588 420.083453 
L 320.794194 421.744125 
L 321.124799 421.751355 
L 321.455405 421.921279 
L 321.78601 421.074071 
L 322.116615 422.452742 
L 322.447221 422.181587 
L 322.777826 422.15869 
L 323.108432 421.363303 
L 323.439037 421.873074 
L 323.769643 420.447402 
L 324.100248 420.530557 
L 324.430854 419.28686 
L 324.761459 418.901218 
L 325.092064 421.724842 
L 325.42267 422.003228 
L 325.753275 421.818843 
L 326.083881 420.578762 
L 326.414486 420.907763 
L 326.745092 422.617845 
L 327.736908 419.989452 
L 328.067513 422.323793 
L 328.398119 422.670871 
L 328.728724 422.512999 
L 329.05933 421.748945 
L 329.389935 422.514204 
L 329.720541 422.049023 
L 330.051146 422.316562 
L 330.381752 425.434239 
L 331.042962 425.226956 
L 331.373568 424.994366 
L 332.034779 419.74481 
L 332.365384 421.163251 
L 332.69599 421.735689 
L 333.026595 421.506713 
L 333.357201 425.355905 
L 333.687806 424.425543 
L 334.018411 424.131491 
L 334.349017 424.092927 
L 334.679622 423.267411 
L 335.010228 421.78992 
L 335.340833 422.61905 
L 335.671439 424.913622 
L 336.002044 423.98567 
L 336.33265 424.066414 
L 336.663255 422.819102 
L 336.99386 422.640743 
L 337.324466 423.028795 
L 337.655071 422.876949 
L 337.985677 422.045408 
L 338.316282 421.991177 
L 338.646888 422.89382 
L 338.977493 422.979385 
L 339.308099 422.667256 
L 339.638704 421.956228 
L 339.969309 423.507233 
L 340.299915 423.604848 
L 340.961126 422.121331 
L 341.291731 422.733538 
L 341.622337 424.227902 
L 341.952942 424.687057 
L 342.283547 424.689467 
L 342.614153 422.302101 
L 342.944758 423.191488 
L 343.605969 423.296335 
L 343.936575 422.586512 
L 344.26718 422.640743 
L 344.597786 423.923003 
L 344.928391 423.348155 
L 345.258996 423.434925 
L 345.589602 421.892356 
L 345.920207 421.830894 
L 346.250813 422.202075 
L 346.912024 419.783375 
L 347.573235 421.413918 
L 347.90384 421.33679 
L 348.234445 421.503098 
L 348.565051 420.605275 
L 348.895656 422.070715 
L 349.226262 422.055049 
L 349.556867 422.239434 
L 349.887473 421.099379 
L 350.218078 421.182533 
L 350.548684 423.249334 
L 350.879289 423.202334 
L 351.5405 422.173152 
L 351.871105 423.567489 
L 352.201711 423.701259 
L 352.532316 423.154129 
L 352.862922 421.765817 
L 353.524133 423.521694 
L 354.185343 421.303046 
L 354.515949 421.251225 
L 354.846554 422.42864 
L 355.507765 421.876689 
L 355.838371 420.567916 
L 356.168976 420.849917 
L 356.499582 422.801025 
L 356.830187 424.031465 
L 357.160792 423.8519 
L 357.491398 423.092667 
L 357.822003 425.089571 
L 358.483214 424.679826 
L 358.81382 423.421668 
L 359.144425 424.770211 
L 359.475031 427.499835 
L 359.805636 425.935574 
L 360.136241 425.882548 
L 360.797452 424.101363 
L 361.128058 424.339979 
L 361.789269 422.390075 
L 362.119874 422.34428 
L 362.45048 423.977234 
L 363.11169 423.462643 
L 363.442296 422.821513 
L 363.772901 425.269136 
L 364.103507 425.757214 
L 364.434112 425.833138 
L 364.764718 425.347469 
L 365.095323 425.067879 
L 365.425929 425.757214 
L 365.756534 426.005471 
L 366.087139 425.85965 
L 366.417745 424.53521 
L 366.74835 424.601493 
L 367.078956 424.358056 
L 367.740167 422.140613 
L 368.070772 422.603384 
L 368.401378 425.264315 
L 368.731983 424.581005 
L 369.062588 424.464108 
L 369.393194 423.648233 
L 369.723799 424.749724 
L 370.054405 424.71116 
L 370.38501 424.346005 
L 370.715616 423.794054 
L 371.046221 424.220671 
L 371.376827 425.519803 
L 371.707432 425.782522 
L 372.038037 425.489675 
L 372.368643 424.675006 
L 372.699248 426.309165 
L 373.029854 430.623538 
L 373.691065 428.257863 
L 374.02167 428.878506 
L 374.352276 426.006677 
L 375.013486 425.675265 
L 375.344092 424.607518 
L 375.674697 424.593057 
L 376.005303 424.729237 
L 376.335908 424.450851 
L 376.666514 423.122796 
L 377.327724 424.325517 
L 377.988935 424.015798 
L 378.319541 422.749205 
L 378.650146 425.529444 
L 378.980752 425.62465 
L 379.311357 425.524624 
L 379.641963 424.384569 
L 379.972568 425.276367 
L 380.303173 425.117289 
L 380.633779 424.600287 
L 380.964384 424.378543 
L 381.29499 423.62172 
L 381.625595 427.012962 
L 381.956201 426.150087 
L 382.286806 425.80783 
L 382.617412 424.723211 
L 382.948017 422.851641 
L 383.278622 424.782262 
L 383.939833 424.142337 
L 384.270439 423.131232 
L 384.601044 424.744903 
L 384.93165 424.690672 
L 385.592861 423.519284 
L 385.923466 424.108594 
L 386.254071 425.647547 
L 386.915282 425.095597 
L 387.245888 424.446031 
L 387.576493 425.561983 
L 387.907099 424.790698 
L 388.237704 424.620775 
L 388.56831 423.783208 
L 388.898915 424.159209 
L 389.22952 425.566803 
L 389.890731 425.572829 
L 390.221337 424.424338 
L 390.551942 425.35229 
L 391.213153 425.534265 
L 391.543759 423.625336 
L 391.874364 424.266466 
L 392.204969 424.628006 
L 392.86618 424.466518 
L 393.196786 423.754285 
L 393.527391 426.54055 
L 393.857997 426.309165 
L 394.188602 426.288677 
L 394.519208 425.229366 
L 394.849813 425.527034 
L 395.180418 425.512572 
L 395.511024 424.362876 
L 395.841629 424.423133 
L 396.172235 423.373463 
L 396.50284 425.639111 
L 396.833446 426.157318 
L 397.164051 424.979904 
L 397.825262 423.547002 
L 398.155867 424.783468 
L 398.486473 425.101622 
L 398.817078 425.004007 
L 399.147684 424.080876 
L 399.478289 426.54055 
L 400.1395 424.960622 
L 400.470106 423.439745 
L 400.800711 424.254415 
L 401.131316 426.125985 
L 401.792527 425.559573 
L 402.123133 424.742493 
L 402.453738 424.914827 
L 402.784344 424.026645 
L 403.114949 424.405056 
L 403.445555 423.550617 
L 403.77616 424.308646 
L 404.106765 423.915772 
L 404.437371 423.318027 
L 404.767976 423.472284 
L 405.098582 422.570845 
L 405.429187 425.339033 
L 405.759793 425.640316 
L 406.090398 425.378803 
L 406.421004 423.79767 
L 406.751609 423.98085 
L 407.082214 425.275161 
L 407.743425 425.2137 
L 408.074031 424.254415 
L 408.404636 425.600547 
L 408.735242 425.31011 
L 409.065847 425.236597 
L 409.396453 424.374928 
L 409.727058 424.549672 
L 410.057663 426.709269 
L 410.388269 426.67673 
L 410.718874 426.144062 
L 411.04948 424.620775 
L 411.380085 427.070808 
L 411.710691 427.121424 
L 412.041296 426.822551 
L 412.371901 425.884958 
L 412.702507 424.460492 
L 413.033112 425.853625 
L 413.363718 424.885904 
L 413.694323 425.157058 
L 414.024929 424.5328 
L 414.355534 426.212754 
L 414.68614 425.912676 
L 415.016745 425.447495 
L 415.34735 424.565339 
L 415.677956 430.00651 
L 416.008561 430.584973 
L 416.339167 430.92 
L 417.000378 425.337828 
L 417.330983 427.737246 
L 417.992194 424.737673 
L 418.322799 429.197866 
L 418.653405 429.221969 
L 418.98401 428.286786 
L 419.314616 427.793887 
L 419.645221 427.581784 
L 419.975827 426.051266 
L 420.306432 425.94883 
L 420.637038 426.294703 
L 420.967643 425.752394 
L 421.298248 424.756955 
L 421.959459 428.014427 
L 422.290065 427.685426 
L 422.62067 427.17927 
L 422.951276 426.260959 
L 423.281881 428.580839 
L 423.612487 427.716759 
L 423.943092 427.267245 
L 424.273697 425.830727 
L 424.604303 425.875317 
L 424.934908 426.897269 
L 425.265514 426.545371 
L 425.596119 426.482704 
L 425.926725 425.747573 
L 426.25733 428.629044 
L 426.918541 429.073738 
L 427.249146 427.262424 
L 427.579752 427.899939 
L 427.910357 427.984298 
L 428.240963 427.552861 
L 428.571568 427.309424 
L 428.902174 426.481499 
L 429.232779 428.106017 
L 429.563385 427.558887 
L 429.89399 425.44388 
L 430.224595 425.212495 
L 430.555201 425.666829 
L 430.885806 427.110578 
L 431.216412 427.081654 
L 431.547017 427.382937 
L 431.877623 426.576704 
L 432.208228 428.685685 
L 432.538834 428.099991 
L 432.869439 428.445864 
L 433.200044 427.262424 
L 433.53065 426.664679 
L 433.861255 428.157837 
L 434.522466 427.480553 
L 434.853072 426.565858 
L 435.183677 429.782355 
L 435.514283 430.020971 
L 435.844888 429.945048 
L 436.175493 427.222655 
L 436.506099 425.546316 
L 436.836704 426.999705 
L 437.16731 426.324831 
L 437.497915 426.324831 
L 437.828521 425.342649 
L 438.159126 426.257344 
L 438.489732 426.614063 
L 438.820337 426.736987 
L 439.150942 425.786137 
L 439.812153 427.361245 
L 440.142759 427.487784 
L 440.473364 427.225065 
L 440.80397 426.148882 
L 441.134575 427.229886 
L 441.465181 427.574553 
L 441.795786 426.924987 
L 442.126391 425.688522 
L 442.456997 426.633345 
L 442.787602 428.031298 
L 443.118208 428.390428 
L 443.448813 428.127709 
L 443.779419 426.882808 
L 444.110024 427.615528 
L 444.44063 427.750503 
L 444.771235 427.275681 
L 445.10184 426.300729 
L 445.432446 427.394989 
L 445.763051 427.826426 
L 446.093657 427.292553 
L 446.424262 427.644451 
L 446.754868 425.402905 
L 447.085473 426.981628 
L 447.746684 425.373982 
L 448.077289 424.179696 
L 448.407895 424.106183 
L 448.7385 425.372777 
L 449.069106 424.417107 
L 449.399711 424.162825 
L 449.730317 423.43854 
L 450.060922 424.937724 
L 450.391527 424.771416 
L 450.722133 425.007622 
L 451.052738 423.645823 
L 451.383344 423.534951 
L 451.713949 427.026218 
L 452.37516 425.21852 
L 453.036371 421.669406 
L 453.366976 421.515149 
L 453.697582 421.676637 
L 454.028187 419.938837 
L 454.358793 420.563095 
L 454.689398 422.029741 
L 455.020004 421.264482 
L 455.350609 421.145174 
L 455.681215 420.623352 
L 456.01182 423.21318 
L 456.342425 423.254155 
L 456.673031 422.077946 
L 457.003636 421.471765 
L 457.334242 422.613025 
L 457.664847 422.52746 
L 457.995453 426.445345 
L 458.656664 425.530649 
L 458.987269 422.089997 
L 459.64848 420.70289 
L 459.979085 420.33412 
L 460.309691 420.306402 
L 460.640296 422.353921 
L 460.970902 422.496127 
L 461.301507 423.486745 
L 461.632113 422.355126 
L 462.293323 425.416162 
L 462.623929 425.414957 
L 462.954534 423.638592 
L 463.28514 423.883234 
L 463.615745 424.999186 
L 464.607562 423.925414 
L 464.938167 425.404111 
L 465.268772 425.300469 
L 465.599378 424.754544 
L 465.929983 423.718131 
L 466.260589 425.22093 
L 466.591194 425.869292 
L 466.9218 424.841314 
L 467.252405 424.612339 
L 467.583011 423.674746 
L 467.913616 424.57739 
L 468.244221 424.435184 
L 468.574827 424.585826 
L 468.905432 423.672336 
L 469.236038 423.402386 
L 469.566643 425.205264 
L 470.55846 420.692044 
L 470.889065 422.376819 
L 471.550276 421.982741 
L 471.880881 420.338941 
L 472.542092 421.75256 
L 472.872698 421.65615 
L 473.203303 421.780278 
L 473.533909 419.882195 
L 473.864514 421.965869 
L 474.195119 421.619996 
L 474.85633 420.046093 
L 475.186936 419.004859 
L 475.517541 419.354348 
L 475.848147 419.359168 
L 476.178752 418.82891 
L 476.509358 417.903369 
L 476.839963 418.851808 
L 477.170568 418.624038 
L 477.501174 418.789141 
L 477.831779 417.652701 
L 478.162385 418.484242 
L 478.49299 420.74748 
L 478.823596 423.926619 
L 479.154201 423.826593 
L 479.484807 423.16136 
L 479.815412 424.80998 
L 480.146017 421.951407 
L 480.476623 421.688688 
L 480.807228 420.910173 
L 481.137834 418.581858 
L 481.468439 419.444733 
L 481.799045 419.33386 
L 482.12965 418.378191 
L 482.460256 416.829596 
L 482.790861 418.990398 
L 483.121466 419.491733 
L 483.452072 418.310703 
L 483.782677 417.622573 
L 484.113283 417.710548 
L 484.443888 420.555864 
L 484.774494 419.372425 
L 485.105099 420.060555 
L 485.435704 418.987987 
L 485.76631 421.228328 
L 486.096915 421.436816 
L 486.427521 421.327149 
L 486.758126 419.753246 
L 487.088732 419.261552 
L 487.419337 419.355553 
L 487.749943 419.147065 
L 488.411153 417.712958 
L 488.741759 420.319658 
L 489.072364 419.752041 
L 489.40297 419.585733 
L 489.733575 418.291421 
L 490.064181 418.067267 
L 490.394786 420.335325 
L 490.725392 418.78673 
L 491.055997 419.391707 
L 491.386602 418.092574 
L 491.717208 420.052119 
L 492.047813 419.529092 
L 493.03963 415.796798 
L 493.370235 416.372851 
L 494.031446 415.675079 
L 494.362051 414.966462 
L 494.692657 415.388258 
L 495.023262 417.039289 
L 495.353868 417.041699 
L 495.684473 416.125799 
L 496.345684 413.332303 
L 496.67629 412.700814 
L 497.006895 410.918423 
L 497.3375 411.34986 
L 497.668106 410.943731 
L 497.998711 412.089812 
L 498.659922 412.064504 
L 498.990528 410.771397 
L 499.321133 412.359761 
L 499.982344 412.822532 
L 500.312949 410.536396 
L 500.643555 415.961901 
L 500.97416 417.793702 
L 501.304766 417.04652 
L 501.635371 413.484149 
L 501.965977 411.916273 
L 502.296582 411.651144 
L 502.627188 411.598118 
L 502.957793 410.783448 
L 503.288398 411.628246 
L 503.619004 414.897769 
L 503.949609 412.43689 
L 504.280215 411.888555 
L 504.61082 410.762961 
L 504.941426 410.195344 
L 505.272031 411.517374 
L 505.602637 411.308886 
L 505.933242 410.021805 
L 506.263847 409.450572 
L 506.594453 410.274883 
L 506.925058 412.097042 
L 507.255664 411.962068 
L 507.586269 411.966888 
L 507.916875 410.761756 
L 508.24748 412.421223 
L 508.578086 412.383864 
L 508.908691 412.471838 
L 509.239296 411.552323 
L 509.569902 411.184757 
L 509.900507 412.843019 
L 510.231113 412.57307 
L 510.561718 412.553787 
L 510.892324 411.898196 
L 511.222929 411.680067 
L 511.88414 411.8054 
L 512.214745 410.970244 
L 512.875956 412.185017 
L 513.206562 411.680067 
L 513.867773 409.765112 
L 514.198378 412.538121 
L 514.528984 411.636682 
L 514.859589 411.069065 
L 515.190194 409.690394 
L 515.5208 409.587957 
L 515.851405 409.726548 
L 516.182011 408.722673 
L 516.512616 408.257492 
L 516.843222 406.600435 
L 517.173827 407.96826 
L 517.504433 407.56213 
L 517.835038 407.773029 
L 518.165643 406.182254 
L 518.496249 407.882696 
L 519.15746 407.163232 
L 519.488065 404.213068 
L 519.818671 403.44781 
L 520.149276 404.427582 
L 520.479882 404.515557 
L 520.810487 404.010606 
L 521.141092 402.801859 
L 521.471698 403.234501 
L 521.802303 404.798763 
L 522.463514 404.454095 
L 522.79412 403.828631 
L 523.124725 405.237431 
L 523.45533 404.820455 
L 523.785936 404.716814 
L 524.116541 403.67558 
L 524.447147 404.707173 
L 525.769569 401.428008 
L 526.100174 403.085065 
L 526.430779 403.352604 
L 526.761385 402.278831 
L 527.422596 401.295444 
L 527.753201 402.836808 
L 528.083807 402.864526 
L 528.414412 402.664474 
L 528.745018 401.441265 
L 529.075623 404.197402 
L 529.406228 404.432402 
L 530.067439 403.145321 
L 530.398045 403.54181 
L 530.72865 404.357684 
L 531.059256 403.900939 
L 531.389861 403.702092 
L 531.720467 402.363191 
L 532.051072 404.721634 
L 532.381677 404.854199 
L 532.712283 404.391428 
L 533.042888 403.508066 
L 533.373494 402.974193 
L 533.704099 403.45504 
L 534.034705 403.393579 
L 534.36531 402.800654 
L 534.695916 401.816061 
L 535.026521 402.894654 
L 535.357126 402.703038 
L 535.687732 401.702778 
L 536.018337 401.579855 
L 536.348943 402.605422 
L 536.679548 404.110632 
L 537.010154 404.122684 
L 537.340759 403.31886 
L 537.671365 401.975138 
L 538.00197 402.686166 
L 538.332575 402.03901 
L 538.663181 401.129136 
L 538.993786 399.533541 
L 539.654997 400.279517 
L 539.985603 400.086696 
L 540.316208 399.426284 
L 540.646814 398.268152 
L 541.308024 398.107869 
L 541.63863 395.978401 
L 541.969235 395.575887 
L 542.299841 395.349322 
L 542.630446 396.077222 
L 542.961052 399.650438 
L 543.291657 400.172261 
L 543.622263 399.170796 
L 543.952868 401.07611 
L 544.283473 398.142818 
L 544.614079 397.601714 
L 544.944684 396.452018 
L 545.27529 396.361633 
L 545.605895 396.438762 
L 545.936501 396.653275 
L 546.267106 395.478271 
L 546.597712 394.852808 
L 546.928317 395.843426 
L 547.258922 395.242065 
L 547.589528 393.470521 
L 547.920133 392.723339 
L 548.581344 394.737115 
L 548.91195 394.32255 
L 549.242555 394.468371 
L 549.573161 393.298187 
L 549.903766 393.880266 
L 550.234371 393.879061 
L 550.564977 393.600676 
L 550.895582 392.618493 
L 551.556793 395.413194 
L 551.887399 394.851603 
L 552.54861 392.825776 
L 552.879215 395.726528 
L 553.20982 396.130248 
L 553.871031 393.954984 
L 554.532242 394.499704 
L 555.193453 393.710343 
L 555.524059 392.684775 
L 555.854664 395.085398 
L 556.185269 394.950423 
L 556.515875 394.480422 
L 556.84648 393.040289 
L 557.177086 394.071882 
L 557.838297 394.69373 
L 558.499507 392.63898 
L 558.830113 394.790141 
L 559.160718 395.114321 
L 559.491324 394.938372 
L 559.821929 393.78024 
L 560.48314 393.857369 
L 561.474956 389.441765 
L 561.805562 389.985279 
L 562.136167 390.098562 
L 562.466773 389.99251 
L 562.797378 388.963327 
L 563.127984 389.671945 
L 563.458589 391.853234 
L 563.789195 391.553156 
L 564.450405 388.282428 
L 564.781011 388.058273 
L 565.111616 387.535246 
L 565.442222 386.046908 
L 565.772827 385.698625 
L 566.434038 387.908837 
L 567.095249 387.996811 
L 567.425854 386.645858 
L 567.75646 387.438835 
L 568.087065 387.690708 
L 568.748276 386.543422 
L 569.078882 387.793144 
L 570.401303 384.909263 
L 570.731909 386.742269 
L 571.062514 385.742009 
L 571.723725 384.638108 
L 572.384936 385.732368 
L 572.715542 385.822753 
L 573.046147 385.397342 
L 573.376752 384.527236 
L 573.707358 386.995347 
L 574.037963 387.302655 
L 574.368569 387.406297 
L 574.699174 386.406037 
L 575.02978 386.369883 
L 575.360385 386.851936 
L 575.690991 386.367473 
L 576.021596 386.485576 
L 576.352201 385.481701 
L 576.682807 386.644653 
L 577.344018 385.070751 
L 577.674623 385.331059 
L 578.005229 383.354643 
L 578.335834 385.504598 
L 578.66644 385.405778 
L 578.997045 386.043292 
L 579.32765 385.161136 
L 579.658256 386.603679 
L 579.988861 386.584397 
L 580.319467 386.255396 
L 580.650072 385.098469 
L 580.980678 385.970984 
L 581.311283 387.597913 
L 581.641889 386.895321 
L 581.972494 386.494012 
L 582.303099 385.672112 
L 582.633705 385.78901 
L 583.294916 385.206931 
L 583.625521 383.510105 
L 583.956127 383.431771 
L 584.286732 384.947827 
L 584.617338 384.238005 
L 584.947943 384.089773 
L 585.278548 381.013071 
L 585.609154 386.790474 
L 585.939759 387.201424 
L 586.270365 386.38314 
L 586.60097 381.404739 
L 586.931576 381.484278 
L 587.262181 382.286896 
L 587.592787 381.140815 
L 587.923392 379.170424 
L 588.253997 378.464217 
L 588.584603 385.56606 
L 588.915208 381.622868 
L 589.245814 381.319175 
L 589.576419 380.069453 
L 589.907025 380.020042 
L 590.23763 380.837122 
L 590.568236 380.523788 
L 590.898841 380.520172 
L 591.229446 379.718759 
L 591.560052 380.415326 
L 591.890657 380.340607 
L 592.551868 377.956856 
L 592.882474 378.54255 
L 593.213079 383.658336 
L 593.543685 382.725564 
L 593.87429 382.82318 
L 594.204895 382.109741 
L 594.866106 378.81009 
L 595.527317 377.242213 
L 595.857923 377.767651 
L 596.188528 379.033039 
L 596.849739 379.099321 
L 597.180344 378.394319 
L 597.51095 380.67925 
L 598.172161 379.952555 
L 598.502766 383.294386 
L 598.833372 383.5559 
L 599.163977 382.536358 
L 599.494582 382.183254 
L 599.825188 379.428323 
L 600.155793 377.758009 
L 600.486399 380.41171 
L 600.817004 379.187296 
L 601.14761 379.105347 
L 601.478215 377.659189 
L 601.808821 377.67365 
L 602.139426 378.638961 
L 602.470031 378.845039 
L 603.131242 377.717035 
L 603.461848 379.973042 
L 603.792453 379.354809 
L 604.123059 379.22586 
L 604.453664 378.17137 
L 604.78427 377.836343 
L 605.114875 380.070658 
L 605.776086 378.747423 
L 606.106691 376.605903 
L 606.437297 377.090366 
L 607.098508 375.428489 
L 607.429113 374.746384 
L 607.759719 373.752151 
L 608.090324 374.361947 
L 608.420929 373.267687 
L 608.751535 373.143559 
L 609.08214 371.821529 
L 609.412746 373.684663 
L 609.743351 373.260457 
L 610.073957 372.51448 
L 610.404562 371.012885 
L 610.735168 370.809218 
L 611.065773 372.066171 
L 611.396378 371.745606 
L 611.726984 371.756452 
L 612.057589 370.347652 
L 612.388195 371.593759 
L 613.049406 372.466275 
L 613.380011 371.063501 
L 613.710617 371.255117 
L 614.041222 373.070046 
L 614.371827 372.854327 
L 614.702433 371.002039 
L 615.033038 370.233165 
L 615.694249 370.228344 
L 616.024855 370.593499 
L 616.35546 370.674243 
L 616.686066 369.766779 
L 617.016671 370.215088 
L 617.347276 370.198216 
L 617.677882 369.799317 
L 618.008487 368.805083 
L 618.339093 371.405758 
L 618.669698 370.973116 
L 619.000304 370.879116 
L 619.330909 369.626983 
L 619.330909 369.626983 
" style="fill:none;stroke:#1f77b4;stroke-linecap:square;stroke-width:1.5;"/>
   </g>
   <g id="patch_3">
    <path d="M 108 448.56 
L 108 60.48 
" style="fill:none;stroke:#000000;stroke-linecap:square;stroke-linejoin:miter;stroke-width:0.8;"/>
   </g>
   <g id="patch_4">
    <path d="M 643.68 448.56 
L 643.68 60.48 
" style="fill:none;stroke:#000000;stroke-linecap:square;stroke-linejoin:miter;stroke-width:0.8;"/>
   </g>
   <g id="patch_5">
    <path d="M 108 448.56 
L 643.68 448.56 
" style="fill:none;stroke:#000000;stroke-linecap:square;stroke-linejoin:miter;stroke-width:0.8;"/>
   </g>
   <g id="patch_6">
    <path d="M 108 60.48 
L 643.68 60.48 
" style="fill:none;stroke:#000000;stroke-linecap:square;stroke-linejoin:miter;stroke-width:0.8;"/>
   </g>
   <g id="text_30">
    <!-- unikernel_dce-allocpool - free -->
    <g transform="translate(265.448203 54.48)scale(0.15 -0.15)">
     <defs>
      <path d="M 8.5 21.578125 
L 8.5 54.6875 
L 17.484375 54.6875 
L 17.484375 21.921875 
Q 17.484375 14.15625 20.5 10.265625 
Q 23.53125 6.390625 29.59375 6.390625 
Q 36.859375 6.390625 41.078125 11.03125 
Q 45.3125 15.671875 45.3125 23.6875 
L 45.3125 54.6875 
L 54.296875 54.6875 
L 54.296875 0 
L 45.3125 0 
L 45.3125 8.40625 
Q 42.046875 3.421875 37.71875 1 
Q 33.40625 -1.421875 27.6875 -1.421875 
Q 18.265625 -1.421875 13.375 4.4375 
Q 8.5 10.296875 8.5 21.578125 
z
M 31.109375 56 
z
" id="DejaVuSans-117"/>
      <path d="M 54.890625 33.015625 
L 54.890625 0 
L 45.90625 0 
L 45.90625 32.71875 
Q 45.90625 40.484375 42.875 44.328125 
Q 39.84375 48.1875 33.796875 48.1875 
Q 26.515625 48.1875 22.3125 43.546875 
Q 18.109375 38.921875 18.109375 30.90625 
L 18.109375 0 
L 9.078125 0 
L 9.078125 54.6875 
L 18.109375 54.6875 
L 18.109375 46.1875 
Q 21.34375 51.125 25.703125 53.5625 
Q 30.078125 56 35.796875 56 
Q 45.21875 56 50.046875 50.171875 
Q 54.890625 44.34375 54.890625 33.015625 
z
" id="DejaVuSans-110"/>
      <path d="M 9.078125 75.984375 
L 18.109375 75.984375 
L 18.109375 31.109375 
L 44.921875 54.6875 
L 56.390625 54.6875 
L 27.390625 29.109375 
L 57.625 0 
L 45.90625 0 
L 18.109375 26.703125 
L 18.109375 0 
L 9.078125 0 
z
" id="DejaVuSans-107"/>
      <path d="M 41.109375 46.296875 
Q 39.59375 47.171875 37.8125 47.578125 
Q 36.03125 48 33.890625 48 
Q 26.265625 48 22.1875 43.046875 
Q 18.109375 38.09375 18.109375 28.8125 
L 18.109375 0 
L 9.078125 0 
L 9.078125 54.6875 
L 18.109375 54.6875 
L 18.109375 46.1875 
Q 20.953125 51.171875 25.484375 53.578125 
Q 30.03125 56 36.53125 56 
Q 37.453125 56 38.578125 55.875 
Q 39.703125 55.765625 41.0625 55.515625 
z
" id="DejaVuSans-114"/>
      <path d="M 9.421875 75.984375 
L 18.40625 75.984375 
L 18.40625 0 
L 9.421875 0 
z
" id="DejaVuSans-108"/>
      <path d="M 50.984375 -16.609375 
L 50.984375 -23.578125 
L -0.984375 -23.578125 
L -0.984375 -16.609375 
z
" id="DejaVuSans-95"/>
      <path d="M 45.40625 46.390625 
L 45.40625 75.984375 
L 54.390625 75.984375 
L 54.390625 0 
L 45.40625 0 
L 45.40625 8.203125 
Q 42.578125 3.328125 38.25 0.953125 
Q 33.9375 -1.421875 27.875 -1.421875 
Q 17.96875 -1.421875 11.734375 6.484375 
Q 5.515625 14.40625 5.515625 27.296875 
Q 5.515625 40.1875 11.734375 48.09375 
Q 17.96875 56 27.875 56 
Q 33.9375 56 38.25 53.625 
Q 42.578125 51.265625 45.40625 46.390625 
z
M 14.796875 27.296875 
Q 14.796875 17.390625 18.875 11.75 
Q 22.953125 6.109375 30.078125 6.109375 
Q 37.203125 6.109375 41.296875 11.75 
Q 45.40625 17.390625 45.40625 27.296875 
Q 45.40625 37.203125 41.296875 42.84375 
Q 37.203125 48.484375 30.078125 48.484375 
Q 22.953125 48.484375 18.875 42.84375 
Q 14.796875 37.203125 14.796875 27.296875 
z
" id="DejaVuSans-100"/>
      <path d="M 48.78125 52.59375 
L 48.78125 44.1875 
Q 44.96875 46.296875 41.140625 47.34375 
Q 37.3125 48.390625 33.40625 48.390625 
Q 24.65625 48.390625 19.8125 42.84375 
Q 14.984375 37.3125 14.984375 27.296875 
Q 14.984375 17.28125 19.8125 11.734375 
Q 24.65625 6.203125 33.40625 6.203125 
Q 37.3125 6.203125 41.140625 7.25 
Q 44.96875 8.296875 48.78125 10.40625 
L 48.78125 2.09375 
Q 45.015625 0.34375 40.984375 -0.53125 
Q 36.96875 -1.421875 32.421875 -1.421875 
Q 20.0625 -1.421875 12.78125 6.34375 
Q 5.515625 14.109375 5.515625 27.296875 
Q 5.515625 40.671875 12.859375 48.328125 
Q 20.21875 56 33.015625 56 
Q 37.15625 56 41.109375 55.140625 
Q 45.0625 54.296875 48.78125 52.59375 
z
" id="DejaVuSans-99"/>
      <path d="M 4.890625 31.390625 
L 31.203125 31.390625 
L 31.203125 23.390625 
L 4.890625 23.390625 
z
" id="DejaVuSans-45"/>
      <path d="M 30.609375 48.390625 
Q 23.390625 48.390625 19.1875 42.75 
Q 14.984375 37.109375 14.984375 27.296875 
Q 14.984375 17.484375 19.15625 11.84375 
Q 23.34375 6.203125 30.609375 6.203125 
Q 37.796875 6.203125 41.984375 11.859375 
Q 46.1875 17.53125 46.1875 27.296875 
Q 46.1875 37.015625 41.984375 42.703125 
Q 37.796875 48.390625 30.609375 48.390625 
z
M 30.609375 56 
Q 42.328125 56 49.015625 48.375 
Q 55.71875 40.765625 55.71875 27.296875 
Q 55.71875 13.875 49.015625 6.21875 
Q 42.328125 -1.421875 30.609375 -1.421875 
Q 18.84375 -1.421875 12.171875 6.21875 
Q 5.515625 13.875 5.515625 27.296875 
Q 5.515625 40.765625 12.171875 48.375 
Q 18.84375 56 30.609375 56 
z
" id="DejaVuSans-111"/>
      <path id="DejaVuSans-32"/>
      <path d="M 37.109375 75.984375 
L 37.109375 68.5 
L 28.515625 68.5 
Q 23.6875 68.5 21.796875 66.546875 
Q 19.921875 64.59375 19.921875 59.515625 
L 19.921875 54.6875 
L 34.71875 54.6875 
L 34.71875 47.703125 
L 19.921875 47.703125 
L 19.921875 0 
L 10.890625 0 
L 10.890625 47.703125 
L 2.296875 47.703125 
L 2.296875 54.6875 
L 10.890625 54.6875 
L 10.890625 58.5 
Q 10.890625 67.625 15.140625 71.796875 
Q 19.390625 75.984375 28.609375 75.984375 
z
" id="DejaVuSans-102"/>
     </defs>
     <use xlink:href="#DejaVuSans-117"/>
     <use x="63.378906" xlink:href="#DejaVuSans-110"/>
     <use x="126.757812" xlink:href="#DejaVuSans-105"/>
     <use x="154.541016" xlink:href="#DejaVuSans-107"/>
     <use x="208.826172" xlink:href="#DejaVuSans-101"/>
     <use x="270.349609" xlink:href="#DejaVuSans-114"/>
     <use x="309.712891" xlink:href="#DejaVuSans-110"/>
     <use x="373.091797" xlink:href="#DejaVuSans-101"/>
     <use x="434.615234" xlink:href="#DejaVuSans-108"/>
     <use x="462.398438" xlink:href="#DejaVuSans-95"/>
     <use x="512.398438" xlink:href="#DejaVuSans-100"/>
     <use x="575.875" xlink:href="#DejaVuSans-99"/>
     <use x="630.855469" xlink:href="#DejaVuSans-101"/>
     <use x="692.378906" xlink:href="#DejaVuSans-45"/>
     <use x="728.462891" xlink:href="#DejaVuSans-97"/>
     <use x="789.742188" xlink:href="#DejaVuSans-108"/>
     <use x="817.525391" xlink:href="#DejaVuSans-108"/>
     <use x="845.308594" xlink:href="#DejaVuSans-111"/>
     <use x="906.490234" xlink:href="#DejaVuSans-99"/>
     <use x="961.470703" xlink:href="#DejaVuSans-112"/>
     <use x="1024.947266" xlink:href="#DejaVuSans-111"/>
     <use x="1086.128906" xlink:href="#DejaVuSans-111"/>
     <use x="1147.310547" xlink:href="#DejaVuSans-108"/>
     <use x="1175.09375" xlink:href="#DejaVuSans-32"/>
     <use x="1206.880859" xlink:href="#DejaVuSans-45"/>
     <use x="1242.964844" xlink:href="#DejaVuSans-32"/>
     <use x="1274.751953" xlink:href="#DejaVuSans-102"/>
     <use x="1309.957031" xlink:href="#DejaVuSans-114"/>
     <use x="1348.820312" xlink:href="#DejaVuSans-101"/>
     <use x="1410.34375" xlink:href="#DejaVuSans-101"/>
    </g>
   </g>
   <g id="legend_1">
    <g id="patch_7">
     <path d="M 650.68 258.52 
L 654.68 258.52 
Q 656.68 258.52 656.68 256.52 
L 656.68 252.52 
Q 656.68 250.52 654.68 250.52 
L 650.68 250.52 
Q 648.68 250.52 648.68 252.52 
L 648.68 256.52 
Q 648.68 258.52 650.68 258.52 
z
" style="fill:#ffffff;opacity:0.8;stroke:#cccccc;stroke-linejoin:miter;"/>
    </g>
   </g>
  </g>
 </g>
 <defs>
  <clipPath id="p0add0ee4f8">
   <rect height="388.08" width="535.68" x="108" y="60.48"/>
  </clipPath>
 </defs>
</svg>
