<?xml version="1.0" encoding="utf-8" standalone="no"?>
<!DOCTYPE svg PUBLIC "-//W3C//DTD SVG 1.1//EN"
  "http://www.w3.org/Graphics/SVG/1.1/DTD/svg11.dtd">
<!-- Created with matplotlib (https://matplotlib.org/) -->
<svg height="504pt" version="1.1" viewBox="0 0 864 504" width="864pt" xmlns="http://www.w3.org/2000/svg" xmlns:xlink="http://www.w3.org/1999/xlink">
 <metadata>
  <rdf:RDF xmlns:cc="http://creativecommons.org/ns#" xmlns:dc="http://purl.org/dc/elements/1.1/" xmlns:rdf="http://www.w3.org/1999/02/22-rdf-syntax-ns#">
   <cc:Work>
    <dc:type rdf:resource="http://purl.org/dc/dcmitype/StillImage"/>
    <dc:date>2022-06-15T17:06:12.369384</dc:date>
    <dc:format>image/svg+xml</dc:format>
    <dc:creator>
     <cc:Agent>
      <dc:title>Matplotlib v3.3.4, https://matplotlib.org/</dc:title>
     </cc:Agent>
    </dc:creator>
   </cc:Work>
  </rdf:RDF>
 </metadata>
 <defs>
  <style type="text/css">*{stroke-linecap:butt;stroke-linejoin:round;}</style>
 </defs>
 <g id="figure_1">
  <g id="patch_1">
   <path d="M 0 504 
L 864 504 
L 864 0 
L 0 0 
z
" style="fill:#ffffff;"/>
  </g>
  <g id="axes_1">
   <g id="patch_2">
    <path d="M 108 448.56 
L 643.68 448.56 
L 643.68 60.48 
L 108 60.48 
z
" style="fill:#ffffff;"/>
   </g>
   <g id="matplotlib.axis_1">
    <g id="xtick_1">
     <g id="line2d_1">
      <defs>
       <path d="M 0 0 
L 0 3.5 
" id="ma0095ca8f9" style="stroke:#000000;stroke-width:0.8;"/>
      </defs>
      <g>
       <use style="stroke:#000000;stroke-width:0.8;" x="132.020049" xlink:href="#ma0095ca8f9" y="448.56"/>
      </g>
     </g>
     <g id="text_1">
      <!-- 0 -->
      <g transform="translate(128.838799 463.158437)scale(0.1 -0.1)">
       <defs>
        <path d="M 31.78125 66.40625 
Q 24.171875 66.40625 20.328125 58.90625 
Q 16.5 51.421875 16.5 36.375 
Q 16.5 21.390625 20.328125 13.890625 
Q 24.171875 6.390625 31.78125 6.390625 
Q 39.453125 6.390625 43.28125 13.890625 
Q 47.125 21.390625 47.125 36.375 
Q 47.125 51.421875 43.28125 58.90625 
Q 39.453125 66.40625 31.78125 66.40625 
z
M 31.78125 74.21875 
Q 44.046875 74.21875 50.515625 64.515625 
Q 56.984375 54.828125 56.984375 36.375 
Q 56.984375 17.96875 50.515625 8.265625 
Q 44.046875 -1.421875 31.78125 -1.421875 
Q 19.53125 -1.421875 13.0625 8.265625 
Q 6.59375 17.96875 6.59375 36.375 
Q 6.59375 54.828125 13.0625 64.515625 
Q 19.53125 74.21875 31.78125 74.21875 
z
" id="DejaVuSans-48"/>
       </defs>
       <use xlink:href="#DejaVuSans-48"/>
      </g>
     </g>
    </g>
    <g id="xtick_2">
     <g id="line2d_2">
      <g>
       <use style="stroke:#000000;stroke-width:0.8;" x="197.828403" xlink:href="#ma0095ca8f9" y="448.56"/>
      </g>
     </g>
     <g id="text_2">
      <!-- 200 -->
      <g transform="translate(188.284653 463.158437)scale(0.1 -0.1)">
       <defs>
        <path d="M 19.1875 8.296875 
L 53.609375 8.296875 
L 53.609375 0 
L 7.328125 0 
L 7.328125 8.296875 
Q 12.9375 14.109375 22.625 23.890625 
Q 32.328125 33.6875 34.8125 36.53125 
Q 39.546875 41.84375 41.421875 45.53125 
Q 43.3125 49.21875 43.3125 52.78125 
Q 43.3125 58.59375 39.234375 62.25 
Q 35.15625 65.921875 28.609375 65.921875 
Q 23.96875 65.921875 18.8125 64.3125 
Q 13.671875 62.703125 7.8125 59.421875 
L 7.8125 69.390625 
Q 13.765625 71.78125 18.9375 73 
Q 24.125 74.21875 28.421875 74.21875 
Q 39.75 74.21875 46.484375 68.546875 
Q 53.21875 62.890625 53.21875 53.421875 
Q 53.21875 48.921875 51.53125 44.890625 
Q 49.859375 40.875 45.40625 35.40625 
Q 44.1875 33.984375 37.640625 27.21875 
Q 31.109375 20.453125 19.1875 8.296875 
z
" id="DejaVuSans-50"/>
       </defs>
       <use xlink:href="#DejaVuSans-50"/>
       <use x="63.623047" xlink:href="#DejaVuSans-48"/>
       <use x="127.246094" xlink:href="#DejaVuSans-48"/>
      </g>
     </g>
    </g>
    <g id="xtick_3">
     <g id="line2d_3">
      <g>
       <use style="stroke:#000000;stroke-width:0.8;" x="263.636757" xlink:href="#ma0095ca8f9" y="448.56"/>
      </g>
     </g>
     <g id="text_3">
      <!-- 400 -->
      <g transform="translate(254.093007 463.158437)scale(0.1 -0.1)">
       <defs>
        <path d="M 37.796875 64.3125 
L 12.890625 25.390625 
L 37.796875 25.390625 
z
M 35.203125 72.90625 
L 47.609375 72.90625 
L 47.609375 25.390625 
L 58.015625 25.390625 
L 58.015625 17.1875 
L 47.609375 17.1875 
L 47.609375 0 
L 37.796875 0 
L 37.796875 17.1875 
L 4.890625 17.1875 
L 4.890625 26.703125 
z
" id="DejaVuSans-52"/>
       </defs>
       <use xlink:href="#DejaVuSans-52"/>
       <use x="63.623047" xlink:href="#DejaVuSans-48"/>
       <use x="127.246094" xlink:href="#DejaVuSans-48"/>
      </g>
     </g>
    </g>
    <g id="xtick_4">
     <g id="line2d_4">
      <g>
       <use style="stroke:#000000;stroke-width:0.8;" x="329.445111" xlink:href="#ma0095ca8f9" y="448.56"/>
      </g>
     </g>
     <g id="text_4">
      <!-- 600 -->
      <g transform="translate(319.901361 463.158437)scale(0.1 -0.1)">
       <defs>
        <path d="M 33.015625 40.375 
Q 26.375 40.375 22.484375 35.828125 
Q 18.609375 31.296875 18.609375 23.390625 
Q 18.609375 15.53125 22.484375 10.953125 
Q 26.375 6.390625 33.015625 6.390625 
Q 39.65625 6.390625 43.53125 10.953125 
Q 47.40625 15.53125 47.40625 23.390625 
Q 47.40625 31.296875 43.53125 35.828125 
Q 39.65625 40.375 33.015625 40.375 
z
M 52.59375 71.296875 
L 52.59375 62.3125 
Q 48.875 64.0625 45.09375 64.984375 
Q 41.3125 65.921875 37.59375 65.921875 
Q 27.828125 65.921875 22.671875 59.328125 
Q 17.53125 52.734375 16.796875 39.40625 
Q 19.671875 43.65625 24.015625 45.921875 
Q 28.375 48.1875 33.59375 48.1875 
Q 44.578125 48.1875 50.953125 41.515625 
Q 57.328125 34.859375 57.328125 23.390625 
Q 57.328125 12.15625 50.6875 5.359375 
Q 44.046875 -1.421875 33.015625 -1.421875 
Q 20.359375 -1.421875 13.671875 8.265625 
Q 6.984375 17.96875 6.984375 36.375 
Q 6.984375 53.65625 15.1875 63.9375 
Q 23.390625 74.21875 37.203125 74.21875 
Q 40.921875 74.21875 44.703125 73.484375 
Q 48.484375 72.75 52.59375 71.296875 
z
" id="DejaVuSans-54"/>
       </defs>
       <use xlink:href="#DejaVuSans-54"/>
       <use x="63.623047" xlink:href="#DejaVuSans-48"/>
       <use x="127.246094" xlink:href="#DejaVuSans-48"/>
      </g>
     </g>
    </g>
    <g id="xtick_5">
     <g id="line2d_5">
      <g>
       <use style="stroke:#000000;stroke-width:0.8;" x="395.253464" xlink:href="#ma0095ca8f9" y="448.56"/>
      </g>
     </g>
     <g id="text_5">
      <!-- 800 -->
      <g transform="translate(385.709714 463.158437)scale(0.1 -0.1)">
       <defs>
        <path d="M 31.78125 34.625 
Q 24.75 34.625 20.71875 30.859375 
Q 16.703125 27.09375 16.703125 20.515625 
Q 16.703125 13.921875 20.71875 10.15625 
Q 24.75 6.390625 31.78125 6.390625 
Q 38.8125 6.390625 42.859375 10.171875 
Q 46.921875 13.96875 46.921875 20.515625 
Q 46.921875 27.09375 42.890625 30.859375 
Q 38.875 34.625 31.78125 34.625 
z
M 21.921875 38.8125 
Q 15.578125 40.375 12.03125 44.71875 
Q 8.5 49.078125 8.5 55.328125 
Q 8.5 64.0625 14.71875 69.140625 
Q 20.953125 74.21875 31.78125 74.21875 
Q 42.671875 74.21875 48.875 69.140625 
Q 55.078125 64.0625 55.078125 55.328125 
Q 55.078125 49.078125 51.53125 44.71875 
Q 48 40.375 41.703125 38.8125 
Q 48.828125 37.15625 52.796875 32.3125 
Q 56.78125 27.484375 56.78125 20.515625 
Q 56.78125 9.90625 50.3125 4.234375 
Q 43.84375 -1.421875 31.78125 -1.421875 
Q 19.734375 -1.421875 13.25 4.234375 
Q 6.78125 9.90625 6.78125 20.515625 
Q 6.78125 27.484375 10.78125 32.3125 
Q 14.796875 37.15625 21.921875 38.8125 
z
M 18.3125 54.390625 
Q 18.3125 48.734375 21.84375 45.5625 
Q 25.390625 42.390625 31.78125 42.390625 
Q 38.140625 42.390625 41.71875 45.5625 
Q 45.3125 48.734375 45.3125 54.390625 
Q 45.3125 60.0625 41.71875 63.234375 
Q 38.140625 66.40625 31.78125 66.40625 
Q 25.390625 66.40625 21.84375 63.234375 
Q 18.3125 60.0625 18.3125 54.390625 
z
" id="DejaVuSans-56"/>
       </defs>
       <use xlink:href="#DejaVuSans-56"/>
       <use x="63.623047" xlink:href="#DejaVuSans-48"/>
       <use x="127.246094" xlink:href="#DejaVuSans-48"/>
      </g>
     </g>
    </g>
    <g id="xtick_6">
     <g id="line2d_6">
      <g>
       <use style="stroke:#000000;stroke-width:0.8;" x="461.061818" xlink:href="#ma0095ca8f9" y="448.56"/>
      </g>
     </g>
     <g id="text_6">
      <!-- 1000 -->
      <g transform="translate(448.336818 463.158437)scale(0.1 -0.1)">
       <defs>
        <path d="M 12.40625 8.296875 
L 28.515625 8.296875 
L 28.515625 63.921875 
L 10.984375 60.40625 
L 10.984375 69.390625 
L 28.421875 72.90625 
L 38.28125 72.90625 
L 38.28125 8.296875 
L 54.390625 8.296875 
L 54.390625 0 
L 12.40625 0 
z
" id="DejaVuSans-49"/>
       </defs>
       <use xlink:href="#DejaVuSans-49"/>
       <use x="63.623047" xlink:href="#DejaVuSans-48"/>
       <use x="127.246094" xlink:href="#DejaVuSans-48"/>
       <use x="190.869141" xlink:href="#DejaVuSans-48"/>
      </g>
     </g>
    </g>
    <g id="xtick_7">
     <g id="line2d_7">
      <g>
       <use style="stroke:#000000;stroke-width:0.8;" x="526.870172" xlink:href="#ma0095ca8f9" y="448.56"/>
      </g>
     </g>
     <g id="text_7">
      <!-- 1200 -->
      <g transform="translate(514.145172 463.158437)scale(0.1 -0.1)">
       <use xlink:href="#DejaVuSans-49"/>
       <use x="63.623047" xlink:href="#DejaVuSans-50"/>
       <use x="127.246094" xlink:href="#DejaVuSans-48"/>
       <use x="190.869141" xlink:href="#DejaVuSans-48"/>
      </g>
     </g>
    </g>
    <g id="xtick_8">
     <g id="line2d_8">
      <g>
       <use style="stroke:#000000;stroke-width:0.8;" x="592.678526" xlink:href="#ma0095ca8f9" y="448.56"/>
      </g>
     </g>
     <g id="text_8">
      <!-- 1400 -->
      <g transform="translate(579.953526 463.158437)scale(0.1 -0.1)">
       <use xlink:href="#DejaVuSans-49"/>
       <use x="63.623047" xlink:href="#DejaVuSans-52"/>
       <use x="127.246094" xlink:href="#DejaVuSans-48"/>
       <use x="190.869141" xlink:href="#DejaVuSans-48"/>
      </g>
     </g>
    </g>
    <g id="text_9">
     <!-- timestamp -->
     <g transform="translate(354.264375 475.316875)scale(0.08 -0.08)">
      <defs>
       <path d="M 18.3125 70.21875 
L 18.3125 54.6875 
L 36.8125 54.6875 
L 36.8125 47.703125 
L 18.3125 47.703125 
L 18.3125 18.015625 
Q 18.3125 11.328125 20.140625 9.421875 
Q 21.96875 7.515625 27.59375 7.515625 
L 36.8125 7.515625 
L 36.8125 0 
L 27.59375 0 
Q 17.1875 0 13.234375 3.875 
Q 9.28125 7.765625 9.28125 18.015625 
L 9.28125 47.703125 
L 2.6875 47.703125 
L 2.6875 54.6875 
L 9.28125 54.6875 
L 9.28125 70.21875 
z
" id="DejaVuSans-116"/>
       <path d="M 9.421875 54.6875 
L 18.40625 54.6875 
L 18.40625 0 
L 9.421875 0 
z
M 9.421875 75.984375 
L 18.40625 75.984375 
L 18.40625 64.59375 
L 9.421875 64.59375 
z
" id="DejaVuSans-105"/>
       <path d="M 52 44.1875 
Q 55.375 50.25 60.0625 53.125 
Q 64.75 56 71.09375 56 
Q 79.640625 56 84.28125 50.015625 
Q 88.921875 44.046875 88.921875 33.015625 
L 88.921875 0 
L 79.890625 0 
L 79.890625 32.71875 
Q 79.890625 40.578125 77.09375 44.375 
Q 74.3125 48.1875 68.609375 48.1875 
Q 61.625 48.1875 57.5625 43.546875 
Q 53.515625 38.921875 53.515625 30.90625 
L 53.515625 0 
L 44.484375 0 
L 44.484375 32.71875 
Q 44.484375 40.625 41.703125 44.40625 
Q 38.921875 48.1875 33.109375 48.1875 
Q 26.21875 48.1875 22.15625 43.53125 
Q 18.109375 38.875 18.109375 30.90625 
L 18.109375 0 
L 9.078125 0 
L 9.078125 54.6875 
L 18.109375 54.6875 
L 18.109375 46.1875 
Q 21.1875 51.21875 25.484375 53.609375 
Q 29.78125 56 35.6875 56 
Q 41.65625 56 45.828125 52.96875 
Q 50 49.953125 52 44.1875 
z
" id="DejaVuSans-109"/>
       <path d="M 56.203125 29.59375 
L 56.203125 25.203125 
L 14.890625 25.203125 
Q 15.484375 15.921875 20.484375 11.0625 
Q 25.484375 6.203125 34.421875 6.203125 
Q 39.59375 6.203125 44.453125 7.46875 
Q 49.3125 8.734375 54.109375 11.28125 
L 54.109375 2.78125 
Q 49.265625 0.734375 44.1875 -0.34375 
Q 39.109375 -1.421875 33.890625 -1.421875 
Q 20.796875 -1.421875 13.15625 6.1875 
Q 5.515625 13.8125 5.515625 26.8125 
Q 5.515625 40.234375 12.765625 48.109375 
Q 20.015625 56 32.328125 56 
Q 43.359375 56 49.78125 48.890625 
Q 56.203125 41.796875 56.203125 29.59375 
z
M 47.21875 32.234375 
Q 47.125 39.59375 43.09375 43.984375 
Q 39.0625 48.390625 32.421875 48.390625 
Q 24.90625 48.390625 20.390625 44.140625 
Q 15.875 39.890625 15.1875 32.171875 
z
" id="DejaVuSans-101"/>
       <path d="M 44.28125 53.078125 
L 44.28125 44.578125 
Q 40.484375 46.53125 36.375 47.5 
Q 32.28125 48.484375 27.875 48.484375 
Q 21.1875 48.484375 17.84375 46.4375 
Q 14.5 44.390625 14.5 40.28125 
Q 14.5 37.15625 16.890625 35.375 
Q 19.28125 33.59375 26.515625 31.984375 
L 29.59375 31.296875 
Q 39.15625 29.25 43.1875 25.515625 
Q 47.21875 21.78125 47.21875 15.09375 
Q 47.21875 7.46875 41.1875 3.015625 
Q 35.15625 -1.421875 24.609375 -1.421875 
Q 20.21875 -1.421875 15.453125 -0.5625 
Q 10.6875 0.296875 5.421875 2 
L 5.421875 11.28125 
Q 10.40625 8.6875 15.234375 7.390625 
Q 20.0625 6.109375 24.8125 6.109375 
Q 31.15625 6.109375 34.5625 8.28125 
Q 37.984375 10.453125 37.984375 14.40625 
Q 37.984375 18.0625 35.515625 20.015625 
Q 33.0625 21.96875 24.703125 23.78125 
L 21.578125 24.515625 
Q 13.234375 26.265625 9.515625 29.90625 
Q 5.8125 33.546875 5.8125 39.890625 
Q 5.8125 47.609375 11.28125 51.796875 
Q 16.75 56 26.8125 56 
Q 31.78125 56 36.171875 55.265625 
Q 40.578125 54.546875 44.28125 53.078125 
z
" id="DejaVuSans-115"/>
       <path d="M 34.28125 27.484375 
Q 23.390625 27.484375 19.1875 25 
Q 14.984375 22.515625 14.984375 16.5 
Q 14.984375 11.71875 18.140625 8.90625 
Q 21.296875 6.109375 26.703125 6.109375 
Q 34.1875 6.109375 38.703125 11.40625 
Q 43.21875 16.703125 43.21875 25.484375 
L 43.21875 27.484375 
z
M 52.203125 31.203125 
L 52.203125 0 
L 43.21875 0 
L 43.21875 8.296875 
Q 40.140625 3.328125 35.546875 0.953125 
Q 30.953125 -1.421875 24.3125 -1.421875 
Q 15.921875 -1.421875 10.953125 3.296875 
Q 6 8.015625 6 15.921875 
Q 6 25.140625 12.171875 29.828125 
Q 18.359375 34.515625 30.609375 34.515625 
L 43.21875 34.515625 
L 43.21875 35.40625 
Q 43.21875 41.609375 39.140625 45 
Q 35.0625 48.390625 27.6875 48.390625 
Q 23 48.390625 18.546875 47.265625 
Q 14.109375 46.140625 10.015625 43.890625 
L 10.015625 52.203125 
Q 14.9375 54.109375 19.578125 55.046875 
Q 24.21875 56 28.609375 56 
Q 40.484375 56 46.34375 49.84375 
Q 52.203125 43.703125 52.203125 31.203125 
z
" id="DejaVuSans-97"/>
       <path d="M 18.109375 8.203125 
L 18.109375 -20.796875 
L 9.078125 -20.796875 
L 9.078125 54.6875 
L 18.109375 54.6875 
L 18.109375 46.390625 
Q 20.953125 51.265625 25.265625 53.625 
Q 29.59375 56 35.59375 56 
Q 45.5625 56 51.78125 48.09375 
Q 58.015625 40.1875 58.015625 27.296875 
Q 58.015625 14.40625 51.78125 6.484375 
Q 45.5625 -1.421875 35.59375 -1.421875 
Q 29.59375 -1.421875 25.265625 0.953125 
Q 20.953125 3.328125 18.109375 8.203125 
z
M 48.6875 27.296875 
Q 48.6875 37.203125 44.609375 42.84375 
Q 40.53125 48.484375 33.40625 48.484375 
Q 26.265625 48.484375 22.1875 42.84375 
Q 18.109375 37.203125 18.109375 27.296875 
Q 18.109375 17.390625 22.1875 11.75 
Q 26.265625 6.109375 33.40625 6.109375 
Q 40.53125 6.109375 44.609375 11.75 
Q 48.6875 17.390625 48.6875 27.296875 
z
" id="DejaVuSans-112"/>
      </defs>
      <use xlink:href="#DejaVuSans-116"/>
      <use x="39.208984" xlink:href="#DejaVuSans-105"/>
      <use x="66.992188" xlink:href="#DejaVuSans-109"/>
      <use x="164.404297" xlink:href="#DejaVuSans-101"/>
      <use x="225.927734" xlink:href="#DejaVuSans-115"/>
      <use x="278.027344" xlink:href="#DejaVuSans-116"/>
      <use x="317.236328" xlink:href="#DejaVuSans-97"/>
      <use x="378.515625" xlink:href="#DejaVuSans-109"/>
      <use x="475.927734" xlink:href="#DejaVuSans-112"/>
     </g>
    </g>
   </g>
   <g id="matplotlib.axis_2">
    <g id="ytick_1">
     <g id="line2d_9">
      <defs>
       <path d="M 0 0 
L -3.5 0 
" id="m216e8e1be4" style="stroke:#000000;stroke-width:0.8;"/>
      </defs>
      <g>
       <use style="stroke:#000000;stroke-width:0.8;" x="108" xlink:href="#m216e8e1be4" y="439.493915"/>
      </g>
     </g>
     <g id="text_10">
      <!-- 25.0 -->
      <g transform="translate(78.734375 443.293133)scale(0.1 -0.1)">
       <defs>
        <path d="M 10.796875 72.90625 
L 49.515625 72.90625 
L 49.515625 64.59375 
L 19.828125 64.59375 
L 19.828125 46.734375 
Q 21.96875 47.46875 24.109375 47.828125 
Q 26.265625 48.1875 28.421875 48.1875 
Q 40.625 48.1875 47.75 41.5 
Q 54.890625 34.8125 54.890625 23.390625 
Q 54.890625 11.625 47.5625 5.09375 
Q 40.234375 -1.421875 26.90625 -1.421875 
Q 22.3125 -1.421875 17.546875 -0.640625 
Q 12.796875 0.140625 7.71875 1.703125 
L 7.71875 11.625 
Q 12.109375 9.234375 16.796875 8.0625 
Q 21.484375 6.890625 26.703125 6.890625 
Q 35.15625 6.890625 40.078125 11.328125 
Q 45.015625 15.765625 45.015625 23.390625 
Q 45.015625 31 40.078125 35.4375 
Q 35.15625 39.890625 26.703125 39.890625 
Q 22.75 39.890625 18.8125 39.015625 
Q 14.890625 38.140625 10.796875 36.28125 
z
" id="DejaVuSans-53"/>
        <path d="M 10.6875 12.40625 
L 21 12.40625 
L 21 0 
L 10.6875 0 
z
" id="DejaVuSans-46"/>
       </defs>
       <use xlink:href="#DejaVuSans-50"/>
       <use x="63.623047" xlink:href="#DejaVuSans-53"/>
       <use x="127.246094" xlink:href="#DejaVuSans-46"/>
       <use x="159.033203" xlink:href="#DejaVuSans-48"/>
      </g>
     </g>
    </g>
    <g id="ytick_2">
     <g id="line2d_10">
      <g>
       <use style="stroke:#000000;stroke-width:0.8;" x="108" xlink:href="#m216e8e1be4" y="386.555357"/>
      </g>
     </g>
     <g id="text_11">
      <!-- 27.5 -->
      <g transform="translate(78.734375 390.354575)scale(0.1 -0.1)">
       <defs>
        <path d="M 8.203125 72.90625 
L 55.078125 72.90625 
L 55.078125 68.703125 
L 28.609375 0 
L 18.3125 0 
L 43.21875 64.59375 
L 8.203125 64.59375 
z
" id="DejaVuSans-55"/>
       </defs>
       <use xlink:href="#DejaVuSans-50"/>
       <use x="63.623047" xlink:href="#DejaVuSans-55"/>
       <use x="127.246094" xlink:href="#DejaVuSans-46"/>
       <use x="159.033203" xlink:href="#DejaVuSans-53"/>
      </g>
     </g>
    </g>
    <g id="ytick_3">
     <g id="line2d_11">
      <g>
       <use style="stroke:#000000;stroke-width:0.8;" x="108" xlink:href="#m216e8e1be4" y="333.616799"/>
      </g>
     </g>
     <g id="text_12">
      <!-- 30.0 -->
      <g transform="translate(78.734375 337.416017)scale(0.1 -0.1)">
       <defs>
        <path d="M 40.578125 39.3125 
Q 47.65625 37.796875 51.625 33 
Q 55.609375 28.21875 55.609375 21.1875 
Q 55.609375 10.40625 48.1875 4.484375 
Q 40.765625 -1.421875 27.09375 -1.421875 
Q 22.515625 -1.421875 17.65625 -0.515625 
Q 12.796875 0.390625 7.625 2.203125 
L 7.625 11.71875 
Q 11.71875 9.328125 16.59375 8.109375 
Q 21.484375 6.890625 26.8125 6.890625 
Q 36.078125 6.890625 40.9375 10.546875 
Q 45.796875 14.203125 45.796875 21.1875 
Q 45.796875 27.640625 41.28125 31.265625 
Q 36.765625 34.90625 28.71875 34.90625 
L 20.21875 34.90625 
L 20.21875 43.015625 
L 29.109375 43.015625 
Q 36.375 43.015625 40.234375 45.921875 
Q 44.09375 48.828125 44.09375 54.296875 
Q 44.09375 59.90625 40.109375 62.90625 
Q 36.140625 65.921875 28.71875 65.921875 
Q 24.65625 65.921875 20.015625 65.03125 
Q 15.375 64.15625 9.8125 62.3125 
L 9.8125 71.09375 
Q 15.4375 72.65625 20.34375 73.4375 
Q 25.25 74.21875 29.59375 74.21875 
Q 40.828125 74.21875 47.359375 69.109375 
Q 53.90625 64.015625 53.90625 55.328125 
Q 53.90625 49.265625 50.4375 45.09375 
Q 46.96875 40.921875 40.578125 39.3125 
z
" id="DejaVuSans-51"/>
       </defs>
       <use xlink:href="#DejaVuSans-51"/>
       <use x="63.623047" xlink:href="#DejaVuSans-48"/>
       <use x="127.246094" xlink:href="#DejaVuSans-46"/>
       <use x="159.033203" xlink:href="#DejaVuSans-48"/>
      </g>
     </g>
    </g>
    <g id="ytick_4">
     <g id="line2d_12">
      <g>
       <use style="stroke:#000000;stroke-width:0.8;" x="108" xlink:href="#m216e8e1be4" y="280.678241"/>
      </g>
     </g>
     <g id="text_13">
      <!-- 32.5 -->
      <g transform="translate(78.734375 284.47746)scale(0.1 -0.1)">
       <use xlink:href="#DejaVuSans-51"/>
       <use x="63.623047" xlink:href="#DejaVuSans-50"/>
       <use x="127.246094" xlink:href="#DejaVuSans-46"/>
       <use x="159.033203" xlink:href="#DejaVuSans-53"/>
      </g>
     </g>
    </g>
    <g id="ytick_5">
     <g id="line2d_13">
      <g>
       <use style="stroke:#000000;stroke-width:0.8;" x="108" xlink:href="#m216e8e1be4" y="227.739683"/>
      </g>
     </g>
     <g id="text_14">
      <!-- 35.0 -->
      <g transform="translate(78.734375 231.538902)scale(0.1 -0.1)">
       <use xlink:href="#DejaVuSans-51"/>
       <use x="63.623047" xlink:href="#DejaVuSans-53"/>
       <use x="127.246094" xlink:href="#DejaVuSans-46"/>
       <use x="159.033203" xlink:href="#DejaVuSans-48"/>
      </g>
     </g>
    </g>
    <g id="ytick_6">
     <g id="line2d_14">
      <g>
       <use style="stroke:#000000;stroke-width:0.8;" x="108" xlink:href="#m216e8e1be4" y="174.801125"/>
      </g>
     </g>
     <g id="text_15">
      <!-- 37.5 -->
      <g transform="translate(78.734375 178.600344)scale(0.1 -0.1)">
       <use xlink:href="#DejaVuSans-51"/>
       <use x="63.623047" xlink:href="#DejaVuSans-55"/>
       <use x="127.246094" xlink:href="#DejaVuSans-46"/>
       <use x="159.033203" xlink:href="#DejaVuSans-53"/>
      </g>
     </g>
    </g>
    <g id="ytick_7">
     <g id="line2d_15">
      <g>
       <use style="stroke:#000000;stroke-width:0.8;" x="108" xlink:href="#m216e8e1be4" y="121.862567"/>
      </g>
     </g>
     <g id="text_16">
      <!-- 40.0 -->
      <g transform="translate(78.734375 125.661786)scale(0.1 -0.1)">
       <use xlink:href="#DejaVuSans-52"/>
       <use x="63.623047" xlink:href="#DejaVuSans-48"/>
       <use x="127.246094" xlink:href="#DejaVuSans-46"/>
       <use x="159.033203" xlink:href="#DejaVuSans-48"/>
      </g>
     </g>
    </g>
    <g id="ytick_8">
     <g id="line2d_16">
      <g>
       <use style="stroke:#000000;stroke-width:0.8;" x="108" xlink:href="#m216e8e1be4" y="68.924009"/>
      </g>
     </g>
     <g id="text_17">
      <!-- 42.5 -->
      <g transform="translate(78.734375 72.723228)scale(0.1 -0.1)">
       <use xlink:href="#DejaVuSans-52"/>
       <use x="63.623047" xlink:href="#DejaVuSans-50"/>
       <use x="127.246094" xlink:href="#DejaVuSans-46"/>
       <use x="159.033203" xlink:href="#DejaVuSans-53"/>
      </g>
     </g>
    </g>
    <g id="text_18">
     <!-- MB -->
     <g transform="translate(73.070625 260.715625)rotate(-90)scale(0.08 -0.08)">
      <defs>
       <path d="M 9.8125 72.90625 
L 24.515625 72.90625 
L 43.109375 23.296875 
L 61.8125 72.90625 
L 76.515625 72.90625 
L 76.515625 0 
L 66.890625 0 
L 66.890625 64.015625 
L 48.09375 14.015625 
L 38.1875 14.015625 
L 19.390625 64.015625 
L 19.390625 0 
L 9.8125 0 
z
" id="DejaVuSans-77"/>
       <path d="M 19.671875 34.8125 
L 19.671875 8.109375 
L 35.5 8.109375 
Q 43.453125 8.109375 47.28125 11.40625 
Q 51.125 14.703125 51.125 21.484375 
Q 51.125 28.328125 47.28125 31.5625 
Q 43.453125 34.8125 35.5 34.8125 
z
M 19.671875 64.796875 
L 19.671875 42.828125 
L 34.28125 42.828125 
Q 41.5 42.828125 45.03125 45.53125 
Q 48.578125 48.25 48.578125 53.8125 
Q 48.578125 59.328125 45.03125 62.0625 
Q 41.5 64.796875 34.28125 64.796875 
z
M 9.8125 72.90625 
L 35.015625 72.90625 
Q 46.296875 72.90625 52.390625 68.21875 
Q 58.5 63.53125 58.5 54.890625 
Q 58.5 48.1875 55.375 44.234375 
Q 52.25 40.28125 46.1875 39.3125 
Q 53.46875 37.75 57.5 32.78125 
Q 61.53125 27.828125 61.53125 20.40625 
Q 61.53125 10.640625 54.890625 5.3125 
Q 48.25 0 35.984375 0 
L 9.8125 0 
z
" id="DejaVuSans-66"/>
      </defs>
      <use xlink:href="#DejaVuSans-77"/>
      <use x="86.279297" xlink:href="#DejaVuSans-66"/>
     </g>
    </g>
   </g>
   <g id="line2d_17">
    <path clip-path="url(#p255f7d57e7)" d="M 132.349091 430.831184 
L 132.678133 428.055679 
L 133.007174 430.92 
L 133.665258 430.92 
L 133.9943 428.144495 
L 134.323342 430.92 
L 134.652383 430.831184 
L 135.310467 430.92 
L 135.639509 428.055679 
L 135.96855 430.92 
L 136.297592 424.458624 
L 136.626634 398.457693 
L 137.284717 323.852117 
L 139.58801 118.708986 
L 139.917052 105.142317 
L 140.246093 99.591307 
L 140.575135 99.76894 
L 140.904177 99.591307 
L 141.233219 98.814166 
L 141.56226 97.748372 
L 141.891302 97.282087 
L 142.220344 98.125841 
L 142.549386 98.303473 
L 142.878428 95.7056 
L 143.207469 95.994253 
L 144.523636 94.750826 
L 144.852678 94.928459 
L 145.839803 94.750826 
L 146.168845 94.395562 
L 146.497887 93.485196 
L 146.826929 90.620875 
L 147.155971 92.952299 
L 147.485012 93.818257 
L 147.814054 93.72944 
L 148.143096 93.462992 
L 148.472138 93.862665 
L 148.801179 91.242588 
L 149.130221 90.820711 
L 149.459263 93.973685 
L 149.788305 93.818257 
L 150.117346 97.037843 
L 150.446388 97.970412 
L 150.77543 95.972049 
L 151.433514 99.791144 
L 151.762555 99.524695 
L 152.091597 96.838006 
L 152.420639 99.080614 
L 152.749681 98.83637 
L 153.078722 99.014002 
L 153.407764 96.149681 
L 153.736806 98.83637 
L 154.065848 96.060865 
L 154.394889 98.481105 
L 154.723931 98.569921 
L 155.052973 98.170249 
L 155.382015 98.259065 
L 155.711057 96.771394 
L 156.36914 96.793598 
L 156.698182 96.327313 
L 157.027224 93.973685 
L 157.356265 94.351154 
L 157.685307 95.48356 
L 158.014349 95.505764 
L 158.343391 95.683396 
L 158.672432 95.59458 
L 159.001474 95.838824 
L 159.330516 95.394744 
L 159.659558 95.661192 
L 159.9886 95.239315 
L 160.317641 95.150499 
L 160.646683 95.239315 
L 160.975725 93.929277 
L 161.304767 93.574012 
L 161.633808 91.064956 
L 161.96285 90.820711 
L 162.291892 92.907891 
L 162.620934 90.132386 
L 162.949975 92.907891 
L 163.279017 92.819075 
L 163.608059 90.04357 
L 163.937101 92.819075 
L 164.266143 92.13075 
L 164.595184 89.599489 
L 164.924226 93.329768 
L 165.911351 94.55099 
L 166.240393 94.462174 
L 166.569435 93.662828 
L 166.898477 93.929277 
L 167.227518 93.418584 
L 167.55656 92.35279 
L 167.885602 92.441606 
L 168.214644 89.843733 
L 168.543686 91.753281 
L 168.872727 91.131568 
L 169.201769 91.042752 
L 169.530811 91.19818 
L 170.188894 92.35279 
L 170.517936 92.286178 
L 170.846978 90.021366 
L 171.17602 92.441606 
L 171.505061 92.064137 
L 171.834103 93.462992 
L 172.163145 93.840461 
L 172.492187 93.929277 
L 172.821229 93.041115 
L 173.15027 92.597034 
L 173.479312 91.398016 
L 173.808354 91.464628 
L 174.137396 91.286996 
L 174.795479 91.375812 
L 175.124521 91.286996 
L 175.453563 91.642261 
L 175.782604 91.020548 
L 176.111646 91.19818 
L 176.440688 90.953935 
L 177.098771 89.976958 
L 177.756855 90.221202 
L 178.085897 91.08716 
L 178.414939 91.08716 
L 178.74398 90.332222 
L 179.073022 90.509855 
L 179.731106 90.421038 
L 180.060147 90.421038 
L 180.389189 90.576467 
L 180.718231 90.332222 
L 181.047273 87.645533 
L 181.376314 90.176794 
L 181.705356 89.843733 
L 182.034398 90.176794 
L 182.36344 90.26561 
L 182.692482 90.798507 
L 183.021523 88.111818 
L 183.350565 89.93255 
L 183.679607 89.954754 
L 184.008649 90.620875 
L 184.33769 81.495014 
L 184.666732 90.176794 
L 184.995774 90.087978 
L 185.324816 90.26561 
L 185.653857 91.042752 
L 185.982899 91.153772 
L 186.311941 87.401289 
L 186.640983 90.021366 
L 186.970025 89.777121 
L 187.299066 90.354426 
L 187.628108 90.354426 
L 187.95715 90.176794 
L 188.286192 90.421038 
L 188.615233 90.176794 
L 188.944275 89.688305 
L 189.273317 89.510673 
L 189.602359 89.599489 
L 189.9314 90.110182 
L 190.260442 87.157044 
L 190.589484 89.843733 
L 190.918526 90.354426 
L 191.247568 87.223657 
L 191.576609 89.066592 
L 191.905651 89.488469 
L 192.234693 89.666101 
L 192.563735 86.80178 
L 192.892776 89.577285 
L 193.221818 89.666101 
L 193.55086 86.80178 
L 193.879902 87.112636 
L 194.208943 90.598671 
L 194.537985 89.399653 
L 194.867027 89.33304 
L 195.196069 89.066592 
L 195.854152 88.267247 
L 196.512236 88.200634 
L 196.841278 88.289451 
L 197.170319 88.555899 
L 197.499361 88.467083 
L 197.828403 88.88896 
L 198.157445 88.711327 
L 198.486486 88.733531 
L 198.815528 89.577285 
L 199.14457 90.087978 
L 199.473612 87.223657 
L 199.802654 90.243406 
L 200.131695 90.15459 
L 200.460737 90.754099 
L 200.789779 90.487651 
L 201.776904 90.731895 
L 202.105946 87.867574 
L 202.434988 90.731895 
L 202.764029 90.398834 
L 203.093071 86.601943 
L 203.422113 89.821529 
L 203.751155 87.13484 
L 204.080197 89.643897 
L 204.409238 87.046024 
L 204.73828 89.821529 
L 205.067322 89.910346 
L 205.396364 87.13484 
L 205.725405 89.466265 
L 206.054447 89.488469 
L 206.712531 84.270519 
L 207.041572 89.821529 
L 207.370614 87.73435 
L 207.699656 88.400471 
L 208.028698 90.665283 
L 208.35774 90.798507 
L 209.015823 90.110182 
L 209.344865 87.245861 
L 209.673907 90.110182 
L 210.002948 90.198998 
L 210.33199 89.93255 
L 210.661032 89.133204 
L 210.990074 86.180067 
L 211.319115 88.866756 
L 211.648157 88.866756 
L 211.977199 86.180067 
L 212.306241 89.399653 
L 212.635283 88.955572 
L 212.964324 89.044388 
L 213.293366 88.777939 
L 213.622408 88.777939 
L 214.280491 89.199816 
L 214.609533 89.022184 
L 214.938575 86.246679 
L 215.267617 90.065774 
L 215.596658 90.731895 
L 215.9257 89.555081 
L 216.912826 88.17843 
L 217.241867 88.533695 
L 217.570909 88.622511 
L 217.899951 89.066592 
L 218.228993 86.291087 
L 218.558034 89.066592 
L 218.887076 89.155408 
L 219.216118 88.800143 
L 219.54516 89.155408 
L 219.874201 89.066592 
L 220.532285 90.04357 
L 220.861327 89.865937 
L 221.190369 91.175976 
L 221.51941 91.153772 
L 222.177494 90.465447 
L 222.506536 91.064956 
L 222.835577 91.398016 
L 223.164619 90.865119 
L 223.493661 91.464628 
L 223.822703 91.642261 
L 224.480786 91.242588 
L 224.809828 91.242588 
L 225.13887 90.620875 
L 225.467912 90.620875 
L 225.796953 90.287814 
L 226.455037 90.731895 
L 226.784079 90.909527 
L 227.11312 90.110182 
L 227.442162 90.37663 
L 227.771204 88.045206 
L 228.100246 87.867574 
L 228.429287 89.93255 
L 228.758329 86.779576 
L 229.087371 89.643897 
L 229.416413 90.509855 
L 229.745455 89.466265 
L 230.074496 87.112636 
L 230.403538 89.621693 
L 230.73258 87.379085 
L 231.061622 89.976958 
L 231.719705 90.065774 
L 232.048747 87.046024 
L 232.377789 86.935004 
L 232.70683 90.243406 
L 233.035872 89.288632 
L 233.364914 88.777939 
L 233.693956 89.111 
L 234.022998 89.199816 
L 234.352039 89.910346 
L 234.681081 90.354426 
L 235.010123 90.354426 
L 235.339165 90.176794 
L 235.668206 87.312473 
L 235.997248 90.887323 
L 236.32629 91.042752 
L 236.655332 90.26561 
L 236.984373 90.26561 
L 237.313415 86.69076 
L 237.642457 89.466265 
L 237.971499 89.555081 
L 238.300541 89.044388 
L 238.629582 88.866756 
L 238.958624 89.22202 
L 239.616708 89.399653 
L 239.945749 89.310836 
L 240.274791 89.666101 
L 240.603833 89.666101 
L 240.932875 89.133204 
L 241.261916 89.044388 
L 241.590958 89.466265 
L 241.92 89.377449 
L 242.249042 87.13484 
L 242.578084 90.087978 
L 242.907125 88.955572 
L 243.236167 86.180067 
L 243.565209 86.002434 
L 243.894251 86.246679 
L 244.223292 89.199816 
L 245.210418 90.176794 
L 245.539459 87.490105 
L 245.868501 90.26561 
L 246.197543 89.244224 
L 246.526585 89.155408 
L 246.855627 86.291087 
L 247.184668 89.066592 
L 247.51371 86.113455 
L 247.842752 89.066592 
L 248.171794 89.666101 
L 248.829877 89.688305 
L 249.158919 90.398834 
L 249.487961 89.688305 
L 249.817002 89.244224 
L 250.146044 89.244224 
L 250.475086 88.88896 
L 250.804128 86.468719 
L 251.13317 89.244224 
L 251.791253 90.021366 
L 252.120295 89.843733 
L 252.449337 89.155408 
L 252.778378 90.087978 
L 253.10742 90.176794 
L 253.436462 89.93255 
L 253.765504 86.624148 
L 254.094545 86.024638 
L 254.423587 88.622511 
L 254.752629 88.955572 
L 255.081671 89.843733 
L 255.410713 86.890596 
L 255.739754 86.357699 
L 256.068796 89.310836 
L 256.397838 83.648806 
L 256.72688 89.555081 
L 257.055921 89.466265 
L 257.384963 88.844552 
L 257.714005 86.335495 
L 258.043047 89.643897 
L 258.372088 89.910346 
L 259.030172 88.955572 
L 259.359214 89.22202 
L 259.688256 89.999162 
L 260.017297 90.421038 
L 260.346339 89.999162 
L 260.675381 86.957208 
L 261.004423 89.732713 
L 262.32059 89.821529 
L 262.649631 89.377449 
L 262.978673 89.199816 
L 263.307715 89.288632 
L 263.636757 89.555081 
L 263.965799 89.999162 
L 264.623882 89.999162 
L 264.952924 90.354426 
L 265.281966 89.732713 
L 265.611007 89.377449 
L 265.940049 89.732713 
L 266.269091 87.046024 
L 266.598133 87.667737 
L 266.927174 90.354426 
L 267.256216 90.532059 
L 267.585258 87.667737 
L 267.9143 90.110182 
L 268.243342 89.510673 
L 268.572383 89.421857 
L 268.901425 89.488469 
L 269.230467 89.754917 
L 269.559509 89.510673 
L 269.88855 86.890596 
L 270.217592 89.399653 
L 270.875676 89.310836 
L 271.204717 89.754917 
L 271.533759 86.712964 
L 271.862801 89.488469 
L 272.520885 88.866756 
L 272.849926 89.310836 
L 273.178968 89.044388 
L 273.50801 87.312473 
L 273.837052 86.868392 
L 274.166093 90.709691 
L 274.495135 90.887323 
L 274.824177 86.890596 
L 275.153219 89.510673 
L 276.140344 88.88896 
L 276.469386 88.977776 
L 276.798428 88.88896 
L 277.127469 86.557535 
L 277.456511 89.244224 
L 277.785553 88.533695 
L 278.114595 88.267247 
L 278.443636 88.622511 
L 278.772678 87.73435 
L 279.10172 88.000798 
L 279.430762 88.511491 
L 279.759803 88.511491 
L 280.088845 88.689123 
L 280.417887 88.689123 
L 280.746929 86.868392 
L 281.075971 89.621693 
L 281.405012 89.377449 
L 282.063096 88.622511 
L 283.379263 88.88896 
L 283.708305 88.800143 
L 284.037346 85.75819 
L 284.366388 85.580558 
L 284.69543 88.711327 
L 285.024472 88.911164 
L 285.353514 85.86921 
L 285.682555 88.134022 
L 286.011597 87.867574 
L 286.340639 87.934186 
L 286.669681 87.534513 
L 286.998722 86.957208 
L 287.327764 86.69076 
L 287.656806 85.913618 
L 287.985848 85.425129 
L 288.314889 85.713782 
L 288.643931 86.601943 
L 288.972973 86.002434 
L 289.302015 85.64717 
L 289.631057 85.64717 
L 289.960098 82.605216 
L 290.28914 86.246679 
L 290.618182 83.67101 
L 290.947224 86.712964 
L 291.605307 84.7146 
L 291.934349 84.092887 
L 292.263391 83.915255 
L 292.592432 84.092887 
L 292.921474 85.047661 
L 293.250516 82.272156 
L 293.579558 85.402925 
L 293.9086 86.091251 
L 294.237641 86.335495 
L 294.566683 87.090432 
L 294.895725 88.311655 
L 295.224767 88.644715 
L 295.553808 84.159499 
L 295.88285 89.799325 
L 296.869975 89.710509 
L 297.528059 88.933368 
L 297.857101 88.666919 
L 298.186143 87.800962 
L 298.515184 87.534513 
L 298.844226 87.112636 
L 299.173268 81.295178 
L 299.50231 87.112636 
L 299.831351 86.246679 
L 300.160393 82.383176 
L 300.489435 84.7146 
L 300.818477 82.205543 
L 301.147518 85.780394 
L 301.47656 86.046842 
L 301.805602 86.113455 
L 302.134644 85.75819 
L 302.463686 85.580558 
L 302.792727 86.202271 
L 303.121769 86.446515 
L 303.450811 87.490105 
L 304.437936 86.624148 
L 304.766978 86.024638 
L 305.09602 86.291087 
L 305.425061 83.426766 
L 305.754103 83.648806 
L 306.083145 86.957208 
L 306.412187 86.535331 
L 307.399312 86.246679 
L 308.057396 87.445697 
L 308.386437 87.445697 
L 308.715479 86.757372 
L 309.044521 87.090432 
L 309.373563 86.9128 
L 309.702604 84.337131 
L 310.031646 85.047661 
L 310.360688 87.889778 
L 310.68973 88.156226 
L 311.018771 85.380721 
L 311.347813 88.311655 
L 311.676855 84.49256 
L 312.005897 87.334677 
L 312.334939 84.470356 
L 312.66398 87.379085 
L 312.993022 86.935004 
L 313.651106 86.846188 
L 313.980147 84.958844 
L 314.309189 84.359335 
L 314.638231 87.223657 
L 314.967273 87.046024 
L 315.296314 87.112636 
L 315.625356 87.73435 
L 315.954398 87.911982 
L 316.28344 85.136477 
L 316.612482 87.911982 
L 316.941523 87.911982 
L 317.270565 87.645533 
L 317.599607 87.73435 
L 317.928649 85.469537 
L 318.25769 86.157863 
L 318.586732 88.511491 
L 318.915774 88.333859 
L 319.573857 89.044388 
L 319.902899 89.22202 
L 320.231941 85.913618 
L 320.560983 88.866756 
L 320.890025 88.866756 
L 321.219066 85.380721 
L 321.548108 88.17843 
L 321.87715 85.913618 
L 322.206192 86.335495 
L 322.535233 88.977776 
L 322.864275 88.800143 
L 323.193317 87.934186 
L 323.522359 87.756554 
L 323.8514 87.934186 
L 324.180442 89.066592 
L 324.509484 88.777939 
L 324.838526 88.866756 
L 325.167568 88.511491 
L 325.496609 86.601943 
L 325.825651 89.466265 
L 326.154693 87.978594 
L 326.483735 87.534513 
L 326.812776 87.889778 
L 327.141818 88.06741 
L 327.47086 88.600307 
L 327.799902 88.333859 
L 328.457985 87.290269 
L 328.787027 87.911982 
L 329.116069 84.425948 
L 329.445111 87.379085 
L 329.774152 87.290269 
L 330.103194 87.556717 
L 330.432236 87.467901 
L 330.761278 86.779576 
L 331.090319 87.046024 
L 331.419361 87.556717 
L 331.748403 87.490105 
L 332.077445 86.69076 
L 332.406486 83.648806 
L 332.735528 86.335495 
L 333.06457 86.335495 
L 333.722654 85.469537 
L 334.051695 86.069047 
L 334.380737 86.002434 
L 335.038821 86.268883 
L 335.367862 86.002434 
L 335.696904 86.091251 
L 336.025946 83.55999 
L 336.354988 86.268883 
L 336.684029 83.582194 
L 337.013071 86.091251 
L 337.342113 86.957208 
L 337.671155 86.601943 
L 338.000197 85.53615 
L 338.329238 85.53615 
L 338.65828 85.824802 
L 338.987322 85.64717 
L 339.316364 85.913618 
L 339.645405 85.913618 
L 339.974447 86.069047 
L 340.303489 83.204725 
L 340.632531 83.293541 
L 340.961572 86.335495 
L 341.290614 83.471174 
L 341.619656 86.069047 
L 341.948698 83.648806 
L 342.27774 85.891414 
L 342.606781 84.914436 
L 343.264865 85.98023 
L 343.922948 86.069047 
L 344.25199 85.624966 
L 344.581032 85.447333 
L 344.910074 82.494196 
L 345.239115 83.204725 
L 345.568157 86.424311 
L 345.897199 86.335495 
L 346.226241 86.668556 
L 346.555283 86.668556 
L 346.884324 87.02382 
L 347.213366 86.935004 
L 347.542408 86.579739 
L 347.87145 86.490923 
L 348.200491 85.380721 
L 348.529533 85.314109 
L 348.858575 85.447333 
L 349.187617 86.069047 
L 349.516658 86.424311 
L 349.8457 86.424311 
L 350.174742 86.779576 
L 350.832826 85.291905 
L 351.161867 82.960481 
L 351.490909 85.824802 
L 351.819951 83.759826 
L 352.148993 86.424311 
L 352.478034 86.069047 
L 352.807076 86.579739 
L 353.136118 83.804234 
L 353.46516 83.493378 
L 353.794201 86.180067 
L 354.123243 86.335495 
L 354.452285 85.53615 
L 354.781327 86.091251 
L 355.110369 86.335495 
L 355.43941 86.246679 
L 355.768452 87.13484 
L 356.097494 87.312473 
L 356.755577 86.868392 
L 357.084619 81.406198 
L 357.413661 86.535331 
L 357.742703 86.180067 
L 358.071744 86.335495 
L 358.400786 86.335495 
L 358.729828 85.935822 
L 359.05887 82.893869 
L 359.387912 85.491741 
L 359.716953 86.202271 
L 360.045995 85.136477 
L 360.375037 84.448152 
L 360.704079 84.337131 
L 361.03312 81.916891 
L 361.362162 85.291905 
L 361.691204 86.002434 
L 362.020246 85.735986 
L 362.678329 85.469537 
L 363.007371 82.427584 
L 363.336413 83.226929 
L 363.665455 85.913618 
L 363.994496 82.694032 
L 364.323538 85.469537 
L 364.981622 85.558354 
L 365.310663 86.091251 
L 365.639705 86.357699 
L 365.968747 86.268883 
L 366.62683 85.847006 
L 366.955872 86.113455 
L 367.284914 85.824802 
L 367.613956 85.824802 
L 367.942998 86.291087 
L 368.272039 86.291087 
L 368.601081 85.158681 
L 368.930123 84.958844 
L 369.259165 83.826438 
L 369.588206 83.893051 
L 369.917248 83.804234 
L 370.24629 84.581376 
L 370.904373 84.49256 
L 371.562457 85.025457 
L 371.891499 81.383994 
L 372.220541 84.981049 
L 372.549582 86.002434 
L 373.865749 85.64717 
L 374.194791 85.735986 
L 374.523833 85.203089 
L 374.852875 82.338768 
L 375.181916 85.291905 
L 375.510958 85.203089 
L 375.84 82.272156 
L 376.169042 85.069865 
L 376.498084 85.247497 
L 376.827125 85.735986 
L 377.156167 85.735986 
L 377.485209 86.335495 
L 377.814251 86.157863 
L 378.472334 86.957208 
L 378.801376 86.601943 
L 379.130418 86.69076 
L 379.788501 86.246679 
L 380.117543 83.715418 
L 380.446585 87.689941 
L 380.775627 87.689941 
L 381.104668 86.935004 
L 381.762752 86.402107 
L 382.091794 86.668556 
L 382.420835 86.246679 
L 382.749877 86.402107 
L 383.078919 86.757372 
L 383.407961 83.981867 
L 383.737002 87.556717 
L 384.066044 86.957208 
L 384.395086 84.625784 
L 384.724128 87.13484 
L 385.05317 86.868392 
L 385.382211 84.004071 
L 385.711253 86.601943 
L 387.02742 86.935004 
L 387.356462 81.495014 
L 387.685504 88.156226 
L 388.014545 85.203089 
L 388.343587 84.49256 
L 388.672629 86.935004 
L 389.001671 87.201453 
L 389.330713 87.290269 
L 389.659754 81.761463 
L 390.317838 86.779576 
L 390.64688 86.779576 
L 390.975921 86.624148 
L 391.634005 87.068228 
L 391.963047 86.735168 
L 392.292088 87.090432 
L 392.950172 87.356881 
L 393.279214 85.447333 
L 393.608256 85.092069 
L 393.937297 83.160317 
L 394.266339 83.138113 
L 394.595381 86.601943 
L 394.924423 86.868392 
L 395.253464 86.513127 
L 395.582506 86.424311 
L 396.24059 81.050933 
L 396.569631 87.046024 
L 396.898673 87.401289 
L 397.227715 87.312473 
L 397.556757 84.625784 
L 397.885799 87.312473 
L 398.21484 87.068228 
L 398.543882 87.068228 
L 398.872924 88.378267 
L 399.860049 87.84537 
L 400.189091 88.289451 
L 400.518133 85.602762 
L 400.847174 85.425129 
L 401.176216 87.84537 
L 401.505258 86.513127 
L 401.8343 84.181703 
L 402.163342 87.467901 
L 402.821425 87.556717 
L 403.150467 87.112636 
L 403.479509 83.937459 
L 403.80855 86.513127 
L 404.137592 85.75819 
L 404.466634 85.425129 
L 404.795676 82.538604 
L 405.124717 82.805053 
L 405.453759 87.068228 
L 405.782801 87.467901 
L 406.111843 87.401289 
L 406.440885 87.046024 
L 406.769926 83.33795 
L 407.098968 86.357699 
L 407.42801 86.712964 
L 407.757052 85.402925 
L 408.086093 85.136477 
L 408.415135 85.136477 
L 408.744177 85.314109 
L 409.073219 86.601943 
L 409.731302 85.158681 
L 410.060344 82.538604 
L 410.389386 82.272156 
L 410.718428 82.360972 
L 411.047469 85.913618 
L 411.376511 85.824802 
L 411.705553 82.272156 
L 412.034595 84.847824 
L 412.692678 85.136477 
L 413.350762 85.047661 
L 413.679803 85.491741 
L 414.008845 82.538604 
L 414.337887 84.736804 
L 414.666929 84.914436 
L 414.995971 85.314109 
L 415.325012 84.381539 
L 415.654054 85.047661 
L 416.312138 85.580558 
L 416.641179 85.669374 
L 416.970221 79.674283 
L 417.299263 84.958844 
L 417.628305 85.469537 
L 417.957346 85.114273 
L 418.286388 84.93664 
L 418.61543 84.958844 
L 418.944472 85.314109 
L 419.273514 85.225293 
L 419.602555 83.360154 
L 419.931597 83.33795 
L 420.260639 86.046842 
L 420.589681 85.269701 
L 420.918722 81.961299 
L 421.247764 82.73844 
L 421.576806 85.691578 
L 421.905848 85.158681 
L 422.563931 85.425129 
L 422.892973 83.271337 
L 423.222015 83.271337 
L 423.551057 84.203907 
L 423.880098 86.80178 
L 424.20914 86.80178 
L 424.538182 86.535331 
L 424.867224 86.069047 
L 425.525307 86.002434 
L 425.854349 86.268883 
L 426.512432 86.357699 
L 426.841474 85.735986 
L 427.170516 82.694032 
L 427.499558 85.314109 
L 427.8286 84.60358 
L 428.157641 85.047661 
L 428.486683 85.136477 
L 428.815725 85.491741 
L 429.144767 85.314109 
L 429.473808 79.851915 
L 429.80285 85.402925 
L 430.131892 84.381539 
L 430.460934 84.7146 
L 430.789975 85.469537 
L 431.119017 85.469537 
L 431.448059 84.692396 
L 431.777101 84.870028 
L 432.106143 82.694032 
L 432.435184 85.291905 
L 432.764226 84.93664 
L 433.42231 84.870028 
L 433.751351 84.781212 
L 434.080393 84.337131 
L 434.409435 82.094523 
L 434.738477 84.781212 
L 435.067518 85.291905 
L 435.725602 85.380721 
L 436.054644 85.558354 
L 437.370811 84.292723 
L 437.699853 83.604398 
L 438.028894 79.985139 
L 438.357936 82.494196 
L 438.686978 83.33795 
L 439.01602 80.828893 
L 439.345061 81.006525 
L 440.003145 80.42922 
L 440.332187 82.916073 
L 440.661229 82.916073 
L 440.99027 83.537786 
L 441.319312 83.715418 
L 441.648354 80.851097 
L 441.977396 84.070683 
L 442.306437 83.804234 
L 442.964521 78.164408 
L 443.293563 83.804234 
L 443.622604 79.119182 
L 443.951646 81.872483 
L 444.280688 81.783667 
L 444.60973 84.803416 
L 444.938771 84.82562 
L 445.267813 85.092069 
L 445.596855 85.092069 
L 445.925897 82.138931 
L 446.254939 85.425129 
L 447.242064 85.069865 
L 447.571106 84.203907 
L 447.900147 84.559172 
L 448.229189 81.850279 
L 448.558231 85.491741 
L 448.887273 85.136477 
L 449.216314 84.470356 
L 449.545356 81.606034 
L 449.874398 84.82562 
L 450.20344 85.247497 
L 450.532482 82.560808 
L 450.861523 86.046842 
L 451.190565 87.001616 
L 451.848649 87.001616 
L 452.506732 88.222838 
L 452.835774 88.844552 
L 453.164816 88.755735 
L 453.822899 88.844552 
L 454.151941 88.844552 
L 454.480983 85.891414 
L 454.810025 88.311655 
L 455.139066 85.092069 
L 455.468108 87.02382 
L 456.126192 85.047661 
L 456.455233 84.7146 
L 456.784275 83.937459 
L 457.113317 81.161954 
L 457.442359 83.937459 
L 457.7714 83.55999 
L 458.100442 82.782849 
L 458.429484 80.007343 
L 458.758526 83.471174 
L 459.087568 83.915255 
L 459.745651 84.181703 
L 460.074693 84.092887 
L 460.403735 84.7146 
L 461.061818 85.136477 
L 461.39086 84.7146 
L 461.719902 84.625784 
L 462.048943 84.981049 
L 462.377985 84.981049 
L 462.707027 85.425129 
L 463.036069 85.158681 
L 463.365111 84.559172 
L 463.694152 84.625784 
L 464.023194 84.181703 
L 464.352236 81.58383 
L 464.681278 84.359335 
L 465.010319 84.270519 
L 465.997445 84.625784 
L 466.326486 85.225293 
L 466.98457 85.314109 
L 467.313612 85.136477 
L 467.971695 85.735986 
L 468.300737 83.293541 
L 468.629779 86.069047 
L 468.958821 85.53615 
L 469.287862 82.471992 
L 469.616904 82.360972 
L 469.945946 85.558354 
L 470.274988 85.64717 
L 470.604029 82.893869 
L 470.933071 84.7146 
L 471.591155 84.292723 
L 471.920197 81.850279 
L 472.249238 84.625784 
L 472.57828 84.625784 
L 472.907322 81.761463 
L 473.236364 84.803416 
L 473.565405 81.850279 
L 473.894447 85.491741 
L 474.223489 82.62742 
L 474.552531 86.024638 
L 474.881572 85.491741 
L 475.210614 85.336313 
L 475.539656 86.357699 
L 475.868698 86.468719 
L 476.19774 86.735168 
L 476.526781 86.113455 
L 476.855823 86.424311 
L 477.184865 86.424311 
L 477.513907 86.69076 
L 477.842948 84.692396 
L 478.17199 87.13484 
L 478.501032 84.270519 
L 478.830074 87.13484 
L 480.146241 87.223657 
L 480.475283 81.58383 
L 480.804324 87.13484 
L 481.133366 87.84537 
L 481.462408 87.800962 
L 482.120491 88.06741 
L 482.449533 87.778758 
L 482.778575 84.115091 
L 483.107617 84.203907 
L 483.436658 86.979412 
L 483.7657 84.203907 
L 484.094742 86.646352 
L 484.423784 83.049297 
L 484.752826 86.202271 
L 485.410909 86.202271 
L 485.739951 86.712964 
L 486.068993 86.712964 
L 486.727076 86.024638 
L 487.056118 86.113455 
L 487.38516 85.847006 
L 487.714201 85.425129 
L 488.043243 85.247497 
L 488.372285 82.29436 
L 488.701327 85.402925 
L 489.030369 86.157863 
L 489.35941 86.246679 
L 489.688452 86.757372 
L 490.346536 87.02382 
L 491.004619 87.268065 
L 492.320786 87.867574 
L 492.649828 85.180885 
L 492.97887 86.957208 
L 493.307912 86.335495 
L 493.965995 86.868392 
L 494.624079 86.357699 
L 495.282162 86.468719 
L 495.611204 86.557535 
L 495.940246 86.823984 
L 496.269287 84.536968 
L 496.598329 86.957208 
L 496.927371 86.868392 
L 497.256413 87.312473 
L 497.585455 87.290269 
L 497.914496 86.180067 
L 498.243538 86.268883 
L 498.57258 83.493378 
L 498.901622 87.046024 
L 499.230663 87.712146 
L 499.559705 86.979412 
L 499.888747 86.624148 
L 500.217789 86.535331 
L 500.54683 86.624148 
L 500.875872 86.446515 
L 501.204914 86.890596 
L 501.533956 86.712964 
L 501.862998 87.157044 
L 502.192039 87.068228 
L 502.521081 87.157044 
L 502.850123 84.292723 
L 503.179165 86.624148 
L 504.16629 87.312473 
L 504.495332 87.223657 
L 504.824373 87.312473 
L 505.153415 87.068228 
L 505.811499 86.890596 
L 506.140541 86.646352 
L 506.469582 87.001616 
L 507.127666 87.157044 
L 507.456708 84.381539 
L 507.785749 87.84537 
L 508.114791 87.667737 
L 508.443833 87.223657 
L 508.772875 84.359335 
L 509.101916 84.092887 
L 509.430958 86.80178 
L 509.76 87.867574 
L 510.089042 88.134022 
L 510.418084 85.336313 
L 510.747125 88.111818 
L 511.076167 87.623329 
L 511.405209 82.982685 
L 511.734251 85.824802 
L 512.063292 87.046024 
L 512.721376 87.112636 
L 513.379459 86.646352 
L 513.708501 86.579739 
L 514.037543 87.13484 
L 514.366585 86.024638 
L 514.695627 84.425948 
L 515.024668 87.201453 
L 515.35371 87.578921 
L 516.011794 87.401289 
L 516.340835 84.026275 
L 516.669877 85.847006 
L 516.998919 85.580558 
L 517.327961 85.824802 
L 517.657002 85.558354 
L 518.315086 85.469537 
L 518.644128 82.960481 
L 518.97317 85.98023 
L 519.631253 85.824802 
L 519.960295 83.404562 
L 520.289337 86.268883 
L 520.618378 86.535331 
L 521.276462 86.268883 
L 521.605504 86.091251 
L 521.934545 86.424311 
L 522.263587 86.957208 
L 522.921671 86.80178 
L 523.250713 86.979412 
L 523.579754 83.78203 
L 523.908796 86.224475 
L 524.237838 86.135659 
L 524.895921 86.424311 
L 525.554005 85.958026 
L 526.212088 84.981049 
L 526.54113 79.518855 
L 526.870172 85.247497 
L 527.528256 85.669374 
L 527.857297 85.513945 
L 528.844423 85.425129 
L 529.173464 85.691578 
L 529.502506 85.691578 
L 530.16059 86.890596 
L 530.489631 84.203907 
L 530.818673 87.068228 
L 531.147715 87.068228 
L 531.476757 86.446515 
L 531.805799 86.180067 
L 532.13484 80.54024 
L 532.463882 85.580558 
L 533.121966 86.557535 
L 533.451007 86.379903 
L 533.780049 86.379903 
L 534.109091 83.093705 
L 534.438133 85.358517 
L 534.767174 85.691578 
L 535.096216 86.402107 
L 535.425258 86.646352 
L 536.083342 86.468719 
L 536.412383 86.135659 
L 536.741425 86.446515 
L 537.070467 86.446515 
L 537.399509 85.935822 
L 538.386634 86.180067 
L 538.715676 86.446515 
L 539.044717 82.982685 
L 539.373759 85.314109 
L 539.702801 82.383176 
L 540.031843 85.491741 
L 540.689926 85.247497 
L 541.018968 85.780394 
L 541.34801 85.269701 
L 542.006093 85.86921 
L 542.335135 85.247497 
L 542.993219 85.691578 
L 543.32226 86.024638 
L 543.980344 86.002434 
L 544.309386 85.802598 
L 544.638428 86.091251 
L 544.967469 85.225293 
L 545.296511 84.958844 
L 545.625553 83.138113 
L 545.954595 85.913618 
L 546.94172 85.558354 
L 547.270762 85.291905 
L 547.599803 86.002434 
L 547.928845 86.091251 
L 548.257887 85.469537 
L 548.586929 85.114273 
L 548.915971 82.316564 
L 549.245012 85.092069 
L 549.574054 82.694032 
L 549.903096 85.913618 
L 550.232138 85.64717 
L 550.561179 85.64717 
L 550.890221 86.180067 
L 551.219263 86.357699 
L 551.548305 85.75819 
L 551.877346 85.602762 
L 552.206388 83.226929 
L 552.53543 86.002434 
L 553.193514 85.580558 
L 553.851597 84.337131 
L 554.180639 84.49256 
L 554.838722 85.203089 
L 555.167764 81.739259 
L 555.496806 84.248315 
L 556.483931 84.847824 
L 556.812973 85.380721 
L 557.142015 84.670192 
L 557.800098 85.291905 
L 558.12914 85.64717 
L 558.787224 85.047661 
L 559.445307 85.203089 
L 559.774349 82.005707 
L 560.103391 84.803416 
L 560.432432 84.625784 
L 561.090516 84.7146 
L 561.419558 78.808325 
L 562.077641 84.803416 
L 562.406683 84.625784 
L 563.064767 84.536968 
L 563.393808 81.672646 
L 563.72285 84.115091 
L 564.051892 84.048479 
L 564.380934 84.292723 
L 564.709975 83.937459 
L 565.039017 84.026275 
L 565.368059 81.317382 
L 565.697101 83.737622 
L 566.026143 84.359335 
L 566.355184 84.092887 
L 567.671351 84.092887 
L 568.000393 84.359335 
L 568.329435 84.092887 
L 568.658477 84.270519 
L 568.987518 81.073137 
L 569.31656 83.826438 
L 569.645602 84.203907 
L 570.303686 84.292723 
L 570.632727 83.404562 
L 570.961769 83.004889 
L 571.290811 82.849461 
L 571.619853 83.160317 
L 571.948894 84.092887 
L 572.277936 84.292723 
L 572.93602 83.937459 
L 573.265061 81.406198 
L 573.594103 85.136477 
L 573.923145 84.092887 
L 574.252187 83.826438 
L 574.581229 84.60358 
L 574.91027 79.16359 
L 575.568354 84.448152 
L 575.897396 83.826438 
L 576.226437 84.359335 
L 576.555479 83.959663 
L 576.884521 81.47281 
L 577.213563 84.248315 
L 577.871646 84.137295 
L 578.200688 84.470356 
L 578.52973 78.12 
L 578.858771 83.404562 
L 579.187813 83.648806 
L 579.516855 84.514764 
L 579.845897 84.60358 
L 580.174939 85.203089 
L 580.50398 81.916891 
L 580.833022 84.60358 
L 581.162064 85.136477 
L 581.491106 84.60358 
L 581.820147 85.025457 
L 582.478231 84.93664 
L 582.807273 84.93664 
L 583.136314 85.203089 
L 583.465356 85.203089 
L 584.12344 84.248315 
L 584.452482 82.893869 
L 584.781523 82.716236 
L 585.110565 79.940731 
L 585.439607 82.716236 
L 585.768649 82.716236 
L 586.426732 82.249952 
L 586.755774 82.027911 
L 587.084816 82.116727 
L 587.413857 83.426766 
L 588.071941 82.982685 
L 588.400983 83.33795 
L 589.059066 83.249133 
L 589.388108 83.67101 
L 590.046192 83.226929 
L 590.375233 82.560808 
L 590.704275 81.006525 
L 591.033317 81.006525 
L 591.362359 78.586285 
L 591.6914 78.763917 
L 592.020442 81.450606 
L 592.349484 81.717055 
L 592.678526 81.539422 
L 593.007568 80.740077 
L 593.994693 82.116727 
L 594.323735 82.471992 
L 594.981818 84.203907 
L 595.31086 82.050115 
L 595.639902 84.49256 
L 595.968943 84.137295 
L 596.297985 80.762281 
L 596.627027 81.095341 
L 596.956069 83.33795 
L 597.285111 82.62742 
L 597.614152 82.805053 
L 597.943194 83.826438 
L 598.272236 84.004071 
L 598.930319 83.915255 
L 599.259361 83.471174 
L 599.588403 83.804234 
L 599.917445 81.406198 
L 600.246486 84.403743 
L 600.575528 84.759008 
L 600.90457 84.759008 
L 601.233612 85.291905 
L 601.562654 82.5164 
L 601.891695 83.115909 
L 602.220737 85.802598 
L 602.549779 85.98023 
L 602.878821 82.960481 
L 603.207862 85.64717 
L 603.865946 84.092887 
L 604.194988 84.115091 
L 604.524029 84.559172 
L 604.853071 83.582194 
L 605.182113 83.78203 
L 605.840197 83.515582 
L 606.169238 84.870028 
L 606.827322 84.60358 
L 607.156364 84.870028 
L 607.485405 79.829711 
L 607.814447 85.380721 
L 608.472531 85.469537 
L 608.801572 85.314109 
L 609.130614 84.870028 
L 609.459656 84.981049 
L 609.788698 84.914436 
L 610.11774 84.647988 
L 610.446781 81.517218 
L 610.775823 84.536968 
L 611.762948 83.271337 
L 612.09199 82.982685 
L 612.421032 83.582194 
L 612.750074 80.051752 
L 613.079115 80.295996 
L 613.408157 83.160317 
L 613.737199 83.604398 
L 614.066241 78.297632 
L 614.395283 84.536968 
L 614.724324 84.625784 
L 615.71145 85.580558 
L 616.040491 85.580558 
L 616.369533 85.780394 
L 616.698575 83.249133 
L 617.027617 86.091251 
L 617.356658 86.024638 
L 618.014742 86.091251 
L 619.330909 86.024638 
L 619.330909 86.024638 
" style="fill:none;stroke:#1f77b4;stroke-linecap:square;stroke-width:1.5;"/>
   </g>
   <g id="patch_3">
    <path d="M 108 448.56 
L 108 60.48 
" style="fill:none;stroke:#000000;stroke-linecap:square;stroke-linejoin:miter;stroke-width:0.8;"/>
   </g>
   <g id="patch_4">
    <path d="M 643.68 448.56 
L 643.68 60.48 
" style="fill:none;stroke:#000000;stroke-linecap:square;stroke-linejoin:miter;stroke-width:0.8;"/>
   </g>
   <g id="patch_5">
    <path d="M 108 448.56 
L 643.68 448.56 
" style="fill:none;stroke:#000000;stroke-linecap:square;stroke-linejoin:miter;stroke-width:0.8;"/>
   </g>
   <g id="patch_6">
    <path d="M 108 60.48 
L 643.68 60.48 
" style="fill:none;stroke:#000000;stroke-linecap:square;stroke-linejoin:miter;stroke-width:0.8;"/>
   </g>
   <g id="text_19">
    <!-- docker - stats -->
    <g transform="translate(324.832969 54.48)scale(0.15 -0.15)">
     <defs>
      <path d="M 45.40625 46.390625 
L 45.40625 75.984375 
L 54.390625 75.984375 
L 54.390625 0 
L 45.40625 0 
L 45.40625 8.203125 
Q 42.578125 3.328125 38.25 0.953125 
Q 33.9375 -1.421875 27.875 -1.421875 
Q 17.96875 -1.421875 11.734375 6.484375 
Q 5.515625 14.40625 5.515625 27.296875 
Q 5.515625 40.1875 11.734375 48.09375 
Q 17.96875 56 27.875 56 
Q 33.9375 56 38.25 53.625 
Q 42.578125 51.265625 45.40625 46.390625 
z
M 14.796875 27.296875 
Q 14.796875 17.390625 18.875 11.75 
Q 22.953125 6.109375 30.078125 6.109375 
Q 37.203125 6.109375 41.296875 11.75 
Q 45.40625 17.390625 45.40625 27.296875 
Q 45.40625 37.203125 41.296875 42.84375 
Q 37.203125 48.484375 30.078125 48.484375 
Q 22.953125 48.484375 18.875 42.84375 
Q 14.796875 37.203125 14.796875 27.296875 
z
" id="DejaVuSans-100"/>
      <path d="M 30.609375 48.390625 
Q 23.390625 48.390625 19.1875 42.75 
Q 14.984375 37.109375 14.984375 27.296875 
Q 14.984375 17.484375 19.15625 11.84375 
Q 23.34375 6.203125 30.609375 6.203125 
Q 37.796875 6.203125 41.984375 11.859375 
Q 46.1875 17.53125 46.1875 27.296875 
Q 46.1875 37.015625 41.984375 42.703125 
Q 37.796875 48.390625 30.609375 48.390625 
z
M 30.609375 56 
Q 42.328125 56 49.015625 48.375 
Q 55.71875 40.765625 55.71875 27.296875 
Q 55.71875 13.875 49.015625 6.21875 
Q 42.328125 -1.421875 30.609375 -1.421875 
Q 18.84375 -1.421875 12.171875 6.21875 
Q 5.515625 13.875 5.515625 27.296875 
Q 5.515625 40.765625 12.171875 48.375 
Q 18.84375 56 30.609375 56 
z
" id="DejaVuSans-111"/>
      <path d="M 48.78125 52.59375 
L 48.78125 44.1875 
Q 44.96875 46.296875 41.140625 47.34375 
Q 37.3125 48.390625 33.40625 48.390625 
Q 24.65625 48.390625 19.8125 42.84375 
Q 14.984375 37.3125 14.984375 27.296875 
Q 14.984375 17.28125 19.8125 11.734375 
Q 24.65625 6.203125 33.40625 6.203125 
Q 37.3125 6.203125 41.140625 7.25 
Q 44.96875 8.296875 48.78125 10.40625 
L 48.78125 2.09375 
Q 45.015625 0.34375 40.984375 -0.53125 
Q 36.96875 -1.421875 32.421875 -1.421875 
Q 20.0625 -1.421875 12.78125 6.34375 
Q 5.515625 14.109375 5.515625 27.296875 
Q 5.515625 40.671875 12.859375 48.328125 
Q 20.21875 56 33.015625 56 
Q 37.15625 56 41.109375 55.140625 
Q 45.0625 54.296875 48.78125 52.59375 
z
" id="DejaVuSans-99"/>
      <path d="M 9.078125 75.984375 
L 18.109375 75.984375 
L 18.109375 31.109375 
L 44.921875 54.6875 
L 56.390625 54.6875 
L 27.390625 29.109375 
L 57.625 0 
L 45.90625 0 
L 18.109375 26.703125 
L 18.109375 0 
L 9.078125 0 
z
" id="DejaVuSans-107"/>
      <path d="M 41.109375 46.296875 
Q 39.59375 47.171875 37.8125 47.578125 
Q 36.03125 48 33.890625 48 
Q 26.265625 48 22.1875 43.046875 
Q 18.109375 38.09375 18.109375 28.8125 
L 18.109375 0 
L 9.078125 0 
L 9.078125 54.6875 
L 18.109375 54.6875 
L 18.109375 46.1875 
Q 20.953125 51.171875 25.484375 53.578125 
Q 30.03125 56 36.53125 56 
Q 37.453125 56 38.578125 55.875 
Q 39.703125 55.765625 41.0625 55.515625 
z
" id="DejaVuSans-114"/>
      <path id="DejaVuSans-32"/>
      <path d="M 4.890625 31.390625 
L 31.203125 31.390625 
L 31.203125 23.390625 
L 4.890625 23.390625 
z
" id="DejaVuSans-45"/>
     </defs>
     <use xlink:href="#DejaVuSans-100"/>
     <use x="63.476562" xlink:href="#DejaVuSans-111"/>
     <use x="124.658203" xlink:href="#DejaVuSans-99"/>
     <use x="179.638672" xlink:href="#DejaVuSans-107"/>
     <use x="233.923828" xlink:href="#DejaVuSans-101"/>
     <use x="295.447266" xlink:href="#DejaVuSans-114"/>
     <use x="336.560547" xlink:href="#DejaVuSans-32"/>
     <use x="368.347656" xlink:href="#DejaVuSans-45"/>
     <use x="404.431641" xlink:href="#DejaVuSans-32"/>
     <use x="436.21875" xlink:href="#DejaVuSans-115"/>
     <use x="488.318359" xlink:href="#DejaVuSans-116"/>
     <use x="527.527344" xlink:href="#DejaVuSans-97"/>
     <use x="588.806641" xlink:href="#DejaVuSans-116"/>
     <use x="628.015625" xlink:href="#DejaVuSans-115"/>
    </g>
   </g>
   <g id="legend_1">
    <g id="patch_7">
     <path d="M 650.68 258.52 
L 654.68 258.52 
Q 656.68 258.52 656.68 256.52 
L 656.68 252.52 
Q 656.68 250.52 654.68 250.52 
L 650.68 250.52 
Q 648.68 250.52 648.68 252.52 
L 648.68 256.52 
Q 648.68 258.52 650.68 258.52 
z
" style="fill:#ffffff;opacity:0.8;stroke:#cccccc;stroke-linejoin:miter;"/>
    </g>
   </g>
  </g>
 </g>
 <defs>
  <clipPath id="p255f7d57e7">
   <rect height="388.08" width="535.68" x="108" y="60.48"/>
  </clipPath>
 </defs>
</svg>
