<?xml version="1.0" encoding="utf-8" standalone="no"?>
<!DOCTYPE svg PUBLIC "-//W3C//DTD SVG 1.1//EN"
  "http://www.w3.org/Graphics/SVG/1.1/DTD/svg11.dtd">
<!-- Created with matplotlib (https://matplotlib.org/) -->
<svg height="504pt" version="1.1" viewBox="0 0 864 504" width="864pt" xmlns="http://www.w3.org/2000/svg" xmlns:xlink="http://www.w3.org/1999/xlink">
 <metadata>
  <rdf:RDF xmlns:cc="http://creativecommons.org/ns#" xmlns:dc="http://purl.org/dc/elements/1.1/" xmlns:rdf="http://www.w3.org/1999/02/22-rdf-syntax-ns#">
   <cc:Work>
    <dc:type rdf:resource="http://purl.org/dc/dcmitype/StillImage"/>
    <dc:date>2022-05-29T17:17:12.434560</dc:date>
    <dc:format>image/svg+xml</dc:format>
    <dc:creator>
     <cc:Agent>
      <dc:title>Matplotlib v3.3.4, https://matplotlib.org/</dc:title>
     </cc:Agent>
    </dc:creator>
   </cc:Work>
  </rdf:RDF>
 </metadata>
 <defs>
  <style type="text/css">*{stroke-linecap:butt;stroke-linejoin:round;}</style>
 </defs>
 <g id="figure_1">
  <g id="patch_1">
   <path d="M 0 504 
L 864 504 
L 864 0 
L 0 0 
z
" style="fill:#ffffff;"/>
  </g>
  <g id="axes_1">
   <g id="patch_2">
    <path d="M 108 448.56 
L 643.68 448.56 
L 643.68 60.48 
L 108 60.48 
z
" style="fill:#ffffff;"/>
   </g>
   <g id="matplotlib.axis_1">
    <g id="xtick_1">
     <g id="line2d_1">
      <defs>
       <path d="M 0 0 
L 0 3.5 
" id="ma1872df875" style="stroke:#000000;stroke-width:0.8;"/>
      </defs>
      <g>
       <use style="stroke:#000000;stroke-width:0.8;" x="132.349091" xlink:href="#ma1872df875" y="448.56"/>
      </g>
     </g>
     <g id="text_1">
      <!-- 21:02:31 -->
      <g transform="translate(135.108466 500.4725)rotate(-90)scale(0.1 -0.1)">
       <defs>
        <path d="M 19.1875 8.296875 
L 53.609375 8.296875 
L 53.609375 0 
L 7.328125 0 
L 7.328125 8.296875 
Q 12.9375 14.109375 22.625 23.890625 
Q 32.328125 33.6875 34.8125 36.53125 
Q 39.546875 41.84375 41.421875 45.53125 
Q 43.3125 49.21875 43.3125 52.78125 
Q 43.3125 58.59375 39.234375 62.25 
Q 35.15625 65.921875 28.609375 65.921875 
Q 23.96875 65.921875 18.8125 64.3125 
Q 13.671875 62.703125 7.8125 59.421875 
L 7.8125 69.390625 
Q 13.765625 71.78125 18.9375 73 
Q 24.125 74.21875 28.421875 74.21875 
Q 39.75 74.21875 46.484375 68.546875 
Q 53.21875 62.890625 53.21875 53.421875 
Q 53.21875 48.921875 51.53125 44.890625 
Q 49.859375 40.875 45.40625 35.40625 
Q 44.1875 33.984375 37.640625 27.21875 
Q 31.109375 20.453125 19.1875 8.296875 
z
" id="DejaVuSans-50"/>
        <path d="M 12.40625 8.296875 
L 28.515625 8.296875 
L 28.515625 63.921875 
L 10.984375 60.40625 
L 10.984375 69.390625 
L 28.421875 72.90625 
L 38.28125 72.90625 
L 38.28125 8.296875 
L 54.390625 8.296875 
L 54.390625 0 
L 12.40625 0 
z
" id="DejaVuSans-49"/>
        <path d="M 11.71875 12.40625 
L 22.015625 12.40625 
L 22.015625 0 
L 11.71875 0 
z
M 11.71875 51.703125 
L 22.015625 51.703125 
L 22.015625 39.3125 
L 11.71875 39.3125 
z
" id="DejaVuSans-58"/>
        <path d="M 31.78125 66.40625 
Q 24.171875 66.40625 20.328125 58.90625 
Q 16.5 51.421875 16.5 36.375 
Q 16.5 21.390625 20.328125 13.890625 
Q 24.171875 6.390625 31.78125 6.390625 
Q 39.453125 6.390625 43.28125 13.890625 
Q 47.125 21.390625 47.125 36.375 
Q 47.125 51.421875 43.28125 58.90625 
Q 39.453125 66.40625 31.78125 66.40625 
z
M 31.78125 74.21875 
Q 44.046875 74.21875 50.515625 64.515625 
Q 56.984375 54.828125 56.984375 36.375 
Q 56.984375 17.96875 50.515625 8.265625 
Q 44.046875 -1.421875 31.78125 -1.421875 
Q 19.53125 -1.421875 13.0625 8.265625 
Q 6.59375 17.96875 6.59375 36.375 
Q 6.59375 54.828125 13.0625 64.515625 
Q 19.53125 74.21875 31.78125 74.21875 
z
" id="DejaVuSans-48"/>
        <path d="M 40.578125 39.3125 
Q 47.65625 37.796875 51.625 33 
Q 55.609375 28.21875 55.609375 21.1875 
Q 55.609375 10.40625 48.1875 4.484375 
Q 40.765625 -1.421875 27.09375 -1.421875 
Q 22.515625 -1.421875 17.65625 -0.515625 
Q 12.796875 0.390625 7.625 2.203125 
L 7.625 11.71875 
Q 11.71875 9.328125 16.59375 8.109375 
Q 21.484375 6.890625 26.8125 6.890625 
Q 36.078125 6.890625 40.9375 10.546875 
Q 45.796875 14.203125 45.796875 21.1875 
Q 45.796875 27.640625 41.28125 31.265625 
Q 36.765625 34.90625 28.71875 34.90625 
L 20.21875 34.90625 
L 20.21875 43.015625 
L 29.109375 43.015625 
Q 36.375 43.015625 40.234375 45.921875 
Q 44.09375 48.828125 44.09375 54.296875 
Q 44.09375 59.90625 40.109375 62.90625 
Q 36.140625 65.921875 28.71875 65.921875 
Q 24.65625 65.921875 20.015625 65.03125 
Q 15.375 64.15625 9.8125 62.3125 
L 9.8125 71.09375 
Q 15.4375 72.65625 20.34375 73.4375 
Q 25.25 74.21875 29.59375 74.21875 
Q 40.828125 74.21875 47.359375 69.109375 
Q 53.90625 64.015625 53.90625 55.328125 
Q 53.90625 49.265625 50.4375 45.09375 
Q 46.96875 40.921875 40.578125 39.3125 
z
" id="DejaVuSans-51"/>
       </defs>
       <use xlink:href="#DejaVuSans-50"/>
       <use x="63.623047" xlink:href="#DejaVuSans-49"/>
       <use x="127.246094" xlink:href="#DejaVuSans-58"/>
       <use x="160.9375" xlink:href="#DejaVuSans-48"/>
       <use x="224.560547" xlink:href="#DejaVuSans-50"/>
       <use x="288.183594" xlink:href="#DejaVuSans-58"/>
       <use x="321.875" xlink:href="#DejaVuSans-51"/>
       <use x="385.498047" xlink:href="#DejaVuSans-49"/>
      </g>
     </g>
    </g>
    <g id="xtick_2">
     <g id="line2d_2">
      <g>
       <use style="stroke:#000000;stroke-width:0.8;" x="156.665322" xlink:href="#ma1872df875" y="448.56"/>
      </g>
     </g>
     <g id="text_2">
      <!-- 21:03:57 -->
      <g transform="translate(159.424697 500.4725)rotate(-90)scale(0.1 -0.1)">
       <defs>
        <path d="M 10.796875 72.90625 
L 49.515625 72.90625 
L 49.515625 64.59375 
L 19.828125 64.59375 
L 19.828125 46.734375 
Q 21.96875 47.46875 24.109375 47.828125 
Q 26.265625 48.1875 28.421875 48.1875 
Q 40.625 48.1875 47.75 41.5 
Q 54.890625 34.8125 54.890625 23.390625 
Q 54.890625 11.625 47.5625 5.09375 
Q 40.234375 -1.421875 26.90625 -1.421875 
Q 22.3125 -1.421875 17.546875 -0.640625 
Q 12.796875 0.140625 7.71875 1.703125 
L 7.71875 11.625 
Q 12.109375 9.234375 16.796875 8.0625 
Q 21.484375 6.890625 26.703125 6.890625 
Q 35.15625 6.890625 40.078125 11.328125 
Q 45.015625 15.765625 45.015625 23.390625 
Q 45.015625 31 40.078125 35.4375 
Q 35.15625 39.890625 26.703125 39.890625 
Q 22.75 39.890625 18.8125 39.015625 
Q 14.890625 38.140625 10.796875 36.28125 
z
" id="DejaVuSans-53"/>
        <path d="M 8.203125 72.90625 
L 55.078125 72.90625 
L 55.078125 68.703125 
L 28.609375 0 
L 18.3125 0 
L 43.21875 64.59375 
L 8.203125 64.59375 
z
" id="DejaVuSans-55"/>
       </defs>
       <use xlink:href="#DejaVuSans-50"/>
       <use x="63.623047" xlink:href="#DejaVuSans-49"/>
       <use x="127.246094" xlink:href="#DejaVuSans-58"/>
       <use x="160.9375" xlink:href="#DejaVuSans-48"/>
       <use x="224.560547" xlink:href="#DejaVuSans-51"/>
       <use x="288.183594" xlink:href="#DejaVuSans-58"/>
       <use x="321.875" xlink:href="#DejaVuSans-53"/>
       <use x="385.498047" xlink:href="#DejaVuSans-55"/>
      </g>
     </g>
    </g>
    <g id="xtick_3">
     <g id="line2d_3">
      <g>
       <use style="stroke:#000000;stroke-width:0.8;" x="180.981553" xlink:href="#ma1872df875" y="448.56"/>
      </g>
     </g>
     <g id="text_3">
      <!-- 21:05:23 -->
      <g transform="translate(183.740928 500.4725)rotate(-90)scale(0.1 -0.1)">
       <use xlink:href="#DejaVuSans-50"/>
       <use x="63.623047" xlink:href="#DejaVuSans-49"/>
       <use x="127.246094" xlink:href="#DejaVuSans-58"/>
       <use x="160.9375" xlink:href="#DejaVuSans-48"/>
       <use x="224.560547" xlink:href="#DejaVuSans-53"/>
       <use x="288.183594" xlink:href="#DejaVuSans-58"/>
       <use x="321.875" xlink:href="#DejaVuSans-50"/>
       <use x="385.498047" xlink:href="#DejaVuSans-51"/>
      </g>
     </g>
    </g>
    <g id="xtick_4">
     <g id="line2d_4">
      <g>
       <use style="stroke:#000000;stroke-width:0.8;" x="205.297784" xlink:href="#ma1872df875" y="448.56"/>
      </g>
     </g>
     <g id="text_4">
      <!-- 21:06:50 -->
      <g transform="translate(208.057159 500.4725)rotate(-90)scale(0.1 -0.1)">
       <defs>
        <path d="M 33.015625 40.375 
Q 26.375 40.375 22.484375 35.828125 
Q 18.609375 31.296875 18.609375 23.390625 
Q 18.609375 15.53125 22.484375 10.953125 
Q 26.375 6.390625 33.015625 6.390625 
Q 39.65625 6.390625 43.53125 10.953125 
Q 47.40625 15.53125 47.40625 23.390625 
Q 47.40625 31.296875 43.53125 35.828125 
Q 39.65625 40.375 33.015625 40.375 
z
M 52.59375 71.296875 
L 52.59375 62.3125 
Q 48.875 64.0625 45.09375 64.984375 
Q 41.3125 65.921875 37.59375 65.921875 
Q 27.828125 65.921875 22.671875 59.328125 
Q 17.53125 52.734375 16.796875 39.40625 
Q 19.671875 43.65625 24.015625 45.921875 
Q 28.375 48.1875 33.59375 48.1875 
Q 44.578125 48.1875 50.953125 41.515625 
Q 57.328125 34.859375 57.328125 23.390625 
Q 57.328125 12.15625 50.6875 5.359375 
Q 44.046875 -1.421875 33.015625 -1.421875 
Q 20.359375 -1.421875 13.671875 8.265625 
Q 6.984375 17.96875 6.984375 36.375 
Q 6.984375 53.65625 15.1875 63.9375 
Q 23.390625 74.21875 37.203125 74.21875 
Q 40.921875 74.21875 44.703125 73.484375 
Q 48.484375 72.75 52.59375 71.296875 
z
" id="DejaVuSans-54"/>
       </defs>
       <use xlink:href="#DejaVuSans-50"/>
       <use x="63.623047" xlink:href="#DejaVuSans-49"/>
       <use x="127.246094" xlink:href="#DejaVuSans-58"/>
       <use x="160.9375" xlink:href="#DejaVuSans-48"/>
       <use x="224.560547" xlink:href="#DejaVuSans-54"/>
       <use x="288.183594" xlink:href="#DejaVuSans-58"/>
       <use x="321.875" xlink:href="#DejaVuSans-53"/>
       <use x="385.498047" xlink:href="#DejaVuSans-48"/>
      </g>
     </g>
    </g>
    <g id="xtick_5">
     <g id="line2d_5">
      <g>
       <use style="stroke:#000000;stroke-width:0.8;" x="229.614015" xlink:href="#ma1872df875" y="448.56"/>
      </g>
     </g>
     <g id="text_5">
      <!-- 21:08:16 -->
      <g transform="translate(232.37339 500.4725)rotate(-90)scale(0.1 -0.1)">
       <defs>
        <path d="M 31.78125 34.625 
Q 24.75 34.625 20.71875 30.859375 
Q 16.703125 27.09375 16.703125 20.515625 
Q 16.703125 13.921875 20.71875 10.15625 
Q 24.75 6.390625 31.78125 6.390625 
Q 38.8125 6.390625 42.859375 10.171875 
Q 46.921875 13.96875 46.921875 20.515625 
Q 46.921875 27.09375 42.890625 30.859375 
Q 38.875 34.625 31.78125 34.625 
z
M 21.921875 38.8125 
Q 15.578125 40.375 12.03125 44.71875 
Q 8.5 49.078125 8.5 55.328125 
Q 8.5 64.0625 14.71875 69.140625 
Q 20.953125 74.21875 31.78125 74.21875 
Q 42.671875 74.21875 48.875 69.140625 
Q 55.078125 64.0625 55.078125 55.328125 
Q 55.078125 49.078125 51.53125 44.71875 
Q 48 40.375 41.703125 38.8125 
Q 48.828125 37.15625 52.796875 32.3125 
Q 56.78125 27.484375 56.78125 20.515625 
Q 56.78125 9.90625 50.3125 4.234375 
Q 43.84375 -1.421875 31.78125 -1.421875 
Q 19.734375 -1.421875 13.25 4.234375 
Q 6.78125 9.90625 6.78125 20.515625 
Q 6.78125 27.484375 10.78125 32.3125 
Q 14.796875 37.15625 21.921875 38.8125 
z
M 18.3125 54.390625 
Q 18.3125 48.734375 21.84375 45.5625 
Q 25.390625 42.390625 31.78125 42.390625 
Q 38.140625 42.390625 41.71875 45.5625 
Q 45.3125 48.734375 45.3125 54.390625 
Q 45.3125 60.0625 41.71875 63.234375 
Q 38.140625 66.40625 31.78125 66.40625 
Q 25.390625 66.40625 21.84375 63.234375 
Q 18.3125 60.0625 18.3125 54.390625 
z
" id="DejaVuSans-56"/>
       </defs>
       <use xlink:href="#DejaVuSans-50"/>
       <use x="63.623047" xlink:href="#DejaVuSans-49"/>
       <use x="127.246094" xlink:href="#DejaVuSans-58"/>
       <use x="160.9375" xlink:href="#DejaVuSans-48"/>
       <use x="224.560547" xlink:href="#DejaVuSans-56"/>
       <use x="288.183594" xlink:href="#DejaVuSans-58"/>
       <use x="321.875" xlink:href="#DejaVuSans-49"/>
       <use x="385.498047" xlink:href="#DejaVuSans-54"/>
      </g>
     </g>
    </g>
    <g id="xtick_6">
     <g id="line2d_6">
      <g>
       <use style="stroke:#000000;stroke-width:0.8;" x="253.930247" xlink:href="#ma1872df875" y="448.56"/>
      </g>
     </g>
     <g id="text_6">
      <!-- 21:09:42 -->
      <g transform="translate(256.689622 500.4725)rotate(-90)scale(0.1 -0.1)">
       <defs>
        <path d="M 10.984375 1.515625 
L 10.984375 10.5 
Q 14.703125 8.734375 18.5 7.8125 
Q 22.3125 6.890625 25.984375 6.890625 
Q 35.75 6.890625 40.890625 13.453125 
Q 46.046875 20.015625 46.78125 33.40625 
Q 43.953125 29.203125 39.59375 26.953125 
Q 35.25 24.703125 29.984375 24.703125 
Q 19.046875 24.703125 12.671875 31.3125 
Q 6.296875 37.9375 6.296875 49.421875 
Q 6.296875 60.640625 12.9375 67.421875 
Q 19.578125 74.21875 30.609375 74.21875 
Q 43.265625 74.21875 49.921875 64.515625 
Q 56.59375 54.828125 56.59375 36.375 
Q 56.59375 19.140625 48.40625 8.859375 
Q 40.234375 -1.421875 26.421875 -1.421875 
Q 22.703125 -1.421875 18.890625 -0.6875 
Q 15.09375 0.046875 10.984375 1.515625 
z
M 30.609375 32.421875 
Q 37.25 32.421875 41.125 36.953125 
Q 45.015625 41.5 45.015625 49.421875 
Q 45.015625 57.28125 41.125 61.84375 
Q 37.25 66.40625 30.609375 66.40625 
Q 23.96875 66.40625 20.09375 61.84375 
Q 16.21875 57.28125 16.21875 49.421875 
Q 16.21875 41.5 20.09375 36.953125 
Q 23.96875 32.421875 30.609375 32.421875 
z
" id="DejaVuSans-57"/>
        <path d="M 37.796875 64.3125 
L 12.890625 25.390625 
L 37.796875 25.390625 
z
M 35.203125 72.90625 
L 47.609375 72.90625 
L 47.609375 25.390625 
L 58.015625 25.390625 
L 58.015625 17.1875 
L 47.609375 17.1875 
L 47.609375 0 
L 37.796875 0 
L 37.796875 17.1875 
L 4.890625 17.1875 
L 4.890625 26.703125 
z
" id="DejaVuSans-52"/>
       </defs>
       <use xlink:href="#DejaVuSans-50"/>
       <use x="63.623047" xlink:href="#DejaVuSans-49"/>
       <use x="127.246094" xlink:href="#DejaVuSans-58"/>
       <use x="160.9375" xlink:href="#DejaVuSans-48"/>
       <use x="224.560547" xlink:href="#DejaVuSans-57"/>
       <use x="288.183594" xlink:href="#DejaVuSans-58"/>
       <use x="321.875" xlink:href="#DejaVuSans-52"/>
       <use x="385.498047" xlink:href="#DejaVuSans-50"/>
      </g>
     </g>
    </g>
    <g id="xtick_7">
     <g id="line2d_7">
      <g>
       <use style="stroke:#000000;stroke-width:0.8;" x="278.246478" xlink:href="#ma1872df875" y="448.56"/>
      </g>
     </g>
     <g id="text_7">
      <!-- 21:11:09 -->
      <g transform="translate(281.005853 500.4725)rotate(-90)scale(0.1 -0.1)">
       <use xlink:href="#DejaVuSans-50"/>
       <use x="63.623047" xlink:href="#DejaVuSans-49"/>
       <use x="127.246094" xlink:href="#DejaVuSans-58"/>
       <use x="160.9375" xlink:href="#DejaVuSans-49"/>
       <use x="224.560547" xlink:href="#DejaVuSans-49"/>
       <use x="288.183594" xlink:href="#DejaVuSans-58"/>
       <use x="321.875" xlink:href="#DejaVuSans-48"/>
       <use x="385.498047" xlink:href="#DejaVuSans-57"/>
      </g>
     </g>
    </g>
    <g id="xtick_8">
     <g id="line2d_8">
      <g>
       <use style="stroke:#000000;stroke-width:0.8;" x="302.562709" xlink:href="#ma1872df875" y="448.56"/>
      </g>
     </g>
     <g id="text_8">
      <!-- 21:12:35 -->
      <g transform="translate(305.322084 500.4725)rotate(-90)scale(0.1 -0.1)">
       <use xlink:href="#DejaVuSans-50"/>
       <use x="63.623047" xlink:href="#DejaVuSans-49"/>
       <use x="127.246094" xlink:href="#DejaVuSans-58"/>
       <use x="160.9375" xlink:href="#DejaVuSans-49"/>
       <use x="224.560547" xlink:href="#DejaVuSans-50"/>
       <use x="288.183594" xlink:href="#DejaVuSans-58"/>
       <use x="321.875" xlink:href="#DejaVuSans-51"/>
       <use x="385.498047" xlink:href="#DejaVuSans-53"/>
      </g>
     </g>
    </g>
    <g id="xtick_9">
     <g id="line2d_9">
      <g>
       <use style="stroke:#000000;stroke-width:0.8;" x="326.87894" xlink:href="#ma1872df875" y="448.56"/>
      </g>
     </g>
     <g id="text_9">
      <!-- 21:14:01 -->
      <g transform="translate(329.638315 500.4725)rotate(-90)scale(0.1 -0.1)">
       <use xlink:href="#DejaVuSans-50"/>
       <use x="63.623047" xlink:href="#DejaVuSans-49"/>
       <use x="127.246094" xlink:href="#DejaVuSans-58"/>
       <use x="160.9375" xlink:href="#DejaVuSans-49"/>
       <use x="224.560547" xlink:href="#DejaVuSans-52"/>
       <use x="288.183594" xlink:href="#DejaVuSans-58"/>
       <use x="321.875" xlink:href="#DejaVuSans-48"/>
       <use x="385.498047" xlink:href="#DejaVuSans-49"/>
      </g>
     </g>
    </g>
    <g id="xtick_10">
     <g id="line2d_10">
      <g>
       <use style="stroke:#000000;stroke-width:0.8;" x="351.195171" xlink:href="#ma1872df875" y="448.56"/>
      </g>
     </g>
     <g id="text_10">
      <!-- 21:15:28 -->
      <g transform="translate(353.954546 500.4725)rotate(-90)scale(0.1 -0.1)">
       <use xlink:href="#DejaVuSans-50"/>
       <use x="63.623047" xlink:href="#DejaVuSans-49"/>
       <use x="127.246094" xlink:href="#DejaVuSans-58"/>
       <use x="160.9375" xlink:href="#DejaVuSans-49"/>
       <use x="224.560547" xlink:href="#DejaVuSans-53"/>
       <use x="288.183594" xlink:href="#DejaVuSans-58"/>
       <use x="321.875" xlink:href="#DejaVuSans-50"/>
       <use x="385.498047" xlink:href="#DejaVuSans-56"/>
      </g>
     </g>
    </g>
    <g id="xtick_11">
     <g id="line2d_11">
      <g>
       <use style="stroke:#000000;stroke-width:0.8;" x="375.511402" xlink:href="#ma1872df875" y="448.56"/>
      </g>
     </g>
     <g id="text_11">
      <!-- 21:16:54 -->
      <g transform="translate(378.270777 500.4725)rotate(-90)scale(0.1 -0.1)">
       <use xlink:href="#DejaVuSans-50"/>
       <use x="63.623047" xlink:href="#DejaVuSans-49"/>
       <use x="127.246094" xlink:href="#DejaVuSans-58"/>
       <use x="160.9375" xlink:href="#DejaVuSans-49"/>
       <use x="224.560547" xlink:href="#DejaVuSans-54"/>
       <use x="288.183594" xlink:href="#DejaVuSans-58"/>
       <use x="321.875" xlink:href="#DejaVuSans-53"/>
       <use x="385.498047" xlink:href="#DejaVuSans-52"/>
      </g>
     </g>
    </g>
    <g id="xtick_12">
     <g id="line2d_12">
      <g>
       <use style="stroke:#000000;stroke-width:0.8;" x="399.827633" xlink:href="#ma1872df875" y="448.56"/>
      </g>
     </g>
     <g id="text_12">
      <!-- 21:18:20 -->
      <g transform="translate(402.587008 500.4725)rotate(-90)scale(0.1 -0.1)">
       <use xlink:href="#DejaVuSans-50"/>
       <use x="63.623047" xlink:href="#DejaVuSans-49"/>
       <use x="127.246094" xlink:href="#DejaVuSans-58"/>
       <use x="160.9375" xlink:href="#DejaVuSans-49"/>
       <use x="224.560547" xlink:href="#DejaVuSans-56"/>
       <use x="288.183594" xlink:href="#DejaVuSans-58"/>
       <use x="321.875" xlink:href="#DejaVuSans-50"/>
       <use x="385.498047" xlink:href="#DejaVuSans-48"/>
      </g>
     </g>
    </g>
    <g id="xtick_13">
     <g id="line2d_13">
      <g>
       <use style="stroke:#000000;stroke-width:0.8;" x="424.143865" xlink:href="#ma1872df875" y="448.56"/>
      </g>
     </g>
     <g id="text_13">
      <!-- 21:19:46 -->
      <g transform="translate(426.90324 500.4725)rotate(-90)scale(0.1 -0.1)">
       <use xlink:href="#DejaVuSans-50"/>
       <use x="63.623047" xlink:href="#DejaVuSans-49"/>
       <use x="127.246094" xlink:href="#DejaVuSans-58"/>
       <use x="160.9375" xlink:href="#DejaVuSans-49"/>
       <use x="224.560547" xlink:href="#DejaVuSans-57"/>
       <use x="288.183594" xlink:href="#DejaVuSans-58"/>
       <use x="321.875" xlink:href="#DejaVuSans-52"/>
       <use x="385.498047" xlink:href="#DejaVuSans-54"/>
      </g>
     </g>
    </g>
    <g id="xtick_14">
     <g id="line2d_14">
      <g>
       <use style="stroke:#000000;stroke-width:0.8;" x="448.460096" xlink:href="#ma1872df875" y="448.56"/>
      </g>
     </g>
     <g id="text_14">
      <!-- 21:21:13 -->
      <g transform="translate(451.219471 500.4725)rotate(-90)scale(0.1 -0.1)">
       <use xlink:href="#DejaVuSans-50"/>
       <use x="63.623047" xlink:href="#DejaVuSans-49"/>
       <use x="127.246094" xlink:href="#DejaVuSans-58"/>
       <use x="160.9375" xlink:href="#DejaVuSans-50"/>
       <use x="224.560547" xlink:href="#DejaVuSans-49"/>
       <use x="288.183594" xlink:href="#DejaVuSans-58"/>
       <use x="321.875" xlink:href="#DejaVuSans-49"/>
       <use x="385.498047" xlink:href="#DejaVuSans-51"/>
      </g>
     </g>
    </g>
    <g id="xtick_15">
     <g id="line2d_15">
      <g>
       <use style="stroke:#000000;stroke-width:0.8;" x="472.776327" xlink:href="#ma1872df875" y="448.56"/>
      </g>
     </g>
     <g id="text_15">
      <!-- 21:22:39 -->
      <g transform="translate(475.535702 500.4725)rotate(-90)scale(0.1 -0.1)">
       <use xlink:href="#DejaVuSans-50"/>
       <use x="63.623047" xlink:href="#DejaVuSans-49"/>
       <use x="127.246094" xlink:href="#DejaVuSans-58"/>
       <use x="160.9375" xlink:href="#DejaVuSans-50"/>
       <use x="224.560547" xlink:href="#DejaVuSans-50"/>
       <use x="288.183594" xlink:href="#DejaVuSans-58"/>
       <use x="321.875" xlink:href="#DejaVuSans-51"/>
       <use x="385.498047" xlink:href="#DejaVuSans-57"/>
      </g>
     </g>
    </g>
    <g id="xtick_16">
     <g id="line2d_16">
      <g>
       <use style="stroke:#000000;stroke-width:0.8;" x="497.092558" xlink:href="#ma1872df875" y="448.56"/>
      </g>
     </g>
     <g id="text_16">
      <!-- 21:24:05 -->
      <g transform="translate(499.851933 500.4725)rotate(-90)scale(0.1 -0.1)">
       <use xlink:href="#DejaVuSans-50"/>
       <use x="63.623047" xlink:href="#DejaVuSans-49"/>
       <use x="127.246094" xlink:href="#DejaVuSans-58"/>
       <use x="160.9375" xlink:href="#DejaVuSans-50"/>
       <use x="224.560547" xlink:href="#DejaVuSans-52"/>
       <use x="288.183594" xlink:href="#DejaVuSans-58"/>
       <use x="321.875" xlink:href="#DejaVuSans-48"/>
       <use x="385.498047" xlink:href="#DejaVuSans-53"/>
      </g>
     </g>
    </g>
    <g id="xtick_17">
     <g id="line2d_17">
      <g>
       <use style="stroke:#000000;stroke-width:0.8;" x="521.408789" xlink:href="#ma1872df875" y="448.56"/>
      </g>
     </g>
     <g id="text_17">
      <!-- 21:25:31 -->
      <g transform="translate(524.168164 500.4725)rotate(-90)scale(0.1 -0.1)">
       <use xlink:href="#DejaVuSans-50"/>
       <use x="63.623047" xlink:href="#DejaVuSans-49"/>
       <use x="127.246094" xlink:href="#DejaVuSans-58"/>
       <use x="160.9375" xlink:href="#DejaVuSans-50"/>
       <use x="224.560547" xlink:href="#DejaVuSans-53"/>
       <use x="288.183594" xlink:href="#DejaVuSans-58"/>
       <use x="321.875" xlink:href="#DejaVuSans-51"/>
       <use x="385.498047" xlink:href="#DejaVuSans-49"/>
      </g>
     </g>
    </g>
    <g id="xtick_18">
     <g id="line2d_18">
      <g>
       <use style="stroke:#000000;stroke-width:0.8;" x="545.72502" xlink:href="#ma1872df875" y="448.56"/>
      </g>
     </g>
     <g id="text_18">
      <!-- 21:26:57 -->
      <g transform="translate(548.484395 500.4725)rotate(-90)scale(0.1 -0.1)">
       <use xlink:href="#DejaVuSans-50"/>
       <use x="63.623047" xlink:href="#DejaVuSans-49"/>
       <use x="127.246094" xlink:href="#DejaVuSans-58"/>
       <use x="160.9375" xlink:href="#DejaVuSans-50"/>
       <use x="224.560547" xlink:href="#DejaVuSans-54"/>
       <use x="288.183594" xlink:href="#DejaVuSans-58"/>
       <use x="321.875" xlink:href="#DejaVuSans-53"/>
       <use x="385.498047" xlink:href="#DejaVuSans-55"/>
      </g>
     </g>
    </g>
    <g id="xtick_19">
     <g id="line2d_19">
      <g>
       <use style="stroke:#000000;stroke-width:0.8;" x="570.041251" xlink:href="#ma1872df875" y="448.56"/>
      </g>
     </g>
     <g id="text_19">
      <!-- 21:28:24 -->
      <g transform="translate(572.800626 500.4725)rotate(-90)scale(0.1 -0.1)">
       <use xlink:href="#DejaVuSans-50"/>
       <use x="63.623047" xlink:href="#DejaVuSans-49"/>
       <use x="127.246094" xlink:href="#DejaVuSans-58"/>
       <use x="160.9375" xlink:href="#DejaVuSans-50"/>
       <use x="224.560547" xlink:href="#DejaVuSans-56"/>
       <use x="288.183594" xlink:href="#DejaVuSans-58"/>
       <use x="321.875" xlink:href="#DejaVuSans-50"/>
       <use x="385.498047" xlink:href="#DejaVuSans-52"/>
      </g>
     </g>
    </g>
    <g id="xtick_20">
     <g id="line2d_20">
      <g>
       <use style="stroke:#000000;stroke-width:0.8;" x="594.357483" xlink:href="#ma1872df875" y="448.56"/>
      </g>
     </g>
     <g id="text_20">
      <!-- 21:29:50 -->
      <g transform="translate(597.116858 500.4725)rotate(-90)scale(0.1 -0.1)">
       <use xlink:href="#DejaVuSans-50"/>
       <use x="63.623047" xlink:href="#DejaVuSans-49"/>
       <use x="127.246094" xlink:href="#DejaVuSans-58"/>
       <use x="160.9375" xlink:href="#DejaVuSans-50"/>
       <use x="224.560547" xlink:href="#DejaVuSans-57"/>
       <use x="288.183594" xlink:href="#DejaVuSans-58"/>
       <use x="321.875" xlink:href="#DejaVuSans-53"/>
       <use x="385.498047" xlink:href="#DejaVuSans-48"/>
      </g>
     </g>
    </g>
    <g id="xtick_21">
     <g id="line2d_21">
      <g>
       <use style="stroke:#000000;stroke-width:0.8;" x="618.673714" xlink:href="#ma1872df875" y="448.56"/>
      </g>
     </g>
     <g id="text_21">
      <!-- 21:31:17 -->
      <g transform="translate(621.433089 500.4725)rotate(-90)scale(0.1 -0.1)">
       <use xlink:href="#DejaVuSans-50"/>
       <use x="63.623047" xlink:href="#DejaVuSans-49"/>
       <use x="127.246094" xlink:href="#DejaVuSans-58"/>
       <use x="160.9375" xlink:href="#DejaVuSans-51"/>
       <use x="224.560547" xlink:href="#DejaVuSans-49"/>
       <use x="288.183594" xlink:href="#DejaVuSans-58"/>
       <use x="321.875" xlink:href="#DejaVuSans-49"/>
       <use x="385.498047" xlink:href="#DejaVuSans-55"/>
      </g>
     </g>
    </g>
    <g id="text_22">
     <!-- timestamp -->
     <g transform="translate(354.264375 510.55125)scale(0.08 -0.08)">
      <defs>
       <path d="M 18.3125 70.21875 
L 18.3125 54.6875 
L 36.8125 54.6875 
L 36.8125 47.703125 
L 18.3125 47.703125 
L 18.3125 18.015625 
Q 18.3125 11.328125 20.140625 9.421875 
Q 21.96875 7.515625 27.59375 7.515625 
L 36.8125 7.515625 
L 36.8125 0 
L 27.59375 0 
Q 17.1875 0 13.234375 3.875 
Q 9.28125 7.765625 9.28125 18.015625 
L 9.28125 47.703125 
L 2.6875 47.703125 
L 2.6875 54.6875 
L 9.28125 54.6875 
L 9.28125 70.21875 
z
" id="DejaVuSans-116"/>
       <path d="M 9.421875 54.6875 
L 18.40625 54.6875 
L 18.40625 0 
L 9.421875 0 
z
M 9.421875 75.984375 
L 18.40625 75.984375 
L 18.40625 64.59375 
L 9.421875 64.59375 
z
" id="DejaVuSans-105"/>
       <path d="M 52 44.1875 
Q 55.375 50.25 60.0625 53.125 
Q 64.75 56 71.09375 56 
Q 79.640625 56 84.28125 50.015625 
Q 88.921875 44.046875 88.921875 33.015625 
L 88.921875 0 
L 79.890625 0 
L 79.890625 32.71875 
Q 79.890625 40.578125 77.09375 44.375 
Q 74.3125 48.1875 68.609375 48.1875 
Q 61.625 48.1875 57.5625 43.546875 
Q 53.515625 38.921875 53.515625 30.90625 
L 53.515625 0 
L 44.484375 0 
L 44.484375 32.71875 
Q 44.484375 40.625 41.703125 44.40625 
Q 38.921875 48.1875 33.109375 48.1875 
Q 26.21875 48.1875 22.15625 43.53125 
Q 18.109375 38.875 18.109375 30.90625 
L 18.109375 0 
L 9.078125 0 
L 9.078125 54.6875 
L 18.109375 54.6875 
L 18.109375 46.1875 
Q 21.1875 51.21875 25.484375 53.609375 
Q 29.78125 56 35.6875 56 
Q 41.65625 56 45.828125 52.96875 
Q 50 49.953125 52 44.1875 
z
" id="DejaVuSans-109"/>
       <path d="M 56.203125 29.59375 
L 56.203125 25.203125 
L 14.890625 25.203125 
Q 15.484375 15.921875 20.484375 11.0625 
Q 25.484375 6.203125 34.421875 6.203125 
Q 39.59375 6.203125 44.453125 7.46875 
Q 49.3125 8.734375 54.109375 11.28125 
L 54.109375 2.78125 
Q 49.265625 0.734375 44.1875 -0.34375 
Q 39.109375 -1.421875 33.890625 -1.421875 
Q 20.796875 -1.421875 13.15625 6.1875 
Q 5.515625 13.8125 5.515625 26.8125 
Q 5.515625 40.234375 12.765625 48.109375 
Q 20.015625 56 32.328125 56 
Q 43.359375 56 49.78125 48.890625 
Q 56.203125 41.796875 56.203125 29.59375 
z
M 47.21875 32.234375 
Q 47.125 39.59375 43.09375 43.984375 
Q 39.0625 48.390625 32.421875 48.390625 
Q 24.90625 48.390625 20.390625 44.140625 
Q 15.875 39.890625 15.1875 32.171875 
z
" id="DejaVuSans-101"/>
       <path d="M 44.28125 53.078125 
L 44.28125 44.578125 
Q 40.484375 46.53125 36.375 47.5 
Q 32.28125 48.484375 27.875 48.484375 
Q 21.1875 48.484375 17.84375 46.4375 
Q 14.5 44.390625 14.5 40.28125 
Q 14.5 37.15625 16.890625 35.375 
Q 19.28125 33.59375 26.515625 31.984375 
L 29.59375 31.296875 
Q 39.15625 29.25 43.1875 25.515625 
Q 47.21875 21.78125 47.21875 15.09375 
Q 47.21875 7.46875 41.1875 3.015625 
Q 35.15625 -1.421875 24.609375 -1.421875 
Q 20.21875 -1.421875 15.453125 -0.5625 
Q 10.6875 0.296875 5.421875 2 
L 5.421875 11.28125 
Q 10.40625 8.6875 15.234375 7.390625 
Q 20.0625 6.109375 24.8125 6.109375 
Q 31.15625 6.109375 34.5625 8.28125 
Q 37.984375 10.453125 37.984375 14.40625 
Q 37.984375 18.0625 35.515625 20.015625 
Q 33.0625 21.96875 24.703125 23.78125 
L 21.578125 24.515625 
Q 13.234375 26.265625 9.515625 29.90625 
Q 5.8125 33.546875 5.8125 39.890625 
Q 5.8125 47.609375 11.28125 51.796875 
Q 16.75 56 26.8125 56 
Q 31.78125 56 36.171875 55.265625 
Q 40.578125 54.546875 44.28125 53.078125 
z
" id="DejaVuSans-115"/>
       <path d="M 34.28125 27.484375 
Q 23.390625 27.484375 19.1875 25 
Q 14.984375 22.515625 14.984375 16.5 
Q 14.984375 11.71875 18.140625 8.90625 
Q 21.296875 6.109375 26.703125 6.109375 
Q 34.1875 6.109375 38.703125 11.40625 
Q 43.21875 16.703125 43.21875 25.484375 
L 43.21875 27.484375 
z
M 52.203125 31.203125 
L 52.203125 0 
L 43.21875 0 
L 43.21875 8.296875 
Q 40.140625 3.328125 35.546875 0.953125 
Q 30.953125 -1.421875 24.3125 -1.421875 
Q 15.921875 -1.421875 10.953125 3.296875 
Q 6 8.015625 6 15.921875 
Q 6 25.140625 12.171875 29.828125 
Q 18.359375 34.515625 30.609375 34.515625 
L 43.21875 34.515625 
L 43.21875 35.40625 
Q 43.21875 41.609375 39.140625 45 
Q 35.0625 48.390625 27.6875 48.390625 
Q 23 48.390625 18.546875 47.265625 
Q 14.109375 46.140625 10.015625 43.890625 
L 10.015625 52.203125 
Q 14.9375 54.109375 19.578125 55.046875 
Q 24.21875 56 28.609375 56 
Q 40.484375 56 46.34375 49.84375 
Q 52.203125 43.703125 52.203125 31.203125 
z
" id="DejaVuSans-97"/>
       <path d="M 18.109375 8.203125 
L 18.109375 -20.796875 
L 9.078125 -20.796875 
L 9.078125 54.6875 
L 18.109375 54.6875 
L 18.109375 46.390625 
Q 20.953125 51.265625 25.265625 53.625 
Q 29.59375 56 35.59375 56 
Q 45.5625 56 51.78125 48.09375 
Q 58.015625 40.1875 58.015625 27.296875 
Q 58.015625 14.40625 51.78125 6.484375 
Q 45.5625 -1.421875 35.59375 -1.421875 
Q 29.59375 -1.421875 25.265625 0.953125 
Q 20.953125 3.328125 18.109375 8.203125 
z
M 48.6875 27.296875 
Q 48.6875 37.203125 44.609375 42.84375 
Q 40.53125 48.484375 33.40625 48.484375 
Q 26.265625 48.484375 22.1875 42.84375 
Q 18.109375 37.203125 18.109375 27.296875 
Q 18.109375 17.390625 22.1875 11.75 
Q 26.265625 6.109375 33.40625 6.109375 
Q 40.53125 6.109375 44.609375 11.75 
Q 48.6875 17.390625 48.6875 27.296875 
z
" id="DejaVuSans-112"/>
      </defs>
      <use xlink:href="#DejaVuSans-116"/>
      <use x="39.208984" xlink:href="#DejaVuSans-105"/>
      <use x="66.992188" xlink:href="#DejaVuSans-109"/>
      <use x="164.404297" xlink:href="#DejaVuSans-101"/>
      <use x="225.927734" xlink:href="#DejaVuSans-115"/>
      <use x="278.027344" xlink:href="#DejaVuSans-116"/>
      <use x="317.236328" xlink:href="#DejaVuSans-97"/>
      <use x="378.515625" xlink:href="#DejaVuSans-109"/>
      <use x="475.927734" xlink:href="#DejaVuSans-112"/>
     </g>
    </g>
   </g>
   <g id="matplotlib.axis_2">
    <g id="ytick_1">
     <g id="line2d_22">
      <defs>
       <path d="M 0 0 
L -3.5 0 
" id="m831f68c6dc" style="stroke:#000000;stroke-width:0.8;"/>
      </defs>
      <g>
       <use style="stroke:#000000;stroke-width:0.8;" x="108" xlink:href="#m831f68c6dc" y="400.67704"/>
      </g>
     </g>
     <g id="text_23">
      <!-- 10800 -->
      <g transform="translate(69.1875 404.476259)scale(0.1 -0.1)">
       <use xlink:href="#DejaVuSans-49"/>
       <use x="63.623047" xlink:href="#DejaVuSans-48"/>
       <use x="127.246094" xlink:href="#DejaVuSans-56"/>
       <use x="190.869141" xlink:href="#DejaVuSans-48"/>
       <use x="254.492188" xlink:href="#DejaVuSans-48"/>
      </g>
     </g>
    </g>
    <g id="ytick_2">
     <g id="line2d_23">
      <g>
       <use style="stroke:#000000;stroke-width:0.8;" x="108" xlink:href="#m831f68c6dc" y="342.474969"/>
      </g>
     </g>
     <g id="text_24">
      <!-- 11000 -->
      <g transform="translate(69.1875 346.274188)scale(0.1 -0.1)">
       <use xlink:href="#DejaVuSans-49"/>
       <use x="63.623047" xlink:href="#DejaVuSans-49"/>
       <use x="127.246094" xlink:href="#DejaVuSans-48"/>
       <use x="190.869141" xlink:href="#DejaVuSans-48"/>
       <use x="254.492188" xlink:href="#DejaVuSans-48"/>
      </g>
     </g>
    </g>
    <g id="ytick_3">
     <g id="line2d_24">
      <g>
       <use style="stroke:#000000;stroke-width:0.8;" x="108" xlink:href="#m831f68c6dc" y="284.272899"/>
      </g>
     </g>
     <g id="text_25">
      <!-- 11200 -->
      <g transform="translate(69.1875 288.072117)scale(0.1 -0.1)">
       <use xlink:href="#DejaVuSans-49"/>
       <use x="63.623047" xlink:href="#DejaVuSans-49"/>
       <use x="127.246094" xlink:href="#DejaVuSans-50"/>
       <use x="190.869141" xlink:href="#DejaVuSans-48"/>
       <use x="254.492188" xlink:href="#DejaVuSans-48"/>
      </g>
     </g>
    </g>
    <g id="ytick_4">
     <g id="line2d_25">
      <g>
       <use style="stroke:#000000;stroke-width:0.8;" x="108" xlink:href="#m831f68c6dc" y="226.070828"/>
      </g>
     </g>
     <g id="text_26">
      <!-- 11400 -->
      <g transform="translate(69.1875 229.870047)scale(0.1 -0.1)">
       <use xlink:href="#DejaVuSans-49"/>
       <use x="63.623047" xlink:href="#DejaVuSans-49"/>
       <use x="127.246094" xlink:href="#DejaVuSans-52"/>
       <use x="190.869141" xlink:href="#DejaVuSans-48"/>
       <use x="254.492188" xlink:href="#DejaVuSans-48"/>
      </g>
     </g>
    </g>
    <g id="ytick_5">
     <g id="line2d_26">
      <g>
       <use style="stroke:#000000;stroke-width:0.8;" x="108" xlink:href="#m831f68c6dc" y="167.868757"/>
      </g>
     </g>
     <g id="text_27">
      <!-- 11600 -->
      <g transform="translate(69.1875 171.667976)scale(0.1 -0.1)">
       <use xlink:href="#DejaVuSans-49"/>
       <use x="63.623047" xlink:href="#DejaVuSans-49"/>
       <use x="127.246094" xlink:href="#DejaVuSans-54"/>
       <use x="190.869141" xlink:href="#DejaVuSans-48"/>
       <use x="254.492188" xlink:href="#DejaVuSans-48"/>
      </g>
     </g>
    </g>
    <g id="ytick_6">
     <g id="line2d_27">
      <g>
       <use style="stroke:#000000;stroke-width:0.8;" x="108" xlink:href="#m831f68c6dc" y="109.666686"/>
      </g>
     </g>
     <g id="text_28">
      <!-- 11800 -->
      <g transform="translate(69.1875 113.465905)scale(0.1 -0.1)">
       <use xlink:href="#DejaVuSans-49"/>
       <use x="63.623047" xlink:href="#DejaVuSans-49"/>
       <use x="127.246094" xlink:href="#DejaVuSans-56"/>
       <use x="190.869141" xlink:href="#DejaVuSans-48"/>
       <use x="254.492188" xlink:href="#DejaVuSans-48"/>
      </g>
     </g>
    </g>
    <g id="text_29">
     <!-- MB -->
     <g transform="translate(63.52375 260.715625)rotate(-90)scale(0.08 -0.08)">
      <defs>
       <path d="M 9.8125 72.90625 
L 24.515625 72.90625 
L 43.109375 23.296875 
L 61.8125 72.90625 
L 76.515625 72.90625 
L 76.515625 0 
L 66.890625 0 
L 66.890625 64.015625 
L 48.09375 14.015625 
L 38.1875 14.015625 
L 19.390625 64.015625 
L 19.390625 0 
L 9.8125 0 
z
" id="DejaVuSans-77"/>
       <path d="M 19.671875 34.8125 
L 19.671875 8.109375 
L 35.5 8.109375 
Q 43.453125 8.109375 47.28125 11.40625 
Q 51.125 14.703125 51.125 21.484375 
Q 51.125 28.328125 47.28125 31.5625 
Q 43.453125 34.8125 35.5 34.8125 
z
M 19.671875 64.796875 
L 19.671875 42.828125 
L 34.28125 42.828125 
Q 41.5 42.828125 45.03125 45.53125 
Q 48.578125 48.25 48.578125 53.8125 
Q 48.578125 59.328125 45.03125 62.0625 
Q 41.5 64.796875 34.28125 64.796875 
z
M 9.8125 72.90625 
L 35.015625 72.90625 
Q 46.296875 72.90625 52.390625 68.21875 
Q 58.5 63.53125 58.5 54.890625 
Q 58.5 48.1875 55.375 44.234375 
Q 52.25 40.28125 46.1875 39.3125 
Q 53.46875 37.75 57.5 32.78125 
Q 61.53125 27.828125 61.53125 20.40625 
Q 61.53125 10.640625 54.890625 5.3125 
Q 48.25 0 35.984375 0 
L 9.8125 0 
z
" id="DejaVuSans-66"/>
      </defs>
      <use xlink:href="#DejaVuSans-77"/>
      <use x="86.279297" xlink:href="#DejaVuSans-66"/>
     </g>
    </g>
   </g>
   <g id="line2d_28">
    <path clip-path="url(#p7e28cae2ae)" d="M 132.349091 84.174179 
L 132.677689 81.673818 
L 133.006286 80.939308 
L 133.334884 80.512105 
L 133.663482 79.598333 
L 133.992079 79.07335 
L 134.320677 78.12 
L 134.977873 79.778759 
L 135.30647 79.618121 
L 135.635068 79.090811 
L 135.963666 78.137461 
L 136.292264 78.45408 
L 136.949459 102.909426 
L 137.606654 151.468578 
L 137.935252 214.390836 
L 139.249643 326.233099 
L 139.578241 358.379267 
L 139.906838 376.26942 
L 140.235436 384.887982 
L 140.564034 387.466334 
L 140.892632 387.764329 
L 141.221229 392.519438 
L 141.549827 391.439207 
L 142.207022 397.818154 
L 142.53562 398.004401 
L 142.864218 399.72951 
L 143.192816 398.642296 
L 143.521413 398.766848 
L 143.850011 399.566544 
L 144.178609 398.385042 
L 144.507206 398.011385 
L 144.835804 399.648027 
L 145.164402 402.305534 
L 145.821597 402.220559 
L 146.150195 401.555891 
L 146.478793 402.162357 
L 146.807391 403.084278 
L 147.135988 403.049356 
L 147.464586 401.821293 
L 147.793184 401.091439 
L 148.121781 402.907343 
L 148.450379 402.87475 
L 148.778977 402.319502 
L 149.107575 401.320755 
L 149.436172 401.408058 
L 149.76477 403.020255 
L 150.421965 402.233363 
L 150.750563 401.331231 
L 151.079161 404.036464 
L 151.407759 404.225038 
L 152.064954 403.460263 
L 152.393552 401.714201 
L 152.722149 402.497601 
L 153.379345 401.669967 
L 153.707943 400.802756 
L 154.03654 401.985423 
L 154.365138 401.859706 
L 154.693736 401.590813 
L 155.022333 400.660743 
L 155.350931 401.540759 
L 155.679529 403.162268 
L 156.008127 403.435818 
L 156.336724 403.111051 
L 156.665322 402.208919 
L 156.99392 402.909671 
L 157.651115 402.861946 
L 157.979713 402.048281 
L 158.636908 403.906091 
L 158.965506 404.20525 
L 159.294104 404.015511 
L 159.622702 402.602365 
L 159.951299 403.350843 
L 160.279897 403.807147 
L 160.608495 403.606932 
L 160.937092 401.496525 
L 161.26569 401.557055 
L 161.594288 403.702384 
L 161.922886 402.960889 
L 162.251483 402.922476 
L 162.580081 402.163521 
L 162.908679 404.077205 
L 163.237276 404.393824 
L 163.894472 402.895703 
L 164.551667 404.376364 
L 164.880265 403.814132 
L 165.208863 403.71868 
L 165.53746 402.53485 
L 165.866058 404.346099 
L 166.194656 404.814043 
L 166.523254 404.628961 
L 166.851851 403.455607 
L 167.180449 402.714112 
L 167.509047 403.282165 
L 168.166242 401.419698 
L 168.49484 405.025899 
L 168.823438 406.203909 
L 169.152035 406.182956 
L 169.480633 402.81422 
L 169.809231 401.945845 
L 170.137828 402.815384 
L 170.466426 404.005034 
L 171.123622 407.429644 
L 171.452219 406.543809 
L 171.780817 404.79309 
L 172.109415 405.155107 
L 172.438013 405.18188 
L 172.76661 403.857201 
L 173.095208 404.285568 
L 173.423806 404.164508 
L 173.752403 402.455695 
L 174.081001 401.496525 
L 174.409599 401.601289 
L 174.738197 404.043448 
L 175.066794 403.759422 
L 175.395392 407.043183 
L 175.72399 406.18994 
L 176.052587 406.149199 
L 176.381185 408.213044 
L 176.709783 405.120186 
L 177.038381 404.936268 
L 177.366978 404.042284 
L 177.695576 405.451938 
L 178.024174 405.108546 
L 178.352771 405.280824 
L 178.681369 403.840905 
L 179.009967 404.553298 
L 179.338565 404.34377 
L 179.667162 403.225127 
L 179.99576 403.419522 
L 180.324358 402.520882 
L 180.652955 405.937343 
L 180.981553 405.990889 
L 181.310151 405.518288 
L 181.638749 404.603352 
L 181.967346 404.098158 
L 182.295944 405.151615 
L 182.953139 405.261035 
L 183.281737 403.610424 
L 183.610335 404.418269 
L 183.938933 404.557954 
L 184.26753 404.296045 
L 184.596128 402.580248 
L 184.924726 403.398569 
L 185.253324 404.910659 
L 185.581921 404.997962 
L 185.910519 403.034224 
L 186.239117 402.882898 
L 186.567714 403.864185 
L 186.896312 403.840905 
L 187.22491 404.016675 
L 187.553508 403.048192 
L 187.882105 404.55679 
L 188.210703 404.837324 
L 189.196496 402.896867 
L 189.525094 405.00029 
L 190.182289 405.04918 
L 190.510887 403.708204 
L 190.839485 404.237843 
L 191.168082 403.528941 
L 191.49668 403.800163 
L 191.825278 402.86893 
L 192.153876 402.85729 
L 192.482473 405.159763 
L 192.811071 405.053836 
L 193.139669 405.129498 
L 193.468266 404.243663 
L 193.796864 403.698892 
L 194.125462 405.432149 
L 194.45406 405.186536 
L 194.782657 404.729068 
L 195.111255 403.725664 
L 195.439853 406.413436 
L 195.76845 406.711431 
L 196.097048 406.320313 
L 196.754244 404.109798 
L 197.082841 406.306344 
L 197.411439 405.536913 
L 197.740037 405.575326 
L 198.068635 404.777958 
L 198.397232 405.866337 
L 198.72583 404.754677 
L 199.054428 404.950236 
L 199.383025 404.084189 
L 199.711623 404.048104 
L 200.040221 405.10389 
L 200.697416 405.003782 
L 201.026014 403.920059 
L 201.354612 405.737128 
L 201.683209 405.318073 
L 202.011807 405.270347 
L 202.340405 404.662718 
L 202.669003 405.339026 
L 202.9976 404.514885 
L 203.326198 404.662718 
L 203.654796 404.342606 
L 203.983393 403.480052 
L 204.311991 404.719756 
L 204.969187 403.284493 
L 205.626382 403.538254 
L 205.95498 404.918807 
L 206.612175 405.27966 
L 206.940773 404.008527 
L 207.269371 405.840728 
L 207.597968 405.846548 
L 207.926566 406.038615 
L 208.255164 405.020079 
L 208.583762 405.188865 
L 208.912359 406.370367 
L 209.240957 405.793002 
L 209.569555 405.796494 
L 209.898152 405.059656 
L 210.555348 409.661112 
L 210.883946 408.429556 
L 211.212543 408.841626 
L 211.541141 407.401707 
L 211.869739 406.64508 
L 212.526934 406.087505 
L 212.855532 404.484619 
L 213.18413 406.541481 
L 213.512727 406.182956 
L 213.841325 405.642841 
L 214.169923 404.767482 
L 214.49852 405.327385 
L 214.827118 407.071119 
L 215.155716 406.660213 
L 215.484314 406.76032 
L 215.812911 405.454266 
L 216.141509 406.706775 
L 216.470107 405.298284 
L 216.798704 404.747693 
L 217.127302 404.680178 
L 217.784498 406.660213 
L 218.441693 407.229429 
L 218.770291 406.366874 
L 219.098888 407.561181 
L 219.427486 407.391231 
L 219.756084 407.424988 
L 220.084682 406.084012 
L 220.413279 406.548465 
L 220.741877 407.207312 
L 221.070475 407.365622 
L 221.399073 406.865084 
L 221.72767 406.128246 
L 222.056268 406.861592 
L 222.384866 407.051331 
L 222.713463 405.065476 
L 223.370659 405.968772 
L 223.699257 407.544884 
L 224.027854 407.08858 
L 224.356452 407.085088 
L 224.68505 406.670689 
L 225.013647 405.834908 
L 225.342245 405.732472 
L 225.670843 405.197013 
L 225.999441 404.38684 
L 226.328038 405.163256 
L 226.656636 407.767216 
L 227.313831 407.038526 
L 227.642429 406.097981 
L 227.971027 407.36795 
L 228.299625 406.839475 
L 228.628222 406.819687 
L 228.95682 404.711608 
L 229.285418 405.78951 
L 229.614015 408.330612 
L 229.942613 408.445852 
L 230.599809 406.936091 
L 230.928406 408.60649 
L 231.257004 408.088492 
L 231.585602 408.043094 
L 231.914199 407.064135 
L 232.571395 409.26883 
L 232.899993 408.888188 
L 233.22859 408.94639 
L 233.557188 407.458745 
L 233.885786 407.302764 
L 234.214384 407.5379 
L 234.542981 407.316732 
L 234.871579 406.542645 
L 235.200177 406.659049 
L 235.528774 407.444777 
L 235.857372 406.490263 
L 236.18597 406.24465 
L 236.514568 405.408868 
L 236.843165 408.305003 
L 238.157556 406.643916 
L 238.486154 407.931346 
L 239.143349 407.855683 
L 239.471947 406.733547 
L 240.45774 407.140962 
L 240.786338 406.734712 
L 241.114936 407.677585 
L 241.443533 407.790497 
L 241.772131 407.253874 
L 242.100729 407.157259 
L 242.429326 406.379679 
L 242.757924 407.797481 
L 243.086522 407.91505 
L 243.41512 408.154842 
L 243.743717 407.25853 
L 244.072315 407.622875 
L 244.400913 409.32936 
L 244.72951 409.230416 
L 245.058108 408.955703 
L 245.386706 407.691554 
L 245.715304 408.412095 
L 246.043901 408.580881 
L 246.372499 408.292199 
L 246.701097 407.26435 
L 247.029695 408.018649 
L 247.358292 410.028949 
L 248.015488 409.867147 
L 248.672683 407.874308 
L 249.001281 407.055987 
L 249.329879 407.059479 
L 249.658476 406.337773 
L 249.987074 407.316732 
L 250.315672 409.353805 
L 250.644269 409.402694 
L 250.972867 409.736774 
L 251.301465 408.341089 
L 251.630063 408.835806 
L 252.287258 408.75898 
L 252.615856 407.557689 
L 252.944453 412.205706 
L 253.273051 413.905207 
L 253.601649 413.271968 
L 253.930247 409.999848 
L 254.258844 409.498146 
L 254.587442 410.068526 
L 254.91604 410.360701 
L 255.244637 408.971999 
L 255.901833 413.092706 
L 256.230431 412.045068 
L 256.559028 411.650458 
L 256.887626 410.623774 
L 257.216224 410.797216 
L 257.544821 409.451584 
L 257.873419 408.777604 
L 258.202017 408.680989 
L 258.530615 408.067539 
L 259.18781 409.656455 
L 259.516408 409.566824 
L 260.173603 408.455165 
L 260.502201 410.11276 
L 261.159396 410.194243 
L 261.487994 408.213044 
L 261.816592 408.7648 
L 262.14519 409.999848 
L 262.473787 409.687885 
L 263.130983 407.826582 
L 263.45958 410.203555 
L 263.788178 410.103447 
L 264.116776 410.230328 
L 264.445374 409.737938 
L 264.773971 408.068703 
L 265.102569 409.920693 
L 265.759764 409.552856 
L 266.088362 409.155918 
L 266.41696 409.473701 
L 266.745558 409.421319 
L 267.402753 407.306256 
L 267.731351 407.76838 
L 268.059948 409.204807 
L 268.388546 409.373593 
L 268.717144 409.399202 
L 269.045742 408.464477 
L 269.374339 410.328107 
L 269.702937 409.158246 
L 270.031535 409.628518 
L 270.360132 408.978983 
L 270.68873 409.730954 
L 271.017328 408.03029 
L 271.674523 408.295691 
L 272.003121 407.047839 
L 272.331719 410.704093 
L 272.660317 410.775099 
L 272.988914 409.998684 
L 273.317512 408.087328 
L 273.64611 408.023305 
L 273.974707 409.60873 
L 274.303305 409.885772 
L 274.960501 408.117593 
L 275.289098 410.279218 
L 275.617696 410.642399 
L 275.946294 410.57954 
L 276.274891 409.51095 
L 276.603489 409.943974 
L 276.932087 410.676156 
L 277.260685 410.685468 
L 277.589282 410.546947 
L 277.91788 409.857835 
L 278.246478 409.869475 
L 278.575075 409.995192 
L 278.903673 409.725134 
L 279.232271 407.664781 
L 279.560869 408.245637 
L 279.889466 411.056797 
L 280.218064 410.981135 
L 280.546662 410.63425 
L 280.875259 409.935825 
L 281.203857 411.442095 
L 281.532455 410.941557 
L 281.861053 410.649383 
L 282.18965 409.708837 
L 282.846846 411.698184 
L 283.504041 411.321035 
L 283.832639 410.499221 
L 284.489834 411.282621 
L 284.818432 411.131296 
L 285.14703 409.935825 
L 285.804225 410.650547 
L 286.132823 410.329271 
L 286.461421 410.597001 
L 286.790018 409.486505 
L 287.118616 411.932156 
L 287.447214 411.986866 
L 288.104409 409.906724 
L 288.433007 409.677408 
L 288.761605 410.442183 
L 289.090202 410.151173 
L 289.4188 410.309483 
L 289.747398 409.62619 
L 290.075996 412.745821 
L 290.404593 412.14634 
L 290.733191 411.907712 
L 291.061789 411.323363 
L 291.390386 411.894907 
L 291.718984 410.588853 
L 292.047582 410.546947 
L 292.37618 409.339836 
L 292.704777 409.120996 
L 293.033375 412.502537 
L 293.361973 412.700424 
L 293.69057 412.180097 
L 294.019168 411.388549 
L 294.347766 410.146517 
L 294.676364 412.567723 
L 295.004961 412.453647 
L 295.333559 415.872437 
L 295.662157 415.01803 
L 295.990755 416.456785 
L 296.319352 413.475675 
L 296.64795 413.153236 
L 296.976548 412.171949 
L 297.305145 412.471108 
L 297.633743 413.351123 
L 297.962341 413.289429 
L 298.290939 413.370912 
L 298.619536 412.203378 
L 298.948134 413.649118 
L 299.276732 413.43959 
L 299.605329 412.902967 
L 299.933927 411.284949 
L 300.262525 411.956601 
L 300.591123 414.158968 
L 300.91972 414.309129 
L 301.576916 412.426874 
L 301.905513 413.097362 
L 302.234111 413.136939 
L 302.562709 412.876194 
L 302.891307 411.81226 
L 303.219904 411.868134 
L 303.548502 413.365091 
L 303.8771 413.586259 
L 304.205697 413.393028 
L 304.534295 412.528146 
L 304.862893 413.685203 
L 305.520088 413.44541 
L 305.848686 412.043904 
L 306.177284 412.616613 
L 306.505881 413.82838 
L 307.491675 412.331423 
L 307.820272 413.815575 
L 308.14887 414.105422 
L 308.477468 413.968065 
L 308.806066 413.184665 
L 309.134663 411.255848 
L 309.463261 413.338318 
L 309.791859 413.786474 
L 310.120456 413.782982 
L 310.449054 412.799367 
L 310.777652 415.073904 
L 311.763445 411.638818 
L 312.42064 413.956424 
L 312.749238 414.200873 
L 313.077836 413.895894 
L 313.406434 412.873866 
L 313.735031 414.44183 
L 314.063629 414.34987 
L 314.392227 413.001911 
L 314.720824 412.348883 
L 315.049422 413.249851 
L 315.37802 415.759525 
L 315.706618 415.559309 
L 316.035215 415.618676 
L 316.363813 414.633897 
L 316.692411 414.919087 
L 317.021008 414.346378 
L 317.349606 414.077485 
L 317.678204 413.326678 
L 318.006802 413.890074 
L 318.335399 414.704903 
L 318.663997 414.749137 
L 318.992595 413.722452 
L 319.321192 413.118315 
L 319.64979 414.860885 
L 319.978388 415.254331 
L 320.306986 415.058772 
L 320.635583 413.691023 
L 320.964181 413.9378 
L 321.292779 416.318264 
L 321.621377 415.044803 
L 321.949974 414.832948 
L 322.278572 413.997166 
L 322.60717 415.413804 
L 322.935767 415.282268 
L 323.264365 415.320681 
L 323.592963 414.649029 
L 323.921561 416.592978 
L 324.250158 417.442729 
L 324.907354 417.154046 
L 325.235951 416.520808 
L 325.564549 415.2974 
L 325.893147 416.290328 
L 326.221745 416.012122 
L 326.550342 414.558234 
L 326.87894 414.45347 
L 327.207538 415.646613 
L 327.536135 415.6373 
L 327.864733 415.35793 
L 328.193331 414.454634 
L 328.850526 417.130765 
L 329.179124 416.121541 
L 329.507722 428.349797 
L 329.836319 425.608479 
L 330.164917 424.411844 
L 330.493515 421.46682 
L 330.822113 421.554123 
L 331.15071 419.057254 
L 331.479308 417.426432 
L 331.807906 418.357665 
L 332.136503 418.556716 
L 332.465101 418.318088 
L 332.793699 415.184488 
L 333.122297 417.809402 
L 333.779492 417.105156 
L 334.10809 416.037731 
L 334.436688 418.180731 
L 334.765285 416.885153 
L 335.422481 415.600051 
L 335.751078 415.925983 
L 336.079676 418.384438 
L 336.736872 417.990992 
L 337.065469 417.109813 
L 337.394067 420.944165 
L 337.722665 421.490101 
L 338.37986 421.189778 
L 338.708458 417.788449 
L 339.037056 420.303942 
L 339.365653 420.391245 
L 339.694251 421.905663 
L 340.022849 422.821764 
L 340.351446 423.066213 
L 340.680044 418.400735 
L 341.33724 417.219233 
L 341.665837 417.208756 
L 341.994435 418.107396 
L 342.323033 418.20634 
L 342.65163 417.748871 
L 342.980228 416.883989 
L 343.308826 419.671868 
L 343.637424 420.121188 
L 344.294619 417.846651 
L 344.623217 417.736067 
L 344.951815 419.971026 
L 345.60901 419.557792 
L 345.937608 418.652168 
L 346.594803 419.568268 
L 346.923401 418.194699 
L 347.251999 417.303044 
L 347.909194 418.410047 
L 348.566389 418.302955 
L 348.894987 417.743051 
L 349.223585 421.058241 
L 349.552183 420.083938 
L 349.88078 424.037023 
L 350.209378 422.364296 
L 350.537976 422.455091 
L 350.866573 420.344684 
L 351.195171 420.299286 
L 351.523769 420.115368 
L 352.180964 423.776278 
L 352.509562 420.580984 
L 352.83816 419.127096 
L 353.166757 419.008364 
L 353.823953 419.884887 
L 354.152551 419.306359 
L 354.481148 419.337788 
L 354.809746 418.769736 
L 355.138344 420.571672 
L 355.795539 419.496098 
L 356.124137 419.152705 
L 356.452735 418.425179 
L 356.781332 419.776632 
L 357.438528 419.77896 
L 357.767126 418.839578 
L 358.095723 418.811641 
L 358.424321 419.038629 
L 358.752919 418.277346 
L 359.081516 416.987588 
L 359.410114 417.903689 
L 359.738712 420.033885 
L 360.06731 420.685748 
L 360.724505 418.745291 
L 361.053103 421.009351 
L 361.3817 420.753262 
L 361.710298 419.297046 
L 362.038896 418.575341 
L 362.367494 419.480965 
L 362.696091 419.773139 
L 363.024689 419.150377 
L 363.353287 418.919897 
L 363.681884 418.421687 
L 364.010482 419.596205 
L 364.33908 419.820865 
L 364.667678 419.464668 
L 364.996275 418.670792 
L 365.324873 418.377454 
L 365.653471 420.229444 
L 366.310666 419.596205 
L 366.639264 419.304031 
L 366.967862 420.817285 
L 367.296459 421.309674 
L 367.953655 419.583401 
L 368.282252 419.475145 
L 368.61085 420.41569 
L 368.939448 420.298122 
L 369.268046 419.273766 
L 369.596643 419.304031 
L 369.925241 419.003708 
L 370.253839 419.311015 
L 370.582437 418.994396 
L 370.911034 417.251826 
L 371.239632 418.467085 
L 371.56823 420.486697 
L 372.554023 418.99556 
L 372.882621 421.145544 
L 373.211218 421.598356 
L 373.539816 420.19685 
L 373.868414 419.406466 
L 374.197011 420.038541 
L 374.525609 421.172317 
L 374.854207 421.166497 
L 375.511402 420.18521 
L 375.84 420.582148 
L 376.497195 420.17939 
L 376.825793 418.791853 
L 377.154391 419.639275 
L 377.482989 421.059405 
L 377.811586 421.392321 
L 378.140184 421.289885 
L 378.468782 420.710193 
L 378.797379 421.161841 
L 379.125977 421.317822 
L 379.454575 424.358299 
L 379.783173 423.262936 
L 380.11177 423.704107 
L 380.440368 424.388564 
L 380.768966 421.343431 
L 381.097563 421.143216 
L 381.426161 420.244576 
L 381.754759 421.796243 
L 382.411954 421.962701 
L 382.740552 420.780035 
L 383.397748 422.294453 
L 383.726345 422.357311 
L 384.054943 420.044361 
L 384.383541 420.065314 
L 384.712138 421.298034 
L 385.040736 421.422586 
L 385.369334 420.274841 
L 385.697932 419.652079 
L 386.026529 420.232936 
L 386.355127 421.909155 
L 386.683725 420.522782 
L 387.012322 420.651991 
L 387.34092 421.112951 
L 387.669518 422.174557 
L 387.998116 421.983654 
L 388.326713 421.948733 
L 388.655311 421.272425 
L 388.983909 421.828837 
L 389.312506 423.141875 
L 389.969702 423.255951 
L 390.2983 422.263024 
L 390.626897 423.026635 
L 390.955495 423.061556 
L 391.284093 422.672767 
L 391.61269 420.394738 
L 391.941288 421.225863 
L 392.269886 420.880143 
L 392.598484 421.18745 
L 392.927081 420.895275 
L 393.255679 420.120024 
L 393.584277 422.20133 
L 393.912874 422.194346 
L 394.241472 421.947569 
L 394.57007 420.62871 
L 394.898668 421.043109 
L 395.227265 422.116355 
L 395.555863 421.93942 
L 395.884461 422.050004 
L 396.213059 421.483116 
L 396.541656 421.944077 
L 397.198852 421.918468 
L 397.527449 420.496009 
L 397.856047 420.348176 
L 398.184645 422.065137 
L 398.513243 422.230431 
L 398.84184 422.145456 
L 399.170438 420.79284 
L 399.499036 424.014906 
L 399.827633 424.955452 
L 400.156231 423.361879 
L 400.484829 422.507473 
L 400.813427 421.189778 
L 401.142024 423.501564 
L 402.127817 422.230431 
L 402.456415 422.750757 
L 402.785013 421.882382 
L 403.113611 421.842805 
L 403.442208 420.818449 
L 403.770806 420.378441 
L 404.099404 423.524845 
L 404.428001 423.631937 
L 404.756599 423.90665 
L 405.085197 422.776366 
L 405.413795 424.877461 
L 406.07099 423.00219 
L 406.399588 423.129071 
L 406.728185 421.741533 
L 407.056783 421.813704 
L 407.385381 422.012755 
L 407.713979 421.968522 
L 408.042576 421.059405 
L 408.371174 422.168737 
L 408.699772 422.386412 
L 409.02837 422.173393 
L 409.356967 422.523769 
L 409.685565 421.512217 
L 410.014163 423.191929 
L 410.34276 423.375848 
L 410.671358 423.399128 
L 410.999956 422.151276 
L 411.328554 422.494668 
L 411.657151 423.363043 
L 411.985749 423.527173 
L 412.314347 423.478283 
L 412.642944 422.900919 
L 412.971542 424.784338 
L 413.30014 424.099881 
L 413.628738 424.212793 
L 413.957335 423.005682 
L 414.285933 423.707599 
L 414.614531 425.23133 
L 414.943128 424.528249 
L 415.271726 424.772697 
L 415.600324 422.046512 
L 415.928922 423.272248 
L 416.257519 423.595851 
L 416.586117 423.431722 
L 416.914715 421.505233 
L 417.243312 422.66229 
L 417.57191 425.561917 
L 417.900508 425.192916 
L 418.229106 425.049739 
L 418.557703 423.574899 
L 418.886301 425.899489 
L 419.214899 425.35239 
L 419.543497 425.233658 
L 419.872094 424.550365 
L 420.200692 424.876297 
L 420.52929 425.914622 
L 421.186485 425.667845 
L 421.515083 425.027622 
L 421.843681 429.786224 
L 422.172278 430.079562 
L 422.500876 430.916508 
L 422.829474 428.945786 
L 423.158071 424.55735 
L 423.486669 426.20214 
L 423.815267 426.278967 
L 424.143865 425.350062 
L 424.80106 430.92 
L 425.129658 430.709309 
L 425.458255 426.413996 
L 425.786853 425.436201 
L 426.115451 426.359286 
L 426.444049 425.581706 
L 426.772646 425.480434 
L 427.101244 424.747088 
L 427.429842 424.924023 
L 427.758439 425.617791 
L 428.415635 425.799382 
L 428.744233 425.277891 
L 429.07283 425.494403 
L 429.401428 427.305651 
L 429.730026 426.650296 
L 430.058623 426.743419 
L 430.387221 425.726047 
L 430.715819 425.252282 
L 431.044417 425.226673 
L 431.373014 425.331437 
L 431.701612 424.139459 
L 432.03021 424.571318 
L 432.358808 426.112509 
L 432.687405 426.395371 
L 433.016003 426.08108 
L 433.344601 425.183604 
L 433.673198 427.31962 
L 434.001796 425.540965 
L 434.330394 425.410592 
L 434.658992 424.433961 
L 434.987589 424.921695 
L 435.316187 426.136954 
L 435.644785 426.022878 
L 435.973382 426.975064 
L 436.30198 426.015894 
L 436.959176 426.320872 
L 437.287773 425.861076 
L 437.616371 424.531741 
L 437.944969 425.375671 
L 438.273566 426.618867 
L 438.930762 426.634 
L 439.25936 426.155578 
L 439.587957 426.419816 
L 439.916555 425.365194 
L 440.245153 425.623612 
L 440.57375 425.40128 
L 440.902348 425.57705 
L 441.230946 427.153162 
L 441.559544 426.686381 
L 441.888141 426.54786 
L 442.216739 426.565321 
L 442.545337 427.76894 
L 442.873934 427.862063 
L 443.202532 427.767776 
L 443.53113 426.209124 
L 443.859728 426.774849 
L 444.188325 428.099528 
L 444.516923 428.286938 
L 444.845521 427.486078 
L 445.174119 424.995029 
L 445.502716 427.317292 
L 445.831314 427.588513 
L 446.159912 427.50121 
L 446.488509 426.610719 
L 446.817107 427.974975 
L 447.145705 426.831887 
L 447.474303 426.674741 
L 447.8029 426.140446 
L 448.131498 424.16274 
L 448.460096 426.062455 
L 448.788693 425.545621 
L 449.117291 424.809947 
L 449.445889 423.479447 
L 449.774487 426.08108 
L 450.103084 425.187096 
L 450.431682 424.892594 
L 450.76028 423.799559 
L 451.088877 424.679574 
L 451.417475 426.213781 
L 451.746073 424.062632 
L 452.074671 424.123162 
L 452.403268 423.350239 
L 452.731866 423.460823 
L 453.060464 423.177961 
L 453.389061 423.368863 
L 453.717659 421.998787 
L 454.046257 422.016247 
L 454.374855 423.326958 
L 454.703452 423.378176 
L 455.03205 422.554034 
L 455.360648 422.59012 
L 455.689245 422.933512 
L 456.017843 423.763473 
L 456.346441 423.882206 
L 456.675039 424.231418 
L 457.003636 421.760158 
L 457.332234 423.468971 
L 457.660832 423.113938 
L 457.98943 423.159336 
L 458.318027 422.469059 
L 458.646625 423.197749 
L 458.975223 423.289709 
L 459.30382 423.2641 
L 459.632418 421.856774 
L 459.961016 421.980162 
L 460.618211 421.85561 
L 460.946809 421.627457 
L 461.275407 420.90808 
L 461.604004 424.1802 
L 461.932602 423.479447 
L 462.589798 421.436555 
L 462.918395 421.696136 
L 463.246993 423.986969 
L 463.575591 423.662202 
L 463.904188 423.789082 
L 464.232786 426.320872 
L 464.561384 426.872628 
L 464.889982 427.842274 
L 465.218579 424.790158 
L 465.547177 424.324541 
L 465.875775 423.364207 
L 466.204372 423.631937 
L 466.53297 423.191929 
L 466.861568 423.444526 
L 467.190166 422.65647 
L 467.518763 423.515533 
L 468.175959 421.907991 
L 468.504556 420.618233 
L 468.833154 420.704373 
L 469.161752 423.414261 
L 469.49035 423.131399 
L 469.818947 423.101134 
L 470.476143 421.133904 
L 470.804741 421.548303 
L 471.133338 420.6776 
L 471.461936 420.394738 
L 471.790534 419.433239 
L 472.119131 421.29687 
L 472.447729 421.585552 
L 472.776327 421.671691 
L 473.104925 420.819613 
L 473.433522 421.014008 
L 473.76212 420.649663 
L 474.419315 417.666224 
L 474.747913 416.850231 
L 475.076511 418.231949 
L 475.405109 417.596382 
L 475.733706 417.759348 
L 476.062304 416.738483 
L 476.390902 417.519555 
L 476.719499 419.221384 
L 477.048097 418.990904 
L 477.376695 418.955982 
L 477.705293 417.321668 
L 478.03389 418.539256 
L 478.691086 418.884976 
L 479.019683 417.09468 
L 479.348281 417.786121 
L 479.676879 417.556805 
L 480.005477 417.751199 
L 480.334074 417.273942 
L 480.662672 416.459114 
L 480.99127 418.943178 
L 481.319868 418.213324 
L 481.648465 418.123693 
L 481.977063 417.329816 
L 482.305661 417.880408 
L 482.962856 416.525464 
L 483.291454 416.744304 
L 483.620052 415.633808 
L 483.948649 418.866351 
L 484.277247 418.82561 
L 484.605845 418.231949 
L 484.934442 416.835099 
L 485.26304 417.958399 
L 485.591638 418.481053 
L 485.920236 418.150466 
L 486.248833 416.539432 
L 486.577431 416.199532 
L 486.906029 418.172582 
L 487.234626 418.270362 
L 487.563224 417.93279 
L 487.891822 417.015525 
L 488.22042 416.946847 
L 488.549017 417.933954 
L 488.877615 418.04221 
L 489.206213 417.754692 
L 489.53481 416.449801 
L 489.863408 417.152882 
L 490.192006 417.120289 
L 490.520604 417.322832 
L 490.849201 416.379959 
L 491.177799 416.769913 
L 491.506397 418.412375 
L 491.834994 418.071311 
L 492.163592 417.980516 
L 492.49219 416.407896 
L 492.820788 416.516152 
L 493.149385 415.154223 
L 493.477983 414.78173 
L 493.806581 412.490896 
L 494.135179 413.728272 
L 494.463776 414.451142 
L 494.792374 414.366167 
L 495.449569 413.441918 
L 495.778167 414.261403 
L 496.435363 412.729525 
L 496.76396 411.180186 
L 497.092558 411.482836 
L 497.421156 413.679383 
L 497.749753 413.440754 
L 498.078351 412.901803 
L 498.406949 411.748238 
L 498.735547 411.676067 
L 499.064144 411.131296 
L 499.392742 411.08939 
L 499.72134 410.432871 
L 500.049937 410.396786 
L 500.378535 411.123148 
L 500.707133 411.481672 
L 501.035731 411.485165 
L 501.364328 410.725045 
L 501.692926 414.575694 
L 502.021524 412.383805 
L 502.350121 412.452483 
L 502.678719 410.920604 
L 503.007317 410.580704 
L 503.335915 411.840197 
L 503.664512 411.248864 
L 503.99311 413.842348 
L 504.321708 414.015791 
L 504.650305 415.530208 
L 504.978903 414.798026 
L 505.307501 412.386133 
L 505.636099 411.365268 
L 505.964696 410.779755 
L 506.293294 410.757639 
L 506.621892 414.015791 
L 506.95049 413.777162 
L 507.279087 412.737673 
L 507.607685 412.294173 
L 507.936283 412.313962 
L 508.26488 412.517669 
L 508.593478 410.248953 
L 508.922076 410.565572 
L 509.250674 416.062175 
L 509.579271 415.475499 
L 509.907869 412.715556 
L 510.236467 411.382729 
L 510.565064 413.20911 
L 510.893662 412.587512 
L 511.22226 412.960005 
L 511.550858 411.834377 
L 511.879455 411.40601 
L 512.208053 412.416398 
L 512.536651 412.518833 
L 512.865248 412.088138 
L 513.193846 410.165142 
L 513.522444 412.700424 
L 513.851042 412.686455 
L 514.179639 412.936724 
L 514.836835 409.701853 
L 515.165432 411.40019 
L 515.49403 409.45042 
L 515.822628 408.49707 
L 516.151226 406.654393 
L 516.479823 408.179287 
L 516.808421 408.682153 
L 517.137019 408.473789 
L 517.465616 407.80563 
L 517.794214 406.70561 
L 518.122812 409.449256 
L 518.45141 408.299183 
L 518.780007 407.710178 
L 519.108605 406.029302 
L 519.437203 406.599683 
L 519.765801 406.532168 
L 520.094398 406.23883 
L 520.751594 404.038792 
L 521.080191 405.315745 
L 521.408789 404.977009 
L 521.737387 405.126006 
L 522.065985 404.106306 
L 522.394582 404.531181 
L 522.72318 405.987397 
L 523.051778 405.761573 
L 523.380375 405.105054 
L 523.708973 405.058492 
L 524.037571 406.384335 
L 524.366169 405.205161 
L 524.694766 404.789598 
L 525.023364 404.071385 
L 525.351962 404.467159 
L 526.009157 404.594039 
L 526.666353 403.244915 
L 526.99495 403.292641 
L 527.652146 404.009691 
L 527.980743 402.776971 
L 528.309341 403.301953 
L 528.637939 405.555538 
L 528.966537 404.418269 
L 529.295134 404.147047 
L 529.623732 403.611588 
L 529.95233 404.786106 
L 530.609525 404.888542 
L 530.938123 403.852545 
L 531.266721 404.169164 
L 531.595318 405.982741 
L 531.923916 406.107293 
L 532.252514 405.687074 
L 532.581112 404.882722 
L 532.909709 405.593951 
L 533.238307 404.746529 
L 533.566905 404.370543 
L 533.895502 403.126183 
L 534.2241 403.944504 
L 534.552698 405.469399 
L 534.881296 405.497336 
L 535.209893 405.748768 
L 535.538491 404.397316 
L 535.867089 405.025899 
L 536.195686 405.261035 
L 536.524284 404.675522 
L 536.852882 402.591888 
L 537.18148 402.357916 
L 537.510077 403.047028 
L 538.167273 401.724677 
L 538.49587 399.642207 
L 538.824468 401.626898 
L 539.153066 401.02276 
L 539.481664 401.243928 
L 540.138859 399.982107 
L 540.467457 400.133433 
L 540.796054 399.72951 
L 541.124652 398.968227 
L 541.45325 396.354954 
L 541.781848 397.968316 
L 542.439043 397.436349 
L 543.096238 395.555258 
L 543.424836 396.233894 
L 543.753434 396.385219 
L 544.082032 396.407336 
L 544.410629 395.512188 
L 544.739227 396.839195 
L 545.067825 396.980044 
L 545.396423 396.888085 
L 545.72502 396.103521 
L 546.382216 398.27213 
L 546.710813 397.553917 
L 547.039411 397.411904 
L 547.368009 396.032515 
L 547.696607 397.018458 
L 548.025204 396.956764 
L 548.353802 397.194228 
L 548.6824 394.898738 
L 549.010997 399.133521 
L 549.339595 399.419875 
L 549.668193 399.345377 
L 549.996791 396.140771 
L 550.325388 395.188585 
L 550.653986 397.571378 
L 550.982584 396.573794 
L 551.311181 396.442257 
L 551.639779 395.102446 
L 551.968377 395.796214 
L 552.296975 397.035918 
L 552.625572 397.260578 
L 552.95417 397.003325 
L 553.282768 395.55875 
L 553.611365 397.026606 
L 553.939963 396.936975 
L 554.268561 396.673902 
L 554.597159 394.59958 
L 554.925756 396.588927 
L 555.254354 397.18026 
L 555.582952 397.113909 
L 555.91155 397.408412 
L 556.240147 396.679722 
L 556.568745 399.374478 
L 557.883136 396.867132 
L 558.211734 398.076571 
L 558.540331 398.13943 
L 558.868929 397.672649 
L 559.197527 396.413156 
L 559.526124 398.412979 
L 559.854722 397.445661 
L 560.18332 397.238462 
L 560.511918 395.081493 
L 560.840515 393.993114 
L 561.169113 396.640144 
L 561.497711 395.833464 
L 561.826308 395.38298 
L 562.154906 394.614712 
L 562.483504 396.267651 
L 562.812102 394.806779 
L 563.797895 392.449595 
L 564.126492 394.145604 
L 565.112286 391.90366 
L 565.440883 391.84313 
L 565.769481 390.850202 
L 566.098079 390.991051 
L 566.426676 389.879392 
L 566.755274 389.960875 
L 567.083872 391.961862 
L 567.741067 391.709265 
L 568.069665 390.807133 
L 568.398263 391.16915 
L 568.726861 393.132888 
L 569.055458 392.585788 
L 569.384056 391.804716 
L 569.712654 390.326384 
L 570.041251 391.554447 
L 570.369849 391.633602 
L 571.027045 390.230932 
L 571.355642 390.724486 
L 571.68424 389.900345 
L 572.012838 388.721171 
L 572.341435 388.865512 
L 572.670033 388.043699 
L 572.998631 390.48935 
L 573.327229 390.639511 
L 573.655826 390.474217 
L 573.984424 389.31134 
L 574.313022 388.927206 
L 574.641619 390.454428 
L 575.298815 390.789672 
L 575.627413 388.923714 
L 575.95601 391.337936 
L 576.284608 391.361217 
L 576.613206 390.879303 
L 576.941803 389.611662 
L 577.270401 391.667359 
L 577.598999 390.211144 
L 578.256194 388.305608 
L 578.584792 388.440637 
L 578.91339 389.725738 
L 579.241987 389.746691 
L 579.570585 388.500003 
L 579.899183 388.480214 
L 580.227781 389.116945 
L 580.556378 391.259945 
L 581.213574 391.158673 
L 581.542172 389.708278 
L 581.870769 391.441535 
L 582.199367 390.963114 
L 582.527965 389.823518 
L 582.856562 388.155447 
L 583.18516 388.678101 
L 583.513758 388.238093 
L 583.842356 386.492031 
L 584.170953 385.676038 
L 584.499551 386.135835 
L 584.828149 386.962304 
L 585.156746 386.944843 
L 585.813942 385.404817 
L 586.14254 385.325662 
L 586.471137 386.45711 
L 586.799735 386.063664 
L 587.128333 385.181321 
L 587.45693 382.63789 
L 587.785528 384.498028 
L 588.114126 384.487552 
L 588.771321 383.200122 
L 589.099919 385.076557 
L 589.757114 383.482984 
L 590.085712 383.601716 
L 590.41431 381.783484 
L 590.742908 384.506177 
L 591.071505 388.389419 
L 591.400103 388.43016 
L 591.728701 386.870345 
L 592.057298 384.438662 
L 592.385896 384.887982 
L 593.043092 384.98227 
L 593.371689 382.600641 
L 593.700287 386.272028 
L 594.028885 386.301129 
L 594.357483 383.394517 
L 594.68608 382.490057 
L 595.014678 384.828616 
L 595.343276 384.068497 
L 596.329069 381.04781 
L 596.657667 382.540111 
L 596.986264 383.197794 
L 597.314862 383.022024 
L 597.64346 382.010472 
L 597.972057 382.671647 
L 598.300655 383.977702 
L 598.629253 387.346438 
L 598.957851 387.182308 
L 599.286448 386.862197 
L 599.615046 387.696814 
L 599.943644 384.245431 
L 600.272241 383.997491 
L 600.600839 383.138428 
L 600.929437 383.373564 
L 601.258035 384.78089 
L 601.586632 384.607448 
L 602.572425 383.088374 
L 602.901023 383.08139 
L 603.229621 382.399262 
L 603.558219 382.108251 
L 603.886816 382.913768 
L 604.215414 384.500356 
L 604.872609 382.861386 
L 605.201207 381.336492 
L 605.529805 382.818317 
L 605.858403 382.135024 
L 606.515598 380.269066 
L 607.172794 381.877771 
L 607.829989 381.547183 
L 608.815782 377.788494 
L 609.14438 376.102962 
L 609.472978 375.55237 
L 609.801575 375.695547 
L 610.130173 378.250618 
L 610.787368 377.218113 
L 611.115966 376.173968 
L 611.444564 378.498559 
L 611.773162 378.195908 
L 612.430357 376.376511 
L 613.087552 378.507871 
L 613.41615 378.647556 
L 614.401943 377.072608 
L 614.730541 376.836308 
L 615.059139 376.898002 
L 615.387736 375.603588 
L 616.044932 376.806043 
L 616.37353 376.147195 
L 616.702127 375.742109 
L 617.030725 374.495421 
L 617.359323 376.367199 
L 618.016518 376.005182 
L 618.345116 375.498824 
L 618.673714 376.071533 
L 619.330909 376.090157 
L 619.330909 376.090157 
" style="fill:none;stroke:#1f77b4;stroke-linecap:square;stroke-width:1.5;"/>
   </g>
   <g id="patch_3">
    <path d="M 108 448.56 
L 108 60.48 
" style="fill:none;stroke:#000000;stroke-linecap:square;stroke-linejoin:miter;stroke-width:0.8;"/>
   </g>
   <g id="patch_4">
    <path d="M 643.68 448.56 
L 643.68 60.48 
" style="fill:none;stroke:#000000;stroke-linecap:square;stroke-linejoin:miter;stroke-width:0.8;"/>
   </g>
   <g id="patch_5">
    <path d="M 108 448.56 
L 643.68 448.56 
" style="fill:none;stroke:#000000;stroke-linecap:square;stroke-linejoin:miter;stroke-width:0.8;"/>
   </g>
   <g id="patch_6">
    <path d="M 108 60.48 
L 643.68 60.48 
" style="fill:none;stroke:#000000;stroke-linecap:square;stroke-linejoin:miter;stroke-width:0.8;"/>
   </g>
   <g id="text_30">
    <!-- unikernel_dce - vmstat -->
    <g transform="translate(290.309531 54.48)scale(0.15 -0.15)">
     <defs>
      <path d="M 8.5 21.578125 
L 8.5 54.6875 
L 17.484375 54.6875 
L 17.484375 21.921875 
Q 17.484375 14.15625 20.5 10.265625 
Q 23.53125 6.390625 29.59375 6.390625 
Q 36.859375 6.390625 41.078125 11.03125 
Q 45.3125 15.671875 45.3125 23.6875 
L 45.3125 54.6875 
L 54.296875 54.6875 
L 54.296875 0 
L 45.3125 0 
L 45.3125 8.40625 
Q 42.046875 3.421875 37.71875 1 
Q 33.40625 -1.421875 27.6875 -1.421875 
Q 18.265625 -1.421875 13.375 4.4375 
Q 8.5 10.296875 8.5 21.578125 
z
M 31.109375 56 
z
" id="DejaVuSans-117"/>
      <path d="M 54.890625 33.015625 
L 54.890625 0 
L 45.90625 0 
L 45.90625 32.71875 
Q 45.90625 40.484375 42.875 44.328125 
Q 39.84375 48.1875 33.796875 48.1875 
Q 26.515625 48.1875 22.3125 43.546875 
Q 18.109375 38.921875 18.109375 30.90625 
L 18.109375 0 
L 9.078125 0 
L 9.078125 54.6875 
L 18.109375 54.6875 
L 18.109375 46.1875 
Q 21.34375 51.125 25.703125 53.5625 
Q 30.078125 56 35.796875 56 
Q 45.21875 56 50.046875 50.171875 
Q 54.890625 44.34375 54.890625 33.015625 
z
" id="DejaVuSans-110"/>
      <path d="M 9.078125 75.984375 
L 18.109375 75.984375 
L 18.109375 31.109375 
L 44.921875 54.6875 
L 56.390625 54.6875 
L 27.390625 29.109375 
L 57.625 0 
L 45.90625 0 
L 18.109375 26.703125 
L 18.109375 0 
L 9.078125 0 
z
" id="DejaVuSans-107"/>
      <path d="M 41.109375 46.296875 
Q 39.59375 47.171875 37.8125 47.578125 
Q 36.03125 48 33.890625 48 
Q 26.265625 48 22.1875 43.046875 
Q 18.109375 38.09375 18.109375 28.8125 
L 18.109375 0 
L 9.078125 0 
L 9.078125 54.6875 
L 18.109375 54.6875 
L 18.109375 46.1875 
Q 20.953125 51.171875 25.484375 53.578125 
Q 30.03125 56 36.53125 56 
Q 37.453125 56 38.578125 55.875 
Q 39.703125 55.765625 41.0625 55.515625 
z
" id="DejaVuSans-114"/>
      <path d="M 9.421875 75.984375 
L 18.40625 75.984375 
L 18.40625 0 
L 9.421875 0 
z
" id="DejaVuSans-108"/>
      <path d="M 50.984375 -16.609375 
L 50.984375 -23.578125 
L -0.984375 -23.578125 
L -0.984375 -16.609375 
z
" id="DejaVuSans-95"/>
      <path d="M 45.40625 46.390625 
L 45.40625 75.984375 
L 54.390625 75.984375 
L 54.390625 0 
L 45.40625 0 
L 45.40625 8.203125 
Q 42.578125 3.328125 38.25 0.953125 
Q 33.9375 -1.421875 27.875 -1.421875 
Q 17.96875 -1.421875 11.734375 6.484375 
Q 5.515625 14.40625 5.515625 27.296875 
Q 5.515625 40.1875 11.734375 48.09375 
Q 17.96875 56 27.875 56 
Q 33.9375 56 38.25 53.625 
Q 42.578125 51.265625 45.40625 46.390625 
z
M 14.796875 27.296875 
Q 14.796875 17.390625 18.875 11.75 
Q 22.953125 6.109375 30.078125 6.109375 
Q 37.203125 6.109375 41.296875 11.75 
Q 45.40625 17.390625 45.40625 27.296875 
Q 45.40625 37.203125 41.296875 42.84375 
Q 37.203125 48.484375 30.078125 48.484375 
Q 22.953125 48.484375 18.875 42.84375 
Q 14.796875 37.203125 14.796875 27.296875 
z
" id="DejaVuSans-100"/>
      <path d="M 48.78125 52.59375 
L 48.78125 44.1875 
Q 44.96875 46.296875 41.140625 47.34375 
Q 37.3125 48.390625 33.40625 48.390625 
Q 24.65625 48.390625 19.8125 42.84375 
Q 14.984375 37.3125 14.984375 27.296875 
Q 14.984375 17.28125 19.8125 11.734375 
Q 24.65625 6.203125 33.40625 6.203125 
Q 37.3125 6.203125 41.140625 7.25 
Q 44.96875 8.296875 48.78125 10.40625 
L 48.78125 2.09375 
Q 45.015625 0.34375 40.984375 -0.53125 
Q 36.96875 -1.421875 32.421875 -1.421875 
Q 20.0625 -1.421875 12.78125 6.34375 
Q 5.515625 14.109375 5.515625 27.296875 
Q 5.515625 40.671875 12.859375 48.328125 
Q 20.21875 56 33.015625 56 
Q 37.15625 56 41.109375 55.140625 
Q 45.0625 54.296875 48.78125 52.59375 
z
" id="DejaVuSans-99"/>
      <path id="DejaVuSans-32"/>
      <path d="M 4.890625 31.390625 
L 31.203125 31.390625 
L 31.203125 23.390625 
L 4.890625 23.390625 
z
" id="DejaVuSans-45"/>
      <path d="M 2.984375 54.6875 
L 12.5 54.6875 
L 29.59375 8.796875 
L 46.6875 54.6875 
L 56.203125 54.6875 
L 35.6875 0 
L 23.484375 0 
z
" id="DejaVuSans-118"/>
     </defs>
     <use xlink:href="#DejaVuSans-117"/>
     <use x="63.378906" xlink:href="#DejaVuSans-110"/>
     <use x="126.757812" xlink:href="#DejaVuSans-105"/>
     <use x="154.541016" xlink:href="#DejaVuSans-107"/>
     <use x="208.826172" xlink:href="#DejaVuSans-101"/>
     <use x="270.349609" xlink:href="#DejaVuSans-114"/>
     <use x="309.712891" xlink:href="#DejaVuSans-110"/>
     <use x="373.091797" xlink:href="#DejaVuSans-101"/>
     <use x="434.615234" xlink:href="#DejaVuSans-108"/>
     <use x="462.398438" xlink:href="#DejaVuSans-95"/>
     <use x="512.398438" xlink:href="#DejaVuSans-100"/>
     <use x="575.875" xlink:href="#DejaVuSans-99"/>
     <use x="630.855469" xlink:href="#DejaVuSans-101"/>
     <use x="692.378906" xlink:href="#DejaVuSans-32"/>
     <use x="724.166016" xlink:href="#DejaVuSans-45"/>
     <use x="760.25" xlink:href="#DejaVuSans-32"/>
     <use x="792.037109" xlink:href="#DejaVuSans-118"/>
     <use x="851.216797" xlink:href="#DejaVuSans-109"/>
     <use x="948.628906" xlink:href="#DejaVuSans-115"/>
     <use x="1000.728516" xlink:href="#DejaVuSans-116"/>
     <use x="1039.9375" xlink:href="#DejaVuSans-97"/>
     <use x="1101.216797" xlink:href="#DejaVuSans-116"/>
    </g>
   </g>
   <g id="legend_1">
    <g id="patch_7">
     <path d="M 650.68 258.52 
L 654.68 258.52 
Q 656.68 258.52 656.68 256.52 
L 656.68 252.52 
Q 656.68 250.52 654.68 250.52 
L 650.68 250.52 
Q 648.68 250.52 648.68 252.52 
L 648.68 256.52 
Q 648.68 258.52 650.68 258.52 
z
" style="fill:#ffffff;opacity:0.8;stroke:#cccccc;stroke-linejoin:miter;"/>
    </g>
   </g>
  </g>
 </g>
 <defs>
  <clipPath id="p7e28cae2ae">
   <rect height="388.08" width="535.68" x="108" y="60.48"/>
  </clipPath>
 </defs>
</svg>
