<?xml version="1.0" encoding="utf-8" standalone="no"?>
<!DOCTYPE svg PUBLIC "-//W3C//DTD SVG 1.1//EN"
  "http://www.w3.org/Graphics/SVG/1.1/DTD/svg11.dtd">
<!-- Created with matplotlib (https://matplotlib.org/) -->
<svg height="504pt" version="1.1" viewBox="0 0 864 504" width="864pt" xmlns="http://www.w3.org/2000/svg" xmlns:xlink="http://www.w3.org/1999/xlink">
 <metadata>
  <rdf:RDF xmlns:cc="http://creativecommons.org/ns#" xmlns:dc="http://purl.org/dc/elements/1.1/" xmlns:rdf="http://www.w3.org/1999/02/22-rdf-syntax-ns#">
   <cc:Work>
    <dc:type rdf:resource="http://purl.org/dc/dcmitype/StillImage"/>
    <dc:date>2022-05-29T17:17:55.652835</dc:date>
    <dc:format>image/svg+xml</dc:format>
    <dc:creator>
     <cc:Agent>
      <dc:title>Matplotlib v3.3.4, https://matplotlib.org/</dc:title>
     </cc:Agent>
    </dc:creator>
   </cc:Work>
  </rdf:RDF>
 </metadata>
 <defs>
  <style type="text/css">*{stroke-linecap:butt;stroke-linejoin:round;}</style>
 </defs>
 <g id="figure_1">
  <g id="patch_1">
   <path d="M 0 504 
L 864 504 
L 864 0 
L 0 0 
z
" style="fill:#ffffff;"/>
  </g>
  <g id="axes_1">
   <g id="patch_2">
    <path d="M 108 448.56 
L 643.68 448.56 
L 643.68 60.48 
L 108 60.48 
z
" style="fill:#ffffff;"/>
   </g>
   <g id="matplotlib.axis_1">
    <g id="xtick_1">
     <g id="line2d_1">
      <defs>
       <path d="M 0 0 
L 0 3.5 
" id="m7cc47a1d7a" style="stroke:#000000;stroke-width:0.8;"/>
      </defs>
      <g>
       <use style="stroke:#000000;stroke-width:0.8;" x="132.349091" xlink:href="#m7cc47a1d7a" y="448.56"/>
      </g>
     </g>
     <g id="text_1">
      <!-- 22:05:22 -->
      <g transform="translate(135.108466 500.4725)rotate(-90)scale(0.1 -0.1)">
       <defs>
        <path d="M 19.1875 8.296875 
L 53.609375 8.296875 
L 53.609375 0 
L 7.328125 0 
L 7.328125 8.296875 
Q 12.9375 14.109375 22.625 23.890625 
Q 32.328125 33.6875 34.8125 36.53125 
Q 39.546875 41.84375 41.421875 45.53125 
Q 43.3125 49.21875 43.3125 52.78125 
Q 43.3125 58.59375 39.234375 62.25 
Q 35.15625 65.921875 28.609375 65.921875 
Q 23.96875 65.921875 18.8125 64.3125 
Q 13.671875 62.703125 7.8125 59.421875 
L 7.8125 69.390625 
Q 13.765625 71.78125 18.9375 73 
Q 24.125 74.21875 28.421875 74.21875 
Q 39.75 74.21875 46.484375 68.546875 
Q 53.21875 62.890625 53.21875 53.421875 
Q 53.21875 48.921875 51.53125 44.890625 
Q 49.859375 40.875 45.40625 35.40625 
Q 44.1875 33.984375 37.640625 27.21875 
Q 31.109375 20.453125 19.1875 8.296875 
z
" id="DejaVuSans-50"/>
        <path d="M 11.71875 12.40625 
L 22.015625 12.40625 
L 22.015625 0 
L 11.71875 0 
z
M 11.71875 51.703125 
L 22.015625 51.703125 
L 22.015625 39.3125 
L 11.71875 39.3125 
z
" id="DejaVuSans-58"/>
        <path d="M 31.78125 66.40625 
Q 24.171875 66.40625 20.328125 58.90625 
Q 16.5 51.421875 16.5 36.375 
Q 16.5 21.390625 20.328125 13.890625 
Q 24.171875 6.390625 31.78125 6.390625 
Q 39.453125 6.390625 43.28125 13.890625 
Q 47.125 21.390625 47.125 36.375 
Q 47.125 51.421875 43.28125 58.90625 
Q 39.453125 66.40625 31.78125 66.40625 
z
M 31.78125 74.21875 
Q 44.046875 74.21875 50.515625 64.515625 
Q 56.984375 54.828125 56.984375 36.375 
Q 56.984375 17.96875 50.515625 8.265625 
Q 44.046875 -1.421875 31.78125 -1.421875 
Q 19.53125 -1.421875 13.0625 8.265625 
Q 6.59375 17.96875 6.59375 36.375 
Q 6.59375 54.828125 13.0625 64.515625 
Q 19.53125 74.21875 31.78125 74.21875 
z
" id="DejaVuSans-48"/>
        <path d="M 10.796875 72.90625 
L 49.515625 72.90625 
L 49.515625 64.59375 
L 19.828125 64.59375 
L 19.828125 46.734375 
Q 21.96875 47.46875 24.109375 47.828125 
Q 26.265625 48.1875 28.421875 48.1875 
Q 40.625 48.1875 47.75 41.5 
Q 54.890625 34.8125 54.890625 23.390625 
Q 54.890625 11.625 47.5625 5.09375 
Q 40.234375 -1.421875 26.90625 -1.421875 
Q 22.3125 -1.421875 17.546875 -0.640625 
Q 12.796875 0.140625 7.71875 1.703125 
L 7.71875 11.625 
Q 12.109375 9.234375 16.796875 8.0625 
Q 21.484375 6.890625 26.703125 6.890625 
Q 35.15625 6.890625 40.078125 11.328125 
Q 45.015625 15.765625 45.015625 23.390625 
Q 45.015625 31 40.078125 35.4375 
Q 35.15625 39.890625 26.703125 39.890625 
Q 22.75 39.890625 18.8125 39.015625 
Q 14.890625 38.140625 10.796875 36.28125 
z
" id="DejaVuSans-53"/>
       </defs>
       <use xlink:href="#DejaVuSans-50"/>
       <use x="63.623047" xlink:href="#DejaVuSans-50"/>
       <use x="127.246094" xlink:href="#DejaVuSans-58"/>
       <use x="160.9375" xlink:href="#DejaVuSans-48"/>
       <use x="224.560547" xlink:href="#DejaVuSans-53"/>
       <use x="288.183594" xlink:href="#DejaVuSans-58"/>
       <use x="321.875" xlink:href="#DejaVuSans-50"/>
       <use x="385.498047" xlink:href="#DejaVuSans-50"/>
      </g>
     </g>
    </g>
    <g id="xtick_2">
     <g id="line2d_2">
      <g>
       <use style="stroke:#000000;stroke-width:0.8;" x="156.499684" xlink:href="#m7cc47a1d7a" y="448.56"/>
      </g>
     </g>
     <g id="text_2">
      <!-- 22:06:47 -->
      <g transform="translate(159.259059 500.4725)rotate(-90)scale(0.1 -0.1)">
       <defs>
        <path d="M 33.015625 40.375 
Q 26.375 40.375 22.484375 35.828125 
Q 18.609375 31.296875 18.609375 23.390625 
Q 18.609375 15.53125 22.484375 10.953125 
Q 26.375 6.390625 33.015625 6.390625 
Q 39.65625 6.390625 43.53125 10.953125 
Q 47.40625 15.53125 47.40625 23.390625 
Q 47.40625 31.296875 43.53125 35.828125 
Q 39.65625 40.375 33.015625 40.375 
z
M 52.59375 71.296875 
L 52.59375 62.3125 
Q 48.875 64.0625 45.09375 64.984375 
Q 41.3125 65.921875 37.59375 65.921875 
Q 27.828125 65.921875 22.671875 59.328125 
Q 17.53125 52.734375 16.796875 39.40625 
Q 19.671875 43.65625 24.015625 45.921875 
Q 28.375 48.1875 33.59375 48.1875 
Q 44.578125 48.1875 50.953125 41.515625 
Q 57.328125 34.859375 57.328125 23.390625 
Q 57.328125 12.15625 50.6875 5.359375 
Q 44.046875 -1.421875 33.015625 -1.421875 
Q 20.359375 -1.421875 13.671875 8.265625 
Q 6.984375 17.96875 6.984375 36.375 
Q 6.984375 53.65625 15.1875 63.9375 
Q 23.390625 74.21875 37.203125 74.21875 
Q 40.921875 74.21875 44.703125 73.484375 
Q 48.484375 72.75 52.59375 71.296875 
z
" id="DejaVuSans-54"/>
        <path d="M 37.796875 64.3125 
L 12.890625 25.390625 
L 37.796875 25.390625 
z
M 35.203125 72.90625 
L 47.609375 72.90625 
L 47.609375 25.390625 
L 58.015625 25.390625 
L 58.015625 17.1875 
L 47.609375 17.1875 
L 47.609375 0 
L 37.796875 0 
L 37.796875 17.1875 
L 4.890625 17.1875 
L 4.890625 26.703125 
z
" id="DejaVuSans-52"/>
        <path d="M 8.203125 72.90625 
L 55.078125 72.90625 
L 55.078125 68.703125 
L 28.609375 0 
L 18.3125 0 
L 43.21875 64.59375 
L 8.203125 64.59375 
z
" id="DejaVuSans-55"/>
       </defs>
       <use xlink:href="#DejaVuSans-50"/>
       <use x="63.623047" xlink:href="#DejaVuSans-50"/>
       <use x="127.246094" xlink:href="#DejaVuSans-58"/>
       <use x="160.9375" xlink:href="#DejaVuSans-48"/>
       <use x="224.560547" xlink:href="#DejaVuSans-54"/>
       <use x="288.183594" xlink:href="#DejaVuSans-58"/>
       <use x="321.875" xlink:href="#DejaVuSans-52"/>
       <use x="385.498047" xlink:href="#DejaVuSans-55"/>
      </g>
     </g>
    </g>
    <g id="xtick_3">
     <g id="line2d_3">
      <g>
       <use style="stroke:#000000;stroke-width:0.8;" x="180.650277" xlink:href="#m7cc47a1d7a" y="448.56"/>
      </g>
     </g>
     <g id="text_3">
      <!-- 22:08:13 -->
      <g transform="translate(183.409652 500.4725)rotate(-90)scale(0.1 -0.1)">
       <defs>
        <path d="M 31.78125 34.625 
Q 24.75 34.625 20.71875 30.859375 
Q 16.703125 27.09375 16.703125 20.515625 
Q 16.703125 13.921875 20.71875 10.15625 
Q 24.75 6.390625 31.78125 6.390625 
Q 38.8125 6.390625 42.859375 10.171875 
Q 46.921875 13.96875 46.921875 20.515625 
Q 46.921875 27.09375 42.890625 30.859375 
Q 38.875 34.625 31.78125 34.625 
z
M 21.921875 38.8125 
Q 15.578125 40.375 12.03125 44.71875 
Q 8.5 49.078125 8.5 55.328125 
Q 8.5 64.0625 14.71875 69.140625 
Q 20.953125 74.21875 31.78125 74.21875 
Q 42.671875 74.21875 48.875 69.140625 
Q 55.078125 64.0625 55.078125 55.328125 
Q 55.078125 49.078125 51.53125 44.71875 
Q 48 40.375 41.703125 38.8125 
Q 48.828125 37.15625 52.796875 32.3125 
Q 56.78125 27.484375 56.78125 20.515625 
Q 56.78125 9.90625 50.3125 4.234375 
Q 43.84375 -1.421875 31.78125 -1.421875 
Q 19.734375 -1.421875 13.25 4.234375 
Q 6.78125 9.90625 6.78125 20.515625 
Q 6.78125 27.484375 10.78125 32.3125 
Q 14.796875 37.15625 21.921875 38.8125 
z
M 18.3125 54.390625 
Q 18.3125 48.734375 21.84375 45.5625 
Q 25.390625 42.390625 31.78125 42.390625 
Q 38.140625 42.390625 41.71875 45.5625 
Q 45.3125 48.734375 45.3125 54.390625 
Q 45.3125 60.0625 41.71875 63.234375 
Q 38.140625 66.40625 31.78125 66.40625 
Q 25.390625 66.40625 21.84375 63.234375 
Q 18.3125 60.0625 18.3125 54.390625 
z
" id="DejaVuSans-56"/>
        <path d="M 12.40625 8.296875 
L 28.515625 8.296875 
L 28.515625 63.921875 
L 10.984375 60.40625 
L 10.984375 69.390625 
L 28.421875 72.90625 
L 38.28125 72.90625 
L 38.28125 8.296875 
L 54.390625 8.296875 
L 54.390625 0 
L 12.40625 0 
z
" id="DejaVuSans-49"/>
        <path d="M 40.578125 39.3125 
Q 47.65625 37.796875 51.625 33 
Q 55.609375 28.21875 55.609375 21.1875 
Q 55.609375 10.40625 48.1875 4.484375 
Q 40.765625 -1.421875 27.09375 -1.421875 
Q 22.515625 -1.421875 17.65625 -0.515625 
Q 12.796875 0.390625 7.625 2.203125 
L 7.625 11.71875 
Q 11.71875 9.328125 16.59375 8.109375 
Q 21.484375 6.890625 26.8125 6.890625 
Q 36.078125 6.890625 40.9375 10.546875 
Q 45.796875 14.203125 45.796875 21.1875 
Q 45.796875 27.640625 41.28125 31.265625 
Q 36.765625 34.90625 28.71875 34.90625 
L 20.21875 34.90625 
L 20.21875 43.015625 
L 29.109375 43.015625 
Q 36.375 43.015625 40.234375 45.921875 
Q 44.09375 48.828125 44.09375 54.296875 
Q 44.09375 59.90625 40.109375 62.90625 
Q 36.140625 65.921875 28.71875 65.921875 
Q 24.65625 65.921875 20.015625 65.03125 
Q 15.375 64.15625 9.8125 62.3125 
L 9.8125 71.09375 
Q 15.4375 72.65625 20.34375 73.4375 
Q 25.25 74.21875 29.59375 74.21875 
Q 40.828125 74.21875 47.359375 69.109375 
Q 53.90625 64.015625 53.90625 55.328125 
Q 53.90625 49.265625 50.4375 45.09375 
Q 46.96875 40.921875 40.578125 39.3125 
z
" id="DejaVuSans-51"/>
       </defs>
       <use xlink:href="#DejaVuSans-50"/>
       <use x="63.623047" xlink:href="#DejaVuSans-50"/>
       <use x="127.246094" xlink:href="#DejaVuSans-58"/>
       <use x="160.9375" xlink:href="#DejaVuSans-48"/>
       <use x="224.560547" xlink:href="#DejaVuSans-56"/>
       <use x="288.183594" xlink:href="#DejaVuSans-58"/>
       <use x="321.875" xlink:href="#DejaVuSans-49"/>
       <use x="385.498047" xlink:href="#DejaVuSans-51"/>
      </g>
     </g>
    </g>
    <g id="xtick_4">
     <g id="line2d_4">
      <g>
       <use style="stroke:#000000;stroke-width:0.8;" x="204.80087" xlink:href="#m7cc47a1d7a" y="448.56"/>
      </g>
     </g>
     <g id="text_4">
      <!-- 22:09:38 -->
      <g transform="translate(207.560245 500.4725)rotate(-90)scale(0.1 -0.1)">
       <defs>
        <path d="M 10.984375 1.515625 
L 10.984375 10.5 
Q 14.703125 8.734375 18.5 7.8125 
Q 22.3125 6.890625 25.984375 6.890625 
Q 35.75 6.890625 40.890625 13.453125 
Q 46.046875 20.015625 46.78125 33.40625 
Q 43.953125 29.203125 39.59375 26.953125 
Q 35.25 24.703125 29.984375 24.703125 
Q 19.046875 24.703125 12.671875 31.3125 
Q 6.296875 37.9375 6.296875 49.421875 
Q 6.296875 60.640625 12.9375 67.421875 
Q 19.578125 74.21875 30.609375 74.21875 
Q 43.265625 74.21875 49.921875 64.515625 
Q 56.59375 54.828125 56.59375 36.375 
Q 56.59375 19.140625 48.40625 8.859375 
Q 40.234375 -1.421875 26.421875 -1.421875 
Q 22.703125 -1.421875 18.890625 -0.6875 
Q 15.09375 0.046875 10.984375 1.515625 
z
M 30.609375 32.421875 
Q 37.25 32.421875 41.125 36.953125 
Q 45.015625 41.5 45.015625 49.421875 
Q 45.015625 57.28125 41.125 61.84375 
Q 37.25 66.40625 30.609375 66.40625 
Q 23.96875 66.40625 20.09375 61.84375 
Q 16.21875 57.28125 16.21875 49.421875 
Q 16.21875 41.5 20.09375 36.953125 
Q 23.96875 32.421875 30.609375 32.421875 
z
" id="DejaVuSans-57"/>
       </defs>
       <use xlink:href="#DejaVuSans-50"/>
       <use x="63.623047" xlink:href="#DejaVuSans-50"/>
       <use x="127.246094" xlink:href="#DejaVuSans-58"/>
       <use x="160.9375" xlink:href="#DejaVuSans-48"/>
       <use x="224.560547" xlink:href="#DejaVuSans-57"/>
       <use x="288.183594" xlink:href="#DejaVuSans-58"/>
       <use x="321.875" xlink:href="#DejaVuSans-51"/>
       <use x="385.498047" xlink:href="#DejaVuSans-56"/>
      </g>
     </g>
    </g>
    <g id="xtick_5">
     <g id="line2d_5">
      <g>
       <use style="stroke:#000000;stroke-width:0.8;" x="228.951462" xlink:href="#m7cc47a1d7a" y="448.56"/>
      </g>
     </g>
     <g id="text_5">
      <!-- 22:11:03 -->
      <g transform="translate(231.710837 500.4725)rotate(-90)scale(0.1 -0.1)">
       <use xlink:href="#DejaVuSans-50"/>
       <use x="63.623047" xlink:href="#DejaVuSans-50"/>
       <use x="127.246094" xlink:href="#DejaVuSans-58"/>
       <use x="160.9375" xlink:href="#DejaVuSans-49"/>
       <use x="224.560547" xlink:href="#DejaVuSans-49"/>
       <use x="288.183594" xlink:href="#DejaVuSans-58"/>
       <use x="321.875" xlink:href="#DejaVuSans-48"/>
       <use x="385.498047" xlink:href="#DejaVuSans-51"/>
      </g>
     </g>
    </g>
    <g id="xtick_6">
     <g id="line2d_6">
      <g>
       <use style="stroke:#000000;stroke-width:0.8;" x="253.102055" xlink:href="#m7cc47a1d7a" y="448.56"/>
      </g>
     </g>
     <g id="text_6">
      <!-- 22:12:28 -->
      <g transform="translate(255.86143 500.4725)rotate(-90)scale(0.1 -0.1)">
       <use xlink:href="#DejaVuSans-50"/>
       <use x="63.623047" xlink:href="#DejaVuSans-50"/>
       <use x="127.246094" xlink:href="#DejaVuSans-58"/>
       <use x="160.9375" xlink:href="#DejaVuSans-49"/>
       <use x="224.560547" xlink:href="#DejaVuSans-50"/>
       <use x="288.183594" xlink:href="#DejaVuSans-58"/>
       <use x="321.875" xlink:href="#DejaVuSans-50"/>
       <use x="385.498047" xlink:href="#DejaVuSans-56"/>
      </g>
     </g>
    </g>
    <g id="xtick_7">
     <g id="line2d_7">
      <g>
       <use style="stroke:#000000;stroke-width:0.8;" x="277.252648" xlink:href="#m7cc47a1d7a" y="448.56"/>
      </g>
     </g>
     <g id="text_7">
      <!-- 22:13:53 -->
      <g transform="translate(280.012023 500.4725)rotate(-90)scale(0.1 -0.1)">
       <use xlink:href="#DejaVuSans-50"/>
       <use x="63.623047" xlink:href="#DejaVuSans-50"/>
       <use x="127.246094" xlink:href="#DejaVuSans-58"/>
       <use x="160.9375" xlink:href="#DejaVuSans-49"/>
       <use x="224.560547" xlink:href="#DejaVuSans-51"/>
       <use x="288.183594" xlink:href="#DejaVuSans-58"/>
       <use x="321.875" xlink:href="#DejaVuSans-53"/>
       <use x="385.498047" xlink:href="#DejaVuSans-51"/>
      </g>
     </g>
    </g>
    <g id="xtick_8">
     <g id="line2d_8">
      <g>
       <use style="stroke:#000000;stroke-width:0.8;" x="301.403241" xlink:href="#m7cc47a1d7a" y="448.56"/>
      </g>
     </g>
     <g id="text_8">
      <!-- 22:15:18 -->
      <g transform="translate(304.162616 500.4725)rotate(-90)scale(0.1 -0.1)">
       <use xlink:href="#DejaVuSans-50"/>
       <use x="63.623047" xlink:href="#DejaVuSans-50"/>
       <use x="127.246094" xlink:href="#DejaVuSans-58"/>
       <use x="160.9375" xlink:href="#DejaVuSans-49"/>
       <use x="224.560547" xlink:href="#DejaVuSans-53"/>
       <use x="288.183594" xlink:href="#DejaVuSans-58"/>
       <use x="321.875" xlink:href="#DejaVuSans-49"/>
       <use x="385.498047" xlink:href="#DejaVuSans-56"/>
      </g>
     </g>
    </g>
    <g id="xtick_9">
     <g id="line2d_9">
      <g>
       <use style="stroke:#000000;stroke-width:0.8;" x="325.553834" xlink:href="#m7cc47a1d7a" y="448.56"/>
      </g>
     </g>
     <g id="text_9">
      <!-- 22:16:44 -->
      <g transform="translate(328.313209 500.4725)rotate(-90)scale(0.1 -0.1)">
       <use xlink:href="#DejaVuSans-50"/>
       <use x="63.623047" xlink:href="#DejaVuSans-50"/>
       <use x="127.246094" xlink:href="#DejaVuSans-58"/>
       <use x="160.9375" xlink:href="#DejaVuSans-49"/>
       <use x="224.560547" xlink:href="#DejaVuSans-54"/>
       <use x="288.183594" xlink:href="#DejaVuSans-58"/>
       <use x="321.875" xlink:href="#DejaVuSans-52"/>
       <use x="385.498047" xlink:href="#DejaVuSans-52"/>
      </g>
     </g>
    </g>
    <g id="xtick_10">
     <g id="line2d_10">
      <g>
       <use style="stroke:#000000;stroke-width:0.8;" x="349.704427" xlink:href="#m7cc47a1d7a" y="448.56"/>
      </g>
     </g>
     <g id="text_10">
      <!-- 22:18:09 -->
      <g transform="translate(352.463802 500.4725)rotate(-90)scale(0.1 -0.1)">
       <use xlink:href="#DejaVuSans-50"/>
       <use x="63.623047" xlink:href="#DejaVuSans-50"/>
       <use x="127.246094" xlink:href="#DejaVuSans-58"/>
       <use x="160.9375" xlink:href="#DejaVuSans-49"/>
       <use x="224.560547" xlink:href="#DejaVuSans-56"/>
       <use x="288.183594" xlink:href="#DejaVuSans-58"/>
       <use x="321.875" xlink:href="#DejaVuSans-48"/>
       <use x="385.498047" xlink:href="#DejaVuSans-57"/>
      </g>
     </g>
    </g>
    <g id="xtick_11">
     <g id="line2d_11">
      <g>
       <use style="stroke:#000000;stroke-width:0.8;" x="373.85502" xlink:href="#m7cc47a1d7a" y="448.56"/>
      </g>
     </g>
     <g id="text_11">
      <!-- 22:19:35 -->
      <g transform="translate(376.614395 500.4725)rotate(-90)scale(0.1 -0.1)">
       <use xlink:href="#DejaVuSans-50"/>
       <use x="63.623047" xlink:href="#DejaVuSans-50"/>
       <use x="127.246094" xlink:href="#DejaVuSans-58"/>
       <use x="160.9375" xlink:href="#DejaVuSans-49"/>
       <use x="224.560547" xlink:href="#DejaVuSans-57"/>
       <use x="288.183594" xlink:href="#DejaVuSans-58"/>
       <use x="321.875" xlink:href="#DejaVuSans-51"/>
       <use x="385.498047" xlink:href="#DejaVuSans-53"/>
      </g>
     </g>
    </g>
    <g id="xtick_12">
     <g id="line2d_12">
      <g>
       <use style="stroke:#000000;stroke-width:0.8;" x="398.005613" xlink:href="#m7cc47a1d7a" y="448.56"/>
      </g>
     </g>
     <g id="text_12">
      <!-- 22:21:00 -->
      <g transform="translate(400.764988 500.4725)rotate(-90)scale(0.1 -0.1)">
       <use xlink:href="#DejaVuSans-50"/>
       <use x="63.623047" xlink:href="#DejaVuSans-50"/>
       <use x="127.246094" xlink:href="#DejaVuSans-58"/>
       <use x="160.9375" xlink:href="#DejaVuSans-50"/>
       <use x="224.560547" xlink:href="#DejaVuSans-49"/>
       <use x="288.183594" xlink:href="#DejaVuSans-58"/>
       <use x="321.875" xlink:href="#DejaVuSans-48"/>
       <use x="385.498047" xlink:href="#DejaVuSans-48"/>
      </g>
     </g>
    </g>
    <g id="xtick_13">
     <g id="line2d_13">
      <g>
       <use style="stroke:#000000;stroke-width:0.8;" x="422.156206" xlink:href="#m7cc47a1d7a" y="448.56"/>
      </g>
     </g>
     <g id="text_13">
      <!-- 22:22:25 -->
      <g transform="translate(424.915581 500.4725)rotate(-90)scale(0.1 -0.1)">
       <use xlink:href="#DejaVuSans-50"/>
       <use x="63.623047" xlink:href="#DejaVuSans-50"/>
       <use x="127.246094" xlink:href="#DejaVuSans-58"/>
       <use x="160.9375" xlink:href="#DejaVuSans-50"/>
       <use x="224.560547" xlink:href="#DejaVuSans-50"/>
       <use x="288.183594" xlink:href="#DejaVuSans-58"/>
       <use x="321.875" xlink:href="#DejaVuSans-50"/>
       <use x="385.498047" xlink:href="#DejaVuSans-53"/>
      </g>
     </g>
    </g>
    <g id="xtick_14">
     <g id="line2d_14">
      <g>
       <use style="stroke:#000000;stroke-width:0.8;" x="446.306798" xlink:href="#m7cc47a1d7a" y="448.56"/>
      </g>
     </g>
     <g id="text_14">
      <!-- 22:23:50 -->
      <g transform="translate(449.066173 500.4725)rotate(-90)scale(0.1 -0.1)">
       <use xlink:href="#DejaVuSans-50"/>
       <use x="63.623047" xlink:href="#DejaVuSans-50"/>
       <use x="127.246094" xlink:href="#DejaVuSans-58"/>
       <use x="160.9375" xlink:href="#DejaVuSans-50"/>
       <use x="224.560547" xlink:href="#DejaVuSans-51"/>
       <use x="288.183594" xlink:href="#DejaVuSans-58"/>
       <use x="321.875" xlink:href="#DejaVuSans-53"/>
       <use x="385.498047" xlink:href="#DejaVuSans-48"/>
      </g>
     </g>
    </g>
    <g id="xtick_15">
     <g id="line2d_15">
      <g>
       <use style="stroke:#000000;stroke-width:0.8;" x="470.457391" xlink:href="#m7cc47a1d7a" y="448.56"/>
      </g>
     </g>
     <g id="text_15">
      <!-- 22:25:15 -->
      <g transform="translate(473.216766 500.4725)rotate(-90)scale(0.1 -0.1)">
       <use xlink:href="#DejaVuSans-50"/>
       <use x="63.623047" xlink:href="#DejaVuSans-50"/>
       <use x="127.246094" xlink:href="#DejaVuSans-58"/>
       <use x="160.9375" xlink:href="#DejaVuSans-50"/>
       <use x="224.560547" xlink:href="#DejaVuSans-53"/>
       <use x="288.183594" xlink:href="#DejaVuSans-58"/>
       <use x="321.875" xlink:href="#DejaVuSans-49"/>
       <use x="385.498047" xlink:href="#DejaVuSans-53"/>
      </g>
     </g>
    </g>
    <g id="xtick_16">
     <g id="line2d_16">
      <g>
       <use style="stroke:#000000;stroke-width:0.8;" x="494.607984" xlink:href="#m7cc47a1d7a" y="448.56"/>
      </g>
     </g>
     <g id="text_16">
      <!-- 22:26:40 -->
      <g transform="translate(497.367359 500.4725)rotate(-90)scale(0.1 -0.1)">
       <use xlink:href="#DejaVuSans-50"/>
       <use x="63.623047" xlink:href="#DejaVuSans-50"/>
       <use x="127.246094" xlink:href="#DejaVuSans-58"/>
       <use x="160.9375" xlink:href="#DejaVuSans-50"/>
       <use x="224.560547" xlink:href="#DejaVuSans-54"/>
       <use x="288.183594" xlink:href="#DejaVuSans-58"/>
       <use x="321.875" xlink:href="#DejaVuSans-52"/>
       <use x="385.498047" xlink:href="#DejaVuSans-48"/>
      </g>
     </g>
    </g>
    <g id="xtick_17">
     <g id="line2d_17">
      <g>
       <use style="stroke:#000000;stroke-width:0.8;" x="518.758577" xlink:href="#m7cc47a1d7a" y="448.56"/>
      </g>
     </g>
     <g id="text_17">
      <!-- 22:28:06 -->
      <g transform="translate(521.517952 500.4725)rotate(-90)scale(0.1 -0.1)">
       <use xlink:href="#DejaVuSans-50"/>
       <use x="63.623047" xlink:href="#DejaVuSans-50"/>
       <use x="127.246094" xlink:href="#DejaVuSans-58"/>
       <use x="160.9375" xlink:href="#DejaVuSans-50"/>
       <use x="224.560547" xlink:href="#DejaVuSans-56"/>
       <use x="288.183594" xlink:href="#DejaVuSans-58"/>
       <use x="321.875" xlink:href="#DejaVuSans-48"/>
       <use x="385.498047" xlink:href="#DejaVuSans-54"/>
      </g>
     </g>
    </g>
    <g id="xtick_18">
     <g id="line2d_18">
      <g>
       <use style="stroke:#000000;stroke-width:0.8;" x="542.90917" xlink:href="#m7cc47a1d7a" y="448.56"/>
      </g>
     </g>
     <g id="text_18">
      <!-- 22:29:30 -->
      <g transform="translate(545.668545 500.4725)rotate(-90)scale(0.1 -0.1)">
       <use xlink:href="#DejaVuSans-50"/>
       <use x="63.623047" xlink:href="#DejaVuSans-50"/>
       <use x="127.246094" xlink:href="#DejaVuSans-58"/>
       <use x="160.9375" xlink:href="#DejaVuSans-50"/>
       <use x="224.560547" xlink:href="#DejaVuSans-57"/>
       <use x="288.183594" xlink:href="#DejaVuSans-58"/>
       <use x="321.875" xlink:href="#DejaVuSans-51"/>
       <use x="385.498047" xlink:href="#DejaVuSans-48"/>
      </g>
     </g>
    </g>
    <g id="xtick_19">
     <g id="line2d_19">
      <g>
       <use style="stroke:#000000;stroke-width:0.8;" x="567.059763" xlink:href="#m7cc47a1d7a" y="448.56"/>
      </g>
     </g>
     <g id="text_19">
      <!-- 22:30:56 -->
      <g transform="translate(569.819138 500.4725)rotate(-90)scale(0.1 -0.1)">
       <use xlink:href="#DejaVuSans-50"/>
       <use x="63.623047" xlink:href="#DejaVuSans-50"/>
       <use x="127.246094" xlink:href="#DejaVuSans-58"/>
       <use x="160.9375" xlink:href="#DejaVuSans-51"/>
       <use x="224.560547" xlink:href="#DejaVuSans-48"/>
       <use x="288.183594" xlink:href="#DejaVuSans-58"/>
       <use x="321.875" xlink:href="#DejaVuSans-53"/>
       <use x="385.498047" xlink:href="#DejaVuSans-54"/>
      </g>
     </g>
    </g>
    <g id="xtick_20">
     <g id="line2d_20">
      <g>
       <use style="stroke:#000000;stroke-width:0.8;" x="591.210356" xlink:href="#m7cc47a1d7a" y="448.56"/>
      </g>
     </g>
     <g id="text_20">
      <!-- 22:32:21 -->
      <g transform="translate(593.969731 500.4725)rotate(-90)scale(0.1 -0.1)">
       <use xlink:href="#DejaVuSans-50"/>
       <use x="63.623047" xlink:href="#DejaVuSans-50"/>
       <use x="127.246094" xlink:href="#DejaVuSans-58"/>
       <use x="160.9375" xlink:href="#DejaVuSans-51"/>
       <use x="224.560547" xlink:href="#DejaVuSans-50"/>
       <use x="288.183594" xlink:href="#DejaVuSans-58"/>
       <use x="321.875" xlink:href="#DejaVuSans-50"/>
       <use x="385.498047" xlink:href="#DejaVuSans-49"/>
      </g>
     </g>
    </g>
    <g id="xtick_21">
     <g id="line2d_21">
      <g>
       <use style="stroke:#000000;stroke-width:0.8;" x="615.360949" xlink:href="#m7cc47a1d7a" y="448.56"/>
      </g>
     </g>
     <g id="text_21">
      <!-- 22:33:46 -->
      <g transform="translate(618.120324 500.4725)rotate(-90)scale(0.1 -0.1)">
       <use xlink:href="#DejaVuSans-50"/>
       <use x="63.623047" xlink:href="#DejaVuSans-50"/>
       <use x="127.246094" xlink:href="#DejaVuSans-58"/>
       <use x="160.9375" xlink:href="#DejaVuSans-51"/>
       <use x="224.560547" xlink:href="#DejaVuSans-51"/>
       <use x="288.183594" xlink:href="#DejaVuSans-58"/>
       <use x="321.875" xlink:href="#DejaVuSans-52"/>
       <use x="385.498047" xlink:href="#DejaVuSans-54"/>
      </g>
     </g>
    </g>
    <g id="text_22">
     <!-- timestamp -->
     <g transform="translate(354.264375 510.55125)scale(0.08 -0.08)">
      <defs>
       <path d="M 18.3125 70.21875 
L 18.3125 54.6875 
L 36.8125 54.6875 
L 36.8125 47.703125 
L 18.3125 47.703125 
L 18.3125 18.015625 
Q 18.3125 11.328125 20.140625 9.421875 
Q 21.96875 7.515625 27.59375 7.515625 
L 36.8125 7.515625 
L 36.8125 0 
L 27.59375 0 
Q 17.1875 0 13.234375 3.875 
Q 9.28125 7.765625 9.28125 18.015625 
L 9.28125 47.703125 
L 2.6875 47.703125 
L 2.6875 54.6875 
L 9.28125 54.6875 
L 9.28125 70.21875 
z
" id="DejaVuSans-116"/>
       <path d="M 9.421875 54.6875 
L 18.40625 54.6875 
L 18.40625 0 
L 9.421875 0 
z
M 9.421875 75.984375 
L 18.40625 75.984375 
L 18.40625 64.59375 
L 9.421875 64.59375 
z
" id="DejaVuSans-105"/>
       <path d="M 52 44.1875 
Q 55.375 50.25 60.0625 53.125 
Q 64.75 56 71.09375 56 
Q 79.640625 56 84.28125 50.015625 
Q 88.921875 44.046875 88.921875 33.015625 
L 88.921875 0 
L 79.890625 0 
L 79.890625 32.71875 
Q 79.890625 40.578125 77.09375 44.375 
Q 74.3125 48.1875 68.609375 48.1875 
Q 61.625 48.1875 57.5625 43.546875 
Q 53.515625 38.921875 53.515625 30.90625 
L 53.515625 0 
L 44.484375 0 
L 44.484375 32.71875 
Q 44.484375 40.625 41.703125 44.40625 
Q 38.921875 48.1875 33.109375 48.1875 
Q 26.21875 48.1875 22.15625 43.53125 
Q 18.109375 38.875 18.109375 30.90625 
L 18.109375 0 
L 9.078125 0 
L 9.078125 54.6875 
L 18.109375 54.6875 
L 18.109375 46.1875 
Q 21.1875 51.21875 25.484375 53.609375 
Q 29.78125 56 35.6875 56 
Q 41.65625 56 45.828125 52.96875 
Q 50 49.953125 52 44.1875 
z
" id="DejaVuSans-109"/>
       <path d="M 56.203125 29.59375 
L 56.203125 25.203125 
L 14.890625 25.203125 
Q 15.484375 15.921875 20.484375 11.0625 
Q 25.484375 6.203125 34.421875 6.203125 
Q 39.59375 6.203125 44.453125 7.46875 
Q 49.3125 8.734375 54.109375 11.28125 
L 54.109375 2.78125 
Q 49.265625 0.734375 44.1875 -0.34375 
Q 39.109375 -1.421875 33.890625 -1.421875 
Q 20.796875 -1.421875 13.15625 6.1875 
Q 5.515625 13.8125 5.515625 26.8125 
Q 5.515625 40.234375 12.765625 48.109375 
Q 20.015625 56 32.328125 56 
Q 43.359375 56 49.78125 48.890625 
Q 56.203125 41.796875 56.203125 29.59375 
z
M 47.21875 32.234375 
Q 47.125 39.59375 43.09375 43.984375 
Q 39.0625 48.390625 32.421875 48.390625 
Q 24.90625 48.390625 20.390625 44.140625 
Q 15.875 39.890625 15.1875 32.171875 
z
" id="DejaVuSans-101"/>
       <path d="M 44.28125 53.078125 
L 44.28125 44.578125 
Q 40.484375 46.53125 36.375 47.5 
Q 32.28125 48.484375 27.875 48.484375 
Q 21.1875 48.484375 17.84375 46.4375 
Q 14.5 44.390625 14.5 40.28125 
Q 14.5 37.15625 16.890625 35.375 
Q 19.28125 33.59375 26.515625 31.984375 
L 29.59375 31.296875 
Q 39.15625 29.25 43.1875 25.515625 
Q 47.21875 21.78125 47.21875 15.09375 
Q 47.21875 7.46875 41.1875 3.015625 
Q 35.15625 -1.421875 24.609375 -1.421875 
Q 20.21875 -1.421875 15.453125 -0.5625 
Q 10.6875 0.296875 5.421875 2 
L 5.421875 11.28125 
Q 10.40625 8.6875 15.234375 7.390625 
Q 20.0625 6.109375 24.8125 6.109375 
Q 31.15625 6.109375 34.5625 8.28125 
Q 37.984375 10.453125 37.984375 14.40625 
Q 37.984375 18.0625 35.515625 20.015625 
Q 33.0625 21.96875 24.703125 23.78125 
L 21.578125 24.515625 
Q 13.234375 26.265625 9.515625 29.90625 
Q 5.8125 33.546875 5.8125 39.890625 
Q 5.8125 47.609375 11.28125 51.796875 
Q 16.75 56 26.8125 56 
Q 31.78125 56 36.171875 55.265625 
Q 40.578125 54.546875 44.28125 53.078125 
z
" id="DejaVuSans-115"/>
       <path d="M 34.28125 27.484375 
Q 23.390625 27.484375 19.1875 25 
Q 14.984375 22.515625 14.984375 16.5 
Q 14.984375 11.71875 18.140625 8.90625 
Q 21.296875 6.109375 26.703125 6.109375 
Q 34.1875 6.109375 38.703125 11.40625 
Q 43.21875 16.703125 43.21875 25.484375 
L 43.21875 27.484375 
z
M 52.203125 31.203125 
L 52.203125 0 
L 43.21875 0 
L 43.21875 8.296875 
Q 40.140625 3.328125 35.546875 0.953125 
Q 30.953125 -1.421875 24.3125 -1.421875 
Q 15.921875 -1.421875 10.953125 3.296875 
Q 6 8.015625 6 15.921875 
Q 6 25.140625 12.171875 29.828125 
Q 18.359375 34.515625 30.609375 34.515625 
L 43.21875 34.515625 
L 43.21875 35.40625 
Q 43.21875 41.609375 39.140625 45 
Q 35.0625 48.390625 27.6875 48.390625 
Q 23 48.390625 18.546875 47.265625 
Q 14.109375 46.140625 10.015625 43.890625 
L 10.015625 52.203125 
Q 14.9375 54.109375 19.578125 55.046875 
Q 24.21875 56 28.609375 56 
Q 40.484375 56 46.34375 49.84375 
Q 52.203125 43.703125 52.203125 31.203125 
z
" id="DejaVuSans-97"/>
       <path d="M 18.109375 8.203125 
L 18.109375 -20.796875 
L 9.078125 -20.796875 
L 9.078125 54.6875 
L 18.109375 54.6875 
L 18.109375 46.390625 
Q 20.953125 51.265625 25.265625 53.625 
Q 29.59375 56 35.59375 56 
Q 45.5625 56 51.78125 48.09375 
Q 58.015625 40.1875 58.015625 27.296875 
Q 58.015625 14.40625 51.78125 6.484375 
Q 45.5625 -1.421875 35.59375 -1.421875 
Q 29.59375 -1.421875 25.265625 0.953125 
Q 20.953125 3.328125 18.109375 8.203125 
z
M 48.6875 27.296875 
Q 48.6875 37.203125 44.609375 42.84375 
Q 40.53125 48.484375 33.40625 48.484375 
Q 26.265625 48.484375 22.1875 42.84375 
Q 18.109375 37.203125 18.109375 27.296875 
Q 18.109375 17.390625 22.1875 11.75 
Q 26.265625 6.109375 33.40625 6.109375 
Q 40.53125 6.109375 44.609375 11.75 
Q 48.6875 17.390625 48.6875 27.296875 
z
" id="DejaVuSans-112"/>
      </defs>
      <use xlink:href="#DejaVuSans-116"/>
      <use x="39.208984" xlink:href="#DejaVuSans-105"/>
      <use x="66.992188" xlink:href="#DejaVuSans-109"/>
      <use x="164.404297" xlink:href="#DejaVuSans-101"/>
      <use x="225.927734" xlink:href="#DejaVuSans-115"/>
      <use x="278.027344" xlink:href="#DejaVuSans-116"/>
      <use x="317.236328" xlink:href="#DejaVuSans-97"/>
      <use x="378.515625" xlink:href="#DejaVuSans-109"/>
      <use x="475.927734" xlink:href="#DejaVuSans-112"/>
     </g>
    </g>
   </g>
   <g id="matplotlib.axis_2">
    <g id="ytick_1">
     <g id="line2d_22">
      <defs>
       <path d="M 0 0 
L -3.5 0 
" id="m5339eecc72" style="stroke:#000000;stroke-width:0.8;"/>
      </defs>
      <g>
       <use style="stroke:#000000;stroke-width:0.8;" x="108" xlink:href="#m5339eecc72" y="418.864024"/>
      </g>
     </g>
     <g id="text_23">
      <!-- 10600 -->
      <g transform="translate(69.1875 422.663243)scale(0.1 -0.1)">
       <use xlink:href="#DejaVuSans-49"/>
       <use x="63.623047" xlink:href="#DejaVuSans-48"/>
       <use x="127.246094" xlink:href="#DejaVuSans-54"/>
       <use x="190.869141" xlink:href="#DejaVuSans-48"/>
       <use x="254.492188" xlink:href="#DejaVuSans-48"/>
      </g>
     </g>
    </g>
    <g id="ytick_2">
     <g id="line2d_23">
      <g>
       <use style="stroke:#000000;stroke-width:0.8;" x="108" xlink:href="#m5339eecc72" y="360.339868"/>
      </g>
     </g>
     <g id="text_24">
      <!-- 10800 -->
      <g transform="translate(69.1875 364.139086)scale(0.1 -0.1)">
       <use xlink:href="#DejaVuSans-49"/>
       <use x="63.623047" xlink:href="#DejaVuSans-48"/>
       <use x="127.246094" xlink:href="#DejaVuSans-56"/>
       <use x="190.869141" xlink:href="#DejaVuSans-48"/>
       <use x="254.492188" xlink:href="#DejaVuSans-48"/>
      </g>
     </g>
    </g>
    <g id="ytick_3">
     <g id="line2d_24">
      <g>
       <use style="stroke:#000000;stroke-width:0.8;" x="108" xlink:href="#m5339eecc72" y="301.815712"/>
      </g>
     </g>
     <g id="text_25">
      <!-- 11000 -->
      <g transform="translate(69.1875 305.61493)scale(0.1 -0.1)">
       <use xlink:href="#DejaVuSans-49"/>
       <use x="63.623047" xlink:href="#DejaVuSans-49"/>
       <use x="127.246094" xlink:href="#DejaVuSans-48"/>
       <use x="190.869141" xlink:href="#DejaVuSans-48"/>
       <use x="254.492188" xlink:href="#DejaVuSans-48"/>
      </g>
     </g>
    </g>
    <g id="ytick_4">
     <g id="line2d_25">
      <g>
       <use style="stroke:#000000;stroke-width:0.8;" x="108" xlink:href="#m5339eecc72" y="243.291555"/>
      </g>
     </g>
     <g id="text_26">
      <!-- 11200 -->
      <g transform="translate(69.1875 247.090774)scale(0.1 -0.1)">
       <use xlink:href="#DejaVuSans-49"/>
       <use x="63.623047" xlink:href="#DejaVuSans-49"/>
       <use x="127.246094" xlink:href="#DejaVuSans-50"/>
       <use x="190.869141" xlink:href="#DejaVuSans-48"/>
       <use x="254.492188" xlink:href="#DejaVuSans-48"/>
      </g>
     </g>
    </g>
    <g id="ytick_5">
     <g id="line2d_26">
      <g>
       <use style="stroke:#000000;stroke-width:0.8;" x="108" xlink:href="#m5339eecc72" y="184.767399"/>
      </g>
     </g>
     <g id="text_27">
      <!-- 11400 -->
      <g transform="translate(69.1875 188.566618)scale(0.1 -0.1)">
       <use xlink:href="#DejaVuSans-49"/>
       <use x="63.623047" xlink:href="#DejaVuSans-49"/>
       <use x="127.246094" xlink:href="#DejaVuSans-52"/>
       <use x="190.869141" xlink:href="#DejaVuSans-48"/>
       <use x="254.492188" xlink:href="#DejaVuSans-48"/>
      </g>
     </g>
    </g>
    <g id="ytick_6">
     <g id="line2d_27">
      <g>
       <use style="stroke:#000000;stroke-width:0.8;" x="108" xlink:href="#m5339eecc72" y="126.243243"/>
      </g>
     </g>
     <g id="text_28">
      <!-- 11600 -->
      <g transform="translate(69.1875 130.042462)scale(0.1 -0.1)">
       <use xlink:href="#DejaVuSans-49"/>
       <use x="63.623047" xlink:href="#DejaVuSans-49"/>
       <use x="127.246094" xlink:href="#DejaVuSans-54"/>
       <use x="190.869141" xlink:href="#DejaVuSans-48"/>
       <use x="254.492188" xlink:href="#DejaVuSans-48"/>
      </g>
     </g>
    </g>
    <g id="ytick_7">
     <g id="line2d_28">
      <g>
       <use style="stroke:#000000;stroke-width:0.8;" x="108" xlink:href="#m5339eecc72" y="67.719087"/>
      </g>
     </g>
     <g id="text_29">
      <!-- 11800 -->
      <g transform="translate(69.1875 71.518306)scale(0.1 -0.1)">
       <use xlink:href="#DejaVuSans-49"/>
       <use x="63.623047" xlink:href="#DejaVuSans-49"/>
       <use x="127.246094" xlink:href="#DejaVuSans-56"/>
       <use x="190.869141" xlink:href="#DejaVuSans-48"/>
       <use x="254.492188" xlink:href="#DejaVuSans-48"/>
      </g>
     </g>
    </g>
    <g id="text_30">
     <!-- MB -->
     <g transform="translate(63.52375 260.715625)rotate(-90)scale(0.08 -0.08)">
      <defs>
       <path d="M 9.8125 72.90625 
L 24.515625 72.90625 
L 43.109375 23.296875 
L 61.8125 72.90625 
L 76.515625 72.90625 
L 76.515625 0 
L 66.890625 0 
L 66.890625 64.015625 
L 48.09375 14.015625 
L 38.1875 14.015625 
L 19.390625 64.015625 
L 19.390625 0 
L 9.8125 0 
z
" id="DejaVuSans-77"/>
       <path d="M 19.671875 34.8125 
L 19.671875 8.109375 
L 35.5 8.109375 
Q 43.453125 8.109375 47.28125 11.40625 
Q 51.125 14.703125 51.125 21.484375 
Q 51.125 28.328125 47.28125 31.5625 
Q 43.453125 34.8125 35.5 34.8125 
z
M 19.671875 64.796875 
L 19.671875 42.828125 
L 34.28125 42.828125 
Q 41.5 42.828125 45.03125 45.53125 
Q 48.578125 48.25 48.578125 53.8125 
Q 48.578125 59.328125 45.03125 62.0625 
Q 41.5 64.796875 34.28125 64.796875 
z
M 9.8125 72.90625 
L 35.015625 72.90625 
Q 46.296875 72.90625 52.390625 68.21875 
Q 58.5 63.53125 58.5 54.890625 
Q 58.5 48.1875 55.375 44.234375 
Q 52.25 40.28125 46.1875 39.3125 
Q 53.46875 37.75 57.5 32.78125 
Q 61.53125 27.828125 61.53125 20.40625 
Q 61.53125 10.640625 54.890625 5.3125 
Q 48.25 0 35.984375 0 
L 9.8125 0 
z
" id="DejaVuSans-66"/>
      </defs>
      <use xlink:href="#DejaVuSans-77"/>
      <use x="86.279297" xlink:href="#DejaVuSans-66"/>
     </g>
    </g>
   </g>
   <g id="line2d_29">
    <path clip-path="url(#p98a9ef9095)" d="M 132.349091 81.762543 
L 132.679921 80.782849 
L 133.010751 80.601424 
L 133.341581 80.258473 
L 133.672411 80.149618 
L 134.003241 80.44692 
L 134.334071 78.306107 
L 134.995731 79.42743 
L 135.326561 79.265903 
L 135.657391 78.899542 
L 135.988221 78.12 
L 136.319051 79.852315 
L 136.649881 78.791857 
L 136.980711 87.795213 
L 137.973202 166.881247 
L 138.304032 212.153193 
L 140.289012 377.760168 
L 140.619842 394.096601 
L 140.950672 395.977567 
L 141.612332 394.33772 
L 141.943162 394.493395 
L 142.273992 398.924844 
L 142.604822 398.646269 
L 142.935652 398.972834 
L 143.266482 398.006015 
L 143.928142 398.821841 
L 144.258972 397.620926 
L 144.589802 397.029832 
L 145.251462 400.657159 
L 145.913123 400.792935 
L 146.243953 398.863979 
L 146.905613 400.744945 
L 147.236443 399.989983 
L 147.567273 398.724691 
L 147.898103 398.978686 
L 148.228933 400.980212 
L 148.559763 401.025861 
L 148.890593 400.641943 
L 149.221423 399.191714 
L 149.552253 400.721535 
L 149.883083 400.891255 
L 150.213913 400.600976 
L 150.544743 399.103928 
L 150.875573 399.419958 
L 151.206403 401.279856 
L 151.868063 399.321638 
L 152.198893 399.290035 
L 152.529723 400.335276 
L 152.860553 399.961892 
L 153.191383 400.203011 
L 153.522213 399.421129 
L 153.853043 399.816752 
L 154.183874 405.646928 
L 154.845534 405.488913 
L 155.176364 401.516293 
L 155.507194 401.206115 
L 155.838024 401.92011 
L 156.168854 401.642706 
L 156.499684 399.606065 
L 156.830514 399.913902 
L 157.161344 399.671612 
L 157.492174 399.840162 
L 158.153834 398.501129 
L 158.484664 400.1281 
L 158.815494 400.419551 
L 159.146324 400.095327 
L 159.477154 399.263113 
L 159.807984 400.260365 
L 160.138814 400.865505 
L 160.469644 400.68525 
L 160.800474 400.699296 
L 161.131304 400.075429 
L 161.462134 401.959907 
L 161.792964 400.112884 
L 162.123794 399.919754 
L 162.454625 402.565046 
L 162.785455 402.486624 
L 163.116285 405.071051 
L 163.447115 405.109677 
L 163.777945 401.710594 
L 164.108775 399.974767 
L 164.439605 401.631001 
L 165.101265 400.663011 
L 165.432095 399.76291 
L 165.762925 399.477312 
L 166.093755 402.309881 
L 166.424585 401.688354 
L 166.755415 401.753902 
L 167.086245 400.506167 
L 167.417075 401.153444 
L 167.747905 401.14525 
L 168.078735 401.577159 
L 168.409565 400.679398 
L 169.071225 406.242704 
L 169.402055 405.91731 
L 169.732885 405.870491 
L 170.063715 401.662604 
L 170.394545 402.6224 
L 170.725375 402.892782 
L 171.056206 401.117159 
L 171.387036 400.035632 
L 171.717866 400.534258 
L 172.048696 401.26581 
L 172.379526 401.173342 
L 172.710356 401.367642 
L 173.041186 401.296243 
L 173.372016 402.716039 
L 174.033676 402.871713 
L 174.364506 401.146421 
L 174.695336 400.984894 
L 175.026166 402.836598 
L 175.356996 402.684436 
L 175.687826 402.076955 
L 176.018656 400.969678 
L 176.349486 403.412476 
L 176.680316 403.344588 
L 177.341976 400.837413 
L 177.672806 399.332172 
L 178.003636 400.739093 
L 178.665296 400.806981 
L 178.996126 399.64235 
L 179.326957 401.084385 
L 179.657787 401.00011 
L 179.988617 400.550645 
L 180.319447 399.772274 
L 180.650277 401.114818 
L 180.981107 403.042603 
L 181.311937 403.023876 
L 181.642767 402.569728 
L 181.973597 401.440212 
L 182.304427 402.748812 
L 182.635257 402.712527 
L 182.966087 402.505352 
L 183.296917 401.498736 
L 183.627747 402.491306 
L 183.958577 403.922807 
L 184.289407 404.371102 
L 184.620237 403.414817 
L 184.951067 402.081637 
L 185.281897 402.755835 
L 185.612727 402.677413 
L 186.274387 400.75665 
L 186.605217 401.635683 
L 186.936047 403.328201 
L 187.266877 402.657515 
L 187.597708 402.471408 
L 187.928538 401.126523 
L 188.259368 403.68754 
L 188.590198 403.892374 
L 188.921028 403.801077 
L 189.251858 402.941942 
L 189.582688 402.620059 
L 189.913518 403.945046 
L 190.244348 403.768303 
L 190.575178 403.296598 
L 190.906008 401.917769 
L 191.236838 405.080415 
L 191.567668 402.539296 
L 191.898498 402.240823 
L 192.229328 400.355174 
L 192.890988 402.398838 
L 193.552648 401.737515 
L 193.883478 401.183876 
L 194.214308 401.979805 
L 194.875968 402.507693 
L 195.206798 401.641535 
L 195.537628 402.236141 
L 195.868458 403.551764 
L 196.199289 403.585708 
L 196.530119 403.39726 
L 196.860949 402.30754 
L 197.191779 403.908761 
L 197.853439 404.0024 
L 198.184269 401.94469 
L 198.845929 404.490491 
L 199.507589 403.51899 
L 199.838419 402.542807 
L 200.169249 403.764792 
L 200.500079 403.369168 
L 200.830909 403.403112 
L 201.161739 402.752324 
L 201.492569 402.804995 
L 201.823399 403.743723 
L 202.154229 403.117514 
L 202.485059 403.007489 
L 202.815889 402.273596 
L 203.146719 404.234155 
L 203.477549 403.562298 
L 203.808379 402.45268 
L 204.139209 402.000873 
L 204.47004 401.751561 
L 204.80087 403.053138 
L 205.1317 406.64301 
L 205.46253 406.015631 
L 205.79336 405.11787 
L 206.45502 404.839295 
L 206.78585 405.417514 
L 207.11668 404.408557 
L 207.44751 402.503011 
L 208.10917 406.921585 
L 208.44 405.988709 
L 208.77083 405.884536 
L 209.10166 404.132323 
L 209.43249 404.258735 
L 209.76332 403.987183 
L 210.09415 402.806166 
L 210.42498 403.206471 
L 210.75581 405.610643 
L 211.08664 405.403468 
L 211.7483 403.692222 
L 212.07913 405.375376 
L 212.40996 405.555631 
L 212.740791 405.048812 
L 213.071621 404.121789 
L 213.402451 404.804181 
L 213.733281 404.1253 
L 214.064111 404.05273 
L 214.394941 403.790542 
L 214.725771 403.195937 
L 215.056601 404.882603 
L 215.387431 405.230236 
L 215.718261 404.714053 
L 216.049091 403.891204 
L 216.379921 403.776496 
L 216.710751 404.129982 
L 217.372411 403.922807 
L 217.703241 402.950135 
L 218.034071 405.857615 
L 218.364901 406.3539 
L 218.695731 406.046063 
L 219.026561 405.2396 
L 219.357391 405.474867 
L 219.688221 406.002755 
L 220.349881 403.977819 
L 221.011542 403.791713 
L 221.342372 403.846725 
L 221.673202 403.767133 
L 222.004032 403.206471 
L 222.334862 404.00357 
L 222.665692 405.206827 
L 223.327352 404.688303 
L 223.658182 403.708608 
L 223.989012 405.487743 
L 224.319842 405.525198 
L 224.650672 405.270033 
L 224.981502 403.839702 
L 225.312332 406.112781 
L 225.643162 407.12876 
L 225.973992 406.763569 
L 226.635652 404.80301 
L 226.966482 405.164689 
L 227.297312 405.137768 
L 227.628142 403.406624 
L 227.958972 403.466318 
L 228.289802 404.307896 
L 228.620632 403.458125 
L 228.951462 403.044944 
L 229.282292 403.235733 
L 229.613123 402.232629 
L 229.943953 404.407387 
L 230.274783 404.538481 
L 230.605613 404.427285 
L 230.936443 403.551764 
L 231.267273 403.85726 
L 231.598103 405.438582 
L 231.928933 405.546267 
L 232.259763 405.285249 
L 232.590593 404.038685 
L 232.921423 405.051153 
L 233.252253 405.216191 
L 233.583083 405.527539 
L 233.913913 403.798736 
L 234.244743 403.893545 
L 234.575573 405.164689 
L 234.906403 404.339499 
L 235.237233 404.400364 
L 235.568063 403.541229 
L 235.898893 406.472119 
L 236.229723 406.212272 
L 236.560553 406.234511 
L 236.891383 405.391763 
L 237.222213 403.993036 
L 237.553043 405.171712 
L 238.214704 405.446776 
L 238.545534 404.141687 
L 238.876364 405.395275 
L 239.207194 405.854104 
L 239.538024 405.773341 
L 239.868854 403.830339 
L 240.199684 404.989117 
L 240.530514 409.40535 
L 240.861344 408.608251 
L 241.523004 406.211101 
L 241.853834 407.29731 
L 242.515494 407.498633 
L 242.846324 406.708557 
L 243.177154 406.521279 
L 243.507984 407.753798 
L 243.838814 408.188047 
L 244.169644 408.329676 
L 244.500474 406.825605 
L 244.831304 408.258276 
L 245.162134 408.63049 
L 245.823794 406.37848 
L 246.154625 406.57161 
L 246.485455 408.488861 
L 247.147115 406.13502 
L 247.477945 409.495477 
L 247.808775 411.220769 
L 248.139605 411.727588 
L 248.470435 411.957003 
L 248.801265 407.826368 
L 249.132095 407.404994 
L 249.462925 410.331202 
L 249.793755 409.767029 
L 250.124585 409.439294 
L 250.455415 408.041737 
L 250.786245 408.252424 
L 251.117075 409.910998 
L 251.447905 409.877054 
L 251.778735 406.991814 
L 252.109565 407.073747 
L 252.440395 408.903212 
L 252.771225 408.845859 
L 253.102055 408.616444 
L 253.432885 407.958633 
L 253.763715 409.674561 
L 254.094545 409.264892 
L 254.425375 412.575018 
L 254.756206 412.14428 
L 255.087036 412.543415 
L 255.417866 413.628453 
L 255.748696 410.140413 
L 256.079526 408.230185 
L 256.410356 408.450235 
L 256.741186 409.586775 
L 257.072016 409.314052 
L 257.402846 409.572729 
L 257.733676 409.11507 
L 258.064506 409.366724 
L 258.395336 410.250439 
L 259.056996 409.449828 
L 259.387826 407.076088 
L 259.718656 409.571558 
L 260.380316 409.274256 
L 261.041976 407.966826 
L 261.372806 409.495477 
L 261.703636 409.591457 
L 262.034466 409.134968 
L 262.365296 408.26764 
L 262.696126 409.035477 
L 263.026957 408.831813 
L 263.357787 408.446724 
L 263.688617 407.817004 
L 264.019447 407.989065 
L 264.350277 409.140821 
L 264.681107 408.595375 
L 265.011937 408.395223 
L 265.342767 407.387437 
L 265.673597 410.119344 
L 266.004427 410.427181 
L 266.335257 409.933238 
L 266.996917 407.893086 
L 267.327747 409.254357 
L 267.658577 409.412373 
L 267.989407 408.693696 
L 268.320237 407.402653 
L 268.651067 408.983976 
L 269.312727 409.184128 
L 269.643557 407.799447 
L 269.974387 407.000007 
L 270.305217 409.834917 
L 270.636047 409.735426 
L 271.297708 407.929371 
L 271.628538 409.640617 
L 271.959368 409.383111 
L 272.290198 409.394815 
L 272.621028 408.527487 
L 272.951858 408.619956 
L 273.282688 410.798225 
L 273.613518 411.382296 
L 273.944348 410.889522 
L 274.275178 408.905553 
L 274.606008 409.682754 
L 274.936838 409.886418 
L 275.267668 409.59965 
L 275.598498 407.349981 
L 275.929328 407.49161 
L 276.260158 410.862601 
L 277.252648 407.839243 
L 277.583478 408.891508 
L 277.914308 410.553594 
L 278.245138 410.491558 
L 278.575968 410.128708 
L 278.906798 409.270744 
L 279.237628 409.887589 
L 279.899289 409.548149 
L 280.230119 408.550897 
L 280.560949 409.586775 
L 280.891779 411.267588 
L 281.222609 411.228962 
L 281.884269 409.784586 
L 282.215099 409.975375 
L 282.876759 407.799447 
L 283.207589 407.620363 
L 283.869249 411.814204 
L 284.200079 411.348352 
L 284.530909 411.299191 
L 284.861739 410.269166 
L 285.192569 411.396342 
L 285.523399 411.365909 
L 285.854229 411.600006 
L 286.185059 410.503263 
L 286.515889 410.901227 
L 286.846719 412.200463 
L 287.508379 412.003822 
L 287.839209 411.486469 
L 288.17004 413.005756 
L 288.50087 413.176646 
L 288.8317 412.72601 
L 289.16253 412.001481 
L 289.49336 412.244942 
L 289.82419 412.090438 
L 290.15502 414.388096 
L 290.48585 413.847333 
L 290.81668 413.740819 
L 291.47834 412.164178 
L 291.80917 412.461481 
L 292.47083 411.299191 
L 292.80166 412.648758 
L 293.13249 415.982294 
L 293.46332 415.930793 
L 293.79415 414.329572 
L 294.12498 413.650692 
L 294.45581 413.537155 
L 294.78664 413.617918 
L 295.11747 411.763873 
L 295.4483 410.960922 
L 295.77913 412.122041 
L 296.10996 412.193441 
L 296.440791 411.832932 
L 296.771621 411.017105 
L 297.102451 413.608555 
L 297.433281 413.657715 
L 297.764111 413.063109 
L 298.094941 411.618733 
L 298.425771 411.912525 
L 298.756601 412.988199 
L 299.087431 412.093949 
L 299.418261 412.181736 
L 299.749091 411.699497 
L 300.079921 412.708453 
L 300.410751 412.734204 
L 300.741581 412.213339 
L 301.072411 411.420922 
L 301.403241 412.441583 
L 301.734071 412.900412 
L 302.064901 413.054916 
L 302.395731 411.32026 
L 302.726561 411.046367 
L 303.057391 412.631201 
L 303.719051 412.248453 
L 304.049881 411.286316 
L 304.380711 412.491914 
L 304.711542 411.773237 
L 305.042372 411.600006 
L 305.373202 412.019039 
L 305.704032 410.992525 
L 306.034862 413.461074 
L 306.696522 413.656544 
L 307.027352 411.774408 
L 307.358182 411.68428 
L 307.689012 412.16769 
L 308.019842 412.379547 
L 308.681502 410.466978 
L 309.012332 414.789572 
L 309.673992 413.267944 
L 310.004822 412.236748 
L 310.335652 411.777919 
L 310.666482 412.779853 
L 311.328142 413.205908 
L 311.989802 412.056494 
L 312.651462 412.077563 
L 312.982292 411.346011 
L 313.313123 413.443516 
L 313.643953 412.872321 
L 313.974783 412.729522 
L 314.305613 411.632779 
L 314.636443 411.766214 
L 314.967273 412.82316 
L 315.298103 412.799751 
L 315.628933 410.815782 
L 315.959763 411.090845 
L 316.290593 411.938275 
L 316.621423 413.47629 
L 316.952253 413.653033 
L 317.283083 413.171964 
L 317.613913 413.349878 
L 317.944743 414.27456 
L 318.275573 414.127079 
L 318.606403 413.853186 
L 318.937233 412.978835 
L 319.268063 414.238275 
L 319.598893 412.956596 
L 319.929723 413.28199 
L 320.260553 413.274967 
L 320.591383 412.74942 
L 320.922213 414.055679 
L 321.253043 413.98428 
L 321.914704 412.056494 
L 322.245534 412.125552 
L 322.907194 412.752931 
L 323.238024 413.027995 
L 323.568854 412.633542 
L 323.899684 413.822753 
L 324.561344 413.802855 
L 324.892174 413.003415 
L 325.223004 413.256239 
L 325.553834 414.060361 
L 325.884664 414.144636 
L 326.215494 413.931608 
L 326.546324 412.905094 
L 326.877154 415.275323 
L 327.207984 414.618682 
L 327.538814 414.66316 
L 327.869644 414.086112 
L 328.200474 413.049064 
L 328.531304 413.489165 
L 328.862134 413.436494 
L 329.192964 413.616748 
L 329.523794 412.946061 
L 329.854625 414.289776 
L 330.185455 414.645603 
L 330.516285 414.740412 
L 330.847115 412.899242 
L 331.177945 413.297206 
L 331.508775 414.606977 
L 331.839605 414.595272 
L 332.170435 414.278071 
L 332.501265 417.330691 
L 332.832095 419.002141 
L 333.162925 418.000207 
L 333.493755 417.76377 
L 333.824585 413.862549 
L 334.155415 415.31746 
L 334.817075 412.673339 
L 335.147905 411.983924 
L 335.478735 411.729929 
L 335.809565 415.030692 
L 336.140395 414.673694 
L 336.471225 415.189877 
L 336.802055 413.635476 
L 337.132885 414.841073 
L 337.463715 414.465348 
L 337.794545 414.577715 
L 338.125375 413.312422 
L 338.456206 414.364687 
L 338.787036 414.691252 
L 339.117866 413.798173 
L 339.448696 414.389267 
L 339.779526 413.530132 
L 340.110356 415.013134 
L 340.441186 414.914814 
L 340.772016 415.033033 
L 341.102846 414.570692 
L 341.433676 414.962804 
L 341.764506 416.745449 
L 342.095336 415.496544 
L 342.426166 415.309267 
L 342.756996 413.882448 
L 343.087826 414.814152 
L 343.749486 415.316289 
L 344.080316 413.629623 
L 344.741976 416.89176 
L 345.072806 416.36036 
L 345.403636 416.144992 
L 345.734466 415.306926 
L 346.065296 416.45634 
L 346.726957 415.182854 
L 347.057787 415.24489 
L 347.388617 415.109114 
L 347.719447 416.67522 
L 348.050277 416.638935 
L 348.711937 415.782142 
L 349.042767 417.554253 
L 350.035257 414.704127 
L 350.366087 415.92377 
L 350.696917 418.395831 
L 351.027747 417.76494 
L 351.358577 417.596391 
L 351.689407 416.630742 
L 352.020237 417.160971 
L 352.351067 417.28036 
L 352.681897 417.189062 
L 353.012727 416.198834 
L 353.674387 417.951047 
L 354.005217 417.687688 
L 354.336047 417.95924 
L 354.666877 416.123923 
L 354.997708 417.190233 
L 355.328538 417.711098 
L 355.659368 417.782497 
L 355.990198 416.038478 
L 356.321028 416.098172 
L 356.982688 417.240564 
L 357.644348 415.508249 
L 357.975178 417.045093 
L 358.306008 417.878477 
L 358.967668 416.72204 
L 359.298498 416.719699 
L 359.629328 418.069266 
L 359.960158 417.000615 
L 360.290988 416.468045 
L 360.621818 430.92 
L 360.952648 427.319594 
L 361.283478 425.026617 
L 361.614308 421.752776 
L 361.945138 420.93812 
L 362.275968 417.939342 
L 362.606798 418.237815 
L 362.937628 418.380614 
L 363.268458 417.863261 
L 363.599289 416.856645 
L 363.930119 419.075881 
L 364.260949 419.244431 
L 364.591779 418.755169 
L 364.922609 417.898375 
L 365.253439 416.492625 
L 365.584269 417.997866 
L 365.915099 417.748553 
L 366.245929 416.041989 
L 366.576759 415.955373 
L 366.907589 417.924126 
L 367.238419 417.949877 
L 367.569249 417.301429 
L 367.900079 416.301836 
L 368.230909 415.843007 
L 368.561739 418.993947 
L 368.892569 419.180054 
L 369.223399 418.773897 
L 369.554229 417.968604 
L 369.885059 418.70835 
L 370.546719 418.584278 
L 371.208379 416.691607 
L 371.539209 418.542141 
L 371.87004 418.543311 
L 372.20087 418.291658 
L 372.86253 416.86835 
L 373.19336 418.743464 
L 373.52419 417.877307 
L 373.85502 417.848044 
L 374.18585 417.626823 
L 374.51668 418.087994 
L 374.84751 418.157052 
L 375.17834 421.686059 
L 375.50917 421.236593 
L 375.84 422.266618 
L 376.17083 420.185499 
L 376.50166 420.133998 
L 377.16332 418.572574 
L 377.49415 419.966619 
L 377.82498 420.086008 
L 378.15581 423.84443 
L 378.48664 422.922089 
L 378.81747 423.171402 
L 379.1483 421.959952 
L 379.47913 421.51985 
L 379.80996 421.613489 
L 380.471621 420.364583 
L 380.802451 420.457051 
L 381.464111 418.633439 
L 381.794941 419.02321 
L 382.125771 419.782853 
L 382.456601 420.13868 
L 382.787431 418.53863 
L 383.118261 418.029469 
L 383.449091 421.873336 
L 383.779921 421.83471 
L 384.441581 420.231148 
L 384.772411 420.446517 
L 385.103241 422.025499 
L 385.434071 421.160512 
L 385.764901 419.880003 
L 386.095731 420.276797 
L 386.426561 422.607229 
L 386.757391 422.896338 
L 387.088221 422.460918 
L 387.749881 420.124634 
L 388.080711 420.91471 
L 388.411542 420.908858 
L 388.742372 420.359901 
L 389.073202 419.284227 
L 389.404032 420.927586 
L 389.734862 421.18158 
L 390.065692 420.625601 
L 390.396522 419.786365 
L 391.058182 422.106262 
L 391.389012 421.991555 
L 391.719842 421.549112 
L 392.050672 420.832776 
L 392.381502 422.870588 
L 393.043162 421.683718 
L 393.373992 420.783616 
L 393.704822 422.171809 
L 394.035652 420.935779 
L 394.366482 420.643158 
L 394.697312 418.845296 
L 395.028142 418.790283 
L 395.358972 421.506975 
L 395.689802 421.669672 
L 396.020632 422.4656 
L 396.351462 421.535066 
L 396.682292 422.504226 
L 397.013123 424.037559 
L 397.343953 422.748857 
L 397.674783 422.677458 
L 398.005613 421.525702 
L 398.336443 423.315371 
L 398.667273 423.469875 
L 398.998103 423.33644 
L 399.328933 422.53817 
L 399.659763 422.883463 
L 399.990593 423.702801 
L 400.652253 423.914659 
L 400.983083 422.616593 
L 401.313913 424.828806 
L 401.644743 423.891249 
L 401.975573 423.692267 
L 402.637233 421.595931 
L 402.968063 423.673539 
L 403.298893 423.741427 
L 403.960553 422.175321 
L 404.291383 423.720358 
L 405.283874 422.476135 
L 405.614704 422.738323 
L 405.945534 423.739086 
L 406.276364 423.472216 
L 406.607194 423.393794 
L 406.938024 422.783972 
L 407.268854 424.050435 
L 407.599684 424.202597 
L 407.930514 424.066821 
L 408.261344 423.28845 
L 408.592174 424.180358 
L 408.923004 424.066821 
L 409.253834 424.455422 
L 409.915494 423.032114 
L 410.246324 424.593539 
L 410.577154 423.994251 
L 410.907984 423.77186 
L 411.238814 422.216287 
L 411.569644 422.236186 
L 411.900474 424.47532 
L 412.231304 424.520969 
L 412.562134 423.396134 
L 412.892964 422.795677 
L 413.223794 424.746872 
L 413.885455 424.495218 
L 414.216285 423.199493 
L 415.539605 424.875625 
L 415.870435 423.897101 
L 416.201265 424.082038 
L 416.532095 423.82219 
L 416.862925 423.782394 
L 417.193755 421.735219 
L 417.524585 426.621986 
L 417.855415 428.632876 
L 418.186245 429.007431 
L 418.517075 428.410484 
L 418.847905 424.721121 
L 419.178735 426.040256 
L 419.509565 425.803818 
L 419.840395 427.457711 
L 420.171225 427.328958 
L 420.832885 428.86112 
L 421.163715 425.926719 
L 421.494545 424.604073 
L 421.825375 424.57247 
L 422.156206 425.422241 
L 422.487036 425.560358 
L 423.148696 424.826465 
L 423.479526 425.44565 
L 423.810356 424.180358 
L 424.141186 424.032877 
L 424.802846 422.278323 
L 425.133676 424.40392 
L 425.464506 424.318475 
L 425.795336 424.42616 
L 426.126166 423.569366 
L 426.456996 423.328246 
L 426.787826 424.815931 
L 427.118656 423.954455 
L 427.449486 424.170994 
L 427.780316 423.616185 
L 428.111146 424.774964 
L 428.441976 426.386719 
L 428.772806 426.116337 
L 429.103636 424.852215 
L 429.434466 425.006719 
L 429.765296 425.721884 
L 430.426957 425.497152 
L 430.757787 424.37934 
L 431.088617 427.070281 
L 431.419447 426.300103 
L 431.750277 425.916185 
L 432.081107 423.987228 
L 432.411937 424.114811 
L 432.742767 424.537356 
L 433.073597 424.735167 
L 433.735257 423.715676 
L 434.066087 423.60331 
L 434.396917 423.982547 
L 434.727747 424.148755 
L 435.058577 427.893131 
L 435.389407 427.312571 
L 435.720237 429.309415 
L 436.051067 425.863513 
L 436.381897 425.90448 
L 436.712727 424.557254 
L 437.043557 424.585345 
L 437.374387 423.849111 
L 437.705217 423.906465 
L 438.036047 424.085549 
L 438.366877 422.36845 
L 438.697708 423.171402 
L 439.028538 423.108196 
L 439.359368 422.575626 
L 439.690198 421.683718 
L 440.021028 422.541682 
L 440.351858 424.598221 
L 440.682688 423.583412 
L 441.013518 424.1113 
L 441.344348 423.446465 
L 441.675178 424.893182 
L 442.006008 424.856897 
L 442.336838 424.947025 
L 442.667668 423.774201 
L 442.998498 424.725803 
L 443.660158 424.295066 
L 443.990988 423.586923 
L 444.321818 423.350486 
L 444.652648 425.820205 
L 444.983478 426.094098 
L 445.314308 424.882648 
L 445.645138 424.2342 
L 445.975968 425.185803 
L 446.306798 427.144021 
L 446.637628 426.600917 
L 446.968458 425.377762 
L 447.299289 426.480358 
L 447.630119 425.848297 
L 447.960949 426.248602 
L 448.291779 425.950129 
L 448.622609 425.239645 
L 448.953439 424.861579 
L 449.284269 426.357457 
L 449.615099 425.732419 
L 449.945929 424.516287 
L 450.276759 421.525702 
L 450.607589 423.791758 
L 450.938419 423.164379 
L 451.269249 422.952521 
L 451.600079 422.082852 
L 451.930909 422.519443 
L 452.261739 424.860409 
L 452.592569 423.813997 
L 452.923399 423.681732 
L 453.254229 422.312267 
L 453.585059 422.964226 
L 453.915889 422.264277 
L 454.246719 422.067636 
L 454.908379 420.752013 
L 455.239209 422.472623 
L 455.90087 422.752369 
L 456.2317 421.524532 
L 456.56253 422.741834 
L 456.89336 422.909214 
L 457.22419 422.215117 
L 457.55502 420.832776 
L 458.21668 423.515524 
L 458.54751 423.152674 
L 459.20917 421.453133 
L 459.54 422.34387 
L 459.87083 422.53817 
L 460.20166 426.185396 
L 460.53249 425.46789 
L 460.86332 425.579086 
L 461.19415 422.905702 
L 461.52498 422.809722 
L 461.85581 421.890893 
L 462.18664 419.627179 
L 462.51747 422.814404 
L 462.8483 424.142903 
L 463.17913 427.94112 
L 463.50996 425.88107 
L 463.840791 426.627838 
L 464.171621 424.144073 
L 464.833281 423.465193 
L 465.164111 422.606058 
L 465.494941 424.389875 
L 465.825771 424.586516 
L 466.156601 423.994251 
L 466.487431 422.662242 
L 466.818261 423.092979 
L 467.149091 424.376999 
L 467.479921 423.866669 
L 467.810751 423.840918 
L 468.141581 422.872929 
L 468.803241 421.904939 
L 469.134071 421.73873 
L 469.464901 421.057509 
L 469.795731 422.000919 
L 470.126561 423.853793 
L 470.457391 424.004786 
L 470.788221 423.819849 
L 471.119051 422.918577 
L 471.449881 424.59705 
L 471.780711 424.345396 
L 472.111542 423.778882 
L 472.442372 421.063362 
L 472.773202 421.263514 
L 473.104032 421.927178 
L 474.096522 419.805092 
L 474.427352 421.655626 
L 474.758182 420.974405 
L 475.089012 421.032929 
L 475.419842 419.943209 
L 475.750672 420.464074 
L 476.412332 419.486721 
L 476.743162 418.526925 
L 477.073992 418.203871 
L 477.404822 418.619393 
L 477.735652 418.70952 
L 478.066482 418.10321 
L 478.397312 416.532421 
L 478.728142 417.094253 
L 479.058972 418.626416 
L 479.389802 418.75868 
L 479.720632 418.536289 
L 480.051462 417.733337 
L 480.382292 419.527688 
L 480.713123 419.246772 
L 481.043953 419.130894 
L 481.374783 417.831658 
L 481.705613 417.499241 
L 482.036443 418.331454 
L 482.698103 418.171098 
L 483.028933 417.2312 
L 483.359763 418.890945 
L 483.690593 418.652166 
L 484.352253 416.55232 
L 484.683083 417.47349 
L 485.675573 417.164482 
L 486.006403 416.468045 
L 486.337233 420.053235 
L 486.668063 418.834762 
L 486.998893 418.873388 
L 487.329723 418.195678 
L 487.991383 419.430538 
L 488.322213 419.163668 
L 488.653043 418.647484 
L 488.983874 417.784838 
L 489.314704 418.861683 
L 489.645534 419.264329 
L 489.976364 418.32092 
L 490.307194 417.026365 
L 490.638024 417.646721 
L 490.968854 419.497255 
L 491.299684 418.562039 
L 491.961344 417.849215 
L 492.292174 418.3455 
L 492.623004 418.340818 
L 493.284664 416.540615 
L 493.615494 416.832065 
L 493.946324 417.810589 
L 494.607984 417.90891 
L 494.938814 417.054457 
L 495.269644 418.034151 
L 495.931304 416.394304 
L 496.262134 414.631557 
L 496.923794 416.81919 
L 497.254625 417.160971 
L 497.916285 414.313185 
L 498.247115 415.563261 
L 498.908775 414.550794 
L 499.239605 412.541074 
L 499.570435 412.420514 
L 499.901265 413.417766 
L 500.232095 413.321786 
L 500.562925 412.915629 
L 500.893755 411.395171 
L 501.224585 412.450947 
L 501.886245 412.5797 
L 502.217075 411.693644 
L 502.547905 414.83405 
L 502.878735 416.835577 
L 503.540395 414.27456 
L 503.871225 411.583619 
L 504.202055 413.638987 
L 504.532885 413.078326 
L 504.863715 411.506367 
L 505.194545 410.723314 
L 505.525375 411.039344 
L 505.856206 412.329217 
L 506.187036 412.147792 
L 506.517866 412.232066 
L 506.848696 411.022957 
L 507.179526 411.317919 
L 507.841186 410.88367 
L 508.172016 410.072525 
L 508.502846 412.814967 
L 508.833676 411.003059 
L 509.495336 409.837258 
L 509.826166 410.147436 
L 510.156996 411.266418 
L 510.487826 410.756087 
L 510.818656 410.852067 
L 511.149486 409.812678 
L 511.480316 412.187588 
L 511.811146 412.429878 
L 512.141976 412.198122 
L 512.472806 411.042856 
L 512.803636 411.018275 
L 513.134466 412.857104 
L 513.796126 412.400616 
L 514.126957 411.44082 
L 514.457787 411.985095 
L 515.450277 409.790439 
L 515.781107 410.928148 
L 516.111937 411.535629 
L 516.773597 410.038581 
L 517.104427 409.868861 
L 517.435257 410.464637 
L 517.766087 410.505604 
L 518.096917 409.870032 
L 518.427747 408.234867 
L 518.758577 408.618785 
L 519.089407 409.322245 
L 519.420237 409.209879 
L 519.751067 408.864587 
L 520.081897 407.875528 
L 520.412727 410.140413 
L 520.743557 409.953136 
L 521.074387 409.113899 
L 521.405217 407.711661 
L 521.736047 407.860312 
L 522.066877 407.142806 
L 522.397708 406.032017 
L 522.728538 405.677361 
L 523.059368 404.856852 
L 523.390198 404.642654 
L 523.721028 404.954002 
L 524.051858 404.738634 
L 524.382688 403.939194 
L 524.713518 403.887692 
L 525.044348 406.069473 
L 525.375178 406.249727 
L 525.706008 405.984028 
L 526.036838 405.333239 
L 526.367668 407.208353 
L 527.029328 406.572781 
L 527.360158 405.144791 
L 527.690988 404.292679 
L 528.021818 405.024231 
L 528.352648 404.118277 
L 528.683478 404.594664 
L 529.014308 403.467489 
L 529.345138 405.653951 
L 529.675968 405.836547 
L 530.006798 405.137768 
L 530.668458 402.761688 
L 530.999289 405.589575 
L 531.330119 405.594257 
L 531.660949 405.371865 
L 531.991779 403.448761 
L 532.322609 405.097972 
L 532.653439 405.459651 
L 532.984269 405.160007 
L 533.315099 405.032425 
L 533.645929 403.579855 
L 533.976759 405.533392 
L 534.307589 405.350796 
L 534.638419 403.225199 
L 534.969249 403.623163 
L 535.300079 404.214257 
L 535.630909 405.135427 
L 535.961739 405.158837 
L 536.292569 404.675427 
L 536.623399 403.977819 
L 536.954229 406.308251 
L 537.285059 406.023824 
L 537.615889 406.179498 
L 537.946719 405.604791 
L 538.277549 404.781941 
L 538.608379 406.070643 
L 538.939209 405.882196 
L 539.27004 406.083519 
L 539.60087 404.877921 
L 539.9317 404.766725 
L 540.26253 404.777259 
L 540.59336 402.845962 
L 540.92419 402.301688 
L 541.25502 403.167845 
L 541.58585 405.175224 
L 541.91668 403.604435 
L 542.24751 402.941942 
L 542.57834 401.587693 
L 542.90917 402.690288 
L 543.24 402.76754 
L 543.57083 402.565046 
L 543.90166 401.005963 
L 544.23249 401.278685 
L 544.56332 402.124945 
L 544.89415 401.489372 
L 545.22498 404.139346 
L 545.55581 403.026217 
L 545.88664 402.823723 
L 546.21747 402.781586 
L 546.5483 399.611917 
L 546.87913 398.707134 
L 547.20996 399.039551 
L 547.540791 399.062961 
L 547.871621 398.215531 
L 548.202451 401.312629 
L 548.533281 401.684843 
L 548.864111 403.346929 
L 549.194941 403.261484 
L 549.525771 400.280263 
L 549.856601 399.119144 
L 550.187431 399.023164 
L 550.518261 399.127337 
L 550.849091 398.712986 
L 551.179921 398.588915 
L 551.510751 397.507389 
L 551.841581 399.930289 
L 552.172411 399.316956 
L 552.503241 399.313444 
L 552.834071 395.938941 
L 553.164901 400.668864 
L 553.495731 403.226369 
L 553.826561 402.668049 
L 554.157391 399.755887 
L 554.488221 398.735226 
L 554.819051 399.755887 
L 555.149881 399.829627 
L 555.480711 398.350137 
L 555.811542 397.592834 
L 556.142372 398.518686 
L 556.473202 398.972834 
L 557.134862 399.174157 
L 557.465692 397.302554 
L 557.796522 398.489424 
L 558.458182 398.800773 
L 558.789012 397.598686 
L 559.119842 398.40749 
L 559.450672 399.510085 
L 559.781502 399.838991 
L 560.112332 399.656396 
L 560.443162 398.749271 
L 560.773992 398.727032 
L 561.104822 398.955276 
L 561.435652 398.863979 
L 561.766482 397.637312 
L 562.428142 398.786727 
L 563.089802 398.888559 
L 563.420632 397.483979 
L 563.751462 398.737567 
L 564.082292 398.638075 
L 564.413123 397.192529 
L 564.743953 394.455939 
L 565.074783 394.252275 
L 565.405613 396.147287 
L 566.067273 395.952987 
L 566.398103 394.831664 
L 566.728933 395.581944 
L 567.059763 395.853496 
L 567.390593 394.766117 
L 568.052253 391.402149 
L 568.383083 392.397059 
L 568.713913 392.002607 
L 569.375573 390.933956 
L 569.706403 391.35767 
L 570.037233 390.496195 
L 570.368063 390.178994 
L 570.698893 389.24846 
L 571.029723 389.969477 
L 571.360553 392.280011 
L 571.691383 391.652632 
L 572.022213 391.757976 
L 572.353043 390.45991 
L 572.683874 391.633904 
L 573.014704 391.528561 
L 573.345534 391.227747 
L 573.676364 389.825508 
L 574.007194 390.753701 
L 574.338024 392.016652 
L 574.668854 391.605813 
L 574.999684 392.076347 
L 575.330514 391.303828 
L 575.661344 392.668612 
L 575.992174 390.567594 
L 576.323004 390.546526 
L 576.653834 389.748256 
L 576.984664 390.071309 
L 577.315494 391.012378 
L 577.646324 390.842658 
L 577.977154 391.134108 
L 578.307984 390.084185 
L 578.969644 392.085711 
L 579.300474 392.164133 
L 579.631304 392.048255 
L 579.962134 390.860215 
L 580.292964 391.953446 
L 580.623794 391.659655 
L 580.954625 391.679553 
L 581.285455 390.957365 
L 581.616285 390.862556 
L 581.947115 392.538688 
L 582.277945 392.632327 
L 582.608775 392.914413 
L 582.939605 392.305762 
L 583.270435 390.806373 
L 583.601265 391.024083 
L 583.932095 390.644846 
L 584.262925 389.817315 
L 584.593755 389.422862 
L 585.255415 396.043114 
L 585.586245 395.653344 
L 585.917075 394.721639 
L 586.247905 395.981079 
L 586.578735 392.331512 
L 587.240395 389.343269 
L 587.571225 388.962862 
L 587.902055 392.742352 
L 588.232885 392.878128 
L 588.563715 392.175838 
L 588.894545 389.178231 
L 589.225375 389.502455 
L 589.556206 389.20047 
L 589.887036 387.980827 
L 590.217866 386.312888 
L 590.548696 385.528664 
L 590.879526 385.108461 
L 591.210356 385.293397 
L 591.541186 383.441693 
L 591.872016 383.548207 
L 592.202846 385.632837 
L 592.533676 385.704237 
L 592.864506 385.437367 
L 593.526166 384.098334 
L 593.856996 385.574313 
L 594.187826 386.089326 
L 594.518656 385.940675 
L 594.849486 384.942252 
L 595.511146 385.085051 
L 595.841976 384.697621 
L 596.172806 383.152584 
L 596.503636 383.613754 
L 596.834466 384.581744 
L 597.496126 383.562253 
L 597.826957 382.623525 
L 598.157787 384.932889 
L 598.488617 384.957469 
L 598.819447 384.256349 
L 599.150277 383.173652 
L 599.811937 385.955891 
L 600.142767 385.939504 
L 600.473597 385.504084 
L 600.804427 384.478741 
L 601.135257 385.801387 
L 601.466087 385.353092 
L 601.796917 385.162303 
L 602.127747 383.818589 
L 602.458577 385.799046 
L 602.789407 385.244237 
L 603.120237 385.319148 
L 603.451067 385.513448 
L 603.781897 383.087037 
L 604.112727 383.468614 
L 604.443557 383.407749 
L 604.774387 383.589174 
L 605.105217 382.972329 
L 605.436047 382.833042 
L 605.766877 384.269225 
L 606.428538 383.470955 
L 606.759368 382.583729 
L 607.090198 384.74327 
L 607.421028 384.735077 
L 607.751858 384.512685 
L 608.082688 383.379657 
L 608.744348 384.142812 
L 609.075178 383.70154 
L 609.406008 383.063627 
L 609.736838 381.822915 
L 610.067668 382.584899 
L 610.729328 379.643475 
L 611.060158 381.243526 
L 611.390988 379.828412 
L 611.721818 381.869734 
L 612.052648 381.901337 
L 612.383478 381.580625 
L 612.714308 380.033246 
L 613.045138 380.864289 
L 613.706798 379.587292 
L 614.037628 376.453909 
L 614.368458 377.687598 
L 614.699289 379.728921 
L 615.030119 379.617725 
L 615.360949 378.470651 
L 615.691779 378.216656 
L 616.022609 378.299761 
L 616.353439 377.965003 
L 616.684269 377.206529 
L 617.015099 377.139812 
L 617.345929 377.794112 
L 617.676759 377.494468 
L 618.338419 377.584596 
L 618.669249 376.266632 
L 619.000079 378.764443 
L 619.330909 378.536198 
L 619.330909 378.536198 
" style="fill:none;stroke:#1f77b4;stroke-linecap:square;stroke-width:1.5;"/>
   </g>
   <g id="patch_3">
    <path d="M 108 448.56 
L 108 60.48 
" style="fill:none;stroke:#000000;stroke-linecap:square;stroke-linejoin:miter;stroke-width:0.8;"/>
   </g>
   <g id="patch_4">
    <path d="M 643.68 448.56 
L 643.68 60.48 
" style="fill:none;stroke:#000000;stroke-linecap:square;stroke-linejoin:miter;stroke-width:0.8;"/>
   </g>
   <g id="patch_5">
    <path d="M 108 448.56 
L 643.68 448.56 
" style="fill:none;stroke:#000000;stroke-linecap:square;stroke-linejoin:miter;stroke-width:0.8;"/>
   </g>
   <g id="patch_6">
    <path d="M 108 60.48 
L 643.68 60.48 
" style="fill:none;stroke:#000000;stroke-linecap:square;stroke-linejoin:miter;stroke-width:0.8;"/>
   </g>
   <g id="text_31">
    <!-- unikernel_falloc - vmstat -->
    <g transform="translate(283.693125 54.48)scale(0.15 -0.15)">
     <defs>
      <path d="M 8.5 21.578125 
L 8.5 54.6875 
L 17.484375 54.6875 
L 17.484375 21.921875 
Q 17.484375 14.15625 20.5 10.265625 
Q 23.53125 6.390625 29.59375 6.390625 
Q 36.859375 6.390625 41.078125 11.03125 
Q 45.3125 15.671875 45.3125 23.6875 
L 45.3125 54.6875 
L 54.296875 54.6875 
L 54.296875 0 
L 45.3125 0 
L 45.3125 8.40625 
Q 42.046875 3.421875 37.71875 1 
Q 33.40625 -1.421875 27.6875 -1.421875 
Q 18.265625 -1.421875 13.375 4.4375 
Q 8.5 10.296875 8.5 21.578125 
z
M 31.109375 56 
z
" id="DejaVuSans-117"/>
      <path d="M 54.890625 33.015625 
L 54.890625 0 
L 45.90625 0 
L 45.90625 32.71875 
Q 45.90625 40.484375 42.875 44.328125 
Q 39.84375 48.1875 33.796875 48.1875 
Q 26.515625 48.1875 22.3125 43.546875 
Q 18.109375 38.921875 18.109375 30.90625 
L 18.109375 0 
L 9.078125 0 
L 9.078125 54.6875 
L 18.109375 54.6875 
L 18.109375 46.1875 
Q 21.34375 51.125 25.703125 53.5625 
Q 30.078125 56 35.796875 56 
Q 45.21875 56 50.046875 50.171875 
Q 54.890625 44.34375 54.890625 33.015625 
z
" id="DejaVuSans-110"/>
      <path d="M 9.078125 75.984375 
L 18.109375 75.984375 
L 18.109375 31.109375 
L 44.921875 54.6875 
L 56.390625 54.6875 
L 27.390625 29.109375 
L 57.625 0 
L 45.90625 0 
L 18.109375 26.703125 
L 18.109375 0 
L 9.078125 0 
z
" id="DejaVuSans-107"/>
      <path d="M 41.109375 46.296875 
Q 39.59375 47.171875 37.8125 47.578125 
Q 36.03125 48 33.890625 48 
Q 26.265625 48 22.1875 43.046875 
Q 18.109375 38.09375 18.109375 28.8125 
L 18.109375 0 
L 9.078125 0 
L 9.078125 54.6875 
L 18.109375 54.6875 
L 18.109375 46.1875 
Q 20.953125 51.171875 25.484375 53.578125 
Q 30.03125 56 36.53125 56 
Q 37.453125 56 38.578125 55.875 
Q 39.703125 55.765625 41.0625 55.515625 
z
" id="DejaVuSans-114"/>
      <path d="M 9.421875 75.984375 
L 18.40625 75.984375 
L 18.40625 0 
L 9.421875 0 
z
" id="DejaVuSans-108"/>
      <path d="M 50.984375 -16.609375 
L 50.984375 -23.578125 
L -0.984375 -23.578125 
L -0.984375 -16.609375 
z
" id="DejaVuSans-95"/>
      <path d="M 37.109375 75.984375 
L 37.109375 68.5 
L 28.515625 68.5 
Q 23.6875 68.5 21.796875 66.546875 
Q 19.921875 64.59375 19.921875 59.515625 
L 19.921875 54.6875 
L 34.71875 54.6875 
L 34.71875 47.703125 
L 19.921875 47.703125 
L 19.921875 0 
L 10.890625 0 
L 10.890625 47.703125 
L 2.296875 47.703125 
L 2.296875 54.6875 
L 10.890625 54.6875 
L 10.890625 58.5 
Q 10.890625 67.625 15.140625 71.796875 
Q 19.390625 75.984375 28.609375 75.984375 
z
" id="DejaVuSans-102"/>
      <path d="M 30.609375 48.390625 
Q 23.390625 48.390625 19.1875 42.75 
Q 14.984375 37.109375 14.984375 27.296875 
Q 14.984375 17.484375 19.15625 11.84375 
Q 23.34375 6.203125 30.609375 6.203125 
Q 37.796875 6.203125 41.984375 11.859375 
Q 46.1875 17.53125 46.1875 27.296875 
Q 46.1875 37.015625 41.984375 42.703125 
Q 37.796875 48.390625 30.609375 48.390625 
z
M 30.609375 56 
Q 42.328125 56 49.015625 48.375 
Q 55.71875 40.765625 55.71875 27.296875 
Q 55.71875 13.875 49.015625 6.21875 
Q 42.328125 -1.421875 30.609375 -1.421875 
Q 18.84375 -1.421875 12.171875 6.21875 
Q 5.515625 13.875 5.515625 27.296875 
Q 5.515625 40.765625 12.171875 48.375 
Q 18.84375 56 30.609375 56 
z
" id="DejaVuSans-111"/>
      <path d="M 48.78125 52.59375 
L 48.78125 44.1875 
Q 44.96875 46.296875 41.140625 47.34375 
Q 37.3125 48.390625 33.40625 48.390625 
Q 24.65625 48.390625 19.8125 42.84375 
Q 14.984375 37.3125 14.984375 27.296875 
Q 14.984375 17.28125 19.8125 11.734375 
Q 24.65625 6.203125 33.40625 6.203125 
Q 37.3125 6.203125 41.140625 7.25 
Q 44.96875 8.296875 48.78125 10.40625 
L 48.78125 2.09375 
Q 45.015625 0.34375 40.984375 -0.53125 
Q 36.96875 -1.421875 32.421875 -1.421875 
Q 20.0625 -1.421875 12.78125 6.34375 
Q 5.515625 14.109375 5.515625 27.296875 
Q 5.515625 40.671875 12.859375 48.328125 
Q 20.21875 56 33.015625 56 
Q 37.15625 56 41.109375 55.140625 
Q 45.0625 54.296875 48.78125 52.59375 
z
" id="DejaVuSans-99"/>
      <path id="DejaVuSans-32"/>
      <path d="M 4.890625 31.390625 
L 31.203125 31.390625 
L 31.203125 23.390625 
L 4.890625 23.390625 
z
" id="DejaVuSans-45"/>
      <path d="M 2.984375 54.6875 
L 12.5 54.6875 
L 29.59375 8.796875 
L 46.6875 54.6875 
L 56.203125 54.6875 
L 35.6875 0 
L 23.484375 0 
z
" id="DejaVuSans-118"/>
     </defs>
     <use xlink:href="#DejaVuSans-117"/>
     <use x="63.378906" xlink:href="#DejaVuSans-110"/>
     <use x="126.757812" xlink:href="#DejaVuSans-105"/>
     <use x="154.541016" xlink:href="#DejaVuSans-107"/>
     <use x="208.826172" xlink:href="#DejaVuSans-101"/>
     <use x="270.349609" xlink:href="#DejaVuSans-114"/>
     <use x="309.712891" xlink:href="#DejaVuSans-110"/>
     <use x="373.091797" xlink:href="#DejaVuSans-101"/>
     <use x="434.615234" xlink:href="#DejaVuSans-108"/>
     <use x="462.398438" xlink:href="#DejaVuSans-95"/>
     <use x="512.398438" xlink:href="#DejaVuSans-102"/>
     <use x="547.603516" xlink:href="#DejaVuSans-97"/>
     <use x="608.882812" xlink:href="#DejaVuSans-108"/>
     <use x="636.666016" xlink:href="#DejaVuSans-108"/>
     <use x="664.449219" xlink:href="#DejaVuSans-111"/>
     <use x="725.630859" xlink:href="#DejaVuSans-99"/>
     <use x="780.611328" xlink:href="#DejaVuSans-32"/>
     <use x="812.398438" xlink:href="#DejaVuSans-45"/>
     <use x="848.482422" xlink:href="#DejaVuSans-32"/>
     <use x="880.269531" xlink:href="#DejaVuSans-118"/>
     <use x="939.449219" xlink:href="#DejaVuSans-109"/>
     <use x="1036.861328" xlink:href="#DejaVuSans-115"/>
     <use x="1088.960938" xlink:href="#DejaVuSans-116"/>
     <use x="1128.169922" xlink:href="#DejaVuSans-97"/>
     <use x="1189.449219" xlink:href="#DejaVuSans-116"/>
    </g>
   </g>
   <g id="legend_1">
    <g id="patch_7">
     <path d="M 650.68 258.52 
L 654.68 258.52 
Q 656.68 258.52 656.68 256.52 
L 656.68 252.52 
Q 656.68 250.52 654.68 250.52 
L 650.68 250.52 
Q 648.68 250.52 648.68 252.52 
L 648.68 256.52 
Q 648.68 258.52 650.68 258.52 
z
" style="fill:#ffffff;opacity:0.8;stroke:#cccccc;stroke-linejoin:miter;"/>
    </g>
   </g>
  </g>
 </g>
 <defs>
  <clipPath id="p98a9ef9095">
   <rect height="388.08" width="535.68" x="108" y="60.48"/>
  </clipPath>
 </defs>
</svg>
