<?xml version="1.0" encoding="utf-8" standalone="no"?>
<!DOCTYPE svg PUBLIC "-//W3C//DTD SVG 1.1//EN"
  "http://www.w3.org/Graphics/SVG/1.1/DTD/svg11.dtd">
<!-- Created with matplotlib (https://matplotlib.org/) -->
<svg height="504pt" version="1.1" viewBox="0 0 864 504" width="864pt" xmlns="http://www.w3.org/2000/svg" xmlns:xlink="http://www.w3.org/1999/xlink">
 <metadata>
  <rdf:RDF xmlns:cc="http://creativecommons.org/ns#" xmlns:dc="http://purl.org/dc/elements/1.1/" xmlns:rdf="http://www.w3.org/1999/02/22-rdf-syntax-ns#">
   <cc:Work>
    <dc:type rdf:resource="http://purl.org/dc/dcmitype/StillImage"/>
    <dc:date>2022-05-29T17:16:13.040102</dc:date>
    <dc:format>image/svg+xml</dc:format>
    <dc:creator>
     <cc:Agent>
      <dc:title>Matplotlib v3.3.4, https://matplotlib.org/</dc:title>
     </cc:Agent>
    </dc:creator>
   </cc:Work>
  </rdf:RDF>
 </metadata>
 <defs>
  <style type="text/css">*{stroke-linecap:butt;stroke-linejoin:round;}</style>
 </defs>
 <g id="figure_1">
  <g id="patch_1">
   <path d="M 0 504 
L 864 504 
L 864 0 
L 0 0 
z
" style="fill:#ffffff;"/>
  </g>
  <g id="axes_1">
   <g id="patch_2">
    <path d="M 108 448.56 
L 643.68 448.56 
L 643.68 60.48 
L 108 60.48 
z
" style="fill:#ffffff;"/>
   </g>
   <g id="matplotlib.axis_1">
    <g id="xtick_1">
     <g id="line2d_1">
      <defs>
       <path d="M 0 0 
L 0 3.5 
" id="m3462a80389" style="stroke:#000000;stroke-width:0.8;"/>
      </defs>
      <g>
       <use style="stroke:#000000;stroke-width:0.8;" x="132.349091" xlink:href="#m3462a80389" y="448.56"/>
      </g>
     </g>
     <g id="text_1">
      <!-- 20:01:35 -->
      <g transform="translate(135.108466 500.4725)rotate(-90)scale(0.1 -0.1)">
       <defs>
        <path d="M 19.1875 8.296875 
L 53.609375 8.296875 
L 53.609375 0 
L 7.328125 0 
L 7.328125 8.296875 
Q 12.9375 14.109375 22.625 23.890625 
Q 32.328125 33.6875 34.8125 36.53125 
Q 39.546875 41.84375 41.421875 45.53125 
Q 43.3125 49.21875 43.3125 52.78125 
Q 43.3125 58.59375 39.234375 62.25 
Q 35.15625 65.921875 28.609375 65.921875 
Q 23.96875 65.921875 18.8125 64.3125 
Q 13.671875 62.703125 7.8125 59.421875 
L 7.8125 69.390625 
Q 13.765625 71.78125 18.9375 73 
Q 24.125 74.21875 28.421875 74.21875 
Q 39.75 74.21875 46.484375 68.546875 
Q 53.21875 62.890625 53.21875 53.421875 
Q 53.21875 48.921875 51.53125 44.890625 
Q 49.859375 40.875 45.40625 35.40625 
Q 44.1875 33.984375 37.640625 27.21875 
Q 31.109375 20.453125 19.1875 8.296875 
z
" id="DejaVuSans-50"/>
        <path d="M 31.78125 66.40625 
Q 24.171875 66.40625 20.328125 58.90625 
Q 16.5 51.421875 16.5 36.375 
Q 16.5 21.390625 20.328125 13.890625 
Q 24.171875 6.390625 31.78125 6.390625 
Q 39.453125 6.390625 43.28125 13.890625 
Q 47.125 21.390625 47.125 36.375 
Q 47.125 51.421875 43.28125 58.90625 
Q 39.453125 66.40625 31.78125 66.40625 
z
M 31.78125 74.21875 
Q 44.046875 74.21875 50.515625 64.515625 
Q 56.984375 54.828125 56.984375 36.375 
Q 56.984375 17.96875 50.515625 8.265625 
Q 44.046875 -1.421875 31.78125 -1.421875 
Q 19.53125 -1.421875 13.0625 8.265625 
Q 6.59375 17.96875 6.59375 36.375 
Q 6.59375 54.828125 13.0625 64.515625 
Q 19.53125 74.21875 31.78125 74.21875 
z
" id="DejaVuSans-48"/>
        <path d="M 11.71875 12.40625 
L 22.015625 12.40625 
L 22.015625 0 
L 11.71875 0 
z
M 11.71875 51.703125 
L 22.015625 51.703125 
L 22.015625 39.3125 
L 11.71875 39.3125 
z
" id="DejaVuSans-58"/>
        <path d="M 12.40625 8.296875 
L 28.515625 8.296875 
L 28.515625 63.921875 
L 10.984375 60.40625 
L 10.984375 69.390625 
L 28.421875 72.90625 
L 38.28125 72.90625 
L 38.28125 8.296875 
L 54.390625 8.296875 
L 54.390625 0 
L 12.40625 0 
z
" id="DejaVuSans-49"/>
        <path d="M 40.578125 39.3125 
Q 47.65625 37.796875 51.625 33 
Q 55.609375 28.21875 55.609375 21.1875 
Q 55.609375 10.40625 48.1875 4.484375 
Q 40.765625 -1.421875 27.09375 -1.421875 
Q 22.515625 -1.421875 17.65625 -0.515625 
Q 12.796875 0.390625 7.625 2.203125 
L 7.625 11.71875 
Q 11.71875 9.328125 16.59375 8.109375 
Q 21.484375 6.890625 26.8125 6.890625 
Q 36.078125 6.890625 40.9375 10.546875 
Q 45.796875 14.203125 45.796875 21.1875 
Q 45.796875 27.640625 41.28125 31.265625 
Q 36.765625 34.90625 28.71875 34.90625 
L 20.21875 34.90625 
L 20.21875 43.015625 
L 29.109375 43.015625 
Q 36.375 43.015625 40.234375 45.921875 
Q 44.09375 48.828125 44.09375 54.296875 
Q 44.09375 59.90625 40.109375 62.90625 
Q 36.140625 65.921875 28.71875 65.921875 
Q 24.65625 65.921875 20.015625 65.03125 
Q 15.375 64.15625 9.8125 62.3125 
L 9.8125 71.09375 
Q 15.4375 72.65625 20.34375 73.4375 
Q 25.25 74.21875 29.59375 74.21875 
Q 40.828125 74.21875 47.359375 69.109375 
Q 53.90625 64.015625 53.90625 55.328125 
Q 53.90625 49.265625 50.4375 45.09375 
Q 46.96875 40.921875 40.578125 39.3125 
z
" id="DejaVuSans-51"/>
        <path d="M 10.796875 72.90625 
L 49.515625 72.90625 
L 49.515625 64.59375 
L 19.828125 64.59375 
L 19.828125 46.734375 
Q 21.96875 47.46875 24.109375 47.828125 
Q 26.265625 48.1875 28.421875 48.1875 
Q 40.625 48.1875 47.75 41.5 
Q 54.890625 34.8125 54.890625 23.390625 
Q 54.890625 11.625 47.5625 5.09375 
Q 40.234375 -1.421875 26.90625 -1.421875 
Q 22.3125 -1.421875 17.546875 -0.640625 
Q 12.796875 0.140625 7.71875 1.703125 
L 7.71875 11.625 
Q 12.109375 9.234375 16.796875 8.0625 
Q 21.484375 6.890625 26.703125 6.890625 
Q 35.15625 6.890625 40.078125 11.328125 
Q 45.015625 15.765625 45.015625 23.390625 
Q 45.015625 31 40.078125 35.4375 
Q 35.15625 39.890625 26.703125 39.890625 
Q 22.75 39.890625 18.8125 39.015625 
Q 14.890625 38.140625 10.796875 36.28125 
z
" id="DejaVuSans-53"/>
       </defs>
       <use xlink:href="#DejaVuSans-50"/>
       <use x="63.623047" xlink:href="#DejaVuSans-48"/>
       <use x="127.246094" xlink:href="#DejaVuSans-58"/>
       <use x="160.9375" xlink:href="#DejaVuSans-48"/>
       <use x="224.560547" xlink:href="#DejaVuSans-49"/>
       <use x="288.183594" xlink:href="#DejaVuSans-58"/>
       <use x="321.875" xlink:href="#DejaVuSans-51"/>
       <use x="385.498047" xlink:href="#DejaVuSans-53"/>
      </g>
     </g>
    </g>
    <g id="xtick_2">
     <g id="line2d_2">
      <g>
       <use style="stroke:#000000;stroke-width:0.8;" x="156.414081" xlink:href="#m3462a80389" y="448.56"/>
      </g>
     </g>
     <g id="text_2">
      <!-- 20:03:00 -->
      <g transform="translate(159.173456 500.4725)rotate(-90)scale(0.1 -0.1)">
       <use xlink:href="#DejaVuSans-50"/>
       <use x="63.623047" xlink:href="#DejaVuSans-48"/>
       <use x="127.246094" xlink:href="#DejaVuSans-58"/>
       <use x="160.9375" xlink:href="#DejaVuSans-48"/>
       <use x="224.560547" xlink:href="#DejaVuSans-51"/>
       <use x="288.183594" xlink:href="#DejaVuSans-58"/>
       <use x="321.875" xlink:href="#DejaVuSans-48"/>
       <use x="385.498047" xlink:href="#DejaVuSans-48"/>
      </g>
     </g>
    </g>
    <g id="xtick_3">
     <g id="line2d_3">
      <g>
       <use style="stroke:#000000;stroke-width:0.8;" x="180.479072" xlink:href="#m3462a80389" y="448.56"/>
      </g>
     </g>
     <g id="text_3">
      <!-- 20:04:24 -->
      <g transform="translate(183.238447 500.4725)rotate(-90)scale(0.1 -0.1)">
       <defs>
        <path d="M 37.796875 64.3125 
L 12.890625 25.390625 
L 37.796875 25.390625 
z
M 35.203125 72.90625 
L 47.609375 72.90625 
L 47.609375 25.390625 
L 58.015625 25.390625 
L 58.015625 17.1875 
L 47.609375 17.1875 
L 47.609375 0 
L 37.796875 0 
L 37.796875 17.1875 
L 4.890625 17.1875 
L 4.890625 26.703125 
z
" id="DejaVuSans-52"/>
       </defs>
       <use xlink:href="#DejaVuSans-50"/>
       <use x="63.623047" xlink:href="#DejaVuSans-48"/>
       <use x="127.246094" xlink:href="#DejaVuSans-58"/>
       <use x="160.9375" xlink:href="#DejaVuSans-48"/>
       <use x="224.560547" xlink:href="#DejaVuSans-52"/>
       <use x="288.183594" xlink:href="#DejaVuSans-58"/>
       <use x="321.875" xlink:href="#DejaVuSans-50"/>
       <use x="385.498047" xlink:href="#DejaVuSans-52"/>
      </g>
     </g>
    </g>
    <g id="xtick_4">
     <g id="line2d_4">
      <g>
       <use style="stroke:#000000;stroke-width:0.8;" x="204.544062" xlink:href="#m3462a80389" y="448.56"/>
      </g>
     </g>
     <g id="text_4">
      <!-- 20:05:48 -->
      <g transform="translate(207.303437 500.4725)rotate(-90)scale(0.1 -0.1)">
       <defs>
        <path d="M 31.78125 34.625 
Q 24.75 34.625 20.71875 30.859375 
Q 16.703125 27.09375 16.703125 20.515625 
Q 16.703125 13.921875 20.71875 10.15625 
Q 24.75 6.390625 31.78125 6.390625 
Q 38.8125 6.390625 42.859375 10.171875 
Q 46.921875 13.96875 46.921875 20.515625 
Q 46.921875 27.09375 42.890625 30.859375 
Q 38.875 34.625 31.78125 34.625 
z
M 21.921875 38.8125 
Q 15.578125 40.375 12.03125 44.71875 
Q 8.5 49.078125 8.5 55.328125 
Q 8.5 64.0625 14.71875 69.140625 
Q 20.953125 74.21875 31.78125 74.21875 
Q 42.671875 74.21875 48.875 69.140625 
Q 55.078125 64.0625 55.078125 55.328125 
Q 55.078125 49.078125 51.53125 44.71875 
Q 48 40.375 41.703125 38.8125 
Q 48.828125 37.15625 52.796875 32.3125 
Q 56.78125 27.484375 56.78125 20.515625 
Q 56.78125 9.90625 50.3125 4.234375 
Q 43.84375 -1.421875 31.78125 -1.421875 
Q 19.734375 -1.421875 13.25 4.234375 
Q 6.78125 9.90625 6.78125 20.515625 
Q 6.78125 27.484375 10.78125 32.3125 
Q 14.796875 37.15625 21.921875 38.8125 
z
M 18.3125 54.390625 
Q 18.3125 48.734375 21.84375 45.5625 
Q 25.390625 42.390625 31.78125 42.390625 
Q 38.140625 42.390625 41.71875 45.5625 
Q 45.3125 48.734375 45.3125 54.390625 
Q 45.3125 60.0625 41.71875 63.234375 
Q 38.140625 66.40625 31.78125 66.40625 
Q 25.390625 66.40625 21.84375 63.234375 
Q 18.3125 60.0625 18.3125 54.390625 
z
" id="DejaVuSans-56"/>
       </defs>
       <use xlink:href="#DejaVuSans-50"/>
       <use x="63.623047" xlink:href="#DejaVuSans-48"/>
       <use x="127.246094" xlink:href="#DejaVuSans-58"/>
       <use x="160.9375" xlink:href="#DejaVuSans-48"/>
       <use x="224.560547" xlink:href="#DejaVuSans-53"/>
       <use x="288.183594" xlink:href="#DejaVuSans-58"/>
       <use x="321.875" xlink:href="#DejaVuSans-52"/>
       <use x="385.498047" xlink:href="#DejaVuSans-56"/>
      </g>
     </g>
    </g>
    <g id="xtick_5">
     <g id="line2d_5">
      <g>
       <use style="stroke:#000000;stroke-width:0.8;" x="228.609052" xlink:href="#m3462a80389" y="448.56"/>
      </g>
     </g>
     <g id="text_5">
      <!-- 20:07:12 -->
      <g transform="translate(231.368427 500.4725)rotate(-90)scale(0.1 -0.1)">
       <defs>
        <path d="M 8.203125 72.90625 
L 55.078125 72.90625 
L 55.078125 68.703125 
L 28.609375 0 
L 18.3125 0 
L 43.21875 64.59375 
L 8.203125 64.59375 
z
" id="DejaVuSans-55"/>
       </defs>
       <use xlink:href="#DejaVuSans-50"/>
       <use x="63.623047" xlink:href="#DejaVuSans-48"/>
       <use x="127.246094" xlink:href="#DejaVuSans-58"/>
       <use x="160.9375" xlink:href="#DejaVuSans-48"/>
       <use x="224.560547" xlink:href="#DejaVuSans-55"/>
       <use x="288.183594" xlink:href="#DejaVuSans-58"/>
       <use x="321.875" xlink:href="#DejaVuSans-49"/>
       <use x="385.498047" xlink:href="#DejaVuSans-50"/>
      </g>
     </g>
    </g>
    <g id="xtick_6">
     <g id="line2d_6">
      <g>
       <use style="stroke:#000000;stroke-width:0.8;" x="252.674043" xlink:href="#m3462a80389" y="448.56"/>
      </g>
     </g>
     <g id="text_6">
      <!-- 20:08:36 -->
      <g transform="translate(255.433418 500.4725)rotate(-90)scale(0.1 -0.1)">
       <defs>
        <path d="M 33.015625 40.375 
Q 26.375 40.375 22.484375 35.828125 
Q 18.609375 31.296875 18.609375 23.390625 
Q 18.609375 15.53125 22.484375 10.953125 
Q 26.375 6.390625 33.015625 6.390625 
Q 39.65625 6.390625 43.53125 10.953125 
Q 47.40625 15.53125 47.40625 23.390625 
Q 47.40625 31.296875 43.53125 35.828125 
Q 39.65625 40.375 33.015625 40.375 
z
M 52.59375 71.296875 
L 52.59375 62.3125 
Q 48.875 64.0625 45.09375 64.984375 
Q 41.3125 65.921875 37.59375 65.921875 
Q 27.828125 65.921875 22.671875 59.328125 
Q 17.53125 52.734375 16.796875 39.40625 
Q 19.671875 43.65625 24.015625 45.921875 
Q 28.375 48.1875 33.59375 48.1875 
Q 44.578125 48.1875 50.953125 41.515625 
Q 57.328125 34.859375 57.328125 23.390625 
Q 57.328125 12.15625 50.6875 5.359375 
Q 44.046875 -1.421875 33.015625 -1.421875 
Q 20.359375 -1.421875 13.671875 8.265625 
Q 6.984375 17.96875 6.984375 36.375 
Q 6.984375 53.65625 15.1875 63.9375 
Q 23.390625 74.21875 37.203125 74.21875 
Q 40.921875 74.21875 44.703125 73.484375 
Q 48.484375 72.75 52.59375 71.296875 
z
" id="DejaVuSans-54"/>
       </defs>
       <use xlink:href="#DejaVuSans-50"/>
       <use x="63.623047" xlink:href="#DejaVuSans-48"/>
       <use x="127.246094" xlink:href="#DejaVuSans-58"/>
       <use x="160.9375" xlink:href="#DejaVuSans-48"/>
       <use x="224.560547" xlink:href="#DejaVuSans-56"/>
       <use x="288.183594" xlink:href="#DejaVuSans-58"/>
       <use x="321.875" xlink:href="#DejaVuSans-51"/>
       <use x="385.498047" xlink:href="#DejaVuSans-54"/>
      </g>
     </g>
    </g>
    <g id="xtick_7">
     <g id="line2d_7">
      <g>
       <use style="stroke:#000000;stroke-width:0.8;" x="276.739033" xlink:href="#m3462a80389" y="448.56"/>
      </g>
     </g>
     <g id="text_7">
      <!-- 20:10:00 -->
      <g transform="translate(279.498408 500.4725)rotate(-90)scale(0.1 -0.1)">
       <use xlink:href="#DejaVuSans-50"/>
       <use x="63.623047" xlink:href="#DejaVuSans-48"/>
       <use x="127.246094" xlink:href="#DejaVuSans-58"/>
       <use x="160.9375" xlink:href="#DejaVuSans-49"/>
       <use x="224.560547" xlink:href="#DejaVuSans-48"/>
       <use x="288.183594" xlink:href="#DejaVuSans-58"/>
       <use x="321.875" xlink:href="#DejaVuSans-48"/>
       <use x="385.498047" xlink:href="#DejaVuSans-48"/>
      </g>
     </g>
    </g>
    <g id="xtick_8">
     <g id="line2d_8">
      <g>
       <use style="stroke:#000000;stroke-width:0.8;" x="300.804023" xlink:href="#m3462a80389" y="448.56"/>
      </g>
     </g>
     <g id="text_8">
      <!-- 20:11:24 -->
      <g transform="translate(303.563398 500.4725)rotate(-90)scale(0.1 -0.1)">
       <use xlink:href="#DejaVuSans-50"/>
       <use x="63.623047" xlink:href="#DejaVuSans-48"/>
       <use x="127.246094" xlink:href="#DejaVuSans-58"/>
       <use x="160.9375" xlink:href="#DejaVuSans-49"/>
       <use x="224.560547" xlink:href="#DejaVuSans-49"/>
       <use x="288.183594" xlink:href="#DejaVuSans-58"/>
       <use x="321.875" xlink:href="#DejaVuSans-50"/>
       <use x="385.498047" xlink:href="#DejaVuSans-52"/>
      </g>
     </g>
    </g>
    <g id="xtick_9">
     <g id="line2d_9">
      <g>
       <use style="stroke:#000000;stroke-width:0.8;" x="324.869014" xlink:href="#m3462a80389" y="448.56"/>
      </g>
     </g>
     <g id="text_9">
      <!-- 20:12:49 -->
      <g transform="translate(327.628389 500.4725)rotate(-90)scale(0.1 -0.1)">
       <defs>
        <path d="M 10.984375 1.515625 
L 10.984375 10.5 
Q 14.703125 8.734375 18.5 7.8125 
Q 22.3125 6.890625 25.984375 6.890625 
Q 35.75 6.890625 40.890625 13.453125 
Q 46.046875 20.015625 46.78125 33.40625 
Q 43.953125 29.203125 39.59375 26.953125 
Q 35.25 24.703125 29.984375 24.703125 
Q 19.046875 24.703125 12.671875 31.3125 
Q 6.296875 37.9375 6.296875 49.421875 
Q 6.296875 60.640625 12.9375 67.421875 
Q 19.578125 74.21875 30.609375 74.21875 
Q 43.265625 74.21875 49.921875 64.515625 
Q 56.59375 54.828125 56.59375 36.375 
Q 56.59375 19.140625 48.40625 8.859375 
Q 40.234375 -1.421875 26.421875 -1.421875 
Q 22.703125 -1.421875 18.890625 -0.6875 
Q 15.09375 0.046875 10.984375 1.515625 
z
M 30.609375 32.421875 
Q 37.25 32.421875 41.125 36.953125 
Q 45.015625 41.5 45.015625 49.421875 
Q 45.015625 57.28125 41.125 61.84375 
Q 37.25 66.40625 30.609375 66.40625 
Q 23.96875 66.40625 20.09375 61.84375 
Q 16.21875 57.28125 16.21875 49.421875 
Q 16.21875 41.5 20.09375 36.953125 
Q 23.96875 32.421875 30.609375 32.421875 
z
" id="DejaVuSans-57"/>
       </defs>
       <use xlink:href="#DejaVuSans-50"/>
       <use x="63.623047" xlink:href="#DejaVuSans-48"/>
       <use x="127.246094" xlink:href="#DejaVuSans-58"/>
       <use x="160.9375" xlink:href="#DejaVuSans-49"/>
       <use x="224.560547" xlink:href="#DejaVuSans-50"/>
       <use x="288.183594" xlink:href="#DejaVuSans-58"/>
       <use x="321.875" xlink:href="#DejaVuSans-52"/>
       <use x="385.498047" xlink:href="#DejaVuSans-57"/>
      </g>
     </g>
    </g>
    <g id="xtick_10">
     <g id="line2d_10">
      <g>
       <use style="stroke:#000000;stroke-width:0.8;" x="348.934004" xlink:href="#m3462a80389" y="448.56"/>
      </g>
     </g>
     <g id="text_10">
      <!-- 20:14:13 -->
      <g transform="translate(351.693379 500.4725)rotate(-90)scale(0.1 -0.1)">
       <use xlink:href="#DejaVuSans-50"/>
       <use x="63.623047" xlink:href="#DejaVuSans-48"/>
       <use x="127.246094" xlink:href="#DejaVuSans-58"/>
       <use x="160.9375" xlink:href="#DejaVuSans-49"/>
       <use x="224.560547" xlink:href="#DejaVuSans-52"/>
       <use x="288.183594" xlink:href="#DejaVuSans-58"/>
       <use x="321.875" xlink:href="#DejaVuSans-49"/>
       <use x="385.498047" xlink:href="#DejaVuSans-51"/>
      </g>
     </g>
    </g>
    <g id="xtick_11">
     <g id="line2d_11">
      <g>
       <use style="stroke:#000000;stroke-width:0.8;" x="372.998994" xlink:href="#m3462a80389" y="448.56"/>
      </g>
     </g>
     <g id="text_11">
      <!-- 20:15:37 -->
      <g transform="translate(375.758369 500.4725)rotate(-90)scale(0.1 -0.1)">
       <use xlink:href="#DejaVuSans-50"/>
       <use x="63.623047" xlink:href="#DejaVuSans-48"/>
       <use x="127.246094" xlink:href="#DejaVuSans-58"/>
       <use x="160.9375" xlink:href="#DejaVuSans-49"/>
       <use x="224.560547" xlink:href="#DejaVuSans-53"/>
       <use x="288.183594" xlink:href="#DejaVuSans-58"/>
       <use x="321.875" xlink:href="#DejaVuSans-51"/>
       <use x="385.498047" xlink:href="#DejaVuSans-55"/>
      </g>
     </g>
    </g>
    <g id="xtick_12">
     <g id="line2d_12">
      <g>
       <use style="stroke:#000000;stroke-width:0.8;" x="397.063985" xlink:href="#m3462a80389" y="448.56"/>
      </g>
     </g>
     <g id="text_12">
      <!-- 20:17:02 -->
      <g transform="translate(399.82336 500.4725)rotate(-90)scale(0.1 -0.1)">
       <use xlink:href="#DejaVuSans-50"/>
       <use x="63.623047" xlink:href="#DejaVuSans-48"/>
       <use x="127.246094" xlink:href="#DejaVuSans-58"/>
       <use x="160.9375" xlink:href="#DejaVuSans-49"/>
       <use x="224.560547" xlink:href="#DejaVuSans-55"/>
       <use x="288.183594" xlink:href="#DejaVuSans-58"/>
       <use x="321.875" xlink:href="#DejaVuSans-48"/>
       <use x="385.498047" xlink:href="#DejaVuSans-50"/>
      </g>
     </g>
    </g>
    <g id="xtick_13">
     <g id="line2d_13">
      <g>
       <use style="stroke:#000000;stroke-width:0.8;" x="421.128975" xlink:href="#m3462a80389" y="448.56"/>
      </g>
     </g>
     <g id="text_13">
      <!-- 20:18:26 -->
      <g transform="translate(423.88835 500.4725)rotate(-90)scale(0.1 -0.1)">
       <use xlink:href="#DejaVuSans-50"/>
       <use x="63.623047" xlink:href="#DejaVuSans-48"/>
       <use x="127.246094" xlink:href="#DejaVuSans-58"/>
       <use x="160.9375" xlink:href="#DejaVuSans-49"/>
       <use x="224.560547" xlink:href="#DejaVuSans-56"/>
       <use x="288.183594" xlink:href="#DejaVuSans-58"/>
       <use x="321.875" xlink:href="#DejaVuSans-50"/>
       <use x="385.498047" xlink:href="#DejaVuSans-54"/>
      </g>
     </g>
    </g>
    <g id="xtick_14">
     <g id="line2d_14">
      <g>
       <use style="stroke:#000000;stroke-width:0.8;" x="445.193965" xlink:href="#m3462a80389" y="448.56"/>
      </g>
     </g>
     <g id="text_14">
      <!-- 20:19:50 -->
      <g transform="translate(447.95334 500.4725)rotate(-90)scale(0.1 -0.1)">
       <use xlink:href="#DejaVuSans-50"/>
       <use x="63.623047" xlink:href="#DejaVuSans-48"/>
       <use x="127.246094" xlink:href="#DejaVuSans-58"/>
       <use x="160.9375" xlink:href="#DejaVuSans-49"/>
       <use x="224.560547" xlink:href="#DejaVuSans-57"/>
       <use x="288.183594" xlink:href="#DejaVuSans-58"/>
       <use x="321.875" xlink:href="#DejaVuSans-53"/>
       <use x="385.498047" xlink:href="#DejaVuSans-48"/>
      </g>
     </g>
    </g>
    <g id="xtick_15">
     <g id="line2d_15">
      <g>
       <use style="stroke:#000000;stroke-width:0.8;" x="469.258956" xlink:href="#m3462a80389" y="448.56"/>
      </g>
     </g>
     <g id="text_15">
      <!-- 20:21:14 -->
      <g transform="translate(472.018331 500.4725)rotate(-90)scale(0.1 -0.1)">
       <use xlink:href="#DejaVuSans-50"/>
       <use x="63.623047" xlink:href="#DejaVuSans-48"/>
       <use x="127.246094" xlink:href="#DejaVuSans-58"/>
       <use x="160.9375" xlink:href="#DejaVuSans-50"/>
       <use x="224.560547" xlink:href="#DejaVuSans-49"/>
       <use x="288.183594" xlink:href="#DejaVuSans-58"/>
       <use x="321.875" xlink:href="#DejaVuSans-49"/>
       <use x="385.498047" xlink:href="#DejaVuSans-52"/>
      </g>
     </g>
    </g>
    <g id="xtick_16">
     <g id="line2d_16">
      <g>
       <use style="stroke:#000000;stroke-width:0.8;" x="493.323946" xlink:href="#m3462a80389" y="448.56"/>
      </g>
     </g>
     <g id="text_16">
      <!-- 20:22:38 -->
      <g transform="translate(496.083321 500.4725)rotate(-90)scale(0.1 -0.1)">
       <use xlink:href="#DejaVuSans-50"/>
       <use x="63.623047" xlink:href="#DejaVuSans-48"/>
       <use x="127.246094" xlink:href="#DejaVuSans-58"/>
       <use x="160.9375" xlink:href="#DejaVuSans-50"/>
       <use x="224.560547" xlink:href="#DejaVuSans-50"/>
       <use x="288.183594" xlink:href="#DejaVuSans-58"/>
       <use x="321.875" xlink:href="#DejaVuSans-51"/>
       <use x="385.498047" xlink:href="#DejaVuSans-56"/>
      </g>
     </g>
    </g>
    <g id="xtick_17">
     <g id="line2d_17">
      <g>
       <use style="stroke:#000000;stroke-width:0.8;" x="517.388936" xlink:href="#m3462a80389" y="448.56"/>
      </g>
     </g>
     <g id="text_17">
      <!-- 20:24:02 -->
      <g transform="translate(520.148311 500.4725)rotate(-90)scale(0.1 -0.1)">
       <use xlink:href="#DejaVuSans-50"/>
       <use x="63.623047" xlink:href="#DejaVuSans-48"/>
       <use x="127.246094" xlink:href="#DejaVuSans-58"/>
       <use x="160.9375" xlink:href="#DejaVuSans-50"/>
       <use x="224.560547" xlink:href="#DejaVuSans-52"/>
       <use x="288.183594" xlink:href="#DejaVuSans-58"/>
       <use x="321.875" xlink:href="#DejaVuSans-48"/>
       <use x="385.498047" xlink:href="#DejaVuSans-50"/>
      </g>
     </g>
    </g>
    <g id="xtick_18">
     <g id="line2d_18">
      <g>
       <use style="stroke:#000000;stroke-width:0.8;" x="541.453926" xlink:href="#m3462a80389" y="448.56"/>
      </g>
     </g>
     <g id="text_18">
      <!-- 20:25:26 -->
      <g transform="translate(544.213301 500.4725)rotate(-90)scale(0.1 -0.1)">
       <use xlink:href="#DejaVuSans-50"/>
       <use x="63.623047" xlink:href="#DejaVuSans-48"/>
       <use x="127.246094" xlink:href="#DejaVuSans-58"/>
       <use x="160.9375" xlink:href="#DejaVuSans-50"/>
       <use x="224.560547" xlink:href="#DejaVuSans-53"/>
       <use x="288.183594" xlink:href="#DejaVuSans-58"/>
       <use x="321.875" xlink:href="#DejaVuSans-50"/>
       <use x="385.498047" xlink:href="#DejaVuSans-54"/>
      </g>
     </g>
    </g>
    <g id="xtick_19">
     <g id="line2d_19">
      <g>
       <use style="stroke:#000000;stroke-width:0.8;" x="565.518917" xlink:href="#m3462a80389" y="448.56"/>
      </g>
     </g>
     <g id="text_19">
      <!-- 20:26:50 -->
      <g transform="translate(568.278292 500.4725)rotate(-90)scale(0.1 -0.1)">
       <use xlink:href="#DejaVuSans-50"/>
       <use x="63.623047" xlink:href="#DejaVuSans-48"/>
       <use x="127.246094" xlink:href="#DejaVuSans-58"/>
       <use x="160.9375" xlink:href="#DejaVuSans-50"/>
       <use x="224.560547" xlink:href="#DejaVuSans-54"/>
       <use x="288.183594" xlink:href="#DejaVuSans-58"/>
       <use x="321.875" xlink:href="#DejaVuSans-53"/>
       <use x="385.498047" xlink:href="#DejaVuSans-48"/>
      </g>
     </g>
    </g>
    <g id="xtick_20">
     <g id="line2d_20">
      <g>
       <use style="stroke:#000000;stroke-width:0.8;" x="589.583907" xlink:href="#m3462a80389" y="448.56"/>
      </g>
     </g>
     <g id="text_20">
      <!-- 20:28:14 -->
      <g transform="translate(592.343282 500.4725)rotate(-90)scale(0.1 -0.1)">
       <use xlink:href="#DejaVuSans-50"/>
       <use x="63.623047" xlink:href="#DejaVuSans-48"/>
       <use x="127.246094" xlink:href="#DejaVuSans-58"/>
       <use x="160.9375" xlink:href="#DejaVuSans-50"/>
       <use x="224.560547" xlink:href="#DejaVuSans-56"/>
       <use x="288.183594" xlink:href="#DejaVuSans-58"/>
       <use x="321.875" xlink:href="#DejaVuSans-49"/>
       <use x="385.498047" xlink:href="#DejaVuSans-52"/>
      </g>
     </g>
    </g>
    <g id="xtick_21">
     <g id="line2d_21">
      <g>
       <use style="stroke:#000000;stroke-width:0.8;" x="613.648897" xlink:href="#m3462a80389" y="448.56"/>
      </g>
     </g>
     <g id="text_21">
      <!-- 20:29:38 -->
      <g transform="translate(616.408272 500.4725)rotate(-90)scale(0.1 -0.1)">
       <use xlink:href="#DejaVuSans-50"/>
       <use x="63.623047" xlink:href="#DejaVuSans-48"/>
       <use x="127.246094" xlink:href="#DejaVuSans-58"/>
       <use x="160.9375" xlink:href="#DejaVuSans-50"/>
       <use x="224.560547" xlink:href="#DejaVuSans-57"/>
       <use x="288.183594" xlink:href="#DejaVuSans-58"/>
       <use x="321.875" xlink:href="#DejaVuSans-51"/>
       <use x="385.498047" xlink:href="#DejaVuSans-56"/>
      </g>
     </g>
    </g>
    <g id="text_22">
     <!-- timestamp -->
     <g transform="translate(354.264375 510.55125)scale(0.08 -0.08)">
      <defs>
       <path d="M 18.3125 70.21875 
L 18.3125 54.6875 
L 36.8125 54.6875 
L 36.8125 47.703125 
L 18.3125 47.703125 
L 18.3125 18.015625 
Q 18.3125 11.328125 20.140625 9.421875 
Q 21.96875 7.515625 27.59375 7.515625 
L 36.8125 7.515625 
L 36.8125 0 
L 27.59375 0 
Q 17.1875 0 13.234375 3.875 
Q 9.28125 7.765625 9.28125 18.015625 
L 9.28125 47.703125 
L 2.6875 47.703125 
L 2.6875 54.6875 
L 9.28125 54.6875 
L 9.28125 70.21875 
z
" id="DejaVuSans-116"/>
       <path d="M 9.421875 54.6875 
L 18.40625 54.6875 
L 18.40625 0 
L 9.421875 0 
z
M 9.421875 75.984375 
L 18.40625 75.984375 
L 18.40625 64.59375 
L 9.421875 64.59375 
z
" id="DejaVuSans-105"/>
       <path d="M 52 44.1875 
Q 55.375 50.25 60.0625 53.125 
Q 64.75 56 71.09375 56 
Q 79.640625 56 84.28125 50.015625 
Q 88.921875 44.046875 88.921875 33.015625 
L 88.921875 0 
L 79.890625 0 
L 79.890625 32.71875 
Q 79.890625 40.578125 77.09375 44.375 
Q 74.3125 48.1875 68.609375 48.1875 
Q 61.625 48.1875 57.5625 43.546875 
Q 53.515625 38.921875 53.515625 30.90625 
L 53.515625 0 
L 44.484375 0 
L 44.484375 32.71875 
Q 44.484375 40.625 41.703125 44.40625 
Q 38.921875 48.1875 33.109375 48.1875 
Q 26.21875 48.1875 22.15625 43.53125 
Q 18.109375 38.875 18.109375 30.90625 
L 18.109375 0 
L 9.078125 0 
L 9.078125 54.6875 
L 18.109375 54.6875 
L 18.109375 46.1875 
Q 21.1875 51.21875 25.484375 53.609375 
Q 29.78125 56 35.6875 56 
Q 41.65625 56 45.828125 52.96875 
Q 50 49.953125 52 44.1875 
z
" id="DejaVuSans-109"/>
       <path d="M 56.203125 29.59375 
L 56.203125 25.203125 
L 14.890625 25.203125 
Q 15.484375 15.921875 20.484375 11.0625 
Q 25.484375 6.203125 34.421875 6.203125 
Q 39.59375 6.203125 44.453125 7.46875 
Q 49.3125 8.734375 54.109375 11.28125 
L 54.109375 2.78125 
Q 49.265625 0.734375 44.1875 -0.34375 
Q 39.109375 -1.421875 33.890625 -1.421875 
Q 20.796875 -1.421875 13.15625 6.1875 
Q 5.515625 13.8125 5.515625 26.8125 
Q 5.515625 40.234375 12.765625 48.109375 
Q 20.015625 56 32.328125 56 
Q 43.359375 56 49.78125 48.890625 
Q 56.203125 41.796875 56.203125 29.59375 
z
M 47.21875 32.234375 
Q 47.125 39.59375 43.09375 43.984375 
Q 39.0625 48.390625 32.421875 48.390625 
Q 24.90625 48.390625 20.390625 44.140625 
Q 15.875 39.890625 15.1875 32.171875 
z
" id="DejaVuSans-101"/>
       <path d="M 44.28125 53.078125 
L 44.28125 44.578125 
Q 40.484375 46.53125 36.375 47.5 
Q 32.28125 48.484375 27.875 48.484375 
Q 21.1875 48.484375 17.84375 46.4375 
Q 14.5 44.390625 14.5 40.28125 
Q 14.5 37.15625 16.890625 35.375 
Q 19.28125 33.59375 26.515625 31.984375 
L 29.59375 31.296875 
Q 39.15625 29.25 43.1875 25.515625 
Q 47.21875 21.78125 47.21875 15.09375 
Q 47.21875 7.46875 41.1875 3.015625 
Q 35.15625 -1.421875 24.609375 -1.421875 
Q 20.21875 -1.421875 15.453125 -0.5625 
Q 10.6875 0.296875 5.421875 2 
L 5.421875 11.28125 
Q 10.40625 8.6875 15.234375 7.390625 
Q 20.0625 6.109375 24.8125 6.109375 
Q 31.15625 6.109375 34.5625 8.28125 
Q 37.984375 10.453125 37.984375 14.40625 
Q 37.984375 18.0625 35.515625 20.015625 
Q 33.0625 21.96875 24.703125 23.78125 
L 21.578125 24.515625 
Q 13.234375 26.265625 9.515625 29.90625 
Q 5.8125 33.546875 5.8125 39.890625 
Q 5.8125 47.609375 11.28125 51.796875 
Q 16.75 56 26.8125 56 
Q 31.78125 56 36.171875 55.265625 
Q 40.578125 54.546875 44.28125 53.078125 
z
" id="DejaVuSans-115"/>
       <path d="M 34.28125 27.484375 
Q 23.390625 27.484375 19.1875 25 
Q 14.984375 22.515625 14.984375 16.5 
Q 14.984375 11.71875 18.140625 8.90625 
Q 21.296875 6.109375 26.703125 6.109375 
Q 34.1875 6.109375 38.703125 11.40625 
Q 43.21875 16.703125 43.21875 25.484375 
L 43.21875 27.484375 
z
M 52.203125 31.203125 
L 52.203125 0 
L 43.21875 0 
L 43.21875 8.296875 
Q 40.140625 3.328125 35.546875 0.953125 
Q 30.953125 -1.421875 24.3125 -1.421875 
Q 15.921875 -1.421875 10.953125 3.296875 
Q 6 8.015625 6 15.921875 
Q 6 25.140625 12.171875 29.828125 
Q 18.359375 34.515625 30.609375 34.515625 
L 43.21875 34.515625 
L 43.21875 35.40625 
Q 43.21875 41.609375 39.140625 45 
Q 35.0625 48.390625 27.6875 48.390625 
Q 23 48.390625 18.546875 47.265625 
Q 14.109375 46.140625 10.015625 43.890625 
L 10.015625 52.203125 
Q 14.9375 54.109375 19.578125 55.046875 
Q 24.21875 56 28.609375 56 
Q 40.484375 56 46.34375 49.84375 
Q 52.203125 43.703125 52.203125 31.203125 
z
" id="DejaVuSans-97"/>
       <path d="M 18.109375 8.203125 
L 18.109375 -20.796875 
L 9.078125 -20.796875 
L 9.078125 54.6875 
L 18.109375 54.6875 
L 18.109375 46.390625 
Q 20.953125 51.265625 25.265625 53.625 
Q 29.59375 56 35.59375 56 
Q 45.5625 56 51.78125 48.09375 
Q 58.015625 40.1875 58.015625 27.296875 
Q 58.015625 14.40625 51.78125 6.484375 
Q 45.5625 -1.421875 35.59375 -1.421875 
Q 29.59375 -1.421875 25.265625 0.953125 
Q 20.953125 3.328125 18.109375 8.203125 
z
M 48.6875 27.296875 
Q 48.6875 37.203125 44.609375 42.84375 
Q 40.53125 48.484375 33.40625 48.484375 
Q 26.265625 48.484375 22.1875 42.84375 
Q 18.109375 37.203125 18.109375 27.296875 
Q 18.109375 17.390625 22.1875 11.75 
Q 26.265625 6.109375 33.40625 6.109375 
Q 40.53125 6.109375 44.609375 11.75 
Q 48.6875 17.390625 48.6875 27.296875 
z
" id="DejaVuSans-112"/>
      </defs>
      <use xlink:href="#DejaVuSans-116"/>
      <use x="39.208984" xlink:href="#DejaVuSans-105"/>
      <use x="66.992188" xlink:href="#DejaVuSans-109"/>
      <use x="164.404297" xlink:href="#DejaVuSans-101"/>
      <use x="225.927734" xlink:href="#DejaVuSans-115"/>
      <use x="278.027344" xlink:href="#DejaVuSans-116"/>
      <use x="317.236328" xlink:href="#DejaVuSans-97"/>
      <use x="378.515625" xlink:href="#DejaVuSans-109"/>
      <use x="475.927734" xlink:href="#DejaVuSans-112"/>
     </g>
    </g>
   </g>
   <g id="matplotlib.axis_2">
    <g id="ytick_1">
     <g id="line2d_22">
      <defs>
       <path d="M 0 0 
L -3.5 0 
" id="m7d2f75c6e4" style="stroke:#000000;stroke-width:0.8;"/>
      </defs>
      <g>
       <use style="stroke:#000000;stroke-width:0.8;" x="108" xlink:href="#m7d2f75c6e4" y="436.11674"/>
      </g>
     </g>
     <g id="text_23">
      <!-- 10800 -->
      <g transform="translate(69.1875 439.915959)scale(0.1 -0.1)">
       <use xlink:href="#DejaVuSans-49"/>
       <use x="63.623047" xlink:href="#DejaVuSans-48"/>
       <use x="127.246094" xlink:href="#DejaVuSans-56"/>
       <use x="190.869141" xlink:href="#DejaVuSans-48"/>
       <use x="254.492188" xlink:href="#DejaVuSans-48"/>
      </g>
     </g>
    </g>
    <g id="ytick_2">
     <g id="line2d_23">
      <g>
       <use style="stroke:#000000;stroke-width:0.8;" x="108" xlink:href="#m7d2f75c6e4" y="377.700148"/>
      </g>
     </g>
     <g id="text_24">
      <!-- 11000 -->
      <g transform="translate(69.1875 381.499366)scale(0.1 -0.1)">
       <use xlink:href="#DejaVuSans-49"/>
       <use x="63.623047" xlink:href="#DejaVuSans-49"/>
       <use x="127.246094" xlink:href="#DejaVuSans-48"/>
       <use x="190.869141" xlink:href="#DejaVuSans-48"/>
       <use x="254.492188" xlink:href="#DejaVuSans-48"/>
      </g>
     </g>
    </g>
    <g id="ytick_3">
     <g id="line2d_24">
      <g>
       <use style="stroke:#000000;stroke-width:0.8;" x="108" xlink:href="#m7d2f75c6e4" y="319.283555"/>
      </g>
     </g>
     <g id="text_25">
      <!-- 11200 -->
      <g transform="translate(69.1875 323.082774)scale(0.1 -0.1)">
       <use xlink:href="#DejaVuSans-49"/>
       <use x="63.623047" xlink:href="#DejaVuSans-49"/>
       <use x="127.246094" xlink:href="#DejaVuSans-50"/>
       <use x="190.869141" xlink:href="#DejaVuSans-48"/>
       <use x="254.492188" xlink:href="#DejaVuSans-48"/>
      </g>
     </g>
    </g>
    <g id="ytick_4">
     <g id="line2d_25">
      <g>
       <use style="stroke:#000000;stroke-width:0.8;" x="108" xlink:href="#m7d2f75c6e4" y="260.866963"/>
      </g>
     </g>
     <g id="text_26">
      <!-- 11400 -->
      <g transform="translate(69.1875 264.666182)scale(0.1 -0.1)">
       <use xlink:href="#DejaVuSans-49"/>
       <use x="63.623047" xlink:href="#DejaVuSans-49"/>
       <use x="127.246094" xlink:href="#DejaVuSans-52"/>
       <use x="190.869141" xlink:href="#DejaVuSans-48"/>
       <use x="254.492188" xlink:href="#DejaVuSans-48"/>
      </g>
     </g>
    </g>
    <g id="ytick_5">
     <g id="line2d_26">
      <g>
       <use style="stroke:#000000;stroke-width:0.8;" x="108" xlink:href="#m7d2f75c6e4" y="202.45037"/>
      </g>
     </g>
     <g id="text_27">
      <!-- 11600 -->
      <g transform="translate(69.1875 206.249589)scale(0.1 -0.1)">
       <use xlink:href="#DejaVuSans-49"/>
       <use x="63.623047" xlink:href="#DejaVuSans-49"/>
       <use x="127.246094" xlink:href="#DejaVuSans-54"/>
       <use x="190.869141" xlink:href="#DejaVuSans-48"/>
       <use x="254.492188" xlink:href="#DejaVuSans-48"/>
      </g>
     </g>
    </g>
    <g id="ytick_6">
     <g id="line2d_27">
      <g>
       <use style="stroke:#000000;stroke-width:0.8;" x="108" xlink:href="#m7d2f75c6e4" y="144.033778"/>
      </g>
     </g>
     <g id="text_28">
      <!-- 11800 -->
      <g transform="translate(69.1875 147.832997)scale(0.1 -0.1)">
       <use xlink:href="#DejaVuSans-49"/>
       <use x="63.623047" xlink:href="#DejaVuSans-49"/>
       <use x="127.246094" xlink:href="#DejaVuSans-56"/>
       <use x="190.869141" xlink:href="#DejaVuSans-48"/>
       <use x="254.492188" xlink:href="#DejaVuSans-48"/>
      </g>
     </g>
    </g>
    <g id="ytick_7">
     <g id="line2d_28">
      <g>
       <use style="stroke:#000000;stroke-width:0.8;" x="108" xlink:href="#m7d2f75c6e4" y="85.617185"/>
      </g>
     </g>
     <g id="text_29">
      <!-- 12000 -->
      <g transform="translate(69.1875 89.416404)scale(0.1 -0.1)">
       <use xlink:href="#DejaVuSans-49"/>
       <use x="63.623047" xlink:href="#DejaVuSans-50"/>
       <use x="127.246094" xlink:href="#DejaVuSans-48"/>
       <use x="190.869141" xlink:href="#DejaVuSans-48"/>
       <use x="254.492188" xlink:href="#DejaVuSans-48"/>
      </g>
     </g>
    </g>
    <g id="text_30">
     <!-- MB -->
     <g transform="translate(63.52375 260.715625)rotate(-90)scale(0.08 -0.08)">
      <defs>
       <path d="M 9.8125 72.90625 
L 24.515625 72.90625 
L 43.109375 23.296875 
L 61.8125 72.90625 
L 76.515625 72.90625 
L 76.515625 0 
L 66.890625 0 
L 66.890625 64.015625 
L 48.09375 14.015625 
L 38.1875 14.015625 
L 19.390625 64.015625 
L 19.390625 0 
L 9.8125 0 
z
" id="DejaVuSans-77"/>
       <path d="M 19.671875 34.8125 
L 19.671875 8.109375 
L 35.5 8.109375 
Q 43.453125 8.109375 47.28125 11.40625 
Q 51.125 14.703125 51.125 21.484375 
Q 51.125 28.328125 47.28125 31.5625 
Q 43.453125 34.8125 35.5 34.8125 
z
M 19.671875 64.796875 
L 19.671875 42.828125 
L 34.28125 42.828125 
Q 41.5 42.828125 45.03125 45.53125 
Q 48.578125 48.25 48.578125 53.8125 
Q 48.578125 59.328125 45.03125 62.0625 
Q 41.5 64.796875 34.28125 64.796875 
z
M 9.8125 72.90625 
L 35.015625 72.90625 
Q 46.296875 72.90625 52.390625 68.21875 
Q 58.5 63.53125 58.5 54.890625 
Q 58.5 48.1875 55.375 44.234375 
Q 52.25 40.28125 46.1875 39.3125 
Q 53.46875 37.75 57.5 32.78125 
Q 61.53125 27.828125 61.53125 20.40625 
Q 61.53125 10.640625 54.890625 5.3125 
Q 48.25 0 35.984375 0 
L 9.8125 0 
z
" id="DejaVuSans-66"/>
      </defs>
      <use xlink:href="#DejaVuSans-77"/>
      <use x="86.279297" xlink:href="#DejaVuSans-66"/>
     </g>
    </g>
   </g>
   <g id="line2d_29">
    <path clip-path="url(#pd470300d48)" d="M 132.349091 78.616541 
L 132.683327 78.12 
L 133.017563 80.352682 
L 133.351799 79.467087 
L 133.686035 83.664903 
L 134.020271 84.33903 
L 134.354507 84.426655 
L 134.688743 80.41694 
L 135.022979 80.332821 
L 135.357215 80.537279 
L 135.691451 79.80824 
L 136.025687 85.126486 
L 136.359923 96.13334 
L 136.694159 125.844019 
L 137.028395 143.911103 
L 137.362631 201.32994 
L 138.031103 261.334296 
L 138.365338 285.600548 
L 139.03381 355.386178 
L 139.702282 392.104511 
L 140.036518 401.934855 
L 140.370754 401.639267 
L 140.70499 404.183894 
L 141.039226 403.940881 
L 141.373462 404.285539 
L 142.041934 408.692487 
L 142.37617 408.635238 
L 142.710406 408.71118 
L 143.044642 404.525047 
L 143.378878 403.725908 
L 143.713114 404.784417 
L 144.381586 403.596223 
L 144.715822 403.862603 
L 145.050058 403.849751 
L 145.384294 404.071734 
L 145.71853 403.189644 
L 146.387002 403.481727 
L 146.721238 404.588137 
L 147.055474 403.965416 
L 147.38971 404.204924 
L 147.723946 404.055377 
L 148.058182 405.178144 
L 148.392418 405.321849 
L 148.726654 405.058975 
L 149.06089 404.074071 
L 149.395126 404.78208 
L 149.729362 406.071918 
L 150.397834 404.324094 
L 150.73207 404.82414 
L 151.066306 404.042526 
L 151.400542 402.864847 
L 151.734778 403.092672 
L 152.069014 403.662818 
L 152.40325 403.887138 
L 152.737485 405.372087 
L 153.071721 405.575377 
L 153.405957 405.334701 
L 153.740193 404.687445 
L 154.074429 405.498267 
L 155.077137 404.928121 
L 155.411373 405.145431 
L 155.745609 406.549766 
L 156.079845 406.382695 
L 156.414081 405.693379 
L 156.748317 405.627952 
L 157.082553 405.807875 
L 157.416789 405.251749 
L 157.751025 405.480742 
L 158.085261 405.494762 
L 158.419497 405.134916 
L 158.753733 404.102111 
L 159.087969 403.811196 
L 159.422205 403.926861 
L 159.756441 402.847322 
L 160.090677 405.026261 
L 160.424913 405.026261 
L 160.759149 404.847506 
L 161.093385 404.332272 
L 161.427621 404.50168 
L 161.761857 406.14085 
L 162.096093 405.351057 
L 162.430329 404.863863 
L 162.764565 405.223709 
L 163.098801 407.797544 
L 163.433037 407.776514 
L 163.767273 405.823064 
L 164.435745 407.297498 
L 164.769981 405.419989 
L 165.104217 404.925785 
L 165.438453 404.867368 
L 165.772689 405.183986 
L 166.106925 405.140758 
L 166.441161 404.275024 
L 166.775397 404.241142 
L 167.109632 403.808859 
L 167.443868 407.230903 
L 167.778104 407.063832 
L 168.11234 407.090704 
L 168.446576 407.004247 
L 168.780812 407.122249 
L 169.115048 407.386292 
L 169.449284 407.392133 
L 169.78352 407.589581 
L 170.117756 407.021772 
L 170.786228 408.29759 
L 171.120464 408.024201 
L 171.4547 407.115239 
L 171.788936 406.545093 
L 172.123172 408.188936 
L 172.791644 406.997237 
L 173.12588 407.486768 
L 173.460116 407.715761 
L 173.794352 407.360588 
L 174.462824 407.628136 
L 175.131296 409.495131 
L 175.465532 408.881756 
L 175.799768 408.813993 
L 176.802476 407.168982 
L 177.136712 407.208705 
L 177.470948 405.852272 
L 177.805184 406.286891 
L 178.13942 407.006584 
L 178.473656 406.942325 
L 179.142128 407.376945 
L 179.476364 409.295346 
L 180.144836 407.038129 
L 180.813308 407.194685 
L 181.147544 408.510227 
L 182.150251 408.389889 
L 182.484487 406.728521 
L 182.818723 406.852364 
L 183.152959 406.381526 
L 183.487195 406.326615 
L 183.821431 407.357083 
L 184.155667 408.885261 
L 184.489903 408.624723 
L 184.824139 411.821279 
L 185.158375 412.781648 
L 185.492611 411.12028 
L 185.826847 407.179497 
L 186.161083 407.320865 
L 186.495319 407.277637 
L 186.829555 410.675146 
L 187.163791 412.504753 
L 187.498027 409.281326 
L 187.832263 409.164493 
L 188.166499 409.336237 
L 188.500735 410.079296 
L 188.834971 408.94952 
L 189.503443 408.268382 
L 189.837679 408.89344 
L 190.171915 409.911057 
L 190.506151 410.162248 
L 190.840387 409.602617 
L 191.174623 409.590934 
L 191.508859 407.933071 
L 191.843095 406.928305 
L 192.177331 407.503125 
L 192.511567 407.3454 
L 192.845803 407.431857 
L 193.180039 408.574485 
L 193.514275 408.582663 
L 193.848511 407.430688 
L 194.182747 407.640988 
L 194.516983 409.204216 
L 195.185455 409.432041 
L 195.519691 408.97756 
L 195.853926 410.040742 
L 196.188162 409.921572 
L 196.856634 408.83736 
L 197.19087 408.833855 
L 197.525106 410.644769 
L 197.859342 410.588689 
L 198.193578 410.194961 
L 198.527814 410.191456 
L 198.86205 410.587521 
L 199.196286 408.215807 
L 199.530522 407.533501 
L 199.864758 407.110565 
L 200.198994 407.222725 
L 200.53323 409.437882 
L 200.867466 409.371287 
L 201.201702 408.720527 
L 201.870174 410.723047 
L 202.20441 409.357267 
L 202.538646 409.484616 
L 202.872882 408.778943 
L 203.207118 408.878251 
L 203.541354 410.163416 
L 203.87559 410.169258 
L 204.209826 409.970642 
L 204.544062 408.36068 
L 204.878298 408.769596 
L 205.54677 409.148136 
L 205.881006 408.459989 
L 206.215242 408.707675 
L 206.549478 410.136545 
L 206.883714 409.526676 
L 207.21795 409.520834 
L 207.552186 409.676222 
L 207.886422 408.967045 
L 208.220658 407.958774 
L 208.554894 408.184262 
L 208.88913 408.145707 
L 209.223366 408.926153 
L 209.557602 410.218328 
L 209.891838 408.871241 
L 210.226074 408.532425 
L 210.560309 407.840773 
L 211.228781 409.65636 
L 211.897253 409.56523 
L 212.231489 409.923908 
L 212.899961 408.056914 
L 213.568433 408.819835 
L 213.902669 408.573317 
L 214.236905 409.808243 
L 214.905377 410.184446 
L 215.239613 409.758005 
L 215.573849 409.795392 
L 215.908085 410.036068 
L 216.242321 409.907552 
L 216.910793 408.82334 
L 217.245029 409.946107 
L 217.579265 409.90171 
L 217.913501 409.350257 
L 218.247737 409.790719 
L 218.581973 414.779496 
L 218.916209 413.572609 
L 219.250445 414.173131 
L 219.584681 414.1743 
L 219.918917 411.942786 
L 220.253153 411.655376 
L 220.921625 409.567567 
L 221.255861 409.867828 
L 221.590097 411.769873 
L 221.924333 410.713701 
L 222.258569 410.871425 
L 222.927041 408.052241 
L 223.261277 410.02789 
L 223.595513 410.107336 
L 223.929749 409.90171 
L 224.263985 410.377221 
L 224.598221 410.220665 
L 224.932456 409.832778 
L 225.266692 410.249873 
L 225.600928 409.815253 
L 225.935164 411.952132 
L 226.2694 410.600372 
L 226.603636 410.663462 
L 226.937872 410.365538 
L 227.272108 409.731134 
L 227.606344 413.904415 
L 227.94058 414.516621 
L 228.274816 414.576206 
L 228.609052 410.621402 
L 229.277524 415.739864 
L 229.61176 415.655744 
L 229.945996 412.102847 
L 230.280232 412.223185 
L 230.614468 411.227767 
L 230.948704 410.837544 
L 231.28294 409.886522 
L 231.617176 410.105 
L 231.951412 409.650519 
L 232.285648 411.331748 
L 232.619884 410.282586 
L 233.288356 411.108597 
L 233.622592 411.995361 
L 233.956828 411.341095 
L 234.291064 411.199727 
L 234.6253 411.553731 
L 234.959536 410.933347 
L 235.293772 411.964984 
L 235.628008 412.086491 
L 235.962244 411.810764 
L 236.29648 411.959142 
L 236.630716 410.258051 
L 236.964952 410.770949 
L 237.299188 410.346844 
L 237.633424 410.481203 
L 237.96766 409.662202 
L 238.301896 411.121448 
L 238.970368 410.749919 
L 239.638839 412.618082 
L 239.973075 412.278097 
L 240.307311 412.31782 
L 240.641547 410.918159 
L 240.975783 411.785061 
L 241.310019 411.420541 
L 241.644255 411.42171 
L 241.978491 410.419281 
L 242.312727 411.427551 
L 242.646963 410.852732 
L 242.981199 411.557236 
L 243.315435 410.596867 
L 243.649671 410.8539 
L 243.983907 410.793147 
L 244.318143 411.3446 
L 244.986615 411.334085 
L 245.320851 411.02214 
L 245.655087 412.087659 
L 245.989323 412.41596 
L 246.323559 412.193977 
L 246.657795 412.425307 
L 246.992031 411.786229 
L 247.326267 412.420634 
L 247.660503 411.868013 
L 247.994739 410.901802 
L 248.328975 411.121448 
L 248.663211 416.123077 
L 248.997447 416.006244 
L 249.331683 416.152285 
L 249.665919 415.177897 
L 250.000155 415.216452 
L 250.334391 412.912501 
L 250.668627 415.785429 
L 251.002863 415.669764 
L 251.337099 416.568212 
L 251.671335 413.155514 
L 252.005571 413.534054 
L 252.339807 413.427736 
L 253.008279 411.49882 
L 253.342515 413.815622 
L 253.67675 413.624015 
L 254.010986 413.580787 
L 254.345222 412.650795 
L 254.679458 413.107613 
L 255.013694 412.046767 
L 255.34793 411.954469 
L 255.682166 410.967229 
L 256.016402 411.588781 
L 256.350638 413.008304 
L 256.684874 413.663739 
L 257.01911 412.512932 
L 257.353346 412.908996 
L 257.687582 412.255899 
L 258.021818 413.098266 
L 258.356054 411.670564 
L 258.69029 411.912409 
L 259.024526 411.136637 
L 259.358762 412.736083 
L 259.692998 411.901894 
L 260.027234 412.601725 
L 260.36147 412.586537 
L 260.695706 413.708135 
L 261.364178 413.313239 
L 261.698414 413.079573 
L 262.03265 413.344784 
L 262.366886 412.636775 
L 262.701122 412.940541 
L 263.035358 412.036252 
L 264.038066 414.252578 
L 264.372302 414.175468 
L 265.040774 412.622755 
L 266.377718 412.573685 
L 266.711954 414.514284 
L 267.04619 414.360064 
L 267.380426 413.76071 
L 267.714662 413.79576 
L 268.383133 414.934884 
L 268.717369 413.912593 
L 269.051605 414.06915 
L 269.720077 414.802862 
L 270.054313 413.79576 
L 270.388549 413.902078 
L 270.722785 417.915298 
L 271.057021 417.018019 
L 271.391257 418.177005 
L 271.725493 414.460541 
L 272.059729 414.246736 
L 272.393965 414.459373 
L 272.728201 419.890947 
L 273.062437 419.431793 
L 273.396673 416.502785 
L 273.730909 415.870717 
L 274.065145 413.488489 
L 274.399381 414.814545 
L 275.067853 413.406706 
L 275.736325 414.971102 
L 276.070561 415.090272 
L 276.404797 414.134576 
L 276.739033 414.897497 
L 277.073269 414.912685 
L 277.407505 415.197758 
L 277.741741 413.664907 
L 278.075977 414.385768 
L 278.410213 414.246736 
L 278.744449 415.572793 
L 279.078685 415.16154 
L 279.747157 415.51204 
L 280.081393 414.650979 
L 280.415629 414.412639 
L 280.749865 414.377589 
L 281.084101 413.864692 
L 281.418337 413.78875 
L 281.752573 416.153454 
L 282.421044 415.902262 
L 282.75528 415.283047 
L 283.089516 415.774914 
L 283.423752 415.166213 
L 283.757988 415.181402 
L 284.092224 413.92194 
L 284.42646 414.493254 
L 284.760696 416.24692 
L 285.094932 416.852116 
L 285.429168 415.924461 
L 285.763404 416.098542 
L 286.09764 415.977036 
L 286.431876 417.833515 
L 286.766112 415.565783 
L 287.100348 415.39988 
L 287.434584 416.540172 
L 287.76882 417.189764 
L 288.103056 417.060079 
L 288.437292 416.7236 
L 288.771528 416.829918 
L 289.105764 416.676866 
L 289.44 413.84483 
L 289.774236 413.594807 
L 290.442708 413.548074 
L 290.776944 415.986382 
L 291.11118 415.330948 
L 291.445416 415.360156 
L 291.779652 415.772578 
L 292.113888 414.016575 
L 292.448124 415.731686 
L 292.78236 415.653408 
L 293.450832 414.060971 
L 293.785068 415.950164 
L 294.119304 416.109057 
L 294.45354 415.680279 
L 294.787776 414.613592 
L 295.122012 415.160372 
L 295.456248 416.981801 
L 295.790484 416.376605 
L 296.12472 416.130087 
L 296.458956 416.103215 
L 296.793191 415.118312 
L 297.127427 415.205937 
L 297.461663 414.228043 
L 298.130135 415.423246 
L 298.464371 417.375529 
L 298.798607 415.675606 
L 299.132843 416.096206 
L 299.467079 416.209534 
L 299.801315 416.961939 
L 300.135551 416.264445 
L 300.469787 417.127843 
L 301.138259 417.695652 
L 301.472495 419.361693 
L 302.140967 418.851132 
L 302.475203 418.160648 
L 302.809439 419.014698 
L 303.477911 418.671209 
L 303.812147 417.974883 
L 304.146383 416.271455 
L 304.480619 416.792531 
L 304.814855 416.640648 
L 305.149091 416.085691 
L 305.483327 416.699065 
L 305.817563 417.943338 
L 306.151799 417.972546 
L 306.486035 417.354499 
L 306.820271 417.846367 
L 307.154507 417.924645 
L 307.488743 418.576574 
L 307.822979 417.213131 
L 308.157215 417.167566 
L 308.491451 417.772762 
L 308.825687 419.050917 
L 309.159923 418.415344 
L 309.494159 418.958619 
L 310.162631 419.164245 
L 310.496867 418.833607 
L 311.165338 418.657189 
L 311.499574 419.165413 
L 311.83381 419.246028 
L 312.168046 419.129195 
L 312.836518 418.168826 
L 313.170754 418.422354 
L 313.50499 422.450762 
L 313.839226 421.553484 
L 314.173462 421.232192 
L 314.507698 418.423523 
L 314.841934 419.553299 
L 315.17617 419.876927 
L 315.844642 418.398988 
L 316.178878 420.396835 
L 316.513114 419.610548 
L 316.84735 419.511239 
L 317.181586 419.657281 
L 317.515822 419.400248 
L 317.850058 418.553207 
L 318.184294 418.446889 
L 318.51853 418.528672 
L 318.852766 418.99951 
L 319.187002 420.164337 
L 319.521238 420.187704 
L 319.855474 419.825521 
L 320.18971 419.972731 
L 320.523946 419.46918 
L 320.858182 418.670041 
L 321.192418 418.855805 
L 321.526654 418.78921 
L 321.86089 418.469087 
L 322.195126 420.385152 
L 322.529362 420.37931 
L 322.863598 420.185367 
L 323.197834 419.283415 
L 323.53207 419.26589 
L 323.866306 421.637603 
L 324.200542 419.930671 
L 324.534778 418.904875 
L 324.869014 419.157235 
L 325.20325 420.685413 
L 325.537485 420.220417 
L 325.871721 419.993761 
L 326.205957 420.885198 
L 326.540193 416.111394 
L 326.874429 417.380202 
L 327.208665 416.500448 
L 327.542901 417.018019 
L 327.877137 417.758742 
L 328.211373 418.147796 
L 328.545609 417.126674 
L 328.879845 417.562462 
L 329.214081 417.57765 
L 329.548317 415.963016 
L 329.882553 416.868473 
L 330.216789 416.763323 
L 330.551025 416.838096 
L 330.885261 417.095129 
L 331.219497 418.099895 
L 331.553733 417.825337 
L 332.222205 416.790195 
L 332.556441 417.638404 
L 332.890677 418.863984 
L 333.559149 417.216636 
L 333.893385 418.155975 
L 334.227621 418.002923 
L 334.561857 418.055498 
L 334.896093 417.402401 
L 335.230329 417.955021 
L 335.564565 418.207381 
L 335.898801 419.422446 
L 336.233037 417.962031 
L 336.901509 419.591854 
L 337.235745 419.493715 
L 337.569981 418.798557 
L 337.904217 419.067273 
L 338.572689 417.950348 
L 338.906925 418.174668 
L 339.241161 422.222938 
L 339.575397 422.418049 
L 339.909632 421.691347 
L 340.243868 419.706351 
L 340.578104 419.769441 
L 340.91234 420.427212 
L 341.246576 419.531101 
L 341.580812 419.039233 
L 341.915048 420.995021 
L 342.249284 421.310471 
L 342.917756 419.647934 
L 343.586228 419.973899 
L 344.2547 420.265982 
L 344.588936 418.182846 
L 344.923172 419.32898 
L 345.257408 418.762339 
L 345.591644 418.534514 
L 345.92588 418.541524 
L 346.260116 419.274068 
L 346.594352 418.95745 
L 346.928588 419.196958 
L 347.262824 419.047412 
L 347.59706 418.368611 
L 347.931296 418.941094 
L 348.265532 419.25187 
L 348.599768 419.200463 
L 348.934004 418.485444 
L 349.602476 419.909641 
L 349.936712 418.983154 
L 350.270948 418.427028 
L 350.605184 419.071947 
L 350.93942 420.81393 
L 351.607892 419.909641 
L 353.279072 418.932915 
L 353.947544 420.510163 
L 354.281779 419.485536 
L 354.616015 419.340663 
L 354.950251 419.938849 
L 355.618723 418.987827 
L 355.952959 420.353607 
L 356.287195 424.288548 
L 356.621431 426.000155 
L 356.955667 425.581892 
L 357.289903 422.219433 
L 357.624139 422.655221 
L 357.958375 421.552315 
L 358.292611 422.207749 
L 358.626847 426.370516 
L 358.961083 426.381031 
L 359.295319 422.947303 
L 359.629555 425.127411 
L 359.963791 425.220877 
L 360.298027 423.956742 
L 360.632263 423.596896 
L 360.966499 422.023153 
L 361.300735 422.75336 
L 361.634971 422.170363 
L 361.969207 420.810425 
L 362.303443 420.942446 
L 362.637679 422.429732 
L 362.971915 422.692607 
L 363.306151 421.796497 
L 363.640387 422.647042 
L 363.974623 421.683168 
L 364.308859 423.740601 
L 364.643095 422.742845 
L 364.977331 423.162277 
L 365.311567 423.337526 
L 365.645803 423.674006 
L 366.314275 422.749855 
L 366.648511 423.295466 
L 367.316983 422.631854 
L 367.985455 423.016235 
L 368.319691 422.036005 
L 368.653926 424.003475 
L 368.988162 421.853745 
L 369.322398 421.305797 
L 369.99087 421.62592 
L 370.325106 423.699709 
L 370.659342 423.269763 
L 370.993578 422.259156 
L 371.327814 422.309394 
L 371.66205 422.581616 
L 372.664758 422.295374 
L 372.998994 422.69027 
L 373.33323 424.129655 
L 373.667466 422.485812 
L 374.001702 427.621799 
L 374.335938 427.445381 
L 374.670174 428.683813 
L 375.00441 427.839109 
L 375.338646 427.804059 
L 375.672882 424.807288 
L 376.007118 423.835236 
L 376.341354 426.119324 
L 376.67559 425.782845 
L 377.009826 425.175312 
L 377.344062 424.242983 
L 377.678298 423.790839 
L 378.012534 423.788502 
L 378.34677 423.428656 
L 378.681006 422.814114 
L 379.015242 422.79542 
L 379.349478 423.226535 
L 379.683714 422.881877 
L 380.352186 421.344352 
L 380.686422 423.317665 
L 381.020658 424.251162 
L 381.354894 423.069978 
L 381.68913 423.453191 
L 382.023366 422.999878 
L 382.357602 423.873791 
L 382.691838 422.398187 
L 383.360309 423.483568 
L 383.694545 425.111054 
L 384.363017 424.519878 
L 384.697253 424.69396 
L 385.031489 423.360893 
L 385.365725 423.879632 
L 385.699961 423.413468 
L 386.034197 423.513944 
L 386.368433 422.380663 
L 386.702669 424.793268 
L 387.036905 423.262753 
L 387.371141 424.558433 
L 387.705377 424.04904 
L 388.039613 424.373837 
L 388.373849 426.848364 
L 388.708085 426.816819 
L 389.042321 425.791023 
L 389.376557 426.336634 
L 389.710793 426.324951 
L 390.045029 425.822568 
L 390.379265 425.73027 
L 390.713501 425.209194 
L 391.047737 425.96861 
L 391.381973 427.169655 
L 391.716209 426.391546 
L 392.050445 426.431269 
L 392.384681 426.844859 
L 392.718917 424.265182 
L 393.053153 423.657649 
L 393.387389 423.934544 
L 393.721625 424.358648 
L 394.055861 423.450854 
L 394.390097 425.422999 
L 395.058569 424.139002 
L 395.392805 423.997634 
L 396.061277 428.429116 
L 396.395513 429.727133 
L 396.729749 429.178017 
L 397.063985 429.069362 
L 397.398221 427.279478 
L 397.732456 426.971038 
L 398.066692 426.175404 
L 398.400928 425.833083 
L 398.735164 426.810977 
L 399.0694 430.467856 
L 399.403636 429.803075 
L 399.737872 426.888087 
L 400.072108 426.810977 
L 400.406344 426.195266 
L 400.74058 423.995297 
L 401.074816 423.955574 
L 401.409052 424.117972 
L 401.743288 425.973283 
L 402.077524 425.231392 
L 402.41176 426.170731 
L 402.745996 426.05273 
L 403.080232 425.6111 
L 403.414468 426.524736 
L 403.748704 426.670777 
L 404.08294 426.492022 
L 404.417176 426.132176 
L 404.751412 427.639324 
L 405.085648 427.766672 
L 405.419884 427.604274 
L 405.75412 427.174328 
L 406.088356 427.568056 
L 406.422592 426.932483 
L 406.756828 426.594835 
L 407.091064 425.455712 
L 407.4253 426.355327 
L 407.759536 428.403413 
L 408.093772 428.392898 
L 408.428008 427.379954 
L 408.762244 427.168486 
L 409.09648 427.198863 
L 409.430716 426.301584 
L 410.099188 425.453375 
L 410.433424 425.822568 
L 410.76766 426.410239 
L 411.101896 425.848271 
L 411.770368 426.348317 
L 412.104603 428.506226 
L 412.438839 425.483752 
L 412.773075 424.896081 
L 413.107311 423.544321 
L 413.441547 423.073483 
L 413.775783 423.936881 
L 414.110019 422.983522 
L 414.444255 422.748687 
L 414.778491 421.497404 
L 415.112727 423.696204 
L 415.446963 423.745274 
L 415.781199 423.488241 
L 416.115435 422.342108 
L 416.449671 421.645782 
L 416.783907 423.548994 
L 417.118143 423.35622 
L 417.786615 421.901646 
L 418.120851 423.107365 
L 418.455087 422.467119 
L 419.123559 420.737988 
L 419.457795 421.726397 
L 419.792031 423.449686 
L 420.126267 422.864352 
L 420.460503 422.699617 
L 420.794739 422.190224 
L 421.128975 424.12615 
L 421.463211 422.83748 
L 421.797447 422.99871 
L 422.131683 422.287196 
L 422.800155 423.98595 
L 423.468627 424.081754 
L 423.802863 422.939125 
L 424.471335 423.308318 
L 424.805571 423.246396 
L 425.474043 422.423891 
L 425.808279 428.887103 
L 426.142515 429.772698 
L 426.810986 427.662691 
L 427.145222 425.054974 
L 427.479458 425.067826 
L 427.813694 424.435758 
L 428.14793 423.130732 
L 428.482166 423.866781 
L 428.816402 425.508287 
L 429.150638 425.461554 
L 429.484874 425.292145 
L 429.81911 423.987119 
L 430.153346 424.857526 
L 430.821818 425.57605 
L 431.156054 424.869209 
L 431.49029 424.897249 
L 431.824526 426.698817 
L 432.492998 426.69648 
L 432.827234 424.753545 
L 433.16147 425.109886 
L 433.829942 425.260601 
L 434.164178 423.976604 
L 434.498414 424.671761 
L 434.83265 426.236158 
L 435.166886 426.067918 
L 435.501122 425.616942 
L 435.835358 424.570116 
L 436.169594 425.87047 
L 436.50383 426.439447 
L 436.838066 426.174236 
L 437.172302 425.087687 
L 437.506538 425.266442 
L 437.840774 426.944167 
L 438.17501 426.76658 
L 438.509246 426.425427 
L 438.843482 425.59708 
L 439.177718 425.203352 
L 439.511954 424.478987 
L 439.84619 424.71499 
L 440.180426 423.864444 
L 440.514662 423.518618 
L 440.848897 425.144936 
L 441.183133 424.64489 
L 441.517369 424.365658 
L 441.851605 427.176665 
L 442.520077 430.92 
L 442.854313 429.900046 
L 443.188549 426.563291 
L 443.522785 425.439355 
L 443.857021 426.628717 
L 444.191257 430.327656 
L 444.525493 430.465519 
L 444.859729 429.425704 
L 445.193965 429.850976 
L 445.862437 426.662599 
L 446.196673 426.645074 
L 446.530909 426.381031 
L 446.865145 426.718679 
L 447.199381 426.80864 
L 447.533617 426.586657 
L 447.867853 425.726765 
L 448.202089 426.327288 
L 448.536325 427.989824 
L 448.870561 428.422107 
L 449.204797 428.029547 
L 449.539033 426.381031 
L 449.873269 428.236342 
L 450.541741 428.346165 
L 450.875977 427.625304 
L 451.210213 427.737464 
L 451.544449 428.717694 
L 451.878685 428.484028 
L 452.547157 426.820324 
L 452.881393 428.0202 
L 453.215629 428.35668 
L 453.884101 426.716342 
L 454.218337 426.826165 
L 454.886809 423.997634 
L 455.221044 423.589886 
L 455.55528 422.211254 
L 455.889516 424.242983 
L 456.223752 423.692699 
L 456.557988 423.910009 
L 456.892224 423.204336 
L 457.22646 424.847011 
L 457.560696 422.964828 
L 457.894932 422.482307 
L 458.229168 421.012546 
L 458.563404 421.246212 
L 458.89764 423.477726 
L 459.231876 423.809532 
L 459.566112 423.800186 
L 459.900348 422.526704 
L 460.234584 422.337434 
L 460.56882 423.740601 
L 460.903056 423.706719 
L 461.571528 422.73934 
L 461.905764 423.968426 
L 462.24 423.636619 
L 462.574236 423.913514 
L 462.908472 422.394683 
L 463.242708 422.699617 
L 463.576944 421.601385 
L 463.91118 421.417957 
L 464.245416 419.990256 
L 464.579652 419.819679 
L 464.913888 422.392346 
L 465.248124 422.546566 
L 465.58236 422.228779 
L 465.916596 420.941278 
L 466.250832 421.521939 
L 466.585068 422.541892 
L 466.919304 422.380663 
L 467.25354 421.624752 
L 467.587776 421.580355 
L 467.922012 422.934452 
L 468.256248 422.995205 
L 468.590484 422.73233 
L 468.92472 421.839725 
L 469.258956 423.205505 
L 469.593191 424.054882 
L 469.927427 424.501185 
L 470.261663 424.186904 
L 470.595899 424.103952 
L 470.930135 422.685597 
L 471.264371 422.538387 
L 471.598607 422.157511 
L 471.932843 421.396927 
L 472.267079 422.557081 
L 472.601315 424.303737 
L 472.935551 424.512868 
L 473.269787 424.531561 
L 473.604023 423.291961 
L 473.938259 426.322614 
L 474.272495 425.43585 
L 474.606731 425.052637 
L 474.940967 423.615589 
L 475.275203 424.039694 
L 475.609439 423.645966 
L 475.943675 423.558341 
L 476.612147 422.190224 
L 476.946383 423.700878 
L 477.280619 423.369071 
L 478.283327 418.837112 
L 478.617563 421.807012 
L 478.951799 421.290609 
L 479.286035 421.35253 
L 479.620271 420.693591 
L 479.954507 421.935528 
L 480.288743 420.7929 
L 480.622979 420.213407 
L 480.957215 418.842954 
L 481.291451 418.532177 
L 481.625687 418.720279 
L 481.959923 418.668872 
L 482.294159 419.305613 
L 482.628395 418.167658 
L 482.962631 419.800986 
L 483.631103 419.730886 
L 483.965338 417.65476 
L 484.299574 419.126858 
L 484.63381 420.008949 
L 484.968046 423.41931 
L 485.302282 423.473053 
L 485.636518 422.707795 
L 485.970754 421.250886 
L 486.639226 419.691163 
L 486.973462 418.191025 
L 487.307698 417.625552 
L 487.641934 418.214391 
L 488.310406 417.72486 
L 488.644642 417.047228 
L 488.978878 418.611624 
L 489.313114 417.590502 
L 489.64735 417.52157 
L 489.981586 416.964276 
L 490.315822 417.287904 
L 490.650058 418.519326 
L 490.984294 418.189856 
L 491.31853 418.311363 
L 491.652766 417.572977 
L 491.987002 417.407074 
L 492.321238 417.714345 
L 492.655474 417.515729 
L 492.98971 416.678035 
L 493.323946 417.083446 
L 493.658182 418.177005 
L 493.992418 418.506474 
L 494.326654 418.531009 
L 494.66089 417.374361 
L 494.995126 419.437635 
L 495.329362 418.897865 
L 495.663598 418.840617 
L 495.997834 417.290241 
L 496.33207 418.335898 
L 496.666306 418.717942 
L 497.000542 418.737804 
L 497.334778 417.530917 
L 497.669014 416.759818 
L 498.00325 418.507642 
L 498.337485 419.061432 
L 498.671721 418.728457 
L 499.005957 418.050825 
L 499.340193 417.770425 
L 499.674429 419.631578 
L 500.677137 416.063492 
L 501.011373 416.286644 
L 501.345609 415.42091 
L 501.679845 415.16154 
L 502.014081 414.06214 
L 502.682553 415.507366 
L 503.016789 415.244492 
L 503.351025 413.896237 
L 503.685261 413.534054 
L 504.019497 413.986198 
L 504.353733 413.53639 
L 505.022205 411.511671 
L 505.356441 411.609811 
L 505.690677 413.001294 
L 506.024913 413.156683 
L 506.693385 411.891379 
L 507.027621 411.816606 
L 507.361857 412.165937 
L 508.030329 410.684492 
L 508.364565 411.926429 
L 508.698801 412.6543 
L 509.367273 410.658789 
L 509.701509 409.697252 
L 510.035745 410.998774 
L 510.704217 411.328243 
L 511.038453 410.941525 
L 511.372689 410.95204 
L 511.706925 412.065461 
L 512.041161 412.087659 
L 512.375397 411.858666 
L 512.709632 410.529104 
L 513.043868 411.995361 
L 513.71234 411.878528 
L 514.046576 411.195053 
L 514.380812 412.329504 
L 514.715048 412.608735 
L 515.049284 412.733746 
L 515.38352 411.297867 
L 515.717756 410.927505 
L 516.386228 411.488305 
L 517.0547 409.967137 
L 517.388936 410.318805 
L 517.723172 412.543308 
L 518.057408 411.926429 
L 518.391644 412.051441 
L 518.72588 411.405353 
L 519.060116 412.778143 
L 519.394352 412.760618 
L 519.728588 412.290949 
L 520.062824 411.292025 
L 520.39706 412.19865 
L 520.731296 412.165937 
L 521.065532 412.526952 
L 521.399768 411.303708 
L 521.734004 411.033824 
L 522.06824 410.284923 
L 522.402476 411.557236 
L 522.736712 410.397083 
L 523.070948 409.745154 
L 523.405184 408.824508 
L 523.73942 410.710196 
L 524.407892 409.81058 
L 524.742128 407.340727 
L 525.076364 410.080465 
L 525.4106 410.176268 
L 525.744836 410.655284 
L 526.079072 410.318805 
L 526.413308 408.40274 
L 527.081779 407.385123 
L 527.416015 404.931626 
L 528.084487 411.209073 
L 528.418723 411.969657 
L 528.752959 411.18337 
L 529.421431 403.834563 
L 530.089903 411.160003 
L 530.424139 411.061864 
L 530.758375 410.460173 
L 531.092611 411.828289 
L 531.426847 409.270811 
L 531.761083 407.834931 
L 532.095319 407.570888 
L 532.429555 406.099958 
L 532.763791 407.792871 
L 533.098027 407.680711 
L 533.432263 407.334885 
L 533.766499 406.16188 
L 534.100735 406.702817 
L 534.434971 406.802126 
L 535.103443 406.567291 
L 535.437679 404.672257 
L 535.771915 406.771749 
L 536.106151 406.639728 
L 536.440387 406.824324 
L 536.774623 405.76231 
L 537.108859 406.263525 
L 537.443095 407.103555 
L 537.777331 406.866384 
L 538.445803 405.312503 
L 538.780039 406.518221 
L 539.114275 406.167721 
L 539.448511 406.099958 
L 539.782747 404.96434 
L 540.116983 406.00766 
L 540.451219 407.472748 
L 540.785455 407.034624 
L 541.119691 407.133932 
L 541.453926 406.178236 
L 541.788162 406.422418 
L 542.122398 405.499436 
L 542.456634 405.62211 
L 542.79087 404.991211 
L 543.125106 406.855869 
L 543.459342 407.330212 
L 543.793578 407.514808 
L 544.127814 407.568551 
L 544.46205 404.958498 
L 544.796286 407.160804 
L 545.130522 407.22623 
L 545.464758 407.638651 
L 545.798994 406.378021 
L 546.13323 406.0357 
L 546.467466 406.234316 
L 546.801702 406.034532 
L 547.135938 404.903586 
L 547.470174 403.08683 
L 547.80441 405.229551 
L 548.138646 403.735255 
L 548.472882 403.592718 
L 548.807118 402.841481 
L 549.141354 403.159267 
L 549.47559 403.833394 
L 549.809826 403.938544 
L 550.144062 401.041081 
L 550.478298 401.162588 
L 550.812534 403.158099 
L 551.14677 402.774886 
L 551.815242 401.03524 
L 552.149478 399.524587 
L 552.483714 401.432472 
L 552.81795 400.583095 
L 553.152186 400.608799 
L 553.486422 399.890274 
L 553.820658 401.7561 
L 554.154894 401.030566 
L 554.48913 400.975655 
L 554.823366 398.370275 
L 555.491838 398.959114 
L 555.826074 398.809567 
L 556.160309 397.180913 
L 556.494545 396.708907 
L 556.828781 398.315363 
L 557.163017 398.636654 
L 557.831489 396.960098 
L 558.165725 397.090951 
L 558.499961 399.384387 
L 559.168433 398.689229 
L 559.502669 396.885325 
L 559.836905 397.687969 
L 560.171141 397.462481 
L 560.505377 396.866632 
L 560.839613 396.025433 
L 561.508085 398.683388 
L 561.842321 398.620298 
L 562.510793 397.158715 
L 562.845029 398.006923 
L 563.179265 401.11936 
L 563.847737 399.525755 
L 564.181973 401.771289 
L 564.516209 398.348076 
L 564.850445 398.235917 
L 565.184681 398.468415 
L 565.518917 397.238161 
L 566.521625 397.351489 
L 566.855861 396.67152 
L 567.190097 397.374856 
L 567.524333 395.858361 
L 567.858569 395.895748 
L 568.192805 396.472904 
L 568.527041 395.490337 
L 568.861277 397.975379 
L 569.195513 397.990567 
L 569.529749 397.617869 
L 570.198221 396.063988 
L 570.532456 396.463557 
L 570.866692 399.175255 
L 571.200928 397.877239 
L 571.535164 397.758069 
L 571.8694 397.822327 
L 572.203636 398.152965 
L 573.206344 395.054549 
L 573.54058 396.040621 
L 573.874816 394.135072 
L 574.209052 393.921267 
L 574.543288 392.645449 
L 574.877524 394.44468 
L 575.21176 394.202835 
L 575.545996 394.36056 
L 575.880232 393.349953 
L 576.548704 392.676994 
L 577.217176 392.66531 
L 577.551412 391.631337 
L 577.885648 393.223773 
L 578.219884 393.362804 
L 578.55412 393.267001 
L 578.888356 391.430384 
L 579.222592 391.562405 
L 579.556828 392.495902 
L 580.2253 392.012213 
L 580.559536 390.811168 
L 580.893772 393.483143 
L 581.228008 393.542727 
L 581.89648 391.887201 
L 582.230716 391.971321 
L 582.564952 393.047355 
L 582.899188 392.681667 
L 583.233424 392.729569 
L 583.56766 391.602128 
L 583.901896 391.589277 
L 584.236132 391.75518 
L 584.570368 392.056609 
L 584.904603 391.175687 
L 585.238839 391.775041 
L 585.573075 392.054273 
L 585.907311 391.800745 
L 586.241547 391.80425 
L 586.575783 390.519085 
L 586.910019 392.275087 
L 587.578491 391.891875 
L 587.912727 390.498055 
L 588.581199 392.483051 
L 588.915435 392.155918 
L 589.249671 392.377901 
L 589.583907 391.414027 
L 589.918143 393.428231 
L 590.252379 393.464449 
L 590.586615 393.298546 
L 590.920851 392.103343 
L 591.255087 393.703957 
L 591.589323 393.828969 
L 591.923559 392.87561 
L 592.257795 392.691014 
L 592.592031 390.790138 
L 592.926267 390.891783 
L 593.594739 389.821591 
L 593.928975 388.77827 
L 594.263211 389.286495 
L 594.931683 388.696487 
L 595.265919 388.88342 
L 595.600155 387.78402 
L 595.934391 389.869492 
L 596.268627 389.802897 
L 596.602863 389.078532 
L 596.937099 387.95927 
L 597.271335 387.660177 
L 597.605571 386.54442 
L 597.939807 386.072414 
L 598.608279 383.979931 
L 598.942515 385.926372 
L 599.27675 386.269862 
L 599.610986 385.995304 
L 599.945222 385.131907 
L 600.279458 385.190323 
L 600.613694 384.276688 
L 600.94793 384.363144 
L 601.282166 384.568771 
L 601.616402 383.710047 
L 601.950638 385.480069 
L 602.61911 385.384266 
L 602.953346 383.719393 
L 603.621818 384.80711 
L 603.956054 384.746357 
L 604.29029 384.566434 
L 604.624526 383.684343 
L 604.958762 385.557179 
L 605.292998 385.671676 
L 605.627234 385.98362 
L 605.96147 384.499839 
L 606.295706 384.86319 
L 606.629942 387.002406 
L 606.964178 385.895996 
L 607.298414 385.273275 
L 607.63265 384.324589 
L 607.966886 386.161207 
L 608.301122 386.412398 
L 608.635358 385.886649 
L 609.30383 383.629432 
L 609.638066 385.657656 
L 610.306538 384.586296 
L 610.640774 383.909831 
L 610.97501 384.615504 
L 611.309246 384.031338 
L 611.643482 382.880531 
L 611.977718 382.824451 
L 612.311954 383.145742 
L 612.64619 384.429739 
L 612.980426 385.119055 
L 613.314662 384.943805 
L 613.648897 383.78482 
L 613.983133 389.548201 
L 614.317369 390.099654 
L 614.651605 389.910384 
L 614.985841 385.237056 
L 615.320077 385.543159 
L 615.654313 387.127417 
L 615.988549 386.637886 
L 616.322785 389.392813 
L 616.657021 388.212798 
L 616.991257 388.009508 
L 617.325493 384.323421 
L 617.993965 380.546204 
L 618.662437 381.825527 
L 618.996673 381.075458 
L 619.330909 381.080132 
L 619.330909 381.080132 
" style="fill:none;stroke:#1f77b4;stroke-linecap:square;stroke-width:1.5;"/>
   </g>
   <g id="patch_3">
    <path d="M 108 448.56 
L 108 60.48 
" style="fill:none;stroke:#000000;stroke-linecap:square;stroke-linejoin:miter;stroke-width:0.8;"/>
   </g>
   <g id="patch_4">
    <path d="M 643.68 448.56 
L 643.68 60.48 
" style="fill:none;stroke:#000000;stroke-linecap:square;stroke-linejoin:miter;stroke-width:0.8;"/>
   </g>
   <g id="patch_5">
    <path d="M 108 448.56 
L 643.68 448.56 
" style="fill:none;stroke:#000000;stroke-linecap:square;stroke-linejoin:miter;stroke-width:0.8;"/>
   </g>
   <g id="patch_6">
    <path d="M 108 60.48 
L 643.68 60.48 
" style="fill:none;stroke:#000000;stroke-linecap:square;stroke-linejoin:miter;stroke-width:0.8;"/>
   </g>
   <g id="text_31">
    <!-- unikernel_allocpool - vmstat -->
    <g transform="translate(270.310313 54.48)scale(0.15 -0.15)">
     <defs>
      <path d="M 8.5 21.578125 
L 8.5 54.6875 
L 17.484375 54.6875 
L 17.484375 21.921875 
Q 17.484375 14.15625 20.5 10.265625 
Q 23.53125 6.390625 29.59375 6.390625 
Q 36.859375 6.390625 41.078125 11.03125 
Q 45.3125 15.671875 45.3125 23.6875 
L 45.3125 54.6875 
L 54.296875 54.6875 
L 54.296875 0 
L 45.3125 0 
L 45.3125 8.40625 
Q 42.046875 3.421875 37.71875 1 
Q 33.40625 -1.421875 27.6875 -1.421875 
Q 18.265625 -1.421875 13.375 4.4375 
Q 8.5 10.296875 8.5 21.578125 
z
M 31.109375 56 
z
" id="DejaVuSans-117"/>
      <path d="M 54.890625 33.015625 
L 54.890625 0 
L 45.90625 0 
L 45.90625 32.71875 
Q 45.90625 40.484375 42.875 44.328125 
Q 39.84375 48.1875 33.796875 48.1875 
Q 26.515625 48.1875 22.3125 43.546875 
Q 18.109375 38.921875 18.109375 30.90625 
L 18.109375 0 
L 9.078125 0 
L 9.078125 54.6875 
L 18.109375 54.6875 
L 18.109375 46.1875 
Q 21.34375 51.125 25.703125 53.5625 
Q 30.078125 56 35.796875 56 
Q 45.21875 56 50.046875 50.171875 
Q 54.890625 44.34375 54.890625 33.015625 
z
" id="DejaVuSans-110"/>
      <path d="M 9.078125 75.984375 
L 18.109375 75.984375 
L 18.109375 31.109375 
L 44.921875 54.6875 
L 56.390625 54.6875 
L 27.390625 29.109375 
L 57.625 0 
L 45.90625 0 
L 18.109375 26.703125 
L 18.109375 0 
L 9.078125 0 
z
" id="DejaVuSans-107"/>
      <path d="M 41.109375 46.296875 
Q 39.59375 47.171875 37.8125 47.578125 
Q 36.03125 48 33.890625 48 
Q 26.265625 48 22.1875 43.046875 
Q 18.109375 38.09375 18.109375 28.8125 
L 18.109375 0 
L 9.078125 0 
L 9.078125 54.6875 
L 18.109375 54.6875 
L 18.109375 46.1875 
Q 20.953125 51.171875 25.484375 53.578125 
Q 30.03125 56 36.53125 56 
Q 37.453125 56 38.578125 55.875 
Q 39.703125 55.765625 41.0625 55.515625 
z
" id="DejaVuSans-114"/>
      <path d="M 9.421875 75.984375 
L 18.40625 75.984375 
L 18.40625 0 
L 9.421875 0 
z
" id="DejaVuSans-108"/>
      <path d="M 50.984375 -16.609375 
L 50.984375 -23.578125 
L -0.984375 -23.578125 
L -0.984375 -16.609375 
z
" id="DejaVuSans-95"/>
      <path d="M 30.609375 48.390625 
Q 23.390625 48.390625 19.1875 42.75 
Q 14.984375 37.109375 14.984375 27.296875 
Q 14.984375 17.484375 19.15625 11.84375 
Q 23.34375 6.203125 30.609375 6.203125 
Q 37.796875 6.203125 41.984375 11.859375 
Q 46.1875 17.53125 46.1875 27.296875 
Q 46.1875 37.015625 41.984375 42.703125 
Q 37.796875 48.390625 30.609375 48.390625 
z
M 30.609375 56 
Q 42.328125 56 49.015625 48.375 
Q 55.71875 40.765625 55.71875 27.296875 
Q 55.71875 13.875 49.015625 6.21875 
Q 42.328125 -1.421875 30.609375 -1.421875 
Q 18.84375 -1.421875 12.171875 6.21875 
Q 5.515625 13.875 5.515625 27.296875 
Q 5.515625 40.765625 12.171875 48.375 
Q 18.84375 56 30.609375 56 
z
" id="DejaVuSans-111"/>
      <path d="M 48.78125 52.59375 
L 48.78125 44.1875 
Q 44.96875 46.296875 41.140625 47.34375 
Q 37.3125 48.390625 33.40625 48.390625 
Q 24.65625 48.390625 19.8125 42.84375 
Q 14.984375 37.3125 14.984375 27.296875 
Q 14.984375 17.28125 19.8125 11.734375 
Q 24.65625 6.203125 33.40625 6.203125 
Q 37.3125 6.203125 41.140625 7.25 
Q 44.96875 8.296875 48.78125 10.40625 
L 48.78125 2.09375 
Q 45.015625 0.34375 40.984375 -0.53125 
Q 36.96875 -1.421875 32.421875 -1.421875 
Q 20.0625 -1.421875 12.78125 6.34375 
Q 5.515625 14.109375 5.515625 27.296875 
Q 5.515625 40.671875 12.859375 48.328125 
Q 20.21875 56 33.015625 56 
Q 37.15625 56 41.109375 55.140625 
Q 45.0625 54.296875 48.78125 52.59375 
z
" id="DejaVuSans-99"/>
      <path id="DejaVuSans-32"/>
      <path d="M 4.890625 31.390625 
L 31.203125 31.390625 
L 31.203125 23.390625 
L 4.890625 23.390625 
z
" id="DejaVuSans-45"/>
      <path d="M 2.984375 54.6875 
L 12.5 54.6875 
L 29.59375 8.796875 
L 46.6875 54.6875 
L 56.203125 54.6875 
L 35.6875 0 
L 23.484375 0 
z
" id="DejaVuSans-118"/>
     </defs>
     <use xlink:href="#DejaVuSans-117"/>
     <use x="63.378906" xlink:href="#DejaVuSans-110"/>
     <use x="126.757812" xlink:href="#DejaVuSans-105"/>
     <use x="154.541016" xlink:href="#DejaVuSans-107"/>
     <use x="208.826172" xlink:href="#DejaVuSans-101"/>
     <use x="270.349609" xlink:href="#DejaVuSans-114"/>
     <use x="309.712891" xlink:href="#DejaVuSans-110"/>
     <use x="373.091797" xlink:href="#DejaVuSans-101"/>
     <use x="434.615234" xlink:href="#DejaVuSans-108"/>
     <use x="462.398438" xlink:href="#DejaVuSans-95"/>
     <use x="512.398438" xlink:href="#DejaVuSans-97"/>
     <use x="573.677734" xlink:href="#DejaVuSans-108"/>
     <use x="601.460938" xlink:href="#DejaVuSans-108"/>
     <use x="629.244141" xlink:href="#DejaVuSans-111"/>
     <use x="690.425781" xlink:href="#DejaVuSans-99"/>
     <use x="745.40625" xlink:href="#DejaVuSans-112"/>
     <use x="808.882812" xlink:href="#DejaVuSans-111"/>
     <use x="870.064453" xlink:href="#DejaVuSans-111"/>
     <use x="931.246094" xlink:href="#DejaVuSans-108"/>
     <use x="959.029297" xlink:href="#DejaVuSans-32"/>
     <use x="990.816406" xlink:href="#DejaVuSans-45"/>
     <use x="1026.900391" xlink:href="#DejaVuSans-32"/>
     <use x="1058.6875" xlink:href="#DejaVuSans-118"/>
     <use x="1117.867188" xlink:href="#DejaVuSans-109"/>
     <use x="1215.279297" xlink:href="#DejaVuSans-115"/>
     <use x="1267.378906" xlink:href="#DejaVuSans-116"/>
     <use x="1306.587891" xlink:href="#DejaVuSans-97"/>
     <use x="1367.867188" xlink:href="#DejaVuSans-116"/>
    </g>
   </g>
   <g id="legend_1">
    <g id="patch_7">
     <path d="M 650.68 258.52 
L 654.68 258.52 
Q 656.68 258.52 656.68 256.52 
L 656.68 252.52 
Q 656.68 250.52 654.68 250.52 
L 650.68 250.52 
Q 648.68 250.52 648.68 252.52 
L 648.68 256.52 
Q 648.68 258.52 650.68 258.52 
z
" style="fill:#ffffff;opacity:0.8;stroke:#cccccc;stroke-linejoin:miter;"/>
    </g>
   </g>
  </g>
 </g>
 <defs>
  <clipPath id="pd470300d48">
   <rect height="388.08" width="535.68" x="108" y="60.48"/>
  </clipPath>
 </defs>
</svg>
