<?xml version="1.0" encoding="utf-8" standalone="no"?>
<!DOCTYPE svg PUBLIC "-//W3C//DTD SVG 1.1//EN"
  "http://www.w3.org/Graphics/SVG/1.1/DTD/svg11.dtd">
<!-- Created with matplotlib (https://matplotlib.org/) -->
<svg height="504pt" version="1.1" viewBox="0 0 864 504" width="864pt" xmlns="http://www.w3.org/2000/svg" xmlns:xlink="http://www.w3.org/1999/xlink">
 <metadata>
  <rdf:RDF xmlns:cc="http://creativecommons.org/ns#" xmlns:dc="http://purl.org/dc/elements/1.1/" xmlns:rdf="http://www.w3.org/1999/02/22-rdf-syntax-ns#">
   <cc:Work>
    <dc:type rdf:resource="http://purl.org/dc/dcmitype/StillImage"/>
    <dc:date>2022-05-29T17:18:34.901288</dc:date>
    <dc:format>image/svg+xml</dc:format>
    <dc:creator>
     <cc:Agent>
      <dc:title>Matplotlib v3.3.4, https://matplotlib.org/</dc:title>
     </cc:Agent>
    </dc:creator>
   </cc:Work>
  </rdf:RDF>
 </metadata>
 <defs>
  <style type="text/css">*{stroke-linecap:butt;stroke-linejoin:round;}</style>
 </defs>
 <g id="figure_1">
  <g id="patch_1">
   <path d="M 0 504 
L 864 504 
L 864 0 
L 0 0 
z
" style="fill:#ffffff;"/>
  </g>
  <g id="axes_1">
   <g id="patch_2">
    <path d="M 108 448.56 
L 643.68 448.56 
L 643.68 60.48 
L 108 60.48 
z
" style="fill:#ffffff;"/>
   </g>
   <g id="matplotlib.axis_1">
    <g id="xtick_1">
     <g id="line2d_1">
      <defs>
       <path d="M 0 0 
L 0 3.5 
" id="mb567bae6b3" style="stroke:#000000;stroke-width:0.8;"/>
      </defs>
      <g>
       <use style="stroke:#000000;stroke-width:0.8;" x="132.349091" xlink:href="#mb567bae6b3" y="448.56"/>
      </g>
     </g>
     <g id="text_1">
      <!-- 22:38:49 -->
      <g transform="translate(135.108466 500.4725)rotate(-90)scale(0.1 -0.1)">
       <defs>
        <path d="M 19.1875 8.296875 
L 53.609375 8.296875 
L 53.609375 0 
L 7.328125 0 
L 7.328125 8.296875 
Q 12.9375 14.109375 22.625 23.890625 
Q 32.328125 33.6875 34.8125 36.53125 
Q 39.546875 41.84375 41.421875 45.53125 
Q 43.3125 49.21875 43.3125 52.78125 
Q 43.3125 58.59375 39.234375 62.25 
Q 35.15625 65.921875 28.609375 65.921875 
Q 23.96875 65.921875 18.8125 64.3125 
Q 13.671875 62.703125 7.8125 59.421875 
L 7.8125 69.390625 
Q 13.765625 71.78125 18.9375 73 
Q 24.125 74.21875 28.421875 74.21875 
Q 39.75 74.21875 46.484375 68.546875 
Q 53.21875 62.890625 53.21875 53.421875 
Q 53.21875 48.921875 51.53125 44.890625 
Q 49.859375 40.875 45.40625 35.40625 
Q 44.1875 33.984375 37.640625 27.21875 
Q 31.109375 20.453125 19.1875 8.296875 
z
" id="DejaVuSans-50"/>
        <path d="M 11.71875 12.40625 
L 22.015625 12.40625 
L 22.015625 0 
L 11.71875 0 
z
M 11.71875 51.703125 
L 22.015625 51.703125 
L 22.015625 39.3125 
L 11.71875 39.3125 
z
" id="DejaVuSans-58"/>
        <path d="M 40.578125 39.3125 
Q 47.65625 37.796875 51.625 33 
Q 55.609375 28.21875 55.609375 21.1875 
Q 55.609375 10.40625 48.1875 4.484375 
Q 40.765625 -1.421875 27.09375 -1.421875 
Q 22.515625 -1.421875 17.65625 -0.515625 
Q 12.796875 0.390625 7.625 2.203125 
L 7.625 11.71875 
Q 11.71875 9.328125 16.59375 8.109375 
Q 21.484375 6.890625 26.8125 6.890625 
Q 36.078125 6.890625 40.9375 10.546875 
Q 45.796875 14.203125 45.796875 21.1875 
Q 45.796875 27.640625 41.28125 31.265625 
Q 36.765625 34.90625 28.71875 34.90625 
L 20.21875 34.90625 
L 20.21875 43.015625 
L 29.109375 43.015625 
Q 36.375 43.015625 40.234375 45.921875 
Q 44.09375 48.828125 44.09375 54.296875 
Q 44.09375 59.90625 40.109375 62.90625 
Q 36.140625 65.921875 28.71875 65.921875 
Q 24.65625 65.921875 20.015625 65.03125 
Q 15.375 64.15625 9.8125 62.3125 
L 9.8125 71.09375 
Q 15.4375 72.65625 20.34375 73.4375 
Q 25.25 74.21875 29.59375 74.21875 
Q 40.828125 74.21875 47.359375 69.109375 
Q 53.90625 64.015625 53.90625 55.328125 
Q 53.90625 49.265625 50.4375 45.09375 
Q 46.96875 40.921875 40.578125 39.3125 
z
" id="DejaVuSans-51"/>
        <path d="M 31.78125 34.625 
Q 24.75 34.625 20.71875 30.859375 
Q 16.703125 27.09375 16.703125 20.515625 
Q 16.703125 13.921875 20.71875 10.15625 
Q 24.75 6.390625 31.78125 6.390625 
Q 38.8125 6.390625 42.859375 10.171875 
Q 46.921875 13.96875 46.921875 20.515625 
Q 46.921875 27.09375 42.890625 30.859375 
Q 38.875 34.625 31.78125 34.625 
z
M 21.921875 38.8125 
Q 15.578125 40.375 12.03125 44.71875 
Q 8.5 49.078125 8.5 55.328125 
Q 8.5 64.0625 14.71875 69.140625 
Q 20.953125 74.21875 31.78125 74.21875 
Q 42.671875 74.21875 48.875 69.140625 
Q 55.078125 64.0625 55.078125 55.328125 
Q 55.078125 49.078125 51.53125 44.71875 
Q 48 40.375 41.703125 38.8125 
Q 48.828125 37.15625 52.796875 32.3125 
Q 56.78125 27.484375 56.78125 20.515625 
Q 56.78125 9.90625 50.3125 4.234375 
Q 43.84375 -1.421875 31.78125 -1.421875 
Q 19.734375 -1.421875 13.25 4.234375 
Q 6.78125 9.90625 6.78125 20.515625 
Q 6.78125 27.484375 10.78125 32.3125 
Q 14.796875 37.15625 21.921875 38.8125 
z
M 18.3125 54.390625 
Q 18.3125 48.734375 21.84375 45.5625 
Q 25.390625 42.390625 31.78125 42.390625 
Q 38.140625 42.390625 41.71875 45.5625 
Q 45.3125 48.734375 45.3125 54.390625 
Q 45.3125 60.0625 41.71875 63.234375 
Q 38.140625 66.40625 31.78125 66.40625 
Q 25.390625 66.40625 21.84375 63.234375 
Q 18.3125 60.0625 18.3125 54.390625 
z
" id="DejaVuSans-56"/>
        <path d="M 37.796875 64.3125 
L 12.890625 25.390625 
L 37.796875 25.390625 
z
M 35.203125 72.90625 
L 47.609375 72.90625 
L 47.609375 25.390625 
L 58.015625 25.390625 
L 58.015625 17.1875 
L 47.609375 17.1875 
L 47.609375 0 
L 37.796875 0 
L 37.796875 17.1875 
L 4.890625 17.1875 
L 4.890625 26.703125 
z
" id="DejaVuSans-52"/>
        <path d="M 10.984375 1.515625 
L 10.984375 10.5 
Q 14.703125 8.734375 18.5 7.8125 
Q 22.3125 6.890625 25.984375 6.890625 
Q 35.75 6.890625 40.890625 13.453125 
Q 46.046875 20.015625 46.78125 33.40625 
Q 43.953125 29.203125 39.59375 26.953125 
Q 35.25 24.703125 29.984375 24.703125 
Q 19.046875 24.703125 12.671875 31.3125 
Q 6.296875 37.9375 6.296875 49.421875 
Q 6.296875 60.640625 12.9375 67.421875 
Q 19.578125 74.21875 30.609375 74.21875 
Q 43.265625 74.21875 49.921875 64.515625 
Q 56.59375 54.828125 56.59375 36.375 
Q 56.59375 19.140625 48.40625 8.859375 
Q 40.234375 -1.421875 26.421875 -1.421875 
Q 22.703125 -1.421875 18.890625 -0.6875 
Q 15.09375 0.046875 10.984375 1.515625 
z
M 30.609375 32.421875 
Q 37.25 32.421875 41.125 36.953125 
Q 45.015625 41.5 45.015625 49.421875 
Q 45.015625 57.28125 41.125 61.84375 
Q 37.25 66.40625 30.609375 66.40625 
Q 23.96875 66.40625 20.09375 61.84375 
Q 16.21875 57.28125 16.21875 49.421875 
Q 16.21875 41.5 20.09375 36.953125 
Q 23.96875 32.421875 30.609375 32.421875 
z
" id="DejaVuSans-57"/>
       </defs>
       <use xlink:href="#DejaVuSans-50"/>
       <use x="63.623047" xlink:href="#DejaVuSans-50"/>
       <use x="127.246094" xlink:href="#DejaVuSans-58"/>
       <use x="160.9375" xlink:href="#DejaVuSans-51"/>
       <use x="224.560547" xlink:href="#DejaVuSans-56"/>
       <use x="288.183594" xlink:href="#DejaVuSans-58"/>
       <use x="321.875" xlink:href="#DejaVuSans-52"/>
       <use x="385.498047" xlink:href="#DejaVuSans-57"/>
      </g>
     </g>
    </g>
    <g id="xtick_2">
     <g id="line2d_2">
      <g>
       <use style="stroke:#000000;stroke-width:0.8;" x="156.463734" xlink:href="#mb567bae6b3" y="448.56"/>
      </g>
     </g>
     <g id="text_2">
      <!-- 22:40:13 -->
      <g transform="translate(159.223109 500.4725)rotate(-90)scale(0.1 -0.1)">
       <defs>
        <path d="M 31.78125 66.40625 
Q 24.171875 66.40625 20.328125 58.90625 
Q 16.5 51.421875 16.5 36.375 
Q 16.5 21.390625 20.328125 13.890625 
Q 24.171875 6.390625 31.78125 6.390625 
Q 39.453125 6.390625 43.28125 13.890625 
Q 47.125 21.390625 47.125 36.375 
Q 47.125 51.421875 43.28125 58.90625 
Q 39.453125 66.40625 31.78125 66.40625 
z
M 31.78125 74.21875 
Q 44.046875 74.21875 50.515625 64.515625 
Q 56.984375 54.828125 56.984375 36.375 
Q 56.984375 17.96875 50.515625 8.265625 
Q 44.046875 -1.421875 31.78125 -1.421875 
Q 19.53125 -1.421875 13.0625 8.265625 
Q 6.59375 17.96875 6.59375 36.375 
Q 6.59375 54.828125 13.0625 64.515625 
Q 19.53125 74.21875 31.78125 74.21875 
z
" id="DejaVuSans-48"/>
        <path d="M 12.40625 8.296875 
L 28.515625 8.296875 
L 28.515625 63.921875 
L 10.984375 60.40625 
L 10.984375 69.390625 
L 28.421875 72.90625 
L 38.28125 72.90625 
L 38.28125 8.296875 
L 54.390625 8.296875 
L 54.390625 0 
L 12.40625 0 
z
" id="DejaVuSans-49"/>
       </defs>
       <use xlink:href="#DejaVuSans-50"/>
       <use x="63.623047" xlink:href="#DejaVuSans-50"/>
       <use x="127.246094" xlink:href="#DejaVuSans-58"/>
       <use x="160.9375" xlink:href="#DejaVuSans-52"/>
       <use x="224.560547" xlink:href="#DejaVuSans-48"/>
       <use x="288.183594" xlink:href="#DejaVuSans-58"/>
       <use x="321.875" xlink:href="#DejaVuSans-49"/>
       <use x="385.498047" xlink:href="#DejaVuSans-51"/>
      </g>
     </g>
    </g>
    <g id="xtick_3">
     <g id="line2d_3">
      <g>
       <use style="stroke:#000000;stroke-width:0.8;" x="180.578377" xlink:href="#mb567bae6b3" y="448.56"/>
      </g>
     </g>
     <g id="text_3">
      <!-- 22:41:37 -->
      <g transform="translate(183.337752 500.4725)rotate(-90)scale(0.1 -0.1)">
       <defs>
        <path d="M 8.203125 72.90625 
L 55.078125 72.90625 
L 55.078125 68.703125 
L 28.609375 0 
L 18.3125 0 
L 43.21875 64.59375 
L 8.203125 64.59375 
z
" id="DejaVuSans-55"/>
       </defs>
       <use xlink:href="#DejaVuSans-50"/>
       <use x="63.623047" xlink:href="#DejaVuSans-50"/>
       <use x="127.246094" xlink:href="#DejaVuSans-58"/>
       <use x="160.9375" xlink:href="#DejaVuSans-52"/>
       <use x="224.560547" xlink:href="#DejaVuSans-49"/>
       <use x="288.183594" xlink:href="#DejaVuSans-58"/>
       <use x="321.875" xlink:href="#DejaVuSans-51"/>
       <use x="385.498047" xlink:href="#DejaVuSans-55"/>
      </g>
     </g>
    </g>
    <g id="xtick_4">
     <g id="line2d_4">
      <g>
       <use style="stroke:#000000;stroke-width:0.8;" x="204.69302" xlink:href="#mb567bae6b3" y="448.56"/>
      </g>
     </g>
     <g id="text_4">
      <!-- 22:43:01 -->
      <g transform="translate(207.452395 500.4725)rotate(-90)scale(0.1 -0.1)">
       <use xlink:href="#DejaVuSans-50"/>
       <use x="63.623047" xlink:href="#DejaVuSans-50"/>
       <use x="127.246094" xlink:href="#DejaVuSans-58"/>
       <use x="160.9375" xlink:href="#DejaVuSans-52"/>
       <use x="224.560547" xlink:href="#DejaVuSans-51"/>
       <use x="288.183594" xlink:href="#DejaVuSans-58"/>
       <use x="321.875" xlink:href="#DejaVuSans-48"/>
       <use x="385.498047" xlink:href="#DejaVuSans-49"/>
      </g>
     </g>
    </g>
    <g id="xtick_5">
     <g id="line2d_5">
      <g>
       <use style="stroke:#000000;stroke-width:0.8;" x="228.807663" xlink:href="#mb567bae6b3" y="448.56"/>
      </g>
     </g>
     <g id="text_5">
      <!-- 22:44:25 -->
      <g transform="translate(231.567038 500.4725)rotate(-90)scale(0.1 -0.1)">
       <defs>
        <path d="M 10.796875 72.90625 
L 49.515625 72.90625 
L 49.515625 64.59375 
L 19.828125 64.59375 
L 19.828125 46.734375 
Q 21.96875 47.46875 24.109375 47.828125 
Q 26.265625 48.1875 28.421875 48.1875 
Q 40.625 48.1875 47.75 41.5 
Q 54.890625 34.8125 54.890625 23.390625 
Q 54.890625 11.625 47.5625 5.09375 
Q 40.234375 -1.421875 26.90625 -1.421875 
Q 22.3125 -1.421875 17.546875 -0.640625 
Q 12.796875 0.140625 7.71875 1.703125 
L 7.71875 11.625 
Q 12.109375 9.234375 16.796875 8.0625 
Q 21.484375 6.890625 26.703125 6.890625 
Q 35.15625 6.890625 40.078125 11.328125 
Q 45.015625 15.765625 45.015625 23.390625 
Q 45.015625 31 40.078125 35.4375 
Q 35.15625 39.890625 26.703125 39.890625 
Q 22.75 39.890625 18.8125 39.015625 
Q 14.890625 38.140625 10.796875 36.28125 
z
" id="DejaVuSans-53"/>
       </defs>
       <use xlink:href="#DejaVuSans-50"/>
       <use x="63.623047" xlink:href="#DejaVuSans-50"/>
       <use x="127.246094" xlink:href="#DejaVuSans-58"/>
       <use x="160.9375" xlink:href="#DejaVuSans-52"/>
       <use x="224.560547" xlink:href="#DejaVuSans-52"/>
       <use x="288.183594" xlink:href="#DejaVuSans-58"/>
       <use x="321.875" xlink:href="#DejaVuSans-50"/>
       <use x="385.498047" xlink:href="#DejaVuSans-53"/>
      </g>
     </g>
    </g>
    <g id="xtick_6">
     <g id="line2d_6">
      <g>
       <use style="stroke:#000000;stroke-width:0.8;" x="252.922306" xlink:href="#mb567bae6b3" y="448.56"/>
      </g>
     </g>
     <g id="text_6">
      <!-- 22:45:49 -->
      <g transform="translate(255.681681 500.4725)rotate(-90)scale(0.1 -0.1)">
       <use xlink:href="#DejaVuSans-50"/>
       <use x="63.623047" xlink:href="#DejaVuSans-50"/>
       <use x="127.246094" xlink:href="#DejaVuSans-58"/>
       <use x="160.9375" xlink:href="#DejaVuSans-52"/>
       <use x="224.560547" xlink:href="#DejaVuSans-53"/>
       <use x="288.183594" xlink:href="#DejaVuSans-58"/>
       <use x="321.875" xlink:href="#DejaVuSans-52"/>
       <use x="385.498047" xlink:href="#DejaVuSans-57"/>
      </g>
     </g>
    </g>
    <g id="xtick_7">
     <g id="line2d_7">
      <g>
       <use style="stroke:#000000;stroke-width:0.8;" x="277.036949" xlink:href="#mb567bae6b3" y="448.56"/>
      </g>
     </g>
     <g id="text_7">
      <!-- 22:47:13 -->
      <g transform="translate(279.796324 500.4725)rotate(-90)scale(0.1 -0.1)">
       <use xlink:href="#DejaVuSans-50"/>
       <use x="63.623047" xlink:href="#DejaVuSans-50"/>
       <use x="127.246094" xlink:href="#DejaVuSans-58"/>
       <use x="160.9375" xlink:href="#DejaVuSans-52"/>
       <use x="224.560547" xlink:href="#DejaVuSans-55"/>
       <use x="288.183594" xlink:href="#DejaVuSans-58"/>
       <use x="321.875" xlink:href="#DejaVuSans-49"/>
       <use x="385.498047" xlink:href="#DejaVuSans-51"/>
      </g>
     </g>
    </g>
    <g id="xtick_8">
     <g id="line2d_8">
      <g>
       <use style="stroke:#000000;stroke-width:0.8;" x="301.151592" xlink:href="#mb567bae6b3" y="448.56"/>
      </g>
     </g>
     <g id="text_8">
      <!-- 22:48:37 -->
      <g transform="translate(303.910967 500.4725)rotate(-90)scale(0.1 -0.1)">
       <use xlink:href="#DejaVuSans-50"/>
       <use x="63.623047" xlink:href="#DejaVuSans-50"/>
       <use x="127.246094" xlink:href="#DejaVuSans-58"/>
       <use x="160.9375" xlink:href="#DejaVuSans-52"/>
       <use x="224.560547" xlink:href="#DejaVuSans-56"/>
       <use x="288.183594" xlink:href="#DejaVuSans-58"/>
       <use x="321.875" xlink:href="#DejaVuSans-51"/>
       <use x="385.498047" xlink:href="#DejaVuSans-55"/>
      </g>
     </g>
    </g>
    <g id="xtick_9">
     <g id="line2d_9">
      <g>
       <use style="stroke:#000000;stroke-width:0.8;" x="325.266235" xlink:href="#mb567bae6b3" y="448.56"/>
      </g>
     </g>
     <g id="text_9">
      <!-- 22:50:01 -->
      <g transform="translate(328.02561 500.4725)rotate(-90)scale(0.1 -0.1)">
       <use xlink:href="#DejaVuSans-50"/>
       <use x="63.623047" xlink:href="#DejaVuSans-50"/>
       <use x="127.246094" xlink:href="#DejaVuSans-58"/>
       <use x="160.9375" xlink:href="#DejaVuSans-53"/>
       <use x="224.560547" xlink:href="#DejaVuSans-48"/>
       <use x="288.183594" xlink:href="#DejaVuSans-58"/>
       <use x="321.875" xlink:href="#DejaVuSans-48"/>
       <use x="385.498047" xlink:href="#DejaVuSans-49"/>
      </g>
     </g>
    </g>
    <g id="xtick_10">
     <g id="line2d_10">
      <g>
       <use style="stroke:#000000;stroke-width:0.8;" x="349.380878" xlink:href="#mb567bae6b3" y="448.56"/>
      </g>
     </g>
     <g id="text_10">
      <!-- 22:51:25 -->
      <g transform="translate(352.140253 500.4725)rotate(-90)scale(0.1 -0.1)">
       <use xlink:href="#DejaVuSans-50"/>
       <use x="63.623047" xlink:href="#DejaVuSans-50"/>
       <use x="127.246094" xlink:href="#DejaVuSans-58"/>
       <use x="160.9375" xlink:href="#DejaVuSans-53"/>
       <use x="224.560547" xlink:href="#DejaVuSans-49"/>
       <use x="288.183594" xlink:href="#DejaVuSans-58"/>
       <use x="321.875" xlink:href="#DejaVuSans-50"/>
       <use x="385.498047" xlink:href="#DejaVuSans-53"/>
      </g>
     </g>
    </g>
    <g id="xtick_11">
     <g id="line2d_11">
      <g>
       <use style="stroke:#000000;stroke-width:0.8;" x="373.495521" xlink:href="#mb567bae6b3" y="448.56"/>
      </g>
     </g>
     <g id="text_11">
      <!-- 22:52:49 -->
      <g transform="translate(376.254896 500.4725)rotate(-90)scale(0.1 -0.1)">
       <use xlink:href="#DejaVuSans-50"/>
       <use x="63.623047" xlink:href="#DejaVuSans-50"/>
       <use x="127.246094" xlink:href="#DejaVuSans-58"/>
       <use x="160.9375" xlink:href="#DejaVuSans-53"/>
       <use x="224.560547" xlink:href="#DejaVuSans-50"/>
       <use x="288.183594" xlink:href="#DejaVuSans-58"/>
       <use x="321.875" xlink:href="#DejaVuSans-52"/>
       <use x="385.498047" xlink:href="#DejaVuSans-57"/>
      </g>
     </g>
    </g>
    <g id="xtick_12">
     <g id="line2d_12">
      <g>
       <use style="stroke:#000000;stroke-width:0.8;" x="397.610164" xlink:href="#mb567bae6b3" y="448.56"/>
      </g>
     </g>
     <g id="text_12">
      <!-- 22:54:13 -->
      <g transform="translate(400.369539 500.4725)rotate(-90)scale(0.1 -0.1)">
       <use xlink:href="#DejaVuSans-50"/>
       <use x="63.623047" xlink:href="#DejaVuSans-50"/>
       <use x="127.246094" xlink:href="#DejaVuSans-58"/>
       <use x="160.9375" xlink:href="#DejaVuSans-53"/>
       <use x="224.560547" xlink:href="#DejaVuSans-52"/>
       <use x="288.183594" xlink:href="#DejaVuSans-58"/>
       <use x="321.875" xlink:href="#DejaVuSans-49"/>
       <use x="385.498047" xlink:href="#DejaVuSans-51"/>
      </g>
     </g>
    </g>
    <g id="xtick_13">
     <g id="line2d_13">
      <g>
       <use style="stroke:#000000;stroke-width:0.8;" x="421.724807" xlink:href="#mb567bae6b3" y="448.56"/>
      </g>
     </g>
     <g id="text_13">
      <!-- 22:55:37 -->
      <g transform="translate(424.484182 500.4725)rotate(-90)scale(0.1 -0.1)">
       <use xlink:href="#DejaVuSans-50"/>
       <use x="63.623047" xlink:href="#DejaVuSans-50"/>
       <use x="127.246094" xlink:href="#DejaVuSans-58"/>
       <use x="160.9375" xlink:href="#DejaVuSans-53"/>
       <use x="224.560547" xlink:href="#DejaVuSans-53"/>
       <use x="288.183594" xlink:href="#DejaVuSans-58"/>
       <use x="321.875" xlink:href="#DejaVuSans-51"/>
       <use x="385.498047" xlink:href="#DejaVuSans-55"/>
      </g>
     </g>
    </g>
    <g id="xtick_14">
     <g id="line2d_14">
      <g>
       <use style="stroke:#000000;stroke-width:0.8;" x="445.83945" xlink:href="#mb567bae6b3" y="448.56"/>
      </g>
     </g>
     <g id="text_14">
      <!-- 22:57:01 -->
      <g transform="translate(448.598825 500.4725)rotate(-90)scale(0.1 -0.1)">
       <use xlink:href="#DejaVuSans-50"/>
       <use x="63.623047" xlink:href="#DejaVuSans-50"/>
       <use x="127.246094" xlink:href="#DejaVuSans-58"/>
       <use x="160.9375" xlink:href="#DejaVuSans-53"/>
       <use x="224.560547" xlink:href="#DejaVuSans-55"/>
       <use x="288.183594" xlink:href="#DejaVuSans-58"/>
       <use x="321.875" xlink:href="#DejaVuSans-48"/>
       <use x="385.498047" xlink:href="#DejaVuSans-49"/>
      </g>
     </g>
    </g>
    <g id="xtick_15">
     <g id="line2d_15">
      <g>
       <use style="stroke:#000000;stroke-width:0.8;" x="469.954093" xlink:href="#mb567bae6b3" y="448.56"/>
      </g>
     </g>
     <g id="text_15">
      <!-- 22:58:25 -->
      <g transform="translate(472.713468 500.4725)rotate(-90)scale(0.1 -0.1)">
       <use xlink:href="#DejaVuSans-50"/>
       <use x="63.623047" xlink:href="#DejaVuSans-50"/>
       <use x="127.246094" xlink:href="#DejaVuSans-58"/>
       <use x="160.9375" xlink:href="#DejaVuSans-53"/>
       <use x="224.560547" xlink:href="#DejaVuSans-56"/>
       <use x="288.183594" xlink:href="#DejaVuSans-58"/>
       <use x="321.875" xlink:href="#DejaVuSans-50"/>
       <use x="385.498047" xlink:href="#DejaVuSans-53"/>
      </g>
     </g>
    </g>
    <g id="xtick_16">
     <g id="line2d_16">
      <g>
       <use style="stroke:#000000;stroke-width:0.8;" x="494.068736" xlink:href="#mb567bae6b3" y="448.56"/>
      </g>
     </g>
     <g id="text_16">
      <!-- 22:59:49 -->
      <g transform="translate(496.828111 500.4725)rotate(-90)scale(0.1 -0.1)">
       <use xlink:href="#DejaVuSans-50"/>
       <use x="63.623047" xlink:href="#DejaVuSans-50"/>
       <use x="127.246094" xlink:href="#DejaVuSans-58"/>
       <use x="160.9375" xlink:href="#DejaVuSans-53"/>
       <use x="224.560547" xlink:href="#DejaVuSans-57"/>
       <use x="288.183594" xlink:href="#DejaVuSans-58"/>
       <use x="321.875" xlink:href="#DejaVuSans-52"/>
       <use x="385.498047" xlink:href="#DejaVuSans-57"/>
      </g>
     </g>
    </g>
    <g id="xtick_17">
     <g id="line2d_17">
      <g>
       <use style="stroke:#000000;stroke-width:0.8;" x="518.183379" xlink:href="#mb567bae6b3" y="448.56"/>
      </g>
     </g>
     <g id="text_17">
      <!-- 23:01:13 -->
      <g transform="translate(520.942754 500.4725)rotate(-90)scale(0.1 -0.1)">
       <use xlink:href="#DejaVuSans-50"/>
       <use x="63.623047" xlink:href="#DejaVuSans-51"/>
       <use x="127.246094" xlink:href="#DejaVuSans-58"/>
       <use x="160.9375" xlink:href="#DejaVuSans-48"/>
       <use x="224.560547" xlink:href="#DejaVuSans-49"/>
       <use x="288.183594" xlink:href="#DejaVuSans-58"/>
       <use x="321.875" xlink:href="#DejaVuSans-49"/>
       <use x="385.498047" xlink:href="#DejaVuSans-51"/>
      </g>
     </g>
    </g>
    <g id="xtick_18">
     <g id="line2d_18">
      <g>
       <use style="stroke:#000000;stroke-width:0.8;" x="542.298022" xlink:href="#mb567bae6b3" y="448.56"/>
      </g>
     </g>
     <g id="text_18">
      <!-- 23:02:37 -->
      <g transform="translate(545.057397 500.4725)rotate(-90)scale(0.1 -0.1)">
       <use xlink:href="#DejaVuSans-50"/>
       <use x="63.623047" xlink:href="#DejaVuSans-51"/>
       <use x="127.246094" xlink:href="#DejaVuSans-58"/>
       <use x="160.9375" xlink:href="#DejaVuSans-48"/>
       <use x="224.560547" xlink:href="#DejaVuSans-50"/>
       <use x="288.183594" xlink:href="#DejaVuSans-58"/>
       <use x="321.875" xlink:href="#DejaVuSans-51"/>
       <use x="385.498047" xlink:href="#DejaVuSans-55"/>
      </g>
     </g>
    </g>
    <g id="xtick_19">
     <g id="line2d_19">
      <g>
       <use style="stroke:#000000;stroke-width:0.8;" x="566.412665" xlink:href="#mb567bae6b3" y="448.56"/>
      </g>
     </g>
     <g id="text_19">
      <!-- 23:04:01 -->
      <g transform="translate(569.17204 500.4725)rotate(-90)scale(0.1 -0.1)">
       <use xlink:href="#DejaVuSans-50"/>
       <use x="63.623047" xlink:href="#DejaVuSans-51"/>
       <use x="127.246094" xlink:href="#DejaVuSans-58"/>
       <use x="160.9375" xlink:href="#DejaVuSans-48"/>
       <use x="224.560547" xlink:href="#DejaVuSans-52"/>
       <use x="288.183594" xlink:href="#DejaVuSans-58"/>
       <use x="321.875" xlink:href="#DejaVuSans-48"/>
       <use x="385.498047" xlink:href="#DejaVuSans-49"/>
      </g>
     </g>
    </g>
    <g id="xtick_20">
     <g id="line2d_20">
      <g>
       <use style="stroke:#000000;stroke-width:0.8;" x="590.527308" xlink:href="#mb567bae6b3" y="448.56"/>
      </g>
     </g>
     <g id="text_20">
      <!-- 23:05:25 -->
      <g transform="translate(593.286683 500.4725)rotate(-90)scale(0.1 -0.1)">
       <use xlink:href="#DejaVuSans-50"/>
       <use x="63.623047" xlink:href="#DejaVuSans-51"/>
       <use x="127.246094" xlink:href="#DejaVuSans-58"/>
       <use x="160.9375" xlink:href="#DejaVuSans-48"/>
       <use x="224.560547" xlink:href="#DejaVuSans-53"/>
       <use x="288.183594" xlink:href="#DejaVuSans-58"/>
       <use x="321.875" xlink:href="#DejaVuSans-50"/>
       <use x="385.498047" xlink:href="#DejaVuSans-53"/>
      </g>
     </g>
    </g>
    <g id="xtick_21">
     <g id="line2d_21">
      <g>
       <use style="stroke:#000000;stroke-width:0.8;" x="614.641951" xlink:href="#mb567bae6b3" y="448.56"/>
      </g>
     </g>
     <g id="text_21">
      <!-- 23:06:50 -->
      <g transform="translate(617.401326 500.4725)rotate(-90)scale(0.1 -0.1)">
       <defs>
        <path d="M 33.015625 40.375 
Q 26.375 40.375 22.484375 35.828125 
Q 18.609375 31.296875 18.609375 23.390625 
Q 18.609375 15.53125 22.484375 10.953125 
Q 26.375 6.390625 33.015625 6.390625 
Q 39.65625 6.390625 43.53125 10.953125 
Q 47.40625 15.53125 47.40625 23.390625 
Q 47.40625 31.296875 43.53125 35.828125 
Q 39.65625 40.375 33.015625 40.375 
z
M 52.59375 71.296875 
L 52.59375 62.3125 
Q 48.875 64.0625 45.09375 64.984375 
Q 41.3125 65.921875 37.59375 65.921875 
Q 27.828125 65.921875 22.671875 59.328125 
Q 17.53125 52.734375 16.796875 39.40625 
Q 19.671875 43.65625 24.015625 45.921875 
Q 28.375 48.1875 33.59375 48.1875 
Q 44.578125 48.1875 50.953125 41.515625 
Q 57.328125 34.859375 57.328125 23.390625 
Q 57.328125 12.15625 50.6875 5.359375 
Q 44.046875 -1.421875 33.015625 -1.421875 
Q 20.359375 -1.421875 13.671875 8.265625 
Q 6.984375 17.96875 6.984375 36.375 
Q 6.984375 53.65625 15.1875 63.9375 
Q 23.390625 74.21875 37.203125 74.21875 
Q 40.921875 74.21875 44.703125 73.484375 
Q 48.484375 72.75 52.59375 71.296875 
z
" id="DejaVuSans-54"/>
       </defs>
       <use xlink:href="#DejaVuSans-50"/>
       <use x="63.623047" xlink:href="#DejaVuSans-51"/>
       <use x="127.246094" xlink:href="#DejaVuSans-58"/>
       <use x="160.9375" xlink:href="#DejaVuSans-48"/>
       <use x="224.560547" xlink:href="#DejaVuSans-54"/>
       <use x="288.183594" xlink:href="#DejaVuSans-58"/>
       <use x="321.875" xlink:href="#DejaVuSans-53"/>
       <use x="385.498047" xlink:href="#DejaVuSans-48"/>
      </g>
     </g>
    </g>
    <g id="text_22">
     <!-- timestamp -->
     <g transform="translate(354.264375 510.55125)scale(0.08 -0.08)">
      <defs>
       <path d="M 18.3125 70.21875 
L 18.3125 54.6875 
L 36.8125 54.6875 
L 36.8125 47.703125 
L 18.3125 47.703125 
L 18.3125 18.015625 
Q 18.3125 11.328125 20.140625 9.421875 
Q 21.96875 7.515625 27.59375 7.515625 
L 36.8125 7.515625 
L 36.8125 0 
L 27.59375 0 
Q 17.1875 0 13.234375 3.875 
Q 9.28125 7.765625 9.28125 18.015625 
L 9.28125 47.703125 
L 2.6875 47.703125 
L 2.6875 54.6875 
L 9.28125 54.6875 
L 9.28125 70.21875 
z
" id="DejaVuSans-116"/>
       <path d="M 9.421875 54.6875 
L 18.40625 54.6875 
L 18.40625 0 
L 9.421875 0 
z
M 9.421875 75.984375 
L 18.40625 75.984375 
L 18.40625 64.59375 
L 9.421875 64.59375 
z
" id="DejaVuSans-105"/>
       <path d="M 52 44.1875 
Q 55.375 50.25 60.0625 53.125 
Q 64.75 56 71.09375 56 
Q 79.640625 56 84.28125 50.015625 
Q 88.921875 44.046875 88.921875 33.015625 
L 88.921875 0 
L 79.890625 0 
L 79.890625 32.71875 
Q 79.890625 40.578125 77.09375 44.375 
Q 74.3125 48.1875 68.609375 48.1875 
Q 61.625 48.1875 57.5625 43.546875 
Q 53.515625 38.921875 53.515625 30.90625 
L 53.515625 0 
L 44.484375 0 
L 44.484375 32.71875 
Q 44.484375 40.625 41.703125 44.40625 
Q 38.921875 48.1875 33.109375 48.1875 
Q 26.21875 48.1875 22.15625 43.53125 
Q 18.109375 38.875 18.109375 30.90625 
L 18.109375 0 
L 9.078125 0 
L 9.078125 54.6875 
L 18.109375 54.6875 
L 18.109375 46.1875 
Q 21.1875 51.21875 25.484375 53.609375 
Q 29.78125 56 35.6875 56 
Q 41.65625 56 45.828125 52.96875 
Q 50 49.953125 52 44.1875 
z
" id="DejaVuSans-109"/>
       <path d="M 56.203125 29.59375 
L 56.203125 25.203125 
L 14.890625 25.203125 
Q 15.484375 15.921875 20.484375 11.0625 
Q 25.484375 6.203125 34.421875 6.203125 
Q 39.59375 6.203125 44.453125 7.46875 
Q 49.3125 8.734375 54.109375 11.28125 
L 54.109375 2.78125 
Q 49.265625 0.734375 44.1875 -0.34375 
Q 39.109375 -1.421875 33.890625 -1.421875 
Q 20.796875 -1.421875 13.15625 6.1875 
Q 5.515625 13.8125 5.515625 26.8125 
Q 5.515625 40.234375 12.765625 48.109375 
Q 20.015625 56 32.328125 56 
Q 43.359375 56 49.78125 48.890625 
Q 56.203125 41.796875 56.203125 29.59375 
z
M 47.21875 32.234375 
Q 47.125 39.59375 43.09375 43.984375 
Q 39.0625 48.390625 32.421875 48.390625 
Q 24.90625 48.390625 20.390625 44.140625 
Q 15.875 39.890625 15.1875 32.171875 
z
" id="DejaVuSans-101"/>
       <path d="M 44.28125 53.078125 
L 44.28125 44.578125 
Q 40.484375 46.53125 36.375 47.5 
Q 32.28125 48.484375 27.875 48.484375 
Q 21.1875 48.484375 17.84375 46.4375 
Q 14.5 44.390625 14.5 40.28125 
Q 14.5 37.15625 16.890625 35.375 
Q 19.28125 33.59375 26.515625 31.984375 
L 29.59375 31.296875 
Q 39.15625 29.25 43.1875 25.515625 
Q 47.21875 21.78125 47.21875 15.09375 
Q 47.21875 7.46875 41.1875 3.015625 
Q 35.15625 -1.421875 24.609375 -1.421875 
Q 20.21875 -1.421875 15.453125 -0.5625 
Q 10.6875 0.296875 5.421875 2 
L 5.421875 11.28125 
Q 10.40625 8.6875 15.234375 7.390625 
Q 20.0625 6.109375 24.8125 6.109375 
Q 31.15625 6.109375 34.5625 8.28125 
Q 37.984375 10.453125 37.984375 14.40625 
Q 37.984375 18.0625 35.515625 20.015625 
Q 33.0625 21.96875 24.703125 23.78125 
L 21.578125 24.515625 
Q 13.234375 26.265625 9.515625 29.90625 
Q 5.8125 33.546875 5.8125 39.890625 
Q 5.8125 47.609375 11.28125 51.796875 
Q 16.75 56 26.8125 56 
Q 31.78125 56 36.171875 55.265625 
Q 40.578125 54.546875 44.28125 53.078125 
z
" id="DejaVuSans-115"/>
       <path d="M 34.28125 27.484375 
Q 23.390625 27.484375 19.1875 25 
Q 14.984375 22.515625 14.984375 16.5 
Q 14.984375 11.71875 18.140625 8.90625 
Q 21.296875 6.109375 26.703125 6.109375 
Q 34.1875 6.109375 38.703125 11.40625 
Q 43.21875 16.703125 43.21875 25.484375 
L 43.21875 27.484375 
z
M 52.203125 31.203125 
L 52.203125 0 
L 43.21875 0 
L 43.21875 8.296875 
Q 40.140625 3.328125 35.546875 0.953125 
Q 30.953125 -1.421875 24.3125 -1.421875 
Q 15.921875 -1.421875 10.953125 3.296875 
Q 6 8.015625 6 15.921875 
Q 6 25.140625 12.171875 29.828125 
Q 18.359375 34.515625 30.609375 34.515625 
L 43.21875 34.515625 
L 43.21875 35.40625 
Q 43.21875 41.609375 39.140625 45 
Q 35.0625 48.390625 27.6875 48.390625 
Q 23 48.390625 18.546875 47.265625 
Q 14.109375 46.140625 10.015625 43.890625 
L 10.015625 52.203125 
Q 14.9375 54.109375 19.578125 55.046875 
Q 24.21875 56 28.609375 56 
Q 40.484375 56 46.34375 49.84375 
Q 52.203125 43.703125 52.203125 31.203125 
z
" id="DejaVuSans-97"/>
       <path d="M 18.109375 8.203125 
L 18.109375 -20.796875 
L 9.078125 -20.796875 
L 9.078125 54.6875 
L 18.109375 54.6875 
L 18.109375 46.390625 
Q 20.953125 51.265625 25.265625 53.625 
Q 29.59375 56 35.59375 56 
Q 45.5625 56 51.78125 48.09375 
Q 58.015625 40.1875 58.015625 27.296875 
Q 58.015625 14.40625 51.78125 6.484375 
Q 45.5625 -1.421875 35.59375 -1.421875 
Q 29.59375 -1.421875 25.265625 0.953125 
Q 20.953125 3.328125 18.109375 8.203125 
z
M 48.6875 27.296875 
Q 48.6875 37.203125 44.609375 42.84375 
Q 40.53125 48.484375 33.40625 48.484375 
Q 26.265625 48.484375 22.1875 42.84375 
Q 18.109375 37.203125 18.109375 27.296875 
Q 18.109375 17.390625 22.1875 11.75 
Q 26.265625 6.109375 33.40625 6.109375 
Q 40.53125 6.109375 44.609375 11.75 
Q 48.6875 17.390625 48.6875 27.296875 
z
" id="DejaVuSans-112"/>
      </defs>
      <use xlink:href="#DejaVuSans-116"/>
      <use x="39.208984" xlink:href="#DejaVuSans-105"/>
      <use x="66.992188" xlink:href="#DejaVuSans-109"/>
      <use x="164.404297" xlink:href="#DejaVuSans-101"/>
      <use x="225.927734" xlink:href="#DejaVuSans-115"/>
      <use x="278.027344" xlink:href="#DejaVuSans-116"/>
      <use x="317.236328" xlink:href="#DejaVuSans-97"/>
      <use x="378.515625" xlink:href="#DejaVuSans-109"/>
      <use x="475.927734" xlink:href="#DejaVuSans-112"/>
     </g>
    </g>
   </g>
   <g id="matplotlib.axis_2">
    <g id="ytick_1">
     <g id="line2d_22">
      <defs>
       <path d="M 0 0 
L -3.5 0 
" id="m74756b9549" style="stroke:#000000;stroke-width:0.8;"/>
      </defs>
      <g>
       <use style="stroke:#000000;stroke-width:0.8;" x="108" xlink:href="#m74756b9549" y="402.986829"/>
      </g>
     </g>
     <g id="text_23">
      <!-- 10600 -->
      <g transform="translate(69.1875 406.786048)scale(0.1 -0.1)">
       <use xlink:href="#DejaVuSans-49"/>
       <use x="63.623047" xlink:href="#DejaVuSans-48"/>
       <use x="127.246094" xlink:href="#DejaVuSans-54"/>
       <use x="190.869141" xlink:href="#DejaVuSans-48"/>
       <use x="254.492188" xlink:href="#DejaVuSans-48"/>
      </g>
     </g>
    </g>
    <g id="ytick_2">
     <g id="line2d_23">
      <g>
       <use style="stroke:#000000;stroke-width:0.8;" x="108" xlink:href="#m74756b9549" y="344.446358"/>
      </g>
     </g>
     <g id="text_24">
      <!-- 10800 -->
      <g transform="translate(69.1875 348.245577)scale(0.1 -0.1)">
       <use xlink:href="#DejaVuSans-49"/>
       <use x="63.623047" xlink:href="#DejaVuSans-48"/>
       <use x="127.246094" xlink:href="#DejaVuSans-56"/>
       <use x="190.869141" xlink:href="#DejaVuSans-48"/>
       <use x="254.492188" xlink:href="#DejaVuSans-48"/>
      </g>
     </g>
    </g>
    <g id="ytick_3">
     <g id="line2d_24">
      <g>
       <use style="stroke:#000000;stroke-width:0.8;" x="108" xlink:href="#m74756b9549" y="285.905888"/>
      </g>
     </g>
     <g id="text_25">
      <!-- 11000 -->
      <g transform="translate(69.1875 289.705107)scale(0.1 -0.1)">
       <use xlink:href="#DejaVuSans-49"/>
       <use x="63.623047" xlink:href="#DejaVuSans-49"/>
       <use x="127.246094" xlink:href="#DejaVuSans-48"/>
       <use x="190.869141" xlink:href="#DejaVuSans-48"/>
       <use x="254.492188" xlink:href="#DejaVuSans-48"/>
      </g>
     </g>
    </g>
    <g id="ytick_4">
     <g id="line2d_25">
      <g>
       <use style="stroke:#000000;stroke-width:0.8;" x="108" xlink:href="#m74756b9549" y="227.365417"/>
      </g>
     </g>
     <g id="text_26">
      <!-- 11200 -->
      <g transform="translate(69.1875 231.164636)scale(0.1 -0.1)">
       <use xlink:href="#DejaVuSans-49"/>
       <use x="63.623047" xlink:href="#DejaVuSans-49"/>
       <use x="127.246094" xlink:href="#DejaVuSans-50"/>
       <use x="190.869141" xlink:href="#DejaVuSans-48"/>
       <use x="254.492188" xlink:href="#DejaVuSans-48"/>
      </g>
     </g>
    </g>
    <g id="ytick_5">
     <g id="line2d_26">
      <g>
       <use style="stroke:#000000;stroke-width:0.8;" x="108" xlink:href="#m74756b9549" y="168.824947"/>
      </g>
     </g>
     <g id="text_27">
      <!-- 11400 -->
      <g transform="translate(69.1875 172.624165)scale(0.1 -0.1)">
       <use xlink:href="#DejaVuSans-49"/>
       <use x="63.623047" xlink:href="#DejaVuSans-49"/>
       <use x="127.246094" xlink:href="#DejaVuSans-52"/>
       <use x="190.869141" xlink:href="#DejaVuSans-48"/>
       <use x="254.492188" xlink:href="#DejaVuSans-48"/>
      </g>
     </g>
    </g>
    <g id="ytick_6">
     <g id="line2d_27">
      <g>
       <use style="stroke:#000000;stroke-width:0.8;" x="108" xlink:href="#m74756b9549" y="110.284476"/>
      </g>
     </g>
     <g id="text_28">
      <!-- 11600 -->
      <g transform="translate(69.1875 114.083695)scale(0.1 -0.1)">
       <use xlink:href="#DejaVuSans-49"/>
       <use x="63.623047" xlink:href="#DejaVuSans-49"/>
       <use x="127.246094" xlink:href="#DejaVuSans-54"/>
       <use x="190.869141" xlink:href="#DejaVuSans-48"/>
       <use x="254.492188" xlink:href="#DejaVuSans-48"/>
      </g>
     </g>
    </g>
    <g id="text_29">
     <!-- MB -->
     <g transform="translate(63.52375 260.715625)rotate(-90)scale(0.08 -0.08)">
      <defs>
       <path d="M 9.8125 72.90625 
L 24.515625 72.90625 
L 43.109375 23.296875 
L 61.8125 72.90625 
L 76.515625 72.90625 
L 76.515625 0 
L 66.890625 0 
L 66.890625 64.015625 
L 48.09375 14.015625 
L 38.1875 14.015625 
L 19.390625 64.015625 
L 19.390625 0 
L 9.8125 0 
z
" id="DejaVuSans-77"/>
       <path d="M 19.671875 34.8125 
L 19.671875 8.109375 
L 35.5 8.109375 
Q 43.453125 8.109375 47.28125 11.40625 
Q 51.125 14.703125 51.125 21.484375 
Q 51.125 28.328125 47.28125 31.5625 
Q 43.453125 34.8125 35.5 34.8125 
z
M 19.671875 64.796875 
L 19.671875 42.828125 
L 34.28125 42.828125 
Q 41.5 42.828125 45.03125 45.53125 
Q 48.578125 48.25 48.578125 53.8125 
Q 48.578125 59.328125 45.03125 62.0625 
Q 41.5 64.796875 34.28125 64.796875 
z
M 9.8125 72.90625 
L 35.015625 72.90625 
Q 46.296875 72.90625 52.390625 68.21875 
Q 58.5 63.53125 58.5 54.890625 
Q 58.5 48.1875 55.375 44.234375 
Q 52.25 40.28125 46.1875 39.3125 
Q 53.46875 37.75 57.5 32.78125 
Q 61.53125 27.828125 61.53125 20.40625 
Q 61.53125 10.640625 54.890625 5.3125 
Q 48.25 0 35.984375 0 
L 9.8125 0 
z
" id="DejaVuSans-66"/>
      </defs>
      <use xlink:href="#DejaVuSans-77"/>
      <use x="86.279297" xlink:href="#DejaVuSans-66"/>
     </g>
    </g>
   </g>
   <g id="line2d_28">
    <path clip-path="url(#pf05caf11ff)" d="M 132.349091 81.15825 
L 132.684017 80.722709 
L 133.018942 79.547217 
L 133.353868 80.293022 
L 133.688793 79.307201 
L 134.023719 78.859952 
L 134.358644 78.12 
L 134.69357 79.154996 
L 135.028496 80.922918 
L 135.363421 80.563479 
L 135.698347 80.441715 
L 136.033272 79.60927 
L 136.368198 80.038957 
L 136.703124 81.631257 
L 137.372975 123.162209 
L 137.7079 145.774051 
L 138.042826 201.471796 
L 138.712677 267.179962 
L 139.047603 289.98733 
L 139.717454 362.303544 
L 140.05238 386.066291 
L 140.387305 399.318683 
L 140.722231 402.855698 
L 141.057156 404.577959 
L 141.392082 405.217221 
L 141.727008 404.095586 
L 142.061933 403.664728 
L 142.396859 402.306589 
L 142.731784 401.633373 
L 143.06671 401.546733 
L 143.401636 400.697897 
L 143.736561 401.156854 
L 144.071487 402.656661 
L 144.406412 401.984616 
L 144.741338 402.122772 
L 145.076264 400.546862 
L 145.411189 407.147886 
L 145.746115 407.117445 
L 146.08104 406.240508 
L 146.415966 404.234912 
L 146.750892 409.199144 
L 147.085817 410.080763 
L 147.420743 410.254043 
L 147.755668 406.972264 
L 148.090594 406.196018 
L 148.42552 405.703107 
L 148.760445 404.185738 
L 149.095371 403.560526 
L 149.430296 402.685931 
L 149.765222 408.125512 
L 150.100148 409.819673 
L 150.435073 408.806923 
L 150.769999 408.559882 
L 151.104924 404.923348 
L 151.43985 406.761519 
L 151.774776 406.654975 
L 152.109701 406.022738 
L 152.444627 403.979675 
L 153.114478 407.549473 
L 153.449404 406.694782 
L 153.784329 406.234654 
L 154.119255 405.473628 
L 154.45418 406.686587 
L 154.789106 406.822401 
L 155.124032 407.282529 
L 155.458957 406.376322 
L 156.463734 406.884454 
L 156.798659 406.892649 
L 157.133585 405.176243 
L 157.468511 406.362273 
L 158.138362 406.848158 
L 158.473287 404.577959 
L 158.808213 404.778167 
L 159.143139 406.880941 
L 160.147915 404.727823 
L 160.482841 407.366827 
L 160.817767 407.277846 
L 161.487618 406.260412 
L 161.822543 406.481695 
L 162.157469 407.234526 
L 162.492395 406.67605 
L 162.82732 406.846988 
L 163.162246 405.93961 
L 163.497171 406.814205 
L 164.167023 405.792088 
L 164.501948 403.616725 
L 165.171799 405.854141 
L 165.506725 406.411447 
L 165.841651 406.124598 
L 166.176576 405.138777 
L 166.511502 406.222946 
L 166.846427 406.461791 
L 167.181353 406.244021 
L 167.516279 405.248833 
L 168.18613 407.357461 
L 168.521055 407.889008 
L 168.855981 407.446442 
L 169.190907 406.496916 
L 169.525832 408.205127 
L 169.860758 407.874958 
L 170.195683 408.016626 
L 170.530609 406.774398 
L 170.865535 407.502641 
L 171.20046 405.299178 
L 171.535386 405.625833 
L 171.870311 405.564951 
L 172.205237 404.596692 
L 172.540163 406.787276 
L 172.875088 407.070612 
L 173.210014 406.687758 
L 173.544939 405.965368 
L 173.879865 406.366956 
L 174.214791 407.961598 
L 174.549716 407.34224 
L 175.219567 405.388159 
L 175.554493 408.757749 
L 175.889419 408.972007 
L 176.55927 406.945336 
L 177.229121 407.8773 
L 177.564047 410.03276 
L 177.898972 409.422768 
L 178.233898 409.394669 
L 178.568823 410.936625 
L 178.903749 407.24038 
L 179.5736 406.233484 
L 179.908526 408.513049 
L 180.243451 409.04928 
L 180.913302 408.173515 
L 181.248228 406.74864 
L 181.583154 409.03523 
L 181.918079 407.995552 
L 182.253005 408.215664 
L 182.58793 407.260283 
L 182.922856 409.015327 
L 183.257782 408.366698 
L 183.927633 406.399738 
L 184.262558 406.694782 
L 184.597484 408.107949 
L 185.267335 407.846859 
L 185.602261 406.927774 
L 185.937186 408.555199 
L 186.272112 408.749553 
L 186.607038 408.682817 
L 186.941963 407.570548 
L 187.276889 407.841005 
L 187.611814 407.852713 
L 187.94674 407.728607 
L 188.616591 406.683074 
L 188.951517 408.297621 
L 189.286442 408.722624 
L 189.621368 411.310113 
L 189.956294 409.973049 
L 190.291219 409.563266 
L 190.626145 409.405206 
L 190.96107 408.236738 
L 191.295996 407.967452 
L 191.630922 407.456979 
L 191.965847 407.538936 
L 192.300773 409.637027 
L 192.635698 409.456722 
L 192.970624 409.77284 
L 193.30555 408.230884 
L 193.640475 409.118358 
L 193.975401 409.216706 
L 194.310326 409.498871 
L 194.645252 408.103266 
L 194.980178 408.805752 
L 195.650029 408.105608 
L 195.984954 406.756835 
L 196.31988 406.924261 
L 196.654806 407.795343 
L 196.989731 406.954702 
L 197.324657 407.173644 
L 197.994508 406.325977 
L 198.329434 408.843218 
L 198.664359 409.549216 
L 198.999285 409.391157 
L 199.33421 407.741486 
L 199.669136 409.697909 
L 200.004062 409.140603 
L 200.338987 408.906441 
L 200.673913 408.213322 
L 201.008838 408.461534 
L 201.343764 409.337299 
L 201.67869 409.537508 
L 202.013615 408.952103 
L 202.348541 407.929986 
L 202.683466 409.14997 
L 203.018392 408.545832 
L 203.353317 407.519032 
L 204.023169 406.458279 
L 204.358094 408.178198 
L 204.69302 408.178198 
L 205.027945 408.042384 
L 205.362871 407.216963 
L 205.697797 408.277717 
L 206.032722 408.377236 
L 206.367648 407.947549 
L 206.702573 407.062417 
L 207.037499 408.205127 
L 207.372425 409.879384 
L 208.377201 408.652376 
L 208.712127 410.070226 
L 209.047053 409.686201 
L 209.381978 409.731862 
L 209.716904 408.606714 
L 210.051829 409.699079 
L 210.386755 411.75385 
L 210.721681 411.156737 
L 211.056606 409.3092 
L 211.391532 408.411189 
L 211.726457 409.885238 
L 212.061383 410.057347 
L 212.396309 409.38179 
L 212.731234 408.365527 
L 213.06616 408.717941 
L 213.401085 410.244677 
L 213.736011 408.488462 
L 214.070937 408.535295 
L 214.405862 407.953403 
L 214.740788 410.979945 
L 215.075713 411.205911 
L 215.745565 410.209552 
L 216.08049 410.17677 
L 216.415416 410.689584 
L 216.750341 410.014027 
L 217.085267 408.044726 
L 217.420193 408.024822 
L 217.755118 410.372295 
L 218.424969 410.200186 
L 218.759895 409.36657 
L 219.094821 407.686458 
L 219.429746 409.516433 
L 219.764672 409.192119 
L 220.099597 409.053963 
L 220.434523 408.482608 
L 220.769449 410.07608 
L 221.4393 409.539849 
L 221.774225 408.667596 
L 222.109151 408.172344 
L 222.444077 409.759962 
L 222.779002 409.954316 
L 223.113928 410.395711 
L 223.448853 408.31167 
L 223.783779 409.695567 
L 224.118705 410.134621 
L 224.45363 409.340812 
L 224.788556 408.05058 
L 225.123481 407.921791 
L 225.458407 409.220218 
L 225.793332 408.261325 
L 226.128258 408.454509 
L 226.463184 407.286041 
L 226.798109 409.293979 
L 227.46796 409.583169 
L 227.802886 408.246105 
L 228.137812 408.394798 
L 228.472737 410.840619 
L 229.142588 410.375807 
L 229.477514 409.097283 
L 229.81244 411.772583 
L 230.147365 412.117972 
L 230.482291 410.718854 
L 230.817216 409.803281 
L 231.152142 409.832552 
L 231.821993 412.07231 
L 232.156919 411.701164 
L 232.491844 410.715342 
L 232.82677 417.29412 
L 233.161696 417.831522 
L 233.496621 417.652388 
L 233.831547 412.857923 
L 234.166472 410.761004 
L 234.501398 413.241949 
L 234.836324 413.306343 
L 235.171249 412.634299 
L 235.506175 411.284355 
L 235.8411 416.572901 
L 236.176026 416.619734 
L 236.510952 416.345764 
L 236.845877 415.359943 
L 237.180803 413.282927 
L 237.515728 414.16923 
L 237.850654 414.242991 
L 238.18558 411.703505 
L 238.520505 411.380362 
L 238.855431 413.580313 
L 239.190356 413.334443 
L 240.195133 412.270177 
L 240.530059 413.743055 
L 241.19991 413.695052 
L 241.534836 412.720939 
L 241.869761 413.846086 
L 242.204687 413.568605 
L 242.539612 413.517089 
L 242.874538 412.134363 
L 243.209464 412.794699 
L 243.544389 413.817987 
L 243.879315 413.31688 
L 244.21424 413.350834 
L 244.549166 412.483264 
L 244.884092 414.204354 
L 245.219017 413.843745 
L 245.888868 413.596704 
L 246.223794 412.731476 
L 246.55872 414.956014 
L 247.228571 415.073095 
L 247.563496 413.148284 
L 247.898422 414.295677 
L 248.233348 412.70923 
L 248.568273 412.791187 
L 248.903199 411.881468 
L 249.238124 412.018453 
L 249.57305 414.7921 
L 249.907975 414.31441 
L 250.242901 414.213721 
L 250.577827 413.401179 
L 250.912752 413.542847 
L 251.917529 412.874315 
L 252.252455 411.410803 
L 252.58738 413.560409 
L 252.922306 413.368396 
L 253.257231 413.497185 
L 253.592157 412.958613 
L 254.262008 414.175084 
L 254.596934 414.013512 
L 255.266785 412.722109 
L 255.601711 415.131635 
L 255.936636 414.956014 
L 256.271562 414.963039 
L 256.606487 414.24182 
L 256.941413 415.293207 
L 257.276339 414.797954 
L 257.611264 414.6036 
L 257.94619 413.348492 
L 258.281115 413.723151 
L 258.616041 414.926743 
L 258.950967 414.93611 
L 259.285892 414.830737 
L 259.620818 412.298276 
L 259.955743 414.368267 
L 260.625595 413.732518 
L 260.96052 412.760746 
L 261.630371 414.814346 
L 262.635148 413.945605 
L 262.970074 415.462974 
L 263.304999 415.51449 
L 264.309776 413.387129 
L 264.644702 414.123568 
L 264.979627 414.089615 
L 265.314553 413.466744 
L 265.649479 412.353304 
L 265.984404 415.692453 
L 266.654255 414.905669 
L 266.989181 412.880169 
L 267.324107 413.554555 
L 267.659032 415.498098 
L 267.993958 414.933768 
L 268.328883 415.205396 
L 268.663809 414.200842 
L 268.998735 414.838933 
L 269.33366 414.611796 
L 269.668586 414.758147 
L 270.003511 413.802766 
L 270.673363 414.470128 
L 271.008288 414.331972 
L 271.678139 411.88381 
L 272.013065 414.296848 
L 272.34799 414.671507 
L 272.682916 414.664482 
L 273.017842 413.384787 
L 273.352767 413.563921 
L 273.687693 415.200713 
L 274.022618 415.369309 
L 274.357544 414.886936 
L 274.69247 413.905798 
L 275.027395 416.034329 
L 275.362321 415.851683 
L 275.697246 419.657984 
L 276.032172 418.729532 
L 276.367098 419.078434 
L 276.702023 420.194215 
L 277.036949 415.991009 
L 277.371874 414.964209 
L 278.041726 415.142172 
L 278.376651 414.591892 
L 278.711577 414.290994 
L 279.046502 414.265236 
L 279.381428 413.282927 
L 279.716354 415.366968 
L 280.051279 415.581226 
L 280.386205 415.439558 
L 280.72113 414.781563 
L 281.056056 414.650432 
L 281.390982 415.229983 
L 281.725907 415.400921 
L 282.060833 414.861178 
L 282.395758 414.045124 
L 282.730684 416.109261 
L 283.06561 416.534265 
L 283.400535 416.277857 
L 283.735461 415.333014 
L 284.070386 415.125781 
L 284.405312 416.272003 
L 284.740238 415.409117 
L 285.075163 415.285011 
L 285.410089 414.413929 
L 285.745014 416.837504 
L 286.07994 416.159606 
L 286.414866 416.583439 
L 287.084717 415.237008 
L 287.419642 416.308299 
L 288.089494 415.938323 
L 288.424419 415.317794 
L 288.759345 416.531923 
L 289.09427 416.377376 
L 289.429196 416.494457 
L 289.764122 414.848299 
L 290.099047 415.57303 
L 290.433973 417.507207 
L 291.43875 415.299061 
L 291.773675 415.99218 
L 292.108601 415.801338 
L 292.443526 416.157264 
L 292.778452 415.070753 
L 293.113378 415.345893 
L 293.448303 416.16546 
L 293.783229 415.626887 
L 294.118154 415.629229 
L 294.45308 414.905669 
L 294.788006 416.970977 
L 295.122931 417.027176 
L 295.792782 415.253399 
L 296.127708 416.716911 
L 296.797559 416.793014 
L 297.132485 416.790672 
L 297.46741 416.020279 
L 297.802336 418.200327 
L 298.137261 417.07635 
L 298.472187 417.009613 
L 298.807113 416.298932 
L 299.142038 416.57056 
L 299.476964 417.04825 
L 299.811889 417.016638 
L 300.146815 417.202797 
L 300.481741 415.710015 
L 300.816666 416.464016 
L 301.151592 416.19473 
L 301.486517 415.439558 
L 301.821443 415.046166 
L 302.156369 416.099894 
L 302.491294 417.769469 
L 303.161145 417.007272 
L 303.496071 416.602172 
L 303.830997 416.867945 
L 304.165922 416.435917 
L 304.500848 416.2521 
L 304.835773 414.998163 
L 305.170699 415.635083 
L 305.505625 417.421738 
L 305.84055 417.420567 
L 306.175476 417.72732 
L 306.510401 416.540119 
L 306.845327 417.898258 
L 307.180253 417.836205 
L 307.515178 417.536478 
L 307.850104 416.420696 
L 308.519955 418.601914 
L 308.854881 418.251842 
L 309.189806 418.757632 
L 309.524732 417.516574 
L 309.859657 418.087929 
L 310.194583 418.42161 
L 310.529509 418.000118 
L 310.864434 416.879654 
L 311.19936 417.13489 
L 311.534285 418.099637 
L 311.869211 417.38076 
L 312.204137 417.589164 
L 312.539062 416.434746 
L 312.873988 418.551569 
L 313.208913 418.243647 
L 313.543839 418.237792 
L 313.878765 417.292949 
L 314.21369 417.381931 
L 314.548616 418.548057 
L 315.553393 416.412501 
L 315.888318 416.842188 
L 316.223244 416.915949 
L 316.558169 417.199285 
L 316.893095 416.26732 
L 317.562946 417.475596 
L 317.897872 417.621947 
L 318.232797 415.897344 
L 318.567723 415.829437 
L 318.902648 422.382458 
L 319.237574 423.008841 
L 319.5725 422.085072 
L 319.907425 417.993093 
L 320.242351 418.569132 
L 320.577276 419.682571 
L 320.912202 419.409773 
L 321.582053 417.392468 
L 321.916979 422.056973 
L 322.251904 422.607253 
L 322.58683 422.586179 
L 322.921756 421.534792 
L 323.256681 419.384015 
L 323.591607 420.585265 
L 323.926532 420.637952 
L 324.261458 417.851425 
L 324.596384 418.025876 
L 324.931309 418.441513 
L 325.266235 418.123053 
L 325.60116 418.105491 
L 325.936086 417.185235 
L 326.271012 417.671121 
L 326.605937 418.829051 
L 326.940863 418.125395 
L 327.275788 418.126566 
L 327.610714 417.571602 
L 327.94564 420.560678 
L 328.280565 420.636781 
L 328.615491 420.554824 
L 328.950416 419.974103 
L 329.620268 420.052547 
L 329.955193 419.859363 
L 330.290119 417.339782 
L 330.625044 417.063471 
L 330.95997 418.463759 
L 331.294896 418.66865 
L 331.629821 417.215676 
L 331.964747 416.328202 
L 332.299672 417.605555 
L 332.634598 419.707158 
L 332.969524 419.04448 
L 333.304449 419.126437 
L 333.639375 418.586694 
L 333.9743 419.352403 
L 334.309226 419.46363 
L 334.644152 419.317279 
L 334.979077 418.906325 
L 335.314003 419.846485 
L 335.648928 420.416669 
L 335.983854 419.765699 
L 336.653705 418.157007 
L 336.988631 419.823068 
L 337.323556 420.148553 
L 337.658482 419.002331 
L 337.993408 418.487175 
L 338.328333 419.153365 
L 338.663259 419.199027 
L 338.998184 418.82788 
L 339.33311 418.071538 
L 339.668036 418.10432 
L 340.002961 420.564191 
L 340.672812 420.440085 
L 341.007738 418.679188 
L 341.342663 418.733045 
L 342.012515 419.551441 
L 342.34744 419.398065 
L 342.682366 418.512933 
L 343.017291 419.617006 
L 343.352217 419.827752 
L 343.687143 419.207223 
L 344.022068 418.245988 
L 344.691919 419.903854 
L 345.026845 425.001558 
L 345.361771 424.896186 
L 345.696696 423.781575 
L 346.031622 424.464157 
L 346.366547 421.450493 
L 347.036399 419.731745 
L 347.371324 420.283196 
L 347.70625 421.334583 
L 348.041175 421.499667 
L 348.376101 421.082859 
L 348.711027 420.031472 
L 349.045952 421.045393 
L 349.380878 420.746837 
L 349.715803 420.62039 
L 350.050729 419.833606 
L 350.385655 420.371007 
L 350.72058 421.482105 
L 351.055506 421.466885 
L 351.390431 421.086372 
L 351.725357 420.12865 
L 352.060283 422.157662 
L 352.395208 422.785216 
L 352.730134 421.349804 
L 353.065059 420.531408 
L 353.399985 421.991407 
L 353.734911 421.716267 
L 354.069836 420.887334 
L 354.404762 420.618048 
L 354.739687 419.835947 
L 355.074613 421.539475 
L 355.409539 421.08403 
L 355.744464 420.335883 
L 356.07939 420.327687 
L 356.414315 420.704688 
L 356.749241 421.866131 
L 357.084167 421.414198 
L 357.419092 421.672947 
L 357.754018 420.209436 
L 358.088943 423.867044 
L 358.423869 422.268889 
L 358.758795 421.874326 
L 359.09372 420.972803 
L 359.428646 420.897871 
L 359.763571 422.236107 
L 360.433423 421.744367 
L 360.768348 421.125008 
L 361.103274 421.69168 
L 361.438199 421.233894 
L 361.773125 421.31468 
L 362.108051 424.088327 
L 362.777902 426.520098 
L 363.112827 423.689081 
L 363.782679 421.110959 
L 364.117604 421.657727 
L 364.787455 421.287751 
L 365.122381 420.065426 
L 365.457306 421.019636 
L 365.792232 421.612065 
L 366.127158 421.471568 
L 366.462083 421.703388 
L 366.797009 421.194086 
L 367.131934 422.073364 
L 367.801786 421.799395 
L 368.136711 420.77962 
L 368.806562 423.077919 
L 369.141488 422.810974 
L 369.476414 423.039282 
L 369.811339 421.866131 
L 370.146265 422.809803 
L 370.48119 422.438657 
L 370.816116 420.573557 
L 371.485967 421.388441 
L 371.820893 423.498239 
L 372.155818 423.269931 
L 372.490744 422.225569 
L 372.82567 421.598015 
L 373.160595 422.969033 
L 373.830446 422.847269 
L 374.165372 421.72095 
L 374.500298 422.224398 
L 374.835223 423.546242 
L 375.170149 423.591904 
L 375.505074 423.518143 
L 375.84 421.751391 
L 376.174926 421.867302 
L 376.509851 422.288793 
L 376.844777 422.329771 
L 377.179702 421.009098 
L 377.514628 422.274743 
L 377.849554 422.850782 
L 378.184479 422.883564 
L 378.85433 420.834648 
L 379.189256 423.010012 
L 379.524182 423.443211 
L 379.859107 423.298031 
L 380.194033 422.245473 
L 380.528958 422.059314 
L 380.863884 423.395208 
L 381.19881 423.55678 
L 381.533735 423.035769 
L 381.868661 421.992578 
L 382.203586 423.427991 
L 382.538512 424.018079 
L 382.873438 424.276827 
L 383.208363 422.866002 
L 383.878214 425.087028 
L 384.21314 425.008583 
L 384.548066 424.637437 
L 384.882991 423.459602 
L 385.217917 424.263948 
L 385.552842 423.572 
L 385.887768 423.465456 
L 386.222694 421.427077 
L 386.557619 421.998432 
L 386.892545 423.781575 
L 387.22747 423.975929 
L 387.562396 422.524126 
L 387.897321 421.788857 
L 388.232247 424.073107 
L 388.567173 424.074277 
L 388.902098 423.915047 
L 389.237024 423.005328 
L 389.906875 423.911535 
L 390.576726 424.066082 
L 390.911652 422.898785 
L 391.246577 424.850524 
L 391.581503 424.940676 
L 392.251354 423.276956 
L 392.58628 422.243131 
L 392.921205 424.173796 
L 393.256131 424.126964 
L 393.591057 423.05099 
L 393.925982 422.48666 
L 394.260908 423.272273 
L 394.595833 422.992449 
L 394.930759 422.925713 
L 395.265685 421.98087 
L 395.60061 423.097822 
L 395.935536 424.652657 
L 396.270461 424.450107 
L 396.605387 425.118639 
L 396.940313 424.200725 
L 397.275238 424.965263 
L 397.610164 424.695977 
L 398.280015 422.055802 
L 398.949866 423.452578 
L 399.284792 422.191616 
L 399.619717 422.316892 
L 399.954643 421.40249 
L 400.289569 424.789642 
L 400.624494 423.985296 
L 400.95942 424.16443 
L 401.294345 423.212562 
L 401.629271 423.424478 
L 401.964197 424.105889 
L 402.634048 424.632753 
L 402.968973 423.347205 
L 403.303899 424.863403 
L 403.638825 424.869257 
L 404.308676 422.525297 
L 404.643601 423.129434 
L 404.978527 428.473008 
L 405.313453 428.573698 
L 405.648378 427.338494 
L 406.318229 427.672175 
L 406.653155 426.639521 
L 406.988081 426.727331 
L 407.323006 423.936122 
L 407.657932 424.235849 
L 407.992857 423.892802 
L 408.327783 428.588918 
L 408.662709 428.643947 
L 409.33256 426.377259 
L 409.667485 426.199296 
L 410.002411 425.713411 
L 410.337337 424.349418 
L 410.672262 423.563804 
L 411.007188 425.261478 
L 411.342113 425.983868 
L 411.677039 424.953555 
L 412.011964 424.440741 
L 412.34689 426.961493 
L 413.016741 425.82815 
L 413.351667 424.880965 
L 413.686592 425.115127 
L 414.021518 427.217901 
L 414.691369 426.509561 
L 415.36122 424.741639 
L 415.696146 423.676202 
L 416.031072 423.704302 
L 416.365997 422.437486 
L 416.700923 423.458432 
L 417.035848 425.382071 
L 418.040625 423.440869 
L 418.375551 425.384413 
L 418.710476 425.190059 
L 419.045402 425.407829 
L 419.380328 424.516843 
L 420.050179 426.004942 
L 420.385104 425.982697 
L 420.72003 425.664237 
L 421.054956 424.614021 
L 421.389881 426.531806 
L 421.724807 426.617275 
L 422.059732 424.203066 
L 422.394658 424.505135 
L 423.064509 426.658254 
L 423.399435 426.454533 
L 423.73436 426.602055 
L 424.069286 426.106803 
L 424.404212 426.405359 
L 424.739137 426.079874 
L 425.074063 426.336281 
L 425.408988 425.417196 
L 425.743914 425.310652 
L 426.07884 426.008455 
L 426.413765 426.106803 
L 427.083616 425.008583 
L 427.418542 427.560948 
L 427.753468 427.675687 
L 428.423319 425.257966 
L 428.758244 425.449978 
L 429.09317 426.381943 
L 429.428096 425.270845 
L 429.763021 424.88799 
L 430.097947 424.925456 
L 430.432872 425.315335 
L 430.767798 425.211133 
L 431.102724 424.962922 
L 431.437649 424.103548 
L 431.772575 424.302585 
L 432.1075 426.542344 
L 432.442426 425.869128 
L 432.777352 425.64082 
L 433.112277 424.761542 
L 433.447203 426.170026 
L 433.782128 426.216859 
L 434.117054 425.852737 
L 434.451979 424.762713 
L 434.786905 425.449978 
L 435.121831 426.6243 
L 435.456756 426.575126 
L 435.791682 426.751918 
L 436.126607 425.883178 
L 436.461533 425.75673 
L 436.796459 425.449978 
L 437.131384 425.933523 
L 437.46631 425.039024 
L 437.801235 425.564718 
L 438.136161 424.920773 
L 438.471087 424.530893 
L 438.806012 423.483019 
L 439.140938 423.279298 
L 439.475863 426.257837 
L 439.810789 426.244958 
L 440.48064 424.706514 
L 440.815566 425.24977 
L 441.150491 426.028358 
L 441.485417 425.725119 
L 442.155268 424.112914 
L 442.490194 425.97333 
L 442.825119 426.499024 
L 443.160045 426.442825 
L 443.494971 425.321189 
L 444.164822 425.49564 
L 444.499747 425.704044 
L 445.169599 424.115256 
L 445.504524 425.317677 
L 445.83945 424.982825 
L 446.174375 425.412513 
L 446.509301 424.186675 
L 446.844227 427.432159 
L 447.179152 427.613634 
L 447.514078 426.727331 
L 447.849003 429.625085 
L 448.183929 428.57604 
L 448.518855 430.705742 
L 448.85378 430.92 
L 449.188706 428.030442 
L 449.523631 426.78236 
L 449.858557 428.682583 
L 450.528408 427.960194 
L 450.863334 426.770651 
L 451.198259 426.673474 
L 451.533185 427.267075 
L 451.868111 425.920644 
L 452.203036 426.192272 
L 452.537962 424.898527 
L 452.872887 426.308182 
L 453.877664 422.850782 
L 454.21259 422.786387 
L 454.547515 422.932738 
L 454.882441 423.261736 
L 455.217367 423.103676 
L 455.552292 422.032386 
L 455.887218 424.729931 
L 456.222143 424.489915 
L 456.891994 421.729146 
L 457.22692 421.98087 
L 457.561846 423.307397 
L 457.896771 423.203195 
L 458.231697 422.247815 
L 458.566622 421.671776 
L 458.901548 423.653957 
L 459.236474 422.184591 
L 459.571399 422.382458 
L 459.906325 421.924671 
L 460.24125 422.422265 
L 460.576176 423.94783 
L 460.911102 422.442169 
L 461.246027 422.514759 
L 461.580953 421.149595 
L 461.915878 421.429419 
L 462.250804 421.418882 
L 462.58573 421.261993 
L 462.920655 420.019764 
L 463.255581 420.989195 
L 463.590506 423.011182 
L 463.925432 422.063998 
L 464.260358 421.643677 
L 464.595283 420.669564 
L 464.930209 421.960966 
L 465.265134 422.074535 
L 465.60006 421.96682 
L 465.934986 421.060614 
L 466.269911 421.815786 
L 466.604837 423.772209 
L 467.274688 422.709114 
L 467.609614 421.264335 
L 467.944539 422.467927 
L 468.279465 422.876539 
L 468.61439 422.74775 
L 468.949316 420.580582 
L 469.619167 423.574342 
L 469.954093 422.881223 
L 470.289018 423.047478 
L 470.623944 422.190445 
L 470.95887 422.22674 
L 471.293795 421.957454 
L 471.628721 422.080389 
L 471.963646 421.277214 
L 472.298572 421.765441 
L 472.633498 423.882265 
L 473.303349 423.08026 
L 473.638274 421.888376 
L 473.9732 423.223099 
L 474.308126 423.663323 
L 474.643051 423.32613 
L 474.977977 422.301672 
L 475.312902 422.866002 
L 475.647828 423.034599 
L 475.982754 422.198641 
L 476.652605 419.093654 
L 476.98753 420.231681 
L 477.322456 420.226998 
L 477.657382 420.073622 
L 477.992307 418.626501 
L 478.327233 419.587736 
L 478.662158 419.302058 
L 478.997084 418.793927 
L 479.33201 418.637038 
L 479.666935 416.427721 
L 480.001861 418.58201 
L 480.336786 418.516445 
L 480.671712 418.212035 
L 481.006637 417.069325 
L 481.341563 417.950944 
L 482.011414 418.166373 
L 482.34634 416.905411 
L 482.681265 416.467529 
L 483.016191 419.725891 
L 483.351117 419.862876 
L 483.686042 419.393381 
L 484.020968 418.245988 
L 484.355893 418.718995 
L 484.690819 420.280855 
L 485.025745 417.403005 
L 485.36067 417.451009 
L 485.695596 416.722765 
L 486.030521 418.846613 
L 486.365447 418.572644 
L 486.700373 418.831393 
L 487.370224 416.215805 
L 487.705149 417.606726 
L 488.375001 417.632484 
L 488.709926 416.593976 
L 489.379777 417.061129 
L 489.714703 416.401963 
L 490.049629 415.447754 
L 490.384554 416.097553 
L 490.71948 417.925186 
L 491.054405 420.989195 
L 491.389331 421.133204 
L 491.724257 420.105233 
L 492.059182 418.212035 
L 492.394108 418.360727 
L 492.729033 418.139444 
L 493.063959 416.835163 
L 493.398885 416.225171 
L 493.73381 416.079991 
L 494.068736 417.782348 
L 494.403661 420.820598 
L 494.738587 420.150895 
L 495.073513 421.758416 
L 495.408438 419.227126 
L 496.078289 416.951073 
L 496.413215 417.321049 
L 496.748141 418.213205 
L 497.083066 418.001289 
L 497.417992 417.388956 
L 497.752917 415.766214 
L 498.087843 417.184064 
L 498.422769 416.945219 
L 498.757694 419.580711 
L 499.09262 418.125395 
L 499.427545 417.247288 
L 499.762471 418.528153 
L 500.097397 415.392726 
L 500.432322 414.875228 
L 500.767248 414.012341 
L 501.102173 415.136318 
L 501.437099 414.737072 
L 501.772025 414.081419 
L 502.441876 411.034973 
L 502.776801 411.212936 
L 503.111727 411.620378 
L 503.446652 409.550387 
L 503.781578 409.386473 
L 504.116504 410.926088 
L 504.451429 411.215278 
L 504.786355 410.804323 
L 505.12128 409.669809 
L 505.456206 410.352391 
L 505.791132 411.675406 
L 506.126057 411.947033 
L 506.460983 412.062944 
L 506.795908 411.169616 
L 507.130834 413.581483 
L 507.46576 413.30166 
L 507.800685 410.956529 
L 508.135611 409.573803 
L 508.470536 410.895647 
L 508.805462 411.486905 
L 509.140388 410.643923 
L 509.475313 408.946249 
L 509.810239 408.836193 
L 510.145164 408.906441 
L 510.815016 408.660571 
L 511.149941 407.76139 
L 511.484867 408.559882 
L 511.819792 410.232969 
L 512.154718 410.376978 
L 512.489644 414.175084 
L 512.824569 413.309856 
L 513.159495 415.244033 
L 513.49442 414.999334 
L 513.829346 410.504596 
L 514.164272 409.854797 
L 514.834123 411.81122 
L 515.503974 411.330017 
L 515.8389 410.591236 
L 516.508751 411.286697 
L 516.843676 410.503425 
L 517.178602 409.228414 
L 517.513528 409.812648 
L 517.848453 413.149455 
L 518.183379 412.402478 
L 518.518304 412.281885 
L 518.85323 410.995165 
L 519.188156 411.374508 
L 519.523081 411.575887 
L 519.858007 409.914508 
L 520.192932 409.449697 
L 520.527858 408.784677 
L 520.862784 410.869889 
L 521.532635 409.132408 
L 521.86756 407.345752 
L 522.202486 407.92062 
L 522.537412 406.886795 
L 522.872337 406.788447 
L 523.207263 404.85427 
L 523.542188 405.438504 
L 523.877114 406.331832 
L 524.546965 404.484294 
L 524.881891 403.018441 
L 525.551742 408.393627 
L 525.886668 407.623234 
L 526.556519 405.319081 
L 526.891444 407.41483 
L 527.22637 406.645608 
L 527.561295 406.918407 
L 527.896221 405.824871 
L 528.900998 405.616467 
L 529.235923 403.491448 
L 529.905775 406.519161 
L 530.2407 406.804839 
L 530.910551 404.588496 
L 531.245477 405.755793 
L 531.580403 405.431479 
L 531.915328 405.556756 
L 532.250254 404.198617 
L 532.585179 404.895248 
L 532.920105 406.361102 
L 533.255031 406.294366 
L 533.589956 406.047325 
L 533.924882 407.238038 
L 534.259807 409.690884 
L 534.594733 410.290338 
L 534.929659 409.795086 
L 535.264584 405.022867 
L 535.59951 406.035617 
L 535.934435 406.510965 
L 536.269361 406.035617 
L 536.939212 403.368513 
L 537.274138 405.431479 
L 537.943989 404.983059 
L 538.278915 404.141247 
L 538.61384 404.313356 
L 538.948766 405.50524 
L 539.283691 405.494703 
L 539.618617 405.117702 
L 539.953543 404.191592 
L 540.288468 406.279145 
L 540.623394 406.558969 
L 540.958319 406.284999 
L 541.293245 405.315569 
L 541.963096 406.56131 
L 542.298022 406.421984 
L 542.632947 405.391672 
L 542.967873 404.750068 
L 543.302799 406.330661 
L 543.637724 406.294366 
L 543.97265 405.806138 
L 544.307575 403.854399 
L 544.642501 403.180013 
L 544.977427 403.195233 
L 545.312352 402.1778 
L 545.647278 402.065402 
L 545.982203 401.268081 
L 546.317129 403.167134 
L 546.652055 403.109764 
L 546.98698 402.88731 
L 547.656831 400.570278 
L 547.991757 401.531513 
L 548.326683 400.80327 
L 548.661608 400.414561 
L 548.996534 399.267168 
L 549.331459 399.82096 
L 549.666385 399.747199 
L 550.336236 398.049526 
L 550.671162 398.846847 
L 551.006087 400.313871 
L 551.341013 400.553887 
L 551.675938 399.648851 
L 552.010864 400.1242 
L 552.34579 402.136821 
L 552.680715 402.027936 
L 553.015641 402.052523 
L 553.350566 401.13695 
L 554.020418 401.695426 
L 554.355343 401.346525 
L 554.690269 401.539709 
L 555.025194 400.70258 
L 555.36012 401.190807 
L 555.695046 401.170904 
L 556.029971 400.946108 
L 556.364897 399.605531 
L 556.699822 400.709605 
L 557.369674 400.505884 
L 557.704599 400.171032 
L 558.039525 399.424056 
L 558.37445 402.707006 
L 558.709376 401.530342 
L 559.044302 401.48351 
L 559.714153 400.126542 
L 560.049078 402.600462 
L 560.384004 403.516035 
L 560.71893 403.797029 
L 561.053855 401.784408 
L 561.388781 403.864936 
L 561.723706 403.742001 
L 562.058632 402.75735 
L 562.728483 401.854656 
L 563.063409 403.140205 
L 563.398334 403.229187 
L 563.73326 402.94468 
L 564.068186 402.095843 
L 564.403111 401.875731 
L 565.072962 402.233999 
L 565.407888 401.524488 
L 565.742814 402.719885 
L 566.077739 404.691528 
L 566.412665 405.002963 
L 566.74759 404.513565 
L 567.082516 403.191721 
L 567.417442 404.404679 
L 567.752367 403.811079 
L 568.422218 400.260014 
L 568.757144 400.679164 
L 569.09207 402.200045 
L 569.426995 401.693085 
L 569.761921 401.648594 
L 570.096846 400.60189 
L 570.431772 400.42861 
L 570.766698 400.613598 
L 571.101623 400.523446 
L 571.436549 398.859726 
L 571.771474 398.238026 
L 572.1064 398.442918 
L 572.441325 397.6655 
L 572.776251 397.688916 
L 573.111177 395.942069 
L 573.446102 398.242709 
L 574.115953 398.534241 
L 574.450879 397.854001 
L 574.785805 397.427826 
L 575.12073 398.737962 
L 575.455656 398.370328 
L 575.790581 398.329349 
L 576.125507 396.954819 
L 576.460433 399.612556 
L 576.795358 398.078796 
L 577.130284 401.141633 
L 577.465209 399.624264 
L 577.800135 399.161795 
L 578.135061 401.105338 
L 578.469986 397.961715 
L 578.804912 397.54959 
L 579.139837 396.679679 
L 579.474763 396.837738 
L 579.809689 396.843592 
L 580.144614 395.98656 
L 580.47954 399.45918 
L 580.814465 399.377224 
L 581.149391 401.433165 
L 581.484317 397.958203 
L 581.819242 397.86805 
L 582.154168 397.000481 
L 582.489093 398.768403 
L 582.824019 397.732236 
L 583.158945 397.623351 
L 583.49387 396.888083 
L 583.828796 396.712461 
L 584.163721 396.920865 
L 584.498647 396.754611 
L 584.833573 397.229959 
L 585.168498 397.122245 
L 585.503424 398.652493 
L 585.838349 398.872605 
L 586.173275 398.641955 
L 586.508201 396.471275 
L 587.178052 397.640913 
L 587.512977 397.654963 
L 587.847903 397.208885 
L 588.182829 396.096616 
L 588.517754 398.065917 
L 588.85268 398.486238 
L 589.187605 398.481554 
L 589.522531 397.149173 
L 589.857457 397.558957 
L 590.192382 398.213439 
L 590.527308 397.931274 
L 590.862233 397.399727 
L 591.197159 396.024025 
L 591.532085 396.497032 
L 592.536861 393.407266 
L 593.206713 395.599022 
L 593.541638 395.72664 
L 594.211489 392.786737 
L 594.546415 394.864924 
L 594.881341 394.016087 
L 595.216266 393.531372 
L 595.551192 390.198078 
L 596.221043 392.287973 
L 596.890894 392.207187 
L 597.22582 391.288101 
L 597.560745 392.440178 
L 597.895671 391.996441 
L 598.230596 391.928534 
L 598.565522 391.269368 
L 598.900448 391.963658 
L 599.235373 391.644027 
L 599.905224 391.470748 
L 600.24015 390.468535 
L 600.575076 391.80677 
L 600.910001 391.339617 
L 601.244927 391.31503 
L 601.579852 389.932304 
L 602.249704 390.618398 
L 602.584629 390.491951 
L 602.919555 390.784653 
L 603.25448 389.618527 
L 603.589406 392.176746 
L 603.924332 391.596024 
L 604.259257 391.70491 
L 604.594183 391.144092 
L 604.929108 391.700226 
L 605.264034 393.929447 
L 605.59896 393.834612 
L 606.268811 391.106626 
L 606.603736 393.113393 
L 606.938662 392.937772 
L 607.273588 393.139151 
L 607.608513 392.228261 
L 607.943439 391.946096 
L 608.278364 391.447331 
L 608.61329 391.188583 
L 608.948216 390.008407 
L 609.283141 389.743804 
L 609.618067 391.477773 
L 610.287918 392.031565 
L 610.622844 391.614757 
L 610.957769 394.229175 
L 611.292695 393.588742 
L 611.62762 393.315943 
L 611.962546 392.669657 
L 612.297472 390.73665 
L 612.632397 392.670827 
L 612.967323 392.575992 
L 613.302248 392.335976 
L 613.637174 390.667572 
L 613.9721 390.698013 
L 614.307025 390.365504 
L 614.976876 387.945441 
L 615.311802 386.950253 
L 615.646728 385.526548 
L 615.981653 384.814696 
L 616.316579 384.992659 
L 616.651504 384.156701 
L 616.98643 387.031038 
L 617.656281 386.162298 
L 617.991207 387.257005 
L 618.326132 388.808327 
L 618.661058 391.175704 
L 618.995983 390.652352 
L 619.330909 389.600965 
L 619.330909 389.600965 
" style="fill:none;stroke:#1f77b4;stroke-linecap:square;stroke-width:1.5;"/>
   </g>
   <g id="patch_3">
    <path d="M 108 448.56 
L 108 60.48 
" style="fill:none;stroke:#000000;stroke-linecap:square;stroke-linejoin:miter;stroke-width:0.8;"/>
   </g>
   <g id="patch_4">
    <path d="M 643.68 448.56 
L 643.68 60.48 
" style="fill:none;stroke:#000000;stroke-linecap:square;stroke-linejoin:miter;stroke-width:0.8;"/>
   </g>
   <g id="patch_5">
    <path d="M 108 448.56 
L 643.68 448.56 
" style="fill:none;stroke:#000000;stroke-linecap:square;stroke-linejoin:miter;stroke-width:0.8;"/>
   </g>
   <g id="patch_6">
    <path d="M 108 60.48 
L 643.68 60.48 
" style="fill:none;stroke:#000000;stroke-linecap:square;stroke-linejoin:miter;stroke-width:0.8;"/>
   </g>
   <g id="text_30">
    <!-- unikernel_fbuddyalloc - vmstat -->
    <g transform="translate(260.216953 54.48)scale(0.15 -0.15)">
     <defs>
      <path d="M 8.5 21.578125 
L 8.5 54.6875 
L 17.484375 54.6875 
L 17.484375 21.921875 
Q 17.484375 14.15625 20.5 10.265625 
Q 23.53125 6.390625 29.59375 6.390625 
Q 36.859375 6.390625 41.078125 11.03125 
Q 45.3125 15.671875 45.3125 23.6875 
L 45.3125 54.6875 
L 54.296875 54.6875 
L 54.296875 0 
L 45.3125 0 
L 45.3125 8.40625 
Q 42.046875 3.421875 37.71875 1 
Q 33.40625 -1.421875 27.6875 -1.421875 
Q 18.265625 -1.421875 13.375 4.4375 
Q 8.5 10.296875 8.5 21.578125 
z
M 31.109375 56 
z
" id="DejaVuSans-117"/>
      <path d="M 54.890625 33.015625 
L 54.890625 0 
L 45.90625 0 
L 45.90625 32.71875 
Q 45.90625 40.484375 42.875 44.328125 
Q 39.84375 48.1875 33.796875 48.1875 
Q 26.515625 48.1875 22.3125 43.546875 
Q 18.109375 38.921875 18.109375 30.90625 
L 18.109375 0 
L 9.078125 0 
L 9.078125 54.6875 
L 18.109375 54.6875 
L 18.109375 46.1875 
Q 21.34375 51.125 25.703125 53.5625 
Q 30.078125 56 35.796875 56 
Q 45.21875 56 50.046875 50.171875 
Q 54.890625 44.34375 54.890625 33.015625 
z
" id="DejaVuSans-110"/>
      <path d="M 9.078125 75.984375 
L 18.109375 75.984375 
L 18.109375 31.109375 
L 44.921875 54.6875 
L 56.390625 54.6875 
L 27.390625 29.109375 
L 57.625 0 
L 45.90625 0 
L 18.109375 26.703125 
L 18.109375 0 
L 9.078125 0 
z
" id="DejaVuSans-107"/>
      <path d="M 41.109375 46.296875 
Q 39.59375 47.171875 37.8125 47.578125 
Q 36.03125 48 33.890625 48 
Q 26.265625 48 22.1875 43.046875 
Q 18.109375 38.09375 18.109375 28.8125 
L 18.109375 0 
L 9.078125 0 
L 9.078125 54.6875 
L 18.109375 54.6875 
L 18.109375 46.1875 
Q 20.953125 51.171875 25.484375 53.578125 
Q 30.03125 56 36.53125 56 
Q 37.453125 56 38.578125 55.875 
Q 39.703125 55.765625 41.0625 55.515625 
z
" id="DejaVuSans-114"/>
      <path d="M 9.421875 75.984375 
L 18.40625 75.984375 
L 18.40625 0 
L 9.421875 0 
z
" id="DejaVuSans-108"/>
      <path d="M 50.984375 -16.609375 
L 50.984375 -23.578125 
L -0.984375 -23.578125 
L -0.984375 -16.609375 
z
" id="DejaVuSans-95"/>
      <path d="M 37.109375 75.984375 
L 37.109375 68.5 
L 28.515625 68.5 
Q 23.6875 68.5 21.796875 66.546875 
Q 19.921875 64.59375 19.921875 59.515625 
L 19.921875 54.6875 
L 34.71875 54.6875 
L 34.71875 47.703125 
L 19.921875 47.703125 
L 19.921875 0 
L 10.890625 0 
L 10.890625 47.703125 
L 2.296875 47.703125 
L 2.296875 54.6875 
L 10.890625 54.6875 
L 10.890625 58.5 
Q 10.890625 67.625 15.140625 71.796875 
Q 19.390625 75.984375 28.609375 75.984375 
z
" id="DejaVuSans-102"/>
      <path d="M 48.6875 27.296875 
Q 48.6875 37.203125 44.609375 42.84375 
Q 40.53125 48.484375 33.40625 48.484375 
Q 26.265625 48.484375 22.1875 42.84375 
Q 18.109375 37.203125 18.109375 27.296875 
Q 18.109375 17.390625 22.1875 11.75 
Q 26.265625 6.109375 33.40625 6.109375 
Q 40.53125 6.109375 44.609375 11.75 
Q 48.6875 17.390625 48.6875 27.296875 
z
M 18.109375 46.390625 
Q 20.953125 51.265625 25.265625 53.625 
Q 29.59375 56 35.59375 56 
Q 45.5625 56 51.78125 48.09375 
Q 58.015625 40.1875 58.015625 27.296875 
Q 58.015625 14.40625 51.78125 6.484375 
Q 45.5625 -1.421875 35.59375 -1.421875 
Q 29.59375 -1.421875 25.265625 0.953125 
Q 20.953125 3.328125 18.109375 8.203125 
L 18.109375 0 
L 9.078125 0 
L 9.078125 75.984375 
L 18.109375 75.984375 
z
" id="DejaVuSans-98"/>
      <path d="M 45.40625 46.390625 
L 45.40625 75.984375 
L 54.390625 75.984375 
L 54.390625 0 
L 45.40625 0 
L 45.40625 8.203125 
Q 42.578125 3.328125 38.25 0.953125 
Q 33.9375 -1.421875 27.875 -1.421875 
Q 17.96875 -1.421875 11.734375 6.484375 
Q 5.515625 14.40625 5.515625 27.296875 
Q 5.515625 40.1875 11.734375 48.09375 
Q 17.96875 56 27.875 56 
Q 33.9375 56 38.25 53.625 
Q 42.578125 51.265625 45.40625 46.390625 
z
M 14.796875 27.296875 
Q 14.796875 17.390625 18.875 11.75 
Q 22.953125 6.109375 30.078125 6.109375 
Q 37.203125 6.109375 41.296875 11.75 
Q 45.40625 17.390625 45.40625 27.296875 
Q 45.40625 37.203125 41.296875 42.84375 
Q 37.203125 48.484375 30.078125 48.484375 
Q 22.953125 48.484375 18.875 42.84375 
Q 14.796875 37.203125 14.796875 27.296875 
z
" id="DejaVuSans-100"/>
      <path d="M 32.171875 -5.078125 
Q 28.375 -14.84375 24.75 -17.8125 
Q 21.140625 -20.796875 15.09375 -20.796875 
L 7.90625 -20.796875 
L 7.90625 -13.28125 
L 13.1875 -13.28125 
Q 16.890625 -13.28125 18.9375 -11.515625 
Q 21 -9.765625 23.484375 -3.21875 
L 25.09375 0.875 
L 2.984375 54.6875 
L 12.5 54.6875 
L 29.59375 11.921875 
L 46.6875 54.6875 
L 56.203125 54.6875 
z
" id="DejaVuSans-121"/>
      <path d="M 30.609375 48.390625 
Q 23.390625 48.390625 19.1875 42.75 
Q 14.984375 37.109375 14.984375 27.296875 
Q 14.984375 17.484375 19.15625 11.84375 
Q 23.34375 6.203125 30.609375 6.203125 
Q 37.796875 6.203125 41.984375 11.859375 
Q 46.1875 17.53125 46.1875 27.296875 
Q 46.1875 37.015625 41.984375 42.703125 
Q 37.796875 48.390625 30.609375 48.390625 
z
M 30.609375 56 
Q 42.328125 56 49.015625 48.375 
Q 55.71875 40.765625 55.71875 27.296875 
Q 55.71875 13.875 49.015625 6.21875 
Q 42.328125 -1.421875 30.609375 -1.421875 
Q 18.84375 -1.421875 12.171875 6.21875 
Q 5.515625 13.875 5.515625 27.296875 
Q 5.515625 40.765625 12.171875 48.375 
Q 18.84375 56 30.609375 56 
z
" id="DejaVuSans-111"/>
      <path d="M 48.78125 52.59375 
L 48.78125 44.1875 
Q 44.96875 46.296875 41.140625 47.34375 
Q 37.3125 48.390625 33.40625 48.390625 
Q 24.65625 48.390625 19.8125 42.84375 
Q 14.984375 37.3125 14.984375 27.296875 
Q 14.984375 17.28125 19.8125 11.734375 
Q 24.65625 6.203125 33.40625 6.203125 
Q 37.3125 6.203125 41.140625 7.25 
Q 44.96875 8.296875 48.78125 10.40625 
L 48.78125 2.09375 
Q 45.015625 0.34375 40.984375 -0.53125 
Q 36.96875 -1.421875 32.421875 -1.421875 
Q 20.0625 -1.421875 12.78125 6.34375 
Q 5.515625 14.109375 5.515625 27.296875 
Q 5.515625 40.671875 12.859375 48.328125 
Q 20.21875 56 33.015625 56 
Q 37.15625 56 41.109375 55.140625 
Q 45.0625 54.296875 48.78125 52.59375 
z
" id="DejaVuSans-99"/>
      <path id="DejaVuSans-32"/>
      <path d="M 4.890625 31.390625 
L 31.203125 31.390625 
L 31.203125 23.390625 
L 4.890625 23.390625 
z
" id="DejaVuSans-45"/>
      <path d="M 2.984375 54.6875 
L 12.5 54.6875 
L 29.59375 8.796875 
L 46.6875 54.6875 
L 56.203125 54.6875 
L 35.6875 0 
L 23.484375 0 
z
" id="DejaVuSans-118"/>
     </defs>
     <use xlink:href="#DejaVuSans-117"/>
     <use x="63.378906" xlink:href="#DejaVuSans-110"/>
     <use x="126.757812" xlink:href="#DejaVuSans-105"/>
     <use x="154.541016" xlink:href="#DejaVuSans-107"/>
     <use x="208.826172" xlink:href="#DejaVuSans-101"/>
     <use x="270.349609" xlink:href="#DejaVuSans-114"/>
     <use x="309.712891" xlink:href="#DejaVuSans-110"/>
     <use x="373.091797" xlink:href="#DejaVuSans-101"/>
     <use x="434.615234" xlink:href="#DejaVuSans-108"/>
     <use x="462.398438" xlink:href="#DejaVuSans-95"/>
     <use x="512.398438" xlink:href="#DejaVuSans-102"/>
     <use x="547.603516" xlink:href="#DejaVuSans-98"/>
     <use x="611.080078" xlink:href="#DejaVuSans-117"/>
     <use x="674.458984" xlink:href="#DejaVuSans-100"/>
     <use x="737.935547" xlink:href="#DejaVuSans-100"/>
     <use x="801.412109" xlink:href="#DejaVuSans-121"/>
     <use x="860.591797" xlink:href="#DejaVuSans-97"/>
     <use x="921.871094" xlink:href="#DejaVuSans-108"/>
     <use x="949.654297" xlink:href="#DejaVuSans-108"/>
     <use x="977.4375" xlink:href="#DejaVuSans-111"/>
     <use x="1038.619141" xlink:href="#DejaVuSans-99"/>
     <use x="1093.599609" xlink:href="#DejaVuSans-32"/>
     <use x="1125.386719" xlink:href="#DejaVuSans-45"/>
     <use x="1161.470703" xlink:href="#DejaVuSans-32"/>
     <use x="1193.257812" xlink:href="#DejaVuSans-118"/>
     <use x="1252.4375" xlink:href="#DejaVuSans-109"/>
     <use x="1349.849609" xlink:href="#DejaVuSans-115"/>
     <use x="1401.949219" xlink:href="#DejaVuSans-116"/>
     <use x="1441.158203" xlink:href="#DejaVuSans-97"/>
     <use x="1502.4375" xlink:href="#DejaVuSans-116"/>
    </g>
   </g>
   <g id="legend_1">
    <g id="patch_7">
     <path d="M 650.68 258.52 
L 654.68 258.52 
Q 656.68 258.52 656.68 256.52 
L 656.68 252.52 
Q 656.68 250.52 654.68 250.52 
L 650.68 250.52 
Q 648.68 250.52 648.68 252.52 
L 648.68 256.52 
Q 648.68 258.52 650.68 258.52 
z
" style="fill:#ffffff;opacity:0.8;stroke:#cccccc;stroke-linejoin:miter;"/>
    </g>
   </g>
  </g>
 </g>
 <defs>
  <clipPath id="pf05caf11ff">
   <rect height="388.08" width="535.68" x="108" y="60.48"/>
  </clipPath>
 </defs>
</svg>
