<?xml version="1.0" encoding="utf-8" standalone="no"?>
<!DOCTYPE svg PUBLIC "-//W3C//DTD SVG 1.1//EN"
  "http://www.w3.org/Graphics/SVG/1.1/DTD/svg11.dtd">
<!-- Created with matplotlib (https://matplotlib.org/) -->
<svg height="504pt" version="1.1" viewBox="0 0 864 504" width="864pt" xmlns="http://www.w3.org/2000/svg" xmlns:xlink="http://www.w3.org/1999/xlink">
 <metadata>
  <rdf:RDF xmlns:cc="http://creativecommons.org/ns#" xmlns:dc="http://purl.org/dc/elements/1.1/" xmlns:rdf="http://www.w3.org/1999/02/22-rdf-syntax-ns#">
   <cc:Work>
    <dc:type rdf:resource="http://purl.org/dc/dcmitype/StillImage"/>
    <dc:date>2022-05-29T17:25:43.755081</dc:date>
    <dc:format>image/svg+xml</dc:format>
    <dc:creator>
     <cc:Agent>
      <dc:title>Matplotlib v3.3.4, https://matplotlib.org/</dc:title>
     </cc:Agent>
    </dc:creator>
   </cc:Work>
  </rdf:RDF>
 </metadata>
 <defs>
  <style type="text/css">*{stroke-linecap:butt;stroke-linejoin:round;}</style>
 </defs>
 <g id="figure_1">
  <g id="patch_1">
   <path d="M 0 504 
L 864 504 
L 864 0 
L 0 0 
z
" style="fill:#ffffff;"/>
  </g>
  <g id="axes_1">
   <g id="patch_2">
    <path d="M 108 448.56 
L 643.68 448.56 
L 643.68 60.48 
L 108 60.48 
z
" style="fill:#ffffff;"/>
   </g>
   <g id="matplotlib.axis_1">
    <g id="xtick_1">
     <g id="line2d_1">
      <defs>
       <path d="M 0 0 
L 0 3.5 
" id="m68b8ef1d55" style="stroke:#000000;stroke-width:0.8;"/>
      </defs>
      <g>
       <use style="stroke:#000000;stroke-width:0.8;" x="132.349091" xlink:href="#m68b8ef1d55" y="448.56"/>
      </g>
     </g>
     <g id="text_1">
      <!-- 12:27:24 -->
      <g transform="translate(135.108466 500.4725)rotate(-90)scale(0.1 -0.1)">
       <defs>
        <path d="M 12.40625 8.296875 
L 28.515625 8.296875 
L 28.515625 63.921875 
L 10.984375 60.40625 
L 10.984375 69.390625 
L 28.421875 72.90625 
L 38.28125 72.90625 
L 38.28125 8.296875 
L 54.390625 8.296875 
L 54.390625 0 
L 12.40625 0 
z
" id="DejaVuSans-49"/>
        <path d="M 19.1875 8.296875 
L 53.609375 8.296875 
L 53.609375 0 
L 7.328125 0 
L 7.328125 8.296875 
Q 12.9375 14.109375 22.625 23.890625 
Q 32.328125 33.6875 34.8125 36.53125 
Q 39.546875 41.84375 41.421875 45.53125 
Q 43.3125 49.21875 43.3125 52.78125 
Q 43.3125 58.59375 39.234375 62.25 
Q 35.15625 65.921875 28.609375 65.921875 
Q 23.96875 65.921875 18.8125 64.3125 
Q 13.671875 62.703125 7.8125 59.421875 
L 7.8125 69.390625 
Q 13.765625 71.78125 18.9375 73 
Q 24.125 74.21875 28.421875 74.21875 
Q 39.75 74.21875 46.484375 68.546875 
Q 53.21875 62.890625 53.21875 53.421875 
Q 53.21875 48.921875 51.53125 44.890625 
Q 49.859375 40.875 45.40625 35.40625 
Q 44.1875 33.984375 37.640625 27.21875 
Q 31.109375 20.453125 19.1875 8.296875 
z
" id="DejaVuSans-50"/>
        <path d="M 11.71875 12.40625 
L 22.015625 12.40625 
L 22.015625 0 
L 11.71875 0 
z
M 11.71875 51.703125 
L 22.015625 51.703125 
L 22.015625 39.3125 
L 11.71875 39.3125 
z
" id="DejaVuSans-58"/>
        <path d="M 8.203125 72.90625 
L 55.078125 72.90625 
L 55.078125 68.703125 
L 28.609375 0 
L 18.3125 0 
L 43.21875 64.59375 
L 8.203125 64.59375 
z
" id="DejaVuSans-55"/>
        <path d="M 37.796875 64.3125 
L 12.890625 25.390625 
L 37.796875 25.390625 
z
M 35.203125 72.90625 
L 47.609375 72.90625 
L 47.609375 25.390625 
L 58.015625 25.390625 
L 58.015625 17.1875 
L 47.609375 17.1875 
L 47.609375 0 
L 37.796875 0 
L 37.796875 17.1875 
L 4.890625 17.1875 
L 4.890625 26.703125 
z
" id="DejaVuSans-52"/>
       </defs>
       <use xlink:href="#DejaVuSans-49"/>
       <use x="63.623047" xlink:href="#DejaVuSans-50"/>
       <use x="127.246094" xlink:href="#DejaVuSans-58"/>
       <use x="160.9375" xlink:href="#DejaVuSans-50"/>
       <use x="224.560547" xlink:href="#DejaVuSans-55"/>
       <use x="288.183594" xlink:href="#DejaVuSans-58"/>
       <use x="321.875" xlink:href="#DejaVuSans-50"/>
       <use x="385.498047" xlink:href="#DejaVuSans-52"/>
      </g>
     </g>
    </g>
    <g id="xtick_2">
     <g id="line2d_2">
      <g>
       <use style="stroke:#000000;stroke-width:0.8;" x="156.698182" xlink:href="#m68b8ef1d55" y="448.56"/>
      </g>
     </g>
     <g id="text_2">
      <!-- 12:28:16 -->
      <g transform="translate(159.457557 500.4725)rotate(-90)scale(0.1 -0.1)">
       <defs>
        <path d="M 31.78125 34.625 
Q 24.75 34.625 20.71875 30.859375 
Q 16.703125 27.09375 16.703125 20.515625 
Q 16.703125 13.921875 20.71875 10.15625 
Q 24.75 6.390625 31.78125 6.390625 
Q 38.8125 6.390625 42.859375 10.171875 
Q 46.921875 13.96875 46.921875 20.515625 
Q 46.921875 27.09375 42.890625 30.859375 
Q 38.875 34.625 31.78125 34.625 
z
M 21.921875 38.8125 
Q 15.578125 40.375 12.03125 44.71875 
Q 8.5 49.078125 8.5 55.328125 
Q 8.5 64.0625 14.71875 69.140625 
Q 20.953125 74.21875 31.78125 74.21875 
Q 42.671875 74.21875 48.875 69.140625 
Q 55.078125 64.0625 55.078125 55.328125 
Q 55.078125 49.078125 51.53125 44.71875 
Q 48 40.375 41.703125 38.8125 
Q 48.828125 37.15625 52.796875 32.3125 
Q 56.78125 27.484375 56.78125 20.515625 
Q 56.78125 9.90625 50.3125 4.234375 
Q 43.84375 -1.421875 31.78125 -1.421875 
Q 19.734375 -1.421875 13.25 4.234375 
Q 6.78125 9.90625 6.78125 20.515625 
Q 6.78125 27.484375 10.78125 32.3125 
Q 14.796875 37.15625 21.921875 38.8125 
z
M 18.3125 54.390625 
Q 18.3125 48.734375 21.84375 45.5625 
Q 25.390625 42.390625 31.78125 42.390625 
Q 38.140625 42.390625 41.71875 45.5625 
Q 45.3125 48.734375 45.3125 54.390625 
Q 45.3125 60.0625 41.71875 63.234375 
Q 38.140625 66.40625 31.78125 66.40625 
Q 25.390625 66.40625 21.84375 63.234375 
Q 18.3125 60.0625 18.3125 54.390625 
z
" id="DejaVuSans-56"/>
        <path d="M 33.015625 40.375 
Q 26.375 40.375 22.484375 35.828125 
Q 18.609375 31.296875 18.609375 23.390625 
Q 18.609375 15.53125 22.484375 10.953125 
Q 26.375 6.390625 33.015625 6.390625 
Q 39.65625 6.390625 43.53125 10.953125 
Q 47.40625 15.53125 47.40625 23.390625 
Q 47.40625 31.296875 43.53125 35.828125 
Q 39.65625 40.375 33.015625 40.375 
z
M 52.59375 71.296875 
L 52.59375 62.3125 
Q 48.875 64.0625 45.09375 64.984375 
Q 41.3125 65.921875 37.59375 65.921875 
Q 27.828125 65.921875 22.671875 59.328125 
Q 17.53125 52.734375 16.796875 39.40625 
Q 19.671875 43.65625 24.015625 45.921875 
Q 28.375 48.1875 33.59375 48.1875 
Q 44.578125 48.1875 50.953125 41.515625 
Q 57.328125 34.859375 57.328125 23.390625 
Q 57.328125 12.15625 50.6875 5.359375 
Q 44.046875 -1.421875 33.015625 -1.421875 
Q 20.359375 -1.421875 13.671875 8.265625 
Q 6.984375 17.96875 6.984375 36.375 
Q 6.984375 53.65625 15.1875 63.9375 
Q 23.390625 74.21875 37.203125 74.21875 
Q 40.921875 74.21875 44.703125 73.484375 
Q 48.484375 72.75 52.59375 71.296875 
z
" id="DejaVuSans-54"/>
       </defs>
       <use xlink:href="#DejaVuSans-49"/>
       <use x="63.623047" xlink:href="#DejaVuSans-50"/>
       <use x="127.246094" xlink:href="#DejaVuSans-58"/>
       <use x="160.9375" xlink:href="#DejaVuSans-50"/>
       <use x="224.560547" xlink:href="#DejaVuSans-56"/>
       <use x="288.183594" xlink:href="#DejaVuSans-58"/>
       <use x="321.875" xlink:href="#DejaVuSans-49"/>
       <use x="385.498047" xlink:href="#DejaVuSans-54"/>
      </g>
     </g>
    </g>
    <g id="xtick_3">
     <g id="line2d_3">
      <g>
       <use style="stroke:#000000;stroke-width:0.8;" x="181.047273" xlink:href="#m68b8ef1d55" y="448.56"/>
      </g>
     </g>
     <g id="text_3">
      <!-- 12:29:08 -->
      <g transform="translate(183.806648 500.4725)rotate(-90)scale(0.1 -0.1)">
       <defs>
        <path d="M 10.984375 1.515625 
L 10.984375 10.5 
Q 14.703125 8.734375 18.5 7.8125 
Q 22.3125 6.890625 25.984375 6.890625 
Q 35.75 6.890625 40.890625 13.453125 
Q 46.046875 20.015625 46.78125 33.40625 
Q 43.953125 29.203125 39.59375 26.953125 
Q 35.25 24.703125 29.984375 24.703125 
Q 19.046875 24.703125 12.671875 31.3125 
Q 6.296875 37.9375 6.296875 49.421875 
Q 6.296875 60.640625 12.9375 67.421875 
Q 19.578125 74.21875 30.609375 74.21875 
Q 43.265625 74.21875 49.921875 64.515625 
Q 56.59375 54.828125 56.59375 36.375 
Q 56.59375 19.140625 48.40625 8.859375 
Q 40.234375 -1.421875 26.421875 -1.421875 
Q 22.703125 -1.421875 18.890625 -0.6875 
Q 15.09375 0.046875 10.984375 1.515625 
z
M 30.609375 32.421875 
Q 37.25 32.421875 41.125 36.953125 
Q 45.015625 41.5 45.015625 49.421875 
Q 45.015625 57.28125 41.125 61.84375 
Q 37.25 66.40625 30.609375 66.40625 
Q 23.96875 66.40625 20.09375 61.84375 
Q 16.21875 57.28125 16.21875 49.421875 
Q 16.21875 41.5 20.09375 36.953125 
Q 23.96875 32.421875 30.609375 32.421875 
z
" id="DejaVuSans-57"/>
        <path d="M 31.78125 66.40625 
Q 24.171875 66.40625 20.328125 58.90625 
Q 16.5 51.421875 16.5 36.375 
Q 16.5 21.390625 20.328125 13.890625 
Q 24.171875 6.390625 31.78125 6.390625 
Q 39.453125 6.390625 43.28125 13.890625 
Q 47.125 21.390625 47.125 36.375 
Q 47.125 51.421875 43.28125 58.90625 
Q 39.453125 66.40625 31.78125 66.40625 
z
M 31.78125 74.21875 
Q 44.046875 74.21875 50.515625 64.515625 
Q 56.984375 54.828125 56.984375 36.375 
Q 56.984375 17.96875 50.515625 8.265625 
Q 44.046875 -1.421875 31.78125 -1.421875 
Q 19.53125 -1.421875 13.0625 8.265625 
Q 6.59375 17.96875 6.59375 36.375 
Q 6.59375 54.828125 13.0625 64.515625 
Q 19.53125 74.21875 31.78125 74.21875 
z
" id="DejaVuSans-48"/>
       </defs>
       <use xlink:href="#DejaVuSans-49"/>
       <use x="63.623047" xlink:href="#DejaVuSans-50"/>
       <use x="127.246094" xlink:href="#DejaVuSans-58"/>
       <use x="160.9375" xlink:href="#DejaVuSans-50"/>
       <use x="224.560547" xlink:href="#DejaVuSans-57"/>
       <use x="288.183594" xlink:href="#DejaVuSans-58"/>
       <use x="321.875" xlink:href="#DejaVuSans-48"/>
       <use x="385.498047" xlink:href="#DejaVuSans-56"/>
      </g>
     </g>
    </g>
    <g id="xtick_4">
     <g id="line2d_4">
      <g>
       <use style="stroke:#000000;stroke-width:0.8;" x="205.396364" xlink:href="#m68b8ef1d55" y="448.56"/>
      </g>
     </g>
     <g id="text_4">
      <!-- 12:30:00 -->
      <g transform="translate(208.155739 500.4725)rotate(-90)scale(0.1 -0.1)">
       <defs>
        <path d="M 40.578125 39.3125 
Q 47.65625 37.796875 51.625 33 
Q 55.609375 28.21875 55.609375 21.1875 
Q 55.609375 10.40625 48.1875 4.484375 
Q 40.765625 -1.421875 27.09375 -1.421875 
Q 22.515625 -1.421875 17.65625 -0.515625 
Q 12.796875 0.390625 7.625 2.203125 
L 7.625 11.71875 
Q 11.71875 9.328125 16.59375 8.109375 
Q 21.484375 6.890625 26.8125 6.890625 
Q 36.078125 6.890625 40.9375 10.546875 
Q 45.796875 14.203125 45.796875 21.1875 
Q 45.796875 27.640625 41.28125 31.265625 
Q 36.765625 34.90625 28.71875 34.90625 
L 20.21875 34.90625 
L 20.21875 43.015625 
L 29.109375 43.015625 
Q 36.375 43.015625 40.234375 45.921875 
Q 44.09375 48.828125 44.09375 54.296875 
Q 44.09375 59.90625 40.109375 62.90625 
Q 36.140625 65.921875 28.71875 65.921875 
Q 24.65625 65.921875 20.015625 65.03125 
Q 15.375 64.15625 9.8125 62.3125 
L 9.8125 71.09375 
Q 15.4375 72.65625 20.34375 73.4375 
Q 25.25 74.21875 29.59375 74.21875 
Q 40.828125 74.21875 47.359375 69.109375 
Q 53.90625 64.015625 53.90625 55.328125 
Q 53.90625 49.265625 50.4375 45.09375 
Q 46.96875 40.921875 40.578125 39.3125 
z
" id="DejaVuSans-51"/>
       </defs>
       <use xlink:href="#DejaVuSans-49"/>
       <use x="63.623047" xlink:href="#DejaVuSans-50"/>
       <use x="127.246094" xlink:href="#DejaVuSans-58"/>
       <use x="160.9375" xlink:href="#DejaVuSans-51"/>
       <use x="224.560547" xlink:href="#DejaVuSans-48"/>
       <use x="288.183594" xlink:href="#DejaVuSans-58"/>
       <use x="321.875" xlink:href="#DejaVuSans-48"/>
       <use x="385.498047" xlink:href="#DejaVuSans-48"/>
      </g>
     </g>
    </g>
    <g id="xtick_5">
     <g id="line2d_5">
      <g>
       <use style="stroke:#000000;stroke-width:0.8;" x="229.745455" xlink:href="#m68b8ef1d55" y="448.56"/>
      </g>
     </g>
     <g id="text_5">
      <!-- 12:30:52 -->
      <g transform="translate(232.50483 500.4725)rotate(-90)scale(0.1 -0.1)">
       <defs>
        <path d="M 10.796875 72.90625 
L 49.515625 72.90625 
L 49.515625 64.59375 
L 19.828125 64.59375 
L 19.828125 46.734375 
Q 21.96875 47.46875 24.109375 47.828125 
Q 26.265625 48.1875 28.421875 48.1875 
Q 40.625 48.1875 47.75 41.5 
Q 54.890625 34.8125 54.890625 23.390625 
Q 54.890625 11.625 47.5625 5.09375 
Q 40.234375 -1.421875 26.90625 -1.421875 
Q 22.3125 -1.421875 17.546875 -0.640625 
Q 12.796875 0.140625 7.71875 1.703125 
L 7.71875 11.625 
Q 12.109375 9.234375 16.796875 8.0625 
Q 21.484375 6.890625 26.703125 6.890625 
Q 35.15625 6.890625 40.078125 11.328125 
Q 45.015625 15.765625 45.015625 23.390625 
Q 45.015625 31 40.078125 35.4375 
Q 35.15625 39.890625 26.703125 39.890625 
Q 22.75 39.890625 18.8125 39.015625 
Q 14.890625 38.140625 10.796875 36.28125 
z
" id="DejaVuSans-53"/>
       </defs>
       <use xlink:href="#DejaVuSans-49"/>
       <use x="63.623047" xlink:href="#DejaVuSans-50"/>
       <use x="127.246094" xlink:href="#DejaVuSans-58"/>
       <use x="160.9375" xlink:href="#DejaVuSans-51"/>
       <use x="224.560547" xlink:href="#DejaVuSans-48"/>
       <use x="288.183594" xlink:href="#DejaVuSans-58"/>
       <use x="321.875" xlink:href="#DejaVuSans-53"/>
       <use x="385.498047" xlink:href="#DejaVuSans-50"/>
      </g>
     </g>
    </g>
    <g id="xtick_6">
     <g id="line2d_6">
      <g>
       <use style="stroke:#000000;stroke-width:0.8;" x="254.094545" xlink:href="#m68b8ef1d55" y="448.56"/>
      </g>
     </g>
     <g id="text_6">
      <!-- 12:31:44 -->
      <g transform="translate(256.85392 500.4725)rotate(-90)scale(0.1 -0.1)">
       <use xlink:href="#DejaVuSans-49"/>
       <use x="63.623047" xlink:href="#DejaVuSans-50"/>
       <use x="127.246094" xlink:href="#DejaVuSans-58"/>
       <use x="160.9375" xlink:href="#DejaVuSans-51"/>
       <use x="224.560547" xlink:href="#DejaVuSans-49"/>
       <use x="288.183594" xlink:href="#DejaVuSans-58"/>
       <use x="321.875" xlink:href="#DejaVuSans-52"/>
       <use x="385.498047" xlink:href="#DejaVuSans-52"/>
      </g>
     </g>
    </g>
    <g id="xtick_7">
     <g id="line2d_7">
      <g>
       <use style="stroke:#000000;stroke-width:0.8;" x="278.443636" xlink:href="#m68b8ef1d55" y="448.56"/>
      </g>
     </g>
     <g id="text_7">
      <!-- 12:32:36 -->
      <g transform="translate(281.203011 500.4725)rotate(-90)scale(0.1 -0.1)">
       <use xlink:href="#DejaVuSans-49"/>
       <use x="63.623047" xlink:href="#DejaVuSans-50"/>
       <use x="127.246094" xlink:href="#DejaVuSans-58"/>
       <use x="160.9375" xlink:href="#DejaVuSans-51"/>
       <use x="224.560547" xlink:href="#DejaVuSans-50"/>
       <use x="288.183594" xlink:href="#DejaVuSans-58"/>
       <use x="321.875" xlink:href="#DejaVuSans-51"/>
       <use x="385.498047" xlink:href="#DejaVuSans-54"/>
      </g>
     </g>
    </g>
    <g id="xtick_8">
     <g id="line2d_8">
      <g>
       <use style="stroke:#000000;stroke-width:0.8;" x="302.792727" xlink:href="#m68b8ef1d55" y="448.56"/>
      </g>
     </g>
     <g id="text_8">
      <!-- 12:33:28 -->
      <g transform="translate(305.552102 500.4725)rotate(-90)scale(0.1 -0.1)">
       <use xlink:href="#DejaVuSans-49"/>
       <use x="63.623047" xlink:href="#DejaVuSans-50"/>
       <use x="127.246094" xlink:href="#DejaVuSans-58"/>
       <use x="160.9375" xlink:href="#DejaVuSans-51"/>
       <use x="224.560547" xlink:href="#DejaVuSans-51"/>
       <use x="288.183594" xlink:href="#DejaVuSans-58"/>
       <use x="321.875" xlink:href="#DejaVuSans-50"/>
       <use x="385.498047" xlink:href="#DejaVuSans-56"/>
      </g>
     </g>
    </g>
    <g id="xtick_9">
     <g id="line2d_9">
      <g>
       <use style="stroke:#000000;stroke-width:0.8;" x="327.141818" xlink:href="#m68b8ef1d55" y="448.56"/>
      </g>
     </g>
     <g id="text_9">
      <!-- 12:34:20 -->
      <g transform="translate(329.901193 500.4725)rotate(-90)scale(0.1 -0.1)">
       <use xlink:href="#DejaVuSans-49"/>
       <use x="63.623047" xlink:href="#DejaVuSans-50"/>
       <use x="127.246094" xlink:href="#DejaVuSans-58"/>
       <use x="160.9375" xlink:href="#DejaVuSans-51"/>
       <use x="224.560547" xlink:href="#DejaVuSans-52"/>
       <use x="288.183594" xlink:href="#DejaVuSans-58"/>
       <use x="321.875" xlink:href="#DejaVuSans-50"/>
       <use x="385.498047" xlink:href="#DejaVuSans-48"/>
      </g>
     </g>
    </g>
    <g id="xtick_10">
     <g id="line2d_10">
      <g>
       <use style="stroke:#000000;stroke-width:0.8;" x="351.490909" xlink:href="#m68b8ef1d55" y="448.56"/>
      </g>
     </g>
     <g id="text_10">
      <!-- 12:35:12 -->
      <g transform="translate(354.250284 500.4725)rotate(-90)scale(0.1 -0.1)">
       <use xlink:href="#DejaVuSans-49"/>
       <use x="63.623047" xlink:href="#DejaVuSans-50"/>
       <use x="127.246094" xlink:href="#DejaVuSans-58"/>
       <use x="160.9375" xlink:href="#DejaVuSans-51"/>
       <use x="224.560547" xlink:href="#DejaVuSans-53"/>
       <use x="288.183594" xlink:href="#DejaVuSans-58"/>
       <use x="321.875" xlink:href="#DejaVuSans-49"/>
       <use x="385.498047" xlink:href="#DejaVuSans-50"/>
      </g>
     </g>
    </g>
    <g id="xtick_11">
     <g id="line2d_11">
      <g>
       <use style="stroke:#000000;stroke-width:0.8;" x="375.84" xlink:href="#m68b8ef1d55" y="448.56"/>
      </g>
     </g>
     <g id="text_11">
      <!-- 12:36:04 -->
      <g transform="translate(378.599375 500.4725)rotate(-90)scale(0.1 -0.1)">
       <use xlink:href="#DejaVuSans-49"/>
       <use x="63.623047" xlink:href="#DejaVuSans-50"/>
       <use x="127.246094" xlink:href="#DejaVuSans-58"/>
       <use x="160.9375" xlink:href="#DejaVuSans-51"/>
       <use x="224.560547" xlink:href="#DejaVuSans-54"/>
       <use x="288.183594" xlink:href="#DejaVuSans-58"/>
       <use x="321.875" xlink:href="#DejaVuSans-48"/>
       <use x="385.498047" xlink:href="#DejaVuSans-52"/>
      </g>
     </g>
    </g>
    <g id="xtick_12">
     <g id="line2d_12">
      <g>
       <use style="stroke:#000000;stroke-width:0.8;" x="400.189091" xlink:href="#m68b8ef1d55" y="448.56"/>
      </g>
     </g>
     <g id="text_12">
      <!-- 12:36:56 -->
      <g transform="translate(402.948466 500.4725)rotate(-90)scale(0.1 -0.1)">
       <use xlink:href="#DejaVuSans-49"/>
       <use x="63.623047" xlink:href="#DejaVuSans-50"/>
       <use x="127.246094" xlink:href="#DejaVuSans-58"/>
       <use x="160.9375" xlink:href="#DejaVuSans-51"/>
       <use x="224.560547" xlink:href="#DejaVuSans-54"/>
       <use x="288.183594" xlink:href="#DejaVuSans-58"/>
       <use x="321.875" xlink:href="#DejaVuSans-53"/>
       <use x="385.498047" xlink:href="#DejaVuSans-54"/>
      </g>
     </g>
    </g>
    <g id="xtick_13">
     <g id="line2d_13">
      <g>
       <use style="stroke:#000000;stroke-width:0.8;" x="424.538182" xlink:href="#m68b8ef1d55" y="448.56"/>
      </g>
     </g>
     <g id="text_13">
      <!-- 12:37:47 -->
      <g transform="translate(427.297557 500.4725)rotate(-90)scale(0.1 -0.1)">
       <use xlink:href="#DejaVuSans-49"/>
       <use x="63.623047" xlink:href="#DejaVuSans-50"/>
       <use x="127.246094" xlink:href="#DejaVuSans-58"/>
       <use x="160.9375" xlink:href="#DejaVuSans-51"/>
       <use x="224.560547" xlink:href="#DejaVuSans-55"/>
       <use x="288.183594" xlink:href="#DejaVuSans-58"/>
       <use x="321.875" xlink:href="#DejaVuSans-52"/>
       <use x="385.498047" xlink:href="#DejaVuSans-55"/>
      </g>
     </g>
    </g>
    <g id="xtick_14">
     <g id="line2d_14">
      <g>
       <use style="stroke:#000000;stroke-width:0.8;" x="448.887273" xlink:href="#m68b8ef1d55" y="448.56"/>
      </g>
     </g>
     <g id="text_14">
      <!-- 12:38:39 -->
      <g transform="translate(451.646648 500.4725)rotate(-90)scale(0.1 -0.1)">
       <use xlink:href="#DejaVuSans-49"/>
       <use x="63.623047" xlink:href="#DejaVuSans-50"/>
       <use x="127.246094" xlink:href="#DejaVuSans-58"/>
       <use x="160.9375" xlink:href="#DejaVuSans-51"/>
       <use x="224.560547" xlink:href="#DejaVuSans-56"/>
       <use x="288.183594" xlink:href="#DejaVuSans-58"/>
       <use x="321.875" xlink:href="#DejaVuSans-51"/>
       <use x="385.498047" xlink:href="#DejaVuSans-57"/>
      </g>
     </g>
    </g>
    <g id="xtick_15">
     <g id="line2d_15">
      <g>
       <use style="stroke:#000000;stroke-width:0.8;" x="473.236364" xlink:href="#m68b8ef1d55" y="448.56"/>
      </g>
     </g>
     <g id="text_15">
      <!-- 12:39:31 -->
      <g transform="translate(475.995739 500.4725)rotate(-90)scale(0.1 -0.1)">
       <use xlink:href="#DejaVuSans-49"/>
       <use x="63.623047" xlink:href="#DejaVuSans-50"/>
       <use x="127.246094" xlink:href="#DejaVuSans-58"/>
       <use x="160.9375" xlink:href="#DejaVuSans-51"/>
       <use x="224.560547" xlink:href="#DejaVuSans-57"/>
       <use x="288.183594" xlink:href="#DejaVuSans-58"/>
       <use x="321.875" xlink:href="#DejaVuSans-51"/>
       <use x="385.498047" xlink:href="#DejaVuSans-49"/>
      </g>
     </g>
    </g>
    <g id="xtick_16">
     <g id="line2d_16">
      <g>
       <use style="stroke:#000000;stroke-width:0.8;" x="497.585455" xlink:href="#m68b8ef1d55" y="448.56"/>
      </g>
     </g>
     <g id="text_16">
      <!-- 12:40:23 -->
      <g transform="translate(500.34483 500.4725)rotate(-90)scale(0.1 -0.1)">
       <use xlink:href="#DejaVuSans-49"/>
       <use x="63.623047" xlink:href="#DejaVuSans-50"/>
       <use x="127.246094" xlink:href="#DejaVuSans-58"/>
       <use x="160.9375" xlink:href="#DejaVuSans-52"/>
       <use x="224.560547" xlink:href="#DejaVuSans-48"/>
       <use x="288.183594" xlink:href="#DejaVuSans-58"/>
       <use x="321.875" xlink:href="#DejaVuSans-50"/>
       <use x="385.498047" xlink:href="#DejaVuSans-51"/>
      </g>
     </g>
    </g>
    <g id="xtick_17">
     <g id="line2d_17">
      <g>
       <use style="stroke:#000000;stroke-width:0.8;" x="521.934545" xlink:href="#m68b8ef1d55" y="448.56"/>
      </g>
     </g>
     <g id="text_17">
      <!-- 12:41:15 -->
      <g transform="translate(524.69392 500.4725)rotate(-90)scale(0.1 -0.1)">
       <use xlink:href="#DejaVuSans-49"/>
       <use x="63.623047" xlink:href="#DejaVuSans-50"/>
       <use x="127.246094" xlink:href="#DejaVuSans-58"/>
       <use x="160.9375" xlink:href="#DejaVuSans-52"/>
       <use x="224.560547" xlink:href="#DejaVuSans-49"/>
       <use x="288.183594" xlink:href="#DejaVuSans-58"/>
       <use x="321.875" xlink:href="#DejaVuSans-49"/>
       <use x="385.498047" xlink:href="#DejaVuSans-53"/>
      </g>
     </g>
    </g>
    <g id="xtick_18">
     <g id="line2d_18">
      <g>
       <use style="stroke:#000000;stroke-width:0.8;" x="546.283636" xlink:href="#m68b8ef1d55" y="448.56"/>
      </g>
     </g>
     <g id="text_18">
      <!-- 12:42:07 -->
      <g transform="translate(549.043011 500.4725)rotate(-90)scale(0.1 -0.1)">
       <use xlink:href="#DejaVuSans-49"/>
       <use x="63.623047" xlink:href="#DejaVuSans-50"/>
       <use x="127.246094" xlink:href="#DejaVuSans-58"/>
       <use x="160.9375" xlink:href="#DejaVuSans-52"/>
       <use x="224.560547" xlink:href="#DejaVuSans-50"/>
       <use x="288.183594" xlink:href="#DejaVuSans-58"/>
       <use x="321.875" xlink:href="#DejaVuSans-48"/>
       <use x="385.498047" xlink:href="#DejaVuSans-55"/>
      </g>
     </g>
    </g>
    <g id="xtick_19">
     <g id="line2d_19">
      <g>
       <use style="stroke:#000000;stroke-width:0.8;" x="570.632727" xlink:href="#m68b8ef1d55" y="448.56"/>
      </g>
     </g>
     <g id="text_19">
      <!-- 12:42:58 -->
      <g transform="translate(573.392102 500.4725)rotate(-90)scale(0.1 -0.1)">
       <use xlink:href="#DejaVuSans-49"/>
       <use x="63.623047" xlink:href="#DejaVuSans-50"/>
       <use x="127.246094" xlink:href="#DejaVuSans-58"/>
       <use x="160.9375" xlink:href="#DejaVuSans-52"/>
       <use x="224.560547" xlink:href="#DejaVuSans-50"/>
       <use x="288.183594" xlink:href="#DejaVuSans-58"/>
       <use x="321.875" xlink:href="#DejaVuSans-53"/>
       <use x="385.498047" xlink:href="#DejaVuSans-56"/>
      </g>
     </g>
    </g>
    <g id="xtick_20">
     <g id="line2d_20">
      <g>
       <use style="stroke:#000000;stroke-width:0.8;" x="594.981818" xlink:href="#m68b8ef1d55" y="448.56"/>
      </g>
     </g>
     <g id="text_20">
      <!-- 12:43:50 -->
      <g transform="translate(597.741193 500.4725)rotate(-90)scale(0.1 -0.1)">
       <use xlink:href="#DejaVuSans-49"/>
       <use x="63.623047" xlink:href="#DejaVuSans-50"/>
       <use x="127.246094" xlink:href="#DejaVuSans-58"/>
       <use x="160.9375" xlink:href="#DejaVuSans-52"/>
       <use x="224.560547" xlink:href="#DejaVuSans-51"/>
       <use x="288.183594" xlink:href="#DejaVuSans-58"/>
       <use x="321.875" xlink:href="#DejaVuSans-53"/>
       <use x="385.498047" xlink:href="#DejaVuSans-48"/>
      </g>
     </g>
    </g>
    <g id="xtick_21">
     <g id="line2d_21">
      <g>
       <use style="stroke:#000000;stroke-width:0.8;" x="619.330909" xlink:href="#m68b8ef1d55" y="448.56"/>
      </g>
     </g>
     <g id="text_21">
      <!-- 12:44:42 -->
      <g transform="translate(622.090284 500.4725)rotate(-90)scale(0.1 -0.1)">
       <use xlink:href="#DejaVuSans-49"/>
       <use x="63.623047" xlink:href="#DejaVuSans-50"/>
       <use x="127.246094" xlink:href="#DejaVuSans-58"/>
       <use x="160.9375" xlink:href="#DejaVuSans-52"/>
       <use x="224.560547" xlink:href="#DejaVuSans-52"/>
       <use x="288.183594" xlink:href="#DejaVuSans-58"/>
       <use x="321.875" xlink:href="#DejaVuSans-52"/>
       <use x="385.498047" xlink:href="#DejaVuSans-50"/>
      </g>
     </g>
    </g>
    <g id="text_22">
     <!-- timestamp -->
     <g transform="translate(354.264375 510.55125)scale(0.08 -0.08)">
      <defs>
       <path d="M 18.3125 70.21875 
L 18.3125 54.6875 
L 36.8125 54.6875 
L 36.8125 47.703125 
L 18.3125 47.703125 
L 18.3125 18.015625 
Q 18.3125 11.328125 20.140625 9.421875 
Q 21.96875 7.515625 27.59375 7.515625 
L 36.8125 7.515625 
L 36.8125 0 
L 27.59375 0 
Q 17.1875 0 13.234375 3.875 
Q 9.28125 7.765625 9.28125 18.015625 
L 9.28125 47.703125 
L 2.6875 47.703125 
L 2.6875 54.6875 
L 9.28125 54.6875 
L 9.28125 70.21875 
z
" id="DejaVuSans-116"/>
       <path d="M 9.421875 54.6875 
L 18.40625 54.6875 
L 18.40625 0 
L 9.421875 0 
z
M 9.421875 75.984375 
L 18.40625 75.984375 
L 18.40625 64.59375 
L 9.421875 64.59375 
z
" id="DejaVuSans-105"/>
       <path d="M 52 44.1875 
Q 55.375 50.25 60.0625 53.125 
Q 64.75 56 71.09375 56 
Q 79.640625 56 84.28125 50.015625 
Q 88.921875 44.046875 88.921875 33.015625 
L 88.921875 0 
L 79.890625 0 
L 79.890625 32.71875 
Q 79.890625 40.578125 77.09375 44.375 
Q 74.3125 48.1875 68.609375 48.1875 
Q 61.625 48.1875 57.5625 43.546875 
Q 53.515625 38.921875 53.515625 30.90625 
L 53.515625 0 
L 44.484375 0 
L 44.484375 32.71875 
Q 44.484375 40.625 41.703125 44.40625 
Q 38.921875 48.1875 33.109375 48.1875 
Q 26.21875 48.1875 22.15625 43.53125 
Q 18.109375 38.875 18.109375 30.90625 
L 18.109375 0 
L 9.078125 0 
L 9.078125 54.6875 
L 18.109375 54.6875 
L 18.109375 46.1875 
Q 21.1875 51.21875 25.484375 53.609375 
Q 29.78125 56 35.6875 56 
Q 41.65625 56 45.828125 52.96875 
Q 50 49.953125 52 44.1875 
z
" id="DejaVuSans-109"/>
       <path d="M 56.203125 29.59375 
L 56.203125 25.203125 
L 14.890625 25.203125 
Q 15.484375 15.921875 20.484375 11.0625 
Q 25.484375 6.203125 34.421875 6.203125 
Q 39.59375 6.203125 44.453125 7.46875 
Q 49.3125 8.734375 54.109375 11.28125 
L 54.109375 2.78125 
Q 49.265625 0.734375 44.1875 -0.34375 
Q 39.109375 -1.421875 33.890625 -1.421875 
Q 20.796875 -1.421875 13.15625 6.1875 
Q 5.515625 13.8125 5.515625 26.8125 
Q 5.515625 40.234375 12.765625 48.109375 
Q 20.015625 56 32.328125 56 
Q 43.359375 56 49.78125 48.890625 
Q 56.203125 41.796875 56.203125 29.59375 
z
M 47.21875 32.234375 
Q 47.125 39.59375 43.09375 43.984375 
Q 39.0625 48.390625 32.421875 48.390625 
Q 24.90625 48.390625 20.390625 44.140625 
Q 15.875 39.890625 15.1875 32.171875 
z
" id="DejaVuSans-101"/>
       <path d="M 44.28125 53.078125 
L 44.28125 44.578125 
Q 40.484375 46.53125 36.375 47.5 
Q 32.28125 48.484375 27.875 48.484375 
Q 21.1875 48.484375 17.84375 46.4375 
Q 14.5 44.390625 14.5 40.28125 
Q 14.5 37.15625 16.890625 35.375 
Q 19.28125 33.59375 26.515625 31.984375 
L 29.59375 31.296875 
Q 39.15625 29.25 43.1875 25.515625 
Q 47.21875 21.78125 47.21875 15.09375 
Q 47.21875 7.46875 41.1875 3.015625 
Q 35.15625 -1.421875 24.609375 -1.421875 
Q 20.21875 -1.421875 15.453125 -0.5625 
Q 10.6875 0.296875 5.421875 2 
L 5.421875 11.28125 
Q 10.40625 8.6875 15.234375 7.390625 
Q 20.0625 6.109375 24.8125 6.109375 
Q 31.15625 6.109375 34.5625 8.28125 
Q 37.984375 10.453125 37.984375 14.40625 
Q 37.984375 18.0625 35.515625 20.015625 
Q 33.0625 21.96875 24.703125 23.78125 
L 21.578125 24.515625 
Q 13.234375 26.265625 9.515625 29.90625 
Q 5.8125 33.546875 5.8125 39.890625 
Q 5.8125 47.609375 11.28125 51.796875 
Q 16.75 56 26.8125 56 
Q 31.78125 56 36.171875 55.265625 
Q 40.578125 54.546875 44.28125 53.078125 
z
" id="DejaVuSans-115"/>
       <path d="M 34.28125 27.484375 
Q 23.390625 27.484375 19.1875 25 
Q 14.984375 22.515625 14.984375 16.5 
Q 14.984375 11.71875 18.140625 8.90625 
Q 21.296875 6.109375 26.703125 6.109375 
Q 34.1875 6.109375 38.703125 11.40625 
Q 43.21875 16.703125 43.21875 25.484375 
L 43.21875 27.484375 
z
M 52.203125 31.203125 
L 52.203125 0 
L 43.21875 0 
L 43.21875 8.296875 
Q 40.140625 3.328125 35.546875 0.953125 
Q 30.953125 -1.421875 24.3125 -1.421875 
Q 15.921875 -1.421875 10.953125 3.296875 
Q 6 8.015625 6 15.921875 
Q 6 25.140625 12.171875 29.828125 
Q 18.359375 34.515625 30.609375 34.515625 
L 43.21875 34.515625 
L 43.21875 35.40625 
Q 43.21875 41.609375 39.140625 45 
Q 35.0625 48.390625 27.6875 48.390625 
Q 23 48.390625 18.546875 47.265625 
Q 14.109375 46.140625 10.015625 43.890625 
L 10.015625 52.203125 
Q 14.9375 54.109375 19.578125 55.046875 
Q 24.21875 56 28.609375 56 
Q 40.484375 56 46.34375 49.84375 
Q 52.203125 43.703125 52.203125 31.203125 
z
" id="DejaVuSans-97"/>
       <path d="M 18.109375 8.203125 
L 18.109375 -20.796875 
L 9.078125 -20.796875 
L 9.078125 54.6875 
L 18.109375 54.6875 
L 18.109375 46.390625 
Q 20.953125 51.265625 25.265625 53.625 
Q 29.59375 56 35.59375 56 
Q 45.5625 56 51.78125 48.09375 
Q 58.015625 40.1875 58.015625 27.296875 
Q 58.015625 14.40625 51.78125 6.484375 
Q 45.5625 -1.421875 35.59375 -1.421875 
Q 29.59375 -1.421875 25.265625 0.953125 
Q 20.953125 3.328125 18.109375 8.203125 
z
M 48.6875 27.296875 
Q 48.6875 37.203125 44.609375 42.84375 
Q 40.53125 48.484375 33.40625 48.484375 
Q 26.265625 48.484375 22.1875 42.84375 
Q 18.109375 37.203125 18.109375 27.296875 
Q 18.109375 17.390625 22.1875 11.75 
Q 26.265625 6.109375 33.40625 6.109375 
Q 40.53125 6.109375 44.609375 11.75 
Q 48.6875 17.390625 48.6875 27.296875 
z
" id="DejaVuSans-112"/>
      </defs>
      <use xlink:href="#DejaVuSans-116"/>
      <use x="39.208984" xlink:href="#DejaVuSans-105"/>
      <use x="66.992188" xlink:href="#DejaVuSans-109"/>
      <use x="164.404297" xlink:href="#DejaVuSans-101"/>
      <use x="225.927734" xlink:href="#DejaVuSans-115"/>
      <use x="278.027344" xlink:href="#DejaVuSans-116"/>
      <use x="317.236328" xlink:href="#DejaVuSans-97"/>
      <use x="378.515625" xlink:href="#DejaVuSans-109"/>
      <use x="475.927734" xlink:href="#DejaVuSans-112"/>
     </g>
    </g>
   </g>
   <g id="matplotlib.axis_2">
    <g id="ytick_1">
     <g id="line2d_22">
      <defs>
       <path d="M 0 0 
L -3.5 0 
" id="m664bd43349" style="stroke:#000000;stroke-width:0.8;"/>
      </defs>
      <g>
       <use style="stroke:#000000;stroke-width:0.8;" x="108" xlink:href="#m664bd43349" y="394.299146"/>
      </g>
     </g>
     <g id="text_23">
      <!-- 13000 -->
      <g transform="translate(69.1875 398.098365)scale(0.1 -0.1)">
       <use xlink:href="#DejaVuSans-49"/>
       <use x="63.623047" xlink:href="#DejaVuSans-51"/>
       <use x="127.246094" xlink:href="#DejaVuSans-48"/>
       <use x="190.869141" xlink:href="#DejaVuSans-48"/>
       <use x="254.492188" xlink:href="#DejaVuSans-48"/>
      </g>
     </g>
    </g>
    <g id="ytick_2">
     <g id="line2d_23">
      <g>
       <use style="stroke:#000000;stroke-width:0.8;" x="108" xlink:href="#m664bd43349" y="308.673665"/>
      </g>
     </g>
     <g id="text_24">
      <!-- 13200 -->
      <g transform="translate(69.1875 312.472883)scale(0.1 -0.1)">
       <use xlink:href="#DejaVuSans-49"/>
       <use x="63.623047" xlink:href="#DejaVuSans-51"/>
       <use x="127.246094" xlink:href="#DejaVuSans-50"/>
       <use x="190.869141" xlink:href="#DejaVuSans-48"/>
       <use x="254.492188" xlink:href="#DejaVuSans-48"/>
      </g>
     </g>
    </g>
    <g id="ytick_3">
     <g id="line2d_24">
      <g>
       <use style="stroke:#000000;stroke-width:0.8;" x="108" xlink:href="#m664bd43349" y="223.048183"/>
      </g>
     </g>
     <g id="text_25">
      <!-- 13400 -->
      <g transform="translate(69.1875 226.847402)scale(0.1 -0.1)">
       <use xlink:href="#DejaVuSans-49"/>
       <use x="63.623047" xlink:href="#DejaVuSans-51"/>
       <use x="127.246094" xlink:href="#DejaVuSans-52"/>
       <use x="190.869141" xlink:href="#DejaVuSans-48"/>
       <use x="254.492188" xlink:href="#DejaVuSans-48"/>
      </g>
     </g>
    </g>
    <g id="ytick_4">
     <g id="line2d_25">
      <g>
       <use style="stroke:#000000;stroke-width:0.8;" x="108" xlink:href="#m664bd43349" y="137.422701"/>
      </g>
     </g>
     <g id="text_26">
      <!-- 13600 -->
      <g transform="translate(69.1875 141.22192)scale(0.1 -0.1)">
       <use xlink:href="#DejaVuSans-49"/>
       <use x="63.623047" xlink:href="#DejaVuSans-51"/>
       <use x="127.246094" xlink:href="#DejaVuSans-54"/>
       <use x="190.869141" xlink:href="#DejaVuSans-48"/>
       <use x="254.492188" xlink:href="#DejaVuSans-48"/>
      </g>
     </g>
    </g>
    <g id="text_27">
     <!-- MB -->
     <g transform="translate(63.52375 260.715625)rotate(-90)scale(0.08 -0.08)">
      <defs>
       <path d="M 9.8125 72.90625 
L 24.515625 72.90625 
L 43.109375 23.296875 
L 61.8125 72.90625 
L 76.515625 72.90625 
L 76.515625 0 
L 66.890625 0 
L 66.890625 64.015625 
L 48.09375 14.015625 
L 38.1875 14.015625 
L 19.390625 64.015625 
L 19.390625 0 
L 9.8125 0 
z
" id="DejaVuSans-77"/>
       <path d="M 19.671875 34.8125 
L 19.671875 8.109375 
L 35.5 8.109375 
Q 43.453125 8.109375 47.28125 11.40625 
Q 51.125 14.703125 51.125 21.484375 
Q 51.125 28.328125 47.28125 31.5625 
Q 43.453125 34.8125 35.5 34.8125 
z
M 19.671875 64.796875 
L 19.671875 42.828125 
L 34.28125 42.828125 
Q 41.5 42.828125 45.03125 45.53125 
Q 48.578125 48.25 48.578125 53.8125 
Q 48.578125 59.328125 45.03125 62.0625 
Q 41.5 64.796875 34.28125 64.796875 
z
M 9.8125 72.90625 
L 35.015625 72.90625 
Q 46.296875 72.90625 52.390625 68.21875 
Q 58.5 63.53125 58.5 54.890625 
Q 58.5 48.1875 55.375 44.234375 
Q 52.25 40.28125 46.1875 39.3125 
Q 53.46875 37.75 57.5 32.78125 
Q 61.53125 27.828125 61.53125 20.40625 
Q 61.53125 10.640625 54.890625 5.3125 
Q 48.25 0 35.984375 0 
L 9.8125 0 
z
" id="DejaVuSans-66"/>
      </defs>
      <use xlink:href="#DejaVuSans-77"/>
      <use x="86.279297" xlink:href="#DejaVuSans-66"/>
     </g>
    </g>
   </g>
   <g id="line2d_26">
    <path clip-path="url(#p73e12295d0)" d="M 132.349091 86.695152 
L 132.878419 83.840275 
L 133.407747 82.930152 
L 133.937075 81.262469 
L 134.466403 81.406265 
L 134.995731 79.526395 
L 135.525059 79.575496 
L 136.054387 78.12 
L 136.583715 81.776277 
L 137.113043 81.979695 
L 137.642372 80.594344 
L 138.1717 85.048513 
L 138.701028 104.494292 
L 139.759684 166.487908 
L 140.289012 229.374111 
L 140.81834 255.825563 
L 141.347668 296.930178 
L 141.876996 319.428992 
L 142.406324 365.573482 
L 142.935652 379.546245 
L 143.46498 401.115647 
L 143.994308 408.403649 
L 144.523636 409.108601 
L 145.052964 406.355433 
L 145.582292 405.103356 
L 146.111621 406.067841 
L 146.640949 408.742096 
L 147.170277 406.427331 
L 147.699605 407.547888 
L 148.228933 405.361136 
L 148.758261 405.887219 
L 149.287589 407.635568 
L 150.346245 406.885023 
L 150.875573 404.64391 
L 151.404901 407.256789 
L 151.934229 407.777611 
L 152.463557 407.695191 
L 152.992885 405.404977 
L 153.522213 406.769285 
L 154.051542 408.952529 
L 154.58087 408.552706 
L 155.110198 407.756567 
L 155.639526 406.753502 
L 156.168854 407.2866 
L 156.698182 408.708777 
L 157.22751 407.903871 
L 157.756838 407.404092 
L 158.286166 406.448374 
L 158.815494 408.740342 
L 159.344822 409.208556 
L 159.87415 408.249332 
L 160.403478 406.865734 
L 160.932806 404.87714 
L 161.462134 408.21426 
L 162.520791 408.235303 
L 163.050119 405.517208 
L 163.579447 406.472925 
L 164.108775 406.697387 
L 165.167431 406.506244 
L 165.696759 404.987617 
L 166.226087 408.15113 
L 166.755415 407.20418 
L 167.284743 406.937632 
L 167.814071 406.476432 
L 168.343399 406.841183 
L 168.872727 408.542185 
L 169.402055 408.235303 
L 169.931383 407.58296 
L 170.460711 405.857408 
L 170.99004 408.635126 
L 171.519368 408.596546 
L 172.048696 407.737278 
L 172.578024 405.692569 
L 173.107352 402.835938 
L 173.63668 408.210752 
L 174.166008 408.061695 
L 174.695336 406.755256 
L 175.224664 405.152457 
L 175.753992 404.824532 
L 176.28332 408.493083 
L 176.812648 407.675901 
L 177.341976 408.145869 
L 177.871304 406.790328 
L 178.400632 410.716661 
L 178.92996 410.111665 
L 179.459289 410.462387 
L 179.988617 408.619343 
L 181.047273 410.215128 
L 181.576601 410.130955 
L 182.105929 409.14718 
L 182.635257 408.463272 
L 183.164585 413.832826 
L 183.693913 412.889383 
L 184.223241 412.324721 
L 184.752569 410.948137 
L 185.281897 406.299318 
L 185.811225 409.906493 
L 186.340553 409.801276 
L 186.869881 415.100685 
L 187.399209 414.813093 
L 187.928538 414.942861 
L 188.457866 416.792919 
L 188.987194 411.949449 
L 190.04585 409.706582 
L 190.575178 412.84905 
L 191.104506 417.53645 
L 191.633834 417.510145 
L 192.163162 416.703485 
L 192.69249 410.984963 
L 193.221818 414.465879 
L 193.751146 414.634225 
L 194.280474 413.141903 
L 194.809802 410.281766 
L 195.33913 412.903412 
L 195.868458 412.024854 
L 196.397787 411.765319 
L 196.927115 412.082723 
L 197.456443 408.130086 
L 197.985771 412.102013 
L 198.515099 412.457995 
L 199.044427 412.470271 
L 199.573755 410.462387 
L 200.103083 409.503163 
L 200.632411 411.21644 
L 201.161739 411.255019 
L 201.691067 410.914819 
L 202.220395 409.334816 
L 202.749723 412.198461 
L 203.279051 411.972245 
L 203.808379 412.21249 
L 204.337708 410.921833 
L 204.867036 411.298859 
L 205.396364 412.957774 
L 205.925692 411.981013 
L 206.45502 411.312888 
L 206.984348 411.211179 
L 208.043004 413.536465 
L 208.572332 412.926209 
L 209.10166 411.27957 
L 209.630988 409.005138 
L 210.160316 412.177418 
L 210.689644 412.431691 
L 211.218972 412.21249 
L 211.7483 409.050731 
L 212.277628 409.671509 
L 212.806957 411.751291 
L 213.336285 411.482988 
L 214.394941 409.810044 
L 214.924269 411.428626 
L 215.453597 411.611002 
L 216.512253 411.679393 
L 217.041581 409.899479 
L 217.570909 412.417662 
L 218.100237 412.110781 
L 218.629565 410.551821 
L 219.158893 409.757436 
L 219.688221 409.689045 
L 220.217549 409.42425 
L 220.746877 408.971819 
L 221.276206 407.497033 
L 221.805534 407.703959 
L 222.334862 411.318149 
L 222.86419 411.709204 
L 223.922846 408.840298 
L 224.452174 410.018724 
L 224.981502 411.747783 
L 225.51083 411.540857 
L 226.040158 410.379968 
L 226.569486 409.799523 
L 227.098814 413.750406 
L 227.628142 414.500951 
L 228.15747 413.510161 
L 228.686798 412.179171 
L 229.216126 409.743407 
L 229.745455 416.787658 
L 230.274783 416.098489 
L 230.804111 415.995026 
L 231.333439 413.027919 
L 231.862767 411.453177 
L 232.392095 413.234845 
L 232.921423 413.027919 
L 233.450751 411.881058 
L 233.980079 409.543496 
L 234.509407 413.687276 
L 235.038735 413.652204 
L 235.568063 413.213801 
L 236.097391 410.066072 
L 236.626719 411.039325 
L 237.156047 412.517618 
L 237.685375 412.000303 
L 238.214704 411.912623 
L 238.744032 411.030557 
L 239.27336 412.882369 
L 239.802688 412.556198 
L 240.332016 412.750848 
L 240.861344 412.501836 
L 241.390672 410.441344 
L 241.92 412.757863 
L 242.449328 412.398373 
L 243.507984 409.620655 
L 244.037312 413.005122 
L 244.56664 413.703058 
L 245.095968 411.688161 
L 245.625296 411.183121 
L 246.154625 410.043275 
L 246.683953 412.840282 
L 247.213281 412.664921 
L 247.742609 410.974441 
L 248.271937 410.965673 
L 248.801265 410.707893 
L 249.330593 412.479039 
L 250.389249 411.923144 
L 250.918577 410.069579 
L 251.447905 413.594335 
L 252.506561 413.532958 
L 253.565217 410.872732 
L 254.094545 411.675885 
L 254.623874 411.290091 
L 255.153202 409.655727 
L 255.68253 409.789001 
L 256.211858 412.142346 
L 256.741186 412.307185 
L 257.270514 418.087083 
L 257.799842 416.820977 
L 258.32917 416.677181 
L 258.858498 419.498739 
L 259.387826 414.956889 
L 259.917154 412.240548 
L 260.446482 412.770138 
L 260.97581 411.077904 
L 261.505138 413.71358 
L 262.034466 414.187055 
L 262.563794 413.603103 
L 263.093123 411.754798 
L 263.622451 412.740327 
L 264.151779 412.894644 
L 264.681107 413.469828 
L 265.210435 411.923144 
L 265.739763 410.814863 
L 266.269091 413.690783 
L 266.798419 412.95076 
L 267.327747 412.8245 
L 267.857075 408.829777 
L 268.386403 412.46501 
L 269.445059 412.044143 
L 269.974387 411.053354 
L 270.503715 409.389178 
L 271.033043 411.025296 
L 271.562372 411.097194 
L 272.0917 409.883696 
L 272.621028 409.617147 
L 273.150356 410.56059 
L 273.679684 414.062548 
L 274.209012 414.178287 
L 274.73834 413.603103 
L 275.267668 411.211179 
L 275.796996 412.747341 
L 276.855652 413.024411 
L 277.38498 411.097194 
L 277.914308 411.267294 
L 278.443636 412.500082 
L 278.972964 412.352779 
L 280.031621 408.852574 
L 280.560949 412.233533 
L 281.090277 412.27562 
L 281.619605 412.14936 
L 282.678261 410.201099 
L 283.207589 413.506654 
L 283.736917 415.263771 
L 284.266245 415.111207 
L 284.795573 413.304989 
L 285.324901 415.125236 
L 285.854229 413.508408 
L 286.383557 413.162947 
L 286.912885 411.886319 
L 287.442213 411.17786 
L 287.971542 414.490429 
L 289.030198 414.329097 
L 289.559526 411.57593 
L 290.088854 412.424677 
L 290.618182 414.211605 
L 291.14751 414.488676 
L 291.676838 414.018708 
L 292.206166 412.63511 
L 292.735494 417.680246 
L 293.264822 415.221685 
L 293.79415 414.974426 
L 294.323478 413.943303 
L 294.852806 412.640371 
L 295.382134 416.372053 
L 295.911462 416.026591 
L 296.440791 414.304547 
L 296.970119 414.422038 
L 297.499447 417.762665 
L 298.028775 413.804768 
L 298.558103 412.877108 
L 299.087431 412.93147 
L 299.616759 411.602234 
L 300.146087 415.642551 
L 300.675415 415.395292 
L 301.204743 412.237041 
L 301.734071 412.228272 
L 302.263399 413.385655 
L 302.792727 414.190562 
L 303.322055 413.362858 
L 303.851383 412.13007 
L 304.380711 411.986274 
L 304.91004 416.570211 
L 305.439368 416.116026 
L 305.968696 416.303662 
L 306.498024 416.307169 
L 307.027352 414.379952 
L 307.55668 416.04062 
L 308.086008 416.386081 
L 308.615336 415.956447 
L 309.144664 414.488676 
L 309.673992 418.527239 
L 310.20332 414.795557 
L 310.732648 414.571095 
L 311.791304 411.456684 
L 312.320632 416.110765 
L 312.84996 415.879288 
L 313.379289 415.372495 
L 313.908617 414.457111 
L 314.437945 414.648254 
L 314.967273 415.184859 
L 315.496601 415.137511 
L 316.025929 414.70963 
L 316.555257 413.708319 
L 317.084585 417.37161 
L 317.613913 417.080511 
L 318.143241 417.103308 
L 318.672569 415.537334 
L 319.201897 415.274293 
L 319.731225 418.31856 
L 320.260553 418.332588 
L 320.789881 418.825353 
L 321.319209 415.949433 
L 322.377866 418.734165 
L 322.907194 419.027018 
L 323.436522 416.871831 
L 323.96585 415.42861 
L 324.495178 414.948121 
L 325.024506 415.19012 
L 325.553834 414.9376 
L 326.083162 413.406698 
L 327.141818 416.650877 
L 327.671146 422.737656 
L 328.200474 422.97264 
L 328.729802 421.987111 
L 329.25913 424.312398 
L 329.788458 418.91654 
L 330.317787 418.646485 
L 330.847115 418.081822 
L 331.376443 415.770564 
L 331.905771 425.738083 
L 332.435099 425.273376 
L 332.964427 423.419811 
L 333.493755 417.909968 
L 334.023083 420.685933 
L 334.552411 422.37992 
L 335.081739 419.891548 
L 335.611067 419.20764 
L 336.140395 417.973098 
L 336.669723 421.362826 
L 337.199051 421.106799 
L 337.728379 421.127843 
L 338.257708 419.8442 
L 338.787036 417.306727 
L 339.316364 420.503557 
L 340.37502 419.716187 
L 340.904348 418.432544 
L 341.433676 420.496543 
L 341.963004 420.401848 
L 342.492332 420.158096 
L 343.02166 419.646042 
L 343.550988 418.676296 
L 344.080316 420.721005 
L 344.609644 419.593434 
L 345.138972 418.188792 
L 345.6683 418.176517 
L 346.197628 420.496543 
L 346.726957 420.265066 
L 347.256285 419.881026 
L 347.785613 419.048061 
L 348.314941 419.141003 
L 348.844269 424.066893 
L 349.373597 424.747293 
L 349.902925 421.119074 
L 350.432253 420.678918 
L 350.961581 419.051568 
L 351.490909 428.038819 
L 352.020237 427.903791 
L 352.549565 427.521504 
L 353.078893 421.755635 
L 353.608221 424.165095 
L 354.666877 422.839366 
L 355.196206 419.265509 
L 355.725534 418.863932 
L 356.254862 425.774909 
L 356.78419 423.482941 
L 357.313518 421.834547 
L 357.842846 421.133103 
L 358.372174 423.237435 
L 359.43083 422.67628 
L 359.960158 416.812209 
L 360.489486 415.658333 
L 361.018814 420.028329 
L 361.548142 419.796853 
L 362.07747 420.040604 
L 363.136126 415.084903 
L 363.665455 418.209836 
L 364.194783 417.126105 
L 364.724111 417.11383 
L 365.253439 415.2778 
L 365.782767 419.041047 
L 366.312095 419.426841 
L 367.370751 417.168191 
L 368.429407 418.067793 
L 368.958735 416.33172 
L 369.488063 416.140576 
L 370.017391 414.676312 
L 370.546719 418.339603 
L 371.076047 418.718383 
L 371.605375 417.881911 
L 372.134704 416.621065 
L 372.664032 416.919179 
L 373.19336 419.628506 
L 373.722688 420.424645 
L 374.252016 420.622803 
L 375.310672 415.23396 
L 375.84 418.600891 
L 376.369328 419.141003 
L 376.898656 418.371168 
L 377.427984 417.194496 
L 377.957312 417.873143 
L 378.48664 421.413681 
L 379.015968 419.046308 
L 379.545296 418.969149 
L 380.074625 417.576783 
L 380.603953 418.706107 
L 381.133281 417.741622 
L 381.662609 417.664463 
L 382.191937 417.087525 
L 382.721265 418.137938 
L 383.250593 420.058141 
L 383.779921 422.879699 
L 384.309249 423.132219 
L 384.838577 422.914771 
L 385.367905 424.394818 
L 385.897233 421.28216 
L 387.485217 416.187924 
L 388.014545 418.653499 
L 388.543874 418.516717 
L 389.073202 418.74118 
L 389.60253 417.173452 
L 390.131858 419.007728 
L 391.190514 418.46937 
L 391.719842 416.94899 
L 392.24917 417.382132 
L 392.778498 418.821846 
L 393.307826 419.170814 
L 393.837154 418.251922 
L 394.89581 417.475073 
L 395.425138 419.240958 
L 395.954466 419.272523 
L 396.483794 418.467616 
L 397.013123 416.843774 
L 397.542451 420.335211 
L 398.071779 426.509671 
L 398.601107 425.755619 
L 399.130435 424.38605 
L 399.659763 417.015627 
L 400.189091 420.964757 
L 400.718419 421.703027 
L 401.247747 421.00509 
L 401.777075 418.346617 
L 402.306403 419.682868 
L 402.835731 419.651303 
L 403.365059 419.444377 
L 403.894387 419.71794 
L 404.423715 416.561442 
L 404.953043 419.868751 
L 405.482372 420.224733 
L 406.0117 420.735034 
L 406.541028 418.302777 
L 407.070356 418.611412 
L 407.599684 421.832794 
L 408.129012 421.511883 
L 408.65834 419.511014 
L 409.187668 418.076561 
L 409.716996 422.104603 
L 410.246324 422.043227 
L 410.775652 420.959496 
L 411.30498 421.834547 
L 411.834308 420.005532 
L 412.363636 420.603513 
L 412.892964 419.204133 
L 413.422292 419.091901 
L 413.951621 417.585551 
L 414.480949 418.825353 
L 415.010277 420.719251 
L 415.539605 420.072169 
L 416.068933 420.245777 
L 416.598261 418.578094 
L 417.127589 422.604382 
L 417.656917 421.959054 
L 418.186245 421.867866 
L 419.244901 418.89199 
L 419.774229 421.880141 
L 420.303557 421.824026 
L 421.362213 419.633767 
L 422.950198 421.6171 
L 423.479526 420.889352 
L 424.008854 419.879272 
L 424.538182 424.000255 
L 425.06751 422.927046 
L 426.126166 419.262002 
L 426.655494 420.321182 
L 427.184822 422.080053 
L 427.71415 421.946778 
L 428.243478 419.963446 
L 428.772806 418.902512 
L 429.302134 422.460586 
L 430.360791 422.422007 
L 430.890119 422.82709 
L 431.419447 421.718809 
L 431.948775 422.534238 
L 432.478103 422.458832 
L 433.007431 420.822714 
L 433.536759 420.030083 
L 434.595415 424.208935 
L 435.124743 423.749489 
L 435.654071 421.83104 
L 436.183399 420.654368 
L 436.712727 421.176944 
L 437.242055 421.248842 
L 437.771383 420.996322 
L 438.300711 421.047176 
L 438.83004 418.928816 
L 439.359368 421.154147 
L 439.888696 421.203248 
L 440.418024 419.644289 
L 440.947352 419.823157 
L 441.47668 421.069973 
L 442.006008 424.079168 
L 442.535336 424.019545 
L 443.064664 423.724939 
L 443.593992 421.501361 
L 444.12332 421.359319 
L 444.652648 421.610085 
L 445.711304 418.495674 
L 446.240632 419.952924 
L 446.76996 419.842447 
L 447.299289 419.221669 
L 447.828617 419.439116 
L 448.357945 418.018692 
L 448.887273 421.909953 
L 449.416601 421.960807 
L 449.945929 421.634636 
L 450.475257 419.540826 
L 451.004585 419.842447 
L 451.533913 422.9288 
L 452.063241 422.553527 
L 452.592569 421.247088 
L 453.121897 419.644289 
L 453.651225 423.335637 
L 454.180553 423.621476 
L 454.709881 423.456636 
L 455.768538 421.192726 
L 456.297866 422.104603 
L 456.827194 421.857344 
L 457.356522 418.797295 
L 457.88585 418.770991 
L 458.415178 422.034459 
L 458.944506 422.008155 
L 459.473834 422.702584 
L 460.003162 422.56931 
L 460.53249 421.1559 
L 461.061818 420.647353 
L 461.591146 423.226914 
L 462.120474 422.44305 
L 462.649802 421.375102 
L 463.17913 422.688555 
L 463.708458 425.666185 
L 464.237787 425.008581 
L 464.767115 423.982719 
L 465.296443 422.688555 
L 465.825771 424.999813 
L 466.355099 424.955973 
L 466.884427 423.831909 
L 467.413755 423.788069 
L 467.943083 422.678034 
L 468.472411 430.162441 
L 469.001739 428.535091 
L 469.531067 427.938863 
L 470.060395 421.813504 
L 470.589723 423.456636 
L 471.119051 425.738083 
L 471.648379 425.140102 
L 472.177708 423.972198 
L 472.707036 428.664858 
L 473.236364 429.254071 
L 473.765692 428.74377 
L 474.29502 423.858213 
L 474.824348 421.801229 
L 475.353676 421.196233 
L 475.883004 423.975705 
L 476.412332 424.203674 
L 476.94166 422.304515 
L 477.470988 421.922228 
L 478.000316 424.880568 
L 478.529644 424.208935 
L 479.058972 424.161588 
L 479.5883 422.325558 
L 480.117628 422.211573 
L 480.646957 425.97482 
L 481.176285 425.673199 
L 481.705613 423.654794 
L 482.234941 422.293993 
L 483.293597 424.947205 
L 483.822925 424.126515 
L 484.352253 424.11424 
L 484.881581 423.405782 
L 485.410909 426.928784 
L 485.940237 426.741148 
L 486.469565 426.730626 
L 486.998893 425.069958 
L 487.528221 420.531615 
L 488.057549 424.126515 
L 488.586877 424.305384 
L 489.116206 423.7302 
L 489.645534 422.216834 
L 490.174862 422.260675 
L 490.70419 424.207181 
L 491.233518 424.38605 
L 491.762846 423.086625 
L 492.292174 422.172994 
L 492.821502 425.573244 
L 493.35083 425.57149 
L 493.880158 423.77404 
L 494.409486 427.126942 
L 494.938814 428.817422 
L 495.468142 430.92 
L 495.99747 429.645126 
L 496.526798 423.195349 
L 497.056126 422.265935 
L 497.585455 424.147559 
L 498.114783 424.138791 
L 498.644111 421.687244 
L 499.173439 420.340472 
L 499.702767 417.147148 
L 500.232095 418.351878 
L 500.761423 418.504442 
L 501.290751 417.925751 
L 501.820079 415.649565 
L 502.349407 416.549167 
L 502.878735 418.322067 
L 503.408063 417.236582 
L 503.937391 417.764419 
L 504.466719 416.193184 
L 504.996047 416.750832 
L 505.525375 415.768811 
L 506.054704 420.675411 
L 506.584032 420.952482 
L 507.11336 419.842447 
L 507.642688 424.582454 
L 508.172016 420.39308 
L 508.701344 417.708303 
L 509.230672 416.827991 
L 509.76 415.663594 
L 510.289328 418.13443 
L 510.818656 418.40624 
L 511.347984 416.354516 
L 511.877312 416.252807 
L 512.40664 417.697782 
L 512.935968 418.495674 
L 513.465296 417.587304 
L 513.994625 416.254561 
L 514.523953 413.394423 
L 515.053281 416.622819 
L 515.582609 415.947679 
L 516.111937 416.408878 
L 516.641265 414.944614 
L 517.170593 417.333031 
L 517.699921 414.865702 
L 518.229249 414.692094 
L 518.758577 414.695602 
L 519.287905 413.034933 
L 519.817233 416.826238 
L 520.346561 417.666217 
L 520.875889 416.638601 
L 521.405217 415.130497 
L 521.934545 415.379509 
L 522.463874 416.265082 
L 522.993202 416.396603 
L 523.52253 416.198445 
L 524.051858 414.448343 
L 525.110514 420.522847 
L 525.639842 418.97967 
L 526.16917 418.076561 
L 526.698498 416.631587 
L 527.227826 416.39485 
L 527.757154 416.452719 
L 528.286482 415.356712 
L 528.81581 414.70437 
L 529.345138 415.053338 
L 529.874466 415.654826 
L 530.403794 415.109453 
L 530.933123 415.411074 
L 531.462451 414.760485 
L 531.991779 417.47332 
L 532.521107 416.722775 
L 533.050435 416.60879 
L 534.109091 414.166011 
L 534.638419 416.435183 
L 535.167747 415.789854 
L 535.697075 414.227388 
L 536.226403 411.612755 
L 536.755731 411.70745 
L 537.814387 410.066072 
L 538.343715 409.931044 
L 539.402372 418.376429 
L 539.9317 417.511899 
L 540.461028 414.28175 
L 540.990356 409.387425 
L 541.519684 409.382164 
L 542.049012 411.270802 
L 542.57834 408.536924 
L 543.107668 408.15639 
L 543.636996 406.444867 
L 544.166324 409.262918 
L 545.22498 408.687734 
L 545.754308 406.779807 
L 546.283636 407.021805 
L 546.812964 409.21031 
L 547.342292 408.701763 
L 547.871621 408.687734 
L 548.400949 407.565424 
L 548.930277 408.731574 
L 549.988933 406.993747 
L 551.047589 404.443998 
L 551.576917 406.446621 
L 552.106245 406.499229 
L 552.635573 405.326064 
L 553.164901 403.163863 
L 553.694229 403.446194 
L 554.223557 406.39752 
L 554.752885 405.264688 
L 555.282213 403.347992 
L 555.811542 403.519846 
L 556.34087 406.511504 
L 556.870198 406.03803 
L 557.399526 407.146311 
L 557.928854 405.636453 
L 558.458182 405.21734 
L 558.98751 405.643467 
L 559.516838 405.845133 
L 560.046166 406.187087 
L 560.575494 404.068726 
L 561.104822 404.712301 
L 561.63415 405.650482 
L 562.163478 405.29976 
L 562.692806 403.383064 
L 563.222134 403.207703 
L 563.751462 406.837676 
L 564.280791 407.158586 
L 564.810119 405.760959 
L 565.339447 405.468106 
L 565.868775 403.174385 
L 566.398103 405.464599 
L 567.456759 405.175254 
L 567.986087 403.505817 
L 568.515415 405.571569 
L 569.044743 406.790328 
L 569.574071 406.806111 
L 570.103399 407.027066 
L 570.632727 405.404977 
L 571.162055 407.73377 
L 571.691383 407.68993 
L 572.220711 407.219963 
L 572.75004 404.344043 
L 573.279368 404.045929 
L 573.808696 405.618917 
L 574.338024 403.423397 
L 574.867352 403.037603 
L 575.39668 400.484347 
L 575.926008 400.780707 
L 576.455336 399.989829 
L 577.513992 399.388341 
L 578.04332 397.769759 
L 578.572648 400.791229 
L 579.101976 399.037619 
L 579.631304 398.274799 
L 580.160632 396.209046 
L 580.68996 394.707956 
L 581.219289 397.878483 
L 581.748617 397.473399 
L 582.277945 397.368183 
L 582.807273 395.002563 
L 583.336601 398.553623 
L 583.865929 399.013069 
L 584.395257 397.061301 
L 584.924585 395.702253 
L 585.453913 395.963541 
L 585.983241 397.88199 
L 586.512569 397.783788 
L 587.041897 396.142409 
L 588.100553 396.899969 
L 588.629881 395.72505 
L 589.688538 390.59048 
L 590.217866 390.432656 
L 590.747194 394.325669 
L 591.276522 394.629044 
L 591.80585 393.904803 
L 592.335178 392.894724 
L 592.864506 392.854391 
L 593.393834 396.047714 
L 593.923162 395.516371 
L 594.45249 395.465516 
L 594.981818 393.906557 
L 595.511146 398.199394 
L 596.040474 398.322146 
L 596.569802 397.804831 
L 597.09913 395.593529 
L 597.628458 392.643958 
L 598.157787 394.91839 
L 598.687115 395.099011 
L 599.216443 395.0692 
L 599.745771 391.772413 
L 600.275099 396.828071 
L 600.804427 397.024475 
L 601.333755 395.244561 
L 601.863083 392.933303 
L 602.392411 393.173548 
L 602.921739 394.367756 
L 603.451067 394.448422 
L 603.980395 393.033259 
L 604.509723 391.937253 
L 605.039051 391.099027 
L 605.568379 393.731196 
L 606.097708 393.199852 
L 606.627036 391.318228 
L 607.156364 391.721559 
L 607.685692 393.771529 
L 608.21502 393.761007 
L 608.744348 393.550574 
L 609.273676 399.095488 
L 609.803004 396.25464 
L 610.332332 398.923634 
L 610.86166 396.828071 
L 611.390988 390.846507 
L 611.920316 388.349367 
L 612.449644 391.258606 
L 612.978972 389.38575 
L 613.5083 393.711906 
L 614.566957 392.680783 
L 615.096285 388.992942 
L 615.625613 388.128412 
L 616.154941 388.123151 
L 616.684269 384.742192 
L 617.213597 384.41602 
L 617.742925 384.682569 
L 618.272253 383.984632 
L 618.801581 383.863633 
L 619.330909 381.776837 
L 619.330909 381.776837 
" style="fill:none;stroke:#1f77b4;stroke-linecap:square;stroke-width:1.5;"/>
   </g>
   <g id="patch_3">
    <path d="M 108 448.56 
L 108 60.48 
" style="fill:none;stroke:#000000;stroke-linecap:square;stroke-linejoin:miter;stroke-width:0.8;"/>
   </g>
   <g id="patch_4">
    <path d="M 643.68 448.56 
L 643.68 60.48 
" style="fill:none;stroke:#000000;stroke-linecap:square;stroke-linejoin:miter;stroke-width:0.8;"/>
   </g>
   <g id="patch_5">
    <path d="M 108 448.56 
L 643.68 448.56 
" style="fill:none;stroke:#000000;stroke-linecap:square;stroke-linejoin:miter;stroke-width:0.8;"/>
   </g>
   <g id="patch_6">
    <path d="M 108 60.48 
L 643.68 60.48 
" style="fill:none;stroke:#000000;stroke-linecap:square;stroke-linejoin:miter;stroke-width:0.8;"/>
   </g>
   <g id="text_28">
    <!-- unikernel_falloc - free -->
    <g transform="translate(295.036875 54.48)scale(0.15 -0.15)">
     <defs>
      <path d="M 8.5 21.578125 
L 8.5 54.6875 
L 17.484375 54.6875 
L 17.484375 21.921875 
Q 17.484375 14.15625 20.5 10.265625 
Q 23.53125 6.390625 29.59375 6.390625 
Q 36.859375 6.390625 41.078125 11.03125 
Q 45.3125 15.671875 45.3125 23.6875 
L 45.3125 54.6875 
L 54.296875 54.6875 
L 54.296875 0 
L 45.3125 0 
L 45.3125 8.40625 
Q 42.046875 3.421875 37.71875 1 
Q 33.40625 -1.421875 27.6875 -1.421875 
Q 18.265625 -1.421875 13.375 4.4375 
Q 8.5 10.296875 8.5 21.578125 
z
M 31.109375 56 
z
" id="DejaVuSans-117"/>
      <path d="M 54.890625 33.015625 
L 54.890625 0 
L 45.90625 0 
L 45.90625 32.71875 
Q 45.90625 40.484375 42.875 44.328125 
Q 39.84375 48.1875 33.796875 48.1875 
Q 26.515625 48.1875 22.3125 43.546875 
Q 18.109375 38.921875 18.109375 30.90625 
L 18.109375 0 
L 9.078125 0 
L 9.078125 54.6875 
L 18.109375 54.6875 
L 18.109375 46.1875 
Q 21.34375 51.125 25.703125 53.5625 
Q 30.078125 56 35.796875 56 
Q 45.21875 56 50.046875 50.171875 
Q 54.890625 44.34375 54.890625 33.015625 
z
" id="DejaVuSans-110"/>
      <path d="M 9.078125 75.984375 
L 18.109375 75.984375 
L 18.109375 31.109375 
L 44.921875 54.6875 
L 56.390625 54.6875 
L 27.390625 29.109375 
L 57.625 0 
L 45.90625 0 
L 18.109375 26.703125 
L 18.109375 0 
L 9.078125 0 
z
" id="DejaVuSans-107"/>
      <path d="M 41.109375 46.296875 
Q 39.59375 47.171875 37.8125 47.578125 
Q 36.03125 48 33.890625 48 
Q 26.265625 48 22.1875 43.046875 
Q 18.109375 38.09375 18.109375 28.8125 
L 18.109375 0 
L 9.078125 0 
L 9.078125 54.6875 
L 18.109375 54.6875 
L 18.109375 46.1875 
Q 20.953125 51.171875 25.484375 53.578125 
Q 30.03125 56 36.53125 56 
Q 37.453125 56 38.578125 55.875 
Q 39.703125 55.765625 41.0625 55.515625 
z
" id="DejaVuSans-114"/>
      <path d="M 9.421875 75.984375 
L 18.40625 75.984375 
L 18.40625 0 
L 9.421875 0 
z
" id="DejaVuSans-108"/>
      <path d="M 50.984375 -16.609375 
L 50.984375 -23.578125 
L -0.984375 -23.578125 
L -0.984375 -16.609375 
z
" id="DejaVuSans-95"/>
      <path d="M 37.109375 75.984375 
L 37.109375 68.5 
L 28.515625 68.5 
Q 23.6875 68.5 21.796875 66.546875 
Q 19.921875 64.59375 19.921875 59.515625 
L 19.921875 54.6875 
L 34.71875 54.6875 
L 34.71875 47.703125 
L 19.921875 47.703125 
L 19.921875 0 
L 10.890625 0 
L 10.890625 47.703125 
L 2.296875 47.703125 
L 2.296875 54.6875 
L 10.890625 54.6875 
L 10.890625 58.5 
Q 10.890625 67.625 15.140625 71.796875 
Q 19.390625 75.984375 28.609375 75.984375 
z
" id="DejaVuSans-102"/>
      <path d="M 30.609375 48.390625 
Q 23.390625 48.390625 19.1875 42.75 
Q 14.984375 37.109375 14.984375 27.296875 
Q 14.984375 17.484375 19.15625 11.84375 
Q 23.34375 6.203125 30.609375 6.203125 
Q 37.796875 6.203125 41.984375 11.859375 
Q 46.1875 17.53125 46.1875 27.296875 
Q 46.1875 37.015625 41.984375 42.703125 
Q 37.796875 48.390625 30.609375 48.390625 
z
M 30.609375 56 
Q 42.328125 56 49.015625 48.375 
Q 55.71875 40.765625 55.71875 27.296875 
Q 55.71875 13.875 49.015625 6.21875 
Q 42.328125 -1.421875 30.609375 -1.421875 
Q 18.84375 -1.421875 12.171875 6.21875 
Q 5.515625 13.875 5.515625 27.296875 
Q 5.515625 40.765625 12.171875 48.375 
Q 18.84375 56 30.609375 56 
z
" id="DejaVuSans-111"/>
      <path d="M 48.78125 52.59375 
L 48.78125 44.1875 
Q 44.96875 46.296875 41.140625 47.34375 
Q 37.3125 48.390625 33.40625 48.390625 
Q 24.65625 48.390625 19.8125 42.84375 
Q 14.984375 37.3125 14.984375 27.296875 
Q 14.984375 17.28125 19.8125 11.734375 
Q 24.65625 6.203125 33.40625 6.203125 
Q 37.3125 6.203125 41.140625 7.25 
Q 44.96875 8.296875 48.78125 10.40625 
L 48.78125 2.09375 
Q 45.015625 0.34375 40.984375 -0.53125 
Q 36.96875 -1.421875 32.421875 -1.421875 
Q 20.0625 -1.421875 12.78125 6.34375 
Q 5.515625 14.109375 5.515625 27.296875 
Q 5.515625 40.671875 12.859375 48.328125 
Q 20.21875 56 33.015625 56 
Q 37.15625 56 41.109375 55.140625 
Q 45.0625 54.296875 48.78125 52.59375 
z
" id="DejaVuSans-99"/>
      <path id="DejaVuSans-32"/>
      <path d="M 4.890625 31.390625 
L 31.203125 31.390625 
L 31.203125 23.390625 
L 4.890625 23.390625 
z
" id="DejaVuSans-45"/>
     </defs>
     <use xlink:href="#DejaVuSans-117"/>
     <use x="63.378906" xlink:href="#DejaVuSans-110"/>
     <use x="126.757812" xlink:href="#DejaVuSans-105"/>
     <use x="154.541016" xlink:href="#DejaVuSans-107"/>
     <use x="208.826172" xlink:href="#DejaVuSans-101"/>
     <use x="270.349609" xlink:href="#DejaVuSans-114"/>
     <use x="309.712891" xlink:href="#DejaVuSans-110"/>
     <use x="373.091797" xlink:href="#DejaVuSans-101"/>
     <use x="434.615234" xlink:href="#DejaVuSans-108"/>
     <use x="462.398438" xlink:href="#DejaVuSans-95"/>
     <use x="512.398438" xlink:href="#DejaVuSans-102"/>
     <use x="547.603516" xlink:href="#DejaVuSans-97"/>
     <use x="608.882812" xlink:href="#DejaVuSans-108"/>
     <use x="636.666016" xlink:href="#DejaVuSans-108"/>
     <use x="664.449219" xlink:href="#DejaVuSans-111"/>
     <use x="725.630859" xlink:href="#DejaVuSans-99"/>
     <use x="780.611328" xlink:href="#DejaVuSans-32"/>
     <use x="812.398438" xlink:href="#DejaVuSans-45"/>
     <use x="848.482422" xlink:href="#DejaVuSans-32"/>
     <use x="880.269531" xlink:href="#DejaVuSans-102"/>
     <use x="915.474609" xlink:href="#DejaVuSans-114"/>
     <use x="954.337891" xlink:href="#DejaVuSans-101"/>
     <use x="1015.861328" xlink:href="#DejaVuSans-101"/>
    </g>
   </g>
   <g id="legend_1">
    <g id="patch_7">
     <path d="M 650.68 258.52 
L 654.68 258.52 
Q 656.68 258.52 656.68 256.52 
L 656.68 252.52 
Q 656.68 250.52 654.68 250.52 
L 650.68 250.52 
Q 648.68 250.52 648.68 252.52 
L 648.68 256.52 
Q 648.68 258.52 650.68 258.52 
z
" style="fill:#ffffff;opacity:0.8;stroke:#cccccc;stroke-linejoin:miter;"/>
    </g>
   </g>
  </g>
 </g>
 <defs>
  <clipPath id="p73e12295d0">
   <rect height="388.08" width="535.68" x="108" y="60.48"/>
  </clipPath>
 </defs>
</svg>
