<?xml version="1.0" encoding="utf-8" standalone="no"?>
<!DOCTYPE svg PUBLIC "-//W3C//DTD SVG 1.1//EN"
  "http://www.w3.org/Graphics/SVG/1.1/DTD/svg11.dtd">
<!-- Created with matplotlib (https://matplotlib.org/) -->
<svg height="504pt" version="1.1" viewBox="0 0 864 504" width="864pt" xmlns="http://www.w3.org/2000/svg" xmlns:xlink="http://www.w3.org/1999/xlink">
 <metadata>
  <rdf:RDF xmlns:cc="http://creativecommons.org/ns#" xmlns:dc="http://purl.org/dc/elements/1.1/" xmlns:rdf="http://www.w3.org/1999/02/22-rdf-syntax-ns#">
   <cc:Work>
    <dc:type rdf:resource="http://purl.org/dc/dcmitype/StillImage"/>
    <dc:date>2022-05-29T17:25:59.191633</dc:date>
    <dc:format>image/svg+xml</dc:format>
    <dc:creator>
     <cc:Agent>
      <dc:title>Matplotlib v3.3.4, https://matplotlib.org/</dc:title>
     </cc:Agent>
    </dc:creator>
   </cc:Work>
  </rdf:RDF>
 </metadata>
 <defs>
  <style type="text/css">*{stroke-linecap:butt;stroke-linejoin:round;}</style>
 </defs>
 <g id="figure_1">
  <g id="patch_1">
   <path d="M 0 504 
L 864 504 
L 864 0 
L 0 0 
z
" style="fill:#ffffff;"/>
  </g>
  <g id="axes_1">
   <g id="patch_2">
    <path d="M 108 448.56 
L 643.68 448.56 
L 643.68 60.48 
L 108 60.48 
z
" style="fill:#ffffff;"/>
   </g>
   <g id="matplotlib.axis_1">
    <g id="xtick_1">
     <g id="line2d_1">
      <defs>
       <path d="M 0 0 
L 0 3.5 
" id="m4d48b85349" style="stroke:#000000;stroke-width:0.8;"/>
      </defs>
      <g>
       <use style="stroke:#000000;stroke-width:0.8;" x="132.349091" xlink:href="#m4d48b85349" y="448.56"/>
      </g>
     </g>
     <g id="text_1">
      <!-- 12:46:33 -->
      <g transform="translate(135.108466 500.4725)rotate(-90)scale(0.1 -0.1)">
       <defs>
        <path d="M 12.40625 8.296875 
L 28.515625 8.296875 
L 28.515625 63.921875 
L 10.984375 60.40625 
L 10.984375 69.390625 
L 28.421875 72.90625 
L 38.28125 72.90625 
L 38.28125 8.296875 
L 54.390625 8.296875 
L 54.390625 0 
L 12.40625 0 
z
" id="DejaVuSans-49"/>
        <path d="M 19.1875 8.296875 
L 53.609375 8.296875 
L 53.609375 0 
L 7.328125 0 
L 7.328125 8.296875 
Q 12.9375 14.109375 22.625 23.890625 
Q 32.328125 33.6875 34.8125 36.53125 
Q 39.546875 41.84375 41.421875 45.53125 
Q 43.3125 49.21875 43.3125 52.78125 
Q 43.3125 58.59375 39.234375 62.25 
Q 35.15625 65.921875 28.609375 65.921875 
Q 23.96875 65.921875 18.8125 64.3125 
Q 13.671875 62.703125 7.8125 59.421875 
L 7.8125 69.390625 
Q 13.765625 71.78125 18.9375 73 
Q 24.125 74.21875 28.421875 74.21875 
Q 39.75 74.21875 46.484375 68.546875 
Q 53.21875 62.890625 53.21875 53.421875 
Q 53.21875 48.921875 51.53125 44.890625 
Q 49.859375 40.875 45.40625 35.40625 
Q 44.1875 33.984375 37.640625 27.21875 
Q 31.109375 20.453125 19.1875 8.296875 
z
" id="DejaVuSans-50"/>
        <path d="M 11.71875 12.40625 
L 22.015625 12.40625 
L 22.015625 0 
L 11.71875 0 
z
M 11.71875 51.703125 
L 22.015625 51.703125 
L 22.015625 39.3125 
L 11.71875 39.3125 
z
" id="DejaVuSans-58"/>
        <path d="M 37.796875 64.3125 
L 12.890625 25.390625 
L 37.796875 25.390625 
z
M 35.203125 72.90625 
L 47.609375 72.90625 
L 47.609375 25.390625 
L 58.015625 25.390625 
L 58.015625 17.1875 
L 47.609375 17.1875 
L 47.609375 0 
L 37.796875 0 
L 37.796875 17.1875 
L 4.890625 17.1875 
L 4.890625 26.703125 
z
" id="DejaVuSans-52"/>
        <path d="M 33.015625 40.375 
Q 26.375 40.375 22.484375 35.828125 
Q 18.609375 31.296875 18.609375 23.390625 
Q 18.609375 15.53125 22.484375 10.953125 
Q 26.375 6.390625 33.015625 6.390625 
Q 39.65625 6.390625 43.53125 10.953125 
Q 47.40625 15.53125 47.40625 23.390625 
Q 47.40625 31.296875 43.53125 35.828125 
Q 39.65625 40.375 33.015625 40.375 
z
M 52.59375 71.296875 
L 52.59375 62.3125 
Q 48.875 64.0625 45.09375 64.984375 
Q 41.3125 65.921875 37.59375 65.921875 
Q 27.828125 65.921875 22.671875 59.328125 
Q 17.53125 52.734375 16.796875 39.40625 
Q 19.671875 43.65625 24.015625 45.921875 
Q 28.375 48.1875 33.59375 48.1875 
Q 44.578125 48.1875 50.953125 41.515625 
Q 57.328125 34.859375 57.328125 23.390625 
Q 57.328125 12.15625 50.6875 5.359375 
Q 44.046875 -1.421875 33.015625 -1.421875 
Q 20.359375 -1.421875 13.671875 8.265625 
Q 6.984375 17.96875 6.984375 36.375 
Q 6.984375 53.65625 15.1875 63.9375 
Q 23.390625 74.21875 37.203125 74.21875 
Q 40.921875 74.21875 44.703125 73.484375 
Q 48.484375 72.75 52.59375 71.296875 
z
" id="DejaVuSans-54"/>
        <path d="M 40.578125 39.3125 
Q 47.65625 37.796875 51.625 33 
Q 55.609375 28.21875 55.609375 21.1875 
Q 55.609375 10.40625 48.1875 4.484375 
Q 40.765625 -1.421875 27.09375 -1.421875 
Q 22.515625 -1.421875 17.65625 -0.515625 
Q 12.796875 0.390625 7.625 2.203125 
L 7.625 11.71875 
Q 11.71875 9.328125 16.59375 8.109375 
Q 21.484375 6.890625 26.8125 6.890625 
Q 36.078125 6.890625 40.9375 10.546875 
Q 45.796875 14.203125 45.796875 21.1875 
Q 45.796875 27.640625 41.28125 31.265625 
Q 36.765625 34.90625 28.71875 34.90625 
L 20.21875 34.90625 
L 20.21875 43.015625 
L 29.109375 43.015625 
Q 36.375 43.015625 40.234375 45.921875 
Q 44.09375 48.828125 44.09375 54.296875 
Q 44.09375 59.90625 40.109375 62.90625 
Q 36.140625 65.921875 28.71875 65.921875 
Q 24.65625 65.921875 20.015625 65.03125 
Q 15.375 64.15625 9.8125 62.3125 
L 9.8125 71.09375 
Q 15.4375 72.65625 20.34375 73.4375 
Q 25.25 74.21875 29.59375 74.21875 
Q 40.828125 74.21875 47.359375 69.109375 
Q 53.90625 64.015625 53.90625 55.328125 
Q 53.90625 49.265625 50.4375 45.09375 
Q 46.96875 40.921875 40.578125 39.3125 
z
" id="DejaVuSans-51"/>
       </defs>
       <use xlink:href="#DejaVuSans-49"/>
       <use x="63.623047" xlink:href="#DejaVuSans-50"/>
       <use x="127.246094" xlink:href="#DejaVuSans-58"/>
       <use x="160.9375" xlink:href="#DejaVuSans-52"/>
       <use x="224.560547" xlink:href="#DejaVuSans-54"/>
       <use x="288.183594" xlink:href="#DejaVuSans-58"/>
       <use x="321.875" xlink:href="#DejaVuSans-51"/>
       <use x="385.498047" xlink:href="#DejaVuSans-51"/>
      </g>
     </g>
    </g>
    <g id="xtick_2">
     <g id="line2d_2">
      <g>
       <use style="stroke:#000000;stroke-width:0.8;" x="156.724113" xlink:href="#m4d48b85349" y="448.56"/>
      </g>
     </g>
     <g id="text_2">
      <!-- 12:47:26 -->
      <g transform="translate(159.483488 500.4725)rotate(-90)scale(0.1 -0.1)">
       <defs>
        <path d="M 8.203125 72.90625 
L 55.078125 72.90625 
L 55.078125 68.703125 
L 28.609375 0 
L 18.3125 0 
L 43.21875 64.59375 
L 8.203125 64.59375 
z
" id="DejaVuSans-55"/>
       </defs>
       <use xlink:href="#DejaVuSans-49"/>
       <use x="63.623047" xlink:href="#DejaVuSans-50"/>
       <use x="127.246094" xlink:href="#DejaVuSans-58"/>
       <use x="160.9375" xlink:href="#DejaVuSans-52"/>
       <use x="224.560547" xlink:href="#DejaVuSans-55"/>
       <use x="288.183594" xlink:href="#DejaVuSans-58"/>
       <use x="321.875" xlink:href="#DejaVuSans-50"/>
       <use x="385.498047" xlink:href="#DejaVuSans-54"/>
      </g>
     </g>
    </g>
    <g id="xtick_3">
     <g id="line2d_3">
      <g>
       <use style="stroke:#000000;stroke-width:0.8;" x="181.099134" xlink:href="#m4d48b85349" y="448.56"/>
      </g>
     </g>
     <g id="text_3">
      <!-- 12:48:19 -->
      <g transform="translate(183.858509 500.4725)rotate(-90)scale(0.1 -0.1)">
       <defs>
        <path d="M 31.78125 34.625 
Q 24.75 34.625 20.71875 30.859375 
Q 16.703125 27.09375 16.703125 20.515625 
Q 16.703125 13.921875 20.71875 10.15625 
Q 24.75 6.390625 31.78125 6.390625 
Q 38.8125 6.390625 42.859375 10.171875 
Q 46.921875 13.96875 46.921875 20.515625 
Q 46.921875 27.09375 42.890625 30.859375 
Q 38.875 34.625 31.78125 34.625 
z
M 21.921875 38.8125 
Q 15.578125 40.375 12.03125 44.71875 
Q 8.5 49.078125 8.5 55.328125 
Q 8.5 64.0625 14.71875 69.140625 
Q 20.953125 74.21875 31.78125 74.21875 
Q 42.671875 74.21875 48.875 69.140625 
Q 55.078125 64.0625 55.078125 55.328125 
Q 55.078125 49.078125 51.53125 44.71875 
Q 48 40.375 41.703125 38.8125 
Q 48.828125 37.15625 52.796875 32.3125 
Q 56.78125 27.484375 56.78125 20.515625 
Q 56.78125 9.90625 50.3125 4.234375 
Q 43.84375 -1.421875 31.78125 -1.421875 
Q 19.734375 -1.421875 13.25 4.234375 
Q 6.78125 9.90625 6.78125 20.515625 
Q 6.78125 27.484375 10.78125 32.3125 
Q 14.796875 37.15625 21.921875 38.8125 
z
M 18.3125 54.390625 
Q 18.3125 48.734375 21.84375 45.5625 
Q 25.390625 42.390625 31.78125 42.390625 
Q 38.140625 42.390625 41.71875 45.5625 
Q 45.3125 48.734375 45.3125 54.390625 
Q 45.3125 60.0625 41.71875 63.234375 
Q 38.140625 66.40625 31.78125 66.40625 
Q 25.390625 66.40625 21.84375 63.234375 
Q 18.3125 60.0625 18.3125 54.390625 
z
" id="DejaVuSans-56"/>
        <path d="M 10.984375 1.515625 
L 10.984375 10.5 
Q 14.703125 8.734375 18.5 7.8125 
Q 22.3125 6.890625 25.984375 6.890625 
Q 35.75 6.890625 40.890625 13.453125 
Q 46.046875 20.015625 46.78125 33.40625 
Q 43.953125 29.203125 39.59375 26.953125 
Q 35.25 24.703125 29.984375 24.703125 
Q 19.046875 24.703125 12.671875 31.3125 
Q 6.296875 37.9375 6.296875 49.421875 
Q 6.296875 60.640625 12.9375 67.421875 
Q 19.578125 74.21875 30.609375 74.21875 
Q 43.265625 74.21875 49.921875 64.515625 
Q 56.59375 54.828125 56.59375 36.375 
Q 56.59375 19.140625 48.40625 8.859375 
Q 40.234375 -1.421875 26.421875 -1.421875 
Q 22.703125 -1.421875 18.890625 -0.6875 
Q 15.09375 0.046875 10.984375 1.515625 
z
M 30.609375 32.421875 
Q 37.25 32.421875 41.125 36.953125 
Q 45.015625 41.5 45.015625 49.421875 
Q 45.015625 57.28125 41.125 61.84375 
Q 37.25 66.40625 30.609375 66.40625 
Q 23.96875 66.40625 20.09375 61.84375 
Q 16.21875 57.28125 16.21875 49.421875 
Q 16.21875 41.5 20.09375 36.953125 
Q 23.96875 32.421875 30.609375 32.421875 
z
" id="DejaVuSans-57"/>
       </defs>
       <use xlink:href="#DejaVuSans-49"/>
       <use x="63.623047" xlink:href="#DejaVuSans-50"/>
       <use x="127.246094" xlink:href="#DejaVuSans-58"/>
       <use x="160.9375" xlink:href="#DejaVuSans-52"/>
       <use x="224.560547" xlink:href="#DejaVuSans-56"/>
       <use x="288.183594" xlink:href="#DejaVuSans-58"/>
       <use x="321.875" xlink:href="#DejaVuSans-49"/>
       <use x="385.498047" xlink:href="#DejaVuSans-57"/>
      </g>
     </g>
    </g>
    <g id="xtick_4">
     <g id="line2d_4">
      <g>
       <use style="stroke:#000000;stroke-width:0.8;" x="205.474156" xlink:href="#m4d48b85349" y="448.56"/>
      </g>
     </g>
     <g id="text_4">
      <!-- 12:49:12 -->
      <g transform="translate(208.233531 500.4725)rotate(-90)scale(0.1 -0.1)">
       <use xlink:href="#DejaVuSans-49"/>
       <use x="63.623047" xlink:href="#DejaVuSans-50"/>
       <use x="127.246094" xlink:href="#DejaVuSans-58"/>
       <use x="160.9375" xlink:href="#DejaVuSans-52"/>
       <use x="224.560547" xlink:href="#DejaVuSans-57"/>
       <use x="288.183594" xlink:href="#DejaVuSans-58"/>
       <use x="321.875" xlink:href="#DejaVuSans-49"/>
       <use x="385.498047" xlink:href="#DejaVuSans-50"/>
      </g>
     </g>
    </g>
    <g id="xtick_5">
     <g id="line2d_5">
      <g>
       <use style="stroke:#000000;stroke-width:0.8;" x="229.849178" xlink:href="#m4d48b85349" y="448.56"/>
      </g>
     </g>
     <g id="text_5">
      <!-- 12:50:05 -->
      <g transform="translate(232.608553 500.4725)rotate(-90)scale(0.1 -0.1)">
       <defs>
        <path d="M 10.796875 72.90625 
L 49.515625 72.90625 
L 49.515625 64.59375 
L 19.828125 64.59375 
L 19.828125 46.734375 
Q 21.96875 47.46875 24.109375 47.828125 
Q 26.265625 48.1875 28.421875 48.1875 
Q 40.625 48.1875 47.75 41.5 
Q 54.890625 34.8125 54.890625 23.390625 
Q 54.890625 11.625 47.5625 5.09375 
Q 40.234375 -1.421875 26.90625 -1.421875 
Q 22.3125 -1.421875 17.546875 -0.640625 
Q 12.796875 0.140625 7.71875 1.703125 
L 7.71875 11.625 
Q 12.109375 9.234375 16.796875 8.0625 
Q 21.484375 6.890625 26.703125 6.890625 
Q 35.15625 6.890625 40.078125 11.328125 
Q 45.015625 15.765625 45.015625 23.390625 
Q 45.015625 31 40.078125 35.4375 
Q 35.15625 39.890625 26.703125 39.890625 
Q 22.75 39.890625 18.8125 39.015625 
Q 14.890625 38.140625 10.796875 36.28125 
z
" id="DejaVuSans-53"/>
        <path d="M 31.78125 66.40625 
Q 24.171875 66.40625 20.328125 58.90625 
Q 16.5 51.421875 16.5 36.375 
Q 16.5 21.390625 20.328125 13.890625 
Q 24.171875 6.390625 31.78125 6.390625 
Q 39.453125 6.390625 43.28125 13.890625 
Q 47.125 21.390625 47.125 36.375 
Q 47.125 51.421875 43.28125 58.90625 
Q 39.453125 66.40625 31.78125 66.40625 
z
M 31.78125 74.21875 
Q 44.046875 74.21875 50.515625 64.515625 
Q 56.984375 54.828125 56.984375 36.375 
Q 56.984375 17.96875 50.515625 8.265625 
Q 44.046875 -1.421875 31.78125 -1.421875 
Q 19.53125 -1.421875 13.0625 8.265625 
Q 6.59375 17.96875 6.59375 36.375 
Q 6.59375 54.828125 13.0625 64.515625 
Q 19.53125 74.21875 31.78125 74.21875 
z
" id="DejaVuSans-48"/>
       </defs>
       <use xlink:href="#DejaVuSans-49"/>
       <use x="63.623047" xlink:href="#DejaVuSans-50"/>
       <use x="127.246094" xlink:href="#DejaVuSans-58"/>
       <use x="160.9375" xlink:href="#DejaVuSans-53"/>
       <use x="224.560547" xlink:href="#DejaVuSans-48"/>
       <use x="288.183594" xlink:href="#DejaVuSans-58"/>
       <use x="321.875" xlink:href="#DejaVuSans-48"/>
       <use x="385.498047" xlink:href="#DejaVuSans-53"/>
      </g>
     </g>
    </g>
    <g id="xtick_6">
     <g id="line2d_6">
      <g>
       <use style="stroke:#000000;stroke-width:0.8;" x="254.2242" xlink:href="#m4d48b85349" y="448.56"/>
      </g>
     </g>
     <g id="text_6">
      <!-- 12:50:58 -->
      <g transform="translate(256.983575 500.4725)rotate(-90)scale(0.1 -0.1)">
       <use xlink:href="#DejaVuSans-49"/>
       <use x="63.623047" xlink:href="#DejaVuSans-50"/>
       <use x="127.246094" xlink:href="#DejaVuSans-58"/>
       <use x="160.9375" xlink:href="#DejaVuSans-53"/>
       <use x="224.560547" xlink:href="#DejaVuSans-48"/>
       <use x="288.183594" xlink:href="#DejaVuSans-58"/>
       <use x="321.875" xlink:href="#DejaVuSans-53"/>
       <use x="385.498047" xlink:href="#DejaVuSans-56"/>
      </g>
     </g>
    </g>
    <g id="xtick_7">
     <g id="line2d_7">
      <g>
       <use style="stroke:#000000;stroke-width:0.8;" x="278.599222" xlink:href="#m4d48b85349" y="448.56"/>
      </g>
     </g>
     <g id="text_7">
      <!-- 12:51:51 -->
      <g transform="translate(281.358597 500.4725)rotate(-90)scale(0.1 -0.1)">
       <use xlink:href="#DejaVuSans-49"/>
       <use x="63.623047" xlink:href="#DejaVuSans-50"/>
       <use x="127.246094" xlink:href="#DejaVuSans-58"/>
       <use x="160.9375" xlink:href="#DejaVuSans-53"/>
       <use x="224.560547" xlink:href="#DejaVuSans-49"/>
       <use x="288.183594" xlink:href="#DejaVuSans-58"/>
       <use x="321.875" xlink:href="#DejaVuSans-53"/>
       <use x="385.498047" xlink:href="#DejaVuSans-49"/>
      </g>
     </g>
    </g>
    <g id="xtick_8">
     <g id="line2d_8">
      <g>
       <use style="stroke:#000000;stroke-width:0.8;" x="302.974243" xlink:href="#m4d48b85349" y="448.56"/>
      </g>
     </g>
     <g id="text_8">
      <!-- 12:52:45 -->
      <g transform="translate(305.733618 500.4725)rotate(-90)scale(0.1 -0.1)">
       <use xlink:href="#DejaVuSans-49"/>
       <use x="63.623047" xlink:href="#DejaVuSans-50"/>
       <use x="127.246094" xlink:href="#DejaVuSans-58"/>
       <use x="160.9375" xlink:href="#DejaVuSans-53"/>
       <use x="224.560547" xlink:href="#DejaVuSans-50"/>
       <use x="288.183594" xlink:href="#DejaVuSans-58"/>
       <use x="321.875" xlink:href="#DejaVuSans-52"/>
       <use x="385.498047" xlink:href="#DejaVuSans-53"/>
      </g>
     </g>
    </g>
    <g id="xtick_9">
     <g id="line2d_9">
      <g>
       <use style="stroke:#000000;stroke-width:0.8;" x="327.349265" xlink:href="#m4d48b85349" y="448.56"/>
      </g>
     </g>
     <g id="text_9">
      <!-- 12:53:37 -->
      <g transform="translate(330.10864 500.4725)rotate(-90)scale(0.1 -0.1)">
       <use xlink:href="#DejaVuSans-49"/>
       <use x="63.623047" xlink:href="#DejaVuSans-50"/>
       <use x="127.246094" xlink:href="#DejaVuSans-58"/>
       <use x="160.9375" xlink:href="#DejaVuSans-53"/>
       <use x="224.560547" xlink:href="#DejaVuSans-51"/>
       <use x="288.183594" xlink:href="#DejaVuSans-58"/>
       <use x="321.875" xlink:href="#DejaVuSans-51"/>
       <use x="385.498047" xlink:href="#DejaVuSans-55"/>
      </g>
     </g>
    </g>
    <g id="xtick_10">
     <g id="line2d_10">
      <g>
       <use style="stroke:#000000;stroke-width:0.8;" x="351.724287" xlink:href="#m4d48b85349" y="448.56"/>
      </g>
     </g>
     <g id="text_10">
      <!-- 12:54:30 -->
      <g transform="translate(354.483662 500.4725)rotate(-90)scale(0.1 -0.1)">
       <use xlink:href="#DejaVuSans-49"/>
       <use x="63.623047" xlink:href="#DejaVuSans-50"/>
       <use x="127.246094" xlink:href="#DejaVuSans-58"/>
       <use x="160.9375" xlink:href="#DejaVuSans-53"/>
       <use x="224.560547" xlink:href="#DejaVuSans-52"/>
       <use x="288.183594" xlink:href="#DejaVuSans-58"/>
       <use x="321.875" xlink:href="#DejaVuSans-51"/>
       <use x="385.498047" xlink:href="#DejaVuSans-48"/>
      </g>
     </g>
    </g>
    <g id="xtick_11">
     <g id="line2d_11">
      <g>
       <use style="stroke:#000000;stroke-width:0.8;" x="376.099309" xlink:href="#m4d48b85349" y="448.56"/>
      </g>
     </g>
     <g id="text_11">
      <!-- 12:55:23 -->
      <g transform="translate(378.858684 500.4725)rotate(-90)scale(0.1 -0.1)">
       <use xlink:href="#DejaVuSans-49"/>
       <use x="63.623047" xlink:href="#DejaVuSans-50"/>
       <use x="127.246094" xlink:href="#DejaVuSans-58"/>
       <use x="160.9375" xlink:href="#DejaVuSans-53"/>
       <use x="224.560547" xlink:href="#DejaVuSans-53"/>
       <use x="288.183594" xlink:href="#DejaVuSans-58"/>
       <use x="321.875" xlink:href="#DejaVuSans-50"/>
       <use x="385.498047" xlink:href="#DejaVuSans-51"/>
      </g>
     </g>
    </g>
    <g id="xtick_12">
     <g id="line2d_12">
      <g>
       <use style="stroke:#000000;stroke-width:0.8;" x="400.474331" xlink:href="#m4d48b85349" y="448.56"/>
      </g>
     </g>
     <g id="text_12">
      <!-- 12:56:16 -->
      <g transform="translate(403.233706 500.4725)rotate(-90)scale(0.1 -0.1)">
       <use xlink:href="#DejaVuSans-49"/>
       <use x="63.623047" xlink:href="#DejaVuSans-50"/>
       <use x="127.246094" xlink:href="#DejaVuSans-58"/>
       <use x="160.9375" xlink:href="#DejaVuSans-53"/>
       <use x="224.560547" xlink:href="#DejaVuSans-54"/>
       <use x="288.183594" xlink:href="#DejaVuSans-58"/>
       <use x="321.875" xlink:href="#DejaVuSans-49"/>
       <use x="385.498047" xlink:href="#DejaVuSans-54"/>
      </g>
     </g>
    </g>
    <g id="xtick_13">
     <g id="line2d_13">
      <g>
       <use style="stroke:#000000;stroke-width:0.8;" x="424.849352" xlink:href="#m4d48b85349" y="448.56"/>
      </g>
     </g>
     <g id="text_13">
      <!-- 12:57:09 -->
      <g transform="translate(427.608727 500.4725)rotate(-90)scale(0.1 -0.1)">
       <use xlink:href="#DejaVuSans-49"/>
       <use x="63.623047" xlink:href="#DejaVuSans-50"/>
       <use x="127.246094" xlink:href="#DejaVuSans-58"/>
       <use x="160.9375" xlink:href="#DejaVuSans-53"/>
       <use x="224.560547" xlink:href="#DejaVuSans-55"/>
       <use x="288.183594" xlink:href="#DejaVuSans-58"/>
       <use x="321.875" xlink:href="#DejaVuSans-48"/>
       <use x="385.498047" xlink:href="#DejaVuSans-57"/>
      </g>
     </g>
    </g>
    <g id="xtick_14">
     <g id="line2d_14">
      <g>
       <use style="stroke:#000000;stroke-width:0.8;" x="449.224374" xlink:href="#m4d48b85349" y="448.56"/>
      </g>
     </g>
     <g id="text_14">
      <!-- 12:58:02 -->
      <g transform="translate(451.983749 500.4725)rotate(-90)scale(0.1 -0.1)">
       <use xlink:href="#DejaVuSans-49"/>
       <use x="63.623047" xlink:href="#DejaVuSans-50"/>
       <use x="127.246094" xlink:href="#DejaVuSans-58"/>
       <use x="160.9375" xlink:href="#DejaVuSans-53"/>
       <use x="224.560547" xlink:href="#DejaVuSans-56"/>
       <use x="288.183594" xlink:href="#DejaVuSans-58"/>
       <use x="321.875" xlink:href="#DejaVuSans-48"/>
       <use x="385.498047" xlink:href="#DejaVuSans-50"/>
      </g>
     </g>
    </g>
    <g id="xtick_15">
     <g id="line2d_15">
      <g>
       <use style="stroke:#000000;stroke-width:0.8;" x="473.599396" xlink:href="#m4d48b85349" y="448.56"/>
      </g>
     </g>
     <g id="text_15">
      <!-- 12:58:55 -->
      <g transform="translate(476.358771 500.4725)rotate(-90)scale(0.1 -0.1)">
       <use xlink:href="#DejaVuSans-49"/>
       <use x="63.623047" xlink:href="#DejaVuSans-50"/>
       <use x="127.246094" xlink:href="#DejaVuSans-58"/>
       <use x="160.9375" xlink:href="#DejaVuSans-53"/>
       <use x="224.560547" xlink:href="#DejaVuSans-56"/>
       <use x="288.183594" xlink:href="#DejaVuSans-58"/>
       <use x="321.875" xlink:href="#DejaVuSans-53"/>
       <use x="385.498047" xlink:href="#DejaVuSans-53"/>
      </g>
     </g>
    </g>
    <g id="xtick_16">
     <g id="line2d_16">
      <g>
       <use style="stroke:#000000;stroke-width:0.8;" x="497.974418" xlink:href="#m4d48b85349" y="448.56"/>
      </g>
     </g>
     <g id="text_16">
      <!-- 12:59:48 -->
      <g transform="translate(500.733793 500.4725)rotate(-90)scale(0.1 -0.1)">
       <use xlink:href="#DejaVuSans-49"/>
       <use x="63.623047" xlink:href="#DejaVuSans-50"/>
       <use x="127.246094" xlink:href="#DejaVuSans-58"/>
       <use x="160.9375" xlink:href="#DejaVuSans-53"/>
       <use x="224.560547" xlink:href="#DejaVuSans-57"/>
       <use x="288.183594" xlink:href="#DejaVuSans-58"/>
       <use x="321.875" xlink:href="#DejaVuSans-52"/>
       <use x="385.498047" xlink:href="#DejaVuSans-56"/>
      </g>
     </g>
    </g>
    <g id="xtick_17">
     <g id="line2d_17">
      <g>
       <use style="stroke:#000000;stroke-width:0.8;" x="522.349439" xlink:href="#m4d48b85349" y="448.56"/>
      </g>
     </g>
     <g id="text_17">
      <!-- 13:00:41 -->
      <g transform="translate(525.108814 500.4725)rotate(-90)scale(0.1 -0.1)">
       <use xlink:href="#DejaVuSans-49"/>
       <use x="63.623047" xlink:href="#DejaVuSans-51"/>
       <use x="127.246094" xlink:href="#DejaVuSans-58"/>
       <use x="160.9375" xlink:href="#DejaVuSans-48"/>
       <use x="224.560547" xlink:href="#DejaVuSans-48"/>
       <use x="288.183594" xlink:href="#DejaVuSans-58"/>
       <use x="321.875" xlink:href="#DejaVuSans-52"/>
       <use x="385.498047" xlink:href="#DejaVuSans-49"/>
      </g>
     </g>
    </g>
    <g id="xtick_18">
     <g id="line2d_18">
      <g>
       <use style="stroke:#000000;stroke-width:0.8;" x="546.724461" xlink:href="#m4d48b85349" y="448.56"/>
      </g>
     </g>
     <g id="text_18">
      <!-- 13:01:35 -->
      <g transform="translate(549.483836 500.4725)rotate(-90)scale(0.1 -0.1)">
       <use xlink:href="#DejaVuSans-49"/>
       <use x="63.623047" xlink:href="#DejaVuSans-51"/>
       <use x="127.246094" xlink:href="#DejaVuSans-58"/>
       <use x="160.9375" xlink:href="#DejaVuSans-48"/>
       <use x="224.560547" xlink:href="#DejaVuSans-49"/>
       <use x="288.183594" xlink:href="#DejaVuSans-58"/>
       <use x="321.875" xlink:href="#DejaVuSans-51"/>
       <use x="385.498047" xlink:href="#DejaVuSans-53"/>
      </g>
     </g>
    </g>
    <g id="xtick_19">
     <g id="line2d_19">
      <g>
       <use style="stroke:#000000;stroke-width:0.8;" x="571.099483" xlink:href="#m4d48b85349" y="448.56"/>
      </g>
     </g>
     <g id="text_19">
      <!-- 13:02:27 -->
      <g transform="translate(573.858858 500.4725)rotate(-90)scale(0.1 -0.1)">
       <use xlink:href="#DejaVuSans-49"/>
       <use x="63.623047" xlink:href="#DejaVuSans-51"/>
       <use x="127.246094" xlink:href="#DejaVuSans-58"/>
       <use x="160.9375" xlink:href="#DejaVuSans-48"/>
       <use x="224.560547" xlink:href="#DejaVuSans-50"/>
       <use x="288.183594" xlink:href="#DejaVuSans-58"/>
       <use x="321.875" xlink:href="#DejaVuSans-50"/>
       <use x="385.498047" xlink:href="#DejaVuSans-55"/>
      </g>
     </g>
    </g>
    <g id="xtick_20">
     <g id="line2d_20">
      <g>
       <use style="stroke:#000000;stroke-width:0.8;" x="595.474505" xlink:href="#m4d48b85349" y="448.56"/>
      </g>
     </g>
     <g id="text_20">
      <!-- 13:03:21 -->
      <g transform="translate(598.23388 500.4725)rotate(-90)scale(0.1 -0.1)">
       <use xlink:href="#DejaVuSans-49"/>
       <use x="63.623047" xlink:href="#DejaVuSans-51"/>
       <use x="127.246094" xlink:href="#DejaVuSans-58"/>
       <use x="160.9375" xlink:href="#DejaVuSans-48"/>
       <use x="224.560547" xlink:href="#DejaVuSans-51"/>
       <use x="288.183594" xlink:href="#DejaVuSans-58"/>
       <use x="321.875" xlink:href="#DejaVuSans-50"/>
       <use x="385.498047" xlink:href="#DejaVuSans-49"/>
      </g>
     </g>
    </g>
    <g id="text_21">
     <!-- timestamp -->
     <g transform="translate(354.264375 510.55125)scale(0.08 -0.08)">
      <defs>
       <path d="M 18.3125 70.21875 
L 18.3125 54.6875 
L 36.8125 54.6875 
L 36.8125 47.703125 
L 18.3125 47.703125 
L 18.3125 18.015625 
Q 18.3125 11.328125 20.140625 9.421875 
Q 21.96875 7.515625 27.59375 7.515625 
L 36.8125 7.515625 
L 36.8125 0 
L 27.59375 0 
Q 17.1875 0 13.234375 3.875 
Q 9.28125 7.765625 9.28125 18.015625 
L 9.28125 47.703125 
L 2.6875 47.703125 
L 2.6875 54.6875 
L 9.28125 54.6875 
L 9.28125 70.21875 
z
" id="DejaVuSans-116"/>
       <path d="M 9.421875 54.6875 
L 18.40625 54.6875 
L 18.40625 0 
L 9.421875 0 
z
M 9.421875 75.984375 
L 18.40625 75.984375 
L 18.40625 64.59375 
L 9.421875 64.59375 
z
" id="DejaVuSans-105"/>
       <path d="M 52 44.1875 
Q 55.375 50.25 60.0625 53.125 
Q 64.75 56 71.09375 56 
Q 79.640625 56 84.28125 50.015625 
Q 88.921875 44.046875 88.921875 33.015625 
L 88.921875 0 
L 79.890625 0 
L 79.890625 32.71875 
Q 79.890625 40.578125 77.09375 44.375 
Q 74.3125 48.1875 68.609375 48.1875 
Q 61.625 48.1875 57.5625 43.546875 
Q 53.515625 38.921875 53.515625 30.90625 
L 53.515625 0 
L 44.484375 0 
L 44.484375 32.71875 
Q 44.484375 40.625 41.703125 44.40625 
Q 38.921875 48.1875 33.109375 48.1875 
Q 26.21875 48.1875 22.15625 43.53125 
Q 18.109375 38.875 18.109375 30.90625 
L 18.109375 0 
L 9.078125 0 
L 9.078125 54.6875 
L 18.109375 54.6875 
L 18.109375 46.1875 
Q 21.1875 51.21875 25.484375 53.609375 
Q 29.78125 56 35.6875 56 
Q 41.65625 56 45.828125 52.96875 
Q 50 49.953125 52 44.1875 
z
" id="DejaVuSans-109"/>
       <path d="M 56.203125 29.59375 
L 56.203125 25.203125 
L 14.890625 25.203125 
Q 15.484375 15.921875 20.484375 11.0625 
Q 25.484375 6.203125 34.421875 6.203125 
Q 39.59375 6.203125 44.453125 7.46875 
Q 49.3125 8.734375 54.109375 11.28125 
L 54.109375 2.78125 
Q 49.265625 0.734375 44.1875 -0.34375 
Q 39.109375 -1.421875 33.890625 -1.421875 
Q 20.796875 -1.421875 13.15625 6.1875 
Q 5.515625 13.8125 5.515625 26.8125 
Q 5.515625 40.234375 12.765625 48.109375 
Q 20.015625 56 32.328125 56 
Q 43.359375 56 49.78125 48.890625 
Q 56.203125 41.796875 56.203125 29.59375 
z
M 47.21875 32.234375 
Q 47.125 39.59375 43.09375 43.984375 
Q 39.0625 48.390625 32.421875 48.390625 
Q 24.90625 48.390625 20.390625 44.140625 
Q 15.875 39.890625 15.1875 32.171875 
z
" id="DejaVuSans-101"/>
       <path d="M 44.28125 53.078125 
L 44.28125 44.578125 
Q 40.484375 46.53125 36.375 47.5 
Q 32.28125 48.484375 27.875 48.484375 
Q 21.1875 48.484375 17.84375 46.4375 
Q 14.5 44.390625 14.5 40.28125 
Q 14.5 37.15625 16.890625 35.375 
Q 19.28125 33.59375 26.515625 31.984375 
L 29.59375 31.296875 
Q 39.15625 29.25 43.1875 25.515625 
Q 47.21875 21.78125 47.21875 15.09375 
Q 47.21875 7.46875 41.1875 3.015625 
Q 35.15625 -1.421875 24.609375 -1.421875 
Q 20.21875 -1.421875 15.453125 -0.5625 
Q 10.6875 0.296875 5.421875 2 
L 5.421875 11.28125 
Q 10.40625 8.6875 15.234375 7.390625 
Q 20.0625 6.109375 24.8125 6.109375 
Q 31.15625 6.109375 34.5625 8.28125 
Q 37.984375 10.453125 37.984375 14.40625 
Q 37.984375 18.0625 35.515625 20.015625 
Q 33.0625 21.96875 24.703125 23.78125 
L 21.578125 24.515625 
Q 13.234375 26.265625 9.515625 29.90625 
Q 5.8125 33.546875 5.8125 39.890625 
Q 5.8125 47.609375 11.28125 51.796875 
Q 16.75 56 26.8125 56 
Q 31.78125 56 36.171875 55.265625 
Q 40.578125 54.546875 44.28125 53.078125 
z
" id="DejaVuSans-115"/>
       <path d="M 34.28125 27.484375 
Q 23.390625 27.484375 19.1875 25 
Q 14.984375 22.515625 14.984375 16.5 
Q 14.984375 11.71875 18.140625 8.90625 
Q 21.296875 6.109375 26.703125 6.109375 
Q 34.1875 6.109375 38.703125 11.40625 
Q 43.21875 16.703125 43.21875 25.484375 
L 43.21875 27.484375 
z
M 52.203125 31.203125 
L 52.203125 0 
L 43.21875 0 
L 43.21875 8.296875 
Q 40.140625 3.328125 35.546875 0.953125 
Q 30.953125 -1.421875 24.3125 -1.421875 
Q 15.921875 -1.421875 10.953125 3.296875 
Q 6 8.015625 6 15.921875 
Q 6 25.140625 12.171875 29.828125 
Q 18.359375 34.515625 30.609375 34.515625 
L 43.21875 34.515625 
L 43.21875 35.40625 
Q 43.21875 41.609375 39.140625 45 
Q 35.0625 48.390625 27.6875 48.390625 
Q 23 48.390625 18.546875 47.265625 
Q 14.109375 46.140625 10.015625 43.890625 
L 10.015625 52.203125 
Q 14.9375 54.109375 19.578125 55.046875 
Q 24.21875 56 28.609375 56 
Q 40.484375 56 46.34375 49.84375 
Q 52.203125 43.703125 52.203125 31.203125 
z
" id="DejaVuSans-97"/>
       <path d="M 18.109375 8.203125 
L 18.109375 -20.796875 
L 9.078125 -20.796875 
L 9.078125 54.6875 
L 18.109375 54.6875 
L 18.109375 46.390625 
Q 20.953125 51.265625 25.265625 53.625 
Q 29.59375 56 35.59375 56 
Q 45.5625 56 51.78125 48.09375 
Q 58.015625 40.1875 58.015625 27.296875 
Q 58.015625 14.40625 51.78125 6.484375 
Q 45.5625 -1.421875 35.59375 -1.421875 
Q 29.59375 -1.421875 25.265625 0.953125 
Q 20.953125 3.328125 18.109375 8.203125 
z
M 48.6875 27.296875 
Q 48.6875 37.203125 44.609375 42.84375 
Q 40.53125 48.484375 33.40625 48.484375 
Q 26.265625 48.484375 22.1875 42.84375 
Q 18.109375 37.203125 18.109375 27.296875 
Q 18.109375 17.390625 22.1875 11.75 
Q 26.265625 6.109375 33.40625 6.109375 
Q 40.53125 6.109375 44.609375 11.75 
Q 48.6875 17.390625 48.6875 27.296875 
z
" id="DejaVuSans-112"/>
      </defs>
      <use xlink:href="#DejaVuSans-116"/>
      <use x="39.208984" xlink:href="#DejaVuSans-105"/>
      <use x="66.992188" xlink:href="#DejaVuSans-109"/>
      <use x="164.404297" xlink:href="#DejaVuSans-101"/>
      <use x="225.927734" xlink:href="#DejaVuSans-115"/>
      <use x="278.027344" xlink:href="#DejaVuSans-116"/>
      <use x="317.236328" xlink:href="#DejaVuSans-97"/>
      <use x="378.515625" xlink:href="#DejaVuSans-109"/>
      <use x="475.927734" xlink:href="#DejaVuSans-112"/>
     </g>
    </g>
   </g>
   <g id="matplotlib.axis_2">
    <g id="ytick_1">
     <g id="line2d_21">
      <defs>
       <path d="M 0 0 
L -3.5 0 
" id="meceb70ba5b" style="stroke:#000000;stroke-width:0.8;"/>
      </defs>
      <g>
       <use style="stroke:#000000;stroke-width:0.8;" x="108" xlink:href="#meceb70ba5b" y="443.055585"/>
      </g>
     </g>
     <g id="text_22">
      <!-- 12900 -->
      <g transform="translate(69.1875 446.854804)scale(0.1 -0.1)">
       <use xlink:href="#DejaVuSans-49"/>
       <use x="63.623047" xlink:href="#DejaVuSans-50"/>
       <use x="127.246094" xlink:href="#DejaVuSans-57"/>
       <use x="190.869141" xlink:href="#DejaVuSans-48"/>
       <use x="254.492188" xlink:href="#DejaVuSans-48"/>
      </g>
     </g>
    </g>
    <g id="ytick_2">
     <g id="line2d_22">
      <g>
       <use style="stroke:#000000;stroke-width:0.8;" x="108" xlink:href="#meceb70ba5b" y="399.162004"/>
      </g>
     </g>
     <g id="text_23">
      <!-- 13000 -->
      <g transform="translate(69.1875 402.961223)scale(0.1 -0.1)">
       <use xlink:href="#DejaVuSans-49"/>
       <use x="63.623047" xlink:href="#DejaVuSans-51"/>
       <use x="127.246094" xlink:href="#DejaVuSans-48"/>
       <use x="190.869141" xlink:href="#DejaVuSans-48"/>
       <use x="254.492188" xlink:href="#DejaVuSans-48"/>
      </g>
     </g>
    </g>
    <g id="ytick_3">
     <g id="line2d_23">
      <g>
       <use style="stroke:#000000;stroke-width:0.8;" x="108" xlink:href="#meceb70ba5b" y="355.268423"/>
      </g>
     </g>
     <g id="text_24">
      <!-- 13100 -->
      <g transform="translate(69.1875 359.067642)scale(0.1 -0.1)">
       <use xlink:href="#DejaVuSans-49"/>
       <use x="63.623047" xlink:href="#DejaVuSans-51"/>
       <use x="127.246094" xlink:href="#DejaVuSans-49"/>
       <use x="190.869141" xlink:href="#DejaVuSans-48"/>
       <use x="254.492188" xlink:href="#DejaVuSans-48"/>
      </g>
     </g>
    </g>
    <g id="ytick_4">
     <g id="line2d_24">
      <g>
       <use style="stroke:#000000;stroke-width:0.8;" x="108" xlink:href="#meceb70ba5b" y="311.374843"/>
      </g>
     </g>
     <g id="text_25">
      <!-- 13200 -->
      <g transform="translate(69.1875 315.174061)scale(0.1 -0.1)">
       <use xlink:href="#DejaVuSans-49"/>
       <use x="63.623047" xlink:href="#DejaVuSans-51"/>
       <use x="127.246094" xlink:href="#DejaVuSans-50"/>
       <use x="190.869141" xlink:href="#DejaVuSans-48"/>
       <use x="254.492188" xlink:href="#DejaVuSans-48"/>
      </g>
     </g>
    </g>
    <g id="ytick_5">
     <g id="line2d_25">
      <g>
       <use style="stroke:#000000;stroke-width:0.8;" x="108" xlink:href="#meceb70ba5b" y="267.481262"/>
      </g>
     </g>
     <g id="text_26">
      <!-- 13300 -->
      <g transform="translate(69.1875 271.28048)scale(0.1 -0.1)">
       <use xlink:href="#DejaVuSans-49"/>
       <use x="63.623047" xlink:href="#DejaVuSans-51"/>
       <use x="127.246094" xlink:href="#DejaVuSans-51"/>
       <use x="190.869141" xlink:href="#DejaVuSans-48"/>
       <use x="254.492188" xlink:href="#DejaVuSans-48"/>
      </g>
     </g>
    </g>
    <g id="ytick_6">
     <g id="line2d_26">
      <g>
       <use style="stroke:#000000;stroke-width:0.8;" x="108" xlink:href="#meceb70ba5b" y="223.587681"/>
      </g>
     </g>
     <g id="text_27">
      <!-- 13400 -->
      <g transform="translate(69.1875 227.3869)scale(0.1 -0.1)">
       <use xlink:href="#DejaVuSans-49"/>
       <use x="63.623047" xlink:href="#DejaVuSans-51"/>
       <use x="127.246094" xlink:href="#DejaVuSans-52"/>
       <use x="190.869141" xlink:href="#DejaVuSans-48"/>
       <use x="254.492188" xlink:href="#DejaVuSans-48"/>
      </g>
     </g>
    </g>
    <g id="ytick_7">
     <g id="line2d_27">
      <g>
       <use style="stroke:#000000;stroke-width:0.8;" x="108" xlink:href="#meceb70ba5b" y="179.6941"/>
      </g>
     </g>
     <g id="text_28">
      <!-- 13500 -->
      <g transform="translate(69.1875 183.493319)scale(0.1 -0.1)">
       <use xlink:href="#DejaVuSans-49"/>
       <use x="63.623047" xlink:href="#DejaVuSans-51"/>
       <use x="127.246094" xlink:href="#DejaVuSans-53"/>
       <use x="190.869141" xlink:href="#DejaVuSans-48"/>
       <use x="254.492188" xlink:href="#DejaVuSans-48"/>
      </g>
     </g>
    </g>
    <g id="ytick_8">
     <g id="line2d_28">
      <g>
       <use style="stroke:#000000;stroke-width:0.8;" x="108" xlink:href="#meceb70ba5b" y="135.800519"/>
      </g>
     </g>
     <g id="text_29">
      <!-- 13600 -->
      <g transform="translate(69.1875 139.599738)scale(0.1 -0.1)">
       <use xlink:href="#DejaVuSans-49"/>
       <use x="63.623047" xlink:href="#DejaVuSans-51"/>
       <use x="127.246094" xlink:href="#DejaVuSans-54"/>
       <use x="190.869141" xlink:href="#DejaVuSans-48"/>
       <use x="254.492188" xlink:href="#DejaVuSans-48"/>
      </g>
     </g>
    </g>
    <g id="ytick_9">
     <g id="line2d_29">
      <g>
       <use style="stroke:#000000;stroke-width:0.8;" x="108" xlink:href="#meceb70ba5b" y="91.906939"/>
      </g>
     </g>
     <g id="text_30">
      <!-- 13700 -->
      <g transform="translate(69.1875 95.706157)scale(0.1 -0.1)">
       <use xlink:href="#DejaVuSans-49"/>
       <use x="63.623047" xlink:href="#DejaVuSans-51"/>
       <use x="127.246094" xlink:href="#DejaVuSans-55"/>
       <use x="190.869141" xlink:href="#DejaVuSans-48"/>
       <use x="254.492188" xlink:href="#DejaVuSans-48"/>
      </g>
     </g>
    </g>
    <g id="text_31">
     <!-- MB -->
     <g transform="translate(63.52375 260.715625)rotate(-90)scale(0.08 -0.08)">
      <defs>
       <path d="M 9.8125 72.90625 
L 24.515625 72.90625 
L 43.109375 23.296875 
L 61.8125 72.90625 
L 76.515625 72.90625 
L 76.515625 0 
L 66.890625 0 
L 66.890625 64.015625 
L 48.09375 14.015625 
L 38.1875 14.015625 
L 19.390625 64.015625 
L 19.390625 0 
L 9.8125 0 
z
" id="DejaVuSans-77"/>
       <path d="M 19.671875 34.8125 
L 19.671875 8.109375 
L 35.5 8.109375 
Q 43.453125 8.109375 47.28125 11.40625 
Q 51.125 14.703125 51.125 21.484375 
Q 51.125 28.328125 47.28125 31.5625 
Q 43.453125 34.8125 35.5 34.8125 
z
M 19.671875 64.796875 
L 19.671875 42.828125 
L 34.28125 42.828125 
Q 41.5 42.828125 45.03125 45.53125 
Q 48.578125 48.25 48.578125 53.8125 
Q 48.578125 59.328125 45.03125 62.0625 
Q 41.5 64.796875 34.28125 64.796875 
z
M 9.8125 72.90625 
L 35.015625 72.90625 
Q 46.296875 72.90625 52.390625 68.21875 
Q 58.5 63.53125 58.5 54.890625 
Q 58.5 48.1875 55.375 44.234375 
Q 52.25 40.28125 46.1875 39.3125 
Q 53.46875 37.75 57.5 32.78125 
Q 61.53125 27.828125 61.53125 20.40625 
Q 61.53125 10.640625 54.890625 5.3125 
Q 48.25 0 35.984375 0 
L 9.8125 0 
z
" id="DejaVuSans-66"/>
      </defs>
      <use xlink:href="#DejaVuSans-77"/>
      <use x="86.279297" xlink:href="#DejaVuSans-66"/>
     </g>
    </g>
   </g>
   <g id="line2d_30">
    <path clip-path="url(#p166a79ccbb)" d="M 132.349091 82.005221 
L 132.867708 82.321648 
L 133.386326 82.309063 
L 133.904943 81.489229 
L 134.423561 84.114135 
L 134.942178 80.870758 
L 135.460796 80.773672 
L 136.498031 78.12 
L 137.016648 82.434915 
L 137.535266 82.183211 
L 138.053883 80.480618 
L 138.572501 88.594455 
L 139.609736 145.797637 
L 140.646971 256.333163 
L 141.165588 281.961958 
L 142.202823 350.709334 
L 142.721441 385.320342 
L 143.240058 404.955002 
L 143.758676 411.360852 
L 144.277293 415.591266 
L 144.795911 414.543101 
L 145.314528 414.437026 
L 145.833146 412.781178 
L 146.351763 415.201126 
L 146.87038 415.53733 
L 147.388998 415.353946 
L 148.426233 412.265186 
L 148.94485 413.962386 
L 149.463468 414.50175 
L 149.982085 414.381292 
L 150.500703 412.87287 
L 151.01932 413.561458 
L 151.537938 416.076694 
L 152.056555 414.480176 
L 152.575173 414.275217 
L 153.09379 413.358298 
L 153.612408 414.98538 
L 154.131025 414.873911 
L 154.649643 415.238881 
L 155.16826 414.733677 
L 155.686878 412.948381 
L 156.205495 416.551334 
L 156.724113 416.288844 
L 157.24273 415.697341 
L 157.761348 413.254021 
L 158.279965 412.311931 
L 158.798583 414.86672 
L 159.3172 414.250047 
L 160.354435 411.63413 
L 160.873053 415.07887 
L 161.39167 414.897284 
L 161.910288 414.480176 
L 162.428905 413.140754 
L 162.947523 413.498532 
L 163.46614 415.816001 
L 163.984757 415.97781 
L 164.503375 413.901258 
L 165.021992 414.438824 
L 165.54061 416.94507 
L 166.059227 417.15722 
L 166.577845 416.725729 
L 167.096462 416.581898 
L 167.61508 414.936837 
L 168.133697 417.851203 
L 168.652315 417.49702 
L 169.170932 416.569313 
L 169.68955 414.972795 
L 170.208167 415.576883 
L 170.726785 415.754873 
L 171.245402 415.623628 
L 171.76402 412.132143 
L 172.282637 412.266984 
L 172.801255 416.02096 
L 173.319872 416.288844 
L 173.83849 413.572246 
L 174.357107 413.554267 
L 174.875725 414.395675 
L 175.394342 415.997587 
L 175.91296 416.168386 
L 176.431577 415.780044 
L 176.950195 414.746262 
L 177.468812 417.554552 
L 177.98743 418.16763 
L 178.506047 416.625048 
L 179.024665 416.738314 
L 179.543282 415.690149 
L 180.0619 417.86199 
L 180.580517 418.401354 
L 181.099134 417.937501 
L 181.617752 416.930687 
L 182.136369 414.228472 
L 182.654987 417.506009 
L 183.173604 416.955858 
L 183.692222 413.482352 
L 184.210839 413.768215 
L 184.729457 415.154381 
L 185.248074 415.215509 
L 186.285309 412.887253 
L 186.803927 412.387442 
L 187.322544 418.056161 
L 187.841162 416.921698 
L 188.359779 416.479419 
L 188.878397 414.857731 
L 189.397014 417.470052 
L 189.915632 417.966267 
L 190.434249 418.120885 
L 190.952867 415.965225 
L 191.471484 414.751656 
L 191.990102 415.904097 
L 192.508719 415.830384 
L 193.027337 415.896906 
L 193.545954 413.786193 
L 194.064572 416.193556 
L 195.101807 416.015566 
L 195.620424 413.011307 
L 196.139042 413.597416 
L 196.657659 417.568935 
L 197.176277 417.328019 
L 197.694894 416.927092 
L 198.213511 413.548873 
L 199.250746 415.688352 
L 199.769364 416.087481 
L 200.287981 415.65599 
L 200.806599 414.67974 
L 201.325216 416.463238 
L 201.843834 416.438068 
L 202.362451 416.137822 
L 202.881069 415.131008 
L 203.399686 414.384888 
L 203.918304 417.549158 
L 204.436921 418.093916 
L 205.474156 415.976013 
L 205.992774 416.092875 
L 206.511391 416.639431 
L 207.030009 414.78222 
L 207.548626 414.188919 
L 208.067244 413.128169 
L 208.585861 416.218727 
L 209.104479 416.610665 
L 209.623096 421.044239 
L 210.141714 419.321869 
L 211.178949 419.248156 
L 211.697566 423.228665 
L 212.216184 423.75904 
L 212.734801 421.468539 
L 213.253419 418.545185 
L 213.772036 424.668768 
L 214.290653 424.589661 
L 214.809271 418.595525 
L 216.365123 418.989261 
L 216.883741 416.601675 
L 217.402358 415.04471 
L 217.920976 415.476202 
L 218.439593 419.469295 
L 218.958211 419.311082 
L 219.995446 416.367951 
L 220.514063 418.816665 
L 221.032681 418.76093 
L 221.551298 419.057581 
L 222.588533 417.374764 
L 223.107151 419.661669 
L 223.625768 419.79651 
L 224.144386 419.309284 
L 224.663003 417.227338 
L 225.700238 417.576127 
L 226.737473 417.002603 
L 227.256091 415.544521 
L 227.774708 418.850824 
L 228.293326 419.501657 
L 228.811943 419.692233 
L 229.330561 417.876373 
L 229.849178 419.285912 
L 230.367796 418.599121 
L 230.886413 418.764526 
L 231.40503 416.132428 
L 231.923648 416.136024 
L 232.442265 421.560231 
L 232.960883 421.182676 
L 233.998118 417.016986 
L 234.516735 417.595903 
L 235.035353 419.70302 
L 235.55397 419.442327 
L 236.072588 418.904761 
L 236.591205 417.741532 
L 237.109823 421.040644 
L 237.62844 421.326507 
L 238.147058 420.801525 
L 238.665675 420.06799 
L 239.184293 418.967687 
L 239.70291 419.03241 
L 240.221528 418.827452 
L 240.740145 417.331615 
L 241.77738 417.173401 
L 242.295998 417.959075 
L 242.814615 418.360003 
L 243.333233 415.377318 
L 243.85185 415.569691 
L 244.370468 418.25213 
L 244.889085 418.09931 
L 245.407703 417.628265 
L 245.92632 416.22412 
L 246.444938 416.533356 
L 246.963555 419.03241 
L 247.482173 418.890378 
L 248.00079 417.58152 
L 248.519407 417.214753 
L 249.038025 418.368992 
L 249.556642 417.245317 
L 250.07526 416.846187 
L 250.593877 417.20037 
L 251.112495 415.549915 
L 251.631112 420.693652 
L 252.14973 420.8231 
L 253.186965 417.754117 
L 253.705582 418.6171 
L 254.2242 418.13347 
L 254.742817 415.916682 
L 255.261435 415.584074 
L 255.780052 414.402867 
L 256.29867 417.453871 
L 256.817287 417.655233 
L 257.335905 416.968443 
L 257.854522 415.436648 
L 258.37314 415.738692 
L 258.891757 416.628643 
L 259.928992 417.196774 
L 260.44761 415.663181 
L 260.966227 419.120507 
L 261.484845 419.127698 
L 262.003462 418.685419 
L 262.52208 417.155423 
L 263.040697 418.01481 
L 263.559315 419.534019 
L 264.077932 419.023421 
L 264.59655 417.64984 
L 265.115167 416.909113 
L 265.633784 417.40353 
L 266.152402 419.659871 
L 267.189637 416.294238 
L 267.708254 415.898704 
L 268.226872 419.061176 
L 269.264107 418.467876 
L 269.782724 418.333035 
L 270.301342 416.454249 
L 270.819959 418.942516 
L 271.338577 419.122304 
L 271.857194 418.901165 
L 272.375812 417.417913 
L 272.894429 418.750143 
L 273.931664 417.779287 
L 274.968899 415.389903 
L 275.487517 419.151071 
L 276.006134 419.828872 
L 276.524752 419.368614 
L 277.043369 417.924916 
L 277.561987 417.818841 
L 278.080604 420.21182 
L 278.599222 423.791402 
L 279.117839 423.214282 
L 280.155074 420.260363 
L 280.673692 420.548024 
L 281.192309 420.429364 
L 281.710927 419.196018 
L 282.229544 418.485855 
L 282.748161 420.709833 
L 283.266779 421.033452 
L 283.785396 420.691855 
L 284.822631 418.680026 
L 285.341249 418.399556 
L 285.859866 419.003644 
L 286.378484 419.089943 
L 286.897101 417.254306 
L 287.415719 424.093446 
L 287.934336 423.448006 
L 288.971571 418.530802 
L 289.490189 418.636877 
L 290.008806 420.353853 
L 290.527424 419.812691 
L 291.046041 416.858772 
L 291.564659 416.858772 
L 292.083276 420.391608 
L 292.601894 421.351677 
L 293.120511 420.540833 
L 293.639129 420.003266 
L 294.157746 418.638674 
L 294.676364 421.531465 
L 295.194981 419.967309 
L 295.713599 420.303512 
L 296.232216 418.606313 
L 296.750834 419.920564 
L 297.269451 420.684663 
L 297.788069 420.168671 
L 298.306686 420.125522 
L 298.825304 417.049348 
L 299.343921 420.7386 
L 299.862538 420.657695 
L 300.381156 420.846472 
L 300.899773 418.658451 
L 301.418391 420.303512 
L 301.937008 419.566381 
L 302.455626 417.633659 
L 302.974243 416.308621 
L 303.492861 415.677564 
L 304.011478 420.769163 
L 304.530096 419.978096 
L 305.048713 419.877414 
L 305.567331 418.442705 
L 306.085948 418.908357 
L 306.604566 420.533641 
L 307.123183 419.352433 
L 307.641801 419.228379 
L 308.160418 417.926714 
L 308.679036 419.634701 
L 309.197653 420.868047 
L 309.716271 419.699424 
L 310.234888 419.740776 
L 310.753506 418.13347 
L 311.272123 420.041022 
L 311.790741 419.76235 
L 312.309358 419.652679 
L 312.827976 417.840415 
L 313.346593 419.564583 
L 313.865211 420.080575 
L 314.902446 417.631861 
L 315.421063 417.648042 
L 315.939681 419.913372 
L 316.458298 420.253172 
L 316.976915 419.435136 
L 317.495533 417.923118 
L 318.01415 418.000427 
L 318.532768 420.977718 
L 319.051385 419.345242 
L 319.570003 418.656653 
L 320.08862 416.797644 
L 320.607238 418.624291 
L 321.125855 421.292347 
L 321.644473 420.103947 
L 322.16309 420.321491 
L 322.681708 418.719579 
L 323.200325 421.177282 
L 323.718943 420.371832 
L 324.23756 420.263959 
L 324.756178 419.983489 
L 325.274795 418.406748 
L 325.793413 418.928133 
L 326.31203 419.068368 
L 326.830648 417.477243 
L 327.349265 417.173401 
L 327.867883 418.773515 
L 328.3865 419.334454 
L 328.905118 419.327263 
L 329.423735 419.679648 
L 329.942353 418.349216 
L 330.46097 420.051809 
L 330.979588 419.82168 
L 331.498205 420.032032 
L 332.016823 419.13489 
L 332.53544 416.175577 
L 333.054058 421.011877 
L 334.091292 419.864829 
L 334.60991 418.045374 
L 335.128527 419.167251 
L 335.647145 419.868425 
L 336.165762 419.823478 
L 336.68438 420.059 
L 337.202997 418.422929 
L 337.721615 421.351677 
L 338.240232 420.050011 
L 338.75885 420.650503 
L 339.277467 418.440908 
L 339.796085 419.001846 
L 340.314702 420.476109 
L 340.83332 420.619939 
L 341.351937 419.934947 
L 341.870555 418.629685 
L 342.389172 422.212862 
L 343.426407 421.617763 
L 343.945025 418.901165 
L 344.463642 419.663467 
L 344.98226 421.829913 
L 345.500877 422.167915 
L 346.019495 421.624955 
L 346.538112 420.425768 
L 347.05673 422.022287 
L 347.575347 428.244753 
L 348.093965 427.692803 
L 348.612582 425.903912 
L 349.1312 421.54405 
L 349.649817 423.555879 
L 351.205669 419.330859 
L 351.724287 425.405899 
L 352.242904 427.3566 
L 352.761522 423.018313 
L 353.280139 423.127983 
L 353.798757 421.928797 
L 354.317374 423.953211 
L 354.835992 422.773801 
L 355.354609 422.987749 
L 355.873227 422.498725 
L 356.391844 419.070166 
L 356.910462 422.03667 
L 357.429079 421.826318 
L 357.947697 421.950371 
L 358.466314 419.934947 
L 358.984932 423.54689 
L 359.503549 422.42681 
L 360.022167 421.788562 
L 360.540784 420.285533 
L 361.059402 420.231597 
L 361.578019 424.469203 
L 362.096637 423.820168 
L 363.133872 420.184852 
L 363.652489 420.880632 
L 364.171107 423.296984 
L 365.208342 422.946397 
L 365.726959 421.817328 
L 366.245577 424.753268 
L 366.764194 424.983397 
L 367.282812 422.818748 
L 367.801429 422.72346 
L 368.320046 421.795754 
L 368.838664 422.967972 
L 369.357281 422.586821 
L 369.875899 422.660534 
L 370.394516 421.090984 
L 370.913134 421.517082 
L 371.431751 423.861519 
L 371.950369 423.825561 
L 372.468986 423.250239 
L 372.987604 419.904383 
L 373.506221 424.310989 
L 374.024839 424.925865 
L 374.543456 425.190153 
L 375.062074 420.470715 
L 375.580691 420.235193 
L 376.099309 423.047079 
L 376.617926 422.509512 
L 377.655161 420.583982 
L 378.173779 422.90145 
L 378.692396 422.861897 
L 379.211014 422.338714 
L 379.729631 420.772759 
L 380.766866 421.820924 
L 381.285484 421.6717 
L 381.804101 422.175106 
L 382.322719 421.639338 
L 382.841336 421.45955 
L 383.359954 422.786386 
L 384.397188 419.285912 
L 384.915806 418.13347 
L 385.434423 420.519258 
L 385.953041 421.919807 
L 386.471658 421.597987 
L 386.990276 420.765568 
L 387.508893 419.665265 
L 388.027511 422.459172 
L 388.546128 422.75762 
L 389.064746 421.772381 
L 389.583363 420.474311 
L 390.101981 421.028058 
L 390.620598 423.857923 
L 391.657833 423.332942 
L 392.176451 421.914414 
L 392.695068 422.798971 
L 393.732303 422.090606 
L 394.250921 422.281181 
L 394.769538 421.481124 
L 395.288156 422.243426 
L 395.806773 422.608396 
L 396.325391 422.430406 
L 396.844008 419.523232 
L 397.881243 423.165739 
L 398.399861 422.779195 
L 398.918478 422.653343 
L 399.437096 420.449141 
L 399.955713 421.588997 
L 400.474331 422.30815 
L 400.992948 421.673498 
L 401.511565 419.740776 
L 402.5488 423.735667 
L 403.067418 423.286197 
L 403.586035 423.021908 
L 404.104653 421.819126 
L 404.62327 422.101393 
L 405.141888 422.973366 
L 406.179123 421.783168 
L 406.69774 419.771339 
L 407.216358 423.05427 
L 407.734975 423.165739 
L 408.253593 422.939206 
L 408.77221 420.316097 
L 409.290828 421.898233 
L 409.809445 423.980179 
L 410.328063 423.390474 
L 410.84668 420.700844 
L 411.365298 420.72961 
L 411.883915 424.048499 
L 412.402533 424.625618 
L 412.92115 424.519543 
L 413.439768 423.318559 
L 413.958385 423.480368 
L 414.477003 424.893503 
L 414.99562 423.742859 
L 415.514238 423.095622 
L 416.032855 421.608774 
L 416.551473 430.92 
L 417.07009 428.219583 
L 417.588708 427.306259 
L 418.107325 423.038089 
L 418.625942 421.132335 
L 419.14456 424.167159 
L 419.663177 424.258851 
L 420.181795 420.407789 
L 421.21903 420.851866 
L 421.737647 422.561651 
L 422.256265 422.374671 
L 422.774882 420.463524 
L 423.2935 420.488694 
L 423.812117 425.208132 
L 424.330735 424.830577 
L 424.849352 423.235856 
L 425.36797 422.140947 
L 425.886587 422.281181 
L 426.405205 425.226111 
L 427.44244 424.185138 
L 427.961057 422.507714 
L 428.479675 424.381107 
L 428.998292 424.458415 
L 429.51691 424.143786 
L 430.035527 421.125144 
L 430.554145 421.51888 
L 431.072762 423.48756 
L 431.59138 422.761216 
L 432.109997 422.331522 
L 432.628615 420.772759 
L 433.147232 421.781371 
L 433.66585 424.45482 
L 434.184467 423.8777 
L 434.703085 423.000334 
L 435.221702 421.274368 
L 435.740319 423.253835 
L 436.258937 423.505538 
L 436.777554 422.721662 
L 437.296172 422.234437 
L 437.814789 420.817706 
L 438.333407 423.444411 
L 438.852024 423.223271 
L 439.370642 422.344107 
L 439.889259 421.887446 
L 440.407877 423.969392 
L 441.445112 423.503741 
L 441.963729 420.539035 
L 442.482347 420.851866 
L 443.000964 422.63896 
L 443.519582 422.734247 
L 444.038199 420.88243 
L 445.075434 420.470715 
L 445.594052 422.658736 
L 446.112669 421.259985 
L 446.631287 421.344485 
L 447.149904 419.462104 
L 447.668522 423.992764 
L 448.187139 424.496171 
L 448.705757 424.294808 
L 449.224374 424.850354 
L 449.742992 423.208888 
L 450.261609 423.169335 
L 450.780227 423.286197 
L 451.298844 423.021908 
L 451.817462 421.669902 
L 452.336079 420.830291 
L 452.854696 424.969014 
L 453.373314 424.985195 
L 453.891931 424.05569 
L 454.410549 422.538278 
L 454.929166 422.290171 
L 455.447784 422.198479 
L 455.966401 422.478948 
L 456.485019 421.743615 
L 457.003636 420.334076 
L 457.522254 421.393028 
L 458.040871 421.73103 
L 458.559489 420.78894 
L 459.078106 418.374386 
L 459.596724 422.230841 
L 460.115341 423.20709 
L 461.152576 423.025504 
L 461.671194 421.394826 
L 462.189811 421.716647 
L 462.708429 420.355651 
L 463.227046 418.280896 
L 463.745664 416.71674 
L 464.264281 418.036384 
L 464.782899 417.324423 
L 465.301516 417.286668 
L 465.820134 417.694787 
L 466.338751 415.567894 
L 466.857369 418.327641 
L 467.894604 418.12448 
L 468.413221 414.762443 
L 468.931839 414.330951 
L 469.450456 416.010172 
L 469.969073 416.391323 
L 470.487691 415.976013 
L 472.043543 424.228287 
L 472.562161 423.154952 
L 473.080778 418.698004 
L 473.599396 416.643026 
L 474.118013 418.354609 
L 474.636631 417.712766 
L 475.155248 417.432296 
L 475.673866 415.540925 
L 476.192483 417.117667 
L 476.711101 415.866342 
L 477.748336 414.686932 
L 478.266953 413.020296 
L 478.785571 415.603851 
L 479.304188 414.899082 
L 479.822806 413.250425 
L 480.341423 412.405421 
L 480.860041 412.880061 
L 481.378658 417.772096 
L 481.897276 414.857731 
L 482.415893 413.120977 
L 482.934511 412.989732 
L 483.453128 415.084264 
L 483.971746 417.791872 
L 485.008981 418.007618 
L 485.527598 421.011877 
L 486.046216 425.053514 
L 486.564833 422.982355 
L 487.08345 418.03998 
L 487.602068 415.976013 
L 488.120685 416.900123 
L 488.639303 416.333791 
L 489.15792 415.274839 
L 489.676538 420.125522 
L 490.713773 417.836819 
L 491.23239 417.831426 
L 491.751008 417.628265 
L 492.269625 416.738314 
L 492.788243 414.609623 
L 493.30686 416.265471 
L 493.825478 416.37694 
L 494.344095 416.13962 
L 494.862713 414.321962 
L 495.38133 415.839374 
L 495.899948 416.765282 
L 496.418565 416.511781 
L 496.937183 416.67359 
L 497.4558 415.709926 
L 497.974418 417.655233 
L 498.493035 416.607069 
L 499.011653 414.771432 
L 499.53027 411.697056 
L 500.048888 411.224213 
L 500.567505 412.358676 
L 501.086123 412.144728 
L 501.60474 412.401825 
L 502.123358 410.888009 
L 502.641975 411.867854 
L 503.160593 413.527299 
L 503.67921 413.345713 
L 504.197827 411.911003 
L 504.716445 410.994084 
L 505.235062 411.546034 
L 505.75368 410.391794 
L 506.272297 410.071771 
L 506.790915 408.611892 
L 507.309532 410.59855 
L 507.82815 413.155137 
L 508.346767 412.554645 
L 508.865385 412.881859 
L 509.384002 410.958126 
L 509.90262 412.344293 
L 510.421237 412.547453 
L 510.939855 412.121356 
L 511.458472 411.35366 
L 511.97709 409.672642 
L 512.495707 409.697812 
L 513.014325 409.562971 
L 513.532942 408.6047 
L 514.05156 406.481403 
L 514.570177 407.617663 
L 515.088795 409.553981 
L 515.607412 409.162043 
L 516.12603 405.328961 
L 516.644647 405.140183 
L 517.163265 406.184752 
L 518.2005 406.360945 
L 518.719117 404.516319 
L 519.756352 407.932293 
L 520.27497 408.432104 
L 520.793587 408.597509 
L 521.312204 406.911096 
L 521.830822 409.401161 
L 522.349439 408.809659 
L 522.868057 408.753924 
L 523.386674 407.680589 
L 523.905292 407.12864 
L 524.423909 409.9621 
L 524.942527 409.235756 
L 525.461144 408.984053 
L 525.979762 408.196581 
L 526.498379 410.738785 
L 527.016997 408.85101 
L 527.535614 405.897091 
L 528.054232 406.146997 
L 528.572849 404.223264 
L 529.091467 408.88517 
L 529.610084 408.009602 
L 530.128702 407.504397 
L 530.647319 406.118231 
L 531.165937 407.279662 
L 531.684554 409.268118 
L 532.203172 408.514806 
L 532.721789 407.135831 
L 533.240407 406.217114 
L 533.759024 409.830855 
L 534.277642 409.041585 
L 534.796259 407.91791 
L 535.314877 404.54868 
L 535.833494 403.53108 
L 536.352112 405.118609 
L 536.870729 403.585016 
L 537.389347 400.343437 
L 537.907964 400.079148 
L 538.426581 403.367473 
L 538.945199 403.680304 
L 539.982434 402.952162 
L 540.501051 401.062589 
L 541.019669 402.606969 
L 541.538286 401.46891 
L 542.056904 398.534768 
L 542.575521 396.343151 
L 543.094139 395.618605 
L 543.612756 397.225911 
L 544.131374 397.66819 
L 544.649991 397.296028 
L 545.168609 396.339556 
L 545.687226 398.860185 
L 546.205844 398.860185 
L 546.724461 398.563534 
L 547.243079 398.594098 
L 547.761696 397.468625 
L 548.280314 399.113686 
L 549.317549 397.536944 
L 549.836166 394.428408 
L 550.354784 397.416486 
L 550.873401 396.78543 
L 551.392019 396.618227 
L 551.910636 393.721841 
L 552.429254 392.193642 
L 552.947871 395.584445 
L 553.466489 395.766031 
L 553.985106 394.315141 
L 554.503723 399.289878 
L 555.022341 400.156457 
L 555.540958 402.887438 
L 556.059576 397.049719 
L 556.578193 394.719665 
L 557.096811 394.998336 
L 557.615428 398.4233 
L 559.171281 396.211906 
L 559.689898 394.69809 
L 560.208516 395.990767 
L 560.727133 394.847314 
L 561.245751 395.06306 
L 561.764368 393.373052 
L 562.282986 395.323753 
L 562.801603 398.0835 
L 563.320221 397.474018 
L 563.838838 397.605264 
L 564.357456 395.686925 
L 564.876073 395.526913 
L 565.394691 396.147182 
L 565.913308 395.861319 
L 566.431926 394.209066 
L 566.950543 393.479127 
L 567.469161 395.235657 
L 568.506396 395.712095 
L 569.025013 393.757798 
L 569.543631 397.914499 
L 570.062248 398.746918 
L 570.580866 398.380151 
L 571.099483 396.515748 
L 571.6181 394.072427 
L 572.136718 394.419419 
L 572.655335 391.523032 
L 573.173953 389.464458 
L 573.69257 388.472028 
L 574.211188 389.246915 
L 574.729805 391.084349 
L 575.248423 390.983668 
L 575.76704 388.694965 
L 576.285658 388.768678 
L 576.804275 388.490007 
L 577.322893 387.333969 
L 577.84151 386.756849 
L 578.360128 386.346933 
L 578.878745 384.798957 
L 579.397363 385.978367 
L 579.91598 386.702913 
L 580.434598 384.11756 
L 580.953215 384.399827 
L 581.471833 386.731679 
L 581.99045 387.734897 
L 582.509068 387.999185 
L 583.027685 385.732057 
L 583.546303 385.654748 
L 584.06492 386.699317 
L 584.583538 385.724866 
L 585.102155 385.473162 
L 585.620773 384.27038 
L 586.13939 385.126171 
L 586.658008 385.750036 
L 587.176625 385.145948 
L 587.695243 384.806148 
L 588.21386 383.335482 
L 588.732477 383.856867 
L 589.251095 384.628158 
L 589.769712 384.90683 
L 590.28833 383.015459 
L 590.806947 382.42935 
L 591.325565 385.018298 
L 591.844182 385.501928 
L 592.3628 385.579237 
L 592.881417 385.456981 
L 593.400035 388.116048 
L 593.918652 388.099867 
L 594.43727 387.912887 
L 594.955887 387.95244 
L 595.474505 386.657966 
L 595.993122 386.591444 
L 596.51174 386.154559 
L 597.548975 386.645381 
L 598.58621 388.367751 
L 599.104827 387.40948 
L 599.623445 385.456981 
L 600.142062 385.62778 
L 600.66068 388.477422 
L 601.179297 388.840594 
L 602.216532 386.794605 
L 602.73515 387.628822 
L 603.253767 388.245495 
L 603.772385 387.373523 
L 604.291002 387.637811 
L 604.80962 386.303783 
L 605.328237 388.959254 
L 605.846854 387.864344 
L 606.365472 387.948845 
L 606.884089 387.792429 
L 607.402707 384.919415 
L 607.921324 387.851759 
L 608.439942 386.237262 
L 608.958559 385.550471 
L 609.477177 381.832453 
L 609.995794 382.614531 
L 610.514412 382.875224 
L 611.033029 382.718809 
L 612.070264 378.998993 
L 612.588882 381.891783 
L 613.107499 381.444111 
L 613.626117 380.066934 
L 614.144734 377.598443 
L 614.663352 376.277001 
L 615.181969 377.977796 
L 615.700587 377.382698 
L 616.737822 374.522269 
L 617.256439 377.675752 
L 617.775057 376.618598 
L 618.812292 376.521513 
L 619.330909 376.052266 
L 619.330909 376.052266 
" style="fill:none;stroke:#1f77b4;stroke-linecap:square;stroke-width:1.5;"/>
   </g>
   <g id="patch_3">
    <path d="M 108 448.56 
L 108 60.48 
" style="fill:none;stroke:#000000;stroke-linecap:square;stroke-linejoin:miter;stroke-width:0.8;"/>
   </g>
   <g id="patch_4">
    <path d="M 643.68 448.56 
L 643.68 60.48 
" style="fill:none;stroke:#000000;stroke-linecap:square;stroke-linejoin:miter;stroke-width:0.8;"/>
   </g>
   <g id="patch_5">
    <path d="M 108 448.56 
L 643.68 448.56 
" style="fill:none;stroke:#000000;stroke-linecap:square;stroke-linejoin:miter;stroke-width:0.8;"/>
   </g>
   <g id="patch_6">
    <path d="M 108 60.48 
L 643.68 60.48 
" style="fill:none;stroke:#000000;stroke-linecap:square;stroke-linejoin:miter;stroke-width:0.8;"/>
   </g>
   <g id="text_32">
    <!-- unikernel_fbuddyalloc - free -->
    <g transform="translate(271.560703 54.48)scale(0.15 -0.15)">
     <defs>
      <path d="M 8.5 21.578125 
L 8.5 54.6875 
L 17.484375 54.6875 
L 17.484375 21.921875 
Q 17.484375 14.15625 20.5 10.265625 
Q 23.53125 6.390625 29.59375 6.390625 
Q 36.859375 6.390625 41.078125 11.03125 
Q 45.3125 15.671875 45.3125 23.6875 
L 45.3125 54.6875 
L 54.296875 54.6875 
L 54.296875 0 
L 45.3125 0 
L 45.3125 8.40625 
Q 42.046875 3.421875 37.71875 1 
Q 33.40625 -1.421875 27.6875 -1.421875 
Q 18.265625 -1.421875 13.375 4.4375 
Q 8.5 10.296875 8.5 21.578125 
z
M 31.109375 56 
z
" id="DejaVuSans-117"/>
      <path d="M 54.890625 33.015625 
L 54.890625 0 
L 45.90625 0 
L 45.90625 32.71875 
Q 45.90625 40.484375 42.875 44.328125 
Q 39.84375 48.1875 33.796875 48.1875 
Q 26.515625 48.1875 22.3125 43.546875 
Q 18.109375 38.921875 18.109375 30.90625 
L 18.109375 0 
L 9.078125 0 
L 9.078125 54.6875 
L 18.109375 54.6875 
L 18.109375 46.1875 
Q 21.34375 51.125 25.703125 53.5625 
Q 30.078125 56 35.796875 56 
Q 45.21875 56 50.046875 50.171875 
Q 54.890625 44.34375 54.890625 33.015625 
z
" id="DejaVuSans-110"/>
      <path d="M 9.078125 75.984375 
L 18.109375 75.984375 
L 18.109375 31.109375 
L 44.921875 54.6875 
L 56.390625 54.6875 
L 27.390625 29.109375 
L 57.625 0 
L 45.90625 0 
L 18.109375 26.703125 
L 18.109375 0 
L 9.078125 0 
z
" id="DejaVuSans-107"/>
      <path d="M 41.109375 46.296875 
Q 39.59375 47.171875 37.8125 47.578125 
Q 36.03125 48 33.890625 48 
Q 26.265625 48 22.1875 43.046875 
Q 18.109375 38.09375 18.109375 28.8125 
L 18.109375 0 
L 9.078125 0 
L 9.078125 54.6875 
L 18.109375 54.6875 
L 18.109375 46.1875 
Q 20.953125 51.171875 25.484375 53.578125 
Q 30.03125 56 36.53125 56 
Q 37.453125 56 38.578125 55.875 
Q 39.703125 55.765625 41.0625 55.515625 
z
" id="DejaVuSans-114"/>
      <path d="M 9.421875 75.984375 
L 18.40625 75.984375 
L 18.40625 0 
L 9.421875 0 
z
" id="DejaVuSans-108"/>
      <path d="M 50.984375 -16.609375 
L 50.984375 -23.578125 
L -0.984375 -23.578125 
L -0.984375 -16.609375 
z
" id="DejaVuSans-95"/>
      <path d="M 37.109375 75.984375 
L 37.109375 68.5 
L 28.515625 68.5 
Q 23.6875 68.5 21.796875 66.546875 
Q 19.921875 64.59375 19.921875 59.515625 
L 19.921875 54.6875 
L 34.71875 54.6875 
L 34.71875 47.703125 
L 19.921875 47.703125 
L 19.921875 0 
L 10.890625 0 
L 10.890625 47.703125 
L 2.296875 47.703125 
L 2.296875 54.6875 
L 10.890625 54.6875 
L 10.890625 58.5 
Q 10.890625 67.625 15.140625 71.796875 
Q 19.390625 75.984375 28.609375 75.984375 
z
" id="DejaVuSans-102"/>
      <path d="M 48.6875 27.296875 
Q 48.6875 37.203125 44.609375 42.84375 
Q 40.53125 48.484375 33.40625 48.484375 
Q 26.265625 48.484375 22.1875 42.84375 
Q 18.109375 37.203125 18.109375 27.296875 
Q 18.109375 17.390625 22.1875 11.75 
Q 26.265625 6.109375 33.40625 6.109375 
Q 40.53125 6.109375 44.609375 11.75 
Q 48.6875 17.390625 48.6875 27.296875 
z
M 18.109375 46.390625 
Q 20.953125 51.265625 25.265625 53.625 
Q 29.59375 56 35.59375 56 
Q 45.5625 56 51.78125 48.09375 
Q 58.015625 40.1875 58.015625 27.296875 
Q 58.015625 14.40625 51.78125 6.484375 
Q 45.5625 -1.421875 35.59375 -1.421875 
Q 29.59375 -1.421875 25.265625 0.953125 
Q 20.953125 3.328125 18.109375 8.203125 
L 18.109375 0 
L 9.078125 0 
L 9.078125 75.984375 
L 18.109375 75.984375 
z
" id="DejaVuSans-98"/>
      <path d="M 45.40625 46.390625 
L 45.40625 75.984375 
L 54.390625 75.984375 
L 54.390625 0 
L 45.40625 0 
L 45.40625 8.203125 
Q 42.578125 3.328125 38.25 0.953125 
Q 33.9375 -1.421875 27.875 -1.421875 
Q 17.96875 -1.421875 11.734375 6.484375 
Q 5.515625 14.40625 5.515625 27.296875 
Q 5.515625 40.1875 11.734375 48.09375 
Q 17.96875 56 27.875 56 
Q 33.9375 56 38.25 53.625 
Q 42.578125 51.265625 45.40625 46.390625 
z
M 14.796875 27.296875 
Q 14.796875 17.390625 18.875 11.75 
Q 22.953125 6.109375 30.078125 6.109375 
Q 37.203125 6.109375 41.296875 11.75 
Q 45.40625 17.390625 45.40625 27.296875 
Q 45.40625 37.203125 41.296875 42.84375 
Q 37.203125 48.484375 30.078125 48.484375 
Q 22.953125 48.484375 18.875 42.84375 
Q 14.796875 37.203125 14.796875 27.296875 
z
" id="DejaVuSans-100"/>
      <path d="M 32.171875 -5.078125 
Q 28.375 -14.84375 24.75 -17.8125 
Q 21.140625 -20.796875 15.09375 -20.796875 
L 7.90625 -20.796875 
L 7.90625 -13.28125 
L 13.1875 -13.28125 
Q 16.890625 -13.28125 18.9375 -11.515625 
Q 21 -9.765625 23.484375 -3.21875 
L 25.09375 0.875 
L 2.984375 54.6875 
L 12.5 54.6875 
L 29.59375 11.921875 
L 46.6875 54.6875 
L 56.203125 54.6875 
z
" id="DejaVuSans-121"/>
      <path d="M 30.609375 48.390625 
Q 23.390625 48.390625 19.1875 42.75 
Q 14.984375 37.109375 14.984375 27.296875 
Q 14.984375 17.484375 19.15625 11.84375 
Q 23.34375 6.203125 30.609375 6.203125 
Q 37.796875 6.203125 41.984375 11.859375 
Q 46.1875 17.53125 46.1875 27.296875 
Q 46.1875 37.015625 41.984375 42.703125 
Q 37.796875 48.390625 30.609375 48.390625 
z
M 30.609375 56 
Q 42.328125 56 49.015625 48.375 
Q 55.71875 40.765625 55.71875 27.296875 
Q 55.71875 13.875 49.015625 6.21875 
Q 42.328125 -1.421875 30.609375 -1.421875 
Q 18.84375 -1.421875 12.171875 6.21875 
Q 5.515625 13.875 5.515625 27.296875 
Q 5.515625 40.765625 12.171875 48.375 
Q 18.84375 56 30.609375 56 
z
" id="DejaVuSans-111"/>
      <path d="M 48.78125 52.59375 
L 48.78125 44.1875 
Q 44.96875 46.296875 41.140625 47.34375 
Q 37.3125 48.390625 33.40625 48.390625 
Q 24.65625 48.390625 19.8125 42.84375 
Q 14.984375 37.3125 14.984375 27.296875 
Q 14.984375 17.28125 19.8125 11.734375 
Q 24.65625 6.203125 33.40625 6.203125 
Q 37.3125 6.203125 41.140625 7.25 
Q 44.96875 8.296875 48.78125 10.40625 
L 48.78125 2.09375 
Q 45.015625 0.34375 40.984375 -0.53125 
Q 36.96875 -1.421875 32.421875 -1.421875 
Q 20.0625 -1.421875 12.78125 6.34375 
Q 5.515625 14.109375 5.515625 27.296875 
Q 5.515625 40.671875 12.859375 48.328125 
Q 20.21875 56 33.015625 56 
Q 37.15625 56 41.109375 55.140625 
Q 45.0625 54.296875 48.78125 52.59375 
z
" id="DejaVuSans-99"/>
      <path id="DejaVuSans-32"/>
      <path d="M 4.890625 31.390625 
L 31.203125 31.390625 
L 31.203125 23.390625 
L 4.890625 23.390625 
z
" id="DejaVuSans-45"/>
     </defs>
     <use xlink:href="#DejaVuSans-117"/>
     <use x="63.378906" xlink:href="#DejaVuSans-110"/>
     <use x="126.757812" xlink:href="#DejaVuSans-105"/>
     <use x="154.541016" xlink:href="#DejaVuSans-107"/>
     <use x="208.826172" xlink:href="#DejaVuSans-101"/>
     <use x="270.349609" xlink:href="#DejaVuSans-114"/>
     <use x="309.712891" xlink:href="#DejaVuSans-110"/>
     <use x="373.091797" xlink:href="#DejaVuSans-101"/>
     <use x="434.615234" xlink:href="#DejaVuSans-108"/>
     <use x="462.398438" xlink:href="#DejaVuSans-95"/>
     <use x="512.398438" xlink:href="#DejaVuSans-102"/>
     <use x="547.603516" xlink:href="#DejaVuSans-98"/>
     <use x="611.080078" xlink:href="#DejaVuSans-117"/>
     <use x="674.458984" xlink:href="#DejaVuSans-100"/>
     <use x="737.935547" xlink:href="#DejaVuSans-100"/>
     <use x="801.412109" xlink:href="#DejaVuSans-121"/>
     <use x="860.591797" xlink:href="#DejaVuSans-97"/>
     <use x="921.871094" xlink:href="#DejaVuSans-108"/>
     <use x="949.654297" xlink:href="#DejaVuSans-108"/>
     <use x="977.4375" xlink:href="#DejaVuSans-111"/>
     <use x="1038.619141" xlink:href="#DejaVuSans-99"/>
     <use x="1093.599609" xlink:href="#DejaVuSans-32"/>
     <use x="1125.386719" xlink:href="#DejaVuSans-45"/>
     <use x="1161.470703" xlink:href="#DejaVuSans-32"/>
     <use x="1193.257812" xlink:href="#DejaVuSans-102"/>
     <use x="1228.462891" xlink:href="#DejaVuSans-114"/>
     <use x="1267.326172" xlink:href="#DejaVuSans-101"/>
     <use x="1328.849609" xlink:href="#DejaVuSans-101"/>
    </g>
   </g>
   <g id="legend_1">
    <g id="patch_7">
     <path d="M 650.68 258.52 
L 654.68 258.52 
Q 656.68 258.52 656.68 256.52 
L 656.68 252.52 
Q 656.68 250.52 654.68 250.52 
L 650.68 250.52 
Q 648.68 250.52 648.68 252.52 
L 648.68 256.52 
Q 648.68 258.52 650.68 258.52 
z
" style="fill:#ffffff;opacity:0.8;stroke:#cccccc;stroke-linejoin:miter;"/>
    </g>
   </g>
  </g>
 </g>
 <defs>
  <clipPath id="p166a79ccbb">
   <rect height="388.08" width="535.68" x="108" y="60.48"/>
  </clipPath>
 </defs>
</svg>
