<?xml version="1.0" encoding="utf-8" standalone="no"?>
<!DOCTYPE svg PUBLIC "-//W3C//DTD SVG 1.1//EN"
  "http://www.w3.org/Graphics/SVG/1.1/DTD/svg11.dtd">
<!-- Created with matplotlib (https://matplotlib.org/) -->
<svg height="504pt" version="1.1" viewBox="0 0 864 504" width="864pt" xmlns="http://www.w3.org/2000/svg" xmlns:xlink="http://www.w3.org/1999/xlink">
 <metadata>
  <rdf:RDF xmlns:cc="http://creativecommons.org/ns#" xmlns:dc="http://purl.org/dc/elements/1.1/" xmlns:rdf="http://www.w3.org/1999/02/22-rdf-syntax-ns#">
   <cc:Work>
    <dc:type rdf:resource="http://purl.org/dc/dcmitype/StillImage"/>
    <dc:date>2022-05-29T17:24:49.791252</dc:date>
    <dc:format>image/svg+xml</dc:format>
    <dc:creator>
     <cc:Agent>
      <dc:title>Matplotlib v3.3.4, https://matplotlib.org/</dc:title>
     </cc:Agent>
    </dc:creator>
   </cc:Work>
  </rdf:RDF>
 </metadata>
 <defs>
  <style type="text/css">*{stroke-linecap:butt;stroke-linejoin:round;}</style>
 </defs>
 <g id="figure_1">
  <g id="patch_1">
   <path d="M 0 504 
L 864 504 
L 864 0 
L 0 0 
z
" style="fill:#ffffff;"/>
  </g>
  <g id="axes_1">
   <g id="patch_2">
    <path d="M 108 448.56 
L 643.68 448.56 
L 643.68 60.48 
L 108 60.48 
z
" style="fill:#ffffff;"/>
   </g>
   <g id="matplotlib.axis_1">
    <g id="xtick_1">
     <g id="line2d_1">
      <defs>
       <path d="M 0 0 
L 0 3.5 
" id="m27ab194562" style="stroke:#000000;stroke-width:0.8;"/>
      </defs>
      <g>
       <use style="stroke:#000000;stroke-width:0.8;" x="132.349091" xlink:href="#m27ab194562" y="448.56"/>
      </g>
     </g>
     <g id="text_1">
      <!-- 11:51:07 -->
      <g transform="translate(135.108466 500.4725)rotate(-90)scale(0.1 -0.1)">
       <defs>
        <path d="M 12.40625 8.296875 
L 28.515625 8.296875 
L 28.515625 63.921875 
L 10.984375 60.40625 
L 10.984375 69.390625 
L 28.421875 72.90625 
L 38.28125 72.90625 
L 38.28125 8.296875 
L 54.390625 8.296875 
L 54.390625 0 
L 12.40625 0 
z
" id="DejaVuSans-49"/>
        <path d="M 11.71875 12.40625 
L 22.015625 12.40625 
L 22.015625 0 
L 11.71875 0 
z
M 11.71875 51.703125 
L 22.015625 51.703125 
L 22.015625 39.3125 
L 11.71875 39.3125 
z
" id="DejaVuSans-58"/>
        <path d="M 10.796875 72.90625 
L 49.515625 72.90625 
L 49.515625 64.59375 
L 19.828125 64.59375 
L 19.828125 46.734375 
Q 21.96875 47.46875 24.109375 47.828125 
Q 26.265625 48.1875 28.421875 48.1875 
Q 40.625 48.1875 47.75 41.5 
Q 54.890625 34.8125 54.890625 23.390625 
Q 54.890625 11.625 47.5625 5.09375 
Q 40.234375 -1.421875 26.90625 -1.421875 
Q 22.3125 -1.421875 17.546875 -0.640625 
Q 12.796875 0.140625 7.71875 1.703125 
L 7.71875 11.625 
Q 12.109375 9.234375 16.796875 8.0625 
Q 21.484375 6.890625 26.703125 6.890625 
Q 35.15625 6.890625 40.078125 11.328125 
Q 45.015625 15.765625 45.015625 23.390625 
Q 45.015625 31 40.078125 35.4375 
Q 35.15625 39.890625 26.703125 39.890625 
Q 22.75 39.890625 18.8125 39.015625 
Q 14.890625 38.140625 10.796875 36.28125 
z
" id="DejaVuSans-53"/>
        <path d="M 31.78125 66.40625 
Q 24.171875 66.40625 20.328125 58.90625 
Q 16.5 51.421875 16.5 36.375 
Q 16.5 21.390625 20.328125 13.890625 
Q 24.171875 6.390625 31.78125 6.390625 
Q 39.453125 6.390625 43.28125 13.890625 
Q 47.125 21.390625 47.125 36.375 
Q 47.125 51.421875 43.28125 58.90625 
Q 39.453125 66.40625 31.78125 66.40625 
z
M 31.78125 74.21875 
Q 44.046875 74.21875 50.515625 64.515625 
Q 56.984375 54.828125 56.984375 36.375 
Q 56.984375 17.96875 50.515625 8.265625 
Q 44.046875 -1.421875 31.78125 -1.421875 
Q 19.53125 -1.421875 13.0625 8.265625 
Q 6.59375 17.96875 6.59375 36.375 
Q 6.59375 54.828125 13.0625 64.515625 
Q 19.53125 74.21875 31.78125 74.21875 
z
" id="DejaVuSans-48"/>
        <path d="M 8.203125 72.90625 
L 55.078125 72.90625 
L 55.078125 68.703125 
L 28.609375 0 
L 18.3125 0 
L 43.21875 64.59375 
L 8.203125 64.59375 
z
" id="DejaVuSans-55"/>
       </defs>
       <use xlink:href="#DejaVuSans-49"/>
       <use x="63.623047" xlink:href="#DejaVuSans-49"/>
       <use x="127.246094" xlink:href="#DejaVuSans-58"/>
       <use x="160.9375" xlink:href="#DejaVuSans-53"/>
       <use x="224.560547" xlink:href="#DejaVuSans-49"/>
       <use x="288.183594" xlink:href="#DejaVuSans-58"/>
       <use x="321.875" xlink:href="#DejaVuSans-48"/>
       <use x="385.498047" xlink:href="#DejaVuSans-55"/>
      </g>
     </g>
    </g>
    <g id="xtick_2">
     <g id="line2d_2">
      <g>
       <use style="stroke:#000000;stroke-width:0.8;" x="156.588005" xlink:href="#m27ab194562" y="448.56"/>
      </g>
     </g>
     <g id="text_2">
      <!-- 11:51:57 -->
      <g transform="translate(159.34738 500.4725)rotate(-90)scale(0.1 -0.1)">
       <use xlink:href="#DejaVuSans-49"/>
       <use x="63.623047" xlink:href="#DejaVuSans-49"/>
       <use x="127.246094" xlink:href="#DejaVuSans-58"/>
       <use x="160.9375" xlink:href="#DejaVuSans-53"/>
       <use x="224.560547" xlink:href="#DejaVuSans-49"/>
       <use x="288.183594" xlink:href="#DejaVuSans-58"/>
       <use x="321.875" xlink:href="#DejaVuSans-53"/>
       <use x="385.498047" xlink:href="#DejaVuSans-55"/>
      </g>
     </g>
    </g>
    <g id="xtick_3">
     <g id="line2d_3">
      <g>
       <use style="stroke:#000000;stroke-width:0.8;" x="180.826919" xlink:href="#m27ab194562" y="448.56"/>
      </g>
     </g>
     <g id="text_3">
      <!-- 11:52:46 -->
      <g transform="translate(183.586294 500.4725)rotate(-90)scale(0.1 -0.1)">
       <defs>
        <path d="M 19.1875 8.296875 
L 53.609375 8.296875 
L 53.609375 0 
L 7.328125 0 
L 7.328125 8.296875 
Q 12.9375 14.109375 22.625 23.890625 
Q 32.328125 33.6875 34.8125 36.53125 
Q 39.546875 41.84375 41.421875 45.53125 
Q 43.3125 49.21875 43.3125 52.78125 
Q 43.3125 58.59375 39.234375 62.25 
Q 35.15625 65.921875 28.609375 65.921875 
Q 23.96875 65.921875 18.8125 64.3125 
Q 13.671875 62.703125 7.8125 59.421875 
L 7.8125 69.390625 
Q 13.765625 71.78125 18.9375 73 
Q 24.125 74.21875 28.421875 74.21875 
Q 39.75 74.21875 46.484375 68.546875 
Q 53.21875 62.890625 53.21875 53.421875 
Q 53.21875 48.921875 51.53125 44.890625 
Q 49.859375 40.875 45.40625 35.40625 
Q 44.1875 33.984375 37.640625 27.21875 
Q 31.109375 20.453125 19.1875 8.296875 
z
" id="DejaVuSans-50"/>
        <path d="M 37.796875 64.3125 
L 12.890625 25.390625 
L 37.796875 25.390625 
z
M 35.203125 72.90625 
L 47.609375 72.90625 
L 47.609375 25.390625 
L 58.015625 25.390625 
L 58.015625 17.1875 
L 47.609375 17.1875 
L 47.609375 0 
L 37.796875 0 
L 37.796875 17.1875 
L 4.890625 17.1875 
L 4.890625 26.703125 
z
" id="DejaVuSans-52"/>
        <path d="M 33.015625 40.375 
Q 26.375 40.375 22.484375 35.828125 
Q 18.609375 31.296875 18.609375 23.390625 
Q 18.609375 15.53125 22.484375 10.953125 
Q 26.375 6.390625 33.015625 6.390625 
Q 39.65625 6.390625 43.53125 10.953125 
Q 47.40625 15.53125 47.40625 23.390625 
Q 47.40625 31.296875 43.53125 35.828125 
Q 39.65625 40.375 33.015625 40.375 
z
M 52.59375 71.296875 
L 52.59375 62.3125 
Q 48.875 64.0625 45.09375 64.984375 
Q 41.3125 65.921875 37.59375 65.921875 
Q 27.828125 65.921875 22.671875 59.328125 
Q 17.53125 52.734375 16.796875 39.40625 
Q 19.671875 43.65625 24.015625 45.921875 
Q 28.375 48.1875 33.59375 48.1875 
Q 44.578125 48.1875 50.953125 41.515625 
Q 57.328125 34.859375 57.328125 23.390625 
Q 57.328125 12.15625 50.6875 5.359375 
Q 44.046875 -1.421875 33.015625 -1.421875 
Q 20.359375 -1.421875 13.671875 8.265625 
Q 6.984375 17.96875 6.984375 36.375 
Q 6.984375 53.65625 15.1875 63.9375 
Q 23.390625 74.21875 37.203125 74.21875 
Q 40.921875 74.21875 44.703125 73.484375 
Q 48.484375 72.75 52.59375 71.296875 
z
" id="DejaVuSans-54"/>
       </defs>
       <use xlink:href="#DejaVuSans-49"/>
       <use x="63.623047" xlink:href="#DejaVuSans-49"/>
       <use x="127.246094" xlink:href="#DejaVuSans-58"/>
       <use x="160.9375" xlink:href="#DejaVuSans-53"/>
       <use x="224.560547" xlink:href="#DejaVuSans-50"/>
       <use x="288.183594" xlink:href="#DejaVuSans-58"/>
       <use x="321.875" xlink:href="#DejaVuSans-52"/>
       <use x="385.498047" xlink:href="#DejaVuSans-54"/>
      </g>
     </g>
    </g>
    <g id="xtick_4">
     <g id="line2d_4">
      <g>
       <use style="stroke:#000000;stroke-width:0.8;" x="205.065833" xlink:href="#m27ab194562" y="448.56"/>
      </g>
     </g>
     <g id="text_4">
      <!-- 11:53:36 -->
      <g transform="translate(207.825208 500.4725)rotate(-90)scale(0.1 -0.1)">
       <defs>
        <path d="M 40.578125 39.3125 
Q 47.65625 37.796875 51.625 33 
Q 55.609375 28.21875 55.609375 21.1875 
Q 55.609375 10.40625 48.1875 4.484375 
Q 40.765625 -1.421875 27.09375 -1.421875 
Q 22.515625 -1.421875 17.65625 -0.515625 
Q 12.796875 0.390625 7.625 2.203125 
L 7.625 11.71875 
Q 11.71875 9.328125 16.59375 8.109375 
Q 21.484375 6.890625 26.8125 6.890625 
Q 36.078125 6.890625 40.9375 10.546875 
Q 45.796875 14.203125 45.796875 21.1875 
Q 45.796875 27.640625 41.28125 31.265625 
Q 36.765625 34.90625 28.71875 34.90625 
L 20.21875 34.90625 
L 20.21875 43.015625 
L 29.109375 43.015625 
Q 36.375 43.015625 40.234375 45.921875 
Q 44.09375 48.828125 44.09375 54.296875 
Q 44.09375 59.90625 40.109375 62.90625 
Q 36.140625 65.921875 28.71875 65.921875 
Q 24.65625 65.921875 20.015625 65.03125 
Q 15.375 64.15625 9.8125 62.3125 
L 9.8125 71.09375 
Q 15.4375 72.65625 20.34375 73.4375 
Q 25.25 74.21875 29.59375 74.21875 
Q 40.828125 74.21875 47.359375 69.109375 
Q 53.90625 64.015625 53.90625 55.328125 
Q 53.90625 49.265625 50.4375 45.09375 
Q 46.96875 40.921875 40.578125 39.3125 
z
" id="DejaVuSans-51"/>
       </defs>
       <use xlink:href="#DejaVuSans-49"/>
       <use x="63.623047" xlink:href="#DejaVuSans-49"/>
       <use x="127.246094" xlink:href="#DejaVuSans-58"/>
       <use x="160.9375" xlink:href="#DejaVuSans-53"/>
       <use x="224.560547" xlink:href="#DejaVuSans-51"/>
       <use x="288.183594" xlink:href="#DejaVuSans-58"/>
       <use x="321.875" xlink:href="#DejaVuSans-51"/>
       <use x="385.498047" xlink:href="#DejaVuSans-54"/>
      </g>
     </g>
    </g>
    <g id="xtick_5">
     <g id="line2d_5">
      <g>
       <use style="stroke:#000000;stroke-width:0.8;" x="229.304747" xlink:href="#m27ab194562" y="448.56"/>
      </g>
     </g>
     <g id="text_5">
      <!-- 11:54:25 -->
      <g transform="translate(232.064122 500.4725)rotate(-90)scale(0.1 -0.1)">
       <use xlink:href="#DejaVuSans-49"/>
       <use x="63.623047" xlink:href="#DejaVuSans-49"/>
       <use x="127.246094" xlink:href="#DejaVuSans-58"/>
       <use x="160.9375" xlink:href="#DejaVuSans-53"/>
       <use x="224.560547" xlink:href="#DejaVuSans-52"/>
       <use x="288.183594" xlink:href="#DejaVuSans-58"/>
       <use x="321.875" xlink:href="#DejaVuSans-50"/>
       <use x="385.498047" xlink:href="#DejaVuSans-53"/>
      </g>
     </g>
    </g>
    <g id="xtick_6">
     <g id="line2d_6">
      <g>
       <use style="stroke:#000000;stroke-width:0.8;" x="253.543661" xlink:href="#m27ab194562" y="448.56"/>
      </g>
     </g>
     <g id="text_6">
      <!-- 11:55:15 -->
      <g transform="translate(256.303036 500.4725)rotate(-90)scale(0.1 -0.1)">
       <use xlink:href="#DejaVuSans-49"/>
       <use x="63.623047" xlink:href="#DejaVuSans-49"/>
       <use x="127.246094" xlink:href="#DejaVuSans-58"/>
       <use x="160.9375" xlink:href="#DejaVuSans-53"/>
       <use x="224.560547" xlink:href="#DejaVuSans-53"/>
       <use x="288.183594" xlink:href="#DejaVuSans-58"/>
       <use x="321.875" xlink:href="#DejaVuSans-49"/>
       <use x="385.498047" xlink:href="#DejaVuSans-53"/>
      </g>
     </g>
    </g>
    <g id="xtick_7">
     <g id="line2d_7">
      <g>
       <use style="stroke:#000000;stroke-width:0.8;" x="277.782575" xlink:href="#m27ab194562" y="448.56"/>
      </g>
     </g>
     <g id="text_7">
      <!-- 11:56:05 -->
      <g transform="translate(280.54195 500.4725)rotate(-90)scale(0.1 -0.1)">
       <use xlink:href="#DejaVuSans-49"/>
       <use x="63.623047" xlink:href="#DejaVuSans-49"/>
       <use x="127.246094" xlink:href="#DejaVuSans-58"/>
       <use x="160.9375" xlink:href="#DejaVuSans-53"/>
       <use x="224.560547" xlink:href="#DejaVuSans-54"/>
       <use x="288.183594" xlink:href="#DejaVuSans-58"/>
       <use x="321.875" xlink:href="#DejaVuSans-48"/>
       <use x="385.498047" xlink:href="#DejaVuSans-53"/>
      </g>
     </g>
    </g>
    <g id="xtick_8">
     <g id="line2d_8">
      <g>
       <use style="stroke:#000000;stroke-width:0.8;" x="302.021489" xlink:href="#m27ab194562" y="448.56"/>
      </g>
     </g>
     <g id="text_8">
      <!-- 11:56:54 -->
      <g transform="translate(304.780864 500.4725)rotate(-90)scale(0.1 -0.1)">
       <use xlink:href="#DejaVuSans-49"/>
       <use x="63.623047" xlink:href="#DejaVuSans-49"/>
       <use x="127.246094" xlink:href="#DejaVuSans-58"/>
       <use x="160.9375" xlink:href="#DejaVuSans-53"/>
       <use x="224.560547" xlink:href="#DejaVuSans-54"/>
       <use x="288.183594" xlink:href="#DejaVuSans-58"/>
       <use x="321.875" xlink:href="#DejaVuSans-53"/>
       <use x="385.498047" xlink:href="#DejaVuSans-52"/>
      </g>
     </g>
    </g>
    <g id="xtick_9">
     <g id="line2d_9">
      <g>
       <use style="stroke:#000000;stroke-width:0.8;" x="326.260403" xlink:href="#m27ab194562" y="448.56"/>
      </g>
     </g>
     <g id="text_9">
      <!-- 11:57:44 -->
      <g transform="translate(329.019778 500.4725)rotate(-90)scale(0.1 -0.1)">
       <use xlink:href="#DejaVuSans-49"/>
       <use x="63.623047" xlink:href="#DejaVuSans-49"/>
       <use x="127.246094" xlink:href="#DejaVuSans-58"/>
       <use x="160.9375" xlink:href="#DejaVuSans-53"/>
       <use x="224.560547" xlink:href="#DejaVuSans-55"/>
       <use x="288.183594" xlink:href="#DejaVuSans-58"/>
       <use x="321.875" xlink:href="#DejaVuSans-52"/>
       <use x="385.498047" xlink:href="#DejaVuSans-52"/>
      </g>
     </g>
    </g>
    <g id="xtick_10">
     <g id="line2d_10">
      <g>
       <use style="stroke:#000000;stroke-width:0.8;" x="350.499317" xlink:href="#m27ab194562" y="448.56"/>
      </g>
     </g>
     <g id="text_10">
      <!-- 11:58:34 -->
      <g transform="translate(353.258692 500.4725)rotate(-90)scale(0.1 -0.1)">
       <defs>
        <path d="M 31.78125 34.625 
Q 24.75 34.625 20.71875 30.859375 
Q 16.703125 27.09375 16.703125 20.515625 
Q 16.703125 13.921875 20.71875 10.15625 
Q 24.75 6.390625 31.78125 6.390625 
Q 38.8125 6.390625 42.859375 10.171875 
Q 46.921875 13.96875 46.921875 20.515625 
Q 46.921875 27.09375 42.890625 30.859375 
Q 38.875 34.625 31.78125 34.625 
z
M 21.921875 38.8125 
Q 15.578125 40.375 12.03125 44.71875 
Q 8.5 49.078125 8.5 55.328125 
Q 8.5 64.0625 14.71875 69.140625 
Q 20.953125 74.21875 31.78125 74.21875 
Q 42.671875 74.21875 48.875 69.140625 
Q 55.078125 64.0625 55.078125 55.328125 
Q 55.078125 49.078125 51.53125 44.71875 
Q 48 40.375 41.703125 38.8125 
Q 48.828125 37.15625 52.796875 32.3125 
Q 56.78125 27.484375 56.78125 20.515625 
Q 56.78125 9.90625 50.3125 4.234375 
Q 43.84375 -1.421875 31.78125 -1.421875 
Q 19.734375 -1.421875 13.25 4.234375 
Q 6.78125 9.90625 6.78125 20.515625 
Q 6.78125 27.484375 10.78125 32.3125 
Q 14.796875 37.15625 21.921875 38.8125 
z
M 18.3125 54.390625 
Q 18.3125 48.734375 21.84375 45.5625 
Q 25.390625 42.390625 31.78125 42.390625 
Q 38.140625 42.390625 41.71875 45.5625 
Q 45.3125 48.734375 45.3125 54.390625 
Q 45.3125 60.0625 41.71875 63.234375 
Q 38.140625 66.40625 31.78125 66.40625 
Q 25.390625 66.40625 21.84375 63.234375 
Q 18.3125 60.0625 18.3125 54.390625 
z
" id="DejaVuSans-56"/>
       </defs>
       <use xlink:href="#DejaVuSans-49"/>
       <use x="63.623047" xlink:href="#DejaVuSans-49"/>
       <use x="127.246094" xlink:href="#DejaVuSans-58"/>
       <use x="160.9375" xlink:href="#DejaVuSans-53"/>
       <use x="224.560547" xlink:href="#DejaVuSans-56"/>
       <use x="288.183594" xlink:href="#DejaVuSans-58"/>
       <use x="321.875" xlink:href="#DejaVuSans-51"/>
       <use x="385.498047" xlink:href="#DejaVuSans-52"/>
      </g>
     </g>
    </g>
    <g id="xtick_11">
     <g id="line2d_11">
      <g>
       <use style="stroke:#000000;stroke-width:0.8;" x="374.738231" xlink:href="#m27ab194562" y="448.56"/>
      </g>
     </g>
     <g id="text_11">
      <!-- 11:59:23 -->
      <g transform="translate(377.497606 500.4725)rotate(-90)scale(0.1 -0.1)">
       <defs>
        <path d="M 10.984375 1.515625 
L 10.984375 10.5 
Q 14.703125 8.734375 18.5 7.8125 
Q 22.3125 6.890625 25.984375 6.890625 
Q 35.75 6.890625 40.890625 13.453125 
Q 46.046875 20.015625 46.78125 33.40625 
Q 43.953125 29.203125 39.59375 26.953125 
Q 35.25 24.703125 29.984375 24.703125 
Q 19.046875 24.703125 12.671875 31.3125 
Q 6.296875 37.9375 6.296875 49.421875 
Q 6.296875 60.640625 12.9375 67.421875 
Q 19.578125 74.21875 30.609375 74.21875 
Q 43.265625 74.21875 49.921875 64.515625 
Q 56.59375 54.828125 56.59375 36.375 
Q 56.59375 19.140625 48.40625 8.859375 
Q 40.234375 -1.421875 26.421875 -1.421875 
Q 22.703125 -1.421875 18.890625 -0.6875 
Q 15.09375 0.046875 10.984375 1.515625 
z
M 30.609375 32.421875 
Q 37.25 32.421875 41.125 36.953125 
Q 45.015625 41.5 45.015625 49.421875 
Q 45.015625 57.28125 41.125 61.84375 
Q 37.25 66.40625 30.609375 66.40625 
Q 23.96875 66.40625 20.09375 61.84375 
Q 16.21875 57.28125 16.21875 49.421875 
Q 16.21875 41.5 20.09375 36.953125 
Q 23.96875 32.421875 30.609375 32.421875 
z
" id="DejaVuSans-57"/>
       </defs>
       <use xlink:href="#DejaVuSans-49"/>
       <use x="63.623047" xlink:href="#DejaVuSans-49"/>
       <use x="127.246094" xlink:href="#DejaVuSans-58"/>
       <use x="160.9375" xlink:href="#DejaVuSans-53"/>
       <use x="224.560547" xlink:href="#DejaVuSans-57"/>
       <use x="288.183594" xlink:href="#DejaVuSans-58"/>
       <use x="321.875" xlink:href="#DejaVuSans-50"/>
       <use x="385.498047" xlink:href="#DejaVuSans-51"/>
      </g>
     </g>
    </g>
    <g id="xtick_12">
     <g id="line2d_12">
      <g>
       <use style="stroke:#000000;stroke-width:0.8;" x="398.977145" xlink:href="#m27ab194562" y="448.56"/>
      </g>
     </g>
     <g id="text_12">
      <!-- 12:00:13 -->
      <g transform="translate(401.73652 500.4725)rotate(-90)scale(0.1 -0.1)">
       <use xlink:href="#DejaVuSans-49"/>
       <use x="63.623047" xlink:href="#DejaVuSans-50"/>
       <use x="127.246094" xlink:href="#DejaVuSans-58"/>
       <use x="160.9375" xlink:href="#DejaVuSans-48"/>
       <use x="224.560547" xlink:href="#DejaVuSans-48"/>
       <use x="288.183594" xlink:href="#DejaVuSans-58"/>
       <use x="321.875" xlink:href="#DejaVuSans-49"/>
       <use x="385.498047" xlink:href="#DejaVuSans-51"/>
      </g>
     </g>
    </g>
    <g id="xtick_13">
     <g id="line2d_13">
      <g>
       <use style="stroke:#000000;stroke-width:0.8;" x="423.216059" xlink:href="#m27ab194562" y="448.56"/>
      </g>
     </g>
     <g id="text_13">
      <!-- 12:01:02 -->
      <g transform="translate(425.975434 500.4725)rotate(-90)scale(0.1 -0.1)">
       <use xlink:href="#DejaVuSans-49"/>
       <use x="63.623047" xlink:href="#DejaVuSans-50"/>
       <use x="127.246094" xlink:href="#DejaVuSans-58"/>
       <use x="160.9375" xlink:href="#DejaVuSans-48"/>
       <use x="224.560547" xlink:href="#DejaVuSans-49"/>
       <use x="288.183594" xlink:href="#DejaVuSans-58"/>
       <use x="321.875" xlink:href="#DejaVuSans-48"/>
       <use x="385.498047" xlink:href="#DejaVuSans-50"/>
      </g>
     </g>
    </g>
    <g id="xtick_14">
     <g id="line2d_14">
      <g>
       <use style="stroke:#000000;stroke-width:0.8;" x="447.454973" xlink:href="#m27ab194562" y="448.56"/>
      </g>
     </g>
     <g id="text_14">
      <!-- 12:01:52 -->
      <g transform="translate(450.214348 500.4725)rotate(-90)scale(0.1 -0.1)">
       <use xlink:href="#DejaVuSans-49"/>
       <use x="63.623047" xlink:href="#DejaVuSans-50"/>
       <use x="127.246094" xlink:href="#DejaVuSans-58"/>
       <use x="160.9375" xlink:href="#DejaVuSans-48"/>
       <use x="224.560547" xlink:href="#DejaVuSans-49"/>
       <use x="288.183594" xlink:href="#DejaVuSans-58"/>
       <use x="321.875" xlink:href="#DejaVuSans-53"/>
       <use x="385.498047" xlink:href="#DejaVuSans-50"/>
      </g>
     </g>
    </g>
    <g id="xtick_15">
     <g id="line2d_15">
      <g>
       <use style="stroke:#000000;stroke-width:0.8;" x="471.693887" xlink:href="#m27ab194562" y="448.56"/>
      </g>
     </g>
     <g id="text_15">
      <!-- 12:02:41 -->
      <g transform="translate(474.453262 500.4725)rotate(-90)scale(0.1 -0.1)">
       <use xlink:href="#DejaVuSans-49"/>
       <use x="63.623047" xlink:href="#DejaVuSans-50"/>
       <use x="127.246094" xlink:href="#DejaVuSans-58"/>
       <use x="160.9375" xlink:href="#DejaVuSans-48"/>
       <use x="224.560547" xlink:href="#DejaVuSans-50"/>
       <use x="288.183594" xlink:href="#DejaVuSans-58"/>
       <use x="321.875" xlink:href="#DejaVuSans-52"/>
       <use x="385.498047" xlink:href="#DejaVuSans-49"/>
      </g>
     </g>
    </g>
    <g id="xtick_16">
     <g id="line2d_16">
      <g>
       <use style="stroke:#000000;stroke-width:0.8;" x="495.932801" xlink:href="#m27ab194562" y="448.56"/>
      </g>
     </g>
     <g id="text_16">
      <!-- 12:03:30 -->
      <g transform="translate(498.692176 500.4725)rotate(-90)scale(0.1 -0.1)">
       <use xlink:href="#DejaVuSans-49"/>
       <use x="63.623047" xlink:href="#DejaVuSans-50"/>
       <use x="127.246094" xlink:href="#DejaVuSans-58"/>
       <use x="160.9375" xlink:href="#DejaVuSans-48"/>
       <use x="224.560547" xlink:href="#DejaVuSans-51"/>
       <use x="288.183594" xlink:href="#DejaVuSans-58"/>
       <use x="321.875" xlink:href="#DejaVuSans-51"/>
       <use x="385.498047" xlink:href="#DejaVuSans-48"/>
      </g>
     </g>
    </g>
    <g id="xtick_17">
     <g id="line2d_17">
      <g>
       <use style="stroke:#000000;stroke-width:0.8;" x="520.171715" xlink:href="#m27ab194562" y="448.56"/>
      </g>
     </g>
     <g id="text_17">
      <!-- 12:04:20 -->
      <g transform="translate(522.93109 500.4725)rotate(-90)scale(0.1 -0.1)">
       <use xlink:href="#DejaVuSans-49"/>
       <use x="63.623047" xlink:href="#DejaVuSans-50"/>
       <use x="127.246094" xlink:href="#DejaVuSans-58"/>
       <use x="160.9375" xlink:href="#DejaVuSans-48"/>
       <use x="224.560547" xlink:href="#DejaVuSans-52"/>
       <use x="288.183594" xlink:href="#DejaVuSans-58"/>
       <use x="321.875" xlink:href="#DejaVuSans-50"/>
       <use x="385.498047" xlink:href="#DejaVuSans-48"/>
      </g>
     </g>
    </g>
    <g id="xtick_18">
     <g id="line2d_18">
      <g>
       <use style="stroke:#000000;stroke-width:0.8;" x="544.410629" xlink:href="#m27ab194562" y="448.56"/>
      </g>
     </g>
     <g id="text_18">
      <!-- 12:05:09 -->
      <g transform="translate(547.170004 500.4725)rotate(-90)scale(0.1 -0.1)">
       <use xlink:href="#DejaVuSans-49"/>
       <use x="63.623047" xlink:href="#DejaVuSans-50"/>
       <use x="127.246094" xlink:href="#DejaVuSans-58"/>
       <use x="160.9375" xlink:href="#DejaVuSans-48"/>
       <use x="224.560547" xlink:href="#DejaVuSans-53"/>
       <use x="288.183594" xlink:href="#DejaVuSans-58"/>
       <use x="321.875" xlink:href="#DejaVuSans-48"/>
       <use x="385.498047" xlink:href="#DejaVuSans-57"/>
      </g>
     </g>
    </g>
    <g id="xtick_19">
     <g id="line2d_19">
      <g>
       <use style="stroke:#000000;stroke-width:0.8;" x="568.649543" xlink:href="#m27ab194562" y="448.56"/>
      </g>
     </g>
     <g id="text_19">
      <!-- 12:05:59 -->
      <g transform="translate(571.408918 500.4725)rotate(-90)scale(0.1 -0.1)">
       <use xlink:href="#DejaVuSans-49"/>
       <use x="63.623047" xlink:href="#DejaVuSans-50"/>
       <use x="127.246094" xlink:href="#DejaVuSans-58"/>
       <use x="160.9375" xlink:href="#DejaVuSans-48"/>
       <use x="224.560547" xlink:href="#DejaVuSans-53"/>
       <use x="288.183594" xlink:href="#DejaVuSans-58"/>
       <use x="321.875" xlink:href="#DejaVuSans-53"/>
       <use x="385.498047" xlink:href="#DejaVuSans-57"/>
      </g>
     </g>
    </g>
    <g id="xtick_20">
     <g id="line2d_20">
      <g>
       <use style="stroke:#000000;stroke-width:0.8;" x="592.888457" xlink:href="#m27ab194562" y="448.56"/>
      </g>
     </g>
     <g id="text_20">
      <!-- 12:06:49 -->
      <g transform="translate(595.647832 500.4725)rotate(-90)scale(0.1 -0.1)">
       <use xlink:href="#DejaVuSans-49"/>
       <use x="63.623047" xlink:href="#DejaVuSans-50"/>
       <use x="127.246094" xlink:href="#DejaVuSans-58"/>
       <use x="160.9375" xlink:href="#DejaVuSans-48"/>
       <use x="224.560547" xlink:href="#DejaVuSans-54"/>
       <use x="288.183594" xlink:href="#DejaVuSans-58"/>
       <use x="321.875" xlink:href="#DejaVuSans-52"/>
       <use x="385.498047" xlink:href="#DejaVuSans-57"/>
      </g>
     </g>
    </g>
    <g id="xtick_21">
     <g id="line2d_21">
      <g>
       <use style="stroke:#000000;stroke-width:0.8;" x="617.127371" xlink:href="#m27ab194562" y="448.56"/>
      </g>
     </g>
     <g id="text_21">
      <!-- 12:07:38 -->
      <g transform="translate(619.886746 500.4725)rotate(-90)scale(0.1 -0.1)">
       <use xlink:href="#DejaVuSans-49"/>
       <use x="63.623047" xlink:href="#DejaVuSans-50"/>
       <use x="127.246094" xlink:href="#DejaVuSans-58"/>
       <use x="160.9375" xlink:href="#DejaVuSans-48"/>
       <use x="224.560547" xlink:href="#DejaVuSans-55"/>
       <use x="288.183594" xlink:href="#DejaVuSans-58"/>
       <use x="321.875" xlink:href="#DejaVuSans-51"/>
       <use x="385.498047" xlink:href="#DejaVuSans-56"/>
      </g>
     </g>
    </g>
    <g id="text_22">
     <!-- timestamp -->
     <g transform="translate(354.264375 510.55125)scale(0.08 -0.08)">
      <defs>
       <path d="M 18.3125 70.21875 
L 18.3125 54.6875 
L 36.8125 54.6875 
L 36.8125 47.703125 
L 18.3125 47.703125 
L 18.3125 18.015625 
Q 18.3125 11.328125 20.140625 9.421875 
Q 21.96875 7.515625 27.59375 7.515625 
L 36.8125 7.515625 
L 36.8125 0 
L 27.59375 0 
Q 17.1875 0 13.234375 3.875 
Q 9.28125 7.765625 9.28125 18.015625 
L 9.28125 47.703125 
L 2.6875 47.703125 
L 2.6875 54.6875 
L 9.28125 54.6875 
L 9.28125 70.21875 
z
" id="DejaVuSans-116"/>
       <path d="M 9.421875 54.6875 
L 18.40625 54.6875 
L 18.40625 0 
L 9.421875 0 
z
M 9.421875 75.984375 
L 18.40625 75.984375 
L 18.40625 64.59375 
L 9.421875 64.59375 
z
" id="DejaVuSans-105"/>
       <path d="M 52 44.1875 
Q 55.375 50.25 60.0625 53.125 
Q 64.75 56 71.09375 56 
Q 79.640625 56 84.28125 50.015625 
Q 88.921875 44.046875 88.921875 33.015625 
L 88.921875 0 
L 79.890625 0 
L 79.890625 32.71875 
Q 79.890625 40.578125 77.09375 44.375 
Q 74.3125 48.1875 68.609375 48.1875 
Q 61.625 48.1875 57.5625 43.546875 
Q 53.515625 38.921875 53.515625 30.90625 
L 53.515625 0 
L 44.484375 0 
L 44.484375 32.71875 
Q 44.484375 40.625 41.703125 44.40625 
Q 38.921875 48.1875 33.109375 48.1875 
Q 26.21875 48.1875 22.15625 43.53125 
Q 18.109375 38.875 18.109375 30.90625 
L 18.109375 0 
L 9.078125 0 
L 9.078125 54.6875 
L 18.109375 54.6875 
L 18.109375 46.1875 
Q 21.1875 51.21875 25.484375 53.609375 
Q 29.78125 56 35.6875 56 
Q 41.65625 56 45.828125 52.96875 
Q 50 49.953125 52 44.1875 
z
" id="DejaVuSans-109"/>
       <path d="M 56.203125 29.59375 
L 56.203125 25.203125 
L 14.890625 25.203125 
Q 15.484375 15.921875 20.484375 11.0625 
Q 25.484375 6.203125 34.421875 6.203125 
Q 39.59375 6.203125 44.453125 7.46875 
Q 49.3125 8.734375 54.109375 11.28125 
L 54.109375 2.78125 
Q 49.265625 0.734375 44.1875 -0.34375 
Q 39.109375 -1.421875 33.890625 -1.421875 
Q 20.796875 -1.421875 13.15625 6.1875 
Q 5.515625 13.8125 5.515625 26.8125 
Q 5.515625 40.234375 12.765625 48.109375 
Q 20.015625 56 32.328125 56 
Q 43.359375 56 49.78125 48.890625 
Q 56.203125 41.796875 56.203125 29.59375 
z
M 47.21875 32.234375 
Q 47.125 39.59375 43.09375 43.984375 
Q 39.0625 48.390625 32.421875 48.390625 
Q 24.90625 48.390625 20.390625 44.140625 
Q 15.875 39.890625 15.1875 32.171875 
z
" id="DejaVuSans-101"/>
       <path d="M 44.28125 53.078125 
L 44.28125 44.578125 
Q 40.484375 46.53125 36.375 47.5 
Q 32.28125 48.484375 27.875 48.484375 
Q 21.1875 48.484375 17.84375 46.4375 
Q 14.5 44.390625 14.5 40.28125 
Q 14.5 37.15625 16.890625 35.375 
Q 19.28125 33.59375 26.515625 31.984375 
L 29.59375 31.296875 
Q 39.15625 29.25 43.1875 25.515625 
Q 47.21875 21.78125 47.21875 15.09375 
Q 47.21875 7.46875 41.1875 3.015625 
Q 35.15625 -1.421875 24.609375 -1.421875 
Q 20.21875 -1.421875 15.453125 -0.5625 
Q 10.6875 0.296875 5.421875 2 
L 5.421875 11.28125 
Q 10.40625 8.6875 15.234375 7.390625 
Q 20.0625 6.109375 24.8125 6.109375 
Q 31.15625 6.109375 34.5625 8.28125 
Q 37.984375 10.453125 37.984375 14.40625 
Q 37.984375 18.0625 35.515625 20.015625 
Q 33.0625 21.96875 24.703125 23.78125 
L 21.578125 24.515625 
Q 13.234375 26.265625 9.515625 29.90625 
Q 5.8125 33.546875 5.8125 39.890625 
Q 5.8125 47.609375 11.28125 51.796875 
Q 16.75 56 26.8125 56 
Q 31.78125 56 36.171875 55.265625 
Q 40.578125 54.546875 44.28125 53.078125 
z
" id="DejaVuSans-115"/>
       <path d="M 34.28125 27.484375 
Q 23.390625 27.484375 19.1875 25 
Q 14.984375 22.515625 14.984375 16.5 
Q 14.984375 11.71875 18.140625 8.90625 
Q 21.296875 6.109375 26.703125 6.109375 
Q 34.1875 6.109375 38.703125 11.40625 
Q 43.21875 16.703125 43.21875 25.484375 
L 43.21875 27.484375 
z
M 52.203125 31.203125 
L 52.203125 0 
L 43.21875 0 
L 43.21875 8.296875 
Q 40.140625 3.328125 35.546875 0.953125 
Q 30.953125 -1.421875 24.3125 -1.421875 
Q 15.921875 -1.421875 10.953125 3.296875 
Q 6 8.015625 6 15.921875 
Q 6 25.140625 12.171875 29.828125 
Q 18.359375 34.515625 30.609375 34.515625 
L 43.21875 34.515625 
L 43.21875 35.40625 
Q 43.21875 41.609375 39.140625 45 
Q 35.0625 48.390625 27.6875 48.390625 
Q 23 48.390625 18.546875 47.265625 
Q 14.109375 46.140625 10.015625 43.890625 
L 10.015625 52.203125 
Q 14.9375 54.109375 19.578125 55.046875 
Q 24.21875 56 28.609375 56 
Q 40.484375 56 46.34375 49.84375 
Q 52.203125 43.703125 52.203125 31.203125 
z
" id="DejaVuSans-97"/>
       <path d="M 18.109375 8.203125 
L 18.109375 -20.796875 
L 9.078125 -20.796875 
L 9.078125 54.6875 
L 18.109375 54.6875 
L 18.109375 46.390625 
Q 20.953125 51.265625 25.265625 53.625 
Q 29.59375 56 35.59375 56 
Q 45.5625 56 51.78125 48.09375 
Q 58.015625 40.1875 58.015625 27.296875 
Q 58.015625 14.40625 51.78125 6.484375 
Q 45.5625 -1.421875 35.59375 -1.421875 
Q 29.59375 -1.421875 25.265625 0.953125 
Q 20.953125 3.328125 18.109375 8.203125 
z
M 48.6875 27.296875 
Q 48.6875 37.203125 44.609375 42.84375 
Q 40.53125 48.484375 33.40625 48.484375 
Q 26.265625 48.484375 22.1875 42.84375 
Q 18.109375 37.203125 18.109375 27.296875 
Q 18.109375 17.390625 22.1875 11.75 
Q 26.265625 6.109375 33.40625 6.109375 
Q 40.53125 6.109375 44.609375 11.75 
Q 48.6875 17.390625 48.6875 27.296875 
z
" id="DejaVuSans-112"/>
      </defs>
      <use xlink:href="#DejaVuSans-116"/>
      <use x="39.208984" xlink:href="#DejaVuSans-105"/>
      <use x="66.992188" xlink:href="#DejaVuSans-109"/>
      <use x="164.404297" xlink:href="#DejaVuSans-101"/>
      <use x="225.927734" xlink:href="#DejaVuSans-115"/>
      <use x="278.027344" xlink:href="#DejaVuSans-116"/>
      <use x="317.236328" xlink:href="#DejaVuSans-97"/>
      <use x="378.515625" xlink:href="#DejaVuSans-109"/>
      <use x="475.927734" xlink:href="#DejaVuSans-112"/>
     </g>
    </g>
   </g>
   <g id="matplotlib.axis_2">
    <g id="ytick_1">
     <g id="line2d_22">
      <defs>
       <path d="M 0 0 
L -3.5 0 
" id="m0f75372915" style="stroke:#000000;stroke-width:0.8;"/>
      </defs>
      <g>
       <use style="stroke:#000000;stroke-width:0.8;" x="108" xlink:href="#m0f75372915" y="419.635427"/>
      </g>
     </g>
     <g id="text_23">
      <!-- 12800 -->
      <g transform="translate(69.1875 423.434645)scale(0.1 -0.1)">
       <use xlink:href="#DejaVuSans-49"/>
       <use x="63.623047" xlink:href="#DejaVuSans-50"/>
       <use x="127.246094" xlink:href="#DejaVuSans-56"/>
       <use x="190.869141" xlink:href="#DejaVuSans-48"/>
       <use x="254.492188" xlink:href="#DejaVuSans-48"/>
      </g>
     </g>
    </g>
    <g id="ytick_2">
     <g id="line2d_23">
      <g>
       <use style="stroke:#000000;stroke-width:0.8;" x="108" xlink:href="#m0f75372915" y="342.936573"/>
      </g>
     </g>
     <g id="text_24">
      <!-- 13000 -->
      <g transform="translate(69.1875 346.735792)scale(0.1 -0.1)">
       <use xlink:href="#DejaVuSans-49"/>
       <use x="63.623047" xlink:href="#DejaVuSans-51"/>
       <use x="127.246094" xlink:href="#DejaVuSans-48"/>
       <use x="190.869141" xlink:href="#DejaVuSans-48"/>
       <use x="254.492188" xlink:href="#DejaVuSans-48"/>
      </g>
     </g>
    </g>
    <g id="ytick_3">
     <g id="line2d_24">
      <g>
       <use style="stroke:#000000;stroke-width:0.8;" x="108" xlink:href="#m0f75372915" y="266.23772"/>
      </g>
     </g>
     <g id="text_25">
      <!-- 13200 -->
      <g transform="translate(69.1875 270.036938)scale(0.1 -0.1)">
       <use xlink:href="#DejaVuSans-49"/>
       <use x="63.623047" xlink:href="#DejaVuSans-51"/>
       <use x="127.246094" xlink:href="#DejaVuSans-50"/>
       <use x="190.869141" xlink:href="#DejaVuSans-48"/>
       <use x="254.492188" xlink:href="#DejaVuSans-48"/>
      </g>
     </g>
    </g>
    <g id="ytick_4">
     <g id="line2d_25">
      <g>
       <use style="stroke:#000000;stroke-width:0.8;" x="108" xlink:href="#m0f75372915" y="189.538866"/>
      </g>
     </g>
     <g id="text_26">
      <!-- 13400 -->
      <g transform="translate(69.1875 193.338085)scale(0.1 -0.1)">
       <use xlink:href="#DejaVuSans-49"/>
       <use x="63.623047" xlink:href="#DejaVuSans-51"/>
       <use x="127.246094" xlink:href="#DejaVuSans-52"/>
       <use x="190.869141" xlink:href="#DejaVuSans-48"/>
       <use x="254.492188" xlink:href="#DejaVuSans-48"/>
      </g>
     </g>
    </g>
    <g id="ytick_5">
     <g id="line2d_26">
      <g>
       <use style="stroke:#000000;stroke-width:0.8;" x="108" xlink:href="#m0f75372915" y="112.840012"/>
      </g>
     </g>
     <g id="text_27">
      <!-- 13600 -->
      <g transform="translate(69.1875 116.639231)scale(0.1 -0.1)">
       <use xlink:href="#DejaVuSans-49"/>
       <use x="63.623047" xlink:href="#DejaVuSans-51"/>
       <use x="127.246094" xlink:href="#DejaVuSans-54"/>
       <use x="190.869141" xlink:href="#DejaVuSans-48"/>
       <use x="254.492188" xlink:href="#DejaVuSans-48"/>
      </g>
     </g>
    </g>
    <g id="text_28">
     <!-- MB -->
     <g transform="translate(63.52375 260.715625)rotate(-90)scale(0.08 -0.08)">
      <defs>
       <path d="M 9.8125 72.90625 
L 24.515625 72.90625 
L 43.109375 23.296875 
L 61.8125 72.90625 
L 76.515625 72.90625 
L 76.515625 0 
L 66.890625 0 
L 66.890625 64.015625 
L 48.09375 14.015625 
L 38.1875 14.015625 
L 19.390625 64.015625 
L 19.390625 0 
L 9.8125 0 
z
" id="DejaVuSans-77"/>
       <path d="M 19.671875 34.8125 
L 19.671875 8.109375 
L 35.5 8.109375 
Q 43.453125 8.109375 47.28125 11.40625 
Q 51.125 14.703125 51.125 21.484375 
Q 51.125 28.328125 47.28125 31.5625 
Q 43.453125 34.8125 35.5 34.8125 
z
M 19.671875 64.796875 
L 19.671875 42.828125 
L 34.28125 42.828125 
Q 41.5 42.828125 45.03125 45.53125 
Q 48.578125 48.25 48.578125 53.8125 
Q 48.578125 59.328125 45.03125 62.0625 
Q 41.5 64.796875 34.28125 64.796875 
z
M 9.8125 72.90625 
L 35.015625 72.90625 
Q 46.296875 72.90625 52.390625 68.21875 
Q 58.5 63.53125 58.5 54.890625 
Q 58.5 48.1875 55.375 44.234375 
Q 52.25 40.28125 46.1875 39.3125 
Q 53.46875 37.75 57.5 32.78125 
Q 61.53125 27.828125 61.53125 20.40625 
Q 61.53125 10.640625 54.890625 5.3125 
Q 48.25 0 35.984375 0 
L 9.8125 0 
z
" id="DejaVuSans-66"/>
      </defs>
      <use xlink:href="#DejaVuSans-77"/>
      <use x="86.279297" xlink:href="#DejaVuSans-66"/>
     </g>
    </g>
   </g>
   <g id="line2d_27">
    <path clip-path="url(#p809f5737d9)" d="M 132.349091 79.887142 
L 132.899975 80.397649 
L 133.45086 80.144752 
L 134.001744 80.215437 
L 134.552629 79.576125 
L 135.103513 80.27984 
L 135.654397 79.569841 
L 136.205282 79.452032 
L 136.756166 78.12 
L 137.307051 80.773069 
L 137.857935 82.24333 
L 138.408819 84.172264 
L 138.959704 99.969724 
L 140.061473 149.594201 
L 140.612357 199.950668 
L 141.714126 261.277549 
L 142.26501 311.531915 
L 142.815895 338.152135 
L 143.366779 388.704951 
L 143.917664 408.831516 
L 145.019432 418.400784 
L 145.570317 429.586397 
L 146.121201 425.909172 
L 146.672086 426.369414 
L 147.22297 423.680217 
L 148.324739 427.962198 
L 148.875623 429.699494 
L 149.426508 427.624477 
L 149.977392 427.294611 
L 150.528276 430.92 
L 151.079161 425.959437 
L 151.630045 372.582337 
L 152.18093 372.455102 
L 152.731814 372.712712 
L 153.833583 372.506939 
L 154.384467 373.485542 
L 155.486236 370.656545 
L 156.588005 372.792823 
L 157.138889 376.165314 
L 157.689774 375.412905 
L 158.240658 374.426447 
L 158.791543 371.941453 
L 159.342427 373.549945 
L 159.893311 371.446654 
L 160.444196 370.788492 
L 161.545965 386.034604 
L 162.096849 384.152794 
L 162.647733 368.537546 
L 163.198618 369.852299 
L 163.749502 390.260036 
L 164.300387 390.20977 
L 164.851271 391.087843 
L 165.402155 394.452481 
L 165.95304 394.673963 
L 166.503924 394.666109 
L 167.054809 393.118878 
L 167.605693 395.20332 
L 168.156578 396.153649 
L 168.707462 395.894468 
L 169.258346 393.791177 
L 169.809231 394.416353 
L 170.360115 399.131872 
L 170.911 399.720919 
L 171.461884 382.483042 
L 172.012768 382.008663 
L 172.563653 382.453197 
L 173.114537 390.723419 
L 173.665422 389.59559 
L 174.76719 388.593425 
L 175.318075 389.579882 
L 175.868959 403.420135 
L 176.419844 407.042383 
L 176.970728 407.230878 
L 177.521613 386.315776 
L 178.072497 386.023608 
L 178.623381 406.478468 
L 179.174266 405.254821 
L 179.72515 386.860841 
L 180.276035 385.80998 
L 181.377803 399.917268 
L 181.928688 397.765282 
L 182.479572 380.499131 
L 183.030457 389.868908 
L 183.581341 404.174116 
L 184.132225 404.00447 
L 184.68311 385.538233 
L 185.233994 386.356616 
L 185.784879 396.335861 
L 186.335763 399.040766 
L 186.886647 400.432488 
L 187.988416 358.693389 
L 188.539301 359.104937 
L 189.090185 353.319708 
L 189.64107 353.098226 
L 190.191954 352.528028 
L 190.742838 352.440064 
L 191.844607 350.305357 
L 192.395492 350.019473 
L 192.946376 351.8573 
L 193.49726 351.868296 
L 194.048145 351.082899 
L 194.599029 351.42062 
L 195.149914 350.756175 
L 195.700798 352.45263 
L 196.251682 352.47148 
L 196.802567 352.085065 
L 197.353451 350.181264 
L 197.904336 351.285532 
L 198.45522 354.166365 
L 199.006104 353.954308 
L 200.107873 351.576128 
L 200.658758 353.258447 
L 201.209642 353.663711 
L 202.311411 352.92701 
L 202.862295 351.186572 
L 203.41318 352.190308 
L 203.964064 352.228007 
L 204.514949 351.899711 
L 205.065833 350.768741 
L 205.616717 351.910707 
L 206.167602 352.27356 
L 206.718486 351.329514 
L 207.269371 351.122169 
L 207.820255 350.47029 
L 208.371139 353.827074 
L 208.922024 353.102939 
L 209.472908 357.141446 
L 210.023793 357.158725 
L 210.574677 356.433019 
L 211.125561 358.652549 
L 211.676446 353.153204 
L 212.22733 352.496613 
L 212.778215 352.754223 
L 213.329099 352.784068 
L 214.430868 353.446942 
L 214.981752 352.422785 
L 215.532637 353.885193 
L 216.083521 357.408481 
L 217.18529 357.059765 
L 217.736174 355.402579 
L 218.287059 355.977489 
L 218.837943 355.422999 
L 219.388828 354.466386 
L 219.939712 351.772477 
L 220.490596 351.477168 
L 221.041481 354.370568 
L 221.592365 354.35486 
L 222.14325 353.572606 
L 222.694134 353.043248 
L 223.245019 353.153204 
L 223.795903 354.708289 
L 224.346787 354.901496 
L 224.897672 353.56161 
L 225.448556 353.201898 
L 225.999441 355.540809 
L 226.550325 355.97906 
L 227.101209 360.699291 
L 227.652094 360.608185 
L 228.202978 359.789802 
L 228.753863 361.758005 
L 229.304747 357.705361 
L 229.855631 360.314447 
L 230.406516 359.689272 
L 230.9574 370.029799 
L 231.508285 370.794775 
L 232.610053 367.957923 
L 233.160938 361.250639 
L 233.711822 363.685368 
L 234.262707 363.476452 
L 234.813591 363.011498 
L 235.364476 362.326632 
L 235.91536 360.883074 
L 236.466244 363.217272 
L 237.017129 363.019352 
L 237.568013 362.378468 
L 238.118898 361.423427 
L 238.669782 365.234169 
L 239.220666 373.435277 
L 239.771551 373.747865 
L 240.322435 372.632602 
L 240.87332 370.006237 
L 241.424204 371.713688 
L 241.975088 370.859177 
L 242.525973 370.804199 
L 243.076857 370.581147 
L 243.627742 370.673824 
L 244.178626 371.839352 
L 244.72951 373.882953 
L 245.280395 373.030012 
L 245.831279 371.347694 
L 246.382164 372.016851 
L 246.933048 373.485542 
L 247.483933 371.009973 
L 248.034817 370.414643 
L 248.585701 368.812435 
L 249.136586 372.907491 
L 249.68747 373.796559 
L 250.238355 372.038842 
L 250.789239 369.387345 
L 251.891008 372.492801 
L 252.441892 372.822668 
L 252.992777 372.921628 
L 253.543661 371.020969 
L 254.094545 372.15351 
L 254.64543 372.973464 
L 255.196314 372.219484 
L 255.747199 372.744128 
L 256.298083 370.061215 
L 256.848968 371.476499 
L 257.399852 370.232431 
L 257.950736 361.871102 
L 258.501621 356.800584 
L 259.052505 358.916442 
L 259.60339 358.37766 
L 260.154274 355.129261 
L 260.705158 353.710835 
L 261.256043 352.834333 
L 261.806927 354.841806 
L 262.908696 354.992602 
L 263.45958 354.062693 
L 264.010465 353.66057 
L 264.561349 358.295979 
L 265.112234 356.777022 
L 265.663118 354.772691 
L 266.214002 354.574771 
L 266.764887 356.582244 
L 267.315771 356.657642 
L 267.866656 356.33563 
L 268.41754 354.964328 
L 268.968425 355.459127 
L 269.519309 358.55673 
L 270.070193 357.673945 
L 270.621078 357.003216 
L 271.171962 356.018329 
L 271.722847 355.317756 
L 272.273731 355.427711 
L 272.824615 355.374305 
L 273.3755 355.122978 
L 273.926384 353.808224 
L 274.477269 355.843972 
L 275.028153 356.73304 
L 275.579037 355.864392 
L 276.129922 355.60364 
L 276.680806 353.605592 
L 277.231691 356.191117 
L 277.782575 356.29636 
L 278.333459 356.198971 
L 278.884344 355.239216 
L 279.435228 357.274963 
L 279.986113 357.454034 
L 280.536997 356.995362 
L 281.087882 356.194258 
L 281.638766 356.136139 
L 282.18965 355.437136 
L 283.291419 353.073093 
L 283.842304 352.623847 
L 284.393188 353.662141 
L 284.944072 355.083708 
L 285.494957 355.011451 
L 286.045841 355.825122 
L 286.596726 354.530789 
L 287.14761 358.09963 
L 287.698494 358.08078 
L 288.249379 357.774476 
L 288.800263 357.303238 
L 289.351148 355.443419 
L 289.902032 356.95138 
L 290.452916 357.279676 
L 291.003801 357.438326 
L 291.554685 356.340342 
L 292.10557 357.381777 
L 292.656454 356.67335 
L 293.207339 355.229792 
L 293.758223 355.595786 
L 294.309107 353.948025 
L 294.859992 357.111601 
L 295.410876 356.883836 
L 295.961761 356.148705 
L 296.512645 356.076449 
L 297.063529 355.173243 
L 297.614414 356.285364 
L 298.165298 356.357621 
L 298.716183 355.895808 
L 299.267067 354.793111 
L 299.817951 356.780164 
L 300.368836 362.186832 
L 300.91972 361.913514 
L 301.470605 360.949047 
L 302.021489 362.116146 
L 302.572374 359.673564 
L 303.123258 359.232171 
L 304.225027 356.849279 
L 304.775911 358.757792 
L 305.87768 357.263968 
L 306.428564 356.173838 
L 306.979449 355.672755 
L 307.530333 355.371163 
L 308.081218 355.58322 
L 308.632102 355.412004 
L 309.182986 353.963733 
L 309.733871 357.710073 
L 310.284755 359.185047 
L 310.83564 358.57715 
L 311.386524 356.736182 
L 311.937408 357.012641 
L 312.488293 357.628392 
L 313.039177 358.047793 
L 313.590062 357.725781 
L 314.140946 356.381183 
L 314.691831 356.616801 
L 315.242715 358.332107 
L 315.793599 357.881289 
L 316.344484 356.858703 
L 316.895368 356.861845 
L 317.446253 356.692199 
L 317.997137 357.106889 
L 318.548021 356.974942 
L 319.098906 355.968064 
L 319.64979 355.435565 
L 320.200675 358.189165 
L 321.302443 358.333678 
L 321.853328 357.249831 
L 322.404212 356.921535 
L 322.955097 358.555159 
L 324.056865 358.284983 
L 324.60775 356.945097 
L 325.158634 358.643124 
L 325.709519 358.599142 
L 326.260403 359.015402 
L 326.811288 357.799608 
L 327.362172 358.825336 
L 327.913056 361.109268 
L 328.463941 360.77626 
L 329.014825 358.723234 
L 329.56571 358.729517 
L 330.116594 359.076663 
L 330.667478 358.366664 
L 331.769247 358.17974 
L 332.320132 357.383348 
L 332.871016 358.668256 
L 333.972785 358.085492 
L 334.523669 356.249236 
L 335.074554 358.253567 
L 335.625438 360.903494 
L 336.176323 359.690842 
L 336.727207 359.643719 
L 337.278091 356.571248 
L 337.828976 358.083922 
L 338.37986 358.481332 
L 338.930745 357.611113 
L 339.481629 357.226269 
L 340.032513 357.741489 
L 340.583398 358.760933 
L 341.134282 358.630557 
L 341.685167 358.352527 
L 342.236051 357.040915 
L 342.786935 358.781354 
L 343.33782 358.156178 
L 343.888704 358.456199 
L 344.439589 356.819434 
L 344.990473 357.615825 
L 345.541357 360.317589 
L 346.092242 360.353717 
L 346.643126 359.287149 
L 347.194011 357.689653 
L 347.744895 355.366451 
L 348.29578 358.360381 
L 348.846664 358.591288 
L 349.948433 357.018924 
L 350.499317 360.143231 
L 351.601086 359.973585 
L 352.15197 357.207419 
L 352.702855 357.706931 
L 353.253739 360.403982 
L 354.355508 360.130664 
L 354.906392 359.585599 
L 355.457277 358.759362 
L 356.008161 359.976727 
L 357.10993 358.713809 
L 357.660814 357.083327 
L 358.211699 357.82317 
L 359.313468 357.834166 
L 359.864352 355.22665 
L 360.966121 359.346839 
L 361.517005 359.015402 
L 362.06789 359.280866 
L 362.618774 357.284388 
L 363.169659 360.49823 
L 363.720543 360.254757 
L 364.822312 358.713809 
L 365.373196 358.206443 
L 365.924081 360.424402 
L 366.474965 360.303451 
L 367.025849 360.526504 
L 367.576734 359.040534 
L 368.678503 359.524338 
L 369.780271 359.089229 
L 370.331156 356.582244 
L 370.88204 358.550447 
L 371.432925 358.35724 
L 371.983809 358.429496 
L 372.534694 356.685916 
L 373.085578 356.569678 
L 373.636462 364.114194 
L 374.187347 364.357667 
L 374.738231 363.500014 
L 375.289116 363.45132 
L 375.84 360.363142 
L 376.390884 359.829072 
L 376.941769 359.951594 
L 377.492653 357.600118 
L 378.043538 363.606828 
L 378.594422 366.420118 
L 379.145306 366.019565 
L 379.696191 361.94493 
L 380.247075 360.397699 
L 380.79796 360.711858 
L 381.899729 360.091394 
L 382.450613 358.987127 
L 383.001497 357.556135 
L 383.552382 360.136947 
L 384.103266 359.868342 
L 384.654151 358.699672 
L 385.205035 358.588146 
L 385.755919 357.166579 
L 386.306804 360.664734 
L 386.857688 360.385133 
L 387.408573 359.737966 
L 387.959457 358.025802 
L 388.510341 359.888762 
L 389.61211 359.492923 
L 390.162995 358.644695 
L 390.713879 357.574985 
L 391.264763 359.401817 
L 391.815648 359.491352 
L 392.366532 358.495469 
L 392.917417 358.558301 
L 393.468301 358.349386 
L 394.019186 361.538094 
L 394.57007 361.335462 
L 395.120954 358.470337 
L 395.671839 357.450892 
L 396.222723 360.779402 
L 396.773608 360.843804 
L 397.324492 360.565774 
L 397.875376 360.16208 
L 398.426261 356.555541 
L 398.977145 358.999694 
L 399.52803 359.208609 
L 400.078914 359.016972 
L 400.629798 357.889143 
L 401.180683 358.35724 
L 401.731567 359.010689 
L 402.833336 358.580292 
L 403.38422 359.199184 
L 403.935105 361.834974 
L 404.485989 361.794134 
L 405.036874 361.968492 
L 405.587758 361.446988 
L 406.138643 360.661592 
L 406.689527 361.580506 
L 407.240411 361.841257 
L 407.791296 360.881503 
L 408.34218 359.596595 
L 408.893065 362.06431 
L 409.994833 361.135972 
L 410.545718 360.220199 
L 411.096602 360.564203 
L 411.647487 360.705574 
L 412.198371 360.316018 
L 412.749255 360.47938 
L 413.30014 360.074116 
L 413.851024 360.103961 
L 414.401909 362.596809 
L 414.952793 362.735038 
L 415.503677 361.54909 
L 416.054562 361.649621 
L 416.605446 363.309948 
L 417.156331 363.104175 
L 417.707215 363.259683 
L 418.2581 361.512962 
L 418.808984 361.341745 
L 419.359868 363.212559 
L 419.910753 363.883288 
L 420.461637 362.573247 
L 421.012522 362.588955 
L 421.563406 365.427377 
L 422.665175 360.590907 
L 423.216059 359.84478 
L 423.766944 359.563608 
L 424.317828 361.633913 
L 424.868712 361.445418 
L 425.419597 360.666305 
L 425.970481 360.363142 
L 426.521366 360.61761 
L 427.07225 361.660616 
L 427.623135 361.561656 
L 428.724903 359.50863 
L 429.275788 361.801988 
L 429.826672 362.18369 
L 430.928441 362.375327 
L 431.479325 361.737585 
L 432.03021 362.430305 
L 432.581094 362.009332 
L 433.131979 362.510415 
L 433.682863 361.838116 
L 434.233747 364.770785 
L 434.784632 363.138732 
L 435.335516 362.959662 
L 435.886401 363.223555 
L 436.437285 362.318778 
L 436.988169 361.811412 
L 437.539054 362.265371 
L 438.089938 361.525528 
L 438.640823 360.089824 
L 439.742592 363.60997 
L 440.293476 364.159747 
L 440.84436 363.030347 
L 441.395245 362.394176 
L 441.946129 363.734062 
L 442.497014 363.674372 
L 443.047898 363.196851 
L 443.598782 363.402625 
L 444.149667 361.663758 
L 444.700551 363.171719 
L 445.251436 362.713047 
L 445.80232 361.659045 
L 446.353204 361.615063 
L 446.904089 367.15839 
L 447.454973 369.478451 
L 448.005858 369.253827 
L 448.556742 368.099295 
L 449.107626 364.060787 
L 449.658511 364.585432 
L 450.209395 364.329393 
L 450.76028 364.277557 
L 451.311164 363.496873 
L 451.862049 361.679466 
L 452.412933 363.936695 
L 452.963817 364.004239 
L 454.065586 362.551256 
L 454.616471 364.36395 
L 455.167355 362.772737 
L 455.718239 362.447583 
L 456.269124 359.739537 
L 456.820008 359.436374 
L 457.370893 363.126166 
L 457.921777 362.998931 
L 458.472661 361.990483 
L 459.023546 360.504513 
L 459.57443 360.345863 
L 460.125315 364.045079 
L 460.676199 363.201564 
L 461.227084 363.322515 
L 461.777968 361.838116 
L 462.328852 365.620584 
L 462.879737 365.177621 
L 463.430621 364.464481 
L 463.981506 364.318397 
L 464.53239 363.107316 
L 465.083274 363.877004 
L 465.634159 363.66966 
L 466.185043 363.666518 
L 466.735928 361.789421 
L 467.286812 363.303665 
L 467.837696 364.285411 
L 468.388581 364.018376 
L 468.939465 361.68889 
L 469.49035 361.525528 
L 470.041234 363.157581 
L 471.693887 362.882693 
L 472.244772 362.332915 
L 472.795656 365.154059 
L 473.346541 365.251448 
L 473.897425 364.910586 
L 474.448309 363.668089 
L 475.550078 364.855608 
L 476.100963 364.453485 
L 476.651847 364.883882 
L 477.202731 363.476452 
L 477.753616 365.837354 
L 478.3045 365.505916 
L 478.855385 365.389678 
L 479.406269 365.080232 
L 479.957153 361.008737 
L 480.508038 364.216296 
L 481.058922 363.364926 
L 482.711575 359.990864 
L 483.26246 359.229029 
L 483.813344 359.370401 
L 484.364229 358.479761 
L 484.915113 363.212559 
L 485.465998 365.370828 
L 486.567766 365.504346 
L 487.118651 360.058408 
L 487.669535 360.019138 
L 488.22042 361.649621 
L 488.771304 360.463672 
L 489.322188 358.867747 
L 489.873073 357.873435 
L 490.423957 357.90171 
L 490.974842 358.291266 
L 492.07661 357.837307 
L 492.627495 357.399056 
L 493.178379 360.16208 
L 493.729264 358.855181 
L 494.280148 359.326419 
L 494.831032 357.994386 
L 495.381917 357.670803 
L 495.932801 359.078233 
L 496.483686 359.221175 
L 497.03457 359.141065 
L 497.585455 356.962376 
L 498.136339 358.632128 
L 498.687223 358.726376 
L 499.238108 359.016972 
L 499.788992 358.632128 
L 500.339877 357.048769 
L 500.890761 358.350956 
L 501.441645 357.818458 
L 501.99253 356.868128 
L 502.543414 355.660189 
L 503.094299 359.70498 
L 503.645183 360.741703 
L 504.196067 359.522768 
L 504.746952 359.651573 
L 505.297836 359.023256 
L 506.399605 356.442443 
L 506.95049 354.497802 
L 507.501374 354.610899 
L 508.052258 362.244951 
L 508.603143 363.454461 
L 509.154027 363.627248 
L 509.704912 364.092203 
L 510.255796 358.891309 
L 510.80668 361.256923 
L 511.357565 361.005596 
L 511.908449 360.982034 
L 512.459334 358.600712 
L 513.010218 357.296955 
L 513.561102 356.979654 
L 514.111987 356.450297 
L 514.662871 354.485236 
L 515.213756 354.722426 
L 515.76464 356.6545 
L 516.315524 358.105913 
L 516.866409 357.997528 
L 517.417293 357.68337 
L 517.968178 356.582244 
L 518.519062 357.699077 
L 519.069947 357.273393 
L 519.620831 356.213108 
L 520.171715 354.101963 
L 520.7226 359.44894 
L 521.273484 361.324467 
L 521.824369 358.465624 
L 522.375253 358.313257 
L 522.926137 353.228602 
L 523.477022 354.992602 
L 524.027906 355.421428 
L 524.578791 357.794896 
L 525.129675 359.068809 
L 525.680559 357.736776 
L 526.231444 360.766835 
L 526.782328 355.854967 
L 527.333213 353.451654 
L 527.884097 352.009667 
L 528.434981 351.918561 
L 530.087635 350.123145 
L 530.638519 349.186953 
L 531.189404 352.743227 
L 531.740288 351.695508 
L 532.291172 351.960972 
L 532.842057 350.652502 
L 533.943826 352.284556 
L 534.49471 351.689225 
L 535.045594 351.525863 
L 535.596479 349.51839 
L 536.147363 351.587124 
L 536.698248 351.577699 
L 537.249132 351.408053 
L 537.800016 349.95507 
L 538.350901 350.203256 
L 538.901785 352.201304 
L 539.45267 352.328538 
L 540.003554 351.417478 
L 540.554439 350.952524 
L 541.656207 351.924844 
L 542.207092 350.482857 
L 542.757976 350.299074 
L 543.308861 349.942504 
L 543.859745 350.547259 
L 544.410629 349.108413 
L 544.961514 349.267063 
L 545.512398 348.125097 
L 546.063283 347.716691 
L 546.614167 351.686084 
L 547.165051 351.535288 
L 547.715936 349.846686 
L 548.26682 349.230935 
L 548.817705 349.256068 
L 549.368589 350.181264 
L 549.919473 350.515843 
L 550.470358 350.589671 
L 551.021242 349.262351 
L 551.572127 351.331085 
L 552.123011 350.910112 
L 552.673896 351.10332 
L 553.22478 350.010048 
L 553.775664 350.082305 
L 554.326549 351.181859 
L 554.877433 350.859847 
L 556.530086 348.260185 
L 557.080971 348.795825 
L 558.18274 347.410386 
L 558.733624 345.567847 
L 559.284508 347.09937 
L 559.835393 346.46634 
L 560.386277 343.992342 
L 560.937162 342.721571 
L 561.488046 345.204994 
L 562.03893 345.377781 
L 562.589815 345.250547 
L 563.140699 344.531124 
L 563.691584 343.310618 
L 564.242468 344.466721 
L 564.793353 344.414885 
L 565.344237 343.079711 
L 565.895121 339.839167 
L 566.446006 341.043964 
L 568.098659 337.519106 
L 568.649543 337.701318 
L 569.200428 342.357147 
L 570.302197 341.466508 
L 570.853081 340.260139 
L 571.403965 339.462176 
L 571.95485 342.368142 
L 572.505734 341.018832 
L 573.056619 340.780071 
L 573.607503 339.424477 
L 574.158387 341.805799 
L 574.709272 341.672281 
L 575.260156 341.380114 
L 575.811041 341.278012 
L 576.361925 339.514012 
L 576.91281 340.591576 
L 577.463694 340.51932 
L 578.014578 339.641247 
L 578.565463 339.176292 
L 579.116347 340.929297 
L 579.667232 338.935961 
L 580.218116 338.990939 
L 580.769 336.787117 
L 581.319885 336.597051 
L 581.870769 336.67559 
L 583.523422 336.073977 
L 584.074307 334.627277 
L 584.625191 335.997008 
L 585.176076 336.256189 
L 585.72696 334.57387 
L 586.277845 334.617852 
L 586.828729 335.310572 
L 587.379613 336.73528 
L 587.930498 336.639462 
L 588.481382 335.44566 
L 589.032267 335.335704 
L 589.583151 337.497115 
L 590.134035 337.542668 
L 590.68492 337.699747 
L 591.235804 336.341012 
L 591.786689 335.539907 
L 592.337573 337.374593 
L 592.888457 335.805371 
L 593.439342 335.670283 
L 593.990226 339.592552 
L 594.541111 341.950312 
L 595.091995 341.672281 
L 595.642879 341.595313 
L 596.193764 337.555234 
L 596.744648 335.250882 
L 597.295533 336.311167 
L 597.846417 334.364955 
L 598.397302 331.688324 
L 598.948186 330.681446 
L 599.49907 331.279918 
L 600.049955 332.308787 
L 600.600839 332.030757 
L 601.151724 332.183124 
L 601.702608 330.719145 
L 602.253492 330.755273 
L 602.804377 330.640606 
L 603.355261 330.081403 
L 603.906146 329.127932 
L 604.45703 326.642939 
L 605.007914 327.133026 
L 605.558799 326.550262 
L 606.109683 325.533959 
L 606.660568 325.77272 
L 607.211452 326.793735 
L 608.313221 326.881699 
L 608.864105 327.318379 
L 609.41499 325.815131 
L 609.965874 329.211184 
L 610.516759 329.556759 
L 611.618527 326.324068 
L 612.169412 326.756036 
L 612.720296 328.408509 
L 613.271181 327.670237 
L 613.822065 327.706365 
L 614.372949 325.566946 
L 614.923834 325.83398 
L 616.025603 325.97221 
L 616.576487 324.894646 
L 617.127371 324.652744 
L 617.678256 325.802565 
L 618.22914 325.584224 
L 618.780025 324.382568 
L 619.330909 323.667858 
L 619.330909 323.667858 
" style="fill:none;stroke:#1f77b4;stroke-linecap:square;stroke-width:1.5;"/>
   </g>
   <g id="patch_3">
    <path d="M 108 448.56 
L 108 60.48 
" style="fill:none;stroke:#000000;stroke-linecap:square;stroke-linejoin:miter;stroke-width:0.8;"/>
   </g>
   <g id="patch_4">
    <path d="M 643.68 448.56 
L 643.68 60.48 
" style="fill:none;stroke:#000000;stroke-linecap:square;stroke-linejoin:miter;stroke-width:0.8;"/>
   </g>
   <g id="patch_5">
    <path d="M 108 448.56 
L 643.68 448.56 
" style="fill:none;stroke:#000000;stroke-linecap:square;stroke-linejoin:miter;stroke-width:0.8;"/>
   </g>
   <g id="patch_6">
    <path d="M 108 60.48 
L 643.68 60.48 
" style="fill:none;stroke:#000000;stroke-linecap:square;stroke-linejoin:miter;stroke-width:0.8;"/>
   </g>
   <g id="text_29">
    <!-- unikernel_dce - free -->
    <g transform="translate(301.653281 54.48)scale(0.15 -0.15)">
     <defs>
      <path d="M 8.5 21.578125 
L 8.5 54.6875 
L 17.484375 54.6875 
L 17.484375 21.921875 
Q 17.484375 14.15625 20.5 10.265625 
Q 23.53125 6.390625 29.59375 6.390625 
Q 36.859375 6.390625 41.078125 11.03125 
Q 45.3125 15.671875 45.3125 23.6875 
L 45.3125 54.6875 
L 54.296875 54.6875 
L 54.296875 0 
L 45.3125 0 
L 45.3125 8.40625 
Q 42.046875 3.421875 37.71875 1 
Q 33.40625 -1.421875 27.6875 -1.421875 
Q 18.265625 -1.421875 13.375 4.4375 
Q 8.5 10.296875 8.5 21.578125 
z
M 31.109375 56 
z
" id="DejaVuSans-117"/>
      <path d="M 54.890625 33.015625 
L 54.890625 0 
L 45.90625 0 
L 45.90625 32.71875 
Q 45.90625 40.484375 42.875 44.328125 
Q 39.84375 48.1875 33.796875 48.1875 
Q 26.515625 48.1875 22.3125 43.546875 
Q 18.109375 38.921875 18.109375 30.90625 
L 18.109375 0 
L 9.078125 0 
L 9.078125 54.6875 
L 18.109375 54.6875 
L 18.109375 46.1875 
Q 21.34375 51.125 25.703125 53.5625 
Q 30.078125 56 35.796875 56 
Q 45.21875 56 50.046875 50.171875 
Q 54.890625 44.34375 54.890625 33.015625 
z
" id="DejaVuSans-110"/>
      <path d="M 9.078125 75.984375 
L 18.109375 75.984375 
L 18.109375 31.109375 
L 44.921875 54.6875 
L 56.390625 54.6875 
L 27.390625 29.109375 
L 57.625 0 
L 45.90625 0 
L 18.109375 26.703125 
L 18.109375 0 
L 9.078125 0 
z
" id="DejaVuSans-107"/>
      <path d="M 41.109375 46.296875 
Q 39.59375 47.171875 37.8125 47.578125 
Q 36.03125 48 33.890625 48 
Q 26.265625 48 22.1875 43.046875 
Q 18.109375 38.09375 18.109375 28.8125 
L 18.109375 0 
L 9.078125 0 
L 9.078125 54.6875 
L 18.109375 54.6875 
L 18.109375 46.1875 
Q 20.953125 51.171875 25.484375 53.578125 
Q 30.03125 56 36.53125 56 
Q 37.453125 56 38.578125 55.875 
Q 39.703125 55.765625 41.0625 55.515625 
z
" id="DejaVuSans-114"/>
      <path d="M 9.421875 75.984375 
L 18.40625 75.984375 
L 18.40625 0 
L 9.421875 0 
z
" id="DejaVuSans-108"/>
      <path d="M 50.984375 -16.609375 
L 50.984375 -23.578125 
L -0.984375 -23.578125 
L -0.984375 -16.609375 
z
" id="DejaVuSans-95"/>
      <path d="M 45.40625 46.390625 
L 45.40625 75.984375 
L 54.390625 75.984375 
L 54.390625 0 
L 45.40625 0 
L 45.40625 8.203125 
Q 42.578125 3.328125 38.25 0.953125 
Q 33.9375 -1.421875 27.875 -1.421875 
Q 17.96875 -1.421875 11.734375 6.484375 
Q 5.515625 14.40625 5.515625 27.296875 
Q 5.515625 40.1875 11.734375 48.09375 
Q 17.96875 56 27.875 56 
Q 33.9375 56 38.25 53.625 
Q 42.578125 51.265625 45.40625 46.390625 
z
M 14.796875 27.296875 
Q 14.796875 17.390625 18.875 11.75 
Q 22.953125 6.109375 30.078125 6.109375 
Q 37.203125 6.109375 41.296875 11.75 
Q 45.40625 17.390625 45.40625 27.296875 
Q 45.40625 37.203125 41.296875 42.84375 
Q 37.203125 48.484375 30.078125 48.484375 
Q 22.953125 48.484375 18.875 42.84375 
Q 14.796875 37.203125 14.796875 27.296875 
z
" id="DejaVuSans-100"/>
      <path d="M 48.78125 52.59375 
L 48.78125 44.1875 
Q 44.96875 46.296875 41.140625 47.34375 
Q 37.3125 48.390625 33.40625 48.390625 
Q 24.65625 48.390625 19.8125 42.84375 
Q 14.984375 37.3125 14.984375 27.296875 
Q 14.984375 17.28125 19.8125 11.734375 
Q 24.65625 6.203125 33.40625 6.203125 
Q 37.3125 6.203125 41.140625 7.25 
Q 44.96875 8.296875 48.78125 10.40625 
L 48.78125 2.09375 
Q 45.015625 0.34375 40.984375 -0.53125 
Q 36.96875 -1.421875 32.421875 -1.421875 
Q 20.0625 -1.421875 12.78125 6.34375 
Q 5.515625 14.109375 5.515625 27.296875 
Q 5.515625 40.671875 12.859375 48.328125 
Q 20.21875 56 33.015625 56 
Q 37.15625 56 41.109375 55.140625 
Q 45.0625 54.296875 48.78125 52.59375 
z
" id="DejaVuSans-99"/>
      <path id="DejaVuSans-32"/>
      <path d="M 4.890625 31.390625 
L 31.203125 31.390625 
L 31.203125 23.390625 
L 4.890625 23.390625 
z
" id="DejaVuSans-45"/>
      <path d="M 37.109375 75.984375 
L 37.109375 68.5 
L 28.515625 68.5 
Q 23.6875 68.5 21.796875 66.546875 
Q 19.921875 64.59375 19.921875 59.515625 
L 19.921875 54.6875 
L 34.71875 54.6875 
L 34.71875 47.703125 
L 19.921875 47.703125 
L 19.921875 0 
L 10.890625 0 
L 10.890625 47.703125 
L 2.296875 47.703125 
L 2.296875 54.6875 
L 10.890625 54.6875 
L 10.890625 58.5 
Q 10.890625 67.625 15.140625 71.796875 
Q 19.390625 75.984375 28.609375 75.984375 
z
" id="DejaVuSans-102"/>
     </defs>
     <use xlink:href="#DejaVuSans-117"/>
     <use x="63.378906" xlink:href="#DejaVuSans-110"/>
     <use x="126.757812" xlink:href="#DejaVuSans-105"/>
     <use x="154.541016" xlink:href="#DejaVuSans-107"/>
     <use x="208.826172" xlink:href="#DejaVuSans-101"/>
     <use x="270.349609" xlink:href="#DejaVuSans-114"/>
     <use x="309.712891" xlink:href="#DejaVuSans-110"/>
     <use x="373.091797" xlink:href="#DejaVuSans-101"/>
     <use x="434.615234" xlink:href="#DejaVuSans-108"/>
     <use x="462.398438" xlink:href="#DejaVuSans-95"/>
     <use x="512.398438" xlink:href="#DejaVuSans-100"/>
     <use x="575.875" xlink:href="#DejaVuSans-99"/>
     <use x="630.855469" xlink:href="#DejaVuSans-101"/>
     <use x="692.378906" xlink:href="#DejaVuSans-32"/>
     <use x="724.166016" xlink:href="#DejaVuSans-45"/>
     <use x="760.25" xlink:href="#DejaVuSans-32"/>
     <use x="792.037109" xlink:href="#DejaVuSans-102"/>
     <use x="827.242188" xlink:href="#DejaVuSans-114"/>
     <use x="866.105469" xlink:href="#DejaVuSans-101"/>
     <use x="927.628906" xlink:href="#DejaVuSans-101"/>
    </g>
   </g>
   <g id="legend_1">
    <g id="patch_7">
     <path d="M 650.68 258.52 
L 654.68 258.52 
Q 656.68 258.52 656.68 256.52 
L 656.68 252.52 
Q 656.68 250.52 654.68 250.52 
L 650.68 250.52 
Q 648.68 250.52 648.68 252.52 
L 648.68 256.52 
Q 648.68 258.52 650.68 258.52 
z
" style="fill:#ffffff;opacity:0.8;stroke:#cccccc;stroke-linejoin:miter;"/>
    </g>
   </g>
  </g>
 </g>
 <defs>
  <clipPath id="p809f5737d9">
   <rect height="388.08" width="535.68" x="108" y="60.48"/>
  </clipPath>
 </defs>
</svg>
