<?xml version="1.0" encoding="utf-8" standalone="no"?>
<!DOCTYPE svg PUBLIC "-//W3C//DTD SVG 1.1//EN"
  "http://www.w3.org/Graphics/SVG/1.1/DTD/svg11.dtd">
<!-- Created with matplotlib (https://matplotlib.org/) -->
<svg height="504pt" version="1.1" viewBox="0 0 864 504" width="864pt" xmlns="http://www.w3.org/2000/svg" xmlns:xlink="http://www.w3.org/1999/xlink">
 <metadata>
  <rdf:RDF xmlns:cc="http://creativecommons.org/ns#" xmlns:dc="http://purl.org/dc/elements/1.1/" xmlns:rdf="http://www.w3.org/1999/02/22-rdf-syntax-ns#">
   <cc:Work>
    <dc:type rdf:resource="http://purl.org/dc/dcmitype/StillImage"/>
    <dc:date>2022-05-29T17:24:24.476061</dc:date>
    <dc:format>image/svg+xml</dc:format>
    <dc:creator>
     <cc:Agent>
      <dc:title>Matplotlib v3.3.4, https://matplotlib.org/</dc:title>
     </cc:Agent>
    </dc:creator>
   </cc:Work>
  </rdf:RDF>
 </metadata>
 <defs>
  <style type="text/css">*{stroke-linecap:butt;stroke-linejoin:round;}</style>
 </defs>
 <g id="figure_1">
  <g id="patch_1">
   <path d="M 0 504 
L 864 504 
L 864 0 
L 0 0 
z
" style="fill:#ffffff;"/>
  </g>
  <g id="axes_1">
   <g id="patch_2">
    <path d="M 108 448.56 
L 643.68 448.56 
L 643.68 60.48 
L 108 60.48 
z
" style="fill:#ffffff;"/>
   </g>
   <g id="matplotlib.axis_1">
    <g id="xtick_1">
     <g id="line2d_1">
      <defs>
       <path d="M 0 0 
L 0 3.5 
" id="m816d4a2e45" style="stroke:#000000;stroke-width:0.8;"/>
      </defs>
      <g>
       <use style="stroke:#000000;stroke-width:0.8;" x="132.349091" xlink:href="#m816d4a2e45" y="448.56"/>
      </g>
     </g>
     <g id="text_1">
      <!-- 11:33:06 -->
      <g transform="translate(135.108466 500.4725)rotate(-90)scale(0.1 -0.1)">
       <defs>
        <path d="M 12.40625 8.296875 
L 28.515625 8.296875 
L 28.515625 63.921875 
L 10.984375 60.40625 
L 10.984375 69.390625 
L 28.421875 72.90625 
L 38.28125 72.90625 
L 38.28125 8.296875 
L 54.390625 8.296875 
L 54.390625 0 
L 12.40625 0 
z
" id="DejaVuSans-49"/>
        <path d="M 11.71875 12.40625 
L 22.015625 12.40625 
L 22.015625 0 
L 11.71875 0 
z
M 11.71875 51.703125 
L 22.015625 51.703125 
L 22.015625 39.3125 
L 11.71875 39.3125 
z
" id="DejaVuSans-58"/>
        <path d="M 40.578125 39.3125 
Q 47.65625 37.796875 51.625 33 
Q 55.609375 28.21875 55.609375 21.1875 
Q 55.609375 10.40625 48.1875 4.484375 
Q 40.765625 -1.421875 27.09375 -1.421875 
Q 22.515625 -1.421875 17.65625 -0.515625 
Q 12.796875 0.390625 7.625 2.203125 
L 7.625 11.71875 
Q 11.71875 9.328125 16.59375 8.109375 
Q 21.484375 6.890625 26.8125 6.890625 
Q 36.078125 6.890625 40.9375 10.546875 
Q 45.796875 14.203125 45.796875 21.1875 
Q 45.796875 27.640625 41.28125 31.265625 
Q 36.765625 34.90625 28.71875 34.90625 
L 20.21875 34.90625 
L 20.21875 43.015625 
L 29.109375 43.015625 
Q 36.375 43.015625 40.234375 45.921875 
Q 44.09375 48.828125 44.09375 54.296875 
Q 44.09375 59.90625 40.109375 62.90625 
Q 36.140625 65.921875 28.71875 65.921875 
Q 24.65625 65.921875 20.015625 65.03125 
Q 15.375 64.15625 9.8125 62.3125 
L 9.8125 71.09375 
Q 15.4375 72.65625 20.34375 73.4375 
Q 25.25 74.21875 29.59375 74.21875 
Q 40.828125 74.21875 47.359375 69.109375 
Q 53.90625 64.015625 53.90625 55.328125 
Q 53.90625 49.265625 50.4375 45.09375 
Q 46.96875 40.921875 40.578125 39.3125 
z
" id="DejaVuSans-51"/>
        <path d="M 31.78125 66.40625 
Q 24.171875 66.40625 20.328125 58.90625 
Q 16.5 51.421875 16.5 36.375 
Q 16.5 21.390625 20.328125 13.890625 
Q 24.171875 6.390625 31.78125 6.390625 
Q 39.453125 6.390625 43.28125 13.890625 
Q 47.125 21.390625 47.125 36.375 
Q 47.125 51.421875 43.28125 58.90625 
Q 39.453125 66.40625 31.78125 66.40625 
z
M 31.78125 74.21875 
Q 44.046875 74.21875 50.515625 64.515625 
Q 56.984375 54.828125 56.984375 36.375 
Q 56.984375 17.96875 50.515625 8.265625 
Q 44.046875 -1.421875 31.78125 -1.421875 
Q 19.53125 -1.421875 13.0625 8.265625 
Q 6.59375 17.96875 6.59375 36.375 
Q 6.59375 54.828125 13.0625 64.515625 
Q 19.53125 74.21875 31.78125 74.21875 
z
" id="DejaVuSans-48"/>
        <path d="M 33.015625 40.375 
Q 26.375 40.375 22.484375 35.828125 
Q 18.609375 31.296875 18.609375 23.390625 
Q 18.609375 15.53125 22.484375 10.953125 
Q 26.375 6.390625 33.015625 6.390625 
Q 39.65625 6.390625 43.53125 10.953125 
Q 47.40625 15.53125 47.40625 23.390625 
Q 47.40625 31.296875 43.53125 35.828125 
Q 39.65625 40.375 33.015625 40.375 
z
M 52.59375 71.296875 
L 52.59375 62.3125 
Q 48.875 64.0625 45.09375 64.984375 
Q 41.3125 65.921875 37.59375 65.921875 
Q 27.828125 65.921875 22.671875 59.328125 
Q 17.53125 52.734375 16.796875 39.40625 
Q 19.671875 43.65625 24.015625 45.921875 
Q 28.375 48.1875 33.59375 48.1875 
Q 44.578125 48.1875 50.953125 41.515625 
Q 57.328125 34.859375 57.328125 23.390625 
Q 57.328125 12.15625 50.6875 5.359375 
Q 44.046875 -1.421875 33.015625 -1.421875 
Q 20.359375 -1.421875 13.671875 8.265625 
Q 6.984375 17.96875 6.984375 36.375 
Q 6.984375 53.65625 15.1875 63.9375 
Q 23.390625 74.21875 37.203125 74.21875 
Q 40.921875 74.21875 44.703125 73.484375 
Q 48.484375 72.75 52.59375 71.296875 
z
" id="DejaVuSans-54"/>
       </defs>
       <use xlink:href="#DejaVuSans-49"/>
       <use x="63.623047" xlink:href="#DejaVuSans-49"/>
       <use x="127.246094" xlink:href="#DejaVuSans-58"/>
       <use x="160.9375" xlink:href="#DejaVuSans-51"/>
       <use x="224.560547" xlink:href="#DejaVuSans-51"/>
       <use x="288.183594" xlink:href="#DejaVuSans-58"/>
       <use x="321.875" xlink:href="#DejaVuSans-48"/>
       <use x="385.498047" xlink:href="#DejaVuSans-54"/>
      </g>
     </g>
    </g>
    <g id="xtick_2">
     <g id="line2d_2">
      <g>
       <use style="stroke:#000000;stroke-width:0.8;" x="156.280769" xlink:href="#m816d4a2e45" y="448.56"/>
      </g>
     </g>
     <g id="text_2">
      <!-- 11:33:55 -->
      <g transform="translate(159.040144 500.4725)rotate(-90)scale(0.1 -0.1)">
       <defs>
        <path d="M 10.796875 72.90625 
L 49.515625 72.90625 
L 49.515625 64.59375 
L 19.828125 64.59375 
L 19.828125 46.734375 
Q 21.96875 47.46875 24.109375 47.828125 
Q 26.265625 48.1875 28.421875 48.1875 
Q 40.625 48.1875 47.75 41.5 
Q 54.890625 34.8125 54.890625 23.390625 
Q 54.890625 11.625 47.5625 5.09375 
Q 40.234375 -1.421875 26.90625 -1.421875 
Q 22.3125 -1.421875 17.546875 -0.640625 
Q 12.796875 0.140625 7.71875 1.703125 
L 7.71875 11.625 
Q 12.109375 9.234375 16.796875 8.0625 
Q 21.484375 6.890625 26.703125 6.890625 
Q 35.15625 6.890625 40.078125 11.328125 
Q 45.015625 15.765625 45.015625 23.390625 
Q 45.015625 31 40.078125 35.4375 
Q 35.15625 39.890625 26.703125 39.890625 
Q 22.75 39.890625 18.8125 39.015625 
Q 14.890625 38.140625 10.796875 36.28125 
z
" id="DejaVuSans-53"/>
       </defs>
       <use xlink:href="#DejaVuSans-49"/>
       <use x="63.623047" xlink:href="#DejaVuSans-49"/>
       <use x="127.246094" xlink:href="#DejaVuSans-58"/>
       <use x="160.9375" xlink:href="#DejaVuSans-51"/>
       <use x="224.560547" xlink:href="#DejaVuSans-51"/>
       <use x="288.183594" xlink:href="#DejaVuSans-58"/>
       <use x="321.875" xlink:href="#DejaVuSans-53"/>
       <use x="385.498047" xlink:href="#DejaVuSans-53"/>
      </g>
     </g>
    </g>
    <g id="xtick_3">
     <g id="line2d_3">
      <g>
       <use style="stroke:#000000;stroke-width:0.8;" x="180.212447" xlink:href="#m816d4a2e45" y="448.56"/>
      </g>
     </g>
     <g id="text_3">
      <!-- 11:34:43 -->
      <g transform="translate(182.971822 500.4725)rotate(-90)scale(0.1 -0.1)">
       <defs>
        <path d="M 37.796875 64.3125 
L 12.890625 25.390625 
L 37.796875 25.390625 
z
M 35.203125 72.90625 
L 47.609375 72.90625 
L 47.609375 25.390625 
L 58.015625 25.390625 
L 58.015625 17.1875 
L 47.609375 17.1875 
L 47.609375 0 
L 37.796875 0 
L 37.796875 17.1875 
L 4.890625 17.1875 
L 4.890625 26.703125 
z
" id="DejaVuSans-52"/>
       </defs>
       <use xlink:href="#DejaVuSans-49"/>
       <use x="63.623047" xlink:href="#DejaVuSans-49"/>
       <use x="127.246094" xlink:href="#DejaVuSans-58"/>
       <use x="160.9375" xlink:href="#DejaVuSans-51"/>
       <use x="224.560547" xlink:href="#DejaVuSans-52"/>
       <use x="288.183594" xlink:href="#DejaVuSans-58"/>
       <use x="321.875" xlink:href="#DejaVuSans-52"/>
       <use x="385.498047" xlink:href="#DejaVuSans-51"/>
      </g>
     </g>
    </g>
    <g id="xtick_4">
     <g id="line2d_4">
      <g>
       <use style="stroke:#000000;stroke-width:0.8;" x="204.144125" xlink:href="#m816d4a2e45" y="448.56"/>
      </g>
     </g>
     <g id="text_4">
      <!-- 11:35:32 -->
      <g transform="translate(206.9035 500.4725)rotate(-90)scale(0.1 -0.1)">
       <defs>
        <path d="M 19.1875 8.296875 
L 53.609375 8.296875 
L 53.609375 0 
L 7.328125 0 
L 7.328125 8.296875 
Q 12.9375 14.109375 22.625 23.890625 
Q 32.328125 33.6875 34.8125 36.53125 
Q 39.546875 41.84375 41.421875 45.53125 
Q 43.3125 49.21875 43.3125 52.78125 
Q 43.3125 58.59375 39.234375 62.25 
Q 35.15625 65.921875 28.609375 65.921875 
Q 23.96875 65.921875 18.8125 64.3125 
Q 13.671875 62.703125 7.8125 59.421875 
L 7.8125 69.390625 
Q 13.765625 71.78125 18.9375 73 
Q 24.125 74.21875 28.421875 74.21875 
Q 39.75 74.21875 46.484375 68.546875 
Q 53.21875 62.890625 53.21875 53.421875 
Q 53.21875 48.921875 51.53125 44.890625 
Q 49.859375 40.875 45.40625 35.40625 
Q 44.1875 33.984375 37.640625 27.21875 
Q 31.109375 20.453125 19.1875 8.296875 
z
" id="DejaVuSans-50"/>
       </defs>
       <use xlink:href="#DejaVuSans-49"/>
       <use x="63.623047" xlink:href="#DejaVuSans-49"/>
       <use x="127.246094" xlink:href="#DejaVuSans-58"/>
       <use x="160.9375" xlink:href="#DejaVuSans-51"/>
       <use x="224.560547" xlink:href="#DejaVuSans-53"/>
       <use x="288.183594" xlink:href="#DejaVuSans-58"/>
       <use x="321.875" xlink:href="#DejaVuSans-51"/>
       <use x="385.498047" xlink:href="#DejaVuSans-50"/>
      </g>
     </g>
    </g>
    <g id="xtick_5">
     <g id="line2d_5">
      <g>
       <use style="stroke:#000000;stroke-width:0.8;" x="228.075803" xlink:href="#m816d4a2e45" y="448.56"/>
      </g>
     </g>
     <g id="text_5">
      <!-- 11:36:20 -->
      <g transform="translate(230.835178 500.4725)rotate(-90)scale(0.1 -0.1)">
       <use xlink:href="#DejaVuSans-49"/>
       <use x="63.623047" xlink:href="#DejaVuSans-49"/>
       <use x="127.246094" xlink:href="#DejaVuSans-58"/>
       <use x="160.9375" xlink:href="#DejaVuSans-51"/>
       <use x="224.560547" xlink:href="#DejaVuSans-54"/>
       <use x="288.183594" xlink:href="#DejaVuSans-58"/>
       <use x="321.875" xlink:href="#DejaVuSans-50"/>
       <use x="385.498047" xlink:href="#DejaVuSans-48"/>
      </g>
     </g>
    </g>
    <g id="xtick_6">
     <g id="line2d_6">
      <g>
       <use style="stroke:#000000;stroke-width:0.8;" x="252.007481" xlink:href="#m816d4a2e45" y="448.56"/>
      </g>
     </g>
     <g id="text_6">
      <!-- 11:37:08 -->
      <g transform="translate(254.766856 500.4725)rotate(-90)scale(0.1 -0.1)">
       <defs>
        <path d="M 8.203125 72.90625 
L 55.078125 72.90625 
L 55.078125 68.703125 
L 28.609375 0 
L 18.3125 0 
L 43.21875 64.59375 
L 8.203125 64.59375 
z
" id="DejaVuSans-55"/>
        <path d="M 31.78125 34.625 
Q 24.75 34.625 20.71875 30.859375 
Q 16.703125 27.09375 16.703125 20.515625 
Q 16.703125 13.921875 20.71875 10.15625 
Q 24.75 6.390625 31.78125 6.390625 
Q 38.8125 6.390625 42.859375 10.171875 
Q 46.921875 13.96875 46.921875 20.515625 
Q 46.921875 27.09375 42.890625 30.859375 
Q 38.875 34.625 31.78125 34.625 
z
M 21.921875 38.8125 
Q 15.578125 40.375 12.03125 44.71875 
Q 8.5 49.078125 8.5 55.328125 
Q 8.5 64.0625 14.71875 69.140625 
Q 20.953125 74.21875 31.78125 74.21875 
Q 42.671875 74.21875 48.875 69.140625 
Q 55.078125 64.0625 55.078125 55.328125 
Q 55.078125 49.078125 51.53125 44.71875 
Q 48 40.375 41.703125 38.8125 
Q 48.828125 37.15625 52.796875 32.3125 
Q 56.78125 27.484375 56.78125 20.515625 
Q 56.78125 9.90625 50.3125 4.234375 
Q 43.84375 -1.421875 31.78125 -1.421875 
Q 19.734375 -1.421875 13.25 4.234375 
Q 6.78125 9.90625 6.78125 20.515625 
Q 6.78125 27.484375 10.78125 32.3125 
Q 14.796875 37.15625 21.921875 38.8125 
z
M 18.3125 54.390625 
Q 18.3125 48.734375 21.84375 45.5625 
Q 25.390625 42.390625 31.78125 42.390625 
Q 38.140625 42.390625 41.71875 45.5625 
Q 45.3125 48.734375 45.3125 54.390625 
Q 45.3125 60.0625 41.71875 63.234375 
Q 38.140625 66.40625 31.78125 66.40625 
Q 25.390625 66.40625 21.84375 63.234375 
Q 18.3125 60.0625 18.3125 54.390625 
z
" id="DejaVuSans-56"/>
       </defs>
       <use xlink:href="#DejaVuSans-49"/>
       <use x="63.623047" xlink:href="#DejaVuSans-49"/>
       <use x="127.246094" xlink:href="#DejaVuSans-58"/>
       <use x="160.9375" xlink:href="#DejaVuSans-51"/>
       <use x="224.560547" xlink:href="#DejaVuSans-55"/>
       <use x="288.183594" xlink:href="#DejaVuSans-58"/>
       <use x="321.875" xlink:href="#DejaVuSans-48"/>
       <use x="385.498047" xlink:href="#DejaVuSans-56"/>
      </g>
     </g>
    </g>
    <g id="xtick_7">
     <g id="line2d_7">
      <g>
       <use style="stroke:#000000;stroke-width:0.8;" x="275.939158" xlink:href="#m816d4a2e45" y="448.56"/>
      </g>
     </g>
     <g id="text_7">
      <!-- 11:37:57 -->
      <g transform="translate(278.698533 500.4725)rotate(-90)scale(0.1 -0.1)">
       <use xlink:href="#DejaVuSans-49"/>
       <use x="63.623047" xlink:href="#DejaVuSans-49"/>
       <use x="127.246094" xlink:href="#DejaVuSans-58"/>
       <use x="160.9375" xlink:href="#DejaVuSans-51"/>
       <use x="224.560547" xlink:href="#DejaVuSans-55"/>
       <use x="288.183594" xlink:href="#DejaVuSans-58"/>
       <use x="321.875" xlink:href="#DejaVuSans-53"/>
       <use x="385.498047" xlink:href="#DejaVuSans-55"/>
      </g>
     </g>
    </g>
    <g id="xtick_8">
     <g id="line2d_8">
      <g>
       <use style="stroke:#000000;stroke-width:0.8;" x="299.870836" xlink:href="#m816d4a2e45" y="448.56"/>
      </g>
     </g>
     <g id="text_8">
      <!-- 11:38:45 -->
      <g transform="translate(302.630211 500.4725)rotate(-90)scale(0.1 -0.1)">
       <use xlink:href="#DejaVuSans-49"/>
       <use x="63.623047" xlink:href="#DejaVuSans-49"/>
       <use x="127.246094" xlink:href="#DejaVuSans-58"/>
       <use x="160.9375" xlink:href="#DejaVuSans-51"/>
       <use x="224.560547" xlink:href="#DejaVuSans-56"/>
       <use x="288.183594" xlink:href="#DejaVuSans-58"/>
       <use x="321.875" xlink:href="#DejaVuSans-52"/>
       <use x="385.498047" xlink:href="#DejaVuSans-53"/>
      </g>
     </g>
    </g>
    <g id="xtick_9">
     <g id="line2d_9">
      <g>
       <use style="stroke:#000000;stroke-width:0.8;" x="323.802514" xlink:href="#m816d4a2e45" y="448.56"/>
      </g>
     </g>
     <g id="text_9">
      <!-- 11:39:34 -->
      <g transform="translate(326.561889 500.4725)rotate(-90)scale(0.1 -0.1)">
       <defs>
        <path d="M 10.984375 1.515625 
L 10.984375 10.5 
Q 14.703125 8.734375 18.5 7.8125 
Q 22.3125 6.890625 25.984375 6.890625 
Q 35.75 6.890625 40.890625 13.453125 
Q 46.046875 20.015625 46.78125 33.40625 
Q 43.953125 29.203125 39.59375 26.953125 
Q 35.25 24.703125 29.984375 24.703125 
Q 19.046875 24.703125 12.671875 31.3125 
Q 6.296875 37.9375 6.296875 49.421875 
Q 6.296875 60.640625 12.9375 67.421875 
Q 19.578125 74.21875 30.609375 74.21875 
Q 43.265625 74.21875 49.921875 64.515625 
Q 56.59375 54.828125 56.59375 36.375 
Q 56.59375 19.140625 48.40625 8.859375 
Q 40.234375 -1.421875 26.421875 -1.421875 
Q 22.703125 -1.421875 18.890625 -0.6875 
Q 15.09375 0.046875 10.984375 1.515625 
z
M 30.609375 32.421875 
Q 37.25 32.421875 41.125 36.953125 
Q 45.015625 41.5 45.015625 49.421875 
Q 45.015625 57.28125 41.125 61.84375 
Q 37.25 66.40625 30.609375 66.40625 
Q 23.96875 66.40625 20.09375 61.84375 
Q 16.21875 57.28125 16.21875 49.421875 
Q 16.21875 41.5 20.09375 36.953125 
Q 23.96875 32.421875 30.609375 32.421875 
z
" id="DejaVuSans-57"/>
       </defs>
       <use xlink:href="#DejaVuSans-49"/>
       <use x="63.623047" xlink:href="#DejaVuSans-49"/>
       <use x="127.246094" xlink:href="#DejaVuSans-58"/>
       <use x="160.9375" xlink:href="#DejaVuSans-51"/>
       <use x="224.560547" xlink:href="#DejaVuSans-57"/>
       <use x="288.183594" xlink:href="#DejaVuSans-58"/>
       <use x="321.875" xlink:href="#DejaVuSans-51"/>
       <use x="385.498047" xlink:href="#DejaVuSans-52"/>
      </g>
     </g>
    </g>
    <g id="xtick_10">
     <g id="line2d_10">
      <g>
       <use style="stroke:#000000;stroke-width:0.8;" x="347.734192" xlink:href="#m816d4a2e45" y="448.56"/>
      </g>
     </g>
     <g id="text_10">
      <!-- 11:40:22 -->
      <g transform="translate(350.493567 500.4725)rotate(-90)scale(0.1 -0.1)">
       <use xlink:href="#DejaVuSans-49"/>
       <use x="63.623047" xlink:href="#DejaVuSans-49"/>
       <use x="127.246094" xlink:href="#DejaVuSans-58"/>
       <use x="160.9375" xlink:href="#DejaVuSans-52"/>
       <use x="224.560547" xlink:href="#DejaVuSans-48"/>
       <use x="288.183594" xlink:href="#DejaVuSans-58"/>
       <use x="321.875" xlink:href="#DejaVuSans-50"/>
       <use x="385.498047" xlink:href="#DejaVuSans-50"/>
      </g>
     </g>
    </g>
    <g id="xtick_11">
     <g id="line2d_11">
      <g>
       <use style="stroke:#000000;stroke-width:0.8;" x="371.66587" xlink:href="#m816d4a2e45" y="448.56"/>
      </g>
     </g>
     <g id="text_11">
      <!-- 11:41:10 -->
      <g transform="translate(374.425245 500.4725)rotate(-90)scale(0.1 -0.1)">
       <use xlink:href="#DejaVuSans-49"/>
       <use x="63.623047" xlink:href="#DejaVuSans-49"/>
       <use x="127.246094" xlink:href="#DejaVuSans-58"/>
       <use x="160.9375" xlink:href="#DejaVuSans-52"/>
       <use x="224.560547" xlink:href="#DejaVuSans-49"/>
       <use x="288.183594" xlink:href="#DejaVuSans-58"/>
       <use x="321.875" xlink:href="#DejaVuSans-49"/>
       <use x="385.498047" xlink:href="#DejaVuSans-48"/>
      </g>
     </g>
    </g>
    <g id="xtick_12">
     <g id="line2d_12">
      <g>
       <use style="stroke:#000000;stroke-width:0.8;" x="395.597548" xlink:href="#m816d4a2e45" y="448.56"/>
      </g>
     </g>
     <g id="text_12">
      <!-- 11:41:59 -->
      <g transform="translate(398.356923 500.4725)rotate(-90)scale(0.1 -0.1)">
       <use xlink:href="#DejaVuSans-49"/>
       <use x="63.623047" xlink:href="#DejaVuSans-49"/>
       <use x="127.246094" xlink:href="#DejaVuSans-58"/>
       <use x="160.9375" xlink:href="#DejaVuSans-52"/>
       <use x="224.560547" xlink:href="#DejaVuSans-49"/>
       <use x="288.183594" xlink:href="#DejaVuSans-58"/>
       <use x="321.875" xlink:href="#DejaVuSans-53"/>
       <use x="385.498047" xlink:href="#DejaVuSans-57"/>
      </g>
     </g>
    </g>
    <g id="xtick_13">
     <g id="line2d_13">
      <g>
       <use style="stroke:#000000;stroke-width:0.8;" x="419.529226" xlink:href="#m816d4a2e45" y="448.56"/>
      </g>
     </g>
     <g id="text_13">
      <!-- 11:42:47 -->
      <g transform="translate(422.288601 500.4725)rotate(-90)scale(0.1 -0.1)">
       <use xlink:href="#DejaVuSans-49"/>
       <use x="63.623047" xlink:href="#DejaVuSans-49"/>
       <use x="127.246094" xlink:href="#DejaVuSans-58"/>
       <use x="160.9375" xlink:href="#DejaVuSans-52"/>
       <use x="224.560547" xlink:href="#DejaVuSans-50"/>
       <use x="288.183594" xlink:href="#DejaVuSans-58"/>
       <use x="321.875" xlink:href="#DejaVuSans-52"/>
       <use x="385.498047" xlink:href="#DejaVuSans-55"/>
      </g>
     </g>
    </g>
    <g id="xtick_14">
     <g id="line2d_14">
      <g>
       <use style="stroke:#000000;stroke-width:0.8;" x="443.460904" xlink:href="#m816d4a2e45" y="448.56"/>
      </g>
     </g>
     <g id="text_14">
      <!-- 11:43:36 -->
      <g transform="translate(446.220279 500.4725)rotate(-90)scale(0.1 -0.1)">
       <use xlink:href="#DejaVuSans-49"/>
       <use x="63.623047" xlink:href="#DejaVuSans-49"/>
       <use x="127.246094" xlink:href="#DejaVuSans-58"/>
       <use x="160.9375" xlink:href="#DejaVuSans-52"/>
       <use x="224.560547" xlink:href="#DejaVuSans-51"/>
       <use x="288.183594" xlink:href="#DejaVuSans-58"/>
       <use x="321.875" xlink:href="#DejaVuSans-51"/>
       <use x="385.498047" xlink:href="#DejaVuSans-54"/>
      </g>
     </g>
    </g>
    <g id="xtick_15">
     <g id="line2d_15">
      <g>
       <use style="stroke:#000000;stroke-width:0.8;" x="467.392582" xlink:href="#m816d4a2e45" y="448.56"/>
      </g>
     </g>
     <g id="text_15">
      <!-- 11:44:24 -->
      <g transform="translate(470.151957 500.4725)rotate(-90)scale(0.1 -0.1)">
       <use xlink:href="#DejaVuSans-49"/>
       <use x="63.623047" xlink:href="#DejaVuSans-49"/>
       <use x="127.246094" xlink:href="#DejaVuSans-58"/>
       <use x="160.9375" xlink:href="#DejaVuSans-52"/>
       <use x="224.560547" xlink:href="#DejaVuSans-52"/>
       <use x="288.183594" xlink:href="#DejaVuSans-58"/>
       <use x="321.875" xlink:href="#DejaVuSans-50"/>
       <use x="385.498047" xlink:href="#DejaVuSans-52"/>
      </g>
     </g>
    </g>
    <g id="xtick_16">
     <g id="line2d_16">
      <g>
       <use style="stroke:#000000;stroke-width:0.8;" x="491.32426" xlink:href="#m816d4a2e45" y="448.56"/>
      </g>
     </g>
     <g id="text_16">
      <!-- 11:45:12 -->
      <g transform="translate(494.083635 500.4725)rotate(-90)scale(0.1 -0.1)">
       <use xlink:href="#DejaVuSans-49"/>
       <use x="63.623047" xlink:href="#DejaVuSans-49"/>
       <use x="127.246094" xlink:href="#DejaVuSans-58"/>
       <use x="160.9375" xlink:href="#DejaVuSans-52"/>
       <use x="224.560547" xlink:href="#DejaVuSans-53"/>
       <use x="288.183594" xlink:href="#DejaVuSans-58"/>
       <use x="321.875" xlink:href="#DejaVuSans-49"/>
       <use x="385.498047" xlink:href="#DejaVuSans-50"/>
      </g>
     </g>
    </g>
    <g id="xtick_17">
     <g id="line2d_17">
      <g>
       <use style="stroke:#000000;stroke-width:0.8;" x="515.255938" xlink:href="#m816d4a2e45" y="448.56"/>
      </g>
     </g>
     <g id="text_17">
      <!-- 11:46:01 -->
      <g transform="translate(518.015313 500.4725)rotate(-90)scale(0.1 -0.1)">
       <use xlink:href="#DejaVuSans-49"/>
       <use x="63.623047" xlink:href="#DejaVuSans-49"/>
       <use x="127.246094" xlink:href="#DejaVuSans-58"/>
       <use x="160.9375" xlink:href="#DejaVuSans-52"/>
       <use x="224.560547" xlink:href="#DejaVuSans-54"/>
       <use x="288.183594" xlink:href="#DejaVuSans-58"/>
       <use x="321.875" xlink:href="#DejaVuSans-48"/>
       <use x="385.498047" xlink:href="#DejaVuSans-49"/>
      </g>
     </g>
    </g>
    <g id="xtick_18">
     <g id="line2d_18">
      <g>
       <use style="stroke:#000000;stroke-width:0.8;" x="539.187616" xlink:href="#m816d4a2e45" y="448.56"/>
      </g>
     </g>
     <g id="text_18">
      <!-- 11:46:49 -->
      <g transform="translate(541.946991 500.4725)rotate(-90)scale(0.1 -0.1)">
       <use xlink:href="#DejaVuSans-49"/>
       <use x="63.623047" xlink:href="#DejaVuSans-49"/>
       <use x="127.246094" xlink:href="#DejaVuSans-58"/>
       <use x="160.9375" xlink:href="#DejaVuSans-52"/>
       <use x="224.560547" xlink:href="#DejaVuSans-54"/>
       <use x="288.183594" xlink:href="#DejaVuSans-58"/>
       <use x="321.875" xlink:href="#DejaVuSans-52"/>
       <use x="385.498047" xlink:href="#DejaVuSans-57"/>
      </g>
     </g>
    </g>
    <g id="xtick_19">
     <g id="line2d_19">
      <g>
       <use style="stroke:#000000;stroke-width:0.8;" x="563.119294" xlink:href="#m816d4a2e45" y="448.56"/>
      </g>
     </g>
     <g id="text_19">
      <!-- 11:47:37 -->
      <g transform="translate(565.878669 500.4725)rotate(-90)scale(0.1 -0.1)">
       <use xlink:href="#DejaVuSans-49"/>
       <use x="63.623047" xlink:href="#DejaVuSans-49"/>
       <use x="127.246094" xlink:href="#DejaVuSans-58"/>
       <use x="160.9375" xlink:href="#DejaVuSans-52"/>
       <use x="224.560547" xlink:href="#DejaVuSans-55"/>
       <use x="288.183594" xlink:href="#DejaVuSans-58"/>
       <use x="321.875" xlink:href="#DejaVuSans-51"/>
       <use x="385.498047" xlink:href="#DejaVuSans-55"/>
      </g>
     </g>
    </g>
    <g id="xtick_20">
     <g id="line2d_20">
      <g>
       <use style="stroke:#000000;stroke-width:0.8;" x="587.050971" xlink:href="#m816d4a2e45" y="448.56"/>
      </g>
     </g>
     <g id="text_20">
      <!-- 11:48:26 -->
      <g transform="translate(589.810346 500.4725)rotate(-90)scale(0.1 -0.1)">
       <use xlink:href="#DejaVuSans-49"/>
       <use x="63.623047" xlink:href="#DejaVuSans-49"/>
       <use x="127.246094" xlink:href="#DejaVuSans-58"/>
       <use x="160.9375" xlink:href="#DejaVuSans-52"/>
       <use x="224.560547" xlink:href="#DejaVuSans-56"/>
       <use x="288.183594" xlink:href="#DejaVuSans-58"/>
       <use x="321.875" xlink:href="#DejaVuSans-50"/>
       <use x="385.498047" xlink:href="#DejaVuSans-54"/>
      </g>
     </g>
    </g>
    <g id="xtick_21">
     <g id="line2d_21">
      <g>
       <use style="stroke:#000000;stroke-width:0.8;" x="610.982649" xlink:href="#m816d4a2e45" y="448.56"/>
      </g>
     </g>
     <g id="text_21">
      <!-- 11:49:14 -->
      <g transform="translate(613.742024 500.4725)rotate(-90)scale(0.1 -0.1)">
       <use xlink:href="#DejaVuSans-49"/>
       <use x="63.623047" xlink:href="#DejaVuSans-49"/>
       <use x="127.246094" xlink:href="#DejaVuSans-58"/>
       <use x="160.9375" xlink:href="#DejaVuSans-52"/>
       <use x="224.560547" xlink:href="#DejaVuSans-57"/>
       <use x="288.183594" xlink:href="#DejaVuSans-58"/>
       <use x="321.875" xlink:href="#DejaVuSans-49"/>
       <use x="385.498047" xlink:href="#DejaVuSans-52"/>
      </g>
     </g>
    </g>
    <g id="text_22">
     <!-- timestamp -->
     <g transform="translate(354.264375 510.55125)scale(0.08 -0.08)">
      <defs>
       <path d="M 18.3125 70.21875 
L 18.3125 54.6875 
L 36.8125 54.6875 
L 36.8125 47.703125 
L 18.3125 47.703125 
L 18.3125 18.015625 
Q 18.3125 11.328125 20.140625 9.421875 
Q 21.96875 7.515625 27.59375 7.515625 
L 36.8125 7.515625 
L 36.8125 0 
L 27.59375 0 
Q 17.1875 0 13.234375 3.875 
Q 9.28125 7.765625 9.28125 18.015625 
L 9.28125 47.703125 
L 2.6875 47.703125 
L 2.6875 54.6875 
L 9.28125 54.6875 
L 9.28125 70.21875 
z
" id="DejaVuSans-116"/>
       <path d="M 9.421875 54.6875 
L 18.40625 54.6875 
L 18.40625 0 
L 9.421875 0 
z
M 9.421875 75.984375 
L 18.40625 75.984375 
L 18.40625 64.59375 
L 9.421875 64.59375 
z
" id="DejaVuSans-105"/>
       <path d="M 52 44.1875 
Q 55.375 50.25 60.0625 53.125 
Q 64.75 56 71.09375 56 
Q 79.640625 56 84.28125 50.015625 
Q 88.921875 44.046875 88.921875 33.015625 
L 88.921875 0 
L 79.890625 0 
L 79.890625 32.71875 
Q 79.890625 40.578125 77.09375 44.375 
Q 74.3125 48.1875 68.609375 48.1875 
Q 61.625 48.1875 57.5625 43.546875 
Q 53.515625 38.921875 53.515625 30.90625 
L 53.515625 0 
L 44.484375 0 
L 44.484375 32.71875 
Q 44.484375 40.625 41.703125 44.40625 
Q 38.921875 48.1875 33.109375 48.1875 
Q 26.21875 48.1875 22.15625 43.53125 
Q 18.109375 38.875 18.109375 30.90625 
L 18.109375 0 
L 9.078125 0 
L 9.078125 54.6875 
L 18.109375 54.6875 
L 18.109375 46.1875 
Q 21.1875 51.21875 25.484375 53.609375 
Q 29.78125 56 35.6875 56 
Q 41.65625 56 45.828125 52.96875 
Q 50 49.953125 52 44.1875 
z
" id="DejaVuSans-109"/>
       <path d="M 56.203125 29.59375 
L 56.203125 25.203125 
L 14.890625 25.203125 
Q 15.484375 15.921875 20.484375 11.0625 
Q 25.484375 6.203125 34.421875 6.203125 
Q 39.59375 6.203125 44.453125 7.46875 
Q 49.3125 8.734375 54.109375 11.28125 
L 54.109375 2.78125 
Q 49.265625 0.734375 44.1875 -0.34375 
Q 39.109375 -1.421875 33.890625 -1.421875 
Q 20.796875 -1.421875 13.15625 6.1875 
Q 5.515625 13.8125 5.515625 26.8125 
Q 5.515625 40.234375 12.765625 48.109375 
Q 20.015625 56 32.328125 56 
Q 43.359375 56 49.78125 48.890625 
Q 56.203125 41.796875 56.203125 29.59375 
z
M 47.21875 32.234375 
Q 47.125 39.59375 43.09375 43.984375 
Q 39.0625 48.390625 32.421875 48.390625 
Q 24.90625 48.390625 20.390625 44.140625 
Q 15.875 39.890625 15.1875 32.171875 
z
" id="DejaVuSans-101"/>
       <path d="M 44.28125 53.078125 
L 44.28125 44.578125 
Q 40.484375 46.53125 36.375 47.5 
Q 32.28125 48.484375 27.875 48.484375 
Q 21.1875 48.484375 17.84375 46.4375 
Q 14.5 44.390625 14.5 40.28125 
Q 14.5 37.15625 16.890625 35.375 
Q 19.28125 33.59375 26.515625 31.984375 
L 29.59375 31.296875 
Q 39.15625 29.25 43.1875 25.515625 
Q 47.21875 21.78125 47.21875 15.09375 
Q 47.21875 7.46875 41.1875 3.015625 
Q 35.15625 -1.421875 24.609375 -1.421875 
Q 20.21875 -1.421875 15.453125 -0.5625 
Q 10.6875 0.296875 5.421875 2 
L 5.421875 11.28125 
Q 10.40625 8.6875 15.234375 7.390625 
Q 20.0625 6.109375 24.8125 6.109375 
Q 31.15625 6.109375 34.5625 8.28125 
Q 37.984375 10.453125 37.984375 14.40625 
Q 37.984375 18.0625 35.515625 20.015625 
Q 33.0625 21.96875 24.703125 23.78125 
L 21.578125 24.515625 
Q 13.234375 26.265625 9.515625 29.90625 
Q 5.8125 33.546875 5.8125 39.890625 
Q 5.8125 47.609375 11.28125 51.796875 
Q 16.75 56 26.8125 56 
Q 31.78125 56 36.171875 55.265625 
Q 40.578125 54.546875 44.28125 53.078125 
z
" id="DejaVuSans-115"/>
       <path d="M 34.28125 27.484375 
Q 23.390625 27.484375 19.1875 25 
Q 14.984375 22.515625 14.984375 16.5 
Q 14.984375 11.71875 18.140625 8.90625 
Q 21.296875 6.109375 26.703125 6.109375 
Q 34.1875 6.109375 38.703125 11.40625 
Q 43.21875 16.703125 43.21875 25.484375 
L 43.21875 27.484375 
z
M 52.203125 31.203125 
L 52.203125 0 
L 43.21875 0 
L 43.21875 8.296875 
Q 40.140625 3.328125 35.546875 0.953125 
Q 30.953125 -1.421875 24.3125 -1.421875 
Q 15.921875 -1.421875 10.953125 3.296875 
Q 6 8.015625 6 15.921875 
Q 6 25.140625 12.171875 29.828125 
Q 18.359375 34.515625 30.609375 34.515625 
L 43.21875 34.515625 
L 43.21875 35.40625 
Q 43.21875 41.609375 39.140625 45 
Q 35.0625 48.390625 27.6875 48.390625 
Q 23 48.390625 18.546875 47.265625 
Q 14.109375 46.140625 10.015625 43.890625 
L 10.015625 52.203125 
Q 14.9375 54.109375 19.578125 55.046875 
Q 24.21875 56 28.609375 56 
Q 40.484375 56 46.34375 49.84375 
Q 52.203125 43.703125 52.203125 31.203125 
z
" id="DejaVuSans-97"/>
       <path d="M 18.109375 8.203125 
L 18.109375 -20.796875 
L 9.078125 -20.796875 
L 9.078125 54.6875 
L 18.109375 54.6875 
L 18.109375 46.390625 
Q 20.953125 51.265625 25.265625 53.625 
Q 29.59375 56 35.59375 56 
Q 45.5625 56 51.78125 48.09375 
Q 58.015625 40.1875 58.015625 27.296875 
Q 58.015625 14.40625 51.78125 6.484375 
Q 45.5625 -1.421875 35.59375 -1.421875 
Q 29.59375 -1.421875 25.265625 0.953125 
Q 20.953125 3.328125 18.109375 8.203125 
z
M 48.6875 27.296875 
Q 48.6875 37.203125 44.609375 42.84375 
Q 40.53125 48.484375 33.40625 48.484375 
Q 26.265625 48.484375 22.1875 42.84375 
Q 18.109375 37.203125 18.109375 27.296875 
Q 18.109375 17.390625 22.1875 11.75 
Q 26.265625 6.109375 33.40625 6.109375 
Q 40.53125 6.109375 44.609375 11.75 
Q 48.6875 17.390625 48.6875 27.296875 
z
" id="DejaVuSans-112"/>
      </defs>
      <use xlink:href="#DejaVuSans-116"/>
      <use x="39.208984" xlink:href="#DejaVuSans-105"/>
      <use x="66.992188" xlink:href="#DejaVuSans-109"/>
      <use x="164.404297" xlink:href="#DejaVuSans-101"/>
      <use x="225.927734" xlink:href="#DejaVuSans-115"/>
      <use x="278.027344" xlink:href="#DejaVuSans-116"/>
      <use x="317.236328" xlink:href="#DejaVuSans-97"/>
      <use x="378.515625" xlink:href="#DejaVuSans-109"/>
      <use x="475.927734" xlink:href="#DejaVuSans-112"/>
     </g>
    </g>
   </g>
   <g id="matplotlib.axis_2">
    <g id="ytick_1">
     <g id="line2d_22">
      <defs>
       <path d="M 0 0 
L -3.5 0 
" id="m5a3bc565ac" style="stroke:#000000;stroke-width:0.8;"/>
      </defs>
      <g>
       <use style="stroke:#000000;stroke-width:0.8;" x="108" xlink:href="#m5a3bc565ac" y="418.001497"/>
      </g>
     </g>
     <g id="text_23">
      <!-- 13000 -->
      <g transform="translate(69.1875 421.800716)scale(0.1 -0.1)">
       <use xlink:href="#DejaVuSans-49"/>
       <use x="63.623047" xlink:href="#DejaVuSans-51"/>
       <use x="127.246094" xlink:href="#DejaVuSans-48"/>
       <use x="190.869141" xlink:href="#DejaVuSans-48"/>
       <use x="254.492188" xlink:href="#DejaVuSans-48"/>
      </g>
     </g>
    </g>
    <g id="ytick_2">
     <g id="line2d_23">
      <g>
       <use style="stroke:#000000;stroke-width:0.8;" x="108" xlink:href="#m5a3bc565ac" y="335.255082"/>
      </g>
     </g>
     <g id="text_24">
      <!-- 13200 -->
      <g transform="translate(69.1875 339.054301)scale(0.1 -0.1)">
       <use xlink:href="#DejaVuSans-49"/>
       <use x="63.623047" xlink:href="#DejaVuSans-51"/>
       <use x="127.246094" xlink:href="#DejaVuSans-50"/>
       <use x="190.869141" xlink:href="#DejaVuSans-48"/>
       <use x="254.492188" xlink:href="#DejaVuSans-48"/>
      </g>
     </g>
    </g>
    <g id="ytick_3">
     <g id="line2d_24">
      <g>
       <use style="stroke:#000000;stroke-width:0.8;" x="108" xlink:href="#m5a3bc565ac" y="252.508666"/>
      </g>
     </g>
     <g id="text_25">
      <!-- 13400 -->
      <g transform="translate(69.1875 256.307885)scale(0.1 -0.1)">
       <use xlink:href="#DejaVuSans-49"/>
       <use x="63.623047" xlink:href="#DejaVuSans-51"/>
       <use x="127.246094" xlink:href="#DejaVuSans-52"/>
       <use x="190.869141" xlink:href="#DejaVuSans-48"/>
       <use x="254.492188" xlink:href="#DejaVuSans-48"/>
      </g>
     </g>
    </g>
    <g id="ytick_4">
     <g id="line2d_25">
      <g>
       <use style="stroke:#000000;stroke-width:0.8;" x="108" xlink:href="#m5a3bc565ac" y="169.762251"/>
      </g>
     </g>
     <g id="text_26">
      <!-- 13600 -->
      <g transform="translate(69.1875 173.56147)scale(0.1 -0.1)">
       <use xlink:href="#DejaVuSans-49"/>
       <use x="63.623047" xlink:href="#DejaVuSans-51"/>
       <use x="127.246094" xlink:href="#DejaVuSans-54"/>
       <use x="190.869141" xlink:href="#DejaVuSans-48"/>
       <use x="254.492188" xlink:href="#DejaVuSans-48"/>
      </g>
     </g>
    </g>
    <g id="ytick_5">
     <g id="line2d_26">
      <g>
       <use style="stroke:#000000;stroke-width:0.8;" x="108" xlink:href="#m5a3bc565ac" y="87.015835"/>
      </g>
     </g>
     <g id="text_27">
      <!-- 13800 -->
      <g transform="translate(69.1875 90.815054)scale(0.1 -0.1)">
       <use xlink:href="#DejaVuSans-49"/>
       <use x="63.623047" xlink:href="#DejaVuSans-51"/>
       <use x="127.246094" xlink:href="#DejaVuSans-56"/>
       <use x="190.869141" xlink:href="#DejaVuSans-48"/>
       <use x="254.492188" xlink:href="#DejaVuSans-48"/>
      </g>
     </g>
    </g>
    <g id="text_28">
     <!-- MB -->
     <g transform="translate(63.52375 260.715625)rotate(-90)scale(0.08 -0.08)">
      <defs>
       <path d="M 9.8125 72.90625 
L 24.515625 72.90625 
L 43.109375 23.296875 
L 61.8125 72.90625 
L 76.515625 72.90625 
L 76.515625 0 
L 66.890625 0 
L 66.890625 64.015625 
L 48.09375 14.015625 
L 38.1875 14.015625 
L 19.390625 64.015625 
L 19.390625 0 
L 9.8125 0 
z
" id="DejaVuSans-77"/>
       <path d="M 19.671875 34.8125 
L 19.671875 8.109375 
L 35.5 8.109375 
Q 43.453125 8.109375 47.28125 11.40625 
Q 51.125 14.703125 51.125 21.484375 
Q 51.125 28.328125 47.28125 31.5625 
Q 43.453125 34.8125 35.5 34.8125 
z
M 19.671875 64.796875 
L 19.671875 42.828125 
L 34.28125 42.828125 
Q 41.5 42.828125 45.03125 45.53125 
Q 48.578125 48.25 48.578125 53.8125 
Q 48.578125 59.328125 45.03125 62.0625 
Q 41.5 64.796875 34.28125 64.796875 
z
M 9.8125 72.90625 
L 35.015625 72.90625 
Q 46.296875 72.90625 52.390625 68.21875 
Q 58.5 63.53125 58.5 54.890625 
Q 58.5 48.1875 55.375 44.234375 
Q 52.25 40.28125 46.1875 39.3125 
Q 53.46875 37.75 57.5 32.78125 
Q 61.53125 27.828125 61.53125 20.40625 
Q 61.53125 10.640625 54.890625 5.3125 
Q 48.25 0 35.984375 0 
L 9.8125 0 
z
" id="DejaVuSans-66"/>
      </defs>
      <use xlink:href="#DejaVuSans-77"/>
      <use x="86.279297" xlink:href="#DejaVuSans-66"/>
     </g>
    </g>
   </g>
   <g id="line2d_27">
    <path clip-path="url(#pc5d2e17c53)" d="M 132.349091 79.546892 
L 132.905642 78.992743 
L 133.462192 78.991048 
L 134.018743 82.166816 
L 134.575294 80.514536 
L 135.131844 81.394057 
L 135.688395 81.055128 
L 136.801496 78.12 
L 137.358047 79.548587 
L 137.914597 79.580785 
L 138.471148 82.07361 
L 139.027699 91.206061 
L 139.584249 112.64673 
L 141.253901 237.128689 
L 141.810452 258.996409 
L 142.923553 326.931401 
L 143.480104 354.806643 
L 144.593205 390.234925 
L 145.149756 393.307319 
L 145.706306 393.115824 
L 146.262857 391.848228 
L 146.819408 390.055292 
L 147.375958 392.068532 
L 147.932509 391.775358 
L 148.48906 392.010914 
L 149.04561 389.723141 
L 149.602161 390.243398 
L 150.158712 392.687078 
L 150.715262 391.197484 
L 151.271813 391.609283 
L 151.828364 390.428114 
L 152.384914 387.713291 
L 152.941465 390.394221 
L 154.054566 389.572318 
L 154.611117 388.348783 
L 155.167668 390.821272 
L 155.724218 390.778906 
L 156.280769 390.561991 
L 157.39387 388.657209 
L 157.950421 391.746549 
L 158.506971 391.932961 
L 159.063522 391.897373 
L 159.620073 390.538266 
L 160.176623 392.082089 
L 160.733174 391.999052 
L 161.289725 389.938362 
L 161.846275 390.04343 
L 162.402826 389.401159 
L 162.959377 393.936033 
L 163.515927 392.726055 
L 164.072478 392.571842 
L 164.629029 391.907541 
L 165.185579 388.199654 
L 165.74213 391.985495 
L 166.298681 391.351697 
L 166.855231 391.083943 
L 167.411782 388.416569 
L 167.968332 391.243239 
L 168.524883 391.707573 
L 169.081434 396.910138 
L 169.637984 397.577828 
L 170.194535 395.956052 
L 170.751086 397.415142 
L 171.307636 392.924329 
L 171.864187 391.771969 
L 172.420738 390.046819 
L 172.977288 395.701855 
L 173.533839 398.972523 
L 174.09039 394.113971 
L 174.64694 394.23768 
L 175.203491 393.30054 
L 175.760042 393.54118 
L 176.316592 391.88551 
L 176.873143 392.610819 
L 177.429694 392.776895 
L 177.986244 391.095805 
L 178.542795 392.649796 
L 179.099345 392.966695 
L 179.655896 391.529635 
L 180.212447 391.033103 
L 180.768997 392.653185 
L 181.882099 393.571684 
L 182.438649 391.849923 
L 182.9952 390.602663 
L 183.551751 392.475247 
L 184.108301 392.641323 
L 184.664852 392.331203 
L 185.777953 389.965476 
L 186.334504 394.171589 
L 186.891055 395.388345 
L 187.447605 393.61405 
L 188.004156 393.641164 
L 188.560706 392.827734 
L 189.117257 393.178526 
L 189.673808 392.839597 
L 190.230358 391.60081 
L 190.786909 390.846692 
L 191.34346 392.326119 
L 191.90001 392.558285 
L 192.456561 392.127845 
L 193.013112 390.967012 
L 194.126213 393.073458 
L 194.682764 397.85575 
L 195.239314 398.272633 
L 195.795865 395.932327 
L 196.352416 397.565966 
L 196.908966 394.618975 
L 197.465517 394.413923 
L 198.022068 392.698941 
L 198.578618 392.22444 
L 199.135169 395.26633 
L 199.691719 395.654404 
L 200.24827 393.322571 
L 200.804821 393.447975 
L 201.361371 392.05328 
L 201.917922 393.302235 
L 202.474473 392.631155 
L 203.031023 392.583705 
L 203.587574 391.50591 
L 204.144125 392.049891 
L 204.700675 391.744855 
L 205.257226 391.731298 
L 205.813777 390.592495 
L 206.370327 391.436429 
L 206.926878 393.571684 
L 208.039979 392.422713 
L 208.59653 390.721288 
L 209.153081 393.144633 
L 209.709631 392.966695 
L 210.266182 393.268342 
L 210.822732 390.846692 
L 211.379283 391.258491 
L 211.935834 393.817408 
L 212.492384 393.309014 
L 213.048935 392.326119 
L 213.605486 391.614367 
L 214.162036 390.429809 
L 214.718587 392.217661 
L 215.275138 392.532865 
L 215.831688 391.282216 
L 216.388239 391.50252 
L 216.94479 393.612355 
L 217.50134 394.268184 
L 218.057891 394.136001 
L 218.614442 392.285447 
L 219.170992 390.046819 
L 219.727543 392.600651 
L 220.284094 392.651491 
L 220.840644 390.839914 
L 221.953745 391.475406 
L 222.510296 392.536255 
L 223.066847 392.375263 
L 223.623397 392.892131 
L 224.179948 391.187316 
L 224.736499 394.47493 
L 225.293049 394.42748 
L 225.8496 394.652868 
L 226.406151 395.079919 
L 226.962701 390.712815 
L 227.519252 393.568295 
L 228.075803 393.203946 
L 228.632353 393.307319 
L 229.188904 392.141402 
L 230.302005 393.42425 
L 230.858556 392.893825 
L 231.415106 392.146486 
L 231.971657 390.71112 
L 232.528208 393.305624 
L 233.084758 393.378494 
L 233.641309 392.41763 
L 234.19786 391.043271 
L 234.75441 392.683689 
L 235.310961 393.42425 
L 235.867512 392.951443 
L 236.424062 391.971937 
L 236.980613 391.671985 
L 237.537164 394.976546 
L 238.093714 394.464763 
L 238.650265 395.252773 
L 239.206816 394.242764 
L 239.763366 391.627924 
L 240.319917 394.459679 
L 240.876468 395.078225 
L 241.433018 393.576768 
L 242.546119 393.869942 
L 243.10267 395.461215 
L 243.659221 400.009646 
L 244.215771 398.609868 
L 244.772322 397.925231 
L 245.328873 396.198386 
L 245.885423 396.49156 
L 246.441974 396.594933 
L 246.998525 394.725738 
L 247.555075 393.266647 
L 248.111626 396.835573 
L 248.668177 396.457667 
L 249.224727 395.671351 
L 249.781278 393.788599 
L 250.337829 394.4529 
L 250.894379 394.468152 
L 251.45093 394.074994 
L 252.007481 392.827734 
L 252.564031 392.726055 
L 253.120582 396.905054 
L 253.677132 396.496644 
L 254.233683 396.289897 
L 254.790234 395.659488 
L 255.346784 394.052963 
L 255.903335 395.117202 
L 257.016436 394.818944 
L 257.572987 393.754706 
L 258.129538 396.167882 
L 258.686088 397.318547 
L 259.79919 396.518674 
L 260.35574 393.878415 
L 261.468842 396.996565 
L 262.025392 394.868088 
L 262.581943 395.02908 
L 263.695044 397.654087 
L 264.251595 397.974376 
L 264.808145 398.109947 
L 265.364696 397.091465 
L 265.921247 396.752535 
L 266.477797 396.738978 
L 267.590899 397.174502 
L 268.147449 395.761167 
L 268.704 397.088076 
L 269.817101 396.278034 
L 270.373652 394.881646 
L 270.930203 397.062656 
L 271.486753 397.332105 
L 272.043304 397.044015 
L 272.599855 394.644395 
L 273.156405 394.390198 
L 273.712956 397.260929 
L 274.269506 397.04232 
L 275.382608 395.030775 
L 275.939158 395.950968 
L 276.495709 396.084845 
L 277.05226 396.088234 
L 277.60881 395.595092 
L 278.165361 393.603882 
L 278.721912 396.822016 
L 279.278462 397.371081 
L 279.835013 396.677971 
L 280.391564 396.738978 
L 280.948114 395.671351 
L 281.504665 396.416995 
L 282.061216 396.378019 
L 282.617766 395.061278 
L 283.174317 393.161579 
L 283.730868 394.656258 
L 284.287418 398.087917 
L 284.843969 397.737125 
L 285.400519 397.198228 
L 285.95707 396.018754 
L 286.513621 397.250762 
L 287.070171 396.798291 
L 287.626722 396.850825 
L 288.183273 396.515285 
L 288.739823 395.781503 
L 289.296374 396.879634 
L 289.852925 397.059267 
L 290.409475 395.798449 
L 290.966026 394.829112 
L 291.522577 398.472602 
L 292.079127 397.189754 
L 292.635678 396.589849 
L 293.192229 395.307002 
L 293.748779 394.815554 
L 294.30533 397.111801 
L 294.861881 396.87455 
L 295.418431 395.598481 
L 295.974982 396.320401 
L 296.531532 398.947103 
L 297.088083 399.040308 
L 297.644634 398.257382 
L 298.201184 397.877781 
L 298.757735 396.894886 
L 299.314286 400.20792 
L 299.870836 399.502947 
L 300.427387 400.074043 
L 300.983938 397.393112 
L 301.540488 398.372618 
L 302.097039 399.00811 
L 302.65359 399.082675 
L 303.21014 398.352282 
L 303.766691 398.470907 
L 304.323242 398.259076 
L 304.879792 398.709852 
L 305.436343 398.299748 
L 305.992894 398.221794 
L 306.549444 396.386492 
L 307.105995 399.950334 
L 307.662545 399.857128 
L 308.219096 399.574122 
L 308.775647 396.974534 
L 309.332197 397.948956 
L 309.888748 401.100999 
L 310.445299 400.458728 
L 311.001849 400.209615 
L 311.5584 397.7134 
L 312.671501 400.231645 
L 313.784603 398.126894 
L 314.341153 398.170955 
L 314.897704 397.654087 
L 315.454255 396.374629 
L 316.010805 396.542399 
L 316.567356 395.290055 
L 317.123906 396.006891 
L 317.680457 404.232706 
L 318.237008 403.693808 
L 318.793558 403.900555 
L 319.350109 396.745757 
L 319.90666 398.203153 
L 320.46321 398.835256 
L 321.019761 398.538693 
L 321.576312 402.358426 
L 322.132862 401.846643 
L 322.689413 404.644505 
L 323.245964 400.353659 
L 323.802514 400.011341 
L 324.359065 399.075896 
L 324.915616 400.44856 
L 325.472166 398.237046 
L 326.028717 397.848972 
L 326.585268 397.909979 
L 327.141818 396.616964 
L 327.698369 399.796121 
L 328.254919 399.796121 
L 328.81147 399.665633 
L 329.368021 398.555639 
L 329.924571 396.474613 
L 330.481122 399.424993 
L 331.594223 399.045392 
L 332.150774 396.976229 
L 332.707325 398.521747 
L 333.263875 398.670875 
L 333.820426 398.245519 
L 334.376977 398.499716 
L 334.933527 397.116885 
L 335.490078 399.896105 
L 336.046629 400.084211 
L 336.603179 398.357366 
L 337.15973 398.313305 
L 337.716281 399.125041 
L 338.272831 400.594299 
L 338.829382 400.072348 
L 339.385932 400.387552 
L 339.942483 399.060644 
L 340.499034 403.837853 
L 341.055584 404.049684 
L 341.612135 403.914112 
L 342.168686 403.053232 
L 342.725236 400.307904 
L 343.281787 401.23996 
L 344.394888 401.121334 
L 344.951439 400.158775 
L 345.50799 400.526513 
L 346.06454 402.155069 
L 346.621091 401.582278 
L 347.177642 401.385699 
L 347.734192 399.875769 
L 348.290743 399.650381 
L 348.847294 399.818151 
L 349.403844 399.41652 
L 349.960395 398.238741 
L 350.516945 397.925231 
L 351.073496 400.199447 
L 351.630047 400.084211 
L 352.186597 400.082516 
L 352.743148 398.65054 
L 353.299699 400.743428 
L 354.969351 401.458569 
L 355.525901 400.268927 
L 356.082452 400.146913 
L 356.639003 400.258759 
L 357.195553 406.195106 
L 357.752104 405.346088 
L 358.308655 405.308806 
L 358.865205 405.615537 
L 359.421756 400.082516 
L 359.978306 400.170638 
L 360.534857 398.882706 
L 361.091408 401.875452 
L 361.647958 399.794426 
L 362.204509 400.257065 
L 362.76106 398.877622 
L 363.31761 399.336872 
L 363.874161 400.526513 
L 364.430712 400.533292 
L 364.987262 401.258601 
L 365.543813 400.219782 
L 366.100364 400.828161 
L 367.213465 399.736808 
L 367.770016 398.867454 
L 368.326566 398.543777 
L 368.883117 400.990847 
L 369.439668 400.933229 
L 369.996218 401.11964 
L 370.552769 397.76085 
L 371.109319 397.582912 
L 371.66587 399.509725 
L 372.222421 399.001332 
L 372.778971 398.882706 
L 373.335522 398.421762 
L 373.892073 403.234559 
L 374.448623 403.502313 
L 375.005174 402.139817 
L 375.561725 401.100999 
L 376.118275 401.668705 
L 376.674826 401.02474 
L 377.231377 401.483989 
L 377.787927 401.387394 
L 378.344478 400.1825 
L 378.901029 403.644663 
L 379.457579 401.738186 
L 380.01413 401.443317 
L 380.570681 400.679032 
L 381.127231 399.662244 
L 381.683782 401.434844 
L 382.240332 402.104229 
L 382.796883 401.875452 
L 383.353434 400.197752 
L 383.909984 401.899177 
L 384.466535 403.958173 
L 385.023086 404.530963 
L 386.136187 401.844948 
L 386.692738 404.251347 
L 387.249288 404.983434 
L 387.805839 403.668388 
L 388.36239 403.561625 
L 388.91894 402.902408 
L 389.475491 402.444853 
L 390.032042 402.466884 
L 390.588592 401.763605 
L 391.145143 402.958331 
L 391.701694 408.476101 
L 392.258244 408.421872 
L 392.814795 408.04905 
L 393.371345 406.835683 
L 393.927896 402.073726 
L 394.484447 406.573012 
L 395.040997 406.581486 
L 395.597548 405.185097 
L 396.154099 403.017644 
L 396.710649 402.832927 
L 397.2672 404.837694 
L 397.823751 404.21237 
L 398.380301 403.03798 
L 398.936852 403.30065 
L 399.493403 406.605211 
L 400.049953 406.603516 
L 400.606504 407.599968 
L 401.163055 406.151045 
L 401.719605 405.130868 
L 402.276156 406.171381 
L 402.832706 406.169687 
L 403.389257 405.135952 
L 403.945808 404.891923 
L 404.502358 407.322046 
L 405.058909 408.077859 
L 405.61546 408.31172 
L 406.17201 406.820431 
L 406.728561 406.144267 
L 407.285112 406.908552 
L 407.841662 405.14612 
L 408.398213 405.020716 
L 408.954764 404.000539 
L 409.511314 404.231011 
L 410.067865 405.127479 
L 410.624416 404.922427 
L 411.180966 405.364729 
L 411.737517 406.015474 
L 412.294068 409.650491 
L 412.850618 408.043966 
L 413.963719 408.147339 
L 414.52027 405.500301 
L 415.076821 407.66606 
L 415.633371 407.847387 
L 416.189922 407.905005 
L 416.746473 406.956003 
L 417.303023 407.618609 
L 417.859574 409.838596 
L 418.416125 409.501362 
L 418.972675 408.737076 
L 419.529226 406.68147 
L 420.085777 407.152582 
L 420.642327 407.284764 
L 421.198878 407.203421 
L 421.755429 406.323899 
L 422.311979 406.03242 
L 422.86853 406.793317 
L 423.425081 405.427431 
L 423.981631 404.456399 
L 424.538182 404.537742 
L 425.094732 404.985129 
L 425.651283 407.484732 
L 426.207834 407.205116 
L 426.764384 407.240703 
L 427.320935 405.878207 
L 427.877486 407.898226 
L 428.434036 407.788074 
L 428.990587 408.135477 
L 429.547138 406.484891 
L 430.103688 407.616915 
L 430.660239 409.353928 
L 431.21679 409.492889 
L 431.77334 408.972632 
L 432.329891 407.25426 
L 432.886442 407.178001 
L 433.442992 407.708426 
L 434.556094 407.362718 
L 435.112644 406.474723 
L 435.669195 408.079553 
L 436.225745 407.888058 
L 436.782296 406.886522 
L 437.338847 405.290165 
L 437.895397 409.320035 
L 438.451948 408.843839 
L 439.008499 409.447133 
L 439.565049 406.206969 
L 440.1216 405.868039 
L 440.678151 407.932119 
L 441.234701 408.196484 
L 441.791252 407.684701 
L 442.347803 406.230694 
L 442.904353 406.786538 
L 443.460904 408.684542 
L 444.574005 408.467627 
L 445.130556 407.315268 
L 445.687106 407.486427 
L 446.243657 408.535413 
L 446.800208 407.647418 
L 447.356758 407.720288 
L 447.913309 406.496753 
L 448.46986 407.406779 
L 449.582961 406.449303 
L 450.696062 404.852946 
L 451.252613 408.54897 
L 451.809164 408.042271 
L 452.365714 407.888058 
L 452.922265 405.798559 
L 453.478816 409.138707 
L 454.035366 409.591178 
L 454.591917 409.623376 
L 455.148468 407.467786 
L 455.705018 407.4949 
L 456.261569 411.611197 
L 456.818119 410.882499 
L 457.37467 408.915014 
L 457.931221 409.069227 
L 458.487771 407.088185 
L 459.044322 407.474564 
L 459.600873 407.306794 
L 460.157423 407.266123 
L 460.713974 406.213747 
L 461.270525 408.76758 
L 461.827075 408.947212 
L 462.383626 408.731992 
L 462.940177 408.770969 
L 463.496727 405.947688 
L 464.053278 408.628619 
L 464.609829 408.413399 
L 465.166379 407.681311 
L 465.72293 411.814554 
L 466.279481 413.285508 
L 466.836031 414.383639 
L 467.392582 413.660024 
L 467.949132 409.542033 
L 468.505683 408.411704 
L 469.062234 411.299382 
L 469.618784 415.834256 
L 470.175335 416.041003 
L 470.731886 415.137756 
L 471.288436 413.876939 
L 471.844987 410.147022 
L 472.401538 410.616439 
L 472.958088 413.590544 
L 473.514639 413.548178 
L 474.07119 415.186901 
L 474.62774 410.731675 
L 475.184291 410.857079 
L 475.740842 407.977874 
L 476.297392 408.52694 
L 476.853943 410.167358 
L 477.410494 410.180915 
L 477.967044 409.089563 
L 478.523595 409.031945 
L 479.080145 408.233766 
L 479.636696 409.952138 
L 480.749797 409.286142 
L 481.306348 408.587947 
L 481.862899 408.499826 
L 482.976 408.094805 
L 483.532551 408.111752 
L 484.089101 407.03904 
L 484.645652 410.723202 
L 485.202203 408.881121 
L 485.758753 407.623693 
L 486.315304 406.988201 
L 486.871855 408.35917 
L 487.428405 408.328666 
L 487.984956 408.598115 
L 489.098057 407.764349 
L 489.654608 411.887424 
L 490.211158 410.374105 
L 490.767709 410.174136 
L 491.32426 409.045502 
L 491.88081 408.269354 
L 492.437361 409.823345 
L 492.993912 409.865711 
L 493.550462 408.52694 
L 494.107013 408.557444 
L 495.776665 410.070763 
L 496.333216 406.766202 
L 496.889766 406.696722 
L 497.446317 409.520003 
L 498.002868 408.765885 
L 498.559418 408.931961 
L 499.115969 405.644346 
L 499.672519 405.995138 
L 500.22907 408.342224 
L 500.785621 408.447292 
L 501.342171 408.826892 
L 501.898722 408.14395 
L 502.455273 409.738612 
L 503.011823 410.42325 
L 503.568374 410.823186 
L 504.681475 407.193253 
L 505.238026 410.523234 
L 505.794577 410.801156 
L 506.351127 410.762179 
L 506.907678 408.948907 
L 507.464229 409.623376 
L 508.020779 411.082467 
L 508.57733 409.177684 
L 509.133881 407.947371 
L 509.690431 407.613525 
L 510.246982 410.358853 
L 510.803532 410.355464 
L 511.360083 409.755559 
L 511.916634 410.424944 
L 513.029735 408.476101 
L 514.142836 408.628619 
L 514.699387 406.815347 
L 515.255938 408.157507 
L 515.812488 410.245312 
L 516.369039 409.857238 
L 517.48214 408.194789 
L 518.038691 410.316487 
L 518.595242 410.379189 
L 519.151792 409.267501 
L 519.708343 407.237314 
L 520.264894 405.934131 
L 520.821444 405.785002 
L 521.377995 404.558078 
L 521.934545 403.99715 
L 522.491096 403.026117 
L 523.047647 404.334384 
L 523.604197 405.152899 
L 524.160748 405.190181 
L 524.717299 405.002075 
L 525.273849 403.763288 
L 525.8304 404.436063 
L 526.386951 403.153216 
L 526.943501 401.445012 
L 527.500052 400.946786 
L 528.613153 403.749731 
L 529.169704 403.51587 
L 529.726255 403.098987 
L 530.282805 401.534828 
L 530.839356 403.27523 
L 531.952457 403.344711 
L 532.509008 402.873599 
L 533.065558 401.40773 
L 533.622109 403.192193 
L 534.17866 403.343016 
L 534.73521 401.966963 
L 535.291761 401.780552 
L 535.848312 401.799193 
L 536.404862 403.065094 
L 536.961413 402.368594 
L 537.517964 402.458411 
L 538.074514 401.073884 
L 538.631065 401.95849 
L 539.744166 401.724629 
L 540.300717 405.488439 
L 540.857268 404.49707 
L 541.413818 407.737235 
L 541.970369 407.849081 
L 542.526919 401.389089 
L 543.08347 401.431455 
L 543.640021 402.721081 
L 544.196571 402.922744 
L 544.753122 401.433149 
L 545.309673 401.168784 
L 545.866223 400.070654 
L 546.422774 402.958331 
L 546.979325 402.687188 
L 547.535875 402.080504 
L 548.092426 401.017961 
L 548.648977 401.724629 
L 549.205527 403.737869 
L 549.762078 403.698892 
L 550.318629 400.560406 
L 550.875179 400.355354 
L 551.43173 403.805655 
L 551.988281 404.232706 
L 552.544831 404.181866 
L 553.101382 403.093903 
L 553.657932 399.628351 
L 554.214483 402.111008 
L 554.771034 401.934765 
L 555.327584 399.713083 
L 555.884135 398.423457 
L 556.440686 401.561943 
L 556.997236 401.716155 
L 557.553787 400.582437 
L 558.110338 399.948639 
L 558.666888 397.245678 
L 559.223439 399.196216 
L 560.33654 397.950651 
L 560.893091 396.10857 
L 561.449642 398.369228 
L 562.006192 398.616647 
L 562.562743 397.327021 
L 563.119294 397.615111 
L 563.675844 395.761167 
L 564.232395 397.732041 
L 564.788945 397.650698 
L 565.345496 397.171113 
L 566.458597 389.809568 
L 567.015148 391.690626 
L 568.128249 392.085479 
L 568.6848 391.087332 
L 569.241351 393.580157 
L 569.797901 393.678447 
L 570.354452 392.641323 
L 570.911003 391.277132 
L 571.467553 391.222904 
L 572.024104 393.810629 
L 572.580655 394.071605 
L 573.137205 392.812482 
L 573.693756 392.329508 
L 574.250306 392.834513 
L 574.806857 393.115824 
L 575.363408 392.195631 
L 575.919958 390.868723 
L 576.476509 389.065619 
L 577.03306 393.753011 
L 577.58961 393.727591 
L 578.146161 393.576768 
L 578.702712 390.223062 
L 579.259262 390.13833 
L 579.815813 391.388979 
L 580.372364 389.965476 
L 580.928914 390.050208 
L 581.485465 388.79617 
L 582.042016 392.941275 
L 582.598566 393.25648 
L 583.155117 392.975168 
L 583.711668 391.619451 
L 584.824769 391.960075 
L 585.381319 393.529318 
L 585.93787 392.34137 
L 586.494421 392.305783 
L 587.050971 394.056353 
L 587.607522 395.21888 
L 588.164073 394.576609 
L 589.277174 391.755023 
L 589.833725 393.20564 
L 590.390275 393.273426 
L 590.946826 392.919245 
L 591.503377 391.519467 
L 592.059927 393.197167 
L 592.616478 395.673046 
L 593.173029 395.027385 
L 593.729579 394.776578 
L 594.28613 393.285289 
L 594.842681 393.480173 
L 595.399231 393.149717 
L 596.512332 393.483562 
L 597.068883 391.86348 
L 597.625434 393.014145 
L 598.181984 392.554896 
L 598.738535 391.922793 
L 599.851636 387.925121 
L 600.408187 389.268976 
L 600.964738 388.706353 
L 601.521288 387.004928 
L 602.077839 391.883816 
L 602.63439 401.738186 
L 603.19094 405.776529 
L 603.747491 404.490292 
L 604.304042 401.71785 
L 604.860592 401.563637 
L 605.417143 404.381834 
L 605.973694 401.52805 
L 606.530244 400.316377 
L 607.086795 401.436539 
L 607.643345 403.939532 
L 608.756447 411.051963 
L 609.312997 411.848447 
L 610.426099 415.717325 
L 610.982649 416.386711 
L 611.5392 418.001709 
L 612.095751 420.235253 
L 612.652301 420.628411 
L 613.208852 424.465091 
L 613.765403 425.058217 
L 614.321953 430.92 
L 614.878504 428.718654 
L 615.435055 430.48956 
L 615.991605 428.366168 
L 616.548156 408.062607 
L 617.661257 417.479758 
L 618.217808 422.428126 
L 618.774358 423.543203 
L 619.330909 421.340163 
L 619.330909 421.340163 
" style="fill:none;stroke:#1f77b4;stroke-linecap:square;stroke-width:1.5;"/>
   </g>
   <g id="patch_3">
    <path d="M 108 448.56 
L 108 60.48 
" style="fill:none;stroke:#000000;stroke-linecap:square;stroke-linejoin:miter;stroke-width:0.8;"/>
   </g>
   <g id="patch_4">
    <path d="M 643.68 448.56 
L 643.68 60.48 
" style="fill:none;stroke:#000000;stroke-linecap:square;stroke-linejoin:miter;stroke-width:0.8;"/>
   </g>
   <g id="patch_5">
    <path d="M 108 448.56 
L 643.68 448.56 
" style="fill:none;stroke:#000000;stroke-linecap:square;stroke-linejoin:miter;stroke-width:0.8;"/>
   </g>
   <g id="patch_6">
    <path d="M 108 60.48 
L 643.68 60.48 
" style="fill:none;stroke:#000000;stroke-linecap:square;stroke-linejoin:miter;stroke-width:0.8;"/>
   </g>
   <g id="text_29">
    <!-- unikernel_base - free -->
    <g transform="translate(297.273984 54.48)scale(0.15 -0.15)">
     <defs>
      <path d="M 8.5 21.578125 
L 8.5 54.6875 
L 17.484375 54.6875 
L 17.484375 21.921875 
Q 17.484375 14.15625 20.5 10.265625 
Q 23.53125 6.390625 29.59375 6.390625 
Q 36.859375 6.390625 41.078125 11.03125 
Q 45.3125 15.671875 45.3125 23.6875 
L 45.3125 54.6875 
L 54.296875 54.6875 
L 54.296875 0 
L 45.3125 0 
L 45.3125 8.40625 
Q 42.046875 3.421875 37.71875 1 
Q 33.40625 -1.421875 27.6875 -1.421875 
Q 18.265625 -1.421875 13.375 4.4375 
Q 8.5 10.296875 8.5 21.578125 
z
M 31.109375 56 
z
" id="DejaVuSans-117"/>
      <path d="M 54.890625 33.015625 
L 54.890625 0 
L 45.90625 0 
L 45.90625 32.71875 
Q 45.90625 40.484375 42.875 44.328125 
Q 39.84375 48.1875 33.796875 48.1875 
Q 26.515625 48.1875 22.3125 43.546875 
Q 18.109375 38.921875 18.109375 30.90625 
L 18.109375 0 
L 9.078125 0 
L 9.078125 54.6875 
L 18.109375 54.6875 
L 18.109375 46.1875 
Q 21.34375 51.125 25.703125 53.5625 
Q 30.078125 56 35.796875 56 
Q 45.21875 56 50.046875 50.171875 
Q 54.890625 44.34375 54.890625 33.015625 
z
" id="DejaVuSans-110"/>
      <path d="M 9.078125 75.984375 
L 18.109375 75.984375 
L 18.109375 31.109375 
L 44.921875 54.6875 
L 56.390625 54.6875 
L 27.390625 29.109375 
L 57.625 0 
L 45.90625 0 
L 18.109375 26.703125 
L 18.109375 0 
L 9.078125 0 
z
" id="DejaVuSans-107"/>
      <path d="M 41.109375 46.296875 
Q 39.59375 47.171875 37.8125 47.578125 
Q 36.03125 48 33.890625 48 
Q 26.265625 48 22.1875 43.046875 
Q 18.109375 38.09375 18.109375 28.8125 
L 18.109375 0 
L 9.078125 0 
L 9.078125 54.6875 
L 18.109375 54.6875 
L 18.109375 46.1875 
Q 20.953125 51.171875 25.484375 53.578125 
Q 30.03125 56 36.53125 56 
Q 37.453125 56 38.578125 55.875 
Q 39.703125 55.765625 41.0625 55.515625 
z
" id="DejaVuSans-114"/>
      <path d="M 9.421875 75.984375 
L 18.40625 75.984375 
L 18.40625 0 
L 9.421875 0 
z
" id="DejaVuSans-108"/>
      <path d="M 50.984375 -16.609375 
L 50.984375 -23.578125 
L -0.984375 -23.578125 
L -0.984375 -16.609375 
z
" id="DejaVuSans-95"/>
      <path d="M 48.6875 27.296875 
Q 48.6875 37.203125 44.609375 42.84375 
Q 40.53125 48.484375 33.40625 48.484375 
Q 26.265625 48.484375 22.1875 42.84375 
Q 18.109375 37.203125 18.109375 27.296875 
Q 18.109375 17.390625 22.1875 11.75 
Q 26.265625 6.109375 33.40625 6.109375 
Q 40.53125 6.109375 44.609375 11.75 
Q 48.6875 17.390625 48.6875 27.296875 
z
M 18.109375 46.390625 
Q 20.953125 51.265625 25.265625 53.625 
Q 29.59375 56 35.59375 56 
Q 45.5625 56 51.78125 48.09375 
Q 58.015625 40.1875 58.015625 27.296875 
Q 58.015625 14.40625 51.78125 6.484375 
Q 45.5625 -1.421875 35.59375 -1.421875 
Q 29.59375 -1.421875 25.265625 0.953125 
Q 20.953125 3.328125 18.109375 8.203125 
L 18.109375 0 
L 9.078125 0 
L 9.078125 75.984375 
L 18.109375 75.984375 
z
" id="DejaVuSans-98"/>
      <path id="DejaVuSans-32"/>
      <path d="M 4.890625 31.390625 
L 31.203125 31.390625 
L 31.203125 23.390625 
L 4.890625 23.390625 
z
" id="DejaVuSans-45"/>
      <path d="M 37.109375 75.984375 
L 37.109375 68.5 
L 28.515625 68.5 
Q 23.6875 68.5 21.796875 66.546875 
Q 19.921875 64.59375 19.921875 59.515625 
L 19.921875 54.6875 
L 34.71875 54.6875 
L 34.71875 47.703125 
L 19.921875 47.703125 
L 19.921875 0 
L 10.890625 0 
L 10.890625 47.703125 
L 2.296875 47.703125 
L 2.296875 54.6875 
L 10.890625 54.6875 
L 10.890625 58.5 
Q 10.890625 67.625 15.140625 71.796875 
Q 19.390625 75.984375 28.609375 75.984375 
z
" id="DejaVuSans-102"/>
     </defs>
     <use xlink:href="#DejaVuSans-117"/>
     <use x="63.378906" xlink:href="#DejaVuSans-110"/>
     <use x="126.757812" xlink:href="#DejaVuSans-105"/>
     <use x="154.541016" xlink:href="#DejaVuSans-107"/>
     <use x="208.826172" xlink:href="#DejaVuSans-101"/>
     <use x="270.349609" xlink:href="#DejaVuSans-114"/>
     <use x="309.712891" xlink:href="#DejaVuSans-110"/>
     <use x="373.091797" xlink:href="#DejaVuSans-101"/>
     <use x="434.615234" xlink:href="#DejaVuSans-108"/>
     <use x="462.398438" xlink:href="#DejaVuSans-95"/>
     <use x="512.398438" xlink:href="#DejaVuSans-98"/>
     <use x="575.875" xlink:href="#DejaVuSans-97"/>
     <use x="637.154297" xlink:href="#DejaVuSans-115"/>
     <use x="689.253906" xlink:href="#DejaVuSans-101"/>
     <use x="750.777344" xlink:href="#DejaVuSans-32"/>
     <use x="782.564453" xlink:href="#DejaVuSans-45"/>
     <use x="818.648438" xlink:href="#DejaVuSans-32"/>
     <use x="850.435547" xlink:href="#DejaVuSans-102"/>
     <use x="885.640625" xlink:href="#DejaVuSans-114"/>
     <use x="924.503906" xlink:href="#DejaVuSans-101"/>
     <use x="986.027344" xlink:href="#DejaVuSans-101"/>
    </g>
   </g>
   <g id="legend_1">
    <g id="patch_7">
     <path d="M 650.68 258.52 
L 654.68 258.52 
Q 656.68 258.52 656.68 256.52 
L 656.68 252.52 
Q 656.68 250.52 654.68 250.52 
L 650.68 250.52 
Q 648.68 250.52 648.68 252.52 
L 648.68 256.52 
Q 648.68 258.52 650.68 258.52 
z
" style="fill:#ffffff;opacity:0.8;stroke:#cccccc;stroke-linejoin:miter;"/>
    </g>
   </g>
  </g>
 </g>
 <defs>
  <clipPath id="pc5d2e17c53">
   <rect height="388.08" width="535.68" x="108" y="60.48"/>
  </clipPath>
 </defs>
</svg>
