<?xml version="1.0" encoding="utf-8" standalone="no"?>
<!DOCTYPE svg PUBLIC "-//W3C//DTD SVG 1.1//EN"
  "http://www.w3.org/Graphics/SVG/1.1/DTD/svg11.dtd">
<!-- Created with matplotlib (https://matplotlib.org/) -->
<svg height="504pt" version="1.1" viewBox="0 0 864 504" width="864pt" xmlns="http://www.w3.org/2000/svg" xmlns:xlink="http://www.w3.org/1999/xlink">
 <metadata>
  <rdf:RDF xmlns:cc="http://creativecommons.org/ns#" xmlns:dc="http://purl.org/dc/elements/1.1/" xmlns:rdf="http://www.w3.org/1999/02/22-rdf-syntax-ns#">
   <cc:Work>
    <dc:type rdf:resource="http://purl.org/dc/dcmitype/StillImage"/>
    <dc:date>2022-05-29T17:25:16.402071</dc:date>
    <dc:format>image/svg+xml</dc:format>
    <dc:creator>
     <cc:Agent>
      <dc:title>Matplotlib v3.3.4, https://matplotlib.org/</dc:title>
     </cc:Agent>
    </dc:creator>
   </cc:Work>
  </rdf:RDF>
 </metadata>
 <defs>
  <style type="text/css">*{stroke-linecap:butt;stroke-linejoin:round;}</style>
 </defs>
 <g id="figure_1">
  <g id="patch_1">
   <path d="M 0 504 
L 864 504 
L 864 0 
L 0 0 
z
" style="fill:#ffffff;"/>
  </g>
  <g id="axes_1">
   <g id="patch_2">
    <path d="M 108 448.56 
L 643.68 448.56 
L 643.68 60.48 
L 108 60.48 
z
" style="fill:#ffffff;"/>
   </g>
   <g id="matplotlib.axis_1">
    <g id="xtick_1">
     <g id="line2d_1">
      <defs>
       <path d="M 0 0 
L 0 3.5 
" id="mdd3770e235" style="stroke:#000000;stroke-width:0.8;"/>
      </defs>
      <g>
       <use style="stroke:#000000;stroke-width:0.8;" x="132.349091" xlink:href="#mdd3770e235" y="448.56"/>
      </g>
     </g>
     <g id="text_1">
      <!-- 12:09:08 -->
      <g transform="translate(135.108466 500.4725)rotate(-90)scale(0.1 -0.1)">
       <defs>
        <path d="M 12.40625 8.296875 
L 28.515625 8.296875 
L 28.515625 63.921875 
L 10.984375 60.40625 
L 10.984375 69.390625 
L 28.421875 72.90625 
L 38.28125 72.90625 
L 38.28125 8.296875 
L 54.390625 8.296875 
L 54.390625 0 
L 12.40625 0 
z
" id="DejaVuSans-49"/>
        <path d="M 19.1875 8.296875 
L 53.609375 8.296875 
L 53.609375 0 
L 7.328125 0 
L 7.328125 8.296875 
Q 12.9375 14.109375 22.625 23.890625 
Q 32.328125 33.6875 34.8125 36.53125 
Q 39.546875 41.84375 41.421875 45.53125 
Q 43.3125 49.21875 43.3125 52.78125 
Q 43.3125 58.59375 39.234375 62.25 
Q 35.15625 65.921875 28.609375 65.921875 
Q 23.96875 65.921875 18.8125 64.3125 
Q 13.671875 62.703125 7.8125 59.421875 
L 7.8125 69.390625 
Q 13.765625 71.78125 18.9375 73 
Q 24.125 74.21875 28.421875 74.21875 
Q 39.75 74.21875 46.484375 68.546875 
Q 53.21875 62.890625 53.21875 53.421875 
Q 53.21875 48.921875 51.53125 44.890625 
Q 49.859375 40.875 45.40625 35.40625 
Q 44.1875 33.984375 37.640625 27.21875 
Q 31.109375 20.453125 19.1875 8.296875 
z
" id="DejaVuSans-50"/>
        <path d="M 11.71875 12.40625 
L 22.015625 12.40625 
L 22.015625 0 
L 11.71875 0 
z
M 11.71875 51.703125 
L 22.015625 51.703125 
L 22.015625 39.3125 
L 11.71875 39.3125 
z
" id="DejaVuSans-58"/>
        <path d="M 31.78125 66.40625 
Q 24.171875 66.40625 20.328125 58.90625 
Q 16.5 51.421875 16.5 36.375 
Q 16.5 21.390625 20.328125 13.890625 
Q 24.171875 6.390625 31.78125 6.390625 
Q 39.453125 6.390625 43.28125 13.890625 
Q 47.125 21.390625 47.125 36.375 
Q 47.125 51.421875 43.28125 58.90625 
Q 39.453125 66.40625 31.78125 66.40625 
z
M 31.78125 74.21875 
Q 44.046875 74.21875 50.515625 64.515625 
Q 56.984375 54.828125 56.984375 36.375 
Q 56.984375 17.96875 50.515625 8.265625 
Q 44.046875 -1.421875 31.78125 -1.421875 
Q 19.53125 -1.421875 13.0625 8.265625 
Q 6.59375 17.96875 6.59375 36.375 
Q 6.59375 54.828125 13.0625 64.515625 
Q 19.53125 74.21875 31.78125 74.21875 
z
" id="DejaVuSans-48"/>
        <path d="M 10.984375 1.515625 
L 10.984375 10.5 
Q 14.703125 8.734375 18.5 7.8125 
Q 22.3125 6.890625 25.984375 6.890625 
Q 35.75 6.890625 40.890625 13.453125 
Q 46.046875 20.015625 46.78125 33.40625 
Q 43.953125 29.203125 39.59375 26.953125 
Q 35.25 24.703125 29.984375 24.703125 
Q 19.046875 24.703125 12.671875 31.3125 
Q 6.296875 37.9375 6.296875 49.421875 
Q 6.296875 60.640625 12.9375 67.421875 
Q 19.578125 74.21875 30.609375 74.21875 
Q 43.265625 74.21875 49.921875 64.515625 
Q 56.59375 54.828125 56.59375 36.375 
Q 56.59375 19.140625 48.40625 8.859375 
Q 40.234375 -1.421875 26.421875 -1.421875 
Q 22.703125 -1.421875 18.890625 -0.6875 
Q 15.09375 0.046875 10.984375 1.515625 
z
M 30.609375 32.421875 
Q 37.25 32.421875 41.125 36.953125 
Q 45.015625 41.5 45.015625 49.421875 
Q 45.015625 57.28125 41.125 61.84375 
Q 37.25 66.40625 30.609375 66.40625 
Q 23.96875 66.40625 20.09375 61.84375 
Q 16.21875 57.28125 16.21875 49.421875 
Q 16.21875 41.5 20.09375 36.953125 
Q 23.96875 32.421875 30.609375 32.421875 
z
" id="DejaVuSans-57"/>
        <path d="M 31.78125 34.625 
Q 24.75 34.625 20.71875 30.859375 
Q 16.703125 27.09375 16.703125 20.515625 
Q 16.703125 13.921875 20.71875 10.15625 
Q 24.75 6.390625 31.78125 6.390625 
Q 38.8125 6.390625 42.859375 10.171875 
Q 46.921875 13.96875 46.921875 20.515625 
Q 46.921875 27.09375 42.890625 30.859375 
Q 38.875 34.625 31.78125 34.625 
z
M 21.921875 38.8125 
Q 15.578125 40.375 12.03125 44.71875 
Q 8.5 49.078125 8.5 55.328125 
Q 8.5 64.0625 14.71875 69.140625 
Q 20.953125 74.21875 31.78125 74.21875 
Q 42.671875 74.21875 48.875 69.140625 
Q 55.078125 64.0625 55.078125 55.328125 
Q 55.078125 49.078125 51.53125 44.71875 
Q 48 40.375 41.703125 38.8125 
Q 48.828125 37.15625 52.796875 32.3125 
Q 56.78125 27.484375 56.78125 20.515625 
Q 56.78125 9.90625 50.3125 4.234375 
Q 43.84375 -1.421875 31.78125 -1.421875 
Q 19.734375 -1.421875 13.25 4.234375 
Q 6.78125 9.90625 6.78125 20.515625 
Q 6.78125 27.484375 10.78125 32.3125 
Q 14.796875 37.15625 21.921875 38.8125 
z
M 18.3125 54.390625 
Q 18.3125 48.734375 21.84375 45.5625 
Q 25.390625 42.390625 31.78125 42.390625 
Q 38.140625 42.390625 41.71875 45.5625 
Q 45.3125 48.734375 45.3125 54.390625 
Q 45.3125 60.0625 41.71875 63.234375 
Q 38.140625 66.40625 31.78125 66.40625 
Q 25.390625 66.40625 21.84375 63.234375 
Q 18.3125 60.0625 18.3125 54.390625 
z
" id="DejaVuSans-56"/>
       </defs>
       <use xlink:href="#DejaVuSans-49"/>
       <use x="63.623047" xlink:href="#DejaVuSans-50"/>
       <use x="127.246094" xlink:href="#DejaVuSans-58"/>
       <use x="160.9375" xlink:href="#DejaVuSans-48"/>
       <use x="224.560547" xlink:href="#DejaVuSans-57"/>
       <use x="288.183594" xlink:href="#DejaVuSans-58"/>
       <use x="321.875" xlink:href="#DejaVuSans-48"/>
       <use x="385.498047" xlink:href="#DejaVuSans-56"/>
      </g>
     </g>
    </g>
    <g id="xtick_2">
     <g id="line2d_2">
      <g>
       <use style="stroke:#000000;stroke-width:0.8;" x="156.483652" xlink:href="#mdd3770e235" y="448.56"/>
      </g>
     </g>
     <g id="text_2">
      <!-- 12:09:59 -->
      <g transform="translate(159.243027 500.4725)rotate(-90)scale(0.1 -0.1)">
       <defs>
        <path d="M 10.796875 72.90625 
L 49.515625 72.90625 
L 49.515625 64.59375 
L 19.828125 64.59375 
L 19.828125 46.734375 
Q 21.96875 47.46875 24.109375 47.828125 
Q 26.265625 48.1875 28.421875 48.1875 
Q 40.625 48.1875 47.75 41.5 
Q 54.890625 34.8125 54.890625 23.390625 
Q 54.890625 11.625 47.5625 5.09375 
Q 40.234375 -1.421875 26.90625 -1.421875 
Q 22.3125 -1.421875 17.546875 -0.640625 
Q 12.796875 0.140625 7.71875 1.703125 
L 7.71875 11.625 
Q 12.109375 9.234375 16.796875 8.0625 
Q 21.484375 6.890625 26.703125 6.890625 
Q 35.15625 6.890625 40.078125 11.328125 
Q 45.015625 15.765625 45.015625 23.390625 
Q 45.015625 31 40.078125 35.4375 
Q 35.15625 39.890625 26.703125 39.890625 
Q 22.75 39.890625 18.8125 39.015625 
Q 14.890625 38.140625 10.796875 36.28125 
z
" id="DejaVuSans-53"/>
       </defs>
       <use xlink:href="#DejaVuSans-49"/>
       <use x="63.623047" xlink:href="#DejaVuSans-50"/>
       <use x="127.246094" xlink:href="#DejaVuSans-58"/>
       <use x="160.9375" xlink:href="#DejaVuSans-48"/>
       <use x="224.560547" xlink:href="#DejaVuSans-57"/>
       <use x="288.183594" xlink:href="#DejaVuSans-58"/>
       <use x="321.875" xlink:href="#DejaVuSans-53"/>
       <use x="385.498047" xlink:href="#DejaVuSans-57"/>
      </g>
     </g>
    </g>
    <g id="xtick_3">
     <g id="line2d_3">
      <g>
       <use style="stroke:#000000;stroke-width:0.8;" x="180.618214" xlink:href="#mdd3770e235" y="448.56"/>
      </g>
     </g>
     <g id="text_3">
      <!-- 12:10:50 -->
      <g transform="translate(183.377589 500.4725)rotate(-90)scale(0.1 -0.1)">
       <use xlink:href="#DejaVuSans-49"/>
       <use x="63.623047" xlink:href="#DejaVuSans-50"/>
       <use x="127.246094" xlink:href="#DejaVuSans-58"/>
       <use x="160.9375" xlink:href="#DejaVuSans-49"/>
       <use x="224.560547" xlink:href="#DejaVuSans-48"/>
       <use x="288.183594" xlink:href="#DejaVuSans-58"/>
       <use x="321.875" xlink:href="#DejaVuSans-53"/>
       <use x="385.498047" xlink:href="#DejaVuSans-48"/>
      </g>
     </g>
    </g>
    <g id="xtick_4">
     <g id="line2d_4">
      <g>
       <use style="stroke:#000000;stroke-width:0.8;" x="204.752775" xlink:href="#mdd3770e235" y="448.56"/>
      </g>
     </g>
     <g id="text_4">
      <!-- 12:11:41 -->
      <g transform="translate(207.51215 500.4725)rotate(-90)scale(0.1 -0.1)">
       <defs>
        <path d="M 37.796875 64.3125 
L 12.890625 25.390625 
L 37.796875 25.390625 
z
M 35.203125 72.90625 
L 47.609375 72.90625 
L 47.609375 25.390625 
L 58.015625 25.390625 
L 58.015625 17.1875 
L 47.609375 17.1875 
L 47.609375 0 
L 37.796875 0 
L 37.796875 17.1875 
L 4.890625 17.1875 
L 4.890625 26.703125 
z
" id="DejaVuSans-52"/>
       </defs>
       <use xlink:href="#DejaVuSans-49"/>
       <use x="63.623047" xlink:href="#DejaVuSans-50"/>
       <use x="127.246094" xlink:href="#DejaVuSans-58"/>
       <use x="160.9375" xlink:href="#DejaVuSans-49"/>
       <use x="224.560547" xlink:href="#DejaVuSans-49"/>
       <use x="288.183594" xlink:href="#DejaVuSans-58"/>
       <use x="321.875" xlink:href="#DejaVuSans-52"/>
       <use x="385.498047" xlink:href="#DejaVuSans-49"/>
      </g>
     </g>
    </g>
    <g id="xtick_5">
     <g id="line2d_5">
      <g>
       <use style="stroke:#000000;stroke-width:0.8;" x="228.887337" xlink:href="#mdd3770e235" y="448.56"/>
      </g>
     </g>
     <g id="text_5">
      <!-- 12:12:32 -->
      <g transform="translate(231.646712 500.4725)rotate(-90)scale(0.1 -0.1)">
       <defs>
        <path d="M 40.578125 39.3125 
Q 47.65625 37.796875 51.625 33 
Q 55.609375 28.21875 55.609375 21.1875 
Q 55.609375 10.40625 48.1875 4.484375 
Q 40.765625 -1.421875 27.09375 -1.421875 
Q 22.515625 -1.421875 17.65625 -0.515625 
Q 12.796875 0.390625 7.625 2.203125 
L 7.625 11.71875 
Q 11.71875 9.328125 16.59375 8.109375 
Q 21.484375 6.890625 26.8125 6.890625 
Q 36.078125 6.890625 40.9375 10.546875 
Q 45.796875 14.203125 45.796875 21.1875 
Q 45.796875 27.640625 41.28125 31.265625 
Q 36.765625 34.90625 28.71875 34.90625 
L 20.21875 34.90625 
L 20.21875 43.015625 
L 29.109375 43.015625 
Q 36.375 43.015625 40.234375 45.921875 
Q 44.09375 48.828125 44.09375 54.296875 
Q 44.09375 59.90625 40.109375 62.90625 
Q 36.140625 65.921875 28.71875 65.921875 
Q 24.65625 65.921875 20.015625 65.03125 
Q 15.375 64.15625 9.8125 62.3125 
L 9.8125 71.09375 
Q 15.4375 72.65625 20.34375 73.4375 
Q 25.25 74.21875 29.59375 74.21875 
Q 40.828125 74.21875 47.359375 69.109375 
Q 53.90625 64.015625 53.90625 55.328125 
Q 53.90625 49.265625 50.4375 45.09375 
Q 46.96875 40.921875 40.578125 39.3125 
z
" id="DejaVuSans-51"/>
       </defs>
       <use xlink:href="#DejaVuSans-49"/>
       <use x="63.623047" xlink:href="#DejaVuSans-50"/>
       <use x="127.246094" xlink:href="#DejaVuSans-58"/>
       <use x="160.9375" xlink:href="#DejaVuSans-49"/>
       <use x="224.560547" xlink:href="#DejaVuSans-50"/>
       <use x="288.183594" xlink:href="#DejaVuSans-58"/>
       <use x="321.875" xlink:href="#DejaVuSans-51"/>
       <use x="385.498047" xlink:href="#DejaVuSans-50"/>
      </g>
     </g>
    </g>
    <g id="xtick_6">
     <g id="line2d_6">
      <g>
       <use style="stroke:#000000;stroke-width:0.8;" x="253.021898" xlink:href="#mdd3770e235" y="448.56"/>
      </g>
     </g>
     <g id="text_6">
      <!-- 12:13:22 -->
      <g transform="translate(255.781273 500.4725)rotate(-90)scale(0.1 -0.1)">
       <use xlink:href="#DejaVuSans-49"/>
       <use x="63.623047" xlink:href="#DejaVuSans-50"/>
       <use x="127.246094" xlink:href="#DejaVuSans-58"/>
       <use x="160.9375" xlink:href="#DejaVuSans-49"/>
       <use x="224.560547" xlink:href="#DejaVuSans-51"/>
       <use x="288.183594" xlink:href="#DejaVuSans-58"/>
       <use x="321.875" xlink:href="#DejaVuSans-50"/>
       <use x="385.498047" xlink:href="#DejaVuSans-50"/>
      </g>
     </g>
    </g>
    <g id="xtick_7">
     <g id="line2d_7">
      <g>
       <use style="stroke:#000000;stroke-width:0.8;" x="277.15646" xlink:href="#mdd3770e235" y="448.56"/>
      </g>
     </g>
     <g id="text_7">
      <!-- 12:14:13 -->
      <g transform="translate(279.915835 500.4725)rotate(-90)scale(0.1 -0.1)">
       <use xlink:href="#DejaVuSans-49"/>
       <use x="63.623047" xlink:href="#DejaVuSans-50"/>
       <use x="127.246094" xlink:href="#DejaVuSans-58"/>
       <use x="160.9375" xlink:href="#DejaVuSans-49"/>
       <use x="224.560547" xlink:href="#DejaVuSans-52"/>
       <use x="288.183594" xlink:href="#DejaVuSans-58"/>
       <use x="321.875" xlink:href="#DejaVuSans-49"/>
       <use x="385.498047" xlink:href="#DejaVuSans-51"/>
      </g>
     </g>
    </g>
    <g id="xtick_8">
     <g id="line2d_8">
      <g>
       <use style="stroke:#000000;stroke-width:0.8;" x="301.291021" xlink:href="#mdd3770e235" y="448.56"/>
      </g>
     </g>
     <g id="text_8">
      <!-- 12:15:04 -->
      <g transform="translate(304.050396 500.4725)rotate(-90)scale(0.1 -0.1)">
       <use xlink:href="#DejaVuSans-49"/>
       <use x="63.623047" xlink:href="#DejaVuSans-50"/>
       <use x="127.246094" xlink:href="#DejaVuSans-58"/>
       <use x="160.9375" xlink:href="#DejaVuSans-49"/>
       <use x="224.560547" xlink:href="#DejaVuSans-53"/>
       <use x="288.183594" xlink:href="#DejaVuSans-58"/>
       <use x="321.875" xlink:href="#DejaVuSans-48"/>
       <use x="385.498047" xlink:href="#DejaVuSans-52"/>
      </g>
     </g>
    </g>
    <g id="xtick_9">
     <g id="line2d_9">
      <g>
       <use style="stroke:#000000;stroke-width:0.8;" x="325.425583" xlink:href="#mdd3770e235" y="448.56"/>
      </g>
     </g>
     <g id="text_9">
      <!-- 12:15:55 -->
      <g transform="translate(328.184958 500.4725)rotate(-90)scale(0.1 -0.1)">
       <use xlink:href="#DejaVuSans-49"/>
       <use x="63.623047" xlink:href="#DejaVuSans-50"/>
       <use x="127.246094" xlink:href="#DejaVuSans-58"/>
       <use x="160.9375" xlink:href="#DejaVuSans-49"/>
       <use x="224.560547" xlink:href="#DejaVuSans-53"/>
       <use x="288.183594" xlink:href="#DejaVuSans-58"/>
       <use x="321.875" xlink:href="#DejaVuSans-53"/>
       <use x="385.498047" xlink:href="#DejaVuSans-53"/>
      </g>
     </g>
    </g>
    <g id="xtick_10">
     <g id="line2d_10">
      <g>
       <use style="stroke:#000000;stroke-width:0.8;" x="349.560144" xlink:href="#mdd3770e235" y="448.56"/>
      </g>
     </g>
     <g id="text_10">
      <!-- 12:16:46 -->
      <g transform="translate(352.319519 500.4725)rotate(-90)scale(0.1 -0.1)">
       <defs>
        <path d="M 33.015625 40.375 
Q 26.375 40.375 22.484375 35.828125 
Q 18.609375 31.296875 18.609375 23.390625 
Q 18.609375 15.53125 22.484375 10.953125 
Q 26.375 6.390625 33.015625 6.390625 
Q 39.65625 6.390625 43.53125 10.953125 
Q 47.40625 15.53125 47.40625 23.390625 
Q 47.40625 31.296875 43.53125 35.828125 
Q 39.65625 40.375 33.015625 40.375 
z
M 52.59375 71.296875 
L 52.59375 62.3125 
Q 48.875 64.0625 45.09375 64.984375 
Q 41.3125 65.921875 37.59375 65.921875 
Q 27.828125 65.921875 22.671875 59.328125 
Q 17.53125 52.734375 16.796875 39.40625 
Q 19.671875 43.65625 24.015625 45.921875 
Q 28.375 48.1875 33.59375 48.1875 
Q 44.578125 48.1875 50.953125 41.515625 
Q 57.328125 34.859375 57.328125 23.390625 
Q 57.328125 12.15625 50.6875 5.359375 
Q 44.046875 -1.421875 33.015625 -1.421875 
Q 20.359375 -1.421875 13.671875 8.265625 
Q 6.984375 17.96875 6.984375 36.375 
Q 6.984375 53.65625 15.1875 63.9375 
Q 23.390625 74.21875 37.203125 74.21875 
Q 40.921875 74.21875 44.703125 73.484375 
Q 48.484375 72.75 52.59375 71.296875 
z
" id="DejaVuSans-54"/>
       </defs>
       <use xlink:href="#DejaVuSans-49"/>
       <use x="63.623047" xlink:href="#DejaVuSans-50"/>
       <use x="127.246094" xlink:href="#DejaVuSans-58"/>
       <use x="160.9375" xlink:href="#DejaVuSans-49"/>
       <use x="224.560547" xlink:href="#DejaVuSans-54"/>
       <use x="288.183594" xlink:href="#DejaVuSans-58"/>
       <use x="321.875" xlink:href="#DejaVuSans-52"/>
       <use x="385.498047" xlink:href="#DejaVuSans-54"/>
      </g>
     </g>
    </g>
    <g id="xtick_11">
     <g id="line2d_11">
      <g>
       <use style="stroke:#000000;stroke-width:0.8;" x="373.694706" xlink:href="#mdd3770e235" y="448.56"/>
      </g>
     </g>
     <g id="text_11">
      <!-- 12:17:36 -->
      <g transform="translate(376.454081 500.4725)rotate(-90)scale(0.1 -0.1)">
       <defs>
        <path d="M 8.203125 72.90625 
L 55.078125 72.90625 
L 55.078125 68.703125 
L 28.609375 0 
L 18.3125 0 
L 43.21875 64.59375 
L 8.203125 64.59375 
z
" id="DejaVuSans-55"/>
       </defs>
       <use xlink:href="#DejaVuSans-49"/>
       <use x="63.623047" xlink:href="#DejaVuSans-50"/>
       <use x="127.246094" xlink:href="#DejaVuSans-58"/>
       <use x="160.9375" xlink:href="#DejaVuSans-49"/>
       <use x="224.560547" xlink:href="#DejaVuSans-55"/>
       <use x="288.183594" xlink:href="#DejaVuSans-58"/>
       <use x="321.875" xlink:href="#DejaVuSans-51"/>
       <use x="385.498047" xlink:href="#DejaVuSans-54"/>
      </g>
     </g>
    </g>
    <g id="xtick_12">
     <g id="line2d_12">
      <g>
       <use style="stroke:#000000;stroke-width:0.8;" x="397.829267" xlink:href="#mdd3770e235" y="448.56"/>
      </g>
     </g>
     <g id="text_12">
      <!-- 12:18:27 -->
      <g transform="translate(400.588642 500.4725)rotate(-90)scale(0.1 -0.1)">
       <use xlink:href="#DejaVuSans-49"/>
       <use x="63.623047" xlink:href="#DejaVuSans-50"/>
       <use x="127.246094" xlink:href="#DejaVuSans-58"/>
       <use x="160.9375" xlink:href="#DejaVuSans-49"/>
       <use x="224.560547" xlink:href="#DejaVuSans-56"/>
       <use x="288.183594" xlink:href="#DejaVuSans-58"/>
       <use x="321.875" xlink:href="#DejaVuSans-50"/>
       <use x="385.498047" xlink:href="#DejaVuSans-55"/>
      </g>
     </g>
    </g>
    <g id="xtick_13">
     <g id="line2d_13">
      <g>
       <use style="stroke:#000000;stroke-width:0.8;" x="421.963829" xlink:href="#mdd3770e235" y="448.56"/>
      </g>
     </g>
     <g id="text_13">
      <!-- 12:19:18 -->
      <g transform="translate(424.723204 500.4725)rotate(-90)scale(0.1 -0.1)">
       <use xlink:href="#DejaVuSans-49"/>
       <use x="63.623047" xlink:href="#DejaVuSans-50"/>
       <use x="127.246094" xlink:href="#DejaVuSans-58"/>
       <use x="160.9375" xlink:href="#DejaVuSans-49"/>
       <use x="224.560547" xlink:href="#DejaVuSans-57"/>
       <use x="288.183594" xlink:href="#DejaVuSans-58"/>
       <use x="321.875" xlink:href="#DejaVuSans-49"/>
       <use x="385.498047" xlink:href="#DejaVuSans-56"/>
      </g>
     </g>
    </g>
    <g id="xtick_14">
     <g id="line2d_14">
      <g>
       <use style="stroke:#000000;stroke-width:0.8;" x="446.09839" xlink:href="#mdd3770e235" y="448.56"/>
      </g>
     </g>
     <g id="text_14">
      <!-- 12:20:09 -->
      <g transform="translate(448.857765 500.4725)rotate(-90)scale(0.1 -0.1)">
       <use xlink:href="#DejaVuSans-49"/>
       <use x="63.623047" xlink:href="#DejaVuSans-50"/>
       <use x="127.246094" xlink:href="#DejaVuSans-58"/>
       <use x="160.9375" xlink:href="#DejaVuSans-50"/>
       <use x="224.560547" xlink:href="#DejaVuSans-48"/>
       <use x="288.183594" xlink:href="#DejaVuSans-58"/>
       <use x="321.875" xlink:href="#DejaVuSans-48"/>
       <use x="385.498047" xlink:href="#DejaVuSans-57"/>
      </g>
     </g>
    </g>
    <g id="xtick_15">
     <g id="line2d_15">
      <g>
       <use style="stroke:#000000;stroke-width:0.8;" x="470.232952" xlink:href="#mdd3770e235" y="448.56"/>
      </g>
     </g>
     <g id="text_15">
      <!-- 12:20:59 -->
      <g transform="translate(472.992327 500.4725)rotate(-90)scale(0.1 -0.1)">
       <use xlink:href="#DejaVuSans-49"/>
       <use x="63.623047" xlink:href="#DejaVuSans-50"/>
       <use x="127.246094" xlink:href="#DejaVuSans-58"/>
       <use x="160.9375" xlink:href="#DejaVuSans-50"/>
       <use x="224.560547" xlink:href="#DejaVuSans-48"/>
       <use x="288.183594" xlink:href="#DejaVuSans-58"/>
       <use x="321.875" xlink:href="#DejaVuSans-53"/>
       <use x="385.498047" xlink:href="#DejaVuSans-57"/>
      </g>
     </g>
    </g>
    <g id="xtick_16">
     <g id="line2d_16">
      <g>
       <use style="stroke:#000000;stroke-width:0.8;" x="494.367513" xlink:href="#mdd3770e235" y="448.56"/>
      </g>
     </g>
     <g id="text_16">
      <!-- 12:21:50 -->
      <g transform="translate(497.126888 500.4725)rotate(-90)scale(0.1 -0.1)">
       <use xlink:href="#DejaVuSans-49"/>
       <use x="63.623047" xlink:href="#DejaVuSans-50"/>
       <use x="127.246094" xlink:href="#DejaVuSans-58"/>
       <use x="160.9375" xlink:href="#DejaVuSans-50"/>
       <use x="224.560547" xlink:href="#DejaVuSans-49"/>
       <use x="288.183594" xlink:href="#DejaVuSans-58"/>
       <use x="321.875" xlink:href="#DejaVuSans-53"/>
       <use x="385.498047" xlink:href="#DejaVuSans-48"/>
      </g>
     </g>
    </g>
    <g id="xtick_17">
     <g id="line2d_17">
      <g>
       <use style="stroke:#000000;stroke-width:0.8;" x="518.502074" xlink:href="#mdd3770e235" y="448.56"/>
      </g>
     </g>
     <g id="text_17">
      <!-- 12:22:40 -->
      <g transform="translate(521.261449 500.4725)rotate(-90)scale(0.1 -0.1)">
       <use xlink:href="#DejaVuSans-49"/>
       <use x="63.623047" xlink:href="#DejaVuSans-50"/>
       <use x="127.246094" xlink:href="#DejaVuSans-58"/>
       <use x="160.9375" xlink:href="#DejaVuSans-50"/>
       <use x="224.560547" xlink:href="#DejaVuSans-50"/>
       <use x="288.183594" xlink:href="#DejaVuSans-58"/>
       <use x="321.875" xlink:href="#DejaVuSans-52"/>
       <use x="385.498047" xlink:href="#DejaVuSans-48"/>
      </g>
     </g>
    </g>
    <g id="xtick_18">
     <g id="line2d_18">
      <g>
       <use style="stroke:#000000;stroke-width:0.8;" x="542.636636" xlink:href="#mdd3770e235" y="448.56"/>
      </g>
     </g>
     <g id="text_18">
      <!-- 12:23:31 -->
      <g transform="translate(545.396011 500.4725)rotate(-90)scale(0.1 -0.1)">
       <use xlink:href="#DejaVuSans-49"/>
       <use x="63.623047" xlink:href="#DejaVuSans-50"/>
       <use x="127.246094" xlink:href="#DejaVuSans-58"/>
       <use x="160.9375" xlink:href="#DejaVuSans-50"/>
       <use x="224.560547" xlink:href="#DejaVuSans-51"/>
       <use x="288.183594" xlink:href="#DejaVuSans-58"/>
       <use x="321.875" xlink:href="#DejaVuSans-51"/>
       <use x="385.498047" xlink:href="#DejaVuSans-49"/>
      </g>
     </g>
    </g>
    <g id="xtick_19">
     <g id="line2d_19">
      <g>
       <use style="stroke:#000000;stroke-width:0.8;" x="566.771197" xlink:href="#mdd3770e235" y="448.56"/>
      </g>
     </g>
     <g id="text_19">
      <!-- 12:24:22 -->
      <g transform="translate(569.530572 500.4725)rotate(-90)scale(0.1 -0.1)">
       <use xlink:href="#DejaVuSans-49"/>
       <use x="63.623047" xlink:href="#DejaVuSans-50"/>
       <use x="127.246094" xlink:href="#DejaVuSans-58"/>
       <use x="160.9375" xlink:href="#DejaVuSans-50"/>
       <use x="224.560547" xlink:href="#DejaVuSans-52"/>
       <use x="288.183594" xlink:href="#DejaVuSans-58"/>
       <use x="321.875" xlink:href="#DejaVuSans-50"/>
       <use x="385.498047" xlink:href="#DejaVuSans-50"/>
      </g>
     </g>
    </g>
    <g id="xtick_20">
     <g id="line2d_20">
      <g>
       <use style="stroke:#000000;stroke-width:0.8;" x="590.905759" xlink:href="#mdd3770e235" y="448.56"/>
      </g>
     </g>
     <g id="text_20">
      <!-- 12:25:13 -->
      <g transform="translate(593.665134 500.4725)rotate(-90)scale(0.1 -0.1)">
       <use xlink:href="#DejaVuSans-49"/>
       <use x="63.623047" xlink:href="#DejaVuSans-50"/>
       <use x="127.246094" xlink:href="#DejaVuSans-58"/>
       <use x="160.9375" xlink:href="#DejaVuSans-50"/>
       <use x="224.560547" xlink:href="#DejaVuSans-53"/>
       <use x="288.183594" xlink:href="#DejaVuSans-58"/>
       <use x="321.875" xlink:href="#DejaVuSans-49"/>
       <use x="385.498047" xlink:href="#DejaVuSans-51"/>
      </g>
     </g>
    </g>
    <g id="xtick_21">
     <g id="line2d_21">
      <g>
       <use style="stroke:#000000;stroke-width:0.8;" x="615.04032" xlink:href="#mdd3770e235" y="448.56"/>
      </g>
     </g>
     <g id="text_21">
      <!-- 12:26:03 -->
      <g transform="translate(617.799695 500.4725)rotate(-90)scale(0.1 -0.1)">
       <use xlink:href="#DejaVuSans-49"/>
       <use x="63.623047" xlink:href="#DejaVuSans-50"/>
       <use x="127.246094" xlink:href="#DejaVuSans-58"/>
       <use x="160.9375" xlink:href="#DejaVuSans-50"/>
       <use x="224.560547" xlink:href="#DejaVuSans-54"/>
       <use x="288.183594" xlink:href="#DejaVuSans-58"/>
       <use x="321.875" xlink:href="#DejaVuSans-48"/>
       <use x="385.498047" xlink:href="#DejaVuSans-51"/>
      </g>
     </g>
    </g>
    <g id="text_22">
     <!-- timestamp -->
     <g transform="translate(354.264375 510.55125)scale(0.08 -0.08)">
      <defs>
       <path d="M 18.3125 70.21875 
L 18.3125 54.6875 
L 36.8125 54.6875 
L 36.8125 47.703125 
L 18.3125 47.703125 
L 18.3125 18.015625 
Q 18.3125 11.328125 20.140625 9.421875 
Q 21.96875 7.515625 27.59375 7.515625 
L 36.8125 7.515625 
L 36.8125 0 
L 27.59375 0 
Q 17.1875 0 13.234375 3.875 
Q 9.28125 7.765625 9.28125 18.015625 
L 9.28125 47.703125 
L 2.6875 47.703125 
L 2.6875 54.6875 
L 9.28125 54.6875 
L 9.28125 70.21875 
z
" id="DejaVuSans-116"/>
       <path d="M 9.421875 54.6875 
L 18.40625 54.6875 
L 18.40625 0 
L 9.421875 0 
z
M 9.421875 75.984375 
L 18.40625 75.984375 
L 18.40625 64.59375 
L 9.421875 64.59375 
z
" id="DejaVuSans-105"/>
       <path d="M 52 44.1875 
Q 55.375 50.25 60.0625 53.125 
Q 64.75 56 71.09375 56 
Q 79.640625 56 84.28125 50.015625 
Q 88.921875 44.046875 88.921875 33.015625 
L 88.921875 0 
L 79.890625 0 
L 79.890625 32.71875 
Q 79.890625 40.578125 77.09375 44.375 
Q 74.3125 48.1875 68.609375 48.1875 
Q 61.625 48.1875 57.5625 43.546875 
Q 53.515625 38.921875 53.515625 30.90625 
L 53.515625 0 
L 44.484375 0 
L 44.484375 32.71875 
Q 44.484375 40.625 41.703125 44.40625 
Q 38.921875 48.1875 33.109375 48.1875 
Q 26.21875 48.1875 22.15625 43.53125 
Q 18.109375 38.875 18.109375 30.90625 
L 18.109375 0 
L 9.078125 0 
L 9.078125 54.6875 
L 18.109375 54.6875 
L 18.109375 46.1875 
Q 21.1875 51.21875 25.484375 53.609375 
Q 29.78125 56 35.6875 56 
Q 41.65625 56 45.828125 52.96875 
Q 50 49.953125 52 44.1875 
z
" id="DejaVuSans-109"/>
       <path d="M 56.203125 29.59375 
L 56.203125 25.203125 
L 14.890625 25.203125 
Q 15.484375 15.921875 20.484375 11.0625 
Q 25.484375 6.203125 34.421875 6.203125 
Q 39.59375 6.203125 44.453125 7.46875 
Q 49.3125 8.734375 54.109375 11.28125 
L 54.109375 2.78125 
Q 49.265625 0.734375 44.1875 -0.34375 
Q 39.109375 -1.421875 33.890625 -1.421875 
Q 20.796875 -1.421875 13.15625 6.1875 
Q 5.515625 13.8125 5.515625 26.8125 
Q 5.515625 40.234375 12.765625 48.109375 
Q 20.015625 56 32.328125 56 
Q 43.359375 56 49.78125 48.890625 
Q 56.203125 41.796875 56.203125 29.59375 
z
M 47.21875 32.234375 
Q 47.125 39.59375 43.09375 43.984375 
Q 39.0625 48.390625 32.421875 48.390625 
Q 24.90625 48.390625 20.390625 44.140625 
Q 15.875 39.890625 15.1875 32.171875 
z
" id="DejaVuSans-101"/>
       <path d="M 44.28125 53.078125 
L 44.28125 44.578125 
Q 40.484375 46.53125 36.375 47.5 
Q 32.28125 48.484375 27.875 48.484375 
Q 21.1875 48.484375 17.84375 46.4375 
Q 14.5 44.390625 14.5 40.28125 
Q 14.5 37.15625 16.890625 35.375 
Q 19.28125 33.59375 26.515625 31.984375 
L 29.59375 31.296875 
Q 39.15625 29.25 43.1875 25.515625 
Q 47.21875 21.78125 47.21875 15.09375 
Q 47.21875 7.46875 41.1875 3.015625 
Q 35.15625 -1.421875 24.609375 -1.421875 
Q 20.21875 -1.421875 15.453125 -0.5625 
Q 10.6875 0.296875 5.421875 2 
L 5.421875 11.28125 
Q 10.40625 8.6875 15.234375 7.390625 
Q 20.0625 6.109375 24.8125 6.109375 
Q 31.15625 6.109375 34.5625 8.28125 
Q 37.984375 10.453125 37.984375 14.40625 
Q 37.984375 18.0625 35.515625 20.015625 
Q 33.0625 21.96875 24.703125 23.78125 
L 21.578125 24.515625 
Q 13.234375 26.265625 9.515625 29.90625 
Q 5.8125 33.546875 5.8125 39.890625 
Q 5.8125 47.609375 11.28125 51.796875 
Q 16.75 56 26.8125 56 
Q 31.78125 56 36.171875 55.265625 
Q 40.578125 54.546875 44.28125 53.078125 
z
" id="DejaVuSans-115"/>
       <path d="M 34.28125 27.484375 
Q 23.390625 27.484375 19.1875 25 
Q 14.984375 22.515625 14.984375 16.5 
Q 14.984375 11.71875 18.140625 8.90625 
Q 21.296875 6.109375 26.703125 6.109375 
Q 34.1875 6.109375 38.703125 11.40625 
Q 43.21875 16.703125 43.21875 25.484375 
L 43.21875 27.484375 
z
M 52.203125 31.203125 
L 52.203125 0 
L 43.21875 0 
L 43.21875 8.296875 
Q 40.140625 3.328125 35.546875 0.953125 
Q 30.953125 -1.421875 24.3125 -1.421875 
Q 15.921875 -1.421875 10.953125 3.296875 
Q 6 8.015625 6 15.921875 
Q 6 25.140625 12.171875 29.828125 
Q 18.359375 34.515625 30.609375 34.515625 
L 43.21875 34.515625 
L 43.21875 35.40625 
Q 43.21875 41.609375 39.140625 45 
Q 35.0625 48.390625 27.6875 48.390625 
Q 23 48.390625 18.546875 47.265625 
Q 14.109375 46.140625 10.015625 43.890625 
L 10.015625 52.203125 
Q 14.9375 54.109375 19.578125 55.046875 
Q 24.21875 56 28.609375 56 
Q 40.484375 56 46.34375 49.84375 
Q 52.203125 43.703125 52.203125 31.203125 
z
" id="DejaVuSans-97"/>
       <path d="M 18.109375 8.203125 
L 18.109375 -20.796875 
L 9.078125 -20.796875 
L 9.078125 54.6875 
L 18.109375 54.6875 
L 18.109375 46.390625 
Q 20.953125 51.265625 25.265625 53.625 
Q 29.59375 56 35.59375 56 
Q 45.5625 56 51.78125 48.09375 
Q 58.015625 40.1875 58.015625 27.296875 
Q 58.015625 14.40625 51.78125 6.484375 
Q 45.5625 -1.421875 35.59375 -1.421875 
Q 29.59375 -1.421875 25.265625 0.953125 
Q 20.953125 3.328125 18.109375 8.203125 
z
M 48.6875 27.296875 
Q 48.6875 37.203125 44.609375 42.84375 
Q 40.53125 48.484375 33.40625 48.484375 
Q 26.265625 48.484375 22.1875 42.84375 
Q 18.109375 37.203125 18.109375 27.296875 
Q 18.109375 17.390625 22.1875 11.75 
Q 26.265625 6.109375 33.40625 6.109375 
Q 40.53125 6.109375 44.609375 11.75 
Q 48.6875 17.390625 48.6875 27.296875 
z
" id="DejaVuSans-112"/>
      </defs>
      <use xlink:href="#DejaVuSans-116"/>
      <use x="39.208984" xlink:href="#DejaVuSans-105"/>
      <use x="66.992188" xlink:href="#DejaVuSans-109"/>
      <use x="164.404297" xlink:href="#DejaVuSans-101"/>
      <use x="225.927734" xlink:href="#DejaVuSans-115"/>
      <use x="278.027344" xlink:href="#DejaVuSans-116"/>
      <use x="317.236328" xlink:href="#DejaVuSans-97"/>
      <use x="378.515625" xlink:href="#DejaVuSans-109"/>
      <use x="475.927734" xlink:href="#DejaVuSans-112"/>
     </g>
    </g>
   </g>
   <g id="matplotlib.axis_2">
    <g id="ytick_1">
     <g id="line2d_22">
      <defs>
       <path d="M 0 0 
L -3.5 0 
" id="md3a0e86774" style="stroke:#000000;stroke-width:0.8;"/>
      </defs>
      <g>
       <use style="stroke:#000000;stroke-width:0.8;" x="108" xlink:href="#md3a0e86774" y="395.125301"/>
      </g>
     </g>
     <g id="text_23">
      <!-- 13000 -->
      <g transform="translate(69.1875 398.92452)scale(0.1 -0.1)">
       <use xlink:href="#DejaVuSans-49"/>
       <use x="63.623047" xlink:href="#DejaVuSans-51"/>
       <use x="127.246094" xlink:href="#DejaVuSans-48"/>
       <use x="190.869141" xlink:href="#DejaVuSans-48"/>
       <use x="254.492188" xlink:href="#DejaVuSans-48"/>
      </g>
     </g>
    </g>
    <g id="ytick_2">
     <g id="line2d_23">
      <g>
       <use style="stroke:#000000;stroke-width:0.8;" x="108" xlink:href="#md3a0e86774" y="309.533854"/>
      </g>
     </g>
     <g id="text_24">
      <!-- 13200 -->
      <g transform="translate(69.1875 313.333073)scale(0.1 -0.1)">
       <use xlink:href="#DejaVuSans-49"/>
       <use x="63.623047" xlink:href="#DejaVuSans-51"/>
       <use x="127.246094" xlink:href="#DejaVuSans-50"/>
       <use x="190.869141" xlink:href="#DejaVuSans-48"/>
       <use x="254.492188" xlink:href="#DejaVuSans-48"/>
      </g>
     </g>
    </g>
    <g id="ytick_3">
     <g id="line2d_24">
      <g>
       <use style="stroke:#000000;stroke-width:0.8;" x="108" xlink:href="#md3a0e86774" y="223.942408"/>
      </g>
     </g>
     <g id="text_25">
      <!-- 13400 -->
      <g transform="translate(69.1875 227.741627)scale(0.1 -0.1)">
       <use xlink:href="#DejaVuSans-49"/>
       <use x="63.623047" xlink:href="#DejaVuSans-51"/>
       <use x="127.246094" xlink:href="#DejaVuSans-52"/>
       <use x="190.869141" xlink:href="#DejaVuSans-48"/>
       <use x="254.492188" xlink:href="#DejaVuSans-48"/>
      </g>
     </g>
    </g>
    <g id="ytick_4">
     <g id="line2d_25">
      <g>
       <use style="stroke:#000000;stroke-width:0.8;" x="108" xlink:href="#md3a0e86774" y="138.350961"/>
      </g>
     </g>
     <g id="text_26">
      <!-- 13600 -->
      <g transform="translate(69.1875 142.15018)scale(0.1 -0.1)">
       <use xlink:href="#DejaVuSans-49"/>
       <use x="63.623047" xlink:href="#DejaVuSans-51"/>
       <use x="127.246094" xlink:href="#DejaVuSans-54"/>
       <use x="190.869141" xlink:href="#DejaVuSans-48"/>
       <use x="254.492188" xlink:href="#DejaVuSans-48"/>
      </g>
     </g>
    </g>
    <g id="text_27">
     <!-- MB -->
     <g transform="translate(63.52375 260.715625)rotate(-90)scale(0.08 -0.08)">
      <defs>
       <path d="M 9.8125 72.90625 
L 24.515625 72.90625 
L 43.109375 23.296875 
L 61.8125 72.90625 
L 76.515625 72.90625 
L 76.515625 0 
L 66.890625 0 
L 66.890625 64.015625 
L 48.09375 14.015625 
L 38.1875 14.015625 
L 19.390625 64.015625 
L 19.390625 0 
L 9.8125 0 
z
" id="DejaVuSans-77"/>
       <path d="M 19.671875 34.8125 
L 19.671875 8.109375 
L 35.5 8.109375 
Q 43.453125 8.109375 47.28125 11.40625 
Q 51.125 14.703125 51.125 21.484375 
Q 51.125 28.328125 47.28125 31.5625 
Q 43.453125 34.8125 35.5 34.8125 
z
M 19.671875 64.796875 
L 19.671875 42.828125 
L 34.28125 42.828125 
Q 41.5 42.828125 45.03125 45.53125 
Q 48.578125 48.25 48.578125 53.8125 
Q 48.578125 59.328125 45.03125 62.0625 
Q 41.5 64.796875 34.28125 64.796875 
z
M 9.8125 72.90625 
L 35.015625 72.90625 
Q 46.296875 72.90625 52.390625 68.21875 
Q 58.5 63.53125 58.5 54.890625 
Q 58.5 48.1875 55.375 44.234375 
Q 52.25 40.28125 46.1875 39.3125 
Q 53.46875 37.75 57.5 32.78125 
Q 61.53125 27.828125 61.53125 20.40625 
Q 61.53125 10.640625 54.890625 5.3125 
Q 48.25 0 35.984375 0 
L 9.8125 0 
z
" id="DejaVuSans-66"/>
      </defs>
      <use xlink:href="#DejaVuSans-77"/>
      <use x="86.279297" xlink:href="#DejaVuSans-66"/>
     </g>
    </g>
   </g>
   <g id="line2d_26">
    <path clip-path="url(#pdfa6b8647a)" d="M 132.349091 81.285761 
L 132.885414 78.12 
L 133.421738 78.403972 
L 133.958062 83.119307 
L 134.494385 82.106124 
L 135.030709 81.524157 
L 135.567032 78.70372 
L 136.103356 80.512726 
L 137.176003 80.936931 
L 137.712327 80.470656 
L 138.24865 85.087828 
L 138.784974 103.435567 
L 139.321298 139.314187 
L 139.857621 159.984535 
L 140.393945 211.213412 
L 141.466592 270.368961 
L 143.611886 402.859371 
L 144.14821 401.81113 
L 144.684533 401.967139 
L 145.220857 404.102187 
L 145.757181 403.125814 
L 146.293504 405.429142 
L 146.829828 406.049673 
L 147.366151 406.114531 
L 147.902475 403.280071 
L 148.438799 404.386159 
L 148.975122 406.5475 
L 150.047769 404.377394 
L 150.584093 404.643837 
L 151.120416 408.056758 
L 151.65674 406.791155 
L 152.193064 406.230223 
L 152.729387 405.227557 
L 153.265711 402.899688 
L 153.802034 406.365197 
L 154.338358 406.947164 
L 154.874682 405.706102 
L 155.411005 405.8253 
L 155.947329 404.882233 
L 156.483652 407.054092 
L 157.019976 406.815696 
L 157.5563 407.08915 
L 158.092623 405.043501 
L 158.628947 408.696571 
L 159.16527 408.456422 
L 159.701594 407.111938 
L 160.237918 406.302092 
L 160.774241 407.350334 
L 161.310565 411.318929 
L 161.846888 410.766761 
L 162.383212 408.561597 
L 162.919535 405.236321 
L 163.455859 405.623715 
L 163.992183 405.56061 
L 165.06483 404.037329 
L 165.601153 402.733162 
L 166.137477 406.515948 
L 166.673801 405.849841 
L 167.210124 406.058437 
L 167.746448 404.833151 
L 168.282771 405.571128 
L 168.819095 406.959435 
L 169.355419 406.822707 
L 169.891742 406.302092 
L 170.428066 404.438746 
L 170.964389 408.219779 
L 171.500713 408.670277 
L 172.037036 408.901662 
L 172.57336 406.610605 
L 173.109684 406.680721 
L 173.646007 407.241654 
L 174.182331 407.027798 
L 174.718654 405.555351 
L 175.254978 404.47731 
L 175.791302 406.256517 
L 176.327625 412.013082 
L 176.863949 411.462668 
L 177.400272 411.199731 
L 177.936596 410.216347 
L 178.47292 410.749232 
L 179.009243 410.488048 
L 179.545567 410.065596 
L 180.08189 408.377541 
L 180.618214 404.940079 
L 181.154537 407.082138 
L 181.690861 406.894577 
L 182.227185 404.151268 
L 182.763508 404.091669 
L 183.299832 406.990987 
L 183.836155 407.862185 
L 184.372479 407.593989 
L 184.908803 405.692079 
L 185.445126 405.648256 
L 185.98145 409.310091 
L 186.517773 408.638725 
L 187.054097 407.024292 
L 187.590421 406.919118 
L 188.126744 410.86843 
L 188.663068 408.458175 
L 189.199391 408.182968 
L 189.735715 408.123369 
L 190.272038 406.64391 
L 190.808362 408.207509 
L 191.881009 407.97963 
L 192.417333 406.794661 
L 192.953656 406.156601 
L 193.48998 407.530884 
L 194.562627 406.591323 
L 195.098951 405.630727 
L 195.635274 408.551079 
L 196.171598 408.854333 
L 196.707922 408.46694 
L 197.244245 407.103173 
L 197.780569 406.384479 
L 198.316892 409.027872 
L 199.389539 407.019034 
L 199.925863 406.999752 
L 200.462187 408.801746 
L 200.99851 406.165365 
L 202.071157 406.012862 
L 202.607481 403.500938 
L 203.143805 407.648329 
L 203.680128 407.590483 
L 204.216452 408.067275 
L 204.752775 406.501924 
L 205.289099 406.922623 
L 205.825423 409.795648 
L 206.361746 409.092729 
L 206.89807 407.13122 
L 207.434393 406.417785 
L 207.970717 410.081372 
L 208.50704 409.083965 
L 209.043364 408.96652 
L 209.579688 414.207729 
L 210.116011 413.443459 
L 210.652335 414.984269 
L 211.188658 413.11917 
L 211.724982 408.407341 
L 212.261306 406.994493 
L 212.797629 408.913932 
L 213.333953 409.697484 
L 214.4066 409.192646 
L 214.942924 407.823621 
L 215.479247 408.249578 
L 216.015571 409.951657 
L 216.551894 409.758836 
L 217.088218 409.190893 
L 217.624541 407.529131 
L 218.160865 411.106826 
L 218.697189 410.374109 
L 219.233512 410.125195 
L 219.769836 408.440646 
L 220.306159 411.89739 
L 221.378807 411.822015 
L 221.91513 416.058805 
L 222.451454 414.579347 
L 222.987777 416.921238 
L 223.524101 416.726665 
L 224.060425 409.690473 
L 224.596748 409.748319 
L 225.133072 411.474938 
L 225.669395 412.339124 
L 226.205719 409.962174 
L 226.742042 410.286463 
L 227.278366 408.577373 
L 227.81469 410.186547 
L 228.351013 410.042808 
L 228.887337 410.703656 
L 229.42366 410.514342 
L 229.959984 408.407341 
L 230.496308 412.435534 
L 231.032631 412.190126 
L 232.105278 409.962174 
L 232.641602 410.077866 
L 233.714249 412.020094 
L 234.250573 408.796487 
L 234.786896 408.680795 
L 235.32322 411.255824 
L 235.859543 411.576607 
L 236.395867 410.985875 
L 236.932191 408.826287 
L 237.468514 407.196078 
L 238.004838 410.794808 
L 238.541161 410.032291 
L 239.077485 409.581792 
L 239.613809 408.3828 
L 240.150132 410.912253 
L 240.686456 410.947311 
L 241.222779 410.347815 
L 241.759103 408.721112 
L 242.295427 408.100581 
L 242.83175 411.623936 
L 243.368074 411.860579 
L 243.904397 411.820262 
L 244.440721 409.897316 
L 244.977044 413.546881 
L 245.513368 412.160327 
L 246.049692 411.914919 
L 246.586015 409.425783 
L 247.122339 408.970026 
L 247.658662 411.152402 
L 248.194986 410.775526 
L 248.73131 410.247899 
L 249.267633 408.940226 
L 249.803957 409.888552 
L 250.34028 411.874602 
L 250.876604 411.730863 
L 251.412928 411.823768 
L 251.949251 410.412673 
L 252.485575 413.213828 
L 253.021898 413.704643 
L 253.558222 413.588951 
L 254.630869 410.081372 
L 255.167193 413.506564 
L 256.23984 413.110406 
L 256.776163 410.735209 
L 257.312487 411.45215 
L 257.848811 410.815843 
L 258.921458 408.254837 
L 259.457781 408.496739 
L 259.994105 410.503824 
L 260.530429 410.111172 
L 261.066752 410.030538 
L 261.603076 406.898083 
L 262.139399 407.04708 
L 262.675723 410.226864 
L 263.212046 410.542388 
L 263.74837 412.549474 
L 264.284694 411.003404 
L 264.821017 411.417092 
L 265.357341 413.571422 
L 265.893664 413.126182 
L 266.429988 412.433781 
L 266.966312 411.32594 
L 267.502635 414.346209 
L 268.038959 414.227011 
L 269.111606 412.079693 
L 269.64793 412.211161 
L 270.184253 413.024513 
L 270.720577 411.338211 
L 271.2569 410.978864 
L 271.793224 409.7974 
L 272.329547 410.598482 
L 273.402195 410.212841 
L 273.938518 408.626455 
L 274.474842 408.889392 
L 275.011165 411.038463 
L 275.547489 411.282118 
L 276.083813 411.105073 
L 276.620136 410.051573 
L 277.15646 410.519601 
L 277.692783 412.69146 
L 278.229107 412.687954 
L 279.301754 410.805325 
L 279.838078 414.055226 
L 280.374401 414.074508 
L 280.910725 418.740762 
L 281.447048 419.026486 
L 281.983372 418.034338 
L 282.519696 419.299941 
L 283.056019 414.852801 
L 283.592343 411.422351 
L 284.128666 411.094556 
L 284.66499 412.575767 
L 285.201314 420.923138 
L 285.737637 420.921385 
L 286.273961 420.628649 
L 286.810284 414.866824 
L 287.346608 415.334852 
L 287.882932 414.193706 
L 288.419255 413.375096 
L 288.955579 411.760663 
L 289.491902 412.600308 
L 290.028226 414.887859 
L 290.564549 414.556559 
L 291.100873 415.075421 
L 291.637197 413.189287 
L 292.17352 415.166572 
L 292.709844 415.475085 
L 293.246167 416.169239 
L 293.782491 412.307572 
L 294.318815 412.561744 
L 294.855138 415.759057 
L 295.391462 414.218247 
L 295.927785 413.392625 
L 296.464109 411.911413 
L 297.000433 413.653809 
L 298.609403 413.141958 
L 299.145727 411.781698 
L 299.68205 414.800214 
L 300.218374 414.738862 
L 300.754698 413.983356 
L 301.291021 412.780858 
L 301.827345 412.600308 
L 302.363668 415.669658 
L 302.899992 415.429509 
L 303.436316 414.810731 
L 303.972639 412.826434 
L 304.508963 415.750292 
L 305.045286 416.097369 
L 305.58161 415.685435 
L 306.117934 412.3847 
L 306.654257 412.034117 
L 307.190581 417.112306 
L 308.263228 414.405808 
L 308.799551 413.978098 
L 309.335875 414.691533 
L 309.872199 413.837865 
L 310.408522 413.439953 
L 310.944846 412.233949 
L 311.481169 411.630947 
L 312.017493 414.64771 
L 312.553817 414.845789 
L 313.09014 414.260316 
L 313.626464 413.01049 
L 314.162787 412.70373 
L 314.699111 414.34095 
L 315.235435 414.905388 
L 315.771758 413.310238 
L 316.308082 412.794881 
L 316.844405 416.137686 
L 317.380729 415.532931 
L 317.917052 414.37075 
L 318.453376 414.234023 
L 318.9897 412.80014 
L 319.526023 415.163067 
L 320.59867 414.686274 
L 321.134994 413.580186 
L 321.671318 414.056979 
L 322.207641 417.206963 
L 322.743965 416.639019 
L 323.280288 416.300707 
L 323.816612 415.198125 
L 324.352936 416.05004 
L 324.889259 415.413733 
L 325.425583 415.308558 
L 325.961906 413.152476 
L 326.49823 413.049054 
L 327.034553 415.617071 
L 328.107201 415.415486 
L 328.643524 414.291869 
L 329.179848 417.825741 
L 329.716171 415.681929 
L 330.252495 414.137613 
L 330.788819 414.391785 
L 331.325142 413.124429 
L 331.861466 415.047374 
L 332.397789 414.027179 
L 332.934113 412.763329 
L 334.00676 414.45489 
L 334.543084 417.061471 
L 335.615731 416.279672 
L 336.152054 415.436521 
L 337.224702 415.061398 
L 338.833672 413.8291 
L 339.369996 414.814237 
L 339.90632 414.50923 
L 340.442643 414.700298 
L 340.978967 411.92719 
L 341.51529 415.390945 
L 342.051614 415.403216 
L 342.587938 416.179756 
L 343.124261 416.216567 
L 343.660585 414.463654 
L 344.196908 416.751206 
L 344.733232 416.649537 
L 345.269555 413.986862 
L 345.805879 414.258564 
L 346.342203 414.805472 
L 346.878526 416.901956 
L 347.41485 416.616231 
L 347.951173 415.347122 
L 348.487497 414.76165 
L 349.023821 416.309472 
L 349.560144 416.674077 
L 350.096468 416.614478 
L 350.632791 414.756391 
L 351.169115 415.2735 
L 351.705439 415.447038 
L 352.241762 421.049348 
L 352.778086 421.077394 
L 353.314409 418.022067 
L 353.850733 416.244614 
L 354.92338 416.523327 
L 355.996027 414.069249 
L 356.532351 417.124576 
L 357.068674 417.142105 
L 357.604998 416.393611 
L 358.141322 414.418079 
L 359.213969 416.877415 
L 359.750292 416.730171 
L 360.286616 415.541696 
L 360.82294 414.917659 
L 361.359263 417.739848 
L 361.895587 417.545275 
L 362.43191 416.901956 
L 362.968234 414.817743 
L 363.504557 416.207803 
L 364.577205 416.004465 
L 365.113528 413.366331 
L 365.649852 413.387366 
L 366.186175 415.783598 
L 366.722499 415.920325 
L 367.258823 415.560978 
L 367.795146 415.638106 
L 368.33147 414.17793 
L 368.867793 415.329593 
L 369.404117 415.26123 
L 369.940441 413.84137 
L 370.476764 413.727431 
L 371.013088 415.757304 
L 371.549411 417.199951 
L 372.085735 417.215728 
L 372.622058 415.89929 
L 373.158382 415.238442 
L 373.694706 414.982517 
L 374.231029 415.269994 
L 374.767353 415.764316 
L 375.303676 413.846629 
L 375.84 414.598629 
L 376.376324 416.781005 
L 376.912647 414.661734 
L 377.985294 412.477604 
L 378.521618 413.590704 
L 379.057942 416.409388 
L 379.594265 416.060558 
L 380.666912 414.134107 
L 381.203236 416.20605 
L 381.739559 416.695112 
L 382.275883 416.113145 
L 382.812207 414.00965 
L 383.34853 415.583766 
L 383.884854 418.907288 
L 384.421177 418.60754 
L 384.957501 418.043102 
L 385.493825 416.381341 
L 386.030148 417.310385 
L 386.566472 417.548781 
L 387.102795 416.724912 
L 387.639119 416.45321 
L 388.175443 415.787104 
L 388.711766 416.57942 
L 389.24809 415.410227 
L 389.784413 414.826507 
L 390.320737 413.685361 
L 390.85706 416.724912 
L 391.393384 416.183262 
L 391.929708 416.072828 
L 392.466031 414.987775 
L 393.002355 414.831766 
L 393.538678 417.043942 
L 394.075002 417.590851 
L 395.147649 414.935188 
L 395.683973 415.774833 
L 396.220296 417.713555 
L 396.75662 418.104454 
L 397.292944 417.904622 
L 397.829267 416.737182 
L 398.365591 416.085099 
L 398.901914 415.990441 
L 399.438238 416.614478 
L 400.510885 413.220839 
L 401.047209 418.111466 
L 401.583532 417.911634 
L 402.656179 415.459309 
L 403.192503 419.066803 
L 403.728827 418.60754 
L 404.26515 418.435755 
L 404.801474 418.802114 
L 405.337797 417.149117 
L 405.874121 419.876649 
L 406.410445 419.396351 
L 406.946768 419.476985 
L 407.483092 417.413807 
L 408.019415 418.663634 
L 408.555739 419.368304 
L 409.092062 419.522561 
L 409.628386 418.130748 
L 410.16471 417.382254 
L 411.237357 418.824901 
L 411.77368 418.064137 
L 412.310004 416.554879 
L 412.846328 417.405042 
L 413.382651 420.409535 
L 413.918975 420.209703 
L 414.455298 419.22106 
L 414.991622 417.154376 
L 415.527946 420.062458 
L 416.064269 419.399857 
L 416.600593 419.391092 
L 417.136916 417.748613 
L 417.67324 417.699531 
L 418.209563 418.78809 
L 418.745887 418.663634 
L 419.282211 418.696939 
L 419.818534 417.364725 
L 420.354858 418.349862 
L 420.891181 420.160621 
L 421.963829 419.776733 
L 422.500152 417.667979 
L 423.036476 418.831913 
L 423.572799 424.779546 
L 424.109123 425.247574 
L 424.645447 424.017029 
L 425.18177 418.377909 
L 425.718094 420.656695 
L 426.254417 420.458616 
L 426.790741 419.110626 
L 427.327064 418.430496 
L 427.863388 425.529793 
L 428.399712 426.120525 
L 428.936035 425.656003 
L 429.472359 420.767129 
L 430.008682 419.240342 
L 430.545006 422.330727 
L 431.08133 421.233404 
L 431.617653 422.660275 
L 432.153977 421.271968 
L 432.6903 420.384994 
L 433.226624 423.338652 
L 433.762948 423.759351 
L 434.299271 421.545422 
L 434.835595 420.562038 
L 435.371918 422.70585 
L 435.908242 423.37371 
L 436.444565 422.33248 
L 436.980889 422.158942 
L 437.517213 420.714542 
L 438.053536 422.434149 
L 438.58986 422.463949 
L 439.126183 422.209776 
L 439.662507 420.639166 
L 440.198831 420.802187 
L 440.735154 422.974046 
L 441.271478 422.101096 
L 441.807801 422.411361 
L 442.344125 419.874896 
L 442.880449 423.338652 
L 443.416772 423.245748 
L 443.953096 422.896918 
L 444.489419 421.364872 
L 445.025743 421.052854 
L 445.562066 422.509524 
L 446.09839 422.5849 
L 446.634714 422.346503 
L 447.171037 420.465628 
L 447.707361 422.444666 
L 448.243684 423.796162 
L 448.780008 422.700592 
L 449.316332 420.796928 
L 449.852655 421.075642 
L 450.388979 423.76461 
L 451.461626 422.160695 
L 451.99795 420.774141 
L 452.534273 421.969627 
L 453.60692 422.15193 
L 454.143244 421.017795 
L 454.679567 420.898597 
L 455.215891 424.27646 
L 455.752215 423.564778 
L 456.288538 423.221207 
L 456.824862 423.384228 
L 457.361185 422.045002 
L 457.897509 416.251625 
L 458.970156 416.7477 
L 459.50648 415.215654 
L 460.042803 420.533992 
L 460.579127 419.282412 
L 461.115451 418.814384 
L 461.651774 417.408548 
L 462.188098 417.794189 
L 462.724421 420.690001 
L 463.260745 419.959036 
L 464.333392 417.760883 
L 465.406039 419.524314 
L 466.478686 416.896697 
L 467.01501 416.865145 
L 467.551334 417.892352 
L 468.087657 419.596183 
L 468.623981 419.925731 
L 469.160304 419.007204 
L 469.696628 416.305966 
L 470.232952 419.627736 
L 470.769275 419.904696 
L 471.305599 419.205284 
L 471.841922 417.955457 
L 472.378246 417.273574 
L 472.914569 421.370131 
L 473.987217 418.873983 
L 474.52354 418.195606 
L 475.059864 422.05552 
L 475.596187 423.72254 
L 476.132511 423.110773 
L 476.668835 423.017869 
L 477.205158 421.138746 
L 477.741482 421.000266 
L 478.277805 421.15277 
L 478.814129 419.69084 
L 479.886776 419.680323 
L 480.4231 421.713702 
L 480.959423 421.310532 
L 481.495747 420.015129 
L 482.03207 420.029153 
L 482.568394 421.966121 
L 483.104718 422.188741 
L 483.641041 422.618205 
L 484.177365 422.307939 
L 484.713688 421.801347 
L 485.250012 421.645338 
L 485.786336 420.746094 
L 486.322659 420.48491 
L 486.858983 419.029992 
L 487.395306 421.987156 
L 487.93163 422.158942 
L 488.467954 421.773301 
L 489.004277 419.750439 
L 489.540601 420.085246 
L 490.076924 426.344898 
L 490.613248 427.223107 
L 491.685895 424.811099 
L 492.222219 421.030066 
L 492.758542 424.662101 
L 493.294866 424.076628 
L 493.831189 423.678717 
L 494.367513 421.275474 
L 494.903837 430.394126 
L 495.44016 430.92 
L 495.976484 423.400004 
L 496.512807 423.598083 
L 497.049131 422.514783 
L 497.585455 422.672545 
L 498.121778 421.324555 
L 498.658102 421.101935 
L 499.194425 419.741675 
L 499.730749 419.58216 
L 500.267072 421.559446 
L 500.803396 422.099343 
L 501.33972 421.682149 
L 501.876043 419.361293 
L 502.412367 420.7496 
L 502.94869 420.09401 
L 503.485014 418.546188 
L 504.021338 416.49528 
L 504.557661 415.955383 
L 505.093985 420.486663 
L 505.630308 420.09401 
L 506.166632 417.599615 
L 506.702956 417.075494 
L 507.775603 418.488342 
L 508.84825 416.630255 
L 509.384573 414.831766 
L 509.920897 414.949211 
L 510.457221 413.4382 
L 510.993544 412.749306 
L 511.529868 411.6327 
L 512.066191 411.606406 
L 512.602515 414.347962 
L 513.138839 414.023673 
L 513.675162 413.4382 
L 514.211486 412.109492 
L 514.747809 414.814237 
L 515.284133 414.610899 
L 515.820457 415.028092 
L 516.35678 414.619664 
L 516.893104 413.320755 
L 517.429427 416.239355 
L 517.965751 415.874749 
L 518.502074 415.094703 
L 519.038398 413.348802 
L 520.111045 416.600455 
L 520.647369 416.048288 
L 521.183692 415.106973 
L 521.720016 413.704643 
L 522.25634 415.611812 
L 522.792663 415.457556 
L 523.86531 411.35574 
L 524.401634 410.966593 
L 524.937958 414.922918 
L 525.474281 414.025426 
L 526.010605 412.609073 
L 526.546928 412.267255 
L 527.083252 414.717827 
L 528.155899 414.212988 
L 528.692223 412.517921 
L 529.228546 412.151562 
L 529.76487 415.296288 
L 530.301193 414.768661 
L 530.837517 414.880848 
L 531.373841 413.571422 
L 531.910164 414.125342 
L 532.446488 415.848456 
L 532.982811 415.317323 
L 533.519135 414.195459 
L 534.055459 413.574928 
L 534.591782 415.95363 
L 535.128106 416.908968 
L 535.664429 416.53735 
L 536.200753 415.084186 
L 536.737076 412.190126 
L 537.2734 416.116651 
L 537.809724 416.660054 
L 538.346047 416.809052 
L 538.882371 414.272587 
L 539.418694 414.198965 
L 539.955018 416.488269 
L 540.491342 416.284931 
L 541.027665 415.308558 
L 541.563989 412.694965 
L 542.100312 414.859813 
L 542.636636 414.584605 
L 543.709283 411.394304 
L 544.245607 411.446891 
L 544.78193 412.153315 
L 545.318254 410.807078 
L 545.854577 410.526612 
L 546.390901 409.969186 
L 546.927225 413.543375 
L 547.999872 411.718593 
L 548.536195 408.738641 
L 549.072519 404.659613 
L 549.608843 409.523946 
L 550.145166 409.848235 
L 550.68149 409.27328 
L 551.217813 405.816535 
L 551.754137 407.290735 
L 552.290461 408.421364 
L 553.363108 408.459928 
L 553.899431 407.281971 
L 554.435755 410.069102 
L 554.972078 410.261922 
L 555.508402 409.278538 
L 556.044726 407.972618 
L 556.581049 407.557178 
L 557.117373 407.387145 
L 557.653696 406.806931 
L 558.19002 406.656181 
L 558.726344 405.583398 
L 559.262667 406.212694 
L 559.798991 406.296834 
L 560.335314 406.044414 
L 560.871638 404.792834 
L 561.407962 404.12848 
L 561.944285 408.982296 
L 562.480609 408.568609 
L 563.016932 407.863938 
L 563.553256 405.401095 
L 564.089579 406.193412 
L 564.625903 408.88238 
L 565.162227 408.687807 
L 565.69855 406.78239 
L 566.234874 412.786117 
L 566.771197 413.627515 
L 567.307521 413.795795 
L 567.843845 412.877268 
L 568.380168 406.624628 
L 568.916492 405.530811 
L 569.452815 407.990147 
L 569.989139 405.874382 
L 570.525463 411.904402 
L 571.061786 411.226024 
L 571.59811 414.444372 
L 572.134433 409.006837 
L 572.670757 408.934967 
L 573.20708 408.975284 
L 573.743404 406.791155 
L 574.279728 408.195238 
L 574.816051 408.409093 
L 575.352375 408.75617 
L 575.888698 406.500171 
L 576.961346 410.601987 
L 577.497669 409.941139 
L 578.033993 408.768441 
L 578.570316 406.798167 
L 579.10664 408.31093 
L 579.642964 407.416945 
L 580.179287 404.482569 
L 580.715611 402.477236 
L 581.251934 401.833917 
L 581.788258 403.706028 
L 582.324581 403.046933 
L 582.860905 402.836584 
L 583.397229 401.861964 
L 583.933552 402.287922 
L 584.469876 402.191512 
L 585.542523 401.506123 
L 586.078847 398.890777 
L 586.61517 399.627 
L 587.151494 398.589276 
L 587.687817 396.186032 
L 588.224141 396.298219 
L 588.760465 397.206228 
L 589.296788 400.7103 
L 589.833112 400.073993 
L 590.369435 399.924995 
L 590.905759 398.198376 
L 591.442082 400.359718 
L 591.978406 399.36231 
L 592.51473 398.841695 
L 593.051053 397.618162 
L 593.587377 395.726769 
L 594.1237 396.326265 
L 595.196348 395.921343 
L 595.732671 393.244645 
L 596.805318 395.945883 
L 597.341642 396.157986 
L 597.877966 395.637371 
L 598.414289 393.770518 
L 598.950613 396.757482 
L 600.02326 396.284195 
L 600.559584 393.561922 
L 601.095907 393.775777 
L 601.632231 395.833697 
L 602.168554 394.866089 
L 602.704878 395.523431 
L 603.241201 394.007162 
L 603.777525 395.537455 
L 604.313849 396.054564 
L 604.850172 396.159739 
L 605.386496 394.443637 
L 605.922819 393.323526 
L 606.459143 398.64011 
L 606.995467 398.115989 
L 607.53179 398.130013 
L 608.068114 395.320093 
L 608.604437 393.165764 
L 609.140761 394.573353 
L 609.677085 394.520765 
L 610.213408 394.724103 
L 610.749732 392.867768 
L 611.286055 395.379692 
L 611.822379 395.400727 
L 612.358702 394.790714 
L 612.895026 394.845054 
L 613.43135 393.137717 
L 613.967673 395.96166 
L 614.503997 396.385864 
L 615.04032 396.16675 
L 615.576644 394.173688 
L 616.112968 395.269259 
L 616.649291 411.930695 
L 617.185615 407.965607 
L 617.721938 406.067202 
L 618.258262 398.657639 
L 618.794586 408.167192 
L 619.330909 406.288069 
L 619.330909 406.288069 
" style="fill:none;stroke:#1f77b4;stroke-linecap:square;stroke-width:1.5;"/>
   </g>
   <g id="patch_3">
    <path d="M 108 448.56 
L 108 60.48 
" style="fill:none;stroke:#000000;stroke-linecap:square;stroke-linejoin:miter;stroke-width:0.8;"/>
   </g>
   <g id="patch_4">
    <path d="M 643.68 448.56 
L 643.68 60.48 
" style="fill:none;stroke:#000000;stroke-linecap:square;stroke-linejoin:miter;stroke-width:0.8;"/>
   </g>
   <g id="patch_5">
    <path d="M 108 448.56 
L 643.68 448.56 
" style="fill:none;stroke:#000000;stroke-linecap:square;stroke-linejoin:miter;stroke-width:0.8;"/>
   </g>
   <g id="patch_6">
    <path d="M 108 60.48 
L 643.68 60.48 
" style="fill:none;stroke:#000000;stroke-linecap:square;stroke-linejoin:miter;stroke-width:0.8;"/>
   </g>
   <g id="text_28">
    <!-- unikernel_dce-allocpool - free -->
    <g transform="translate(265.448203 54.48)scale(0.15 -0.15)">
     <defs>
      <path d="M 8.5 21.578125 
L 8.5 54.6875 
L 17.484375 54.6875 
L 17.484375 21.921875 
Q 17.484375 14.15625 20.5 10.265625 
Q 23.53125 6.390625 29.59375 6.390625 
Q 36.859375 6.390625 41.078125 11.03125 
Q 45.3125 15.671875 45.3125 23.6875 
L 45.3125 54.6875 
L 54.296875 54.6875 
L 54.296875 0 
L 45.3125 0 
L 45.3125 8.40625 
Q 42.046875 3.421875 37.71875 1 
Q 33.40625 -1.421875 27.6875 -1.421875 
Q 18.265625 -1.421875 13.375 4.4375 
Q 8.5 10.296875 8.5 21.578125 
z
M 31.109375 56 
z
" id="DejaVuSans-117"/>
      <path d="M 54.890625 33.015625 
L 54.890625 0 
L 45.90625 0 
L 45.90625 32.71875 
Q 45.90625 40.484375 42.875 44.328125 
Q 39.84375 48.1875 33.796875 48.1875 
Q 26.515625 48.1875 22.3125 43.546875 
Q 18.109375 38.921875 18.109375 30.90625 
L 18.109375 0 
L 9.078125 0 
L 9.078125 54.6875 
L 18.109375 54.6875 
L 18.109375 46.1875 
Q 21.34375 51.125 25.703125 53.5625 
Q 30.078125 56 35.796875 56 
Q 45.21875 56 50.046875 50.171875 
Q 54.890625 44.34375 54.890625 33.015625 
z
" id="DejaVuSans-110"/>
      <path d="M 9.078125 75.984375 
L 18.109375 75.984375 
L 18.109375 31.109375 
L 44.921875 54.6875 
L 56.390625 54.6875 
L 27.390625 29.109375 
L 57.625 0 
L 45.90625 0 
L 18.109375 26.703125 
L 18.109375 0 
L 9.078125 0 
z
" id="DejaVuSans-107"/>
      <path d="M 41.109375 46.296875 
Q 39.59375 47.171875 37.8125 47.578125 
Q 36.03125 48 33.890625 48 
Q 26.265625 48 22.1875 43.046875 
Q 18.109375 38.09375 18.109375 28.8125 
L 18.109375 0 
L 9.078125 0 
L 9.078125 54.6875 
L 18.109375 54.6875 
L 18.109375 46.1875 
Q 20.953125 51.171875 25.484375 53.578125 
Q 30.03125 56 36.53125 56 
Q 37.453125 56 38.578125 55.875 
Q 39.703125 55.765625 41.0625 55.515625 
z
" id="DejaVuSans-114"/>
      <path d="M 9.421875 75.984375 
L 18.40625 75.984375 
L 18.40625 0 
L 9.421875 0 
z
" id="DejaVuSans-108"/>
      <path d="M 50.984375 -16.609375 
L 50.984375 -23.578125 
L -0.984375 -23.578125 
L -0.984375 -16.609375 
z
" id="DejaVuSans-95"/>
      <path d="M 45.40625 46.390625 
L 45.40625 75.984375 
L 54.390625 75.984375 
L 54.390625 0 
L 45.40625 0 
L 45.40625 8.203125 
Q 42.578125 3.328125 38.25 0.953125 
Q 33.9375 -1.421875 27.875 -1.421875 
Q 17.96875 -1.421875 11.734375 6.484375 
Q 5.515625 14.40625 5.515625 27.296875 
Q 5.515625 40.1875 11.734375 48.09375 
Q 17.96875 56 27.875 56 
Q 33.9375 56 38.25 53.625 
Q 42.578125 51.265625 45.40625 46.390625 
z
M 14.796875 27.296875 
Q 14.796875 17.390625 18.875 11.75 
Q 22.953125 6.109375 30.078125 6.109375 
Q 37.203125 6.109375 41.296875 11.75 
Q 45.40625 17.390625 45.40625 27.296875 
Q 45.40625 37.203125 41.296875 42.84375 
Q 37.203125 48.484375 30.078125 48.484375 
Q 22.953125 48.484375 18.875 42.84375 
Q 14.796875 37.203125 14.796875 27.296875 
z
" id="DejaVuSans-100"/>
      <path d="M 48.78125 52.59375 
L 48.78125 44.1875 
Q 44.96875 46.296875 41.140625 47.34375 
Q 37.3125 48.390625 33.40625 48.390625 
Q 24.65625 48.390625 19.8125 42.84375 
Q 14.984375 37.3125 14.984375 27.296875 
Q 14.984375 17.28125 19.8125 11.734375 
Q 24.65625 6.203125 33.40625 6.203125 
Q 37.3125 6.203125 41.140625 7.25 
Q 44.96875 8.296875 48.78125 10.40625 
L 48.78125 2.09375 
Q 45.015625 0.34375 40.984375 -0.53125 
Q 36.96875 -1.421875 32.421875 -1.421875 
Q 20.0625 -1.421875 12.78125 6.34375 
Q 5.515625 14.109375 5.515625 27.296875 
Q 5.515625 40.671875 12.859375 48.328125 
Q 20.21875 56 33.015625 56 
Q 37.15625 56 41.109375 55.140625 
Q 45.0625 54.296875 48.78125 52.59375 
z
" id="DejaVuSans-99"/>
      <path d="M 4.890625 31.390625 
L 31.203125 31.390625 
L 31.203125 23.390625 
L 4.890625 23.390625 
z
" id="DejaVuSans-45"/>
      <path d="M 30.609375 48.390625 
Q 23.390625 48.390625 19.1875 42.75 
Q 14.984375 37.109375 14.984375 27.296875 
Q 14.984375 17.484375 19.15625 11.84375 
Q 23.34375 6.203125 30.609375 6.203125 
Q 37.796875 6.203125 41.984375 11.859375 
Q 46.1875 17.53125 46.1875 27.296875 
Q 46.1875 37.015625 41.984375 42.703125 
Q 37.796875 48.390625 30.609375 48.390625 
z
M 30.609375 56 
Q 42.328125 56 49.015625 48.375 
Q 55.71875 40.765625 55.71875 27.296875 
Q 55.71875 13.875 49.015625 6.21875 
Q 42.328125 -1.421875 30.609375 -1.421875 
Q 18.84375 -1.421875 12.171875 6.21875 
Q 5.515625 13.875 5.515625 27.296875 
Q 5.515625 40.765625 12.171875 48.375 
Q 18.84375 56 30.609375 56 
z
" id="DejaVuSans-111"/>
      <path id="DejaVuSans-32"/>
      <path d="M 37.109375 75.984375 
L 37.109375 68.5 
L 28.515625 68.5 
Q 23.6875 68.5 21.796875 66.546875 
Q 19.921875 64.59375 19.921875 59.515625 
L 19.921875 54.6875 
L 34.71875 54.6875 
L 34.71875 47.703125 
L 19.921875 47.703125 
L 19.921875 0 
L 10.890625 0 
L 10.890625 47.703125 
L 2.296875 47.703125 
L 2.296875 54.6875 
L 10.890625 54.6875 
L 10.890625 58.5 
Q 10.890625 67.625 15.140625 71.796875 
Q 19.390625 75.984375 28.609375 75.984375 
z
" id="DejaVuSans-102"/>
     </defs>
     <use xlink:href="#DejaVuSans-117"/>
     <use x="63.378906" xlink:href="#DejaVuSans-110"/>
     <use x="126.757812" xlink:href="#DejaVuSans-105"/>
     <use x="154.541016" xlink:href="#DejaVuSans-107"/>
     <use x="208.826172" xlink:href="#DejaVuSans-101"/>
     <use x="270.349609" xlink:href="#DejaVuSans-114"/>
     <use x="309.712891" xlink:href="#DejaVuSans-110"/>
     <use x="373.091797" xlink:href="#DejaVuSans-101"/>
     <use x="434.615234" xlink:href="#DejaVuSans-108"/>
     <use x="462.398438" xlink:href="#DejaVuSans-95"/>
     <use x="512.398438" xlink:href="#DejaVuSans-100"/>
     <use x="575.875" xlink:href="#DejaVuSans-99"/>
     <use x="630.855469" xlink:href="#DejaVuSans-101"/>
     <use x="692.378906" xlink:href="#DejaVuSans-45"/>
     <use x="728.462891" xlink:href="#DejaVuSans-97"/>
     <use x="789.742188" xlink:href="#DejaVuSans-108"/>
     <use x="817.525391" xlink:href="#DejaVuSans-108"/>
     <use x="845.308594" xlink:href="#DejaVuSans-111"/>
     <use x="906.490234" xlink:href="#DejaVuSans-99"/>
     <use x="961.470703" xlink:href="#DejaVuSans-112"/>
     <use x="1024.947266" xlink:href="#DejaVuSans-111"/>
     <use x="1086.128906" xlink:href="#DejaVuSans-111"/>
     <use x="1147.310547" xlink:href="#DejaVuSans-108"/>
     <use x="1175.09375" xlink:href="#DejaVuSans-32"/>
     <use x="1206.880859" xlink:href="#DejaVuSans-45"/>
     <use x="1242.964844" xlink:href="#DejaVuSans-32"/>
     <use x="1274.751953" xlink:href="#DejaVuSans-102"/>
     <use x="1309.957031" xlink:href="#DejaVuSans-114"/>
     <use x="1348.820312" xlink:href="#DejaVuSans-101"/>
     <use x="1410.34375" xlink:href="#DejaVuSans-101"/>
    </g>
   </g>
   <g id="legend_1">
    <g id="patch_7">
     <path d="M 650.68 258.52 
L 654.68 258.52 
Q 656.68 258.52 656.68 256.52 
L 656.68 252.52 
Q 656.68 250.52 654.68 250.52 
L 650.68 250.52 
Q 648.68 250.52 648.68 252.52 
L 648.68 256.52 
Q 648.68 258.52 650.68 258.52 
z
" style="fill:#ffffff;opacity:0.8;stroke:#cccccc;stroke-linejoin:miter;"/>
    </g>
   </g>
  </g>
 </g>
 <defs>
  <clipPath id="pdfa6b8647a">
   <rect height="388.08" width="535.68" x="108" y="60.48"/>
  </clipPath>
 </defs>
</svg>
