<?xml version="1.0" encoding="utf-8" standalone="no"?>
<!DOCTYPE svg PUBLIC "-//W3C//DTD SVG 1.1//EN"
  "http://www.w3.org/Graphics/SVG/1.1/DTD/svg11.dtd">
<!-- Created with matplotlib (https://matplotlib.org/) -->
<svg height="504pt" version="1.1" viewBox="0 0 864 504" width="864pt" xmlns="http://www.w3.org/2000/svg" xmlns:xlink="http://www.w3.org/1999/xlink">
 <metadata>
  <rdf:RDF xmlns:cc="http://creativecommons.org/ns#" xmlns:dc="http://purl.org/dc/elements/1.1/" xmlns:rdf="http://www.w3.org/1999/02/22-rdf-syntax-ns#">
   <cc:Work>
    <dc:type rdf:resource="http://purl.org/dc/dcmitype/StillImage"/>
    <dc:date>2022-05-29T17:23:51.802920</dc:date>
    <dc:format>image/svg+xml</dc:format>
    <dc:creator>
     <cc:Agent>
      <dc:title>Matplotlib v3.3.4, https://matplotlib.org/</dc:title>
     </cc:Agent>
    </dc:creator>
   </cc:Work>
  </rdf:RDF>
 </metadata>
 <defs>
  <style type="text/css">*{stroke-linecap:butt;stroke-linejoin:round;}</style>
 </defs>
 <g id="figure_1">
  <g id="patch_1">
   <path d="M 0 504 
L 864 504 
L 864 0 
L 0 0 
z
" style="fill:#ffffff;"/>
  </g>
  <g id="axes_1">
   <g id="patch_2">
    <path d="M 108 448.56 
L 643.68 448.56 
L 643.68 60.48 
L 108 60.48 
z
" style="fill:#ffffff;"/>
   </g>
   <g id="matplotlib.axis_1">
    <g id="xtick_1">
     <g id="line2d_1">
      <defs>
       <path d="M 0 0 
L 0 3.5 
" id="m43057a87f2" style="stroke:#000000;stroke-width:0.8;"/>
      </defs>
      <g>
       <use style="stroke:#000000;stroke-width:0.8;" x="132.349091" xlink:href="#m43057a87f2" y="448.56"/>
      </g>
     </g>
     <g id="text_1">
      <!-- 13:05:53 -->
      <g transform="translate(135.108466 500.4725)rotate(-90)scale(0.1 -0.1)">
       <defs>
        <path d="M 12.40625 8.296875 
L 28.515625 8.296875 
L 28.515625 63.921875 
L 10.984375 60.40625 
L 10.984375 69.390625 
L 28.421875 72.90625 
L 38.28125 72.90625 
L 38.28125 8.296875 
L 54.390625 8.296875 
L 54.390625 0 
L 12.40625 0 
z
" id="DejaVuSans-49"/>
        <path d="M 40.578125 39.3125 
Q 47.65625 37.796875 51.625 33 
Q 55.609375 28.21875 55.609375 21.1875 
Q 55.609375 10.40625 48.1875 4.484375 
Q 40.765625 -1.421875 27.09375 -1.421875 
Q 22.515625 -1.421875 17.65625 -0.515625 
Q 12.796875 0.390625 7.625 2.203125 
L 7.625 11.71875 
Q 11.71875 9.328125 16.59375 8.109375 
Q 21.484375 6.890625 26.8125 6.890625 
Q 36.078125 6.890625 40.9375 10.546875 
Q 45.796875 14.203125 45.796875 21.1875 
Q 45.796875 27.640625 41.28125 31.265625 
Q 36.765625 34.90625 28.71875 34.90625 
L 20.21875 34.90625 
L 20.21875 43.015625 
L 29.109375 43.015625 
Q 36.375 43.015625 40.234375 45.921875 
Q 44.09375 48.828125 44.09375 54.296875 
Q 44.09375 59.90625 40.109375 62.90625 
Q 36.140625 65.921875 28.71875 65.921875 
Q 24.65625 65.921875 20.015625 65.03125 
Q 15.375 64.15625 9.8125 62.3125 
L 9.8125 71.09375 
Q 15.4375 72.65625 20.34375 73.4375 
Q 25.25 74.21875 29.59375 74.21875 
Q 40.828125 74.21875 47.359375 69.109375 
Q 53.90625 64.015625 53.90625 55.328125 
Q 53.90625 49.265625 50.4375 45.09375 
Q 46.96875 40.921875 40.578125 39.3125 
z
" id="DejaVuSans-51"/>
        <path d="M 11.71875 12.40625 
L 22.015625 12.40625 
L 22.015625 0 
L 11.71875 0 
z
M 11.71875 51.703125 
L 22.015625 51.703125 
L 22.015625 39.3125 
L 11.71875 39.3125 
z
" id="DejaVuSans-58"/>
        <path d="M 31.78125 66.40625 
Q 24.171875 66.40625 20.328125 58.90625 
Q 16.5 51.421875 16.5 36.375 
Q 16.5 21.390625 20.328125 13.890625 
Q 24.171875 6.390625 31.78125 6.390625 
Q 39.453125 6.390625 43.28125 13.890625 
Q 47.125 21.390625 47.125 36.375 
Q 47.125 51.421875 43.28125 58.90625 
Q 39.453125 66.40625 31.78125 66.40625 
z
M 31.78125 74.21875 
Q 44.046875 74.21875 50.515625 64.515625 
Q 56.984375 54.828125 56.984375 36.375 
Q 56.984375 17.96875 50.515625 8.265625 
Q 44.046875 -1.421875 31.78125 -1.421875 
Q 19.53125 -1.421875 13.0625 8.265625 
Q 6.59375 17.96875 6.59375 36.375 
Q 6.59375 54.828125 13.0625 64.515625 
Q 19.53125 74.21875 31.78125 74.21875 
z
" id="DejaVuSans-48"/>
        <path d="M 10.796875 72.90625 
L 49.515625 72.90625 
L 49.515625 64.59375 
L 19.828125 64.59375 
L 19.828125 46.734375 
Q 21.96875 47.46875 24.109375 47.828125 
Q 26.265625 48.1875 28.421875 48.1875 
Q 40.625 48.1875 47.75 41.5 
Q 54.890625 34.8125 54.890625 23.390625 
Q 54.890625 11.625 47.5625 5.09375 
Q 40.234375 -1.421875 26.90625 -1.421875 
Q 22.3125 -1.421875 17.546875 -0.640625 
Q 12.796875 0.140625 7.71875 1.703125 
L 7.71875 11.625 
Q 12.109375 9.234375 16.796875 8.0625 
Q 21.484375 6.890625 26.703125 6.890625 
Q 35.15625 6.890625 40.078125 11.328125 
Q 45.015625 15.765625 45.015625 23.390625 
Q 45.015625 31 40.078125 35.4375 
Q 35.15625 39.890625 26.703125 39.890625 
Q 22.75 39.890625 18.8125 39.015625 
Q 14.890625 38.140625 10.796875 36.28125 
z
" id="DejaVuSans-53"/>
       </defs>
       <use xlink:href="#DejaVuSans-49"/>
       <use x="63.623047" xlink:href="#DejaVuSans-51"/>
       <use x="127.246094" xlink:href="#DejaVuSans-58"/>
       <use x="160.9375" xlink:href="#DejaVuSans-48"/>
       <use x="224.560547" xlink:href="#DejaVuSans-53"/>
       <use x="288.183594" xlink:href="#DejaVuSans-58"/>
       <use x="321.875" xlink:href="#DejaVuSans-53"/>
       <use x="385.498047" xlink:href="#DejaVuSans-51"/>
      </g>
     </g>
    </g>
    <g id="xtick_2">
     <g id="line2d_2">
      <g>
       <use style="stroke:#000000;stroke-width:0.8;" x="156.623871" xlink:href="#m43057a87f2" y="448.56"/>
      </g>
     </g>
     <g id="text_2">
      <!-- 13:06:45 -->
      <g transform="translate(159.383246 500.4725)rotate(-90)scale(0.1 -0.1)">
       <defs>
        <path d="M 33.015625 40.375 
Q 26.375 40.375 22.484375 35.828125 
Q 18.609375 31.296875 18.609375 23.390625 
Q 18.609375 15.53125 22.484375 10.953125 
Q 26.375 6.390625 33.015625 6.390625 
Q 39.65625 6.390625 43.53125 10.953125 
Q 47.40625 15.53125 47.40625 23.390625 
Q 47.40625 31.296875 43.53125 35.828125 
Q 39.65625 40.375 33.015625 40.375 
z
M 52.59375 71.296875 
L 52.59375 62.3125 
Q 48.875 64.0625 45.09375 64.984375 
Q 41.3125 65.921875 37.59375 65.921875 
Q 27.828125 65.921875 22.671875 59.328125 
Q 17.53125 52.734375 16.796875 39.40625 
Q 19.671875 43.65625 24.015625 45.921875 
Q 28.375 48.1875 33.59375 48.1875 
Q 44.578125 48.1875 50.953125 41.515625 
Q 57.328125 34.859375 57.328125 23.390625 
Q 57.328125 12.15625 50.6875 5.359375 
Q 44.046875 -1.421875 33.015625 -1.421875 
Q 20.359375 -1.421875 13.671875 8.265625 
Q 6.984375 17.96875 6.984375 36.375 
Q 6.984375 53.65625 15.1875 63.9375 
Q 23.390625 74.21875 37.203125 74.21875 
Q 40.921875 74.21875 44.703125 73.484375 
Q 48.484375 72.75 52.59375 71.296875 
z
" id="DejaVuSans-54"/>
        <path d="M 37.796875 64.3125 
L 12.890625 25.390625 
L 37.796875 25.390625 
z
M 35.203125 72.90625 
L 47.609375 72.90625 
L 47.609375 25.390625 
L 58.015625 25.390625 
L 58.015625 17.1875 
L 47.609375 17.1875 
L 47.609375 0 
L 37.796875 0 
L 37.796875 17.1875 
L 4.890625 17.1875 
L 4.890625 26.703125 
z
" id="DejaVuSans-52"/>
       </defs>
       <use xlink:href="#DejaVuSans-49"/>
       <use x="63.623047" xlink:href="#DejaVuSans-51"/>
       <use x="127.246094" xlink:href="#DejaVuSans-58"/>
       <use x="160.9375" xlink:href="#DejaVuSans-48"/>
       <use x="224.560547" xlink:href="#DejaVuSans-54"/>
       <use x="288.183594" xlink:href="#DejaVuSans-58"/>
       <use x="321.875" xlink:href="#DejaVuSans-52"/>
       <use x="385.498047" xlink:href="#DejaVuSans-53"/>
      </g>
     </g>
    </g>
    <g id="xtick_3">
     <g id="line2d_3">
      <g>
       <use style="stroke:#000000;stroke-width:0.8;" x="180.898652" xlink:href="#m43057a87f2" y="448.56"/>
      </g>
     </g>
     <g id="text_3">
      <!-- 13:07:37 -->
      <g transform="translate(183.658027 500.4725)rotate(-90)scale(0.1 -0.1)">
       <defs>
        <path d="M 8.203125 72.90625 
L 55.078125 72.90625 
L 55.078125 68.703125 
L 28.609375 0 
L 18.3125 0 
L 43.21875 64.59375 
L 8.203125 64.59375 
z
" id="DejaVuSans-55"/>
       </defs>
       <use xlink:href="#DejaVuSans-49"/>
       <use x="63.623047" xlink:href="#DejaVuSans-51"/>
       <use x="127.246094" xlink:href="#DejaVuSans-58"/>
       <use x="160.9375" xlink:href="#DejaVuSans-48"/>
       <use x="224.560547" xlink:href="#DejaVuSans-55"/>
       <use x="288.183594" xlink:href="#DejaVuSans-58"/>
       <use x="321.875" xlink:href="#DejaVuSans-51"/>
       <use x="385.498047" xlink:href="#DejaVuSans-55"/>
      </g>
     </g>
    </g>
    <g id="xtick_4">
     <g id="line2d_4">
      <g>
       <use style="stroke:#000000;stroke-width:0.8;" x="205.173432" xlink:href="#m43057a87f2" y="448.56"/>
      </g>
     </g>
     <g id="text_4">
      <!-- 13:08:29 -->
      <g transform="translate(207.932807 500.4725)rotate(-90)scale(0.1 -0.1)">
       <defs>
        <path d="M 31.78125 34.625 
Q 24.75 34.625 20.71875 30.859375 
Q 16.703125 27.09375 16.703125 20.515625 
Q 16.703125 13.921875 20.71875 10.15625 
Q 24.75 6.390625 31.78125 6.390625 
Q 38.8125 6.390625 42.859375 10.171875 
Q 46.921875 13.96875 46.921875 20.515625 
Q 46.921875 27.09375 42.890625 30.859375 
Q 38.875 34.625 31.78125 34.625 
z
M 21.921875 38.8125 
Q 15.578125 40.375 12.03125 44.71875 
Q 8.5 49.078125 8.5 55.328125 
Q 8.5 64.0625 14.71875 69.140625 
Q 20.953125 74.21875 31.78125 74.21875 
Q 42.671875 74.21875 48.875 69.140625 
Q 55.078125 64.0625 55.078125 55.328125 
Q 55.078125 49.078125 51.53125 44.71875 
Q 48 40.375 41.703125 38.8125 
Q 48.828125 37.15625 52.796875 32.3125 
Q 56.78125 27.484375 56.78125 20.515625 
Q 56.78125 9.90625 50.3125 4.234375 
Q 43.84375 -1.421875 31.78125 -1.421875 
Q 19.734375 -1.421875 13.25 4.234375 
Q 6.78125 9.90625 6.78125 20.515625 
Q 6.78125 27.484375 10.78125 32.3125 
Q 14.796875 37.15625 21.921875 38.8125 
z
M 18.3125 54.390625 
Q 18.3125 48.734375 21.84375 45.5625 
Q 25.390625 42.390625 31.78125 42.390625 
Q 38.140625 42.390625 41.71875 45.5625 
Q 45.3125 48.734375 45.3125 54.390625 
Q 45.3125 60.0625 41.71875 63.234375 
Q 38.140625 66.40625 31.78125 66.40625 
Q 25.390625 66.40625 21.84375 63.234375 
Q 18.3125 60.0625 18.3125 54.390625 
z
" id="DejaVuSans-56"/>
        <path d="M 19.1875 8.296875 
L 53.609375 8.296875 
L 53.609375 0 
L 7.328125 0 
L 7.328125 8.296875 
Q 12.9375 14.109375 22.625 23.890625 
Q 32.328125 33.6875 34.8125 36.53125 
Q 39.546875 41.84375 41.421875 45.53125 
Q 43.3125 49.21875 43.3125 52.78125 
Q 43.3125 58.59375 39.234375 62.25 
Q 35.15625 65.921875 28.609375 65.921875 
Q 23.96875 65.921875 18.8125 64.3125 
Q 13.671875 62.703125 7.8125 59.421875 
L 7.8125 69.390625 
Q 13.765625 71.78125 18.9375 73 
Q 24.125 74.21875 28.421875 74.21875 
Q 39.75 74.21875 46.484375 68.546875 
Q 53.21875 62.890625 53.21875 53.421875 
Q 53.21875 48.921875 51.53125 44.890625 
Q 49.859375 40.875 45.40625 35.40625 
Q 44.1875 33.984375 37.640625 27.21875 
Q 31.109375 20.453125 19.1875 8.296875 
z
" id="DejaVuSans-50"/>
        <path d="M 10.984375 1.515625 
L 10.984375 10.5 
Q 14.703125 8.734375 18.5 7.8125 
Q 22.3125 6.890625 25.984375 6.890625 
Q 35.75 6.890625 40.890625 13.453125 
Q 46.046875 20.015625 46.78125 33.40625 
Q 43.953125 29.203125 39.59375 26.953125 
Q 35.25 24.703125 29.984375 24.703125 
Q 19.046875 24.703125 12.671875 31.3125 
Q 6.296875 37.9375 6.296875 49.421875 
Q 6.296875 60.640625 12.9375 67.421875 
Q 19.578125 74.21875 30.609375 74.21875 
Q 43.265625 74.21875 49.921875 64.515625 
Q 56.59375 54.828125 56.59375 36.375 
Q 56.59375 19.140625 48.40625 8.859375 
Q 40.234375 -1.421875 26.421875 -1.421875 
Q 22.703125 -1.421875 18.890625 -0.6875 
Q 15.09375 0.046875 10.984375 1.515625 
z
M 30.609375 32.421875 
Q 37.25 32.421875 41.125 36.953125 
Q 45.015625 41.5 45.015625 49.421875 
Q 45.015625 57.28125 41.125 61.84375 
Q 37.25 66.40625 30.609375 66.40625 
Q 23.96875 66.40625 20.09375 61.84375 
Q 16.21875 57.28125 16.21875 49.421875 
Q 16.21875 41.5 20.09375 36.953125 
Q 23.96875 32.421875 30.609375 32.421875 
z
" id="DejaVuSans-57"/>
       </defs>
       <use xlink:href="#DejaVuSans-49"/>
       <use x="63.623047" xlink:href="#DejaVuSans-51"/>
       <use x="127.246094" xlink:href="#DejaVuSans-58"/>
       <use x="160.9375" xlink:href="#DejaVuSans-48"/>
       <use x="224.560547" xlink:href="#DejaVuSans-56"/>
       <use x="288.183594" xlink:href="#DejaVuSans-58"/>
       <use x="321.875" xlink:href="#DejaVuSans-50"/>
       <use x="385.498047" xlink:href="#DejaVuSans-57"/>
      </g>
     </g>
    </g>
    <g id="xtick_5">
     <g id="line2d_5">
      <g>
       <use style="stroke:#000000;stroke-width:0.8;" x="229.448212" xlink:href="#m43057a87f2" y="448.56"/>
      </g>
     </g>
     <g id="text_5">
      <!-- 13:09:20 -->
      <g transform="translate(232.207587 500.4725)rotate(-90)scale(0.1 -0.1)">
       <use xlink:href="#DejaVuSans-49"/>
       <use x="63.623047" xlink:href="#DejaVuSans-51"/>
       <use x="127.246094" xlink:href="#DejaVuSans-58"/>
       <use x="160.9375" xlink:href="#DejaVuSans-48"/>
       <use x="224.560547" xlink:href="#DejaVuSans-57"/>
       <use x="288.183594" xlink:href="#DejaVuSans-58"/>
       <use x="321.875" xlink:href="#DejaVuSans-50"/>
       <use x="385.498047" xlink:href="#DejaVuSans-48"/>
      </g>
     </g>
    </g>
    <g id="xtick_6">
     <g id="line2d_6">
      <g>
       <use style="stroke:#000000;stroke-width:0.8;" x="253.722993" xlink:href="#m43057a87f2" y="448.56"/>
      </g>
     </g>
     <g id="text_6">
      <!-- 13:10:12 -->
      <g transform="translate(256.482368 500.4725)rotate(-90)scale(0.1 -0.1)">
       <use xlink:href="#DejaVuSans-49"/>
       <use x="63.623047" xlink:href="#DejaVuSans-51"/>
       <use x="127.246094" xlink:href="#DejaVuSans-58"/>
       <use x="160.9375" xlink:href="#DejaVuSans-49"/>
       <use x="224.560547" xlink:href="#DejaVuSans-48"/>
       <use x="288.183594" xlink:href="#DejaVuSans-58"/>
       <use x="321.875" xlink:href="#DejaVuSans-49"/>
       <use x="385.498047" xlink:href="#DejaVuSans-50"/>
      </g>
     </g>
    </g>
    <g id="xtick_7">
     <g id="line2d_7">
      <g>
       <use style="stroke:#000000;stroke-width:0.8;" x="277.997773" xlink:href="#m43057a87f2" y="448.56"/>
      </g>
     </g>
     <g id="text_7">
      <!-- 13:11:04 -->
      <g transform="translate(280.757148 500.4725)rotate(-90)scale(0.1 -0.1)">
       <use xlink:href="#DejaVuSans-49"/>
       <use x="63.623047" xlink:href="#DejaVuSans-51"/>
       <use x="127.246094" xlink:href="#DejaVuSans-58"/>
       <use x="160.9375" xlink:href="#DejaVuSans-49"/>
       <use x="224.560547" xlink:href="#DejaVuSans-49"/>
       <use x="288.183594" xlink:href="#DejaVuSans-58"/>
       <use x="321.875" xlink:href="#DejaVuSans-48"/>
       <use x="385.498047" xlink:href="#DejaVuSans-52"/>
      </g>
     </g>
    </g>
    <g id="xtick_8">
     <g id="line2d_8">
      <g>
       <use style="stroke:#000000;stroke-width:0.8;" x="302.272553" xlink:href="#m43057a87f2" y="448.56"/>
      </g>
     </g>
     <g id="text_8">
      <!-- 13:11:55 -->
      <g transform="translate(305.031928 500.4725)rotate(-90)scale(0.1 -0.1)">
       <use xlink:href="#DejaVuSans-49"/>
       <use x="63.623047" xlink:href="#DejaVuSans-51"/>
       <use x="127.246094" xlink:href="#DejaVuSans-58"/>
       <use x="160.9375" xlink:href="#DejaVuSans-49"/>
       <use x="224.560547" xlink:href="#DejaVuSans-49"/>
       <use x="288.183594" xlink:href="#DejaVuSans-58"/>
       <use x="321.875" xlink:href="#DejaVuSans-53"/>
       <use x="385.498047" xlink:href="#DejaVuSans-53"/>
      </g>
     </g>
    </g>
    <g id="xtick_9">
     <g id="line2d_9">
      <g>
       <use style="stroke:#000000;stroke-width:0.8;" x="326.547334" xlink:href="#m43057a87f2" y="448.56"/>
      </g>
     </g>
     <g id="text_9">
      <!-- 13:12:47 -->
      <g transform="translate(329.306709 500.4725)rotate(-90)scale(0.1 -0.1)">
       <use xlink:href="#DejaVuSans-49"/>
       <use x="63.623047" xlink:href="#DejaVuSans-51"/>
       <use x="127.246094" xlink:href="#DejaVuSans-58"/>
       <use x="160.9375" xlink:href="#DejaVuSans-49"/>
       <use x="224.560547" xlink:href="#DejaVuSans-50"/>
       <use x="288.183594" xlink:href="#DejaVuSans-58"/>
       <use x="321.875" xlink:href="#DejaVuSans-52"/>
       <use x="385.498047" xlink:href="#DejaVuSans-55"/>
      </g>
     </g>
    </g>
    <g id="xtick_10">
     <g id="line2d_10">
      <g>
       <use style="stroke:#000000;stroke-width:0.8;" x="350.822114" xlink:href="#m43057a87f2" y="448.56"/>
      </g>
     </g>
     <g id="text_10">
      <!-- 13:13:39 -->
      <g transform="translate(353.581489 500.4725)rotate(-90)scale(0.1 -0.1)">
       <use xlink:href="#DejaVuSans-49"/>
       <use x="63.623047" xlink:href="#DejaVuSans-51"/>
       <use x="127.246094" xlink:href="#DejaVuSans-58"/>
       <use x="160.9375" xlink:href="#DejaVuSans-49"/>
       <use x="224.560547" xlink:href="#DejaVuSans-51"/>
       <use x="288.183594" xlink:href="#DejaVuSans-58"/>
       <use x="321.875" xlink:href="#DejaVuSans-51"/>
       <use x="385.498047" xlink:href="#DejaVuSans-57"/>
      </g>
     </g>
    </g>
    <g id="xtick_11">
     <g id="line2d_11">
      <g>
       <use style="stroke:#000000;stroke-width:0.8;" x="375.096894" xlink:href="#m43057a87f2" y="448.56"/>
      </g>
     </g>
     <g id="text_11">
      <!-- 13:14:31 -->
      <g transform="translate(377.856269 500.4725)rotate(-90)scale(0.1 -0.1)">
       <use xlink:href="#DejaVuSans-49"/>
       <use x="63.623047" xlink:href="#DejaVuSans-51"/>
       <use x="127.246094" xlink:href="#DejaVuSans-58"/>
       <use x="160.9375" xlink:href="#DejaVuSans-49"/>
       <use x="224.560547" xlink:href="#DejaVuSans-52"/>
       <use x="288.183594" xlink:href="#DejaVuSans-58"/>
       <use x="321.875" xlink:href="#DejaVuSans-51"/>
       <use x="385.498047" xlink:href="#DejaVuSans-49"/>
      </g>
     </g>
    </g>
    <g id="xtick_12">
     <g id="line2d_12">
      <g>
       <use style="stroke:#000000;stroke-width:0.8;" x="399.371675" xlink:href="#m43057a87f2" y="448.56"/>
      </g>
     </g>
     <g id="text_12">
      <!-- 13:15:22 -->
      <g transform="translate(402.13105 500.4725)rotate(-90)scale(0.1 -0.1)">
       <use xlink:href="#DejaVuSans-49"/>
       <use x="63.623047" xlink:href="#DejaVuSans-51"/>
       <use x="127.246094" xlink:href="#DejaVuSans-58"/>
       <use x="160.9375" xlink:href="#DejaVuSans-49"/>
       <use x="224.560547" xlink:href="#DejaVuSans-53"/>
       <use x="288.183594" xlink:href="#DejaVuSans-58"/>
       <use x="321.875" xlink:href="#DejaVuSans-50"/>
       <use x="385.498047" xlink:href="#DejaVuSans-50"/>
      </g>
     </g>
    </g>
    <g id="xtick_13">
     <g id="line2d_13">
      <g>
       <use style="stroke:#000000;stroke-width:0.8;" x="423.646455" xlink:href="#m43057a87f2" y="448.56"/>
      </g>
     </g>
     <g id="text_13">
      <!-- 13:16:14 -->
      <g transform="translate(426.40583 500.4725)rotate(-90)scale(0.1 -0.1)">
       <use xlink:href="#DejaVuSans-49"/>
       <use x="63.623047" xlink:href="#DejaVuSans-51"/>
       <use x="127.246094" xlink:href="#DejaVuSans-58"/>
       <use x="160.9375" xlink:href="#DejaVuSans-49"/>
       <use x="224.560547" xlink:href="#DejaVuSans-54"/>
       <use x="288.183594" xlink:href="#DejaVuSans-58"/>
       <use x="321.875" xlink:href="#DejaVuSans-49"/>
       <use x="385.498047" xlink:href="#DejaVuSans-52"/>
      </g>
     </g>
    </g>
    <g id="xtick_14">
     <g id="line2d_14">
      <g>
       <use style="stroke:#000000;stroke-width:0.8;" x="447.921236" xlink:href="#m43057a87f2" y="448.56"/>
      </g>
     </g>
     <g id="text_14">
      <!-- 13:17:06 -->
      <g transform="translate(450.680611 500.4725)rotate(-90)scale(0.1 -0.1)">
       <use xlink:href="#DejaVuSans-49"/>
       <use x="63.623047" xlink:href="#DejaVuSans-51"/>
       <use x="127.246094" xlink:href="#DejaVuSans-58"/>
       <use x="160.9375" xlink:href="#DejaVuSans-49"/>
       <use x="224.560547" xlink:href="#DejaVuSans-55"/>
       <use x="288.183594" xlink:href="#DejaVuSans-58"/>
       <use x="321.875" xlink:href="#DejaVuSans-48"/>
       <use x="385.498047" xlink:href="#DejaVuSans-54"/>
      </g>
     </g>
    </g>
    <g id="xtick_15">
     <g id="line2d_15">
      <g>
       <use style="stroke:#000000;stroke-width:0.8;" x="472.196016" xlink:href="#m43057a87f2" y="448.56"/>
      </g>
     </g>
     <g id="text_15">
      <!-- 13:17:58 -->
      <g transform="translate(474.955391 500.4725)rotate(-90)scale(0.1 -0.1)">
       <use xlink:href="#DejaVuSans-49"/>
       <use x="63.623047" xlink:href="#DejaVuSans-51"/>
       <use x="127.246094" xlink:href="#DejaVuSans-58"/>
       <use x="160.9375" xlink:href="#DejaVuSans-49"/>
       <use x="224.560547" xlink:href="#DejaVuSans-55"/>
       <use x="288.183594" xlink:href="#DejaVuSans-58"/>
       <use x="321.875" xlink:href="#DejaVuSans-53"/>
       <use x="385.498047" xlink:href="#DejaVuSans-56"/>
      </g>
     </g>
    </g>
    <g id="xtick_16">
     <g id="line2d_16">
      <g>
       <use style="stroke:#000000;stroke-width:0.8;" x="496.470796" xlink:href="#m43057a87f2" y="448.56"/>
      </g>
     </g>
     <g id="text_16">
      <!-- 13:18:49 -->
      <g transform="translate(499.230171 500.4725)rotate(-90)scale(0.1 -0.1)">
       <use xlink:href="#DejaVuSans-49"/>
       <use x="63.623047" xlink:href="#DejaVuSans-51"/>
       <use x="127.246094" xlink:href="#DejaVuSans-58"/>
       <use x="160.9375" xlink:href="#DejaVuSans-49"/>
       <use x="224.560547" xlink:href="#DejaVuSans-56"/>
       <use x="288.183594" xlink:href="#DejaVuSans-58"/>
       <use x="321.875" xlink:href="#DejaVuSans-52"/>
       <use x="385.498047" xlink:href="#DejaVuSans-57"/>
      </g>
     </g>
    </g>
    <g id="xtick_17">
     <g id="line2d_17">
      <g>
       <use style="stroke:#000000;stroke-width:0.8;" x="520.745577" xlink:href="#m43057a87f2" y="448.56"/>
      </g>
     </g>
     <g id="text_17">
      <!-- 13:19:41 -->
      <g transform="translate(523.504952 500.4725)rotate(-90)scale(0.1 -0.1)">
       <use xlink:href="#DejaVuSans-49"/>
       <use x="63.623047" xlink:href="#DejaVuSans-51"/>
       <use x="127.246094" xlink:href="#DejaVuSans-58"/>
       <use x="160.9375" xlink:href="#DejaVuSans-49"/>
       <use x="224.560547" xlink:href="#DejaVuSans-57"/>
       <use x="288.183594" xlink:href="#DejaVuSans-58"/>
       <use x="321.875" xlink:href="#DejaVuSans-52"/>
       <use x="385.498047" xlink:href="#DejaVuSans-49"/>
      </g>
     </g>
    </g>
    <g id="xtick_18">
     <g id="line2d_18">
      <g>
       <use style="stroke:#000000;stroke-width:0.8;" x="545.020357" xlink:href="#m43057a87f2" y="448.56"/>
      </g>
     </g>
     <g id="text_18">
      <!-- 13:20:33 -->
      <g transform="translate(547.779732 500.4725)rotate(-90)scale(0.1 -0.1)">
       <use xlink:href="#DejaVuSans-49"/>
       <use x="63.623047" xlink:href="#DejaVuSans-51"/>
       <use x="127.246094" xlink:href="#DejaVuSans-58"/>
       <use x="160.9375" xlink:href="#DejaVuSans-50"/>
       <use x="224.560547" xlink:href="#DejaVuSans-48"/>
       <use x="288.183594" xlink:href="#DejaVuSans-58"/>
       <use x="321.875" xlink:href="#DejaVuSans-51"/>
       <use x="385.498047" xlink:href="#DejaVuSans-51"/>
      </g>
     </g>
    </g>
    <g id="xtick_19">
     <g id="line2d_19">
      <g>
       <use style="stroke:#000000;stroke-width:0.8;" x="569.295137" xlink:href="#m43057a87f2" y="448.56"/>
      </g>
     </g>
     <g id="text_19">
      <!-- 13:21:25 -->
      <g transform="translate(572.054512 500.4725)rotate(-90)scale(0.1 -0.1)">
       <use xlink:href="#DejaVuSans-49"/>
       <use x="63.623047" xlink:href="#DejaVuSans-51"/>
       <use x="127.246094" xlink:href="#DejaVuSans-58"/>
       <use x="160.9375" xlink:href="#DejaVuSans-50"/>
       <use x="224.560547" xlink:href="#DejaVuSans-49"/>
       <use x="288.183594" xlink:href="#DejaVuSans-58"/>
       <use x="321.875" xlink:href="#DejaVuSans-50"/>
       <use x="385.498047" xlink:href="#DejaVuSans-53"/>
      </g>
     </g>
    </g>
    <g id="xtick_20">
     <g id="line2d_20">
      <g>
       <use style="stroke:#000000;stroke-width:0.8;" x="593.569918" xlink:href="#m43057a87f2" y="448.56"/>
      </g>
     </g>
     <g id="text_20">
      <!-- 13:22:17 -->
      <g transform="translate(596.329293 500.4725)rotate(-90)scale(0.1 -0.1)">
       <use xlink:href="#DejaVuSans-49"/>
       <use x="63.623047" xlink:href="#DejaVuSans-51"/>
       <use x="127.246094" xlink:href="#DejaVuSans-58"/>
       <use x="160.9375" xlink:href="#DejaVuSans-50"/>
       <use x="224.560547" xlink:href="#DejaVuSans-50"/>
       <use x="288.183594" xlink:href="#DejaVuSans-58"/>
       <use x="321.875" xlink:href="#DejaVuSans-49"/>
       <use x="385.498047" xlink:href="#DejaVuSans-55"/>
      </g>
     </g>
    </g>
    <g id="xtick_21">
     <g id="line2d_21">
      <g>
       <use style="stroke:#000000;stroke-width:0.8;" x="617.844698" xlink:href="#m43057a87f2" y="448.56"/>
      </g>
     </g>
     <g id="text_21">
      <!-- 13:23:09 -->
      <g transform="translate(620.604073 500.4725)rotate(-90)scale(0.1 -0.1)">
       <use xlink:href="#DejaVuSans-49"/>
       <use x="63.623047" xlink:href="#DejaVuSans-51"/>
       <use x="127.246094" xlink:href="#DejaVuSans-58"/>
       <use x="160.9375" xlink:href="#DejaVuSans-50"/>
       <use x="224.560547" xlink:href="#DejaVuSans-51"/>
       <use x="288.183594" xlink:href="#DejaVuSans-58"/>
       <use x="321.875" xlink:href="#DejaVuSans-48"/>
       <use x="385.498047" xlink:href="#DejaVuSans-57"/>
      </g>
     </g>
    </g>
    <g id="text_22">
     <!-- timestamp -->
     <g transform="translate(354.264375 510.55125)scale(0.08 -0.08)">
      <defs>
       <path d="M 18.3125 70.21875 
L 18.3125 54.6875 
L 36.8125 54.6875 
L 36.8125 47.703125 
L 18.3125 47.703125 
L 18.3125 18.015625 
Q 18.3125 11.328125 20.140625 9.421875 
Q 21.96875 7.515625 27.59375 7.515625 
L 36.8125 7.515625 
L 36.8125 0 
L 27.59375 0 
Q 17.1875 0 13.234375 3.875 
Q 9.28125 7.765625 9.28125 18.015625 
L 9.28125 47.703125 
L 2.6875 47.703125 
L 2.6875 54.6875 
L 9.28125 54.6875 
L 9.28125 70.21875 
z
" id="DejaVuSans-116"/>
       <path d="M 9.421875 54.6875 
L 18.40625 54.6875 
L 18.40625 0 
L 9.421875 0 
z
M 9.421875 75.984375 
L 18.40625 75.984375 
L 18.40625 64.59375 
L 9.421875 64.59375 
z
" id="DejaVuSans-105"/>
       <path d="M 52 44.1875 
Q 55.375 50.25 60.0625 53.125 
Q 64.75 56 71.09375 56 
Q 79.640625 56 84.28125 50.015625 
Q 88.921875 44.046875 88.921875 33.015625 
L 88.921875 0 
L 79.890625 0 
L 79.890625 32.71875 
Q 79.890625 40.578125 77.09375 44.375 
Q 74.3125 48.1875 68.609375 48.1875 
Q 61.625 48.1875 57.5625 43.546875 
Q 53.515625 38.921875 53.515625 30.90625 
L 53.515625 0 
L 44.484375 0 
L 44.484375 32.71875 
Q 44.484375 40.625 41.703125 44.40625 
Q 38.921875 48.1875 33.109375 48.1875 
Q 26.21875 48.1875 22.15625 43.53125 
Q 18.109375 38.875 18.109375 30.90625 
L 18.109375 0 
L 9.078125 0 
L 9.078125 54.6875 
L 18.109375 54.6875 
L 18.109375 46.1875 
Q 21.1875 51.21875 25.484375 53.609375 
Q 29.78125 56 35.6875 56 
Q 41.65625 56 45.828125 52.96875 
Q 50 49.953125 52 44.1875 
z
" id="DejaVuSans-109"/>
       <path d="M 56.203125 29.59375 
L 56.203125 25.203125 
L 14.890625 25.203125 
Q 15.484375 15.921875 20.484375 11.0625 
Q 25.484375 6.203125 34.421875 6.203125 
Q 39.59375 6.203125 44.453125 7.46875 
Q 49.3125 8.734375 54.109375 11.28125 
L 54.109375 2.78125 
Q 49.265625 0.734375 44.1875 -0.34375 
Q 39.109375 -1.421875 33.890625 -1.421875 
Q 20.796875 -1.421875 13.15625 6.1875 
Q 5.515625 13.8125 5.515625 26.8125 
Q 5.515625 40.234375 12.765625 48.109375 
Q 20.015625 56 32.328125 56 
Q 43.359375 56 49.78125 48.890625 
Q 56.203125 41.796875 56.203125 29.59375 
z
M 47.21875 32.234375 
Q 47.125 39.59375 43.09375 43.984375 
Q 39.0625 48.390625 32.421875 48.390625 
Q 24.90625 48.390625 20.390625 44.140625 
Q 15.875 39.890625 15.1875 32.171875 
z
" id="DejaVuSans-101"/>
       <path d="M 44.28125 53.078125 
L 44.28125 44.578125 
Q 40.484375 46.53125 36.375 47.5 
Q 32.28125 48.484375 27.875 48.484375 
Q 21.1875 48.484375 17.84375 46.4375 
Q 14.5 44.390625 14.5 40.28125 
Q 14.5 37.15625 16.890625 35.375 
Q 19.28125 33.59375 26.515625 31.984375 
L 29.59375 31.296875 
Q 39.15625 29.25 43.1875 25.515625 
Q 47.21875 21.78125 47.21875 15.09375 
Q 47.21875 7.46875 41.1875 3.015625 
Q 35.15625 -1.421875 24.609375 -1.421875 
Q 20.21875 -1.421875 15.453125 -0.5625 
Q 10.6875 0.296875 5.421875 2 
L 5.421875 11.28125 
Q 10.40625 8.6875 15.234375 7.390625 
Q 20.0625 6.109375 24.8125 6.109375 
Q 31.15625 6.109375 34.5625 8.28125 
Q 37.984375 10.453125 37.984375 14.40625 
Q 37.984375 18.0625 35.515625 20.015625 
Q 33.0625 21.96875 24.703125 23.78125 
L 21.578125 24.515625 
Q 13.234375 26.265625 9.515625 29.90625 
Q 5.8125 33.546875 5.8125 39.890625 
Q 5.8125 47.609375 11.28125 51.796875 
Q 16.75 56 26.8125 56 
Q 31.78125 56 36.171875 55.265625 
Q 40.578125 54.546875 44.28125 53.078125 
z
" id="DejaVuSans-115"/>
       <path d="M 34.28125 27.484375 
Q 23.390625 27.484375 19.1875 25 
Q 14.984375 22.515625 14.984375 16.5 
Q 14.984375 11.71875 18.140625 8.90625 
Q 21.296875 6.109375 26.703125 6.109375 
Q 34.1875 6.109375 38.703125 11.40625 
Q 43.21875 16.703125 43.21875 25.484375 
L 43.21875 27.484375 
z
M 52.203125 31.203125 
L 52.203125 0 
L 43.21875 0 
L 43.21875 8.296875 
Q 40.140625 3.328125 35.546875 0.953125 
Q 30.953125 -1.421875 24.3125 -1.421875 
Q 15.921875 -1.421875 10.953125 3.296875 
Q 6 8.015625 6 15.921875 
Q 6 25.140625 12.171875 29.828125 
Q 18.359375 34.515625 30.609375 34.515625 
L 43.21875 34.515625 
L 43.21875 35.40625 
Q 43.21875 41.609375 39.140625 45 
Q 35.0625 48.390625 27.6875 48.390625 
Q 23 48.390625 18.546875 47.265625 
Q 14.109375 46.140625 10.015625 43.890625 
L 10.015625 52.203125 
Q 14.9375 54.109375 19.578125 55.046875 
Q 24.21875 56 28.609375 56 
Q 40.484375 56 46.34375 49.84375 
Q 52.203125 43.703125 52.203125 31.203125 
z
" id="DejaVuSans-97"/>
       <path d="M 18.109375 8.203125 
L 18.109375 -20.796875 
L 9.078125 -20.796875 
L 9.078125 54.6875 
L 18.109375 54.6875 
L 18.109375 46.390625 
Q 20.953125 51.265625 25.265625 53.625 
Q 29.59375 56 35.59375 56 
Q 45.5625 56 51.78125 48.09375 
Q 58.015625 40.1875 58.015625 27.296875 
Q 58.015625 14.40625 51.78125 6.484375 
Q 45.5625 -1.421875 35.59375 -1.421875 
Q 29.59375 -1.421875 25.265625 0.953125 
Q 20.953125 3.328125 18.109375 8.203125 
z
M 48.6875 27.296875 
Q 48.6875 37.203125 44.609375 42.84375 
Q 40.53125 48.484375 33.40625 48.484375 
Q 26.265625 48.484375 22.1875 42.84375 
Q 18.109375 37.203125 18.109375 27.296875 
Q 18.109375 17.390625 22.1875 11.75 
Q 26.265625 6.109375 33.40625 6.109375 
Q 40.53125 6.109375 44.609375 11.75 
Q 48.6875 17.390625 48.6875 27.296875 
z
" id="DejaVuSans-112"/>
      </defs>
      <use xlink:href="#DejaVuSans-116"/>
      <use x="39.208984" xlink:href="#DejaVuSans-105"/>
      <use x="66.992188" xlink:href="#DejaVuSans-109"/>
      <use x="164.404297" xlink:href="#DejaVuSans-101"/>
      <use x="225.927734" xlink:href="#DejaVuSans-115"/>
      <use x="278.027344" xlink:href="#DejaVuSans-116"/>
      <use x="317.236328" xlink:href="#DejaVuSans-97"/>
      <use x="378.515625" xlink:href="#DejaVuSans-109"/>
      <use x="475.927734" xlink:href="#DejaVuSans-112"/>
     </g>
    </g>
   </g>
   <g id="matplotlib.axis_2">
    <g id="ytick_1">
     <g id="line2d_22">
      <defs>
       <path d="M 0 0 
L -3.5 0 
" id="m6a3212becf" style="stroke:#000000;stroke-width:0.8;"/>
      </defs>
      <g>
       <use style="stroke:#000000;stroke-width:0.8;" x="108" xlink:href="#m6a3212becf" y="402.629595"/>
      </g>
     </g>
     <g id="text_23">
      <!-- 14520 -->
      <g transform="translate(69.1875 406.428814)scale(0.1 -0.1)">
       <use xlink:href="#DejaVuSans-49"/>
       <use x="63.623047" xlink:href="#DejaVuSans-52"/>
       <use x="127.246094" xlink:href="#DejaVuSans-53"/>
       <use x="190.869141" xlink:href="#DejaVuSans-50"/>
       <use x="254.492188" xlink:href="#DejaVuSans-48"/>
      </g>
     </g>
    </g>
    <g id="ytick_2">
     <g id="line2d_23">
      <g>
       <use style="stroke:#000000;stroke-width:0.8;" x="108" xlink:href="#m6a3212becf" y="347.013393"/>
      </g>
     </g>
     <g id="text_24">
      <!-- 14530 -->
      <g transform="translate(69.1875 350.812612)scale(0.1 -0.1)">
       <use xlink:href="#DejaVuSans-49"/>
       <use x="63.623047" xlink:href="#DejaVuSans-52"/>
       <use x="127.246094" xlink:href="#DejaVuSans-53"/>
       <use x="190.869141" xlink:href="#DejaVuSans-51"/>
       <use x="254.492188" xlink:href="#DejaVuSans-48"/>
      </g>
     </g>
    </g>
    <g id="ytick_3">
     <g id="line2d_24">
      <g>
       <use style="stroke:#000000;stroke-width:0.8;" x="108" xlink:href="#m6a3212becf" y="291.397191"/>
      </g>
     </g>
     <g id="text_25">
      <!-- 14540 -->
      <g transform="translate(69.1875 295.196409)scale(0.1 -0.1)">
       <use xlink:href="#DejaVuSans-49"/>
       <use x="63.623047" xlink:href="#DejaVuSans-52"/>
       <use x="127.246094" xlink:href="#DejaVuSans-53"/>
       <use x="190.869141" xlink:href="#DejaVuSans-52"/>
       <use x="254.492188" xlink:href="#DejaVuSans-48"/>
      </g>
     </g>
    </g>
    <g id="ytick_4">
     <g id="line2d_25">
      <g>
       <use style="stroke:#000000;stroke-width:0.8;" x="108" xlink:href="#m6a3212becf" y="235.780988"/>
      </g>
     </g>
     <g id="text_26">
      <!-- 14550 -->
      <g transform="translate(69.1875 239.580207)scale(0.1 -0.1)">
       <use xlink:href="#DejaVuSans-49"/>
       <use x="63.623047" xlink:href="#DejaVuSans-52"/>
       <use x="127.246094" xlink:href="#DejaVuSans-53"/>
       <use x="190.869141" xlink:href="#DejaVuSans-53"/>
       <use x="254.492188" xlink:href="#DejaVuSans-48"/>
      </g>
     </g>
    </g>
    <g id="ytick_5">
     <g id="line2d_26">
      <g>
       <use style="stroke:#000000;stroke-width:0.8;" x="108" xlink:href="#m6a3212becf" y="180.164786"/>
      </g>
     </g>
     <g id="text_27">
      <!-- 14560 -->
      <g transform="translate(69.1875 183.964005)scale(0.1 -0.1)">
       <use xlink:href="#DejaVuSans-49"/>
       <use x="63.623047" xlink:href="#DejaVuSans-52"/>
       <use x="127.246094" xlink:href="#DejaVuSans-53"/>
       <use x="190.869141" xlink:href="#DejaVuSans-54"/>
       <use x="254.492188" xlink:href="#DejaVuSans-48"/>
      </g>
     </g>
    </g>
    <g id="ytick_6">
     <g id="line2d_27">
      <g>
       <use style="stroke:#000000;stroke-width:0.8;" x="108" xlink:href="#m6a3212becf" y="124.548584"/>
      </g>
     </g>
     <g id="text_28">
      <!-- 14570 -->
      <g transform="translate(69.1875 128.347802)scale(0.1 -0.1)">
       <use xlink:href="#DejaVuSans-49"/>
       <use x="63.623047" xlink:href="#DejaVuSans-52"/>
       <use x="127.246094" xlink:href="#DejaVuSans-53"/>
       <use x="190.869141" xlink:href="#DejaVuSans-55"/>
       <use x="254.492188" xlink:href="#DejaVuSans-48"/>
      </g>
     </g>
    </g>
    <g id="ytick_7">
     <g id="line2d_28">
      <g>
       <use style="stroke:#000000;stroke-width:0.8;" x="108" xlink:href="#m6a3212becf" y="68.932381"/>
      </g>
     </g>
     <g id="text_29">
      <!-- 14580 -->
      <g transform="translate(69.1875 72.7316)scale(0.1 -0.1)">
       <use xlink:href="#DejaVuSans-49"/>
       <use x="63.623047" xlink:href="#DejaVuSans-52"/>
       <use x="127.246094" xlink:href="#DejaVuSans-53"/>
       <use x="190.869141" xlink:href="#DejaVuSans-56"/>
       <use x="254.492188" xlink:href="#DejaVuSans-48"/>
      </g>
     </g>
    </g>
    <g id="text_30">
     <!-- MB -->
     <g transform="translate(63.52375 260.715625)rotate(-90)scale(0.08 -0.08)">
      <defs>
       <path d="M 9.8125 72.90625 
L 24.515625 72.90625 
L 43.109375 23.296875 
L 61.8125 72.90625 
L 76.515625 72.90625 
L 76.515625 0 
L 66.890625 0 
L 66.890625 64.015625 
L 48.09375 14.015625 
L 38.1875 14.015625 
L 19.390625 64.015625 
L 19.390625 0 
L 9.8125 0 
z
" id="DejaVuSans-77"/>
       <path d="M 19.671875 34.8125 
L 19.671875 8.109375 
L 35.5 8.109375 
Q 43.453125 8.109375 47.28125 11.40625 
Q 51.125 14.703125 51.125 21.484375 
Q 51.125 28.328125 47.28125 31.5625 
Q 43.453125 34.8125 35.5 34.8125 
z
M 19.671875 64.796875 
L 19.671875 42.828125 
L 34.28125 42.828125 
Q 41.5 42.828125 45.03125 45.53125 
Q 48.578125 48.25 48.578125 53.8125 
Q 48.578125 59.328125 45.03125 62.0625 
Q 41.5 64.796875 34.28125 64.796875 
z
M 9.8125 72.90625 
L 35.015625 72.90625 
Q 46.296875 72.90625 52.390625 68.21875 
Q 58.5 63.53125 58.5 54.890625 
Q 58.5 48.1875 55.375 44.234375 
Q 52.25 40.28125 46.1875 39.3125 
Q 53.46875 37.75 57.5 32.78125 
Q 61.53125 27.828125 61.53125 20.40625 
Q 61.53125 10.640625 54.890625 5.3125 
Q 48.25 0 35.984375 0 
L 9.8125 0 
z
" id="DejaVuSans-66"/>
      </defs>
      <use xlink:href="#DejaVuSans-77"/>
      <use x="86.279297" xlink:href="#DejaVuSans-66"/>
     </g>
    </g>
   </g>
   <g id="line2d_29">
    <path clip-path="url(#p519e7643a7)" d="M 132.349091 144.023687 
L 132.844495 120.901585 
L 133.339898 90.284732 
L 133.835302 111.926108 
L 134.330706 127.234535 
L 135.321513 95.752027 
L 135.816917 98.326212 
L 136.31232 99.510792 
L 137.303128 109.648069 
L 137.798531 100.991518 
L 138.293935 78.12 
L 138.789339 90.945363 
L 139.284742 92.380528 
L 139.780146 94.886372 
L 140.27555 103.930189 
L 140.770953 123.49855 
L 141.266357 121.903922 
L 141.761761 123.840256 
L 142.257165 150.630002 
L 142.752568 163.387024 
L 143.247972 168.034225 
L 143.743376 165.938428 
L 144.238779 162.635271 
L 144.734183 154.593791 
L 145.229587 166.917985 
L 145.72499 170.995676 
L 146.220394 167.009107 
L 147.211201 153.95594 
L 148.202009 333.693268 
L 148.697412 339.069441 
L 149.68822 301.891834 
L 150.183623 295.239959 
L 150.679027 294.351523 
L 151.174431 297.768583 
L 151.669834 303.964851 
L 152.165238 299.978281 
L 152.660642 305.992306 
L 153.156046 307.541373 
L 153.651449 305.240553 
L 154.146853 308.657612 
L 154.642257 284.533172 
L 155.13766 276.491692 
L 155.633064 273.279656 
L 156.128468 275.307112 
L 156.623871 274.236433 
L 157.119275 286.492286 
L 157.614679 282.255133 
L 158.110082 273.48468 
L 158.605486 267.72124 
L 159.10089 267.903483 
L 159.596293 353.421091 
L 160.091697 366.907086 
L 160.587101 363.512807 
L 161.082504 345.858 
L 161.577908 287.517404 
L 162.073312 297.677461 
L 162.568715 311.163456 
L 163.559523 263.301843 
L 164.55033 283.075227 
L 165.045734 284.39649 
L 165.541138 288.724765 
L 166.036541 286.15058 
L 166.531945 285.079902 
L 167.027349 282.870203 
L 167.522752 286.947894 
L 168.018156 284.829317 
L 168.51356 285.489949 
L 169.008963 281.138893 
L 169.504367 285.125463 
L 169.999771 295.558884 
L 170.495174 292.278507 
L 170.990578 294.16928 
L 171.981385 280.751627 
L 172.476789 274.373116 
L 172.972193 275.626037 
L 173.467596 300.319987 
L 173.963 309.409365 
L 174.458404 294.921033 
L 174.953807 288.496961 
L 175.449211 287.130138 
L 175.944615 289.863785 
L 176.440018 295.399421 
L 176.935422 295.536104 
L 177.430826 289.749883 
L 177.92623 281.981768 
L 178.421633 292.848017 
L 178.917037 299.499893 
L 179.412441 303.486462 
L 179.907844 303.782607 
L 180.403248 294.237621 
L 180.898652 299.545454 
L 181.394055 298.657018 
L 181.889459 304.466019 
L 182.384863 338.909979 
L 182.880266 311.96077 
L 183.37567 312.074672 
L 183.871074 281.138893 
L 184.366477 289.408177 
L 184.861881 236.580438 
L 185.357285 228.630079 
L 185.852688 193.548269 
L 186.843496 181.246855 
L 187.338899 217.14876 
L 187.834303 232.206602 
L 188.825111 195.530163 
L 189.320514 218.33334 
L 189.815918 234.666884 
L 190.311322 233.505084 
L 190.806725 196.874207 
L 191.302129 188.673264 
L 191.797533 248.107318 
L 192.292936 267.652899 
L 192.78834 246.398789 
L 193.283744 232.366064 
L 193.779147 228.812323 
L 194.274551 228.128911 
L 194.769955 218.31056 
L 195.265358 211.294198 
L 195.760762 187.898731 
L 196.256166 195.803528 
L 196.751569 193.958316 
L 197.246973 195.871869 
L 197.742377 191.33857 
L 198.23778 188.650484 
L 198.733184 176.918579 
L 199.228588 187.87595 
L 199.723991 181.656902 
L 200.219395 172.3625 
L 200.714799 174.617759 
L 201.705606 202.546525 
L 202.20101 211.111955 
L 202.696414 202.113698 
L 203.687221 196.213575 
L 204.182625 210.770249 
L 204.678028 208.036601 
L 205.173432 192.591492 
L 205.668836 187.238099 
L 206.164239 193.981096 
L 207.155047 200.245705 
L 207.65045 189.402237 
L 208.145854 184.162746 
L 208.641258 181.474659 
L 209.136661 179.515545 
L 209.632065 176.030144 
L 210.127469 183.228749 
L 210.622872 175.574536 
L 211.118276 187.87595 
L 211.61368 184.41333 
L 212.109084 178.832133 
L 212.604487 181.816365 
L 213.099891 181.451878 
L 213.595295 197.307034 
L 214.586102 350.801346 
L 215.081506 339.365587 
L 215.576909 348.249941 
L 216.567717 324.649451 
L 217.06312 313.350374 
L 217.558524 318.111477 
L 218.053928 337.315351 
L 218.549331 336.449696 
L 219.044735 327.610902 
L 219.540139 324.649451 
L 220.035542 315.628414 
L 220.530946 330.709036 
L 221.02635 327.064173 
L 221.521753 327.907047 
L 222.017157 324.62667 
L 222.512561 326.289639 
L 223.007964 334.786727 
L 223.503368 334.741166 
L 223.998772 330.595134 
L 224.494176 329.957283 
L 224.989579 337.155888 
L 225.484983 321.938583 
L 225.980387 325.583447 
L 226.47579 334.627264 
L 226.971194 330.412891 
L 227.466598 332.873174 
L 227.962001 330.526793 
L 228.457405 297.563559 
L 228.952809 294.556547 
L 229.448212 297.58634 
L 229.943616 317.678649 
L 230.43902 327.724804 
L 230.934423 325.834031 
L 231.429827 325.629008 
L 231.925231 311.892428 
L 232.420634 315.514512 
L 232.916038 321.870242 
L 233.411442 324.330525 
L 233.906845 330.845718 
L 234.402249 410.645447 
L 234.897653 408.344627 
L 235.393057 403.993571 
L 235.88846 402.877332 
L 236.383864 354.51455 
L 236.879268 341.757528 
L 237.374671 336.518037 
L 237.870075 340.869093 
L 238.365479 337.679837 
L 238.860882 342.782646 
L 239.356286 331.961958 
L 239.85169 334.194437 
L 240.347093 339.456708 
L 240.842497 339.092222 
L 241.337901 339.616171 
L 241.833304 337.657057 
L 242.328708 323.168725 
L 242.824112 329.661138 
L 243.319515 323.373748 
L 243.814919 336.905304 
L 244.310323 335.379017 
L 244.805726 332.417566 
L 245.30113 328.294314 
L 245.796534 339.251685 
L 246.291937 354.013382 
L 247.282745 343.101572 
L 247.778149 324.808913 
L 248.273552 333.032636 
L 248.768956 344.536737 
L 249.26436 345.220149 
L 249.759763 344.400054 
L 250.255167 338.340469 
L 250.750571 334.855068 
L 251.245974 335.287896 
L 251.741378 345.037905 
L 252.236782 350.140714 
L 252.732185 348.75111 
L 253.227589 341.757528 
L 253.722993 299.636575 
L 254.218396 291.207829 
L 254.7138 291.185048 
L 255.209204 288.633644 
L 255.704607 287.130138 
L 256.695415 278.519148 
L 257.190818 283.166349 
L 257.686222 276.33223 
L 258.181626 299.31765 
L 258.67703 302.575246 
L 259.172433 300.821156 
L 259.667837 287.016236 
L 260.163241 281.867866 
L 260.658644 266.240514 
L 261.154048 262.026141 
L 261.649452 261.935019 
L 262.144855 253.34681 
L 262.640259 259.70254 
L 263.135663 264.349741 
L 263.631066 272.231758 
L 264.12647 262.755113 
L 264.621874 266.491098 
L 265.117277 259.634199 
L 265.612681 254.599731 
L 266.603488 264.099157 
L 267.098892 255.898214 
L 267.594296 325.469545 
L 268.089699 326.676906 
L 268.585103 399.346371 
L 269.080507 406.818341 
L 269.57591 409.848133 
L 270.071314 370.939216 
L 270.566718 293.57699 
L 271.062122 263.14238 
L 271.557525 257.902889 
L 272.052929 242.024953 
L 273.043736 167.236911 
L 273.53914 231.750994 
L 274.034544 223.777855 
L 274.529947 217.604368 
L 275.025351 217.695489 
L 275.520755 212.683802 
L 276.016158 182.476996 
L 276.511562 194.026657 
L 277.006966 179.037156 
L 277.502369 173.296496 
L 277.997773 233.095037 
L 278.493177 237.537214 
L 278.98858 211.45366 
L 279.483984 205.12071 
L 279.979388 193.935536 
L 280.970195 179.333301 
L 281.465599 184.139965 
L 281.961002 184.048844 
L 282.456406 182.476996 
L 282.95181 182.955385 
L 283.447214 155.299983 
L 283.942617 151.860143 
L 284.438021 138.624733 
L 284.933425 135.116552 
L 285.428828 146.165044 
L 285.924232 149.194837 
L 286.419636 164.093216 
L 286.915039 158.899286 
L 287.905847 151.222292 
L 288.40125 163.660389 
L 288.896654 169.947778 
L 289.392058 165.870087 
L 289.887461 156.028956 
L 290.382865 156.985733 
L 290.878269 154.183744 
L 291.373672 163.364244 
L 291.869076 153.36365 
L 292.36448 153.38643 
L 293.355287 343.853325 
L 293.850691 330.298989 
L 294.346095 327.291976 
L 294.841498 308.748734 
L 295.336902 377.47719 
L 295.832306 384.766917 
L 296.327709 386.65769 
L 296.823113 383.513995 
L 297.318517 325.264521 
L 297.81392 334.171656 
L 298.309324 328.08929 
L 298.804728 305.582259 
L 299.300131 300.661693 
L 299.795535 303.213097 
L 300.290939 312.051891 
L 300.786342 323.943258 
L 301.281746 288.770326 
L 301.77715 278.974756 
L 302.272553 283.84976 
L 302.767957 301.709591 
L 303.263361 290.661099 
L 303.758764 289.56764 
L 304.254168 283.986443 
L 304.749572 285.512729 
L 305.740379 299.408771 
L 306.235783 310.138338 
L 306.731187 291.617876 
L 307.22659 285.125463 
L 307.721994 289.909346 
L 308.217398 296.105614 
L 308.712801 294.123719 
L 309.208205 282.574058 
L 309.703609 289.043691 
L 310.199012 282.300693 
L 310.694416 294.260402 
L 311.18982 290.820562 
L 311.685223 281.389478 
L 312.180627 287.471843 
L 312.676031 273.758045 
L 313.171434 273.780825 
L 313.666838 283.439713 
L 314.162242 281.457819 
L 314.657645 297.996387 
L 315.153049 292.870797 
L 315.648453 289.317056 
L 316.143856 289.134812 
L 316.63926 295.718347 
L 317.134664 300.707254 
L 317.630068 300.092183 
L 318.125471 293.098601 
L 318.620875 288.838667 
L 319.116279 291.663436 
L 319.611682 301.572909 
L 320.107086 298.930383 
L 320.60249 286.401165 
L 321.097893 287.927451 
L 321.593297 296.49288 
L 322.088701 295.376641 
L 322.584104 303.645925 
L 323.079508 301.481787 
L 324.070315 299.613795 
L 324.565719 302.119638 
L 325.061123 301.823493 
L 325.556526 293.075821 
L 326.05193 297.335755 
L 326.547334 296.584002 
L 327.042737 291.481193 
L 327.538141 289.134812 
L 328.033545 294.078158 
L 328.528948 310.138338 
L 329.519756 294.488206 
L 330.510563 301.66403 
L 331.005967 313.669299 
L 331.501371 310.639507 
L 331.996774 308.634832 
L 332.492178 304.238215 
L 332.987582 315.081684 
L 333.482985 316.197923 
L 333.978389 313.008668 
L 334.473793 301.208423 
L 334.969196 303.235878 
L 335.4646 320.662881 
L 335.960004 316.56241 
L 336.455407 282.551278 
L 336.950811 281.138893 
L 337.446215 268.996942 
L 337.941618 275.466575 
L 338.437022 347.384286 
L 338.932426 351.006369 
L 339.923233 306.949082 
L 340.418637 306.447914 
L 340.914041 334.467801 
L 341.409444 221.955423 
L 341.904848 219.768505 
L 342.400252 215.964179 
L 342.895655 193.069881 
L 343.391059 249.815848 
L 343.886463 195.780748 
L 344.381866 186.463566 
L 344.87727 194.117779 
L 345.372674 241.455443 
L 345.868077 248.699609 
L 346.363481 232.66221 
L 346.858885 209.927374 
L 347.354288 202.113698 
L 347.849692 261.206046 
L 348.345096 248.654048 
L 348.840499 243.938506 
L 349.335903 222.251568 
L 349.831307 221.408694 
L 350.32671 231.978798 
L 351.812921 190.040088 
L 352.308325 183.29709 
L 352.803729 178.239842 
L 353.299133 181.748024 
L 353.794536 186.759711 
L 354.28994 187.352001 
L 354.785344 181.155733 
L 355.280747 167.487495 
L 356.271555 183.114847 
L 356.766958 197.102011 
L 357.757766 185.643471 
L 358.253169 177.488089 
L 359.243977 197.124791 
L 359.73938 191.611935 
L 360.234784 189.789503 
L 360.730188 184.914499 
L 361.225591 187.078636 
L 361.720995 196.532501 
L 362.216399 200.086243 
L 362.711802 198.833321 
L 363.207206 190.974084 
L 363.70261 197.808203 
L 364.198014 206.578656 
L 364.693417 205.09793 
L 365.188821 204.961247 
L 365.684225 205.462416 
L 366.179628 310.912871 
L 366.675032 312.849205 
L 367.170436 312.849205 
L 367.665839 315.44617 
L 368.656647 285.603851 
L 369.15205 253.734076 
L 370.142858 260.454293 
L 370.638261 271.867272 
L 371.133665 275.853841 
L 372.124472 266.673342 
L 372.619876 271.77615 
L 373.11528 280.478262 
L 373.610683 269.088064 
L 374.106087 274.099751 
L 374.601491 275.922182 
L 375.096894 365.084654 
L 375.592298 362.168763 
L 376.087702 363.307783 
L 376.583106 361.075304 
L 377.078509 300.684473 
L 377.573913 302.484125 
L 378.069317 306.447914 
L 378.56472 306.880741 
L 379.060124 296.424539 
L 379.555528 279.749289 
L 380.050931 289.430958 
L 380.546335 289.977687 
L 381.041739 289.841005 
L 381.537142 293.144162 
L 382.032546 286.925114 
L 382.52795 294.510986 
L 383.023353 284.715416 
L 383.518757 283.530835 
L 384.509564 292.665774 
L 385.004968 299.112626 
L 385.500372 281.54894 
L 385.995775 272.459562 
L 386.491179 273.051853 
L 386.986583 257.515622 
L 387.97739 260.385952 
L 388.968198 239.405207 
L 389.463601 256.285481 
L 389.959005 336.540817 
L 390.454409 330.572354 
L 390.949812 311.505162 
L 391.445216 279.680948 
L 391.94062 291.595095 
L 392.436023 238.585113 
L 392.931427 223.937318 
L 393.426831 191.29301 
L 393.922234 180.358419 
L 394.417638 215.007402 
L 394.913042 212.774923 
L 395.408445 209.881813 
L 395.903849 187.739268 
L 396.399253 185.871275 
L 396.894656 229.632417 
L 397.39006 222.729957 
L 397.885464 226.101455 
L 398.380867 216.510909 
L 398.876271 216.328665 
L 399.371675 265.739345 
L 399.867079 250.886527 
L 400.362482 249.405801 
L 400.857886 219.540701 
L 401.35329 226.215357 
L 401.848693 225.099118 
L 402.344097 218.105536 
L 403.334904 210.26908 
L 403.830308 222.251568 
L 404.325712 206.145828 
L 404.821115 204.346177 
L 405.811923 217.649928 
L 406.307326 210.633566 
L 406.80273 213.207751 
L 407.298134 214.369551 
L 407.793537 211.727025 
L 408.288941 220.656941 
L 409.279748 209.016158 
L 410.270556 222.752737 
L 410.765959 221.704839 
L 411.261363 205.826903 
L 411.756767 196.008552 
L 412.747574 218.173877 
L 413.242978 227.49106 
L 413.738382 224.66629 
L 414.233785 224.529608 
L 414.729189 219.517921 
L 415.224593 224.780192 
L 415.719996 225.21302 
L 416.2154 226.283699 
L 416.710804 224.802973 
L 417.206207 215.166865 
L 417.701611 225.19024 
L 418.197015 186.212981 
L 418.692418 178.900474 
L 419.187822 288.519742 
L 419.683226 352.623777 
L 420.178629 355.949715 
L 420.674033 333.23766 
L 421.169437 326.950271 
L 421.66484 333.624927 
L 422.655648 313.851543 
L 423.151052 315.856217 
L 423.646455 327.269196 
L 424.141859 329.296651 
L 425.132666 306.174549 
L 425.62807 270.363766 
L 426.123474 274.783163 
L 427.114281 309.204342 
L 427.609685 314.398272 
L 428.105088 304.693823 
L 428.600492 301.960176 
L 429.095896 301.960176 
L 429.591299 311.664625 
L 430.086703 311.596283 
L 430.582107 304.762164 
L 431.07751 295.581665 
L 431.572914 297.563559 
L 432.068318 304.739384 
L 432.563721 292.43797 
L 433.059125 293.166943 
L 433.554529 287.585745 
L 434.049932 289.704322 
L 434.545336 297.973606 
L 435.04074 303.304219 
L 435.536144 299.796038 
L 436.031547 293.075821 
L 436.526951 295.399421 
L 437.022355 294.419864 
L 437.517758 302.939733 
L 438.013162 302.75749 
L 438.508566 307.996981 
L 439.499373 288.97535 
L 439.994777 287.175698 
L 440.49018 291.025585 
L 440.985584 276.628375 
L 441.480988 278.245783 
L 441.976391 272.664586 
L 442.471795 251.023209 
L 442.967199 253.301249 
L 443.462602 261.183266 
L 443.958006 261.570533 
L 444.45341 261.43385 
L 444.948813 255.533728 
L 445.444217 255.488167 
L 445.939621 270.933276 
L 446.435025 259.429175 
L 446.930428 260.795999 
L 447.425832 265.352079 
L 447.921236 262.162823 
L 448.416639 264.144718 
L 448.912043 267.766801 
L 449.407447 267.74402 
L 449.90285 261.935019 
L 450.398254 254.804755 
L 450.893658 261.365509 
L 451.389061 272.32288 
L 452.379869 260.522634 
L 452.875272 273.211315 
L 453.370676 266.741683 
L 453.86608 245.852059 
L 454.361483 244.462455 
L 455.352291 276.833398 
L 455.847694 272.003954 
L 456.343098 331.665813 
L 456.838502 329.137189 
L 457.333905 353.694456 
L 457.829309 351.143052 
L 458.324713 287.676867 
L 458.820117 284.442051 
L 459.31552 282.642399 
L 459.810924 289.339836 
L 460.306328 276.35501 
L 460.801731 279.430364 
L 461.297135 270.887715 
L 461.792539 265.215396 
L 462.287942 272.664586 
L 462.783346 273.4619 
L 463.27875 430.578294 
L 463.774153 430.92 
L 464.269557 417.069519 
L 464.764961 389.322996 
L 465.260364 324.740572 
L 465.755768 304.693823 
L 466.251172 269.543671 
L 467.241979 240.17974 
L 467.737383 204.004471 
L 468.232786 228.333934 
L 468.72819 218.173877 
L 469.223594 218.606705 
L 469.718998 213.936724 
L 470.214401 239.245744 
L 470.709805 241.159297 
L 471.205209 231.181484 
L 471.700612 237.85614 
L 472.196016 232.981135 
L 472.69142 262.777894 
L 473.186823 244.325773 
L 473.682227 252.845641 
L 474.177631 235.669222 
L 474.673034 233.664547 
L 475.168438 243.437337 
L 475.663842 234.370739 
L 476.159245 232.867233 
L 476.654649 233.436743 
L 477.150053 235.236394 
L 477.645456 240.316423 
L 478.14086 237.970042 
L 478.636264 240.954274 
L 479.131667 233.2545 
L 479.627071 191.771398 
L 480.122475 183.593236 
L 480.617878 192.227006 
L 481.113282 198.263811 
L 481.608686 166.758523 
L 482.10409 150.903367 
L 482.599493 151.6779 
L 483.094897 171.906892 
L 484.085704 180.586223 
L 484.581108 174.731661 
L 485.076512 165.870087 
L 485.571915 172.157477 
L 486.067319 173.319277 
L 486.562723 170.0389 
L 487.058126 172.749767 
L 487.55353 167.692519 
L 488.048934 172.271379 
L 488.544337 169.46939 
L 489.039741 180.814027 
L 489.535145 180.836808 
L 490.525952 350.755785 
L 491.021356 354.036162 
L 491.516759 350.824126 
L 492.012163 330.686256 
L 492.507567 329.251091 
L 493.00297 331.916397 
L 493.498374 336.290233 
L 493.993778 328.544898 
L 494.489182 332.941515 
L 494.984585 344.901223 
L 495.479989 319.569422 
L 495.975393 316.357386 
L 496.9662 326.494663 
L 497.461604 315.491731 
L 497.957007 310.480044 
L 498.452411 293.554209 
L 498.947815 293.440307 
L 499.938622 301.345105 
L 500.434026 303.737047 
L 500.929429 296.310637 
L 501.424833 302.005736 
L 501.920237 301.66403 
L 502.41564 314.216029 
L 502.911044 309.591608 
L 503.406448 307.336349 
L 503.901851 294.602108 
L 504.397255 294.009817 
L 504.892659 306.744059 
L 505.388063 305.605039 
L 505.883466 297.085171 
L 506.37887 292.278507 
L 506.874274 268.88304 
L 507.369677 277.197885 
L 507.865081 259.656979 
L 508.360485 257.037234 
L 508.855888 271.548346 
L 509.351292 268.245189 
L 509.846696 249.177997 
L 510.342099 256.444944 
L 510.837503 251.433256 
L 511.332907 274.64648 
L 511.82831 269.042503 
L 512.323714 268.541334 
L 512.819118 256.581626 
L 513.314521 271.16108 
L 513.809925 272.436782 
L 514.305329 276.491692 
L 514.800732 264.395302 
L 515.296136 263.005698 
L 515.79154 343.830544 
L 516.286943 343.60274 
L 516.782347 347.179263 
L 517.277751 340.891873 
L 517.773155 282.09567 
L 518.268558 286.013898 
L 518.763962 294.16928 
L 519.259366 286.059459 
L 519.754769 270.409327 
L 520.250173 270.181523 
L 520.745577 283.621956 
L 521.24098 284.442051 
L 521.736384 276.605594 
L 522.231788 280.250458 
L 522.727191 333.306001 
L 523.222595 333.602146 
L 523.717999 308.270345 
L 524.213402 179.219399 
L 524.708806 291.344511 
L 525.20421 224.871314 
L 525.699613 230.908119 
L 526.195017 204.573981 
L 526.690421 198.354933 
L 527.185824 183.433773 
L 527.681228 217.558807 
L 528.176632 220.201333 
L 528.672036 201.0658 
L 529.167439 194.436704 
L 530.158247 246.239326 
L 530.65365 248.540146 
L 531.149054 231.249825 
L 531.644458 198.21825 
L 532.139861 234.780786 
L 532.635265 238.835697 
L 533.130669 233.84679 
L 533.626072 201.08858 
L 534.121476 198.058787 
L 534.61688 187.784829 
L 535.112283 197.694301 
L 535.607687 187.648146 
L 536.103091 191.110766 
L 536.598494 182.408655 
L 537.093898 187.352001 
L 537.589302 181.451878 
L 538.084705 178.399305 
L 538.580109 181.884706 
L 539.075513 187.101417 
L 540.06632 204.665102 
L 541.057128 187.716487 
L 541.552531 195.849089 
L 542.047935 195.689626 
L 542.543339 203.594424 
L 543.038742 251.06877 
L 543.534146 269.47533 
L 544.02955 276.127206 
L 544.524953 278.06354 
L 545.020357 223.003321 
L 546.011164 195.552944 
L 546.506568 204.163934 
L 547.001972 187.921511 
L 547.497375 187.215319 
L 547.992779 181.702463 
L 548.488183 287.995793 
L 548.983586 342.030893 
L 549.47899 329.023287 
L 549.974394 328.430996 
L 550.469797 302.916952 
L 550.965201 314.626076 
L 551.460605 306.379573 
L 551.956009 288.770326 
L 552.451412 289.225934 
L 552.946816 294.465425 
L 553.44222 311.550723 
L 553.937623 311.824087 
L 554.433027 315.263927 
L 554.928431 309.181561 
L 555.423834 312.666962 
L 555.919238 317.405284 
L 556.414642 326.676906 
L 556.910045 290.888903 
L 557.405449 274.783163 
L 557.900853 285.284925 
L 558.396256 282.984105 
L 558.89166 288.291938 
L 559.387064 276.172767 
L 559.882467 275.010967 
L 560.377871 269.885377 
L 560.873275 281.822305 
L 561.368678 284.966 
L 561.864082 286.264482 
L 562.359486 283.371372 
L 562.854889 279.749289 
L 563.350293 282.596839 
L 563.845697 286.218922 
L 564.341101 288.770326 
L 564.836504 285.284925 
L 565.331908 284.874878 
L 565.827312 267.812361 
L 566.322715 271.16108 
L 567.313523 284.487612 
L 567.808926 288.474181 
L 568.30433 286.036679 
L 568.799734 286.993455 
L 569.295137 289.704322 
L 569.790541 293.371966 
L 570.285945 301.937395 
L 570.781348 295.650006 
L 571.276752 319.022693 
L 571.772156 308.088102 
L 572.267559 327.428659 
L 573.258367 300.137744 
L 573.75377 240.863152 
L 574.249174 338.568273 
L 574.744578 323.555991 
L 575.239982 195.712407 
L 575.735385 290.15993 
L 576.230789 333.784389 
L 576.726193 211.590343 
L 577.221596 187.124197 
L 577.717 185.165083 
L 578.212404 262.709553 
L 578.707807 275.671598 
L 579.203211 252.959543 
L 579.698615 213.025508 
L 580.194018 196.828646 
L 580.689422 271.616688 
L 581.184826 274.487017 
L 581.680229 293.690892 
L 582.175633 271.73059 
L 582.671037 258.495179 
L 583.16644 250.635942 
L 583.661844 254.53139 
L 584.157248 256.649967 
L 584.652651 253.9391 
L 585.643459 239.655791 
L 586.138862 241.501003 
L 586.634266 238.038383 
L 587.12967 244.530796 
L 587.625074 244.7586 
L 588.120477 232.730551 
L 589.111285 239.314085 
L 589.606688 245.35089 
L 590.102092 236.420975 
L 590.597496 244.416894 
L 591.092899 238.152285 
L 591.588303 246.512691 
L 592.083707 242.366658 
L 592.57911 252.276131 
L 593.074514 250.658723 
L 593.569918 245.647036 
L 594.065321 227.832766 
L 594.560725 243.779043 
L 595.056129 236.329853 
L 595.551532 253.597394 
L 596.046936 254.50861 
L 596.54234 240.931494 
L 597.037743 246.239326 
L 597.533147 237.195508 
L 598.028551 360.642477 
L 598.523954 341.074116 
L 599.019358 315.514512 
L 599.514762 310.343362 
L 600.010166 297.836924 
L 600.505569 307.313569 
L 601.000973 299.93272 
L 601.496377 288.97535 
L 601.99178 283.394153 
L 602.487184 293.235284 
L 602.982588 295.718347 
L 603.477991 297.426877 
L 603.973395 266.286075 
L 604.468799 269.771475 
L 604.964202 270.158742 
L 605.459606 271.16108 
L 605.95501 261.912239 
L 606.450413 263.051258 
L 606.945817 264.828129 
L 607.441221 270.181523 
L 607.936624 247.720052 
L 608.432028 255.898214 
L 608.927432 256.490504 
L 609.422835 268.746358 
L 609.918239 267.402314 
L 610.413643 263.506866 
L 610.909047 261.251607 
L 611.40445 264.053596 
L 611.899854 275.603257 
L 612.395258 278.017979 
L 612.890661 267.812361 
L 613.386065 324.05716 
L 613.881469 321.460195 
L 614.376872 314.671637 
L 614.872276 298.406434 
L 615.36768 294.465425 
L 615.863083 282.437376 
L 616.358487 277.152324 
L 616.853891 286.10502 
L 617.349294 290.911683 
L 617.844698 285.991118 
L 618.340102 297.381316 
L 618.835505 293.759233 
L 619.330909 352.418754 
L 619.330909 352.418754 
" style="fill:none;stroke:#1f77b4;stroke-linecap:square;stroke-width:1.5;"/>
   </g>
   <g id="patch_3">
    <path d="M 108 448.56 
L 108 60.48 
" style="fill:none;stroke:#000000;stroke-linecap:square;stroke-linejoin:miter;stroke-width:0.8;"/>
   </g>
   <g id="patch_4">
    <path d="M 643.68 448.56 
L 643.68 60.48 
" style="fill:none;stroke:#000000;stroke-linecap:square;stroke-linejoin:miter;stroke-width:0.8;"/>
   </g>
   <g id="patch_5">
    <path d="M 108 448.56 
L 643.68 448.56 
" style="fill:none;stroke:#000000;stroke-linecap:square;stroke-linejoin:miter;stroke-width:0.8;"/>
   </g>
   <g id="patch_6">
    <path d="M 108 60.48 
L 643.68 60.48 
" style="fill:none;stroke:#000000;stroke-linecap:square;stroke-linejoin:miter;stroke-width:0.8;"/>
   </g>
   <g id="text_31">
    <!-- docker - free -->
    <g transform="translate(328.339219 54.48)scale(0.15 -0.15)">
     <defs>
      <path d="M 45.40625 46.390625 
L 45.40625 75.984375 
L 54.390625 75.984375 
L 54.390625 0 
L 45.40625 0 
L 45.40625 8.203125 
Q 42.578125 3.328125 38.25 0.953125 
Q 33.9375 -1.421875 27.875 -1.421875 
Q 17.96875 -1.421875 11.734375 6.484375 
Q 5.515625 14.40625 5.515625 27.296875 
Q 5.515625 40.1875 11.734375 48.09375 
Q 17.96875 56 27.875 56 
Q 33.9375 56 38.25 53.625 
Q 42.578125 51.265625 45.40625 46.390625 
z
M 14.796875 27.296875 
Q 14.796875 17.390625 18.875 11.75 
Q 22.953125 6.109375 30.078125 6.109375 
Q 37.203125 6.109375 41.296875 11.75 
Q 45.40625 17.390625 45.40625 27.296875 
Q 45.40625 37.203125 41.296875 42.84375 
Q 37.203125 48.484375 30.078125 48.484375 
Q 22.953125 48.484375 18.875 42.84375 
Q 14.796875 37.203125 14.796875 27.296875 
z
" id="DejaVuSans-100"/>
      <path d="M 30.609375 48.390625 
Q 23.390625 48.390625 19.1875 42.75 
Q 14.984375 37.109375 14.984375 27.296875 
Q 14.984375 17.484375 19.15625 11.84375 
Q 23.34375 6.203125 30.609375 6.203125 
Q 37.796875 6.203125 41.984375 11.859375 
Q 46.1875 17.53125 46.1875 27.296875 
Q 46.1875 37.015625 41.984375 42.703125 
Q 37.796875 48.390625 30.609375 48.390625 
z
M 30.609375 56 
Q 42.328125 56 49.015625 48.375 
Q 55.71875 40.765625 55.71875 27.296875 
Q 55.71875 13.875 49.015625 6.21875 
Q 42.328125 -1.421875 30.609375 -1.421875 
Q 18.84375 -1.421875 12.171875 6.21875 
Q 5.515625 13.875 5.515625 27.296875 
Q 5.515625 40.765625 12.171875 48.375 
Q 18.84375 56 30.609375 56 
z
" id="DejaVuSans-111"/>
      <path d="M 48.78125 52.59375 
L 48.78125 44.1875 
Q 44.96875 46.296875 41.140625 47.34375 
Q 37.3125 48.390625 33.40625 48.390625 
Q 24.65625 48.390625 19.8125 42.84375 
Q 14.984375 37.3125 14.984375 27.296875 
Q 14.984375 17.28125 19.8125 11.734375 
Q 24.65625 6.203125 33.40625 6.203125 
Q 37.3125 6.203125 41.140625 7.25 
Q 44.96875 8.296875 48.78125 10.40625 
L 48.78125 2.09375 
Q 45.015625 0.34375 40.984375 -0.53125 
Q 36.96875 -1.421875 32.421875 -1.421875 
Q 20.0625 -1.421875 12.78125 6.34375 
Q 5.515625 14.109375 5.515625 27.296875 
Q 5.515625 40.671875 12.859375 48.328125 
Q 20.21875 56 33.015625 56 
Q 37.15625 56 41.109375 55.140625 
Q 45.0625 54.296875 48.78125 52.59375 
z
" id="DejaVuSans-99"/>
      <path d="M 9.078125 75.984375 
L 18.109375 75.984375 
L 18.109375 31.109375 
L 44.921875 54.6875 
L 56.390625 54.6875 
L 27.390625 29.109375 
L 57.625 0 
L 45.90625 0 
L 18.109375 26.703125 
L 18.109375 0 
L 9.078125 0 
z
" id="DejaVuSans-107"/>
      <path d="M 41.109375 46.296875 
Q 39.59375 47.171875 37.8125 47.578125 
Q 36.03125 48 33.890625 48 
Q 26.265625 48 22.1875 43.046875 
Q 18.109375 38.09375 18.109375 28.8125 
L 18.109375 0 
L 9.078125 0 
L 9.078125 54.6875 
L 18.109375 54.6875 
L 18.109375 46.1875 
Q 20.953125 51.171875 25.484375 53.578125 
Q 30.03125 56 36.53125 56 
Q 37.453125 56 38.578125 55.875 
Q 39.703125 55.765625 41.0625 55.515625 
z
" id="DejaVuSans-114"/>
      <path id="DejaVuSans-32"/>
      <path d="M 4.890625 31.390625 
L 31.203125 31.390625 
L 31.203125 23.390625 
L 4.890625 23.390625 
z
" id="DejaVuSans-45"/>
      <path d="M 37.109375 75.984375 
L 37.109375 68.5 
L 28.515625 68.5 
Q 23.6875 68.5 21.796875 66.546875 
Q 19.921875 64.59375 19.921875 59.515625 
L 19.921875 54.6875 
L 34.71875 54.6875 
L 34.71875 47.703125 
L 19.921875 47.703125 
L 19.921875 0 
L 10.890625 0 
L 10.890625 47.703125 
L 2.296875 47.703125 
L 2.296875 54.6875 
L 10.890625 54.6875 
L 10.890625 58.5 
Q 10.890625 67.625 15.140625 71.796875 
Q 19.390625 75.984375 28.609375 75.984375 
z
" id="DejaVuSans-102"/>
     </defs>
     <use xlink:href="#DejaVuSans-100"/>
     <use x="63.476562" xlink:href="#DejaVuSans-111"/>
     <use x="124.658203" xlink:href="#DejaVuSans-99"/>
     <use x="179.638672" xlink:href="#DejaVuSans-107"/>
     <use x="233.923828" xlink:href="#DejaVuSans-101"/>
     <use x="295.447266" xlink:href="#DejaVuSans-114"/>
     <use x="336.560547" xlink:href="#DejaVuSans-32"/>
     <use x="368.347656" xlink:href="#DejaVuSans-45"/>
     <use x="404.431641" xlink:href="#DejaVuSans-32"/>
     <use x="436.21875" xlink:href="#DejaVuSans-102"/>
     <use x="471.423828" xlink:href="#DejaVuSans-114"/>
     <use x="510.287109" xlink:href="#DejaVuSans-101"/>
     <use x="571.810547" xlink:href="#DejaVuSans-101"/>
    </g>
   </g>
   <g id="legend_1">
    <g id="patch_7">
     <path d="M 650.68 258.52 
L 654.68 258.52 
Q 656.68 258.52 656.68 256.52 
L 656.68 252.52 
Q 656.68 250.52 654.68 250.52 
L 650.68 250.52 
Q 648.68 250.52 648.68 252.52 
L 648.68 256.52 
Q 648.68 258.52 650.68 258.52 
z
" style="fill:#ffffff;opacity:0.8;stroke:#cccccc;stroke-linejoin:miter;"/>
    </g>
   </g>
  </g>
 </g>
 <defs>
  <clipPath id="p519e7643a7">
   <rect height="388.08" width="535.68" x="108" y="60.48"/>
  </clipPath>
 </defs>
</svg>
