<?xml version="1.0" encoding="utf-8" standalone="no"?>
<!DOCTYPE svg PUBLIC "-//W3C//DTD SVG 1.1//EN"
  "http://www.w3.org/Graphics/SVG/1.1/DTD/svg11.dtd">
<!-- Created with matplotlib (https://matplotlib.org/) -->
<svg height="504pt" version="1.1" viewBox="0 0 864 504" width="864pt" xmlns="http://www.w3.org/2000/svg" xmlns:xlink="http://www.w3.org/1999/xlink">
 <metadata>
  <rdf:RDF xmlns:cc="http://creativecommons.org/ns#" xmlns:dc="http://purl.org/dc/elements/1.1/" xmlns:rdf="http://www.w3.org/1999/02/22-rdf-syntax-ns#">
   <cc:Work>
    <dc:type rdf:resource="http://purl.org/dc/dcmitype/StillImage"/>
    <dc:date>2022-06-15T16:58:44.289266</dc:date>
    <dc:format>image/svg+xml</dc:format>
    <dc:creator>
     <cc:Agent>
      <dc:title>Matplotlib v3.3.4, https://matplotlib.org/</dc:title>
     </cc:Agent>
    </dc:creator>
   </cc:Work>
  </rdf:RDF>
 </metadata>
 <defs>
  <style type="text/css">*{stroke-linecap:butt;stroke-linejoin:round;}</style>
 </defs>
 <g id="figure_1">
  <g id="patch_1">
   <path d="M 0 504 
L 864 504 
L 864 0 
L 0 0 
z
" style="fill:#ffffff;"/>
  </g>
  <g id="axes_1">
   <g id="patch_2">
    <path d="M 108 448.56 
L 643.68 448.56 
L 643.68 60.48 
L 108 60.48 
z
" style="fill:#ffffff;"/>
   </g>
   <g id="matplotlib.axis_1">
    <g id="xtick_1">
     <g id="line2d_1">
      <defs>
       <path d="M 0 0 
L 0 3.5 
" id="m55233903cf" style="stroke:#000000;stroke-width:0.8;"/>
      </defs>
      <g>
       <use style="stroke:#000000;stroke-width:0.8;" x="131.853687" xlink:href="#m55233903cf" y="448.56"/>
      </g>
     </g>
     <g id="text_1">
      <!-- 0 -->
      <g transform="translate(128.672437 463.158437)scale(0.1 -0.1)">
       <defs>
        <path d="M 31.78125 66.40625 
Q 24.171875 66.40625 20.328125 58.90625 
Q 16.5 51.421875 16.5 36.375 
Q 16.5 21.390625 20.328125 13.890625 
Q 24.171875 6.390625 31.78125 6.390625 
Q 39.453125 6.390625 43.28125 13.890625 
Q 47.125 21.390625 47.125 36.375 
Q 47.125 51.421875 43.28125 58.90625 
Q 39.453125 66.40625 31.78125 66.40625 
z
M 31.78125 74.21875 
Q 44.046875 74.21875 50.515625 64.515625 
Q 56.984375 54.828125 56.984375 36.375 
Q 56.984375 17.96875 50.515625 8.265625 
Q 44.046875 -1.421875 31.78125 -1.421875 
Q 19.53125 -1.421875 13.0625 8.265625 
Q 6.59375 17.96875 6.59375 36.375 
Q 6.59375 54.828125 13.0625 64.515625 
Q 19.53125 74.21875 31.78125 74.21875 
z
" id="DejaVuSans-48"/>
       </defs>
       <use xlink:href="#DejaVuSans-48"/>
      </g>
     </g>
    </g>
    <g id="xtick_2">
     <g id="line2d_2">
      <g>
       <use style="stroke:#000000;stroke-width:0.8;" x="230.934423" xlink:href="#m55233903cf" y="448.56"/>
      </g>
     </g>
     <g id="text_2">
      <!-- 200 -->
      <g transform="translate(221.390673 463.158437)scale(0.1 -0.1)">
       <defs>
        <path d="M 19.1875 8.296875 
L 53.609375 8.296875 
L 53.609375 0 
L 7.328125 0 
L 7.328125 8.296875 
Q 12.9375 14.109375 22.625 23.890625 
Q 32.328125 33.6875 34.8125 36.53125 
Q 39.546875 41.84375 41.421875 45.53125 
Q 43.3125 49.21875 43.3125 52.78125 
Q 43.3125 58.59375 39.234375 62.25 
Q 35.15625 65.921875 28.609375 65.921875 
Q 23.96875 65.921875 18.8125 64.3125 
Q 13.671875 62.703125 7.8125 59.421875 
L 7.8125 69.390625 
Q 13.765625 71.78125 18.9375 73 
Q 24.125 74.21875 28.421875 74.21875 
Q 39.75 74.21875 46.484375 68.546875 
Q 53.21875 62.890625 53.21875 53.421875 
Q 53.21875 48.921875 51.53125 44.890625 
Q 49.859375 40.875 45.40625 35.40625 
Q 44.1875 33.984375 37.640625 27.21875 
Q 31.109375 20.453125 19.1875 8.296875 
z
" id="DejaVuSans-50"/>
       </defs>
       <use xlink:href="#DejaVuSans-50"/>
       <use x="63.623047" xlink:href="#DejaVuSans-48"/>
       <use x="127.246094" xlink:href="#DejaVuSans-48"/>
      </g>
     </g>
    </g>
    <g id="xtick_3">
     <g id="line2d_3">
      <g>
       <use style="stroke:#000000;stroke-width:0.8;" x="330.01516" xlink:href="#m55233903cf" y="448.56"/>
      </g>
     </g>
     <g id="text_3">
      <!-- 400 -->
      <g transform="translate(320.47141 463.158437)scale(0.1 -0.1)">
       <defs>
        <path d="M 37.796875 64.3125 
L 12.890625 25.390625 
L 37.796875 25.390625 
z
M 35.203125 72.90625 
L 47.609375 72.90625 
L 47.609375 25.390625 
L 58.015625 25.390625 
L 58.015625 17.1875 
L 47.609375 17.1875 
L 47.609375 0 
L 37.796875 0 
L 37.796875 17.1875 
L 4.890625 17.1875 
L 4.890625 26.703125 
z
" id="DejaVuSans-52"/>
       </defs>
       <use xlink:href="#DejaVuSans-52"/>
       <use x="63.623047" xlink:href="#DejaVuSans-48"/>
       <use x="127.246094" xlink:href="#DejaVuSans-48"/>
      </g>
     </g>
    </g>
    <g id="xtick_4">
     <g id="line2d_4">
      <g>
       <use style="stroke:#000000;stroke-width:0.8;" x="429.095896" xlink:href="#m55233903cf" y="448.56"/>
      </g>
     </g>
     <g id="text_4">
      <!-- 600 -->
      <g transform="translate(419.552146 463.158437)scale(0.1 -0.1)">
       <defs>
        <path d="M 33.015625 40.375 
Q 26.375 40.375 22.484375 35.828125 
Q 18.609375 31.296875 18.609375 23.390625 
Q 18.609375 15.53125 22.484375 10.953125 
Q 26.375 6.390625 33.015625 6.390625 
Q 39.65625 6.390625 43.53125 10.953125 
Q 47.40625 15.53125 47.40625 23.390625 
Q 47.40625 31.296875 43.53125 35.828125 
Q 39.65625 40.375 33.015625 40.375 
z
M 52.59375 71.296875 
L 52.59375 62.3125 
Q 48.875 64.0625 45.09375 64.984375 
Q 41.3125 65.921875 37.59375 65.921875 
Q 27.828125 65.921875 22.671875 59.328125 
Q 17.53125 52.734375 16.796875 39.40625 
Q 19.671875 43.65625 24.015625 45.921875 
Q 28.375 48.1875 33.59375 48.1875 
Q 44.578125 48.1875 50.953125 41.515625 
Q 57.328125 34.859375 57.328125 23.390625 
Q 57.328125 12.15625 50.6875 5.359375 
Q 44.046875 -1.421875 33.015625 -1.421875 
Q 20.359375 -1.421875 13.671875 8.265625 
Q 6.984375 17.96875 6.984375 36.375 
Q 6.984375 53.65625 15.1875 63.9375 
Q 23.390625 74.21875 37.203125 74.21875 
Q 40.921875 74.21875 44.703125 73.484375 
Q 48.484375 72.75 52.59375 71.296875 
z
" id="DejaVuSans-54"/>
       </defs>
       <use xlink:href="#DejaVuSans-54"/>
       <use x="63.623047" xlink:href="#DejaVuSans-48"/>
       <use x="127.246094" xlink:href="#DejaVuSans-48"/>
      </g>
     </g>
    </g>
    <g id="xtick_5">
     <g id="line2d_5">
      <g>
       <use style="stroke:#000000;stroke-width:0.8;" x="528.176632" xlink:href="#m55233903cf" y="448.56"/>
      </g>
     </g>
     <g id="text_5">
      <!-- 800 -->
      <g transform="translate(518.632882 463.158437)scale(0.1 -0.1)">
       <defs>
        <path d="M 31.78125 34.625 
Q 24.75 34.625 20.71875 30.859375 
Q 16.703125 27.09375 16.703125 20.515625 
Q 16.703125 13.921875 20.71875 10.15625 
Q 24.75 6.390625 31.78125 6.390625 
Q 38.8125 6.390625 42.859375 10.171875 
Q 46.921875 13.96875 46.921875 20.515625 
Q 46.921875 27.09375 42.890625 30.859375 
Q 38.875 34.625 31.78125 34.625 
z
M 21.921875 38.8125 
Q 15.578125 40.375 12.03125 44.71875 
Q 8.5 49.078125 8.5 55.328125 
Q 8.5 64.0625 14.71875 69.140625 
Q 20.953125 74.21875 31.78125 74.21875 
Q 42.671875 74.21875 48.875 69.140625 
Q 55.078125 64.0625 55.078125 55.328125 
Q 55.078125 49.078125 51.53125 44.71875 
Q 48 40.375 41.703125 38.8125 
Q 48.828125 37.15625 52.796875 32.3125 
Q 56.78125 27.484375 56.78125 20.515625 
Q 56.78125 9.90625 50.3125 4.234375 
Q 43.84375 -1.421875 31.78125 -1.421875 
Q 19.734375 -1.421875 13.25 4.234375 
Q 6.78125 9.90625 6.78125 20.515625 
Q 6.78125 27.484375 10.78125 32.3125 
Q 14.796875 37.15625 21.921875 38.8125 
z
M 18.3125 54.390625 
Q 18.3125 48.734375 21.84375 45.5625 
Q 25.390625 42.390625 31.78125 42.390625 
Q 38.140625 42.390625 41.71875 45.5625 
Q 45.3125 48.734375 45.3125 54.390625 
Q 45.3125 60.0625 41.71875 63.234375 
Q 38.140625 66.40625 31.78125 66.40625 
Q 25.390625 66.40625 21.84375 63.234375 
Q 18.3125 60.0625 18.3125 54.390625 
z
" id="DejaVuSans-56"/>
       </defs>
       <use xlink:href="#DejaVuSans-56"/>
       <use x="63.623047" xlink:href="#DejaVuSans-48"/>
       <use x="127.246094" xlink:href="#DejaVuSans-48"/>
      </g>
     </g>
    </g>
    <g id="xtick_6">
     <g id="line2d_6">
      <g>
       <use style="stroke:#000000;stroke-width:0.8;" x="627.257368" xlink:href="#m55233903cf" y="448.56"/>
      </g>
     </g>
     <g id="text_6">
      <!-- 1000 -->
      <g transform="translate(614.532368 463.158437)scale(0.1 -0.1)">
       <defs>
        <path d="M 12.40625 8.296875 
L 28.515625 8.296875 
L 28.515625 63.921875 
L 10.984375 60.40625 
L 10.984375 69.390625 
L 28.421875 72.90625 
L 38.28125 72.90625 
L 38.28125 8.296875 
L 54.390625 8.296875 
L 54.390625 0 
L 12.40625 0 
z
" id="DejaVuSans-49"/>
       </defs>
       <use xlink:href="#DejaVuSans-49"/>
       <use x="63.623047" xlink:href="#DejaVuSans-48"/>
       <use x="127.246094" xlink:href="#DejaVuSans-48"/>
       <use x="190.869141" xlink:href="#DejaVuSans-48"/>
      </g>
     </g>
    </g>
    <g id="text_7">
     <!-- timestamp -->
     <g transform="translate(354.264375 475.316875)scale(0.08 -0.08)">
      <defs>
       <path d="M 18.3125 70.21875 
L 18.3125 54.6875 
L 36.8125 54.6875 
L 36.8125 47.703125 
L 18.3125 47.703125 
L 18.3125 18.015625 
Q 18.3125 11.328125 20.140625 9.421875 
Q 21.96875 7.515625 27.59375 7.515625 
L 36.8125 7.515625 
L 36.8125 0 
L 27.59375 0 
Q 17.1875 0 13.234375 3.875 
Q 9.28125 7.765625 9.28125 18.015625 
L 9.28125 47.703125 
L 2.6875 47.703125 
L 2.6875 54.6875 
L 9.28125 54.6875 
L 9.28125 70.21875 
z
" id="DejaVuSans-116"/>
       <path d="M 9.421875 54.6875 
L 18.40625 54.6875 
L 18.40625 0 
L 9.421875 0 
z
M 9.421875 75.984375 
L 18.40625 75.984375 
L 18.40625 64.59375 
L 9.421875 64.59375 
z
" id="DejaVuSans-105"/>
       <path d="M 52 44.1875 
Q 55.375 50.25 60.0625 53.125 
Q 64.75 56 71.09375 56 
Q 79.640625 56 84.28125 50.015625 
Q 88.921875 44.046875 88.921875 33.015625 
L 88.921875 0 
L 79.890625 0 
L 79.890625 32.71875 
Q 79.890625 40.578125 77.09375 44.375 
Q 74.3125 48.1875 68.609375 48.1875 
Q 61.625 48.1875 57.5625 43.546875 
Q 53.515625 38.921875 53.515625 30.90625 
L 53.515625 0 
L 44.484375 0 
L 44.484375 32.71875 
Q 44.484375 40.625 41.703125 44.40625 
Q 38.921875 48.1875 33.109375 48.1875 
Q 26.21875 48.1875 22.15625 43.53125 
Q 18.109375 38.875 18.109375 30.90625 
L 18.109375 0 
L 9.078125 0 
L 9.078125 54.6875 
L 18.109375 54.6875 
L 18.109375 46.1875 
Q 21.1875 51.21875 25.484375 53.609375 
Q 29.78125 56 35.6875 56 
Q 41.65625 56 45.828125 52.96875 
Q 50 49.953125 52 44.1875 
z
" id="DejaVuSans-109"/>
       <path d="M 56.203125 29.59375 
L 56.203125 25.203125 
L 14.890625 25.203125 
Q 15.484375 15.921875 20.484375 11.0625 
Q 25.484375 6.203125 34.421875 6.203125 
Q 39.59375 6.203125 44.453125 7.46875 
Q 49.3125 8.734375 54.109375 11.28125 
L 54.109375 2.78125 
Q 49.265625 0.734375 44.1875 -0.34375 
Q 39.109375 -1.421875 33.890625 -1.421875 
Q 20.796875 -1.421875 13.15625 6.1875 
Q 5.515625 13.8125 5.515625 26.8125 
Q 5.515625 40.234375 12.765625 48.109375 
Q 20.015625 56 32.328125 56 
Q 43.359375 56 49.78125 48.890625 
Q 56.203125 41.796875 56.203125 29.59375 
z
M 47.21875 32.234375 
Q 47.125 39.59375 43.09375 43.984375 
Q 39.0625 48.390625 32.421875 48.390625 
Q 24.90625 48.390625 20.390625 44.140625 
Q 15.875 39.890625 15.1875 32.171875 
z
" id="DejaVuSans-101"/>
       <path d="M 44.28125 53.078125 
L 44.28125 44.578125 
Q 40.484375 46.53125 36.375 47.5 
Q 32.28125 48.484375 27.875 48.484375 
Q 21.1875 48.484375 17.84375 46.4375 
Q 14.5 44.390625 14.5 40.28125 
Q 14.5 37.15625 16.890625 35.375 
Q 19.28125 33.59375 26.515625 31.984375 
L 29.59375 31.296875 
Q 39.15625 29.25 43.1875 25.515625 
Q 47.21875 21.78125 47.21875 15.09375 
Q 47.21875 7.46875 41.1875 3.015625 
Q 35.15625 -1.421875 24.609375 -1.421875 
Q 20.21875 -1.421875 15.453125 -0.5625 
Q 10.6875 0.296875 5.421875 2 
L 5.421875 11.28125 
Q 10.40625 8.6875 15.234375 7.390625 
Q 20.0625 6.109375 24.8125 6.109375 
Q 31.15625 6.109375 34.5625 8.28125 
Q 37.984375 10.453125 37.984375 14.40625 
Q 37.984375 18.0625 35.515625 20.015625 
Q 33.0625 21.96875 24.703125 23.78125 
L 21.578125 24.515625 
Q 13.234375 26.265625 9.515625 29.90625 
Q 5.8125 33.546875 5.8125 39.890625 
Q 5.8125 47.609375 11.28125 51.796875 
Q 16.75 56 26.8125 56 
Q 31.78125 56 36.171875 55.265625 
Q 40.578125 54.546875 44.28125 53.078125 
z
" id="DejaVuSans-115"/>
       <path d="M 34.28125 27.484375 
Q 23.390625 27.484375 19.1875 25 
Q 14.984375 22.515625 14.984375 16.5 
Q 14.984375 11.71875 18.140625 8.90625 
Q 21.296875 6.109375 26.703125 6.109375 
Q 34.1875 6.109375 38.703125 11.40625 
Q 43.21875 16.703125 43.21875 25.484375 
L 43.21875 27.484375 
z
M 52.203125 31.203125 
L 52.203125 0 
L 43.21875 0 
L 43.21875 8.296875 
Q 40.140625 3.328125 35.546875 0.953125 
Q 30.953125 -1.421875 24.3125 -1.421875 
Q 15.921875 -1.421875 10.953125 3.296875 
Q 6 8.015625 6 15.921875 
Q 6 25.140625 12.171875 29.828125 
Q 18.359375 34.515625 30.609375 34.515625 
L 43.21875 34.515625 
L 43.21875 35.40625 
Q 43.21875 41.609375 39.140625 45 
Q 35.0625 48.390625 27.6875 48.390625 
Q 23 48.390625 18.546875 47.265625 
Q 14.109375 46.140625 10.015625 43.890625 
L 10.015625 52.203125 
Q 14.9375 54.109375 19.578125 55.046875 
Q 24.21875 56 28.609375 56 
Q 40.484375 56 46.34375 49.84375 
Q 52.203125 43.703125 52.203125 31.203125 
z
" id="DejaVuSans-97"/>
       <path d="M 18.109375 8.203125 
L 18.109375 -20.796875 
L 9.078125 -20.796875 
L 9.078125 54.6875 
L 18.109375 54.6875 
L 18.109375 46.390625 
Q 20.953125 51.265625 25.265625 53.625 
Q 29.59375 56 35.59375 56 
Q 45.5625 56 51.78125 48.09375 
Q 58.015625 40.1875 58.015625 27.296875 
Q 58.015625 14.40625 51.78125 6.484375 
Q 45.5625 -1.421875 35.59375 -1.421875 
Q 29.59375 -1.421875 25.265625 0.953125 
Q 20.953125 3.328125 18.109375 8.203125 
z
M 48.6875 27.296875 
Q 48.6875 37.203125 44.609375 42.84375 
Q 40.53125 48.484375 33.40625 48.484375 
Q 26.265625 48.484375 22.1875 42.84375 
Q 18.109375 37.203125 18.109375 27.296875 
Q 18.109375 17.390625 22.1875 11.75 
Q 26.265625 6.109375 33.40625 6.109375 
Q 40.53125 6.109375 44.609375 11.75 
Q 48.6875 17.390625 48.6875 27.296875 
z
" id="DejaVuSans-112"/>
      </defs>
      <use xlink:href="#DejaVuSans-116"/>
      <use x="39.208984" xlink:href="#DejaVuSans-105"/>
      <use x="66.992188" xlink:href="#DejaVuSans-109"/>
      <use x="164.404297" xlink:href="#DejaVuSans-101"/>
      <use x="225.927734" xlink:href="#DejaVuSans-115"/>
      <use x="278.027344" xlink:href="#DejaVuSans-116"/>
      <use x="317.236328" xlink:href="#DejaVuSans-97"/>
      <use x="378.515625" xlink:href="#DejaVuSans-109"/>
      <use x="475.927734" xlink:href="#DejaVuSans-112"/>
     </g>
    </g>
   </g>
   <g id="matplotlib.axis_2">
    <g id="ytick_1">
     <g id="line2d_7">
      <defs>
       <path d="M 0 0 
L -3.5 0 
" id="m025011364d" style="stroke:#000000;stroke-width:0.8;"/>
      </defs>
      <g>
       <use style="stroke:#000000;stroke-width:0.8;" x="108" xlink:href="#m025011364d" y="411.146096"/>
      </g>
     </g>
     <g id="text_8">
      <!-- 18 -->
      <g transform="translate(88.275 414.945315)scale(0.1 -0.1)">
       <use xlink:href="#DejaVuSans-49"/>
       <use x="63.623047" xlink:href="#DejaVuSans-56"/>
      </g>
     </g>
    </g>
    <g id="ytick_2">
     <g id="line2d_8">
      <g>
       <use style="stroke:#000000;stroke-width:0.8;" x="108" xlink:href="#m025011364d" y="348.613562"/>
      </g>
     </g>
     <g id="text_9">
      <!-- 20 -->
      <g transform="translate(88.275 352.412781)scale(0.1 -0.1)">
       <use xlink:href="#DejaVuSans-50"/>
       <use x="63.623047" xlink:href="#DejaVuSans-48"/>
      </g>
     </g>
    </g>
    <g id="ytick_3">
     <g id="line2d_9">
      <g>
       <use style="stroke:#000000;stroke-width:0.8;" x="108" xlink:href="#m025011364d" y="286.081028"/>
      </g>
     </g>
     <g id="text_10">
      <!-- 22 -->
      <g transform="translate(88.275 289.880247)scale(0.1 -0.1)">
       <use xlink:href="#DejaVuSans-50"/>
       <use x="63.623047" xlink:href="#DejaVuSans-50"/>
      </g>
     </g>
    </g>
    <g id="ytick_4">
     <g id="line2d_10">
      <g>
       <use style="stroke:#000000;stroke-width:0.8;" x="108" xlink:href="#m025011364d" y="223.548494"/>
      </g>
     </g>
     <g id="text_11">
      <!-- 24 -->
      <g transform="translate(88.275 227.347713)scale(0.1 -0.1)">
       <use xlink:href="#DejaVuSans-50"/>
       <use x="63.623047" xlink:href="#DejaVuSans-52"/>
      </g>
     </g>
    </g>
    <g id="ytick_5">
     <g id="line2d_11">
      <g>
       <use style="stroke:#000000;stroke-width:0.8;" x="108" xlink:href="#m025011364d" y="161.01596"/>
      </g>
     </g>
     <g id="text_12">
      <!-- 26 -->
      <g transform="translate(88.275 164.815179)scale(0.1 -0.1)">
       <use xlink:href="#DejaVuSans-50"/>
       <use x="63.623047" xlink:href="#DejaVuSans-54"/>
      </g>
     </g>
    </g>
    <g id="ytick_6">
     <g id="line2d_12">
      <g>
       <use style="stroke:#000000;stroke-width:0.8;" x="108" xlink:href="#m025011364d" y="98.483427"/>
      </g>
     </g>
     <g id="text_13">
      <!-- 28 -->
      <g transform="translate(88.275 102.282645)scale(0.1 -0.1)">
       <use xlink:href="#DejaVuSans-50"/>
       <use x="63.623047" xlink:href="#DejaVuSans-56"/>
      </g>
     </g>
    </g>
    <g id="text_14">
     <!-- MB -->
     <g transform="translate(82.61125 260.715625)rotate(-90)scale(0.08 -0.08)">
      <defs>
       <path d="M 9.8125 72.90625 
L 24.515625 72.90625 
L 43.109375 23.296875 
L 61.8125 72.90625 
L 76.515625 72.90625 
L 76.515625 0 
L 66.890625 0 
L 66.890625 64.015625 
L 48.09375 14.015625 
L 38.1875 14.015625 
L 19.390625 64.015625 
L 19.390625 0 
L 9.8125 0 
z
" id="DejaVuSans-77"/>
       <path d="M 19.671875 34.8125 
L 19.671875 8.109375 
L 35.5 8.109375 
Q 43.453125 8.109375 47.28125 11.40625 
Q 51.125 14.703125 51.125 21.484375 
Q 51.125 28.328125 47.28125 31.5625 
Q 43.453125 34.8125 35.5 34.8125 
z
M 19.671875 64.796875 
L 19.671875 42.828125 
L 34.28125 42.828125 
Q 41.5 42.828125 45.03125 45.53125 
Q 48.578125 48.25 48.578125 53.8125 
Q 48.578125 59.328125 45.03125 62.0625 
Q 41.5 64.796875 34.28125 64.796875 
z
M 9.8125 72.90625 
L 35.015625 72.90625 
Q 46.296875 72.90625 52.390625 68.21875 
Q 58.5 63.53125 58.5 54.890625 
Q 58.5 48.1875 55.375 44.234375 
Q 52.25 40.28125 46.1875 39.3125 
Q 53.46875 37.75 57.5 32.78125 
Q 61.53125 27.828125 61.53125 20.40625 
Q 61.53125 10.640625 54.890625 5.3125 
Q 48.25 0 35.984375 0 
L 9.8125 0 
z
" id="DejaVuSans-66"/>
      </defs>
      <use xlink:href="#DejaVuSans-77"/>
      <use x="86.279297" xlink:href="#DejaVuSans-66"/>
     </g>
    </g>
   </g>
   <g id="line2d_13">
    <path clip-path="url(#pf89e09abae)" d="M 132.349091 430.78886 
L 132.844495 430.92 
L 133.339898 430.92 
L 133.835302 426.821868 
L 134.330706 430.78886 
L 134.826109 430.78886 
L 135.321513 430.92 
L 137.303128 430.92 
L 137.798531 420.953343 
L 138.293935 389.676398 
L 138.789339 343.974028 
L 139.780146 274.174642 
L 140.770953 214.636978 
L 141.266357 164.967616 
L 142.257165 108.708458 
L 142.752568 100.80726 
L 143.247972 98.28281 
L 143.743376 98.28281 
L 144.238779 99.823708 
L 145.229587 99.299147 
L 145.72499 96.577987 
L 146.220394 95.692791 
L 146.715798 95.955071 
L 147.211201 97.102548 
L 147.706605 97.102548 
L 148.202009 97.856604 
L 148.697412 97.95496 
L 149.192816 94.709239 
L 149.68822 99.463072 
L 150.183623 99.495857 
L 150.679027 99.397502 
L 151.174431 94.151893 
L 151.669834 97.004193 
L 152.165238 92.086434 
L 152.660642 95.29937 
L 153.156046 93.758472 
L 153.651449 94.643669 
L 154.146853 97.463184 
L 154.642257 97.594324 
L 155.13766 97.95496 
L 155.633064 100.479409 
L 156.128468 100.610549 
L 157.119275 99.987633 
L 157.614679 99.331932 
L 158.110082 97.102548 
L 158.605486 96.315707 
L 159.10089 95.758361 
L 159.596293 95.758361 
L 160.091697 95.955071 
L 160.587101 95.922286 
L 161.082504 95.16823 
L 161.577908 93.561762 
L 162.073312 94.086323 
L 162.568715 93.365052 
L 163.064119 93.725687 
L 163.559523 93.463407 
L 164.054926 93.069986 
L 164.55033 88.185013 
L 165.045734 91.758584 
L 165.541138 91.758584 
L 166.036541 91.627444 
L 166.531945 87.660452 
L 167.027349 93.692902 
L 167.522752 93.824042 
L 168.018156 93.299481 
L 168.51356 93.102771 
L 169.008963 93.627332 
L 169.999771 93.889612 
L 170.990578 93.627332 
L 171.485982 93.365052 
L 171.981385 89.430845 
L 172.476789 93.528977 
L 172.972193 93.528977 
L 173.467596 93.135556 
L 173.963 94.151893 
L 174.458404 94.643669 
L 174.953807 93.627332 
L 175.449211 93.856827 
L 175.944615 90.152116 
L 176.440018 95.266585 
L 176.935422 95.528865 
L 177.92623 94.348603 
L 178.421633 94.479744 
L 178.917037 90.250471 
L 179.412441 94.348603 
L 179.907844 94.479744 
L 180.403248 94.217463 
L 180.898652 90.611107 
L 181.394055 95.266585 
L 181.889459 95.49608 
L 182.384863 96.545202 
L 182.880266 96.053426 
L 183.37567 96.414062 
L 183.871074 96.414062 
L 184.366477 96.151781 
L 184.861881 95.135445 
L 185.357285 95.004304 
L 185.852688 94.119108 
L 186.348092 90.414396 
L 186.843496 95.397725 
L 187.338899 95.2338 
L 187.834303 94.873164 
L 188.329707 95.528865 
L 188.825111 91.824154 
L 189.320514 94.774809 
L 189.815918 94.414173 
L 190.311322 94.479744 
L 190.806725 94.151893 
L 191.302129 94.151893 
L 191.797533 90.283256 
L 192.292936 94.512529 
L 192.78834 94.119108 
L 193.283744 93.332267 
L 193.779147 92.840491 
L 194.274551 93.463407 
L 194.769955 94.348603 
L 195.265358 94.119108 
L 195.760762 95.004304 
L 196.256166 95.10266 
L 196.751569 94.020753 
L 197.246973 93.955183 
L 197.742377 94.742024 
L 198.23778 95.004304 
L 198.733184 94.873164 
L 199.228588 93.594547 
L 199.723991 93.987968 
L 200.219395 93.201126 
L 200.714799 94.250248 
L 201.210203 94.250248 
L 201.705606 95.56165 
L 202.20101 96.151781 
L 202.696414 95.004304 
L 203.191817 92.971631 
L 203.687221 92.840491 
L 204.182625 92.840491 
L 204.678028 93.102771 
L 205.173432 92.742135 
L 205.668836 92.840491 
L 206.164239 91.856939 
L 206.659643 91.561873 
L 207.155047 87.332601 
L 207.65045 92.610995 
L 208.145854 92.44707 
L 208.641258 92.840491 
L 209.136661 94.250248 
L 209.632065 92.57821 
L 210.127469 92.70935 
L 211.118276 94.610884 
L 211.61368 94.250248 
L 212.109084 94.381388 
L 212.604487 94.348603 
L 213.099891 89.59477 
L 213.595295 93.692902 
L 214.090698 93.889612 
L 214.586102 93.201126 
L 215.081506 92.807706 
L 215.576909 93.069986 
L 216.072313 94.119108 
L 216.567717 94.873164 
L 217.06312 94.381388 
L 217.558524 94.610884 
L 218.053928 94.217463 
L 218.549331 94.217463 
L 219.044735 94.348603 
L 219.540139 86.414619 
L 220.035542 94.479744 
L 220.530946 93.725687 
L 221.02635 91.397948 
L 221.521753 91.529088 
L 222.017157 91.529088 
L 222.512561 91.660229 
L 223.007964 92.053649 
L 223.503368 91.922509 
L 223.998772 91.660229 
L 224.494176 92.053649 
L 224.989579 91.824154 
L 225.980387 92.971631 
L 226.47579 88.381723 
L 226.971194 88.381723 
L 227.466598 92.3815 
L 227.962001 92.51264 
L 228.457405 92.873276 
L 228.952809 92.840491 
L 229.448212 88.873499 
L 229.943616 92.479855 
L 230.43902 92.479855 
L 230.934423 88.250583 
L 231.429827 92.742135 
L 232.916038 89.627555 
L 233.411442 89.39806 
L 233.906845 89.693125 
L 234.402249 89.824265 
L 234.897653 89.79148 
L 237.374671 90.545537 
L 237.870075 90.053761 
L 238.365479 89.824265 
L 238.860882 90.316041 
L 239.356286 89.85705 
L 239.85169 90.381611 
L 240.347093 90.643892 
L 240.842497 90.775032 
L 241.337901 86.54576 
L 241.833304 89.758695 
L 242.328708 90.283256 
L 242.824112 85.398283 
L 243.319515 89.758695 
L 243.814919 88.840714 
L 244.310323 89.627555 
L 244.805726 88.578433 
L 245.30113 84.218021 
L 245.796534 89.496415 
L 246.291937 86.316264 
L 246.787341 90.283256 
L 247.282745 90.775032 
L 247.778149 89.627555 
L 248.273552 87.824377 
L 248.768956 88.611218 
L 249.26436 88.086657 
L 249.759763 88.611218 
L 250.750571 88.250583 
L 251.245974 84.316376 
L 251.741378 87.496526 
L 252.236782 87.988302 
L 252.732185 88.119442 
L 253.227589 83.89017 
L 253.722993 89.39806 
L 254.218396 86.447405 
L 254.7138 86.053984 
L 255.209204 90.053761 
L 255.704607 90.053761 
L 256.200011 90.316041 
L 256.695415 86.840825 
L 257.190818 90.676677 
L 257.686222 90.184901 
L 258.181626 90.447181 
L 258.67703 90.840602 
L 259.172433 90.840602 
L 259.667837 91.070098 
L 260.163241 90.938957 
L 260.658644 86.74247 
L 261.154048 91.725799 
L 261.649452 87.726022 
L 262.144855 91.955294 
L 262.640259 94.283033 
L 263.135663 94.151893 
L 263.631066 94.905949 
L 264.12647 94.512529 
L 265.612681 94.774809 
L 266.108085 90.938957 
L 266.603488 94.610884 
L 267.098892 94.873164 
L 267.594296 90.676677 
L 268.089699 90.545537 
L 268.585103 93.463407 
L 269.080507 92.807706 
L 270.071314 94.217463 
L 270.566718 94.742024 
L 271.062122 94.250248 
L 271.557525 93.463407 
L 272.052929 93.594547 
L 272.548333 93.201126 
L 273.043736 92.971631 
L 273.53914 93.496192 
L 274.034544 93.102771 
L 274.529947 85.037647 
L 275.025351 92.217575 
L 275.520755 92.57821 
L 276.016158 92.57821 
L 277.006966 93.758472 
L 277.502369 89.66034 
L 277.997773 94.676454 
L 278.493177 92.44707 
L 278.98858 87.299816 
L 279.483984 91.266808 
L 279.979388 90.742247 
L 280.474791 90.611107 
L 280.970195 86.775255 
L 281.465599 90.742247 
L 281.961002 88.644003 
L 282.456406 87.299816 
L 282.95181 86.93918 
L 283.942617 88.971854 
L 284.438021 88.971854 
L 284.933425 89.824265 
L 285.428828 92.152004 
L 285.924232 91.529088 
L 286.419636 91.791369 
L 286.915039 91.397948 
L 287.905847 89.201349 
L 288.40125 88.939069 
L 288.896654 88.480078 
L 289.887461 86.152339 
L 290.382865 86.414619 
L 290.878269 86.283479 
L 291.869076 87.168676 
L 292.36448 87.693237 
L 292.859883 84.644226 
L 293.355287 89.004639 
L 293.850691 89.135779 
L 294.346095 89.5292 
L 294.841498 89.5292 
L 295.336902 89.79148 
L 295.832306 89.922621 
L 296.327709 85.693348 
L 296.823113 89.922621 
L 297.318517 85.431068 
L 297.81392 89.004639 
L 298.309324 84.381946 
L 298.804728 88.086657 
L 299.300131 78.710131 
L 299.795535 83.103329 
L 300.290939 79.431402 
L 300.786342 87.726022 
L 301.281746 86.48019 
L 301.77715 85.988414 
L 302.272553 81.496861 
L 302.767957 85.627778 
L 303.263361 86.250694 
L 304.254168 86.906395 
L 304.749572 87.037536 
L 305.244975 86.644115 
L 305.740379 86.512975 
L 306.235783 85.857273 
L 306.731187 85.594993 
L 307.22659 86.61133 
L 307.721994 86.61133 
L 308.217398 88.152227 
L 308.712801 84.677011 
L 309.208205 89.79148 
L 309.703609 86.414619 
L 310.199012 90.545537 
L 310.694416 89.922621 
L 311.18982 89.79148 
L 311.685223 89.004639 
L 312.180627 84.08688 
L 312.676031 88.053872 
L 313.171434 89.234134 
L 313.666838 89.135779 
L 314.162242 87.693237 
L 314.657645 87.037536 
L 315.648453 88.676788 
L 316.143856 80.90673 
L 316.63926 89.758695 
L 317.134664 89.889836 
L 317.630068 89.627555 
L 318.125471 89.758695 
L 318.620875 89.004639 
L 319.611682 88.480078 
L 320.107086 84.513086 
L 320.60249 89.234134 
L 321.097893 88.119442 
L 321.593297 84.381946 
L 322.088701 89.365275 
L 322.584104 89.234134 
L 323.079508 89.758695 
L 323.574912 86.6769 
L 324.070315 84.742582 
L 324.565719 90.217686 
L 325.061123 89.955406 
L 326.05193 90.348826 
L 326.547334 89.234134 
L 327.538141 88.217798 
L 328.033545 86.971965 
L 328.528948 87.037536 
L 329.024352 83.62789 
L 329.519756 88.873499 
L 330.01516 88.873499 
L 330.510563 89.758695 
L 331.005967 85.562208 
L 331.501371 90.020976 
L 331.996774 89.234134 
L 332.492178 89.365275 
L 332.987582 89.758695 
L 333.482985 89.758695 
L 333.978389 85.136002 
L 334.473793 89.102994 
L 334.969196 89.365275 
L 335.960004 89.365275 
L 336.455407 89.988191 
L 336.950811 86.283479 
L 337.446215 90.643892 
L 337.941618 90.906172 
L 338.437022 91.299593 
L 338.932426 87.824377 
L 339.427829 91.266808 
L 339.923233 86.644115 
L 340.418637 89.85705 
L 340.914041 85.234357 
L 341.409444 90.119331 
L 341.904848 90.086546 
L 342.400252 86.54576 
L 342.895655 89.135779 
L 343.391059 81.988637 
L 343.886463 81.332936 
L 344.381866 86.053984 
L 344.87727 88.480078 
L 345.372674 88.742359 
L 345.868077 88.217798 
L 346.363481 88.086657 
L 346.858885 79.660898 
L 347.354288 87.857162 
L 347.849692 84.414731 
L 348.345096 88.250583 
L 348.840499 88.381723 
L 349.335903 88.250583 
L 349.831307 80.349384 
L 350.32671 88.545648 
L 350.822114 88.676788 
L 351.317518 87.889947 
L 351.812921 88.250583 
L 352.308325 87.955517 
L 352.803729 83.463964 
L 353.299133 88.578433 
L 353.794536 88.709573 
L 354.28994 88.709573 
L 354.785344 83.62789 
L 355.280747 86.414619 
L 355.776151 86.414619 
L 356.271555 86.80804 
L 356.766958 87.726022 
L 357.262362 87.594882 
L 358.253169 86.283479 
L 358.748573 86.644115 
L 359.243977 79.988748 
L 359.73938 88.053872 
L 360.234784 88.447293 
L 360.730188 83.988525 
L 361.225591 88.381723 
L 361.720995 83.463964 
L 362.216399 86.80804 
L 362.711802 87.201461 
L 363.207206 87.332601 
L 363.70261 86.93918 
L 364.198014 87.463741 
L 365.188821 87.463741 
L 365.684225 89.59477 
L 366.675032 89.102994 
L 367.170436 89.201349 
L 367.665839 88.840714 
L 368.161243 88.971854 
L 368.656647 84.873722 
L 369.15205 88.840714 
L 369.647454 88.971854 
L 370.142858 87.824377 
L 370.638261 87.168676 
L 371.133665 87.070321 
L 371.629069 87.791592 
L 372.124472 87.660452 
L 373.11528 90.283256 
L 373.610683 80.677234 
L 374.106087 88.348938 
L 374.601491 88.742359 
L 375.096894 85.168787 
L 375.592298 88.873499 
L 376.087702 88.742359 
L 377.078509 89.004639 
L 377.573913 83.857385 
L 378.069317 87.234246 
L 378.56472 87.365386 
L 379.060124 86.086769 
L 379.555528 83.103329 
L 380.050931 84.775367 
L 380.546335 88.578433 
L 381.041739 84.775367 
L 381.537142 87.955517 
L 382.032546 87.430956 
L 382.52795 83.726245 
L 383.023353 87.693237 
L 383.518757 88.086657 
L 384.014161 84.611441 
L 384.509564 88.709573 
L 385.004968 87.562096 
L 385.500372 87.693237 
L 385.995775 87.562096 
L 386.491179 87.693237 
L 386.986583 83.988525 
L 387.481986 87.824377 
L 387.97739 87.562096 
L 388.472794 88.217798 
L 388.968198 88.217798 
L 389.463601 88.348938 
L 389.959005 88.873499 
L 390.454409 88.873499 
L 390.949812 88.348938 
L 391.445216 88.873499 
L 392.436023 88.873499 
L 392.931427 87.824377 
L 393.426831 87.693237 
L 393.922234 89.234134 
L 394.417638 89.234134 
L 394.913042 89.365275 
L 395.408445 88.840714 
L 395.903849 88.578433 
L 396.399253 88.709573 
L 396.894656 89.234134 
L 397.39006 89.234134 
L 397.885464 88.578433 
L 398.380867 89.102994 
L 398.876271 89.102994 
L 399.371675 89.234134 
L 399.867079 88.709573 
L 400.362482 88.709573 
L 400.857886 88.447293 
L 401.35329 85.267142 
L 401.848693 89.889836 
L 402.344097 89.496415 
L 402.839501 89.758695 
L 403.334904 84.873722 
L 403.830308 83.857385 
L 404.325712 87.430956 
L 404.821115 87.955517 
L 405.316519 87.824377 
L 405.811923 88.217798 
L 406.307326 84.906507 
L 406.80273 88.873499 
L 407.298134 88.611218 
L 407.793537 84.349161 
L 408.288941 87.430956 
L 408.784345 89.46363 
L 409.279748 89.33249 
L 409.775152 90.119331 
L 410.270556 89.72591 
L 410.765959 89.59477 
L 411.261363 90.512752 
L 411.756767 89.988191 
L 412.747574 89.365275 
L 413.242978 89.496415 
L 413.738382 89.889836 
L 414.233785 89.365275 
L 414.729189 89.102994 
L 415.224593 88.971854 
L 415.719996 89.496415 
L 416.2154 88.447293 
L 417.206207 88.348938 
L 417.701611 88.348938 
L 418.197015 88.185013 
L 418.692418 88.775144 
L 419.187822 88.906284 
L 419.683226 88.119442 
L 420.178629 88.119442 
L 421.169437 79.923178 
L 421.66484 87.857162 
L 422.160244 88.611218 
L 422.655648 89.627555 
L 423.646455 91.102883 
L 424.141859 90.348826 
L 424.637263 89.85705 
L 425.132666 89.561985 
L 425.62807 85.791703 
L 426.123474 90.447181 
L 426.618877 89.988191 
L 427.114281 89.955406 
L 427.609685 85.857273 
L 428.105088 88.152227 
L 428.600492 83.791815 
L 429.095896 88.283368 
L 429.591299 88.381723 
L 430.086703 85.594993 
L 430.582107 89.922621 
L 431.07751 88.512863 
L 431.572914 88.873499 
L 432.068318 88.348938 
L 433.059125 89.39806 
L 433.554529 88.480078 
L 434.049932 84.250806 
L 434.545336 88.086657 
L 435.04074 83.857385 
L 435.536144 88.086657 
L 436.031547 84.250806 
L 436.526951 88.348938 
L 437.022355 89.135779 
L 437.517758 89.266919 
L 438.508566 88.742359 
L 439.003969 89.234134 
L 439.499373 88.053872 
L 440.49018 86.709685 
L 440.985584 85.791703 
L 441.480988 86.053984 
L 441.976391 85.168787 
L 442.471795 85.562208 
L 442.967199 82.349272 
L 443.462602 87.693237 
L 443.958006 84.906507 
L 444.45341 85.267142 
L 444.948813 88.873499 
L 445.444217 88.906284 
L 446.435025 87.857162 
L 446.930428 88.381723 
L 447.425832 83.529534 
L 447.921236 87.889947 
L 448.416639 83.004974 
L 448.912043 86.578545 
L 449.407447 86.152339 
L 449.90285 86.152339 
L 450.398254 87.332601 
L 450.893658 85.529423 
L 451.389061 89.496415 
L 451.884465 89.627555 
L 452.379869 90.512752 
L 452.875272 90.512752 
L 454.361483 91.955294 
L 454.856887 91.955294 
L 455.352291 87.988302 
L 455.847694 92.348715 
L 456.343098 88.119442 
L 456.838502 88.250583 
L 457.333905 92.217575 
L 457.829309 91.955294 
L 458.324713 91.037313 
L 458.820117 91.529088 
L 459.31552 89.496415 
L 459.810924 86.93918 
L 460.306328 85.398283 
L 460.801731 85.234357 
L 461.792539 83.791815 
L 462.287942 82.873833 
L 462.783346 82.611553 
L 463.27875 83.75903 
L 463.774153 84.283591 
L 464.269557 85.299928 
L 464.764961 85.562208 
L 465.260364 85.562208 
L 465.755768 81.10344 
L 466.251172 86.349049 
L 466.746575 85.726133 
L 467.241979 88.283368 
L 467.737383 87.889947 
L 468.232786 85.070432 
L 468.72819 89.79148 
L 469.223594 85.332713 
L 469.718998 89.496415 
L 470.214401 89.234134 
L 471.205209 88.217798 
L 471.700612 88.217798 
L 472.196016 84.119665 
L 472.69142 88.086657 
L 473.186823 88.348938 
L 473.682227 84.119665 
L 474.177631 84.644226 
L 474.673034 88.086657 
L 475.168438 88.873499 
L 475.663842 89.004639 
L 476.159245 91.299593 
L 476.654649 90.906172 
L 477.150053 90.152116 
L 477.645456 90.643892 
L 478.14086 81.267365 
L 478.636264 89.85705 
L 479.131667 90.873387 
L 479.627071 90.742247 
L 480.122475 90.906172 
L 480.617878 88.840714 
L 481.113282 88.447293 
L 481.608686 84.742582 
L 482.10409 89.758695 
L 482.599493 91.070098 
L 483.094897 90.938957 
L 483.590301 86.840825 
L 484.085704 91.070098 
L 484.581108 91.070098 
L 485.076512 86.578545 
L 485.571915 90.184901 
L 486.067319 90.578322 
L 486.562723 90.447181 
L 487.058126 90.184901 
L 487.55353 88.873499 
L 488.048934 88.873499 
L 488.544337 88.742359 
L 489.039741 87.693237 
L 489.535145 88.512863 
L 490.030548 89.037424 
L 490.525952 84.283591 
L 491.021356 88.512863 
L 491.516759 88.119442 
L 492.012163 88.086657 
L 492.507567 88.217798 
L 493.00297 88.840714 
L 493.498374 88.971854 
L 493.993778 88.742359 
L 494.489182 88.250583 
L 494.984585 88.480078 
L 495.479989 87.201461 
L 496.470796 86.283479 
L 497.461604 87.070321 
L 497.957007 86.6769 
L 498.947815 86.414619 
L 499.443218 86.414619 
L 499.938622 83.857385 
L 500.434026 87.168676 
L 500.929429 87.201461 
L 501.424833 86.93918 
L 501.920237 86.80804 
L 502.41564 87.201461 
L 502.911044 87.332601 
L 503.406448 83.75903 
L 503.901851 87.594882 
L 504.892659 86.80804 
L 505.883466 89.266919 
L 506.37887 89.135779 
L 506.874274 85.136002 
L 507.369677 84.775367 
L 507.865081 88.480078 
L 508.360485 88.348938 
L 508.855888 87.955517 
L 509.351292 84.775367 
L 509.846696 88.611218 
L 510.342099 88.611218 
L 510.837503 87.857162 
L 511.332907 89.037424 
L 511.82831 85.955629 
L 512.323714 85.332713 
L 512.819118 89.5292 
L 513.314521 84.677011 
L 513.809925 89.168564 
L 514.305329 89.430845 
L 514.800732 89.824265 
L 515.296136 89.66034 
L 515.79154 90.053761 
L 516.286943 89.693125 
L 516.782347 86.217909 
L 517.277751 89.922621 
L 517.773155 89.955406 
L 518.268558 90.217686 
L 518.763962 90.611107 
L 519.259366 90.217686 
L 519.754769 90.316041 
L 520.250173 89.66034 
L 520.745577 89.889836 
L 521.24098 89.889836 
L 521.736384 89.004639 
L 522.231788 89.627555 
L 522.727191 89.266919 
L 523.222595 89.135779 
L 523.717999 88.873499 
L 524.213402 88.742359 
L 524.708806 88.742359 
L 525.20421 88.611218 
L 525.699613 89.266919 
L 526.195017 89.39806 
L 526.690421 85.594993 
L 527.185824 89.66034 
L 527.681228 85.398283 
L 528.176632 84.283591 
L 528.672036 88.021087 
L 529.167439 88.021087 
L 529.662843 89.66034 
L 530.158247 89.627555 
L 530.65365 89.266919 
L 531.149054 88.742359 
L 531.644458 89.299704 
L 532.139861 84.414731 
L 532.635265 88.840714 
L 533.130669 84.873722 
L 533.626072 88.611218 
L 534.121476 85.004862 
L 534.61688 85.463853 
L 535.112283 89.39806 
L 536.103091 88.971854 
L 536.598494 88.611218 
L 537.093898 89.102994 
L 537.589302 89.234134 
L 538.084705 88.873499 
L 538.580109 89.234134 
L 539.075513 88.480078 
L 539.570916 88.775144 
L 540.06632 89.201349 
L 540.561724 89.070209 
L 541.057128 84.808152 
L 541.552531 89.201349 
L 542.047935 90.348826 
L 542.543339 90.348826 
L 543.038742 90.709462 
L 543.534146 90.447181 
L 544.02955 88.906284 
L 544.524953 88.545648 
L 545.020357 89.299704 
L 545.515761 88.906284 
L 546.011164 89.79148 
L 546.506568 89.561985 
L 547.001972 88.775144 
L 547.992779 89.299704 
L 548.488183 84.677011 
L 548.983586 85.693348 
L 549.47899 90.414396 
L 549.974394 90.283256 
L 550.469797 90.020976 
L 550.965201 90.020976 
L 551.956009 88.906284 
L 552.451412 89.037424 
L 552.946816 85.299928 
L 553.44222 85.267142 
L 553.937623 88.742359 
L 554.433027 88.381723 
L 554.928431 87.758807 
L 555.423834 88.119442 
L 555.919238 89.135779 
L 556.910045 80.90673 
L 557.405449 88.971854 
L 557.900853 88.971854 
L 558.396256 84.611441 
L 558.89166 88.742359 
L 559.387064 88.217798 
L 559.882467 88.086657 
L 560.377871 88.611218 
L 560.873275 88.611218 
L 561.368678 89.266919 
L 561.864082 89.004639 
L 562.359486 84.677011 
L 562.854889 87.103106 
L 563.350293 87.365386 
L 563.845697 87.201461 
L 564.341101 79.267477 
L 564.836504 87.463741 
L 565.331908 87.463741 
L 565.827312 87.857162 
L 567.313523 86.93918 
L 567.808926 87.496526 
L 568.30433 87.496526 
L 569.295137 89.299704 
L 569.790541 88.939069 
L 570.285945 84.185236 
L 570.781348 87.988302 
L 571.276752 87.726022 
L 571.772156 88.250583 
L 572.267559 84.185236 
L 572.762963 88.775144 
L 573.258367 88.775144 
L 573.75377 88.644003 
L 574.249174 88.906284 
L 574.744578 88.775144 
L 575.239982 88.512863 
L 575.735385 86.840825 
L 576.230789 82.611553 
L 576.726193 86.971965 
L 577.221596 85.201572 
L 577.717 89.135779 
L 578.212404 87.234246 
L 578.707807 86.086769 
L 579.203211 85.955629 
L 580.194018 86.74247 
L 580.689422 86.74247 
L 581.184826 86.349049 
L 581.680229 86.48019 
L 582.175633 87.135891 
L 582.671037 87.529311 
L 583.16644 88.676788 
L 583.661844 85.496638 
L 584.157248 87.103106 
L 584.652651 86.217909 
L 585.148055 81.726356 
L 585.643459 85.693348 
L 586.138862 85.562208 
L 586.634266 85.168787 
L 587.12967 85.299928 
L 587.625074 85.267142 
L 588.120477 84.480301 
L 589.111285 83.726245 
L 590.597496 84.349161 
L 591.092899 87.594882 
L 591.588303 82.972188 
L 592.083707 86.021199 
L 592.57911 86.283479 
L 593.074514 85.136002 
L 593.569918 85.791703 
L 594.065321 78.12 
L 595.056129 86.316264 
L 595.551532 86.185124 
L 596.046936 81.824711 
L 596.54234 85.660563 
L 597.037743 85.922844 
L 597.533147 87.627667 
L 598.028551 88.873499 
L 598.523954 89.004639 
L 599.019358 88.873499 
L 599.514762 83.988525 
L 600.010166 87.758807 
L 600.505569 87.496526 
L 601.000973 87.365386 
L 601.496377 86.709685 
L 601.99178 85.791703 
L 602.487184 86.447405 
L 602.982588 85.791703 
L 603.477991 79.267477 
L 603.973395 83.75903 
L 604.468799 83.004974 
L 605.459606 82.742693 
L 605.95501 84.152451 
L 606.450413 81.332936 
L 606.945817 85.037647 
L 607.441221 80.939515 
L 607.936624 84.775367 
L 608.432028 84.250806 
L 608.927432 81.693571 
L 609.422835 85.660563 
L 609.918239 85.791703 
L 610.413643 86.283479 
L 610.909047 86.414619 
L 611.40445 82.447628 
L 611.899854 88.611218 
L 612.395258 88.873499 
L 612.890661 84.906507 
L 613.386065 89.135779 
L 613.881469 85.562208 
L 614.376872 89.79148 
L 614.872276 89.79148 
L 615.36768 89.66034 
L 615.863083 89.79148 
L 616.358487 85.693348 
L 616.853891 89.79148 
L 617.349294 89.79148 
L 617.844698 89.66034 
L 618.340102 89.66034 
L 618.835505 89.79148 
L 619.330909 89.79148 
L 619.330909 89.79148 
" style="fill:none;stroke:#1f77b4;stroke-linecap:square;stroke-width:1.5;"/>
   </g>
   <g id="patch_3">
    <path d="M 108 448.56 
L 108 60.48 
" style="fill:none;stroke:#000000;stroke-linecap:square;stroke-linejoin:miter;stroke-width:0.8;"/>
   </g>
   <g id="patch_4">
    <path d="M 643.68 448.56 
L 643.68 60.48 
" style="fill:none;stroke:#000000;stroke-linecap:square;stroke-linejoin:miter;stroke-width:0.8;"/>
   </g>
   <g id="patch_5">
    <path d="M 108 448.56 
L 643.68 448.56 
" style="fill:none;stroke:#000000;stroke-linecap:square;stroke-linejoin:miter;stroke-width:0.8;"/>
   </g>
   <g id="patch_6">
    <path d="M 108 60.48 
L 643.68 60.48 
" style="fill:none;stroke:#000000;stroke-linecap:square;stroke-linejoin:miter;stroke-width:0.8;"/>
   </g>
   <g id="text_15">
    <!-- docker - stats -->
    <g transform="translate(324.832969 54.48)scale(0.15 -0.15)">
     <defs>
      <path d="M 45.40625 46.390625 
L 45.40625 75.984375 
L 54.390625 75.984375 
L 54.390625 0 
L 45.40625 0 
L 45.40625 8.203125 
Q 42.578125 3.328125 38.25 0.953125 
Q 33.9375 -1.421875 27.875 -1.421875 
Q 17.96875 -1.421875 11.734375 6.484375 
Q 5.515625 14.40625 5.515625 27.296875 
Q 5.515625 40.1875 11.734375 48.09375 
Q 17.96875 56 27.875 56 
Q 33.9375 56 38.25 53.625 
Q 42.578125 51.265625 45.40625 46.390625 
z
M 14.796875 27.296875 
Q 14.796875 17.390625 18.875 11.75 
Q 22.953125 6.109375 30.078125 6.109375 
Q 37.203125 6.109375 41.296875 11.75 
Q 45.40625 17.390625 45.40625 27.296875 
Q 45.40625 37.203125 41.296875 42.84375 
Q 37.203125 48.484375 30.078125 48.484375 
Q 22.953125 48.484375 18.875 42.84375 
Q 14.796875 37.203125 14.796875 27.296875 
z
" id="DejaVuSans-100"/>
      <path d="M 30.609375 48.390625 
Q 23.390625 48.390625 19.1875 42.75 
Q 14.984375 37.109375 14.984375 27.296875 
Q 14.984375 17.484375 19.15625 11.84375 
Q 23.34375 6.203125 30.609375 6.203125 
Q 37.796875 6.203125 41.984375 11.859375 
Q 46.1875 17.53125 46.1875 27.296875 
Q 46.1875 37.015625 41.984375 42.703125 
Q 37.796875 48.390625 30.609375 48.390625 
z
M 30.609375 56 
Q 42.328125 56 49.015625 48.375 
Q 55.71875 40.765625 55.71875 27.296875 
Q 55.71875 13.875 49.015625 6.21875 
Q 42.328125 -1.421875 30.609375 -1.421875 
Q 18.84375 -1.421875 12.171875 6.21875 
Q 5.515625 13.875 5.515625 27.296875 
Q 5.515625 40.765625 12.171875 48.375 
Q 18.84375 56 30.609375 56 
z
" id="DejaVuSans-111"/>
      <path d="M 48.78125 52.59375 
L 48.78125 44.1875 
Q 44.96875 46.296875 41.140625 47.34375 
Q 37.3125 48.390625 33.40625 48.390625 
Q 24.65625 48.390625 19.8125 42.84375 
Q 14.984375 37.3125 14.984375 27.296875 
Q 14.984375 17.28125 19.8125 11.734375 
Q 24.65625 6.203125 33.40625 6.203125 
Q 37.3125 6.203125 41.140625 7.25 
Q 44.96875 8.296875 48.78125 10.40625 
L 48.78125 2.09375 
Q 45.015625 0.34375 40.984375 -0.53125 
Q 36.96875 -1.421875 32.421875 -1.421875 
Q 20.0625 -1.421875 12.78125 6.34375 
Q 5.515625 14.109375 5.515625 27.296875 
Q 5.515625 40.671875 12.859375 48.328125 
Q 20.21875 56 33.015625 56 
Q 37.15625 56 41.109375 55.140625 
Q 45.0625 54.296875 48.78125 52.59375 
z
" id="DejaVuSans-99"/>
      <path d="M 9.078125 75.984375 
L 18.109375 75.984375 
L 18.109375 31.109375 
L 44.921875 54.6875 
L 56.390625 54.6875 
L 27.390625 29.109375 
L 57.625 0 
L 45.90625 0 
L 18.109375 26.703125 
L 18.109375 0 
L 9.078125 0 
z
" id="DejaVuSans-107"/>
      <path d="M 41.109375 46.296875 
Q 39.59375 47.171875 37.8125 47.578125 
Q 36.03125 48 33.890625 48 
Q 26.265625 48 22.1875 43.046875 
Q 18.109375 38.09375 18.109375 28.8125 
L 18.109375 0 
L 9.078125 0 
L 9.078125 54.6875 
L 18.109375 54.6875 
L 18.109375 46.1875 
Q 20.953125 51.171875 25.484375 53.578125 
Q 30.03125 56 36.53125 56 
Q 37.453125 56 38.578125 55.875 
Q 39.703125 55.765625 41.0625 55.515625 
z
" id="DejaVuSans-114"/>
      <path id="DejaVuSans-32"/>
      <path d="M 4.890625 31.390625 
L 31.203125 31.390625 
L 31.203125 23.390625 
L 4.890625 23.390625 
z
" id="DejaVuSans-45"/>
     </defs>
     <use xlink:href="#DejaVuSans-100"/>
     <use x="63.476562" xlink:href="#DejaVuSans-111"/>
     <use x="124.658203" xlink:href="#DejaVuSans-99"/>
     <use x="179.638672" xlink:href="#DejaVuSans-107"/>
     <use x="233.923828" xlink:href="#DejaVuSans-101"/>
     <use x="295.447266" xlink:href="#DejaVuSans-114"/>
     <use x="336.560547" xlink:href="#DejaVuSans-32"/>
     <use x="368.347656" xlink:href="#DejaVuSans-45"/>
     <use x="404.431641" xlink:href="#DejaVuSans-32"/>
     <use x="436.21875" xlink:href="#DejaVuSans-115"/>
     <use x="488.318359" xlink:href="#DejaVuSans-116"/>
     <use x="527.527344" xlink:href="#DejaVuSans-97"/>
     <use x="588.806641" xlink:href="#DejaVuSans-116"/>
     <use x="628.015625" xlink:href="#DejaVuSans-115"/>
    </g>
   </g>
   <g id="legend_1">
    <g id="patch_7">
     <path d="M 650.68 258.52 
L 654.68 258.52 
Q 656.68 258.52 656.68 256.52 
L 656.68 252.52 
Q 656.68 250.52 654.68 250.52 
L 650.68 250.52 
Q 648.68 250.52 648.68 252.52 
L 648.68 256.52 
Q 648.68 258.52 650.68 258.52 
z
" style="fill:#ffffff;opacity:0.8;stroke:#cccccc;stroke-linejoin:miter;"/>
    </g>
   </g>
  </g>
 </g>
 <defs>
  <clipPath id="pf89e09abae">
   <rect height="388.08" width="535.68" x="108" y="60.48"/>
  </clipPath>
 </defs>
</svg>
