<?xml version="1.0" encoding="utf-8" standalone="no"?>
<!DOCTYPE svg PUBLIC "-//W3C//DTD SVG 1.1//EN"
  "http://www.w3.org/Graphics/SVG/1.1/DTD/svg11.dtd">
<!-- Created with matplotlib (https://matplotlib.org/) -->
<svg height="504pt" version="1.1" viewBox="0 0 864 504" width="864pt" xmlns="http://www.w3.org/2000/svg" xmlns:xlink="http://www.w3.org/1999/xlink">
 <metadata>
  <rdf:RDF xmlns:cc="http://creativecommons.org/ns#" xmlns:dc="http://purl.org/dc/elements/1.1/" xmlns:rdf="http://www.w3.org/1999/02/22-rdf-syntax-ns#">
   <cc:Work>
    <dc:type rdf:resource="http://purl.org/dc/dcmitype/StillImage"/>
    <dc:date>2022-05-29T17:26:18.046249</dc:date>
    <dc:format>image/svg+xml</dc:format>
    <dc:creator>
     <cc:Agent>
      <dc:title>Matplotlib v3.3.4, https://matplotlib.org/</dc:title>
     </cc:Agent>
    </dc:creator>
   </cc:Work>
  </rdf:RDF>
 </metadata>
 <defs>
  <style type="text/css">*{stroke-linecap:butt;stroke-linejoin:round;}</style>
 </defs>
 <g id="figure_1">
  <g id="patch_1">
   <path d="M 0 504 
L 864 504 
L 864 0 
L 0 0 
z
" style="fill:#ffffff;"/>
  </g>
  <g id="axes_1">
   <g id="patch_2">
    <path d="M 108 448.56 
L 643.68 448.56 
L 643.68 60.48 
L 108 60.48 
z
" style="fill:#ffffff;"/>
   </g>
   <g id="matplotlib.axis_1">
    <g id="xtick_1">
     <g id="line2d_1">
      <defs>
       <path d="M 0 0 
L 0 3.5 
" id="mac81ef00d5" style="stroke:#000000;stroke-width:0.8;"/>
      </defs>
      <g>
       <use style="stroke:#000000;stroke-width:0.8;" x="132.349091" xlink:href="#mac81ef00d5" y="448.56"/>
      </g>
     </g>
     <g id="text_1">
      <!-- 12:46:33 -->
      <g transform="translate(135.108466 500.4725)rotate(-90)scale(0.1 -0.1)">
       <defs>
        <path d="M 12.40625 8.296875 
L 28.515625 8.296875 
L 28.515625 63.921875 
L 10.984375 60.40625 
L 10.984375 69.390625 
L 28.421875 72.90625 
L 38.28125 72.90625 
L 38.28125 8.296875 
L 54.390625 8.296875 
L 54.390625 0 
L 12.40625 0 
z
" id="DejaVuSans-49"/>
        <path d="M 19.1875 8.296875 
L 53.609375 8.296875 
L 53.609375 0 
L 7.328125 0 
L 7.328125 8.296875 
Q 12.9375 14.109375 22.625 23.890625 
Q 32.328125 33.6875 34.8125 36.53125 
Q 39.546875 41.84375 41.421875 45.53125 
Q 43.3125 49.21875 43.3125 52.78125 
Q 43.3125 58.59375 39.234375 62.25 
Q 35.15625 65.921875 28.609375 65.921875 
Q 23.96875 65.921875 18.8125 64.3125 
Q 13.671875 62.703125 7.8125 59.421875 
L 7.8125 69.390625 
Q 13.765625 71.78125 18.9375 73 
Q 24.125 74.21875 28.421875 74.21875 
Q 39.75 74.21875 46.484375 68.546875 
Q 53.21875 62.890625 53.21875 53.421875 
Q 53.21875 48.921875 51.53125 44.890625 
Q 49.859375 40.875 45.40625 35.40625 
Q 44.1875 33.984375 37.640625 27.21875 
Q 31.109375 20.453125 19.1875 8.296875 
z
" id="DejaVuSans-50"/>
        <path d="M 11.71875 12.40625 
L 22.015625 12.40625 
L 22.015625 0 
L 11.71875 0 
z
M 11.71875 51.703125 
L 22.015625 51.703125 
L 22.015625 39.3125 
L 11.71875 39.3125 
z
" id="DejaVuSans-58"/>
        <path d="M 37.796875 64.3125 
L 12.890625 25.390625 
L 37.796875 25.390625 
z
M 35.203125 72.90625 
L 47.609375 72.90625 
L 47.609375 25.390625 
L 58.015625 25.390625 
L 58.015625 17.1875 
L 47.609375 17.1875 
L 47.609375 0 
L 37.796875 0 
L 37.796875 17.1875 
L 4.890625 17.1875 
L 4.890625 26.703125 
z
" id="DejaVuSans-52"/>
        <path d="M 33.015625 40.375 
Q 26.375 40.375 22.484375 35.828125 
Q 18.609375 31.296875 18.609375 23.390625 
Q 18.609375 15.53125 22.484375 10.953125 
Q 26.375 6.390625 33.015625 6.390625 
Q 39.65625 6.390625 43.53125 10.953125 
Q 47.40625 15.53125 47.40625 23.390625 
Q 47.40625 31.296875 43.53125 35.828125 
Q 39.65625 40.375 33.015625 40.375 
z
M 52.59375 71.296875 
L 52.59375 62.3125 
Q 48.875 64.0625 45.09375 64.984375 
Q 41.3125 65.921875 37.59375 65.921875 
Q 27.828125 65.921875 22.671875 59.328125 
Q 17.53125 52.734375 16.796875 39.40625 
Q 19.671875 43.65625 24.015625 45.921875 
Q 28.375 48.1875 33.59375 48.1875 
Q 44.578125 48.1875 50.953125 41.515625 
Q 57.328125 34.859375 57.328125 23.390625 
Q 57.328125 12.15625 50.6875 5.359375 
Q 44.046875 -1.421875 33.015625 -1.421875 
Q 20.359375 -1.421875 13.671875 8.265625 
Q 6.984375 17.96875 6.984375 36.375 
Q 6.984375 53.65625 15.1875 63.9375 
Q 23.390625 74.21875 37.203125 74.21875 
Q 40.921875 74.21875 44.703125 73.484375 
Q 48.484375 72.75 52.59375 71.296875 
z
" id="DejaVuSans-54"/>
        <path d="M 40.578125 39.3125 
Q 47.65625 37.796875 51.625 33 
Q 55.609375 28.21875 55.609375 21.1875 
Q 55.609375 10.40625 48.1875 4.484375 
Q 40.765625 -1.421875 27.09375 -1.421875 
Q 22.515625 -1.421875 17.65625 -0.515625 
Q 12.796875 0.390625 7.625 2.203125 
L 7.625 11.71875 
Q 11.71875 9.328125 16.59375 8.109375 
Q 21.484375 6.890625 26.8125 6.890625 
Q 36.078125 6.890625 40.9375 10.546875 
Q 45.796875 14.203125 45.796875 21.1875 
Q 45.796875 27.640625 41.28125 31.265625 
Q 36.765625 34.90625 28.71875 34.90625 
L 20.21875 34.90625 
L 20.21875 43.015625 
L 29.109375 43.015625 
Q 36.375 43.015625 40.234375 45.921875 
Q 44.09375 48.828125 44.09375 54.296875 
Q 44.09375 59.90625 40.109375 62.90625 
Q 36.140625 65.921875 28.71875 65.921875 
Q 24.65625 65.921875 20.015625 65.03125 
Q 15.375 64.15625 9.8125 62.3125 
L 9.8125 71.09375 
Q 15.4375 72.65625 20.34375 73.4375 
Q 25.25 74.21875 29.59375 74.21875 
Q 40.828125 74.21875 47.359375 69.109375 
Q 53.90625 64.015625 53.90625 55.328125 
Q 53.90625 49.265625 50.4375 45.09375 
Q 46.96875 40.921875 40.578125 39.3125 
z
" id="DejaVuSans-51"/>
       </defs>
       <use xlink:href="#DejaVuSans-49"/>
       <use x="63.623047" xlink:href="#DejaVuSans-50"/>
       <use x="127.246094" xlink:href="#DejaVuSans-58"/>
       <use x="160.9375" xlink:href="#DejaVuSans-52"/>
       <use x="224.560547" xlink:href="#DejaVuSans-54"/>
       <use x="288.183594" xlink:href="#DejaVuSans-58"/>
       <use x="321.875" xlink:href="#DejaVuSans-51"/>
       <use x="385.498047" xlink:href="#DejaVuSans-51"/>
      </g>
     </g>
    </g>
    <g id="xtick_2">
     <g id="line2d_2">
      <g>
       <use style="stroke:#000000;stroke-width:0.8;" x="156.724113" xlink:href="#mac81ef00d5" y="448.56"/>
      </g>
     </g>
     <g id="text_2">
      <!-- 12:47:26 -->
      <g transform="translate(159.483488 500.4725)rotate(-90)scale(0.1 -0.1)">
       <defs>
        <path d="M 8.203125 72.90625 
L 55.078125 72.90625 
L 55.078125 68.703125 
L 28.609375 0 
L 18.3125 0 
L 43.21875 64.59375 
L 8.203125 64.59375 
z
" id="DejaVuSans-55"/>
       </defs>
       <use xlink:href="#DejaVuSans-49"/>
       <use x="63.623047" xlink:href="#DejaVuSans-50"/>
       <use x="127.246094" xlink:href="#DejaVuSans-58"/>
       <use x="160.9375" xlink:href="#DejaVuSans-52"/>
       <use x="224.560547" xlink:href="#DejaVuSans-55"/>
       <use x="288.183594" xlink:href="#DejaVuSans-58"/>
       <use x="321.875" xlink:href="#DejaVuSans-50"/>
       <use x="385.498047" xlink:href="#DejaVuSans-54"/>
      </g>
     </g>
    </g>
    <g id="xtick_3">
     <g id="line2d_3">
      <g>
       <use style="stroke:#000000;stroke-width:0.8;" x="181.099134" xlink:href="#mac81ef00d5" y="448.56"/>
      </g>
     </g>
     <g id="text_3">
      <!-- 12:48:19 -->
      <g transform="translate(183.858509 500.4725)rotate(-90)scale(0.1 -0.1)">
       <defs>
        <path d="M 31.78125 34.625 
Q 24.75 34.625 20.71875 30.859375 
Q 16.703125 27.09375 16.703125 20.515625 
Q 16.703125 13.921875 20.71875 10.15625 
Q 24.75 6.390625 31.78125 6.390625 
Q 38.8125 6.390625 42.859375 10.171875 
Q 46.921875 13.96875 46.921875 20.515625 
Q 46.921875 27.09375 42.890625 30.859375 
Q 38.875 34.625 31.78125 34.625 
z
M 21.921875 38.8125 
Q 15.578125 40.375 12.03125 44.71875 
Q 8.5 49.078125 8.5 55.328125 
Q 8.5 64.0625 14.71875 69.140625 
Q 20.953125 74.21875 31.78125 74.21875 
Q 42.671875 74.21875 48.875 69.140625 
Q 55.078125 64.0625 55.078125 55.328125 
Q 55.078125 49.078125 51.53125 44.71875 
Q 48 40.375 41.703125 38.8125 
Q 48.828125 37.15625 52.796875 32.3125 
Q 56.78125 27.484375 56.78125 20.515625 
Q 56.78125 9.90625 50.3125 4.234375 
Q 43.84375 -1.421875 31.78125 -1.421875 
Q 19.734375 -1.421875 13.25 4.234375 
Q 6.78125 9.90625 6.78125 20.515625 
Q 6.78125 27.484375 10.78125 32.3125 
Q 14.796875 37.15625 21.921875 38.8125 
z
M 18.3125 54.390625 
Q 18.3125 48.734375 21.84375 45.5625 
Q 25.390625 42.390625 31.78125 42.390625 
Q 38.140625 42.390625 41.71875 45.5625 
Q 45.3125 48.734375 45.3125 54.390625 
Q 45.3125 60.0625 41.71875 63.234375 
Q 38.140625 66.40625 31.78125 66.40625 
Q 25.390625 66.40625 21.84375 63.234375 
Q 18.3125 60.0625 18.3125 54.390625 
z
" id="DejaVuSans-56"/>
        <path d="M 10.984375 1.515625 
L 10.984375 10.5 
Q 14.703125 8.734375 18.5 7.8125 
Q 22.3125 6.890625 25.984375 6.890625 
Q 35.75 6.890625 40.890625 13.453125 
Q 46.046875 20.015625 46.78125 33.40625 
Q 43.953125 29.203125 39.59375 26.953125 
Q 35.25 24.703125 29.984375 24.703125 
Q 19.046875 24.703125 12.671875 31.3125 
Q 6.296875 37.9375 6.296875 49.421875 
Q 6.296875 60.640625 12.9375 67.421875 
Q 19.578125 74.21875 30.609375 74.21875 
Q 43.265625 74.21875 49.921875 64.515625 
Q 56.59375 54.828125 56.59375 36.375 
Q 56.59375 19.140625 48.40625 8.859375 
Q 40.234375 -1.421875 26.421875 -1.421875 
Q 22.703125 -1.421875 18.890625 -0.6875 
Q 15.09375 0.046875 10.984375 1.515625 
z
M 30.609375 32.421875 
Q 37.25 32.421875 41.125 36.953125 
Q 45.015625 41.5 45.015625 49.421875 
Q 45.015625 57.28125 41.125 61.84375 
Q 37.25 66.40625 30.609375 66.40625 
Q 23.96875 66.40625 20.09375 61.84375 
Q 16.21875 57.28125 16.21875 49.421875 
Q 16.21875 41.5 20.09375 36.953125 
Q 23.96875 32.421875 30.609375 32.421875 
z
" id="DejaVuSans-57"/>
       </defs>
       <use xlink:href="#DejaVuSans-49"/>
       <use x="63.623047" xlink:href="#DejaVuSans-50"/>
       <use x="127.246094" xlink:href="#DejaVuSans-58"/>
       <use x="160.9375" xlink:href="#DejaVuSans-52"/>
       <use x="224.560547" xlink:href="#DejaVuSans-56"/>
       <use x="288.183594" xlink:href="#DejaVuSans-58"/>
       <use x="321.875" xlink:href="#DejaVuSans-49"/>
       <use x="385.498047" xlink:href="#DejaVuSans-57"/>
      </g>
     </g>
    </g>
    <g id="xtick_4">
     <g id="line2d_4">
      <g>
       <use style="stroke:#000000;stroke-width:0.8;" x="205.474156" xlink:href="#mac81ef00d5" y="448.56"/>
      </g>
     </g>
     <g id="text_4">
      <!-- 12:49:12 -->
      <g transform="translate(208.233531 500.4725)rotate(-90)scale(0.1 -0.1)">
       <use xlink:href="#DejaVuSans-49"/>
       <use x="63.623047" xlink:href="#DejaVuSans-50"/>
       <use x="127.246094" xlink:href="#DejaVuSans-58"/>
       <use x="160.9375" xlink:href="#DejaVuSans-52"/>
       <use x="224.560547" xlink:href="#DejaVuSans-57"/>
       <use x="288.183594" xlink:href="#DejaVuSans-58"/>
       <use x="321.875" xlink:href="#DejaVuSans-49"/>
       <use x="385.498047" xlink:href="#DejaVuSans-50"/>
      </g>
     </g>
    </g>
    <g id="xtick_5">
     <g id="line2d_5">
      <g>
       <use style="stroke:#000000;stroke-width:0.8;" x="229.849178" xlink:href="#mac81ef00d5" y="448.56"/>
      </g>
     </g>
     <g id="text_5">
      <!-- 12:50:05 -->
      <g transform="translate(232.608553 500.4725)rotate(-90)scale(0.1 -0.1)">
       <defs>
        <path d="M 10.796875 72.90625 
L 49.515625 72.90625 
L 49.515625 64.59375 
L 19.828125 64.59375 
L 19.828125 46.734375 
Q 21.96875 47.46875 24.109375 47.828125 
Q 26.265625 48.1875 28.421875 48.1875 
Q 40.625 48.1875 47.75 41.5 
Q 54.890625 34.8125 54.890625 23.390625 
Q 54.890625 11.625 47.5625 5.09375 
Q 40.234375 -1.421875 26.90625 -1.421875 
Q 22.3125 -1.421875 17.546875 -0.640625 
Q 12.796875 0.140625 7.71875 1.703125 
L 7.71875 11.625 
Q 12.109375 9.234375 16.796875 8.0625 
Q 21.484375 6.890625 26.703125 6.890625 
Q 35.15625 6.890625 40.078125 11.328125 
Q 45.015625 15.765625 45.015625 23.390625 
Q 45.015625 31 40.078125 35.4375 
Q 35.15625 39.890625 26.703125 39.890625 
Q 22.75 39.890625 18.8125 39.015625 
Q 14.890625 38.140625 10.796875 36.28125 
z
" id="DejaVuSans-53"/>
        <path d="M 31.78125 66.40625 
Q 24.171875 66.40625 20.328125 58.90625 
Q 16.5 51.421875 16.5 36.375 
Q 16.5 21.390625 20.328125 13.890625 
Q 24.171875 6.390625 31.78125 6.390625 
Q 39.453125 6.390625 43.28125 13.890625 
Q 47.125 21.390625 47.125 36.375 
Q 47.125 51.421875 43.28125 58.90625 
Q 39.453125 66.40625 31.78125 66.40625 
z
M 31.78125 74.21875 
Q 44.046875 74.21875 50.515625 64.515625 
Q 56.984375 54.828125 56.984375 36.375 
Q 56.984375 17.96875 50.515625 8.265625 
Q 44.046875 -1.421875 31.78125 -1.421875 
Q 19.53125 -1.421875 13.0625 8.265625 
Q 6.59375 17.96875 6.59375 36.375 
Q 6.59375 54.828125 13.0625 64.515625 
Q 19.53125 74.21875 31.78125 74.21875 
z
" id="DejaVuSans-48"/>
       </defs>
       <use xlink:href="#DejaVuSans-49"/>
       <use x="63.623047" xlink:href="#DejaVuSans-50"/>
       <use x="127.246094" xlink:href="#DejaVuSans-58"/>
       <use x="160.9375" xlink:href="#DejaVuSans-53"/>
       <use x="224.560547" xlink:href="#DejaVuSans-48"/>
       <use x="288.183594" xlink:href="#DejaVuSans-58"/>
       <use x="321.875" xlink:href="#DejaVuSans-48"/>
       <use x="385.498047" xlink:href="#DejaVuSans-53"/>
      </g>
     </g>
    </g>
    <g id="xtick_6">
     <g id="line2d_6">
      <g>
       <use style="stroke:#000000;stroke-width:0.8;" x="254.2242" xlink:href="#mac81ef00d5" y="448.56"/>
      </g>
     </g>
     <g id="text_6">
      <!-- 12:50:58 -->
      <g transform="translate(256.983575 500.4725)rotate(-90)scale(0.1 -0.1)">
       <use xlink:href="#DejaVuSans-49"/>
       <use x="63.623047" xlink:href="#DejaVuSans-50"/>
       <use x="127.246094" xlink:href="#DejaVuSans-58"/>
       <use x="160.9375" xlink:href="#DejaVuSans-53"/>
       <use x="224.560547" xlink:href="#DejaVuSans-48"/>
       <use x="288.183594" xlink:href="#DejaVuSans-58"/>
       <use x="321.875" xlink:href="#DejaVuSans-53"/>
       <use x="385.498047" xlink:href="#DejaVuSans-56"/>
      </g>
     </g>
    </g>
    <g id="xtick_7">
     <g id="line2d_7">
      <g>
       <use style="stroke:#000000;stroke-width:0.8;" x="278.599222" xlink:href="#mac81ef00d5" y="448.56"/>
      </g>
     </g>
     <g id="text_7">
      <!-- 12:51:51 -->
      <g transform="translate(281.358597 500.4725)rotate(-90)scale(0.1 -0.1)">
       <use xlink:href="#DejaVuSans-49"/>
       <use x="63.623047" xlink:href="#DejaVuSans-50"/>
       <use x="127.246094" xlink:href="#DejaVuSans-58"/>
       <use x="160.9375" xlink:href="#DejaVuSans-53"/>
       <use x="224.560547" xlink:href="#DejaVuSans-49"/>
       <use x="288.183594" xlink:href="#DejaVuSans-58"/>
       <use x="321.875" xlink:href="#DejaVuSans-53"/>
       <use x="385.498047" xlink:href="#DejaVuSans-49"/>
      </g>
     </g>
    </g>
    <g id="xtick_8">
     <g id="line2d_8">
      <g>
       <use style="stroke:#000000;stroke-width:0.8;" x="302.974243" xlink:href="#mac81ef00d5" y="448.56"/>
      </g>
     </g>
     <g id="text_8">
      <!-- 12:52:45 -->
      <g transform="translate(305.733618 500.4725)rotate(-90)scale(0.1 -0.1)">
       <use xlink:href="#DejaVuSans-49"/>
       <use x="63.623047" xlink:href="#DejaVuSans-50"/>
       <use x="127.246094" xlink:href="#DejaVuSans-58"/>
       <use x="160.9375" xlink:href="#DejaVuSans-53"/>
       <use x="224.560547" xlink:href="#DejaVuSans-50"/>
       <use x="288.183594" xlink:href="#DejaVuSans-58"/>
       <use x="321.875" xlink:href="#DejaVuSans-52"/>
       <use x="385.498047" xlink:href="#DejaVuSans-53"/>
      </g>
     </g>
    </g>
    <g id="xtick_9">
     <g id="line2d_9">
      <g>
       <use style="stroke:#000000;stroke-width:0.8;" x="327.349265" xlink:href="#mac81ef00d5" y="448.56"/>
      </g>
     </g>
     <g id="text_9">
      <!-- 12:53:37 -->
      <g transform="translate(330.10864 500.4725)rotate(-90)scale(0.1 -0.1)">
       <use xlink:href="#DejaVuSans-49"/>
       <use x="63.623047" xlink:href="#DejaVuSans-50"/>
       <use x="127.246094" xlink:href="#DejaVuSans-58"/>
       <use x="160.9375" xlink:href="#DejaVuSans-53"/>
       <use x="224.560547" xlink:href="#DejaVuSans-51"/>
       <use x="288.183594" xlink:href="#DejaVuSans-58"/>
       <use x="321.875" xlink:href="#DejaVuSans-51"/>
       <use x="385.498047" xlink:href="#DejaVuSans-55"/>
      </g>
     </g>
    </g>
    <g id="xtick_10">
     <g id="line2d_10">
      <g>
       <use style="stroke:#000000;stroke-width:0.8;" x="351.724287" xlink:href="#mac81ef00d5" y="448.56"/>
      </g>
     </g>
     <g id="text_10">
      <!-- 12:54:30 -->
      <g transform="translate(354.483662 500.4725)rotate(-90)scale(0.1 -0.1)">
       <use xlink:href="#DejaVuSans-49"/>
       <use x="63.623047" xlink:href="#DejaVuSans-50"/>
       <use x="127.246094" xlink:href="#DejaVuSans-58"/>
       <use x="160.9375" xlink:href="#DejaVuSans-53"/>
       <use x="224.560547" xlink:href="#DejaVuSans-52"/>
       <use x="288.183594" xlink:href="#DejaVuSans-58"/>
       <use x="321.875" xlink:href="#DejaVuSans-51"/>
       <use x="385.498047" xlink:href="#DejaVuSans-48"/>
      </g>
     </g>
    </g>
    <g id="xtick_11">
     <g id="line2d_11">
      <g>
       <use style="stroke:#000000;stroke-width:0.8;" x="376.099309" xlink:href="#mac81ef00d5" y="448.56"/>
      </g>
     </g>
     <g id="text_11">
      <!-- 12:55:23 -->
      <g transform="translate(378.858684 500.4725)rotate(-90)scale(0.1 -0.1)">
       <use xlink:href="#DejaVuSans-49"/>
       <use x="63.623047" xlink:href="#DejaVuSans-50"/>
       <use x="127.246094" xlink:href="#DejaVuSans-58"/>
       <use x="160.9375" xlink:href="#DejaVuSans-53"/>
       <use x="224.560547" xlink:href="#DejaVuSans-53"/>
       <use x="288.183594" xlink:href="#DejaVuSans-58"/>
       <use x="321.875" xlink:href="#DejaVuSans-50"/>
       <use x="385.498047" xlink:href="#DejaVuSans-51"/>
      </g>
     </g>
    </g>
    <g id="xtick_12">
     <g id="line2d_12">
      <g>
       <use style="stroke:#000000;stroke-width:0.8;" x="400.474331" xlink:href="#mac81ef00d5" y="448.56"/>
      </g>
     </g>
     <g id="text_12">
      <!-- 12:56:16 -->
      <g transform="translate(403.233706 500.4725)rotate(-90)scale(0.1 -0.1)">
       <use xlink:href="#DejaVuSans-49"/>
       <use x="63.623047" xlink:href="#DejaVuSans-50"/>
       <use x="127.246094" xlink:href="#DejaVuSans-58"/>
       <use x="160.9375" xlink:href="#DejaVuSans-53"/>
       <use x="224.560547" xlink:href="#DejaVuSans-54"/>
       <use x="288.183594" xlink:href="#DejaVuSans-58"/>
       <use x="321.875" xlink:href="#DejaVuSans-49"/>
       <use x="385.498047" xlink:href="#DejaVuSans-54"/>
      </g>
     </g>
    </g>
    <g id="xtick_13">
     <g id="line2d_13">
      <g>
       <use style="stroke:#000000;stroke-width:0.8;" x="424.849352" xlink:href="#mac81ef00d5" y="448.56"/>
      </g>
     </g>
     <g id="text_13">
      <!-- 12:57:09 -->
      <g transform="translate(427.608727 500.4725)rotate(-90)scale(0.1 -0.1)">
       <use xlink:href="#DejaVuSans-49"/>
       <use x="63.623047" xlink:href="#DejaVuSans-50"/>
       <use x="127.246094" xlink:href="#DejaVuSans-58"/>
       <use x="160.9375" xlink:href="#DejaVuSans-53"/>
       <use x="224.560547" xlink:href="#DejaVuSans-55"/>
       <use x="288.183594" xlink:href="#DejaVuSans-58"/>
       <use x="321.875" xlink:href="#DejaVuSans-48"/>
       <use x="385.498047" xlink:href="#DejaVuSans-57"/>
      </g>
     </g>
    </g>
    <g id="xtick_14">
     <g id="line2d_14">
      <g>
       <use style="stroke:#000000;stroke-width:0.8;" x="449.224374" xlink:href="#mac81ef00d5" y="448.56"/>
      </g>
     </g>
     <g id="text_14">
      <!-- 12:58:02 -->
      <g transform="translate(451.983749 500.4725)rotate(-90)scale(0.1 -0.1)">
       <use xlink:href="#DejaVuSans-49"/>
       <use x="63.623047" xlink:href="#DejaVuSans-50"/>
       <use x="127.246094" xlink:href="#DejaVuSans-58"/>
       <use x="160.9375" xlink:href="#DejaVuSans-53"/>
       <use x="224.560547" xlink:href="#DejaVuSans-56"/>
       <use x="288.183594" xlink:href="#DejaVuSans-58"/>
       <use x="321.875" xlink:href="#DejaVuSans-48"/>
       <use x="385.498047" xlink:href="#DejaVuSans-50"/>
      </g>
     </g>
    </g>
    <g id="xtick_15">
     <g id="line2d_15">
      <g>
       <use style="stroke:#000000;stroke-width:0.8;" x="473.599396" xlink:href="#mac81ef00d5" y="448.56"/>
      </g>
     </g>
     <g id="text_15">
      <!-- 12:58:55 -->
      <g transform="translate(476.358771 500.4725)rotate(-90)scale(0.1 -0.1)">
       <use xlink:href="#DejaVuSans-49"/>
       <use x="63.623047" xlink:href="#DejaVuSans-50"/>
       <use x="127.246094" xlink:href="#DejaVuSans-58"/>
       <use x="160.9375" xlink:href="#DejaVuSans-53"/>
       <use x="224.560547" xlink:href="#DejaVuSans-56"/>
       <use x="288.183594" xlink:href="#DejaVuSans-58"/>
       <use x="321.875" xlink:href="#DejaVuSans-53"/>
       <use x="385.498047" xlink:href="#DejaVuSans-53"/>
      </g>
     </g>
    </g>
    <g id="xtick_16">
     <g id="line2d_16">
      <g>
       <use style="stroke:#000000;stroke-width:0.8;" x="497.974418" xlink:href="#mac81ef00d5" y="448.56"/>
      </g>
     </g>
     <g id="text_16">
      <!-- 12:59:48 -->
      <g transform="translate(500.733793 500.4725)rotate(-90)scale(0.1 -0.1)">
       <use xlink:href="#DejaVuSans-49"/>
       <use x="63.623047" xlink:href="#DejaVuSans-50"/>
       <use x="127.246094" xlink:href="#DejaVuSans-58"/>
       <use x="160.9375" xlink:href="#DejaVuSans-53"/>
       <use x="224.560547" xlink:href="#DejaVuSans-57"/>
       <use x="288.183594" xlink:href="#DejaVuSans-58"/>
       <use x="321.875" xlink:href="#DejaVuSans-52"/>
       <use x="385.498047" xlink:href="#DejaVuSans-56"/>
      </g>
     </g>
    </g>
    <g id="xtick_17">
     <g id="line2d_17">
      <g>
       <use style="stroke:#000000;stroke-width:0.8;" x="522.349439" xlink:href="#mac81ef00d5" y="448.56"/>
      </g>
     </g>
     <g id="text_17">
      <!-- 13:00:41 -->
      <g transform="translate(525.108814 500.4725)rotate(-90)scale(0.1 -0.1)">
       <use xlink:href="#DejaVuSans-49"/>
       <use x="63.623047" xlink:href="#DejaVuSans-51"/>
       <use x="127.246094" xlink:href="#DejaVuSans-58"/>
       <use x="160.9375" xlink:href="#DejaVuSans-48"/>
       <use x="224.560547" xlink:href="#DejaVuSans-48"/>
       <use x="288.183594" xlink:href="#DejaVuSans-58"/>
       <use x="321.875" xlink:href="#DejaVuSans-52"/>
       <use x="385.498047" xlink:href="#DejaVuSans-49"/>
      </g>
     </g>
    </g>
    <g id="xtick_18">
     <g id="line2d_18">
      <g>
       <use style="stroke:#000000;stroke-width:0.8;" x="546.724461" xlink:href="#mac81ef00d5" y="448.56"/>
      </g>
     </g>
     <g id="text_18">
      <!-- 13:01:35 -->
      <g transform="translate(549.483836 500.4725)rotate(-90)scale(0.1 -0.1)">
       <use xlink:href="#DejaVuSans-49"/>
       <use x="63.623047" xlink:href="#DejaVuSans-51"/>
       <use x="127.246094" xlink:href="#DejaVuSans-58"/>
       <use x="160.9375" xlink:href="#DejaVuSans-48"/>
       <use x="224.560547" xlink:href="#DejaVuSans-49"/>
       <use x="288.183594" xlink:href="#DejaVuSans-58"/>
       <use x="321.875" xlink:href="#DejaVuSans-51"/>
       <use x="385.498047" xlink:href="#DejaVuSans-53"/>
      </g>
     </g>
    </g>
    <g id="xtick_19">
     <g id="line2d_19">
      <g>
       <use style="stroke:#000000;stroke-width:0.8;" x="571.099483" xlink:href="#mac81ef00d5" y="448.56"/>
      </g>
     </g>
     <g id="text_19">
      <!-- 13:02:27 -->
      <g transform="translate(573.858858 500.4725)rotate(-90)scale(0.1 -0.1)">
       <use xlink:href="#DejaVuSans-49"/>
       <use x="63.623047" xlink:href="#DejaVuSans-51"/>
       <use x="127.246094" xlink:href="#DejaVuSans-58"/>
       <use x="160.9375" xlink:href="#DejaVuSans-48"/>
       <use x="224.560547" xlink:href="#DejaVuSans-50"/>
       <use x="288.183594" xlink:href="#DejaVuSans-58"/>
       <use x="321.875" xlink:href="#DejaVuSans-50"/>
       <use x="385.498047" xlink:href="#DejaVuSans-55"/>
      </g>
     </g>
    </g>
    <g id="xtick_20">
     <g id="line2d_20">
      <g>
       <use style="stroke:#000000;stroke-width:0.8;" x="595.474505" xlink:href="#mac81ef00d5" y="448.56"/>
      </g>
     </g>
     <g id="text_20">
      <!-- 13:03:21 -->
      <g transform="translate(598.23388 500.4725)rotate(-90)scale(0.1 -0.1)">
       <use xlink:href="#DejaVuSans-49"/>
       <use x="63.623047" xlink:href="#DejaVuSans-51"/>
       <use x="127.246094" xlink:href="#DejaVuSans-58"/>
       <use x="160.9375" xlink:href="#DejaVuSans-48"/>
       <use x="224.560547" xlink:href="#DejaVuSans-51"/>
       <use x="288.183594" xlink:href="#DejaVuSans-58"/>
       <use x="321.875" xlink:href="#DejaVuSans-50"/>
       <use x="385.498047" xlink:href="#DejaVuSans-49"/>
      </g>
     </g>
    </g>
    <g id="text_21">
     <!-- timestamp -->
     <g transform="translate(354.264375 510.55125)scale(0.08 -0.08)">
      <defs>
       <path d="M 18.3125 70.21875 
L 18.3125 54.6875 
L 36.8125 54.6875 
L 36.8125 47.703125 
L 18.3125 47.703125 
L 18.3125 18.015625 
Q 18.3125 11.328125 20.140625 9.421875 
Q 21.96875 7.515625 27.59375 7.515625 
L 36.8125 7.515625 
L 36.8125 0 
L 27.59375 0 
Q 17.1875 0 13.234375 3.875 
Q 9.28125 7.765625 9.28125 18.015625 
L 9.28125 47.703125 
L 2.6875 47.703125 
L 2.6875 54.6875 
L 9.28125 54.6875 
L 9.28125 70.21875 
z
" id="DejaVuSans-116"/>
       <path d="M 9.421875 54.6875 
L 18.40625 54.6875 
L 18.40625 0 
L 9.421875 0 
z
M 9.421875 75.984375 
L 18.40625 75.984375 
L 18.40625 64.59375 
L 9.421875 64.59375 
z
" id="DejaVuSans-105"/>
       <path d="M 52 44.1875 
Q 55.375 50.25 60.0625 53.125 
Q 64.75 56 71.09375 56 
Q 79.640625 56 84.28125 50.015625 
Q 88.921875 44.046875 88.921875 33.015625 
L 88.921875 0 
L 79.890625 0 
L 79.890625 32.71875 
Q 79.890625 40.578125 77.09375 44.375 
Q 74.3125 48.1875 68.609375 48.1875 
Q 61.625 48.1875 57.5625 43.546875 
Q 53.515625 38.921875 53.515625 30.90625 
L 53.515625 0 
L 44.484375 0 
L 44.484375 32.71875 
Q 44.484375 40.625 41.703125 44.40625 
Q 38.921875 48.1875 33.109375 48.1875 
Q 26.21875 48.1875 22.15625 43.53125 
Q 18.109375 38.875 18.109375 30.90625 
L 18.109375 0 
L 9.078125 0 
L 9.078125 54.6875 
L 18.109375 54.6875 
L 18.109375 46.1875 
Q 21.1875 51.21875 25.484375 53.609375 
Q 29.78125 56 35.6875 56 
Q 41.65625 56 45.828125 52.96875 
Q 50 49.953125 52 44.1875 
z
" id="DejaVuSans-109"/>
       <path d="M 56.203125 29.59375 
L 56.203125 25.203125 
L 14.890625 25.203125 
Q 15.484375 15.921875 20.484375 11.0625 
Q 25.484375 6.203125 34.421875 6.203125 
Q 39.59375 6.203125 44.453125 7.46875 
Q 49.3125 8.734375 54.109375 11.28125 
L 54.109375 2.78125 
Q 49.265625 0.734375 44.1875 -0.34375 
Q 39.109375 -1.421875 33.890625 -1.421875 
Q 20.796875 -1.421875 13.15625 6.1875 
Q 5.515625 13.8125 5.515625 26.8125 
Q 5.515625 40.234375 12.765625 48.109375 
Q 20.015625 56 32.328125 56 
Q 43.359375 56 49.78125 48.890625 
Q 56.203125 41.796875 56.203125 29.59375 
z
M 47.21875 32.234375 
Q 47.125 39.59375 43.09375 43.984375 
Q 39.0625 48.390625 32.421875 48.390625 
Q 24.90625 48.390625 20.390625 44.140625 
Q 15.875 39.890625 15.1875 32.171875 
z
" id="DejaVuSans-101"/>
       <path d="M 44.28125 53.078125 
L 44.28125 44.578125 
Q 40.484375 46.53125 36.375 47.5 
Q 32.28125 48.484375 27.875 48.484375 
Q 21.1875 48.484375 17.84375 46.4375 
Q 14.5 44.390625 14.5 40.28125 
Q 14.5 37.15625 16.890625 35.375 
Q 19.28125 33.59375 26.515625 31.984375 
L 29.59375 31.296875 
Q 39.15625 29.25 43.1875 25.515625 
Q 47.21875 21.78125 47.21875 15.09375 
Q 47.21875 7.46875 41.1875 3.015625 
Q 35.15625 -1.421875 24.609375 -1.421875 
Q 20.21875 -1.421875 15.453125 -0.5625 
Q 10.6875 0.296875 5.421875 2 
L 5.421875 11.28125 
Q 10.40625 8.6875 15.234375 7.390625 
Q 20.0625 6.109375 24.8125 6.109375 
Q 31.15625 6.109375 34.5625 8.28125 
Q 37.984375 10.453125 37.984375 14.40625 
Q 37.984375 18.0625 35.515625 20.015625 
Q 33.0625 21.96875 24.703125 23.78125 
L 21.578125 24.515625 
Q 13.234375 26.265625 9.515625 29.90625 
Q 5.8125 33.546875 5.8125 39.890625 
Q 5.8125 47.609375 11.28125 51.796875 
Q 16.75 56 26.8125 56 
Q 31.78125 56 36.171875 55.265625 
Q 40.578125 54.546875 44.28125 53.078125 
z
" id="DejaVuSans-115"/>
       <path d="M 34.28125 27.484375 
Q 23.390625 27.484375 19.1875 25 
Q 14.984375 22.515625 14.984375 16.5 
Q 14.984375 11.71875 18.140625 8.90625 
Q 21.296875 6.109375 26.703125 6.109375 
Q 34.1875 6.109375 38.703125 11.40625 
Q 43.21875 16.703125 43.21875 25.484375 
L 43.21875 27.484375 
z
M 52.203125 31.203125 
L 52.203125 0 
L 43.21875 0 
L 43.21875 8.296875 
Q 40.140625 3.328125 35.546875 0.953125 
Q 30.953125 -1.421875 24.3125 -1.421875 
Q 15.921875 -1.421875 10.953125 3.296875 
Q 6 8.015625 6 15.921875 
Q 6 25.140625 12.171875 29.828125 
Q 18.359375 34.515625 30.609375 34.515625 
L 43.21875 34.515625 
L 43.21875 35.40625 
Q 43.21875 41.609375 39.140625 45 
Q 35.0625 48.390625 27.6875 48.390625 
Q 23 48.390625 18.546875 47.265625 
Q 14.109375 46.140625 10.015625 43.890625 
L 10.015625 52.203125 
Q 14.9375 54.109375 19.578125 55.046875 
Q 24.21875 56 28.609375 56 
Q 40.484375 56 46.34375 49.84375 
Q 52.203125 43.703125 52.203125 31.203125 
z
" id="DejaVuSans-97"/>
       <path d="M 18.109375 8.203125 
L 18.109375 -20.796875 
L 9.078125 -20.796875 
L 9.078125 54.6875 
L 18.109375 54.6875 
L 18.109375 46.390625 
Q 20.953125 51.265625 25.265625 53.625 
Q 29.59375 56 35.59375 56 
Q 45.5625 56 51.78125 48.09375 
Q 58.015625 40.1875 58.015625 27.296875 
Q 58.015625 14.40625 51.78125 6.484375 
Q 45.5625 -1.421875 35.59375 -1.421875 
Q 29.59375 -1.421875 25.265625 0.953125 
Q 20.953125 3.328125 18.109375 8.203125 
z
M 48.6875 27.296875 
Q 48.6875 37.203125 44.609375 42.84375 
Q 40.53125 48.484375 33.40625 48.484375 
Q 26.265625 48.484375 22.1875 42.84375 
Q 18.109375 37.203125 18.109375 27.296875 
Q 18.109375 17.390625 22.1875 11.75 
Q 26.265625 6.109375 33.40625 6.109375 
Q 40.53125 6.109375 44.609375 11.75 
Q 48.6875 17.390625 48.6875 27.296875 
z
" id="DejaVuSans-112"/>
      </defs>
      <use xlink:href="#DejaVuSans-116"/>
      <use x="39.208984" xlink:href="#DejaVuSans-105"/>
      <use x="66.992188" xlink:href="#DejaVuSans-109"/>
      <use x="164.404297" xlink:href="#DejaVuSans-101"/>
      <use x="225.927734" xlink:href="#DejaVuSans-115"/>
      <use x="278.027344" xlink:href="#DejaVuSans-116"/>
      <use x="317.236328" xlink:href="#DejaVuSans-97"/>
      <use x="378.515625" xlink:href="#DejaVuSans-109"/>
      <use x="475.927734" xlink:href="#DejaVuSans-112"/>
     </g>
    </g>
   </g>
   <g id="matplotlib.axis_2">
    <g id="ytick_1">
     <g id="line2d_21">
      <defs>
       <path d="M 0 0 
L -3.5 0 
" id="m7df902320f" style="stroke:#000000;stroke-width:0.8;"/>
      </defs>
      <g>
       <use style="stroke:#000000;stroke-width:0.8;" x="108" xlink:href="#m7df902320f" y="426.369775"/>
      </g>
     </g>
     <g id="text_22">
      <!-- 10200 -->
      <g transform="translate(69.1875 430.168994)scale(0.1 -0.1)">
       <use xlink:href="#DejaVuSans-49"/>
       <use x="63.623047" xlink:href="#DejaVuSans-48"/>
       <use x="127.246094" xlink:href="#DejaVuSans-50"/>
       <use x="190.869141" xlink:href="#DejaVuSans-48"/>
       <use x="254.492188" xlink:href="#DejaVuSans-48"/>
      </g>
     </g>
    </g>
    <g id="ytick_2">
     <g id="line2d_22">
      <g>
       <use style="stroke:#000000;stroke-width:0.8;" x="108" xlink:href="#m7df902320f" y="382.106888"/>
      </g>
     </g>
     <g id="text_23">
      <!-- 10300 -->
      <g transform="translate(69.1875 385.906106)scale(0.1 -0.1)">
       <use xlink:href="#DejaVuSans-49"/>
       <use x="63.623047" xlink:href="#DejaVuSans-48"/>
       <use x="127.246094" xlink:href="#DejaVuSans-51"/>
       <use x="190.869141" xlink:href="#DejaVuSans-48"/>
       <use x="254.492188" xlink:href="#DejaVuSans-48"/>
      </g>
     </g>
    </g>
    <g id="ytick_3">
     <g id="line2d_23">
      <g>
       <use style="stroke:#000000;stroke-width:0.8;" x="108" xlink:href="#m7df902320f" y="337.844"/>
      </g>
     </g>
     <g id="text_24">
      <!-- 10400 -->
      <g transform="translate(69.1875 341.643219)scale(0.1 -0.1)">
       <use xlink:href="#DejaVuSans-49"/>
       <use x="63.623047" xlink:href="#DejaVuSans-48"/>
       <use x="127.246094" xlink:href="#DejaVuSans-52"/>
       <use x="190.869141" xlink:href="#DejaVuSans-48"/>
       <use x="254.492188" xlink:href="#DejaVuSans-48"/>
      </g>
     </g>
    </g>
    <g id="ytick_4">
     <g id="line2d_24">
      <g>
       <use style="stroke:#000000;stroke-width:0.8;" x="108" xlink:href="#m7df902320f" y="293.581113"/>
      </g>
     </g>
     <g id="text_25">
      <!-- 10500 -->
      <g transform="translate(69.1875 297.380332)scale(0.1 -0.1)">
       <use xlink:href="#DejaVuSans-49"/>
       <use x="63.623047" xlink:href="#DejaVuSans-48"/>
       <use x="127.246094" xlink:href="#DejaVuSans-53"/>
       <use x="190.869141" xlink:href="#DejaVuSans-48"/>
       <use x="254.492188" xlink:href="#DejaVuSans-48"/>
      </g>
     </g>
    </g>
    <g id="ytick_5">
     <g id="line2d_25">
      <g>
       <use style="stroke:#000000;stroke-width:0.8;" x="108" xlink:href="#m7df902320f" y="249.318225"/>
      </g>
     </g>
     <g id="text_26">
      <!-- 10600 -->
      <g transform="translate(69.1875 253.117444)scale(0.1 -0.1)">
       <use xlink:href="#DejaVuSans-49"/>
       <use x="63.623047" xlink:href="#DejaVuSans-48"/>
       <use x="127.246094" xlink:href="#DejaVuSans-54"/>
       <use x="190.869141" xlink:href="#DejaVuSans-48"/>
       <use x="254.492188" xlink:href="#DejaVuSans-48"/>
      </g>
     </g>
    </g>
    <g id="ytick_6">
     <g id="line2d_26">
      <g>
       <use style="stroke:#000000;stroke-width:0.8;" x="108" xlink:href="#m7df902320f" y="205.055338"/>
      </g>
     </g>
     <g id="text_27">
      <!-- 10700 -->
      <g transform="translate(69.1875 208.854557)scale(0.1 -0.1)">
       <use xlink:href="#DejaVuSans-49"/>
       <use x="63.623047" xlink:href="#DejaVuSans-48"/>
       <use x="127.246094" xlink:href="#DejaVuSans-55"/>
       <use x="190.869141" xlink:href="#DejaVuSans-48"/>
       <use x="254.492188" xlink:href="#DejaVuSans-48"/>
      </g>
     </g>
    </g>
    <g id="ytick_7">
     <g id="line2d_27">
      <g>
       <use style="stroke:#000000;stroke-width:0.8;" x="108" xlink:href="#m7df902320f" y="160.792451"/>
      </g>
     </g>
     <g id="text_28">
      <!-- 10800 -->
      <g transform="translate(69.1875 164.591669)scale(0.1 -0.1)">
       <use xlink:href="#DejaVuSans-49"/>
       <use x="63.623047" xlink:href="#DejaVuSans-48"/>
       <use x="127.246094" xlink:href="#DejaVuSans-56"/>
       <use x="190.869141" xlink:href="#DejaVuSans-48"/>
       <use x="254.492188" xlink:href="#DejaVuSans-48"/>
      </g>
     </g>
    </g>
    <g id="ytick_8">
     <g id="line2d_28">
      <g>
       <use style="stroke:#000000;stroke-width:0.8;" x="108" xlink:href="#m7df902320f" y="116.529563"/>
      </g>
     </g>
     <g id="text_29">
      <!-- 10900 -->
      <g transform="translate(69.1875 120.328782)scale(0.1 -0.1)">
       <use xlink:href="#DejaVuSans-49"/>
       <use x="63.623047" xlink:href="#DejaVuSans-48"/>
       <use x="127.246094" xlink:href="#DejaVuSans-57"/>
       <use x="190.869141" xlink:href="#DejaVuSans-48"/>
       <use x="254.492188" xlink:href="#DejaVuSans-48"/>
      </g>
     </g>
    </g>
    <g id="ytick_9">
     <g id="line2d_29">
      <g>
       <use style="stroke:#000000;stroke-width:0.8;" x="108" xlink:href="#m7df902320f" y="72.266676"/>
      </g>
     </g>
     <g id="text_30">
      <!-- 11000 -->
      <g transform="translate(69.1875 76.065895)scale(0.1 -0.1)">
       <use xlink:href="#DejaVuSans-49"/>
       <use x="63.623047" xlink:href="#DejaVuSans-49"/>
       <use x="127.246094" xlink:href="#DejaVuSans-48"/>
       <use x="190.869141" xlink:href="#DejaVuSans-48"/>
       <use x="254.492188" xlink:href="#DejaVuSans-48"/>
      </g>
     </g>
    </g>
    <g id="text_31">
     <!-- MB -->
     <g transform="translate(63.52375 260.715625)rotate(-90)scale(0.08 -0.08)">
      <defs>
       <path d="M 9.8125 72.90625 
L 24.515625 72.90625 
L 43.109375 23.296875 
L 61.8125 72.90625 
L 76.515625 72.90625 
L 76.515625 0 
L 66.890625 0 
L 66.890625 64.015625 
L 48.09375 14.015625 
L 38.1875 14.015625 
L 19.390625 64.015625 
L 19.390625 0 
L 9.8125 0 
z
" id="DejaVuSans-77"/>
       <path d="M 19.671875 34.8125 
L 19.671875 8.109375 
L 35.5 8.109375 
Q 43.453125 8.109375 47.28125 11.40625 
Q 51.125 14.703125 51.125 21.484375 
Q 51.125 28.328125 47.28125 31.5625 
Q 43.453125 34.8125 35.5 34.8125 
z
M 19.671875 64.796875 
L 19.671875 42.828125 
L 34.28125 42.828125 
Q 41.5 42.828125 45.03125 45.53125 
Q 48.578125 48.25 48.578125 53.8125 
Q 48.578125 59.328125 45.03125 62.0625 
Q 41.5 64.796875 34.28125 64.796875 
z
M 9.8125 72.90625 
L 35.015625 72.90625 
Q 46.296875 72.90625 52.390625 68.21875 
Q 58.5 63.53125 58.5 54.890625 
Q 58.5 48.1875 55.375 44.234375 
Q 52.25 40.28125 46.1875 39.3125 
Q 53.46875 37.75 57.5 32.78125 
Q 61.53125 27.828125 61.53125 20.40625 
Q 61.53125 10.640625 54.890625 5.3125 
Q 48.25 0 35.984375 0 
L 9.8125 0 
z
" id="DejaVuSans-66"/>
      </defs>
      <use xlink:href="#DejaVuSans-77"/>
      <use x="86.279297" xlink:href="#DejaVuSans-66"/>
     </g>
    </g>
   </g>
   <g id="line2d_30">
    <path clip-path="url(#p183dd892f9)" d="M 132.349091 82.048774 
L 133.386326 82.606486 
L 133.904943 81.48752 
L 134.423561 84.090178 
L 134.942178 81.236107 
L 135.460796 81.034269 
L 135.979413 79.76835 
L 136.498031 78.12 
L 137.016648 82.891539 
L 137.535266 82.365696 
L 138.053883 80.807643 
L 138.572501 88.815684 
L 139.091118 112.730037 
L 139.609736 145.045486 
L 140.128353 191.371024 
L 140.646971 252.085541 
L 141.165588 276.166322 
L 141.684206 317.082936 
L 143.240058 400.709694 
L 143.758676 407.055222 
L 144.277293 410.849436 
L 144.795911 409.710995 
L 145.314528 409.822537 
L 145.833146 408.129925 
L 146.87038 410.498874 
L 147.388998 410.936192 
L 147.907615 408.930198 
L 148.426233 407.724476 
L 149.463468 410.327134 
L 149.982085 409.976572 
L 150.500703 408.462781 
L 151.01932 408.588488 
L 151.537938 411.778957 
L 152.056555 409.987195 
L 152.575173 409.953555 
L 153.09379 408.643374 
L 153.612408 410.647598 
L 154.131025 410.327134 
L 154.649643 410.987537 
L 155.16826 410.69186 
L 155.686878 408.947903 
L 156.205495 412.003812 
L 156.724113 412.140142 
L 157.24273 411.683349 
L 157.761348 409.064757 
L 158.279965 408.39019 
L 158.798583 410.658221 
L 159.3172 410.281101 
L 159.835818 409.034658 
L 160.354435 407.404013 
L 160.873053 410.631663 
L 161.910288 410.397955 
L 162.428905 409.059445 
L 162.947523 408.735441 
L 163.46614 411.716989 
L 163.984757 412.017977 
L 164.503375 409.857948 
L 165.021992 410.281101 
L 165.54061 410.495333 
L 166.059227 412.835955 
L 166.577845 412.586312 
L 167.096462 412.566836 
L 167.61508 411.081374 
L 168.133697 413.614982 
L 168.652315 413.383044 
L 169.170932 412.605788 
L 169.68955 411.159277 
L 170.208167 412.827102 
L 170.726785 411.885188 
L 171.245402 411.727612 
L 171.76402 408.418519 
L 172.282637 408.269795 
L 172.801255 412.1667 
L 173.319872 412.432277 
L 174.357107 409.884505 
L 174.875725 410.436906 
L 175.394342 412.141913 
L 175.91296 412.425195 
L 176.431577 412.313653 
L 176.950195 411.058357 
L 177.468812 413.625605 
L 177.98743 414.415255 
L 178.506047 413.06081 
L 179.024665 413.009465 
L 179.543282 411.971943 
L 180.0619 414.082398 
L 180.580517 414.659586 
L 181.099134 414.718013 
L 181.617752 413.252026 
L 182.136369 410.805173 
L 182.654987 413.976167 
L 183.173604 413.225468 
L 183.692222 409.911063 
L 184.210839 410.187264 
L 184.729457 411.585971 
L 185.248074 411.771875 
L 185.766692 410.543137 
L 186.285309 410.48294 
L 186.803927 409.027576 
L 187.322544 414.409943 
L 187.841162 413.138713 
L 188.359779 413.207763 
L 188.878397 411.759481 
L 189.397014 412.834184 
L 189.915632 414.599388 
L 190.434249 414.661356 
L 190.952867 412.598706 
L 191.471484 411.37705 
L 191.990102 412.384473 
L 192.508719 412.807626 
L 193.027337 412.754511 
L 193.545954 410.440447 
L 194.064572 414.170923 
L 194.583189 412.549131 
L 195.101807 412.703166 
L 195.620424 409.617158 
L 196.139042 410.075721 
L 196.657659 414.367451 
L 197.176277 414.374533 
L 197.694894 413.776098 
L 198.213511 410.753828 
L 198.732129 411.463805 
L 199.250746 412.839496 
L 199.769364 412.871365 
L 200.287981 412.572148 
L 200.806599 411.738235 
L 201.325216 413.021859 
L 201.843834 413.485734 
L 202.881069 412.710248 
L 203.399686 411.401837 
L 203.918304 414.367451 
L 204.436921 414.764046 
L 204.955539 414.114267 
L 205.474156 412.943956 
L 205.992774 413.33347 
L 206.511391 413.356486 
L 207.030009 411.878106 
L 208.067244 410.123525 
L 208.585861 413.33347 
L 209.104479 413.524685 
L 209.623096 417.577395 
L 210.141714 416.541644 
L 211.178949 416.438954 
L 211.697566 419.061087 
L 212.216184 420.700585 
L 212.734801 419.004431 
L 213.253419 416.104326 
L 213.772036 422.173653 
L 214.290653 421.773517 
L 214.809271 416.11849 
L 215.327888 415.923734 
L 216.365123 416.182229 
L 216.883741 413.845149 
L 217.402358 412.333128 
L 217.920976 412.92448 
L 218.439593 417.060405 
L 218.958211 416.702761 
L 219.995446 413.800886 
L 220.514063 416.244197 
L 221.032681 416.29023 
L 221.551298 416.506233 
L 222.069916 415.881241 
L 222.588533 414.592306 
L 223.107151 416.679744 
L 223.625768 417.274637 
L 224.144386 416.690367 
L 224.663003 414.585224 
L 225.181621 414.91454 
L 225.700238 414.997754 
L 226.218856 414.868507 
L 226.737473 414.386926 
L 227.256091 412.961661 
L 227.774708 416.419478 
L 228.293326 416.952403 
L 228.811943 417.24985 
L 229.330561 415.273955 
L 229.849178 415.49704 
L 230.367796 416.359281 
L 230.886413 416.676203 
L 231.40503 413.81682 
L 231.923648 413.753082 
L 232.442265 419.041612 
L 232.960883 418.754788 
L 233.4795 416.718695 
L 233.998118 415.192511 
L 234.516735 415.111067 
L 235.035353 417.467623 
L 236.072588 417.069257 
L 236.591205 415.08805 
L 237.109823 418.676885 
L 237.62844 419.011513 
L 238.665675 418.128026 
L 239.184293 416.745253 
L 239.70291 416.801909 
L 240.221528 416.484987 
L 240.740145 416.525709 
L 241.258763 415.3253 
L 241.77738 414.971196 
L 242.295998 415.844061 
L 242.814615 415.992784 
L 243.333233 413.689343 
L 243.85185 413.535308 
L 244.370468 416.378756 
L 244.889085 416.42656 
L 245.407703 415.70419 
L 245.92632 414.353286 
L 246.444938 414.278925 
L 246.963555 417.11175 
L 247.482173 417.124143 
L 248.00079 415.507663 
L 248.519407 415.518286 
L 249.038025 416.672662 
L 249.556642 415.576713 
L 250.07526 414.889753 
L 250.593877 415.49704 
L 251.112495 413.614982 
L 251.631112 418.894659 
L 252.668347 418.958397 
L 253.186965 415.821044 
L 253.705582 416.706302 
L 254.2242 416.523938 
L 254.742817 413.843378 
L 255.261435 413.954921 
L 255.780052 412.618181 
L 256.29867 415.596188 
L 256.817287 415.700649 
L 257.335905 415.373103 
L 257.854522 414.110726 
L 258.37314 413.946068 
L 258.891757 415.08628 
L 259.410375 415.242085 
L 259.928992 415.546614 
L 260.44761 413.903576 
L 260.966227 417.039159 
L 262.003462 417.304736 
L 262.52208 415.755535 
L 263.040697 415.959144 
L 263.559315 417.719036 
L 264.077932 417.395032 
L 264.59655 416.566431 
L 265.115167 415.479334 
L 265.633784 416.230033 
L 266.152402 418.105009 
L 267.189637 414.934016 
L 267.708254 414.588765 
L 268.226872 416.605382 
L 268.745489 417.379097 
L 269.264107 416.929387 
L 269.782724 416.716925 
L 270.301342 415.286348 
L 270.819959 417.823497 
L 271.338577 417.518968 
L 271.857194 417.520739 
L 272.375812 416.274296 
L 272.894429 417.471164 
L 273.413047 416.842631 
L 273.931664 416.677973 
L 274.450282 415.732518 
L 274.968899 414.08948 
L 275.487517 417.812874 
L 276.006134 418.528162 
L 276.524752 418.103238 
L 277.043369 416.619546 
L 277.561987 416.824926 
L 278.080604 418.869872 
L 278.599222 422.81458 
L 280.155074 419.220434 
L 280.673692 419.200958 
L 281.192309 419.305418 
L 281.710927 418.308618 
L 282.229544 417.605723 
L 282.748161 419.478929 
L 283.266779 420.049035 
L 283.785396 419.978214 
L 284.822631 417.485328 
L 285.341249 417.520739 
L 285.859866 418.131567 
L 286.378484 418.043041 
L 286.897101 416.492069 
L 287.415719 422.518904 
L 287.934336 422.425067 
L 288.452954 421.430037 
L 288.971571 417.623429 
L 289.490189 417.896088 
L 290.008806 419.489552 
L 290.527424 419.011513 
L 291.046041 415.693567 
L 291.564659 416.159212 
L 292.083276 419.491322 
L 292.601894 420.325235 
L 293.120511 419.822409 
L 293.639129 419.054005 
L 294.157746 418.000548 
L 294.676364 420.65101 
L 295.194981 419.769293 
L 295.713599 419.420502 
L 296.232216 418.10855 
L 297.269451 419.811786 
L 297.788069 419.678997 
L 298.306686 419.420502 
L 298.825304 416.408855 
L 299.343921 420.013625 
L 299.862538 420.459794 
L 300.381156 420.277431 
L 300.899773 418.38298 
L 301.418391 418.205928 
L 301.937008 419.197417 
L 302.974243 415.932586 
L 303.492861 415.169494 
L 304.011478 420.222545 
L 305.048713 419.455912 
L 305.567331 417.929728 
L 306.085948 418.285601 
L 306.604566 419.903853 
L 307.123183 419.163777 
L 307.641801 419.054005 
L 308.160418 417.306506 
L 308.679036 419.278861 
L 309.197653 420.470418 
L 309.716271 419.804704 
L 310.234888 419.494863 
L 310.753506 418.221863 
L 311.272123 419.617029 
L 311.790741 419.519651 
L 312.309358 419.163777 
L 312.827976 417.579166 
L 313.346593 419.029218 
L 313.865211 419.941033 
L 314.902446 417.425131 
L 315.421063 417.582707 
L 315.939681 419.733883 
L 316.458298 420.167659 
L 316.976915 419.496634 
L 317.495533 417.897859 
L 318.01415 417.979302 
L 318.532768 421.035212 
L 319.051385 419.101809 
L 319.570003 418.455571 
L 320.08862 416.674432 
L 320.607238 418.259044 
L 321.125855 421.433578 
L 321.644473 420.259726 
L 322.16309 420.087986 
L 322.681708 418.825609 
L 323.200325 421.123738 
L 323.718943 420.440319 
L 324.756178 420.358875 
L 325.274795 418.267896 
L 325.793413 419.101809 
L 326.31203 419.135449 
L 326.830648 417.807562 
L 327.349265 417.511886 
L 327.867883 417.963368 
L 328.3865 419.523192 
L 328.905118 419.567455 
L 329.423735 419.788769 
L 329.942353 418.606065 
L 330.46097 420.291595 
L 330.979588 420.098609 
L 331.498205 420.234939 
L 332.016823 419.677227 
L 332.53544 416.417708 
L 333.054058 421.116656 
L 333.572675 420.790881 
L 334.091292 420.210152 
L 334.60991 418.3157 
L 335.128527 420.229627 
L 335.647145 419.799392 
L 336.165762 420.013625 
L 336.68438 420.404908 
L 337.202997 418.89997 
L 337.721615 421.449513 
L 338.240232 420.493434 
L 338.75885 420.840455 
L 339.277467 419.236368 
L 339.796085 419.871983 
L 340.314702 420.792651 
L 340.83332 421.16623 
L 341.351937 420.627993 
L 341.870555 419.110662 
L 342.389172 422.669398 
L 342.90779 422.593266 
L 343.426407 421.865584 
L 343.945025 419.670145 
L 344.463642 420.314612 
L 344.98226 422.391427 
L 345.500877 422.727825 
L 346.019495 422.042635 
L 346.538112 421.001572 
L 347.05673 421.780599 
L 347.575347 428.724561 
L 348.093965 428.312031 
L 348.612582 426.566302 
L 349.1312 422.207293 
L 349.649817 424.29119 
L 351.205669 420.229627 
L 351.724287 426.274167 
L 352.242904 428.088946 
L 352.761522 423.933546 
L 353.280139 423.793675 
L 353.798757 422.476412 
L 354.317374 424.615194 
L 354.835992 423.632558 
L 355.354609 423.74056 
L 355.873227 423.606 
L 356.391844 422.669398 
L 356.910462 422.88186 
L 357.429079 422.637529 
L 357.947697 422.782711 
L 358.466314 420.739536 
L 358.984932 424.069876 
L 359.503549 423.246586 
L 360.022167 422.793334 
L 360.540784 421.208722 
L 361.059402 420.962621 
L 361.578019 425.820915 
L 362.096637 424.84182 
L 362.615254 424.742671 
L 363.133872 421.277773 
L 363.652489 420.481041 
L 364.171107 424.043318 
L 365.208342 423.933546 
L 365.726959 422.961533 
L 366.245577 425.240186 
L 366.764194 425.980262 
L 367.282812 424.204435 
L 367.801429 423.738789 
L 368.320046 422.50474 
L 368.838664 424.043318 
L 369.357281 423.611312 
L 369.875899 423.891053 
L 370.394516 422.479953 
L 370.913134 422.901335 
L 371.431751 425.041889 
L 372.468986 424.60103 
L 372.987604 421.311412 
L 373.506221 425.367663 
L 374.543456 426.537974 
L 375.062074 421.900994 
L 375.580691 421.557514 
L 376.099309 424.903788 
L 377.655161 421.904535 
L 378.173779 424.438143 
L 378.692396 424.218599 
L 379.211014 423.846791 
L 379.729631 422.301131 
L 380.766866 423.258979 
L 381.285484 423.478523 
L 381.804101 423.494458 
L 382.841336 423.317406 
L 383.359954 424.307125 
L 384.397188 421.20164 
L 384.915806 419.728572 
L 385.434423 422.1949 
L 385.953041 423.621935 
L 386.471658 423.290849 
L 386.990276 422.623364 
L 387.508893 421.309642 
L 388.027511 424.422208 
L 388.546128 424.105286 
L 389.064746 423.469671 
L 389.583363 422.033783 
L 390.101981 422.706579 
L 390.620598 425.512846 
L 391.657833 424.979921 
L 392.176451 423.416555 
L 392.695068 425.374745 
L 393.213686 424.018531 
L 393.732303 423.938857 
L 394.250921 424.163713 
L 394.769538 423.251897 
L 395.288156 424.280567 
L 395.806773 424.659457 
L 396.325391 424.423979 
L 396.844008 421.40702 
L 397.362626 421.486693 
L 397.881243 424.997626 
L 398.399861 424.987003 
L 398.918478 424.505422 
L 399.437096 422.582643 
L 399.955713 423.621935 
L 400.474331 424.126532 
L 400.992948 423.752953 
L 401.511565 421.957651 
L 402.5488 425.548256 
L 403.586035 425.14989 
L 404.104653 424.006137 
L 404.62327 424.243386 
L 405.141888 425.064905 
L 406.179123 424.01676 
L 406.69774 421.883289 
L 407.216358 425.303925 
L 407.734975 425.654487 
L 408.253593 425.314548 
L 408.77221 422.370181 
L 409.290828 423.142125 
L 409.809445 426.277708 
L 410.328063 425.819145 
L 410.84668 423.067764 
L 411.365298 423.266062 
L 411.883915 426.401644 
L 412.402533 426.97175 
L 412.92115 426.985915 
L 413.439768 425.835079 
L 413.958385 426.463612 
L 414.477003 427.391363 
L 414.99562 425.757177 
L 415.514238 425.387139 
L 416.032855 424.089351 
L 416.551473 430.92 
L 417.07009 430.608389 
L 417.588708 429.749689 
L 418.107325 425.442025 
L 418.625942 423.701608 
L 419.14456 426.826568 
L 419.663177 426.80001 
L 420.181795 424.161942 
L 420.700412 423.119109 
L 421.21903 423.729937 
L 421.737647 425.289761 
L 422.256265 424.709032 
L 422.774882 423.492687 
L 423.2935 423.407703 
L 423.812117 427.807434 
L 424.330735 427.476347 
L 424.849352 425.925376 
L 425.36797 426.458301 
L 425.886587 424.755065 
L 426.405205 427.959698 
L 426.923822 427.612677 
L 427.44244 427.097457 
L 427.961057 425.450878 
L 428.479675 429.110533 
L 428.998292 427.083293 
L 429.51691 426.984144 
L 430.035527 424.133614 
L 430.554145 424.409815 
L 431.072762 426.013902 
L 431.59138 425.507534 
L 432.109997 425.385369 
L 432.628615 423.760035 
L 433.147232 424.645293 
L 433.66585 427.386051 
L 434.184467 427.035489 
L 434.703085 425.865178 
L 435.221702 424.172565 
L 435.740319 426.192724 
L 436.258937 426.447678 
L 436.777554 426.185642 
L 437.296172 424.987003 
L 437.814789 425.14989 
L 438.333407 426.417579 
L 438.852024 426.711485 
L 439.370642 425.500452 
L 439.889259 425.181759 
L 440.407877 427.035489 
L 440.926494 426.707944 
L 441.445112 426.569843 
L 441.963729 423.818462 
L 442.482347 423.793675 
L 443.000964 425.760718 
L 443.519582 426.098886 
L 444.038199 425.32163 
L 444.556817 424.030924 
L 445.075434 424.144237 
L 445.594052 425.97318 
L 446.112669 424.724966 
L 446.631287 424.824115 
L 447.149904 423.096092 
L 447.668522 426.985915 
L 448.187139 427.6233 
L 448.705757 427.648087 
L 449.224374 427.996879 
L 449.742992 426.35207 
L 450.780227 426.828339 
L 451.298844 426.700862 
L 451.817462 425.01356 
L 452.336079 424.321289 
L 452.854696 428.304949 
L 453.373314 428.120815 
L 453.891931 427.410838 
L 454.410549 426.11128 
L 454.929166 425.468583 
L 455.447784 425.852785 
L 455.966401 425.946622 
L 456.485019 425.325171 
L 457.003636 423.933546 
L 457.522254 424.965756 
L 458.040871 424.903788 
L 458.559489 424.551456 
L 459.078106 422.184277 
L 459.596724 423.883971 
L 460.115341 426.780535 
L 461.152576 426.575155 
L 461.671194 425.256121 
L 462.189811 425.42609 
L 462.708429 424.397421 
L 463.227046 422.98632 
L 463.745664 420.663404 
L 464.264281 421.978897 
L 464.782899 420.778487 
L 465.301516 421.369839 
L 465.820134 421.352134 
L 466.338751 419.477158 
L 466.857369 422.040865 
L 467.894604 422.042635 
L 468.413221 418.577736 
L 468.931839 418.616688 
L 469.450456 420.13579 
L 469.969073 420.004772 
L 470.487691 420.165889 
L 471.006308 422.106374 
L 472.043543 428.096028 
L 472.562161 427.000079 
L 473.080778 422.665857 
L 473.599396 420.68642 
L 474.118013 422.595036 
L 474.636631 422.301131 
L 475.155248 421.290166 
L 475.673866 419.622341 
L 476.192483 421.607088 
L 476.711101 420.003001 
L 477.748336 418.947774 
L 478.266953 417.21444 
L 478.785571 420.782028 
L 479.822806 417.819956 
L 480.341423 416.812533 
L 480.860041 416.984273 
L 481.378658 421.904535 
L 481.897276 419.218663 
L 482.415893 417.515427 
L 482.934511 417.393262 
L 483.971746 422.026701 
L 484.490363 421.835485 
L 485.008981 422.405591 
L 486.046216 429.108763 
L 486.564833 427.460413 
L 487.08345 422.354246 
L 487.602068 420.583731 
L 488.120685 421.228198 
L 488.639303 420.842226 
L 489.15792 419.602865 
L 489.676538 424.586866 
L 490.195155 423.1917 
L 490.713773 423.648493 
L 491.23239 421.962962 
L 491.751008 422.315295 
L 492.269625 421.608859 
L 492.788243 419.526733 
L 493.30686 420.999802 
L 493.825478 421.187476 
L 494.344095 420.672256 
L 494.862713 419.169089 
L 495.899948 421.368069 
L 496.418565 421.490234 
L 496.937183 421.428266 
L 497.4558 420.566025 
L 497.974418 422.308213 
L 498.493035 421.504399 
L 499.011653 419.840114 
L 499.53027 416.828467 
L 500.048888 416.019342 
L 500.567505 417.14893 
L 501.086123 417.189652 
L 501.60474 417.081651 
L 502.123358 415.665238 
L 502.641975 416.614235 
L 503.160593 418.478588 
L 503.67921 418.204158 
L 504.197827 416.686826 
L 504.716445 416.01403 
L 505.235062 416.398232 
L 505.75368 415.698878 
L 506.272297 415.383727 
L 506.790915 413.811509 
L 507.309532 414.300171 
L 507.82815 417.816415 
L 508.865385 417.717266 
L 509.384002 416.068916 
L 509.90262 417.382639 
L 510.421237 417.550837 
L 510.939855 417.088733 
L 511.458472 417.019683 
L 511.97709 415.095132 
L 512.495707 414.833096 
L 513.014325 414.836637 
L 513.532942 413.896493 
L 514.05156 411.706366 
L 514.570177 413.066122 
L 515.088795 414.91454 
L 515.607412 414.381615 
L 516.12603 410.840584 
L 516.644647 410.803403 
L 517.163265 411.460264 
L 517.681882 411.292065 
L 518.2005 411.300918 
L 518.719117 410.027917 
L 519.237735 410.284642 
L 519.756352 413.115696 
L 520.27497 413.889411 
L 520.793587 413.799115 
L 521.312204 412.03037 
L 521.830822 414.772899 
L 522.349439 414.739259 
L 522.868057 414.277154 
L 523.905292 412.13129 
L 524.423909 415.403202 
L 525.461144 414.7428 
L 525.979762 413.962003 
L 526.498379 414.70739 
L 527.016997 414.613552 
L 527.535614 411.476199 
L 528.054232 411.623152 
L 528.572849 410.00313 
L 529.091467 414.43296 
L 529.610084 413.661015 
L 530.128702 413.26619 
L 530.647319 411.713448 
L 531.165937 413.021859 
L 531.684554 414.946409 
L 532.203172 414.33204 
L 533.240407 411.915287 
L 533.759024 415.884782 
L 534.277642 414.964114 
L 534.796259 413.682261 
L 535.314877 410.48471 
L 535.833494 410.192575 
L 536.352112 411.065439 
L 536.870729 409.585288 
L 537.389347 406.403672 
L 537.907964 406.076127 
L 538.426581 409.551648 
L 538.945199 409.948244 
L 539.982434 408.820426 
L 540.501051 406.995024 
L 541.019669 408.90541 
L 541.538286 407.616475 
L 542.056904 404.638468 
L 542.575521 402.710377 
L 543.094139 401.573706 
L 543.612756 403.979836 
L 544.649991 403.590323 
L 545.168609 402.529784 
L 545.687226 405.031522 
L 546.205844 404.996112 
L 546.724461 404.695124 
L 547.243079 404.693354 
L 547.761696 403.944426 
L 548.280314 405.26346 
L 549.317549 404.06305 
L 549.836166 400.927467 
L 550.873401 403.381402 
L 551.392019 402.804214 
L 551.910636 400.373296 
L 552.429254 398.972818 
L 552.947871 402.145582 
L 553.466489 402.232337 
L 553.985106 400.849565 
L 554.503723 405.601628 
L 555.022341 406.424918 
L 555.540958 409.5906 
L 556.059576 403.871835 
L 556.578193 401.515279 
L 557.096811 401.566624 
L 557.615428 404.831454 
L 558.134046 404.310923 
L 558.652663 403.475239 
L 559.171281 402.940544 
L 559.689898 401.571935 
L 560.208516 402.751098 
L 560.727133 401.534754 
L 561.245751 401.469245 
L 561.764368 400.31841 
L 562.282986 401.982695 
L 562.801603 404.856241 
L 563.320221 404.528696 
L 563.838838 404.410071 
L 564.357456 402.396995 
L 565.394691 402.781197 
L 565.913308 402.597064 
L 566.431926 401.131077 
L 566.950543 400.635332 
L 567.469161 402.07122 
L 567.987778 402.497915 
L 568.506396 402.425324 
L 569.025013 400.884975 
L 569.543631 404.642009 
L 570.062248 405.828254 
L 570.580866 405.47061 
L 571.099483 403.754981 
L 571.6181 400.677825 
L 572.136718 401.494032 
L 572.655335 398.650585 
L 573.173953 396.60741 
L 573.69257 395.908056 
L 574.211188 396.322357 
L 574.729805 398.385007 
L 575.248423 398.158381 
L 575.76704 395.615921 
L 576.285658 396.02491 
L 576.804275 396.111665 
L 577.84151 393.969342 
L 578.360128 393.544418 
L 578.878745 391.409176 
L 579.397363 393.362055 
L 579.91598 393.884357 
L 580.434598 391.66236 
L 580.953215 391.864199 
L 581.471833 393.259365 
L 581.99045 395.095389 
L 582.509068 395.300769 
L 583.027685 393.085854 
L 583.546303 393.119494 
L 584.06492 394.110983 
L 584.583538 393.107101 
L 585.102155 392.93359 
L 585.620773 391.632261 
L 586.658008 393.406318 
L 587.176625 392.729981 
L 587.695243 392.283811 
L 588.21386 391.214419 
L 588.732477 391.789837 
L 589.251095 392.198826 
L 589.769712 392.274958 
L 590.28833 391.904921 
L 590.806947 390.215849 
L 591.325565 392.636143 
L 591.844182 393.149593 
L 592.3628 393.339038 
L 592.881417 393.330185 
L 593.918652 395.973565 
L 594.955887 395.661954 
L 595.474505 394.132229 
L 595.993122 394.672236 
L 596.51174 394.03308 
L 597.030357 394.390724 
L 597.548975 394.187115 
L 598.067592 395.566347 
L 598.58621 396.19665 
L 599.104827 395.19985 
L 599.623445 393.278841 
L 600.142062 393.457663 
L 600.66068 396.396718 
L 601.179297 396.764986 
L 601.697915 396.051468 
L 602.73515 393.771044 
L 603.253767 396.331209 
L 603.772385 395.20162 
L 604.291002 395.515002 
L 604.80962 394.362396 
L 605.328237 398.809931 
L 605.846854 395.798284 
L 606.365472 396.008975 
L 606.884089 395.860252 
L 607.402707 393.229266 
L 607.921324 396.320586 
L 608.439942 394.498726 
L 608.958559 393.454122 
L 609.477177 389.994534 
L 610.514412 391.350749 
L 611.033029 391.331273 
L 611.551647 388.88088 
L 612.070264 387.423746 
L 612.588882 390.198144 
L 613.107499 389.643972 
L 613.626117 388.422317 
L 614.144734 385.943595 
L 614.663352 385.072501 
L 615.181969 386.288845 
L 615.700587 385.716969 
L 616.219204 384.065078 
L 616.737822 383.039949 
L 617.256439 383.579957 
L 617.775057 384.907843 
L 618.812292 385.058337 
L 619.330909 384.608626 
L 619.330909 384.608626 
" style="fill:none;stroke:#1f77b4;stroke-linecap:square;stroke-width:1.5;"/>
   </g>
   <g id="patch_3">
    <path d="M 108 448.56 
L 108 60.48 
" style="fill:none;stroke:#000000;stroke-linecap:square;stroke-linejoin:miter;stroke-width:0.8;"/>
   </g>
   <g id="patch_4">
    <path d="M 643.68 448.56 
L 643.68 60.48 
" style="fill:none;stroke:#000000;stroke-linecap:square;stroke-linejoin:miter;stroke-width:0.8;"/>
   </g>
   <g id="patch_5">
    <path d="M 108 448.56 
L 643.68 448.56 
" style="fill:none;stroke:#000000;stroke-linecap:square;stroke-linejoin:miter;stroke-width:0.8;"/>
   </g>
   <g id="patch_6">
    <path d="M 108 60.48 
L 643.68 60.48 
" style="fill:none;stroke:#000000;stroke-linecap:square;stroke-linejoin:miter;stroke-width:0.8;"/>
   </g>
   <g id="text_32">
    <!-- unikernel_fbuddyalloc - vmstat -->
    <g transform="translate(260.216953 54.48)scale(0.15 -0.15)">
     <defs>
      <path d="M 8.5 21.578125 
L 8.5 54.6875 
L 17.484375 54.6875 
L 17.484375 21.921875 
Q 17.484375 14.15625 20.5 10.265625 
Q 23.53125 6.390625 29.59375 6.390625 
Q 36.859375 6.390625 41.078125 11.03125 
Q 45.3125 15.671875 45.3125 23.6875 
L 45.3125 54.6875 
L 54.296875 54.6875 
L 54.296875 0 
L 45.3125 0 
L 45.3125 8.40625 
Q 42.046875 3.421875 37.71875 1 
Q 33.40625 -1.421875 27.6875 -1.421875 
Q 18.265625 -1.421875 13.375 4.4375 
Q 8.5 10.296875 8.5 21.578125 
z
M 31.109375 56 
z
" id="DejaVuSans-117"/>
      <path d="M 54.890625 33.015625 
L 54.890625 0 
L 45.90625 0 
L 45.90625 32.71875 
Q 45.90625 40.484375 42.875 44.328125 
Q 39.84375 48.1875 33.796875 48.1875 
Q 26.515625 48.1875 22.3125 43.546875 
Q 18.109375 38.921875 18.109375 30.90625 
L 18.109375 0 
L 9.078125 0 
L 9.078125 54.6875 
L 18.109375 54.6875 
L 18.109375 46.1875 
Q 21.34375 51.125 25.703125 53.5625 
Q 30.078125 56 35.796875 56 
Q 45.21875 56 50.046875 50.171875 
Q 54.890625 44.34375 54.890625 33.015625 
z
" id="DejaVuSans-110"/>
      <path d="M 9.078125 75.984375 
L 18.109375 75.984375 
L 18.109375 31.109375 
L 44.921875 54.6875 
L 56.390625 54.6875 
L 27.390625 29.109375 
L 57.625 0 
L 45.90625 0 
L 18.109375 26.703125 
L 18.109375 0 
L 9.078125 0 
z
" id="DejaVuSans-107"/>
      <path d="M 41.109375 46.296875 
Q 39.59375 47.171875 37.8125 47.578125 
Q 36.03125 48 33.890625 48 
Q 26.265625 48 22.1875 43.046875 
Q 18.109375 38.09375 18.109375 28.8125 
L 18.109375 0 
L 9.078125 0 
L 9.078125 54.6875 
L 18.109375 54.6875 
L 18.109375 46.1875 
Q 20.953125 51.171875 25.484375 53.578125 
Q 30.03125 56 36.53125 56 
Q 37.453125 56 38.578125 55.875 
Q 39.703125 55.765625 41.0625 55.515625 
z
" id="DejaVuSans-114"/>
      <path d="M 9.421875 75.984375 
L 18.40625 75.984375 
L 18.40625 0 
L 9.421875 0 
z
" id="DejaVuSans-108"/>
      <path d="M 50.984375 -16.609375 
L 50.984375 -23.578125 
L -0.984375 -23.578125 
L -0.984375 -16.609375 
z
" id="DejaVuSans-95"/>
      <path d="M 37.109375 75.984375 
L 37.109375 68.5 
L 28.515625 68.5 
Q 23.6875 68.5 21.796875 66.546875 
Q 19.921875 64.59375 19.921875 59.515625 
L 19.921875 54.6875 
L 34.71875 54.6875 
L 34.71875 47.703125 
L 19.921875 47.703125 
L 19.921875 0 
L 10.890625 0 
L 10.890625 47.703125 
L 2.296875 47.703125 
L 2.296875 54.6875 
L 10.890625 54.6875 
L 10.890625 58.5 
Q 10.890625 67.625 15.140625 71.796875 
Q 19.390625 75.984375 28.609375 75.984375 
z
" id="DejaVuSans-102"/>
      <path d="M 48.6875 27.296875 
Q 48.6875 37.203125 44.609375 42.84375 
Q 40.53125 48.484375 33.40625 48.484375 
Q 26.265625 48.484375 22.1875 42.84375 
Q 18.109375 37.203125 18.109375 27.296875 
Q 18.109375 17.390625 22.1875 11.75 
Q 26.265625 6.109375 33.40625 6.109375 
Q 40.53125 6.109375 44.609375 11.75 
Q 48.6875 17.390625 48.6875 27.296875 
z
M 18.109375 46.390625 
Q 20.953125 51.265625 25.265625 53.625 
Q 29.59375 56 35.59375 56 
Q 45.5625 56 51.78125 48.09375 
Q 58.015625 40.1875 58.015625 27.296875 
Q 58.015625 14.40625 51.78125 6.484375 
Q 45.5625 -1.421875 35.59375 -1.421875 
Q 29.59375 -1.421875 25.265625 0.953125 
Q 20.953125 3.328125 18.109375 8.203125 
L 18.109375 0 
L 9.078125 0 
L 9.078125 75.984375 
L 18.109375 75.984375 
z
" id="DejaVuSans-98"/>
      <path d="M 45.40625 46.390625 
L 45.40625 75.984375 
L 54.390625 75.984375 
L 54.390625 0 
L 45.40625 0 
L 45.40625 8.203125 
Q 42.578125 3.328125 38.25 0.953125 
Q 33.9375 -1.421875 27.875 -1.421875 
Q 17.96875 -1.421875 11.734375 6.484375 
Q 5.515625 14.40625 5.515625 27.296875 
Q 5.515625 40.1875 11.734375 48.09375 
Q 17.96875 56 27.875 56 
Q 33.9375 56 38.25 53.625 
Q 42.578125 51.265625 45.40625 46.390625 
z
M 14.796875 27.296875 
Q 14.796875 17.390625 18.875 11.75 
Q 22.953125 6.109375 30.078125 6.109375 
Q 37.203125 6.109375 41.296875 11.75 
Q 45.40625 17.390625 45.40625 27.296875 
Q 45.40625 37.203125 41.296875 42.84375 
Q 37.203125 48.484375 30.078125 48.484375 
Q 22.953125 48.484375 18.875 42.84375 
Q 14.796875 37.203125 14.796875 27.296875 
z
" id="DejaVuSans-100"/>
      <path d="M 32.171875 -5.078125 
Q 28.375 -14.84375 24.75 -17.8125 
Q 21.140625 -20.796875 15.09375 -20.796875 
L 7.90625 -20.796875 
L 7.90625 -13.28125 
L 13.1875 -13.28125 
Q 16.890625 -13.28125 18.9375 -11.515625 
Q 21 -9.765625 23.484375 -3.21875 
L 25.09375 0.875 
L 2.984375 54.6875 
L 12.5 54.6875 
L 29.59375 11.921875 
L 46.6875 54.6875 
L 56.203125 54.6875 
z
" id="DejaVuSans-121"/>
      <path d="M 30.609375 48.390625 
Q 23.390625 48.390625 19.1875 42.75 
Q 14.984375 37.109375 14.984375 27.296875 
Q 14.984375 17.484375 19.15625 11.84375 
Q 23.34375 6.203125 30.609375 6.203125 
Q 37.796875 6.203125 41.984375 11.859375 
Q 46.1875 17.53125 46.1875 27.296875 
Q 46.1875 37.015625 41.984375 42.703125 
Q 37.796875 48.390625 30.609375 48.390625 
z
M 30.609375 56 
Q 42.328125 56 49.015625 48.375 
Q 55.71875 40.765625 55.71875 27.296875 
Q 55.71875 13.875 49.015625 6.21875 
Q 42.328125 -1.421875 30.609375 -1.421875 
Q 18.84375 -1.421875 12.171875 6.21875 
Q 5.515625 13.875 5.515625 27.296875 
Q 5.515625 40.765625 12.171875 48.375 
Q 18.84375 56 30.609375 56 
z
" id="DejaVuSans-111"/>
      <path d="M 48.78125 52.59375 
L 48.78125 44.1875 
Q 44.96875 46.296875 41.140625 47.34375 
Q 37.3125 48.390625 33.40625 48.390625 
Q 24.65625 48.390625 19.8125 42.84375 
Q 14.984375 37.3125 14.984375 27.296875 
Q 14.984375 17.28125 19.8125 11.734375 
Q 24.65625 6.203125 33.40625 6.203125 
Q 37.3125 6.203125 41.140625 7.25 
Q 44.96875 8.296875 48.78125 10.40625 
L 48.78125 2.09375 
Q 45.015625 0.34375 40.984375 -0.53125 
Q 36.96875 -1.421875 32.421875 -1.421875 
Q 20.0625 -1.421875 12.78125 6.34375 
Q 5.515625 14.109375 5.515625 27.296875 
Q 5.515625 40.671875 12.859375 48.328125 
Q 20.21875 56 33.015625 56 
Q 37.15625 56 41.109375 55.140625 
Q 45.0625 54.296875 48.78125 52.59375 
z
" id="DejaVuSans-99"/>
      <path id="DejaVuSans-32"/>
      <path d="M 4.890625 31.390625 
L 31.203125 31.390625 
L 31.203125 23.390625 
L 4.890625 23.390625 
z
" id="DejaVuSans-45"/>
      <path d="M 2.984375 54.6875 
L 12.5 54.6875 
L 29.59375 8.796875 
L 46.6875 54.6875 
L 56.203125 54.6875 
L 35.6875 0 
L 23.484375 0 
z
" id="DejaVuSans-118"/>
     </defs>
     <use xlink:href="#DejaVuSans-117"/>
     <use x="63.378906" xlink:href="#DejaVuSans-110"/>
     <use x="126.757812" xlink:href="#DejaVuSans-105"/>
     <use x="154.541016" xlink:href="#DejaVuSans-107"/>
     <use x="208.826172" xlink:href="#DejaVuSans-101"/>
     <use x="270.349609" xlink:href="#DejaVuSans-114"/>
     <use x="309.712891" xlink:href="#DejaVuSans-110"/>
     <use x="373.091797" xlink:href="#DejaVuSans-101"/>
     <use x="434.615234" xlink:href="#DejaVuSans-108"/>
     <use x="462.398438" xlink:href="#DejaVuSans-95"/>
     <use x="512.398438" xlink:href="#DejaVuSans-102"/>
     <use x="547.603516" xlink:href="#DejaVuSans-98"/>
     <use x="611.080078" xlink:href="#DejaVuSans-117"/>
     <use x="674.458984" xlink:href="#DejaVuSans-100"/>
     <use x="737.935547" xlink:href="#DejaVuSans-100"/>
     <use x="801.412109" xlink:href="#DejaVuSans-121"/>
     <use x="860.591797" xlink:href="#DejaVuSans-97"/>
     <use x="921.871094" xlink:href="#DejaVuSans-108"/>
     <use x="949.654297" xlink:href="#DejaVuSans-108"/>
     <use x="977.4375" xlink:href="#DejaVuSans-111"/>
     <use x="1038.619141" xlink:href="#DejaVuSans-99"/>
     <use x="1093.599609" xlink:href="#DejaVuSans-32"/>
     <use x="1125.386719" xlink:href="#DejaVuSans-45"/>
     <use x="1161.470703" xlink:href="#DejaVuSans-32"/>
     <use x="1193.257812" xlink:href="#DejaVuSans-118"/>
     <use x="1252.4375" xlink:href="#DejaVuSans-109"/>
     <use x="1349.849609" xlink:href="#DejaVuSans-115"/>
     <use x="1401.949219" xlink:href="#DejaVuSans-116"/>
     <use x="1441.158203" xlink:href="#DejaVuSans-97"/>
     <use x="1502.4375" xlink:href="#DejaVuSans-116"/>
    </g>
   </g>
   <g id="legend_1">
    <g id="patch_7">
     <path d="M 650.68 258.52 
L 654.68 258.52 
Q 656.68 258.52 656.68 256.52 
L 656.68 252.52 
Q 656.68 250.52 654.68 250.52 
L 650.68 250.52 
Q 648.68 250.52 648.68 252.52 
L 648.68 256.52 
Q 648.68 258.52 650.68 258.52 
z
" style="fill:#ffffff;opacity:0.8;stroke:#cccccc;stroke-linejoin:miter;"/>
    </g>
   </g>
  </g>
 </g>
 <defs>
  <clipPath id="p183dd892f9">
   <rect height="388.08" width="535.68" x="108" y="60.48"/>
  </clipPath>
 </defs>
</svg>
