<?xml version="1.0" encoding="utf-8" standalone="no"?>
<!DOCTYPE svg PUBLIC "-//W3C//DTD SVG 1.1//EN"
  "http://www.w3.org/Graphics/SVG/1.1/DTD/svg11.dtd">
<!-- Created with matplotlib (https://matplotlib.org/) -->
<svg height="504pt" version="1.1" viewBox="0 0 864 504" width="864pt" xmlns="http://www.w3.org/2000/svg" xmlns:xlink="http://www.w3.org/1999/xlink">
 <metadata>
  <rdf:RDF xmlns:cc="http://creativecommons.org/ns#" xmlns:dc="http://purl.org/dc/elements/1.1/" xmlns:rdf="http://www.w3.org/1999/02/22-rdf-syntax-ns#">
   <cc:Work>
    <dc:type rdf:resource="http://purl.org/dc/dcmitype/StillImage"/>
    <dc:date>2022-05-29T17:24:05.050450</dc:date>
    <dc:format>image/svg+xml</dc:format>
    <dc:creator>
     <cc:Agent>
      <dc:title>Matplotlib v3.3.4, https://matplotlib.org/</dc:title>
     </cc:Agent>
    </dc:creator>
   </cc:Work>
  </rdf:RDF>
 </metadata>
 <defs>
  <style type="text/css">*{stroke-linecap:butt;stroke-linejoin:round;}</style>
 </defs>
 <g id="figure_1">
  <g id="patch_1">
   <path d="M 0 504 
L 864 504 
L 864 0 
L 0 0 
z
" style="fill:#ffffff;"/>
  </g>
  <g id="axes_1">
   <g id="patch_2">
    <path d="M 108 448.56 
L 643.68 448.56 
L 643.68 60.48 
L 108 60.48 
z
" style="fill:#ffffff;"/>
   </g>
   <g id="matplotlib.axis_1">
    <g id="xtick_1">
     <g id="line2d_1">
      <defs>
       <path d="M 0 0 
L 0 3.5 
" id="m83cfe06e13" style="stroke:#000000;stroke-width:0.8;"/>
      </defs>
      <g>
       <use style="stroke:#000000;stroke-width:0.8;" x="132.349091" xlink:href="#m83cfe06e13" y="448.56"/>
      </g>
     </g>
     <g id="text_1">
      <!-- 13:05:53 -->
      <g transform="translate(135.108466 500.4725)rotate(-90)scale(0.1 -0.1)">
       <defs>
        <path d="M 12.40625 8.296875 
L 28.515625 8.296875 
L 28.515625 63.921875 
L 10.984375 60.40625 
L 10.984375 69.390625 
L 28.421875 72.90625 
L 38.28125 72.90625 
L 38.28125 8.296875 
L 54.390625 8.296875 
L 54.390625 0 
L 12.40625 0 
z
" id="DejaVuSans-49"/>
        <path d="M 40.578125 39.3125 
Q 47.65625 37.796875 51.625 33 
Q 55.609375 28.21875 55.609375 21.1875 
Q 55.609375 10.40625 48.1875 4.484375 
Q 40.765625 -1.421875 27.09375 -1.421875 
Q 22.515625 -1.421875 17.65625 -0.515625 
Q 12.796875 0.390625 7.625 2.203125 
L 7.625 11.71875 
Q 11.71875 9.328125 16.59375 8.109375 
Q 21.484375 6.890625 26.8125 6.890625 
Q 36.078125 6.890625 40.9375 10.546875 
Q 45.796875 14.203125 45.796875 21.1875 
Q 45.796875 27.640625 41.28125 31.265625 
Q 36.765625 34.90625 28.71875 34.90625 
L 20.21875 34.90625 
L 20.21875 43.015625 
L 29.109375 43.015625 
Q 36.375 43.015625 40.234375 45.921875 
Q 44.09375 48.828125 44.09375 54.296875 
Q 44.09375 59.90625 40.109375 62.90625 
Q 36.140625 65.921875 28.71875 65.921875 
Q 24.65625 65.921875 20.015625 65.03125 
Q 15.375 64.15625 9.8125 62.3125 
L 9.8125 71.09375 
Q 15.4375 72.65625 20.34375 73.4375 
Q 25.25 74.21875 29.59375 74.21875 
Q 40.828125 74.21875 47.359375 69.109375 
Q 53.90625 64.015625 53.90625 55.328125 
Q 53.90625 49.265625 50.4375 45.09375 
Q 46.96875 40.921875 40.578125 39.3125 
z
" id="DejaVuSans-51"/>
        <path d="M 11.71875 12.40625 
L 22.015625 12.40625 
L 22.015625 0 
L 11.71875 0 
z
M 11.71875 51.703125 
L 22.015625 51.703125 
L 22.015625 39.3125 
L 11.71875 39.3125 
z
" id="DejaVuSans-58"/>
        <path d="M 31.78125 66.40625 
Q 24.171875 66.40625 20.328125 58.90625 
Q 16.5 51.421875 16.5 36.375 
Q 16.5 21.390625 20.328125 13.890625 
Q 24.171875 6.390625 31.78125 6.390625 
Q 39.453125 6.390625 43.28125 13.890625 
Q 47.125 21.390625 47.125 36.375 
Q 47.125 51.421875 43.28125 58.90625 
Q 39.453125 66.40625 31.78125 66.40625 
z
M 31.78125 74.21875 
Q 44.046875 74.21875 50.515625 64.515625 
Q 56.984375 54.828125 56.984375 36.375 
Q 56.984375 17.96875 50.515625 8.265625 
Q 44.046875 -1.421875 31.78125 -1.421875 
Q 19.53125 -1.421875 13.0625 8.265625 
Q 6.59375 17.96875 6.59375 36.375 
Q 6.59375 54.828125 13.0625 64.515625 
Q 19.53125 74.21875 31.78125 74.21875 
z
" id="DejaVuSans-48"/>
        <path d="M 10.796875 72.90625 
L 49.515625 72.90625 
L 49.515625 64.59375 
L 19.828125 64.59375 
L 19.828125 46.734375 
Q 21.96875 47.46875 24.109375 47.828125 
Q 26.265625 48.1875 28.421875 48.1875 
Q 40.625 48.1875 47.75 41.5 
Q 54.890625 34.8125 54.890625 23.390625 
Q 54.890625 11.625 47.5625 5.09375 
Q 40.234375 -1.421875 26.90625 -1.421875 
Q 22.3125 -1.421875 17.546875 -0.640625 
Q 12.796875 0.140625 7.71875 1.703125 
L 7.71875 11.625 
Q 12.109375 9.234375 16.796875 8.0625 
Q 21.484375 6.890625 26.703125 6.890625 
Q 35.15625 6.890625 40.078125 11.328125 
Q 45.015625 15.765625 45.015625 23.390625 
Q 45.015625 31 40.078125 35.4375 
Q 35.15625 39.890625 26.703125 39.890625 
Q 22.75 39.890625 18.8125 39.015625 
Q 14.890625 38.140625 10.796875 36.28125 
z
" id="DejaVuSans-53"/>
       </defs>
       <use xlink:href="#DejaVuSans-49"/>
       <use x="63.623047" xlink:href="#DejaVuSans-51"/>
       <use x="127.246094" xlink:href="#DejaVuSans-58"/>
       <use x="160.9375" xlink:href="#DejaVuSans-48"/>
       <use x="224.560547" xlink:href="#DejaVuSans-53"/>
       <use x="288.183594" xlink:href="#DejaVuSans-58"/>
       <use x="321.875" xlink:href="#DejaVuSans-53"/>
       <use x="385.498047" xlink:href="#DejaVuSans-51"/>
      </g>
     </g>
    </g>
    <g id="xtick_2">
     <g id="line2d_2">
      <g>
       <use style="stroke:#000000;stroke-width:0.8;" x="156.623871" xlink:href="#m83cfe06e13" y="448.56"/>
      </g>
     </g>
     <g id="text_2">
      <!-- 13:06:45 -->
      <g transform="translate(159.383246 500.4725)rotate(-90)scale(0.1 -0.1)">
       <defs>
        <path d="M 33.015625 40.375 
Q 26.375 40.375 22.484375 35.828125 
Q 18.609375 31.296875 18.609375 23.390625 
Q 18.609375 15.53125 22.484375 10.953125 
Q 26.375 6.390625 33.015625 6.390625 
Q 39.65625 6.390625 43.53125 10.953125 
Q 47.40625 15.53125 47.40625 23.390625 
Q 47.40625 31.296875 43.53125 35.828125 
Q 39.65625 40.375 33.015625 40.375 
z
M 52.59375 71.296875 
L 52.59375 62.3125 
Q 48.875 64.0625 45.09375 64.984375 
Q 41.3125 65.921875 37.59375 65.921875 
Q 27.828125 65.921875 22.671875 59.328125 
Q 17.53125 52.734375 16.796875 39.40625 
Q 19.671875 43.65625 24.015625 45.921875 
Q 28.375 48.1875 33.59375 48.1875 
Q 44.578125 48.1875 50.953125 41.515625 
Q 57.328125 34.859375 57.328125 23.390625 
Q 57.328125 12.15625 50.6875 5.359375 
Q 44.046875 -1.421875 33.015625 -1.421875 
Q 20.359375 -1.421875 13.671875 8.265625 
Q 6.984375 17.96875 6.984375 36.375 
Q 6.984375 53.65625 15.1875 63.9375 
Q 23.390625 74.21875 37.203125 74.21875 
Q 40.921875 74.21875 44.703125 73.484375 
Q 48.484375 72.75 52.59375 71.296875 
z
" id="DejaVuSans-54"/>
        <path d="M 37.796875 64.3125 
L 12.890625 25.390625 
L 37.796875 25.390625 
z
M 35.203125 72.90625 
L 47.609375 72.90625 
L 47.609375 25.390625 
L 58.015625 25.390625 
L 58.015625 17.1875 
L 47.609375 17.1875 
L 47.609375 0 
L 37.796875 0 
L 37.796875 17.1875 
L 4.890625 17.1875 
L 4.890625 26.703125 
z
" id="DejaVuSans-52"/>
       </defs>
       <use xlink:href="#DejaVuSans-49"/>
       <use x="63.623047" xlink:href="#DejaVuSans-51"/>
       <use x="127.246094" xlink:href="#DejaVuSans-58"/>
       <use x="160.9375" xlink:href="#DejaVuSans-48"/>
       <use x="224.560547" xlink:href="#DejaVuSans-54"/>
       <use x="288.183594" xlink:href="#DejaVuSans-58"/>
       <use x="321.875" xlink:href="#DejaVuSans-52"/>
       <use x="385.498047" xlink:href="#DejaVuSans-53"/>
      </g>
     </g>
    </g>
    <g id="xtick_3">
     <g id="line2d_3">
      <g>
       <use style="stroke:#000000;stroke-width:0.8;" x="180.898652" xlink:href="#m83cfe06e13" y="448.56"/>
      </g>
     </g>
     <g id="text_3">
      <!-- 13:07:37 -->
      <g transform="translate(183.658027 500.4725)rotate(-90)scale(0.1 -0.1)">
       <defs>
        <path d="M 8.203125 72.90625 
L 55.078125 72.90625 
L 55.078125 68.703125 
L 28.609375 0 
L 18.3125 0 
L 43.21875 64.59375 
L 8.203125 64.59375 
z
" id="DejaVuSans-55"/>
       </defs>
       <use xlink:href="#DejaVuSans-49"/>
       <use x="63.623047" xlink:href="#DejaVuSans-51"/>
       <use x="127.246094" xlink:href="#DejaVuSans-58"/>
       <use x="160.9375" xlink:href="#DejaVuSans-48"/>
       <use x="224.560547" xlink:href="#DejaVuSans-55"/>
       <use x="288.183594" xlink:href="#DejaVuSans-58"/>
       <use x="321.875" xlink:href="#DejaVuSans-51"/>
       <use x="385.498047" xlink:href="#DejaVuSans-55"/>
      </g>
     </g>
    </g>
    <g id="xtick_4">
     <g id="line2d_4">
      <g>
       <use style="stroke:#000000;stroke-width:0.8;" x="205.173432" xlink:href="#m83cfe06e13" y="448.56"/>
      </g>
     </g>
     <g id="text_4">
      <!-- 13:08:29 -->
      <g transform="translate(207.932807 500.4725)rotate(-90)scale(0.1 -0.1)">
       <defs>
        <path d="M 31.78125 34.625 
Q 24.75 34.625 20.71875 30.859375 
Q 16.703125 27.09375 16.703125 20.515625 
Q 16.703125 13.921875 20.71875 10.15625 
Q 24.75 6.390625 31.78125 6.390625 
Q 38.8125 6.390625 42.859375 10.171875 
Q 46.921875 13.96875 46.921875 20.515625 
Q 46.921875 27.09375 42.890625 30.859375 
Q 38.875 34.625 31.78125 34.625 
z
M 21.921875 38.8125 
Q 15.578125 40.375 12.03125 44.71875 
Q 8.5 49.078125 8.5 55.328125 
Q 8.5 64.0625 14.71875 69.140625 
Q 20.953125 74.21875 31.78125 74.21875 
Q 42.671875 74.21875 48.875 69.140625 
Q 55.078125 64.0625 55.078125 55.328125 
Q 55.078125 49.078125 51.53125 44.71875 
Q 48 40.375 41.703125 38.8125 
Q 48.828125 37.15625 52.796875 32.3125 
Q 56.78125 27.484375 56.78125 20.515625 
Q 56.78125 9.90625 50.3125 4.234375 
Q 43.84375 -1.421875 31.78125 -1.421875 
Q 19.734375 -1.421875 13.25 4.234375 
Q 6.78125 9.90625 6.78125 20.515625 
Q 6.78125 27.484375 10.78125 32.3125 
Q 14.796875 37.15625 21.921875 38.8125 
z
M 18.3125 54.390625 
Q 18.3125 48.734375 21.84375 45.5625 
Q 25.390625 42.390625 31.78125 42.390625 
Q 38.140625 42.390625 41.71875 45.5625 
Q 45.3125 48.734375 45.3125 54.390625 
Q 45.3125 60.0625 41.71875 63.234375 
Q 38.140625 66.40625 31.78125 66.40625 
Q 25.390625 66.40625 21.84375 63.234375 
Q 18.3125 60.0625 18.3125 54.390625 
z
" id="DejaVuSans-56"/>
        <path d="M 19.1875 8.296875 
L 53.609375 8.296875 
L 53.609375 0 
L 7.328125 0 
L 7.328125 8.296875 
Q 12.9375 14.109375 22.625 23.890625 
Q 32.328125 33.6875 34.8125 36.53125 
Q 39.546875 41.84375 41.421875 45.53125 
Q 43.3125 49.21875 43.3125 52.78125 
Q 43.3125 58.59375 39.234375 62.25 
Q 35.15625 65.921875 28.609375 65.921875 
Q 23.96875 65.921875 18.8125 64.3125 
Q 13.671875 62.703125 7.8125 59.421875 
L 7.8125 69.390625 
Q 13.765625 71.78125 18.9375 73 
Q 24.125 74.21875 28.421875 74.21875 
Q 39.75 74.21875 46.484375 68.546875 
Q 53.21875 62.890625 53.21875 53.421875 
Q 53.21875 48.921875 51.53125 44.890625 
Q 49.859375 40.875 45.40625 35.40625 
Q 44.1875 33.984375 37.640625 27.21875 
Q 31.109375 20.453125 19.1875 8.296875 
z
" id="DejaVuSans-50"/>
        <path d="M 10.984375 1.515625 
L 10.984375 10.5 
Q 14.703125 8.734375 18.5 7.8125 
Q 22.3125 6.890625 25.984375 6.890625 
Q 35.75 6.890625 40.890625 13.453125 
Q 46.046875 20.015625 46.78125 33.40625 
Q 43.953125 29.203125 39.59375 26.953125 
Q 35.25 24.703125 29.984375 24.703125 
Q 19.046875 24.703125 12.671875 31.3125 
Q 6.296875 37.9375 6.296875 49.421875 
Q 6.296875 60.640625 12.9375 67.421875 
Q 19.578125 74.21875 30.609375 74.21875 
Q 43.265625 74.21875 49.921875 64.515625 
Q 56.59375 54.828125 56.59375 36.375 
Q 56.59375 19.140625 48.40625 8.859375 
Q 40.234375 -1.421875 26.421875 -1.421875 
Q 22.703125 -1.421875 18.890625 -0.6875 
Q 15.09375 0.046875 10.984375 1.515625 
z
M 30.609375 32.421875 
Q 37.25 32.421875 41.125 36.953125 
Q 45.015625 41.5 45.015625 49.421875 
Q 45.015625 57.28125 41.125 61.84375 
Q 37.25 66.40625 30.609375 66.40625 
Q 23.96875 66.40625 20.09375 61.84375 
Q 16.21875 57.28125 16.21875 49.421875 
Q 16.21875 41.5 20.09375 36.953125 
Q 23.96875 32.421875 30.609375 32.421875 
z
" id="DejaVuSans-57"/>
       </defs>
       <use xlink:href="#DejaVuSans-49"/>
       <use x="63.623047" xlink:href="#DejaVuSans-51"/>
       <use x="127.246094" xlink:href="#DejaVuSans-58"/>
       <use x="160.9375" xlink:href="#DejaVuSans-48"/>
       <use x="224.560547" xlink:href="#DejaVuSans-56"/>
       <use x="288.183594" xlink:href="#DejaVuSans-58"/>
       <use x="321.875" xlink:href="#DejaVuSans-50"/>
       <use x="385.498047" xlink:href="#DejaVuSans-57"/>
      </g>
     </g>
    </g>
    <g id="xtick_5">
     <g id="line2d_5">
      <g>
       <use style="stroke:#000000;stroke-width:0.8;" x="229.448212" xlink:href="#m83cfe06e13" y="448.56"/>
      </g>
     </g>
     <g id="text_5">
      <!-- 13:09:20 -->
      <g transform="translate(232.207587 500.4725)rotate(-90)scale(0.1 -0.1)">
       <use xlink:href="#DejaVuSans-49"/>
       <use x="63.623047" xlink:href="#DejaVuSans-51"/>
       <use x="127.246094" xlink:href="#DejaVuSans-58"/>
       <use x="160.9375" xlink:href="#DejaVuSans-48"/>
       <use x="224.560547" xlink:href="#DejaVuSans-57"/>
       <use x="288.183594" xlink:href="#DejaVuSans-58"/>
       <use x="321.875" xlink:href="#DejaVuSans-50"/>
       <use x="385.498047" xlink:href="#DejaVuSans-48"/>
      </g>
     </g>
    </g>
    <g id="xtick_6">
     <g id="line2d_6">
      <g>
       <use style="stroke:#000000;stroke-width:0.8;" x="253.722993" xlink:href="#m83cfe06e13" y="448.56"/>
      </g>
     </g>
     <g id="text_6">
      <!-- 13:10:12 -->
      <g transform="translate(256.482368 500.4725)rotate(-90)scale(0.1 -0.1)">
       <use xlink:href="#DejaVuSans-49"/>
       <use x="63.623047" xlink:href="#DejaVuSans-51"/>
       <use x="127.246094" xlink:href="#DejaVuSans-58"/>
       <use x="160.9375" xlink:href="#DejaVuSans-49"/>
       <use x="224.560547" xlink:href="#DejaVuSans-48"/>
       <use x="288.183594" xlink:href="#DejaVuSans-58"/>
       <use x="321.875" xlink:href="#DejaVuSans-49"/>
       <use x="385.498047" xlink:href="#DejaVuSans-50"/>
      </g>
     </g>
    </g>
    <g id="xtick_7">
     <g id="line2d_7">
      <g>
       <use style="stroke:#000000;stroke-width:0.8;" x="277.997773" xlink:href="#m83cfe06e13" y="448.56"/>
      </g>
     </g>
     <g id="text_7">
      <!-- 13:11:04 -->
      <g transform="translate(280.757148 500.4725)rotate(-90)scale(0.1 -0.1)">
       <use xlink:href="#DejaVuSans-49"/>
       <use x="63.623047" xlink:href="#DejaVuSans-51"/>
       <use x="127.246094" xlink:href="#DejaVuSans-58"/>
       <use x="160.9375" xlink:href="#DejaVuSans-49"/>
       <use x="224.560547" xlink:href="#DejaVuSans-49"/>
       <use x="288.183594" xlink:href="#DejaVuSans-58"/>
       <use x="321.875" xlink:href="#DejaVuSans-48"/>
       <use x="385.498047" xlink:href="#DejaVuSans-52"/>
      </g>
     </g>
    </g>
    <g id="xtick_8">
     <g id="line2d_8">
      <g>
       <use style="stroke:#000000;stroke-width:0.8;" x="302.272553" xlink:href="#m83cfe06e13" y="448.56"/>
      </g>
     </g>
     <g id="text_8">
      <!-- 13:11:55 -->
      <g transform="translate(305.031928 500.4725)rotate(-90)scale(0.1 -0.1)">
       <use xlink:href="#DejaVuSans-49"/>
       <use x="63.623047" xlink:href="#DejaVuSans-51"/>
       <use x="127.246094" xlink:href="#DejaVuSans-58"/>
       <use x="160.9375" xlink:href="#DejaVuSans-49"/>
       <use x="224.560547" xlink:href="#DejaVuSans-49"/>
       <use x="288.183594" xlink:href="#DejaVuSans-58"/>
       <use x="321.875" xlink:href="#DejaVuSans-53"/>
       <use x="385.498047" xlink:href="#DejaVuSans-53"/>
      </g>
     </g>
    </g>
    <g id="xtick_9">
     <g id="line2d_9">
      <g>
       <use style="stroke:#000000;stroke-width:0.8;" x="326.547334" xlink:href="#m83cfe06e13" y="448.56"/>
      </g>
     </g>
     <g id="text_9">
      <!-- 13:12:47 -->
      <g transform="translate(329.306709 500.4725)rotate(-90)scale(0.1 -0.1)">
       <use xlink:href="#DejaVuSans-49"/>
       <use x="63.623047" xlink:href="#DejaVuSans-51"/>
       <use x="127.246094" xlink:href="#DejaVuSans-58"/>
       <use x="160.9375" xlink:href="#DejaVuSans-49"/>
       <use x="224.560547" xlink:href="#DejaVuSans-50"/>
       <use x="288.183594" xlink:href="#DejaVuSans-58"/>
       <use x="321.875" xlink:href="#DejaVuSans-52"/>
       <use x="385.498047" xlink:href="#DejaVuSans-55"/>
      </g>
     </g>
    </g>
    <g id="xtick_10">
     <g id="line2d_10">
      <g>
       <use style="stroke:#000000;stroke-width:0.8;" x="350.822114" xlink:href="#m83cfe06e13" y="448.56"/>
      </g>
     </g>
     <g id="text_10">
      <!-- 13:13:39 -->
      <g transform="translate(353.581489 500.4725)rotate(-90)scale(0.1 -0.1)">
       <use xlink:href="#DejaVuSans-49"/>
       <use x="63.623047" xlink:href="#DejaVuSans-51"/>
       <use x="127.246094" xlink:href="#DejaVuSans-58"/>
       <use x="160.9375" xlink:href="#DejaVuSans-49"/>
       <use x="224.560547" xlink:href="#DejaVuSans-51"/>
       <use x="288.183594" xlink:href="#DejaVuSans-58"/>
       <use x="321.875" xlink:href="#DejaVuSans-51"/>
       <use x="385.498047" xlink:href="#DejaVuSans-57"/>
      </g>
     </g>
    </g>
    <g id="xtick_11">
     <g id="line2d_11">
      <g>
       <use style="stroke:#000000;stroke-width:0.8;" x="375.096894" xlink:href="#m83cfe06e13" y="448.56"/>
      </g>
     </g>
     <g id="text_11">
      <!-- 13:14:31 -->
      <g transform="translate(377.856269 500.4725)rotate(-90)scale(0.1 -0.1)">
       <use xlink:href="#DejaVuSans-49"/>
       <use x="63.623047" xlink:href="#DejaVuSans-51"/>
       <use x="127.246094" xlink:href="#DejaVuSans-58"/>
       <use x="160.9375" xlink:href="#DejaVuSans-49"/>
       <use x="224.560547" xlink:href="#DejaVuSans-52"/>
       <use x="288.183594" xlink:href="#DejaVuSans-58"/>
       <use x="321.875" xlink:href="#DejaVuSans-51"/>
       <use x="385.498047" xlink:href="#DejaVuSans-49"/>
      </g>
     </g>
    </g>
    <g id="xtick_12">
     <g id="line2d_12">
      <g>
       <use style="stroke:#000000;stroke-width:0.8;" x="399.371675" xlink:href="#m83cfe06e13" y="448.56"/>
      </g>
     </g>
     <g id="text_12">
      <!-- 13:15:22 -->
      <g transform="translate(402.13105 500.4725)rotate(-90)scale(0.1 -0.1)">
       <use xlink:href="#DejaVuSans-49"/>
       <use x="63.623047" xlink:href="#DejaVuSans-51"/>
       <use x="127.246094" xlink:href="#DejaVuSans-58"/>
       <use x="160.9375" xlink:href="#DejaVuSans-49"/>
       <use x="224.560547" xlink:href="#DejaVuSans-53"/>
       <use x="288.183594" xlink:href="#DejaVuSans-58"/>
       <use x="321.875" xlink:href="#DejaVuSans-50"/>
       <use x="385.498047" xlink:href="#DejaVuSans-50"/>
      </g>
     </g>
    </g>
    <g id="xtick_13">
     <g id="line2d_13">
      <g>
       <use style="stroke:#000000;stroke-width:0.8;" x="423.646455" xlink:href="#m83cfe06e13" y="448.56"/>
      </g>
     </g>
     <g id="text_13">
      <!-- 13:16:14 -->
      <g transform="translate(426.40583 500.4725)rotate(-90)scale(0.1 -0.1)">
       <use xlink:href="#DejaVuSans-49"/>
       <use x="63.623047" xlink:href="#DejaVuSans-51"/>
       <use x="127.246094" xlink:href="#DejaVuSans-58"/>
       <use x="160.9375" xlink:href="#DejaVuSans-49"/>
       <use x="224.560547" xlink:href="#DejaVuSans-54"/>
       <use x="288.183594" xlink:href="#DejaVuSans-58"/>
       <use x="321.875" xlink:href="#DejaVuSans-49"/>
       <use x="385.498047" xlink:href="#DejaVuSans-52"/>
      </g>
     </g>
    </g>
    <g id="xtick_14">
     <g id="line2d_14">
      <g>
       <use style="stroke:#000000;stroke-width:0.8;" x="447.921236" xlink:href="#m83cfe06e13" y="448.56"/>
      </g>
     </g>
     <g id="text_14">
      <!-- 13:17:06 -->
      <g transform="translate(450.680611 500.4725)rotate(-90)scale(0.1 -0.1)">
       <use xlink:href="#DejaVuSans-49"/>
       <use x="63.623047" xlink:href="#DejaVuSans-51"/>
       <use x="127.246094" xlink:href="#DejaVuSans-58"/>
       <use x="160.9375" xlink:href="#DejaVuSans-49"/>
       <use x="224.560547" xlink:href="#DejaVuSans-55"/>
       <use x="288.183594" xlink:href="#DejaVuSans-58"/>
       <use x="321.875" xlink:href="#DejaVuSans-48"/>
       <use x="385.498047" xlink:href="#DejaVuSans-54"/>
      </g>
     </g>
    </g>
    <g id="xtick_15">
     <g id="line2d_15">
      <g>
       <use style="stroke:#000000;stroke-width:0.8;" x="472.196016" xlink:href="#m83cfe06e13" y="448.56"/>
      </g>
     </g>
     <g id="text_15">
      <!-- 13:17:58 -->
      <g transform="translate(474.955391 500.4725)rotate(-90)scale(0.1 -0.1)">
       <use xlink:href="#DejaVuSans-49"/>
       <use x="63.623047" xlink:href="#DejaVuSans-51"/>
       <use x="127.246094" xlink:href="#DejaVuSans-58"/>
       <use x="160.9375" xlink:href="#DejaVuSans-49"/>
       <use x="224.560547" xlink:href="#DejaVuSans-55"/>
       <use x="288.183594" xlink:href="#DejaVuSans-58"/>
       <use x="321.875" xlink:href="#DejaVuSans-53"/>
       <use x="385.498047" xlink:href="#DejaVuSans-56"/>
      </g>
     </g>
    </g>
    <g id="xtick_16">
     <g id="line2d_16">
      <g>
       <use style="stroke:#000000;stroke-width:0.8;" x="496.470796" xlink:href="#m83cfe06e13" y="448.56"/>
      </g>
     </g>
     <g id="text_16">
      <!-- 13:18:49 -->
      <g transform="translate(499.230171 500.4725)rotate(-90)scale(0.1 -0.1)">
       <use xlink:href="#DejaVuSans-49"/>
       <use x="63.623047" xlink:href="#DejaVuSans-51"/>
       <use x="127.246094" xlink:href="#DejaVuSans-58"/>
       <use x="160.9375" xlink:href="#DejaVuSans-49"/>
       <use x="224.560547" xlink:href="#DejaVuSans-56"/>
       <use x="288.183594" xlink:href="#DejaVuSans-58"/>
       <use x="321.875" xlink:href="#DejaVuSans-52"/>
       <use x="385.498047" xlink:href="#DejaVuSans-57"/>
      </g>
     </g>
    </g>
    <g id="xtick_17">
     <g id="line2d_17">
      <g>
       <use style="stroke:#000000;stroke-width:0.8;" x="520.745577" xlink:href="#m83cfe06e13" y="448.56"/>
      </g>
     </g>
     <g id="text_17">
      <!-- 13:19:41 -->
      <g transform="translate(523.504952 500.4725)rotate(-90)scale(0.1 -0.1)">
       <use xlink:href="#DejaVuSans-49"/>
       <use x="63.623047" xlink:href="#DejaVuSans-51"/>
       <use x="127.246094" xlink:href="#DejaVuSans-58"/>
       <use x="160.9375" xlink:href="#DejaVuSans-49"/>
       <use x="224.560547" xlink:href="#DejaVuSans-57"/>
       <use x="288.183594" xlink:href="#DejaVuSans-58"/>
       <use x="321.875" xlink:href="#DejaVuSans-52"/>
       <use x="385.498047" xlink:href="#DejaVuSans-49"/>
      </g>
     </g>
    </g>
    <g id="xtick_18">
     <g id="line2d_18">
      <g>
       <use style="stroke:#000000;stroke-width:0.8;" x="545.020357" xlink:href="#m83cfe06e13" y="448.56"/>
      </g>
     </g>
     <g id="text_18">
      <!-- 13:20:33 -->
      <g transform="translate(547.779732 500.4725)rotate(-90)scale(0.1 -0.1)">
       <use xlink:href="#DejaVuSans-49"/>
       <use x="63.623047" xlink:href="#DejaVuSans-51"/>
       <use x="127.246094" xlink:href="#DejaVuSans-58"/>
       <use x="160.9375" xlink:href="#DejaVuSans-50"/>
       <use x="224.560547" xlink:href="#DejaVuSans-48"/>
       <use x="288.183594" xlink:href="#DejaVuSans-58"/>
       <use x="321.875" xlink:href="#DejaVuSans-51"/>
       <use x="385.498047" xlink:href="#DejaVuSans-51"/>
      </g>
     </g>
    </g>
    <g id="xtick_19">
     <g id="line2d_19">
      <g>
       <use style="stroke:#000000;stroke-width:0.8;" x="569.295137" xlink:href="#m83cfe06e13" y="448.56"/>
      </g>
     </g>
     <g id="text_19">
      <!-- 13:21:25 -->
      <g transform="translate(572.054512 500.4725)rotate(-90)scale(0.1 -0.1)">
       <use xlink:href="#DejaVuSans-49"/>
       <use x="63.623047" xlink:href="#DejaVuSans-51"/>
       <use x="127.246094" xlink:href="#DejaVuSans-58"/>
       <use x="160.9375" xlink:href="#DejaVuSans-50"/>
       <use x="224.560547" xlink:href="#DejaVuSans-49"/>
       <use x="288.183594" xlink:href="#DejaVuSans-58"/>
       <use x="321.875" xlink:href="#DejaVuSans-50"/>
       <use x="385.498047" xlink:href="#DejaVuSans-53"/>
      </g>
     </g>
    </g>
    <g id="xtick_20">
     <g id="line2d_20">
      <g>
       <use style="stroke:#000000;stroke-width:0.8;" x="593.569918" xlink:href="#m83cfe06e13" y="448.56"/>
      </g>
     </g>
     <g id="text_20">
      <!-- 13:22:17 -->
      <g transform="translate(596.329293 500.4725)rotate(-90)scale(0.1 -0.1)">
       <use xlink:href="#DejaVuSans-49"/>
       <use x="63.623047" xlink:href="#DejaVuSans-51"/>
       <use x="127.246094" xlink:href="#DejaVuSans-58"/>
       <use x="160.9375" xlink:href="#DejaVuSans-50"/>
       <use x="224.560547" xlink:href="#DejaVuSans-50"/>
       <use x="288.183594" xlink:href="#DejaVuSans-58"/>
       <use x="321.875" xlink:href="#DejaVuSans-49"/>
       <use x="385.498047" xlink:href="#DejaVuSans-55"/>
      </g>
     </g>
    </g>
    <g id="xtick_21">
     <g id="line2d_21">
      <g>
       <use style="stroke:#000000;stroke-width:0.8;" x="617.844698" xlink:href="#m83cfe06e13" y="448.56"/>
      </g>
     </g>
     <g id="text_21">
      <!-- 13:23:09 -->
      <g transform="translate(620.604073 500.4725)rotate(-90)scale(0.1 -0.1)">
       <use xlink:href="#DejaVuSans-49"/>
       <use x="63.623047" xlink:href="#DejaVuSans-51"/>
       <use x="127.246094" xlink:href="#DejaVuSans-58"/>
       <use x="160.9375" xlink:href="#DejaVuSans-50"/>
       <use x="224.560547" xlink:href="#DejaVuSans-51"/>
       <use x="288.183594" xlink:href="#DejaVuSans-58"/>
       <use x="321.875" xlink:href="#DejaVuSans-48"/>
       <use x="385.498047" xlink:href="#DejaVuSans-57"/>
      </g>
     </g>
    </g>
    <g id="text_22">
     <!-- timestamp -->
     <g transform="translate(354.264375 510.55125)scale(0.08 -0.08)">
      <defs>
       <path d="M 18.3125 70.21875 
L 18.3125 54.6875 
L 36.8125 54.6875 
L 36.8125 47.703125 
L 18.3125 47.703125 
L 18.3125 18.015625 
Q 18.3125 11.328125 20.140625 9.421875 
Q 21.96875 7.515625 27.59375 7.515625 
L 36.8125 7.515625 
L 36.8125 0 
L 27.59375 0 
Q 17.1875 0 13.234375 3.875 
Q 9.28125 7.765625 9.28125 18.015625 
L 9.28125 47.703125 
L 2.6875 47.703125 
L 2.6875 54.6875 
L 9.28125 54.6875 
L 9.28125 70.21875 
z
" id="DejaVuSans-116"/>
       <path d="M 9.421875 54.6875 
L 18.40625 54.6875 
L 18.40625 0 
L 9.421875 0 
z
M 9.421875 75.984375 
L 18.40625 75.984375 
L 18.40625 64.59375 
L 9.421875 64.59375 
z
" id="DejaVuSans-105"/>
       <path d="M 52 44.1875 
Q 55.375 50.25 60.0625 53.125 
Q 64.75 56 71.09375 56 
Q 79.640625 56 84.28125 50.015625 
Q 88.921875 44.046875 88.921875 33.015625 
L 88.921875 0 
L 79.890625 0 
L 79.890625 32.71875 
Q 79.890625 40.578125 77.09375 44.375 
Q 74.3125 48.1875 68.609375 48.1875 
Q 61.625 48.1875 57.5625 43.546875 
Q 53.515625 38.921875 53.515625 30.90625 
L 53.515625 0 
L 44.484375 0 
L 44.484375 32.71875 
Q 44.484375 40.625 41.703125 44.40625 
Q 38.921875 48.1875 33.109375 48.1875 
Q 26.21875 48.1875 22.15625 43.53125 
Q 18.109375 38.875 18.109375 30.90625 
L 18.109375 0 
L 9.078125 0 
L 9.078125 54.6875 
L 18.109375 54.6875 
L 18.109375 46.1875 
Q 21.1875 51.21875 25.484375 53.609375 
Q 29.78125 56 35.6875 56 
Q 41.65625 56 45.828125 52.96875 
Q 50 49.953125 52 44.1875 
z
" id="DejaVuSans-109"/>
       <path d="M 56.203125 29.59375 
L 56.203125 25.203125 
L 14.890625 25.203125 
Q 15.484375 15.921875 20.484375 11.0625 
Q 25.484375 6.203125 34.421875 6.203125 
Q 39.59375 6.203125 44.453125 7.46875 
Q 49.3125 8.734375 54.109375 11.28125 
L 54.109375 2.78125 
Q 49.265625 0.734375 44.1875 -0.34375 
Q 39.109375 -1.421875 33.890625 -1.421875 
Q 20.796875 -1.421875 13.15625 6.1875 
Q 5.515625 13.8125 5.515625 26.8125 
Q 5.515625 40.234375 12.765625 48.109375 
Q 20.015625 56 32.328125 56 
Q 43.359375 56 49.78125 48.890625 
Q 56.203125 41.796875 56.203125 29.59375 
z
M 47.21875 32.234375 
Q 47.125 39.59375 43.09375 43.984375 
Q 39.0625 48.390625 32.421875 48.390625 
Q 24.90625 48.390625 20.390625 44.140625 
Q 15.875 39.890625 15.1875 32.171875 
z
" id="DejaVuSans-101"/>
       <path d="M 44.28125 53.078125 
L 44.28125 44.578125 
Q 40.484375 46.53125 36.375 47.5 
Q 32.28125 48.484375 27.875 48.484375 
Q 21.1875 48.484375 17.84375 46.4375 
Q 14.5 44.390625 14.5 40.28125 
Q 14.5 37.15625 16.890625 35.375 
Q 19.28125 33.59375 26.515625 31.984375 
L 29.59375 31.296875 
Q 39.15625 29.25 43.1875 25.515625 
Q 47.21875 21.78125 47.21875 15.09375 
Q 47.21875 7.46875 41.1875 3.015625 
Q 35.15625 -1.421875 24.609375 -1.421875 
Q 20.21875 -1.421875 15.453125 -0.5625 
Q 10.6875 0.296875 5.421875 2 
L 5.421875 11.28125 
Q 10.40625 8.6875 15.234375 7.390625 
Q 20.0625 6.109375 24.8125 6.109375 
Q 31.15625 6.109375 34.5625 8.28125 
Q 37.984375 10.453125 37.984375 14.40625 
Q 37.984375 18.0625 35.515625 20.015625 
Q 33.0625 21.96875 24.703125 23.78125 
L 21.578125 24.515625 
Q 13.234375 26.265625 9.515625 29.90625 
Q 5.8125 33.546875 5.8125 39.890625 
Q 5.8125 47.609375 11.28125 51.796875 
Q 16.75 56 26.8125 56 
Q 31.78125 56 36.171875 55.265625 
Q 40.578125 54.546875 44.28125 53.078125 
z
" id="DejaVuSans-115"/>
       <path d="M 34.28125 27.484375 
Q 23.390625 27.484375 19.1875 25 
Q 14.984375 22.515625 14.984375 16.5 
Q 14.984375 11.71875 18.140625 8.90625 
Q 21.296875 6.109375 26.703125 6.109375 
Q 34.1875 6.109375 38.703125 11.40625 
Q 43.21875 16.703125 43.21875 25.484375 
L 43.21875 27.484375 
z
M 52.203125 31.203125 
L 52.203125 0 
L 43.21875 0 
L 43.21875 8.296875 
Q 40.140625 3.328125 35.546875 0.953125 
Q 30.953125 -1.421875 24.3125 -1.421875 
Q 15.921875 -1.421875 10.953125 3.296875 
Q 6 8.015625 6 15.921875 
Q 6 25.140625 12.171875 29.828125 
Q 18.359375 34.515625 30.609375 34.515625 
L 43.21875 34.515625 
L 43.21875 35.40625 
Q 43.21875 41.609375 39.140625 45 
Q 35.0625 48.390625 27.6875 48.390625 
Q 23 48.390625 18.546875 47.265625 
Q 14.109375 46.140625 10.015625 43.890625 
L 10.015625 52.203125 
Q 14.9375 54.109375 19.578125 55.046875 
Q 24.21875 56 28.609375 56 
Q 40.484375 56 46.34375 49.84375 
Q 52.203125 43.703125 52.203125 31.203125 
z
" id="DejaVuSans-97"/>
       <path d="M 18.109375 8.203125 
L 18.109375 -20.796875 
L 9.078125 -20.796875 
L 9.078125 54.6875 
L 18.109375 54.6875 
L 18.109375 46.390625 
Q 20.953125 51.265625 25.265625 53.625 
Q 29.59375 56 35.59375 56 
Q 45.5625 56 51.78125 48.09375 
Q 58.015625 40.1875 58.015625 27.296875 
Q 58.015625 14.40625 51.78125 6.484375 
Q 45.5625 -1.421875 35.59375 -1.421875 
Q 29.59375 -1.421875 25.265625 0.953125 
Q 20.953125 3.328125 18.109375 8.203125 
z
M 48.6875 27.296875 
Q 48.6875 37.203125 44.609375 42.84375 
Q 40.53125 48.484375 33.40625 48.484375 
Q 26.265625 48.484375 22.1875 42.84375 
Q 18.109375 37.203125 18.109375 27.296875 
Q 18.109375 17.390625 22.1875 11.75 
Q 26.265625 6.109375 33.40625 6.109375 
Q 40.53125 6.109375 44.609375 11.75 
Q 48.6875 17.390625 48.6875 27.296875 
z
" id="DejaVuSans-112"/>
      </defs>
      <use xlink:href="#DejaVuSans-116"/>
      <use x="39.208984" xlink:href="#DejaVuSans-105"/>
      <use x="66.992188" xlink:href="#DejaVuSans-109"/>
      <use x="164.404297" xlink:href="#DejaVuSans-101"/>
      <use x="225.927734" xlink:href="#DejaVuSans-115"/>
      <use x="278.027344" xlink:href="#DejaVuSans-116"/>
      <use x="317.236328" xlink:href="#DejaVuSans-97"/>
      <use x="378.515625" xlink:href="#DejaVuSans-109"/>
      <use x="475.927734" xlink:href="#DejaVuSans-112"/>
     </g>
    </g>
   </g>
   <g id="matplotlib.axis_2">
    <g id="ytick_1">
     <g id="line2d_22">
      <defs>
       <path d="M 0 0 
L -3.5 0 
" id="m7321924b32" style="stroke:#000000;stroke-width:0.8;"/>
      </defs>
      <g>
       <use style="stroke:#000000;stroke-width:0.8;" x="108" xlink:href="#m7321924b32" y="423.38237"/>
      </g>
     </g>
     <g id="text_23">
      <!-- 11640 -->
      <g transform="translate(69.1875 427.181589)scale(0.1 -0.1)">
       <use xlink:href="#DejaVuSans-49"/>
       <use x="63.623047" xlink:href="#DejaVuSans-49"/>
       <use x="127.246094" xlink:href="#DejaVuSans-54"/>
       <use x="190.869141" xlink:href="#DejaVuSans-52"/>
       <use x="254.492188" xlink:href="#DejaVuSans-48"/>
      </g>
     </g>
    </g>
    <g id="ytick_2">
     <g id="line2d_23">
      <g>
       <use style="stroke:#000000;stroke-width:0.8;" x="108" xlink:href="#m7321924b32" y="379.147454"/>
      </g>
     </g>
     <g id="text_24">
      <!-- 11650 -->
      <g transform="translate(69.1875 382.946672)scale(0.1 -0.1)">
       <use xlink:href="#DejaVuSans-49"/>
       <use x="63.623047" xlink:href="#DejaVuSans-49"/>
       <use x="127.246094" xlink:href="#DejaVuSans-54"/>
       <use x="190.869141" xlink:href="#DejaVuSans-53"/>
       <use x="254.492188" xlink:href="#DejaVuSans-48"/>
      </g>
     </g>
    </g>
    <g id="ytick_3">
     <g id="line2d_24">
      <g>
       <use style="stroke:#000000;stroke-width:0.8;" x="108" xlink:href="#m7321924b32" y="334.912537"/>
      </g>
     </g>
     <g id="text_25">
      <!-- 11660 -->
      <g transform="translate(69.1875 338.711756)scale(0.1 -0.1)">
       <use xlink:href="#DejaVuSans-49"/>
       <use x="63.623047" xlink:href="#DejaVuSans-49"/>
       <use x="127.246094" xlink:href="#DejaVuSans-54"/>
       <use x="190.869141" xlink:href="#DejaVuSans-54"/>
       <use x="254.492188" xlink:href="#DejaVuSans-48"/>
      </g>
     </g>
    </g>
    <g id="ytick_4">
     <g id="line2d_25">
      <g>
       <use style="stroke:#000000;stroke-width:0.8;" x="108" xlink:href="#m7321924b32" y="290.677621"/>
      </g>
     </g>
     <g id="text_26">
      <!-- 11670 -->
      <g transform="translate(69.1875 294.476839)scale(0.1 -0.1)">
       <use xlink:href="#DejaVuSans-49"/>
       <use x="63.623047" xlink:href="#DejaVuSans-49"/>
       <use x="127.246094" xlink:href="#DejaVuSans-54"/>
       <use x="190.869141" xlink:href="#DejaVuSans-55"/>
       <use x="254.492188" xlink:href="#DejaVuSans-48"/>
      </g>
     </g>
    </g>
    <g id="ytick_5">
     <g id="line2d_26">
      <g>
       <use style="stroke:#000000;stroke-width:0.8;" x="108" xlink:href="#m7321924b32" y="246.442704"/>
      </g>
     </g>
     <g id="text_27">
      <!-- 11680 -->
      <g transform="translate(69.1875 250.241923)scale(0.1 -0.1)">
       <use xlink:href="#DejaVuSans-49"/>
       <use x="63.623047" xlink:href="#DejaVuSans-49"/>
       <use x="127.246094" xlink:href="#DejaVuSans-54"/>
       <use x="190.869141" xlink:href="#DejaVuSans-56"/>
       <use x="254.492188" xlink:href="#DejaVuSans-48"/>
      </g>
     </g>
    </g>
    <g id="ytick_6">
     <g id="line2d_27">
      <g>
       <use style="stroke:#000000;stroke-width:0.8;" x="108" xlink:href="#m7321924b32" y="202.207788"/>
      </g>
     </g>
     <g id="text_28">
      <!-- 11690 -->
      <g transform="translate(69.1875 206.007007)scale(0.1 -0.1)">
       <use xlink:href="#DejaVuSans-49"/>
       <use x="63.623047" xlink:href="#DejaVuSans-49"/>
       <use x="127.246094" xlink:href="#DejaVuSans-54"/>
       <use x="190.869141" xlink:href="#DejaVuSans-57"/>
       <use x="254.492188" xlink:href="#DejaVuSans-48"/>
      </g>
     </g>
    </g>
    <g id="ytick_7">
     <g id="line2d_28">
      <g>
       <use style="stroke:#000000;stroke-width:0.8;" x="108" xlink:href="#m7321924b32" y="157.972871"/>
      </g>
     </g>
     <g id="text_29">
      <!-- 11700 -->
      <g transform="translate(69.1875 161.77209)scale(0.1 -0.1)">
       <use xlink:href="#DejaVuSans-49"/>
       <use x="63.623047" xlink:href="#DejaVuSans-49"/>
       <use x="127.246094" xlink:href="#DejaVuSans-55"/>
       <use x="190.869141" xlink:href="#DejaVuSans-48"/>
       <use x="254.492188" xlink:href="#DejaVuSans-48"/>
      </g>
     </g>
    </g>
    <g id="ytick_8">
     <g id="line2d_29">
      <g>
       <use style="stroke:#000000;stroke-width:0.8;" x="108" xlink:href="#m7321924b32" y="113.737955"/>
      </g>
     </g>
     <g id="text_30">
      <!-- 11710 -->
      <g transform="translate(69.1875 117.537174)scale(0.1 -0.1)">
       <use xlink:href="#DejaVuSans-49"/>
       <use x="63.623047" xlink:href="#DejaVuSans-49"/>
       <use x="127.246094" xlink:href="#DejaVuSans-55"/>
       <use x="190.869141" xlink:href="#DejaVuSans-49"/>
       <use x="254.492188" xlink:href="#DejaVuSans-48"/>
      </g>
     </g>
    </g>
    <g id="ytick_9">
     <g id="line2d_30">
      <g>
       <use style="stroke:#000000;stroke-width:0.8;" x="108" xlink:href="#m7321924b32" y="69.503038"/>
      </g>
     </g>
     <g id="text_31">
      <!-- 11720 -->
      <g transform="translate(69.1875 73.302257)scale(0.1 -0.1)">
       <use xlink:href="#DejaVuSans-49"/>
       <use x="63.623047" xlink:href="#DejaVuSans-49"/>
       <use x="127.246094" xlink:href="#DejaVuSans-55"/>
       <use x="190.869141" xlink:href="#DejaVuSans-50"/>
       <use x="254.492188" xlink:href="#DejaVuSans-48"/>
      </g>
     </g>
    </g>
    <g id="text_32">
     <!-- MB -->
     <g transform="translate(63.52375 260.715625)rotate(-90)scale(0.08 -0.08)">
      <defs>
       <path d="M 9.8125 72.90625 
L 24.515625 72.90625 
L 43.109375 23.296875 
L 61.8125 72.90625 
L 76.515625 72.90625 
L 76.515625 0 
L 66.890625 0 
L 66.890625 64.015625 
L 48.09375 14.015625 
L 38.1875 14.015625 
L 19.390625 64.015625 
L 19.390625 0 
L 9.8125 0 
z
" id="DejaVuSans-77"/>
       <path d="M 19.671875 34.8125 
L 19.671875 8.109375 
L 35.5 8.109375 
Q 43.453125 8.109375 47.28125 11.40625 
Q 51.125 14.703125 51.125 21.484375 
Q 51.125 28.328125 47.28125 31.5625 
Q 43.453125 34.8125 35.5 34.8125 
z
M 19.671875 64.796875 
L 19.671875 42.828125 
L 34.28125 42.828125 
Q 41.5 42.828125 45.03125 45.53125 
Q 48.578125 48.25 48.578125 53.8125 
Q 48.578125 59.328125 45.03125 62.0625 
Q 41.5 64.796875 34.28125 64.796875 
z
M 9.8125 72.90625 
L 35.015625 72.90625 
Q 46.296875 72.90625 52.390625 68.21875 
Q 58.5 63.53125 58.5 54.890625 
Q 58.5 48.1875 55.375 44.234375 
Q 52.25 40.28125 46.1875 39.3125 
Q 53.46875 37.75 57.5 32.78125 
Q 61.53125 27.828125 61.53125 20.40625 
Q 61.53125 10.640625 54.890625 5.3125 
Q 48.25 0 35.984375 0 
L 9.8125 0 
z
" id="DejaVuSans-66"/>
      </defs>
      <use xlink:href="#DejaVuSans-77"/>
      <use x="86.279297" xlink:href="#DejaVuSans-66"/>
     </g>
    </g>
   </g>
   <g id="line2d_31">
    <path clip-path="url(#p423e09bb52)" d="M 132.349091 129.804076 
L 133.339898 88.55944 
L 134.330706 116.639765 
L 134.826109 105.704894 
L 135.321513 88.73638 
L 135.816917 92.257479 
L 136.807724 96.822523 
L 137.303128 101.210626 
L 137.798531 96.026294 
L 138.293935 78.12 
L 138.789339 83.42819 
L 139.284742 90.169591 
L 139.780146 90.505777 
L 140.27555 100.166682 
L 140.770953 114.392632 
L 141.266357 114.622653 
L 141.761761 116.197416 
L 142.257165 135.200736 
L 142.752568 147.232634 
L 143.247972 149.93981 
L 143.743376 149.833647 
L 144.238779 144.348517 
L 144.734183 141.358237 
L 145.229587 149.072806 
L 145.72499 154.380996 
L 147.211201 141.605952 
L 148.202009 277.973353 
L 148.697412 285.599452 
L 149.192816 271.904322 
L 149.68822 254.104192 
L 150.183623 248.406735 
L 150.679027 248.194407 
L 151.174431 251.627036 
L 151.669834 253.361045 
L 152.165238 253.290269 
L 153.156046 260.403244 
L 153.651449 258.06764 
L 154.146853 260.56249 
L 154.642257 245.558006 
L 155.13766 239.347424 
L 155.633064 235.13626 
L 156.128468 237.684191 
L 156.623871 234.446195 
L 157.119275 242.32001 
L 157.614679 238.657359 
L 158.110082 233.632272 
L 158.605486 230.447358 
L 159.10089 230.111173 
L 159.596293 297.419022 
L 160.091697 305.735186 
L 160.587101 304.673548 
L 161.082504 292.270078 
L 161.577908 247.89361 
L 162.073312 255.785119 
L 162.568715 267.303891 
L 163.064119 245.540312 
L 163.559523 231.632854 
L 164.054926 237.489557 
L 164.55033 241.594557 
L 165.541138 246.814278 
L 166.036541 250.848502 
L 166.531945 245.133351 
L 167.027349 247.681282 
L 167.522752 241.877661 
L 168.018156 249.309127 
L 168.51356 246.885053 
L 169.008963 242.956993 
L 169.504367 245.699558 
L 170.495174 255.112748 
L 170.990578 253.131024 
L 171.485982 247.946691 
L 171.981385 245.681864 
L 172.476789 240.816023 
L 172.972193 243.187014 
L 173.467596 260.031671 
L 173.963 268.418611 
L 174.953807 248.636756 
L 175.944615 254.298825 
L 176.440018 256.28055 
L 176.935422 259.660097 
L 177.430826 254.599623 
L 177.92623 247.999773 
L 178.917037 262.491132 
L 179.412441 262.208028 
L 179.907844 266.773072 
L 180.403248 260.137834 
L 180.898652 259.854731 
L 181.394055 262.809623 
L 181.889459 264.49055 
L 182.384863 288.819754 
L 182.880266 272.505917 
L 183.37567 272.435141 
L 183.871074 250.760032 
L 184.366477 253.573373 
L 184.861881 290.306047 
L 185.357285 266.755378 
L 185.852688 183.009834 
L 186.348092 173.49048 
L 186.843496 199.199813 
L 187.338899 277.761025 
L 187.834303 210.506258 
L 188.825111 181.594317 
L 189.320514 201.305395 
L 189.815918 214.469707 
L 190.311322 213.779642 
L 190.806725 185.292356 
L 191.302129 177.825502 
L 191.797533 225.45766 
L 192.292936 236.144816 
L 192.78834 228.961065 
L 193.283744 211.532508 
L 193.779147 210.29393 
L 194.274551 212.894944 
L 194.769955 203.004016 
L 195.265358 197.925848 
L 195.760762 178.409403 
L 196.256166 184.513821 
L 196.751569 183.416795 
L 197.246973 186.300912 
L 197.742377 183.346019 
L 198.23778 181.718174 
L 198.733184 170.677139 
L 199.228588 180.284963 
L 200.219395 167.297592 
L 200.714799 165.138928 
L 201.210203 179.948778 
L 202.20101 196.95268 
L 202.696414 192.033757 
L 203.191817 189.822011 
L 203.687221 188.955007 
L 204.182625 198.120481 
L 204.678028 196.934986 
L 205.668836 176.445372 
L 206.659643 186.353994 
L 207.155047 188.760373 
L 207.65045 181.70048 
L 208.145854 177.913972 
L 208.641258 176.339209 
L 209.136661 174.233627 
L 209.632065 168.660027 
L 210.127469 175.525286 
L 210.622872 172.251902 
L 211.118276 181.96589 
L 211.61368 180.568067 
L 212.109084 178.604036 
L 212.604487 177.577786 
L 213.099891 175.63145 
L 213.595295 188.955007 
L 214.586102 307.469195 
L 215.081506 299.170725 
L 215.576909 308.937794 
L 216.072313 299.029173 
L 216.567717 294.340272 
L 217.06312 285.068633 
L 217.558524 283.139991 
L 218.053928 298.038311 
L 218.549331 296.569712 
L 219.044735 292.500099 
L 219.540139 286.944194 
L 220.035542 284.60859 
L 220.530946 294.02178 
L 221.521753 293.827147 
L 222.017157 288.04122 
L 222.512561 291.491543 
L 223.007964 298.48066 
L 223.503368 296.905897 
L 223.998772 293.667901 
L 224.494176 294.641069 
L 224.989579 301.700962 
L 225.484983 291.243828 
L 225.980387 289.226715 
L 226.47579 300.44469 
L 226.971194 297.259776 
L 227.466598 298.30372 
L 227.962001 294.641069 
L 228.457405 272.558999 
L 228.952809 270.241089 
L 229.448212 264.685184 
L 229.943616 285.54637 
L 230.43902 293.561737 
L 230.934423 290.376823 
L 231.429827 295.384216 
L 231.925231 283.75928 
L 232.420634 287.68734 
L 232.916038 293.278634 
L 233.411442 294.959561 
L 233.906845 295.242664 
L 234.402249 355.915276 
L 234.897653 355.207517 
L 235.393057 358.533983 
L 235.88846 353.367344 
L 236.383864 319.978829 
L 236.879268 309.061652 
L 237.374671 307.13301 
L 237.870075 309.468613 
L 238.365479 305.947514 
L 238.860882 309.043958 
L 239.356286 303.116479 
L 239.85169 301.948677 
L 240.347093 307.062234 
L 240.842497 305.823656 
L 241.337901 307.539971 
L 241.833304 303.824238 
L 242.328708 297.507492 
L 242.824112 297.755207 
L 243.319515 295.40191 
L 243.814919 310.831049 
L 244.805726 302.638742 
L 245.30113 299.223807 
L 245.796534 301.541716 
L 246.291937 319.748808 
L 246.787341 316.705446 
L 247.282745 311.043376 
L 247.778149 296.003505 
L 248.273552 305.416695 
L 249.759763 315.059907 
L 250.750571 304.708936 
L 251.245974 308.141566 
L 251.741378 313.715165 
L 252.236782 317.39551 
L 252.732185 322.650618 
L 253.227589 313.502838 
L 253.722993 279.56581 
L 254.218396 274.912297 
L 254.7138 272.576693 
L 255.209204 271.85124 
L 255.704607 272.523611 
L 256.200011 264.455162 
L 256.695415 262.331886 
L 257.190818 266.63152 
L 257.686222 263.835873 
L 258.181626 276.345508 
L 258.67703 282.060659 
L 259.172433 282.980745 
L 259.667837 267.003093 
L 260.163241 266.242253 
L 260.658644 255.041972 
L 261.154048 247.698976 
L 261.649452 251.043136 
L 262.144855 241.824579 
L 263.631066 261.199472 
L 264.12647 254.493459 
L 264.621874 256.705205 
L 265.117277 249.50376 
L 265.612681 247.557424 
L 266.108085 248.778308 
L 266.603488 256.95292 
L 267.098892 247.097381 
L 267.594296 303.293419 
L 268.089699 303.541134 
L 268.585103 356.216073 
L 269.080507 365.806203 
L 269.57591 369.344996 
L 270.071314 339.194477 
L 270.566718 288.766672 
L 271.062122 255.07736 
L 271.557525 249.096799 
L 272.052929 240.409062 
L 273.043736 177.294683 
L 273.53914 231.96904 
L 274.034544 227.032423 
L 274.529947 220.662595 
L 275.025351 223.900591 
L 276.016158 195.430999 
L 276.511562 197.076537 
L 277.502369 184.159942 
L 277.997773 229.757294 
L 278.493177 234.746992 
L 278.98858 219.830978 
L 279.483984 214.611258 
L 279.979388 200.314533 
L 280.474791 197.80199 
L 280.970195 193.767766 
L 281.465599 197.908154 
L 281.961002 198.102788 
L 282.456406 194.90018 
L 282.95181 194.687852 
L 283.447214 175.489898 
L 283.942617 171.951105 
L 284.438021 161.794768 
L 284.933425 154.841039 
L 285.428828 165.669747 
L 285.924232 167.91688 
L 286.419636 179.984166 
L 286.915039 178.073217 
L 287.410443 174.145157 
L 287.905847 173.419704 
L 288.40125 181.895114 
L 288.896654 184.443045 
L 289.392058 185.097722 
L 289.887461 174.269014 
L 290.878269 173.118907 
L 291.373672 182.408239 
L 291.869076 173.543562 
L 292.36448 173.649726 
L 293.355287 321.518205 
L 293.850691 312.494282 
L 294.346095 311.41495 
L 294.841498 292.783203 
L 295.336902 332.860037 
L 295.832306 356.534564 
L 296.327709 350.642474 
L 296.823113 349.775469 
L 297.318517 302.85107 
L 297.81392 311.910381 
L 298.309324 308.884712 
L 298.804728 296.552018 
L 299.300131 289.492125 
L 299.795535 290.695315 
L 300.290939 299.648462 
L 300.786342 305.522859 
L 301.281746 280.220486 
L 301.77715 272.96596 
L 302.272553 272.346671 
L 302.767957 290.571457 
L 303.758764 279.034991 
L 304.254168 278.344926 
L 304.749572 278.557254 
L 305.244975 285.847168 
L 305.740379 288.855142 
L 306.235783 299.294582 
L 306.731187 286.271823 
L 307.22659 280.875163 
L 307.721994 283.069215 
L 308.712801 288.625121 
L 309.208205 281.034409 
L 309.703609 281.777556 
L 310.199012 276.097792 
L 310.694416 286.997276 
L 311.18982 284.307793 
L 311.685223 276.345508 
L 312.180627 280.574366 
L 312.676031 273.673719 
L 313.171434 270.948848 
L 313.666838 277.106348 
L 314.162242 279.335788 
L 314.657645 291.137664 
L 315.153049 284.838612 
L 315.648453 282.432232 
L 316.143856 285.015551 
L 316.63926 288.748978 
L 317.134664 293.561737 
L 317.630068 297.189 
L 318.125471 289.651371 
L 318.620875 286.554927 
L 319.116279 288.448181 
L 319.611682 296.534324 
L 320.107086 291.420767 
L 320.60249 285.086327 
L 321.097893 285.440207 
L 321.593297 294.19872 
L 322.088701 291.279216 
L 322.584104 295.738095 
L 323.079508 294.641069 
L 323.574912 293.827147 
L 324.070315 295.118806 
L 324.565719 296.994367 
L 325.061123 295.826565 
L 325.556526 289.615983 
L 326.05193 292.836285 
L 326.547334 291.703871 
L 327.042737 287.545789 
L 327.538141 285.935638 
L 328.033545 291.863117 
L 328.528948 302.621048 
L 329.024352 300.7101 
L 330.01516 291.420767 
L 330.510563 295.04803 
L 331.005967 308.778549 
L 331.501371 304.956652 
L 331.996774 303.895014 
L 332.492178 300.993203 
L 332.987582 308.690079 
L 333.482985 307.876156 
L 333.978389 306.832212 
L 334.473793 300.196975 
L 334.969196 301.417858 
L 335.4646 313.414368 
L 335.960004 312.511976 
L 336.455407 286.608008 
L 336.950811 286.201047 
L 337.446215 274.823827 
L 337.941618 279.530422 
L 338.437022 337.106589 
L 338.932426 339.937624 
L 339.923233 305.912126 
L 340.418637 304.72663 
L 340.914041 328.772731 
L 341.409444 314.069045 
L 341.904848 237.01182 
L 342.400252 236.905656 
L 342.895655 291.580013 
L 343.391059 314.192902 
L 343.886463 300.780876 
L 344.381866 213.567314 
L 344.87727 218.079276 
L 345.372674 257.023696 
L 345.868077 261.960313 
L 346.363481 254.245744 
L 346.858885 232.075203 
L 347.354288 224.006755 
L 347.849692 274.399171 
L 348.345096 262.34958 
L 348.840499 254.192662 
L 349.335903 241.842273 
L 349.831307 239.15279 
L 350.32671 252.140161 
L 350.822114 242.107682 
L 351.812921 216.115245 
L 352.308325 213.655784 
L 352.803729 207.604448 
L 353.299133 209.214599 
L 353.794536 216.876086 
L 354.28994 217.15919 
L 354.785344 210.683198 
L 355.280747 199.642163 
L 355.776151 202.844771 
L 356.271555 212.346431 
L 356.766958 224.148306 
L 357.262362 221.35266 
L 357.757766 212.52337 
L 358.253169 208.011409 
L 358.748573 214.965138 
L 359.243977 224.696819 
L 359.73938 221.034168 
L 360.234784 219.707121 
L 360.730188 212.098715 
L 361.225591 216.026776 
L 361.720995 222.555849 
L 362.216399 227.616324 
L 362.711802 229.120311 
L 363.207206 221.016474 
L 363.70261 225.333802 
L 364.198014 235.153954 
L 364.693417 232.659104 
L 365.188821 233.809212 
L 365.684225 232.022121 
L 366.179628 308.707773 
L 367.170436 317.094713 
L 367.665839 316.227709 
L 368.161243 302.904152 
L 368.656647 294.446436 
L 369.15205 271.780464 
L 369.647454 274.540723 
L 370.142858 278.079517 
L 370.638261 286.254129 
L 371.133665 288.111996 
L 371.629069 288.748978 
L 372.124472 281.459064 
L 372.619876 283.635422 
L 373.11528 294.835703 
L 373.610683 285.670228 
L 374.106087 285.705616 
L 374.601491 287.705034 
L 375.096894 355.295987 
L 375.592298 359.68409 
L 376.087702 355.75603 
L 376.583106 356.446095 
L 377.078509 308.353893 
L 377.573913 309.362449 
L 378.069317 311.308786 
L 378.56472 314.794497 
L 379.060124 307.22148 
L 379.555528 295.614237 
L 380.050931 300.568548 
L 380.546335 302.284863 
L 381.041739 300.957815 
L 381.537142 304.762018 
L 382.032546 298.020617 
L 382.52795 303.824238 
L 383.518757 295.154194 
L 384.014161 298.498354 
L 385.004968 307.89385 
L 385.995775 286.608008 
L 386.491179 290.217578 
L 386.986583 280.043547 
L 387.481986 277.637167 
L 387.97739 281.919107 
L 388.472794 270.754214 
L 388.968198 264.455162 
L 389.463601 278.415702 
L 389.959005 342.397085 
L 390.454409 336.416524 
L 390.949812 319.483398 
L 391.445216 294.163332 
L 391.94062 304.125035 
L 392.436023 264.614408 
L 392.931427 253.307963 
L 393.426831 229.244169 
L 393.922234 221.069556 
L 394.417638 247.132769 
L 394.913042 248.052855 
L 395.408445 241.683027 
L 395.903849 225.139168 
L 396.399253 224.732207 
L 396.894656 258.651541 
L 397.39006 253.909558 
L 397.885464 256.510571 
L 398.380867 249.149881 
L 398.876271 250.547704 
L 399.371675 290.996112 
L 399.867079 276.009322 
L 400.362482 267.480831 
L 400.857886 251.131605 
L 401.35329 256.01514 
L 401.848693 254.971196 
L 402.344097 252.317101 
L 402.839501 246.955829 
L 403.334904 243.5232 
L 403.830308 255.873588 
L 404.325712 243.647058 
L 404.821115 238.498113 
L 405.316519 243.399342 
L 405.811923 251.485485 
L 406.307326 246.230377 
L 406.80273 244.124795 
L 407.298134 247.71667 
L 407.793537 248.65445 
L 408.288941 252.830226 
L 408.784345 248.300571 
L 409.279748 245.522618 
L 409.775152 252.75945 
L 410.270556 254.564235 
L 410.765959 257.359882 
L 411.756767 235.8971 
L 412.252171 244.036325 
L 412.747574 255.236606 
L 413.242978 258.049946 
L 413.738382 253.361045 
L 414.233785 257.342188 
L 414.729189 257.112166 
L 415.224593 257.819925 
L 415.719996 259.394688 
L 416.2154 261.4118 
L 416.710804 257.908395 
L 417.206207 248.459816 
L 417.701611 258.173804 
L 418.197015 228.324082 
L 418.692418 222.078112 
L 419.187822 303.895014 
L 419.683226 361.541957 
L 420.178629 361.895836 
L 420.674033 342.078594 
L 421.169437 335.673378 
L 421.66484 346.1659 
L 422.160244 340.379973 
L 422.655648 328.153442 
L 423.151052 331.674541 
L 423.646455 338.663658 
L 424.141859 337.938206 
L 425.132666 322.827558 
L 425.62807 297.419022 
L 426.123474 300.338527 
L 426.618877 312.105014 
L 427.114281 327.144886 
L 427.609685 330.082084 
L 428.105088 323.72995 
L 428.600492 318.828722 
L 429.095896 321.482817 
L 429.591299 326.330963 
L 430.086703 328.666567 
L 430.582107 324.260769 
L 431.07751 316.068463 
L 431.572914 319.908054 
L 432.068318 326.720231 
L 432.563721 315.767665 
L 433.059125 315.69689 
L 433.554529 312.529669 
L 434.049932 311.025682 
L 434.545336 320.173463 
L 435.04074 319.943441 
L 435.536144 320.191157 
L 436.031547 317.253959 
L 436.526951 316.263096 
L 437.022355 314.599864 
L 437.517758 323.181437 
L 438.013162 320.279627 
L 438.508566 327.92342 
L 439.003969 322.491373 
L 439.499373 312.388118 
L 439.994777 310.919519 
L 440.49018 314.989131 
L 440.985584 305.770574 
L 441.480988 308.212342 
L 442.471795 286.944194 
L 442.967199 283.157685 
L 443.462602 291.349991 
L 443.958006 293.597125 
L 444.45341 289.262103 
L 444.948813 282.768418 
L 445.444217 286.767254 
L 445.939621 301.930983 
L 446.435025 293.43788 
L 446.930428 294.623375 
L 447.425832 295.331134 
L 447.921236 294.818009 
L 448.416639 295.826565 
L 448.912043 297.348246 
L 449.90285 298.622212 
L 450.398254 289.545207 
L 451.389061 302.284863 
L 451.884465 296.675875 
L 452.379869 295.879647 
L 452.875272 303.063397 
L 453.370676 300.055423 
L 453.86608 283.776974 
L 454.361483 282.64456 
L 454.856887 291.279216 
L 455.352291 308.230036 
L 455.847694 303.948096 
L 456.343098 347.687581 
L 456.838502 351.668724 
L 457.333905 362.886698 
L 457.829309 369.008811 
L 458.324713 318.651782 
L 458.820117 315.077601 
L 459.31552 314.334454 
L 459.810924 320.191157 
L 460.306328 311.450338 
L 460.801731 307.858462 
L 461.297135 305.876738 
L 461.792539 302.054841 
L 462.783346 309.061652 
L 463.27875 428.725948 
L 463.774153 430.92 
L 464.269557 419.36584 
L 464.764961 398.840839 
L 465.260364 348.39534 
L 465.755768 407.245473 
L 466.251172 307.433807 
L 467.241979 284.69706 
L 467.737383 257.873007 
L 468.232786 276.805551 
L 468.72819 269.090981 
L 469.223594 264.985981 
L 469.718998 263.694322 
L 470.214401 282.060659 
L 470.709805 284.484732 
L 471.205209 278.557254 
L 471.700612 281.512146 
L 472.196016 280.061241 
L 472.69142 301.630186 
L 473.186823 288.324323 
L 473.682227 290.306047 
L 474.177631 281.370594 
L 474.673034 276.327814 
L 475.168438 287.492707 
L 475.663842 279.052685 
L 476.159245 279.247318 
L 476.654649 280.609754 
L 477.150053 280.185099 
L 478.14086 283.617728 
L 478.636264 283.423094 
L 479.131667 278.769581 
L 479.627071 248.035161 
L 480.122475 242.14307 
L 480.617878 246.035743 
L 481.113282 253.998028 
L 481.608686 229.208781 
L 482.10409 220.344104 
L 482.599493 215.230547 
L 483.094897 230.641992 
L 483.590301 233.93307 
L 484.085704 239.205872 
L 484.581108 236.675635 
L 485.076512 226.607768 
L 485.571915 230.925096 
L 486.067319 233.897682 
L 486.562723 227.085505 
L 487.058126 234.729298 
L 487.55353 228.35947 
L 488.048934 230.960483 
L 488.544337 232.517553 
L 489.039741 240.26751 
L 489.535145 237.117984 
L 490.525952 373.874652 
L 491.021356 373.591548 
L 491.516759 377.678855 
L 492.012163 358.92325 
L 492.507567 354.623616 
L 493.00297 359.984888 
L 493.498374 361.382711 
L 493.993778 354.039715 
L 494.489182 358.817086 
L 494.984585 370.495104 
L 495.479989 350.943271 
L 495.975393 348.643055 
L 496.470796 351.084823 
L 496.9662 356.69381 
L 497.461604 348.200706 
L 497.957007 344.325727 
L 498.452411 334.487882 
L 498.947815 331.515296 
L 499.443218 333.709348 
L 499.938622 336.858874 
L 500.434026 335.832624 
L 500.929429 332.64771 
L 501.424833 336.39883 
L 501.920237 337.725878 
L 502.41564 348.855383 
L 502.911044 343.84799 
L 503.406448 343.759521 
L 503.901851 330.931395 
L 504.397255 332.134584 
L 504.892659 343.016374 
L 505.388063 343.529499 
L 506.37887 331.338356 
L 506.874274 335.602602 
L 507.369677 317.342428 
L 507.865081 304.001178 
L 508.360485 305.115897 
L 508.855888 313.644389 
L 509.351292 314.723721 
L 509.846696 299.77232 
L 510.837503 307.168398 
L 511.332907 317.183183 
L 511.82831 317.39551 
L 512.323714 314.812191 
L 512.819118 305.947514 
L 513.314521 312.635833 
L 513.809925 316.758528 
L 514.305329 321.872084 
L 514.800732 317.554756 
L 515.296136 311.096458 
L 515.79154 373.273057 
L 516.286943 375.87407 
L 516.782347 376.369501 
L 517.277751 375.095535 
L 517.773155 327.357214 
L 518.268558 328.825813 
L 518.763962 338.026675 
L 519.259366 335.761848 
L 519.754769 317.731696 
L 520.250173 317.236265 
L 520.745577 330.029002 
L 521.24098 327.711093 
L 521.736384 321.819002 
L 522.231788 327.427989 
L 522.727191 368.884953 
L 523.222595 363.983724 
L 523.717999 349.810857 
L 524.213402 324.950834 
L 524.708806 335.514132 
L 525.20421 286.66109 
L 525.699613 289.368267 
L 526.195017 269.904904 
L 526.690421 265.039063 
L 527.185824 256.01514 
L 527.681228 282.485314 
L 528.176632 280.220486 
L 528.672036 269.869516 
L 529.167439 263.55277 
L 529.662843 278.999603 
L 530.158247 300.727794 
L 530.65365 303.841932 
L 531.149054 290.642233 
L 531.644458 266.259947 
L 532.139861 289.138246 
L 532.635265 297.932147 
L 533.130669 291.721565 
L 533.626072 265.463718 
L 534.121476 266.153783 
L 534.61688 259.837037 
L 535.112283 263.942037 
L 535.607687 259.076196 
L 536.103091 258.42152 
L 536.598494 252.688674 
L 537.093898 257.572209 
L 537.589302 252.033998 
L 538.084705 249.716088 
L 538.580109 248.83139 
L 539.570916 265.463718 
L 540.06632 270.683438 
L 540.561724 267.799322 
L 541.057128 260.350162 
L 541.552531 264.49055 
L 542.047935 267.586994 
L 542.543339 269.6218 
L 543.038742 291.933892 
L 543.534146 321.058161 
L 544.02955 325.994778 
L 544.524953 332.789261 
L 545.020357 290.146802 
L 545.515761 276.257038 
L 546.011164 265.87068 
L 546.506568 271.285033 
L 547.001972 262.048783 
L 547.497375 261.871843 
L 547.992779 258.846175 
L 548.488183 338.875986 
L 548.983586 381.606915 
L 549.47899 370.442022 
L 549.974394 369.875815 
L 550.469797 349.810857 
L 550.965201 358.905556 
L 551.460605 353.809694 
L 551.956009 341.441611 
L 552.451412 339.353723 
L 552.946816 342.397085 
L 553.44222 354.712086 
L 553.937623 357.012302 
L 554.433027 362.355879 
L 554.928431 357.596202 
L 555.423834 358.852474 
L 555.919238 364.284522 
L 556.414642 367.292496 
L 556.910045 340.468443 
L 557.405449 331.462214 
L 557.900853 340.716158 
L 558.396256 335.691072 
L 558.89166 339.689908 
L 559.387064 336.257279 
L 560.377871 323.90689 
L 560.873275 336.062645 
L 561.368678 339.973012 
L 561.864082 341.901654 
L 562.359486 335.124865 
L 562.854889 334.947925 
L 563.350293 338.433637 
L 563.845697 337.000425 
L 564.341101 340.185339 
L 564.836504 336.133421 
L 565.331908 338.610576 
L 565.827312 325.092386 
L 566.322715 330.524434 
L 566.818119 331.692235 
L 567.313523 338.239003 
L 567.808926 342.414779 
L 568.30433 343.865684 
L 568.799734 340.043788 
L 569.295137 345.104262 
L 570.285945 352.50034 
L 570.781348 347.316008 
L 571.276752 367.823315 
L 571.772156 360.922668 
L 572.267559 373.573854 
L 572.762963 361.488875 
L 573.258367 354.72978 
L 573.75377 391.409373 
L 574.249174 383.32323 
L 574.744578 373.025341 
L 575.239982 305.788268 
L 576.230789 380.421419 
L 576.726193 366.779371 
L 577.221596 266.914624 
L 577.717 266.401499 
L 578.212404 328.206524 
L 578.707807 337.283529 
L 579.203211 319.80189 
L 579.698615 288.306629 
L 580.194018 279.866607 
L 580.689422 334.045533 
L 581.184826 335.531826 
L 581.680229 347.510641 
L 582.175633 333.709348 
L 582.671037 324.384627 
L 583.16644 318.740252 
L 583.661844 323.358377 
L 584.157248 323.959972 
L 584.652651 320.527342 
L 585.148055 312.918937 
L 585.643459 311.025682 
L 586.138862 311.627277 
L 586.634266 309.450919 
L 587.12967 316.864691 
L 587.625074 314.31676 
L 588.120477 308.176954 
L 589.111285 311.220316 
L 589.606688 316.917773 
L 590.102092 308.672385 
L 590.597496 314.334454 
L 591.092899 311.255704 
L 591.588303 314.741415 
L 592.083707 313.927493 
L 592.57911 320.881222 
L 593.074514 319.359541 
L 593.569918 317.041631 
L 594.065321 308.15926 
L 594.560725 312.335036 
L 595.056129 309.150122 
L 595.551532 324.260769 
L 596.046936 322.845252 
L 596.54234 311.644971 
L 597.037743 317.041631 
L 597.533147 310.140984 
L 598.028551 404.007477 
L 598.523954 392.010967 
L 599.019358 368.955729 
L 599.514762 368.761095 
L 600.010166 356.393013 
L 600.505569 366.567043 
L 601.000973 358.020858 
L 601.99178 349.651611 
L 602.487184 354.835944 
L 602.982588 357.330793 
L 603.477991 358.233185 
L 603.973395 333.40855 
L 604.468799 338.486718 
L 604.964202 339.56605 
L 605.459606 337.283529 
L 605.95501 334.399412 
L 606.450413 333.355468 
L 606.945817 336.363442 
L 607.441221 336.75271 
L 607.936624 320.898916 
L 608.432028 325.322407 
L 608.927432 330.807537 
L 609.422835 334.063227 
L 609.918239 339.052925 
L 610.909047 330.984477 
L 611.40445 332.753873 
L 611.899854 343.104844 
L 612.395258 343.93646 
L 612.890661 338.150533 
L 613.386065 384.402562 
L 613.881469 384.791829 
L 614.376872 373.680018 
L 614.872276 359.117884 
L 615.863083 352.429564 
L 616.358487 348.430728 
L 616.853891 356.127603 
L 617.349294 357.277711 
L 617.844698 352.394176 
L 618.340102 360.728035 
L 618.835505 361.559651 
L 619.330909 406.590796 
L 619.330909 406.590796 
" style="fill:none;stroke:#1f77b4;stroke-linecap:square;stroke-width:1.5;"/>
   </g>
   <g id="patch_3">
    <path d="M 108 448.56 
L 108 60.48 
" style="fill:none;stroke:#000000;stroke-linecap:square;stroke-linejoin:miter;stroke-width:0.8;"/>
   </g>
   <g id="patch_4">
    <path d="M 643.68 448.56 
L 643.68 60.48 
" style="fill:none;stroke:#000000;stroke-linecap:square;stroke-linejoin:miter;stroke-width:0.8;"/>
   </g>
   <g id="patch_5">
    <path d="M 108 448.56 
L 643.68 448.56 
" style="fill:none;stroke:#000000;stroke-linecap:square;stroke-linejoin:miter;stroke-width:0.8;"/>
   </g>
   <g id="patch_6">
    <path d="M 108 60.48 
L 643.68 60.48 
" style="fill:none;stroke:#000000;stroke-linecap:square;stroke-linejoin:miter;stroke-width:0.8;"/>
   </g>
   <g id="text_33">
    <!-- docker - vmstat -->
    <g transform="translate(316.995469 54.48)scale(0.15 -0.15)">
     <defs>
      <path d="M 45.40625 46.390625 
L 45.40625 75.984375 
L 54.390625 75.984375 
L 54.390625 0 
L 45.40625 0 
L 45.40625 8.203125 
Q 42.578125 3.328125 38.25 0.953125 
Q 33.9375 -1.421875 27.875 -1.421875 
Q 17.96875 -1.421875 11.734375 6.484375 
Q 5.515625 14.40625 5.515625 27.296875 
Q 5.515625 40.1875 11.734375 48.09375 
Q 17.96875 56 27.875 56 
Q 33.9375 56 38.25 53.625 
Q 42.578125 51.265625 45.40625 46.390625 
z
M 14.796875 27.296875 
Q 14.796875 17.390625 18.875 11.75 
Q 22.953125 6.109375 30.078125 6.109375 
Q 37.203125 6.109375 41.296875 11.75 
Q 45.40625 17.390625 45.40625 27.296875 
Q 45.40625 37.203125 41.296875 42.84375 
Q 37.203125 48.484375 30.078125 48.484375 
Q 22.953125 48.484375 18.875 42.84375 
Q 14.796875 37.203125 14.796875 27.296875 
z
" id="DejaVuSans-100"/>
      <path d="M 30.609375 48.390625 
Q 23.390625 48.390625 19.1875 42.75 
Q 14.984375 37.109375 14.984375 27.296875 
Q 14.984375 17.484375 19.15625 11.84375 
Q 23.34375 6.203125 30.609375 6.203125 
Q 37.796875 6.203125 41.984375 11.859375 
Q 46.1875 17.53125 46.1875 27.296875 
Q 46.1875 37.015625 41.984375 42.703125 
Q 37.796875 48.390625 30.609375 48.390625 
z
M 30.609375 56 
Q 42.328125 56 49.015625 48.375 
Q 55.71875 40.765625 55.71875 27.296875 
Q 55.71875 13.875 49.015625 6.21875 
Q 42.328125 -1.421875 30.609375 -1.421875 
Q 18.84375 -1.421875 12.171875 6.21875 
Q 5.515625 13.875 5.515625 27.296875 
Q 5.515625 40.765625 12.171875 48.375 
Q 18.84375 56 30.609375 56 
z
" id="DejaVuSans-111"/>
      <path d="M 48.78125 52.59375 
L 48.78125 44.1875 
Q 44.96875 46.296875 41.140625 47.34375 
Q 37.3125 48.390625 33.40625 48.390625 
Q 24.65625 48.390625 19.8125 42.84375 
Q 14.984375 37.3125 14.984375 27.296875 
Q 14.984375 17.28125 19.8125 11.734375 
Q 24.65625 6.203125 33.40625 6.203125 
Q 37.3125 6.203125 41.140625 7.25 
Q 44.96875 8.296875 48.78125 10.40625 
L 48.78125 2.09375 
Q 45.015625 0.34375 40.984375 -0.53125 
Q 36.96875 -1.421875 32.421875 -1.421875 
Q 20.0625 -1.421875 12.78125 6.34375 
Q 5.515625 14.109375 5.515625 27.296875 
Q 5.515625 40.671875 12.859375 48.328125 
Q 20.21875 56 33.015625 56 
Q 37.15625 56 41.109375 55.140625 
Q 45.0625 54.296875 48.78125 52.59375 
z
" id="DejaVuSans-99"/>
      <path d="M 9.078125 75.984375 
L 18.109375 75.984375 
L 18.109375 31.109375 
L 44.921875 54.6875 
L 56.390625 54.6875 
L 27.390625 29.109375 
L 57.625 0 
L 45.90625 0 
L 18.109375 26.703125 
L 18.109375 0 
L 9.078125 0 
z
" id="DejaVuSans-107"/>
      <path d="M 41.109375 46.296875 
Q 39.59375 47.171875 37.8125 47.578125 
Q 36.03125 48 33.890625 48 
Q 26.265625 48 22.1875 43.046875 
Q 18.109375 38.09375 18.109375 28.8125 
L 18.109375 0 
L 9.078125 0 
L 9.078125 54.6875 
L 18.109375 54.6875 
L 18.109375 46.1875 
Q 20.953125 51.171875 25.484375 53.578125 
Q 30.03125 56 36.53125 56 
Q 37.453125 56 38.578125 55.875 
Q 39.703125 55.765625 41.0625 55.515625 
z
" id="DejaVuSans-114"/>
      <path id="DejaVuSans-32"/>
      <path d="M 4.890625 31.390625 
L 31.203125 31.390625 
L 31.203125 23.390625 
L 4.890625 23.390625 
z
" id="DejaVuSans-45"/>
      <path d="M 2.984375 54.6875 
L 12.5 54.6875 
L 29.59375 8.796875 
L 46.6875 54.6875 
L 56.203125 54.6875 
L 35.6875 0 
L 23.484375 0 
z
" id="DejaVuSans-118"/>
     </defs>
     <use xlink:href="#DejaVuSans-100"/>
     <use x="63.476562" xlink:href="#DejaVuSans-111"/>
     <use x="124.658203" xlink:href="#DejaVuSans-99"/>
     <use x="179.638672" xlink:href="#DejaVuSans-107"/>
     <use x="233.923828" xlink:href="#DejaVuSans-101"/>
     <use x="295.447266" xlink:href="#DejaVuSans-114"/>
     <use x="336.560547" xlink:href="#DejaVuSans-32"/>
     <use x="368.347656" xlink:href="#DejaVuSans-45"/>
     <use x="404.431641" xlink:href="#DejaVuSans-32"/>
     <use x="436.21875" xlink:href="#DejaVuSans-118"/>
     <use x="495.398438" xlink:href="#DejaVuSans-109"/>
     <use x="592.810547" xlink:href="#DejaVuSans-115"/>
     <use x="644.910156" xlink:href="#DejaVuSans-116"/>
     <use x="684.119141" xlink:href="#DejaVuSans-97"/>
     <use x="745.398438" xlink:href="#DejaVuSans-116"/>
    </g>
   </g>
   <g id="legend_1">
    <g id="patch_7">
     <path d="M 650.68 258.52 
L 654.68 258.52 
Q 656.68 258.52 656.68 256.52 
L 656.68 252.52 
Q 656.68 250.52 654.68 250.52 
L 650.68 250.52 
Q 648.68 250.52 648.68 252.52 
L 648.68 256.52 
Q 648.68 258.52 650.68 258.52 
z
" style="fill:#ffffff;opacity:0.8;stroke:#cccccc;stroke-linejoin:miter;"/>
    </g>
   </g>
  </g>
 </g>
 <defs>
  <clipPath id="p423e09bb52">
   <rect height="388.08" width="535.68" x="108" y="60.48"/>
  </clipPath>
 </defs>
</svg>
