<?xml version="1.0" encoding="utf-8" standalone="no"?>
<!DOCTYPE svg PUBLIC "-//W3C//DTD SVG 1.1//EN"
  "http://www.w3.org/Graphics/SVG/1.1/DTD/svg11.dtd">
<!-- Created with matplotlib (https://matplotlib.org/) -->
<svg height="504pt" version="1.1" viewBox="0 0 864 504" width="864pt" xmlns="http://www.w3.org/2000/svg" xmlns:xlink="http://www.w3.org/1999/xlink">
 <metadata>
  <rdf:RDF xmlns:cc="http://creativecommons.org/ns#" xmlns:dc="http://purl.org/dc/elements/1.1/" xmlns:rdf="http://www.w3.org/1999/02/22-rdf-syntax-ns#">
   <cc:Work>
    <dc:type rdf:resource="http://purl.org/dc/dcmitype/StillImage"/>
    <dc:date>2022-05-29T17:24:15.674152</dc:date>
    <dc:format>image/svg+xml</dc:format>
    <dc:creator>
     <cc:Agent>
      <dc:title>Matplotlib v3.3.4, https://matplotlib.org/</dc:title>
     </cc:Agent>
    </dc:creator>
   </cc:Work>
  </rdf:RDF>
 </metadata>
 <defs>
  <style type="text/css">*{stroke-linecap:butt;stroke-linejoin:round;}</style>
 </defs>
 <g id="figure_1">
  <g id="patch_1">
   <path d="M 0 504 
L 864 504 
L 864 0 
L 0 0 
z
" style="fill:#ffffff;"/>
  </g>
  <g id="axes_1">
   <g id="patch_2">
    <path d="M 108 448.56 
L 643.68 448.56 
L 643.68 60.48 
L 108 60.48 
z
" style="fill:#ffffff;"/>
   </g>
   <g id="matplotlib.axis_1">
    <g id="xtick_1">
     <g id="line2d_1">
      <defs>
       <path d="M 0 0 
L 0 3.5 
" id="mbf5728ae40" style="stroke:#000000;stroke-width:0.8;"/>
      </defs>
      <g>
       <use style="stroke:#000000;stroke-width:0.8;" x="132.349091" xlink:href="#mbf5728ae40" y="448.56"/>
      </g>
     </g>
     <g id="text_1">
      <!-- 11:15:39 -->
      <g transform="translate(135.108466 500.4725)rotate(-90)scale(0.1 -0.1)">
       <defs>
        <path d="M 12.40625 8.296875 
L 28.515625 8.296875 
L 28.515625 63.921875 
L 10.984375 60.40625 
L 10.984375 69.390625 
L 28.421875 72.90625 
L 38.28125 72.90625 
L 38.28125 8.296875 
L 54.390625 8.296875 
L 54.390625 0 
L 12.40625 0 
z
" id="DejaVuSans-49"/>
        <path d="M 11.71875 12.40625 
L 22.015625 12.40625 
L 22.015625 0 
L 11.71875 0 
z
M 11.71875 51.703125 
L 22.015625 51.703125 
L 22.015625 39.3125 
L 11.71875 39.3125 
z
" id="DejaVuSans-58"/>
        <path d="M 10.796875 72.90625 
L 49.515625 72.90625 
L 49.515625 64.59375 
L 19.828125 64.59375 
L 19.828125 46.734375 
Q 21.96875 47.46875 24.109375 47.828125 
Q 26.265625 48.1875 28.421875 48.1875 
Q 40.625 48.1875 47.75 41.5 
Q 54.890625 34.8125 54.890625 23.390625 
Q 54.890625 11.625 47.5625 5.09375 
Q 40.234375 -1.421875 26.90625 -1.421875 
Q 22.3125 -1.421875 17.546875 -0.640625 
Q 12.796875 0.140625 7.71875 1.703125 
L 7.71875 11.625 
Q 12.109375 9.234375 16.796875 8.0625 
Q 21.484375 6.890625 26.703125 6.890625 
Q 35.15625 6.890625 40.078125 11.328125 
Q 45.015625 15.765625 45.015625 23.390625 
Q 45.015625 31 40.078125 35.4375 
Q 35.15625 39.890625 26.703125 39.890625 
Q 22.75 39.890625 18.8125 39.015625 
Q 14.890625 38.140625 10.796875 36.28125 
z
" id="DejaVuSans-53"/>
        <path d="M 40.578125 39.3125 
Q 47.65625 37.796875 51.625 33 
Q 55.609375 28.21875 55.609375 21.1875 
Q 55.609375 10.40625 48.1875 4.484375 
Q 40.765625 -1.421875 27.09375 -1.421875 
Q 22.515625 -1.421875 17.65625 -0.515625 
Q 12.796875 0.390625 7.625 2.203125 
L 7.625 11.71875 
Q 11.71875 9.328125 16.59375 8.109375 
Q 21.484375 6.890625 26.8125 6.890625 
Q 36.078125 6.890625 40.9375 10.546875 
Q 45.796875 14.203125 45.796875 21.1875 
Q 45.796875 27.640625 41.28125 31.265625 
Q 36.765625 34.90625 28.71875 34.90625 
L 20.21875 34.90625 
L 20.21875 43.015625 
L 29.109375 43.015625 
Q 36.375 43.015625 40.234375 45.921875 
Q 44.09375 48.828125 44.09375 54.296875 
Q 44.09375 59.90625 40.109375 62.90625 
Q 36.140625 65.921875 28.71875 65.921875 
Q 24.65625 65.921875 20.015625 65.03125 
Q 15.375 64.15625 9.8125 62.3125 
L 9.8125 71.09375 
Q 15.4375 72.65625 20.34375 73.4375 
Q 25.25 74.21875 29.59375 74.21875 
Q 40.828125 74.21875 47.359375 69.109375 
Q 53.90625 64.015625 53.90625 55.328125 
Q 53.90625 49.265625 50.4375 45.09375 
Q 46.96875 40.921875 40.578125 39.3125 
z
" id="DejaVuSans-51"/>
        <path d="M 10.984375 1.515625 
L 10.984375 10.5 
Q 14.703125 8.734375 18.5 7.8125 
Q 22.3125 6.890625 25.984375 6.890625 
Q 35.75 6.890625 40.890625 13.453125 
Q 46.046875 20.015625 46.78125 33.40625 
Q 43.953125 29.203125 39.59375 26.953125 
Q 35.25 24.703125 29.984375 24.703125 
Q 19.046875 24.703125 12.671875 31.3125 
Q 6.296875 37.9375 6.296875 49.421875 
Q 6.296875 60.640625 12.9375 67.421875 
Q 19.578125 74.21875 30.609375 74.21875 
Q 43.265625 74.21875 49.921875 64.515625 
Q 56.59375 54.828125 56.59375 36.375 
Q 56.59375 19.140625 48.40625 8.859375 
Q 40.234375 -1.421875 26.421875 -1.421875 
Q 22.703125 -1.421875 18.890625 -0.6875 
Q 15.09375 0.046875 10.984375 1.515625 
z
M 30.609375 32.421875 
Q 37.25 32.421875 41.125 36.953125 
Q 45.015625 41.5 45.015625 49.421875 
Q 45.015625 57.28125 41.125 61.84375 
Q 37.25 66.40625 30.609375 66.40625 
Q 23.96875 66.40625 20.09375 61.84375 
Q 16.21875 57.28125 16.21875 49.421875 
Q 16.21875 41.5 20.09375 36.953125 
Q 23.96875 32.421875 30.609375 32.421875 
z
" id="DejaVuSans-57"/>
       </defs>
       <use xlink:href="#DejaVuSans-49"/>
       <use x="63.623047" xlink:href="#DejaVuSans-49"/>
       <use x="127.246094" xlink:href="#DejaVuSans-58"/>
       <use x="160.9375" xlink:href="#DejaVuSans-49"/>
       <use x="224.560547" xlink:href="#DejaVuSans-53"/>
       <use x="288.183594" xlink:href="#DejaVuSans-58"/>
       <use x="321.875" xlink:href="#DejaVuSans-51"/>
       <use x="385.498047" xlink:href="#DejaVuSans-57"/>
      </g>
     </g>
    </g>
    <g id="xtick_2">
     <g id="line2d_2">
      <g>
       <use style="stroke:#000000;stroke-width:0.8;" x="156.243059" xlink:href="#mbf5728ae40" y="448.56"/>
      </g>
     </g>
     <g id="text_2">
      <!-- 11:16:26 -->
      <g transform="translate(159.002434 500.4725)rotate(-90)scale(0.1 -0.1)">
       <defs>
        <path d="M 33.015625 40.375 
Q 26.375 40.375 22.484375 35.828125 
Q 18.609375 31.296875 18.609375 23.390625 
Q 18.609375 15.53125 22.484375 10.953125 
Q 26.375 6.390625 33.015625 6.390625 
Q 39.65625 6.390625 43.53125 10.953125 
Q 47.40625 15.53125 47.40625 23.390625 
Q 47.40625 31.296875 43.53125 35.828125 
Q 39.65625 40.375 33.015625 40.375 
z
M 52.59375 71.296875 
L 52.59375 62.3125 
Q 48.875 64.0625 45.09375 64.984375 
Q 41.3125 65.921875 37.59375 65.921875 
Q 27.828125 65.921875 22.671875 59.328125 
Q 17.53125 52.734375 16.796875 39.40625 
Q 19.671875 43.65625 24.015625 45.921875 
Q 28.375 48.1875 33.59375 48.1875 
Q 44.578125 48.1875 50.953125 41.515625 
Q 57.328125 34.859375 57.328125 23.390625 
Q 57.328125 12.15625 50.6875 5.359375 
Q 44.046875 -1.421875 33.015625 -1.421875 
Q 20.359375 -1.421875 13.671875 8.265625 
Q 6.984375 17.96875 6.984375 36.375 
Q 6.984375 53.65625 15.1875 63.9375 
Q 23.390625 74.21875 37.203125 74.21875 
Q 40.921875 74.21875 44.703125 73.484375 
Q 48.484375 72.75 52.59375 71.296875 
z
" id="DejaVuSans-54"/>
        <path d="M 19.1875 8.296875 
L 53.609375 8.296875 
L 53.609375 0 
L 7.328125 0 
L 7.328125 8.296875 
Q 12.9375 14.109375 22.625 23.890625 
Q 32.328125 33.6875 34.8125 36.53125 
Q 39.546875 41.84375 41.421875 45.53125 
Q 43.3125 49.21875 43.3125 52.78125 
Q 43.3125 58.59375 39.234375 62.25 
Q 35.15625 65.921875 28.609375 65.921875 
Q 23.96875 65.921875 18.8125 64.3125 
Q 13.671875 62.703125 7.8125 59.421875 
L 7.8125 69.390625 
Q 13.765625 71.78125 18.9375 73 
Q 24.125 74.21875 28.421875 74.21875 
Q 39.75 74.21875 46.484375 68.546875 
Q 53.21875 62.890625 53.21875 53.421875 
Q 53.21875 48.921875 51.53125 44.890625 
Q 49.859375 40.875 45.40625 35.40625 
Q 44.1875 33.984375 37.640625 27.21875 
Q 31.109375 20.453125 19.1875 8.296875 
z
" id="DejaVuSans-50"/>
       </defs>
       <use xlink:href="#DejaVuSans-49"/>
       <use x="63.623047" xlink:href="#DejaVuSans-49"/>
       <use x="127.246094" xlink:href="#DejaVuSans-58"/>
       <use x="160.9375" xlink:href="#DejaVuSans-49"/>
       <use x="224.560547" xlink:href="#DejaVuSans-54"/>
       <use x="288.183594" xlink:href="#DejaVuSans-58"/>
       <use x="321.875" xlink:href="#DejaVuSans-50"/>
       <use x="385.498047" xlink:href="#DejaVuSans-54"/>
      </g>
     </g>
    </g>
    <g id="xtick_3">
     <g id="line2d_3">
      <g>
       <use style="stroke:#000000;stroke-width:0.8;" x="180.137026" xlink:href="#mbf5728ae40" y="448.56"/>
      </g>
     </g>
     <g id="text_3">
      <!-- 11:17:13 -->
      <g transform="translate(182.896401 500.4725)rotate(-90)scale(0.1 -0.1)">
       <defs>
        <path d="M 8.203125 72.90625 
L 55.078125 72.90625 
L 55.078125 68.703125 
L 28.609375 0 
L 18.3125 0 
L 43.21875 64.59375 
L 8.203125 64.59375 
z
" id="DejaVuSans-55"/>
       </defs>
       <use xlink:href="#DejaVuSans-49"/>
       <use x="63.623047" xlink:href="#DejaVuSans-49"/>
       <use x="127.246094" xlink:href="#DejaVuSans-58"/>
       <use x="160.9375" xlink:href="#DejaVuSans-49"/>
       <use x="224.560547" xlink:href="#DejaVuSans-55"/>
       <use x="288.183594" xlink:href="#DejaVuSans-58"/>
       <use x="321.875" xlink:href="#DejaVuSans-49"/>
       <use x="385.498047" xlink:href="#DejaVuSans-51"/>
      </g>
     </g>
    </g>
    <g id="xtick_4">
     <g id="line2d_4">
      <g>
       <use style="stroke:#000000;stroke-width:0.8;" x="204.030994" xlink:href="#mbf5728ae40" y="448.56"/>
      </g>
     </g>
     <g id="text_4">
      <!-- 11:18:01 -->
      <g transform="translate(206.790369 500.4725)rotate(-90)scale(0.1 -0.1)">
       <defs>
        <path d="M 31.78125 34.625 
Q 24.75 34.625 20.71875 30.859375 
Q 16.703125 27.09375 16.703125 20.515625 
Q 16.703125 13.921875 20.71875 10.15625 
Q 24.75 6.390625 31.78125 6.390625 
Q 38.8125 6.390625 42.859375 10.171875 
Q 46.921875 13.96875 46.921875 20.515625 
Q 46.921875 27.09375 42.890625 30.859375 
Q 38.875 34.625 31.78125 34.625 
z
M 21.921875 38.8125 
Q 15.578125 40.375 12.03125 44.71875 
Q 8.5 49.078125 8.5 55.328125 
Q 8.5 64.0625 14.71875 69.140625 
Q 20.953125 74.21875 31.78125 74.21875 
Q 42.671875 74.21875 48.875 69.140625 
Q 55.078125 64.0625 55.078125 55.328125 
Q 55.078125 49.078125 51.53125 44.71875 
Q 48 40.375 41.703125 38.8125 
Q 48.828125 37.15625 52.796875 32.3125 
Q 56.78125 27.484375 56.78125 20.515625 
Q 56.78125 9.90625 50.3125 4.234375 
Q 43.84375 -1.421875 31.78125 -1.421875 
Q 19.734375 -1.421875 13.25 4.234375 
Q 6.78125 9.90625 6.78125 20.515625 
Q 6.78125 27.484375 10.78125 32.3125 
Q 14.796875 37.15625 21.921875 38.8125 
z
M 18.3125 54.390625 
Q 18.3125 48.734375 21.84375 45.5625 
Q 25.390625 42.390625 31.78125 42.390625 
Q 38.140625 42.390625 41.71875 45.5625 
Q 45.3125 48.734375 45.3125 54.390625 
Q 45.3125 60.0625 41.71875 63.234375 
Q 38.140625 66.40625 31.78125 66.40625 
Q 25.390625 66.40625 21.84375 63.234375 
Q 18.3125 60.0625 18.3125 54.390625 
z
" id="DejaVuSans-56"/>
        <path d="M 31.78125 66.40625 
Q 24.171875 66.40625 20.328125 58.90625 
Q 16.5 51.421875 16.5 36.375 
Q 16.5 21.390625 20.328125 13.890625 
Q 24.171875 6.390625 31.78125 6.390625 
Q 39.453125 6.390625 43.28125 13.890625 
Q 47.125 21.390625 47.125 36.375 
Q 47.125 51.421875 43.28125 58.90625 
Q 39.453125 66.40625 31.78125 66.40625 
z
M 31.78125 74.21875 
Q 44.046875 74.21875 50.515625 64.515625 
Q 56.984375 54.828125 56.984375 36.375 
Q 56.984375 17.96875 50.515625 8.265625 
Q 44.046875 -1.421875 31.78125 -1.421875 
Q 19.53125 -1.421875 13.0625 8.265625 
Q 6.59375 17.96875 6.59375 36.375 
Q 6.59375 54.828125 13.0625 64.515625 
Q 19.53125 74.21875 31.78125 74.21875 
z
" id="DejaVuSans-48"/>
       </defs>
       <use xlink:href="#DejaVuSans-49"/>
       <use x="63.623047" xlink:href="#DejaVuSans-49"/>
       <use x="127.246094" xlink:href="#DejaVuSans-58"/>
       <use x="160.9375" xlink:href="#DejaVuSans-49"/>
       <use x="224.560547" xlink:href="#DejaVuSans-56"/>
       <use x="288.183594" xlink:href="#DejaVuSans-58"/>
       <use x="321.875" xlink:href="#DejaVuSans-48"/>
       <use x="385.498047" xlink:href="#DejaVuSans-49"/>
      </g>
     </g>
    </g>
    <g id="xtick_5">
     <g id="line2d_5">
      <g>
       <use style="stroke:#000000;stroke-width:0.8;" x="227.924962" xlink:href="#mbf5728ae40" y="448.56"/>
      </g>
     </g>
     <g id="text_5">
      <!-- 11:18:48 -->
      <g transform="translate(230.684337 500.4725)rotate(-90)scale(0.1 -0.1)">
       <defs>
        <path d="M 37.796875 64.3125 
L 12.890625 25.390625 
L 37.796875 25.390625 
z
M 35.203125 72.90625 
L 47.609375 72.90625 
L 47.609375 25.390625 
L 58.015625 25.390625 
L 58.015625 17.1875 
L 47.609375 17.1875 
L 47.609375 0 
L 37.796875 0 
L 37.796875 17.1875 
L 4.890625 17.1875 
L 4.890625 26.703125 
z
" id="DejaVuSans-52"/>
       </defs>
       <use xlink:href="#DejaVuSans-49"/>
       <use x="63.623047" xlink:href="#DejaVuSans-49"/>
       <use x="127.246094" xlink:href="#DejaVuSans-58"/>
       <use x="160.9375" xlink:href="#DejaVuSans-49"/>
       <use x="224.560547" xlink:href="#DejaVuSans-56"/>
       <use x="288.183594" xlink:href="#DejaVuSans-58"/>
       <use x="321.875" xlink:href="#DejaVuSans-52"/>
       <use x="385.498047" xlink:href="#DejaVuSans-56"/>
      </g>
     </g>
    </g>
    <g id="xtick_6">
     <g id="line2d_6">
      <g>
       <use style="stroke:#000000;stroke-width:0.8;" x="251.818929" xlink:href="#mbf5728ae40" y="448.56"/>
      </g>
     </g>
     <g id="text_6">
      <!-- 11:19:36 -->
      <g transform="translate(254.578304 500.4725)rotate(-90)scale(0.1 -0.1)">
       <use xlink:href="#DejaVuSans-49"/>
       <use x="63.623047" xlink:href="#DejaVuSans-49"/>
       <use x="127.246094" xlink:href="#DejaVuSans-58"/>
       <use x="160.9375" xlink:href="#DejaVuSans-49"/>
       <use x="224.560547" xlink:href="#DejaVuSans-57"/>
       <use x="288.183594" xlink:href="#DejaVuSans-58"/>
       <use x="321.875" xlink:href="#DejaVuSans-51"/>
       <use x="385.498047" xlink:href="#DejaVuSans-54"/>
      </g>
     </g>
    </g>
    <g id="xtick_7">
     <g id="line2d_7">
      <g>
       <use style="stroke:#000000;stroke-width:0.8;" x="275.712897" xlink:href="#mbf5728ae40" y="448.56"/>
      </g>
     </g>
     <g id="text_7">
      <!-- 11:20:23 -->
      <g transform="translate(278.472272 500.4725)rotate(-90)scale(0.1 -0.1)">
       <use xlink:href="#DejaVuSans-49"/>
       <use x="63.623047" xlink:href="#DejaVuSans-49"/>
       <use x="127.246094" xlink:href="#DejaVuSans-58"/>
       <use x="160.9375" xlink:href="#DejaVuSans-50"/>
       <use x="224.560547" xlink:href="#DejaVuSans-48"/>
       <use x="288.183594" xlink:href="#DejaVuSans-58"/>
       <use x="321.875" xlink:href="#DejaVuSans-50"/>
       <use x="385.498047" xlink:href="#DejaVuSans-51"/>
      </g>
     </g>
    </g>
    <g id="xtick_8">
     <g id="line2d_8">
      <g>
       <use style="stroke:#000000;stroke-width:0.8;" x="299.606865" xlink:href="#mbf5728ae40" y="448.56"/>
      </g>
     </g>
     <g id="text_8">
      <!-- 11:21:11 -->
      <g transform="translate(302.36624 500.4725)rotate(-90)scale(0.1 -0.1)">
       <use xlink:href="#DejaVuSans-49"/>
       <use x="63.623047" xlink:href="#DejaVuSans-49"/>
       <use x="127.246094" xlink:href="#DejaVuSans-58"/>
       <use x="160.9375" xlink:href="#DejaVuSans-50"/>
       <use x="224.560547" xlink:href="#DejaVuSans-49"/>
       <use x="288.183594" xlink:href="#DejaVuSans-58"/>
       <use x="321.875" xlink:href="#DejaVuSans-49"/>
       <use x="385.498047" xlink:href="#DejaVuSans-49"/>
      </g>
     </g>
    </g>
    <g id="xtick_9">
     <g id="line2d_9">
      <g>
       <use style="stroke:#000000;stroke-width:0.8;" x="323.500833" xlink:href="#mbf5728ae40" y="448.56"/>
      </g>
     </g>
     <g id="text_9">
      <!-- 11:21:58 -->
      <g transform="translate(326.260208 500.4725)rotate(-90)scale(0.1 -0.1)">
       <use xlink:href="#DejaVuSans-49"/>
       <use x="63.623047" xlink:href="#DejaVuSans-49"/>
       <use x="127.246094" xlink:href="#DejaVuSans-58"/>
       <use x="160.9375" xlink:href="#DejaVuSans-50"/>
       <use x="224.560547" xlink:href="#DejaVuSans-49"/>
       <use x="288.183594" xlink:href="#DejaVuSans-58"/>
       <use x="321.875" xlink:href="#DejaVuSans-53"/>
       <use x="385.498047" xlink:href="#DejaVuSans-56"/>
      </g>
     </g>
    </g>
    <g id="xtick_10">
     <g id="line2d_10">
      <g>
       <use style="stroke:#000000;stroke-width:0.8;" x="347.3948" xlink:href="#mbf5728ae40" y="448.56"/>
      </g>
     </g>
     <g id="text_10">
      <!-- 11:22:45 -->
      <g transform="translate(350.154175 500.4725)rotate(-90)scale(0.1 -0.1)">
       <use xlink:href="#DejaVuSans-49"/>
       <use x="63.623047" xlink:href="#DejaVuSans-49"/>
       <use x="127.246094" xlink:href="#DejaVuSans-58"/>
       <use x="160.9375" xlink:href="#DejaVuSans-50"/>
       <use x="224.560547" xlink:href="#DejaVuSans-50"/>
       <use x="288.183594" xlink:href="#DejaVuSans-58"/>
       <use x="321.875" xlink:href="#DejaVuSans-52"/>
       <use x="385.498047" xlink:href="#DejaVuSans-53"/>
      </g>
     </g>
    </g>
    <g id="xtick_11">
     <g id="line2d_11">
      <g>
       <use style="stroke:#000000;stroke-width:0.8;" x="371.288768" xlink:href="#mbf5728ae40" y="448.56"/>
      </g>
     </g>
     <g id="text_11">
      <!-- 11:23:33 -->
      <g transform="translate(374.048143 500.4725)rotate(-90)scale(0.1 -0.1)">
       <use xlink:href="#DejaVuSans-49"/>
       <use x="63.623047" xlink:href="#DejaVuSans-49"/>
       <use x="127.246094" xlink:href="#DejaVuSans-58"/>
       <use x="160.9375" xlink:href="#DejaVuSans-50"/>
       <use x="224.560547" xlink:href="#DejaVuSans-51"/>
       <use x="288.183594" xlink:href="#DejaVuSans-58"/>
       <use x="321.875" xlink:href="#DejaVuSans-51"/>
       <use x="385.498047" xlink:href="#DejaVuSans-51"/>
      </g>
     </g>
    </g>
    <g id="xtick_12">
     <g id="line2d_12">
      <g>
       <use style="stroke:#000000;stroke-width:0.8;" x="395.182736" xlink:href="#mbf5728ae40" y="448.56"/>
      </g>
     </g>
     <g id="text_12">
      <!-- 11:24:20 -->
      <g transform="translate(397.942111 500.4725)rotate(-90)scale(0.1 -0.1)">
       <use xlink:href="#DejaVuSans-49"/>
       <use x="63.623047" xlink:href="#DejaVuSans-49"/>
       <use x="127.246094" xlink:href="#DejaVuSans-58"/>
       <use x="160.9375" xlink:href="#DejaVuSans-50"/>
       <use x="224.560547" xlink:href="#DejaVuSans-52"/>
       <use x="288.183594" xlink:href="#DejaVuSans-58"/>
       <use x="321.875" xlink:href="#DejaVuSans-50"/>
       <use x="385.498047" xlink:href="#DejaVuSans-48"/>
      </g>
     </g>
    </g>
    <g id="xtick_13">
     <g id="line2d_13">
      <g>
       <use style="stroke:#000000;stroke-width:0.8;" x="419.076703" xlink:href="#mbf5728ae40" y="448.56"/>
      </g>
     </g>
     <g id="text_13">
      <!-- 11:25:07 -->
      <g transform="translate(421.836078 500.4725)rotate(-90)scale(0.1 -0.1)">
       <use xlink:href="#DejaVuSans-49"/>
       <use x="63.623047" xlink:href="#DejaVuSans-49"/>
       <use x="127.246094" xlink:href="#DejaVuSans-58"/>
       <use x="160.9375" xlink:href="#DejaVuSans-50"/>
       <use x="224.560547" xlink:href="#DejaVuSans-53"/>
       <use x="288.183594" xlink:href="#DejaVuSans-58"/>
       <use x="321.875" xlink:href="#DejaVuSans-48"/>
       <use x="385.498047" xlink:href="#DejaVuSans-55"/>
      </g>
     </g>
    </g>
    <g id="xtick_14">
     <g id="line2d_14">
      <g>
       <use style="stroke:#000000;stroke-width:0.8;" x="442.970671" xlink:href="#mbf5728ae40" y="448.56"/>
      </g>
     </g>
     <g id="text_14">
      <!-- 11:25:55 -->
      <g transform="translate(445.730046 500.4725)rotate(-90)scale(0.1 -0.1)">
       <use xlink:href="#DejaVuSans-49"/>
       <use x="63.623047" xlink:href="#DejaVuSans-49"/>
       <use x="127.246094" xlink:href="#DejaVuSans-58"/>
       <use x="160.9375" xlink:href="#DejaVuSans-50"/>
       <use x="224.560547" xlink:href="#DejaVuSans-53"/>
       <use x="288.183594" xlink:href="#DejaVuSans-58"/>
       <use x="321.875" xlink:href="#DejaVuSans-53"/>
       <use x="385.498047" xlink:href="#DejaVuSans-53"/>
      </g>
     </g>
    </g>
    <g id="xtick_15">
     <g id="line2d_15">
      <g>
       <use style="stroke:#000000;stroke-width:0.8;" x="466.864639" xlink:href="#mbf5728ae40" y="448.56"/>
      </g>
     </g>
     <g id="text_15">
      <!-- 11:26:42 -->
      <g transform="translate(469.624014 500.4725)rotate(-90)scale(0.1 -0.1)">
       <use xlink:href="#DejaVuSans-49"/>
       <use x="63.623047" xlink:href="#DejaVuSans-49"/>
       <use x="127.246094" xlink:href="#DejaVuSans-58"/>
       <use x="160.9375" xlink:href="#DejaVuSans-50"/>
       <use x="224.560547" xlink:href="#DejaVuSans-54"/>
       <use x="288.183594" xlink:href="#DejaVuSans-58"/>
       <use x="321.875" xlink:href="#DejaVuSans-52"/>
       <use x="385.498047" xlink:href="#DejaVuSans-50"/>
      </g>
     </g>
    </g>
    <g id="xtick_16">
     <g id="line2d_16">
      <g>
       <use style="stroke:#000000;stroke-width:0.8;" x="490.758607" xlink:href="#mbf5728ae40" y="448.56"/>
      </g>
     </g>
     <g id="text_16">
      <!-- 11:27:29 -->
      <g transform="translate(493.517982 500.4725)rotate(-90)scale(0.1 -0.1)">
       <use xlink:href="#DejaVuSans-49"/>
       <use x="63.623047" xlink:href="#DejaVuSans-49"/>
       <use x="127.246094" xlink:href="#DejaVuSans-58"/>
       <use x="160.9375" xlink:href="#DejaVuSans-50"/>
       <use x="224.560547" xlink:href="#DejaVuSans-55"/>
       <use x="288.183594" xlink:href="#DejaVuSans-58"/>
       <use x="321.875" xlink:href="#DejaVuSans-50"/>
       <use x="385.498047" xlink:href="#DejaVuSans-57"/>
      </g>
     </g>
    </g>
    <g id="xtick_17">
     <g id="line2d_17">
      <g>
       <use style="stroke:#000000;stroke-width:0.8;" x="514.652574" xlink:href="#mbf5728ae40" y="448.56"/>
      </g>
     </g>
     <g id="text_17">
      <!-- 11:28:16 -->
      <g transform="translate(517.411949 500.4725)rotate(-90)scale(0.1 -0.1)">
       <use xlink:href="#DejaVuSans-49"/>
       <use x="63.623047" xlink:href="#DejaVuSans-49"/>
       <use x="127.246094" xlink:href="#DejaVuSans-58"/>
       <use x="160.9375" xlink:href="#DejaVuSans-50"/>
       <use x="224.560547" xlink:href="#DejaVuSans-56"/>
       <use x="288.183594" xlink:href="#DejaVuSans-58"/>
       <use x="321.875" xlink:href="#DejaVuSans-49"/>
       <use x="385.498047" xlink:href="#DejaVuSans-54"/>
      </g>
     </g>
    </g>
    <g id="xtick_18">
     <g id="line2d_18">
      <g>
       <use style="stroke:#000000;stroke-width:0.8;" x="538.546542" xlink:href="#mbf5728ae40" y="448.56"/>
      </g>
     </g>
     <g id="text_18">
      <!-- 11:29:04 -->
      <g transform="translate(541.305917 500.4725)rotate(-90)scale(0.1 -0.1)">
       <use xlink:href="#DejaVuSans-49"/>
       <use x="63.623047" xlink:href="#DejaVuSans-49"/>
       <use x="127.246094" xlink:href="#DejaVuSans-58"/>
       <use x="160.9375" xlink:href="#DejaVuSans-50"/>
       <use x="224.560547" xlink:href="#DejaVuSans-57"/>
       <use x="288.183594" xlink:href="#DejaVuSans-58"/>
       <use x="321.875" xlink:href="#DejaVuSans-48"/>
       <use x="385.498047" xlink:href="#DejaVuSans-52"/>
      </g>
     </g>
    </g>
    <g id="xtick_19">
     <g id="line2d_19">
      <g>
       <use style="stroke:#000000;stroke-width:0.8;" x="562.44051" xlink:href="#mbf5728ae40" y="448.56"/>
      </g>
     </g>
     <g id="text_19">
      <!-- 11:29:51 -->
      <g transform="translate(565.199885 500.4725)rotate(-90)scale(0.1 -0.1)">
       <use xlink:href="#DejaVuSans-49"/>
       <use x="63.623047" xlink:href="#DejaVuSans-49"/>
       <use x="127.246094" xlink:href="#DejaVuSans-58"/>
       <use x="160.9375" xlink:href="#DejaVuSans-50"/>
       <use x="224.560547" xlink:href="#DejaVuSans-57"/>
       <use x="288.183594" xlink:href="#DejaVuSans-58"/>
       <use x="321.875" xlink:href="#DejaVuSans-53"/>
       <use x="385.498047" xlink:href="#DejaVuSans-49"/>
      </g>
     </g>
    </g>
    <g id="xtick_20">
     <g id="line2d_20">
      <g>
       <use style="stroke:#000000;stroke-width:0.8;" x="586.334477" xlink:href="#mbf5728ae40" y="448.56"/>
      </g>
     </g>
     <g id="text_20">
      <!-- 11:30:38 -->
      <g transform="translate(589.093852 500.4725)rotate(-90)scale(0.1 -0.1)">
       <use xlink:href="#DejaVuSans-49"/>
       <use x="63.623047" xlink:href="#DejaVuSans-49"/>
       <use x="127.246094" xlink:href="#DejaVuSans-58"/>
       <use x="160.9375" xlink:href="#DejaVuSans-51"/>
       <use x="224.560547" xlink:href="#DejaVuSans-48"/>
       <use x="288.183594" xlink:href="#DejaVuSans-58"/>
       <use x="321.875" xlink:href="#DejaVuSans-51"/>
       <use x="385.498047" xlink:href="#DejaVuSans-56"/>
      </g>
     </g>
    </g>
    <g id="xtick_21">
     <g id="line2d_21">
      <g>
       <use style="stroke:#000000;stroke-width:0.8;" x="610.228445" xlink:href="#mbf5728ae40" y="448.56"/>
      </g>
     </g>
     <g id="text_21">
      <!-- 11:31:25 -->
      <g transform="translate(612.98782 500.4725)rotate(-90)scale(0.1 -0.1)">
       <use xlink:href="#DejaVuSans-49"/>
       <use x="63.623047" xlink:href="#DejaVuSans-49"/>
       <use x="127.246094" xlink:href="#DejaVuSans-58"/>
       <use x="160.9375" xlink:href="#DejaVuSans-51"/>
       <use x="224.560547" xlink:href="#DejaVuSans-49"/>
       <use x="288.183594" xlink:href="#DejaVuSans-58"/>
       <use x="321.875" xlink:href="#DejaVuSans-50"/>
       <use x="385.498047" xlink:href="#DejaVuSans-53"/>
      </g>
     </g>
    </g>
    <g id="text_22">
     <!-- timestamp -->
     <g transform="translate(354.264375 510.55125)scale(0.08 -0.08)">
      <defs>
       <path d="M 18.3125 70.21875 
L 18.3125 54.6875 
L 36.8125 54.6875 
L 36.8125 47.703125 
L 18.3125 47.703125 
L 18.3125 18.015625 
Q 18.3125 11.328125 20.140625 9.421875 
Q 21.96875 7.515625 27.59375 7.515625 
L 36.8125 7.515625 
L 36.8125 0 
L 27.59375 0 
Q 17.1875 0 13.234375 3.875 
Q 9.28125 7.765625 9.28125 18.015625 
L 9.28125 47.703125 
L 2.6875 47.703125 
L 2.6875 54.6875 
L 9.28125 54.6875 
L 9.28125 70.21875 
z
" id="DejaVuSans-116"/>
       <path d="M 9.421875 54.6875 
L 18.40625 54.6875 
L 18.40625 0 
L 9.421875 0 
z
M 9.421875 75.984375 
L 18.40625 75.984375 
L 18.40625 64.59375 
L 9.421875 64.59375 
z
" id="DejaVuSans-105"/>
       <path d="M 52 44.1875 
Q 55.375 50.25 60.0625 53.125 
Q 64.75 56 71.09375 56 
Q 79.640625 56 84.28125 50.015625 
Q 88.921875 44.046875 88.921875 33.015625 
L 88.921875 0 
L 79.890625 0 
L 79.890625 32.71875 
Q 79.890625 40.578125 77.09375 44.375 
Q 74.3125 48.1875 68.609375 48.1875 
Q 61.625 48.1875 57.5625 43.546875 
Q 53.515625 38.921875 53.515625 30.90625 
L 53.515625 0 
L 44.484375 0 
L 44.484375 32.71875 
Q 44.484375 40.625 41.703125 44.40625 
Q 38.921875 48.1875 33.109375 48.1875 
Q 26.21875 48.1875 22.15625 43.53125 
Q 18.109375 38.875 18.109375 30.90625 
L 18.109375 0 
L 9.078125 0 
L 9.078125 54.6875 
L 18.109375 54.6875 
L 18.109375 46.1875 
Q 21.1875 51.21875 25.484375 53.609375 
Q 29.78125 56 35.6875 56 
Q 41.65625 56 45.828125 52.96875 
Q 50 49.953125 52 44.1875 
z
" id="DejaVuSans-109"/>
       <path d="M 56.203125 29.59375 
L 56.203125 25.203125 
L 14.890625 25.203125 
Q 15.484375 15.921875 20.484375 11.0625 
Q 25.484375 6.203125 34.421875 6.203125 
Q 39.59375 6.203125 44.453125 7.46875 
Q 49.3125 8.734375 54.109375 11.28125 
L 54.109375 2.78125 
Q 49.265625 0.734375 44.1875 -0.34375 
Q 39.109375 -1.421875 33.890625 -1.421875 
Q 20.796875 -1.421875 13.15625 6.1875 
Q 5.515625 13.8125 5.515625 26.8125 
Q 5.515625 40.234375 12.765625 48.109375 
Q 20.015625 56 32.328125 56 
Q 43.359375 56 49.78125 48.890625 
Q 56.203125 41.796875 56.203125 29.59375 
z
M 47.21875 32.234375 
Q 47.125 39.59375 43.09375 43.984375 
Q 39.0625 48.390625 32.421875 48.390625 
Q 24.90625 48.390625 20.390625 44.140625 
Q 15.875 39.890625 15.1875 32.171875 
z
" id="DejaVuSans-101"/>
       <path d="M 44.28125 53.078125 
L 44.28125 44.578125 
Q 40.484375 46.53125 36.375 47.5 
Q 32.28125 48.484375 27.875 48.484375 
Q 21.1875 48.484375 17.84375 46.4375 
Q 14.5 44.390625 14.5 40.28125 
Q 14.5 37.15625 16.890625 35.375 
Q 19.28125 33.59375 26.515625 31.984375 
L 29.59375 31.296875 
Q 39.15625 29.25 43.1875 25.515625 
Q 47.21875 21.78125 47.21875 15.09375 
Q 47.21875 7.46875 41.1875 3.015625 
Q 35.15625 -1.421875 24.609375 -1.421875 
Q 20.21875 -1.421875 15.453125 -0.5625 
Q 10.6875 0.296875 5.421875 2 
L 5.421875 11.28125 
Q 10.40625 8.6875 15.234375 7.390625 
Q 20.0625 6.109375 24.8125 6.109375 
Q 31.15625 6.109375 34.5625 8.28125 
Q 37.984375 10.453125 37.984375 14.40625 
Q 37.984375 18.0625 35.515625 20.015625 
Q 33.0625 21.96875 24.703125 23.78125 
L 21.578125 24.515625 
Q 13.234375 26.265625 9.515625 29.90625 
Q 5.8125 33.546875 5.8125 39.890625 
Q 5.8125 47.609375 11.28125 51.796875 
Q 16.75 56 26.8125 56 
Q 31.78125 56 36.171875 55.265625 
Q 40.578125 54.546875 44.28125 53.078125 
z
" id="DejaVuSans-115"/>
       <path d="M 34.28125 27.484375 
Q 23.390625 27.484375 19.1875 25 
Q 14.984375 22.515625 14.984375 16.5 
Q 14.984375 11.71875 18.140625 8.90625 
Q 21.296875 6.109375 26.703125 6.109375 
Q 34.1875 6.109375 38.703125 11.40625 
Q 43.21875 16.703125 43.21875 25.484375 
L 43.21875 27.484375 
z
M 52.203125 31.203125 
L 52.203125 0 
L 43.21875 0 
L 43.21875 8.296875 
Q 40.140625 3.328125 35.546875 0.953125 
Q 30.953125 -1.421875 24.3125 -1.421875 
Q 15.921875 -1.421875 10.953125 3.296875 
Q 6 8.015625 6 15.921875 
Q 6 25.140625 12.171875 29.828125 
Q 18.359375 34.515625 30.609375 34.515625 
L 43.21875 34.515625 
L 43.21875 35.40625 
Q 43.21875 41.609375 39.140625 45 
Q 35.0625 48.390625 27.6875 48.390625 
Q 23 48.390625 18.546875 47.265625 
Q 14.109375 46.140625 10.015625 43.890625 
L 10.015625 52.203125 
Q 14.9375 54.109375 19.578125 55.046875 
Q 24.21875 56 28.609375 56 
Q 40.484375 56 46.34375 49.84375 
Q 52.203125 43.703125 52.203125 31.203125 
z
" id="DejaVuSans-97"/>
       <path d="M 18.109375 8.203125 
L 18.109375 -20.796875 
L 9.078125 -20.796875 
L 9.078125 54.6875 
L 18.109375 54.6875 
L 18.109375 46.390625 
Q 20.953125 51.265625 25.265625 53.625 
Q 29.59375 56 35.59375 56 
Q 45.5625 56 51.78125 48.09375 
Q 58.015625 40.1875 58.015625 27.296875 
Q 58.015625 14.40625 51.78125 6.484375 
Q 45.5625 -1.421875 35.59375 -1.421875 
Q 29.59375 -1.421875 25.265625 0.953125 
Q 20.953125 3.328125 18.109375 8.203125 
z
M 48.6875 27.296875 
Q 48.6875 37.203125 44.609375 42.84375 
Q 40.53125 48.484375 33.40625 48.484375 
Q 26.265625 48.484375 22.1875 42.84375 
Q 18.109375 37.203125 18.109375 27.296875 
Q 18.109375 17.390625 22.1875 11.75 
Q 26.265625 6.109375 33.40625 6.109375 
Q 40.53125 6.109375 44.609375 11.75 
Q 48.6875 17.390625 48.6875 27.296875 
z
" id="DejaVuSans-112"/>
      </defs>
      <use xlink:href="#DejaVuSans-116"/>
      <use x="39.208984" xlink:href="#DejaVuSans-105"/>
      <use x="66.992188" xlink:href="#DejaVuSans-109"/>
      <use x="164.404297" xlink:href="#DejaVuSans-101"/>
      <use x="225.927734" xlink:href="#DejaVuSans-115"/>
      <use x="278.027344" xlink:href="#DejaVuSans-116"/>
      <use x="317.236328" xlink:href="#DejaVuSans-97"/>
      <use x="378.515625" xlink:href="#DejaVuSans-109"/>
      <use x="475.927734" xlink:href="#DejaVuSans-112"/>
     </g>
    </g>
   </g>
   <g id="matplotlib.axis_2">
    <g id="ytick_1">
     <g id="line2d_22">
      <defs>
       <path d="M 0 0 
L -3.5 0 
" id="m9fa4815078" style="stroke:#000000;stroke-width:0.8;"/>
      </defs>
      <g>
       <use style="stroke:#000000;stroke-width:0.8;" x="108" xlink:href="#m9fa4815078" y="406.938803"/>
      </g>
     </g>
     <g id="text_23">
      <!-- 11400 -->
      <g transform="translate(69.1875 410.738022)scale(0.1 -0.1)">
       <use xlink:href="#DejaVuSans-49"/>
       <use x="63.623047" xlink:href="#DejaVuSans-49"/>
       <use x="127.246094" xlink:href="#DejaVuSans-52"/>
       <use x="190.869141" xlink:href="#DejaVuSans-48"/>
       <use x="254.492188" xlink:href="#DejaVuSans-48"/>
      </g>
     </g>
    </g>
    <g id="ytick_2">
     <g id="line2d_23">
      <g>
       <use style="stroke:#000000;stroke-width:0.8;" x="108" xlink:href="#m9fa4815078" y="347.084571"/>
      </g>
     </g>
     <g id="text_24">
      <!-- 11600 -->
      <g transform="translate(69.1875 350.883789)scale(0.1 -0.1)">
       <use xlink:href="#DejaVuSans-49"/>
       <use x="63.623047" xlink:href="#DejaVuSans-49"/>
       <use x="127.246094" xlink:href="#DejaVuSans-54"/>
       <use x="190.869141" xlink:href="#DejaVuSans-48"/>
       <use x="254.492188" xlink:href="#DejaVuSans-48"/>
      </g>
     </g>
    </g>
    <g id="ytick_3">
     <g id="line2d_24">
      <g>
       <use style="stroke:#000000;stroke-width:0.8;" x="108" xlink:href="#m9fa4815078" y="287.230338"/>
      </g>
     </g>
     <g id="text_25">
      <!-- 11800 -->
      <g transform="translate(69.1875 291.029557)scale(0.1 -0.1)">
       <use xlink:href="#DejaVuSans-49"/>
       <use x="63.623047" xlink:href="#DejaVuSans-49"/>
       <use x="127.246094" xlink:href="#DejaVuSans-56"/>
       <use x="190.869141" xlink:href="#DejaVuSans-48"/>
       <use x="254.492188" xlink:href="#DejaVuSans-48"/>
      </g>
     </g>
    </g>
    <g id="ytick_4">
     <g id="line2d_25">
      <g>
       <use style="stroke:#000000;stroke-width:0.8;" x="108" xlink:href="#m9fa4815078" y="227.376106"/>
      </g>
     </g>
     <g id="text_26">
      <!-- 12000 -->
      <g transform="translate(69.1875 231.175324)scale(0.1 -0.1)">
       <use xlink:href="#DejaVuSans-49"/>
       <use x="63.623047" xlink:href="#DejaVuSans-50"/>
       <use x="127.246094" xlink:href="#DejaVuSans-48"/>
       <use x="190.869141" xlink:href="#DejaVuSans-48"/>
       <use x="254.492188" xlink:href="#DejaVuSans-48"/>
      </g>
     </g>
    </g>
    <g id="ytick_5">
     <g id="line2d_26">
      <g>
       <use style="stroke:#000000;stroke-width:0.8;" x="108" xlink:href="#m9fa4815078" y="167.521873"/>
      </g>
     </g>
     <g id="text_27">
      <!-- 12200 -->
      <g transform="translate(69.1875 171.321092)scale(0.1 -0.1)">
       <use xlink:href="#DejaVuSans-49"/>
       <use x="63.623047" xlink:href="#DejaVuSans-50"/>
       <use x="127.246094" xlink:href="#DejaVuSans-50"/>
       <use x="190.869141" xlink:href="#DejaVuSans-48"/>
       <use x="254.492188" xlink:href="#DejaVuSans-48"/>
      </g>
     </g>
    </g>
    <g id="ytick_6">
     <g id="line2d_27">
      <g>
       <use style="stroke:#000000;stroke-width:0.8;" x="108" xlink:href="#m9fa4815078" y="107.66764"/>
      </g>
     </g>
     <g id="text_28">
      <!-- 12400 -->
      <g transform="translate(69.1875 111.466859)scale(0.1 -0.1)">
       <use xlink:href="#DejaVuSans-49"/>
       <use x="63.623047" xlink:href="#DejaVuSans-50"/>
       <use x="127.246094" xlink:href="#DejaVuSans-52"/>
       <use x="190.869141" xlink:href="#DejaVuSans-48"/>
       <use x="254.492188" xlink:href="#DejaVuSans-48"/>
      </g>
     </g>
    </g>
    <g id="text_29">
     <!-- MB -->
     <g transform="translate(63.52375 260.715625)rotate(-90)scale(0.08 -0.08)">
      <defs>
       <path d="M 9.8125 72.90625 
L 24.515625 72.90625 
L 43.109375 23.296875 
L 61.8125 72.90625 
L 76.515625 72.90625 
L 76.515625 0 
L 66.890625 0 
L 66.890625 64.015625 
L 48.09375 14.015625 
L 38.1875 14.015625 
L 19.390625 64.015625 
L 19.390625 0 
L 9.8125 0 
z
" id="DejaVuSans-77"/>
       <path d="M 19.671875 34.8125 
L 19.671875 8.109375 
L 35.5 8.109375 
Q 43.453125 8.109375 47.28125 11.40625 
Q 51.125 14.703125 51.125 21.484375 
Q 51.125 28.328125 47.28125 31.5625 
Q 43.453125 34.8125 35.5 34.8125 
z
M 19.671875 64.796875 
L 19.671875 42.828125 
L 34.28125 42.828125 
Q 41.5 42.828125 45.03125 45.53125 
Q 48.578125 48.25 48.578125 53.8125 
Q 48.578125 59.328125 45.03125 62.0625 
Q 41.5 64.796875 34.28125 64.796875 
z
M 9.8125 72.90625 
L 35.015625 72.90625 
Q 46.296875 72.90625 52.390625 68.21875 
Q 58.5 63.53125 58.5 54.890625 
Q 58.5 48.1875 55.375 44.234375 
Q 52.25 40.28125 46.1875 39.3125 
Q 53.46875 37.75 57.5 32.78125 
Q 61.53125 27.828125 61.53125 20.40625 
Q 61.53125 10.640625 54.890625 5.3125 
Q 48.25 0 35.984375 0 
L 9.8125 0 
z
" id="DejaVuSans-66"/>
      </defs>
      <use xlink:href="#DejaVuSans-77"/>
      <use x="86.279297" xlink:href="#DejaVuSans-66"/>
     </g>
    </g>
   </g>
   <g id="line2d_28">
    <path clip-path="url(#pa4bb25e289)" d="M 132.349091 78.226541 
L 133.486899 78.12 
L 134.055803 79.795919 
L 134.624707 80.151453 
L 135.193611 82.852076 
L 135.762515 84.888317 
L 136.900323 82.647374 
L 137.469227 79.859364 
L 138.038131 79.61875 
L 138.607035 78.716148 
L 139.175939 81.148624 
L 139.744843 92.352139 
L 140.882651 129.705969 
L 141.451555 174.571504 
L 142.020459 191.412091 
L 142.589363 216.890841 
L 143.727171 259.363404 
L 144.296075 281.302375 
L 144.864979 292.533423 
L 145.433883 296.561613 
L 146.002787 296.337758 
L 146.571691 296.71484 
L 147.140595 297.361265 
L 147.709499 296.243188 
L 148.278403 296.755541 
L 148.847307 296.420357 
L 149.416211 296.526897 
L 149.985115 295.668588 
L 150.554019 295.852939 
L 151.122923 295.825406 
L 151.691827 295.553668 
L 152.260731 296.117495 
L 152.829635 298.52962 
L 153.398539 300.167232 
L 153.967443 300.758592 
L 154.536347 300.61135 
L 155.105251 301.500784 
L 155.674155 297.855661 
L 156.243059 297.649763 
L 156.811963 297.180506 
L 157.380867 297.746727 
L 157.949771 298.617007 
L 158.518675 296.619073 
L 159.087579 296.700475 
L 159.656483 296.377262 
L 160.225387 297.32655 
L 160.794291 296.474226 
L 161.932099 297.295426 
L 162.501003 297.091921 
L 163.069907 298.085502 
L 163.638811 298.383576 
L 164.207715 298.491313 
L 164.776619 298.779811 
L 165.345523 298.075925 
L 165.914427 298.170495 
L 166.483331 297.887983 
L 167.052234 296.605905 
L 167.621138 296.663365 
L 168.190042 298.38597 
L 168.758946 301.792873 
L 169.32785 300.772957 
L 169.896754 301.013571 
L 170.465658 300.61973 
L 171.034562 302.126859 
L 171.603466 298.743898 
L 172.741274 298.393152 
L 173.310178 300.155261 
L 173.879082 299.680018 
L 174.447986 299.527989 
L 175.01689 299.689595 
L 175.585794 298.330904 
L 176.154698 299.499259 
L 177.292506 299.144922 
L 177.86141 298.893534 
L 178.430314 299.706354 
L 178.999218 298.199225 
L 179.568122 297.352886 
L 180.137026 296.283889 
L 180.70593 296.428737 
L 181.274834 297.887983 
L 181.843738 297.60188 
L 182.412642 297.606668 
L 182.981546 297.243951 
L 183.55045 297.530054 
L 184.119354 297.636595 
L 184.688258 297.398375 
L 185.257162 297.637792 
L 185.826066 296.963833 
L 186.39497 299.228718 
L 186.963874 299.342441 
L 187.532778 298.958176 
L 188.101682 298.381182 
L 188.670586 298.524832 
L 189.23949 299.058732 
L 189.808394 299.038381 
L 190.377298 297.776654 
L 190.946202 297.99572 
L 192.08401 299.994852 
L 192.652914 299.337652 
L 193.221818 299.639318 
L 193.790722 299.147316 
L 194.359626 299.699172 
L 194.92853 298.456598 
L 195.497434 298.473357 
L 196.066338 298.883957 
L 196.635242 298.725942 
L 197.204146 300.018793 
L 197.77305 298.901913 
L 198.341954 299.512427 
L 198.910858 299.785362 
L 200.048666 299.611785 
L 200.61757 299.788953 
L 201.186474 299.30174 
L 201.755378 299.414266 
L 202.324282 300.32405 
L 202.893186 300.234269 
L 203.46209 299.249068 
L 204.030994 299.057534 
L 204.599898 300.288137 
L 205.168802 300.162444 
L 205.737706 299.425039 
L 206.30661 299.602208 
L 206.875514 300.112166 
L 207.444418 299.984078 
L 208.013322 299.229915 
L 209.15113 299.705157 
L 209.720034 299.507638 
L 210.288938 300.394678 
L 210.857842 300.095407 
L 211.426746 300.078648 
L 211.99565 300.322853 
L 212.564554 301.093775 
L 213.702362 301.055469 
L 214.271266 300.841191 
L 214.84017 300.195962 
L 215.409074 305.141119 
L 216.546882 304.244502 
L 217.115786 304.128385 
L 217.68469 301.170389 
L 218.253594 301.190739 
L 219.391402 299.599814 
L 219.960306 299.803318 
L 220.52921 301.407412 
L 221.667018 300.85795 
L 222.235922 298.91149 
L 222.804826 299.680018 
L 223.37373 301.341572 
L 223.942634 301.150038 
L 224.511538 301.431353 
L 225.080442 301.427762 
L 225.649346 300.388693 
L 226.787154 300.251028 
L 227.356058 298.870789 
L 227.924962 299.310119 
L 228.493866 301.191936 
L 229.06277 300.776548 
L 229.631674 301.359528 
L 230.200578 300.995614 
L 230.769482 302.053837 
L 231.338386 302.574569 
L 231.90729 302.371065 
L 232.476194 301.926946 
L 233.045098 302.569781 
L 233.614002 303.553784 
L 234.182906 303.223389 
L 234.75181 303.495127 
L 235.320714 303.628004 
L 235.889618 300.825628 
L 236.458522 302.513518 
L 237.027426 302.582949 
L 237.59633 301.920961 
L 238.165234 301.504375 
L 238.734138 301.998771 
L 239.303042 302.068202 
L 239.871946 302.369868 
L 240.44085 300.692752 
L 241.009754 300.951322 
L 241.578658 302.300437 
L 242.147562 301.993983 
L 243.854274 301.80245 
L 244.423178 306.789504 
L 244.992082 306.985826 
L 245.560986 307.033709 
L 246.12989 303.641172 
L 246.698794 304.136765 
L 247.267698 304.040998 
L 247.836602 304.292386 
L 248.405506 307.99856 
L 248.97441 306.52016 
L 249.543314 304.718548 
L 250.112218 304.408503 
L 250.681121 302.386627 
L 251.250025 302.423736 
L 251.818929 304.333086 
L 252.387833 303.623215 
L 252.956737 302.688292 
L 253.525641 302.81638 
L 254.094545 302.695475 
L 254.663449 304.677847 
L 255.232353 303.528646 
L 255.801257 303.922486 
L 256.370161 303.979947 
L 256.939065 303.558573 
L 257.507969 305.104009 
L 258.076873 304.057757 
L 258.645777 303.872209 
L 259.214681 304.087684 
L 259.783585 305.042958 
L 260.352489 305.338638 
L 260.921393 304.878957 
L 261.490297 304.780796 
L 262.059201 303.211418 
L 262.628105 303.479565 
L 263.197009 303.593288 
L 263.765913 301.875472 
L 264.334817 302.907359 
L 264.903721 304.234926 
L 265.472625 304.147538 
L 266.041529 303.349083 
L 266.610433 303.309579 
L 267.179337 304.224152 
L 267.748241 304.136765 
L 268.317145 302.943271 
L 268.886049 303.604062 
L 269.454953 303.873406 
L 270.023857 303.384995 
L 270.592761 304.199013 
L 271.161665 304.307948 
L 271.730569 303.689055 
L 272.299473 303.655537 
L 272.868377 305.448769 
L 273.437281 304.951979 
L 274.006185 305.418842 
L 274.575089 305.404477 
L 275.143993 303.505901 
L 275.712897 304.432445 
L 276.281801 303.953611 
L 276.850705 304.177465 
L 277.419609 303.273667 
L 277.988513 304.394138 
L 278.557417 304.592854 
L 279.695225 304.317524 
L 280.264129 304.473145 
L 280.833033 305.241674 
L 281.401937 304.586868 
L 281.970841 304.341466 
L 282.539745 304.321116 
L 283.108649 305.137527 
L 283.677553 305.660653 
L 284.815361 305.740858 
L 285.384265 306.1754 
L 286.522073 306.550087 
L 287.090977 305.768391 
L 287.659881 305.663048 
L 288.228785 303.876997 
L 288.797689 305.00106 
L 289.366593 304.880154 
L 289.935497 304.074516 
L 291.642209 304.396532 
L 292.211113 303.41612 
L 293.348921 303.758486 
L 293.917825 305.368565 
L 294.486729 304.913673 
L 295.624537 304.838256 
L 296.193441 305.409266 
L 296.762345 305.587631 
L 297.331249 305.597208 
L 297.900153 305.086053 
L 298.469057 305.347017 
L 299.037961 305.433207 
L 299.606865 304.547365 
L 300.175769 305.254842 
L 300.744673 304.550956 
L 301.313577 304.402517 
L 301.882481 304.002691 
L 302.451385 303.351477 
L 303.020289 303.642369 
L 303.589193 303.454426 
L 304.158097 304.341466 
L 304.727001 304.397729 
L 305.864809 304.075713 
L 306.433713 304.377379 
L 307.002617 304.998666 
L 307.571521 305.327864 
L 308.709329 304.281612 
L 309.278233 305.156681 
L 309.847137 305.271601 
L 310.416041 305.051337 
L 310.984945 303.680675 
L 311.553849 304.61919 
L 312.122753 306.08921 
L 312.691657 306.201736 
L 313.260561 304.500678 
L 313.829465 304.839453 
L 314.398369 304.625175 
L 314.967273 305.017819 
L 315.536177 304.918461 
L 316.105081 309.515266 
L 316.673985 311.23428 
L 317.242889 323.576222 
L 317.811793 316.48589 
L 318.380697 336.227013 
L 318.949601 338.733708 
L 319.518505 335.114921 
L 320.087409 356.479291 
L 320.656313 382.855854 
L 321.225217 400.64932 
L 321.794121 412.110209 
L 322.363025 430.92 
L 322.931929 419.905624 
L 323.500833 424.200764 
L 324.069737 423.440615 
L 324.638641 372.21856 
L 325.207545 402.579021 
L 325.776449 401.844011 
L 326.345353 405.322739 
L 327.483161 406.036201 
L 328.052065 407.895274 
L 328.620969 407.258425 
L 329.189873 406.39413 
L 329.758777 406.340261 
L 330.327681 395.582061 
L 331.465489 394.976336 
L 332.603297 395.34025 
L 333.172201 396.481072 
L 333.741105 396.115961 
L 334.310008 396.210531 
L 334.878912 395.87415 
L 335.447816 396.439174 
L 336.01672 396.481072 
L 336.585624 396.19856 
L 337.154528 396.239261 
L 337.723432 395.622762 
L 338.292336 396.100399 
L 338.86124 396.74443 
L 339.999048 396.418823 
L 340.567952 397.032928 
L 341.136856 397.400433 
L 341.70576 397.333396 
L 342.274664 396.452342 
L 342.843568 396.728868 
L 343.412472 394.685445 
L 343.981376 395.870559 
L 344.55028 395.118789 
L 345.688088 395.900486 
L 346.256992 396.016603 
L 346.825896 396.701335 
L 349.101512 397.208899 
L 349.670416 396.416429 
L 350.23932 396.890475 
L 350.808224 395.409681 
L 351.377128 398.470626 
L 351.946032 398.034888 
L 352.514936 397.808639 
L 353.08384 396.06688 
L 353.652744 396.356575 
L 354.221648 393.051424 
L 355.359456 392.533086 
L 355.92836 392.584561 
L 356.497264 393.842697 
L 357.066168 395.42644 
L 357.635072 393.43928 
L 358.203976 394.083311 
L 358.77288 394.189852 
L 359.341784 397.448316 
L 359.910688 397.322622 
L 360.479592 396.997015 
L 361.048496 396.367349 
L 361.6174 394.155136 
L 362.186304 396.016603 
L 363.324112 395.740076 
L 363.893016 395.886121 
L 364.46192 397.359732 
L 365.030824 395.553331 
L 365.599728 394.56813 
L 366.168632 394.441239 
L 366.737536 393.906143 
L 367.30644 397.535703 
L 367.875344 396.926387 
L 368.444248 397.198125 
L 369.013152 398.505342 
L 369.582056 396.964694 
L 370.15096 398.192903 
L 370.719864 398.098333 
L 371.288768 398.473021 
L 371.857672 397.757164 
L 372.426576 398.378451 
L 372.99548 398.433517 
L 374.133288 397.435148 
L 374.702192 398.528086 
L 375.271096 399.86523 
L 375.84 399.878398 
L 376.408904 399.126629 
L 377.546712 399.435477 
L 378.115616 398.845314 
L 378.68452 398.031296 
L 379.253424 397.903208 
L 379.822328 397.894829 
L 380.391232 399.457024 
L 380.960136 399.212819 
L 381.52904 399.370834 
L 382.097944 399.723974 
L 382.666848 397.149045 
L 383.235752 399.13022 
L 383.804656 398.729197 
L 384.37356 399.04403 
L 384.942464 398.695678 
L 385.511368 398.798628 
L 386.080272 399.440265 
L 386.649176 399.362454 
L 387.786984 398.312611 
L 388.355888 401.126957 
L 388.924792 401.845208 
L 389.493696 401.951749 
L 390.0626 401.117381 
L 390.631504 402.63289 
L 391.200408 401.598609 
L 391.769312 401.07668 
L 392.338216 400.245903 
L 392.90712 400.285407 
L 393.476024 402.295312 
L 394.044928 402.126523 
L 394.613832 401.028796 
L 395.182736 401.241877 
L 395.75164 402.972862 
L 396.320544 403.737799 
L 396.889448 403.438528 
L 397.458352 399.911916 
L 398.027256 401.548331 
L 398.59616 404.050238 
L 399.165064 404.373451 
L 399.733968 408.121523 
L 400.302872 410.555196 
L 400.871776 407.695361 
L 401.44068 407.569667 
L 402.009584 406.826277 
L 402.578488 406.367794 
L 403.147392 405.381396 
L 403.716296 406.075705 
L 404.2852 407.466718 
L 404.854104 407.45355 
L 405.423008 406.73051 
L 405.991912 407.710923 
L 407.12972 414.995183 
L 407.698624 413.817252 
L 408.836432 414.934132 
L 409.405336 413.437776 
L 409.97424 412.328078 
L 410.543144 413.030767 
L 411.112048 412.781773 
L 411.680952 412.310122 
L 412.249856 411.649331 
L 412.81876 411.753478 
L 413.387664 412.19999 
L 413.956568 411.026847 
L 414.525472 414.351151 
L 415.094376 413.629309 
L 415.66328 413.844785 
L 416.232184 412.810503 
L 417.369992 413.5922 
L 417.938895 413.067877 
L 418.507799 413.077453 
L 419.076703 412.695583 
L 419.645607 413.422214 
L 420.214511 401.933792 
L 420.783415 401.781763 
L 421.352319 402.139691 
L 421.921223 402.754992 
L 422.490127 400.86719 
L 423.059031 401.541148 
L 423.627935 401.281381 
L 424.196839 401.395104 
L 424.765743 400.348852 
L 425.334647 402.109764 
L 425.903551 402.306086 
L 426.472455 402.209122 
L 427.041359 401.197585 
L 427.610263 401.338841 
L 428.179167 402.816044 
L 428.748071 402.224684 
L 429.316975 402.458115 
L 429.885879 402.358757 
L 430.454783 404.79243 
L 431.023687 405.037833 
L 431.592591 403.537886 
L 432.161495 403.333184 
L 432.730399 402.069063 
L 433.299303 403.370294 
L 434.437111 403.48282 
L 435.006015 402.934555 
L 435.574919 401.968508 
L 436.712727 402.088216 
L 437.281631 401.671631 
L 437.850535 401.590229 
L 438.419439 402.321648 
L 438.988343 402.411429 
L 439.557247 401.312505 
L 440.126151 401.681207 
L 440.695055 401.829646 
L 441.263959 402.163633 
L 442.401767 401.671631 
L 442.970671 402.016391 
L 443.539575 403.809624 
L 444.108479 402.808861 
L 444.677383 402.834 
L 445.246287 403.09257 
L 445.815191 402.381502 
L 446.384095 403.291286 
L 446.952999 402.916599 
L 447.521903 402.829212 
L 448.090807 403.055461 
L 448.659711 405.610039 
L 449.228615 406.128377 
L 449.797519 405.997895 
L 450.366423 405.46998 
L 450.935327 406.025428 
L 451.504231 403.925741 
L 452.073135 403.120103 
L 452.642039 403.233826 
L 453.210943 401.933792 
L 453.779847 402.65324 
L 454.917655 406.610802 
L 455.486559 407.291943 
L 456.055463 407.612762 
L 456.624367 408.80027 
L 457.193271 405.835091 
L 458.331079 404.916927 
L 458.899983 404.769686 
L 459.468887 406.577284 
L 460.037791 405.669893 
L 460.606695 405.292812 
L 461.175599 405.776434 
L 461.744503 404.665539 
L 462.313407 405.035439 
L 463.451215 405.232958 
L 464.020119 404.3531 
L 464.589023 405.252111 
L 465.157927 404.876226 
L 466.295735 405.417309 
L 467.433543 404.380633 
L 468.002447 404.234589 
L 468.571351 403.965245 
L 469.140255 403.875464 
L 469.709159 404.991146 
L 470.278063 405.322739 
L 470.846967 404.615262 
L 471.415871 408.692532 
L 471.984775 407.81866 
L 472.553679 408.836182 
L 473.122583 408.248414 
L 473.691487 404.711029 
L 474.260391 405.532229 
L 474.829295 405.440053 
L 475.398199 404.481188 
L 476.536007 404.512313 
L 477.104911 404.373451 
L 477.673815 405.112052 
L 478.242719 404.693072 
L 478.811623 404.987555 
L 479.380527 404.386619 
L 479.949431 403.017154 
L 480.518335 404.898971 
L 481.087239 404.98157 
L 481.656143 404.490765 
L 482.225047 404.479991 
L 482.793951 405.633981 
L 483.362855 405.243731 
L 483.931759 404.134034 
L 484.500663 404.501539 
L 485.069567 404.315991 
L 485.638471 405.406535 
L 486.207375 405.529835 
L 486.776279 405.900931 
L 487.345183 405.668696 
L 487.914087 405.210213 
L 488.482991 404.961219 
L 489.051895 405.284432 
L 489.620799 405.015088 
L 490.189703 403.869478 
L 490.758607 405.465192 
L 491.896415 405.641163 
L 493.034223 405.332316 
L 494.172031 404.463232 
L 494.740935 404.49675 
L 495.309839 404.087348 
L 495.878743 404.951643 
L 496.447647 404.664342 
L 497.585455 405.294009 
L 498.723263 404.963614 
L 499.292167 404.999526 
L 499.861071 404.655963 
L 500.429975 402.654437 
L 500.998879 403.390644 
L 502.136686 403.60612 
L 502.70559 401.172446 
L 503.274494 400.442225 
L 503.843398 402.692744 
L 504.412302 402.397064 
L 504.981206 401.950551 
L 506.119014 399.621025 
L 506.687918 401.900274 
L 507.825726 402.334816 
L 508.39463 401.271804 
L 508.963534 402.267779 
L 510.101342 402.137297 
L 510.670246 400.656503 
L 511.23915 399.977756 
L 511.808054 401.871544 
L 512.945862 402.027165 
L 514.08367 399.976559 
L 514.652574 402.482057 
L 515.221478 402.258202 
L 515.790382 402.283341 
L 516.359286 400.712766 
L 516.92819 401.612974 
L 517.497094 401.893091 
L 518.065998 401.83204 
L 518.634902 400.613408 
L 519.203806 400.193231 
L 519.77271 403.105738 
L 520.910518 402.999198 
L 521.479422 400.888737 
L 522.61723 400.283013 
L 523.186134 400.540386 
L 523.755038 400.480531 
L 524.323942 399.708412 
L 524.892846 401.51601 
L 525.46175 401.062315 
L 526.030654 400.119012 
L 526.599558 399.899945 
L 527.168462 400.904299 
L 527.737366 400.760649 
L 528.30627 399.588703 
L 528.875174 399.169724 
L 529.444078 397.712872 
L 530.012982 398.784263 
L 530.581886 399.065577 
L 531.15079 399.169724 
L 531.719694 399.038044 
L 532.288598 398.25156 
L 532.857502 399.659331 
L 533.426406 399.814952 
L 534.564214 397.595557 
L 535.133118 398.640612 
L 535.702022 404.530269 
L 536.270926 403.541477 
L 536.83983 402.016391 
L 537.408734 399.042833 
L 537.977638 398.936292 
L 539.115446 397.026942 
L 539.68435 396.552897 
L 540.253254 396.625919 
L 540.822158 397.399236 
L 541.391062 397.587178 
L 541.959966 396.489451 
L 542.52887 396.402064 
L 543.097774 398.213253 
L 543.666678 398.197691 
L 544.235582 397.899617 
L 545.37339 396.439174 
L 545.942294 397.794274 
L 546.511198 397.638653 
L 547.080102 401.124563 
L 547.649006 400.730722 
L 548.21791 401.75423 
L 548.786814 401.381936 
L 549.355718 398.12826 
L 549.924622 398.182129 
L 550.493526 397.509367 
L 551.06243 401.627339 
L 551.631334 401.790142 
L 552.200238 399.020088 
L 552.769142 398.694481 
L 553.338046 397.317834 
L 553.90695 400.219567 
L 554.475854 399.647361 
L 555.044758 398.40359 
L 555.613662 396.739642 
L 556.182566 395.752047 
L 556.75147 398.265925 
L 557.320374 398.500553 
L 557.889278 397.888843 
L 558.458182 397.857719 
L 559.027086 399.370834 
L 559.59599 398.906365 
L 560.733798 398.765109 
L 561.302702 397.849339 
L 561.871606 397.559645 
L 562.44051 397.566827 
L 563.009414 396.977862 
L 563.578318 395.935201 
L 564.147222 396.576838 
L 564.716126 399.090716 
L 565.28503 399.053607 
L 565.853934 398.404787 
L 566.422838 397.538097 
L 566.991742 398.142625 
L 567.560646 397.846945 
L 568.12955 397.371703 
L 568.698454 397.078417 
L 569.267358 395.80831 
L 569.836262 397.735616 
L 570.405166 396.482269 
L 570.97407 394.422086 
L 571.542974 394.067749 
L 572.111878 394.474758 
L 572.680782 393.77566 
L 573.249686 393.798405 
L 573.81859 393.216622 
L 574.387494 393.345907 
L 574.956398 395.123578 
L 575.525302 395.13914 
L 576.094206 394.459196 
L 576.66311 394.07972 
L 577.232014 390.349604 
L 577.800918 392.231421 
L 578.938726 392.249377 
L 579.50763 390.867942 
L 580.076534 390.857168 
L 580.645438 391.064264 
L 581.214342 390.969694 
L 581.783246 389.98569 
L 582.35215 390.229896 
L 582.921054 392.425349 
L 583.489958 392.953263 
L 584.058862 392.29367 
L 584.627766 390.931387 
L 585.196669 391.551477 
L 585.765573 393.003541 
L 586.903381 390.677605 
L 587.472285 391.034337 
L 588.041189 393.505119 
L 588.610093 391.48444 
L 589.747901 390.940964 
L 590.316805 390.387911 
L 590.885709 392.665963 
L 591.454613 392.139246 
L 592.023517 392.292472 
L 592.592421 390.948146 
L 593.161325 390.820058 
L 593.730229 391.795682 
L 594.299133 392.235012 
L 594.868037 390.85238 
L 595.436941 390.761401 
L 596.005845 393.555397 
L 596.574749 393.822347 
L 597.143653 393.475192 
L 597.712557 392.329582 
L 598.281461 392.898197 
L 598.850365 393.256126 
L 599.419269 392.097348 
L 599.988173 391.286921 
L 600.557077 391.577813 
L 601.125981 392.331976 
L 601.694885 392.358312 
L 602.263789 391.924967 
L 602.832693 391.733434 
L 603.401597 390.627328 
L 603.970501 393.034665 
L 604.539405 393.029877 
L 605.108309 392.148822 
L 605.677213 392.178749 
L 606.246117 391.617317 
L 606.815021 392.709058 
L 607.383925 392.470838 
L 607.952829 392.559422 
L 608.521733 392.081786 
L 609.090637 393.879807 
L 609.659541 392.759335 
L 610.228445 392.233815 
L 610.797349 390.590218 
L 611.366253 389.948581 
L 611.935157 391.747799 
L 613.072965 390.387911 
L 613.641869 390.219122 
L 614.210773 388.887964 
L 614.779677 390.407064 
L 615.348581 390.141311 
L 616.486389 388.272662 
L 617.055293 398.320991 
L 617.624197 398.897986 
L 618.193101 415.605696 
L 618.762005 413.20195 
L 619.330909 405.244928 
L 619.330909 405.244928 
" style="fill:none;stroke:#1f77b4;stroke-linecap:square;stroke-width:1.5;"/>
   </g>
   <g id="patch_3">
    <path d="M 108 448.56 
L 108 60.48 
" style="fill:none;stroke:#000000;stroke-linecap:square;stroke-linejoin:miter;stroke-width:0.8;"/>
   </g>
   <g id="patch_4">
    <path d="M 643.68 448.56 
L 643.68 60.48 
" style="fill:none;stroke:#000000;stroke-linecap:square;stroke-linejoin:miter;stroke-width:0.8;"/>
   </g>
   <g id="patch_5">
    <path d="M 108 448.56 
L 643.68 448.56 
" style="fill:none;stroke:#000000;stroke-linecap:square;stroke-linejoin:miter;stroke-width:0.8;"/>
   </g>
   <g id="patch_6">
    <path d="M 108 60.48 
L 643.68 60.48 
" style="fill:none;stroke:#000000;stroke-linecap:square;stroke-linejoin:miter;stroke-width:0.8;"/>
   </g>
   <g id="text_30">
    <!-- unikernel_allocpool - vmstat -->
    <g transform="translate(270.310313 54.48)scale(0.15 -0.15)">
     <defs>
      <path d="M 8.5 21.578125 
L 8.5 54.6875 
L 17.484375 54.6875 
L 17.484375 21.921875 
Q 17.484375 14.15625 20.5 10.265625 
Q 23.53125 6.390625 29.59375 6.390625 
Q 36.859375 6.390625 41.078125 11.03125 
Q 45.3125 15.671875 45.3125 23.6875 
L 45.3125 54.6875 
L 54.296875 54.6875 
L 54.296875 0 
L 45.3125 0 
L 45.3125 8.40625 
Q 42.046875 3.421875 37.71875 1 
Q 33.40625 -1.421875 27.6875 -1.421875 
Q 18.265625 -1.421875 13.375 4.4375 
Q 8.5 10.296875 8.5 21.578125 
z
M 31.109375 56 
z
" id="DejaVuSans-117"/>
      <path d="M 54.890625 33.015625 
L 54.890625 0 
L 45.90625 0 
L 45.90625 32.71875 
Q 45.90625 40.484375 42.875 44.328125 
Q 39.84375 48.1875 33.796875 48.1875 
Q 26.515625 48.1875 22.3125 43.546875 
Q 18.109375 38.921875 18.109375 30.90625 
L 18.109375 0 
L 9.078125 0 
L 9.078125 54.6875 
L 18.109375 54.6875 
L 18.109375 46.1875 
Q 21.34375 51.125 25.703125 53.5625 
Q 30.078125 56 35.796875 56 
Q 45.21875 56 50.046875 50.171875 
Q 54.890625 44.34375 54.890625 33.015625 
z
" id="DejaVuSans-110"/>
      <path d="M 9.078125 75.984375 
L 18.109375 75.984375 
L 18.109375 31.109375 
L 44.921875 54.6875 
L 56.390625 54.6875 
L 27.390625 29.109375 
L 57.625 0 
L 45.90625 0 
L 18.109375 26.703125 
L 18.109375 0 
L 9.078125 0 
z
" id="DejaVuSans-107"/>
      <path d="M 41.109375 46.296875 
Q 39.59375 47.171875 37.8125 47.578125 
Q 36.03125 48 33.890625 48 
Q 26.265625 48 22.1875 43.046875 
Q 18.109375 38.09375 18.109375 28.8125 
L 18.109375 0 
L 9.078125 0 
L 9.078125 54.6875 
L 18.109375 54.6875 
L 18.109375 46.1875 
Q 20.953125 51.171875 25.484375 53.578125 
Q 30.03125 56 36.53125 56 
Q 37.453125 56 38.578125 55.875 
Q 39.703125 55.765625 41.0625 55.515625 
z
" id="DejaVuSans-114"/>
      <path d="M 9.421875 75.984375 
L 18.40625 75.984375 
L 18.40625 0 
L 9.421875 0 
z
" id="DejaVuSans-108"/>
      <path d="M 50.984375 -16.609375 
L 50.984375 -23.578125 
L -0.984375 -23.578125 
L -0.984375 -16.609375 
z
" id="DejaVuSans-95"/>
      <path d="M 30.609375 48.390625 
Q 23.390625 48.390625 19.1875 42.75 
Q 14.984375 37.109375 14.984375 27.296875 
Q 14.984375 17.484375 19.15625 11.84375 
Q 23.34375 6.203125 30.609375 6.203125 
Q 37.796875 6.203125 41.984375 11.859375 
Q 46.1875 17.53125 46.1875 27.296875 
Q 46.1875 37.015625 41.984375 42.703125 
Q 37.796875 48.390625 30.609375 48.390625 
z
M 30.609375 56 
Q 42.328125 56 49.015625 48.375 
Q 55.71875 40.765625 55.71875 27.296875 
Q 55.71875 13.875 49.015625 6.21875 
Q 42.328125 -1.421875 30.609375 -1.421875 
Q 18.84375 -1.421875 12.171875 6.21875 
Q 5.515625 13.875 5.515625 27.296875 
Q 5.515625 40.765625 12.171875 48.375 
Q 18.84375 56 30.609375 56 
z
" id="DejaVuSans-111"/>
      <path d="M 48.78125 52.59375 
L 48.78125 44.1875 
Q 44.96875 46.296875 41.140625 47.34375 
Q 37.3125 48.390625 33.40625 48.390625 
Q 24.65625 48.390625 19.8125 42.84375 
Q 14.984375 37.3125 14.984375 27.296875 
Q 14.984375 17.28125 19.8125 11.734375 
Q 24.65625 6.203125 33.40625 6.203125 
Q 37.3125 6.203125 41.140625 7.25 
Q 44.96875 8.296875 48.78125 10.40625 
L 48.78125 2.09375 
Q 45.015625 0.34375 40.984375 -0.53125 
Q 36.96875 -1.421875 32.421875 -1.421875 
Q 20.0625 -1.421875 12.78125 6.34375 
Q 5.515625 14.109375 5.515625 27.296875 
Q 5.515625 40.671875 12.859375 48.328125 
Q 20.21875 56 33.015625 56 
Q 37.15625 56 41.109375 55.140625 
Q 45.0625 54.296875 48.78125 52.59375 
z
" id="DejaVuSans-99"/>
      <path id="DejaVuSans-32"/>
      <path d="M 4.890625 31.390625 
L 31.203125 31.390625 
L 31.203125 23.390625 
L 4.890625 23.390625 
z
" id="DejaVuSans-45"/>
      <path d="M 2.984375 54.6875 
L 12.5 54.6875 
L 29.59375 8.796875 
L 46.6875 54.6875 
L 56.203125 54.6875 
L 35.6875 0 
L 23.484375 0 
z
" id="DejaVuSans-118"/>
     </defs>
     <use xlink:href="#DejaVuSans-117"/>
     <use x="63.378906" xlink:href="#DejaVuSans-110"/>
     <use x="126.757812" xlink:href="#DejaVuSans-105"/>
     <use x="154.541016" xlink:href="#DejaVuSans-107"/>
     <use x="208.826172" xlink:href="#DejaVuSans-101"/>
     <use x="270.349609" xlink:href="#DejaVuSans-114"/>
     <use x="309.712891" xlink:href="#DejaVuSans-110"/>
     <use x="373.091797" xlink:href="#DejaVuSans-101"/>
     <use x="434.615234" xlink:href="#DejaVuSans-108"/>
     <use x="462.398438" xlink:href="#DejaVuSans-95"/>
     <use x="512.398438" xlink:href="#DejaVuSans-97"/>
     <use x="573.677734" xlink:href="#DejaVuSans-108"/>
     <use x="601.460938" xlink:href="#DejaVuSans-108"/>
     <use x="629.244141" xlink:href="#DejaVuSans-111"/>
     <use x="690.425781" xlink:href="#DejaVuSans-99"/>
     <use x="745.40625" xlink:href="#DejaVuSans-112"/>
     <use x="808.882812" xlink:href="#DejaVuSans-111"/>
     <use x="870.064453" xlink:href="#DejaVuSans-111"/>
     <use x="931.246094" xlink:href="#DejaVuSans-108"/>
     <use x="959.029297" xlink:href="#DejaVuSans-32"/>
     <use x="990.816406" xlink:href="#DejaVuSans-45"/>
     <use x="1026.900391" xlink:href="#DejaVuSans-32"/>
     <use x="1058.6875" xlink:href="#DejaVuSans-118"/>
     <use x="1117.867188" xlink:href="#DejaVuSans-109"/>
     <use x="1215.279297" xlink:href="#DejaVuSans-115"/>
     <use x="1267.378906" xlink:href="#DejaVuSans-116"/>
     <use x="1306.587891" xlink:href="#DejaVuSans-97"/>
     <use x="1367.867188" xlink:href="#DejaVuSans-116"/>
    </g>
   </g>
   <g id="legend_1">
    <g id="patch_7">
     <path d="M 650.68 258.52 
L 654.68 258.52 
Q 656.68 258.52 656.68 256.52 
L 656.68 252.52 
Q 656.68 250.52 654.68 250.52 
L 650.68 250.52 
Q 648.68 250.52 648.68 252.52 
L 648.68 256.52 
Q 648.68 258.52 650.68 258.52 
z
" style="fill:#ffffff;opacity:0.8;stroke:#cccccc;stroke-linejoin:miter;"/>
    </g>
   </g>
  </g>
 </g>
 <defs>
  <clipPath id="pa4bb25e289">
   <rect height="388.08" width="535.68" x="108" y="60.48"/>
  </clipPath>
 </defs>
</svg>
