<?xml version="1.0" encoding="utf-8" standalone="no"?>
<!DOCTYPE svg PUBLIC "-//W3C//DTD SVG 1.1//EN"
  "http://www.w3.org/Graphics/SVG/1.1/DTD/svg11.dtd">
<!-- Created with matplotlib (https://matplotlib.org/) -->
<svg height="504pt" version="1.1" viewBox="0 0 864 504" width="864pt" xmlns="http://www.w3.org/2000/svg" xmlns:xlink="http://www.w3.org/1999/xlink">
 <metadata>
  <rdf:RDF xmlns:cc="http://creativecommons.org/ns#" xmlns:dc="http://purl.org/dc/elements/1.1/" xmlns:rdf="http://www.w3.org/1999/02/22-rdf-syntax-ns#">
   <cc:Work>
    <dc:type rdf:resource="http://purl.org/dc/dcmitype/StillImage"/>
    <dc:date>2022-05-29T17:25:36.298843</dc:date>
    <dc:format>image/svg+xml</dc:format>
    <dc:creator>
     <cc:Agent>
      <dc:title>Matplotlib v3.3.4, https://matplotlib.org/</dc:title>
     </cc:Agent>
    </dc:creator>
   </cc:Work>
  </rdf:RDF>
 </metadata>
 <defs>
  <style type="text/css">*{stroke-linecap:butt;stroke-linejoin:round;}</style>
 </defs>
 <g id="figure_1">
  <g id="patch_1">
   <path d="M 0 504 
L 864 504 
L 864 0 
L 0 0 
z
" style="fill:#ffffff;"/>
  </g>
  <g id="axes_1">
   <g id="patch_2">
    <path d="M 108 448.56 
L 643.68 448.56 
L 643.68 60.48 
L 108 60.48 
z
" style="fill:#ffffff;"/>
   </g>
   <g id="matplotlib.axis_1">
    <g id="xtick_1">
     <g id="line2d_1">
      <defs>
       <path d="M 0 0 
L 0 3.5 
" id="m6c73060b5c" style="stroke:#000000;stroke-width:0.8;"/>
      </defs>
      <g>
       <use style="stroke:#000000;stroke-width:0.8;" x="132.349091" xlink:href="#m6c73060b5c" y="448.56"/>
      </g>
     </g>
     <g id="text_1">
      <!-- 12:09:08 -->
      <g transform="translate(135.108466 500.4725)rotate(-90)scale(0.1 -0.1)">
       <defs>
        <path d="M 12.40625 8.296875 
L 28.515625 8.296875 
L 28.515625 63.921875 
L 10.984375 60.40625 
L 10.984375 69.390625 
L 28.421875 72.90625 
L 38.28125 72.90625 
L 38.28125 8.296875 
L 54.390625 8.296875 
L 54.390625 0 
L 12.40625 0 
z
" id="DejaVuSans-49"/>
        <path d="M 19.1875 8.296875 
L 53.609375 8.296875 
L 53.609375 0 
L 7.328125 0 
L 7.328125 8.296875 
Q 12.9375 14.109375 22.625 23.890625 
Q 32.328125 33.6875 34.8125 36.53125 
Q 39.546875 41.84375 41.421875 45.53125 
Q 43.3125 49.21875 43.3125 52.78125 
Q 43.3125 58.59375 39.234375 62.25 
Q 35.15625 65.921875 28.609375 65.921875 
Q 23.96875 65.921875 18.8125 64.3125 
Q 13.671875 62.703125 7.8125 59.421875 
L 7.8125 69.390625 
Q 13.765625 71.78125 18.9375 73 
Q 24.125 74.21875 28.421875 74.21875 
Q 39.75 74.21875 46.484375 68.546875 
Q 53.21875 62.890625 53.21875 53.421875 
Q 53.21875 48.921875 51.53125 44.890625 
Q 49.859375 40.875 45.40625 35.40625 
Q 44.1875 33.984375 37.640625 27.21875 
Q 31.109375 20.453125 19.1875 8.296875 
z
" id="DejaVuSans-50"/>
        <path d="M 11.71875 12.40625 
L 22.015625 12.40625 
L 22.015625 0 
L 11.71875 0 
z
M 11.71875 51.703125 
L 22.015625 51.703125 
L 22.015625 39.3125 
L 11.71875 39.3125 
z
" id="DejaVuSans-58"/>
        <path d="M 31.78125 66.40625 
Q 24.171875 66.40625 20.328125 58.90625 
Q 16.5 51.421875 16.5 36.375 
Q 16.5 21.390625 20.328125 13.890625 
Q 24.171875 6.390625 31.78125 6.390625 
Q 39.453125 6.390625 43.28125 13.890625 
Q 47.125 21.390625 47.125 36.375 
Q 47.125 51.421875 43.28125 58.90625 
Q 39.453125 66.40625 31.78125 66.40625 
z
M 31.78125 74.21875 
Q 44.046875 74.21875 50.515625 64.515625 
Q 56.984375 54.828125 56.984375 36.375 
Q 56.984375 17.96875 50.515625 8.265625 
Q 44.046875 -1.421875 31.78125 -1.421875 
Q 19.53125 -1.421875 13.0625 8.265625 
Q 6.59375 17.96875 6.59375 36.375 
Q 6.59375 54.828125 13.0625 64.515625 
Q 19.53125 74.21875 31.78125 74.21875 
z
" id="DejaVuSans-48"/>
        <path d="M 10.984375 1.515625 
L 10.984375 10.5 
Q 14.703125 8.734375 18.5 7.8125 
Q 22.3125 6.890625 25.984375 6.890625 
Q 35.75 6.890625 40.890625 13.453125 
Q 46.046875 20.015625 46.78125 33.40625 
Q 43.953125 29.203125 39.59375 26.953125 
Q 35.25 24.703125 29.984375 24.703125 
Q 19.046875 24.703125 12.671875 31.3125 
Q 6.296875 37.9375 6.296875 49.421875 
Q 6.296875 60.640625 12.9375 67.421875 
Q 19.578125 74.21875 30.609375 74.21875 
Q 43.265625 74.21875 49.921875 64.515625 
Q 56.59375 54.828125 56.59375 36.375 
Q 56.59375 19.140625 48.40625 8.859375 
Q 40.234375 -1.421875 26.421875 -1.421875 
Q 22.703125 -1.421875 18.890625 -0.6875 
Q 15.09375 0.046875 10.984375 1.515625 
z
M 30.609375 32.421875 
Q 37.25 32.421875 41.125 36.953125 
Q 45.015625 41.5 45.015625 49.421875 
Q 45.015625 57.28125 41.125 61.84375 
Q 37.25 66.40625 30.609375 66.40625 
Q 23.96875 66.40625 20.09375 61.84375 
Q 16.21875 57.28125 16.21875 49.421875 
Q 16.21875 41.5 20.09375 36.953125 
Q 23.96875 32.421875 30.609375 32.421875 
z
" id="DejaVuSans-57"/>
        <path d="M 31.78125 34.625 
Q 24.75 34.625 20.71875 30.859375 
Q 16.703125 27.09375 16.703125 20.515625 
Q 16.703125 13.921875 20.71875 10.15625 
Q 24.75 6.390625 31.78125 6.390625 
Q 38.8125 6.390625 42.859375 10.171875 
Q 46.921875 13.96875 46.921875 20.515625 
Q 46.921875 27.09375 42.890625 30.859375 
Q 38.875 34.625 31.78125 34.625 
z
M 21.921875 38.8125 
Q 15.578125 40.375 12.03125 44.71875 
Q 8.5 49.078125 8.5 55.328125 
Q 8.5 64.0625 14.71875 69.140625 
Q 20.953125 74.21875 31.78125 74.21875 
Q 42.671875 74.21875 48.875 69.140625 
Q 55.078125 64.0625 55.078125 55.328125 
Q 55.078125 49.078125 51.53125 44.71875 
Q 48 40.375 41.703125 38.8125 
Q 48.828125 37.15625 52.796875 32.3125 
Q 56.78125 27.484375 56.78125 20.515625 
Q 56.78125 9.90625 50.3125 4.234375 
Q 43.84375 -1.421875 31.78125 -1.421875 
Q 19.734375 -1.421875 13.25 4.234375 
Q 6.78125 9.90625 6.78125 20.515625 
Q 6.78125 27.484375 10.78125 32.3125 
Q 14.796875 37.15625 21.921875 38.8125 
z
M 18.3125 54.390625 
Q 18.3125 48.734375 21.84375 45.5625 
Q 25.390625 42.390625 31.78125 42.390625 
Q 38.140625 42.390625 41.71875 45.5625 
Q 45.3125 48.734375 45.3125 54.390625 
Q 45.3125 60.0625 41.71875 63.234375 
Q 38.140625 66.40625 31.78125 66.40625 
Q 25.390625 66.40625 21.84375 63.234375 
Q 18.3125 60.0625 18.3125 54.390625 
z
" id="DejaVuSans-56"/>
       </defs>
       <use xlink:href="#DejaVuSans-49"/>
       <use x="63.623047" xlink:href="#DejaVuSans-50"/>
       <use x="127.246094" xlink:href="#DejaVuSans-58"/>
       <use x="160.9375" xlink:href="#DejaVuSans-48"/>
       <use x="224.560547" xlink:href="#DejaVuSans-57"/>
       <use x="288.183594" xlink:href="#DejaVuSans-58"/>
       <use x="321.875" xlink:href="#DejaVuSans-48"/>
       <use x="385.498047" xlink:href="#DejaVuSans-56"/>
      </g>
     </g>
    </g>
    <g id="xtick_2">
     <g id="line2d_2">
      <g>
       <use style="stroke:#000000;stroke-width:0.8;" x="156.483652" xlink:href="#m6c73060b5c" y="448.56"/>
      </g>
     </g>
     <g id="text_2">
      <!-- 12:09:59 -->
      <g transform="translate(159.243027 500.4725)rotate(-90)scale(0.1 -0.1)">
       <defs>
        <path d="M 10.796875 72.90625 
L 49.515625 72.90625 
L 49.515625 64.59375 
L 19.828125 64.59375 
L 19.828125 46.734375 
Q 21.96875 47.46875 24.109375 47.828125 
Q 26.265625 48.1875 28.421875 48.1875 
Q 40.625 48.1875 47.75 41.5 
Q 54.890625 34.8125 54.890625 23.390625 
Q 54.890625 11.625 47.5625 5.09375 
Q 40.234375 -1.421875 26.90625 -1.421875 
Q 22.3125 -1.421875 17.546875 -0.640625 
Q 12.796875 0.140625 7.71875 1.703125 
L 7.71875 11.625 
Q 12.109375 9.234375 16.796875 8.0625 
Q 21.484375 6.890625 26.703125 6.890625 
Q 35.15625 6.890625 40.078125 11.328125 
Q 45.015625 15.765625 45.015625 23.390625 
Q 45.015625 31 40.078125 35.4375 
Q 35.15625 39.890625 26.703125 39.890625 
Q 22.75 39.890625 18.8125 39.015625 
Q 14.890625 38.140625 10.796875 36.28125 
z
" id="DejaVuSans-53"/>
       </defs>
       <use xlink:href="#DejaVuSans-49"/>
       <use x="63.623047" xlink:href="#DejaVuSans-50"/>
       <use x="127.246094" xlink:href="#DejaVuSans-58"/>
       <use x="160.9375" xlink:href="#DejaVuSans-48"/>
       <use x="224.560547" xlink:href="#DejaVuSans-57"/>
       <use x="288.183594" xlink:href="#DejaVuSans-58"/>
       <use x="321.875" xlink:href="#DejaVuSans-53"/>
       <use x="385.498047" xlink:href="#DejaVuSans-57"/>
      </g>
     </g>
    </g>
    <g id="xtick_3">
     <g id="line2d_3">
      <g>
       <use style="stroke:#000000;stroke-width:0.8;" x="180.618214" xlink:href="#m6c73060b5c" y="448.56"/>
      </g>
     </g>
     <g id="text_3">
      <!-- 12:10:50 -->
      <g transform="translate(183.377589 500.4725)rotate(-90)scale(0.1 -0.1)">
       <use xlink:href="#DejaVuSans-49"/>
       <use x="63.623047" xlink:href="#DejaVuSans-50"/>
       <use x="127.246094" xlink:href="#DejaVuSans-58"/>
       <use x="160.9375" xlink:href="#DejaVuSans-49"/>
       <use x="224.560547" xlink:href="#DejaVuSans-48"/>
       <use x="288.183594" xlink:href="#DejaVuSans-58"/>
       <use x="321.875" xlink:href="#DejaVuSans-53"/>
       <use x="385.498047" xlink:href="#DejaVuSans-48"/>
      </g>
     </g>
    </g>
    <g id="xtick_4">
     <g id="line2d_4">
      <g>
       <use style="stroke:#000000;stroke-width:0.8;" x="204.752775" xlink:href="#m6c73060b5c" y="448.56"/>
      </g>
     </g>
     <g id="text_4">
      <!-- 12:11:41 -->
      <g transform="translate(207.51215 500.4725)rotate(-90)scale(0.1 -0.1)">
       <defs>
        <path d="M 37.796875 64.3125 
L 12.890625 25.390625 
L 37.796875 25.390625 
z
M 35.203125 72.90625 
L 47.609375 72.90625 
L 47.609375 25.390625 
L 58.015625 25.390625 
L 58.015625 17.1875 
L 47.609375 17.1875 
L 47.609375 0 
L 37.796875 0 
L 37.796875 17.1875 
L 4.890625 17.1875 
L 4.890625 26.703125 
z
" id="DejaVuSans-52"/>
       </defs>
       <use xlink:href="#DejaVuSans-49"/>
       <use x="63.623047" xlink:href="#DejaVuSans-50"/>
       <use x="127.246094" xlink:href="#DejaVuSans-58"/>
       <use x="160.9375" xlink:href="#DejaVuSans-49"/>
       <use x="224.560547" xlink:href="#DejaVuSans-49"/>
       <use x="288.183594" xlink:href="#DejaVuSans-58"/>
       <use x="321.875" xlink:href="#DejaVuSans-52"/>
       <use x="385.498047" xlink:href="#DejaVuSans-49"/>
      </g>
     </g>
    </g>
    <g id="xtick_5">
     <g id="line2d_5">
      <g>
       <use style="stroke:#000000;stroke-width:0.8;" x="228.887337" xlink:href="#m6c73060b5c" y="448.56"/>
      </g>
     </g>
     <g id="text_5">
      <!-- 12:12:32 -->
      <g transform="translate(231.646712 500.4725)rotate(-90)scale(0.1 -0.1)">
       <defs>
        <path d="M 40.578125 39.3125 
Q 47.65625 37.796875 51.625 33 
Q 55.609375 28.21875 55.609375 21.1875 
Q 55.609375 10.40625 48.1875 4.484375 
Q 40.765625 -1.421875 27.09375 -1.421875 
Q 22.515625 -1.421875 17.65625 -0.515625 
Q 12.796875 0.390625 7.625 2.203125 
L 7.625 11.71875 
Q 11.71875 9.328125 16.59375 8.109375 
Q 21.484375 6.890625 26.8125 6.890625 
Q 36.078125 6.890625 40.9375 10.546875 
Q 45.796875 14.203125 45.796875 21.1875 
Q 45.796875 27.640625 41.28125 31.265625 
Q 36.765625 34.90625 28.71875 34.90625 
L 20.21875 34.90625 
L 20.21875 43.015625 
L 29.109375 43.015625 
Q 36.375 43.015625 40.234375 45.921875 
Q 44.09375 48.828125 44.09375 54.296875 
Q 44.09375 59.90625 40.109375 62.90625 
Q 36.140625 65.921875 28.71875 65.921875 
Q 24.65625 65.921875 20.015625 65.03125 
Q 15.375 64.15625 9.8125 62.3125 
L 9.8125 71.09375 
Q 15.4375 72.65625 20.34375 73.4375 
Q 25.25 74.21875 29.59375 74.21875 
Q 40.828125 74.21875 47.359375 69.109375 
Q 53.90625 64.015625 53.90625 55.328125 
Q 53.90625 49.265625 50.4375 45.09375 
Q 46.96875 40.921875 40.578125 39.3125 
z
" id="DejaVuSans-51"/>
       </defs>
       <use xlink:href="#DejaVuSans-49"/>
       <use x="63.623047" xlink:href="#DejaVuSans-50"/>
       <use x="127.246094" xlink:href="#DejaVuSans-58"/>
       <use x="160.9375" xlink:href="#DejaVuSans-49"/>
       <use x="224.560547" xlink:href="#DejaVuSans-50"/>
       <use x="288.183594" xlink:href="#DejaVuSans-58"/>
       <use x="321.875" xlink:href="#DejaVuSans-51"/>
       <use x="385.498047" xlink:href="#DejaVuSans-50"/>
      </g>
     </g>
    </g>
    <g id="xtick_6">
     <g id="line2d_6">
      <g>
       <use style="stroke:#000000;stroke-width:0.8;" x="253.021898" xlink:href="#m6c73060b5c" y="448.56"/>
      </g>
     </g>
     <g id="text_6">
      <!-- 12:13:22 -->
      <g transform="translate(255.781273 500.4725)rotate(-90)scale(0.1 -0.1)">
       <use xlink:href="#DejaVuSans-49"/>
       <use x="63.623047" xlink:href="#DejaVuSans-50"/>
       <use x="127.246094" xlink:href="#DejaVuSans-58"/>
       <use x="160.9375" xlink:href="#DejaVuSans-49"/>
       <use x="224.560547" xlink:href="#DejaVuSans-51"/>
       <use x="288.183594" xlink:href="#DejaVuSans-58"/>
       <use x="321.875" xlink:href="#DejaVuSans-50"/>
       <use x="385.498047" xlink:href="#DejaVuSans-50"/>
      </g>
     </g>
    </g>
    <g id="xtick_7">
     <g id="line2d_7">
      <g>
       <use style="stroke:#000000;stroke-width:0.8;" x="277.15646" xlink:href="#m6c73060b5c" y="448.56"/>
      </g>
     </g>
     <g id="text_7">
      <!-- 12:14:13 -->
      <g transform="translate(279.915835 500.4725)rotate(-90)scale(0.1 -0.1)">
       <use xlink:href="#DejaVuSans-49"/>
       <use x="63.623047" xlink:href="#DejaVuSans-50"/>
       <use x="127.246094" xlink:href="#DejaVuSans-58"/>
       <use x="160.9375" xlink:href="#DejaVuSans-49"/>
       <use x="224.560547" xlink:href="#DejaVuSans-52"/>
       <use x="288.183594" xlink:href="#DejaVuSans-58"/>
       <use x="321.875" xlink:href="#DejaVuSans-49"/>
       <use x="385.498047" xlink:href="#DejaVuSans-51"/>
      </g>
     </g>
    </g>
    <g id="xtick_8">
     <g id="line2d_8">
      <g>
       <use style="stroke:#000000;stroke-width:0.8;" x="301.291021" xlink:href="#m6c73060b5c" y="448.56"/>
      </g>
     </g>
     <g id="text_8">
      <!-- 12:15:04 -->
      <g transform="translate(304.050396 500.4725)rotate(-90)scale(0.1 -0.1)">
       <use xlink:href="#DejaVuSans-49"/>
       <use x="63.623047" xlink:href="#DejaVuSans-50"/>
       <use x="127.246094" xlink:href="#DejaVuSans-58"/>
       <use x="160.9375" xlink:href="#DejaVuSans-49"/>
       <use x="224.560547" xlink:href="#DejaVuSans-53"/>
       <use x="288.183594" xlink:href="#DejaVuSans-58"/>
       <use x="321.875" xlink:href="#DejaVuSans-48"/>
       <use x="385.498047" xlink:href="#DejaVuSans-52"/>
      </g>
     </g>
    </g>
    <g id="xtick_9">
     <g id="line2d_9">
      <g>
       <use style="stroke:#000000;stroke-width:0.8;" x="325.425583" xlink:href="#m6c73060b5c" y="448.56"/>
      </g>
     </g>
     <g id="text_9">
      <!-- 12:15:55 -->
      <g transform="translate(328.184958 500.4725)rotate(-90)scale(0.1 -0.1)">
       <use xlink:href="#DejaVuSans-49"/>
       <use x="63.623047" xlink:href="#DejaVuSans-50"/>
       <use x="127.246094" xlink:href="#DejaVuSans-58"/>
       <use x="160.9375" xlink:href="#DejaVuSans-49"/>
       <use x="224.560547" xlink:href="#DejaVuSans-53"/>
       <use x="288.183594" xlink:href="#DejaVuSans-58"/>
       <use x="321.875" xlink:href="#DejaVuSans-53"/>
       <use x="385.498047" xlink:href="#DejaVuSans-53"/>
      </g>
     </g>
    </g>
    <g id="xtick_10">
     <g id="line2d_10">
      <g>
       <use style="stroke:#000000;stroke-width:0.8;" x="349.560144" xlink:href="#m6c73060b5c" y="448.56"/>
      </g>
     </g>
     <g id="text_10">
      <!-- 12:16:46 -->
      <g transform="translate(352.319519 500.4725)rotate(-90)scale(0.1 -0.1)">
       <defs>
        <path d="M 33.015625 40.375 
Q 26.375 40.375 22.484375 35.828125 
Q 18.609375 31.296875 18.609375 23.390625 
Q 18.609375 15.53125 22.484375 10.953125 
Q 26.375 6.390625 33.015625 6.390625 
Q 39.65625 6.390625 43.53125 10.953125 
Q 47.40625 15.53125 47.40625 23.390625 
Q 47.40625 31.296875 43.53125 35.828125 
Q 39.65625 40.375 33.015625 40.375 
z
M 52.59375 71.296875 
L 52.59375 62.3125 
Q 48.875 64.0625 45.09375 64.984375 
Q 41.3125 65.921875 37.59375 65.921875 
Q 27.828125 65.921875 22.671875 59.328125 
Q 17.53125 52.734375 16.796875 39.40625 
Q 19.671875 43.65625 24.015625 45.921875 
Q 28.375 48.1875 33.59375 48.1875 
Q 44.578125 48.1875 50.953125 41.515625 
Q 57.328125 34.859375 57.328125 23.390625 
Q 57.328125 12.15625 50.6875 5.359375 
Q 44.046875 -1.421875 33.015625 -1.421875 
Q 20.359375 -1.421875 13.671875 8.265625 
Q 6.984375 17.96875 6.984375 36.375 
Q 6.984375 53.65625 15.1875 63.9375 
Q 23.390625 74.21875 37.203125 74.21875 
Q 40.921875 74.21875 44.703125 73.484375 
Q 48.484375 72.75 52.59375 71.296875 
z
" id="DejaVuSans-54"/>
       </defs>
       <use xlink:href="#DejaVuSans-49"/>
       <use x="63.623047" xlink:href="#DejaVuSans-50"/>
       <use x="127.246094" xlink:href="#DejaVuSans-58"/>
       <use x="160.9375" xlink:href="#DejaVuSans-49"/>
       <use x="224.560547" xlink:href="#DejaVuSans-54"/>
       <use x="288.183594" xlink:href="#DejaVuSans-58"/>
       <use x="321.875" xlink:href="#DejaVuSans-52"/>
       <use x="385.498047" xlink:href="#DejaVuSans-54"/>
      </g>
     </g>
    </g>
    <g id="xtick_11">
     <g id="line2d_11">
      <g>
       <use style="stroke:#000000;stroke-width:0.8;" x="373.694706" xlink:href="#m6c73060b5c" y="448.56"/>
      </g>
     </g>
     <g id="text_11">
      <!-- 12:17:36 -->
      <g transform="translate(376.454081 500.4725)rotate(-90)scale(0.1 -0.1)">
       <defs>
        <path d="M 8.203125 72.90625 
L 55.078125 72.90625 
L 55.078125 68.703125 
L 28.609375 0 
L 18.3125 0 
L 43.21875 64.59375 
L 8.203125 64.59375 
z
" id="DejaVuSans-55"/>
       </defs>
       <use xlink:href="#DejaVuSans-49"/>
       <use x="63.623047" xlink:href="#DejaVuSans-50"/>
       <use x="127.246094" xlink:href="#DejaVuSans-58"/>
       <use x="160.9375" xlink:href="#DejaVuSans-49"/>
       <use x="224.560547" xlink:href="#DejaVuSans-55"/>
       <use x="288.183594" xlink:href="#DejaVuSans-58"/>
       <use x="321.875" xlink:href="#DejaVuSans-51"/>
       <use x="385.498047" xlink:href="#DejaVuSans-54"/>
      </g>
     </g>
    </g>
    <g id="xtick_12">
     <g id="line2d_12">
      <g>
       <use style="stroke:#000000;stroke-width:0.8;" x="397.829267" xlink:href="#m6c73060b5c" y="448.56"/>
      </g>
     </g>
     <g id="text_12">
      <!-- 12:18:27 -->
      <g transform="translate(400.588642 500.4725)rotate(-90)scale(0.1 -0.1)">
       <use xlink:href="#DejaVuSans-49"/>
       <use x="63.623047" xlink:href="#DejaVuSans-50"/>
       <use x="127.246094" xlink:href="#DejaVuSans-58"/>
       <use x="160.9375" xlink:href="#DejaVuSans-49"/>
       <use x="224.560547" xlink:href="#DejaVuSans-56"/>
       <use x="288.183594" xlink:href="#DejaVuSans-58"/>
       <use x="321.875" xlink:href="#DejaVuSans-50"/>
       <use x="385.498047" xlink:href="#DejaVuSans-55"/>
      </g>
     </g>
    </g>
    <g id="xtick_13">
     <g id="line2d_13">
      <g>
       <use style="stroke:#000000;stroke-width:0.8;" x="421.963829" xlink:href="#m6c73060b5c" y="448.56"/>
      </g>
     </g>
     <g id="text_13">
      <!-- 12:19:18 -->
      <g transform="translate(424.723204 500.4725)rotate(-90)scale(0.1 -0.1)">
       <use xlink:href="#DejaVuSans-49"/>
       <use x="63.623047" xlink:href="#DejaVuSans-50"/>
       <use x="127.246094" xlink:href="#DejaVuSans-58"/>
       <use x="160.9375" xlink:href="#DejaVuSans-49"/>
       <use x="224.560547" xlink:href="#DejaVuSans-57"/>
       <use x="288.183594" xlink:href="#DejaVuSans-58"/>
       <use x="321.875" xlink:href="#DejaVuSans-49"/>
       <use x="385.498047" xlink:href="#DejaVuSans-56"/>
      </g>
     </g>
    </g>
    <g id="xtick_14">
     <g id="line2d_14">
      <g>
       <use style="stroke:#000000;stroke-width:0.8;" x="446.09839" xlink:href="#m6c73060b5c" y="448.56"/>
      </g>
     </g>
     <g id="text_14">
      <!-- 12:20:09 -->
      <g transform="translate(448.857765 500.4725)rotate(-90)scale(0.1 -0.1)">
       <use xlink:href="#DejaVuSans-49"/>
       <use x="63.623047" xlink:href="#DejaVuSans-50"/>
       <use x="127.246094" xlink:href="#DejaVuSans-58"/>
       <use x="160.9375" xlink:href="#DejaVuSans-50"/>
       <use x="224.560547" xlink:href="#DejaVuSans-48"/>
       <use x="288.183594" xlink:href="#DejaVuSans-58"/>
       <use x="321.875" xlink:href="#DejaVuSans-48"/>
       <use x="385.498047" xlink:href="#DejaVuSans-57"/>
      </g>
     </g>
    </g>
    <g id="xtick_15">
     <g id="line2d_15">
      <g>
       <use style="stroke:#000000;stroke-width:0.8;" x="470.232952" xlink:href="#m6c73060b5c" y="448.56"/>
      </g>
     </g>
     <g id="text_15">
      <!-- 12:20:59 -->
      <g transform="translate(472.992327 500.4725)rotate(-90)scale(0.1 -0.1)">
       <use xlink:href="#DejaVuSans-49"/>
       <use x="63.623047" xlink:href="#DejaVuSans-50"/>
       <use x="127.246094" xlink:href="#DejaVuSans-58"/>
       <use x="160.9375" xlink:href="#DejaVuSans-50"/>
       <use x="224.560547" xlink:href="#DejaVuSans-48"/>
       <use x="288.183594" xlink:href="#DejaVuSans-58"/>
       <use x="321.875" xlink:href="#DejaVuSans-53"/>
       <use x="385.498047" xlink:href="#DejaVuSans-57"/>
      </g>
     </g>
    </g>
    <g id="xtick_16">
     <g id="line2d_16">
      <g>
       <use style="stroke:#000000;stroke-width:0.8;" x="494.367513" xlink:href="#m6c73060b5c" y="448.56"/>
      </g>
     </g>
     <g id="text_16">
      <!-- 12:21:50 -->
      <g transform="translate(497.126888 500.4725)rotate(-90)scale(0.1 -0.1)">
       <use xlink:href="#DejaVuSans-49"/>
       <use x="63.623047" xlink:href="#DejaVuSans-50"/>
       <use x="127.246094" xlink:href="#DejaVuSans-58"/>
       <use x="160.9375" xlink:href="#DejaVuSans-50"/>
       <use x="224.560547" xlink:href="#DejaVuSans-49"/>
       <use x="288.183594" xlink:href="#DejaVuSans-58"/>
       <use x="321.875" xlink:href="#DejaVuSans-53"/>
       <use x="385.498047" xlink:href="#DejaVuSans-48"/>
      </g>
     </g>
    </g>
    <g id="xtick_17">
     <g id="line2d_17">
      <g>
       <use style="stroke:#000000;stroke-width:0.8;" x="518.502074" xlink:href="#m6c73060b5c" y="448.56"/>
      </g>
     </g>
     <g id="text_17">
      <!-- 12:22:40 -->
      <g transform="translate(521.261449 500.4725)rotate(-90)scale(0.1 -0.1)">
       <use xlink:href="#DejaVuSans-49"/>
       <use x="63.623047" xlink:href="#DejaVuSans-50"/>
       <use x="127.246094" xlink:href="#DejaVuSans-58"/>
       <use x="160.9375" xlink:href="#DejaVuSans-50"/>
       <use x="224.560547" xlink:href="#DejaVuSans-50"/>
       <use x="288.183594" xlink:href="#DejaVuSans-58"/>
       <use x="321.875" xlink:href="#DejaVuSans-52"/>
       <use x="385.498047" xlink:href="#DejaVuSans-48"/>
      </g>
     </g>
    </g>
    <g id="xtick_18">
     <g id="line2d_18">
      <g>
       <use style="stroke:#000000;stroke-width:0.8;" x="542.636636" xlink:href="#m6c73060b5c" y="448.56"/>
      </g>
     </g>
     <g id="text_18">
      <!-- 12:23:31 -->
      <g transform="translate(545.396011 500.4725)rotate(-90)scale(0.1 -0.1)">
       <use xlink:href="#DejaVuSans-49"/>
       <use x="63.623047" xlink:href="#DejaVuSans-50"/>
       <use x="127.246094" xlink:href="#DejaVuSans-58"/>
       <use x="160.9375" xlink:href="#DejaVuSans-50"/>
       <use x="224.560547" xlink:href="#DejaVuSans-51"/>
       <use x="288.183594" xlink:href="#DejaVuSans-58"/>
       <use x="321.875" xlink:href="#DejaVuSans-51"/>
       <use x="385.498047" xlink:href="#DejaVuSans-49"/>
      </g>
     </g>
    </g>
    <g id="xtick_19">
     <g id="line2d_19">
      <g>
       <use style="stroke:#000000;stroke-width:0.8;" x="566.771197" xlink:href="#m6c73060b5c" y="448.56"/>
      </g>
     </g>
     <g id="text_19">
      <!-- 12:24:22 -->
      <g transform="translate(569.530572 500.4725)rotate(-90)scale(0.1 -0.1)">
       <use xlink:href="#DejaVuSans-49"/>
       <use x="63.623047" xlink:href="#DejaVuSans-50"/>
       <use x="127.246094" xlink:href="#DejaVuSans-58"/>
       <use x="160.9375" xlink:href="#DejaVuSans-50"/>
       <use x="224.560547" xlink:href="#DejaVuSans-52"/>
       <use x="288.183594" xlink:href="#DejaVuSans-58"/>
       <use x="321.875" xlink:href="#DejaVuSans-50"/>
       <use x="385.498047" xlink:href="#DejaVuSans-50"/>
      </g>
     </g>
    </g>
    <g id="xtick_20">
     <g id="line2d_20">
      <g>
       <use style="stroke:#000000;stroke-width:0.8;" x="590.905759" xlink:href="#m6c73060b5c" y="448.56"/>
      </g>
     </g>
     <g id="text_20">
      <!-- 12:25:13 -->
      <g transform="translate(593.665134 500.4725)rotate(-90)scale(0.1 -0.1)">
       <use xlink:href="#DejaVuSans-49"/>
       <use x="63.623047" xlink:href="#DejaVuSans-50"/>
       <use x="127.246094" xlink:href="#DejaVuSans-58"/>
       <use x="160.9375" xlink:href="#DejaVuSans-50"/>
       <use x="224.560547" xlink:href="#DejaVuSans-53"/>
       <use x="288.183594" xlink:href="#DejaVuSans-58"/>
       <use x="321.875" xlink:href="#DejaVuSans-49"/>
       <use x="385.498047" xlink:href="#DejaVuSans-51"/>
      </g>
     </g>
    </g>
    <g id="xtick_21">
     <g id="line2d_21">
      <g>
       <use style="stroke:#000000;stroke-width:0.8;" x="615.04032" xlink:href="#m6c73060b5c" y="448.56"/>
      </g>
     </g>
     <g id="text_21">
      <!-- 12:26:03 -->
      <g transform="translate(617.799695 500.4725)rotate(-90)scale(0.1 -0.1)">
       <use xlink:href="#DejaVuSans-49"/>
       <use x="63.623047" xlink:href="#DejaVuSans-50"/>
       <use x="127.246094" xlink:href="#DejaVuSans-58"/>
       <use x="160.9375" xlink:href="#DejaVuSans-50"/>
       <use x="224.560547" xlink:href="#DejaVuSans-54"/>
       <use x="288.183594" xlink:href="#DejaVuSans-58"/>
       <use x="321.875" xlink:href="#DejaVuSans-48"/>
       <use x="385.498047" xlink:href="#DejaVuSans-51"/>
      </g>
     </g>
    </g>
    <g id="text_22">
     <!-- timestamp -->
     <g transform="translate(354.264375 510.55125)scale(0.08 -0.08)">
      <defs>
       <path d="M 18.3125 70.21875 
L 18.3125 54.6875 
L 36.8125 54.6875 
L 36.8125 47.703125 
L 18.3125 47.703125 
L 18.3125 18.015625 
Q 18.3125 11.328125 20.140625 9.421875 
Q 21.96875 7.515625 27.59375 7.515625 
L 36.8125 7.515625 
L 36.8125 0 
L 27.59375 0 
Q 17.1875 0 13.234375 3.875 
Q 9.28125 7.765625 9.28125 18.015625 
L 9.28125 47.703125 
L 2.6875 47.703125 
L 2.6875 54.6875 
L 9.28125 54.6875 
L 9.28125 70.21875 
z
" id="DejaVuSans-116"/>
       <path d="M 9.421875 54.6875 
L 18.40625 54.6875 
L 18.40625 0 
L 9.421875 0 
z
M 9.421875 75.984375 
L 18.40625 75.984375 
L 18.40625 64.59375 
L 9.421875 64.59375 
z
" id="DejaVuSans-105"/>
       <path d="M 52 44.1875 
Q 55.375 50.25 60.0625 53.125 
Q 64.75 56 71.09375 56 
Q 79.640625 56 84.28125 50.015625 
Q 88.921875 44.046875 88.921875 33.015625 
L 88.921875 0 
L 79.890625 0 
L 79.890625 32.71875 
Q 79.890625 40.578125 77.09375 44.375 
Q 74.3125 48.1875 68.609375 48.1875 
Q 61.625 48.1875 57.5625 43.546875 
Q 53.515625 38.921875 53.515625 30.90625 
L 53.515625 0 
L 44.484375 0 
L 44.484375 32.71875 
Q 44.484375 40.625 41.703125 44.40625 
Q 38.921875 48.1875 33.109375 48.1875 
Q 26.21875 48.1875 22.15625 43.53125 
Q 18.109375 38.875 18.109375 30.90625 
L 18.109375 0 
L 9.078125 0 
L 9.078125 54.6875 
L 18.109375 54.6875 
L 18.109375 46.1875 
Q 21.1875 51.21875 25.484375 53.609375 
Q 29.78125 56 35.6875 56 
Q 41.65625 56 45.828125 52.96875 
Q 50 49.953125 52 44.1875 
z
" id="DejaVuSans-109"/>
       <path d="M 56.203125 29.59375 
L 56.203125 25.203125 
L 14.890625 25.203125 
Q 15.484375 15.921875 20.484375 11.0625 
Q 25.484375 6.203125 34.421875 6.203125 
Q 39.59375 6.203125 44.453125 7.46875 
Q 49.3125 8.734375 54.109375 11.28125 
L 54.109375 2.78125 
Q 49.265625 0.734375 44.1875 -0.34375 
Q 39.109375 -1.421875 33.890625 -1.421875 
Q 20.796875 -1.421875 13.15625 6.1875 
Q 5.515625 13.8125 5.515625 26.8125 
Q 5.515625 40.234375 12.765625 48.109375 
Q 20.015625 56 32.328125 56 
Q 43.359375 56 49.78125 48.890625 
Q 56.203125 41.796875 56.203125 29.59375 
z
M 47.21875 32.234375 
Q 47.125 39.59375 43.09375 43.984375 
Q 39.0625 48.390625 32.421875 48.390625 
Q 24.90625 48.390625 20.390625 44.140625 
Q 15.875 39.890625 15.1875 32.171875 
z
" id="DejaVuSans-101"/>
       <path d="M 44.28125 53.078125 
L 44.28125 44.578125 
Q 40.484375 46.53125 36.375 47.5 
Q 32.28125 48.484375 27.875 48.484375 
Q 21.1875 48.484375 17.84375 46.4375 
Q 14.5 44.390625 14.5 40.28125 
Q 14.5 37.15625 16.890625 35.375 
Q 19.28125 33.59375 26.515625 31.984375 
L 29.59375 31.296875 
Q 39.15625 29.25 43.1875 25.515625 
Q 47.21875 21.78125 47.21875 15.09375 
Q 47.21875 7.46875 41.1875 3.015625 
Q 35.15625 -1.421875 24.609375 -1.421875 
Q 20.21875 -1.421875 15.453125 -0.5625 
Q 10.6875 0.296875 5.421875 2 
L 5.421875 11.28125 
Q 10.40625 8.6875 15.234375 7.390625 
Q 20.0625 6.109375 24.8125 6.109375 
Q 31.15625 6.109375 34.5625 8.28125 
Q 37.984375 10.453125 37.984375 14.40625 
Q 37.984375 18.0625 35.515625 20.015625 
Q 33.0625 21.96875 24.703125 23.78125 
L 21.578125 24.515625 
Q 13.234375 26.265625 9.515625 29.90625 
Q 5.8125 33.546875 5.8125 39.890625 
Q 5.8125 47.609375 11.28125 51.796875 
Q 16.75 56 26.8125 56 
Q 31.78125 56 36.171875 55.265625 
Q 40.578125 54.546875 44.28125 53.078125 
z
" id="DejaVuSans-115"/>
       <path d="M 34.28125 27.484375 
Q 23.390625 27.484375 19.1875 25 
Q 14.984375 22.515625 14.984375 16.5 
Q 14.984375 11.71875 18.140625 8.90625 
Q 21.296875 6.109375 26.703125 6.109375 
Q 34.1875 6.109375 38.703125 11.40625 
Q 43.21875 16.703125 43.21875 25.484375 
L 43.21875 27.484375 
z
M 52.203125 31.203125 
L 52.203125 0 
L 43.21875 0 
L 43.21875 8.296875 
Q 40.140625 3.328125 35.546875 0.953125 
Q 30.953125 -1.421875 24.3125 -1.421875 
Q 15.921875 -1.421875 10.953125 3.296875 
Q 6 8.015625 6 15.921875 
Q 6 25.140625 12.171875 29.828125 
Q 18.359375 34.515625 30.609375 34.515625 
L 43.21875 34.515625 
L 43.21875 35.40625 
Q 43.21875 41.609375 39.140625 45 
Q 35.0625 48.390625 27.6875 48.390625 
Q 23 48.390625 18.546875 47.265625 
Q 14.109375 46.140625 10.015625 43.890625 
L 10.015625 52.203125 
Q 14.9375 54.109375 19.578125 55.046875 
Q 24.21875 56 28.609375 56 
Q 40.484375 56 46.34375 49.84375 
Q 52.203125 43.703125 52.203125 31.203125 
z
" id="DejaVuSans-97"/>
       <path d="M 18.109375 8.203125 
L 18.109375 -20.796875 
L 9.078125 -20.796875 
L 9.078125 54.6875 
L 18.109375 54.6875 
L 18.109375 46.390625 
Q 20.953125 51.265625 25.265625 53.625 
Q 29.59375 56 35.59375 56 
Q 45.5625 56 51.78125 48.09375 
Q 58.015625 40.1875 58.015625 27.296875 
Q 58.015625 14.40625 51.78125 6.484375 
Q 45.5625 -1.421875 35.59375 -1.421875 
Q 29.59375 -1.421875 25.265625 0.953125 
Q 20.953125 3.328125 18.109375 8.203125 
z
M 48.6875 27.296875 
Q 48.6875 37.203125 44.609375 42.84375 
Q 40.53125 48.484375 33.40625 48.484375 
Q 26.265625 48.484375 22.1875 42.84375 
Q 18.109375 37.203125 18.109375 27.296875 
Q 18.109375 17.390625 22.1875 11.75 
Q 26.265625 6.109375 33.40625 6.109375 
Q 40.53125 6.109375 44.609375 11.75 
Q 48.6875 17.390625 48.6875 27.296875 
z
" id="DejaVuSans-112"/>
      </defs>
      <use xlink:href="#DejaVuSans-116"/>
      <use x="39.208984" xlink:href="#DejaVuSans-105"/>
      <use x="66.992188" xlink:href="#DejaVuSans-109"/>
      <use x="164.404297" xlink:href="#DejaVuSans-101"/>
      <use x="225.927734" xlink:href="#DejaVuSans-115"/>
      <use x="278.027344" xlink:href="#DejaVuSans-116"/>
      <use x="317.236328" xlink:href="#DejaVuSans-97"/>
      <use x="378.515625" xlink:href="#DejaVuSans-109"/>
      <use x="475.927734" xlink:href="#DejaVuSans-112"/>
     </g>
    </g>
   </g>
   <g id="matplotlib.axis_2">
    <g id="ytick_1">
     <g id="line2d_22">
      <defs>
       <path d="M 0 0 
L -3.5 0 
" id="mbf877b7a53" style="stroke:#000000;stroke-width:0.8;"/>
      </defs>
      <g>
       <use style="stroke:#000000;stroke-width:0.8;" x="108" xlink:href="#mbf877b7a53" y="446.845024"/>
      </g>
     </g>
     <g id="text_23">
      <!-- 10200 -->
      <g transform="translate(69.1875 450.644242)scale(0.1 -0.1)">
       <use xlink:href="#DejaVuSans-49"/>
       <use x="63.623047" xlink:href="#DejaVuSans-48"/>
       <use x="127.246094" xlink:href="#DejaVuSans-50"/>
       <use x="190.869141" xlink:href="#DejaVuSans-48"/>
       <use x="254.492188" xlink:href="#DejaVuSans-48"/>
      </g>
     </g>
    </g>
    <g id="ytick_2">
     <g id="line2d_23">
      <g>
       <use style="stroke:#000000;stroke-width:0.8;" x="108" xlink:href="#mbf877b7a53" y="361.437839"/>
      </g>
     </g>
     <g id="text_24">
      <!-- 10400 -->
      <g transform="translate(69.1875 365.237057)scale(0.1 -0.1)">
       <use xlink:href="#DejaVuSans-49"/>
       <use x="63.623047" xlink:href="#DejaVuSans-48"/>
       <use x="127.246094" xlink:href="#DejaVuSans-52"/>
       <use x="190.869141" xlink:href="#DejaVuSans-48"/>
       <use x="254.492188" xlink:href="#DejaVuSans-48"/>
      </g>
     </g>
    </g>
    <g id="ytick_3">
     <g id="line2d_24">
      <g>
       <use style="stroke:#000000;stroke-width:0.8;" x="108" xlink:href="#mbf877b7a53" y="276.030654"/>
      </g>
     </g>
     <g id="text_25">
      <!-- 10600 -->
      <g transform="translate(69.1875 279.829872)scale(0.1 -0.1)">
       <use xlink:href="#DejaVuSans-49"/>
       <use x="63.623047" xlink:href="#DejaVuSans-48"/>
       <use x="127.246094" xlink:href="#DejaVuSans-54"/>
       <use x="190.869141" xlink:href="#DejaVuSans-48"/>
       <use x="254.492188" xlink:href="#DejaVuSans-48"/>
      </g>
     </g>
    </g>
    <g id="ytick_4">
     <g id="line2d_25">
      <g>
       <use style="stroke:#000000;stroke-width:0.8;" x="108" xlink:href="#mbf877b7a53" y="190.623469"/>
      </g>
     </g>
     <g id="text_26">
      <!-- 10800 -->
      <g transform="translate(69.1875 194.422687)scale(0.1 -0.1)">
       <use xlink:href="#DejaVuSans-49"/>
       <use x="63.623047" xlink:href="#DejaVuSans-48"/>
       <use x="127.246094" xlink:href="#DejaVuSans-56"/>
       <use x="190.869141" xlink:href="#DejaVuSans-48"/>
       <use x="254.492188" xlink:href="#DejaVuSans-48"/>
      </g>
     </g>
    </g>
    <g id="ytick_5">
     <g id="line2d_26">
      <g>
       <use style="stroke:#000000;stroke-width:0.8;" x="108" xlink:href="#mbf877b7a53" y="105.216284"/>
      </g>
     </g>
     <g id="text_27">
      <!-- 11000 -->
      <g transform="translate(69.1875 109.015502)scale(0.1 -0.1)">
       <use xlink:href="#DejaVuSans-49"/>
       <use x="63.623047" xlink:href="#DejaVuSans-49"/>
       <use x="127.246094" xlink:href="#DejaVuSans-48"/>
       <use x="190.869141" xlink:href="#DejaVuSans-48"/>
       <use x="254.492188" xlink:href="#DejaVuSans-48"/>
      </g>
     </g>
    </g>
    <g id="text_28">
     <!-- MB -->
     <g transform="translate(63.52375 260.715625)rotate(-90)scale(0.08 -0.08)">
      <defs>
       <path d="M 9.8125 72.90625 
L 24.515625 72.90625 
L 43.109375 23.296875 
L 61.8125 72.90625 
L 76.515625 72.90625 
L 76.515625 0 
L 66.890625 0 
L 66.890625 64.015625 
L 48.09375 14.015625 
L 38.1875 14.015625 
L 19.390625 64.015625 
L 19.390625 0 
L 9.8125 0 
z
" id="DejaVuSans-77"/>
       <path d="M 19.671875 34.8125 
L 19.671875 8.109375 
L 35.5 8.109375 
Q 43.453125 8.109375 47.28125 11.40625 
Q 51.125 14.703125 51.125 21.484375 
Q 51.125 28.328125 47.28125 31.5625 
Q 43.453125 34.8125 35.5 34.8125 
z
M 19.671875 64.796875 
L 19.671875 42.828125 
L 34.28125 42.828125 
Q 41.5 42.828125 45.03125 45.53125 
Q 48.578125 48.25 48.578125 53.8125 
Q 48.578125 59.328125 45.03125 62.0625 
Q 41.5 64.796875 34.28125 64.796875 
z
M 9.8125 72.90625 
L 35.015625 72.90625 
Q 46.296875 72.90625 52.390625 68.21875 
Q 58.5 63.53125 58.5 54.890625 
Q 58.5 48.1875 55.375 44.234375 
Q 52.25 40.28125 46.1875 39.3125 
Q 53.46875 37.75 57.5 32.78125 
Q 61.53125 27.828125 61.53125 20.40625 
Q 61.53125 10.640625 54.890625 5.3125 
Q 48.25 0 35.984375 0 
L 9.8125 0 
z
" id="DejaVuSans-66"/>
      </defs>
      <use xlink:href="#DejaVuSans-77"/>
      <use x="86.279297" xlink:href="#DejaVuSans-66"/>
     </g>
    </g>
   </g>
   <g id="line2d_27">
    <path clip-path="url(#p936b2dbf88)" d="M 132.349091 81.174161 
L 132.885414 78.12 
L 133.421738 78.410384 
L 133.958062 82.815687 
L 135.030709 81.483335 
L 135.567032 78.6444 
L 136.103356 79.987001 
L 136.63968 80.844489 
L 137.176003 80.844489 
L 137.712327 80.511401 
L 138.24865 84.850086 
L 138.784974 102.218491 
L 139.321298 134.317928 
L 139.857621 157.943263 
L 140.393945 206.37597 
L 142.002915 294.222384 
L 142.539239 336.550185 
L 143.611886 394.912331 
L 144.14821 394.053135 
L 144.684533 393.889153 
L 145.220857 395.988461 
L 145.757181 394.941369 
L 146.293504 397.527499 
L 146.829828 397.592408 
L 147.366151 398.10656 
L 147.902475 395.435023 
L 148.438799 396.331798 
L 148.975122 398.741989 
L 149.511446 397.399388 
L 150.047769 396.52311 
L 150.584093 397.021888 
L 151.120416 399.828368 
L 151.65674 398.888889 
L 152.193064 398.374738 
L 152.729387 398.296163 
L 153.265711 397.091922 
L 153.802034 398.425982 
L 154.338358 398.636084 
L 154.874682 397.814467 
L 155.411005 397.819591 
L 155.947329 397.201243 
L 156.483652 399.276638 
L 157.5563 398.926468 
L 158.092623 397.35156 
L 158.628947 400.8208 
L 159.16527 400.711479 
L 159.701594 400.421094 
L 160.237918 398.700994 
L 160.774241 399.664387 
L 161.310565 403.429135 
L 161.846888 403.014056 
L 162.383212 404.315662 
L 162.919535 397.493336 
L 163.455859 398.019444 
L 163.992183 398.094602 
L 165.06483 396.637556 
L 165.601153 395.329118 
L 166.137477 399.078493 
L 166.673801 398.203924 
L 167.210124 398.425982 
L 167.746448 397.249071 
L 168.282771 398.094602 
L 168.819095 399.44062 
L 169.355419 399.215145 
L 169.891742 398.733448 
L 170.428066 397.269569 
L 170.964389 400.554329 
L 171.500713 400.914748 
L 172.037036 401.432315 
L 172.57336 399.157068 
L 173.109684 399.403041 
L 173.646007 399.961604 
L 174.182331 399.760043 
L 174.718654 398.325202 
L 175.254978 397.522374 
L 175.791302 401.792734 
L 176.327625 404.520639 
L 176.863949 404.108976 
L 177.400272 403.895459 
L 177.936596 402.832993 
L 178.47292 402.749294 
L 179.009243 403.242948 
L 179.545567 402.554566 
L 180.08189 401.316162 
L 180.618214 397.881085 
L 181.154537 399.519194 
L 181.690861 399.744669 
L 182.227185 397.074841 
L 182.763508 396.752002 
L 183.299832 399.867656 
L 183.836155 400.62778 
L 184.372479 400.419386 
L 184.908803 398.578007 
L 185.445126 399.374002 
L 185.98145 402.300052 
L 186.517773 401.656082 
L 187.054097 399.876196 
L 187.590421 399.772 
L 188.126744 402.967936 
L 188.663068 401.406693 
L 189.199391 400.745642 
L 189.735715 401.01382 
L 190.272038 400.168289 
L 190.808362 401.217089 
L 191.881009 400.907915 
L 192.953656 399.022125 
L 193.48998 400.632904 
L 194.562627 399.635348 
L 195.098951 398.543844 
L 195.635274 402.99185 
L 196.171598 401.802982 
L 196.707922 401.601422 
L 197.244245 401.618503 
L 197.780569 399.549941 
L 198.316892 402.253932 
L 198.853216 401.051399 
L 199.389539 400.241739 
L 199.925863 400.23149 
L 200.462187 402.399125 
L 200.99851 399.56019 
L 201.534834 399.203188 
L 202.071157 399.326174 
L 202.607481 396.924524 
L 203.143805 400.947202 
L 203.680128 401.022361 
L 204.216452 401.266625 
L 204.752775 399.987226 
L 205.289099 400.303232 
L 205.825423 403.048219 
L 206.361746 402.411082 
L 206.89807 400.487712 
L 207.434393 399.382543 
L 207.970717 401.575799 
L 208.50704 402.452077 
L 209.043364 402.361545 
L 209.579688 407.605547 
L 210.116011 406.38764 
L 210.652335 407.976214 
L 211.188658 406.703647 
L 211.724982 401.847394 
L 212.261306 400.383515 
L 212.797629 402.079702 
L 213.333953 403.005516 
L 213.870276 402.979893 
L 214.4066 402.569939 
L 214.942924 401.425483 
L 215.479247 401.873016 
L 216.015571 403.242948 
L 216.551894 403.454757 
L 217.624541 401.908887 
L 218.160865 404.824689 
L 219.233512 403.810051 
L 219.769836 402.132654 
L 220.842483 405.205605 
L 221.378807 405.460118 
L 221.91513 409.235116 
L 222.451454 408.317843 
L 222.987777 410.213882 
L 223.524101 410.297581 
L 224.060425 403.13021 
L 224.596748 403.383015 
L 225.133072 404.992087 
L 225.669395 405.731713 
L 226.205719 403.753683 
L 226.742042 404.097019 
L 227.278366 402.315426 
L 227.81469 403.900583 
L 228.351013 403.767348 
L 228.887337 404.392528 
L 229.42366 404.3447 
L 229.959984 402.445245 
L 230.496308 406.039179 
L 231.032631 406.266362 
L 231.568955 405.26539 
L 232.105278 403.89375 
L 232.641602 404.143139 
L 233.177926 405.097992 
L 233.714249 405.738546 
L 234.250573 402.913276 
L 234.786896 402.610934 
L 235.32322 404.889598 
L 235.859543 405.33884 
L 236.395867 404.870809 
L 237.468514 401.006988 
L 238.004838 404.834938 
L 238.541161 403.98599 
L 239.077485 403.79297 
L 239.613809 402.399125 
L 240.150132 404.886182 
L 240.686456 404.872517 
L 241.222779 404.459146 
L 241.759103 403.118253 
L 242.295427 402.300052 
L 242.83175 405.740254 
L 243.368074 405.986226 
L 243.904397 405.965729 
L 244.440721 404.093603 
L 244.977044 407.376655 
L 245.513368 406.163873 
L 246.049692 406.119462 
L 246.586015 403.550413 
L 247.122339 403.495753 
L 247.658662 404.978422 
L 248.194986 405.318342 
L 248.73131 404.70341 
L 249.267633 403.220742 
L 249.803957 403.007224 
L 250.34028 406.322731 
L 250.876604 405.671928 
L 251.412928 406.174122 
L 251.949251 404.817856 
L 252.485575 407.376655 
L 253.021898 408.158985 
L 253.558222 407.651667 
L 254.630869 404.587257 
L 255.167193 407.928386 
L 255.703516 407.585049 
L 256.23984 407.660207 
L 256.776163 405.574564 
L 257.312487 404.910096 
L 257.848811 405.343964 
L 258.921458 402.636557 
L 259.457781 403.22245 
L 259.994105 404.971589 
L 261.066752 404.64875 
L 261.603076 401.720992 
L 262.139399 401.671455 
L 262.675723 404.913512 
L 263.212046 405.313218 
L 263.74837 406.831758 
L 264.284694 405.547233 
L 264.821017 406.19462 
L 265.357341 407.815648 
L 265.893664 407.882266 
L 266.966312 406.011849 
L 267.502635 409.105297 
L 268.038959 408.90032 
L 268.575282 407.764404 
L 269.111606 407.0504 
L 269.64793 406.951328 
L 270.184253 408.003544 
L 270.720577 406.230491 
L 271.2569 405.675344 
L 271.793224 404.293456 
L 272.329547 405.567731 
L 272.865871 404.927177 
L 273.402195 404.78711 
L 273.938518 403.552122 
L 274.474842 403.707563 
L 275.011165 406.249281 
L 276.083813 405.902527 
L 276.620136 405.009168 
L 277.15646 405.699258 
L 277.692783 407.190468 
L 278.229107 407.865184 
L 279.301754 405.712923 
L 279.838078 408.55015 
L 280.374401 409.30515 
L 280.910725 413.408111 
L 281.447048 413.821482 
L 281.983372 412.796595 
L 282.519696 414.368088 
L 283.056019 409.809052 
L 283.592343 406.881294 
L 284.128666 406.399597 
L 284.66499 407.738782 
L 285.201314 415.58941 
L 285.737637 416.01303 
L 286.273961 415.633822 
L 286.810284 409.911541 
L 287.346608 410.613588 
L 287.882932 409.566496 
L 288.419255 409.291484 
L 288.955579 406.937662 
L 289.491902 407.321995 
L 290.028226 409.904708 
L 291.100873 410.321495 
L 291.637197 408.493781 
L 292.17352 409.016473 
L 292.709844 410.755364 
L 293.246167 411.35663 
L 293.782491 407.579924 
L 294.318815 407.950592 
L 294.855138 411.074786 
L 295.391462 409.264154 
L 295.927785 408.502322 
L 296.464109 407.356158 
L 297.000433 406.560163 
L 297.536756 409.054052 
L 298.07308 408.556983 
L 298.609403 408.662888 
L 299.145727 407.344201 
L 299.68205 410.299289 
L 300.218374 410.594798 
L 301.291021 408.222187 
L 301.827345 408.02575 
L 302.363668 411.204605 
L 302.899992 411.143112 
L 303.436316 410.562343 
L 303.972639 408.215354 
L 304.508963 410.705827 
L 305.045286 411.488157 
L 305.58161 411.344673 
L 306.117934 408.035999 
L 306.654257 407.918137 
L 307.190581 412.762432 
L 308.263228 410.174595 
L 308.799551 409.634821 
L 309.335875 410.464979 
L 309.872199 409.752683 
L 310.408522 409.248781 
L 310.944846 408.220478 
L 311.481169 407.747323 
L 312.017493 410.109685 
L 312.553817 410.488893 
L 313.626464 410.02257 
L 314.162787 408.738046 
L 314.699111 410.35395 
L 315.235435 410.642626 
L 315.771758 409.134335 
L 316.308082 409.124086 
L 316.844405 411.703383 
L 317.380729 411.464243 
L 317.917052 410.294165 
L 318.453376 410.33516 
L 318.9897 408.519404 
L 319.526023 411.259266 
L 320.59867 410.437649 
L 321.134994 409.744143 
L 321.671318 410.21559 
L 322.207641 413.023778 
L 323.280288 412.501086 
L 323.816612 411.141404 
L 324.352936 411.993768 
L 324.889259 411.464243 
L 325.425583 411.465951 
L 325.961906 409.26757 
L 326.49823 409.077966 
L 327.034553 411.814413 
L 327.570877 411.995476 
L 328.107201 411.640182 
L 328.643524 410.676789 
L 329.179848 411.629933 
L 329.716171 411.792207 
L 330.252495 410.422276 
L 330.788819 410.389821 
L 331.325142 409.465715 
L 331.861466 411.469368 
L 332.934113 409.171914 
L 333.470437 409.713396 
L 334.00676 410.540138 
L 334.543084 413.237296 
L 335.615731 412.73681 
L 336.152054 411.812705 
L 336.688378 411.491574 
L 337.224702 411.372003 
L 337.761025 410.892015 
L 338.297349 410.613588 
L 338.833672 410.019154 
L 339.369996 411.368587 
L 340.442643 411.09016 
L 340.978967 408.864449 
L 341.51529 411.894695 
L 342.051614 411.898112 
L 342.587938 412.577953 
L 343.124261 412.700939 
L 343.660585 411.124323 
L 344.196908 413.471312 
L 344.733232 413.303914 
L 345.269555 410.681913 
L 345.805879 411.09016 
L 346.342203 411.28318 
L 346.878526 413.37224 
L 347.41485 413.194593 
L 347.951173 411.988643 
L 348.487497 411.776834 
L 349.023821 413.320995 
L 350.096468 413.413235 
L 350.632791 411.61456 
L 351.169115 412.171415 
L 351.705439 412.42422 
L 352.241762 417.820246 
L 352.778086 417.832203 
L 353.314409 414.723381 
L 353.850733 413.983755 
L 354.92338 413.329536 
L 355.996027 411.231936 
L 356.532351 414.011086 
L 357.068674 414.140904 
L 357.604998 413.46448 
L 358.141322 411.252433 
L 359.213969 413.944468 
L 360.286616 412.904208 
L 360.82294 412.226075 
L 361.359263 414.772918 
L 361.895587 414.759252 
L 362.43191 413.976923 
L 362.968234 412.403722 
L 363.504557 411.845159 
L 364.040881 413.332952 
L 364.577205 413.023778 
L 365.113528 410.695579 
L 365.649852 410.5743 
L 366.186175 413.030611 
L 366.722499 413.461063 
L 367.258823 412.885419 
L 367.795146 412.934955 
L 368.33147 411.781958 
L 368.867793 413.035735 
L 369.404117 412.7556 
L 369.940441 411.332716 
L 370.476764 411.032083 
L 371.013088 413.221923 
L 371.549411 414.7063 
L 372.085735 414.830994 
L 372.622058 413.450814 
L 373.158382 412.825634 
L 373.694706 412.454967 
L 374.231029 412.622365 
L 374.767353 413.23388 
L 375.303676 411.676053 
L 375.84 412.337105 
L 376.376324 413.964966 
L 376.912647 412.454967 
L 377.985294 410.225839 
L 378.521618 411.747795 
L 379.057942 413.97009 
L 379.594265 413.855644 
L 380.130589 413.256086 
L 380.666912 411.816121 
L 381.203236 413.922262 
L 381.739559 414.197273 
L 382.275883 413.865893 
L 382.812207 411.869073 
L 383.34853 413.26121 
L 383.884854 416.627962 
L 384.957501 415.92079 
L 385.493825 414.192149 
L 386.030148 415.227284 
L 386.566472 415.483505 
L 387.102795 414.667013 
L 387.639119 414.202398 
L 388.175443 413.889807 
L 388.711766 414.508155 
L 389.24809 413.278292 
L 389.784413 412.94862 
L 390.320737 411.94594 
L 390.85706 413.954717 
L 391.393384 413.937635 
L 391.929708 414.325384 
L 392.466031 413.052817 
L 393.002355 413.351742 
L 393.538678 414.911277 
L 394.075002 415.425428 
L 395.147649 413.182636 
L 395.683973 413.614796 
L 396.220296 415.785847 
L 396.75662 415.954953 
L 397.292944 415.89346 
L 398.365591 413.901764 
L 398.901914 414.192149 
L 399.438238 414.784875 
L 400.510885 411.240476 
L 401.047209 416.188969 
L 401.583532 416.243629 
L 402.119856 414.882239 
L 402.656179 413.862477 
L 403.728827 417.084036 
L 404.26515 416.294874 
L 404.801474 416.844896 
L 405.337797 415.565496 
L 405.874121 418.008142 
L 406.410445 417.676762 
L 406.946768 417.606728 
L 407.483092 415.891752 
L 408.019415 417.025959 
L 408.555739 417.470076 
L 409.092062 417.634058 
L 409.628386 416.426401 
L 410.16471 415.68165 
L 410.701033 416.544263 
L 411.237357 417.114783 
L 411.77368 416.590382 
L 412.310004 414.923234 
L 412.846328 415.620157 
L 413.382651 418.705064 
L 413.918975 418.734103 
L 414.455298 417.553776 
L 414.991622 415.679942 
L 415.527946 416.470812 
L 416.064269 418.025223 
L 416.600593 417.885155 
L 417.136916 416.416152 
L 417.67324 416.072815 
L 418.209563 417.550359 
L 418.745887 417.162611 
L 419.282211 417.389794 
L 419.818534 415.992532 
L 420.891181 418.570121 
L 421.963829 418.440302 
L 422.500152 416.61088 
L 423.036476 417.65968 
L 423.572799 423.106951 
L 424.109123 423.633059 
L 424.645447 422.510809 
L 425.18177 416.973007 
L 425.718094 419.388322 
L 426.254417 419.007406 
L 426.790741 417.753628 
L 427.327064 417.017418 
L 427.863388 424.113047 
L 428.399712 424.521294 
L 428.936035 424.388058 
L 429.472359 419.588175 
L 430.008682 418.211411 
L 430.545006 421.012767 
L 431.08133 419.967383 
L 431.617653 421.233117 
L 432.153977 420.004962 
L 432.6903 418.168707 
L 433.226624 421.887336 
L 433.762948 422.514225 
L 434.299271 420.572065 
L 434.835595 419.492519 
L 435.908242 422.377573 
L 436.444565 421.231409 
L 436.980889 420.748004 
L 437.517213 419.521557 
L 438.053536 421.617449 
L 438.58986 421.152834 
L 439.126183 421.427845 
L 439.662507 419.680414 
L 440.198831 419.970799 
L 440.735154 421.591827 
L 441.271478 421.34073 
L 441.807801 421.219452 
L 442.344125 418.775098 
L 442.880449 422.495435 
L 443.416772 422.268252 
L 443.953096 421.795096 
L 444.489419 421.584995 
L 445.025743 420.864158 
L 445.562066 421.889044 
L 446.09839 421.649904 
L 446.634714 421.608909 
L 447.171037 419.892224 
L 448.243684 422.985673 
L 449.316332 420.266308 
L 449.852655 420.109159 
L 450.388979 422.961758 
L 450.925302 422.184553 
L 451.461626 421.619158 
L 451.99795 419.977631 
L 452.534273 421.108423 
L 453.60692 421.573038 
L 454.143244 420.225312 
L 454.679567 420.259475 
L 455.215891 423.528862 
L 455.752215 423.161611 
L 456.288538 422.613297 
L 456.824862 422.667958 
L 457.361185 422.053026 
L 457.897509 416.250462 
L 458.433833 416.018154 
L 458.970156 416.20605 
L 459.50648 414.877114 
L 460.042803 419.863186 
L 460.579127 418.833175 
L 461.115451 418.496671 
L 461.651774 417.070371 
L 462.188098 417.191649 
L 462.724421 420.471285 
L 463.797068 418.556456 
L 464.333392 418.790472 
L 464.869716 418.184081 
L 465.406039 419.20555 
L 466.478686 416.783403 
L 467.01501 416.793652 
L 467.551334 417.777542 
L 468.087657 419.321704 
L 468.623981 419.779487 
L 469.160304 418.650404 
L 469.696628 416.129184 
L 470.232952 419.646252 
L 470.769275 419.584758 
L 471.305599 419.144057 
L 471.841922 417.900529 
L 472.378246 417.113074 
L 472.914569 421.07426 
L 473.450893 420.196274 
L 473.987217 418.799012 
L 474.52354 418.228492 
L 475.059864 419.852937 
L 475.596187 423.397335 
L 476.132511 422.461272 
L 476.668835 422.743116 
L 477.205158 420.811206 
L 477.741482 420.915402 
L 478.277805 420.789 
L 478.814129 420.795832 
L 479.350453 419.513016 
L 479.886776 419.673582 
L 480.4231 421.549124 
L 480.959423 421.296318 
L 481.495747 420.054498 
L 482.03207 419.948593 
L 482.568394 421.971035 
L 483.104718 422.309248 
L 484.177365 422.462981 
L 485.250012 421.600368 
L 485.786336 420.739464 
L 486.322659 420.595979 
L 486.858983 419.214091 
L 487.395306 421.159667 
L 487.93163 422.285334 
L 488.467954 421.986408 
L 489.004277 420.013502 
L 489.540601 420.045957 
L 490.076924 426.041542 
L 490.613248 427.030557 
L 491.149571 426.345591 
L 491.685895 424.992741 
L 492.222219 421.330481 
L 492.758542 424.95687 
L 493.294866 424.095966 
L 493.831189 423.851701 
L 494.367513 421.608909 
L 494.903837 430.328982 
L 495.44016 430.92 
L 495.976484 423.610853 
L 496.512807 424.04643 
L 497.049131 422.676498 
L 497.585455 423.033501 
L 498.121778 421.967619 
L 498.658102 421.656737 
L 499.194425 420.228729 
L 499.730749 420.086953 
L 500.267072 422.03082 
L 500.803396 422.314372 
L 501.33972 422.170888 
L 501.876043 419.697496 
L 502.412367 421.016183 
L 502.94869 420.466161 
L 503.485014 419.393446 
L 504.021338 416.860269 
L 504.557661 416.662125 
L 505.093985 421.178456 
L 505.630308 420.472993 
L 506.166632 418.342938 
L 506.702956 417.671637 
L 507.775603 419.188469 
L 508.84825 417.451287 
L 509.384573 415.666277 
L 509.920897 415.790971 
L 510.457221 414.333925 
L 510.993544 413.751448 
L 511.529868 412.489129 
L 512.066191 412.275612 
L 512.602515 415.497171 
L 513.138839 415.201662 
L 513.675162 414.634558 
L 514.211486 413.127975 
L 514.747809 415.235825 
L 515.284133 415.577453 
L 516.35678 415.726062 
L 516.893104 414.530361 
L 517.429427 417.106242 
L 517.965751 417.092577 
L 518.502074 416.368324 
L 519.038398 414.504739 
L 519.574722 415.792679 
L 520.111045 417.758753 
L 521.720016 415.087216 
L 522.25634 416.598923 
L 522.792663 416.44519 
L 523.328987 414.810497 
L 523.86531 412.369559 
L 524.401634 412.586494 
L 524.937958 416.047193 
L 525.474281 415.297318 
L 526.010605 413.934219 
L 526.546928 413.637002 
L 527.083252 415.073551 
L 527.619575 415.927623 
L 528.155899 415.630406 
L 528.692223 414.005961 
L 529.228546 413.553303 
L 529.76487 416.861977 
L 530.301193 416.356367 
L 530.837517 416.257294 
L 531.373841 414.865157 
L 531.910164 415.324648 
L 532.446488 417.343674 
L 532.982811 416.846604 
L 533.519135 415.649195 
L 534.055459 414.986436 
L 534.591782 417.31976 
L 535.128106 418.24899 
L 535.664429 417.973979 
L 536.200753 416.376865 
L 536.737076 413.845396 
L 537.2734 417.480325 
L 537.809724 417.692135 
L 538.346047 418.296818 
L 538.882371 415.84734 
L 539.418694 416.014738 
L 539.955018 418.170415 
L 540.491342 417.722882 
L 541.027665 416.72191 
L 541.563989 414.696051 
L 542.100312 416.475937 
L 542.636636 416.214591 
L 543.17296 415.046221 
L 543.709283 413.131391 
L 544.245607 412.803428 
L 544.78193 413.913721 
L 545.318254 412.603575 
L 545.854577 412.465215 
L 546.390901 411.585521 
L 546.927225 414.911277 
L 547.463548 414.506447 
L 547.999872 413.766821 
L 548.536195 411.003044 
L 549.072519 408.886654 
L 549.608843 411.433497 
L 550.145166 411.887863 
L 550.68149 411.120906 
L 551.217813 407.907888 
L 551.754137 408.966937 
L 552.290461 410.434233 
L 552.826784 410.285624 
L 553.363108 410.494018 
L 553.899431 409.358102 
L 554.435755 411.788791 
L 554.972078 412.461799 
L 555.508402 411.16361 
L 556.044726 410.246337 
L 556.581049 409.634821 
L 557.117373 409.484505 
L 558.19002 408.681677 
L 559.262667 406.794178 
L 559.798991 408.690218 
L 560.335314 408.309302 
L 560.871638 407.026486 
L 561.407962 406.659235 
L 561.944285 411.35663 
L 562.480609 410.59309 
L 563.016932 410.06869 
L 563.553256 408.008669 
L 564.089579 407.496225 
L 564.625903 411.156777 
L 565.162227 410.801483 
L 565.69855 409.329064 
L 566.234874 414.704592 
L 566.771197 415.987408 
L 567.307521 415.761933 
L 567.843845 415.281944 
L 568.380168 409.204369 
L 568.916492 408.469867 
L 569.452815 410.584549 
L 569.989139 408.399833 
L 570.525463 414.526945 
L 571.061786 413.609672 
L 571.59811 416.042068 
L 572.134433 411.247309 
L 572.670757 411.515488 
L 573.20708 411.491574 
L 573.743404 410.374448 
L 574.279728 410.765612 
L 574.816051 410.967173 
L 575.352375 411.325884 
L 575.888698 408.915693 
L 576.961346 413.039152 
L 577.497669 412.56258 
L 578.033993 411.40275 
L 578.570316 409.434969 
L 579.10664 410.779278 
L 579.642964 410.239504 
L 580.179287 407.043567 
L 580.715611 406.676316 
L 581.251934 404.725616 
L 581.788258 406.165581 
L 582.324581 405.714632 
L 582.860905 405.748794 
L 583.397229 404.78711 
L 583.933552 405.465243 
L 584.469876 405.021125 
L 585.006199 404.735865 
L 585.542523 404.811024 
L 586.078847 402.211229 
L 586.61517 402.926941 
L 587.151494 401.591173 
L 587.687817 399.235642 
L 588.224141 399.531151 
L 588.760465 400.169997 
L 589.296788 403.740017 
L 590.369435 402.889362 
L 590.905759 401.577508 
L 591.442082 403.454757 
L 591.978406 402.499905 
L 592.51473 402.190731 
L 593.051053 400.930121 
L 593.587377 399.180982 
L 594.1237 399.695133 
L 595.196348 399.44062 
L 595.732671 396.92794 
L 596.268995 397.910123 
L 596.805318 399.488448 
L 597.341642 399.48674 
L 597.877966 399.117781 
L 598.414289 397.530915 
L 598.950613 400.451841 
L 599.486936 399.93769 
L 600.02326 399.678052 
L 600.559584 397.160248 
L 601.095907 397.271277 
L 601.632231 399.520902 
L 602.168554 398.567758 
L 602.704878 398.842769 
L 603.241201 397.643653 
L 603.777525 398.935009 
L 604.313849 399.476491 
L 604.850172 399.623391 
L 605.386496 398.113392 
L 605.922819 397.045802 
L 606.459143 402.076285 
L 606.995467 401.744906 
L 607.53179 401.656082 
L 608.604437 395.966255 
L 609.140761 398.121933 
L 609.677085 398.221005 
L 610.213408 398.494308 
L 610.749732 396.818619 
L 611.286055 399.389375 
L 611.822379 399.32105 
L 612.358702 398.448188 
L 612.895026 398.67708 
L 613.43135 397.382307 
L 613.967673 399.5414 
L 614.503997 400.132418 
L 615.04032 400.01968 
L 615.576644 398.159512 
L 616.112968 399.088742 
L 616.649291 415.029139 
L 617.185615 411.565024 
L 617.721938 409.721937 
L 618.258262 402.511862 
L 618.794586 411.78025 
L 619.330909 409.877378 
L 619.330909 409.877378 
" style="fill:none;stroke:#1f77b4;stroke-linecap:square;stroke-width:1.5;"/>
   </g>
   <g id="patch_3">
    <path d="M 108 448.56 
L 108 60.48 
" style="fill:none;stroke:#000000;stroke-linecap:square;stroke-linejoin:miter;stroke-width:0.8;"/>
   </g>
   <g id="patch_4">
    <path d="M 643.68 448.56 
L 643.68 60.48 
" style="fill:none;stroke:#000000;stroke-linecap:square;stroke-linejoin:miter;stroke-width:0.8;"/>
   </g>
   <g id="patch_5">
    <path d="M 108 448.56 
L 643.68 448.56 
" style="fill:none;stroke:#000000;stroke-linecap:square;stroke-linejoin:miter;stroke-width:0.8;"/>
   </g>
   <g id="patch_6">
    <path d="M 108 60.48 
L 643.68 60.48 
" style="fill:none;stroke:#000000;stroke-linecap:square;stroke-linejoin:miter;stroke-width:0.8;"/>
   </g>
   <g id="text_29">
    <!-- unikernel_dce-allocpool - vmstat -->
    <g transform="translate(254.104453 54.48)scale(0.15 -0.15)">
     <defs>
      <path d="M 8.5 21.578125 
L 8.5 54.6875 
L 17.484375 54.6875 
L 17.484375 21.921875 
Q 17.484375 14.15625 20.5 10.265625 
Q 23.53125 6.390625 29.59375 6.390625 
Q 36.859375 6.390625 41.078125 11.03125 
Q 45.3125 15.671875 45.3125 23.6875 
L 45.3125 54.6875 
L 54.296875 54.6875 
L 54.296875 0 
L 45.3125 0 
L 45.3125 8.40625 
Q 42.046875 3.421875 37.71875 1 
Q 33.40625 -1.421875 27.6875 -1.421875 
Q 18.265625 -1.421875 13.375 4.4375 
Q 8.5 10.296875 8.5 21.578125 
z
M 31.109375 56 
z
" id="DejaVuSans-117"/>
      <path d="M 54.890625 33.015625 
L 54.890625 0 
L 45.90625 0 
L 45.90625 32.71875 
Q 45.90625 40.484375 42.875 44.328125 
Q 39.84375 48.1875 33.796875 48.1875 
Q 26.515625 48.1875 22.3125 43.546875 
Q 18.109375 38.921875 18.109375 30.90625 
L 18.109375 0 
L 9.078125 0 
L 9.078125 54.6875 
L 18.109375 54.6875 
L 18.109375 46.1875 
Q 21.34375 51.125 25.703125 53.5625 
Q 30.078125 56 35.796875 56 
Q 45.21875 56 50.046875 50.171875 
Q 54.890625 44.34375 54.890625 33.015625 
z
" id="DejaVuSans-110"/>
      <path d="M 9.078125 75.984375 
L 18.109375 75.984375 
L 18.109375 31.109375 
L 44.921875 54.6875 
L 56.390625 54.6875 
L 27.390625 29.109375 
L 57.625 0 
L 45.90625 0 
L 18.109375 26.703125 
L 18.109375 0 
L 9.078125 0 
z
" id="DejaVuSans-107"/>
      <path d="M 41.109375 46.296875 
Q 39.59375 47.171875 37.8125 47.578125 
Q 36.03125 48 33.890625 48 
Q 26.265625 48 22.1875 43.046875 
Q 18.109375 38.09375 18.109375 28.8125 
L 18.109375 0 
L 9.078125 0 
L 9.078125 54.6875 
L 18.109375 54.6875 
L 18.109375 46.1875 
Q 20.953125 51.171875 25.484375 53.578125 
Q 30.03125 56 36.53125 56 
Q 37.453125 56 38.578125 55.875 
Q 39.703125 55.765625 41.0625 55.515625 
z
" id="DejaVuSans-114"/>
      <path d="M 9.421875 75.984375 
L 18.40625 75.984375 
L 18.40625 0 
L 9.421875 0 
z
" id="DejaVuSans-108"/>
      <path d="M 50.984375 -16.609375 
L 50.984375 -23.578125 
L -0.984375 -23.578125 
L -0.984375 -16.609375 
z
" id="DejaVuSans-95"/>
      <path d="M 45.40625 46.390625 
L 45.40625 75.984375 
L 54.390625 75.984375 
L 54.390625 0 
L 45.40625 0 
L 45.40625 8.203125 
Q 42.578125 3.328125 38.25 0.953125 
Q 33.9375 -1.421875 27.875 -1.421875 
Q 17.96875 -1.421875 11.734375 6.484375 
Q 5.515625 14.40625 5.515625 27.296875 
Q 5.515625 40.1875 11.734375 48.09375 
Q 17.96875 56 27.875 56 
Q 33.9375 56 38.25 53.625 
Q 42.578125 51.265625 45.40625 46.390625 
z
M 14.796875 27.296875 
Q 14.796875 17.390625 18.875 11.75 
Q 22.953125 6.109375 30.078125 6.109375 
Q 37.203125 6.109375 41.296875 11.75 
Q 45.40625 17.390625 45.40625 27.296875 
Q 45.40625 37.203125 41.296875 42.84375 
Q 37.203125 48.484375 30.078125 48.484375 
Q 22.953125 48.484375 18.875 42.84375 
Q 14.796875 37.203125 14.796875 27.296875 
z
" id="DejaVuSans-100"/>
      <path d="M 48.78125 52.59375 
L 48.78125 44.1875 
Q 44.96875 46.296875 41.140625 47.34375 
Q 37.3125 48.390625 33.40625 48.390625 
Q 24.65625 48.390625 19.8125 42.84375 
Q 14.984375 37.3125 14.984375 27.296875 
Q 14.984375 17.28125 19.8125 11.734375 
Q 24.65625 6.203125 33.40625 6.203125 
Q 37.3125 6.203125 41.140625 7.25 
Q 44.96875 8.296875 48.78125 10.40625 
L 48.78125 2.09375 
Q 45.015625 0.34375 40.984375 -0.53125 
Q 36.96875 -1.421875 32.421875 -1.421875 
Q 20.0625 -1.421875 12.78125 6.34375 
Q 5.515625 14.109375 5.515625 27.296875 
Q 5.515625 40.671875 12.859375 48.328125 
Q 20.21875 56 33.015625 56 
Q 37.15625 56 41.109375 55.140625 
Q 45.0625 54.296875 48.78125 52.59375 
z
" id="DejaVuSans-99"/>
      <path d="M 4.890625 31.390625 
L 31.203125 31.390625 
L 31.203125 23.390625 
L 4.890625 23.390625 
z
" id="DejaVuSans-45"/>
      <path d="M 30.609375 48.390625 
Q 23.390625 48.390625 19.1875 42.75 
Q 14.984375 37.109375 14.984375 27.296875 
Q 14.984375 17.484375 19.15625 11.84375 
Q 23.34375 6.203125 30.609375 6.203125 
Q 37.796875 6.203125 41.984375 11.859375 
Q 46.1875 17.53125 46.1875 27.296875 
Q 46.1875 37.015625 41.984375 42.703125 
Q 37.796875 48.390625 30.609375 48.390625 
z
M 30.609375 56 
Q 42.328125 56 49.015625 48.375 
Q 55.71875 40.765625 55.71875 27.296875 
Q 55.71875 13.875 49.015625 6.21875 
Q 42.328125 -1.421875 30.609375 -1.421875 
Q 18.84375 -1.421875 12.171875 6.21875 
Q 5.515625 13.875 5.515625 27.296875 
Q 5.515625 40.765625 12.171875 48.375 
Q 18.84375 56 30.609375 56 
z
" id="DejaVuSans-111"/>
      <path id="DejaVuSans-32"/>
      <path d="M 2.984375 54.6875 
L 12.5 54.6875 
L 29.59375 8.796875 
L 46.6875 54.6875 
L 56.203125 54.6875 
L 35.6875 0 
L 23.484375 0 
z
" id="DejaVuSans-118"/>
     </defs>
     <use xlink:href="#DejaVuSans-117"/>
     <use x="63.378906" xlink:href="#DejaVuSans-110"/>
     <use x="126.757812" xlink:href="#DejaVuSans-105"/>
     <use x="154.541016" xlink:href="#DejaVuSans-107"/>
     <use x="208.826172" xlink:href="#DejaVuSans-101"/>
     <use x="270.349609" xlink:href="#DejaVuSans-114"/>
     <use x="309.712891" xlink:href="#DejaVuSans-110"/>
     <use x="373.091797" xlink:href="#DejaVuSans-101"/>
     <use x="434.615234" xlink:href="#DejaVuSans-108"/>
     <use x="462.398438" xlink:href="#DejaVuSans-95"/>
     <use x="512.398438" xlink:href="#DejaVuSans-100"/>
     <use x="575.875" xlink:href="#DejaVuSans-99"/>
     <use x="630.855469" xlink:href="#DejaVuSans-101"/>
     <use x="692.378906" xlink:href="#DejaVuSans-45"/>
     <use x="728.462891" xlink:href="#DejaVuSans-97"/>
     <use x="789.742188" xlink:href="#DejaVuSans-108"/>
     <use x="817.525391" xlink:href="#DejaVuSans-108"/>
     <use x="845.308594" xlink:href="#DejaVuSans-111"/>
     <use x="906.490234" xlink:href="#DejaVuSans-99"/>
     <use x="961.470703" xlink:href="#DejaVuSans-112"/>
     <use x="1024.947266" xlink:href="#DejaVuSans-111"/>
     <use x="1086.128906" xlink:href="#DejaVuSans-111"/>
     <use x="1147.310547" xlink:href="#DejaVuSans-108"/>
     <use x="1175.09375" xlink:href="#DejaVuSans-32"/>
     <use x="1206.880859" xlink:href="#DejaVuSans-45"/>
     <use x="1242.964844" xlink:href="#DejaVuSans-32"/>
     <use x="1274.751953" xlink:href="#DejaVuSans-118"/>
     <use x="1333.931641" xlink:href="#DejaVuSans-109"/>
     <use x="1431.34375" xlink:href="#DejaVuSans-115"/>
     <use x="1483.443359" xlink:href="#DejaVuSans-116"/>
     <use x="1522.652344" xlink:href="#DejaVuSans-97"/>
     <use x="1583.931641" xlink:href="#DejaVuSans-116"/>
    </g>
   </g>
   <g id="legend_1">
    <g id="patch_7">
     <path d="M 650.68 258.52 
L 654.68 258.52 
Q 656.68 258.52 656.68 256.52 
L 656.68 252.52 
Q 656.68 250.52 654.68 250.52 
L 650.68 250.52 
Q 648.68 250.52 648.68 252.52 
L 648.68 256.52 
Q 648.68 258.52 650.68 258.52 
z
" style="fill:#ffffff;opacity:0.8;stroke:#cccccc;stroke-linejoin:miter;"/>
    </g>
   </g>
  </g>
 </g>
 <defs>
  <clipPath id="p936b2dbf88">
   <rect height="388.08" width="535.68" x="108" y="60.48"/>
  </clipPath>
 </defs>
</svg>
