<?xml version="1.0" encoding="utf-8" standalone="no"?>
<!DOCTYPE svg PUBLIC "-//W3C//DTD SVG 1.1//EN"
  "http://www.w3.org/Graphics/SVG/1.1/DTD/svg11.dtd">
<!-- Created with matplotlib (https://matplotlib.org/) -->
<svg height="504pt" version="1.1" viewBox="0 0 864 504" width="864pt" xmlns="http://www.w3.org/2000/svg" xmlns:xlink="http://www.w3.org/1999/xlink">
 <metadata>
  <rdf:RDF xmlns:cc="http://creativecommons.org/ns#" xmlns:dc="http://purl.org/dc/elements/1.1/" xmlns:rdf="http://www.w3.org/1999/02/22-rdf-syntax-ns#">
   <cc:Work>
    <dc:type rdf:resource="http://purl.org/dc/dcmitype/StillImage"/>
    <dc:date>2022-05-29T17:24:38.208305</dc:date>
    <dc:format>image/svg+xml</dc:format>
    <dc:creator>
     <cc:Agent>
      <dc:title>Matplotlib v3.3.4, https://matplotlib.org/</dc:title>
     </cc:Agent>
    </dc:creator>
   </cc:Work>
  </rdf:RDF>
 </metadata>
 <defs>
  <style type="text/css">*{stroke-linecap:butt;stroke-linejoin:round;}</style>
 </defs>
 <g id="figure_1">
  <g id="patch_1">
   <path d="M 0 504 
L 864 504 
L 864 0 
L 0 0 
z
" style="fill:#ffffff;"/>
  </g>
  <g id="axes_1">
   <g id="patch_2">
    <path d="M 108 448.56 
L 643.68 448.56 
L 643.68 60.48 
L 108 60.48 
z
" style="fill:#ffffff;"/>
   </g>
   <g id="matplotlib.axis_1">
    <g id="xtick_1">
     <g id="line2d_1">
      <defs>
       <path d="M 0 0 
L 0 3.5 
" id="mae34ed067e" style="stroke:#000000;stroke-width:0.8;"/>
      </defs>
      <g>
       <use style="stroke:#000000;stroke-width:0.8;" x="132.349091" xlink:href="#mae34ed067e" y="448.56"/>
      </g>
     </g>
     <g id="text_1">
      <!-- 11:33:06 -->
      <g transform="translate(135.108466 500.4725)rotate(-90)scale(0.1 -0.1)">
       <defs>
        <path d="M 12.40625 8.296875 
L 28.515625 8.296875 
L 28.515625 63.921875 
L 10.984375 60.40625 
L 10.984375 69.390625 
L 28.421875 72.90625 
L 38.28125 72.90625 
L 38.28125 8.296875 
L 54.390625 8.296875 
L 54.390625 0 
L 12.40625 0 
z
" id="DejaVuSans-49"/>
        <path d="M 11.71875 12.40625 
L 22.015625 12.40625 
L 22.015625 0 
L 11.71875 0 
z
M 11.71875 51.703125 
L 22.015625 51.703125 
L 22.015625 39.3125 
L 11.71875 39.3125 
z
" id="DejaVuSans-58"/>
        <path d="M 40.578125 39.3125 
Q 47.65625 37.796875 51.625 33 
Q 55.609375 28.21875 55.609375 21.1875 
Q 55.609375 10.40625 48.1875 4.484375 
Q 40.765625 -1.421875 27.09375 -1.421875 
Q 22.515625 -1.421875 17.65625 -0.515625 
Q 12.796875 0.390625 7.625 2.203125 
L 7.625 11.71875 
Q 11.71875 9.328125 16.59375 8.109375 
Q 21.484375 6.890625 26.8125 6.890625 
Q 36.078125 6.890625 40.9375 10.546875 
Q 45.796875 14.203125 45.796875 21.1875 
Q 45.796875 27.640625 41.28125 31.265625 
Q 36.765625 34.90625 28.71875 34.90625 
L 20.21875 34.90625 
L 20.21875 43.015625 
L 29.109375 43.015625 
Q 36.375 43.015625 40.234375 45.921875 
Q 44.09375 48.828125 44.09375 54.296875 
Q 44.09375 59.90625 40.109375 62.90625 
Q 36.140625 65.921875 28.71875 65.921875 
Q 24.65625 65.921875 20.015625 65.03125 
Q 15.375 64.15625 9.8125 62.3125 
L 9.8125 71.09375 
Q 15.4375 72.65625 20.34375 73.4375 
Q 25.25 74.21875 29.59375 74.21875 
Q 40.828125 74.21875 47.359375 69.109375 
Q 53.90625 64.015625 53.90625 55.328125 
Q 53.90625 49.265625 50.4375 45.09375 
Q 46.96875 40.921875 40.578125 39.3125 
z
" id="DejaVuSans-51"/>
        <path d="M 31.78125 66.40625 
Q 24.171875 66.40625 20.328125 58.90625 
Q 16.5 51.421875 16.5 36.375 
Q 16.5 21.390625 20.328125 13.890625 
Q 24.171875 6.390625 31.78125 6.390625 
Q 39.453125 6.390625 43.28125 13.890625 
Q 47.125 21.390625 47.125 36.375 
Q 47.125 51.421875 43.28125 58.90625 
Q 39.453125 66.40625 31.78125 66.40625 
z
M 31.78125 74.21875 
Q 44.046875 74.21875 50.515625 64.515625 
Q 56.984375 54.828125 56.984375 36.375 
Q 56.984375 17.96875 50.515625 8.265625 
Q 44.046875 -1.421875 31.78125 -1.421875 
Q 19.53125 -1.421875 13.0625 8.265625 
Q 6.59375 17.96875 6.59375 36.375 
Q 6.59375 54.828125 13.0625 64.515625 
Q 19.53125 74.21875 31.78125 74.21875 
z
" id="DejaVuSans-48"/>
        <path d="M 33.015625 40.375 
Q 26.375 40.375 22.484375 35.828125 
Q 18.609375 31.296875 18.609375 23.390625 
Q 18.609375 15.53125 22.484375 10.953125 
Q 26.375 6.390625 33.015625 6.390625 
Q 39.65625 6.390625 43.53125 10.953125 
Q 47.40625 15.53125 47.40625 23.390625 
Q 47.40625 31.296875 43.53125 35.828125 
Q 39.65625 40.375 33.015625 40.375 
z
M 52.59375 71.296875 
L 52.59375 62.3125 
Q 48.875 64.0625 45.09375 64.984375 
Q 41.3125 65.921875 37.59375 65.921875 
Q 27.828125 65.921875 22.671875 59.328125 
Q 17.53125 52.734375 16.796875 39.40625 
Q 19.671875 43.65625 24.015625 45.921875 
Q 28.375 48.1875 33.59375 48.1875 
Q 44.578125 48.1875 50.953125 41.515625 
Q 57.328125 34.859375 57.328125 23.390625 
Q 57.328125 12.15625 50.6875 5.359375 
Q 44.046875 -1.421875 33.015625 -1.421875 
Q 20.359375 -1.421875 13.671875 8.265625 
Q 6.984375 17.96875 6.984375 36.375 
Q 6.984375 53.65625 15.1875 63.9375 
Q 23.390625 74.21875 37.203125 74.21875 
Q 40.921875 74.21875 44.703125 73.484375 
Q 48.484375 72.75 52.59375 71.296875 
z
" id="DejaVuSans-54"/>
       </defs>
       <use xlink:href="#DejaVuSans-49"/>
       <use x="63.623047" xlink:href="#DejaVuSans-49"/>
       <use x="127.246094" xlink:href="#DejaVuSans-58"/>
       <use x="160.9375" xlink:href="#DejaVuSans-51"/>
       <use x="224.560547" xlink:href="#DejaVuSans-51"/>
       <use x="288.183594" xlink:href="#DejaVuSans-58"/>
       <use x="321.875" xlink:href="#DejaVuSans-48"/>
       <use x="385.498047" xlink:href="#DejaVuSans-54"/>
      </g>
     </g>
    </g>
    <g id="xtick_2">
     <g id="line2d_2">
      <g>
       <use style="stroke:#000000;stroke-width:0.8;" x="156.280769" xlink:href="#mae34ed067e" y="448.56"/>
      </g>
     </g>
     <g id="text_2">
      <!-- 11:33:55 -->
      <g transform="translate(159.040144 500.4725)rotate(-90)scale(0.1 -0.1)">
       <defs>
        <path d="M 10.796875 72.90625 
L 49.515625 72.90625 
L 49.515625 64.59375 
L 19.828125 64.59375 
L 19.828125 46.734375 
Q 21.96875 47.46875 24.109375 47.828125 
Q 26.265625 48.1875 28.421875 48.1875 
Q 40.625 48.1875 47.75 41.5 
Q 54.890625 34.8125 54.890625 23.390625 
Q 54.890625 11.625 47.5625 5.09375 
Q 40.234375 -1.421875 26.90625 -1.421875 
Q 22.3125 -1.421875 17.546875 -0.640625 
Q 12.796875 0.140625 7.71875 1.703125 
L 7.71875 11.625 
Q 12.109375 9.234375 16.796875 8.0625 
Q 21.484375 6.890625 26.703125 6.890625 
Q 35.15625 6.890625 40.078125 11.328125 
Q 45.015625 15.765625 45.015625 23.390625 
Q 45.015625 31 40.078125 35.4375 
Q 35.15625 39.890625 26.703125 39.890625 
Q 22.75 39.890625 18.8125 39.015625 
Q 14.890625 38.140625 10.796875 36.28125 
z
" id="DejaVuSans-53"/>
       </defs>
       <use xlink:href="#DejaVuSans-49"/>
       <use x="63.623047" xlink:href="#DejaVuSans-49"/>
       <use x="127.246094" xlink:href="#DejaVuSans-58"/>
       <use x="160.9375" xlink:href="#DejaVuSans-51"/>
       <use x="224.560547" xlink:href="#DejaVuSans-51"/>
       <use x="288.183594" xlink:href="#DejaVuSans-58"/>
       <use x="321.875" xlink:href="#DejaVuSans-53"/>
       <use x="385.498047" xlink:href="#DejaVuSans-53"/>
      </g>
     </g>
    </g>
    <g id="xtick_3">
     <g id="line2d_3">
      <g>
       <use style="stroke:#000000;stroke-width:0.8;" x="180.212447" xlink:href="#mae34ed067e" y="448.56"/>
      </g>
     </g>
     <g id="text_3">
      <!-- 11:34:43 -->
      <g transform="translate(182.971822 500.4725)rotate(-90)scale(0.1 -0.1)">
       <defs>
        <path d="M 37.796875 64.3125 
L 12.890625 25.390625 
L 37.796875 25.390625 
z
M 35.203125 72.90625 
L 47.609375 72.90625 
L 47.609375 25.390625 
L 58.015625 25.390625 
L 58.015625 17.1875 
L 47.609375 17.1875 
L 47.609375 0 
L 37.796875 0 
L 37.796875 17.1875 
L 4.890625 17.1875 
L 4.890625 26.703125 
z
" id="DejaVuSans-52"/>
       </defs>
       <use xlink:href="#DejaVuSans-49"/>
       <use x="63.623047" xlink:href="#DejaVuSans-49"/>
       <use x="127.246094" xlink:href="#DejaVuSans-58"/>
       <use x="160.9375" xlink:href="#DejaVuSans-51"/>
       <use x="224.560547" xlink:href="#DejaVuSans-52"/>
       <use x="288.183594" xlink:href="#DejaVuSans-58"/>
       <use x="321.875" xlink:href="#DejaVuSans-52"/>
       <use x="385.498047" xlink:href="#DejaVuSans-51"/>
      </g>
     </g>
    </g>
    <g id="xtick_4">
     <g id="line2d_4">
      <g>
       <use style="stroke:#000000;stroke-width:0.8;" x="204.144125" xlink:href="#mae34ed067e" y="448.56"/>
      </g>
     </g>
     <g id="text_4">
      <!-- 11:35:32 -->
      <g transform="translate(206.9035 500.4725)rotate(-90)scale(0.1 -0.1)">
       <defs>
        <path d="M 19.1875 8.296875 
L 53.609375 8.296875 
L 53.609375 0 
L 7.328125 0 
L 7.328125 8.296875 
Q 12.9375 14.109375 22.625 23.890625 
Q 32.328125 33.6875 34.8125 36.53125 
Q 39.546875 41.84375 41.421875 45.53125 
Q 43.3125 49.21875 43.3125 52.78125 
Q 43.3125 58.59375 39.234375 62.25 
Q 35.15625 65.921875 28.609375 65.921875 
Q 23.96875 65.921875 18.8125 64.3125 
Q 13.671875 62.703125 7.8125 59.421875 
L 7.8125 69.390625 
Q 13.765625 71.78125 18.9375 73 
Q 24.125 74.21875 28.421875 74.21875 
Q 39.75 74.21875 46.484375 68.546875 
Q 53.21875 62.890625 53.21875 53.421875 
Q 53.21875 48.921875 51.53125 44.890625 
Q 49.859375 40.875 45.40625 35.40625 
Q 44.1875 33.984375 37.640625 27.21875 
Q 31.109375 20.453125 19.1875 8.296875 
z
" id="DejaVuSans-50"/>
       </defs>
       <use xlink:href="#DejaVuSans-49"/>
       <use x="63.623047" xlink:href="#DejaVuSans-49"/>
       <use x="127.246094" xlink:href="#DejaVuSans-58"/>
       <use x="160.9375" xlink:href="#DejaVuSans-51"/>
       <use x="224.560547" xlink:href="#DejaVuSans-53"/>
       <use x="288.183594" xlink:href="#DejaVuSans-58"/>
       <use x="321.875" xlink:href="#DejaVuSans-51"/>
       <use x="385.498047" xlink:href="#DejaVuSans-50"/>
      </g>
     </g>
    </g>
    <g id="xtick_5">
     <g id="line2d_5">
      <g>
       <use style="stroke:#000000;stroke-width:0.8;" x="228.075803" xlink:href="#mae34ed067e" y="448.56"/>
      </g>
     </g>
     <g id="text_5">
      <!-- 11:36:20 -->
      <g transform="translate(230.835178 500.4725)rotate(-90)scale(0.1 -0.1)">
       <use xlink:href="#DejaVuSans-49"/>
       <use x="63.623047" xlink:href="#DejaVuSans-49"/>
       <use x="127.246094" xlink:href="#DejaVuSans-58"/>
       <use x="160.9375" xlink:href="#DejaVuSans-51"/>
       <use x="224.560547" xlink:href="#DejaVuSans-54"/>
       <use x="288.183594" xlink:href="#DejaVuSans-58"/>
       <use x="321.875" xlink:href="#DejaVuSans-50"/>
       <use x="385.498047" xlink:href="#DejaVuSans-48"/>
      </g>
     </g>
    </g>
    <g id="xtick_6">
     <g id="line2d_6">
      <g>
       <use style="stroke:#000000;stroke-width:0.8;" x="252.007481" xlink:href="#mae34ed067e" y="448.56"/>
      </g>
     </g>
     <g id="text_6">
      <!-- 11:37:08 -->
      <g transform="translate(254.766856 500.4725)rotate(-90)scale(0.1 -0.1)">
       <defs>
        <path d="M 8.203125 72.90625 
L 55.078125 72.90625 
L 55.078125 68.703125 
L 28.609375 0 
L 18.3125 0 
L 43.21875 64.59375 
L 8.203125 64.59375 
z
" id="DejaVuSans-55"/>
        <path d="M 31.78125 34.625 
Q 24.75 34.625 20.71875 30.859375 
Q 16.703125 27.09375 16.703125 20.515625 
Q 16.703125 13.921875 20.71875 10.15625 
Q 24.75 6.390625 31.78125 6.390625 
Q 38.8125 6.390625 42.859375 10.171875 
Q 46.921875 13.96875 46.921875 20.515625 
Q 46.921875 27.09375 42.890625 30.859375 
Q 38.875 34.625 31.78125 34.625 
z
M 21.921875 38.8125 
Q 15.578125 40.375 12.03125 44.71875 
Q 8.5 49.078125 8.5 55.328125 
Q 8.5 64.0625 14.71875 69.140625 
Q 20.953125 74.21875 31.78125 74.21875 
Q 42.671875 74.21875 48.875 69.140625 
Q 55.078125 64.0625 55.078125 55.328125 
Q 55.078125 49.078125 51.53125 44.71875 
Q 48 40.375 41.703125 38.8125 
Q 48.828125 37.15625 52.796875 32.3125 
Q 56.78125 27.484375 56.78125 20.515625 
Q 56.78125 9.90625 50.3125 4.234375 
Q 43.84375 -1.421875 31.78125 -1.421875 
Q 19.734375 -1.421875 13.25 4.234375 
Q 6.78125 9.90625 6.78125 20.515625 
Q 6.78125 27.484375 10.78125 32.3125 
Q 14.796875 37.15625 21.921875 38.8125 
z
M 18.3125 54.390625 
Q 18.3125 48.734375 21.84375 45.5625 
Q 25.390625 42.390625 31.78125 42.390625 
Q 38.140625 42.390625 41.71875 45.5625 
Q 45.3125 48.734375 45.3125 54.390625 
Q 45.3125 60.0625 41.71875 63.234375 
Q 38.140625 66.40625 31.78125 66.40625 
Q 25.390625 66.40625 21.84375 63.234375 
Q 18.3125 60.0625 18.3125 54.390625 
z
" id="DejaVuSans-56"/>
       </defs>
       <use xlink:href="#DejaVuSans-49"/>
       <use x="63.623047" xlink:href="#DejaVuSans-49"/>
       <use x="127.246094" xlink:href="#DejaVuSans-58"/>
       <use x="160.9375" xlink:href="#DejaVuSans-51"/>
       <use x="224.560547" xlink:href="#DejaVuSans-55"/>
       <use x="288.183594" xlink:href="#DejaVuSans-58"/>
       <use x="321.875" xlink:href="#DejaVuSans-48"/>
       <use x="385.498047" xlink:href="#DejaVuSans-56"/>
      </g>
     </g>
    </g>
    <g id="xtick_7">
     <g id="line2d_7">
      <g>
       <use style="stroke:#000000;stroke-width:0.8;" x="275.939158" xlink:href="#mae34ed067e" y="448.56"/>
      </g>
     </g>
     <g id="text_7">
      <!-- 11:37:57 -->
      <g transform="translate(278.698533 500.4725)rotate(-90)scale(0.1 -0.1)">
       <use xlink:href="#DejaVuSans-49"/>
       <use x="63.623047" xlink:href="#DejaVuSans-49"/>
       <use x="127.246094" xlink:href="#DejaVuSans-58"/>
       <use x="160.9375" xlink:href="#DejaVuSans-51"/>
       <use x="224.560547" xlink:href="#DejaVuSans-55"/>
       <use x="288.183594" xlink:href="#DejaVuSans-58"/>
       <use x="321.875" xlink:href="#DejaVuSans-53"/>
       <use x="385.498047" xlink:href="#DejaVuSans-55"/>
      </g>
     </g>
    </g>
    <g id="xtick_8">
     <g id="line2d_8">
      <g>
       <use style="stroke:#000000;stroke-width:0.8;" x="299.870836" xlink:href="#mae34ed067e" y="448.56"/>
      </g>
     </g>
     <g id="text_8">
      <!-- 11:38:45 -->
      <g transform="translate(302.630211 500.4725)rotate(-90)scale(0.1 -0.1)">
       <use xlink:href="#DejaVuSans-49"/>
       <use x="63.623047" xlink:href="#DejaVuSans-49"/>
       <use x="127.246094" xlink:href="#DejaVuSans-58"/>
       <use x="160.9375" xlink:href="#DejaVuSans-51"/>
       <use x="224.560547" xlink:href="#DejaVuSans-56"/>
       <use x="288.183594" xlink:href="#DejaVuSans-58"/>
       <use x="321.875" xlink:href="#DejaVuSans-52"/>
       <use x="385.498047" xlink:href="#DejaVuSans-53"/>
      </g>
     </g>
    </g>
    <g id="xtick_9">
     <g id="line2d_9">
      <g>
       <use style="stroke:#000000;stroke-width:0.8;" x="323.802514" xlink:href="#mae34ed067e" y="448.56"/>
      </g>
     </g>
     <g id="text_9">
      <!-- 11:39:34 -->
      <g transform="translate(326.561889 500.4725)rotate(-90)scale(0.1 -0.1)">
       <defs>
        <path d="M 10.984375 1.515625 
L 10.984375 10.5 
Q 14.703125 8.734375 18.5 7.8125 
Q 22.3125 6.890625 25.984375 6.890625 
Q 35.75 6.890625 40.890625 13.453125 
Q 46.046875 20.015625 46.78125 33.40625 
Q 43.953125 29.203125 39.59375 26.953125 
Q 35.25 24.703125 29.984375 24.703125 
Q 19.046875 24.703125 12.671875 31.3125 
Q 6.296875 37.9375 6.296875 49.421875 
Q 6.296875 60.640625 12.9375 67.421875 
Q 19.578125 74.21875 30.609375 74.21875 
Q 43.265625 74.21875 49.921875 64.515625 
Q 56.59375 54.828125 56.59375 36.375 
Q 56.59375 19.140625 48.40625 8.859375 
Q 40.234375 -1.421875 26.421875 -1.421875 
Q 22.703125 -1.421875 18.890625 -0.6875 
Q 15.09375 0.046875 10.984375 1.515625 
z
M 30.609375 32.421875 
Q 37.25 32.421875 41.125 36.953125 
Q 45.015625 41.5 45.015625 49.421875 
Q 45.015625 57.28125 41.125 61.84375 
Q 37.25 66.40625 30.609375 66.40625 
Q 23.96875 66.40625 20.09375 61.84375 
Q 16.21875 57.28125 16.21875 49.421875 
Q 16.21875 41.5 20.09375 36.953125 
Q 23.96875 32.421875 30.609375 32.421875 
z
" id="DejaVuSans-57"/>
       </defs>
       <use xlink:href="#DejaVuSans-49"/>
       <use x="63.623047" xlink:href="#DejaVuSans-49"/>
       <use x="127.246094" xlink:href="#DejaVuSans-58"/>
       <use x="160.9375" xlink:href="#DejaVuSans-51"/>
       <use x="224.560547" xlink:href="#DejaVuSans-57"/>
       <use x="288.183594" xlink:href="#DejaVuSans-58"/>
       <use x="321.875" xlink:href="#DejaVuSans-51"/>
       <use x="385.498047" xlink:href="#DejaVuSans-52"/>
      </g>
     </g>
    </g>
    <g id="xtick_10">
     <g id="line2d_10">
      <g>
       <use style="stroke:#000000;stroke-width:0.8;" x="347.734192" xlink:href="#mae34ed067e" y="448.56"/>
      </g>
     </g>
     <g id="text_10">
      <!-- 11:40:22 -->
      <g transform="translate(350.493567 500.4725)rotate(-90)scale(0.1 -0.1)">
       <use xlink:href="#DejaVuSans-49"/>
       <use x="63.623047" xlink:href="#DejaVuSans-49"/>
       <use x="127.246094" xlink:href="#DejaVuSans-58"/>
       <use x="160.9375" xlink:href="#DejaVuSans-52"/>
       <use x="224.560547" xlink:href="#DejaVuSans-48"/>
       <use x="288.183594" xlink:href="#DejaVuSans-58"/>
       <use x="321.875" xlink:href="#DejaVuSans-50"/>
       <use x="385.498047" xlink:href="#DejaVuSans-50"/>
      </g>
     </g>
    </g>
    <g id="xtick_11">
     <g id="line2d_11">
      <g>
       <use style="stroke:#000000;stroke-width:0.8;" x="371.66587" xlink:href="#mae34ed067e" y="448.56"/>
      </g>
     </g>
     <g id="text_11">
      <!-- 11:41:10 -->
      <g transform="translate(374.425245 500.4725)rotate(-90)scale(0.1 -0.1)">
       <use xlink:href="#DejaVuSans-49"/>
       <use x="63.623047" xlink:href="#DejaVuSans-49"/>
       <use x="127.246094" xlink:href="#DejaVuSans-58"/>
       <use x="160.9375" xlink:href="#DejaVuSans-52"/>
       <use x="224.560547" xlink:href="#DejaVuSans-49"/>
       <use x="288.183594" xlink:href="#DejaVuSans-58"/>
       <use x="321.875" xlink:href="#DejaVuSans-49"/>
       <use x="385.498047" xlink:href="#DejaVuSans-48"/>
      </g>
     </g>
    </g>
    <g id="xtick_12">
     <g id="line2d_12">
      <g>
       <use style="stroke:#000000;stroke-width:0.8;" x="395.597548" xlink:href="#mae34ed067e" y="448.56"/>
      </g>
     </g>
     <g id="text_12">
      <!-- 11:41:59 -->
      <g transform="translate(398.356923 500.4725)rotate(-90)scale(0.1 -0.1)">
       <use xlink:href="#DejaVuSans-49"/>
       <use x="63.623047" xlink:href="#DejaVuSans-49"/>
       <use x="127.246094" xlink:href="#DejaVuSans-58"/>
       <use x="160.9375" xlink:href="#DejaVuSans-52"/>
       <use x="224.560547" xlink:href="#DejaVuSans-49"/>
       <use x="288.183594" xlink:href="#DejaVuSans-58"/>
       <use x="321.875" xlink:href="#DejaVuSans-53"/>
       <use x="385.498047" xlink:href="#DejaVuSans-57"/>
      </g>
     </g>
    </g>
    <g id="xtick_13">
     <g id="line2d_13">
      <g>
       <use style="stroke:#000000;stroke-width:0.8;" x="419.529226" xlink:href="#mae34ed067e" y="448.56"/>
      </g>
     </g>
     <g id="text_13">
      <!-- 11:42:47 -->
      <g transform="translate(422.288601 500.4725)rotate(-90)scale(0.1 -0.1)">
       <use xlink:href="#DejaVuSans-49"/>
       <use x="63.623047" xlink:href="#DejaVuSans-49"/>
       <use x="127.246094" xlink:href="#DejaVuSans-58"/>
       <use x="160.9375" xlink:href="#DejaVuSans-52"/>
       <use x="224.560547" xlink:href="#DejaVuSans-50"/>
       <use x="288.183594" xlink:href="#DejaVuSans-58"/>
       <use x="321.875" xlink:href="#DejaVuSans-52"/>
       <use x="385.498047" xlink:href="#DejaVuSans-55"/>
      </g>
     </g>
    </g>
    <g id="xtick_14">
     <g id="line2d_14">
      <g>
       <use style="stroke:#000000;stroke-width:0.8;" x="443.460904" xlink:href="#mae34ed067e" y="448.56"/>
      </g>
     </g>
     <g id="text_14">
      <!-- 11:43:36 -->
      <g transform="translate(446.220279 500.4725)rotate(-90)scale(0.1 -0.1)">
       <use xlink:href="#DejaVuSans-49"/>
       <use x="63.623047" xlink:href="#DejaVuSans-49"/>
       <use x="127.246094" xlink:href="#DejaVuSans-58"/>
       <use x="160.9375" xlink:href="#DejaVuSans-52"/>
       <use x="224.560547" xlink:href="#DejaVuSans-51"/>
       <use x="288.183594" xlink:href="#DejaVuSans-58"/>
       <use x="321.875" xlink:href="#DejaVuSans-51"/>
       <use x="385.498047" xlink:href="#DejaVuSans-54"/>
      </g>
     </g>
    </g>
    <g id="xtick_15">
     <g id="line2d_15">
      <g>
       <use style="stroke:#000000;stroke-width:0.8;" x="467.392582" xlink:href="#mae34ed067e" y="448.56"/>
      </g>
     </g>
     <g id="text_15">
      <!-- 11:44:24 -->
      <g transform="translate(470.151957 500.4725)rotate(-90)scale(0.1 -0.1)">
       <use xlink:href="#DejaVuSans-49"/>
       <use x="63.623047" xlink:href="#DejaVuSans-49"/>
       <use x="127.246094" xlink:href="#DejaVuSans-58"/>
       <use x="160.9375" xlink:href="#DejaVuSans-52"/>
       <use x="224.560547" xlink:href="#DejaVuSans-52"/>
       <use x="288.183594" xlink:href="#DejaVuSans-58"/>
       <use x="321.875" xlink:href="#DejaVuSans-50"/>
       <use x="385.498047" xlink:href="#DejaVuSans-52"/>
      </g>
     </g>
    </g>
    <g id="xtick_16">
     <g id="line2d_16">
      <g>
       <use style="stroke:#000000;stroke-width:0.8;" x="491.32426" xlink:href="#mae34ed067e" y="448.56"/>
      </g>
     </g>
     <g id="text_16">
      <!-- 11:45:12 -->
      <g transform="translate(494.083635 500.4725)rotate(-90)scale(0.1 -0.1)">
       <use xlink:href="#DejaVuSans-49"/>
       <use x="63.623047" xlink:href="#DejaVuSans-49"/>
       <use x="127.246094" xlink:href="#DejaVuSans-58"/>
       <use x="160.9375" xlink:href="#DejaVuSans-52"/>
       <use x="224.560547" xlink:href="#DejaVuSans-53"/>
       <use x="288.183594" xlink:href="#DejaVuSans-58"/>
       <use x="321.875" xlink:href="#DejaVuSans-49"/>
       <use x="385.498047" xlink:href="#DejaVuSans-50"/>
      </g>
     </g>
    </g>
    <g id="xtick_17">
     <g id="line2d_17">
      <g>
       <use style="stroke:#000000;stroke-width:0.8;" x="515.255938" xlink:href="#mae34ed067e" y="448.56"/>
      </g>
     </g>
     <g id="text_17">
      <!-- 11:46:01 -->
      <g transform="translate(518.015313 500.4725)rotate(-90)scale(0.1 -0.1)">
       <use xlink:href="#DejaVuSans-49"/>
       <use x="63.623047" xlink:href="#DejaVuSans-49"/>
       <use x="127.246094" xlink:href="#DejaVuSans-58"/>
       <use x="160.9375" xlink:href="#DejaVuSans-52"/>
       <use x="224.560547" xlink:href="#DejaVuSans-54"/>
       <use x="288.183594" xlink:href="#DejaVuSans-58"/>
       <use x="321.875" xlink:href="#DejaVuSans-48"/>
       <use x="385.498047" xlink:href="#DejaVuSans-49"/>
      </g>
     </g>
    </g>
    <g id="xtick_18">
     <g id="line2d_18">
      <g>
       <use style="stroke:#000000;stroke-width:0.8;" x="539.187616" xlink:href="#mae34ed067e" y="448.56"/>
      </g>
     </g>
     <g id="text_18">
      <!-- 11:46:49 -->
      <g transform="translate(541.946991 500.4725)rotate(-90)scale(0.1 -0.1)">
       <use xlink:href="#DejaVuSans-49"/>
       <use x="63.623047" xlink:href="#DejaVuSans-49"/>
       <use x="127.246094" xlink:href="#DejaVuSans-58"/>
       <use x="160.9375" xlink:href="#DejaVuSans-52"/>
       <use x="224.560547" xlink:href="#DejaVuSans-54"/>
       <use x="288.183594" xlink:href="#DejaVuSans-58"/>
       <use x="321.875" xlink:href="#DejaVuSans-52"/>
       <use x="385.498047" xlink:href="#DejaVuSans-57"/>
      </g>
     </g>
    </g>
    <g id="xtick_19">
     <g id="line2d_19">
      <g>
       <use style="stroke:#000000;stroke-width:0.8;" x="563.119294" xlink:href="#mae34ed067e" y="448.56"/>
      </g>
     </g>
     <g id="text_19">
      <!-- 11:47:37 -->
      <g transform="translate(565.878669 500.4725)rotate(-90)scale(0.1 -0.1)">
       <use xlink:href="#DejaVuSans-49"/>
       <use x="63.623047" xlink:href="#DejaVuSans-49"/>
       <use x="127.246094" xlink:href="#DejaVuSans-58"/>
       <use x="160.9375" xlink:href="#DejaVuSans-52"/>
       <use x="224.560547" xlink:href="#DejaVuSans-55"/>
       <use x="288.183594" xlink:href="#DejaVuSans-58"/>
       <use x="321.875" xlink:href="#DejaVuSans-51"/>
       <use x="385.498047" xlink:href="#DejaVuSans-55"/>
      </g>
     </g>
    </g>
    <g id="xtick_20">
     <g id="line2d_20">
      <g>
       <use style="stroke:#000000;stroke-width:0.8;" x="587.050971" xlink:href="#mae34ed067e" y="448.56"/>
      </g>
     </g>
     <g id="text_20">
      <!-- 11:48:26 -->
      <g transform="translate(589.810346 500.4725)rotate(-90)scale(0.1 -0.1)">
       <use xlink:href="#DejaVuSans-49"/>
       <use x="63.623047" xlink:href="#DejaVuSans-49"/>
       <use x="127.246094" xlink:href="#DejaVuSans-58"/>
       <use x="160.9375" xlink:href="#DejaVuSans-52"/>
       <use x="224.560547" xlink:href="#DejaVuSans-56"/>
       <use x="288.183594" xlink:href="#DejaVuSans-58"/>
       <use x="321.875" xlink:href="#DejaVuSans-50"/>
       <use x="385.498047" xlink:href="#DejaVuSans-54"/>
      </g>
     </g>
    </g>
    <g id="xtick_21">
     <g id="line2d_21">
      <g>
       <use style="stroke:#000000;stroke-width:0.8;" x="610.982649" xlink:href="#mae34ed067e" y="448.56"/>
      </g>
     </g>
     <g id="text_21">
      <!-- 11:49:14 -->
      <g transform="translate(613.742024 500.4725)rotate(-90)scale(0.1 -0.1)">
       <use xlink:href="#DejaVuSans-49"/>
       <use x="63.623047" xlink:href="#DejaVuSans-49"/>
       <use x="127.246094" xlink:href="#DejaVuSans-58"/>
       <use x="160.9375" xlink:href="#DejaVuSans-52"/>
       <use x="224.560547" xlink:href="#DejaVuSans-57"/>
       <use x="288.183594" xlink:href="#DejaVuSans-58"/>
       <use x="321.875" xlink:href="#DejaVuSans-49"/>
       <use x="385.498047" xlink:href="#DejaVuSans-52"/>
      </g>
     </g>
    </g>
    <g id="text_22">
     <!-- timestamp -->
     <g transform="translate(354.264375 510.55125)scale(0.08 -0.08)">
      <defs>
       <path d="M 18.3125 70.21875 
L 18.3125 54.6875 
L 36.8125 54.6875 
L 36.8125 47.703125 
L 18.3125 47.703125 
L 18.3125 18.015625 
Q 18.3125 11.328125 20.140625 9.421875 
Q 21.96875 7.515625 27.59375 7.515625 
L 36.8125 7.515625 
L 36.8125 0 
L 27.59375 0 
Q 17.1875 0 13.234375 3.875 
Q 9.28125 7.765625 9.28125 18.015625 
L 9.28125 47.703125 
L 2.6875 47.703125 
L 2.6875 54.6875 
L 9.28125 54.6875 
L 9.28125 70.21875 
z
" id="DejaVuSans-116"/>
       <path d="M 9.421875 54.6875 
L 18.40625 54.6875 
L 18.40625 0 
L 9.421875 0 
z
M 9.421875 75.984375 
L 18.40625 75.984375 
L 18.40625 64.59375 
L 9.421875 64.59375 
z
" id="DejaVuSans-105"/>
       <path d="M 52 44.1875 
Q 55.375 50.25 60.0625 53.125 
Q 64.75 56 71.09375 56 
Q 79.640625 56 84.28125 50.015625 
Q 88.921875 44.046875 88.921875 33.015625 
L 88.921875 0 
L 79.890625 0 
L 79.890625 32.71875 
Q 79.890625 40.578125 77.09375 44.375 
Q 74.3125 48.1875 68.609375 48.1875 
Q 61.625 48.1875 57.5625 43.546875 
Q 53.515625 38.921875 53.515625 30.90625 
L 53.515625 0 
L 44.484375 0 
L 44.484375 32.71875 
Q 44.484375 40.625 41.703125 44.40625 
Q 38.921875 48.1875 33.109375 48.1875 
Q 26.21875 48.1875 22.15625 43.53125 
Q 18.109375 38.875 18.109375 30.90625 
L 18.109375 0 
L 9.078125 0 
L 9.078125 54.6875 
L 18.109375 54.6875 
L 18.109375 46.1875 
Q 21.1875 51.21875 25.484375 53.609375 
Q 29.78125 56 35.6875 56 
Q 41.65625 56 45.828125 52.96875 
Q 50 49.953125 52 44.1875 
z
" id="DejaVuSans-109"/>
       <path d="M 56.203125 29.59375 
L 56.203125 25.203125 
L 14.890625 25.203125 
Q 15.484375 15.921875 20.484375 11.0625 
Q 25.484375 6.203125 34.421875 6.203125 
Q 39.59375 6.203125 44.453125 7.46875 
Q 49.3125 8.734375 54.109375 11.28125 
L 54.109375 2.78125 
Q 49.265625 0.734375 44.1875 -0.34375 
Q 39.109375 -1.421875 33.890625 -1.421875 
Q 20.796875 -1.421875 13.15625 6.1875 
Q 5.515625 13.8125 5.515625 26.8125 
Q 5.515625 40.234375 12.765625 48.109375 
Q 20.015625 56 32.328125 56 
Q 43.359375 56 49.78125 48.890625 
Q 56.203125 41.796875 56.203125 29.59375 
z
M 47.21875 32.234375 
Q 47.125 39.59375 43.09375 43.984375 
Q 39.0625 48.390625 32.421875 48.390625 
Q 24.90625 48.390625 20.390625 44.140625 
Q 15.875 39.890625 15.1875 32.171875 
z
" id="DejaVuSans-101"/>
       <path d="M 44.28125 53.078125 
L 44.28125 44.578125 
Q 40.484375 46.53125 36.375 47.5 
Q 32.28125 48.484375 27.875 48.484375 
Q 21.1875 48.484375 17.84375 46.4375 
Q 14.5 44.390625 14.5 40.28125 
Q 14.5 37.15625 16.890625 35.375 
Q 19.28125 33.59375 26.515625 31.984375 
L 29.59375 31.296875 
Q 39.15625 29.25 43.1875 25.515625 
Q 47.21875 21.78125 47.21875 15.09375 
Q 47.21875 7.46875 41.1875 3.015625 
Q 35.15625 -1.421875 24.609375 -1.421875 
Q 20.21875 -1.421875 15.453125 -0.5625 
Q 10.6875 0.296875 5.421875 2 
L 5.421875 11.28125 
Q 10.40625 8.6875 15.234375 7.390625 
Q 20.0625 6.109375 24.8125 6.109375 
Q 31.15625 6.109375 34.5625 8.28125 
Q 37.984375 10.453125 37.984375 14.40625 
Q 37.984375 18.0625 35.515625 20.015625 
Q 33.0625 21.96875 24.703125 23.78125 
L 21.578125 24.515625 
Q 13.234375 26.265625 9.515625 29.90625 
Q 5.8125 33.546875 5.8125 39.890625 
Q 5.8125 47.609375 11.28125 51.796875 
Q 16.75 56 26.8125 56 
Q 31.78125 56 36.171875 55.265625 
Q 40.578125 54.546875 44.28125 53.078125 
z
" id="DejaVuSans-115"/>
       <path d="M 34.28125 27.484375 
Q 23.390625 27.484375 19.1875 25 
Q 14.984375 22.515625 14.984375 16.5 
Q 14.984375 11.71875 18.140625 8.90625 
Q 21.296875 6.109375 26.703125 6.109375 
Q 34.1875 6.109375 38.703125 11.40625 
Q 43.21875 16.703125 43.21875 25.484375 
L 43.21875 27.484375 
z
M 52.203125 31.203125 
L 52.203125 0 
L 43.21875 0 
L 43.21875 8.296875 
Q 40.140625 3.328125 35.546875 0.953125 
Q 30.953125 -1.421875 24.3125 -1.421875 
Q 15.921875 -1.421875 10.953125 3.296875 
Q 6 8.015625 6 15.921875 
Q 6 25.140625 12.171875 29.828125 
Q 18.359375 34.515625 30.609375 34.515625 
L 43.21875 34.515625 
L 43.21875 35.40625 
Q 43.21875 41.609375 39.140625 45 
Q 35.0625 48.390625 27.6875 48.390625 
Q 23 48.390625 18.546875 47.265625 
Q 14.109375 46.140625 10.015625 43.890625 
L 10.015625 52.203125 
Q 14.9375 54.109375 19.578125 55.046875 
Q 24.21875 56 28.609375 56 
Q 40.484375 56 46.34375 49.84375 
Q 52.203125 43.703125 52.203125 31.203125 
z
" id="DejaVuSans-97"/>
       <path d="M 18.109375 8.203125 
L 18.109375 -20.796875 
L 9.078125 -20.796875 
L 9.078125 54.6875 
L 18.109375 54.6875 
L 18.109375 46.390625 
Q 20.953125 51.265625 25.265625 53.625 
Q 29.59375 56 35.59375 56 
Q 45.5625 56 51.78125 48.09375 
Q 58.015625 40.1875 58.015625 27.296875 
Q 58.015625 14.40625 51.78125 6.484375 
Q 45.5625 -1.421875 35.59375 -1.421875 
Q 29.59375 -1.421875 25.265625 0.953125 
Q 20.953125 3.328125 18.109375 8.203125 
z
M 48.6875 27.296875 
Q 48.6875 37.203125 44.609375 42.84375 
Q 40.53125 48.484375 33.40625 48.484375 
Q 26.265625 48.484375 22.1875 42.84375 
Q 18.109375 37.203125 18.109375 27.296875 
Q 18.109375 17.390625 22.1875 11.75 
Q 26.265625 6.109375 33.40625 6.109375 
Q 40.53125 6.109375 44.609375 11.75 
Q 48.6875 17.390625 48.6875 27.296875 
z
" id="DejaVuSans-112"/>
      </defs>
      <use xlink:href="#DejaVuSans-116"/>
      <use x="39.208984" xlink:href="#DejaVuSans-105"/>
      <use x="66.992188" xlink:href="#DejaVuSans-109"/>
      <use x="164.404297" xlink:href="#DejaVuSans-101"/>
      <use x="225.927734" xlink:href="#DejaVuSans-115"/>
      <use x="278.027344" xlink:href="#DejaVuSans-116"/>
      <use x="317.236328" xlink:href="#DejaVuSans-97"/>
      <use x="378.515625" xlink:href="#DejaVuSans-109"/>
      <use x="475.927734" xlink:href="#DejaVuSans-112"/>
     </g>
    </g>
   </g>
   <g id="matplotlib.axis_2">
    <g id="ytick_1">
     <g id="line2d_22">
      <defs>
       <path d="M 0 0 
L -3.5 0 
" id="m1f9c653d87" style="stroke:#000000;stroke-width:0.8;"/>
      </defs>
      <g>
       <use style="stroke:#000000;stroke-width:0.8;" x="108" xlink:href="#m1f9c653d87" y="387.789748"/>
      </g>
     </g>
     <g id="text_23">
      <!-- 11400 -->
      <g transform="translate(69.1875 391.588967)scale(0.1 -0.1)">
       <use xlink:href="#DejaVuSans-49"/>
       <use x="63.623047" xlink:href="#DejaVuSans-49"/>
       <use x="127.246094" xlink:href="#DejaVuSans-52"/>
       <use x="190.869141" xlink:href="#DejaVuSans-48"/>
       <use x="254.492188" xlink:href="#DejaVuSans-48"/>
      </g>
     </g>
    </g>
    <g id="ytick_2">
     <g id="line2d_23">
      <g>
       <use style="stroke:#000000;stroke-width:0.8;" x="108" xlink:href="#m1f9c653d87" y="308.383583"/>
      </g>
     </g>
     <g id="text_24">
      <!-- 11600 -->
      <g transform="translate(69.1875 312.182802)scale(0.1 -0.1)">
       <use xlink:href="#DejaVuSans-49"/>
       <use x="63.623047" xlink:href="#DejaVuSans-49"/>
       <use x="127.246094" xlink:href="#DejaVuSans-54"/>
       <use x="190.869141" xlink:href="#DejaVuSans-48"/>
       <use x="254.492188" xlink:href="#DejaVuSans-48"/>
      </g>
     </g>
    </g>
    <g id="ytick_3">
     <g id="line2d_24">
      <g>
       <use style="stroke:#000000;stroke-width:0.8;" x="108" xlink:href="#m1f9c653d87" y="228.977419"/>
      </g>
     </g>
     <g id="text_25">
      <!-- 11800 -->
      <g transform="translate(69.1875 232.776638)scale(0.1 -0.1)">
       <use xlink:href="#DejaVuSans-49"/>
       <use x="63.623047" xlink:href="#DejaVuSans-49"/>
       <use x="127.246094" xlink:href="#DejaVuSans-56"/>
       <use x="190.869141" xlink:href="#DejaVuSans-48"/>
       <use x="254.492188" xlink:href="#DejaVuSans-48"/>
      </g>
     </g>
    </g>
    <g id="ytick_4">
     <g id="line2d_25">
      <g>
       <use style="stroke:#000000;stroke-width:0.8;" x="108" xlink:href="#m1f9c653d87" y="149.571255"/>
      </g>
     </g>
     <g id="text_26">
      <!-- 12000 -->
      <g transform="translate(69.1875 153.370474)scale(0.1 -0.1)">
       <use xlink:href="#DejaVuSans-49"/>
       <use x="63.623047" xlink:href="#DejaVuSans-50"/>
       <use x="127.246094" xlink:href="#DejaVuSans-48"/>
       <use x="190.869141" xlink:href="#DejaVuSans-48"/>
       <use x="254.492188" xlink:href="#DejaVuSans-48"/>
      </g>
     </g>
    </g>
    <g id="ytick_5">
     <g id="line2d_26">
      <g>
       <use style="stroke:#000000;stroke-width:0.8;" x="108" xlink:href="#m1f9c653d87" y="70.16509"/>
      </g>
     </g>
     <g id="text_27">
      <!-- 12200 -->
      <g transform="translate(69.1875 73.964309)scale(0.1 -0.1)">
       <use xlink:href="#DejaVuSans-49"/>
       <use x="63.623047" xlink:href="#DejaVuSans-50"/>
       <use x="127.246094" xlink:href="#DejaVuSans-50"/>
       <use x="190.869141" xlink:href="#DejaVuSans-48"/>
       <use x="254.492188" xlink:href="#DejaVuSans-48"/>
      </g>
     </g>
    </g>
    <g id="text_28">
     <!-- MB -->
     <g transform="translate(63.52375 260.715625)rotate(-90)scale(0.08 -0.08)">
      <defs>
       <path d="M 9.8125 72.90625 
L 24.515625 72.90625 
L 43.109375 23.296875 
L 61.8125 72.90625 
L 76.515625 72.90625 
L 76.515625 0 
L 66.890625 0 
L 66.890625 64.015625 
L 48.09375 14.015625 
L 38.1875 14.015625 
L 19.390625 64.015625 
L 19.390625 0 
L 9.8125 0 
z
" id="DejaVuSans-77"/>
       <path d="M 19.671875 34.8125 
L 19.671875 8.109375 
L 35.5 8.109375 
Q 43.453125 8.109375 47.28125 11.40625 
Q 51.125 14.703125 51.125 21.484375 
Q 51.125 28.328125 47.28125 31.5625 
Q 43.453125 34.8125 35.5 34.8125 
z
M 19.671875 64.796875 
L 19.671875 42.828125 
L 34.28125 42.828125 
Q 41.5 42.828125 45.03125 45.53125 
Q 48.578125 48.25 48.578125 53.8125 
Q 48.578125 59.328125 45.03125 62.0625 
Q 41.5 64.796875 34.28125 64.796875 
z
M 9.8125 72.90625 
L 35.015625 72.90625 
Q 46.296875 72.90625 52.390625 68.21875 
Q 58.5 63.53125 58.5 54.890625 
Q 58.5 48.1875 55.375 44.234375 
Q 52.25 40.28125 46.1875 39.3125 
Q 53.46875 37.75 57.5 32.78125 
Q 61.53125 27.828125 61.53125 20.40625 
Q 61.53125 10.640625 54.890625 5.3125 
Q 48.25 0 35.984375 0 
L 9.8125 0 
z
" id="DejaVuSans-66"/>
      </defs>
      <use xlink:href="#DejaVuSans-77"/>
      <use x="86.279297" xlink:href="#DejaVuSans-66"/>
     </g>
    </g>
   </g>
   <g id="line2d_27">
    <path clip-path="url(#pe40d73d64c)" d="M 132.349091 79.568368 
L 132.905642 79.474669 
L 133.462192 78.558322 
L 134.018743 81.847325 
L 134.575294 80.221087 
L 135.131844 81.050087 
L 135.688395 80.837279 
L 136.801496 78.12 
L 137.358047 79.461964 
L 137.914597 79.346031 
L 138.471148 81.696454 
L 139.027699 87.367642 
L 139.584249 106.931733 
L 141.253901 225.564542 
L 141.810452 247.53464 
L 142.367003 280.438966 
L 142.923553 303.919369 
L 143.480104 335.602428 
L 144.593205 371.332026 
L 145.149756 373.650686 
L 145.706306 373.555399 
L 146.262857 372.345249 
L 146.819408 370.657074 
L 147.375958 372.323015 
L 147.932509 372.305546 
L 148.48906 372.519942 
L 149.04561 370.520495 
L 149.602161 370.415679 
L 150.158712 373.104372 
L 150.715262 372.084797 
L 151.271813 372.253138 
L 151.828364 370.971522 
L 152.384914 368.60363 
L 152.941465 370.844472 
L 154.054566 370.539553 
L 154.611117 369.256349 
L 155.167668 371.686178 
L 155.724218 371.360612 
L 156.280769 371.48925 
L 157.39387 369.810604 
L 157.950421 372.327779 
L 159.063522 372.562822 
L 159.620073 371.409844 
L 160.176623 372.880446 
L 160.733174 372.569174 
L 161.289725 370.658662 
L 161.846275 370.780947 
L 162.402826 370.614194 
L 162.959377 374.465393 
L 164.072478 373.2076 
L 164.629029 372.577115 
L 165.185579 369.219822 
L 165.74213 372.770866 
L 166.298681 372.188025 
L 166.855231 371.987921 
L 167.411782 369.567621 
L 167.968332 372.097502 
L 168.524883 372.534235 
L 169.081434 377.557469 
L 169.637984 377.935443 
L 170.194535 376.753879 
L 170.751086 377.943383 
L 171.307636 373.704682 
L 171.864187 372.693048 
L 172.420738 371.336791 
L 172.977288 376.541071 
L 173.533839 379.628382 
L 174.09039 374.900539 
L 174.64694 375.205459 
L 175.203491 374.114418 
L 175.760042 374.398692 
L 176.316592 373.061492 
L 176.873143 373.617336 
L 177.429694 373.893669 
L 177.986244 372.75022 
L 178.542795 373.898433 
L 179.099345 374.104889 
L 179.655896 372.74228 
L 180.212447 372.404009 
L 180.768997 373.779324 
L 181.325548 374.347872 
L 181.882099 374.681378 
L 182.9952 372.057799 
L 183.551751 373.730092 
L 184.664852 373.566516 
L 185.221403 372.364306 
L 185.777953 371.495603 
L 186.334504 375.365859 
L 186.891055 376.409256 
L 187.447605 374.768725 
L 188.004156 375.002179 
L 188.560706 374.041364 
L 189.117257 374.2907 
L 189.673808 374.200177 
L 190.230358 373.021789 
L 190.786909 372.224551 
L 191.34346 373.736445 
L 192.456561 373.525224 
L 193.013112 372.373835 
L 193.569662 373.517284 
L 194.126213 374.360577 
L 194.682764 379.186884 
L 195.239314 379.148769 
L 195.795865 377.295429 
L 196.352416 378.670744 
L 196.908966 375.997932 
L 197.465517 375.824827 
L 198.022068 374.420926 
L 198.578618 373.507755 
L 199.135169 376.452136 
L 199.691719 377.160439 
L 200.24827 374.75602 
L 200.804821 374.995827 
L 201.361371 373.582397 
L 201.917922 374.867189 
L 202.474473 374.562269 
L 203.031023 374.106478 
L 203.587574 373.018613 
L 204.144125 373.74915 
L 204.700675 373.379117 
L 205.257226 373.617336 
L 205.813777 372.646992 
L 206.370327 373.275889 
L 206.926878 375.189578 
L 207.483429 374.471746 
L 208.039979 374.497156 
L 208.59653 372.667638 
L 209.153081 375.116524 
L 209.709631 374.884658 
L 210.266182 374.94183 
L 210.822732 373.021789 
L 211.379283 373.017025 
L 211.935834 375.880411 
L 212.492384 375.289629 
L 213.048935 375.294394 
L 214.162036 372.515178 
L 214.718587 374.00325 
L 215.275138 374.371694 
L 215.831688 373.455347 
L 216.388239 373.588749 
L 216.94479 375.564375 
L 217.50134 376.069398 
L 218.057891 376.066222 
L 218.614442 374.460629 
L 219.170992 372.1245 
L 219.727543 374.659144 
L 220.284094 374.775077 
L 220.840644 373.185366 
L 221.397195 373.047199 
L 221.953745 373.528401 
L 222.510296 374.864012 
L 223.066847 374.657556 
L 223.623397 374.884658 
L 224.179948 373.637981 
L 224.736499 376.22821 
L 226.406151 376.996862 
L 226.962701 375.897881 
L 227.519252 375.815298 
L 228.075803 375.380152 
L 228.632353 375.268984 
L 229.188904 374.405045 
L 229.745455 374.986298 
L 230.302005 375.384917 
L 230.858556 375.019648 
L 231.415106 374.505096 
L 231.971657 373.221893 
L 232.528208 375.338861 
L 233.641309 375.262631 
L 234.19786 373.626864 
L 234.75441 374.913244 
L 235.310961 375.624723 
L 235.867512 375.257867 
L 236.424062 374.127123 
L 236.980613 374.143004 
L 237.537164 377.115971 
L 238.093714 376.768172 
L 238.650265 377.314487 
L 239.763366 376.091632 
L 240.876468 377.433596 
L 241.433018 376.147216 
L 241.989569 376.313969 
L 242.546119 376.645887 
L 243.10267 377.181084 
L 243.659221 381.718352 
L 244.215771 380.808358 
L 244.772322 380.176285 
L 245.328873 378.569104 
L 246.441974 378.680273 
L 246.998525 378.39441 
L 247.555075 376.037635 
L 248.111626 378.943901 
L 248.668177 378.862907 
L 249.224727 378.146663 
L 249.781278 376.496603 
L 250.894379 377.157262 
L 251.45093 376.793582 
L 252.007481 375.222928 
L 252.564031 375.303923 
L 253.120582 379.048717 
L 254.233683 379.026483 
L 254.790234 378.129194 
L 255.346784 375.742245 
L 255.903335 377.821098 
L 256.459886 377.808393 
L 257.016436 377.381188 
L 257.572987 376.323498 
L 258.129538 378.97884 
L 258.686088 379.866601 
L 259.242639 379.649028 
L 259.79919 379.250409 
L 260.35574 376.960335 
L 260.912291 378.126018 
L 261.468842 379.718905 
L 262.025392 377.624171 
L 262.581943 377.681343 
L 263.138494 379.158298 
L 263.695044 380.268396 
L 264.251595 380.94176 
L 264.808145 380.452618 
L 265.364696 379.710965 
L 265.921247 379.174179 
L 266.477797 379.466394 
L 267.034348 379.623618 
L 267.590899 379.650616 
L 268.147449 378.742209 
L 268.704 379.865013 
L 269.260551 379.57121 
L 269.817101 379.150357 
L 270.373652 377.846508 
L 270.930203 379.903128 
L 272.043304 380.131817 
L 272.599855 377.325603 
L 273.156405 377.447889 
L 273.712956 380.368448 
L 274.269506 380.068292 
L 274.826057 379.320286 
L 275.382608 378.200659 
L 275.939158 378.264184 
L 276.495709 379.293288 
L 277.05226 379.11383 
L 277.60881 378.659627 
L 278.165361 377.025448 
L 278.721912 380.179461 
L 279.278462 379.602972 
L 279.835013 379.817369 
L 280.391564 379.677614 
L 280.948114 378.49605 
L 281.504665 379.437807 
L 282.061216 379.580739 
L 282.617766 378.311828 
L 283.174317 376.69353 
L 283.730868 378.160956 
L 284.287418 381.127571 
L 284.843969 380.678132 
L 285.400519 380.530436 
L 285.95707 379.433043 
L 286.513621 380.368448 
L 287.070171 379.961888 
L 287.626722 379.995239 
L 288.183273 379.768137 
L 288.739823 378.664391 
L 289.296374 379.977769 
L 289.852925 380.057175 
L 290.409475 378.835909 
L 290.966026 378.186366 
L 292.079127 380.497086 
L 292.635678 379.872953 
L 293.192229 378.678684 
L 293.748779 377.822686 
L 294.30533 380.18899 
L 294.861881 380.285865 
L 295.418431 378.996309 
L 295.974982 379.44416 
L 296.531532 379.595032 
L 297.088083 382.255138 
L 297.644634 381.226034 
L 298.201184 381.286383 
L 298.757735 380.082585 
L 299.314286 383.384294 
L 299.870836 382.625171 
L 300.427387 383.246127 
L 300.983938 380.3748 
L 301.540488 380.449442 
L 302.097039 382.240845 
L 302.65359 382.234493 
L 303.21014 381.648475 
L 303.766691 381.746939 
L 304.323242 381.327674 
L 304.879792 382.139205 
L 305.436343 381.658004 
L 305.992894 381.694531 
L 306.549444 379.823721 
L 307.105995 383.343003 
L 307.662545 383.080962 
L 308.219096 383.011085 
L 308.775647 380.589197 
L 309.332197 381.289559 
L 309.888748 384.367342 
L 310.445299 383.879788 
L 311.001849 383.541518 
L 311.5584 380.962406 
L 312.114951 382.571175 
L 312.671501 383.603455 
L 313.784603 381.742174 
L 314.341153 381.556364 
L 314.897704 381.557952 
L 315.454255 380.14611 
L 316.010805 380.084174 
L 316.567356 378.926432 
L 317.123906 379.728434 
L 317.680457 387.260903 
L 318.793558 387.056035 
L 319.350109 380.484381 
L 319.90666 381.845402 
L 320.46321 382.332956 
L 321.019761 382.280548 
L 321.576312 385.764891 
L 322.132862 385.696601 
L 322.689413 388.091491 
L 323.245964 387.53406 
L 323.802514 383.433526 
L 324.359065 382.547353 
L 324.915616 383.67492 
L 325.472166 382.174144 
L 326.028717 381.845402 
L 326.585268 381.819992 
L 327.141818 380.71307 
L 327.698369 383.417644 
L 328.254919 383.530401 
L 328.81147 383.4637 
L 329.368021 382.445713 
L 329.924571 378.929608 
L 330.481122 383.165133 
L 331.037673 383.187366 
L 331.594223 382.960265 
L 332.150774 380.929055 
L 332.707325 381.006873 
L 333.263875 382.369483 
L 333.820426 382.453654 
L 334.376977 382.385364 
L 334.933527 381.059281 
L 335.490078 383.651098 
L 336.046629 384.272055 
L 336.603179 382.741104 
L 337.15973 382.420303 
L 337.716281 382.988851 
L 338.272831 384.427691 
L 338.829382 384.229175 
L 339.385932 384.297465 
L 339.942483 383.268361 
L 340.499034 387.530884 
L 341.055584 387.967618 
L 341.612135 387.64364 
L 342.168686 386.746351 
L 342.725236 384.319698 
L 343.281787 385.083586 
L 343.838338 385.039118 
L 344.394888 385.194754 
L 344.951439 384.184708 
L 345.50799 384.616677 
L 346.06454 386.217506 
L 347.177642 385.386917 
L 347.734192 383.994133 
L 348.290743 383.8782 
L 348.847294 383.948078 
L 349.403844 383.79403 
L 349.960395 382.653757 
L 350.516945 382.158263 
L 351.073496 384.554741 
L 352.186597 384.348285 
L 352.743148 383.02379 
L 353.299699 385.456795 
L 353.856249 385.058176 
L 354.969351 385.567963 
L 355.525901 384.300641 
L 356.082452 384.438808 
L 356.639003 384.413398 
L 357.195553 390.027413 
L 357.752104 389.555741 
L 358.308655 389.638323 
L 358.865205 389.527155 
L 359.421756 384.24188 
L 359.978306 384.640499 
L 360.534857 383.473229 
L 361.091408 386.096808 
L 361.647958 384.370518 
L 362.204509 384.626206 
L 362.76106 384.113242 
L 363.31761 382.882447 
L 363.874161 385.309099 
L 364.430712 385.32498 
L 364.987262 385.912586 
L 365.543813 384.832662 
L 366.100364 385.134406 
L 366.656914 385.075645 
L 367.213465 384.399105 
L 367.770016 383.541518 
L 368.326566 383.673332 
L 368.883117 385.828416 
L 369.439668 385.626724 
L 369.996218 385.648958 
L 370.552769 382.571175 
L 371.109319 382.645816 
L 371.66587 384.100537 
L 372.778971 383.770208 
L 373.335522 383.241363 
L 373.892073 387.877095 
L 374.448623 388.023202 
L 375.005174 387.175144 
L 375.561725 387.07668 
L 376.118275 385.814122 
L 377.231377 385.918939 
L 377.787927 386.150805 
L 378.344478 385.091526 
L 378.901029 386.477958 
L 379.457579 386.308029 
L 380.01413 386.528778 
L 380.570681 385.248751 
L 381.127231 384.869189 
L 381.683782 386.338203 
L 382.240332 386.990922 
L 382.796883 386.781289 
L 383.353434 385.096291 
L 383.909984 386.503368 
L 384.466535 388.9729 
L 385.023086 388.912551 
L 386.136187 386.913104 
L 386.692738 389.288936 
L 387.249288 389.6415 
L 387.805839 388.64257 
L 388.36239 388.461524 
L 388.91894 387.097326 
L 389.475491 387.748457 
L 390.032042 387.565822 
L 390.588592 386.811464 
L 391.145143 387.554706 
L 391.701694 393.162369 
L 392.258244 393.190955 
L 392.814795 392.943208 
L 393.371345 391.667945 
L 393.927896 387.052859 
L 394.484447 391.507544 
L 395.040997 391.612361 
L 395.597548 390.222753 
L 396.154099 388.196307 
L 396.710649 387.581704 
L 397.2672 389.927362 
L 397.823751 389.241292 
L 398.380301 388.137547 
L 398.936852 388.51552 
L 399.493403 391.353496 
L 400.049953 391.529778 
L 400.606504 392.287313 
L 401.163055 391.013638 
L 401.719605 390.176697 
L 402.276156 390.823063 
L 402.832706 391.213742 
L 403.389257 389.995651 
L 403.945808 390.149699 
L 404.502358 390.130642 
L 405.058909 393.157604 
L 405.61546 393.302124 
L 406.17201 391.896635 
L 406.728561 390.861178 
L 407.285112 392.32384 
L 407.841662 390.359331 
L 408.398213 390.144935 
L 408.954764 389.401693 
L 409.511314 389.304817 
L 410.067865 390.489557 
L 410.624416 390.306923 
L 411.180966 390.96123 
L 411.737517 391.247092 
L 412.294068 394.767962 
L 412.850618 393.487934 
L 413.963719 393.170309 
L 414.52027 390.778596 
L 415.076821 392.53506 
L 415.633371 393.160781 
L 416.189922 393.12743 
L 416.746473 392.217436 
L 417.303023 392.94956 
L 417.859574 394.82831 
L 418.416125 394.531331 
L 418.972675 393.808735 
L 419.529226 392.212671 
L 420.085777 392.679579 
L 421.198878 392.428656 
L 421.755429 392.887624 
L 422.311979 391.666357 
L 422.86853 392.06974 
L 423.981631 389.965477 
L 424.538182 390.011532 
L 425.094732 390.360919 
L 425.651283 392.774867 
L 426.207834 392.511238 
L 426.764384 392.673227 
L 427.320935 391.410669 
L 427.877486 393.167133 
L 428.434036 393.205248 
L 428.990587 393.129018 
L 429.547138 392.031625 
L 430.660239 394.404281 
L 431.21679 394.896599 
L 431.77334 394.28676 
L 432.329891 392.809805 
L 432.886442 392.622407 
L 433.442992 393.346591 
L 433.999543 392.76375 
L 434.556094 393.02579 
L 435.112644 392.503298 
L 435.669195 393.729329 
L 436.225745 393.452995 
L 436.782296 392.665286 
L 437.338847 391.039048 
L 437.895397 394.612325 
L 438.451948 394.396341 
L 439.008499 395.010944 
L 439.565049 391.879165 
L 440.1216 391.691767 
L 440.678151 393.640394 
L 441.234701 393.681685 
L 441.791252 393.424409 
L 442.347803 391.963336 
L 442.904353 392.717694 
L 443.460904 394.088245 
L 444.017455 394.289936 
L 444.574005 394.061247 
L 445.130556 392.987675 
L 445.687106 393.197308 
L 446.243657 394.005662 
L 446.800208 393.632453 
L 447.356758 393.462524 
L 447.913309 392.415951 
L 448.46986 393.281478 
L 449.02641 392.641464 
L 449.582961 392.392129 
L 450.139512 391.864872 
L 450.696062 391.031107 
L 451.252613 394.528155 
L 451.809164 393.838909 
L 452.365714 393.738858 
L 452.922265 392.290489 
L 453.478816 394.767962 
L 454.035366 395.320628 
L 454.591917 395.582669 
L 455.148468 393.357708 
L 455.705018 393.449819 
L 456.261569 397.115208 
L 456.818119 396.799171 
L 457.37467 394.956948 
L 457.931221 395.017297 
L 458.487771 393.281478 
L 459.044322 393.403764 
L 459.600873 393.251304 
L 460.157423 393.259244 
L 460.713974 392.271432 
L 461.270525 394.852132 
L 462.383626 394.829898 
L 462.940177 394.707613 
L 463.496727 391.937926 
L 464.053278 394.436044 
L 464.609829 394.326463 
L 465.166379 393.938961 
L 465.72293 397.621819 
L 466.279481 399.133712 
L 466.836031 399.935715 
L 467.392582 399.714966 
L 467.949132 395.643017 
L 468.505683 394.612325 
L 469.062234 397.126325 
L 469.618784 400.723424 
L 470.175335 401.538131 
L 470.731886 400.966407 
L 471.288436 399.12736 
L 471.844987 396.3005 
L 472.401538 396.664181 
L 472.958088 397.634524 
L 474.07119 401.066458 
L 474.62774 397.032625 
L 475.184291 397.002451 
L 475.740842 394.56627 
L 476.297392 394.87913 
L 476.853943 396.533955 
L 477.410494 396.357673 
L 477.967044 395.350803 
L 478.523595 395.390506 
L 479.080145 394.706025 
L 479.636696 396.433903 
L 480.193247 396.310029 
L 480.749797 395.939996 
L 481.306348 394.760021 
L 481.862899 397.231141 
L 482.419449 394.715553 
L 482.976 394.758433 
L 483.532551 394.605973 
L 484.089101 393.568928 
L 484.645652 397.208907 
L 485.758753 394.377283 
L 486.315304 393.883377 
L 486.871855 393.921492 
L 487.428405 395.255515 
L 487.984956 394.864837 
L 488.541506 394.729847 
L 489.098057 394.739375 
L 489.654608 398.198308 
L 490.211158 396.975453 
L 490.767709 396.794407 
L 491.32426 395.639841 
L 491.88081 394.910893 
L 492.437361 396.497428 
L 492.993912 396.54666 
L 493.550462 395.301571 
L 494.107013 395.407975 
L 494.663564 395.859002 
L 495.220114 396.63083 
L 495.776665 396.686414 
L 496.333216 393.726153 
L 496.889766 393.616572 
L 497.446317 396.041636 
L 498.002868 395.349215 
L 498.559418 395.787537 
L 499.115969 392.836804 
L 499.672519 393.092491 
L 500.22907 395.149111 
L 501.342171 395.531849 
L 501.898722 395.331745 
L 502.455273 396.626066 
L 503.011823 396.962748 
L 503.568374 397.570999 
L 504.681475 394.382048 
L 505.238026 397.507474 
L 506.351127 397.698049 
L 506.907678 396.059106 
L 507.464229 396.702296 
L 508.020779 397.975971 
L 509.133881 394.956948 
L 509.690431 394.748904 
L 510.246982 397.191438 
L 511.360083 397.107267 
L 511.916634 397.281961 
L 512.473184 396.238564 
L 513.029735 395.671604 
L 513.586286 395.892353 
L 514.142836 395.900293 
L 514.699387 394.267703 
L 515.255938 395.020473 
L 515.812488 397.483652 
L 516.369039 397.080269 
L 517.48214 395.442914 
L 518.038691 397.434421 
L 518.595242 397.966442 
L 519.151792 396.500604 
L 519.708343 395.411151 
L 520.264894 393.362472 
L 520.821444 393.357708 
L 521.377995 392.214259 
L 521.934545 391.737822 
L 522.491096 390.670603 
L 523.604197 392.986087 
L 524.160748 392.66211 
L 524.717299 392.752633 
L 525.273849 391.131159 
L 525.8304 392.131677 
L 526.386951 391.048577 
L 526.943501 389.608149 
L 527.500052 388.741034 
L 528.613153 391.645711 
L 529.726255 391.108925 
L 530.282805 389.647852 
L 530.839356 391.186743 
L 531.395906 391.334439 
L 532.509008 390.975523 
L 533.065558 389.363578 
L 533.622109 391.059694 
L 534.17866 391.204213 
L 534.73521 389.919421 
L 535.848312 389.949595 
L 536.404862 391.253445 
L 536.961413 390.713483 
L 537.517964 390.527672 
L 538.074514 389.190473 
L 538.631065 390.352979 
L 539.187616 389.851132 
L 539.744166 389.957536 
L 540.300717 393.489522 
L 540.857268 392.566823 
L 541.413818 395.619196 
L 541.970369 395.687485 
L 542.526919 389.685967 
L 543.08347 389.523978 
L 543.640021 392.622407 
L 544.753122 389.717729 
L 545.309673 389.581151 
L 545.866223 388.401175 
L 546.422774 391.185155 
L 546.979325 390.973935 
L 547.535875 390.589609 
L 548.092426 389.449337 
L 548.648977 389.959124 
L 549.205527 391.963336 
L 549.762078 391.972865 
L 550.318629 389.458865 
L 550.875179 388.882377 
L 551.43173 392.287313 
L 551.988281 392.4763 
L 552.544831 392.30637 
L 553.101382 391.424962 
L 553.657932 388.393235 
L 554.214483 390.52926 
L 554.771034 390.179873 
L 555.327584 388.317005 
L 555.884135 387.100502 
L 556.440686 390.291042 
L 556.997236 390.322804 
L 557.553787 389.273055 
L 558.110338 388.520284 
L 558.666888 386.368377 
L 559.223439 388.110549 
L 559.77999 387.24661 
L 560.33654 386.619301 
L 560.893091 385.032766 
L 561.449642 386.616125 
L 562.006192 387.723047 
L 562.562743 386.427138 
L 563.119294 386.600243 
L 563.675844 384.754844 
L 564.232395 386.412845 
L 564.788945 386.482722 
L 565.345496 386.11269 
L 566.458597 379.436219 
L 567.015148 381.218094 
L 567.571699 381.275266 
L 568.128249 381.55954 
L 568.6848 380.571727 
L 569.241351 382.548941 
L 569.797901 383.012673 
L 570.354452 381.656416 
L 570.911003 380.625724 
L 571.467553 380.740069 
L 572.024104 383.296947 
L 572.580655 383.439878 
L 573.137205 382.377424 
L 573.693756 381.832697 
L 574.250306 382.315487 
L 574.806857 382.594997 
L 575.363408 381.734234 
L 576.476509 379.031248 
L 577.03306 382.822098 
L 577.58961 383.268361 
L 578.146161 383.155604 
L 578.702712 379.971417 
L 579.259262 379.447336 
L 579.815813 381.013226 
L 580.372364 379.836426 
L 580.928914 379.587091 
L 581.485465 378.924844 
L 582.042016 382.096326 
L 582.598566 382.852272 
L 583.155117 382.542588 
L 583.711668 381.292735 
L 584.268218 381.696119 
L 584.824769 381.848579 
L 585.381319 383.228658 
L 585.93787 382.131265 
L 586.494421 381.815228 
L 587.050971 383.963959 
L 587.607522 384.869189 
L 588.164073 384.564269 
L 588.720623 383.020614 
L 589.277174 381.859695 
L 589.833725 382.904681 
L 590.390275 383.060317 
L 590.946826 382.855449 
L 591.503377 381.224446 
L 592.059927 381.76282 
L 592.616478 385.075645 
L 593.729579 384.588091 
L 594.28613 383.134958 
L 594.842681 382.763338 
L 595.399231 382.890387 
L 596.512332 383.589162 
L 597.068883 381.880341 
L 597.625434 382.988851 
L 598.181984 382.764926 
L 598.738535 381.754879 
L 599.851636 378.542106 
L 600.408187 379.626794 
L 600.964738 378.850202 
L 601.521288 377.271607 
L 602.077839 380.919526 
L 602.63439 390.446678 
L 603.19094 395.144347 
L 603.747491 393.929432 
L 604.304042 391.259797 
L 604.860592 391.086692 
L 605.417143 393.89767 
L 605.973694 391.226447 
L 606.530244 389.779666 
L 607.086795 391.637771 
L 607.643345 395.188814 
L 608.756447 405.054236 
L 609.312997 406.569306 
L 609.869548 409.829723 
L 610.426099 414.178004 
L 610.982649 414.516275 
L 611.5392 416.561777 
L 612.095751 420.039767 
L 612.652301 420.649607 
L 613.208852 424.37852 
L 613.765403 424.993124 
L 614.321953 430.92 
L 614.878504 429.103187 
L 615.435055 430.619845 
L 615.991605 428.93167 
L 616.548156 411.201861 
L 617.104706 415.299219 
L 617.661257 417.578176 
L 618.217808 425.99523 
L 618.774358 428.469526 
L 619.330909 426.579659 
L 619.330909 426.579659 
" style="fill:none;stroke:#1f77b4;stroke-linecap:square;stroke-width:1.5;"/>
   </g>
   <g id="patch_3">
    <path d="M 108 448.56 
L 108 60.48 
" style="fill:none;stroke:#000000;stroke-linecap:square;stroke-linejoin:miter;stroke-width:0.8;"/>
   </g>
   <g id="patch_4">
    <path d="M 643.68 448.56 
L 643.68 60.48 
" style="fill:none;stroke:#000000;stroke-linecap:square;stroke-linejoin:miter;stroke-width:0.8;"/>
   </g>
   <g id="patch_5">
    <path d="M 108 448.56 
L 643.68 448.56 
" style="fill:none;stroke:#000000;stroke-linecap:square;stroke-linejoin:miter;stroke-width:0.8;"/>
   </g>
   <g id="patch_6">
    <path d="M 108 60.48 
L 643.68 60.48 
" style="fill:none;stroke:#000000;stroke-linecap:square;stroke-linejoin:miter;stroke-width:0.8;"/>
   </g>
   <g id="text_29">
    <!-- unikernel_base - vmstat -->
    <g transform="translate(285.930234 54.48)scale(0.15 -0.15)">
     <defs>
      <path d="M 8.5 21.578125 
L 8.5 54.6875 
L 17.484375 54.6875 
L 17.484375 21.921875 
Q 17.484375 14.15625 20.5 10.265625 
Q 23.53125 6.390625 29.59375 6.390625 
Q 36.859375 6.390625 41.078125 11.03125 
Q 45.3125 15.671875 45.3125 23.6875 
L 45.3125 54.6875 
L 54.296875 54.6875 
L 54.296875 0 
L 45.3125 0 
L 45.3125 8.40625 
Q 42.046875 3.421875 37.71875 1 
Q 33.40625 -1.421875 27.6875 -1.421875 
Q 18.265625 -1.421875 13.375 4.4375 
Q 8.5 10.296875 8.5 21.578125 
z
M 31.109375 56 
z
" id="DejaVuSans-117"/>
      <path d="M 54.890625 33.015625 
L 54.890625 0 
L 45.90625 0 
L 45.90625 32.71875 
Q 45.90625 40.484375 42.875 44.328125 
Q 39.84375 48.1875 33.796875 48.1875 
Q 26.515625 48.1875 22.3125 43.546875 
Q 18.109375 38.921875 18.109375 30.90625 
L 18.109375 0 
L 9.078125 0 
L 9.078125 54.6875 
L 18.109375 54.6875 
L 18.109375 46.1875 
Q 21.34375 51.125 25.703125 53.5625 
Q 30.078125 56 35.796875 56 
Q 45.21875 56 50.046875 50.171875 
Q 54.890625 44.34375 54.890625 33.015625 
z
" id="DejaVuSans-110"/>
      <path d="M 9.078125 75.984375 
L 18.109375 75.984375 
L 18.109375 31.109375 
L 44.921875 54.6875 
L 56.390625 54.6875 
L 27.390625 29.109375 
L 57.625 0 
L 45.90625 0 
L 18.109375 26.703125 
L 18.109375 0 
L 9.078125 0 
z
" id="DejaVuSans-107"/>
      <path d="M 41.109375 46.296875 
Q 39.59375 47.171875 37.8125 47.578125 
Q 36.03125 48 33.890625 48 
Q 26.265625 48 22.1875 43.046875 
Q 18.109375 38.09375 18.109375 28.8125 
L 18.109375 0 
L 9.078125 0 
L 9.078125 54.6875 
L 18.109375 54.6875 
L 18.109375 46.1875 
Q 20.953125 51.171875 25.484375 53.578125 
Q 30.03125 56 36.53125 56 
Q 37.453125 56 38.578125 55.875 
Q 39.703125 55.765625 41.0625 55.515625 
z
" id="DejaVuSans-114"/>
      <path d="M 9.421875 75.984375 
L 18.40625 75.984375 
L 18.40625 0 
L 9.421875 0 
z
" id="DejaVuSans-108"/>
      <path d="M 50.984375 -16.609375 
L 50.984375 -23.578125 
L -0.984375 -23.578125 
L -0.984375 -16.609375 
z
" id="DejaVuSans-95"/>
      <path d="M 48.6875 27.296875 
Q 48.6875 37.203125 44.609375 42.84375 
Q 40.53125 48.484375 33.40625 48.484375 
Q 26.265625 48.484375 22.1875 42.84375 
Q 18.109375 37.203125 18.109375 27.296875 
Q 18.109375 17.390625 22.1875 11.75 
Q 26.265625 6.109375 33.40625 6.109375 
Q 40.53125 6.109375 44.609375 11.75 
Q 48.6875 17.390625 48.6875 27.296875 
z
M 18.109375 46.390625 
Q 20.953125 51.265625 25.265625 53.625 
Q 29.59375 56 35.59375 56 
Q 45.5625 56 51.78125 48.09375 
Q 58.015625 40.1875 58.015625 27.296875 
Q 58.015625 14.40625 51.78125 6.484375 
Q 45.5625 -1.421875 35.59375 -1.421875 
Q 29.59375 -1.421875 25.265625 0.953125 
Q 20.953125 3.328125 18.109375 8.203125 
L 18.109375 0 
L 9.078125 0 
L 9.078125 75.984375 
L 18.109375 75.984375 
z
" id="DejaVuSans-98"/>
      <path id="DejaVuSans-32"/>
      <path d="M 4.890625 31.390625 
L 31.203125 31.390625 
L 31.203125 23.390625 
L 4.890625 23.390625 
z
" id="DejaVuSans-45"/>
      <path d="M 2.984375 54.6875 
L 12.5 54.6875 
L 29.59375 8.796875 
L 46.6875 54.6875 
L 56.203125 54.6875 
L 35.6875 0 
L 23.484375 0 
z
" id="DejaVuSans-118"/>
     </defs>
     <use xlink:href="#DejaVuSans-117"/>
     <use x="63.378906" xlink:href="#DejaVuSans-110"/>
     <use x="126.757812" xlink:href="#DejaVuSans-105"/>
     <use x="154.541016" xlink:href="#DejaVuSans-107"/>
     <use x="208.826172" xlink:href="#DejaVuSans-101"/>
     <use x="270.349609" xlink:href="#DejaVuSans-114"/>
     <use x="309.712891" xlink:href="#DejaVuSans-110"/>
     <use x="373.091797" xlink:href="#DejaVuSans-101"/>
     <use x="434.615234" xlink:href="#DejaVuSans-108"/>
     <use x="462.398438" xlink:href="#DejaVuSans-95"/>
     <use x="512.398438" xlink:href="#DejaVuSans-98"/>
     <use x="575.875" xlink:href="#DejaVuSans-97"/>
     <use x="637.154297" xlink:href="#DejaVuSans-115"/>
     <use x="689.253906" xlink:href="#DejaVuSans-101"/>
     <use x="750.777344" xlink:href="#DejaVuSans-32"/>
     <use x="782.564453" xlink:href="#DejaVuSans-45"/>
     <use x="818.648438" xlink:href="#DejaVuSans-32"/>
     <use x="850.435547" xlink:href="#DejaVuSans-118"/>
     <use x="909.615234" xlink:href="#DejaVuSans-109"/>
     <use x="1007.027344" xlink:href="#DejaVuSans-115"/>
     <use x="1059.126953" xlink:href="#DejaVuSans-116"/>
     <use x="1098.335938" xlink:href="#DejaVuSans-97"/>
     <use x="1159.615234" xlink:href="#DejaVuSans-116"/>
    </g>
   </g>
   <g id="legend_1">
    <g id="patch_7">
     <path d="M 650.68 258.52 
L 654.68 258.52 
Q 656.68 258.52 656.68 256.52 
L 656.68 252.52 
Q 656.68 250.52 654.68 250.52 
L 650.68 250.52 
Q 648.68 250.52 648.68 252.52 
L 648.68 256.52 
Q 648.68 258.52 650.68 258.52 
z
" style="fill:#ffffff;opacity:0.8;stroke:#cccccc;stroke-linejoin:miter;"/>
    </g>
   </g>
  </g>
 </g>
 <defs>
  <clipPath id="pe40d73d64c">
   <rect height="388.08" width="535.68" x="108" y="60.48"/>
  </clipPath>
 </defs>
</svg>
