<?xml version="1.0" encoding="utf-8" standalone="no"?>
<!DOCTYPE svg PUBLIC "-//W3C//DTD SVG 1.1//EN"
  "http://www.w3.org/Graphics/SVG/1.1/DTD/svg11.dtd">
<!-- Created with matplotlib (https://matplotlib.org/) -->
<svg height="504pt" version="1.1" viewBox="0 0 864 504" width="864pt" xmlns="http://www.w3.org/2000/svg" xmlns:xlink="http://www.w3.org/1999/xlink">
 <metadata>
  <rdf:RDF xmlns:cc="http://creativecommons.org/ns#" xmlns:dc="http://purl.org/dc/elements/1.1/" xmlns:rdf="http://www.w3.org/1999/02/22-rdf-syntax-ns#">
   <cc:Work>
    <dc:type rdf:resource="http://purl.org/dc/dcmitype/StillImage"/>
    <dc:date>2022-06-15T07:44:59.496968</dc:date>
    <dc:format>image/svg+xml</dc:format>
    <dc:creator>
     <cc:Agent>
      <dc:title>Matplotlib v3.3.4, https://matplotlib.org/</dc:title>
     </cc:Agent>
    </dc:creator>
   </cc:Work>
  </rdf:RDF>
 </metadata>
 <defs>
  <style type="text/css">*{stroke-linecap:butt;stroke-linejoin:round;}</style>
 </defs>
 <g id="figure_1">
  <g id="patch_1">
   <path d="M 0 504 
L 864 504 
L 864 0 
L 0 0 
z
" style="fill:#ffffff;"/>
  </g>
  <g id="axes_1">
   <g id="patch_2">
    <path d="M 108 448.56 
L 643.68 448.56 
L 643.68 60.48 
L 108 60.48 
z
" style="fill:#ffffff;"/>
   </g>
   <g id="matplotlib.axis_1">
    <g id="xtick_1">
     <g id="line2d_1">
      <defs>
       <path d="M 0 0 
L 0 3.5 
" id="m5776da9502" style="stroke:#000000;stroke-width:0.8;"/>
      </defs>
      <g>
       <use style="stroke:#000000;stroke-width:0.8;" x="131.35525" xlink:href="#m5776da9502" y="448.56"/>
      </g>
     </g>
     <g id="text_1">
      <!-- 0 -->
      <g transform="translate(128.174 463.158437)scale(0.1 -0.1)">
       <defs>
        <path d="M 31.78125 66.40625 
Q 24.171875 66.40625 20.328125 58.90625 
Q 16.5 51.421875 16.5 36.375 
Q 16.5 21.390625 20.328125 13.890625 
Q 24.171875 6.390625 31.78125 6.390625 
Q 39.453125 6.390625 43.28125 13.890625 
Q 47.125 21.390625 47.125 36.375 
Q 47.125 51.421875 43.28125 58.90625 
Q 39.453125 66.40625 31.78125 66.40625 
z
M 31.78125 74.21875 
Q 44.046875 74.21875 50.515625 64.515625 
Q 56.984375 54.828125 56.984375 36.375 
Q 56.984375 17.96875 50.515625 8.265625 
Q 44.046875 -1.421875 31.78125 -1.421875 
Q 19.53125 -1.421875 13.0625 8.265625 
Q 6.59375 17.96875 6.59375 36.375 
Q 6.59375 54.828125 13.0625 64.515625 
Q 19.53125 74.21875 31.78125 74.21875 
z
" id="DejaVuSans-48"/>
       </defs>
       <use xlink:href="#DejaVuSans-48"/>
      </g>
     </g>
    </g>
    <g id="xtick_2">
     <g id="line2d_2">
      <g>
       <use style="stroke:#000000;stroke-width:0.8;" x="230.739295" xlink:href="#m5776da9502" y="448.56"/>
      </g>
     </g>
     <g id="text_2">
      <!-- 100 -->
      <g transform="translate(221.195545 463.158437)scale(0.1 -0.1)">
       <defs>
        <path d="M 12.40625 8.296875 
L 28.515625 8.296875 
L 28.515625 63.921875 
L 10.984375 60.40625 
L 10.984375 69.390625 
L 28.421875 72.90625 
L 38.28125 72.90625 
L 38.28125 8.296875 
L 54.390625 8.296875 
L 54.390625 0 
L 12.40625 0 
z
" id="DejaVuSans-49"/>
       </defs>
       <use xlink:href="#DejaVuSans-49"/>
       <use x="63.623047" xlink:href="#DejaVuSans-48"/>
       <use x="127.246094" xlink:href="#DejaVuSans-48"/>
      </g>
     </g>
    </g>
    <g id="xtick_3">
     <g id="line2d_3">
      <g>
       <use style="stroke:#000000;stroke-width:0.8;" x="330.12334" xlink:href="#m5776da9502" y="448.56"/>
      </g>
     </g>
     <g id="text_3">
      <!-- 200 -->
      <g transform="translate(320.57959 463.158437)scale(0.1 -0.1)">
       <defs>
        <path d="M 19.1875 8.296875 
L 53.609375 8.296875 
L 53.609375 0 
L 7.328125 0 
L 7.328125 8.296875 
Q 12.9375 14.109375 22.625 23.890625 
Q 32.328125 33.6875 34.8125 36.53125 
Q 39.546875 41.84375 41.421875 45.53125 
Q 43.3125 49.21875 43.3125 52.78125 
Q 43.3125 58.59375 39.234375 62.25 
Q 35.15625 65.921875 28.609375 65.921875 
Q 23.96875 65.921875 18.8125 64.3125 
Q 13.671875 62.703125 7.8125 59.421875 
L 7.8125 69.390625 
Q 13.765625 71.78125 18.9375 73 
Q 24.125 74.21875 28.421875 74.21875 
Q 39.75 74.21875 46.484375 68.546875 
Q 53.21875 62.890625 53.21875 53.421875 
Q 53.21875 48.921875 51.53125 44.890625 
Q 49.859375 40.875 45.40625 35.40625 
Q 44.1875 33.984375 37.640625 27.21875 
Q 31.109375 20.453125 19.1875 8.296875 
z
" id="DejaVuSans-50"/>
       </defs>
       <use xlink:href="#DejaVuSans-50"/>
       <use x="63.623047" xlink:href="#DejaVuSans-48"/>
       <use x="127.246094" xlink:href="#DejaVuSans-48"/>
      </g>
     </g>
    </g>
    <g id="xtick_4">
     <g id="line2d_4">
      <g>
       <use style="stroke:#000000;stroke-width:0.8;" x="429.507384" xlink:href="#m5776da9502" y="448.56"/>
      </g>
     </g>
     <g id="text_4">
      <!-- 300 -->
      <g transform="translate(419.963634 463.158437)scale(0.1 -0.1)">
       <defs>
        <path d="M 40.578125 39.3125 
Q 47.65625 37.796875 51.625 33 
Q 55.609375 28.21875 55.609375 21.1875 
Q 55.609375 10.40625 48.1875 4.484375 
Q 40.765625 -1.421875 27.09375 -1.421875 
Q 22.515625 -1.421875 17.65625 -0.515625 
Q 12.796875 0.390625 7.625 2.203125 
L 7.625 11.71875 
Q 11.71875 9.328125 16.59375 8.109375 
Q 21.484375 6.890625 26.8125 6.890625 
Q 36.078125 6.890625 40.9375 10.546875 
Q 45.796875 14.203125 45.796875 21.1875 
Q 45.796875 27.640625 41.28125 31.265625 
Q 36.765625 34.90625 28.71875 34.90625 
L 20.21875 34.90625 
L 20.21875 43.015625 
L 29.109375 43.015625 
Q 36.375 43.015625 40.234375 45.921875 
Q 44.09375 48.828125 44.09375 54.296875 
Q 44.09375 59.90625 40.109375 62.90625 
Q 36.140625 65.921875 28.71875 65.921875 
Q 24.65625 65.921875 20.015625 65.03125 
Q 15.375 64.15625 9.8125 62.3125 
L 9.8125 71.09375 
Q 15.4375 72.65625 20.34375 73.4375 
Q 25.25 74.21875 29.59375 74.21875 
Q 40.828125 74.21875 47.359375 69.109375 
Q 53.90625 64.015625 53.90625 55.328125 
Q 53.90625 49.265625 50.4375 45.09375 
Q 46.96875 40.921875 40.578125 39.3125 
z
" id="DejaVuSans-51"/>
       </defs>
       <use xlink:href="#DejaVuSans-51"/>
       <use x="63.623047" xlink:href="#DejaVuSans-48"/>
       <use x="127.246094" xlink:href="#DejaVuSans-48"/>
      </g>
     </g>
    </g>
    <g id="xtick_5">
     <g id="line2d_5">
      <g>
       <use style="stroke:#000000;stroke-width:0.8;" x="528.891429" xlink:href="#m5776da9502" y="448.56"/>
      </g>
     </g>
     <g id="text_5">
      <!-- 400 -->
      <g transform="translate(519.347679 463.158437)scale(0.1 -0.1)">
       <defs>
        <path d="M 37.796875 64.3125 
L 12.890625 25.390625 
L 37.796875 25.390625 
z
M 35.203125 72.90625 
L 47.609375 72.90625 
L 47.609375 25.390625 
L 58.015625 25.390625 
L 58.015625 17.1875 
L 47.609375 17.1875 
L 47.609375 0 
L 37.796875 0 
L 37.796875 17.1875 
L 4.890625 17.1875 
L 4.890625 26.703125 
z
" id="DejaVuSans-52"/>
       </defs>
       <use xlink:href="#DejaVuSans-52"/>
       <use x="63.623047" xlink:href="#DejaVuSans-48"/>
       <use x="127.246094" xlink:href="#DejaVuSans-48"/>
      </g>
     </g>
    </g>
    <g id="xtick_6">
     <g id="line2d_6">
      <g>
       <use style="stroke:#000000;stroke-width:0.8;" x="628.275473" xlink:href="#m5776da9502" y="448.56"/>
      </g>
     </g>
     <g id="text_6">
      <!-- 500 -->
      <g transform="translate(618.731723 463.158437)scale(0.1 -0.1)">
       <defs>
        <path d="M 10.796875 72.90625 
L 49.515625 72.90625 
L 49.515625 64.59375 
L 19.828125 64.59375 
L 19.828125 46.734375 
Q 21.96875 47.46875 24.109375 47.828125 
Q 26.265625 48.1875 28.421875 48.1875 
Q 40.625 48.1875 47.75 41.5 
Q 54.890625 34.8125 54.890625 23.390625 
Q 54.890625 11.625 47.5625 5.09375 
Q 40.234375 -1.421875 26.90625 -1.421875 
Q 22.3125 -1.421875 17.546875 -0.640625 
Q 12.796875 0.140625 7.71875 1.703125 
L 7.71875 11.625 
Q 12.109375 9.234375 16.796875 8.0625 
Q 21.484375 6.890625 26.703125 6.890625 
Q 35.15625 6.890625 40.078125 11.328125 
Q 45.015625 15.765625 45.015625 23.390625 
Q 45.015625 31 40.078125 35.4375 
Q 35.15625 39.890625 26.703125 39.890625 
Q 22.75 39.890625 18.8125 39.015625 
Q 14.890625 38.140625 10.796875 36.28125 
z
" id="DejaVuSans-53"/>
       </defs>
       <use xlink:href="#DejaVuSans-53"/>
       <use x="63.623047" xlink:href="#DejaVuSans-48"/>
       <use x="127.246094" xlink:href="#DejaVuSans-48"/>
      </g>
     </g>
    </g>
    <g id="text_7">
     <!-- timestamp -->
     <g transform="translate(354.264375 475.316875)scale(0.08 -0.08)">
      <defs>
       <path d="M 18.3125 70.21875 
L 18.3125 54.6875 
L 36.8125 54.6875 
L 36.8125 47.703125 
L 18.3125 47.703125 
L 18.3125 18.015625 
Q 18.3125 11.328125 20.140625 9.421875 
Q 21.96875 7.515625 27.59375 7.515625 
L 36.8125 7.515625 
L 36.8125 0 
L 27.59375 0 
Q 17.1875 0 13.234375 3.875 
Q 9.28125 7.765625 9.28125 18.015625 
L 9.28125 47.703125 
L 2.6875 47.703125 
L 2.6875 54.6875 
L 9.28125 54.6875 
L 9.28125 70.21875 
z
" id="DejaVuSans-116"/>
       <path d="M 9.421875 54.6875 
L 18.40625 54.6875 
L 18.40625 0 
L 9.421875 0 
z
M 9.421875 75.984375 
L 18.40625 75.984375 
L 18.40625 64.59375 
L 9.421875 64.59375 
z
" id="DejaVuSans-105"/>
       <path d="M 52 44.1875 
Q 55.375 50.25 60.0625 53.125 
Q 64.75 56 71.09375 56 
Q 79.640625 56 84.28125 50.015625 
Q 88.921875 44.046875 88.921875 33.015625 
L 88.921875 0 
L 79.890625 0 
L 79.890625 32.71875 
Q 79.890625 40.578125 77.09375 44.375 
Q 74.3125 48.1875 68.609375 48.1875 
Q 61.625 48.1875 57.5625 43.546875 
Q 53.515625 38.921875 53.515625 30.90625 
L 53.515625 0 
L 44.484375 0 
L 44.484375 32.71875 
Q 44.484375 40.625 41.703125 44.40625 
Q 38.921875 48.1875 33.109375 48.1875 
Q 26.21875 48.1875 22.15625 43.53125 
Q 18.109375 38.875 18.109375 30.90625 
L 18.109375 0 
L 9.078125 0 
L 9.078125 54.6875 
L 18.109375 54.6875 
L 18.109375 46.1875 
Q 21.1875 51.21875 25.484375 53.609375 
Q 29.78125 56 35.6875 56 
Q 41.65625 56 45.828125 52.96875 
Q 50 49.953125 52 44.1875 
z
" id="DejaVuSans-109"/>
       <path d="M 56.203125 29.59375 
L 56.203125 25.203125 
L 14.890625 25.203125 
Q 15.484375 15.921875 20.484375 11.0625 
Q 25.484375 6.203125 34.421875 6.203125 
Q 39.59375 6.203125 44.453125 7.46875 
Q 49.3125 8.734375 54.109375 11.28125 
L 54.109375 2.78125 
Q 49.265625 0.734375 44.1875 -0.34375 
Q 39.109375 -1.421875 33.890625 -1.421875 
Q 20.796875 -1.421875 13.15625 6.1875 
Q 5.515625 13.8125 5.515625 26.8125 
Q 5.515625 40.234375 12.765625 48.109375 
Q 20.015625 56 32.328125 56 
Q 43.359375 56 49.78125 48.890625 
Q 56.203125 41.796875 56.203125 29.59375 
z
M 47.21875 32.234375 
Q 47.125 39.59375 43.09375 43.984375 
Q 39.0625 48.390625 32.421875 48.390625 
Q 24.90625 48.390625 20.390625 44.140625 
Q 15.875 39.890625 15.1875 32.171875 
z
" id="DejaVuSans-101"/>
       <path d="M 44.28125 53.078125 
L 44.28125 44.578125 
Q 40.484375 46.53125 36.375 47.5 
Q 32.28125 48.484375 27.875 48.484375 
Q 21.1875 48.484375 17.84375 46.4375 
Q 14.5 44.390625 14.5 40.28125 
Q 14.5 37.15625 16.890625 35.375 
Q 19.28125 33.59375 26.515625 31.984375 
L 29.59375 31.296875 
Q 39.15625 29.25 43.1875 25.515625 
Q 47.21875 21.78125 47.21875 15.09375 
Q 47.21875 7.46875 41.1875 3.015625 
Q 35.15625 -1.421875 24.609375 -1.421875 
Q 20.21875 -1.421875 15.453125 -0.5625 
Q 10.6875 0.296875 5.421875 2 
L 5.421875 11.28125 
Q 10.40625 8.6875 15.234375 7.390625 
Q 20.0625 6.109375 24.8125 6.109375 
Q 31.15625 6.109375 34.5625 8.28125 
Q 37.984375 10.453125 37.984375 14.40625 
Q 37.984375 18.0625 35.515625 20.015625 
Q 33.0625 21.96875 24.703125 23.78125 
L 21.578125 24.515625 
Q 13.234375 26.265625 9.515625 29.90625 
Q 5.8125 33.546875 5.8125 39.890625 
Q 5.8125 47.609375 11.28125 51.796875 
Q 16.75 56 26.8125 56 
Q 31.78125 56 36.171875 55.265625 
Q 40.578125 54.546875 44.28125 53.078125 
z
" id="DejaVuSans-115"/>
       <path d="M 34.28125 27.484375 
Q 23.390625 27.484375 19.1875 25 
Q 14.984375 22.515625 14.984375 16.5 
Q 14.984375 11.71875 18.140625 8.90625 
Q 21.296875 6.109375 26.703125 6.109375 
Q 34.1875 6.109375 38.703125 11.40625 
Q 43.21875 16.703125 43.21875 25.484375 
L 43.21875 27.484375 
z
M 52.203125 31.203125 
L 52.203125 0 
L 43.21875 0 
L 43.21875 8.296875 
Q 40.140625 3.328125 35.546875 0.953125 
Q 30.953125 -1.421875 24.3125 -1.421875 
Q 15.921875 -1.421875 10.953125 3.296875 
Q 6 8.015625 6 15.921875 
Q 6 25.140625 12.171875 29.828125 
Q 18.359375 34.515625 30.609375 34.515625 
L 43.21875 34.515625 
L 43.21875 35.40625 
Q 43.21875 41.609375 39.140625 45 
Q 35.0625 48.390625 27.6875 48.390625 
Q 23 48.390625 18.546875 47.265625 
Q 14.109375 46.140625 10.015625 43.890625 
L 10.015625 52.203125 
Q 14.9375 54.109375 19.578125 55.046875 
Q 24.21875 56 28.609375 56 
Q 40.484375 56 46.34375 49.84375 
Q 52.203125 43.703125 52.203125 31.203125 
z
" id="DejaVuSans-97"/>
       <path d="M 18.109375 8.203125 
L 18.109375 -20.796875 
L 9.078125 -20.796875 
L 9.078125 54.6875 
L 18.109375 54.6875 
L 18.109375 46.390625 
Q 20.953125 51.265625 25.265625 53.625 
Q 29.59375 56 35.59375 56 
Q 45.5625 56 51.78125 48.09375 
Q 58.015625 40.1875 58.015625 27.296875 
Q 58.015625 14.40625 51.78125 6.484375 
Q 45.5625 -1.421875 35.59375 -1.421875 
Q 29.59375 -1.421875 25.265625 0.953125 
Q 20.953125 3.328125 18.109375 8.203125 
z
M 48.6875 27.296875 
Q 48.6875 37.203125 44.609375 42.84375 
Q 40.53125 48.484375 33.40625 48.484375 
Q 26.265625 48.484375 22.1875 42.84375 
Q 18.109375 37.203125 18.109375 27.296875 
Q 18.109375 17.390625 22.1875 11.75 
Q 26.265625 6.109375 33.40625 6.109375 
Q 40.53125 6.109375 44.609375 11.75 
Q 48.6875 17.390625 48.6875 27.296875 
z
" id="DejaVuSans-112"/>
      </defs>
      <use xlink:href="#DejaVuSans-116"/>
      <use x="39.208984" xlink:href="#DejaVuSans-105"/>
      <use x="66.992188" xlink:href="#DejaVuSans-109"/>
      <use x="164.404297" xlink:href="#DejaVuSans-101"/>
      <use x="225.927734" xlink:href="#DejaVuSans-115"/>
      <use x="278.027344" xlink:href="#DejaVuSans-116"/>
      <use x="317.236328" xlink:href="#DejaVuSans-97"/>
      <use x="378.515625" xlink:href="#DejaVuSans-109"/>
      <use x="475.927734" xlink:href="#DejaVuSans-112"/>
     </g>
    </g>
   </g>
   <g id="matplotlib.axis_2">
    <g id="ytick_1">
     <g id="line2d_7">
      <defs>
       <path d="M 0 0 
L -3.5 0 
" id="m54d9268a7e" style="stroke:#000000;stroke-width:0.8;"/>
      </defs>
      <g>
       <use style="stroke:#000000;stroke-width:0.8;" x="108" xlink:href="#m54d9268a7e" y="443.588796"/>
      </g>
     </g>
     <g id="text_8">
      <!-- 9 -->
      <g transform="translate(94.6375 447.388015)scale(0.1 -0.1)">
       <defs>
        <path d="M 10.984375 1.515625 
L 10.984375 10.5 
Q 14.703125 8.734375 18.5 7.8125 
Q 22.3125 6.890625 25.984375 6.890625 
Q 35.75 6.890625 40.890625 13.453125 
Q 46.046875 20.015625 46.78125 33.40625 
Q 43.953125 29.203125 39.59375 26.953125 
Q 35.25 24.703125 29.984375 24.703125 
Q 19.046875 24.703125 12.671875 31.3125 
Q 6.296875 37.9375 6.296875 49.421875 
Q 6.296875 60.640625 12.9375 67.421875 
Q 19.578125 74.21875 30.609375 74.21875 
Q 43.265625 74.21875 49.921875 64.515625 
Q 56.59375 54.828125 56.59375 36.375 
Q 56.59375 19.140625 48.40625 8.859375 
Q 40.234375 -1.421875 26.421875 -1.421875 
Q 22.703125 -1.421875 18.890625 -0.6875 
Q 15.09375 0.046875 10.984375 1.515625 
z
M 30.609375 32.421875 
Q 37.25 32.421875 41.125 36.953125 
Q 45.015625 41.5 45.015625 49.421875 
Q 45.015625 57.28125 41.125 61.84375 
Q 37.25 66.40625 30.609375 66.40625 
Q 23.96875 66.40625 20.09375 61.84375 
Q 16.21875 57.28125 16.21875 49.421875 
Q 16.21875 41.5 20.09375 36.953125 
Q 23.96875 32.421875 30.609375 32.421875 
z
" id="DejaVuSans-57"/>
       </defs>
       <use xlink:href="#DejaVuSans-57"/>
      </g>
     </g>
    </g>
    <g id="ytick_2">
     <g id="line2d_8">
      <g>
       <use style="stroke:#000000;stroke-width:0.8;" x="108" xlink:href="#m54d9268a7e" y="386.30989"/>
      </g>
     </g>
     <g id="text_9">
      <!-- 10 -->
      <g transform="translate(88.275 390.109108)scale(0.1 -0.1)">
       <use xlink:href="#DejaVuSans-49"/>
       <use x="63.623047" xlink:href="#DejaVuSans-48"/>
      </g>
     </g>
    </g>
    <g id="ytick_3">
     <g id="line2d_9">
      <g>
       <use style="stroke:#000000;stroke-width:0.8;" x="108" xlink:href="#m54d9268a7e" y="329.030983"/>
      </g>
     </g>
     <g id="text_10">
      <!-- 11 -->
      <g transform="translate(88.275 332.830202)scale(0.1 -0.1)">
       <use xlink:href="#DejaVuSans-49"/>
       <use x="63.623047" xlink:href="#DejaVuSans-49"/>
      </g>
     </g>
    </g>
    <g id="ytick_4">
     <g id="line2d_10">
      <g>
       <use style="stroke:#000000;stroke-width:0.8;" x="108" xlink:href="#m54d9268a7e" y="271.752076"/>
      </g>
     </g>
     <g id="text_11">
      <!-- 12 -->
      <g transform="translate(88.275 275.551295)scale(0.1 -0.1)">
       <use xlink:href="#DejaVuSans-49"/>
       <use x="63.623047" xlink:href="#DejaVuSans-50"/>
      </g>
     </g>
    </g>
    <g id="ytick_5">
     <g id="line2d_11">
      <g>
       <use style="stroke:#000000;stroke-width:0.8;" x="108" xlink:href="#m54d9268a7e" y="214.473169"/>
      </g>
     </g>
     <g id="text_12">
      <!-- 13 -->
      <g transform="translate(88.275 218.272388)scale(0.1 -0.1)">
       <use xlink:href="#DejaVuSans-49"/>
       <use x="63.623047" xlink:href="#DejaVuSans-51"/>
      </g>
     </g>
    </g>
    <g id="ytick_6">
     <g id="line2d_12">
      <g>
       <use style="stroke:#000000;stroke-width:0.8;" x="108" xlink:href="#m54d9268a7e" y="157.194262"/>
      </g>
     </g>
     <g id="text_13">
      <!-- 14 -->
      <g transform="translate(88.275 160.993481)scale(0.1 -0.1)">
       <use xlink:href="#DejaVuSans-49"/>
       <use x="63.623047" xlink:href="#DejaVuSans-52"/>
      </g>
     </g>
    </g>
    <g id="ytick_7">
     <g id="line2d_13">
      <g>
       <use style="stroke:#000000;stroke-width:0.8;" x="108" xlink:href="#m54d9268a7e" y="99.915355"/>
      </g>
     </g>
     <g id="text_14">
      <!-- 15 -->
      <g transform="translate(88.275 103.714574)scale(0.1 -0.1)">
       <use xlink:href="#DejaVuSans-49"/>
       <use x="63.623047" xlink:href="#DejaVuSans-53"/>
      </g>
     </g>
    </g>
    <g id="text_15">
     <!-- MB -->
     <g transform="translate(82.61125 260.715625)rotate(-90)scale(0.08 -0.08)">
      <defs>
       <path d="M 9.8125 72.90625 
L 24.515625 72.90625 
L 43.109375 23.296875 
L 61.8125 72.90625 
L 76.515625 72.90625 
L 76.515625 0 
L 66.890625 0 
L 66.890625 64.015625 
L 48.09375 14.015625 
L 38.1875 14.015625 
L 19.390625 64.015625 
L 19.390625 0 
L 9.8125 0 
z
" id="DejaVuSans-77"/>
       <path d="M 19.671875 34.8125 
L 19.671875 8.109375 
L 35.5 8.109375 
Q 43.453125 8.109375 47.28125 11.40625 
Q 51.125 14.703125 51.125 21.484375 
Q 51.125 28.328125 47.28125 31.5625 
Q 43.453125 34.8125 35.5 34.8125 
z
M 19.671875 64.796875 
L 19.671875 42.828125 
L 34.28125 42.828125 
Q 41.5 42.828125 45.03125 45.53125 
Q 48.578125 48.25 48.578125 53.8125 
Q 48.578125 59.328125 45.03125 62.0625 
Q 41.5 64.796875 34.28125 64.796875 
z
M 9.8125 72.90625 
L 35.015625 72.90625 
Q 46.296875 72.90625 52.390625 68.21875 
Q 58.5 63.53125 58.5 54.890625 
Q 58.5 48.1875 55.375 44.234375 
Q 52.25 40.28125 46.1875 39.3125 
Q 53.46875 37.75 57.5 32.78125 
Q 61.53125 27.828125 61.53125 20.40625 
Q 61.53125 10.640625 54.890625 5.3125 
Q 48.25 0 35.984375 0 
L 9.8125 0 
z
" id="DejaVuSans-66"/>
      </defs>
      <use xlink:href="#DejaVuSans-77"/>
      <use x="86.279297" xlink:href="#DejaVuSans-66"/>
     </g>
    </g>
   </g>
   <g id="line2d_14">
    <path clip-path="url(#pb3df6ffd74)" d="M 132.349091 430.679755 
L 133.342931 430.92 
L 135.330612 430.92 
L 136.324453 430.679755 
L 137.318293 430.679755 
L 138.312134 430.92 
L 139.305974 430.92 
L 140.299814 427.916936 
L 141.293655 405.454014 
L 142.287495 364.792523 
L 143.281336 316.983739 
L 145.269017 254.52 
L 146.262857 207.131645 
L 147.256698 186.470562 
L 148.250538 157.220715 
L 149.244378 121.06382 
L 150.238219 91.753912 
L 151.232059 85.147171 
L 152.2259 85.627661 
L 153.21974 92.955138 
L 154.213581 84.966987 
L 155.207421 95.237467 
L 156.201262 87.00907 
L 157.195102 85.387416 
L 158.188942 98.060347 
L 159.182783 100.402737 
L 160.176623 95.778018 
L 161.170464 103.886292 
L 162.164304 103.706108 
L 163.158145 101.844208 
L 164.151985 101.363718 
L 165.145826 98.240531 
L 166.139666 99.441757 
L 167.133506 99.021328 
L 168.127347 100.642983 
L 169.121187 100.402737 
L 170.115028 99.501818 
L 171.108868 100.162492 
L 172.102709 99.381696 
L 173.096549 98.961267 
L 174.09039 98.060347 
L 175.08423 95.237467 
L 176.078071 95.057283 
L 177.071911 95.297528 
L 178.065751 95.297528 
L 179.059592 99.742063 
L 181.047273 81.183126 
L 182.041113 96.378631 
L 184.028794 95.417651 
L 186.016475 93.07526 
L 187.010315 94.756977 
L 188.004156 95.717957 
L 188.997996 94.817038 
L 189.991837 96.678938 
L 190.985677 96.198447 
L 191.979518 96.198447 
L 192.973358 96.438693 
L 193.967199 96.919183 
L 194.961039 96.018264 
L 195.954879 96.919183 
L 196.94872 93.135322 
L 197.94256 95.057283 
L 198.936401 95.297528 
L 199.930241 87.549622 
L 200.924082 94.576793 
L 201.917922 94.516731 
L 202.911763 86.768825 
L 203.905603 95.898141 
L 204.899443 89.051154 
L 205.893284 101.363718 
L 206.887124 99.682002 
L 207.880965 99.201512 
L 208.874805 98.961267 
L 209.868646 102.685066 
L 210.862486 99.922247 
L 211.856327 99.922247 
L 212.850167 100.162492 
L 213.844007 98.841144 
L 214.837848 99.982308 
L 215.831688 99.501818 
L 216.825529 99.982308 
L 217.819369 98.120409 
L 219.80705 98.060347 
L 220.800891 96.678938 
L 221.794731 96.378631 
L 222.788571 96.378631 
L 224.776252 95.477712 
L 225.770093 89.651767 
L 226.763933 96.919183 
L 227.757774 91.093238 
L 228.751614 99.441757 
L 229.745455 102.264637 
L 230.739295 102.084454 
L 231.733135 93.856057 
L 232.726976 100.462799 
L 233.720816 100.462799 
L 234.714657 99.742063 
L 235.708497 98.781083 
L 236.702338 102.625005 
L 237.696178 102.324699 
L 238.690019 102.324699 
L 239.683859 99.742063 
L 240.677699 98.781083 
L 241.67154 99.021328 
L 242.66538 98.781083 
L 243.659221 101.603963 
L 244.653061 102.264637 
L 245.646902 99.922247 
L 246.640742 98.000286 
L 247.634583 90.012135 
L 248.628423 90.072196 
L 249.622263 97.579857 
L 250.616104 97.820102 
L 251.609944 97.099367 
L 252.603785 98.781083 
L 253.597625 99.742063 
L 255.585306 99.742063 
L 256.579147 98.781083 
L 257.572987 90.973115 
L 258.566827 98.000286 
L 259.560668 98.961267 
L 260.554508 90.73287 
L 261.548349 99.922247 
L 262.542189 91.934096 
L 263.53603 89.351461 
L 264.52987 95.417651 
L 265.523711 96.618876 
L 266.517551 95.477712 
L 267.511391 99.261573 
L 268.505232 97.399673 
L 269.499072 95.778018 
L 270.492913 97.339612 
L 271.486753 95.717957 
L 272.480594 95.958202 
L 273.474434 98.540838 
L 274.468275 89.171277 
L 275.462115 95.297528 
L 276.455955 94.336547 
L 277.449796 94.576793 
L 278.443636 95.237467 
L 279.437477 94.036241 
L 280.431317 93.375567 
L 281.425158 86.108151 
L 282.418998 96.919183 
L 283.412839 96.919183 
L 284.406679 100.04237 
L 285.400519 100.462799 
L 286.39436 102.144515 
L 287.3882 103.285679 
L 288.382041 103.285679 
L 289.375881 103.76617 
L 290.369722 104.006415 
L 291.363562 104.426844 
L 292.357403 104.426844 
L 293.351243 96.498754 
L 294.345083 102.805189 
L 295.338924 102.625005 
L 296.332764 93.435628 
L 297.326605 97.880163 
L 298.320445 96.258509 
L 299.314286 94.336547 
L 300.308126 91.033177 
L 301.301967 85.807845 
L 302.295807 78.12 
L 303.289647 85.627661 
L 304.283488 87.00907 
L 305.277328 88.630725 
L 306.271169 91.994157 
L 307.265009 86.828887 
L 308.25885 87.309377 
L 309.25269 94.817038 
L 310.246531 95.057283 
L 312.234212 93.135322 
L 313.228052 93.795996 
L 314.221892 96.678938 
L 315.215733 102.024392 
L 316.209573 103.225618 
L 317.203414 93.615812 
L 318.197254 93.135322 
L 319.191095 93.615812 
L 320.184935 100.883228 
L 321.178776 94.276486 
L 322.172616 102.504883 
L 323.166456 102.204576 
L 324.160297 102.024392 
L 325.154137 101.063412 
L 326.147978 100.823166 
L 327.141818 92.895077 
L 328.135659 100.162492 
L 329.129499 90.552686 
L 330.12334 98.540838 
L 331.11718 99.742063 
L 332.11102 99.501818 
L 333.104861 98.781083 
L 334.098701 97.579857 
L 335.092542 97.579857 
L 336.086382 97.339612 
L 337.080223 100.102431 
L 338.074063 99.682002 
L 339.067904 101.844208 
L 340.061744 98.480776 
L 341.055584 90.552686 
L 342.049425 98.721021 
L 343.043265 98.721021 
L 344.037106 91.213361 
L 345.030946 100.342676 
L 346.024787 92.474648 
L 347.018627 98.480776 
L 348.012468 98.540838 
L 349.006308 99.201512 
L 350.000148 99.441757 
L 350.993989 98.781083 
L 351.987829 98.540838 
L 352.98167 90.072196 
L 353.97551 98.300592 
L 354.969351 99.922247 
L 355.963191 101.123473 
L 356.957032 100.642983 
L 357.950872 100.402737 
L 358.944712 100.582921 
L 359.938553 99.982308 
L 360.932393 100.222554 
L 361.926234 102.504883 
L 362.920074 102.745128 
L 363.913915 92.59477 
L 364.907755 99.742063 
L 365.901596 99.261573 
L 366.895436 99.982308 
L 367.889276 99.742063 
L 368.883117 100.402737 
L 369.876957 100.642983 
L 370.870798 101.603963 
L 371.864638 101.123473 
L 372.858479 100.222554 
L 373.852319 92.955138 
L 374.84616 100.222554 
L 375.84 99.982308 
L 376.83384 100.943289 
L 377.827681 100.883228 
L 378.821521 93.135322 
L 379.815362 91.213361 
L 380.809202 97.820102 
L 381.803043 98.300592 
L 382.796883 90.312441 
L 383.790724 97.579857 
L 384.784564 101.363718 
L 385.778404 99.922247 
L 386.772245 93.135322 
L 387.766085 102.444821 
L 388.759926 101.603963 
L 389.753766 101.123473 
L 390.747607 93.615812 
L 391.741447 100.642983 
L 392.735288 100.642983 
L 393.729128 102.324699 
L 395.716809 100.883228 
L 396.710649 92.474648 
L 397.70449 100.402737 
L 398.69833 100.402737 
L 399.692171 92.174341 
L 400.686011 98.721021 
L 401.679852 99.201512 
L 402.673692 99.501818 
L 403.667532 93.615812 
L 404.661373 92.654831 
L 405.655213 100.162492 
L 407.642894 98.721021 
L 408.636735 91.273422 
L 409.630575 100.222554 
L 410.624416 102.564944 
L 411.618256 103.706108 
L 412.612096 102.024392 
L 413.605937 101.063412 
L 414.599777 99.922247 
L 415.593618 100.162492 
L 416.587458 99.922247 
L 417.581299 100.642983 
L 418.575139 96.138386 
L 419.56898 99.682002 
L 420.56282 96.618876 
L 421.55666 96.859122 
L 422.550501 89.892012 
L 423.544341 96.859122 
L 424.538182 96.919183 
L 425.532022 98.300592 
L 426.525863 97.820102 
L 427.519703 99.261573 
L 428.513544 98.721021 
L 429.507384 90.372503 
L 430.501224 97.579857 
L 431.495065 89.591706 
L 432.488905 96.859122 
L 433.482746 101.063412 
L 434.476586 101.844208 
L 435.470427 98.000286 
L 436.464267 93.675873 
L 437.458108 93.195383 
L 438.451948 93.255444 
L 439.445788 92.534709 
L 440.439629 92.294464 
L 441.433469 94.156364 
L 443.42115 102.805189 
L 444.414991 102.564944 
L 445.408831 102.805189 
L 446.402672 103.706108 
L 447.396512 104.186599 
L 448.390353 104.426844 
L 449.384193 97.339612 
L 450.378033 97.579857 
L 451.371874 105.087518 
L 452.365714 105.087518 
L 453.359555 104.907334 
L 454.353395 104.426844 
L 455.347236 102.805189 
L 456.341076 93.615812 
L 457.334917 99.922247 
L 458.328757 98.000286 
L 459.322597 94.817038 
L 460.316438 89.831951 
L 461.310278 87.789867 
L 462.304119 87.309377 
L 463.297959 87.069132 
L 464.2918 85.627661 
L 465.28564 87.729806 
L 466.279481 94.756977 
L 467.273321 88.931032 
L 468.267161 96.438693 
L 469.261002 96.919183 
L 470.254842 88.931032 
L 471.248683 95.237467 
L 472.242523 85.627661 
L 473.236364 86.768825 
L 474.230204 93.615812 
L 475.224045 87.970051 
L 476.217885 95.237467 
L 477.211725 94.997222 
L 478.205566 94.096302 
L 479.199406 90.73287 
L 480.193247 91.693851 
L 481.187087 93.135322 
L 482.180928 92.895077 
L 483.174768 93.856057 
L 484.168609 93.435628 
L 485.162449 93.856057 
L 486.156289 86.348396 
L 487.15013 92.895077 
L 488.14397 94.336547 
L 489.137811 92.234402 
L 490.131651 94.336547 
L 491.125492 92.654831 
L 492.119332 88.87097 
L 493.113173 96.378631 
L 494.107013 89.111216 
L 495.100853 96.378631 
L 497.088534 91.513667 
L 498.082375 92.895077 
L 499.076215 93.615812 
L 500.070056 97.099367 
L 502.057737 97.099367 
L 503.051577 96.859122 
L 504.045417 97.159428 
L 505.039258 96.678938 
L 506.033098 99.501818 
L 507.026939 97.820102 
L 508.020779 90.312441 
L 509.01462 98.300592 
L 510.00846 96.618876 
L 511.002301 95.237467 
L 511.996141 93.615812 
L 512.989981 94.516731 
L 513.983822 86.108151 
L 514.977662 99.381696 
L 515.971503 99.862186 
L 517.959184 97.579857 
L 518.953024 97.820102 
L 519.946865 97.099367 
L 520.940705 97.880163 
L 521.934545 89.411522 
L 522.928386 97.639918 
L 523.922226 97.399673 
L 524.916067 90.072196 
L 525.909907 94.997222 
L 526.903748 87.729806 
L 527.897588 95.717957 
L 528.891429 97.820102 
L 529.885269 90.552686 
L 530.879109 102.024392 
L 531.87295 100.883228 
L 532.86679 100.642983 
L 533.860631 96.138386 
L 534.854471 83.585577 
L 535.848312 91.813973 
L 536.842152 96.738999 
L 537.835993 98.360654 
L 538.829833 96.919183 
L 539.823673 96.678938 
L 540.817514 90.612748 
L 541.811354 90.132257 
L 542.805195 90.372503 
L 543.799035 85.207232 
L 544.792876 97.159428 
L 545.786716 98.600899 
L 546.780557 98.781083 
L 547.774397 95.417651 
L 548.768237 91.033177 
L 549.762078 91.273422 
L 550.755918 84.246251 
L 551.749759 84.246251 
L 552.743599 94.636854 
L 553.73744 94.156364 
L 554.73128 100.222554 
L 555.725121 99.021328 
L 556.718961 91.513667 
L 557.712801 99.201512 
L 558.706642 99.021328 
L 559.700482 89.831951 
L 560.694323 98.841144 
L 561.688163 97.880163 
L 562.682004 99.261573 
L 563.675844 97.820102 
L 564.669685 92.955138 
L 565.663525 84.486496 
L 566.657365 91.513667 
L 567.651206 91.994157 
L 568.645046 95.537773 
L 569.638887 95.778018 
L 570.632727 97.639918 
L 571.626568 96.018264 
L 572.620408 94.156364 
L 573.614249 94.156364 
L 574.608089 93.195383 
L 575.601929 93.675873 
L 576.59577 96.678938 
L 577.58961 95.237467 
L 578.583451 97.519796 
L 579.577291 97.339612 
L 580.571132 95.057283 
L 581.564972 94.336547 
L 582.558813 94.817038 
L 583.552653 94.877099 
L 584.546494 90.312441 
L 585.540334 98.060347 
L 586.534174 99.441757 
L 587.528015 99.441757 
L 588.521855 101.363718 
L 589.515696 99.441757 
L 590.509536 99.922247 
L 591.503377 99.742063 
L 592.497217 91.753912 
L 593.491058 99.922247 
L 594.484898 98.721021 
L 595.478738 94.817038 
L 596.472579 93.856057 
L 597.466419 92.414586 
L 598.46026 91.273422 
L 599.4541 84.006006 
L 600.447941 91.513667 
L 601.441781 94.096302 
L 602.435622 94.997222 
L 603.429462 96.79906 
L 604.423302 97.760041 
L 605.417143 98.000286 
L 606.410983 101.543902 
L 607.404824 101.784147 
L 608.398664 102.504883 
L 609.392505 94.997222 
L 610.386345 102.504883 
L 611.380186 94.997222 
L 612.374026 102.504883 
L 613.367866 94.997222 
L 614.361707 102.504883 
L 619.330909 102.504883 
L 619.330909 102.504883 
" style="fill:none;stroke:#1f77b4;stroke-linecap:square;stroke-width:1.5;"/>
   </g>
   <g id="patch_3">
    <path d="M 108 448.56 
L 108 60.48 
" style="fill:none;stroke:#000000;stroke-linecap:square;stroke-linejoin:miter;stroke-width:0.8;"/>
   </g>
   <g id="patch_4">
    <path d="M 643.68 448.56 
L 643.68 60.48 
" style="fill:none;stroke:#000000;stroke-linecap:square;stroke-linejoin:miter;stroke-width:0.8;"/>
   </g>
   <g id="patch_5">
    <path d="M 108 448.56 
L 643.68 448.56 
" style="fill:none;stroke:#000000;stroke-linecap:square;stroke-linejoin:miter;stroke-width:0.8;"/>
   </g>
   <g id="patch_6">
    <path d="M 108 60.48 
L 643.68 60.48 
" style="fill:none;stroke:#000000;stroke-linecap:square;stroke-linejoin:miter;stroke-width:0.8;"/>
   </g>
   <g id="text_16">
    <!-- docker - stats -->
    <g transform="translate(324.832969 54.48)scale(0.15 -0.15)">
     <defs>
      <path d="M 45.40625 46.390625 
L 45.40625 75.984375 
L 54.390625 75.984375 
L 54.390625 0 
L 45.40625 0 
L 45.40625 8.203125 
Q 42.578125 3.328125 38.25 0.953125 
Q 33.9375 -1.421875 27.875 -1.421875 
Q 17.96875 -1.421875 11.734375 6.484375 
Q 5.515625 14.40625 5.515625 27.296875 
Q 5.515625 40.1875 11.734375 48.09375 
Q 17.96875 56 27.875 56 
Q 33.9375 56 38.25 53.625 
Q 42.578125 51.265625 45.40625 46.390625 
z
M 14.796875 27.296875 
Q 14.796875 17.390625 18.875 11.75 
Q 22.953125 6.109375 30.078125 6.109375 
Q 37.203125 6.109375 41.296875 11.75 
Q 45.40625 17.390625 45.40625 27.296875 
Q 45.40625 37.203125 41.296875 42.84375 
Q 37.203125 48.484375 30.078125 48.484375 
Q 22.953125 48.484375 18.875 42.84375 
Q 14.796875 37.203125 14.796875 27.296875 
z
" id="DejaVuSans-100"/>
      <path d="M 30.609375 48.390625 
Q 23.390625 48.390625 19.1875 42.75 
Q 14.984375 37.109375 14.984375 27.296875 
Q 14.984375 17.484375 19.15625 11.84375 
Q 23.34375 6.203125 30.609375 6.203125 
Q 37.796875 6.203125 41.984375 11.859375 
Q 46.1875 17.53125 46.1875 27.296875 
Q 46.1875 37.015625 41.984375 42.703125 
Q 37.796875 48.390625 30.609375 48.390625 
z
M 30.609375 56 
Q 42.328125 56 49.015625 48.375 
Q 55.71875 40.765625 55.71875 27.296875 
Q 55.71875 13.875 49.015625 6.21875 
Q 42.328125 -1.421875 30.609375 -1.421875 
Q 18.84375 -1.421875 12.171875 6.21875 
Q 5.515625 13.875 5.515625 27.296875 
Q 5.515625 40.765625 12.171875 48.375 
Q 18.84375 56 30.609375 56 
z
" id="DejaVuSans-111"/>
      <path d="M 48.78125 52.59375 
L 48.78125 44.1875 
Q 44.96875 46.296875 41.140625 47.34375 
Q 37.3125 48.390625 33.40625 48.390625 
Q 24.65625 48.390625 19.8125 42.84375 
Q 14.984375 37.3125 14.984375 27.296875 
Q 14.984375 17.28125 19.8125 11.734375 
Q 24.65625 6.203125 33.40625 6.203125 
Q 37.3125 6.203125 41.140625 7.25 
Q 44.96875 8.296875 48.78125 10.40625 
L 48.78125 2.09375 
Q 45.015625 0.34375 40.984375 -0.53125 
Q 36.96875 -1.421875 32.421875 -1.421875 
Q 20.0625 -1.421875 12.78125 6.34375 
Q 5.515625 14.109375 5.515625 27.296875 
Q 5.515625 40.671875 12.859375 48.328125 
Q 20.21875 56 33.015625 56 
Q 37.15625 56 41.109375 55.140625 
Q 45.0625 54.296875 48.78125 52.59375 
z
" id="DejaVuSans-99"/>
      <path d="M 9.078125 75.984375 
L 18.109375 75.984375 
L 18.109375 31.109375 
L 44.921875 54.6875 
L 56.390625 54.6875 
L 27.390625 29.109375 
L 57.625 0 
L 45.90625 0 
L 18.109375 26.703125 
L 18.109375 0 
L 9.078125 0 
z
" id="DejaVuSans-107"/>
      <path d="M 41.109375 46.296875 
Q 39.59375 47.171875 37.8125 47.578125 
Q 36.03125 48 33.890625 48 
Q 26.265625 48 22.1875 43.046875 
Q 18.109375 38.09375 18.109375 28.8125 
L 18.109375 0 
L 9.078125 0 
L 9.078125 54.6875 
L 18.109375 54.6875 
L 18.109375 46.1875 
Q 20.953125 51.171875 25.484375 53.578125 
Q 30.03125 56 36.53125 56 
Q 37.453125 56 38.578125 55.875 
Q 39.703125 55.765625 41.0625 55.515625 
z
" id="DejaVuSans-114"/>
      <path id="DejaVuSans-32"/>
      <path d="M 4.890625 31.390625 
L 31.203125 31.390625 
L 31.203125 23.390625 
L 4.890625 23.390625 
z
" id="DejaVuSans-45"/>
     </defs>
     <use xlink:href="#DejaVuSans-100"/>
     <use x="63.476562" xlink:href="#DejaVuSans-111"/>
     <use x="124.658203" xlink:href="#DejaVuSans-99"/>
     <use x="179.638672" xlink:href="#DejaVuSans-107"/>
     <use x="233.923828" xlink:href="#DejaVuSans-101"/>
     <use x="295.447266" xlink:href="#DejaVuSans-114"/>
     <use x="336.560547" xlink:href="#DejaVuSans-32"/>
     <use x="368.347656" xlink:href="#DejaVuSans-45"/>
     <use x="404.431641" xlink:href="#DejaVuSans-32"/>
     <use x="436.21875" xlink:href="#DejaVuSans-115"/>
     <use x="488.318359" xlink:href="#DejaVuSans-116"/>
     <use x="527.527344" xlink:href="#DejaVuSans-97"/>
     <use x="588.806641" xlink:href="#DejaVuSans-116"/>
     <use x="628.015625" xlink:href="#DejaVuSans-115"/>
    </g>
   </g>
   <g id="legend_1">
    <g id="patch_7">
     <path d="M 650.68 258.52 
L 654.68 258.52 
Q 656.68 258.52 656.68 256.52 
L 656.68 252.52 
Q 656.68 250.52 654.68 250.52 
L 650.68 250.52 
Q 648.68 250.52 648.68 252.52 
L 648.68 256.52 
Q 648.68 258.52 650.68 258.52 
z
" style="fill:#ffffff;opacity:0.8;stroke:#cccccc;stroke-linejoin:miter;"/>
    </g>
   </g>
  </g>
 </g>
 <defs>
  <clipPath id="pb3df6ffd74">
   <rect height="388.08" width="535.68" x="108" y="60.48"/>
  </clipPath>
 </defs>
</svg>
