<?xml version="1.0" encoding="utf-8" standalone="no"?>
<!DOCTYPE svg PUBLIC "-//W3C//DTD SVG 1.1//EN"
  "http://www.w3.org/Graphics/SVG/1.1/DTD/svg11.dtd">
<!-- Created with matplotlib (https://matplotlib.org/) -->
<svg height="360pt" version="1.1" viewBox="0 0 360 360" width="360pt" xmlns="http://www.w3.org/2000/svg" xmlns:xlink="http://www.w3.org/1999/xlink">
 <metadata>
  <rdf:RDF xmlns:cc="http://creativecommons.org/ns#" xmlns:dc="http://purl.org/dc/elements/1.1/" xmlns:rdf="http://www.w3.org/1999/02/22-rdf-syntax-ns#">
   <cc:Work>
    <dc:type rdf:resource="http://purl.org/dc/dcmitype/StillImage"/>
    <dc:date>2022-06-15T17:32:13.389110</dc:date>
    <dc:format>image/svg+xml</dc:format>
    <dc:creator>
     <cc:Agent>
      <dc:title>Matplotlib v3.3.4, https://matplotlib.org/</dc:title>
     </cc:Agent>
    </dc:creator>
   </cc:Work>
  </rdf:RDF>
 </metadata>
 <defs>
  <style type="text/css">*{stroke-linecap:butt;stroke-linejoin:round;}</style>
 </defs>
 <g id="figure_1">
  <g id="patch_1">
   <path d="M 0 360 
L 360 360 
L 360 0 
L 0 0 
z
" style="fill:#ffffff;"/>
  </g>
  <g id="axes_1">
   <g id="patch_2">
    <path d="M 45 320.4 
L 324 320.4 
L 324 43.2 
L 45 43.2 
z
" style="fill:#ffffff;"/>
   </g>
   <g id="matplotlib.axis_1">
    <g id="xtick_1">
     <g id="line2d_1">
      <defs>
       <path d="M 0 0 
L 0 3.5 
" id="ma7f1b06d48" style="stroke:#000000;stroke-width:0.8;"/>
      </defs>
      <g>
       <use style="stroke:#000000;stroke-width:0.8;" x="56.71374" xlink:href="#ma7f1b06d48" y="320.4"/>
      </g>
     </g>
     <g id="text_1">
      <!-- 0 -->
      <g transform="translate(53.53249 334.998438)scale(0.1 -0.1)">
       <defs>
        <path d="M 31.78125 66.40625 
Q 24.171875 66.40625 20.328125 58.90625 
Q 16.5 51.421875 16.5 36.375 
Q 16.5 21.390625 20.328125 13.890625 
Q 24.171875 6.390625 31.78125 6.390625 
Q 39.453125 6.390625 43.28125 13.890625 
Q 47.125 21.390625 47.125 36.375 
Q 47.125 51.421875 43.28125 58.90625 
Q 39.453125 66.40625 31.78125 66.40625 
z
M 31.78125 74.21875 
Q 44.046875 74.21875 50.515625 64.515625 
Q 56.984375 54.828125 56.984375 36.375 
Q 56.984375 17.96875 50.515625 8.265625 
Q 44.046875 -1.421875 31.78125 -1.421875 
Q 19.53125 -1.421875 13.0625 8.265625 
Q 6.59375 17.96875 6.59375 36.375 
Q 6.59375 54.828125 13.0625 64.515625 
Q 19.53125 74.21875 31.78125 74.21875 
z
" id="DejaVuSans-48"/>
       </defs>
       <use xlink:href="#DejaVuSans-48"/>
      </g>
     </g>
    </g>
    <g id="xtick_2">
     <g id="line2d_2">
      <g>
       <use style="stroke:#000000;stroke-width:0.8;" x="105.117627" xlink:href="#ma7f1b06d48" y="320.4"/>
      </g>
     </g>
     <g id="text_2">
      <!-- 50 -->
      <g transform="translate(98.755127 334.998438)scale(0.1 -0.1)">
       <defs>
        <path d="M 10.796875 72.90625 
L 49.515625 72.90625 
L 49.515625 64.59375 
L 19.828125 64.59375 
L 19.828125 46.734375 
Q 21.96875 47.46875 24.109375 47.828125 
Q 26.265625 48.1875 28.421875 48.1875 
Q 40.625 48.1875 47.75 41.5 
Q 54.890625 34.8125 54.890625 23.390625 
Q 54.890625 11.625 47.5625 5.09375 
Q 40.234375 -1.421875 26.90625 -1.421875 
Q 22.3125 -1.421875 17.546875 -0.640625 
Q 12.796875 0.140625 7.71875 1.703125 
L 7.71875 11.625 
Q 12.109375 9.234375 16.796875 8.0625 
Q 21.484375 6.890625 26.703125 6.890625 
Q 35.15625 6.890625 40.078125 11.328125 
Q 45.015625 15.765625 45.015625 23.390625 
Q 45.015625 31 40.078125 35.4375 
Q 35.15625 39.890625 26.703125 39.890625 
Q 22.75 39.890625 18.8125 39.015625 
Q 14.890625 38.140625 10.796875 36.28125 
z
" id="DejaVuSans-53"/>
       </defs>
       <use xlink:href="#DejaVuSans-53"/>
       <use x="63.623047" xlink:href="#DejaVuSans-48"/>
      </g>
     </g>
    </g>
    <g id="xtick_3">
     <g id="line2d_3">
      <g>
       <use style="stroke:#000000;stroke-width:0.8;" x="153.521513" xlink:href="#ma7f1b06d48" y="320.4"/>
      </g>
     </g>
     <g id="text_3">
      <!-- 100 -->
      <g transform="translate(143.977763 334.998438)scale(0.1 -0.1)">
       <defs>
        <path d="M 12.40625 8.296875 
L 28.515625 8.296875 
L 28.515625 63.921875 
L 10.984375 60.40625 
L 10.984375 69.390625 
L 28.421875 72.90625 
L 38.28125 72.90625 
L 38.28125 8.296875 
L 54.390625 8.296875 
L 54.390625 0 
L 12.40625 0 
z
" id="DejaVuSans-49"/>
       </defs>
       <use xlink:href="#DejaVuSans-49"/>
       <use x="63.623047" xlink:href="#DejaVuSans-48"/>
       <use x="127.246094" xlink:href="#DejaVuSans-48"/>
      </g>
     </g>
    </g>
    <g id="xtick_4">
     <g id="line2d_4">
      <g>
       <use style="stroke:#000000;stroke-width:0.8;" x="201.925399" xlink:href="#ma7f1b06d48" y="320.4"/>
      </g>
     </g>
     <g id="text_4">
      <!-- 150 -->
      <g transform="translate(192.381649 334.998438)scale(0.1 -0.1)">
       <use xlink:href="#DejaVuSans-49"/>
       <use x="63.623047" xlink:href="#DejaVuSans-53"/>
       <use x="127.246094" xlink:href="#DejaVuSans-48"/>
      </g>
     </g>
    </g>
    <g id="xtick_5">
     <g id="line2d_5">
      <g>
       <use style="stroke:#000000;stroke-width:0.8;" x="250.329285" xlink:href="#ma7f1b06d48" y="320.4"/>
      </g>
     </g>
     <g id="text_5">
      <!-- 200 -->
      <g transform="translate(240.785535 334.998438)scale(0.1 -0.1)">
       <defs>
        <path d="M 19.1875 8.296875 
L 53.609375 8.296875 
L 53.609375 0 
L 7.328125 0 
L 7.328125 8.296875 
Q 12.9375 14.109375 22.625 23.890625 
Q 32.328125 33.6875 34.8125 36.53125 
Q 39.546875 41.84375 41.421875 45.53125 
Q 43.3125 49.21875 43.3125 52.78125 
Q 43.3125 58.59375 39.234375 62.25 
Q 35.15625 65.921875 28.609375 65.921875 
Q 23.96875 65.921875 18.8125 64.3125 
Q 13.671875 62.703125 7.8125 59.421875 
L 7.8125 69.390625 
Q 13.765625 71.78125 18.9375 73 
Q 24.125 74.21875 28.421875 74.21875 
Q 39.75 74.21875 46.484375 68.546875 
Q 53.21875 62.890625 53.21875 53.421875 
Q 53.21875 48.921875 51.53125 44.890625 
Q 49.859375 40.875 45.40625 35.40625 
Q 44.1875 33.984375 37.640625 27.21875 
Q 31.109375 20.453125 19.1875 8.296875 
z
" id="DejaVuSans-50"/>
       </defs>
       <use xlink:href="#DejaVuSans-50"/>
       <use x="63.623047" xlink:href="#DejaVuSans-48"/>
       <use x="127.246094" xlink:href="#DejaVuSans-48"/>
      </g>
     </g>
    </g>
    <g id="xtick_6">
     <g id="line2d_6">
      <g>
       <use style="stroke:#000000;stroke-width:0.8;" x="298.733171" xlink:href="#ma7f1b06d48" y="320.4"/>
      </g>
     </g>
     <g id="text_6">
      <!-- 250 -->
      <g transform="translate(289.189421 334.998438)scale(0.1 -0.1)">
       <use xlink:href="#DejaVuSans-50"/>
       <use x="63.623047" xlink:href="#DejaVuSans-53"/>
       <use x="127.246094" xlink:href="#DejaVuSans-48"/>
      </g>
     </g>
    </g>
    <g id="text_7">
     <!-- seconds -->
     <g transform="translate(168.15 347.156875)scale(0.08 -0.08)">
      <defs>
       <path d="M 44.28125 53.078125 
L 44.28125 44.578125 
Q 40.484375 46.53125 36.375 47.5 
Q 32.28125 48.484375 27.875 48.484375 
Q 21.1875 48.484375 17.84375 46.4375 
Q 14.5 44.390625 14.5 40.28125 
Q 14.5 37.15625 16.890625 35.375 
Q 19.28125 33.59375 26.515625 31.984375 
L 29.59375 31.296875 
Q 39.15625 29.25 43.1875 25.515625 
Q 47.21875 21.78125 47.21875 15.09375 
Q 47.21875 7.46875 41.1875 3.015625 
Q 35.15625 -1.421875 24.609375 -1.421875 
Q 20.21875 -1.421875 15.453125 -0.5625 
Q 10.6875 0.296875 5.421875 2 
L 5.421875 11.28125 
Q 10.40625 8.6875 15.234375 7.390625 
Q 20.0625 6.109375 24.8125 6.109375 
Q 31.15625 6.109375 34.5625 8.28125 
Q 37.984375 10.453125 37.984375 14.40625 
Q 37.984375 18.0625 35.515625 20.015625 
Q 33.0625 21.96875 24.703125 23.78125 
L 21.578125 24.515625 
Q 13.234375 26.265625 9.515625 29.90625 
Q 5.8125 33.546875 5.8125 39.890625 
Q 5.8125 47.609375 11.28125 51.796875 
Q 16.75 56 26.8125 56 
Q 31.78125 56 36.171875 55.265625 
Q 40.578125 54.546875 44.28125 53.078125 
z
" id="DejaVuSans-115"/>
       <path d="M 56.203125 29.59375 
L 56.203125 25.203125 
L 14.890625 25.203125 
Q 15.484375 15.921875 20.484375 11.0625 
Q 25.484375 6.203125 34.421875 6.203125 
Q 39.59375 6.203125 44.453125 7.46875 
Q 49.3125 8.734375 54.109375 11.28125 
L 54.109375 2.78125 
Q 49.265625 0.734375 44.1875 -0.34375 
Q 39.109375 -1.421875 33.890625 -1.421875 
Q 20.796875 -1.421875 13.15625 6.1875 
Q 5.515625 13.8125 5.515625 26.8125 
Q 5.515625 40.234375 12.765625 48.109375 
Q 20.015625 56 32.328125 56 
Q 43.359375 56 49.78125 48.890625 
Q 56.203125 41.796875 56.203125 29.59375 
z
M 47.21875 32.234375 
Q 47.125 39.59375 43.09375 43.984375 
Q 39.0625 48.390625 32.421875 48.390625 
Q 24.90625 48.390625 20.390625 44.140625 
Q 15.875 39.890625 15.1875 32.171875 
z
" id="DejaVuSans-101"/>
       <path d="M 48.78125 52.59375 
L 48.78125 44.1875 
Q 44.96875 46.296875 41.140625 47.34375 
Q 37.3125 48.390625 33.40625 48.390625 
Q 24.65625 48.390625 19.8125 42.84375 
Q 14.984375 37.3125 14.984375 27.296875 
Q 14.984375 17.28125 19.8125 11.734375 
Q 24.65625 6.203125 33.40625 6.203125 
Q 37.3125 6.203125 41.140625 7.25 
Q 44.96875 8.296875 48.78125 10.40625 
L 48.78125 2.09375 
Q 45.015625 0.34375 40.984375 -0.53125 
Q 36.96875 -1.421875 32.421875 -1.421875 
Q 20.0625 -1.421875 12.78125 6.34375 
Q 5.515625 14.109375 5.515625 27.296875 
Q 5.515625 40.671875 12.859375 48.328125 
Q 20.21875 56 33.015625 56 
Q 37.15625 56 41.109375 55.140625 
Q 45.0625 54.296875 48.78125 52.59375 
z
" id="DejaVuSans-99"/>
       <path d="M 30.609375 48.390625 
Q 23.390625 48.390625 19.1875 42.75 
Q 14.984375 37.109375 14.984375 27.296875 
Q 14.984375 17.484375 19.15625 11.84375 
Q 23.34375 6.203125 30.609375 6.203125 
Q 37.796875 6.203125 41.984375 11.859375 
Q 46.1875 17.53125 46.1875 27.296875 
Q 46.1875 37.015625 41.984375 42.703125 
Q 37.796875 48.390625 30.609375 48.390625 
z
M 30.609375 56 
Q 42.328125 56 49.015625 48.375 
Q 55.71875 40.765625 55.71875 27.296875 
Q 55.71875 13.875 49.015625 6.21875 
Q 42.328125 -1.421875 30.609375 -1.421875 
Q 18.84375 -1.421875 12.171875 6.21875 
Q 5.515625 13.875 5.515625 27.296875 
Q 5.515625 40.765625 12.171875 48.375 
Q 18.84375 56 30.609375 56 
z
" id="DejaVuSans-111"/>
       <path d="M 54.890625 33.015625 
L 54.890625 0 
L 45.90625 0 
L 45.90625 32.71875 
Q 45.90625 40.484375 42.875 44.328125 
Q 39.84375 48.1875 33.796875 48.1875 
Q 26.515625 48.1875 22.3125 43.546875 
Q 18.109375 38.921875 18.109375 30.90625 
L 18.109375 0 
L 9.078125 0 
L 9.078125 54.6875 
L 18.109375 54.6875 
L 18.109375 46.1875 
Q 21.34375 51.125 25.703125 53.5625 
Q 30.078125 56 35.796875 56 
Q 45.21875 56 50.046875 50.171875 
Q 54.890625 44.34375 54.890625 33.015625 
z
" id="DejaVuSans-110"/>
       <path d="M 45.40625 46.390625 
L 45.40625 75.984375 
L 54.390625 75.984375 
L 54.390625 0 
L 45.40625 0 
L 45.40625 8.203125 
Q 42.578125 3.328125 38.25 0.953125 
Q 33.9375 -1.421875 27.875 -1.421875 
Q 17.96875 -1.421875 11.734375 6.484375 
Q 5.515625 14.40625 5.515625 27.296875 
Q 5.515625 40.1875 11.734375 48.09375 
Q 17.96875 56 27.875 56 
Q 33.9375 56 38.25 53.625 
Q 42.578125 51.265625 45.40625 46.390625 
z
M 14.796875 27.296875 
Q 14.796875 17.390625 18.875 11.75 
Q 22.953125 6.109375 30.078125 6.109375 
Q 37.203125 6.109375 41.296875 11.75 
Q 45.40625 17.390625 45.40625 27.296875 
Q 45.40625 37.203125 41.296875 42.84375 
Q 37.203125 48.484375 30.078125 48.484375 
Q 22.953125 48.484375 18.875 42.84375 
Q 14.796875 37.203125 14.796875 27.296875 
z
" id="DejaVuSans-100"/>
      </defs>
      <use xlink:href="#DejaVuSans-115"/>
      <use x="52.099609" xlink:href="#DejaVuSans-101"/>
      <use x="113.623047" xlink:href="#DejaVuSans-99"/>
      <use x="168.603516" xlink:href="#DejaVuSans-111"/>
      <use x="229.785156" xlink:href="#DejaVuSans-110"/>
      <use x="293.164062" xlink:href="#DejaVuSans-100"/>
      <use x="356.640625" xlink:href="#DejaVuSans-115"/>
     </g>
    </g>
   </g>
   <g id="matplotlib.axis_2">
    <g id="ytick_1">
     <g id="line2d_7">
      <defs>
       <path d="M 0 0 
L -3.5 0 
" id="m25d109ceae" style="stroke:#000000;stroke-width:0.8;"/>
      </defs>
      <g>
       <use style="stroke:#000000;stroke-width:0.8;" x="45" xlink:href="#m25d109ceae" y="307.8"/>
      </g>
     </g>
     <g id="text_8">
      <!-- 0 -->
      <g transform="translate(31.6375 311.599219)scale(0.1 -0.1)">
       <use xlink:href="#DejaVuSans-48"/>
      </g>
     </g>
    </g>
    <g id="ytick_2">
     <g id="line2d_8">
      <g>
       <use style="stroke:#000000;stroke-width:0.8;" x="45" xlink:href="#m25d109ceae" y="273.896222"/>
      </g>
     </g>
     <g id="text_9">
      <!-- 25 -->
      <g transform="translate(25.275 277.695441)scale(0.1 -0.1)">
       <use xlink:href="#DejaVuSans-50"/>
       <use x="63.623047" xlink:href="#DejaVuSans-53"/>
      </g>
     </g>
    </g>
    <g id="ytick_3">
     <g id="line2d_9">
      <g>
       <use style="stroke:#000000;stroke-width:0.8;" x="45" xlink:href="#m25d109ceae" y="239.992444"/>
      </g>
     </g>
     <g id="text_10">
      <!-- 50 -->
      <g transform="translate(25.275 243.791663)scale(0.1 -0.1)">
       <use xlink:href="#DejaVuSans-53"/>
       <use x="63.623047" xlink:href="#DejaVuSans-48"/>
      </g>
     </g>
    </g>
    <g id="ytick_4">
     <g id="line2d_10">
      <g>
       <use style="stroke:#000000;stroke-width:0.8;" x="45" xlink:href="#m25d109ceae" y="206.088666"/>
      </g>
     </g>
     <g id="text_11">
      <!-- 75 -->
      <g transform="translate(25.275 209.887885)scale(0.1 -0.1)">
       <defs>
        <path d="M 8.203125 72.90625 
L 55.078125 72.90625 
L 55.078125 68.703125 
L 28.609375 0 
L 18.3125 0 
L 43.21875 64.59375 
L 8.203125 64.59375 
z
" id="DejaVuSans-55"/>
       </defs>
       <use xlink:href="#DejaVuSans-55"/>
       <use x="63.623047" xlink:href="#DejaVuSans-53"/>
      </g>
     </g>
    </g>
    <g id="ytick_5">
     <g id="line2d_11">
      <g>
       <use style="stroke:#000000;stroke-width:0.8;" x="45" xlink:href="#m25d109ceae" y="172.184889"/>
      </g>
     </g>
     <g id="text_12">
      <!-- 100 -->
      <g transform="translate(18.9125 175.984107)scale(0.1 -0.1)">
       <use xlink:href="#DejaVuSans-49"/>
       <use x="63.623047" xlink:href="#DejaVuSans-48"/>
       <use x="127.246094" xlink:href="#DejaVuSans-48"/>
      </g>
     </g>
    </g>
    <g id="ytick_6">
     <g id="line2d_12">
      <g>
       <use style="stroke:#000000;stroke-width:0.8;" x="45" xlink:href="#m25d109ceae" y="138.281111"/>
      </g>
     </g>
     <g id="text_13">
      <!-- 125 -->
      <g transform="translate(18.9125 142.08033)scale(0.1 -0.1)">
       <use xlink:href="#DejaVuSans-49"/>
       <use x="63.623047" xlink:href="#DejaVuSans-50"/>
       <use x="127.246094" xlink:href="#DejaVuSans-53"/>
      </g>
     </g>
    </g>
    <g id="ytick_7">
     <g id="line2d_13">
      <g>
       <use style="stroke:#000000;stroke-width:0.8;" x="45" xlink:href="#m25d109ceae" y="104.377333"/>
      </g>
     </g>
     <g id="text_14">
      <!-- 150 -->
      <g transform="translate(18.9125 108.176552)scale(0.1 -0.1)">
       <use xlink:href="#DejaVuSans-49"/>
       <use x="63.623047" xlink:href="#DejaVuSans-53"/>
       <use x="127.246094" xlink:href="#DejaVuSans-48"/>
      </g>
     </g>
    </g>
    <g id="ytick_8">
     <g id="line2d_14">
      <g>
       <use style="stroke:#000000;stroke-width:0.8;" x="45" xlink:href="#m25d109ceae" y="70.473555"/>
      </g>
     </g>
     <g id="text_15">
      <!-- 175 -->
      <g transform="translate(18.9125 74.272774)scale(0.1 -0.1)">
       <use xlink:href="#DejaVuSans-49"/>
       <use x="63.623047" xlink:href="#DejaVuSans-55"/>
       <use x="127.246094" xlink:href="#DejaVuSans-53"/>
      </g>
     </g>
    </g>
    <g id="text_16">
     <!-- MB -->
     <g transform="translate(13.24875 187.995625)rotate(-90)scale(0.08 -0.08)">
      <defs>
       <path d="M 9.8125 72.90625 
L 24.515625 72.90625 
L 43.109375 23.296875 
L 61.8125 72.90625 
L 76.515625 72.90625 
L 76.515625 0 
L 66.890625 0 
L 66.890625 64.015625 
L 48.09375 14.015625 
L 38.1875 14.015625 
L 19.390625 64.015625 
L 19.390625 0 
L 9.8125 0 
z
" id="DejaVuSans-77"/>
       <path d="M 19.671875 34.8125 
L 19.671875 8.109375 
L 35.5 8.109375 
Q 43.453125 8.109375 47.28125 11.40625 
Q 51.125 14.703125 51.125 21.484375 
Q 51.125 28.328125 47.28125 31.5625 
Q 43.453125 34.8125 35.5 34.8125 
z
M 19.671875 64.796875 
L 19.671875 42.828125 
L 34.28125 42.828125 
Q 41.5 42.828125 45.03125 45.53125 
Q 48.578125 48.25 48.578125 53.8125 
Q 48.578125 59.328125 45.03125 62.0625 
Q 41.5 64.796875 34.28125 64.796875 
z
M 9.8125 72.90625 
L 35.015625 72.90625 
Q 46.296875 72.90625 52.390625 68.21875 
Q 58.5 63.53125 58.5 54.890625 
Q 58.5 48.1875 55.375 44.234375 
Q 52.25 40.28125 46.1875 39.3125 
Q 53.46875 37.75 57.5 32.78125 
Q 61.53125 27.828125 61.53125 20.40625 
Q 61.53125 10.640625 54.890625 5.3125 
Q 48.25 0 35.984375 0 
L 9.8125 0 
z
" id="DejaVuSans-66"/>
      </defs>
      <use xlink:href="#DejaVuSans-77"/>
      <use x="86.279297" xlink:href="#DejaVuSans-66"/>
     </g>
    </g>
   </g>
   <g id="line2d_15">
    <path clip-path="url(#p34c182082e)" d="M 57.681818 304.08993 
L 68.330673 304.08993 
L 71.234906 303.484147 
L 72.202984 303.356164 
L 73.171062 303.02341 
L 74.139139 303.006345 
L 78.01145 302.473085 
L 78.979528 302.461709 
L 79.947606 302.261203 
L 80.915684 302.251249 
L 81.883761 302.411938 
L 85.756072 302.345102 
L 87.692228 302.289643 
L 88.660305 302.11189 
L 89.628383 302.32235 
L 95.436849 302.339414 
L 96.404927 302.155973 
L 97.373005 302.328038 
L 98.341083 302.328038 
L 99.30916 302.150285 
L 100.277238 302.32235 
L 101.245316 302.140331 
L 102.213393 302.312396 
L 112.862248 302.289643 
L 113.830326 302.128954 
L 114.798404 302.306708 
L 116.734559 302.283955 
L 117.702637 302.11189 
L 118.670715 302.283955 
L 122.543026 302.312396 
L 126.415337 302.328038 
L 133.191881 302.400562 
L 134.159958 302.184413 
L 135.128036 302.356479 
L 138.032269 302.128954 
L 139.000347 302.306708 
L 140.936502 302.306708 
L 141.90458 302.134642 
L 142.872658 302.318084 
L 145.776891 302.379231 
L 153.521513 302.362167 
L 154.489591 302.167349 
L 155.457668 302.450333 
L 156.425746 302.411938 
L 157.393824 302.234184 
L 158.361901 302.373543 
L 175.7873 302.400562 
L 176.755378 302.222808 
L 177.723456 302.394873 
L 188.372311 302.417626 
L 189.340389 302.21712 
L 190.308466 302.389185 
L 194.180777 302.367855 
L 195.148855 302.178725 
L 196.116933 302.345102 
L 208.701943 302.373543 
L 210.638099 302.394873 
L 224.191187 302.283955 
L 229.999653 302.30102 
L 230.967731 302.117578 
L 231.935808 302.295332 
L 232.903886 302.289643 
L 233.871964 302.438956 
L 245.488897 302.40625 
L 246.456974 302.228496 
L 247.425052 302.228496 
L 248.39313 302.40625 
L 254.201596 302.356479 
L 255.169674 302.178725 
L 256.137752 302.350791 
L 269.69084 302.394873 
L 270.658917 302.222808 
L 271.626995 302.400562 
L 274.531228 302.394873 
L 275.499306 302.245561 
L 276.467384 302.423314 
L 277.435461 302.423314 
L 278.403539 302.245561 
L 279.371617 302.423314 
L 291.956627 302.438956 
L 292.924705 302.062119 
L 293.892783 302.379231 
L 294.860861 302.367855 
L 295.828938 302.167349 
L 296.797016 302.318084 
L 310.350104 302.389185 
L 311.318182 307.8 
L 311.318182 307.8 
" style="fill:none;stroke:#1f77b4;stroke-linecap:square;stroke-width:1.5;"/>
   </g>
   <g id="line2d_16">
    <path clip-path="url(#p34c182082e)" d="M 57.681818 178.656442 
L 68.330673 178.656442 
L 69.298751 167.546852 
L 70.266829 161.992057 
L 71.234906 139.772877 
L 72.202984 123.108492 
L 73.171062 117.407233 
L 74.139139 117.407233 
L 75.107217 100.742848 
L 76.075295 100.742848 
L 77.043373 95.188053 
L 78.01145 84.078463 
L 78.979528 78.523668 
L 79.947606 78.523668 
L 80.915684 56.304488 
L 246.456974 56.304488 
L 246.456974 56.304488 
" style="fill:none;stroke:#ff7f0e;stroke-linecap:square;stroke-width:1.5;"/>
   </g>
   <g id="line2d_17">
    <path clip-path="url(#p34c182082e)" d="M 57.681818 178.694414 
L 68.330673 178.694414 
L 69.298751 167.584824 
L 70.266829 162.030029 
L 71.234906 139.810849 
L 72.202984 123.146464 
L 73.171062 117.445205 
L 74.139139 100.78082 
L 75.107217 95.226025 
L 76.075295 84.116435 
L 77.043373 78.56164 
L 86.72415 78.56164 
L 87.692228 56.34246 
L 239.68043 56.34246 
L 239.68043 56.34246 
" style="fill:none;stroke:#2ca02c;stroke-linecap:square;stroke-width:1.5;"/>
   </g>
   <g id="line2d_18">
    <path clip-path="url(#p34c182082e)" d="M 57.681818 179.29112 
L 67.362595 179.29112 
L 68.330673 168.181531 
L 69.298751 162.626736 
L 70.266829 134.852761 
L 71.234906 123.743171 
L 72.202984 118.041912 
L 73.171062 101.377527 
L 74.139139 95.822732 
L 75.107217 84.713142 
L 76.075295 79.158347 
L 105.117627 79.158347 
L 106.085704 56.939167 
L 242.584663 56.939167 
L 242.584663 56.939167 
" style="fill:none;stroke:#d62728;stroke-linecap:square;stroke-width:1.5;"/>
   </g>
   <g id="line2d_19">
    <path clip-path="url(#p34c182082e)" d="M 57.681818 179.36164 
L 68.330673 179.36164 
L 69.298751 168.25205 
L 70.266829 162.697255 
L 71.234906 140.478076 
L 72.202984 134.923281 
L 73.171062 123.813691 
L 74.139139 118.258896 
L 75.107217 101.453471 
L 76.075295 95.898676 
L 77.043373 84.789086 
L 78.01145 79.234291 
L 96.404927 79.234291 
L 97.373005 57.015111 
L 236.776197 57.015111 
L 236.776197 57.015111 
" style="fill:none;stroke:#9467bd;stroke-linecap:square;stroke-width:1.5;"/>
   </g>
   <g id="line2d_20">
    <path clip-path="url(#p34c182082e)" d="M 57.681818 178.716112 
L 68.330673 178.716112 
L 69.298751 167.606522 
L 70.266829 162.051727 
L 71.234906 139.832548 
L 72.202984 123.168163 
L 73.171062 117.613368 
L 74.139139 100.807943 
L 75.107217 95.253148 
L 76.075295 84.143558 
L 77.043373 78.588763 
L 78.01145 56.369583 
L 230.967731 56.369583 
L 230.967731 56.369583 
" style="fill:none;stroke:#8c564b;stroke-linecap:square;stroke-width:1.5;"/>
   </g>
   <g id="line2d_21">
    <path clip-path="url(#p34c182082e)" d="M 57.681818 178.151954 
L 68.330673 178.151954 
L 69.298751 167.042364 
L 70.266829 161.487569 
L 71.234906 139.268389 
L 72.202984 133.713594 
L 74.139139 100.23836 
L 75.107217 94.683565 
L 76.075295 83.573975 
L 77.043373 78.01918 
L 81.883761 78.01918 
L 82.851839 55.8 
L 246.456974 55.8 
L 246.456974 55.8 
" style="fill:none;stroke:#e377c2;stroke-linecap:square;stroke-width:1.5;"/>
   </g>
   <g id="line2d_22"/>
   <g id="line2d_23"/>
   <g id="line2d_24"/>
   <g id="line2d_25"/>
   <g id="line2d_26"/>
   <g id="line2d_27"/>
   <g id="line2d_28"/>
   <g id="patch_3">
    <path d="M 45 320.4 
L 45 43.2 
" style="fill:none;stroke:#000000;stroke-linecap:square;stroke-linejoin:miter;stroke-width:0.8;"/>
   </g>
   <g id="patch_4">
    <path d="M 324 320.4 
L 324 43.2 
" style="fill:none;stroke:#000000;stroke-linecap:square;stroke-linejoin:miter;stroke-width:0.8;"/>
   </g>
   <g id="patch_5">
    <path d="M 45 320.4 
L 324 320.4 
" style="fill:none;stroke:#000000;stroke-linecap:square;stroke-linejoin:miter;stroke-width:0.8;"/>
   </g>
   <g id="patch_6">
    <path d="M 45 43.2 
L 324 43.2 
" style="fill:none;stroke:#000000;stroke-linecap:square;stroke-linejoin:miter;stroke-width:0.8;"/>
   </g>
   <g id="legend_1">
    <g id="patch_7">
     <path d="M 167.4875 235.507812 
L 317 235.507812 
Q 319 235.507812 319 233.507812 
L 319 130.092187 
Q 319 128.092187 317 128.092187 
L 167.4875 128.092187 
Q 165.4875 128.092187 165.4875 130.092187 
L 165.4875 233.507812 
Q 165.4875 235.507812 167.4875 235.507812 
z
" style="fill:#ffffff;opacity:0.8;stroke:#cccccc;stroke-linejoin:miter;"/>
    </g>
    <g id="line2d_29">
     <path d="M 169.4875 136.190625 
L 189.4875 136.190625 
" style="fill:none;stroke:#1f77b4;stroke-linecap:square;stroke-width:1.5;"/>
    </g>
    <g id="line2d_30"/>
    <g id="text_17">
     <!-- docker -->
     <g transform="translate(197.4875 139.690625)scale(0.1 -0.1)">
      <defs>
       <path d="M 9.078125 75.984375 
L 18.109375 75.984375 
L 18.109375 31.109375 
L 44.921875 54.6875 
L 56.390625 54.6875 
L 27.390625 29.109375 
L 57.625 0 
L 45.90625 0 
L 18.109375 26.703125 
L 18.109375 0 
L 9.078125 0 
z
" id="DejaVuSans-107"/>
       <path d="M 41.109375 46.296875 
Q 39.59375 47.171875 37.8125 47.578125 
Q 36.03125 48 33.890625 48 
Q 26.265625 48 22.1875 43.046875 
Q 18.109375 38.09375 18.109375 28.8125 
L 18.109375 0 
L 9.078125 0 
L 9.078125 54.6875 
L 18.109375 54.6875 
L 18.109375 46.1875 
Q 20.953125 51.171875 25.484375 53.578125 
Q 30.03125 56 36.53125 56 
Q 37.453125 56 38.578125 55.875 
Q 39.703125 55.765625 41.0625 55.515625 
z
" id="DejaVuSans-114"/>
      </defs>
      <use xlink:href="#DejaVuSans-100"/>
      <use x="63.476562" xlink:href="#DejaVuSans-111"/>
      <use x="124.658203" xlink:href="#DejaVuSans-99"/>
      <use x="179.638672" xlink:href="#DejaVuSans-107"/>
      <use x="233.923828" xlink:href="#DejaVuSans-101"/>
      <use x="295.447266" xlink:href="#DejaVuSans-114"/>
     </g>
    </g>
    <g id="line2d_31">
     <path d="M 169.4875 150.86875 
L 189.4875 150.86875 
" style="fill:none;stroke:#ff7f0e;stroke-linecap:square;stroke-width:1.5;"/>
    </g>
    <g id="line2d_32"/>
    <g id="text_18">
     <!-- unikernel_allocpool -->
     <g transform="translate(197.4875 154.36875)scale(0.1 -0.1)">
      <defs>
       <path d="M 8.5 21.578125 
L 8.5 54.6875 
L 17.484375 54.6875 
L 17.484375 21.921875 
Q 17.484375 14.15625 20.5 10.265625 
Q 23.53125 6.390625 29.59375 6.390625 
Q 36.859375 6.390625 41.078125 11.03125 
Q 45.3125 15.671875 45.3125 23.6875 
L 45.3125 54.6875 
L 54.296875 54.6875 
L 54.296875 0 
L 45.3125 0 
L 45.3125 8.40625 
Q 42.046875 3.421875 37.71875 1 
Q 33.40625 -1.421875 27.6875 -1.421875 
Q 18.265625 -1.421875 13.375 4.4375 
Q 8.5 10.296875 8.5 21.578125 
z
M 31.109375 56 
z
" id="DejaVuSans-117"/>
       <path d="M 9.421875 54.6875 
L 18.40625 54.6875 
L 18.40625 0 
L 9.421875 0 
z
M 9.421875 75.984375 
L 18.40625 75.984375 
L 18.40625 64.59375 
L 9.421875 64.59375 
z
" id="DejaVuSans-105"/>
       <path d="M 9.421875 75.984375 
L 18.40625 75.984375 
L 18.40625 0 
L 9.421875 0 
z
" id="DejaVuSans-108"/>
       <path d="M 50.984375 -16.609375 
L 50.984375 -23.578125 
L -0.984375 -23.578125 
L -0.984375 -16.609375 
z
" id="DejaVuSans-95"/>
       <path d="M 34.28125 27.484375 
Q 23.390625 27.484375 19.1875 25 
Q 14.984375 22.515625 14.984375 16.5 
Q 14.984375 11.71875 18.140625 8.90625 
Q 21.296875 6.109375 26.703125 6.109375 
Q 34.1875 6.109375 38.703125 11.40625 
Q 43.21875 16.703125 43.21875 25.484375 
L 43.21875 27.484375 
z
M 52.203125 31.203125 
L 52.203125 0 
L 43.21875 0 
L 43.21875 8.296875 
Q 40.140625 3.328125 35.546875 0.953125 
Q 30.953125 -1.421875 24.3125 -1.421875 
Q 15.921875 -1.421875 10.953125 3.296875 
Q 6 8.015625 6 15.921875 
Q 6 25.140625 12.171875 29.828125 
Q 18.359375 34.515625 30.609375 34.515625 
L 43.21875 34.515625 
L 43.21875 35.40625 
Q 43.21875 41.609375 39.140625 45 
Q 35.0625 48.390625 27.6875 48.390625 
Q 23 48.390625 18.546875 47.265625 
Q 14.109375 46.140625 10.015625 43.890625 
L 10.015625 52.203125 
Q 14.9375 54.109375 19.578125 55.046875 
Q 24.21875 56 28.609375 56 
Q 40.484375 56 46.34375 49.84375 
Q 52.203125 43.703125 52.203125 31.203125 
z
" id="DejaVuSans-97"/>
       <path d="M 18.109375 8.203125 
L 18.109375 -20.796875 
L 9.078125 -20.796875 
L 9.078125 54.6875 
L 18.109375 54.6875 
L 18.109375 46.390625 
Q 20.953125 51.265625 25.265625 53.625 
Q 29.59375 56 35.59375 56 
Q 45.5625 56 51.78125 48.09375 
Q 58.015625 40.1875 58.015625 27.296875 
Q 58.015625 14.40625 51.78125 6.484375 
Q 45.5625 -1.421875 35.59375 -1.421875 
Q 29.59375 -1.421875 25.265625 0.953125 
Q 20.953125 3.328125 18.109375 8.203125 
z
M 48.6875 27.296875 
Q 48.6875 37.203125 44.609375 42.84375 
Q 40.53125 48.484375 33.40625 48.484375 
Q 26.265625 48.484375 22.1875 42.84375 
Q 18.109375 37.203125 18.109375 27.296875 
Q 18.109375 17.390625 22.1875 11.75 
Q 26.265625 6.109375 33.40625 6.109375 
Q 40.53125 6.109375 44.609375 11.75 
Q 48.6875 17.390625 48.6875 27.296875 
z
" id="DejaVuSans-112"/>
      </defs>
      <use xlink:href="#DejaVuSans-117"/>
      <use x="63.378906" xlink:href="#DejaVuSans-110"/>
      <use x="126.757812" xlink:href="#DejaVuSans-105"/>
      <use x="154.541016" xlink:href="#DejaVuSans-107"/>
      <use x="208.826172" xlink:href="#DejaVuSans-101"/>
      <use x="270.349609" xlink:href="#DejaVuSans-114"/>
      <use x="309.712891" xlink:href="#DejaVuSans-110"/>
      <use x="373.091797" xlink:href="#DejaVuSans-101"/>
      <use x="434.615234" xlink:href="#DejaVuSans-108"/>
      <use x="462.398438" xlink:href="#DejaVuSans-95"/>
      <use x="512.398438" xlink:href="#DejaVuSans-97"/>
      <use x="573.677734" xlink:href="#DejaVuSans-108"/>
      <use x="601.460938" xlink:href="#DejaVuSans-108"/>
      <use x="629.244141" xlink:href="#DejaVuSans-111"/>
      <use x="690.425781" xlink:href="#DejaVuSans-99"/>
      <use x="745.40625" xlink:href="#DejaVuSans-112"/>
      <use x="808.882812" xlink:href="#DejaVuSans-111"/>
      <use x="870.064453" xlink:href="#DejaVuSans-111"/>
      <use x="931.246094" xlink:href="#DejaVuSans-108"/>
     </g>
    </g>
    <g id="line2d_33">
     <path d="M 169.4875 165.825 
L 189.4875 165.825 
" style="fill:none;stroke:#2ca02c;stroke-linecap:square;stroke-width:1.5;"/>
    </g>
    <g id="line2d_34"/>
    <g id="text_19">
     <!-- unikernel_base -->
     <g transform="translate(197.4875 169.325)scale(0.1 -0.1)">
      <defs>
       <path d="M 48.6875 27.296875 
Q 48.6875 37.203125 44.609375 42.84375 
Q 40.53125 48.484375 33.40625 48.484375 
Q 26.265625 48.484375 22.1875 42.84375 
Q 18.109375 37.203125 18.109375 27.296875 
Q 18.109375 17.390625 22.1875 11.75 
Q 26.265625 6.109375 33.40625 6.109375 
Q 40.53125 6.109375 44.609375 11.75 
Q 48.6875 17.390625 48.6875 27.296875 
z
M 18.109375 46.390625 
Q 20.953125 51.265625 25.265625 53.625 
Q 29.59375 56 35.59375 56 
Q 45.5625 56 51.78125 48.09375 
Q 58.015625 40.1875 58.015625 27.296875 
Q 58.015625 14.40625 51.78125 6.484375 
Q 45.5625 -1.421875 35.59375 -1.421875 
Q 29.59375 -1.421875 25.265625 0.953125 
Q 20.953125 3.328125 18.109375 8.203125 
L 18.109375 0 
L 9.078125 0 
L 9.078125 75.984375 
L 18.109375 75.984375 
z
" id="DejaVuSans-98"/>
      </defs>
      <use xlink:href="#DejaVuSans-117"/>
      <use x="63.378906" xlink:href="#DejaVuSans-110"/>
      <use x="126.757812" xlink:href="#DejaVuSans-105"/>
      <use x="154.541016" xlink:href="#DejaVuSans-107"/>
      <use x="208.826172" xlink:href="#DejaVuSans-101"/>
      <use x="270.349609" xlink:href="#DejaVuSans-114"/>
      <use x="309.712891" xlink:href="#DejaVuSans-110"/>
      <use x="373.091797" xlink:href="#DejaVuSans-101"/>
      <use x="434.615234" xlink:href="#DejaVuSans-108"/>
      <use x="462.398438" xlink:href="#DejaVuSans-95"/>
      <use x="512.398438" xlink:href="#DejaVuSans-98"/>
      <use x="575.875" xlink:href="#DejaVuSans-97"/>
      <use x="637.154297" xlink:href="#DejaVuSans-115"/>
      <use x="689.253906" xlink:href="#DejaVuSans-101"/>
     </g>
    </g>
    <g id="line2d_35">
     <path d="M 169.4875 180.78125 
L 189.4875 180.78125 
" style="fill:none;stroke:#d62728;stroke-linecap:square;stroke-width:1.5;"/>
    </g>
    <g id="line2d_36"/>
    <g id="text_20">
     <!-- unikernel_dce -->
     <g transform="translate(197.4875 184.28125)scale(0.1 -0.1)">
      <use xlink:href="#DejaVuSans-117"/>
      <use x="63.378906" xlink:href="#DejaVuSans-110"/>
      <use x="126.757812" xlink:href="#DejaVuSans-105"/>
      <use x="154.541016" xlink:href="#DejaVuSans-107"/>
      <use x="208.826172" xlink:href="#DejaVuSans-101"/>
      <use x="270.349609" xlink:href="#DejaVuSans-114"/>
      <use x="309.712891" xlink:href="#DejaVuSans-110"/>
      <use x="373.091797" xlink:href="#DejaVuSans-101"/>
      <use x="434.615234" xlink:href="#DejaVuSans-108"/>
      <use x="462.398438" xlink:href="#DejaVuSans-95"/>
      <use x="512.398438" xlink:href="#DejaVuSans-100"/>
      <use x="575.875" xlink:href="#DejaVuSans-99"/>
      <use x="630.855469" xlink:href="#DejaVuSans-101"/>
     </g>
    </g>
    <g id="line2d_37">
     <path d="M 169.4875 195.7375 
L 189.4875 195.7375 
" style="fill:none;stroke:#9467bd;stroke-linecap:square;stroke-width:1.5;"/>
    </g>
    <g id="line2d_38"/>
    <g id="text_21">
     <!-- unikernel_dce-allocpool -->
     <g transform="translate(197.4875 199.2375)scale(0.1 -0.1)">
      <defs>
       <path d="M 4.890625 31.390625 
L 31.203125 31.390625 
L 31.203125 23.390625 
L 4.890625 23.390625 
z
" id="DejaVuSans-45"/>
      </defs>
      <use xlink:href="#DejaVuSans-117"/>
      <use x="63.378906" xlink:href="#DejaVuSans-110"/>
      <use x="126.757812" xlink:href="#DejaVuSans-105"/>
      <use x="154.541016" xlink:href="#DejaVuSans-107"/>
      <use x="208.826172" xlink:href="#DejaVuSans-101"/>
      <use x="270.349609" xlink:href="#DejaVuSans-114"/>
      <use x="309.712891" xlink:href="#DejaVuSans-110"/>
      <use x="373.091797" xlink:href="#DejaVuSans-101"/>
      <use x="434.615234" xlink:href="#DejaVuSans-108"/>
      <use x="462.398438" xlink:href="#DejaVuSans-95"/>
      <use x="512.398438" xlink:href="#DejaVuSans-100"/>
      <use x="575.875" xlink:href="#DejaVuSans-99"/>
      <use x="630.855469" xlink:href="#DejaVuSans-101"/>
      <use x="692.378906" xlink:href="#DejaVuSans-45"/>
      <use x="728.462891" xlink:href="#DejaVuSans-97"/>
      <use x="789.742188" xlink:href="#DejaVuSans-108"/>
      <use x="817.525391" xlink:href="#DejaVuSans-108"/>
      <use x="845.308594" xlink:href="#DejaVuSans-111"/>
      <use x="906.490234" xlink:href="#DejaVuSans-99"/>
      <use x="961.470703" xlink:href="#DejaVuSans-112"/>
      <use x="1024.947266" xlink:href="#DejaVuSans-111"/>
      <use x="1086.128906" xlink:href="#DejaVuSans-111"/>
      <use x="1147.310547" xlink:href="#DejaVuSans-108"/>
     </g>
    </g>
    <g id="line2d_39">
     <path d="M 169.4875 210.69375 
L 189.4875 210.69375 
" style="fill:none;stroke:#8c564b;stroke-linecap:square;stroke-width:1.5;"/>
    </g>
    <g id="line2d_40"/>
    <g id="text_22">
     <!-- unikernel_falloc -->
     <g transform="translate(197.4875 214.19375)scale(0.1 -0.1)">
      <defs>
       <path d="M 37.109375 75.984375 
L 37.109375 68.5 
L 28.515625 68.5 
Q 23.6875 68.5 21.796875 66.546875 
Q 19.921875 64.59375 19.921875 59.515625 
L 19.921875 54.6875 
L 34.71875 54.6875 
L 34.71875 47.703125 
L 19.921875 47.703125 
L 19.921875 0 
L 10.890625 0 
L 10.890625 47.703125 
L 2.296875 47.703125 
L 2.296875 54.6875 
L 10.890625 54.6875 
L 10.890625 58.5 
Q 10.890625 67.625 15.140625 71.796875 
Q 19.390625 75.984375 28.609375 75.984375 
z
" id="DejaVuSans-102"/>
      </defs>
      <use xlink:href="#DejaVuSans-117"/>
      <use x="63.378906" xlink:href="#DejaVuSans-110"/>
      <use x="126.757812" xlink:href="#DejaVuSans-105"/>
      <use x="154.541016" xlink:href="#DejaVuSans-107"/>
      <use x="208.826172" xlink:href="#DejaVuSans-101"/>
      <use x="270.349609" xlink:href="#DejaVuSans-114"/>
      <use x="309.712891" xlink:href="#DejaVuSans-110"/>
      <use x="373.091797" xlink:href="#DejaVuSans-101"/>
      <use x="434.615234" xlink:href="#DejaVuSans-108"/>
      <use x="462.398438" xlink:href="#DejaVuSans-95"/>
      <use x="512.398438" xlink:href="#DejaVuSans-102"/>
      <use x="547.603516" xlink:href="#DejaVuSans-97"/>
      <use x="608.882812" xlink:href="#DejaVuSans-108"/>
      <use x="636.666016" xlink:href="#DejaVuSans-108"/>
      <use x="664.449219" xlink:href="#DejaVuSans-111"/>
      <use x="725.630859" xlink:href="#DejaVuSans-99"/>
     </g>
    </g>
    <g id="line2d_41">
     <path d="M 169.4875 225.65 
L 189.4875 225.65 
" style="fill:none;stroke:#e377c2;stroke-linecap:square;stroke-width:1.5;"/>
    </g>
    <g id="line2d_42"/>
    <g id="text_23">
     <!-- unikernel_fbuddyalloc -->
     <g transform="translate(197.4875 229.15)scale(0.1 -0.1)">
      <defs>
       <path d="M 32.171875 -5.078125 
Q 28.375 -14.84375 24.75 -17.8125 
Q 21.140625 -20.796875 15.09375 -20.796875 
L 7.90625 -20.796875 
L 7.90625 -13.28125 
L 13.1875 -13.28125 
Q 16.890625 -13.28125 18.9375 -11.515625 
Q 21 -9.765625 23.484375 -3.21875 
L 25.09375 0.875 
L 2.984375 54.6875 
L 12.5 54.6875 
L 29.59375 11.921875 
L 46.6875 54.6875 
L 56.203125 54.6875 
z
" id="DejaVuSans-121"/>
      </defs>
      <use xlink:href="#DejaVuSans-117"/>
      <use x="63.378906" xlink:href="#DejaVuSans-110"/>
      <use x="126.757812" xlink:href="#DejaVuSans-105"/>
      <use x="154.541016" xlink:href="#DejaVuSans-107"/>
      <use x="208.826172" xlink:href="#DejaVuSans-101"/>
      <use x="270.349609" xlink:href="#DejaVuSans-114"/>
      <use x="309.712891" xlink:href="#DejaVuSans-110"/>
      <use x="373.091797" xlink:href="#DejaVuSans-101"/>
      <use x="434.615234" xlink:href="#DejaVuSans-108"/>
      <use x="462.398438" xlink:href="#DejaVuSans-95"/>
      <use x="512.398438" xlink:href="#DejaVuSans-102"/>
      <use x="547.603516" xlink:href="#DejaVuSans-98"/>
      <use x="611.080078" xlink:href="#DejaVuSans-117"/>
      <use x="674.458984" xlink:href="#DejaVuSans-100"/>
      <use x="737.935547" xlink:href="#DejaVuSans-100"/>
      <use x="801.412109" xlink:href="#DejaVuSans-121"/>
      <use x="860.591797" xlink:href="#DejaVuSans-97"/>
      <use x="921.871094" xlink:href="#DejaVuSans-108"/>
      <use x="949.654297" xlink:href="#DejaVuSans-108"/>
      <use x="977.4375" xlink:href="#DejaVuSans-111"/>
      <use x="1038.619141" xlink:href="#DejaVuSans-99"/>
     </g>
    </g>
   </g>
  </g>
 </g>
 <defs>
  <clipPath id="p34c182082e">
   <rect height="277.2" width="279" x="45" y="43.2"/>
  </clipPath>
 </defs>
</svg>
