<?xml version="1.0" encoding="utf-8" standalone="no"?>
<!DOCTYPE svg PUBLIC "-//W3C//DTD SVG 1.1//EN"
  "http://www.w3.org/Graphics/SVG/1.1/DTD/svg11.dtd">
<!-- Created with matplotlib (https://matplotlib.org/) -->
<svg height="504pt" version="1.1" viewBox="0 0 864 504" width="864pt" xmlns="http://www.w3.org/2000/svg" xmlns:xlink="http://www.w3.org/1999/xlink">
 <metadata>
  <rdf:RDF xmlns:cc="http://creativecommons.org/ns#" xmlns:dc="http://purl.org/dc/elements/1.1/" xmlns:rdf="http://www.w3.org/1999/02/22-rdf-syntax-ns#">
   <cc:Work>
    <dc:type rdf:resource="http://purl.org/dc/dcmitype/StillImage"/>
    <dc:date>2022-05-29T17:09:28.112082</dc:date>
    <dc:format>image/svg+xml</dc:format>
    <dc:creator>
     <cc:Agent>
      <dc:title>Matplotlib v3.3.4, https://matplotlib.org/</dc:title>
     </cc:Agent>
    </dc:creator>
   </cc:Work>
  </rdf:RDF>
 </metadata>
 <defs>
  <style type="text/css">*{stroke-linecap:butt;stroke-linejoin:round;}</style>
 </defs>
 <g id="figure_1">
  <g id="patch_1">
   <path d="M 0 504 
L 864 504 
L 864 0 
L 0 0 
z
" style="fill:#ffffff;"/>
  </g>
  <g id="axes_1">
   <g id="patch_2">
    <path d="M 108 448.56 
L 643.68 448.56 
L 643.68 60.48 
L 108 60.48 
z
" style="fill:#ffffff;"/>
   </g>
   <g id="matplotlib.axis_1">
    <g id="xtick_1">
     <g id="line2d_1">
      <defs>
       <path d="M 0 0 
L 0 3.5 
" id="m8e488bce92" style="stroke:#000000;stroke-width:0.8;"/>
      </defs>
      <g>
       <use style="stroke:#000000;stroke-width:0.8;" x="132.349091" xlink:href="#m8e488bce92" y="448.56"/>
      </g>
     </g>
     <g id="text_1">
      <!-- 14:57:53 -->
      <g transform="translate(135.108466 500.4725)rotate(-90)scale(0.1 -0.1)">
       <defs>
        <path d="M 12.40625 8.296875 
L 28.515625 8.296875 
L 28.515625 63.921875 
L 10.984375 60.40625 
L 10.984375 69.390625 
L 28.421875 72.90625 
L 38.28125 72.90625 
L 38.28125 8.296875 
L 54.390625 8.296875 
L 54.390625 0 
L 12.40625 0 
z
" id="DejaVuSans-49"/>
        <path d="M 37.796875 64.3125 
L 12.890625 25.390625 
L 37.796875 25.390625 
z
M 35.203125 72.90625 
L 47.609375 72.90625 
L 47.609375 25.390625 
L 58.015625 25.390625 
L 58.015625 17.1875 
L 47.609375 17.1875 
L 47.609375 0 
L 37.796875 0 
L 37.796875 17.1875 
L 4.890625 17.1875 
L 4.890625 26.703125 
z
" id="DejaVuSans-52"/>
        <path d="M 11.71875 12.40625 
L 22.015625 12.40625 
L 22.015625 0 
L 11.71875 0 
z
M 11.71875 51.703125 
L 22.015625 51.703125 
L 22.015625 39.3125 
L 11.71875 39.3125 
z
" id="DejaVuSans-58"/>
        <path d="M 10.796875 72.90625 
L 49.515625 72.90625 
L 49.515625 64.59375 
L 19.828125 64.59375 
L 19.828125 46.734375 
Q 21.96875 47.46875 24.109375 47.828125 
Q 26.265625 48.1875 28.421875 48.1875 
Q 40.625 48.1875 47.75 41.5 
Q 54.890625 34.8125 54.890625 23.390625 
Q 54.890625 11.625 47.5625 5.09375 
Q 40.234375 -1.421875 26.90625 -1.421875 
Q 22.3125 -1.421875 17.546875 -0.640625 
Q 12.796875 0.140625 7.71875 1.703125 
L 7.71875 11.625 
Q 12.109375 9.234375 16.796875 8.0625 
Q 21.484375 6.890625 26.703125 6.890625 
Q 35.15625 6.890625 40.078125 11.328125 
Q 45.015625 15.765625 45.015625 23.390625 
Q 45.015625 31 40.078125 35.4375 
Q 35.15625 39.890625 26.703125 39.890625 
Q 22.75 39.890625 18.8125 39.015625 
Q 14.890625 38.140625 10.796875 36.28125 
z
" id="DejaVuSans-53"/>
        <path d="M 8.203125 72.90625 
L 55.078125 72.90625 
L 55.078125 68.703125 
L 28.609375 0 
L 18.3125 0 
L 43.21875 64.59375 
L 8.203125 64.59375 
z
" id="DejaVuSans-55"/>
        <path d="M 40.578125 39.3125 
Q 47.65625 37.796875 51.625 33 
Q 55.609375 28.21875 55.609375 21.1875 
Q 55.609375 10.40625 48.1875 4.484375 
Q 40.765625 -1.421875 27.09375 -1.421875 
Q 22.515625 -1.421875 17.65625 -0.515625 
Q 12.796875 0.390625 7.625 2.203125 
L 7.625 11.71875 
Q 11.71875 9.328125 16.59375 8.109375 
Q 21.484375 6.890625 26.8125 6.890625 
Q 36.078125 6.890625 40.9375 10.546875 
Q 45.796875 14.203125 45.796875 21.1875 
Q 45.796875 27.640625 41.28125 31.265625 
Q 36.765625 34.90625 28.71875 34.90625 
L 20.21875 34.90625 
L 20.21875 43.015625 
L 29.109375 43.015625 
Q 36.375 43.015625 40.234375 45.921875 
Q 44.09375 48.828125 44.09375 54.296875 
Q 44.09375 59.90625 40.109375 62.90625 
Q 36.140625 65.921875 28.71875 65.921875 
Q 24.65625 65.921875 20.015625 65.03125 
Q 15.375 64.15625 9.8125 62.3125 
L 9.8125 71.09375 
Q 15.4375 72.65625 20.34375 73.4375 
Q 25.25 74.21875 29.59375 74.21875 
Q 40.828125 74.21875 47.359375 69.109375 
Q 53.90625 64.015625 53.90625 55.328125 
Q 53.90625 49.265625 50.4375 45.09375 
Q 46.96875 40.921875 40.578125 39.3125 
z
" id="DejaVuSans-51"/>
       </defs>
       <use xlink:href="#DejaVuSans-49"/>
       <use x="63.623047" xlink:href="#DejaVuSans-52"/>
       <use x="127.246094" xlink:href="#DejaVuSans-58"/>
       <use x="160.9375" xlink:href="#DejaVuSans-53"/>
       <use x="224.560547" xlink:href="#DejaVuSans-55"/>
       <use x="288.183594" xlink:href="#DejaVuSans-58"/>
       <use x="321.875" xlink:href="#DejaVuSans-53"/>
       <use x="385.498047" xlink:href="#DejaVuSans-51"/>
      </g>
     </g>
    </g>
    <g id="xtick_2">
     <g id="line2d_2">
      <g>
       <use style="stroke:#000000;stroke-width:0.8;" x="156.684811" xlink:href="#m8e488bce92" y="448.56"/>
      </g>
     </g>
     <g id="text_2">
      <!-- 14:59:42 -->
      <g transform="translate(159.444186 500.4725)rotate(-90)scale(0.1 -0.1)">
       <defs>
        <path d="M 10.984375 1.515625 
L 10.984375 10.5 
Q 14.703125 8.734375 18.5 7.8125 
Q 22.3125 6.890625 25.984375 6.890625 
Q 35.75 6.890625 40.890625 13.453125 
Q 46.046875 20.015625 46.78125 33.40625 
Q 43.953125 29.203125 39.59375 26.953125 
Q 35.25 24.703125 29.984375 24.703125 
Q 19.046875 24.703125 12.671875 31.3125 
Q 6.296875 37.9375 6.296875 49.421875 
Q 6.296875 60.640625 12.9375 67.421875 
Q 19.578125 74.21875 30.609375 74.21875 
Q 43.265625 74.21875 49.921875 64.515625 
Q 56.59375 54.828125 56.59375 36.375 
Q 56.59375 19.140625 48.40625 8.859375 
Q 40.234375 -1.421875 26.421875 -1.421875 
Q 22.703125 -1.421875 18.890625 -0.6875 
Q 15.09375 0.046875 10.984375 1.515625 
z
M 30.609375 32.421875 
Q 37.25 32.421875 41.125 36.953125 
Q 45.015625 41.5 45.015625 49.421875 
Q 45.015625 57.28125 41.125 61.84375 
Q 37.25 66.40625 30.609375 66.40625 
Q 23.96875 66.40625 20.09375 61.84375 
Q 16.21875 57.28125 16.21875 49.421875 
Q 16.21875 41.5 20.09375 36.953125 
Q 23.96875 32.421875 30.609375 32.421875 
z
" id="DejaVuSans-57"/>
        <path d="M 19.1875 8.296875 
L 53.609375 8.296875 
L 53.609375 0 
L 7.328125 0 
L 7.328125 8.296875 
Q 12.9375 14.109375 22.625 23.890625 
Q 32.328125 33.6875 34.8125 36.53125 
Q 39.546875 41.84375 41.421875 45.53125 
Q 43.3125 49.21875 43.3125 52.78125 
Q 43.3125 58.59375 39.234375 62.25 
Q 35.15625 65.921875 28.609375 65.921875 
Q 23.96875 65.921875 18.8125 64.3125 
Q 13.671875 62.703125 7.8125 59.421875 
L 7.8125 69.390625 
Q 13.765625 71.78125 18.9375 73 
Q 24.125 74.21875 28.421875 74.21875 
Q 39.75 74.21875 46.484375 68.546875 
Q 53.21875 62.890625 53.21875 53.421875 
Q 53.21875 48.921875 51.53125 44.890625 
Q 49.859375 40.875 45.40625 35.40625 
Q 44.1875 33.984375 37.640625 27.21875 
Q 31.109375 20.453125 19.1875 8.296875 
z
" id="DejaVuSans-50"/>
       </defs>
       <use xlink:href="#DejaVuSans-49"/>
       <use x="63.623047" xlink:href="#DejaVuSans-52"/>
       <use x="127.246094" xlink:href="#DejaVuSans-58"/>
       <use x="160.9375" xlink:href="#DejaVuSans-53"/>
       <use x="224.560547" xlink:href="#DejaVuSans-57"/>
       <use x="288.183594" xlink:href="#DejaVuSans-58"/>
       <use x="321.875" xlink:href="#DejaVuSans-52"/>
       <use x="385.498047" xlink:href="#DejaVuSans-50"/>
      </g>
     </g>
    </g>
    <g id="xtick_3">
     <g id="line2d_3">
      <g>
       <use style="stroke:#000000;stroke-width:0.8;" x="181.02053" xlink:href="#m8e488bce92" y="448.56"/>
      </g>
     </g>
     <g id="text_3">
      <!-- 15:01:31 -->
      <g transform="translate(183.779905 500.4725)rotate(-90)scale(0.1 -0.1)">
       <defs>
        <path d="M 31.78125 66.40625 
Q 24.171875 66.40625 20.328125 58.90625 
Q 16.5 51.421875 16.5 36.375 
Q 16.5 21.390625 20.328125 13.890625 
Q 24.171875 6.390625 31.78125 6.390625 
Q 39.453125 6.390625 43.28125 13.890625 
Q 47.125 21.390625 47.125 36.375 
Q 47.125 51.421875 43.28125 58.90625 
Q 39.453125 66.40625 31.78125 66.40625 
z
M 31.78125 74.21875 
Q 44.046875 74.21875 50.515625 64.515625 
Q 56.984375 54.828125 56.984375 36.375 
Q 56.984375 17.96875 50.515625 8.265625 
Q 44.046875 -1.421875 31.78125 -1.421875 
Q 19.53125 -1.421875 13.0625 8.265625 
Q 6.59375 17.96875 6.59375 36.375 
Q 6.59375 54.828125 13.0625 64.515625 
Q 19.53125 74.21875 31.78125 74.21875 
z
" id="DejaVuSans-48"/>
       </defs>
       <use xlink:href="#DejaVuSans-49"/>
       <use x="63.623047" xlink:href="#DejaVuSans-53"/>
       <use x="127.246094" xlink:href="#DejaVuSans-58"/>
       <use x="160.9375" xlink:href="#DejaVuSans-48"/>
       <use x="224.560547" xlink:href="#DejaVuSans-49"/>
       <use x="288.183594" xlink:href="#DejaVuSans-58"/>
       <use x="321.875" xlink:href="#DejaVuSans-51"/>
       <use x="385.498047" xlink:href="#DejaVuSans-49"/>
      </g>
     </g>
    </g>
    <g id="xtick_4">
     <g id="line2d_4">
      <g>
       <use style="stroke:#000000;stroke-width:0.8;" x="205.35625" xlink:href="#m8e488bce92" y="448.56"/>
      </g>
     </g>
     <g id="text_4">
      <!-- 15:03:20 -->
      <g transform="translate(208.115625 500.4725)rotate(-90)scale(0.1 -0.1)">
       <use xlink:href="#DejaVuSans-49"/>
       <use x="63.623047" xlink:href="#DejaVuSans-53"/>
       <use x="127.246094" xlink:href="#DejaVuSans-58"/>
       <use x="160.9375" xlink:href="#DejaVuSans-48"/>
       <use x="224.560547" xlink:href="#DejaVuSans-51"/>
       <use x="288.183594" xlink:href="#DejaVuSans-58"/>
       <use x="321.875" xlink:href="#DejaVuSans-50"/>
       <use x="385.498047" xlink:href="#DejaVuSans-48"/>
      </g>
     </g>
    </g>
    <g id="xtick_5">
     <g id="line2d_5">
      <g>
       <use style="stroke:#000000;stroke-width:0.8;" x="229.691969" xlink:href="#m8e488bce92" y="448.56"/>
      </g>
     </g>
     <g id="text_5">
      <!-- 15:05:09 -->
      <g transform="translate(232.451344 500.4725)rotate(-90)scale(0.1 -0.1)">
       <use xlink:href="#DejaVuSans-49"/>
       <use x="63.623047" xlink:href="#DejaVuSans-53"/>
       <use x="127.246094" xlink:href="#DejaVuSans-58"/>
       <use x="160.9375" xlink:href="#DejaVuSans-48"/>
       <use x="224.560547" xlink:href="#DejaVuSans-53"/>
       <use x="288.183594" xlink:href="#DejaVuSans-58"/>
       <use x="321.875" xlink:href="#DejaVuSans-48"/>
       <use x="385.498047" xlink:href="#DejaVuSans-57"/>
      </g>
     </g>
    </g>
    <g id="xtick_6">
     <g id="line2d_6">
      <g>
       <use style="stroke:#000000;stroke-width:0.8;" x="254.027689" xlink:href="#m8e488bce92" y="448.56"/>
      </g>
     </g>
     <g id="text_6">
      <!-- 15:06:57 -->
      <g transform="translate(256.787064 500.4725)rotate(-90)scale(0.1 -0.1)">
       <defs>
        <path d="M 33.015625 40.375 
Q 26.375 40.375 22.484375 35.828125 
Q 18.609375 31.296875 18.609375 23.390625 
Q 18.609375 15.53125 22.484375 10.953125 
Q 26.375 6.390625 33.015625 6.390625 
Q 39.65625 6.390625 43.53125 10.953125 
Q 47.40625 15.53125 47.40625 23.390625 
Q 47.40625 31.296875 43.53125 35.828125 
Q 39.65625 40.375 33.015625 40.375 
z
M 52.59375 71.296875 
L 52.59375 62.3125 
Q 48.875 64.0625 45.09375 64.984375 
Q 41.3125 65.921875 37.59375 65.921875 
Q 27.828125 65.921875 22.671875 59.328125 
Q 17.53125 52.734375 16.796875 39.40625 
Q 19.671875 43.65625 24.015625 45.921875 
Q 28.375 48.1875 33.59375 48.1875 
Q 44.578125 48.1875 50.953125 41.515625 
Q 57.328125 34.859375 57.328125 23.390625 
Q 57.328125 12.15625 50.6875 5.359375 
Q 44.046875 -1.421875 33.015625 -1.421875 
Q 20.359375 -1.421875 13.671875 8.265625 
Q 6.984375 17.96875 6.984375 36.375 
Q 6.984375 53.65625 15.1875 63.9375 
Q 23.390625 74.21875 37.203125 74.21875 
Q 40.921875 74.21875 44.703125 73.484375 
Q 48.484375 72.75 52.59375 71.296875 
z
" id="DejaVuSans-54"/>
       </defs>
       <use xlink:href="#DejaVuSans-49"/>
       <use x="63.623047" xlink:href="#DejaVuSans-53"/>
       <use x="127.246094" xlink:href="#DejaVuSans-58"/>
       <use x="160.9375" xlink:href="#DejaVuSans-48"/>
       <use x="224.560547" xlink:href="#DejaVuSans-54"/>
       <use x="288.183594" xlink:href="#DejaVuSans-58"/>
       <use x="321.875" xlink:href="#DejaVuSans-53"/>
       <use x="385.498047" xlink:href="#DejaVuSans-55"/>
      </g>
     </g>
    </g>
    <g id="xtick_7">
     <g id="line2d_7">
      <g>
       <use style="stroke:#000000;stroke-width:0.8;" x="278.363409" xlink:href="#m8e488bce92" y="448.56"/>
      </g>
     </g>
     <g id="text_7">
      <!-- 15:08:45 -->
      <g transform="translate(281.122784 500.4725)rotate(-90)scale(0.1 -0.1)">
       <defs>
        <path d="M 31.78125 34.625 
Q 24.75 34.625 20.71875 30.859375 
Q 16.703125 27.09375 16.703125 20.515625 
Q 16.703125 13.921875 20.71875 10.15625 
Q 24.75 6.390625 31.78125 6.390625 
Q 38.8125 6.390625 42.859375 10.171875 
Q 46.921875 13.96875 46.921875 20.515625 
Q 46.921875 27.09375 42.890625 30.859375 
Q 38.875 34.625 31.78125 34.625 
z
M 21.921875 38.8125 
Q 15.578125 40.375 12.03125 44.71875 
Q 8.5 49.078125 8.5 55.328125 
Q 8.5 64.0625 14.71875 69.140625 
Q 20.953125 74.21875 31.78125 74.21875 
Q 42.671875 74.21875 48.875 69.140625 
Q 55.078125 64.0625 55.078125 55.328125 
Q 55.078125 49.078125 51.53125 44.71875 
Q 48 40.375 41.703125 38.8125 
Q 48.828125 37.15625 52.796875 32.3125 
Q 56.78125 27.484375 56.78125 20.515625 
Q 56.78125 9.90625 50.3125 4.234375 
Q 43.84375 -1.421875 31.78125 -1.421875 
Q 19.734375 -1.421875 13.25 4.234375 
Q 6.78125 9.90625 6.78125 20.515625 
Q 6.78125 27.484375 10.78125 32.3125 
Q 14.796875 37.15625 21.921875 38.8125 
z
M 18.3125 54.390625 
Q 18.3125 48.734375 21.84375 45.5625 
Q 25.390625 42.390625 31.78125 42.390625 
Q 38.140625 42.390625 41.71875 45.5625 
Q 45.3125 48.734375 45.3125 54.390625 
Q 45.3125 60.0625 41.71875 63.234375 
Q 38.140625 66.40625 31.78125 66.40625 
Q 25.390625 66.40625 21.84375 63.234375 
Q 18.3125 60.0625 18.3125 54.390625 
z
" id="DejaVuSans-56"/>
       </defs>
       <use xlink:href="#DejaVuSans-49"/>
       <use x="63.623047" xlink:href="#DejaVuSans-53"/>
       <use x="127.246094" xlink:href="#DejaVuSans-58"/>
       <use x="160.9375" xlink:href="#DejaVuSans-48"/>
       <use x="224.560547" xlink:href="#DejaVuSans-56"/>
       <use x="288.183594" xlink:href="#DejaVuSans-58"/>
       <use x="321.875" xlink:href="#DejaVuSans-52"/>
       <use x="385.498047" xlink:href="#DejaVuSans-53"/>
      </g>
     </g>
    </g>
    <g id="xtick_8">
     <g id="line2d_8">
      <g>
       <use style="stroke:#000000;stroke-width:0.8;" x="302.699128" xlink:href="#m8e488bce92" y="448.56"/>
      </g>
     </g>
     <g id="text_8">
      <!-- 15:10:34 -->
      <g transform="translate(305.458503 500.4725)rotate(-90)scale(0.1 -0.1)">
       <use xlink:href="#DejaVuSans-49"/>
       <use x="63.623047" xlink:href="#DejaVuSans-53"/>
       <use x="127.246094" xlink:href="#DejaVuSans-58"/>
       <use x="160.9375" xlink:href="#DejaVuSans-49"/>
       <use x="224.560547" xlink:href="#DejaVuSans-48"/>
       <use x="288.183594" xlink:href="#DejaVuSans-58"/>
       <use x="321.875" xlink:href="#DejaVuSans-51"/>
       <use x="385.498047" xlink:href="#DejaVuSans-52"/>
      </g>
     </g>
    </g>
    <g id="xtick_9">
     <g id="line2d_9">
      <g>
       <use style="stroke:#000000;stroke-width:0.8;" x="327.034848" xlink:href="#m8e488bce92" y="448.56"/>
      </g>
     </g>
     <g id="text_9">
      <!-- 15:12:23 -->
      <g transform="translate(329.794223 500.4725)rotate(-90)scale(0.1 -0.1)">
       <use xlink:href="#DejaVuSans-49"/>
       <use x="63.623047" xlink:href="#DejaVuSans-53"/>
       <use x="127.246094" xlink:href="#DejaVuSans-58"/>
       <use x="160.9375" xlink:href="#DejaVuSans-49"/>
       <use x="224.560547" xlink:href="#DejaVuSans-50"/>
       <use x="288.183594" xlink:href="#DejaVuSans-58"/>
       <use x="321.875" xlink:href="#DejaVuSans-50"/>
       <use x="385.498047" xlink:href="#DejaVuSans-51"/>
      </g>
     </g>
    </g>
    <g id="xtick_10">
     <g id="line2d_10">
      <g>
       <use style="stroke:#000000;stroke-width:0.8;" x="351.370568" xlink:href="#m8e488bce92" y="448.56"/>
      </g>
     </g>
     <g id="text_10">
      <!-- 15:14:12 -->
      <g transform="translate(354.129943 500.4725)rotate(-90)scale(0.1 -0.1)">
       <use xlink:href="#DejaVuSans-49"/>
       <use x="63.623047" xlink:href="#DejaVuSans-53"/>
       <use x="127.246094" xlink:href="#DejaVuSans-58"/>
       <use x="160.9375" xlink:href="#DejaVuSans-49"/>
       <use x="224.560547" xlink:href="#DejaVuSans-52"/>
       <use x="288.183594" xlink:href="#DejaVuSans-58"/>
       <use x="321.875" xlink:href="#DejaVuSans-49"/>
       <use x="385.498047" xlink:href="#DejaVuSans-50"/>
      </g>
     </g>
    </g>
    <g id="xtick_11">
     <g id="line2d_11">
      <g>
       <use style="stroke:#000000;stroke-width:0.8;" x="375.706287" xlink:href="#m8e488bce92" y="448.56"/>
      </g>
     </g>
     <g id="text_11">
      <!-- 15:16:01 -->
      <g transform="translate(378.465662 500.4725)rotate(-90)scale(0.1 -0.1)">
       <use xlink:href="#DejaVuSans-49"/>
       <use x="63.623047" xlink:href="#DejaVuSans-53"/>
       <use x="127.246094" xlink:href="#DejaVuSans-58"/>
       <use x="160.9375" xlink:href="#DejaVuSans-49"/>
       <use x="224.560547" xlink:href="#DejaVuSans-54"/>
       <use x="288.183594" xlink:href="#DejaVuSans-58"/>
       <use x="321.875" xlink:href="#DejaVuSans-48"/>
       <use x="385.498047" xlink:href="#DejaVuSans-49"/>
      </g>
     </g>
    </g>
    <g id="xtick_12">
     <g id="line2d_12">
      <g>
       <use style="stroke:#000000;stroke-width:0.8;" x="400.042007" xlink:href="#m8e488bce92" y="448.56"/>
      </g>
     </g>
     <g id="text_12">
      <!-- 15:17:50 -->
      <g transform="translate(402.801382 500.4725)rotate(-90)scale(0.1 -0.1)">
       <use xlink:href="#DejaVuSans-49"/>
       <use x="63.623047" xlink:href="#DejaVuSans-53"/>
       <use x="127.246094" xlink:href="#DejaVuSans-58"/>
       <use x="160.9375" xlink:href="#DejaVuSans-49"/>
       <use x="224.560547" xlink:href="#DejaVuSans-55"/>
       <use x="288.183594" xlink:href="#DejaVuSans-58"/>
       <use x="321.875" xlink:href="#DejaVuSans-53"/>
       <use x="385.498047" xlink:href="#DejaVuSans-48"/>
      </g>
     </g>
    </g>
    <g id="xtick_13">
     <g id="line2d_13">
      <g>
       <use style="stroke:#000000;stroke-width:0.8;" x="424.377727" xlink:href="#m8e488bce92" y="448.56"/>
      </g>
     </g>
     <g id="text_13">
      <!-- 15:19:38 -->
      <g transform="translate(427.137102 500.4725)rotate(-90)scale(0.1 -0.1)">
       <use xlink:href="#DejaVuSans-49"/>
       <use x="63.623047" xlink:href="#DejaVuSans-53"/>
       <use x="127.246094" xlink:href="#DejaVuSans-58"/>
       <use x="160.9375" xlink:href="#DejaVuSans-49"/>
       <use x="224.560547" xlink:href="#DejaVuSans-57"/>
       <use x="288.183594" xlink:href="#DejaVuSans-58"/>
       <use x="321.875" xlink:href="#DejaVuSans-51"/>
       <use x="385.498047" xlink:href="#DejaVuSans-56"/>
      </g>
     </g>
    </g>
    <g id="xtick_14">
     <g id="line2d_14">
      <g>
       <use style="stroke:#000000;stroke-width:0.8;" x="448.713446" xlink:href="#m8e488bce92" y="448.56"/>
      </g>
     </g>
     <g id="text_14">
      <!-- 15:21:27 -->
      <g transform="translate(451.472821 500.4725)rotate(-90)scale(0.1 -0.1)">
       <use xlink:href="#DejaVuSans-49"/>
       <use x="63.623047" xlink:href="#DejaVuSans-53"/>
       <use x="127.246094" xlink:href="#DejaVuSans-58"/>
       <use x="160.9375" xlink:href="#DejaVuSans-50"/>
       <use x="224.560547" xlink:href="#DejaVuSans-49"/>
       <use x="288.183594" xlink:href="#DejaVuSans-58"/>
       <use x="321.875" xlink:href="#DejaVuSans-50"/>
       <use x="385.498047" xlink:href="#DejaVuSans-55"/>
      </g>
     </g>
    </g>
    <g id="xtick_15">
     <g id="line2d_15">
      <g>
       <use style="stroke:#000000;stroke-width:0.8;" x="473.049166" xlink:href="#m8e488bce92" y="448.56"/>
      </g>
     </g>
     <g id="text_15">
      <!-- 15:23:16 -->
      <g transform="translate(475.808541 500.4725)rotate(-90)scale(0.1 -0.1)">
       <use xlink:href="#DejaVuSans-49"/>
       <use x="63.623047" xlink:href="#DejaVuSans-53"/>
       <use x="127.246094" xlink:href="#DejaVuSans-58"/>
       <use x="160.9375" xlink:href="#DejaVuSans-50"/>
       <use x="224.560547" xlink:href="#DejaVuSans-51"/>
       <use x="288.183594" xlink:href="#DejaVuSans-58"/>
       <use x="321.875" xlink:href="#DejaVuSans-49"/>
       <use x="385.498047" xlink:href="#DejaVuSans-54"/>
      </g>
     </g>
    </g>
    <g id="xtick_16">
     <g id="line2d_16">
      <g>
       <use style="stroke:#000000;stroke-width:0.8;" x="497.384885" xlink:href="#m8e488bce92" y="448.56"/>
      </g>
     </g>
     <g id="text_16">
      <!-- 15:25:05 -->
      <g transform="translate(500.14426 500.4725)rotate(-90)scale(0.1 -0.1)">
       <use xlink:href="#DejaVuSans-49"/>
       <use x="63.623047" xlink:href="#DejaVuSans-53"/>
       <use x="127.246094" xlink:href="#DejaVuSans-58"/>
       <use x="160.9375" xlink:href="#DejaVuSans-50"/>
       <use x="224.560547" xlink:href="#DejaVuSans-53"/>
       <use x="288.183594" xlink:href="#DejaVuSans-58"/>
       <use x="321.875" xlink:href="#DejaVuSans-48"/>
       <use x="385.498047" xlink:href="#DejaVuSans-53"/>
      </g>
     </g>
    </g>
    <g id="xtick_17">
     <g id="line2d_17">
      <g>
       <use style="stroke:#000000;stroke-width:0.8;" x="521.720605" xlink:href="#m8e488bce92" y="448.56"/>
      </g>
     </g>
     <g id="text_17">
      <!-- 15:26:54 -->
      <g transform="translate(524.47998 500.4725)rotate(-90)scale(0.1 -0.1)">
       <use xlink:href="#DejaVuSans-49"/>
       <use x="63.623047" xlink:href="#DejaVuSans-53"/>
       <use x="127.246094" xlink:href="#DejaVuSans-58"/>
       <use x="160.9375" xlink:href="#DejaVuSans-50"/>
       <use x="224.560547" xlink:href="#DejaVuSans-54"/>
       <use x="288.183594" xlink:href="#DejaVuSans-58"/>
       <use x="321.875" xlink:href="#DejaVuSans-53"/>
       <use x="385.498047" xlink:href="#DejaVuSans-52"/>
      </g>
     </g>
    </g>
    <g id="xtick_18">
     <g id="line2d_18">
      <g>
       <use style="stroke:#000000;stroke-width:0.8;" x="546.056325" xlink:href="#m8e488bce92" y="448.56"/>
      </g>
     </g>
     <g id="text_18">
      <!-- 15:28:42 -->
      <g transform="translate(548.8157 500.4725)rotate(-90)scale(0.1 -0.1)">
       <use xlink:href="#DejaVuSans-49"/>
       <use x="63.623047" xlink:href="#DejaVuSans-53"/>
       <use x="127.246094" xlink:href="#DejaVuSans-58"/>
       <use x="160.9375" xlink:href="#DejaVuSans-50"/>
       <use x="224.560547" xlink:href="#DejaVuSans-56"/>
       <use x="288.183594" xlink:href="#DejaVuSans-58"/>
       <use x="321.875" xlink:href="#DejaVuSans-52"/>
       <use x="385.498047" xlink:href="#DejaVuSans-50"/>
      </g>
     </g>
    </g>
    <g id="xtick_19">
     <g id="line2d_19">
      <g>
       <use style="stroke:#000000;stroke-width:0.8;" x="570.392044" xlink:href="#m8e488bce92" y="448.56"/>
      </g>
     </g>
     <g id="text_19">
      <!-- 15:30:31 -->
      <g transform="translate(573.151419 500.4725)rotate(-90)scale(0.1 -0.1)">
       <use xlink:href="#DejaVuSans-49"/>
       <use x="63.623047" xlink:href="#DejaVuSans-53"/>
       <use x="127.246094" xlink:href="#DejaVuSans-58"/>
       <use x="160.9375" xlink:href="#DejaVuSans-51"/>
       <use x="224.560547" xlink:href="#DejaVuSans-48"/>
       <use x="288.183594" xlink:href="#DejaVuSans-58"/>
       <use x="321.875" xlink:href="#DejaVuSans-51"/>
       <use x="385.498047" xlink:href="#DejaVuSans-49"/>
      </g>
     </g>
    </g>
    <g id="xtick_20">
     <g id="line2d_20">
      <g>
       <use style="stroke:#000000;stroke-width:0.8;" x="594.727764" xlink:href="#m8e488bce92" y="448.56"/>
      </g>
     </g>
     <g id="text_20">
      <!-- 15:32:20 -->
      <g transform="translate(597.487139 500.4725)rotate(-90)scale(0.1 -0.1)">
       <use xlink:href="#DejaVuSans-49"/>
       <use x="63.623047" xlink:href="#DejaVuSans-53"/>
       <use x="127.246094" xlink:href="#DejaVuSans-58"/>
       <use x="160.9375" xlink:href="#DejaVuSans-51"/>
       <use x="224.560547" xlink:href="#DejaVuSans-50"/>
       <use x="288.183594" xlink:href="#DejaVuSans-58"/>
       <use x="321.875" xlink:href="#DejaVuSans-50"/>
       <use x="385.498047" xlink:href="#DejaVuSans-48"/>
      </g>
     </g>
    </g>
    <g id="xtick_21">
     <g id="line2d_21">
      <g>
       <use style="stroke:#000000;stroke-width:0.8;" x="619.063484" xlink:href="#m8e488bce92" y="448.56"/>
      </g>
     </g>
     <g id="text_21">
      <!-- 15:34:09 -->
      <g transform="translate(621.822859 500.4725)rotate(-90)scale(0.1 -0.1)">
       <use xlink:href="#DejaVuSans-49"/>
       <use x="63.623047" xlink:href="#DejaVuSans-53"/>
       <use x="127.246094" xlink:href="#DejaVuSans-58"/>
       <use x="160.9375" xlink:href="#DejaVuSans-51"/>
       <use x="224.560547" xlink:href="#DejaVuSans-52"/>
       <use x="288.183594" xlink:href="#DejaVuSans-58"/>
       <use x="321.875" xlink:href="#DejaVuSans-48"/>
       <use x="385.498047" xlink:href="#DejaVuSans-57"/>
      </g>
     </g>
    </g>
    <g id="text_22">
     <!-- timestamp -->
     <g transform="translate(354.264375 510.55125)scale(0.08 -0.08)">
      <defs>
       <path d="M 18.3125 70.21875 
L 18.3125 54.6875 
L 36.8125 54.6875 
L 36.8125 47.703125 
L 18.3125 47.703125 
L 18.3125 18.015625 
Q 18.3125 11.328125 20.140625 9.421875 
Q 21.96875 7.515625 27.59375 7.515625 
L 36.8125 7.515625 
L 36.8125 0 
L 27.59375 0 
Q 17.1875 0 13.234375 3.875 
Q 9.28125 7.765625 9.28125 18.015625 
L 9.28125 47.703125 
L 2.6875 47.703125 
L 2.6875 54.6875 
L 9.28125 54.6875 
L 9.28125 70.21875 
z
" id="DejaVuSans-116"/>
       <path d="M 9.421875 54.6875 
L 18.40625 54.6875 
L 18.40625 0 
L 9.421875 0 
z
M 9.421875 75.984375 
L 18.40625 75.984375 
L 18.40625 64.59375 
L 9.421875 64.59375 
z
" id="DejaVuSans-105"/>
       <path d="M 52 44.1875 
Q 55.375 50.25 60.0625 53.125 
Q 64.75 56 71.09375 56 
Q 79.640625 56 84.28125 50.015625 
Q 88.921875 44.046875 88.921875 33.015625 
L 88.921875 0 
L 79.890625 0 
L 79.890625 32.71875 
Q 79.890625 40.578125 77.09375 44.375 
Q 74.3125 48.1875 68.609375 48.1875 
Q 61.625 48.1875 57.5625 43.546875 
Q 53.515625 38.921875 53.515625 30.90625 
L 53.515625 0 
L 44.484375 0 
L 44.484375 32.71875 
Q 44.484375 40.625 41.703125 44.40625 
Q 38.921875 48.1875 33.109375 48.1875 
Q 26.21875 48.1875 22.15625 43.53125 
Q 18.109375 38.875 18.109375 30.90625 
L 18.109375 0 
L 9.078125 0 
L 9.078125 54.6875 
L 18.109375 54.6875 
L 18.109375 46.1875 
Q 21.1875 51.21875 25.484375 53.609375 
Q 29.78125 56 35.6875 56 
Q 41.65625 56 45.828125 52.96875 
Q 50 49.953125 52 44.1875 
z
" id="DejaVuSans-109"/>
       <path d="M 56.203125 29.59375 
L 56.203125 25.203125 
L 14.890625 25.203125 
Q 15.484375 15.921875 20.484375 11.0625 
Q 25.484375 6.203125 34.421875 6.203125 
Q 39.59375 6.203125 44.453125 7.46875 
Q 49.3125 8.734375 54.109375 11.28125 
L 54.109375 2.78125 
Q 49.265625 0.734375 44.1875 -0.34375 
Q 39.109375 -1.421875 33.890625 -1.421875 
Q 20.796875 -1.421875 13.15625 6.1875 
Q 5.515625 13.8125 5.515625 26.8125 
Q 5.515625 40.234375 12.765625 48.109375 
Q 20.015625 56 32.328125 56 
Q 43.359375 56 49.78125 48.890625 
Q 56.203125 41.796875 56.203125 29.59375 
z
M 47.21875 32.234375 
Q 47.125 39.59375 43.09375 43.984375 
Q 39.0625 48.390625 32.421875 48.390625 
Q 24.90625 48.390625 20.390625 44.140625 
Q 15.875 39.890625 15.1875 32.171875 
z
" id="DejaVuSans-101"/>
       <path d="M 44.28125 53.078125 
L 44.28125 44.578125 
Q 40.484375 46.53125 36.375 47.5 
Q 32.28125 48.484375 27.875 48.484375 
Q 21.1875 48.484375 17.84375 46.4375 
Q 14.5 44.390625 14.5 40.28125 
Q 14.5 37.15625 16.890625 35.375 
Q 19.28125 33.59375 26.515625 31.984375 
L 29.59375 31.296875 
Q 39.15625 29.25 43.1875 25.515625 
Q 47.21875 21.78125 47.21875 15.09375 
Q 47.21875 7.46875 41.1875 3.015625 
Q 35.15625 -1.421875 24.609375 -1.421875 
Q 20.21875 -1.421875 15.453125 -0.5625 
Q 10.6875 0.296875 5.421875 2 
L 5.421875 11.28125 
Q 10.40625 8.6875 15.234375 7.390625 
Q 20.0625 6.109375 24.8125 6.109375 
Q 31.15625 6.109375 34.5625 8.28125 
Q 37.984375 10.453125 37.984375 14.40625 
Q 37.984375 18.0625 35.515625 20.015625 
Q 33.0625 21.96875 24.703125 23.78125 
L 21.578125 24.515625 
Q 13.234375 26.265625 9.515625 29.90625 
Q 5.8125 33.546875 5.8125 39.890625 
Q 5.8125 47.609375 11.28125 51.796875 
Q 16.75 56 26.8125 56 
Q 31.78125 56 36.171875 55.265625 
Q 40.578125 54.546875 44.28125 53.078125 
z
" id="DejaVuSans-115"/>
       <path d="M 34.28125 27.484375 
Q 23.390625 27.484375 19.1875 25 
Q 14.984375 22.515625 14.984375 16.5 
Q 14.984375 11.71875 18.140625 8.90625 
Q 21.296875 6.109375 26.703125 6.109375 
Q 34.1875 6.109375 38.703125 11.40625 
Q 43.21875 16.703125 43.21875 25.484375 
L 43.21875 27.484375 
z
M 52.203125 31.203125 
L 52.203125 0 
L 43.21875 0 
L 43.21875 8.296875 
Q 40.140625 3.328125 35.546875 0.953125 
Q 30.953125 -1.421875 24.3125 -1.421875 
Q 15.921875 -1.421875 10.953125 3.296875 
Q 6 8.015625 6 15.921875 
Q 6 25.140625 12.171875 29.828125 
Q 18.359375 34.515625 30.609375 34.515625 
L 43.21875 34.515625 
L 43.21875 35.40625 
Q 43.21875 41.609375 39.140625 45 
Q 35.0625 48.390625 27.6875 48.390625 
Q 23 48.390625 18.546875 47.265625 
Q 14.109375 46.140625 10.015625 43.890625 
L 10.015625 52.203125 
Q 14.9375 54.109375 19.578125 55.046875 
Q 24.21875 56 28.609375 56 
Q 40.484375 56 46.34375 49.84375 
Q 52.203125 43.703125 52.203125 31.203125 
z
" id="DejaVuSans-97"/>
       <path d="M 18.109375 8.203125 
L 18.109375 -20.796875 
L 9.078125 -20.796875 
L 9.078125 54.6875 
L 18.109375 54.6875 
L 18.109375 46.390625 
Q 20.953125 51.265625 25.265625 53.625 
Q 29.59375 56 35.59375 56 
Q 45.5625 56 51.78125 48.09375 
Q 58.015625 40.1875 58.015625 27.296875 
Q 58.015625 14.40625 51.78125 6.484375 
Q 45.5625 -1.421875 35.59375 -1.421875 
Q 29.59375 -1.421875 25.265625 0.953125 
Q 20.953125 3.328125 18.109375 8.203125 
z
M 48.6875 27.296875 
Q 48.6875 37.203125 44.609375 42.84375 
Q 40.53125 48.484375 33.40625 48.484375 
Q 26.265625 48.484375 22.1875 42.84375 
Q 18.109375 37.203125 18.109375 27.296875 
Q 18.109375 17.390625 22.1875 11.75 
Q 26.265625 6.109375 33.40625 6.109375 
Q 40.53125 6.109375 44.609375 11.75 
Q 48.6875 17.390625 48.6875 27.296875 
z
" id="DejaVuSans-112"/>
      </defs>
      <use xlink:href="#DejaVuSans-116"/>
      <use x="39.208984" xlink:href="#DejaVuSans-105"/>
      <use x="66.992188" xlink:href="#DejaVuSans-109"/>
      <use x="164.404297" xlink:href="#DejaVuSans-101"/>
      <use x="225.927734" xlink:href="#DejaVuSans-115"/>
      <use x="278.027344" xlink:href="#DejaVuSans-116"/>
      <use x="317.236328" xlink:href="#DejaVuSans-97"/>
      <use x="378.515625" xlink:href="#DejaVuSans-109"/>
      <use x="475.927734" xlink:href="#DejaVuSans-112"/>
     </g>
    </g>
   </g>
   <g id="matplotlib.axis_2">
    <g id="ytick_1">
     <g id="line2d_22">
      <defs>
       <path d="M 0 0 
L -3.5 0 
" id="m1673eeda6d" style="stroke:#000000;stroke-width:0.8;"/>
      </defs>
      <g>
       <use style="stroke:#000000;stroke-width:0.8;" x="108" xlink:href="#m1673eeda6d" y="425.329488"/>
      </g>
     </g>
     <g id="text_23">
      <!-- 11250 -->
      <g transform="translate(69.1875 429.128707)scale(0.1 -0.1)">
       <use xlink:href="#DejaVuSans-49"/>
       <use x="63.623047" xlink:href="#DejaVuSans-49"/>
       <use x="127.246094" xlink:href="#DejaVuSans-50"/>
       <use x="190.869141" xlink:href="#DejaVuSans-53"/>
       <use x="254.492188" xlink:href="#DejaVuSans-48"/>
      </g>
     </g>
    </g>
    <g id="ytick_2">
     <g id="line2d_23">
      <g>
       <use style="stroke:#000000;stroke-width:0.8;" x="108" xlink:href="#m1673eeda6d" y="373.583027"/>
      </g>
     </g>
     <g id="text_24">
      <!-- 11500 -->
      <g transform="translate(69.1875 377.382245)scale(0.1 -0.1)">
       <use xlink:href="#DejaVuSans-49"/>
       <use x="63.623047" xlink:href="#DejaVuSans-49"/>
       <use x="127.246094" xlink:href="#DejaVuSans-53"/>
       <use x="190.869141" xlink:href="#DejaVuSans-48"/>
       <use x="254.492188" xlink:href="#DejaVuSans-48"/>
      </g>
     </g>
    </g>
    <g id="ytick_3">
     <g id="line2d_24">
      <g>
       <use style="stroke:#000000;stroke-width:0.8;" x="108" xlink:href="#m1673eeda6d" y="321.836566"/>
      </g>
     </g>
     <g id="text_25">
      <!-- 11750 -->
      <g transform="translate(69.1875 325.635784)scale(0.1 -0.1)">
       <use xlink:href="#DejaVuSans-49"/>
       <use x="63.623047" xlink:href="#DejaVuSans-49"/>
       <use x="127.246094" xlink:href="#DejaVuSans-55"/>
       <use x="190.869141" xlink:href="#DejaVuSans-53"/>
       <use x="254.492188" xlink:href="#DejaVuSans-48"/>
      </g>
     </g>
    </g>
    <g id="ytick_4">
     <g id="line2d_25">
      <g>
       <use style="stroke:#000000;stroke-width:0.8;" x="108" xlink:href="#m1673eeda6d" y="270.090104"/>
      </g>
     </g>
     <g id="text_26">
      <!-- 12000 -->
      <g transform="translate(69.1875 273.889323)scale(0.1 -0.1)">
       <use xlink:href="#DejaVuSans-49"/>
       <use x="63.623047" xlink:href="#DejaVuSans-50"/>
       <use x="127.246094" xlink:href="#DejaVuSans-48"/>
       <use x="190.869141" xlink:href="#DejaVuSans-48"/>
       <use x="254.492188" xlink:href="#DejaVuSans-48"/>
      </g>
     </g>
    </g>
    <g id="ytick_5">
     <g id="line2d_26">
      <g>
       <use style="stroke:#000000;stroke-width:0.8;" x="108" xlink:href="#m1673eeda6d" y="218.343643"/>
      </g>
     </g>
     <g id="text_27">
      <!-- 12250 -->
      <g transform="translate(69.1875 222.142862)scale(0.1 -0.1)">
       <use xlink:href="#DejaVuSans-49"/>
       <use x="63.623047" xlink:href="#DejaVuSans-50"/>
       <use x="127.246094" xlink:href="#DejaVuSans-50"/>
       <use x="190.869141" xlink:href="#DejaVuSans-53"/>
       <use x="254.492188" xlink:href="#DejaVuSans-48"/>
      </g>
     </g>
    </g>
    <g id="ytick_6">
     <g id="line2d_27">
      <g>
       <use style="stroke:#000000;stroke-width:0.8;" x="108" xlink:href="#m1673eeda6d" y="166.597182"/>
      </g>
     </g>
     <g id="text_28">
      <!-- 12500 -->
      <g transform="translate(69.1875 170.396401)scale(0.1 -0.1)">
       <use xlink:href="#DejaVuSans-49"/>
       <use x="63.623047" xlink:href="#DejaVuSans-50"/>
       <use x="127.246094" xlink:href="#DejaVuSans-53"/>
       <use x="190.869141" xlink:href="#DejaVuSans-48"/>
       <use x="254.492188" xlink:href="#DejaVuSans-48"/>
      </g>
     </g>
    </g>
    <g id="ytick_7">
     <g id="line2d_28">
      <g>
       <use style="stroke:#000000;stroke-width:0.8;" x="108" xlink:href="#m1673eeda6d" y="114.850721"/>
      </g>
     </g>
     <g id="text_29">
      <!-- 12750 -->
      <g transform="translate(69.1875 118.64994)scale(0.1 -0.1)">
       <use xlink:href="#DejaVuSans-49"/>
       <use x="63.623047" xlink:href="#DejaVuSans-50"/>
       <use x="127.246094" xlink:href="#DejaVuSans-55"/>
       <use x="190.869141" xlink:href="#DejaVuSans-53"/>
       <use x="254.492188" xlink:href="#DejaVuSans-48"/>
      </g>
     </g>
    </g>
    <g id="ytick_8">
     <g id="line2d_29">
      <g>
       <use style="stroke:#000000;stroke-width:0.8;" x="108" xlink:href="#m1673eeda6d" y="63.10426"/>
      </g>
     </g>
     <g id="text_30">
      <!-- 13000 -->
      <g transform="translate(69.1875 66.903479)scale(0.1 -0.1)">
       <use xlink:href="#DejaVuSans-49"/>
       <use x="63.623047" xlink:href="#DejaVuSans-51"/>
       <use x="127.246094" xlink:href="#DejaVuSans-48"/>
       <use x="190.869141" xlink:href="#DejaVuSans-48"/>
       <use x="254.492188" xlink:href="#DejaVuSans-48"/>
      </g>
     </g>
    </g>
    <g id="text_31">
     <!-- MB -->
     <g transform="translate(63.52375 260.715625)rotate(-90)scale(0.08 -0.08)">
      <defs>
       <path d="M 9.8125 72.90625 
L 24.515625 72.90625 
L 43.109375 23.296875 
L 61.8125 72.90625 
L 76.515625 72.90625 
L 76.515625 0 
L 66.890625 0 
L 66.890625 64.015625 
L 48.09375 14.015625 
L 38.1875 14.015625 
L 19.390625 64.015625 
L 19.390625 0 
L 9.8125 0 
z
" id="DejaVuSans-77"/>
       <path d="M 19.671875 34.8125 
L 19.671875 8.109375 
L 35.5 8.109375 
Q 43.453125 8.109375 47.28125 11.40625 
Q 51.125 14.703125 51.125 21.484375 
Q 51.125 28.328125 47.28125 31.5625 
Q 43.453125 34.8125 35.5 34.8125 
z
M 19.671875 64.796875 
L 19.671875 42.828125 
L 34.28125 42.828125 
Q 41.5 42.828125 45.03125 45.53125 
Q 48.578125 48.25 48.578125 53.8125 
Q 48.578125 59.328125 45.03125 62.0625 
Q 41.5 64.796875 34.28125 64.796875 
z
M 9.8125 72.90625 
L 35.015625 72.90625 
Q 46.296875 72.90625 52.390625 68.21875 
Q 58.5 63.53125 58.5 54.890625 
Q 58.5 48.1875 55.375 44.234375 
Q 52.25 40.28125 46.1875 39.3125 
Q 53.46875 37.75 57.5 32.78125 
Q 61.53125 27.828125 61.53125 20.40625 
Q 61.53125 10.640625 54.890625 5.3125 
Q 48.25 0 35.984375 0 
L 9.8125 0 
z
" id="DejaVuSans-66"/>
      </defs>
      <use xlink:href="#DejaVuSans-77"/>
      <use x="86.279297" xlink:href="#DejaVuSans-66"/>
     </g>
    </g>
   </g>
   <g id="line2d_30">
    <path clip-path="url(#p6e008f39aa)" d="M 132.349091 81.043263 
L 132.883942 79.963148 
L 133.418793 78.572733 
L 133.686218 78.890663 
L 133.953644 78.575276 
L 134.221069 78.662601 
L 134.488495 78.12 
L 134.75592 80.030125 
L 135.023346 80.023342 
L 135.290771 79.700325 
L 135.558197 92.487904 
L 135.825622 113.023655 
L 136.093048 123.857871 
L 136.895324 224.89865 
L 137.430175 265.167272 
L 137.965026 330.913554 
L 138.232452 342.055526 
L 138.767303 382.88964 
L 139.034728 388.297846 
L 139.302154 388.798056 
L 139.569579 392.036706 
L 139.837005 391.905294 
L 140.371856 390.588639 
L 140.639281 392.098596 
L 140.906707 392.029923 
L 141.441558 390.291057 
L 141.708983 390.3131 
L 141.976409 391.533952 
L 142.243834 390.80568 
L 142.51126 390.794658 
L 142.778685 390.127428 
L 143.046111 390.972699 
L 143.580962 390.769224 
L 143.848387 389.957866 
L 144.383238 391.489866 
L 144.650663 391.377106 
L 144.918089 390.892157 
L 145.185514 391.580582 
L 145.45294 391.958707 
L 145.720365 391.658581 
L 146.255216 390.725137 
L 146.522642 392.012119 
L 146.790067 392.064683 
L 147.057493 390.633573 
L 147.324918 391.307586 
L 147.859769 391.901055 
L 148.127195 394.690364 
L 148.39462 394.758189 
L 148.662046 394.395324 
L 148.929471 393.625509 
L 149.196897 393.387273 
L 149.464322 393.302492 
L 149.999173 391.902751 
L 150.266599 392.614915 
L 150.534024 392.64374 
L 150.80145 391.651798 
L 151.068875 393.354209 
L 151.336301 395.775565 
L 151.871152 395.632285 
L 152.138577 392.79126 
L 152.406003 393.796768 
L 152.940854 392.878585 
L 153.208279 391.563625 
L 153.74313 393.480533 
L 154.277981 392.827716 
L 154.545407 392.072314 
L 154.812832 392.487743 
L 155.080258 392.619154 
L 155.347683 392.205421 
L 155.615109 391.28639 
L 156.14996 392.436874 
L 156.417385 392.178291 
L 156.952236 391.280456 
L 157.219662 392.87265 
L 157.754513 392.998127 
L 158.021938 392.359723 
L 158.289363 393.210928 
L 158.824214 392.131661 
L 159.09164 391.390671 
L 159.626491 391.747601 
L 160.161342 391.525474 
L 160.428767 391.079524 
L 160.696193 392.848064 
L 161.231044 392.522503 
L 161.498469 391.8061 
L 161.765895 392.291898 
L 162.03332 393.033735 
L 162.300746 392.777695 
L 162.568171 392.922671 
L 162.835597 391.984141 
L 163.103022 393.447468 
L 163.370448 393.594988 
L 163.637873 393.438142 
L 163.905299 392.218138 
L 164.172724 392.385157 
L 164.44015 393.27621 
L 164.707575 392.251203 
L 164.975001 391.70521 
L 165.242426 392.376679 
L 165.509852 393.538184 
L 165.777277 392.727674 
L 166.312128 392.302071 
L 166.846979 392.794651 
L 167.114405 392.625936 
L 167.38183 391.910381 
L 167.649256 392.467395 
L 167.916681 393.817115 
L 168.184107 393.770485 
L 168.451532 392.572524 
L 168.718958 392.366505 
L 168.986383 393.408469 
L 169.253809 393.049843 
L 169.521234 391.636537 
L 169.78866 391.430519 
L 170.056085 391.473757 
L 170.323511 392.939628 
L 170.590936 392.635262 
L 170.858362 392.148617 
L 171.125787 392.330049 
L 171.660638 392.354636 
L 171.928064 392.258833 
L 172.195489 391.427975 
L 172.462914 393.106647 
L 172.73034 393.325383 
L 172.997765 392.94641 
L 173.265191 392.26392 
L 173.532616 392.602198 
L 173.800042 392.53522 
L 174.067467 392.769217 
L 174.602318 391.553452 
L 174.869744 393.346578 
L 175.137169 393.420338 
L 175.404595 393.064256 
L 175.67202 392.198638 
L 176.206871 393.315209 
L 176.474297 393.01254 
L 176.741722 392.354636 
L 177.276573 393.962939 
L 177.543999 393.948526 
L 177.811424 393.747594 
L 178.07885 392.98117 
L 178.346275 393.744203 
L 178.613701 392.431787 
L 178.881126 391.864599 
L 179.148552 391.809491 
L 179.683403 393.177015 
L 179.950828 393.320296 
L 180.218254 393.153277 
L 180.485679 392.124878 
L 180.753105 394.084176 
L 181.02053 394.312238 
L 181.287956 394.155393 
L 181.555381 395.822195 
L 181.822807 395.639915 
L 182.090232 400.04007 
L 182.357658 397.597518 
L 182.625083 396.783616 
L 182.892509 397.563605 
L 183.42736 396.381752 
L 183.694785 396.358014 
L 183.962211 396.218124 
L 184.229636 398.019729 
L 184.497062 396.653053 
L 184.764487 396.634401 
L 185.031913 396.150299 
L 185.299338 396.391926 
L 185.566764 396.822616 
L 186.101614 396.923506 
L 186.636465 400.526715 
L 186.903891 400.547911 
L 187.171316 399.905268 
L 187.438742 397.288913 
L 187.973593 398.427528 
L 188.241018 397.156654 
L 188.508444 397.52291 
L 188.775869 396.817529 
L 189.043295 398.468223 
L 189.578146 398.397854 
L 189.845571 397.605148 
L 190.112997 396.277471 
L 190.380422 396.886202 
L 190.647848 396.729356 
L 190.915273 395.574634 
L 191.182699 395.388114 
L 191.450124 396.613206 
L 191.71755 396.834485 
L 191.984975 396.80142 
L 192.252401 396.538598 
L 192.519826 397.51528 
L 193.322103 396.579293 
L 193.589528 396.982005 
L 193.856954 397.861188 
L 194.124379 397.422868 
L 194.391805 397.678908 
L 194.65923 397.232958 
L 194.926656 397.668734 
L 195.461507 397.192263 
L 195.728932 396.238472 
L 195.996358 396.821768 
L 196.531209 396.73953 
L 196.798634 395.666197 
L 197.06606 395.660263 
L 197.333485 396.981157 
L 197.600911 396.708161 
L 197.868336 396.772595 
L 198.135762 396.059583 
L 198.403187 396.636945 
L 198.670613 397.793363 
L 198.938038 397.423716 
L 199.205464 396.589467 
L 199.472889 396.973527 
L 199.740315 397.845079 
L 200.00774 397.877296 
L 200.275165 397.681451 
L 200.542591 396.892984 
L 200.810016 398.207944 
L 201.344867 397.520367 
L 201.879718 396.525033 
L 202.147144 396.97607 
L 202.414569 397.035417 
L 202.681995 395.815413 
L 202.94942 396.080779 
L 203.216846 397.064243 
L 203.484271 397.234653 
L 204.019122 395.852717 
L 204.286548 396.298667 
L 204.553973 397.119351 
L 204.821399 396.871789 
L 205.088824 396.291884 
L 205.35625 396.657292 
L 205.623675 397.610235 
L 206.158526 397.459324 
L 206.425952 396.76666 
L 206.693377 398.637786 
L 207.228228 396.851441 
L 207.495654 395.971411 
L 208.030505 397.657713 
L 208.29793 397.750972 
L 208.832781 396.063822 
L 209.100207 396.710704 
L 209.367632 396.735291 
L 209.635058 396.422448 
L 209.902483 395.548351 
L 210.437334 397.260936 
L 210.70476 397.394042 
L 210.972185 396.524185 
L 211.507036 397.820493 
L 211.774462 397.799298 
L 212.041887 397.956991 
L 212.309313 397.273653 
L 212.576738 398.46144 
L 212.844164 398.458049 
L 213.111589 397.843384 
L 213.379015 397.817102 
L 213.64644 396.523337 
L 213.913866 396.859072 
L 214.448716 396.985396 
L 214.716142 396.345296 
L 215.250993 400.753929 
L 215.518418 400.140112 
L 215.785844 400.210481 
L 216.053269 397.483063 
L 216.320695 398.08162 
L 216.58812 398.383441 
L 216.855546 396.993026 
L 217.390397 399.061693 
L 217.657822 399.056606 
L 217.925248 398.539439 
L 218.192673 397.263479 
L 218.460099 398.030751 
L 218.727524 400.527563 
L 218.99495 400.775125 
L 219.529801 396.511468 
L 219.797226 397.737407 
L 220.064652 398.185053 
L 220.599503 396.73953 
L 220.866928 398.160466 
L 221.134354 398.273226 
L 221.401779 398.029055 
L 221.669205 397.498324 
L 221.93663 397.896796 
L 222.204056 399.315189 
L 222.738907 397.34063 
L 223.006332 396.989635 
L 223.273758 397.924774 
L 223.541183 398.084163 
L 223.808609 396.480947 
L 224.076034 396.431774 
L 224.34346 396.621684 
L 224.878311 396.055344 
L 225.145736 395.520373 
L 225.680587 397.72469 
L 225.948013 397.333 
L 226.215438 397.594974 
L 226.482864 397.119351 
L 226.750289 397.844232 
L 227.017715 397.779798 
L 227.28514 397.600061 
L 227.552566 397.073569 
L 228.087417 398.846348 
L 228.354842 398.814131 
L 228.622267 397.853558 
L 228.889693 397.82558 
L 229.424544 398.421593 
L 229.959395 397.083742 
L 230.22682 398.775131 
L 230.494246 396.890441 
L 230.761671 396.669161 
L 231.029097 396.034997 
L 231.296522 396.452121 
L 231.563948 397.118503 
L 232.098799 397.179545 
L 232.366224 396.738682 
L 232.63365 397.628887 
L 232.901075 397.51528 
L 233.168501 397.657713 
L 233.435926 396.558098 
L 233.970777 398.883652 
L 234.773054 398.402941 
L 235.040479 398.715784 
L 235.307905 398.709002 
L 235.842756 397.221936 
L 236.377607 398.289334 
L 236.645032 398.090946 
L 237.179883 396.727661 
L 237.447309 398.875174 
L 237.714734 397.728081 
L 237.98216 397.90697 
L 238.249585 397.19735 
L 238.517011 398.181662 
L 238.784436 398.150293 
L 239.051862 398.382594 
L 239.319287 397.831514 
L 239.586713 398.353768 
L 239.854138 399.471187 
L 240.388989 399.009976 
L 240.656415 401.562744 
L 241.191266 402.425819 
L 241.458691 402.225735 
L 241.726117 400.576736 
L 241.993542 401.171054 
L 242.260968 402.595381 
L 242.528393 402.473296 
L 242.795818 401.634808 
L 243.063244 400.073135 
L 243.330669 402.051933 
L 243.598095 401.449985 
L 243.86552 401.380464 
L 244.132946 400.616584 
L 244.400371 400.720865 
L 244.667797 401.639047 
L 244.935222 401.442354 
L 245.202648 400.42413 
L 245.470073 400.596236 
L 245.737499 402.56486 
L 246.27235 402.013781 
L 246.539775 401.21514 
L 247.074626 402.490252 
L 247.342052 400.751386 
L 247.609477 400.675083 
L 247.876903 401.054903 
L 248.144328 402.950616 
L 248.411754 402.94892 
L 248.679179 405.590708 
L 248.946605 404.641157 
L 249.21403 405.666164 
L 249.481456 405.088802 
L 249.748881 402.589447 
L 250.016307 401.720437 
L 250.283732 402.38258 
L 250.818583 402.476687 
L 251.086009 402.222343 
L 251.353434 401.210901 
L 251.62086 402.37495 
L 252.155711 402.433449 
L 252.423136 401.976477 
L 252.690562 402.376645 
L 252.957987 402.139257 
L 253.492838 402.608946 
L 253.760264 401.19988 
L 254.027689 403.112548 
L 254.295115 403.053201 
L 254.56254 402.711532 
L 255.097391 400.952318 
L 255.364817 401.682286 
L 255.632242 401.805219 
L 255.899668 401.324508 
L 256.167093 401.213445 
L 256.434518 402.819204 
L 256.701944 402.724249 
L 257.236795 401.291443 
L 257.771646 402.730184 
L 258.306497 401.842523 
L 258.573922 402.033281 
L 258.841348 403.012506 
L 259.108773 402.283386 
L 259.376199 402.201148 
L 259.643624 401.457615 
L 259.91105 401.083729 
L 260.178475 401.973934 
L 260.445901 402.20793 
L 260.713326 401.448289 
L 260.980752 401.337225 
L 261.248177 402.447014 
L 261.515603 402.474144 
L 261.783028 402.117214 
L 262.050454 401.558505 
L 262.585305 402.92179 
L 262.85273 402.442775 
L 263.120156 401.650069 
L 263.387581 402.134171 
L 263.655007 402.903138 
L 263.922432 402.65812 
L 264.189858 402.077367 
L 264.457283 402.385124 
L 264.724709 401.764524 
L 264.992134 401.449985 
L 265.25956 401.388094 
L 265.526985 400.506368 
L 266.061836 402.359689 
L 266.329262 402.2393 
L 266.596687 401.634808 
L 267.131538 402.430058 
L 267.398964 402.41734 
L 267.666389 402.226582 
L 267.933815 401.638199 
L 268.20124 403.661931 
L 268.468666 403.066766 
L 268.736091 403.205808 
L 269.003517 402.452101 
L 269.270942 402.714075 
L 269.538368 403.136287 
L 269.805793 402.781053 
L 270.073219 402.91416 
L 270.875495 401.449985 
L 271.14292 401.461854 
L 271.410346 400.86245 
L 271.677771 401.514419 
L 271.945197 402.618272 
L 272.480048 401.714503 
L 272.747473 401.571222 
L 273.014899 402.441079 
L 273.54975 402.619968 
L 273.817175 402.127388 
L 274.084601 403.045571 
L 274.352026 403.428783 
L 274.619452 401.931543 
L 274.886877 401.820479 
L 275.154303 401.948499 
L 275.421728 403.30585 
L 275.956579 402.775118 
L 276.224005 402.225735 
L 276.49143 403.550868 
L 277.026281 403.853537 
L 277.293707 402.687793 
L 277.828558 403.372827 
L 278.095983 402.397841 
L 278.363409 405.901008 
L 278.630834 405.259213 
L 278.89826 406.054463 
L 279.165685 405.544926 
L 279.433111 405.756032 
L 279.700536 405.057433 
L 279.967962 405.629708 
L 280.235387 405.934921 
L 280.502813 405.995116 
L 280.770238 405.48134 
L 281.037664 405.670403 
L 281.305089 406.625889 
L 281.83994 407.065057 
L 282.107366 405.828096 
L 282.374791 409.312612 
L 282.642217 409.603412 
L 282.909642 409.419436 
L 283.177068 406.538564 
L 283.444493 407.194772 
L 283.711919 406.712366 
L 283.979344 406.710671 
L 284.514195 405.377907 
L 284.78162 406.119744 
L 285.049046 406.294394 
L 285.316471 404.868371 
L 285.583897 404.83785 
L 285.851322 408.193497 
L 286.118748 409.104897 
L 286.386173 408.982812 
L 286.653599 408.306257 
L 286.921024 406.405458 
L 287.18845 408.198584 
L 287.455875 407.810285 
L 287.990726 406.376632 
L 288.258152 408.307104 
L 288.525577 408.416472 
L 288.793003 408.101086 
L 289.327854 406.610629 
L 289.595279 407.433008 
L 289.862705 407.057427 
L 290.13013 407.095578 
L 290.397556 405.969681 
L 290.664981 406.903972 
L 290.932407 406.224873 
L 291.199832 406.41987 
L 291.467258 405.480493 
L 291.734683 405.707707 
L 292.002109 407.301597 
L 292.269534 406.731866 
L 292.53696 406.608085 
L 292.804385 405.585621 
L 293.071811 406.736953 
L 293.606662 407.002319 
L 293.874087 406.304568 
L 294.141513 407.597484 
L 294.408938 407.534746 
L 294.676364 406.838691 
L 294.943789 406.529238 
L 295.211215 406.636911 
L 295.47864 406.882777 
L 296.280917 404.90737 
L 296.548342 407.413509 
L 296.815768 407.464377 
L 297.350619 406.64115 
L 297.88547 406.892103 
L 298.152895 406.85819 
L 298.420321 406.548738 
L 298.687746 406.470739 
L 298.955171 407.845894 
L 299.222597 407.671244 
L 299.757448 406.62165 
L 300.024873 407.152382 
L 300.292299 406.898038 
L 300.559724 406.853103 
L 300.82715 405.519492 
L 301.094575 406.880233 
L 301.362001 406.447001 
L 301.629426 406.352045 
L 301.896852 406.135853 
L 302.164277 405.410124 
L 302.431703 407.47116 
L 302.699128 406.914146 
L 302.966554 406.95908 
L 303.233979 406.262177 
L 303.76883 407.044709 
L 304.303681 406.544499 
L 304.571107 406.08244 
L 304.838532 407.060818 
L 305.105958 407.119317 
L 305.373383 406.110418 
L 305.640809 406.079049 
L 305.908234 406.610629 
L 306.443085 406.719997 
L 306.710511 406.128222 
L 306.977936 406.642846 
L 307.512787 407.111687 
L 307.780213 407.004862 
L 308.047638 406.31135 
L 308.315064 408.263018 
L 308.582489 407.382987 
L 308.849915 407.250728 
L 309.11734 406.333393 
L 309.384766 406.324067 
L 309.652191 407.423682 
L 310.187042 407.341444 
L 310.454468 406.82343 
L 310.721893 407.915414 
L 310.989319 407.767047 
L 311.256744 406.666584 
L 311.791595 406.906516 
L 312.059021 408.312191 
L 312.861297 407.018427 
L 313.128722 407.952718 
L 313.663573 407.931523 
L 313.930999 407.058274 
L 314.198424 406.653019 
L 314.46585 408.127368 
L 314.733275 407.80096 
L 315.000701 406.842082 
L 315.268126 407.414356 
L 315.535552 408.39019 
L 315.802977 410.753048 
L 316.070403 410.586876 
L 316.337828 410.098536 
L 316.605254 411.187977 
L 316.872679 409.2397 
L 317.140105 408.497863 
L 317.40753 406.818343 
L 317.674956 406.85819 
L 317.942381 407.428769 
L 318.477232 407.433008 
L 318.744658 406.829365 
L 319.012083 407.384683 
L 319.279509 407.633092 
L 319.546934 407.403335 
L 319.81436 406.674215 
L 320.081785 410.444444 
L 320.349211 411.235454 
L 320.616636 411.018414 
L 320.884062 410.449531 
L 321.151487 407.650896 
L 321.418913 408.259627 
L 321.686338 408.092608 
L 321.953764 407.418595 
L 322.221189 405.947638 
L 322.488615 408.302018 
L 322.75604 407.442334 
L 323.023466 407.396552 
L 323.290891 406.378328 
L 323.825742 407.065057 
L 324.093168 406.650476 
L 324.360593 406.688628 
L 324.628019 406.101092 
L 324.895444 407.806894 
L 325.16287 407.908632 
L 325.430295 408.264714 
L 325.965146 407.043014 
L 326.232572 407.979848 
L 326.499997 407.995109 
L 327.034848 406.764931 
L 327.302273 407.979 
L 327.569699 408.047673 
L 327.837124 406.808169 
L 328.10455 406.600455 
L 328.371975 407.167642 
L 328.639401 408.808163 
L 329.174252 407.29651 
L 329.709103 408.389342 
L 329.976528 408.004435 
L 330.243954 407.919653 
L 330.511379 407.331271 
L 330.778805 407.035383 
L 331.04623 407.486421 
L 331.313656 407.420291 
L 331.581081 406.890407 
L 332.115932 407.78909 
L 332.383358 407.625462 
L 332.918209 406.462261 
L 333.185634 408.367299 
L 333.45306 408.000196 
L 333.720485 408.06463 
L 333.987911 407.331271 
L 334.255336 407.24988 
L 334.522762 408.0375 
L 334.790187 408.11889 
L 335.057613 407.420291 
L 335.325038 407.21512 
L 336.127315 407.54492 
L 336.39474 406.797148 
L 336.929591 408.129064 
L 337.197017 408.168911 
L 337.464442 407.550854 
L 337.731868 408.406299 
L 337.999293 407.669548 
L 338.266719 407.741613 
L 338.80157 406.369849 
L 339.068995 407.988326 
L 339.336421 408.345256 
L 339.603846 407.917958 
L 340.138697 407.859459 
L 340.406123 408.460559 
L 340.673548 407.365183 
L 340.940973 407.538137 
L 341.208399 406.857343 
L 341.475824 409.037072 
L 341.74325 409.324481 
L 342.010675 409.164244 
L 342.278101 408.357973 
L 342.545526 407.952718 
L 342.812952 408.72762 
L 343.347803 408.279127 
L 343.615228 407.519485 
L 343.882654 408.769163 
L 344.150079 408.704729 
L 344.417505 408.823423 
L 344.68493 407.982392 
L 344.952356 408.592818 
L 345.219781 408.697947 
L 345.487207 408.997225 
L 345.754632 407.23462 
L 346.022058 407.979848 
L 346.289483 409.413502 
L 346.556909 409.439784 
L 346.824334 409.288873 
L 347.09176 408.559753 
L 347.359185 408.909052 
L 347.626611 408.601296 
L 347.894036 408.503797 
L 348.161462 407.717026 
L 348.696313 408.831901 
L 349.231164 408.641143 
L 349.498589 410.683527 
L 349.766015 411.482168 
L 350.03344 411.471146 
L 350.568291 407.945936 
L 351.103142 409.8213 
L 351.370568 408.677599 
L 351.905419 407.628853 
L 352.44027 407.382987 
L 352.707695 407.271076 
L 353.242546 411.30667 
L 353.777397 411.314301 
L 354.044823 408.430038 
L 354.312248 408.950595 
L 354.579674 409.809431 
L 354.847099 409.072681 
L 355.114524 408.778489 
L 355.38195 408.139237 
L 355.649375 409.983233 
L 355.916801 409.962885 
L 356.451652 408.748816 
L 356.719077 409.256656 
L 356.986503 408.487689 
L 357.253928 408.268953 
L 357.521354 407.832329 
L 357.788779 407.955262 
L 358.32363 407.861154 
L 358.591056 407.639875 
L 358.858481 406.98621 
L 359.393332 409.222744 
L 359.660758 409.140506 
L 359.928183 407.752634 
L 360.463034 408.679295 
L 361.265311 407.887437 
L 361.532736 409.254961 
L 362.602438 408.731859 
L 362.869864 408.835293 
L 363.137289 408.705577 
L 363.404715 408.859031 
L 363.67214 407.797568 
L 363.939566 409.502522 
L 364.206991 409.437241 
L 364.474417 409.533044 
L 364.741842 408.775098 
L 365.009268 407.616136 
L 365.276693 408.634361 
L 365.544119 408.738642 
L 365.811544 407.955262 
L 366.346395 409.423676 
L 366.613821 409.364329 
L 366.881246 408.838684 
L 367.148672 407.763656 
L 367.416097 409.360089 
L 367.683523 409.398241 
L 367.950948 409.741606 
L 368.218374 408.836988 
L 368.485799 409.219352 
L 368.753225 410.326597 
L 369.288075 408.212997 
L 369.555501 407.842502 
L 369.822926 408.517362 
L 370.357777 408.741185 
L 370.625203 408.167215 
L 370.892628 408.446994 
L 371.160054 409.152375 
L 371.427479 408.96416 
L 371.694905 408.373234 
L 371.96233 409.143049 
L 372.229756 409.210874 
L 372.497181 412.429176 
L 372.764607 412.487675 
L 373.032032 411.798403 
L 373.299458 413.165927 
L 373.566883 413.119297 
L 373.834309 413.198144 
L 374.101734 412.449524 
L 374.36916 412.116333 
L 374.636585 412.420698 
L 374.904011 411.845032 
L 375.171436 411.789077 
L 375.438862 411.46606 
L 375.706287 413.09471 
L 375.973713 412.740324 
L 376.241138 412.760672 
L 376.508564 412.666564 
L 376.775989 412.98619 
L 377.043415 412.712346 
L 377.31084 412.926843 
L 377.578266 412.393568 
L 377.845691 412.75728 
L 378.113117 413.63392 
L 378.380542 413.782287 
L 378.915393 412.038334 
L 379.182819 413.190513 
L 379.71767 412.29183 
L 379.985095 411.611036 
L 380.252521 412.167202 
L 380.519946 413.000603 
L 381.054797 412.785258 
L 381.322223 412.272331 
L 381.589648 413.414336 
L 381.857074 413.442314 
L 382.124499 413.071819 
L 382.391925 411.861141 
L 382.65935 412.645369 
L 382.926775 416.143449 
L 383.461626 415.326157 
L 383.729052 415.343961 
L 383.996477 413.76194 
L 384.263903 414.240107 
L 384.531328 414.139217 
L 384.798754 412.882757 
L 385.066179 413.782287 
L 385.333605 412.977712 
L 385.60103 413.165927 
L 385.868456 412.598739 
L 386.403307 412.855627 
L 386.670732 412.947191 
L 386.938158 412.633499 
L 387.205583 411.923879 
L 387.473009 413.935742 
L 387.740434 414.114631 
L 388.275285 412.601282 
L 388.542711 412.928539 
L 388.810136 413.449944 
L 389.077562 413.284621 
L 389.344987 412.555501 
L 389.879838 414.413909 
L 390.147264 414.543624 
L 390.414689 414.214673 
L 390.682115 413.508443 
L 390.94954 414.496995 
L 391.216966 413.868764 
L 391.484391 413.797548 
L 391.751817 412.741172 
L 392.019242 413.028581 
L 392.286668 412.322352 
L 392.554093 412.351177 
L 392.821519 412.146006 
L 393.088944 411.492342 
L 393.35637 413.306664 
L 393.623795 413.449944 
L 394.158646 412.203658 
L 394.426072 412.768302 
L 394.693497 413.683093 
L 395.495774 412.460545 
L 395.763199 414.511407 
L 396.29805 413.888264 
L 396.565476 413.243926 
L 396.832901 413.520313 
L 397.100326 414.02561 
L 397.367752 413.840787 
L 397.635177 413.233752 
L 397.902603 413.056559 
L 398.170028 413.290555 
L 398.704879 413.276142 
L 398.972305 412.622478 
L 399.23973 412.964995 
L 399.507156 413.057406 
L 399.774581 413.026037 
L 400.042007 412.185006 
L 400.309432 412.475806 
L 400.576858 413.442314 
L 400.844283 413.406706 
L 401.111709 413.193904 
L 401.379134 412.410524 
L 401.64656 413.844178 
L 402.181411 412.368981 
L 402.448836 412.445285 
L 402.716262 412.724216 
L 402.983687 413.202383 
L 403.251113 413.196448 
L 403.518538 412.50124 
L 403.785964 413.015016 
L 404.053389 414.494451 
L 404.320815 414.615689 
L 404.58824 414.57245 
L 404.855666 413.504204 
L 405.123091 413.785679 
L 405.390517 413.832308 
L 405.657942 413.728027 
L 405.925368 412.855627 
L 406.192793 413.662746 
L 406.99507 411.739903 
L 407.262495 410.748809 
L 407.529921 412.552957 
L 408.064772 412.414763 
L 408.332197 411.594927 
L 408.599623 411.714469 
L 408.867048 413.946763 
L 409.134474 413.96372 
L 409.669325 411.577123 
L 409.93675 412.107007 
L 410.204176 412.056138 
L 410.739027 411.022653 
L 411.006452 412.467328 
L 411.273877 412.483436 
L 411.541303 412.285896 
L 411.808728 411.539819 
L 412.076154 412.31896 
L 412.343579 411.444864 
L 412.611005 411.798403 
L 412.87843 411.156607 
L 413.145856 410.986197 
L 413.413281 412.961603 
L 413.680707 413.199839 
L 413.948132 413.050624 
L 414.215558 412.157876 
L 414.482983 411.789077 
L 414.750409 412.437654 
L 415.017834 412.287591 
L 415.28526 412.429176 
L 415.552685 411.849271 
L 415.820111 412.870887 
L 416.354962 413.01332 
L 416.622387 415.351591 
L 416.889813 415.440612 
L 417.157238 414.987031 
L 417.424664 412.918365 
L 417.692089 412.254527 
L 417.959515 412.268092 
L 418.22694 412.635195 
L 418.494366 412.199419 
L 418.761791 412.355416 
L 419.029217 411.046392 
L 419.296642 411.213411 
L 419.564068 411.93914 
L 419.831493 411.769577 
L 420.098919 414.07987 
L 420.63377 415.935735 
L 420.901195 415.865366 
L 421.168621 413.373641 
L 421.436046 412.76915 
L 421.703472 413.39738 
L 421.970897 412.954821 
L 422.238323 412.75728 
L 422.505748 411.930662 
L 422.773174 412.387633 
L 423.040599 412.384242 
L 423.308025 411.539819 
L 423.57545 411.568645 
L 423.842876 411.012479 
L 424.110301 412.348634 
L 424.377727 412.150245 
L 424.645152 412.329134 
L 425.180003 411.844185 
L 425.447428 412.914126 
L 425.714854 412.23757 
L 425.982279 411.918792 
L 426.249705 411.195607 
L 426.51713 412.775932 
L 426.784556 412.591109 
L 427.051981 412.590261 
L 427.586832 410.797982 
L 427.854258 411.521167 
L 428.121683 411.559319 
L 428.389109 411.074369 
L 428.656534 410.904807 
L 428.92396 411.625449 
L 429.191385 411.753468 
L 429.458811 410.534312 
L 429.726236 410.361358 
L 429.993662 411.076913 
L 430.261087 411.241389 
L 430.528513 411.650883 
L 430.795938 411.009088 
L 431.063364 411.453342 
L 431.330789 412.336765 
L 431.86564 412.239266 
L 432.133066 411.502516 
L 432.400491 411.871315 
L 432.667917 412.046812 
L 432.935342 411.727186 
L 433.202768 410.984501 
L 433.737619 412.154484 
L 434.005044 411.854358 
L 434.27247 412.044269 
L 434.539895 411.653426 
L 434.807321 412.786954 
L 435.074746 412.150245 
L 435.342172 412.044269 
L 435.609597 411.164238 
L 435.877023 411.576275 
L 436.144448 412.636891 
L 436.411874 412.255374 
L 436.679299 411.525406 
L 436.946725 411.861141 
L 437.21415 411.736512 
L 437.481576 411.948466 
L 437.749001 411.856054 
L 438.016427 411.233758 
L 438.283852 413.009081 
L 438.551278 413.055711 
L 438.818703 412.95906 
L 439.086129 412.312178 
L 439.353554 412.990429 
L 439.620979 412.836975 
L 439.888405 412.842062 
L 440.15583 412.172289 
L 440.423256 411.9544 
L 440.690681 413.691571 
L 441.225532 413.420271 
L 441.492958 412.344395 
L 441.760383 412.899713 
L 442.027809 413.779744 
L 442.56266 412.581783 
L 442.830085 413.236295 
L 443.097511 412.383394 
L 443.364936 412.207897 
L 443.899787 411.324475 
L 444.167213 413.391445 
L 444.434638 412.730998 
L 444.702064 412.653847 
L 444.969489 411.948466 
L 445.50434 412.382546 
L 445.771766 412.329982 
L 446.306617 411.041305 
L 446.574042 412.664869 
L 446.841468 412.642825 
L 447.108893 412.775084 
L 447.376319 411.804337 
L 447.643744 412.273178 
L 447.91117 413.54066 
L 448.178595 416.83357 
L 448.446021 415.884018 
L 448.713446 416.223992 
L 448.980872 417.181174 
L 449.515723 416.925134 
L 449.783148 416.151928 
L 450.050574 419.368534 
L 450.317999 419.21508 
L 450.585425 419.256623 
L 450.85285 416.18584 
L 451.387701 416.64366 
L 451.922552 415.494024 
L 452.189978 414.785251 
L 452.457403 415.775498 
L 452.992254 415.723782 
L 453.259679 415.068421 
L 453.527105 415.3287 
L 453.79453 419.563531 
L 454.061956 419.73479 
L 454.329381 419.165906 
L 454.596807 418.897997 
L 454.864232 419.920461 
L 455.131658 420.285869 
L 455.399083 419.920461 
L 455.666509 418.429156 
L 455.933934 419.985743 
L 456.20136 420.095111 
L 456.468785 419.68816 
L 456.736211 418.944627 
L 457.003636 419.126059 
L 457.271062 419.04043 
L 457.538487 418.062053 
L 457.805913 418.159551 
L 458.073338 417.369389 
L 458.340764 418.941236 
L 458.608189 419.271883 
L 458.875615 419.123516 
L 459.14304 418.411352 
L 459.677891 418.645349 
L 459.945317 418.241789 
L 460.212742 417.471126 
L 460.480168 417.794143 
L 460.747593 419.458402 
L 461.015019 419.510967 
L 461.282444 419.100625 
L 461.817295 417.798382 
L 462.084721 417.875534 
L 462.619572 417.399062 
L 462.886997 418.596175 
L 463.421848 418.223137 
L 463.689274 418.304527 
L 463.956699 417.092153 
L 464.224125 418.198551 
L 464.758976 418.450351 
L 465.026401 417.661037 
L 465.561252 418.779303 
L 465.828678 418.854759 
L 466.096103 418.69537 
L 466.363529 417.510973 
L 466.630954 419.104016 
L 467.165805 419.16082 
L 467.43323 418.677566 
L 467.700656 417.675449 
L 467.968081 418.196007 
L 468.235507 418.090878 
L 468.502932 417.054002 
L 468.770358 416.605508 
L 469.305209 416.357099 
L 469.572634 416.506314 
L 469.84006 415.83315 
L 470.107485 416.591943 
L 470.374911 417.846708 
L 470.909762 416.87257 
L 471.177187 417.019241 
L 471.444613 417.802621 
L 471.979464 417.71784 
L 472.246889 416.920895 
L 472.514315 416.906482 
L 472.78174 417.073501 
L 473.049166 417.521995 
L 473.316591 416.819157 
L 473.584017 416.970916 
L 473.851442 416.653833 
L 474.118868 416.580074 
L 474.653719 415.222723 
L 474.921144 415.9688 
L 475.18857 416.100211 
L 475.455995 415.935735 
L 475.723421 415.142181 
L 475.990846 415.422808 
L 476.258272 416.531748 
L 476.525697 415.90267 
L 476.793123 414.892076 
L 477.060548 415.360069 
L 477.327974 414.849685 
L 477.595399 414.885293 
L 477.862825 414.598732 
L 478.13025 413.939133 
L 478.397676 414.531755 
L 478.665101 415.88741 
L 478.932527 415.633913 
L 479.199952 414.76236 
L 479.467378 415.538958 
L 479.734803 415.3287 
L 480.002229 414.33591 
L 480.269654 413.811113 
L 480.53708 414.055284 
L 480.804505 415.488937 
L 481.071931 415.695804 
L 481.339356 415.583892 
L 481.606781 414.930228 
L 482.141632 416.320643 
L 482.676483 414.909032 
L 482.943909 415.385504 
L 483.211334 414.997205 
L 483.47876 415.178637 
L 483.746185 417.802621 
L 484.013611 417.245608 
L 484.281036 418.453743 
L 484.548462 415.52285 
L 484.815887 415.101486 
L 485.350738 413.192209 
L 485.618164 412.711498 
L 485.885589 412.603826 
L 486.153015 412.673347 
L 486.42044 412.233331 
L 486.687866 413.367706 
L 486.955291 413.32362 
L 487.222717 416.213818 
L 487.490142 415.478763 
L 487.757568 415.784824 
L 488.024993 416.803049 
L 488.292419 414.633493 
L 488.559844 413.904373 
L 488.82727 414.327432 
L 489.362121 413.293099 
L 489.629546 413.154905 
L 489.896972 415.950148 
L 490.164397 417.22526 
L 490.699248 414.788643 
L 490.966674 414.634341 
L 491.234099 415.016705 
L 491.501525 415.846715 
L 492.036376 415.70513 
L 492.303801 414.522429 
L 492.571227 415.889953 
L 493.106078 416.109537 
L 493.373503 415.316831 
L 493.640929 415.499959 
L 493.908354 415.973887 
L 494.17578 415.951843 
L 494.443205 415.29394 
L 494.710631 415.480459 
L 494.978056 414.595341 
L 495.780332 413.344815 
L 496.047758 415.118442 
L 496.582609 415.141333 
L 496.850034 414.042566 
L 497.11746 414.383388 
L 497.384885 415.303266 
L 497.652311 415.199832 
L 498.187162 414.029849 
L 498.454587 415.228658 
L 498.722013 415.231202 
L 498.989438 415.027726 
L 499.256864 414.38254 
L 499.791715 415.583044 
L 500.05914 415.435525 
L 500.326566 414.829338 
L 500.593991 415.295635 
L 500.861417 413.958633 
L 501.128842 414.325736 
L 501.396268 414.341845 
L 501.663693 413.116753 
L 502.198544 415.150659 
L 502.46597 415.055704 
L 502.733395 417.275281 
L 503.000821 417.625428 
L 503.268246 418.340983 
L 504.070523 415.704282 
L 504.337948 416.685203 
L 504.872799 416.628399 
L 505.140225 415.884866 
L 505.675076 416.630943 
L 506.209927 415.00314 
L 506.477352 415.20068 
L 506.744778 417.152348 
L 507.279629 416.968372 
L 507.547054 416.258752 
L 507.81448 416.097668 
L 508.081905 419.982351 
L 508.349331 419.984047 
L 508.616756 419.294774 
L 508.884182 419.577944 
L 509.151607 420.047633 
L 509.419032 419.589813 
L 509.686458 419.489771 
L 509.953883 418.694522 
L 510.221309 419.928091 
L 510.488734 419.624574 
L 510.75616 419.6339 
L 511.023585 418.307919 
L 511.558436 419.392273 
L 512.093287 418.654675 
L 512.360713 417.781426 
L 512.628138 419.653399 
L 512.895564 418.845433 
L 513.162989 418.844585 
L 513.69784 417.414323 
L 513.965266 418.383374 
L 514.232691 418.229072 
L 514.500117 417.521147 
L 514.767542 417.638993 
L 515.034968 418.911562 
L 515.302393 418.744543 
L 515.837244 417.553364 
L 516.372095 419.519445 
L 516.639521 419.454163 
L 516.906946 418.531742 
L 517.174372 421.61185 
L 517.441797 422.047626 
L 517.976648 420.061198 
L 518.244074 417.901816 
L 518.511499 418.135812 
L 518.778925 418.142595 
L 519.04635 417.112501 
L 519.313776 416.671638 
L 519.848627 417.837382 
L 520.116052 417.629667 
L 520.650903 416.211275 
L 520.918329 416.669094 
L 521.45318 415.77465 
L 521.720605 415.151507 
L 521.988031 415.926409 
L 522.255456 415.874692 
L 522.522882 415.081138 
L 522.790307 415.179485 
L 523.057733 415.419416 
L 523.325158 416.215514 
L 523.860009 415.954387 
L 524.127434 415.148116 
L 524.39486 417.112501 
L 524.929711 417.059089 
L 525.464562 414.98364 
L 525.731987 415.539806 
L 526.534264 414.248585 
L 526.801689 415.521154 
L 527.33654 415.297331 
L 527.603966 414.574994 
L 528.138817 414.986183 
L 528.406242 414.666557 
L 528.673668 413.933198 
L 528.941093 413.975589 
L 529.208519 414.845446 
L 529.475944 414.173977 
L 529.74337 414.474104 
L 530.010795 413.620355 
L 530.278221 414.043414 
L 530.545646 414.77423 
L 530.813072 414.742013 
L 531.347923 413.360076 
L 531.615348 414.004415 
L 532.150199 414.352018 
L 532.417625 413.664441 
L 532.68505 414.781012 
L 532.952476 414.264694 
L 533.487327 412.583478 
L 534.022178 414.324888 
L 534.289603 413.939981 
L 534.557029 414.023067 
L 534.824454 413.30412 
L 535.09188 414.263846 
L 535.359305 413.942524 
L 535.626731 414.014588 
L 535.894156 416.74455 
L 536.161582 417.123522 
L 536.429007 417.925555 
L 536.696433 417.876381 
L 537.231284 416.715724 
L 537.498709 417.789056 
L 537.766134 417.855186 
L 538.03356 417.464344 
L 538.300985 415.80178 
L 538.568411 417.009068 
L 538.835836 416.777614 
L 539.103262 416.377446 
L 539.370687 415.264266 
L 539.638113 414.813229 
L 539.905538 416.192623 
L 540.172964 415.791607 
L 540.440389 415.676304 
L 540.707815 415.327005 
L 540.97524 415.909453 
L 541.242666 416.134124 
L 541.510091 415.993386 
L 542.044942 414.68097 
L 542.312368 416.089189 
L 542.579793 415.791607 
L 542.847219 414.778469 
L 543.114644 414.63858 
L 543.38207 416.075624 
L 543.649495 415.954387 
L 543.916921 414.441039 
L 544.451772 414.387627 
L 544.719197 414.787795 
L 544.986623 414.678427 
L 545.254048 414.315562 
L 545.521474 414.441039 
L 545.788899 415.360917 
L 546.056325 415.469437 
L 546.32375 415.353287 
L 546.591176 414.655536 
L 546.858601 414.953966 
L 547.660878 412.770845 
L 547.928303 413.569486 
L 548.195729 413.90946 
L 548.463154 413.794157 
L 548.73058 412.2842 
L 548.998005 412.756432 
L 549.265431 413.931503 
L 549.532856 413.527095 
L 549.800282 413.482161 
L 550.067707 412.825953 
L 550.335133 413.904373 
L 550.602558 414.287585 
L 550.869984 417.046371 
L 551.137409 416.870026 
L 551.404835 416.8607 
L 551.67226 415.731412 
L 551.939685 415.217637 
L 552.207111 415.117594 
L 552.474536 414.083261 
L 552.741962 415.447394 
L 553.009387 415.586436 
L 553.276813 415.455872 
L 553.544238 414.86325 
L 553.811664 413.669528 
L 554.079089 416.842896 
L 554.346515 416.473249 
L 554.61394 416.36812 
L 554.881366 413.62629 
L 555.148791 414.573298 
L 555.416217 414.437648 
L 555.683642 413.928959 
L 555.951068 412.354569 
L 556.218493 411.749229 
L 556.485919 413.156601 
L 556.753344 412.709803 
L 557.02077 412.006965 
L 557.288195 412.191788 
L 557.555621 412.761519 
L 558.090472 412.070551 
L 558.357897 411.05487 
L 558.625323 413.161688 
L 558.892748 411.948466 
L 559.160174 411.598319 
L 559.695025 410.025623 
L 559.96245 411.165933 
L 560.497301 410.713201 
L 560.764727 410.328293 
L 561.032152 411.139651 
L 561.299578 411.149825 
L 562.101854 409.973059 
L 562.36928 411.09726 
L 562.636705 410.580094 
L 562.904131 410.731853 
L 563.171556 410.056993 
L 563.438982 411.194759 
L 563.706407 411.020957 
L 563.973833 411.46606 
L 564.508684 410.045123 
L 564.776109 410.168056 
L 565.043535 410.121426 
L 565.31096 409.339742 
L 565.578386 409.834865 
L 565.845811 410.911589 
L 566.113236 410.605528 
L 566.380662 410.528377 
L 566.648087 408.998073 
L 566.915513 410.071405 
L 567.450364 409.811127 
L 567.717789 409.079463 
L 568.25264 410.933632 
L 568.520066 411.125238 
L 568.787491 411.176107 
L 569.054917 410.405444 
L 569.322342 410.725918 
L 569.589768 410.245207 
L 569.857193 409.460979 
L 570.124619 409.105745 
L 570.65947 411.269367 
L 570.926895 411.015022 
L 571.194321 409.819605 
L 571.461746 410.117187 
L 571.996597 410.179926 
L 572.264023 410.183317 
L 572.531448 409.67802 
L 572.798874 410.189252 
L 573.066299 411.282084 
L 573.60115 410.07734 
L 573.868576 409.899299 
L 574.136001 410.532616 
L 574.403427 409.99595 
L 574.670852 409.837409 
L 575.205703 408.065477 
L 575.473129 407.762808 
L 576.00798 406.601303 
L 576.275405 407.126947 
L 576.542831 408.719142 
L 576.810256 408.952291 
L 577.345107 407.975609 
L 577.612533 408.468189 
L 578.147384 408.168911 
L 578.414809 407.493203 
L 578.94966 408.797141 
L 579.217086 412.407981 
L 579.484511 411.603405 
L 579.751936 412.011204 
L 580.019362 411.61697 
L 580.286787 411.507602 
L 580.554213 411.020109 
L 580.821638 410.201969 
L 581.089064 411.165933 
L 581.623915 409.567804 
L 581.89134 408.664882 
L 582.158766 409.2592 
L 582.426191 410.261316 
L 582.693617 409.939994 
L 582.961042 410.275729 
L 583.228468 409.591543 
L 583.495893 410.921763 
L 583.763319 410.873438 
L 584.030744 410.446987 
L 584.29817 412.229092 
L 584.565595 412.500393 
L 584.833021 413.109971 
L 585.100446 412.960756 
L 585.367872 410.125666 
L 585.635297 410.31388 
L 585.902723 410.687766 
L 586.170148 410.301163 
L 586.437574 410.328293 
L 586.704999 408.866662 
L 586.972425 410.519051 
L 587.23985 410.632658 
L 587.507276 413.380424 
L 588.042127 412.073942 
L 588.309552 412.38509 
L 588.576978 410.009515 
L 588.844403 410.068862 
L 589.111829 409.442327 
L 589.379254 410.263011 
L 589.64668 409.829778 
L 589.914105 409.644107 
L 590.181531 409.167636 
L 590.448956 412.999755 
L 590.716382 413.496574 
L 590.983807 413.756005 
L 591.251233 413.072667 
L 591.518658 412.948886 
L 591.786084 413.815352 
L 592.053509 413.035363 
L 592.320935 412.817475 
L 592.58836 412.143463 
L 592.855786 413.472835 
L 593.123211 412.529218 
L 593.390637 412.07479 
L 593.925487 409.911169 
L 594.192913 411.211715 
L 594.727764 410.803917 
L 594.995189 410.02308 
L 595.262615 411.005697 
L 595.53004 411.090478 
L 595.797466 411.020109 
L 596.064891 410.095992 
L 596.332317 410.474117 
L 596.599742 411.6636 
L 597.134593 410.638593 
L 597.402019 410.738635 
L 597.669444 411.52795 
L 598.471721 410.101927 
L 598.739146 409.176114 
L 599.006572 410.210447 
L 599.273997 409.967124 
L 599.541423 409.209179 
L 599.808848 409.44911 
L 600.076274 409.94932 
L 600.343699 409.997646 
L 600.87855 409.332959 
L 601.145976 410.082427 
L 601.413401 409.672933 
L 601.680827 409.558478 
L 601.948252 408.662339 
L 602.215678 409.195614 
L 602.483103 408.936182 
L 602.750529 409.015877 
L 603.017954 408.80138 
L 603.28538 408.364756 
L 603.552805 408.372386 
L 603.820231 411.782294 
L 604.087656 411.856902 
L 604.355082 411.182042 
L 604.622507 412.050203 
L 604.889933 413.502509 
L 605.157358 413.278686 
L 605.424784 412.188397 
L 605.959635 414.248585 
L 606.22706 413.996784 
L 606.494486 413.132862 
L 606.761911 412.666564 
L 607.029337 414.248585 
L 607.296762 413.884025 
L 607.564188 413.871308 
L 607.831613 413.169318 
L 608.099038 413.049776 
L 608.366464 413.186274 
L 608.901315 413.109971 
L 609.16874 411.411799 
L 609.436166 413.656811 
L 609.703591 412.949734 
L 609.971017 425.886528 
L 610.505868 423.700016 
L 610.773293 424.500352 
L 611.040719 424.078989 
L 611.308144 423.34563 
L 611.842995 424.791152 
L 612.110421 424.712306 
L 612.377846 424.758936 
L 612.645272 424.002685 
L 612.912697 425.461773 
L 613.180123 424.748762 
L 613.447548 424.608025 
L 613.714974 423.973012 
L 613.982399 423.934012 
L 614.249825 424.797087 
L 614.51725 425.009888 
L 614.784676 424.741979 
L 615.052101 424.26466 
L 615.319527 425.196408 
L 615.854378 424.925955 
L 616.121803 423.965382 
L 616.389229 423.510953 
L 616.656654 428.396905 
L 616.92408 428.53849 
L 617.458931 427.31679 
L 617.726356 430.92 
L 617.993782 430.584266 
L 618.528633 429.037853 
L 618.796058 427.421919 
L 619.063484 427.888217 
L 619.330909 427.62709 
L 619.330909 427.62709 
" style="fill:none;stroke:#1f77b4;stroke-linecap:square;stroke-width:1.5;"/>
   </g>
   <g id="patch_3">
    <path d="M 108 448.56 
L 108 60.48 
" style="fill:none;stroke:#000000;stroke-linecap:square;stroke-linejoin:miter;stroke-width:0.8;"/>
   </g>
   <g id="patch_4">
    <path d="M 643.68 448.56 
L 643.68 60.48 
" style="fill:none;stroke:#000000;stroke-linecap:square;stroke-linejoin:miter;stroke-width:0.8;"/>
   </g>
   <g id="patch_5">
    <path d="M 108 448.56 
L 643.68 448.56 
" style="fill:none;stroke:#000000;stroke-linecap:square;stroke-linejoin:miter;stroke-width:0.8;"/>
   </g>
   <g id="patch_6">
    <path d="M 108 60.48 
L 643.68 60.48 
" style="fill:none;stroke:#000000;stroke-linecap:square;stroke-linejoin:miter;stroke-width:0.8;"/>
   </g>
   <g id="text_32">
    <!-- unikernel_fbuddyalloc - free -->
    <g transform="translate(271.560703 54.48)scale(0.15 -0.15)">
     <defs>
      <path d="M 8.5 21.578125 
L 8.5 54.6875 
L 17.484375 54.6875 
L 17.484375 21.921875 
Q 17.484375 14.15625 20.5 10.265625 
Q 23.53125 6.390625 29.59375 6.390625 
Q 36.859375 6.390625 41.078125 11.03125 
Q 45.3125 15.671875 45.3125 23.6875 
L 45.3125 54.6875 
L 54.296875 54.6875 
L 54.296875 0 
L 45.3125 0 
L 45.3125 8.40625 
Q 42.046875 3.421875 37.71875 1 
Q 33.40625 -1.421875 27.6875 -1.421875 
Q 18.265625 -1.421875 13.375 4.4375 
Q 8.5 10.296875 8.5 21.578125 
z
M 31.109375 56 
z
" id="DejaVuSans-117"/>
      <path d="M 54.890625 33.015625 
L 54.890625 0 
L 45.90625 0 
L 45.90625 32.71875 
Q 45.90625 40.484375 42.875 44.328125 
Q 39.84375 48.1875 33.796875 48.1875 
Q 26.515625 48.1875 22.3125 43.546875 
Q 18.109375 38.921875 18.109375 30.90625 
L 18.109375 0 
L 9.078125 0 
L 9.078125 54.6875 
L 18.109375 54.6875 
L 18.109375 46.1875 
Q 21.34375 51.125 25.703125 53.5625 
Q 30.078125 56 35.796875 56 
Q 45.21875 56 50.046875 50.171875 
Q 54.890625 44.34375 54.890625 33.015625 
z
" id="DejaVuSans-110"/>
      <path d="M 9.078125 75.984375 
L 18.109375 75.984375 
L 18.109375 31.109375 
L 44.921875 54.6875 
L 56.390625 54.6875 
L 27.390625 29.109375 
L 57.625 0 
L 45.90625 0 
L 18.109375 26.703125 
L 18.109375 0 
L 9.078125 0 
z
" id="DejaVuSans-107"/>
      <path d="M 41.109375 46.296875 
Q 39.59375 47.171875 37.8125 47.578125 
Q 36.03125 48 33.890625 48 
Q 26.265625 48 22.1875 43.046875 
Q 18.109375 38.09375 18.109375 28.8125 
L 18.109375 0 
L 9.078125 0 
L 9.078125 54.6875 
L 18.109375 54.6875 
L 18.109375 46.1875 
Q 20.953125 51.171875 25.484375 53.578125 
Q 30.03125 56 36.53125 56 
Q 37.453125 56 38.578125 55.875 
Q 39.703125 55.765625 41.0625 55.515625 
z
" id="DejaVuSans-114"/>
      <path d="M 9.421875 75.984375 
L 18.40625 75.984375 
L 18.40625 0 
L 9.421875 0 
z
" id="DejaVuSans-108"/>
      <path d="M 50.984375 -16.609375 
L 50.984375 -23.578125 
L -0.984375 -23.578125 
L -0.984375 -16.609375 
z
" id="DejaVuSans-95"/>
      <path d="M 37.109375 75.984375 
L 37.109375 68.5 
L 28.515625 68.5 
Q 23.6875 68.5 21.796875 66.546875 
Q 19.921875 64.59375 19.921875 59.515625 
L 19.921875 54.6875 
L 34.71875 54.6875 
L 34.71875 47.703125 
L 19.921875 47.703125 
L 19.921875 0 
L 10.890625 0 
L 10.890625 47.703125 
L 2.296875 47.703125 
L 2.296875 54.6875 
L 10.890625 54.6875 
L 10.890625 58.5 
Q 10.890625 67.625 15.140625 71.796875 
Q 19.390625 75.984375 28.609375 75.984375 
z
" id="DejaVuSans-102"/>
      <path d="M 48.6875 27.296875 
Q 48.6875 37.203125 44.609375 42.84375 
Q 40.53125 48.484375 33.40625 48.484375 
Q 26.265625 48.484375 22.1875 42.84375 
Q 18.109375 37.203125 18.109375 27.296875 
Q 18.109375 17.390625 22.1875 11.75 
Q 26.265625 6.109375 33.40625 6.109375 
Q 40.53125 6.109375 44.609375 11.75 
Q 48.6875 17.390625 48.6875 27.296875 
z
M 18.109375 46.390625 
Q 20.953125 51.265625 25.265625 53.625 
Q 29.59375 56 35.59375 56 
Q 45.5625 56 51.78125 48.09375 
Q 58.015625 40.1875 58.015625 27.296875 
Q 58.015625 14.40625 51.78125 6.484375 
Q 45.5625 -1.421875 35.59375 -1.421875 
Q 29.59375 -1.421875 25.265625 0.953125 
Q 20.953125 3.328125 18.109375 8.203125 
L 18.109375 0 
L 9.078125 0 
L 9.078125 75.984375 
L 18.109375 75.984375 
z
" id="DejaVuSans-98"/>
      <path d="M 45.40625 46.390625 
L 45.40625 75.984375 
L 54.390625 75.984375 
L 54.390625 0 
L 45.40625 0 
L 45.40625 8.203125 
Q 42.578125 3.328125 38.25 0.953125 
Q 33.9375 -1.421875 27.875 -1.421875 
Q 17.96875 -1.421875 11.734375 6.484375 
Q 5.515625 14.40625 5.515625 27.296875 
Q 5.515625 40.1875 11.734375 48.09375 
Q 17.96875 56 27.875 56 
Q 33.9375 56 38.25 53.625 
Q 42.578125 51.265625 45.40625 46.390625 
z
M 14.796875 27.296875 
Q 14.796875 17.390625 18.875 11.75 
Q 22.953125 6.109375 30.078125 6.109375 
Q 37.203125 6.109375 41.296875 11.75 
Q 45.40625 17.390625 45.40625 27.296875 
Q 45.40625 37.203125 41.296875 42.84375 
Q 37.203125 48.484375 30.078125 48.484375 
Q 22.953125 48.484375 18.875 42.84375 
Q 14.796875 37.203125 14.796875 27.296875 
z
" id="DejaVuSans-100"/>
      <path d="M 32.171875 -5.078125 
Q 28.375 -14.84375 24.75 -17.8125 
Q 21.140625 -20.796875 15.09375 -20.796875 
L 7.90625 -20.796875 
L 7.90625 -13.28125 
L 13.1875 -13.28125 
Q 16.890625 -13.28125 18.9375 -11.515625 
Q 21 -9.765625 23.484375 -3.21875 
L 25.09375 0.875 
L 2.984375 54.6875 
L 12.5 54.6875 
L 29.59375 11.921875 
L 46.6875 54.6875 
L 56.203125 54.6875 
z
" id="DejaVuSans-121"/>
      <path d="M 30.609375 48.390625 
Q 23.390625 48.390625 19.1875 42.75 
Q 14.984375 37.109375 14.984375 27.296875 
Q 14.984375 17.484375 19.15625 11.84375 
Q 23.34375 6.203125 30.609375 6.203125 
Q 37.796875 6.203125 41.984375 11.859375 
Q 46.1875 17.53125 46.1875 27.296875 
Q 46.1875 37.015625 41.984375 42.703125 
Q 37.796875 48.390625 30.609375 48.390625 
z
M 30.609375 56 
Q 42.328125 56 49.015625 48.375 
Q 55.71875 40.765625 55.71875 27.296875 
Q 55.71875 13.875 49.015625 6.21875 
Q 42.328125 -1.421875 30.609375 -1.421875 
Q 18.84375 -1.421875 12.171875 6.21875 
Q 5.515625 13.875 5.515625 27.296875 
Q 5.515625 40.765625 12.171875 48.375 
Q 18.84375 56 30.609375 56 
z
" id="DejaVuSans-111"/>
      <path d="M 48.78125 52.59375 
L 48.78125 44.1875 
Q 44.96875 46.296875 41.140625 47.34375 
Q 37.3125 48.390625 33.40625 48.390625 
Q 24.65625 48.390625 19.8125 42.84375 
Q 14.984375 37.3125 14.984375 27.296875 
Q 14.984375 17.28125 19.8125 11.734375 
Q 24.65625 6.203125 33.40625 6.203125 
Q 37.3125 6.203125 41.140625 7.25 
Q 44.96875 8.296875 48.78125 10.40625 
L 48.78125 2.09375 
Q 45.015625 0.34375 40.984375 -0.53125 
Q 36.96875 -1.421875 32.421875 -1.421875 
Q 20.0625 -1.421875 12.78125 6.34375 
Q 5.515625 14.109375 5.515625 27.296875 
Q 5.515625 40.671875 12.859375 48.328125 
Q 20.21875 56 33.015625 56 
Q 37.15625 56 41.109375 55.140625 
Q 45.0625 54.296875 48.78125 52.59375 
z
" id="DejaVuSans-99"/>
      <path id="DejaVuSans-32"/>
      <path d="M 4.890625 31.390625 
L 31.203125 31.390625 
L 31.203125 23.390625 
L 4.890625 23.390625 
z
" id="DejaVuSans-45"/>
     </defs>
     <use xlink:href="#DejaVuSans-117"/>
     <use x="63.378906" xlink:href="#DejaVuSans-110"/>
     <use x="126.757812" xlink:href="#DejaVuSans-105"/>
     <use x="154.541016" xlink:href="#DejaVuSans-107"/>
     <use x="208.826172" xlink:href="#DejaVuSans-101"/>
     <use x="270.349609" xlink:href="#DejaVuSans-114"/>
     <use x="309.712891" xlink:href="#DejaVuSans-110"/>
     <use x="373.091797" xlink:href="#DejaVuSans-101"/>
     <use x="434.615234" xlink:href="#DejaVuSans-108"/>
     <use x="462.398438" xlink:href="#DejaVuSans-95"/>
     <use x="512.398438" xlink:href="#DejaVuSans-102"/>
     <use x="547.603516" xlink:href="#DejaVuSans-98"/>
     <use x="611.080078" xlink:href="#DejaVuSans-117"/>
     <use x="674.458984" xlink:href="#DejaVuSans-100"/>
     <use x="737.935547" xlink:href="#DejaVuSans-100"/>
     <use x="801.412109" xlink:href="#DejaVuSans-121"/>
     <use x="860.591797" xlink:href="#DejaVuSans-97"/>
     <use x="921.871094" xlink:href="#DejaVuSans-108"/>
     <use x="949.654297" xlink:href="#DejaVuSans-108"/>
     <use x="977.4375" xlink:href="#DejaVuSans-111"/>
     <use x="1038.619141" xlink:href="#DejaVuSans-99"/>
     <use x="1093.599609" xlink:href="#DejaVuSans-32"/>
     <use x="1125.386719" xlink:href="#DejaVuSans-45"/>
     <use x="1161.470703" xlink:href="#DejaVuSans-32"/>
     <use x="1193.257812" xlink:href="#DejaVuSans-102"/>
     <use x="1228.462891" xlink:href="#DejaVuSans-114"/>
     <use x="1267.326172" xlink:href="#DejaVuSans-101"/>
     <use x="1328.849609" xlink:href="#DejaVuSans-101"/>
    </g>
   </g>
   <g id="legend_1">
    <g id="patch_7">
     <path d="M 650.68 258.52 
L 654.68 258.52 
Q 656.68 258.52 656.68 256.52 
L 656.68 252.52 
Q 656.68 250.52 654.68 250.52 
L 650.68 250.52 
Q 648.68 250.52 648.68 252.52 
L 648.68 256.52 
Q 648.68 258.52 650.68 258.52 
z
" style="fill:#ffffff;opacity:0.8;stroke:#cccccc;stroke-linejoin:miter;"/>
    </g>
   </g>
  </g>
 </g>
 <defs>
  <clipPath id="p6e008f39aa">
   <rect height="388.08" width="535.68" x="108" y="60.48"/>
  </clipPath>
 </defs>
</svg>
