<?xml version="1.0" encoding="utf-8" standalone="no"?>
<!DOCTYPE svg PUBLIC "-//W3C//DTD SVG 1.1//EN"
  "http://www.w3.org/Graphics/SVG/1.1/DTD/svg11.dtd">
<!-- Created with matplotlib (https://matplotlib.org/) -->
<svg height="504pt" version="1.1" viewBox="0 0 864 504" width="864pt" xmlns="http://www.w3.org/2000/svg" xmlns:xlink="http://www.w3.org/1999/xlink">
 <metadata>
  <rdf:RDF xmlns:cc="http://creativecommons.org/ns#" xmlns:dc="http://purl.org/dc/elements/1.1/" xmlns:rdf="http://www.w3.org/1999/02/22-rdf-syntax-ns#">
   <cc:Work>
    <dc:type rdf:resource="http://purl.org/dc/dcmitype/StillImage"/>
    <dc:date>2022-05-29T17:09:11.741832</dc:date>
    <dc:format>image/svg+xml</dc:format>
    <dc:creator>
     <cc:Agent>
      <dc:title>Matplotlib v3.3.4, https://matplotlib.org/</dc:title>
     </cc:Agent>
    </dc:creator>
   </cc:Work>
  </rdf:RDF>
 </metadata>
 <defs>
  <style type="text/css">*{stroke-linecap:butt;stroke-linejoin:round;}</style>
 </defs>
 <g id="figure_1">
  <g id="patch_1">
   <path d="M 0 504 
L 864 504 
L 864 0 
L 0 0 
z
" style="fill:#ffffff;"/>
  </g>
  <g id="axes_1">
   <g id="patch_2">
    <path d="M 108 448.56 
L 643.68 448.56 
L 643.68 60.48 
L 108 60.48 
z
" style="fill:#ffffff;"/>
   </g>
   <g id="matplotlib.axis_1">
    <g id="xtick_1">
     <g id="line2d_1">
      <defs>
       <path d="M 0 0 
L 0 3.5 
" id="mb3c470b102" style="stroke:#000000;stroke-width:0.8;"/>
      </defs>
      <g>
       <use style="stroke:#000000;stroke-width:0.8;" x="132.349091" xlink:href="#mb3c470b102" y="448.56"/>
      </g>
     </g>
     <g id="text_1">
      <!-- 14:19:06 -->
      <g transform="translate(135.108466 500.4725)rotate(-90)scale(0.1 -0.1)">
       <defs>
        <path d="M 12.40625 8.296875 
L 28.515625 8.296875 
L 28.515625 63.921875 
L 10.984375 60.40625 
L 10.984375 69.390625 
L 28.421875 72.90625 
L 38.28125 72.90625 
L 38.28125 8.296875 
L 54.390625 8.296875 
L 54.390625 0 
L 12.40625 0 
z
" id="DejaVuSans-49"/>
        <path d="M 37.796875 64.3125 
L 12.890625 25.390625 
L 37.796875 25.390625 
z
M 35.203125 72.90625 
L 47.609375 72.90625 
L 47.609375 25.390625 
L 58.015625 25.390625 
L 58.015625 17.1875 
L 47.609375 17.1875 
L 47.609375 0 
L 37.796875 0 
L 37.796875 17.1875 
L 4.890625 17.1875 
L 4.890625 26.703125 
z
" id="DejaVuSans-52"/>
        <path d="M 11.71875 12.40625 
L 22.015625 12.40625 
L 22.015625 0 
L 11.71875 0 
z
M 11.71875 51.703125 
L 22.015625 51.703125 
L 22.015625 39.3125 
L 11.71875 39.3125 
z
" id="DejaVuSans-58"/>
        <path d="M 10.984375 1.515625 
L 10.984375 10.5 
Q 14.703125 8.734375 18.5 7.8125 
Q 22.3125 6.890625 25.984375 6.890625 
Q 35.75 6.890625 40.890625 13.453125 
Q 46.046875 20.015625 46.78125 33.40625 
Q 43.953125 29.203125 39.59375 26.953125 
Q 35.25 24.703125 29.984375 24.703125 
Q 19.046875 24.703125 12.671875 31.3125 
Q 6.296875 37.9375 6.296875 49.421875 
Q 6.296875 60.640625 12.9375 67.421875 
Q 19.578125 74.21875 30.609375 74.21875 
Q 43.265625 74.21875 49.921875 64.515625 
Q 56.59375 54.828125 56.59375 36.375 
Q 56.59375 19.140625 48.40625 8.859375 
Q 40.234375 -1.421875 26.421875 -1.421875 
Q 22.703125 -1.421875 18.890625 -0.6875 
Q 15.09375 0.046875 10.984375 1.515625 
z
M 30.609375 32.421875 
Q 37.25 32.421875 41.125 36.953125 
Q 45.015625 41.5 45.015625 49.421875 
Q 45.015625 57.28125 41.125 61.84375 
Q 37.25 66.40625 30.609375 66.40625 
Q 23.96875 66.40625 20.09375 61.84375 
Q 16.21875 57.28125 16.21875 49.421875 
Q 16.21875 41.5 20.09375 36.953125 
Q 23.96875 32.421875 30.609375 32.421875 
z
" id="DejaVuSans-57"/>
        <path d="M 31.78125 66.40625 
Q 24.171875 66.40625 20.328125 58.90625 
Q 16.5 51.421875 16.5 36.375 
Q 16.5 21.390625 20.328125 13.890625 
Q 24.171875 6.390625 31.78125 6.390625 
Q 39.453125 6.390625 43.28125 13.890625 
Q 47.125 21.390625 47.125 36.375 
Q 47.125 51.421875 43.28125 58.90625 
Q 39.453125 66.40625 31.78125 66.40625 
z
M 31.78125 74.21875 
Q 44.046875 74.21875 50.515625 64.515625 
Q 56.984375 54.828125 56.984375 36.375 
Q 56.984375 17.96875 50.515625 8.265625 
Q 44.046875 -1.421875 31.78125 -1.421875 
Q 19.53125 -1.421875 13.0625 8.265625 
Q 6.59375 17.96875 6.59375 36.375 
Q 6.59375 54.828125 13.0625 64.515625 
Q 19.53125 74.21875 31.78125 74.21875 
z
" id="DejaVuSans-48"/>
        <path d="M 33.015625 40.375 
Q 26.375 40.375 22.484375 35.828125 
Q 18.609375 31.296875 18.609375 23.390625 
Q 18.609375 15.53125 22.484375 10.953125 
Q 26.375 6.390625 33.015625 6.390625 
Q 39.65625 6.390625 43.53125 10.953125 
Q 47.40625 15.53125 47.40625 23.390625 
Q 47.40625 31.296875 43.53125 35.828125 
Q 39.65625 40.375 33.015625 40.375 
z
M 52.59375 71.296875 
L 52.59375 62.3125 
Q 48.875 64.0625 45.09375 64.984375 
Q 41.3125 65.921875 37.59375 65.921875 
Q 27.828125 65.921875 22.671875 59.328125 
Q 17.53125 52.734375 16.796875 39.40625 
Q 19.671875 43.65625 24.015625 45.921875 
Q 28.375 48.1875 33.59375 48.1875 
Q 44.578125 48.1875 50.953125 41.515625 
Q 57.328125 34.859375 57.328125 23.390625 
Q 57.328125 12.15625 50.6875 5.359375 
Q 44.046875 -1.421875 33.015625 -1.421875 
Q 20.359375 -1.421875 13.671875 8.265625 
Q 6.984375 17.96875 6.984375 36.375 
Q 6.984375 53.65625 15.1875 63.9375 
Q 23.390625 74.21875 37.203125 74.21875 
Q 40.921875 74.21875 44.703125 73.484375 
Q 48.484375 72.75 52.59375 71.296875 
z
" id="DejaVuSans-54"/>
       </defs>
       <use xlink:href="#DejaVuSans-49"/>
       <use x="63.623047" xlink:href="#DejaVuSans-52"/>
       <use x="127.246094" xlink:href="#DejaVuSans-58"/>
       <use x="160.9375" xlink:href="#DejaVuSans-49"/>
       <use x="224.560547" xlink:href="#DejaVuSans-57"/>
       <use x="288.183594" xlink:href="#DejaVuSans-58"/>
       <use x="321.875" xlink:href="#DejaVuSans-48"/>
       <use x="385.498047" xlink:href="#DejaVuSans-54"/>
      </g>
     </g>
    </g>
    <g id="xtick_2">
     <g id="line2d_2">
      <g>
       <use style="stroke:#000000;stroke-width:0.8;" x="156.462292" xlink:href="#mb3c470b102" y="448.56"/>
      </g>
     </g>
     <g id="text_2">
      <!-- 14:20:56 -->
      <g transform="translate(159.221667 500.4725)rotate(-90)scale(0.1 -0.1)">
       <defs>
        <path d="M 19.1875 8.296875 
L 53.609375 8.296875 
L 53.609375 0 
L 7.328125 0 
L 7.328125 8.296875 
Q 12.9375 14.109375 22.625 23.890625 
Q 32.328125 33.6875 34.8125 36.53125 
Q 39.546875 41.84375 41.421875 45.53125 
Q 43.3125 49.21875 43.3125 52.78125 
Q 43.3125 58.59375 39.234375 62.25 
Q 35.15625 65.921875 28.609375 65.921875 
Q 23.96875 65.921875 18.8125 64.3125 
Q 13.671875 62.703125 7.8125 59.421875 
L 7.8125 69.390625 
Q 13.765625 71.78125 18.9375 73 
Q 24.125 74.21875 28.421875 74.21875 
Q 39.75 74.21875 46.484375 68.546875 
Q 53.21875 62.890625 53.21875 53.421875 
Q 53.21875 48.921875 51.53125 44.890625 
Q 49.859375 40.875 45.40625 35.40625 
Q 44.1875 33.984375 37.640625 27.21875 
Q 31.109375 20.453125 19.1875 8.296875 
z
" id="DejaVuSans-50"/>
        <path d="M 10.796875 72.90625 
L 49.515625 72.90625 
L 49.515625 64.59375 
L 19.828125 64.59375 
L 19.828125 46.734375 
Q 21.96875 47.46875 24.109375 47.828125 
Q 26.265625 48.1875 28.421875 48.1875 
Q 40.625 48.1875 47.75 41.5 
Q 54.890625 34.8125 54.890625 23.390625 
Q 54.890625 11.625 47.5625 5.09375 
Q 40.234375 -1.421875 26.90625 -1.421875 
Q 22.3125 -1.421875 17.546875 -0.640625 
Q 12.796875 0.140625 7.71875 1.703125 
L 7.71875 11.625 
Q 12.109375 9.234375 16.796875 8.0625 
Q 21.484375 6.890625 26.703125 6.890625 
Q 35.15625 6.890625 40.078125 11.328125 
Q 45.015625 15.765625 45.015625 23.390625 
Q 45.015625 31 40.078125 35.4375 
Q 35.15625 39.890625 26.703125 39.890625 
Q 22.75 39.890625 18.8125 39.015625 
Q 14.890625 38.140625 10.796875 36.28125 
z
" id="DejaVuSans-53"/>
       </defs>
       <use xlink:href="#DejaVuSans-49"/>
       <use x="63.623047" xlink:href="#DejaVuSans-52"/>
       <use x="127.246094" xlink:href="#DejaVuSans-58"/>
       <use x="160.9375" xlink:href="#DejaVuSans-50"/>
       <use x="224.560547" xlink:href="#DejaVuSans-48"/>
       <use x="288.183594" xlink:href="#DejaVuSans-58"/>
       <use x="321.875" xlink:href="#DejaVuSans-53"/>
       <use x="385.498047" xlink:href="#DejaVuSans-54"/>
      </g>
     </g>
    </g>
    <g id="xtick_3">
     <g id="line2d_3">
      <g>
       <use style="stroke:#000000;stroke-width:0.8;" x="180.575493" xlink:href="#mb3c470b102" y="448.56"/>
      </g>
     </g>
     <g id="text_3">
      <!-- 14:22:46 -->
      <g transform="translate(183.334868 500.4725)rotate(-90)scale(0.1 -0.1)">
       <use xlink:href="#DejaVuSans-49"/>
       <use x="63.623047" xlink:href="#DejaVuSans-52"/>
       <use x="127.246094" xlink:href="#DejaVuSans-58"/>
       <use x="160.9375" xlink:href="#DejaVuSans-50"/>
       <use x="224.560547" xlink:href="#DejaVuSans-50"/>
       <use x="288.183594" xlink:href="#DejaVuSans-58"/>
       <use x="321.875" xlink:href="#DejaVuSans-52"/>
       <use x="385.498047" xlink:href="#DejaVuSans-54"/>
      </g>
     </g>
    </g>
    <g id="xtick_4">
     <g id="line2d_4">
      <g>
       <use style="stroke:#000000;stroke-width:0.8;" x="204.688694" xlink:href="#mb3c470b102" y="448.56"/>
      </g>
     </g>
     <g id="text_4">
      <!-- 14:24:36 -->
      <g transform="translate(207.448069 500.4725)rotate(-90)scale(0.1 -0.1)">
       <defs>
        <path d="M 40.578125 39.3125 
Q 47.65625 37.796875 51.625 33 
Q 55.609375 28.21875 55.609375 21.1875 
Q 55.609375 10.40625 48.1875 4.484375 
Q 40.765625 -1.421875 27.09375 -1.421875 
Q 22.515625 -1.421875 17.65625 -0.515625 
Q 12.796875 0.390625 7.625 2.203125 
L 7.625 11.71875 
Q 11.71875 9.328125 16.59375 8.109375 
Q 21.484375 6.890625 26.8125 6.890625 
Q 36.078125 6.890625 40.9375 10.546875 
Q 45.796875 14.203125 45.796875 21.1875 
Q 45.796875 27.640625 41.28125 31.265625 
Q 36.765625 34.90625 28.71875 34.90625 
L 20.21875 34.90625 
L 20.21875 43.015625 
L 29.109375 43.015625 
Q 36.375 43.015625 40.234375 45.921875 
Q 44.09375 48.828125 44.09375 54.296875 
Q 44.09375 59.90625 40.109375 62.90625 
Q 36.140625 65.921875 28.71875 65.921875 
Q 24.65625 65.921875 20.015625 65.03125 
Q 15.375 64.15625 9.8125 62.3125 
L 9.8125 71.09375 
Q 15.4375 72.65625 20.34375 73.4375 
Q 25.25 74.21875 29.59375 74.21875 
Q 40.828125 74.21875 47.359375 69.109375 
Q 53.90625 64.015625 53.90625 55.328125 
Q 53.90625 49.265625 50.4375 45.09375 
Q 46.96875 40.921875 40.578125 39.3125 
z
" id="DejaVuSans-51"/>
       </defs>
       <use xlink:href="#DejaVuSans-49"/>
       <use x="63.623047" xlink:href="#DejaVuSans-52"/>
       <use x="127.246094" xlink:href="#DejaVuSans-58"/>
       <use x="160.9375" xlink:href="#DejaVuSans-50"/>
       <use x="224.560547" xlink:href="#DejaVuSans-52"/>
       <use x="288.183594" xlink:href="#DejaVuSans-58"/>
       <use x="321.875" xlink:href="#DejaVuSans-51"/>
       <use x="385.498047" xlink:href="#DejaVuSans-54"/>
      </g>
     </g>
    </g>
    <g id="xtick_5">
     <g id="line2d_5">
      <g>
       <use style="stroke:#000000;stroke-width:0.8;" x="228.801895" xlink:href="#mb3c470b102" y="448.56"/>
      </g>
     </g>
     <g id="text_5">
      <!-- 14:26:26 -->
      <g transform="translate(231.56127 500.4725)rotate(-90)scale(0.1 -0.1)">
       <use xlink:href="#DejaVuSans-49"/>
       <use x="63.623047" xlink:href="#DejaVuSans-52"/>
       <use x="127.246094" xlink:href="#DejaVuSans-58"/>
       <use x="160.9375" xlink:href="#DejaVuSans-50"/>
       <use x="224.560547" xlink:href="#DejaVuSans-54"/>
       <use x="288.183594" xlink:href="#DejaVuSans-58"/>
       <use x="321.875" xlink:href="#DejaVuSans-50"/>
       <use x="385.498047" xlink:href="#DejaVuSans-54"/>
      </g>
     </g>
    </g>
    <g id="xtick_6">
     <g id="line2d_6">
      <g>
       <use style="stroke:#000000;stroke-width:0.8;" x="252.915095" xlink:href="#mb3c470b102" y="448.56"/>
      </g>
     </g>
     <g id="text_6">
      <!-- 14:28:17 -->
      <g transform="translate(255.67447 500.4725)rotate(-90)scale(0.1 -0.1)">
       <defs>
        <path d="M 31.78125 34.625 
Q 24.75 34.625 20.71875 30.859375 
Q 16.703125 27.09375 16.703125 20.515625 
Q 16.703125 13.921875 20.71875 10.15625 
Q 24.75 6.390625 31.78125 6.390625 
Q 38.8125 6.390625 42.859375 10.171875 
Q 46.921875 13.96875 46.921875 20.515625 
Q 46.921875 27.09375 42.890625 30.859375 
Q 38.875 34.625 31.78125 34.625 
z
M 21.921875 38.8125 
Q 15.578125 40.375 12.03125 44.71875 
Q 8.5 49.078125 8.5 55.328125 
Q 8.5 64.0625 14.71875 69.140625 
Q 20.953125 74.21875 31.78125 74.21875 
Q 42.671875 74.21875 48.875 69.140625 
Q 55.078125 64.0625 55.078125 55.328125 
Q 55.078125 49.078125 51.53125 44.71875 
Q 48 40.375 41.703125 38.8125 
Q 48.828125 37.15625 52.796875 32.3125 
Q 56.78125 27.484375 56.78125 20.515625 
Q 56.78125 9.90625 50.3125 4.234375 
Q 43.84375 -1.421875 31.78125 -1.421875 
Q 19.734375 -1.421875 13.25 4.234375 
Q 6.78125 9.90625 6.78125 20.515625 
Q 6.78125 27.484375 10.78125 32.3125 
Q 14.796875 37.15625 21.921875 38.8125 
z
M 18.3125 54.390625 
Q 18.3125 48.734375 21.84375 45.5625 
Q 25.390625 42.390625 31.78125 42.390625 
Q 38.140625 42.390625 41.71875 45.5625 
Q 45.3125 48.734375 45.3125 54.390625 
Q 45.3125 60.0625 41.71875 63.234375 
Q 38.140625 66.40625 31.78125 66.40625 
Q 25.390625 66.40625 21.84375 63.234375 
Q 18.3125 60.0625 18.3125 54.390625 
z
" id="DejaVuSans-56"/>
        <path d="M 8.203125 72.90625 
L 55.078125 72.90625 
L 55.078125 68.703125 
L 28.609375 0 
L 18.3125 0 
L 43.21875 64.59375 
L 8.203125 64.59375 
z
" id="DejaVuSans-55"/>
       </defs>
       <use xlink:href="#DejaVuSans-49"/>
       <use x="63.623047" xlink:href="#DejaVuSans-52"/>
       <use x="127.246094" xlink:href="#DejaVuSans-58"/>
       <use x="160.9375" xlink:href="#DejaVuSans-50"/>
       <use x="224.560547" xlink:href="#DejaVuSans-56"/>
       <use x="288.183594" xlink:href="#DejaVuSans-58"/>
       <use x="321.875" xlink:href="#DejaVuSans-49"/>
       <use x="385.498047" xlink:href="#DejaVuSans-55"/>
      </g>
     </g>
    </g>
    <g id="xtick_7">
     <g id="line2d_7">
      <g>
       <use style="stroke:#000000;stroke-width:0.8;" x="277.028296" xlink:href="#mb3c470b102" y="448.56"/>
      </g>
     </g>
     <g id="text_7">
      <!-- 14:30:07 -->
      <g transform="translate(279.787671 500.4725)rotate(-90)scale(0.1 -0.1)">
       <use xlink:href="#DejaVuSans-49"/>
       <use x="63.623047" xlink:href="#DejaVuSans-52"/>
       <use x="127.246094" xlink:href="#DejaVuSans-58"/>
       <use x="160.9375" xlink:href="#DejaVuSans-51"/>
       <use x="224.560547" xlink:href="#DejaVuSans-48"/>
       <use x="288.183594" xlink:href="#DejaVuSans-58"/>
       <use x="321.875" xlink:href="#DejaVuSans-48"/>
       <use x="385.498047" xlink:href="#DejaVuSans-55"/>
      </g>
     </g>
    </g>
    <g id="xtick_8">
     <g id="line2d_8">
      <g>
       <use style="stroke:#000000;stroke-width:0.8;" x="301.141497" xlink:href="#mb3c470b102" y="448.56"/>
      </g>
     </g>
     <g id="text_8">
      <!-- 14:31:57 -->
      <g transform="translate(303.900872 500.4725)rotate(-90)scale(0.1 -0.1)">
       <use xlink:href="#DejaVuSans-49"/>
       <use x="63.623047" xlink:href="#DejaVuSans-52"/>
       <use x="127.246094" xlink:href="#DejaVuSans-58"/>
       <use x="160.9375" xlink:href="#DejaVuSans-51"/>
       <use x="224.560547" xlink:href="#DejaVuSans-49"/>
       <use x="288.183594" xlink:href="#DejaVuSans-58"/>
       <use x="321.875" xlink:href="#DejaVuSans-53"/>
       <use x="385.498047" xlink:href="#DejaVuSans-55"/>
      </g>
     </g>
    </g>
    <g id="xtick_9">
     <g id="line2d_9">
      <g>
       <use style="stroke:#000000;stroke-width:0.8;" x="325.254698" xlink:href="#mb3c470b102" y="448.56"/>
      </g>
     </g>
     <g id="text_9">
      <!-- 14:33:47 -->
      <g transform="translate(328.014073 500.4725)rotate(-90)scale(0.1 -0.1)">
       <use xlink:href="#DejaVuSans-49"/>
       <use x="63.623047" xlink:href="#DejaVuSans-52"/>
       <use x="127.246094" xlink:href="#DejaVuSans-58"/>
       <use x="160.9375" xlink:href="#DejaVuSans-51"/>
       <use x="224.560547" xlink:href="#DejaVuSans-51"/>
       <use x="288.183594" xlink:href="#DejaVuSans-58"/>
       <use x="321.875" xlink:href="#DejaVuSans-52"/>
       <use x="385.498047" xlink:href="#DejaVuSans-55"/>
      </g>
     </g>
    </g>
    <g id="xtick_10">
     <g id="line2d_10">
      <g>
       <use style="stroke:#000000;stroke-width:0.8;" x="349.367899" xlink:href="#mb3c470b102" y="448.56"/>
      </g>
     </g>
     <g id="text_10">
      <!-- 14:35:37 -->
      <g transform="translate(352.127274 500.4725)rotate(-90)scale(0.1 -0.1)">
       <use xlink:href="#DejaVuSans-49"/>
       <use x="63.623047" xlink:href="#DejaVuSans-52"/>
       <use x="127.246094" xlink:href="#DejaVuSans-58"/>
       <use x="160.9375" xlink:href="#DejaVuSans-51"/>
       <use x="224.560547" xlink:href="#DejaVuSans-53"/>
       <use x="288.183594" xlink:href="#DejaVuSans-58"/>
       <use x="321.875" xlink:href="#DejaVuSans-51"/>
       <use x="385.498047" xlink:href="#DejaVuSans-55"/>
      </g>
     </g>
    </g>
    <g id="xtick_11">
     <g id="line2d_11">
      <g>
       <use style="stroke:#000000;stroke-width:0.8;" x="373.4811" xlink:href="#mb3c470b102" y="448.56"/>
      </g>
     </g>
     <g id="text_11">
      <!-- 14:37:28 -->
      <g transform="translate(376.240475 500.4725)rotate(-90)scale(0.1 -0.1)">
       <use xlink:href="#DejaVuSans-49"/>
       <use x="63.623047" xlink:href="#DejaVuSans-52"/>
       <use x="127.246094" xlink:href="#DejaVuSans-58"/>
       <use x="160.9375" xlink:href="#DejaVuSans-51"/>
       <use x="224.560547" xlink:href="#DejaVuSans-55"/>
       <use x="288.183594" xlink:href="#DejaVuSans-58"/>
       <use x="321.875" xlink:href="#DejaVuSans-50"/>
       <use x="385.498047" xlink:href="#DejaVuSans-56"/>
      </g>
     </g>
    </g>
    <g id="xtick_12">
     <g id="line2d_12">
      <g>
       <use style="stroke:#000000;stroke-width:0.8;" x="397.594301" xlink:href="#mb3c470b102" y="448.56"/>
      </g>
     </g>
     <g id="text_12">
      <!-- 14:39:18 -->
      <g transform="translate(400.353676 500.4725)rotate(-90)scale(0.1 -0.1)">
       <use xlink:href="#DejaVuSans-49"/>
       <use x="63.623047" xlink:href="#DejaVuSans-52"/>
       <use x="127.246094" xlink:href="#DejaVuSans-58"/>
       <use x="160.9375" xlink:href="#DejaVuSans-51"/>
       <use x="224.560547" xlink:href="#DejaVuSans-57"/>
       <use x="288.183594" xlink:href="#DejaVuSans-58"/>
       <use x="321.875" xlink:href="#DejaVuSans-49"/>
       <use x="385.498047" xlink:href="#DejaVuSans-56"/>
      </g>
     </g>
    </g>
    <g id="xtick_13">
     <g id="line2d_13">
      <g>
       <use style="stroke:#000000;stroke-width:0.8;" x="421.707502" xlink:href="#mb3c470b102" y="448.56"/>
      </g>
     </g>
     <g id="text_13">
      <!-- 14:41:08 -->
      <g transform="translate(424.466877 500.4725)rotate(-90)scale(0.1 -0.1)">
       <use xlink:href="#DejaVuSans-49"/>
       <use x="63.623047" xlink:href="#DejaVuSans-52"/>
       <use x="127.246094" xlink:href="#DejaVuSans-58"/>
       <use x="160.9375" xlink:href="#DejaVuSans-52"/>
       <use x="224.560547" xlink:href="#DejaVuSans-49"/>
       <use x="288.183594" xlink:href="#DejaVuSans-58"/>
       <use x="321.875" xlink:href="#DejaVuSans-48"/>
       <use x="385.498047" xlink:href="#DejaVuSans-56"/>
      </g>
     </g>
    </g>
    <g id="xtick_14">
     <g id="line2d_14">
      <g>
       <use style="stroke:#000000;stroke-width:0.8;" x="445.820703" xlink:href="#mb3c470b102" y="448.56"/>
      </g>
     </g>
     <g id="text_14">
      <!-- 14:42:58 -->
      <g transform="translate(448.580078 500.4725)rotate(-90)scale(0.1 -0.1)">
       <use xlink:href="#DejaVuSans-49"/>
       <use x="63.623047" xlink:href="#DejaVuSans-52"/>
       <use x="127.246094" xlink:href="#DejaVuSans-58"/>
       <use x="160.9375" xlink:href="#DejaVuSans-52"/>
       <use x="224.560547" xlink:href="#DejaVuSans-50"/>
       <use x="288.183594" xlink:href="#DejaVuSans-58"/>
       <use x="321.875" xlink:href="#DejaVuSans-53"/>
       <use x="385.498047" xlink:href="#DejaVuSans-56"/>
      </g>
     </g>
    </g>
    <g id="xtick_15">
     <g id="line2d_15">
      <g>
       <use style="stroke:#000000;stroke-width:0.8;" x="469.933904" xlink:href="#mb3c470b102" y="448.56"/>
      </g>
     </g>
     <g id="text_15">
      <!-- 14:44:48 -->
      <g transform="translate(472.693279 500.4725)rotate(-90)scale(0.1 -0.1)">
       <use xlink:href="#DejaVuSans-49"/>
       <use x="63.623047" xlink:href="#DejaVuSans-52"/>
       <use x="127.246094" xlink:href="#DejaVuSans-58"/>
       <use x="160.9375" xlink:href="#DejaVuSans-52"/>
       <use x="224.560547" xlink:href="#DejaVuSans-52"/>
       <use x="288.183594" xlink:href="#DejaVuSans-58"/>
       <use x="321.875" xlink:href="#DejaVuSans-52"/>
       <use x="385.498047" xlink:href="#DejaVuSans-56"/>
      </g>
     </g>
    </g>
    <g id="xtick_16">
     <g id="line2d_16">
      <g>
       <use style="stroke:#000000;stroke-width:0.8;" x="494.047104" xlink:href="#mb3c470b102" y="448.56"/>
      </g>
     </g>
     <g id="text_16">
      <!-- 14:46:38 -->
      <g transform="translate(496.806479 500.4725)rotate(-90)scale(0.1 -0.1)">
       <use xlink:href="#DejaVuSans-49"/>
       <use x="63.623047" xlink:href="#DejaVuSans-52"/>
       <use x="127.246094" xlink:href="#DejaVuSans-58"/>
       <use x="160.9375" xlink:href="#DejaVuSans-52"/>
       <use x="224.560547" xlink:href="#DejaVuSans-54"/>
       <use x="288.183594" xlink:href="#DejaVuSans-58"/>
       <use x="321.875" xlink:href="#DejaVuSans-51"/>
       <use x="385.498047" xlink:href="#DejaVuSans-56"/>
      </g>
     </g>
    </g>
    <g id="xtick_17">
     <g id="line2d_17">
      <g>
       <use style="stroke:#000000;stroke-width:0.8;" x="518.160305" xlink:href="#mb3c470b102" y="448.56"/>
      </g>
     </g>
     <g id="text_17">
      <!-- 14:48:28 -->
      <g transform="translate(520.91968 500.4725)rotate(-90)scale(0.1 -0.1)">
       <use xlink:href="#DejaVuSans-49"/>
       <use x="63.623047" xlink:href="#DejaVuSans-52"/>
       <use x="127.246094" xlink:href="#DejaVuSans-58"/>
       <use x="160.9375" xlink:href="#DejaVuSans-52"/>
       <use x="224.560547" xlink:href="#DejaVuSans-56"/>
       <use x="288.183594" xlink:href="#DejaVuSans-58"/>
       <use x="321.875" xlink:href="#DejaVuSans-50"/>
       <use x="385.498047" xlink:href="#DejaVuSans-56"/>
      </g>
     </g>
    </g>
    <g id="xtick_18">
     <g id="line2d_18">
      <g>
       <use style="stroke:#000000;stroke-width:0.8;" x="542.273506" xlink:href="#mb3c470b102" y="448.56"/>
      </g>
     </g>
     <g id="text_18">
      <!-- 14:50:19 -->
      <g transform="translate(545.032881 500.4725)rotate(-90)scale(0.1 -0.1)">
       <use xlink:href="#DejaVuSans-49"/>
       <use x="63.623047" xlink:href="#DejaVuSans-52"/>
       <use x="127.246094" xlink:href="#DejaVuSans-58"/>
       <use x="160.9375" xlink:href="#DejaVuSans-53"/>
       <use x="224.560547" xlink:href="#DejaVuSans-48"/>
       <use x="288.183594" xlink:href="#DejaVuSans-58"/>
       <use x="321.875" xlink:href="#DejaVuSans-49"/>
       <use x="385.498047" xlink:href="#DejaVuSans-57"/>
      </g>
     </g>
    </g>
    <g id="xtick_19">
     <g id="line2d_19">
      <g>
       <use style="stroke:#000000;stroke-width:0.8;" x="566.386707" xlink:href="#mb3c470b102" y="448.56"/>
      </g>
     </g>
     <g id="text_19">
      <!-- 14:52:09 -->
      <g transform="translate(569.146082 500.4725)rotate(-90)scale(0.1 -0.1)">
       <use xlink:href="#DejaVuSans-49"/>
       <use x="63.623047" xlink:href="#DejaVuSans-52"/>
       <use x="127.246094" xlink:href="#DejaVuSans-58"/>
       <use x="160.9375" xlink:href="#DejaVuSans-53"/>
       <use x="224.560547" xlink:href="#DejaVuSans-50"/>
       <use x="288.183594" xlink:href="#DejaVuSans-58"/>
       <use x="321.875" xlink:href="#DejaVuSans-48"/>
       <use x="385.498047" xlink:href="#DejaVuSans-57"/>
      </g>
     </g>
    </g>
    <g id="xtick_20">
     <g id="line2d_20">
      <g>
       <use style="stroke:#000000;stroke-width:0.8;" x="590.499908" xlink:href="#mb3c470b102" y="448.56"/>
      </g>
     </g>
     <g id="text_20">
      <!-- 14:54:00 -->
      <g transform="translate(593.259283 500.4725)rotate(-90)scale(0.1 -0.1)">
       <use xlink:href="#DejaVuSans-49"/>
       <use x="63.623047" xlink:href="#DejaVuSans-52"/>
       <use x="127.246094" xlink:href="#DejaVuSans-58"/>
       <use x="160.9375" xlink:href="#DejaVuSans-53"/>
       <use x="224.560547" xlink:href="#DejaVuSans-52"/>
       <use x="288.183594" xlink:href="#DejaVuSans-58"/>
       <use x="321.875" xlink:href="#DejaVuSans-48"/>
       <use x="385.498047" xlink:href="#DejaVuSans-48"/>
      </g>
     </g>
    </g>
    <g id="xtick_21">
     <g id="line2d_21">
      <g>
       <use style="stroke:#000000;stroke-width:0.8;" x="614.613109" xlink:href="#mb3c470b102" y="448.56"/>
      </g>
     </g>
     <g id="text_21">
      <!-- 14:55:50 -->
      <g transform="translate(617.372484 500.4725)rotate(-90)scale(0.1 -0.1)">
       <use xlink:href="#DejaVuSans-49"/>
       <use x="63.623047" xlink:href="#DejaVuSans-52"/>
       <use x="127.246094" xlink:href="#DejaVuSans-58"/>
       <use x="160.9375" xlink:href="#DejaVuSans-53"/>
       <use x="224.560547" xlink:href="#DejaVuSans-53"/>
       <use x="288.183594" xlink:href="#DejaVuSans-58"/>
       <use x="321.875" xlink:href="#DejaVuSans-53"/>
       <use x="385.498047" xlink:href="#DejaVuSans-48"/>
      </g>
     </g>
    </g>
    <g id="text_22">
     <!-- timestamp -->
     <g transform="translate(354.264375 510.55125)scale(0.08 -0.08)">
      <defs>
       <path d="M 18.3125 70.21875 
L 18.3125 54.6875 
L 36.8125 54.6875 
L 36.8125 47.703125 
L 18.3125 47.703125 
L 18.3125 18.015625 
Q 18.3125 11.328125 20.140625 9.421875 
Q 21.96875 7.515625 27.59375 7.515625 
L 36.8125 7.515625 
L 36.8125 0 
L 27.59375 0 
Q 17.1875 0 13.234375 3.875 
Q 9.28125 7.765625 9.28125 18.015625 
L 9.28125 47.703125 
L 2.6875 47.703125 
L 2.6875 54.6875 
L 9.28125 54.6875 
L 9.28125 70.21875 
z
" id="DejaVuSans-116"/>
       <path d="M 9.421875 54.6875 
L 18.40625 54.6875 
L 18.40625 0 
L 9.421875 0 
z
M 9.421875 75.984375 
L 18.40625 75.984375 
L 18.40625 64.59375 
L 9.421875 64.59375 
z
" id="DejaVuSans-105"/>
       <path d="M 52 44.1875 
Q 55.375 50.25 60.0625 53.125 
Q 64.75 56 71.09375 56 
Q 79.640625 56 84.28125 50.015625 
Q 88.921875 44.046875 88.921875 33.015625 
L 88.921875 0 
L 79.890625 0 
L 79.890625 32.71875 
Q 79.890625 40.578125 77.09375 44.375 
Q 74.3125 48.1875 68.609375 48.1875 
Q 61.625 48.1875 57.5625 43.546875 
Q 53.515625 38.921875 53.515625 30.90625 
L 53.515625 0 
L 44.484375 0 
L 44.484375 32.71875 
Q 44.484375 40.625 41.703125 44.40625 
Q 38.921875 48.1875 33.109375 48.1875 
Q 26.21875 48.1875 22.15625 43.53125 
Q 18.109375 38.875 18.109375 30.90625 
L 18.109375 0 
L 9.078125 0 
L 9.078125 54.6875 
L 18.109375 54.6875 
L 18.109375 46.1875 
Q 21.1875 51.21875 25.484375 53.609375 
Q 29.78125 56 35.6875 56 
Q 41.65625 56 45.828125 52.96875 
Q 50 49.953125 52 44.1875 
z
" id="DejaVuSans-109"/>
       <path d="M 56.203125 29.59375 
L 56.203125 25.203125 
L 14.890625 25.203125 
Q 15.484375 15.921875 20.484375 11.0625 
Q 25.484375 6.203125 34.421875 6.203125 
Q 39.59375 6.203125 44.453125 7.46875 
Q 49.3125 8.734375 54.109375 11.28125 
L 54.109375 2.78125 
Q 49.265625 0.734375 44.1875 -0.34375 
Q 39.109375 -1.421875 33.890625 -1.421875 
Q 20.796875 -1.421875 13.15625 6.1875 
Q 5.515625 13.8125 5.515625 26.8125 
Q 5.515625 40.234375 12.765625 48.109375 
Q 20.015625 56 32.328125 56 
Q 43.359375 56 49.78125 48.890625 
Q 56.203125 41.796875 56.203125 29.59375 
z
M 47.21875 32.234375 
Q 47.125 39.59375 43.09375 43.984375 
Q 39.0625 48.390625 32.421875 48.390625 
Q 24.90625 48.390625 20.390625 44.140625 
Q 15.875 39.890625 15.1875 32.171875 
z
" id="DejaVuSans-101"/>
       <path d="M 44.28125 53.078125 
L 44.28125 44.578125 
Q 40.484375 46.53125 36.375 47.5 
Q 32.28125 48.484375 27.875 48.484375 
Q 21.1875 48.484375 17.84375 46.4375 
Q 14.5 44.390625 14.5 40.28125 
Q 14.5 37.15625 16.890625 35.375 
Q 19.28125 33.59375 26.515625 31.984375 
L 29.59375 31.296875 
Q 39.15625 29.25 43.1875 25.515625 
Q 47.21875 21.78125 47.21875 15.09375 
Q 47.21875 7.46875 41.1875 3.015625 
Q 35.15625 -1.421875 24.609375 -1.421875 
Q 20.21875 -1.421875 15.453125 -0.5625 
Q 10.6875 0.296875 5.421875 2 
L 5.421875 11.28125 
Q 10.40625 8.6875 15.234375 7.390625 
Q 20.0625 6.109375 24.8125 6.109375 
Q 31.15625 6.109375 34.5625 8.28125 
Q 37.984375 10.453125 37.984375 14.40625 
Q 37.984375 18.0625 35.515625 20.015625 
Q 33.0625 21.96875 24.703125 23.78125 
L 21.578125 24.515625 
Q 13.234375 26.265625 9.515625 29.90625 
Q 5.8125 33.546875 5.8125 39.890625 
Q 5.8125 47.609375 11.28125 51.796875 
Q 16.75 56 26.8125 56 
Q 31.78125 56 36.171875 55.265625 
Q 40.578125 54.546875 44.28125 53.078125 
z
" id="DejaVuSans-115"/>
       <path d="M 34.28125 27.484375 
Q 23.390625 27.484375 19.1875 25 
Q 14.984375 22.515625 14.984375 16.5 
Q 14.984375 11.71875 18.140625 8.90625 
Q 21.296875 6.109375 26.703125 6.109375 
Q 34.1875 6.109375 38.703125 11.40625 
Q 43.21875 16.703125 43.21875 25.484375 
L 43.21875 27.484375 
z
M 52.203125 31.203125 
L 52.203125 0 
L 43.21875 0 
L 43.21875 8.296875 
Q 40.140625 3.328125 35.546875 0.953125 
Q 30.953125 -1.421875 24.3125 -1.421875 
Q 15.921875 -1.421875 10.953125 3.296875 
Q 6 8.015625 6 15.921875 
Q 6 25.140625 12.171875 29.828125 
Q 18.359375 34.515625 30.609375 34.515625 
L 43.21875 34.515625 
L 43.21875 35.40625 
Q 43.21875 41.609375 39.140625 45 
Q 35.0625 48.390625 27.6875 48.390625 
Q 23 48.390625 18.546875 47.265625 
Q 14.109375 46.140625 10.015625 43.890625 
L 10.015625 52.203125 
Q 14.9375 54.109375 19.578125 55.046875 
Q 24.21875 56 28.609375 56 
Q 40.484375 56 46.34375 49.84375 
Q 52.203125 43.703125 52.203125 31.203125 
z
" id="DejaVuSans-97"/>
       <path d="M 18.109375 8.203125 
L 18.109375 -20.796875 
L 9.078125 -20.796875 
L 9.078125 54.6875 
L 18.109375 54.6875 
L 18.109375 46.390625 
Q 20.953125 51.265625 25.265625 53.625 
Q 29.59375 56 35.59375 56 
Q 45.5625 56 51.78125 48.09375 
Q 58.015625 40.1875 58.015625 27.296875 
Q 58.015625 14.40625 51.78125 6.484375 
Q 45.5625 -1.421875 35.59375 -1.421875 
Q 29.59375 -1.421875 25.265625 0.953125 
Q 20.953125 3.328125 18.109375 8.203125 
z
M 48.6875 27.296875 
Q 48.6875 37.203125 44.609375 42.84375 
Q 40.53125 48.484375 33.40625 48.484375 
Q 26.265625 48.484375 22.1875 42.84375 
Q 18.109375 37.203125 18.109375 27.296875 
Q 18.109375 17.390625 22.1875 11.75 
Q 26.265625 6.109375 33.40625 6.109375 
Q 40.53125 6.109375 44.609375 11.75 
Q 48.6875 17.390625 48.6875 27.296875 
z
" id="DejaVuSans-112"/>
      </defs>
      <use xlink:href="#DejaVuSans-116"/>
      <use x="39.208984" xlink:href="#DejaVuSans-105"/>
      <use x="66.992188" xlink:href="#DejaVuSans-109"/>
      <use x="164.404297" xlink:href="#DejaVuSans-101"/>
      <use x="225.927734" xlink:href="#DejaVuSans-115"/>
      <use x="278.027344" xlink:href="#DejaVuSans-116"/>
      <use x="317.236328" xlink:href="#DejaVuSans-97"/>
      <use x="378.515625" xlink:href="#DejaVuSans-109"/>
      <use x="475.927734" xlink:href="#DejaVuSans-112"/>
     </g>
    </g>
   </g>
   <g id="matplotlib.axis_2">
    <g id="ytick_1">
     <g id="line2d_22">
      <defs>
       <path d="M 0 0 
L -3.5 0 
" id="mc6f5dd2e71" style="stroke:#000000;stroke-width:0.8;"/>
      </defs>
      <g>
       <use style="stroke:#000000;stroke-width:0.8;" x="108" xlink:href="#mc6f5dd2e71" y="444.085007"/>
      </g>
     </g>
     <g id="text_23">
      <!-- 11000 -->
      <g transform="translate(69.1875 447.884226)scale(0.1 -0.1)">
       <use xlink:href="#DejaVuSans-49"/>
       <use x="63.623047" xlink:href="#DejaVuSans-49"/>
       <use x="127.246094" xlink:href="#DejaVuSans-48"/>
       <use x="190.869141" xlink:href="#DejaVuSans-48"/>
       <use x="254.492188" xlink:href="#DejaVuSans-48"/>
      </g>
     </g>
    </g>
    <g id="ytick_2">
     <g id="line2d_23">
      <g>
       <use style="stroke:#000000;stroke-width:0.8;" x="108" xlink:href="#mc6f5dd2e71" y="396.979697"/>
      </g>
     </g>
     <g id="text_24">
      <!-- 11250 -->
      <g transform="translate(69.1875 400.778916)scale(0.1 -0.1)">
       <use xlink:href="#DejaVuSans-49"/>
       <use x="63.623047" xlink:href="#DejaVuSans-49"/>
       <use x="127.246094" xlink:href="#DejaVuSans-50"/>
       <use x="190.869141" xlink:href="#DejaVuSans-53"/>
       <use x="254.492188" xlink:href="#DejaVuSans-48"/>
      </g>
     </g>
    </g>
    <g id="ytick_3">
     <g id="line2d_24">
      <g>
       <use style="stroke:#000000;stroke-width:0.8;" x="108" xlink:href="#mc6f5dd2e71" y="349.874388"/>
      </g>
     </g>
     <g id="text_25">
      <!-- 11500 -->
      <g transform="translate(69.1875 353.673606)scale(0.1 -0.1)">
       <use xlink:href="#DejaVuSans-49"/>
       <use x="63.623047" xlink:href="#DejaVuSans-49"/>
       <use x="127.246094" xlink:href="#DejaVuSans-53"/>
       <use x="190.869141" xlink:href="#DejaVuSans-48"/>
       <use x="254.492188" xlink:href="#DejaVuSans-48"/>
      </g>
     </g>
    </g>
    <g id="ytick_4">
     <g id="line2d_25">
      <g>
       <use style="stroke:#000000;stroke-width:0.8;" x="108" xlink:href="#mc6f5dd2e71" y="302.769078"/>
      </g>
     </g>
     <g id="text_26">
      <!-- 11750 -->
      <g transform="translate(69.1875 306.568297)scale(0.1 -0.1)">
       <use xlink:href="#DejaVuSans-49"/>
       <use x="63.623047" xlink:href="#DejaVuSans-49"/>
       <use x="127.246094" xlink:href="#DejaVuSans-55"/>
       <use x="190.869141" xlink:href="#DejaVuSans-53"/>
       <use x="254.492188" xlink:href="#DejaVuSans-48"/>
      </g>
     </g>
    </g>
    <g id="ytick_5">
     <g id="line2d_26">
      <g>
       <use style="stroke:#000000;stroke-width:0.8;" x="108" xlink:href="#mc6f5dd2e71" y="255.663768"/>
      </g>
     </g>
     <g id="text_27">
      <!-- 12000 -->
      <g transform="translate(69.1875 259.462987)scale(0.1 -0.1)">
       <use xlink:href="#DejaVuSans-49"/>
       <use x="63.623047" xlink:href="#DejaVuSans-50"/>
       <use x="127.246094" xlink:href="#DejaVuSans-48"/>
       <use x="190.869141" xlink:href="#DejaVuSans-48"/>
       <use x="254.492188" xlink:href="#DejaVuSans-48"/>
      </g>
     </g>
    </g>
    <g id="ytick_6">
     <g id="line2d_27">
      <g>
       <use style="stroke:#000000;stroke-width:0.8;" x="108" xlink:href="#mc6f5dd2e71" y="208.558458"/>
      </g>
     </g>
     <g id="text_28">
      <!-- 12250 -->
      <g transform="translate(69.1875 212.357677)scale(0.1 -0.1)">
       <use xlink:href="#DejaVuSans-49"/>
       <use x="63.623047" xlink:href="#DejaVuSans-50"/>
       <use x="127.246094" xlink:href="#DejaVuSans-50"/>
       <use x="190.869141" xlink:href="#DejaVuSans-53"/>
       <use x="254.492188" xlink:href="#DejaVuSans-48"/>
      </g>
     </g>
    </g>
    <g id="ytick_7">
     <g id="line2d_28">
      <g>
       <use style="stroke:#000000;stroke-width:0.8;" x="108" xlink:href="#mc6f5dd2e71" y="161.453149"/>
      </g>
     </g>
     <g id="text_29">
      <!-- 12500 -->
      <g transform="translate(69.1875 165.252367)scale(0.1 -0.1)">
       <use xlink:href="#DejaVuSans-49"/>
       <use x="63.623047" xlink:href="#DejaVuSans-50"/>
       <use x="127.246094" xlink:href="#DejaVuSans-53"/>
       <use x="190.869141" xlink:href="#DejaVuSans-48"/>
       <use x="254.492188" xlink:href="#DejaVuSans-48"/>
      </g>
     </g>
    </g>
    <g id="ytick_8">
     <g id="line2d_29">
      <g>
       <use style="stroke:#000000;stroke-width:0.8;" x="108" xlink:href="#mc6f5dd2e71" y="114.347839"/>
      </g>
     </g>
     <g id="text_30">
      <!-- 12750 -->
      <g transform="translate(69.1875 118.147058)scale(0.1 -0.1)">
       <use xlink:href="#DejaVuSans-49"/>
       <use x="63.623047" xlink:href="#DejaVuSans-50"/>
       <use x="127.246094" xlink:href="#DejaVuSans-55"/>
       <use x="190.869141" xlink:href="#DejaVuSans-53"/>
       <use x="254.492188" xlink:href="#DejaVuSans-48"/>
      </g>
     </g>
    </g>
    <g id="ytick_9">
     <g id="line2d_30">
      <g>
       <use style="stroke:#000000;stroke-width:0.8;" x="108" xlink:href="#mc6f5dd2e71" y="67.242529"/>
      </g>
     </g>
     <g id="text_31">
      <!-- 13000 -->
      <g transform="translate(69.1875 71.041748)scale(0.1 -0.1)">
       <use xlink:href="#DejaVuSans-49"/>
       <use x="63.623047" xlink:href="#DejaVuSans-51"/>
       <use x="127.246094" xlink:href="#DejaVuSans-48"/>
       <use x="190.869141" xlink:href="#DejaVuSans-48"/>
       <use x="254.492188" xlink:href="#DejaVuSans-48"/>
      </g>
     </g>
    </g>
    <g id="text_32">
     <!-- MB -->
     <g transform="translate(63.52375 260.715625)rotate(-90)scale(0.08 -0.08)">
      <defs>
       <path d="M 9.8125 72.90625 
L 24.515625 72.90625 
L 43.109375 23.296875 
L 61.8125 72.90625 
L 76.515625 72.90625 
L 76.515625 0 
L 66.890625 0 
L 66.890625 64.015625 
L 48.09375 14.015625 
L 38.1875 14.015625 
L 19.390625 64.015625 
L 19.390625 0 
L 9.8125 0 
z
" id="DejaVuSans-77"/>
       <path d="M 19.671875 34.8125 
L 19.671875 8.109375 
L 35.5 8.109375 
Q 43.453125 8.109375 47.28125 11.40625 
Q 51.125 14.703125 51.125 21.484375 
Q 51.125 28.328125 47.28125 31.5625 
Q 43.453125 34.8125 35.5 34.8125 
z
M 19.671875 64.796875 
L 19.671875 42.828125 
L 34.28125 42.828125 
Q 41.5 42.828125 45.03125 45.53125 
Q 48.578125 48.25 48.578125 53.8125 
Q 48.578125 59.328125 45.03125 62.0625 
Q 41.5 64.796875 34.28125 64.796875 
z
M 9.8125 72.90625 
L 35.015625 72.90625 
Q 46.296875 72.90625 52.390625 68.21875 
Q 58.5 63.53125 58.5 54.890625 
Q 58.5 48.1875 55.375 44.234375 
Q 52.25 40.28125 46.1875 39.3125 
Q 53.46875 37.75 57.5 32.78125 
Q 61.53125 27.828125 61.53125 20.40625 
Q 61.53125 10.640625 54.890625 5.3125 
Q 48.25 0 35.984375 0 
L 9.8125 0 
z
" id="DejaVuSans-66"/>
      </defs>
      <use xlink:href="#DejaVuSans-77"/>
      <use x="86.279297" xlink:href="#DejaVuSans-66"/>
     </g>
    </g>
   </g>
   <g id="line2d_31">
    <path clip-path="url(#pae69f51cd5)" d="M 132.349091 81.728041 
L 132.611191 79.957592 
L 132.873291 79.796292 
L 133.135391 83.398158 
L 133.397491 82.046783 
L 133.659591 79.837196 
L 133.921691 79.191221 
L 134.183791 78.12 
L 134.445891 78.709635 
L 134.707991 78.927275 
L 134.970091 78.539073 
L 135.232191 90.526257 
L 136.018491 154.920714 
L 136.280591 192.825593 
L 137.066891 255.776833 
L 137.591091 309.755436 
L 138.115291 348.896695 
L 138.377391 357.605386 
L 138.639491 360.785093 
L 138.901591 361.103835 
L 139.163691 362.019158 
L 139.425791 362.467559 
L 139.687891 362.332498 
L 139.949991 361.98057 
L 140.212091 361.962047 
L 140.736291 363.867556 
L 140.998391 363.588174 
L 141.260491 363.02092 
L 141.522591 364.248812 
L 141.784691 363.795781 
L 142.046791 363.909231 
L 142.308891 363.496333 
L 142.570991 363.724006 
L 142.833091 364.150797 
L 143.357291 363.686961 
L 143.619391 363.173731 
L 143.881491 363.392915 
L 144.143591 363.349696 
L 144.405691 363.428417 
L 144.667791 362.473733 
L 144.929891 363.91309 
L 145.191991 364.334479 
L 145.454091 364.068217 
L 145.716191 363.595891 
L 145.978291 363.70857 
L 146.240391 364.420917 
L 146.502491 363.892252 
L 146.764591 363.836685 
L 147.026691 363.327314 
L 147.288791 364.777477 
L 147.812991 364.86623 
L 148.075091 364.180896 
L 148.337192 364.24804 
L 148.599292 364.748149 
L 148.861392 364.769759 
L 149.123492 364.555206 
L 149.385592 363.855207 
L 149.909792 364.222571 
L 150.433992 362.874283 
L 150.696092 363.216179 
L 150.958192 364.324446 
L 151.220292 364.279683 
L 151.482392 363.481669 
L 151.744492 363.551129 
L 152.006592 364.223343 
L 152.268692 363.826652 
L 152.530792 363.898427 
L 152.792892 363.226212 
L 153.317092 364.694125 
L 153.579192 364.807576 
L 153.841292 367.27262 
L 154.365492 368.622452 
L 154.627592 368.329178 
L 154.889692 368.24737 
L 156.200192 366.157407 
L 156.724392 367.403821 
L 156.986492 367.501065 
L 157.510692 366.938442 
L 157.772792 367.859939 
L 158.296992 367.951009 
L 158.559092 367.400734 
L 158.821192 367.477912 
L 159.083292 368.057513 
L 159.345392 367.961814 
L 159.607492 367.322013 
L 159.869592 367.627636 
L 160.131692 368.304481 
L 160.655892 368.163246 
L 160.917992 367.711759 
L 161.442192 367.379896 
L 161.966392 366.27626 
L 162.490592 367.805144 
L 163.014792 366.910658 
L 163.276892 366.989379 
L 163.538992 367.759609 
L 164.063192 367.731053 
L 164.325292 367.011761 
L 164.587392 370.652987 
L 164.849492 371.518145 
L 165.111592 371.431707 
L 165.373692 370.696207 
L 165.635792 368.497424 
L 165.897892 368.764458 
L 166.159992 368.678791 
L 166.684192 366.98552 
L 166.946292 368.267436 
L 167.208392 368.461151 
L 167.470492 368.126973 
L 167.994692 367.192356 
L 168.256792 369.068537 
L 168.780992 367.406909 
L 169.043092 367.604482 
L 169.305192 368.435682 
L 169.567292 368.516719 
L 170.091492 367.387614 
L 170.615692 368.35619 
L 170.877792 368.390148 
L 171.139892 367.279566 
L 171.401992 367.267218 
L 171.664092 368.92653 
L 171.926192 368.866332 
L 172.188292 368.215727 
L 172.450392 367.94715 
L 172.712492 368.027414 
L 172.974592 367.643071 
L 173.236692 367.728738 
L 173.498792 367.112863 
L 173.760892 367.919366 
L 174.022992 368.323775 
L 174.285092 370.870628 
L 174.547192 370.402161 
L 174.809292 371.20249 
L 175.071393 370.929282 
L 175.333493 368.81771 
L 175.595593 368.793014 
L 175.857693 367.314296 
L 176.119793 368.819254 
L 176.381893 368.586178 
L 176.643993 368.515947 
L 176.906093 367.692465 
L 177.430293 368.603929 
L 177.692393 367.805915 
L 177.954493 367.778903 
L 178.216593 367.290371 
L 178.478693 368.715064 
L 178.740793 368.762143 
L 179.002893 368.586178 
L 179.264993 368.028186 
L 179.527093 368.599298 
L 179.789193 368.474271 
L 180.051293 368.600842 
L 180.313393 368.126201 
L 180.575493 367.230944 
L 180.837593 369.404258 
L 181.099693 369.256849 
L 181.623893 368.245826 
L 181.885993 369.510763 
L 182.148093 369.267654 
L 182.410193 369.202053 
L 182.672293 368.59544 
L 182.934393 369.232924 
L 183.196493 370.386726 
L 183.458593 369.843397 
L 183.720693 373.019245 
L 184.244893 371.711089 
L 184.506993 371.779777 
L 184.769093 371.371508 
L 185.031193 370.446924 
L 185.555393 371.945708 
L 185.817493 372.182642 
L 186.079593 371.062799 
L 186.341693 371.126856 
L 186.603793 372.183414 
L 186.865893 372.212741 
L 187.127993 371.992014 
L 187.390093 371.461034 
L 187.652193 371.937218 
L 188.176393 371.961143 
L 188.438493 371.392346 
L 188.700593 371.620019 
L 188.962693 372.218916 
L 189.224793 372.505244 
L 189.486893 372.46434 
L 189.748993 371.558278 
L 190.011093 372.311528 
L 190.273193 372.04218 
L 190.535293 371.965002 
L 190.797393 371.11528 
L 191.059493 371.236448 
L 191.321593 372.391793 
L 191.583693 372.092345 
L 191.845793 371.46798 
L 192.107893 371.625422 
L 192.369993 372.720568 
L 192.632093 372.465111 
L 192.894193 372.036777 
L 193.156293 371.331376 
L 193.680493 372.840965 
L 194.204693 371.815278 
L 194.728893 371.51583 
L 194.990993 371.244938 
L 195.253093 371.135346 
L 195.515193 370.866769 
L 195.777293 372.079996 
L 196.039393 372.045267 
L 196.301493 371.853867 
L 196.563593 371.220241 
L 196.825693 371.421674 
L 197.087793 372.577018 
L 197.349893 375.112294 
L 197.874093 374.142947 
L 198.136193 374.964885 
L 198.398293 373.125749 
L 198.660393 373.36963 
L 198.922493 372.650337 
L 199.446693 372.480547 
L 199.708793 372.615607 
L 199.970893 371.812963 
L 200.495093 372.566214 
L 200.757193 375.099946 
L 201.019293 375.252757 
L 201.281393 374.100499 
L 201.543493 373.564117 
L 201.805594 373.732363 
L 202.067694 372.910425 
L 202.591894 371.921783 
L 202.853994 372.802376 
L 203.116094 372.789256 
L 203.378194 372.888815 
L 203.640294 372.14251 
L 203.902394 373.201383 
L 204.164494 373.051659 
L 204.426594 372.592454 
L 204.688694 372.43424 
L 204.950794 373.106455 
L 205.212894 374.086607 
L 206.261294 372.547691 
L 206.785494 372.263678 
L 207.047594 371.588377 
L 207.571794 373.185176 
L 207.833894 371.971176 
L 208.095994 371.757395 
L 208.358094 372.10315 
L 208.620194 372.901163 
L 209.144394 372.770734 
L 209.406494 372.14251 
L 209.668594 374.227842 
L 209.930694 373.010755 
L 210.192794 372.867977 
L 210.454894 372.029059 
L 210.716994 372.570073 
L 211.241194 372.823214 
L 211.765394 372.053756 
L 212.027494 373.434459 
L 212.289594 373.652099 
L 212.813794 372.36864 
L 213.075894 372.078453 
L 213.337994 372.487493 
L 213.862194 371.251884 
L 214.124294 371.018808 
L 214.386394 372.486721 
L 214.648494 372.039092 
L 214.910594 372.241297 
L 215.172694 371.706458 
L 215.434794 371.985068 
L 215.696894 372.965992 
L 216.221094 371.753536 
L 216.483194 371.995873 
L 216.745294 373.423654 
L 217.531594 372.499841 
L 217.793694 373.61351 
L 218.317894 373.225308 
L 218.842094 372.306898 
L 219.104194 372.725199 
L 219.628394 371.08055 
L 219.890494 371.346812 
L 220.152594 373.202155 
L 220.414694 373.188263 
L 220.676794 372.972166 
L 221.200994 372.288375 
L 221.463094 373.00844 
L 221.725194 372.840193 
L 221.987294 372.070735 
L 222.249394 372.189588 
L 222.511494 373.291681 
L 222.773594 373.209873 
L 223.035694 372.751439 
L 223.297794 372.005906 
L 223.559894 371.85078 
L 223.821994 372.218144 
L 224.346194 371.047364 
L 224.608294 371.484187 
L 224.870394 372.518364 
L 225.132494 372.227405 
L 225.394594 372.234351 
L 225.656694 371.544386 
L 225.918794 372.591682 
L 226.442994 372.752211 
L 226.705094 371.540527 
L 227.229294 372.940524 
L 227.753494 373.081758 
L 228.539795 372.208111 
L 228.801895 372.115498 
L 229.063995 371.45486 
L 229.326095 372.533027 
L 229.588195 372.990689 
L 229.850295 372.786169 
L 230.112395 372.204252 
L 230.374495 374.563563 
L 230.898695 374.849891 
L 231.160795 372.805463 
L 231.422895 372.1209 
L 231.684995 373.06941 
L 232.209195 372.623325 
L 232.471295 372.087714 
L 232.733395 372.522223 
L 232.995495 373.209101 
L 233.257595 372.387934 
L 233.519695 371.988927 
L 233.781795 372.067648 
L 234.043895 372.841737 
L 234.305995 371.904032 
L 234.568095 371.739644 
L 234.830195 370.995655 
L 235.354395 372.406457 
L 235.616495 372.532256 
L 235.878595 371.728068 
L 236.140695 371.691794 
L 236.402795 372.38639 
L 236.664895 372.269081 
L 236.926995 375.517475 
L 237.189095 375.081423 
L 237.451195 376.651982 
L 237.713295 376.836436 
L 237.975395 376.595643 
L 238.237495 376.151101 
L 238.761695 376.144155 
L 239.285895 374.923981 
L 239.547995 375.062129 
L 239.810095 375.381643 
L 240.334295 375.079108 
L 240.596395 374.477125 
L 241.120595 378.468737 
L 241.382695 378.604569 
L 241.644795 378.064327 
L 241.906895 376.12023 
L 242.168995 376.522324 
L 242.431095 376.453636 
L 242.693195 375.451103 
L 242.955295 375.347685 
L 243.479495 376.722985 
L 243.741595 376.737649 
L 244.003695 375.234234 
L 244.265795 375.435667 
L 244.527895 375.820782 
L 245.314195 375.121555 
L 245.576295 375.694983 
L 245.838395 375.192559 
L 246.100495 375.340739 
L 246.362595 374.763453 
L 246.624695 376.476018 
L 246.886795 376.460582 
L 247.410995 375.750551 
L 247.673095 375.981311 
L 248.197295 375.893329 
L 248.721495 374.985723 
L 248.983595 376.448234 
L 249.245695 376.594871 
L 249.769895 375.469625 
L 250.294095 376.748454 
L 250.556195 376.469072 
L 250.818295 375.622436 
L 251.080395 375.757497 
L 251.342495 375.56764 
L 251.604595 375.852425 
L 251.866695 375.591565 
L 252.128795 374.892339 
L 252.390895 375.529823 
L 252.652995 376.472931 
L 252.915095 376.520009 
L 253.177195 375.81538 
L 253.439295 376.534672 
L 253.701395 376.676679 
L 253.963495 376.645808 
L 254.225595 375.46731 
L 254.487695 375.421003 
L 254.749795 377.113502 
L 255.273995 377.03864 
L 255.798196 376.59873 
L 256.060296 377.287152 
L 256.322396 376.82949 
L 256.584496 376.788586 
L 256.846596 376.070837 
L 257.108696 376.300825 
L 257.370796 376.309315 
L 257.632896 376.188918 
L 257.894996 375.461136 
L 258.419196 377.422212 
L 258.681296 377.17756 
L 258.943396 376.487594 
L 259.205496 376.195092 
L 259.467596 377.260139 
L 259.729696 376.337098 
L 259.991796 376.63809 
L 260.253896 375.644818 
L 260.515996 377.498617 
L 260.778096 376.879655 
L 261.040196 376.81637 
L 261.302296 376.256062 
L 261.564396 376.090131 
L 261.826496 376.790901 
L 262.350696 376.854187 
L 262.612796 376.39884 
L 262.874896 377.378221 
L 263.136996 379.790784 
L 263.399096 379.854842 
L 263.661196 379.504456 
L 263.923296 376.95992 
L 264.185396 377.366644 
L 264.447496 377.380536 
L 264.709596 375.805347 
L 264.971696 376.060032 
L 265.233796 376.493768 
L 265.495896 376.69443 
L 265.757996 376.576348 
L 266.020096 375.645589 
L 266.282196 380.21526 
L 266.806396 379.614048 
L 267.068496 376.954517 
L 267.592696 377.661462 
L 267.854796 377.175244 
L 268.116896 377.162896 
L 268.378996 376.423537 
L 268.641096 377.047902 
L 268.903196 376.898178 
L 269.165296 377.005454 
L 269.427396 376.121774 
L 269.951596 377.714714 
L 270.213696 377.968627 
L 270.737896 376.32475 
L 270.999996 380.489239 
L 271.262096 380.706879 
L 271.524196 380.561014 
L 271.786296 379.754511 
L 272.048396 381.698608 
L 272.310496 381.297286 
L 272.834696 380.105668 
L 273.096796 380.482293 
L 273.358896 381.636095 
L 274.145196 380.297068 
L 274.407296 381.50335 
L 274.669396 380.606549 
L 275.193596 379.856385 
L 275.455696 380.449879 
L 275.717796 380.628159 
L 275.979896 380.442161 
L 276.241996 379.222759 
L 276.504096 379.221216 
L 276.766196 380.354951 
L 277.290396 380.294752 
L 277.552496 379.850983 
L 278.076696 380.605777 
L 278.338796 380.027719 
L 278.600896 380.172812 
L 279.125096 381.022535 
L 279.649296 381.016361 
L 279.911396 380.478434 
L 280.173496 381.44701 
L 280.435596 380.037752 
L 280.697696 379.881082 
L 280.959796 378.937203 
L 281.221896 379.529153 
L 281.483996 380.655171 
L 281.746096 379.946683 
L 282.270297 379.293762 
L 282.532397 380.714597 
L 282.794497 380.333341 
L 283.056597 383.268395 
L 283.318697 382.564538 
L 283.842897 384.046343 
L 284.104997 383.906652 
L 284.629197 383.222089 
L 284.891297 384.128151 
L 285.153397 384.096508 
L 285.677597 382.908749 
L 285.939697 384.644467 
L 286.201797 384.204556 
L 286.725997 382.113051 
L 286.988097 382.705001 
L 287.250197 384.023961 
L 287.512297 383.465969 
L 287.774397 383.42275 
L 288.036497 382.882509 
L 288.298597 383.598714 
L 288.560697 383.686696 
L 288.822797 383.616465 
L 289.084897 382.874791 
L 289.346997 383.424294 
L 289.609097 384.528701 
L 289.871197 384.405989 
L 290.133297 383.822529 
L 290.395397 383.641162 
L 290.657497 384.095736 
L 290.919597 384.262439 
L 291.181697 384.067181 
L 291.443797 383.120215 
L 291.705897 384.459242 
L 291.967997 384.582725 
L 292.230097 384.390554 
L 292.754297 383.186587 
L 293.016397 384.08416 
L 293.278497 384.152848 
L 293.540597 383.915141 
L 293.802697 383.367954 
L 294.064797 384.500146 
L 294.326897 384.270929 
L 294.588997 383.628813 
L 294.851097 382.63091 
L 295.375297 384.551083 
L 295.637397 383.888129 
L 295.899497 385.280409 
L 296.161597 385.426274 
L 296.423697 386.661883 
L 296.685797 386.353945 
L 296.947897 384.403674 
L 297.209997 383.395738 
L 297.472097 384.212274 
L 297.734197 383.800147 
L 297.996297 383.668946 
L 298.258397 383.163434 
L 298.520497 383.442816 
L 298.782597 384.581954 
L 299.306797 384.068724 
L 299.568897 383.74921 
L 299.830997 385.22021 
L 300.093097 384.25395 
L 300.355197 382.654064 
L 300.617297 382.613931 
L 300.879397 383.774679 
L 301.141497 384.345019 
L 301.665697 384.177544 
L 301.927797 383.85803 
L 302.189897 387.779411 
L 302.451997 387.542476 
L 302.714097 387.518551 
L 302.976197 387.028475 
L 303.238297 387.482278 
L 303.500397 388.213147 
L 303.762497 388.229355 
L 304.286697 387.097163 
L 304.548797 387.725387 
L 304.810897 387.006094 
L 305.072997 387.025388 
L 305.597197 390.319317 
L 305.859297 390.295392 
L 306.121397 390.118656 
L 306.383497 387.595729 
L 306.645597 387.677537 
L 306.907697 388.829794 
L 307.169797 388.539608 
L 307.431897 388.895395 
L 307.693997 387.80102 
L 307.956097 388.713257 
L 308.218197 388.446223 
L 308.480297 388.603665 
L 308.742397 387.406644 
L 309.004498 388.588229 
L 309.266598 388.758019 
L 309.528698 388.10973 
L 310.052898 385.886251 
L 310.314998 387.556368 
L 310.839198 387.399698 
L 311.101298 386.840163 
L 311.363398 386.939721 
L 311.625498 387.853501 
L 311.887598 387.963093 
L 312.149698 386.901904 
L 312.411798 386.942037 
L 312.673898 388.280292 
L 312.935998 388.246334 
L 313.460198 386.982941 
L 313.722298 391.105754 
L 313.984398 391.253935 
L 314.246498 391.125048 
L 314.508598 389.980509 
L 314.770698 390.900462 
L 315.032798 390.482161 
L 315.294898 389.814577 
L 315.556998 389.727367 
L 315.819098 388.913918 
L 316.081198 391.182931 
L 316.343298 390.753825 
L 316.605398 390.727585 
L 316.867498 390.265293 
L 317.129598 390.201236 
L 317.391698 390.824057 
L 317.653798 390.731444 
L 317.915898 389.999031 
L 318.177998 390.473672 
L 318.440098 391.317992 
L 318.964298 391.29561 
L 319.226398 390.427365 
L 319.488498 391.189106 
L 319.750598 391.429127 
L 320.012698 391.490097 
L 320.274798 390.949084 
L 320.798998 392.63155 
L 321.061098 392.3267 
L 321.585298 391.415235 
L 322.109498 391.566503 
L 322.371598 390.135635 
L 322.633698 390.120971 
L 322.895798 390.550849 
L 323.157898 391.44765 
L 323.419998 391.3041 
L 323.682098 390.852612 
L 323.944198 391.251619 
L 324.206298 391.133538 
L 324.730498 391.275544 
L 324.992598 390.545447 
L 325.254698 391.153604 
L 325.516798 392.3267 
L 326.040998 391.419866 
L 326.303098 391.572677 
L 326.565198 392.555916 
L 327.089398 392.236402 
L 327.351498 391.639821 
L 327.875698 391.611266 
L 328.137798 391.610494 
L 328.399898 390.837177 
L 328.661998 391.580395 
L 328.924098 393.572342 
L 329.186198 393.431107 
L 329.448298 392.853049 
L 329.710398 391.04324 
L 329.972498 391.489326 
L 330.234598 391.531001 
L 330.496698 391.382049 
L 330.758798 390.415017 
L 331.020898 392.207847 
L 331.545098 392.062753 
L 331.807198 390.692084 
L 332.069298 393.490534 
L 332.331398 394.21986 
L 332.593498 393.952054 
L 332.855598 394.104094 
L 333.117698 391.682269 
L 333.379798 393.181825 
L 333.641898 393.286014 
L 334.428198 391.12582 
L 334.690298 391.605092 
L 334.952398 391.519425 
L 335.214498 391.141256 
L 335.476598 390.406527 
L 335.738699 391.360439 
L 336.000799 391.424497 
L 336.262899 391.138169 
L 336.524999 390.362536 
L 337.049199 391.815014 
L 337.311299 391.588884 
L 337.573399 391.018544 
L 337.835499 391.110385 
L 338.097599 392.397703 
L 338.359699 392.450183 
L 338.621799 392.334417 
L 338.883899 391.676095 
L 339.145999 392.907845 
L 339.408099 392.484913 
L 339.670199 392.281937 
L 339.932299 391.553383 
L 340.194399 392.234859 
L 340.456499 391.497043 
L 340.718599 391.562644 
L 340.980699 390.454377 
L 341.242799 390.367939 
L 341.504899 392.227913 
L 341.766999 392.363745 
L 342.029099 392.117549 
L 342.291199 391.48701 
L 342.553299 391.977858 
L 342.815399 391.914573 
L 343.077499 392.075873 
L 343.339599 391.453824 
L 343.863799 392.614571 
L 344.125899 392.391529 
L 344.387999 392.33133 
L 344.650099 391.64368 
L 344.912199 392.45327 
L 345.174299 392.302775 
L 345.436399 392.492631 
L 345.698499 392.088222 
L 346.222699 393.526035 
L 346.484799 393.421846 
L 346.746899 393.461978 
L 347.008999 391.642908 
L 347.271099 391.971684 
L 347.533199 391.844341 
L 347.795299 391.098036 
L 348.057399 391.017 
L 348.319499 391.07334 
L 348.581599 392.2966 
L 348.843699 392.158453 
L 349.105799 391.255478 
L 349.367899 391.133538 
L 349.629999 393.382486 
L 349.892099 392.697923 
L 350.154199 392.837614 
L 350.416299 392.044231 
L 350.678399 392.032654 
L 350.940499 392.533535 
L 351.202599 392.467934 
L 351.464699 391.80035 
L 351.988899 393.113137 
L 352.250999 392.981163 
L 352.513099 392.65316 
L 352.775199 391.712368 
L 353.037299 392.147648 
L 353.299399 392.294285 
L 353.823599 391.175214 
L 354.085699 391.520196 
L 354.347799 392.97113 
L 354.871999 391.60895 
L 355.134099 391.507848 
L 355.396199 392.248751 
L 355.920399 392.280393 
L 356.182499 391.55647 
L 356.444599 392.048089 
L 356.706699 392.899355 
L 356.968799 392.671682 
L 357.230899 391.562644 
L 357.492999 391.402887 
L 357.755099 392.21788 
L 358.541399 391.35658 
L 358.803499 392.191639 
L 359.065599 392.158453 
L 359.327699 392.239489 
L 359.589799 391.522512 
L 359.851899 392.308949 
L 360.900299 391.081057 
L 361.162399 393.204206 
L 361.424499 392.982707 
L 361.686599 401.4398 
L 361.948699 400.945865 
L 362.210799 401.478389 
L 362.4729 399.066597 
L 362.735 398.968581 
L 362.9971 398.493169 
L 363.2592 398.479277 
L 363.5213 399.126023 
L 363.7834 399.25954 
L 364.0455 398.868251 
L 364.3076 398.121946 
L 364.5697 402.327339 
L 364.8318 402.500988 
L 365.0939 402.524142 
L 365.356 402.06648 
L 365.8802 402.747956 
L 366.1423 402.730977 
L 366.6665 401.368797 
L 366.9286 402.291066 
L 367.1907 402.234726 
L 367.4528 401.954573 
L 367.7149 401.368025 
L 367.977 402.839797 
L 368.2391 401.706062 
L 368.7633 400.827012 
L 369.2875 402.57585 
L 369.5496 402.578166 
L 369.8117 402.720944 
L 370.0738 401.988531 
L 370.3359 402.396799 
L 370.598 402.30573 
L 370.8601 402.41918 
L 371.1222 401.850383 
L 371.3843 402.406832 
L 371.6464 401.643548 
L 371.9085 401.781695 
L 372.4327 401.006835 
L 372.6948 401.797903 
L 373.219 401.80562 
L 373.4811 401.105622 
L 373.7432 401.476845 
L 374.0053 402.761076 
L 374.2674 402.365156 
L 374.5295 401.445974 
L 374.7916 401.568686 
L 375.0537 402.1753 
L 375.3158 402.154462 
L 375.84 400.92194 
L 376.3642 402.423039 
L 376.6263 402.299555 
L 376.8884 401.873537 
L 377.1505 402.231639 
L 377.4126 402.065708 
L 377.6747 402.074969 
L 377.9368 401.939137 
L 378.1989 401.510803 
L 378.461 403.065155 
L 378.9852 403.174746 
L 379.2473 402.135168 
L 379.5094 402.428442 
L 380.0336 402.546523 
L 380.5578 401.822599 
L 380.8199 403.549057 
L 381.3441 403.603852 
L 381.6062 403.031197 
L 381.8683 402.955563 
L 382.1304 401.314001 
L 382.3925 401.315544 
L 382.6546 400.837817 
L 382.9167 400.650276 
L 383.1788 402.061849 
L 383.4409 402.601319 
L 383.703 402.629103 
L 384.2272 402.083459 
L 384.4893 402.847515 
L 384.7514 402.695475 
L 385.0135 401.676734 
L 385.2756 401.899005 
L 385.5377 403.000326 
L 385.7998 402.821274 
L 386.0619 402.99338 
L 386.324 402.440018 
L 386.5861 403.169344 
L 386.8482 402.677724 
L 387.1103 401.750053 
L 387.3724 401.702975 
L 387.6345 401.798675 
L 387.8966 403.271218 
L 388.1587 403.060524 
L 388.4208 403.200987 
L 388.6829 401.043108 
L 388.945 402.890734 
L 389.2071 403.001097 
L 389.731301 401.381145 
L 389.993401 401.682137 
L 390.255501 402.387538 
L 390.517601 402.450051 
L 390.779701 401.75314 
L 391.041801 402.285664 
L 391.303901 403.294371 
L 391.828101 403.316753 
L 392.090201 402.79349 
L 392.352301 403.336047 
L 392.614401 403.58533 
L 392.876501 403.569894 
L 393.138601 402.172985 
L 393.400701 402.886875 
L 393.662801 403.114548 
L 393.924901 402.389081 
L 394.187001 402.051816 
L 394.711201 405.267024 
L 394.973301 405.522481 
L 395.235401 403.483456 
L 395.497501 402.727118 
L 395.759601 402.970998 
L 396.021701 403.613886 
L 396.545901 402.20154 
L 396.808001 402.868352 
L 397.070101 402.940899 
L 397.594301 402.00551 
L 397.856401 404.595581 
L 398.380601 405.940782 
L 398.642701 403.57221 
L 398.904801 402.88456 
L 399.166901 403.660964 
L 399.429001 405.36118 
L 399.691101 404.607158 
L 399.953201 404.460521 
L 400.215301 403.491945 
L 400.477401 403.633952 
L 401.001601 403.12844 
L 401.263701 402.314219 
L 401.787901 404.070775 
L 402.050001 403.724249 
L 402.312101 402.987977 
L 402.574201 403.055122 
L 402.836301 403.806829 
L 403.098401 403.876288 
L 403.360501 402.454682 
L 403.622601 402.285664 
L 403.884701 402.817415 
L 404.146801 403.786763 
L 404.408901 403.616973 
L 404.671001 403.180921 
L 404.933101 403.223368 
L 405.195201 403.807601 
L 405.457301 403.116863 
L 405.719401 403.098341 
L 405.981501 402.5581 
L 406.243601 402.842112 
L 406.505701 402.731749 
L 406.767801 402.499445 
L 407.029901 401.907495 
L 407.292001 401.62271 
L 407.554101 402.348949 
L 407.816201 402.054132 
L 408.078301 402.086546 
L 408.340401 401.389635 
L 408.602501 401.967693 
L 408.864601 401.9839 
L 409.126701 401.763945 
L 409.388801 401.239139 
L 409.650901 402.122819 
L 409.913001 401.908266 
L 410.175101 401.919843 
L 410.437201 401.455235 
L 410.699301 401.351046 
L 411.223501 401.862732 
L 411.485601 401.858873 
L 411.747701 401.359535 
L 412.009801 401.706062 
L 412.271901 402.368243 
L 412.534001 402.402973 
L 413.058201 401.614221 
L 413.320301 402.92392 
L 413.582401 402.135168 
L 413.844501 402.160636 
L 414.106601 401.621167 
L 414.368701 402.11896 
L 414.630801 401.912897 
L 414.892901 400.790738 
L 415.155001 400.623264 
L 415.417101 401.246085 
L 415.679201 402.699334 
L 416.203402 402.230868 
L 416.465502 400.509041 
L 416.727602 401.380373 
L 416.989702 401.434397 
L 417.251802 401.155015 
L 417.513902 400.517531 
L 417.776002 401.105622 
L 418.300202 400.505954 
L 418.562302 399.621502 
L 418.824402 399.867697 
L 419.086502 400.379383 
L 419.610702 400.411026 
L 419.872802 399.924037 
L 420.134902 400.947408 
L 420.659102 401.529326 
L 420.921202 400.375524 
L 421.445402 402.436159 
L 421.707502 402.257108 
L 421.969602 401.06549 
L 422.231702 400.550717 
L 422.493802 401.894374 
L 422.755902 401.990846 
L 423.018002 401.838035 
L 423.280102 401.279271 
L 423.542202 401.861188 
L 423.804302 400.742117 
L 424.066402 400.194158 
L 424.328502 399.372991 
L 424.590602 399.688646 
L 424.852702 401.067805 
L 425.114802 401.359535 
L 425.376902 401.376514 
L 425.639002 400.915766 
L 425.901102 400.898015 
L 426.163202 401.128775 
L 426.425302 401.147298 
L 426.687402 400.65645 
L 426.949502 400.907276 
L 427.211602 402.379048 
L 427.735802 407.676501 
L 427.997902 406.872313 
L 428.260002 405.662172 
L 428.522102 405.892932 
L 428.784202 405.715424 
L 429.046302 404.249055 
L 429.308402 404.945966 
L 429.570502 405.286318 
L 429.832602 405.394367 
L 430.094702 404.971435 
L 430.356802 404.183454 
L 430.618902 404.70363 
L 430.881002 404.805504 
L 431.143102 404.435052 
L 431.405202 403.351483 
L 431.667302 404.511458 
L 431.929402 405.092603 
L 432.191502 405.340343 
L 432.453602 404.692053 
L 432.715702 405.114985 
L 432.977802 405.960077 
L 433.239902 405.986317 
L 433.502002 405.838136 
L 433.764102 404.938249 
L 434.026202 406.142215 
L 434.288302 406.208588 
L 434.550402 406.129867 
L 434.812502 404.529981 
L 435.074602 405.223805 
L 435.598802 405.246186 
L 436.123002 404.935162 
L 436.385102 407.985982 
L 436.647202 407.617074 
L 436.909302 406.879259 
L 437.171402 406.619943 
L 437.433502 405.061732 
L 437.695602 406.054233 
L 437.957702 406.075843 
L 438.219802 404.959858 
L 438.744002 405.517079 
L 439.006102 405.199108 
L 439.268202 405.324135 
L 439.530302 404.756882 
L 439.792402 406.433946 
L 440.316602 406.028764 
L 440.578702 405.303297 
L 440.840802 405.869007 
L 441.365002 405.740121 
L 441.627102 405.086429 
L 441.889202 405.170552 
L 442.151302 406.278047 
L 442.413402 406.149161 
L 442.675502 406.157651 
L 443.199703 404.678161 
L 443.461803 405.483892 
L 443.723903 405.588082 
L 443.986003 404.644975 
L 444.510203 405.805722 
L 444.772303 405.572646 
L 445.034403 405.638247 
L 445.296503 404.841005 
L 445.558603 405.323364 
L 445.820703 406.043428 
L 446.082803 406.067353 
L 446.344903 405.463055 
L 446.607003 406.171543 
L 446.869103 406.495687 
L 447.655403 405.210685 
L 447.917503 406.322038 
L 448.179603 406.136813 
L 448.441703 406.217077 
L 448.703803 405.907596 
L 448.965903 404.898888 
L 449.228003 405.814211 
L 449.490103 405.632073 
L 449.752203 404.75148 
L 450.014303 405.101093 
L 450.276403 406.087419 
L 450.800603 405.997894 
L 451.062703 405.431412 
L 451.324803 405.601974 
L 451.586903 406.323582 
L 451.849003 406.194696 
L 452.111103 405.546406 
L 452.373203 406.148389 
L 452.635303 406.216305 
L 452.897403 405.891389 
L 453.421603 404.491392 
L 453.683703 405.774851 
L 453.945803 405.879812 
L 454.207903 405.706163 
L 454.470003 404.331635 
L 454.732103 404.401866 
L 454.994203 405.134279 
L 455.256303 405.488523 
L 455.518403 405.418292 
L 455.780503 404.874191 
L 456.042603 405.524025 
L 456.304703 405.745524 
L 456.828903 404.59944 
L 457.091003 405.259306 
L 457.353103 406.314321 
L 458.139403 404.926672 
L 458.401503 404.679705 
L 458.663603 404.125571 
L 458.925703 404.14255 
L 459.187803 403.459531 
L 459.449903 405.100321 
L 459.712003 405.449163 
L 459.974103 405.535601 
L 460.236203 406.687087 
L 460.498303 409.910785 
L 460.760403 410.747387 
L 461.022503 408.863488 
L 461.284603 408.639674 
L 461.546703 408.16812 
L 461.808803 409.304943 
L 462.070903 408.330965 
L 462.333003 408.381902 
L 462.595103 407.474296 
L 463.119303 407.896456 
L 463.381403 407.862498 
L 463.643503 410.235701 
L 463.905603 409.889175 
L 464.167703 411.306923 
L 464.429803 409.356651 
L 464.691903 409.295681 
L 464.954003 408.499983 
L 465.216103 409.081128 
L 465.478203 408.225232 
L 465.740303 408.268451 
L 466.002403 407.469665 
L 466.264503 407.875618 
L 466.526603 408.719167 
L 466.788703 408.521593 
L 467.050803 411.474398 
L 467.312903 411.112436 
L 467.575003 411.999975 
L 468.099203 411.75841 
L 468.361303 411.00979 
L 468.623403 411.920483 
L 468.885503 412.287075 
L 469.147603 412.35036 
L 469.671804 411.076934 
L 469.933904 412.094903 
L 470.196004 412.239225 
L 471.244404 410.621588 
L 471.506504 409.667676 
L 471.768604 409.264039 
L 472.030704 409.211558 
L 472.292804 410.263485 
L 472.554904 410.113761 
L 472.817004 410.167013 
L 473.079104 409.501745 
L 473.603304 410.447167 
L 473.865404 410.543639 
L 474.127504 409.854445 
L 474.651704 410.385425 
L 474.913804 410.002626 
L 475.175904 408.937578 
L 475.438004 409.041768 
L 475.700104 410.203287 
L 476.486404 408.270766 
L 476.748504 408.653566 
L 477.010604 408.23758 
L 477.272704 408.273853 
L 477.534804 407.822366 
L 477.796904 408.161174 
L 478.059004 409.166795 
L 478.321104 411.41883 
L 478.845304 411.911993 
L 479.107404 411.015964 
L 479.369504 412.044738 
L 479.631604 416.951673 
L 479.893704 416.075711 
L 480.155804 412.57649 
L 480.417904 421.322226 
L 480.942104 424.007226 
L 481.204204 424.594545 
L 481.466304 427.02949 
L 481.728404 430.92 
L 481.990504 430.300266 
L 482.252604 415.77935 
L 482.514704 424.4618 
L 482.776804 419.391249 
L 483.038904 420.9757 
L 483.301004 412.866677 
L 483.825204 412.723127 
L 484.349404 412.765574 
L 484.611504 412.537901 
L 484.873604 413.190822 
L 485.135704 413.105155 
L 485.397804 413.201626 
L 485.659904 412.584208 
L 485.922004 412.909124 
L 486.446204 413.042641 
L 486.708304 412.287075 
L 486.970404 412.500084 
L 487.232504 413.245617 
L 487.494604 413.262597 
L 487.756704 413.063479 
L 488.018804 412.569544 
L 488.280904 413.539663 
L 488.543004 413.610666 
L 489.067204 411.986855 
L 489.329304 412.135807 
L 489.591404 412.632058 
L 489.853504 412.561826 
L 490.115604 412.266237 
L 490.639804 411.151796 
L 490.901904 411.102403 
L 491.426104 409.686199 
L 491.688204 409.835151 
L 491.950304 411.183439 
L 492.212404 411.108577 
L 492.474504 410.869327 
L 492.736604 410.240332 
L 492.998704 413.670865 
L 493.260804 413.837568 
L 493.522904 413.813643 
L 493.785004 411.269106 
L 494.047104 411.315412 
L 494.309204 411.890383 
L 494.571304 411.088511 
L 494.833404 409.668448 
L 495.095504 409.527985 
L 495.357604 409.0819 
L 495.619704 409.23857 
L 495.881804 409.144414 
L 496.143904 408.52468 
L 496.406005 409.66922 
L 496.668105 409.768778 
L 497.192305 408.43361 
L 497.716505 409.584325 
L 497.978605 409.627544 
L 498.502805 408.611118 
L 498.764905 410.647056 
L 499.027005 410.17859 
L 499.289105 410.058965 
L 499.551205 409.462384 
L 499.813305 410.086749 
L 500.075405 409.781899 
L 500.337505 409.66073 
L 500.599605 408.634271 
L 500.861705 409.261723 
L 501.123805 410.56139 
L 501.385905 410.307476 
L 501.648005 410.307476 
L 501.910105 409.56503 
L 502.434305 410.516627 
L 502.696405 410.667123 
L 502.958505 410.36999 
L 503.220605 410.637023 
L 503.482705 412.029303 
L 503.744805 411.264475 
L 504.006905 411.257529 
L 504.269005 410.897111 
L 504.531105 411.734485 
L 505.055305 411.367893 
L 505.317405 410.94882 
L 505.579505 411.61486 
L 506.103705 413.923235 
L 506.365805 413.325882 
L 506.627905 413.31199 
L 506.890005 413.814414 
L 507.152105 413.640765 
L 507.414205 412.993248 
L 507.676305 411.736801 
L 507.938405 412.540988 
L 508.200505 412.585751 
L 508.462605 412.157417 
L 508.724705 411.476713 
L 508.986805 410.390828 
L 509.248905 412.166678 
L 509.511005 412.158961 
L 509.773105 411.120925 
L 510.035205 411.036802 
L 510.297305 411.659623 
L 510.559405 411.838675 
L 510.821505 411.810891 
L 511.083605 410.77903 
L 511.345705 410.776714 
L 511.607805 411.894242 
L 511.869905 411.7669 
L 512.132005 411.50604 
L 512.656205 411.46668 
L 512.918305 411.147166 
L 513.180405 411.231289 
L 513.442505 409.809682 
L 513.704605 410.865468 
L 513.966705 410.051247 
L 514.228805 410.129968 
L 514.490905 409.329639 
L 514.753005 409.789616 
L 515.015105 411.618719 
L 515.277205 411.573185 
L 515.539305 410.846946 
L 515.801405 410.448711 
L 516.063505 411.020595 
L 516.325605 410.182449 
L 516.587705 410.491158 
L 516.849805 409.823574 
L 517.111905 410.676384 
L 517.374005 410.031953 
L 517.636105 410.112989 
L 517.898205 409.325009 
L 518.160305 408.947611 
L 518.422405 410.637795 
L 518.684505 410.954222 
L 518.946605 409.850586 
L 519.208705 409.422252 
L 519.470805 409.994908 
L 519.732905 419.096432 
L 520.257105 417.988165 
L 520.781305 419.444501 
L 521.043405 419.49621 
L 521.305505 419.206795 
L 521.567605 418.732155 
L 521.829705 419.655196 
L 522.091805 419.655967 
L 522.616005 419.264678 
L 522.878105 418.872617 
L 523.140205 419.55255 
L 523.402306 419.622781 
L 523.664406 418.835572 
L 523.926506 418.952882 
L 524.188606 419.520135 
L 524.712806 419.64825 
L 524.974906 418.995329 
L 525.499106 419.288603 
L 525.761206 421.183307 
L 526.023306 420.911643 
L 526.547506 419.679892 
L 526.809606 417.86854 
L 527.333806 416.6283 
L 527.595906 417.406248 
L 528.120106 417.437119 
L 528.382206 416.368213 
L 528.644306 417.021905 
L 528.906406 418.107018 
L 529.168506 421.025865 
L 529.692706 419.574159 
L 529.954806 420.604477 
L 530.216906 418.740644 
L 530.479006 418.560821 
L 531.265306 416.853658 
L 531.789506 416.216945 
L 532.051606 416.721685 
L 532.313706 416.919259 
L 532.575806 416.636018 
L 532.837906 416.074939 
L 533.100006 415.883539 
L 533.362106 416.022458 
L 533.624206 415.577917 
L 534.148406 413.868439 
L 534.410506 414.097655 
L 534.672606 416.073395 
L 534.934706 415.990044 
L 535.196806 414.680344 
L 535.458906 414.383211 
L 535.721006 415.545502 
L 536.245206 415.229847 
L 536.507306 414.540653 
L 536.769406 415.0616 
L 537.031506 415.127973 
L 537.293606 414.043631 
L 537.817806 413.69479 
L 538.079906 414.771413 
L 538.342006 414.808459 
L 538.866206 413.262597 
L 539.128306 414.147049 
L 539.390406 414.413311 
L 539.652506 414.448812 
L 539.914606 413.93018 
L 540.176706 414.039772 
L 540.438806 414.960498 
L 540.700906 415.038447 
L 541.225106 414.045947 
L 541.487206 415.063916 
L 541.749306 414.9659 
L 542.011406 413.611438 
L 542.273506 413.673952 
L 542.797706 415.142636 
L 543.059806 415.045393 
L 543.584006 413.228638 
L 543.846106 413.847601 
L 544.632406 411.97605 
L 544.894506 413.369101 
L 545.156606 413.403831 
L 545.418706 413.224008 
L 545.680806 412.303282 
L 546.205006 413.244846 
L 546.467106 412.731616 
L 546.729206 412.649037 
L 546.991306 412.128861 
L 547.777606 413.508792 
L 548.039706 413.203942 
L 548.301806 413.308131 
L 548.563906 413.934811 
L 548.826006 414.028196 
L 549.088106 412.919929 
L 549.350206 412.736247 
L 549.612306 413.514195 
L 549.874406 413.704051 
L 550.136507 413.623015 
L 550.398607 412.508574 
L 550.660707 413.759619 
L 550.922807 414.076046 
L 551.447007 412.095675 
L 551.971207 413.511108 
L 552.233307 413.123677 
L 552.495407 413.06811 
L 552.757507 413.190822 
L 553.019607 411.685092 
L 553.281707 411.999203 
L 553.543807 411.887296 
L 553.805907 411.033715 
L 554.068007 412.339556 
L 554.330107 412.551793 
L 554.854307 411.24904 
L 555.378507 412.570316 
L 555.640607 412.608904 
L 555.902707 411.00979 
L 556.164807 411.573956 
L 556.426907 412.402841 
L 556.689007 412.671418 
L 556.951107 412.679908 
L 557.213207 412.362709 
L 557.475307 412.818055 
L 557.737407 412.839665 
L 557.999507 413.200855 
L 558.261607 412.477703 
L 558.523707 415.877365 
L 558.785807 416.078026 
L 559.047907 415.361048 
L 559.572107 411.848708 
L 559.834207 412.954659 
L 560.358407 412.639775 
L 560.620507 412.211441 
L 560.882607 412.187516 
L 561.144707 412.880569 
L 561.406807 411.801629 
L 561.668907 411.330076 
L 561.931007 410.455657 
L 562.193107 411.31464 
L 562.455207 411.272193 
L 562.717307 411.056096 
L 563.241507 410.208689 
L 563.765707 410.891709 
L 564.027807 409.672307 
L 564.289907 409.899208 
L 564.552007 409.731733 
L 564.814107 409.889947 
L 565.338307 408.376499 
L 565.600407 410.159296 
L 565.862507 409.994136 
L 566.124607 408.915197 
L 566.386707 408.658196 
L 566.648807 409.446949 
L 566.910907 409.638349 
L 567.173007 409.375946 
L 567.435107 411.121697 
L 567.697207 411.462821 
L 567.959307 412.258519 
L 568.221407 412.248486 
L 568.745607 408.875837 
L 569.007707 409.470874 
L 569.269807 408.553235 
L 569.531907 408.49458 
L 569.794007 408.02457 
L 570.318207 409.763376 
L 570.580307 409.128978 
L 570.842407 409.362826 
L 571.104507 408.253787 
L 571.366607 408.965362 
L 571.890807 407.903402 
L 572.152907 407.718176 
L 572.415007 408.144195 
L 572.677107 408.94684 
L 572.939207 407.913435 
L 573.201307 407.896456 
L 573.463407 407.005058 
L 573.725507 408.703731 
L 574.249707 408.538572 
L 574.511807 408.266907 
L 574.773907 407.621705 
L 575.036007 408.261505 
L 575.560207 407.147836 
L 576.084407 409.45621 
L 576.346507 409.404501 
L 576.608607 407.850921 
L 576.870708 407.539897 
L 577.657008 408.434382 
L 577.919108 407.76757 
L 578.705408 408.608803 
L 579.229608 407.832399 
L 579.491708 408.523136 
L 580.278008 406.666249 
L 580.540108 406.637694 
L 580.802208 407.171761 
L 581.064308 407.309908 
L 581.588508 404.605614 
L 581.850608 405.936152 
L 582.374808 406.362171 
L 582.636908 405.79183 
L 582.899008 407.327659 
L 583.161108 407.311452 
L 583.423208 406.534276 
L 583.685308 405.393595 
L 583.947408 405.720827 
L 584.209508 407.928871 
L 584.471608 407.49359 
L 584.995808 405.284775 
L 585.257908 407.294473 
L 585.520008 406.330528 
L 585.782108 405.997122 
L 586.044208 405.38279 
L 586.306308 405.912227 
L 586.568408 404.678161 
L 587.092608 403.643213 
L 587.616808 406.012557 
L 587.878908 406.059635 
L 588.141008 404.978381 
L 588.403108 404.435824 
L 588.665208 405.419064 
L 588.927308 405.169009 
L 589.189408 405.398226 
L 589.451508 404.911237 
L 589.713608 405.245414 
L 590.499908 404.854125 
L 590.762008 404.981468 
L 591.024108 405.877497 
L 591.286208 408.309355 
L 591.548308 408.147282 
L 591.810408 407.622477 
L 592.072508 405.507817 
L 592.334608 405.943098 
L 592.596708 406.124464 
L 593.120908 404.454347 
L 593.383008 405.194477 
L 593.645108 405.16515 
L 594.169308 403.394702 
L 594.431408 404.280698 
L 594.693508 407.519059 
L 594.955608 407.266689 
L 595.217708 406.788961 
L 595.479808 405.571103 
L 595.741908 406.433946 
L 596.004008 405.427553 
L 596.266108 405.464598 
L 596.528208 404.895029 
L 596.790308 406.207816 
L 597.052408 406.403846 
L 597.314508 406.328984 
L 597.576608 405.53483 
L 597.838708 404.141779 
L 598.100808 405.263165 
L 599.411308 402.311132 
L 599.673408 402.213117 
L 599.935508 401.684452 
L 600.197608 401.976182 
L 600.459708 403.923367 
L 600.983908 401.669788 
L 601.246008 401.991618 
L 601.508108 402.786544 
L 602.032308 402.943214 
L 602.294408 402.571991 
L 602.556508 403.296687 
L 603.080708 403.508924 
L 603.342808 402.876842 
L 603.604909 402.769565 
L 603.867009 402.886875 
L 604.129109 402.776511 
L 604.653309 400.464278 
L 604.915409 401.483791 
L 605.177509 400.840132 
L 605.439609 400.948952 
L 605.701709 400.283683 
L 605.963809 401.060859 
L 606.488009 401.223703 
L 606.750109 400.735943 
L 607.274309 402.161408 
L 607.536409 402.120504 
L 607.798509 402.272543 
L 608.060609 400.6086 
L 608.322709 402.037924 
L 608.584809 402.311904 
L 608.846909 402.399114 
L 609.109009 402.046414 
L 609.371109 401.470671 
L 609.633209 401.340241 
L 609.895309 401.442887 
L 610.157409 401.804077 
L 610.419509 401.245313 
L 610.681609 402.795806 
L 610.943709 403.074416 
L 611.205809 402.824361 
L 611.467909 400.740573 
L 611.730009 400.191842 
L 611.992109 401.209811 
L 612.778409 400.411798 
L 613.040509 401.277727 
L 613.302609 401.447518 
L 613.564709 401.262292 
L 613.826809 400.768357 
L 614.351009 401.995477 
L 614.875209 400.940462 
L 615.399409 402.737151 
L 615.661509 402.692388 
L 615.923609 402.50176 
L 616.185709 400.550717 
L 616.447809 400.934288 
L 616.972009 400.15171 
L 617.234109 398.635947 
L 617.496209 399.210918 
L 617.758309 398.890632 
L 618.020409 398.916873 
L 618.282509 398.801107 
L 618.544609 398.348847 
L 619.068809 404.17728 
L 619.330909 403.40705 
L 619.330909 403.40705 
" style="fill:none;stroke:#1f77b4;stroke-linecap:square;stroke-width:1.5;"/>
   </g>
   <g id="patch_3">
    <path d="M 108 448.56 
L 108 60.48 
" style="fill:none;stroke:#000000;stroke-linecap:square;stroke-linejoin:miter;stroke-width:0.8;"/>
   </g>
   <g id="patch_4">
    <path d="M 643.68 448.56 
L 643.68 60.48 
" style="fill:none;stroke:#000000;stroke-linecap:square;stroke-linejoin:miter;stroke-width:0.8;"/>
   </g>
   <g id="patch_5">
    <path d="M 108 448.56 
L 643.68 448.56 
" style="fill:none;stroke:#000000;stroke-linecap:square;stroke-linejoin:miter;stroke-width:0.8;"/>
   </g>
   <g id="patch_6">
    <path d="M 108 60.48 
L 643.68 60.48 
" style="fill:none;stroke:#000000;stroke-linecap:square;stroke-linejoin:miter;stroke-width:0.8;"/>
   </g>
   <g id="text_33">
    <!-- unikernel_falloc - free -->
    <g transform="translate(295.036875 54.48)scale(0.15 -0.15)">
     <defs>
      <path d="M 8.5 21.578125 
L 8.5 54.6875 
L 17.484375 54.6875 
L 17.484375 21.921875 
Q 17.484375 14.15625 20.5 10.265625 
Q 23.53125 6.390625 29.59375 6.390625 
Q 36.859375 6.390625 41.078125 11.03125 
Q 45.3125 15.671875 45.3125 23.6875 
L 45.3125 54.6875 
L 54.296875 54.6875 
L 54.296875 0 
L 45.3125 0 
L 45.3125 8.40625 
Q 42.046875 3.421875 37.71875 1 
Q 33.40625 -1.421875 27.6875 -1.421875 
Q 18.265625 -1.421875 13.375 4.4375 
Q 8.5 10.296875 8.5 21.578125 
z
M 31.109375 56 
z
" id="DejaVuSans-117"/>
      <path d="M 54.890625 33.015625 
L 54.890625 0 
L 45.90625 0 
L 45.90625 32.71875 
Q 45.90625 40.484375 42.875 44.328125 
Q 39.84375 48.1875 33.796875 48.1875 
Q 26.515625 48.1875 22.3125 43.546875 
Q 18.109375 38.921875 18.109375 30.90625 
L 18.109375 0 
L 9.078125 0 
L 9.078125 54.6875 
L 18.109375 54.6875 
L 18.109375 46.1875 
Q 21.34375 51.125 25.703125 53.5625 
Q 30.078125 56 35.796875 56 
Q 45.21875 56 50.046875 50.171875 
Q 54.890625 44.34375 54.890625 33.015625 
z
" id="DejaVuSans-110"/>
      <path d="M 9.078125 75.984375 
L 18.109375 75.984375 
L 18.109375 31.109375 
L 44.921875 54.6875 
L 56.390625 54.6875 
L 27.390625 29.109375 
L 57.625 0 
L 45.90625 0 
L 18.109375 26.703125 
L 18.109375 0 
L 9.078125 0 
z
" id="DejaVuSans-107"/>
      <path d="M 41.109375 46.296875 
Q 39.59375 47.171875 37.8125 47.578125 
Q 36.03125 48 33.890625 48 
Q 26.265625 48 22.1875 43.046875 
Q 18.109375 38.09375 18.109375 28.8125 
L 18.109375 0 
L 9.078125 0 
L 9.078125 54.6875 
L 18.109375 54.6875 
L 18.109375 46.1875 
Q 20.953125 51.171875 25.484375 53.578125 
Q 30.03125 56 36.53125 56 
Q 37.453125 56 38.578125 55.875 
Q 39.703125 55.765625 41.0625 55.515625 
z
" id="DejaVuSans-114"/>
      <path d="M 9.421875 75.984375 
L 18.40625 75.984375 
L 18.40625 0 
L 9.421875 0 
z
" id="DejaVuSans-108"/>
      <path d="M 50.984375 -16.609375 
L 50.984375 -23.578125 
L -0.984375 -23.578125 
L -0.984375 -16.609375 
z
" id="DejaVuSans-95"/>
      <path d="M 37.109375 75.984375 
L 37.109375 68.5 
L 28.515625 68.5 
Q 23.6875 68.5 21.796875 66.546875 
Q 19.921875 64.59375 19.921875 59.515625 
L 19.921875 54.6875 
L 34.71875 54.6875 
L 34.71875 47.703125 
L 19.921875 47.703125 
L 19.921875 0 
L 10.890625 0 
L 10.890625 47.703125 
L 2.296875 47.703125 
L 2.296875 54.6875 
L 10.890625 54.6875 
L 10.890625 58.5 
Q 10.890625 67.625 15.140625 71.796875 
Q 19.390625 75.984375 28.609375 75.984375 
z
" id="DejaVuSans-102"/>
      <path d="M 30.609375 48.390625 
Q 23.390625 48.390625 19.1875 42.75 
Q 14.984375 37.109375 14.984375 27.296875 
Q 14.984375 17.484375 19.15625 11.84375 
Q 23.34375 6.203125 30.609375 6.203125 
Q 37.796875 6.203125 41.984375 11.859375 
Q 46.1875 17.53125 46.1875 27.296875 
Q 46.1875 37.015625 41.984375 42.703125 
Q 37.796875 48.390625 30.609375 48.390625 
z
M 30.609375 56 
Q 42.328125 56 49.015625 48.375 
Q 55.71875 40.765625 55.71875 27.296875 
Q 55.71875 13.875 49.015625 6.21875 
Q 42.328125 -1.421875 30.609375 -1.421875 
Q 18.84375 -1.421875 12.171875 6.21875 
Q 5.515625 13.875 5.515625 27.296875 
Q 5.515625 40.765625 12.171875 48.375 
Q 18.84375 56 30.609375 56 
z
" id="DejaVuSans-111"/>
      <path d="M 48.78125 52.59375 
L 48.78125 44.1875 
Q 44.96875 46.296875 41.140625 47.34375 
Q 37.3125 48.390625 33.40625 48.390625 
Q 24.65625 48.390625 19.8125 42.84375 
Q 14.984375 37.3125 14.984375 27.296875 
Q 14.984375 17.28125 19.8125 11.734375 
Q 24.65625 6.203125 33.40625 6.203125 
Q 37.3125 6.203125 41.140625 7.25 
Q 44.96875 8.296875 48.78125 10.40625 
L 48.78125 2.09375 
Q 45.015625 0.34375 40.984375 -0.53125 
Q 36.96875 -1.421875 32.421875 -1.421875 
Q 20.0625 -1.421875 12.78125 6.34375 
Q 5.515625 14.109375 5.515625 27.296875 
Q 5.515625 40.671875 12.859375 48.328125 
Q 20.21875 56 33.015625 56 
Q 37.15625 56 41.109375 55.140625 
Q 45.0625 54.296875 48.78125 52.59375 
z
" id="DejaVuSans-99"/>
      <path id="DejaVuSans-32"/>
      <path d="M 4.890625 31.390625 
L 31.203125 31.390625 
L 31.203125 23.390625 
L 4.890625 23.390625 
z
" id="DejaVuSans-45"/>
     </defs>
     <use xlink:href="#DejaVuSans-117"/>
     <use x="63.378906" xlink:href="#DejaVuSans-110"/>
     <use x="126.757812" xlink:href="#DejaVuSans-105"/>
     <use x="154.541016" xlink:href="#DejaVuSans-107"/>
     <use x="208.826172" xlink:href="#DejaVuSans-101"/>
     <use x="270.349609" xlink:href="#DejaVuSans-114"/>
     <use x="309.712891" xlink:href="#DejaVuSans-110"/>
     <use x="373.091797" xlink:href="#DejaVuSans-101"/>
     <use x="434.615234" xlink:href="#DejaVuSans-108"/>
     <use x="462.398438" xlink:href="#DejaVuSans-95"/>
     <use x="512.398438" xlink:href="#DejaVuSans-102"/>
     <use x="547.603516" xlink:href="#DejaVuSans-97"/>
     <use x="608.882812" xlink:href="#DejaVuSans-108"/>
     <use x="636.666016" xlink:href="#DejaVuSans-108"/>
     <use x="664.449219" xlink:href="#DejaVuSans-111"/>
     <use x="725.630859" xlink:href="#DejaVuSans-99"/>
     <use x="780.611328" xlink:href="#DejaVuSans-32"/>
     <use x="812.398438" xlink:href="#DejaVuSans-45"/>
     <use x="848.482422" xlink:href="#DejaVuSans-32"/>
     <use x="880.269531" xlink:href="#DejaVuSans-102"/>
     <use x="915.474609" xlink:href="#DejaVuSans-114"/>
     <use x="954.337891" xlink:href="#DejaVuSans-101"/>
     <use x="1015.861328" xlink:href="#DejaVuSans-101"/>
    </g>
   </g>
   <g id="legend_1">
    <g id="patch_7">
     <path d="M 650.68 258.52 
L 654.68 258.52 
Q 656.68 258.52 656.68 256.52 
L 656.68 252.52 
Q 656.68 250.52 654.68 250.52 
L 650.68 250.52 
Q 648.68 250.52 648.68 252.52 
L 648.68 256.52 
Q 648.68 258.52 650.68 258.52 
z
" style="fill:#ffffff;opacity:0.8;stroke:#cccccc;stroke-linejoin:miter;"/>
    </g>
   </g>
  </g>
 </g>
 <defs>
  <clipPath id="pae69f51cd5">
   <rect height="388.08" width="535.68" x="108" y="60.48"/>
  </clipPath>
 </defs>
</svg>
