<?xml version="1.0" encoding="utf-8" standalone="no"?>
<!DOCTYPE svg PUBLIC "-//W3C//DTD SVG 1.1//EN"
  "http://www.w3.org/Graphics/SVG/1.1/DTD/svg11.dtd">
<!-- Created with matplotlib (https://matplotlib.org/) -->
<svg height="504pt" version="1.1" viewBox="0 0 864 504" width="864pt" xmlns="http://www.w3.org/2000/svg" xmlns:xlink="http://www.w3.org/1999/xlink">
 <metadata>
  <rdf:RDF xmlns:cc="http://creativecommons.org/ns#" xmlns:dc="http://purl.org/dc/elements/1.1/" xmlns:rdf="http://www.w3.org/1999/02/22-rdf-syntax-ns#">
   <cc:Work>
    <dc:type rdf:resource="http://purl.org/dc/dcmitype/StillImage"/>
    <dc:date>2022-05-29T17:02:11.459755</dc:date>
    <dc:format>image/svg+xml</dc:format>
    <dc:creator>
     <cc:Agent>
      <dc:title>Matplotlib v3.3.4, https://matplotlib.org/</dc:title>
     </cc:Agent>
    </dc:creator>
   </cc:Work>
  </rdf:RDF>
 </metadata>
 <defs>
  <style type="text/css">*{stroke-linecap:butt;stroke-linejoin:round;}</style>
 </defs>
 <g id="figure_1">
  <g id="patch_1">
   <path d="M 0 504 
L 864 504 
L 864 0 
L 0 0 
z
" style="fill:#ffffff;"/>
  </g>
  <g id="axes_1">
   <g id="patch_2">
    <path d="M 108 448.56 
L 643.68 448.56 
L 643.68 60.48 
L 108 60.48 
z
" style="fill:#ffffff;"/>
   </g>
   <g id="matplotlib.axis_1">
    <g id="xtick_1">
     <g id="line2d_1">
      <defs>
       <path d="M 0 0 
L 0 3.5 
" id="mdd80adf649" style="stroke:#000000;stroke-width:0.8;"/>
      </defs>
      <g>
       <use style="stroke:#000000;stroke-width:0.8;" x="132.349091" xlink:href="#mdd80adf649" y="448.56"/>
      </g>
     </g>
     <g id="text_1">
      <!-- 17:13:12 -->
      <g transform="translate(135.108466 500.4725)rotate(-90)scale(0.1 -0.1)">
       <defs>
        <path d="M 12.40625 8.296875 
L 28.515625 8.296875 
L 28.515625 63.921875 
L 10.984375 60.40625 
L 10.984375 69.390625 
L 28.421875 72.90625 
L 38.28125 72.90625 
L 38.28125 8.296875 
L 54.390625 8.296875 
L 54.390625 0 
L 12.40625 0 
z
" id="DejaVuSans-49"/>
        <path d="M 8.203125 72.90625 
L 55.078125 72.90625 
L 55.078125 68.703125 
L 28.609375 0 
L 18.3125 0 
L 43.21875 64.59375 
L 8.203125 64.59375 
z
" id="DejaVuSans-55"/>
        <path d="M 11.71875 12.40625 
L 22.015625 12.40625 
L 22.015625 0 
L 11.71875 0 
z
M 11.71875 51.703125 
L 22.015625 51.703125 
L 22.015625 39.3125 
L 11.71875 39.3125 
z
" id="DejaVuSans-58"/>
        <path d="M 40.578125 39.3125 
Q 47.65625 37.796875 51.625 33 
Q 55.609375 28.21875 55.609375 21.1875 
Q 55.609375 10.40625 48.1875 4.484375 
Q 40.765625 -1.421875 27.09375 -1.421875 
Q 22.515625 -1.421875 17.65625 -0.515625 
Q 12.796875 0.390625 7.625 2.203125 
L 7.625 11.71875 
Q 11.71875 9.328125 16.59375 8.109375 
Q 21.484375 6.890625 26.8125 6.890625 
Q 36.078125 6.890625 40.9375 10.546875 
Q 45.796875 14.203125 45.796875 21.1875 
Q 45.796875 27.640625 41.28125 31.265625 
Q 36.765625 34.90625 28.71875 34.90625 
L 20.21875 34.90625 
L 20.21875 43.015625 
L 29.109375 43.015625 
Q 36.375 43.015625 40.234375 45.921875 
Q 44.09375 48.828125 44.09375 54.296875 
Q 44.09375 59.90625 40.109375 62.90625 
Q 36.140625 65.921875 28.71875 65.921875 
Q 24.65625 65.921875 20.015625 65.03125 
Q 15.375 64.15625 9.8125 62.3125 
L 9.8125 71.09375 
Q 15.4375 72.65625 20.34375 73.4375 
Q 25.25 74.21875 29.59375 74.21875 
Q 40.828125 74.21875 47.359375 69.109375 
Q 53.90625 64.015625 53.90625 55.328125 
Q 53.90625 49.265625 50.4375 45.09375 
Q 46.96875 40.921875 40.578125 39.3125 
z
" id="DejaVuSans-51"/>
        <path d="M 19.1875 8.296875 
L 53.609375 8.296875 
L 53.609375 0 
L 7.328125 0 
L 7.328125 8.296875 
Q 12.9375 14.109375 22.625 23.890625 
Q 32.328125 33.6875 34.8125 36.53125 
Q 39.546875 41.84375 41.421875 45.53125 
Q 43.3125 49.21875 43.3125 52.78125 
Q 43.3125 58.59375 39.234375 62.25 
Q 35.15625 65.921875 28.609375 65.921875 
Q 23.96875 65.921875 18.8125 64.3125 
Q 13.671875 62.703125 7.8125 59.421875 
L 7.8125 69.390625 
Q 13.765625 71.78125 18.9375 73 
Q 24.125 74.21875 28.421875 74.21875 
Q 39.75 74.21875 46.484375 68.546875 
Q 53.21875 62.890625 53.21875 53.421875 
Q 53.21875 48.921875 51.53125 44.890625 
Q 49.859375 40.875 45.40625 35.40625 
Q 44.1875 33.984375 37.640625 27.21875 
Q 31.109375 20.453125 19.1875 8.296875 
z
" id="DejaVuSans-50"/>
       </defs>
       <use xlink:href="#DejaVuSans-49"/>
       <use x="63.623047" xlink:href="#DejaVuSans-55"/>
       <use x="127.246094" xlink:href="#DejaVuSans-58"/>
       <use x="160.9375" xlink:href="#DejaVuSans-49"/>
       <use x="224.560547" xlink:href="#DejaVuSans-51"/>
       <use x="288.183594" xlink:href="#DejaVuSans-58"/>
       <use x="321.875" xlink:href="#DejaVuSans-49"/>
       <use x="385.498047" xlink:href="#DejaVuSans-50"/>
      </g>
     </g>
    </g>
    <g id="xtick_2">
     <g id="line2d_2">
      <g>
       <use style="stroke:#000000;stroke-width:0.8;" x="156.609732" xlink:href="#mdd80adf649" y="448.56"/>
      </g>
     </g>
     <g id="text_2">
      <!-- 17:14:56 -->
      <g transform="translate(159.369107 500.4725)rotate(-90)scale(0.1 -0.1)">
       <defs>
        <path d="M 37.796875 64.3125 
L 12.890625 25.390625 
L 37.796875 25.390625 
z
M 35.203125 72.90625 
L 47.609375 72.90625 
L 47.609375 25.390625 
L 58.015625 25.390625 
L 58.015625 17.1875 
L 47.609375 17.1875 
L 47.609375 0 
L 37.796875 0 
L 37.796875 17.1875 
L 4.890625 17.1875 
L 4.890625 26.703125 
z
" id="DejaVuSans-52"/>
        <path d="M 10.796875 72.90625 
L 49.515625 72.90625 
L 49.515625 64.59375 
L 19.828125 64.59375 
L 19.828125 46.734375 
Q 21.96875 47.46875 24.109375 47.828125 
Q 26.265625 48.1875 28.421875 48.1875 
Q 40.625 48.1875 47.75 41.5 
Q 54.890625 34.8125 54.890625 23.390625 
Q 54.890625 11.625 47.5625 5.09375 
Q 40.234375 -1.421875 26.90625 -1.421875 
Q 22.3125 -1.421875 17.546875 -0.640625 
Q 12.796875 0.140625 7.71875 1.703125 
L 7.71875 11.625 
Q 12.109375 9.234375 16.796875 8.0625 
Q 21.484375 6.890625 26.703125 6.890625 
Q 35.15625 6.890625 40.078125 11.328125 
Q 45.015625 15.765625 45.015625 23.390625 
Q 45.015625 31 40.078125 35.4375 
Q 35.15625 39.890625 26.703125 39.890625 
Q 22.75 39.890625 18.8125 39.015625 
Q 14.890625 38.140625 10.796875 36.28125 
z
" id="DejaVuSans-53"/>
        <path d="M 33.015625 40.375 
Q 26.375 40.375 22.484375 35.828125 
Q 18.609375 31.296875 18.609375 23.390625 
Q 18.609375 15.53125 22.484375 10.953125 
Q 26.375 6.390625 33.015625 6.390625 
Q 39.65625 6.390625 43.53125 10.953125 
Q 47.40625 15.53125 47.40625 23.390625 
Q 47.40625 31.296875 43.53125 35.828125 
Q 39.65625 40.375 33.015625 40.375 
z
M 52.59375 71.296875 
L 52.59375 62.3125 
Q 48.875 64.0625 45.09375 64.984375 
Q 41.3125 65.921875 37.59375 65.921875 
Q 27.828125 65.921875 22.671875 59.328125 
Q 17.53125 52.734375 16.796875 39.40625 
Q 19.671875 43.65625 24.015625 45.921875 
Q 28.375 48.1875 33.59375 48.1875 
Q 44.578125 48.1875 50.953125 41.515625 
Q 57.328125 34.859375 57.328125 23.390625 
Q 57.328125 12.15625 50.6875 5.359375 
Q 44.046875 -1.421875 33.015625 -1.421875 
Q 20.359375 -1.421875 13.671875 8.265625 
Q 6.984375 17.96875 6.984375 36.375 
Q 6.984375 53.65625 15.1875 63.9375 
Q 23.390625 74.21875 37.203125 74.21875 
Q 40.921875 74.21875 44.703125 73.484375 
Q 48.484375 72.75 52.59375 71.296875 
z
" id="DejaVuSans-54"/>
       </defs>
       <use xlink:href="#DejaVuSans-49"/>
       <use x="63.623047" xlink:href="#DejaVuSans-55"/>
       <use x="127.246094" xlink:href="#DejaVuSans-58"/>
       <use x="160.9375" xlink:href="#DejaVuSans-49"/>
       <use x="224.560547" xlink:href="#DejaVuSans-52"/>
       <use x="288.183594" xlink:href="#DejaVuSans-58"/>
       <use x="321.875" xlink:href="#DejaVuSans-53"/>
       <use x="385.498047" xlink:href="#DejaVuSans-54"/>
      </g>
     </g>
    </g>
    <g id="xtick_3">
     <g id="line2d_3">
      <g>
       <use style="stroke:#000000;stroke-width:0.8;" x="180.870372" xlink:href="#mdd80adf649" y="448.56"/>
      </g>
     </g>
     <g id="text_3">
      <!-- 17:16:42 -->
      <g transform="translate(183.629747 500.4725)rotate(-90)scale(0.1 -0.1)">
       <use xlink:href="#DejaVuSans-49"/>
       <use x="63.623047" xlink:href="#DejaVuSans-55"/>
       <use x="127.246094" xlink:href="#DejaVuSans-58"/>
       <use x="160.9375" xlink:href="#DejaVuSans-49"/>
       <use x="224.560547" xlink:href="#DejaVuSans-54"/>
       <use x="288.183594" xlink:href="#DejaVuSans-58"/>
       <use x="321.875" xlink:href="#DejaVuSans-52"/>
       <use x="385.498047" xlink:href="#DejaVuSans-50"/>
      </g>
     </g>
    </g>
    <g id="xtick_4">
     <g id="line2d_4">
      <g>
       <use style="stroke:#000000;stroke-width:0.8;" x="205.131013" xlink:href="#mdd80adf649" y="448.56"/>
      </g>
     </g>
     <g id="text_4">
      <!-- 17:18:28 -->
      <g transform="translate(207.890388 500.4725)rotate(-90)scale(0.1 -0.1)">
       <defs>
        <path d="M 31.78125 34.625 
Q 24.75 34.625 20.71875 30.859375 
Q 16.703125 27.09375 16.703125 20.515625 
Q 16.703125 13.921875 20.71875 10.15625 
Q 24.75 6.390625 31.78125 6.390625 
Q 38.8125 6.390625 42.859375 10.171875 
Q 46.921875 13.96875 46.921875 20.515625 
Q 46.921875 27.09375 42.890625 30.859375 
Q 38.875 34.625 31.78125 34.625 
z
M 21.921875 38.8125 
Q 15.578125 40.375 12.03125 44.71875 
Q 8.5 49.078125 8.5 55.328125 
Q 8.5 64.0625 14.71875 69.140625 
Q 20.953125 74.21875 31.78125 74.21875 
Q 42.671875 74.21875 48.875 69.140625 
Q 55.078125 64.0625 55.078125 55.328125 
Q 55.078125 49.078125 51.53125 44.71875 
Q 48 40.375 41.703125 38.8125 
Q 48.828125 37.15625 52.796875 32.3125 
Q 56.78125 27.484375 56.78125 20.515625 
Q 56.78125 9.90625 50.3125 4.234375 
Q 43.84375 -1.421875 31.78125 -1.421875 
Q 19.734375 -1.421875 13.25 4.234375 
Q 6.78125 9.90625 6.78125 20.515625 
Q 6.78125 27.484375 10.78125 32.3125 
Q 14.796875 37.15625 21.921875 38.8125 
z
M 18.3125 54.390625 
Q 18.3125 48.734375 21.84375 45.5625 
Q 25.390625 42.390625 31.78125 42.390625 
Q 38.140625 42.390625 41.71875 45.5625 
Q 45.3125 48.734375 45.3125 54.390625 
Q 45.3125 60.0625 41.71875 63.234375 
Q 38.140625 66.40625 31.78125 66.40625 
Q 25.390625 66.40625 21.84375 63.234375 
Q 18.3125 60.0625 18.3125 54.390625 
z
" id="DejaVuSans-56"/>
       </defs>
       <use xlink:href="#DejaVuSans-49"/>
       <use x="63.623047" xlink:href="#DejaVuSans-55"/>
       <use x="127.246094" xlink:href="#DejaVuSans-58"/>
       <use x="160.9375" xlink:href="#DejaVuSans-49"/>
       <use x="224.560547" xlink:href="#DejaVuSans-56"/>
       <use x="288.183594" xlink:href="#DejaVuSans-58"/>
       <use x="321.875" xlink:href="#DejaVuSans-50"/>
       <use x="385.498047" xlink:href="#DejaVuSans-56"/>
      </g>
     </g>
    </g>
    <g id="xtick_5">
     <g id="line2d_5">
      <g>
       <use style="stroke:#000000;stroke-width:0.8;" x="229.391654" xlink:href="#mdd80adf649" y="448.56"/>
      </g>
     </g>
     <g id="text_5">
      <!-- 17:20:13 -->
      <g transform="translate(232.151029 500.4725)rotate(-90)scale(0.1 -0.1)">
       <defs>
        <path d="M 31.78125 66.40625 
Q 24.171875 66.40625 20.328125 58.90625 
Q 16.5 51.421875 16.5 36.375 
Q 16.5 21.390625 20.328125 13.890625 
Q 24.171875 6.390625 31.78125 6.390625 
Q 39.453125 6.390625 43.28125 13.890625 
Q 47.125 21.390625 47.125 36.375 
Q 47.125 51.421875 43.28125 58.90625 
Q 39.453125 66.40625 31.78125 66.40625 
z
M 31.78125 74.21875 
Q 44.046875 74.21875 50.515625 64.515625 
Q 56.984375 54.828125 56.984375 36.375 
Q 56.984375 17.96875 50.515625 8.265625 
Q 44.046875 -1.421875 31.78125 -1.421875 
Q 19.53125 -1.421875 13.0625 8.265625 
Q 6.59375 17.96875 6.59375 36.375 
Q 6.59375 54.828125 13.0625 64.515625 
Q 19.53125 74.21875 31.78125 74.21875 
z
" id="DejaVuSans-48"/>
       </defs>
       <use xlink:href="#DejaVuSans-49"/>
       <use x="63.623047" xlink:href="#DejaVuSans-55"/>
       <use x="127.246094" xlink:href="#DejaVuSans-58"/>
       <use x="160.9375" xlink:href="#DejaVuSans-50"/>
       <use x="224.560547" xlink:href="#DejaVuSans-48"/>
       <use x="288.183594" xlink:href="#DejaVuSans-58"/>
       <use x="321.875" xlink:href="#DejaVuSans-49"/>
       <use x="385.498047" xlink:href="#DejaVuSans-51"/>
      </g>
     </g>
    </g>
    <g id="xtick_6">
     <g id="line2d_6">
      <g>
       <use style="stroke:#000000;stroke-width:0.8;" x="253.652294" xlink:href="#mdd80adf649" y="448.56"/>
      </g>
     </g>
     <g id="text_6">
      <!-- 17:21:59 -->
      <g transform="translate(256.411669 500.4725)rotate(-90)scale(0.1 -0.1)">
       <defs>
        <path d="M 10.984375 1.515625 
L 10.984375 10.5 
Q 14.703125 8.734375 18.5 7.8125 
Q 22.3125 6.890625 25.984375 6.890625 
Q 35.75 6.890625 40.890625 13.453125 
Q 46.046875 20.015625 46.78125 33.40625 
Q 43.953125 29.203125 39.59375 26.953125 
Q 35.25 24.703125 29.984375 24.703125 
Q 19.046875 24.703125 12.671875 31.3125 
Q 6.296875 37.9375 6.296875 49.421875 
Q 6.296875 60.640625 12.9375 67.421875 
Q 19.578125 74.21875 30.609375 74.21875 
Q 43.265625 74.21875 49.921875 64.515625 
Q 56.59375 54.828125 56.59375 36.375 
Q 56.59375 19.140625 48.40625 8.859375 
Q 40.234375 -1.421875 26.421875 -1.421875 
Q 22.703125 -1.421875 18.890625 -0.6875 
Q 15.09375 0.046875 10.984375 1.515625 
z
M 30.609375 32.421875 
Q 37.25 32.421875 41.125 36.953125 
Q 45.015625 41.5 45.015625 49.421875 
Q 45.015625 57.28125 41.125 61.84375 
Q 37.25 66.40625 30.609375 66.40625 
Q 23.96875 66.40625 20.09375 61.84375 
Q 16.21875 57.28125 16.21875 49.421875 
Q 16.21875 41.5 20.09375 36.953125 
Q 23.96875 32.421875 30.609375 32.421875 
z
" id="DejaVuSans-57"/>
       </defs>
       <use xlink:href="#DejaVuSans-49"/>
       <use x="63.623047" xlink:href="#DejaVuSans-55"/>
       <use x="127.246094" xlink:href="#DejaVuSans-58"/>
       <use x="160.9375" xlink:href="#DejaVuSans-50"/>
       <use x="224.560547" xlink:href="#DejaVuSans-49"/>
       <use x="288.183594" xlink:href="#DejaVuSans-58"/>
       <use x="321.875" xlink:href="#DejaVuSans-53"/>
       <use x="385.498047" xlink:href="#DejaVuSans-57"/>
      </g>
     </g>
    </g>
    <g id="xtick_7">
     <g id="line2d_7">
      <g>
       <use style="stroke:#000000;stroke-width:0.8;" x="277.912935" xlink:href="#mdd80adf649" y="448.56"/>
      </g>
     </g>
     <g id="text_7">
      <!-- 17:23:44 -->
      <g transform="translate(280.67231 500.4725)rotate(-90)scale(0.1 -0.1)">
       <use xlink:href="#DejaVuSans-49"/>
       <use x="63.623047" xlink:href="#DejaVuSans-55"/>
       <use x="127.246094" xlink:href="#DejaVuSans-58"/>
       <use x="160.9375" xlink:href="#DejaVuSans-50"/>
       <use x="224.560547" xlink:href="#DejaVuSans-51"/>
       <use x="288.183594" xlink:href="#DejaVuSans-58"/>
       <use x="321.875" xlink:href="#DejaVuSans-52"/>
       <use x="385.498047" xlink:href="#DejaVuSans-52"/>
      </g>
     </g>
    </g>
    <g id="xtick_8">
     <g id="line2d_8">
      <g>
       <use style="stroke:#000000;stroke-width:0.8;" x="302.173576" xlink:href="#mdd80adf649" y="448.56"/>
      </g>
     </g>
     <g id="text_8">
      <!-- 17:25:29 -->
      <g transform="translate(304.932951 500.4725)rotate(-90)scale(0.1 -0.1)">
       <use xlink:href="#DejaVuSans-49"/>
       <use x="63.623047" xlink:href="#DejaVuSans-55"/>
       <use x="127.246094" xlink:href="#DejaVuSans-58"/>
       <use x="160.9375" xlink:href="#DejaVuSans-50"/>
       <use x="224.560547" xlink:href="#DejaVuSans-53"/>
       <use x="288.183594" xlink:href="#DejaVuSans-58"/>
       <use x="321.875" xlink:href="#DejaVuSans-50"/>
       <use x="385.498047" xlink:href="#DejaVuSans-57"/>
      </g>
     </g>
    </g>
    <g id="xtick_9">
     <g id="line2d_9">
      <g>
       <use style="stroke:#000000;stroke-width:0.8;" x="326.434216" xlink:href="#mdd80adf649" y="448.56"/>
      </g>
     </g>
     <g id="text_9">
      <!-- 17:27:15 -->
      <g transform="translate(329.193591 500.4725)rotate(-90)scale(0.1 -0.1)">
       <use xlink:href="#DejaVuSans-49"/>
       <use x="63.623047" xlink:href="#DejaVuSans-55"/>
       <use x="127.246094" xlink:href="#DejaVuSans-58"/>
       <use x="160.9375" xlink:href="#DejaVuSans-50"/>
       <use x="224.560547" xlink:href="#DejaVuSans-55"/>
       <use x="288.183594" xlink:href="#DejaVuSans-58"/>
       <use x="321.875" xlink:href="#DejaVuSans-49"/>
       <use x="385.498047" xlink:href="#DejaVuSans-53"/>
      </g>
     </g>
    </g>
    <g id="xtick_10">
     <g id="line2d_10">
      <g>
       <use style="stroke:#000000;stroke-width:0.8;" x="350.694857" xlink:href="#mdd80adf649" y="448.56"/>
      </g>
     </g>
     <g id="text_10">
      <!-- 17:29:01 -->
      <g transform="translate(353.454232 500.4725)rotate(-90)scale(0.1 -0.1)">
       <use xlink:href="#DejaVuSans-49"/>
       <use x="63.623047" xlink:href="#DejaVuSans-55"/>
       <use x="127.246094" xlink:href="#DejaVuSans-58"/>
       <use x="160.9375" xlink:href="#DejaVuSans-50"/>
       <use x="224.560547" xlink:href="#DejaVuSans-57"/>
       <use x="288.183594" xlink:href="#DejaVuSans-58"/>
       <use x="321.875" xlink:href="#DejaVuSans-48"/>
       <use x="385.498047" xlink:href="#DejaVuSans-49"/>
      </g>
     </g>
    </g>
    <g id="xtick_11">
     <g id="line2d_11">
      <g>
       <use style="stroke:#000000;stroke-width:0.8;" x="374.955497" xlink:href="#mdd80adf649" y="448.56"/>
      </g>
     </g>
     <g id="text_11">
      <!-- 17:30:47 -->
      <g transform="translate(377.714872 500.4725)rotate(-90)scale(0.1 -0.1)">
       <use xlink:href="#DejaVuSans-49"/>
       <use x="63.623047" xlink:href="#DejaVuSans-55"/>
       <use x="127.246094" xlink:href="#DejaVuSans-58"/>
       <use x="160.9375" xlink:href="#DejaVuSans-51"/>
       <use x="224.560547" xlink:href="#DejaVuSans-48"/>
       <use x="288.183594" xlink:href="#DejaVuSans-58"/>
       <use x="321.875" xlink:href="#DejaVuSans-52"/>
       <use x="385.498047" xlink:href="#DejaVuSans-55"/>
      </g>
     </g>
    </g>
    <g id="xtick_12">
     <g id="line2d_12">
      <g>
       <use style="stroke:#000000;stroke-width:0.8;" x="399.216138" xlink:href="#mdd80adf649" y="448.56"/>
      </g>
     </g>
     <g id="text_12">
      <!-- 17:32:33 -->
      <g transform="translate(401.975513 500.4725)rotate(-90)scale(0.1 -0.1)">
       <use xlink:href="#DejaVuSans-49"/>
       <use x="63.623047" xlink:href="#DejaVuSans-55"/>
       <use x="127.246094" xlink:href="#DejaVuSans-58"/>
       <use x="160.9375" xlink:href="#DejaVuSans-51"/>
       <use x="224.560547" xlink:href="#DejaVuSans-50"/>
       <use x="288.183594" xlink:href="#DejaVuSans-58"/>
       <use x="321.875" xlink:href="#DejaVuSans-51"/>
       <use x="385.498047" xlink:href="#DejaVuSans-51"/>
      </g>
     </g>
    </g>
    <g id="xtick_13">
     <g id="line2d_13">
      <g>
       <use style="stroke:#000000;stroke-width:0.8;" x="423.476779" xlink:href="#mdd80adf649" y="448.56"/>
      </g>
     </g>
     <g id="text_13">
      <!-- 17:34:18 -->
      <g transform="translate(426.236154 500.4725)rotate(-90)scale(0.1 -0.1)">
       <use xlink:href="#DejaVuSans-49"/>
       <use x="63.623047" xlink:href="#DejaVuSans-55"/>
       <use x="127.246094" xlink:href="#DejaVuSans-58"/>
       <use x="160.9375" xlink:href="#DejaVuSans-51"/>
       <use x="224.560547" xlink:href="#DejaVuSans-52"/>
       <use x="288.183594" xlink:href="#DejaVuSans-58"/>
       <use x="321.875" xlink:href="#DejaVuSans-49"/>
       <use x="385.498047" xlink:href="#DejaVuSans-56"/>
      </g>
     </g>
    </g>
    <g id="xtick_14">
     <g id="line2d_14">
      <g>
       <use style="stroke:#000000;stroke-width:0.8;" x="447.737419" xlink:href="#mdd80adf649" y="448.56"/>
      </g>
     </g>
     <g id="text_14">
      <!-- 17:36:04 -->
      <g transform="translate(450.496794 500.4725)rotate(-90)scale(0.1 -0.1)">
       <use xlink:href="#DejaVuSans-49"/>
       <use x="63.623047" xlink:href="#DejaVuSans-55"/>
       <use x="127.246094" xlink:href="#DejaVuSans-58"/>
       <use x="160.9375" xlink:href="#DejaVuSans-51"/>
       <use x="224.560547" xlink:href="#DejaVuSans-54"/>
       <use x="288.183594" xlink:href="#DejaVuSans-58"/>
       <use x="321.875" xlink:href="#DejaVuSans-48"/>
       <use x="385.498047" xlink:href="#DejaVuSans-52"/>
      </g>
     </g>
    </g>
    <g id="xtick_15">
     <g id="line2d_15">
      <g>
       <use style="stroke:#000000;stroke-width:0.8;" x="471.99806" xlink:href="#mdd80adf649" y="448.56"/>
      </g>
     </g>
     <g id="text_15">
      <!-- 17:37:49 -->
      <g transform="translate(474.757435 500.4725)rotate(-90)scale(0.1 -0.1)">
       <use xlink:href="#DejaVuSans-49"/>
       <use x="63.623047" xlink:href="#DejaVuSans-55"/>
       <use x="127.246094" xlink:href="#DejaVuSans-58"/>
       <use x="160.9375" xlink:href="#DejaVuSans-51"/>
       <use x="224.560547" xlink:href="#DejaVuSans-55"/>
       <use x="288.183594" xlink:href="#DejaVuSans-58"/>
       <use x="321.875" xlink:href="#DejaVuSans-52"/>
       <use x="385.498047" xlink:href="#DejaVuSans-57"/>
      </g>
     </g>
    </g>
    <g id="xtick_16">
     <g id="line2d_16">
      <g>
       <use style="stroke:#000000;stroke-width:0.8;" x="496.258701" xlink:href="#mdd80adf649" y="448.56"/>
      </g>
     </g>
     <g id="text_16">
      <!-- 17:39:35 -->
      <g transform="translate(499.018076 500.4725)rotate(-90)scale(0.1 -0.1)">
       <use xlink:href="#DejaVuSans-49"/>
       <use x="63.623047" xlink:href="#DejaVuSans-55"/>
       <use x="127.246094" xlink:href="#DejaVuSans-58"/>
       <use x="160.9375" xlink:href="#DejaVuSans-51"/>
       <use x="224.560547" xlink:href="#DejaVuSans-57"/>
       <use x="288.183594" xlink:href="#DejaVuSans-58"/>
       <use x="321.875" xlink:href="#DejaVuSans-51"/>
       <use x="385.498047" xlink:href="#DejaVuSans-53"/>
      </g>
     </g>
    </g>
    <g id="xtick_17">
     <g id="line2d_17">
      <g>
       <use style="stroke:#000000;stroke-width:0.8;" x="520.519341" xlink:href="#mdd80adf649" y="448.56"/>
      </g>
     </g>
     <g id="text_17">
      <!-- 17:41:21 -->
      <g transform="translate(523.278716 500.4725)rotate(-90)scale(0.1 -0.1)">
       <use xlink:href="#DejaVuSans-49"/>
       <use x="63.623047" xlink:href="#DejaVuSans-55"/>
       <use x="127.246094" xlink:href="#DejaVuSans-58"/>
       <use x="160.9375" xlink:href="#DejaVuSans-52"/>
       <use x="224.560547" xlink:href="#DejaVuSans-49"/>
       <use x="288.183594" xlink:href="#DejaVuSans-58"/>
       <use x="321.875" xlink:href="#DejaVuSans-50"/>
       <use x="385.498047" xlink:href="#DejaVuSans-49"/>
      </g>
     </g>
    </g>
    <g id="xtick_18">
     <g id="line2d_18">
      <g>
       <use style="stroke:#000000;stroke-width:0.8;" x="544.779982" xlink:href="#mdd80adf649" y="448.56"/>
      </g>
     </g>
     <g id="text_18">
      <!-- 17:43:07 -->
      <g transform="translate(547.539357 500.4725)rotate(-90)scale(0.1 -0.1)">
       <use xlink:href="#DejaVuSans-49"/>
       <use x="63.623047" xlink:href="#DejaVuSans-55"/>
       <use x="127.246094" xlink:href="#DejaVuSans-58"/>
       <use x="160.9375" xlink:href="#DejaVuSans-52"/>
       <use x="224.560547" xlink:href="#DejaVuSans-51"/>
       <use x="288.183594" xlink:href="#DejaVuSans-58"/>
       <use x="321.875" xlink:href="#DejaVuSans-48"/>
       <use x="385.498047" xlink:href="#DejaVuSans-55"/>
      </g>
     </g>
    </g>
    <g id="xtick_19">
     <g id="line2d_19">
      <g>
       <use style="stroke:#000000;stroke-width:0.8;" x="569.040623" xlink:href="#mdd80adf649" y="448.56"/>
      </g>
     </g>
     <g id="text_19">
      <!-- 17:44:54 -->
      <g transform="translate(571.799998 500.4725)rotate(-90)scale(0.1 -0.1)">
       <use xlink:href="#DejaVuSans-49"/>
       <use x="63.623047" xlink:href="#DejaVuSans-55"/>
       <use x="127.246094" xlink:href="#DejaVuSans-58"/>
       <use x="160.9375" xlink:href="#DejaVuSans-52"/>
       <use x="224.560547" xlink:href="#DejaVuSans-52"/>
       <use x="288.183594" xlink:href="#DejaVuSans-58"/>
       <use x="321.875" xlink:href="#DejaVuSans-53"/>
       <use x="385.498047" xlink:href="#DejaVuSans-52"/>
      </g>
     </g>
    </g>
    <g id="xtick_20">
     <g id="line2d_20">
      <g>
       <use style="stroke:#000000;stroke-width:0.8;" x="593.301263" xlink:href="#mdd80adf649" y="448.56"/>
      </g>
     </g>
     <g id="text_20">
      <!-- 17:46:40 -->
      <g transform="translate(596.060638 500.4725)rotate(-90)scale(0.1 -0.1)">
       <use xlink:href="#DejaVuSans-49"/>
       <use x="63.623047" xlink:href="#DejaVuSans-55"/>
       <use x="127.246094" xlink:href="#DejaVuSans-58"/>
       <use x="160.9375" xlink:href="#DejaVuSans-52"/>
       <use x="224.560547" xlink:href="#DejaVuSans-54"/>
       <use x="288.183594" xlink:href="#DejaVuSans-58"/>
       <use x="321.875" xlink:href="#DejaVuSans-52"/>
       <use x="385.498047" xlink:href="#DejaVuSans-48"/>
      </g>
     </g>
    </g>
    <g id="xtick_21">
     <g id="line2d_21">
      <g>
       <use style="stroke:#000000;stroke-width:0.8;" x="617.561904" xlink:href="#mdd80adf649" y="448.56"/>
      </g>
     </g>
     <g id="text_21">
      <!-- 17:48:26 -->
      <g transform="translate(620.321279 500.4725)rotate(-90)scale(0.1 -0.1)">
       <use xlink:href="#DejaVuSans-49"/>
       <use x="63.623047" xlink:href="#DejaVuSans-55"/>
       <use x="127.246094" xlink:href="#DejaVuSans-58"/>
       <use x="160.9375" xlink:href="#DejaVuSans-52"/>
       <use x="224.560547" xlink:href="#DejaVuSans-56"/>
       <use x="288.183594" xlink:href="#DejaVuSans-58"/>
       <use x="321.875" xlink:href="#DejaVuSans-50"/>
       <use x="385.498047" xlink:href="#DejaVuSans-54"/>
      </g>
     </g>
    </g>
    <g id="text_22">
     <!-- timestamp -->
     <g transform="translate(354.264375 510.55125)scale(0.08 -0.08)">
      <defs>
       <path d="M 18.3125 70.21875 
L 18.3125 54.6875 
L 36.8125 54.6875 
L 36.8125 47.703125 
L 18.3125 47.703125 
L 18.3125 18.015625 
Q 18.3125 11.328125 20.140625 9.421875 
Q 21.96875 7.515625 27.59375 7.515625 
L 36.8125 7.515625 
L 36.8125 0 
L 27.59375 0 
Q 17.1875 0 13.234375 3.875 
Q 9.28125 7.765625 9.28125 18.015625 
L 9.28125 47.703125 
L 2.6875 47.703125 
L 2.6875 54.6875 
L 9.28125 54.6875 
L 9.28125 70.21875 
z
" id="DejaVuSans-116"/>
       <path d="M 9.421875 54.6875 
L 18.40625 54.6875 
L 18.40625 0 
L 9.421875 0 
z
M 9.421875 75.984375 
L 18.40625 75.984375 
L 18.40625 64.59375 
L 9.421875 64.59375 
z
" id="DejaVuSans-105"/>
       <path d="M 52 44.1875 
Q 55.375 50.25 60.0625 53.125 
Q 64.75 56 71.09375 56 
Q 79.640625 56 84.28125 50.015625 
Q 88.921875 44.046875 88.921875 33.015625 
L 88.921875 0 
L 79.890625 0 
L 79.890625 32.71875 
Q 79.890625 40.578125 77.09375 44.375 
Q 74.3125 48.1875 68.609375 48.1875 
Q 61.625 48.1875 57.5625 43.546875 
Q 53.515625 38.921875 53.515625 30.90625 
L 53.515625 0 
L 44.484375 0 
L 44.484375 32.71875 
Q 44.484375 40.625 41.703125 44.40625 
Q 38.921875 48.1875 33.109375 48.1875 
Q 26.21875 48.1875 22.15625 43.53125 
Q 18.109375 38.875 18.109375 30.90625 
L 18.109375 0 
L 9.078125 0 
L 9.078125 54.6875 
L 18.109375 54.6875 
L 18.109375 46.1875 
Q 21.1875 51.21875 25.484375 53.609375 
Q 29.78125 56 35.6875 56 
Q 41.65625 56 45.828125 52.96875 
Q 50 49.953125 52 44.1875 
z
" id="DejaVuSans-109"/>
       <path d="M 56.203125 29.59375 
L 56.203125 25.203125 
L 14.890625 25.203125 
Q 15.484375 15.921875 20.484375 11.0625 
Q 25.484375 6.203125 34.421875 6.203125 
Q 39.59375 6.203125 44.453125 7.46875 
Q 49.3125 8.734375 54.109375 11.28125 
L 54.109375 2.78125 
Q 49.265625 0.734375 44.1875 -0.34375 
Q 39.109375 -1.421875 33.890625 -1.421875 
Q 20.796875 -1.421875 13.15625 6.1875 
Q 5.515625 13.8125 5.515625 26.8125 
Q 5.515625 40.234375 12.765625 48.109375 
Q 20.015625 56 32.328125 56 
Q 43.359375 56 49.78125 48.890625 
Q 56.203125 41.796875 56.203125 29.59375 
z
M 47.21875 32.234375 
Q 47.125 39.59375 43.09375 43.984375 
Q 39.0625 48.390625 32.421875 48.390625 
Q 24.90625 48.390625 20.390625 44.140625 
Q 15.875 39.890625 15.1875 32.171875 
z
" id="DejaVuSans-101"/>
       <path d="M 44.28125 53.078125 
L 44.28125 44.578125 
Q 40.484375 46.53125 36.375 47.5 
Q 32.28125 48.484375 27.875 48.484375 
Q 21.1875 48.484375 17.84375 46.4375 
Q 14.5 44.390625 14.5 40.28125 
Q 14.5 37.15625 16.890625 35.375 
Q 19.28125 33.59375 26.515625 31.984375 
L 29.59375 31.296875 
Q 39.15625 29.25 43.1875 25.515625 
Q 47.21875 21.78125 47.21875 15.09375 
Q 47.21875 7.46875 41.1875 3.015625 
Q 35.15625 -1.421875 24.609375 -1.421875 
Q 20.21875 -1.421875 15.453125 -0.5625 
Q 10.6875 0.296875 5.421875 2 
L 5.421875 11.28125 
Q 10.40625 8.6875 15.234375 7.390625 
Q 20.0625 6.109375 24.8125 6.109375 
Q 31.15625 6.109375 34.5625 8.28125 
Q 37.984375 10.453125 37.984375 14.40625 
Q 37.984375 18.0625 35.515625 20.015625 
Q 33.0625 21.96875 24.703125 23.78125 
L 21.578125 24.515625 
Q 13.234375 26.265625 9.515625 29.90625 
Q 5.8125 33.546875 5.8125 39.890625 
Q 5.8125 47.609375 11.28125 51.796875 
Q 16.75 56 26.8125 56 
Q 31.78125 56 36.171875 55.265625 
Q 40.578125 54.546875 44.28125 53.078125 
z
" id="DejaVuSans-115"/>
       <path d="M 34.28125 27.484375 
Q 23.390625 27.484375 19.1875 25 
Q 14.984375 22.515625 14.984375 16.5 
Q 14.984375 11.71875 18.140625 8.90625 
Q 21.296875 6.109375 26.703125 6.109375 
Q 34.1875 6.109375 38.703125 11.40625 
Q 43.21875 16.703125 43.21875 25.484375 
L 43.21875 27.484375 
z
M 52.203125 31.203125 
L 52.203125 0 
L 43.21875 0 
L 43.21875 8.296875 
Q 40.140625 3.328125 35.546875 0.953125 
Q 30.953125 -1.421875 24.3125 -1.421875 
Q 15.921875 -1.421875 10.953125 3.296875 
Q 6 8.015625 6 15.921875 
Q 6 25.140625 12.171875 29.828125 
Q 18.359375 34.515625 30.609375 34.515625 
L 43.21875 34.515625 
L 43.21875 35.40625 
Q 43.21875 41.609375 39.140625 45 
Q 35.0625 48.390625 27.6875 48.390625 
Q 23 48.390625 18.546875 47.265625 
Q 14.109375 46.140625 10.015625 43.890625 
L 10.015625 52.203125 
Q 14.9375 54.109375 19.578125 55.046875 
Q 24.21875 56 28.609375 56 
Q 40.484375 56 46.34375 49.84375 
Q 52.203125 43.703125 52.203125 31.203125 
z
" id="DejaVuSans-97"/>
       <path d="M 18.109375 8.203125 
L 18.109375 -20.796875 
L 9.078125 -20.796875 
L 9.078125 54.6875 
L 18.109375 54.6875 
L 18.109375 46.390625 
Q 20.953125 51.265625 25.265625 53.625 
Q 29.59375 56 35.59375 56 
Q 45.5625 56 51.78125 48.09375 
Q 58.015625 40.1875 58.015625 27.296875 
Q 58.015625 14.40625 51.78125 6.484375 
Q 45.5625 -1.421875 35.59375 -1.421875 
Q 29.59375 -1.421875 25.265625 0.953125 
Q 20.953125 3.328125 18.109375 8.203125 
z
M 48.6875 27.296875 
Q 48.6875 37.203125 44.609375 42.84375 
Q 40.53125 48.484375 33.40625 48.484375 
Q 26.265625 48.484375 22.1875 42.84375 
Q 18.109375 37.203125 18.109375 27.296875 
Q 18.109375 17.390625 22.1875 11.75 
Q 26.265625 6.109375 33.40625 6.109375 
Q 40.53125 6.109375 44.609375 11.75 
Q 48.6875 17.390625 48.6875 27.296875 
z
" id="DejaVuSans-112"/>
      </defs>
      <use xlink:href="#DejaVuSans-116"/>
      <use x="39.208984" xlink:href="#DejaVuSans-105"/>
      <use x="66.992188" xlink:href="#DejaVuSans-109"/>
      <use x="164.404297" xlink:href="#DejaVuSans-101"/>
      <use x="225.927734" xlink:href="#DejaVuSans-115"/>
      <use x="278.027344" xlink:href="#DejaVuSans-116"/>
      <use x="317.236328" xlink:href="#DejaVuSans-97"/>
      <use x="378.515625" xlink:href="#DejaVuSans-109"/>
      <use x="475.927734" xlink:href="#DejaVuSans-112"/>
     </g>
    </g>
   </g>
   <g id="matplotlib.axis_2">
    <g id="ytick_1">
     <g id="line2d_22">
      <defs>
       <path d="M 0 0 
L -3.5 0 
" id="m420159c7e5" style="stroke:#000000;stroke-width:0.8;"/>
      </defs>
      <g>
       <use style="stroke:#000000;stroke-width:0.8;" x="108" xlink:href="#m420159c7e5" y="399.23527"/>
      </g>
     </g>
     <g id="text_23">
      <!-- 14510 -->
      <g transform="translate(69.1875 403.034489)scale(0.1 -0.1)">
       <use xlink:href="#DejaVuSans-49"/>
       <use x="63.623047" xlink:href="#DejaVuSans-52"/>
       <use x="127.246094" xlink:href="#DejaVuSans-53"/>
       <use x="190.869141" xlink:href="#DejaVuSans-49"/>
       <use x="254.492188" xlink:href="#DejaVuSans-48"/>
      </g>
     </g>
    </g>
    <g id="ytick_2">
     <g id="line2d_23">
      <g>
       <use style="stroke:#000000;stroke-width:0.8;" x="108" xlink:href="#m420159c7e5" y="337.522286"/>
      </g>
     </g>
     <g id="text_24">
      <!-- 14520 -->
      <g transform="translate(69.1875 341.321504)scale(0.1 -0.1)">
       <use xlink:href="#DejaVuSans-49"/>
       <use x="63.623047" xlink:href="#DejaVuSans-52"/>
       <use x="127.246094" xlink:href="#DejaVuSans-53"/>
       <use x="190.869141" xlink:href="#DejaVuSans-50"/>
       <use x="254.492188" xlink:href="#DejaVuSans-48"/>
      </g>
     </g>
    </g>
    <g id="ytick_3">
     <g id="line2d_24">
      <g>
       <use style="stroke:#000000;stroke-width:0.8;" x="108" xlink:href="#m420159c7e5" y="275.809301"/>
      </g>
     </g>
     <g id="text_25">
      <!-- 14530 -->
      <g transform="translate(69.1875 279.60852)scale(0.1 -0.1)">
       <use xlink:href="#DejaVuSans-49"/>
       <use x="63.623047" xlink:href="#DejaVuSans-52"/>
       <use x="127.246094" xlink:href="#DejaVuSans-53"/>
       <use x="190.869141" xlink:href="#DejaVuSans-51"/>
       <use x="254.492188" xlink:href="#DejaVuSans-48"/>
      </g>
     </g>
    </g>
    <g id="ytick_4">
     <g id="line2d_25">
      <g>
       <use style="stroke:#000000;stroke-width:0.8;" x="108" xlink:href="#m420159c7e5" y="214.096317"/>
      </g>
     </g>
     <g id="text_26">
      <!-- 14540 -->
      <g transform="translate(69.1875 217.895535)scale(0.1 -0.1)">
       <use xlink:href="#DejaVuSans-49"/>
       <use x="63.623047" xlink:href="#DejaVuSans-52"/>
       <use x="127.246094" xlink:href="#DejaVuSans-53"/>
       <use x="190.869141" xlink:href="#DejaVuSans-52"/>
       <use x="254.492188" xlink:href="#DejaVuSans-48"/>
      </g>
     </g>
    </g>
    <g id="ytick_5">
     <g id="line2d_26">
      <g>
       <use style="stroke:#000000;stroke-width:0.8;" x="108" xlink:href="#m420159c7e5" y="152.383332"/>
      </g>
     </g>
     <g id="text_27">
      <!-- 14550 -->
      <g transform="translate(69.1875 156.182551)scale(0.1 -0.1)">
       <use xlink:href="#DejaVuSans-49"/>
       <use x="63.623047" xlink:href="#DejaVuSans-52"/>
       <use x="127.246094" xlink:href="#DejaVuSans-53"/>
       <use x="190.869141" xlink:href="#DejaVuSans-53"/>
       <use x="254.492188" xlink:href="#DejaVuSans-48"/>
      </g>
     </g>
    </g>
    <g id="ytick_6">
     <g id="line2d_27">
      <g>
       <use style="stroke:#000000;stroke-width:0.8;" x="108" xlink:href="#m420159c7e5" y="90.670347"/>
      </g>
     </g>
     <g id="text_28">
      <!-- 14560 -->
      <g transform="translate(69.1875 94.469566)scale(0.1 -0.1)">
       <use xlink:href="#DejaVuSans-49"/>
       <use x="63.623047" xlink:href="#DejaVuSans-52"/>
       <use x="127.246094" xlink:href="#DejaVuSans-53"/>
       <use x="190.869141" xlink:href="#DejaVuSans-54"/>
       <use x="254.492188" xlink:href="#DejaVuSans-48"/>
      </g>
     </g>
    </g>
    <g id="text_29">
     <!-- MB -->
     <g transform="translate(63.52375 260.715625)rotate(-90)scale(0.08 -0.08)">
      <defs>
       <path d="M 9.8125 72.90625 
L 24.515625 72.90625 
L 43.109375 23.296875 
L 61.8125 72.90625 
L 76.515625 72.90625 
L 76.515625 0 
L 66.890625 0 
L 66.890625 64.015625 
L 48.09375 14.015625 
L 38.1875 14.015625 
L 19.390625 64.015625 
L 19.390625 0 
L 9.8125 0 
z
" id="DejaVuSans-77"/>
       <path d="M 19.671875 34.8125 
L 19.671875 8.109375 
L 35.5 8.109375 
Q 43.453125 8.109375 47.28125 11.40625 
Q 51.125 14.703125 51.125 21.484375 
Q 51.125 28.328125 47.28125 31.5625 
Q 43.453125 34.8125 35.5 34.8125 
z
M 19.671875 64.796875 
L 19.671875 42.828125 
L 34.28125 42.828125 
Q 41.5 42.828125 45.03125 45.53125 
Q 48.578125 48.25 48.578125 53.8125 
Q 48.578125 59.328125 45.03125 62.0625 
Q 41.5 64.796875 34.28125 64.796875 
z
M 9.8125 72.90625 
L 35.015625 72.90625 
Q 46.296875 72.90625 52.390625 68.21875 
Q 58.5 63.53125 58.5 54.890625 
Q 58.5 48.1875 55.375 44.234375 
Q 52.25 40.28125 46.1875 39.3125 
Q 53.46875 37.75 57.5 32.78125 
Q 61.53125 27.828125 61.53125 20.40625 
Q 61.53125 10.640625 54.890625 5.3125 
Q 48.25 0 35.984375 0 
L 9.8125 0 
z
" id="DejaVuSans-66"/>
      </defs>
      <use xlink:href="#DejaVuSans-77"/>
      <use x="86.279297" xlink:href="#DejaVuSans-66"/>
     </g>
    </g>
   </g>
   <g id="line2d_28">
    <path clip-path="url(#pf685788b74)" d="M 132.349091 218.031729 
L 132.601806 211.232044 
L 132.854521 176.222515 
L 133.107236 158.376502 
L 133.359951 154.155136 
L 133.612666 169.245887 
L 133.865381 168.437002 
L 134.118096 90.506043 
L 134.370811 82.391921 
L 134.623526 78.12 
L 135.128956 102.563476 
L 135.381671 108.478444 
L 135.634386 111.739259 
L 135.887101 109.717048 
L 136.139816 101.982091 
L 136.392531 111.992036 
L 136.645246 134.261635 
L 136.897961 142.679089 
L 137.403391 191.970484 
L 137.908821 206.429293 
L 138.414251 246.014075 
L 138.666966 272.985315 
L 138.919681 277.863899 
L 139.172396 276.448351 
L 139.425111 270.406996 
L 139.677826 275.664745 
L 139.930541 275.538356 
L 140.183256 276.701128 
L 140.688686 301.624879 
L 141.194116 272.429207 
L 141.446831 274.173364 
L 141.699546 295.356025 
L 141.952261 293.257981 
L 142.204976 296.417686 
L 142.457691 276.625295 
L 142.963121 289.441058 
L 143.215836 277.813344 
L 143.468551 279.961943 
L 143.721266 284.208586 
L 143.973981 293.864644 
L 144.226696 308.298176 
L 144.479411 283.273314 
L 144.732126 280.543329 
L 144.984841 270.381718 
L 145.237556 277.004459 
L 145.490271 296.063799 
L 145.742986 387.56885 
L 145.995701 387.644683 
L 146.248416 369.495339 
L 146.501131 378.519455 
L 146.753846 310.219276 
L 147.006561 316.715629 
L 147.259276 318.030067 
L 147.511991 295.785745 
L 147.764706 286.357186 
L 148.017421 379.075564 
L 148.270136 375.511416 
L 148.522851 383.701371 
L 148.775566 397.09852 
L 149.028281 337.569681 
L 149.280996 324.678086 
L 149.533711 321.038106 
L 150.039141 297.681568 
L 150.291856 310.345665 
L 150.544571 314.364809 
L 150.797286 314.516475 
L 151.302716 318.889506 
L 151.555431 296.721017 
L 151.808146 290.553274 
L 152.060861 271.948932 
L 152.313576 268.157286 
L 152.566291 270.988381 
L 152.819006 269.421168 
L 153.071721 259.689277 
L 153.324436 263.657866 
L 153.577151 279.88611 
L 153.829866 284.714139 
L 154.082581 274.729472 
L 154.335297 280.366385 
L 154.588012 266.665905 
L 154.840727 272.909482 
L 155.093442 272.125875 
L 155.346157 294.774639 
L 155.598872 289.997166 
L 155.851587 255.69541 
L 156.104302 256.605405 
L 156.609732 270.482829 
L 156.862447 267.803399 
L 157.115162 269.042003 
L 157.367877 257.717621 
L 157.873307 281.27638 
L 158.126022 289.997166 
L 158.378737 284.436085 
L 158.631452 259.588167 
L 159.136882 282.540262 
L 159.389597 284.789972 
L 159.642312 280.416941 
L 159.895027 288.884949 
L 160.147742 285.876911 
L 160.400457 280.998326 
L 160.905887 283.09637 
L 161.158602 283.071093 
L 161.411317 286.20552 
L 161.664032 294.648251 
L 161.916747 281.680823 
L 162.169462 285.295525 
L 162.674892 296.69574 
L 162.927607 295.482413 
L 163.180322 279.254169 
L 163.433037 272.884204 
L 163.685752 286.407741 
L 164.191182 267.702288 
L 164.443897 285.017471 
L 164.696612 290.047721 
L 164.949327 299.906 
L 165.202042 294.066865 
L 165.707472 268.485895 
L 165.960187 287.292458 
L 166.465617 294.092143 
L 166.718332 301.574324 
L 166.971047 297.201293 
L 167.223762 284.436085 
L 167.476477 289.264114 
L 167.729192 302.408486 
L 167.981907 308.626785 
L 168.487337 293.510757 
L 168.740052 298.465174 
L 168.992767 297.605735 
L 169.245482 302.939316 
L 169.498197 312.241487 
L 169.750912 300.841272 
L 170.003627 294.698806 
L 170.509057 314.46592 
L 170.761772 297.277125 
L 171.014487 294.142698 
L 171.267202 296.771573 
L 171.519917 292.802983 
L 171.772632 311.483158 
L 172.025347 308.020122 
L 172.278062 286.30663 
L 172.530777 302.433764 
L 172.783492 296.670462 
L 173.036207 307.236515 
L 173.288922 309.43567 
L 173.541637 304.961528 
L 173.794352 313.227315 
L 174.047067 315.198971 
L 174.299782 312.949261 
L 174.552497 320.633663 
L 174.805212 313.075649 
L 175.310642 326.093633 
L 175.563357 324.753918 
L 175.816072 330.163333 
L 176.068787 315.729802 
L 176.321502 327.357515 
L 176.574217 326.675019 
L 176.826932 324.400032 
L 177.079647 329.051117 
L 177.332362 328.520287 
L 177.585077 320.911717 
L 177.837792 327.028906 
L 178.090507 318.080622 
L 178.343222 319.470892 
L 178.848652 337.418015 
L 179.101367 323.869201 
L 179.354082 296.771573 
L 179.606797 299.855445 
L 179.859512 323.616425 
L 180.112227 332.109711 
L 180.364942 344.445199 
L 181.123087 320.001722 
L 181.375802 334.814419 
L 181.628517 339.061062 
L 181.881232 338.151067 
L 182.133947 345.860747 
L 182.639377 331.983323 
L 182.892092 329.506114 
L 183.144807 324.602253 
L 183.397522 336.40691 
L 183.650237 322.731707 
L 183.902952 285.573579 
L 184.155667 288.657451 
L 184.408382 304.93625 
L 184.661097 262.065375 
L 184.913812 270.103664 
L 185.166527 269.370613 
L 185.419242 283.601923 
L 185.671957 286.534129 
L 186.430102 260.927881 
L 186.682817 290.022443 
L 186.935532 284.587751 
L 187.188247 293.991032 
L 187.440962 290.401608 
L 187.693677 269.699222 
L 187.946392 282.99526 
L 188.199107 284.537196 
L 188.451822 291.437991 
L 188.704537 283.677756 
L 188.957252 297.150737 
L 189.209967 280.416941 
L 189.462682 282.514985 
L 189.715397 296.493519 
L 189.968112 292.777706 
L 190.220827 291.210492 
L 190.473542 301.043494 
L 190.978972 282.514985 
L 191.231688 304.481252 
L 191.737118 269.092559 
L 191.989833 271.367546 
L 192.242548 282.868872 
L 192.495263 306.200132 
L 193.253408 275.866966 
L 193.506123 297.504624 
L 193.758838 303.242648 
L 194.011553 304.329587 
L 194.516983 292.474374 
L 194.769698 303.849311 
L 195.022413 309.132338 
L 195.275128 308.374009 
L 195.527843 297.782678 
L 195.780558 295.103249 
L 196.033273 296.063799 
L 196.285988 293.409647 
L 196.538703 293.940477 
L 196.791418 308.399286 
L 197.296848 283.349147 
L 197.549563 289.41578 
L 197.802278 289.769667 
L 198.054993 306.629852 
L 198.307708 289.390502 
L 198.560423 281.984154 
L 198.813138 287.090237 
L 199.065853 289.94661 
L 199.318568 307.236515 
L 199.823998 293.232703 
L 200.076713 287.621068 
L 200.329428 296.493519 
L 200.582143 314.162588 
L 200.834858 309.460947 
L 201.340288 305.416525 
L 201.593003 311.280937 
L 201.845718 310.82594 
L 202.098433 304.961528 
L 202.351148 320.684219 
L 202.603863 303.925144 
L 202.856578 298.642118 
L 203.109293 301.852378 
L 203.362008 306.730962 
L 203.614723 320.684219 
L 203.867438 307.135404 
L 204.120153 300.386275 
L 204.372868 303.925144 
L 204.625583 311.280937 
L 204.878298 327.559736 
L 205.131013 316.614519 
L 205.636443 310.901773 
L 205.889158 308.272898 
L 206.141873 317.094794 
L 206.394588 313.17676 
L 206.647303 314.46592 
L 206.900018 291.210492 
L 207.152733 306.604574 
L 207.405448 331.275549 
L 207.658163 330.643608 
L 207.910878 323.66698 
L 208.163593 312.721763 
L 208.669023 336.305799 
L 209.174453 318.080622 
L 209.679883 336.128856 
L 209.932598 332.413043 
L 210.185313 338.959951 
L 210.438028 323.919756 
L 210.690743 337.670792 
L 210.943458 329.12695 
L 211.196173 340.021612 
L 211.701603 315.552858 
L 211.954318 326.927795 
L 212.207033 310.168721 
L 212.459748 311.710657 
L 212.712463 327.130016 
L 212.965178 312.519541 
L 213.217893 328.823618 
L 213.470608 334.081367 
L 213.723323 300.86655 
L 213.976038 301.776545 
L 214.228753 333.904424 
L 214.481468 341.715214 
L 214.734183 392.144103 
L 214.986898 377.988625 
L 215.239613 345.532137 
L 215.492328 345.405749 
L 215.745043 265.477856 
L 215.997758 273.617256 
L 216.503188 250.083774 
L 216.755903 247.075735 
L 217.008618 252.48515 
L 217.514048 271.696155 
L 217.766763 244.573249 
L 218.019478 248.339617 
L 218.272193 247.480178 
L 218.524908 270.482829 
L 218.777623 275.462523 
L 219.030338 237.82412 
L 219.283053 241.03438 
L 219.535768 248.592394 
L 219.788483 251.777376 
L 220.041198 262.773149 
L 220.293913 254.684305 
L 220.546628 239.694665 
L 220.799343 243.71381 
L 221.052058 253.546811 
L 221.304773 275.664745 
L 221.810203 249.70461 
L 222.062918 248.491283 
L 222.315633 258.652894 
L 222.568348 254.73486 
L 222.821063 266.61535 
L 223.073778 266.514239 
L 223.326493 259.385945 
L 223.831923 275.437246 
L 224.084638 278.243064 
L 224.337353 275.411968 
L 224.590068 274.628361 
L 224.842783 266.943959 
L 225.095498 271.6456 
L 225.348213 280.037776 
L 225.600928 284.259142 
L 225.853643 252.813759 
L 226.106358 259.259557 
L 226.359073 269.39589 
L 226.611788 260.852048 
L 226.864503 279.228892 
L 227.117218 275.336135 
L 227.369933 265.629522 
L 227.622648 262.469817 
L 227.875363 268.587006 
L 228.128079 288.657451 
L 228.380794 285.598856 
L 228.633509 261.205935 
L 228.886224 271.140047 
L 229.138939 270.533384 
L 229.391654 272.808371 
L 229.644369 271.266435 
L 229.897084 271.038937 
L 230.149799 282.110542 
L 230.402514 280.897216 
L 230.655229 276.650572 
L 230.907944 278.875005 
L 231.160659 276.953904 
L 231.413374 280.442218 
L 231.666089 270.78616 
L 231.918804 275.386691 
L 232.171519 273.566701 
L 232.676949 284.410807 
L 232.929664 278.596951 
L 233.182379 279.936665 
L 233.435094 276.650572 
L 233.687809 279.178336 
L 233.940524 297.934344 
L 234.193239 290.452163 
L 234.445954 267.601178 
L 234.951384 280.037776 
L 235.204099 279.178336 
L 235.456814 295.684634 
L 235.709529 281.579712 
L 235.962244 286.534129 
L 236.973104 313.884534 
L 237.225819 293.9152 
L 237.478534 294.951583 
L 237.731249 289.087171 
L 237.983964 293.788811 
L 238.236679 301.422658 
L 238.742109 290.755495 
L 238.994824 303.318481 
L 239.247539 305.012083 
L 239.500254 307.61568 
L 239.752969 281.17527 
L 240.005684 287.444124 
L 240.258399 282.059987 
L 240.511114 283.172203 
L 240.763829 303.141538 
L 241.269259 295.103249 
L 241.521974 279.734444 
L 241.774689 303.394314 
L 242.027404 313.70759 
L 242.532834 294.370197 
L 242.785549 304.253754 
L 243.038264 308.247621 
L 243.543694 303.192093 
L 243.796409 309.031227 
L 244.049124 307.110127 
L 244.554554 288.531063 
L 244.807269 303.166815 
L 245.059984 300.942383 
L 245.312699 305.012083 
L 245.565414 289.618001 
L 245.818129 298.970727 
L 246.070844 296.872683 
L 246.323559 267.449512 
L 246.576274 254.178752 
L 246.828989 232.920258 
L 247.081704 231.580543 
L 247.334419 233.046646 
L 247.587134 258.096786 
L 247.839849 265.32619 
L 248.092564 245.584355 
L 248.345279 238.860503 
L 248.597994 243.233534 
L 248.850709 257.035125 
L 249.103424 256.200963 
L 249.356139 258.248452 
L 249.608854 241.868542 
L 249.861569 249.502389 
L 250.114284 261.964265 
L 250.366999 254.431528 
L 250.619714 251.09488 
L 250.872429 261.888432 
L 251.125144 267.449512 
L 251.377859 257.591233 
L 251.630574 266.312018 
L 251.883289 267.929787 
L 252.136004 262.570928 
L 252.641434 271.013659 
L 252.894149 268.662839 
L 253.146864 279.102503 
L 253.399579 258.551783 
L 253.652294 249.123224 
L 253.905009 252.636816 
L 254.157724 241.084935 
L 254.410439 261.483989 
L 254.663154 266.716461 
L 254.915869 249.780443 
L 255.168584 252.990703 
L 255.421299 246.519627 
L 255.674014 267.120903 
L 255.926729 274.552528 
L 256.179444 266.033964 
L 256.684874 282.110542 
L 256.937589 277.585845 
L 257.190304 289.390502 
L 257.443019 282.56554 
L 257.695734 262.166486 
L 258.201164 286.003299 
L 258.453879 280.341108 
L 258.706594 256.858182 
L 258.959309 274.780027 
L 259.212024 268.283674 
L 259.464739 252.358762 
L 259.717454 272.277541 
L 259.970169 277.282513 
L 260.222884 284.663584 
L 260.475599 265.022859 
L 260.728314 255.240413 
L 260.981029 261.15538 
L 261.486459 285.194414 
L 261.739174 286.433019 
L 261.991889 270.381718 
L 262.244604 269.522278 
L 262.497319 274.75475 
L 262.750034 282.616095 
L 263.002749 297.65629 
L 263.255464 273.617256 
L 263.508179 281.807211 
L 264.266324 285.396635 
L 264.519039 283.879977 
L 264.771754 274.982248 
L 265.02447 276.321963 
L 265.277185 273.89531 
L 265.5299 295.077971 
L 265.782615 292.828261 
L 266.03533 286.660517 
L 266.54076 294.066865 
L 266.793475 290.477441 
L 267.04619 301.953489 
L 267.298905 279.35528 
L 267.55162 271.241158 
L 267.804335 283.981088 
L 268.05705 283.95581 
L 268.309765 302.989872 
L 268.56248 298.414619 
L 268.815195 271.11477 
L 269.06791 277.080292 
L 269.320625 302.914039 
L 269.57334 289.542168 
L 269.826055 299.324614 
L 270.07877 303.015149 
L 270.331485 295.431858 
L 271.08963 316.993683 
L 271.847775 305.113193 
L 272.10049 314.541753 
L 272.353205 310.143443 
L 272.60592 319.344504 
L 272.858635 316.842018 
L 273.11135 311.811768 
L 273.364065 314.46592 
L 273.61678 307.514569 
L 273.869495 310.598441 
L 274.374925 296.594629 
L 274.62764 295.73519 
L 274.880355 315.300082 
L 275.13307 317.928956 
L 275.385785 317.726735 
L 275.6385 305.568191 
L 275.891215 306.655129 
L 276.14393 302.004044 
L 276.396645 335.598025 
L 276.64936 327.231127 
L 276.902075 313.70759 
L 277.407505 324.400032 
L 277.66022 317.499236 
L 277.912935 320.380887 
L 278.16565 313.075649 
L 278.418365 281.17527 
L 278.67108 270.154219 
L 278.923795 276.14502 
L 279.17651 277.863899 
L 279.68194 261.888432 
L 279.934655 267.5759 
L 280.18737 258.172619 
L 280.440085 257.540678 
L 280.6928 253.799587 
L 280.945515 263.354535 
L 281.19823 255.948187 
L 281.450945 252.990703 
L 281.70366 257.009847 
L 281.956375 267.601178 
L 282.20909 268.106731 
L 282.461805 260.220107 
L 282.71452 248.466006 
L 282.967235 255.847076 
L 283.21995 268.258397 
L 283.472665 271.367546 
L 283.72538 262.798427 
L 283.978095 259.512334 
L 284.73624 277.686956 
L 285.24167 283.677756 
L 285.7471 272.985315 
L 285.999815 286.812183 
L 286.25253 290.022443 
L 286.505245 295.912133 
L 287.010675 275.993354 
L 287.26339 283.399702 
L 287.516105 286.761628 
L 287.76882 279.380557 
L 288.021535 268.43534 
L 288.27425 266.61535 
L 288.526965 280.947771 
L 288.77968 287.873844 
L 289.032395 301.776545 
L 289.28511 302.459041 
L 289.537825 284.233864 
L 289.79054 274.75475 
L 290.043255 282.211653 
L 290.29597 295.002138 
L 290.548685 286.20552 
L 290.8014 298.060732 
L 291.054115 299.172948 
L 291.30683 299.526835 
L 291.559545 311.078716 
L 291.81226 312.468986 
L 292.064975 314.693418 
L 292.31769 304.253754 
L 292.82312 313.909812 
L 293.32855 299.071838 
L 293.581265 302.15571 
L 293.83398 308.222343 
L 294.086695 307.034294 
L 294.33941 303.444869 
L 295.097555 271.392824 
L 295.35027 275.032804 
L 295.602985 282.388596 
L 295.8557 295.684634 
L 296.108415 284.739417 
L 296.36113 289.314669 
L 296.613845 275.007526 
L 296.86656 271.291713 
L 297.37199 311.508436 
L 297.624705 297.909066 
L 297.87742 299.400447 
L 298.635565 318.712563 
L 298.88828 304.860417 
L 299.140995 298.136565 
L 299.39371 303.849311 
L 299.646425 296.670462 
L 299.89914 297.883789 
L 300.151855 294.344919 
L 300.40457 285.194414 
L 300.657285 306.301242 
L 300.91 305.138471 
L 301.162715 310.901773 
L 301.41543 295.431858 
L 301.668145 317.802568 
L 301.92086 297.302403 
L 302.173576 294.597696 
L 302.426291 296.392408 
L 302.679006 301.776545 
L 302.931721 303.394314 
L 303.184436 307.211237 
L 303.437151 307.438736 
L 303.689866 291.513824 
L 303.942581 308.854284 
L 304.448011 320.254499 
L 304.700726 310.724829 
L 304.953441 310.598441 
L 305.458871 325.006695 
L 305.711586 327.003628 
L 305.964301 387.265518 
L 306.217016 383.676094 
L 306.469731 392.952987 
L 306.722446 393.45854 
L 306.975161 318.965339 
L 307.227876 327.73668 
L 307.480591 326.34641 
L 307.733306 321.543658 
L 307.986021 310.472053 
L 308.238736 310.92705 
L 308.491451 325.663913 
L 308.744166 317.524514 
L 308.996881 313.378981 
L 309.249596 302.787651 
L 309.502311 304.50653 
L 309.755026 262.040097 
L 310.007741 264.593139 
L 310.260456 259.689277 
L 310.513171 247.657121 
L 310.765886 254.482084 
L 311.018601 272.681983 
L 311.271316 269.977276 
L 311.524031 259.107891 
L 311.776746 258.728727 
L 312.029461 254.077641 
L 312.282176 259.461778 
L 312.534891 260.270663 
L 312.787606 271.089492 
L 313.040321 268.890337 
L 313.293036 251.701543 
L 313.545751 264.845915 
L 313.798466 270.002554 
L 314.303896 271.670878 
L 314.556611 266.893404 
L 314.809326 253.4457 
L 315.314756 275.791133 
L 315.567471 273.238091 
L 315.820186 255.215135 
L 316.072901 251.297101 
L 316.325616 259.461778 
L 316.578331 272.631428 
L 316.831046 270.103664 
L 317.083761 249.982664 
L 317.589191 256.200963 
L 317.841906 285.598856 
L 318.094621 295.457135 
L 318.347336 286.73635 
L 318.852766 277.257236 
L 319.105481 281.883044 
L 319.358196 294.87575 
L 319.610911 278.344174 
L 319.863626 286.028576 
L 320.116341 287.848566 
L 320.369056 293.687701 
L 320.621771 293.030482 
L 320.874486 297.12546 
L 321.127201 291.488546 
L 321.379916 295.558246 
L 321.632631 295.356025 
L 321.885346 290.452163 
L 322.138061 288.177176 
L 322.390776 282.56554 
L 322.643491 273.339202 
L 322.896206 273.844755 
L 323.148921 281.453324 
L 323.401636 292.499652 
L 323.654351 297.074904 
L 324.159781 284.789972 
L 324.412496 278.723339 
L 324.665211 302.787651 
L 324.917926 302.610707 
L 325.170641 307.742068 
L 325.676071 277.889177 
L 325.928786 284.865805 
L 326.181501 284.082198 
L 326.686931 299.097115 
L 326.939646 296.164909 
L 327.192361 289.011338 
L 327.445076 304.885695 
L 327.697791 309.511502 
L 327.950506 311.660102 
L 328.203221 316.943128 
L 328.455936 292.347986 
L 328.708651 283.677756 
L 328.961366 302.231543 
L 329.214081 305.03736 
L 329.466796 273.313924 
L 329.719511 265.629522 
L 330.224941 304.203198 
L 330.477656 307.261793 
L 330.730371 299.375169 
L 330.983086 287.519957 
L 331.741231 305.997911 
L 331.993946 318.662008 
L 332.499376 300.841272 
L 333.004806 316.943128 
L 333.762951 294.496585 
L 334.015666 314.491197 
L 334.268381 310.901773 
L 334.521096 311.634824 
L 335.026526 317.575069 
L 335.279241 312.418431 
L 335.531956 312.772318 
L 335.784671 317.145349 
L 336.037386 311.735935 
L 336.290101 299.855445 
L 336.542816 297.302403 
L 336.795531 298.389342 
L 337.048246 302.206265 
L 337.300961 315.42647 
L 337.553676 315.502303 
L 337.806391 309.941222 
L 338.059106 312.696485 
L 338.311821 325.411137 
L 338.564536 320.203944 
L 338.817251 325.006695 
L 339.069967 333.601092 
L 339.322682 324.678086 
L 339.575397 323.641702 
L 339.828112 332.387765 
L 340.080827 323.843923 
L 340.333542 320.684219 
L 340.586257 319.850057 
L 340.838972 311.230382 
L 341.091687 320.431442 
L 341.344402 290.148831 
L 341.597117 293.864644 
L 341.849832 293.434924 
L 342.102547 282.742483 
L 342.355262 260.118997 
L 342.607977 271.923654 
L 342.860692 266.590072 
L 343.366122 243.941308 
L 343.618837 238.835225 
L 344.124267 272.783094 
L 344.629697 265.604244 
L 344.882412 258.551783 
L 345.135127 265.427301 
L 345.387842 265.503134 
L 345.640557 282.514985 
L 345.893272 265.781188 
L 346.145987 267.525345 
L 346.651417 278.420007 
L 347.156847 271.493934 
L 347.409562 265.806466 
L 347.662277 272.479762 
L 347.914992 272.985315 
L 348.167707 271.898376 
L 348.420422 280.84666 
L 348.673137 283.652478 
L 348.925852 271.089492 
L 349.178567 277.10557 
L 349.431282 274.400863 
L 350.189427 260.852048 
L 350.442142 261.812599 
L 350.694857 266.792293 
L 350.947572 290.603829 
L 351.200287 296.468241 
L 351.453002 263.455645 
L 351.705717 269.067281 
L 352.211147 289.668556 
L 352.463862 275.917521 
L 352.716577 278.875005 
L 352.969292 278.799172 
L 353.222007 281.478601 
L 353.474722 288.708006 
L 353.727437 291.842433 
L 353.980152 299.804889 
L 354.232867 287.444124 
L 354.485582 286.534129 
L 354.738297 284.208586 
L 355.243727 310.320387 
L 355.496442 303.672368 
L 355.749157 311.382048 
L 356.001872 301.776545 
L 356.254587 304.203198 
L 356.507302 301.422658 
L 356.760017 278.571673 
L 357.012732 269.951998 
L 357.265447 281.428046 
L 357.518162 283.930532 
L 357.770877 305.315414 
L 358.023592 301.574324 
L 358.276307 283.981088 
L 358.529022 290.27522 
L 358.781737 307.438736 
L 359.034452 305.416525 
L 359.287167 314.010922 
L 359.539882 298.566285 
L 359.792597 299.04656 
L 360.045312 297.074904 
L 360.298027 317.625624 
L 360.550742 312.671207 
L 360.803457 318.156455 
L 361.308887 309.031227 
L 361.561602 307.919011 
L 362.067032 314.794529 
L 362.319747 312.519541 
L 362.572462 299.04656 
L 362.825177 300.360997 
L 363.077892 302.989872 
L 363.330607 313.505369 
L 363.583322 308.980672 
L 363.836037 295.457135 
L 364.088752 297.22657 
L 364.341467 300.86655 
L 364.594182 323.035039 
L 364.846897 318.965339 
L 365.099612 311.660102 
L 365.352327 309.865389 
L 365.857757 329.152228 
L 366.110472 324.450587 
L 366.363187 322.478931 
L 366.868617 307.084849 
L 367.121332 327.812513 
L 367.374047 330.441387 
L 368.132192 320.481998 
L 368.384907 324.400032 
L 368.637622 334.359421 
L 368.890337 331.831657 
L 369.143052 332.438321 
L 369.395767 313.859256 
L 369.648482 323.869201 
L 369.901197 323.742813 
L 370.406627 333.72748 
L 370.659342 330.112778 
L 370.912057 319.445614 
L 371.164772 324.0967 
L 371.417487 338.378566 
L 371.670202 304.380142 
L 371.922917 286.913294 
L 372.175632 290.527996 
L 372.428347 276.069187 
L 372.681062 284.91636 
L 372.933777 286.989127 
L 373.186492 285.320802 
L 373.439207 267.196736 
L 373.691922 294.850472 
L 373.944637 283.172203 
L 374.197352 288.202453 
L 374.702782 265.553689 
L 374.955497 265.250358 
L 375.208212 270.887271 
L 375.460927 279.178336 
L 375.713642 280.31583 
L 375.966358 269.926721 
L 376.219073 277.358346 
L 376.471788 274.046976 
L 376.724503 285.371358 
L 376.977218 284.208586 
L 377.229933 289.41578 
L 377.482648 268.915615 
L 377.735363 272.681983 
L 377.988078 287.090237 
L 378.240793 279.203614 
L 378.493508 277.257236 
L 378.746223 279.304725 
L 378.998938 266.640628 
L 379.251653 271.898376 
L 379.504368 281.933599 
L 379.757083 285.548301 
L 380.262513 302.58543 
L 380.515228 281.908321 
L 380.767943 291.564379 
L 381.020658 305.644024 
L 381.273373 291.23577 
L 381.526088 291.412713 
L 381.778803 298.439897 
L 382.031518 288.076065 
L 382.536948 305.922078 
L 382.789663 302.964594 
L 383.042378 305.492358 
L 383.295093 303.267926 
L 383.547808 288.303564 
L 383.800523 287.671623 
L 384.053238 301.473213 
L 384.558668 272.884204 
L 384.811383 276.928626 
L 385.064098 287.039682 
L 385.316813 309.688446 
L 385.569528 304.380142 
L 385.822243 284.056921 
L 386.074958 287.722178 
L 386.327673 302.307376 
L 386.580388 306.554019 
L 386.833103 294.97686 
L 387.085818 296.746295 
L 387.338533 305.087916 
L 387.591248 301.650157 
L 387.843963 313.202038 
L 388.096678 309.814834 
L 388.349393 292.853539 
L 388.602108 294.724084 
L 388.854823 315.173693 
L 389.107538 314.187866 
L 389.360253 325.765024 
L 389.865683 305.820967 
L 390.118398 320.330332 
L 390.371113 325.91669 
L 390.623828 327.205849 
L 390.876543 323.186705 
L 391.129258 298.237676 
L 391.381973 285.927466 
L 392.140118 306.048466 
L 392.392833 311.483158 
L 392.898263 295.760467 
L 393.150978 293.359091 
L 393.403693 314.213143 
L 393.656408 316.235354 
L 393.909123 312.822873 
L 394.161838 317.650902 
L 394.414553 315.42647 
L 394.667268 310.472053 
L 395.172698 338.429121 
L 395.425413 314.263699 
L 395.678128 302.787651 
L 395.930843 302.661262 
L 396.436273 332.716375 
L 396.688988 331.604158 
L 396.941703 331.250272 
L 397.194418 312.039266 
L 397.447133 314.415364 
L 397.952563 331.90749 
L 398.457993 298.920172 
L 398.710708 305.568191 
L 398.963423 325.133083 
L 399.216138 326.599186 
L 399.468853 325.588081 
L 399.721568 319.951167 
L 399.974283 308.399286 
L 400.732428 334.662753 
L 401.237858 319.799501 
L 401.490573 333.044984 
L 401.743288 331.80638 
L 401.996003 335.724414 
L 402.501433 320.128111 
L 402.754148 324.981417 
L 403.006863 335.143028 
L 403.259578 326.144189 
L 403.512293 342.524098 
L 403.765008 346.062968 
L 404.017723 292.727151 
L 404.270438 293.889922 
L 404.523153 300.234609 
L 404.775868 288.606895 
L 405.028583 258.526506 
L 405.281298 257.717621 
L 405.786728 270.912549 
L 406.039443 289.921333 
L 406.292158 272.656706 
L 406.544873 274.299752 
L 406.797588 272.252263 
L 407.050303 276.852794 
L 407.303018 274.678917 
L 407.555733 283.071093 
L 407.808448 284.688862 
L 408.061163 275.386691 
L 408.313878 281.60499 
L 408.566593 279.178336 
L 408.819308 290.123554 
L 409.324738 272.151153 
L 409.577453 277.029737 
L 409.830168 262.672038 
L 410.082883 278.470562 
L 410.335598 283.703034 
L 410.588313 273.870032 
L 410.841028 281.908321 
L 411.093743 283.652478 
L 411.346458 283.829422 
L 411.599173 292.322708 
L 411.851888 281.908321 
L 412.104603 262.950092 
L 412.357318 269.446446 
L 412.610033 279.02667 
L 412.862749 301.422658 
L 413.115464 296.619907 
L 413.368179 278.546395 
L 413.620894 277.130848 
L 414.126324 305.947355 
L 414.379039 304.860417 
L 414.631754 284.587751 
L 414.884469 282.034709 
L 415.389899 299.526835 
L 415.642614 295.861578 
L 415.895329 301.877656 
L 416.148044 295.229637 
L 416.400759 297.049627 
L 416.653474 300.942383 
L 416.906189 311.129271 
L 417.158904 295.254914 
L 417.411619 298.338786 
L 417.664334 308.348731 
L 417.917049 307.211237 
L 418.169764 329.253338 
L 418.422479 309.385114 
L 418.675194 305.568191 
L 418.927909 284.158031 
L 419.180624 286.837461 
L 419.686054 313.657035 
L 419.938769 323.995589 
L 420.191484 320.962273 
L 420.444199 295.785745 
L 420.696914 302.180987 
L 420.949629 312.393153 
L 421.202344 315.173693 
L 421.455059 309.334559 
L 421.707774 311.078716 
L 421.960489 294.193254 
L 422.213204 291.640212 
L 422.465919 306.958461 
L 422.718634 312.74704 
L 422.971349 300.032388 
L 423.224064 300.588496 
L 423.476779 310.876495 
L 423.729494 308.803729 
L 423.982209 311.761212 
L 424.234924 318.737841 
L 424.487639 317.67618 
L 424.993069 300.487386 
L 425.498499 322.200877 
L 425.751214 301.473213 
L 426.003929 297.757401 
L 426.762074 330.643608 
L 427.014789 322.731707 
L 427.267504 309.385114 
L 427.520219 310.547886 
L 427.772934 315.982578 
L 428.025649 328.014734 
L 428.278364 334.233033 
L 428.783794 315.401192 
L 429.036509 325.840857 
L 429.289224 329.076395 
L 429.541939 342.928541 
L 429.794654 338.353288 
L 430.047369 320.936995 
L 430.300084 324.576975 
L 430.552799 340.072167 
L 430.805514 337.594959 
L 431.058229 337.038851 
L 431.310944 329.202783 
L 431.563659 314.491197 
L 431.816374 323.843923 
L 432.069089 328.495009 
L 432.321804 415.728139 
L 432.574519 403.62015 
L 432.827234 404.125703 
L 433.079949 410.697889 
L 433.332664 344.419921 
L 433.585379 364.085924 
L 433.838094 353.696815 
L 434.090809 350.840441 
L 434.343524 329.253338 
L 434.596239 339.490782 
L 434.848954 292.600762 
L 435.101669 291.7666 
L 435.354384 282.413874 
L 435.607099 283.930532 
L 435.859814 287.722178 
L 436.112529 288.303564 
L 436.365244 287.772733 
L 436.617959 280.947771 
L 436.870674 280.265275 
L 437.376104 286.913294 
L 437.628819 297.024349 
L 437.881534 299.400447 
L 438.386964 276.423074 
L 438.639679 279.860833 
L 438.892394 291.412713 
L 439.145109 295.811022 
L 439.397824 274.451418 
L 439.650539 271.771988 
L 439.903254 273.136981 
L 440.408684 300.790717 
L 440.661399 287.545235 
L 440.914114 283.854699 
L 441.166829 285.169137 
L 441.419544 289.921333 
L 441.672259 300.33572 
L 441.924974 303.369036 
L 442.177689 299.172948 
L 442.430404 299.855445 
L 442.683119 307.919011 
L 442.935834 305.846245 
L 443.188549 298.642118 
L 443.441264 310.370942 
L 443.946694 303.748201 
L 444.199409 292.828261 
L 444.452124 307.817901 
L 444.704839 296.79685 
L 444.957554 298.288231 
L 445.210269 304.329587 
L 445.462984 298.439897 
L 445.715699 307.640957 
L 445.968414 309.10706 
L 446.221129 304.734029 
L 446.473844 306.655129 
L 446.726559 290.932438 
L 446.979274 298.338786 
L 447.231989 310.598441 
L 447.484704 297.934344 
L 447.737419 291.918266 
L 447.990134 298.060732 
L 448.495564 338.909396 
L 448.748279 342.144934 
L 449.000994 303.697646 
L 449.253709 297.984899 
L 449.75914 316.38702 
L 450.26457 300.184054 
L 450.517285 308.14651 
L 450.77 310.674274 
L 451.022715 323.085594 
L 451.528145 299.804889 
L 451.78086 316.437575 
L 452.033575 319.824779 
L 452.28629 326.194744 
L 452.539005 326.0178 
L 452.79172 323.843923 
L 453.044435 327.964179 
L 453.29715 302.610707 
L 453.549865 300.639051 
L 453.80258 300.158776 
L 454.30801 326.750852 
L 454.560725 317.979511 
L 455.066155 291.842433 
L 455.31887 317.473959 
L 455.571585 323.768091 
L 455.8243 316.867295 
L 456.077015 301.624879 
L 456.32973 312.039266 
L 456.582445 328.798341 
L 456.83516 320.380887 
L 457.087875 319.06645 
L 457.34059 310.219276 
L 457.593305 308.67734 
L 457.84602 321.568936 
L 458.098735 324.981417 
L 458.35145 324.223088 
L 458.604165 320.229221 
L 458.85688 325.48697 
L 459.109595 318.763118 
L 459.36231 318.864229 
L 459.615025 309.991778 
L 459.86774 310.674274 
L 460.37317 281.301658 
L 460.625885 287.343014 
L 461.131315 320.507275 
L 461.38403 316.260632 
L 461.88946 293.308536 
L 462.142175 294.44603 
L 462.39489 318.965339 
L 462.647605 319.192838 
L 463.153035 314.845084 
L 463.40575 323.919756 
L 463.658465 322.782263 
L 463.91118 325.714469 
L 464.163895 324.804474 
L 464.41661 318.030067 
L 464.669325 321.442548 
L 465.174755 307.969567 
L 465.680185 330.0875 
L 465.9329 307.590402 
L 466.185615 309.713724 
L 466.43833 323.414204 
L 466.691045 320.153388 
L 466.94376 334.991362 
L 467.196475 309.587335 
L 467.44919 307.312348 
L 467.701905 276.57474 
L 467.95462 274.780027 
L 468.207335 290.679662 
L 468.46005 284.082198 
L 468.712765 266.918682 
L 468.96548 262.267596 
L 469.218195 270.659772 
L 469.723625 279.481668 
L 469.97634 274.906415 
L 470.229055 264.643694 
L 470.48177 278.647506 
L 470.734485 282.439152 
L 470.9872 283.804144 
L 471.239915 278.950838 
L 471.49263 279.785 
L 471.745345 276.498907 
L 471.99806 282.338041 
L 472.250775 280.74555 
L 472.50349 263.379812 
L 473.00892 287.317736 
L 473.261635 281.655545 
L 473.51435 293.814089 
L 473.767065 282.489707 
L 474.01978 265.452579 
L 474.272495 262.848982 
L 474.777925 297.277125 
L 475.03064 293.308536 
L 475.283355 279.987221 
L 475.53607 283.298591 
L 475.788785 270.836716 
L 476.0415 279.633334 
L 476.294215 292.347986 
L 476.54693 291.387436 
L 476.799645 293.030482 
L 477.05236 278.571673 
L 477.305075 292.929372 
L 477.55779 299.349892 
L 477.810505 285.927466 
L 478.06322 292.449097 
L 478.56865 296.518796 
L 478.821365 289.693834 
L 479.326795 305.820967 
L 479.57951 292.499652 
L 479.832225 288.581618 
L 480.08494 291.817156 
L 480.337655 297.529902 
L 480.59037 298.414619 
L 480.843085 301.624879 
L 481.0958 296.392408 
L 481.348515 285.952743 
L 481.60123 289.061893 
L 481.853945 308.626785 
L 482.359375 286.609962 
L 482.61209 285.118581 
L 483.11752 307.464014 
L 483.370235 319.268671 
L 483.875665 307.438736 
L 484.12838 313.378981 
L 484.381095 306.124299 
L 484.63381 317.903678 
L 484.886525 320.406165 
L 485.13924 316.336465 
L 485.391955 302.68654 
L 486.1501 327.408071 
L 486.402815 314.845084 
L 486.65553 312.342598 
L 486.908246 305.492358 
L 487.160961 316.083688 
L 487.413676 321.568936 
L 487.666391 321.84699 
L 487.919106 309.739001 
L 488.171821 307.817901 
L 488.424536 308.095955 
L 488.677251 313.050372 
L 488.929966 313.505369 
L 489.182681 301.72599 
L 489.435396 296.215465 
L 489.688111 298.212398 
L 489.940826 319.723668 
L 490.446256 323.540592 
L 490.698971 313.353704 
L 490.951686 313.050372 
L 491.204401 317.625624 
L 491.457116 338.707175 
L 491.962546 311.811768 
L 492.215261 320.734774 
L 492.467976 323.540592 
L 492.720691 339.693003 
L 492.973406 343.964924 
L 493.226121 330.441387 
L 493.478836 332.210822 
L 493.731551 323.768091 
L 493.984266 329.531392 
L 494.489696 332.615264 
L 494.742411 305.290137 
L 494.995126 303.11626 
L 495.753271 346.492688 
L 496.005986 338.681897 
L 496.258701 310.952328 
L 496.511416 317.322293 
L 496.764131 346.922407 
L 497.016846 335.648581 
L 497.269561 345.17825 
L 497.774991 321.796435 
L 498.027706 337.89829 
L 498.280421 339.819391 
L 498.533136 307.590402 
L 498.785851 298.389342 
L 499.038566 297.201293 
L 499.291281 284.334975 
L 499.543996 290.502718 
L 499.796711 293.510757 
L 500.049426 285.017471 
L 500.302141 297.833234 
L 500.554856 280.897216 
L 500.807571 289.8455 
L 501.060286 288.000232 
L 501.313001 297.201293 
L 501.565716 271.569767 
L 501.818431 269.193669 
L 502.071146 270.381718 
L 502.323861 286.609962 
L 502.576576 295.077971 
L 502.829291 282.717206 
L 503.082006 283.399702 
L 503.334721 273.743644 
L 503.587436 285.143859 
L 503.840151 301.978766 
L 504.598296 272.151153 
L 505.356441 293.283259 
L 505.609156 291.66549 
L 505.861871 284.840527 
L 506.114586 281.630267 
L 506.620016 291.66549 
L 506.872731 304.734029 
L 507.125446 300.487386 
L 507.378161 292.600762 
L 507.630876 280.467496 
L 507.883591 286.837461 
L 508.136306 302.58543 
L 508.389021 284.688862 
L 508.641736 284.360252 
L 508.894451 286.003299 
L 509.147166 280.644439 
L 509.399881 315.653969 
L 509.652596 314.086755 
L 509.905311 293.283259 
L 510.158026 291.437991 
L 510.410741 309.385114 
L 510.663456 315.173693 
L 510.916171 314.541753 
L 511.421601 305.79569 
L 512.179746 324.046145 
L 512.685176 302.762373 
L 512.937891 314.592308 
L 513.190606 307.18596 
L 513.443321 316.159521 
L 513.696036 315.805634 
L 513.948751 296.468241 
L 514.201466 288.910227 
L 514.454181 314.541753 
L 514.706896 318.434509 
L 515.465041 289.163004 
L 515.717756 295.30547 
L 515.970471 307.640957 
L 516.223186 330.618331 
L 516.475901 326.649741 
L 516.728616 305.03736 
L 516.981331 311.660102 
L 517.234046 315.022028 
L 517.486761 320.785329 
L 517.739476 331.022773 
L 517.992191 329.430282 
L 518.244906 320.962273 
L 518.497621 320.203944 
L 518.750336 324.020867 
L 519.003051 343.282427 
L 519.255766 327.256405 
L 519.508481 328.495009 
L 519.761196 319.091727 
L 520.013911 314.46592 
L 520.266626 323.970312 
L 520.519341 324.551697 
L 520.772056 305.163749 
L 521.024771 318.181732 
L 521.277486 319.951167 
L 521.530201 313.960367 
L 521.782916 314.541753 
L 522.035631 328.444454 
L 522.288346 316.917851 
L 522.541061 314.339531 
L 522.793776 323.818646 
L 523.046491 317.069516 
L 523.299206 313.328426 
L 523.551921 316.740907 
L 523.804637 313.17676 
L 524.057352 319.951167 
L 524.310067 341.689936 
L 524.562782 344.824363 
L 524.815497 332.463598 
L 525.068212 329.455559 
L 525.320927 329.202783 
L 525.573642 332.918596 
L 525.826357 330.491942 
L 526.079072 325.05725 
L 526.331787 316.892573 
L 526.584502 339.71828 
L 526.837217 333.373593 
L 527.089932 349.526004 
L 527.342647 323.818646 
L 527.595362 327.635569 
L 527.848077 325.739746 
L 528.353507 335.496915 
L 528.606222 326.978351 
L 528.858937 322.352543 
L 529.111652 322.959206 
L 529.364367 330.112778 
L 529.617082 331.882213 
L 530.122512 343.181317 
L 530.375227 286.154965 
L 530.627942 286.989127 
L 530.880657 276.701128 
L 531.386087 294.749362 
L 531.638802 291.589657 
L 531.891517 286.888016 
L 532.144232 269.775055 
L 532.396947 283.728311 
L 532.649662 284.284419 
L 532.902377 303.419592 
L 533.155092 284.688862 
L 533.660522 298.743228 
L 533.913237 297.403514 
L 534.165952 303.773479 
L 534.418667 303.495425 
L 534.671382 289.339947 
L 534.924097 295.684634 
L 535.176812 294.951583 
L 535.682242 303.748201 
L 535.934957 288.02551 
L 536.187672 281.099437 
L 536.440387 283.42498 
L 536.693102 301.498491 
L 536.945817 304.759306 
L 537.198532 296.645184 
L 537.451247 279.835555 
L 537.703962 283.728311 
L 537.956677 307.110127 
L 538.209392 308.727896 
L 538.462107 307.009016 
L 538.967537 295.457135 
L 539.220252 280.720272 
L 539.472967 284.056921 
L 539.725682 304.430697 
L 539.978397 310.573163 
L 540.231112 284.284419 
L 540.483827 288.657451 
L 540.989257 310.092888 
L 541.241972 312.21621 
L 541.747402 284.764694 
L 542.252832 312.393153 
L 542.505547 307.489291 
L 542.758262 294.218531 
L 543.010977 294.901027 
L 543.263692 287.747456 
L 543.769122 321.41727 
L 544.021837 321.796435 
L 544.274552 297.024349 
L 544.527267 294.749362 
L 544.779982 313.353704 
L 545.032697 317.575069 
L 545.285412 330.51722 
L 545.538127 316.083688 
L 545.790842 319.041172 
L 546.043557 318.914784 
L 546.296272 317.954234 
L 546.548987 309.233448 
L 546.801702 328.773063 
L 547.054417 323.363648 
L 547.307132 303.21737 
L 547.559847 321.063383 
L 547.812562 319.091727 
L 548.065277 319.951167 
L 548.317992 325.714469 
L 548.570707 315.679246 
L 549.076137 311.710657 
L 549.328852 331.503048 
L 549.581567 309.814834 
L 550.086997 328.646675 
L 550.339712 336.432187 
L 550.845142 329.784169 
L 551.350572 314.364809 
L 551.856002 343.611037 
L 552.108717 337.822458 
L 552.361432 322.681152 
L 552.614147 323.13615 
L 552.866862 327.205849 
L 553.119577 340.704108 
L 553.372292 340.173278 
L 553.625007 321.796435 
L 554.383152 340.956885 
L 554.635867 342.119656 
L 554.888582 342.372432 
L 555.141297 323.287815 
L 555.394012 328.343343 
L 555.899442 343.838536 
L 556.152157 348.186289 
L 556.404872 317.853123 
L 556.657587 315.375915 
L 557.163017 342.422988 
L 557.415732 348.38851 
L 557.921162 314.187866 
L 558.173877 317.120072 
L 558.426592 339.869946 
L 558.679307 422.932266 
L 558.932022 430.92 
L 559.184737 424.373092 
L 559.437452 413.958705 
L 559.690167 357.766514 
L 560.195597 369.571171 
L 560.701028 333.651647 
L 560.953743 407.765683 
L 561.206458 410.36928 
L 561.459173 352.584598 
L 562.470033 302.433764 
L 562.722748 308.323453 
L 562.975463 317.322293 
L 563.228178 296.392408 
L 563.480893 297.049627 
L 563.733608 295.30547 
L 563.986323 303.9757 
L 564.239038 321.948101 
L 564.491753 313.050372 
L 564.744468 309.334559 
L 564.997183 296.721017 
L 565.249898 307.742068 
L 565.502613 313.429536 
L 565.755328 322.099766 
L 566.008043 305.517636 
L 566.260758 313.555925 
L 566.513473 325.48697 
L 566.766188 331.073328 
L 567.018903 316.033133 
L 567.271618 315.982578 
L 567.524333 320.88644 
L 567.777048 318.383954 
L 568.535193 302.509597 
L 568.787908 321.41727 
L 569.040623 320.507275 
L 569.293338 317.979511 
L 569.546053 313.480092 
L 569.798768 327.256405 
L 570.051483 301.751267 
L 570.304198 296.746295 
L 570.556913 297.959622 
L 570.809628 303.470147 
L 571.062343 324.172533 
L 571.315058 315.224249 
L 571.567773 297.681568 
L 571.820488 304.279031 
L 572.073203 317.575069 
L 572.325918 322.883373 
L 572.578633 321.897545 
L 572.831348 308.045399 
L 573.084063 306.579296 
L 573.336778 311.584269 
L 573.589493 306.275965 
L 573.842208 315.906745 
L 574.094923 309.688446 
L 574.347638 315.502303 
L 574.600353 312.544819 
L 575.105783 323.23726 
L 575.358498 313.657035 
L 575.611213 326.851962 
L 575.863928 310.017055 
L 576.116643 307.61568 
L 576.622073 331.123883 
L 576.874788 311.938156 
L 577.127503 314.288976 
L 577.380218 297.757401 
L 577.885648 335.648581 
L 578.138363 326.978351 
L 578.391078 314.086755 
L 578.643793 310.472053 
L 578.896508 325.992523 
L 579.149223 329.379726 
L 579.401938 341.917435 
L 579.907368 323.793368 
L 580.160083 320.962273 
L 580.412798 336.331077 
L 580.918228 341.108551 
L 581.170943 324.046145 
L 581.423658 334.68803 
L 581.676373 328.216955 
L 581.929088 344.242978 
L 582.181803 334.966084 
L 582.687233 324.501142 
L 583.445378 349.576559 
L 583.698093 321.366715 
L 583.950808 320.98755 
L 584.203523 321.164494 
L 584.456238 322.478931 
L 584.708953 331.629436 
L 584.961668 335.168306 
L 585.214383 310.370942 
L 585.467098 311.8876 
L 585.719813 332.084434 
L 586.225243 337.064128 
L 586.477958 423.008099 
L 586.730673 419.57034 
L 586.983388 427.785573 
L 587.236103 430.869445 
L 587.488818 367.624793 
L 587.741533 352.609876 
L 587.994248 352.45821 
L 588.246963 329.935834 
L 588.499678 332.387765 
L 588.752393 349.879891 
L 589.005108 333.070262 
L 589.257823 344.773808 
L 589.510538 341.791047 
L 589.763253 350.688776 
L 590.015968 351.295439 
L 590.268683 350.183223 
L 590.521398 332.311932 
L 590.774113 328.722508 
L 591.026828 337.038851 
L 591.279543 305.113193 
L 591.532258 322.301988 
L 591.784973 308.500397 
L 592.037688 281.579712 
L 592.290403 273.086425 
L 592.543118 285.421913 
L 592.795833 312.064544 
L 593.048548 315.830912 
L 593.301263 295.482413 
L 593.553978 294.269086 
L 593.806693 291.210492 
L 594.059408 298.364064 
L 594.312123 310.320387 
L 594.564838 299.627946 
L 594.817553 302.206265 
L 595.070268 298.894894 
L 595.322983 297.403514 
L 595.575698 296.847406 
L 595.828413 293.561313 
L 596.081128 298.237676 
L 596.333843 309.9665 
L 596.586558 305.922078 
L 596.839273 317.24646 
L 597.091988 316.134244 
L 597.344703 295.987966 
L 597.597419 298.94545 
L 597.850134 297.327681 
L 598.102849 313.935089 
L 598.355564 309.840112 
L 598.608279 310.370942 
L 598.860994 301.928211 
L 599.113709 287.671623 
L 599.619139 323.843923 
L 599.871854 308.626785 
L 600.124569 307.236515 
L 600.377284 303.672368 
L 600.629999 304.380142 
L 600.882714 315.729802 
L 601.135429 310.952328 
L 601.893574 321.518381 
L 602.146289 314.668141 
L 602.399004 323.616425 
L 602.651719 318.63673 
L 602.904434 311.103994 
L 603.157149 315.653969 
L 603.409864 311.002883 
L 603.662579 323.641702 
L 603.915294 303.470147 
L 604.168009 307.514569 
L 604.420724 295.482413 
L 604.673439 306.377075 
L 604.926154 309.385114 
L 605.431584 329.809446 
L 605.684299 307.388181 
L 606.189729 332.994429 
L 606.442444 331.553603 
L 606.695159 326.169466 
L 606.947874 326.093633 
L 607.200589 323.085594 
L 607.453304 328.014734 
L 607.706019 335.294694 
L 607.958734 325.790302 
L 608.211449 322.984484 
L 608.464164 334.005534 
L 608.716879 329.152228 
L 609.222309 337.519126 
L 609.475024 332.438321 
L 609.727739 337.79718 
L 609.980454 333.72748 
L 610.233169 337.493848 
L 610.485884 344.925474 
L 610.738599 347.251017 
L 611.496744 310.092888 
L 611.749459 333.828591 
L 612.002174 336.0783 
L 612.254889 340.552443 
L 612.760319 314.845084 
L 613.518464 364.566199 
L 613.771179 352.053768 
L 614.023894 346.012412 
L 614.276609 347.933513 
L 614.529324 351.447105 
L 614.782039 361.305384 
L 615.034754 340.274388 
L 615.287469 332.210822 
L 615.540184 334.68803 
L 615.792899 330.51722 
L 616.045614 334.1572 
L 616.551044 327.812513 
L 616.803759 326.573908 
L 617.056474 324.753918 
L 617.309189 335.926635 
L 617.561904 319.622558 
L 617.814619 335.421082 
L 618.067334 329.329171 
L 618.320049 329.758891 
L 618.572764 327.812513 
L 618.825479 336.50802 
L 619.078194 332.539431 
L 619.330909 336.204689 
L 619.330909 336.204689 
" style="fill:none;stroke:#1f77b4;stroke-linecap:square;stroke-width:1.5;"/>
   </g>
   <g id="patch_3">
    <path d="M 108 448.56 
L 108 60.48 
" style="fill:none;stroke:#000000;stroke-linecap:square;stroke-linejoin:miter;stroke-width:0.8;"/>
   </g>
   <g id="patch_4">
    <path d="M 643.68 448.56 
L 643.68 60.48 
" style="fill:none;stroke:#000000;stroke-linecap:square;stroke-linejoin:miter;stroke-width:0.8;"/>
   </g>
   <g id="patch_5">
    <path d="M 108 448.56 
L 643.68 448.56 
" style="fill:none;stroke:#000000;stroke-linecap:square;stroke-linejoin:miter;stroke-width:0.8;"/>
   </g>
   <g id="patch_6">
    <path d="M 108 60.48 
L 643.68 60.48 
" style="fill:none;stroke:#000000;stroke-linecap:square;stroke-linejoin:miter;stroke-width:0.8;"/>
   </g>
   <g id="text_30">
    <!-- docker - free -->
    <g transform="translate(328.339219 54.48)scale(0.15 -0.15)">
     <defs>
      <path d="M 45.40625 46.390625 
L 45.40625 75.984375 
L 54.390625 75.984375 
L 54.390625 0 
L 45.40625 0 
L 45.40625 8.203125 
Q 42.578125 3.328125 38.25 0.953125 
Q 33.9375 -1.421875 27.875 -1.421875 
Q 17.96875 -1.421875 11.734375 6.484375 
Q 5.515625 14.40625 5.515625 27.296875 
Q 5.515625 40.1875 11.734375 48.09375 
Q 17.96875 56 27.875 56 
Q 33.9375 56 38.25 53.625 
Q 42.578125 51.265625 45.40625 46.390625 
z
M 14.796875 27.296875 
Q 14.796875 17.390625 18.875 11.75 
Q 22.953125 6.109375 30.078125 6.109375 
Q 37.203125 6.109375 41.296875 11.75 
Q 45.40625 17.390625 45.40625 27.296875 
Q 45.40625 37.203125 41.296875 42.84375 
Q 37.203125 48.484375 30.078125 48.484375 
Q 22.953125 48.484375 18.875 42.84375 
Q 14.796875 37.203125 14.796875 27.296875 
z
" id="DejaVuSans-100"/>
      <path d="M 30.609375 48.390625 
Q 23.390625 48.390625 19.1875 42.75 
Q 14.984375 37.109375 14.984375 27.296875 
Q 14.984375 17.484375 19.15625 11.84375 
Q 23.34375 6.203125 30.609375 6.203125 
Q 37.796875 6.203125 41.984375 11.859375 
Q 46.1875 17.53125 46.1875 27.296875 
Q 46.1875 37.015625 41.984375 42.703125 
Q 37.796875 48.390625 30.609375 48.390625 
z
M 30.609375 56 
Q 42.328125 56 49.015625 48.375 
Q 55.71875 40.765625 55.71875 27.296875 
Q 55.71875 13.875 49.015625 6.21875 
Q 42.328125 -1.421875 30.609375 -1.421875 
Q 18.84375 -1.421875 12.171875 6.21875 
Q 5.515625 13.875 5.515625 27.296875 
Q 5.515625 40.765625 12.171875 48.375 
Q 18.84375 56 30.609375 56 
z
" id="DejaVuSans-111"/>
      <path d="M 48.78125 52.59375 
L 48.78125 44.1875 
Q 44.96875 46.296875 41.140625 47.34375 
Q 37.3125 48.390625 33.40625 48.390625 
Q 24.65625 48.390625 19.8125 42.84375 
Q 14.984375 37.3125 14.984375 27.296875 
Q 14.984375 17.28125 19.8125 11.734375 
Q 24.65625 6.203125 33.40625 6.203125 
Q 37.3125 6.203125 41.140625 7.25 
Q 44.96875 8.296875 48.78125 10.40625 
L 48.78125 2.09375 
Q 45.015625 0.34375 40.984375 -0.53125 
Q 36.96875 -1.421875 32.421875 -1.421875 
Q 20.0625 -1.421875 12.78125 6.34375 
Q 5.515625 14.109375 5.515625 27.296875 
Q 5.515625 40.671875 12.859375 48.328125 
Q 20.21875 56 33.015625 56 
Q 37.15625 56 41.109375 55.140625 
Q 45.0625 54.296875 48.78125 52.59375 
z
" id="DejaVuSans-99"/>
      <path d="M 9.078125 75.984375 
L 18.109375 75.984375 
L 18.109375 31.109375 
L 44.921875 54.6875 
L 56.390625 54.6875 
L 27.390625 29.109375 
L 57.625 0 
L 45.90625 0 
L 18.109375 26.703125 
L 18.109375 0 
L 9.078125 0 
z
" id="DejaVuSans-107"/>
      <path d="M 41.109375 46.296875 
Q 39.59375 47.171875 37.8125 47.578125 
Q 36.03125 48 33.890625 48 
Q 26.265625 48 22.1875 43.046875 
Q 18.109375 38.09375 18.109375 28.8125 
L 18.109375 0 
L 9.078125 0 
L 9.078125 54.6875 
L 18.109375 54.6875 
L 18.109375 46.1875 
Q 20.953125 51.171875 25.484375 53.578125 
Q 30.03125 56 36.53125 56 
Q 37.453125 56 38.578125 55.875 
Q 39.703125 55.765625 41.0625 55.515625 
z
" id="DejaVuSans-114"/>
      <path id="DejaVuSans-32"/>
      <path d="M 4.890625 31.390625 
L 31.203125 31.390625 
L 31.203125 23.390625 
L 4.890625 23.390625 
z
" id="DejaVuSans-45"/>
      <path d="M 37.109375 75.984375 
L 37.109375 68.5 
L 28.515625 68.5 
Q 23.6875 68.5 21.796875 66.546875 
Q 19.921875 64.59375 19.921875 59.515625 
L 19.921875 54.6875 
L 34.71875 54.6875 
L 34.71875 47.703125 
L 19.921875 47.703125 
L 19.921875 0 
L 10.890625 0 
L 10.890625 47.703125 
L 2.296875 47.703125 
L 2.296875 54.6875 
L 10.890625 54.6875 
L 10.890625 58.5 
Q 10.890625 67.625 15.140625 71.796875 
Q 19.390625 75.984375 28.609375 75.984375 
z
" id="DejaVuSans-102"/>
     </defs>
     <use xlink:href="#DejaVuSans-100"/>
     <use x="63.476562" xlink:href="#DejaVuSans-111"/>
     <use x="124.658203" xlink:href="#DejaVuSans-99"/>
     <use x="179.638672" xlink:href="#DejaVuSans-107"/>
     <use x="233.923828" xlink:href="#DejaVuSans-101"/>
     <use x="295.447266" xlink:href="#DejaVuSans-114"/>
     <use x="336.560547" xlink:href="#DejaVuSans-32"/>
     <use x="368.347656" xlink:href="#DejaVuSans-45"/>
     <use x="404.431641" xlink:href="#DejaVuSans-32"/>
     <use x="436.21875" xlink:href="#DejaVuSans-102"/>
     <use x="471.423828" xlink:href="#DejaVuSans-114"/>
     <use x="510.287109" xlink:href="#DejaVuSans-101"/>
     <use x="571.810547" xlink:href="#DejaVuSans-101"/>
    </g>
   </g>
   <g id="legend_1">
    <g id="patch_7">
     <path d="M 650.68 258.52 
L 654.68 258.52 
Q 656.68 258.52 656.68 256.52 
L 656.68 252.52 
Q 656.68 250.52 654.68 250.52 
L 650.68 250.52 
Q 648.68 250.52 648.68 252.52 
L 648.68 256.52 
Q 648.68 258.52 650.68 258.52 
z
" style="fill:#ffffff;opacity:0.8;stroke:#cccccc;stroke-linejoin:miter;"/>
    </g>
   </g>
  </g>
 </g>
 <defs>
  <clipPath id="pf685788b74">
   <rect height="388.08" width="535.68" x="108" y="60.48"/>
  </clipPath>
 </defs>
</svg>
