<?xml version="1.0" encoding="utf-8" standalone="no"?>
<!DOCTYPE svg PUBLIC "-//W3C//DTD SVG 1.1//EN"
  "http://www.w3.org/Graphics/SVG/1.1/DTD/svg11.dtd">
<!-- Created with matplotlib (https://matplotlib.org/) -->
<svg height="504pt" version="1.1" viewBox="0 0 864 504" width="864pt" xmlns="http://www.w3.org/2000/svg" xmlns:xlink="http://www.w3.org/1999/xlink">
 <metadata>
  <rdf:RDF xmlns:cc="http://creativecommons.org/ns#" xmlns:dc="http://purl.org/dc/elements/1.1/" xmlns:rdf="http://www.w3.org/1999/02/22-rdf-syntax-ns#">
   <cc:Work>
    <dc:type rdf:resource="http://purl.org/dc/dcmitype/StillImage"/>
    <dc:date>2022-05-29T17:08:02.023154</dc:date>
    <dc:format>image/svg+xml</dc:format>
    <dc:creator>
     <cc:Agent>
      <dc:title>Matplotlib v3.3.4, https://matplotlib.org/</dc:title>
     </cc:Agent>
    </dc:creator>
   </cc:Work>
  </rdf:RDF>
 </metadata>
 <defs>
  <style type="text/css">*{stroke-linecap:butt;stroke-linejoin:round;}</style>
 </defs>
 <g id="figure_1">
  <g id="patch_1">
   <path d="M 0 504 
L 864 504 
L 864 0 
L 0 0 
z
" style="fill:#ffffff;"/>
  </g>
  <g id="axes_1">
   <g id="patch_2">
    <path d="M 108 448.56 
L 643.68 448.56 
L 643.68 60.48 
L 108 60.48 
z
" style="fill:#ffffff;"/>
   </g>
   <g id="matplotlib.axis_1">
    <g id="xtick_1">
     <g id="line2d_1">
      <defs>
       <path d="M 0 0 
L 0 3.5 
" id="mbfe19fc54c" style="stroke:#000000;stroke-width:0.8;"/>
      </defs>
      <g>
       <use style="stroke:#000000;stroke-width:0.8;" x="132.349091" xlink:href="#mbfe19fc54c" y="448.56"/>
      </g>
     </g>
     <g id="text_1">
      <!-- 13:38:27 -->
      <g transform="translate(135.108466 500.4725)rotate(-90)scale(0.1 -0.1)">
       <defs>
        <path d="M 12.40625 8.296875 
L 28.515625 8.296875 
L 28.515625 63.921875 
L 10.984375 60.40625 
L 10.984375 69.390625 
L 28.421875 72.90625 
L 38.28125 72.90625 
L 38.28125 8.296875 
L 54.390625 8.296875 
L 54.390625 0 
L 12.40625 0 
z
" id="DejaVuSans-49"/>
        <path d="M 40.578125 39.3125 
Q 47.65625 37.796875 51.625 33 
Q 55.609375 28.21875 55.609375 21.1875 
Q 55.609375 10.40625 48.1875 4.484375 
Q 40.765625 -1.421875 27.09375 -1.421875 
Q 22.515625 -1.421875 17.65625 -0.515625 
Q 12.796875 0.390625 7.625 2.203125 
L 7.625 11.71875 
Q 11.71875 9.328125 16.59375 8.109375 
Q 21.484375 6.890625 26.8125 6.890625 
Q 36.078125 6.890625 40.9375 10.546875 
Q 45.796875 14.203125 45.796875 21.1875 
Q 45.796875 27.640625 41.28125 31.265625 
Q 36.765625 34.90625 28.71875 34.90625 
L 20.21875 34.90625 
L 20.21875 43.015625 
L 29.109375 43.015625 
Q 36.375 43.015625 40.234375 45.921875 
Q 44.09375 48.828125 44.09375 54.296875 
Q 44.09375 59.90625 40.109375 62.90625 
Q 36.140625 65.921875 28.71875 65.921875 
Q 24.65625 65.921875 20.015625 65.03125 
Q 15.375 64.15625 9.8125 62.3125 
L 9.8125 71.09375 
Q 15.4375 72.65625 20.34375 73.4375 
Q 25.25 74.21875 29.59375 74.21875 
Q 40.828125 74.21875 47.359375 69.109375 
Q 53.90625 64.015625 53.90625 55.328125 
Q 53.90625 49.265625 50.4375 45.09375 
Q 46.96875 40.921875 40.578125 39.3125 
z
" id="DejaVuSans-51"/>
        <path d="M 11.71875 12.40625 
L 22.015625 12.40625 
L 22.015625 0 
L 11.71875 0 
z
M 11.71875 51.703125 
L 22.015625 51.703125 
L 22.015625 39.3125 
L 11.71875 39.3125 
z
" id="DejaVuSans-58"/>
        <path d="M 31.78125 34.625 
Q 24.75 34.625 20.71875 30.859375 
Q 16.703125 27.09375 16.703125 20.515625 
Q 16.703125 13.921875 20.71875 10.15625 
Q 24.75 6.390625 31.78125 6.390625 
Q 38.8125 6.390625 42.859375 10.171875 
Q 46.921875 13.96875 46.921875 20.515625 
Q 46.921875 27.09375 42.890625 30.859375 
Q 38.875 34.625 31.78125 34.625 
z
M 21.921875 38.8125 
Q 15.578125 40.375 12.03125 44.71875 
Q 8.5 49.078125 8.5 55.328125 
Q 8.5 64.0625 14.71875 69.140625 
Q 20.953125 74.21875 31.78125 74.21875 
Q 42.671875 74.21875 48.875 69.140625 
Q 55.078125 64.0625 55.078125 55.328125 
Q 55.078125 49.078125 51.53125 44.71875 
Q 48 40.375 41.703125 38.8125 
Q 48.828125 37.15625 52.796875 32.3125 
Q 56.78125 27.484375 56.78125 20.515625 
Q 56.78125 9.90625 50.3125 4.234375 
Q 43.84375 -1.421875 31.78125 -1.421875 
Q 19.734375 -1.421875 13.25 4.234375 
Q 6.78125 9.90625 6.78125 20.515625 
Q 6.78125 27.484375 10.78125 32.3125 
Q 14.796875 37.15625 21.921875 38.8125 
z
M 18.3125 54.390625 
Q 18.3125 48.734375 21.84375 45.5625 
Q 25.390625 42.390625 31.78125 42.390625 
Q 38.140625 42.390625 41.71875 45.5625 
Q 45.3125 48.734375 45.3125 54.390625 
Q 45.3125 60.0625 41.71875 63.234375 
Q 38.140625 66.40625 31.78125 66.40625 
Q 25.390625 66.40625 21.84375 63.234375 
Q 18.3125 60.0625 18.3125 54.390625 
z
" id="DejaVuSans-56"/>
        <path d="M 19.1875 8.296875 
L 53.609375 8.296875 
L 53.609375 0 
L 7.328125 0 
L 7.328125 8.296875 
Q 12.9375 14.109375 22.625 23.890625 
Q 32.328125 33.6875 34.8125 36.53125 
Q 39.546875 41.84375 41.421875 45.53125 
Q 43.3125 49.21875 43.3125 52.78125 
Q 43.3125 58.59375 39.234375 62.25 
Q 35.15625 65.921875 28.609375 65.921875 
Q 23.96875 65.921875 18.8125 64.3125 
Q 13.671875 62.703125 7.8125 59.421875 
L 7.8125 69.390625 
Q 13.765625 71.78125 18.9375 73 
Q 24.125 74.21875 28.421875 74.21875 
Q 39.75 74.21875 46.484375 68.546875 
Q 53.21875 62.890625 53.21875 53.421875 
Q 53.21875 48.921875 51.53125 44.890625 
Q 49.859375 40.875 45.40625 35.40625 
Q 44.1875 33.984375 37.640625 27.21875 
Q 31.109375 20.453125 19.1875 8.296875 
z
" id="DejaVuSans-50"/>
        <path d="M 8.203125 72.90625 
L 55.078125 72.90625 
L 55.078125 68.703125 
L 28.609375 0 
L 18.3125 0 
L 43.21875 64.59375 
L 8.203125 64.59375 
z
" id="DejaVuSans-55"/>
       </defs>
       <use xlink:href="#DejaVuSans-49"/>
       <use x="63.623047" xlink:href="#DejaVuSans-51"/>
       <use x="127.246094" xlink:href="#DejaVuSans-58"/>
       <use x="160.9375" xlink:href="#DejaVuSans-51"/>
       <use x="224.560547" xlink:href="#DejaVuSans-56"/>
       <use x="288.183594" xlink:href="#DejaVuSans-58"/>
       <use x="321.875" xlink:href="#DejaVuSans-50"/>
       <use x="385.498047" xlink:href="#DejaVuSans-55"/>
      </g>
     </g>
    </g>
    <g id="xtick_2">
     <g id="line2d_2">
      <g>
       <use style="stroke:#000000;stroke-width:0.8;" x="156.575688" xlink:href="#mbfe19fc54c" y="448.56"/>
      </g>
     </g>
     <g id="text_2">
      <!-- 13:40:13 -->
      <g transform="translate(159.335063 500.4725)rotate(-90)scale(0.1 -0.1)">
       <defs>
        <path d="M 37.796875 64.3125 
L 12.890625 25.390625 
L 37.796875 25.390625 
z
M 35.203125 72.90625 
L 47.609375 72.90625 
L 47.609375 25.390625 
L 58.015625 25.390625 
L 58.015625 17.1875 
L 47.609375 17.1875 
L 47.609375 0 
L 37.796875 0 
L 37.796875 17.1875 
L 4.890625 17.1875 
L 4.890625 26.703125 
z
" id="DejaVuSans-52"/>
        <path d="M 31.78125 66.40625 
Q 24.171875 66.40625 20.328125 58.90625 
Q 16.5 51.421875 16.5 36.375 
Q 16.5 21.390625 20.328125 13.890625 
Q 24.171875 6.390625 31.78125 6.390625 
Q 39.453125 6.390625 43.28125 13.890625 
Q 47.125 21.390625 47.125 36.375 
Q 47.125 51.421875 43.28125 58.90625 
Q 39.453125 66.40625 31.78125 66.40625 
z
M 31.78125 74.21875 
Q 44.046875 74.21875 50.515625 64.515625 
Q 56.984375 54.828125 56.984375 36.375 
Q 56.984375 17.96875 50.515625 8.265625 
Q 44.046875 -1.421875 31.78125 -1.421875 
Q 19.53125 -1.421875 13.0625 8.265625 
Q 6.59375 17.96875 6.59375 36.375 
Q 6.59375 54.828125 13.0625 64.515625 
Q 19.53125 74.21875 31.78125 74.21875 
z
" id="DejaVuSans-48"/>
       </defs>
       <use xlink:href="#DejaVuSans-49"/>
       <use x="63.623047" xlink:href="#DejaVuSans-51"/>
       <use x="127.246094" xlink:href="#DejaVuSans-58"/>
       <use x="160.9375" xlink:href="#DejaVuSans-52"/>
       <use x="224.560547" xlink:href="#DejaVuSans-48"/>
       <use x="288.183594" xlink:href="#DejaVuSans-58"/>
       <use x="321.875" xlink:href="#DejaVuSans-49"/>
       <use x="385.498047" xlink:href="#DejaVuSans-51"/>
      </g>
     </g>
    </g>
    <g id="xtick_3">
     <g id="line2d_3">
      <g>
       <use style="stroke:#000000;stroke-width:0.8;" x="180.802285" xlink:href="#mbfe19fc54c" y="448.56"/>
      </g>
     </g>
     <g id="text_3">
      <!-- 13:42:00 -->
      <g transform="translate(183.56166 500.4725)rotate(-90)scale(0.1 -0.1)">
       <use xlink:href="#DejaVuSans-49"/>
       <use x="63.623047" xlink:href="#DejaVuSans-51"/>
       <use x="127.246094" xlink:href="#DejaVuSans-58"/>
       <use x="160.9375" xlink:href="#DejaVuSans-52"/>
       <use x="224.560547" xlink:href="#DejaVuSans-50"/>
       <use x="288.183594" xlink:href="#DejaVuSans-58"/>
       <use x="321.875" xlink:href="#DejaVuSans-48"/>
       <use x="385.498047" xlink:href="#DejaVuSans-48"/>
      </g>
     </g>
    </g>
    <g id="xtick_4">
     <g id="line2d_4">
      <g>
       <use style="stroke:#000000;stroke-width:0.8;" x="205.028882" xlink:href="#mbfe19fc54c" y="448.56"/>
      </g>
     </g>
     <g id="text_4">
      <!-- 13:43:47 -->
      <g transform="translate(207.788257 500.4725)rotate(-90)scale(0.1 -0.1)">
       <use xlink:href="#DejaVuSans-49"/>
       <use x="63.623047" xlink:href="#DejaVuSans-51"/>
       <use x="127.246094" xlink:href="#DejaVuSans-58"/>
       <use x="160.9375" xlink:href="#DejaVuSans-52"/>
       <use x="224.560547" xlink:href="#DejaVuSans-51"/>
       <use x="288.183594" xlink:href="#DejaVuSans-58"/>
       <use x="321.875" xlink:href="#DejaVuSans-52"/>
       <use x="385.498047" xlink:href="#DejaVuSans-55"/>
      </g>
     </g>
    </g>
    <g id="xtick_5">
     <g id="line2d_5">
      <g>
       <use style="stroke:#000000;stroke-width:0.8;" x="229.255478" xlink:href="#mbfe19fc54c" y="448.56"/>
      </g>
     </g>
     <g id="text_5">
      <!-- 13:45:33 -->
      <g transform="translate(232.014853 500.4725)rotate(-90)scale(0.1 -0.1)">
       <defs>
        <path d="M 10.796875 72.90625 
L 49.515625 72.90625 
L 49.515625 64.59375 
L 19.828125 64.59375 
L 19.828125 46.734375 
Q 21.96875 47.46875 24.109375 47.828125 
Q 26.265625 48.1875 28.421875 48.1875 
Q 40.625 48.1875 47.75 41.5 
Q 54.890625 34.8125 54.890625 23.390625 
Q 54.890625 11.625 47.5625 5.09375 
Q 40.234375 -1.421875 26.90625 -1.421875 
Q 22.3125 -1.421875 17.546875 -0.640625 
Q 12.796875 0.140625 7.71875 1.703125 
L 7.71875 11.625 
Q 12.109375 9.234375 16.796875 8.0625 
Q 21.484375 6.890625 26.703125 6.890625 
Q 35.15625 6.890625 40.078125 11.328125 
Q 45.015625 15.765625 45.015625 23.390625 
Q 45.015625 31 40.078125 35.4375 
Q 35.15625 39.890625 26.703125 39.890625 
Q 22.75 39.890625 18.8125 39.015625 
Q 14.890625 38.140625 10.796875 36.28125 
z
" id="DejaVuSans-53"/>
       </defs>
       <use xlink:href="#DejaVuSans-49"/>
       <use x="63.623047" xlink:href="#DejaVuSans-51"/>
       <use x="127.246094" xlink:href="#DejaVuSans-58"/>
       <use x="160.9375" xlink:href="#DejaVuSans-52"/>
       <use x="224.560547" xlink:href="#DejaVuSans-53"/>
       <use x="288.183594" xlink:href="#DejaVuSans-58"/>
       <use x="321.875" xlink:href="#DejaVuSans-51"/>
       <use x="385.498047" xlink:href="#DejaVuSans-51"/>
      </g>
     </g>
    </g>
    <g id="xtick_6">
     <g id="line2d_6">
      <g>
       <use style="stroke:#000000;stroke-width:0.8;" x="253.482075" xlink:href="#mbfe19fc54c" y="448.56"/>
      </g>
     </g>
     <g id="text_6">
      <!-- 13:47:20 -->
      <g transform="translate(256.24145 500.4725)rotate(-90)scale(0.1 -0.1)">
       <use xlink:href="#DejaVuSans-49"/>
       <use x="63.623047" xlink:href="#DejaVuSans-51"/>
       <use x="127.246094" xlink:href="#DejaVuSans-58"/>
       <use x="160.9375" xlink:href="#DejaVuSans-52"/>
       <use x="224.560547" xlink:href="#DejaVuSans-55"/>
       <use x="288.183594" xlink:href="#DejaVuSans-58"/>
       <use x="321.875" xlink:href="#DejaVuSans-50"/>
       <use x="385.498047" xlink:href="#DejaVuSans-48"/>
      </g>
     </g>
    </g>
    <g id="xtick_7">
     <g id="line2d_7">
      <g>
       <use style="stroke:#000000;stroke-width:0.8;" x="277.708672" xlink:href="#mbfe19fc54c" y="448.56"/>
      </g>
     </g>
     <g id="text_7">
      <!-- 13:49:06 -->
      <g transform="translate(280.468047 500.4725)rotate(-90)scale(0.1 -0.1)">
       <defs>
        <path d="M 10.984375 1.515625 
L 10.984375 10.5 
Q 14.703125 8.734375 18.5 7.8125 
Q 22.3125 6.890625 25.984375 6.890625 
Q 35.75 6.890625 40.890625 13.453125 
Q 46.046875 20.015625 46.78125 33.40625 
Q 43.953125 29.203125 39.59375 26.953125 
Q 35.25 24.703125 29.984375 24.703125 
Q 19.046875 24.703125 12.671875 31.3125 
Q 6.296875 37.9375 6.296875 49.421875 
Q 6.296875 60.640625 12.9375 67.421875 
Q 19.578125 74.21875 30.609375 74.21875 
Q 43.265625 74.21875 49.921875 64.515625 
Q 56.59375 54.828125 56.59375 36.375 
Q 56.59375 19.140625 48.40625 8.859375 
Q 40.234375 -1.421875 26.421875 -1.421875 
Q 22.703125 -1.421875 18.890625 -0.6875 
Q 15.09375 0.046875 10.984375 1.515625 
z
M 30.609375 32.421875 
Q 37.25 32.421875 41.125 36.953125 
Q 45.015625 41.5 45.015625 49.421875 
Q 45.015625 57.28125 41.125 61.84375 
Q 37.25 66.40625 30.609375 66.40625 
Q 23.96875 66.40625 20.09375 61.84375 
Q 16.21875 57.28125 16.21875 49.421875 
Q 16.21875 41.5 20.09375 36.953125 
Q 23.96875 32.421875 30.609375 32.421875 
z
" id="DejaVuSans-57"/>
        <path d="M 33.015625 40.375 
Q 26.375 40.375 22.484375 35.828125 
Q 18.609375 31.296875 18.609375 23.390625 
Q 18.609375 15.53125 22.484375 10.953125 
Q 26.375 6.390625 33.015625 6.390625 
Q 39.65625 6.390625 43.53125 10.953125 
Q 47.40625 15.53125 47.40625 23.390625 
Q 47.40625 31.296875 43.53125 35.828125 
Q 39.65625 40.375 33.015625 40.375 
z
M 52.59375 71.296875 
L 52.59375 62.3125 
Q 48.875 64.0625 45.09375 64.984375 
Q 41.3125 65.921875 37.59375 65.921875 
Q 27.828125 65.921875 22.671875 59.328125 
Q 17.53125 52.734375 16.796875 39.40625 
Q 19.671875 43.65625 24.015625 45.921875 
Q 28.375 48.1875 33.59375 48.1875 
Q 44.578125 48.1875 50.953125 41.515625 
Q 57.328125 34.859375 57.328125 23.390625 
Q 57.328125 12.15625 50.6875 5.359375 
Q 44.046875 -1.421875 33.015625 -1.421875 
Q 20.359375 -1.421875 13.671875 8.265625 
Q 6.984375 17.96875 6.984375 36.375 
Q 6.984375 53.65625 15.1875 63.9375 
Q 23.390625 74.21875 37.203125 74.21875 
Q 40.921875 74.21875 44.703125 73.484375 
Q 48.484375 72.75 52.59375 71.296875 
z
" id="DejaVuSans-54"/>
       </defs>
       <use xlink:href="#DejaVuSans-49"/>
       <use x="63.623047" xlink:href="#DejaVuSans-51"/>
       <use x="127.246094" xlink:href="#DejaVuSans-58"/>
       <use x="160.9375" xlink:href="#DejaVuSans-52"/>
       <use x="224.560547" xlink:href="#DejaVuSans-57"/>
       <use x="288.183594" xlink:href="#DejaVuSans-58"/>
       <use x="321.875" xlink:href="#DejaVuSans-48"/>
       <use x="385.498047" xlink:href="#DejaVuSans-54"/>
      </g>
     </g>
    </g>
    <g id="xtick_8">
     <g id="line2d_8">
      <g>
       <use style="stroke:#000000;stroke-width:0.8;" x="301.935269" xlink:href="#mbfe19fc54c" y="448.56"/>
      </g>
     </g>
     <g id="text_8">
      <!-- 13:50:52 -->
      <g transform="translate(304.694644 500.4725)rotate(-90)scale(0.1 -0.1)">
       <use xlink:href="#DejaVuSans-49"/>
       <use x="63.623047" xlink:href="#DejaVuSans-51"/>
       <use x="127.246094" xlink:href="#DejaVuSans-58"/>
       <use x="160.9375" xlink:href="#DejaVuSans-53"/>
       <use x="224.560547" xlink:href="#DejaVuSans-48"/>
       <use x="288.183594" xlink:href="#DejaVuSans-58"/>
       <use x="321.875" xlink:href="#DejaVuSans-53"/>
       <use x="385.498047" xlink:href="#DejaVuSans-50"/>
      </g>
     </g>
    </g>
    <g id="xtick_9">
     <g id="line2d_9">
      <g>
       <use style="stroke:#000000;stroke-width:0.8;" x="326.161866" xlink:href="#mbfe19fc54c" y="448.56"/>
      </g>
     </g>
     <g id="text_9">
      <!-- 13:52:39 -->
      <g transform="translate(328.921241 500.4725)rotate(-90)scale(0.1 -0.1)">
       <use xlink:href="#DejaVuSans-49"/>
       <use x="63.623047" xlink:href="#DejaVuSans-51"/>
       <use x="127.246094" xlink:href="#DejaVuSans-58"/>
       <use x="160.9375" xlink:href="#DejaVuSans-53"/>
       <use x="224.560547" xlink:href="#DejaVuSans-50"/>
       <use x="288.183594" xlink:href="#DejaVuSans-58"/>
       <use x="321.875" xlink:href="#DejaVuSans-51"/>
       <use x="385.498047" xlink:href="#DejaVuSans-57"/>
      </g>
     </g>
    </g>
    <g id="xtick_10">
     <g id="line2d_10">
      <g>
       <use style="stroke:#000000;stroke-width:0.8;" x="350.388463" xlink:href="#mbfe19fc54c" y="448.56"/>
      </g>
     </g>
     <g id="text_10">
      <!-- 13:54:26 -->
      <g transform="translate(353.147838 500.4725)rotate(-90)scale(0.1 -0.1)">
       <use xlink:href="#DejaVuSans-49"/>
       <use x="63.623047" xlink:href="#DejaVuSans-51"/>
       <use x="127.246094" xlink:href="#DejaVuSans-58"/>
       <use x="160.9375" xlink:href="#DejaVuSans-53"/>
       <use x="224.560547" xlink:href="#DejaVuSans-52"/>
       <use x="288.183594" xlink:href="#DejaVuSans-58"/>
       <use x="321.875" xlink:href="#DejaVuSans-50"/>
       <use x="385.498047" xlink:href="#DejaVuSans-54"/>
      </g>
     </g>
    </g>
    <g id="xtick_11">
     <g id="line2d_11">
      <g>
       <use style="stroke:#000000;stroke-width:0.8;" x="374.61506" xlink:href="#mbfe19fc54c" y="448.56"/>
      </g>
     </g>
     <g id="text_11">
      <!-- 13:56:12 -->
      <g transform="translate(377.374435 500.4725)rotate(-90)scale(0.1 -0.1)">
       <use xlink:href="#DejaVuSans-49"/>
       <use x="63.623047" xlink:href="#DejaVuSans-51"/>
       <use x="127.246094" xlink:href="#DejaVuSans-58"/>
       <use x="160.9375" xlink:href="#DejaVuSans-53"/>
       <use x="224.560547" xlink:href="#DejaVuSans-54"/>
       <use x="288.183594" xlink:href="#DejaVuSans-58"/>
       <use x="321.875" xlink:href="#DejaVuSans-49"/>
       <use x="385.498047" xlink:href="#DejaVuSans-50"/>
      </g>
     </g>
    </g>
    <g id="xtick_12">
     <g id="line2d_12">
      <g>
       <use style="stroke:#000000;stroke-width:0.8;" x="398.841657" xlink:href="#mbfe19fc54c" y="448.56"/>
      </g>
     </g>
     <g id="text_12">
      <!-- 13:57:59 -->
      <g transform="translate(401.601032 500.4725)rotate(-90)scale(0.1 -0.1)">
       <use xlink:href="#DejaVuSans-49"/>
       <use x="63.623047" xlink:href="#DejaVuSans-51"/>
       <use x="127.246094" xlink:href="#DejaVuSans-58"/>
       <use x="160.9375" xlink:href="#DejaVuSans-53"/>
       <use x="224.560547" xlink:href="#DejaVuSans-55"/>
       <use x="288.183594" xlink:href="#DejaVuSans-58"/>
       <use x="321.875" xlink:href="#DejaVuSans-53"/>
       <use x="385.498047" xlink:href="#DejaVuSans-57"/>
      </g>
     </g>
    </g>
    <g id="xtick_13">
     <g id="line2d_13">
      <g>
       <use style="stroke:#000000;stroke-width:0.8;" x="423.068253" xlink:href="#mbfe19fc54c" y="448.56"/>
      </g>
     </g>
     <g id="text_13">
      <!-- 13:59:45 -->
      <g transform="translate(425.827628 500.4725)rotate(-90)scale(0.1 -0.1)">
       <use xlink:href="#DejaVuSans-49"/>
       <use x="63.623047" xlink:href="#DejaVuSans-51"/>
       <use x="127.246094" xlink:href="#DejaVuSans-58"/>
       <use x="160.9375" xlink:href="#DejaVuSans-53"/>
       <use x="224.560547" xlink:href="#DejaVuSans-57"/>
       <use x="288.183594" xlink:href="#DejaVuSans-58"/>
       <use x="321.875" xlink:href="#DejaVuSans-52"/>
       <use x="385.498047" xlink:href="#DejaVuSans-53"/>
      </g>
     </g>
    </g>
    <g id="xtick_14">
     <g id="line2d_14">
      <g>
       <use style="stroke:#000000;stroke-width:0.8;" x="447.29485" xlink:href="#mbfe19fc54c" y="448.56"/>
      </g>
     </g>
     <g id="text_14">
      <!-- 14:01:31 -->
      <g transform="translate(450.054225 500.4725)rotate(-90)scale(0.1 -0.1)">
       <use xlink:href="#DejaVuSans-49"/>
       <use x="63.623047" xlink:href="#DejaVuSans-52"/>
       <use x="127.246094" xlink:href="#DejaVuSans-58"/>
       <use x="160.9375" xlink:href="#DejaVuSans-48"/>
       <use x="224.560547" xlink:href="#DejaVuSans-49"/>
       <use x="288.183594" xlink:href="#DejaVuSans-58"/>
       <use x="321.875" xlink:href="#DejaVuSans-51"/>
       <use x="385.498047" xlink:href="#DejaVuSans-49"/>
      </g>
     </g>
    </g>
    <g id="xtick_15">
     <g id="line2d_15">
      <g>
       <use style="stroke:#000000;stroke-width:0.8;" x="471.521447" xlink:href="#mbfe19fc54c" y="448.56"/>
      </g>
     </g>
     <g id="text_15">
      <!-- 14:03:18 -->
      <g transform="translate(474.280822 500.4725)rotate(-90)scale(0.1 -0.1)">
       <use xlink:href="#DejaVuSans-49"/>
       <use x="63.623047" xlink:href="#DejaVuSans-52"/>
       <use x="127.246094" xlink:href="#DejaVuSans-58"/>
       <use x="160.9375" xlink:href="#DejaVuSans-48"/>
       <use x="224.560547" xlink:href="#DejaVuSans-51"/>
       <use x="288.183594" xlink:href="#DejaVuSans-58"/>
       <use x="321.875" xlink:href="#DejaVuSans-49"/>
       <use x="385.498047" xlink:href="#DejaVuSans-56"/>
      </g>
     </g>
    </g>
    <g id="xtick_16">
     <g id="line2d_16">
      <g>
       <use style="stroke:#000000;stroke-width:0.8;" x="495.748044" xlink:href="#mbfe19fc54c" y="448.56"/>
      </g>
     </g>
     <g id="text_16">
      <!-- 14:05:04 -->
      <g transform="translate(498.507419 500.4725)rotate(-90)scale(0.1 -0.1)">
       <use xlink:href="#DejaVuSans-49"/>
       <use x="63.623047" xlink:href="#DejaVuSans-52"/>
       <use x="127.246094" xlink:href="#DejaVuSans-58"/>
       <use x="160.9375" xlink:href="#DejaVuSans-48"/>
       <use x="224.560547" xlink:href="#DejaVuSans-53"/>
       <use x="288.183594" xlink:href="#DejaVuSans-58"/>
       <use x="321.875" xlink:href="#DejaVuSans-48"/>
       <use x="385.498047" xlink:href="#DejaVuSans-52"/>
      </g>
     </g>
    </g>
    <g id="xtick_17">
     <g id="line2d_17">
      <g>
       <use style="stroke:#000000;stroke-width:0.8;" x="519.974641" xlink:href="#mbfe19fc54c" y="448.56"/>
      </g>
     </g>
     <g id="text_17">
      <!-- 14:06:51 -->
      <g transform="translate(522.734016 500.4725)rotate(-90)scale(0.1 -0.1)">
       <use xlink:href="#DejaVuSans-49"/>
       <use x="63.623047" xlink:href="#DejaVuSans-52"/>
       <use x="127.246094" xlink:href="#DejaVuSans-58"/>
       <use x="160.9375" xlink:href="#DejaVuSans-48"/>
       <use x="224.560547" xlink:href="#DejaVuSans-54"/>
       <use x="288.183594" xlink:href="#DejaVuSans-58"/>
       <use x="321.875" xlink:href="#DejaVuSans-53"/>
       <use x="385.498047" xlink:href="#DejaVuSans-49"/>
      </g>
     </g>
    </g>
    <g id="xtick_18">
     <g id="line2d_18">
      <g>
       <use style="stroke:#000000;stroke-width:0.8;" x="544.201238" xlink:href="#mbfe19fc54c" y="448.56"/>
      </g>
     </g>
     <g id="text_18">
      <!-- 14:08:37 -->
      <g transform="translate(546.960613 500.4725)rotate(-90)scale(0.1 -0.1)">
       <use xlink:href="#DejaVuSans-49"/>
       <use x="63.623047" xlink:href="#DejaVuSans-52"/>
       <use x="127.246094" xlink:href="#DejaVuSans-58"/>
       <use x="160.9375" xlink:href="#DejaVuSans-48"/>
       <use x="224.560547" xlink:href="#DejaVuSans-56"/>
       <use x="288.183594" xlink:href="#DejaVuSans-58"/>
       <use x="321.875" xlink:href="#DejaVuSans-51"/>
       <use x="385.498047" xlink:href="#DejaVuSans-55"/>
      </g>
     </g>
    </g>
    <g id="xtick_19">
     <g id="line2d_19">
      <g>
       <use style="stroke:#000000;stroke-width:0.8;" x="568.427835" xlink:href="#mbfe19fc54c" y="448.56"/>
      </g>
     </g>
     <g id="text_19">
      <!-- 14:10:23 -->
      <g transform="translate(571.18721 500.4725)rotate(-90)scale(0.1 -0.1)">
       <use xlink:href="#DejaVuSans-49"/>
       <use x="63.623047" xlink:href="#DejaVuSans-52"/>
       <use x="127.246094" xlink:href="#DejaVuSans-58"/>
       <use x="160.9375" xlink:href="#DejaVuSans-49"/>
       <use x="224.560547" xlink:href="#DejaVuSans-48"/>
       <use x="288.183594" xlink:href="#DejaVuSans-58"/>
       <use x="321.875" xlink:href="#DejaVuSans-50"/>
       <use x="385.498047" xlink:href="#DejaVuSans-51"/>
      </g>
     </g>
    </g>
    <g id="xtick_20">
     <g id="line2d_20">
      <g>
       <use style="stroke:#000000;stroke-width:0.8;" x="592.654432" xlink:href="#mbfe19fc54c" y="448.56"/>
      </g>
     </g>
     <g id="text_20">
      <!-- 14:12:10 -->
      <g transform="translate(595.413807 500.4725)rotate(-90)scale(0.1 -0.1)">
       <use xlink:href="#DejaVuSans-49"/>
       <use x="63.623047" xlink:href="#DejaVuSans-52"/>
       <use x="127.246094" xlink:href="#DejaVuSans-58"/>
       <use x="160.9375" xlink:href="#DejaVuSans-49"/>
       <use x="224.560547" xlink:href="#DejaVuSans-50"/>
       <use x="288.183594" xlink:href="#DejaVuSans-58"/>
       <use x="321.875" xlink:href="#DejaVuSans-49"/>
       <use x="385.498047" xlink:href="#DejaVuSans-48"/>
      </g>
     </g>
    </g>
    <g id="xtick_21">
     <g id="line2d_21">
      <g>
       <use style="stroke:#000000;stroke-width:0.8;" x="616.881029" xlink:href="#mbfe19fc54c" y="448.56"/>
      </g>
     </g>
     <g id="text_21">
      <!-- 14:13:57 -->
      <g transform="translate(619.640404 500.4725)rotate(-90)scale(0.1 -0.1)">
       <use xlink:href="#DejaVuSans-49"/>
       <use x="63.623047" xlink:href="#DejaVuSans-52"/>
       <use x="127.246094" xlink:href="#DejaVuSans-58"/>
       <use x="160.9375" xlink:href="#DejaVuSans-49"/>
       <use x="224.560547" xlink:href="#DejaVuSans-51"/>
       <use x="288.183594" xlink:href="#DejaVuSans-58"/>
       <use x="321.875" xlink:href="#DejaVuSans-53"/>
       <use x="385.498047" xlink:href="#DejaVuSans-55"/>
      </g>
     </g>
    </g>
    <g id="text_22">
     <!-- timestamp -->
     <g transform="translate(354.264375 510.55125)scale(0.08 -0.08)">
      <defs>
       <path d="M 18.3125 70.21875 
L 18.3125 54.6875 
L 36.8125 54.6875 
L 36.8125 47.703125 
L 18.3125 47.703125 
L 18.3125 18.015625 
Q 18.3125 11.328125 20.140625 9.421875 
Q 21.96875 7.515625 27.59375 7.515625 
L 36.8125 7.515625 
L 36.8125 0 
L 27.59375 0 
Q 17.1875 0 13.234375 3.875 
Q 9.28125 7.765625 9.28125 18.015625 
L 9.28125 47.703125 
L 2.6875 47.703125 
L 2.6875 54.6875 
L 9.28125 54.6875 
L 9.28125 70.21875 
z
" id="DejaVuSans-116"/>
       <path d="M 9.421875 54.6875 
L 18.40625 54.6875 
L 18.40625 0 
L 9.421875 0 
z
M 9.421875 75.984375 
L 18.40625 75.984375 
L 18.40625 64.59375 
L 9.421875 64.59375 
z
" id="DejaVuSans-105"/>
       <path d="M 52 44.1875 
Q 55.375 50.25 60.0625 53.125 
Q 64.75 56 71.09375 56 
Q 79.640625 56 84.28125 50.015625 
Q 88.921875 44.046875 88.921875 33.015625 
L 88.921875 0 
L 79.890625 0 
L 79.890625 32.71875 
Q 79.890625 40.578125 77.09375 44.375 
Q 74.3125 48.1875 68.609375 48.1875 
Q 61.625 48.1875 57.5625 43.546875 
Q 53.515625 38.921875 53.515625 30.90625 
L 53.515625 0 
L 44.484375 0 
L 44.484375 32.71875 
Q 44.484375 40.625 41.703125 44.40625 
Q 38.921875 48.1875 33.109375 48.1875 
Q 26.21875 48.1875 22.15625 43.53125 
Q 18.109375 38.875 18.109375 30.90625 
L 18.109375 0 
L 9.078125 0 
L 9.078125 54.6875 
L 18.109375 54.6875 
L 18.109375 46.1875 
Q 21.1875 51.21875 25.484375 53.609375 
Q 29.78125 56 35.6875 56 
Q 41.65625 56 45.828125 52.96875 
Q 50 49.953125 52 44.1875 
z
" id="DejaVuSans-109"/>
       <path d="M 56.203125 29.59375 
L 56.203125 25.203125 
L 14.890625 25.203125 
Q 15.484375 15.921875 20.484375 11.0625 
Q 25.484375 6.203125 34.421875 6.203125 
Q 39.59375 6.203125 44.453125 7.46875 
Q 49.3125 8.734375 54.109375 11.28125 
L 54.109375 2.78125 
Q 49.265625 0.734375 44.1875 -0.34375 
Q 39.109375 -1.421875 33.890625 -1.421875 
Q 20.796875 -1.421875 13.15625 6.1875 
Q 5.515625 13.8125 5.515625 26.8125 
Q 5.515625 40.234375 12.765625 48.109375 
Q 20.015625 56 32.328125 56 
Q 43.359375 56 49.78125 48.890625 
Q 56.203125 41.796875 56.203125 29.59375 
z
M 47.21875 32.234375 
Q 47.125 39.59375 43.09375 43.984375 
Q 39.0625 48.390625 32.421875 48.390625 
Q 24.90625 48.390625 20.390625 44.140625 
Q 15.875 39.890625 15.1875 32.171875 
z
" id="DejaVuSans-101"/>
       <path d="M 44.28125 53.078125 
L 44.28125 44.578125 
Q 40.484375 46.53125 36.375 47.5 
Q 32.28125 48.484375 27.875 48.484375 
Q 21.1875 48.484375 17.84375 46.4375 
Q 14.5 44.390625 14.5 40.28125 
Q 14.5 37.15625 16.890625 35.375 
Q 19.28125 33.59375 26.515625 31.984375 
L 29.59375 31.296875 
Q 39.15625 29.25 43.1875 25.515625 
Q 47.21875 21.78125 47.21875 15.09375 
Q 47.21875 7.46875 41.1875 3.015625 
Q 35.15625 -1.421875 24.609375 -1.421875 
Q 20.21875 -1.421875 15.453125 -0.5625 
Q 10.6875 0.296875 5.421875 2 
L 5.421875 11.28125 
Q 10.40625 8.6875 15.234375 7.390625 
Q 20.0625 6.109375 24.8125 6.109375 
Q 31.15625 6.109375 34.5625 8.28125 
Q 37.984375 10.453125 37.984375 14.40625 
Q 37.984375 18.0625 35.515625 20.015625 
Q 33.0625 21.96875 24.703125 23.78125 
L 21.578125 24.515625 
Q 13.234375 26.265625 9.515625 29.90625 
Q 5.8125 33.546875 5.8125 39.890625 
Q 5.8125 47.609375 11.28125 51.796875 
Q 16.75 56 26.8125 56 
Q 31.78125 56 36.171875 55.265625 
Q 40.578125 54.546875 44.28125 53.078125 
z
" id="DejaVuSans-115"/>
       <path d="M 34.28125 27.484375 
Q 23.390625 27.484375 19.1875 25 
Q 14.984375 22.515625 14.984375 16.5 
Q 14.984375 11.71875 18.140625 8.90625 
Q 21.296875 6.109375 26.703125 6.109375 
Q 34.1875 6.109375 38.703125 11.40625 
Q 43.21875 16.703125 43.21875 25.484375 
L 43.21875 27.484375 
z
M 52.203125 31.203125 
L 52.203125 0 
L 43.21875 0 
L 43.21875 8.296875 
Q 40.140625 3.328125 35.546875 0.953125 
Q 30.953125 -1.421875 24.3125 -1.421875 
Q 15.921875 -1.421875 10.953125 3.296875 
Q 6 8.015625 6 15.921875 
Q 6 25.140625 12.171875 29.828125 
Q 18.359375 34.515625 30.609375 34.515625 
L 43.21875 34.515625 
L 43.21875 35.40625 
Q 43.21875 41.609375 39.140625 45 
Q 35.0625 48.390625 27.6875 48.390625 
Q 23 48.390625 18.546875 47.265625 
Q 14.109375 46.140625 10.015625 43.890625 
L 10.015625 52.203125 
Q 14.9375 54.109375 19.578125 55.046875 
Q 24.21875 56 28.609375 56 
Q 40.484375 56 46.34375 49.84375 
Q 52.203125 43.703125 52.203125 31.203125 
z
" id="DejaVuSans-97"/>
       <path d="M 18.109375 8.203125 
L 18.109375 -20.796875 
L 9.078125 -20.796875 
L 9.078125 54.6875 
L 18.109375 54.6875 
L 18.109375 46.390625 
Q 20.953125 51.265625 25.265625 53.625 
Q 29.59375 56 35.59375 56 
Q 45.5625 56 51.78125 48.09375 
Q 58.015625 40.1875 58.015625 27.296875 
Q 58.015625 14.40625 51.78125 6.484375 
Q 45.5625 -1.421875 35.59375 -1.421875 
Q 29.59375 -1.421875 25.265625 0.953125 
Q 20.953125 3.328125 18.109375 8.203125 
z
M 48.6875 27.296875 
Q 48.6875 37.203125 44.609375 42.84375 
Q 40.53125 48.484375 33.40625 48.484375 
Q 26.265625 48.484375 22.1875 42.84375 
Q 18.109375 37.203125 18.109375 27.296875 
Q 18.109375 17.390625 22.1875 11.75 
Q 26.265625 6.109375 33.40625 6.109375 
Q 40.53125 6.109375 44.609375 11.75 
Q 48.6875 17.390625 48.6875 27.296875 
z
" id="DejaVuSans-112"/>
      </defs>
      <use xlink:href="#DejaVuSans-116"/>
      <use x="39.208984" xlink:href="#DejaVuSans-105"/>
      <use x="66.992188" xlink:href="#DejaVuSans-109"/>
      <use x="164.404297" xlink:href="#DejaVuSans-101"/>
      <use x="225.927734" xlink:href="#DejaVuSans-115"/>
      <use x="278.027344" xlink:href="#DejaVuSans-116"/>
      <use x="317.236328" xlink:href="#DejaVuSans-97"/>
      <use x="378.515625" xlink:href="#DejaVuSans-109"/>
      <use x="475.927734" xlink:href="#DejaVuSans-112"/>
     </g>
    </g>
   </g>
   <g id="matplotlib.axis_2">
    <g id="ytick_1">
     <g id="line2d_22">
      <defs>
       <path d="M 0 0 
L -3.5 0 
" id="m2bb0adc220" style="stroke:#000000;stroke-width:0.8;"/>
      </defs>
      <g>
       <use style="stroke:#000000;stroke-width:0.8;" x="108" xlink:href="#m2bb0adc220" y="436.564327"/>
      </g>
     </g>
     <g id="text_23">
      <!-- 11250 -->
      <g transform="translate(69.1875 440.363546)scale(0.1 -0.1)">
       <use xlink:href="#DejaVuSans-49"/>
       <use x="63.623047" xlink:href="#DejaVuSans-49"/>
       <use x="127.246094" xlink:href="#DejaVuSans-50"/>
       <use x="190.869141" xlink:href="#DejaVuSans-53"/>
       <use x="254.492188" xlink:href="#DejaVuSans-48"/>
      </g>
     </g>
    </g>
    <g id="ytick_2">
     <g id="line2d_23">
      <g>
       <use style="stroke:#000000;stroke-width:0.8;" x="108" xlink:href="#m2bb0adc220" y="384.247844"/>
      </g>
     </g>
     <g id="text_24">
      <!-- 11500 -->
      <g transform="translate(69.1875 388.047063)scale(0.1 -0.1)">
       <use xlink:href="#DejaVuSans-49"/>
       <use x="63.623047" xlink:href="#DejaVuSans-49"/>
       <use x="127.246094" xlink:href="#DejaVuSans-53"/>
       <use x="190.869141" xlink:href="#DejaVuSans-48"/>
       <use x="254.492188" xlink:href="#DejaVuSans-48"/>
      </g>
     </g>
    </g>
    <g id="ytick_3">
     <g id="line2d_24">
      <g>
       <use style="stroke:#000000;stroke-width:0.8;" x="108" xlink:href="#m2bb0adc220" y="331.93136"/>
      </g>
     </g>
     <g id="text_25">
      <!-- 11750 -->
      <g transform="translate(69.1875 335.730579)scale(0.1 -0.1)">
       <use xlink:href="#DejaVuSans-49"/>
       <use x="63.623047" xlink:href="#DejaVuSans-49"/>
       <use x="127.246094" xlink:href="#DejaVuSans-55"/>
       <use x="190.869141" xlink:href="#DejaVuSans-53"/>
       <use x="254.492188" xlink:href="#DejaVuSans-48"/>
      </g>
     </g>
    </g>
    <g id="ytick_4">
     <g id="line2d_25">
      <g>
       <use style="stroke:#000000;stroke-width:0.8;" x="108" xlink:href="#m2bb0adc220" y="279.614876"/>
      </g>
     </g>
     <g id="text_26">
      <!-- 12000 -->
      <g transform="translate(69.1875 283.414095)scale(0.1 -0.1)">
       <use xlink:href="#DejaVuSans-49"/>
       <use x="63.623047" xlink:href="#DejaVuSans-50"/>
       <use x="127.246094" xlink:href="#DejaVuSans-48"/>
       <use x="190.869141" xlink:href="#DejaVuSans-48"/>
       <use x="254.492188" xlink:href="#DejaVuSans-48"/>
      </g>
     </g>
    </g>
    <g id="ytick_5">
     <g id="line2d_26">
      <g>
       <use style="stroke:#000000;stroke-width:0.8;" x="108" xlink:href="#m2bb0adc220" y="227.298393"/>
      </g>
     </g>
     <g id="text_27">
      <!-- 12250 -->
      <g transform="translate(69.1875 231.097611)scale(0.1 -0.1)">
       <use xlink:href="#DejaVuSans-49"/>
       <use x="63.623047" xlink:href="#DejaVuSans-50"/>
       <use x="127.246094" xlink:href="#DejaVuSans-50"/>
       <use x="190.869141" xlink:href="#DejaVuSans-53"/>
       <use x="254.492188" xlink:href="#DejaVuSans-48"/>
      </g>
     </g>
    </g>
    <g id="ytick_6">
     <g id="line2d_27">
      <g>
       <use style="stroke:#000000;stroke-width:0.8;" x="108" xlink:href="#m2bb0adc220" y="174.981909"/>
      </g>
     </g>
     <g id="text_28">
      <!-- 12500 -->
      <g transform="translate(69.1875 178.781128)scale(0.1 -0.1)">
       <use xlink:href="#DejaVuSans-49"/>
       <use x="63.623047" xlink:href="#DejaVuSans-50"/>
       <use x="127.246094" xlink:href="#DejaVuSans-53"/>
       <use x="190.869141" xlink:href="#DejaVuSans-48"/>
       <use x="254.492188" xlink:href="#DejaVuSans-48"/>
      </g>
     </g>
    </g>
    <g id="ytick_7">
     <g id="line2d_28">
      <g>
       <use style="stroke:#000000;stroke-width:0.8;" x="108" xlink:href="#m2bb0adc220" y="122.665425"/>
      </g>
     </g>
     <g id="text_29">
      <!-- 12750 -->
      <g transform="translate(69.1875 126.464644)scale(0.1 -0.1)">
       <use xlink:href="#DejaVuSans-49"/>
       <use x="63.623047" xlink:href="#DejaVuSans-50"/>
       <use x="127.246094" xlink:href="#DejaVuSans-55"/>
       <use x="190.869141" xlink:href="#DejaVuSans-53"/>
       <use x="254.492188" xlink:href="#DejaVuSans-48"/>
      </g>
     </g>
    </g>
    <g id="ytick_8">
     <g id="line2d_29">
      <g>
       <use style="stroke:#000000;stroke-width:0.8;" x="108" xlink:href="#m2bb0adc220" y="70.348941"/>
      </g>
     </g>
     <g id="text_30">
      <!-- 13000 -->
      <g transform="translate(69.1875 74.14816)scale(0.1 -0.1)">
       <use xlink:href="#DejaVuSans-49"/>
       <use x="63.623047" xlink:href="#DejaVuSans-51"/>
       <use x="127.246094" xlink:href="#DejaVuSans-48"/>
       <use x="190.869141" xlink:href="#DejaVuSans-48"/>
       <use x="254.492188" xlink:href="#DejaVuSans-48"/>
      </g>
     </g>
    </g>
    <g id="text_31">
     <!-- MB -->
     <g transform="translate(63.52375 260.715625)rotate(-90)scale(0.08 -0.08)">
      <defs>
       <path d="M 9.8125 72.90625 
L 24.515625 72.90625 
L 43.109375 23.296875 
L 61.8125 72.90625 
L 76.515625 72.90625 
L 76.515625 0 
L 66.890625 0 
L 66.890625 64.015625 
L 48.09375 14.015625 
L 38.1875 14.015625 
L 19.390625 64.015625 
L 19.390625 0 
L 9.8125 0 
z
" id="DejaVuSans-77"/>
       <path d="M 19.671875 34.8125 
L 19.671875 8.109375 
L 35.5 8.109375 
Q 43.453125 8.109375 47.28125 11.40625 
Q 51.125 14.703125 51.125 21.484375 
Q 51.125 28.328125 47.28125 31.5625 
Q 43.453125 34.8125 35.5 34.8125 
z
M 19.671875 64.796875 
L 19.671875 42.828125 
L 34.28125 42.828125 
Q 41.5 42.828125 45.03125 45.53125 
Q 48.578125 48.25 48.578125 53.8125 
Q 48.578125 59.328125 45.03125 62.0625 
Q 41.5 64.796875 34.28125 64.796875 
z
M 9.8125 72.90625 
L 35.015625 72.90625 
Q 46.296875 72.90625 52.390625 68.21875 
Q 58.5 63.53125 58.5 54.890625 
Q 58.5 48.1875 55.375 44.234375 
Q 52.25 40.28125 46.1875 39.3125 
Q 53.46875 37.75 57.5 32.78125 
Q 61.53125 27.828125 61.53125 20.40625 
Q 61.53125 10.640625 54.890625 5.3125 
Q 48.25 0 35.984375 0 
L 9.8125 0 
z
" id="DejaVuSans-66"/>
      </defs>
      <use xlink:href="#DejaVuSans-77"/>
      <use x="86.279297" xlink:href="#DejaVuSans-66"/>
     </g>
    </g>
   </g>
   <g id="line2d_30">
    <path clip-path="url(#p623e939674)" d="M 132.349091 79.348301 
L 132.6213 80.67346 
L 132.893509 80.623745 
L 133.165718 80.354599 
L 133.437927 79.524017 
L 133.710136 80.946891 
L 133.982345 78.817723 
L 134.254554 78.200572 
L 134.526763 78.12 
L 134.798971 78.631721 
L 135.07118 84.802367 
L 135.887807 145.70825 
L 136.432225 222.135464 
L 136.976643 269.527468 
L 137.248852 308.769659 
L 137.521061 325.114715 
L 138.065479 373.056154 
L 138.337688 386.838322 
L 138.609897 391.443806 
L 138.882106 393.955265 
L 139.154315 393.847264 
L 139.426524 393.203542 
L 139.970942 394.557844 
L 140.243151 393.422116 
L 140.51536 393.022682 
L 141.059777 398.853039 
L 141.331986 398.605322 
L 141.604195 397.011874 
L 141.876404 396.678441 
L 142.148613 397.816741 
L 142.96524 396.448724 
L 143.237449 396.568726 
L 143.509658 397.791026 
L 143.781867 400.212484 
L 144.054076 399.72305 
L 144.326285 399.829337 
L 144.598494 401.119352 
L 145.142912 397.080446 
L 146.503957 396.01329 
L 146.776165 396.400724 
L 147.048374 397.500451 
L 147.592792 397.190162 
L 147.865001 396.631298 
L 148.13721 398.249603 
L 148.409419 398.194745 
L 148.681628 397.62731 
L 148.953837 396.638155 
L 149.226046 396.579869 
L 149.498255 397.572452 
L 150.042673 396.027862 
L 150.314882 396.09472 
L 150.587091 398.307032 
L 150.8593 397.624738 
L 151.131509 397.291306 
L 151.403718 396.548154 
L 151.675927 397.279306 
L 152.220345 397.655596 
L 152.492553 396.871301 
L 152.764762 396.663012 
L 153.036971 397.556166 
L 153.30918 397.53988 
L 153.581389 397.383878 
L 153.853598 396.282436 
L 154.125807 397.365021 
L 154.670225 397.710454 
L 154.942434 397.054731 
L 155.214643 397.430165 
L 155.486852 397.555309 
L 156.03127 396.08272 
L 156.303479 396.264436 
L 156.575688 396.763299 
L 157.120106 396.273865 
L 157.392315 395.487855 
L 157.664524 395.887289 
L 157.936733 396.705013 
L 158.208942 397.063303 
L 158.48115 396.029576 
L 158.753359 396.402438 
L 159.025568 397.096732 
L 159.297777 397.329878 
L 159.569986 397.271591 
L 159.842195 396.493296 
L 160.386613 398.020743 
L 160.658822 397.788455 
L 160.931031 397.161876 
L 161.20324 397.393307 
L 161.475449 397.066732 
L 161.747658 397.153304 
L 162.019867 396.491582 
L 162.292076 396.235293 
L 162.836494 397.142161 
L 163.108703 396.73587 
L 163.380912 395.824717 
L 163.653121 396.381009 
L 163.92533 397.463594 
L 164.197538 397.142161 
L 164.469747 396.55844 
L 165.014165 398.433891 
L 165.830792 396.717013 
L 166.103001 397.582738 
L 166.37521 397.417307 
L 166.647419 396.936444 
L 166.919628 396.796728 
L 167.191837 397.179019 
L 167.464046 398.093601 
L 168.008464 397.505594 
L 168.280673 396.886729 
L 168.552882 398.360176 
L 169.0973 397.564738 
L 169.369509 400.095911 
L 169.641718 400.782491 
L 169.913927 401.870219 
L 170.186135 401.709931 
L 170.458344 400.799634 
L 170.730553 401.017351 
L 171.002762 400.857921 
L 171.54718 399.188186 
L 171.819389 399.327045 
L 172.091598 401.40907 
L 172.363807 401.474214 
L 172.636016 401.19221 
L 172.908225 400.553631 
L 173.180434 400.813349 
L 173.452643 401.395356 
L 173.724852 401.408213 
L 173.997061 401.535929 
L 174.26927 400.394201 
L 174.813688 405.170259 
L 175.085897 404.507679 
L 175.358106 404.255676 
L 175.630315 402.087078 
L 175.902524 401.892505 
L 176.174732 401.89679 
L 176.446941 400.935064 
L 176.71915 401.013922 
L 176.991359 400.854492 
L 177.263568 401.08078 
L 177.807986 400.742205 
L 178.080195 401.505928 
L 178.624613 401.732217 
L 178.896822 400.892207 
L 179.169031 401.729645 
L 179.44124 403.155948 
L 179.985658 400.926493 
L 180.257867 401.019922 
L 180.530076 402.748801 
L 181.074494 402.662228 
L 181.618912 401.046494 
L 181.89112 402.261938 
L 182.163329 402.177937 
L 182.435538 400.740491 
L 182.707747 401.19221 
L 182.979956 401.880504 
L 183.252165 401.574501 
L 183.524374 401.562501 
L 183.796583 400.995065 
L 184.068792 402.023649 
L 184.341001 401.913933 
L 184.61321 401.616501 
L 184.885419 401.121924 
L 185.157628 401.26764 
L 185.429837 402.042506 
L 185.702046 402.081935 
L 185.974255 401.129638 
L 186.246464 400.602489 
L 186.518673 401.081638 
L 186.790882 401.112495 
L 187.063091 400.892207 
L 187.3353 399.535333 
L 187.607509 399.99991 
L 187.879717 401.481071 
L 188.151926 401.498214 
L 188.424135 401.205068 
L 188.696344 400.549345 
L 188.968553 402.135936 
L 189.240762 402.054506 
L 189.512971 401.703074 
L 189.78518 400.93335 
L 190.329598 402.251652 
L 190.601807 401.552215 
L 190.874016 401.853933 
L 191.146225 404.322534 
L 191.418434 404.783683 
L 191.690643 404.393678 
L 191.962852 404.390249 
L 192.235061 401.139067 
L 192.50727 401.398784 
L 192.779479 402.998232 
L 193.051688 402.308224 
L 193.323897 400.924778 
L 193.596105 400.438773 
L 193.868314 401.727931 
L 194.140523 401.958505 
L 194.412732 401.740788 
L 194.684941 401.079066 
L 194.95715 401.745074 
L 195.229359 402.957946 
L 195.501568 402.946803 
L 195.773777 401.775932 
L 196.045986 402.076792 
L 196.318195 402.835373 
L 196.590404 402.609085 
L 196.862613 401.299354 
L 197.134822 401.288211 
L 197.407031 402.96566 
L 197.951449 403.106234 
L 198.223658 402.47794 
L 198.495867 401.093638 
L 198.768076 401.475928 
L 199.040285 401.666216 
L 199.312494 401.398784 
L 199.584702 400.879349 
L 199.856911 402.284224 
L 200.12912 402.653657 
L 200.401329 402.584227 
L 200.673538 401.494785 
L 200.945747 401.96622 
L 201.217956 402.934803 
L 201.490165 402.967375 
L 201.762374 401.392784 
L 202.034583 401.73136 
L 202.306792 402.307367 
L 202.579001 401.727074 
L 202.85121 401.739074 
L 203.123419 400.923064 
L 203.395628 401.408213 
L 203.667837 400.813349 
L 203.940046 400.749919 
L 204.212255 400.047911 
L 204.756673 402.693086 
L 205.028882 402.42994 
L 205.301091 402.381939 
L 205.573299 401.493928 
L 205.845508 402.831087 
L 206.117717 402.717943 
L 206.662135 401.358498 
L 206.934344 402.515655 
L 207.206553 403.177377 
L 207.478762 402.92366 
L 207.750971 402.114507 
L 208.02318 402.455654 
L 208.295389 401.375641 
L 208.567598 401.283069 
L 208.839807 403.657383 
L 209.112016 403.075376 
L 209.384225 405.873981 
L 209.656434 403.367665 
L 209.928643 403.203092 
L 210.200852 402.21308 
L 210.473061 402.855088 
L 211.017479 402.387939 
L 211.289687 402.262795 
L 211.561896 401.822218 
L 211.834105 403.052233 
L 212.106314 405.689694 
L 212.378523 405.337404 
L 212.650732 404.611395 
L 212.922941 403.098519 
L 213.19515 403.683098 
L 213.467359 403.437952 
L 213.739568 402.603942 
L 214.011777 402.473654 
L 214.283986 403.37538 
L 214.556195 403.372808 
L 215.100613 401.793932 
L 215.372822 402.371653 
L 215.91724 402.673371 
L 216.189449 401.4965 
L 216.461658 401.745074 
L 216.733867 403.243378 
L 217.006076 403.04109 
L 217.278284 403.214235 
L 217.550493 402.681943 
L 217.822702 403.071947 
L 218.36712 402.952803 
L 218.639329 402.243937 
L 218.911538 402.155651 
L 219.183747 403.876814 
L 219.455956 403.270807 
L 219.728165 402.329653 
L 220.000374 402.777944 
L 220.272583 402.538798 
L 220.544792 402.076792 
L 220.817001 401.959362 
L 221.08921 401.32164 
L 221.361419 401.841932 
L 221.633628 403.259664 
L 221.905837 403.42938 
L 222.178046 402.760801 
L 222.450255 402.435083 
L 222.722464 403.784242 
L 223.266881 403.223664 
L 223.53909 402.07165 
L 223.811299 403.714812 
L 224.083508 403.8871 
L 224.355717 403.384808 
L 224.627926 402.475369 
L 224.900135 402.797658 
L 225.172344 402.364796 
L 225.444553 402.305652 
L 225.716762 401.363641 
L 225.988971 401.440785 
L 226.26118 403.033376 
L 226.533389 403.106234 
L 226.805598 402.885945 
L 227.077807 402.230223 
L 227.350016 402.411082 
L 227.622225 403.071947 
L 227.894434 402.665657 
L 228.166643 401.814504 
L 228.711061 403.651383 
L 228.983269 403.461952 
L 229.255478 403.588811 
L 229.527687 402.817373 
L 229.799896 403.395094 
L 230.072105 403.416523 
L 230.616523 402.157365 
L 230.888732 402.945946 
L 231.160941 404.125389 
L 231.977568 401.889076 
L 232.249777 403.357379 
L 232.521986 403.533096 
L 232.794195 403.36338 
L 233.066404 402.629656 
L 233.338613 402.508798 
L 233.610822 403.25795 
L 233.883031 403.042804 
L 234.15524 402.117079 
L 234.427449 402.363939 
L 234.699658 403.335951 
L 234.971866 403.278521 
L 235.516284 402.902231 
L 235.788493 404.213676 
L 236.060702 404.267676 
L 236.332911 402.531084 
L 236.60512 402.400796 
L 236.877329 402.852516 
L 237.149538 403.687383 
L 237.966165 401.211068 
L 238.238374 402.846516 
L 238.510583 402.837087 
L 238.782792 402.948517 
L 239.055001 402.407654 
L 239.32721 402.503655 
L 239.599419 402.804516 
L 240.143837 402.387939 
L 240.688254 403.495381 
L 240.960463 403.580239 
L 241.232672 403.52881 
L 241.504881 403.20052 
L 241.77709 403.629954 
L 242.321508 402.044221 
L 242.593717 401.853075 
L 242.865926 405.583407 
L 243.138135 405.113687 
L 243.410344 405.330546 
L 243.682553 405.167687 
L 243.954762 402.076792 
L 244.226971 404.433107 
L 244.49918 404.177675 
L 245.043598 402.699086 
L 245.315807 402.885088 
L 245.588016 403.539096 
L 245.860225 403.608525 
L 246.132434 402.628799 
L 246.404643 403.341094 
L 246.676851 404.811111 
L 246.94906 404.404821 
L 247.493478 402.91766 
L 247.765687 403.65224 
L 248.037896 403.848528 
L 248.310105 402.180508 
L 248.582314 402.057078 
L 248.854523 403.195377 
L 249.398941 402.6828 
L 249.67115 401.799075 
L 249.943359 401.592501 
L 250.215568 403.65224 
L 250.487777 403.443952 
L 251.032195 402.337367 
L 251.576613 403.256235 
L 251.848822 403.148234 
L 252.121031 402.300509 
L 252.665448 403.908529 
L 253.209866 403.594811 
L 253.482075 402.838802 
L 253.754284 403.9051 
L 254.026493 404.119389 
L 254.570911 402.038221 
L 254.84312 402.964803 
L 255.115329 402.012506 
L 255.659747 402.003077 
L 255.931956 401.578786 
L 256.204165 404.145103 
L 256.476374 403.72167 
L 256.748583 403.690812 
L 257.020792 402.717086 
L 257.56521 403.917958 
L 258.109628 402.669943 
L 258.381836 403.434523 
L 258.654045 403.383094 
L 258.926254 403.551953 
L 259.198463 402.93566 
L 259.470672 402.608228 
L 259.742881 405.336546 
L 260.287299 403.270807 
L 260.559508 403.12852 
L 260.831717 403.521096 
L 261.103926 402.709372 
L 261.648344 402.315081 
L 261.920553 401.577929 
L 262.192762 403.122519 
L 262.464971 403.149948 
L 262.73718 403.030804 
L 263.009389 402.47194 
L 263.281598 402.909088 
L 263.553807 404.049102 
L 263.826016 404.122817 
L 264.098225 403.093376 
L 264.370433 403.294807 
L 264.642642 404.336248 
L 264.914851 404.150246 
L 265.18706 402.774515 
L 265.459269 403.011947 
L 266.003687 403.928244 
L 266.275896 403.743956 
L 266.548105 403.29395 
L 266.820314 403.530524 
L 267.092523 403.414809 
L 267.364732 403.433666 
L 267.636941 403.267378 
L 267.90915 402.606513 
L 268.181359 403.933386 
L 268.453568 404.310534 
L 268.725777 404.106531 
L 268.997986 405.951125 
L 269.542404 407.088568 
L 269.814613 406.850279 
L 270.086821 404.599395 
L 270.35903 403.938529 
L 270.631239 404.683396 
L 270.903448 404.196533 
L 271.175657 404.155389 
L 271.447866 403.579382 
L 271.720075 403.469667 
L 271.992284 404.679967 
L 272.264493 404.286534 
L 272.536702 403.595668 
L 272.808911 403.764527 
L 273.08112 405.316832 
L 273.353329 405.453119 
L 273.625538 405.198545 
L 273.897747 404.379106 
L 274.169956 404.780254 
L 274.442165 404.331106 
L 274.714374 404.319963 
L 274.986583 403.631669 
L 275.258792 404.33882 
L 275.531001 404.546251 
L 275.80321 404.418535 
L 276.075418 403.178234 
L 276.347627 403.081376 
L 276.619836 404.271962 
L 276.892045 404.199961 
L 277.164254 406.320558 
L 277.436463 405.887696 
L 277.708672 406.416559 
L 277.980881 405.429119 
L 278.797508 404.785397 
L 279.069717 404.291677 
L 279.341926 404.127103 
L 279.614135 404.128817 
L 279.886344 403.289664 
L 280.158553 404.076531 
L 280.430762 407.794862 
L 280.702971 407.523144 
L 280.97518 407.055996 
L 281.247389 404.955113 
L 281.519598 404.725396 
L 281.791806 404.760539 
L 282.064015 404.24539 
L 282.336224 403.978816 
L 282.608433 404.871112 
L 282.880642 404.565966 
L 283.42506 403.413952 
L 284.241687 405.595407 
L 284.513896 405.513977 
L 284.786105 404.947399 
L 285.058314 405.556835 
L 285.330523 405.474548 
L 285.602732 405.211402 
L 286.14715 403.98653 
L 286.419359 405.069115 
L 286.691568 405.271403 
L 286.963777 404.871969 
L 287.235986 403.675383 
L 287.508195 406.104556 
L 287.780403 406.194557 
L 288.052612 405.885982 
L 288.324821 404.258248 
L 288.59703 404.54968 
L 288.869239 405.733408 
L 289.141448 405.74798 
L 289.685866 404.451964 
L 289.958075 405.655407 
L 290.230284 405.030543 
L 290.502493 405.021114 
L 290.774702 404.241104 
L 291.046911 406.625705 
L 291.31912 406.606848 
L 291.591329 406.400274 
L 291.863538 405.179687 
L 292.135747 405.213116 
L 292.407956 405.503691 
L 292.952374 405.257688 
L 293.224583 404.006244 
L 293.496792 408.582586 
L 293.769 408.622015 
L 294.041209 412.186058 
L 294.585627 410.686897 
L 294.857836 412.009485 
L 295.402254 410.892614 
L 295.674463 411.126617 
L 295.946672 412.79978 
L 296.218881 412.312917 
L 296.49109 412.220344 
L 296.763299 411.556908 
L 297.035508 411.972627 
L 297.579926 411.839768 
L 297.852135 410.712612 
L 298.124344 410.954329 
L 298.396553 412.81778 
L 298.668762 412.904353 
L 298.940971 412.67035 
L 299.21318 411.869769 
L 299.485388 411.812339 
L 300.029806 411.39062 
L 300.302015 410.915757 
L 300.846433 413.091212 
L 301.390851 412.666064 
L 301.66306 412.020628 
L 301.935269 412.550348 
L 302.479687 412.284631 
L 302.751896 411.516621 
L 303.296314 413.451216 
L 303.568523 413.072355 
L 303.840732 411.964055 
L 304.112941 412.284631 
L 304.38515 412.885495 
L 304.929568 412.788637 
L 305.473985 411.383763 
L 305.746194 411.280047 
L 306.018403 411.440335 
L 306.290612 410.736612 
L 306.83503 412.293202 
L 307.107239 412.387489 
L 307.651657 411.64348 
L 307.923866 412.58892 
L 308.468284 412.643778 
L 308.740493 411.874054 
L 309.012702 412.564063 
L 309.284911 412.863209 
L 309.55712 412.77578 
L 309.829329 412.080628 
L 310.101538 411.692338 
L 310.373747 412.630064 
L 310.645956 412.719207 
L 310.918165 412.531491 
L 311.462582 415.324953 
L 311.734791 416.45211 
L 312.007 415.677243 
L 312.279209 412.815209 
L 312.551418 413.078355 
L 312.823627 413.107498 
L 313.095836 412.384061 
L 313.368045 412.340346 
L 313.640254 411.707767 
L 313.912463 413.207785 
L 314.184672 413.248071 
L 314.456881 413.051783 
L 314.72909 412.33006 
L 315.273508 412.865781 
L 315.545717 412.76978 
L 316.090135 411.345191 
L 316.362344 413.278071 
L 316.634553 413.268643 
L 316.906762 412.985782 
L 317.17897 411.857768 
L 317.451179 412.059199 
L 317.723388 412.876924 
L 317.995597 412.704636 
L 318.267806 411.685481 
L 318.812224 413.810364 
L 319.356642 413.380073 
L 319.628851 412.820352 
L 319.90106 413.047497 
L 320.173269 411.397477 
L 320.717687 410.806041 
L 320.989896 411.128331 
L 321.262105 412.093486 
L 321.534314 412.177487 
L 322.078732 411.340048 
L 322.350941 413.105784 
L 322.62315 413.077498 
L 322.895359 412.876924 
L 323.167567 412.018056 
L 323.439776 412.366917 
L 323.711985 413.12207 
L 324.256403 413.218928 
L 324.528612 412.546063 
L 324.800821 412.637778 
L 325.07303 412.304345 
L 325.345239 412.383203 
L 325.617448 411.590337 
L 326.161866 413.320929 
L 326.434075 413.454645 
L 326.706284 413.001211 
L 326.978493 411.256047 
L 327.250702 414.809804 
L 327.522911 415.089236 
L 327.79512 414.957235 
L 328.339538 414.008366 
L 328.611747 413.982651 
L 328.883955 413.113498 
L 329.156164 411.589479 
L 329.700582 413.698934 
L 329.972791 413.578932 
L 330.245 412.735493 
L 330.517209 412.407204 
L 331.061627 412.951496 
L 331.606045 411.50805 
L 331.878254 412.584634 
L 332.150463 414.558658 
L 332.694881 412.516919 
L 332.96709 411.921198 
L 333.239299 413.2695 
L 333.783717 412.282059 
L 334.055926 411.810625 
L 334.328135 412.733779 
L 334.872552 412.834066 
L 335.144761 412.087486 
L 335.41697 412.354917 
L 335.689179 414.039224 
L 335.961388 413.321786 
L 336.233597 413.35693 
L 336.505806 412.740636 
L 336.778015 413.614933 
L 337.322433 411.770339 
L 337.594642 411.948627 
L 337.866851 411.292904 
L 338.13906 412.103771 
L 338.411269 412.046342 
L 338.683478 411.412906 
L 338.955687 411.980341 
L 339.227896 412.930067 
L 339.500105 413.116069 
L 339.772314 413.055212 
L 340.044523 412.211773 
L 340.316732 413.541217 
L 340.58894 413.607218 
L 340.861149 413.465788 
L 341.133358 412.602635 
L 341.677776 413.432359 
L 341.949985 413.256643 
L 342.222194 411.881769 
L 342.494403 411.359762 
L 342.766612 413.005497 
L 343.038821 413.033783 
L 343.31103 412.643778 
L 343.583239 412.454347 
L 343.855448 412.864924 
L 344.127657 414.089796 
L 344.672075 412.611206 
L 344.944284 412.572634 
L 345.216493 416.072391 
L 345.488702 415.904389 
L 345.760911 416.009819 
L 346.03312 415.417526 
L 346.305329 414.33837 
L 346.577537 414.322084 
L 346.849746 414.101796 
L 347.121955 412.663493 
L 347.394164 412.057485 
L 347.666373 412.336917 
L 348.210791 411.29119 
L 348.755209 416.016676 
L 349.299627 415.891532 
L 349.571836 412.773208 
L 349.844045 412.926639 
L 350.116254 413.891793 
L 350.932881 412.516919 
L 351.20509 414.199511 
L 351.477299 414.370085 
L 351.749508 414.104367 
L 352.021717 413.440073 
L 352.293926 414.24494 
L 352.566134 413.537789 
L 352.838343 413.655219 
L 353.110552 413.172642 
L 353.382761 414.032366 
L 353.65497 413.596075 
L 353.927179 413.476931 
L 354.199388 413.506074 
L 354.471597 412.822923 
L 355.016015 413.332072 
L 355.288224 413.116069 
L 355.560433 412.356632 
L 355.832642 413.367215 
L 356.104851 415.726101 
L 356.37706 415.570099 
L 356.649269 414.166082 
L 357.465896 414.444657 
L 357.738105 414.408657 
L 358.010314 413.747791 
L 358.282522 414.421514 
L 358.554731 412.42349 
L 358.82694 412.439776 
L 359.099149 411.805482 
L 359.643567 414.181511 
L 360.187985 413.719505 
L 360.460194 412.955782 
L 360.732403 413.250643 
L 361.004612 414.823519 
L 361.276821 413.491503 
L 361.54903 412.937782 
L 361.821239 413.351787 
L 362.093448 414.394085 
L 362.365657 414.142939 
L 362.637866 414.297227 
L 362.910075 413.829221 
L 363.182284 414.048652 
L 363.454493 413.468359 
L 363.726702 413.320929 
L 363.998911 412.782637 
L 364.271119 413.452931 
L 364.543328 412.711493 
L 364.815537 412.642064 
L 365.087746 412.704636 
L 365.359955 411.603194 
L 365.632164 413.692076 
L 365.904373 413.333786 
L 366.176582 413.230071 
L 366.448791 412.530634 
L 366.993209 413.52836 
L 367.265418 413.676648 
L 367.537627 412.747494 
L 368.082045 414.157511 
L 368.354254 414.184082 
L 368.626463 414.454086 
L 368.898672 413.98008 
L 369.44309 414.500372 
L 369.987507 412.957496 
L 370.259716 413.746934 
L 370.531925 415.025807 
L 370.804134 414.724089 
L 371.076343 413.976651 
L 371.348552 412.662635 
L 371.620761 413.673219 
L 372.165179 413.708362 
L 372.437388 412.912067 
L 372.709597 413.152927 
L 372.981806 414.658088 
L 373.254015 414.460943 
L 373.526224 413.908936 
L 373.798433 413.885793 
L 374.070642 414.599802 
L 374.342851 414.289512 
L 374.61506 414.22094 
L 374.887269 413.52236 
L 375.159478 414.328084 
L 375.431687 414.273226 
L 375.703896 413.966365 
L 375.976104 413.242071 
L 376.248313 413.386073 
L 376.520522 413.106641 
L 376.792731 412.996925 
L 377.06494 412.735493 
L 377.337149 411.946055 
L 377.609358 413.487217 
L 378.153776 413.536932 
L 378.425985 412.856352 
L 378.970403 414.327227 
L 379.242612 414.178082 
L 379.514821 415.671243 
L 379.78703 416.007247 
L 380.059239 417.414693 
L 380.331448 415.107236 
L 380.603657 414.945235 
L 380.875866 414.178082 
L 381.148075 415.739816 
L 381.420284 413.792363 
L 381.692493 412.978925 
L 381.964701 412.878638 
L 382.23691 413.48636 
L 382.509119 413.655219 
L 382.781328 413.227499 
L 383.053537 413.248071 
L 383.325746 412.651492 
L 383.597955 414.130082 
L 384.142373 413.87465 
L 384.414582 413.427216 
L 384.686791 413.921794 
L 384.959 414.178939 
L 385.231209 414.07951 
L 385.503418 413.442645 
L 386.047836 414.4318 
L 386.320045 414.412942 
L 386.592254 413.940651 
L 386.864463 413.883222 
L 387.136672 414.665803 
L 387.408881 414.743803 
L 387.681089 414.4858 
L 387.953298 413.806078 
L 388.225507 414.183225 
L 388.497716 414.165225 
L 388.769925 414.000652 
L 389.314343 412.364346 
L 389.586552 413.71522 
L 389.858761 413.818935 
L 390.13097 413.610647 
L 390.403179 413.011497 
L 390.675388 413.821507 
L 390.947597 414.059795 
L 391.219806 413.949222 
L 391.492015 413.309786 
L 391.764224 413.304643 
L 392.036433 414.664945 
L 392.308642 414.607516 
L 392.580851 414.398371 
L 392.85306 413.494931 
L 393.125269 414.517515 
L 393.941895 413.708362 
L 394.214104 414.252655 
L 394.486313 415.340382 
L 394.758522 415.315525 
L 395.030731 415.439812 
L 395.575149 413.49836 
L 395.847358 414.540658 
L 396.119567 414.353799 
L 396.391776 413.483788 
L 396.663985 414.035795 
L 396.936194 415.29581 
L 397.208403 415.211809 
L 397.752821 414.146368 
L 398.02503 415.498956 
L 398.569448 414.950377 
L 398.841657 414.267226 
L 399.113866 414.916948 
L 399.386074 415.210095 
L 399.930492 413.767506 
L 400.202701 412.768922 
L 400.47491 414.841519 
L 400.747119 414.721518 
L 401.019328 414.432657 
L 401.291537 413.824935 
L 401.563746 414.620373 
L 401.835955 415.065236 
L 402.108164 414.959806 
L 402.380373 414.001509 
L 402.652582 414.568944 
L 402.924791 418.68328 
L 403.197 418.948997 
L 403.469209 418.762138 
L 403.741418 417.877556 
L 404.013627 420.233013 
L 404.285836 417.73184 
L 404.558045 416.926116 
L 404.830254 416.677541 
L 405.374671 418.572707 
L 405.919089 418.703852 
L 406.463507 418.456991 
L 407.007925 418.560707 
L 407.280134 417.365835 
L 407.552343 417.963271 
L 407.824552 418.876139 
L 408.096761 418.564136 
L 408.36897 417.500408 
L 408.641179 417.565552 
L 408.913388 421.580458 
L 409.457806 420.453301 
L 409.730015 420.221013 
L 410.002224 421.713317 
L 410.274433 422.033035 
L 410.546642 421.979891 
L 410.818851 421.60703 
L 411.09106 421.627601 
L 411.363268 422.23618 
L 411.635477 421.921605 
L 411.907686 421.82989 
L 412.179895 420.960736 
L 412.452104 422.266181 
L 412.996522 421.617316 
L 413.268731 420.726733 
L 413.54094 424.154489 
L 414.085358 422.852473 
L 414.357567 422.703329 
L 414.629776 420.137012 
L 414.901985 421.500743 
L 415.174194 421.415027 
L 415.718612 420.039296 
L 415.990821 419.795865 
L 416.26303 420.760162 
L 416.535239 420.94445 
L 417.079656 423.550196 
L 417.351865 428.385398 
L 417.624074 426.1808 
L 417.896283 425.919368 
L 418.168492 425.097358 
L 418.440701 425.741937 
L 418.71291 425.465077 
L 419.257328 424.054202 
L 419.529537 424.727925 
L 419.801746 425.878224 
L 420.346164 425.75308 
L 420.890582 424.166489 
L 421.435 423.691626 
L 421.707209 422.810473 
L 421.979418 423.02219 
L 422.251627 424.497351 
L 422.523836 424.397064 
L 422.796045 423.396766 
L 423.068253 422.859331 
L 423.340462 424.740782 
L 423.88488 424.278776 
L 424.157089 423.417337 
L 424.429298 424.918213 
L 424.701507 424.953356 
L 424.973716 424.631066 
L 425.245925 423.897343 
L 425.518134 423.773913 
L 425.790343 423.879343 
L 426.062552 423.785913 
L 426.334761 422.503612 
L 426.60697 422.527612 
L 426.879179 424.301062 
L 427.423597 424.367063 
L 427.695806 423.789342 
L 427.968015 424.049917 
L 428.512433 423.535625 
L 428.784641 422.88676 
L 429.05685 422.778758 
L 429.329059 424.187918 
L 429.873477 423.907629 
L 430.145686 423.292193 
L 430.417895 423.701912 
L 430.962313 423.456766 
L 431.234522 422.568756 
L 431.77894 424.211061 
L 432.051149 423.520196 
L 432.323358 423.679626 
L 432.595567 422.839616 
L 432.867776 424.853926 
L 433.139985 423.765342 
L 433.412194 423.685626 
L 433.684403 422.767615 
L 433.956612 423.007618 
L 434.228821 424.102203 
L 434.50103 424.061917 
L 434.773238 423.575054 
L 435.045447 423.498767 
L 435.317656 424.067917 
L 435.589865 424.175061 
L 435.862074 423.97363 
L 436.134283 423.244192 
L 436.406492 427.849677 
L 436.678701 428.600543 
L 436.95091 428.647687 
L 437.223119 427.912249 
L 437.495328 428.196824 
L 437.767537 428.171109 
L 438.039746 428.333111 
L 438.311955 428.167681 
L 438.584164 427.539388 
L 438.856373 427.414243 
L 439.128582 428.479685 
L 439.400791 428.175395 
L 439.673 426.799664 
L 439.945209 427.739961 
L 440.217418 428.094823 
L 440.489627 427.977393 
L 440.761835 427.024238 
L 441.034044 426.77395 
L 441.306253 428.602258 
L 441.850671 428.212253 
L 442.12288 427.720247 
L 442.395089 427.991107 
L 442.667298 428.828546 
L 442.939507 428.5534 
L 443.211716 428.602258 
L 443.756134 427.378243 
L 444.028343 427.385957 
L 444.572761 425.713651 
L 444.84497 426.331659 
L 445.117179 427.718533 
L 445.389388 427.568531 
L 445.661597 427.04481 
L 446.206015 427.859106 
L 446.478223 426.990809 
L 446.750432 427.160526 
L 447.022641 426.863951 
L 447.29485 428.045965 
L 447.567059 428.018536 
L 447.839268 430.92 
L 448.111477 430.265992 
L 448.383686 430.793998 
L 448.655895 428.525971 
L 448.928104 428.45997 
L 449.472522 427.3791 
L 449.744731 428.996548 
L 450.289149 428.979405 
L 450.561358 427.906249 
L 450.833567 428.433398 
L 451.105776 428.605686 
L 451.377985 428.429113 
L 451.650194 427.283956 
L 452.194612 428.022822 
L 452.46682 427.867677 
L 452.739029 427.988536 
L 453.011238 427.205955 
L 453.283447 428.84226 
L 453.555656 427.523959 
L 453.827865 427.834248 
L 454.100074 427.119382 
L 454.644492 428.614258 
L 455.18891 428.499399 
L 455.461119 427.586531 
L 455.733328 428.737688 
L 456.005537 428.558543 
L 456.277746 428.609972 
L 456.549955 427.265098 
L 456.822164 427.569388 
L 457.094373 428.690544 
L 457.366582 428.891975 
L 457.638791 427.672246 
L 457.911 428.755688 
L 458.183208 428.317683 
L 458.455417 428.437684 
L 458.999835 427.277099 
L 459.272044 428.867975 
L 459.544253 428.513114 
L 459.816462 428.687116 
L 460.088671 427.938821 
L 460.36088 427.594245 
L 460.633089 428.636544 
L 460.905298 428.291968 
L 461.177507 428.35454 
L 461.449716 427.827391 
L 461.721925 427.677389 
L 461.994134 427.846248 
L 462.538552 426.924809 
L 463.08297 428.09568 
L 463.355179 430.433137 
L 463.627388 429.866559 
L 463.899597 429.637699 
L 464.171805 430.472566 
L 464.444014 427.851391 
L 464.716223 427.85482 
L 464.988432 427.082525 
L 465.53285 428.513971 
L 465.805059 428.414541 
L 466.077268 427.53853 
L 466.349477 427.339671 
L 466.621686 428.152252 
L 467.166104 427.901963 
L 467.438313 427.339671 
L 467.710522 428.205396 
L 467.982731 428.225967 
L 468.25494 426.68652 
L 468.527149 426.675377 
L 468.799358 425.660508 
L 469.071567 426.553661 
L 469.343776 426.494518 
L 469.615985 425.985369 
L 469.888194 425.972511 
L 470.160402 427.167383 
L 470.432611 427.155383 
L 470.70482 426.900808 
L 470.977029 426.333373 
L 471.521447 427.167383 
L 471.793656 427.055953 
L 472.065865 426.131942 
L 472.338074 427.045667 
L 472.610283 426.796236 
L 473.154701 424.870212 
L 473.42691 424.175918 
L 473.699119 425.58765 
L 474.243537 425.774509 
L 474.515746 425.297932 
L 474.787955 424.365349 
L 475.060164 425.674222 
L 475.332373 425.621078 
L 475.604582 425.982797 
L 475.87679 425.207073 
L 476.421208 425.17793 
L 476.693417 425.286789 
L 476.965626 424.219633 
L 477.510044 426.389088 
L 477.782253 426.277658 
L 478.054462 425.741937 
L 478.326671 424.594209 
L 478.59888 425.169359 
L 478.871089 425.326218 
L 479.415507 423.343622 
L 479.687716 424.716782 
L 479.959925 424.859069 
L 480.232134 424.701353 
L 480.504343 424.114203 
L 480.776552 423.167906 
L 481.048761 424.499065 
L 481.593179 423.941058 
L 482.137596 426.948809 
L 482.409805 426.857094 
L 482.682014 424.595066 
L 482.954223 423.687341 
L 483.226432 424.110774 
L 483.498641 425.105929 
L 484.043059 423.226192 
L 484.315268 423.242478 
L 484.587477 424.494779 
L 484.859686 424.237633 
L 485.131895 427.185383 
L 485.404104 426.626519 
L 485.676313 427.839391 
L 485.948522 427.13224 
L 486.220731 424.368778 
L 486.49294 423.796199 
L 486.765149 424.697924 
L 487.037358 425.013357 
L 487.309567 424.625066 
L 487.581775 424.643067 
L 487.853984 423.8922 
L 488.126193 424.818783 
L 488.398402 424.342206 
L 488.670611 424.462207 
L 488.94282 423.298193 
L 489.215029 423.289622 
L 489.487238 423.718198 
L 489.759447 423.533053 
L 490.031656 423.018761 
L 490.303865 421.767317 
L 490.576074 421.889033 
L 491.120492 421.611315 
L 491.392701 420.754162 
L 491.937119 422.862759 
L 492.481537 422.682757 
L 492.753746 423.053047 
L 493.025955 421.800746 
L 493.298164 421.88989 
L 493.842581 421.000165 
L 494.386999 421.85389 
L 494.659208 422.005606 
L 494.931417 421.023308 
L 495.203626 420.872449 
L 495.475835 421.095309 
L 496.020253 420.22187 
L 496.292462 419.491575 
L 496.564671 421.128738 
L 497.109089 421.27274 
L 497.381298 420.539874 
L 497.653507 420.971879 
L 497.925716 420.152441 
L 498.197925 419.699864 
L 498.470134 419.602148 
L 498.742343 418.728709 
L 499.014552 420.373586 
L 499.558969 420.129297 
L 499.831178 418.807567 
L 500.103387 418.529849 
L 500.375596 419.410146 
L 500.920014 418.641279 
L 501.192223 418.876139 
L 501.464432 419.771007 
L 501.736641 420.016153 
L 502.00885 420.003296 
L 502.281059 419.539576 
L 502.825477 420.043582 
L 503.369895 419.203572 
L 503.642104 419.465004 
L 503.914313 420.523588 
L 504.186522 420.440444 
L 504.458731 420.507302 
L 504.73094 419.562719 
L 505.003149 422.344182 
L 505.275357 422.439326 
L 505.819775 421.211882 
L 506.364193 423.765342 
L 506.636402 423.541625 
L 506.908611 422.756472 
L 507.18082 422.567899 
L 507.453029 423.579339 
L 507.997447 422.749615 
L 508.269656 422.18218 
L 508.541865 423.797056 
L 509.358492 421.40817 
L 509.630701 421.72446 
L 509.90291 421.797318 
L 510.175119 421.006165 
L 510.447328 421.136453 
L 510.719537 420.437016 
L 510.991746 421.747603 
L 511.536163 421.24874 
L 512.080581 420.052154 
L 512.35279 421.300169 
L 512.624999 421.536743 
L 513.169417 420.173012 
L 513.441626 421.270168 
L 513.986044 421.335312 
L 514.258253 420.521874 
L 514.530462 420.377015 
L 514.802671 420.529588 
L 515.07488 419.403289 
L 515.347089 419.360431 
L 515.619298 419.607291 
L 515.891507 421.06788 
L 516.163716 423.317908 
L 516.435925 423.271621 
L 516.708134 422.681043 
L 516.980342 420.707019 
L 517.52476 420.09244 
L 517.796969 418.876997 
L 518.069178 418.552135 
L 518.341387 419.796722 
L 518.613596 419.693006 
L 518.885805 420.101869 
L 519.158014 418.709852 
L 519.430223 420.103583 
L 519.974641 419.987867 
L 520.24685 419.104142 
L 520.519059 420.078725 
L 520.791268 418.810139 
L 521.063477 418.305275 
L 521.335686 418.723566 
L 521.607895 417.937557 
L 521.880104 418.756995 
L 522.424522 418.138988 
L 522.696731 417.528694 
L 522.968939 419.86358 
L 523.241148 419.941581 
L 523.513357 419.414432 
L 523.785566 418.094416 
L 524.057775 418.816996 
L 524.329984 420.3213 
L 524.602193 419.424718 
L 524.874402 419.570434 
L 525.146611 419.044141 
L 525.41882 419.735864 
L 525.963238 418.120987 
L 526.235447 418.21956 
L 526.507656 420.083011 
L 526.779865 418.986712 
L 527.052074 418.816996 
L 527.324283 418.205846 
L 527.596492 418.169845 
L 527.868701 418.694423 
L 528.14091 418.246132 
L 528.685328 416.489825 
L 528.957536 417.580124 
L 529.229745 416.980116 
L 529.501954 416.712685 
L 529.774163 416.048391 
L 530.046372 416.685256 
L 530.318581 417.716411 
L 530.862999 417.640982 
L 531.135208 416.866972 
L 531.407417 417.455836 
L 531.679626 417.216691 
L 531.951835 417.237262 
L 532.224044 416.159821 
L 532.768462 417.74984 
L 533.040671 417.440408 
L 533.31288 416.039819 
L 533.585089 416.845543 
L 533.857298 416.472682 
L 534.129507 416.308965 
L 534.673924 415.157809 
L 534.946133 416.184678 
L 535.218342 416.201821 
L 535.490551 416.09382 
L 535.76276 415.470669 
L 536.034969 416.134963 
L 536.307178 416.010676 
L 536.579387 414.921234 
L 537.123805 414.565516 
L 537.396014 416.577254 
L 537.940432 416.290108 
L 538.212641 415.05495 
L 538.48485 414.502943 
L 538.757059 415.102094 
L 539.029268 414.946092 
L 539.301477 414.928949 
L 539.573686 414.403514 
L 539.845895 416.406681 
L 540.118104 416.188107 
L 540.390313 416.613255 
L 540.662521 415.779245 
L 540.93473 414.205511 
L 541.206939 414.837233 
L 541.479148 414.639231 
L 541.751357 413.564361 
L 542.023566 413.800935 
L 542.295775 415.055807 
L 542.567984 415.107236 
L 542.840193 414.892091 
L 543.112402 414.148082 
L 543.384611 415.868389 
L 543.65682 415.954961 
L 543.929029 415.821245 
L 544.201238 415.13638 
L 544.473447 415.563242 
L 544.745656 416.297822 
L 545.017865 416.324394 
L 545.290074 416.206107 
L 545.562283 415.374668 
L 545.834492 415.262381 
L 546.106701 418.470706 
L 546.378909 417.718125 
L 546.651118 416.460681 
L 546.923327 417.222691 
L 547.195536 418.876997 
L 547.739954 416.645827 
L 548.012163 416.09982 
L 548.284372 416.717827 
L 548.556581 416.890115 
L 548.82879 416.883258 
L 549.100999 416.209536 
L 549.373208 416.567826 
L 549.645417 417.529552 
L 549.917626 417.082118 
L 550.189835 419.223286 
L 550.462044 419.639863 
L 550.734253 419.629577 
L 551.006462 417.159261 
L 551.55088 415.869246 
L 551.823089 418.156988 
L 552.095298 417.718125 
L 552.367506 416.107534 
L 552.639715 415.40724 
L 552.911924 415.54867 
L 553.184133 416.307251 
L 553.456342 418.877854 
L 553.728551 418.532421 
L 554.00076 417.912699 
L 554.272969 419.173572 
L 554.545178 416.610683 
L 554.817387 416.318394 
L 555.089596 415.229809 
L 555.634014 414.381228 
L 555.906223 414.454086 
L 556.178432 413.718648 
L 556.72285 415.293239 
L 556.995059 415.141523 
L 557.267268 415.233238 
L 557.539477 414.722375 
L 557.811686 414.648659 
L 558.083895 414.406942 
L 558.356103 414.496943 
L 558.628312 414.076938 
L 558.900521 414.102653 
L 559.17273 415.479241 
L 559.444939 415.666958 
L 559.717148 415.563242 
L 559.989357 415.164666 
L 560.261566 415.572671 
L 560.533775 415.565813 
L 560.805984 415.384097 
L 561.078193 414.606659 
L 561.350402 414.894662 
L 561.622611 415.502384 
L 561.89482 415.376383 
L 562.167029 414.490086 
L 562.439238 414.053795 
L 562.711447 414.740375 
L 563.255865 414.4618 
L 563.800283 412.751779 
L 564.072491 413.197499 
L 564.3447 412.576063 
L 564.616909 411.376905 
L 564.889118 411.436906 
L 565.161327 412.457776 
L 565.433536 412.488633 
L 565.705745 412.069485 
L 565.977954 411.412049 
L 566.522372 412.987496 
L 566.794581 412.772351 
L 567.06679 411.946912 
L 567.338999 411.668338 
L 567.611208 412.822923 
L 567.883417 412.976353 
L 568.155626 412.860638 
L 568.427835 411.792625 
L 568.700044 412.079771 
L 569.244462 411.893769 
L 569.516671 410.596896 
L 569.78888 410.912328 
L 570.061088 411.804625 
L 570.333297 411.789196 
L 570.605506 412.023199 
L 570.877715 411.111188 
L 571.422133 411.041759 
L 571.694342 409.806601 
L 571.966551 409.976317 
L 572.23876 410.848899 
L 572.510969 411.266333 
L 572.783178 411.066616 
L 573.055387 410.70404 
L 573.327596 410.896042 
L 573.599805 412.702922 
L 573.872014 412.904353 
L 574.144223 412.528919 
L 574.416432 410.930329 
L 574.688641 412.442347 
L 575.505268 411.081188 
L 575.777476 409.972888 
L 576.049685 411.251761 
L 576.321894 410.188891 
L 576.866312 409.700314 
L 577.138521 411.171189 
L 577.41073 411.070902 
L 577.955148 409.66517 
L 578.227357 410.055175 
L 578.499566 411.268047 
L 578.771775 411.314333 
L 579.316193 410.751184 
L 579.588402 411.834625 
L 580.13282 412.005199 
L 580.405029 411.747196 
L 580.677238 411.821768 
L 580.949447 412.177487 
L 581.221656 411.831197 
L 581.493865 411.237189 
L 581.766073 410.308035 
L 582.310491 410.43318 
L 582.5827 410.084318 
L 582.854909 409.162879 
L 583.127118 410.195748 
L 583.671536 409.327452 
L 583.943745 408.30744 
L 584.215954 408.688016 
L 584.488163 412.509205 
L 584.760372 412.627492 
L 585.032581 412.008627 
L 585.30479 409.090878 
L 585.576999 410.548895 
L 585.849208 410.346607 
L 586.393626 409.052306 
L 586.665835 408.308297 
L 586.938044 409.498883 
L 587.210253 409.280309 
L 587.482462 408.778874 
L 587.75467 408.808874 
L 588.026879 409.636884 
L 588.299088 409.684028 
L 588.843506 408.016865 
L 589.115715 409.235737 
L 589.387924 409.213451 
L 589.660133 408.990591 
L 589.932342 408.375155 
L 590.204551 408.174581 
L 590.47676 408.658872 
L 590.748969 408.706016 
L 591.021178 408.49087 
L 591.293387 407.223998 
L 591.565596 411.483192 
L 592.110014 411.50205 
L 592.382223 410.765755 
L 592.654432 411.162617 
L 592.926641 411.182332 
L 593.471058 409.744028 
L 593.743267 410.153748 
L 594.015476 414.4498 
L 594.287685 414.389799 
L 594.559894 414.122367 
L 594.832103 413.515503 
L 595.104312 416.002962 
L 595.64873 415.52467 
L 595.920939 414.590373 
L 596.193148 414.456657 
L 596.465357 414.634945 
L 596.737566 414.370942 
L 597.009775 414.508944 
L 597.281984 413.854078 
L 597.554193 414.891234 
L 597.826402 415.203238 
L 598.098611 414.386371 
L 598.37082 414.01008 
L 598.643029 414.040081 
L 598.915238 414.578373 
L 599.187447 414.325513 
L 599.459655 416.002104 
L 599.731864 416.462396 
L 600.004073 416.689541 
L 600.276282 416.197535 
L 600.548491 413.537789 
L 600.8207 412.752636 
L 601.092909 414.293798 
L 601.637327 413.884079 
L 601.909536 413.329501 
L 602.181745 413.378358 
L 602.453954 411.916055 
L 602.726163 411.761767 
L 602.998372 411.000615 
L 603.270581 411.154046 
L 603.54279 413.304643 
L 603.814999 413.224928 
L 604.359417 411.826054 
L 604.631626 412.56492 
L 605.176043 412.643778 
L 605.448252 411.532907 
L 605.720461 411.572336 
L 605.99267 412.358346 
L 606.264879 412.158629 
L 606.537088 412.118343 
L 606.809297 411.139474 
L 607.081506 412.036056 
L 607.353715 411.755767 
L 607.625924 411.252618 
L 607.898133 410.379179 
L 608.170342 410.922614 
L 608.442551 409.931745 
L 608.71476 409.416596 
L 608.986969 409.396881 
L 609.259178 408.796874 
L 609.531387 411.271476 
L 610.075805 411.077759 
L 610.348014 410.338893 
L 610.620223 410.248892 
L 610.892432 410.632896 
L 611.16464 410.645754 
L 611.436849 410.230034 
L 611.709058 411.051187 
L 611.981267 411.422335 
L 612.253476 411.150617 
L 612.525685 411.081188 
L 612.797894 410.365465 
L 613.070103 411.046044 
L 613.342312 410.994615 
L 613.88673 409.29488 
L 614.431148 411.245761 
L 614.703357 411.153188 
L 614.975566 410.359465 
L 615.247775 410.596039 
L 615.519984 411.244047 
L 616.064402 410.428894 
L 616.336611 409.404596 
L 616.60882 411.034901 
L 616.881029 410.070604 
L 617.153237 409.546883 
L 617.425446 408.71973 
L 617.697655 408.310868 
L 617.969864 408.790017 
L 618.242073 408.724873 
L 618.514282 411.073473 
L 618.786491 410.640611 
L 619.0587 411.798625 
L 619.330909 408.786588 
L 619.330909 408.786588 
" style="fill:none;stroke:#1f77b4;stroke-linecap:square;stroke-width:1.5;"/>
   </g>
   <g id="patch_3">
    <path d="M 108 448.56 
L 108 60.48 
" style="fill:none;stroke:#000000;stroke-linecap:square;stroke-linejoin:miter;stroke-width:0.8;"/>
   </g>
   <g id="patch_4">
    <path d="M 643.68 448.56 
L 643.68 60.48 
" style="fill:none;stroke:#000000;stroke-linecap:square;stroke-linejoin:miter;stroke-width:0.8;"/>
   </g>
   <g id="patch_5">
    <path d="M 108 448.56 
L 643.68 448.56 
" style="fill:none;stroke:#000000;stroke-linecap:square;stroke-linejoin:miter;stroke-width:0.8;"/>
   </g>
   <g id="patch_6">
    <path d="M 108 60.48 
L 643.68 60.48 
" style="fill:none;stroke:#000000;stroke-linecap:square;stroke-linejoin:miter;stroke-width:0.8;"/>
   </g>
   <g id="text_32">
    <!-- unikernel_dce-allocpool - free -->
    <g transform="translate(265.448203 54.48)scale(0.15 -0.15)">
     <defs>
      <path d="M 8.5 21.578125 
L 8.5 54.6875 
L 17.484375 54.6875 
L 17.484375 21.921875 
Q 17.484375 14.15625 20.5 10.265625 
Q 23.53125 6.390625 29.59375 6.390625 
Q 36.859375 6.390625 41.078125 11.03125 
Q 45.3125 15.671875 45.3125 23.6875 
L 45.3125 54.6875 
L 54.296875 54.6875 
L 54.296875 0 
L 45.3125 0 
L 45.3125 8.40625 
Q 42.046875 3.421875 37.71875 1 
Q 33.40625 -1.421875 27.6875 -1.421875 
Q 18.265625 -1.421875 13.375 4.4375 
Q 8.5 10.296875 8.5 21.578125 
z
M 31.109375 56 
z
" id="DejaVuSans-117"/>
      <path d="M 54.890625 33.015625 
L 54.890625 0 
L 45.90625 0 
L 45.90625 32.71875 
Q 45.90625 40.484375 42.875 44.328125 
Q 39.84375 48.1875 33.796875 48.1875 
Q 26.515625 48.1875 22.3125 43.546875 
Q 18.109375 38.921875 18.109375 30.90625 
L 18.109375 0 
L 9.078125 0 
L 9.078125 54.6875 
L 18.109375 54.6875 
L 18.109375 46.1875 
Q 21.34375 51.125 25.703125 53.5625 
Q 30.078125 56 35.796875 56 
Q 45.21875 56 50.046875 50.171875 
Q 54.890625 44.34375 54.890625 33.015625 
z
" id="DejaVuSans-110"/>
      <path d="M 9.078125 75.984375 
L 18.109375 75.984375 
L 18.109375 31.109375 
L 44.921875 54.6875 
L 56.390625 54.6875 
L 27.390625 29.109375 
L 57.625 0 
L 45.90625 0 
L 18.109375 26.703125 
L 18.109375 0 
L 9.078125 0 
z
" id="DejaVuSans-107"/>
      <path d="M 41.109375 46.296875 
Q 39.59375 47.171875 37.8125 47.578125 
Q 36.03125 48 33.890625 48 
Q 26.265625 48 22.1875 43.046875 
Q 18.109375 38.09375 18.109375 28.8125 
L 18.109375 0 
L 9.078125 0 
L 9.078125 54.6875 
L 18.109375 54.6875 
L 18.109375 46.1875 
Q 20.953125 51.171875 25.484375 53.578125 
Q 30.03125 56 36.53125 56 
Q 37.453125 56 38.578125 55.875 
Q 39.703125 55.765625 41.0625 55.515625 
z
" id="DejaVuSans-114"/>
      <path d="M 9.421875 75.984375 
L 18.40625 75.984375 
L 18.40625 0 
L 9.421875 0 
z
" id="DejaVuSans-108"/>
      <path d="M 50.984375 -16.609375 
L 50.984375 -23.578125 
L -0.984375 -23.578125 
L -0.984375 -16.609375 
z
" id="DejaVuSans-95"/>
      <path d="M 45.40625 46.390625 
L 45.40625 75.984375 
L 54.390625 75.984375 
L 54.390625 0 
L 45.40625 0 
L 45.40625 8.203125 
Q 42.578125 3.328125 38.25 0.953125 
Q 33.9375 -1.421875 27.875 -1.421875 
Q 17.96875 -1.421875 11.734375 6.484375 
Q 5.515625 14.40625 5.515625 27.296875 
Q 5.515625 40.1875 11.734375 48.09375 
Q 17.96875 56 27.875 56 
Q 33.9375 56 38.25 53.625 
Q 42.578125 51.265625 45.40625 46.390625 
z
M 14.796875 27.296875 
Q 14.796875 17.390625 18.875 11.75 
Q 22.953125 6.109375 30.078125 6.109375 
Q 37.203125 6.109375 41.296875 11.75 
Q 45.40625 17.390625 45.40625 27.296875 
Q 45.40625 37.203125 41.296875 42.84375 
Q 37.203125 48.484375 30.078125 48.484375 
Q 22.953125 48.484375 18.875 42.84375 
Q 14.796875 37.203125 14.796875 27.296875 
z
" id="DejaVuSans-100"/>
      <path d="M 48.78125 52.59375 
L 48.78125 44.1875 
Q 44.96875 46.296875 41.140625 47.34375 
Q 37.3125 48.390625 33.40625 48.390625 
Q 24.65625 48.390625 19.8125 42.84375 
Q 14.984375 37.3125 14.984375 27.296875 
Q 14.984375 17.28125 19.8125 11.734375 
Q 24.65625 6.203125 33.40625 6.203125 
Q 37.3125 6.203125 41.140625 7.25 
Q 44.96875 8.296875 48.78125 10.40625 
L 48.78125 2.09375 
Q 45.015625 0.34375 40.984375 -0.53125 
Q 36.96875 -1.421875 32.421875 -1.421875 
Q 20.0625 -1.421875 12.78125 6.34375 
Q 5.515625 14.109375 5.515625 27.296875 
Q 5.515625 40.671875 12.859375 48.328125 
Q 20.21875 56 33.015625 56 
Q 37.15625 56 41.109375 55.140625 
Q 45.0625 54.296875 48.78125 52.59375 
z
" id="DejaVuSans-99"/>
      <path d="M 4.890625 31.390625 
L 31.203125 31.390625 
L 31.203125 23.390625 
L 4.890625 23.390625 
z
" id="DejaVuSans-45"/>
      <path d="M 30.609375 48.390625 
Q 23.390625 48.390625 19.1875 42.75 
Q 14.984375 37.109375 14.984375 27.296875 
Q 14.984375 17.484375 19.15625 11.84375 
Q 23.34375 6.203125 30.609375 6.203125 
Q 37.796875 6.203125 41.984375 11.859375 
Q 46.1875 17.53125 46.1875 27.296875 
Q 46.1875 37.015625 41.984375 42.703125 
Q 37.796875 48.390625 30.609375 48.390625 
z
M 30.609375 56 
Q 42.328125 56 49.015625 48.375 
Q 55.71875 40.765625 55.71875 27.296875 
Q 55.71875 13.875 49.015625 6.21875 
Q 42.328125 -1.421875 30.609375 -1.421875 
Q 18.84375 -1.421875 12.171875 6.21875 
Q 5.515625 13.875 5.515625 27.296875 
Q 5.515625 40.765625 12.171875 48.375 
Q 18.84375 56 30.609375 56 
z
" id="DejaVuSans-111"/>
      <path id="DejaVuSans-32"/>
      <path d="M 37.109375 75.984375 
L 37.109375 68.5 
L 28.515625 68.5 
Q 23.6875 68.5 21.796875 66.546875 
Q 19.921875 64.59375 19.921875 59.515625 
L 19.921875 54.6875 
L 34.71875 54.6875 
L 34.71875 47.703125 
L 19.921875 47.703125 
L 19.921875 0 
L 10.890625 0 
L 10.890625 47.703125 
L 2.296875 47.703125 
L 2.296875 54.6875 
L 10.890625 54.6875 
L 10.890625 58.5 
Q 10.890625 67.625 15.140625 71.796875 
Q 19.390625 75.984375 28.609375 75.984375 
z
" id="DejaVuSans-102"/>
     </defs>
     <use xlink:href="#DejaVuSans-117"/>
     <use x="63.378906" xlink:href="#DejaVuSans-110"/>
     <use x="126.757812" xlink:href="#DejaVuSans-105"/>
     <use x="154.541016" xlink:href="#DejaVuSans-107"/>
     <use x="208.826172" xlink:href="#DejaVuSans-101"/>
     <use x="270.349609" xlink:href="#DejaVuSans-114"/>
     <use x="309.712891" xlink:href="#DejaVuSans-110"/>
     <use x="373.091797" xlink:href="#DejaVuSans-101"/>
     <use x="434.615234" xlink:href="#DejaVuSans-108"/>
     <use x="462.398438" xlink:href="#DejaVuSans-95"/>
     <use x="512.398438" xlink:href="#DejaVuSans-100"/>
     <use x="575.875" xlink:href="#DejaVuSans-99"/>
     <use x="630.855469" xlink:href="#DejaVuSans-101"/>
     <use x="692.378906" xlink:href="#DejaVuSans-45"/>
     <use x="728.462891" xlink:href="#DejaVuSans-97"/>
     <use x="789.742188" xlink:href="#DejaVuSans-108"/>
     <use x="817.525391" xlink:href="#DejaVuSans-108"/>
     <use x="845.308594" xlink:href="#DejaVuSans-111"/>
     <use x="906.490234" xlink:href="#DejaVuSans-99"/>
     <use x="961.470703" xlink:href="#DejaVuSans-112"/>
     <use x="1024.947266" xlink:href="#DejaVuSans-111"/>
     <use x="1086.128906" xlink:href="#DejaVuSans-111"/>
     <use x="1147.310547" xlink:href="#DejaVuSans-108"/>
     <use x="1175.09375" xlink:href="#DejaVuSans-32"/>
     <use x="1206.880859" xlink:href="#DejaVuSans-45"/>
     <use x="1242.964844" xlink:href="#DejaVuSans-32"/>
     <use x="1274.751953" xlink:href="#DejaVuSans-102"/>
     <use x="1309.957031" xlink:href="#DejaVuSans-114"/>
     <use x="1348.820312" xlink:href="#DejaVuSans-101"/>
     <use x="1410.34375" xlink:href="#DejaVuSans-101"/>
    </g>
   </g>
   <g id="legend_1">
    <g id="patch_7">
     <path d="M 650.68 258.52 
L 654.68 258.52 
Q 656.68 258.52 656.68 256.52 
L 656.68 252.52 
Q 656.68 250.52 654.68 250.52 
L 650.68 250.52 
Q 648.68 250.52 648.68 252.52 
L 648.68 256.52 
Q 648.68 258.52 650.68 258.52 
z
" style="fill:#ffffff;opacity:0.8;stroke:#cccccc;stroke-linejoin:miter;"/>
    </g>
   </g>
  </g>
 </g>
 <defs>
  <clipPath id="p623e939674">
   <rect height="388.08" width="535.68" x="108" y="60.48"/>
  </clipPath>
 </defs>
</svg>
