<?xml version="1.0" encoding="utf-8" standalone="no"?>
<!DOCTYPE svg PUBLIC "-//W3C//DTD SVG 1.1//EN"
  "http://www.w3.org/Graphics/SVG/1.1/DTD/svg11.dtd">
<!-- Created with matplotlib (https://matplotlib.org/) -->
<svg height="504pt" version="1.1" viewBox="0 0 864 504" width="864pt" xmlns="http://www.w3.org/2000/svg" xmlns:xlink="http://www.w3.org/1999/xlink">
 <metadata>
  <rdf:RDF xmlns:cc="http://creativecommons.org/ns#" xmlns:dc="http://purl.org/dc/elements/1.1/" xmlns:rdf="http://www.w3.org/1999/02/22-rdf-syntax-ns#">
   <cc:Work>
    <dc:type rdf:resource="http://purl.org/dc/dcmitype/StillImage"/>
    <dc:date>2022-06-15T17:10:06.157161</dc:date>
    <dc:format>image/svg+xml</dc:format>
    <dc:creator>
     <cc:Agent>
      <dc:title>Matplotlib v3.3.4, https://matplotlib.org/</dc:title>
     </cc:Agent>
    </dc:creator>
   </cc:Work>
  </rdf:RDF>
 </metadata>
 <defs>
  <style type="text/css">*{stroke-linecap:butt;stroke-linejoin:round;}</style>
 </defs>
 <g id="figure_1">
  <g id="patch_1">
   <path d="M 0 504 
L 864 504 
L 864 0 
L 0 0 
z
" style="fill:#ffffff;"/>
  </g>
  <g id="axes_1">
   <g id="patch_2">
    <path d="M 108 448.56 
L 643.68 448.56 
L 643.68 60.48 
L 108 60.48 
z
" style="fill:#ffffff;"/>
   </g>
   <g id="matplotlib.axis_1">
    <g id="xtick_1">
     <g id="line2d_1">
      <defs>
       <path d="M 0 0 
L 0 3.5 
" id="m1b70b44d8b" style="stroke:#000000;stroke-width:0.8;"/>
      </defs>
      <g>
       <use style="stroke:#000000;stroke-width:0.8;" x="132.096376" xlink:href="#m1b70b44d8b" y="448.56"/>
      </g>
     </g>
     <g id="text_1">
      <!-- 0 -->
      <g transform="translate(128.915126 463.158437)scale(0.1 -0.1)">
       <defs>
        <path d="M 31.78125 66.40625 
Q 24.171875 66.40625 20.328125 58.90625 
Q 16.5 51.421875 16.5 36.375 
Q 16.5 21.390625 20.328125 13.890625 
Q 24.171875 6.390625 31.78125 6.390625 
Q 39.453125 6.390625 43.28125 13.890625 
Q 47.125 21.390625 47.125 36.375 
Q 47.125 51.421875 43.28125 58.90625 
Q 39.453125 66.40625 31.78125 66.40625 
z
M 31.78125 74.21875 
Q 44.046875 74.21875 50.515625 64.515625 
Q 56.984375 54.828125 56.984375 36.375 
Q 56.984375 17.96875 50.515625 8.265625 
Q 44.046875 -1.421875 31.78125 -1.421875 
Q 19.53125 -1.421875 13.0625 8.265625 
Q 6.59375 17.96875 6.59375 36.375 
Q 6.59375 54.828125 13.0625 64.515625 
Q 19.53125 74.21875 31.78125 74.21875 
z
" id="DejaVuSans-48"/>
       </defs>
       <use xlink:href="#DejaVuSans-48"/>
      </g>
     </g>
    </g>
    <g id="xtick_2">
     <g id="line2d_2">
      <g>
       <use style="stroke:#000000;stroke-width:0.8;" x="195.275128" xlink:href="#m1b70b44d8b" y="448.56"/>
      </g>
     </g>
     <g id="text_2">
      <!-- 250 -->
      <g transform="translate(185.731378 463.158437)scale(0.1 -0.1)">
       <defs>
        <path d="M 19.1875 8.296875 
L 53.609375 8.296875 
L 53.609375 0 
L 7.328125 0 
L 7.328125 8.296875 
Q 12.9375 14.109375 22.625 23.890625 
Q 32.328125 33.6875 34.8125 36.53125 
Q 39.546875 41.84375 41.421875 45.53125 
Q 43.3125 49.21875 43.3125 52.78125 
Q 43.3125 58.59375 39.234375 62.25 
Q 35.15625 65.921875 28.609375 65.921875 
Q 23.96875 65.921875 18.8125 64.3125 
Q 13.671875 62.703125 7.8125 59.421875 
L 7.8125 69.390625 
Q 13.765625 71.78125 18.9375 73 
Q 24.125 74.21875 28.421875 74.21875 
Q 39.75 74.21875 46.484375 68.546875 
Q 53.21875 62.890625 53.21875 53.421875 
Q 53.21875 48.921875 51.53125 44.890625 
Q 49.859375 40.875 45.40625 35.40625 
Q 44.1875 33.984375 37.640625 27.21875 
Q 31.109375 20.453125 19.1875 8.296875 
z
" id="DejaVuSans-50"/>
        <path d="M 10.796875 72.90625 
L 49.515625 72.90625 
L 49.515625 64.59375 
L 19.828125 64.59375 
L 19.828125 46.734375 
Q 21.96875 47.46875 24.109375 47.828125 
Q 26.265625 48.1875 28.421875 48.1875 
Q 40.625 48.1875 47.75 41.5 
Q 54.890625 34.8125 54.890625 23.390625 
Q 54.890625 11.625 47.5625 5.09375 
Q 40.234375 -1.421875 26.90625 -1.421875 
Q 22.3125 -1.421875 17.546875 -0.640625 
Q 12.796875 0.140625 7.71875 1.703125 
L 7.71875 11.625 
Q 12.109375 9.234375 16.796875 8.0625 
Q 21.484375 6.890625 26.703125 6.890625 
Q 35.15625 6.890625 40.078125 11.328125 
Q 45.015625 15.765625 45.015625 23.390625 
Q 45.015625 31 40.078125 35.4375 
Q 35.15625 39.890625 26.703125 39.890625 
Q 22.75 39.890625 18.8125 39.015625 
Q 14.890625 38.140625 10.796875 36.28125 
z
" id="DejaVuSans-53"/>
       </defs>
       <use xlink:href="#DejaVuSans-50"/>
       <use x="63.623047" xlink:href="#DejaVuSans-53"/>
       <use x="127.246094" xlink:href="#DejaVuSans-48"/>
      </g>
     </g>
    </g>
    <g id="xtick_3">
     <g id="line2d_3">
      <g>
       <use style="stroke:#000000;stroke-width:0.8;" x="258.453879" xlink:href="#m1b70b44d8b" y="448.56"/>
      </g>
     </g>
     <g id="text_3">
      <!-- 500 -->
      <g transform="translate(248.910129 463.158437)scale(0.1 -0.1)">
       <use xlink:href="#DejaVuSans-53"/>
       <use x="63.623047" xlink:href="#DejaVuSans-48"/>
       <use x="127.246094" xlink:href="#DejaVuSans-48"/>
      </g>
     </g>
    </g>
    <g id="xtick_4">
     <g id="line2d_4">
      <g>
       <use style="stroke:#000000;stroke-width:0.8;" x="321.632631" xlink:href="#m1b70b44d8b" y="448.56"/>
      </g>
     </g>
     <g id="text_4">
      <!-- 750 -->
      <g transform="translate(312.088881 463.158437)scale(0.1 -0.1)">
       <defs>
        <path d="M 8.203125 72.90625 
L 55.078125 72.90625 
L 55.078125 68.703125 
L 28.609375 0 
L 18.3125 0 
L 43.21875 64.59375 
L 8.203125 64.59375 
z
" id="DejaVuSans-55"/>
       </defs>
       <use xlink:href="#DejaVuSans-55"/>
       <use x="63.623047" xlink:href="#DejaVuSans-53"/>
       <use x="127.246094" xlink:href="#DejaVuSans-48"/>
      </g>
     </g>
    </g>
    <g id="xtick_5">
     <g id="line2d_5">
      <g>
       <use style="stroke:#000000;stroke-width:0.8;" x="384.811383" xlink:href="#m1b70b44d8b" y="448.56"/>
      </g>
     </g>
     <g id="text_5">
      <!-- 1000 -->
      <g transform="translate(372.086383 463.158437)scale(0.1 -0.1)">
       <defs>
        <path d="M 12.40625 8.296875 
L 28.515625 8.296875 
L 28.515625 63.921875 
L 10.984375 60.40625 
L 10.984375 69.390625 
L 28.421875 72.90625 
L 38.28125 72.90625 
L 38.28125 8.296875 
L 54.390625 8.296875 
L 54.390625 0 
L 12.40625 0 
z
" id="DejaVuSans-49"/>
       </defs>
       <use xlink:href="#DejaVuSans-49"/>
       <use x="63.623047" xlink:href="#DejaVuSans-48"/>
       <use x="127.246094" xlink:href="#DejaVuSans-48"/>
       <use x="190.869141" xlink:href="#DejaVuSans-48"/>
      </g>
     </g>
    </g>
    <g id="xtick_6">
     <g id="line2d_6">
      <g>
       <use style="stroke:#000000;stroke-width:0.8;" x="447.990134" xlink:href="#m1b70b44d8b" y="448.56"/>
      </g>
     </g>
     <g id="text_6">
      <!-- 1250 -->
      <g transform="translate(435.265134 463.158437)scale(0.1 -0.1)">
       <use xlink:href="#DejaVuSans-49"/>
       <use x="63.623047" xlink:href="#DejaVuSans-50"/>
       <use x="127.246094" xlink:href="#DejaVuSans-53"/>
       <use x="190.869141" xlink:href="#DejaVuSans-48"/>
      </g>
     </g>
    </g>
    <g id="xtick_7">
     <g id="line2d_7">
      <g>
       <use style="stroke:#000000;stroke-width:0.8;" x="511.168886" xlink:href="#m1b70b44d8b" y="448.56"/>
      </g>
     </g>
     <g id="text_7">
      <!-- 1500 -->
      <g transform="translate(498.443886 463.158437)scale(0.1 -0.1)">
       <use xlink:href="#DejaVuSans-49"/>
       <use x="63.623047" xlink:href="#DejaVuSans-53"/>
       <use x="127.246094" xlink:href="#DejaVuSans-48"/>
       <use x="190.869141" xlink:href="#DejaVuSans-48"/>
      </g>
     </g>
    </g>
    <g id="xtick_8">
     <g id="line2d_8">
      <g>
       <use style="stroke:#000000;stroke-width:0.8;" x="574.347638" xlink:href="#m1b70b44d8b" y="448.56"/>
      </g>
     </g>
     <g id="text_8">
      <!-- 1750 -->
      <g transform="translate(561.622638 463.158437)scale(0.1 -0.1)">
       <use xlink:href="#DejaVuSans-49"/>
       <use x="63.623047" xlink:href="#DejaVuSans-55"/>
       <use x="127.246094" xlink:href="#DejaVuSans-53"/>
       <use x="190.869141" xlink:href="#DejaVuSans-48"/>
      </g>
     </g>
    </g>
    <g id="xtick_9">
     <g id="line2d_9">
      <g>
       <use style="stroke:#000000;stroke-width:0.8;" x="637.52639" xlink:href="#m1b70b44d8b" y="448.56"/>
      </g>
     </g>
     <g id="text_9">
      <!-- 2000 -->
      <g transform="translate(624.80139 463.158437)scale(0.1 -0.1)">
       <use xlink:href="#DejaVuSans-50"/>
       <use x="63.623047" xlink:href="#DejaVuSans-48"/>
       <use x="127.246094" xlink:href="#DejaVuSans-48"/>
       <use x="190.869141" xlink:href="#DejaVuSans-48"/>
      </g>
     </g>
    </g>
    <g id="text_10">
     <!-- timestamp -->
     <g transform="translate(354.264375 475.316875)scale(0.08 -0.08)">
      <defs>
       <path d="M 18.3125 70.21875 
L 18.3125 54.6875 
L 36.8125 54.6875 
L 36.8125 47.703125 
L 18.3125 47.703125 
L 18.3125 18.015625 
Q 18.3125 11.328125 20.140625 9.421875 
Q 21.96875 7.515625 27.59375 7.515625 
L 36.8125 7.515625 
L 36.8125 0 
L 27.59375 0 
Q 17.1875 0 13.234375 3.875 
Q 9.28125 7.765625 9.28125 18.015625 
L 9.28125 47.703125 
L 2.6875 47.703125 
L 2.6875 54.6875 
L 9.28125 54.6875 
L 9.28125 70.21875 
z
" id="DejaVuSans-116"/>
       <path d="M 9.421875 54.6875 
L 18.40625 54.6875 
L 18.40625 0 
L 9.421875 0 
z
M 9.421875 75.984375 
L 18.40625 75.984375 
L 18.40625 64.59375 
L 9.421875 64.59375 
z
" id="DejaVuSans-105"/>
       <path d="M 52 44.1875 
Q 55.375 50.25 60.0625 53.125 
Q 64.75 56 71.09375 56 
Q 79.640625 56 84.28125 50.015625 
Q 88.921875 44.046875 88.921875 33.015625 
L 88.921875 0 
L 79.890625 0 
L 79.890625 32.71875 
Q 79.890625 40.578125 77.09375 44.375 
Q 74.3125 48.1875 68.609375 48.1875 
Q 61.625 48.1875 57.5625 43.546875 
Q 53.515625 38.921875 53.515625 30.90625 
L 53.515625 0 
L 44.484375 0 
L 44.484375 32.71875 
Q 44.484375 40.625 41.703125 44.40625 
Q 38.921875 48.1875 33.109375 48.1875 
Q 26.21875 48.1875 22.15625 43.53125 
Q 18.109375 38.875 18.109375 30.90625 
L 18.109375 0 
L 9.078125 0 
L 9.078125 54.6875 
L 18.109375 54.6875 
L 18.109375 46.1875 
Q 21.1875 51.21875 25.484375 53.609375 
Q 29.78125 56 35.6875 56 
Q 41.65625 56 45.828125 52.96875 
Q 50 49.953125 52 44.1875 
z
" id="DejaVuSans-109"/>
       <path d="M 56.203125 29.59375 
L 56.203125 25.203125 
L 14.890625 25.203125 
Q 15.484375 15.921875 20.484375 11.0625 
Q 25.484375 6.203125 34.421875 6.203125 
Q 39.59375 6.203125 44.453125 7.46875 
Q 49.3125 8.734375 54.109375 11.28125 
L 54.109375 2.78125 
Q 49.265625 0.734375 44.1875 -0.34375 
Q 39.109375 -1.421875 33.890625 -1.421875 
Q 20.796875 -1.421875 13.15625 6.1875 
Q 5.515625 13.8125 5.515625 26.8125 
Q 5.515625 40.234375 12.765625 48.109375 
Q 20.015625 56 32.328125 56 
Q 43.359375 56 49.78125 48.890625 
Q 56.203125 41.796875 56.203125 29.59375 
z
M 47.21875 32.234375 
Q 47.125 39.59375 43.09375 43.984375 
Q 39.0625 48.390625 32.421875 48.390625 
Q 24.90625 48.390625 20.390625 44.140625 
Q 15.875 39.890625 15.1875 32.171875 
z
" id="DejaVuSans-101"/>
       <path d="M 44.28125 53.078125 
L 44.28125 44.578125 
Q 40.484375 46.53125 36.375 47.5 
Q 32.28125 48.484375 27.875 48.484375 
Q 21.1875 48.484375 17.84375 46.4375 
Q 14.5 44.390625 14.5 40.28125 
Q 14.5 37.15625 16.890625 35.375 
Q 19.28125 33.59375 26.515625 31.984375 
L 29.59375 31.296875 
Q 39.15625 29.25 43.1875 25.515625 
Q 47.21875 21.78125 47.21875 15.09375 
Q 47.21875 7.46875 41.1875 3.015625 
Q 35.15625 -1.421875 24.609375 -1.421875 
Q 20.21875 -1.421875 15.453125 -0.5625 
Q 10.6875 0.296875 5.421875 2 
L 5.421875 11.28125 
Q 10.40625 8.6875 15.234375 7.390625 
Q 20.0625 6.109375 24.8125 6.109375 
Q 31.15625 6.109375 34.5625 8.28125 
Q 37.984375 10.453125 37.984375 14.40625 
Q 37.984375 18.0625 35.515625 20.015625 
Q 33.0625 21.96875 24.703125 23.78125 
L 21.578125 24.515625 
Q 13.234375 26.265625 9.515625 29.90625 
Q 5.8125 33.546875 5.8125 39.890625 
Q 5.8125 47.609375 11.28125 51.796875 
Q 16.75 56 26.8125 56 
Q 31.78125 56 36.171875 55.265625 
Q 40.578125 54.546875 44.28125 53.078125 
z
" id="DejaVuSans-115"/>
       <path d="M 34.28125 27.484375 
Q 23.390625 27.484375 19.1875 25 
Q 14.984375 22.515625 14.984375 16.5 
Q 14.984375 11.71875 18.140625 8.90625 
Q 21.296875 6.109375 26.703125 6.109375 
Q 34.1875 6.109375 38.703125 11.40625 
Q 43.21875 16.703125 43.21875 25.484375 
L 43.21875 27.484375 
z
M 52.203125 31.203125 
L 52.203125 0 
L 43.21875 0 
L 43.21875 8.296875 
Q 40.140625 3.328125 35.546875 0.953125 
Q 30.953125 -1.421875 24.3125 -1.421875 
Q 15.921875 -1.421875 10.953125 3.296875 
Q 6 8.015625 6 15.921875 
Q 6 25.140625 12.171875 29.828125 
Q 18.359375 34.515625 30.609375 34.515625 
L 43.21875 34.515625 
L 43.21875 35.40625 
Q 43.21875 41.609375 39.140625 45 
Q 35.0625 48.390625 27.6875 48.390625 
Q 23 48.390625 18.546875 47.265625 
Q 14.109375 46.140625 10.015625 43.890625 
L 10.015625 52.203125 
Q 14.9375 54.109375 19.578125 55.046875 
Q 24.21875 56 28.609375 56 
Q 40.484375 56 46.34375 49.84375 
Q 52.203125 43.703125 52.203125 31.203125 
z
" id="DejaVuSans-97"/>
       <path d="M 18.109375 8.203125 
L 18.109375 -20.796875 
L 9.078125 -20.796875 
L 9.078125 54.6875 
L 18.109375 54.6875 
L 18.109375 46.390625 
Q 20.953125 51.265625 25.265625 53.625 
Q 29.59375 56 35.59375 56 
Q 45.5625 56 51.78125 48.09375 
Q 58.015625 40.1875 58.015625 27.296875 
Q 58.015625 14.40625 51.78125 6.484375 
Q 45.5625 -1.421875 35.59375 -1.421875 
Q 29.59375 -1.421875 25.265625 0.953125 
Q 20.953125 3.328125 18.109375 8.203125 
z
M 48.6875 27.296875 
Q 48.6875 37.203125 44.609375 42.84375 
Q 40.53125 48.484375 33.40625 48.484375 
Q 26.265625 48.484375 22.1875 42.84375 
Q 18.109375 37.203125 18.109375 27.296875 
Q 18.109375 17.390625 22.1875 11.75 
Q 26.265625 6.109375 33.40625 6.109375 
Q 40.53125 6.109375 44.609375 11.75 
Q 48.6875 17.390625 48.6875 27.296875 
z
" id="DejaVuSans-112"/>
      </defs>
      <use xlink:href="#DejaVuSans-116"/>
      <use x="39.208984" xlink:href="#DejaVuSans-105"/>
      <use x="66.992188" xlink:href="#DejaVuSans-109"/>
      <use x="164.404297" xlink:href="#DejaVuSans-101"/>
      <use x="225.927734" xlink:href="#DejaVuSans-115"/>
      <use x="278.027344" xlink:href="#DejaVuSans-116"/>
      <use x="317.236328" xlink:href="#DejaVuSans-97"/>
      <use x="378.515625" xlink:href="#DejaVuSans-109"/>
      <use x="475.927734" xlink:href="#DejaVuSans-112"/>
     </g>
    </g>
   </g>
   <g id="matplotlib.axis_2">
    <g id="ytick_1">
     <g id="line2d_10">
      <defs>
       <path d="M 0 0 
L -3.5 0 
" id="mb5767a356c" style="stroke:#000000;stroke-width:0.8;"/>
      </defs>
      <g>
       <use style="stroke:#000000;stroke-width:0.8;" x="108" xlink:href="#mb5767a356c" y="402.923519"/>
      </g>
     </g>
     <g id="text_11">
      <!-- 35 -->
      <g transform="translate(88.275 406.722737)scale(0.1 -0.1)">
       <defs>
        <path d="M 40.578125 39.3125 
Q 47.65625 37.796875 51.625 33 
Q 55.609375 28.21875 55.609375 21.1875 
Q 55.609375 10.40625 48.1875 4.484375 
Q 40.765625 -1.421875 27.09375 -1.421875 
Q 22.515625 -1.421875 17.65625 -0.515625 
Q 12.796875 0.390625 7.625 2.203125 
L 7.625 11.71875 
Q 11.71875 9.328125 16.59375 8.109375 
Q 21.484375 6.890625 26.8125 6.890625 
Q 36.078125 6.890625 40.9375 10.546875 
Q 45.796875 14.203125 45.796875 21.1875 
Q 45.796875 27.640625 41.28125 31.265625 
Q 36.765625 34.90625 28.71875 34.90625 
L 20.21875 34.90625 
L 20.21875 43.015625 
L 29.109375 43.015625 
Q 36.375 43.015625 40.234375 45.921875 
Q 44.09375 48.828125 44.09375 54.296875 
Q 44.09375 59.90625 40.109375 62.90625 
Q 36.140625 65.921875 28.71875 65.921875 
Q 24.65625 65.921875 20.015625 65.03125 
Q 15.375 64.15625 9.8125 62.3125 
L 9.8125 71.09375 
Q 15.4375 72.65625 20.34375 73.4375 
Q 25.25 74.21875 29.59375 74.21875 
Q 40.828125 74.21875 47.359375 69.109375 
Q 53.90625 64.015625 53.90625 55.328125 
Q 53.90625 49.265625 50.4375 45.09375 
Q 46.96875 40.921875 40.578125 39.3125 
z
" id="DejaVuSans-51"/>
       </defs>
       <use xlink:href="#DejaVuSans-51"/>
       <use x="63.623047" xlink:href="#DejaVuSans-53"/>
      </g>
     </g>
    </g>
    <g id="ytick_2">
     <g id="line2d_11">
      <g>
       <use style="stroke:#000000;stroke-width:0.8;" x="108" xlink:href="#mb5767a356c" y="322.435432"/>
      </g>
     </g>
     <g id="text_12">
      <!-- 40 -->
      <g transform="translate(88.275 326.234651)scale(0.1 -0.1)">
       <defs>
        <path d="M 37.796875 64.3125 
L 12.890625 25.390625 
L 37.796875 25.390625 
z
M 35.203125 72.90625 
L 47.609375 72.90625 
L 47.609375 25.390625 
L 58.015625 25.390625 
L 58.015625 17.1875 
L 47.609375 17.1875 
L 47.609375 0 
L 37.796875 0 
L 37.796875 17.1875 
L 4.890625 17.1875 
L 4.890625 26.703125 
z
" id="DejaVuSans-52"/>
       </defs>
       <use xlink:href="#DejaVuSans-52"/>
       <use x="63.623047" xlink:href="#DejaVuSans-48"/>
      </g>
     </g>
    </g>
    <g id="ytick_3">
     <g id="line2d_12">
      <g>
       <use style="stroke:#000000;stroke-width:0.8;" x="108" xlink:href="#mb5767a356c" y="241.947346"/>
      </g>
     </g>
     <g id="text_13">
      <!-- 45 -->
      <g transform="translate(88.275 245.746564)scale(0.1 -0.1)">
       <use xlink:href="#DejaVuSans-52"/>
       <use x="63.623047" xlink:href="#DejaVuSans-53"/>
      </g>
     </g>
    </g>
    <g id="ytick_4">
     <g id="line2d_13">
      <g>
       <use style="stroke:#000000;stroke-width:0.8;" x="108" xlink:href="#mb5767a356c" y="161.459259"/>
      </g>
     </g>
     <g id="text_14">
      <!-- 50 -->
      <g transform="translate(88.275 165.258478)scale(0.1 -0.1)">
       <use xlink:href="#DejaVuSans-53"/>
       <use x="63.623047" xlink:href="#DejaVuSans-48"/>
      </g>
     </g>
    </g>
    <g id="ytick_5">
     <g id="line2d_14">
      <g>
       <use style="stroke:#000000;stroke-width:0.8;" x="108" xlink:href="#mb5767a356c" y="80.971173"/>
      </g>
     </g>
     <g id="text_15">
      <!-- 55 -->
      <g transform="translate(88.275 84.770392)scale(0.1 -0.1)">
       <use xlink:href="#DejaVuSans-53"/>
       <use x="63.623047" xlink:href="#DejaVuSans-53"/>
      </g>
     </g>
    </g>
    <g id="text_16">
     <!-- MB -->
     <g transform="translate(82.61125 260.715625)rotate(-90)scale(0.08 -0.08)">
      <defs>
       <path d="M 9.8125 72.90625 
L 24.515625 72.90625 
L 43.109375 23.296875 
L 61.8125 72.90625 
L 76.515625 72.90625 
L 76.515625 0 
L 66.890625 0 
L 66.890625 64.015625 
L 48.09375 14.015625 
L 38.1875 14.015625 
L 19.390625 64.015625 
L 19.390625 0 
L 9.8125 0 
z
" id="DejaVuSans-77"/>
       <path d="M 19.671875 34.8125 
L 19.671875 8.109375 
L 35.5 8.109375 
Q 43.453125 8.109375 47.28125 11.40625 
Q 51.125 14.703125 51.125 21.484375 
Q 51.125 28.328125 47.28125 31.5625 
Q 43.453125 34.8125 35.5 34.8125 
z
M 19.671875 64.796875 
L 19.671875 42.828125 
L 34.28125 42.828125 
Q 41.5 42.828125 45.03125 45.53125 
Q 48.578125 48.25 48.578125 53.8125 
Q 48.578125 59.328125 45.03125 62.0625 
Q 41.5 64.796875 34.28125 64.796875 
z
M 9.8125 72.90625 
L 35.015625 72.90625 
Q 46.296875 72.90625 52.390625 68.21875 
Q 58.5 63.53125 58.5 54.890625 
Q 58.5 48.1875 55.375 44.234375 
Q 52.25 40.28125 46.1875 39.3125 
Q 53.46875 37.75 57.5 32.78125 
Q 61.53125 27.828125 61.53125 20.40625 
Q 61.53125 10.640625 54.890625 5.3125 
Q 48.25 0 35.984375 0 
L 9.8125 0 
z
" id="DejaVuSans-66"/>
      </defs>
      <use xlink:href="#DejaVuSans-77"/>
      <use x="86.279297" xlink:href="#DejaVuSans-66"/>
     </g>
    </g>
   </g>
   <g id="line2d_15">
    <path clip-path="url(#p628358bd1f)" d="M 132.349091 430.869361 
L 132.854521 430.92 
L 133.359951 430.92 
L 135.381671 430.92 
L 135.634386 429.485236 
L 135.887101 421.39992 
L 136.392531 379.352898 
L 137.150676 277.923531 
L 138.161536 135.32488 
L 138.414251 110.883255 
L 138.666966 101.818923 
L 138.919681 98.37549 
L 139.172396 102.477227 
L 139.425111 101.802044 
L 139.677826 100.249123 
L 139.930541 99.725856 
L 140.183256 98.746841 
L 140.435971 98.746841 
L 140.688686 98.156056 
L 140.941401 98.223574 
L 141.194116 97.902862 
L 141.446831 98.426129 
L 141.699546 93.953041 
L 141.952261 98.223574 
L 142.204976 97.835344 
L 142.710406 97.632789 
L 142.963121 97.767825 
L 143.215836 97.632789 
L 143.468551 97.902862 
L 143.721266 96.198025 
L 143.973981 95.860433 
L 144.226696 96.181145 
L 144.732126 96.113627 
L 144.984841 97.801585 
L 145.237556 96.890088 
L 145.490271 96.822569 
L 145.742986 95.843554 
L 145.995701 95.843554 
L 146.248416 95.370926 
L 146.501131 95.168371 
L 146.753846 95.168371 
L 147.006561 94.442549 
L 147.259276 94.459429 
L 147.511991 94.138717 
L 147.764706 94.256874 
L 148.017421 89.969462 
L 148.270136 94.645104 
L 148.522851 95.776036 
L 148.775566 91.944372 
L 149.028281 95.776036 
L 149.280996 95.961711 
L 149.533711 93.514173 
L 150.039141 97.59903 
L 150.291856 98.274213 
L 150.544571 95.894193 
L 150.797286 97.801585 
L 151.302716 97.548391 
L 151.555431 98.274213 
L 151.808146 96.957606 
L 152.060861 97.025124 
L 152.313576 94.577586 
L 152.566291 96.687533 
L 152.819006 96.687533 
L 153.071721 92.535157 
L 153.324436 96.620014 
L 153.577151 95.674758 
L 153.829866 94.104958 
L 154.082581 93.969921 
L 154.335297 94.037439 
L 154.588012 93.244099 
L 154.840727 89.024206 
L 155.093442 93.564811 
L 155.346157 91.387346 
L 155.598872 93.429775 
L 155.851587 93.547932 
L 156.104302 93.362256 
L 156.357017 92.771471 
L 156.609732 90.8472 
L 156.862447 93.159701 
L 157.115162 91.64054 
L 157.367877 93.750487 
L 157.620592 91.708058 
L 157.873307 94.155596 
L 158.126022 93.834884 
L 158.378737 90.492729 
L 158.631452 92.940267 
L 158.884167 93.142822 
L 159.136882 91.100393 
L 159.389597 93.142822 
L 159.642312 93.075304 
L 159.895027 92.872749 
L 160.147742 90.762802 
L 160.400457 92.80523 
L 160.653172 92.872749 
L 160.905887 92.771471 
L 161.158602 92.01189 
L 161.411317 90.222655 
L 161.664032 86.0534 
L 161.916747 90.273294 
L 162.169462 90.273294 
L 162.422177 90.543367 
L 162.674892 90.543367 
L 162.927607 89.935703 
L 163.180322 90.408331 
L 163.433037 92.80523 
L 163.685752 92.80523 
L 163.938467 91.083514 
L 164.191182 93.193461 
L 164.443897 93.125942 
L 164.696612 93.514173 
L 164.949327 91.083514 
L 165.202042 93.176581 
L 165.454757 93.041544 
L 165.707472 91.184791 
L 165.960187 93.581691 
L 166.465617 93.531052 
L 167.223762 92.484518 
L 167.476477 92.889628 
L 167.729192 91.319828 
L 167.981907 93.362256 
L 168.234622 93.092183 
L 168.740052 93.142822 
L 168.992767 92.957147 
L 169.245482 93.024665 
L 169.498197 93.22722 
L 169.750912 94.138717 
L 170.003627 94.138717 
L 170.256342 94.324392 
L 170.509057 94.729502 
L 170.761772 92.754592 
L 171.014487 95.320287 
L 171.267202 95.505962 
L 171.519917 94.628224 
L 171.772632 94.830779 
L 172.025347 90.678404 
L 172.530777 93.716727 
L 172.783492 93.244099 
L 173.036207 93.446654 
L 173.794352 93.379136 
L 174.047067 90.83032 
L 174.299782 92.855869 
L 174.805212 91.826215 
L 175.057927 89.328038 
L 175.310642 89.328038 
L 175.563357 89.513713 
L 175.816072 91.674299 
L 176.068787 89.429315 
L 176.321502 91.100393 
L 176.574217 90.610886 
L 176.826932 88.703494 
L 177.079647 90.948477 
L 177.332362 91.015995 
L 177.585077 87.521923 
L 177.837792 92.146927 
L 178.090507 92.146927 
L 178.343222 91.944372 
L 178.595937 92.197566 
L 178.848652 92.248204 
L 179.101367 90.138257 
L 179.354082 92.585796 
L 179.606797 91.995011 
L 179.859512 89.682509 
L 180.112227 91.724938 
L 180.617657 91.792456 
L 180.870372 89.682509 
L 181.123087 91.792456 
L 181.375802 91.404226 
L 181.628517 91.336707 
L 181.881232 89.091724 
L 182.133947 91.404226 
L 182.386662 91.724938 
L 182.639377 91.471744 
L 182.892092 89.294279 
L 183.144807 91.336707 
L 183.650237 91.387346 
L 183.902952 91.319828 
L 184.155667 90.982236 
L 184.408382 90.982236 
L 184.661097 91.353587 
L 184.913812 91.353587 
L 185.166527 91.893733 
L 185.419242 92.163807 
L 185.671957 92.231325 
L 185.924672 92.501398 
L 186.430102 92.146927 
L 186.682817 91.944372 
L 187.188247 91.995011 
L 187.440962 91.927492 
L 187.693677 91.387346 
L 187.946392 91.319828 
L 188.199107 91.454864 
L 188.451822 91.859974 
L 188.957252 91.134152 
L 189.209967 88.754132 
L 189.462682 91.134152 
L 189.715397 91.066634 
L 189.968112 88.754132 
L 190.220827 90.931598 
L 190.473542 90.999116 
L 190.726257 89.429315 
L 190.978972 91.404226 
L 191.231688 91.404226 
L 191.484403 91.606781 
L 191.737118 91.404226 
L 191.989833 91.876854 
L 192.242548 91.741817 
L 192.495263 89.311158 
L 192.747978 91.421105 
L 193.000693 91.556142 
L 193.253408 89.564352 
L 193.506123 89.766907 
L 193.758838 91.944372 
L 194.011553 91.876854 
L 194.264268 91.539262 
L 194.516983 91.606781 
L 194.769698 91.556142 
L 195.022413 89.429315 
L 195.275128 91.606781 
L 195.527843 91.556142 
L 195.780558 91.201671 
L 196.033273 91.471744 
L 196.285988 90.813441 
L 196.538703 90.627765 
L 196.791418 90.627765 
L 197.044133 90.492729 
L 197.549563 90.42521 
L 197.802278 88.04519 
L 198.054993 90.087619 
L 198.307708 88.180227 
L 198.560423 90.42521 
L 198.813138 90.627765 
L 199.065853 90.509608 
L 199.318568 88.247745 
L 199.571283 88.247745 
L 199.823998 90.239535 
L 200.329428 90.307053 
L 200.582143 90.779681 
L 200.834858 88.669734 
L 201.087573 91.319828 
L 201.340288 90.982236 
L 201.593003 90.8472 
L 201.845718 88.737253 
L 202.098433 88.737253 
L 202.351148 90.644645 
L 203.109293 90.44209 
L 203.362008 90.509608 
L 203.614723 88.46718 
L 203.867438 90.577126 
L 204.120153 88.399661 
L 204.372868 88.332143 
L 204.625583 86.222196 
L 204.878298 90.509608 
L 205.131013 88.332143 
L 205.383728 90.695283 
L 205.889158 90.762802 
L 206.141873 90.627765 
L 206.394588 90.880959 
L 206.647303 90.813441 
L 206.900018 90.509608 
L 207.152733 89.918823 
L 207.405448 90.509608 
L 207.658163 90.509608 
L 207.910878 90.374572 
L 208.163593 90.44209 
L 208.669023 90.03698 
L 208.921738 89.699389 
L 209.427168 89.581232 
L 209.679883 89.513713 
L 209.932598 87.26873 
L 210.185313 89.378677 
L 210.438028 89.378677 
L 210.943458 88.804771 
L 211.196173 88.804771 
L 211.448888 88.939808 
L 211.701603 88.939808 
L 211.954318 89.193001 
L 212.459748 88.872289 
L 212.712463 89.074844 
L 213.217893 89.142363 
L 213.470608 89.344917 
L 214.228753 89.142363 
L 214.734183 89.868184 
L 215.239613 89.918823 
L 215.492328 91.100393 
L 215.745043 88.85541 
L 215.997758 91.032875 
L 216.503188 90.762802 
L 216.755903 90.83032 
L 217.261333 90.560247 
L 217.514048 90.627765 
L 217.766763 90.42521 
L 218.524908 90.560247 
L 219.788483 90.627765 
L 220.041198 88.315263 
L 220.293913 90.44209 
L 220.799343 90.492729 
L 221.052058 88.382782 
L 221.304773 91.083514 
L 221.557488 88.990446 
L 221.810203 91.573021 
L 222.062918 90.982236 
L 222.315633 90.779681 
L 222.568348 91.184791 
L 223.326493 90.982236 
L 223.579208 91.117273 
L 223.831923 87.927033 
L 224.084638 89.63187 
L 224.337353 89.564352 
L 224.842783 89.952582 
L 225.095498 89.952582 
L 225.600928 89.766907 
L 225.853643 85.479495 
L 226.106358 89.699389 
L 226.359073 89.969462 
L 226.611788 87.977672 
L 226.864503 90.03698 
L 227.117218 90.172017 
L 227.369933 87.724478 
L 227.622648 89.682509 
L 227.875363 89.564352 
L 228.128079 89.885064 
L 228.380794 87.910154 
L 228.633509 90.340812 
L 228.886224 87.910154 
L 229.138939 89.868184 
L 229.644369 90.458969 
L 229.897084 90.914718 
L 230.149799 91.134152 
L 230.402514 91.184791 
L 230.655229 91.117273 
L 230.907944 90.8472 
L 231.666089 90.897838 
L 231.918804 88.602216 
L 232.171519 90.712163 
L 232.424234 88.602216 
L 232.676949 88.652855 
L 232.929664 90.83032 
L 233.182379 90.695283 
L 233.435094 90.948477 
L 233.687809 90.948477 
L 233.940524 90.695283 
L 234.193239 88.990446 
L 234.445954 91.23543 
L 234.698669 91.117273 
L 234.951384 88.939808 
L 235.204099 91.522383 
L 235.456814 91.387346 
L 235.709529 91.589901 
L 235.962244 91.454864 
L 236.214959 91.724938 
L 236.467674 91.792456 
L 236.973104 90.475849 
L 237.225819 90.931598 
L 237.731249 90.864079 
L 237.983964 90.864079 
L 238.489394 90.458969 
L 238.742109 88.298384 
L 238.994824 90.340812 
L 239.247539 87.572562 
L 239.500254 89.429315 
L 239.752969 89.361797 
L 240.005684 87.184332 
L 240.258399 89.361797 
L 240.511114 87.370007 
L 240.763829 89.479954 
L 241.016544 84.989987 
L 241.269259 84.736793 
L 241.521974 89.007326 
L 241.774689 89.074844 
L 242.027404 89.277399 
L 242.280119 89.209881 
L 242.532834 89.277399 
L 242.785549 86.509149 
L 243.038264 88.281504 
L 243.290979 88.416541 
L 243.543694 86.45851 
L 243.796409 86.45851 
L 244.049124 88.4503 
L 244.301839 88.247745 
L 244.554554 88.365902 
L 244.807269 88.281504 
L 245.059984 88.078949 
L 245.565414 88.146468 
L 245.818129 86.036521 
L 246.070844 85.901484 
L 246.323559 85.580772 
L 246.576274 83.774658 
L 247.081704 87.960792 
L 247.587134 87.893274 
L 247.839849 87.690719 
L 248.092564 87.690719 
L 248.345279 87.960792 
L 248.597994 85.698929 
L 248.850709 88.078949 
L 249.103424 88.078949 
L 249.608854 87.420646 
L 249.861569 87.758237 
L 250.114284 88.399661 
L 250.366999 88.534698 
L 250.619714 89.074844 
L 250.872429 88.804771 
L 251.125144 88.737253 
L 251.377859 88.939808 
L 251.883289 88.804771 
L 252.388719 89.193001 
L 252.641434 89.125483 
L 253.146864 88.872289 
L 253.399579 88.804771 
L 253.905009 88.922928 
L 254.157724 89.007326 
L 254.410439 88.737253 
L 254.663154 86.559788 
L 254.915869 88.737253 
L 255.421299 88.804771 
L 255.674014 88.85541 
L 256.179444 88.602216 
L 256.432159 88.669734 
L 256.684874 86.542908 
L 256.937589 88.787891 
L 257.190304 89.125483 
L 257.443019 88.922928 
L 257.695734 86.931138 
L 258.201164 86.812981 
L 258.453879 89.057965 
L 258.706594 89.125483 
L 259.464739 88.619096 
L 259.717454 88.737253 
L 260.728314 88.416541 
L 260.981029 88.146468 
L 261.233744 86.239076 
L 261.486459 88.399661 
L 261.739174 88.399661 
L 261.991889 88.787891 
L 262.497319 88.652855 
L 262.750034 89.193001 
L 263.002749 89.26052 
L 263.255464 89.193001 
L 263.508179 88.889169 
L 263.760894 88.771012 
L 264.013609 87.032416 
L 264.266324 89.209881 
L 264.519039 89.344917 
L 264.771754 87.234971 
L 265.02447 87.353128 
L 265.277185 87.015536 
L 265.5299 89.024206 
L 266.03533 88.85541 
L 266.288045 84.635516 
L 266.54076 88.787891 
L 266.793475 87.775117 
L 267.04619 87.910154 
L 267.298905 87.910154 
L 267.804335 87.555683 
L 268.05705 87.741358 
L 268.309765 87.623201 
L 269.06791 87.960792 
L 269.57334 87.758237 
L 269.826055 87.825756 
L 270.07877 85.715809 
L 270.331485 87.842635 
L 270.5842 85.867725 
L 270.836915 87.960792 
L 271.08963 85.850845 
L 271.342345 88.213986 
L 271.59506 88.46718 
L 271.847775 86.171557 
L 272.10049 88.365902 
L 272.858635 88.534698 
L 273.11135 88.484059 
L 273.364065 88.821651 
L 273.61678 86.576667 
L 273.869495 88.686614 
L 274.12221 88.754132 
L 274.880355 88.332143 
L 275.385785 88.399661 
L 276.14393 88.332143 
L 276.396645 87.606321 
L 276.64936 87.724478 
L 276.902075 87.471285 
L 277.407505 87.471285 
L 277.66022 87.606321 
L 278.16565 87.26873 
L 278.418365 86.07028 
L 278.67108 88.180227 
L 278.923795 88.399661 
L 279.17651 86.357233 
L 279.429225 88.46718 
L 279.68194 88.922928 
L 279.934655 86.812981 
L 280.18737 88.399661 
L 280.6928 88.399661 
L 281.19823 88.011431 
L 281.70366 87.808876 
L 281.956375 87.808876 
L 282.20909 87.943913 
L 282.461805 85.833966 
L 282.71452 88.197106 
L 282.967235 88.399661 
L 283.21995 86.357233 
L 283.472665 88.534698 
L 283.72538 88.46718 
L 283.978095 88.85541 
L 284.23081 88.85541 
L 284.483525 89.041085 
L 284.73624 88.973567 
L 284.988955 89.108603 
L 285.24167 88.973567 
L 285.494385 88.652855 
L 285.999815 88.922928 
L 286.25253 86.998657 
L 286.505245 86.931138 
L 286.75796 89.057965 
L 287.010675 88.349023 
L 287.26339 88.095829 
L 287.516105 88.365902 
L 287.76882 88.365902 
L 288.021535 88.500939 
L 288.27425 88.500939 
L 289.032395 87.370007 
L 289.537825 87.319368 
L 289.79054 87.049295 
L 290.043255 86.610426 
L 290.29597 86.47539 
L 290.548685 86.47539 
L 291.054115 86.998657 
L 291.30683 87.927033 
L 291.559545 87.116814 
L 291.81226 86.981777 
L 292.31769 87.302489 
L 292.570405 87.471285 
L 292.82312 87.471285 
L 293.075835 87.724478 
L 294.086695 87.724478 
L 294.33941 87.859515 
L 294.592125 87.859515 
L 294.84484 88.247745 
L 295.097555 88.382782 
L 295.602985 88.4503 
L 295.8557 88.568457 
L 296.108415 89.041085 
L 297.119275 89.108603 
L 297.624705 88.315263 
L 297.87742 85.952123 
L 298.130135 87.859515 
L 298.635565 87.724478 
L 298.88828 85.614531 
L 299.140995 87.65696 
L 299.39371 87.032416 
L 299.646425 85.496374 
L 299.89914 84.922469 
L 300.151855 85.68205 
L 300.40457 85.952123 
L 300.91 87.150573 
L 301.162715 87.150573 
L 301.41543 85.040626 
L 301.668145 86.407871 
L 301.92086 86.492269 
L 302.173576 86.087159 
L 302.426291 87.184332 
L 302.679006 85.732688 
L 302.931721 87.775117 
L 303.942581 86.610426 
L 304.953441 86.880499 
L 305.206156 86.880499 
L 305.458871 84.821191 
L 305.711586 87.133693 
L 305.964301 87.538803 
L 306.217016 87.353128 
L 306.722446 87.791997 
L 306.975161 87.927033 
L 307.227876 86.087159 
L 307.480591 87.808876 
L 307.733306 87.437525 
L 307.986021 87.64008 
L 308.238736 87.64008 
L 308.744166 88.011431 
L 308.996881 87.943913 
L 309.249596 88.298384 
L 309.502311 86.239076 
L 309.755026 88.349023 
L 310.007741 87.960792 
L 310.260456 83.656501 
L 310.513171 87.572562 
L 310.765886 85.26006 
L 311.018601 87.437525 
L 311.271316 87.302489 
L 312.029461 87.302489 
L 312.282176 85.192542 
L 312.534891 87.234971 
L 312.787606 87.471285 
L 313.040321 87.471285 
L 313.293036 85.563893 
L 313.545751 87.623201 
L 313.798466 87.876394 
L 314.051181 87.505044 
L 314.303896 85.26006 
L 314.809326 88.349023 
L 315.062041 86.84674 
L 315.314756 86.661065 
L 315.567471 86.661065 
L 315.820186 88.43342 
L 316.072901 85.732688 
L 316.325616 87.893274 
L 316.578331 87.808876 
L 316.831046 87.943913 
L 317.336476 87.943913 
L 317.589191 87.808876 
L 317.841906 87.808876 
L 318.347336 87.420646 
L 318.600051 84.787432 
L 318.852766 86.829861 
L 319.105481 86.762342 
L 319.358196 86.829861 
L 319.610911 86.762342 
L 320.116341 86.897379 
L 320.369056 86.171557 
L 320.621771 86.374112 
L 320.874486 86.374112 
L 321.127201 85.833966 
L 321.379916 85.833966 
L 321.885346 86.509149 
L 322.138061 86.239076 
L 322.390776 86.137798 
L 323.148921 86.526028 
L 323.401636 87.454405 
L 323.654351 87.184332 
L 323.907066 85.074385 
L 324.159781 87.302489 
L 324.412496 87.370007 
L 325.423356 87.099934 
L 325.928786 87.437525 
L 326.181501 87.370007 
L 326.434216 87.099934 
L 326.686931 87.505044 
L 326.939646 87.370007 
L 327.445076 87.302489 
L 327.697791 85.074385 
L 327.950506 87.133693 
L 328.203221 87.133693 
L 328.455936 87.758237 
L 328.708651 87.234971 
L 328.961366 87.049295 
L 329.214081 85.074385 
L 329.466796 86.779222 
L 329.719511 86.897379 
L 329.972226 86.762342 
L 330.224941 86.762342 
L 330.477656 85.243181 
L 330.730371 87.099934 
L 330.983086 87.167452 
L 331.235801 84.517359 
L 331.488516 87.015536 
L 331.741231 86.84674 
L 331.993946 86.84674 
L 332.246661 86.677945 
L 332.752091 86.745463 
L 333.004806 87.066175 
L 333.257521 84.956228 
L 333.510236 86.84674 
L 333.762951 85.496374 
L 334.015666 85.749568 
L 334.268381 83.504584 
L 334.521096 85.800207 
L 335.026526 86.407871 
L 335.279241 86.357233 
L 335.531956 85.614531 
L 335.784671 83.437066 
L 336.037386 85.68205 
L 336.290101 83.420187 
L 336.542816 86.222196 
L 336.795531 86.154678 
L 337.048246 84.044731 
L 337.300961 86.205316 
L 337.553676 86.205316 
L 337.806391 84.500479 
L 338.059106 86.610426 
L 338.311821 86.745463 
L 338.817251 86.812981 
L 339.069967 86.610426 
L 339.322682 84.297925 
L 339.575397 86.154678 
L 339.828112 86.357233 
L 340.333542 86.424751 
L 340.586257 86.542908 
L 340.838972 86.948018 
L 341.091687 86.644185 
L 341.344402 86.711704 
L 341.597117 84.989987 
L 341.849832 87.302489 
L 342.102547 85.918364 
L 342.355262 88.028311 
L 342.607977 87.707599 
L 342.860692 88.213986 
L 343.113407 87.943913 
L 343.618837 87.943913 
L 343.871552 88.197106 
L 344.124267 86.036521 
L 344.376982 87.741358 
L 344.629697 87.572562 
L 344.882412 87.758237 
L 345.135127 85.580772 
L 345.640557 85.580772 
L 345.893272 87.302489 
L 346.145987 87.25185 
L 346.398702 85.27694 
L 346.651417 87.437525 
L 346.904132 87.454405 
L 347.156847 85.411976 
L 347.409562 87.386887 
L 347.914992 87.454405 
L 348.167707 83.031956 
L 348.420422 87.234971 
L 348.673137 87.25185 
L 348.925852 85.141903 
L 349.178567 85.141903 
L 349.431282 85.378217 
L 349.683997 87.876394 
L 349.936712 87.876394 
L 350.442142 88.213986 
L 350.694857 83.926574 
L 350.947572 88.197106 
L 351.200287 88.332143 
L 351.453002 88.078949 
L 351.705717 88.197106 
L 351.958432 88.06207 
L 352.211147 87.690719 
L 352.969292 87.943913 
L 353.222007 87.876394 
L 353.474722 85.766448 
L 353.727437 88.213986 
L 353.980152 88.078949 
L 354.232867 88.078949 
L 354.991012 88.399661 
L 355.243727 88.264625 
L 355.496442 86.154678 
L 355.749157 88.46718 
L 356.001872 88.06207 
L 356.254587 88.129588 
L 356.507302 88.06207 
L 356.760017 88.4503 
L 357.012732 86.205316 
L 357.265447 88.264625 
L 357.518162 88.399661 
L 357.770877 86.104039 
L 358.023592 88.129588 
L 358.276307 86.154678 
L 358.529022 88.197106 
L 359.034452 88.129588 
L 359.539882 88.180227 
L 359.792597 87.994551 
L 360.298027 88.06207 
L 360.803457 88.4503 
L 361.056172 88.112708 
L 361.561602 88.04519 
L 362.067032 88.112708 
L 362.572462 88.517818 
L 363.077892 88.129588 
L 363.836037 88.197106 
L 364.088752 86.087159 
L 364.341467 85.952123 
L 364.594182 88.06207 
L 365.099612 87.927033 
L 365.605042 88.349023 
L 365.857757 88.281504 
L 366.110472 86.374112 
L 366.363187 88.281504 
L 366.868617 88.349023 
L 367.121332 88.484059 
L 367.374047 88.349023 
L 367.626762 88.078949 
L 367.879477 85.901484 
L 368.132192 86.036521 
L 368.384907 88.078949 
L 368.637622 87.893274 
L 368.890337 88.028311 
L 369.143052 87.623201 
L 369.395767 87.690719 
L 369.901197 87.960792 
L 370.153912 87.960792 
L 370.406627 88.095829 
L 370.659342 88.095829 
L 370.912057 87.825756 
L 371.164772 87.893274 
L 371.417487 83.605862 
L 371.670202 87.960792 
L 371.922917 87.960792 
L 372.428347 87.167452 
L 372.681062 87.234971 
L 372.933777 87.032416 
L 373.186492 80.820732 
L 373.439207 85.243181 
L 373.691922 87.285609 
L 373.944637 87.099934 
L 374.197352 84.989987 
L 374.450067 87.099934 
L 374.702782 84.989987 
L 374.955497 84.652396 
L 375.208212 86.779222 
L 375.460927 86.779222 
L 375.713642 86.576667 
L 375.966358 86.526028 
L 376.219073 86.255955 
L 376.471788 86.323474 
L 376.724503 84.06161 
L 376.977218 86.627306 
L 377.229933 86.711704 
L 377.482648 86.627306 
L 377.988078 86.154678 
L 378.240793 86.357233 
L 378.493508 86.171557 
L 378.746223 86.627306 
L 378.998938 86.492269 
L 379.757083 86.407871 
L 380.515228 86.357233 
L 380.767943 86.407871 
L 381.020658 86.931138 
L 381.273373 86.931138 
L 381.526088 86.728583 
L 381.778803 86.677945 
L 382.031518 86.880499 
L 382.284233 86.812981 
L 383.295093 87.015536 
L 383.547808 84.838071 
L 383.800523 87.285609 
L 384.305953 87.606321 
L 385.316813 88.990446 
L 385.822243 88.922928 
L 386.074958 86.812981 
L 386.327673 86.492269 
L 386.580388 88.399661 
L 386.833103 88.399661 
L 387.085818 86.357233 
L 387.338533 88.46718 
L 387.591248 88.46718 
L 387.843963 88.315263 
L 388.096678 86.019641 
L 388.349393 88.06207 
L 388.602108 88.247745 
L 388.854823 88.247745 
L 389.360253 88.399661 
L 389.612968 88.332143 
L 389.865683 86.829861 
L 390.118398 89.125483 
L 390.371113 89.328038 
L 390.623828 89.378677 
L 390.876543 89.24364 
L 391.381973 89.26052 
L 391.634688 89.125483 
L 392.140118 89.24364 
L 392.392833 89.328038 
L 392.645548 87.623201 
L 392.898263 89.598111 
L 393.150978 89.463074 
L 393.403693 82.930679 
L 393.656408 89.311158 
L 393.909123 88.939808 
L 394.161838 86.627306 
L 394.414553 88.85541 
L 395.172698 88.906049 
L 395.425413 88.585337 
L 395.678128 88.669734 
L 395.930843 86.424751 
L 396.183558 88.534698 
L 396.688988 88.85541 
L 396.941703 88.787891 
L 397.447133 88.332143 
L 397.699848 86.272835 
L 397.952563 88.315263 
L 398.457993 88.4503 
L 398.710708 86.222196 
L 398.963423 88.517818 
L 399.216138 88.4503 
L 399.468853 88.703494 
L 399.721568 88.635975 
L 399.974283 88.416541 
L 400.226998 87.859515 
L 400.732428 87.859515 
L 400.985143 85.935243 
L 401.237858 88.247745 
L 401.490573 88.315263 
L 401.743288 88.06207 
L 402.248718 87.336248 
L 402.501433 87.218091 
L 402.754148 87.26873 
L 403.006863 87.066175 
L 403.259578 86.559788 
L 403.512293 86.492269 
L 403.765008 86.559788 
L 404.017723 84.281045 
L 404.270438 86.255955 
L 404.523153 86.661065 
L 404.775868 87.302489 
L 405.028583 87.606321 
L 405.281298 87.336248 
L 405.534013 87.606321 
L 405.786728 87.336248 
L 406.039443 87.26873 
L 406.544873 87.538803 
L 407.050303 87.488164 
L 407.303018 85.462615 
L 407.555733 87.437525 
L 407.808448 83.217632 
L 408.061163 87.302489 
L 408.566593 87.910154 
L 408.819308 88.04519 
L 409.072023 87.505044 
L 409.324738 87.437525 
L 409.577453 87.505044 
L 409.830168 85.141903 
L 410.082883 87.25185 
L 410.335598 87.319368 
L 410.588313 87.25185 
L 410.841028 87.589442 
L 411.093743 87.521923 
L 411.346458 85.27694 
L 411.599173 87.25185 
L 412.104603 87.184332 
L 412.357318 85.141903 
L 412.610033 87.454405 
L 413.115464 86.509149 
L 413.368179 86.441631 
L 413.620894 86.239076 
L 413.873609 86.374112 
L 414.126324 87.083054 
L 414.379039 87.353128 
L 414.631754 87.167452 
L 414.884469 87.167452 
L 415.389899 86.171557 
L 415.642614 86.323474 
L 415.895329 86.323474 
L 416.148044 86.509149 
L 416.653474 86.441631 
L 416.906189 86.897379 
L 417.158904 86.829861 
L 417.411619 86.47539 
L 417.664334 84.365443 
L 417.917049 84.230406 
L 418.169764 86.728583 
L 418.422479 86.86362 
L 418.675194 84.821191 
L 418.927909 86.728583 
L 419.180624 84.010972 
L 419.433339 86.390992 
L 419.686054 86.441631 
L 419.938769 86.779222 
L 420.191484 86.914259 
L 420.696914 86.914259 
L 420.949629 86.576667 
L 421.455059 87.184332 
L 421.707774 87.302489 
L 421.960489 87.64008 
L 422.213204 87.64008 
L 422.465919 87.910154 
L 422.971349 87.370007 
L 423.224064 87.302489 
L 423.476779 87.116814 
L 424.234924 87.25185 
L 424.487639 87.184332 
L 424.740354 83.150113 
L 424.993069 87.454405 
L 425.245784 87.454405 
L 425.498499 84.247286 
L 425.751214 86.07028 
L 426.003929 86.087159 
L 426.256644 85.969002 
L 426.762074 86.357233 
L 427.014789 86.357233 
L 427.267504 86.171557 
L 427.520219 86.357233 
L 427.772934 86.104039 
L 428.025649 86.104039 
L 428.278364 86.357233 
L 428.531079 86.357233 
L 428.783794 86.745463 
L 429.036509 86.812981 
L 429.289224 86.745463 
L 429.794654 85.833966 
L 430.047369 83.707139 
L 430.300084 83.977213 
L 430.552799 81.867266 
L 430.805514 86.087159 
L 431.310944 85.766448 
L 431.563659 85.884605 
L 432.069089 86.340353 
L 432.321804 86.205316 
L 432.574519 86.340353 
L 432.827234 86.272835 
L 433.079949 86.340353 
L 433.332664 84.230406 
L 433.585379 86.407871 
L 433.838094 85.766448 
L 434.090809 83.588982 
L 434.343524 86.171557 
L 434.848954 87.066175 
L 435.101669 86.998657 
L 435.354384 87.116814 
L 435.607099 86.610426 
L 435.859814 82.0867 
L 436.365244 86.374112 
L 436.870674 86.374112 
L 437.628819 85.901484 
L 437.881534 86.036521 
L 438.134249 83.994092 
L 438.386964 86.374112 
L 439.145109 86.357233 
L 439.397824 84.09537 
L 439.650539 86.087159 
L 439.903254 85.614531 
L 440.155969 85.833966 
L 440.408684 85.68205 
L 440.661399 85.884605 
L 441.166829 85.817086 
L 441.419544 85.817086 
L 441.924974 83.538344 
L 442.683119 84.838071 
L 442.935834 84.719914 
L 443.188549 84.044731 
L 443.441264 80.145549 
L 443.693979 84.027851 
L 443.946694 83.960333 
L 444.199409 84.162888 
L 444.452124 84.753673 
L 444.704839 84.618636 
L 444.957554 82.323014 
L 445.210269 82.323014 
L 445.462984 84.500479 
L 445.715699 84.432961 
L 445.968414 82.137339 
L 446.221129 84.179767 
L 446.726559 84.314804 
L 446.979274 84.230406 
L 447.231989 84.297925 
L 447.484704 84.500479 
L 447.737419 84.365443 
L 447.990134 84.09537 
L 448.242849 84.230406 
L 448.748279 83.707139 
L 449.506424 84.838071 
L 449.75914 84.905589 
L 450.26457 85.732688 
L 450.517285 85.158783 
L 450.77 81.884145 
L 451.022715 83.842176 
L 451.528145 83.842176 
L 451.78086 81.732229 
L 452.033575 83.605862 
L 452.28629 82.559328 
L 452.79172 82.829401 
L 453.044435 83.082595 
L 453.29715 81.023287 
L 453.549865 83.470825 
L 454.30801 84.146008 
L 454.81344 84.281045 
L 455.066155 84.753673 
L 455.31887 84.753673 
L 455.571585 82.626847 
L 455.8243 84.753673 
L 456.077015 84.753673 
L 456.32973 82.626847 
L 456.582445 82.238616 
L 456.83516 84.07849 
L 457.087875 83.69026 
L 457.593305 83.352668 
L 458.098735 82.069821 
L 458.35145 82.272375 
L 458.604165 78.12 
L 458.85688 82.525569 
L 459.36231 83.048836 
L 459.615025 83.453946 
L 460.120455 83.656501 
L 460.625885 83.909694 
L 460.8786 83.842176 
L 461.131315 83.909694 
L 461.636745 83.200752 
L 462.142175 83.875935 
L 462.90032 84.010972 
L 463.658465 83.892815 
L 463.91118 84.230406 
L 464.163895 84.956228 
L 464.41661 84.956228 
L 464.669325 83.30203 
L 464.92204 85.411976 
L 465.174755 83.183873 
L 465.42747 84.753673 
L 465.680185 84.4836 
L 466.43833 85.479495 
L 466.691045 83.504584 
L 466.94376 85.867725 
L 467.44919 86.255955 
L 467.701905 86.255955 
L 467.95462 84.281045 
L 468.207335 86.390992 
L 468.46005 86.390992 
L 468.712765 86.644185 
L 468.96548 86.711704 
L 469.218195 84.787432 
L 469.47091 84.601757 
L 469.723625 86.829861 
L 469.97634 84.584877 
L 470.229055 86.576667 
L 470.48177 86.306594 
L 471.239915 86.374112 
L 471.49263 86.711704 
L 471.745345 83.808417 
L 471.99806 85.310699 
L 472.250775 85.209422 
L 472.756205 85.530133 
L 473.261635 86.104039 
L 473.51435 86.036521 
L 473.767065 86.222196 
L 474.272495 85.969002 
L 474.52521 86.036521 
L 474.777925 85.952123 
L 475.03064 86.222196 
L 475.283355 86.222196 
L 475.53607 82.002302 
L 475.788785 86.171557 
L 476.0415 81.951664 
L 476.294215 85.580772 
L 476.54693 84.973108 
L 476.799645 85.108144 
L 477.05236 83.133234 
L 477.305075 83.133234 
L 477.55779 85.243181 
L 477.810505 85.175662 
L 478.315935 84.905589 
L 478.56865 84.973108 
L 478.821365 83.67338 
L 479.07408 85.580772 
L 479.326795 83.724019 
L 479.57951 85.563893 
L 479.832225 85.006867 
L 480.08494 85.26006 
L 480.337655 83.28515 
L 480.59037 85.648291 
L 480.843085 83.538344 
L 481.0958 85.648291 
L 481.853945 85.648291 
L 482.10666 81.428397 
L 482.61209 85.783327 
L 482.864805 83.470825 
L 483.11752 85.766448 
L 483.370235 85.715809 
L 483.62295 83.808417 
L 483.875665 83.859056 
L 484.12838 86.171557 
L 484.63381 86.104039 
L 485.13924 86.829861 
L 485.391955 86.492269 
L 485.64467 82.204857 
L 485.897385 86.762342 
L 486.1501 86.948018 
L 486.402815 84.770553 
L 486.65553 87.015536 
L 486.908246 87.083054 
L 487.160961 84.973108 
L 487.413676 86.357233 
L 487.666391 83.943453 
L 487.919106 85.969002 
L 488.424536 85.648291 
L 488.677251 85.918364 
L 489.182681 85.800207 
L 489.435396 85.395097 
L 489.688111 85.395097 
L 490.446256 86.120919 
L 490.698971 86.0534 
L 490.951686 86.171557 
L 491.204401 86.036521 
L 491.457116 83.588982 
L 491.709831 85.766448 
L 492.215261 85.766448 
L 492.467976 85.901484 
L 492.720691 83.875935 
L 492.973406 85.66517 
L 493.226121 85.462615 
L 493.478836 85.749568 
L 493.731551 85.800207 
L 493.984266 86.323474 
L 494.236981 86.576667 
L 494.489696 86.509149 
L 494.742411 86.323474 
L 494.995126 84.213527 
L 495.247841 86.45851 
L 495.500556 84.348563 
L 495.753271 86.390992 
L 496.005986 86.441631 
L 496.258701 86.188437 
L 496.511416 86.188437 
L 496.764131 86.576667 
L 497.016846 84.46672 
L 497.269561 84.264165 
L 497.522276 86.239076 
L 497.774991 85.833966 
L 498.280421 85.648291 
L 498.785851 85.850845 
L 499.038566 85.175662 
L 499.291281 82.812522 
L 499.543996 83.015077 
L 499.796711 84.85495 
L 500.049426 85.125024 
L 500.302141 85.192542 
L 500.807571 85.428856 
L 501.060286 85.293819 
L 501.565716 85.732688 
L 501.818431 85.597652 
L 502.071146 85.327579 
L 502.323861 83.28515 
L 502.576576 83.217632 
L 502.829291 85.327579 
L 503.334721 85.395097 
L 503.587436 85.462615 
L 503.840151 85.327579 
L 504.092866 85.800207 
L 504.345581 85.800207 
L 504.598296 86.07028 
L 504.851011 86.002762 
L 505.103726 83.757778 
L 505.356441 86.390992 
L 505.861871 85.040626 
L 506.367301 85.631411 
L 506.872731 85.631411 
L 507.125446 85.969002 
L 507.378161 86.036521 
L 507.630876 85.901484 
L 507.883591 85.918364 
L 508.136306 83.875935 
L 508.389021 86.036521 
L 508.641736 86.036521 
L 508.894451 86.374112 
L 509.399881 85.985882 
L 510.158026 86.120919 
L 510.410741 86.171557 
L 510.663456 85.985882 
L 510.916171 86.526028 
L 511.168886 86.661065 
L 511.421601 86.593547 
L 511.674316 84.719914 
L 511.927031 86.897379 
L 512.179746 84.989987 
L 512.432461 86.897379 
L 512.685176 86.627306 
L 512.937891 86.694824 
L 513.190606 86.897379 
L 513.696036 86.762342 
L 513.948751 86.357233 
L 514.201466 85.563893 
L 514.454181 85.850845 
L 514.706896 85.783327 
L 514.959611 84.07849 
L 515.212326 85.766448 
L 515.717756 85.496374 
L 515.970471 83.724019 
L 516.223186 85.563893 
L 516.475901 83.588982 
L 516.728616 85.68205 
L 516.981331 85.68205 
L 517.486761 85.226301 
L 517.739476 85.243181 
L 518.244906 85.513254 
L 518.497621 83.521464 
L 518.750336 85.563893 
L 519.003051 85.833966 
L 519.761196 85.817086 
L 520.013911 81.597192 
L 520.266626 85.68205 
L 520.519341 85.428856 
L 521.024771 85.496374 
L 521.530201 86.154678 
L 521.782916 83.605862 
L 522.035631 84.989987 
L 522.288346 82.964438 
L 522.541061 84.939348 
L 522.793776 85.141903 
L 523.046491 83.082595 
L 523.299206 83.26827 
L 523.551921 80.770093 
L 524.057352 85.125024 
L 524.562782 85.243181 
L 524.815497 85.850845 
L 525.068212 85.783327 
L 525.320927 85.462615 
L 525.826357 85.378217 
L 526.079072 85.66517 
L 526.331787 85.462615 
L 526.584502 85.631411 
L 527.089932 85.631411 
L 527.342647 85.378217 
L 527.848077 85.310699 
L 528.353507 84.449841 
L 528.858937 84.787432 
L 529.111652 84.652396 
L 529.617082 85.175662 
L 529.869797 82.643726 
L 530.122512 84.230406 
L 530.375227 84.044731 
L 530.627942 84.027851 
L 530.880657 84.162888 
L 531.133372 84.162888 
L 531.386087 84.297925 
L 531.891517 84.044731 
L 532.144232 82.204857 
L 532.396947 82.272375 
L 532.649662 84.07849 
L 532.902377 84.07849 
L 533.155092 84.4836 
L 533.407807 84.4836 
L 533.660522 82.373653 
L 533.913237 84.348563 
L 534.165952 81.630952 
L 534.418667 83.605862 
L 534.671382 83.740899 
L 534.924097 82.47493 
L 535.176812 84.787432 
L 535.429527 84.787432 
L 535.934957 84.584877 
L 536.187672 84.044731 
L 536.945817 83.842176 
L 537.198532 84.230406 
L 537.451247 82.052941 
L 537.703962 84.297925 
L 538.209392 84.635516 
L 538.462107 84.365443 
L 538.714822 84.365443 
L 538.967537 84.500479 
L 539.220252 84.905589 
L 539.472967 84.905589 
L 539.725682 84.500479 
L 541.747402 84.500479 
L 542.000117 82.525569 
L 542.252832 84.973108 
L 543.263692 85.698929 
L 543.516407 85.698929 
L 543.769122 85.445736 
L 544.021837 85.513254 
L 544.274552 85.310699 
L 544.527267 85.310699 
L 544.779982 85.445736 
L 545.032697 85.378217 
L 545.285412 85.445736 
L 545.790842 85.327579 
L 546.043557 83.487705 
L 546.296272 85.462615 
L 546.548987 85.462615 
L 546.801702 85.192542 
L 547.054417 85.192542 
L 547.307132 83.150113 
L 547.559847 85.327579 
L 547.812562 85.395097 
L 548.065277 85.192542 
L 548.317992 82.947558 
L 548.570707 85.513254 
L 548.823422 85.513254 
L 549.076137 85.648291 
L 549.328852 83.588982 
L 549.581567 83.335789 
L 549.834282 85.310699 
L 550.086997 85.310699 
L 550.339712 83.588982 
L 550.592427 85.698929 
L 550.845142 85.766448 
L 551.097857 85.698929 
L 551.350572 81.479035 
L 551.603287 85.698929 
L 551.856002 85.698929 
L 552.108717 83.977213 
L 552.361432 86.087159 
L 552.614147 83.909694 
L 552.866862 83.774658 
L 553.119577 85.833966 
L 553.372292 86.154678 
L 554.888582 86.171557 
L 555.394012 86.424751 
L 555.646727 86.306594 
L 555.899442 84.196647 
L 556.152157 86.374112 
L 556.404872 86.509149 
L 556.657587 86.509149 
L 556.910302 86.171557 
L 557.163017 86.171557 
L 557.415732 85.969002 
L 557.668447 85.969002 
L 557.921162 86.104039 
L 558.173877 85.969002 
L 558.426592 85.26006 
L 558.679307 85.108144 
L 558.932022 85.141903 
L 559.184737 85.293819 
L 559.690167 85.293819 
L 559.942882 85.023746 
L 560.195597 84.956228 
L 560.448312 84.635516 
L 560.701028 84.703034 
L 560.953743 83.892815 
L 561.206458 84.162888 
L 561.459173 81.985423 
L 561.711888 84.027851 
L 562.217318 83.892815 
L 562.470033 83.386427 
L 562.722748 83.318909 
L 562.975463 82.846281 
L 563.480893 83.453946 
L 563.733608 83.588982 
L 563.986323 83.521464 
L 564.491753 83.926574 
L 564.744468 83.909694 
L 564.997183 83.774658 
L 565.249898 83.504584 
L 565.502613 83.504584 
L 565.755328 83.909694 
L 566.008043 83.909694 
L 566.260758 83.791537 
L 566.766188 78.322555 
L 567.018903 82.441171 
L 567.271618 82.407412 
L 567.524333 82.812522 
L 567.777048 82.812522 
L 568.029763 82.947558 
L 568.282478 82.88004 
L 568.535193 80.702575 
L 568.787908 83.26827 
L 569.040623 83.403307 
L 569.293338 83.200752 
L 569.546053 83.318909 
L 569.798768 81.68159 
L 570.051483 84.331684 
L 570.556913 84.264165 
L 570.809628 84.06161 
L 571.062343 84.584877 
L 571.820488 84.905589 
L 572.073203 82.930679 
L 572.325918 85.243181 
L 572.578633 84.770553 
L 572.831348 84.703034 
L 573.084063 84.314804 
L 573.336778 84.365443 
L 573.589493 82.255496 
L 573.842208 84.635516 
L 574.347638 84.567998 
L 574.600353 84.297925 
L 574.853068 82.187978 
L 575.105783 84.432961 
L 575.611213 84.500479 
L 575.863928 84.162888 
L 576.116643 79.875476 
L 576.369358 83.825296 
L 576.622073 81.71535 
L 576.874788 84.027851 
L 577.127503 84.027851 
L 577.380218 82.660606 
L 577.632933 84.500479 
L 577.885648 84.416082 
L 578.138363 84.4836 
L 578.391078 84.348563 
L 578.643793 84.365443 
L 578.896508 84.247286 
L 579.149223 84.584877 
L 579.654653 84.652396 
L 579.907368 85.040626 
L 580.160083 85.175662 
L 580.412798 85.040626 
L 580.665513 85.293819 
L 581.423658 85.361338 
L 581.676373 85.428856 
L 581.929088 85.040626 
L 582.181803 82.795642 
L 582.434518 85.040626 
L 582.939948 85.310699 
L 583.192663 85.715809 
L 583.445378 85.715809 
L 583.950808 85.445736 
L 584.203523 85.445736 
L 584.961668 85.833966 
L 585.467098 85.698929 
L 585.719813 85.783327 
L 585.972528 81.563433 
L 586.477958 85.715809 
L 586.730673 85.580772 
L 586.983388 83.403307 
L 587.236103 85.783327 
L 587.488818 85.918364 
L 587.741533 85.783327 
L 587.994248 85.327579 
L 588.499678 85.597652 
L 588.752393 83.420187 
L 589.005108 85.597652 
L 589.510538 84.989987 
L 589.763253 82.694365 
L 590.015968 84.736793 
L 590.268683 84.601757 
L 590.774113 84.196647 
L 591.026828 84.517359 
L 591.279543 84.517359 
L 591.532258 82.745004 
L 591.784973 85.580772 
L 592.037688 85.428856 
L 593.048548 85.631411 
L 593.301263 85.884605 
L 593.553978 83.656501 
L 593.806693 85.428856 
L 594.312123 85.091265 
L 594.564838 85.158783 
L 594.817553 85.091265 
L 595.070268 84.753673 
L 595.322983 85.209422 
L 595.575698 84.956228 
L 595.828413 84.88871 
L 596.586558 85.158783 
L 596.839273 81.208962 
L 597.091988 85.293819 
L 597.344703 85.361338 
L 597.597419 83.251391 
L 597.850134 85.631411 
L 598.102849 85.496374 
L 598.355564 83.318909 
L 598.608279 85.361338 
L 598.860994 85.428856 
L 599.113709 85.698929 
L 599.366424 83.588982 
L 599.619139 83.724019 
L 599.871854 85.631411 
L 600.124569 83.724019 
L 600.377284 85.766448 
L 600.629999 86.036521 
L 600.882714 85.766448 
L 601.135429 85.040626 
L 601.388144 85.057505 
L 601.640859 83.015077 
L 601.893574 85.192542 
L 602.399004 85.395097 
L 602.651719 82.812522 
L 602.904434 83.859056 
L 603.157149 84.129129 
L 603.409864 84.584877 
L 603.915294 84.652396 
L 604.168009 84.331684 
L 604.420724 82.204857 
L 604.673439 83.994092 
L 604.926154 83.926574 
L 605.178869 84.247286 
L 605.431584 83.656501 
L 605.684299 83.656501 
L 605.937014 83.808417 
L 606.189729 84.129129 
L 606.695159 83.909694 
L 607.200589 82.846281 
L 607.958734 83.251391 
L 608.211449 81.006407 
L 608.464164 82.913799 
L 608.716879 82.576208 
L 609.222309 82.694365 
L 609.475024 80.584418 
L 609.727739 80.702575 
L 609.980454 82.812522 
L 610.485884 82.812522 
L 610.738599 83.67338 
L 611.244029 83.740899 
L 611.749459 83.572103 
L 612.507604 82.069821 
L 612.760319 82.728124 
L 613.518464 82.47493 
L 613.771179 82.609967 
L 614.023894 80.685695 
L 614.276609 83.724019 
L 614.529324 83.774658 
L 614.782039 84.196647 
L 615.287469 84.314804 
L 615.792899 84.331684 
L 616.298329 84.905589 
L 617.056474 84.956228 
L 617.309189 82.846281 
L 617.561904 84.905589 
L 618.320049 84.956228 
L 619.330909 84.956228 
L 619.330909 84.956228 
" style="fill:none;stroke:#1f77b4;stroke-linecap:square;stroke-width:1.5;"/>
   </g>
   <g id="patch_3">
    <path d="M 108 448.56 
L 108 60.48 
" style="fill:none;stroke:#000000;stroke-linecap:square;stroke-linejoin:miter;stroke-width:0.8;"/>
   </g>
   <g id="patch_4">
    <path d="M 643.68 448.56 
L 643.68 60.48 
" style="fill:none;stroke:#000000;stroke-linecap:square;stroke-linejoin:miter;stroke-width:0.8;"/>
   </g>
   <g id="patch_5">
    <path d="M 108 448.56 
L 643.68 448.56 
" style="fill:none;stroke:#000000;stroke-linecap:square;stroke-linejoin:miter;stroke-width:0.8;"/>
   </g>
   <g id="patch_6">
    <path d="M 108 60.48 
L 643.68 60.48 
" style="fill:none;stroke:#000000;stroke-linecap:square;stroke-linejoin:miter;stroke-width:0.8;"/>
   </g>
   <g id="text_17">
    <!-- docker - stats -->
    <g transform="translate(324.832969 54.48)scale(0.15 -0.15)">
     <defs>
      <path d="M 45.40625 46.390625 
L 45.40625 75.984375 
L 54.390625 75.984375 
L 54.390625 0 
L 45.40625 0 
L 45.40625 8.203125 
Q 42.578125 3.328125 38.25 0.953125 
Q 33.9375 -1.421875 27.875 -1.421875 
Q 17.96875 -1.421875 11.734375 6.484375 
Q 5.515625 14.40625 5.515625 27.296875 
Q 5.515625 40.1875 11.734375 48.09375 
Q 17.96875 56 27.875 56 
Q 33.9375 56 38.25 53.625 
Q 42.578125 51.265625 45.40625 46.390625 
z
M 14.796875 27.296875 
Q 14.796875 17.390625 18.875 11.75 
Q 22.953125 6.109375 30.078125 6.109375 
Q 37.203125 6.109375 41.296875 11.75 
Q 45.40625 17.390625 45.40625 27.296875 
Q 45.40625 37.203125 41.296875 42.84375 
Q 37.203125 48.484375 30.078125 48.484375 
Q 22.953125 48.484375 18.875 42.84375 
Q 14.796875 37.203125 14.796875 27.296875 
z
" id="DejaVuSans-100"/>
      <path d="M 30.609375 48.390625 
Q 23.390625 48.390625 19.1875 42.75 
Q 14.984375 37.109375 14.984375 27.296875 
Q 14.984375 17.484375 19.15625 11.84375 
Q 23.34375 6.203125 30.609375 6.203125 
Q 37.796875 6.203125 41.984375 11.859375 
Q 46.1875 17.53125 46.1875 27.296875 
Q 46.1875 37.015625 41.984375 42.703125 
Q 37.796875 48.390625 30.609375 48.390625 
z
M 30.609375 56 
Q 42.328125 56 49.015625 48.375 
Q 55.71875 40.765625 55.71875 27.296875 
Q 55.71875 13.875 49.015625 6.21875 
Q 42.328125 -1.421875 30.609375 -1.421875 
Q 18.84375 -1.421875 12.171875 6.21875 
Q 5.515625 13.875 5.515625 27.296875 
Q 5.515625 40.765625 12.171875 48.375 
Q 18.84375 56 30.609375 56 
z
" id="DejaVuSans-111"/>
      <path d="M 48.78125 52.59375 
L 48.78125 44.1875 
Q 44.96875 46.296875 41.140625 47.34375 
Q 37.3125 48.390625 33.40625 48.390625 
Q 24.65625 48.390625 19.8125 42.84375 
Q 14.984375 37.3125 14.984375 27.296875 
Q 14.984375 17.28125 19.8125 11.734375 
Q 24.65625 6.203125 33.40625 6.203125 
Q 37.3125 6.203125 41.140625 7.25 
Q 44.96875 8.296875 48.78125 10.40625 
L 48.78125 2.09375 
Q 45.015625 0.34375 40.984375 -0.53125 
Q 36.96875 -1.421875 32.421875 -1.421875 
Q 20.0625 -1.421875 12.78125 6.34375 
Q 5.515625 14.109375 5.515625 27.296875 
Q 5.515625 40.671875 12.859375 48.328125 
Q 20.21875 56 33.015625 56 
Q 37.15625 56 41.109375 55.140625 
Q 45.0625 54.296875 48.78125 52.59375 
z
" id="DejaVuSans-99"/>
      <path d="M 9.078125 75.984375 
L 18.109375 75.984375 
L 18.109375 31.109375 
L 44.921875 54.6875 
L 56.390625 54.6875 
L 27.390625 29.109375 
L 57.625 0 
L 45.90625 0 
L 18.109375 26.703125 
L 18.109375 0 
L 9.078125 0 
z
" id="DejaVuSans-107"/>
      <path d="M 41.109375 46.296875 
Q 39.59375 47.171875 37.8125 47.578125 
Q 36.03125 48 33.890625 48 
Q 26.265625 48 22.1875 43.046875 
Q 18.109375 38.09375 18.109375 28.8125 
L 18.109375 0 
L 9.078125 0 
L 9.078125 54.6875 
L 18.109375 54.6875 
L 18.109375 46.1875 
Q 20.953125 51.171875 25.484375 53.578125 
Q 30.03125 56 36.53125 56 
Q 37.453125 56 38.578125 55.875 
Q 39.703125 55.765625 41.0625 55.515625 
z
" id="DejaVuSans-114"/>
      <path id="DejaVuSans-32"/>
      <path d="M 4.890625 31.390625 
L 31.203125 31.390625 
L 31.203125 23.390625 
L 4.890625 23.390625 
z
" id="DejaVuSans-45"/>
     </defs>
     <use xlink:href="#DejaVuSans-100"/>
     <use x="63.476562" xlink:href="#DejaVuSans-111"/>
     <use x="124.658203" xlink:href="#DejaVuSans-99"/>
     <use x="179.638672" xlink:href="#DejaVuSans-107"/>
     <use x="233.923828" xlink:href="#DejaVuSans-101"/>
     <use x="295.447266" xlink:href="#DejaVuSans-114"/>
     <use x="336.560547" xlink:href="#DejaVuSans-32"/>
     <use x="368.347656" xlink:href="#DejaVuSans-45"/>
     <use x="404.431641" xlink:href="#DejaVuSans-32"/>
     <use x="436.21875" xlink:href="#DejaVuSans-115"/>
     <use x="488.318359" xlink:href="#DejaVuSans-116"/>
     <use x="527.527344" xlink:href="#DejaVuSans-97"/>
     <use x="588.806641" xlink:href="#DejaVuSans-116"/>
     <use x="628.015625" xlink:href="#DejaVuSans-115"/>
    </g>
   </g>
   <g id="legend_1">
    <g id="patch_7">
     <path d="M 650.68 258.52 
L 654.68 258.52 
Q 656.68 258.52 656.68 256.52 
L 656.68 252.52 
Q 656.68 250.52 654.68 250.52 
L 650.68 250.52 
Q 648.68 250.52 648.68 252.52 
L 648.68 256.52 
Q 648.68 258.52 650.68 258.52 
z
" style="fill:#ffffff;opacity:0.8;stroke:#cccccc;stroke-linejoin:miter;"/>
    </g>
   </g>
  </g>
 </g>
 <defs>
  <clipPath id="p628358bd1f">
   <rect height="388.08" width="535.68" x="108" y="60.48"/>
  </clipPath>
 </defs>
</svg>
