<?xml version="1.0" encoding="utf-8" standalone="no"?>
<!DOCTYPE svg PUBLIC "-//W3C//DTD SVG 1.1//EN"
  "http://www.w3.org/Graphics/SVG/1.1/DTD/svg11.dtd">
<!-- Created with matplotlib (https://matplotlib.org/) -->
<svg height="504pt" version="1.1" viewBox="0 0 864 504" width="864pt" xmlns="http://www.w3.org/2000/svg" xmlns:xlink="http://www.w3.org/1999/xlink">
 <metadata>
  <rdf:RDF xmlns:cc="http://creativecommons.org/ns#" xmlns:dc="http://purl.org/dc/elements/1.1/" xmlns:rdf="http://www.w3.org/1999/02/22-rdf-syntax-ns#">
   <cc:Work>
    <dc:type rdf:resource="http://purl.org/dc/dcmitype/StillImage"/>
    <dc:date>2022-05-29T17:06:23.184578</dc:date>
    <dc:format>image/svg+xml</dc:format>
    <dc:creator>
     <cc:Agent>
      <dc:title>Matplotlib v3.3.4, https://matplotlib.org/</dc:title>
     </cc:Agent>
    </dc:creator>
   </cc:Work>
  </rdf:RDF>
 </metadata>
 <defs>
  <style type="text/css">*{stroke-linecap:butt;stroke-linejoin:round;}</style>
 </defs>
 <g id="figure_1">
  <g id="patch_1">
   <path d="M 0 504 
L 864 504 
L 864 0 
L 0 0 
z
" style="fill:#ffffff;"/>
  </g>
  <g id="axes_1">
   <g id="patch_2">
    <path d="M 108 448.56 
L 643.68 448.56 
L 643.68 60.48 
L 108 60.48 
z
" style="fill:#ffffff;"/>
   </g>
   <g id="matplotlib.axis_1">
    <g id="xtick_1">
     <g id="line2d_1">
      <defs>
       <path d="M 0 0 
L 0 3.5 
" id="mec98dedb2e" style="stroke:#000000;stroke-width:0.8;"/>
      </defs>
      <g>
       <use style="stroke:#000000;stroke-width:0.8;" x="132.349091" xlink:href="#mec98dedb2e" y="448.56"/>
      </g>
     </g>
     <g id="text_1">
      <!-- 12:22:03 -->
      <g transform="translate(135.108466 500.4725)rotate(-90)scale(0.1 -0.1)">
       <defs>
        <path d="M 12.40625 8.296875 
L 28.515625 8.296875 
L 28.515625 63.921875 
L 10.984375 60.40625 
L 10.984375 69.390625 
L 28.421875 72.90625 
L 38.28125 72.90625 
L 38.28125 8.296875 
L 54.390625 8.296875 
L 54.390625 0 
L 12.40625 0 
z
" id="DejaVuSans-49"/>
        <path d="M 19.1875 8.296875 
L 53.609375 8.296875 
L 53.609375 0 
L 7.328125 0 
L 7.328125 8.296875 
Q 12.9375 14.109375 22.625 23.890625 
Q 32.328125 33.6875 34.8125 36.53125 
Q 39.546875 41.84375 41.421875 45.53125 
Q 43.3125 49.21875 43.3125 52.78125 
Q 43.3125 58.59375 39.234375 62.25 
Q 35.15625 65.921875 28.609375 65.921875 
Q 23.96875 65.921875 18.8125 64.3125 
Q 13.671875 62.703125 7.8125 59.421875 
L 7.8125 69.390625 
Q 13.765625 71.78125 18.9375 73 
Q 24.125 74.21875 28.421875 74.21875 
Q 39.75 74.21875 46.484375 68.546875 
Q 53.21875 62.890625 53.21875 53.421875 
Q 53.21875 48.921875 51.53125 44.890625 
Q 49.859375 40.875 45.40625 35.40625 
Q 44.1875 33.984375 37.640625 27.21875 
Q 31.109375 20.453125 19.1875 8.296875 
z
" id="DejaVuSans-50"/>
        <path d="M 11.71875 12.40625 
L 22.015625 12.40625 
L 22.015625 0 
L 11.71875 0 
z
M 11.71875 51.703125 
L 22.015625 51.703125 
L 22.015625 39.3125 
L 11.71875 39.3125 
z
" id="DejaVuSans-58"/>
        <path d="M 31.78125 66.40625 
Q 24.171875 66.40625 20.328125 58.90625 
Q 16.5 51.421875 16.5 36.375 
Q 16.5 21.390625 20.328125 13.890625 
Q 24.171875 6.390625 31.78125 6.390625 
Q 39.453125 6.390625 43.28125 13.890625 
Q 47.125 21.390625 47.125 36.375 
Q 47.125 51.421875 43.28125 58.90625 
Q 39.453125 66.40625 31.78125 66.40625 
z
M 31.78125 74.21875 
Q 44.046875 74.21875 50.515625 64.515625 
Q 56.984375 54.828125 56.984375 36.375 
Q 56.984375 17.96875 50.515625 8.265625 
Q 44.046875 -1.421875 31.78125 -1.421875 
Q 19.53125 -1.421875 13.0625 8.265625 
Q 6.59375 17.96875 6.59375 36.375 
Q 6.59375 54.828125 13.0625 64.515625 
Q 19.53125 74.21875 31.78125 74.21875 
z
" id="DejaVuSans-48"/>
        <path d="M 40.578125 39.3125 
Q 47.65625 37.796875 51.625 33 
Q 55.609375 28.21875 55.609375 21.1875 
Q 55.609375 10.40625 48.1875 4.484375 
Q 40.765625 -1.421875 27.09375 -1.421875 
Q 22.515625 -1.421875 17.65625 -0.515625 
Q 12.796875 0.390625 7.625 2.203125 
L 7.625 11.71875 
Q 11.71875 9.328125 16.59375 8.109375 
Q 21.484375 6.890625 26.8125 6.890625 
Q 36.078125 6.890625 40.9375 10.546875 
Q 45.796875 14.203125 45.796875 21.1875 
Q 45.796875 27.640625 41.28125 31.265625 
Q 36.765625 34.90625 28.71875 34.90625 
L 20.21875 34.90625 
L 20.21875 43.015625 
L 29.109375 43.015625 
Q 36.375 43.015625 40.234375 45.921875 
Q 44.09375 48.828125 44.09375 54.296875 
Q 44.09375 59.90625 40.109375 62.90625 
Q 36.140625 65.921875 28.71875 65.921875 
Q 24.65625 65.921875 20.015625 65.03125 
Q 15.375 64.15625 9.8125 62.3125 
L 9.8125 71.09375 
Q 15.4375 72.65625 20.34375 73.4375 
Q 25.25 74.21875 29.59375 74.21875 
Q 40.828125 74.21875 47.359375 69.109375 
Q 53.90625 64.015625 53.90625 55.328125 
Q 53.90625 49.265625 50.4375 45.09375 
Q 46.96875 40.921875 40.578125 39.3125 
z
" id="DejaVuSans-51"/>
       </defs>
       <use xlink:href="#DejaVuSans-49"/>
       <use x="63.623047" xlink:href="#DejaVuSans-50"/>
       <use x="127.246094" xlink:href="#DejaVuSans-58"/>
       <use x="160.9375" xlink:href="#DejaVuSans-50"/>
       <use x="224.560547" xlink:href="#DejaVuSans-50"/>
       <use x="288.183594" xlink:href="#DejaVuSans-58"/>
       <use x="321.875" xlink:href="#DejaVuSans-48"/>
       <use x="385.498047" xlink:href="#DejaVuSans-51"/>
      </g>
     </g>
    </g>
    <g id="xtick_2">
     <g id="line2d_2">
      <g>
       <use style="stroke:#000000;stroke-width:0.8;" x="156.589237" xlink:href="#mec98dedb2e" y="448.56"/>
      </g>
     </g>
     <g id="text_2">
      <!-- 12:23:50 -->
      <g transform="translate(159.348612 500.4725)rotate(-90)scale(0.1 -0.1)">
       <defs>
        <path d="M 10.796875 72.90625 
L 49.515625 72.90625 
L 49.515625 64.59375 
L 19.828125 64.59375 
L 19.828125 46.734375 
Q 21.96875 47.46875 24.109375 47.828125 
Q 26.265625 48.1875 28.421875 48.1875 
Q 40.625 48.1875 47.75 41.5 
Q 54.890625 34.8125 54.890625 23.390625 
Q 54.890625 11.625 47.5625 5.09375 
Q 40.234375 -1.421875 26.90625 -1.421875 
Q 22.3125 -1.421875 17.546875 -0.640625 
Q 12.796875 0.140625 7.71875 1.703125 
L 7.71875 11.625 
Q 12.109375 9.234375 16.796875 8.0625 
Q 21.484375 6.890625 26.703125 6.890625 
Q 35.15625 6.890625 40.078125 11.328125 
Q 45.015625 15.765625 45.015625 23.390625 
Q 45.015625 31 40.078125 35.4375 
Q 35.15625 39.890625 26.703125 39.890625 
Q 22.75 39.890625 18.8125 39.015625 
Q 14.890625 38.140625 10.796875 36.28125 
z
" id="DejaVuSans-53"/>
       </defs>
       <use xlink:href="#DejaVuSans-49"/>
       <use x="63.623047" xlink:href="#DejaVuSans-50"/>
       <use x="127.246094" xlink:href="#DejaVuSans-58"/>
       <use x="160.9375" xlink:href="#DejaVuSans-50"/>
       <use x="224.560547" xlink:href="#DejaVuSans-51"/>
       <use x="288.183594" xlink:href="#DejaVuSans-58"/>
       <use x="321.875" xlink:href="#DejaVuSans-53"/>
       <use x="385.498047" xlink:href="#DejaVuSans-48"/>
      </g>
     </g>
    </g>
    <g id="xtick_3">
     <g id="line2d_3">
      <g>
       <use style="stroke:#000000;stroke-width:0.8;" x="180.829384" xlink:href="#mec98dedb2e" y="448.56"/>
      </g>
     </g>
     <g id="text_3">
      <!-- 12:25:36 -->
      <g transform="translate(183.588759 500.4725)rotate(-90)scale(0.1 -0.1)">
       <defs>
        <path d="M 33.015625 40.375 
Q 26.375 40.375 22.484375 35.828125 
Q 18.609375 31.296875 18.609375 23.390625 
Q 18.609375 15.53125 22.484375 10.953125 
Q 26.375 6.390625 33.015625 6.390625 
Q 39.65625 6.390625 43.53125 10.953125 
Q 47.40625 15.53125 47.40625 23.390625 
Q 47.40625 31.296875 43.53125 35.828125 
Q 39.65625 40.375 33.015625 40.375 
z
M 52.59375 71.296875 
L 52.59375 62.3125 
Q 48.875 64.0625 45.09375 64.984375 
Q 41.3125 65.921875 37.59375 65.921875 
Q 27.828125 65.921875 22.671875 59.328125 
Q 17.53125 52.734375 16.796875 39.40625 
Q 19.671875 43.65625 24.015625 45.921875 
Q 28.375 48.1875 33.59375 48.1875 
Q 44.578125 48.1875 50.953125 41.515625 
Q 57.328125 34.859375 57.328125 23.390625 
Q 57.328125 12.15625 50.6875 5.359375 
Q 44.046875 -1.421875 33.015625 -1.421875 
Q 20.359375 -1.421875 13.671875 8.265625 
Q 6.984375 17.96875 6.984375 36.375 
Q 6.984375 53.65625 15.1875 63.9375 
Q 23.390625 74.21875 37.203125 74.21875 
Q 40.921875 74.21875 44.703125 73.484375 
Q 48.484375 72.75 52.59375 71.296875 
z
" id="DejaVuSans-54"/>
       </defs>
       <use xlink:href="#DejaVuSans-49"/>
       <use x="63.623047" xlink:href="#DejaVuSans-50"/>
       <use x="127.246094" xlink:href="#DejaVuSans-58"/>
       <use x="160.9375" xlink:href="#DejaVuSans-50"/>
       <use x="224.560547" xlink:href="#DejaVuSans-53"/>
       <use x="288.183594" xlink:href="#DejaVuSans-58"/>
       <use x="321.875" xlink:href="#DejaVuSans-51"/>
       <use x="385.498047" xlink:href="#DejaVuSans-54"/>
      </g>
     </g>
    </g>
    <g id="xtick_4">
     <g id="line2d_4">
      <g>
       <use style="stroke:#000000;stroke-width:0.8;" x="205.06953" xlink:href="#mec98dedb2e" y="448.56"/>
      </g>
     </g>
     <g id="text_4">
      <!-- 12:27:23 -->
      <g transform="translate(207.828905 500.4725)rotate(-90)scale(0.1 -0.1)">
       <defs>
        <path d="M 8.203125 72.90625 
L 55.078125 72.90625 
L 55.078125 68.703125 
L 28.609375 0 
L 18.3125 0 
L 43.21875 64.59375 
L 8.203125 64.59375 
z
" id="DejaVuSans-55"/>
       </defs>
       <use xlink:href="#DejaVuSans-49"/>
       <use x="63.623047" xlink:href="#DejaVuSans-50"/>
       <use x="127.246094" xlink:href="#DejaVuSans-58"/>
       <use x="160.9375" xlink:href="#DejaVuSans-50"/>
       <use x="224.560547" xlink:href="#DejaVuSans-55"/>
       <use x="288.183594" xlink:href="#DejaVuSans-58"/>
       <use x="321.875" xlink:href="#DejaVuSans-50"/>
       <use x="385.498047" xlink:href="#DejaVuSans-51"/>
      </g>
     </g>
    </g>
    <g id="xtick_5">
     <g id="line2d_5">
      <g>
       <use style="stroke:#000000;stroke-width:0.8;" x="229.309677" xlink:href="#mec98dedb2e" y="448.56"/>
      </g>
     </g>
     <g id="text_5">
      <!-- 12:29:10 -->
      <g transform="translate(232.069052 500.4725)rotate(-90)scale(0.1 -0.1)">
       <defs>
        <path d="M 10.984375 1.515625 
L 10.984375 10.5 
Q 14.703125 8.734375 18.5 7.8125 
Q 22.3125 6.890625 25.984375 6.890625 
Q 35.75 6.890625 40.890625 13.453125 
Q 46.046875 20.015625 46.78125 33.40625 
Q 43.953125 29.203125 39.59375 26.953125 
Q 35.25 24.703125 29.984375 24.703125 
Q 19.046875 24.703125 12.671875 31.3125 
Q 6.296875 37.9375 6.296875 49.421875 
Q 6.296875 60.640625 12.9375 67.421875 
Q 19.578125 74.21875 30.609375 74.21875 
Q 43.265625 74.21875 49.921875 64.515625 
Q 56.59375 54.828125 56.59375 36.375 
Q 56.59375 19.140625 48.40625 8.859375 
Q 40.234375 -1.421875 26.421875 -1.421875 
Q 22.703125 -1.421875 18.890625 -0.6875 
Q 15.09375 0.046875 10.984375 1.515625 
z
M 30.609375 32.421875 
Q 37.25 32.421875 41.125 36.953125 
Q 45.015625 41.5 45.015625 49.421875 
Q 45.015625 57.28125 41.125 61.84375 
Q 37.25 66.40625 30.609375 66.40625 
Q 23.96875 66.40625 20.09375 61.84375 
Q 16.21875 57.28125 16.21875 49.421875 
Q 16.21875 41.5 20.09375 36.953125 
Q 23.96875 32.421875 30.609375 32.421875 
z
" id="DejaVuSans-57"/>
       </defs>
       <use xlink:href="#DejaVuSans-49"/>
       <use x="63.623047" xlink:href="#DejaVuSans-50"/>
       <use x="127.246094" xlink:href="#DejaVuSans-58"/>
       <use x="160.9375" xlink:href="#DejaVuSans-50"/>
       <use x="224.560547" xlink:href="#DejaVuSans-57"/>
       <use x="288.183594" xlink:href="#DejaVuSans-58"/>
       <use x="321.875" xlink:href="#DejaVuSans-49"/>
       <use x="385.498047" xlink:href="#DejaVuSans-48"/>
      </g>
     </g>
    </g>
    <g id="xtick_6">
     <g id="line2d_6">
      <g>
       <use style="stroke:#000000;stroke-width:0.8;" x="253.549823" xlink:href="#mec98dedb2e" y="448.56"/>
      </g>
     </g>
     <g id="text_6">
      <!-- 12:30:56 -->
      <g transform="translate(256.309198 500.4725)rotate(-90)scale(0.1 -0.1)">
       <use xlink:href="#DejaVuSans-49"/>
       <use x="63.623047" xlink:href="#DejaVuSans-50"/>
       <use x="127.246094" xlink:href="#DejaVuSans-58"/>
       <use x="160.9375" xlink:href="#DejaVuSans-51"/>
       <use x="224.560547" xlink:href="#DejaVuSans-48"/>
       <use x="288.183594" xlink:href="#DejaVuSans-58"/>
       <use x="321.875" xlink:href="#DejaVuSans-53"/>
       <use x="385.498047" xlink:href="#DejaVuSans-54"/>
      </g>
     </g>
    </g>
    <g id="xtick_7">
     <g id="line2d_7">
      <g>
       <use style="stroke:#000000;stroke-width:0.8;" x="277.789969" xlink:href="#mec98dedb2e" y="448.56"/>
      </g>
     </g>
     <g id="text_7">
      <!-- 12:32:43 -->
      <g transform="translate(280.549344 500.4725)rotate(-90)scale(0.1 -0.1)">
       <defs>
        <path d="M 37.796875 64.3125 
L 12.890625 25.390625 
L 37.796875 25.390625 
z
M 35.203125 72.90625 
L 47.609375 72.90625 
L 47.609375 25.390625 
L 58.015625 25.390625 
L 58.015625 17.1875 
L 47.609375 17.1875 
L 47.609375 0 
L 37.796875 0 
L 37.796875 17.1875 
L 4.890625 17.1875 
L 4.890625 26.703125 
z
" id="DejaVuSans-52"/>
       </defs>
       <use xlink:href="#DejaVuSans-49"/>
       <use x="63.623047" xlink:href="#DejaVuSans-50"/>
       <use x="127.246094" xlink:href="#DejaVuSans-58"/>
       <use x="160.9375" xlink:href="#DejaVuSans-51"/>
       <use x="224.560547" xlink:href="#DejaVuSans-50"/>
       <use x="288.183594" xlink:href="#DejaVuSans-58"/>
       <use x="321.875" xlink:href="#DejaVuSans-52"/>
       <use x="385.498047" xlink:href="#DejaVuSans-51"/>
      </g>
     </g>
    </g>
    <g id="xtick_8">
     <g id="line2d_8">
      <g>
       <use style="stroke:#000000;stroke-width:0.8;" x="302.030116" xlink:href="#mec98dedb2e" y="448.56"/>
      </g>
     </g>
     <g id="text_8">
      <!-- 12:34:29 -->
      <g transform="translate(304.789491 500.4725)rotate(-90)scale(0.1 -0.1)">
       <use xlink:href="#DejaVuSans-49"/>
       <use x="63.623047" xlink:href="#DejaVuSans-50"/>
       <use x="127.246094" xlink:href="#DejaVuSans-58"/>
       <use x="160.9375" xlink:href="#DejaVuSans-51"/>
       <use x="224.560547" xlink:href="#DejaVuSans-52"/>
       <use x="288.183594" xlink:href="#DejaVuSans-58"/>
       <use x="321.875" xlink:href="#DejaVuSans-50"/>
       <use x="385.498047" xlink:href="#DejaVuSans-57"/>
      </g>
     </g>
    </g>
    <g id="xtick_9">
     <g id="line2d_9">
      <g>
       <use style="stroke:#000000;stroke-width:0.8;" x="326.270262" xlink:href="#mec98dedb2e" y="448.56"/>
      </g>
     </g>
     <g id="text_9">
      <!-- 12:36:16 -->
      <g transform="translate(329.029637 500.4725)rotate(-90)scale(0.1 -0.1)">
       <use xlink:href="#DejaVuSans-49"/>
       <use x="63.623047" xlink:href="#DejaVuSans-50"/>
       <use x="127.246094" xlink:href="#DejaVuSans-58"/>
       <use x="160.9375" xlink:href="#DejaVuSans-51"/>
       <use x="224.560547" xlink:href="#DejaVuSans-54"/>
       <use x="288.183594" xlink:href="#DejaVuSans-58"/>
       <use x="321.875" xlink:href="#DejaVuSans-49"/>
       <use x="385.498047" xlink:href="#DejaVuSans-54"/>
      </g>
     </g>
    </g>
    <g id="xtick_10">
     <g id="line2d_10">
      <g>
       <use style="stroke:#000000;stroke-width:0.8;" x="350.510409" xlink:href="#mec98dedb2e" y="448.56"/>
      </g>
     </g>
     <g id="text_10">
      <!-- 12:38:02 -->
      <g transform="translate(353.269784 500.4725)rotate(-90)scale(0.1 -0.1)">
       <defs>
        <path d="M 31.78125 34.625 
Q 24.75 34.625 20.71875 30.859375 
Q 16.703125 27.09375 16.703125 20.515625 
Q 16.703125 13.921875 20.71875 10.15625 
Q 24.75 6.390625 31.78125 6.390625 
Q 38.8125 6.390625 42.859375 10.171875 
Q 46.921875 13.96875 46.921875 20.515625 
Q 46.921875 27.09375 42.890625 30.859375 
Q 38.875 34.625 31.78125 34.625 
z
M 21.921875 38.8125 
Q 15.578125 40.375 12.03125 44.71875 
Q 8.5 49.078125 8.5 55.328125 
Q 8.5 64.0625 14.71875 69.140625 
Q 20.953125 74.21875 31.78125 74.21875 
Q 42.671875 74.21875 48.875 69.140625 
Q 55.078125 64.0625 55.078125 55.328125 
Q 55.078125 49.078125 51.53125 44.71875 
Q 48 40.375 41.703125 38.8125 
Q 48.828125 37.15625 52.796875 32.3125 
Q 56.78125 27.484375 56.78125 20.515625 
Q 56.78125 9.90625 50.3125 4.234375 
Q 43.84375 -1.421875 31.78125 -1.421875 
Q 19.734375 -1.421875 13.25 4.234375 
Q 6.78125 9.90625 6.78125 20.515625 
Q 6.78125 27.484375 10.78125 32.3125 
Q 14.796875 37.15625 21.921875 38.8125 
z
M 18.3125 54.390625 
Q 18.3125 48.734375 21.84375 45.5625 
Q 25.390625 42.390625 31.78125 42.390625 
Q 38.140625 42.390625 41.71875 45.5625 
Q 45.3125 48.734375 45.3125 54.390625 
Q 45.3125 60.0625 41.71875 63.234375 
Q 38.140625 66.40625 31.78125 66.40625 
Q 25.390625 66.40625 21.84375 63.234375 
Q 18.3125 60.0625 18.3125 54.390625 
z
" id="DejaVuSans-56"/>
       </defs>
       <use xlink:href="#DejaVuSans-49"/>
       <use x="63.623047" xlink:href="#DejaVuSans-50"/>
       <use x="127.246094" xlink:href="#DejaVuSans-58"/>
       <use x="160.9375" xlink:href="#DejaVuSans-51"/>
       <use x="224.560547" xlink:href="#DejaVuSans-56"/>
       <use x="288.183594" xlink:href="#DejaVuSans-58"/>
       <use x="321.875" xlink:href="#DejaVuSans-48"/>
       <use x="385.498047" xlink:href="#DejaVuSans-50"/>
      </g>
     </g>
    </g>
    <g id="xtick_11">
     <g id="line2d_11">
      <g>
       <use style="stroke:#000000;stroke-width:0.8;" x="374.750555" xlink:href="#mec98dedb2e" y="448.56"/>
      </g>
     </g>
     <g id="text_11">
      <!-- 12:39:49 -->
      <g transform="translate(377.50993 500.4725)rotate(-90)scale(0.1 -0.1)">
       <use xlink:href="#DejaVuSans-49"/>
       <use x="63.623047" xlink:href="#DejaVuSans-50"/>
       <use x="127.246094" xlink:href="#DejaVuSans-58"/>
       <use x="160.9375" xlink:href="#DejaVuSans-51"/>
       <use x="224.560547" xlink:href="#DejaVuSans-57"/>
       <use x="288.183594" xlink:href="#DejaVuSans-58"/>
       <use x="321.875" xlink:href="#DejaVuSans-52"/>
       <use x="385.498047" xlink:href="#DejaVuSans-57"/>
      </g>
     </g>
    </g>
    <g id="xtick_12">
     <g id="line2d_12">
      <g>
       <use style="stroke:#000000;stroke-width:0.8;" x="398.990702" xlink:href="#mec98dedb2e" y="448.56"/>
      </g>
     </g>
     <g id="text_12">
      <!-- 12:41:35 -->
      <g transform="translate(401.750077 500.4725)rotate(-90)scale(0.1 -0.1)">
       <use xlink:href="#DejaVuSans-49"/>
       <use x="63.623047" xlink:href="#DejaVuSans-50"/>
       <use x="127.246094" xlink:href="#DejaVuSans-58"/>
       <use x="160.9375" xlink:href="#DejaVuSans-52"/>
       <use x="224.560547" xlink:href="#DejaVuSans-49"/>
       <use x="288.183594" xlink:href="#DejaVuSans-58"/>
       <use x="321.875" xlink:href="#DejaVuSans-51"/>
       <use x="385.498047" xlink:href="#DejaVuSans-53"/>
      </g>
     </g>
    </g>
    <g id="xtick_13">
     <g id="line2d_13">
      <g>
       <use style="stroke:#000000;stroke-width:0.8;" x="423.230848" xlink:href="#mec98dedb2e" y="448.56"/>
      </g>
     </g>
     <g id="text_13">
      <!-- 12:43:22 -->
      <g transform="translate(425.990223 500.4725)rotate(-90)scale(0.1 -0.1)">
       <use xlink:href="#DejaVuSans-49"/>
       <use x="63.623047" xlink:href="#DejaVuSans-50"/>
       <use x="127.246094" xlink:href="#DejaVuSans-58"/>
       <use x="160.9375" xlink:href="#DejaVuSans-52"/>
       <use x="224.560547" xlink:href="#DejaVuSans-51"/>
       <use x="288.183594" xlink:href="#DejaVuSans-58"/>
       <use x="321.875" xlink:href="#DejaVuSans-50"/>
       <use x="385.498047" xlink:href="#DejaVuSans-50"/>
      </g>
     </g>
    </g>
    <g id="xtick_14">
     <g id="line2d_14">
      <g>
       <use style="stroke:#000000;stroke-width:0.8;" x="447.470995" xlink:href="#mec98dedb2e" y="448.56"/>
      </g>
     </g>
     <g id="text_14">
      <!-- 12:45:08 -->
      <g transform="translate(450.23037 500.4725)rotate(-90)scale(0.1 -0.1)">
       <use xlink:href="#DejaVuSans-49"/>
       <use x="63.623047" xlink:href="#DejaVuSans-50"/>
       <use x="127.246094" xlink:href="#DejaVuSans-58"/>
       <use x="160.9375" xlink:href="#DejaVuSans-52"/>
       <use x="224.560547" xlink:href="#DejaVuSans-53"/>
       <use x="288.183594" xlink:href="#DejaVuSans-58"/>
       <use x="321.875" xlink:href="#DejaVuSans-48"/>
       <use x="385.498047" xlink:href="#DejaVuSans-56"/>
      </g>
     </g>
    </g>
    <g id="xtick_15">
     <g id="line2d_15">
      <g>
       <use style="stroke:#000000;stroke-width:0.8;" x="471.711141" xlink:href="#mec98dedb2e" y="448.56"/>
      </g>
     </g>
     <g id="text_15">
      <!-- 12:46:55 -->
      <g transform="translate(474.470516 500.4725)rotate(-90)scale(0.1 -0.1)">
       <use xlink:href="#DejaVuSans-49"/>
       <use x="63.623047" xlink:href="#DejaVuSans-50"/>
       <use x="127.246094" xlink:href="#DejaVuSans-58"/>
       <use x="160.9375" xlink:href="#DejaVuSans-52"/>
       <use x="224.560547" xlink:href="#DejaVuSans-54"/>
       <use x="288.183594" xlink:href="#DejaVuSans-58"/>
       <use x="321.875" xlink:href="#DejaVuSans-53"/>
       <use x="385.498047" xlink:href="#DejaVuSans-53"/>
      </g>
     </g>
    </g>
    <g id="xtick_16">
     <g id="line2d_16">
      <g>
       <use style="stroke:#000000;stroke-width:0.8;" x="495.951287" xlink:href="#mec98dedb2e" y="448.56"/>
      </g>
     </g>
     <g id="text_16">
      <!-- 12:48:41 -->
      <g transform="translate(498.710662 500.4725)rotate(-90)scale(0.1 -0.1)">
       <use xlink:href="#DejaVuSans-49"/>
       <use x="63.623047" xlink:href="#DejaVuSans-50"/>
       <use x="127.246094" xlink:href="#DejaVuSans-58"/>
       <use x="160.9375" xlink:href="#DejaVuSans-52"/>
       <use x="224.560547" xlink:href="#DejaVuSans-56"/>
       <use x="288.183594" xlink:href="#DejaVuSans-58"/>
       <use x="321.875" xlink:href="#DejaVuSans-52"/>
       <use x="385.498047" xlink:href="#DejaVuSans-49"/>
      </g>
     </g>
    </g>
    <g id="xtick_17">
     <g id="line2d_17">
      <g>
       <use style="stroke:#000000;stroke-width:0.8;" x="520.191434" xlink:href="#mec98dedb2e" y="448.56"/>
      </g>
     </g>
     <g id="text_17">
      <!-- 12:50:28 -->
      <g transform="translate(522.950809 500.4725)rotate(-90)scale(0.1 -0.1)">
       <use xlink:href="#DejaVuSans-49"/>
       <use x="63.623047" xlink:href="#DejaVuSans-50"/>
       <use x="127.246094" xlink:href="#DejaVuSans-58"/>
       <use x="160.9375" xlink:href="#DejaVuSans-53"/>
       <use x="224.560547" xlink:href="#DejaVuSans-48"/>
       <use x="288.183594" xlink:href="#DejaVuSans-58"/>
       <use x="321.875" xlink:href="#DejaVuSans-50"/>
       <use x="385.498047" xlink:href="#DejaVuSans-56"/>
      </g>
     </g>
    </g>
    <g id="xtick_18">
     <g id="line2d_18">
      <g>
       <use style="stroke:#000000;stroke-width:0.8;" x="544.43158" xlink:href="#mec98dedb2e" y="448.56"/>
      </g>
     </g>
     <g id="text_18">
      <!-- 12:52:14 -->
      <g transform="translate(547.190955 500.4725)rotate(-90)scale(0.1 -0.1)">
       <use xlink:href="#DejaVuSans-49"/>
       <use x="63.623047" xlink:href="#DejaVuSans-50"/>
       <use x="127.246094" xlink:href="#DejaVuSans-58"/>
       <use x="160.9375" xlink:href="#DejaVuSans-53"/>
       <use x="224.560547" xlink:href="#DejaVuSans-50"/>
       <use x="288.183594" xlink:href="#DejaVuSans-58"/>
       <use x="321.875" xlink:href="#DejaVuSans-49"/>
       <use x="385.498047" xlink:href="#DejaVuSans-52"/>
      </g>
     </g>
    </g>
    <g id="xtick_19">
     <g id="line2d_19">
      <g>
       <use style="stroke:#000000;stroke-width:0.8;" x="568.671727" xlink:href="#mec98dedb2e" y="448.56"/>
      </g>
     </g>
     <g id="text_19">
      <!-- 12:54:01 -->
      <g transform="translate(571.431102 500.4725)rotate(-90)scale(0.1 -0.1)">
       <use xlink:href="#DejaVuSans-49"/>
       <use x="63.623047" xlink:href="#DejaVuSans-50"/>
       <use x="127.246094" xlink:href="#DejaVuSans-58"/>
       <use x="160.9375" xlink:href="#DejaVuSans-53"/>
       <use x="224.560547" xlink:href="#DejaVuSans-52"/>
       <use x="288.183594" xlink:href="#DejaVuSans-58"/>
       <use x="321.875" xlink:href="#DejaVuSans-48"/>
       <use x="385.498047" xlink:href="#DejaVuSans-49"/>
      </g>
     </g>
    </g>
    <g id="xtick_20">
     <g id="line2d_20">
      <g>
       <use style="stroke:#000000;stroke-width:0.8;" x="592.911873" xlink:href="#mec98dedb2e" y="448.56"/>
      </g>
     </g>
     <g id="text_20">
      <!-- 12:55:48 -->
      <g transform="translate(595.671248 500.4725)rotate(-90)scale(0.1 -0.1)">
       <use xlink:href="#DejaVuSans-49"/>
       <use x="63.623047" xlink:href="#DejaVuSans-50"/>
       <use x="127.246094" xlink:href="#DejaVuSans-58"/>
       <use x="160.9375" xlink:href="#DejaVuSans-53"/>
       <use x="224.560547" xlink:href="#DejaVuSans-53"/>
       <use x="288.183594" xlink:href="#DejaVuSans-58"/>
       <use x="321.875" xlink:href="#DejaVuSans-52"/>
       <use x="385.498047" xlink:href="#DejaVuSans-56"/>
      </g>
     </g>
    </g>
    <g id="xtick_21">
     <g id="line2d_21">
      <g>
       <use style="stroke:#000000;stroke-width:0.8;" x="617.15202" xlink:href="#mec98dedb2e" y="448.56"/>
      </g>
     </g>
     <g id="text_21">
      <!-- 12:57:34 -->
      <g transform="translate(619.911395 500.4725)rotate(-90)scale(0.1 -0.1)">
       <use xlink:href="#DejaVuSans-49"/>
       <use x="63.623047" xlink:href="#DejaVuSans-50"/>
       <use x="127.246094" xlink:href="#DejaVuSans-58"/>
       <use x="160.9375" xlink:href="#DejaVuSans-53"/>
       <use x="224.560547" xlink:href="#DejaVuSans-55"/>
       <use x="288.183594" xlink:href="#DejaVuSans-58"/>
       <use x="321.875" xlink:href="#DejaVuSans-51"/>
       <use x="385.498047" xlink:href="#DejaVuSans-52"/>
      </g>
     </g>
    </g>
    <g id="text_22">
     <!-- timestamp -->
     <g transform="translate(354.264375 510.55125)scale(0.08 -0.08)">
      <defs>
       <path d="M 18.3125 70.21875 
L 18.3125 54.6875 
L 36.8125 54.6875 
L 36.8125 47.703125 
L 18.3125 47.703125 
L 18.3125 18.015625 
Q 18.3125 11.328125 20.140625 9.421875 
Q 21.96875 7.515625 27.59375 7.515625 
L 36.8125 7.515625 
L 36.8125 0 
L 27.59375 0 
Q 17.1875 0 13.234375 3.875 
Q 9.28125 7.765625 9.28125 18.015625 
L 9.28125 47.703125 
L 2.6875 47.703125 
L 2.6875 54.6875 
L 9.28125 54.6875 
L 9.28125 70.21875 
z
" id="DejaVuSans-116"/>
       <path d="M 9.421875 54.6875 
L 18.40625 54.6875 
L 18.40625 0 
L 9.421875 0 
z
M 9.421875 75.984375 
L 18.40625 75.984375 
L 18.40625 64.59375 
L 9.421875 64.59375 
z
" id="DejaVuSans-105"/>
       <path d="M 52 44.1875 
Q 55.375 50.25 60.0625 53.125 
Q 64.75 56 71.09375 56 
Q 79.640625 56 84.28125 50.015625 
Q 88.921875 44.046875 88.921875 33.015625 
L 88.921875 0 
L 79.890625 0 
L 79.890625 32.71875 
Q 79.890625 40.578125 77.09375 44.375 
Q 74.3125 48.1875 68.609375 48.1875 
Q 61.625 48.1875 57.5625 43.546875 
Q 53.515625 38.921875 53.515625 30.90625 
L 53.515625 0 
L 44.484375 0 
L 44.484375 32.71875 
Q 44.484375 40.625 41.703125 44.40625 
Q 38.921875 48.1875 33.109375 48.1875 
Q 26.21875 48.1875 22.15625 43.53125 
Q 18.109375 38.875 18.109375 30.90625 
L 18.109375 0 
L 9.078125 0 
L 9.078125 54.6875 
L 18.109375 54.6875 
L 18.109375 46.1875 
Q 21.1875 51.21875 25.484375 53.609375 
Q 29.78125 56 35.6875 56 
Q 41.65625 56 45.828125 52.96875 
Q 50 49.953125 52 44.1875 
z
" id="DejaVuSans-109"/>
       <path d="M 56.203125 29.59375 
L 56.203125 25.203125 
L 14.890625 25.203125 
Q 15.484375 15.921875 20.484375 11.0625 
Q 25.484375 6.203125 34.421875 6.203125 
Q 39.59375 6.203125 44.453125 7.46875 
Q 49.3125 8.734375 54.109375 11.28125 
L 54.109375 2.78125 
Q 49.265625 0.734375 44.1875 -0.34375 
Q 39.109375 -1.421875 33.890625 -1.421875 
Q 20.796875 -1.421875 13.15625 6.1875 
Q 5.515625 13.8125 5.515625 26.8125 
Q 5.515625 40.234375 12.765625 48.109375 
Q 20.015625 56 32.328125 56 
Q 43.359375 56 49.78125 48.890625 
Q 56.203125 41.796875 56.203125 29.59375 
z
M 47.21875 32.234375 
Q 47.125 39.59375 43.09375 43.984375 
Q 39.0625 48.390625 32.421875 48.390625 
Q 24.90625 48.390625 20.390625 44.140625 
Q 15.875 39.890625 15.1875 32.171875 
z
" id="DejaVuSans-101"/>
       <path d="M 44.28125 53.078125 
L 44.28125 44.578125 
Q 40.484375 46.53125 36.375 47.5 
Q 32.28125 48.484375 27.875 48.484375 
Q 21.1875 48.484375 17.84375 46.4375 
Q 14.5 44.390625 14.5 40.28125 
Q 14.5 37.15625 16.890625 35.375 
Q 19.28125 33.59375 26.515625 31.984375 
L 29.59375 31.296875 
Q 39.15625 29.25 43.1875 25.515625 
Q 47.21875 21.78125 47.21875 15.09375 
Q 47.21875 7.46875 41.1875 3.015625 
Q 35.15625 -1.421875 24.609375 -1.421875 
Q 20.21875 -1.421875 15.453125 -0.5625 
Q 10.6875 0.296875 5.421875 2 
L 5.421875 11.28125 
Q 10.40625 8.6875 15.234375 7.390625 
Q 20.0625 6.109375 24.8125 6.109375 
Q 31.15625 6.109375 34.5625 8.28125 
Q 37.984375 10.453125 37.984375 14.40625 
Q 37.984375 18.0625 35.515625 20.015625 
Q 33.0625 21.96875 24.703125 23.78125 
L 21.578125 24.515625 
Q 13.234375 26.265625 9.515625 29.90625 
Q 5.8125 33.546875 5.8125 39.890625 
Q 5.8125 47.609375 11.28125 51.796875 
Q 16.75 56 26.8125 56 
Q 31.78125 56 36.171875 55.265625 
Q 40.578125 54.546875 44.28125 53.078125 
z
" id="DejaVuSans-115"/>
       <path d="M 34.28125 27.484375 
Q 23.390625 27.484375 19.1875 25 
Q 14.984375 22.515625 14.984375 16.5 
Q 14.984375 11.71875 18.140625 8.90625 
Q 21.296875 6.109375 26.703125 6.109375 
Q 34.1875 6.109375 38.703125 11.40625 
Q 43.21875 16.703125 43.21875 25.484375 
L 43.21875 27.484375 
z
M 52.203125 31.203125 
L 52.203125 0 
L 43.21875 0 
L 43.21875 8.296875 
Q 40.140625 3.328125 35.546875 0.953125 
Q 30.953125 -1.421875 24.3125 -1.421875 
Q 15.921875 -1.421875 10.953125 3.296875 
Q 6 8.015625 6 15.921875 
Q 6 25.140625 12.171875 29.828125 
Q 18.359375 34.515625 30.609375 34.515625 
L 43.21875 34.515625 
L 43.21875 35.40625 
Q 43.21875 41.609375 39.140625 45 
Q 35.0625 48.390625 27.6875 48.390625 
Q 23 48.390625 18.546875 47.265625 
Q 14.109375 46.140625 10.015625 43.890625 
L 10.015625 52.203125 
Q 14.9375 54.109375 19.578125 55.046875 
Q 24.21875 56 28.609375 56 
Q 40.484375 56 46.34375 49.84375 
Q 52.203125 43.703125 52.203125 31.203125 
z
" id="DejaVuSans-97"/>
       <path d="M 18.109375 8.203125 
L 18.109375 -20.796875 
L 9.078125 -20.796875 
L 9.078125 54.6875 
L 18.109375 54.6875 
L 18.109375 46.390625 
Q 20.953125 51.265625 25.265625 53.625 
Q 29.59375 56 35.59375 56 
Q 45.5625 56 51.78125 48.09375 
Q 58.015625 40.1875 58.015625 27.296875 
Q 58.015625 14.40625 51.78125 6.484375 
Q 45.5625 -1.421875 35.59375 -1.421875 
Q 29.59375 -1.421875 25.265625 0.953125 
Q 20.953125 3.328125 18.109375 8.203125 
z
M 48.6875 27.296875 
Q 48.6875 37.203125 44.609375 42.84375 
Q 40.53125 48.484375 33.40625 48.484375 
Q 26.265625 48.484375 22.1875 42.84375 
Q 18.109375 37.203125 18.109375 27.296875 
Q 18.109375 17.390625 22.1875 11.75 
Q 26.265625 6.109375 33.40625 6.109375 
Q 40.53125 6.109375 44.609375 11.75 
Q 48.6875 17.390625 48.6875 27.296875 
z
" id="DejaVuSans-112"/>
      </defs>
      <use xlink:href="#DejaVuSans-116"/>
      <use x="39.208984" xlink:href="#DejaVuSans-105"/>
      <use x="66.992188" xlink:href="#DejaVuSans-109"/>
      <use x="164.404297" xlink:href="#DejaVuSans-101"/>
      <use x="225.927734" xlink:href="#DejaVuSans-115"/>
      <use x="278.027344" xlink:href="#DejaVuSans-116"/>
      <use x="317.236328" xlink:href="#DejaVuSans-97"/>
      <use x="378.515625" xlink:href="#DejaVuSans-109"/>
      <use x="475.927734" xlink:href="#DejaVuSans-112"/>
     </g>
    </g>
   </g>
   <g id="matplotlib.axis_2">
    <g id="ytick_1">
     <g id="line2d_22">
      <defs>
       <path d="M 0 0 
L -3.5 0 
" id="me23abca9af" style="stroke:#000000;stroke-width:0.8;"/>
      </defs>
      <g>
       <use style="stroke:#000000;stroke-width:0.8;" x="108" xlink:href="#me23abca9af" y="441.301279"/>
      </g>
     </g>
     <g id="text_23">
      <!-- 9500 -->
      <g transform="translate(75.55 445.100498)scale(0.1 -0.1)">
       <use xlink:href="#DejaVuSans-57"/>
       <use x="63.623047" xlink:href="#DejaVuSans-53"/>
       <use x="127.246094" xlink:href="#DejaVuSans-48"/>
       <use x="190.869141" xlink:href="#DejaVuSans-48"/>
      </g>
     </g>
    </g>
    <g id="ytick_2">
     <g id="line2d_23">
      <g>
       <use style="stroke:#000000;stroke-width:0.8;" x="108" xlink:href="#me23abca9af" y="394.209541"/>
      </g>
     </g>
     <g id="text_24">
      <!-- 9750 -->
      <g transform="translate(75.55 398.00876)scale(0.1 -0.1)">
       <use xlink:href="#DejaVuSans-57"/>
       <use x="63.623047" xlink:href="#DejaVuSans-55"/>
       <use x="127.246094" xlink:href="#DejaVuSans-53"/>
       <use x="190.869141" xlink:href="#DejaVuSans-48"/>
      </g>
     </g>
    </g>
    <g id="ytick_3">
     <g id="line2d_24">
      <g>
       <use style="stroke:#000000;stroke-width:0.8;" x="108" xlink:href="#me23abca9af" y="347.117803"/>
      </g>
     </g>
     <g id="text_25">
      <!-- 10000 -->
      <g transform="translate(69.1875 350.917022)scale(0.1 -0.1)">
       <use xlink:href="#DejaVuSans-49"/>
       <use x="63.623047" xlink:href="#DejaVuSans-48"/>
       <use x="127.246094" xlink:href="#DejaVuSans-48"/>
       <use x="190.869141" xlink:href="#DejaVuSans-48"/>
       <use x="254.492188" xlink:href="#DejaVuSans-48"/>
      </g>
     </g>
    </g>
    <g id="ytick_4">
     <g id="line2d_25">
      <g>
       <use style="stroke:#000000;stroke-width:0.8;" x="108" xlink:href="#me23abca9af" y="300.026065"/>
      </g>
     </g>
     <g id="text_26">
      <!-- 10250 -->
      <g transform="translate(69.1875 303.825284)scale(0.1 -0.1)">
       <use xlink:href="#DejaVuSans-49"/>
       <use x="63.623047" xlink:href="#DejaVuSans-48"/>
       <use x="127.246094" xlink:href="#DejaVuSans-50"/>
       <use x="190.869141" xlink:href="#DejaVuSans-53"/>
       <use x="254.492188" xlink:href="#DejaVuSans-48"/>
      </g>
     </g>
    </g>
    <g id="ytick_5">
     <g id="line2d_26">
      <g>
       <use style="stroke:#000000;stroke-width:0.8;" x="108" xlink:href="#me23abca9af" y="252.934327"/>
      </g>
     </g>
     <g id="text_27">
      <!-- 10500 -->
      <g transform="translate(69.1875 256.733546)scale(0.1 -0.1)">
       <use xlink:href="#DejaVuSans-49"/>
       <use x="63.623047" xlink:href="#DejaVuSans-48"/>
       <use x="127.246094" xlink:href="#DejaVuSans-53"/>
       <use x="190.869141" xlink:href="#DejaVuSans-48"/>
       <use x="254.492188" xlink:href="#DejaVuSans-48"/>
      </g>
     </g>
    </g>
    <g id="ytick_6">
     <g id="line2d_27">
      <g>
       <use style="stroke:#000000;stroke-width:0.8;" x="108" xlink:href="#me23abca9af" y="205.842589"/>
      </g>
     </g>
     <g id="text_28">
      <!-- 10750 -->
      <g transform="translate(69.1875 209.641808)scale(0.1 -0.1)">
       <use xlink:href="#DejaVuSans-49"/>
       <use x="63.623047" xlink:href="#DejaVuSans-48"/>
       <use x="127.246094" xlink:href="#DejaVuSans-55"/>
       <use x="190.869141" xlink:href="#DejaVuSans-53"/>
       <use x="254.492188" xlink:href="#DejaVuSans-48"/>
      </g>
     </g>
    </g>
    <g id="ytick_7">
     <g id="line2d_28">
      <g>
       <use style="stroke:#000000;stroke-width:0.8;" x="108" xlink:href="#me23abca9af" y="158.750851"/>
      </g>
     </g>
     <g id="text_29">
      <!-- 11000 -->
      <g transform="translate(69.1875 162.550069)scale(0.1 -0.1)">
       <use xlink:href="#DejaVuSans-49"/>
       <use x="63.623047" xlink:href="#DejaVuSans-49"/>
       <use x="127.246094" xlink:href="#DejaVuSans-48"/>
       <use x="190.869141" xlink:href="#DejaVuSans-48"/>
       <use x="254.492188" xlink:href="#DejaVuSans-48"/>
      </g>
     </g>
    </g>
    <g id="ytick_8">
     <g id="line2d_29">
      <g>
       <use style="stroke:#000000;stroke-width:0.8;" x="108" xlink:href="#me23abca9af" y="111.659113"/>
      </g>
     </g>
     <g id="text_30">
      <!-- 11250 -->
      <g transform="translate(69.1875 115.458331)scale(0.1 -0.1)">
       <use xlink:href="#DejaVuSans-49"/>
       <use x="63.623047" xlink:href="#DejaVuSans-49"/>
       <use x="127.246094" xlink:href="#DejaVuSans-50"/>
       <use x="190.869141" xlink:href="#DejaVuSans-53"/>
       <use x="254.492188" xlink:href="#DejaVuSans-48"/>
      </g>
     </g>
    </g>
    <g id="ytick_9">
     <g id="line2d_30">
      <g>
       <use style="stroke:#000000;stroke-width:0.8;" x="108" xlink:href="#me23abca9af" y="64.567375"/>
      </g>
     </g>
     <g id="text_31">
      <!-- 11500 -->
      <g transform="translate(69.1875 68.366593)scale(0.1 -0.1)">
       <use xlink:href="#DejaVuSans-49"/>
       <use x="63.623047" xlink:href="#DejaVuSans-49"/>
       <use x="127.246094" xlink:href="#DejaVuSans-53"/>
       <use x="190.869141" xlink:href="#DejaVuSans-48"/>
       <use x="254.492188" xlink:href="#DejaVuSans-48"/>
      </g>
     </g>
    </g>
    <g id="text_32">
     <!-- MB -->
     <g transform="translate(63.52375 260.715625)rotate(-90)scale(0.08 -0.08)">
      <defs>
       <path d="M 9.8125 72.90625 
L 24.515625 72.90625 
L 43.109375 23.296875 
L 61.8125 72.90625 
L 76.515625 72.90625 
L 76.515625 0 
L 66.890625 0 
L 66.890625 64.015625 
L 48.09375 14.015625 
L 38.1875 14.015625 
L 19.390625 64.015625 
L 19.390625 0 
L 9.8125 0 
z
" id="DejaVuSans-77"/>
       <path d="M 19.671875 34.8125 
L 19.671875 8.109375 
L 35.5 8.109375 
Q 43.453125 8.109375 47.28125 11.40625 
Q 51.125 14.703125 51.125 21.484375 
Q 51.125 28.328125 47.28125 31.5625 
Q 43.453125 34.8125 35.5 34.8125 
z
M 19.671875 64.796875 
L 19.671875 42.828125 
L 34.28125 42.828125 
Q 41.5 42.828125 45.03125 45.53125 
Q 48.578125 48.25 48.578125 53.8125 
Q 48.578125 59.328125 45.03125 62.0625 
Q 41.5 64.796875 34.28125 64.796875 
z
M 9.8125 72.90625 
L 35.015625 72.90625 
Q 46.296875 72.90625 52.390625 68.21875 
Q 58.5 63.53125 58.5 54.890625 
Q 58.5 48.1875 55.375 44.234375 
Q 52.25 40.28125 46.1875 39.3125 
Q 53.46875 37.75 57.5 32.78125 
Q 61.53125 27.828125 61.53125 20.40625 
Q 61.53125 10.640625 54.890625 5.3125 
Q 48.25 0 35.984375 0 
L 9.8125 0 
z
" id="DejaVuSans-66"/>
      </defs>
      <use xlink:href="#DejaVuSans-77"/>
      <use x="86.279297" xlink:href="#DejaVuSans-66"/>
     </g>
    </g>
   </g>
   <g id="line2d_31">
    <path clip-path="url(#p016f6fdf11)" d="M 132.349091 78.824492 
L 132.621452 78.519338 
L 132.893813 78.467349 
L 133.166174 82.258799 
L 133.438536 82.021456 
L 133.710897 82.911302 
L 133.983258 82.576009 
L 134.255619 79.899691 
L 134.52798 79.388086 
L 134.800342 79.282601 
L 135.072703 78.821479 
L 135.345064 78.12 
L 135.889786 108.783126 
L 136.434509 132.008771 
L 136.70687 175.863612 
L 136.979231 196.912488 
L 137.251592 205.993282 
L 137.523954 231.915589 
L 137.796315 238.655359 
L 138.068676 253.649368 
L 138.341037 286.617352 
L 138.88576 316.257269 
L 139.158121 342.664055 
L 139.702843 355.436088 
L 139.975204 355.404442 
L 140.247566 355.496365 
L 140.519927 356.133799 
L 141.064649 356.760684 
L 141.33701 356.842812 
L 141.609372 355.626715 
L 141.881733 355.782683 
L 142.154094 357.142692 
L 142.971178 356.518821 
L 143.5159 357.358184 
L 143.788261 357.034947 
L 144.060622 356.90309 
L 144.332984 355.207034 
L 144.605345 356.527109 
L 144.877706 356.562522 
L 145.150067 356.787809 
L 145.422428 356.245312 
L 146.239512 356.948298 
L 146.511873 356.273191 
L 146.784234 356.761438 
L 147.056595 358.127475 
L 147.328957 357.127623 
L 147.601318 357.230848 
L 147.873679 356.909117 
L 148.14604 357.898421 
L 148.690763 357.969247 
L 148.963124 357.692724 
L 149.235485 356.872198 
L 149.507846 357.424489 
L 149.780207 357.412434 
L 150.052569 357.611349 
L 150.32493 357.058304 
L 150.597291 358.010687 
L 151.142013 358.136516 
L 151.414375 357.404146 
L 151.686736 357.795949 
L 151.959097 357.521687 
L 152.231458 357.493808 
L 152.503819 357.124609 
L 152.776181 357.451614 
L 153.048542 360.160331 
L 153.320903 360.867837 
L 153.593264 360.769886 
L 154.137987 359.088146 
L 154.410348 358.908821 
L 154.682709 358.894505 
L 154.95507 357.243657 
L 155.227431 357.554839 
L 155.499793 358.720454 
L 155.772154 358.300019 
L 156.044515 358.210356 
L 156.316876 357.725877 
L 156.589237 358.337692 
L 156.861599 358.116926 
L 157.13396 358.330911 
L 157.406321 357.864515 
L 157.678682 358.150079 
L 157.951043 358.878682 
L 158.223405 358.936699 
L 158.495766 358.471056 
L 158.768127 358.792033 
L 159.312849 358.438657 
L 159.58521 360.106835 
L 159.857572 359.904905 
L 160.129933 361.20087 
L 160.402294 361.365126 
L 160.947016 356.751643 
L 161.219378 357.780126 
L 161.491739 357.215779 
L 161.7641 357.255713 
L 162.036461 356.476627 
L 162.308822 356.222708 
L 162.581184 360.511447 
L 162.853545 360.223622 
L 163.125906 359.711264 
L 163.398267 357.44634 
L 163.670628 358.653395 
L 164.215351 357.918764 
L 164.487712 357.347636 
L 164.760073 358.023496 
L 165.032434 356.977683 
L 165.577157 355.798506 
L 165.849518 356.06448 
L 166.121879 357.685943 
L 166.39424 357.386816 
L 166.666602 357.505864 
L 166.938963 357.011589 
L 167.211324 357.117828 
L 167.483685 357.509631 
L 167.756046 357.367226 
L 168.028408 357.094471 
L 168.57313 358.700864 
L 168.845491 358.742305 
L 169.117852 358.334679 
L 169.390214 357.562374 
L 169.662575 358.45448 
L 169.934936 358.804842 
L 170.479658 357.471958 
L 170.75202 357.910476 
L 171.024381 357.881091 
L 171.296742 358.073979 
L 171.841464 356.738834 
L 172.113826 358.107885 
L 172.386187 358.297759 
L 172.658548 358.266866 
L 172.930909 357.762796 
L 173.475631 360.939417 
L 173.747993 360.597342 
L 174.020354 360.445142 
L 174.292715 359.006772 
L 174.565076 359.626122 
L 174.837437 359.373711 
L 175.109799 358.63908 
L 175.38216 358.337692 
L 175.654521 358.883957 
L 175.926882 358.282689 
L 176.199243 358.640586 
L 176.471605 358.153093 
L 176.743966 358.092815 
L 177.016327 359.290076 
L 177.288688 359.683386 
L 177.561049 359.519883 
L 177.833411 359.218496 
L 178.105772 359.168014 
L 178.378133 359.403849 
L 178.922855 358.26762 
L 179.467578 358.687301 
L 179.739939 358.647368 
L 180.0123 358.78902 
L 180.284661 358.654149 
L 180.557023 359.53646 
L 180.829384 359.358641 
L 181.101745 358.977387 
L 181.374106 358.325637 
L 181.646467 358.569007 
L 181.918829 359.305145 
L 182.19119 359.253156 
L 182.463551 358.028017 
L 182.735912 357.649776 
L 183.008273 358.642847 
L 183.552996 358.440164 
L 183.825357 358.122954 
L 184.097718 358.794294 
L 184.370079 359.768528 
L 184.914802 358.155353 
L 185.459524 358.900533 
L 185.731885 358.987935 
L 186.004246 358.868887 
L 186.276608 358.396463 
L 186.548969 359.351107 
L 186.82133 359.367683 
L 187.093691 359.516116 
L 187.366052 359.149931 
L 187.638414 359.763253 
L 187.910775 359.2411 
L 188.183136 359.302131 
L 188.455497 358.033291 
L 188.727858 359.046706 
L 189.00022 359.591463 
L 189.544942 359.480703 
L 189.817303 359.155958 
L 190.089664 360.090259 
L 190.362026 360.145262 
L 190.634387 359.400082 
L 190.906748 359.041431 
L 191.179109 359.363916 
L 191.45147 360.39918 
L 191.723832 360.213074 
L 191.996193 360.427059 
L 192.268554 359.664549 
L 192.540915 360.52953 
L 192.813276 360.124165 
L 193.085638 360.046557 
L 193.357999 359.266718 
L 193.63036 359.962169 
L 193.902721 362.108045 
L 194.175082 362.285864 
L 194.447444 361.707954 
L 194.719805 358.797308 
L 194.992166 359.764007 
L 195.264527 359.72332 
L 195.536888 359.247882 
L 195.80925 358.524552 
L 196.081611 360.337396 
L 196.353972 360.925101 
L 196.898694 359.436248 
L 197.171056 359.535706 
L 197.443417 360.754817 
L 197.715778 360.317052 
L 197.988139 360.207046 
L 198.2605 359.764007 
L 198.532862 359.596737 
L 198.805223 359.898124 
L 199.077584 359.905659 
L 199.349945 359.365422 
L 199.622306 359.195892 
L 199.894667 360.155057 
L 200.167029 360.098547 
L 200.43939 359.426453 
L 200.711751 359.581668 
L 201.256473 359.362409 
L 201.801196 358.119187 
L 202.073557 359.74291 
L 202.345918 360.021693 
L 202.618279 359.821271 
L 202.890641 359.450564 
L 203.163002 359.304392 
L 203.435363 360.246226 
L 203.707724 360.345684 
L 203.980085 360.292941 
L 204.252447 359.59297 
L 204.524808 360.902497 
L 204.797169 360.683238 
L 205.06953 360.262803 
L 205.341891 359.453578 
L 205.614253 359.922989 
L 205.886614 360.762352 
L 206.431336 359.825038 
L 206.703697 360.288421 
L 206.976059 360.356233 
L 207.24842 359.996075 
L 207.520781 359.932784 
L 207.793142 359.239593 
L 208.065503 360.656866 
L 208.610226 360.763859 
L 208.882587 360.161838 
L 209.154948 360.17088 
L 209.427309 360.026967 
L 209.699671 360.078203 
L 209.972032 358.948001 
L 210.244393 359.711264 
L 210.516754 360.907771 
L 210.789115 360.945444 
L 211.061477 360.752557 
L 211.333838 360.091012 
L 211.606199 361.141346 
L 211.87856 361.250599 
L 212.423282 359.91018 
L 212.695644 360.158824 
L 212.968005 361.215186 
L 213.240366 361.184294 
L 213.512727 360.954486 
L 213.785088 359.694688 
L 214.05745 361.377182 
L 214.329811 360.949965 
L 214.602172 364.146929 
L 214.874533 362.868294 
L 215.146894 363.255577 
L 215.419256 363.842528 
L 215.691617 364.009798 
L 215.963978 362.847951 
L 216.236339 362.295659 
L 216.5087 364.525924 
L 217.053423 363.70163 
L 217.325784 362.903707 
L 217.598145 363.877188 
L 218.142868 364.289335 
L 218.68759 362.809524 
L 218.959951 363.831226 
L 219.232312 363.327156 
L 219.504674 363.368597 
L 219.777035 363.117692 
L 220.049396 364.683398 
L 220.321757 364.65552 
L 220.86648 363.804101 
L 221.138841 364.085898 
L 221.411202 363.720466 
L 221.683563 363.771702 
L 221.955924 363.503468 
L 222.228286 363.0107 
L 222.500647 365.025473 
L 222.773008 365.107601 
L 223.045369 364.893616 
L 223.31773 363.928424 
L 223.590092 364.513115 
L 223.862453 364.697714 
L 224.407175 363.360309 
L 224.679536 363.909587 
L 224.951897 365.217607 
L 225.224259 364.806214 
L 225.49662 364.856696 
L 225.768981 364.385779 
L 226.041342 364.460372 
L 226.313703 364.177821 
L 226.586065 364.07761 
L 226.858426 363.437916 
L 227.130787 363.945753 
L 227.403148 364.726346 
L 227.675509 364.78361 
L 227.947871 366.279997 
L 228.220232 366.60022 
L 228.492593 367.818578 
L 228.764954 366.051696 
L 229.309677 364.67285 
L 229.582038 365.158836 
L 229.854399 365.876138 
L 230.12676 365.916825 
L 230.399121 365.106094 
L 230.671483 367.108058 
L 231.216205 367.762821 
L 231.488566 365.693799 
L 231.760927 365.380356 
L 232.033289 366.599467 
L 232.578011 366.032859 
L 232.850372 364.85971 
L 233.122733 364.47092 
L 233.395095 365.488102 
L 233.939817 365.226649 
L 234.212178 364.85971 
L 234.484539 366.041147 
L 234.756901 366.00272 
L 235.029262 365.81586 
L 235.301623 365.060886 
L 235.573984 365.334394 
L 235.846345 366.364385 
L 236.118707 366.203143 
L 236.391068 365.773666 
L 236.663429 365.711128 
L 237.480513 365.983884 
L 237.752874 364.803953 
L 238.025235 366.078821 
L 238.297596 366.14814 
L 238.569957 366.053203 
L 238.842318 365.81586 
L 239.387041 366.048682 
L 239.931763 365.629 
L 240.204124 364.919987 
L 240.476486 366.041147 
L 241.021208 366.42843 
L 241.293569 365.812847 
L 241.56593 368.588622 
L 241.838292 369.36394 
L 242.110653 369.286333 
L 242.383014 366.861674 
L 242.655375 365.914565 
L 242.927736 367.34314 
L 243.200098 367.509656 
L 243.472459 366.322944 
L 243.74482 365.641056 
L 244.289542 366.125536 
L 244.561904 364.999855 
L 244.834265 364.965195 
L 245.378987 366.266434 
L 245.651348 366.134577 
L 245.92371 366.228007 
L 246.196071 365.741267 
L 246.468432 366.377194 
L 246.740793 366.342534 
L 247.013154 366.420895 
L 247.285516 365.617698 
L 247.557877 366.303354 
L 247.830238 365.593587 
L 248.102599 365.544612 
L 248.37496 364.863477 
L 248.647322 364.693947 
L 248.919683 366.787834 
L 249.192044 366.565561 
L 249.464405 366.591932 
L 249.736766 365.923606 
L 250.009128 365.769145 
L 250.281489 366.530148 
L 250.55385 366.542203 
L 250.826211 365.526529 
L 251.098572 365.858055 
L 251.370933 367.077919 
L 251.643295 367.022162 
L 252.188017 365.836958 
L 252.460378 366.295066 
L 252.732739 366.142865 
L 253.005101 366.28075 
L 253.277462 365.741267 
L 253.549823 366.40884 
L 253.822184 365.739007 
L 254.366907 365.800038 
L 254.639268 365.414262 
L 254.911629 366.713241 
L 255.18399 366.480419 
L 255.456351 366.593439 
L 255.728713 365.967307 
L 256.001074 365.933401 
L 256.273435 366.105192 
L 256.545796 365.160343 
L 256.818157 364.85971 
L 257.090519 366.118754 
L 257.36288 366.607002 
L 257.635241 366.31541 
L 257.907602 366.494735 
L 258.179963 365.790996 
L 258.452325 366.231021 
L 258.724686 366.270202 
L 258.997047 366.145879 
L 259.269408 365.604136 
L 259.814131 366.851879 
L 260.086492 367.046273 
L 260.903575 366.431444 
L 261.175937 366.491721 
L 261.448298 366.308628 
L 261.720659 365.60941 
L 261.99302 368.536633 
L 262.537743 368.890009 
L 262.810104 366.472884 
L 263.082465 365.729965 
L 263.354826 367.265532 
L 263.627187 366.919691 
L 264.17191 365.500911 
L 264.444271 366.93476 
L 264.716632 367.517191 
L 264.988993 367.257998 
L 265.261354 366.441992 
L 265.533716 366.512818 
L 265.806077 366.117248 
L 266.078438 366.196362 
L 266.62316 365.288433 
L 266.895522 366.769751 
L 267.440244 366.884278 
L 267.712605 366.310135 
L 268.257328 367.235394 
L 268.80205 366.937774 
L 269.074411 365.955252 
L 269.346772 367.091481 
L 269.891495 367.430542 
L 270.163856 366.619811 
L 270.436217 367.297178 
L 270.98094 367.01086 
L 271.253301 366.448773 
L 271.525662 366.942295 
L 271.798023 366.814205 
L 272.070384 366.952843 
L 272.615107 366.081081 
L 272.887468 368.917887 
L 273.159829 368.757399 
L 273.43219 368.874186 
L 273.704552 368.573553 
L 273.976913 369.059539 
L 274.249274 368.585608 
L 274.793996 368.606705 
L 275.066358 367.546576 
L 275.338719 368.480123 
L 275.883441 368.575813 
L 276.155802 367.575208 
L 276.428164 368.004684 
L 276.700525 368.665476 
L 276.972886 368.691094 
L 277.245247 368.287235 
L 277.517608 368.938984 
L 277.789969 368.498206 
L 278.062331 368.773975 
L 278.607053 367.372525 
L 278.879414 369.169546 
L 279.151775 368.949533 
L 279.696498 367.730422 
L 279.968859 368.175722 
L 280.24122 368.923915 
L 280.513581 368.55773 
L 280.785943 368.487657 
L 281.058304 367.759807 
L 281.330665 369.770059 
L 281.603026 369.907191 
L 281.875387 369.800952 
L 282.147749 369.053512 
L 282.42011 369.011317 
L 282.692471 369.666081 
L 282.964832 369.721084 
L 283.509555 368.809388 
L 283.781916 368.972891 
L 284.054277 369.006043 
L 284.326638 368.315867 
L 284.598999 367.209022 
L 284.871361 368.421352 
L 285.143722 368.986453 
L 285.416083 368.377651 
L 285.688444 376.314681 
L 285.960805 373.797345 
L 286.233167 372.943666 
L 286.505528 370.946223 
L 287.05025 369.063307 
L 287.322611 370.107613 
L 287.867334 369.816021 
L 288.139695 369.093445 
L 288.412056 369.521415 
L 288.684417 370.362285 
L 288.956779 370.388657 
L 289.22914 372.270819 
L 289.501501 371.833808 
L 289.773862 372.899965 
L 290.046223 372.443363 
L 290.318585 370.569489 
L 290.590946 370.016443 
L 290.863307 370.933414 
L 291.952752 369.696973 
L 292.225113 370.70662 
L 292.769835 370.59586 
L 293.042196 369.906437 
L 293.314558 371.049448 
L 293.586919 371.228773 
L 293.85928 370.705866 
L 294.131641 369.623133 
L 294.676364 371.292064 
L 295.221086 371.226513 
L 295.493447 370.747307 
L 295.765808 369.259962 
L 296.03817 369.458877 
L 296.310531 371.914429 
L 296.582892 371.500775 
L 296.855253 372.021421 
L 297.672337 369.833351 
L 297.944698 369.547786 
L 298.217059 370.284678 
L 298.48942 370.369066 
L 298.761782 370.281664 
L 299.034143 372.534533 
L 299.306504 373.3204 
L 299.578865 373.428146 
L 299.851226 371.285283 
L 300.123588 370.523527 
L 300.395949 370.841491 
L 300.66831 371.411112 
L 300.940671 370.797036 
L 301.213032 370.852039 
L 301.485394 370.108367 
L 301.757755 371.202402 
L 302.030116 370.891973 
L 302.302477 370.790255 
L 302.574838 370.240223 
L 302.8472 370.184467 
L 303.119561 370.906289 
L 303.391922 370.970334 
L 303.664283 370.373587 
L 303.936644 370.27865 
L 304.209005 370.833956 
L 304.753728 370.964306 
L 305.026089 370.44592 
L 305.29845 370.308035 
L 305.570811 371.324464 
L 305.843173 371.276995 
L 306.115534 370.591339 
L 306.387895 370.922112 
L 306.660256 371.82552 
L 307.204979 371.58667 
L 307.749701 370.40674 
L 308.022062 370.574763 
L 308.566785 369.539498 
L 309.111507 371.151919 
L 309.656229 370.662919 
L 309.928591 372.10581 
L 310.200952 371.605507 
L 310.745674 371.500022 
L 311.018035 370.408247 
L 311.290397 371.390015 
L 311.835119 371.206169 
L 312.10748 370.524281 
L 312.379841 370.773679 
L 312.652203 371.462348 
L 312.924564 371.641674 
L 313.469286 370.70436 
L 313.741647 370.851286 
L 314.014009 370.744293 
L 314.28637 369.762525 
L 314.558731 369.528196 
L 314.831092 370.159602 
L 315.103453 371.282269 
L 315.648176 371.236308 
L 315.920537 370.977868 
L 316.465259 371.588931 
L 316.737621 371.62133 
L 317.009982 370.206317 
L 317.282343 371.574615 
L 317.554704 371.516598 
L 317.827065 371.28679 
L 318.099426 370.815873 
L 318.644149 371.022323 
L 318.91651 370.353244 
L 319.188871 370.696825 
L 319.461232 370.195769 
L 319.733594 371.248363 
L 320.005955 371.426182 
L 320.278316 371.307887 
L 320.550677 370.604148 
L 320.823038 370.988417 
L 321.0954 371.830794 
L 321.367761 371.312408 
L 321.912483 371.084107 
L 322.184844 371.740378 
L 322.729567 371.818738 
L 323.001928 370.973348 
L 323.274289 371.545983 
L 323.54665 371.830794 
L 323.819012 370.718675 
L 324.091373 370.78272 
L 324.363734 371.007254 
L 324.636095 372.506655 
L 324.908456 372.511929 
L 325.180818 372.124646 
L 325.453179 371.194114 
L 325.72554 372.221844 
L 325.997901 372.470488 
L 326.270262 372.303218 
L 326.814985 371.197128 
L 327.087346 372.086973 
L 327.632068 371.296585 
L 327.90443 371.681607 
L 328.176791 372.643786 
L 328.449152 372.163073 
L 328.721513 372.212802 
L 328.993874 371.849631 
L 329.266236 372.784684 
L 330.083319 371.319189 
L 330.35568 374.252439 
L 330.628041 374.620885 
L 330.900403 374.749728 
L 331.172764 372.519464 
L 331.445125 372.087726 
L 331.717486 373.24882 
L 331.989847 373.391979 
L 332.262209 372.92935 
L 332.53457 372.243694 
L 332.806931 372.832906 
L 333.079292 372.692008 
L 333.896376 371.629618 
L 334.168737 372.615907 
L 334.441098 372.476516 
L 334.713459 372.600085 
L 334.985821 371.594959 
L 335.530543 372.401923 
L 335.802904 372.282875 
L 336.075265 371.4518 
L 336.619988 373.368622 
L 336.892349 373.257862 
L 337.437071 372.507408 
L 337.709433 373.148609 
L 337.981794 373.044631 
L 338.254155 373.257862 
L 338.526516 372.506655 
L 338.798877 372.951954 
L 339.071239 372.42528 
L 339.615961 372.207528 
L 339.888322 374.737673 
L 340.160683 378.658719 
L 340.433045 378.918666 
L 340.705406 378.939009 
L 340.977767 377.69202 
L 341.250128 378.288767 
L 341.522489 378.248079 
L 341.794851 378.433432 
L 342.067212 378.056698 
L 342.339573 378.369388 
L 342.611934 379.656311 
L 343.156656 379.165803 
L 343.429018 378.545699 
L 343.701379 379.826594 
L 343.97374 386.790897 
L 344.246101 385.555964 
L 344.790824 384.088208 
L 345.063185 386.081884 
L 345.335546 384.007587 
L 345.607907 380.744318 
L 346.15263 380.909328 
L 346.424991 380.672739 
L 346.969713 379.519179 
L 347.514436 381.160986 
L 347.786797 380.977893 
L 348.059158 380.330664 
L 348.331519 380.670478 
L 348.60388 380.592118 
L 348.876242 380.764662 
L 349.148603 380.693082 
L 349.420964 379.253205 
L 349.693325 380.974126 
L 349.965686 381.246128 
L 350.238048 381.20318 
L 350.510409 380.637326 
L 350.78277 380.703631 
L 351.055131 381.336544 
L 351.327492 380.833981 
L 351.599854 380.595885 
L 351.872215 379.937354 
L 352.689298 380.042086 
L 352.96166 379.763303 
L 353.234021 380.445191 
L 353.506382 380.599652 
L 353.778743 380.394709 
L 354.051104 379.797963 
L 354.323466 379.769331 
L 354.595827 380.517524 
L 354.868188 380.367584 
L 355.140549 380.461014 
L 355.41291 379.924545 
L 355.685272 382.321326 
L 356.229994 380.907821 
L 356.502355 380.562732 
L 357.047077 381.584435 
L 357.319439 381.008032 
L 357.5918 381.035157 
L 357.864161 380.822679 
L 358.136522 381.610053 
L 358.681245 380.334432 
L 358.953606 380.378886 
L 359.225967 380.115173 
L 359.498328 381.391547 
L 359.770689 381.288322 
L 360.043051 380.628284 
L 360.315412 380.638079 
L 360.587773 382.285913 
L 360.860134 381.530939 
L 361.132495 381.607039 
L 361.404857 380.555951 
L 362.22194 381.425453 
L 362.494301 380.436903 
L 362.766663 381.174548 
L 363.039024 381.491758 
L 363.311385 381.440522 
L 363.856107 380.743565 
L 364.128469 380.77069 
L 364.40083 383.115481 
L 364.673191 383.27371 
L 364.945552 382.640797 
L 365.217913 383.425157 
L 365.490275 382.334135 
L 366.034997 382.236184 
L 366.307358 381.219756 
L 366.579719 382.2505 
L 366.852081 382.277625 
L 367.396803 382.823889 
L 367.941525 384.205749 
L 368.213887 382.062133 
L 368.758609 381.550529 
L 369.03097 382.483322 
L 369.575692 382.189469 
L 369.848054 381.646219 
L 370.120415 382.193237 
L 370.665137 382.04179 
L 370.937498 381.565598 
L 371.20986 381.540734 
L 371.482221 381.271746 
L 371.754582 381.453331 
L 372.026943 381.219003 
L 372.299304 380.702877 
L 372.571666 381.882055 
L 372.844027 381.983019 
L 373.116388 384.648035 
L 373.388749 384.158281 
L 373.66111 384.5644 
L 373.933472 385.758646 
L 374.205833 385.587609 
L 374.478194 384.186913 
L 374.750555 387.511213 
L 375.022916 388.780806 
L 375.295278 388.930746 
L 375.567639 388.722789 
L 375.84 388.181045 
L 376.112361 388.281257 
L 376.657084 389.091988 
L 376.929445 388.344548 
L 377.201806 389.009107 
L 377.474167 390.119718 
L 377.746528 390.027042 
L 378.291251 388.866701 
L 378.563612 389.060342 
L 378.835973 388.140358 
L 379.380696 387.572997 
L 379.653057 387.398192 
L 379.925418 388.615796 
L 380.47014 388.437224 
L 380.742502 388.061998 
L 381.014863 389.816071 
L 381.559585 389.84847 
L 381.831946 388.910402 
L 382.376669 389.078426 
L 382.64903 388.982735 
L 383.193752 387.639302 
L 383.466113 388.538943 
L 384.010836 388.294066 
L 384.283197 387.644576 
L 384.555558 389.385087 
L 384.827919 389.166581 
L 385.372642 388.44928 
L 385.645003 388.456815 
L 385.917364 389.067124 
L 386.189725 389.032464 
L 386.462087 389.171856 
L 386.734448 388.60148 
L 387.006809 389.562905 
L 387.551531 389.709078 
L 388.096254 388.971433 
L 388.368615 389.104797 
L 388.640976 388.894579 
L 388.913337 388.366398 
L 389.185699 388.099671 
L 389.45806 389.423514 
L 389.730421 389.525985 
L 390.002782 389.318782 
L 390.275143 388.043914 
L 390.547505 388.826014 
L 390.819866 389.056575 
L 391.092227 389.113085 
L 391.364588 388.777038 
L 391.636949 389.018148 
L 391.909311 389.621676 
L 392.454033 389.626197 
L 392.726394 388.948829 
L 392.998755 390.438435 
L 393.271117 389.448378 
L 393.543478 389.456666 
L 393.815839 388.870468 
L 394.0882 388.798889 
L 394.632923 388.988763 
L 394.905284 388.062751 
L 395.177645 387.771159 
L 395.450006 388.605248 
L 395.722367 388.960131 
L 395.994728 389.008353 
L 396.26709 388.584904 
L 396.539451 388.861427 
L 396.811812 389.577975 
L 397.084173 389.376045 
L 397.356534 388.893072 
L 397.901257 390.281714 
L 398.173618 390.191298 
L 398.445979 390.250068 
L 398.990702 392.343955 
L 399.263063 392.524787 
L 399.535424 389.822098 
L 399.807785 388.959378 
L 400.080146 389.834907 
L 400.352508 390.066975 
L 400.89723 389.523725 
L 401.169591 389.303712 
L 401.441952 390.07225 
L 401.986675 389.599072 
L 402.259036 388.774778 
L 402.803758 390.220683 
L 403.07612 390.03759 
L 403.348481 389.470982 
L 403.620842 389.612634 
L 403.893203 390.073003 
L 404.437926 390.044371 
L 404.710287 389.470229 
L 404.982648 390.591389 
L 405.255009 390.537139 
L 405.52737 390.230478 
L 405.799732 389.674419 
L 406.344454 390.591389 
L 406.616815 390.535632 
L 407.161538 390.049646 
L 407.433899 390.872432 
L 407.70626 391.042716 
L 408.250982 390.311852 
L 408.523344 389.372278 
L 408.795705 390.563511 
L 409.340427 390.154378 
L 409.612788 389.465708 
L 409.885149 390.312606 
L 410.429872 390.199586 
L 410.702233 389.635238 
L 410.974594 390.132527 
L 411.246955 390.293016 
L 411.519317 390.243287 
L 412.064039 389.208776 
L 412.3364 396.428504 
L 412.608761 396.79695 
L 412.881123 396.791676 
L 413.153484 395.984712 
L 413.425845 396.530222 
L 413.698206 396.609336 
L 413.970567 396.158009 
L 414.242929 395.271931 
L 414.51529 395.554481 
L 414.787651 397.166149 
L 415.060012 396.918258 
L 415.332373 396.25596 
L 415.604735 395.916146 
L 415.877096 397.001893 
L 416.149457 396.846679 
L 416.421818 396.381036 
L 416.966541 400.824989 
L 417.238902 399.412237 
L 417.511263 399.303737 
L 418.055985 398.382246 
L 418.873069 397.80509 
L 419.14543 397.071966 
L 419.417791 399.012899 
L 419.690153 399.397921 
L 419.962514 398.956389 
L 420.234875 398.799667 
L 420.507236 399.030982 
L 420.779597 398.795146 
L 421.051959 398.262445 
L 421.32432 398.233813 
L 421.596681 397.967085 
L 421.869042 399.702322 
L 422.141403 399.109343 
L 422.413764 399.325588 
L 422.686126 398.692675 
L 422.958487 398.680619 
L 423.230848 399.716638 
L 423.503209 399.595329 
L 423.77557 398.631644 
L 424.047932 398.77631 
L 424.320293 400.018778 
L 424.865015 399.901991 
L 425.137376 399.39566 
L 425.409738 400.953078 
L 425.682099 401.1098 
L 425.95446 403.492265 
L 426.226821 403.544254 
L 426.499182 401.650789 
L 426.771544 400.933488 
L 427.043905 400.877731 
L 427.588627 399.794998 
L 427.860988 400.994519 
L 428.405711 401.01637 
L 428.678072 400.207145 
L 429.222794 401.604828 
L 429.495156 401.48804 
L 430.039878 400.361606 
L 430.312239 401.228094 
L 430.5846 401.178365 
L 430.856962 400.957599 
L 431.129323 400.515313 
L 431.401684 401.160282 
L 431.674045 400.895061 
L 431.946406 401.171584 
L 432.218768 400.66224 
L 432.491129 400.491202 
L 432.76349 403.864478 
L 433.035851 403.789885 
L 433.308212 404.013665 
L 433.580574 401.406666 
L 433.852935 401.780386 
L 434.125296 401.95519 
L 434.397657 401.97026 
L 434.670018 400.79711 
L 434.942379 400.94479 
L 435.214741 400.608743 
L 435.487102 400.901842 
L 435.759463 402.919629 
L 436.031824 402.815651 
L 436.304185 403.629396 
L 436.848908 400.813687 
L 437.121269 400.53189 
L 437.39363 401.625925 
L 437.665991 401.045755 
L 437.938353 400.925953 
L 438.210714 400.389484 
L 438.483075 400.782041 
L 438.755436 401.95293 
L 439.300159 401.592772 
L 439.57252 401.150487 
L 439.844881 402.58961 
L 440.117242 402.835994 
L 440.661965 401.801483 
L 440.934326 402.169929 
L 441.206687 402.825446 
L 441.479048 402.854078 
L 441.751409 402.712426 
L 442.023771 401.888885 
L 442.296132 402.602419 
L 443.113215 400.511546 
L 443.657938 402.521045 
L 443.930299 402.21363 
L 444.20266 402.243015 
L 444.475021 401.686202 
L 444.747383 402.958056 
L 445.019744 402.197807 
L 445.292105 402.169175 
L 445.564466 401.735931 
L 445.836827 403.431987 
L 446.109189 403.205947 
L 446.38155 403.294103 
L 446.653911 408.666328 
L 446.926272 408.997854 
L 447.198633 408.725099 
L 447.470995 408.887094 
L 447.743356 407.734289 
L 448.015717 407.729014 
L 448.288078 409.673715 
L 448.560439 409.7792 
L 448.8328 409.45973 
L 449.377523 408.198425 
L 449.649884 408.957167 
L 449.922245 408.954906 
L 450.466968 408.000263 
L 450.739329 408.910452 
L 451.284051 408.990319 
L 451.556412 408.427479 
L 451.828774 409.568229 
L 452.101135 409.248759 
L 452.645857 407.924162 
L 452.918218 407.932451 
L 453.19058 408.580433 
L 453.462941 408.557075 
L 453.735302 411.928844 
L 454.007663 411.578481 
L 454.824747 411.637252 
L 455.097108 410.9742 
L 455.369469 411.521218 
L 455.64183 413.153983 
L 455.914192 412.808894 
L 456.186553 411.866306 
L 456.731275 412.692107 
L 457.003636 412.715464 
L 457.548359 411.142977 
L 457.82072 411.550603 
L 458.093081 413.062059 
L 458.365442 412.887255 
L 458.637804 412.355307 
L 459.182526 413.031921 
L 459.727248 413.068087 
L 459.99961 411.989121 
L 460.271971 413.432012 
L 460.544332 413.639216 
L 460.816693 413.331801 
L 461.089054 412.814922 
L 461.361415 411.876855 
L 461.633777 412.648406 
L 462.178499 412.711697 
L 462.45086 411.96501 
L 462.723221 411.873087 
L 462.995583 412.031315 
L 463.540305 411.518957 
L 463.812666 411.605606 
L 464.085027 412.651419 
L 464.357389 412.551208 
L 464.62975 411.858018 
L 464.902111 412.493191 
L 465.174472 413.557841 
L 465.446833 413.559348 
L 465.719195 413.265496 
L 465.991556 412.224203 
L 466.263917 413.053018 
L 466.536278 413.126858 
L 466.808639 415.226019 
L 467.081001 414.697838 
L 467.625723 415.449045 
L 467.898084 413.672368 
L 468.170445 413.62716 
L 468.442807 412.80136 
L 468.715168 412.798346 
L 468.987529 413.080143 
L 469.25989 413.148708 
L 469.804613 412.016246 
L 470.076974 413.711549 
L 470.349335 413.629421 
L 470.621696 412.421612 
L 471.166419 412.800606 
L 471.43878 412.604704 
L 471.711141 412.699641 
L 471.983502 412.113443 
L 472.255863 412.757658 
L 472.528225 412.723752 
L 472.800586 412.829991 
L 473.072947 412.166186 
L 473.345308 412.281467 
L 473.617669 411.244695 
L 473.890031 411.393128 
L 474.162392 411.342646 
L 474.434753 410.26142 
L 474.707114 412.472094 
L 474.979475 412.670256 
L 475.251836 412.579087 
L 475.524198 411.175376 
L 475.796559 411.386347 
L 476.06892 411.751025 
L 476.341281 411.83014 
L 476.613642 411.045026 
L 477.158365 412.637857 
L 477.430726 412.755398 
L 477.703087 412.691353 
L 477.975448 411.796234 
L 478.24781 412.955067 
L 478.520171 412.867665 
L 478.792532 412.922668 
L 479.064893 412.408049 
L 479.337254 412.696628 
L 479.609616 412.626555 
L 479.881977 412.721492 
L 480.154338 411.958983 
L 480.426699 411.573961 
L 480.69906 414.367066 
L 480.971422 414.541117 
L 481.243783 414.465016 
L 481.516144 414.024991 
L 481.788505 414.217126 
L 482.060866 414.660918 
L 482.333228 414.525294 
L 482.87795 413.060553 
L 483.150311 414.525294 
L 483.695034 414.163629 
L 483.967395 413.694972 
L 484.239756 414.526047 
L 484.512117 414.753595 
L 484.784478 414.592353 
L 485.05684 413.927794 
L 485.601562 415.001486 
L 485.873923 414.976621 
L 486.146284 414.156848 
L 486.418646 413.97903 
L 486.691007 413.987318 
L 486.963368 414.23973 
L 487.235729 414.083762 
L 487.50809 413.174326 
L 487.780451 413.27077 
L 488.052813 414.269115 
L 488.325174 416.718639 
L 488.597535 416.891936 
L 488.869896 416.411977 
L 489.142257 417.203119 
L 489.414619 416.958995 
L 489.68698 416.893443 
L 489.959341 416.610893 
L 490.231702 417.350798 
L 490.504063 417.32518 
L 490.776425 417.182021 
L 491.048786 416.6124 
L 491.321147 417.442721 
L 491.593508 417.194077 
L 491.865869 417.235518 
L 492.138231 417.054685 
L 492.410592 415.543982 
L 492.682953 416.96879 
L 492.955314 416.766861 
L 493.227675 416.789465 
L 493.500037 419.336939 
L 493.772398 418.480246 
L 494.044759 419.147819 
L 494.31712 419.038566 
L 494.589481 419.312828 
L 494.861843 418.918765 
L 495.134204 419.743059 
L 495.406565 419.878683 
L 495.678926 419.688055 
L 495.951287 419.119187 
L 496.223649 419.497428 
L 496.49601 420.435495 
L 496.768371 420.314187 
L 497.313093 418.563881 
L 497.585455 420.510089 
L 498.130177 420.221511 
L 498.402538 419.698604 
L 498.674899 420.732362 
L 498.947261 420.061022 
L 499.219622 430.92 
L 499.491983 430.047484 
L 499.764344 427.547478 
L 500.036705 423.826101 
L 500.309067 423.598553 
L 500.853789 421.439115 
L 501.12615 422.471365 
L 501.398511 420.070064 
L 501.670872 419.630038 
L 501.943234 418.269275 
L 502.215595 418.797456 
L 502.487956 419.764156 
L 502.760317 419.679014 
L 503.032678 419.055142 
L 503.30504 419.209603 
L 503.577401 419.659424 
L 503.849762 421.339657 
L 504.122123 421.317053 
L 504.394484 420.74291 
L 504.666846 420.725581 
L 504.939207 419.902794 
L 505.211568 419.865874 
L 505.483929 419.18926 
L 505.75629 418.90897 
L 506.028652 419.161381 
L 506.301013 418.230849 
L 506.573374 417.831511 
L 506.845735 417.019272 
L 507.118096 418.817047 
L 507.390458 418.961712 
L 507.93518 417.84432 
L 508.207541 417.995013 
L 508.479902 419.055896 
L 508.752264 419.015209 
L 509.024625 418.392844 
L 509.296986 417.447996 
L 509.569347 418.68745 
L 510.11407 418.531482 
L 510.386431 417.910625 
L 510.658792 418.827595 
L 511.203514 418.185641 
L 511.475876 416.974064 
L 512.020598 418.722863 
L 512.292959 418.66786 
L 512.56532 418.08769 
L 512.837682 417.992753 
L 513.110043 417.370388 
L 513.382404 417.539919 
L 513.927126 416.963516 
L 514.199487 417.298809 
L 514.471849 417.943024 
L 514.74421 417.99426 
L 515.016571 417.921927 
L 515.288932 417.445735 
L 515.561293 418.187147 
L 516.106016 418.105773 
L 516.378377 417.573825 
L 516.650738 417.8074 
L 517.195461 417.936243 
L 517.740183 417.210653 
L 518.012544 417.92268 
L 518.557267 417.450256 
L 518.829628 416.724666 
L 519.101989 417.818702 
L 519.37435 417.867677 
L 519.646711 418.086183 
L 519.919073 416.453418 
L 520.191434 416.511435 
L 520.463795 416.382592 
L 521.008517 416.325329 
L 521.280879 415.854411 
L 521.55324 417.215174 
L 522.097962 417.143595 
L 522.915046 415.529667 
L 523.187407 415.45432 
L 523.459768 414.755855 
L 523.732129 415.227526 
L 524.004491 417.272438 
L 524.276852 417.47512 
L 524.549213 417.179761 
L 524.821574 416.10833 
L 525.093935 416.698295 
L 525.366297 416.262791 
L 525.911019 414.91333 
L 526.455741 416.576987 
L 526.728103 416.418005 
L 527.000464 415.713513 
L 527.272825 416.03449 
L 527.545186 415.71954 
L 527.817547 415.64344 
L 528.089908 415.265953 
L 528.36227 414.373847 
L 528.634631 414.519266 
L 528.906992 415.75194 
L 529.179353 415.874755 
L 529.451714 415.031624 
L 529.724076 415.040666 
L 529.996437 414.67222 
L 530.268798 414.530568 
L 530.541159 414.660918 
L 530.81352 413.917245 
L 531.085882 415.32623 
L 531.630604 415.418153 
L 531.902965 414.84175 
L 532.175326 415.455827 
L 532.447688 415.716527 
L 532.720049 415.644947 
L 532.99241 415.898112 
L 533.264771 415.535694 
L 533.537132 416.705076 
L 533.809494 416.552876 
L 534.081855 416.603358 
L 534.354216 414.755102 
L 534.626577 414.76565 
L 534.898938 415.40007 
L 535.443661 420.146164 
L 535.716022 420.320215 
L 535.988383 419.205836 
L 536.260744 419.074733 
L 536.533106 418.787661 
L 536.805467 417.500738 
L 537.350189 416.607879 
L 537.62255 416.310259 
L 537.894912 415.683374 
L 538.167273 415.743651 
L 538.439634 416.500887 
L 538.711995 416.793985 
L 538.984356 416.56041 
L 539.256718 415.39781 
L 539.529079 416.751038 
L 539.80144 416.759326 
L 540.073801 416.882895 
L 540.346162 416.052573 
L 540.618523 415.919209 
L 540.890885 417.388472 
L 541.163246 417.574578 
L 541.435607 416.368276 
L 541.707968 416.311013 
L 541.980329 417.533891 
L 542.252691 417.547453 
L 542.525052 419.822173 
L 543.069774 418.473465 
L 543.342135 418.600801 
L 543.614497 418.191668 
L 543.886858 417.556495 
L 544.159219 417.904597 
L 544.43158 418.757523 
L 544.703941 418.901435 
L 544.976303 418.625666 
L 545.248664 418.011589 
L 545.521025 419.38064 
L 546.065747 418.697999 
L 546.338109 418.110294 
L 546.61047 418.242904 
L 546.882831 418.250439 
L 547.427553 417.098386 
L 547.699915 417.209146 
L 547.972276 418.371747 
L 548.244637 418.264755 
L 548.789359 417.198598 
L 549.061721 417.612252 
L 549.334082 418.553333 
L 549.606443 418.108787 
L 549.878804 417.127772 
L 550.423527 418.476479 
L 550.968249 418.42449 
L 551.24061 417.762945 
L 551.512971 418.898421 
L 551.785333 418.865269 
L 552.057694 418.642996 
L 552.330055 417.836785 
L 552.602416 418.655051 
L 552.874777 419.037059 
L 553.147138 418.948903 
L 553.691861 416.932624 
L 553.964222 418.256467 
L 554.236583 418.207491 
L 554.508944 417.961107 
L 554.781306 417.558755 
L 555.326028 418.359692 
L 555.598389 418.053784 
L 555.87075 416.933377 
L 556.143112 416.81659 
L 556.415473 417.051671 
L 556.960195 416.77967 
L 557.232556 416.207034 
L 557.504918 417.331962 
L 557.777279 417.040369 
L 558.04964 416.938651 
L 558.594362 415.918456 
L 558.866724 416.6885 
L 559.139085 415.926744 
L 559.411446 416.045792 
L 559.683807 415.807696 
L 559.956168 416.55815 
L 560.22853 416.708844 
L 560.500891 416.726927 
L 560.773252 416.139975 
L 561.045613 417.206132 
L 561.317974 417.053932 
L 561.590336 419.352009 
L 561.862697 418.825335 
L 562.135058 418.753755 
L 562.407419 419.708399 
L 562.67978 417.414843 
L 563.224503 416.427047 
L 563.496864 417.554235 
L 563.769225 417.415596 
L 564.041586 417.437447 
L 564.586309 416.345672 
L 564.85867 416.746517 
L 565.131031 419.47181 
L 565.403392 418.939108 
L 565.675754 419.607434 
L 566.220476 419.767169 
L 566.492837 419.775458 
L 566.765198 419.149326 
L 567.037559 419.744565 
L 567.309921 419.540376 
L 567.582282 419.602913 
L 567.854643 418.816293 
L 568.399365 420.18233 
L 568.671727 420.274253 
L 568.944088 420.492006 
L 569.216449 422.154155 
L 569.48881 421.954487 
L 569.761171 422.082576 
L 570.033533 419.530581 
L 570.305894 418.795949 
L 570.850616 420.255417 
L 571.122977 419.731003 
L 571.395339 418.90897 
L 571.6677 418.881845 
L 571.940061 420.133355 
L 572.212422 423.038727 
L 572.757145 421.720158 
L 573.029506 420.522144 
L 573.301867 421.277119 
L 573.574228 420.891343 
L 573.846589 419.837995 
L 574.118951 420.170275 
L 574.391312 419.892999 
L 575.208395 417.508273 
L 575.480757 418.305442 
L 575.753118 417.876719 
L 576.025479 417.663487 
L 576.29784 417.046397 
L 576.570201 417.665748 
L 577.114924 418.123103 
L 577.387285 418.294893 
L 577.659646 418.054537 
L 577.932007 418.190161 
L 578.749091 417.47286 
L 579.021452 418.144953 
L 579.293813 419.251797 
L 579.566174 418.868282 
L 579.838536 418.143446 
L 580.110897 419.128229 
L 580.383258 418.074127 
L 581.200342 417.641637 
L 581.472703 417.000436 
L 581.745064 417.814181 
L 582.017425 417.851854 
L 582.562148 416.567945 
L 582.834509 417.254354 
L 583.10687 417.630335 
L 583.379231 417.678557 
L 583.651592 417.123251 
L 583.923954 417.402034 
L 584.196315 417.514301 
L 584.468676 417.227983 
L 584.741037 416.488078 
L 585.013398 417.167706 
L 585.28576 416.635757 
L 586.102843 415.947841 
L 586.375204 417.558002 
L 586.647566 417.866924 
L 586.919927 417.830757 
L 587.192288 416.33437 
L 587.464649 416.298204 
L 587.73701 417.428405 
L 588.281733 416.016407 
L 588.554094 416.480543 
L 588.826455 417.747122 
L 589.098816 417.404294 
L 589.371178 417.348538 
L 589.643539 416.754805 
L 589.9159 416.989134 
L 590.188261 417.371142 
L 590.460622 416.907006 
L 590.732984 416.930363 
L 591.005345 416.619934 
L 591.277706 417.34251 
L 591.822428 417.465325 
L 592.09479 417.274698 
L 592.367151 418.198449 
L 592.639512 418.130637 
L 593.184234 416.862551 
L 593.456595 416.696035 
L 593.728957 416.660622 
L 594.001318 416.239433 
L 594.273679 415.123547 
L 594.54604 414.877917 
L 594.818401 415.914689 
L 595.363124 415.391782 
L 595.635485 414.963812 
L 595.907846 416.706583 
L 596.180207 415.578642 
L 596.452569 415.049708 
L 596.72493 415.113752 
L 596.997291 414.606668 
L 597.269652 414.965319 
L 597.542013 414.749827 
L 597.814375 414.926892 
L 598.086736 414.221646 
L 598.359097 415.484458 
L 598.631458 416.009626 
L 598.903819 415.687141 
L 599.176181 414.920865 
L 599.448542 414.816132 
L 599.993264 414.89374 
L 600.265625 414.838737 
L 600.537987 414.329392 
L 600.810348 414.80483 
L 601.082709 414.859834 
L 601.899793 413.183368 
L 602.172154 414.12897 
L 602.716876 413.612844 
L 602.989237 414.233702 
L 603.261599 416.952214 
L 603.806321 416.989887 
L 604.078682 416.537053 
L 604.351043 414.692564 
L 604.623405 414.807844 
L 604.895766 414.519266 
L 605.168127 413.278305 
L 605.440488 413.629421 
L 605.712849 414.683522 
L 605.98521 414.547898 
L 606.529933 412.893283 
L 606.802294 413.792923 
L 607.347016 413.701754 
L 607.619378 413.138913 
L 607.891739 413.526949 
L 608.436461 414.521527 
L 608.708822 414.499676 
L 608.981184 414.040061 
L 609.253545 414.40926 
L 609.525906 414.425836 
L 609.798267 414.330899 
L 610.070628 413.795184 
L 610.615351 415.350341 
L 610.887712 415.611795 
L 611.160073 415.041419 
L 611.432434 415.442264 
L 611.704796 415.528913 
L 611.977157 414.616464 
L 612.249518 414.656397 
L 612.521879 413.84868 
L 612.79424 415.157453 
L 613.338963 413.840392 
L 613.883685 411.907747 
L 614.156046 413.612091 
L 614.428408 413.543525 
L 614.700769 413.120076 
L 614.97313 412.417091 
L 615.517852 412.691353 
L 616.062575 411.479777 
L 616.334936 411.868566 
L 616.607297 412.839786 
L 616.879658 412.453257 
L 617.15202 411.785685 
L 617.424381 411.628964 
L 617.696742 412.650666 
L 617.969103 412.745603 
L 618.241464 412.644638 
L 618.513826 411.748765 
L 618.786187 412.224957 
L 619.058548 411.417993 
L 619.330909 411.411965 
L 619.330909 411.411965 
" style="fill:none;stroke:#1f77b4;stroke-linecap:square;stroke-width:1.5;"/>
   </g>
   <g id="patch_3">
    <path d="M 108 448.56 
L 108 60.48 
" style="fill:none;stroke:#000000;stroke-linecap:square;stroke-linejoin:miter;stroke-width:0.8;"/>
   </g>
   <g id="patch_4">
    <path d="M 643.68 448.56 
L 643.68 60.48 
" style="fill:none;stroke:#000000;stroke-linecap:square;stroke-linejoin:miter;stroke-width:0.8;"/>
   </g>
   <g id="patch_5">
    <path d="M 108 448.56 
L 643.68 448.56 
" style="fill:none;stroke:#000000;stroke-linecap:square;stroke-linejoin:miter;stroke-width:0.8;"/>
   </g>
   <g id="patch_6">
    <path d="M 108 60.48 
L 643.68 60.48 
" style="fill:none;stroke:#000000;stroke-linecap:square;stroke-linejoin:miter;stroke-width:0.8;"/>
   </g>
   <g id="text_33">
    <!-- unikernel_base - vmstat -->
    <g transform="translate(285.930234 54.48)scale(0.15 -0.15)">
     <defs>
      <path d="M 8.5 21.578125 
L 8.5 54.6875 
L 17.484375 54.6875 
L 17.484375 21.921875 
Q 17.484375 14.15625 20.5 10.265625 
Q 23.53125 6.390625 29.59375 6.390625 
Q 36.859375 6.390625 41.078125 11.03125 
Q 45.3125 15.671875 45.3125 23.6875 
L 45.3125 54.6875 
L 54.296875 54.6875 
L 54.296875 0 
L 45.3125 0 
L 45.3125 8.40625 
Q 42.046875 3.421875 37.71875 1 
Q 33.40625 -1.421875 27.6875 -1.421875 
Q 18.265625 -1.421875 13.375 4.4375 
Q 8.5 10.296875 8.5 21.578125 
z
M 31.109375 56 
z
" id="DejaVuSans-117"/>
      <path d="M 54.890625 33.015625 
L 54.890625 0 
L 45.90625 0 
L 45.90625 32.71875 
Q 45.90625 40.484375 42.875 44.328125 
Q 39.84375 48.1875 33.796875 48.1875 
Q 26.515625 48.1875 22.3125 43.546875 
Q 18.109375 38.921875 18.109375 30.90625 
L 18.109375 0 
L 9.078125 0 
L 9.078125 54.6875 
L 18.109375 54.6875 
L 18.109375 46.1875 
Q 21.34375 51.125 25.703125 53.5625 
Q 30.078125 56 35.796875 56 
Q 45.21875 56 50.046875 50.171875 
Q 54.890625 44.34375 54.890625 33.015625 
z
" id="DejaVuSans-110"/>
      <path d="M 9.078125 75.984375 
L 18.109375 75.984375 
L 18.109375 31.109375 
L 44.921875 54.6875 
L 56.390625 54.6875 
L 27.390625 29.109375 
L 57.625 0 
L 45.90625 0 
L 18.109375 26.703125 
L 18.109375 0 
L 9.078125 0 
z
" id="DejaVuSans-107"/>
      <path d="M 41.109375 46.296875 
Q 39.59375 47.171875 37.8125 47.578125 
Q 36.03125 48 33.890625 48 
Q 26.265625 48 22.1875 43.046875 
Q 18.109375 38.09375 18.109375 28.8125 
L 18.109375 0 
L 9.078125 0 
L 9.078125 54.6875 
L 18.109375 54.6875 
L 18.109375 46.1875 
Q 20.953125 51.171875 25.484375 53.578125 
Q 30.03125 56 36.53125 56 
Q 37.453125 56 38.578125 55.875 
Q 39.703125 55.765625 41.0625 55.515625 
z
" id="DejaVuSans-114"/>
      <path d="M 9.421875 75.984375 
L 18.40625 75.984375 
L 18.40625 0 
L 9.421875 0 
z
" id="DejaVuSans-108"/>
      <path d="M 50.984375 -16.609375 
L 50.984375 -23.578125 
L -0.984375 -23.578125 
L -0.984375 -16.609375 
z
" id="DejaVuSans-95"/>
      <path d="M 48.6875 27.296875 
Q 48.6875 37.203125 44.609375 42.84375 
Q 40.53125 48.484375 33.40625 48.484375 
Q 26.265625 48.484375 22.1875 42.84375 
Q 18.109375 37.203125 18.109375 27.296875 
Q 18.109375 17.390625 22.1875 11.75 
Q 26.265625 6.109375 33.40625 6.109375 
Q 40.53125 6.109375 44.609375 11.75 
Q 48.6875 17.390625 48.6875 27.296875 
z
M 18.109375 46.390625 
Q 20.953125 51.265625 25.265625 53.625 
Q 29.59375 56 35.59375 56 
Q 45.5625 56 51.78125 48.09375 
Q 58.015625 40.1875 58.015625 27.296875 
Q 58.015625 14.40625 51.78125 6.484375 
Q 45.5625 -1.421875 35.59375 -1.421875 
Q 29.59375 -1.421875 25.265625 0.953125 
Q 20.953125 3.328125 18.109375 8.203125 
L 18.109375 0 
L 9.078125 0 
L 9.078125 75.984375 
L 18.109375 75.984375 
z
" id="DejaVuSans-98"/>
      <path id="DejaVuSans-32"/>
      <path d="M 4.890625 31.390625 
L 31.203125 31.390625 
L 31.203125 23.390625 
L 4.890625 23.390625 
z
" id="DejaVuSans-45"/>
      <path d="M 2.984375 54.6875 
L 12.5 54.6875 
L 29.59375 8.796875 
L 46.6875 54.6875 
L 56.203125 54.6875 
L 35.6875 0 
L 23.484375 0 
z
" id="DejaVuSans-118"/>
     </defs>
     <use xlink:href="#DejaVuSans-117"/>
     <use x="63.378906" xlink:href="#DejaVuSans-110"/>
     <use x="126.757812" xlink:href="#DejaVuSans-105"/>
     <use x="154.541016" xlink:href="#DejaVuSans-107"/>
     <use x="208.826172" xlink:href="#DejaVuSans-101"/>
     <use x="270.349609" xlink:href="#DejaVuSans-114"/>
     <use x="309.712891" xlink:href="#DejaVuSans-110"/>
     <use x="373.091797" xlink:href="#DejaVuSans-101"/>
     <use x="434.615234" xlink:href="#DejaVuSans-108"/>
     <use x="462.398438" xlink:href="#DejaVuSans-95"/>
     <use x="512.398438" xlink:href="#DejaVuSans-98"/>
     <use x="575.875" xlink:href="#DejaVuSans-97"/>
     <use x="637.154297" xlink:href="#DejaVuSans-115"/>
     <use x="689.253906" xlink:href="#DejaVuSans-101"/>
     <use x="750.777344" xlink:href="#DejaVuSans-32"/>
     <use x="782.564453" xlink:href="#DejaVuSans-45"/>
     <use x="818.648438" xlink:href="#DejaVuSans-32"/>
     <use x="850.435547" xlink:href="#DejaVuSans-118"/>
     <use x="909.615234" xlink:href="#DejaVuSans-109"/>
     <use x="1007.027344" xlink:href="#DejaVuSans-115"/>
     <use x="1059.126953" xlink:href="#DejaVuSans-116"/>
     <use x="1098.335938" xlink:href="#DejaVuSans-97"/>
     <use x="1159.615234" xlink:href="#DejaVuSans-116"/>
    </g>
   </g>
   <g id="legend_1">
    <g id="patch_7">
     <path d="M 650.68 258.52 
L 654.68 258.52 
Q 656.68 258.52 656.68 256.52 
L 656.68 252.52 
Q 656.68 250.52 654.68 250.52 
L 650.68 250.52 
Q 648.68 250.52 648.68 252.52 
L 648.68 256.52 
Q 648.68 258.52 650.68 258.52 
z
" style="fill:#ffffff;opacity:0.8;stroke:#cccccc;stroke-linejoin:miter;"/>
    </g>
   </g>
  </g>
 </g>
 <defs>
  <clipPath id="p016f6fdf11">
   <rect height="388.08" width="535.68" x="108" y="60.48"/>
  </clipPath>
 </defs>
</svg>
