<?xml version="1.0" encoding="utf-8" standalone="no"?>
<!DOCTYPE svg PUBLIC "-//W3C//DTD SVG 1.1//EN"
  "http://www.w3.org/Graphics/SVG/1.1/DTD/svg11.dtd">
<!-- Created with matplotlib (https://matplotlib.org/) -->
<svg height="504pt" version="1.1" viewBox="0 0 864 504" width="864pt" xmlns="http://www.w3.org/2000/svg" xmlns:xlink="http://www.w3.org/1999/xlink">
 <metadata>
  <rdf:RDF xmlns:cc="http://creativecommons.org/ns#" xmlns:dc="http://purl.org/dc/elements/1.1/" xmlns:rdf="http://www.w3.org/1999/02/22-rdf-syntax-ns#">
   <cc:Work>
    <dc:type rdf:resource="http://purl.org/dc/dcmitype/StillImage"/>
    <dc:date>2022-05-29T17:06:12.995899</dc:date>
    <dc:format>image/svg+xml</dc:format>
    <dc:creator>
     <cc:Agent>
      <dc:title>Matplotlib v3.3.4, https://matplotlib.org/</dc:title>
     </cc:Agent>
    </dc:creator>
   </cc:Work>
  </rdf:RDF>
 </metadata>
 <defs>
  <style type="text/css">*{stroke-linecap:butt;stroke-linejoin:round;}</style>
 </defs>
 <g id="figure_1">
  <g id="patch_1">
   <path d="M 0 504 
L 864 504 
L 864 0 
L 0 0 
z
" style="fill:#ffffff;"/>
  </g>
  <g id="axes_1">
   <g id="patch_2">
    <path d="M 108 448.56 
L 643.68 448.56 
L 643.68 60.48 
L 108 60.48 
z
" style="fill:#ffffff;"/>
   </g>
   <g id="matplotlib.axis_1">
    <g id="xtick_1">
     <g id="line2d_1">
      <defs>
       <path d="M 0 0 
L 0 3.5 
" id="m213258be19" style="stroke:#000000;stroke-width:0.8;"/>
      </defs>
      <g>
       <use style="stroke:#000000;stroke-width:0.8;" x="132.349091" xlink:href="#m213258be19" y="448.56"/>
      </g>
     </g>
     <g id="text_1">
      <!-- 16:34:52 -->
      <g transform="translate(135.108466 500.4725)rotate(-90)scale(0.1 -0.1)">
       <defs>
        <path d="M 12.40625 8.296875 
L 28.515625 8.296875 
L 28.515625 63.921875 
L 10.984375 60.40625 
L 10.984375 69.390625 
L 28.421875 72.90625 
L 38.28125 72.90625 
L 38.28125 8.296875 
L 54.390625 8.296875 
L 54.390625 0 
L 12.40625 0 
z
" id="DejaVuSans-49"/>
        <path d="M 33.015625 40.375 
Q 26.375 40.375 22.484375 35.828125 
Q 18.609375 31.296875 18.609375 23.390625 
Q 18.609375 15.53125 22.484375 10.953125 
Q 26.375 6.390625 33.015625 6.390625 
Q 39.65625 6.390625 43.53125 10.953125 
Q 47.40625 15.53125 47.40625 23.390625 
Q 47.40625 31.296875 43.53125 35.828125 
Q 39.65625 40.375 33.015625 40.375 
z
M 52.59375 71.296875 
L 52.59375 62.3125 
Q 48.875 64.0625 45.09375 64.984375 
Q 41.3125 65.921875 37.59375 65.921875 
Q 27.828125 65.921875 22.671875 59.328125 
Q 17.53125 52.734375 16.796875 39.40625 
Q 19.671875 43.65625 24.015625 45.921875 
Q 28.375 48.1875 33.59375 48.1875 
Q 44.578125 48.1875 50.953125 41.515625 
Q 57.328125 34.859375 57.328125 23.390625 
Q 57.328125 12.15625 50.6875 5.359375 
Q 44.046875 -1.421875 33.015625 -1.421875 
Q 20.359375 -1.421875 13.671875 8.265625 
Q 6.984375 17.96875 6.984375 36.375 
Q 6.984375 53.65625 15.1875 63.9375 
Q 23.390625 74.21875 37.203125 74.21875 
Q 40.921875 74.21875 44.703125 73.484375 
Q 48.484375 72.75 52.59375 71.296875 
z
" id="DejaVuSans-54"/>
        <path d="M 11.71875 12.40625 
L 22.015625 12.40625 
L 22.015625 0 
L 11.71875 0 
z
M 11.71875 51.703125 
L 22.015625 51.703125 
L 22.015625 39.3125 
L 11.71875 39.3125 
z
" id="DejaVuSans-58"/>
        <path d="M 40.578125 39.3125 
Q 47.65625 37.796875 51.625 33 
Q 55.609375 28.21875 55.609375 21.1875 
Q 55.609375 10.40625 48.1875 4.484375 
Q 40.765625 -1.421875 27.09375 -1.421875 
Q 22.515625 -1.421875 17.65625 -0.515625 
Q 12.796875 0.390625 7.625 2.203125 
L 7.625 11.71875 
Q 11.71875 9.328125 16.59375 8.109375 
Q 21.484375 6.890625 26.8125 6.890625 
Q 36.078125 6.890625 40.9375 10.546875 
Q 45.796875 14.203125 45.796875 21.1875 
Q 45.796875 27.640625 41.28125 31.265625 
Q 36.765625 34.90625 28.71875 34.90625 
L 20.21875 34.90625 
L 20.21875 43.015625 
L 29.109375 43.015625 
Q 36.375 43.015625 40.234375 45.921875 
Q 44.09375 48.828125 44.09375 54.296875 
Q 44.09375 59.90625 40.109375 62.90625 
Q 36.140625 65.921875 28.71875 65.921875 
Q 24.65625 65.921875 20.015625 65.03125 
Q 15.375 64.15625 9.8125 62.3125 
L 9.8125 71.09375 
Q 15.4375 72.65625 20.34375 73.4375 
Q 25.25 74.21875 29.59375 74.21875 
Q 40.828125 74.21875 47.359375 69.109375 
Q 53.90625 64.015625 53.90625 55.328125 
Q 53.90625 49.265625 50.4375 45.09375 
Q 46.96875 40.921875 40.578125 39.3125 
z
" id="DejaVuSans-51"/>
        <path d="M 37.796875 64.3125 
L 12.890625 25.390625 
L 37.796875 25.390625 
z
M 35.203125 72.90625 
L 47.609375 72.90625 
L 47.609375 25.390625 
L 58.015625 25.390625 
L 58.015625 17.1875 
L 47.609375 17.1875 
L 47.609375 0 
L 37.796875 0 
L 37.796875 17.1875 
L 4.890625 17.1875 
L 4.890625 26.703125 
z
" id="DejaVuSans-52"/>
        <path d="M 10.796875 72.90625 
L 49.515625 72.90625 
L 49.515625 64.59375 
L 19.828125 64.59375 
L 19.828125 46.734375 
Q 21.96875 47.46875 24.109375 47.828125 
Q 26.265625 48.1875 28.421875 48.1875 
Q 40.625 48.1875 47.75 41.5 
Q 54.890625 34.8125 54.890625 23.390625 
Q 54.890625 11.625 47.5625 5.09375 
Q 40.234375 -1.421875 26.90625 -1.421875 
Q 22.3125 -1.421875 17.546875 -0.640625 
Q 12.796875 0.140625 7.71875 1.703125 
L 7.71875 11.625 
Q 12.109375 9.234375 16.796875 8.0625 
Q 21.484375 6.890625 26.703125 6.890625 
Q 35.15625 6.890625 40.078125 11.328125 
Q 45.015625 15.765625 45.015625 23.390625 
Q 45.015625 31 40.078125 35.4375 
Q 35.15625 39.890625 26.703125 39.890625 
Q 22.75 39.890625 18.8125 39.015625 
Q 14.890625 38.140625 10.796875 36.28125 
z
" id="DejaVuSans-53"/>
        <path d="M 19.1875 8.296875 
L 53.609375 8.296875 
L 53.609375 0 
L 7.328125 0 
L 7.328125 8.296875 
Q 12.9375 14.109375 22.625 23.890625 
Q 32.328125 33.6875 34.8125 36.53125 
Q 39.546875 41.84375 41.421875 45.53125 
Q 43.3125 49.21875 43.3125 52.78125 
Q 43.3125 58.59375 39.234375 62.25 
Q 35.15625 65.921875 28.609375 65.921875 
Q 23.96875 65.921875 18.8125 64.3125 
Q 13.671875 62.703125 7.8125 59.421875 
L 7.8125 69.390625 
Q 13.765625 71.78125 18.9375 73 
Q 24.125 74.21875 28.421875 74.21875 
Q 39.75 74.21875 46.484375 68.546875 
Q 53.21875 62.890625 53.21875 53.421875 
Q 53.21875 48.921875 51.53125 44.890625 
Q 49.859375 40.875 45.40625 35.40625 
Q 44.1875 33.984375 37.640625 27.21875 
Q 31.109375 20.453125 19.1875 8.296875 
z
" id="DejaVuSans-50"/>
       </defs>
       <use xlink:href="#DejaVuSans-49"/>
       <use x="63.623047" xlink:href="#DejaVuSans-54"/>
       <use x="127.246094" xlink:href="#DejaVuSans-58"/>
       <use x="160.9375" xlink:href="#DejaVuSans-51"/>
       <use x="224.560547" xlink:href="#DejaVuSans-52"/>
       <use x="288.183594" xlink:href="#DejaVuSans-58"/>
       <use x="321.875" xlink:href="#DejaVuSans-53"/>
       <use x="385.498047" xlink:href="#DejaVuSans-50"/>
      </g>
     </g>
    </g>
    <g id="xtick_2">
     <g id="line2d_2">
      <g>
       <use style="stroke:#000000;stroke-width:0.8;" x="156.632195" xlink:href="#m213258be19" y="448.56"/>
      </g>
     </g>
     <g id="text_2">
      <!-- 16:36:42 -->
      <g transform="translate(159.39157 500.4725)rotate(-90)scale(0.1 -0.1)">
       <use xlink:href="#DejaVuSans-49"/>
       <use x="63.623047" xlink:href="#DejaVuSans-54"/>
       <use x="127.246094" xlink:href="#DejaVuSans-58"/>
       <use x="160.9375" xlink:href="#DejaVuSans-51"/>
       <use x="224.560547" xlink:href="#DejaVuSans-54"/>
       <use x="288.183594" xlink:href="#DejaVuSans-58"/>
       <use x="321.875" xlink:href="#DejaVuSans-52"/>
       <use x="385.498047" xlink:href="#DejaVuSans-50"/>
      </g>
     </g>
    </g>
    <g id="xtick_3">
     <g id="line2d_3">
      <g>
       <use style="stroke:#000000;stroke-width:0.8;" x="180.915299" xlink:href="#m213258be19" y="448.56"/>
      </g>
     </g>
     <g id="text_3">
      <!-- 16:38:33 -->
      <g transform="translate(183.674674 500.4725)rotate(-90)scale(0.1 -0.1)">
       <defs>
        <path d="M 31.78125 34.625 
Q 24.75 34.625 20.71875 30.859375 
Q 16.703125 27.09375 16.703125 20.515625 
Q 16.703125 13.921875 20.71875 10.15625 
Q 24.75 6.390625 31.78125 6.390625 
Q 38.8125 6.390625 42.859375 10.171875 
Q 46.921875 13.96875 46.921875 20.515625 
Q 46.921875 27.09375 42.890625 30.859375 
Q 38.875 34.625 31.78125 34.625 
z
M 21.921875 38.8125 
Q 15.578125 40.375 12.03125 44.71875 
Q 8.5 49.078125 8.5 55.328125 
Q 8.5 64.0625 14.71875 69.140625 
Q 20.953125 74.21875 31.78125 74.21875 
Q 42.671875 74.21875 48.875 69.140625 
Q 55.078125 64.0625 55.078125 55.328125 
Q 55.078125 49.078125 51.53125 44.71875 
Q 48 40.375 41.703125 38.8125 
Q 48.828125 37.15625 52.796875 32.3125 
Q 56.78125 27.484375 56.78125 20.515625 
Q 56.78125 9.90625 50.3125 4.234375 
Q 43.84375 -1.421875 31.78125 -1.421875 
Q 19.734375 -1.421875 13.25 4.234375 
Q 6.78125 9.90625 6.78125 20.515625 
Q 6.78125 27.484375 10.78125 32.3125 
Q 14.796875 37.15625 21.921875 38.8125 
z
M 18.3125 54.390625 
Q 18.3125 48.734375 21.84375 45.5625 
Q 25.390625 42.390625 31.78125 42.390625 
Q 38.140625 42.390625 41.71875 45.5625 
Q 45.3125 48.734375 45.3125 54.390625 
Q 45.3125 60.0625 41.71875 63.234375 
Q 38.140625 66.40625 31.78125 66.40625 
Q 25.390625 66.40625 21.84375 63.234375 
Q 18.3125 60.0625 18.3125 54.390625 
z
" id="DejaVuSans-56"/>
       </defs>
       <use xlink:href="#DejaVuSans-49"/>
       <use x="63.623047" xlink:href="#DejaVuSans-54"/>
       <use x="127.246094" xlink:href="#DejaVuSans-58"/>
       <use x="160.9375" xlink:href="#DejaVuSans-51"/>
       <use x="224.560547" xlink:href="#DejaVuSans-56"/>
       <use x="288.183594" xlink:href="#DejaVuSans-58"/>
       <use x="321.875" xlink:href="#DejaVuSans-51"/>
       <use x="385.498047" xlink:href="#DejaVuSans-51"/>
      </g>
     </g>
    </g>
    <g id="xtick_4">
     <g id="line2d_4">
      <g>
       <use style="stroke:#000000;stroke-width:0.8;" x="205.198404" xlink:href="#m213258be19" y="448.56"/>
      </g>
     </g>
     <g id="text_4">
      <!-- 16:40:23 -->
      <g transform="translate(207.957779 500.4725)rotate(-90)scale(0.1 -0.1)">
       <defs>
        <path d="M 31.78125 66.40625 
Q 24.171875 66.40625 20.328125 58.90625 
Q 16.5 51.421875 16.5 36.375 
Q 16.5 21.390625 20.328125 13.890625 
Q 24.171875 6.390625 31.78125 6.390625 
Q 39.453125 6.390625 43.28125 13.890625 
Q 47.125 21.390625 47.125 36.375 
Q 47.125 51.421875 43.28125 58.90625 
Q 39.453125 66.40625 31.78125 66.40625 
z
M 31.78125 74.21875 
Q 44.046875 74.21875 50.515625 64.515625 
Q 56.984375 54.828125 56.984375 36.375 
Q 56.984375 17.96875 50.515625 8.265625 
Q 44.046875 -1.421875 31.78125 -1.421875 
Q 19.53125 -1.421875 13.0625 8.265625 
Q 6.59375 17.96875 6.59375 36.375 
Q 6.59375 54.828125 13.0625 64.515625 
Q 19.53125 74.21875 31.78125 74.21875 
z
" id="DejaVuSans-48"/>
       </defs>
       <use xlink:href="#DejaVuSans-49"/>
       <use x="63.623047" xlink:href="#DejaVuSans-54"/>
       <use x="127.246094" xlink:href="#DejaVuSans-58"/>
       <use x="160.9375" xlink:href="#DejaVuSans-52"/>
       <use x="224.560547" xlink:href="#DejaVuSans-48"/>
       <use x="288.183594" xlink:href="#DejaVuSans-58"/>
       <use x="321.875" xlink:href="#DejaVuSans-50"/>
       <use x="385.498047" xlink:href="#DejaVuSans-51"/>
      </g>
     </g>
    </g>
    <g id="xtick_5">
     <g id="line2d_5">
      <g>
       <use style="stroke:#000000;stroke-width:0.8;" x="229.481508" xlink:href="#m213258be19" y="448.56"/>
      </g>
     </g>
     <g id="text_5">
      <!-- 16:42:13 -->
      <g transform="translate(232.240883 500.4725)rotate(-90)scale(0.1 -0.1)">
       <use xlink:href="#DejaVuSans-49"/>
       <use x="63.623047" xlink:href="#DejaVuSans-54"/>
       <use x="127.246094" xlink:href="#DejaVuSans-58"/>
       <use x="160.9375" xlink:href="#DejaVuSans-52"/>
       <use x="224.560547" xlink:href="#DejaVuSans-50"/>
       <use x="288.183594" xlink:href="#DejaVuSans-58"/>
       <use x="321.875" xlink:href="#DejaVuSans-49"/>
       <use x="385.498047" xlink:href="#DejaVuSans-51"/>
      </g>
     </g>
    </g>
    <g id="xtick_6">
     <g id="line2d_6">
      <g>
       <use style="stroke:#000000;stroke-width:0.8;" x="253.764612" xlink:href="#m213258be19" y="448.56"/>
      </g>
     </g>
     <g id="text_6">
      <!-- 16:44:03 -->
      <g transform="translate(256.523987 500.4725)rotate(-90)scale(0.1 -0.1)">
       <use xlink:href="#DejaVuSans-49"/>
       <use x="63.623047" xlink:href="#DejaVuSans-54"/>
       <use x="127.246094" xlink:href="#DejaVuSans-58"/>
       <use x="160.9375" xlink:href="#DejaVuSans-52"/>
       <use x="224.560547" xlink:href="#DejaVuSans-52"/>
       <use x="288.183594" xlink:href="#DejaVuSans-58"/>
       <use x="321.875" xlink:href="#DejaVuSans-48"/>
       <use x="385.498047" xlink:href="#DejaVuSans-51"/>
      </g>
     </g>
    </g>
    <g id="xtick_7">
     <g id="line2d_7">
      <g>
       <use style="stroke:#000000;stroke-width:0.8;" x="278.047716" xlink:href="#m213258be19" y="448.56"/>
      </g>
     </g>
     <g id="text_7">
      <!-- 16:45:53 -->
      <g transform="translate(280.807091 500.4725)rotate(-90)scale(0.1 -0.1)">
       <use xlink:href="#DejaVuSans-49"/>
       <use x="63.623047" xlink:href="#DejaVuSans-54"/>
       <use x="127.246094" xlink:href="#DejaVuSans-58"/>
       <use x="160.9375" xlink:href="#DejaVuSans-52"/>
       <use x="224.560547" xlink:href="#DejaVuSans-53"/>
       <use x="288.183594" xlink:href="#DejaVuSans-58"/>
       <use x="321.875" xlink:href="#DejaVuSans-53"/>
       <use x="385.498047" xlink:href="#DejaVuSans-51"/>
      </g>
     </g>
    </g>
    <g id="xtick_8">
     <g id="line2d_8">
      <g>
       <use style="stroke:#000000;stroke-width:0.8;" x="302.33082" xlink:href="#m213258be19" y="448.56"/>
      </g>
     </g>
     <g id="text_8">
      <!-- 16:47:43 -->
      <g transform="translate(305.090195 500.4725)rotate(-90)scale(0.1 -0.1)">
       <defs>
        <path d="M 8.203125 72.90625 
L 55.078125 72.90625 
L 55.078125 68.703125 
L 28.609375 0 
L 18.3125 0 
L 43.21875 64.59375 
L 8.203125 64.59375 
z
" id="DejaVuSans-55"/>
       </defs>
       <use xlink:href="#DejaVuSans-49"/>
       <use x="63.623047" xlink:href="#DejaVuSans-54"/>
       <use x="127.246094" xlink:href="#DejaVuSans-58"/>
       <use x="160.9375" xlink:href="#DejaVuSans-52"/>
       <use x="224.560547" xlink:href="#DejaVuSans-55"/>
       <use x="288.183594" xlink:href="#DejaVuSans-58"/>
       <use x="321.875" xlink:href="#DejaVuSans-52"/>
       <use x="385.498047" xlink:href="#DejaVuSans-51"/>
      </g>
     </g>
    </g>
    <g id="xtick_9">
     <g id="line2d_9">
      <g>
       <use style="stroke:#000000;stroke-width:0.8;" x="326.613925" xlink:href="#m213258be19" y="448.56"/>
      </g>
     </g>
     <g id="text_9">
      <!-- 16:49:33 -->
      <g transform="translate(329.3733 500.4725)rotate(-90)scale(0.1 -0.1)">
       <defs>
        <path d="M 10.984375 1.515625 
L 10.984375 10.5 
Q 14.703125 8.734375 18.5 7.8125 
Q 22.3125 6.890625 25.984375 6.890625 
Q 35.75 6.890625 40.890625 13.453125 
Q 46.046875 20.015625 46.78125 33.40625 
Q 43.953125 29.203125 39.59375 26.953125 
Q 35.25 24.703125 29.984375 24.703125 
Q 19.046875 24.703125 12.671875 31.3125 
Q 6.296875 37.9375 6.296875 49.421875 
Q 6.296875 60.640625 12.9375 67.421875 
Q 19.578125 74.21875 30.609375 74.21875 
Q 43.265625 74.21875 49.921875 64.515625 
Q 56.59375 54.828125 56.59375 36.375 
Q 56.59375 19.140625 48.40625 8.859375 
Q 40.234375 -1.421875 26.421875 -1.421875 
Q 22.703125 -1.421875 18.890625 -0.6875 
Q 15.09375 0.046875 10.984375 1.515625 
z
M 30.609375 32.421875 
Q 37.25 32.421875 41.125 36.953125 
Q 45.015625 41.5 45.015625 49.421875 
Q 45.015625 57.28125 41.125 61.84375 
Q 37.25 66.40625 30.609375 66.40625 
Q 23.96875 66.40625 20.09375 61.84375 
Q 16.21875 57.28125 16.21875 49.421875 
Q 16.21875 41.5 20.09375 36.953125 
Q 23.96875 32.421875 30.609375 32.421875 
z
" id="DejaVuSans-57"/>
       </defs>
       <use xlink:href="#DejaVuSans-49"/>
       <use x="63.623047" xlink:href="#DejaVuSans-54"/>
       <use x="127.246094" xlink:href="#DejaVuSans-58"/>
       <use x="160.9375" xlink:href="#DejaVuSans-52"/>
       <use x="224.560547" xlink:href="#DejaVuSans-57"/>
       <use x="288.183594" xlink:href="#DejaVuSans-58"/>
       <use x="321.875" xlink:href="#DejaVuSans-51"/>
       <use x="385.498047" xlink:href="#DejaVuSans-51"/>
      </g>
     </g>
    </g>
    <g id="xtick_10">
     <g id="line2d_10">
      <g>
       <use style="stroke:#000000;stroke-width:0.8;" x="350.897029" xlink:href="#m213258be19" y="448.56"/>
      </g>
     </g>
     <g id="text_10">
      <!-- 16:51:24 -->
      <g transform="translate(353.656404 500.4725)rotate(-90)scale(0.1 -0.1)">
       <use xlink:href="#DejaVuSans-49"/>
       <use x="63.623047" xlink:href="#DejaVuSans-54"/>
       <use x="127.246094" xlink:href="#DejaVuSans-58"/>
       <use x="160.9375" xlink:href="#DejaVuSans-53"/>
       <use x="224.560547" xlink:href="#DejaVuSans-49"/>
       <use x="288.183594" xlink:href="#DejaVuSans-58"/>
       <use x="321.875" xlink:href="#DejaVuSans-50"/>
       <use x="385.498047" xlink:href="#DejaVuSans-52"/>
      </g>
     </g>
    </g>
    <g id="xtick_11">
     <g id="line2d_11">
      <g>
       <use style="stroke:#000000;stroke-width:0.8;" x="375.180133" xlink:href="#m213258be19" y="448.56"/>
      </g>
     </g>
     <g id="text_11">
      <!-- 16:53:14 -->
      <g transform="translate(377.939508 500.4725)rotate(-90)scale(0.1 -0.1)">
       <use xlink:href="#DejaVuSans-49"/>
       <use x="63.623047" xlink:href="#DejaVuSans-54"/>
       <use x="127.246094" xlink:href="#DejaVuSans-58"/>
       <use x="160.9375" xlink:href="#DejaVuSans-53"/>
       <use x="224.560547" xlink:href="#DejaVuSans-51"/>
       <use x="288.183594" xlink:href="#DejaVuSans-58"/>
       <use x="321.875" xlink:href="#DejaVuSans-49"/>
       <use x="385.498047" xlink:href="#DejaVuSans-52"/>
      </g>
     </g>
    </g>
    <g id="xtick_12">
     <g id="line2d_12">
      <g>
       <use style="stroke:#000000;stroke-width:0.8;" x="399.463237" xlink:href="#m213258be19" y="448.56"/>
      </g>
     </g>
     <g id="text_12">
      <!-- 16:55:04 -->
      <g transform="translate(402.222612 500.4725)rotate(-90)scale(0.1 -0.1)">
       <use xlink:href="#DejaVuSans-49"/>
       <use x="63.623047" xlink:href="#DejaVuSans-54"/>
       <use x="127.246094" xlink:href="#DejaVuSans-58"/>
       <use x="160.9375" xlink:href="#DejaVuSans-53"/>
       <use x="224.560547" xlink:href="#DejaVuSans-53"/>
       <use x="288.183594" xlink:href="#DejaVuSans-58"/>
       <use x="321.875" xlink:href="#DejaVuSans-48"/>
       <use x="385.498047" xlink:href="#DejaVuSans-52"/>
      </g>
     </g>
    </g>
    <g id="xtick_13">
     <g id="line2d_13">
      <g>
       <use style="stroke:#000000;stroke-width:0.8;" x="423.746341" xlink:href="#m213258be19" y="448.56"/>
      </g>
     </g>
     <g id="text_13">
      <!-- 16:56:55 -->
      <g transform="translate(426.505716 500.4725)rotate(-90)scale(0.1 -0.1)">
       <use xlink:href="#DejaVuSans-49"/>
       <use x="63.623047" xlink:href="#DejaVuSans-54"/>
       <use x="127.246094" xlink:href="#DejaVuSans-58"/>
       <use x="160.9375" xlink:href="#DejaVuSans-53"/>
       <use x="224.560547" xlink:href="#DejaVuSans-54"/>
       <use x="288.183594" xlink:href="#DejaVuSans-58"/>
       <use x="321.875" xlink:href="#DejaVuSans-53"/>
       <use x="385.498047" xlink:href="#DejaVuSans-53"/>
      </g>
     </g>
    </g>
    <g id="xtick_14">
     <g id="line2d_14">
      <g>
       <use style="stroke:#000000;stroke-width:0.8;" x="448.029446" xlink:href="#m213258be19" y="448.56"/>
      </g>
     </g>
     <g id="text_14">
      <!-- 16:58:45 -->
      <g transform="translate(450.788821 500.4725)rotate(-90)scale(0.1 -0.1)">
       <use xlink:href="#DejaVuSans-49"/>
       <use x="63.623047" xlink:href="#DejaVuSans-54"/>
       <use x="127.246094" xlink:href="#DejaVuSans-58"/>
       <use x="160.9375" xlink:href="#DejaVuSans-53"/>
       <use x="224.560547" xlink:href="#DejaVuSans-56"/>
       <use x="288.183594" xlink:href="#DejaVuSans-58"/>
       <use x="321.875" xlink:href="#DejaVuSans-52"/>
       <use x="385.498047" xlink:href="#DejaVuSans-53"/>
      </g>
     </g>
    </g>
    <g id="xtick_15">
     <g id="line2d_15">
      <g>
       <use style="stroke:#000000;stroke-width:0.8;" x="472.31255" xlink:href="#m213258be19" y="448.56"/>
      </g>
     </g>
     <g id="text_15">
      <!-- 17:00:36 -->
      <g transform="translate(475.071925 500.4725)rotate(-90)scale(0.1 -0.1)">
       <use xlink:href="#DejaVuSans-49"/>
       <use x="63.623047" xlink:href="#DejaVuSans-55"/>
       <use x="127.246094" xlink:href="#DejaVuSans-58"/>
       <use x="160.9375" xlink:href="#DejaVuSans-48"/>
       <use x="224.560547" xlink:href="#DejaVuSans-48"/>
       <use x="288.183594" xlink:href="#DejaVuSans-58"/>
       <use x="321.875" xlink:href="#DejaVuSans-51"/>
       <use x="385.498047" xlink:href="#DejaVuSans-54"/>
      </g>
     </g>
    </g>
    <g id="xtick_16">
     <g id="line2d_16">
      <g>
       <use style="stroke:#000000;stroke-width:0.8;" x="496.595654" xlink:href="#m213258be19" y="448.56"/>
      </g>
     </g>
     <g id="text_16">
      <!-- 17:02:26 -->
      <g transform="translate(499.355029 500.4725)rotate(-90)scale(0.1 -0.1)">
       <use xlink:href="#DejaVuSans-49"/>
       <use x="63.623047" xlink:href="#DejaVuSans-55"/>
       <use x="127.246094" xlink:href="#DejaVuSans-58"/>
       <use x="160.9375" xlink:href="#DejaVuSans-48"/>
       <use x="224.560547" xlink:href="#DejaVuSans-50"/>
       <use x="288.183594" xlink:href="#DejaVuSans-58"/>
       <use x="321.875" xlink:href="#DejaVuSans-50"/>
       <use x="385.498047" xlink:href="#DejaVuSans-54"/>
      </g>
     </g>
    </g>
    <g id="xtick_17">
     <g id="line2d_17">
      <g>
       <use style="stroke:#000000;stroke-width:0.8;" x="520.878758" xlink:href="#m213258be19" y="448.56"/>
      </g>
     </g>
     <g id="text_17">
      <!-- 17:04:17 -->
      <g transform="translate(523.638133 500.4725)rotate(-90)scale(0.1 -0.1)">
       <use xlink:href="#DejaVuSans-49"/>
       <use x="63.623047" xlink:href="#DejaVuSans-55"/>
       <use x="127.246094" xlink:href="#DejaVuSans-58"/>
       <use x="160.9375" xlink:href="#DejaVuSans-48"/>
       <use x="224.560547" xlink:href="#DejaVuSans-52"/>
       <use x="288.183594" xlink:href="#DejaVuSans-58"/>
       <use x="321.875" xlink:href="#DejaVuSans-49"/>
       <use x="385.498047" xlink:href="#DejaVuSans-55"/>
      </g>
     </g>
    </g>
    <g id="xtick_18">
     <g id="line2d_18">
      <g>
       <use style="stroke:#000000;stroke-width:0.8;" x="545.161863" xlink:href="#m213258be19" y="448.56"/>
      </g>
     </g>
     <g id="text_18">
      <!-- 17:06:08 -->
      <g transform="translate(547.921238 500.4725)rotate(-90)scale(0.1 -0.1)">
       <use xlink:href="#DejaVuSans-49"/>
       <use x="63.623047" xlink:href="#DejaVuSans-55"/>
       <use x="127.246094" xlink:href="#DejaVuSans-58"/>
       <use x="160.9375" xlink:href="#DejaVuSans-48"/>
       <use x="224.560547" xlink:href="#DejaVuSans-54"/>
       <use x="288.183594" xlink:href="#DejaVuSans-58"/>
       <use x="321.875" xlink:href="#DejaVuSans-48"/>
       <use x="385.498047" xlink:href="#DejaVuSans-56"/>
      </g>
     </g>
    </g>
    <g id="xtick_19">
     <g id="line2d_19">
      <g>
       <use style="stroke:#000000;stroke-width:0.8;" x="569.444967" xlink:href="#m213258be19" y="448.56"/>
      </g>
     </g>
     <g id="text_19">
      <!-- 17:07:58 -->
      <g transform="translate(572.204342 500.4725)rotate(-90)scale(0.1 -0.1)">
       <use xlink:href="#DejaVuSans-49"/>
       <use x="63.623047" xlink:href="#DejaVuSans-55"/>
       <use x="127.246094" xlink:href="#DejaVuSans-58"/>
       <use x="160.9375" xlink:href="#DejaVuSans-48"/>
       <use x="224.560547" xlink:href="#DejaVuSans-55"/>
       <use x="288.183594" xlink:href="#DejaVuSans-58"/>
       <use x="321.875" xlink:href="#DejaVuSans-53"/>
       <use x="385.498047" xlink:href="#DejaVuSans-56"/>
      </g>
     </g>
    </g>
    <g id="xtick_20">
     <g id="line2d_20">
      <g>
       <use style="stroke:#000000;stroke-width:0.8;" x="593.728071" xlink:href="#m213258be19" y="448.56"/>
      </g>
     </g>
     <g id="text_20">
      <!-- 17:09:49 -->
      <g transform="translate(596.487446 500.4725)rotate(-90)scale(0.1 -0.1)">
       <use xlink:href="#DejaVuSans-49"/>
       <use x="63.623047" xlink:href="#DejaVuSans-55"/>
       <use x="127.246094" xlink:href="#DejaVuSans-58"/>
       <use x="160.9375" xlink:href="#DejaVuSans-48"/>
       <use x="224.560547" xlink:href="#DejaVuSans-57"/>
       <use x="288.183594" xlink:href="#DejaVuSans-58"/>
       <use x="321.875" xlink:href="#DejaVuSans-52"/>
       <use x="385.498047" xlink:href="#DejaVuSans-57"/>
      </g>
     </g>
    </g>
    <g id="xtick_21">
     <g id="line2d_21">
      <g>
       <use style="stroke:#000000;stroke-width:0.8;" x="618.011175" xlink:href="#m213258be19" y="448.56"/>
      </g>
     </g>
     <g id="text_21">
      <!-- 17:11:40 -->
      <g transform="translate(620.77055 500.4725)rotate(-90)scale(0.1 -0.1)">
       <use xlink:href="#DejaVuSans-49"/>
       <use x="63.623047" xlink:href="#DejaVuSans-55"/>
       <use x="127.246094" xlink:href="#DejaVuSans-58"/>
       <use x="160.9375" xlink:href="#DejaVuSans-49"/>
       <use x="224.560547" xlink:href="#DejaVuSans-49"/>
       <use x="288.183594" xlink:href="#DejaVuSans-58"/>
       <use x="321.875" xlink:href="#DejaVuSans-52"/>
       <use x="385.498047" xlink:href="#DejaVuSans-48"/>
      </g>
     </g>
    </g>
    <g id="text_22">
     <!-- timestamp -->
     <g transform="translate(354.264375 510.55125)scale(0.08 -0.08)">
      <defs>
       <path d="M 18.3125 70.21875 
L 18.3125 54.6875 
L 36.8125 54.6875 
L 36.8125 47.703125 
L 18.3125 47.703125 
L 18.3125 18.015625 
Q 18.3125 11.328125 20.140625 9.421875 
Q 21.96875 7.515625 27.59375 7.515625 
L 36.8125 7.515625 
L 36.8125 0 
L 27.59375 0 
Q 17.1875 0 13.234375 3.875 
Q 9.28125 7.765625 9.28125 18.015625 
L 9.28125 47.703125 
L 2.6875 47.703125 
L 2.6875 54.6875 
L 9.28125 54.6875 
L 9.28125 70.21875 
z
" id="DejaVuSans-116"/>
       <path d="M 9.421875 54.6875 
L 18.40625 54.6875 
L 18.40625 0 
L 9.421875 0 
z
M 9.421875 75.984375 
L 18.40625 75.984375 
L 18.40625 64.59375 
L 9.421875 64.59375 
z
" id="DejaVuSans-105"/>
       <path d="M 52 44.1875 
Q 55.375 50.25 60.0625 53.125 
Q 64.75 56 71.09375 56 
Q 79.640625 56 84.28125 50.015625 
Q 88.921875 44.046875 88.921875 33.015625 
L 88.921875 0 
L 79.890625 0 
L 79.890625 32.71875 
Q 79.890625 40.578125 77.09375 44.375 
Q 74.3125 48.1875 68.609375 48.1875 
Q 61.625 48.1875 57.5625 43.546875 
Q 53.515625 38.921875 53.515625 30.90625 
L 53.515625 0 
L 44.484375 0 
L 44.484375 32.71875 
Q 44.484375 40.625 41.703125 44.40625 
Q 38.921875 48.1875 33.109375 48.1875 
Q 26.21875 48.1875 22.15625 43.53125 
Q 18.109375 38.875 18.109375 30.90625 
L 18.109375 0 
L 9.078125 0 
L 9.078125 54.6875 
L 18.109375 54.6875 
L 18.109375 46.1875 
Q 21.1875 51.21875 25.484375 53.609375 
Q 29.78125 56 35.6875 56 
Q 41.65625 56 45.828125 52.96875 
Q 50 49.953125 52 44.1875 
z
" id="DejaVuSans-109"/>
       <path d="M 56.203125 29.59375 
L 56.203125 25.203125 
L 14.890625 25.203125 
Q 15.484375 15.921875 20.484375 11.0625 
Q 25.484375 6.203125 34.421875 6.203125 
Q 39.59375 6.203125 44.453125 7.46875 
Q 49.3125 8.734375 54.109375 11.28125 
L 54.109375 2.78125 
Q 49.265625 0.734375 44.1875 -0.34375 
Q 39.109375 -1.421875 33.890625 -1.421875 
Q 20.796875 -1.421875 13.15625 6.1875 
Q 5.515625 13.8125 5.515625 26.8125 
Q 5.515625 40.234375 12.765625 48.109375 
Q 20.015625 56 32.328125 56 
Q 43.359375 56 49.78125 48.890625 
Q 56.203125 41.796875 56.203125 29.59375 
z
M 47.21875 32.234375 
Q 47.125 39.59375 43.09375 43.984375 
Q 39.0625 48.390625 32.421875 48.390625 
Q 24.90625 48.390625 20.390625 44.140625 
Q 15.875 39.890625 15.1875 32.171875 
z
" id="DejaVuSans-101"/>
       <path d="M 44.28125 53.078125 
L 44.28125 44.578125 
Q 40.484375 46.53125 36.375 47.5 
Q 32.28125 48.484375 27.875 48.484375 
Q 21.1875 48.484375 17.84375 46.4375 
Q 14.5 44.390625 14.5 40.28125 
Q 14.5 37.15625 16.890625 35.375 
Q 19.28125 33.59375 26.515625 31.984375 
L 29.59375 31.296875 
Q 39.15625 29.25 43.1875 25.515625 
Q 47.21875 21.78125 47.21875 15.09375 
Q 47.21875 7.46875 41.1875 3.015625 
Q 35.15625 -1.421875 24.609375 -1.421875 
Q 20.21875 -1.421875 15.453125 -0.5625 
Q 10.6875 0.296875 5.421875 2 
L 5.421875 11.28125 
Q 10.40625 8.6875 15.234375 7.390625 
Q 20.0625 6.109375 24.8125 6.109375 
Q 31.15625 6.109375 34.5625 8.28125 
Q 37.984375 10.453125 37.984375 14.40625 
Q 37.984375 18.0625 35.515625 20.015625 
Q 33.0625 21.96875 24.703125 23.78125 
L 21.578125 24.515625 
Q 13.234375 26.265625 9.515625 29.90625 
Q 5.8125 33.546875 5.8125 39.890625 
Q 5.8125 47.609375 11.28125 51.796875 
Q 16.75 56 26.8125 56 
Q 31.78125 56 36.171875 55.265625 
Q 40.578125 54.546875 44.28125 53.078125 
z
" id="DejaVuSans-115"/>
       <path d="M 34.28125 27.484375 
Q 23.390625 27.484375 19.1875 25 
Q 14.984375 22.515625 14.984375 16.5 
Q 14.984375 11.71875 18.140625 8.90625 
Q 21.296875 6.109375 26.703125 6.109375 
Q 34.1875 6.109375 38.703125 11.40625 
Q 43.21875 16.703125 43.21875 25.484375 
L 43.21875 27.484375 
z
M 52.203125 31.203125 
L 52.203125 0 
L 43.21875 0 
L 43.21875 8.296875 
Q 40.140625 3.328125 35.546875 0.953125 
Q 30.953125 -1.421875 24.3125 -1.421875 
Q 15.921875 -1.421875 10.953125 3.296875 
Q 6 8.015625 6 15.921875 
Q 6 25.140625 12.171875 29.828125 
Q 18.359375 34.515625 30.609375 34.515625 
L 43.21875 34.515625 
L 43.21875 35.40625 
Q 43.21875 41.609375 39.140625 45 
Q 35.0625 48.390625 27.6875 48.390625 
Q 23 48.390625 18.546875 47.265625 
Q 14.109375 46.140625 10.015625 43.890625 
L 10.015625 52.203125 
Q 14.9375 54.109375 19.578125 55.046875 
Q 24.21875 56 28.609375 56 
Q 40.484375 56 46.34375 49.84375 
Q 52.203125 43.703125 52.203125 31.203125 
z
" id="DejaVuSans-97"/>
       <path d="M 18.109375 8.203125 
L 18.109375 -20.796875 
L 9.078125 -20.796875 
L 9.078125 54.6875 
L 18.109375 54.6875 
L 18.109375 46.390625 
Q 20.953125 51.265625 25.265625 53.625 
Q 29.59375 56 35.59375 56 
Q 45.5625 56 51.78125 48.09375 
Q 58.015625 40.1875 58.015625 27.296875 
Q 58.015625 14.40625 51.78125 6.484375 
Q 45.5625 -1.421875 35.59375 -1.421875 
Q 29.59375 -1.421875 25.265625 0.953125 
Q 20.953125 3.328125 18.109375 8.203125 
z
M 48.6875 27.296875 
Q 48.6875 37.203125 44.609375 42.84375 
Q 40.53125 48.484375 33.40625 48.484375 
Q 26.265625 48.484375 22.1875 42.84375 
Q 18.109375 37.203125 18.109375 27.296875 
Q 18.109375 17.390625 22.1875 11.75 
Q 26.265625 6.109375 33.40625 6.109375 
Q 40.53125 6.109375 44.609375 11.75 
Q 48.6875 17.390625 48.6875 27.296875 
z
" id="DejaVuSans-112"/>
      </defs>
      <use xlink:href="#DejaVuSans-116"/>
      <use x="39.208984" xlink:href="#DejaVuSans-105"/>
      <use x="66.992188" xlink:href="#DejaVuSans-109"/>
      <use x="164.404297" xlink:href="#DejaVuSans-101"/>
      <use x="225.927734" xlink:href="#DejaVuSans-115"/>
      <use x="278.027344" xlink:href="#DejaVuSans-116"/>
      <use x="317.236328" xlink:href="#DejaVuSans-97"/>
      <use x="378.515625" xlink:href="#DejaVuSans-109"/>
      <use x="475.927734" xlink:href="#DejaVuSans-112"/>
     </g>
    </g>
   </g>
   <g id="matplotlib.axis_2">
    <g id="ytick_1">
     <g id="line2d_22">
      <defs>
       <path d="M 0 0 
L -3.5 0 
" id="m51e95885cc" style="stroke:#000000;stroke-width:0.8;"/>
      </defs>
      <g>
       <use style="stroke:#000000;stroke-width:0.8;" x="108" xlink:href="#m51e95885cc" y="412.990127"/>
      </g>
     </g>
     <g id="text_23">
      <!-- 10000 -->
      <g transform="translate(69.1875 416.789345)scale(0.1 -0.1)">
       <use xlink:href="#DejaVuSans-49"/>
       <use x="63.623047" xlink:href="#DejaVuSans-48"/>
       <use x="127.246094" xlink:href="#DejaVuSans-48"/>
       <use x="190.869141" xlink:href="#DejaVuSans-48"/>
       <use x="254.492188" xlink:href="#DejaVuSans-48"/>
      </g>
     </g>
    </g>
    <g id="ytick_2">
     <g id="line2d_23">
      <g>
       <use style="stroke:#000000;stroke-width:0.8;" x="108" xlink:href="#m51e95885cc" y="361.782985"/>
      </g>
     </g>
     <g id="text_24">
      <!-- 10250 -->
      <g transform="translate(69.1875 365.582204)scale(0.1 -0.1)">
       <use xlink:href="#DejaVuSans-49"/>
       <use x="63.623047" xlink:href="#DejaVuSans-48"/>
       <use x="127.246094" xlink:href="#DejaVuSans-50"/>
       <use x="190.869141" xlink:href="#DejaVuSans-53"/>
       <use x="254.492188" xlink:href="#DejaVuSans-48"/>
      </g>
     </g>
    </g>
    <g id="ytick_3">
     <g id="line2d_24">
      <g>
       <use style="stroke:#000000;stroke-width:0.8;" x="108" xlink:href="#m51e95885cc" y="310.575843"/>
      </g>
     </g>
     <g id="text_25">
      <!-- 10500 -->
      <g transform="translate(69.1875 314.375062)scale(0.1 -0.1)">
       <use xlink:href="#DejaVuSans-49"/>
       <use x="63.623047" xlink:href="#DejaVuSans-48"/>
       <use x="127.246094" xlink:href="#DejaVuSans-53"/>
       <use x="190.869141" xlink:href="#DejaVuSans-48"/>
       <use x="254.492188" xlink:href="#DejaVuSans-48"/>
      </g>
     </g>
    </g>
    <g id="ytick_4">
     <g id="line2d_25">
      <g>
       <use style="stroke:#000000;stroke-width:0.8;" x="108" xlink:href="#m51e95885cc" y="259.368702"/>
      </g>
     </g>
     <g id="text_26">
      <!-- 10750 -->
      <g transform="translate(69.1875 263.167921)scale(0.1 -0.1)">
       <use xlink:href="#DejaVuSans-49"/>
       <use x="63.623047" xlink:href="#DejaVuSans-48"/>
       <use x="127.246094" xlink:href="#DejaVuSans-55"/>
       <use x="190.869141" xlink:href="#DejaVuSans-53"/>
       <use x="254.492188" xlink:href="#DejaVuSans-48"/>
      </g>
     </g>
    </g>
    <g id="ytick_5">
     <g id="line2d_26">
      <g>
       <use style="stroke:#000000;stroke-width:0.8;" x="108" xlink:href="#m51e95885cc" y="208.16156"/>
      </g>
     </g>
     <g id="text_27">
      <!-- 11000 -->
      <g transform="translate(69.1875 211.960779)scale(0.1 -0.1)">
       <use xlink:href="#DejaVuSans-49"/>
       <use x="63.623047" xlink:href="#DejaVuSans-49"/>
       <use x="127.246094" xlink:href="#DejaVuSans-48"/>
       <use x="190.869141" xlink:href="#DejaVuSans-48"/>
       <use x="254.492188" xlink:href="#DejaVuSans-48"/>
      </g>
     </g>
    </g>
    <g id="ytick_6">
     <g id="line2d_27">
      <g>
       <use style="stroke:#000000;stroke-width:0.8;" x="108" xlink:href="#m51e95885cc" y="156.954419"/>
      </g>
     </g>
     <g id="text_28">
      <!-- 11250 -->
      <g transform="translate(69.1875 160.753637)scale(0.1 -0.1)">
       <use xlink:href="#DejaVuSans-49"/>
       <use x="63.623047" xlink:href="#DejaVuSans-49"/>
       <use x="127.246094" xlink:href="#DejaVuSans-50"/>
       <use x="190.869141" xlink:href="#DejaVuSans-53"/>
       <use x="254.492188" xlink:href="#DejaVuSans-48"/>
      </g>
     </g>
    </g>
    <g id="ytick_7">
     <g id="line2d_28">
      <g>
       <use style="stroke:#000000;stroke-width:0.8;" x="108" xlink:href="#m51e95885cc" y="105.747277"/>
      </g>
     </g>
     <g id="text_29">
      <!-- 11500 -->
      <g transform="translate(69.1875 109.546496)scale(0.1 -0.1)">
       <use xlink:href="#DejaVuSans-49"/>
       <use x="63.623047" xlink:href="#DejaVuSans-49"/>
       <use x="127.246094" xlink:href="#DejaVuSans-53"/>
       <use x="190.869141" xlink:href="#DejaVuSans-48"/>
       <use x="254.492188" xlink:href="#DejaVuSans-48"/>
      </g>
     </g>
    </g>
    <g id="text_30">
     <!-- MB -->
     <g transform="translate(63.52375 260.715625)rotate(-90)scale(0.08 -0.08)">
      <defs>
       <path d="M 9.8125 72.90625 
L 24.515625 72.90625 
L 43.109375 23.296875 
L 61.8125 72.90625 
L 76.515625 72.90625 
L 76.515625 0 
L 66.890625 0 
L 66.890625 64.015625 
L 48.09375 14.015625 
L 38.1875 14.015625 
L 19.390625 64.015625 
L 19.390625 0 
L 9.8125 0 
z
" id="DejaVuSans-77"/>
       <path d="M 19.671875 34.8125 
L 19.671875 8.109375 
L 35.5 8.109375 
Q 43.453125 8.109375 47.28125 11.40625 
Q 51.125 14.703125 51.125 21.484375 
Q 51.125 28.328125 47.28125 31.5625 
Q 43.453125 34.8125 35.5 34.8125 
z
M 19.671875 64.796875 
L 19.671875 42.828125 
L 34.28125 42.828125 
Q 41.5 42.828125 45.03125 45.53125 
Q 48.578125 48.25 48.578125 53.8125 
Q 48.578125 59.328125 45.03125 62.0625 
Q 41.5 64.796875 34.28125 64.796875 
z
M 9.8125 72.90625 
L 35.015625 72.90625 
Q 46.296875 72.90625 52.390625 68.21875 
Q 58.5 63.53125 58.5 54.890625 
Q 58.5 48.1875 55.375 44.234375 
Q 52.25 40.28125 46.1875 39.3125 
Q 53.46875 37.75 57.5 32.78125 
Q 61.53125 27.828125 61.53125 20.40625 
Q 61.53125 10.640625 54.890625 5.3125 
Q 48.25 0 35.984375 0 
L 9.8125 0 
z
" id="DejaVuSans-66"/>
      </defs>
      <use xlink:href="#DejaVuSans-77"/>
      <use x="86.279297" xlink:href="#DejaVuSans-66"/>
     </g>
    </g>
   </g>
   <g id="line2d_29">
    <path clip-path="url(#p1b791b23b7)" d="M 132.349091 79.24328 
L 132.613038 79.299813 
L 132.876984 78.740221 
L 133.140931 78.938495 
L 133.404878 78.923747 
L 133.668825 79.212146 
L 133.932772 78.12 
L 134.196718 78.157688 
L 134.460665 78.983557 
L 134.724612 79.259666 
L 134.988559 79.346513 
L 135.252506 79.66113 
L 135.516452 78.875408 
L 135.780399 108.14541 
L 136.044346 122.949599 
L 136.308293 129.620456 
L 136.572239 187.735236 
L 138.15592 337.979448 
L 138.419867 362.197558 
L 138.947761 384.284632 
L 140.003548 385.782338 
L 140.267494 384.954012 
L 140.531441 385.08756 
L 140.795388 384.903214 
L 141.059335 384.301018 
L 141.323282 384.346081 
L 141.587228 385.060523 
L 141.851175 384.913046 
L 142.115122 385.39808 
L 142.379069 384.478809 
L 142.643016 385.616018 
L 142.906962 385.486566 
L 143.170909 385.86427 
L 143.434856 385.44642 
L 143.698803 386.0437 
L 143.962749 385.462806 
L 144.226696 385.991264 
L 144.75459 385.714335 
L 145.282483 386.128908 
L 145.54643 386.07975 
L 145.810377 386.191996 
L 146.074324 385.580787 
L 146.338271 385.721709 
L 146.602217 385.416924 
L 146.866164 385.757759 
L 147.130111 385.352198 
L 147.394058 385.583245 
L 147.921951 386.424681 
L 148.185898 386.147753 
L 148.449845 386.581989 
L 148.977738 386.231323 
L 149.241685 385.897862 
L 149.505632 387.017864 
L 149.769579 386.981815 
L 150.297472 385.881476 
L 150.561419 386.061725 
L 150.825366 386.45008 
L 151.089313 386.319809 
L 151.353259 385.680744 
L 151.617206 385.928996 
L 151.881153 387.205487 
L 152.672993 387.110447 
L 152.93694 386.569699 
L 153.200887 387.347229 
L 153.464834 387.442269 
L 153.72878 386.606569 
L 153.992727 386.275566 
L 154.256674 388.286982 
L 154.520621 387.605313 
L 154.784568 387.239899 
L 155.048514 390.63104 
L 155.312461 390.994816 
L 155.576408 389.824835 
L 155.840355 389.207072 
L 156.104302 392.057466 
L 156.632195 393.215157 
L 156.896142 391.332373 
L 157.160089 391.207018 
L 157.424035 391.519996 
L 157.687982 390.606461 
L 157.951929 390.564676 
L 158.215876 391.058722 
L 158.479823 391.023492 
L 158.743769 392.01732 
L 159.007716 394.136886 
L 159.271663 394.214721 
L 159.53561 393.90502 
L 159.799557 391.896881 
L 160.063503 393.039824 
L 160.32745 392.63836 
L 160.591397 389.542991 
L 160.855344 390.133717 
L 161.11929 391.187355 
L 161.647184 389.867439 
L 161.911131 389.513496 
L 162.175078 389.471711 
L 162.439024 390.182056 
L 162.702971 389.681455 
L 163.494812 390.372137 
L 163.758758 390.508143 
L 164.022705 390.182875 
L 164.550599 390.32134 
L 164.814545 391.606024 
L 165.078492 391.179981 
L 165.342439 391.196367 
L 165.606386 391.426594 
L 165.870333 390.336087 
L 166.398226 389.624922 
L 166.662173 389.693745 
L 166.92612 390.658078 
L 167.190067 390.28447 
L 167.454013 390.382788 
L 167.71796 390.630221 
L 167.981907 390.479467 
L 168.5098 390.968598 
L 168.773747 391.246345 
L 169.037694 390.852255 
L 169.301641 391.279937 
L 169.565588 391.37252 
L 169.829534 391.194729 
L 170.093481 391.188993 
L 170.357428 391.368423 
L 170.621375 391.172607 
L 170.885322 391.359411 
L 171.149268 390.613835 
L 171.413215 390.935006 
L 171.677162 391.772345 
L 171.941109 391.476573 
L 172.469002 391.761694 
L 172.732949 390.615473 
L 172.996896 391.031685 
L 173.260843 390.884208 
L 173.524789 391.400376 
L 173.788736 390.666271 
L 174.052683 392.413868 
L 174.31663 391.932931 
L 174.580576 391.840348 
L 174.844523 390.808012 
L 175.10847 391.677305 
L 175.372417 391.709258 
L 175.636364 390.845701 
L 175.90031 390.954669 
L 176.164257 392.308996 
L 176.428204 392.004211 
L 176.692151 391.428233 
L 176.956098 391.796105 
L 177.220044 390.161573 
L 177.483991 391.103785 
L 177.747938 390.912884 
L 178.011885 391.065277 
L 178.275831 390.639233 
L 178.539778 392.06484 
L 178.803725 392.164797 
L 179.067672 392.105806 
L 179.331619 391.379074 
L 179.595565 391.510165 
L 179.859512 392.295068 
L 180.387406 391.203741 
L 180.915299 391.714174 
L 181.179246 390.849797 
L 181.70714 391.00219 
L 181.971086 391.661738 
L 182.235033 391.202922 
L 182.49898 391.533925 
L 183.026874 390.850617 
L 183.29082 391.504429 
L 183.818714 391.958329 
L 184.346608 391.284853 
L 184.610554 391.555227 
L 184.874501 391.266009 
L 185.138448 391.190632 
L 185.402395 391.420859 
L 185.666341 392.347504 
L 185.930288 392.063202 
L 186.458182 392.355697 
L 186.722129 392.475317 
L 186.986075 391.796105 
L 187.513969 391.700245 
L 187.777916 393.215977 
L 188.041863 391.511803 
L 188.305809 391.433968 
L 188.833703 390.080461 
L 189.09765 393.060307 
L 189.361596 393.04474 
L 189.625543 392.510547 
L 189.88949 389.411901 
L 190.153437 390.649065 
L 190.417384 390.563037 
L 190.68133 389.958383 
L 191.209224 392.379457 
L 191.473171 391.353675 
L 191.737118 391.424137 
L 192.001064 390.437682 
L 192.265011 390.879293 
L 192.528958 390.398355 
L 192.792905 390.313966 
L 193.320798 388.817079 
L 193.584745 390.226299 
L 193.848692 390.586797 
L 194.112639 390.11815 
L 194.376585 389.415997 
L 194.904479 391.566697 
L 195.168426 391.476573 
L 195.696319 390.28529 
L 195.960266 390.772782 
L 196.48816 390.724442 
L 196.752106 390.005084 
L 197.016053 389.89038 
L 197.28 390.349196 
L 197.543947 390.040315 
L 197.807894 389.336524 
L 198.07184 389.573306 
L 198.335787 390.762131 
L 198.599734 390.681018 
L 198.863681 389.275895 
L 199.127627 389.418455 
L 199.391574 390.187791 
L 199.655521 390.40491 
L 199.919468 390.379511 
L 200.183415 389.606078 
L 200.711308 390.998093 
L 201.239202 391.034143 
L 201.503149 390.227118 
L 201.767095 390.771143 
L 202.031042 390.777698 
L 202.294989 390.517156 
L 202.558936 389.290642 
L 203.086829 390.832592 
L 203.350776 390.206636 
L 203.614723 390.32052 
L 203.87867 389.342259 
L 204.142616 390.481925 
L 204.406563 390.558121 
L 204.67051 390.401632 
L 204.934457 390.046869 
L 205.198404 390.390981 
L 205.46235 391.855915 
L 205.726297 391.637158 
L 205.990244 390.417199 
L 206.254191 390.499131 
L 206.518137 391.553588 
L 206.782084 391.439703 
L 207.309978 390.650704 
L 207.837871 391.095591 
L 208.101818 390.672006 
L 208.629712 390.506505 
L 208.893659 391.514261 
L 209.157605 391.466741 
L 209.421552 391.281576 
L 209.685499 390.48766 
L 209.949446 390.892402 
L 210.213392 390.586797 
L 210.477339 390.482744 
L 210.741286 389.814184 
L 211.26918 391.565878 
L 211.533126 391.731379 
L 211.797073 390.801458 
L 212.324967 392.139398 
L 213.116807 390.949754 
L 213.380754 391.735476 
L 213.644701 391.556865 
L 213.908647 391.065277 
L 214.172594 390.960405 
L 214.436541 390.681018 
L 214.700488 391.039059 
L 214.964435 391.047252 
L 215.228381 391.219308 
L 215.492328 390.431947 
L 215.756275 392.295887 
L 216.020222 391.935389 
L 216.284169 391.93375 
L 216.548115 390.87028 
L 217.076009 392.319647 
L 217.339956 392.091878 
L 217.603902 391.338109 
L 217.867849 391.365146 
L 218.131796 392.085323 
L 218.395743 391.971438 
L 218.65969 392.146772 
L 218.923636 391.712535 
L 219.45153 392.365529 
L 219.715477 391.709258 
L 219.979424 394.401525 
L 220.24337 394.797253 
L 220.507317 394.444129 
L 220.771264 394.358101 
L 221.035211 394.461334 
L 221.299157 393.982855 
L 221.563104 395.143823 
L 221.827051 395.230671 
L 222.090998 397.726302 
L 222.354945 397.150324 
L 222.618891 397.336308 
L 222.882838 395.762406 
L 223.146785 395.797636 
L 223.410732 394.822652 
L 223.674678 394.583412 
L 223.938625 395.732091 
L 224.202572 395.823035 
L 224.466519 395.025023 
L 224.730466 394.866076 
L 225.258359 395.437138 
L 225.522306 395.113509 
L 225.786253 394.5023 
L 226.0502 394.919331 
L 226.314146 399.653329 
L 226.578093 399.228924 
L 226.84204 399.572217 
L 227.105987 398.809435 
L 227.369933 398.555448 
L 227.63388 398.679164 
L 227.897827 398.654585 
L 228.161774 398.022894 
L 228.425721 398.470239 
L 228.689667 399.187139 
L 229.217561 399.085544 
L 229.481508 398.420261 
L 229.745455 399.654968 
L 230.009401 399.48537 
L 230.273348 397.723844 
L 230.801242 397.482146 
L 231.065188 398.584943 
L 231.329135 398.715214 
L 231.593082 398.28999 
L 232.120976 399.466525 
L 232.648869 399.617279 
L 232.912816 398.462046 
L 233.176763 399.062603 
L 233.704656 398.13432 
L 233.968603 397.523931 
L 234.496497 399.19861 
L 234.760443 398.537423 
L 235.02439 398.502192 
L 235.288337 398.151526 
L 235.552284 400.28502 
L 235.816231 399.290373 
L 236.080177 399.248588 
L 236.344124 398.548893 
L 236.608071 398.593136 
L 236.872018 399.75984 
L 237.663858 398.685719 
L 237.927805 399.772949 
L 238.191752 399.759021 
L 238.455698 399.600893 
L 238.719645 398.928236 
L 238.983592 399.421463 
L 239.247539 400.752849 
L 239.511486 400.461992 
L 239.775432 399.792612 
L 240.039379 398.75618 
L 240.303326 398.522675 
L 240.567273 398.761915 
L 240.83122 398.062221 
L 241.095166 397.948336 
L 241.359113 398.424358 
L 241.62306 399.657426 
L 241.887007 399.4018 
L 242.150953 398.512024 
L 242.678847 399.882737 
L 242.942794 399.838494 
L 243.470687 398.686538 
L 243.734634 399.569759 
L 244.262528 399.482092 
L 244.526475 398.843027 
L 244.790421 399.748369 
L 245.054368 399.684463 
L 245.582262 398.518579 
L 246.110155 399.77131 
L 246.374102 398.897102 
L 246.638049 398.771747 
L 246.901996 398.439105 
L 247.429889 400.230946 
L 248.221729 399.207622 
L 248.485676 399.943366 
L 249.01357 400.08183 
L 249.277517 399.083086 
L 249.541463 400.934737 
L 249.80541 401.162506 
L 250.069357 400.953581 
L 250.333304 400.032672 
L 250.861197 400.443967 
L 251.125144 400.402182 
L 251.653038 399.212538 
L 251.916984 401.512353 
L 252.180931 401.764702 
L 252.708825 400.296491 
L 252.972772 400.79873 
L 253.236718 399.830301 
L 253.500665 399.871267 
L 253.764612 398.940526 
L 254.028559 399.609905 
L 254.292506 403.967019 
L 254.820399 403.789227 
L 255.084346 405.762955 
L 255.612239 407.109089 
L 255.876186 406.999301 
L 256.140133 403.317302 
L 256.40408 404.079265 
L 256.668027 405.705603 
L 256.931973 403.892461 
L 257.19592 406.47494 
L 257.459867 406.27093 
L 257.723814 405.170591 
L 257.987761 404.787972 
L 258.251707 404.838769 
L 258.515654 404.293106 
L 258.779601 404.302118 
L 259.043548 404.831395 
L 259.307494 404.620831 
L 259.571441 403.96538 
L 259.835388 402.901091 
L 260.099335 403.950632 
L 260.363282 403.999791 
L 260.891175 403.123944 
L 261.155122 405.4467 
L 261.946962 402.739686 
L 262.474856 404.633121 
L 263.002749 404.421738 
L 263.266696 403.781034 
L 263.530643 404.856794 
L 263.79459 404.139894 
L 264.058537 404.373398 
L 264.322483 403.715489 
L 264.58643 404.148906 
L 264.850377 405.159121 
L 265.114324 405.164856 
L 265.378271 404.942822 
L 265.642217 403.150982 
L 265.906164 404.569215 
L 266.170111 404.655243 
L 266.698004 403.457405 
L 267.225898 404.345542 
L 267.489845 404.433208 
L 267.753792 403.699103 
L 268.017738 403.531143 
L 268.281685 405.808837 
L 268.809579 405.926818 
L 269.073525 404.657701 
L 269.337472 405.451616 
L 269.865366 405.682663 
L 270.129313 404.571673 
L 270.393259 405.499956 
L 270.921153 405.385252 
L 271.1851 404.388146 
L 271.449047 404.230838 
L 271.97694 404.89776 
L 272.504834 404.387327 
L 273.032727 405.336912 
L 273.296674 405.259077 
L 273.560621 404.987884 
L 273.824568 404.067794 
L 274.088514 405.31561 
L 274.352461 405.544199 
L 274.616408 405.29103 
L 274.880355 404.724884 
L 275.144302 405.240233 
L 275.672195 404.751102 
L 275.936142 404.176763 
L 276.200089 404.528249 
L 276.464035 406.083307 
L 276.727982 406.374164 
L 276.991929 406.106248 
L 277.255876 405.318887 
L 277.519823 406.632248 
L 277.783769 405.92518 
L 278.047716 405.725267 
L 278.311663 404.632302 
L 278.839557 405.295127 
L 279.103503 405.177965 
L 279.631397 404.496296 
L 279.895344 406.451179 
L 280.15929 406.396285 
L 280.687184 405.740015 
L 280.951131 405.79327 
L 281.215078 405.032946 
L 281.479024 404.98133 
L 281.742971 404.2759 
L 282.006918 405.142735 
L 282.270865 406.555232 
L 282.534812 406.13984 
L 282.798758 406.193095 
L 283.062705 405.749027 
L 283.590599 405.869466 
L 284.118492 405.00509 
L 284.646386 406.04398 
L 284.910333 405.622033 
L 285.174279 405.827681 
L 285.438226 405.594177 
L 285.702173 406.480675 
L 285.96612 406.787918 
L 286.230067 406.542943 
L 286.494013 405.942385 
L 286.75796 406.523279 
L 287.021907 406.031691 
L 287.285854 406.09232 
L 287.5498 404.88547 
L 287.813747 405.050152 
L 288.341641 409.235209 
L 288.605588 409.153278 
L 288.869534 408.655954 
L 289.133481 406.608488 
L 289.397428 406.340572 
L 289.661375 406.286497 
L 289.925322 405.200087 
L 290.453215 406.848547 
L 290.717162 409.299935 
L 290.981109 409.883287 
L 291.245055 409.15082 
L 291.509002 409.109854 
L 291.772949 407.086148 
L 292.036896 407.120559 
L 292.300843 405.594177 
L 292.564789 406.302884 
L 292.828736 407.974285 
L 293.092683 407.127933 
L 293.35663 406.819052 
L 293.620576 406.158684 
L 293.884523 406.77317 
L 294.412417 406.494603 
L 294.676364 405.826862 
L 294.94031 406.210301 
L 295.204257 407.626895 
L 295.468204 407.498263 
L 295.996098 405.704784 
L 296.260044 406.887055 
L 296.523991 406.732204 
L 296.787938 406.732204 
L 297.051885 405.983351 
L 297.315831 406.78464 
L 297.579778 405.794909 
L 298.107672 404.464342 
L 298.635565 406.459373 
L 298.899512 406.470843 
L 299.427406 405.531909 
L 299.691353 406.23488 
L 299.955299 406.383176 
L 300.219246 406.266014 
L 300.483193 405.60237 
L 301.011086 407.34669 
L 301.275033 407.287699 
L 301.53898 406.479036 
L 301.802927 406.212759 
L 302.066874 406.920647 
L 302.33082 406.43807 
L 302.594767 405.705603 
L 302.858714 405.653167 
L 303.122661 406.397105 
L 303.386608 406.258641 
L 303.650554 406.314354 
L 303.914501 405.626949 
L 304.178448 406.139021 
L 304.442395 407.414693 
L 304.970288 407.20331 
L 305.234235 406.270111 
L 305.498182 407.617064 
L 305.762129 407.820254 
L 306.026075 407.703911 
L 306.553969 406.729746 
L 306.817916 406.889513 
L 307.081863 405.854719 
L 307.345809 405.488485 
L 307.609756 405.871924 
L 307.873703 407.319653 
L 308.13765 407.169718 
L 308.401596 407.252469 
L 308.665543 406.651092 
L 308.92949 407.183646 
L 309.193437 407.122198 
L 309.72133 406.54622 
L 309.985277 406.919827 
L 310.249224 406.54622 
L 310.513171 406.574896 
L 310.777118 406.471662 
L 311.041064 405.536005 
L 311.305011 407.093522 
L 311.568958 407.1435 
L 311.832905 406.897706 
L 312.096851 406.320089 
L 312.360798 406.356958 
L 312.624745 406.8805 
L 312.888692 406.842812 
L 313.152639 406.207024 
L 313.416585 406.917369 
L 314.208426 407.495805 
L 314.472373 406.873946 
L 315.000266 408.022624 
L 315.264213 408.19468 
L 315.52816 406.802665 
L 316.056053 409.050044 
L 316.32 408.171739 
L 316.583947 408.093905 
L 316.847894 407.574459 
L 317.11184 407.664584 
L 317.375787 407.379463 
L 317.639734 407.448285 
L 317.903681 406.676491 
L 318.167627 406.651092 
L 318.431574 407.383559 
L 318.695521 407.471226 
L 318.959468 406.762519 
L 319.223415 407.032893 
L 319.487361 408.470789 
L 319.751308 408.582216 
L 320.279202 407.35816 
L 320.543149 408.822275 
L 320.807095 409.01891 
L 321.071042 408.161908 
L 321.334989 410.075826 
L 321.598936 410.05862 
L 321.862882 411.436707 
L 322.126829 408.818998 
L 322.390776 408.866518 
L 322.654723 408.293817 
L 322.91867 409.263885 
L 323.182616 409.058237 
L 323.446563 411.180261 
L 323.71051 410.528087 
L 323.974457 408.785406 
L 324.238404 409.886564 
L 324.50235 409.896396 
L 325.030244 408.109472 
L 325.294191 409.168845 
L 325.558137 408.677256 
L 325.822084 408.561733 
L 326.086031 407.900546 
L 326.613925 408.270876 
L 326.877871 408.329048 
L 327.141818 407.925945 
L 327.405765 408.730512 
L 327.669712 408.962378 
L 327.933659 408.862421 
L 328.197605 408.583035 
L 328.461552 407.973465 
L 328.725499 409.049225 
L 328.989446 408.956642 
L 329.253392 408.688727 
L 329.517339 408.15863 
L 330.045233 409.770222 
L 330.30918 408.81654 
L 330.573126 408.987776 
L 330.837073 408.399509 
L 331.10102 408.678076 
L 331.364967 408.394593 
L 331.628914 408.388038 
L 331.89286 407.84893 
L 332.684701 409.391698 
L 332.948647 408.786225 
L 333.212594 406.798569 
L 333.476541 409.335985 
L 333.740488 409.419555 
L 334.268381 408.084073 
L 334.532328 408.655135 
L 334.796275 409.707954 
L 335.060222 409.543271 
L 335.324169 408.58959 
L 335.588115 408.519129 
L 335.852062 409.39006 
L 336.116009 409.134434 
L 336.379956 409.159832 
L 336.643902 408.466693 
L 336.907849 409.536717 
L 337.171796 409.278633 
L 337.435743 409.420374 
L 337.69969 408.352808 
L 337.963636 408.013612 
L 338.227583 409.028742 
L 338.49153 408.950907 
L 339.019424 407.855484 
L 339.28337 409.56867 
L 340.075211 408.80425 
L 340.603104 409.890661 
L 340.867051 409.59243 
L 341.130998 408.690365 
L 341.658891 410.2741 
L 341.922838 410.109418 
L 342.186785 410.183975 
L 342.714678 409.580141 
L 342.978625 409.953748 
L 343.506519 408.9124 
L 343.770466 409.897215 
L 344.034412 410.42895 
L 344.298359 409.752197 
L 344.562306 409.978327 
L 344.826253 409.379409 
L 345.0902 410.0832 
L 345.354146 410.35767 
L 345.618093 410.399455 
L 345.88204 409.280272 
L 346.67388 410.296221 
L 346.937827 409.387602 
L 347.201774 409.731714 
L 347.465721 410.588717 
L 347.729667 410.482206 
L 347.993614 408.820636 
L 348.257561 408.789502 
L 348.521508 410.723084 
L 348.785455 409.812007 
L 349.049401 409.586695 
L 349.313348 409.513776 
L 349.577295 409.155736 
L 349.841242 410.138094 
L 350.105188 410.280654 
L 350.633082 409.684194 
L 350.897029 410.335548 
L 351.160976 410.361766 
L 351.424922 410.220844 
L 351.688869 409.563754 
L 351.952816 410.605103 
L 352.48071 410.8468 
L 352.744656 416.627882 
L 353.008603 417.052287 
L 353.27255 416.903991 
L 353.536497 417.160436 
L 353.800443 416.010938 
L 354.06439 415.642247 
L 354.328337 420.356581 
L 354.592284 420.758045 
L 355.120177 419.520061 
L 355.384124 417.576648 
L 355.648071 416.977729 
L 355.912018 417.321022 
L 356.439911 415.848714 
L 356.703858 416.820421 
L 356.967805 417.010502 
L 357.231752 416.967897 
L 357.495698 416.399293 
L 358.023592 418.0158 
L 358.287539 417.946978 
L 358.551486 416.620508 
L 359.079379 417.67005 
L 359.343326 417.606143 
L 359.87122 416.49843 
L 360.135166 417.365265 
L 360.399113 417.711015 
L 360.927007 416.608218 
L 361.190953 417.021153 
L 361.4549 418.847404 
L 361.718847 418.91213 
L 361.982794 418.640118 
L 362.246741 417.846202 
L 362.510687 418.023174 
L 363.038581 417.735595 
L 363.302528 416.910545 
L 363.566475 417.518477 
L 363.830421 417.13176 
L 364.094368 417.237452 
L 364.358315 415.696322 
L 364.622262 415.886403 
L 364.886208 417.353794 
L 365.150155 417.595492 
L 365.414102 417.578286 
L 365.678049 416.94086 
L 365.941996 418.265691 
L 366.205942 417.375916 
L 366.469889 417.350517 
L 366.733836 416.610676 
L 367.525676 418.359912 
L 367.789623 418.406613 
L 368.05357 418.05185 
L 368.317517 418.193592 
L 368.581463 418.066598 
L 368.84541 417.592215 
L 369.109357 417.416882 
L 369.373304 417.431629 
L 369.637251 417.785573 
L 370.165144 416.831891 
L 370.429091 416.393558 
L 370.693038 417.890445 
L 370.956984 417.844564 
L 371.220931 418.300102 
L 371.484878 417.994498 
L 371.748825 417.892084 
L 372.012772 418.621274 
L 372.276718 418.672071 
L 372.540665 417.647928 
L 372.804612 417.429991 
L 373.068559 417.99286 
L 373.332506 418.065778 
L 373.596452 418.285355 
L 373.860399 417.697087 
L 374.124346 418.710579 
L 374.388293 419.275086 
L 374.916186 418.378757 
L 375.180133 419.125971 
L 375.971973 417.008863 
L 376.23592 417.16781 
L 376.499867 419.610186 
L 376.763814 418.440205 
L 377.027761 418.375479 
L 377.291707 417.959268 
L 377.819601 418.574573 
L 378.083548 418.339429 
L 378.347494 417.503729 
L 378.611441 417.773283 
L 378.875388 419.241494 
L 379.139335 419.265255 
L 379.403282 418.867068 
L 379.667228 418.127227 
L 379.931175 419.444684 
L 380.195122 419.1866 
L 380.459069 419.497121 
L 380.723016 418.331236 
L 381.250909 420.02312 
L 381.514856 420.254986 
L 381.778803 419.9035 
L 382.042749 419.137442 
L 382.306696 419.960852 
L 382.570643 420.045242 
L 383.098537 418.705663 
L 383.62643 419.612644 
L 383.890377 418.745809 
L 384.154324 418.855597 
L 384.418271 419.139899 
L 384.682217 418.573753 
L 385.210111 418.345984 
L 385.474058 417.664314 
L 385.738004 419.752747 
L 386.001951 419.157105 
L 386.265898 419.090741 
L 386.529845 418.551632 
L 386.793792 418.413168 
L 387.057738 419.171853 
L 387.321685 421.204571 
L 387.585632 420.389354 
L 387.849579 420.808843 
L 388.113525 422.713748 
L 388.377472 420.623678 
L 389.169313 419.273448 
L 389.433259 422.125481 
L 389.697206 422.129577 
L 389.961153 419.512687 
L 390.2251 419.733902 
L 390.489047 419.397983 
L 390.752993 419.290653 
L 391.280887 418.142794 
L 391.544834 419.296389 
L 391.80878 419.28246 
L 392.336674 417.839648 
L 392.600621 418.253401 
L 392.864568 418.911311 
L 393.128514 418.855597 
L 393.392461 418.415626 
L 393.656408 418.967024 
L 393.920355 420.216478 
L 394.184302 419.710142 
L 394.448248 419.501217 
L 394.712195 418.636841 
L 394.976142 418.826921 
L 395.240089 419.710962 
L 395.504035 419.749469 
L 395.767982 419.052233 
L 396.031929 419.112043 
L 396.295876 420.058351 
L 396.559823 423.682178 
L 396.823769 423.182396 
L 397.087716 422.928409 
L 397.351663 423.043113 
L 397.61561 422.238546 
L 397.879557 422.110733 
L 398.143503 421.447908 
L 398.40745 421.656014 
L 398.671397 422.480244 
L 398.935344 422.46058 
L 399.19929 421.4815 
L 399.463237 421.434799 
L 399.991131 422.536776 
L 400.255078 422.108275 
L 400.519024 420.679391 
L 401.046918 422.840742 
L 401.310865 422.762088 
L 401.574812 422.209051 
L 401.838758 422.957904 
L 402.102705 422.327851 
L 402.366652 422.17464 
L 402.894545 421.037431 
L 403.158492 422.732593 
L 403.422439 423.216807 
L 403.950333 421.592926 
L 404.214279 420.760503 
L 404.478226 421.350409 
L 404.742173 421.350409 
L 405.00612 420.600737 
L 405.270067 420.835061 
L 405.534013 422.410602 
L 405.79796 422.010777 
L 406.061907 421.384001 
L 406.325854 420.435235 
L 406.5898 420.768696 
L 406.853747 421.633073 
L 407.117694 421.548683 
L 407.381641 420.933378 
L 407.645588 421.812503 
L 407.909534 421.485596 
L 408.173481 421.61259 
L 408.701375 420.012469 
L 408.965322 422.177917 
L 409.493215 421.955063 
L 410.021109 420.304145 
L 410.285055 421.334842 
L 410.812949 420.530276 
L 411.076896 420.604014 
L 411.340843 420.953042 
L 411.604789 420.912076 
L 411.868736 421.020226 
L 412.132683 420.263179 
L 412.660576 421.627338 
L 412.924523 421.692063 
L 413.18847 421.377447 
L 413.716364 422.259029 
L 413.98031 422.17382 
L 414.508204 420.443428 
L 414.772151 421.950967 
L 415.036098 420.939114 
L 415.300044 420.757226 
L 415.563991 420.064086 
L 416.091885 421.76744 
L 416.619778 421.957521 
L 416.883725 421.133291 
L 417.147672 421.924749 
L 417.411619 422.029621 
L 417.675565 421.799394 
L 417.939512 420.966151 
L 418.203459 421.824792 
L 418.467406 422.091889 
L 418.731353 420.904702 
L 418.995299 420.556494 
L 419.259246 420.721995 
L 419.523193 421.831347 
L 419.78714 421.059553 
L 420.051086 421.175895 
L 420.57898 424.9218 
L 420.842927 424.956211 
L 421.106874 425.164317 
L 421.37082 422.349153 
L 421.634767 422.286066 
L 421.898714 421.986197 
L 422.426608 421.198836 
L 422.954501 424.306495 
L 423.218448 424.33681 
L 423.482395 423.585499 
L 423.746341 421.064469 
L 424.274235 422.161531 
L 424.802129 420.902244 
L 425.330022 422.779293 
L 425.593969 422.921854 
L 425.857916 422.866141 
L 426.121863 421.58883 
L 426.385809 422.993134 
L 426.649756 426.335937 
L 427.17765 425.293769 
L 427.441596 426.076214 
L 427.705543 425.451077 
L 427.96949 425.241333 
L 428.233437 425.211018 
L 428.497384 424.627666 
L 428.76133 425.619856 
L 429.025277 424.98243 
L 429.289224 425.166775 
L 429.553171 424.554747 
L 430.081064 425.270009 
L 430.345011 425.564143 
L 430.608958 424.840688 
L 431.136851 426.054093 
L 431.400798 426.0926 
L 431.664745 426.390011 
L 431.928692 425.703426 
L 432.192639 426.687423 
L 432.456585 426.766896 
L 432.720532 426.540765 
L 432.984479 426.042622 
L 433.248426 426.447363 
L 433.512373 427.469868 
L 434.304213 426.670217 
L 434.56816 426.313815 
L 434.832106 426.304803 
L 435.36 425.002912 
L 435.623947 424.962766 
L 435.887894 426.336756 
L 436.15184 426.139301 
L 436.415787 425.25608 
L 436.679734 425.365049 
L 437.207627 426.178628 
L 437.471574 426.06966 
L 437.735521 425.653448 
L 437.999468 426.077033 
L 438.263415 426.960254 
L 438.527361 426.957796 
L 438.791308 426.518644 
L 439.055255 426.675952 
L 439.319202 427.568185 
L 439.847095 427.164263 
L 440.111042 426.185183 
L 440.374989 428.29164 
L 440.638936 428.507939 
L 440.902882 426.743136 
L 441.166829 426.633348 
L 441.430776 425.043878 
L 441.694723 426.920927 
L 441.95867 426.389192 
L 442.222616 425.556769 
L 442.486563 425.465825 
L 442.75051 426.307261 
L 443.014457 426.066382 
L 443.278404 426.256463 
L 443.54235 425.57971 
L 443.806297 426.008211 
L 444.070244 427.006136 
L 444.334191 427.09708 
L 444.598137 426.0926 
L 445.126031 427.043005 
L 445.389978 426.817693 
L 445.653925 425.357675 
L 445.917871 425.43633 
L 446.181818 427.445288 
L 446.445765 427.419889 
L 446.709712 427.03727 
L 446.973659 425.963968 
L 447.237605 426.350684 
L 447.501552 425.573974 
L 447.765499 425.721451 
L 448.293392 425.210199 
L 448.557339 426.911915 
L 448.821286 426.999581 
L 449.34918 426.172074 
L 449.613126 426.578454 
L 449.877073 427.50264 
L 450.404967 426.195834 
L 450.93286 426.838176 
L 451.196807 425.946762 
L 451.460754 426.177809 
L 451.724701 425.845167 
L 451.988647 426.417049 
L 452.252594 426.436712 
L 452.516541 426.247451 
L 452.780488 425.633784 
L 453.044435 426.245812 
L 453.308381 429.384605 
L 453.572328 429.2953 
L 454.100222 428.067967 
L 454.364169 426.729208 
L 454.628115 426.879961 
L 454.892062 426.512909 
L 455.156009 425.687859 
L 455.419956 429.256792 
L 455.683902 428.908583 
L 455.947849 426.773451 
L 456.211796 425.954956 
L 456.475743 426.643999 
L 456.73969 427.652575 
L 457.003636 427.361718 
L 457.267583 427.316656 
L 457.53153 426.22451 
L 458.059424 426.562067 
L 458.32337 426.592382 
L 458.587317 425.993463 
L 458.851264 426.575996 
L 459.115211 427.596042 
L 459.643104 426.527656 
L 459.907051 424.549832 
L 460.170998 425.764875 
L 460.434945 425.79437 
L 460.962838 424.967682 
L 461.490732 425.986089 
L 462.018625 424.469539 
L 462.282572 424.959489 
L 462.546519 426.334298 
L 462.810466 425.952498 
L 463.074412 426.163061 
L 463.338359 425.510068 
L 463.602306 427.733687 
L 463.866253 426.679229 
L 464.1302 426.285139 
L 464.394146 425.493682 
L 464.658093 425.405196 
L 464.92204 426.571899 
L 465.449933 425.678847 
L 465.71388 423.575667 
L 465.977827 423.971396 
L 466.241774 423.932888 
L 466.505721 423.710854 
L 466.769667 423.1062 
L 467.033614 423.687094 
L 467.297561 423.652682 
L 467.561508 421.651098 
L 467.825455 421.556057 
L 468.353348 422.720303 
L 468.881242 422.803054 
L 469.145188 422.481063 
L 469.409135 423.664153 
L 469.673082 423.79852 
L 469.937029 423.668249 
L 470.200976 422.28197 
L 470.464922 422.620346 
L 470.728869 423.374935 
L 470.992816 423.454408 
L 471.256763 422.925951 
L 471.52071 423.451131 
L 471.784656 422.409783 
L 472.048603 424.935729 
L 472.31255 425.300323 
L 472.576497 424.745648 
L 472.840443 425.382255 
L 473.10439 426.698074 
L 473.368337 426.760341 
L 473.632284 426.060647 
L 474.424124 425.818949 
L 474.688071 426.056551 
L 474.952018 425.423221 
L 475.215965 427.245376 
L 475.479911 427.083971 
L 475.743858 426.568622 
L 476.007805 425.158582 
L 476.271752 425.123352 
L 476.535698 425.479753 
L 477.063592 424.379414 
L 477.327539 425.630507 
L 477.591486 424.966043 
L 477.855432 425.139738 
L 478.383326 424.272903 
L 478.647273 424.966043 
L 479.175166 424.367944 
L 479.439113 423.34462 
L 479.70306 424.271265 
L 479.967007 425.77061 
L 480.758847 423.493735 
L 481.022794 425.628049 
L 481.286741 424.679283 
L 481.814634 423.815726 
L 482.078581 423.85915 
L 482.342528 424.186056 
L 482.606475 424.100028 
L 482.870421 423.482265 
L 483.134368 423.809171 
L 483.398315 425.108604 
L 483.662262 424.988165 
L 483.926208 424.713694 
L 484.190155 424.004168 
L 484.981996 424.512962 
L 485.245942 426.517005 
L 485.509889 426.649734 
L 485.773836 427.387936 
L 486.037783 427.308463 
L 486.301729 429.141269 
L 486.565676 428.857786 
L 486.829623 430.92 
L 487.357517 427.816438 
L 487.621463 427.460036 
L 487.88541 427.593584 
L 488.149357 427.43136 
L 488.413304 426.073756 
L 488.677251 426.012308 
L 488.941197 426.67841 
L 489.205144 427.016787 
L 489.469091 426.126192 
L 489.733038 426.210582 
L 489.996984 425.738657 
L 490.260931 426.757064 
L 490.788825 427.172457 
L 491.052772 426.836538 
L 491.316718 426.984014 
L 491.580665 427.868874 
L 491.844612 427.814799 
L 492.108559 428.101559 
L 492.372506 426.837357 
L 492.636452 428.083534 
L 492.900399 427.756628 
L 493.164346 428.005699 
L 493.428293 427.028257 
L 493.692239 427.267497 
L 493.956186 428.006518 
L 494.220133 427.4076 
L 494.748027 423.563377 
L 495.011973 424.424477 
L 495.27592 424.607184 
L 495.539867 424.326159 
L 495.803814 423.831293 
L 496.067761 423.998433 
L 496.331707 424.712875 
L 496.595654 424.920162 
L 496.859601 424.172128 
L 497.123548 424.364667 
L 497.387494 424.861171 
L 497.651441 424.883292 
L 497.915388 425.106146 
L 498.179335 424.308953 
L 498.443282 429.435403 
L 498.707228 429.610736 
L 499.235122 427.952444 
L 499.499069 428.444852 
L 500.290909 425.677208 
L 500.554856 426.528476 
L 500.818803 426.938952 
L 501.346696 427.034812 
L 501.610643 426.484233 
L 501.87459 426.949603 
L 502.402483 426.264656 
L 502.66643 424.866906 
L 502.930377 425.587903 
L 503.194324 425.725548 
L 503.722217 424.618654 
L 503.986164 423.322499 
L 504.514058 423.620729 
L 504.778004 423.721505 
L 505.041951 422.967736 
L 505.305898 424.464623 
L 505.569845 424.406452 
L 506.097738 423.381489 
L 506.361685 422.846477 
L 506.625632 424.108221 
L 507.153525 422.833368 
L 507.417472 422.689988 
L 507.681419 424.130343 
L 507.945366 423.319222 
L 508.209313 423.114393 
L 508.473259 422.481882 
L 509.001153 423.777218 
L 509.2651 423.769844 
L 509.529047 423.252857 
L 510.05694 424.379414 
L 510.584834 424.259794 
L 510.84878 423.505206 
L 511.112727 424.368763 
L 511.376674 423.438022 
L 511.640621 423.455228 
L 511.904568 422.350792 
L 512.168514 422.55644 
L 512.432461 422.196761 
L 512.696408 422.122203 
L 512.960355 420.60893 
L 513.224302 420.14274 
L 513.488248 420.997285 
L 513.752195 420.972706 
L 514.016142 420.744117 
L 514.280089 420.124715 
L 514.807982 422.288524 
L 515.335876 421.132472 
L 515.599823 421.79202 
L 515.863769 421.765802 
L 516.127716 420.978441 
L 516.391663 421.120182 
L 516.65561 420.712983 
L 516.919557 422.694904 
L 517.183503 420.894051 
L 517.44745 420.915354 
L 517.711397 419.66508 
L 517.975344 419.96413 
L 518.23929 421.317637 
L 518.503237 421.233247 
L 518.767184 420.776889 
L 519.031131 421.981281 
L 519.295078 424.094293 
L 519.559024 423.986963 
L 519.822971 423.427371 
L 520.086918 420.727731 
L 520.350865 421.369254 
L 520.614812 422.343418 
L 520.878758 421.955063 
L 521.142705 420.461453 
L 521.406652 423.891922 
L 521.670599 423.809991 
L 521.934545 422.907106 
L 522.198492 420.6204 
L 522.462439 419.710142 
L 522.726386 421.878048 
L 522.990333 421.563431 
L 523.254279 421.041528 
L 523.782173 419.73636 
L 524.04612 420.140282 
L 524.310067 420.162404 
L 524.574013 419.476638 
L 524.83796 419.150551 
L 525.101907 420.387715 
L 525.365854 420.711344 
L 525.893747 418.948999 
L 526.157694 420.048519 
L 526.421641 420.089485 
L 526.949534 419.000616 
L 527.477428 420.390173 
L 527.741375 420.391812 
L 528.269268 420.030494 
L 528.533215 420.523721 
L 529.061109 420.444248 
L 529.325055 419.824027 
L 529.589002 419.731444 
L 529.852949 420.363136 
L 530.116896 420.256625 
L 530.380843 419.208722 
L 530.644789 419.419286 
L 531.172683 418.143613 
L 531.43663 418.02809 
L 531.700576 417.232536 
L 531.964523 419.122694 
L 532.492417 419.311136 
L 532.756364 418.602429 
L 533.284257 418.598333 
L 533.812151 418.499196 
L 534.076098 417.536501 
L 534.340044 419.116139 
L 534.603991 419.347186 
L 534.867938 419.298027 
L 535.131885 418.934252 
L 535.395831 417.81343 
L 535.659778 418.460688 
L 535.923725 417.993679 
L 536.187672 416.908907 
L 536.715565 416.643449 
L 536.979512 418.027271 
L 537.243459 418.318127 
L 537.507406 417.221885 
L 537.771353 417.362807 
L 538.299246 418.029729 
L 538.82714 416.149402 
L 539.091086 417.184196 
L 539.355033 417.583202 
L 539.61898 417.412785 
L 539.882927 416.52301 
L 540.146874 416.346038 
L 540.41082 417.360349 
L 540.674767 416.137932 
L 540.938714 416.114991 
L 541.202661 415.625861 
L 541.466608 417.547972 
L 541.730554 417.710196 
L 541.994501 417.515199 
L 542.258448 417.01296 
L 542.522395 417.165352 
L 542.786341 417.806056 
L 543.050288 417.483246 
L 543.314235 416.542673 
L 543.842129 417.671688 
L 544.106075 417.600408 
L 544.633969 416.150222 
L 544.897916 416.681957 
L 545.161863 417.796224 
L 545.425809 417.826539 
L 545.689756 416.967078 
L 545.953703 417.653663 
L 546.21765 417.300539 
L 546.481596 417.314467 
L 547.00949 416.047807 
L 547.273437 418.350081 
L 547.537384 418.336152 
L 548.329224 417.150604 
L 548.593171 417.184196 
L 549.385011 414.6943 
L 549.648958 416.220683 
L 549.912905 415.407104 
L 550.176851 415.547206 
L 550.440798 414.936817 
L 550.704745 414.858163 
L 551.232639 415.301412 
L 551.496585 414.541089 
L 551.760532 414.794257 
L 552.024479 418.754822 
L 552.552373 418.636841 
L 552.816319 418.062501 
L 553.080266 415.262904 
L 553.344213 415.824135 
L 553.60816 415.771699 
L 553.872106 414.761484 
L 554.136053 415.407923 
L 554.4 414.640226 
L 554.663947 416.844181 
L 554.927894 416.846639 
L 555.19184 416.256733 
L 555.455787 417.489801 
L 555.719734 415.31534 
L 555.983681 415.13673 
L 556.247627 414.027378 
L 556.511574 413.610348 
L 556.775521 413.921687 
L 557.039468 413.796332 
L 557.303415 413.204787 
L 557.567361 414.220737 
L 557.831308 418.428735 
L 558.095255 418.714675 
L 558.359202 418.604887 
L 558.623149 417.897819 
L 559.151042 417.928953 
L 559.414989 417.429171 
L 559.678936 416.573807 
L 560.206829 417.990402 
L 560.470776 417.87242 
L 560.734723 417.273502 
L 560.99867 416.298518 
L 561.262616 417.288249 
L 561.526563 417.399676 
L 562.054457 416.294421 
L 562.318404 417.008044 
L 562.58235 418.079707 
L 563.110244 416.991657 
L 563.638137 417.84948 
L 563.902084 417.783115 
L 564.166031 417.833913 
L 564.429978 423.897657 
L 564.693925 425.702607 
L 564.957871 425.130725 
L 565.221818 425.121713 
L 565.749712 423.520773 
L 566.013659 424.689934 
L 566.277605 424.69485 
L 566.541552 424.252421 
L 566.805499 423.388044 
L 567.069446 424.113956 
L 567.333392 423.576486 
L 567.597339 421.818238 
L 567.861286 421.45774 
L 568.125233 421.50526 
L 568.38918 422.927589 
L 568.917073 421.792839 
L 569.18102 421.562612 
L 569.444967 422.823536 
L 569.708914 422.440917 
L 569.97286 422.671963 
L 570.236807 422.039453 
L 570.764701 422.241823 
L 571.028647 422.164808 
L 571.292594 421.484777 
L 571.820488 423.076705 
L 572.084435 422.983303 
L 572.348381 422.56791 
L 572.612328 421.721559 
L 572.876275 421.512634 
L 573.140222 421.756789 
L 573.404169 421.823973 
L 573.668115 420.532734 
L 573.932062 421.174257 
L 574.196009 422.481882 
L 574.459956 422.629359 
L 574.987849 421.320914 
L 575.251796 421.261104 
L 575.77969 420.327905 
L 576.043636 419.017822 
L 576.307583 418.805619 
L 576.57153 419.280822 
L 577.36337 417.176823 
L 577.627317 417.446377 
L 577.891264 417.491439 
L 578.155211 417.389025 
L 578.419157 417.021153 
L 578.683104 418.57785 
L 578.947051 418.011704 
L 579.210998 418.05185 
L 579.474945 417.282514 
L 579.738891 417.154701 
L 580.002838 418.29109 
L 580.266785 418.037102 
L 580.530732 416.98838 
L 580.794678 417.118651 
L 581.058625 418.779401 
L 581.586519 418.626189 
L 581.850466 417.842925 
L 582.114412 418.79251 
L 582.378359 417.483246 
L 582.642306 417.497994 
L 582.906253 416.644268 
L 583.1702 416.946595 
L 583.434146 417.760994 
L 583.698093 417.38247 
L 583.96204 417.556984 
L 584.225987 416.311627 
L 584.489933 417.431629 
L 584.75388 417.634819 
L 585.017827 419.583968 
L 585.281774 419.048136 
L 585.809667 420.491768 
L 586.073614 417.04819 
L 586.865455 415.821677 
L 587.129401 415.863462 
L 587.393348 418.468881 
L 587.657295 417.654483 
L 587.921242 418.3509 
L 588.185188 416.464838 
L 588.449135 416.42715 
L 588.977029 413.634927 
L 589.240976 415.003182 
L 589.504922 414.977783 
L 589.768869 414.777051 
L 590.032816 414.262522 
L 590.296763 415.724998 
L 590.56071 415.383344 
L 590.824656 415.33992 
L 591.088603 414.439494 
L 591.35255 414.483737 
L 591.616497 415.517711 
L 592.14439 415.536555 
L 592.408337 414.422288 
L 592.672284 414.781148 
L 593.200177 414.294475 
L 593.464124 413.4047 
L 593.728071 414.108491 
L 593.992018 416.03224 
L 594.519911 414.595163 
L 594.783858 415.235867 
L 595.311752 414.155191 
L 595.575698 413.893011 
L 595.839645 413.157267 
L 596.103592 414.189603 
L 596.367539 414.482917 
L 596.631486 414.540269 
L 596.895432 413.672615 
L 597.687273 414.708229 
L 597.95122 413.675893 
L 598.215166 413.868432 
L 598.479113 415.279291 
L 598.74306 415.513615 
L 599.270953 413.9774 
L 599.5349 413.912674 
L 599.798847 414.785244 
L 600.062794 414.655793 
L 600.326741 413.648036 
L 600.590687 414.032294 
L 600.854634 413.744715 
L 601.382528 413.626734 
L 601.646475 413.137603 
L 601.910421 414.088827 
L 602.438315 414.224833 
L 602.702262 413.489908 
L 602.966208 414.3125 
L 603.230155 414.472266 
L 603.494102 414.226472 
L 603.758049 413.498101 
L 604.021996 413.480077 
L 604.285942 413.82255 
L 604.813836 411.520277 
L 605.077783 411.631704 
L 605.341729 416.542673 
L 605.605676 416.64263 
L 605.869623 416.572169 
L 606.13357 415.897054 
L 606.397517 415.780711 
L 606.661463 416.980187 
L 606.92541 417.369361 
L 607.453304 416.284589 
L 607.717251 416.060916 
L 607.981197 416.136293 
L 608.509091 415.091668 
L 608.773038 418.450856 
L 609.036984 418.905576 
L 609.300931 418.954734 
L 609.828825 416.124004 
L 610.092772 416.477128 
L 610.356718 416.109256 
L 610.620665 415.207191 
L 610.884612 417.652025 
L 611.412506 419.396345 
L 611.676452 419.422563 
L 611.940399 418.275523 
L 612.204346 418.285355 
L 612.468293 418.890828 
L 612.732239 418.507389 
L 612.996186 418.723688 
L 613.260133 417.721666 
L 613.52408 420.490949 
L 613.788027 420.291036 
L 614.051973 420.380341 
L 614.31592 419.813376 
L 614.843814 421.162786 
L 615.107761 421.184089 
L 615.371707 420.020662 
L 615.899601 421.207849 
L 616.163548 421.374169 
L 616.691441 420.279566 
L 616.955388 421.196378 
L 617.483282 421.195559 
L 617.747228 420.616304 
L 618.011175 423.598608 
L 618.539069 423.789508 
L 618.803016 421.64782 
L 619.066962 420.850628 
L 619.330909 422.44911 
L 619.330909 422.44911 
" style="fill:none;stroke:#1f77b4;stroke-linecap:square;stroke-width:1.5;"/>
   </g>
   <g id="patch_3">
    <path d="M 108 448.56 
L 108 60.48 
" style="fill:none;stroke:#000000;stroke-linecap:square;stroke-linejoin:miter;stroke-width:0.8;"/>
   </g>
   <g id="patch_4">
    <path d="M 643.68 448.56 
L 643.68 60.48 
" style="fill:none;stroke:#000000;stroke-linecap:square;stroke-linejoin:miter;stroke-width:0.8;"/>
   </g>
   <g id="patch_5">
    <path d="M 108 448.56 
L 643.68 448.56 
" style="fill:none;stroke:#000000;stroke-linecap:square;stroke-linejoin:miter;stroke-width:0.8;"/>
   </g>
   <g id="patch_6">
    <path d="M 108 60.48 
L 643.68 60.48 
" style="fill:none;stroke:#000000;stroke-linecap:square;stroke-linejoin:miter;stroke-width:0.8;"/>
   </g>
   <g id="text_31">
    <!-- unikernel_allocpool - vmstat -->
    <g transform="translate(270.310313 54.48)scale(0.15 -0.15)">
     <defs>
      <path d="M 8.5 21.578125 
L 8.5 54.6875 
L 17.484375 54.6875 
L 17.484375 21.921875 
Q 17.484375 14.15625 20.5 10.265625 
Q 23.53125 6.390625 29.59375 6.390625 
Q 36.859375 6.390625 41.078125 11.03125 
Q 45.3125 15.671875 45.3125 23.6875 
L 45.3125 54.6875 
L 54.296875 54.6875 
L 54.296875 0 
L 45.3125 0 
L 45.3125 8.40625 
Q 42.046875 3.421875 37.71875 1 
Q 33.40625 -1.421875 27.6875 -1.421875 
Q 18.265625 -1.421875 13.375 4.4375 
Q 8.5 10.296875 8.5 21.578125 
z
M 31.109375 56 
z
" id="DejaVuSans-117"/>
      <path d="M 54.890625 33.015625 
L 54.890625 0 
L 45.90625 0 
L 45.90625 32.71875 
Q 45.90625 40.484375 42.875 44.328125 
Q 39.84375 48.1875 33.796875 48.1875 
Q 26.515625 48.1875 22.3125 43.546875 
Q 18.109375 38.921875 18.109375 30.90625 
L 18.109375 0 
L 9.078125 0 
L 9.078125 54.6875 
L 18.109375 54.6875 
L 18.109375 46.1875 
Q 21.34375 51.125 25.703125 53.5625 
Q 30.078125 56 35.796875 56 
Q 45.21875 56 50.046875 50.171875 
Q 54.890625 44.34375 54.890625 33.015625 
z
" id="DejaVuSans-110"/>
      <path d="M 9.078125 75.984375 
L 18.109375 75.984375 
L 18.109375 31.109375 
L 44.921875 54.6875 
L 56.390625 54.6875 
L 27.390625 29.109375 
L 57.625 0 
L 45.90625 0 
L 18.109375 26.703125 
L 18.109375 0 
L 9.078125 0 
z
" id="DejaVuSans-107"/>
      <path d="M 41.109375 46.296875 
Q 39.59375 47.171875 37.8125 47.578125 
Q 36.03125 48 33.890625 48 
Q 26.265625 48 22.1875 43.046875 
Q 18.109375 38.09375 18.109375 28.8125 
L 18.109375 0 
L 9.078125 0 
L 9.078125 54.6875 
L 18.109375 54.6875 
L 18.109375 46.1875 
Q 20.953125 51.171875 25.484375 53.578125 
Q 30.03125 56 36.53125 56 
Q 37.453125 56 38.578125 55.875 
Q 39.703125 55.765625 41.0625 55.515625 
z
" id="DejaVuSans-114"/>
      <path d="M 9.421875 75.984375 
L 18.40625 75.984375 
L 18.40625 0 
L 9.421875 0 
z
" id="DejaVuSans-108"/>
      <path d="M 50.984375 -16.609375 
L 50.984375 -23.578125 
L -0.984375 -23.578125 
L -0.984375 -16.609375 
z
" id="DejaVuSans-95"/>
      <path d="M 30.609375 48.390625 
Q 23.390625 48.390625 19.1875 42.75 
Q 14.984375 37.109375 14.984375 27.296875 
Q 14.984375 17.484375 19.15625 11.84375 
Q 23.34375 6.203125 30.609375 6.203125 
Q 37.796875 6.203125 41.984375 11.859375 
Q 46.1875 17.53125 46.1875 27.296875 
Q 46.1875 37.015625 41.984375 42.703125 
Q 37.796875 48.390625 30.609375 48.390625 
z
M 30.609375 56 
Q 42.328125 56 49.015625 48.375 
Q 55.71875 40.765625 55.71875 27.296875 
Q 55.71875 13.875 49.015625 6.21875 
Q 42.328125 -1.421875 30.609375 -1.421875 
Q 18.84375 -1.421875 12.171875 6.21875 
Q 5.515625 13.875 5.515625 27.296875 
Q 5.515625 40.765625 12.171875 48.375 
Q 18.84375 56 30.609375 56 
z
" id="DejaVuSans-111"/>
      <path d="M 48.78125 52.59375 
L 48.78125 44.1875 
Q 44.96875 46.296875 41.140625 47.34375 
Q 37.3125 48.390625 33.40625 48.390625 
Q 24.65625 48.390625 19.8125 42.84375 
Q 14.984375 37.3125 14.984375 27.296875 
Q 14.984375 17.28125 19.8125 11.734375 
Q 24.65625 6.203125 33.40625 6.203125 
Q 37.3125 6.203125 41.140625 7.25 
Q 44.96875 8.296875 48.78125 10.40625 
L 48.78125 2.09375 
Q 45.015625 0.34375 40.984375 -0.53125 
Q 36.96875 -1.421875 32.421875 -1.421875 
Q 20.0625 -1.421875 12.78125 6.34375 
Q 5.515625 14.109375 5.515625 27.296875 
Q 5.515625 40.671875 12.859375 48.328125 
Q 20.21875 56 33.015625 56 
Q 37.15625 56 41.109375 55.140625 
Q 45.0625 54.296875 48.78125 52.59375 
z
" id="DejaVuSans-99"/>
      <path id="DejaVuSans-32"/>
      <path d="M 4.890625 31.390625 
L 31.203125 31.390625 
L 31.203125 23.390625 
L 4.890625 23.390625 
z
" id="DejaVuSans-45"/>
      <path d="M 2.984375 54.6875 
L 12.5 54.6875 
L 29.59375 8.796875 
L 46.6875 54.6875 
L 56.203125 54.6875 
L 35.6875 0 
L 23.484375 0 
z
" id="DejaVuSans-118"/>
     </defs>
     <use xlink:href="#DejaVuSans-117"/>
     <use x="63.378906" xlink:href="#DejaVuSans-110"/>
     <use x="126.757812" xlink:href="#DejaVuSans-105"/>
     <use x="154.541016" xlink:href="#DejaVuSans-107"/>
     <use x="208.826172" xlink:href="#DejaVuSans-101"/>
     <use x="270.349609" xlink:href="#DejaVuSans-114"/>
     <use x="309.712891" xlink:href="#DejaVuSans-110"/>
     <use x="373.091797" xlink:href="#DejaVuSans-101"/>
     <use x="434.615234" xlink:href="#DejaVuSans-108"/>
     <use x="462.398438" xlink:href="#DejaVuSans-95"/>
     <use x="512.398438" xlink:href="#DejaVuSans-97"/>
     <use x="573.677734" xlink:href="#DejaVuSans-108"/>
     <use x="601.460938" xlink:href="#DejaVuSans-108"/>
     <use x="629.244141" xlink:href="#DejaVuSans-111"/>
     <use x="690.425781" xlink:href="#DejaVuSans-99"/>
     <use x="745.40625" xlink:href="#DejaVuSans-112"/>
     <use x="808.882812" xlink:href="#DejaVuSans-111"/>
     <use x="870.064453" xlink:href="#DejaVuSans-111"/>
     <use x="931.246094" xlink:href="#DejaVuSans-108"/>
     <use x="959.029297" xlink:href="#DejaVuSans-32"/>
     <use x="990.816406" xlink:href="#DejaVuSans-45"/>
     <use x="1026.900391" xlink:href="#DejaVuSans-32"/>
     <use x="1058.6875" xlink:href="#DejaVuSans-118"/>
     <use x="1117.867188" xlink:href="#DejaVuSans-109"/>
     <use x="1215.279297" xlink:href="#DejaVuSans-115"/>
     <use x="1267.378906" xlink:href="#DejaVuSans-116"/>
     <use x="1306.587891" xlink:href="#DejaVuSans-97"/>
     <use x="1367.867188" xlink:href="#DejaVuSans-116"/>
    </g>
   </g>
   <g id="legend_1">
    <g id="patch_7">
     <path d="M 650.68 258.52 
L 654.68 258.52 
Q 656.68 258.52 656.68 256.52 
L 656.68 252.52 
Q 656.68 250.52 654.68 250.52 
L 650.68 250.52 
Q 648.68 250.52 648.68 252.52 
L 648.68 256.52 
Q 648.68 258.52 650.68 258.52 
z
" style="fill:#ffffff;opacity:0.8;stroke:#cccccc;stroke-linejoin:miter;"/>
    </g>
   </g>
  </g>
 </g>
 <defs>
  <clipPath id="p1b791b23b7">
   <rect height="388.08" width="535.68" x="108" y="60.48"/>
  </clipPath>
 </defs>
</svg>
