<?xml version="1.0" encoding="utf-8" standalone="no"?>
<!DOCTYPE svg PUBLIC "-//W3C//DTD SVG 1.1//EN"
  "http://www.w3.org/Graphics/SVG/1.1/DTD/svg11.dtd">
<!-- Created with matplotlib (https://matplotlib.org/) -->
<svg height="504pt" version="1.1" viewBox="0 0 864 504" width="864pt" xmlns="http://www.w3.org/2000/svg" xmlns:xlink="http://www.w3.org/1999/xlink">
 <metadata>
  <rdf:RDF xmlns:cc="http://creativecommons.org/ns#" xmlns:dc="http://purl.org/dc/elements/1.1/" xmlns:rdf="http://www.w3.org/1999/02/22-rdf-syntax-ns#">
   <cc:Work>
    <dc:type rdf:resource="http://purl.org/dc/dcmitype/StillImage"/>
    <dc:date>2022-05-29T17:02:30.678122</dc:date>
    <dc:format>image/svg+xml</dc:format>
    <dc:creator>
     <cc:Agent>
      <dc:title>Matplotlib v3.3.4, https://matplotlib.org/</dc:title>
     </cc:Agent>
    </dc:creator>
   </cc:Work>
  </rdf:RDF>
 </metadata>
 <defs>
  <style type="text/css">*{stroke-linecap:butt;stroke-linejoin:round;}</style>
 </defs>
 <g id="figure_1">
  <g id="patch_1">
   <path d="M 0 504 
L 864 504 
L 864 0 
L 0 0 
z
" style="fill:#ffffff;"/>
  </g>
  <g id="axes_1">
   <g id="patch_2">
    <path d="M 108 448.56 
L 643.68 448.56 
L 643.68 60.48 
L 108 60.48 
z
" style="fill:#ffffff;"/>
   </g>
   <g id="matplotlib.axis_1">
    <g id="xtick_1">
     <g id="line2d_1">
      <defs>
       <path d="M 0 0 
L 0 3.5 
" id="m0adf22269f" style="stroke:#000000;stroke-width:0.8;"/>
      </defs>
      <g>
       <use style="stroke:#000000;stroke-width:0.8;" x="132.349091" xlink:href="#m0adf22269f" y="448.56"/>
      </g>
     </g>
     <g id="text_1">
      <!-- 17:13:12 -->
      <g transform="translate(135.108466 500.4725)rotate(-90)scale(0.1 -0.1)">
       <defs>
        <path d="M 12.40625 8.296875 
L 28.515625 8.296875 
L 28.515625 63.921875 
L 10.984375 60.40625 
L 10.984375 69.390625 
L 28.421875 72.90625 
L 38.28125 72.90625 
L 38.28125 8.296875 
L 54.390625 8.296875 
L 54.390625 0 
L 12.40625 0 
z
" id="DejaVuSans-49"/>
        <path d="M 8.203125 72.90625 
L 55.078125 72.90625 
L 55.078125 68.703125 
L 28.609375 0 
L 18.3125 0 
L 43.21875 64.59375 
L 8.203125 64.59375 
z
" id="DejaVuSans-55"/>
        <path d="M 11.71875 12.40625 
L 22.015625 12.40625 
L 22.015625 0 
L 11.71875 0 
z
M 11.71875 51.703125 
L 22.015625 51.703125 
L 22.015625 39.3125 
L 11.71875 39.3125 
z
" id="DejaVuSans-58"/>
        <path d="M 40.578125 39.3125 
Q 47.65625 37.796875 51.625 33 
Q 55.609375 28.21875 55.609375 21.1875 
Q 55.609375 10.40625 48.1875 4.484375 
Q 40.765625 -1.421875 27.09375 -1.421875 
Q 22.515625 -1.421875 17.65625 -0.515625 
Q 12.796875 0.390625 7.625 2.203125 
L 7.625 11.71875 
Q 11.71875 9.328125 16.59375 8.109375 
Q 21.484375 6.890625 26.8125 6.890625 
Q 36.078125 6.890625 40.9375 10.546875 
Q 45.796875 14.203125 45.796875 21.1875 
Q 45.796875 27.640625 41.28125 31.265625 
Q 36.765625 34.90625 28.71875 34.90625 
L 20.21875 34.90625 
L 20.21875 43.015625 
L 29.109375 43.015625 
Q 36.375 43.015625 40.234375 45.921875 
Q 44.09375 48.828125 44.09375 54.296875 
Q 44.09375 59.90625 40.109375 62.90625 
Q 36.140625 65.921875 28.71875 65.921875 
Q 24.65625 65.921875 20.015625 65.03125 
Q 15.375 64.15625 9.8125 62.3125 
L 9.8125 71.09375 
Q 15.4375 72.65625 20.34375 73.4375 
Q 25.25 74.21875 29.59375 74.21875 
Q 40.828125 74.21875 47.359375 69.109375 
Q 53.90625 64.015625 53.90625 55.328125 
Q 53.90625 49.265625 50.4375 45.09375 
Q 46.96875 40.921875 40.578125 39.3125 
z
" id="DejaVuSans-51"/>
        <path d="M 19.1875 8.296875 
L 53.609375 8.296875 
L 53.609375 0 
L 7.328125 0 
L 7.328125 8.296875 
Q 12.9375 14.109375 22.625 23.890625 
Q 32.328125 33.6875 34.8125 36.53125 
Q 39.546875 41.84375 41.421875 45.53125 
Q 43.3125 49.21875 43.3125 52.78125 
Q 43.3125 58.59375 39.234375 62.25 
Q 35.15625 65.921875 28.609375 65.921875 
Q 23.96875 65.921875 18.8125 64.3125 
Q 13.671875 62.703125 7.8125 59.421875 
L 7.8125 69.390625 
Q 13.765625 71.78125 18.9375 73 
Q 24.125 74.21875 28.421875 74.21875 
Q 39.75 74.21875 46.484375 68.546875 
Q 53.21875 62.890625 53.21875 53.421875 
Q 53.21875 48.921875 51.53125 44.890625 
Q 49.859375 40.875 45.40625 35.40625 
Q 44.1875 33.984375 37.640625 27.21875 
Q 31.109375 20.453125 19.1875 8.296875 
z
" id="DejaVuSans-50"/>
       </defs>
       <use xlink:href="#DejaVuSans-49"/>
       <use x="63.623047" xlink:href="#DejaVuSans-55"/>
       <use x="127.246094" xlink:href="#DejaVuSans-58"/>
       <use x="160.9375" xlink:href="#DejaVuSans-49"/>
       <use x="224.560547" xlink:href="#DejaVuSans-51"/>
       <use x="288.183594" xlink:href="#DejaVuSans-58"/>
       <use x="321.875" xlink:href="#DejaVuSans-49"/>
       <use x="385.498047" xlink:href="#DejaVuSans-50"/>
      </g>
     </g>
    </g>
    <g id="xtick_2">
     <g id="line2d_2">
      <g>
       <use style="stroke:#000000;stroke-width:0.8;" x="156.609732" xlink:href="#m0adf22269f" y="448.56"/>
      </g>
     </g>
     <g id="text_2">
      <!-- 17:14:56 -->
      <g transform="translate(159.369107 500.4725)rotate(-90)scale(0.1 -0.1)">
       <defs>
        <path d="M 37.796875 64.3125 
L 12.890625 25.390625 
L 37.796875 25.390625 
z
M 35.203125 72.90625 
L 47.609375 72.90625 
L 47.609375 25.390625 
L 58.015625 25.390625 
L 58.015625 17.1875 
L 47.609375 17.1875 
L 47.609375 0 
L 37.796875 0 
L 37.796875 17.1875 
L 4.890625 17.1875 
L 4.890625 26.703125 
z
" id="DejaVuSans-52"/>
        <path d="M 10.796875 72.90625 
L 49.515625 72.90625 
L 49.515625 64.59375 
L 19.828125 64.59375 
L 19.828125 46.734375 
Q 21.96875 47.46875 24.109375 47.828125 
Q 26.265625 48.1875 28.421875 48.1875 
Q 40.625 48.1875 47.75 41.5 
Q 54.890625 34.8125 54.890625 23.390625 
Q 54.890625 11.625 47.5625 5.09375 
Q 40.234375 -1.421875 26.90625 -1.421875 
Q 22.3125 -1.421875 17.546875 -0.640625 
Q 12.796875 0.140625 7.71875 1.703125 
L 7.71875 11.625 
Q 12.109375 9.234375 16.796875 8.0625 
Q 21.484375 6.890625 26.703125 6.890625 
Q 35.15625 6.890625 40.078125 11.328125 
Q 45.015625 15.765625 45.015625 23.390625 
Q 45.015625 31 40.078125 35.4375 
Q 35.15625 39.890625 26.703125 39.890625 
Q 22.75 39.890625 18.8125 39.015625 
Q 14.890625 38.140625 10.796875 36.28125 
z
" id="DejaVuSans-53"/>
        <path d="M 33.015625 40.375 
Q 26.375 40.375 22.484375 35.828125 
Q 18.609375 31.296875 18.609375 23.390625 
Q 18.609375 15.53125 22.484375 10.953125 
Q 26.375 6.390625 33.015625 6.390625 
Q 39.65625 6.390625 43.53125 10.953125 
Q 47.40625 15.53125 47.40625 23.390625 
Q 47.40625 31.296875 43.53125 35.828125 
Q 39.65625 40.375 33.015625 40.375 
z
M 52.59375 71.296875 
L 52.59375 62.3125 
Q 48.875 64.0625 45.09375 64.984375 
Q 41.3125 65.921875 37.59375 65.921875 
Q 27.828125 65.921875 22.671875 59.328125 
Q 17.53125 52.734375 16.796875 39.40625 
Q 19.671875 43.65625 24.015625 45.921875 
Q 28.375 48.1875 33.59375 48.1875 
Q 44.578125 48.1875 50.953125 41.515625 
Q 57.328125 34.859375 57.328125 23.390625 
Q 57.328125 12.15625 50.6875 5.359375 
Q 44.046875 -1.421875 33.015625 -1.421875 
Q 20.359375 -1.421875 13.671875 8.265625 
Q 6.984375 17.96875 6.984375 36.375 
Q 6.984375 53.65625 15.1875 63.9375 
Q 23.390625 74.21875 37.203125 74.21875 
Q 40.921875 74.21875 44.703125 73.484375 
Q 48.484375 72.75 52.59375 71.296875 
z
" id="DejaVuSans-54"/>
       </defs>
       <use xlink:href="#DejaVuSans-49"/>
       <use x="63.623047" xlink:href="#DejaVuSans-55"/>
       <use x="127.246094" xlink:href="#DejaVuSans-58"/>
       <use x="160.9375" xlink:href="#DejaVuSans-49"/>
       <use x="224.560547" xlink:href="#DejaVuSans-52"/>
       <use x="288.183594" xlink:href="#DejaVuSans-58"/>
       <use x="321.875" xlink:href="#DejaVuSans-53"/>
       <use x="385.498047" xlink:href="#DejaVuSans-54"/>
      </g>
     </g>
    </g>
    <g id="xtick_3">
     <g id="line2d_3">
      <g>
       <use style="stroke:#000000;stroke-width:0.8;" x="180.870372" xlink:href="#m0adf22269f" y="448.56"/>
      </g>
     </g>
     <g id="text_3">
      <!-- 17:16:42 -->
      <g transform="translate(183.629747 500.4725)rotate(-90)scale(0.1 -0.1)">
       <use xlink:href="#DejaVuSans-49"/>
       <use x="63.623047" xlink:href="#DejaVuSans-55"/>
       <use x="127.246094" xlink:href="#DejaVuSans-58"/>
       <use x="160.9375" xlink:href="#DejaVuSans-49"/>
       <use x="224.560547" xlink:href="#DejaVuSans-54"/>
       <use x="288.183594" xlink:href="#DejaVuSans-58"/>
       <use x="321.875" xlink:href="#DejaVuSans-52"/>
       <use x="385.498047" xlink:href="#DejaVuSans-50"/>
      </g>
     </g>
    </g>
    <g id="xtick_4">
     <g id="line2d_4">
      <g>
       <use style="stroke:#000000;stroke-width:0.8;" x="205.131013" xlink:href="#m0adf22269f" y="448.56"/>
      </g>
     </g>
     <g id="text_4">
      <!-- 17:18:28 -->
      <g transform="translate(207.890388 500.4725)rotate(-90)scale(0.1 -0.1)">
       <defs>
        <path d="M 31.78125 34.625 
Q 24.75 34.625 20.71875 30.859375 
Q 16.703125 27.09375 16.703125 20.515625 
Q 16.703125 13.921875 20.71875 10.15625 
Q 24.75 6.390625 31.78125 6.390625 
Q 38.8125 6.390625 42.859375 10.171875 
Q 46.921875 13.96875 46.921875 20.515625 
Q 46.921875 27.09375 42.890625 30.859375 
Q 38.875 34.625 31.78125 34.625 
z
M 21.921875 38.8125 
Q 15.578125 40.375 12.03125 44.71875 
Q 8.5 49.078125 8.5 55.328125 
Q 8.5 64.0625 14.71875 69.140625 
Q 20.953125 74.21875 31.78125 74.21875 
Q 42.671875 74.21875 48.875 69.140625 
Q 55.078125 64.0625 55.078125 55.328125 
Q 55.078125 49.078125 51.53125 44.71875 
Q 48 40.375 41.703125 38.8125 
Q 48.828125 37.15625 52.796875 32.3125 
Q 56.78125 27.484375 56.78125 20.515625 
Q 56.78125 9.90625 50.3125 4.234375 
Q 43.84375 -1.421875 31.78125 -1.421875 
Q 19.734375 -1.421875 13.25 4.234375 
Q 6.78125 9.90625 6.78125 20.515625 
Q 6.78125 27.484375 10.78125 32.3125 
Q 14.796875 37.15625 21.921875 38.8125 
z
M 18.3125 54.390625 
Q 18.3125 48.734375 21.84375 45.5625 
Q 25.390625 42.390625 31.78125 42.390625 
Q 38.140625 42.390625 41.71875 45.5625 
Q 45.3125 48.734375 45.3125 54.390625 
Q 45.3125 60.0625 41.71875 63.234375 
Q 38.140625 66.40625 31.78125 66.40625 
Q 25.390625 66.40625 21.84375 63.234375 
Q 18.3125 60.0625 18.3125 54.390625 
z
" id="DejaVuSans-56"/>
       </defs>
       <use xlink:href="#DejaVuSans-49"/>
       <use x="63.623047" xlink:href="#DejaVuSans-55"/>
       <use x="127.246094" xlink:href="#DejaVuSans-58"/>
       <use x="160.9375" xlink:href="#DejaVuSans-49"/>
       <use x="224.560547" xlink:href="#DejaVuSans-56"/>
       <use x="288.183594" xlink:href="#DejaVuSans-58"/>
       <use x="321.875" xlink:href="#DejaVuSans-50"/>
       <use x="385.498047" xlink:href="#DejaVuSans-56"/>
      </g>
     </g>
    </g>
    <g id="xtick_5">
     <g id="line2d_5">
      <g>
       <use style="stroke:#000000;stroke-width:0.8;" x="229.391654" xlink:href="#m0adf22269f" y="448.56"/>
      </g>
     </g>
     <g id="text_5">
      <!-- 17:20:13 -->
      <g transform="translate(232.151029 500.4725)rotate(-90)scale(0.1 -0.1)">
       <defs>
        <path d="M 31.78125 66.40625 
Q 24.171875 66.40625 20.328125 58.90625 
Q 16.5 51.421875 16.5 36.375 
Q 16.5 21.390625 20.328125 13.890625 
Q 24.171875 6.390625 31.78125 6.390625 
Q 39.453125 6.390625 43.28125 13.890625 
Q 47.125 21.390625 47.125 36.375 
Q 47.125 51.421875 43.28125 58.90625 
Q 39.453125 66.40625 31.78125 66.40625 
z
M 31.78125 74.21875 
Q 44.046875 74.21875 50.515625 64.515625 
Q 56.984375 54.828125 56.984375 36.375 
Q 56.984375 17.96875 50.515625 8.265625 
Q 44.046875 -1.421875 31.78125 -1.421875 
Q 19.53125 -1.421875 13.0625 8.265625 
Q 6.59375 17.96875 6.59375 36.375 
Q 6.59375 54.828125 13.0625 64.515625 
Q 19.53125 74.21875 31.78125 74.21875 
z
" id="DejaVuSans-48"/>
       </defs>
       <use xlink:href="#DejaVuSans-49"/>
       <use x="63.623047" xlink:href="#DejaVuSans-55"/>
       <use x="127.246094" xlink:href="#DejaVuSans-58"/>
       <use x="160.9375" xlink:href="#DejaVuSans-50"/>
       <use x="224.560547" xlink:href="#DejaVuSans-48"/>
       <use x="288.183594" xlink:href="#DejaVuSans-58"/>
       <use x="321.875" xlink:href="#DejaVuSans-49"/>
       <use x="385.498047" xlink:href="#DejaVuSans-51"/>
      </g>
     </g>
    </g>
    <g id="xtick_6">
     <g id="line2d_6">
      <g>
       <use style="stroke:#000000;stroke-width:0.8;" x="253.652294" xlink:href="#m0adf22269f" y="448.56"/>
      </g>
     </g>
     <g id="text_6">
      <!-- 17:21:59 -->
      <g transform="translate(256.411669 500.4725)rotate(-90)scale(0.1 -0.1)">
       <defs>
        <path d="M 10.984375 1.515625 
L 10.984375 10.5 
Q 14.703125 8.734375 18.5 7.8125 
Q 22.3125 6.890625 25.984375 6.890625 
Q 35.75 6.890625 40.890625 13.453125 
Q 46.046875 20.015625 46.78125 33.40625 
Q 43.953125 29.203125 39.59375 26.953125 
Q 35.25 24.703125 29.984375 24.703125 
Q 19.046875 24.703125 12.671875 31.3125 
Q 6.296875 37.9375 6.296875 49.421875 
Q 6.296875 60.640625 12.9375 67.421875 
Q 19.578125 74.21875 30.609375 74.21875 
Q 43.265625 74.21875 49.921875 64.515625 
Q 56.59375 54.828125 56.59375 36.375 
Q 56.59375 19.140625 48.40625 8.859375 
Q 40.234375 -1.421875 26.421875 -1.421875 
Q 22.703125 -1.421875 18.890625 -0.6875 
Q 15.09375 0.046875 10.984375 1.515625 
z
M 30.609375 32.421875 
Q 37.25 32.421875 41.125 36.953125 
Q 45.015625 41.5 45.015625 49.421875 
Q 45.015625 57.28125 41.125 61.84375 
Q 37.25 66.40625 30.609375 66.40625 
Q 23.96875 66.40625 20.09375 61.84375 
Q 16.21875 57.28125 16.21875 49.421875 
Q 16.21875 41.5 20.09375 36.953125 
Q 23.96875 32.421875 30.609375 32.421875 
z
" id="DejaVuSans-57"/>
       </defs>
       <use xlink:href="#DejaVuSans-49"/>
       <use x="63.623047" xlink:href="#DejaVuSans-55"/>
       <use x="127.246094" xlink:href="#DejaVuSans-58"/>
       <use x="160.9375" xlink:href="#DejaVuSans-50"/>
       <use x="224.560547" xlink:href="#DejaVuSans-49"/>
       <use x="288.183594" xlink:href="#DejaVuSans-58"/>
       <use x="321.875" xlink:href="#DejaVuSans-53"/>
       <use x="385.498047" xlink:href="#DejaVuSans-57"/>
      </g>
     </g>
    </g>
    <g id="xtick_7">
     <g id="line2d_7">
      <g>
       <use style="stroke:#000000;stroke-width:0.8;" x="277.912935" xlink:href="#m0adf22269f" y="448.56"/>
      </g>
     </g>
     <g id="text_7">
      <!-- 17:23:44 -->
      <g transform="translate(280.67231 500.4725)rotate(-90)scale(0.1 -0.1)">
       <use xlink:href="#DejaVuSans-49"/>
       <use x="63.623047" xlink:href="#DejaVuSans-55"/>
       <use x="127.246094" xlink:href="#DejaVuSans-58"/>
       <use x="160.9375" xlink:href="#DejaVuSans-50"/>
       <use x="224.560547" xlink:href="#DejaVuSans-51"/>
       <use x="288.183594" xlink:href="#DejaVuSans-58"/>
       <use x="321.875" xlink:href="#DejaVuSans-52"/>
       <use x="385.498047" xlink:href="#DejaVuSans-52"/>
      </g>
     </g>
    </g>
    <g id="xtick_8">
     <g id="line2d_8">
      <g>
       <use style="stroke:#000000;stroke-width:0.8;" x="302.173576" xlink:href="#m0adf22269f" y="448.56"/>
      </g>
     </g>
     <g id="text_8">
      <!-- 17:25:29 -->
      <g transform="translate(304.932951 500.4725)rotate(-90)scale(0.1 -0.1)">
       <use xlink:href="#DejaVuSans-49"/>
       <use x="63.623047" xlink:href="#DejaVuSans-55"/>
       <use x="127.246094" xlink:href="#DejaVuSans-58"/>
       <use x="160.9375" xlink:href="#DejaVuSans-50"/>
       <use x="224.560547" xlink:href="#DejaVuSans-53"/>
       <use x="288.183594" xlink:href="#DejaVuSans-58"/>
       <use x="321.875" xlink:href="#DejaVuSans-50"/>
       <use x="385.498047" xlink:href="#DejaVuSans-57"/>
      </g>
     </g>
    </g>
    <g id="xtick_9">
     <g id="line2d_9">
      <g>
       <use style="stroke:#000000;stroke-width:0.8;" x="326.434216" xlink:href="#m0adf22269f" y="448.56"/>
      </g>
     </g>
     <g id="text_9">
      <!-- 17:27:15 -->
      <g transform="translate(329.193591 500.4725)rotate(-90)scale(0.1 -0.1)">
       <use xlink:href="#DejaVuSans-49"/>
       <use x="63.623047" xlink:href="#DejaVuSans-55"/>
       <use x="127.246094" xlink:href="#DejaVuSans-58"/>
       <use x="160.9375" xlink:href="#DejaVuSans-50"/>
       <use x="224.560547" xlink:href="#DejaVuSans-55"/>
       <use x="288.183594" xlink:href="#DejaVuSans-58"/>
       <use x="321.875" xlink:href="#DejaVuSans-49"/>
       <use x="385.498047" xlink:href="#DejaVuSans-53"/>
      </g>
     </g>
    </g>
    <g id="xtick_10">
     <g id="line2d_10">
      <g>
       <use style="stroke:#000000;stroke-width:0.8;" x="350.694857" xlink:href="#m0adf22269f" y="448.56"/>
      </g>
     </g>
     <g id="text_10">
      <!-- 17:29:01 -->
      <g transform="translate(353.454232 500.4725)rotate(-90)scale(0.1 -0.1)">
       <use xlink:href="#DejaVuSans-49"/>
       <use x="63.623047" xlink:href="#DejaVuSans-55"/>
       <use x="127.246094" xlink:href="#DejaVuSans-58"/>
       <use x="160.9375" xlink:href="#DejaVuSans-50"/>
       <use x="224.560547" xlink:href="#DejaVuSans-57"/>
       <use x="288.183594" xlink:href="#DejaVuSans-58"/>
       <use x="321.875" xlink:href="#DejaVuSans-48"/>
       <use x="385.498047" xlink:href="#DejaVuSans-49"/>
      </g>
     </g>
    </g>
    <g id="xtick_11">
     <g id="line2d_11">
      <g>
       <use style="stroke:#000000;stroke-width:0.8;" x="374.955497" xlink:href="#m0adf22269f" y="448.56"/>
      </g>
     </g>
     <g id="text_11">
      <!-- 17:30:47 -->
      <g transform="translate(377.714872 500.4725)rotate(-90)scale(0.1 -0.1)">
       <use xlink:href="#DejaVuSans-49"/>
       <use x="63.623047" xlink:href="#DejaVuSans-55"/>
       <use x="127.246094" xlink:href="#DejaVuSans-58"/>
       <use x="160.9375" xlink:href="#DejaVuSans-51"/>
       <use x="224.560547" xlink:href="#DejaVuSans-48"/>
       <use x="288.183594" xlink:href="#DejaVuSans-58"/>
       <use x="321.875" xlink:href="#DejaVuSans-52"/>
       <use x="385.498047" xlink:href="#DejaVuSans-55"/>
      </g>
     </g>
    </g>
    <g id="xtick_12">
     <g id="line2d_12">
      <g>
       <use style="stroke:#000000;stroke-width:0.8;" x="399.216138" xlink:href="#m0adf22269f" y="448.56"/>
      </g>
     </g>
     <g id="text_12">
      <!-- 17:32:33 -->
      <g transform="translate(401.975513 500.4725)rotate(-90)scale(0.1 -0.1)">
       <use xlink:href="#DejaVuSans-49"/>
       <use x="63.623047" xlink:href="#DejaVuSans-55"/>
       <use x="127.246094" xlink:href="#DejaVuSans-58"/>
       <use x="160.9375" xlink:href="#DejaVuSans-51"/>
       <use x="224.560547" xlink:href="#DejaVuSans-50"/>
       <use x="288.183594" xlink:href="#DejaVuSans-58"/>
       <use x="321.875" xlink:href="#DejaVuSans-51"/>
       <use x="385.498047" xlink:href="#DejaVuSans-51"/>
      </g>
     </g>
    </g>
    <g id="xtick_13">
     <g id="line2d_13">
      <g>
       <use style="stroke:#000000;stroke-width:0.8;" x="423.476779" xlink:href="#m0adf22269f" y="448.56"/>
      </g>
     </g>
     <g id="text_13">
      <!-- 17:34:18 -->
      <g transform="translate(426.236154 500.4725)rotate(-90)scale(0.1 -0.1)">
       <use xlink:href="#DejaVuSans-49"/>
       <use x="63.623047" xlink:href="#DejaVuSans-55"/>
       <use x="127.246094" xlink:href="#DejaVuSans-58"/>
       <use x="160.9375" xlink:href="#DejaVuSans-51"/>
       <use x="224.560547" xlink:href="#DejaVuSans-52"/>
       <use x="288.183594" xlink:href="#DejaVuSans-58"/>
       <use x="321.875" xlink:href="#DejaVuSans-49"/>
       <use x="385.498047" xlink:href="#DejaVuSans-56"/>
      </g>
     </g>
    </g>
    <g id="xtick_14">
     <g id="line2d_14">
      <g>
       <use style="stroke:#000000;stroke-width:0.8;" x="447.737419" xlink:href="#m0adf22269f" y="448.56"/>
      </g>
     </g>
     <g id="text_14">
      <!-- 17:36:04 -->
      <g transform="translate(450.496794 500.4725)rotate(-90)scale(0.1 -0.1)">
       <use xlink:href="#DejaVuSans-49"/>
       <use x="63.623047" xlink:href="#DejaVuSans-55"/>
       <use x="127.246094" xlink:href="#DejaVuSans-58"/>
       <use x="160.9375" xlink:href="#DejaVuSans-51"/>
       <use x="224.560547" xlink:href="#DejaVuSans-54"/>
       <use x="288.183594" xlink:href="#DejaVuSans-58"/>
       <use x="321.875" xlink:href="#DejaVuSans-48"/>
       <use x="385.498047" xlink:href="#DejaVuSans-52"/>
      </g>
     </g>
    </g>
    <g id="xtick_15">
     <g id="line2d_15">
      <g>
       <use style="stroke:#000000;stroke-width:0.8;" x="471.99806" xlink:href="#m0adf22269f" y="448.56"/>
      </g>
     </g>
     <g id="text_15">
      <!-- 17:37:49 -->
      <g transform="translate(474.757435 500.4725)rotate(-90)scale(0.1 -0.1)">
       <use xlink:href="#DejaVuSans-49"/>
       <use x="63.623047" xlink:href="#DejaVuSans-55"/>
       <use x="127.246094" xlink:href="#DejaVuSans-58"/>
       <use x="160.9375" xlink:href="#DejaVuSans-51"/>
       <use x="224.560547" xlink:href="#DejaVuSans-55"/>
       <use x="288.183594" xlink:href="#DejaVuSans-58"/>
       <use x="321.875" xlink:href="#DejaVuSans-52"/>
       <use x="385.498047" xlink:href="#DejaVuSans-57"/>
      </g>
     </g>
    </g>
    <g id="xtick_16">
     <g id="line2d_16">
      <g>
       <use style="stroke:#000000;stroke-width:0.8;" x="496.258701" xlink:href="#m0adf22269f" y="448.56"/>
      </g>
     </g>
     <g id="text_16">
      <!-- 17:39:35 -->
      <g transform="translate(499.018076 500.4725)rotate(-90)scale(0.1 -0.1)">
       <use xlink:href="#DejaVuSans-49"/>
       <use x="63.623047" xlink:href="#DejaVuSans-55"/>
       <use x="127.246094" xlink:href="#DejaVuSans-58"/>
       <use x="160.9375" xlink:href="#DejaVuSans-51"/>
       <use x="224.560547" xlink:href="#DejaVuSans-57"/>
       <use x="288.183594" xlink:href="#DejaVuSans-58"/>
       <use x="321.875" xlink:href="#DejaVuSans-51"/>
       <use x="385.498047" xlink:href="#DejaVuSans-53"/>
      </g>
     </g>
    </g>
    <g id="xtick_17">
     <g id="line2d_17">
      <g>
       <use style="stroke:#000000;stroke-width:0.8;" x="520.519341" xlink:href="#m0adf22269f" y="448.56"/>
      </g>
     </g>
     <g id="text_17">
      <!-- 17:41:21 -->
      <g transform="translate(523.278716 500.4725)rotate(-90)scale(0.1 -0.1)">
       <use xlink:href="#DejaVuSans-49"/>
       <use x="63.623047" xlink:href="#DejaVuSans-55"/>
       <use x="127.246094" xlink:href="#DejaVuSans-58"/>
       <use x="160.9375" xlink:href="#DejaVuSans-52"/>
       <use x="224.560547" xlink:href="#DejaVuSans-49"/>
       <use x="288.183594" xlink:href="#DejaVuSans-58"/>
       <use x="321.875" xlink:href="#DejaVuSans-50"/>
       <use x="385.498047" xlink:href="#DejaVuSans-49"/>
      </g>
     </g>
    </g>
    <g id="xtick_18">
     <g id="line2d_18">
      <g>
       <use style="stroke:#000000;stroke-width:0.8;" x="544.779982" xlink:href="#m0adf22269f" y="448.56"/>
      </g>
     </g>
     <g id="text_18">
      <!-- 17:43:07 -->
      <g transform="translate(547.539357 500.4725)rotate(-90)scale(0.1 -0.1)">
       <use xlink:href="#DejaVuSans-49"/>
       <use x="63.623047" xlink:href="#DejaVuSans-55"/>
       <use x="127.246094" xlink:href="#DejaVuSans-58"/>
       <use x="160.9375" xlink:href="#DejaVuSans-52"/>
       <use x="224.560547" xlink:href="#DejaVuSans-51"/>
       <use x="288.183594" xlink:href="#DejaVuSans-58"/>
       <use x="321.875" xlink:href="#DejaVuSans-48"/>
       <use x="385.498047" xlink:href="#DejaVuSans-55"/>
      </g>
     </g>
    </g>
    <g id="xtick_19">
     <g id="line2d_19">
      <g>
       <use style="stroke:#000000;stroke-width:0.8;" x="569.040623" xlink:href="#m0adf22269f" y="448.56"/>
      </g>
     </g>
     <g id="text_19">
      <!-- 17:44:54 -->
      <g transform="translate(571.799998 500.4725)rotate(-90)scale(0.1 -0.1)">
       <use xlink:href="#DejaVuSans-49"/>
       <use x="63.623047" xlink:href="#DejaVuSans-55"/>
       <use x="127.246094" xlink:href="#DejaVuSans-58"/>
       <use x="160.9375" xlink:href="#DejaVuSans-52"/>
       <use x="224.560547" xlink:href="#DejaVuSans-52"/>
       <use x="288.183594" xlink:href="#DejaVuSans-58"/>
       <use x="321.875" xlink:href="#DejaVuSans-53"/>
       <use x="385.498047" xlink:href="#DejaVuSans-52"/>
      </g>
     </g>
    </g>
    <g id="xtick_20">
     <g id="line2d_20">
      <g>
       <use style="stroke:#000000;stroke-width:0.8;" x="593.301263" xlink:href="#m0adf22269f" y="448.56"/>
      </g>
     </g>
     <g id="text_20">
      <!-- 17:46:40 -->
      <g transform="translate(596.060638 500.4725)rotate(-90)scale(0.1 -0.1)">
       <use xlink:href="#DejaVuSans-49"/>
       <use x="63.623047" xlink:href="#DejaVuSans-55"/>
       <use x="127.246094" xlink:href="#DejaVuSans-58"/>
       <use x="160.9375" xlink:href="#DejaVuSans-52"/>
       <use x="224.560547" xlink:href="#DejaVuSans-54"/>
       <use x="288.183594" xlink:href="#DejaVuSans-58"/>
       <use x="321.875" xlink:href="#DejaVuSans-52"/>
       <use x="385.498047" xlink:href="#DejaVuSans-48"/>
      </g>
     </g>
    </g>
    <g id="xtick_21">
     <g id="line2d_21">
      <g>
       <use style="stroke:#000000;stroke-width:0.8;" x="617.561904" xlink:href="#m0adf22269f" y="448.56"/>
      </g>
     </g>
     <g id="text_21">
      <!-- 17:48:26 -->
      <g transform="translate(620.321279 500.4725)rotate(-90)scale(0.1 -0.1)">
       <use xlink:href="#DejaVuSans-49"/>
       <use x="63.623047" xlink:href="#DejaVuSans-55"/>
       <use x="127.246094" xlink:href="#DejaVuSans-58"/>
       <use x="160.9375" xlink:href="#DejaVuSans-52"/>
       <use x="224.560547" xlink:href="#DejaVuSans-56"/>
       <use x="288.183594" xlink:href="#DejaVuSans-58"/>
       <use x="321.875" xlink:href="#DejaVuSans-50"/>
       <use x="385.498047" xlink:href="#DejaVuSans-54"/>
      </g>
     </g>
    </g>
    <g id="text_22">
     <!-- timestamp -->
     <g transform="translate(354.264375 510.55125)scale(0.08 -0.08)">
      <defs>
       <path d="M 18.3125 70.21875 
L 18.3125 54.6875 
L 36.8125 54.6875 
L 36.8125 47.703125 
L 18.3125 47.703125 
L 18.3125 18.015625 
Q 18.3125 11.328125 20.140625 9.421875 
Q 21.96875 7.515625 27.59375 7.515625 
L 36.8125 7.515625 
L 36.8125 0 
L 27.59375 0 
Q 17.1875 0 13.234375 3.875 
Q 9.28125 7.765625 9.28125 18.015625 
L 9.28125 47.703125 
L 2.6875 47.703125 
L 2.6875 54.6875 
L 9.28125 54.6875 
L 9.28125 70.21875 
z
" id="DejaVuSans-116"/>
       <path d="M 9.421875 54.6875 
L 18.40625 54.6875 
L 18.40625 0 
L 9.421875 0 
z
M 9.421875 75.984375 
L 18.40625 75.984375 
L 18.40625 64.59375 
L 9.421875 64.59375 
z
" id="DejaVuSans-105"/>
       <path d="M 52 44.1875 
Q 55.375 50.25 60.0625 53.125 
Q 64.75 56 71.09375 56 
Q 79.640625 56 84.28125 50.015625 
Q 88.921875 44.046875 88.921875 33.015625 
L 88.921875 0 
L 79.890625 0 
L 79.890625 32.71875 
Q 79.890625 40.578125 77.09375 44.375 
Q 74.3125 48.1875 68.609375 48.1875 
Q 61.625 48.1875 57.5625 43.546875 
Q 53.515625 38.921875 53.515625 30.90625 
L 53.515625 0 
L 44.484375 0 
L 44.484375 32.71875 
Q 44.484375 40.625 41.703125 44.40625 
Q 38.921875 48.1875 33.109375 48.1875 
Q 26.21875 48.1875 22.15625 43.53125 
Q 18.109375 38.875 18.109375 30.90625 
L 18.109375 0 
L 9.078125 0 
L 9.078125 54.6875 
L 18.109375 54.6875 
L 18.109375 46.1875 
Q 21.1875 51.21875 25.484375 53.609375 
Q 29.78125 56 35.6875 56 
Q 41.65625 56 45.828125 52.96875 
Q 50 49.953125 52 44.1875 
z
" id="DejaVuSans-109"/>
       <path d="M 56.203125 29.59375 
L 56.203125 25.203125 
L 14.890625 25.203125 
Q 15.484375 15.921875 20.484375 11.0625 
Q 25.484375 6.203125 34.421875 6.203125 
Q 39.59375 6.203125 44.453125 7.46875 
Q 49.3125 8.734375 54.109375 11.28125 
L 54.109375 2.78125 
Q 49.265625 0.734375 44.1875 -0.34375 
Q 39.109375 -1.421875 33.890625 -1.421875 
Q 20.796875 -1.421875 13.15625 6.1875 
Q 5.515625 13.8125 5.515625 26.8125 
Q 5.515625 40.234375 12.765625 48.109375 
Q 20.015625 56 32.328125 56 
Q 43.359375 56 49.78125 48.890625 
Q 56.203125 41.796875 56.203125 29.59375 
z
M 47.21875 32.234375 
Q 47.125 39.59375 43.09375 43.984375 
Q 39.0625 48.390625 32.421875 48.390625 
Q 24.90625 48.390625 20.390625 44.140625 
Q 15.875 39.890625 15.1875 32.171875 
z
" id="DejaVuSans-101"/>
       <path d="M 44.28125 53.078125 
L 44.28125 44.578125 
Q 40.484375 46.53125 36.375 47.5 
Q 32.28125 48.484375 27.875 48.484375 
Q 21.1875 48.484375 17.84375 46.4375 
Q 14.5 44.390625 14.5 40.28125 
Q 14.5 37.15625 16.890625 35.375 
Q 19.28125 33.59375 26.515625 31.984375 
L 29.59375 31.296875 
Q 39.15625 29.25 43.1875 25.515625 
Q 47.21875 21.78125 47.21875 15.09375 
Q 47.21875 7.46875 41.1875 3.015625 
Q 35.15625 -1.421875 24.609375 -1.421875 
Q 20.21875 -1.421875 15.453125 -0.5625 
Q 10.6875 0.296875 5.421875 2 
L 5.421875 11.28125 
Q 10.40625 8.6875 15.234375 7.390625 
Q 20.0625 6.109375 24.8125 6.109375 
Q 31.15625 6.109375 34.5625 8.28125 
Q 37.984375 10.453125 37.984375 14.40625 
Q 37.984375 18.0625 35.515625 20.015625 
Q 33.0625 21.96875 24.703125 23.78125 
L 21.578125 24.515625 
Q 13.234375 26.265625 9.515625 29.90625 
Q 5.8125 33.546875 5.8125 39.890625 
Q 5.8125 47.609375 11.28125 51.796875 
Q 16.75 56 26.8125 56 
Q 31.78125 56 36.171875 55.265625 
Q 40.578125 54.546875 44.28125 53.078125 
z
" id="DejaVuSans-115"/>
       <path d="M 34.28125 27.484375 
Q 23.390625 27.484375 19.1875 25 
Q 14.984375 22.515625 14.984375 16.5 
Q 14.984375 11.71875 18.140625 8.90625 
Q 21.296875 6.109375 26.703125 6.109375 
Q 34.1875 6.109375 38.703125 11.40625 
Q 43.21875 16.703125 43.21875 25.484375 
L 43.21875 27.484375 
z
M 52.203125 31.203125 
L 52.203125 0 
L 43.21875 0 
L 43.21875 8.296875 
Q 40.140625 3.328125 35.546875 0.953125 
Q 30.953125 -1.421875 24.3125 -1.421875 
Q 15.921875 -1.421875 10.953125 3.296875 
Q 6 8.015625 6 15.921875 
Q 6 25.140625 12.171875 29.828125 
Q 18.359375 34.515625 30.609375 34.515625 
L 43.21875 34.515625 
L 43.21875 35.40625 
Q 43.21875 41.609375 39.140625 45 
Q 35.0625 48.390625 27.6875 48.390625 
Q 23 48.390625 18.546875 47.265625 
Q 14.109375 46.140625 10.015625 43.890625 
L 10.015625 52.203125 
Q 14.9375 54.109375 19.578125 55.046875 
Q 24.21875 56 28.609375 56 
Q 40.484375 56 46.34375 49.84375 
Q 52.203125 43.703125 52.203125 31.203125 
z
" id="DejaVuSans-97"/>
       <path d="M 18.109375 8.203125 
L 18.109375 -20.796875 
L 9.078125 -20.796875 
L 9.078125 54.6875 
L 18.109375 54.6875 
L 18.109375 46.390625 
Q 20.953125 51.265625 25.265625 53.625 
Q 29.59375 56 35.59375 56 
Q 45.5625 56 51.78125 48.09375 
Q 58.015625 40.1875 58.015625 27.296875 
Q 58.015625 14.40625 51.78125 6.484375 
Q 45.5625 -1.421875 35.59375 -1.421875 
Q 29.59375 -1.421875 25.265625 0.953125 
Q 20.953125 3.328125 18.109375 8.203125 
z
M 48.6875 27.296875 
Q 48.6875 37.203125 44.609375 42.84375 
Q 40.53125 48.484375 33.40625 48.484375 
Q 26.265625 48.484375 22.1875 42.84375 
Q 18.109375 37.203125 18.109375 27.296875 
Q 18.109375 17.390625 22.1875 11.75 
Q 26.265625 6.109375 33.40625 6.109375 
Q 40.53125 6.109375 44.609375 11.75 
Q 48.6875 17.390625 48.6875 27.296875 
z
" id="DejaVuSans-112"/>
      </defs>
      <use xlink:href="#DejaVuSans-116"/>
      <use x="39.208984" xlink:href="#DejaVuSans-105"/>
      <use x="66.992188" xlink:href="#DejaVuSans-109"/>
      <use x="164.404297" xlink:href="#DejaVuSans-101"/>
      <use x="225.927734" xlink:href="#DejaVuSans-115"/>
      <use x="278.027344" xlink:href="#DejaVuSans-116"/>
      <use x="317.236328" xlink:href="#DejaVuSans-97"/>
      <use x="378.515625" xlink:href="#DejaVuSans-109"/>
      <use x="475.927734" xlink:href="#DejaVuSans-112"/>
     </g>
    </g>
   </g>
   <g id="matplotlib.axis_2">
    <g id="ytick_1">
     <g id="line2d_22">
      <defs>
       <path d="M 0 0 
L -3.5 0 
" id="mb3a63295c3" style="stroke:#000000;stroke-width:0.8;"/>
      </defs>
      <g>
       <use style="stroke:#000000;stroke-width:0.8;" x="108" xlink:href="#mb3a63295c3" y="389.551973"/>
      </g>
     </g>
     <g id="text_23">
      <!-- 12940 -->
      <g transform="translate(69.1875 393.351192)scale(0.1 -0.1)">
       <use xlink:href="#DejaVuSans-49"/>
       <use x="63.623047" xlink:href="#DejaVuSans-50"/>
       <use x="127.246094" xlink:href="#DejaVuSans-57"/>
       <use x="190.869141" xlink:href="#DejaVuSans-52"/>
       <use x="254.492188" xlink:href="#DejaVuSans-48"/>
      </g>
     </g>
    </g>
    <g id="ytick_2">
     <g id="line2d_23">
      <g>
       <use style="stroke:#000000;stroke-width:0.8;" x="108" xlink:href="#mb3a63295c3" y="324.813277"/>
      </g>
     </g>
     <g id="text_24">
      <!-- 12960 -->
      <g transform="translate(69.1875 328.612495)scale(0.1 -0.1)">
       <use xlink:href="#DejaVuSans-49"/>
       <use x="63.623047" xlink:href="#DejaVuSans-50"/>
       <use x="127.246094" xlink:href="#DejaVuSans-57"/>
       <use x="190.869141" xlink:href="#DejaVuSans-54"/>
       <use x="254.492188" xlink:href="#DejaVuSans-48"/>
      </g>
     </g>
    </g>
    <g id="ytick_3">
     <g id="line2d_24">
      <g>
       <use style="stroke:#000000;stroke-width:0.8;" x="108" xlink:href="#mb3a63295c3" y="260.07458"/>
      </g>
     </g>
     <g id="text_25">
      <!-- 12980 -->
      <g transform="translate(69.1875 263.873799)scale(0.1 -0.1)">
       <use xlink:href="#DejaVuSans-49"/>
       <use x="63.623047" xlink:href="#DejaVuSans-50"/>
       <use x="127.246094" xlink:href="#DejaVuSans-57"/>
       <use x="190.869141" xlink:href="#DejaVuSans-56"/>
       <use x="254.492188" xlink:href="#DejaVuSans-48"/>
      </g>
     </g>
    </g>
    <g id="ytick_4">
     <g id="line2d_25">
      <g>
       <use style="stroke:#000000;stroke-width:0.8;" x="108" xlink:href="#mb3a63295c3" y="195.335884"/>
      </g>
     </g>
     <g id="text_26">
      <!-- 13000 -->
      <g transform="translate(69.1875 199.135102)scale(0.1 -0.1)">
       <use xlink:href="#DejaVuSans-49"/>
       <use x="63.623047" xlink:href="#DejaVuSans-51"/>
       <use x="127.246094" xlink:href="#DejaVuSans-48"/>
       <use x="190.869141" xlink:href="#DejaVuSans-48"/>
       <use x="254.492188" xlink:href="#DejaVuSans-48"/>
      </g>
     </g>
    </g>
    <g id="ytick_5">
     <g id="line2d_26">
      <g>
       <use style="stroke:#000000;stroke-width:0.8;" x="108" xlink:href="#mb3a63295c3" y="130.597187"/>
      </g>
     </g>
     <g id="text_27">
      <!-- 13020 -->
      <g transform="translate(69.1875 134.396406)scale(0.1 -0.1)">
       <use xlink:href="#DejaVuSans-49"/>
       <use x="63.623047" xlink:href="#DejaVuSans-51"/>
       <use x="127.246094" xlink:href="#DejaVuSans-48"/>
       <use x="190.869141" xlink:href="#DejaVuSans-50"/>
       <use x="254.492188" xlink:href="#DejaVuSans-48"/>
      </g>
     </g>
    </g>
    <g id="ytick_6">
     <g id="line2d_27">
      <g>
       <use style="stroke:#000000;stroke-width:0.8;" x="108" xlink:href="#mb3a63295c3" y="65.858491"/>
      </g>
     </g>
     <g id="text_28">
      <!-- 13040 -->
      <g transform="translate(69.1875 69.65771)scale(0.1 -0.1)">
       <use xlink:href="#DejaVuSans-49"/>
       <use x="63.623047" xlink:href="#DejaVuSans-51"/>
       <use x="127.246094" xlink:href="#DejaVuSans-48"/>
       <use x="190.869141" xlink:href="#DejaVuSans-52"/>
       <use x="254.492188" xlink:href="#DejaVuSans-48"/>
      </g>
     </g>
    </g>
    <g id="text_29">
     <!-- MB -->
     <g transform="translate(63.52375 260.715625)rotate(-90)scale(0.08 -0.08)">
      <defs>
       <path d="M 9.8125 72.90625 
L 24.515625 72.90625 
L 43.109375 23.296875 
L 61.8125 72.90625 
L 76.515625 72.90625 
L 76.515625 0 
L 66.890625 0 
L 66.890625 64.015625 
L 48.09375 14.015625 
L 38.1875 14.015625 
L 19.390625 64.015625 
L 19.390625 0 
L 9.8125 0 
z
" id="DejaVuSans-77"/>
       <path d="M 19.671875 34.8125 
L 19.671875 8.109375 
L 35.5 8.109375 
Q 43.453125 8.109375 47.28125 11.40625 
Q 51.125 14.703125 51.125 21.484375 
Q 51.125 28.328125 47.28125 31.5625 
Q 43.453125 34.8125 35.5 34.8125 
z
M 19.671875 64.796875 
L 19.671875 42.828125 
L 34.28125 42.828125 
Q 41.5 42.828125 45.03125 45.53125 
Q 48.578125 48.25 48.578125 53.8125 
Q 48.578125 59.328125 45.03125 62.0625 
Q 41.5 64.796875 34.28125 64.796875 
z
M 9.8125 72.90625 
L 35.015625 72.90625 
Q 46.296875 72.90625 52.390625 68.21875 
Q 58.5 63.53125 58.5 54.890625 
Q 58.5 48.1875 55.375 44.234375 
Q 52.25 40.28125 46.1875 39.3125 
Q 53.46875 37.75 57.5 32.78125 
Q 61.53125 27.828125 61.53125 20.40625 
Q 61.53125 10.640625 54.890625 5.3125 
Q 48.25 0 35.984375 0 
L 9.8125 0 
z
" id="DejaVuSans-66"/>
      </defs>
      <use xlink:href="#DejaVuSans-77"/>
      <use x="86.279297" xlink:href="#DejaVuSans-66"/>
     </g>
    </g>
   </g>
   <g id="line2d_28">
    <path clip-path="url(#p6b567136ad)" d="M 132.349091 147.273876 
L 132.601806 145.487087 
L 133.107236 121.805672 
L 133.359951 117.986089 
L 133.612666 125.431039 
L 133.865381 121.922202 
L 134.118096 87.17047 
L 134.370811 78.12 
L 134.876241 85.56495 
L 135.128956 92.958109 
L 135.381671 95.249859 
L 135.634386 95.223964 
L 135.887101 94.719002 
L 136.139816 95.431127 
L 136.392531 96.570528 
L 137.403391 139.880716 
L 137.656106 140.787058 
L 137.908821 149.190141 
L 138.161536 152.181069 
L 138.666966 181.339378 
L 138.919681 185.327281 
L 139.172396 182.284563 
L 139.425111 181.701914 
L 139.677826 182.504674 
L 139.930541 185.171908 
L 140.183256 185.663922 
L 140.435971 189.354028 
L 140.688686 196.048009 
L 140.941401 193.341932 
L 141.194116 181.520646 
L 141.446831 180.756729 
L 141.699546 193.846894 
L 141.952261 194.261221 
L 142.204976 194.934504 
L 142.457691 187.994516 
L 142.710406 189.120969 
L 142.963121 195.543048 
L 143.215836 188.939701 
L 143.468551 187.774404 
L 144.226696 199.776958 
L 144.479411 191.244398 
L 144.732126 190.208579 
L 144.984841 180.316506 
L 145.490271 193.574991 
L 145.742986 240.911926 
L 145.995701 245.288262 
L 146.248416 234.748802 
L 146.501131 237.170029 
L 146.753846 203.117475 
L 147.006561 208.374257 
L 147.259276 210.199888 
L 147.764706 194.287117 
L 148.017421 239.176929 
L 148.270136 237.752678 
L 148.522851 240.665919 
L 148.775566 252.267093 
L 149.028281 218.046218 
L 149.280996 210.277575 
L 149.533711 210.290523 
L 149.786426 207.480863 
L 150.039141 199.945279 
L 150.291856 204.399301 
L 150.544571 205.784709 
L 151.050001 210.989701 
L 151.302716 212.750593 
L 151.555431 202.237029 
L 151.808146 198.326812 
L 152.060861 187.010487 
L 152.313576 183.941873 
L 152.566291 186.052355 
L 152.819006 184.835267 
L 153.071721 180.070499 
L 153.829866 193.769207 
L 154.082581 190.117945 
L 154.335297 192.422642 
L 154.588012 186.285414 
L 154.840727 187.334181 
L 155.093442 189.729513 
L 155.346157 199.142519 
L 155.598872 196.138644 
L 155.851587 184.18788 
L 156.104302 181.455907 
L 156.862447 189.625931 
L 157.115162 189.522349 
L 157.367877 181.701914 
L 157.873307 190.700593 
L 158.126022 198.90946 
L 158.378737 194.934504 
L 158.631452 182.232772 
L 158.884167 186.790376 
L 159.136882 198.365655 
L 159.642312 192.798127 
L 159.895027 196.33286 
L 160.147742 195.81495 
L 160.400457 196.060957 
L 160.653172 197.044985 
L 160.905887 197.394574 
L 161.158602 195.038086 
L 161.664032 202.923259 
L 161.916747 197.951327 
L 162.169462 198.974198 
L 162.422177 202.962102 
L 162.674892 204.722995 
L 162.927607 202.418297 
L 163.180322 194.429542 
L 163.433037 193.937528 
L 163.685752 199.530951 
L 164.191182 188.123993 
L 164.696612 201.835649 
L 164.949327 205.875344 
L 165.202042 203.285796 
L 165.454757 194.144692 
L 165.707472 189.483506 
L 165.960187 199.181362 
L 166.212902 201.48606 
L 166.465617 206.535678 
L 166.718332 206.535678 
L 166.971047 203.94613 
L 167.223762 199.776958 
L 167.729192 204.451092 
L 167.981907 209.850299 
L 168.234622 209.177017 
L 168.487337 203.557698 
L 168.992767 209.435972 
L 169.245482 209.112278 
L 169.498197 213.79936 
L 169.750912 211.093282 
L 170.003627 202.987998 
L 170.509057 217.839055 
L 170.761772 209.953881 
L 171.267202 203.480012 
L 171.519917 205.007845 
L 171.772632 215.28835 
L 172.025347 215.870998 
L 172.278062 204.373406 
L 172.530777 210.82138 
L 172.783492 207.416124 
L 173.036207 213.177868 
L 173.288922 216.013423 
L 173.541637 212.647011 
L 174.047067 220.208491 
L 174.299782 218.110957 
L 174.552497 222.254234 
L 174.805212 219.315097 
L 175.057927 221.568004 
L 175.310642 228.015978 
L 175.563357 223.665537 
L 175.816072 226.138555 
L 176.068787 219.185619 
L 176.574217 226.850681 
L 176.826932 225.750123 
L 177.079647 222.21539 
L 177.332362 229.025901 
L 177.585077 221.114833 
L 177.837792 222.694457 
L 178.090507 221.296101 
L 178.343222 222.746248 
L 178.595937 228.067769 
L 178.848652 230.437205 
L 179.101367 223.717328 
L 179.354082 211.481715 
L 179.606797 214.446747 
L 180.364942 234.904175 
L 180.617657 226.552883 
L 180.870372 226.047921 
L 181.123087 222.577927 
L 181.375802 228.054821 
L 181.628517 230.022877 
L 181.881232 230.346571 
L 182.133947 236.263688 
L 182.386662 233.169178 
L 182.639377 228.184298 
L 183.144807 226.371615 
L 183.397522 231.071644 
L 183.650237 225.452325 
L 183.902952 211.287499 
L 184.155667 206.341462 
L 184.408382 217.696629 
L 184.661097 197.42047 
L 184.913812 195.646629 
L 185.166527 198.184386 
L 185.671957 208.490787 
L 185.924672 201.149419 
L 186.177387 200.760986 
L 186.430102 194.559019 
L 186.682817 208.387205 
L 186.935532 206.445044 
L 187.188247 209.086383 
L 187.440962 207.946982 
L 187.693677 199.608638 
L 187.946392 205.15027 
L 188.451822 209.021644 
L 188.704537 208.089407 
L 188.957252 211.947833 
L 189.209967 205.940082 
L 189.462682 204.399301 
L 189.715397 214.161897 
L 189.968112 212.232683 
L 190.220827 211.468767 
L 190.473542 215.534357 
L 190.978972 207.830452 
L 191.231688 217.165772 
L 191.737118 199.530951 
L 191.989833 197.783006 
L 192.242548 212.258579 
L 192.495263 218.473494 
L 192.747978 214.36906 
L 193.253408 201.330687 
L 193.506123 213.889994 
L 193.758838 219.224463 
L 194.011553 219.522261 
L 194.264268 215.767416 
L 194.516983 214.615068 
L 195.022413 221.619794 
L 195.275128 220.545132 
L 195.527843 215.715625 
L 195.780558 214.019472 
L 196.033273 215.210664 
L 196.285988 214.356113 
L 196.538703 211.740669 
L 196.791418 221.257258 
L 197.044133 217.605995 
L 197.296848 208.296571 
L 198.054993 216.531333 
L 198.560423 208.205937 
L 198.813138 210.601268 
L 199.065853 207.972877 
L 199.318568 224.545984 
L 199.571283 217.191668 
L 199.823998 217.165772 
L 200.076713 214.019472 
L 200.329428 212.905966 
L 200.582143 227.252061 
L 200.834858 226.669413 
L 201.087573 221.64569 
L 201.340288 225.232214 
L 201.593003 226.837733 
L 201.845718 226.216242 
L 202.098433 220.519237 
L 202.351148 229.453177 
L 202.856578 219.496365 
L 203.109293 220.791139 
L 203.362008 222.707405 
L 203.614723 229.077692 
L 204.120153 222.060018 
L 204.372868 222.500241 
L 204.625583 226.708256 
L 204.878298 234.943018 
L 205.131013 235.73283 
L 205.383728 229.595602 
L 205.636443 227.847657 
L 205.889158 222.836882 
L 206.141873 229.064745 
L 206.394588 230.307728 
L 206.647303 227.290904 
L 206.900018 219.599947 
L 207.152733 224.481245 
L 207.405448 238.335326 
L 207.910878 236.211897 
L 208.163593 228.507992 
L 208.669023 239.940846 
L 208.921738 237.131186 
L 209.174453 230.411309 
L 209.679883 241.559313 
L 209.932598 238.607228 
L 210.185313 242.193752 
L 210.438028 239.241668 
L 210.690743 243.81222 
L 210.943458 236.911075 
L 211.196173 240.782449 
L 211.448888 238.503647 
L 211.701603 231.304703 
L 211.954318 236.004733 
L 212.207033 230.631421 
L 212.459748 230.683212 
L 212.712463 234.140258 
L 212.965178 228.792842 
L 213.470608 240.303382 
L 213.723323 224.662513 
L 213.976038 224.10576 
L 214.228753 240.43286 
L 214.481468 243.501474 
L 214.734183 274.705526 
L 214.986898 268.503558 
L 215.239613 248.926577 
L 215.492328 251.088849 
L 215.745043 210.057463 
L 215.997758 208.555526 
L 216.250473 204.036765 
L 216.503188 202.534827 
L 216.755903 196.281069 
L 217.514048 212.154997 
L 217.766763 200.864568 
L 218.019478 201.36953 
L 218.272193 200.79983 
L 218.777623 214.653911 
L 219.283053 190.765332 
L 219.535768 202.754938 
L 219.788483 202.599565 
L 220.041198 207.739818 
L 220.293913 205.55165 
L 220.546628 197.744163 
L 220.799343 195.905584 
L 221.052058 202.547775 
L 221.304773 215.197716 
L 221.557488 211.611192 
L 221.810203 203.583594 
L 222.062918 202.405349 
L 222.568348 204.515831 
L 223.073778 213.11313 
L 223.326493 206.406201 
L 223.579208 208.788585 
L 224.084638 216.505437 
L 224.337353 214.36906 
L 224.590068 217.424727 
L 224.842783 212.271527 
L 225.095498 210.614216 
L 225.348213 217.437675 
L 225.600928 219.535208 
L 225.853643 205.862396 
L 226.106358 207.921086 
L 226.359073 211.611192 
L 226.611788 210.355261 
L 226.864503 217.230511 
L 227.117218 219.586999 
L 227.369933 212.284474 
L 227.622648 209.267651 
L 227.875363 213.877046 
L 228.128079 221.52916 
L 228.380794 224.196395 
L 228.633509 212.724698 
L 228.886224 213.255555 
L 229.138939 216.311221 
L 229.391654 217.98148 
L 229.644369 216.518385 
L 229.897084 217.359988 
L 230.149799 221.425578 
L 230.402514 221.52916 
L 230.655229 218.732449 
L 230.907944 220.985355 
L 231.160659 220.169648 
L 231.413374 221.088937 
L 231.666089 216.77734 
L 231.918804 218.059166 
L 232.171519 217.152824 
L 232.676949 225.555907 
L 232.929664 222.04707 
L 233.182379 222.034122 
L 233.435094 220.27323 
L 233.687809 221.982331 
L 233.940524 229.181274 
L 234.193239 228.378514 
L 234.445954 218.991403 
L 234.698669 221.296101 
L 234.951384 221.257258 
L 235.456814 227.03195 
L 235.709529 226.824786 
L 235.962244 225.788967 
L 236.214959 232.923171 
L 236.467674 236.794545 
L 236.720389 237.817416 
L 236.973104 241.106142 
L 237.225819 231.731979 
L 237.478534 231.848509 
L 237.731249 229.789818 
L 238.236679 233.751826 
L 238.489394 231.239965 
L 238.742109 232.223993 
L 238.994824 234.489847 
L 239.247539 238.283535 
L 239.500254 239.125138 
L 239.752969 226.22919 
L 240.005684 228.443253 
L 240.258399 227.873553 
L 240.511114 223.393635 
L 240.763829 236.93697 
L 241.016544 233.311603 
L 241.269259 235.551562 
L 241.521974 227.20027 
L 242.027404 242.439759 
L 242.532834 235.44798 
L 242.785549 240.60118 
L 243.038264 242.413864 
L 243.290979 238.853235 
L 243.543694 239.746629 
L 243.796409 243.320206 
L 244.301839 236.41906 
L 244.554554 233.777722 
L 244.807269 237.105291 
L 245.059984 236.108315 
L 245.312699 238.244692 
L 245.565414 232.806641 
L 246.070844 234.606377 
L 246.323559 220.053118 
L 246.576274 216.971556 
L 246.828989 202.754938 
L 247.081704 204.722995 
L 247.334419 203.441169 
L 247.587134 216.466594 
L 247.839849 218.1498 
L 248.345279 206.691051 
L 248.850709 216.505437 
L 249.103424 215.534357 
L 249.356139 217.17872 
L 249.608854 211.559401 
L 249.861569 210.484739 
L 250.114284 220.27323 
L 250.366999 213.242607 
L 250.619714 213.786412 
L 250.872429 217.113981 
L 251.125144 222.487293 
L 251.377859 216.829131 
L 251.630574 222.280129 
L 251.883289 221.969383 
L 252.136004 217.217563 
L 252.641434 225.530012 
L 252.894149 221.749272 
L 253.146864 231.744927 
L 253.652294 213.928837 
L 253.905009 215.961632 
L 254.157724 210.70485 
L 254.663154 224.299977 
L 254.915869 216.751445 
L 255.168584 214.343165 
L 255.421299 214.938761 
L 255.674014 226.371615 
L 255.926729 228.585678 
L 256.179444 220.053118 
L 256.684874 234.282683 
L 256.937589 228.715156 
L 257.190304 232.664216 
L 257.443019 234.153206 
L 257.695734 225.957287 
L 257.948449 226.889524 
L 258.201164 236.613277 
L 258.453879 232.677164 
L 258.706594 220.95946 
L 258.959309 228.585678 
L 259.212024 227.070793 
L 259.464739 222.344868 
L 259.717454 225.801914 
L 259.970169 231.071644 
L 260.222884 233.933095 
L 260.475599 224.455349 
L 260.728314 220.091961 
L 260.981029 220.946512 
L 261.233744 232.910223 
L 261.486459 234.671116 
L 261.739174 234.671116 
L 261.991889 226.760047 
L 262.244604 225.607698 
L 263.002749 242.633975 
L 263.255464 232.055672 
L 263.508179 234.567534 
L 263.760894 235.098391 
L 264.013609 232.599477 
L 264.519039 237.0535 
L 264.771754 229.466124 
L 265.02447 232.741903 
L 265.277185 230.204146 
L 265.5299 241.132038 
L 265.782615 240.575285 
L 266.03533 238.788497 
L 266.288045 240.057375 
L 266.54076 240.251591 
L 266.793475 237.273611 
L 267.04619 245.909753 
L 267.298905 235.098391 
L 267.55162 229.517915 
L 267.804335 236.160106 
L 268.05705 237.713834 
L 268.309765 248.305085 
L 268.56248 242.737557 
L 268.815195 232.858432 
L 269.06791 234.166154 
L 269.320625 244.239495 
L 269.57334 243.17778 
L 269.826055 244.873934 
L 270.07877 244.744457 
L 270.331485 241.844163 
L 270.5842 248.784151 
L 270.836915 251.775079 
L 271.08963 256.501004 
L 271.342345 251.218326 
L 271.847775 250.480305 
L 272.10049 248.110869 
L 272.353205 253.367651 
L 272.60592 255.698244 
L 272.858635 256.941227 
L 273.11135 252.150564 
L 273.364065 252.823846 
L 273.61678 252.383623 
L 273.869495 252.759107 
L 274.374925 246.777252 
L 274.62764 246.544193 
L 274.880355 252.05993 
L 275.13307 263.350358 
L 275.385785 260.696072 
L 275.891215 251.749184 
L 276.14393 248.96542 
L 276.396645 266.975725 
L 276.64936 265.201885 
L 276.902075 254.869589 
L 277.15479 258.533799 
L 277.407505 258.106524 
L 277.66022 257.951151 
L 277.912935 259.168238 
L 278.16565 256.190258 
L 278.418365 238.969765 
L 278.67108 232.897275 
L 278.923795 237.390141 
L 279.17651 239.060399 
L 279.68194 229.945191 
L 279.934655 230.4631 
L 280.18737 227.8865 
L 280.440085 227.433329 
L 280.6928 224.882625 
L 280.945515 235.810517 
L 281.19823 229.699184 
L 281.450945 227.834709 
L 281.70366 228.68926 
L 282.20909 235.875255 
L 282.71452 226.39751 
L 282.967235 229.37549 
L 283.21995 235.875255 
L 283.472665 233.311603 
L 283.72538 235.797569 
L 283.978095 229.906348 
L 284.23081 231.693136 
L 284.483525 237.208873 
L 284.73624 238.02458 
L 284.988955 243.17778 
L 285.24167 243.656847 
L 285.7471 237.131186 
L 285.999815 246.492402 
L 286.25253 248.16266 
L 286.505245 248.201503 
L 286.75796 248.473406 
L 287.010675 238.82734 
L 287.26339 244.09707 
L 287.516105 244.291286 
L 287.76882 243.100094 
L 288.27425 235.784621 
L 288.526965 243.682742 
L 288.77968 245.288262 
L 289.032395 254.248097 
L 289.28511 254.273993 
L 289.79054 240.238644 
L 290.043255 241.960693 
L 290.29597 252.500153 
L 290.548685 249.444486 
L 290.8014 254.701268 
L 291.054115 253.691345 
L 291.30683 251.982243 
L 291.559545 263.350358 
L 291.81226 259.362454 
L 292.064975 260.527751 
L 292.31769 257.847569 
L 292.570405 261.084504 
L 292.82312 259.336559 
L 293.075835 255.516976 
L 293.32855 256.332683 
L 293.581265 253.484181 
L 293.83398 259.737939 
L 294.086695 257.148391 
L 294.33941 256.164363 
L 295.35027 238.723758 
L 295.8557 253.005115 
L 296.108415 249.781127 
L 296.36113 248.499301 
L 296.613845 240.665919 
L 296.86656 242.349125 
L 297.37199 261.136295 
L 297.624705 254.714216 
L 297.87742 256.397422 
L 298.130135 260.786706 
L 298.38285 260.644281 
L 298.635565 266.198861 
L 299.140995 257.925255 
L 299.39371 258.818649 
L 299.646425 255.504028 
L 299.89914 254.312836 
L 300.151855 254.571791 
L 300.40457 249.185531 
L 300.657285 261.369354 
L 300.91 256.073729 
L 301.162715 263.751738 
L 301.41543 252.383623 
L 301.668145 262.832449 
L 301.92086 256.229102 
L 302.426291 254.131568 
L 303.184436 261.485884 
L 303.437151 262.806553 
L 303.689866 254.11862 
L 304.195296 265.901063 
L 304.448011 270.639935 
L 304.700726 264.412073 
L 304.953441 264.567446 
L 305.206156 266.975725 
L 305.458871 274.084034 
L 305.711586 272.607992 
L 306.217016 302.620851 
L 306.469731 306.414539 
L 306.722446 304.731333 
L 306.975161 270.316242 
L 307.227876 275.780188 
L 307.480591 274.601944 
L 307.733306 271.093106 
L 307.986021 264.904087 
L 308.238736 265.642108 
L 308.491451 270.419824 
L 308.744166 269.086207 
L 308.996881 264.37323 
L 309.249596 262.702971 
L 309.502311 260.268796 
L 309.755026 241.740581 
L 310.007741 242.517446 
L 310.260456 236.082419 
L 310.513171 234.671116 
L 311.018601 247.929601 
L 311.271316 246.712513 
L 311.524031 241.908902 
L 311.776746 241.934797 
L 312.029461 236.470851 
L 312.282176 240.251591 
L 312.534891 238.179953 
L 312.787606 243.061251 
L 313.040321 244.796248 
L 313.293036 236.65212 
L 313.545751 242.245543 
L 313.798466 245.158784 
L 314.051181 245.715537 
L 314.303896 248.343928 
L 314.809326 237.584357 
L 315.567471 250.985267 
L 316.072901 237.804469 
L 316.325616 241.132038 
L 316.578331 248.641726 
L 316.831046 248.576988 
L 317.083761 238.02458 
L 317.336476 238.179953 
L 317.589191 241.636999 
L 317.841906 257.873464 
L 318.094621 260.799654 
L 318.347336 260.501856 
L 318.600051 254.351679 
L 318.852766 251.218326 
L 319.105481 251.477281 
L 319.358196 260.579542 
L 319.610911 255.840669 
L 319.863626 254.131568 
L 320.116341 255.827722 
L 320.369056 259.996894 
L 320.621771 261.809577 
L 320.874486 259.712043 
L 321.127201 259.284768 
L 321.379916 259.945103 
L 321.632631 261.822525 
L 321.885346 259.297716 
L 322.138061 259.207082 
L 322.390776 257.239025 
L 322.643491 249.819971 
L 322.896206 250.065978 
L 323.401636 262.508755 
L 323.654351 262.858344 
L 323.907066 259.38835 
L 324.159781 258.728015 
L 324.412496 253.794927 
L 324.665211 266.354234 
L 324.917926 265.758638 
L 325.170641 268.374081 
L 325.423356 265.74569 
L 325.676071 254.494105 
L 325.928786 258.883388 
L 326.181501 259.517827 
L 326.686931 264.891139 
L 327.192361 261.39525 
L 327.445076 268.542402 
L 327.697791 268.218708 
L 327.950506 271.714598 
L 328.203221 272.10303 
L 328.455936 261.939055 
L 328.708651 258.093576 
L 328.961366 266.639084 
L 329.214081 270.808256 
L 329.466796 253.251122 
L 329.719511 247.851914 
L 330.224941 269.953705 
L 330.477656 272.815156 
L 330.983086 262.728867 
L 331.235801 264.54155 
L 331.488516 269.940757 
L 331.741231 272.154821 
L 331.993946 276.85485 
L 332.246661 274.433623 
L 332.499376 268.697775 
L 332.752091 273.216536 
L 333.004806 272.633887 
L 333.257521 274.39478 
L 333.510236 269.953705 
L 333.762951 268.218708 
L 334.015666 276.246307 
L 334.268381 274.96448 
L 334.521096 275.262278 
L 334.773811 275.76724 
L 335.026526 278.680482 
L 335.279241 274.058139 
L 335.531956 275.896718 
L 335.784671 276.155672 
L 336.037386 273.747393 
L 336.290101 268.20576 
L 336.542816 270.368033 
L 336.795531 269.565273 
L 337.048246 270.070235 
L 337.300961 277.152648 
L 337.553676 281.114656 
L 337.806391 277.566976 
L 338.059106 275.676606 
L 338.311821 283.082713 
L 338.817251 280.493165 
L 339.069967 287.122408 
L 339.322682 284.235062 
L 339.575397 284.002002 
L 339.828112 286.99293 
L 340.080827 282.00805 
L 340.333542 280.765068 
L 340.586257 282.448274 
L 340.838972 278.434474 
L 341.091687 279.690405 
L 341.344402 267.390053 
L 341.597117 268.43882 
L 341.849832 270.976577 
L 342.355262 253.445338 
L 342.607977 255.931304 
L 342.860692 256.785854 
L 343.113407 249.379748 
L 343.366122 245.327105 
L 343.618837 245.417739 
L 343.871552 247.735385 
L 344.124267 259.660252 
L 344.376982 258.482008 
L 344.629697 253.341756 
L 344.882412 251.296013 
L 345.135127 256.449213 
L 345.387842 256.967123 
L 345.640557 262.314539 
L 345.893272 257.78283 
L 346.145987 255.335708 
L 346.651417 261.602413 
L 346.904132 261.019765 
L 347.156847 261.408197 
L 347.409562 260.022789 
L 347.662277 260.217005 
L 347.914992 259.116447 
L 348.167707 260.411221 
L 348.673137 266.574345 
L 348.925852 259.95805 
L 349.178567 262.664128 
L 349.683997 260.864392 
L 349.936712 256.656377 
L 350.189427 254.934328 
L 350.442142 254.442314 
L 350.694857 257.109548 
L 350.947572 269.448743 
L 351.200287 272.051239 
L 351.453002 254.727164 
L 351.705717 256.371527 
L 352.211147 273.812132 
L 352.463862 262.159166 
L 352.716577 261.822525 
L 352.969292 263.622261 
L 353.474722 271.831127 
L 353.727437 270.89889 
L 353.980152 273.643811 
L 354.232867 267.778485 
L 354.485582 267.35121 
L 354.738297 269.215684 
L 355.243727 280.402531 
L 355.496442 279.081861 
L 355.749157 281.490141 
L 356.001872 277.579924 
L 356.254587 278.926489 
L 356.507302 275.780188 
L 356.760017 269.759489 
L 357.012732 260.786706 
L 357.265447 269.578221 
L 357.518162 267.75259 
L 357.770877 278.5769 
L 358.023592 281.03697 
L 358.276307 269.850123 
L 358.529022 271.494486 
L 358.781737 279.599771 
L 359.034452 280.855702 
L 359.287167 284.778867 
L 359.539882 275.352913 
L 359.792597 273.501386 
L 360.045312 277.036119 
L 360.298027 288.300652 
L 360.550742 286.785766 
L 360.803457 288.805614 
L 361.308887 286.008902 
L 361.561602 281.800887 
L 361.814317 284.506964 
L 362.067032 282.784915 
L 362.319747 285.257933 
L 362.572462 281.710252 
L 362.825177 280.389583 
L 363.077892 280.609695 
L 363.330607 286.332595 
L 363.583322 285.78879 
L 363.836037 279.975255 
L 364.088752 281.179395 
L 364.341467 280.648538 
L 364.594182 292.961838 
L 364.846897 293.453852 
L 365.099612 287.355467 
L 365.352327 287.355467 
L 365.605042 291.938967 
L 366.110472 296.600153 
L 366.615902 289.97091 
L 366.868617 287.964011 
L 367.121332 294.657992 
L 367.374047 294.360194 
L 367.626762 298.581157 
L 368.132192 293.531538 
L 368.384907 294.929894 
L 368.637622 298.866007 
L 368.890337 297.571233 
L 369.143052 297.610076 
L 369.395767 288.171174 
L 369.648482 290.838409 
L 369.901197 295.693811 
L 370.153912 295.603177 
L 370.406627 300.212572 
L 370.659342 299.474551 
L 370.912057 292.586353 
L 371.164772 295.875079 
L 371.417487 302.141785 
L 371.670202 285.995954 
L 371.922917 278.292049 
L 372.175632 276.816007 
L 372.428347 269.448743 
L 372.933777 282.992079 
L 373.439207 269.655907 
L 373.691922 281.166447 
L 373.944637 277.77414 
L 374.197352 279.159548 
L 374.450067 274.951533 
L 374.702782 267.092255 
L 374.955497 270.134974 
L 375.460927 273.151797 
L 375.713642 275.88377 
L 375.966358 270.575197 
L 376.219073 274.822055 
L 376.471788 272.374932 
L 376.977218 279.910517 
L 377.229933 279.625666 
L 377.482648 272.724521 
L 377.735363 270.963629 
L 377.988078 276.414627 
L 378.240793 275.637763 
L 378.493508 275.59892 
L 378.746223 277.139701 
L 379.251653 270.432772 
L 379.504368 282.318796 
L 379.757083 277.282126 
L 380.009798 288.19707 
L 380.262513 288.028749 
L 380.515228 279.004175 
L 380.767943 283.263981 
L 381.020658 290.760722 
L 381.273373 284.882449 
L 381.526088 284.610546 
L 381.778803 287.821585 
L 382.031518 284.118532 
L 382.284233 290.411133 
L 382.536948 292.935942 
L 382.789663 290.708931 
L 383.042378 293.23374 
L 383.547808 285.529836 
L 383.800523 284.53286 
L 384.053238 290.501767 
L 384.305953 285.698156 
L 384.558668 274.291198 
L 384.811383 277.100857 
L 385.316813 293.673964 
L 385.569528 294.450828 
L 385.822243 283.833682 
L 386.074958 284.610546 
L 386.327673 292.405085 
L 386.580388 296.250564 
L 386.833103 294.748626 
L 387.085818 290.708931 
L 387.338533 291.149154 
L 387.843963 297.169853 
L 388.096678 299.073171 
L 388.349393 290.65714 
L 388.602108 289.051621 
L 388.854823 301.520294 
L 389.360253 304.17458 
L 389.612968 302.543165 
L 389.865683 293.622173 
L 390.118398 304.498274 
L 390.371113 306.103793 
L 390.623828 309.120617 
L 390.876543 302.361897 
L 391.381973 285.050769 
L 391.887403 293.648068 
L 392.140118 299.42276 
L 392.392833 302.465479 
L 392.645548 296.056348 
L 392.898263 292.508667 
L 393.150978 291.913071 
L 393.403693 303.307082 
L 393.656408 304.990288 
L 393.909123 301.623876 
L 394.161838 303.048127 
L 394.414553 301.792196 
L 394.667268 299.124962 
L 394.919983 304.148685 
L 395.172698 315.555643 
L 395.425413 303.876782 
L 395.678128 297.571233 
L 395.930843 298.866007 
L 396.688988 312.266917 
L 396.941703 311.127516 
L 397.194418 302.620851 
L 397.447133 303.7732 
L 397.952563 312.771879 
L 398.205278 301.675666 
L 398.457993 298.115038 
L 398.710708 299.332126 
L 398.963423 305.844839 
L 399.468853 310.635502 
L 399.721568 302.931597 
L 400.226998 306.090846 
L 400.732428 315.426166 
L 400.985143 311.554792 
L 401.237858 305.37872 
L 401.490573 311.969119 
L 401.743288 309.897481 
L 401.996003 313.574639 
L 402.501433 307.476254 
L 403.006863 315.905232 
L 403.259578 312.953147 
L 403.765008 323.725666 
L 404.017723 297.001533 
L 404.270438 293.971762 
L 404.523153 297.079219 
L 404.775868 291.680012 
L 405.028583 280.778015 
L 405.281298 278.110781 
L 405.786728 286.229014 
L 406.039443 290.708931 
L 406.292158 286.59155 
L 406.797588 283.121556 
L 407.050303 284.869501 
L 407.303018 288.08054 
L 407.555733 293.194897 
L 407.808448 293.220793 
L 408.061163 286.941139 
L 408.566593 292.728779 
L 408.819308 292.107287 
L 409.072023 291.926019 
L 409.324738 288.960986 
L 409.577453 288.145279 
L 409.830168 281.528984 
L 410.335598 292.741726 
L 410.588313 287.148303 
L 411.093743 293.4668 
L 411.346458 291.770646 
L 411.599173 296.509518 
L 412.104603 282.992079 
L 412.357318 283.199243 
L 412.610033 290.540611 
L 412.862749 303.993312 
L 413.115464 300.316154 
L 413.620894 286.746923 
L 414.126324 305.210399 
L 414.379039 303.786148 
L 414.631754 296.056348 
L 414.884469 292.029601 
L 415.137184 296.988585 
L 415.389899 304.239319 
L 415.642614 298.296307 
L 415.895329 300.989436 
L 416.148044 299.694662 
L 416.653474 302.219472 
L 416.906189 306.026107 
L 417.158904 301.727457 
L 417.411619 304.122789 
L 417.664334 307.631627 
L 417.917049 305.339877 
L 418.169764 317.562543 
L 418.422479 307.424463 
L 418.675194 307.139612 
L 418.927909 295.512543 
L 419.180624 295.188849 
L 419.433339 304.834915 
L 419.686054 308.460282 
L 419.938769 315.620382 
L 420.191484 314.960047 
L 420.444199 303.88973 
L 420.696914 303.980364 
L 421.202344 312.733036 
L 421.707774 310.104645 
L 421.960489 299.487499 
L 422.213204 302.698538 
L 422.465919 307.942372 
L 422.718634 310.428338 
L 422.971349 305.624727 
L 423.224064 304.135737 
L 423.476779 308.939348 
L 423.729494 309.431362 
L 424.234924 315.335531 
L 424.487639 315.141315 
L 424.740354 309.923376 
L 424.993069 308.952296 
L 425.498499 316.863365 
L 425.751214 307.735208 
L 426.003929 305.042079 
L 426.256644 309.703265 
L 426.509359 308.123641 
L 426.762074 317.873288 
L 427.014789 317.057581 
L 427.520219 311.490053 
L 427.772934 315.193106 
L 428.025649 322.482683 
L 428.278364 324.800329 
L 428.783794 318.015713 
L 429.289224 320.177986 
L 429.541939 327.182713 
L 429.794654 326.444692 
L 430.047369 320.074404 
L 430.300084 319.29754 
L 430.552799 328.270323 
L 431.058229 327.817152 
L 431.310944 324.243576 
L 431.563659 315.814598 
L 431.816374 318.468884 
L 432.069089 323.53145 
L 432.321804 354.981509 
L 432.574519 362.413511 
L 432.827234 361.183476 
L 433.079949 362.840787 
L 433.332664 333.151621 
L 433.585379 339.62549 
L 433.838094 338.175344 
L 434.090809 334.381656 
L 434.343524 322.44384 
L 434.596239 327.959577 
L 434.848954 306.401591 
L 435.354384 301.662719 
L 435.607099 301.805144 
L 435.859814 305.067974 
L 436.365244 303.591932 
L 436.617959 300.950593 
L 436.870674 300.316154 
L 437.123389 302.892754 
L 437.376104 307.217299 
L 437.628819 305.650622 
L 437.881534 306.880658 
L 438.134249 306.090846 
L 438.386964 301.02828 
L 438.639679 299.901826 
L 438.892394 307.502149 
L 439.145109 308.732184 
L 439.397824 296.367093 
L 439.650539 295.12411 
L 439.903254 297.519442 
L 440.155969 301.067123 
L 440.408684 310.311809 
L 440.914114 300.665743 
L 441.166829 304.00626 
L 441.419544 304.019207 
L 441.924974 312.176283 
L 442.177689 312.215126 
L 442.430404 311.891433 
L 442.683119 314.99889 
L 442.935834 319.673024 
L 443.188549 311.023934 
L 443.441264 314.42919 
L 443.693979 313.484005 
L 443.946694 314.688144 
L 444.199409 308.628602 
L 444.452124 314.493928 
L 444.704839 308.330804 
L 444.957554 314.416242 
L 445.210269 314.532772 
L 445.462984 311.813746 
L 445.715699 317.458961 
L 445.968414 318.818473 
L 446.221129 316.241873 
L 446.473844 316.630305 
L 446.726559 308.654498 
L 446.979274 309.755056 
L 447.231989 319.530599 
L 447.484704 313.872437 
L 447.737419 313.043782 
L 447.990134 307.774052 
L 448.242849 323.53145 
L 448.748279 335.106729 
L 449.000994 317.161163 
L 449.253709 316.034709 
L 449.506424 315.982918 
L 449.75914 324.411897 
L 450.011855 322.133095 
L 450.26457 316.979894 
L 450.517285 314.882361 
L 451.022715 326.884915 
L 451.27543 322.133095 
L 451.528145 315.270793 
L 452.033575 325.836148 
L 452.28629 330.613864 
L 452.539005 328.684651 
L 452.79172 329.694574 
L 453.044435 336.543928 
L 453.29715 315.180159 
L 453.549865 318.106348 
L 453.80258 316.928103 
L 454.055295 321.498655 
L 454.30801 330.147745 
L 454.560725 327.130922 
L 454.81344 315.335531 
L 455.066155 308.822819 
L 455.31887 325.512454 
L 455.571585 327.351033 
L 455.8243 326.962601 
L 456.077015 319.232801 
L 456.32973 322.858168 
L 456.582445 334.148597 
L 457.087875 323.492607 
L 457.593305 320.165038 
L 457.84602 327.532302 
L 458.098735 331.015244 
L 458.35145 327.959577 
L 458.604165 332.102854 
L 458.85688 330.380804 
L 459.109595 326.716594 
L 459.36231 327.014392 
L 459.615025 324.593165 
L 459.86774 323.414921 
L 460.37317 311.826694 
L 460.625885 311.490053 
L 460.8786 316.837469 
L 461.131315 326.871967 
L 461.38403 328.3998 
L 461.88946 317.640229 
L 462.142175 314.558667 
L 462.39489 327.480511 
L 462.647605 330.329014 
L 462.90032 328.840023 
L 463.153035 326.470587 
L 463.40575 330.393752 
L 463.658465 331.999272 
L 463.91118 332.802032 
L 464.163895 335.029043 
L 464.41661 329.811104 
L 464.669325 330.445543 
L 464.92204 328.63286 
L 465.174755 324.878015 
L 465.42747 332.685502 
L 465.680185 336.323817 
L 466.185615 323.311339 
L 466.43833 333.048039 
L 466.691045 329.629836 
L 466.94376 339.22411 
L 467.196475 325.797305 
L 467.44919 323.440816 
L 467.701905 309.379571 
L 467.95462 306.919501 
L 468.207335 312.694193 
L 468.46005 313.62643 
L 468.712765 303.022231 
L 468.96548 299.772349 
L 469.47091 311.036882 
L 469.723625 312.603558 
L 470.229055 306.207375 
L 470.48177 312.590611 
L 470.734485 314.675197 
L 471.239915 310.713188 
L 471.49263 311.658373 
L 471.745345 311.787851 
L 471.99806 311.684269 
L 472.250775 309.586735 
L 472.50349 304.640699 
L 472.756205 308.421439 
L 473.00892 315.607434 
L 473.261635 315.879336 
L 473.51435 319.090376 
L 474.01978 307.799947 
L 474.272495 304.355849 
L 474.777925 318.714891 
L 475.03064 318.960898 
L 475.283355 313.807698 
L 475.53607 317.303588 
L 475.788785 308.822819 
L 476.0415 313.212102 
L 476.294215 319.919031 
L 476.54693 318.6631 
L 476.799645 320.980746 
L 477.05236 313.937176 
L 477.305075 320.165038 
L 477.55779 323.13007 
L 477.810505 317.070528 
L 478.06322 321.136119 
L 478.315935 321.718767 
L 478.56865 321.835297 
L 478.821365 320.411045 
L 479.07408 327.843048 
L 479.326795 328.360957 
L 479.832225 317.070528 
L 480.337655 324.191785 
L 480.843085 326.949654 
L 481.0958 325.292343 
L 481.348515 320.967798 
L 481.60123 322.651004 
L 481.853945 331.908638 
L 482.10666 327.985473 
L 482.359375 321.615185 
L 482.61209 319.414069 
L 483.370235 337.139524 
L 483.62295 331.921585 
L 483.875665 333.78606 
L 484.12838 336.492137 
L 484.381095 329.047187 
L 484.63381 338.421351 
L 485.13924 337.799859 
L 485.391955 329.979425 
L 485.64467 336.336765 
L 485.897385 337.113629 
L 486.1501 340.518884 
L 486.402815 336.64751 
L 486.65553 336.582772 
L 486.908246 332.957405 
L 487.160961 335.495161 
L 487.413676 334.537029 
L 487.666391 340.454146 
L 487.919106 332.258227 
L 488.171821 331.455467 
L 488.424536 332.387704 
L 488.677251 335.054938 
L 488.929966 335.818855 
L 489.182681 331.105878 
L 489.435396 323.712719 
L 489.688111 325.926782 
L 489.940826 337.929336 
L 490.193541 339.664334 
L 490.446256 340.531832 
L 490.698971 340.02687 
L 490.951686 336.220235 
L 491.204401 338.278925 
L 491.457116 348.015625 
L 491.962546 336.090757 
L 492.467976 341.218062 
L 492.720691 349.789466 
L 492.973406 350.825285 
L 493.226121 344.985854 
L 493.478836 349.245661 
L 493.731551 342.43515 
L 493.984266 344.869325 
L 494.236981 345.943987 
L 494.489696 348.429953 
L 494.742411 336.906465 
L 494.995126 331.054087 
L 495.500556 345.439025 
L 495.753271 355.784269 
L 496.005986 352.262484 
L 496.258701 337.644486 
L 496.511416 340.272877 
L 496.764131 354.864979 
L 497.016846 352.871028 
L 497.269561 357.014304 
L 497.522276 350.96771 
L 497.774991 342.163247 
L 498.027706 350.721703 
L 498.280421 352.430804 
L 498.533136 334.109753 
L 498.785851 331.520206 
L 499.038566 330.160693 
L 499.291281 324.981597 
L 499.543996 325.952678 
L 499.796711 328.3998 
L 500.049426 327.894839 
L 500.302141 334.459342 
L 500.554856 325.900887 
L 500.807571 332.310018 
L 501.060286 325.279395 
L 501.313001 332.556025 
L 501.565716 319.724815 
L 501.818431 316.500828 
L 502.071146 316.565567 
L 502.576576 330.963453 
L 502.829291 328.438644 
L 503.334721 318.986794 
L 503.587436 328.270323 
L 503.840151 331.20946 
L 504.092866 331.869794 
L 504.598296 321.446864 
L 504.851011 324.709695 
L 505.103726 324.787381 
L 505.356441 332.193488 
L 505.609156 331.843899 
L 505.861871 326.613012 
L 506.114586 325.810252 
L 506.367301 327.351033 
L 506.872731 337.178368 
L 507.378161 332.232331 
L 507.630876 326.05626 
L 507.883591 327.907786 
L 508.136306 337.838702 
L 508.389021 326.613012 
L 508.641736 326.315214 
L 508.894451 324.489583 
L 509.147166 326.05626 
L 509.399881 340.000975 
L 509.652596 344.49384 
L 509.905311 330.070059 
L 510.158026 329.409724 
L 510.410741 340.94616 
L 510.663456 345.41313 
L 510.916171 346.863277 
L 511.168886 339.107581 
L 511.421601 338.499037 
L 511.927031 347.782566 
L 512.179746 352.754498 
L 512.432461 341.580599 
L 512.685176 340.7131 
L 512.937891 343.794662 
L 513.190606 343.147275 
L 513.443321 343.626342 
L 513.696036 345.594398 
L 514.201466 332.711398 
L 514.454181 344.856377 
L 514.706896 348.779542 
L 514.959611 340.000975 
L 515.465041 332.58192 
L 515.717756 335.339789 
L 515.970471 342.292725 
L 516.223186 354.075167 
L 516.475901 354.735502 
L 516.728616 341.438174 
L 516.981331 342.461045 
L 517.234046 345.12828 
L 517.486761 351.36909 
L 517.739476 354.256436 
L 517.992191 354.4636 
L 518.244906 348.753647 
L 518.497621 351.485619 
L 518.750336 352.029425 
L 519.003051 358.982361 
L 519.255766 354.282331 
L 519.761196 353.078191 
L 520.013911 347.769618 
L 520.266626 347.730775 
L 520.519341 353.42778 
L 520.772056 343.587499 
L 521.024771 350.475696 
L 521.277486 352.625021 
L 521.530201 345.231861 
L 521.782916 349.659988 
L 522.035631 358.076019 
L 522.541061 345.672085 
L 522.793776 350.152002 
L 523.046491 350.475696 
L 523.299206 345.568503 
L 523.551921 350.902971 
L 523.804637 345.736823 
L 524.057352 348.520587 
L 524.310067 359.448479 
L 524.562782 361.921497 
L 524.815497 356.988409 
L 525.068212 354.942666 
L 525.320927 357.713482 
L 525.826357 358.076019 
L 526.079072 352.715655 
L 526.331787 350.760546 
L 526.584502 362.918473 
L 526.837217 358.943517 
L 527.089932 365.779924 
L 527.342647 357.545161 
L 527.595362 356.612924 
L 528.353507 360.950417 
L 528.606222 357.0402 
L 529.111652 353.479571 
L 529.364367 358.257287 
L 529.617082 356.095015 
L 529.869797 361.701386 
L 530.122512 362.983212 
L 530.375227 337.191315 
L 530.627942 334.485238 
L 530.880657 334.770088 
L 531.133372 336.051914 
L 531.386087 341.282801 
L 531.638802 339.366536 
L 532.144232 330.600916 
L 532.396947 335.922437 
L 532.649662 336.36266 
L 532.902377 342.396307 
L 533.155092 332.737293 
L 533.913237 345.736823 
L 534.165952 345.115332 
L 534.418667 348.598274 
L 534.671382 339.508961 
L 534.924097 342.396307 
L 535.176812 341.904292 
L 535.682242 349.180922 
L 536.187672 335.741169 
L 536.440387 334.342813 
L 536.693102 344.066565 
L 536.945817 347.976782 
L 537.198532 345.607346 
L 537.451247 336.24613 
L 537.703962 336.427399 
L 537.956677 348.352267 
L 538.209392 348.934915 
L 538.462107 350.488644 
L 539.220252 338.667358 
L 539.472967 338.382507 
L 539.725682 347.251709 
L 539.978397 350.04842 
L 540.231112 340.868473 
L 540.483827 341.969031 
L 540.989257 351.602149 
L 541.241972 354.372965 
L 541.494687 352.301327 
L 541.747402 338.421351 
L 542.252832 353.168826 
L 542.505547 352.094163 
L 542.758262 345.348391 
L 543.010977 345.866301 
L 543.263692 339.327692 
L 543.769122 360.549037 
L 544.021837 358.710458 
L 544.274552 347.018649 
L 544.527267 341.023846 
L 544.779982 356.107962 
L 545.032697 358.943517 
L 545.285412 364.977164 
L 545.538127 358.29613 
L 545.790842 355.473523 
L 546.043557 356.52229 
L 546.296272 362.025079 
L 546.548987 355.55121 
L 546.801702 362.87963 
L 547.054417 361.934445 
L 547.307132 349.76357 
L 547.559847 359.526166 
L 547.812562 359.526166 
L 548.065277 360.290082 
L 548.317992 365.831715 
L 548.570707 358.050123 
L 548.823422 357.752325 
L 549.076137 356.858931 
L 549.328852 365.559812 
L 549.581567 355.123934 
L 549.834282 358.41266 
L 550.086997 366.246042 
L 550.339712 366.479102 
L 550.592427 368.498949 
L 550.845142 362.983212 
L 551.097857 363.591756 
L 551.350572 361.261163 
L 551.856002 370.026782 
L 552.614147 363.112689 
L 552.866862 363.16448 
L 553.119577 371.606406 
L 553.372292 371.761779 
L 553.877722 363.39754 
L 554.130437 370.013834 
L 554.383152 370.065625 
L 554.635867 375.99569 
L 554.888582 373.30256 
L 555.141297 364.459254 
L 555.394012 364.912425 
L 555.646727 371.9301 
L 555.899442 373.626254 
L 556.152157 378.067328 
L 556.404872 362.931421 
L 556.657587 360.678514 
L 557.415732 380.825197 
L 557.921162 361.662543 
L 558.173877 363.449331 
L 558.426592 373.665097 
L 558.932022 423.669266 
L 559.437452 414.372789 
L 559.690167 385.421644 
L 559.942882 388.42552 
L 560.195597 387.985297 
L 560.448312 385.538174 
L 560.701028 375.620206 
L 561.206458 410.941638 
L 561.459173 382.249448 
L 561.711888 376.202854 
L 561.964603 366.867534 
L 562.217318 362.853735 
L 562.470033 354.606025 
L 562.722748 358.347921 
L 562.975463 364.161456 
L 563.228178 357.014304 
L 563.480893 353.906847 
L 563.733608 354.826136 
L 563.986323 354.049272 
L 564.239038 363.578808 
L 564.491753 359.966389 
L 564.744468 362.335825 
L 564.997183 351.08424 
L 565.249898 361.662543 
L 565.502613 363.785972 
L 565.755328 364.070822 
L 566.008043 361.041051 
L 566.260758 361.39064 
L 566.766188 371.852413 
L 567.018903 364.472202 
L 567.271618 362.607728 
L 567.524333 368.43421 
L 567.777048 368.55074 
L 568.029763 365.28791 
L 568.282478 363.941345 
L 568.535193 358.878779 
L 568.787908 367.074698 
L 569.040623 369.728984 
L 569.546053 363.889554 
L 569.798768 370.311632 
L 570.304198 353.013453 
L 570.809628 356.574081 
L 571.062343 367.722085 
L 571.315058 365.818767 
L 571.567773 357.933594 
L 571.820488 359.862807 
L 572.325918 367.903353 
L 572.578633 368.304733 
L 573.084063 361.662543 
L 573.336778 363.345749 
L 573.589493 363.604703 
L 573.842208 365.754028 
L 574.094923 364.692314 
L 574.347638 364.239143 
L 574.600353 364.562836 
L 575.105783 372.577487 
L 575.358498 366.828691 
L 575.611213 373.872261 
L 575.863928 364.394516 
L 576.116643 363.203324 
L 576.622073 376.086324 
L 576.874788 366.453206 
L 577.127503 366.492049 
L 577.380218 356.962513 
L 577.885648 379.038409 
L 578.643793 365.093693 
L 579.401938 381.848068 
L 579.654653 378.870088 
L 579.907368 371.9301 
L 580.665513 378.248597 
L 580.918228 380.605085 
L 581.170943 370.233946 
L 581.423658 380.397921 
L 581.676373 373.665097 
L 581.929088 383.272319 
L 582.181803 381.006465 
L 582.434518 380.475608 
L 582.687233 374.998714 
L 582.939948 379.582214 
L 583.192663 380.889935 
L 583.445378 381.38195 
L 583.698093 373.949947 
L 583.950808 372.590435 
L 584.203523 374.467857 
L 584.456238 373.846365 
L 584.708953 380.035385 
L 584.961668 380.100123 
L 585.214383 368.136412 
L 585.467098 367.981039 
L 585.972528 382.845044 
L 586.225243 382.003441 
L 586.477958 428.977839 
L 586.730673 425.740904 
L 587.236103 430.92 
L 587.488818 398.16222 
L 587.741533 389.810928 
L 587.994248 389.318914 
L 588.246963 379.051356 
L 588.499678 377.653001 
L 588.752393 387.894662 
L 589.005108 384.437616 
L 589.257823 389.51313 
L 589.510538 387.765185 
L 589.763253 389.642607 
L 590.268683 394.368532 
L 590.521398 383.686647 
L 590.774113 379.517475 
L 591.026828 381.627957 
L 591.279543 365.404439 
L 591.532258 378.999565 
L 591.784973 370.376371 
L 592.290403 348.222789 
L 592.543118 357.661691 
L 592.795833 371.606406 
L 593.048548 372.512748 
L 593.301263 362.128661 
L 593.553978 361.688438 
L 593.806693 361.869706 
L 594.059408 365.352648 
L 594.312123 371.24387 
L 594.564838 367.398391 
L 594.817553 367.916301 
L 595.070268 364.614627 
L 595.322983 367.359548 
L 595.575698 367.23007 
L 595.828413 364.718209 
L 596.081128 367.696189 
L 596.333843 372.409166 
L 596.586558 370.544692 
L 596.839273 375.503676 
L 597.091988 376.11222 
L 597.344703 365.650446 
L 597.597419 366.7769 
L 597.850134 366.789847 
L 598.102849 372.771703 
L 598.608279 374.649125 
L 598.860994 372.33148 
L 599.113709 362.866682 
L 599.619139 380.928779 
L 599.871854 373.30256 
L 600.377284 371.295661 
L 600.629999 375.244721 
L 600.882714 376.656025 
L 601.135429 375.684944 
L 601.388144 376.526547 
L 601.640859 376.39707 
L 601.893574 378.611133 
L 602.146289 377.329307 
L 602.399004 382.301239 
L 602.904434 375.387146 
L 603.157149 378.97367 
L 603.409864 378.119119 
L 603.662579 382.702619 
L 603.915294 371.476929 
L 604.168009 373.354351 
L 604.420724 369.832566 
L 604.673439 374.765655 
L 604.926154 375.866213 
L 605.178869 380.074228 
L 605.431584 386.366829 
L 605.684299 377.303412 
L 605.937014 378.870088 
L 606.189729 386.159665 
L 606.442444 388.632683 
L 606.695159 382.456612 
L 606.947874 382.003441 
L 607.200589 383.207581 
L 607.706019 389.526078 
L 608.211449 383.168738 
L 608.464164 386.807052 
L 608.716879 384.722466 
L 609.222309 390.782008 
L 609.475024 387.286119 
L 609.727739 390.548949 
L 609.980454 389.927457 
L 610.233169 388.878691 
L 610.485884 393.734093 
L 610.738599 394.26495 
L 610.991314 387.583917 
L 611.244029 389.422496 
L 611.496744 375.827369 
L 611.749459 388.477311 
L 612.254889 392.827751 
L 612.760319 383.427692 
L 613.013034 387.687499 
L 613.518464 404.066389 
L 614.023894 394.420323 
L 614.276609 398.796659 
L 614.529324 396.660282 
L 614.782039 403.341315 
L 615.287469 392.335737 
L 615.540184 389.810928 
L 615.792899 390.005144 
L 616.045614 392.063834 
L 616.551044 388.075931 
L 616.803759 390.807904 
L 617.056474 386.768209 
L 617.309189 392.452267 
L 617.561904 385.61586 
L 617.814619 394.135473 
L 618.320049 388.775109 
L 618.572764 391.196336 
L 618.825479 390.613688 
L 619.078194 392.931333 
L 619.330909 392.167416 
L 619.330909 392.167416 
" style="fill:none;stroke:#1f77b4;stroke-linecap:square;stroke-width:1.5;"/>
   </g>
   <g id="patch_3">
    <path d="M 108 448.56 
L 108 60.48 
" style="fill:none;stroke:#000000;stroke-linecap:square;stroke-linejoin:miter;stroke-width:0.8;"/>
   </g>
   <g id="patch_4">
    <path d="M 643.68 448.56 
L 643.68 60.48 
" style="fill:none;stroke:#000000;stroke-linecap:square;stroke-linejoin:miter;stroke-width:0.8;"/>
   </g>
   <g id="patch_5">
    <path d="M 108 448.56 
L 643.68 448.56 
" style="fill:none;stroke:#000000;stroke-linecap:square;stroke-linejoin:miter;stroke-width:0.8;"/>
   </g>
   <g id="patch_6">
    <path d="M 108 60.48 
L 643.68 60.48 
" style="fill:none;stroke:#000000;stroke-linecap:square;stroke-linejoin:miter;stroke-width:0.8;"/>
   </g>
   <g id="text_30">
    <!-- docker - vmstat -->
    <g transform="translate(316.995469 54.48)scale(0.15 -0.15)">
     <defs>
      <path d="M 45.40625 46.390625 
L 45.40625 75.984375 
L 54.390625 75.984375 
L 54.390625 0 
L 45.40625 0 
L 45.40625 8.203125 
Q 42.578125 3.328125 38.25 0.953125 
Q 33.9375 -1.421875 27.875 -1.421875 
Q 17.96875 -1.421875 11.734375 6.484375 
Q 5.515625 14.40625 5.515625 27.296875 
Q 5.515625 40.1875 11.734375 48.09375 
Q 17.96875 56 27.875 56 
Q 33.9375 56 38.25 53.625 
Q 42.578125 51.265625 45.40625 46.390625 
z
M 14.796875 27.296875 
Q 14.796875 17.390625 18.875 11.75 
Q 22.953125 6.109375 30.078125 6.109375 
Q 37.203125 6.109375 41.296875 11.75 
Q 45.40625 17.390625 45.40625 27.296875 
Q 45.40625 37.203125 41.296875 42.84375 
Q 37.203125 48.484375 30.078125 48.484375 
Q 22.953125 48.484375 18.875 42.84375 
Q 14.796875 37.203125 14.796875 27.296875 
z
" id="DejaVuSans-100"/>
      <path d="M 30.609375 48.390625 
Q 23.390625 48.390625 19.1875 42.75 
Q 14.984375 37.109375 14.984375 27.296875 
Q 14.984375 17.484375 19.15625 11.84375 
Q 23.34375 6.203125 30.609375 6.203125 
Q 37.796875 6.203125 41.984375 11.859375 
Q 46.1875 17.53125 46.1875 27.296875 
Q 46.1875 37.015625 41.984375 42.703125 
Q 37.796875 48.390625 30.609375 48.390625 
z
M 30.609375 56 
Q 42.328125 56 49.015625 48.375 
Q 55.71875 40.765625 55.71875 27.296875 
Q 55.71875 13.875 49.015625 6.21875 
Q 42.328125 -1.421875 30.609375 -1.421875 
Q 18.84375 -1.421875 12.171875 6.21875 
Q 5.515625 13.875 5.515625 27.296875 
Q 5.515625 40.765625 12.171875 48.375 
Q 18.84375 56 30.609375 56 
z
" id="DejaVuSans-111"/>
      <path d="M 48.78125 52.59375 
L 48.78125 44.1875 
Q 44.96875 46.296875 41.140625 47.34375 
Q 37.3125 48.390625 33.40625 48.390625 
Q 24.65625 48.390625 19.8125 42.84375 
Q 14.984375 37.3125 14.984375 27.296875 
Q 14.984375 17.28125 19.8125 11.734375 
Q 24.65625 6.203125 33.40625 6.203125 
Q 37.3125 6.203125 41.140625 7.25 
Q 44.96875 8.296875 48.78125 10.40625 
L 48.78125 2.09375 
Q 45.015625 0.34375 40.984375 -0.53125 
Q 36.96875 -1.421875 32.421875 -1.421875 
Q 20.0625 -1.421875 12.78125 6.34375 
Q 5.515625 14.109375 5.515625 27.296875 
Q 5.515625 40.671875 12.859375 48.328125 
Q 20.21875 56 33.015625 56 
Q 37.15625 56 41.109375 55.140625 
Q 45.0625 54.296875 48.78125 52.59375 
z
" id="DejaVuSans-99"/>
      <path d="M 9.078125 75.984375 
L 18.109375 75.984375 
L 18.109375 31.109375 
L 44.921875 54.6875 
L 56.390625 54.6875 
L 27.390625 29.109375 
L 57.625 0 
L 45.90625 0 
L 18.109375 26.703125 
L 18.109375 0 
L 9.078125 0 
z
" id="DejaVuSans-107"/>
      <path d="M 41.109375 46.296875 
Q 39.59375 47.171875 37.8125 47.578125 
Q 36.03125 48 33.890625 48 
Q 26.265625 48 22.1875 43.046875 
Q 18.109375 38.09375 18.109375 28.8125 
L 18.109375 0 
L 9.078125 0 
L 9.078125 54.6875 
L 18.109375 54.6875 
L 18.109375 46.1875 
Q 20.953125 51.171875 25.484375 53.578125 
Q 30.03125 56 36.53125 56 
Q 37.453125 56 38.578125 55.875 
Q 39.703125 55.765625 41.0625 55.515625 
z
" id="DejaVuSans-114"/>
      <path id="DejaVuSans-32"/>
      <path d="M 4.890625 31.390625 
L 31.203125 31.390625 
L 31.203125 23.390625 
L 4.890625 23.390625 
z
" id="DejaVuSans-45"/>
      <path d="M 2.984375 54.6875 
L 12.5 54.6875 
L 29.59375 8.796875 
L 46.6875 54.6875 
L 56.203125 54.6875 
L 35.6875 0 
L 23.484375 0 
z
" id="DejaVuSans-118"/>
     </defs>
     <use xlink:href="#DejaVuSans-100"/>
     <use x="63.476562" xlink:href="#DejaVuSans-111"/>
     <use x="124.658203" xlink:href="#DejaVuSans-99"/>
     <use x="179.638672" xlink:href="#DejaVuSans-107"/>
     <use x="233.923828" xlink:href="#DejaVuSans-101"/>
     <use x="295.447266" xlink:href="#DejaVuSans-114"/>
     <use x="336.560547" xlink:href="#DejaVuSans-32"/>
     <use x="368.347656" xlink:href="#DejaVuSans-45"/>
     <use x="404.431641" xlink:href="#DejaVuSans-32"/>
     <use x="436.21875" xlink:href="#DejaVuSans-118"/>
     <use x="495.398438" xlink:href="#DejaVuSans-109"/>
     <use x="592.810547" xlink:href="#DejaVuSans-115"/>
     <use x="644.910156" xlink:href="#DejaVuSans-116"/>
     <use x="684.119141" xlink:href="#DejaVuSans-97"/>
     <use x="745.398438" xlink:href="#DejaVuSans-116"/>
    </g>
   </g>
   <g id="legend_1">
    <g id="patch_7">
     <path d="M 650.68 258.52 
L 654.68 258.52 
Q 656.68 258.52 656.68 256.52 
L 656.68 252.52 
Q 656.68 250.52 654.68 250.52 
L 650.68 250.52 
Q 648.68 250.52 648.68 252.52 
L 648.68 256.52 
Q 648.68 258.52 650.68 258.52 
z
" style="fill:#ffffff;opacity:0.8;stroke:#cccccc;stroke-linejoin:miter;"/>
    </g>
   </g>
  </g>
 </g>
 <defs>
  <clipPath id="p6b567136ad">
   <rect height="388.08" width="535.68" x="108" y="60.48"/>
  </clipPath>
 </defs>
</svg>
