<?xml version="1.0" encoding="utf-8" standalone="no"?>
<!DOCTYPE svg PUBLIC "-//W3C//DTD SVG 1.1//EN"
  "http://www.w3.org/Graphics/SVG/1.1/DTD/svg11.dtd">
<!-- Created with matplotlib (https://matplotlib.org/) -->
<svg height="504pt" version="1.1" viewBox="0 0 864 504" width="864pt" xmlns="http://www.w3.org/2000/svg" xmlns:xlink="http://www.w3.org/1999/xlink">
 <metadata>
  <rdf:RDF xmlns:cc="http://creativecommons.org/ns#" xmlns:dc="http://purl.org/dc/elements/1.1/" xmlns:rdf="http://www.w3.org/1999/02/22-rdf-syntax-ns#">
   <cc:Work>
    <dc:type rdf:resource="http://purl.org/dc/dcmitype/StillImage"/>
    <dc:date>2022-05-29T17:07:56.888146</dc:date>
    <dc:format>image/svg+xml</dc:format>
    <dc:creator>
     <cc:Agent>
      <dc:title>Matplotlib v3.3.4, https://matplotlib.org/</dc:title>
     </cc:Agent>
    </dc:creator>
   </cc:Work>
  </rdf:RDF>
 </metadata>
 <defs>
  <style type="text/css">*{stroke-linecap:butt;stroke-linejoin:round;}</style>
 </defs>
 <g id="figure_1">
  <g id="patch_1">
   <path d="M 0 504 
L 864 504 
L 864 0 
L 0 0 
z
" style="fill:#ffffff;"/>
  </g>
  <g id="axes_1">
   <g id="patch_2">
    <path d="M 108 448.56 
L 643.68 448.56 
L 643.68 60.48 
L 108 60.48 
z
" style="fill:#ffffff;"/>
   </g>
   <g id="matplotlib.axis_1">
    <g id="xtick_1">
     <g id="line2d_1">
      <defs>
       <path d="M 0 0 
L 0 3.5 
" id="m4d0a6e4284" style="stroke:#000000;stroke-width:0.8;"/>
      </defs>
      <g>
       <use style="stroke:#000000;stroke-width:0.8;" x="132.349091" xlink:href="#m4d0a6e4284" y="448.56"/>
      </g>
     </g>
     <g id="text_1">
      <!-- 12:59:31 -->
      <g transform="translate(135.108466 500.4725)rotate(-90)scale(0.1 -0.1)">
       <defs>
        <path d="M 12.40625 8.296875 
L 28.515625 8.296875 
L 28.515625 63.921875 
L 10.984375 60.40625 
L 10.984375 69.390625 
L 28.421875 72.90625 
L 38.28125 72.90625 
L 38.28125 8.296875 
L 54.390625 8.296875 
L 54.390625 0 
L 12.40625 0 
z
" id="DejaVuSans-49"/>
        <path d="M 19.1875 8.296875 
L 53.609375 8.296875 
L 53.609375 0 
L 7.328125 0 
L 7.328125 8.296875 
Q 12.9375 14.109375 22.625 23.890625 
Q 32.328125 33.6875 34.8125 36.53125 
Q 39.546875 41.84375 41.421875 45.53125 
Q 43.3125 49.21875 43.3125 52.78125 
Q 43.3125 58.59375 39.234375 62.25 
Q 35.15625 65.921875 28.609375 65.921875 
Q 23.96875 65.921875 18.8125 64.3125 
Q 13.671875 62.703125 7.8125 59.421875 
L 7.8125 69.390625 
Q 13.765625 71.78125 18.9375 73 
Q 24.125 74.21875 28.421875 74.21875 
Q 39.75 74.21875 46.484375 68.546875 
Q 53.21875 62.890625 53.21875 53.421875 
Q 53.21875 48.921875 51.53125 44.890625 
Q 49.859375 40.875 45.40625 35.40625 
Q 44.1875 33.984375 37.640625 27.21875 
Q 31.109375 20.453125 19.1875 8.296875 
z
" id="DejaVuSans-50"/>
        <path d="M 11.71875 12.40625 
L 22.015625 12.40625 
L 22.015625 0 
L 11.71875 0 
z
M 11.71875 51.703125 
L 22.015625 51.703125 
L 22.015625 39.3125 
L 11.71875 39.3125 
z
" id="DejaVuSans-58"/>
        <path d="M 10.796875 72.90625 
L 49.515625 72.90625 
L 49.515625 64.59375 
L 19.828125 64.59375 
L 19.828125 46.734375 
Q 21.96875 47.46875 24.109375 47.828125 
Q 26.265625 48.1875 28.421875 48.1875 
Q 40.625 48.1875 47.75 41.5 
Q 54.890625 34.8125 54.890625 23.390625 
Q 54.890625 11.625 47.5625 5.09375 
Q 40.234375 -1.421875 26.90625 -1.421875 
Q 22.3125 -1.421875 17.546875 -0.640625 
Q 12.796875 0.140625 7.71875 1.703125 
L 7.71875 11.625 
Q 12.109375 9.234375 16.796875 8.0625 
Q 21.484375 6.890625 26.703125 6.890625 
Q 35.15625 6.890625 40.078125 11.328125 
Q 45.015625 15.765625 45.015625 23.390625 
Q 45.015625 31 40.078125 35.4375 
Q 35.15625 39.890625 26.703125 39.890625 
Q 22.75 39.890625 18.8125 39.015625 
Q 14.890625 38.140625 10.796875 36.28125 
z
" id="DejaVuSans-53"/>
        <path d="M 10.984375 1.515625 
L 10.984375 10.5 
Q 14.703125 8.734375 18.5 7.8125 
Q 22.3125 6.890625 25.984375 6.890625 
Q 35.75 6.890625 40.890625 13.453125 
Q 46.046875 20.015625 46.78125 33.40625 
Q 43.953125 29.203125 39.59375 26.953125 
Q 35.25 24.703125 29.984375 24.703125 
Q 19.046875 24.703125 12.671875 31.3125 
Q 6.296875 37.9375 6.296875 49.421875 
Q 6.296875 60.640625 12.9375 67.421875 
Q 19.578125 74.21875 30.609375 74.21875 
Q 43.265625 74.21875 49.921875 64.515625 
Q 56.59375 54.828125 56.59375 36.375 
Q 56.59375 19.140625 48.40625 8.859375 
Q 40.234375 -1.421875 26.421875 -1.421875 
Q 22.703125 -1.421875 18.890625 -0.6875 
Q 15.09375 0.046875 10.984375 1.515625 
z
M 30.609375 32.421875 
Q 37.25 32.421875 41.125 36.953125 
Q 45.015625 41.5 45.015625 49.421875 
Q 45.015625 57.28125 41.125 61.84375 
Q 37.25 66.40625 30.609375 66.40625 
Q 23.96875 66.40625 20.09375 61.84375 
Q 16.21875 57.28125 16.21875 49.421875 
Q 16.21875 41.5 20.09375 36.953125 
Q 23.96875 32.421875 30.609375 32.421875 
z
" id="DejaVuSans-57"/>
        <path d="M 40.578125 39.3125 
Q 47.65625 37.796875 51.625 33 
Q 55.609375 28.21875 55.609375 21.1875 
Q 55.609375 10.40625 48.1875 4.484375 
Q 40.765625 -1.421875 27.09375 -1.421875 
Q 22.515625 -1.421875 17.65625 -0.515625 
Q 12.796875 0.390625 7.625 2.203125 
L 7.625 11.71875 
Q 11.71875 9.328125 16.59375 8.109375 
Q 21.484375 6.890625 26.8125 6.890625 
Q 36.078125 6.890625 40.9375 10.546875 
Q 45.796875 14.203125 45.796875 21.1875 
Q 45.796875 27.640625 41.28125 31.265625 
Q 36.765625 34.90625 28.71875 34.90625 
L 20.21875 34.90625 
L 20.21875 43.015625 
L 29.109375 43.015625 
Q 36.375 43.015625 40.234375 45.921875 
Q 44.09375 48.828125 44.09375 54.296875 
Q 44.09375 59.90625 40.109375 62.90625 
Q 36.140625 65.921875 28.71875 65.921875 
Q 24.65625 65.921875 20.015625 65.03125 
Q 15.375 64.15625 9.8125 62.3125 
L 9.8125 71.09375 
Q 15.4375 72.65625 20.34375 73.4375 
Q 25.25 74.21875 29.59375 74.21875 
Q 40.828125 74.21875 47.359375 69.109375 
Q 53.90625 64.015625 53.90625 55.328125 
Q 53.90625 49.265625 50.4375 45.09375 
Q 46.96875 40.921875 40.578125 39.3125 
z
" id="DejaVuSans-51"/>
       </defs>
       <use xlink:href="#DejaVuSans-49"/>
       <use x="63.623047" xlink:href="#DejaVuSans-50"/>
       <use x="127.246094" xlink:href="#DejaVuSans-58"/>
       <use x="160.9375" xlink:href="#DejaVuSans-53"/>
       <use x="224.560547" xlink:href="#DejaVuSans-57"/>
       <use x="288.183594" xlink:href="#DejaVuSans-58"/>
       <use x="321.875" xlink:href="#DejaVuSans-51"/>
       <use x="385.498047" xlink:href="#DejaVuSans-49"/>
      </g>
     </g>
    </g>
    <g id="xtick_2">
     <g id="line2d_2">
      <g>
       <use style="stroke:#000000;stroke-width:0.8;" x="156.550286" xlink:href="#m4d0a6e4284" y="448.56"/>
      </g>
     </g>
     <g id="text_2">
      <!-- 13:01:19 -->
      <g transform="translate(159.309661 500.4725)rotate(-90)scale(0.1 -0.1)">
       <defs>
        <path d="M 31.78125 66.40625 
Q 24.171875 66.40625 20.328125 58.90625 
Q 16.5 51.421875 16.5 36.375 
Q 16.5 21.390625 20.328125 13.890625 
Q 24.171875 6.390625 31.78125 6.390625 
Q 39.453125 6.390625 43.28125 13.890625 
Q 47.125 21.390625 47.125 36.375 
Q 47.125 51.421875 43.28125 58.90625 
Q 39.453125 66.40625 31.78125 66.40625 
z
M 31.78125 74.21875 
Q 44.046875 74.21875 50.515625 64.515625 
Q 56.984375 54.828125 56.984375 36.375 
Q 56.984375 17.96875 50.515625 8.265625 
Q 44.046875 -1.421875 31.78125 -1.421875 
Q 19.53125 -1.421875 13.0625 8.265625 
Q 6.59375 17.96875 6.59375 36.375 
Q 6.59375 54.828125 13.0625 64.515625 
Q 19.53125 74.21875 31.78125 74.21875 
z
" id="DejaVuSans-48"/>
       </defs>
       <use xlink:href="#DejaVuSans-49"/>
       <use x="63.623047" xlink:href="#DejaVuSans-51"/>
       <use x="127.246094" xlink:href="#DejaVuSans-58"/>
       <use x="160.9375" xlink:href="#DejaVuSans-48"/>
       <use x="224.560547" xlink:href="#DejaVuSans-49"/>
       <use x="288.183594" xlink:href="#DejaVuSans-58"/>
       <use x="321.875" xlink:href="#DejaVuSans-49"/>
       <use x="385.498047" xlink:href="#DejaVuSans-57"/>
      </g>
     </g>
    </g>
    <g id="xtick_3">
     <g id="line2d_3">
      <g>
       <use style="stroke:#000000;stroke-width:0.8;" x="180.75148" xlink:href="#m4d0a6e4284" y="448.56"/>
      </g>
     </g>
     <g id="text_3">
      <!-- 13:03:07 -->
      <g transform="translate(183.510855 500.4725)rotate(-90)scale(0.1 -0.1)">
       <defs>
        <path d="M 8.203125 72.90625 
L 55.078125 72.90625 
L 55.078125 68.703125 
L 28.609375 0 
L 18.3125 0 
L 43.21875 64.59375 
L 8.203125 64.59375 
z
" id="DejaVuSans-55"/>
       </defs>
       <use xlink:href="#DejaVuSans-49"/>
       <use x="63.623047" xlink:href="#DejaVuSans-51"/>
       <use x="127.246094" xlink:href="#DejaVuSans-58"/>
       <use x="160.9375" xlink:href="#DejaVuSans-48"/>
       <use x="224.560547" xlink:href="#DejaVuSans-51"/>
       <use x="288.183594" xlink:href="#DejaVuSans-58"/>
       <use x="321.875" xlink:href="#DejaVuSans-48"/>
       <use x="385.498047" xlink:href="#DejaVuSans-55"/>
      </g>
     </g>
    </g>
    <g id="xtick_4">
     <g id="line2d_4">
      <g>
       <use style="stroke:#000000;stroke-width:0.8;" x="204.952675" xlink:href="#m4d0a6e4284" y="448.56"/>
      </g>
     </g>
     <g id="text_4">
      <!-- 13:04:54 -->
      <g transform="translate(207.71205 500.4725)rotate(-90)scale(0.1 -0.1)">
       <defs>
        <path d="M 37.796875 64.3125 
L 12.890625 25.390625 
L 37.796875 25.390625 
z
M 35.203125 72.90625 
L 47.609375 72.90625 
L 47.609375 25.390625 
L 58.015625 25.390625 
L 58.015625 17.1875 
L 47.609375 17.1875 
L 47.609375 0 
L 37.796875 0 
L 37.796875 17.1875 
L 4.890625 17.1875 
L 4.890625 26.703125 
z
" id="DejaVuSans-52"/>
       </defs>
       <use xlink:href="#DejaVuSans-49"/>
       <use x="63.623047" xlink:href="#DejaVuSans-51"/>
       <use x="127.246094" xlink:href="#DejaVuSans-58"/>
       <use x="160.9375" xlink:href="#DejaVuSans-48"/>
       <use x="224.560547" xlink:href="#DejaVuSans-52"/>
       <use x="288.183594" xlink:href="#DejaVuSans-58"/>
       <use x="321.875" xlink:href="#DejaVuSans-53"/>
       <use x="385.498047" xlink:href="#DejaVuSans-52"/>
      </g>
     </g>
    </g>
    <g id="xtick_5">
     <g id="line2d_5">
      <g>
       <use style="stroke:#000000;stroke-width:0.8;" x="229.15387" xlink:href="#m4d0a6e4284" y="448.56"/>
      </g>
     </g>
     <g id="text_5">
      <!-- 13:06:42 -->
      <g transform="translate(231.913245 500.4725)rotate(-90)scale(0.1 -0.1)">
       <defs>
        <path d="M 33.015625 40.375 
Q 26.375 40.375 22.484375 35.828125 
Q 18.609375 31.296875 18.609375 23.390625 
Q 18.609375 15.53125 22.484375 10.953125 
Q 26.375 6.390625 33.015625 6.390625 
Q 39.65625 6.390625 43.53125 10.953125 
Q 47.40625 15.53125 47.40625 23.390625 
Q 47.40625 31.296875 43.53125 35.828125 
Q 39.65625 40.375 33.015625 40.375 
z
M 52.59375 71.296875 
L 52.59375 62.3125 
Q 48.875 64.0625 45.09375 64.984375 
Q 41.3125 65.921875 37.59375 65.921875 
Q 27.828125 65.921875 22.671875 59.328125 
Q 17.53125 52.734375 16.796875 39.40625 
Q 19.671875 43.65625 24.015625 45.921875 
Q 28.375 48.1875 33.59375 48.1875 
Q 44.578125 48.1875 50.953125 41.515625 
Q 57.328125 34.859375 57.328125 23.390625 
Q 57.328125 12.15625 50.6875 5.359375 
Q 44.046875 -1.421875 33.015625 -1.421875 
Q 20.359375 -1.421875 13.671875 8.265625 
Q 6.984375 17.96875 6.984375 36.375 
Q 6.984375 53.65625 15.1875 63.9375 
Q 23.390625 74.21875 37.203125 74.21875 
Q 40.921875 74.21875 44.703125 73.484375 
Q 48.484375 72.75 52.59375 71.296875 
z
" id="DejaVuSans-54"/>
       </defs>
       <use xlink:href="#DejaVuSans-49"/>
       <use x="63.623047" xlink:href="#DejaVuSans-51"/>
       <use x="127.246094" xlink:href="#DejaVuSans-58"/>
       <use x="160.9375" xlink:href="#DejaVuSans-48"/>
       <use x="224.560547" xlink:href="#DejaVuSans-54"/>
       <use x="288.183594" xlink:href="#DejaVuSans-58"/>
       <use x="321.875" xlink:href="#DejaVuSans-52"/>
       <use x="385.498047" xlink:href="#DejaVuSans-50"/>
      </g>
     </g>
    </g>
    <g id="xtick_6">
     <g id="line2d_6">
      <g>
       <use style="stroke:#000000;stroke-width:0.8;" x="253.355065" xlink:href="#m4d0a6e4284" y="448.56"/>
      </g>
     </g>
     <g id="text_6">
      <!-- 13:08:30 -->
      <g transform="translate(256.11444 500.4725)rotate(-90)scale(0.1 -0.1)">
       <defs>
        <path d="M 31.78125 34.625 
Q 24.75 34.625 20.71875 30.859375 
Q 16.703125 27.09375 16.703125 20.515625 
Q 16.703125 13.921875 20.71875 10.15625 
Q 24.75 6.390625 31.78125 6.390625 
Q 38.8125 6.390625 42.859375 10.171875 
Q 46.921875 13.96875 46.921875 20.515625 
Q 46.921875 27.09375 42.890625 30.859375 
Q 38.875 34.625 31.78125 34.625 
z
M 21.921875 38.8125 
Q 15.578125 40.375 12.03125 44.71875 
Q 8.5 49.078125 8.5 55.328125 
Q 8.5 64.0625 14.71875 69.140625 
Q 20.953125 74.21875 31.78125 74.21875 
Q 42.671875 74.21875 48.875 69.140625 
Q 55.078125 64.0625 55.078125 55.328125 
Q 55.078125 49.078125 51.53125 44.71875 
Q 48 40.375 41.703125 38.8125 
Q 48.828125 37.15625 52.796875 32.3125 
Q 56.78125 27.484375 56.78125 20.515625 
Q 56.78125 9.90625 50.3125 4.234375 
Q 43.84375 -1.421875 31.78125 -1.421875 
Q 19.734375 -1.421875 13.25 4.234375 
Q 6.78125 9.90625 6.78125 20.515625 
Q 6.78125 27.484375 10.78125 32.3125 
Q 14.796875 37.15625 21.921875 38.8125 
z
M 18.3125 54.390625 
Q 18.3125 48.734375 21.84375 45.5625 
Q 25.390625 42.390625 31.78125 42.390625 
Q 38.140625 42.390625 41.71875 45.5625 
Q 45.3125 48.734375 45.3125 54.390625 
Q 45.3125 60.0625 41.71875 63.234375 
Q 38.140625 66.40625 31.78125 66.40625 
Q 25.390625 66.40625 21.84375 63.234375 
Q 18.3125 60.0625 18.3125 54.390625 
z
" id="DejaVuSans-56"/>
       </defs>
       <use xlink:href="#DejaVuSans-49"/>
       <use x="63.623047" xlink:href="#DejaVuSans-51"/>
       <use x="127.246094" xlink:href="#DejaVuSans-58"/>
       <use x="160.9375" xlink:href="#DejaVuSans-48"/>
       <use x="224.560547" xlink:href="#DejaVuSans-56"/>
       <use x="288.183594" xlink:href="#DejaVuSans-58"/>
       <use x="321.875" xlink:href="#DejaVuSans-51"/>
       <use x="385.498047" xlink:href="#DejaVuSans-48"/>
      </g>
     </g>
    </g>
    <g id="xtick_7">
     <g id="line2d_7">
      <g>
       <use style="stroke:#000000;stroke-width:0.8;" x="277.556259" xlink:href="#m4d0a6e4284" y="448.56"/>
      </g>
     </g>
     <g id="text_7">
      <!-- 13:10:17 -->
      <g transform="translate(280.315634 500.4725)rotate(-90)scale(0.1 -0.1)">
       <use xlink:href="#DejaVuSans-49"/>
       <use x="63.623047" xlink:href="#DejaVuSans-51"/>
       <use x="127.246094" xlink:href="#DejaVuSans-58"/>
       <use x="160.9375" xlink:href="#DejaVuSans-49"/>
       <use x="224.560547" xlink:href="#DejaVuSans-48"/>
       <use x="288.183594" xlink:href="#DejaVuSans-58"/>
       <use x="321.875" xlink:href="#DejaVuSans-49"/>
       <use x="385.498047" xlink:href="#DejaVuSans-55"/>
      </g>
     </g>
    </g>
    <g id="xtick_8">
     <g id="line2d_8">
      <g>
       <use style="stroke:#000000;stroke-width:0.8;" x="301.757454" xlink:href="#m4d0a6e4284" y="448.56"/>
      </g>
     </g>
     <g id="text_8">
      <!-- 13:12:05 -->
      <g transform="translate(304.516829 500.4725)rotate(-90)scale(0.1 -0.1)">
       <use xlink:href="#DejaVuSans-49"/>
       <use x="63.623047" xlink:href="#DejaVuSans-51"/>
       <use x="127.246094" xlink:href="#DejaVuSans-58"/>
       <use x="160.9375" xlink:href="#DejaVuSans-49"/>
       <use x="224.560547" xlink:href="#DejaVuSans-50"/>
       <use x="288.183594" xlink:href="#DejaVuSans-58"/>
       <use x="321.875" xlink:href="#DejaVuSans-48"/>
       <use x="385.498047" xlink:href="#DejaVuSans-53"/>
      </g>
     </g>
    </g>
    <g id="xtick_9">
     <g id="line2d_9">
      <g>
       <use style="stroke:#000000;stroke-width:0.8;" x="325.958649" xlink:href="#m4d0a6e4284" y="448.56"/>
      </g>
     </g>
     <g id="text_9">
      <!-- 13:13:53 -->
      <g transform="translate(328.718024 500.4725)rotate(-90)scale(0.1 -0.1)">
       <use xlink:href="#DejaVuSans-49"/>
       <use x="63.623047" xlink:href="#DejaVuSans-51"/>
       <use x="127.246094" xlink:href="#DejaVuSans-58"/>
       <use x="160.9375" xlink:href="#DejaVuSans-49"/>
       <use x="224.560547" xlink:href="#DejaVuSans-51"/>
       <use x="288.183594" xlink:href="#DejaVuSans-58"/>
       <use x="321.875" xlink:href="#DejaVuSans-53"/>
       <use x="385.498047" xlink:href="#DejaVuSans-51"/>
      </g>
     </g>
    </g>
    <g id="xtick_10">
     <g id="line2d_10">
      <g>
       <use style="stroke:#000000;stroke-width:0.8;" x="350.159843" xlink:href="#m4d0a6e4284" y="448.56"/>
      </g>
     </g>
     <g id="text_10">
      <!-- 13:15:41 -->
      <g transform="translate(352.919218 500.4725)rotate(-90)scale(0.1 -0.1)">
       <use xlink:href="#DejaVuSans-49"/>
       <use x="63.623047" xlink:href="#DejaVuSans-51"/>
       <use x="127.246094" xlink:href="#DejaVuSans-58"/>
       <use x="160.9375" xlink:href="#DejaVuSans-49"/>
       <use x="224.560547" xlink:href="#DejaVuSans-53"/>
       <use x="288.183594" xlink:href="#DejaVuSans-58"/>
       <use x="321.875" xlink:href="#DejaVuSans-52"/>
       <use x="385.498047" xlink:href="#DejaVuSans-49"/>
      </g>
     </g>
    </g>
    <g id="xtick_11">
     <g id="line2d_11">
      <g>
       <use style="stroke:#000000;stroke-width:0.8;" x="374.361038" xlink:href="#m4d0a6e4284" y="448.56"/>
      </g>
     </g>
     <g id="text_11">
      <!-- 13:17:28 -->
      <g transform="translate(377.120413 500.4725)rotate(-90)scale(0.1 -0.1)">
       <use xlink:href="#DejaVuSans-49"/>
       <use x="63.623047" xlink:href="#DejaVuSans-51"/>
       <use x="127.246094" xlink:href="#DejaVuSans-58"/>
       <use x="160.9375" xlink:href="#DejaVuSans-49"/>
       <use x="224.560547" xlink:href="#DejaVuSans-55"/>
       <use x="288.183594" xlink:href="#DejaVuSans-58"/>
       <use x="321.875" xlink:href="#DejaVuSans-50"/>
       <use x="385.498047" xlink:href="#DejaVuSans-56"/>
      </g>
     </g>
    </g>
    <g id="xtick_12">
     <g id="line2d_12">
      <g>
       <use style="stroke:#000000;stroke-width:0.8;" x="398.562233" xlink:href="#m4d0a6e4284" y="448.56"/>
      </g>
     </g>
     <g id="text_12">
      <!-- 13:19:16 -->
      <g transform="translate(401.321608 500.4725)rotate(-90)scale(0.1 -0.1)">
       <use xlink:href="#DejaVuSans-49"/>
       <use x="63.623047" xlink:href="#DejaVuSans-51"/>
       <use x="127.246094" xlink:href="#DejaVuSans-58"/>
       <use x="160.9375" xlink:href="#DejaVuSans-49"/>
       <use x="224.560547" xlink:href="#DejaVuSans-57"/>
       <use x="288.183594" xlink:href="#DejaVuSans-58"/>
       <use x="321.875" xlink:href="#DejaVuSans-49"/>
       <use x="385.498047" xlink:href="#DejaVuSans-54"/>
      </g>
     </g>
    </g>
    <g id="xtick_13">
     <g id="line2d_13">
      <g>
       <use style="stroke:#000000;stroke-width:0.8;" x="422.763428" xlink:href="#m4d0a6e4284" y="448.56"/>
      </g>
     </g>
     <g id="text_13">
      <!-- 13:21:04 -->
      <g transform="translate(425.522803 500.4725)rotate(-90)scale(0.1 -0.1)">
       <use xlink:href="#DejaVuSans-49"/>
       <use x="63.623047" xlink:href="#DejaVuSans-51"/>
       <use x="127.246094" xlink:href="#DejaVuSans-58"/>
       <use x="160.9375" xlink:href="#DejaVuSans-50"/>
       <use x="224.560547" xlink:href="#DejaVuSans-49"/>
       <use x="288.183594" xlink:href="#DejaVuSans-58"/>
       <use x="321.875" xlink:href="#DejaVuSans-48"/>
       <use x="385.498047" xlink:href="#DejaVuSans-52"/>
      </g>
     </g>
    </g>
    <g id="xtick_14">
     <g id="line2d_14">
      <g>
       <use style="stroke:#000000;stroke-width:0.8;" x="446.964622" xlink:href="#m4d0a6e4284" y="448.56"/>
      </g>
     </g>
     <g id="text_14">
      <!-- 13:22:51 -->
      <g transform="translate(449.723997 500.4725)rotate(-90)scale(0.1 -0.1)">
       <use xlink:href="#DejaVuSans-49"/>
       <use x="63.623047" xlink:href="#DejaVuSans-51"/>
       <use x="127.246094" xlink:href="#DejaVuSans-58"/>
       <use x="160.9375" xlink:href="#DejaVuSans-50"/>
       <use x="224.560547" xlink:href="#DejaVuSans-50"/>
       <use x="288.183594" xlink:href="#DejaVuSans-58"/>
       <use x="321.875" xlink:href="#DejaVuSans-53"/>
       <use x="385.498047" xlink:href="#DejaVuSans-49"/>
      </g>
     </g>
    </g>
    <g id="xtick_15">
     <g id="line2d_15">
      <g>
       <use style="stroke:#000000;stroke-width:0.8;" x="471.165817" xlink:href="#m4d0a6e4284" y="448.56"/>
      </g>
     </g>
     <g id="text_15">
      <!-- 13:24:39 -->
      <g transform="translate(473.925192 500.4725)rotate(-90)scale(0.1 -0.1)">
       <use xlink:href="#DejaVuSans-49"/>
       <use x="63.623047" xlink:href="#DejaVuSans-51"/>
       <use x="127.246094" xlink:href="#DejaVuSans-58"/>
       <use x="160.9375" xlink:href="#DejaVuSans-50"/>
       <use x="224.560547" xlink:href="#DejaVuSans-52"/>
       <use x="288.183594" xlink:href="#DejaVuSans-58"/>
       <use x="321.875" xlink:href="#DejaVuSans-51"/>
       <use x="385.498047" xlink:href="#DejaVuSans-57"/>
      </g>
     </g>
    </g>
    <g id="xtick_16">
     <g id="line2d_16">
      <g>
       <use style="stroke:#000000;stroke-width:0.8;" x="495.367012" xlink:href="#m4d0a6e4284" y="448.56"/>
      </g>
     </g>
     <g id="text_16">
      <!-- 13:26:27 -->
      <g transform="translate(498.126387 500.4725)rotate(-90)scale(0.1 -0.1)">
       <use xlink:href="#DejaVuSans-49"/>
       <use x="63.623047" xlink:href="#DejaVuSans-51"/>
       <use x="127.246094" xlink:href="#DejaVuSans-58"/>
       <use x="160.9375" xlink:href="#DejaVuSans-50"/>
       <use x="224.560547" xlink:href="#DejaVuSans-54"/>
       <use x="288.183594" xlink:href="#DejaVuSans-58"/>
       <use x="321.875" xlink:href="#DejaVuSans-50"/>
       <use x="385.498047" xlink:href="#DejaVuSans-55"/>
      </g>
     </g>
    </g>
    <g id="xtick_17">
     <g id="line2d_17">
      <g>
       <use style="stroke:#000000;stroke-width:0.8;" x="519.568206" xlink:href="#m4d0a6e4284" y="448.56"/>
      </g>
     </g>
     <g id="text_17">
      <!-- 13:28:15 -->
      <g transform="translate(522.327581 500.4725)rotate(-90)scale(0.1 -0.1)">
       <use xlink:href="#DejaVuSans-49"/>
       <use x="63.623047" xlink:href="#DejaVuSans-51"/>
       <use x="127.246094" xlink:href="#DejaVuSans-58"/>
       <use x="160.9375" xlink:href="#DejaVuSans-50"/>
       <use x="224.560547" xlink:href="#DejaVuSans-56"/>
       <use x="288.183594" xlink:href="#DejaVuSans-58"/>
       <use x="321.875" xlink:href="#DejaVuSans-49"/>
       <use x="385.498047" xlink:href="#DejaVuSans-53"/>
      </g>
     </g>
    </g>
    <g id="xtick_18">
     <g id="line2d_18">
      <g>
       <use style="stroke:#000000;stroke-width:0.8;" x="543.769401" xlink:href="#m4d0a6e4284" y="448.56"/>
      </g>
     </g>
     <g id="text_18">
      <!-- 13:30:03 -->
      <g transform="translate(546.528776 500.4725)rotate(-90)scale(0.1 -0.1)">
       <use xlink:href="#DejaVuSans-49"/>
       <use x="63.623047" xlink:href="#DejaVuSans-51"/>
       <use x="127.246094" xlink:href="#DejaVuSans-58"/>
       <use x="160.9375" xlink:href="#DejaVuSans-51"/>
       <use x="224.560547" xlink:href="#DejaVuSans-48"/>
       <use x="288.183594" xlink:href="#DejaVuSans-58"/>
       <use x="321.875" xlink:href="#DejaVuSans-48"/>
       <use x="385.498047" xlink:href="#DejaVuSans-51"/>
      </g>
     </g>
    </g>
    <g id="xtick_19">
     <g id="line2d_19">
      <g>
       <use style="stroke:#000000;stroke-width:0.8;" x="567.970596" xlink:href="#m4d0a6e4284" y="448.56"/>
      </g>
     </g>
     <g id="text_19">
      <!-- 13:31:50 -->
      <g transform="translate(570.729971 500.4725)rotate(-90)scale(0.1 -0.1)">
       <use xlink:href="#DejaVuSans-49"/>
       <use x="63.623047" xlink:href="#DejaVuSans-51"/>
       <use x="127.246094" xlink:href="#DejaVuSans-58"/>
       <use x="160.9375" xlink:href="#DejaVuSans-51"/>
       <use x="224.560547" xlink:href="#DejaVuSans-49"/>
       <use x="288.183594" xlink:href="#DejaVuSans-58"/>
       <use x="321.875" xlink:href="#DejaVuSans-53"/>
       <use x="385.498047" xlink:href="#DejaVuSans-48"/>
      </g>
     </g>
    </g>
    <g id="xtick_20">
     <g id="line2d_20">
      <g>
       <use style="stroke:#000000;stroke-width:0.8;" x="592.171791" xlink:href="#m4d0a6e4284" y="448.56"/>
      </g>
     </g>
     <g id="text_20">
      <!-- 13:33:38 -->
      <g transform="translate(594.931166 500.4725)rotate(-90)scale(0.1 -0.1)">
       <use xlink:href="#DejaVuSans-49"/>
       <use x="63.623047" xlink:href="#DejaVuSans-51"/>
       <use x="127.246094" xlink:href="#DejaVuSans-58"/>
       <use x="160.9375" xlink:href="#DejaVuSans-51"/>
       <use x="224.560547" xlink:href="#DejaVuSans-51"/>
       <use x="288.183594" xlink:href="#DejaVuSans-58"/>
       <use x="321.875" xlink:href="#DejaVuSans-51"/>
       <use x="385.498047" xlink:href="#DejaVuSans-56"/>
      </g>
     </g>
    </g>
    <g id="xtick_21">
     <g id="line2d_21">
      <g>
       <use style="stroke:#000000;stroke-width:0.8;" x="616.372985" xlink:href="#m4d0a6e4284" y="448.56"/>
      </g>
     </g>
     <g id="text_21">
      <!-- 13:35:26 -->
      <g transform="translate(619.13236 500.4725)rotate(-90)scale(0.1 -0.1)">
       <use xlink:href="#DejaVuSans-49"/>
       <use x="63.623047" xlink:href="#DejaVuSans-51"/>
       <use x="127.246094" xlink:href="#DejaVuSans-58"/>
       <use x="160.9375" xlink:href="#DejaVuSans-51"/>
       <use x="224.560547" xlink:href="#DejaVuSans-53"/>
       <use x="288.183594" xlink:href="#DejaVuSans-58"/>
       <use x="321.875" xlink:href="#DejaVuSans-50"/>
       <use x="385.498047" xlink:href="#DejaVuSans-54"/>
      </g>
     </g>
    </g>
    <g id="text_22">
     <!-- timestamp -->
     <g transform="translate(354.264375 510.55125)scale(0.08 -0.08)">
      <defs>
       <path d="M 18.3125 70.21875 
L 18.3125 54.6875 
L 36.8125 54.6875 
L 36.8125 47.703125 
L 18.3125 47.703125 
L 18.3125 18.015625 
Q 18.3125 11.328125 20.140625 9.421875 
Q 21.96875 7.515625 27.59375 7.515625 
L 36.8125 7.515625 
L 36.8125 0 
L 27.59375 0 
Q 17.1875 0 13.234375 3.875 
Q 9.28125 7.765625 9.28125 18.015625 
L 9.28125 47.703125 
L 2.6875 47.703125 
L 2.6875 54.6875 
L 9.28125 54.6875 
L 9.28125 70.21875 
z
" id="DejaVuSans-116"/>
       <path d="M 9.421875 54.6875 
L 18.40625 54.6875 
L 18.40625 0 
L 9.421875 0 
z
M 9.421875 75.984375 
L 18.40625 75.984375 
L 18.40625 64.59375 
L 9.421875 64.59375 
z
" id="DejaVuSans-105"/>
       <path d="M 52 44.1875 
Q 55.375 50.25 60.0625 53.125 
Q 64.75 56 71.09375 56 
Q 79.640625 56 84.28125 50.015625 
Q 88.921875 44.046875 88.921875 33.015625 
L 88.921875 0 
L 79.890625 0 
L 79.890625 32.71875 
Q 79.890625 40.578125 77.09375 44.375 
Q 74.3125 48.1875 68.609375 48.1875 
Q 61.625 48.1875 57.5625 43.546875 
Q 53.515625 38.921875 53.515625 30.90625 
L 53.515625 0 
L 44.484375 0 
L 44.484375 32.71875 
Q 44.484375 40.625 41.703125 44.40625 
Q 38.921875 48.1875 33.109375 48.1875 
Q 26.21875 48.1875 22.15625 43.53125 
Q 18.109375 38.875 18.109375 30.90625 
L 18.109375 0 
L 9.078125 0 
L 9.078125 54.6875 
L 18.109375 54.6875 
L 18.109375 46.1875 
Q 21.1875 51.21875 25.484375 53.609375 
Q 29.78125 56 35.6875 56 
Q 41.65625 56 45.828125 52.96875 
Q 50 49.953125 52 44.1875 
z
" id="DejaVuSans-109"/>
       <path d="M 56.203125 29.59375 
L 56.203125 25.203125 
L 14.890625 25.203125 
Q 15.484375 15.921875 20.484375 11.0625 
Q 25.484375 6.203125 34.421875 6.203125 
Q 39.59375 6.203125 44.453125 7.46875 
Q 49.3125 8.734375 54.109375 11.28125 
L 54.109375 2.78125 
Q 49.265625 0.734375 44.1875 -0.34375 
Q 39.109375 -1.421875 33.890625 -1.421875 
Q 20.796875 -1.421875 13.15625 6.1875 
Q 5.515625 13.8125 5.515625 26.8125 
Q 5.515625 40.234375 12.765625 48.109375 
Q 20.015625 56 32.328125 56 
Q 43.359375 56 49.78125 48.890625 
Q 56.203125 41.796875 56.203125 29.59375 
z
M 47.21875 32.234375 
Q 47.125 39.59375 43.09375 43.984375 
Q 39.0625 48.390625 32.421875 48.390625 
Q 24.90625 48.390625 20.390625 44.140625 
Q 15.875 39.890625 15.1875 32.171875 
z
" id="DejaVuSans-101"/>
       <path d="M 44.28125 53.078125 
L 44.28125 44.578125 
Q 40.484375 46.53125 36.375 47.5 
Q 32.28125 48.484375 27.875 48.484375 
Q 21.1875 48.484375 17.84375 46.4375 
Q 14.5 44.390625 14.5 40.28125 
Q 14.5 37.15625 16.890625 35.375 
Q 19.28125 33.59375 26.515625 31.984375 
L 29.59375 31.296875 
Q 39.15625 29.25 43.1875 25.515625 
Q 47.21875 21.78125 47.21875 15.09375 
Q 47.21875 7.46875 41.1875 3.015625 
Q 35.15625 -1.421875 24.609375 -1.421875 
Q 20.21875 -1.421875 15.453125 -0.5625 
Q 10.6875 0.296875 5.421875 2 
L 5.421875 11.28125 
Q 10.40625 8.6875 15.234375 7.390625 
Q 20.0625 6.109375 24.8125 6.109375 
Q 31.15625 6.109375 34.5625 8.28125 
Q 37.984375 10.453125 37.984375 14.40625 
Q 37.984375 18.0625 35.515625 20.015625 
Q 33.0625 21.96875 24.703125 23.78125 
L 21.578125 24.515625 
Q 13.234375 26.265625 9.515625 29.90625 
Q 5.8125 33.546875 5.8125 39.890625 
Q 5.8125 47.609375 11.28125 51.796875 
Q 16.75 56 26.8125 56 
Q 31.78125 56 36.171875 55.265625 
Q 40.578125 54.546875 44.28125 53.078125 
z
" id="DejaVuSans-115"/>
       <path d="M 34.28125 27.484375 
Q 23.390625 27.484375 19.1875 25 
Q 14.984375 22.515625 14.984375 16.5 
Q 14.984375 11.71875 18.140625 8.90625 
Q 21.296875 6.109375 26.703125 6.109375 
Q 34.1875 6.109375 38.703125 11.40625 
Q 43.21875 16.703125 43.21875 25.484375 
L 43.21875 27.484375 
z
M 52.203125 31.203125 
L 52.203125 0 
L 43.21875 0 
L 43.21875 8.296875 
Q 40.140625 3.328125 35.546875 0.953125 
Q 30.953125 -1.421875 24.3125 -1.421875 
Q 15.921875 -1.421875 10.953125 3.296875 
Q 6 8.015625 6 15.921875 
Q 6 25.140625 12.171875 29.828125 
Q 18.359375 34.515625 30.609375 34.515625 
L 43.21875 34.515625 
L 43.21875 35.40625 
Q 43.21875 41.609375 39.140625 45 
Q 35.0625 48.390625 27.6875 48.390625 
Q 23 48.390625 18.546875 47.265625 
Q 14.109375 46.140625 10.015625 43.890625 
L 10.015625 52.203125 
Q 14.9375 54.109375 19.578125 55.046875 
Q 24.21875 56 28.609375 56 
Q 40.484375 56 46.34375 49.84375 
Q 52.203125 43.703125 52.203125 31.203125 
z
" id="DejaVuSans-97"/>
       <path d="M 18.109375 8.203125 
L 18.109375 -20.796875 
L 9.078125 -20.796875 
L 9.078125 54.6875 
L 18.109375 54.6875 
L 18.109375 46.390625 
Q 20.953125 51.265625 25.265625 53.625 
Q 29.59375 56 35.59375 56 
Q 45.5625 56 51.78125 48.09375 
Q 58.015625 40.1875 58.015625 27.296875 
Q 58.015625 14.40625 51.78125 6.484375 
Q 45.5625 -1.421875 35.59375 -1.421875 
Q 29.59375 -1.421875 25.265625 0.953125 
Q 20.953125 3.328125 18.109375 8.203125 
z
M 48.6875 27.296875 
Q 48.6875 37.203125 44.609375 42.84375 
Q 40.53125 48.484375 33.40625 48.484375 
Q 26.265625 48.484375 22.1875 42.84375 
Q 18.109375 37.203125 18.109375 27.296875 
Q 18.109375 17.390625 22.1875 11.75 
Q 26.265625 6.109375 33.40625 6.109375 
Q 40.53125 6.109375 44.609375 11.75 
Q 48.6875 17.390625 48.6875 27.296875 
z
" id="DejaVuSans-112"/>
      </defs>
      <use xlink:href="#DejaVuSans-116"/>
      <use x="39.208984" xlink:href="#DejaVuSans-105"/>
      <use x="66.992188" xlink:href="#DejaVuSans-109"/>
      <use x="164.404297" xlink:href="#DejaVuSans-101"/>
      <use x="225.927734" xlink:href="#DejaVuSans-115"/>
      <use x="278.027344" xlink:href="#DejaVuSans-116"/>
      <use x="317.236328" xlink:href="#DejaVuSans-97"/>
      <use x="378.515625" xlink:href="#DejaVuSans-109"/>
      <use x="475.927734" xlink:href="#DejaVuSans-112"/>
     </g>
    </g>
   </g>
   <g id="matplotlib.axis_2">
    <g id="ytick_1">
     <g id="line2d_22">
      <defs>
       <path d="M 0 0 
L -3.5 0 
" id="m6f56f3db1b" style="stroke:#000000;stroke-width:0.8;"/>
      </defs>
      <g>
       <use style="stroke:#000000;stroke-width:0.8;" x="108" xlink:href="#m6f56f3db1b" y="400.301206"/>
      </g>
     </g>
     <g id="text_23">
      <!-- 9750 -->
      <g transform="translate(75.55 404.100425)scale(0.1 -0.1)">
       <use xlink:href="#DejaVuSans-57"/>
       <use x="63.623047" xlink:href="#DejaVuSans-55"/>
       <use x="127.246094" xlink:href="#DejaVuSans-53"/>
       <use x="190.869141" xlink:href="#DejaVuSans-48"/>
      </g>
     </g>
    </g>
    <g id="ytick_2">
     <g id="line2d_23">
      <g>
       <use style="stroke:#000000;stroke-width:0.8;" x="108" xlink:href="#m6f56f3db1b" y="349.388001"/>
      </g>
     </g>
     <g id="text_24">
      <!-- 10000 -->
      <g transform="translate(69.1875 353.187219)scale(0.1 -0.1)">
       <use xlink:href="#DejaVuSans-49"/>
       <use x="63.623047" xlink:href="#DejaVuSans-48"/>
       <use x="127.246094" xlink:href="#DejaVuSans-48"/>
       <use x="190.869141" xlink:href="#DejaVuSans-48"/>
       <use x="254.492188" xlink:href="#DejaVuSans-48"/>
      </g>
     </g>
    </g>
    <g id="ytick_3">
     <g id="line2d_24">
      <g>
       <use style="stroke:#000000;stroke-width:0.8;" x="108" xlink:href="#m6f56f3db1b" y="298.474796"/>
      </g>
     </g>
     <g id="text_25">
      <!-- 10250 -->
      <g transform="translate(69.1875 302.274014)scale(0.1 -0.1)">
       <use xlink:href="#DejaVuSans-49"/>
       <use x="63.623047" xlink:href="#DejaVuSans-48"/>
       <use x="127.246094" xlink:href="#DejaVuSans-50"/>
       <use x="190.869141" xlink:href="#DejaVuSans-53"/>
       <use x="254.492188" xlink:href="#DejaVuSans-48"/>
      </g>
     </g>
    </g>
    <g id="ytick_4">
     <g id="line2d_25">
      <g>
       <use style="stroke:#000000;stroke-width:0.8;" x="108" xlink:href="#m6f56f3db1b" y="247.56159"/>
      </g>
     </g>
     <g id="text_26">
      <!-- 10500 -->
      <g transform="translate(69.1875 251.360809)scale(0.1 -0.1)">
       <use xlink:href="#DejaVuSans-49"/>
       <use x="63.623047" xlink:href="#DejaVuSans-48"/>
       <use x="127.246094" xlink:href="#DejaVuSans-53"/>
       <use x="190.869141" xlink:href="#DejaVuSans-48"/>
       <use x="254.492188" xlink:href="#DejaVuSans-48"/>
      </g>
     </g>
    </g>
    <g id="ytick_5">
     <g id="line2d_26">
      <g>
       <use style="stroke:#000000;stroke-width:0.8;" x="108" xlink:href="#m6f56f3db1b" y="196.648385"/>
      </g>
     </g>
     <g id="text_27">
      <!-- 10750 -->
      <g transform="translate(69.1875 200.447604)scale(0.1 -0.1)">
       <use xlink:href="#DejaVuSans-49"/>
       <use x="63.623047" xlink:href="#DejaVuSans-48"/>
       <use x="127.246094" xlink:href="#DejaVuSans-55"/>
       <use x="190.869141" xlink:href="#DejaVuSans-53"/>
       <use x="254.492188" xlink:href="#DejaVuSans-48"/>
      </g>
     </g>
    </g>
    <g id="ytick_6">
     <g id="line2d_27">
      <g>
       <use style="stroke:#000000;stroke-width:0.8;" x="108" xlink:href="#m6f56f3db1b" y="145.73518"/>
      </g>
     </g>
     <g id="text_28">
      <!-- 11000 -->
      <g transform="translate(69.1875 149.534399)scale(0.1 -0.1)">
       <use xlink:href="#DejaVuSans-49"/>
       <use x="63.623047" xlink:href="#DejaVuSans-49"/>
       <use x="127.246094" xlink:href="#DejaVuSans-48"/>
       <use x="190.869141" xlink:href="#DejaVuSans-48"/>
       <use x="254.492188" xlink:href="#DejaVuSans-48"/>
      </g>
     </g>
    </g>
    <g id="ytick_7">
     <g id="line2d_28">
      <g>
       <use style="stroke:#000000;stroke-width:0.8;" x="108" xlink:href="#m6f56f3db1b" y="94.821975"/>
      </g>
     </g>
     <g id="text_29">
      <!-- 11250 -->
      <g transform="translate(69.1875 98.621194)scale(0.1 -0.1)">
       <use xlink:href="#DejaVuSans-49"/>
       <use x="63.623047" xlink:href="#DejaVuSans-49"/>
       <use x="127.246094" xlink:href="#DejaVuSans-50"/>
       <use x="190.869141" xlink:href="#DejaVuSans-53"/>
       <use x="254.492188" xlink:href="#DejaVuSans-48"/>
      </g>
     </g>
    </g>
    <g id="text_30">
     <!-- MB -->
     <g transform="translate(63.52375 260.715625)rotate(-90)scale(0.08 -0.08)">
      <defs>
       <path d="M 9.8125 72.90625 
L 24.515625 72.90625 
L 43.109375 23.296875 
L 61.8125 72.90625 
L 76.515625 72.90625 
L 76.515625 0 
L 66.890625 0 
L 66.890625 64.015625 
L 48.09375 14.015625 
L 38.1875 14.015625 
L 19.390625 64.015625 
L 19.390625 0 
L 9.8125 0 
z
" id="DejaVuSans-77"/>
       <path d="M 19.671875 34.8125 
L 19.671875 8.109375 
L 35.5 8.109375 
Q 43.453125 8.109375 47.28125 11.40625 
Q 51.125 14.703125 51.125 21.484375 
Q 51.125 28.328125 47.28125 31.5625 
Q 43.453125 34.8125 35.5 34.8125 
z
M 19.671875 64.796875 
L 19.671875 42.828125 
L 34.28125 42.828125 
Q 41.5 42.828125 45.03125 45.53125 
Q 48.578125 48.25 48.578125 53.8125 
Q 48.578125 59.328125 45.03125 62.0625 
Q 41.5 64.796875 34.28125 64.796875 
z
M 9.8125 72.90625 
L 35.015625 72.90625 
Q 46.296875 72.90625 52.390625 68.21875 
Q 58.5 63.53125 58.5 54.890625 
Q 58.5 48.1875 55.375 44.234375 
Q 52.25 40.28125 46.1875 39.3125 
Q 53.46875 37.75 57.5 32.78125 
Q 61.53125 27.828125 61.53125 20.40625 
Q 61.53125 10.640625 54.890625 5.3125 
Q 48.25 0 35.984375 0 
L 9.8125 0 
z
" id="DejaVuSans-66"/>
      </defs>
      <use xlink:href="#DejaVuSans-77"/>
      <use x="86.279297" xlink:href="#DejaVuSans-66"/>
     </g>
    </g>
   </g>
   <g id="line2d_29">
    <path clip-path="url(#pe58fe568d1)" d="M 132.349091 82.631317 
L 132.617993 82.191427 
L 132.886895 80.270574 
L 133.4247 78.804273 
L 133.693602 78.947645 
L 133.962504 78.950904 
L 134.231406 78.753768 
L 134.500308 78.12 
L 134.76921 78.590031 
L 135.038113 78.573738 
L 135.307015 78.782279 
L 135.575917 81.615497 
L 135.844819 96.782744 
L 136.382623 133.181206 
L 136.651526 178.304154 
L 137.18933 223.436063 
L 138.264939 297.024787 
L 138.533841 324.038112 
L 139.071645 346.834194 
L 139.340547 368.034453 
L 139.609449 374.528534 
L 139.878351 375.39528 
L 140.147254 375.343145 
L 140.416156 374.935025 
L 140.685058 377.914873 
L 140.95396 378.45659 
L 141.491764 376.603349 
L 141.760667 377.453803 
L 142.029569 379.360808 
L 142.298471 379.778704 
L 142.567373 379.967694 
L 142.836275 379.500107 
L 143.105177 380.512668 
L 143.37408 380.818962 
L 143.642982 380.945227 
L 143.911884 380.286207 
L 144.180786 380.393735 
L 144.71859 379.006452 
L 144.987493 378.90544 
L 145.256395 379.205217 
L 145.525297 380.727726 
L 145.794199 380.910199 
L 146.063101 380.43691 
L 146.332003 379.289122 
L 146.600906 380.146093 
L 147.13871 380.672332 
L 147.407612 380.204745 
L 147.676514 380.517556 
L 147.945416 380.537107 
L 148.214319 380.439353 
L 148.483221 379.127015 
L 148.752123 378.854935 
L 149.021025 380.906126 
L 149.289927 380.874356 
L 149.558829 380.713063 
L 149.827732 380.019014 
L 150.096634 379.694799 
L 150.365536 380.124099 
L 150.634438 380.095588 
L 150.90334 378.968166 
L 151.441145 380.531405 
L 151.978949 380.462163 
L 152.516753 390.260307 
L 152.785655 389.490499 
L 153.32346 383.287235 
L 153.592362 383.69454 
L 153.861264 384.518112 
L 154.130166 382.457146 
L 154.399068 382.244532 
L 154.936873 381.220566 
L 155.205775 381.279218 
L 155.743579 379.930221 
L 156.012481 380.404325 
L 156.281383 381.755765 
L 156.550286 381.88203 
L 156.819188 381.297954 
L 157.08809 381.517084 
L 157.356992 382.584225 
L 157.625894 382.398494 
L 157.894796 382.362651 
L 158.163699 381.572478 
L 158.432601 382.611107 
L 158.701503 383.191925 
L 158.970405 383.189481 
L 159.239307 382.453073 
L 159.508209 382.19647 
L 159.777112 384.475752 
L 160.046014 384.547438 
L 160.314916 383.52673 
L 160.583818 383.644034 
L 160.85272 383.182964 
L 161.121622 383.032261 
L 161.390525 383.297824 
L 161.659427 382.171217 
L 161.928329 382.611107 
L 162.197231 382.292594 
L 162.735035 381.948828 
L 163.003938 381.65068 
L 163.27284 382.529646 
L 163.541742 382.642062 
L 163.810644 382.54268 
L 164.079546 381.983856 
L 164.348448 381.937424 
L 164.886253 382.044138 
L 165.155155 380.916716 
L 165.424057 380.726097 
L 165.692959 383.084396 
L 165.961861 383.288864 
L 166.499666 381.636017 
L 166.768568 382.844086 
L 167.03747 383.275015 
L 167.575274 382.288521 
L 167.844176 382.703973 
L 168.113079 384.330752 
L 168.381981 384.140133 
L 168.650883 384.22974 
L 168.919785 383.846058 
L 169.188687 382.871783 
L 169.457589 385.029688 
L 169.726492 384.369038 
L 169.995394 384.465977 
L 170.264296 385.662641 
L 170.533198 386.246717 
L 170.8021 386.210874 
L 171.339905 385.195054 
L 171.608807 386.451185 
L 171.877709 386.454443 
L 172.146611 386.742001 
L 172.415513 385.749804 
L 172.684415 387.152565 
L 173.491122 386.107419 
L 173.760024 386.258936 
L 174.028926 386.785175 
L 174.566731 386.478882 
L 175.373437 384.918086 
L 175.642339 384.426876 
L 175.911241 384.71199 
L 176.180144 385.269998 
L 176.449046 386.834867 
L 176.717948 386.498432 
L 176.98685 385.913541 
L 177.255752 386.715933 
L 178.062459 386.124526 
L 178.331361 385.513567 
L 178.600263 385.894805 
L 178.869165 386.579079 
L 179.138067 386.640989 
L 179.40697 386.211689 
L 179.944774 387.269869 
L 180.213676 387.352959 
L 180.482578 387.26824 
L 180.75148 386.323291 
L 181.020383 387.882457 
L 181.289285 387.85476 
L 181.558187 390.159295 
L 181.827089 389.01884 
L 182.095991 388.490157 
L 182.364893 388.855103 
L 182.633795 386.47155 
L 182.902698 385.899693 
L 183.1716 385.650422 
L 183.440502 386.691495 
L 183.709404 386.096014 
L 183.978306 386.483769 
L 184.247208 385.891547 
L 184.516111 386.110677 
L 184.785013 386.821833 
L 185.322817 385.959974 
L 185.591719 386.107419 
L 186.129524 387.096357 
L 186.398426 387.115908 
L 186.667328 386.276043 
L 186.93623 386.489471 
L 187.205132 386.427561 
L 187.742937 384.912384 
L 188.280741 386.825906 
L 188.818545 386.17829 
L 189.087447 385.590141 
L 189.35635 387.129756 
L 189.625252 387.143604 
L 189.894154 386.934249 
L 190.163056 386.206801 
L 190.431958 386.514724 
L 190.70086 387.198183 
L 190.969763 387.168043 
L 191.238665 386.173402 
L 191.776469 387.704057 
L 192.045371 387.502848 
L 192.314273 387.553354 
L 192.583176 387.462117 
L 192.852078 388.104846 
L 193.12098 388.021755 
L 193.389882 390.204914 
L 193.927686 388.168385 
L 194.196589 389.758507 
L 194.465491 387.530545 
L 194.734393 386.878856 
L 195.003295 386.846271 
L 195.272197 388.659596 
L 195.541099 388.240886 
L 196.078904 386.996974 
L 196.347806 389.873367 
L 196.616708 390.567416 
L 196.88561 390.667613 
L 197.154512 390.20247 
L 197.423414 387.998132 
L 197.692317 391.379583 
L 197.961219 391.589753 
L 198.499023 389.652607 
L 198.767925 389.661568 
L 199.036827 388.99766 
L 199.30573 388.940637 
L 199.574632 387.109391 
L 199.843534 387.622596 
L 200.112436 387.108576 
L 200.381338 387.02793 
L 200.65024 386.559528 
L 200.919143 386.914699 
L 201.188045 388.551253 
L 201.456947 388.389145 
L 201.725849 388.380184 
L 201.994751 387.647849 
L 202.263653 387.459674 
L 202.532556 388.618051 
L 202.801458 388.234369 
L 203.07036 387.60223 
L 203.339262 388.088553 
L 203.608164 388.989513 
L 203.877066 389.078306 
L 204.145969 388.85103 
L 204.414871 388.205043 
L 204.683773 389.283588 
L 205.221577 386.915513 
L 205.490479 386.916328 
L 205.759382 387.892232 
L 206.028284 387.673916 
L 206.297186 387.965547 
L 206.83499 387.166413 
L 207.103892 388.613163 
L 207.641697 388.576506 
L 207.910599 387.961474 
L 208.179501 387.664141 
L 208.448403 388.817631 
L 208.986208 388.674259 
L 209.25511 387.512623 
L 209.524012 388.398106 
L 209.792914 388.394033 
L 210.330718 387.036076 
L 210.599621 387.338296 
L 210.868523 388.666113 
L 211.137425 388.482825 
L 211.406327 387.820546 
L 211.675229 388.445353 
L 211.944131 387.851502 
L 212.213033 387.888974 
L 212.481936 387.71872 
L 212.750838 386.930991 
L 213.01974 388.521927 
L 213.557544 388.754905 
L 213.826446 388.343527 
L 214.095349 389.012323 
L 214.364251 388.969963 
L 214.633153 388.67263 
L 214.902055 388.668557 
L 215.170957 388.140689 
L 215.439859 389.268111 
L 215.977664 388.786675 
L 216.246566 388.159425 
L 216.515468 388.416842 
L 216.78437 389.051424 
L 217.053272 388.772827 
L 217.322175 387.860462 
L 217.859979 389.804125 
L 218.128881 389.839968 
L 218.666685 388.530073 
L 218.935588 388.350858 
L 219.20449 388.754905 
L 219.742294 387.910968 
L 220.011196 389.01884 
L 220.280098 389.238785 
L 220.817903 387.748046 
L 221.086805 387.691023 
L 221.355707 388.877912 
L 221.893511 389.000103 
L 222.162414 388.36715 
L 222.431316 388.660411 
L 222.700218 389.59477 
L 222.96912 389.862777 
L 223.238022 388.269397 
L 223.506924 388.521112 
L 223.775827 389.348757 
L 224.313631 389.28929 
L 224.582533 388.846142 
L 224.851435 390.397976 
L 225.120337 388.596056 
L 225.389239 388.278358 
L 225.658142 387.757821 
L 225.927044 388.728838 
L 226.195946 388.946339 
L 226.464848 388.68159 
L 226.73375 388.675074 
L 227.002652 387.638888 
L 227.271555 392.151834 
L 227.809359 392.130655 
L 228.078261 389.004991 
L 228.347163 389.365864 
L 228.616065 390.362948 
L 228.884968 390.364577 
L 229.15387 389.126368 
L 229.422772 389.15488 
L 229.691674 390.107975 
L 229.960576 390.099014 
L 230.229478 389.921429 
L 230.498381 389.374825 
L 231.036185 389.45873 
L 231.305087 389.307212 
L 231.573989 388.872209 
L 231.842891 389.576034 
L 232.380696 389.172801 
L 232.649598 388.701956 
L 232.9185 388.701141 
L 233.187402 389.44814 
L 233.456304 389.237155 
L 233.725207 389.284403 
L 233.994109 388.360634 
L 234.263011 389.879069 
L 234.531913 390.446853 
L 234.800815 390.206543 
L 235.069717 389.78213 
L 235.33862 389.706371 
L 235.607522 390.410196 
L 235.876424 389.986598 
L 236.145326 389.932833 
L 236.414228 389.489685 
L 236.68313 390.911996 
L 237.220935 389.673787 
L 238.027641 389.890474 
L 238.296543 390.041177 
L 238.565446 389.822861 
L 238.834348 389.058755 
L 239.10325 390.231796 
L 239.372152 390.713231 
L 239.909956 389.503533 
L 240.178858 390.261936 
L 240.447761 390.487584 
L 240.985565 389.756063 
L 241.523369 390.803653 
L 242.330076 389.94994 
L 242.598978 391.035002 
L 243.136782 389.769911 
L 243.405684 389.272998 
L 243.674587 389.988227 
L 243.943489 391.215846 
L 244.212391 391.210958 
L 244.750195 390.037104 
L 245.019097 390.371094 
L 245.825804 388.927603 
L 246.363608 390.635843 
L 246.63251 390.8509 
L 246.901413 390.345027 
L 247.170315 390.595927 
L 247.708119 390.687163 
L 247.977021 390.314071 
L 248.245923 389.095413 
L 248.514826 391.057812 
L 248.783728 391.009749 
L 249.05263 390.617107 
L 249.321532 389.794349 
L 249.590434 389.777243 
L 249.859336 390.857417 
L 250.128239 391.121351 
L 250.397141 391.026042 
L 250.666043 390.355617 
L 250.934945 390.486769 
L 251.203847 390.752332 
L 251.741652 388.816001 
L 252.279456 390.792248 
L 252.548358 390.586966 
L 252.81726 390.051767 
L 253.086162 390.832164 
L 253.355065 390.81017 
L 253.623967 390.205728 
L 253.892869 390.21306 
L 254.161771 389.565444 
L 254.430673 390.08598 
L 254.699575 391.14416 
L 254.968477 390.996716 
L 255.23738 390.656208 
L 255.506282 390.828906 
L 255.775184 392.197453 
L 256.044086 392.288689 
L 256.312988 392.224335 
L 256.58189 391.200369 
L 256.850793 391.763265 
L 257.119695 391.799922 
L 257.388597 390.93562 
L 257.657499 390.47455 
L 257.926401 389.769911 
L 258.195303 391.026856 
L 258.733108 390.402049 
L 259.00201 390.58941 
L 259.270912 391.431718 
L 259.539814 391.367364 
L 259.808716 391.43742 
L 260.077619 390.947024 
L 260.346521 391.157194 
L 260.615423 392.091553 
L 260.884325 394.302408 
L 261.153227 393.671085 
L 261.422129 394.628253 
L 261.691032 392.861361 
L 261.959934 392.788046 
L 262.228836 391.125424 
L 262.76664 391.159638 
L 263.035542 391.389358 
L 263.304445 391.122166 
L 263.573347 390.594298 
L 263.842249 393.845411 
L 264.111151 394.005075 
L 264.380053 393.974935 
L 264.648955 391.554724 
L 264.917858 391.474893 
L 265.18676 392.447538 
L 265.455662 392.616163 
L 265.724564 392.281358 
L 265.993466 391.373881 
L 266.262368 392.524112 
L 266.531271 392.589281 
L 266.800173 395.577275 
L 267.069075 395.11702 
L 267.337977 395.503145 
L 267.606879 395.156121 
L 267.875781 394.210357 
L 268.144683 393.676787 
L 268.413586 393.674343 
L 268.682488 395.835507 
L 268.95139 395.767894 
L 269.220292 395.934889 
L 269.489194 395.456712 
L 269.758096 394.478364 
L 270.026999 395.939777 
L 270.295901 396.127952 
L 270.564803 396.067671 
L 270.833705 395.016008 
L 271.102607 396.022867 
L 271.371509 396.018794 
L 271.909314 395.262835 
L 272.447118 396.180902 
L 272.71602 396.085592 
L 272.984922 395.298678 
L 273.253825 395.832248 
L 274.060531 395.92267 
L 274.329433 395.323931 
L 274.867238 395.60823 
L 275.13614 395.338594 
L 275.405042 394.556567 
L 275.673944 395.228621 
L 275.942846 397.040317 
L 276.211748 396.681888 
L 276.749553 395.476263 
L 277.018455 395.716573 
L 277.825161 395.049407 
L 278.094064 395.319858 
L 278.362966 396.023682 
L 278.631868 396.083963 
L 279.438574 395.143902 
L 279.707477 394.472662 
L 279.976379 394.455555 
L 280.245281 393.857631 
L 280.514183 395.543061 
L 280.783085 395.83958 
L 281.051987 395.776855 
L 281.32089 395.143087 
L 281.589792 395.031485 
L 281.858694 395.940592 
L 282.396498 396.078261 
L 282.6654 395.037188 
L 282.934302 396.30961 
L 283.472107 396.214301 
L 283.741009 395.486853 
L 284.009911 395.838765 
L 284.278813 395.978064 
L 284.816618 394.360246 
L 285.08552 394.522353 
L 285.354422 396.225706 
L 285.623324 396.290874 
L 285.892226 396.089665 
L 286.161128 396.066856 
L 286.430031 394.348027 
L 286.698933 395.836321 
L 286.967835 395.865647 
L 287.236737 394.659208 
L 287.505639 394.826203 
L 287.774541 396.162166 
L 288.043444 396.062783 
L 288.581248 395.171599 
L 288.85015 396.382925 
L 289.387954 395.240026 
L 289.656857 395.161823 
L 289.925759 395.234324 
L 290.194661 396.171127 
L 290.463563 396.07989 
L 290.732465 396.167053 
L 291.001367 395.138199 
L 291.27027 396.734023 
L 291.539172 396.892872 
L 291.808074 396.568657 
L 292.345878 394.465331 
L 292.61478 395.67177 
L 292.883683 396.044047 
L 293.152585 395.278313 
L 293.421487 395.462415 
L 293.690389 396.293318 
L 293.959291 396.053823 
L 294.228193 396.112475 
L 294.765998 399.302492 
L 295.0349 399.524881 
L 295.303802 398.978277 
L 295.572704 396.251773 
L 295.841606 396.464387 
L 296.110509 397.49487 
L 296.648313 396.843995 
L 296.917215 395.73531 
L 297.186117 397.171469 
L 297.455019 397.008547 
L 297.723921 395.806995 
L 297.992824 395.262835 
L 298.261726 395.914524 
L 298.530628 396.946636 
L 298.79953 396.701439 
L 299.068432 396.018794 
L 299.337334 396.668854 
L 299.606237 396.902647 
L 299.875139 396.839108 
L 300.412943 395.454269 
L 300.681845 396.993884 
L 300.950747 396.584949 
L 301.21965 396.496971 
L 301.488552 395.78663 
L 301.757454 396.031828 
L 302.026356 397.199166 
L 302.295258 396.828518 
L 302.56416 396.758461 
L 302.833063 396.235481 
L 303.101965 396.735652 
L 303.639769 396.635455 
L 303.908671 396.299021 
L 304.446476 397.610545 
L 304.715378 397.362903 
L 304.98428 396.904277 
L 305.253182 396.19638 
L 305.522084 397.400375 
L 306.059889 397.336835 
L 306.328791 396.452982 
L 306.866595 397.560039 
L 307.135497 397.579589 
L 307.404399 396.815484 
L 307.942204 397.688747 
L 308.211106 397.696079 
L 308.480008 397.90299 
L 308.74891 397.476134 
L 309.017812 397.864703 
L 309.286715 397.863074 
L 310.093421 395.930002 
L 310.362323 397.413409 
L 310.631225 396.635455 
L 310.900128 396.771495 
L 311.16903 396.277026 
L 311.437932 398.064283 
L 311.706834 397.771023 
L 311.975736 397.861445 
L 312.244638 396.967002 
L 312.51354 397.171469 
L 312.782443 397.942091 
L 313.051345 397.906249 
L 313.320247 397.373493 
L 313.858051 398.722489 
L 314.395856 398.152261 
L 314.664758 397.414223 
L 315.202562 398.487066 
L 315.740366 397.296105 
L 316.278171 400.700365 
L 316.815975 400.849439 
L 317.084877 397.942906 
L 317.353779 398.432487 
L 317.622682 398.395015 
L 317.891584 397.955125 
L 318.160486 397.153548 
L 318.429388 397.55841 
L 318.69829 398.502544 
L 318.967192 398.328217 
L 319.236095 397.762062 
L 319.504997 397.714815 
L 319.773899 399.266649 
L 320.042801 398.754259 
L 320.311703 398.7844 
L 320.849508 397.897288 
L 321.11841 398.077317 
L 321.387312 397.679787 
L 321.656214 397.763692 
L 321.925116 397.627652 
L 322.194018 398.474847 
L 322.462921 398.576674 
L 322.731823 398.523724 
L 323.000725 398.128637 
L 323.269627 398.660579 
L 323.538529 398.620663 
L 324.076334 397.400375 
L 324.614138 399.855613 
L 324.88304 399.399431 
L 325.151942 399.520808 
L 325.420844 398.838164 
L 325.689746 398.948951 
L 325.958649 398.77218 
L 326.227551 398.818613 
L 326.496453 398.182402 
L 326.765355 398.285857 
L 327.034257 399.420611 
L 327.303159 399.542803 
L 327.572062 398.704568 
L 327.840964 398.722489 
L 328.109866 399.323672 
L 328.378768 401.967086 
L 328.64767 401.914136 
L 329.185475 400.95208 
L 329.454377 400.844551 
L 329.723279 400.923569 
L 329.992181 400.028311 
L 330.529985 399.585162 
L 330.798888 398.490325 
L 331.06779 398.232908 
L 331.605594 402.365431 
L 331.874496 402.359728 
L 332.143398 400.452723 
L 332.412301 399.758675 
L 332.681203 399.918338 
L 333.219007 399.099654 
L 333.487909 398.202767 
L 333.756811 398.736337 
L 334.025714 399.841765 
L 334.294616 399.903675 
L 334.563518 399.648702 
L 334.83242 398.744484 
L 335.370224 399.150975 
L 335.639127 399.104542 
L 335.908029 397.885883 
L 336.445833 399.57946 
L 336.714735 399.612859 
L 336.983637 399.134682 
L 337.25254 399.215329 
L 337.521442 400.556994 
L 337.790344 400.56514 
L 338.059246 399.689433 
L 338.328148 399.214514 
L 338.59705 399.354627 
L 338.865953 400.186346 
L 339.134855 400.161907 
L 339.403757 399.562353 
L 339.672659 399.784742 
L 340.210463 399.721203 
L 340.479365 399.117576 
L 340.748268 398.161222 
L 341.01717 399.825473 
L 341.286072 399.556651 
L 341.554974 399.70654 
L 341.823876 398.707011 
L 342.092778 398.988867 
L 342.361681 400.027496 
L 342.630583 399.562353 
L 342.899485 399.574572 
L 343.168387 399.126536 
L 343.437289 400.647416 
L 344.243996 399.405133 
L 344.512898 399.809995 
L 344.7818 400.012833 
L 345.050702 399.886569 
L 345.319604 399.450752 
L 345.857409 400.855141 
L 346.395213 400.593651 
L 346.664115 400.263734 
L 346.933017 400.449465 
L 347.470822 398.852012 
L 347.739724 398.628809 
L 348.277528 399.239767 
L 348.815333 399.447493 
L 349.084235 398.381167 
L 349.353137 399.74727 
L 349.890941 400.189604 
L 350.159843 399.537915 
L 350.697648 401.253486 
L 350.96655 401.094637 
L 351.504354 400.024238 
L 351.773256 400.219745 
L 352.311061 400.043789 
L 352.579963 399.142829 
L 352.848865 399.564797 
L 353.117767 402.843608 
L 353.386669 403.05785 
L 353.655572 402.541387 
L 353.924474 402.680685 
L 354.193376 403.578387 
L 354.462278 403.649258 
L 354.73118 407.148014 
L 355.000082 406.479218 
L 355.268984 407.020934 
L 355.537887 408.575213 
L 355.806789 408.321054 
L 356.075691 407.063294 
L 356.344593 407.420094 
L 356.613495 407.150457 
L 356.882397 407.373661 
L 357.1513 407.015232 
L 357.420202 406.295116 
L 357.689104 407.838804 
L 358.226908 406.614443 
L 358.49581 406.038513 
L 359.033615 407.372032 
L 359.571419 406.269048 
L 359.840321 406.524021 
L 360.109223 408.592319 
L 360.91593 406.916664 
L 361.184832 407.622932 
L 361.453734 407.829843 
L 361.722636 407.528437 
L 361.991539 409.745809 
L 362.260441 410.006485 
L 362.529343 411.428796 
L 362.798245 411.538768 
L 363.067147 409.164991 
L 363.336049 408.057934 
L 363.604952 408.164648 
L 364.411658 406.313852 
L 364.68056 406.765961 
L 364.949462 408.351194 
L 365.218365 407.738607 
L 365.487267 407.746753 
L 365.756169 407.2922 
L 366.025071 408.485605 
L 366.293973 408.281138 
L 366.831778 406.664134 
L 367.638484 408.464425 
L 367.907386 407.660404 
L 368.176288 408.464425 
L 368.445191 407.908861 
L 368.714093 407.770377 
L 368.982995 406.146042 
L 369.251897 405.748511 
L 369.520799 407.873018 
L 369.789701 408.089704 
L 370.327506 407.077957 
L 370.596408 407.759787 
L 370.86531 408.085631 
L 371.403114 408.044086 
L 371.672016 407.437201 
L 371.940919 408.378077 
L 372.209821 408.56951 
L 372.478723 408.457909 
L 372.747625 407.792371 
L 373.016527 408.361784 
L 373.285429 407.963439 
L 373.554332 407.995209 
L 373.823234 406.573713 
L 374.092136 407.208295 
L 374.62994 406.922366 
L 374.898842 407.083659 
L 375.167745 406.472701 
L 375.436647 408.720213 
L 375.705549 408.184199 
L 375.974451 408.070154 
L 376.243353 407.684842 
L 376.512255 407.711725 
L 376.781158 408.020462 
L 377.05006 407.974029 
L 377.318962 408.072597 
L 377.587864 407.088547 
L 377.856766 408.794343 
L 378.125668 408.76909 
L 378.663473 407.346779 
L 378.932375 407.944703 
L 379.470179 407.93004 
L 380.007984 407.049446 
L 380.276886 409.171508 
L 380.545788 409.347464 
L 380.81469 409.364571 
L 381.083592 408.651786 
L 381.352494 407.586274 
L 381.621397 409.050131 
L 381.890299 408.305576 
L 382.159201 407.891754 
L 382.428103 407.91945 
L 382.697005 409.547044 
L 383.234809 409.222014 
L 383.503712 408.430212 
L 383.772614 409.788983 
L 384.041516 408.74791 
L 384.310418 408.775607 
L 384.57932 407.284868 
L 384.848222 407.975659 
L 385.117125 409.415891 
L 385.386027 409.129148 
L 385.654929 409.186171 
L 385.923831 408.640381 
L 386.192733 409.797129 
L 386.461635 409.997524 
L 386.730538 409.559263 
L 386.99944 408.7585 
L 387.268342 408.325941 
L 387.537244 409.248081 
L 387.806146 409.020805 
L 388.075048 408.565437 
L 388.343951 409.500611 
L 388.612853 409.267632 
L 389.150657 409.347464 
L 389.419559 408.741393 
L 389.688461 409.289627 
L 389.957364 408.710438 
L 390.226266 408.884765 
L 390.495168 408.441616 
L 390.76407 409.070496 
L 391.032972 409.195946 
L 391.301874 409.024063 
L 391.570777 409.130777 
L 391.839679 408.822854 
L 392.108581 409.552746 
L 392.377483 409.669235 
L 392.915287 408.160575 
L 393.18419 408.492937 
L 393.453092 409.771062 
L 393.721994 409.156845 
L 393.990896 408.887209 
L 394.259798 408.84159 
L 394.5287 409.496538 
L 394.797603 408.765017 
L 395.066505 408.793528 
L 395.335407 408.009058 
L 395.604309 408.908389 
L 395.873211 411.709837 
L 396.142113 412.057676 
L 396.411016 411.357925 
L 396.679918 409.537268 
L 396.94882 410.372245 
L 397.217722 410.447189 
L 397.755526 408.852995 
L 398.024428 410.377133 
L 398.293331 410.055361 
L 398.562233 410.237834 
L 398.831135 412.227115 
L 399.100037 412.586358 
L 399.368939 412.157873 
L 399.637841 409.819939 
L 399.906744 409.884293 
L 400.175646 409.318138 
L 400.444548 410.302188 
L 400.982352 409.257042 
L 401.251254 408.823669 
L 401.789059 410.113199 
L 402.057961 410.187328 
L 402.326863 409.473729 
L 402.595765 409.990192 
L 402.864667 410.928625 
L 403.13357 410.239463 
L 403.402472 410.26716 
L 403.671374 409.465583 
L 403.940276 410.319295 
L 404.209178 410.136008 
L 404.746983 409.374346 
L 405.015885 409.839489 
L 405.284787 411.510257 
L 405.553689 411.265874 
L 405.822591 410.566937 
L 406.091493 408.5076 
L 406.360396 410.134379 
L 406.629298 409.828085 
L 407.167102 408.53774 
L 407.436004 409.646426 
L 407.704906 410.123789 
L 407.973809 409.666792 
L 408.242711 409.453364 
L 408.780515 410.007299 
L 409.049417 409.81668 
L 409.318319 409.988563 
L 409.587222 408.935271 
L 409.856124 410.002412 
L 410.125026 410.432526 
L 410.393928 410.375503 
L 410.66283 409.539712 
L 410.931732 409.893254 
L 411.469537 409.050946 
L 411.738439 407.962625 
L 412.276243 409.13485 
L 412.545145 409.131592 
L 412.814047 408.052232 
L 413.08295 408.101923 
L 413.351852 409.249711 
L 413.620754 409.267632 
L 413.889656 409.16825 
L 414.158558 408.727545 
L 414.42746 409.052575 
L 414.696363 409.91036 
L 414.965265 409.428111 
L 415.234167 409.670865 
L 415.503069 408.84159 
L 415.771971 409.487577 
L 416.309776 409.367015 
L 416.578678 408.778051 
L 417.116482 410.599522 
L 417.385384 410.659803 
L 417.654286 410.279379 
L 417.923189 410.212581 
L 418.192091 409.171508 
L 418.729895 408.473386 
L 418.998797 407.897456 
L 419.536602 409.45092 
L 419.805504 409.132407 
L 420.074406 408.406588 
L 420.343308 415.143423 
L 420.61221 414.940585 
L 420.881112 415.0139 
L 421.150015 414.896596 
L 421.418917 414.00867 
L 421.687819 415.46438 
L 422.225623 415.531178 
L 422.494525 415.257469 
L 422.763428 415.708764 
L 423.03233 416.536409 
L 423.301232 416.433768 
L 423.570134 415.325082 
L 423.839036 415.214294 
L 424.107938 416.888321 
L 424.376841 416.784865 
L 425.183547 415.29657 
L 425.721351 415.452161 
L 425.990254 414.613111 
L 426.528058 416.334385 
L 426.79696 415.5491 
L 427.065862 415.584128 
L 427.334764 415.060333 
L 427.603666 415.824438 
L 428.141471 415.977585 
L 428.410373 414.9414 
L 428.679275 415.364998 
L 428.948177 416.372672 
L 429.217079 416.098962 
L 429.485982 418.272345 
L 429.754884 418.296784 
L 430.023786 419.033192 
L 430.292688 416.342531 
L 430.56159 416.302615 
L 430.830492 415.50674 
L 431.099395 416.222783 
L 431.368297 415.855394 
L 431.637199 415.689213 
L 431.906101 414.957692 
L 432.175003 414.781736 
L 432.443905 415.994692 
L 432.712808 416.222783 
L 432.98171 415.955591 
L 433.250612 415.876573 
L 433.519514 416.990962 
L 433.788416 416.283879 
L 434.057318 419.371256 
L 434.326221 418.632403 
L 434.864025 419.576538 
L 435.132927 419.703617 
L 435.401829 418.938697 
L 435.670731 419.745162 
L 435.939634 420.952416 
L 436.208536 420.198901 
L 436.477438 420.234744 
L 436.74634 419.286536 
L 437.015242 420.202159 
L 437.284144 419.469009 
L 437.821949 418.855607 
L 438.090851 418.936253 
L 438.359753 419.840472 
L 438.628655 419.851062 
L 438.897557 419.6971 
L 439.16646 419.086957 
L 439.435362 420.120698 
L 440.242068 419.459234 
L 440.51097 420.313761 
L 440.779872 420.27466 
L 441.317677 419.218924 
L 441.586579 419.339486 
L 441.855481 420.039237 
L 442.124383 420.1598 
L 442.393285 420.048198 
L 442.662188 419.057631 
L 442.93109 421.134889 
L 443.199992 420.892135 
L 443.468894 421.105563 
L 443.737796 420.462835 
L 444.006698 419.328081 
L 444.275601 420.1598 
L 444.544503 420.4832 
L 444.813405 420.361823 
L 445.082307 420.044939 
L 445.351209 420.11744 
L 445.620111 420.040866 
L 446.157916 419.121985 
L 446.426818 419.556173 
L 446.69572 420.909242 
L 446.964622 420.812303 
L 447.233524 419.454346 
L 447.502427 419.612381 
L 447.771329 420.711291 
L 448.309133 420.754466 
L 448.578035 419.987102 
L 448.846937 420.838371 
L 449.11584 421.001293 
L 449.384742 420.96545 
L 449.653644 420.243705 
L 449.922546 420.045754 
L 450.191448 421.312475 
L 450.46035 423.291165 
L 450.729253 423.593386 
L 450.998155 422.997905 
L 451.267057 424.399851 
L 451.535959 421.068091 
L 451.804861 419.831511 
L 452.073763 419.851877 
L 452.342666 420.268143 
L 452.611568 421.503908 
L 452.88047 421.388233 
L 453.418274 420.664859 
L 453.687176 424.939939 
L 454.224981 425.0214 
L 454.493883 423.858135 
L 454.762785 428.986113 
L 455.031687 428.001248 
L 455.300589 427.484784 
L 455.569491 427.313716 
L 455.838394 427.528773 
L 456.107296 427.595571 
L 456.6451 426.382615 
L 456.914002 426.481998 
L 457.182904 427.130428 
L 457.720709 427.081552 
L 457.989611 426.358991 
L 458.527415 427.857876 
L 458.796317 427.768269 
L 459.06522 427.092956 
L 459.334122 427.415542 
L 459.871926 427.602088 
L 460.140828 427.654223 
L 460.40973 427.248547 
L 460.678633 427.760937 
L 461.216437 426.832281 
L 461.485339 426.324778 
L 462.023143 427.681106 
L 462.292046 427.584167 
L 462.82985 426.645735 
L 463.098752 430.92 
L 463.367654 430.848314 
L 463.636556 430.463818 
L 463.905459 427.229811 
L 464.443263 428.7401 
L 464.712165 428.778387 
L 464.981067 426.633515 
L 465.249969 426.659583 
L 465.518872 427.825292 
L 465.787774 427.176047 
L 466.056676 429.912326 
L 466.325578 428.972264 
L 466.59448 430.417385 
L 466.863382 430.551796 
L 467.132285 426.838797 
L 467.670089 426.50888 
L 467.938991 426.854275 
L 468.207893 426.505621 
L 468.476795 426.503992 
L 468.745698 426.004636 
L 469.0146 427.290907 
L 469.283502 426.899079 
L 469.552404 426.859163 
L 469.821306 426.444526 
L 470.090208 426.599302 
L 470.35911 427.142647 
L 470.628013 427.221665 
L 470.896915 426.548796 
L 471.165817 426.95936 
L 471.434719 427.638746 
L 471.703621 427.78782 
L 471.972523 426.395649 
L 472.241426 426.26857 
L 472.510328 427.352817 
L 472.77923 427.172788 
L 473.048132 426.697055 
L 473.585936 424.860107 
L 473.854839 425.490616 
L 474.123741 425.619324 
L 474.392643 425.553341 
L 474.661545 425.054799 
L 474.930447 426.768741 
L 475.199349 426.788292 
L 475.468252 426.481183 
L 475.737154 425.40834 
L 476.274958 426.305227 
L 476.54386 426.125198 
L 476.812762 426.262053 
L 477.081665 425.936208 
L 477.350567 426.616409 
L 477.619469 426.311744 
L 478.157273 424.600246 
L 478.426175 425.110192 
L 478.695078 424.810415 
L 479.232882 423.885017 
L 479.501784 423.678106 
L 479.770686 425.169659 
L 480.039588 425.438481 
L 480.308491 425.452329 
L 480.577393 424.305356 
L 481.115197 426.169187 
L 481.384099 429.278558 
L 481.653001 428.804455 
L 481.921904 428.046866 
L 482.190806 428.98204 
L 482.459708 428.618723 
L 482.72861 428.755578 
L 482.997512 427.782117 
L 483.266414 428.296137 
L 483.535317 428.151136 
L 483.804219 428.339311 
L 484.073121 427.55647 
L 484.610925 428.888359 
L 484.879827 429.111563 
L 485.417632 427.944225 
L 485.686534 427.512481 
L 485.955436 427.697398 
L 486.224338 427.699842 
L 486.49324 427.072591 
L 487.031045 428.676561 
L 487.299947 428.611392 
L 487.568849 427.196412 
L 487.837751 426.719864 
L 488.106653 428.243187 
L 488.375555 428.159282 
L 488.644458 428.221193 
L 488.91336 427.750348 
L 489.182262 428.169058 
L 489.451164 428.171502 
L 489.988968 425.685308 
L 490.257871 425.559043 
L 490.526773 426.747561 
L 490.795675 426.629442 
L 491.064577 425.180249 
L 491.602381 425.33421 
L 492.140186 424.607577 
L 492.409088 423.741645 
L 492.67799 424.599431 
L 492.946892 426.316632 
L 493.215794 425.681235 
L 493.484697 425.698342 
L 493.753599 425.239716 
L 494.022501 426.099945 
L 494.291403 425.830309 
L 494.560305 425.365166 
L 494.829207 424.057715 
L 495.367012 425.596515 
L 495.635914 425.808314 
L 495.904816 425.283705 
L 496.173718 425.792837 
L 496.44262 424.710218 
L 496.711523 424.723252 
L 496.980425 427.448127 
L 497.249327 426.528431 
L 497.518229 427.699842 
L 497.787131 425.619324 
L 498.056033 425.462104 
L 498.324935 424.7371 
L 498.593838 424.427548 
L 498.86274 423.561616 
L 499.131642 423.467936 
L 499.400544 422.585712 
L 499.669446 422.92459 
L 499.938348 424.351789 
L 500.207251 424.298025 
L 500.476153 424.082153 
L 500.745055 423.508667 
L 501.013957 424.393334 
L 501.282859 424.348531 
L 501.551761 424.087041 
L 501.820664 423.557543 
L 502.089566 424.192125 
L 502.358468 423.851618 
L 502.62737 423.869539 
L 502.896272 423.64715 
L 503.165174 423.576279 
L 503.434077 424.335497 
L 503.971881 424.709404 
L 504.240783 423.898865 
L 504.509685 424.364823 
L 504.778587 423.995804 
L 505.04749 423.820663 
L 505.316392 422.830095 
L 505.585294 423.201558 
L 505.854196 424.521228 
L 506.392 423.722909 
L 506.660903 423.218665 
L 506.929805 424.18235 
L 507.198707 424.14162 
L 507.467609 424.258109 
L 507.736511 423.043524 
L 508.005413 423.8785 
L 508.274316 423.258581 
L 508.543218 423.037007 
L 508.81212 423.058187 
L 509.081022 422.134417 
L 509.618826 423.03945 
L 509.887729 422.657398 
L 510.156631 421.942984 
L 510.425533 422.738044 
L 510.694435 423.119282 
L 510.963337 422.933551 
L 511.232239 422.32748 
L 511.501142 421.38416 
L 511.770044 422.645993 
L 512.038946 422.710348 
L 512.307848 422.384503 
L 512.57675 421.819163 
L 512.845652 423.265912 
L 513.652359 421.23753 
L 513.921261 421.256266 
L 514.190163 421.985343 
L 514.459065 422.072507 
L 514.727967 421.211463 
L 514.99687 420.851405 
L 515.265772 423.070406 
L 515.534674 421.94054 
L 515.803576 421.802056 
L 516.072478 420.915759 
L 516.610283 421.359722 
L 516.879185 420.777275 
L 517.148087 419.819292 
L 517.416989 418.019001 
L 517.685891 419.134204 
L 517.954793 418.405127 
L 518.223696 418.642179 
L 518.492598 417.887849 
L 518.7615 417.704561 
L 519.030402 417.925321 
L 519.568206 416.686297 
L 520.374913 417.964422 
L 520.643815 418.088243 
L 520.912717 417.370571 
L 521.181619 418.651139 
L 521.450522 418.805916 
L 521.719424 418.426307 
L 521.988326 417.535122 
L 522.257228 417.353464 
L 522.52613 417.767286 
L 522.795032 417.702117 
L 523.063935 417.401526 
L 523.332837 417.642651 
L 523.601739 418.132232 
L 523.870641 417.777062 
L 524.139543 417.000737 
L 524.408445 416.771831 
L 524.94625 417.699674 
L 525.215152 417.582369 
L 525.484054 417.065091 
L 525.752956 417.277705 
L 526.021858 417.794168 
L 526.290761 417.582369 
L 526.559663 416.956748 
L 526.828565 415.357666 
L 527.097467 415.437498 
L 527.366369 415.281093 
L 527.635271 415.430981 
L 527.904173 414.664432 
L 528.173076 415.353593 
L 528.441978 416.551886 
L 528.71088 416.381632 
L 528.979782 416.408515 
L 529.248684 415.637892 
L 529.517586 416.51197 
L 529.786489 416.869585 
L 530.055391 416.767758 
L 530.324293 416.340902 
L 530.593195 418.678836 
L 530.862097 419.997692 
L 531.130999 419.855135 
L 531.399902 416.098962 
L 531.668804 415.879832 
L 531.937706 416.423178 
L 532.206608 415.510813 
L 532.47551 415.329969 
L 532.744412 414.64651 
L 533.013315 415.680252 
L 533.282217 415.87413 
L 533.551119 417.542454 
L 533.820021 417.453661 
L 534.088923 418.093945 
L 534.626728 415.922192 
L 534.89563 415.762528 
L 535.433434 414.771961 
L 535.702336 414.661988 
L 536.240141 413.198946 
L 536.777945 415.259098 
L 537.046847 414.944658 
L 537.315749 414.450189 
L 537.853554 415.448903 
L 538.122456 415.081513 
L 538.391358 415.158901 
L 538.66026 414.709235 
L 538.929162 416.062305 
L 539.198064 414.61637 
L 539.466967 414.336144 
L 539.735869 413.813163 
L 540.004771 415.079069 
L 540.273673 415.567021 
L 540.542575 415.565392 
L 541.080379 414.789882 
L 541.618184 415.11817 
L 541.887086 414.308447 
L 542.155988 417.128631 
L 542.693792 418.584341 
L 542.962695 418.084985 
L 543.231597 417.138406 
L 543.500499 417.341245 
L 543.769401 417.324138 
L 544.307205 416.78568 
L 544.576108 415.760084 
L 544.84501 417.16203 
L 545.113912 417.32984 
L 545.382814 417.313548 
L 545.651716 416.755539 
L 545.920618 415.760084 
L 546.189521 416.683039 
L 546.458423 416.631718 
L 546.727325 416.713179 
L 546.996227 415.922192 
L 547.265129 417.039024 
L 547.534031 416.888321 
L 547.802934 416.504639 
L 548.071836 415.916489 
L 548.340738 416.429695 
L 548.60964 416.396295 
L 548.878542 415.901826 
L 549.147444 415.788595 
L 549.416347 414.915332 
L 549.685249 416.037052 
L 549.954151 416.270845 
L 550.223053 416.108738 
L 550.491955 415.404914 
L 550.760857 415.150755 
L 551.02976 415.840731 
L 551.298662 415.483931 
L 551.567564 414.538167 
L 551.836466 414.530021 
L 552.105368 416.231744 
L 552.37427 416.301801 
L 552.643173 416.115255 
L 552.912075 415.123058 
L 553.449879 415.191485 
L 553.718781 415.005754 
L 553.987683 413.606252 
L 554.256586 414.39561 
L 554.525488 416.192643 
L 554.79439 416.139693 
L 555.332194 415.240362 
L 555.601096 415.395953 
L 555.869998 414.874602 
L 556.138901 414.714938 
L 556.407803 414.35488 
L 556.676705 414.606594 
L 556.945607 415.543397 
L 557.483411 415.855394 
L 557.752314 415.271317 
L 558.021216 415.775562 
L 558.290118 415.509998 
L 558.827922 413.810719 
L 559.365727 415.492077 
L 559.903531 414.783365 
L 560.441335 415.640336 
L 560.710237 415.285166 
L 560.97914 415.162159 
L 561.248042 414.666061 
L 561.516944 415.75764 
L 561.785846 415.869242 
L 562.054748 415.226514 
L 562.32365 414.177294 
L 562.592553 414.082799 
L 562.861455 412.578212 
L 563.130357 412.711809 
L 563.399259 411.352222 
L 563.668161 411.600679 
L 563.937063 412.877175 
L 564.205966 415.303902 
L 564.474868 415.302273 
L 564.74377 414.859124 
L 565.012672 413.121558 
L 565.550476 413.465324 
L 565.819379 417.135963 
L 566.088281 416.087558 
L 566.357183 416.66919 
L 566.626085 416.760427 
L 566.894987 417.170991 
L 567.163889 416.291211 
L 567.432792 416.248036 
L 567.701694 417.043911 
L 567.970596 416.489976 
L 568.239498 414.983759 
L 568.5084 415.409801 
L 568.777302 416.771831 
L 569.584009 415.448903 
L 569.852911 415.730758 
L 570.121813 415.206963 
L 570.390715 415.200446 
L 570.659617 414.30193 
L 570.92852 414.798028 
L 571.197422 415.896939 
L 571.466324 416.118513 
L 571.735226 415.708764 
L 572.004128 414.943029 
L 572.27303 415.881461 
L 572.541933 414.51047 
L 573.079737 413.671421 
L 573.348639 414.01926 
L 573.617541 414.625331 
L 573.886443 414.357323 
L 574.155346 413.718668 
L 574.424248 413.922321 
L 574.69315 414.808618 
L 574.962052 414.639994 
L 575.230954 414.813506 
L 575.499856 414.511285 
L 575.768759 413.945945 
L 576.037661 414.387464 
L 576.306563 414.423307 
L 576.575465 413.910916 
L 577.113269 414.784994 
L 577.651074 414.521875 
L 577.919976 413.593218 
L 578.188878 414.316593 
L 578.45778 414.636735 
L 578.726682 414.751595 
L 578.995585 413.680381 
L 579.264487 414.380947 
L 579.533389 414.735303 
L 579.802291 414.776848 
L 580.071193 414.178109 
L 580.340095 413.160659 
L 580.608998 414.27016 
L 581.146802 413.103637 
L 581.684606 411.173823 
L 581.953508 412.216525 
L 582.491313 411.490706 
L 583.029117 412.640937 
L 583.566921 412.513858 
L 583.835824 411.915933 
L 584.104726 413.363498 
L 584.373628 412.479644 
L 584.64253 412.130176 
L 584.911432 414.567493 
L 585.180334 415.070923 
L 585.449236 416.454947 
L 585.718139 415.720168 
L 585.987041 413.184283 
L 586.255943 411.978658 
L 586.524845 412.296357 
L 586.793747 412.192087 
L 587.600454 410.822725 
L 587.869356 411.603123 
L 588.138258 411.458936 
L 588.40716 411.682955 
L 588.676062 411.111912 
L 588.944965 411.99658 
L 589.482769 412.297986 
L 589.751671 410.641881 
L 590.558378 412.249924 
L 590.82728 411.064665 
L 591.096182 410.8325 
L 591.365084 411.260986 
L 591.633986 410.603595 
L 591.902888 410.606853 
L 592.171791 410.077356 
L 592.440693 411.573797 
L 592.709595 411.177081 
L 592.978497 411.181154 
L 593.247399 410.538426 
L 593.516301 410.82354 
L 593.785204 411.553431 
L 594.054106 411.331043 
L 594.323008 411.281351 
L 594.59191 410.292413 
L 594.860812 411.850765 
L 595.129714 411.931411 
L 595.398617 411.762786 
L 595.667519 411.322896 
L 595.936421 411.87113 
L 596.205323 415.232216 
L 596.743127 413.789539 
L 597.01203 414.429009 
L 597.280932 415.637892 
L 597.549834 415.624859 
L 597.818736 418.282121 
L 598.087638 417.630432 
L 598.35654 418.37743 
L 598.625442 417.52942 
L 599.163247 414.298671 
L 599.432149 414.493364 
L 599.701051 414.203362 
L 599.969953 413.730887 
L 600.507758 412.613241 
L 600.77666 413.380604 
L 601.045562 414.868899 
L 601.314464 414.759741 
L 601.583366 414.319851 
L 601.852268 412.785938 
L 602.121171 413.352908 
L 602.390073 413.528864 
L 602.658975 412.981445 
L 602.927877 412.868214 
L 603.465681 412.275992 
L 603.734584 411.421464 
L 604.003486 411.529808 
L 604.272388 412.861697 
L 604.810192 412.607538 
L 605.347997 410.852866 
L 605.616899 411.531437 
L 605.885801 411.395397 
L 606.154703 411.507813 
L 606.423605 411.024749 
L 606.692507 412.192087 
L 606.96141 412.086187 
L 607.768116 411.246323 
L 608.037018 412.092704 
L 608.30592 412.311834 
L 608.574823 412.157873 
L 608.843725 411.60801 
L 609.381529 412.136693 
L 609.650431 411.104581 
L 609.919333 413.960608 
L 610.72604 415.364183 
L 611.263844 414.096648 
L 611.532746 415.541768 
L 611.801649 415.567836 
L 612.070551 415.315306 
L 612.339453 414.758927 
L 612.608355 415.40247 
L 613.146159 415.043226 
L 613.415061 414.367099 
L 613.683964 415.140165 
L 613.952866 416.41829 
L 614.221768 416.184497 
L 614.49067 414.763 
L 614.759572 414.85668 
L 615.028474 415.337301 
L 615.297377 414.869714 
L 615.566279 414.815135 
L 615.835181 414.02985 
L 616.104083 416.213008 
L 616.372985 414.526763 
L 616.641887 414.321481 
L 616.91079 413.511757 
L 617.179692 413.706449 
L 617.448594 414.574825 
L 617.986398 413.735775 
L 618.2553 412.659674 
L 618.524203 413.700747 
L 619.330909 411.941186 
L 619.330909 411.941186 
" style="fill:none;stroke:#1f77b4;stroke-linecap:square;stroke-width:1.5;"/>
   </g>
   <g id="patch_3">
    <path d="M 108 448.56 
L 108 60.48 
" style="fill:none;stroke:#000000;stroke-linecap:square;stroke-linejoin:miter;stroke-width:0.8;"/>
   </g>
   <g id="patch_4">
    <path d="M 643.68 448.56 
L 643.68 60.48 
" style="fill:none;stroke:#000000;stroke-linecap:square;stroke-linejoin:miter;stroke-width:0.8;"/>
   </g>
   <g id="patch_5">
    <path d="M 108 448.56 
L 643.68 448.56 
" style="fill:none;stroke:#000000;stroke-linecap:square;stroke-linejoin:miter;stroke-width:0.8;"/>
   </g>
   <g id="patch_6">
    <path d="M 108 60.48 
L 643.68 60.48 
" style="fill:none;stroke:#000000;stroke-linecap:square;stroke-linejoin:miter;stroke-width:0.8;"/>
   </g>
   <g id="text_31">
    <!-- unikernel_dce - vmstat -->
    <g transform="translate(290.309531 54.48)scale(0.15 -0.15)">
     <defs>
      <path d="M 8.5 21.578125 
L 8.5 54.6875 
L 17.484375 54.6875 
L 17.484375 21.921875 
Q 17.484375 14.15625 20.5 10.265625 
Q 23.53125 6.390625 29.59375 6.390625 
Q 36.859375 6.390625 41.078125 11.03125 
Q 45.3125 15.671875 45.3125 23.6875 
L 45.3125 54.6875 
L 54.296875 54.6875 
L 54.296875 0 
L 45.3125 0 
L 45.3125 8.40625 
Q 42.046875 3.421875 37.71875 1 
Q 33.40625 -1.421875 27.6875 -1.421875 
Q 18.265625 -1.421875 13.375 4.4375 
Q 8.5 10.296875 8.5 21.578125 
z
M 31.109375 56 
z
" id="DejaVuSans-117"/>
      <path d="M 54.890625 33.015625 
L 54.890625 0 
L 45.90625 0 
L 45.90625 32.71875 
Q 45.90625 40.484375 42.875 44.328125 
Q 39.84375 48.1875 33.796875 48.1875 
Q 26.515625 48.1875 22.3125 43.546875 
Q 18.109375 38.921875 18.109375 30.90625 
L 18.109375 0 
L 9.078125 0 
L 9.078125 54.6875 
L 18.109375 54.6875 
L 18.109375 46.1875 
Q 21.34375 51.125 25.703125 53.5625 
Q 30.078125 56 35.796875 56 
Q 45.21875 56 50.046875 50.171875 
Q 54.890625 44.34375 54.890625 33.015625 
z
" id="DejaVuSans-110"/>
      <path d="M 9.078125 75.984375 
L 18.109375 75.984375 
L 18.109375 31.109375 
L 44.921875 54.6875 
L 56.390625 54.6875 
L 27.390625 29.109375 
L 57.625 0 
L 45.90625 0 
L 18.109375 26.703125 
L 18.109375 0 
L 9.078125 0 
z
" id="DejaVuSans-107"/>
      <path d="M 41.109375 46.296875 
Q 39.59375 47.171875 37.8125 47.578125 
Q 36.03125 48 33.890625 48 
Q 26.265625 48 22.1875 43.046875 
Q 18.109375 38.09375 18.109375 28.8125 
L 18.109375 0 
L 9.078125 0 
L 9.078125 54.6875 
L 18.109375 54.6875 
L 18.109375 46.1875 
Q 20.953125 51.171875 25.484375 53.578125 
Q 30.03125 56 36.53125 56 
Q 37.453125 56 38.578125 55.875 
Q 39.703125 55.765625 41.0625 55.515625 
z
" id="DejaVuSans-114"/>
      <path d="M 9.421875 75.984375 
L 18.40625 75.984375 
L 18.40625 0 
L 9.421875 0 
z
" id="DejaVuSans-108"/>
      <path d="M 50.984375 -16.609375 
L 50.984375 -23.578125 
L -0.984375 -23.578125 
L -0.984375 -16.609375 
z
" id="DejaVuSans-95"/>
      <path d="M 45.40625 46.390625 
L 45.40625 75.984375 
L 54.390625 75.984375 
L 54.390625 0 
L 45.40625 0 
L 45.40625 8.203125 
Q 42.578125 3.328125 38.25 0.953125 
Q 33.9375 -1.421875 27.875 -1.421875 
Q 17.96875 -1.421875 11.734375 6.484375 
Q 5.515625 14.40625 5.515625 27.296875 
Q 5.515625 40.1875 11.734375 48.09375 
Q 17.96875 56 27.875 56 
Q 33.9375 56 38.25 53.625 
Q 42.578125 51.265625 45.40625 46.390625 
z
M 14.796875 27.296875 
Q 14.796875 17.390625 18.875 11.75 
Q 22.953125 6.109375 30.078125 6.109375 
Q 37.203125 6.109375 41.296875 11.75 
Q 45.40625 17.390625 45.40625 27.296875 
Q 45.40625 37.203125 41.296875 42.84375 
Q 37.203125 48.484375 30.078125 48.484375 
Q 22.953125 48.484375 18.875 42.84375 
Q 14.796875 37.203125 14.796875 27.296875 
z
" id="DejaVuSans-100"/>
      <path d="M 48.78125 52.59375 
L 48.78125 44.1875 
Q 44.96875 46.296875 41.140625 47.34375 
Q 37.3125 48.390625 33.40625 48.390625 
Q 24.65625 48.390625 19.8125 42.84375 
Q 14.984375 37.3125 14.984375 27.296875 
Q 14.984375 17.28125 19.8125 11.734375 
Q 24.65625 6.203125 33.40625 6.203125 
Q 37.3125 6.203125 41.140625 7.25 
Q 44.96875 8.296875 48.78125 10.40625 
L 48.78125 2.09375 
Q 45.015625 0.34375 40.984375 -0.53125 
Q 36.96875 -1.421875 32.421875 -1.421875 
Q 20.0625 -1.421875 12.78125 6.34375 
Q 5.515625 14.109375 5.515625 27.296875 
Q 5.515625 40.671875 12.859375 48.328125 
Q 20.21875 56 33.015625 56 
Q 37.15625 56 41.109375 55.140625 
Q 45.0625 54.296875 48.78125 52.59375 
z
" id="DejaVuSans-99"/>
      <path id="DejaVuSans-32"/>
      <path d="M 4.890625 31.390625 
L 31.203125 31.390625 
L 31.203125 23.390625 
L 4.890625 23.390625 
z
" id="DejaVuSans-45"/>
      <path d="M 2.984375 54.6875 
L 12.5 54.6875 
L 29.59375 8.796875 
L 46.6875 54.6875 
L 56.203125 54.6875 
L 35.6875 0 
L 23.484375 0 
z
" id="DejaVuSans-118"/>
     </defs>
     <use xlink:href="#DejaVuSans-117"/>
     <use x="63.378906" xlink:href="#DejaVuSans-110"/>
     <use x="126.757812" xlink:href="#DejaVuSans-105"/>
     <use x="154.541016" xlink:href="#DejaVuSans-107"/>
     <use x="208.826172" xlink:href="#DejaVuSans-101"/>
     <use x="270.349609" xlink:href="#DejaVuSans-114"/>
     <use x="309.712891" xlink:href="#DejaVuSans-110"/>
     <use x="373.091797" xlink:href="#DejaVuSans-101"/>
     <use x="434.615234" xlink:href="#DejaVuSans-108"/>
     <use x="462.398438" xlink:href="#DejaVuSans-95"/>
     <use x="512.398438" xlink:href="#DejaVuSans-100"/>
     <use x="575.875" xlink:href="#DejaVuSans-99"/>
     <use x="630.855469" xlink:href="#DejaVuSans-101"/>
     <use x="692.378906" xlink:href="#DejaVuSans-32"/>
     <use x="724.166016" xlink:href="#DejaVuSans-45"/>
     <use x="760.25" xlink:href="#DejaVuSans-32"/>
     <use x="792.037109" xlink:href="#DejaVuSans-118"/>
     <use x="851.216797" xlink:href="#DejaVuSans-109"/>
     <use x="948.628906" xlink:href="#DejaVuSans-115"/>
     <use x="1000.728516" xlink:href="#DejaVuSans-116"/>
     <use x="1039.9375" xlink:href="#DejaVuSans-97"/>
     <use x="1101.216797" xlink:href="#DejaVuSans-116"/>
    </g>
   </g>
   <g id="legend_1">
    <g id="patch_7">
     <path d="M 650.68 258.52 
L 654.68 258.52 
Q 656.68 258.52 656.68 256.52 
L 656.68 252.52 
Q 656.68 250.52 654.68 250.52 
L 650.68 250.52 
Q 648.68 250.52 648.68 252.52 
L 648.68 256.52 
Q 648.68 258.52 650.68 258.52 
z
" style="fill:#ffffff;opacity:0.8;stroke:#cccccc;stroke-linejoin:miter;"/>
    </g>
   </g>
  </g>
 </g>
 <defs>
  <clipPath id="pe58fe568d1">
   <rect height="388.08" width="535.68" x="108" y="60.48"/>
  </clipPath>
 </defs>
</svg>
