<?xml version="1.0" encoding="utf-8" standalone="no"?>
<!DOCTYPE svg PUBLIC "-//W3C//DTD SVG 1.1//EN"
  "http://www.w3.org/Graphics/SVG/1.1/DTD/svg11.dtd">
<!-- Created with matplotlib (https://matplotlib.org/) -->
<svg height="504pt" version="1.1" viewBox="0 0 864 504" width="864pt" xmlns="http://www.w3.org/2000/svg" xmlns:xlink="http://www.w3.org/1999/xlink">
 <metadata>
  <rdf:RDF xmlns:cc="http://creativecommons.org/ns#" xmlns:dc="http://purl.org/dc/elements/1.1/" xmlns:rdf="http://www.w3.org/1999/02/22-rdf-syntax-ns#">
   <cc:Work>
    <dc:type rdf:resource="http://purl.org/dc/dcmitype/StillImage"/>
    <dc:date>2022-05-29T17:09:24.129434</dc:date>
    <dc:format>image/svg+xml</dc:format>
    <dc:creator>
     <cc:Agent>
      <dc:title>Matplotlib v3.3.4, https://matplotlib.org/</dc:title>
     </cc:Agent>
    </dc:creator>
   </cc:Work>
  </rdf:RDF>
 </metadata>
 <defs>
  <style type="text/css">*{stroke-linecap:butt;stroke-linejoin:round;}</style>
 </defs>
 <g id="figure_1">
  <g id="patch_1">
   <path d="M 0 504 
L 864 504 
L 864 0 
L 0 0 
z
" style="fill:#ffffff;"/>
  </g>
  <g id="axes_1">
   <g id="patch_2">
    <path d="M 108 448.56 
L 643.68 448.56 
L 643.68 60.48 
L 108 60.48 
z
" style="fill:#ffffff;"/>
   </g>
   <g id="matplotlib.axis_1">
    <g id="xtick_1">
     <g id="line2d_1">
      <defs>
       <path d="M 0 0 
L 0 3.5 
" id="m4af3c9ce2a" style="stroke:#000000;stroke-width:0.8;"/>
      </defs>
      <g>
       <use style="stroke:#000000;stroke-width:0.8;" x="132.349091" xlink:href="#m4af3c9ce2a" y="448.56"/>
      </g>
     </g>
     <g id="text_1">
      <!-- 14:19:06 -->
      <g transform="translate(135.108466 500.4725)rotate(-90)scale(0.1 -0.1)">
       <defs>
        <path d="M 12.40625 8.296875 
L 28.515625 8.296875 
L 28.515625 63.921875 
L 10.984375 60.40625 
L 10.984375 69.390625 
L 28.421875 72.90625 
L 38.28125 72.90625 
L 38.28125 8.296875 
L 54.390625 8.296875 
L 54.390625 0 
L 12.40625 0 
z
" id="DejaVuSans-49"/>
        <path d="M 37.796875 64.3125 
L 12.890625 25.390625 
L 37.796875 25.390625 
z
M 35.203125 72.90625 
L 47.609375 72.90625 
L 47.609375 25.390625 
L 58.015625 25.390625 
L 58.015625 17.1875 
L 47.609375 17.1875 
L 47.609375 0 
L 37.796875 0 
L 37.796875 17.1875 
L 4.890625 17.1875 
L 4.890625 26.703125 
z
" id="DejaVuSans-52"/>
        <path d="M 11.71875 12.40625 
L 22.015625 12.40625 
L 22.015625 0 
L 11.71875 0 
z
M 11.71875 51.703125 
L 22.015625 51.703125 
L 22.015625 39.3125 
L 11.71875 39.3125 
z
" id="DejaVuSans-58"/>
        <path d="M 10.984375 1.515625 
L 10.984375 10.5 
Q 14.703125 8.734375 18.5 7.8125 
Q 22.3125 6.890625 25.984375 6.890625 
Q 35.75 6.890625 40.890625 13.453125 
Q 46.046875 20.015625 46.78125 33.40625 
Q 43.953125 29.203125 39.59375 26.953125 
Q 35.25 24.703125 29.984375 24.703125 
Q 19.046875 24.703125 12.671875 31.3125 
Q 6.296875 37.9375 6.296875 49.421875 
Q 6.296875 60.640625 12.9375 67.421875 
Q 19.578125 74.21875 30.609375 74.21875 
Q 43.265625 74.21875 49.921875 64.515625 
Q 56.59375 54.828125 56.59375 36.375 
Q 56.59375 19.140625 48.40625 8.859375 
Q 40.234375 -1.421875 26.421875 -1.421875 
Q 22.703125 -1.421875 18.890625 -0.6875 
Q 15.09375 0.046875 10.984375 1.515625 
z
M 30.609375 32.421875 
Q 37.25 32.421875 41.125 36.953125 
Q 45.015625 41.5 45.015625 49.421875 
Q 45.015625 57.28125 41.125 61.84375 
Q 37.25 66.40625 30.609375 66.40625 
Q 23.96875 66.40625 20.09375 61.84375 
Q 16.21875 57.28125 16.21875 49.421875 
Q 16.21875 41.5 20.09375 36.953125 
Q 23.96875 32.421875 30.609375 32.421875 
z
" id="DejaVuSans-57"/>
        <path d="M 31.78125 66.40625 
Q 24.171875 66.40625 20.328125 58.90625 
Q 16.5 51.421875 16.5 36.375 
Q 16.5 21.390625 20.328125 13.890625 
Q 24.171875 6.390625 31.78125 6.390625 
Q 39.453125 6.390625 43.28125 13.890625 
Q 47.125 21.390625 47.125 36.375 
Q 47.125 51.421875 43.28125 58.90625 
Q 39.453125 66.40625 31.78125 66.40625 
z
M 31.78125 74.21875 
Q 44.046875 74.21875 50.515625 64.515625 
Q 56.984375 54.828125 56.984375 36.375 
Q 56.984375 17.96875 50.515625 8.265625 
Q 44.046875 -1.421875 31.78125 -1.421875 
Q 19.53125 -1.421875 13.0625 8.265625 
Q 6.59375 17.96875 6.59375 36.375 
Q 6.59375 54.828125 13.0625 64.515625 
Q 19.53125 74.21875 31.78125 74.21875 
z
" id="DejaVuSans-48"/>
        <path d="M 33.015625 40.375 
Q 26.375 40.375 22.484375 35.828125 
Q 18.609375 31.296875 18.609375 23.390625 
Q 18.609375 15.53125 22.484375 10.953125 
Q 26.375 6.390625 33.015625 6.390625 
Q 39.65625 6.390625 43.53125 10.953125 
Q 47.40625 15.53125 47.40625 23.390625 
Q 47.40625 31.296875 43.53125 35.828125 
Q 39.65625 40.375 33.015625 40.375 
z
M 52.59375 71.296875 
L 52.59375 62.3125 
Q 48.875 64.0625 45.09375 64.984375 
Q 41.3125 65.921875 37.59375 65.921875 
Q 27.828125 65.921875 22.671875 59.328125 
Q 17.53125 52.734375 16.796875 39.40625 
Q 19.671875 43.65625 24.015625 45.921875 
Q 28.375 48.1875 33.59375 48.1875 
Q 44.578125 48.1875 50.953125 41.515625 
Q 57.328125 34.859375 57.328125 23.390625 
Q 57.328125 12.15625 50.6875 5.359375 
Q 44.046875 -1.421875 33.015625 -1.421875 
Q 20.359375 -1.421875 13.671875 8.265625 
Q 6.984375 17.96875 6.984375 36.375 
Q 6.984375 53.65625 15.1875 63.9375 
Q 23.390625 74.21875 37.203125 74.21875 
Q 40.921875 74.21875 44.703125 73.484375 
Q 48.484375 72.75 52.59375 71.296875 
z
" id="DejaVuSans-54"/>
       </defs>
       <use xlink:href="#DejaVuSans-49"/>
       <use x="63.623047" xlink:href="#DejaVuSans-52"/>
       <use x="127.246094" xlink:href="#DejaVuSans-58"/>
       <use x="160.9375" xlink:href="#DejaVuSans-49"/>
       <use x="224.560547" xlink:href="#DejaVuSans-57"/>
       <use x="288.183594" xlink:href="#DejaVuSans-58"/>
       <use x="321.875" xlink:href="#DejaVuSans-48"/>
       <use x="385.498047" xlink:href="#DejaVuSans-54"/>
      </g>
     </g>
    </g>
    <g id="xtick_2">
     <g id="line2d_2">
      <g>
       <use style="stroke:#000000;stroke-width:0.8;" x="156.462292" xlink:href="#m4af3c9ce2a" y="448.56"/>
      </g>
     </g>
     <g id="text_2">
      <!-- 14:20:56 -->
      <g transform="translate(159.221667 500.4725)rotate(-90)scale(0.1 -0.1)">
       <defs>
        <path d="M 19.1875 8.296875 
L 53.609375 8.296875 
L 53.609375 0 
L 7.328125 0 
L 7.328125 8.296875 
Q 12.9375 14.109375 22.625 23.890625 
Q 32.328125 33.6875 34.8125 36.53125 
Q 39.546875 41.84375 41.421875 45.53125 
Q 43.3125 49.21875 43.3125 52.78125 
Q 43.3125 58.59375 39.234375 62.25 
Q 35.15625 65.921875 28.609375 65.921875 
Q 23.96875 65.921875 18.8125 64.3125 
Q 13.671875 62.703125 7.8125 59.421875 
L 7.8125 69.390625 
Q 13.765625 71.78125 18.9375 73 
Q 24.125 74.21875 28.421875 74.21875 
Q 39.75 74.21875 46.484375 68.546875 
Q 53.21875 62.890625 53.21875 53.421875 
Q 53.21875 48.921875 51.53125 44.890625 
Q 49.859375 40.875 45.40625 35.40625 
Q 44.1875 33.984375 37.640625 27.21875 
Q 31.109375 20.453125 19.1875 8.296875 
z
" id="DejaVuSans-50"/>
        <path d="M 10.796875 72.90625 
L 49.515625 72.90625 
L 49.515625 64.59375 
L 19.828125 64.59375 
L 19.828125 46.734375 
Q 21.96875 47.46875 24.109375 47.828125 
Q 26.265625 48.1875 28.421875 48.1875 
Q 40.625 48.1875 47.75 41.5 
Q 54.890625 34.8125 54.890625 23.390625 
Q 54.890625 11.625 47.5625 5.09375 
Q 40.234375 -1.421875 26.90625 -1.421875 
Q 22.3125 -1.421875 17.546875 -0.640625 
Q 12.796875 0.140625 7.71875 1.703125 
L 7.71875 11.625 
Q 12.109375 9.234375 16.796875 8.0625 
Q 21.484375 6.890625 26.703125 6.890625 
Q 35.15625 6.890625 40.078125 11.328125 
Q 45.015625 15.765625 45.015625 23.390625 
Q 45.015625 31 40.078125 35.4375 
Q 35.15625 39.890625 26.703125 39.890625 
Q 22.75 39.890625 18.8125 39.015625 
Q 14.890625 38.140625 10.796875 36.28125 
z
" id="DejaVuSans-53"/>
       </defs>
       <use xlink:href="#DejaVuSans-49"/>
       <use x="63.623047" xlink:href="#DejaVuSans-52"/>
       <use x="127.246094" xlink:href="#DejaVuSans-58"/>
       <use x="160.9375" xlink:href="#DejaVuSans-50"/>
       <use x="224.560547" xlink:href="#DejaVuSans-48"/>
       <use x="288.183594" xlink:href="#DejaVuSans-58"/>
       <use x="321.875" xlink:href="#DejaVuSans-53"/>
       <use x="385.498047" xlink:href="#DejaVuSans-54"/>
      </g>
     </g>
    </g>
    <g id="xtick_3">
     <g id="line2d_3">
      <g>
       <use style="stroke:#000000;stroke-width:0.8;" x="180.575493" xlink:href="#m4af3c9ce2a" y="448.56"/>
      </g>
     </g>
     <g id="text_3">
      <!-- 14:22:46 -->
      <g transform="translate(183.334868 500.4725)rotate(-90)scale(0.1 -0.1)">
       <use xlink:href="#DejaVuSans-49"/>
       <use x="63.623047" xlink:href="#DejaVuSans-52"/>
       <use x="127.246094" xlink:href="#DejaVuSans-58"/>
       <use x="160.9375" xlink:href="#DejaVuSans-50"/>
       <use x="224.560547" xlink:href="#DejaVuSans-50"/>
       <use x="288.183594" xlink:href="#DejaVuSans-58"/>
       <use x="321.875" xlink:href="#DejaVuSans-52"/>
       <use x="385.498047" xlink:href="#DejaVuSans-54"/>
      </g>
     </g>
    </g>
    <g id="xtick_4">
     <g id="line2d_4">
      <g>
       <use style="stroke:#000000;stroke-width:0.8;" x="204.688694" xlink:href="#m4af3c9ce2a" y="448.56"/>
      </g>
     </g>
     <g id="text_4">
      <!-- 14:24:36 -->
      <g transform="translate(207.448069 500.4725)rotate(-90)scale(0.1 -0.1)">
       <defs>
        <path d="M 40.578125 39.3125 
Q 47.65625 37.796875 51.625 33 
Q 55.609375 28.21875 55.609375 21.1875 
Q 55.609375 10.40625 48.1875 4.484375 
Q 40.765625 -1.421875 27.09375 -1.421875 
Q 22.515625 -1.421875 17.65625 -0.515625 
Q 12.796875 0.390625 7.625 2.203125 
L 7.625 11.71875 
Q 11.71875 9.328125 16.59375 8.109375 
Q 21.484375 6.890625 26.8125 6.890625 
Q 36.078125 6.890625 40.9375 10.546875 
Q 45.796875 14.203125 45.796875 21.1875 
Q 45.796875 27.640625 41.28125 31.265625 
Q 36.765625 34.90625 28.71875 34.90625 
L 20.21875 34.90625 
L 20.21875 43.015625 
L 29.109375 43.015625 
Q 36.375 43.015625 40.234375 45.921875 
Q 44.09375 48.828125 44.09375 54.296875 
Q 44.09375 59.90625 40.109375 62.90625 
Q 36.140625 65.921875 28.71875 65.921875 
Q 24.65625 65.921875 20.015625 65.03125 
Q 15.375 64.15625 9.8125 62.3125 
L 9.8125 71.09375 
Q 15.4375 72.65625 20.34375 73.4375 
Q 25.25 74.21875 29.59375 74.21875 
Q 40.828125 74.21875 47.359375 69.109375 
Q 53.90625 64.015625 53.90625 55.328125 
Q 53.90625 49.265625 50.4375 45.09375 
Q 46.96875 40.921875 40.578125 39.3125 
z
" id="DejaVuSans-51"/>
       </defs>
       <use xlink:href="#DejaVuSans-49"/>
       <use x="63.623047" xlink:href="#DejaVuSans-52"/>
       <use x="127.246094" xlink:href="#DejaVuSans-58"/>
       <use x="160.9375" xlink:href="#DejaVuSans-50"/>
       <use x="224.560547" xlink:href="#DejaVuSans-52"/>
       <use x="288.183594" xlink:href="#DejaVuSans-58"/>
       <use x="321.875" xlink:href="#DejaVuSans-51"/>
       <use x="385.498047" xlink:href="#DejaVuSans-54"/>
      </g>
     </g>
    </g>
    <g id="xtick_5">
     <g id="line2d_5">
      <g>
       <use style="stroke:#000000;stroke-width:0.8;" x="228.801895" xlink:href="#m4af3c9ce2a" y="448.56"/>
      </g>
     </g>
     <g id="text_5">
      <!-- 14:26:26 -->
      <g transform="translate(231.56127 500.4725)rotate(-90)scale(0.1 -0.1)">
       <use xlink:href="#DejaVuSans-49"/>
       <use x="63.623047" xlink:href="#DejaVuSans-52"/>
       <use x="127.246094" xlink:href="#DejaVuSans-58"/>
       <use x="160.9375" xlink:href="#DejaVuSans-50"/>
       <use x="224.560547" xlink:href="#DejaVuSans-54"/>
       <use x="288.183594" xlink:href="#DejaVuSans-58"/>
       <use x="321.875" xlink:href="#DejaVuSans-50"/>
       <use x="385.498047" xlink:href="#DejaVuSans-54"/>
      </g>
     </g>
    </g>
    <g id="xtick_6">
     <g id="line2d_6">
      <g>
       <use style="stroke:#000000;stroke-width:0.8;" x="252.915095" xlink:href="#m4af3c9ce2a" y="448.56"/>
      </g>
     </g>
     <g id="text_6">
      <!-- 14:28:17 -->
      <g transform="translate(255.67447 500.4725)rotate(-90)scale(0.1 -0.1)">
       <defs>
        <path d="M 31.78125 34.625 
Q 24.75 34.625 20.71875 30.859375 
Q 16.703125 27.09375 16.703125 20.515625 
Q 16.703125 13.921875 20.71875 10.15625 
Q 24.75 6.390625 31.78125 6.390625 
Q 38.8125 6.390625 42.859375 10.171875 
Q 46.921875 13.96875 46.921875 20.515625 
Q 46.921875 27.09375 42.890625 30.859375 
Q 38.875 34.625 31.78125 34.625 
z
M 21.921875 38.8125 
Q 15.578125 40.375 12.03125 44.71875 
Q 8.5 49.078125 8.5 55.328125 
Q 8.5 64.0625 14.71875 69.140625 
Q 20.953125 74.21875 31.78125 74.21875 
Q 42.671875 74.21875 48.875 69.140625 
Q 55.078125 64.0625 55.078125 55.328125 
Q 55.078125 49.078125 51.53125 44.71875 
Q 48 40.375 41.703125 38.8125 
Q 48.828125 37.15625 52.796875 32.3125 
Q 56.78125 27.484375 56.78125 20.515625 
Q 56.78125 9.90625 50.3125 4.234375 
Q 43.84375 -1.421875 31.78125 -1.421875 
Q 19.734375 -1.421875 13.25 4.234375 
Q 6.78125 9.90625 6.78125 20.515625 
Q 6.78125 27.484375 10.78125 32.3125 
Q 14.796875 37.15625 21.921875 38.8125 
z
M 18.3125 54.390625 
Q 18.3125 48.734375 21.84375 45.5625 
Q 25.390625 42.390625 31.78125 42.390625 
Q 38.140625 42.390625 41.71875 45.5625 
Q 45.3125 48.734375 45.3125 54.390625 
Q 45.3125 60.0625 41.71875 63.234375 
Q 38.140625 66.40625 31.78125 66.40625 
Q 25.390625 66.40625 21.84375 63.234375 
Q 18.3125 60.0625 18.3125 54.390625 
z
" id="DejaVuSans-56"/>
        <path d="M 8.203125 72.90625 
L 55.078125 72.90625 
L 55.078125 68.703125 
L 28.609375 0 
L 18.3125 0 
L 43.21875 64.59375 
L 8.203125 64.59375 
z
" id="DejaVuSans-55"/>
       </defs>
       <use xlink:href="#DejaVuSans-49"/>
       <use x="63.623047" xlink:href="#DejaVuSans-52"/>
       <use x="127.246094" xlink:href="#DejaVuSans-58"/>
       <use x="160.9375" xlink:href="#DejaVuSans-50"/>
       <use x="224.560547" xlink:href="#DejaVuSans-56"/>
       <use x="288.183594" xlink:href="#DejaVuSans-58"/>
       <use x="321.875" xlink:href="#DejaVuSans-49"/>
       <use x="385.498047" xlink:href="#DejaVuSans-55"/>
      </g>
     </g>
    </g>
    <g id="xtick_7">
     <g id="line2d_7">
      <g>
       <use style="stroke:#000000;stroke-width:0.8;" x="277.028296" xlink:href="#m4af3c9ce2a" y="448.56"/>
      </g>
     </g>
     <g id="text_7">
      <!-- 14:30:07 -->
      <g transform="translate(279.787671 500.4725)rotate(-90)scale(0.1 -0.1)">
       <use xlink:href="#DejaVuSans-49"/>
       <use x="63.623047" xlink:href="#DejaVuSans-52"/>
       <use x="127.246094" xlink:href="#DejaVuSans-58"/>
       <use x="160.9375" xlink:href="#DejaVuSans-51"/>
       <use x="224.560547" xlink:href="#DejaVuSans-48"/>
       <use x="288.183594" xlink:href="#DejaVuSans-58"/>
       <use x="321.875" xlink:href="#DejaVuSans-48"/>
       <use x="385.498047" xlink:href="#DejaVuSans-55"/>
      </g>
     </g>
    </g>
    <g id="xtick_8">
     <g id="line2d_8">
      <g>
       <use style="stroke:#000000;stroke-width:0.8;" x="301.141497" xlink:href="#m4af3c9ce2a" y="448.56"/>
      </g>
     </g>
     <g id="text_8">
      <!-- 14:31:57 -->
      <g transform="translate(303.900872 500.4725)rotate(-90)scale(0.1 -0.1)">
       <use xlink:href="#DejaVuSans-49"/>
       <use x="63.623047" xlink:href="#DejaVuSans-52"/>
       <use x="127.246094" xlink:href="#DejaVuSans-58"/>
       <use x="160.9375" xlink:href="#DejaVuSans-51"/>
       <use x="224.560547" xlink:href="#DejaVuSans-49"/>
       <use x="288.183594" xlink:href="#DejaVuSans-58"/>
       <use x="321.875" xlink:href="#DejaVuSans-53"/>
       <use x="385.498047" xlink:href="#DejaVuSans-55"/>
      </g>
     </g>
    </g>
    <g id="xtick_9">
     <g id="line2d_9">
      <g>
       <use style="stroke:#000000;stroke-width:0.8;" x="325.254698" xlink:href="#m4af3c9ce2a" y="448.56"/>
      </g>
     </g>
     <g id="text_9">
      <!-- 14:33:47 -->
      <g transform="translate(328.014073 500.4725)rotate(-90)scale(0.1 -0.1)">
       <use xlink:href="#DejaVuSans-49"/>
       <use x="63.623047" xlink:href="#DejaVuSans-52"/>
       <use x="127.246094" xlink:href="#DejaVuSans-58"/>
       <use x="160.9375" xlink:href="#DejaVuSans-51"/>
       <use x="224.560547" xlink:href="#DejaVuSans-51"/>
       <use x="288.183594" xlink:href="#DejaVuSans-58"/>
       <use x="321.875" xlink:href="#DejaVuSans-52"/>
       <use x="385.498047" xlink:href="#DejaVuSans-55"/>
      </g>
     </g>
    </g>
    <g id="xtick_10">
     <g id="line2d_10">
      <g>
       <use style="stroke:#000000;stroke-width:0.8;" x="349.367899" xlink:href="#m4af3c9ce2a" y="448.56"/>
      </g>
     </g>
     <g id="text_10">
      <!-- 14:35:37 -->
      <g transform="translate(352.127274 500.4725)rotate(-90)scale(0.1 -0.1)">
       <use xlink:href="#DejaVuSans-49"/>
       <use x="63.623047" xlink:href="#DejaVuSans-52"/>
       <use x="127.246094" xlink:href="#DejaVuSans-58"/>
       <use x="160.9375" xlink:href="#DejaVuSans-51"/>
       <use x="224.560547" xlink:href="#DejaVuSans-53"/>
       <use x="288.183594" xlink:href="#DejaVuSans-58"/>
       <use x="321.875" xlink:href="#DejaVuSans-51"/>
       <use x="385.498047" xlink:href="#DejaVuSans-55"/>
      </g>
     </g>
    </g>
    <g id="xtick_11">
     <g id="line2d_11">
      <g>
       <use style="stroke:#000000;stroke-width:0.8;" x="373.4811" xlink:href="#m4af3c9ce2a" y="448.56"/>
      </g>
     </g>
     <g id="text_11">
      <!-- 14:37:28 -->
      <g transform="translate(376.240475 500.4725)rotate(-90)scale(0.1 -0.1)">
       <use xlink:href="#DejaVuSans-49"/>
       <use x="63.623047" xlink:href="#DejaVuSans-52"/>
       <use x="127.246094" xlink:href="#DejaVuSans-58"/>
       <use x="160.9375" xlink:href="#DejaVuSans-51"/>
       <use x="224.560547" xlink:href="#DejaVuSans-55"/>
       <use x="288.183594" xlink:href="#DejaVuSans-58"/>
       <use x="321.875" xlink:href="#DejaVuSans-50"/>
       <use x="385.498047" xlink:href="#DejaVuSans-56"/>
      </g>
     </g>
    </g>
    <g id="xtick_12">
     <g id="line2d_12">
      <g>
       <use style="stroke:#000000;stroke-width:0.8;" x="397.594301" xlink:href="#m4af3c9ce2a" y="448.56"/>
      </g>
     </g>
     <g id="text_12">
      <!-- 14:39:18 -->
      <g transform="translate(400.353676 500.4725)rotate(-90)scale(0.1 -0.1)">
       <use xlink:href="#DejaVuSans-49"/>
       <use x="63.623047" xlink:href="#DejaVuSans-52"/>
       <use x="127.246094" xlink:href="#DejaVuSans-58"/>
       <use x="160.9375" xlink:href="#DejaVuSans-51"/>
       <use x="224.560547" xlink:href="#DejaVuSans-57"/>
       <use x="288.183594" xlink:href="#DejaVuSans-58"/>
       <use x="321.875" xlink:href="#DejaVuSans-49"/>
       <use x="385.498047" xlink:href="#DejaVuSans-56"/>
      </g>
     </g>
    </g>
    <g id="xtick_13">
     <g id="line2d_13">
      <g>
       <use style="stroke:#000000;stroke-width:0.8;" x="421.707502" xlink:href="#m4af3c9ce2a" y="448.56"/>
      </g>
     </g>
     <g id="text_13">
      <!-- 14:41:08 -->
      <g transform="translate(424.466877 500.4725)rotate(-90)scale(0.1 -0.1)">
       <use xlink:href="#DejaVuSans-49"/>
       <use x="63.623047" xlink:href="#DejaVuSans-52"/>
       <use x="127.246094" xlink:href="#DejaVuSans-58"/>
       <use x="160.9375" xlink:href="#DejaVuSans-52"/>
       <use x="224.560547" xlink:href="#DejaVuSans-49"/>
       <use x="288.183594" xlink:href="#DejaVuSans-58"/>
       <use x="321.875" xlink:href="#DejaVuSans-48"/>
       <use x="385.498047" xlink:href="#DejaVuSans-56"/>
      </g>
     </g>
    </g>
    <g id="xtick_14">
     <g id="line2d_14">
      <g>
       <use style="stroke:#000000;stroke-width:0.8;" x="445.820703" xlink:href="#m4af3c9ce2a" y="448.56"/>
      </g>
     </g>
     <g id="text_14">
      <!-- 14:42:58 -->
      <g transform="translate(448.580078 500.4725)rotate(-90)scale(0.1 -0.1)">
       <use xlink:href="#DejaVuSans-49"/>
       <use x="63.623047" xlink:href="#DejaVuSans-52"/>
       <use x="127.246094" xlink:href="#DejaVuSans-58"/>
       <use x="160.9375" xlink:href="#DejaVuSans-52"/>
       <use x="224.560547" xlink:href="#DejaVuSans-50"/>
       <use x="288.183594" xlink:href="#DejaVuSans-58"/>
       <use x="321.875" xlink:href="#DejaVuSans-53"/>
       <use x="385.498047" xlink:href="#DejaVuSans-56"/>
      </g>
     </g>
    </g>
    <g id="xtick_15">
     <g id="line2d_15">
      <g>
       <use style="stroke:#000000;stroke-width:0.8;" x="469.933904" xlink:href="#m4af3c9ce2a" y="448.56"/>
      </g>
     </g>
     <g id="text_15">
      <!-- 14:44:48 -->
      <g transform="translate(472.693279 500.4725)rotate(-90)scale(0.1 -0.1)">
       <use xlink:href="#DejaVuSans-49"/>
       <use x="63.623047" xlink:href="#DejaVuSans-52"/>
       <use x="127.246094" xlink:href="#DejaVuSans-58"/>
       <use x="160.9375" xlink:href="#DejaVuSans-52"/>
       <use x="224.560547" xlink:href="#DejaVuSans-52"/>
       <use x="288.183594" xlink:href="#DejaVuSans-58"/>
       <use x="321.875" xlink:href="#DejaVuSans-52"/>
       <use x="385.498047" xlink:href="#DejaVuSans-56"/>
      </g>
     </g>
    </g>
    <g id="xtick_16">
     <g id="line2d_16">
      <g>
       <use style="stroke:#000000;stroke-width:0.8;" x="494.047104" xlink:href="#m4af3c9ce2a" y="448.56"/>
      </g>
     </g>
     <g id="text_16">
      <!-- 14:46:38 -->
      <g transform="translate(496.806479 500.4725)rotate(-90)scale(0.1 -0.1)">
       <use xlink:href="#DejaVuSans-49"/>
       <use x="63.623047" xlink:href="#DejaVuSans-52"/>
       <use x="127.246094" xlink:href="#DejaVuSans-58"/>
       <use x="160.9375" xlink:href="#DejaVuSans-52"/>
       <use x="224.560547" xlink:href="#DejaVuSans-54"/>
       <use x="288.183594" xlink:href="#DejaVuSans-58"/>
       <use x="321.875" xlink:href="#DejaVuSans-51"/>
       <use x="385.498047" xlink:href="#DejaVuSans-56"/>
      </g>
     </g>
    </g>
    <g id="xtick_17">
     <g id="line2d_17">
      <g>
       <use style="stroke:#000000;stroke-width:0.8;" x="518.160305" xlink:href="#m4af3c9ce2a" y="448.56"/>
      </g>
     </g>
     <g id="text_17">
      <!-- 14:48:28 -->
      <g transform="translate(520.91968 500.4725)rotate(-90)scale(0.1 -0.1)">
       <use xlink:href="#DejaVuSans-49"/>
       <use x="63.623047" xlink:href="#DejaVuSans-52"/>
       <use x="127.246094" xlink:href="#DejaVuSans-58"/>
       <use x="160.9375" xlink:href="#DejaVuSans-52"/>
       <use x="224.560547" xlink:href="#DejaVuSans-56"/>
       <use x="288.183594" xlink:href="#DejaVuSans-58"/>
       <use x="321.875" xlink:href="#DejaVuSans-50"/>
       <use x="385.498047" xlink:href="#DejaVuSans-56"/>
      </g>
     </g>
    </g>
    <g id="xtick_18">
     <g id="line2d_18">
      <g>
       <use style="stroke:#000000;stroke-width:0.8;" x="542.273506" xlink:href="#m4af3c9ce2a" y="448.56"/>
      </g>
     </g>
     <g id="text_18">
      <!-- 14:50:19 -->
      <g transform="translate(545.032881 500.4725)rotate(-90)scale(0.1 -0.1)">
       <use xlink:href="#DejaVuSans-49"/>
       <use x="63.623047" xlink:href="#DejaVuSans-52"/>
       <use x="127.246094" xlink:href="#DejaVuSans-58"/>
       <use x="160.9375" xlink:href="#DejaVuSans-53"/>
       <use x="224.560547" xlink:href="#DejaVuSans-48"/>
       <use x="288.183594" xlink:href="#DejaVuSans-58"/>
       <use x="321.875" xlink:href="#DejaVuSans-49"/>
       <use x="385.498047" xlink:href="#DejaVuSans-57"/>
      </g>
     </g>
    </g>
    <g id="xtick_19">
     <g id="line2d_19">
      <g>
       <use style="stroke:#000000;stroke-width:0.8;" x="566.386707" xlink:href="#m4af3c9ce2a" y="448.56"/>
      </g>
     </g>
     <g id="text_19">
      <!-- 14:52:09 -->
      <g transform="translate(569.146082 500.4725)rotate(-90)scale(0.1 -0.1)">
       <use xlink:href="#DejaVuSans-49"/>
       <use x="63.623047" xlink:href="#DejaVuSans-52"/>
       <use x="127.246094" xlink:href="#DejaVuSans-58"/>
       <use x="160.9375" xlink:href="#DejaVuSans-53"/>
       <use x="224.560547" xlink:href="#DejaVuSans-50"/>
       <use x="288.183594" xlink:href="#DejaVuSans-58"/>
       <use x="321.875" xlink:href="#DejaVuSans-48"/>
       <use x="385.498047" xlink:href="#DejaVuSans-57"/>
      </g>
     </g>
    </g>
    <g id="xtick_20">
     <g id="line2d_20">
      <g>
       <use style="stroke:#000000;stroke-width:0.8;" x="590.499908" xlink:href="#m4af3c9ce2a" y="448.56"/>
      </g>
     </g>
     <g id="text_20">
      <!-- 14:54:00 -->
      <g transform="translate(593.259283 500.4725)rotate(-90)scale(0.1 -0.1)">
       <use xlink:href="#DejaVuSans-49"/>
       <use x="63.623047" xlink:href="#DejaVuSans-52"/>
       <use x="127.246094" xlink:href="#DejaVuSans-58"/>
       <use x="160.9375" xlink:href="#DejaVuSans-53"/>
       <use x="224.560547" xlink:href="#DejaVuSans-52"/>
       <use x="288.183594" xlink:href="#DejaVuSans-58"/>
       <use x="321.875" xlink:href="#DejaVuSans-48"/>
       <use x="385.498047" xlink:href="#DejaVuSans-48"/>
      </g>
     </g>
    </g>
    <g id="xtick_21">
     <g id="line2d_21">
      <g>
       <use style="stroke:#000000;stroke-width:0.8;" x="614.613109" xlink:href="#m4af3c9ce2a" y="448.56"/>
      </g>
     </g>
     <g id="text_21">
      <!-- 14:55:50 -->
      <g transform="translate(617.372484 500.4725)rotate(-90)scale(0.1 -0.1)">
       <use xlink:href="#DejaVuSans-49"/>
       <use x="63.623047" xlink:href="#DejaVuSans-52"/>
       <use x="127.246094" xlink:href="#DejaVuSans-58"/>
       <use x="160.9375" xlink:href="#DejaVuSans-53"/>
       <use x="224.560547" xlink:href="#DejaVuSans-53"/>
       <use x="288.183594" xlink:href="#DejaVuSans-58"/>
       <use x="321.875" xlink:href="#DejaVuSans-53"/>
       <use x="385.498047" xlink:href="#DejaVuSans-48"/>
      </g>
     </g>
    </g>
    <g id="text_22">
     <!-- timestamp -->
     <g transform="translate(354.264375 510.55125)scale(0.08 -0.08)">
      <defs>
       <path d="M 18.3125 70.21875 
L 18.3125 54.6875 
L 36.8125 54.6875 
L 36.8125 47.703125 
L 18.3125 47.703125 
L 18.3125 18.015625 
Q 18.3125 11.328125 20.140625 9.421875 
Q 21.96875 7.515625 27.59375 7.515625 
L 36.8125 7.515625 
L 36.8125 0 
L 27.59375 0 
Q 17.1875 0 13.234375 3.875 
Q 9.28125 7.765625 9.28125 18.015625 
L 9.28125 47.703125 
L 2.6875 47.703125 
L 2.6875 54.6875 
L 9.28125 54.6875 
L 9.28125 70.21875 
z
" id="DejaVuSans-116"/>
       <path d="M 9.421875 54.6875 
L 18.40625 54.6875 
L 18.40625 0 
L 9.421875 0 
z
M 9.421875 75.984375 
L 18.40625 75.984375 
L 18.40625 64.59375 
L 9.421875 64.59375 
z
" id="DejaVuSans-105"/>
       <path d="M 52 44.1875 
Q 55.375 50.25 60.0625 53.125 
Q 64.75 56 71.09375 56 
Q 79.640625 56 84.28125 50.015625 
Q 88.921875 44.046875 88.921875 33.015625 
L 88.921875 0 
L 79.890625 0 
L 79.890625 32.71875 
Q 79.890625 40.578125 77.09375 44.375 
Q 74.3125 48.1875 68.609375 48.1875 
Q 61.625 48.1875 57.5625 43.546875 
Q 53.515625 38.921875 53.515625 30.90625 
L 53.515625 0 
L 44.484375 0 
L 44.484375 32.71875 
Q 44.484375 40.625 41.703125 44.40625 
Q 38.921875 48.1875 33.109375 48.1875 
Q 26.21875 48.1875 22.15625 43.53125 
Q 18.109375 38.875 18.109375 30.90625 
L 18.109375 0 
L 9.078125 0 
L 9.078125 54.6875 
L 18.109375 54.6875 
L 18.109375 46.1875 
Q 21.1875 51.21875 25.484375 53.609375 
Q 29.78125 56 35.6875 56 
Q 41.65625 56 45.828125 52.96875 
Q 50 49.953125 52 44.1875 
z
" id="DejaVuSans-109"/>
       <path d="M 56.203125 29.59375 
L 56.203125 25.203125 
L 14.890625 25.203125 
Q 15.484375 15.921875 20.484375 11.0625 
Q 25.484375 6.203125 34.421875 6.203125 
Q 39.59375 6.203125 44.453125 7.46875 
Q 49.3125 8.734375 54.109375 11.28125 
L 54.109375 2.78125 
Q 49.265625 0.734375 44.1875 -0.34375 
Q 39.109375 -1.421875 33.890625 -1.421875 
Q 20.796875 -1.421875 13.15625 6.1875 
Q 5.515625 13.8125 5.515625 26.8125 
Q 5.515625 40.234375 12.765625 48.109375 
Q 20.015625 56 32.328125 56 
Q 43.359375 56 49.78125 48.890625 
Q 56.203125 41.796875 56.203125 29.59375 
z
M 47.21875 32.234375 
Q 47.125 39.59375 43.09375 43.984375 
Q 39.0625 48.390625 32.421875 48.390625 
Q 24.90625 48.390625 20.390625 44.140625 
Q 15.875 39.890625 15.1875 32.171875 
z
" id="DejaVuSans-101"/>
       <path d="M 44.28125 53.078125 
L 44.28125 44.578125 
Q 40.484375 46.53125 36.375 47.5 
Q 32.28125 48.484375 27.875 48.484375 
Q 21.1875 48.484375 17.84375 46.4375 
Q 14.5 44.390625 14.5 40.28125 
Q 14.5 37.15625 16.890625 35.375 
Q 19.28125 33.59375 26.515625 31.984375 
L 29.59375 31.296875 
Q 39.15625 29.25 43.1875 25.515625 
Q 47.21875 21.78125 47.21875 15.09375 
Q 47.21875 7.46875 41.1875 3.015625 
Q 35.15625 -1.421875 24.609375 -1.421875 
Q 20.21875 -1.421875 15.453125 -0.5625 
Q 10.6875 0.296875 5.421875 2 
L 5.421875 11.28125 
Q 10.40625 8.6875 15.234375 7.390625 
Q 20.0625 6.109375 24.8125 6.109375 
Q 31.15625 6.109375 34.5625 8.28125 
Q 37.984375 10.453125 37.984375 14.40625 
Q 37.984375 18.0625 35.515625 20.015625 
Q 33.0625 21.96875 24.703125 23.78125 
L 21.578125 24.515625 
Q 13.234375 26.265625 9.515625 29.90625 
Q 5.8125 33.546875 5.8125 39.890625 
Q 5.8125 47.609375 11.28125 51.796875 
Q 16.75 56 26.8125 56 
Q 31.78125 56 36.171875 55.265625 
Q 40.578125 54.546875 44.28125 53.078125 
z
" id="DejaVuSans-115"/>
       <path d="M 34.28125 27.484375 
Q 23.390625 27.484375 19.1875 25 
Q 14.984375 22.515625 14.984375 16.5 
Q 14.984375 11.71875 18.140625 8.90625 
Q 21.296875 6.109375 26.703125 6.109375 
Q 34.1875 6.109375 38.703125 11.40625 
Q 43.21875 16.703125 43.21875 25.484375 
L 43.21875 27.484375 
z
M 52.203125 31.203125 
L 52.203125 0 
L 43.21875 0 
L 43.21875 8.296875 
Q 40.140625 3.328125 35.546875 0.953125 
Q 30.953125 -1.421875 24.3125 -1.421875 
Q 15.921875 -1.421875 10.953125 3.296875 
Q 6 8.015625 6 15.921875 
Q 6 25.140625 12.171875 29.828125 
Q 18.359375 34.515625 30.609375 34.515625 
L 43.21875 34.515625 
L 43.21875 35.40625 
Q 43.21875 41.609375 39.140625 45 
Q 35.0625 48.390625 27.6875 48.390625 
Q 23 48.390625 18.546875 47.265625 
Q 14.109375 46.140625 10.015625 43.890625 
L 10.015625 52.203125 
Q 14.9375 54.109375 19.578125 55.046875 
Q 24.21875 56 28.609375 56 
Q 40.484375 56 46.34375 49.84375 
Q 52.203125 43.703125 52.203125 31.203125 
z
" id="DejaVuSans-97"/>
       <path d="M 18.109375 8.203125 
L 18.109375 -20.796875 
L 9.078125 -20.796875 
L 9.078125 54.6875 
L 18.109375 54.6875 
L 18.109375 46.390625 
Q 20.953125 51.265625 25.265625 53.625 
Q 29.59375 56 35.59375 56 
Q 45.5625 56 51.78125 48.09375 
Q 58.015625 40.1875 58.015625 27.296875 
Q 58.015625 14.40625 51.78125 6.484375 
Q 45.5625 -1.421875 35.59375 -1.421875 
Q 29.59375 -1.421875 25.265625 0.953125 
Q 20.953125 3.328125 18.109375 8.203125 
z
M 48.6875 27.296875 
Q 48.6875 37.203125 44.609375 42.84375 
Q 40.53125 48.484375 33.40625 48.484375 
Q 26.265625 48.484375 22.1875 42.84375 
Q 18.109375 37.203125 18.109375 27.296875 
Q 18.109375 17.390625 22.1875 11.75 
Q 26.265625 6.109375 33.40625 6.109375 
Q 40.53125 6.109375 44.609375 11.75 
Q 48.6875 17.390625 48.6875 27.296875 
z
" id="DejaVuSans-112"/>
      </defs>
      <use xlink:href="#DejaVuSans-116"/>
      <use x="39.208984" xlink:href="#DejaVuSans-105"/>
      <use x="66.992188" xlink:href="#DejaVuSans-109"/>
      <use x="164.404297" xlink:href="#DejaVuSans-101"/>
      <use x="225.927734" xlink:href="#DejaVuSans-115"/>
      <use x="278.027344" xlink:href="#DejaVuSans-116"/>
      <use x="317.236328" xlink:href="#DejaVuSans-97"/>
      <use x="378.515625" xlink:href="#DejaVuSans-109"/>
      <use x="475.927734" xlink:href="#DejaVuSans-112"/>
     </g>
    </g>
   </g>
   <g id="matplotlib.axis_2">
    <g id="ytick_1">
     <g id="line2d_22">
      <defs>
       <path d="M 0 0 
L -3.5 0 
" id="m41c8fca6c4" style="stroke:#000000;stroke-width:0.8;"/>
      </defs>
      <g>
       <use style="stroke:#000000;stroke-width:0.8;" x="108" xlink:href="#m41c8fca6c4" y="424.522751"/>
      </g>
     </g>
     <g id="text_23">
      <!-- 9000 -->
      <g transform="translate(75.55 428.32197)scale(0.1 -0.1)">
       <use xlink:href="#DejaVuSans-57"/>
       <use x="63.623047" xlink:href="#DejaVuSans-48"/>
       <use x="127.246094" xlink:href="#DejaVuSans-48"/>
       <use x="190.869141" xlink:href="#DejaVuSans-48"/>
      </g>
     </g>
    </g>
    <g id="ytick_2">
     <g id="line2d_23">
      <g>
       <use style="stroke:#000000;stroke-width:0.8;" x="108" xlink:href="#m41c8fca6c4" y="343.904126"/>
      </g>
     </g>
     <g id="text_24">
      <!-- 9500 -->
      <g transform="translate(75.55 347.703345)scale(0.1 -0.1)">
       <use xlink:href="#DejaVuSans-57"/>
       <use x="63.623047" xlink:href="#DejaVuSans-53"/>
       <use x="127.246094" xlink:href="#DejaVuSans-48"/>
       <use x="190.869141" xlink:href="#DejaVuSans-48"/>
      </g>
     </g>
    </g>
    <g id="ytick_3">
     <g id="line2d_24">
      <g>
       <use style="stroke:#000000;stroke-width:0.8;" x="108" xlink:href="#m41c8fca6c4" y="263.285502"/>
      </g>
     </g>
     <g id="text_25">
      <!-- 10000 -->
      <g transform="translate(69.1875 267.084721)scale(0.1 -0.1)">
       <use xlink:href="#DejaVuSans-49"/>
       <use x="63.623047" xlink:href="#DejaVuSans-48"/>
       <use x="127.246094" xlink:href="#DejaVuSans-48"/>
       <use x="190.869141" xlink:href="#DejaVuSans-48"/>
       <use x="254.492188" xlink:href="#DejaVuSans-48"/>
      </g>
     </g>
    </g>
    <g id="ytick_4">
     <g id="line2d_25">
      <g>
       <use style="stroke:#000000;stroke-width:0.8;" x="108" xlink:href="#m41c8fca6c4" y="182.666877"/>
      </g>
     </g>
     <g id="text_26">
      <!-- 10500 -->
      <g transform="translate(69.1875 186.466096)scale(0.1 -0.1)">
       <use xlink:href="#DejaVuSans-49"/>
       <use x="63.623047" xlink:href="#DejaVuSans-48"/>
       <use x="127.246094" xlink:href="#DejaVuSans-53"/>
       <use x="190.869141" xlink:href="#DejaVuSans-48"/>
       <use x="254.492188" xlink:href="#DejaVuSans-48"/>
      </g>
     </g>
    </g>
    <g id="ytick_5">
     <g id="line2d_26">
      <g>
       <use style="stroke:#000000;stroke-width:0.8;" x="108" xlink:href="#m41c8fca6c4" y="102.048253"/>
      </g>
     </g>
     <g id="text_27">
      <!-- 11000 -->
      <g transform="translate(69.1875 105.847471)scale(0.1 -0.1)">
       <use xlink:href="#DejaVuSans-49"/>
       <use x="63.623047" xlink:href="#DejaVuSans-49"/>
       <use x="127.246094" xlink:href="#DejaVuSans-48"/>
       <use x="190.869141" xlink:href="#DejaVuSans-48"/>
       <use x="254.492188" xlink:href="#DejaVuSans-48"/>
      </g>
     </g>
    </g>
    <g id="text_28">
     <!-- MB -->
     <g transform="translate(63.52375 260.715625)rotate(-90)scale(0.08 -0.08)">
      <defs>
       <path d="M 9.8125 72.90625 
L 24.515625 72.90625 
L 43.109375 23.296875 
L 61.8125 72.90625 
L 76.515625 72.90625 
L 76.515625 0 
L 66.890625 0 
L 66.890625 64.015625 
L 48.09375 14.015625 
L 38.1875 14.015625 
L 19.390625 64.015625 
L 19.390625 0 
L 9.8125 0 
z
" id="DejaVuSans-77"/>
       <path d="M 19.671875 34.8125 
L 19.671875 8.109375 
L 35.5 8.109375 
Q 43.453125 8.109375 47.28125 11.40625 
Q 51.125 14.703125 51.125 21.484375 
Q 51.125 28.328125 47.28125 31.5625 
Q 43.453125 34.8125 35.5 34.8125 
z
M 19.671875 64.796875 
L 19.671875 42.828125 
L 34.28125 42.828125 
Q 41.5 42.828125 45.03125 45.53125 
Q 48.578125 48.25 48.578125 53.8125 
Q 48.578125 59.328125 45.03125 62.0625 
Q 41.5 64.796875 34.28125 64.796875 
z
M 9.8125 72.90625 
L 35.015625 72.90625 
Q 46.296875 72.90625 52.390625 68.21875 
Q 58.5 63.53125 58.5 54.890625 
Q 58.5 48.1875 55.375 44.234375 
Q 52.25 40.28125 46.1875 39.3125 
Q 53.46875 37.75 57.5 32.78125 
Q 61.53125 27.828125 61.53125 20.40625 
Q 61.53125 10.640625 54.890625 5.3125 
Q 48.25 0 35.984375 0 
L 9.8125 0 
z
" id="DejaVuSans-66"/>
      </defs>
      <use xlink:href="#DejaVuSans-77"/>
      <use x="86.279297" xlink:href="#DejaVuSans-66"/>
     </g>
    </g>
   </g>
   <g id="line2d_27">
    <path clip-path="url(#pae88ae9ab8)" d="M 132.349091 81.133202 
L 132.611191 81.249937 
L 132.873291 79.572425 
L 133.135391 82.628838 
L 133.397491 81.547259 
L 133.659591 79.707219 
L 133.921691 79.133215 
L 134.183791 78.12 
L 134.445891 78.746245 
L 134.707991 79.013899 
L 134.970091 78.653373 
L 135.232191 87.191208 
L 136.280591 170.819164 
L 138.115291 303.338124 
L 138.377391 311.86822 
L 138.639491 314.469299 
L 138.901591 314.849819 
L 139.163691 315.630852 
L 139.425791 316.048779 
L 139.949991 315.669549 
L 140.212091 315.79209 
L 140.736291 317.101336 
L 140.998391 317.032971 
L 141.260491 316.600856 
L 141.522591 317.465732 
L 142.046791 317.23484 
L 142.308891 316.991695 
L 142.570991 317.089082 
L 142.833091 317.505074 
L 143.095191 317.285146 
L 143.357291 317.247739 
L 143.619391 316.716946 
L 143.881491 316.927845 
L 144.405691 316.968476 
L 144.667791 316.179059 
L 144.929891 317.296111 
L 145.191991 317.727581 
L 145.978291 316.707917 
L 146.240391 317.845607 
L 146.502491 317.360605 
L 146.764591 317.320619 
L 147.026691 316.950418 
L 147.550891 318.150668 
L 147.812991 318.168082 
L 148.075091 317.639868 
L 148.337192 317.790141 
L 148.599292 318.213228 
L 148.861392 318.237736 
L 149.123492 317.976532 
L 149.385592 317.355446 
L 149.909792 317.766923 
L 150.433992 316.567963 
L 150.696092 316.941389 
L 150.958192 317.856571 
L 151.220292 317.844317 
L 151.744492 317.387048 
L 152.006592 317.857861 
L 152.268692 317.55151 
L 152.530792 317.534097 
L 152.792892 317.063929 
L 153.317092 318.220322 
L 153.579192 318.365436 
L 153.841292 320.382836 
L 154.365492 321.526976 
L 154.627592 321.221915 
L 154.889692 321.28254 
L 155.151792 320.83817 
L 155.413892 322.508588 
L 155.675992 320.115828 
L 155.938092 319.994577 
L 156.200192 319.589549 
L 156.724392 320.606634 
L 156.986492 320.630497 
L 157.510692 320.318987 
L 157.772792 321.057453 
L 158.296992 321.1026 
L 158.559092 320.696282 
L 158.821192 320.717565 
L 159.083292 321.116143 
L 159.345392 321.020046 
L 159.607492 320.489898 
L 160.131692 321.339941 
L 160.655892 321.338006 
L 161.180092 320.77948 
L 161.442192 320.59051 
L 161.966392 319.748207 
L 162.228492 320.234498 
L 162.490592 321.025851 
L 162.752692 320.831076 
L 163.014792 320.888476 
L 163.276892 320.326081 
L 163.538992 321.023916 
L 163.801092 321.129687 
L 164.063192 320.961356 
L 164.325292 320.491188 
L 164.587392 322.906522 
L 164.849492 324.213833 
L 165.111592 324.139019 
L 165.373692 323.445054 
L 165.635792 321.704337 
L 166.159992 322.030036 
L 166.684192 320.40025 
L 166.946292 321.529556 
L 167.470492 321.605015 
L 167.994692 320.681448 
L 168.256792 322.179664 
L 169.043092 321.051649 
L 169.305192 321.805594 
L 169.567292 321.776571 
L 169.829392 321.538585 
L 170.091492 320.998118 
L 170.615692 321.787535 
L 170.877792 321.874603 
L 171.139892 320.7769 
L 171.401992 321.018111 
L 171.664092 322.108075 
L 171.926192 322.188694 
L 172.450392 321.266417 
L 172.712492 321.34639 
L 172.974592 321.208371 
L 173.236692 321.207081 
L 173.498792 320.780125 
L 174.022992 321.873314 
L 174.285092 323.843633 
L 174.547192 323.893294 
L 174.809292 323.413452 
L 175.071393 323.970688 
L 175.333493 322.222231 
L 175.595593 322.278987 
L 175.857693 321.09357 
L 176.381893 322.060994 
L 176.643993 322.015847 
L 176.906093 321.352195 
L 177.430293 322.04229 
L 177.692393 321.461191 
L 177.954493 321.357999 
L 178.216593 320.985864 
L 178.478693 322.275117 
L 178.740793 322.282211 
L 179.264993 321.585666 
L 179.527093 322.128713 
L 180.051293 322.189339 
L 180.313393 321.793985 
L 180.575493 321.179348 
L 180.837593 322.790431 
L 181.099693 322.73948 
L 181.623893 321.880408 
L 181.885993 322.989075 
L 182.148093 322.748509 
L 182.410193 322.740125 
L 182.672293 322.279631 
L 182.934393 322.647252 
L 183.196493 323.782363 
L 183.458593 323.258664 
L 183.720693 326.051293 
L 184.244893 324.905864 
L 184.506993 324.882646 
L 184.769093 324.611122 
L 185.031193 323.908773 
L 185.293293 324.355722 
L 185.555393 325.122567 
L 185.817493 325.253491 
L 186.079593 324.358302 
L 186.341693 323.953274 
L 186.603793 325.111603 
L 186.865893 325.357328 
L 187.127993 325.119342 
L 187.390093 324.725278 
L 187.652193 325.204475 
L 187.914293 325.261231 
L 188.176393 325.125146 
L 188.438493 324.616282 
L 188.700593 324.834274 
L 188.962693 325.479223 
L 189.224793 325.681737 
L 189.486893 325.697216 
L 189.748993 324.905219 
L 190.011093 325.543718 
L 190.273193 325.27542 
L 190.535293 325.252846 
L 190.797393 324.556946 
L 191.059493 324.554367 
L 191.321593 325.597894 
L 191.583693 325.327015 
L 191.845793 324.82331 
L 192.107893 324.89619 
L 192.369993 325.846844 
L 192.632093 325.822981 
L 193.156293 324.841369 
L 193.418393 325.121277 
L 193.680493 326.129332 
L 193.942593 325.921658 
L 194.204693 325.310892 
L 194.728893 324.882001 
L 195.515193 324.418927 
L 195.777293 325.488898 
L 196.039393 325.45536 
L 196.301493 325.242527 
L 196.563593 324.82589 
L 196.825693 324.856848 
L 197.087793 325.84491 
L 197.349893 328.059664 
L 197.874093 327.134163 
L 198.136193 327.951958 
L 198.398293 326.330556 
L 198.660393 326.501468 
L 198.922493 325.973899 
L 199.184593 326.034525 
L 199.446693 325.904245 
L 199.708793 325.978414 
L 199.970893 325.33669 
L 200.232993 325.71205 
L 200.495093 325.889411 
L 200.757193 328.101586 
L 201.019293 328.231866 
L 201.543493 326.878118 
L 201.805594 327.022586 
L 202.329794 325.923593 
L 202.591894 325.534689 
L 202.853994 326.205436 
L 203.378194 326.314432 
L 203.640294 325.739138 
L 203.902394 326.548549 
L 204.164494 326.471155 
L 204.426594 325.981639 
L 204.688694 325.96358 
L 204.950794 326.364093 
L 205.212894 327.376018 
L 205.474994 327.205752 
L 205.999194 326.399566 
L 206.261294 326.111918 
L 206.785494 326.004212 
L 207.047594 325.384416 
L 207.309694 326.237683 
L 207.571794 326.660125 
L 208.095994 325.613373 
L 208.358094 325.873287 
L 208.620194 326.328621 
L 209.144394 326.391181 
L 209.406494 325.909404 
L 209.668594 327.5508 
L 209.930694 326.737519 
L 210.192794 326.504047 
L 210.454894 325.867483 
L 210.716994 326.28025 
L 211.241194 326.546614 
L 211.765394 325.736558 
L 212.027494 327.030971 
L 212.289594 327.293465 
L 212.813794 326.188667 
L 213.075894 325.909404 
L 213.337994 326.102889 
L 213.862194 325.283804 
L 214.124294 325.000671 
L 214.386394 326.335716 
L 214.648494 325.915854 
L 214.910594 326.072577 
L 215.172694 325.599829 
L 215.434794 325.888766 
L 215.696894 326.720105 
L 216.221094 325.711405 
L 216.483194 326.161579 
L 216.745294 327.141902 
L 217.269494 326.796854 
L 217.531594 326.248003 
L 217.793694 327.335387 
L 218.055794 327.262507 
L 218.317894 327.043225 
L 218.579994 326.475025 
L 218.842094 326.174478 
L 219.104194 326.620138 
L 219.628394 325.20512 
L 219.890494 325.470839 
L 220.152594 326.974215 
L 220.676794 326.889082 
L 220.938894 326.47051 
L 221.200994 326.362804 
L 221.463094 326.950352 
L 221.725194 326.683343 
L 221.987294 326.637552 
L 222.249394 326.09257 
L 222.511494 327.078697 
L 222.773594 327.194788 
L 223.035694 326.925199 
L 223.297794 326.132557 
L 223.559894 325.916499 
L 223.821994 326.215755 
L 224.346194 325.313472 
L 224.870394 326.573057 
L 225.656694 325.811372 
L 225.918794 326.717526 
L 226.442994 326.736874 
L 226.705094 325.764936 
L 227.229294 327.04387 
L 228.015594 326.903271 
L 228.801895 326.295084 
L 229.063995 325.675933 
L 229.326095 325.986798 
L 229.588195 327.04 
L 229.850295 326.889082 
L 230.112395 326.413755 
L 230.374495 328.315709 
L 230.898695 328.674946 
L 231.160795 326.885857 
L 231.422895 326.27767 
L 231.684995 327.282501 
L 232.471295 326.420849 
L 232.995495 327.252833 
L 233.257595 326.815558 
L 233.519695 326.694307 
L 233.781795 326.378282 
L 234.043895 327.089016 
L 234.305995 326.358934 
L 234.568095 326.22285 
L 234.830195 325.560487 
L 235.354395 326.757512 
L 235.616495 326.792985 
L 235.878595 326.15384 
L 236.402795 326.722685 
L 236.664895 326.571122 
L 236.926995 329.352787 
L 237.189095 328.923251 
L 237.451195 330.550457 
L 237.975395 330.273129 
L 238.237495 329.951945 
L 238.761695 329.914538 
L 239.285895 328.892938 
L 239.810095 329.343113 
L 240.334295 329.076749 
L 240.596395 328.692359 
L 240.858495 329.18768 
L 241.120595 331.918394 
L 241.382695 332.044804 
L 241.644795 331.71846 
L 241.906895 330.01257 
L 242.168995 330.397604 
L 242.431095 330.26023 
L 242.693195 329.457914 
L 242.955295 329.403093 
L 243.217395 330.707825 
L 243.479495 330.598829 
L 243.741595 330.654294 
L 244.003695 329.366331 
L 244.527895 329.822955 
L 244.789995 329.571425 
L 245.052095 329.69332 
L 245.314195 329.422442 
L 245.576295 329.684291 
L 245.838395 329.328924 
L 246.100495 329.352142 
L 246.362595 329.076749 
L 246.624695 330.07513 
L 246.886795 330.429852 
L 247.148895 330.280869 
L 247.410995 329.81715 
L 247.935195 330.078355 
L 248.197295 329.836499 
L 248.721495 329.129635 
L 248.983595 330.473708 
L 249.245695 330.565291 
L 249.769895 329.704284 
L 250.031995 330.292478 
L 250.294095 330.559487 
L 250.556195 330.591734 
L 251.342495 329.672037 
L 251.604595 330.037078 
L 252.128795 329.3128 
L 252.390895 329.691385 
L 252.652995 330.527239 
L 252.915095 330.578835 
L 253.177195 329.977098 
L 253.439295 330.901955 
L 253.963495 330.720079 
L 254.225595 329.757815 
L 254.487695 329.790707 
L 255.011895 331.179928 
L 255.273995 331.157354 
L 255.536096 330.801987 
L 255.798196 330.760066 
L 256.060296 331.379217 
L 256.322396 330.905824 
L 256.584496 330.944521 
L 256.846596 330.39696 
L 257.108696 330.765225 
L 257.370796 330.51305 
L 257.632896 330.498861 
L 257.894996 329.843593 
L 258.419196 331.448871 
L 258.681296 331.355999 
L 258.943396 330.760066 
L 259.205496 330.57819 
L 259.467596 331.240553 
L 259.729696 330.763291 
L 259.991796 330.82972 
L 260.253896 330.054492 
L 260.515996 331.535939 
L 260.778096 331.070286 
L 261.040196 331.058032 
L 261.302296 330.64204 
L 261.564396 330.533689 
L 261.826496 331.020625 
L 262.350696 331.121237 
L 262.612796 330.581415 
L 262.874896 331.606239 
L 263.136996 333.621705 
L 263.399096 333.61461 
L 263.661196 333.332767 
L 263.923296 331.254742 
L 264.185396 331.558513 
L 264.447496 331.579796 
L 264.709596 330.220244 
L 264.971696 329.899704 
L 265.233796 330.904534 
L 265.495896 330.952261 
L 265.757996 331.143166 
L 266.020096 330.562066 
L 266.282196 333.131543 
L 266.544296 333.719092 
L 266.806396 333.537861 
L 267.068496 331.432103 
L 267.330596 331.509497 
L 267.592696 331.985469 
L 267.854796 331.548838 
L 268.116896 331.610109 
L 268.378996 330.949681 
L 268.641096 331.703626 
L 268.903196 331.372122 
L 269.165296 331.415334 
L 269.427396 330.732333 
L 269.951596 332.055768 
L 270.213696 332.182823 
L 270.475796 331.948707 
L 270.737896 330.646555 
L 270.999996 334.396288 
L 271.524196 334.37436 
L 271.786296 333.794551 
L 272.310496 334.987706 
L 272.834696 334.204093 
L 273.096796 334.390484 
L 273.358896 335.44691 
L 273.620996 335.043817 
L 273.883096 334.845173 
L 274.145196 334.302771 
L 274.407296 335.662323 
L 274.669396 334.639434 
L 275.193596 333.968042 
L 275.455696 334.50464 
L 275.717796 334.606542 
L 275.979896 334.407897 
L 276.241996 333.415321 
L 276.504096 333.583008 
L 276.766196 334.308575 
L 277.028296 334.418217 
L 277.290396 334.321474 
L 277.552496 333.823574 
L 277.814596 334.453044 
L 278.076696 334.627825 
L 278.600896 334.296966 
L 279.125096 335.0077 
L 279.649296 335.017374 
L 279.911396 334.623955 
L 280.173496 335.813886 
L 280.435596 334.196354 
L 280.697696 334.177651 
L 280.959796 333.315354 
L 281.221896 333.812609 
L 281.483996 334.752945 
L 281.746096 334.215703 
L 282.270297 333.693939 
L 282.532397 334.806476 
L 282.794497 334.515604 
L 283.056597 337.030905 
L 283.318697 336.348549 
L 284.104997 337.673274 
L 284.629197 336.955446 
L 284.891297 337.705522 
L 285.153397 338.055729 
L 285.415497 337.152155 
L 285.677597 336.737453 
L 285.939697 337.577177 
L 286.201797 337.874498 
L 286.725997 336.14668 
L 286.988097 336.643936 
L 287.250197 337.708746 
L 287.512297 337.334031 
L 287.774397 337.257282 
L 288.036497 336.747127 
L 288.298597 337.462376 
L 288.822797 337.493978 
L 289.084897 336.873537 
L 289.346997 337.334031 
L 289.609097 338.22535 
L 289.871197 338.044765 
L 290.133297 338.027996 
L 290.395397 337.558473 
L 290.919597 338.037025 
L 291.181697 338.011872 
L 291.443797 337.050898 
L 291.967997 338.186654 
L 292.230097 338.136347 
L 292.754297 337.210846 
L 293.016397 337.944153 
L 293.540597 337.810648 
L 293.802697 337.350155 
L 294.064797 338.214386 
L 294.326897 338.173755 
L 294.588997 337.673919 
L 294.851097 336.856769 
L 295.375297 338.422705 
L 295.637397 337.65715 
L 295.899497 339.127634 
L 296.161597 339.11925 
L 296.423697 340.115696 
L 296.685797 339.835788 
L 296.947897 338.318868 
L 297.209997 337.637802 
L 297.472097 338.132478 
L 298.520497 337.086371 
L 298.782597 338.554274 
L 299.568897 337.815163 
L 299.830997 338.374334 
L 300.093097 338.260823 
L 300.355197 336.888371 
L 300.617297 336.851609 
L 301.141497 338.411741 
L 301.403597 338.243409 
L 301.665697 338.460757 
L 301.927797 337.982205 
L 302.189897 340.597473 
L 302.451997 341.07409 
L 302.714097 340.990892 
L 302.976197 340.561356 
L 303.500397 341.612623 
L 303.762497 341.611333 
L 304.024597 341.39721 
L 304.286697 340.175031 
L 304.548797 341.275314 
L 304.810897 340.674222 
L 305.072997 340.70002 
L 305.597197 343.348825 
L 305.859297 343.41203 
L 306.121397 343.22951 
L 306.383497 341.252096 
L 306.645597 341.348838 
L 306.907697 342.296269 
L 307.169797 342.006686 
L 307.431897 342.401395 
L 307.693997 341.369477 
L 307.956097 342.230484 
L 308.218197 342.008621 
L 308.480297 342.013781 
L 308.742397 341.078605 
L 309.004498 342.143416 
L 309.266598 342.291109 
L 309.790798 341.01153 
L 310.052898 341.218559 
L 310.314998 341.150194 
L 310.577098 341.210819 
L 310.839198 341.041843 
L 311.101298 340.688411 
L 311.363398 340.682606 
L 311.625498 341.57586 
L 311.887598 341.611978 
L 312.149698 340.676157 
L 312.411798 340.885765 
L 312.673898 341.931872 
L 312.935998 341.805462 
L 313.460198 340.761935 
L 313.722298 344.342047 
L 313.984398 344.511023 
L 314.246498 344.371069 
L 314.508598 343.5436 
L 314.770698 344.241435 
L 315.294898 343.259822 
L 315.556998 343.233379 
L 315.819098 342.480724 
L 316.081198 344.35946 
L 316.343298 344.060849 
L 317.129598 343.748049 
L 317.391698 344.076328 
L 317.653798 344.213057 
L 317.915898 343.555209 
L 318.177998 343.34689 
L 318.440098 344.564554 
L 318.702198 344.719987 
L 318.964298 344.6226 
L 319.226398 343.808029 
L 319.488498 344.49232 
L 320.012698 344.896703 
L 320.274798 344.36075 
L 320.798998 345.74997 
L 321.061098 345.62872 
L 321.585298 344.697414 
L 321.847398 344.672261 
L 322.109498 344.834788 
L 322.371598 343.824153 
L 322.633698 343.779651 
L 322.895798 344.129859 
L 323.157898 344.894123 
L 323.419998 344.741915 
L 323.944198 344.230471 
L 324.206298 344.587127 
L 324.468398 344.632919 
L 324.730498 344.794801 
L 324.992598 344.167266 
L 325.254698 344.601961 
L 325.516798 345.619691 
L 325.778898 345.412662 
L 326.040998 344.892188 
L 326.303098 344.944429 
L 326.565198 345.857032 
L 327.089398 345.551326 
L 327.351498 345.18822 
L 327.613598 345.062455 
L 328.137798 345.100507 
L 328.399898 344.513603 
L 328.661998 344.923146 
L 328.924098 346.633551 
L 329.186198 346.679987 
L 329.448298 346.154353 
L 329.710398 344.293676 
L 329.972498 344.929595 
L 330.234598 345.150813 
L 330.496698 344.980546 
L 330.758798 344.185324 
L 331.020898 345.660322 
L 331.545098 345.575834 
L 331.807198 344.516828 
L 332.069298 346.739967 
L 332.331398 347.314617 
L 332.593498 347.188207 
L 332.855598 347.306877 
L 333.117698 345.361711 
L 333.379798 346.436841 
L 333.641898 346.748351 
L 334.428198 344.852846 
L 334.690298 345.246265 
L 335.214498 345.352037 
L 335.476598 344.289806 
L 335.738699 345.051491 
L 336.262899 345.095347 
L 336.524999 344.273682 
L 337.049199 345.548746 
L 337.311299 345.348167 
L 337.573399 344.853491 
L 337.835499 345.134689 
L 338.097599 346.009885 
L 338.359699 346.088569 
L 338.621799 345.956354 
L 338.883899 345.511984 
L 339.145999 346.410398 
L 339.670199 345.8867 
L 339.932299 345.346232 
L 340.194399 345.829944 
L 340.456499 345.279158 
L 340.718599 345.424916 
L 340.980699 344.54843 
L 341.242799 344.437499 
L 341.504899 346.0015 
L 341.766999 345.986667 
L 342.029099 345.835104 
L 342.291199 345.399118 
L 342.815399 345.850582 
L 343.077499 345.865416 
L 343.339599 345.43717 
L 343.863799 346.26077 
L 344.387999 346.111142 
L 344.650099 345.456519 
L 344.912199 346.519395 
L 345.174299 346.161448 
L 345.436399 346.282698 
L 345.698499 345.845423 
L 346.222699 347.117262 
L 346.746899 347.123067 
L 347.008999 345.641619 
L 347.271099 345.937006 
L 347.533199 345.835104 
L 347.795299 345.192734 
L 348.057399 344.986351 
L 348.319499 345.195959 
L 348.581599 346.105982 
L 348.843699 346.059546 
L 349.105799 345.504245 
L 349.367899 345.513274 
L 349.629999 347.174018 
L 349.892099 346.561316 
L 350.154199 346.725778 
L 350.416299 346.063416 
L 350.678399 345.953774 
L 350.940499 346.418138 
L 351.202599 346.243356 
L 351.464699 345.844133 
L 351.988899 346.914103 
L 352.250999 346.870892 
L 352.513099 346.631616 
L 352.775199 345.689345 
L 353.037299 346.072445 
L 353.299399 346.229812 
L 353.823599 345.428141 
L 354.085699 345.635169 
L 354.347799 346.980533 
L 354.609899 346.227233 
L 354.871999 346.13823 
L 355.134099 345.357841 
L 355.396199 346.445225 
L 355.920399 346.300757 
L 356.182499 345.75513 
L 356.444599 346.133715 
L 356.706699 346.892175 
L 356.968799 346.770925 
L 357.230899 345.754485 
L 357.492999 345.596473 
L 357.755099 346.307851 
L 358.279299 346.06535 
L 358.541399 345.602922 
L 358.803499 346.216269 
L 359.327699 346.317526 
L 359.589799 345.798987 
L 359.851899 346.516815 
L 360.900299 345.375255 
L 361.162399 347.20949 
L 361.424499 347.029549 
L 361.686599 354.162685 
L 361.948699 353.654465 
L 362.210799 354.241369 
L 362.4729 351.995012 
L 362.735 352.194301 
L 362.9971 351.709944 
L 363.2592 351.595788 
L 363.5213 352.240737 
L 363.7834 352.334255 
L 364.0455 352.064666 
L 364.3076 351.402948 
L 364.5697 354.92437 
L 365.0939 355.189444 
L 365.356 354.713472 
L 365.8802 355.380994 
L 366.1423 355.425495 
L 366.6665 354.202027 
L 366.9286 354.98177 
L 367.1907 355.030786 
L 367.4528 354.755393 
L 367.7149 354.238789 
L 367.977 354.761198 
L 368.7633 353.853755 
L 369.0254 354.324567 
L 369.2875 355.245554 
L 369.5496 355.23459 
L 369.8117 355.378414 
L 370.0738 354.699928 
L 370.3359 355.163001 
L 370.598 355.093991 
L 370.8601 355.230721 
L 371.1222 354.677999 
L 371.3843 355.189444 
L 371.6464 354.612215 
L 371.9085 354.709602 
L 372.4327 354.048529 
L 372.6948 354.691543 
L 372.9569 354.831497 
L 373.219 354.758618 
L 373.4811 354.136242 
L 373.7432 354.444528 
L 374.0053 355.515788 
L 374.2674 355.283606 
L 374.5295 354.858585 
L 374.7916 354.765712 
L 375.3158 354.998539 
L 375.5779 354.680579 
L 375.84 353.982744 
L 376.3642 355.319724 
L 376.6263 355.320369 
L 376.8884 354.92179 
L 377.1505 355.43001 
L 377.4126 355.138493 
L 377.9368 355.004344 
L 378.1989 354.623179 
L 378.461 355.80666 
L 378.7231 355.998855 
L 378.9852 356.053031 
L 379.2473 355.139783 
L 379.7715 355.653162 
L 380.0336 355.593182 
L 380.5578 354.870839 
L 380.8199 356.302626 
L 381.3441 356.465798 
L 381.6062 355.938875 
L 381.8683 355.983376 
L 382.1304 354.624469 
L 382.3925 354.60383 
L 382.6546 354.150431 
L 382.9167 354.084001 
L 383.1788 355.24362 
L 383.703 355.730556 
L 383.9651 355.424205 
L 384.2272 355.301665 
L 384.4893 356.00337 
L 384.7514 355.754419 
L 385.0135 354.961777 
L 385.2756 355.019822 
L 385.5377 355.983376 
L 385.7998 355.92791 
L 386.0619 356.078829 
L 386.324 355.658967 
L 386.5861 356.527713 
L 387.1103 354.977256 
L 387.3724 354.98435 
L 387.6345 355.159776 
L 387.8966 356.350352 
L 388.1587 356.174926 
L 388.4208 356.288437 
L 388.6829 354.552234 
L 388.945 356.103982 
L 389.2071 356.024653 
L 389.731301 355.072708 
L 389.993401 355.028207 
L 390.255501 355.584798 
L 390.779701 355.404212 
L 391.041801 354.944363 
L 391.303901 356.534163 
L 391.566001 356.587693 
L 391.828101 356.459993 
L 392.090201 356.198789 
L 392.352301 355.749905 
L 392.614401 356.696045 
L 392.876501 356.704429 
L 393.138601 355.595117 
L 393.400701 356.093662 
L 393.662801 356.331004 
L 394.187001 355.466127 
L 394.711201 358.243277 
L 394.973301 358.291649 
L 395.235401 356.749576 
L 395.497501 356.174281 
L 395.759601 356.262639 
L 396.021701 356.856637 
L 396.545901 355.639618 
L 396.808001 355.609951 
L 397.070101 356.274248 
L 397.594301 355.464192 
L 397.856401 357.755051 
L 398.380601 358.866943 
L 398.642701 356.927581 
L 398.904801 356.307141 
L 399.166901 356.845673 
L 399.429001 358.392906 
L 399.691101 357.796973 
L 399.953201 357.711194 
L 400.215301 356.817295 
L 400.477401 356.991431 
L 401.001601 356.512234 
L 401.263701 355.93049 
L 401.787901 357.366792 
L 402.574201 356.536742 
L 402.836301 357.07205 
L 403.098401 357.176532 
L 403.360501 355.945324 
L 403.622601 355.974347 
L 403.884701 356.325844 
L 404.146801 357.273274 
L 404.408901 357.133965 
L 404.671001 356.748286 
L 404.933101 357.054636 
L 405.195201 357.182981 
L 405.457301 356.657993 
L 405.719401 356.690885 
L 405.981501 356.247805 
L 406.243601 357.51642 
L 406.505701 356.338743 
L 406.767801 356.198144 
L 407.292001 355.490635 
L 407.554101 355.971122 
L 408.340401 355.301665 
L 408.602501 355.791826 
L 408.864601 355.855031 
L 409.388801 355.119144 
L 409.650901 355.751839 
L 409.913001 355.701533 
L 410.175101 355.827298 
L 410.437201 355.764093 
L 410.699301 355.317144 
L 410.961401 355.731846 
L 411.485601 355.726686 
L 411.747701 355.431945 
L 412.009801 355.697664 
L 412.271901 356.346482 
L 412.534001 356.293597 
L 412.796101 355.938875 
L 413.058201 355.16945 
L 413.320301 356.679921 
L 413.582401 356.174926 
L 413.844501 356.063995 
L 414.106601 355.631234 
L 414.368701 355.99176 
L 414.630801 355.733136 
L 414.892901 354.898572 
L 415.155001 354.761198 
L 415.417101 355.265548 
L 415.679201 356.577374 
L 415.941301 356.278763 
L 416.203402 356.191695 
L 416.465502 354.714761 
L 416.727602 355.391958 
L 416.989702 355.468062 
L 417.251802 355.250069 
L 417.513902 354.654781 
L 417.776002 355.278447 
L 418.562302 354.47484 
L 418.824402 354.101415 
L 419.086502 354.647042 
L 419.348602 354.750879 
L 419.610702 354.698638 
L 419.872802 354.245239 
L 420.134902 354.557394 
L 420.397002 355.394538 
L 420.659102 355.562224 
L 420.921202 354.792155 
L 421.445402 356.518684 
L 421.707502 356.432906 
L 421.969602 355.310049 
L 422.231702 354.932109 
L 422.493802 356.014334 
L 422.755902 356.176216 
L 423.018002 356.025943 
L 423.280102 355.635104 
L 423.542202 356.011109 
L 423.804302 355.095926 
L 424.066402 354.599961 
L 424.328502 354.511603 
L 424.590602 354.128503 
L 424.852702 355.401632 
L 425.114802 355.656387 
L 425.376902 355.679605 
L 425.639002 355.342942 
L 426.425302 355.589312 
L 426.687402 355.150747 
L 426.949502 355.395828 
L 427.211602 356.49998 
L 427.735802 361.023008 
L 428.260002 359.453202 
L 428.522102 359.570582 
L 428.784202 359.382902 
L 429.046302 358.287134 
L 429.308402 358.794064 
L 429.832602 359.221665 
L 430.094702 358.833406 
L 430.356802 358.163304 
L 430.881002 358.672168 
L 431.143102 358.40129 
L 431.405202 357.513195 
L 431.929402 358.980454 
L 432.191502 359.199092 
L 432.453602 358.659269 
L 432.977802 359.688608 
L 433.502002 359.585416 
L 433.764102 358.850174 
L 434.026202 359.863389 
L 434.550402 359.865969 
L 434.812502 358.619283 
L 435.074602 359.071392 
L 435.336702 359.183613 
L 435.860902 359.140401 
L 436.123002 358.886292 
L 436.385102 360.973346 
L 436.647202 361.154577 
L 436.909302 360.641198 
L 437.171402 360.410306 
L 437.433502 358.980454 
L 437.695602 359.868549 
L 437.957702 359.91692 
L 438.219802 359.012057 
L 438.481902 359.082356 
L 438.744002 359.429984 
L 439.006102 359.237789 
L 439.268202 359.240369 
L 439.530302 358.789549 
L 439.792402 360.303889 
L 440.054502 360.025916 
L 440.316602 359.978835 
L 440.578702 359.419664 
L 440.840802 359.856295 
L 441.102902 359.85952 
L 441.365002 359.720856 
L 441.627102 359.234564 
L 441.889202 359.179098 
L 442.151302 360.067838 
L 442.675502 360.124594 
L 443.199703 358.868878 
L 443.461803 359.552524 
L 443.723903 359.618954 
L 443.986003 358.955946 
L 444.510203 359.898861 
L 444.772303 359.706022 
L 445.034403 359.818888 
L 445.296503 359.067522 
L 445.820703 360.131043 
L 446.082803 360.061389 
L 446.344903 359.60154 
L 446.607003 360.330977 
L 446.869103 360.434814 
L 447.131203 360.296795 
L 447.655403 359.420954 
L 447.917503 360.390313 
L 448.441703 360.372899 
L 448.703803 360.007213 
L 448.965903 359.195222 
L 449.228003 359.969161 
L 449.490103 359.862099 
L 450.014303 359.076551 
L 450.276403 360.398697 
L 450.538503 360.176834 
L 450.800603 360.161356 
L 451.062703 359.779546 
L 451.324803 359.78922 
L 451.586903 360.48512 
L 451.849003 360.352906 
L 452.111103 359.85823 
L 452.373203 360.334847 
L 452.635303 360.42643 
L 452.897403 360.136848 
L 453.421603 359.050109 
L 453.683703 359.930464 
L 453.945803 360.171675 
L 454.207903 360.080092 
L 454.470003 358.862428 
L 454.732103 358.994643 
L 454.994203 359.620888 
L 455.256303 359.826627 
L 455.518403 359.829207 
L 455.780503 359.241013 
L 456.042603 359.971741 
L 456.304703 360.079447 
L 456.828903 359.195222 
L 457.091003 359.711826 
L 457.353103 360.496084 
L 459.187803 358.347759 
L 459.449903 358.767621 
L 459.712003 359.929174 
L 459.974103 360.055584 
L 460.236203 361.060415 
L 460.498303 363.629246 
L 460.760403 364.429628 
L 461.022503 362.853373 
L 461.284603 362.676657 
L 461.546703 362.26002 
L 461.808803 363.20229 
L 462.070903 362.498651 
L 462.333003 362.445765 
L 462.595103 361.636999 
L 462.857203 362.007845 
L 463.119303 362.138769 
L 463.381403 362.120066 
L 463.643503 364.419954 
L 463.905603 363.693741 
L 464.167703 364.971385 
L 464.429803 363.442211 
L 464.691903 363.347404 
L 464.954003 362.648924 
L 465.216103 362.921737 
L 465.478203 362.360632 
L 465.740303 362.440605 
L 466.002403 361.75438 
L 466.264503 362.113616 
L 466.526603 362.901099 
L 466.788703 362.732767 
L 467.050803 365.165515 
L 467.312903 364.884962 
L 467.575003 365.949773 
L 468.099203 365.417045 
L 468.361303 364.824982 
L 468.623403 365.592471 
L 468.885503 365.951708 
L 469.147603 365.86077 
L 469.671804 364.897861 
L 469.933904 365.85561 
L 470.196004 365.942034 
L 470.720204 364.984929 
L 470.982304 364.988154 
L 471.244404 364.526371 
L 471.506504 363.823376 
L 472.030704 363.056532 
L 472.292804 364.226469 
L 472.817004 364.205831 
L 473.079104 363.65311 
L 473.341204 364.521211 
L 473.603304 364.408345 
L 473.865404 364.588286 
L 474.127504 364.016216 
L 474.651704 364.503152 
L 474.913804 364.205186 
L 475.175904 363.288068 
L 475.438004 363.409964 
L 475.700104 364.334821 
L 476.486404 362.692781 
L 476.748504 362.973333 
L 477.010604 362.755341 
L 477.272704 362.799842 
L 477.534804 362.303876 
L 478.059004 363.243567 
L 478.321104 365.362224 
L 478.845304 366.801106 
L 479.369504 369.940717 
L 479.631604 380.786825 
L 479.893704 380.906785 
L 480.155804 378.274103 
L 480.680004 404.938875 
L 480.942104 413.180033 
L 481.204204 430.92 
L 481.466304 417.597289 
L 481.728404 420.878144 
L 481.990504 421.041961 
L 482.252604 392.646147 
L 482.514704 399.707693 
L 482.776804 411.273564 
L 483.038904 412.553142 
L 483.301004 405.868891 
L 483.825204 405.754735 
L 484.349404 405.767634 
L 484.611504 405.665087 
L 484.873604 406.271984 
L 485.135704 406.022389 
L 485.397804 406.148799 
L 485.659904 405.601237 
L 485.922004 405.961764 
L 486.184104 405.948865 
L 486.446204 406.056571 
L 486.970404 405.089148 
L 487.232504 406.241027 
L 487.494604 406.39001 
L 487.756704 406.168792 
L 488.018804 405.63155 
L 488.280904 405.796012 
L 488.543004 406.711194 
L 488.805104 405.685081 
L 489.067204 405.265219 
L 489.853504 405.744416 
L 490.115604 405.560605 
L 490.377704 404.947904 
L 490.639804 405.474827 
L 491.164004 404.023692 
L 491.426104 403.383258 
L 491.688204 403.436143 
L 491.950304 404.598987 
L 492.212404 404.639618 
L 492.474504 404.482251 
L 492.736604 403.813439 
L 492.998704 406.749891 
L 493.260804 406.88791 
L 493.522904 406.817611 
L 493.785004 406.395814 
L 494.047104 404.81053 
L 494.309204 405.195564 
L 494.571304 404.611241 
L 494.833404 403.448397 
L 495.357604 403.018217 
L 495.881804 402.993064 
L 496.143904 402.40874 
L 496.406005 403.745719 
L 496.668105 403.582547 
L 497.192305 402.432603 
L 497.716505 403.472261 
L 498.240705 403.455492 
L 498.502805 402.924054 
L 498.764905 404.249424 
L 499.813305 403.35746 
L 500.075405 403.610925 
L 500.337505 403.41615 
L 500.599605 402.794419 
L 500.861705 403.325857 
L 501.123805 404.29973 
L 501.648005 404.028207 
L 501.910105 403.586417 
L 502.434305 404.288121 
L 502.696405 404.400987 
L 502.958505 404.161711 
L 503.220605 404.49257 
L 503.482705 405.471603 
L 503.744805 404.942099 
L 504.006905 404.936295 
L 504.269005 404.773123 
L 504.531105 405.453544 
L 505.055305 405.176861 
L 505.317405 404.782152 
L 505.579505 405.303916 
L 506.103705 406.947246 
L 506.365805 406.651214 
L 506.627905 407.227799 
L 506.890005 407.258756 
L 507.152105 407.031089 
L 507.414205 406.497716 
L 507.676305 405.537387 
L 507.938405 406.851793 
L 508.200505 406.121066 
L 508.462605 405.838578 
L 508.724705 405.331649 
L 508.986805 404.404857 
L 509.248905 405.737321 
L 509.511005 405.948865 
L 510.035205 405.011109 
L 510.297305 405.451609 
L 510.559405 405.652833 
L 510.821505 405.584469 
L 511.083605 404.706693 
L 511.345705 404.782797 
L 511.607805 405.721198 
L 511.869905 405.610911 
L 512.132005 405.30843 
L 512.656205 405.44 
L 512.918305 405.113656 
L 513.180405 405.205239 
L 513.442505 404.010793 
L 513.704605 404.226206 
L 514.228805 404.221046 
L 514.490905 403.528371 
L 514.753005 403.993379 
L 515.015105 405.538677 
L 515.277205 405.494176 
L 515.801405 404.569964 
L 516.063505 404.943389 
L 516.325605 404.424205 
L 516.587705 404.512563 
L 516.849805 404.072708 
L 517.111905 404.877604 
L 517.374005 404.284896 
L 517.636105 404.330688 
L 517.898205 404.093346 
L 518.160305 403.401316 
L 518.422405 404.849227 
L 518.684505 405.051096 
L 519.208705 403.721211 
L 519.470805 404.079803 
L 519.732905 411.975268 
L 520.257105 411.082014 
L 520.781305 412.228088 
L 521.043405 412.275814 
L 521.305505 412.082975 
L 521.567605 411.559921 
L 521.829705 412.383521 
L 522.353905 412.415123 
L 522.878105 411.797262 
L 523.140205 412.342889 
L 523.402306 412.501547 
L 523.926506 411.941086 
L 524.188606 412.408674 
L 524.712806 412.531214 
L 524.974906 411.951405 
L 525.499106 412.33386 
L 525.761206 414.261612 
L 526.285406 412.89948 
L 526.547506 412.76791 
L 526.809606 411.094913 
L 527.333806 409.999144 
L 527.858006 410.75438 
L 528.120106 410.695689 
L 528.382206 409.917236 
L 528.906406 411.265179 
L 529.168506 413.740494 
L 529.430606 413.039434 
L 529.692706 412.756946 
L 529.954806 413.494768 
L 530.216906 411.850793 
L 530.479006 411.668917 
L 530.741106 411.272274 
L 531.003206 410.509944 
L 531.527406 410.12233 
L 531.789506 409.910141 
L 532.313706 410.395788 
L 532.575806 410.241 
L 532.837906 409.778572 
L 533.362106 409.709562 
L 533.886306 408.903376 
L 534.148406 407.966265 
L 534.410506 408.204896 
L 534.672606 409.828878 
L 534.934706 409.673445 
L 535.458906 408.415795 
L 535.721006 409.341296 
L 536.245206 409.128463 
L 536.507306 408.599605 
L 536.769406 408.988509 
L 537.031506 409.134268 
L 537.555706 407.984324 
L 537.817806 407.932728 
L 538.079906 408.764712 
L 538.342006 408.739559 
L 538.866206 407.636051 
L 539.128306 408.554459 
L 539.652506 408.60025 
L 539.914606 408.082356 
L 540.176706 408.319697 
L 540.438806 408.943363 
L 540.700906 409.024627 
L 540.963006 408.871129 
L 541.225106 408.428694 
L 541.487206 408.935624 
L 541.749306 409.083317 
L 542.011406 407.907575 
L 542.273506 407.966265 
L 542.535606 408.375163 
L 542.797706 409.305824 
L 543.059806 409.179414 
L 543.584006 407.572846 
L 543.846106 408.280355 
L 544.108206 407.697966 
L 544.370306 407.393551 
L 544.632406 406.653149 
L 544.894506 407.582521 
L 545.156606 407.766331 
L 545.418706 407.676038 
L 545.680806 406.904034 
L 546.205006 407.570267 
L 546.467106 407.183297 
L 546.729206 407.261336 
L 546.991306 406.760856 
L 547.777606 407.913379 
L 548.039706 407.683133 
L 548.301806 407.847595 
L 548.563906 408.295189 
L 548.826006 408.425469 
L 549.088106 407.582521 
L 549.350206 407.360013 
L 549.612306 407.890806 
L 550.136507 408.09332 
L 550.398607 407.220704 
L 550.660707 408.311313 
L 550.922807 408.377743 
L 551.447007 406.866627 
L 551.709107 406.794393 
L 551.971207 408.077196 
L 552.233307 407.737953 
L 552.495407 407.71796 
L 552.757507 407.830826 
L 553.019607 406.415808 
L 553.281707 406.762145 
L 553.543807 406.624771 
L 553.805907 405.830194 
L 554.068007 407.189102 
L 554.330107 407.209095 
L 554.854307 406.241672 
L 555.116407 406.608648 
L 555.378507 407.371622 
L 555.640607 407.265206 
L 555.902707 406.360342 
L 556.164807 406.192655 
L 556.426907 407.091714 
L 556.689007 407.464495 
L 556.951107 407.553498 
L 557.213207 407.20458 
L 557.475307 407.71796 
L 557.737407 407.661204 
L 557.999507 407.918539 
L 558.261607 407.365173 
L 558.523707 410.170701 
L 558.785807 410.386114 
L 559.047907 409.703113 
L 559.572107 406.917578 
L 559.834207 407.753432 
L 560.620507 407.160724 
L 560.882607 407.299388 
L 561.144707 407.677328 
L 561.406807 406.871142 
L 561.668907 406.486107 
L 561.931007 405.676051 
L 562.193107 406.632511 
L 562.717307 406.277144 
L 563.241507 405.607042 
L 563.765707 405.994656 
L 564.027807 405.203949 
L 564.289907 405.354222 
L 564.552007 405.216203 
L 564.814107 405.307785 
L 565.338307 404.066259 
L 565.600407 405.281343 
L 565.862507 405.469668 
L 566.124607 404.533202 
L 566.386707 404.277157 
L 566.648807 404.924686 
L 566.910907 405.152998 
L 567.173007 404.9995 
L 567.435107 406.575755 
L 567.697207 406.707325 
L 567.959307 407.412254 
L 568.221407 407.367753 
L 568.745607 404.699599 
L 569.007707 405.122685 
L 569.269807 404.425495 
L 569.531907 404.373899 
L 569.794007 403.761843 
L 570.318207 405.430326 
L 570.580307 404.965318 
L 570.842407 404.93823 
L 571.104507 404.24362 
L 571.366607 404.580928 
L 572.152907 403.779256 
L 572.415007 404.073353 
L 572.677107 404.822139 
L 572.939207 403.883738 
L 573.201307 403.949523 
L 573.463407 403.025311 
L 573.725507 404.453228 
L 573.987607 404.562869 
L 574.249707 404.477736 
L 574.773907 403.85536 
L 575.036007 404.092057 
L 575.298107 403.968226 
L 575.560207 403.332952 
L 575.822307 404.038526 
L 576.084407 405.323909 
L 576.346507 405.281987 
L 576.608607 403.905666 
L 576.870708 403.725081 
L 577.132808 403.814729 
L 577.657008 404.421626 
L 577.919108 403.780546 
L 578.181208 404.086897 
L 578.443308 405.076894 
L 578.705408 404.591892 
L 578.967508 404.606726 
L 579.229608 404.113985 
L 579.491708 404.540296 
L 579.753808 404.108825 
L 580.015908 403.994669 
L 580.540108 402.72541 
L 580.802208 403.438078 
L 581.064308 403.597381 
L 581.326408 402.393261 
L 581.588508 401.845699 
L 581.850608 402.455176 
L 582.374808 402.700257 
L 582.636908 402.326186 
L 582.899008 403.594156 
L 583.161108 403.717341 
L 583.685308 402.018546 
L 583.947408 402.384877 
L 584.209508 403.983705 
L 584.471608 403.965002 
L 584.995808 402.0308 
L 585.257908 403.745719 
L 585.520008 402.959526 
L 585.782108 402.674459 
L 586.044208 402.090135 
L 586.306308 402.539019 
L 586.568408 401.493557 
L 586.830508 400.937611 
L 587.092608 400.710589 
L 587.354708 401.069826 
L 587.616808 402.692517 
L 587.878908 402.777006 
L 588.141008 401.800553 
L 588.403108 401.349089 
L 588.665208 401.39875 
L 588.927308 401.984363 
L 589.189408 402.144956 
L 589.451508 401.820546 
L 589.713608 402.21074 
L 589.975708 401.96437 
L 590.237808 402.016611 
L 590.499908 401.844409 
L 590.762008 401.888266 
L 591.024108 402.775071 
L 591.286208 404.630589 
L 591.548308 404.528042 
L 591.810408 404.096571 
L 592.072508 402.33844 
L 592.334608 402.815703 
L 592.596708 402.851175 
L 593.120908 400.798947 
L 593.383008 402.190747 
L 593.645108 402.2733 
L 594.169308 400.63642 
L 594.431408 401.541283 
L 594.693508 404.020467 
L 594.955608 403.888898 
L 595.217708 403.490964 
L 595.479808 404.040461 
L 596.004008 402.217835 
L 596.266108 402.540954 
L 596.528208 401.879882 
L 596.790308 402.989194 
L 597.314508 403.231695 
L 597.576608 402.555788 
L 597.838708 401.32974 
L 598.100808 402.237828 
L 598.887108 400.70027 
L 599.149208 400.467443 
L 599.411308 399.822494 
L 599.673408 399.856032 
L 599.935508 399.343297 
L 600.197608 399.678671 
L 600.459708 401.053702 
L 600.983908 399.443909 
L 601.508108 400.551932 
L 601.770208 400.297822 
L 602.032308 400.427456 
L 602.294408 400.197855 
L 602.556508 400.790563 
L 603.080708 400.94664 
L 603.342808 400.416492 
L 603.867009 400.430681 
L 604.129109 400.294597 
L 604.653309 398.509378 
L 604.915409 399.200763 
L 605.177509 398.651267 
L 605.439609 398.980191 
L 605.701709 398.272037 
L 605.963809 398.853781 
L 606.488009 399.162711 
L 606.750109 398.815084 
L 607.012209 399.167226 
L 607.274309 399.921171 
L 607.798509 400.067575 
L 608.060609 398.786706 
L 608.322709 399.861836 
L 608.584809 400.217848 
L 608.846909 400.244936 
L 609.371109 399.569029 
L 609.633209 399.425206 
L 609.895309 399.43101 
L 610.157409 399.665772 
L 610.419509 399.280737 
L 610.681609 400.711879 
L 611.205809 400.568055 
L 611.467909 398.962777 
L 611.730009 398.338467 
L 611.992109 399.242685 
L 612.516309 398.73769 
L 612.778409 398.716407 
L 613.040509 399.362001 
L 613.302609 399.477447 
L 613.826809 398.954393 
L 614.351009 399.993406 
L 614.875209 399.137558 
L 615.399409 400.591273 
L 615.661509 400.676407 
L 615.923609 400.497756 
L 616.185709 398.876354 
L 616.447809 399.091122 
L 616.972009 398.575163 
L 617.234109 397.271076 
L 617.758309 398.170135 
L 618.020409 397.569687 
L 618.544609 397.149181 
L 618.806709 398.200448 
L 619.068809 401.948891 
L 619.330909 401.89536 
L 619.330909 401.89536 
" style="fill:none;stroke:#1f77b4;stroke-linecap:square;stroke-width:1.5;"/>
   </g>
   <g id="patch_3">
    <path d="M 108 448.56 
L 108 60.48 
" style="fill:none;stroke:#000000;stroke-linecap:square;stroke-linejoin:miter;stroke-width:0.8;"/>
   </g>
   <g id="patch_4">
    <path d="M 643.68 448.56 
L 643.68 60.48 
" style="fill:none;stroke:#000000;stroke-linecap:square;stroke-linejoin:miter;stroke-width:0.8;"/>
   </g>
   <g id="patch_5">
    <path d="M 108 448.56 
L 643.68 448.56 
" style="fill:none;stroke:#000000;stroke-linecap:square;stroke-linejoin:miter;stroke-width:0.8;"/>
   </g>
   <g id="patch_6">
    <path d="M 108 60.48 
L 643.68 60.48 
" style="fill:none;stroke:#000000;stroke-linecap:square;stroke-linejoin:miter;stroke-width:0.8;"/>
   </g>
   <g id="text_29">
    <!-- unikernel_falloc - vmstat -->
    <g transform="translate(283.693125 54.48)scale(0.15 -0.15)">
     <defs>
      <path d="M 8.5 21.578125 
L 8.5 54.6875 
L 17.484375 54.6875 
L 17.484375 21.921875 
Q 17.484375 14.15625 20.5 10.265625 
Q 23.53125 6.390625 29.59375 6.390625 
Q 36.859375 6.390625 41.078125 11.03125 
Q 45.3125 15.671875 45.3125 23.6875 
L 45.3125 54.6875 
L 54.296875 54.6875 
L 54.296875 0 
L 45.3125 0 
L 45.3125 8.40625 
Q 42.046875 3.421875 37.71875 1 
Q 33.40625 -1.421875 27.6875 -1.421875 
Q 18.265625 -1.421875 13.375 4.4375 
Q 8.5 10.296875 8.5 21.578125 
z
M 31.109375 56 
z
" id="DejaVuSans-117"/>
      <path d="M 54.890625 33.015625 
L 54.890625 0 
L 45.90625 0 
L 45.90625 32.71875 
Q 45.90625 40.484375 42.875 44.328125 
Q 39.84375 48.1875 33.796875 48.1875 
Q 26.515625 48.1875 22.3125 43.546875 
Q 18.109375 38.921875 18.109375 30.90625 
L 18.109375 0 
L 9.078125 0 
L 9.078125 54.6875 
L 18.109375 54.6875 
L 18.109375 46.1875 
Q 21.34375 51.125 25.703125 53.5625 
Q 30.078125 56 35.796875 56 
Q 45.21875 56 50.046875 50.171875 
Q 54.890625 44.34375 54.890625 33.015625 
z
" id="DejaVuSans-110"/>
      <path d="M 9.078125 75.984375 
L 18.109375 75.984375 
L 18.109375 31.109375 
L 44.921875 54.6875 
L 56.390625 54.6875 
L 27.390625 29.109375 
L 57.625 0 
L 45.90625 0 
L 18.109375 26.703125 
L 18.109375 0 
L 9.078125 0 
z
" id="DejaVuSans-107"/>
      <path d="M 41.109375 46.296875 
Q 39.59375 47.171875 37.8125 47.578125 
Q 36.03125 48 33.890625 48 
Q 26.265625 48 22.1875 43.046875 
Q 18.109375 38.09375 18.109375 28.8125 
L 18.109375 0 
L 9.078125 0 
L 9.078125 54.6875 
L 18.109375 54.6875 
L 18.109375 46.1875 
Q 20.953125 51.171875 25.484375 53.578125 
Q 30.03125 56 36.53125 56 
Q 37.453125 56 38.578125 55.875 
Q 39.703125 55.765625 41.0625 55.515625 
z
" id="DejaVuSans-114"/>
      <path d="M 9.421875 75.984375 
L 18.40625 75.984375 
L 18.40625 0 
L 9.421875 0 
z
" id="DejaVuSans-108"/>
      <path d="M 50.984375 -16.609375 
L 50.984375 -23.578125 
L -0.984375 -23.578125 
L -0.984375 -16.609375 
z
" id="DejaVuSans-95"/>
      <path d="M 37.109375 75.984375 
L 37.109375 68.5 
L 28.515625 68.5 
Q 23.6875 68.5 21.796875 66.546875 
Q 19.921875 64.59375 19.921875 59.515625 
L 19.921875 54.6875 
L 34.71875 54.6875 
L 34.71875 47.703125 
L 19.921875 47.703125 
L 19.921875 0 
L 10.890625 0 
L 10.890625 47.703125 
L 2.296875 47.703125 
L 2.296875 54.6875 
L 10.890625 54.6875 
L 10.890625 58.5 
Q 10.890625 67.625 15.140625 71.796875 
Q 19.390625 75.984375 28.609375 75.984375 
z
" id="DejaVuSans-102"/>
      <path d="M 30.609375 48.390625 
Q 23.390625 48.390625 19.1875 42.75 
Q 14.984375 37.109375 14.984375 27.296875 
Q 14.984375 17.484375 19.15625 11.84375 
Q 23.34375 6.203125 30.609375 6.203125 
Q 37.796875 6.203125 41.984375 11.859375 
Q 46.1875 17.53125 46.1875 27.296875 
Q 46.1875 37.015625 41.984375 42.703125 
Q 37.796875 48.390625 30.609375 48.390625 
z
M 30.609375 56 
Q 42.328125 56 49.015625 48.375 
Q 55.71875 40.765625 55.71875 27.296875 
Q 55.71875 13.875 49.015625 6.21875 
Q 42.328125 -1.421875 30.609375 -1.421875 
Q 18.84375 -1.421875 12.171875 6.21875 
Q 5.515625 13.875 5.515625 27.296875 
Q 5.515625 40.765625 12.171875 48.375 
Q 18.84375 56 30.609375 56 
z
" id="DejaVuSans-111"/>
      <path d="M 48.78125 52.59375 
L 48.78125 44.1875 
Q 44.96875 46.296875 41.140625 47.34375 
Q 37.3125 48.390625 33.40625 48.390625 
Q 24.65625 48.390625 19.8125 42.84375 
Q 14.984375 37.3125 14.984375 27.296875 
Q 14.984375 17.28125 19.8125 11.734375 
Q 24.65625 6.203125 33.40625 6.203125 
Q 37.3125 6.203125 41.140625 7.25 
Q 44.96875 8.296875 48.78125 10.40625 
L 48.78125 2.09375 
Q 45.015625 0.34375 40.984375 -0.53125 
Q 36.96875 -1.421875 32.421875 -1.421875 
Q 20.0625 -1.421875 12.78125 6.34375 
Q 5.515625 14.109375 5.515625 27.296875 
Q 5.515625 40.671875 12.859375 48.328125 
Q 20.21875 56 33.015625 56 
Q 37.15625 56 41.109375 55.140625 
Q 45.0625 54.296875 48.78125 52.59375 
z
" id="DejaVuSans-99"/>
      <path id="DejaVuSans-32"/>
      <path d="M 4.890625 31.390625 
L 31.203125 31.390625 
L 31.203125 23.390625 
L 4.890625 23.390625 
z
" id="DejaVuSans-45"/>
      <path d="M 2.984375 54.6875 
L 12.5 54.6875 
L 29.59375 8.796875 
L 46.6875 54.6875 
L 56.203125 54.6875 
L 35.6875 0 
L 23.484375 0 
z
" id="DejaVuSans-118"/>
     </defs>
     <use xlink:href="#DejaVuSans-117"/>
     <use x="63.378906" xlink:href="#DejaVuSans-110"/>
     <use x="126.757812" xlink:href="#DejaVuSans-105"/>
     <use x="154.541016" xlink:href="#DejaVuSans-107"/>
     <use x="208.826172" xlink:href="#DejaVuSans-101"/>
     <use x="270.349609" xlink:href="#DejaVuSans-114"/>
     <use x="309.712891" xlink:href="#DejaVuSans-110"/>
     <use x="373.091797" xlink:href="#DejaVuSans-101"/>
     <use x="434.615234" xlink:href="#DejaVuSans-108"/>
     <use x="462.398438" xlink:href="#DejaVuSans-95"/>
     <use x="512.398438" xlink:href="#DejaVuSans-102"/>
     <use x="547.603516" xlink:href="#DejaVuSans-97"/>
     <use x="608.882812" xlink:href="#DejaVuSans-108"/>
     <use x="636.666016" xlink:href="#DejaVuSans-108"/>
     <use x="664.449219" xlink:href="#DejaVuSans-111"/>
     <use x="725.630859" xlink:href="#DejaVuSans-99"/>
     <use x="780.611328" xlink:href="#DejaVuSans-32"/>
     <use x="812.398438" xlink:href="#DejaVuSans-45"/>
     <use x="848.482422" xlink:href="#DejaVuSans-32"/>
     <use x="880.269531" xlink:href="#DejaVuSans-118"/>
     <use x="939.449219" xlink:href="#DejaVuSans-109"/>
     <use x="1036.861328" xlink:href="#DejaVuSans-115"/>
     <use x="1088.960938" xlink:href="#DejaVuSans-116"/>
     <use x="1128.169922" xlink:href="#DejaVuSans-97"/>
     <use x="1189.449219" xlink:href="#DejaVuSans-116"/>
    </g>
   </g>
   <g id="legend_1">
    <g id="patch_7">
     <path d="M 650.68 258.52 
L 654.68 258.52 
Q 656.68 258.52 656.68 256.52 
L 656.68 252.52 
Q 656.68 250.52 654.68 250.52 
L 650.68 250.52 
Q 648.68 250.52 648.68 252.52 
L 648.68 256.52 
Q 648.68 258.52 650.68 258.52 
z
" style="fill:#ffffff;opacity:0.8;stroke:#cccccc;stroke-linejoin:miter;"/>
    </g>
   </g>
  </g>
 </g>
 <defs>
  <clipPath id="pae88ae9ab8">
   <rect height="388.08" width="535.68" x="108" y="60.48"/>
  </clipPath>
 </defs>
</svg>
