<?xml version="1.0" encoding="utf-8" standalone="no"?>
<!DOCTYPE svg PUBLIC "-//W3C//DTD SVG 1.1//EN"
  "http://www.w3.org/Graphics/SVG/1.1/DTD/svg11.dtd">
<!-- Created with matplotlib (https://matplotlib.org/) -->
<svg height="504pt" version="1.1" viewBox="0 0 864 504" width="864pt" xmlns="http://www.w3.org/2000/svg" xmlns:xlink="http://www.w3.org/1999/xlink">
 <metadata>
  <rdf:RDF xmlns:cc="http://creativecommons.org/ns#" xmlns:dc="http://purl.org/dc/elements/1.1/" xmlns:rdf="http://www.w3.org/1999/02/22-rdf-syntax-ns#">
   <cc:Work>
    <dc:type rdf:resource="http://purl.org/dc/dcmitype/StillImage"/>
    <dc:date>2022-05-29T16:55:53.935510</dc:date>
    <dc:format>image/svg+xml</dc:format>
    <dc:creator>
     <cc:Agent>
      <dc:title>Matplotlib v3.3.4, https://matplotlib.org/</dc:title>
     </cc:Agent>
    </dc:creator>
   </cc:Work>
  </rdf:RDF>
 </metadata>
 <defs>
  <style type="text/css">*{stroke-linecap:butt;stroke-linejoin:round;}</style>
 </defs>
 <g id="figure_1">
  <g id="patch_1">
   <path d="M 0 504 
L 864 504 
L 864 0 
L 0 0 
z
" style="fill:#ffffff;"/>
  </g>
  <g id="axes_1">
   <g id="patch_2">
    <path d="M 108 448.56 
L 643.68 448.56 
L 643.68 60.48 
L 108 60.48 
z
" style="fill:#ffffff;"/>
   </g>
   <g id="matplotlib.axis_1">
    <g id="xtick_1">
     <g id="line2d_1">
      <defs>
       <path d="M 0 0 
L 0 3.5 
" id="md208ddac1b" style="stroke:#000000;stroke-width:0.8;"/>
      </defs>
      <g>
       <use style="stroke:#000000;stroke-width:0.8;" x="132.349091" xlink:href="#md208ddac1b" y="448.56"/>
      </g>
     </g>
     <g id="text_1">
      <!-- 19:14:31 -->
      <g transform="translate(135.108466 500.4725)rotate(-90)scale(0.1 -0.1)">
       <defs>
        <path d="M 12.40625 8.296875 
L 28.515625 8.296875 
L 28.515625 63.921875 
L 10.984375 60.40625 
L 10.984375 69.390625 
L 28.421875 72.90625 
L 38.28125 72.90625 
L 38.28125 8.296875 
L 54.390625 8.296875 
L 54.390625 0 
L 12.40625 0 
z
" id="DejaVuSans-49"/>
        <path d="M 10.984375 1.515625 
L 10.984375 10.5 
Q 14.703125 8.734375 18.5 7.8125 
Q 22.3125 6.890625 25.984375 6.890625 
Q 35.75 6.890625 40.890625 13.453125 
Q 46.046875 20.015625 46.78125 33.40625 
Q 43.953125 29.203125 39.59375 26.953125 
Q 35.25 24.703125 29.984375 24.703125 
Q 19.046875 24.703125 12.671875 31.3125 
Q 6.296875 37.9375 6.296875 49.421875 
Q 6.296875 60.640625 12.9375 67.421875 
Q 19.578125 74.21875 30.609375 74.21875 
Q 43.265625 74.21875 49.921875 64.515625 
Q 56.59375 54.828125 56.59375 36.375 
Q 56.59375 19.140625 48.40625 8.859375 
Q 40.234375 -1.421875 26.421875 -1.421875 
Q 22.703125 -1.421875 18.890625 -0.6875 
Q 15.09375 0.046875 10.984375 1.515625 
z
M 30.609375 32.421875 
Q 37.25 32.421875 41.125 36.953125 
Q 45.015625 41.5 45.015625 49.421875 
Q 45.015625 57.28125 41.125 61.84375 
Q 37.25 66.40625 30.609375 66.40625 
Q 23.96875 66.40625 20.09375 61.84375 
Q 16.21875 57.28125 16.21875 49.421875 
Q 16.21875 41.5 20.09375 36.953125 
Q 23.96875 32.421875 30.609375 32.421875 
z
" id="DejaVuSans-57"/>
        <path d="M 11.71875 12.40625 
L 22.015625 12.40625 
L 22.015625 0 
L 11.71875 0 
z
M 11.71875 51.703125 
L 22.015625 51.703125 
L 22.015625 39.3125 
L 11.71875 39.3125 
z
" id="DejaVuSans-58"/>
        <path d="M 37.796875 64.3125 
L 12.890625 25.390625 
L 37.796875 25.390625 
z
M 35.203125 72.90625 
L 47.609375 72.90625 
L 47.609375 25.390625 
L 58.015625 25.390625 
L 58.015625 17.1875 
L 47.609375 17.1875 
L 47.609375 0 
L 37.796875 0 
L 37.796875 17.1875 
L 4.890625 17.1875 
L 4.890625 26.703125 
z
" id="DejaVuSans-52"/>
        <path d="M 40.578125 39.3125 
Q 47.65625 37.796875 51.625 33 
Q 55.609375 28.21875 55.609375 21.1875 
Q 55.609375 10.40625 48.1875 4.484375 
Q 40.765625 -1.421875 27.09375 -1.421875 
Q 22.515625 -1.421875 17.65625 -0.515625 
Q 12.796875 0.390625 7.625 2.203125 
L 7.625 11.71875 
Q 11.71875 9.328125 16.59375 8.109375 
Q 21.484375 6.890625 26.8125 6.890625 
Q 36.078125 6.890625 40.9375 10.546875 
Q 45.796875 14.203125 45.796875 21.1875 
Q 45.796875 27.640625 41.28125 31.265625 
Q 36.765625 34.90625 28.71875 34.90625 
L 20.21875 34.90625 
L 20.21875 43.015625 
L 29.109375 43.015625 
Q 36.375 43.015625 40.234375 45.921875 
Q 44.09375 48.828125 44.09375 54.296875 
Q 44.09375 59.90625 40.109375 62.90625 
Q 36.140625 65.921875 28.71875 65.921875 
Q 24.65625 65.921875 20.015625 65.03125 
Q 15.375 64.15625 9.8125 62.3125 
L 9.8125 71.09375 
Q 15.4375 72.65625 20.34375 73.4375 
Q 25.25 74.21875 29.59375 74.21875 
Q 40.828125 74.21875 47.359375 69.109375 
Q 53.90625 64.015625 53.90625 55.328125 
Q 53.90625 49.265625 50.4375 45.09375 
Q 46.96875 40.921875 40.578125 39.3125 
z
" id="DejaVuSans-51"/>
       </defs>
       <use xlink:href="#DejaVuSans-49"/>
       <use x="63.623047" xlink:href="#DejaVuSans-57"/>
       <use x="127.246094" xlink:href="#DejaVuSans-58"/>
       <use x="160.9375" xlink:href="#DejaVuSans-49"/>
       <use x="224.560547" xlink:href="#DejaVuSans-52"/>
       <use x="288.183594" xlink:href="#DejaVuSans-58"/>
       <use x="321.875" xlink:href="#DejaVuSans-51"/>
       <use x="385.498047" xlink:href="#DejaVuSans-49"/>
      </g>
     </g>
    </g>
    <g id="xtick_2">
     <g id="line2d_2">
      <g>
       <use style="stroke:#000000;stroke-width:0.8;" x="156.518199" xlink:href="#md208ddac1b" y="448.56"/>
      </g>
     </g>
     <g id="text_2">
      <!-- 19:16:23 -->
      <g transform="translate(159.277574 500.4725)rotate(-90)scale(0.1 -0.1)">
       <defs>
        <path d="M 33.015625 40.375 
Q 26.375 40.375 22.484375 35.828125 
Q 18.609375 31.296875 18.609375 23.390625 
Q 18.609375 15.53125 22.484375 10.953125 
Q 26.375 6.390625 33.015625 6.390625 
Q 39.65625 6.390625 43.53125 10.953125 
Q 47.40625 15.53125 47.40625 23.390625 
Q 47.40625 31.296875 43.53125 35.828125 
Q 39.65625 40.375 33.015625 40.375 
z
M 52.59375 71.296875 
L 52.59375 62.3125 
Q 48.875 64.0625 45.09375 64.984375 
Q 41.3125 65.921875 37.59375 65.921875 
Q 27.828125 65.921875 22.671875 59.328125 
Q 17.53125 52.734375 16.796875 39.40625 
Q 19.671875 43.65625 24.015625 45.921875 
Q 28.375 48.1875 33.59375 48.1875 
Q 44.578125 48.1875 50.953125 41.515625 
Q 57.328125 34.859375 57.328125 23.390625 
Q 57.328125 12.15625 50.6875 5.359375 
Q 44.046875 -1.421875 33.015625 -1.421875 
Q 20.359375 -1.421875 13.671875 8.265625 
Q 6.984375 17.96875 6.984375 36.375 
Q 6.984375 53.65625 15.1875 63.9375 
Q 23.390625 74.21875 37.203125 74.21875 
Q 40.921875 74.21875 44.703125 73.484375 
Q 48.484375 72.75 52.59375 71.296875 
z
" id="DejaVuSans-54"/>
        <path d="M 19.1875 8.296875 
L 53.609375 8.296875 
L 53.609375 0 
L 7.328125 0 
L 7.328125 8.296875 
Q 12.9375 14.109375 22.625 23.890625 
Q 32.328125 33.6875 34.8125 36.53125 
Q 39.546875 41.84375 41.421875 45.53125 
Q 43.3125 49.21875 43.3125 52.78125 
Q 43.3125 58.59375 39.234375 62.25 
Q 35.15625 65.921875 28.609375 65.921875 
Q 23.96875 65.921875 18.8125 64.3125 
Q 13.671875 62.703125 7.8125 59.421875 
L 7.8125 69.390625 
Q 13.765625 71.78125 18.9375 73 
Q 24.125 74.21875 28.421875 74.21875 
Q 39.75 74.21875 46.484375 68.546875 
Q 53.21875 62.890625 53.21875 53.421875 
Q 53.21875 48.921875 51.53125 44.890625 
Q 49.859375 40.875 45.40625 35.40625 
Q 44.1875 33.984375 37.640625 27.21875 
Q 31.109375 20.453125 19.1875 8.296875 
z
" id="DejaVuSans-50"/>
       </defs>
       <use xlink:href="#DejaVuSans-49"/>
       <use x="63.623047" xlink:href="#DejaVuSans-57"/>
       <use x="127.246094" xlink:href="#DejaVuSans-58"/>
       <use x="160.9375" xlink:href="#DejaVuSans-49"/>
       <use x="224.560547" xlink:href="#DejaVuSans-54"/>
       <use x="288.183594" xlink:href="#DejaVuSans-58"/>
       <use x="321.875" xlink:href="#DejaVuSans-50"/>
       <use x="385.498047" xlink:href="#DejaVuSans-51"/>
      </g>
     </g>
    </g>
    <g id="xtick_3">
     <g id="line2d_3">
      <g>
       <use style="stroke:#000000;stroke-width:0.8;" x="180.687307" xlink:href="#md208ddac1b" y="448.56"/>
      </g>
     </g>
     <g id="text_3">
      <!-- 19:18:16 -->
      <g transform="translate(183.446682 500.4725)rotate(-90)scale(0.1 -0.1)">
       <defs>
        <path d="M 31.78125 34.625 
Q 24.75 34.625 20.71875 30.859375 
Q 16.703125 27.09375 16.703125 20.515625 
Q 16.703125 13.921875 20.71875 10.15625 
Q 24.75 6.390625 31.78125 6.390625 
Q 38.8125 6.390625 42.859375 10.171875 
Q 46.921875 13.96875 46.921875 20.515625 
Q 46.921875 27.09375 42.890625 30.859375 
Q 38.875 34.625 31.78125 34.625 
z
M 21.921875 38.8125 
Q 15.578125 40.375 12.03125 44.71875 
Q 8.5 49.078125 8.5 55.328125 
Q 8.5 64.0625 14.71875 69.140625 
Q 20.953125 74.21875 31.78125 74.21875 
Q 42.671875 74.21875 48.875 69.140625 
Q 55.078125 64.0625 55.078125 55.328125 
Q 55.078125 49.078125 51.53125 44.71875 
Q 48 40.375 41.703125 38.8125 
Q 48.828125 37.15625 52.796875 32.3125 
Q 56.78125 27.484375 56.78125 20.515625 
Q 56.78125 9.90625 50.3125 4.234375 
Q 43.84375 -1.421875 31.78125 -1.421875 
Q 19.734375 -1.421875 13.25 4.234375 
Q 6.78125 9.90625 6.78125 20.515625 
Q 6.78125 27.484375 10.78125 32.3125 
Q 14.796875 37.15625 21.921875 38.8125 
z
M 18.3125 54.390625 
Q 18.3125 48.734375 21.84375 45.5625 
Q 25.390625 42.390625 31.78125 42.390625 
Q 38.140625 42.390625 41.71875 45.5625 
Q 45.3125 48.734375 45.3125 54.390625 
Q 45.3125 60.0625 41.71875 63.234375 
Q 38.140625 66.40625 31.78125 66.40625 
Q 25.390625 66.40625 21.84375 63.234375 
Q 18.3125 60.0625 18.3125 54.390625 
z
" id="DejaVuSans-56"/>
       </defs>
       <use xlink:href="#DejaVuSans-49"/>
       <use x="63.623047" xlink:href="#DejaVuSans-57"/>
       <use x="127.246094" xlink:href="#DejaVuSans-58"/>
       <use x="160.9375" xlink:href="#DejaVuSans-49"/>
       <use x="224.560547" xlink:href="#DejaVuSans-56"/>
       <use x="288.183594" xlink:href="#DejaVuSans-58"/>
       <use x="321.875" xlink:href="#DejaVuSans-49"/>
       <use x="385.498047" xlink:href="#DejaVuSans-54"/>
      </g>
     </g>
    </g>
    <g id="xtick_4">
     <g id="line2d_4">
      <g>
       <use style="stroke:#000000;stroke-width:0.8;" x="204.856415" xlink:href="#md208ddac1b" y="448.56"/>
      </g>
     </g>
     <g id="text_4">
      <!-- 19:20:08 -->
      <g transform="translate(207.61579 500.4725)rotate(-90)scale(0.1 -0.1)">
       <defs>
        <path d="M 31.78125 66.40625 
Q 24.171875 66.40625 20.328125 58.90625 
Q 16.5 51.421875 16.5 36.375 
Q 16.5 21.390625 20.328125 13.890625 
Q 24.171875 6.390625 31.78125 6.390625 
Q 39.453125 6.390625 43.28125 13.890625 
Q 47.125 21.390625 47.125 36.375 
Q 47.125 51.421875 43.28125 58.90625 
Q 39.453125 66.40625 31.78125 66.40625 
z
M 31.78125 74.21875 
Q 44.046875 74.21875 50.515625 64.515625 
Q 56.984375 54.828125 56.984375 36.375 
Q 56.984375 17.96875 50.515625 8.265625 
Q 44.046875 -1.421875 31.78125 -1.421875 
Q 19.53125 -1.421875 13.0625 8.265625 
Q 6.59375 17.96875 6.59375 36.375 
Q 6.59375 54.828125 13.0625 64.515625 
Q 19.53125 74.21875 31.78125 74.21875 
z
" id="DejaVuSans-48"/>
       </defs>
       <use xlink:href="#DejaVuSans-49"/>
       <use x="63.623047" xlink:href="#DejaVuSans-57"/>
       <use x="127.246094" xlink:href="#DejaVuSans-58"/>
       <use x="160.9375" xlink:href="#DejaVuSans-50"/>
       <use x="224.560547" xlink:href="#DejaVuSans-48"/>
       <use x="288.183594" xlink:href="#DejaVuSans-58"/>
       <use x="321.875" xlink:href="#DejaVuSans-48"/>
       <use x="385.498047" xlink:href="#DejaVuSans-56"/>
      </g>
     </g>
    </g>
    <g id="xtick_5">
     <g id="line2d_5">
      <g>
       <use style="stroke:#000000;stroke-width:0.8;" x="229.025524" xlink:href="#md208ddac1b" y="448.56"/>
      </g>
     </g>
     <g id="text_5">
      <!-- 19:22:00 -->
      <g transform="translate(231.784899 500.4725)rotate(-90)scale(0.1 -0.1)">
       <use xlink:href="#DejaVuSans-49"/>
       <use x="63.623047" xlink:href="#DejaVuSans-57"/>
       <use x="127.246094" xlink:href="#DejaVuSans-58"/>
       <use x="160.9375" xlink:href="#DejaVuSans-50"/>
       <use x="224.560547" xlink:href="#DejaVuSans-50"/>
       <use x="288.183594" xlink:href="#DejaVuSans-58"/>
       <use x="321.875" xlink:href="#DejaVuSans-48"/>
       <use x="385.498047" xlink:href="#DejaVuSans-48"/>
      </g>
     </g>
    </g>
    <g id="xtick_6">
     <g id="line2d_6">
      <g>
       <use style="stroke:#000000;stroke-width:0.8;" x="253.194632" xlink:href="#md208ddac1b" y="448.56"/>
      </g>
     </g>
     <g id="text_6">
      <!-- 19:23:53 -->
      <g transform="translate(255.954007 500.4725)rotate(-90)scale(0.1 -0.1)">
       <defs>
        <path d="M 10.796875 72.90625 
L 49.515625 72.90625 
L 49.515625 64.59375 
L 19.828125 64.59375 
L 19.828125 46.734375 
Q 21.96875 47.46875 24.109375 47.828125 
Q 26.265625 48.1875 28.421875 48.1875 
Q 40.625 48.1875 47.75 41.5 
Q 54.890625 34.8125 54.890625 23.390625 
Q 54.890625 11.625 47.5625 5.09375 
Q 40.234375 -1.421875 26.90625 -1.421875 
Q 22.3125 -1.421875 17.546875 -0.640625 
Q 12.796875 0.140625 7.71875 1.703125 
L 7.71875 11.625 
Q 12.109375 9.234375 16.796875 8.0625 
Q 21.484375 6.890625 26.703125 6.890625 
Q 35.15625 6.890625 40.078125 11.328125 
Q 45.015625 15.765625 45.015625 23.390625 
Q 45.015625 31 40.078125 35.4375 
Q 35.15625 39.890625 26.703125 39.890625 
Q 22.75 39.890625 18.8125 39.015625 
Q 14.890625 38.140625 10.796875 36.28125 
z
" id="DejaVuSans-53"/>
       </defs>
       <use xlink:href="#DejaVuSans-49"/>
       <use x="63.623047" xlink:href="#DejaVuSans-57"/>
       <use x="127.246094" xlink:href="#DejaVuSans-58"/>
       <use x="160.9375" xlink:href="#DejaVuSans-50"/>
       <use x="224.560547" xlink:href="#DejaVuSans-51"/>
       <use x="288.183594" xlink:href="#DejaVuSans-58"/>
       <use x="321.875" xlink:href="#DejaVuSans-53"/>
       <use x="385.498047" xlink:href="#DejaVuSans-51"/>
      </g>
     </g>
    </g>
    <g id="xtick_7">
     <g id="line2d_7">
      <g>
       <use style="stroke:#000000;stroke-width:0.8;" x="277.36374" xlink:href="#md208ddac1b" y="448.56"/>
      </g>
     </g>
     <g id="text_7">
      <!-- 19:25:45 -->
      <g transform="translate(280.123115 500.4725)rotate(-90)scale(0.1 -0.1)">
       <use xlink:href="#DejaVuSans-49"/>
       <use x="63.623047" xlink:href="#DejaVuSans-57"/>
       <use x="127.246094" xlink:href="#DejaVuSans-58"/>
       <use x="160.9375" xlink:href="#DejaVuSans-50"/>
       <use x="224.560547" xlink:href="#DejaVuSans-53"/>
       <use x="288.183594" xlink:href="#DejaVuSans-58"/>
       <use x="321.875" xlink:href="#DejaVuSans-52"/>
       <use x="385.498047" xlink:href="#DejaVuSans-53"/>
      </g>
     </g>
    </g>
    <g id="xtick_8">
     <g id="line2d_8">
      <g>
       <use style="stroke:#000000;stroke-width:0.8;" x="301.532848" xlink:href="#md208ddac1b" y="448.56"/>
      </g>
     </g>
     <g id="text_8">
      <!-- 19:27:38 -->
      <g transform="translate(304.292223 500.4725)rotate(-90)scale(0.1 -0.1)">
       <defs>
        <path d="M 8.203125 72.90625 
L 55.078125 72.90625 
L 55.078125 68.703125 
L 28.609375 0 
L 18.3125 0 
L 43.21875 64.59375 
L 8.203125 64.59375 
z
" id="DejaVuSans-55"/>
       </defs>
       <use xlink:href="#DejaVuSans-49"/>
       <use x="63.623047" xlink:href="#DejaVuSans-57"/>
       <use x="127.246094" xlink:href="#DejaVuSans-58"/>
       <use x="160.9375" xlink:href="#DejaVuSans-50"/>
       <use x="224.560547" xlink:href="#DejaVuSans-55"/>
       <use x="288.183594" xlink:href="#DejaVuSans-58"/>
       <use x="321.875" xlink:href="#DejaVuSans-51"/>
       <use x="385.498047" xlink:href="#DejaVuSans-56"/>
      </g>
     </g>
    </g>
    <g id="xtick_9">
     <g id="line2d_9">
      <g>
       <use style="stroke:#000000;stroke-width:0.8;" x="325.701956" xlink:href="#md208ddac1b" y="448.56"/>
      </g>
     </g>
     <g id="text_9">
      <!-- 19:29:31 -->
      <g transform="translate(328.461331 500.4725)rotate(-90)scale(0.1 -0.1)">
       <use xlink:href="#DejaVuSans-49"/>
       <use x="63.623047" xlink:href="#DejaVuSans-57"/>
       <use x="127.246094" xlink:href="#DejaVuSans-58"/>
       <use x="160.9375" xlink:href="#DejaVuSans-50"/>
       <use x="224.560547" xlink:href="#DejaVuSans-57"/>
       <use x="288.183594" xlink:href="#DejaVuSans-58"/>
       <use x="321.875" xlink:href="#DejaVuSans-51"/>
       <use x="385.498047" xlink:href="#DejaVuSans-49"/>
      </g>
     </g>
    </g>
    <g id="xtick_10">
     <g id="line2d_10">
      <g>
       <use style="stroke:#000000;stroke-width:0.8;" x="349.871065" xlink:href="#md208ddac1b" y="448.56"/>
      </g>
     </g>
     <g id="text_10">
      <!-- 19:31:23 -->
      <g transform="translate(352.63044 500.4725)rotate(-90)scale(0.1 -0.1)">
       <use xlink:href="#DejaVuSans-49"/>
       <use x="63.623047" xlink:href="#DejaVuSans-57"/>
       <use x="127.246094" xlink:href="#DejaVuSans-58"/>
       <use x="160.9375" xlink:href="#DejaVuSans-51"/>
       <use x="224.560547" xlink:href="#DejaVuSans-49"/>
       <use x="288.183594" xlink:href="#DejaVuSans-58"/>
       <use x="321.875" xlink:href="#DejaVuSans-50"/>
       <use x="385.498047" xlink:href="#DejaVuSans-51"/>
      </g>
     </g>
    </g>
    <g id="xtick_11">
     <g id="line2d_11">
      <g>
       <use style="stroke:#000000;stroke-width:0.8;" x="374.040173" xlink:href="#md208ddac1b" y="448.56"/>
      </g>
     </g>
     <g id="text_11">
      <!-- 19:33:16 -->
      <g transform="translate(376.799548 500.4725)rotate(-90)scale(0.1 -0.1)">
       <use xlink:href="#DejaVuSans-49"/>
       <use x="63.623047" xlink:href="#DejaVuSans-57"/>
       <use x="127.246094" xlink:href="#DejaVuSans-58"/>
       <use x="160.9375" xlink:href="#DejaVuSans-51"/>
       <use x="224.560547" xlink:href="#DejaVuSans-51"/>
       <use x="288.183594" xlink:href="#DejaVuSans-58"/>
       <use x="321.875" xlink:href="#DejaVuSans-49"/>
       <use x="385.498047" xlink:href="#DejaVuSans-54"/>
      </g>
     </g>
    </g>
    <g id="xtick_12">
     <g id="line2d_12">
      <g>
       <use style="stroke:#000000;stroke-width:0.8;" x="398.209281" xlink:href="#md208ddac1b" y="448.56"/>
      </g>
     </g>
     <g id="text_12">
      <!-- 19:35:09 -->
      <g transform="translate(400.968656 500.4725)rotate(-90)scale(0.1 -0.1)">
       <use xlink:href="#DejaVuSans-49"/>
       <use x="63.623047" xlink:href="#DejaVuSans-57"/>
       <use x="127.246094" xlink:href="#DejaVuSans-58"/>
       <use x="160.9375" xlink:href="#DejaVuSans-51"/>
       <use x="224.560547" xlink:href="#DejaVuSans-53"/>
       <use x="288.183594" xlink:href="#DejaVuSans-58"/>
       <use x="321.875" xlink:href="#DejaVuSans-48"/>
       <use x="385.498047" xlink:href="#DejaVuSans-57"/>
      </g>
     </g>
    </g>
    <g id="xtick_13">
     <g id="line2d_13">
      <g>
       <use style="stroke:#000000;stroke-width:0.8;" x="422.378389" xlink:href="#md208ddac1b" y="448.56"/>
      </g>
     </g>
     <g id="text_13">
      <!-- 19:37:02 -->
      <g transform="translate(425.137764 500.4725)rotate(-90)scale(0.1 -0.1)">
       <use xlink:href="#DejaVuSans-49"/>
       <use x="63.623047" xlink:href="#DejaVuSans-57"/>
       <use x="127.246094" xlink:href="#DejaVuSans-58"/>
       <use x="160.9375" xlink:href="#DejaVuSans-51"/>
       <use x="224.560547" xlink:href="#DejaVuSans-55"/>
       <use x="288.183594" xlink:href="#DejaVuSans-58"/>
       <use x="321.875" xlink:href="#DejaVuSans-48"/>
       <use x="385.498047" xlink:href="#DejaVuSans-50"/>
      </g>
     </g>
    </g>
    <g id="xtick_14">
     <g id="line2d_14">
      <g>
       <use style="stroke:#000000;stroke-width:0.8;" x="446.547497" xlink:href="#md208ddac1b" y="448.56"/>
      </g>
     </g>
     <g id="text_14">
      <!-- 19:38:55 -->
      <g transform="translate(449.306872 500.4725)rotate(-90)scale(0.1 -0.1)">
       <use xlink:href="#DejaVuSans-49"/>
       <use x="63.623047" xlink:href="#DejaVuSans-57"/>
       <use x="127.246094" xlink:href="#DejaVuSans-58"/>
       <use x="160.9375" xlink:href="#DejaVuSans-51"/>
       <use x="224.560547" xlink:href="#DejaVuSans-56"/>
       <use x="288.183594" xlink:href="#DejaVuSans-58"/>
       <use x="321.875" xlink:href="#DejaVuSans-53"/>
       <use x="385.498047" xlink:href="#DejaVuSans-53"/>
      </g>
     </g>
    </g>
    <g id="xtick_15">
     <g id="line2d_15">
      <g>
       <use style="stroke:#000000;stroke-width:0.8;" x="470.716606" xlink:href="#md208ddac1b" y="448.56"/>
      </g>
     </g>
     <g id="text_15">
      <!-- 19:40:48 -->
      <g transform="translate(473.475981 500.4725)rotate(-90)scale(0.1 -0.1)">
       <use xlink:href="#DejaVuSans-49"/>
       <use x="63.623047" xlink:href="#DejaVuSans-57"/>
       <use x="127.246094" xlink:href="#DejaVuSans-58"/>
       <use x="160.9375" xlink:href="#DejaVuSans-52"/>
       <use x="224.560547" xlink:href="#DejaVuSans-48"/>
       <use x="288.183594" xlink:href="#DejaVuSans-58"/>
       <use x="321.875" xlink:href="#DejaVuSans-52"/>
       <use x="385.498047" xlink:href="#DejaVuSans-56"/>
      </g>
     </g>
    </g>
    <g id="xtick_16">
     <g id="line2d_16">
      <g>
       <use style="stroke:#000000;stroke-width:0.8;" x="494.885714" xlink:href="#md208ddac1b" y="448.56"/>
      </g>
     </g>
     <g id="text_16">
      <!-- 19:42:41 -->
      <g transform="translate(497.645089 500.4725)rotate(-90)scale(0.1 -0.1)">
       <use xlink:href="#DejaVuSans-49"/>
       <use x="63.623047" xlink:href="#DejaVuSans-57"/>
       <use x="127.246094" xlink:href="#DejaVuSans-58"/>
       <use x="160.9375" xlink:href="#DejaVuSans-52"/>
       <use x="224.560547" xlink:href="#DejaVuSans-50"/>
       <use x="288.183594" xlink:href="#DejaVuSans-58"/>
       <use x="321.875" xlink:href="#DejaVuSans-52"/>
       <use x="385.498047" xlink:href="#DejaVuSans-49"/>
      </g>
     </g>
    </g>
    <g id="xtick_17">
     <g id="line2d_17">
      <g>
       <use style="stroke:#000000;stroke-width:0.8;" x="519.054822" xlink:href="#md208ddac1b" y="448.56"/>
      </g>
     </g>
     <g id="text_17">
      <!-- 19:44:33 -->
      <g transform="translate(521.814197 500.4725)rotate(-90)scale(0.1 -0.1)">
       <use xlink:href="#DejaVuSans-49"/>
       <use x="63.623047" xlink:href="#DejaVuSans-57"/>
       <use x="127.246094" xlink:href="#DejaVuSans-58"/>
       <use x="160.9375" xlink:href="#DejaVuSans-52"/>
       <use x="224.560547" xlink:href="#DejaVuSans-52"/>
       <use x="288.183594" xlink:href="#DejaVuSans-58"/>
       <use x="321.875" xlink:href="#DejaVuSans-51"/>
       <use x="385.498047" xlink:href="#DejaVuSans-51"/>
      </g>
     </g>
    </g>
    <g id="xtick_18">
     <g id="line2d_18">
      <g>
       <use style="stroke:#000000;stroke-width:0.8;" x="543.22393" xlink:href="#md208ddac1b" y="448.56"/>
      </g>
     </g>
     <g id="text_18">
      <!-- 19:46:26 -->
      <g transform="translate(545.983305 500.4725)rotate(-90)scale(0.1 -0.1)">
       <use xlink:href="#DejaVuSans-49"/>
       <use x="63.623047" xlink:href="#DejaVuSans-57"/>
       <use x="127.246094" xlink:href="#DejaVuSans-58"/>
       <use x="160.9375" xlink:href="#DejaVuSans-52"/>
       <use x="224.560547" xlink:href="#DejaVuSans-54"/>
       <use x="288.183594" xlink:href="#DejaVuSans-58"/>
       <use x="321.875" xlink:href="#DejaVuSans-50"/>
       <use x="385.498047" xlink:href="#DejaVuSans-54"/>
      </g>
     </g>
    </g>
    <g id="xtick_19">
     <g id="line2d_19">
      <g>
       <use style="stroke:#000000;stroke-width:0.8;" x="567.393038" xlink:href="#md208ddac1b" y="448.56"/>
      </g>
     </g>
     <g id="text_19">
      <!-- 19:48:19 -->
      <g transform="translate(570.152413 500.4725)rotate(-90)scale(0.1 -0.1)">
       <use xlink:href="#DejaVuSans-49"/>
       <use x="63.623047" xlink:href="#DejaVuSans-57"/>
       <use x="127.246094" xlink:href="#DejaVuSans-58"/>
       <use x="160.9375" xlink:href="#DejaVuSans-52"/>
       <use x="224.560547" xlink:href="#DejaVuSans-56"/>
       <use x="288.183594" xlink:href="#DejaVuSans-58"/>
       <use x="321.875" xlink:href="#DejaVuSans-49"/>
       <use x="385.498047" xlink:href="#DejaVuSans-57"/>
      </g>
     </g>
    </g>
    <g id="xtick_20">
     <g id="line2d_20">
      <g>
       <use style="stroke:#000000;stroke-width:0.8;" x="591.562146" xlink:href="#md208ddac1b" y="448.56"/>
      </g>
     </g>
     <g id="text_20">
      <!-- 19:50:12 -->
      <g transform="translate(594.321521 500.4725)rotate(-90)scale(0.1 -0.1)">
       <use xlink:href="#DejaVuSans-49"/>
       <use x="63.623047" xlink:href="#DejaVuSans-57"/>
       <use x="127.246094" xlink:href="#DejaVuSans-58"/>
       <use x="160.9375" xlink:href="#DejaVuSans-53"/>
       <use x="224.560547" xlink:href="#DejaVuSans-48"/>
       <use x="288.183594" xlink:href="#DejaVuSans-58"/>
       <use x="321.875" xlink:href="#DejaVuSans-49"/>
       <use x="385.498047" xlink:href="#DejaVuSans-50"/>
      </g>
     </g>
    </g>
    <g id="xtick_21">
     <g id="line2d_21">
      <g>
       <use style="stroke:#000000;stroke-width:0.8;" x="615.731255" xlink:href="#md208ddac1b" y="448.56"/>
      </g>
     </g>
     <g id="text_21">
      <!-- 19:52:05 -->
      <g transform="translate(618.49063 500.4725)rotate(-90)scale(0.1 -0.1)">
       <use xlink:href="#DejaVuSans-49"/>
       <use x="63.623047" xlink:href="#DejaVuSans-57"/>
       <use x="127.246094" xlink:href="#DejaVuSans-58"/>
       <use x="160.9375" xlink:href="#DejaVuSans-53"/>
       <use x="224.560547" xlink:href="#DejaVuSans-50"/>
       <use x="288.183594" xlink:href="#DejaVuSans-58"/>
       <use x="321.875" xlink:href="#DejaVuSans-48"/>
       <use x="385.498047" xlink:href="#DejaVuSans-53"/>
      </g>
     </g>
    </g>
    <g id="text_22">
     <!-- timestamp -->
     <g transform="translate(354.264375 510.55125)scale(0.08 -0.08)">
      <defs>
       <path d="M 18.3125 70.21875 
L 18.3125 54.6875 
L 36.8125 54.6875 
L 36.8125 47.703125 
L 18.3125 47.703125 
L 18.3125 18.015625 
Q 18.3125 11.328125 20.140625 9.421875 
Q 21.96875 7.515625 27.59375 7.515625 
L 36.8125 7.515625 
L 36.8125 0 
L 27.59375 0 
Q 17.1875 0 13.234375 3.875 
Q 9.28125 7.765625 9.28125 18.015625 
L 9.28125 47.703125 
L 2.6875 47.703125 
L 2.6875 54.6875 
L 9.28125 54.6875 
L 9.28125 70.21875 
z
" id="DejaVuSans-116"/>
       <path d="M 9.421875 54.6875 
L 18.40625 54.6875 
L 18.40625 0 
L 9.421875 0 
z
M 9.421875 75.984375 
L 18.40625 75.984375 
L 18.40625 64.59375 
L 9.421875 64.59375 
z
" id="DejaVuSans-105"/>
       <path d="M 52 44.1875 
Q 55.375 50.25 60.0625 53.125 
Q 64.75 56 71.09375 56 
Q 79.640625 56 84.28125 50.015625 
Q 88.921875 44.046875 88.921875 33.015625 
L 88.921875 0 
L 79.890625 0 
L 79.890625 32.71875 
Q 79.890625 40.578125 77.09375 44.375 
Q 74.3125 48.1875 68.609375 48.1875 
Q 61.625 48.1875 57.5625 43.546875 
Q 53.515625 38.921875 53.515625 30.90625 
L 53.515625 0 
L 44.484375 0 
L 44.484375 32.71875 
Q 44.484375 40.625 41.703125 44.40625 
Q 38.921875 48.1875 33.109375 48.1875 
Q 26.21875 48.1875 22.15625 43.53125 
Q 18.109375 38.875 18.109375 30.90625 
L 18.109375 0 
L 9.078125 0 
L 9.078125 54.6875 
L 18.109375 54.6875 
L 18.109375 46.1875 
Q 21.1875 51.21875 25.484375 53.609375 
Q 29.78125 56 35.6875 56 
Q 41.65625 56 45.828125 52.96875 
Q 50 49.953125 52 44.1875 
z
" id="DejaVuSans-109"/>
       <path d="M 56.203125 29.59375 
L 56.203125 25.203125 
L 14.890625 25.203125 
Q 15.484375 15.921875 20.484375 11.0625 
Q 25.484375 6.203125 34.421875 6.203125 
Q 39.59375 6.203125 44.453125 7.46875 
Q 49.3125 8.734375 54.109375 11.28125 
L 54.109375 2.78125 
Q 49.265625 0.734375 44.1875 -0.34375 
Q 39.109375 -1.421875 33.890625 -1.421875 
Q 20.796875 -1.421875 13.15625 6.1875 
Q 5.515625 13.8125 5.515625 26.8125 
Q 5.515625 40.234375 12.765625 48.109375 
Q 20.015625 56 32.328125 56 
Q 43.359375 56 49.78125 48.890625 
Q 56.203125 41.796875 56.203125 29.59375 
z
M 47.21875 32.234375 
Q 47.125 39.59375 43.09375 43.984375 
Q 39.0625 48.390625 32.421875 48.390625 
Q 24.90625 48.390625 20.390625 44.140625 
Q 15.875 39.890625 15.1875 32.171875 
z
" id="DejaVuSans-101"/>
       <path d="M 44.28125 53.078125 
L 44.28125 44.578125 
Q 40.484375 46.53125 36.375 47.5 
Q 32.28125 48.484375 27.875 48.484375 
Q 21.1875 48.484375 17.84375 46.4375 
Q 14.5 44.390625 14.5 40.28125 
Q 14.5 37.15625 16.890625 35.375 
Q 19.28125 33.59375 26.515625 31.984375 
L 29.59375 31.296875 
Q 39.15625 29.25 43.1875 25.515625 
Q 47.21875 21.78125 47.21875 15.09375 
Q 47.21875 7.46875 41.1875 3.015625 
Q 35.15625 -1.421875 24.609375 -1.421875 
Q 20.21875 -1.421875 15.453125 -0.5625 
Q 10.6875 0.296875 5.421875 2 
L 5.421875 11.28125 
Q 10.40625 8.6875 15.234375 7.390625 
Q 20.0625 6.109375 24.8125 6.109375 
Q 31.15625 6.109375 34.5625 8.28125 
Q 37.984375 10.453125 37.984375 14.40625 
Q 37.984375 18.0625 35.515625 20.015625 
Q 33.0625 21.96875 24.703125 23.78125 
L 21.578125 24.515625 
Q 13.234375 26.265625 9.515625 29.90625 
Q 5.8125 33.546875 5.8125 39.890625 
Q 5.8125 47.609375 11.28125 51.796875 
Q 16.75 56 26.8125 56 
Q 31.78125 56 36.171875 55.265625 
Q 40.578125 54.546875 44.28125 53.078125 
z
" id="DejaVuSans-115"/>
       <path d="M 34.28125 27.484375 
Q 23.390625 27.484375 19.1875 25 
Q 14.984375 22.515625 14.984375 16.5 
Q 14.984375 11.71875 18.140625 8.90625 
Q 21.296875 6.109375 26.703125 6.109375 
Q 34.1875 6.109375 38.703125 11.40625 
Q 43.21875 16.703125 43.21875 25.484375 
L 43.21875 27.484375 
z
M 52.203125 31.203125 
L 52.203125 0 
L 43.21875 0 
L 43.21875 8.296875 
Q 40.140625 3.328125 35.546875 0.953125 
Q 30.953125 -1.421875 24.3125 -1.421875 
Q 15.921875 -1.421875 10.953125 3.296875 
Q 6 8.015625 6 15.921875 
Q 6 25.140625 12.171875 29.828125 
Q 18.359375 34.515625 30.609375 34.515625 
L 43.21875 34.515625 
L 43.21875 35.40625 
Q 43.21875 41.609375 39.140625 45 
Q 35.0625 48.390625 27.6875 48.390625 
Q 23 48.390625 18.546875 47.265625 
Q 14.109375 46.140625 10.015625 43.890625 
L 10.015625 52.203125 
Q 14.9375 54.109375 19.578125 55.046875 
Q 24.21875 56 28.609375 56 
Q 40.484375 56 46.34375 49.84375 
Q 52.203125 43.703125 52.203125 31.203125 
z
" id="DejaVuSans-97"/>
       <path d="M 18.109375 8.203125 
L 18.109375 -20.796875 
L 9.078125 -20.796875 
L 9.078125 54.6875 
L 18.109375 54.6875 
L 18.109375 46.390625 
Q 20.953125 51.265625 25.265625 53.625 
Q 29.59375 56 35.59375 56 
Q 45.5625 56 51.78125 48.09375 
Q 58.015625 40.1875 58.015625 27.296875 
Q 58.015625 14.40625 51.78125 6.484375 
Q 45.5625 -1.421875 35.59375 -1.421875 
Q 29.59375 -1.421875 25.265625 0.953125 
Q 20.953125 3.328125 18.109375 8.203125 
z
M 48.6875 27.296875 
Q 48.6875 37.203125 44.609375 42.84375 
Q 40.53125 48.484375 33.40625 48.484375 
Q 26.265625 48.484375 22.1875 42.84375 
Q 18.109375 37.203125 18.109375 27.296875 
Q 18.109375 17.390625 22.1875 11.75 
Q 26.265625 6.109375 33.40625 6.109375 
Q 40.53125 6.109375 44.609375 11.75 
Q 48.6875 17.390625 48.6875 27.296875 
z
" id="DejaVuSans-112"/>
      </defs>
      <use xlink:href="#DejaVuSans-116"/>
      <use x="39.208984" xlink:href="#DejaVuSans-105"/>
      <use x="66.992188" xlink:href="#DejaVuSans-109"/>
      <use x="164.404297" xlink:href="#DejaVuSans-101"/>
      <use x="225.927734" xlink:href="#DejaVuSans-115"/>
      <use x="278.027344" xlink:href="#DejaVuSans-116"/>
      <use x="317.236328" xlink:href="#DejaVuSans-97"/>
      <use x="378.515625" xlink:href="#DejaVuSans-109"/>
      <use x="475.927734" xlink:href="#DejaVuSans-112"/>
     </g>
    </g>
   </g>
   <g id="matplotlib.axis_2">
    <g id="ytick_1">
     <g id="line2d_22">
      <defs>
       <path d="M 0 0 
L -3.5 0 
" id="m42926344bc" style="stroke:#000000;stroke-width:0.8;"/>
      </defs>
      <g>
       <use style="stroke:#000000;stroke-width:0.8;" x="108" xlink:href="#m42926344bc" y="433.696509"/>
      </g>
     </g>
     <g id="text_23">
      <!-- 11200 -->
      <g transform="translate(69.1875 437.495728)scale(0.1 -0.1)">
       <use xlink:href="#DejaVuSans-49"/>
       <use x="63.623047" xlink:href="#DejaVuSans-49"/>
       <use x="127.246094" xlink:href="#DejaVuSans-50"/>
       <use x="190.869141" xlink:href="#DejaVuSans-48"/>
       <use x="254.492188" xlink:href="#DejaVuSans-48"/>
      </g>
     </g>
    </g>
    <g id="ytick_2">
     <g id="line2d_23">
      <g>
       <use style="stroke:#000000;stroke-width:0.8;" x="108" xlink:href="#m42926344bc" y="389.822157"/>
      </g>
     </g>
     <g id="text_24">
      <!-- 11400 -->
      <g transform="translate(69.1875 393.621376)scale(0.1 -0.1)">
       <use xlink:href="#DejaVuSans-49"/>
       <use x="63.623047" xlink:href="#DejaVuSans-49"/>
       <use x="127.246094" xlink:href="#DejaVuSans-52"/>
       <use x="190.869141" xlink:href="#DejaVuSans-48"/>
       <use x="254.492188" xlink:href="#DejaVuSans-48"/>
      </g>
     </g>
    </g>
    <g id="ytick_3">
     <g id="line2d_24">
      <g>
       <use style="stroke:#000000;stroke-width:0.8;" x="108" xlink:href="#m42926344bc" y="345.947805"/>
      </g>
     </g>
     <g id="text_25">
      <!-- 11600 -->
      <g transform="translate(69.1875 349.747023)scale(0.1 -0.1)">
       <use xlink:href="#DejaVuSans-49"/>
       <use x="63.623047" xlink:href="#DejaVuSans-49"/>
       <use x="127.246094" xlink:href="#DejaVuSans-54"/>
       <use x="190.869141" xlink:href="#DejaVuSans-48"/>
       <use x="254.492188" xlink:href="#DejaVuSans-48"/>
      </g>
     </g>
    </g>
    <g id="ytick_4">
     <g id="line2d_25">
      <g>
       <use style="stroke:#000000;stroke-width:0.8;" x="108" xlink:href="#m42926344bc" y="302.073452"/>
      </g>
     </g>
     <g id="text_26">
      <!-- 11800 -->
      <g transform="translate(69.1875 305.872671)scale(0.1 -0.1)">
       <use xlink:href="#DejaVuSans-49"/>
       <use x="63.623047" xlink:href="#DejaVuSans-49"/>
       <use x="127.246094" xlink:href="#DejaVuSans-56"/>
       <use x="190.869141" xlink:href="#DejaVuSans-48"/>
       <use x="254.492188" xlink:href="#DejaVuSans-48"/>
      </g>
     </g>
    </g>
    <g id="ytick_5">
     <g id="line2d_26">
      <g>
       <use style="stroke:#000000;stroke-width:0.8;" x="108" xlink:href="#m42926344bc" y="258.1991"/>
      </g>
     </g>
     <g id="text_27">
      <!-- 12000 -->
      <g transform="translate(69.1875 261.998318)scale(0.1 -0.1)">
       <use xlink:href="#DejaVuSans-49"/>
       <use x="63.623047" xlink:href="#DejaVuSans-50"/>
       <use x="127.246094" xlink:href="#DejaVuSans-48"/>
       <use x="190.869141" xlink:href="#DejaVuSans-48"/>
       <use x="254.492188" xlink:href="#DejaVuSans-48"/>
      </g>
     </g>
    </g>
    <g id="ytick_6">
     <g id="line2d_27">
      <g>
       <use style="stroke:#000000;stroke-width:0.8;" x="108" xlink:href="#m42926344bc" y="214.324747"/>
      </g>
     </g>
     <g id="text_28">
      <!-- 12200 -->
      <g transform="translate(69.1875 218.123966)scale(0.1 -0.1)">
       <use xlink:href="#DejaVuSans-49"/>
       <use x="63.623047" xlink:href="#DejaVuSans-50"/>
       <use x="127.246094" xlink:href="#DejaVuSans-50"/>
       <use x="190.869141" xlink:href="#DejaVuSans-48"/>
       <use x="254.492188" xlink:href="#DejaVuSans-48"/>
      </g>
     </g>
    </g>
    <g id="ytick_7">
     <g id="line2d_28">
      <g>
       <use style="stroke:#000000;stroke-width:0.8;" x="108" xlink:href="#m42926344bc" y="170.450395"/>
      </g>
     </g>
     <g id="text_29">
      <!-- 12400 -->
      <g transform="translate(69.1875 174.249613)scale(0.1 -0.1)">
       <use xlink:href="#DejaVuSans-49"/>
       <use x="63.623047" xlink:href="#DejaVuSans-50"/>
       <use x="127.246094" xlink:href="#DejaVuSans-52"/>
       <use x="190.869141" xlink:href="#DejaVuSans-48"/>
       <use x="254.492188" xlink:href="#DejaVuSans-48"/>
      </g>
     </g>
    </g>
    <g id="ytick_8">
     <g id="line2d_29">
      <g>
       <use style="stroke:#000000;stroke-width:0.8;" x="108" xlink:href="#m42926344bc" y="126.576042"/>
      </g>
     </g>
     <g id="text_30">
      <!-- 12600 -->
      <g transform="translate(69.1875 130.375261)scale(0.1 -0.1)">
       <use xlink:href="#DejaVuSans-49"/>
       <use x="63.623047" xlink:href="#DejaVuSans-50"/>
       <use x="127.246094" xlink:href="#DejaVuSans-54"/>
       <use x="190.869141" xlink:href="#DejaVuSans-48"/>
       <use x="254.492188" xlink:href="#DejaVuSans-48"/>
      </g>
     </g>
    </g>
    <g id="ytick_9">
     <g id="line2d_30">
      <g>
       <use style="stroke:#000000;stroke-width:0.8;" x="108" xlink:href="#m42926344bc" y="82.70169"/>
      </g>
     </g>
     <g id="text_31">
      <!-- 12800 -->
      <g transform="translate(69.1875 86.500909)scale(0.1 -0.1)">
       <use xlink:href="#DejaVuSans-49"/>
       <use x="63.623047" xlink:href="#DejaVuSans-50"/>
       <use x="127.246094" xlink:href="#DejaVuSans-56"/>
       <use x="190.869141" xlink:href="#DejaVuSans-48"/>
       <use x="254.492188" xlink:href="#DejaVuSans-48"/>
      </g>
     </g>
    </g>
    <g id="text_32">
     <!-- MB -->
     <g transform="translate(63.52375 260.715625)rotate(-90)scale(0.08 -0.08)">
      <defs>
       <path d="M 9.8125 72.90625 
L 24.515625 72.90625 
L 43.109375 23.296875 
L 61.8125 72.90625 
L 76.515625 72.90625 
L 76.515625 0 
L 66.890625 0 
L 66.890625 64.015625 
L 48.09375 14.015625 
L 38.1875 14.015625 
L 19.390625 64.015625 
L 19.390625 0 
L 9.8125 0 
z
" id="DejaVuSans-77"/>
       <path d="M 19.671875 34.8125 
L 19.671875 8.109375 
L 35.5 8.109375 
Q 43.453125 8.109375 47.28125 11.40625 
Q 51.125 14.703125 51.125 21.484375 
Q 51.125 28.328125 47.28125 31.5625 
Q 43.453125 34.8125 35.5 34.8125 
z
M 19.671875 64.796875 
L 19.671875 42.828125 
L 34.28125 42.828125 
Q 41.5 42.828125 45.03125 45.53125 
Q 48.578125 48.25 48.578125 53.8125 
Q 48.578125 59.328125 45.03125 62.0625 
Q 41.5 64.796875 34.28125 64.796875 
z
M 9.8125 72.90625 
L 35.015625 72.90625 
Q 46.296875 72.90625 52.390625 68.21875 
Q 58.5 63.53125 58.5 54.890625 
Q 58.5 48.1875 55.375 44.234375 
Q 52.25 40.28125 46.1875 39.3125 
Q 53.46875 37.75 57.5 32.78125 
Q 61.53125 27.828125 61.53125 20.40625 
Q 61.53125 10.640625 54.890625 5.3125 
Q 48.25 0 35.984375 0 
L 9.8125 0 
z
" id="DejaVuSans-66"/>
      </defs>
      <use xlink:href="#DejaVuSans-77"/>
      <use x="86.279297" xlink:href="#DejaVuSans-66"/>
     </g>
    </g>
   </g>
   <g id="line2d_31">
    <path clip-path="url(#p394f1b0ab8)" d="M 132.349091 78.194579 
L 132.606209 79.068865 
L 133.120445 78.700461 
L 133.377564 78.12 
L 133.634682 79.528921 
L 133.8918 79.739181 
L 134.148918 79.464226 
L 134.406036 78.660027 
L 134.920273 80.053673 
L 135.177391 80.121064 
L 135.434509 78.401245 
L 135.691627 80.252251 
L 136.462982 123.737421 
L 136.7201 146.941492 
L 137.491454 257.256075 
L 138.262809 327.57185 
L 138.777045 380.513325 
L 139.291282 407.001584 
L 139.5484 406.020371 
L 139.805518 406.047328 
L 140.062636 404.682435 
L 140.319754 404.867536 
L 140.833991 409.336907 
L 141.091109 409.026909 
L 141.348227 408.449143 
L 141.605345 410.364845 
L 141.862463 410.272295 
L 142.119581 409.985658 
L 142.3767 409.457313 
L 142.633818 412.856515 
L 142.890936 413.481005 
L 143.148054 413.140456 
L 143.405172 414.292393 
L 143.919409 411.67852 
L 144.176527 411.739621 
L 144.690763 410.617336 
L 144.947881 410.819509 
L 145.205 411.754897 
L 145.462118 411.857331 
L 145.719236 410.762901 
L 146.233472 412.753182 
L 146.49059 412.469241 
L 146.747709 412.544719 
L 147.004827 411.274174 
L 147.261945 412.251793 
L 147.519063 412.759472 
L 148.290418 411.861824 
L 148.547536 413.314774 
L 149.061772 413.522338 
L 149.31889 411.962461 
L 149.576008 412.003794 
L 149.833127 411.591361 
L 150.090245 411.848345 
L 150.347363 410.876118 
L 150.604481 411.161856 
L 150.861599 412.40185 
L 151.118717 412.518661 
L 151.375836 411.390087 
L 151.632954 411.597651 
L 151.890072 412.125996 
L 152.14719 412.179011 
L 152.404308 412.001997 
L 152.661427 410.855451 
L 152.918545 412.651646 
L 153.175663 412.68669 
L 153.432781 412.453067 
L 153.689899 411.718955 
L 154.204136 412.858312 
L 154.718372 412.887066 
L 154.97549 412.161938 
L 155.232608 413.441469 
L 155.746845 413.109905 
L 156.003963 412.090055 
L 156.261081 411.850143 
L 156.518199 412.542024 
L 156.775317 412.727124 
L 157.032435 411.222058 
L 157.289554 411.323594 
L 157.546672 412.189793 
L 157.80379 412.524951 
L 158.060908 412.01278 
L 158.318026 411.089972 
L 158.575144 412.684892 
L 158.832263 413.250078 
L 159.089381 413.169209 
L 159.346499 412.363213 
L 159.603617 412.665124 
L 159.860735 413.633758 
L 160.117854 413.268049 
L 160.374972 413.126977 
L 160.63209 412.276952 
L 160.889208 414.2879 
L 161.146326 414.327436 
L 161.403444 413.864684 
L 161.917681 412.260778 
L 162.174799 412.832254 
L 162.689035 411.141189 
L 162.946153 411.025277 
L 163.203272 412.804399 
L 163.46039 412.137678 
L 163.717508 412.244605 
L 163.974626 411.666839 
L 164.231744 412.910428 
L 164.745981 412.434198 
L 165.003099 411.827679 
L 165.517335 413.194368 
L 166.031571 413.417208 
L 166.28869 412.392865 
L 166.545808 413.924887 
L 166.802926 414.030916 
L 167.060044 413.525034 
L 167.317162 412.452169 
L 167.574281 411.963359 
L 167.831399 412.615704 
L 168.088517 412.336256 
L 168.345635 411.775563 
L 168.602753 411.581477 
L 168.859871 412.369503 
L 169.374108 412.400053 
L 169.631226 411.434115 
L 169.888344 412.418024 
L 170.145462 414.078538 
L 170.40258 413.526831 
L 170.659699 412.589647 
L 170.916817 413.002079 
L 171.173935 414.101901 
L 171.431053 414.027321 
L 171.945289 413.288716 
L 172.202408 413.436976 
L 172.459526 414.050684 
L 172.716644 413.505266 
L 172.973762 413.224021 
L 173.23088 411.660549 
L 173.487998 412.938283 
L 173.745117 413.364194 
L 174.259353 412.3093 
L 174.516471 413.795496 
L 174.773589 414.514334 
L 175.030707 416.150587 
L 175.287826 415.302359 
L 175.544944 415.719285 
L 175.802062 414.12077 
L 176.05918 414.050684 
L 176.316298 414.212422 
L 176.573417 413.605903 
L 176.830535 416.419253 
L 177.087653 416.522586 
L 177.344771 416.368036 
L 177.601889 413.219528 
L 178.116126 415.070534 
L 178.373244 414.01564 
L 178.630362 413.809873 
L 178.88748 411.47455 
L 179.144598 412.587849 
L 179.401716 412.744197 
L 179.658835 411.387391 
L 179.915953 411.812404 
L 180.173071 411.936403 
L 180.430189 412.693878 
L 180.944425 411.478144 
L 181.201544 412.252692 
L 181.458662 413.814366 
L 181.972898 413.654424 
L 182.230016 412.382082 
L 182.487134 413.901525 
L 182.744253 413.848511 
L 183.001371 413.454947 
L 183.258489 412.679501 
L 183.515607 413.319266 
L 183.772725 412.824167 
L 184.029844 412.894254 
L 184.286962 412.714545 
L 184.54408 412.236518 
L 184.801198 413.74967 
L 185.058316 413.119789 
L 185.315434 412.140373 
L 185.572553 411.902258 
L 186.086789 412.896051 
L 186.343907 412.904138 
L 186.601025 412.14217 
L 186.858143 412.319184 
L 187.115262 413.977003 
L 187.37238 413.743381 
L 187.629498 413.678685 
L 187.886616 412.936486 
L 188.143734 413.826945 
L 188.400852 413.905119 
L 188.915089 413.044311 
L 189.172207 413.275238 
L 189.686443 413.262658 
L 189.943561 413.381266 
L 190.20068 412.436894 
L 190.457798 414.890825 
L 190.714916 413.079355 
L 190.972034 412.351532 
L 191.229152 412.310199 
L 191.486271 412.437792 
L 191.743389 413.290513 
L 192.000507 413.325556 
L 192.514743 412.294923 
L 192.771861 414.297784 
L 193.02898 413.951843 
L 193.286098 414.228596 
L 193.543216 413.1746 
L 194.057452 414.295088 
L 194.31457 414.579029 
L 194.571689 413.672395 
L 194.828807 414.641927 
L 195.343043 414.698536 
L 195.857279 412.422517 
L 196.114398 414.618565 
L 196.628634 411.967852 
L 196.885752 411.934606 
L 197.399988 413.39115 
L 197.657107 413.071268 
L 197.914225 413.247383 
L 198.171343 412.58156 
L 198.428461 414.923172 
L 198.685579 415.092998 
L 198.942698 414.973491 
L 199.199816 414.046191 
L 199.456934 414.022829 
L 199.714052 415.070534 
L 199.97117 414.64642 
L 200.228288 413.76225 
L 200.485407 414.526913 
L 201.256761 412.692979 
L 201.513879 411.745013 
L 201.770997 413.971611 
L 202.028116 414.026423 
L 202.542352 412.671414 
L 202.79947 413.025442 
L 203.056588 414.230393 
L 203.313706 414.115379 
L 203.570825 414.192654 
L 203.827943 413.252774 
L 204.085061 415.133432 
L 204.342179 415.075027 
L 204.856415 413.585236 
L 205.113534 413.905119 
L 205.370652 414.469406 
L 205.62777 414.542189 
L 205.884888 413.576251 
L 206.399125 415.033694 
L 206.656243 414.153118 
L 206.913361 414.183668 
L 207.170479 413.662511 
L 207.427597 416.016704 
L 207.684715 416.952091 
L 207.941834 417.173133 
L 208.198952 414.304074 
L 208.45607 414.303175 
L 208.713188 414.816245 
L 208.970306 414.241175 
L 209.227424 414.105495 
L 209.484543 413.186282 
L 209.741661 414.243871 
L 209.998779 414.611377 
L 210.513015 413.791004 
L 211.027252 415.154997 
L 211.28437 414.878245 
L 211.541488 414.891723 
L 212.055724 413.30489 
L 212.569961 412.988601 
L 212.827079 412.042432 
L 213.084197 412.770254 
L 213.341315 414.160306 
L 213.598433 414.138741 
L 213.855552 412.926602 
L 214.11267 413.778424 
L 214.369788 415.105577 
L 214.626906 415.17836 
L 215.141142 413.936568 
L 215.398261 413.901525 
L 215.655379 414.127959 
L 216.169615 412.883471 
L 216.426733 413.233006 
L 216.683851 414.19535 
L 216.94097 414.005756 
L 217.198088 413.971611 
L 217.455206 413.612193 
L 217.712324 414.059669 
L 217.969442 413.877264 
L 218.22656 413.832337 
L 218.483679 413.029036 
L 218.740797 413.422599 
L 218.997915 415.413779 
L 219.255033 414.206132 
L 219.512151 413.645439 
L 219.769269 413.455846 
L 220.026388 413.639149 
L 220.283506 413.975206 
L 220.540624 413.942858 
L 220.797742 412.453067 
L 221.05486 413.382165 
L 221.311978 415.789371 
L 221.569097 415.019317 
L 221.826215 413.839525 
L 222.083333 413.897032 
L 222.340451 414.572739 
L 222.597569 414.295987 
L 222.854688 414.341813 
L 223.111806 413.793699 
L 223.626042 413.742482 
L 224.140278 412.72982 
L 224.654515 415.191838 
L 225.168751 414.13964 
L 225.425869 414.227697 
L 225.682987 415.250243 
L 225.940106 415.305055 
L 226.197224 415.107375 
L 226.454342 414.186364 
L 226.71146 414.310364 
L 226.968578 415.597981 
L 227.225696 415.57372 
L 227.482815 413.587033 
L 227.739933 413.800888 
L 227.997051 415.315837 
L 228.254169 415.063346 
L 228.511287 415.036389 
L 228.768405 414.605087 
L 229.025524 414.677869 
L 229.282642 414.597899 
L 229.53976 414.818042 
L 229.796878 414.17019 
L 230.053996 414.056973 
L 230.311115 415.01123 
L 230.825351 414.535 
L 231.082469 413.172803 
L 231.339587 414.45503 
L 231.853824 414.462218 
L 232.110942 413.709236 
L 232.36806 414.134248 
L 232.625178 415.523402 
L 232.882296 414.89981 
L 233.139414 414.650913 
L 233.396533 414.831521 
L 234.167887 414.623058 
L 234.425005 414.288798 
L 234.682123 415.5243 
L 234.939242 418.219042 
L 235.19636 418.28194 
L 235.453478 417.605334 
L 235.710596 417.259394 
L 235.967714 415.358968 
L 236.224832 415.51801 
L 236.739069 413.585236 
L 236.996187 414.770419 
L 237.253305 414.987868 
L 237.767542 414.024626 
L 238.02466 414.497261 
L 238.281778 415.4623 
L 238.538896 415.305055 
L 238.796014 414.32474 
L 239.053132 414.342711 
L 239.310251 415.854067 
L 239.567369 418.639562 
L 239.824487 418.556895 
L 240.595841 415.774096 
L 241.110078 414.839608 
L 241.624314 418.851619 
L 241.881432 418.663822 
L 242.13855 417.570291 
L 242.395669 416.994323 
L 242.652787 415.618648 
L 242.909905 415.883719 
L 243.424141 413.532222 
L 243.938378 415.255635 
L 244.195496 415.066041 
L 244.452614 414.434363 
L 244.709732 414.931259 
L 244.96685 415.729169 
L 245.223969 415.868444 
L 245.738205 414.376856 
L 245.995323 416.481252 
L 246.252441 414.308566 
L 246.509559 414.205234 
L 246.766678 413.634656 
L 247.023796 414.927665 
L 247.538032 414.820738 
L 247.79515 414.354392 
L 248.052268 414.237581 
L 248.309387 415.009433 
L 248.823623 414.991462 
L 249.080741 414.432566 
L 249.337859 414.604188 
L 249.594977 415.955603 
L 249.852096 415.820821 
L 250.109214 415.373344 
L 250.366332 415.385924 
L 250.62345 416.233254 
L 250.880568 416.103863 
L 251.137686 415.829806 
L 251.394805 415.113664 
L 251.651923 416.366238 
L 251.909041 415.624039 
L 252.166159 415.432648 
L 252.423277 414.356189 
L 252.680396 415.443431 
L 252.937514 415.93224 
L 253.194632 415.626735 
L 253.45175 415.036389 
L 253.708868 415.309548 
L 253.965986 416.459687 
L 254.223105 416.343775 
L 254.480223 416.648382 
L 254.737341 415.843284 
L 254.994459 416.101167 
L 255.251577 416.967366 
L 255.508695 417.005105 
L 255.765814 416.221572 
L 256.022932 416.586382 
L 256.28005 417.635885 
L 256.537168 417.28635 
L 256.794286 417.198293 
L 257.051404 416.615136 
L 257.308523 417.003308 
L 257.565641 418.00968 
L 257.822759 418.052811 
L 258.079877 416.904468 
L 258.336995 416.646585 
L 258.594113 416.961975 
L 258.851232 416.99612 
L 259.10835 415.982559 
L 259.365468 415.615952 
L 259.622586 417.118322 
L 259.879704 417.180322 
L 260.136823 417.085974 
L 260.393941 416.544151 
L 261.165295 417.100351 
L 261.422413 419.773528 
L 261.679532 419.25866 
L 261.93665 420.478887 
L 262.193768 420.547176 
L 262.450886 418.204665 
L 262.708004 416.925135 
L 262.965122 416.92154 
L 263.222241 417.159655 
L 263.736477 415.166679 
L 263.993595 415.461402 
L 264.250713 417.816493 
L 264.76495 417.192901 
L 265.022068 416.572006 
L 265.279186 416.98354 
L 265.536304 417.996202 
L 265.793422 417.847044 
L 266.05054 416.883801 
L 266.307659 416.370731 
L 266.564777 417.378901 
L 267.336131 416.790353 
L 267.593249 417.450784 
L 267.850368 416.676237 
L 268.107486 415.210707 
L 268.364604 415.190939 
L 268.621722 415.819024 
L 268.87884 417.329481 
L 269.393077 416.11824 
L 269.650195 416.116442 
L 269.907313 417.688001 
L 270.164431 417.186612 
L 270.421549 417.059917 
L 270.678668 416.749918 
L 270.935786 417.224351 
L 271.192904 418.477823 
L 271.450022 418.376288 
L 271.70714 420.251555 
L 271.964258 420.68735 
L 272.221377 420.447438 
L 272.478495 420.522916 
L 272.992731 416.477658 
L 273.249849 418.781532 
L 273.506967 416.545948 
L 273.764086 416.315021 
L 274.021204 415.282591 
L 274.53544 417.426524 
L 274.792558 417.075192 
L 275.049676 417.349249 
L 275.306795 416.655571 
L 275.563913 417.702377 
L 276.078149 417.828174 
L 276.335267 416.813715 
L 276.592386 417.785942 
L 276.849504 417.75629 
L 277.36374 416.117341 
L 277.620858 416.660962 
L 277.877976 417.527161 
L 278.135095 417.794029 
L 278.392213 417.697885 
L 278.649331 417.024873 
L 278.906449 417.840754 
L 279.163567 418.088753 
L 279.420685 417.928811 
L 279.934922 416.237746 
L 280.19204 417.207278 
L 280.963394 416.083196 
L 281.220513 416.970062 
L 281.477631 417.156061 
L 281.734749 415.588097 
L 281.991867 415.793864 
L 282.248985 416.358152 
L 282.506103 417.723943 
L 282.763222 417.417538 
L 283.02034 416.644788 
L 283.277458 417.041946 
L 283.534576 417.661044 
L 284.048813 417.573885 
L 284.305931 416.305137 
L 284.563049 418.384374 
L 284.820167 416.877512 
L 285.077285 416.731947 
L 285.334403 416.286268 
L 285.591522 416.864932 
L 285.84864 417.764377 
L 286.105758 417.650262 
L 286.362876 417.364524 
L 286.877112 416.664556 
L 287.134231 416.488441 
L 287.391349 415.821719 
L 287.648467 415.77769 
L 287.905585 417.270177 
L 288.162703 417.591856 
L 288.419821 417.47235 
L 288.67694 416.368036 
L 289.191176 417.532552 
L 289.705412 417.060815 
L 289.96253 416.62502 
L 290.219649 418.386172 
L 290.476767 417.035656 
L 290.733885 416.972758 
L 290.991003 416.311427 
L 291.50524 418.117506 
L 291.762358 418.440084 
L 292.019476 418.001594 
L 292.276594 417.182119 
L 292.533712 417.919826 
L 292.79083 418.044724 
L 293.047949 417.393277 
L 293.305067 416.356354 
L 293.819303 417.936 
L 294.076421 417.782348 
L 294.333539 417.086873 
L 294.590658 417.835362 
L 295.362012 417.530755 
L 295.61913 416.727454 
L 296.133367 418.496693 
L 296.390485 418.452664 
L 296.647603 417.57119 
L 296.904721 417.978231 
L 297.161839 417.802116 
L 297.418957 418.04113 
L 297.933194 417.270177 
L 298.190312 418.79501 
L 298.704548 418.28194 
L 298.961667 417.540639 
L 299.218785 417.358234 
L 299.733021 417.597248 
L 299.990139 416.948497 
L 300.504376 418.183999 
L 300.761494 418.192085 
L 301.018612 418.454461 
L 301.27573 417.323191 
L 301.789966 419.051096 
L 302.047085 418.692576 
L 302.304203 417.826377 
L 302.561321 418.60362 
L 302.818439 420.033208 
L 303.075557 420.096106 
L 303.332675 419.124777 
L 303.589794 418.811184 
L 303.846912 419.29011 
L 304.10403 422.380212 
L 304.618266 421.071029 
L 304.875384 419.285617 
L 305.132503 420.090715 
L 305.389621 419.823846 
L 305.646739 418.566779 
L 306.160975 423.563598 
L 306.418094 422.743225 
L 306.675212 420.370163 
L 306.93233 420.023324 
L 307.189448 419.888542 
L 307.446566 419.31437 
L 307.703684 419.183183 
L 307.960803 417.961159 
L 308.217921 418.643156 
L 308.475039 418.213651 
L 308.732157 418.048318 
L 308.989275 418.454461 
L 309.246393 417.626001 
L 309.503512 419.496775 
L 309.76063 419.065473 
L 310.017748 418.981908 
L 310.274866 418.528142 
L 310.531984 418.60362 
L 310.789102 419.181385 
L 311.046221 419.281124 
L 311.303339 419.113096 
L 311.560457 418.179506 
L 311.817575 419.735789 
L 312.074693 419.876861 
L 312.331811 419.778919 
L 312.58893 419.082545 
L 312.846048 419.075357 
L 313.103166 420.064657 
L 313.617402 419.53092 
L 313.87452 420.274018 
L 314.131639 420.442945 
L 314.388757 420.336917 
L 314.645875 420.636133 
L 314.902993 419.263153 
L 315.160111 419.216429 
L 315.41723 420.186859 
L 315.674348 420.331525 
L 315.931466 419.229008 
L 316.445702 420.839204 
L 316.70282 420.712509 
L 316.959939 419.859788 
L 317.217057 419.919092 
L 317.474175 421.470883 
L 317.731293 421.484361 
L 317.988411 421.319028 
L 318.245529 420.92187 
L 318.502648 421.177956 
L 319.016884 420.077237 
L 319.274002 419.900223 
L 319.53112 420.128454 
L 319.788238 420.133845 
L 320.045357 420.462713 
L 320.302475 420.218308 
L 320.559593 419.296399 
L 320.816711 421.245347 
L 321.073829 421.691925 
L 321.330947 421.499636 
L 321.588066 419.946947 
L 321.845184 420.327931 
L 322.102302 421.142913 
L 322.35942 421.168072 
L 322.616538 419.93257 
L 322.873657 420.121265 
L 323.130775 420.630741 
L 323.387893 420.690944 
L 323.645011 419.955933 
L 323.902129 419.795991 
L 324.159247 420.115874 
L 324.416366 420.691842 
L 324.930602 419.733093 
L 325.18772 420.683756 
L 325.959075 420.32883 
L 326.216193 419.378167 
L 326.473311 421.195927 
L 326.730429 421.536476 
L 326.987547 421.638911 
L 327.244665 420.570539 
L 327.501784 420.984769 
L 328.273138 420.622654 
L 328.530256 419.676485 
L 328.787374 421.859055 
L 329.301611 421.644302 
L 329.558729 421.304651 
L 329.815847 421.851866 
L 330.072965 422.677631 
L 330.330084 422.400878 
L 330.587202 421.67036 
L 331.101438 422.877108 
L 331.615674 422.638993 
L 331.872793 421.912069 
L 332.387029 422.90676 
L 332.644147 422.565312 
L 332.901265 420.979377 
L 333.158383 421.231869 
L 333.415502 421.78178 
L 333.67262 421.717084 
L 333.929738 421.108768 
L 334.186856 419.834629 
L 334.443974 421.757519 
L 334.958211 421.168971 
L 335.215329 420.592104 
L 335.472447 420.893117 
L 335.729565 422.527573 
L 335.986683 421.648795 
L 336.243801 423.95806 
L 336.50092 424.10632 
L 336.758038 424.10632 
L 337.015156 421.971373 
L 337.272274 421.959692 
L 337.529392 421.294767 
L 338.043629 422.22656 
L 338.300747 422.093575 
L 338.557865 420.52022 
L 338.814983 421.089 
L 339.072101 422.008213 
L 339.32922 421.829403 
L 339.843456 420.584017 
L 340.100574 423.11073 
L 340.61481 422.880702 
L 340.871929 422.238241 
L 341.129047 422.45569 
L 341.386165 423.759481 
L 341.643283 423.686699 
L 341.900401 423.045136 
L 342.157519 422.76479 
L 342.414638 422.102561 
L 342.671756 422.131314 
L 343.185992 420.122164 
L 343.44311 422.480849 
L 343.700228 422.745022 
L 344.214465 420.871552 
L 344.471583 421.500535 
L 344.728701 423.019977 
L 344.985819 422.666848 
L 345.500056 421.449317 
L 345.757174 423.002905 
L 346.014292 422.986731 
L 346.27141 422.767485 
L 346.528528 422.108851 
L 346.785647 422.413458 
L 347.042765 423.610322 
L 347.557001 422.130416 
L 347.814119 422.740529 
L 348.328356 423.208672 
L 348.585474 422.169053 
L 348.842592 421.664969 
L 349.356828 421.967779 
L 349.613946 421.784475 
L 349.871065 421.320825 
L 350.128183 421.500535 
L 350.385301 423.056817 
L 350.642419 422.883398 
L 351.156655 421.444825 
L 351.413774 422.14659 
L 351.670892 422.320009 
L 351.92801 422.204995 
L 352.185128 421.684737 
L 352.442246 422.619225 
L 352.699365 424.368696 
L 352.956483 423.731626 
L 353.213601 423.578873 
L 353.470719 422.843862 
L 353.727837 423.462961 
L 354.242074 423.572583 
L 354.499192 422.839369 
L 354.75631 423.485424 
L 355.013428 422.380212 
L 355.270546 422.675834 
L 355.527664 421.541868 
L 355.784783 421.688331 
L 356.041901 423.413541 
L 356.299019 423.430613 
L 356.813255 421.602969 
L 357.070373 421.72607 
L 357.327492 422.332589 
L 357.841728 421.743142 
L 358.613082 423.350642 
L 358.870201 423.193397 
L 359.127319 422.424241 
L 359.384437 423.639974 
L 359.641555 423.952669 
L 359.898673 423.459366 
L 360.155791 422.43053 
L 360.41291 423.34615 
L 360.670028 422.904963 
L 360.927146 422.890586 
L 361.441382 421.592186 
L 361.698501 423.299425 
L 361.955619 422.87621 
L 362.212737 421.658679 
L 362.469855 421.718881 
L 362.726973 422.106155 
L 362.984091 423.124208 
L 363.24121 423.227541 
L 363.498328 425.475705 
L 363.755446 425.799182 
L 364.012564 426.92596 
L 364.269682 426.894511 
L 364.5268 424.369594 
L 364.783919 423.403657 
L 365.041037 423.956263 
L 365.298155 423.437801 
L 365.555273 423.639974 
L 365.812391 423.081078 
L 366.069509 424.95365 
L 366.326628 424.978809 
L 367.097982 423.88977 
L 367.3551 424.53942 
L 367.869337 424.350725 
L 368.126455 423.324584 
L 368.383573 426.003152 
L 368.640691 427.11735 
L 368.897809 426.853177 
L 369.154928 423.734322 
L 369.669164 425.386749 
L 369.926282 425.34272 
L 370.1834 427.412972 
L 370.440518 426.891815 
L 370.697637 428.488533 
L 370.954755 426.345499 
L 371.211873 426.656396 
L 371.468991 426.104688 
L 371.726109 425.982486 
L 371.983227 425.330141 
L 372.240346 425.275329 
L 372.497464 424.590637 
L 372.754582 425.05249 
L 373.268818 425.197156 
L 373.525936 425.2933 
L 373.783055 423.731626 
L 374.040173 424.82965 
L 374.297291 424.788317 
L 374.554409 425.103707 
L 374.811527 424.506173 
L 375.068645 424.560985 
L 375.325764 425.508053 
L 375.582882 425.541299 
L 375.84 425.381358 
L 376.097118 424.534028 
L 376.354236 425.6024 
L 376.611355 425.596111 
L 376.868473 425.476604 
L 377.125591 424.935679 
L 377.382709 425.544893 
L 377.639827 425.126171 
L 378.154064 423.485424 
L 378.411182 424.20516 
L 378.6683 425.55298 
L 378.925418 425.493676 
L 379.182536 425.268141 
L 379.439654 424.373188 
L 379.696773 425.31846 
L 380.211009 425.18817 
L 380.468127 424.244696 
L 380.725245 425.127069 
L 380.982363 426.803757 
L 381.239482 427.032887 
L 381.753718 426.81454 
L 382.010836 427.000539 
L 382.267954 426.987061 
L 382.525072 426.794772 
L 382.782191 425.451445 
L 383.039309 426.15321 
L 383.296427 427.801144 
L 383.553545 427.665464 
L 384.067782 425.725501 
L 384.3249 427.452508 
L 384.582018 426.161296 
L 384.839136 426.055268 
L 385.096254 425.519734 
L 385.610491 426.558454 
L 385.867609 426.504541 
L 386.124727 425.595212 
L 386.381845 426.321238 
L 386.896081 426.366165 
L 387.1532 424.491797 
L 387.410318 425.155823 
L 387.667436 426.35718 
L 388.181672 426.341006 
L 388.43879 425.495473 
L 388.695909 426.170282 
L 388.953027 426.122659 
L 389.210145 426.403904 
L 389.724381 424.92849 
L 389.981499 425.721907 
L 390.238618 425.562864 
L 390.495736 425.543995 
L 390.752854 425.05249 
L 391.009972 426.335615 
L 391.26709 425.99866 
L 391.524209 425.876457 
L 391.781327 425.122576 
L 392.295563 426.552164 
L 392.552681 425.765037 
L 392.809799 426.009442 
L 393.066918 425.474807 
L 393.324036 427.151495 
L 393.581154 426.69683 
L 393.838272 426.899003 
L 394.09539 426.051674 
L 394.609627 427.120046 
L 395.123863 426.160398 
L 395.380981 424.74968 
L 395.638099 426.261035 
L 395.895217 426.165789 
L 396.152336 426.359875 
L 396.409454 425.709327 
L 396.666572 425.981587 
L 396.92369 426.897206 
L 397.180808 426.622251 
L 397.437926 425.705733 
L 397.695045 426.3446 
L 397.952163 426.510831 
L 398.466399 424.875476 
L 398.723517 424.82336 
L 399.237754 427.302451 
L 399.494872 427.17306 
L 399.75199 426.85767 
L 400.009108 426.943931 
L 400.266226 427.705 
L 400.523345 430.159829 
L 400.780463 429.435601 
L 401.037581 430.352118 
L 401.294699 428.086882 
L 401.551817 427.879318 
L 401.808935 427.832593 
L 402.066054 426.665381 
L 402.323172 428.442707 
L 402.58029 428.43462 
L 402.837408 428.023085 
L 403.094526 427.034684 
L 403.351644 427.873028 
L 403.865881 427.999723 
L 404.380117 426.025616 
L 404.637235 428.277374 
L 404.894353 427.438131 
L 405.151472 427.570218 
L 405.40859 427.088597 
L 405.665708 428.122824 
L 405.922826 429.643165 
L 406.437062 427.996129 
L 406.951299 429.976526 
L 407.208417 429.832758 
L 407.465535 429.830063 
L 407.979772 428.58288 
L 408.494008 428.511895 
L 408.751126 427.749927 
L 409.008244 428.550532 
L 409.522481 428.64488 
L 410.036717 427.296161 
L 410.293835 428.236041 
L 410.550953 428.525373 
L 410.808071 428.337577 
L 411.06519 427.59987 
L 411.322308 428.289954 
L 411.579426 429.58476 
L 412.093662 428.384301 
L 412.35078 428.257606 
L 412.607899 428.95398 
L 412.865017 429.024066 
L 413.122135 429.238819 
L 413.379253 428.657459 
L 413.893489 428.617923 
L 414.150608 427.81013 
L 414.407726 427.543261 
L 414.664844 427.660072 
L 414.921962 428.955777 
L 415.17908 429.056414 
L 415.436199 428.958472 
L 415.693317 428.129114 
L 415.950435 428.856937 
L 416.207553 428.140795 
L 416.464671 428.287258 
L 416.721789 427.215292 
L 416.978908 427.639406 
L 417.236026 429.184008 
L 417.493144 429.333166 
L 418.00738 428.308823 
L 418.264498 429.206471 
L 418.521617 429.47334 
L 418.778735 429.264877 
L 419.035853 428.404069 
L 419.550089 430.92 
L 419.807207 430.034033 
L 420.064326 429.742005 
L 420.321444 428.950386 
L 420.578562 429.082472 
L 420.83568 428.183925 
L 421.092798 428.091375 
L 421.349916 427.581899 
L 421.607035 428.971052 
L 422.121271 429.408644 
L 422.378389 428.62601 
L 422.635507 428.481344 
L 422.892626 430.041221 
L 423.149744 429.246906 
L 423.406862 428.927922 
L 423.66398 428.005114 
L 423.921098 428.703285 
L 424.178216 428.388794 
L 424.435335 427.675348 
L 424.692453 426.459614 
L 424.949571 426.648309 
L 425.206689 427.007728 
L 425.463807 425.885443 
L 425.720925 425.641038 
L 425.978044 424.965331 
L 426.235162 426.124456 
L 426.749398 425.222315 
L 427.006516 424.245595 
L 427.263634 425.426285 
L 427.520753 425.019244 
L 427.777871 425.028229 
L 428.034989 424.398348 
L 428.292107 425.372372 
L 428.806343 426.101094 
L 429.063462 425.977094 
L 429.32058 425.301387 
L 429.577698 426.292484 
L 429.834816 426.286194 
L 430.091934 426.104688 
L 430.349053 425.338228 
L 430.863289 426.682454 
L 431.120407 426.464107 
L 431.634643 424.321073 
L 431.891762 425.832428 
L 432.14888 425.737182 
L 432.405998 425.822544 
L 432.920234 429.587455 
L 433.177352 429.698875 
L 433.434471 426.67257 
L 433.691589 426.277209 
L 434.205825 426.728279 
L 434.462943 429.566789 
L 434.720061 430.220931 
L 434.97718 429.67731 
L 435.234298 426.973583 
L 435.748534 426.983467 
L 436.005652 424.488202 
L 436.26277 426.112775 
L 436.519889 425.292402 
L 436.777007 425.047099 
L 437.034125 424.309392 
L 437.548361 425.622168 
L 437.80548 425.549386 
L 438.062598 425.672487 
L 438.319716 424.927592 
L 438.833952 426.176572 
L 439.348189 424.909621 
L 439.605307 425.333735 
L 439.862425 426.291586 
L 440.376661 426.160398 
L 440.633779 425.534111 
L 441.148016 426.191847 
L 441.405134 425.278025 
L 441.662252 424.788317 
L 441.91937 425.762342 
L 442.690725 424.17461 
L 443.204961 426.230485 
L 443.462079 426.220601 
L 443.719197 425.87466 
L 443.976316 425.31846 
L 444.490552 426.349093 
L 444.74767 426.416484 
L 445.004788 425.077649 
L 445.261906 427.049959 
L 445.519025 427.045466 
L 445.776143 426.87025 
L 446.033261 425.373271 
L 446.290379 425.431677 
L 446.547497 426.600686 
L 446.804616 425.9115 
L 447.061734 426.006746 
L 447.318852 425.459531 
L 447.57597 426.792076 
L 447.833088 427.47587 
L 448.604443 425.47301 
L 448.861561 426.524309 
L 449.375797 426.562048 
L 449.632915 425.676081 
L 449.890034 426.382339 
L 450.40427 426.522512 
L 450.661388 425.662603 
L 450.918506 426.755236 
L 451.175624 427.302451 
L 451.432743 427.331204 
L 451.689861 425.626661 
L 451.946979 425.638342 
L 452.204097 426.568338 
L 452.718333 426.291586 
L 452.975452 425.511647 
L 453.489688 427.375233 
L 453.746806 427.288074 
L 454.003924 426.500947 
L 454.261043 426.086717 
L 454.518161 426.621352 
L 454.775279 426.547672 
L 455.032397 426.620454 
L 455.289515 425.866573 
L 455.546633 426.522512 
L 455.803752 426.089413 
L 456.06087 426.161296 
L 456.317988 425.326547 
L 456.575106 426.217905 
L 457.089342 426.339209 
L 457.346461 425.468517 
L 457.603579 425.429879 
L 457.860697 427.043669 
L 458.117815 426.680656 
L 458.374933 426.014833 
L 458.632051 424.791911 
L 458.88917 426.18376 
L 459.403406 424.251885 
L 459.660524 423.555511 
L 459.917642 424.24829 
L 460.17476 425.585328 
L 460.688997 425.066867 
L 461.203233 423.626496 
L 462.231706 422.895978 
L 462.488824 424.479217 
L 463.00306 422.986731 
L 463.260179 423.295831 
L 463.517297 424.558289 
L 463.774415 424.58884 
L 464.031533 423.630989 
L 464.288651 423.149368 
L 464.545769 424.663419 
L 464.802888 427.549551 
L 465.060006 426.33831 
L 465.317124 425.756052 
L 465.574242 422.825891 
L 465.83136 423.196991 
L 466.088478 422.995716 
L 466.345597 421.970474 
L 466.602715 421.402593 
L 466.859833 422.593167 
L 467.116951 422.550936 
L 467.374069 422.059431 
L 467.631187 421.153696 
L 468.145424 423.325483 
L 468.402542 422.966064 
L 468.65966 422.336183 
L 469.173897 422.753109 
L 469.431015 423.05502 
L 469.688133 422.847456 
L 469.945251 422.243633 
L 470.459487 422.769283 
L 470.716606 421.584998 
L 470.973724 421.093493 
L 471.230842 421.976764 
L 471.745078 422.552733 
L 472.002196 421.871634 
L 472.259315 421.91117 
L 472.516433 423.37041 
L 472.773551 422.791746 
L 473.030669 422.783659 
L 473.287787 422.070213 
L 473.544905 424.043422 
L 473.802024 424.265363 
L 474.059142 424.272551 
L 474.31626 423.788235 
L 474.573378 422.657863 
L 474.830496 423.518671 
L 475.087614 423.41983 
L 475.344733 422.92563 
L 475.601851 421.160884 
L 475.858969 421.180652 
L 476.116087 420.564249 
L 476.373205 420.436655 
L 476.630324 418.765358 
L 476.887442 419.584833 
L 477.14456 421.482564 
L 477.401678 421.317231 
L 477.658796 420.023324 
L 477.915914 419.606398 
L 478.173033 420.153613 
L 478.430151 418.810286 
L 478.944387 417.782348 
L 479.201505 419.269443 
L 479.458623 419.474312 
L 479.715742 420.21112 
L 479.97286 419.410515 
L 480.229978 419.812165 
L 480.487096 421.219289 
L 480.744214 420.630741 
L 481.001332 419.191269 
L 481.258451 418.703359 
L 481.515569 419.605499 
L 482.029805 418.884865 
L 482.286923 418.006086 
L 482.544041 417.883884 
L 482.80116 419.462631 
L 483.058278 419.20924 
L 483.572514 417.741914 
L 483.829632 419.018748 
L 484.343869 418.545214 
L 484.600987 417.72574 
L 484.858105 419.466225 
L 485.115223 418.904633 
L 485.372341 417.298031 
L 485.62946 417.076989 
L 485.886578 417.810203 
L 486.143696 417.833565 
L 486.400814 417.692493 
L 486.657932 417.205481 
L 486.91505 417.483132 
L 487.172169 417.532552 
L 487.429287 417.330379 
L 487.686405 416.707686 
L 487.943523 416.645687 
L 488.457759 418.066289 
L 488.714878 417.889275 
L 488.971996 417.128206 
L 489.229114 417.799421 
L 489.486232 417.844348 
L 489.74335 418.012376 
L 490.000468 417.452581 
L 490.257587 417.253104 
L 490.514705 418.556895 
L 490.771823 418.142665 
L 491.028941 418.161535 
L 491.286059 417.656552 
L 491.543177 417.846145 
L 491.800296 418.664721 
L 492.057414 421.14471 
L 492.57165 419.613586 
L 492.828768 419.999063 
L 493.085887 417.042844 
L 493.343005 416.376122 
L 493.600123 415.36975 
L 493.857241 416.324905 
L 494.371477 414.752449 
L 494.628596 413.915902 
L 494.885714 414.818042 
L 495.142832 414.406508 
L 495.657068 412.157446 
L 496.171305 414.623058 
L 496.428423 414.3499 
L 496.685541 416.707686 
L 496.942659 415.896299 
L 497.199777 416.971859 
L 497.456895 418.81388 
L 497.971132 414.659898 
L 498.22825 414.787492 
L 498.485368 415.494648 
L 498.742486 418.287331 
L 498.999604 418.1211 
L 499.256723 414.935752 
L 499.513841 416.067921 
L 499.770959 416.375224 
L 500.028077 416.387804 
L 500.285195 415.354475 
L 500.542314 413.77483 
L 500.799432 413.394744 
L 501.05655 413.715526 
L 501.313668 413.543005 
L 501.570786 413.226716 
L 501.827904 413.832337 
L 502.085023 413.764047 
L 502.342141 413.841322 
L 502.599259 412.666922 
L 503.113495 414.357088 
L 503.370613 414.112683 
L 503.627732 413.455846 
L 503.88485 413.643642 
L 504.141968 414.130654 
L 504.399086 414.172886 
L 504.656204 414.088423 
L 504.913322 413.550193 
L 505.170441 415.082215 
L 505.684677 414.905201 
L 506.198913 413.744279 
L 506.456031 414.150422 
L 506.970268 412.580661 
L 507.227386 412.497096 
L 507.484504 413.253673 
L 507.741622 413.392947 
L 507.998741 413.116195 
L 508.255859 412.569879 
L 508.770095 414.643724 
L 509.027213 414.411899 
L 509.284331 413.687671 
L 509.54145 413.665207 
L 509.798568 413.960829 
L 510.312804 412.850225 
L 510.569922 410.939016 
L 510.82704 411.872606 
L 511.084159 412.218547 
L 511.341277 411.962461 
L 511.855513 410.815017 
L 512.112631 411.443999 
L 512.369749 410.306439 
L 512.626868 409.840992 
L 512.883986 408.715113 
L 513.141104 409.29198 
L 513.398222 409.219198 
L 513.912458 408.159811 
L 514.169577 408.351202 
L 514.426695 409.395313 
L 514.683813 409.476182 
L 514.940931 408.423085 
L 515.198049 408.508447 
L 515.712286 409.211111 
L 515.969404 409.400704 
L 516.226522 408.68007 
L 516.48364 410.52209 
L 516.740758 410.208498 
L 517.254995 408.853489 
L 517.512113 407.475119 
L 517.769231 407.625176 
L 518.026349 408.096014 
L 518.283467 407.78961 
L 518.540586 406.608919 
L 518.797704 408.085232 
L 519.054822 408.200246 
L 519.31194 408.122971 
L 519.569058 406.819179 
L 519.826176 407.254076 
L 520.083295 409.097894 
L 520.597531 407.505669 
L 520.854649 407.94416 
L 521.111767 408.765432 
L 521.626004 408.702533 
L 521.883122 408.050188 
L 522.14024 408.140043 
L 522.397358 408.846301 
L 522.654476 408.484186 
L 522.911595 407.600017 
L 523.168713 408.031319 
L 523.425831 409.530095 
L 523.682949 409.394414 
L 524.197185 407.964826 
L 524.454304 408.264941 
L 524.711422 408.371868 
L 524.96854 407.499379 
L 525.225658 407.30709 
L 525.739894 409.058358 
L 526.254131 408.883141 
L 526.511249 408.25955 
L 526.768367 408.917286 
L 527.025485 408.592911 
L 527.282603 408.03042 
L 527.539722 406.847034 
L 527.79684 406.868599 
L 528.053958 405.09397 
L 528.568194 403.689541 
L 528.825312 407.507466 
L 529.082431 408.567751 
L 529.596667 408.310767 
L 529.853785 405.178433 
L 530.110903 405.145187 
L 530.368022 404.824406 
L 530.62514 403.229485 
L 530.882258 402.446851 
L 531.396494 404.688725 
L 531.653612 404.077713 
L 531.910731 403.951018 
L 532.167849 403.51702 
L 532.424967 404.037279 
L 532.682085 403.694034 
L 532.939203 403.741657 
L 533.196321 402.999457 
L 533.45344 404.633914 
L 533.710558 404.538668 
L 533.967676 404.637508 
L 534.481912 402.917689 
L 534.73903 403.605976 
L 534.996149 403.322035 
L 535.253267 402.831429 
L 535.510385 401.604913 
L 535.767503 403.961801 
L 536.024621 403.623947 
L 536.281739 403.534093 
L 536.538858 402.335431 
L 537.053094 403.472991 
L 537.56733 403.224992 
L 537.824448 402.584329 
L 538.081567 403.799164 
L 538.595803 402.549285 
L 538.852921 402.550184 
L 539.110039 402.887139 
L 539.367158 403.701222 
L 539.624276 403.605078 
L 539.881394 402.764038 
L 540.138512 403.044385 
L 540.39563 404.340089 
L 540.652748 404.25293 
L 540.909867 403.939337 
L 541.166985 403.131544 
L 541.424103 403.619454 
L 541.681221 403.446035 
L 541.938339 403.543977 
L 542.195457 402.67598 
L 542.709694 403.530498 
L 542.966812 403.133341 
L 543.22393 403.243862 
L 543.481048 402.611285 
L 543.738166 403.180065 
L 543.995285 403.037196 
L 544.252403 402.069461 
L 544.509521 401.69297 
L 544.766639 401.889752 
L 545.280875 400.967843 
L 545.537994 399.655066 
L 545.795112 400.273266 
L 546.05223 399.805124 
L 546.309348 399.619124 
L 546.566466 399.812312 
L 546.823585 398.754722 
L 547.080703 401.08735 
L 547.594939 399.700892 
L 547.852057 398.174261 
L 548.109175 398.043972 
L 548.366294 398.42226 
L 548.623412 398.353072 
L 548.88053 397.417685 
L 549.137648 397.191251 
L 549.394766 399.199503 
L 549.651884 398.26771 
L 549.909003 398.216493 
L 550.166121 397.524612 
L 550.680357 400.041441 
L 550.937475 399.019794 
L 551.194593 398.9542 
L 551.70883 399.279474 
L 552.223066 398.902983 
L 552.480184 398.240754 
L 552.737302 398.502231 
L 552.994421 398.547158 
L 553.251539 398.290174 
L 553.508657 397.466206 
L 553.765775 398.099682 
L 554.022893 398.388115 
L 554.280012 398.410579 
L 554.794248 397.106788 
L 555.051366 398.922751 
L 555.308484 399.053938 
L 555.565602 398.663071 
L 555.822721 397.2847 
L 556.079839 397.592003 
L 556.336957 398.841881 
L 556.594075 398.925446 
L 557.108311 397.751944 
L 557.36543 398.52739 
L 557.879666 398.322521 
L 558.136784 397.917277 
L 558.393902 398.682839 
L 558.65102 399.070112 
L 559.165257 396.776122 
L 559.422375 397.107686 
L 559.679493 399.146489 
L 560.193729 397.778901 
L 560.450848 399.378314 
L 560.707966 399.653269 
L 560.965084 402.512445 
L 561.222202 402.273431 
L 561.47932 401.239204 
L 561.736439 401.49529 
L 562.764911 396.897426 
L 563.022029 400.172629 
L 563.279148 400.083673 
L 563.536266 397.108585 
L 563.793384 396.188473 
L 564.050502 397.634235 
L 564.30762 397.843596 
L 564.564738 395.789518 
L 565.078975 394.466857 
L 565.336093 395.3681 
L 565.593211 394.890971 
L 565.850329 394.908942 
L 566.107447 394.402162 
L 566.364566 395.430099 
L 566.621684 395.608012 
L 566.878802 395.609809 
L 567.393038 393.486543 
L 567.650156 394.502799 
L 567.907275 394.64477 
L 568.164393 393.811817 
L 568.421511 393.67973 
L 568.678629 394.749001 
L 568.935747 394.706769 
L 569.449984 392.165679 
L 569.96422 394.021178 
L 570.221338 394.031961 
L 570.478456 393.490137 
L 570.735575 393.717469 
L 570.992693 394.407553 
L 571.249811 394.419234 
L 571.506929 394.285351 
L 571.764047 393.280776 
L 572.021165 394.771465 
L 572.278284 394.94129 
L 572.535402 394.300626 
L 572.79252 393.231356 
L 573.049638 393.829788 
L 573.306756 394.000512 
L 573.563874 392.725474 
L 573.820993 392.544866 
L 574.078111 391.93026 
L 574.335229 394.042743 
L 574.592347 393.643789 
L 574.849465 393.620426 
L 575.106583 392.940226 
L 575.363702 393.872918 
L 575.62082 393.460485 
L 575.877938 393.480253 
L 576.135056 392.671561 
L 576.392174 393.740832 
L 576.649293 394.332075 
L 576.906411 394.501901 
L 577.163529 394.244018 
L 577.420647 393.491934 
L 577.677765 394.019381 
L 577.934883 393.738136 
L 578.192002 393.261906 
L 578.44912 392.417272 
L 578.963356 393.798339 
L 579.220474 393.873817 
L 579.477592 392.915966 
L 579.734711 391.038902 
L 579.991829 391.696638 
L 580.763183 390.197862 
L 581.020301 391.176379 
L 581.27742 390.355108 
L 581.534538 390.063978 
L 581.791656 388.660448 
L 582.048774 388.904853 
L 582.305892 389.398155 
L 582.820129 388.327986 
L 583.077247 386.910978 
L 583.334365 388.750303 
L 583.591483 388.658651 
L 583.848601 388.089871 
L 584.105719 387.202107 
L 584.362838 388.249812 
L 584.619956 387.470772 
L 584.877074 387.293759 
L 585.134192 386.400603 
L 585.39131 386.766312 
L 585.648429 388.116828 
L 585.905547 387.931727 
L 586.162665 388.134799 
L 586.419783 389.12949 
L 586.676901 389.603024 
L 586.934019 388.454681 
L 587.191138 388.377406 
L 587.448256 387.560627 
L 587.962492 389.119606 
L 588.21961 389.153751 
L 588.476728 389.346938 
L 588.733847 388.571492 
L 588.990965 389.126794 
L 589.248083 389.085461 
L 589.505201 388.827578 
L 589.762319 388.218363 
L 590.019437 388.624506 
L 590.276556 388.310015 
L 590.533674 388.194103 
L 590.790792 387.611844 
L 591.04791 389.057606 
L 591.305028 389.700965 
L 591.562146 389.934588 
L 591.819265 389.833052 
L 592.076383 389.139374 
L 592.333501 389.268764 
L 592.590619 388.92552 
L 592.847737 388.896766 
L 593.104856 390.271543 
L 593.361974 391.006554 
L 593.619092 392.607764 
L 593.87621 389.73511 
L 594.133328 389.664125 
L 594.390446 388.703579 
L 594.647565 389.344242 
L 594.904683 388.773665 
L 595.161801 388.912041 
L 595.418919 388.285754 
L 595.676037 389.461952 
L 595.933155 388.444797 
L 596.190274 388.395377 
L 596.447392 387.677438 
L 596.961628 388.611028 
L 597.218746 388.383696 
L 597.475864 387.792452 
L 597.732983 386.453618 
L 597.990101 386.845384 
L 598.504337 386.653993 
L 598.761455 385.148029 
L 599.018573 385.918982 
L 599.275692 387.23086 
L 600.047046 385.290898 
L 600.304164 385.798577 
L 600.561283 384.733799 
L 600.818401 384.371685 
L 601.075519 383.649253 
L 601.332637 384.218033 
L 601.589755 385.602694 
L 601.846873 385.662896 
L 602.36111 383.611514 
L 602.618228 384.661017 
L 603.132464 384.475018 
L 603.389582 383.943078 
L 603.646701 385.975591 
L 604.160937 381.893493 
L 604.418055 381.813522 
L 604.675173 382.570099 
L 604.932291 383.779542 
L 605.18941 383.843339 
L 605.446528 382.904358 
L 605.703646 382.767779 
L 605.960764 383.315892 
L 606.475 383.258385 
L 606.732119 382.681518 
L 607.246355 384.231511 
L 607.503473 384.179396 
L 607.760591 383.366211 
L 608.01771 382.133405 
L 608.274828 383.222443 
L 608.531946 383.215255 
L 608.789064 382.200796 
L 609.046182 381.999521 
L 609.3033 383.401254 
L 609.560419 383.234125 
L 609.817537 382.515287 
L 610.074655 382.199897 
L 610.331773 382.685113 
L 610.588891 384.78861 
L 610.846009 383.866702 
L 611.103128 383.389573 
L 611.360246 383.872991 
L 611.617364 384.624176 
L 611.874482 384.608901 
L 612.1316 384.467829 
L 612.388718 383.497399 
L 612.645837 385.104 
L 612.902955 382.306824 
L 613.160073 382.224158 
L 613.417191 381.173757 
L 613.931427 382.038159 
L 614.188546 382.029173 
L 614.445664 381.69132 
L 614.702782 380.624745 
L 614.9599 380.653498 
L 615.217018 380.223993 
L 615.474137 380.082023 
L 615.731255 379.272432 
L 616.245491 381.172858 
L 616.502609 381.082105 
L 616.759727 380.269819 
L 617.016846 380.108081 
L 617.273964 380.149414 
L 617.7882 378.123191 
L 618.045318 377.770062 
L 618.302436 379.688459 
L 618.559555 379.120578 
L 618.816673 379.271533 
L 619.073791 378.632667 
L 619.330909 377.549019 
L 619.330909 377.549019 
" style="fill:none;stroke:#1f77b4;stroke-linecap:square;stroke-width:1.5;"/>
   </g>
   <g id="patch_3">
    <path d="M 108 448.56 
L 108 60.48 
" style="fill:none;stroke:#000000;stroke-linecap:square;stroke-linejoin:miter;stroke-width:0.8;"/>
   </g>
   <g id="patch_4">
    <path d="M 643.68 448.56 
L 643.68 60.48 
" style="fill:none;stroke:#000000;stroke-linecap:square;stroke-linejoin:miter;stroke-width:0.8;"/>
   </g>
   <g id="patch_5">
    <path d="M 108 448.56 
L 643.68 448.56 
" style="fill:none;stroke:#000000;stroke-linecap:square;stroke-linejoin:miter;stroke-width:0.8;"/>
   </g>
   <g id="patch_6">
    <path d="M 108 60.48 
L 643.68 60.48 
" style="fill:none;stroke:#000000;stroke-linecap:square;stroke-linejoin:miter;stroke-width:0.8;"/>
   </g>
   <g id="text_33">
    <!-- unikernel_dce - free -->
    <g transform="translate(301.653281 54.48)scale(0.15 -0.15)">
     <defs>
      <path d="M 8.5 21.578125 
L 8.5 54.6875 
L 17.484375 54.6875 
L 17.484375 21.921875 
Q 17.484375 14.15625 20.5 10.265625 
Q 23.53125 6.390625 29.59375 6.390625 
Q 36.859375 6.390625 41.078125 11.03125 
Q 45.3125 15.671875 45.3125 23.6875 
L 45.3125 54.6875 
L 54.296875 54.6875 
L 54.296875 0 
L 45.3125 0 
L 45.3125 8.40625 
Q 42.046875 3.421875 37.71875 1 
Q 33.40625 -1.421875 27.6875 -1.421875 
Q 18.265625 -1.421875 13.375 4.4375 
Q 8.5 10.296875 8.5 21.578125 
z
M 31.109375 56 
z
" id="DejaVuSans-117"/>
      <path d="M 54.890625 33.015625 
L 54.890625 0 
L 45.90625 0 
L 45.90625 32.71875 
Q 45.90625 40.484375 42.875 44.328125 
Q 39.84375 48.1875 33.796875 48.1875 
Q 26.515625 48.1875 22.3125 43.546875 
Q 18.109375 38.921875 18.109375 30.90625 
L 18.109375 0 
L 9.078125 0 
L 9.078125 54.6875 
L 18.109375 54.6875 
L 18.109375 46.1875 
Q 21.34375 51.125 25.703125 53.5625 
Q 30.078125 56 35.796875 56 
Q 45.21875 56 50.046875 50.171875 
Q 54.890625 44.34375 54.890625 33.015625 
z
" id="DejaVuSans-110"/>
      <path d="M 9.078125 75.984375 
L 18.109375 75.984375 
L 18.109375 31.109375 
L 44.921875 54.6875 
L 56.390625 54.6875 
L 27.390625 29.109375 
L 57.625 0 
L 45.90625 0 
L 18.109375 26.703125 
L 18.109375 0 
L 9.078125 0 
z
" id="DejaVuSans-107"/>
      <path d="M 41.109375 46.296875 
Q 39.59375 47.171875 37.8125 47.578125 
Q 36.03125 48 33.890625 48 
Q 26.265625 48 22.1875 43.046875 
Q 18.109375 38.09375 18.109375 28.8125 
L 18.109375 0 
L 9.078125 0 
L 9.078125 54.6875 
L 18.109375 54.6875 
L 18.109375 46.1875 
Q 20.953125 51.171875 25.484375 53.578125 
Q 30.03125 56 36.53125 56 
Q 37.453125 56 38.578125 55.875 
Q 39.703125 55.765625 41.0625 55.515625 
z
" id="DejaVuSans-114"/>
      <path d="M 9.421875 75.984375 
L 18.40625 75.984375 
L 18.40625 0 
L 9.421875 0 
z
" id="DejaVuSans-108"/>
      <path d="M 50.984375 -16.609375 
L 50.984375 -23.578125 
L -0.984375 -23.578125 
L -0.984375 -16.609375 
z
" id="DejaVuSans-95"/>
      <path d="M 45.40625 46.390625 
L 45.40625 75.984375 
L 54.390625 75.984375 
L 54.390625 0 
L 45.40625 0 
L 45.40625 8.203125 
Q 42.578125 3.328125 38.25 0.953125 
Q 33.9375 -1.421875 27.875 -1.421875 
Q 17.96875 -1.421875 11.734375 6.484375 
Q 5.515625 14.40625 5.515625 27.296875 
Q 5.515625 40.1875 11.734375 48.09375 
Q 17.96875 56 27.875 56 
Q 33.9375 56 38.25 53.625 
Q 42.578125 51.265625 45.40625 46.390625 
z
M 14.796875 27.296875 
Q 14.796875 17.390625 18.875 11.75 
Q 22.953125 6.109375 30.078125 6.109375 
Q 37.203125 6.109375 41.296875 11.75 
Q 45.40625 17.390625 45.40625 27.296875 
Q 45.40625 37.203125 41.296875 42.84375 
Q 37.203125 48.484375 30.078125 48.484375 
Q 22.953125 48.484375 18.875 42.84375 
Q 14.796875 37.203125 14.796875 27.296875 
z
" id="DejaVuSans-100"/>
      <path d="M 48.78125 52.59375 
L 48.78125 44.1875 
Q 44.96875 46.296875 41.140625 47.34375 
Q 37.3125 48.390625 33.40625 48.390625 
Q 24.65625 48.390625 19.8125 42.84375 
Q 14.984375 37.3125 14.984375 27.296875 
Q 14.984375 17.28125 19.8125 11.734375 
Q 24.65625 6.203125 33.40625 6.203125 
Q 37.3125 6.203125 41.140625 7.25 
Q 44.96875 8.296875 48.78125 10.40625 
L 48.78125 2.09375 
Q 45.015625 0.34375 40.984375 -0.53125 
Q 36.96875 -1.421875 32.421875 -1.421875 
Q 20.0625 -1.421875 12.78125 6.34375 
Q 5.515625 14.109375 5.515625 27.296875 
Q 5.515625 40.671875 12.859375 48.328125 
Q 20.21875 56 33.015625 56 
Q 37.15625 56 41.109375 55.140625 
Q 45.0625 54.296875 48.78125 52.59375 
z
" id="DejaVuSans-99"/>
      <path id="DejaVuSans-32"/>
      <path d="M 4.890625 31.390625 
L 31.203125 31.390625 
L 31.203125 23.390625 
L 4.890625 23.390625 
z
" id="DejaVuSans-45"/>
      <path d="M 37.109375 75.984375 
L 37.109375 68.5 
L 28.515625 68.5 
Q 23.6875 68.5 21.796875 66.546875 
Q 19.921875 64.59375 19.921875 59.515625 
L 19.921875 54.6875 
L 34.71875 54.6875 
L 34.71875 47.703125 
L 19.921875 47.703125 
L 19.921875 0 
L 10.890625 0 
L 10.890625 47.703125 
L 2.296875 47.703125 
L 2.296875 54.6875 
L 10.890625 54.6875 
L 10.890625 58.5 
Q 10.890625 67.625 15.140625 71.796875 
Q 19.390625 75.984375 28.609375 75.984375 
z
" id="DejaVuSans-102"/>
     </defs>
     <use xlink:href="#DejaVuSans-117"/>
     <use x="63.378906" xlink:href="#DejaVuSans-110"/>
     <use x="126.757812" xlink:href="#DejaVuSans-105"/>
     <use x="154.541016" xlink:href="#DejaVuSans-107"/>
     <use x="208.826172" xlink:href="#DejaVuSans-101"/>
     <use x="270.349609" xlink:href="#DejaVuSans-114"/>
     <use x="309.712891" xlink:href="#DejaVuSans-110"/>
     <use x="373.091797" xlink:href="#DejaVuSans-101"/>
     <use x="434.615234" xlink:href="#DejaVuSans-108"/>
     <use x="462.398438" xlink:href="#DejaVuSans-95"/>
     <use x="512.398438" xlink:href="#DejaVuSans-100"/>
     <use x="575.875" xlink:href="#DejaVuSans-99"/>
     <use x="630.855469" xlink:href="#DejaVuSans-101"/>
     <use x="692.378906" xlink:href="#DejaVuSans-32"/>
     <use x="724.166016" xlink:href="#DejaVuSans-45"/>
     <use x="760.25" xlink:href="#DejaVuSans-32"/>
     <use x="792.037109" xlink:href="#DejaVuSans-102"/>
     <use x="827.242188" xlink:href="#DejaVuSans-114"/>
     <use x="866.105469" xlink:href="#DejaVuSans-101"/>
     <use x="927.628906" xlink:href="#DejaVuSans-101"/>
    </g>
   </g>
   <g id="legend_1">
    <g id="patch_7">
     <path d="M 650.68 258.52 
L 654.68 258.52 
Q 656.68 258.52 656.68 256.52 
L 656.68 252.52 
Q 656.68 250.52 654.68 250.52 
L 650.68 250.52 
Q 648.68 250.52 648.68 252.52 
L 648.68 256.52 
Q 648.68 258.52 650.68 258.52 
z
" style="fill:#ffffff;opacity:0.8;stroke:#cccccc;stroke-linejoin:miter;"/>
    </g>
   </g>
  </g>
 </g>
 <defs>
  <clipPath id="p394f1b0ab8">
   <rect height="388.08" width="535.68" x="108" y="60.48"/>
  </clipPath>
 </defs>
</svg>
