<?xml version="1.0" encoding="utf-8" standalone="no"?>
<!DOCTYPE svg PUBLIC "-//W3C//DTD SVG 1.1//EN"
  "http://www.w3.org/Graphics/SVG/1.1/DTD/svg11.dtd">
<!-- Created with matplotlib (https://matplotlib.org/) -->
<svg height="504pt" version="1.1" viewBox="0 0 864 504" width="864pt" xmlns="http://www.w3.org/2000/svg" xmlns:xlink="http://www.w3.org/1999/xlink">
 <metadata>
  <rdf:RDF xmlns:cc="http://creativecommons.org/ns#" xmlns:dc="http://purl.org/dc/elements/1.1/" xmlns:rdf="http://www.w3.org/1999/02/22-rdf-syntax-ns#">
   <cc:Work>
    <dc:type rdf:resource="http://purl.org/dc/dcmitype/StillImage"/>
    <dc:date>2022-05-29T16:57:43.410368</dc:date>
    <dc:format>image/svg+xml</dc:format>
    <dc:creator>
     <cc:Agent>
      <dc:title>Matplotlib v3.3.4, https://matplotlib.org/</dc:title>
     </cc:Agent>
    </dc:creator>
   </cc:Work>
  </rdf:RDF>
 </metadata>
 <defs>
  <style type="text/css">*{stroke-linecap:butt;stroke-linejoin:round;}</style>
 </defs>
 <g id="figure_1">
  <g id="patch_1">
   <path d="M 0 504 
L 864 504 
L 864 0 
L 0 0 
z
" style="fill:#ffffff;"/>
  </g>
  <g id="axes_1">
   <g id="patch_2">
    <path d="M 108 448.56 
L 643.68 448.56 
L 643.68 60.48 
L 108 60.48 
z
" style="fill:#ffffff;"/>
   </g>
   <g id="matplotlib.axis_1">
    <g id="xtick_1">
     <g id="line2d_1">
      <defs>
       <path d="M 0 0 
L 0 3.5 
" id="mc2716ad088" style="stroke:#000000;stroke-width:0.8;"/>
      </defs>
      <g>
       <use style="stroke:#000000;stroke-width:0.8;" x="132.349091" xlink:href="#mc2716ad088" y="448.56"/>
      </g>
     </g>
     <g id="text_1">
      <!-- 20:34:18 -->
      <g transform="translate(135.108466 500.4725)rotate(-90)scale(0.1 -0.1)">
       <defs>
        <path d="M 19.1875 8.296875 
L 53.609375 8.296875 
L 53.609375 0 
L 7.328125 0 
L 7.328125 8.296875 
Q 12.9375 14.109375 22.625 23.890625 
Q 32.328125 33.6875 34.8125 36.53125 
Q 39.546875 41.84375 41.421875 45.53125 
Q 43.3125 49.21875 43.3125 52.78125 
Q 43.3125 58.59375 39.234375 62.25 
Q 35.15625 65.921875 28.609375 65.921875 
Q 23.96875 65.921875 18.8125 64.3125 
Q 13.671875 62.703125 7.8125 59.421875 
L 7.8125 69.390625 
Q 13.765625 71.78125 18.9375 73 
Q 24.125 74.21875 28.421875 74.21875 
Q 39.75 74.21875 46.484375 68.546875 
Q 53.21875 62.890625 53.21875 53.421875 
Q 53.21875 48.921875 51.53125 44.890625 
Q 49.859375 40.875 45.40625 35.40625 
Q 44.1875 33.984375 37.640625 27.21875 
Q 31.109375 20.453125 19.1875 8.296875 
z
" id="DejaVuSans-50"/>
        <path d="M 31.78125 66.40625 
Q 24.171875 66.40625 20.328125 58.90625 
Q 16.5 51.421875 16.5 36.375 
Q 16.5 21.390625 20.328125 13.890625 
Q 24.171875 6.390625 31.78125 6.390625 
Q 39.453125 6.390625 43.28125 13.890625 
Q 47.125 21.390625 47.125 36.375 
Q 47.125 51.421875 43.28125 58.90625 
Q 39.453125 66.40625 31.78125 66.40625 
z
M 31.78125 74.21875 
Q 44.046875 74.21875 50.515625 64.515625 
Q 56.984375 54.828125 56.984375 36.375 
Q 56.984375 17.96875 50.515625 8.265625 
Q 44.046875 -1.421875 31.78125 -1.421875 
Q 19.53125 -1.421875 13.0625 8.265625 
Q 6.59375 17.96875 6.59375 36.375 
Q 6.59375 54.828125 13.0625 64.515625 
Q 19.53125 74.21875 31.78125 74.21875 
z
" id="DejaVuSans-48"/>
        <path d="M 11.71875 12.40625 
L 22.015625 12.40625 
L 22.015625 0 
L 11.71875 0 
z
M 11.71875 51.703125 
L 22.015625 51.703125 
L 22.015625 39.3125 
L 11.71875 39.3125 
z
" id="DejaVuSans-58"/>
        <path d="M 40.578125 39.3125 
Q 47.65625 37.796875 51.625 33 
Q 55.609375 28.21875 55.609375 21.1875 
Q 55.609375 10.40625 48.1875 4.484375 
Q 40.765625 -1.421875 27.09375 -1.421875 
Q 22.515625 -1.421875 17.65625 -0.515625 
Q 12.796875 0.390625 7.625 2.203125 
L 7.625 11.71875 
Q 11.71875 9.328125 16.59375 8.109375 
Q 21.484375 6.890625 26.8125 6.890625 
Q 36.078125 6.890625 40.9375 10.546875 
Q 45.796875 14.203125 45.796875 21.1875 
Q 45.796875 27.640625 41.28125 31.265625 
Q 36.765625 34.90625 28.71875 34.90625 
L 20.21875 34.90625 
L 20.21875 43.015625 
L 29.109375 43.015625 
Q 36.375 43.015625 40.234375 45.921875 
Q 44.09375 48.828125 44.09375 54.296875 
Q 44.09375 59.90625 40.109375 62.90625 
Q 36.140625 65.921875 28.71875 65.921875 
Q 24.65625 65.921875 20.015625 65.03125 
Q 15.375 64.15625 9.8125 62.3125 
L 9.8125 71.09375 
Q 15.4375 72.65625 20.34375 73.4375 
Q 25.25 74.21875 29.59375 74.21875 
Q 40.828125 74.21875 47.359375 69.109375 
Q 53.90625 64.015625 53.90625 55.328125 
Q 53.90625 49.265625 50.4375 45.09375 
Q 46.96875 40.921875 40.578125 39.3125 
z
" id="DejaVuSans-51"/>
        <path d="M 37.796875 64.3125 
L 12.890625 25.390625 
L 37.796875 25.390625 
z
M 35.203125 72.90625 
L 47.609375 72.90625 
L 47.609375 25.390625 
L 58.015625 25.390625 
L 58.015625 17.1875 
L 47.609375 17.1875 
L 47.609375 0 
L 37.796875 0 
L 37.796875 17.1875 
L 4.890625 17.1875 
L 4.890625 26.703125 
z
" id="DejaVuSans-52"/>
        <path d="M 12.40625 8.296875 
L 28.515625 8.296875 
L 28.515625 63.921875 
L 10.984375 60.40625 
L 10.984375 69.390625 
L 28.421875 72.90625 
L 38.28125 72.90625 
L 38.28125 8.296875 
L 54.390625 8.296875 
L 54.390625 0 
L 12.40625 0 
z
" id="DejaVuSans-49"/>
        <path d="M 31.78125 34.625 
Q 24.75 34.625 20.71875 30.859375 
Q 16.703125 27.09375 16.703125 20.515625 
Q 16.703125 13.921875 20.71875 10.15625 
Q 24.75 6.390625 31.78125 6.390625 
Q 38.8125 6.390625 42.859375 10.171875 
Q 46.921875 13.96875 46.921875 20.515625 
Q 46.921875 27.09375 42.890625 30.859375 
Q 38.875 34.625 31.78125 34.625 
z
M 21.921875 38.8125 
Q 15.578125 40.375 12.03125 44.71875 
Q 8.5 49.078125 8.5 55.328125 
Q 8.5 64.0625 14.71875 69.140625 
Q 20.953125 74.21875 31.78125 74.21875 
Q 42.671875 74.21875 48.875 69.140625 
Q 55.078125 64.0625 55.078125 55.328125 
Q 55.078125 49.078125 51.53125 44.71875 
Q 48 40.375 41.703125 38.8125 
Q 48.828125 37.15625 52.796875 32.3125 
Q 56.78125 27.484375 56.78125 20.515625 
Q 56.78125 9.90625 50.3125 4.234375 
Q 43.84375 -1.421875 31.78125 -1.421875 
Q 19.734375 -1.421875 13.25 4.234375 
Q 6.78125 9.90625 6.78125 20.515625 
Q 6.78125 27.484375 10.78125 32.3125 
Q 14.796875 37.15625 21.921875 38.8125 
z
M 18.3125 54.390625 
Q 18.3125 48.734375 21.84375 45.5625 
Q 25.390625 42.390625 31.78125 42.390625 
Q 38.140625 42.390625 41.71875 45.5625 
Q 45.3125 48.734375 45.3125 54.390625 
Q 45.3125 60.0625 41.71875 63.234375 
Q 38.140625 66.40625 31.78125 66.40625 
Q 25.390625 66.40625 21.84375 63.234375 
Q 18.3125 60.0625 18.3125 54.390625 
z
" id="DejaVuSans-56"/>
       </defs>
       <use xlink:href="#DejaVuSans-50"/>
       <use x="63.623047" xlink:href="#DejaVuSans-48"/>
       <use x="127.246094" xlink:href="#DejaVuSans-58"/>
       <use x="160.9375" xlink:href="#DejaVuSans-51"/>
       <use x="224.560547" xlink:href="#DejaVuSans-52"/>
       <use x="288.183594" xlink:href="#DejaVuSans-58"/>
       <use x="321.875" xlink:href="#DejaVuSans-49"/>
       <use x="385.498047" xlink:href="#DejaVuSans-56"/>
      </g>
     </g>
    </g>
    <g id="xtick_2">
     <g id="line2d_2">
      <g>
       <use style="stroke:#000000;stroke-width:0.8;" x="156.698182" xlink:href="#mc2716ad088" y="448.56"/>
      </g>
     </g>
     <g id="text_2">
      <!-- 20:36:08 -->
      <g transform="translate(159.457557 500.4725)rotate(-90)scale(0.1 -0.1)">
       <defs>
        <path d="M 33.015625 40.375 
Q 26.375 40.375 22.484375 35.828125 
Q 18.609375 31.296875 18.609375 23.390625 
Q 18.609375 15.53125 22.484375 10.953125 
Q 26.375 6.390625 33.015625 6.390625 
Q 39.65625 6.390625 43.53125 10.953125 
Q 47.40625 15.53125 47.40625 23.390625 
Q 47.40625 31.296875 43.53125 35.828125 
Q 39.65625 40.375 33.015625 40.375 
z
M 52.59375 71.296875 
L 52.59375 62.3125 
Q 48.875 64.0625 45.09375 64.984375 
Q 41.3125 65.921875 37.59375 65.921875 
Q 27.828125 65.921875 22.671875 59.328125 
Q 17.53125 52.734375 16.796875 39.40625 
Q 19.671875 43.65625 24.015625 45.921875 
Q 28.375 48.1875 33.59375 48.1875 
Q 44.578125 48.1875 50.953125 41.515625 
Q 57.328125 34.859375 57.328125 23.390625 
Q 57.328125 12.15625 50.6875 5.359375 
Q 44.046875 -1.421875 33.015625 -1.421875 
Q 20.359375 -1.421875 13.671875 8.265625 
Q 6.984375 17.96875 6.984375 36.375 
Q 6.984375 53.65625 15.1875 63.9375 
Q 23.390625 74.21875 37.203125 74.21875 
Q 40.921875 74.21875 44.703125 73.484375 
Q 48.484375 72.75 52.59375 71.296875 
z
" id="DejaVuSans-54"/>
       </defs>
       <use xlink:href="#DejaVuSans-50"/>
       <use x="63.623047" xlink:href="#DejaVuSans-48"/>
       <use x="127.246094" xlink:href="#DejaVuSans-58"/>
       <use x="160.9375" xlink:href="#DejaVuSans-51"/>
       <use x="224.560547" xlink:href="#DejaVuSans-54"/>
       <use x="288.183594" xlink:href="#DejaVuSans-58"/>
       <use x="321.875" xlink:href="#DejaVuSans-48"/>
       <use x="385.498047" xlink:href="#DejaVuSans-56"/>
      </g>
     </g>
    </g>
    <g id="xtick_3">
     <g id="line2d_3">
      <g>
       <use style="stroke:#000000;stroke-width:0.8;" x="181.047273" xlink:href="#mc2716ad088" y="448.56"/>
      </g>
     </g>
     <g id="text_3">
      <!-- 20:37:58 -->
      <g transform="translate(183.806648 500.4725)rotate(-90)scale(0.1 -0.1)">
       <defs>
        <path d="M 8.203125 72.90625 
L 55.078125 72.90625 
L 55.078125 68.703125 
L 28.609375 0 
L 18.3125 0 
L 43.21875 64.59375 
L 8.203125 64.59375 
z
" id="DejaVuSans-55"/>
        <path d="M 10.796875 72.90625 
L 49.515625 72.90625 
L 49.515625 64.59375 
L 19.828125 64.59375 
L 19.828125 46.734375 
Q 21.96875 47.46875 24.109375 47.828125 
Q 26.265625 48.1875 28.421875 48.1875 
Q 40.625 48.1875 47.75 41.5 
Q 54.890625 34.8125 54.890625 23.390625 
Q 54.890625 11.625 47.5625 5.09375 
Q 40.234375 -1.421875 26.90625 -1.421875 
Q 22.3125 -1.421875 17.546875 -0.640625 
Q 12.796875 0.140625 7.71875 1.703125 
L 7.71875 11.625 
Q 12.109375 9.234375 16.796875 8.0625 
Q 21.484375 6.890625 26.703125 6.890625 
Q 35.15625 6.890625 40.078125 11.328125 
Q 45.015625 15.765625 45.015625 23.390625 
Q 45.015625 31 40.078125 35.4375 
Q 35.15625 39.890625 26.703125 39.890625 
Q 22.75 39.890625 18.8125 39.015625 
Q 14.890625 38.140625 10.796875 36.28125 
z
" id="DejaVuSans-53"/>
       </defs>
       <use xlink:href="#DejaVuSans-50"/>
       <use x="63.623047" xlink:href="#DejaVuSans-48"/>
       <use x="127.246094" xlink:href="#DejaVuSans-58"/>
       <use x="160.9375" xlink:href="#DejaVuSans-51"/>
       <use x="224.560547" xlink:href="#DejaVuSans-55"/>
       <use x="288.183594" xlink:href="#DejaVuSans-58"/>
       <use x="321.875" xlink:href="#DejaVuSans-53"/>
       <use x="385.498047" xlink:href="#DejaVuSans-56"/>
      </g>
     </g>
    </g>
    <g id="xtick_4">
     <g id="line2d_4">
      <g>
       <use style="stroke:#000000;stroke-width:0.8;" x="205.396364" xlink:href="#mc2716ad088" y="448.56"/>
      </g>
     </g>
     <g id="text_4">
      <!-- 20:39:48 -->
      <g transform="translate(208.155739 500.4725)rotate(-90)scale(0.1 -0.1)">
       <defs>
        <path d="M 10.984375 1.515625 
L 10.984375 10.5 
Q 14.703125 8.734375 18.5 7.8125 
Q 22.3125 6.890625 25.984375 6.890625 
Q 35.75 6.890625 40.890625 13.453125 
Q 46.046875 20.015625 46.78125 33.40625 
Q 43.953125 29.203125 39.59375 26.953125 
Q 35.25 24.703125 29.984375 24.703125 
Q 19.046875 24.703125 12.671875 31.3125 
Q 6.296875 37.9375 6.296875 49.421875 
Q 6.296875 60.640625 12.9375 67.421875 
Q 19.578125 74.21875 30.609375 74.21875 
Q 43.265625 74.21875 49.921875 64.515625 
Q 56.59375 54.828125 56.59375 36.375 
Q 56.59375 19.140625 48.40625 8.859375 
Q 40.234375 -1.421875 26.421875 -1.421875 
Q 22.703125 -1.421875 18.890625 -0.6875 
Q 15.09375 0.046875 10.984375 1.515625 
z
M 30.609375 32.421875 
Q 37.25 32.421875 41.125 36.953125 
Q 45.015625 41.5 45.015625 49.421875 
Q 45.015625 57.28125 41.125 61.84375 
Q 37.25 66.40625 30.609375 66.40625 
Q 23.96875 66.40625 20.09375 61.84375 
Q 16.21875 57.28125 16.21875 49.421875 
Q 16.21875 41.5 20.09375 36.953125 
Q 23.96875 32.421875 30.609375 32.421875 
z
" id="DejaVuSans-57"/>
       </defs>
       <use xlink:href="#DejaVuSans-50"/>
       <use x="63.623047" xlink:href="#DejaVuSans-48"/>
       <use x="127.246094" xlink:href="#DejaVuSans-58"/>
       <use x="160.9375" xlink:href="#DejaVuSans-51"/>
       <use x="224.560547" xlink:href="#DejaVuSans-57"/>
       <use x="288.183594" xlink:href="#DejaVuSans-58"/>
       <use x="321.875" xlink:href="#DejaVuSans-52"/>
       <use x="385.498047" xlink:href="#DejaVuSans-56"/>
      </g>
     </g>
    </g>
    <g id="xtick_5">
     <g id="line2d_5">
      <g>
       <use style="stroke:#000000;stroke-width:0.8;" x="229.745455" xlink:href="#mc2716ad088" y="448.56"/>
      </g>
     </g>
     <g id="text_5">
      <!-- 20:41:39 -->
      <g transform="translate(232.50483 500.4725)rotate(-90)scale(0.1 -0.1)">
       <use xlink:href="#DejaVuSans-50"/>
       <use x="63.623047" xlink:href="#DejaVuSans-48"/>
       <use x="127.246094" xlink:href="#DejaVuSans-58"/>
       <use x="160.9375" xlink:href="#DejaVuSans-52"/>
       <use x="224.560547" xlink:href="#DejaVuSans-49"/>
       <use x="288.183594" xlink:href="#DejaVuSans-58"/>
       <use x="321.875" xlink:href="#DejaVuSans-51"/>
       <use x="385.498047" xlink:href="#DejaVuSans-57"/>
      </g>
     </g>
    </g>
    <g id="xtick_6">
     <g id="line2d_6">
      <g>
       <use style="stroke:#000000;stroke-width:0.8;" x="254.094545" xlink:href="#mc2716ad088" y="448.56"/>
      </g>
     </g>
     <g id="text_6">
      <!-- 20:43:29 -->
      <g transform="translate(256.85392 500.4725)rotate(-90)scale(0.1 -0.1)">
       <use xlink:href="#DejaVuSans-50"/>
       <use x="63.623047" xlink:href="#DejaVuSans-48"/>
       <use x="127.246094" xlink:href="#DejaVuSans-58"/>
       <use x="160.9375" xlink:href="#DejaVuSans-52"/>
       <use x="224.560547" xlink:href="#DejaVuSans-51"/>
       <use x="288.183594" xlink:href="#DejaVuSans-58"/>
       <use x="321.875" xlink:href="#DejaVuSans-50"/>
       <use x="385.498047" xlink:href="#DejaVuSans-57"/>
      </g>
     </g>
    </g>
    <g id="xtick_7">
     <g id="line2d_7">
      <g>
       <use style="stroke:#000000;stroke-width:0.8;" x="278.443636" xlink:href="#mc2716ad088" y="448.56"/>
      </g>
     </g>
     <g id="text_7">
      <!-- 20:45:19 -->
      <g transform="translate(281.203011 500.4725)rotate(-90)scale(0.1 -0.1)">
       <use xlink:href="#DejaVuSans-50"/>
       <use x="63.623047" xlink:href="#DejaVuSans-48"/>
       <use x="127.246094" xlink:href="#DejaVuSans-58"/>
       <use x="160.9375" xlink:href="#DejaVuSans-52"/>
       <use x="224.560547" xlink:href="#DejaVuSans-53"/>
       <use x="288.183594" xlink:href="#DejaVuSans-58"/>
       <use x="321.875" xlink:href="#DejaVuSans-49"/>
       <use x="385.498047" xlink:href="#DejaVuSans-57"/>
      </g>
     </g>
    </g>
    <g id="xtick_8">
     <g id="line2d_8">
      <g>
       <use style="stroke:#000000;stroke-width:0.8;" x="302.792727" xlink:href="#mc2716ad088" y="448.56"/>
      </g>
     </g>
     <g id="text_8">
      <!-- 20:47:09 -->
      <g transform="translate(305.552102 500.4725)rotate(-90)scale(0.1 -0.1)">
       <use xlink:href="#DejaVuSans-50"/>
       <use x="63.623047" xlink:href="#DejaVuSans-48"/>
       <use x="127.246094" xlink:href="#DejaVuSans-58"/>
       <use x="160.9375" xlink:href="#DejaVuSans-52"/>
       <use x="224.560547" xlink:href="#DejaVuSans-55"/>
       <use x="288.183594" xlink:href="#DejaVuSans-58"/>
       <use x="321.875" xlink:href="#DejaVuSans-48"/>
       <use x="385.498047" xlink:href="#DejaVuSans-57"/>
      </g>
     </g>
    </g>
    <g id="xtick_9">
     <g id="line2d_9">
      <g>
       <use style="stroke:#000000;stroke-width:0.8;" x="327.141818" xlink:href="#mc2716ad088" y="448.56"/>
      </g>
     </g>
     <g id="text_9">
      <!-- 20:48:59 -->
      <g transform="translate(329.901193 500.4725)rotate(-90)scale(0.1 -0.1)">
       <use xlink:href="#DejaVuSans-50"/>
       <use x="63.623047" xlink:href="#DejaVuSans-48"/>
       <use x="127.246094" xlink:href="#DejaVuSans-58"/>
       <use x="160.9375" xlink:href="#DejaVuSans-52"/>
       <use x="224.560547" xlink:href="#DejaVuSans-56"/>
       <use x="288.183594" xlink:href="#DejaVuSans-58"/>
       <use x="321.875" xlink:href="#DejaVuSans-53"/>
       <use x="385.498047" xlink:href="#DejaVuSans-57"/>
      </g>
     </g>
    </g>
    <g id="xtick_10">
     <g id="line2d_10">
      <g>
       <use style="stroke:#000000;stroke-width:0.8;" x="351.490909" xlink:href="#mc2716ad088" y="448.56"/>
      </g>
     </g>
     <g id="text_10">
      <!-- 20:50:49 -->
      <g transform="translate(354.250284 500.4725)rotate(-90)scale(0.1 -0.1)">
       <use xlink:href="#DejaVuSans-50"/>
       <use x="63.623047" xlink:href="#DejaVuSans-48"/>
       <use x="127.246094" xlink:href="#DejaVuSans-58"/>
       <use x="160.9375" xlink:href="#DejaVuSans-53"/>
       <use x="224.560547" xlink:href="#DejaVuSans-48"/>
       <use x="288.183594" xlink:href="#DejaVuSans-58"/>
       <use x="321.875" xlink:href="#DejaVuSans-52"/>
       <use x="385.498047" xlink:href="#DejaVuSans-57"/>
      </g>
     </g>
    </g>
    <g id="xtick_11">
     <g id="line2d_11">
      <g>
       <use style="stroke:#000000;stroke-width:0.8;" x="375.84" xlink:href="#mc2716ad088" y="448.56"/>
      </g>
     </g>
     <g id="text_11">
      <!-- 20:52:39 -->
      <g transform="translate(378.599375 500.4725)rotate(-90)scale(0.1 -0.1)">
       <use xlink:href="#DejaVuSans-50"/>
       <use x="63.623047" xlink:href="#DejaVuSans-48"/>
       <use x="127.246094" xlink:href="#DejaVuSans-58"/>
       <use x="160.9375" xlink:href="#DejaVuSans-53"/>
       <use x="224.560547" xlink:href="#DejaVuSans-50"/>
       <use x="288.183594" xlink:href="#DejaVuSans-58"/>
       <use x="321.875" xlink:href="#DejaVuSans-51"/>
       <use x="385.498047" xlink:href="#DejaVuSans-57"/>
      </g>
     </g>
    </g>
    <g id="xtick_12">
     <g id="line2d_12">
      <g>
       <use style="stroke:#000000;stroke-width:0.8;" x="400.189091" xlink:href="#mc2716ad088" y="448.56"/>
      </g>
     </g>
     <g id="text_12">
      <!-- 20:54:29 -->
      <g transform="translate(402.948466 500.4725)rotate(-90)scale(0.1 -0.1)">
       <use xlink:href="#DejaVuSans-50"/>
       <use x="63.623047" xlink:href="#DejaVuSans-48"/>
       <use x="127.246094" xlink:href="#DejaVuSans-58"/>
       <use x="160.9375" xlink:href="#DejaVuSans-53"/>
       <use x="224.560547" xlink:href="#DejaVuSans-52"/>
       <use x="288.183594" xlink:href="#DejaVuSans-58"/>
       <use x="321.875" xlink:href="#DejaVuSans-50"/>
       <use x="385.498047" xlink:href="#DejaVuSans-57"/>
      </g>
     </g>
    </g>
    <g id="xtick_13">
     <g id="line2d_13">
      <g>
       <use style="stroke:#000000;stroke-width:0.8;" x="424.538182" xlink:href="#mc2716ad088" y="448.56"/>
      </g>
     </g>
     <g id="text_13">
      <!-- 20:56:19 -->
      <g transform="translate(427.297557 500.4725)rotate(-90)scale(0.1 -0.1)">
       <use xlink:href="#DejaVuSans-50"/>
       <use x="63.623047" xlink:href="#DejaVuSans-48"/>
       <use x="127.246094" xlink:href="#DejaVuSans-58"/>
       <use x="160.9375" xlink:href="#DejaVuSans-53"/>
       <use x="224.560547" xlink:href="#DejaVuSans-54"/>
       <use x="288.183594" xlink:href="#DejaVuSans-58"/>
       <use x="321.875" xlink:href="#DejaVuSans-49"/>
       <use x="385.498047" xlink:href="#DejaVuSans-57"/>
      </g>
     </g>
    </g>
    <g id="xtick_14">
     <g id="line2d_14">
      <g>
       <use style="stroke:#000000;stroke-width:0.8;" x="448.887273" xlink:href="#mc2716ad088" y="448.56"/>
      </g>
     </g>
     <g id="text_14">
      <!-- 20:58:09 -->
      <g transform="translate(451.646648 500.4725)rotate(-90)scale(0.1 -0.1)">
       <use xlink:href="#DejaVuSans-50"/>
       <use x="63.623047" xlink:href="#DejaVuSans-48"/>
       <use x="127.246094" xlink:href="#DejaVuSans-58"/>
       <use x="160.9375" xlink:href="#DejaVuSans-53"/>
       <use x="224.560547" xlink:href="#DejaVuSans-56"/>
       <use x="288.183594" xlink:href="#DejaVuSans-58"/>
       <use x="321.875" xlink:href="#DejaVuSans-48"/>
       <use x="385.498047" xlink:href="#DejaVuSans-57"/>
      </g>
     </g>
    </g>
    <g id="xtick_15">
     <g id="line2d_15">
      <g>
       <use style="stroke:#000000;stroke-width:0.8;" x="473.236364" xlink:href="#mc2716ad088" y="448.56"/>
      </g>
     </g>
     <g id="text_15">
      <!-- 20:59:59 -->
      <g transform="translate(475.995739 500.4725)rotate(-90)scale(0.1 -0.1)">
       <use xlink:href="#DejaVuSans-50"/>
       <use x="63.623047" xlink:href="#DejaVuSans-48"/>
       <use x="127.246094" xlink:href="#DejaVuSans-58"/>
       <use x="160.9375" xlink:href="#DejaVuSans-53"/>
       <use x="224.560547" xlink:href="#DejaVuSans-57"/>
       <use x="288.183594" xlink:href="#DejaVuSans-58"/>
       <use x="321.875" xlink:href="#DejaVuSans-53"/>
       <use x="385.498047" xlink:href="#DejaVuSans-57"/>
      </g>
     </g>
    </g>
    <g id="xtick_16">
     <g id="line2d_16">
      <g>
       <use style="stroke:#000000;stroke-width:0.8;" x="497.585455" xlink:href="#mc2716ad088" y="448.56"/>
      </g>
     </g>
     <g id="text_16">
      <!-- 21:01:49 -->
      <g transform="translate(500.34483 500.4725)rotate(-90)scale(0.1 -0.1)">
       <use xlink:href="#DejaVuSans-50"/>
       <use x="63.623047" xlink:href="#DejaVuSans-49"/>
       <use x="127.246094" xlink:href="#DejaVuSans-58"/>
       <use x="160.9375" xlink:href="#DejaVuSans-48"/>
       <use x="224.560547" xlink:href="#DejaVuSans-49"/>
       <use x="288.183594" xlink:href="#DejaVuSans-58"/>
       <use x="321.875" xlink:href="#DejaVuSans-52"/>
       <use x="385.498047" xlink:href="#DejaVuSans-57"/>
      </g>
     </g>
    </g>
    <g id="xtick_17">
     <g id="line2d_17">
      <g>
       <use style="stroke:#000000;stroke-width:0.8;" x="521.934545" xlink:href="#mc2716ad088" y="448.56"/>
      </g>
     </g>
     <g id="text_17">
      <!-- 21:03:39 -->
      <g transform="translate(524.69392 500.4725)rotate(-90)scale(0.1 -0.1)">
       <use xlink:href="#DejaVuSans-50"/>
       <use x="63.623047" xlink:href="#DejaVuSans-49"/>
       <use x="127.246094" xlink:href="#DejaVuSans-58"/>
       <use x="160.9375" xlink:href="#DejaVuSans-48"/>
       <use x="224.560547" xlink:href="#DejaVuSans-51"/>
       <use x="288.183594" xlink:href="#DejaVuSans-58"/>
       <use x="321.875" xlink:href="#DejaVuSans-51"/>
       <use x="385.498047" xlink:href="#DejaVuSans-57"/>
      </g>
     </g>
    </g>
    <g id="xtick_18">
     <g id="line2d_18">
      <g>
       <use style="stroke:#000000;stroke-width:0.8;" x="546.283636" xlink:href="#mc2716ad088" y="448.56"/>
      </g>
     </g>
     <g id="text_18">
      <!-- 21:05:29 -->
      <g transform="translate(549.043011 500.4725)rotate(-90)scale(0.1 -0.1)">
       <use xlink:href="#DejaVuSans-50"/>
       <use x="63.623047" xlink:href="#DejaVuSans-49"/>
       <use x="127.246094" xlink:href="#DejaVuSans-58"/>
       <use x="160.9375" xlink:href="#DejaVuSans-48"/>
       <use x="224.560547" xlink:href="#DejaVuSans-53"/>
       <use x="288.183594" xlink:href="#DejaVuSans-58"/>
       <use x="321.875" xlink:href="#DejaVuSans-50"/>
       <use x="385.498047" xlink:href="#DejaVuSans-57"/>
      </g>
     </g>
    </g>
    <g id="xtick_19">
     <g id="line2d_19">
      <g>
       <use style="stroke:#000000;stroke-width:0.8;" x="570.632727" xlink:href="#mc2716ad088" y="448.56"/>
      </g>
     </g>
     <g id="text_19">
      <!-- 21:07:19 -->
      <g transform="translate(573.392102 500.4725)rotate(-90)scale(0.1 -0.1)">
       <use xlink:href="#DejaVuSans-50"/>
       <use x="63.623047" xlink:href="#DejaVuSans-49"/>
       <use x="127.246094" xlink:href="#DejaVuSans-58"/>
       <use x="160.9375" xlink:href="#DejaVuSans-48"/>
       <use x="224.560547" xlink:href="#DejaVuSans-55"/>
       <use x="288.183594" xlink:href="#DejaVuSans-58"/>
       <use x="321.875" xlink:href="#DejaVuSans-49"/>
       <use x="385.498047" xlink:href="#DejaVuSans-57"/>
      </g>
     </g>
    </g>
    <g id="xtick_20">
     <g id="line2d_20">
      <g>
       <use style="stroke:#000000;stroke-width:0.8;" x="594.981818" xlink:href="#mc2716ad088" y="448.56"/>
      </g>
     </g>
     <g id="text_20">
      <!-- 21:09:09 -->
      <g transform="translate(597.741193 500.4725)rotate(-90)scale(0.1 -0.1)">
       <use xlink:href="#DejaVuSans-50"/>
       <use x="63.623047" xlink:href="#DejaVuSans-49"/>
       <use x="127.246094" xlink:href="#DejaVuSans-58"/>
       <use x="160.9375" xlink:href="#DejaVuSans-48"/>
       <use x="224.560547" xlink:href="#DejaVuSans-57"/>
       <use x="288.183594" xlink:href="#DejaVuSans-58"/>
       <use x="321.875" xlink:href="#DejaVuSans-48"/>
       <use x="385.498047" xlink:href="#DejaVuSans-57"/>
      </g>
     </g>
    </g>
    <g id="xtick_21">
     <g id="line2d_21">
      <g>
       <use style="stroke:#000000;stroke-width:0.8;" x="619.330909" xlink:href="#mc2716ad088" y="448.56"/>
      </g>
     </g>
     <g id="text_21">
      <!-- 21:10:59 -->
      <g transform="translate(622.090284 500.4725)rotate(-90)scale(0.1 -0.1)">
       <use xlink:href="#DejaVuSans-50"/>
       <use x="63.623047" xlink:href="#DejaVuSans-49"/>
       <use x="127.246094" xlink:href="#DejaVuSans-58"/>
       <use x="160.9375" xlink:href="#DejaVuSans-49"/>
       <use x="224.560547" xlink:href="#DejaVuSans-48"/>
       <use x="288.183594" xlink:href="#DejaVuSans-58"/>
       <use x="321.875" xlink:href="#DejaVuSans-53"/>
       <use x="385.498047" xlink:href="#DejaVuSans-57"/>
      </g>
     </g>
    </g>
    <g id="text_22">
     <!-- timestamp -->
     <g transform="translate(354.264375 510.55125)scale(0.08 -0.08)">
      <defs>
       <path d="M 18.3125 70.21875 
L 18.3125 54.6875 
L 36.8125 54.6875 
L 36.8125 47.703125 
L 18.3125 47.703125 
L 18.3125 18.015625 
Q 18.3125 11.328125 20.140625 9.421875 
Q 21.96875 7.515625 27.59375 7.515625 
L 36.8125 7.515625 
L 36.8125 0 
L 27.59375 0 
Q 17.1875 0 13.234375 3.875 
Q 9.28125 7.765625 9.28125 18.015625 
L 9.28125 47.703125 
L 2.6875 47.703125 
L 2.6875 54.6875 
L 9.28125 54.6875 
L 9.28125 70.21875 
z
" id="DejaVuSans-116"/>
       <path d="M 9.421875 54.6875 
L 18.40625 54.6875 
L 18.40625 0 
L 9.421875 0 
z
M 9.421875 75.984375 
L 18.40625 75.984375 
L 18.40625 64.59375 
L 9.421875 64.59375 
z
" id="DejaVuSans-105"/>
       <path d="M 52 44.1875 
Q 55.375 50.25 60.0625 53.125 
Q 64.75 56 71.09375 56 
Q 79.640625 56 84.28125 50.015625 
Q 88.921875 44.046875 88.921875 33.015625 
L 88.921875 0 
L 79.890625 0 
L 79.890625 32.71875 
Q 79.890625 40.578125 77.09375 44.375 
Q 74.3125 48.1875 68.609375 48.1875 
Q 61.625 48.1875 57.5625 43.546875 
Q 53.515625 38.921875 53.515625 30.90625 
L 53.515625 0 
L 44.484375 0 
L 44.484375 32.71875 
Q 44.484375 40.625 41.703125 44.40625 
Q 38.921875 48.1875 33.109375 48.1875 
Q 26.21875 48.1875 22.15625 43.53125 
Q 18.109375 38.875 18.109375 30.90625 
L 18.109375 0 
L 9.078125 0 
L 9.078125 54.6875 
L 18.109375 54.6875 
L 18.109375 46.1875 
Q 21.1875 51.21875 25.484375 53.609375 
Q 29.78125 56 35.6875 56 
Q 41.65625 56 45.828125 52.96875 
Q 50 49.953125 52 44.1875 
z
" id="DejaVuSans-109"/>
       <path d="M 56.203125 29.59375 
L 56.203125 25.203125 
L 14.890625 25.203125 
Q 15.484375 15.921875 20.484375 11.0625 
Q 25.484375 6.203125 34.421875 6.203125 
Q 39.59375 6.203125 44.453125 7.46875 
Q 49.3125 8.734375 54.109375 11.28125 
L 54.109375 2.78125 
Q 49.265625 0.734375 44.1875 -0.34375 
Q 39.109375 -1.421875 33.890625 -1.421875 
Q 20.796875 -1.421875 13.15625 6.1875 
Q 5.515625 13.8125 5.515625 26.8125 
Q 5.515625 40.234375 12.765625 48.109375 
Q 20.015625 56 32.328125 56 
Q 43.359375 56 49.78125 48.890625 
Q 56.203125 41.796875 56.203125 29.59375 
z
M 47.21875 32.234375 
Q 47.125 39.59375 43.09375 43.984375 
Q 39.0625 48.390625 32.421875 48.390625 
Q 24.90625 48.390625 20.390625 44.140625 
Q 15.875 39.890625 15.1875 32.171875 
z
" id="DejaVuSans-101"/>
       <path d="M 44.28125 53.078125 
L 44.28125 44.578125 
Q 40.484375 46.53125 36.375 47.5 
Q 32.28125 48.484375 27.875 48.484375 
Q 21.1875 48.484375 17.84375 46.4375 
Q 14.5 44.390625 14.5 40.28125 
Q 14.5 37.15625 16.890625 35.375 
Q 19.28125 33.59375 26.515625 31.984375 
L 29.59375 31.296875 
Q 39.15625 29.25 43.1875 25.515625 
Q 47.21875 21.78125 47.21875 15.09375 
Q 47.21875 7.46875 41.1875 3.015625 
Q 35.15625 -1.421875 24.609375 -1.421875 
Q 20.21875 -1.421875 15.453125 -0.5625 
Q 10.6875 0.296875 5.421875 2 
L 5.421875 11.28125 
Q 10.40625 8.6875 15.234375 7.390625 
Q 20.0625 6.109375 24.8125 6.109375 
Q 31.15625 6.109375 34.5625 8.28125 
Q 37.984375 10.453125 37.984375 14.40625 
Q 37.984375 18.0625 35.515625 20.015625 
Q 33.0625 21.96875 24.703125 23.78125 
L 21.578125 24.515625 
Q 13.234375 26.265625 9.515625 29.90625 
Q 5.8125 33.546875 5.8125 39.890625 
Q 5.8125 47.609375 11.28125 51.796875 
Q 16.75 56 26.8125 56 
Q 31.78125 56 36.171875 55.265625 
Q 40.578125 54.546875 44.28125 53.078125 
z
" id="DejaVuSans-115"/>
       <path d="M 34.28125 27.484375 
Q 23.390625 27.484375 19.1875 25 
Q 14.984375 22.515625 14.984375 16.5 
Q 14.984375 11.71875 18.140625 8.90625 
Q 21.296875 6.109375 26.703125 6.109375 
Q 34.1875 6.109375 38.703125 11.40625 
Q 43.21875 16.703125 43.21875 25.484375 
L 43.21875 27.484375 
z
M 52.203125 31.203125 
L 52.203125 0 
L 43.21875 0 
L 43.21875 8.296875 
Q 40.140625 3.328125 35.546875 0.953125 
Q 30.953125 -1.421875 24.3125 -1.421875 
Q 15.921875 -1.421875 10.953125 3.296875 
Q 6 8.015625 6 15.921875 
Q 6 25.140625 12.171875 29.828125 
Q 18.359375 34.515625 30.609375 34.515625 
L 43.21875 34.515625 
L 43.21875 35.40625 
Q 43.21875 41.609375 39.140625 45 
Q 35.0625 48.390625 27.6875 48.390625 
Q 23 48.390625 18.546875 47.265625 
Q 14.109375 46.140625 10.015625 43.890625 
L 10.015625 52.203125 
Q 14.9375 54.109375 19.578125 55.046875 
Q 24.21875 56 28.609375 56 
Q 40.484375 56 46.34375 49.84375 
Q 52.203125 43.703125 52.203125 31.203125 
z
" id="DejaVuSans-97"/>
       <path d="M 18.109375 8.203125 
L 18.109375 -20.796875 
L 9.078125 -20.796875 
L 9.078125 54.6875 
L 18.109375 54.6875 
L 18.109375 46.390625 
Q 20.953125 51.265625 25.265625 53.625 
Q 29.59375 56 35.59375 56 
Q 45.5625 56 51.78125 48.09375 
Q 58.015625 40.1875 58.015625 27.296875 
Q 58.015625 14.40625 51.78125 6.484375 
Q 45.5625 -1.421875 35.59375 -1.421875 
Q 29.59375 -1.421875 25.265625 0.953125 
Q 20.953125 3.328125 18.109375 8.203125 
z
M 48.6875 27.296875 
Q 48.6875 37.203125 44.609375 42.84375 
Q 40.53125 48.484375 33.40625 48.484375 
Q 26.265625 48.484375 22.1875 42.84375 
Q 18.109375 37.203125 18.109375 27.296875 
Q 18.109375 17.390625 22.1875 11.75 
Q 26.265625 6.109375 33.40625 6.109375 
Q 40.53125 6.109375 44.609375 11.75 
Q 48.6875 17.390625 48.6875 27.296875 
z
" id="DejaVuSans-112"/>
      </defs>
      <use xlink:href="#DejaVuSans-116"/>
      <use x="39.208984" xlink:href="#DejaVuSans-105"/>
      <use x="66.992188" xlink:href="#DejaVuSans-109"/>
      <use x="164.404297" xlink:href="#DejaVuSans-101"/>
      <use x="225.927734" xlink:href="#DejaVuSans-115"/>
      <use x="278.027344" xlink:href="#DejaVuSans-116"/>
      <use x="317.236328" xlink:href="#DejaVuSans-97"/>
      <use x="378.515625" xlink:href="#DejaVuSans-109"/>
      <use x="475.927734" xlink:href="#DejaVuSans-112"/>
     </g>
    </g>
   </g>
   <g id="matplotlib.axis_2">
    <g id="ytick_1">
     <g id="line2d_22">
      <defs>
       <path d="M 0 0 
L -3.5 0 
" id="m159f20b43f" style="stroke:#000000;stroke-width:0.8;"/>
      </defs>
      <g>
       <use style="stroke:#000000;stroke-width:0.8;" x="108" xlink:href="#m159f20b43f" y="424.473224"/>
      </g>
     </g>
     <g id="text_23">
      <!-- 11200 -->
      <g transform="translate(69.1875 428.272443)scale(0.1 -0.1)">
       <use xlink:href="#DejaVuSans-49"/>
       <use x="63.623047" xlink:href="#DejaVuSans-49"/>
       <use x="127.246094" xlink:href="#DejaVuSans-50"/>
       <use x="190.869141" xlink:href="#DejaVuSans-48"/>
       <use x="254.492188" xlink:href="#DejaVuSans-48"/>
      </g>
     </g>
    </g>
    <g id="ytick_2">
     <g id="line2d_23">
      <g>
       <use style="stroke:#000000;stroke-width:0.8;" x="108" xlink:href="#m159f20b43f" y="381.042762"/>
      </g>
     </g>
     <g id="text_24">
      <!-- 11400 -->
      <g transform="translate(69.1875 384.841981)scale(0.1 -0.1)">
       <use xlink:href="#DejaVuSans-49"/>
       <use x="63.623047" xlink:href="#DejaVuSans-49"/>
       <use x="127.246094" xlink:href="#DejaVuSans-52"/>
       <use x="190.869141" xlink:href="#DejaVuSans-48"/>
       <use x="254.492188" xlink:href="#DejaVuSans-48"/>
      </g>
     </g>
    </g>
    <g id="ytick_3">
     <g id="line2d_24">
      <g>
       <use style="stroke:#000000;stroke-width:0.8;" x="108" xlink:href="#m159f20b43f" y="337.6123"/>
      </g>
     </g>
     <g id="text_25">
      <!-- 11600 -->
      <g transform="translate(69.1875 341.411518)scale(0.1 -0.1)">
       <use xlink:href="#DejaVuSans-49"/>
       <use x="63.623047" xlink:href="#DejaVuSans-49"/>
       <use x="127.246094" xlink:href="#DejaVuSans-54"/>
       <use x="190.869141" xlink:href="#DejaVuSans-48"/>
       <use x="254.492188" xlink:href="#DejaVuSans-48"/>
      </g>
     </g>
    </g>
    <g id="ytick_4">
     <g id="line2d_25">
      <g>
       <use style="stroke:#000000;stroke-width:0.8;" x="108" xlink:href="#m159f20b43f" y="294.181838"/>
      </g>
     </g>
     <g id="text_26">
      <!-- 11800 -->
      <g transform="translate(69.1875 297.981056)scale(0.1 -0.1)">
       <use xlink:href="#DejaVuSans-49"/>
       <use x="63.623047" xlink:href="#DejaVuSans-49"/>
       <use x="127.246094" xlink:href="#DejaVuSans-56"/>
       <use x="190.869141" xlink:href="#DejaVuSans-48"/>
       <use x="254.492188" xlink:href="#DejaVuSans-48"/>
      </g>
     </g>
    </g>
    <g id="ytick_5">
     <g id="line2d_26">
      <g>
       <use style="stroke:#000000;stroke-width:0.8;" x="108" xlink:href="#m159f20b43f" y="250.751376"/>
      </g>
     </g>
     <g id="text_27">
      <!-- 12000 -->
      <g transform="translate(69.1875 254.550594)scale(0.1 -0.1)">
       <use xlink:href="#DejaVuSans-49"/>
       <use x="63.623047" xlink:href="#DejaVuSans-50"/>
       <use x="127.246094" xlink:href="#DejaVuSans-48"/>
       <use x="190.869141" xlink:href="#DejaVuSans-48"/>
       <use x="254.492188" xlink:href="#DejaVuSans-48"/>
      </g>
     </g>
    </g>
    <g id="ytick_6">
     <g id="line2d_27">
      <g>
       <use style="stroke:#000000;stroke-width:0.8;" x="108" xlink:href="#m159f20b43f" y="207.320913"/>
      </g>
     </g>
     <g id="text_28">
      <!-- 12200 -->
      <g transform="translate(69.1875 211.120132)scale(0.1 -0.1)">
       <use xlink:href="#DejaVuSans-49"/>
       <use x="63.623047" xlink:href="#DejaVuSans-50"/>
       <use x="127.246094" xlink:href="#DejaVuSans-50"/>
       <use x="190.869141" xlink:href="#DejaVuSans-48"/>
       <use x="254.492188" xlink:href="#DejaVuSans-48"/>
      </g>
     </g>
    </g>
    <g id="ytick_7">
     <g id="line2d_28">
      <g>
       <use style="stroke:#000000;stroke-width:0.8;" x="108" xlink:href="#m159f20b43f" y="163.890451"/>
      </g>
     </g>
     <g id="text_29">
      <!-- 12400 -->
      <g transform="translate(69.1875 167.68967)scale(0.1 -0.1)">
       <use xlink:href="#DejaVuSans-49"/>
       <use x="63.623047" xlink:href="#DejaVuSans-50"/>
       <use x="127.246094" xlink:href="#DejaVuSans-52"/>
       <use x="190.869141" xlink:href="#DejaVuSans-48"/>
       <use x="254.492188" xlink:href="#DejaVuSans-48"/>
      </g>
     </g>
    </g>
    <g id="ytick_8">
     <g id="line2d_29">
      <g>
       <use style="stroke:#000000;stroke-width:0.8;" x="108" xlink:href="#m159f20b43f" y="120.459989"/>
      </g>
     </g>
     <g id="text_30">
      <!-- 12600 -->
      <g transform="translate(69.1875 124.259208)scale(0.1 -0.1)">
       <use xlink:href="#DejaVuSans-49"/>
       <use x="63.623047" xlink:href="#DejaVuSans-50"/>
       <use x="127.246094" xlink:href="#DejaVuSans-54"/>
       <use x="190.869141" xlink:href="#DejaVuSans-48"/>
       <use x="254.492188" xlink:href="#DejaVuSans-48"/>
      </g>
     </g>
    </g>
    <g id="ytick_9">
     <g id="line2d_30">
      <g>
       <use style="stroke:#000000;stroke-width:0.8;" x="108" xlink:href="#m159f20b43f" y="77.029527"/>
      </g>
     </g>
     <g id="text_31">
      <!-- 12800 -->
      <g transform="translate(69.1875 80.828746)scale(0.1 -0.1)">
       <use xlink:href="#DejaVuSans-49"/>
       <use x="63.623047" xlink:href="#DejaVuSans-50"/>
       <use x="127.246094" xlink:href="#DejaVuSans-56"/>
       <use x="190.869141" xlink:href="#DejaVuSans-48"/>
       <use x="254.492188" xlink:href="#DejaVuSans-48"/>
      </g>
     </g>
    </g>
    <g id="text_32">
     <!-- MB -->
     <g transform="translate(63.52375 260.715625)rotate(-90)scale(0.08 -0.08)">
      <defs>
       <path d="M 9.8125 72.90625 
L 24.515625 72.90625 
L 43.109375 23.296875 
L 61.8125 72.90625 
L 76.515625 72.90625 
L 76.515625 0 
L 66.890625 0 
L 66.890625 64.015625 
L 48.09375 14.015625 
L 38.1875 14.015625 
L 19.390625 64.015625 
L 19.390625 0 
L 9.8125 0 
z
" id="DejaVuSans-77"/>
       <path d="M 19.671875 34.8125 
L 19.671875 8.109375 
L 35.5 8.109375 
Q 43.453125 8.109375 47.28125 11.40625 
Q 51.125 14.703125 51.125 21.484375 
Q 51.125 28.328125 47.28125 31.5625 
Q 43.453125 34.8125 35.5 34.8125 
z
M 19.671875 64.796875 
L 19.671875 42.828125 
L 34.28125 42.828125 
Q 41.5 42.828125 45.03125 45.53125 
Q 48.578125 48.25 48.578125 53.8125 
Q 48.578125 59.328125 45.03125 62.0625 
Q 41.5 64.796875 34.28125 64.796875 
z
M 9.8125 72.90625 
L 35.015625 72.90625 
Q 46.296875 72.90625 52.390625 68.21875 
Q 58.5 63.53125 58.5 54.890625 
Q 58.5 48.1875 55.375 44.234375 
Q 52.25 40.28125 46.1875 39.3125 
Q 53.46875 37.75 57.5 32.78125 
Q 61.53125 27.828125 61.53125 20.40625 
Q 61.53125 10.640625 54.890625 5.3125 
Q 48.25 0 35.984375 0 
L 9.8125 0 
z
" id="DejaVuSans-66"/>
      </defs>
      <use xlink:href="#DejaVuSans-77"/>
      <use x="86.279297" xlink:href="#DejaVuSans-66"/>
     </g>
    </g>
   </g>
   <g id="line2d_31">
    <path clip-path="url(#p65b31be7f9)" d="M 132.349091 80.792815 
L 132.613755 80.973374 
L 132.878419 80.462827 
L 133.143083 79.357233 
L 133.407747 79.527119 
L 133.672411 80.336524 
L 134.201739 80.172864 
L 134.466403 79.619623 
L 134.995731 79.616065 
L 135.525059 78.12 
L 135.789723 78.716825 
L 136.054387 80.977822 
L 136.319051 84.31595 
L 136.583715 91.130071 
L 136.848379 101.148012 
L 137.377708 144.418261 
L 137.642372 188.763862 
L 137.907036 210.246 
L 138.436364 269.308538 
L 138.965692 322.159116 
L 139.49502 374.81935 
L 140.289012 408.55819 
L 140.553676 409.339132 
L 140.81834 408.710287 
L 141.083004 408.369625 
L 141.612332 407.294273 
L 141.876996 408.260222 
L 142.14166 408.3465 
L 142.406324 407.83862 
L 142.670988 407.75768 
L 142.935652 408.953998 
L 143.200316 408.467466 
L 143.46498 408.253107 
L 143.729644 407.553994 
L 143.994308 408.244212 
L 144.258972 409.387163 
L 144.523636 409.494787 
L 144.7883 408.878394 
L 145.052964 409.496566 
L 145.317628 409.377379 
L 145.582292 409.096311 
L 145.846957 411.794031 
L 146.111621 411.138502 
L 146.376285 412.355277 
L 146.640949 412.033294 
L 146.905613 409.979541 
L 147.434941 408.314479 
L 147.699605 409.069627 
L 147.964269 409.313338 
L 148.228933 409.114989 
L 148.493597 408.245991 
L 148.758261 409.447646 
L 149.022925 409.901268 
L 149.552253 408.289574 
L 149.816917 408.611557 
L 150.081581 409.701141 
L 150.346245 409.843454 
L 150.610909 409.777634 
L 150.875573 408.923756 
L 151.140237 409.976872 
L 151.404901 410.093391 
L 151.669565 409.786529 
L 151.934229 408.955777 
L 152.198893 410.377127 
L 152.728221 410.511435 
L 152.992885 409.679794 
L 153.257549 408.042306 
L 153.522213 409.283986 
L 153.786877 409.199488 
L 154.051542 408.839258 
L 154.316206 408.286906 
L 154.58087 409.485003 
L 155.110198 409.313338 
L 155.374862 408.041416 
L 155.90419 410.210799 
L 156.168854 410.116517 
L 156.433518 409.887037 
L 156.698182 409.115879 
L 156.962846 410.156542 
L 157.22751 410.16099 
L 157.492174 409.058064 
L 157.756838 408.437224 
L 158.021502 409.010923 
L 158.286166 410.212578 
L 159.080158 408.671151 
L 159.344822 410.33977 
L 159.609486 409.253745 
L 159.87415 409.036717 
L 160.138814 408.617784 
L 160.403478 408.790338 
L 160.668142 409.291102 
L 160.932806 409.225282 
L 161.19747 408.68894 
L 161.726798 410.066707 
L 161.991462 410.019566 
L 162.256126 409.839007 
L 162.520791 408.023627 
L 162.785455 409.431636 
L 163.050119 409.568612 
L 163.314783 409.469882 
L 163.579447 408.248659 
L 163.844111 408.73786 
L 164.108775 410.210799 
L 164.373439 409.923505 
L 164.638103 409.988435 
L 164.902767 408.740529 
L 165.167431 410.507877 
L 165.432095 410.603049 
L 165.696759 410.462515 
L 165.961423 409.670899 
L 166.226087 410.27484 
L 166.490751 411.171411 
L 167.020079 410.472299 
L 167.284743 411.001525 
L 167.814071 411.09136 
L 168.078735 409.496566 
L 168.343399 409.629984 
L 168.608063 410.955274 
L 168.872727 411.207879 
L 169.137391 410.828081 
L 169.402055 410.021345 
L 169.666719 410.742694 
L 169.931383 410.032018 
L 170.196047 410.345107 
L 170.725375 409.464546 
L 170.99004 411.039772 
L 171.519368 411.093139 
L 171.784032 409.822996 
L 172.048696 410.257051 
L 172.31336 411.513852 
L 172.578024 411.551209 
L 172.842688 410.474968 
L 173.107352 410.343328 
L 173.372016 411.561883 
L 173.63668 411.056672 
L 173.901344 411.013088 
L 174.166008 410.475857 
L 174.430672 411.390218 
L 174.96 410.303303 
L 175.224664 410.320202 
L 175.489328 410.670648 
L 175.753992 410.212578 
L 176.018656 410.165437 
L 176.28332 409.462767 
L 176.547984 409.485893 
L 176.812648 411.503178 
L 177.077312 411.556546 
L 177.60664 409.959973 
L 178.135968 411.30483 
L 178.400632 410.867218 
L 178.665296 409.91461 
L 178.92996 413.087299 
L 179.194625 414.815512 
L 179.723953 414.9009 
L 179.988617 411.636597 
L 180.253281 412.381961 
L 181.047273 409.655779 
L 181.311937 413.927835 
L 181.576601 414.54067 
L 181.841265 414.596706 
L 182.105929 414.037238 
L 182.370593 409.3925 
L 182.635257 411.586787 
L 182.899921 411.675733 
L 183.164585 410.321981 
L 183.429249 409.615753 
L 183.693913 409.821217 
L 183.958577 410.547903 
L 184.223241 410.687547 
L 184.487905 410.134306 
L 184.752569 410.51944 
L 185.017233 411.672175 
L 185.546561 411.28882 
L 185.811225 410.832529 
L 186.075889 411.768236 
L 186.340553 410.177889 
L 186.605217 409.885258 
L 186.869881 409.808765 
L 187.399209 410.247267 
L 187.663874 410.218804 
L 187.928538 409.786529 
L 188.193202 408.75476 
L 188.457866 410.533672 
L 188.72253 410.733799 
L 188.987194 410.491867 
L 189.251858 409.951967 
L 189.516522 410.228588 
L 189.781186 410.817408 
L 190.04585 410.970394 
L 190.310514 410.32376 
L 190.575178 411.061119 
L 190.839842 413.143335 
L 191.36917 412.834694 
L 191.633834 411.066456 
L 191.898498 411.911439 
L 192.163162 411.184753 
L 192.427826 411.152733 
L 192.69249 410.690216 
L 192.957154 410.844092 
L 193.221818 411.810041 
L 193.486482 411.448922 
L 193.751146 411.40267 
L 194.01581 409.652221 
L 194.280474 412.083104 
L 194.545138 412.019063 
L 195.074466 410.441168 
L 195.603794 411.053114 
L 195.868458 410.999746 
L 196.133123 409.923505 
L 196.397787 411.144728 
L 196.662451 411.59835 
L 196.927115 411.665949 
L 197.456443 410.76582 
L 197.721107 411.81093 
L 197.985771 411.842951 
L 198.250435 411.262136 
L 198.515099 409.876364 
L 198.779763 410.616391 
L 199.044427 411.753116 
L 199.309091 411.81182 
L 199.573755 411.612582 
L 199.838419 410.974842 
L 200.103083 411.311056 
L 200.367747 410.971284 
L 200.632411 410.941042 
L 200.897075 410.409148 
L 201.426403 412.455786 
L 201.691067 412.271668 
L 201.955731 411.689964 
L 202.220395 411.907881 
L 202.485059 411.558325 
L 202.749723 411.805593 
L 203.014387 411.657054 
L 203.279051 410.342439 
L 203.543715 411.263915 
L 203.808379 412.844478 
L 204.073043 412.164044 
L 204.337708 411.088692 
L 204.602372 411.450701 
L 204.867036 412.169381 
L 205.396364 411.736216 
L 205.661028 411.110928 
L 205.925692 410.942821 
L 206.190356 411.741553 
L 206.45502 411.726432 
L 206.719684 410.802287 
L 206.984348 411.488058 
L 207.249012 411.84473 
L 207.513676 411.43558 
L 208.043004 410.411816 
L 208.307668 411.070903 
L 208.572332 410.903685 
L 208.836996 411.223889 
L 209.10166 410.187673 
L 209.366324 411.031767 
L 209.630988 412.84181 
L 209.895652 412.49759 
L 210.160316 411.25502 
L 210.42498 411.358197 
L 210.954308 412.179165 
L 211.483636 411.51741 
L 211.7483 413.488444 
L 212.012964 412.439776 
L 212.277628 413.637873 
L 212.542292 413.669004 
L 213.071621 412.357056 
L 213.336285 412.581199 
L 213.600949 412.123129 
L 213.865613 411.02643 
L 214.130277 411.985264 
L 214.394941 411.400891 
L 214.659605 411.299493 
L 214.924269 410.196568 
L 215.453597 411.907881 
L 215.718261 411.962138 
L 215.982925 411.335961 
L 216.247589 411.46849 
L 216.512253 412.292126 
L 217.041581 412.151592 
L 217.306245 411.098476 
L 217.570909 413.378151 
L 217.835573 412.505595 
L 218.100237 410.836976 
L 218.364901 410.824524 
L 218.629565 409.659336 
L 218.894229 411.882087 
L 219.158893 411.960359 
L 219.423557 411.858961 
L 219.688221 411.17319 
L 219.952885 412.098224 
L 220.217549 412.441554 
L 220.746877 411.134944 
L 221.011542 411.485389 
L 221.276206 412.550958 
L 221.54087 412.521605 
L 221.805534 411.855403 
L 222.070198 411.684627 
L 222.334862 412.554515 
L 222.599526 412.531389 
L 222.86419 411.64816 
L 223.128854 411.442695 
L 223.393518 412.113345 
L 223.922846 411.585898 
L 224.18751 411.005083 
L 224.452174 411.519189 
L 224.716838 412.900514 
L 225.246166 412.992128 
L 225.51083 411.596571 
L 225.775494 412.377514 
L 226.304822 411.758452 
L 226.569486 411.153622 
L 227.098814 413.046384 
L 227.363478 412.896956 
L 227.628142 413.022369 
L 227.892806 412.323257 
L 228.15747 412.790221 
L 228.422134 412.505595 
L 228.686798 412.585646 
L 228.951462 411.667728 
L 229.216126 411.894539 
L 229.480791 413.115762 
L 229.745455 413.154009 
L 230.010119 412.572304 
L 230.274783 411.502289 
L 230.539447 412.832026 
L 231.068775 412.194286 
L 231.333439 411.58323 
L 231.598103 415.412337 
L 232.127431 414.926694 
L 232.392095 414.261381 
L 232.656759 412.692381 
L 233.186087 414.049691 
L 233.450751 412.638124 
L 233.715415 412.534947 
L 233.980079 412.88984 
L 234.509407 412.961886 
L 234.774071 412.21919 
L 235.038735 412.441554 
L 235.303399 414.423262 
L 235.568063 414.400136 
L 235.832727 413.829995 
L 236.097391 412.681708 
L 236.362055 413.584505 
L 236.891383 413.257185 
L 237.156047 412.306357 
L 237.420711 414.03457 
L 238.214704 411.916775 
L 238.479368 412.680818 
L 238.744032 414.460619 
L 239.008696 414.325422 
L 239.538024 413.140667 
L 239.802688 414.424152 
L 240.067352 413.706361 
L 240.332016 413.942066 
L 240.59668 412.940539 
L 241.126008 414.773708 
L 241.390672 414.6394 
L 241.655336 414.08349 
L 241.92 414.224024 
L 242.184664 413.908267 
L 242.713992 413.822879 
L 242.978656 413.068621 
L 243.24332 414.140415 
L 243.507984 414.150199 
L 243.772648 413.971419 
L 244.037312 413.227833 
L 244.301976 413.34791 
L 244.56664 413.922498 
L 245.095968 413.791748 
L 245.625296 417.946397 
L 245.88996 417.61463 
L 246.154625 415.379427 
L 246.419289 414.692767 
L 246.683953 414.691878 
L 246.948617 415.152616 
L 247.477945 413.623641 
L 247.742609 417.217932 
L 248.007273 417.912597 
L 248.271937 417.770285 
L 248.536601 417.355798 
L 248.801265 413.062395 
L 249.330593 414.640289 
L 250.124585 412.928087 
L 250.389249 414.34499 
L 250.653913 414.42682 
L 251.183241 413.116651 
L 251.447905 414.719451 
L 251.977233 414.193782 
L 252.241897 413.417288 
L 252.506561 413.715255 
L 253.035889 414.675868 
L 253.300553 414.402805 
L 253.565217 413.747276 
L 253.829881 415.664053 
L 254.359209 415.441689 
L 254.888538 413.801532 
L 255.153202 414.232919 
L 255.417866 414.304964 
L 255.947194 412.959218 
L 256.211858 414.936478 
L 256.476522 414.932031 
L 257.00585 413.025037 
L 257.270514 413.611189 
L 257.535178 414.779934 
L 257.799842 414.474851 
L 258.064506 413.585395 
L 258.32917 413.555153 
L 258.593834 414.878663 
L 258.858498 414.943594 
L 259.123162 414.799502 
L 259.387826 413.837111 
L 259.65249 415.559987 
L 260.446482 413.882473 
L 260.711146 413.736602 
L 260.97581 414.142194 
L 261.240474 413.580058 
L 261.505138 413.660109 
L 261.769802 412.691492 
L 262.034466 413.986539 
L 262.563794 413.791748 
L 262.828458 412.994796 
L 263.357787 414.462398 
L 263.887115 413.614747 
L 264.151779 413.754391 
L 264.416443 414.422373 
L 264.681107 414.441941 
L 264.945771 414.216019 
L 265.210435 413.317668 
L 265.739763 415.32606 
L 266.004427 415.459478 
L 266.533755 414.069259 
L 266.798419 414.621611 
L 267.063083 413.884252 
L 267.327747 413.971419 
L 267.592411 413.345242 
L 267.857075 414.690099 
L 268.121739 414.528218 
L 268.651067 413.356805 
L 268.915731 413.859347 
L 269.180395 414.744356 
L 269.445059 414.3779 
L 269.709723 414.776376 
L 269.974387 414.801281 
L 270.239051 416.782099 
L 270.768379 416.883497 
L 271.033043 415.617801 
L 271.297708 416.477905 
L 271.562372 416.411196 
L 271.827036 415.965579 
L 272.0917 415.264687 
L 272.621028 416.678922 
L 272.885692 416.263546 
L 273.150356 416.330255 
L 273.41502 415.625806 
L 273.679684 416.021614 
L 273.944348 415.960242 
L 274.209012 416.035846 
L 274.473676 415.238004 
L 275.003004 416.647791 
L 275.267668 416.896839 
L 275.532332 416.033177 
L 275.796996 416.330255 
L 276.06166 417.493664 
L 276.590988 417.381592 
L 276.855652 417.690233 
L 277.120316 418.492523 
L 277.38498 417.7605 
L 277.649644 417.879688 
L 277.914308 417.480322 
L 278.178972 416.560625 
L 278.443636 420.859365 
L 278.7083 420.254535 
L 278.972964 420.277661 
L 279.502292 418.233691 
L 279.766957 418.39824 
L 280.031621 418.341315 
L 280.296285 416.644233 
L 280.825613 417.804973 
L 281.090277 417.342456 
L 281.354941 417.724922 
L 281.619605 417.047157 
L 281.884269 418.305737 
L 282.413597 417.978417 
L 282.678261 417.101414 
L 282.942925 417.76139 
L 283.207589 418.08871 
L 283.472253 417.722254 
L 283.736917 417.04182 
L 284.001581 416.945759 
L 284.266245 418.734455 
L 284.530909 418.588584 
L 284.795573 417.523905 
L 285.060237 417.233053 
L 285.324901 418.573463 
L 285.589565 418.647288 
L 285.854229 418.303069 
L 286.118893 417.742711 
L 286.383557 418.48096 
L 286.648221 418.863426 
L 286.912885 418.460502 
L 287.177549 417.740043 
L 287.442213 417.758722 
L 287.971542 418.392904 
L 288.236206 418.573463 
L 288.50087 417.702686 
L 288.765534 418.000654 
L 289.030198 417.176128 
L 289.294862 417.313104 
L 289.559526 416.485021 
L 290.353518 418.579689 
L 290.618182 418.20345 
L 290.882846 417.2713 
L 291.14751 417.011579 
L 291.412174 417.582609 
L 291.676838 417.497222 
L 291.941502 417.159228 
L 292.206166 418.069142 
L 292.47083 419.699514 
L 292.735494 419.076895 
L 293.000158 418.948814 
L 293.264822 418.28439 
L 293.529486 418.986171 
L 293.79415 419.053769 
L 294.058814 418.770033 
L 294.323478 418.315521 
L 294.852806 420.090875 
L 295.11747 419.861395 
L 295.646798 419.938778 
L 295.911462 418.400019 
L 296.176126 418.603705 
L 296.440791 418.441824 
L 296.705455 417.295315 
L 296.970119 417.515011 
L 297.234783 419.51006 
L 297.499447 419.156057 
L 297.764111 417.874351 
L 298.028775 418.342205 
L 298.293439 419.904089 
L 298.822767 419.517176 
L 299.087431 418.923019 
L 299.352095 419.767113 
L 299.881423 418.201671 
L 300.146087 418.099383 
L 300.410751 418.950592 
L 300.675415 420.65479 
L 300.940079 419.778676 
L 301.204743 419.369526 
L 301.469407 418.498749 
L 301.734071 418.841189 
L 301.998735 418.929246 
L 302.263399 418.8234 
L 302.528063 418.042458 
L 303.057391 418.927467 
L 303.322055 418.788711 
L 303.586719 419.596337 
L 303.851383 418.842079 
L 304.116047 420.387064 
L 304.380711 420.44132 
L 304.645375 420.31146 
L 304.91004 419.258344 
L 305.439368 420.525819 
L 305.704032 420.374611 
L 305.968696 419.855169 
L 306.23336 419.885411 
L 306.498024 420.977662 
L 306.762688 421.045261 
L 307.027352 420.856696 
L 307.292016 420.185157 
L 307.55668 421.121754 
L 308.350672 419.51006 
L 308.615336 419.909426 
L 308.88 420.733951 
L 309.144664 420.890496 
L 309.409328 420.728615 
L 309.673992 420.209172 
L 309.938656 421.309429 
L 310.20332 421.321882 
L 310.467984 420.844244 
L 310.732648 420.035729 
L 310.997312 419.617684 
L 311.261976 420.547166 
L 311.52664 420.356822 
L 311.791304 422.864198 
L 312.055968 422.189991 
L 312.320632 423.38453 
L 312.585296 420.748183 
L 312.84996 420.734841 
L 313.114625 420.041955 
L 313.379289 420.337254 
L 313.643953 421.047929 
L 313.908617 420.939416 
L 314.173281 423.487707 
L 314.437945 423.618457 
L 314.702609 423.477033 
L 314.967273 423.615788 
L 315.231937 420.682363 
L 315.496601 419.941446 
L 315.761265 420.471562 
L 316.025929 421.449963 
L 316.290593 421.312098 
L 316.555257 420.554281 
L 316.819921 420.669021 
L 317.084585 421.494436 
L 317.349249 421.689227 
L 317.878577 420.44221 
L 318.143241 422.131287 
L 318.407905 422.015657 
L 318.937233 421.115528 
L 319.201897 421.529125 
L 319.731225 419.829375 
L 319.995889 419.228103 
L 320.260553 419.233439 
L 320.525217 421.441069 
L 321.319209 419.974356 
L 321.583874 421.398375 
L 322.113202 421.059492 
L 322.377866 420.058854 
L 322.64253 420.552502 
L 322.907194 422.300283 
L 323.436522 421.546914 
L 323.701186 420.831792 
L 323.96585 421.803077 
L 324.495178 421.878681 
L 324.759842 420.72061 
L 325.024506 422.15797 
L 325.28917 421.141322 
L 325.553834 421.019467 
L 325.818498 419.079564 
L 326.083162 418.953261 
L 326.347826 420.315907 
L 326.61249 419.896084 
L 326.877154 419.944115 
L 327.141818 419.476261 
L 327.671146 420.637001 
L 327.93581 420.60587 
L 328.200474 419.582106 
L 328.729802 421.514894 
L 328.994466 421.436622 
L 329.25913 421.525567 
L 329.523794 420.468894 
L 329.788458 421.55314 
L 330.053123 421.486431 
L 330.582451 420.074865 
L 330.847115 420.553392 
L 331.111779 420.057965 
L 331.376443 419.871179 
L 331.641107 420.072196 
L 331.905771 419.365968 
L 332.170435 421.475758 
L 332.435099 421.600281 
L 332.699763 422.023662 
L 332.964427 421.020356 
L 333.229091 420.675247 
L 333.493755 421.808414 
L 333.758419 421.514894 
L 334.023083 420.760635 
L 334.287747 421.444627 
L 334.552411 422.901555 
L 334.817075 422.84463 
L 335.346403 421.109302 
L 335.611067 421.377917 
L 335.875731 420.860254 
L 336.140395 420.986557 
L 336.405059 420.057076 
L 336.934387 422.358098 
L 337.199051 422.229127 
L 337.463715 421.974742 
L 337.728379 421.329887 
L 337.993043 421.40727 
L 338.257708 421.678554 
L 338.522372 421.587829 
L 338.787036 420.174484 
L 339.0517 421.956953 
L 339.316364 422.380334 
L 339.581028 422.096598 
L 339.845692 421.213368 
L 340.37502 422.359877 
L 340.639684 422.506637 
L 340.904348 422.409686 
L 341.169012 421.734589 
L 341.433676 422.214895 
L 341.963004 421.718579 
L 342.492332 421.109302 
L 342.756996 422.15886 
L 343.02166 422.140181 
L 343.286324 421.279188 
L 343.550988 421.987195 
L 343.815652 422.291389 
L 344.34498 421.793293 
L 344.609644 420.732173 
L 344.874308 424.515028 
L 345.138972 425.282629 
L 345.403636 425.258613 
L 345.6683 424.390505 
L 345.932964 422.835736 
L 346.462292 423.011848 
L 346.726957 421.036366 
L 346.991621 421.505999 
L 347.256285 423.031416 
L 347.520949 423.049205 
L 347.785613 422.802826 
L 348.050277 422.205111 
L 348.314941 422.075251 
L 348.579605 423.230654 
L 349.108933 421.731921 
L 349.638261 423.87551 
L 350.167589 423.41744 
L 350.432253 422.705875 
L 350.696917 423.33472 
L 350.961581 423.036753 
L 351.226245 423.100794 
L 351.490909 422.431033 
L 351.755573 422.758353 
L 352.020237 423.344504 
L 352.284901 423.156829 
L 352.549565 423.479702 
L 352.814229 421.934717 
L 353.078893 423.189739 
L 353.608221 423.516169 
L 353.872885 422.602698 
L 354.137549 422.652508 
L 354.402213 423.229765 
L 354.666877 422.902445 
L 354.931542 422.865088 
L 355.196206 422.37055 
L 355.46087 422.95937 
L 355.990198 422.777921 
L 356.254862 421.707016 
L 356.78419 423.038532 
L 357.048854 422.989612 
L 357.313518 421.30765 
L 357.578182 421.884018 
L 357.842846 422.802826 
L 358.10751 423.17195 
L 358.372174 423.098125 
L 358.636838 422.552889 
L 358.901502 423.815027 
L 359.43083 423.806132 
L 359.695494 422.987833 
L 359.960158 423.075889 
L 360.224822 423.35251 
L 360.489486 423.467249 
L 360.75415 423.404987 
L 361.018814 422.532431 
L 361.283478 422.652508 
L 361.812806 422.400792 
L 362.07747 421.367244 
L 362.342134 422.244248 
L 362.606798 423.965345 
L 363.136126 422.405239 
L 363.400791 422.543994 
L 363.930119 426.291272 
L 364.194783 426.215668 
L 364.459447 425.358232 
L 364.724111 427.729522 
L 364.988775 425.344891 
L 365.253439 425.147431 
L 365.782767 423.521506 
L 366.312095 423.322268 
L 366.576759 421.813751 
L 366.841423 421.949838 
L 367.106087 423.748317 
L 367.370751 423.951113 
L 367.635415 423.87462 
L 367.900079 423.130146 
L 368.164743 423.616678 
L 368.429407 423.010958 
L 368.694071 423.034974 
L 368.958735 422.286052 
L 369.488063 423.603336 
L 369.752727 423.5811 
L 370.017391 423.672714 
L 370.282055 423.046537 
L 370.546719 423.794569 
L 370.811383 423.807911 
L 371.340711 422.962038 
L 371.605375 424.056959 
L 371.87004 423.975129 
L 372.134704 424.166362 
L 372.399368 423.011848 
L 372.664032 423.052763 
L 372.928696 423.926209 
L 373.19336 424.281991 
L 373.458024 424.084532 
L 373.722688 423.026079 
L 373.987352 423.618457 
L 374.252016 423.48237 
L 374.781344 422.020994 
L 375.310672 423.777669 
L 375.575336 423.726081 
L 375.84 423.992028 
L 376.104664 422.868646 
L 376.369328 423.935993 
L 376.633992 424.030275 
L 376.898656 424.281991 
L 377.16332 423.635356 
L 377.427984 423.811469 
L 377.692648 424.562169 
L 377.957312 424.400289 
L 378.221976 427.169165 
L 378.48664 425.814523 
L 378.751304 428.067515 
L 379.015968 424.927736 
L 379.80996 423.445013 
L 380.074625 423.336499 
L 380.339289 423.372078 
L 380.603953 425.376022 
L 381.133281 426.795593 
L 381.397945 424.701814 
L 381.662609 424.384278 
L 381.927273 423.878178 
L 382.191937 425.145653 
L 382.456601 424.075637 
L 382.721265 423.911977 
L 382.985929 422.635608 
L 383.250593 423.435229 
L 383.515257 425.799403 
L 384.044585 423.948445 
L 384.309249 424.015154 
L 384.573913 425.377801 
L 384.838577 425.327991 
L 385.103241 425.058486 
L 385.367905 424.190377 
L 385.897233 424.403846 
L 386.161897 424.785423 
L 386.691225 423.839931 
L 386.955889 426.072466 
L 387.220553 425.726467 
L 387.485217 425.683773 
L 387.749881 424.671573 
L 388.279209 425.341333 
L 388.543874 425.233709 
L 388.808538 423.929766 
L 389.073202 424.416299 
L 389.337866 425.34578 
L 389.60253 424.537265 
L 389.867194 424.6102 
L 390.131858 424.257086 
L 390.396522 425.238156 
L 390.661186 425.42761 
L 390.92585 425.355564 
L 391.190514 424.863695 
L 391.455178 424.967761 
L 392.24917 424.812996 
L 392.513834 423.904862 
L 392.778498 425.483646 
L 393.043162 425.009566 
L 393.307826 424.059627 
L 393.57249 423.594442 
L 393.837154 423.822142 
L 394.101818 424.503465 
L 394.366482 424.335358 
L 394.631146 424.481229 
L 394.89581 423.918203 
L 395.160474 425.193683 
L 395.425138 425.146542 
L 395.689802 425.282629 
L 395.954466 424.556833 
L 396.483794 425.23193 
L 396.748458 425.436505 
L 397.013123 424.679578 
L 397.277787 425.136758 
L 397.542451 425.846544 
L 397.807115 425.272845 
L 398.071779 424.354926 
L 398.336443 424.301559 
L 398.601107 423.925319 
L 399.130435 424.191266 
L 399.395099 423.445902 
L 399.924427 425.36268 
L 400.453755 425.456073 
L 400.718419 425.01935 
L 400.983083 425.529897 
L 401.512411 425.570812 
L 401.777075 424.796986 
L 402.306403 426.772467 
L 402.571067 426.778693 
L 402.835731 426.159632 
L 403.100395 425.104738 
L 403.365059 426.487841 
L 403.629723 426.381107 
L 403.894387 426.501183 
L 404.159051 425.247051 
L 404.423715 426.183648 
L 404.688379 426.238794 
L 404.953043 425.980852 
L 405.482372 424.238408 
L 405.747036 425.379579 
L 406.0117 424.82367 
L 406.276364 424.845906 
L 406.541028 424.419857 
L 406.805692 425.683773 
L 407.33502 425.274624 
L 407.599684 424.752513 
L 408.129012 426.426469 
L 408.393676 426.100928 
L 408.65834 425.475641 
L 409.452332 425.749593 
L 409.98166 424.599527 
L 410.246324 425.007787 
L 410.510988 426.503852 
L 410.775652 426.010204 
L 411.040316 425.092285 
L 411.30498 427.547183 
L 411.569644 428.403729 
L 411.834308 428.334352 
L 412.098972 428.492675 
L 412.363636 425.899911 
L 412.892964 426.413127 
L 413.157628 425.939047 
L 413.422292 425.086059 
L 413.951621 425.718462 
L 414.216285 425.57437 
L 414.480949 424.483008 
L 414.745613 424.437646 
L 415.010277 425.445399 
L 415.274941 425.545018 
L 415.804269 424.766744 
L 416.068933 426.231678 
L 416.333597 425.505882 
L 416.598261 425.415158 
L 417.127589 424.810328 
L 417.392253 426.380217 
L 417.656917 426.348197 
L 417.921581 426.568782 
L 418.186245 425.762045 
L 418.450909 426.928122 
L 418.715573 427.417323 
L 419.244901 425.637522 
L 419.509565 426.071576 
L 419.774229 428.036384 
L 420.038893 426.7022 
L 420.303557 426.708426 
L 420.568221 426.175642 
L 420.832885 426.80093 
L 421.097549 427.054425 
L 421.362213 427.102455 
L 421.626877 426.550993 
L 421.891542 426.775136 
L 422.156206 428.296105 
L 422.42087 428.371709 
L 422.950198 425.911474 
L 423.214862 427.81491 
L 423.479526 427.717069 
L 424.008854 426.1961 
L 424.538182 426.970816 
L 424.802846 427.123802 
L 425.06751 426.00042 
L 425.596838 427.118466 
L 425.861502 427.241211 
L 426.126166 427.070435 
L 426.39083 426.188984 
L 426.655494 428.258748 
L 426.920158 428.318342 
L 427.449486 426.740447 
L 427.71415 427.659255 
L 428.243478 427.210969 
L 428.508142 426.52342 
L 428.772806 426.29394 
L 429.03747 427.759763 
L 429.302134 427.840704 
L 429.566798 427.677044 
L 429.831462 426.928122 
L 430.096126 427.782 
L 430.360791 427.465353 
L 430.625455 426.651501 
L 430.890119 426.631933 
L 431.154783 426.29394 
L 431.419447 427.987464 
L 431.684111 428.023042 
L 431.948775 427.764211 
L 432.213439 427.076661 
L 432.478103 428.147566 
L 432.742767 428.22228 
L 433.007431 428.041721 
L 433.272095 426.542988 
L 433.536759 427.278568 
L 434.066087 426.531425 
L 434.595415 426.524309 
L 434.860079 427.502711 
L 435.124743 427.55341 
L 435.389407 427.796231 
L 435.654071 427.213637 
L 435.918735 427.12736 
L 436.448063 427.2252 
L 436.712727 426.39267 
L 436.977391 427.137144 
L 437.506719 427.703728 
L 437.771383 427.391529 
L 438.036047 426.785809 
L 438.300711 427.785558 
L 438.565375 427.834478 
L 438.83004 427.689496 
L 439.094704 427.014399 
L 439.888696 428.924061 
L 440.15336 428.322789 
L 440.418024 426.422911 
L 440.682688 428.256969 
L 440.947352 428.603857 
L 441.212016 428.417071 
L 441.47668 427.690386 
L 441.741344 428.07552 
L 442.006008 427.771326 
L 442.270672 427.915418 
L 442.535336 426.542098 
L 442.8 426.921896 
L 443.064664 428.02749 
L 443.329328 427.946549 
L 443.593992 427.745532 
L 443.858656 426.862302 
L 444.12332 428.535369 
L 444.387984 428.018595 
L 444.652648 430.764345 
L 444.917312 430.243124 
L 445.181976 430.496619 
L 445.44664 429.984292 
L 445.711304 429.956719 
L 445.975968 429.80907 
L 446.240632 428.320121 
L 446.505296 428.618088 
L 446.76996 428.56561 
L 447.034625 430.92 
L 447.563953 429.632068 
L 448.357945 425.778945 
L 448.622609 425.18212 
L 448.887273 425.600164 
L 449.151937 425.47742 
L 449.416601 425.583265 
L 449.681265 425.223035 
L 450.210593 425.600164 
L 450.475257 424.913505 
L 450.739921 423.84171 
L 451.004585 424.945525 
L 451.269249 424.713377 
L 451.533913 424.639552 
L 452.063241 423.429892 
L 452.327905 424.530149 
L 452.592569 424.307785 
L 452.857233 423.161277 
L 453.121897 423.238659 
L 453.386561 424.710709 
L 453.651225 425.319986 
L 453.915889 425.167889 
L 454.180553 424.388726 
L 454.709881 425.663316 
L 455.239209 425.585933 
L 455.503874 425.151879 
L 455.768538 426.029772 
L 456.033202 425.965731 
L 456.297866 425.781613 
L 456.56253 424.962425 
L 456.827194 425.359122 
L 457.091858 425.014903 
L 457.356522 425.1501 
L 457.621186 425.05226 
L 457.88585 424.452766 
L 458.150514 426.58746 
L 458.679842 426.298387 
L 458.944506 424.312232 
L 459.20917 425.163442 
L 459.473834 425.503214 
L 459.738498 425.143874 
L 460.003162 424.511471 
L 460.53249 425.780724 
L 461.061818 425.661537 
L 461.326482 424.972209 
L 461.591146 425.775387 
L 461.85581 425.508551 
L 462.120474 425.911474 
L 462.385138 424.97043 
L 462.649802 425.6731 
L 462.914466 425.52634 
L 463.17913 425.671321 
L 463.443794 425.29686 
L 463.708458 424.531039 
L 463.973123 426.566114 
L 464.237787 426.83295 
L 464.502451 425.682884 
L 464.767115 425.641079 
L 465.031779 426.336634 
L 465.296443 426.651501 
L 465.561107 426.542988 
L 465.825771 425.674879 
L 466.090435 426.253915 
L 466.355099 427.183396 
L 466.619763 427.528505 
L 466.884427 427.397755 
L 467.149091 426.905886 
L 467.413755 428.307668 
L 467.678419 428.602967 
L 468.207747 426.493178 
L 468.472411 426.708426 
L 468.737075 427.443117 
L 469.001739 427.242989 
L 469.531067 426.29394 
L 469.795731 426.897881 
L 470.060395 426.117828 
L 470.325059 425.987967 
L 470.589723 425.170557 
L 470.854387 425.355564 
L 471.119051 426.93079 
L 471.383715 426.986826 
L 471.648379 426.460268 
L 471.913043 425.685552 
L 472.177708 427.087335 
L 472.442372 426.872976 
L 472.707036 426.99661 
L 472.9717 425.609059 
L 473.501028 427.218085 
L 473.765692 427.141591 
L 474.030356 425.761156 
L 474.29502 426.736 
L 474.559684 426.998389 
L 474.824348 426.144511 
L 475.089012 426.080471 
L 475.353676 425.566365 
L 475.61834 426.166748 
L 475.883004 426.338413 
L 476.147668 426.178311 
L 476.412332 425.737141 
L 476.676996 425.556581 
L 476.94166 426.83384 
L 477.470988 426.646165 
L 477.735652 428.378825 
L 478.000316 429.146425 
L 478.26498 429.164214 
L 478.529644 426.907665 
L 478.794308 426.430916 
L 479.058972 426.667512 
L 479.323636 427.183396 
L 479.852964 426.316176 
L 480.117628 426.726216 
L 480.382292 427.402202 
L 480.646957 427.554299 
L 481.176285 426.062682 
L 481.705613 427.034857 
L 481.970277 426.798262 
L 482.234941 426.19521 
L 482.499605 426.306392 
L 482.764269 427.729522 
L 483.028933 426.046671 
L 483.293597 425.642858 
L 483.558261 423.834595 
L 483.822925 425.079833 
L 484.087589 424.442093 
L 484.352253 424.587964 
L 484.616917 424.057848 
L 484.881581 424.510581 
L 485.146245 425.847433 
L 485.410909 425.685552 
L 485.675573 425.275513 
L 485.940237 424.26776 
L 486.204901 424.465219 
L 486.469565 424.220618 
L 486.998893 422.059241 
L 487.263557 422.293168 
L 487.792885 422.274489 
L 488.057549 421.629634 
L 488.322213 421.589608 
L 488.586877 423.644251 
L 489.38087 422.348314 
L 489.910198 422.760132 
L 490.174862 422.494185 
L 490.439526 421.358349 
L 490.968854 422.201554 
L 491.233518 422.214895 
L 491.498182 420.775756 
L 491.762846 420.72061 
L 492.292174 422.222011 
L 492.556838 421.937385 
L 492.821502 421.361018 
L 493.086166 421.756826 
L 493.615494 421.040814 
L 493.880158 420.885159 
L 494.144822 420.289224 
L 494.409486 421.876902 
L 494.67415 421.770168 
L 494.938814 421.414385 
L 495.203478 420.63878 
L 495.468142 421.34056 
L 495.732806 421.669659 
L 495.99747 421.550472 
L 496.262134 423.639804 
L 496.526798 423.175508 
L 496.791462 425.284408 
L 497.056126 425.353785 
L 497.320791 422.144628 
L 497.585455 421.703458 
L 497.850119 422.416802 
L 498.379447 422.94336 
L 498.644111 421.76572 
L 498.908775 422.029889 
L 499.173439 423.418329 
L 499.438103 422.889103 
L 499.702767 423.033195 
L 500.232095 421.248057 
L 500.496759 421.148438 
L 500.761423 421.197358 
L 501.026087 420.413747 
L 501.555415 419.466477 
L 501.820079 418.876768 
L 502.084743 417.682228 
L 502.349407 417.688455 
L 502.614071 419.16762 
L 502.878735 419.46203 
L 503.143399 419.175625 
L 503.408063 418.130514 
L 503.672727 418.373336 
L 503.937391 419.174735 
L 504.202055 417.437628 
L 504.466719 416.964437 
L 504.731383 416.138133 
L 504.996047 417.707133 
L 505.260711 418.036232 
L 505.525375 417.788963 
L 505.79004 417.167233 
L 506.054704 416.214626 
L 506.319368 416.903954 
L 506.584032 416.593534 
L 506.848696 415.559097 
L 507.11336 416.652238 
L 507.642688 417.201033 
L 507.907352 415.060112 
L 508.172016 414.717672 
L 508.43668 416.50281 
L 508.966008 415.893533 
L 509.230672 415.109922 
L 509.495336 415.037876 
L 509.76 415.48883 
L 510.024664 415.6685 
L 510.289328 415.420342 
L 510.553992 414.78616 
L 510.818656 418.118062 
L 511.347984 418.264822 
L 511.612648 417.422507 
L 511.877312 415.593786 
L 512.141976 416.529494 
L 512.40664 416.202174 
L 512.671304 415.024534 
L 512.935968 415.392769 
L 513.200632 415.390101 
L 513.465296 418.781596 
L 513.72996 418.892778 
L 513.994625 417.708023 
L 514.259289 417.552368 
L 514.523953 416.536609 
L 515.317945 415.562655 
L 515.582609 416.275999 
L 515.847273 415.99582 
L 516.111937 416.155922 
L 516.376601 416.160369 
L 516.641265 417.573715 
L 516.905929 417.673334 
L 517.435257 416.133686 
L 517.699921 416.147917 
L 518.229249 415.842834 
L 518.493913 414.112842 
L 519.023241 415.907764 
L 519.287905 414.151089 
L 519.552569 413.739271 
L 519.817233 412.555405 
L 520.081897 413.307884 
L 520.346561 413.073958 
L 520.611225 413.121988 
L 520.875889 412.469128 
L 521.405217 414.040796 
L 521.669881 413.551595 
L 521.934545 412.637235 
L 522.199209 410.892122 
L 522.463874 411.495173 
L 522.728538 411.595682 
L 522.993202 411.453369 
L 523.257866 410.452731 
L 523.787194 411.705974 
L 524.051858 411.315503 
L 524.316522 410.414485 
L 524.581186 408.366068 
L 524.84585 411.152733 
L 525.110514 411.223 
L 525.639842 410.144979 
L 525.904506 410.294408 
L 526.16917 410.619949 
L 526.433834 410.240151 
L 526.698498 409.022486 
L 526.963162 410.281956 
L 527.227826 410.762262 
L 527.49249 410.99352 
L 528.021818 409.717151 
L 528.286482 410.759593 
L 528.551146 410.787167 
L 528.81581 410.561245 
L 529.080474 409.904826 
L 529.345138 410.56836 
L 529.609802 410.192121 
L 529.874466 410.077381 
L 530.13913 409.508129 
L 530.403794 409.390721 
L 530.668458 410.281956 
L 531.197787 410.332655 
L 531.462451 408.785001 
L 531.727115 409.004697 
L 531.991779 410.001777 
L 532.521107 408.815243 
L 533.050435 410.227699 
L 533.315099 410.277508 
L 533.579763 410.067597 
L 533.844427 409.291991 
L 534.109091 410.523888 
L 534.638419 410.124522 
L 534.903083 409.21283 
L 535.432411 410.979289 
L 535.697075 410.898349 
L 535.961739 410.972173 
L 536.226403 410.474968 
L 536.491067 410.869886 
L 536.755731 410.03024 
L 537.285059 407.497069 
L 537.549723 407.865304 
L 537.814387 408.544848 
L 538.343715 407.628709 
L 538.608379 407.304947 
L 538.873043 408.154377 
L 539.9317 405.800877 
L 540.196364 406.412823 
L 540.725692 404.931879 
L 540.990356 405.298334 
L 541.25502 404.826923 
L 541.519684 404.644584 
L 541.784348 405.09376 
L 542.049012 403.917009 
L 542.313676 404.695283 
L 542.57834 404.520061 
L 543.107668 403.443819 
L 543.636996 404.441788 
L 543.90166 404.21053 
L 544.166324 407.076357 
L 544.430988 406.479532 
L 544.695652 407.782585 
L 544.960316 405.484231 
L 545.22498 405.508246 
L 545.489644 404.734419 
L 545.754308 404.726414 
L 546.018972 404.846491 
L 546.283636 405.312566 
L 546.5483 405.062629 
L 546.812964 404.476477 
L 547.077628 405.486899 
L 547.342292 405.630991 
L 548.136285 403.373552 
L 548.400949 404.960341 
L 548.665613 404.874953 
L 548.930277 404.086006 
L 549.194941 404.462246 
L 549.459605 405.365933 
L 549.724269 405.570508 
L 549.988933 405.465552 
L 550.253597 404.496045 
L 550.782925 405.947637 
L 551.312253 404.769998 
L 551.576917 405.139122 
L 551.841581 405.96009 
L 552.106245 405.398843 
L 552.370909 405.216504 
L 552.635573 404.588549 
L 552.900237 405.783977 
L 553.164901 404.985246 
L 553.429565 405.022603 
L 553.694229 404.378637 
L 553.958893 404.185625 
L 554.223557 404.955004 
L 554.488221 404.835817 
L 555.017549 403.78537 
L 555.282213 404.678384 
L 555.546877 404.198967 
L 556.076206 402.047373 
L 556.605534 403.241023 
L 556.870198 403.155635 
L 557.134862 402.339115 
L 557.399526 402.487654 
L 557.66419 400.98981 
L 558.458182 398.788407 
L 558.722846 400.299592 
L 558.98751 400.689174 
L 559.252174 400.825261 
L 559.516838 400.344065 
L 559.781502 400.4677 
L 560.046166 400.228436 
L 560.31083 400.321829 
L 560.575494 398.863121 
L 560.840158 398.65232 
L 561.104822 400.625133 
L 561.63415 400.51662 
L 561.898814 399.712552 
L 562.163478 399.844191 
L 562.428142 399.799718 
L 562.95747 398.555369 
L 563.222134 399.091711 
L 563.751462 397.257653 
L 564.016126 397.453334 
L 564.280791 396.730206 
L 564.545455 399.580912 
L 564.810119 399.670747 
L 565.074783 399.330975 
L 565.339447 398.233386 
L 565.604111 398.618521 
L 565.868775 399.781929 
L 566.398103 399.313186 
L 566.662767 398.08129 
L 566.927431 399.61649 
L 567.192095 399.826402 
L 567.456759 399.657405 
L 567.721423 398.908483 
L 567.986087 399.312296 
L 568.250751 399.506198 
L 568.780079 398.245839 
L 569.044743 398.839106 
L 569.309407 399.994509 
L 569.574071 399.316744 
L 569.838735 399.3879 
L 570.103399 398.291201 
L 570.368063 398.034148 
L 570.632727 400.086123 
L 570.897391 400.164395 
L 571.426719 398.579385 
L 571.691383 399.524876 
L 571.956047 399.614711 
L 572.220711 399.456388 
L 572.485375 398.275191 
L 572.75004 399.072143 
L 573.014704 398.366805 
L 573.279368 396.46248 
L 573.808696 395.72601 
L 574.07336 396.46248 
L 574.338024 396.441133 
L 574.602688 395.903012 
L 574.867352 396.232111 
L 575.132016 396.369976 
L 575.39668 396.178743 
L 575.926008 394.544813 
L 576.190672 394.731599 
L 576.984664 393.527275 
L 577.249328 396.62614 
L 577.513992 397.685482 
L 577.778656 397.504922 
L 578.04332 395.183442 
L 578.307984 394.406947 
L 578.572648 395.550788 
L 579.36664 393.163488 
L 579.631304 393.47035 
L 579.895968 396.850283 
L 580.160632 396.336177 
L 580.425296 395.408475 
L 580.68996 393.761202 
L 580.954625 392.855736 
L 581.219289 392.993602 
L 581.748617 391.282289 
L 582.013281 393.390299 
L 582.542609 393.0781 
L 582.807273 391.887119 
L 583.336601 392.76857 
L 583.601265 392.024095 
L 583.865929 392.143282 
L 584.130593 391.430828 
L 584.395257 394.310886 
L 584.659921 393.53617 
L 584.924585 393.590427 
L 585.189249 392.649383 
L 585.453913 392.304274 
L 585.718577 393.057643 
L 585.983241 393.325369 
L 586.247905 393.347605 
L 586.512569 392.512406 
L 586.777233 393.561075 
L 587.041897 393.58598 
L 587.306561 393.170604 
L 587.571225 392.290932 
L 587.835889 393.261328 
L 588.100553 392.598684 
L 588.365217 392.741886 
L 588.629881 391.731464 
L 589.159209 393.58509 
L 589.423874 393.74875 
L 589.688538 393.675815 
L 589.953202 393.005165 
L 590.217866 394.116985 
L 590.48253 393.94443 
L 591.011858 391.371234 
L 591.276522 391.987627 
L 591.541186 393.657136 
L 591.80585 392.49017 
L 592.070514 392.181529 
L 592.335178 391.595377 
L 592.599842 392.11482 
L 592.864506 391.956496 
L 593.12917 391.50999 
L 593.393834 390.335908 
L 593.658498 389.676821 
L 593.923162 388.551659 
L 594.187826 388.291049 
L 594.45249 387.745812 
L 594.981818 389.312144 
L 595.246482 389.176947 
L 595.511146 389.36818 
L 595.77581 388.69842 
L 596.040474 389.345943 
L 596.305138 388.955472 
L 596.834466 387.527006 
L 597.363794 389.149374 
L 597.628458 388.742003 
L 598.157787 387.132977 
L 598.422451 388.728661 
L 598.687115 388.503629 
L 598.951779 388.663731 
L 599.216443 387.606168 
L 599.481107 387.852547 
L 599.745771 387.118746 
L 600.010435 387.284185 
L 600.275099 386.597525 
L 600.539763 386.962202 
L 600.804427 388.251913 
L 601.069091 388.516971 
L 601.598419 387.330436 
L 601.863083 388.374658 
L 602.127747 387.240601 
L 602.392411 387.185455 
L 602.657075 386.80121 
L 602.921739 387.180118 
L 603.186403 388.068685 
L 603.451067 389.899185 
L 603.715731 390.03883 
L 603.980395 389.453568 
L 604.245059 391.047473 
L 604.509723 391.156876 
L 604.774387 391.107066 
L 605.039051 389.860938 
L 605.303715 390.797535 
L 605.568379 390.933622 
L 605.833043 389.517608 
L 606.097708 389.031076 
L 606.362372 389.723962 
L 606.627036 389.965005 
L 606.8917 389.869833 
L 607.156364 389.578091 
L 607.421028 389.055091 
L 607.685692 390.535146 
L 607.950356 390.203379 
L 608.21502 390.225615 
L 608.479684 388.685967 
L 608.744348 388.294607 
L 609.009012 388.642384 
L 609.53834 387.859663 
L 609.803004 387.140982 
L 610.067668 387.785838 
L 610.332332 389.522056 
L 610.596996 390.238068 
L 610.86166 389.732857 
L 611.126324 390.015704 
L 611.390988 388.103374 
L 611.655652 387.50477 
L 612.18498 384.41569 
L 612.449644 385.627129 
L 612.714308 385.740089 
L 612.978972 385.468805 
L 613.243636 383.933605 
L 613.5083 384.373885 
L 613.772964 385.631576 
L 614.302292 384.02344 
L 614.566957 384.516198 
L 614.831621 386.368935 
L 615.360949 385.915312 
L 615.625613 384.87198 
L 615.890277 385.240215 
L 616.154941 385.328271 
L 616.419605 385.171727 
L 616.684269 383.604506 
L 617.213597 385.156606 
L 618.007589 383.784176 
L 618.272253 384.527761 
L 618.801581 383.999424 
L 619.066245 383.274518 
L 619.330909 384.1533 
L 619.330909 384.1533 
" style="fill:none;stroke:#1f77b4;stroke-linecap:square;stroke-width:1.5;"/>
   </g>
   <g id="patch_3">
    <path d="M 108 448.56 
L 108 60.48 
" style="fill:none;stroke:#000000;stroke-linecap:square;stroke-linejoin:miter;stroke-width:0.8;"/>
   </g>
   <g id="patch_4">
    <path d="M 643.68 448.56 
L 643.68 60.48 
" style="fill:none;stroke:#000000;stroke-linecap:square;stroke-linejoin:miter;stroke-width:0.8;"/>
   </g>
   <g id="patch_5">
    <path d="M 108 448.56 
L 643.68 448.56 
" style="fill:none;stroke:#000000;stroke-linecap:square;stroke-linejoin:miter;stroke-width:0.8;"/>
   </g>
   <g id="patch_6">
    <path d="M 108 60.48 
L 643.68 60.48 
" style="fill:none;stroke:#000000;stroke-linecap:square;stroke-linejoin:miter;stroke-width:0.8;"/>
   </g>
   <g id="text_33">
    <!-- unikernel_falloc - free -->
    <g transform="translate(295.036875 54.48)scale(0.15 -0.15)">
     <defs>
      <path d="M 8.5 21.578125 
L 8.5 54.6875 
L 17.484375 54.6875 
L 17.484375 21.921875 
Q 17.484375 14.15625 20.5 10.265625 
Q 23.53125 6.390625 29.59375 6.390625 
Q 36.859375 6.390625 41.078125 11.03125 
Q 45.3125 15.671875 45.3125 23.6875 
L 45.3125 54.6875 
L 54.296875 54.6875 
L 54.296875 0 
L 45.3125 0 
L 45.3125 8.40625 
Q 42.046875 3.421875 37.71875 1 
Q 33.40625 -1.421875 27.6875 -1.421875 
Q 18.265625 -1.421875 13.375 4.4375 
Q 8.5 10.296875 8.5 21.578125 
z
M 31.109375 56 
z
" id="DejaVuSans-117"/>
      <path d="M 54.890625 33.015625 
L 54.890625 0 
L 45.90625 0 
L 45.90625 32.71875 
Q 45.90625 40.484375 42.875 44.328125 
Q 39.84375 48.1875 33.796875 48.1875 
Q 26.515625 48.1875 22.3125 43.546875 
Q 18.109375 38.921875 18.109375 30.90625 
L 18.109375 0 
L 9.078125 0 
L 9.078125 54.6875 
L 18.109375 54.6875 
L 18.109375 46.1875 
Q 21.34375 51.125 25.703125 53.5625 
Q 30.078125 56 35.796875 56 
Q 45.21875 56 50.046875 50.171875 
Q 54.890625 44.34375 54.890625 33.015625 
z
" id="DejaVuSans-110"/>
      <path d="M 9.078125 75.984375 
L 18.109375 75.984375 
L 18.109375 31.109375 
L 44.921875 54.6875 
L 56.390625 54.6875 
L 27.390625 29.109375 
L 57.625 0 
L 45.90625 0 
L 18.109375 26.703125 
L 18.109375 0 
L 9.078125 0 
z
" id="DejaVuSans-107"/>
      <path d="M 41.109375 46.296875 
Q 39.59375 47.171875 37.8125 47.578125 
Q 36.03125 48 33.890625 48 
Q 26.265625 48 22.1875 43.046875 
Q 18.109375 38.09375 18.109375 28.8125 
L 18.109375 0 
L 9.078125 0 
L 9.078125 54.6875 
L 18.109375 54.6875 
L 18.109375 46.1875 
Q 20.953125 51.171875 25.484375 53.578125 
Q 30.03125 56 36.53125 56 
Q 37.453125 56 38.578125 55.875 
Q 39.703125 55.765625 41.0625 55.515625 
z
" id="DejaVuSans-114"/>
      <path d="M 9.421875 75.984375 
L 18.40625 75.984375 
L 18.40625 0 
L 9.421875 0 
z
" id="DejaVuSans-108"/>
      <path d="M 50.984375 -16.609375 
L 50.984375 -23.578125 
L -0.984375 -23.578125 
L -0.984375 -16.609375 
z
" id="DejaVuSans-95"/>
      <path d="M 37.109375 75.984375 
L 37.109375 68.5 
L 28.515625 68.5 
Q 23.6875 68.5 21.796875 66.546875 
Q 19.921875 64.59375 19.921875 59.515625 
L 19.921875 54.6875 
L 34.71875 54.6875 
L 34.71875 47.703125 
L 19.921875 47.703125 
L 19.921875 0 
L 10.890625 0 
L 10.890625 47.703125 
L 2.296875 47.703125 
L 2.296875 54.6875 
L 10.890625 54.6875 
L 10.890625 58.5 
Q 10.890625 67.625 15.140625 71.796875 
Q 19.390625 75.984375 28.609375 75.984375 
z
" id="DejaVuSans-102"/>
      <path d="M 30.609375 48.390625 
Q 23.390625 48.390625 19.1875 42.75 
Q 14.984375 37.109375 14.984375 27.296875 
Q 14.984375 17.484375 19.15625 11.84375 
Q 23.34375 6.203125 30.609375 6.203125 
Q 37.796875 6.203125 41.984375 11.859375 
Q 46.1875 17.53125 46.1875 27.296875 
Q 46.1875 37.015625 41.984375 42.703125 
Q 37.796875 48.390625 30.609375 48.390625 
z
M 30.609375 56 
Q 42.328125 56 49.015625 48.375 
Q 55.71875 40.765625 55.71875 27.296875 
Q 55.71875 13.875 49.015625 6.21875 
Q 42.328125 -1.421875 30.609375 -1.421875 
Q 18.84375 -1.421875 12.171875 6.21875 
Q 5.515625 13.875 5.515625 27.296875 
Q 5.515625 40.765625 12.171875 48.375 
Q 18.84375 56 30.609375 56 
z
" id="DejaVuSans-111"/>
      <path d="M 48.78125 52.59375 
L 48.78125 44.1875 
Q 44.96875 46.296875 41.140625 47.34375 
Q 37.3125 48.390625 33.40625 48.390625 
Q 24.65625 48.390625 19.8125 42.84375 
Q 14.984375 37.3125 14.984375 27.296875 
Q 14.984375 17.28125 19.8125 11.734375 
Q 24.65625 6.203125 33.40625 6.203125 
Q 37.3125 6.203125 41.140625 7.25 
Q 44.96875 8.296875 48.78125 10.40625 
L 48.78125 2.09375 
Q 45.015625 0.34375 40.984375 -0.53125 
Q 36.96875 -1.421875 32.421875 -1.421875 
Q 20.0625 -1.421875 12.78125 6.34375 
Q 5.515625 14.109375 5.515625 27.296875 
Q 5.515625 40.671875 12.859375 48.328125 
Q 20.21875 56 33.015625 56 
Q 37.15625 56 41.109375 55.140625 
Q 45.0625 54.296875 48.78125 52.59375 
z
" id="DejaVuSans-99"/>
      <path id="DejaVuSans-32"/>
      <path d="M 4.890625 31.390625 
L 31.203125 31.390625 
L 31.203125 23.390625 
L 4.890625 23.390625 
z
" id="DejaVuSans-45"/>
     </defs>
     <use xlink:href="#DejaVuSans-117"/>
     <use x="63.378906" xlink:href="#DejaVuSans-110"/>
     <use x="126.757812" xlink:href="#DejaVuSans-105"/>
     <use x="154.541016" xlink:href="#DejaVuSans-107"/>
     <use x="208.826172" xlink:href="#DejaVuSans-101"/>
     <use x="270.349609" xlink:href="#DejaVuSans-114"/>
     <use x="309.712891" xlink:href="#DejaVuSans-110"/>
     <use x="373.091797" xlink:href="#DejaVuSans-101"/>
     <use x="434.615234" xlink:href="#DejaVuSans-108"/>
     <use x="462.398438" xlink:href="#DejaVuSans-95"/>
     <use x="512.398438" xlink:href="#DejaVuSans-102"/>
     <use x="547.603516" xlink:href="#DejaVuSans-97"/>
     <use x="608.882812" xlink:href="#DejaVuSans-108"/>
     <use x="636.666016" xlink:href="#DejaVuSans-108"/>
     <use x="664.449219" xlink:href="#DejaVuSans-111"/>
     <use x="725.630859" xlink:href="#DejaVuSans-99"/>
     <use x="780.611328" xlink:href="#DejaVuSans-32"/>
     <use x="812.398438" xlink:href="#DejaVuSans-45"/>
     <use x="848.482422" xlink:href="#DejaVuSans-32"/>
     <use x="880.269531" xlink:href="#DejaVuSans-102"/>
     <use x="915.474609" xlink:href="#DejaVuSans-114"/>
     <use x="954.337891" xlink:href="#DejaVuSans-101"/>
     <use x="1015.861328" xlink:href="#DejaVuSans-101"/>
    </g>
   </g>
   <g id="legend_1">
    <g id="patch_7">
     <path d="M 650.68 258.52 
L 654.68 258.52 
Q 656.68 258.52 656.68 256.52 
L 656.68 252.52 
Q 656.68 250.52 654.68 250.52 
L 650.68 250.52 
Q 648.68 250.52 648.68 252.52 
L 648.68 256.52 
Q 648.68 258.52 650.68 258.52 
z
" style="fill:#ffffff;opacity:0.8;stroke:#cccccc;stroke-linejoin:miter;"/>
    </g>
   </g>
  </g>
 </g>
 <defs>
  <clipPath id="p65b31be7f9">
   <rect height="388.08" width="535.68" x="108" y="60.48"/>
  </clipPath>
 </defs>
</svg>
