<?xml version="1.0" encoding="utf-8" standalone="no"?>
<!DOCTYPE svg PUBLIC "-//W3C//DTD SVG 1.1//EN"
  "http://www.w3.org/Graphics/SVG/1.1/DTD/svg11.dtd">
<!-- Created with matplotlib (https://matplotlib.org/) -->
<svg height="504pt" version="1.1" viewBox="0 0 864 504" width="864pt" xmlns="http://www.w3.org/2000/svg" xmlns:xlink="http://www.w3.org/1999/xlink">
 <metadata>
  <rdf:RDF xmlns:cc="http://creativecommons.org/ns#" xmlns:dc="http://purl.org/dc/elements/1.1/" xmlns:rdf="http://www.w3.org/1999/02/22-rdf-syntax-ns#">
   <cc:Work>
    <dc:type rdf:resource="http://purl.org/dc/dcmitype/StillImage"/>
    <dc:date>2022-05-29T16:53:58.637900</dc:date>
    <dc:format>image/svg+xml</dc:format>
    <dc:creator>
     <cc:Agent>
      <dc:title>Matplotlib v3.3.4, https://matplotlib.org/</dc:title>
     </cc:Agent>
    </dc:creator>
   </cc:Work>
  </rdf:RDF>
 </metadata>
 <defs>
  <style type="text/css">*{stroke-linecap:butt;stroke-linejoin:round;}</style>
 </defs>
 <g id="figure_1">
  <g id="patch_1">
   <path d="M 0 504 
L 864 504 
L 864 0 
L 0 0 
z
" style="fill:#ffffff;"/>
  </g>
  <g id="axes_1">
   <g id="patch_2">
    <path d="M 108 448.56 
L 643.68 448.56 
L 643.68 60.48 
L 108 60.48 
z
" style="fill:#ffffff;"/>
   </g>
   <g id="matplotlib.axis_1">
    <g id="xtick_1">
     <g id="line2d_1">
      <defs>
       <path d="M 0 0 
L 0 3.5 
" id="m5dbe222d97" style="stroke:#000000;stroke-width:0.8;"/>
      </defs>
      <g>
       <use style="stroke:#000000;stroke-width:0.8;" x="132.349091" xlink:href="#m5dbe222d97" y="448.56"/>
      </g>
     </g>
     <g id="text_1">
      <!-- 17:55:13 -->
      <g transform="translate(135.108466 500.4725)rotate(-90)scale(0.1 -0.1)">
       <defs>
        <path d="M 12.40625 8.296875 
L 28.515625 8.296875 
L 28.515625 63.921875 
L 10.984375 60.40625 
L 10.984375 69.390625 
L 28.421875 72.90625 
L 38.28125 72.90625 
L 38.28125 8.296875 
L 54.390625 8.296875 
L 54.390625 0 
L 12.40625 0 
z
" id="DejaVuSans-49"/>
        <path d="M 8.203125 72.90625 
L 55.078125 72.90625 
L 55.078125 68.703125 
L 28.609375 0 
L 18.3125 0 
L 43.21875 64.59375 
L 8.203125 64.59375 
z
" id="DejaVuSans-55"/>
        <path d="M 11.71875 12.40625 
L 22.015625 12.40625 
L 22.015625 0 
L 11.71875 0 
z
M 11.71875 51.703125 
L 22.015625 51.703125 
L 22.015625 39.3125 
L 11.71875 39.3125 
z
" id="DejaVuSans-58"/>
        <path d="M 10.796875 72.90625 
L 49.515625 72.90625 
L 49.515625 64.59375 
L 19.828125 64.59375 
L 19.828125 46.734375 
Q 21.96875 47.46875 24.109375 47.828125 
Q 26.265625 48.1875 28.421875 48.1875 
Q 40.625 48.1875 47.75 41.5 
Q 54.890625 34.8125 54.890625 23.390625 
Q 54.890625 11.625 47.5625 5.09375 
Q 40.234375 -1.421875 26.90625 -1.421875 
Q 22.3125 -1.421875 17.546875 -0.640625 
Q 12.796875 0.140625 7.71875 1.703125 
L 7.71875 11.625 
Q 12.109375 9.234375 16.796875 8.0625 
Q 21.484375 6.890625 26.703125 6.890625 
Q 35.15625 6.890625 40.078125 11.328125 
Q 45.015625 15.765625 45.015625 23.390625 
Q 45.015625 31 40.078125 35.4375 
Q 35.15625 39.890625 26.703125 39.890625 
Q 22.75 39.890625 18.8125 39.015625 
Q 14.890625 38.140625 10.796875 36.28125 
z
" id="DejaVuSans-53"/>
        <path d="M 40.578125 39.3125 
Q 47.65625 37.796875 51.625 33 
Q 55.609375 28.21875 55.609375 21.1875 
Q 55.609375 10.40625 48.1875 4.484375 
Q 40.765625 -1.421875 27.09375 -1.421875 
Q 22.515625 -1.421875 17.65625 -0.515625 
Q 12.796875 0.390625 7.625 2.203125 
L 7.625 11.71875 
Q 11.71875 9.328125 16.59375 8.109375 
Q 21.484375 6.890625 26.8125 6.890625 
Q 36.078125 6.890625 40.9375 10.546875 
Q 45.796875 14.203125 45.796875 21.1875 
Q 45.796875 27.640625 41.28125 31.265625 
Q 36.765625 34.90625 28.71875 34.90625 
L 20.21875 34.90625 
L 20.21875 43.015625 
L 29.109375 43.015625 
Q 36.375 43.015625 40.234375 45.921875 
Q 44.09375 48.828125 44.09375 54.296875 
Q 44.09375 59.90625 40.109375 62.90625 
Q 36.140625 65.921875 28.71875 65.921875 
Q 24.65625 65.921875 20.015625 65.03125 
Q 15.375 64.15625 9.8125 62.3125 
L 9.8125 71.09375 
Q 15.4375 72.65625 20.34375 73.4375 
Q 25.25 74.21875 29.59375 74.21875 
Q 40.828125 74.21875 47.359375 69.109375 
Q 53.90625 64.015625 53.90625 55.328125 
Q 53.90625 49.265625 50.4375 45.09375 
Q 46.96875 40.921875 40.578125 39.3125 
z
" id="DejaVuSans-51"/>
       </defs>
       <use xlink:href="#DejaVuSans-49"/>
       <use x="63.623047" xlink:href="#DejaVuSans-55"/>
       <use x="127.246094" xlink:href="#DejaVuSans-58"/>
       <use x="160.9375" xlink:href="#DejaVuSans-53"/>
       <use x="224.560547" xlink:href="#DejaVuSans-53"/>
       <use x="288.183594" xlink:href="#DejaVuSans-58"/>
       <use x="321.875" xlink:href="#DejaVuSans-49"/>
       <use x="385.498047" xlink:href="#DejaVuSans-51"/>
      </g>
     </g>
    </g>
    <g id="xtick_2">
     <g id="line2d_2">
      <g>
       <use style="stroke:#000000;stroke-width:0.8;" x="156.527357" xlink:href="#m5dbe222d97" y="448.56"/>
      </g>
     </g>
     <g id="text_2">
      <!-- 17:57:03 -->
      <g transform="translate(159.286732 500.4725)rotate(-90)scale(0.1 -0.1)">
       <defs>
        <path d="M 31.78125 66.40625 
Q 24.171875 66.40625 20.328125 58.90625 
Q 16.5 51.421875 16.5 36.375 
Q 16.5 21.390625 20.328125 13.890625 
Q 24.171875 6.390625 31.78125 6.390625 
Q 39.453125 6.390625 43.28125 13.890625 
Q 47.125 21.390625 47.125 36.375 
Q 47.125 51.421875 43.28125 58.90625 
Q 39.453125 66.40625 31.78125 66.40625 
z
M 31.78125 74.21875 
Q 44.046875 74.21875 50.515625 64.515625 
Q 56.984375 54.828125 56.984375 36.375 
Q 56.984375 17.96875 50.515625 8.265625 
Q 44.046875 -1.421875 31.78125 -1.421875 
Q 19.53125 -1.421875 13.0625 8.265625 
Q 6.59375 17.96875 6.59375 36.375 
Q 6.59375 54.828125 13.0625 64.515625 
Q 19.53125 74.21875 31.78125 74.21875 
z
" id="DejaVuSans-48"/>
       </defs>
       <use xlink:href="#DejaVuSans-49"/>
       <use x="63.623047" xlink:href="#DejaVuSans-55"/>
       <use x="127.246094" xlink:href="#DejaVuSans-58"/>
       <use x="160.9375" xlink:href="#DejaVuSans-53"/>
       <use x="224.560547" xlink:href="#DejaVuSans-55"/>
       <use x="288.183594" xlink:href="#DejaVuSans-58"/>
       <use x="321.875" xlink:href="#DejaVuSans-48"/>
       <use x="385.498047" xlink:href="#DejaVuSans-51"/>
      </g>
     </g>
    </g>
    <g id="xtick_3">
     <g id="line2d_3">
      <g>
       <use style="stroke:#000000;stroke-width:0.8;" x="180.705623" xlink:href="#m5dbe222d97" y="448.56"/>
      </g>
     </g>
     <g id="text_3">
      <!-- 17:58:54 -->
      <g transform="translate(183.464998 500.4725)rotate(-90)scale(0.1 -0.1)">
       <defs>
        <path d="M 31.78125 34.625 
Q 24.75 34.625 20.71875 30.859375 
Q 16.703125 27.09375 16.703125 20.515625 
Q 16.703125 13.921875 20.71875 10.15625 
Q 24.75 6.390625 31.78125 6.390625 
Q 38.8125 6.390625 42.859375 10.171875 
Q 46.921875 13.96875 46.921875 20.515625 
Q 46.921875 27.09375 42.890625 30.859375 
Q 38.875 34.625 31.78125 34.625 
z
M 21.921875 38.8125 
Q 15.578125 40.375 12.03125 44.71875 
Q 8.5 49.078125 8.5 55.328125 
Q 8.5 64.0625 14.71875 69.140625 
Q 20.953125 74.21875 31.78125 74.21875 
Q 42.671875 74.21875 48.875 69.140625 
Q 55.078125 64.0625 55.078125 55.328125 
Q 55.078125 49.078125 51.53125 44.71875 
Q 48 40.375 41.703125 38.8125 
Q 48.828125 37.15625 52.796875 32.3125 
Q 56.78125 27.484375 56.78125 20.515625 
Q 56.78125 9.90625 50.3125 4.234375 
Q 43.84375 -1.421875 31.78125 -1.421875 
Q 19.734375 -1.421875 13.25 4.234375 
Q 6.78125 9.90625 6.78125 20.515625 
Q 6.78125 27.484375 10.78125 32.3125 
Q 14.796875 37.15625 21.921875 38.8125 
z
M 18.3125 54.390625 
Q 18.3125 48.734375 21.84375 45.5625 
Q 25.390625 42.390625 31.78125 42.390625 
Q 38.140625 42.390625 41.71875 45.5625 
Q 45.3125 48.734375 45.3125 54.390625 
Q 45.3125 60.0625 41.71875 63.234375 
Q 38.140625 66.40625 31.78125 66.40625 
Q 25.390625 66.40625 21.84375 63.234375 
Q 18.3125 60.0625 18.3125 54.390625 
z
" id="DejaVuSans-56"/>
        <path d="M 37.796875 64.3125 
L 12.890625 25.390625 
L 37.796875 25.390625 
z
M 35.203125 72.90625 
L 47.609375 72.90625 
L 47.609375 25.390625 
L 58.015625 25.390625 
L 58.015625 17.1875 
L 47.609375 17.1875 
L 47.609375 0 
L 37.796875 0 
L 37.796875 17.1875 
L 4.890625 17.1875 
L 4.890625 26.703125 
z
" id="DejaVuSans-52"/>
       </defs>
       <use xlink:href="#DejaVuSans-49"/>
       <use x="63.623047" xlink:href="#DejaVuSans-55"/>
       <use x="127.246094" xlink:href="#DejaVuSans-58"/>
       <use x="160.9375" xlink:href="#DejaVuSans-53"/>
       <use x="224.560547" xlink:href="#DejaVuSans-56"/>
       <use x="288.183594" xlink:href="#DejaVuSans-58"/>
       <use x="321.875" xlink:href="#DejaVuSans-53"/>
       <use x="385.498047" xlink:href="#DejaVuSans-52"/>
      </g>
     </g>
    </g>
    <g id="xtick_4">
     <g id="line2d_4">
      <g>
       <use style="stroke:#000000;stroke-width:0.8;" x="204.88389" xlink:href="#m5dbe222d97" y="448.56"/>
      </g>
     </g>
     <g id="text_4">
      <!-- 18:00:44 -->
      <g transform="translate(207.643265 500.4725)rotate(-90)scale(0.1 -0.1)">
       <use xlink:href="#DejaVuSans-49"/>
       <use x="63.623047" xlink:href="#DejaVuSans-56"/>
       <use x="127.246094" xlink:href="#DejaVuSans-58"/>
       <use x="160.9375" xlink:href="#DejaVuSans-48"/>
       <use x="224.560547" xlink:href="#DejaVuSans-48"/>
       <use x="288.183594" xlink:href="#DejaVuSans-58"/>
       <use x="321.875" xlink:href="#DejaVuSans-52"/>
       <use x="385.498047" xlink:href="#DejaVuSans-52"/>
      </g>
     </g>
    </g>
    <g id="xtick_5">
     <g id="line2d_5">
      <g>
       <use style="stroke:#000000;stroke-width:0.8;" x="229.062156" xlink:href="#m5dbe222d97" y="448.56"/>
      </g>
     </g>
     <g id="text_5">
      <!-- 18:02:34 -->
      <g transform="translate(231.821531 500.4725)rotate(-90)scale(0.1 -0.1)">
       <defs>
        <path d="M 19.1875 8.296875 
L 53.609375 8.296875 
L 53.609375 0 
L 7.328125 0 
L 7.328125 8.296875 
Q 12.9375 14.109375 22.625 23.890625 
Q 32.328125 33.6875 34.8125 36.53125 
Q 39.546875 41.84375 41.421875 45.53125 
Q 43.3125 49.21875 43.3125 52.78125 
Q 43.3125 58.59375 39.234375 62.25 
Q 35.15625 65.921875 28.609375 65.921875 
Q 23.96875 65.921875 18.8125 64.3125 
Q 13.671875 62.703125 7.8125 59.421875 
L 7.8125 69.390625 
Q 13.765625 71.78125 18.9375 73 
Q 24.125 74.21875 28.421875 74.21875 
Q 39.75 74.21875 46.484375 68.546875 
Q 53.21875 62.890625 53.21875 53.421875 
Q 53.21875 48.921875 51.53125 44.890625 
Q 49.859375 40.875 45.40625 35.40625 
Q 44.1875 33.984375 37.640625 27.21875 
Q 31.109375 20.453125 19.1875 8.296875 
z
" id="DejaVuSans-50"/>
       </defs>
       <use xlink:href="#DejaVuSans-49"/>
       <use x="63.623047" xlink:href="#DejaVuSans-56"/>
       <use x="127.246094" xlink:href="#DejaVuSans-58"/>
       <use x="160.9375" xlink:href="#DejaVuSans-48"/>
       <use x="224.560547" xlink:href="#DejaVuSans-50"/>
       <use x="288.183594" xlink:href="#DejaVuSans-58"/>
       <use x="321.875" xlink:href="#DejaVuSans-51"/>
       <use x="385.498047" xlink:href="#DejaVuSans-52"/>
      </g>
     </g>
    </g>
    <g id="xtick_6">
     <g id="line2d_6">
      <g>
       <use style="stroke:#000000;stroke-width:0.8;" x="253.240422" xlink:href="#m5dbe222d97" y="448.56"/>
      </g>
     </g>
     <g id="text_6">
      <!-- 18:04:24 -->
      <g transform="translate(255.999797 500.4725)rotate(-90)scale(0.1 -0.1)">
       <use xlink:href="#DejaVuSans-49"/>
       <use x="63.623047" xlink:href="#DejaVuSans-56"/>
       <use x="127.246094" xlink:href="#DejaVuSans-58"/>
       <use x="160.9375" xlink:href="#DejaVuSans-48"/>
       <use x="224.560547" xlink:href="#DejaVuSans-52"/>
       <use x="288.183594" xlink:href="#DejaVuSans-58"/>
       <use x="321.875" xlink:href="#DejaVuSans-50"/>
       <use x="385.498047" xlink:href="#DejaVuSans-52"/>
      </g>
     </g>
    </g>
    <g id="xtick_7">
     <g id="line2d_7">
      <g>
       <use style="stroke:#000000;stroke-width:0.8;" x="277.418688" xlink:href="#m5dbe222d97" y="448.56"/>
      </g>
     </g>
     <g id="text_7">
      <!-- 18:06:15 -->
      <g transform="translate(280.178063 500.4725)rotate(-90)scale(0.1 -0.1)">
       <defs>
        <path d="M 33.015625 40.375 
Q 26.375 40.375 22.484375 35.828125 
Q 18.609375 31.296875 18.609375 23.390625 
Q 18.609375 15.53125 22.484375 10.953125 
Q 26.375 6.390625 33.015625 6.390625 
Q 39.65625 6.390625 43.53125 10.953125 
Q 47.40625 15.53125 47.40625 23.390625 
Q 47.40625 31.296875 43.53125 35.828125 
Q 39.65625 40.375 33.015625 40.375 
z
M 52.59375 71.296875 
L 52.59375 62.3125 
Q 48.875 64.0625 45.09375 64.984375 
Q 41.3125 65.921875 37.59375 65.921875 
Q 27.828125 65.921875 22.671875 59.328125 
Q 17.53125 52.734375 16.796875 39.40625 
Q 19.671875 43.65625 24.015625 45.921875 
Q 28.375 48.1875 33.59375 48.1875 
Q 44.578125 48.1875 50.953125 41.515625 
Q 57.328125 34.859375 57.328125 23.390625 
Q 57.328125 12.15625 50.6875 5.359375 
Q 44.046875 -1.421875 33.015625 -1.421875 
Q 20.359375 -1.421875 13.671875 8.265625 
Q 6.984375 17.96875 6.984375 36.375 
Q 6.984375 53.65625 15.1875 63.9375 
Q 23.390625 74.21875 37.203125 74.21875 
Q 40.921875 74.21875 44.703125 73.484375 
Q 48.484375 72.75 52.59375 71.296875 
z
" id="DejaVuSans-54"/>
       </defs>
       <use xlink:href="#DejaVuSans-49"/>
       <use x="63.623047" xlink:href="#DejaVuSans-56"/>
       <use x="127.246094" xlink:href="#DejaVuSans-58"/>
       <use x="160.9375" xlink:href="#DejaVuSans-48"/>
       <use x="224.560547" xlink:href="#DejaVuSans-54"/>
       <use x="288.183594" xlink:href="#DejaVuSans-58"/>
       <use x="321.875" xlink:href="#DejaVuSans-49"/>
       <use x="385.498047" xlink:href="#DejaVuSans-53"/>
      </g>
     </g>
    </g>
    <g id="xtick_8">
     <g id="line2d_8">
      <g>
       <use style="stroke:#000000;stroke-width:0.8;" x="301.596954" xlink:href="#m5dbe222d97" y="448.56"/>
      </g>
     </g>
     <g id="text_8">
      <!-- 18:08:05 -->
      <g transform="translate(304.356329 500.4725)rotate(-90)scale(0.1 -0.1)">
       <use xlink:href="#DejaVuSans-49"/>
       <use x="63.623047" xlink:href="#DejaVuSans-56"/>
       <use x="127.246094" xlink:href="#DejaVuSans-58"/>
       <use x="160.9375" xlink:href="#DejaVuSans-48"/>
       <use x="224.560547" xlink:href="#DejaVuSans-56"/>
       <use x="288.183594" xlink:href="#DejaVuSans-58"/>
       <use x="321.875" xlink:href="#DejaVuSans-48"/>
       <use x="385.498047" xlink:href="#DejaVuSans-53"/>
      </g>
     </g>
    </g>
    <g id="xtick_9">
     <g id="line2d_9">
      <g>
       <use style="stroke:#000000;stroke-width:0.8;" x="325.775221" xlink:href="#m5dbe222d97" y="448.56"/>
      </g>
     </g>
     <g id="text_9">
      <!-- 18:09:56 -->
      <g transform="translate(328.534596 500.4725)rotate(-90)scale(0.1 -0.1)">
       <defs>
        <path d="M 10.984375 1.515625 
L 10.984375 10.5 
Q 14.703125 8.734375 18.5 7.8125 
Q 22.3125 6.890625 25.984375 6.890625 
Q 35.75 6.890625 40.890625 13.453125 
Q 46.046875 20.015625 46.78125 33.40625 
Q 43.953125 29.203125 39.59375 26.953125 
Q 35.25 24.703125 29.984375 24.703125 
Q 19.046875 24.703125 12.671875 31.3125 
Q 6.296875 37.9375 6.296875 49.421875 
Q 6.296875 60.640625 12.9375 67.421875 
Q 19.578125 74.21875 30.609375 74.21875 
Q 43.265625 74.21875 49.921875 64.515625 
Q 56.59375 54.828125 56.59375 36.375 
Q 56.59375 19.140625 48.40625 8.859375 
Q 40.234375 -1.421875 26.421875 -1.421875 
Q 22.703125 -1.421875 18.890625 -0.6875 
Q 15.09375 0.046875 10.984375 1.515625 
z
M 30.609375 32.421875 
Q 37.25 32.421875 41.125 36.953125 
Q 45.015625 41.5 45.015625 49.421875 
Q 45.015625 57.28125 41.125 61.84375 
Q 37.25 66.40625 30.609375 66.40625 
Q 23.96875 66.40625 20.09375 61.84375 
Q 16.21875 57.28125 16.21875 49.421875 
Q 16.21875 41.5 20.09375 36.953125 
Q 23.96875 32.421875 30.609375 32.421875 
z
" id="DejaVuSans-57"/>
       </defs>
       <use xlink:href="#DejaVuSans-49"/>
       <use x="63.623047" xlink:href="#DejaVuSans-56"/>
       <use x="127.246094" xlink:href="#DejaVuSans-58"/>
       <use x="160.9375" xlink:href="#DejaVuSans-48"/>
       <use x="224.560547" xlink:href="#DejaVuSans-57"/>
       <use x="288.183594" xlink:href="#DejaVuSans-58"/>
       <use x="321.875" xlink:href="#DejaVuSans-53"/>
       <use x="385.498047" xlink:href="#DejaVuSans-54"/>
      </g>
     </g>
    </g>
    <g id="xtick_10">
     <g id="line2d_10">
      <g>
       <use style="stroke:#000000;stroke-width:0.8;" x="349.953487" xlink:href="#m5dbe222d97" y="448.56"/>
      </g>
     </g>
     <g id="text_10">
      <!-- 18:11:47 -->
      <g transform="translate(352.712862 500.4725)rotate(-90)scale(0.1 -0.1)">
       <use xlink:href="#DejaVuSans-49"/>
       <use x="63.623047" xlink:href="#DejaVuSans-56"/>
       <use x="127.246094" xlink:href="#DejaVuSans-58"/>
       <use x="160.9375" xlink:href="#DejaVuSans-49"/>
       <use x="224.560547" xlink:href="#DejaVuSans-49"/>
       <use x="288.183594" xlink:href="#DejaVuSans-58"/>
       <use x="321.875" xlink:href="#DejaVuSans-52"/>
       <use x="385.498047" xlink:href="#DejaVuSans-55"/>
      </g>
     </g>
    </g>
    <g id="xtick_11">
     <g id="line2d_11">
      <g>
       <use style="stroke:#000000;stroke-width:0.8;" x="374.131753" xlink:href="#m5dbe222d97" y="448.56"/>
      </g>
     </g>
     <g id="text_11">
      <!-- 18:13:38 -->
      <g transform="translate(376.891128 500.4725)rotate(-90)scale(0.1 -0.1)">
       <use xlink:href="#DejaVuSans-49"/>
       <use x="63.623047" xlink:href="#DejaVuSans-56"/>
       <use x="127.246094" xlink:href="#DejaVuSans-58"/>
       <use x="160.9375" xlink:href="#DejaVuSans-49"/>
       <use x="224.560547" xlink:href="#DejaVuSans-51"/>
       <use x="288.183594" xlink:href="#DejaVuSans-58"/>
       <use x="321.875" xlink:href="#DejaVuSans-51"/>
       <use x="385.498047" xlink:href="#DejaVuSans-56"/>
      </g>
     </g>
    </g>
    <g id="xtick_12">
     <g id="line2d_12">
      <g>
       <use style="stroke:#000000;stroke-width:0.8;" x="398.310019" xlink:href="#m5dbe222d97" y="448.56"/>
      </g>
     </g>
     <g id="text_12">
      <!-- 18:15:29 -->
      <g transform="translate(401.069394 500.4725)rotate(-90)scale(0.1 -0.1)">
       <use xlink:href="#DejaVuSans-49"/>
       <use x="63.623047" xlink:href="#DejaVuSans-56"/>
       <use x="127.246094" xlink:href="#DejaVuSans-58"/>
       <use x="160.9375" xlink:href="#DejaVuSans-49"/>
       <use x="224.560547" xlink:href="#DejaVuSans-53"/>
       <use x="288.183594" xlink:href="#DejaVuSans-58"/>
       <use x="321.875" xlink:href="#DejaVuSans-50"/>
       <use x="385.498047" xlink:href="#DejaVuSans-57"/>
      </g>
     </g>
    </g>
    <g id="xtick_13">
     <g id="line2d_13">
      <g>
       <use style="stroke:#000000;stroke-width:0.8;" x="422.488285" xlink:href="#m5dbe222d97" y="448.56"/>
      </g>
     </g>
     <g id="text_13">
      <!-- 18:17:20 -->
      <g transform="translate(425.24766 500.4725)rotate(-90)scale(0.1 -0.1)">
       <use xlink:href="#DejaVuSans-49"/>
       <use x="63.623047" xlink:href="#DejaVuSans-56"/>
       <use x="127.246094" xlink:href="#DejaVuSans-58"/>
       <use x="160.9375" xlink:href="#DejaVuSans-49"/>
       <use x="224.560547" xlink:href="#DejaVuSans-55"/>
       <use x="288.183594" xlink:href="#DejaVuSans-58"/>
       <use x="321.875" xlink:href="#DejaVuSans-50"/>
       <use x="385.498047" xlink:href="#DejaVuSans-48"/>
      </g>
     </g>
    </g>
    <g id="xtick_14">
     <g id="line2d_14">
      <g>
       <use style="stroke:#000000;stroke-width:0.8;" x="446.666552" xlink:href="#m5dbe222d97" y="448.56"/>
      </g>
     </g>
     <g id="text_14">
      <!-- 18:19:10 -->
      <g transform="translate(449.425927 500.4725)rotate(-90)scale(0.1 -0.1)">
       <use xlink:href="#DejaVuSans-49"/>
       <use x="63.623047" xlink:href="#DejaVuSans-56"/>
       <use x="127.246094" xlink:href="#DejaVuSans-58"/>
       <use x="160.9375" xlink:href="#DejaVuSans-49"/>
       <use x="224.560547" xlink:href="#DejaVuSans-57"/>
       <use x="288.183594" xlink:href="#DejaVuSans-58"/>
       <use x="321.875" xlink:href="#DejaVuSans-49"/>
       <use x="385.498047" xlink:href="#DejaVuSans-48"/>
      </g>
     </g>
    </g>
    <g id="xtick_15">
     <g id="line2d_15">
      <g>
       <use style="stroke:#000000;stroke-width:0.8;" x="470.844818" xlink:href="#m5dbe222d97" y="448.56"/>
      </g>
     </g>
     <g id="text_15">
      <!-- 18:21:01 -->
      <g transform="translate(473.604193 500.4725)rotate(-90)scale(0.1 -0.1)">
       <use xlink:href="#DejaVuSans-49"/>
       <use x="63.623047" xlink:href="#DejaVuSans-56"/>
       <use x="127.246094" xlink:href="#DejaVuSans-58"/>
       <use x="160.9375" xlink:href="#DejaVuSans-50"/>
       <use x="224.560547" xlink:href="#DejaVuSans-49"/>
       <use x="288.183594" xlink:href="#DejaVuSans-58"/>
       <use x="321.875" xlink:href="#DejaVuSans-48"/>
       <use x="385.498047" xlink:href="#DejaVuSans-49"/>
      </g>
     </g>
    </g>
    <g id="xtick_16">
     <g id="line2d_16">
      <g>
       <use style="stroke:#000000;stroke-width:0.8;" x="495.023084" xlink:href="#m5dbe222d97" y="448.56"/>
      </g>
     </g>
     <g id="text_16">
      <!-- 18:22:51 -->
      <g transform="translate(497.782459 500.4725)rotate(-90)scale(0.1 -0.1)">
       <use xlink:href="#DejaVuSans-49"/>
       <use x="63.623047" xlink:href="#DejaVuSans-56"/>
       <use x="127.246094" xlink:href="#DejaVuSans-58"/>
       <use x="160.9375" xlink:href="#DejaVuSans-50"/>
       <use x="224.560547" xlink:href="#DejaVuSans-50"/>
       <use x="288.183594" xlink:href="#DejaVuSans-58"/>
       <use x="321.875" xlink:href="#DejaVuSans-53"/>
       <use x="385.498047" xlink:href="#DejaVuSans-49"/>
      </g>
     </g>
    </g>
    <g id="xtick_17">
     <g id="line2d_17">
      <g>
       <use style="stroke:#000000;stroke-width:0.8;" x="519.20135" xlink:href="#m5dbe222d97" y="448.56"/>
      </g>
     </g>
     <g id="text_17">
      <!-- 18:24:41 -->
      <g transform="translate(521.960725 500.4725)rotate(-90)scale(0.1 -0.1)">
       <use xlink:href="#DejaVuSans-49"/>
       <use x="63.623047" xlink:href="#DejaVuSans-56"/>
       <use x="127.246094" xlink:href="#DejaVuSans-58"/>
       <use x="160.9375" xlink:href="#DejaVuSans-50"/>
       <use x="224.560547" xlink:href="#DejaVuSans-52"/>
       <use x="288.183594" xlink:href="#DejaVuSans-58"/>
       <use x="321.875" xlink:href="#DejaVuSans-52"/>
       <use x="385.498047" xlink:href="#DejaVuSans-49"/>
      </g>
     </g>
    </g>
    <g id="xtick_18">
     <g id="line2d_18">
      <g>
       <use style="stroke:#000000;stroke-width:0.8;" x="543.379616" xlink:href="#m5dbe222d97" y="448.56"/>
      </g>
     </g>
     <g id="text_18">
      <!-- 18:26:32 -->
      <g transform="translate(546.138991 500.4725)rotate(-90)scale(0.1 -0.1)">
       <use xlink:href="#DejaVuSans-49"/>
       <use x="63.623047" xlink:href="#DejaVuSans-56"/>
       <use x="127.246094" xlink:href="#DejaVuSans-58"/>
       <use x="160.9375" xlink:href="#DejaVuSans-50"/>
       <use x="224.560547" xlink:href="#DejaVuSans-54"/>
       <use x="288.183594" xlink:href="#DejaVuSans-58"/>
       <use x="321.875" xlink:href="#DejaVuSans-51"/>
       <use x="385.498047" xlink:href="#DejaVuSans-50"/>
      </g>
     </g>
    </g>
    <g id="xtick_19">
     <g id="line2d_19">
      <g>
       <use style="stroke:#000000;stroke-width:0.8;" x="567.557883" xlink:href="#m5dbe222d97" y="448.56"/>
      </g>
     </g>
     <g id="text_19">
      <!-- 18:28:22 -->
      <g transform="translate(570.317258 500.4725)rotate(-90)scale(0.1 -0.1)">
       <use xlink:href="#DejaVuSans-49"/>
       <use x="63.623047" xlink:href="#DejaVuSans-56"/>
       <use x="127.246094" xlink:href="#DejaVuSans-58"/>
       <use x="160.9375" xlink:href="#DejaVuSans-50"/>
       <use x="224.560547" xlink:href="#DejaVuSans-56"/>
       <use x="288.183594" xlink:href="#DejaVuSans-58"/>
       <use x="321.875" xlink:href="#DejaVuSans-50"/>
       <use x="385.498047" xlink:href="#DejaVuSans-50"/>
      </g>
     </g>
    </g>
    <g id="xtick_20">
     <g id="line2d_20">
      <g>
       <use style="stroke:#000000;stroke-width:0.8;" x="591.736149" xlink:href="#m5dbe222d97" y="448.56"/>
      </g>
     </g>
     <g id="text_20">
      <!-- 18:30:12 -->
      <g transform="translate(594.495524 500.4725)rotate(-90)scale(0.1 -0.1)">
       <use xlink:href="#DejaVuSans-49"/>
       <use x="63.623047" xlink:href="#DejaVuSans-56"/>
       <use x="127.246094" xlink:href="#DejaVuSans-58"/>
       <use x="160.9375" xlink:href="#DejaVuSans-51"/>
       <use x="224.560547" xlink:href="#DejaVuSans-48"/>
       <use x="288.183594" xlink:href="#DejaVuSans-58"/>
       <use x="321.875" xlink:href="#DejaVuSans-49"/>
       <use x="385.498047" xlink:href="#DejaVuSans-50"/>
      </g>
     </g>
    </g>
    <g id="xtick_21">
     <g id="line2d_21">
      <g>
       <use style="stroke:#000000;stroke-width:0.8;" x="615.914415" xlink:href="#m5dbe222d97" y="448.56"/>
      </g>
     </g>
     <g id="text_21">
      <!-- 18:32:02 -->
      <g transform="translate(618.67379 500.4725)rotate(-90)scale(0.1 -0.1)">
       <use xlink:href="#DejaVuSans-49"/>
       <use x="63.623047" xlink:href="#DejaVuSans-56"/>
       <use x="127.246094" xlink:href="#DejaVuSans-58"/>
       <use x="160.9375" xlink:href="#DejaVuSans-51"/>
       <use x="224.560547" xlink:href="#DejaVuSans-50"/>
       <use x="288.183594" xlink:href="#DejaVuSans-58"/>
       <use x="321.875" xlink:href="#DejaVuSans-48"/>
       <use x="385.498047" xlink:href="#DejaVuSans-50"/>
      </g>
     </g>
    </g>
    <g id="text_22">
     <!-- timestamp -->
     <g transform="translate(354.264375 510.55125)scale(0.08 -0.08)">
      <defs>
       <path d="M 18.3125 70.21875 
L 18.3125 54.6875 
L 36.8125 54.6875 
L 36.8125 47.703125 
L 18.3125 47.703125 
L 18.3125 18.015625 
Q 18.3125 11.328125 20.140625 9.421875 
Q 21.96875 7.515625 27.59375 7.515625 
L 36.8125 7.515625 
L 36.8125 0 
L 27.59375 0 
Q 17.1875 0 13.234375 3.875 
Q 9.28125 7.765625 9.28125 18.015625 
L 9.28125 47.703125 
L 2.6875 47.703125 
L 2.6875 54.6875 
L 9.28125 54.6875 
L 9.28125 70.21875 
z
" id="DejaVuSans-116"/>
       <path d="M 9.421875 54.6875 
L 18.40625 54.6875 
L 18.40625 0 
L 9.421875 0 
z
M 9.421875 75.984375 
L 18.40625 75.984375 
L 18.40625 64.59375 
L 9.421875 64.59375 
z
" id="DejaVuSans-105"/>
       <path d="M 52 44.1875 
Q 55.375 50.25 60.0625 53.125 
Q 64.75 56 71.09375 56 
Q 79.640625 56 84.28125 50.015625 
Q 88.921875 44.046875 88.921875 33.015625 
L 88.921875 0 
L 79.890625 0 
L 79.890625 32.71875 
Q 79.890625 40.578125 77.09375 44.375 
Q 74.3125 48.1875 68.609375 48.1875 
Q 61.625 48.1875 57.5625 43.546875 
Q 53.515625 38.921875 53.515625 30.90625 
L 53.515625 0 
L 44.484375 0 
L 44.484375 32.71875 
Q 44.484375 40.625 41.703125 44.40625 
Q 38.921875 48.1875 33.109375 48.1875 
Q 26.21875 48.1875 22.15625 43.53125 
Q 18.109375 38.875 18.109375 30.90625 
L 18.109375 0 
L 9.078125 0 
L 9.078125 54.6875 
L 18.109375 54.6875 
L 18.109375 46.1875 
Q 21.1875 51.21875 25.484375 53.609375 
Q 29.78125 56 35.6875 56 
Q 41.65625 56 45.828125 52.96875 
Q 50 49.953125 52 44.1875 
z
" id="DejaVuSans-109"/>
       <path d="M 56.203125 29.59375 
L 56.203125 25.203125 
L 14.890625 25.203125 
Q 15.484375 15.921875 20.484375 11.0625 
Q 25.484375 6.203125 34.421875 6.203125 
Q 39.59375 6.203125 44.453125 7.46875 
Q 49.3125 8.734375 54.109375 11.28125 
L 54.109375 2.78125 
Q 49.265625 0.734375 44.1875 -0.34375 
Q 39.109375 -1.421875 33.890625 -1.421875 
Q 20.796875 -1.421875 13.15625 6.1875 
Q 5.515625 13.8125 5.515625 26.8125 
Q 5.515625 40.234375 12.765625 48.109375 
Q 20.015625 56 32.328125 56 
Q 43.359375 56 49.78125 48.890625 
Q 56.203125 41.796875 56.203125 29.59375 
z
M 47.21875 32.234375 
Q 47.125 39.59375 43.09375 43.984375 
Q 39.0625 48.390625 32.421875 48.390625 
Q 24.90625 48.390625 20.390625 44.140625 
Q 15.875 39.890625 15.1875 32.171875 
z
" id="DejaVuSans-101"/>
       <path d="M 44.28125 53.078125 
L 44.28125 44.578125 
Q 40.484375 46.53125 36.375 47.5 
Q 32.28125 48.484375 27.875 48.484375 
Q 21.1875 48.484375 17.84375 46.4375 
Q 14.5 44.390625 14.5 40.28125 
Q 14.5 37.15625 16.890625 35.375 
Q 19.28125 33.59375 26.515625 31.984375 
L 29.59375 31.296875 
Q 39.15625 29.25 43.1875 25.515625 
Q 47.21875 21.78125 47.21875 15.09375 
Q 47.21875 7.46875 41.1875 3.015625 
Q 35.15625 -1.421875 24.609375 -1.421875 
Q 20.21875 -1.421875 15.453125 -0.5625 
Q 10.6875 0.296875 5.421875 2 
L 5.421875 11.28125 
Q 10.40625 8.6875 15.234375 7.390625 
Q 20.0625 6.109375 24.8125 6.109375 
Q 31.15625 6.109375 34.5625 8.28125 
Q 37.984375 10.453125 37.984375 14.40625 
Q 37.984375 18.0625 35.515625 20.015625 
Q 33.0625 21.96875 24.703125 23.78125 
L 21.578125 24.515625 
Q 13.234375 26.265625 9.515625 29.90625 
Q 5.8125 33.546875 5.8125 39.890625 
Q 5.8125 47.609375 11.28125 51.796875 
Q 16.75 56 26.8125 56 
Q 31.78125 56 36.171875 55.265625 
Q 40.578125 54.546875 44.28125 53.078125 
z
" id="DejaVuSans-115"/>
       <path d="M 34.28125 27.484375 
Q 23.390625 27.484375 19.1875 25 
Q 14.984375 22.515625 14.984375 16.5 
Q 14.984375 11.71875 18.140625 8.90625 
Q 21.296875 6.109375 26.703125 6.109375 
Q 34.1875 6.109375 38.703125 11.40625 
Q 43.21875 16.703125 43.21875 25.484375 
L 43.21875 27.484375 
z
M 52.203125 31.203125 
L 52.203125 0 
L 43.21875 0 
L 43.21875 8.296875 
Q 40.140625 3.328125 35.546875 0.953125 
Q 30.953125 -1.421875 24.3125 -1.421875 
Q 15.921875 -1.421875 10.953125 3.296875 
Q 6 8.015625 6 15.921875 
Q 6 25.140625 12.171875 29.828125 
Q 18.359375 34.515625 30.609375 34.515625 
L 43.21875 34.515625 
L 43.21875 35.40625 
Q 43.21875 41.609375 39.140625 45 
Q 35.0625 48.390625 27.6875 48.390625 
Q 23 48.390625 18.546875 47.265625 
Q 14.109375 46.140625 10.015625 43.890625 
L 10.015625 52.203125 
Q 14.9375 54.109375 19.578125 55.046875 
Q 24.21875 56 28.609375 56 
Q 40.484375 56 46.34375 49.84375 
Q 52.203125 43.703125 52.203125 31.203125 
z
" id="DejaVuSans-97"/>
       <path d="M 18.109375 8.203125 
L 18.109375 -20.796875 
L 9.078125 -20.796875 
L 9.078125 54.6875 
L 18.109375 54.6875 
L 18.109375 46.390625 
Q 20.953125 51.265625 25.265625 53.625 
Q 29.59375 56 35.59375 56 
Q 45.5625 56 51.78125 48.09375 
Q 58.015625 40.1875 58.015625 27.296875 
Q 58.015625 14.40625 51.78125 6.484375 
Q 45.5625 -1.421875 35.59375 -1.421875 
Q 29.59375 -1.421875 25.265625 0.953125 
Q 20.953125 3.328125 18.109375 8.203125 
z
M 48.6875 27.296875 
Q 48.6875 37.203125 44.609375 42.84375 
Q 40.53125 48.484375 33.40625 48.484375 
Q 26.265625 48.484375 22.1875 42.84375 
Q 18.109375 37.203125 18.109375 27.296875 
Q 18.109375 17.390625 22.1875 11.75 
Q 26.265625 6.109375 33.40625 6.109375 
Q 40.53125 6.109375 44.609375 11.75 
Q 48.6875 17.390625 48.6875 27.296875 
z
" id="DejaVuSans-112"/>
      </defs>
      <use xlink:href="#DejaVuSans-116"/>
      <use x="39.208984" xlink:href="#DejaVuSans-105"/>
      <use x="66.992188" xlink:href="#DejaVuSans-109"/>
      <use x="164.404297" xlink:href="#DejaVuSans-101"/>
      <use x="225.927734" xlink:href="#DejaVuSans-115"/>
      <use x="278.027344" xlink:href="#DejaVuSans-116"/>
      <use x="317.236328" xlink:href="#DejaVuSans-97"/>
      <use x="378.515625" xlink:href="#DejaVuSans-109"/>
      <use x="475.927734" xlink:href="#DejaVuSans-112"/>
     </g>
    </g>
   </g>
   <g id="matplotlib.axis_2">
    <g id="ytick_1">
     <g id="line2d_22">
      <defs>
       <path d="M 0 0 
L -3.5 0 
" id="m0ca179b42f" style="stroke:#000000;stroke-width:0.8;"/>
      </defs>
      <g>
       <use style="stroke:#000000;stroke-width:0.8;" x="108" xlink:href="#m0ca179b42f" y="431.546381"/>
      </g>
     </g>
     <g id="text_23">
      <!-- 11200 -->
      <g transform="translate(69.1875 435.3456)scale(0.1 -0.1)">
       <use xlink:href="#DejaVuSans-49"/>
       <use x="63.623047" xlink:href="#DejaVuSans-49"/>
       <use x="127.246094" xlink:href="#DejaVuSans-50"/>
       <use x="190.869141" xlink:href="#DejaVuSans-48"/>
       <use x="254.492188" xlink:href="#DejaVuSans-48"/>
      </g>
     </g>
    </g>
    <g id="ytick_2">
     <g id="line2d_23">
      <g>
       <use style="stroke:#000000;stroke-width:0.8;" x="108" xlink:href="#m0ca179b42f" y="387.412147"/>
      </g>
     </g>
     <g id="text_24">
      <!-- 11400 -->
      <g transform="translate(69.1875 391.211366)scale(0.1 -0.1)">
       <use xlink:href="#DejaVuSans-49"/>
       <use x="63.623047" xlink:href="#DejaVuSans-49"/>
       <use x="127.246094" xlink:href="#DejaVuSans-52"/>
       <use x="190.869141" xlink:href="#DejaVuSans-48"/>
       <use x="254.492188" xlink:href="#DejaVuSans-48"/>
      </g>
     </g>
    </g>
    <g id="ytick_3">
     <g id="line2d_24">
      <g>
       <use style="stroke:#000000;stroke-width:0.8;" x="108" xlink:href="#m0ca179b42f" y="343.277913"/>
      </g>
     </g>
     <g id="text_25">
      <!-- 11600 -->
      <g transform="translate(69.1875 347.077132)scale(0.1 -0.1)">
       <use xlink:href="#DejaVuSans-49"/>
       <use x="63.623047" xlink:href="#DejaVuSans-49"/>
       <use x="127.246094" xlink:href="#DejaVuSans-54"/>
       <use x="190.869141" xlink:href="#DejaVuSans-48"/>
       <use x="254.492188" xlink:href="#DejaVuSans-48"/>
      </g>
     </g>
    </g>
    <g id="ytick_4">
     <g id="line2d_25">
      <g>
       <use style="stroke:#000000;stroke-width:0.8;" x="108" xlink:href="#m0ca179b42f" y="299.143679"/>
      </g>
     </g>
     <g id="text_26">
      <!-- 11800 -->
      <g transform="translate(69.1875 302.942898)scale(0.1 -0.1)">
       <use xlink:href="#DejaVuSans-49"/>
       <use x="63.623047" xlink:href="#DejaVuSans-49"/>
       <use x="127.246094" xlink:href="#DejaVuSans-56"/>
       <use x="190.869141" xlink:href="#DejaVuSans-48"/>
       <use x="254.492188" xlink:href="#DejaVuSans-48"/>
      </g>
     </g>
    </g>
    <g id="ytick_5">
     <g id="line2d_26">
      <g>
       <use style="stroke:#000000;stroke-width:0.8;" x="108" xlink:href="#m0ca179b42f" y="255.009445"/>
      </g>
     </g>
     <g id="text_27">
      <!-- 12000 -->
      <g transform="translate(69.1875 258.808664)scale(0.1 -0.1)">
       <use xlink:href="#DejaVuSans-49"/>
       <use x="63.623047" xlink:href="#DejaVuSans-50"/>
       <use x="127.246094" xlink:href="#DejaVuSans-48"/>
       <use x="190.869141" xlink:href="#DejaVuSans-48"/>
       <use x="254.492188" xlink:href="#DejaVuSans-48"/>
      </g>
     </g>
    </g>
    <g id="ytick_6">
     <g id="line2d_27">
      <g>
       <use style="stroke:#000000;stroke-width:0.8;" x="108" xlink:href="#m0ca179b42f" y="210.875211"/>
      </g>
     </g>
     <g id="text_28">
      <!-- 12200 -->
      <g transform="translate(69.1875 214.67443)scale(0.1 -0.1)">
       <use xlink:href="#DejaVuSans-49"/>
       <use x="63.623047" xlink:href="#DejaVuSans-50"/>
       <use x="127.246094" xlink:href="#DejaVuSans-50"/>
       <use x="190.869141" xlink:href="#DejaVuSans-48"/>
       <use x="254.492188" xlink:href="#DejaVuSans-48"/>
      </g>
     </g>
    </g>
    <g id="ytick_7">
     <g id="line2d_28">
      <g>
       <use style="stroke:#000000;stroke-width:0.8;" x="108" xlink:href="#m0ca179b42f" y="166.740977"/>
      </g>
     </g>
     <g id="text_29">
      <!-- 12400 -->
      <g transform="translate(69.1875 170.540196)scale(0.1 -0.1)">
       <use xlink:href="#DejaVuSans-49"/>
       <use x="63.623047" xlink:href="#DejaVuSans-50"/>
       <use x="127.246094" xlink:href="#DejaVuSans-52"/>
       <use x="190.869141" xlink:href="#DejaVuSans-48"/>
       <use x="254.492188" xlink:href="#DejaVuSans-48"/>
      </g>
     </g>
    </g>
    <g id="ytick_8">
     <g id="line2d_29">
      <g>
       <use style="stroke:#000000;stroke-width:0.8;" x="108" xlink:href="#m0ca179b42f" y="122.606743"/>
      </g>
     </g>
     <g id="text_30">
      <!-- 12600 -->
      <g transform="translate(69.1875 126.405962)scale(0.1 -0.1)">
       <use xlink:href="#DejaVuSans-49"/>
       <use x="63.623047" xlink:href="#DejaVuSans-50"/>
       <use x="127.246094" xlink:href="#DejaVuSans-54"/>
       <use x="190.869141" xlink:href="#DejaVuSans-48"/>
       <use x="254.492188" xlink:href="#DejaVuSans-48"/>
      </g>
     </g>
    </g>
    <g id="ytick_9">
     <g id="line2d_30">
      <g>
       <use style="stroke:#000000;stroke-width:0.8;" x="108" xlink:href="#m0ca179b42f" y="78.472509"/>
      </g>
     </g>
     <g id="text_31">
      <!-- 12800 -->
      <g transform="translate(69.1875 82.271728)scale(0.1 -0.1)">
       <use xlink:href="#DejaVuSans-49"/>
       <use x="63.623047" xlink:href="#DejaVuSans-50"/>
       <use x="127.246094" xlink:href="#DejaVuSans-56"/>
       <use x="190.869141" xlink:href="#DejaVuSans-48"/>
       <use x="254.492188" xlink:href="#DejaVuSans-48"/>
      </g>
     </g>
    </g>
    <g id="text_32">
     <!-- MB -->
     <g transform="translate(63.52375 260.715625)rotate(-90)scale(0.08 -0.08)">
      <defs>
       <path d="M 9.8125 72.90625 
L 24.515625 72.90625 
L 43.109375 23.296875 
L 61.8125 72.90625 
L 76.515625 72.90625 
L 76.515625 0 
L 66.890625 0 
L 66.890625 64.015625 
L 48.09375 14.015625 
L 38.1875 14.015625 
L 19.390625 64.015625 
L 19.390625 0 
L 9.8125 0 
z
" id="DejaVuSans-77"/>
       <path d="M 19.671875 34.8125 
L 19.671875 8.109375 
L 35.5 8.109375 
Q 43.453125 8.109375 47.28125 11.40625 
Q 51.125 14.703125 51.125 21.484375 
Q 51.125 28.328125 47.28125 31.5625 
Q 43.453125 34.8125 35.5 34.8125 
z
M 19.671875 64.796875 
L 19.671875 42.828125 
L 34.28125 42.828125 
Q 41.5 42.828125 45.03125 45.53125 
Q 48.578125 48.25 48.578125 53.8125 
Q 48.578125 59.328125 45.03125 62.0625 
Q 41.5 64.796875 34.28125 64.796875 
z
M 9.8125 72.90625 
L 35.015625 72.90625 
Q 46.296875 72.90625 52.390625 68.21875 
Q 58.5 63.53125 58.5 54.890625 
Q 58.5 48.1875 55.375 44.234375 
Q 52.25 40.28125 46.1875 39.3125 
Q 53.46875 37.75 57.5 32.78125 
Q 61.53125 27.828125 61.53125 20.40625 
Q 61.53125 10.640625 54.890625 5.3125 
Q 48.25 0 35.984375 0 
L 9.8125 0 
z
" id="DejaVuSans-66"/>
      </defs>
      <use xlink:href="#DejaVuSans-77"/>
      <use x="86.279297" xlink:href="#DejaVuSans-66"/>
     </g>
    </g>
   </g>
   <g id="line2d_31">
    <path clip-path="url(#p9423a23e46)" d="M 132.349091 78.191406 
L 132.611898 82.094312 
L 132.874705 82.037369 
L 133.137513 82.272375 
L 133.40032 82.838197 
L 133.663127 82.137698 
L 133.925934 82.327511 
L 134.188742 81.683052 
L 134.451549 79.360108 
L 134.977163 79.516478 
L 135.502778 78.12 
L 135.765585 81.678533 
L 136.028392 91.49184 
L 136.816814 154.424631 
L 137.342428 238.741157 
L 137.868043 289.480753 
L 138.13085 305.013744 
L 138.656465 368.625341 
L 139.182079 400.42436 
L 139.444886 408.322368 
L 139.970501 408.615222 
L 140.233308 409.613997 
L 140.496115 409.071676 
L 140.758923 410.780892 
L 141.02173 410.83874 
L 141.284537 410.691409 
L 141.547344 412.141215 
L 141.810152 411.654934 
L 142.072959 412.108676 
L 142.335766 412.015577 
L 142.598573 412.203582 
L 142.861381 412.218044 
L 143.124188 411.36208 
L 143.386995 413.807046 
L 143.649802 415.0345 
L 143.91261 415.059809 
L 144.438224 413.120106 
L 144.701031 413.659715 
L 144.963838 408.510373 
L 145.226646 410.351554 
L 145.489453 409.852619 
L 145.75226 409.982776 
L 146.015067 409.830022 
L 146.277875 411.381965 
L 146.540682 411.596182 
L 146.803489 411.25452 
L 147.066296 411.505795 
L 147.329104 413.124625 
L 147.591911 412.303008 
L 147.854718 412.246064 
L 148.380333 410.803489 
L 148.64314 413.196031 
L 148.905947 413.77993 
L 149.431562 414.193902 
L 149.694369 412.712461 
L 150.219983 412.944755 
L 150.482791 412.408761 
L 150.745598 412.622978 
L 151.008405 414.149612 
L 151.53402 413.185184 
L 151.796827 412.925774 
L 152.059634 413.939915 
L 152.848056 413.0487 
L 153.110863 414.18396 
L 153.636477 413.655196 
L 153.899285 414.033013 
L 154.162092 413.995051 
L 154.687706 411.972192 
L 154.950514 411.741705 
L 155.476128 413.601868 
L 156.001743 412.960121 
L 156.26455 413.455441 
L 156.527357 413.337034 
L 156.790164 414.796783 
L 157.052972 414.67928 
L 157.315779 414.775994 
L 157.578586 413.628984 
L 157.841393 414.682895 
L 158.104201 414.785936 
L 158.367008 414.570815 
L 158.629815 414.103515 
L 158.892622 414.746166 
L 159.15543 414.378291 
L 159.418237 414.441562 
L 159.681044 413.857663 
L 159.943851 414.222826 
L 160.206658 415.189062 
L 160.469466 414.584374 
L 160.732273 414.381907 
L 160.99508 412.585015 
L 161.257887 413.330707 
L 161.520695 413.657004 
L 161.783502 412.833579 
L 162.046309 412.792905 
L 162.309116 413.25659 
L 162.834731 413.288225 
L 163.097538 413.210492 
L 163.360345 412.754942 
L 163.623153 413.884779 
L 163.88596 414.056514 
L 164.411574 413.525039 
L 164.674382 414.033013 
L 165.462803 412.056252 
L 165.725611 412.893234 
L 165.988418 412.504571 
L 166.251225 412.606708 
L 166.514032 415.711498 
L 166.77684 415.447569 
L 167.039647 416.806084 
L 167.302454 416.953414 
L 167.565261 414.810341 
L 167.828068 414.239096 
L 168.090876 416.662369 
L 168.353683 417.320385 
L 168.61649 417.333039 
L 168.879297 414.968518 
L 169.142105 414.604259 
L 169.404912 414.804918 
L 169.667719 413.0487 
L 169.930526 413.389459 
L 170.193334 413.538597 
L 170.456141 414.377387 
L 170.718948 414.66301 
L 171.244563 414.531949 
L 171.50737 413.798911 
L 171.770177 415.448472 
L 172.032984 415.525301 
L 172.295792 415.063424 
L 172.558599 413.038757 
L 173.084213 413.815181 
L 173.609828 413.694966 
L 173.872635 413.238512 
L 174.135442 414.277962 
L 174.39825 412.974583 
L 174.661057 413.318957 
L 174.923864 414.098996 
L 175.186671 414.364733 
L 175.449478 413.384035 
L 175.712286 413.444595 
L 175.975093 413.703101 
L 176.2379 415.273122 
L 176.500707 413.831451 
L 176.763515 414.06736 
L 177.026322 413.912799 
L 177.289129 413.439171 
L 177.814744 413.046892 
L 178.077551 413.264725 
L 178.340358 412.632016 
L 178.603165 414.314117 
L 179.12878 413.937203 
L 179.391587 413.394882 
L 179.654394 414.351175 
L 179.917202 414.690126 
L 180.180009 414.383715 
L 180.442816 413.808854 
L 180.705623 414.226441 
L 180.968431 414.338521 
L 181.231238 414.050187 
L 181.494045 413.36867 
L 182.01966 413.666946 
L 182.282467 413.635311 
L 182.808081 413.434652 
L 183.333696 414.293328 
L 183.85931 413.678697 
L 184.122117 414.604259 
L 184.384925 413.914607 
L 184.647732 413.586502 
L 184.910539 413.551251 
L 185.173346 413.314437 
L 185.436154 414.37558 
L 185.698961 413.131856 
L 185.961768 412.853464 
L 186.224575 413.203262 
L 186.487383 412.594958 
L 186.75019 414.132439 
L 187.012997 413.559386 
L 187.275804 416.350534 
L 187.801419 416.845854 
L 188.064226 416.280032 
L 188.327033 413.871221 
L 188.589841 413.756429 
L 188.852648 414.262596 
L 189.115455 414.1234 
L 189.378262 414.280673 
L 189.64107 414.244519 
L 189.903877 414.547315 
L 190.166684 413.981493 
L 190.692298 413.678697 
L 190.955106 413.334323 
L 191.217913 413.764564 
L 191.48072 413.719371 
L 191.743527 414.377387 
L 192.006335 413.517808 
L 192.269142 413.553963 
L 192.531949 413.329803 
L 192.794756 413.355112 
L 193.320371 413.713948 
L 193.845985 415.018231 
L 194.3716 414.597028 
L 194.634407 414.149612 
L 194.897214 414.801302 
L 195.422829 415.082405 
L 195.685636 414.918805 
L 195.948443 416.252916 
L 196.211251 414.927844 
L 196.474058 414.266212 
L 196.736865 414.216499 
L 196.999672 412.487397 
L 197.26248 413.75191 
L 197.525287 413.28009 
L 197.788094 413.435556 
L 198.576516 414.253557 
L 198.839323 413.949857 
L 199.10213 414.058322 
L 199.364937 413.873932 
L 199.627745 417.897054 
L 199.890552 418.070597 
L 200.153359 417.379137 
L 200.416166 415.123983 
L 200.678974 415.365316 
L 200.941781 415.110425 
L 201.204588 414.070976 
L 201.467395 413.996859 
L 201.730203 415.687998 
L 201.99301 415.599419 
L 202.255817 414.277962 
L 202.518624 414.689222 
L 202.781432 412.85708 
L 203.044239 414.69103 
L 203.307046 413.627176 
L 203.569853 413.762756 
L 203.832661 413.636215 
L 204.095468 414.95496 
L 204.358275 414.678376 
L 204.621082 414.893497 
L 204.88389 414.217403 
L 205.935118 415.111329 
L 206.197926 414.812149 
L 206.460733 415.044443 
L 206.986347 414.732608 
L 207.511962 413.541309 
L 207.774769 413.429229 
L 208.037576 413.536789 
L 208.300384 413.201454 
L 208.563191 413.155356 
L 208.825998 414.772378 
L 209.351613 414.437947 
L 209.61442 414.571719 
L 209.877227 414.446082 
L 210.140034 414.597028 
L 210.665649 414.239999 
L 211.454071 415.717825 
L 211.716878 415.707883 
L 212.768107 414.984788 
L 213.030914 414.575335 
L 213.293721 414.745262 
L 213.556528 415.241486 
L 213.819336 415.098675 
L 214.082143 415.209851 
L 214.34495 413.604579 
L 214.607757 414.616009 
L 214.870565 414.097188 
L 215.396179 413.967031 
L 215.658986 414.62324 
L 215.921794 414.823899 
L 216.447408 414.613297 
L 216.710215 414.11165 
L 216.973023 415.595803 
L 217.498637 415.84979 
L 217.761444 415.114041 
L 218.024252 415.133926 
L 218.549866 413.993243 
L 218.812673 414.681088 
L 219.075481 415.960966 
L 219.338288 416.100162 
L 219.601095 415.894984 
L 219.863902 415.958255 
L 220.12671 414.386426 
L 220.389517 415.38249 
L 220.915131 415.325546 
L 221.177938 415.531628 
L 221.440746 416.099258 
L 221.703553 415.991698 
L 221.96636 416.025141 
L 222.229167 415.405991 
L 222.754782 416.367707 
L 223.017589 416.522269 
L 223.280396 416.223992 
L 223.543204 416.483403 
L 223.806011 416.448152 
L 224.068818 415.520782 
L 224.331625 415.936562 
L 224.594433 415.690709 
L 224.85724 417.060071 
L 225.645662 416.507807 
L 225.908469 415.1746 
L 226.171276 416.923587 
L 226.696891 416.831392 
L 226.959698 415.948312 
L 227.222505 417.119726 
L 227.485312 417.207402 
L 227.74812 416.701235 
L 228.010927 416.822353 
L 228.273734 418.195331 
L 228.799348 417.201075 
L 229.062156 417.124246 
L 229.324963 418.358027 
L 229.58777 417.990152 
L 229.850577 417.098937 
L 230.113385 417.258018 
L 230.376192 417.251691 
L 230.638999 418.077828 
L 230.901806 417.972979 
L 231.164614 418.640034 
L 231.427421 418.39599 
L 231.690228 417.615951 
L 231.953035 417.409868 
L 232.215843 417.404445 
L 232.47865 420.684586 
L 232.741457 420.210055 
L 233.004264 421.965369 
L 233.267072 419.439055 
L 233.529879 419.571019 
L 234.055493 421.937349 
L 234.318301 420.455003 
L 234.581108 417.932305 
L 234.843915 417.544545 
L 235.36953 418.040769 
L 235.632337 418.014557 
L 235.895144 417.786782 
L 236.157951 421.103981 
L 236.683566 421.025345 
L 236.946373 420.699048 
L 237.20918 418.610207 
L 237.471987 419.042256 
L 237.734795 420.07809 
L 237.997602 418.97537 
L 238.260409 418.781942 
L 238.523216 418.73946 
L 239.048831 416.952511 
L 239.311638 417.475851 
L 239.574445 417.34479 
L 239.837253 416.439113 
L 240.10006 417.566238 
L 240.362867 417.283327 
L 240.625674 416.705754 
L 241.151289 418.546936 
L 241.414096 418.596649 
L 241.676903 417.972075 
L 241.939711 418.023595 
L 242.202518 418.638226 
L 242.465325 418.283006 
L 243.253747 418.427625 
L 243.516554 416.763602 
L 243.779361 416.928106 
L 244.042168 417.257114 
L 244.304976 416.711178 
L 244.567783 418.125733 
L 244.83059 418.377912 
L 245.093397 417.942247 
L 245.881819 418.194427 
L 246.144626 417.892534 
L 246.670241 417.745204 
L 246.933048 418.573148 
L 247.195855 418.562301 
L 247.72147 418.258601 
L 247.984277 418.269448 
L 248.247084 418.535185 
L 248.509892 418.432144 
L 248.772699 418.804538 
L 249.035506 418.85154 
L 249.298313 419.179644 
L 249.561121 418.284814 
L 249.823928 418.313737 
L 250.086735 418.075116 
L 250.349542 418.320968 
L 250.875157 418.252274 
L 251.137964 418.133868 
L 251.400771 417.839206 
L 251.663578 417.908804 
L 251.926386 418.398701 
L 252.189193 418.033538 
L 252.452 418.484569 
L 252.714807 419.310705 
L 253.240422 418.913907 
L 253.766036 417.859091 
L 254.028844 418.792788 
L 254.291651 418.899445 
L 254.554458 418.752114 
L 254.817265 419.072988 
L 255.080073 419.784333 
L 255.34288 418.734037 
L 255.605687 418.678901 
L 256.131302 418.890406 
L 256.394109 418.342661 
L 256.656916 418.376104 
L 256.919723 418.647265 
L 257.182531 417.494832 
L 257.445338 418.349892 
L 257.970952 418.071501 
L 258.23376 417.813898 
L 258.496567 419.336013 
L 258.759374 419.439958 
L 259.022181 419.08293 
L 259.284988 418.37972 
L 259.547796 420.598719 
L 259.810603 420.814743 
L 260.07341 420.727068 
L 261.387446 418.325488 
L 261.650254 418.634611 
L 261.913061 420.336597 
L 262.175868 419.990415 
L 262.438675 419.409227 
L 262.701483 419.847603 
L 262.96429 419.840372 
L 263.227097 420.184747 
L 263.489904 419.490575 
L 263.752712 419.617117 
L 264.015519 419.235684 
L 264.278326 420.050974 
L 264.803941 419.778005 
L 265.066748 420.266999 
L 265.329555 422.716484 
L 265.592362 423.076224 
L 265.85517 422.777043 
L 266.117977 420.872591 
L 266.380784 420.694529 
L 266.643591 422.007851 
L 266.906398 422.03587 
L 267.169206 421.077769 
L 267.432013 420.990998 
L 267.69482 421.86052 
L 267.957627 420.500197 
L 268.220435 420.494774 
L 268.746049 419.860258 
L 269.008856 420.861745 
L 269.271664 419.861161 
L 269.534471 420.560756 
L 269.797278 420.558044 
L 270.060085 421.976215 
L 270.322893 421.834308 
L 270.5857 421.273005 
L 270.848507 421.019922 
L 271.111314 420.572506 
L 271.374122 421.68065 
L 271.636929 421.689689 
L 271.899736 421.36068 
L 272.162543 421.645399 
L 272.425351 422.413688 
L 272.688158 422.406457 
L 272.950965 422.008754 
L 273.213772 422.072929 
L 273.47658 422.485093 
L 273.739387 420.917784 
L 274.002194 420.771358 
L 274.265001 420.37004 
L 274.527808 420.212766 
L 274.790616 420.655662 
L 275.31623 420.917784 
L 275.579037 420.564372 
L 275.841845 421.287467 
L 276.104652 421.47276 
L 276.893074 420.896092 
L 277.681495 421.462817 
L 277.944303 421.220581 
L 278.20711 421.978927 
L 278.469917 421.379662 
L 278.732724 421.461914 
L 278.995532 421.315487 
L 279.258339 421.958138 
L 279.783953 421.231427 
L 280.046761 420.978344 
L 280.309568 420.386309 
L 280.572375 421.626418 
L 280.835182 421.256735 
L 281.09799 421.188945 
L 281.360797 420.326654 
L 281.623604 421.508011 
L 281.886411 421.307352 
L 282.149218 420.82559 
L 282.674833 421.289275 
L 282.93764 421.893059 
L 283.200447 421.369719 
L 283.463255 421.354353 
L 283.726062 421.793634 
L 283.988869 421.078673 
L 284.251676 420.743338 
L 284.514484 420.835532 
L 284.777291 420.653855 
L 285.040098 422.377533 
L 285.302905 420.903322 
L 285.565713 421.238658 
L 285.82852 420.898803 
L 286.091327 421.013595 
L 286.354134 421.778268 
L 286.616942 421.893963 
L 287.142556 421.555916 
L 287.405363 422.522152 
L 287.668171 422.022312 
L 287.930978 422.183201 
L 288.193785 421.91204 
L 288.456592 421.802672 
L 288.719399 422.221164 
L 288.982207 422.093718 
L 289.245014 421.678842 
L 289.507821 422.170547 
L 289.770628 423.18288 
L 290.033436 423.116898 
L 290.296243 422.543845 
L 290.55905 423.073512 
L 290.821857 421.380565 
L 291.347472 420.856321 
L 291.873086 420.807512 
L 292.135894 421.796345 
L 292.398701 421.378758 
L 292.661508 421.651726 
L 292.924315 421.166348 
L 293.187123 422.709253 
L 293.712737 421.58032 
L 293.975544 421.711381 
L 294.238352 421.611052 
L 294.501159 421.986158 
L 294.763966 421.921079 
L 295.289581 422.578192 
L 295.552388 423.062666 
L 295.815195 422.599885 
L 296.078002 421.799057 
L 296.340809 421.94006 
L 296.603617 422.4399 
L 296.866424 421.587551 
L 297.129231 422.231106 
L 297.392038 422.249184 
L 297.654846 421.766517 
L 297.917653 422.076545 
L 298.18046 425.198509 
L 298.443267 425.218394 
L 298.706075 424.451913 
L 298.968882 423.242536 
L 299.231689 422.751735 
L 299.494496 424.8695 
L 299.757304 426.01651 
L 300.020111 425.711906 
L 300.282918 423.593237 
L 300.545725 422.764389 
L 300.808533 422.686656 
L 301.07134 422.358552 
L 301.334147 423.642046 
L 302.122569 423.783049 
L 302.385376 424.472702 
L 302.648183 423.627584 
L 302.910991 423.693566 
L 303.173798 422.680329 
L 303.436605 422.291665 
L 303.699412 423.487484 
L 303.962219 423.546236 
L 304.225027 423.017472 
L 304.487834 423.201862 
L 304.750641 424.230465 
L 305.013448 424.123808 
L 305.276256 423.71074 
L 305.539063 423.693566 
L 305.80187 423.952073 
L 306.064677 422.846641 
L 306.327485 422.570961 
L 306.590292 422.633328 
L 306.853099 422.916239 
L 307.115906 424.157251 
L 307.378714 423.979189 
L 308.167135 422.728234 
L 308.429943 422.899969 
L 308.69275 422.528479 
L 308.955557 422.644174 
L 309.218364 422.899969 
L 309.481172 424.496202 
L 309.743979 424.328986 
L 310.269593 423.303999 
L 310.532401 423.448618 
L 311.058015 422.78789 
L 311.320822 422.946971 
L 311.583629 424.726689 
L 312.109244 423.198246 
L 312.372051 423.372693 
L 312.634858 422.788793 
L 313.42328 423.689047 
L 313.686087 423.72249 
L 313.948895 424.587493 
L 314.211702 424.750189 
L 314.737316 424.504337 
L 315.000124 423.183784 
L 315.262931 423.821012 
L 315.525738 423.971958 
L 315.788545 423.341057 
L 316.051353 423.273267 
L 316.31416 422.821333 
L 316.576967 423.157572 
L 316.839774 423.094301 
L 317.365389 424.626359 
L 317.628196 425.116256 
L 317.891003 424.690534 
L 318.153811 424.99333 
L 318.416618 424.255773 
L 318.679425 425.334089 
L 318.942232 424.375084 
L 319.205039 424.291024 
L 319.467847 424.560377 
L 319.730654 425.438938 
L 319.993461 425.396456 
L 320.256268 425.504016 
L 320.519076 425.433514 
L 320.781883 424.784536 
L 321.04469 424.968926 
L 321.570305 424.98158 
L 321.833112 425.044851 
L 322.358726 423.858974 
L 322.621534 423.300383 
L 323.147148 425.104506 
L 323.409955 425.250933 
L 323.672763 424.74567 
L 323.93557 425.306069 
L 324.723992 424.443778 
L 325.249606 424.924636 
L 325.512413 424.289216 
L 325.775221 424.074999 
L 326.038028 424.254869 
L 326.300835 424.668841 
L 326.563642 425.97222 
L 327.089257 425.50492 
L 327.352064 425.561864 
L 327.614871 424.686919 
L 328.403293 423.641142 
L 328.6661 423.914111 
L 328.928907 425.182239 
L 329.191715 424.945425 
L 329.454522 425.252741 
L 329.717329 425.246414 
L 329.980136 426.058992 
L 330.242944 425.821274 
L 330.505751 425.175912 
L 330.768558 428.416283 
L 331.031365 427.642571 
L 331.294173 429.295747 
L 331.55698 427.260234 
L 331.819787 426.768529 
L 332.082594 426.838127 
L 332.608209 425.635981 
L 332.871016 425.726368 
L 333.133823 425.379282 
L 333.396631 425.893584 
L 333.659438 424.721266 
L 333.922245 425.254548 
L 334.185052 425.203028 
L 334.447859 424.5658 
L 334.710667 425.250029 
L 335.236281 425.236471 
L 335.499088 425.530228 
L 335.761896 425.438034 
L 336.024703 425.468765 
L 336.28751 425.24099 
L 336.550317 424.838769 
L 336.813125 425.847487 
L 337.075932 425.424476 
L 337.338739 425.258164 
L 337.601546 424.808037 
L 337.864354 425.192181 
L 338.127161 426.050857 
L 338.389968 426.077973 
L 338.652775 425.520286 
L 339.17839 426.401558 
L 339.441197 424.744766 
L 339.704004 424.216907 
L 339.966812 424.019863 
L 340.229619 424.39045 
L 340.492426 425.479612 
L 340.755233 425.728176 
L 341.018041 425.54469 
L 341.280848 425.648635 
L 341.543655 425.469669 
L 342.332077 425.431707 
L 342.594884 425.119872 
L 342.857691 425.143372 
L 343.383306 424.129231 
L 343.646113 424.718554 
L 343.90892 426.00476 
L 344.171727 426.181014 
L 344.434535 425.66852 
L 344.697342 425.906238 
L 344.960149 425.484131 
L 345.222956 424.657091 
L 345.485764 424.422989 
L 345.748571 424.601955 
L 346.011378 425.137045 
L 346.274185 426.162937 
L 346.536993 425.831217 
L 346.7998 425.956855 
L 347.062607 426.305748 
L 347.325414 425.945104 
L 347.851029 425.551921 
L 348.113836 425.880026 
L 348.376643 425.663097 
L 348.639451 426.162937 
L 348.902258 426.105993 
L 349.165065 426.371731 
L 349.427872 425.124391 
L 349.690679 426.034587 
L 349.953487 426.02826 
L 350.216294 425.677559 
L 350.479101 425.721849 
L 350.741908 426.030068 
L 351.004716 425.231952 
L 351.267523 425.457919 
L 351.53033 424.778209 
L 352.055945 426.398847 
L 352.581559 425.817659 
L 352.844366 425.123487 
L 353.107174 425.810428 
L 353.632788 426.214457 
L 355.209632 425.405495 
L 355.472439 426.591371 
L 355.735246 426.482003 
L 355.998053 425.934258 
L 356.260861 425.833929 
L 356.523668 425.598923 
L 356.786475 424.894808 
L 357.049282 425.10541 
L 357.312089 425.129814 
L 357.574897 426.492849 
L 357.837704 426.096954 
L 358.363318 426.360884 
L 358.626126 425.897199 
L 358.888933 430.317119 
L 359.15174 430.014323 
L 359.414547 429.932975 
L 359.677355 427.333447 
L 359.940162 427.817921 
L 360.202969 427.777247 
L 360.728584 426.857108 
L 360.991391 425.239183 
L 361.254198 425.902623 
L 361.517005 425.194893 
L 361.779813 425.128911 
L 362.04262 424.944521 
L 362.305427 425.89268 
L 362.831042 425.408206 
L 363.093849 425.580845 
L 363.356656 428.212008 
L 363.619463 429.393365 
L 363.882271 429.494598 
L 364.145078 429.302978 
L 364.407885 426.647411 
L 364.933499 429.827222 
L 365.196307 429.494598 
L 365.459114 429.850723 
L 365.721921 427.937232 
L 365.984728 426.975515 
L 366.247536 426.900494 
L 366.510343 426.448559 
L 366.77315 425.747157 
L 367.035957 427.612743 
L 367.298765 426.654642 
L 367.561572 429.476521 
L 367.824379 428.303299 
L 368.087186 430.061324 
L 368.349994 429.928456 
L 368.612801 427.537722 
L 368.875608 426.923995 
L 369.138415 428.343069 
L 369.401223 427.706745 
L 369.66403 427.826056 
L 369.926837 427.445527 
L 370.189644 427.361467 
L 370.452452 428.531978 
L 370.715259 427.977002 
L 370.978066 427.09573 
L 371.240873 427.171655 
L 372.029295 425.250029 
L 372.292102 425.472381 
L 372.817717 426.686277 
L 373.080524 426.293998 
L 373.606138 426.161129 
L 373.868946 426.599506 
L 374.131753 426.467541 
L 374.657367 426.742317 
L 374.920175 427.721207 
L 375.182982 427.270177 
L 375.445789 427.33164 
L 375.708596 426.92761 
L 375.971404 427.895654 
L 376.234211 426.491945 
L 376.759825 426.610352 
L 377.022633 426.181918 
L 377.28544 427.286446 
L 377.548247 427.503375 
L 377.811054 427.385872 
L 378.336669 426.077973 
L 378.599476 426.517254 
L 379.125091 425.773369 
L 379.387898 425.239183 
L 379.650705 426.541658 
L 379.913512 426.520869 
L 380.176319 426.096954 
L 380.439127 425.258164 
L 380.701934 425.937873 
L 381.227548 425.578134 
L 381.490356 424.312717 
L 381.753163 424.075903 
L 382.01597 424.526934 
L 382.278777 424.370564 
L 382.541585 423.768588 
L 382.804392 424.924636 
L 383.067199 424.080422 
L 383.330006 424.064153 
L 383.855621 422.549268 
L 384.118428 423.775819 
L 384.644043 424.012632 
L 384.90685 423.287729 
L 385.169657 423.691759 
L 385.432464 424.88125 
L 385.695272 424.7059 
L 385.958079 423.897841 
L 386.483693 425.383802 
L 387.009308 425.446169 
L 387.272115 424.398584 
L 387.534922 425.007792 
L 387.797729 425.127103 
L 388.060537 424.859558 
L 388.323344 423.996363 
L 388.586151 424.734824 
L 388.848958 425.975836 
L 389.111766 425.191278 
L 389.374573 425.092756 
L 389.63738 424.824307 
L 389.900187 425.211163 
L 390.162995 424.779113 
L 390.425802 424.571223 
L 390.688609 424.052402 
L 390.951416 424.183463 
L 391.214224 424.721266 
L 391.477031 424.712227 
L 391.739838 423.583294 
L 392.002645 423.48658 
L 392.265453 425.237375 
L 392.791067 425.205739 
L 393.053874 424.572127 
L 393.316682 424.698669 
L 393.842296 423.493811 
L 394.105103 423.591429 
L 394.367911 423.99817 
L 394.630718 425.461534 
L 394.893525 425.272626 
L 395.156332 425.356686 
L 395.419139 424.480836 
L 395.681947 424.4022 
L 395.944754 424.779113 
L 396.207561 427.415699 
L 396.470368 426.32021 
L 396.733176 426.847166 
L 396.995983 425.53294 
L 397.25879 425.381994 
L 397.521597 424.736631 
L 397.784405 425.21749 
L 398.047212 425.427187 
L 398.310019 425.405495 
L 398.572826 425.232856 
L 398.835634 424.394065 
L 399.361248 425.786023 
L 399.886863 423.661027 
L 400.412477 425.699252 
L 400.938092 424.637206 
L 401.200899 423.332019 
L 401.463706 424.674264 
L 401.726513 425.1497 
L 401.989321 425.247317 
L 402.252128 424.78996 
L 402.514935 425.527517 
L 402.777742 425.69654 
L 403.040549 425.57723 
L 403.303357 424.918309 
L 403.828971 426.411501 
L 404.091778 426.165648 
L 404.354586 426.29219 
L 404.617393 425.195797 
L 404.8802 426.566966 
L 405.143007 426.295806 
L 405.405815 426.361788 
L 405.668622 425.576326 
L 405.931429 426.59589 
L 406.194236 425.574518 
L 406.457044 425.052082 
L 406.719851 424.079519 
L 406.982658 424.275658 
L 407.245465 425.750773 
L 407.508273 425.937873 
L 407.77108 425.534748 
L 408.033887 424.693246 
L 408.296694 425.166873 
L 408.559502 426.106897 
L 408.822309 425.687502 
L 409.085116 424.933675 
L 409.873538 426.813723 
L 410.136345 426.620295 
L 410.399152 425.861948 
L 410.661959 426.568774 
L 410.924767 426.645603 
L 411.187574 426.597698 
L 411.450381 425.519382 
L 411.713188 426.524485 
L 411.975996 426.75226 
L 412.50161 425.997529 
L 412.764417 424.464567 
L 413.027225 426.233439 
L 413.290032 425.931546 
L 413.552839 426.066223 
L 413.815646 425.306069 
L 414.078454 425.445265 
L 414.341261 426.040915 
L 414.604068 425.985779 
L 414.866875 424.903847 
L 415.39249 427.141827 
L 415.655297 426.596794 
L 415.918104 426.60041 
L 416.180912 426.023741 
L 416.443719 427.288254 
L 416.706526 426.393423 
L 416.969333 426.188245 
L 417.232141 425.360301 
L 417.494948 425.795966 
L 417.757755 425.946912 
L 418.020562 425.84839 
L 418.546177 424.632686 
L 418.808984 426.823665 
L 419.071791 426.903206 
L 419.597406 425.561864 
L 419.860213 425.868276 
L 420.12302 426.35998 
L 420.385827 426.557024 
L 420.648635 425.792351 
L 420.911442 426.42054 
L 421.437056 426.566062 
L 421.699864 426.50008 
L 421.962671 425.256356 
L 422.225478 426.642891 
L 422.488285 426.768529 
L 422.751093 426.740509 
L 423.0139 425.644116 
L 423.539514 426.570582 
L 423.802322 426.618487 
L 424.327936 426.359076 
L 424.590743 427.141827 
L 425.379165 425.307877 
L 425.904779 426.649218 
L 426.430394 425.538363 
L 426.693201 426.732374 
L 426.956008 427.098441 
L 427.218816 426.826377 
L 427.481623 426.84355 
L 427.74443 426.241573 
L 428.007237 426.039107 
L 428.270045 427.318082 
L 428.532852 427.382256 
L 428.795659 426.510926 
L 429.058466 429.519003 
L 429.321274 429.779317 
L 429.584081 429.790164 
L 429.846888 427.206002 
L 430.109695 425.894488 
L 430.63531 430.613588 
L 430.898117 430.232156 
L 431.160924 427.802555 
L 431.423732 427.476259 
L 431.686539 428.471419 
L 431.949346 428.193027 
L 432.212153 428.388263 
L 432.474961 427.654321 
L 432.737768 428.084563 
L 433.000575 427.610935 
L 433.263382 427.453662 
L 433.526189 426.788414 
L 433.788997 426.425963 
L 434.051804 427.752843 
L 434.314611 427.322601 
L 434.577418 426.554312 
L 434.840226 426.945688 
L 435.103033 428.528362 
L 435.36584 428.522939 
L 435.628647 428.206585 
L 435.891455 427.223175 
L 436.154262 427.723015 
L 436.417069 427.764593 
L 436.942684 426.388 
L 437.205491 426.769433 
L 437.468298 427.896558 
L 437.731105 427.507894 
L 437.993913 427.529587 
L 438.25672 426.935745 
L 438.519527 428.768792 
L 438.782334 428.983008 
L 439.045142 428.585306 
L 439.307949 427.818825 
L 439.570756 428.068293 
L 439.833563 429.398788 
L 440.096371 429.255073 
L 440.359178 427.846845 
L 440.884792 430.416545 
L 441.147599 430.425584 
L 441.673214 428.57446 
L 441.936021 427.96706 
L 442.198828 429.493695 
L 442.461636 429.314728 
L 442.724443 428.409955 
L 442.98725 428.29878 
L 443.250057 428.549151 
L 443.512865 428.561805 
L 443.775672 428.792292 
L 444.038479 428.152353 
L 444.301286 429.135762 
L 444.564094 429.154744 
L 445.089708 427.676918 
L 445.352515 428.380128 
L 445.615323 429.851627 
L 446.140937 428.047504 
L 446.403744 428.287933 
L 446.666552 430.437334 
L 446.929359 430.218598 
L 447.192166 429.796491 
L 447.454973 428.769695 
L 447.717781 428.296068 
L 447.980588 429.509964 
L 448.243395 429.320152 
L 448.506202 428.537401 
L 448.769009 428.591633 
L 449.031817 428.97397 
L 449.294624 428.416283 
L 449.557431 428.426225 
L 449.820238 426.903206 
L 450.083046 428.689251 
L 450.345853 429.127628 
L 450.60866 428.47413 
L 450.871467 427.117423 
L 451.134275 427.133692 
L 451.397082 428.855563 
L 451.659889 429.539792 
L 451.922696 428.312338 
L 452.185504 428.249971 
L 452.448311 428.870929 
L 452.711118 428.82212 
L 452.973925 428.623269 
L 453.236733 427.779959 
L 453.49954 429.472002 
L 454.287962 427.448239 
L 454.813576 428.802235 
L 455.076383 427.883904 
L 455.339191 427.909212 
L 455.601998 427.25933 
L 455.864805 428.894429 
L 456.127612 429.01374 
L 456.390419 428.921545 
L 456.653227 428.168622 
L 457.178841 429.095992 
L 457.441648 429.168302 
L 457.704456 428.381936 
L 457.967263 429.187283 
L 458.23007 429.230669 
L 458.492877 429.462963 
L 459.018492 428.230989 
L 459.281299 428.29426 
L 459.544106 428.756137 
L 459.806914 428.590729 
L 460.069721 427.733861 
L 460.332528 428.175853 
L 460.595335 429.519003 
L 460.858143 428.628692 
L 461.12095 428.535593 
L 461.383757 427.938136 
L 461.646564 428.895333 
L 461.909372 430.92 
L 462.434986 429.293939 
L 462.697793 426.816434 
L 463.223408 427.572973 
L 463.486215 425.494074 
L 463.749022 426.849877 
L 464.011829 428.897141 
L 464.537444 426.231631 
L 465.063058 424.669745 
L 465.325866 425.719137 
L 465.85148 424.99333 
L 466.114287 425.754388 
L 466.377095 425.969509 
L 466.902709 425.727272 
L 467.165516 424.985195 
L 467.428324 426.749548 
L 467.953938 426.505503 
L 468.216745 425.653155 
L 468.479553 425.539267 
L 468.74236 425.866468 
L 469.267974 424.921925 
L 469.793589 426.018318 
L 470.056396 425.964086 
L 470.319203 425.761619 
L 470.58201 425.052986 
L 470.844818 426.176495 
L 471.107625 426.23615 
L 471.370432 426.158418 
L 471.633239 425.256356 
L 471.896047 424.982484 
L 472.158854 425.781504 
L 472.684468 425.651347 
L 472.947276 425.240086 
L 473.210083 427.302716 
L 473.735697 426.396135 
L 473.998505 425.659482 
L 474.261312 426.065319 
L 474.524119 425.554633 
L 474.786926 425.483227 
L 475.049734 424.860461 
L 475.312541 425.074678 
L 475.575348 425.143372 
L 475.838155 424.972541 
L 476.100963 424.647148 
L 476.36377 423.867109 
L 476.889384 425.692925 
L 477.152192 425.730887 
L 477.414999 425.196701 
L 477.677806 425.221105 
L 477.940613 426.350038 
L 478.20342 426.350038 
L 478.466228 426.200899 
L 478.729035 425.678463 
L 478.991842 428.087274 
L 479.254649 427.763689 
L 479.780264 425.606153 
L 480.043071 424.031613 
L 480.568686 423.83457 
L 480.831493 423.037357 
L 481.0943 423.329307 
L 481.357107 424.911982 
L 481.619915 424.747478 
L 481.882722 424.779113 
L 482.145529 422.983125 
L 482.408336 422.426342 
L 482.671144 422.409168 
L 482.933951 421.978927 
L 483.196758 421.316391 
L 483.459565 421.637264 
L 483.722373 422.272684 
L 483.98518 422.30432 
L 484.247987 422.043101 
L 484.510794 421.08952 
L 484.773602 423.22717 
L 485.036409 423.2109 
L 485.299216 422.778851 
L 485.562023 421.907521 
L 485.82483 422.497748 
L 486.087638 423.817397 
L 486.350445 423.178361 
L 486.613252 421.810807 
L 486.876059 421.39322 
L 487.138867 422.345898 
L 487.664481 420.918688 
L 487.927288 421.066923 
L 488.190096 420.907842 
L 488.71571 421.103078 
L 488.978517 420.716222 
L 489.241325 420.731587 
L 489.504132 421.492645 
L 489.766939 421.522473 
L 490.029746 421.207023 
L 490.292554 420.586968 
L 490.555361 421.851481 
L 490.818168 422.389283 
L 491.080975 422.049429 
L 491.343783 421.191657 
L 491.60659 421.466433 
L 492.132204 421.051557 
L 492.395012 420.25796 
L 492.657819 420.408002 
L 492.920626 421.87679 
L 493.183433 422.070218 
L 493.44624 421.78821 
L 493.709048 420.767742 
L 493.971855 420.21367 
L 494.234662 421.605629 
L 494.497469 421.480895 
L 494.760277 423.109667 
L 495.023084 423.310326 
L 495.285891 424.084038 
L 495.548698 421.551397 
L 495.811506 421.455587 
L 496.074313 420.823782 
L 496.33712 424.878539 
L 496.599927 423.725202 
L 496.862735 420.227228 
L 497.125542 421.911137 
L 497.388349 421.279332 
L 497.651156 419.165182 
L 497.913964 419.012428 
L 498.176771 419.081122 
L 498.439578 417.831071 
L 498.702385 417.930497 
L 498.965193 420.683682 
L 499.490807 419.542096 
L 499.753614 419.777102 
L 500.016422 418.366162 
L 500.542036 416.95703 
L 500.804843 416.734678 
L 501.06765 417.441504 
L 501.593265 417.05284 
L 501.856072 416.270089 
L 502.118879 417.98021 
L 502.381687 417.611431 
L 502.907301 415.983563 
L 503.170108 416.638868 
L 503.432916 417.650298 
L 504.221337 416.086604 
L 504.484145 418.492704 
L 504.746952 418.333623 
L 505.272566 417.213729 
L 505.535374 415.963678 
L 505.798181 416.87297 
L 506.060988 416.723832 
L 506.323795 415.977236 
L 506.84941 416.50148 
L 507.637832 414.575335 
L 507.900639 416.275513 
L 508.163446 416.56927 
L 508.426253 416.503288 
L 508.68906 415.568687 
L 508.951868 415.715114 
L 509.214675 416.503288 
L 509.477482 416.427363 
L 509.740289 416.165241 
L 510.003097 415.046251 
L 510.265904 416.696716 
L 510.528711 416.488826 
L 510.791518 416.533115 
L 511.054326 415.856117 
L 511.317133 416.37313 
L 511.57994 415.953735 
L 511.842747 416.022429 
L 512.105555 414.59522 
L 512.368362 415.166465 
L 512.631169 417.09713 
L 512.893976 416.891047 
L 513.419591 415.424972 
L 513.682398 416.694004 
L 514.208013 416.477979 
L 514.47082 415.264987 
L 514.733627 415.148388 
L 514.996434 415.480108 
L 515.522049 414.308693 
L 515.784856 413.584694 
L 516.31047 413.208685 
L 516.573278 412.423222 
L 516.836085 412.225275 
L 517.098892 413.450922 
L 517.361699 413.744679 
L 517.624507 413.106548 
L 517.887314 411.450659 
L 518.150121 411.273501 
L 518.412928 413.040565 
L 518.938543 411.747128 
L 519.20135 411.111708 
L 519.464157 412.316566 
L 519.726965 412.334643 
L 519.989772 412.17737 
L 520.252579 412.678114 
L 520.515386 412.754039 
L 520.778194 413.319861 
L 521.041001 413.189703 
L 521.303808 413.241224 
L 521.566615 412.321085 
L 522.355037 411.914344 
L 522.617844 411.095439 
L 522.880652 412.256911 
L 523.143459 412.6049 
L 523.406266 412.178274 
L 523.669073 410.893876 
L 523.93188 411.197576 
L 524.194688 413.624465 
L 524.457495 412.499147 
L 524.720302 412.390683 
L 524.983109 411.726339 
L 525.245917 412.391587 
L 525.771531 412.421415 
L 526.034338 411.368407 
L 526.297146 411.691088 
L 526.559953 412.889619 
L 526.82276 412.827252 
L 527.085567 412.583207 
L 527.348375 411.658549 
L 527.611182 415.347239 
L 527.873989 415.601226 
L 528.136796 415.136638 
L 528.399604 412.509994 
L 528.662411 412.935716 
L 528.925218 412.567842 
L 529.450833 411.381061 
L 529.71364 410.938166 
L 529.976447 412.588631 
L 530.239254 412.480166 
L 530.502062 411.91344 
L 530.764869 411.734474 
L 531.027676 412.049925 
L 531.290483 413.263821 
L 531.55329 412.98091 
L 531.816098 411.923383 
L 532.078905 412.021905 
L 532.341712 413.176145 
L 532.867327 412.061675 
L 533.130134 410.1753 
L 533.392941 410.689602 
L 533.655748 410.695929 
L 533.918556 410.914665 
L 534.181363 410.139145 
L 534.44417 410.37144 
L 534.706977 409.473898 
L 534.969785 409.146697 
L 535.232592 408.019572 
L 535.495399 407.588427 
L 535.758206 408.154249 
L 536.283821 406.420628 
L 536.546628 406.34651 
L 536.809435 406.871658 
L 537.33505 408.538393 
L 537.860664 408.020476 
L 538.123472 409.089753 
L 538.386279 409.415146 
L 538.649086 409.386222 
L 538.911893 409.130427 
L 539.1747 410.241282 
L 539.437508 410.268399 
L 539.700315 409.489263 
L 539.963122 408.090074 
L 540.488737 409.564284 
L 540.751544 409.225334 
L 541.014351 408.64053 
L 541.277158 407.180782 
L 541.539966 408.545624 
L 541.802773 408.620645 
L 542.328387 407.087683 
L 542.591195 407.783662 
L 542.854002 409.034617 
L 543.116809 408.955981 
L 543.379616 407.950878 
L 543.642424 408.309714 
L 543.905231 409.971929 
L 544.168038 409.636594 
L 544.430845 409.507341 
L 544.693653 408.097305 
L 544.95646 408.962308 
L 545.482074 409.054502 
L 545.744882 407.890319 
L 546.007689 409.048175 
L 546.270496 409.278662 
L 546.533303 408.22475 
L 546.79611 407.771912 
L 547.058918 406.837311 
L 547.321725 410.270206 
L 547.847339 409.494687 
L 548.110147 407.939128 
L 548.372954 407.929185 
L 548.635761 408.298868 
L 548.898568 408.415467 
L 549.161376 407.870434 
L 549.424183 408.249155 
L 549.68699 408.933384 
L 549.949797 409.057214 
L 550.212605 408.321464 
L 550.475412 408.238308 
L 550.738219 408.636011 
L 551.526641 406.553496 
L 551.789448 407.485386 
L 552.57787 405.928923 
L 552.840677 405.546586 
L 553.103484 406.271489 
L 553.629099 405.104594 
L 553.891906 404.091357 
L 554.41752 405.682167 
L 554.680328 405.689398 
L 554.943135 403.907872 
L 555.731557 406.144948 
L 555.994364 406.264258 
L 556.257171 405.448065 
L 556.519978 406.575189 
L 556.782786 405.812324 
L 557.045593 405.987674 
L 557.3084 404.638198 
L 557.571207 404.477309 
L 557.834015 406.140428 
L 558.096822 406.029252 
L 558.359629 404.987995 
L 558.885244 404.014528 
L 559.410858 404.508041 
L 559.673665 403.403513 
L 559.936473 403.284202 
L 560.19928 403.907872 
L 560.462087 406.609536 
L 560.724894 406.052753 
L 560.987702 406.552593 
L 561.250509 405.656858 
L 561.513316 405.636973 
L 561.776123 405.245598 
L 562.301738 408.598952 
L 562.564545 404.574023 
L 562.827352 403.970239 
L 563.352967 404.324555 
L 563.615774 403.772291 
L 564.141388 403.55717 
L 564.404196 402.837691 
L 564.667003 404.850607 
L 564.92981 404.80451 
L 565.192617 404.420365 
L 565.455425 403.361031 
L 565.718232 403.689135 
L 565.981039 404.809029 
L 566.243846 404.531541 
L 566.506654 403.454129 
L 566.769461 403.480341 
L 567.032268 404.67616 
L 567.557883 404.082318 
L 567.82069 402.964232 
L 568.083497 402.703014 
L 568.346304 401.908513 
L 568.609112 400.192066 
L 568.871919 400.291491 
L 569.397533 403.219123 
L 569.66034 402.263734 
L 569.923148 402.341466 
L 570.185955 401.277612 
L 570.448762 401.372519 
L 570.711569 401.151975 
L 571.237184 399.535857 
L 571.499991 399.471682 
L 571.762798 400.399956 
L 572.025606 400.305049 
L 572.288413 399.044152 
L 572.55122 398.763952 
L 572.814027 401.304729 
L 573.076835 401.401443 
L 573.339642 401.001028 
L 573.602449 400.321319 
L 573.865256 400.214662 
L 574.128064 401.184514 
L 574.390871 400.960354 
L 574.653678 400.324934 
L 574.916485 400.450572 
L 575.179293 398.600352 
L 575.704907 398.315633 
L 575.967714 396.717593 
L 576.230522 399.308986 
L 576.756136 398.972746 
L 577.018943 398.048992 
L 577.28175 398.481945 
L 577.544558 399.7094 
L 578.070172 398.292133 
L 578.332979 398.482849 
L 578.595787 400.810312 
L 579.121401 400.164046 
L 579.384208 399.585569 
L 579.647016 399.811537 
L 579.909823 399.586473 
L 580.17263 398.782934 
L 580.435437 398.970938 
L 580.961052 398.746779 
L 581.223859 399.020651 
L 581.486666 398.820896 
L 581.749474 398.128532 
L 582.012281 399.552126 
L 582.275088 400.353858 
L 582.800703 398.488272 
L 583.326317 399.792555 
L 583.851932 399.215887 
L 584.114739 398.447598 
L 584.377546 400.308665 
L 584.640353 400.308665 
L 584.90316 400.124275 
L 585.165968 398.909475 
L 585.428775 399.124596 
L 585.954389 397.641347 
L 586.217197 395.853494 
L 586.480004 395.542563 
L 586.742811 396.909213 
L 587.005618 396.813403 
L 587.531233 395.642892 
L 587.79404 394.585366 
L 588.056847 395.856205 
L 588.582462 393.725786 
L 589.108076 394.464247 
L 589.370884 393.720363 
L 589.633691 393.707709 
L 589.896498 392.811974 
L 590.159305 394.80139 
L 590.68492 394.814948 
L 591.210534 394.118969 
L 591.473342 394.658579 
L 591.736149 394.342225 
L 591.998956 394.876411 
L 592.261763 393.665227 
L 592.52457 394.131623 
L 592.787378 394.063833 
L 593.050185 393.465472 
L 593.312992 395.800166 
L 593.575799 394.607962 
L 593.838607 396.012575 
L 594.101414 393.921926 
L 594.627028 393.108443 
L 594.889836 393.388643 
L 595.152643 392.912304 
L 595.41545 392.93942 
L 595.678257 392.022897 
L 595.941065 392.205478 
L 596.203872 393.440163 
L 596.466679 393.498011 
L 596.729486 392.6312 
L 597.255101 393.205157 
L 597.517908 393.435644 
L 598.043523 391.655022 
L 598.569137 392.922246 
L 598.831944 392.952978 
L 599.094752 391.846642 
L 599.620366 394.727273 
L 599.883173 394.554634 
L 600.14598 394.567288 
L 600.408788 393.800807 
L 600.671595 394.506729 
L 600.934402 394.576327 
L 601.197209 394.491363 
L 601.460017 393.610091 
L 601.722824 394.010505 
L 601.985631 394.725465 
L 602.248438 394.456112 
L 602.511246 394.556442 
L 602.774053 392.879765 
L 603.03686 394.251838 
L 603.299667 393.977965 
L 604.088089 391.626098 
L 604.350896 393.413047 
L 605.139318 390.750249 
L 605.402125 391.637848 
L 605.664933 391.505883 
L 605.92774 390.866848 
L 606.190547 389.671029 
L 606.453354 390.142849 
L 606.978969 388.312514 
L 607.241776 387.545129 
L 607.76739 389.667414 
L 608.030198 389.680972 
L 608.555812 388.712928 
L 608.818619 389.637586 
L 609.081427 389.791244 
L 609.344234 389.436023 
L 609.607041 388.585482 
L 610.132656 390.413106 
L 610.395463 390.336277 
L 610.921077 387.917523 
L 611.446692 388.465268 
L 611.972306 386.812091 
L 612.235114 387.852444 
L 612.760728 387.743076 
L 613.023535 386.943152 
L 613.811957 389.118765 
L 614.337572 388.136259 
L 614.600379 388.869297 
L 615.125993 389.051879 
L 615.3888 387.997064 
L 615.651608 388.653273 
L 615.914415 388.672254 
L 616.702837 387.069694 
L 616.965644 388.238397 
L 617.491258 387.99164 
L 617.754066 387.352605 
L 618.016873 387.804539 
L 618.27968 388.928049 
L 618.542487 388.540289 
L 618.805295 388.977762 
L 619.068102 398.809146 
L 619.330909 396.422028 
L 619.330909 396.422028 
" style="fill:none;stroke:#1f77b4;stroke-linecap:square;stroke-width:1.5;"/>
   </g>
   <g id="patch_3">
    <path d="M 108 448.56 
L 108 60.48 
" style="fill:none;stroke:#000000;stroke-linecap:square;stroke-linejoin:miter;stroke-width:0.8;"/>
   </g>
   <g id="patch_4">
    <path d="M 643.68 448.56 
L 643.68 60.48 
" style="fill:none;stroke:#000000;stroke-linecap:square;stroke-linejoin:miter;stroke-width:0.8;"/>
   </g>
   <g id="patch_5">
    <path d="M 108 448.56 
L 643.68 448.56 
" style="fill:none;stroke:#000000;stroke-linecap:square;stroke-linejoin:miter;stroke-width:0.8;"/>
   </g>
   <g id="patch_6">
    <path d="M 108 60.48 
L 643.68 60.48 
" style="fill:none;stroke:#000000;stroke-linecap:square;stroke-linejoin:miter;stroke-width:0.8;"/>
   </g>
   <g id="text_33">
    <!-- unikernel_allocpool - free -->
    <g transform="translate(281.654063 54.48)scale(0.15 -0.15)">
     <defs>
      <path d="M 8.5 21.578125 
L 8.5 54.6875 
L 17.484375 54.6875 
L 17.484375 21.921875 
Q 17.484375 14.15625 20.5 10.265625 
Q 23.53125 6.390625 29.59375 6.390625 
Q 36.859375 6.390625 41.078125 11.03125 
Q 45.3125 15.671875 45.3125 23.6875 
L 45.3125 54.6875 
L 54.296875 54.6875 
L 54.296875 0 
L 45.3125 0 
L 45.3125 8.40625 
Q 42.046875 3.421875 37.71875 1 
Q 33.40625 -1.421875 27.6875 -1.421875 
Q 18.265625 -1.421875 13.375 4.4375 
Q 8.5 10.296875 8.5 21.578125 
z
M 31.109375 56 
z
" id="DejaVuSans-117"/>
      <path d="M 54.890625 33.015625 
L 54.890625 0 
L 45.90625 0 
L 45.90625 32.71875 
Q 45.90625 40.484375 42.875 44.328125 
Q 39.84375 48.1875 33.796875 48.1875 
Q 26.515625 48.1875 22.3125 43.546875 
Q 18.109375 38.921875 18.109375 30.90625 
L 18.109375 0 
L 9.078125 0 
L 9.078125 54.6875 
L 18.109375 54.6875 
L 18.109375 46.1875 
Q 21.34375 51.125 25.703125 53.5625 
Q 30.078125 56 35.796875 56 
Q 45.21875 56 50.046875 50.171875 
Q 54.890625 44.34375 54.890625 33.015625 
z
" id="DejaVuSans-110"/>
      <path d="M 9.078125 75.984375 
L 18.109375 75.984375 
L 18.109375 31.109375 
L 44.921875 54.6875 
L 56.390625 54.6875 
L 27.390625 29.109375 
L 57.625 0 
L 45.90625 0 
L 18.109375 26.703125 
L 18.109375 0 
L 9.078125 0 
z
" id="DejaVuSans-107"/>
      <path d="M 41.109375 46.296875 
Q 39.59375 47.171875 37.8125 47.578125 
Q 36.03125 48 33.890625 48 
Q 26.265625 48 22.1875 43.046875 
Q 18.109375 38.09375 18.109375 28.8125 
L 18.109375 0 
L 9.078125 0 
L 9.078125 54.6875 
L 18.109375 54.6875 
L 18.109375 46.1875 
Q 20.953125 51.171875 25.484375 53.578125 
Q 30.03125 56 36.53125 56 
Q 37.453125 56 38.578125 55.875 
Q 39.703125 55.765625 41.0625 55.515625 
z
" id="DejaVuSans-114"/>
      <path d="M 9.421875 75.984375 
L 18.40625 75.984375 
L 18.40625 0 
L 9.421875 0 
z
" id="DejaVuSans-108"/>
      <path d="M 50.984375 -16.609375 
L 50.984375 -23.578125 
L -0.984375 -23.578125 
L -0.984375 -16.609375 
z
" id="DejaVuSans-95"/>
      <path d="M 30.609375 48.390625 
Q 23.390625 48.390625 19.1875 42.75 
Q 14.984375 37.109375 14.984375 27.296875 
Q 14.984375 17.484375 19.15625 11.84375 
Q 23.34375 6.203125 30.609375 6.203125 
Q 37.796875 6.203125 41.984375 11.859375 
Q 46.1875 17.53125 46.1875 27.296875 
Q 46.1875 37.015625 41.984375 42.703125 
Q 37.796875 48.390625 30.609375 48.390625 
z
M 30.609375 56 
Q 42.328125 56 49.015625 48.375 
Q 55.71875 40.765625 55.71875 27.296875 
Q 55.71875 13.875 49.015625 6.21875 
Q 42.328125 -1.421875 30.609375 -1.421875 
Q 18.84375 -1.421875 12.171875 6.21875 
Q 5.515625 13.875 5.515625 27.296875 
Q 5.515625 40.765625 12.171875 48.375 
Q 18.84375 56 30.609375 56 
z
" id="DejaVuSans-111"/>
      <path d="M 48.78125 52.59375 
L 48.78125 44.1875 
Q 44.96875 46.296875 41.140625 47.34375 
Q 37.3125 48.390625 33.40625 48.390625 
Q 24.65625 48.390625 19.8125 42.84375 
Q 14.984375 37.3125 14.984375 27.296875 
Q 14.984375 17.28125 19.8125 11.734375 
Q 24.65625 6.203125 33.40625 6.203125 
Q 37.3125 6.203125 41.140625 7.25 
Q 44.96875 8.296875 48.78125 10.40625 
L 48.78125 2.09375 
Q 45.015625 0.34375 40.984375 -0.53125 
Q 36.96875 -1.421875 32.421875 -1.421875 
Q 20.0625 -1.421875 12.78125 6.34375 
Q 5.515625 14.109375 5.515625 27.296875 
Q 5.515625 40.671875 12.859375 48.328125 
Q 20.21875 56 33.015625 56 
Q 37.15625 56 41.109375 55.140625 
Q 45.0625 54.296875 48.78125 52.59375 
z
" id="DejaVuSans-99"/>
      <path id="DejaVuSans-32"/>
      <path d="M 4.890625 31.390625 
L 31.203125 31.390625 
L 31.203125 23.390625 
L 4.890625 23.390625 
z
" id="DejaVuSans-45"/>
      <path d="M 37.109375 75.984375 
L 37.109375 68.5 
L 28.515625 68.5 
Q 23.6875 68.5 21.796875 66.546875 
Q 19.921875 64.59375 19.921875 59.515625 
L 19.921875 54.6875 
L 34.71875 54.6875 
L 34.71875 47.703125 
L 19.921875 47.703125 
L 19.921875 0 
L 10.890625 0 
L 10.890625 47.703125 
L 2.296875 47.703125 
L 2.296875 54.6875 
L 10.890625 54.6875 
L 10.890625 58.5 
Q 10.890625 67.625 15.140625 71.796875 
Q 19.390625 75.984375 28.609375 75.984375 
z
" id="DejaVuSans-102"/>
     </defs>
     <use xlink:href="#DejaVuSans-117"/>
     <use x="63.378906" xlink:href="#DejaVuSans-110"/>
     <use x="126.757812" xlink:href="#DejaVuSans-105"/>
     <use x="154.541016" xlink:href="#DejaVuSans-107"/>
     <use x="208.826172" xlink:href="#DejaVuSans-101"/>
     <use x="270.349609" xlink:href="#DejaVuSans-114"/>
     <use x="309.712891" xlink:href="#DejaVuSans-110"/>
     <use x="373.091797" xlink:href="#DejaVuSans-101"/>
     <use x="434.615234" xlink:href="#DejaVuSans-108"/>
     <use x="462.398438" xlink:href="#DejaVuSans-95"/>
     <use x="512.398438" xlink:href="#DejaVuSans-97"/>
     <use x="573.677734" xlink:href="#DejaVuSans-108"/>
     <use x="601.460938" xlink:href="#DejaVuSans-108"/>
     <use x="629.244141" xlink:href="#DejaVuSans-111"/>
     <use x="690.425781" xlink:href="#DejaVuSans-99"/>
     <use x="745.40625" xlink:href="#DejaVuSans-112"/>
     <use x="808.882812" xlink:href="#DejaVuSans-111"/>
     <use x="870.064453" xlink:href="#DejaVuSans-111"/>
     <use x="931.246094" xlink:href="#DejaVuSans-108"/>
     <use x="959.029297" xlink:href="#DejaVuSans-32"/>
     <use x="990.816406" xlink:href="#DejaVuSans-45"/>
     <use x="1026.900391" xlink:href="#DejaVuSans-32"/>
     <use x="1058.6875" xlink:href="#DejaVuSans-102"/>
     <use x="1093.892578" xlink:href="#DejaVuSans-114"/>
     <use x="1132.755859" xlink:href="#DejaVuSans-101"/>
     <use x="1194.279297" xlink:href="#DejaVuSans-101"/>
    </g>
   </g>
   <g id="legend_1">
    <g id="patch_7">
     <path d="M 650.68 258.52 
L 654.68 258.52 
Q 656.68 258.52 656.68 256.52 
L 656.68 252.52 
Q 656.68 250.52 654.68 250.52 
L 650.68 250.52 
Q 648.68 250.52 648.68 252.52 
L 648.68 256.52 
Q 648.68 258.52 650.68 258.52 
z
" style="fill:#ffffff;opacity:0.8;stroke:#cccccc;stroke-linejoin:miter;"/>
    </g>
   </g>
  </g>
 </g>
 <defs>
  <clipPath id="p9423a23e46">
   <rect height="388.08" width="535.68" x="108" y="60.48"/>
  </clipPath>
 </defs>
</svg>
