<?xml version="1.0" encoding="utf-8" standalone="no"?>
<!DOCTYPE svg PUBLIC "-//W3C//DTD SVG 1.1//EN"
  "http://www.w3.org/Graphics/SVG/1.1/DTD/svg11.dtd">
<!-- Created with matplotlib (https://matplotlib.org/) -->
<svg height="504pt" version="1.1" viewBox="0 0 864 504" width="864pt" xmlns="http://www.w3.org/2000/svg" xmlns:xlink="http://www.w3.org/1999/xlink">
 <metadata>
  <rdf:RDF xmlns:cc="http://creativecommons.org/ns#" xmlns:dc="http://purl.org/dc/elements/1.1/" xmlns:rdf="http://www.w3.org/1999/02/22-rdf-syntax-ns#">
   <cc:Work>
    <dc:type rdf:resource="http://purl.org/dc/dcmitype/StillImage"/>
    <dc:date>2022-05-29T16:53:49.894967</dc:date>
    <dc:format>image/svg+xml</dc:format>
    <dc:creator>
     <cc:Agent>
      <dc:title>Matplotlib v3.3.4, https://matplotlib.org/</dc:title>
     </cc:Agent>
    </dc:creator>
   </cc:Work>
  </rdf:RDF>
 </metadata>
 <defs>
  <style type="text/css">*{stroke-linecap:butt;stroke-linejoin:round;}</style>
 </defs>
 <g id="figure_1">
  <g id="patch_1">
   <path d="M 0 504 
L 864 504 
L 864 0 
L 0 0 
z
" style="fill:#ffffff;"/>
  </g>
  <g id="axes_1">
   <g id="patch_2">
    <path d="M 108 448.56 
L 643.68 448.56 
L 643.68 60.48 
L 108 60.48 
z
" style="fill:#ffffff;"/>
   </g>
   <g id="matplotlib.axis_1">
    <g id="xtick_1">
     <g id="line2d_1">
      <defs>
       <path d="M 0 0 
L 0 3.5 
" id="m253d0955e0" style="stroke:#000000;stroke-width:0.8;"/>
      </defs>
      <g>
       <use style="stroke:#000000;stroke-width:0.8;" x="132.349091" xlink:href="#m253d0955e0" y="448.56"/>
      </g>
     </g>
     <g id="text_1">
      <!-- 21:54:22 -->
      <g transform="translate(135.108466 500.4725)rotate(-90)scale(0.1 -0.1)">
       <defs>
        <path d="M 19.1875 8.296875 
L 53.609375 8.296875 
L 53.609375 0 
L 7.328125 0 
L 7.328125 8.296875 
Q 12.9375 14.109375 22.625 23.890625 
Q 32.328125 33.6875 34.8125 36.53125 
Q 39.546875 41.84375 41.421875 45.53125 
Q 43.3125 49.21875 43.3125 52.78125 
Q 43.3125 58.59375 39.234375 62.25 
Q 35.15625 65.921875 28.609375 65.921875 
Q 23.96875 65.921875 18.8125 64.3125 
Q 13.671875 62.703125 7.8125 59.421875 
L 7.8125 69.390625 
Q 13.765625 71.78125 18.9375 73 
Q 24.125 74.21875 28.421875 74.21875 
Q 39.75 74.21875 46.484375 68.546875 
Q 53.21875 62.890625 53.21875 53.421875 
Q 53.21875 48.921875 51.53125 44.890625 
Q 49.859375 40.875 45.40625 35.40625 
Q 44.1875 33.984375 37.640625 27.21875 
Q 31.109375 20.453125 19.1875 8.296875 
z
" id="DejaVuSans-50"/>
        <path d="M 12.40625 8.296875 
L 28.515625 8.296875 
L 28.515625 63.921875 
L 10.984375 60.40625 
L 10.984375 69.390625 
L 28.421875 72.90625 
L 38.28125 72.90625 
L 38.28125 8.296875 
L 54.390625 8.296875 
L 54.390625 0 
L 12.40625 0 
z
" id="DejaVuSans-49"/>
        <path d="M 11.71875 12.40625 
L 22.015625 12.40625 
L 22.015625 0 
L 11.71875 0 
z
M 11.71875 51.703125 
L 22.015625 51.703125 
L 22.015625 39.3125 
L 11.71875 39.3125 
z
" id="DejaVuSans-58"/>
        <path d="M 10.796875 72.90625 
L 49.515625 72.90625 
L 49.515625 64.59375 
L 19.828125 64.59375 
L 19.828125 46.734375 
Q 21.96875 47.46875 24.109375 47.828125 
Q 26.265625 48.1875 28.421875 48.1875 
Q 40.625 48.1875 47.75 41.5 
Q 54.890625 34.8125 54.890625 23.390625 
Q 54.890625 11.625 47.5625 5.09375 
Q 40.234375 -1.421875 26.90625 -1.421875 
Q 22.3125 -1.421875 17.546875 -0.640625 
Q 12.796875 0.140625 7.71875 1.703125 
L 7.71875 11.625 
Q 12.109375 9.234375 16.796875 8.0625 
Q 21.484375 6.890625 26.703125 6.890625 
Q 35.15625 6.890625 40.078125 11.328125 
Q 45.015625 15.765625 45.015625 23.390625 
Q 45.015625 31 40.078125 35.4375 
Q 35.15625 39.890625 26.703125 39.890625 
Q 22.75 39.890625 18.8125 39.015625 
Q 14.890625 38.140625 10.796875 36.28125 
z
" id="DejaVuSans-53"/>
        <path d="M 37.796875 64.3125 
L 12.890625 25.390625 
L 37.796875 25.390625 
z
M 35.203125 72.90625 
L 47.609375 72.90625 
L 47.609375 25.390625 
L 58.015625 25.390625 
L 58.015625 17.1875 
L 47.609375 17.1875 
L 47.609375 0 
L 37.796875 0 
L 37.796875 17.1875 
L 4.890625 17.1875 
L 4.890625 26.703125 
z
" id="DejaVuSans-52"/>
       </defs>
       <use xlink:href="#DejaVuSans-50"/>
       <use x="63.623047" xlink:href="#DejaVuSans-49"/>
       <use x="127.246094" xlink:href="#DejaVuSans-58"/>
       <use x="160.9375" xlink:href="#DejaVuSans-53"/>
       <use x="224.560547" xlink:href="#DejaVuSans-52"/>
       <use x="288.183594" xlink:href="#DejaVuSans-58"/>
       <use x="321.875" xlink:href="#DejaVuSans-50"/>
       <use x="385.498047" xlink:href="#DejaVuSans-50"/>
      </g>
     </g>
    </g>
    <g id="xtick_2">
     <g id="line2d_2">
      <g>
       <use style="stroke:#000000;stroke-width:0.8;" x="156.596089" xlink:href="#m253d0955e0" y="448.56"/>
      </g>
     </g>
     <g id="text_2">
      <!-- 21:56:04 -->
      <g transform="translate(159.355464 500.4725)rotate(-90)scale(0.1 -0.1)">
       <defs>
        <path d="M 33.015625 40.375 
Q 26.375 40.375 22.484375 35.828125 
Q 18.609375 31.296875 18.609375 23.390625 
Q 18.609375 15.53125 22.484375 10.953125 
Q 26.375 6.390625 33.015625 6.390625 
Q 39.65625 6.390625 43.53125 10.953125 
Q 47.40625 15.53125 47.40625 23.390625 
Q 47.40625 31.296875 43.53125 35.828125 
Q 39.65625 40.375 33.015625 40.375 
z
M 52.59375 71.296875 
L 52.59375 62.3125 
Q 48.875 64.0625 45.09375 64.984375 
Q 41.3125 65.921875 37.59375 65.921875 
Q 27.828125 65.921875 22.671875 59.328125 
Q 17.53125 52.734375 16.796875 39.40625 
Q 19.671875 43.65625 24.015625 45.921875 
Q 28.375 48.1875 33.59375 48.1875 
Q 44.578125 48.1875 50.953125 41.515625 
Q 57.328125 34.859375 57.328125 23.390625 
Q 57.328125 12.15625 50.6875 5.359375 
Q 44.046875 -1.421875 33.015625 -1.421875 
Q 20.359375 -1.421875 13.671875 8.265625 
Q 6.984375 17.96875 6.984375 36.375 
Q 6.984375 53.65625 15.1875 63.9375 
Q 23.390625 74.21875 37.203125 74.21875 
Q 40.921875 74.21875 44.703125 73.484375 
Q 48.484375 72.75 52.59375 71.296875 
z
" id="DejaVuSans-54"/>
        <path d="M 31.78125 66.40625 
Q 24.171875 66.40625 20.328125 58.90625 
Q 16.5 51.421875 16.5 36.375 
Q 16.5 21.390625 20.328125 13.890625 
Q 24.171875 6.390625 31.78125 6.390625 
Q 39.453125 6.390625 43.28125 13.890625 
Q 47.125 21.390625 47.125 36.375 
Q 47.125 51.421875 43.28125 58.90625 
Q 39.453125 66.40625 31.78125 66.40625 
z
M 31.78125 74.21875 
Q 44.046875 74.21875 50.515625 64.515625 
Q 56.984375 54.828125 56.984375 36.375 
Q 56.984375 17.96875 50.515625 8.265625 
Q 44.046875 -1.421875 31.78125 -1.421875 
Q 19.53125 -1.421875 13.0625 8.265625 
Q 6.59375 17.96875 6.59375 36.375 
Q 6.59375 54.828125 13.0625 64.515625 
Q 19.53125 74.21875 31.78125 74.21875 
z
" id="DejaVuSans-48"/>
       </defs>
       <use xlink:href="#DejaVuSans-50"/>
       <use x="63.623047" xlink:href="#DejaVuSans-49"/>
       <use x="127.246094" xlink:href="#DejaVuSans-58"/>
       <use x="160.9375" xlink:href="#DejaVuSans-53"/>
       <use x="224.560547" xlink:href="#DejaVuSans-54"/>
       <use x="288.183594" xlink:href="#DejaVuSans-58"/>
       <use x="321.875" xlink:href="#DejaVuSans-48"/>
       <use x="385.498047" xlink:href="#DejaVuSans-52"/>
      </g>
     </g>
    </g>
    <g id="xtick_3">
     <g id="line2d_3">
      <g>
       <use style="stroke:#000000;stroke-width:0.8;" x="180.843087" xlink:href="#m253d0955e0" y="448.56"/>
      </g>
     </g>
     <g id="text_3">
      <!-- 21:57:47 -->
      <g transform="translate(183.602462 500.4725)rotate(-90)scale(0.1 -0.1)">
       <defs>
        <path d="M 8.203125 72.90625 
L 55.078125 72.90625 
L 55.078125 68.703125 
L 28.609375 0 
L 18.3125 0 
L 43.21875 64.59375 
L 8.203125 64.59375 
z
" id="DejaVuSans-55"/>
       </defs>
       <use xlink:href="#DejaVuSans-50"/>
       <use x="63.623047" xlink:href="#DejaVuSans-49"/>
       <use x="127.246094" xlink:href="#DejaVuSans-58"/>
       <use x="160.9375" xlink:href="#DejaVuSans-53"/>
       <use x="224.560547" xlink:href="#DejaVuSans-55"/>
       <use x="288.183594" xlink:href="#DejaVuSans-58"/>
       <use x="321.875" xlink:href="#DejaVuSans-52"/>
       <use x="385.498047" xlink:href="#DejaVuSans-55"/>
      </g>
     </g>
    </g>
    <g id="xtick_4">
     <g id="line2d_4">
      <g>
       <use style="stroke:#000000;stroke-width:0.8;" x="205.090086" xlink:href="#m253d0955e0" y="448.56"/>
      </g>
     </g>
     <g id="text_4">
      <!-- 21:59:31 -->
      <g transform="translate(207.849461 500.4725)rotate(-90)scale(0.1 -0.1)">
       <defs>
        <path d="M 10.984375 1.515625 
L 10.984375 10.5 
Q 14.703125 8.734375 18.5 7.8125 
Q 22.3125 6.890625 25.984375 6.890625 
Q 35.75 6.890625 40.890625 13.453125 
Q 46.046875 20.015625 46.78125 33.40625 
Q 43.953125 29.203125 39.59375 26.953125 
Q 35.25 24.703125 29.984375 24.703125 
Q 19.046875 24.703125 12.671875 31.3125 
Q 6.296875 37.9375 6.296875 49.421875 
Q 6.296875 60.640625 12.9375 67.421875 
Q 19.578125 74.21875 30.609375 74.21875 
Q 43.265625 74.21875 49.921875 64.515625 
Q 56.59375 54.828125 56.59375 36.375 
Q 56.59375 19.140625 48.40625 8.859375 
Q 40.234375 -1.421875 26.421875 -1.421875 
Q 22.703125 -1.421875 18.890625 -0.6875 
Q 15.09375 0.046875 10.984375 1.515625 
z
M 30.609375 32.421875 
Q 37.25 32.421875 41.125 36.953125 
Q 45.015625 41.5 45.015625 49.421875 
Q 45.015625 57.28125 41.125 61.84375 
Q 37.25 66.40625 30.609375 66.40625 
Q 23.96875 66.40625 20.09375 61.84375 
Q 16.21875 57.28125 16.21875 49.421875 
Q 16.21875 41.5 20.09375 36.953125 
Q 23.96875 32.421875 30.609375 32.421875 
z
" id="DejaVuSans-57"/>
        <path d="M 40.578125 39.3125 
Q 47.65625 37.796875 51.625 33 
Q 55.609375 28.21875 55.609375 21.1875 
Q 55.609375 10.40625 48.1875 4.484375 
Q 40.765625 -1.421875 27.09375 -1.421875 
Q 22.515625 -1.421875 17.65625 -0.515625 
Q 12.796875 0.390625 7.625 2.203125 
L 7.625 11.71875 
Q 11.71875 9.328125 16.59375 8.109375 
Q 21.484375 6.890625 26.8125 6.890625 
Q 36.078125 6.890625 40.9375 10.546875 
Q 45.796875 14.203125 45.796875 21.1875 
Q 45.796875 27.640625 41.28125 31.265625 
Q 36.765625 34.90625 28.71875 34.90625 
L 20.21875 34.90625 
L 20.21875 43.015625 
L 29.109375 43.015625 
Q 36.375 43.015625 40.234375 45.921875 
Q 44.09375 48.828125 44.09375 54.296875 
Q 44.09375 59.90625 40.109375 62.90625 
Q 36.140625 65.921875 28.71875 65.921875 
Q 24.65625 65.921875 20.015625 65.03125 
Q 15.375 64.15625 9.8125 62.3125 
L 9.8125 71.09375 
Q 15.4375 72.65625 20.34375 73.4375 
Q 25.25 74.21875 29.59375 74.21875 
Q 40.828125 74.21875 47.359375 69.109375 
Q 53.90625 64.015625 53.90625 55.328125 
Q 53.90625 49.265625 50.4375 45.09375 
Q 46.96875 40.921875 40.578125 39.3125 
z
" id="DejaVuSans-51"/>
       </defs>
       <use xlink:href="#DejaVuSans-50"/>
       <use x="63.623047" xlink:href="#DejaVuSans-49"/>
       <use x="127.246094" xlink:href="#DejaVuSans-58"/>
       <use x="160.9375" xlink:href="#DejaVuSans-53"/>
       <use x="224.560547" xlink:href="#DejaVuSans-57"/>
       <use x="288.183594" xlink:href="#DejaVuSans-58"/>
       <use x="321.875" xlink:href="#DejaVuSans-51"/>
       <use x="385.498047" xlink:href="#DejaVuSans-49"/>
      </g>
     </g>
    </g>
    <g id="xtick_5">
     <g id="line2d_5">
      <g>
       <use style="stroke:#000000;stroke-width:0.8;" x="229.337084" xlink:href="#m253d0955e0" y="448.56"/>
      </g>
     </g>
     <g id="text_5">
      <!-- 22:01:15 -->
      <g transform="translate(232.096459 500.4725)rotate(-90)scale(0.1 -0.1)">
       <use xlink:href="#DejaVuSans-50"/>
       <use x="63.623047" xlink:href="#DejaVuSans-50"/>
       <use x="127.246094" xlink:href="#DejaVuSans-58"/>
       <use x="160.9375" xlink:href="#DejaVuSans-48"/>
       <use x="224.560547" xlink:href="#DejaVuSans-49"/>
       <use x="288.183594" xlink:href="#DejaVuSans-58"/>
       <use x="321.875" xlink:href="#DejaVuSans-49"/>
       <use x="385.498047" xlink:href="#DejaVuSans-53"/>
      </g>
     </g>
    </g>
    <g id="xtick_6">
     <g id="line2d_6">
      <g>
       <use style="stroke:#000000;stroke-width:0.8;" x="253.584082" xlink:href="#m253d0955e0" y="448.56"/>
      </g>
     </g>
     <g id="text_6">
      <!-- 22:02:59 -->
      <g transform="translate(256.343457 500.4725)rotate(-90)scale(0.1 -0.1)">
       <use xlink:href="#DejaVuSans-50"/>
       <use x="63.623047" xlink:href="#DejaVuSans-50"/>
       <use x="127.246094" xlink:href="#DejaVuSans-58"/>
       <use x="160.9375" xlink:href="#DejaVuSans-48"/>
       <use x="224.560547" xlink:href="#DejaVuSans-50"/>
       <use x="288.183594" xlink:href="#DejaVuSans-58"/>
       <use x="321.875" xlink:href="#DejaVuSans-53"/>
       <use x="385.498047" xlink:href="#DejaVuSans-57"/>
      </g>
     </g>
    </g>
    <g id="xtick_7">
     <g id="line2d_7">
      <g>
       <use style="stroke:#000000;stroke-width:0.8;" x="277.831081" xlink:href="#m253d0955e0" y="448.56"/>
      </g>
     </g>
     <g id="text_7">
      <!-- 22:04:44 -->
      <g transform="translate(280.590456 500.4725)rotate(-90)scale(0.1 -0.1)">
       <use xlink:href="#DejaVuSans-50"/>
       <use x="63.623047" xlink:href="#DejaVuSans-50"/>
       <use x="127.246094" xlink:href="#DejaVuSans-58"/>
       <use x="160.9375" xlink:href="#DejaVuSans-48"/>
       <use x="224.560547" xlink:href="#DejaVuSans-52"/>
       <use x="288.183594" xlink:href="#DejaVuSans-58"/>
       <use x="321.875" xlink:href="#DejaVuSans-52"/>
       <use x="385.498047" xlink:href="#DejaVuSans-52"/>
      </g>
     </g>
    </g>
    <g id="xtick_8">
     <g id="line2d_8">
      <g>
       <use style="stroke:#000000;stroke-width:0.8;" x="302.078079" xlink:href="#m253d0955e0" y="448.56"/>
      </g>
     </g>
     <g id="text_8">
      <!-- 22:06:27 -->
      <g transform="translate(304.837454 500.4725)rotate(-90)scale(0.1 -0.1)">
       <use xlink:href="#DejaVuSans-50"/>
       <use x="63.623047" xlink:href="#DejaVuSans-50"/>
       <use x="127.246094" xlink:href="#DejaVuSans-58"/>
       <use x="160.9375" xlink:href="#DejaVuSans-48"/>
       <use x="224.560547" xlink:href="#DejaVuSans-54"/>
       <use x="288.183594" xlink:href="#DejaVuSans-58"/>
       <use x="321.875" xlink:href="#DejaVuSans-50"/>
       <use x="385.498047" xlink:href="#DejaVuSans-55"/>
      </g>
     </g>
    </g>
    <g id="xtick_9">
     <g id="line2d_9">
      <g>
       <use style="stroke:#000000;stroke-width:0.8;" x="326.325077" xlink:href="#m253d0955e0" y="448.56"/>
      </g>
     </g>
     <g id="text_9">
      <!-- 22:08:11 -->
      <g transform="translate(329.084452 500.4725)rotate(-90)scale(0.1 -0.1)">
       <defs>
        <path d="M 31.78125 34.625 
Q 24.75 34.625 20.71875 30.859375 
Q 16.703125 27.09375 16.703125 20.515625 
Q 16.703125 13.921875 20.71875 10.15625 
Q 24.75 6.390625 31.78125 6.390625 
Q 38.8125 6.390625 42.859375 10.171875 
Q 46.921875 13.96875 46.921875 20.515625 
Q 46.921875 27.09375 42.890625 30.859375 
Q 38.875 34.625 31.78125 34.625 
z
M 21.921875 38.8125 
Q 15.578125 40.375 12.03125 44.71875 
Q 8.5 49.078125 8.5 55.328125 
Q 8.5 64.0625 14.71875 69.140625 
Q 20.953125 74.21875 31.78125 74.21875 
Q 42.671875 74.21875 48.875 69.140625 
Q 55.078125 64.0625 55.078125 55.328125 
Q 55.078125 49.078125 51.53125 44.71875 
Q 48 40.375 41.703125 38.8125 
Q 48.828125 37.15625 52.796875 32.3125 
Q 56.78125 27.484375 56.78125 20.515625 
Q 56.78125 9.90625 50.3125 4.234375 
Q 43.84375 -1.421875 31.78125 -1.421875 
Q 19.734375 -1.421875 13.25 4.234375 
Q 6.78125 9.90625 6.78125 20.515625 
Q 6.78125 27.484375 10.78125 32.3125 
Q 14.796875 37.15625 21.921875 38.8125 
z
M 18.3125 54.390625 
Q 18.3125 48.734375 21.84375 45.5625 
Q 25.390625 42.390625 31.78125 42.390625 
Q 38.140625 42.390625 41.71875 45.5625 
Q 45.3125 48.734375 45.3125 54.390625 
Q 45.3125 60.0625 41.71875 63.234375 
Q 38.140625 66.40625 31.78125 66.40625 
Q 25.390625 66.40625 21.84375 63.234375 
Q 18.3125 60.0625 18.3125 54.390625 
z
" id="DejaVuSans-56"/>
       </defs>
       <use xlink:href="#DejaVuSans-50"/>
       <use x="63.623047" xlink:href="#DejaVuSans-50"/>
       <use x="127.246094" xlink:href="#DejaVuSans-58"/>
       <use x="160.9375" xlink:href="#DejaVuSans-48"/>
       <use x="224.560547" xlink:href="#DejaVuSans-56"/>
       <use x="288.183594" xlink:href="#DejaVuSans-58"/>
       <use x="321.875" xlink:href="#DejaVuSans-49"/>
       <use x="385.498047" xlink:href="#DejaVuSans-49"/>
      </g>
     </g>
    </g>
    <g id="xtick_10">
     <g id="line2d_10">
      <g>
       <use style="stroke:#000000;stroke-width:0.8;" x="350.572075" xlink:href="#m253d0955e0" y="448.56"/>
      </g>
     </g>
     <g id="text_10">
      <!-- 22:09:56 -->
      <g transform="translate(353.33145 500.4725)rotate(-90)scale(0.1 -0.1)">
       <use xlink:href="#DejaVuSans-50"/>
       <use x="63.623047" xlink:href="#DejaVuSans-50"/>
       <use x="127.246094" xlink:href="#DejaVuSans-58"/>
       <use x="160.9375" xlink:href="#DejaVuSans-48"/>
       <use x="224.560547" xlink:href="#DejaVuSans-57"/>
       <use x="288.183594" xlink:href="#DejaVuSans-58"/>
       <use x="321.875" xlink:href="#DejaVuSans-53"/>
       <use x="385.498047" xlink:href="#DejaVuSans-54"/>
      </g>
     </g>
    </g>
    <g id="xtick_11">
     <g id="line2d_11">
      <g>
       <use style="stroke:#000000;stroke-width:0.8;" x="374.819074" xlink:href="#m253d0955e0" y="448.56"/>
      </g>
     </g>
     <g id="text_11">
      <!-- 22:11:40 -->
      <g transform="translate(377.578449 500.4725)rotate(-90)scale(0.1 -0.1)">
       <use xlink:href="#DejaVuSans-50"/>
       <use x="63.623047" xlink:href="#DejaVuSans-50"/>
       <use x="127.246094" xlink:href="#DejaVuSans-58"/>
       <use x="160.9375" xlink:href="#DejaVuSans-49"/>
       <use x="224.560547" xlink:href="#DejaVuSans-49"/>
       <use x="288.183594" xlink:href="#DejaVuSans-58"/>
       <use x="321.875" xlink:href="#DejaVuSans-52"/>
       <use x="385.498047" xlink:href="#DejaVuSans-48"/>
      </g>
     </g>
    </g>
    <g id="xtick_12">
     <g id="line2d_12">
      <g>
       <use style="stroke:#000000;stroke-width:0.8;" x="399.066072" xlink:href="#m253d0955e0" y="448.56"/>
      </g>
     </g>
     <g id="text_12">
      <!-- 22:13:25 -->
      <g transform="translate(401.825447 500.4725)rotate(-90)scale(0.1 -0.1)">
       <use xlink:href="#DejaVuSans-50"/>
       <use x="63.623047" xlink:href="#DejaVuSans-50"/>
       <use x="127.246094" xlink:href="#DejaVuSans-58"/>
       <use x="160.9375" xlink:href="#DejaVuSans-49"/>
       <use x="224.560547" xlink:href="#DejaVuSans-51"/>
       <use x="288.183594" xlink:href="#DejaVuSans-58"/>
       <use x="321.875" xlink:href="#DejaVuSans-50"/>
       <use x="385.498047" xlink:href="#DejaVuSans-53"/>
      </g>
     </g>
    </g>
    <g id="xtick_13">
     <g id="line2d_13">
      <g>
       <use style="stroke:#000000;stroke-width:0.8;" x="423.31307" xlink:href="#m253d0955e0" y="448.56"/>
      </g>
     </g>
     <g id="text_13">
      <!-- 22:15:09 -->
      <g transform="translate(426.072445 500.4725)rotate(-90)scale(0.1 -0.1)">
       <use xlink:href="#DejaVuSans-50"/>
       <use x="63.623047" xlink:href="#DejaVuSans-50"/>
       <use x="127.246094" xlink:href="#DejaVuSans-58"/>
       <use x="160.9375" xlink:href="#DejaVuSans-49"/>
       <use x="224.560547" xlink:href="#DejaVuSans-53"/>
       <use x="288.183594" xlink:href="#DejaVuSans-58"/>
       <use x="321.875" xlink:href="#DejaVuSans-48"/>
       <use x="385.498047" xlink:href="#DejaVuSans-57"/>
      </g>
     </g>
    </g>
    <g id="xtick_14">
     <g id="line2d_14">
      <g>
       <use style="stroke:#000000;stroke-width:0.8;" x="447.560069" xlink:href="#m253d0955e0" y="448.56"/>
      </g>
     </g>
     <g id="text_14">
      <!-- 22:16:54 -->
      <g transform="translate(450.319444 500.4725)rotate(-90)scale(0.1 -0.1)">
       <use xlink:href="#DejaVuSans-50"/>
       <use x="63.623047" xlink:href="#DejaVuSans-50"/>
       <use x="127.246094" xlink:href="#DejaVuSans-58"/>
       <use x="160.9375" xlink:href="#DejaVuSans-49"/>
       <use x="224.560547" xlink:href="#DejaVuSans-54"/>
       <use x="288.183594" xlink:href="#DejaVuSans-58"/>
       <use x="321.875" xlink:href="#DejaVuSans-53"/>
       <use x="385.498047" xlink:href="#DejaVuSans-52"/>
      </g>
     </g>
    </g>
    <g id="xtick_15">
     <g id="line2d_15">
      <g>
       <use style="stroke:#000000;stroke-width:0.8;" x="471.807067" xlink:href="#m253d0955e0" y="448.56"/>
      </g>
     </g>
     <g id="text_15">
      <!-- 22:18:36 -->
      <g transform="translate(474.566442 500.4725)rotate(-90)scale(0.1 -0.1)">
       <use xlink:href="#DejaVuSans-50"/>
       <use x="63.623047" xlink:href="#DejaVuSans-50"/>
       <use x="127.246094" xlink:href="#DejaVuSans-58"/>
       <use x="160.9375" xlink:href="#DejaVuSans-49"/>
       <use x="224.560547" xlink:href="#DejaVuSans-56"/>
       <use x="288.183594" xlink:href="#DejaVuSans-58"/>
       <use x="321.875" xlink:href="#DejaVuSans-51"/>
       <use x="385.498047" xlink:href="#DejaVuSans-54"/>
      </g>
     </g>
    </g>
    <g id="xtick_16">
     <g id="line2d_16">
      <g>
       <use style="stroke:#000000;stroke-width:0.8;" x="496.054065" xlink:href="#m253d0955e0" y="448.56"/>
      </g>
     </g>
     <g id="text_16">
      <!-- 22:20:21 -->
      <g transform="translate(498.81344 500.4725)rotate(-90)scale(0.1 -0.1)">
       <use xlink:href="#DejaVuSans-50"/>
       <use x="63.623047" xlink:href="#DejaVuSans-50"/>
       <use x="127.246094" xlink:href="#DejaVuSans-58"/>
       <use x="160.9375" xlink:href="#DejaVuSans-50"/>
       <use x="224.560547" xlink:href="#DejaVuSans-48"/>
       <use x="288.183594" xlink:href="#DejaVuSans-58"/>
       <use x="321.875" xlink:href="#DejaVuSans-50"/>
       <use x="385.498047" xlink:href="#DejaVuSans-49"/>
      </g>
     </g>
    </g>
    <g id="xtick_17">
     <g id="line2d_17">
      <g>
       <use style="stroke:#000000;stroke-width:0.8;" x="520.301063" xlink:href="#m253d0955e0" y="448.56"/>
      </g>
     </g>
     <g id="text_17">
      <!-- 22:22:05 -->
      <g transform="translate(523.060438 500.4725)rotate(-90)scale(0.1 -0.1)">
       <use xlink:href="#DejaVuSans-50"/>
       <use x="63.623047" xlink:href="#DejaVuSans-50"/>
       <use x="127.246094" xlink:href="#DejaVuSans-58"/>
       <use x="160.9375" xlink:href="#DejaVuSans-50"/>
       <use x="224.560547" xlink:href="#DejaVuSans-50"/>
       <use x="288.183594" xlink:href="#DejaVuSans-58"/>
       <use x="321.875" xlink:href="#DejaVuSans-48"/>
       <use x="385.498047" xlink:href="#DejaVuSans-53"/>
      </g>
     </g>
    </g>
    <g id="xtick_18">
     <g id="line2d_18">
      <g>
       <use style="stroke:#000000;stroke-width:0.8;" x="544.548062" xlink:href="#m253d0955e0" y="448.56"/>
      </g>
     </g>
     <g id="text_18">
      <!-- 22:23:50 -->
      <g transform="translate(547.307437 500.4725)rotate(-90)scale(0.1 -0.1)">
       <use xlink:href="#DejaVuSans-50"/>
       <use x="63.623047" xlink:href="#DejaVuSans-50"/>
       <use x="127.246094" xlink:href="#DejaVuSans-58"/>
       <use x="160.9375" xlink:href="#DejaVuSans-50"/>
       <use x="224.560547" xlink:href="#DejaVuSans-51"/>
       <use x="288.183594" xlink:href="#DejaVuSans-58"/>
       <use x="321.875" xlink:href="#DejaVuSans-53"/>
       <use x="385.498047" xlink:href="#DejaVuSans-48"/>
      </g>
     </g>
    </g>
    <g id="xtick_19">
     <g id="line2d_19">
      <g>
       <use style="stroke:#000000;stroke-width:0.8;" x="568.79506" xlink:href="#m253d0955e0" y="448.56"/>
      </g>
     </g>
     <g id="text_19">
      <!-- 22:25:34 -->
      <g transform="translate(571.554435 500.4725)rotate(-90)scale(0.1 -0.1)">
       <use xlink:href="#DejaVuSans-50"/>
       <use x="63.623047" xlink:href="#DejaVuSans-50"/>
       <use x="127.246094" xlink:href="#DejaVuSans-58"/>
       <use x="160.9375" xlink:href="#DejaVuSans-50"/>
       <use x="224.560547" xlink:href="#DejaVuSans-53"/>
       <use x="288.183594" xlink:href="#DejaVuSans-58"/>
       <use x="321.875" xlink:href="#DejaVuSans-51"/>
       <use x="385.498047" xlink:href="#DejaVuSans-52"/>
      </g>
     </g>
    </g>
    <g id="xtick_20">
     <g id="line2d_20">
      <g>
       <use style="stroke:#000000;stroke-width:0.8;" x="593.042058" xlink:href="#m253d0955e0" y="448.56"/>
      </g>
     </g>
     <g id="text_20">
      <!-- 22:27:20 -->
      <g transform="translate(595.801433 500.4725)rotate(-90)scale(0.1 -0.1)">
       <use xlink:href="#DejaVuSans-50"/>
       <use x="63.623047" xlink:href="#DejaVuSans-50"/>
       <use x="127.246094" xlink:href="#DejaVuSans-58"/>
       <use x="160.9375" xlink:href="#DejaVuSans-50"/>
       <use x="224.560547" xlink:href="#DejaVuSans-55"/>
       <use x="288.183594" xlink:href="#DejaVuSans-58"/>
       <use x="321.875" xlink:href="#DejaVuSans-50"/>
       <use x="385.498047" xlink:href="#DejaVuSans-48"/>
      </g>
     </g>
    </g>
    <g id="xtick_21">
     <g id="line2d_21">
      <g>
       <use style="stroke:#000000;stroke-width:0.8;" x="617.289057" xlink:href="#m253d0955e0" y="448.56"/>
      </g>
     </g>
     <g id="text_21">
      <!-- 22:29:04 -->
      <g transform="translate(620.048432 500.4725)rotate(-90)scale(0.1 -0.1)">
       <use xlink:href="#DejaVuSans-50"/>
       <use x="63.623047" xlink:href="#DejaVuSans-50"/>
       <use x="127.246094" xlink:href="#DejaVuSans-58"/>
       <use x="160.9375" xlink:href="#DejaVuSans-50"/>
       <use x="224.560547" xlink:href="#DejaVuSans-57"/>
       <use x="288.183594" xlink:href="#DejaVuSans-58"/>
       <use x="321.875" xlink:href="#DejaVuSans-48"/>
       <use x="385.498047" xlink:href="#DejaVuSans-52"/>
      </g>
     </g>
    </g>
    <g id="text_22">
     <!-- timestamp -->
     <g transform="translate(354.264375 510.55125)scale(0.08 -0.08)">
      <defs>
       <path d="M 18.3125 70.21875 
L 18.3125 54.6875 
L 36.8125 54.6875 
L 36.8125 47.703125 
L 18.3125 47.703125 
L 18.3125 18.015625 
Q 18.3125 11.328125 20.140625 9.421875 
Q 21.96875 7.515625 27.59375 7.515625 
L 36.8125 7.515625 
L 36.8125 0 
L 27.59375 0 
Q 17.1875 0 13.234375 3.875 
Q 9.28125 7.765625 9.28125 18.015625 
L 9.28125 47.703125 
L 2.6875 47.703125 
L 2.6875 54.6875 
L 9.28125 54.6875 
L 9.28125 70.21875 
z
" id="DejaVuSans-116"/>
       <path d="M 9.421875 54.6875 
L 18.40625 54.6875 
L 18.40625 0 
L 9.421875 0 
z
M 9.421875 75.984375 
L 18.40625 75.984375 
L 18.40625 64.59375 
L 9.421875 64.59375 
z
" id="DejaVuSans-105"/>
       <path d="M 52 44.1875 
Q 55.375 50.25 60.0625 53.125 
Q 64.75 56 71.09375 56 
Q 79.640625 56 84.28125 50.015625 
Q 88.921875 44.046875 88.921875 33.015625 
L 88.921875 0 
L 79.890625 0 
L 79.890625 32.71875 
Q 79.890625 40.578125 77.09375 44.375 
Q 74.3125 48.1875 68.609375 48.1875 
Q 61.625 48.1875 57.5625 43.546875 
Q 53.515625 38.921875 53.515625 30.90625 
L 53.515625 0 
L 44.484375 0 
L 44.484375 32.71875 
Q 44.484375 40.625 41.703125 44.40625 
Q 38.921875 48.1875 33.109375 48.1875 
Q 26.21875 48.1875 22.15625 43.53125 
Q 18.109375 38.875 18.109375 30.90625 
L 18.109375 0 
L 9.078125 0 
L 9.078125 54.6875 
L 18.109375 54.6875 
L 18.109375 46.1875 
Q 21.1875 51.21875 25.484375 53.609375 
Q 29.78125 56 35.6875 56 
Q 41.65625 56 45.828125 52.96875 
Q 50 49.953125 52 44.1875 
z
" id="DejaVuSans-109"/>
       <path d="M 56.203125 29.59375 
L 56.203125 25.203125 
L 14.890625 25.203125 
Q 15.484375 15.921875 20.484375 11.0625 
Q 25.484375 6.203125 34.421875 6.203125 
Q 39.59375 6.203125 44.453125 7.46875 
Q 49.3125 8.734375 54.109375 11.28125 
L 54.109375 2.78125 
Q 49.265625 0.734375 44.1875 -0.34375 
Q 39.109375 -1.421875 33.890625 -1.421875 
Q 20.796875 -1.421875 13.15625 6.1875 
Q 5.515625 13.8125 5.515625 26.8125 
Q 5.515625 40.234375 12.765625 48.109375 
Q 20.015625 56 32.328125 56 
Q 43.359375 56 49.78125 48.890625 
Q 56.203125 41.796875 56.203125 29.59375 
z
M 47.21875 32.234375 
Q 47.125 39.59375 43.09375 43.984375 
Q 39.0625 48.390625 32.421875 48.390625 
Q 24.90625 48.390625 20.390625 44.140625 
Q 15.875 39.890625 15.1875 32.171875 
z
" id="DejaVuSans-101"/>
       <path d="M 44.28125 53.078125 
L 44.28125 44.578125 
Q 40.484375 46.53125 36.375 47.5 
Q 32.28125 48.484375 27.875 48.484375 
Q 21.1875 48.484375 17.84375 46.4375 
Q 14.5 44.390625 14.5 40.28125 
Q 14.5 37.15625 16.890625 35.375 
Q 19.28125 33.59375 26.515625 31.984375 
L 29.59375 31.296875 
Q 39.15625 29.25 43.1875 25.515625 
Q 47.21875 21.78125 47.21875 15.09375 
Q 47.21875 7.46875 41.1875 3.015625 
Q 35.15625 -1.421875 24.609375 -1.421875 
Q 20.21875 -1.421875 15.453125 -0.5625 
Q 10.6875 0.296875 5.421875 2 
L 5.421875 11.28125 
Q 10.40625 8.6875 15.234375 7.390625 
Q 20.0625 6.109375 24.8125 6.109375 
Q 31.15625 6.109375 34.5625 8.28125 
Q 37.984375 10.453125 37.984375 14.40625 
Q 37.984375 18.0625 35.515625 20.015625 
Q 33.0625 21.96875 24.703125 23.78125 
L 21.578125 24.515625 
Q 13.234375 26.265625 9.515625 29.90625 
Q 5.8125 33.546875 5.8125 39.890625 
Q 5.8125 47.609375 11.28125 51.796875 
Q 16.75 56 26.8125 56 
Q 31.78125 56 36.171875 55.265625 
Q 40.578125 54.546875 44.28125 53.078125 
z
" id="DejaVuSans-115"/>
       <path d="M 34.28125 27.484375 
Q 23.390625 27.484375 19.1875 25 
Q 14.984375 22.515625 14.984375 16.5 
Q 14.984375 11.71875 18.140625 8.90625 
Q 21.296875 6.109375 26.703125 6.109375 
Q 34.1875 6.109375 38.703125 11.40625 
Q 43.21875 16.703125 43.21875 25.484375 
L 43.21875 27.484375 
z
M 52.203125 31.203125 
L 52.203125 0 
L 43.21875 0 
L 43.21875 8.296875 
Q 40.140625 3.328125 35.546875 0.953125 
Q 30.953125 -1.421875 24.3125 -1.421875 
Q 15.921875 -1.421875 10.953125 3.296875 
Q 6 8.015625 6 15.921875 
Q 6 25.140625 12.171875 29.828125 
Q 18.359375 34.515625 30.609375 34.515625 
L 43.21875 34.515625 
L 43.21875 35.40625 
Q 43.21875 41.609375 39.140625 45 
Q 35.0625 48.390625 27.6875 48.390625 
Q 23 48.390625 18.546875 47.265625 
Q 14.109375 46.140625 10.015625 43.890625 
L 10.015625 52.203125 
Q 14.9375 54.109375 19.578125 55.046875 
Q 24.21875 56 28.609375 56 
Q 40.484375 56 46.34375 49.84375 
Q 52.203125 43.703125 52.203125 31.203125 
z
" id="DejaVuSans-97"/>
       <path d="M 18.109375 8.203125 
L 18.109375 -20.796875 
L 9.078125 -20.796875 
L 9.078125 54.6875 
L 18.109375 54.6875 
L 18.109375 46.390625 
Q 20.953125 51.265625 25.265625 53.625 
Q 29.59375 56 35.59375 56 
Q 45.5625 56 51.78125 48.09375 
Q 58.015625 40.1875 58.015625 27.296875 
Q 58.015625 14.40625 51.78125 6.484375 
Q 45.5625 -1.421875 35.59375 -1.421875 
Q 29.59375 -1.421875 25.265625 0.953125 
Q 20.953125 3.328125 18.109375 8.203125 
z
M 48.6875 27.296875 
Q 48.6875 37.203125 44.609375 42.84375 
Q 40.53125 48.484375 33.40625 48.484375 
Q 26.265625 48.484375 22.1875 42.84375 
Q 18.109375 37.203125 18.109375 27.296875 
Q 18.109375 17.390625 22.1875 11.75 
Q 26.265625 6.109375 33.40625 6.109375 
Q 40.53125 6.109375 44.609375 11.75 
Q 48.6875 17.390625 48.6875 27.296875 
z
" id="DejaVuSans-112"/>
      </defs>
      <use xlink:href="#DejaVuSans-116"/>
      <use x="39.208984" xlink:href="#DejaVuSans-105"/>
      <use x="66.992188" xlink:href="#DejaVuSans-109"/>
      <use x="164.404297" xlink:href="#DejaVuSans-101"/>
      <use x="225.927734" xlink:href="#DejaVuSans-115"/>
      <use x="278.027344" xlink:href="#DejaVuSans-116"/>
      <use x="317.236328" xlink:href="#DejaVuSans-97"/>
      <use x="378.515625" xlink:href="#DejaVuSans-109"/>
      <use x="475.927734" xlink:href="#DejaVuSans-112"/>
     </g>
    </g>
   </g>
   <g id="matplotlib.axis_2">
    <g id="ytick_1">
     <g id="line2d_22">
      <defs>
       <path d="M 0 0 
L -3.5 0 
" id="mb34ca02411" style="stroke:#000000;stroke-width:0.8;"/>
      </defs>
      <g>
       <use style="stroke:#000000;stroke-width:0.8;" x="108" xlink:href="#mb34ca02411" y="425.192287"/>
      </g>
     </g>
     <g id="text_23">
      <!-- 14480 -->
      <g transform="translate(69.1875 428.991505)scale(0.1 -0.1)">
       <use xlink:href="#DejaVuSans-49"/>
       <use x="63.623047" xlink:href="#DejaVuSans-52"/>
       <use x="127.246094" xlink:href="#DejaVuSans-52"/>
       <use x="190.869141" xlink:href="#DejaVuSans-56"/>
       <use x="254.492188" xlink:href="#DejaVuSans-48"/>
      </g>
     </g>
    </g>
    <g id="ytick_2">
     <g id="line2d_23">
      <g>
       <use style="stroke:#000000;stroke-width:0.8;" x="108" xlink:href="#mb34ca02411" y="369.975406"/>
      </g>
     </g>
     <g id="text_24">
      <!-- 14490 -->
      <g transform="translate(69.1875 373.774625)scale(0.1 -0.1)">
       <use xlink:href="#DejaVuSans-49"/>
       <use x="63.623047" xlink:href="#DejaVuSans-52"/>
       <use x="127.246094" xlink:href="#DejaVuSans-52"/>
       <use x="190.869141" xlink:href="#DejaVuSans-57"/>
       <use x="254.492188" xlink:href="#DejaVuSans-48"/>
      </g>
     </g>
    </g>
    <g id="ytick_3">
     <g id="line2d_24">
      <g>
       <use style="stroke:#000000;stroke-width:0.8;" x="108" xlink:href="#mb34ca02411" y="314.758525"/>
      </g>
     </g>
     <g id="text_25">
      <!-- 14500 -->
      <g transform="translate(69.1875 318.557744)scale(0.1 -0.1)">
       <use xlink:href="#DejaVuSans-49"/>
       <use x="63.623047" xlink:href="#DejaVuSans-52"/>
       <use x="127.246094" xlink:href="#DejaVuSans-53"/>
       <use x="190.869141" xlink:href="#DejaVuSans-48"/>
       <use x="254.492188" xlink:href="#DejaVuSans-48"/>
      </g>
     </g>
    </g>
    <g id="ytick_4">
     <g id="line2d_25">
      <g>
       <use style="stroke:#000000;stroke-width:0.8;" x="108" xlink:href="#mb34ca02411" y="259.541644"/>
      </g>
     </g>
     <g id="text_26">
      <!-- 14510 -->
      <g transform="translate(69.1875 263.340863)scale(0.1 -0.1)">
       <use xlink:href="#DejaVuSans-49"/>
       <use x="63.623047" xlink:href="#DejaVuSans-52"/>
       <use x="127.246094" xlink:href="#DejaVuSans-53"/>
       <use x="190.869141" xlink:href="#DejaVuSans-49"/>
       <use x="254.492188" xlink:href="#DejaVuSans-48"/>
      </g>
     </g>
    </g>
    <g id="ytick_5">
     <g id="line2d_26">
      <g>
       <use style="stroke:#000000;stroke-width:0.8;" x="108" xlink:href="#mb34ca02411" y="204.324763"/>
      </g>
     </g>
     <g id="text_27">
      <!-- 14520 -->
      <g transform="translate(69.1875 208.123982)scale(0.1 -0.1)">
       <use xlink:href="#DejaVuSans-49"/>
       <use x="63.623047" xlink:href="#DejaVuSans-52"/>
       <use x="127.246094" xlink:href="#DejaVuSans-53"/>
       <use x="190.869141" xlink:href="#DejaVuSans-50"/>
       <use x="254.492188" xlink:href="#DejaVuSans-48"/>
      </g>
     </g>
    </g>
    <g id="ytick_6">
     <g id="line2d_27">
      <g>
       <use style="stroke:#000000;stroke-width:0.8;" x="108" xlink:href="#mb34ca02411" y="149.107882"/>
      </g>
     </g>
     <g id="text_28">
      <!-- 14530 -->
      <g transform="translate(69.1875 152.907101)scale(0.1 -0.1)">
       <use xlink:href="#DejaVuSans-49"/>
       <use x="63.623047" xlink:href="#DejaVuSans-52"/>
       <use x="127.246094" xlink:href="#DejaVuSans-53"/>
       <use x="190.869141" xlink:href="#DejaVuSans-51"/>
       <use x="254.492188" xlink:href="#DejaVuSans-48"/>
      </g>
     </g>
    </g>
    <g id="ytick_7">
     <g id="line2d_28">
      <g>
       <use style="stroke:#000000;stroke-width:0.8;" x="108" xlink:href="#mb34ca02411" y="93.891001"/>
      </g>
     </g>
     <g id="text_29">
      <!-- 14540 -->
      <g transform="translate(69.1875 97.69022)scale(0.1 -0.1)">
       <use xlink:href="#DejaVuSans-49"/>
       <use x="63.623047" xlink:href="#DejaVuSans-52"/>
       <use x="127.246094" xlink:href="#DejaVuSans-53"/>
       <use x="190.869141" xlink:href="#DejaVuSans-52"/>
       <use x="254.492188" xlink:href="#DejaVuSans-48"/>
      </g>
     </g>
    </g>
    <g id="text_30">
     <!-- MB -->
     <g transform="translate(63.52375 260.715625)rotate(-90)scale(0.08 -0.08)">
      <defs>
       <path d="M 9.8125 72.90625 
L 24.515625 72.90625 
L 43.109375 23.296875 
L 61.8125 72.90625 
L 76.515625 72.90625 
L 76.515625 0 
L 66.890625 0 
L 66.890625 64.015625 
L 48.09375 14.015625 
L 38.1875 14.015625 
L 19.390625 64.015625 
L 19.390625 0 
L 9.8125 0 
z
" id="DejaVuSans-77"/>
       <path d="M 19.671875 34.8125 
L 19.671875 8.109375 
L 35.5 8.109375 
Q 43.453125 8.109375 47.28125 11.40625 
Q 51.125 14.703125 51.125 21.484375 
Q 51.125 28.328125 47.28125 31.5625 
Q 43.453125 34.8125 35.5 34.8125 
z
M 19.671875 64.796875 
L 19.671875 42.828125 
L 34.28125 42.828125 
Q 41.5 42.828125 45.03125 45.53125 
Q 48.578125 48.25 48.578125 53.8125 
Q 48.578125 59.328125 45.03125 62.0625 
Q 41.5 64.796875 34.28125 64.796875 
z
M 9.8125 72.90625 
L 35.015625 72.90625 
Q 46.296875 72.90625 52.390625 68.21875 
Q 58.5 63.53125 58.5 54.890625 
Q 58.5 48.1875 55.375 44.234375 
Q 52.25 40.28125 46.1875 39.3125 
Q 53.46875 37.75 57.5 32.78125 
Q 61.53125 27.828125 61.53125 20.40625 
Q 61.53125 10.640625 54.890625 5.3125 
Q 48.25 0 35.984375 0 
L 9.8125 0 
z
" id="DejaVuSans-66"/>
      </defs>
      <use xlink:href="#DejaVuSans-77"/>
      <use x="86.279297" xlink:href="#DejaVuSans-66"/>
     </g>
    </g>
   </g>
   <g id="line2d_29">
    <path clip-path="url(#pbaff37396a)" d="M 132.349091 245.665509 
L 132.604322 78.12 
L 132.859554 177.0008 
L 133.114786 177.407903 
L 133.370017 228.861201 
L 133.625249 192.561182 
L 134.135712 157.301537 
L 134.390943 162.435559 
L 134.646175 165.104345 
L 134.901407 180.302858 
L 135.41187 153.072189 
L 135.667101 156.803967 
L 135.922333 155.989761 
L 136.177564 151.760413 
L 136.432796 153.863778 
L 136.688027 146.083587 
L 136.943259 157.097986 
L 137.198491 156.261163 
L 137.453722 155.808826 
L 137.708954 161.915371 
L 137.964185 174.28678 
L 138.219417 174.445098 
L 138.474648 163.294998 
L 138.72988 174.218929 
L 138.985111 171.527526 
L 139.495575 208.845303 
L 139.750806 203.191094 
L 140.006038 205.927731 
L 140.516501 217.326616 
L 141.026964 265.274305 
L 141.282196 263.849444 
L 141.537427 285.878241 
L 141.792659 296.010583 
L 142.04789 295.24161 
L 142.303122 302.546848 
L 142.558353 305.057316 
L 143.068816 302.026661 
L 143.324048 290.288524 
L 143.57928 286.127026 
L 143.834511 289.655252 
L 144.089743 282.757118 
L 144.344974 287.52927 
L 144.600206 295.67133 
L 144.855437 291.781235 
L 145.110669 293.296563 
L 145.365901 300.760118 
L 145.876364 290.899178 
L 146.131595 367.864266 
L 146.386827 374.807634 
L 146.642058 395.796056 
L 146.89729 390.300165 
L 147.152521 309.829469 
L 147.662985 324.168542 
L 147.918216 332.717705 
L 148.683911 294.585722 
L 149.449605 326.18144 
L 149.704837 327.199197 
L 150.2153 308.314141 
L 150.470532 323.874523 
L 150.725763 327.176581 
L 150.980995 326.271907 
L 151.236226 307.409467 
L 151.491458 308.698627 
L 151.74669 307.726103 
L 152.001921 318.17508 
L 152.257153 321.296204 
L 152.512384 327.312282 
L 152.767616 307.319 
L 153.022847 305.622737 
L 153.278079 306.142925 
L 153.53331 324.259009 
L 153.788542 323.10555 
L 154.043774 329.528731 
L 154.299005 312.566106 
L 154.554237 310.372273 
L 154.809468 317.383491 
L 155.0647 333.260509 
L 155.319931 333.871164 
L 155.830395 318.378632 
L 156.085626 322.924616 
L 156.340858 335.092473 
L 156.596089 333.056957 
L 156.851321 333.712846 
L 157.106552 321.771157 
L 157.361784 318.265548 
L 157.617015 319.39639 
L 157.872247 321.590222 
L 158.127479 330.68219 
L 158.38271 306.120308 
L 158.637942 314.081433 
L 158.893173 331.677331 
L 159.148405 322.585363 
L 159.403636 340.656214 
L 159.658868 338.168362 
L 159.914099 332.808172 
L 160.169331 324.010224 
L 160.424563 336.675651 
L 160.679794 342.940514 
L 161.445489 326.498076 
L 161.955952 345.450983 
L 162.211184 340.656214 
L 162.466415 339.073035 
L 162.721647 330.908358 
L 162.976878 329.732283 
L 163.23211 341.628738 
L 163.487341 337.444623 
L 163.742573 340.724064 
L 163.997804 334.888921 
L 164.253036 325.955271 
L 164.508268 328.850226 
L 164.763499 333.464061 
L 165.018731 304.469279 
L 165.273962 288.660112 
L 165.529194 290.220673 
L 165.784425 276.153002 
L 166.039657 277.125526 
L 166.294889 291.464599 
L 166.55012 290.333757 
L 167.315815 274.02702 
L 167.571046 286.692447 
L 167.826278 310.281805 
L 168.081509 304.60498 
L 168.336741 290.492075 
L 168.591973 285.131885 
L 168.847204 286.307961 
L 169.102436 298.566285 
L 169.357667 303.700306 
L 169.612899 287.732821 
L 169.86813 285.018801 
L 170.123362 302.863484 
L 170.378593 302.682549 
L 170.633825 302.750399 
L 170.889057 310.779376 
L 171.144288 296.259368 
L 171.39952 302.139745 
L 171.654751 293.138245 
L 171.909983 298.340117 
L 172.165214 300.53395 
L 172.420446 288.38871 
L 172.675678 287.031699 
L 172.930909 284.724782 
L 173.441372 307.952271 
L 173.696604 317.473959 
L 173.951835 301.348156 
L 174.207067 310.349656 
L 174.462298 304.559746 
L 174.71753 327.470599 
L 175.483225 295.942732 
L 175.993688 314.737322 
L 176.248919 309.829469 
L 176.504151 312.633956 
L 176.759383 304.831148 
L 177.014614 308.947412 
L 177.269846 319.848726 
L 177.525077 322.268727 
L 177.780309 318.830969 
L 178.03554 304.944232 
L 178.290772 315.981248 
L 178.546003 312.24947 
L 178.801235 317.360874 
L 179.056467 318.016763 
L 179.311698 312.453021 
L 179.56693 300.013762 
L 179.822161 295.083293 
L 180.077393 303.722923 
L 180.332624 307.635636 
L 180.587856 324.756579 
L 180.843087 325.389851 
L 181.098319 306.210775 
L 181.353551 307.047598 
L 181.608782 309.625917 
L 181.864014 332.174901 
L 182.119245 337.150605 
L 182.629708 319.238072 
L 182.88494 330.139386 
L 183.140172 335.318641 
L 183.395403 352.643136 
L 183.905866 322.17826 
L 184.161098 336.698268 
L 184.416329 416.286908 
L 184.671561 430.92 
L 185.182024 406.177183 
L 185.437256 349.024443 
L 185.692487 347.486498 
L 185.947719 351.851547 
L 186.20295 331.202377 
L 186.458182 320.39153 
L 186.713413 325.457701 
L 186.968645 334.052098 
L 187.223877 324.756579 
L 187.73434 355.673792 
L 187.989571 337.286306 
L 188.244803 327.809852 
L 188.500034 324.666112 
L 188.755266 347.192479 
L 189.010497 346.740142 
L 189.265729 344.365375 
L 189.520961 343.370234 
L 189.776192 337.987427 
L 190.031424 346.921077 
L 190.286655 348.639956 
L 190.541887 347.712666 
L 190.797118 337.580324 
L 191.05235 338.530231 
L 191.307581 350.788556 
L 191.562813 356.668933 
L 192.073276 343.460701 
L 192.328508 344.727244 
L 192.583739 344.026122 
L 192.838971 346.807993 
L 193.094202 354.814352 
L 193.349434 350.517154 
L 193.604666 341.153784 
L 193.859897 344.433225 
L 194.115129 344.455842 
L 194.37036 345.450983 
L 194.625592 352.801454 
L 194.880823 344.274907 
L 195.136055 331.451162 
L 195.391286 328.533591 
L 195.646518 343.867804 
L 195.90175 352.484818 
L 196.156981 354.565567 
L 196.412213 354.520333 
L 196.667444 307.997505 
L 196.922676 307.613019 
L 197.177907 305.328719 
L 197.433139 307.884421 
L 197.943602 301.52909 
L 198.198834 305.193018 
L 198.454065 303.225353 
L 198.709297 305.170401 
L 198.964528 303.496755 
L 199.21976 307.454701 
L 199.474991 307.74872 
L 199.985455 299.651893 
L 200.240686 300.126847 
L 200.495918 288.366093 
L 201.261612 301.596941 
L 201.516844 301.09937 
L 201.772075 319.803493 
L 202.027307 292.45974 
L 202.282539 287.054316 
L 202.793002 317.021622 
L 203.048233 315.39321 
L 203.558696 293.861983 
L 204.06916 314.556387 
L 204.324391 314.0362 
L 204.834854 301.189838 
L 205.090086 311.570965 
L 205.345317 310.96031 
L 205.85578 298.475818 
L 206.111012 301.257688 
L 206.366244 315.280126 
L 207.131938 328.601441 
L 207.38717 315.415827 
L 207.642401 319.667792 
L 207.897633 321.454521 
L 208.152864 305.373952 
L 208.408096 311.231712 
L 208.663328 322.540129 
L 208.918559 300.149463 
L 209.173791 300.782735 
L 209.429022 305.238251 
L 209.939485 327.628917 
L 210.194717 324.46256 
L 210.449949 311.525731 
L 210.70518 314.443303 
L 210.960412 321.861624 
L 211.215643 308.155823 
L 211.470875 319.011903 
L 211.726106 320.979568 
L 211.981338 304.966849 
L 212.236569 318.288165 
L 212.491801 322.065176 
L 212.747033 321.273587 
L 213.002264 326.814711 
L 213.512727 311.661432 
L 213.767959 317.858445 
L 214.02319 319.554707 
L 214.278422 316.162182 
L 214.533654 303.089652 
L 215.299348 323.603121 
L 215.55458 342.284626 
L 215.809811 330.930975 
L 216.065043 332.740322 
L 216.320274 359.021083 
L 216.575506 345.202198 
L 216.830738 344.817711 
L 217.085969 351.942014 
L 217.341201 296.734321 
L 217.596432 265.884959 
L 217.851664 285.335437 
L 218.106895 285.041418 
L 218.362127 262.763836 
L 218.617358 272.127206 
L 218.87259 257.94645 
L 219.127822 275.700665 
L 219.383053 277.758797 
L 219.638285 282.938052 
L 219.893516 273.823468 
L 220.148748 285.674689 
L 220.403979 279.341976 
L 220.659211 268.598979 
L 220.914443 279.613378 
L 221.169674 283.933193 
L 221.424906 272.715243 
L 221.935369 267.287203 
L 222.1906 277.894498 
L 222.445832 279.387209 
L 222.701063 299.878061 
L 222.956295 277.939732 
L 223.211527 272.443841 
L 223.466758 280.518051 
L 223.72199 300.307781 
L 223.977221 295.987966 
L 224.232453 294.721423 
L 224.487684 279.749079 
L 224.742916 291.125346 
L 224.998148 310.553207 
L 225.253379 303.406288 
L 225.508611 288.750579 
L 225.763842 285.606839 
L 226.274305 294.065535 
L 226.529537 281.875061 
L 226.784768 281.716743 
L 227.04 285.74254 
L 227.295232 285.448521 
L 227.805695 300.556566 
L 228.060926 303.858624 
L 228.316158 288.162541 
L 228.571389 287.891139 
L 228.826621 287.325718 
L 229.337084 263.397108 
L 229.847547 234.673728 
L 230.102779 231.281203 
L 230.35801 240.079151 
L 230.613242 254.327757 
L 230.868473 259.529629 
L 231.634168 238.812609 
L 231.8894 246.864202 
L 232.144631 248.198595 
L 232.399863 251.862522 
L 232.655094 244.240649 
L 232.910326 228.408865 
L 233.165557 252.156541 
L 233.420789 257.471497 
L 233.931252 250.30196 
L 234.186484 241.526629 
L 234.441715 255.051496 
L 234.696947 253.581401 
L 234.952178 260.09505 
L 235.462642 240.169619 
L 235.973105 248.922333 
L 236.228336 251.523269 
L 236.483568 264.505332 
L 236.738799 250.007942 
L 236.994031 249.238969 
L 237.249262 237.998402 
L 237.504494 249.125885 
L 237.759726 273.258047 
L 238.014957 281.73936 
L 238.270189 262.062714 
L 238.52542 253.242149 
L 238.780652 256.612057 
L 239.035883 271.018981 
L 239.291115 273.733001 
L 239.801578 251.523269 
L 240.05681 249.646072 
L 240.312041 270.001223 
L 240.567273 272.104589 
L 240.822504 272.217673 
L 241.077736 259.529629 
L 241.332967 274.411506 
L 241.588199 275.904217 
L 241.843431 275.791133 
L 242.098662 277.849265 
L 242.353894 258.263086 
L 242.609125 251.184017 
L 242.864357 264.686267 
L 243.119588 260.705704 
L 243.37482 264.347015 
L 243.630051 271.652252 
L 244.140515 252.427943 
L 244.650978 280.653752 
L 244.906209 275.632815 
L 245.161441 268.350194 
L 245.416672 264.527949 
L 245.671904 265.794492 
L 246.182367 286.873382 
L 246.437599 270.679728 
L 246.69283 268.847765 
L 246.948062 267.988325 
L 247.203293 279.341976 
L 247.458525 279.568144 
L 247.713756 291.509833 
L 247.968988 283.910576 
L 248.22422 285.199736 
L 248.479451 284.295063 
L 248.734683 288.094691 
L 248.989914 281.128706 
L 249.245146 268.553746 
L 249.500377 280.879921 
L 249.755609 271.199915 
L 250.01084 273.936552 
L 250.521304 287.891139 
L 250.776535 277.283844 
L 251.031767 272.624776 
L 251.286998 278.618237 
L 251.54223 297.638995 
L 251.797461 297.231892 
L 252.052693 290.695627 
L 252.307925 279.681228 
L 252.563156 284.114128 
L 252.818388 291.147963 
L 253.073619 281.807211 
L 253.328851 287.348335 
L 253.584082 276.673189 
L 253.839314 286.059176 
L 254.094545 300.126847 
L 254.349777 302.32068 
L 254.605009 291.939553 
L 254.86024 288.479177 
L 255.115472 293.319179 
L 255.370703 286.850765 
L 255.625935 304.107409 
L 255.881166 290.175439 
L 256.136398 287.257868 
L 256.39163 274.253188 
L 256.902093 284.498614 
L 257.412556 306.142925 
L 257.667787 306.02984 
L 257.923019 278.844405 
L 258.17825 278.867022 
L 258.433482 287.710205 
L 258.688714 307.409467 
L 258.943945 310.756759 
L 259.454408 291.509833 
L 259.964871 304.24311 
L 260.220103 308.472458 
L 260.475334 300.556566 
L 260.730566 256.860842 
L 260.985798 272.443841 
L 261.751492 243.313359 
L 262.006724 255.277664 
L 262.261955 256.906076 
L 262.517187 252.744578 
L 262.772419 244.625135 
L 263.02765 250.573362 
L 263.282882 234.424943 
L 263.538113 240.395787 
L 263.793345 251.975606 
L 264.048576 246.909435 
L 264.303808 259.258227 
L 264.559039 264.460099 
L 264.814271 242.951489 
L 265.069503 246.796351 
L 265.324734 261.361592 
L 265.579966 261.859163 
L 265.835197 261.406826 
L 266.34566 233.045316 
L 266.600892 250.053175 
L 266.856123 257.788133 
L 267.111355 257.471497 
L 267.366587 247.452239 
L 267.621818 246.886818 
L 267.87705 259.891498 
L 268.132281 264.482716 
L 268.387513 264.460099 
L 268.642744 255.390748 
L 268.897976 254.825327 
L 269.153208 258.195236 
L 269.408439 256.250188 
L 269.663671 269.141783 
L 269.918902 267.671689 
L 270.174134 250.957849 
L 270.429365 246.841585 
L 270.684597 250.980465 
L 270.939828 259.348694 
L 271.19506 262.198415 
L 271.450292 268.101409 
L 271.705523 258.398787 
L 271.960755 256.770375 
L 272.215986 263.691126 
L 272.471218 275.361413 
L 272.981681 256.272805 
L 273.236913 253.196915 
L 273.492144 259.529629 
L 273.747376 282.530949 
L 274.002607 279.341976 
L 274.257839 265.183837 
L 274.51307 267.355054 
L 274.768302 260.321218 
L 275.023533 276.967208 
L 275.278765 268.146643 
L 275.533997 273.303281 
L 275.789228 263.532809 
L 276.04446 263.758977 
L 276.299691 265.975427 
L 276.554923 263.578042 
L 276.810154 254.486075 
L 277.065386 257.810749 
L 277.320617 259.574862 
L 277.575849 255.639533 
L 277.831081 270.996364 
L 278.086312 266.767016 
L 278.341544 276.266086 
L 278.596775 258.557105 
L 278.852007 248.967567 
L 279.107238 258.421404 
L 279.36247 286.488895 
L 279.872933 284.973568 
L 280.128165 284.566465 
L 280.383396 269.1644 
L 280.638628 274.682908 
L 280.893859 274.637674 
L 281.149091 269.232251 
L 281.404322 269.820288 
L 281.914786 276.560105 
L 282.170017 285.131885 
L 282.68048 278.776555 
L 282.935712 279.364593 
L 283.190943 282.892819 
L 283.446175 281.988145 
L 283.701407 279.02534 
L 283.956638 281.581042 
L 284.21187 274.886459 
L 284.467101 276.130385 
L 285.488027 289.225532 
L 285.743259 270.996364 
L 285.998491 272.805711 
L 286.253722 277.329078 
L 286.764185 300.058996 
L 287.019417 276.107768 
L 287.274648 275.949451 
L 287.52988 288.366093 
L 287.785111 284.204595 
L 288.040343 290.062355 
L 288.295575 283.95581 
L 288.550806 285.290203 
L 288.806038 293.45488 
L 289.316501 303.474138 
L 289.571732 304.650213 
L 289.826964 293.138245 
L 290.082196 297.933014 
L 290.337427 287.619737 
L 290.592659 291.577683 
L 290.84789 292.437123 
L 291.103122 277.645713 
L 291.358353 292.45974 
L 291.613585 288.818429 
L 291.868816 287.416186 
L 292.124048 293.907217 
L 292.37928 292.572824 
L 292.634511 277.690947 
L 292.889743 281.151323 
L 293.144974 282.191697 
L 293.910669 244.150181 
L 294.165901 245.009621 
L 294.421132 243.064573 
L 294.676364 252.721962 
L 294.931595 248.922333 
L 295.186827 248.266445 
L 295.442058 240.486254 
L 295.69729 252.247008 
L 295.952521 247.15822 
L 296.207753 257.177478 
L 296.462985 262.221032 
L 296.718216 244.738219 
L 296.973448 252.133924 
L 297.228679 238.880459 
L 297.483911 255.074112 
L 297.739142 256.725141 
L 297.994374 241.933732 
L 298.249605 240.576722 
L 298.504837 236.73186 
L 299.0153 247.384389 
L 299.270532 261.791312 
L 300.036226 232.932232 
L 300.54669 259.959349 
L 301.057153 247.881959 
L 301.312384 252.427943 
L 301.567616 251.817288 
L 301.822847 262.831687 
L 302.078079 256.838226 
L 302.33331 261.203275 
L 302.588542 261.746079 
L 302.843774 270.272625 
L 303.099005 263.30664 
L 303.354237 265.206454 
L 303.609468 277.102909 
L 304.119931 262.334116 
L 304.375163 256.973927 
L 304.630395 255.322898 
L 304.885626 269.548886 
L 305.140858 259.416545 
L 305.396089 254.893178 
L 305.651321 252.721962 
L 306.161784 266.427763 
L 306.672247 282.282164 
L 306.927479 261.158041 
L 307.693173 291.622917 
L 307.948405 282.146463 
L 308.203636 277.306461 
L 308.458868 277.713564 
L 308.714099 271.833187 
L 308.969331 272.647393 
L 309.224563 277.057675 
L 309.479794 277.193376 
L 309.735026 267.73954 
L 309.990257 271.855804 
L 310.245489 284.227212 
L 310.755952 276.492255 
L 311.011184 266.02066 
L 311.266415 273.303281 
L 311.521647 273.099729 
L 311.776878 270.747579 
L 312.03211 274.343655 
L 312.287341 258.421404 
L 312.542573 262.017481 
L 312.797804 259.326077 
L 313.053036 261.587761 
L 313.308268 279.070574 
L 313.563499 285.516372 
L 313.818731 266.540847 
L 314.329194 278.211134 
L 314.584425 295.196377 
L 315.094889 275.203095 
L 315.35012 269.52627 
L 315.605352 266.653932 
L 315.860583 284.724782 
L 316.115815 288.275625 
L 316.371046 297.141424 
L 316.626278 282.576183 
L 317.136741 294.020301 
L 317.391973 289.881421 
L 317.902436 273.868702 
L 318.66813 286.805531 
L 318.923362 285.878241 
L 319.178593 283.865343 
L 319.433825 280.698986 
L 319.689057 284.566465 
L 320.454751 306.482177 
L 320.709983 285.31282 
L 320.965214 279.206275 
L 321.220446 278.844405 
L 321.475678 286.963849 
L 321.730909 302.773016 
L 321.986141 307.658252 
L 322.241372 290.333757 
L 322.496604 287.52927 
L 322.751835 294.382171 
L 323.007067 289.926654 
L 323.262298 306.550028 
L 323.51753 302.727783 
L 323.772762 294.970208 
L 324.027993 308.947412 
L 324.283225 330.026302 
L 324.538456 327.832469 
L 324.793688 320.481998 
L 325.048919 309.648534 
L 325.304151 313.131526 
L 325.814614 314.511153 
L 326.069846 323.10555 
L 326.325077 256.408506 
L 326.580309 249.193735 
L 326.83554 263.125705 
L 327.090772 258.398787 
L 327.346003 275.225712 
L 327.601235 263.758977 
L 327.856467 259.529629 
L 328.111698 244.579901 
L 328.622161 268.214493 
L 328.877393 268.463278 
L 329.132624 263.419724 
L 329.387856 263.351874 
L 329.643087 267.965708 
L 329.898319 275.655432 
L 330.153551 270.114307 
L 330.408782 273.077113 
L 330.664014 266.495614 
L 330.919245 277.057675 
L 331.174477 265.02552 
L 331.429708 271.448701 
L 331.68494 260.52477 
L 331.940172 266.156361 
L 332.195403 276.130385 
L 332.450635 266.608698 
L 332.705866 272.579542 
L 332.961098 265.364772 
L 333.216329 250.460278 
L 333.471561 249.261586 
L 333.982024 273.778235 
L 334.237256 270.928513 
L 334.492487 277.464779 
L 334.747719 262.628135 
L 335.00295 267.015801 
L 335.258182 266.81225 
L 335.513413 279.658611 
L 335.768645 279.387209 
L 336.023877 281.829828 
L 336.53434 266.133744 
L 336.789571 278.392069 
L 337.044803 280.74422 
L 337.810497 274.479356 
L 338.065729 284.001044 
L 338.320961 288.547027 
L 338.576192 281.151323 
L 338.831424 279.364593 
L 339.086655 284.679549 
L 339.341887 284.408147 
L 339.597118 273.416365 
L 339.85235 283.774875 
L 340.107581 269.187017 
L 340.362813 278.120667 
L 340.618045 266.405146 
L 340.873276 281.761977 
L 341.128508 281.060855 
L 341.383739 291.057496 
L 341.638971 276.153002 
L 341.894202 269.639354 
L 342.149434 272.941412 
L 342.659897 291.871702 
L 342.915129 297.88778 
L 343.17036 276.288703 
L 343.425592 274.049637 
L 343.680823 288.547027 
L 343.936055 292.233571 
L 344.191286 277.23861 
L 344.70175 269.458419 
L 344.956981 286.66983 
L 345.212213 294.065535 
L 345.467444 291.193197 
L 345.722676 273.280664 
L 345.977907 267.875241 
L 346.743602 289.451701 
L 346.998834 285.719923 
L 347.254065 269.209634 
L 347.509297 272.375991 
L 348.274991 293.025161 
L 348.785455 269.367952 
L 349.295918 357.370054 
L 349.551149 376.97885 
L 349.806381 362.933796 
L 350.061612 298.860304 
L 350.572075 307.002364 
L 350.827307 310.53059 
L 351.082539 306.572644 
L 351.33777 297.616378 
L 351.593002 274.705525 
L 351.848233 293.228712 
L 352.103465 299.154323 
L 352.358696 298.81507 
L 352.613928 290.853944 
L 352.86916 289.858804 
L 353.124391 293.952451 
L 353.379623 306.617878 
L 353.634854 303.338437 
L 354.145317 279.749079 
L 354.400549 277.329078 
L 354.65578 292.120487 
L 354.911012 297.593761 
L 355.166244 306.323859 
L 355.421475 303.067035 
L 355.676707 289.723103 
L 355.931938 290.605159 
L 356.442401 309.490216 
L 356.697633 313.199377 
L 356.952864 301.280305 
L 357.208096 299.810211 
L 357.463328 302.433764 
L 357.718559 307.341617 
L 357.973791 303.112269 
L 358.229022 310.485357 
L 358.484254 298.068715 
L 358.739485 263.012621 
L 358.994717 262.628135 
L 359.249949 264.414865 
L 359.760412 253.717102 
L 360.015643 259.529629 
L 360.270875 259.507012 
L 360.526106 271.720103 
L 360.781338 269.458419 
L 361.036569 241.504012 
L 361.291801 238.201954 
L 361.547033 252.857663 
L 361.802264 256.001403 
L 362.057496 249.238969 
L 362.312727 257.132244 
L 362.567959 258.489254 
L 362.82319 245.529808 
L 363.333654 272.036738 
L 363.588885 273.619917 
L 364.099348 248.831866 
L 364.35458 258.104768 
L 364.609811 274.140104 
L 364.865043 277.283844 
L 365.120274 263.804211 
L 365.375506 259.778414 
L 366.141201 286.217493 
L 366.396432 277.962349 
L 366.651664 262.4472 
L 366.906895 265.862342 
L 367.417358 276.37917 
L 367.67259 277.487395 
L 367.927822 254.192056 
L 368.183053 266.789633 
L 368.438285 268.033559 
L 368.693516 274.321039 
L 368.948748 277.758797 
L 369.203979 283.322539 
L 369.459211 267.468138 
L 369.714443 258.918974 
L 369.969674 268.124026 
L 370.224906 288.841046 
L 370.480137 289.587402 
L 370.735369 285.086652 
L 370.9906 267.875241 
L 371.245832 280.088331 
L 371.501063 286.511512 
L 371.756295 289.474318 
L 372.011527 282.16908 
L 372.266758 281.467958 
L 372.52199 284.249829 
L 372.777221 292.798992 
L 373.032453 295.535629 
L 373.287684 290.24329 
L 373.542916 294.585722 
L 373.798148 279.432443 
L 374.053379 281.264407 
L 374.563842 294.676189 
L 374.819074 281.490575 
L 375.329537 274.547207 
L 375.584768 286.194877 
L 375.84 292.233571 
L 376.095232 291.555066 
L 376.350463 266.563464 
L 376.860926 275.587581 
L 377.371389 304.062176 
L 377.626621 293.635815 
L 377.881852 297.412826 
L 378.137084 293.545348 
L 378.392316 293.025161 
L 378.647547 298.181799 
L 378.902779 300.647034 
L 379.15801 289.406467 
L 379.413242 287.280485 
L 379.923705 301.551707 
L 380.178937 305.193018 
L 380.434168 298.679369 
L 380.6894 301.664791 
L 380.944631 294.698806 
L 381.199863 299.199556 
L 381.455094 306.911897 
L 381.710326 300.081613 
L 381.965557 284.8831 
L 382.220789 293.703666 
L 382.476021 276.854124 
L 382.731252 300.963669 
L 382.986484 309.331898 
L 383.241715 307.974888 
L 383.496947 280.404967 
L 384.00741 287.461419 
L 384.262642 303.383671 
L 384.517873 301.008903 
L 385.028336 291.713384 
L 385.283568 300.669651 
L 385.538799 316.569285 
L 385.794031 313.493396 
L 386.049262 299.968529 
L 386.814957 312.023301 
L 387.070189 321.74854 
L 387.32542 306.572644 
L 387.580652 311.978068 
L 387.835883 308.766477 
L 388.091115 316.885921 
L 388.346346 319.328539 
L 388.601578 313.448162 
L 388.85681 296.10105 
L 389.112041 295.693947 
L 389.367273 307.002364 
L 389.622504 306.979747 
L 389.877736 309.241431 
L 390.132967 321.409288 
L 390.388199 296.53077 
L 390.643431 297.344976 
L 390.898662 268.553746 
L 391.153894 277.849265 
L 391.664357 265.500473 
L 391.919588 250.66383 
L 392.685283 276.37917 
L 393.195746 249.103268 
L 393.450978 256.453739 
L 393.706209 269.187017 
L 393.961441 266.043277 
L 394.216672 275.112628 
L 394.471904 261.768695 
L 394.727136 272.918795 
L 394.982367 275.135245 
L 395.237599 275.700665 
L 395.49283 278.799172 
L 395.748062 259.077292 
L 396.003293 256.928693 
L 396.513756 264.392248 
L 396.768988 276.424404 
L 397.02422 280.38235 
L 397.279451 279.997864 
L 397.534683 264.844585 
L 397.789914 268.960849 
L 398.045146 284.475997 
L 398.300377 291.53245 
L 399.066072 275.632815 
L 399.321304 285.222353 
L 399.576535 289.542168 
L 400.086998 278.09805 
L 400.34223 277.419545 
L 400.597461 281.038238 
L 400.852693 289.587402 
L 401.363156 274.207954 
L 401.873619 290.831328 
L 402.128851 292.256188 
L 402.384082 284.8831 
L 402.639314 271.855804 
L 402.894545 281.784594 
L 403.149777 273.687767 
L 403.405009 280.857304 
L 403.66024 297.299742 
L 404.170703 285.24497 
L 404.425935 280.698986 
L 404.681166 284.227212 
L 404.936398 296.191517 
L 405.19163 293.658432 
L 405.446861 285.787774 
L 405.702093 293.726282 
L 405.957324 279.794312 
L 406.212556 286.873382 
L 406.467787 297.933014 
L 406.97825 280.3145 
L 407.233482 293.115628 
L 407.488714 292.278805 
L 407.743945 299.493575 
L 407.999177 300.420865 
L 408.254408 294.698806 
L 408.50964 298.701986 
L 408.764871 288.45656 
L 409.020103 297.02834 
L 409.275334 290.107589 
L 409.530566 289.655252 
L 409.785798 276.039918 
L 410.041029 278.392069 
L 410.296261 283.45824 
L 410.551492 286.24011 
L 410.806724 293.952451 
L 411.061955 284.837867 
L 411.317187 282.123846 
L 411.572419 270.544027 
L 411.82765 284.543848 
L 412.082882 314.579004 
L 412.848576 292.685908 
L 413.103808 290.288524 
L 413.359039 304.989466 
L 413.614271 312.475638 
L 413.869503 300.420865 
L 414.124734 295.897499 
L 414.379966 301.687408 
L 414.635197 297.616378 
L 414.890429 285.878241 
L 415.14566 284.8831 
L 415.400892 290.198056 
L 415.656123 301.054137 
L 415.911355 304.876382 
L 416.67705 286.194877 
L 416.932281 290.492075 
L 417.187513 297.277125 
L 417.442744 291.826468 
L 417.697976 294.630956 
L 417.953208 304.740681 
L 418.463671 286.466279 
L 418.718902 313.945732 
L 418.974134 320.233212 
L 419.229365 322.811532 
L 419.484597 303.632456 
L 419.99506 289.089831 
L 420.250292 308.087972 
L 420.505523 317.790594 
L 421.015986 300.149463 
L 421.271218 301.732642 
L 421.526449 314.579004 
L 421.781681 314.827789 
L 422.036913 313.67433 
L 422.292144 314.420686 
L 422.547376 273.416365 
L 422.802607 254.282523 
L 423.057839 256.612057 
L 423.31307 265.817109 
L 423.823533 247.497473 
L 424.078765 253.649252 
L 424.333997 267.581222 
L 424.589228 264.754118 
L 424.84446 276.107768 
L 425.099691 255.209813 
L 425.354923 250.098409 
L 426.120617 282.304781 
L 426.375849 273.009262 
L 426.631081 257.132244 
L 426.886312 251.545886 
L 427.141544 274.795992 
L 427.396775 276.198236 
L 427.652007 273.031879 
L 427.907238 255.322898 
L 428.16247 255.277664 
L 428.417702 274.298422 
L 428.672933 277.758797 
L 428.928165 260.321218 
L 429.183396 262.37935 
L 429.438628 269.684587 
L 429.693859 273.642533 
L 429.949091 264.935052 
L 430.204322 273.642533 
L 430.459554 272.624776 
L 430.714786 257.267945 
L 430.970017 258.30832 
L 431.48048 270.838046 
L 431.735712 282.440482 
L 431.990943 277.012442 
L 432.501407 260.59262 
L 432.756638 261.610378 
L 433.267101 285.448521 
L 433.522333 276.650572 
L 433.777564 262.628135 
L 434.288027 284.679549 
L 434.543259 285.878241 
L 435.053722 267.128885 
L 435.564185 284.656932 
L 435.819417 280.246649 
L 436.074648 279.95263 
L 436.585111 280.472817 
L 436.840343 279.95263 
L 437.350806 288.004223 
L 437.606038 272.511692 
L 438.116501 287.144784 
L 438.626964 278.912256 
L 438.882196 293.45488 
L 439.137427 268.372811 
L 439.392659 267.671689 
L 440.158353 303.67769 
L 440.668816 276.039918 
L 440.924048 276.537488 
L 441.17928 292.640674 
L 441.434511 297.209275 
L 441.689743 293.8846 
L 441.944974 287.416186 
L 442.200206 287.59712 
L 442.455437 290.220673 
L 442.710669 295.445162 
L 443.221132 286.963849 
L 443.476364 294.065535 
L 443.986827 292.934693 
L 444.242058 286.850765 
L 444.49729 290.084972 
L 444.752521 286.873382 
L 445.007753 289.994505 
L 445.262985 296.915256 
L 445.518216 298.340117 
L 445.773448 303.293203 
L 446.283911 285.900858 
L 446.794374 310.643675 
L 447.049605 296.191517 
L 447.304837 299.991146 
L 447.560069 289.949271 
L 447.8153 290.220673 
L 448.070532 311.050778 
L 448.325763 311.661432 
L 448.580995 308.630776 
L 448.836226 300.6018 
L 449.091458 296.734321 
L 449.601921 323.015083 
L 449.857153 319.509474 
L 450.112384 309.806852 
L 450.367616 315.302742 
L 450.622847 302.840867 
L 451.13331 317.473959 
L 451.388542 310.372273 
L 451.899005 288.162541 
L 452.154237 288.908897 
L 452.409468 300.669651 
L 452.6647 325.616019 
L 453.175163 294.74404 
L 453.430395 296.711705 
L 453.685626 309.241431 
L 453.940858 315.777696 
L 454.196089 317.881062 
L 454.451321 309.96517 
L 454.706552 319.96181 
L 454.961784 318.10723 
L 455.217015 318.016763 
L 455.472247 273.959169 
L 455.98271 255.978786 
L 456.493173 274.140104 
L 456.748405 276.80889 
L 457.003636 275.248329 
L 457.258868 281.377491 
L 457.514099 268.259727 
L 457.769331 263.645893 
L 458.024563 270.544027 
L 458.279794 266.292062 
L 458.535026 267.558605 
L 458.790257 271.358233 
L 459.045489 271.833187 
L 459.30072 275.678049 
L 459.555952 266.133744 
L 459.811184 267.287203 
L 460.066415 261.384209 
L 460.321647 259.439161 
L 460.576878 270.498794 
L 460.83211 272.059355 
L 461.087341 283.593941 
L 461.342573 281.829828 
L 461.597804 275.090011 
L 461.853036 278.799172 
L 462.108268 272.149822 
L 462.363499 283.842726 
L 462.618731 273.868702 
L 462.873962 270.317859 
L 463.129194 281.173939 
L 463.384425 298.407967 
L 463.639657 297.299742 
L 463.894889 276.582722 
L 464.405352 289.519551 
L 464.660583 307.454701 
L 464.915815 297.435443 
L 465.171046 304.107409 
L 465.426278 288.275625 
L 465.681509 290.265907 
L 465.936741 298.340117 
L 466.191973 285.380671 
L 466.447204 286.013942 
L 466.702436 290.356374 
L 466.957667 289.38385 
L 467.212899 277.939732 
L 467.46813 281.581042 
L 467.723362 286.941232 
L 467.978593 284.159361 
L 468.233825 299.74236 
L 468.489057 292.618058 
L 468.744288 289.270766 
L 468.99952 290.062355 
L 469.254751 303.021801 
L 469.509983 300.443482 
L 469.765214 286.873382 
L 470.020446 297.118808 
L 470.275678 291.10273 
L 470.530909 300.036379 
L 471.041372 287.370952 
L 471.296604 291.17058 
L 471.551835 290.265907 
L 471.807067 299.222173 
L 472.062298 288.45656 
L 472.31753 282.530949 
L 472.572762 300.217314 
L 472.827993 294.924975 
L 473.083225 287.076933 
L 473.338456 287.574503 
L 473.848919 301.823109 
L 474.104151 296.53077 
L 474.359383 282.915436 
L 474.614614 284.747399 
L 475.125077 315.664612 
L 475.380309 314.511153 
L 475.890772 299.470958 
L 476.146003 297.548527 
L 476.401235 311.616198 
L 476.656467 381.298665 
L 476.911698 372.161464 
L 477.16693 370.216416 
L 477.422161 371.392492 
L 477.677393 320.866484 
L 477.932624 322.924616 
L 478.187856 308.359374 
L 478.443087 303.067035 
L 478.698319 313.199377 
L 478.953551 308.924795 
L 479.208782 315.008724 
L 479.464014 314.986107 
L 479.974477 294.336937 
L 480.229708 291.962169 
L 480.740172 310.281805 
L 480.995403 306.82143 
L 481.250635 300.692267 
L 481.505866 305.306102 
L 481.761098 297.752079 
L 482.016329 300.692267 
L 482.271561 301.800492 
L 482.526792 311.005544 
L 482.782024 313.651714 
L 483.037256 310.621058 
L 483.292487 316.026481 
L 483.547719 309.942553 
L 483.80295 312.498255 
L 484.058182 307.160682 
L 484.568645 318.491716 
L 484.823877 306.414327 
L 485.079108 314.194518 
L 485.33434 317.858445 
L 485.589571 325.208916 
L 485.844803 318.061996 
L 486.100034 328.171721 
L 486.355266 324.643495 
L 486.610497 318.808352 
L 486.865729 307.997505 
L 487.120961 306.640495 
L 487.376192 312.701807 
L 487.631424 324.39471 
L 487.886655 330.478638 
L 488.141887 331.383312 
L 488.397118 314.375452 
L 488.65235 322.019942 
L 488.907581 291.057496 
L 489.162813 295.513012 
L 489.928508 261.565144 
L 490.438971 285.335437 
L 490.694202 275.180478 
L 490.949434 272.24029 
L 491.204666 265.95281 
L 491.715129 284.046277 
L 492.225592 274.072253 
L 492.480823 274.818609 
L 492.736055 278.844405 
L 492.991286 280.721603 
L 493.246518 274.886459 
L 493.50175 273.823468 
L 493.756981 262.175798 
L 494.012213 258.715423 
L 494.267444 256.928693 
L 494.777907 276.605339 
L 495.543602 239.51373 
L 496.309297 282.644034 
L 496.564528 266.925334 
L 496.81976 260.977106 
L 497.585455 288.479177 
L 497.840686 276.085152 
L 498.095918 270.317859 
L 498.351149 255.730001 
L 498.606381 275.587581 
L 498.861612 285.335437 
L 499.372075 276.288703 
L 499.627307 277.510012 
L 499.882539 280.110948 
L 500.13777 284.408147 
L 500.393002 283.933193 
L 500.648233 286.036559 
L 500.903465 260.502153 
L 501.158696 268.124026 
L 501.413928 265.839726 
L 502.179623 293.38703 
L 502.690086 268.644213 
L 502.945317 276.198236 
L 503.200549 302.637315 
L 503.45578 292.504973 
L 503.711012 292.120487 
L 503.966244 279.635995 
L 504.221475 295.309461 
L 504.476707 292.482357 
L 504.731938 291.487216 
L 505.242401 287.755438 
L 505.497633 297.503294 
L 505.752864 296.055816 
L 506.008096 304.582363 
L 506.518559 300.149463 
L 507.029022 291.012262 
L 507.539485 294.698806 
L 507.794717 282.350015 
L 508.049949 293.794133 
L 508.30518 298.3175 
L 508.560412 299.991146 
L 508.815643 313.425545 
L 509.070875 318.921436 
L 509.581338 290.853944 
L 509.836569 303.609839 
L 510.091801 306.007224 
L 510.347033 311.412647 
L 510.602264 302.81825 
L 510.857496 283.480856 
L 511.112727 304.537129 
L 511.367959 315.506294 
L 511.62319 300.6018 
L 511.878422 305.871523 
L 512.133654 302.049278 
L 512.388885 310.507974 
L 512.644117 301.551707 
L 512.899348 303.790774 
L 513.15458 298.905538 
L 513.409811 298.905538 
L 513.665043 307.138065 
L 513.920274 310.010403 
L 514.175506 319.419006 
L 514.685969 291.351515 
L 514.941201 292.301422 
L 515.196432 292.685908 
L 515.451664 298.38535 
L 515.706895 297.525911 
L 515.962127 310.575824 
L 516.217358 296.892639 
L 516.47259 297.616378 
L 516.727822 296.349835 
L 516.983053 317.089472 
L 517.238285 308.721244 
L 517.493516 307.432084 
L 517.748748 304.333578 
L 518.003979 294.156002 
L 518.259211 327.244431 
L 519.024906 302.298063 
L 519.280137 309.309281 
L 519.7906 303.270587 
L 520.045832 307.138065 
L 520.301063 295.535629 
L 520.811527 315.347976 
L 521.066758 322.585363 
L 521.32199 310.53059 
L 521.577221 311.096011 
L 521.832453 309.558067 
L 522.087684 262.311499 
L 522.342916 288.343476 
L 522.598148 277.261227 
L 522.853379 276.175619 
L 523.108611 251.025699 
L 523.363842 256.679908 
L 523.874305 278.618237 
L 524.129537 277.939732 
L 524.895232 259.778414 
L 525.150463 277.283844 
L 525.405695 275.180478 
L 525.660926 277.306461 
L 525.916158 263.351874 
L 526.171389 269.752438 
L 526.426621 280.698986 
L 526.681852 271.493934 
L 526.937084 280.766836 
L 527.192316 271.561785 
L 527.447547 272.149822 
L 527.702779 264.437482 
L 527.95801 278.550387 
L 528.213242 277.215993 
L 528.468473 267.830007 
L 528.723705 268.214493 
L 528.978937 259.959349 
L 529.234168 259.258227 
L 529.4894 271.403467 
L 529.744631 277.577863 
L 529.999863 274.275805 
L 530.255094 259.73318 
L 530.510326 259.959349 
L 530.765557 270.363093 
L 531.020789 294.834507 
L 531.276021 289.496934 
L 531.531252 270.069074 
L 531.786484 270.317859 
L 532.296947 284.272446 
L 532.552178 281.807211 
L 532.80741 275.587581 
L 533.062642 285.878241 
L 533.317873 364.720526 
L 533.573105 369.945014 
L 533.828336 366.62034 
L 534.083568 301.619558 
L 534.338799 313.696947 
L 534.594031 310.123487 
L 534.849262 298.566285 
L 535.104494 300.760118 
L 535.359726 298.113948 
L 535.614957 290.401608 
L 535.870189 275.112628 
L 536.380652 295.286844 
L 536.635883 295.693947 
L 536.891115 303.994325 
L 537.146346 294.947592 
L 537.401578 290.288524 
L 537.65681 302.795633 
L 537.912041 308.856945 
L 538.167273 310.553207 
L 538.677736 291.894319 
L 539.188199 311.570965 
L 539.443431 310.055637 
L 539.698662 303.74554 
L 540.209125 308.585543 
L 540.464357 306.188158 
L 540.719588 320.436764 
L 541.230051 303.406288 
L 541.740515 322.856765 
L 541.995746 312.068535 
L 542.250978 318.944053 
L 542.506209 300.10423 
L 542.761441 290.356374 
L 543.271904 314.149284 
L 543.527136 314.217134 
L 543.782367 312.860124 
L 544.037599 293.658432 
L 544.29283 294.789274 
L 544.803293 326.769478 
L 545.058525 318.514333 
L 545.313756 301.732642 
L 545.568988 293.364413 
L 545.82422 303.994325 
L 546.079451 320.685549 
L 546.334683 326.226674 
L 546.589914 306.527411 
L 547.100377 293.38703 
L 547.355609 314.986107 
L 547.61084 313.900499 
L 547.866072 310.281805 
L 548.121304 301.235071 
L 548.376535 300.873202 
L 548.886998 330.75004 
L 549.652693 297.209275 
L 550.163156 302.795633 
L 550.418388 317.813211 
L 551.184082 305.238251 
L 551.439314 314.601621 
L 551.694545 310.824609 
L 551.949777 327.244431 
L 552.715472 304.559746 
L 552.970703 267.535988 
L 553.225935 271.697486 
L 553.481166 268.124026 
L 553.99163 251.138783 
L 554.246861 271.313 
L 554.502093 271.064214 
L 554.757324 258.534488 
L 555.012556 256.612057 
L 555.523019 270.204775 
L 555.77825 266.947951 
L 556.033482 254.011121 
L 556.288714 255.730001 
L 556.543945 248.379529 
L 556.799177 253.106448 
L 557.30964 270.996364 
L 557.564871 273.800851 
L 557.820103 257.742899 
L 558.075334 256.001403 
L 558.585798 273.190197 
L 558.841029 288.139924 
L 559.096261 272.195056 
L 559.351492 272.534309 
L 559.606724 274.841226 
L 560.117187 288.95413 
L 560.62765 269.978606 
L 560.882882 272.556925 
L 561.138113 259.461778 
L 561.393345 275.406647 
L 561.648576 265.432623 
L 561.903808 265.342155 
L 562.159039 270.544027 
L 562.414271 269.254868 
L 562.669503 271.787953 
L 562.924734 259.145143 
L 563.179966 276.989825 
L 563.435197 261.836546 
L 563.690429 258.466638 
L 563.94566 274.140104 
L 564.200892 268.056175 
L 564.456123 281.377491 
L 564.711355 275.316179 
L 565.221818 255.390748 
L 565.732281 287.235251 
L 566.242744 270.838046 
L 566.497976 274.660291 
L 566.753208 281.490575 
L 567.008439 271.652252 
L 567.263671 279.997864 
L 567.518902 277.17076 
L 567.774134 286.60198 
L 568.029365 281.581042 
L 568.284597 289.406467 
L 568.539828 289.338617 
L 568.79506 282.327398 
L 569.050292 294.133385 
L 569.305523 289.610019 
L 569.560755 293.952451 
L 569.815986 288.162541 
L 570.071218 291.713384 
L 570.326449 268.440662 
L 570.581681 281.829828 
L 570.836913 280.631135 
L 571.092144 280.789453 
L 571.347376 298.294883 
L 571.602607 303.044418 
L 571.857839 280.698986 
L 572.11307 288.230392 
L 572.368302 291.396749 
L 572.623533 317.926295 
L 572.878765 316.433584 
L 573.133997 290.627776 
L 573.389228 292.03002 
L 573.899691 314.692088 
L 574.154923 306.007224 
L 574.410154 291.080113 
L 574.665386 295.309461 
L 574.920617 305.0347 
L 575.175849 306.957131 
L 575.431081 311.932834 
L 575.686312 304.333578 
L 575.941544 288.275625 
L 576.196775 304.356195 
L 576.452007 300.782735 
L 576.707238 307.205916 
L 577.217702 288.004223 
L 577.472933 289.655252 
L 577.728165 294.223853 
L 577.983396 304.491896 
L 578.238628 307.002364 
L 578.493859 321.31882 
L 578.749091 295.377311 
L 579.004322 294.427404 
L 579.259554 302.931334 
L 579.514786 305.984607 
L 579.770017 312.520872 
L 580.025249 299.493575 
L 580.28048 302.071894 
L 580.535712 310.553207 
L 580.790943 327.809852 
L 581.046175 313.470779 
L 581.301407 314.805172 
L 581.556638 305.826289 
L 581.81187 306.730962 
L 582.067101 315.913397 
L 582.322333 316.795454 
L 582.577564 313.086293 
L 582.832796 302.230212 
L 583.088027 317.225173 
L 583.343259 315.03134 
L 583.598491 320.074895 
L 583.853722 318.672651 
L 584.108954 304.60498 
L 584.364185 269.842905 
L 584.619417 261.384209 
L 584.874648 268.598979 
L 585.12988 267.762157 
L 585.385111 266.201595 
L 585.640343 252.744578 
L 585.895575 253.015981 
L 586.406038 277.374311 
L 586.661269 279.409826 
L 586.916501 273.823468 
L 587.171732 260.117667 
L 587.426964 271.87842 
L 587.682196 300.013762 
L 587.937427 292.663291 
L 588.192659 270.136924 
L 588.44789 278.369452 
L 588.703122 274.434123 
L 588.958353 279.387209 
L 589.213585 287.1674 
L 589.468816 282.915436 
L 589.724048 273.16758 
L 589.97928 279.613378 
L 590.234511 274.728142 
L 590.489743 286.624596 
L 590.744974 276.650572 
L 591.000206 273.484216 
L 591.255437 266.834866 
L 591.510669 278.188517 
L 591.765901 274.592441 
L 592.021132 287.325718 
L 592.276364 286.963849 
L 592.531595 260.321218 
L 592.786827 261.361592 
L 593.042058 282.259547 
L 593.29729 286.850765 
L 593.552521 281.920295 
L 593.807753 267.061035 
L 594.062985 271.109448 
L 594.318216 277.826648 
L 594.573448 296.621237 
L 594.828679 291.374132 
L 595.083911 282.576183 
L 595.339142 285.199736 
L 595.594374 299.380491 
L 595.849605 307.319 
L 596.104837 295.24161 
L 596.360069 270.295242 
L 596.870532 299.810211 
L 597.125763 299.335257 
L 597.636226 288.45656 
L 598.14669 280.879921 
L 598.912384 289.361233 
L 599.167616 306.233392 
L 599.678079 266.970567 
L 600.188542 307.205916 
L 600.443774 313.719564 
L 600.699005 308.020122 
L 600.954237 293.206095 
L 601.209468 291.53245 
L 601.4647 308.020122 
L 601.719931 307.839187 
L 601.975163 309.558067 
L 602.230395 299.109089 
L 602.485626 282.5988 
L 602.740858 302.569465 
L 602.996089 308.020122 
L 603.251321 303.74554 
L 603.506552 305.826289 
L 603.761784 305.057316 
L 604.017015 308.020122 
L 604.272247 382.746143 
L 604.527479 395.434187 
L 604.78271 373.676792 
L 605.037942 379.62502 
L 605.293173 306.414327 
L 605.548405 320.436764 
L 605.803636 310.236572 
L 606.058868 319.102371 
L 606.314099 285.31282 
L 606.569331 286.941232 
L 606.824563 305.170401 
L 607.335026 320.346297 
L 607.845489 290.017122 
L 608.355952 314.398069 
L 608.611184 321.273587 
L 609.121647 297.910397 
L 609.376878 288.976747 
L 609.63211 306.482177 
L 610.142573 316.071715 
L 610.397804 304.24311 
L 611.163499 320.414147 
L 611.418731 316.727603 
L 611.673962 293.861983 
L 611.929194 295.060676 
L 612.184425 304.062176 
L 612.439657 305.396569 
L 612.694889 310.327039 
L 612.95012 319.351156 
L 613.205352 319.577324 
L 613.460583 315.415827 
L 613.715815 304.130026 
L 613.971046 315.39321 
L 614.226278 289.564785 
L 614.481509 285.086652 
L 614.991973 263.894678 
L 615.247204 269.232251 
L 615.502436 291.803852 
L 615.757667 267.038418 
L 616.012899 269.684587 
L 616.26813 273.846085 
L 616.523362 273.687767 
L 616.778593 283.299922 
L 617.289057 268.327577 
L 617.544288 269.865522 
L 618.054751 280.427584 
L 618.309983 277.736181 
L 618.565214 281.445341 
L 618.820446 281.30964 
L 619.330909 263.645893 
L 619.330909 263.645893 
" style="fill:none;stroke:#1f77b4;stroke-linecap:square;stroke-width:1.5;"/>
   </g>
   <g id="patch_3">
    <path d="M 108 448.56 
L 108 60.48 
" style="fill:none;stroke:#000000;stroke-linecap:square;stroke-linejoin:miter;stroke-width:0.8;"/>
   </g>
   <g id="patch_4">
    <path d="M 643.68 448.56 
L 643.68 60.48 
" style="fill:none;stroke:#000000;stroke-linecap:square;stroke-linejoin:miter;stroke-width:0.8;"/>
   </g>
   <g id="patch_5">
    <path d="M 108 448.56 
L 643.68 448.56 
" style="fill:none;stroke:#000000;stroke-linecap:square;stroke-linejoin:miter;stroke-width:0.8;"/>
   </g>
   <g id="patch_6">
    <path d="M 108 60.48 
L 643.68 60.48 
" style="fill:none;stroke:#000000;stroke-linecap:square;stroke-linejoin:miter;stroke-width:0.8;"/>
   </g>
   <g id="text_31">
    <!-- docker - free -->
    <g transform="translate(328.339219 54.48)scale(0.15 -0.15)">
     <defs>
      <path d="M 45.40625 46.390625 
L 45.40625 75.984375 
L 54.390625 75.984375 
L 54.390625 0 
L 45.40625 0 
L 45.40625 8.203125 
Q 42.578125 3.328125 38.25 0.953125 
Q 33.9375 -1.421875 27.875 -1.421875 
Q 17.96875 -1.421875 11.734375 6.484375 
Q 5.515625 14.40625 5.515625 27.296875 
Q 5.515625 40.1875 11.734375 48.09375 
Q 17.96875 56 27.875 56 
Q 33.9375 56 38.25 53.625 
Q 42.578125 51.265625 45.40625 46.390625 
z
M 14.796875 27.296875 
Q 14.796875 17.390625 18.875 11.75 
Q 22.953125 6.109375 30.078125 6.109375 
Q 37.203125 6.109375 41.296875 11.75 
Q 45.40625 17.390625 45.40625 27.296875 
Q 45.40625 37.203125 41.296875 42.84375 
Q 37.203125 48.484375 30.078125 48.484375 
Q 22.953125 48.484375 18.875 42.84375 
Q 14.796875 37.203125 14.796875 27.296875 
z
" id="DejaVuSans-100"/>
      <path d="M 30.609375 48.390625 
Q 23.390625 48.390625 19.1875 42.75 
Q 14.984375 37.109375 14.984375 27.296875 
Q 14.984375 17.484375 19.15625 11.84375 
Q 23.34375 6.203125 30.609375 6.203125 
Q 37.796875 6.203125 41.984375 11.859375 
Q 46.1875 17.53125 46.1875 27.296875 
Q 46.1875 37.015625 41.984375 42.703125 
Q 37.796875 48.390625 30.609375 48.390625 
z
M 30.609375 56 
Q 42.328125 56 49.015625 48.375 
Q 55.71875 40.765625 55.71875 27.296875 
Q 55.71875 13.875 49.015625 6.21875 
Q 42.328125 -1.421875 30.609375 -1.421875 
Q 18.84375 -1.421875 12.171875 6.21875 
Q 5.515625 13.875 5.515625 27.296875 
Q 5.515625 40.765625 12.171875 48.375 
Q 18.84375 56 30.609375 56 
z
" id="DejaVuSans-111"/>
      <path d="M 48.78125 52.59375 
L 48.78125 44.1875 
Q 44.96875 46.296875 41.140625 47.34375 
Q 37.3125 48.390625 33.40625 48.390625 
Q 24.65625 48.390625 19.8125 42.84375 
Q 14.984375 37.3125 14.984375 27.296875 
Q 14.984375 17.28125 19.8125 11.734375 
Q 24.65625 6.203125 33.40625 6.203125 
Q 37.3125 6.203125 41.140625 7.25 
Q 44.96875 8.296875 48.78125 10.40625 
L 48.78125 2.09375 
Q 45.015625 0.34375 40.984375 -0.53125 
Q 36.96875 -1.421875 32.421875 -1.421875 
Q 20.0625 -1.421875 12.78125 6.34375 
Q 5.515625 14.109375 5.515625 27.296875 
Q 5.515625 40.671875 12.859375 48.328125 
Q 20.21875 56 33.015625 56 
Q 37.15625 56 41.109375 55.140625 
Q 45.0625 54.296875 48.78125 52.59375 
z
" id="DejaVuSans-99"/>
      <path d="M 9.078125 75.984375 
L 18.109375 75.984375 
L 18.109375 31.109375 
L 44.921875 54.6875 
L 56.390625 54.6875 
L 27.390625 29.109375 
L 57.625 0 
L 45.90625 0 
L 18.109375 26.703125 
L 18.109375 0 
L 9.078125 0 
z
" id="DejaVuSans-107"/>
      <path d="M 41.109375 46.296875 
Q 39.59375 47.171875 37.8125 47.578125 
Q 36.03125 48 33.890625 48 
Q 26.265625 48 22.1875 43.046875 
Q 18.109375 38.09375 18.109375 28.8125 
L 18.109375 0 
L 9.078125 0 
L 9.078125 54.6875 
L 18.109375 54.6875 
L 18.109375 46.1875 
Q 20.953125 51.171875 25.484375 53.578125 
Q 30.03125 56 36.53125 56 
Q 37.453125 56 38.578125 55.875 
Q 39.703125 55.765625 41.0625 55.515625 
z
" id="DejaVuSans-114"/>
      <path id="DejaVuSans-32"/>
      <path d="M 4.890625 31.390625 
L 31.203125 31.390625 
L 31.203125 23.390625 
L 4.890625 23.390625 
z
" id="DejaVuSans-45"/>
      <path d="M 37.109375 75.984375 
L 37.109375 68.5 
L 28.515625 68.5 
Q 23.6875 68.5 21.796875 66.546875 
Q 19.921875 64.59375 19.921875 59.515625 
L 19.921875 54.6875 
L 34.71875 54.6875 
L 34.71875 47.703125 
L 19.921875 47.703125 
L 19.921875 0 
L 10.890625 0 
L 10.890625 47.703125 
L 2.296875 47.703125 
L 2.296875 54.6875 
L 10.890625 54.6875 
L 10.890625 58.5 
Q 10.890625 67.625 15.140625 71.796875 
Q 19.390625 75.984375 28.609375 75.984375 
z
" id="DejaVuSans-102"/>
     </defs>
     <use xlink:href="#DejaVuSans-100"/>
     <use x="63.476562" xlink:href="#DejaVuSans-111"/>
     <use x="124.658203" xlink:href="#DejaVuSans-99"/>
     <use x="179.638672" xlink:href="#DejaVuSans-107"/>
     <use x="233.923828" xlink:href="#DejaVuSans-101"/>
     <use x="295.447266" xlink:href="#DejaVuSans-114"/>
     <use x="336.560547" xlink:href="#DejaVuSans-32"/>
     <use x="368.347656" xlink:href="#DejaVuSans-45"/>
     <use x="404.431641" xlink:href="#DejaVuSans-32"/>
     <use x="436.21875" xlink:href="#DejaVuSans-102"/>
     <use x="471.423828" xlink:href="#DejaVuSans-114"/>
     <use x="510.287109" xlink:href="#DejaVuSans-101"/>
     <use x="571.810547" xlink:href="#DejaVuSans-101"/>
    </g>
   </g>
   <g id="legend_1">
    <g id="patch_7">
     <path d="M 650.68 258.52 
L 654.68 258.52 
Q 656.68 258.52 656.68 256.52 
L 656.68 252.52 
Q 656.68 250.52 654.68 250.52 
L 650.68 250.52 
Q 648.68 250.52 648.68 252.52 
L 648.68 256.52 
Q 648.68 258.52 650.68 258.52 
z
" style="fill:#ffffff;opacity:0.8;stroke:#cccccc;stroke-linejoin:miter;"/>
    </g>
   </g>
  </g>
 </g>
 <defs>
  <clipPath id="pbaff37396a">
   <rect height="388.08" width="535.68" x="108" y="60.48"/>
  </clipPath>
 </defs>
</svg>
