<?xml version="1.0" encoding="utf-8" standalone="no"?>
<!DOCTYPE svg PUBLIC "-//W3C//DTD SVG 1.1//EN"
  "http://www.w3.org/Graphics/SVG/1.1/DTD/svg11.dtd">
<!-- Created with matplotlib (https://matplotlib.org/) -->
<svg height="504pt" version="1.1" viewBox="0 0 864 504" width="864pt" xmlns="http://www.w3.org/2000/svg" xmlns:xlink="http://www.w3.org/1999/xlink">
 <metadata>
  <rdf:RDF xmlns:cc="http://creativecommons.org/ns#" xmlns:dc="http://purl.org/dc/elements/1.1/" xmlns:rdf="http://www.w3.org/1999/02/22-rdf-syntax-ns#">
   <cc:Work>
    <dc:type rdf:resource="http://purl.org/dc/dcmitype/StillImage"/>
    <dc:date>2022-05-29T16:58:02.454438</dc:date>
    <dc:format>image/svg+xml</dc:format>
    <dc:creator>
     <cc:Agent>
      <dc:title>Matplotlib v3.3.4, https://matplotlib.org/</dc:title>
     </cc:Agent>
    </dc:creator>
   </cc:Work>
  </rdf:RDF>
 </metadata>
 <defs>
  <style type="text/css">*{stroke-linecap:butt;stroke-linejoin:round;}</style>
 </defs>
 <g id="figure_1">
  <g id="patch_1">
   <path d="M 0 504 
L 864 504 
L 864 0 
L 0 0 
z
" style="fill:#ffffff;"/>
  </g>
  <g id="axes_1">
   <g id="patch_2">
    <path d="M 108 448.56 
L 643.68 448.56 
L 643.68 60.48 
L 108 60.48 
z
" style="fill:#ffffff;"/>
   </g>
   <g id="matplotlib.axis_1">
    <g id="xtick_1">
     <g id="line2d_1">
      <defs>
       <path d="M 0 0 
L 0 3.5 
" id="mb25aa20870" style="stroke:#000000;stroke-width:0.8;"/>
      </defs>
      <g>
       <use style="stroke:#000000;stroke-width:0.8;" x="132.349091" xlink:href="#mb25aa20870" y="448.56"/>
      </g>
     </g>
     <g id="text_1">
      <!-- 21:15:13 -->
      <g transform="translate(135.108466 500.4725)rotate(-90)scale(0.1 -0.1)">
       <defs>
        <path d="M 19.1875 8.296875 
L 53.609375 8.296875 
L 53.609375 0 
L 7.328125 0 
L 7.328125 8.296875 
Q 12.9375 14.109375 22.625 23.890625 
Q 32.328125 33.6875 34.8125 36.53125 
Q 39.546875 41.84375 41.421875 45.53125 
Q 43.3125 49.21875 43.3125 52.78125 
Q 43.3125 58.59375 39.234375 62.25 
Q 35.15625 65.921875 28.609375 65.921875 
Q 23.96875 65.921875 18.8125 64.3125 
Q 13.671875 62.703125 7.8125 59.421875 
L 7.8125 69.390625 
Q 13.765625 71.78125 18.9375 73 
Q 24.125 74.21875 28.421875 74.21875 
Q 39.75 74.21875 46.484375 68.546875 
Q 53.21875 62.890625 53.21875 53.421875 
Q 53.21875 48.921875 51.53125 44.890625 
Q 49.859375 40.875 45.40625 35.40625 
Q 44.1875 33.984375 37.640625 27.21875 
Q 31.109375 20.453125 19.1875 8.296875 
z
" id="DejaVuSans-50"/>
        <path d="M 12.40625 8.296875 
L 28.515625 8.296875 
L 28.515625 63.921875 
L 10.984375 60.40625 
L 10.984375 69.390625 
L 28.421875 72.90625 
L 38.28125 72.90625 
L 38.28125 8.296875 
L 54.390625 8.296875 
L 54.390625 0 
L 12.40625 0 
z
" id="DejaVuSans-49"/>
        <path d="M 11.71875 12.40625 
L 22.015625 12.40625 
L 22.015625 0 
L 11.71875 0 
z
M 11.71875 51.703125 
L 22.015625 51.703125 
L 22.015625 39.3125 
L 11.71875 39.3125 
z
" id="DejaVuSans-58"/>
        <path d="M 10.796875 72.90625 
L 49.515625 72.90625 
L 49.515625 64.59375 
L 19.828125 64.59375 
L 19.828125 46.734375 
Q 21.96875 47.46875 24.109375 47.828125 
Q 26.265625 48.1875 28.421875 48.1875 
Q 40.625 48.1875 47.75 41.5 
Q 54.890625 34.8125 54.890625 23.390625 
Q 54.890625 11.625 47.5625 5.09375 
Q 40.234375 -1.421875 26.90625 -1.421875 
Q 22.3125 -1.421875 17.546875 -0.640625 
Q 12.796875 0.140625 7.71875 1.703125 
L 7.71875 11.625 
Q 12.109375 9.234375 16.796875 8.0625 
Q 21.484375 6.890625 26.703125 6.890625 
Q 35.15625 6.890625 40.078125 11.328125 
Q 45.015625 15.765625 45.015625 23.390625 
Q 45.015625 31 40.078125 35.4375 
Q 35.15625 39.890625 26.703125 39.890625 
Q 22.75 39.890625 18.8125 39.015625 
Q 14.890625 38.140625 10.796875 36.28125 
z
" id="DejaVuSans-53"/>
        <path d="M 40.578125 39.3125 
Q 47.65625 37.796875 51.625 33 
Q 55.609375 28.21875 55.609375 21.1875 
Q 55.609375 10.40625 48.1875 4.484375 
Q 40.765625 -1.421875 27.09375 -1.421875 
Q 22.515625 -1.421875 17.65625 -0.515625 
Q 12.796875 0.390625 7.625 2.203125 
L 7.625 11.71875 
Q 11.71875 9.328125 16.59375 8.109375 
Q 21.484375 6.890625 26.8125 6.890625 
Q 36.078125 6.890625 40.9375 10.546875 
Q 45.796875 14.203125 45.796875 21.1875 
Q 45.796875 27.640625 41.28125 31.265625 
Q 36.765625 34.90625 28.71875 34.90625 
L 20.21875 34.90625 
L 20.21875 43.015625 
L 29.109375 43.015625 
Q 36.375 43.015625 40.234375 45.921875 
Q 44.09375 48.828125 44.09375 54.296875 
Q 44.09375 59.90625 40.109375 62.90625 
Q 36.140625 65.921875 28.71875 65.921875 
Q 24.65625 65.921875 20.015625 65.03125 
Q 15.375 64.15625 9.8125 62.3125 
L 9.8125 71.09375 
Q 15.4375 72.65625 20.34375 73.4375 
Q 25.25 74.21875 29.59375 74.21875 
Q 40.828125 74.21875 47.359375 69.109375 
Q 53.90625 64.015625 53.90625 55.328125 
Q 53.90625 49.265625 50.4375 45.09375 
Q 46.96875 40.921875 40.578125 39.3125 
z
" id="DejaVuSans-51"/>
       </defs>
       <use xlink:href="#DejaVuSans-50"/>
       <use x="63.623047" xlink:href="#DejaVuSans-49"/>
       <use x="127.246094" xlink:href="#DejaVuSans-58"/>
       <use x="160.9375" xlink:href="#DejaVuSans-49"/>
       <use x="224.560547" xlink:href="#DejaVuSans-53"/>
       <use x="288.183594" xlink:href="#DejaVuSans-58"/>
       <use x="321.875" xlink:href="#DejaVuSans-49"/>
       <use x="385.498047" xlink:href="#DejaVuSans-51"/>
      </g>
     </g>
    </g>
    <g id="xtick_2">
     <g id="line2d_2">
      <g>
       <use style="stroke:#000000;stroke-width:0.8;" x="156.477652" xlink:href="#mb25aa20870" y="448.56"/>
      </g>
     </g>
     <g id="text_2">
      <!-- 21:17:05 -->
      <g transform="translate(159.237027 500.4725)rotate(-90)scale(0.1 -0.1)">
       <defs>
        <path d="M 8.203125 72.90625 
L 55.078125 72.90625 
L 55.078125 68.703125 
L 28.609375 0 
L 18.3125 0 
L 43.21875 64.59375 
L 8.203125 64.59375 
z
" id="DejaVuSans-55"/>
        <path d="M 31.78125 66.40625 
Q 24.171875 66.40625 20.328125 58.90625 
Q 16.5 51.421875 16.5 36.375 
Q 16.5 21.390625 20.328125 13.890625 
Q 24.171875 6.390625 31.78125 6.390625 
Q 39.453125 6.390625 43.28125 13.890625 
Q 47.125 21.390625 47.125 36.375 
Q 47.125 51.421875 43.28125 58.90625 
Q 39.453125 66.40625 31.78125 66.40625 
z
M 31.78125 74.21875 
Q 44.046875 74.21875 50.515625 64.515625 
Q 56.984375 54.828125 56.984375 36.375 
Q 56.984375 17.96875 50.515625 8.265625 
Q 44.046875 -1.421875 31.78125 -1.421875 
Q 19.53125 -1.421875 13.0625 8.265625 
Q 6.59375 17.96875 6.59375 36.375 
Q 6.59375 54.828125 13.0625 64.515625 
Q 19.53125 74.21875 31.78125 74.21875 
z
" id="DejaVuSans-48"/>
       </defs>
       <use xlink:href="#DejaVuSans-50"/>
       <use x="63.623047" xlink:href="#DejaVuSans-49"/>
       <use x="127.246094" xlink:href="#DejaVuSans-58"/>
       <use x="160.9375" xlink:href="#DejaVuSans-49"/>
       <use x="224.560547" xlink:href="#DejaVuSans-55"/>
       <use x="288.183594" xlink:href="#DejaVuSans-58"/>
       <use x="321.875" xlink:href="#DejaVuSans-48"/>
       <use x="385.498047" xlink:href="#DejaVuSans-53"/>
      </g>
     </g>
    </g>
    <g id="xtick_3">
     <g id="line2d_3">
      <g>
       <use style="stroke:#000000;stroke-width:0.8;" x="180.606213" xlink:href="#mb25aa20870" y="448.56"/>
      </g>
     </g>
     <g id="text_3">
      <!-- 21:18:56 -->
      <g transform="translate(183.365588 500.4725)rotate(-90)scale(0.1 -0.1)">
       <defs>
        <path d="M 31.78125 34.625 
Q 24.75 34.625 20.71875 30.859375 
Q 16.703125 27.09375 16.703125 20.515625 
Q 16.703125 13.921875 20.71875 10.15625 
Q 24.75 6.390625 31.78125 6.390625 
Q 38.8125 6.390625 42.859375 10.171875 
Q 46.921875 13.96875 46.921875 20.515625 
Q 46.921875 27.09375 42.890625 30.859375 
Q 38.875 34.625 31.78125 34.625 
z
M 21.921875 38.8125 
Q 15.578125 40.375 12.03125 44.71875 
Q 8.5 49.078125 8.5 55.328125 
Q 8.5 64.0625 14.71875 69.140625 
Q 20.953125 74.21875 31.78125 74.21875 
Q 42.671875 74.21875 48.875 69.140625 
Q 55.078125 64.0625 55.078125 55.328125 
Q 55.078125 49.078125 51.53125 44.71875 
Q 48 40.375 41.703125 38.8125 
Q 48.828125 37.15625 52.796875 32.3125 
Q 56.78125 27.484375 56.78125 20.515625 
Q 56.78125 9.90625 50.3125 4.234375 
Q 43.84375 -1.421875 31.78125 -1.421875 
Q 19.734375 -1.421875 13.25 4.234375 
Q 6.78125 9.90625 6.78125 20.515625 
Q 6.78125 27.484375 10.78125 32.3125 
Q 14.796875 37.15625 21.921875 38.8125 
z
M 18.3125 54.390625 
Q 18.3125 48.734375 21.84375 45.5625 
Q 25.390625 42.390625 31.78125 42.390625 
Q 38.140625 42.390625 41.71875 45.5625 
Q 45.3125 48.734375 45.3125 54.390625 
Q 45.3125 60.0625 41.71875 63.234375 
Q 38.140625 66.40625 31.78125 66.40625 
Q 25.390625 66.40625 21.84375 63.234375 
Q 18.3125 60.0625 18.3125 54.390625 
z
" id="DejaVuSans-56"/>
        <path d="M 33.015625 40.375 
Q 26.375 40.375 22.484375 35.828125 
Q 18.609375 31.296875 18.609375 23.390625 
Q 18.609375 15.53125 22.484375 10.953125 
Q 26.375 6.390625 33.015625 6.390625 
Q 39.65625 6.390625 43.53125 10.953125 
Q 47.40625 15.53125 47.40625 23.390625 
Q 47.40625 31.296875 43.53125 35.828125 
Q 39.65625 40.375 33.015625 40.375 
z
M 52.59375 71.296875 
L 52.59375 62.3125 
Q 48.875 64.0625 45.09375 64.984375 
Q 41.3125 65.921875 37.59375 65.921875 
Q 27.828125 65.921875 22.671875 59.328125 
Q 17.53125 52.734375 16.796875 39.40625 
Q 19.671875 43.65625 24.015625 45.921875 
Q 28.375 48.1875 33.59375 48.1875 
Q 44.578125 48.1875 50.953125 41.515625 
Q 57.328125 34.859375 57.328125 23.390625 
Q 57.328125 12.15625 50.6875 5.359375 
Q 44.046875 -1.421875 33.015625 -1.421875 
Q 20.359375 -1.421875 13.671875 8.265625 
Q 6.984375 17.96875 6.984375 36.375 
Q 6.984375 53.65625 15.1875 63.9375 
Q 23.390625 74.21875 37.203125 74.21875 
Q 40.921875 74.21875 44.703125 73.484375 
Q 48.484375 72.75 52.59375 71.296875 
z
" id="DejaVuSans-54"/>
       </defs>
       <use xlink:href="#DejaVuSans-50"/>
       <use x="63.623047" xlink:href="#DejaVuSans-49"/>
       <use x="127.246094" xlink:href="#DejaVuSans-58"/>
       <use x="160.9375" xlink:href="#DejaVuSans-49"/>
       <use x="224.560547" xlink:href="#DejaVuSans-56"/>
       <use x="288.183594" xlink:href="#DejaVuSans-58"/>
       <use x="321.875" xlink:href="#DejaVuSans-53"/>
       <use x="385.498047" xlink:href="#DejaVuSans-54"/>
      </g>
     </g>
    </g>
    <g id="xtick_4">
     <g id="line2d_4">
      <g>
       <use style="stroke:#000000;stroke-width:0.8;" x="204.734774" xlink:href="#mb25aa20870" y="448.56"/>
      </g>
     </g>
     <g id="text_4">
      <!-- 21:20:47 -->
      <g transform="translate(207.494149 500.4725)rotate(-90)scale(0.1 -0.1)">
       <defs>
        <path d="M 37.796875 64.3125 
L 12.890625 25.390625 
L 37.796875 25.390625 
z
M 35.203125 72.90625 
L 47.609375 72.90625 
L 47.609375 25.390625 
L 58.015625 25.390625 
L 58.015625 17.1875 
L 47.609375 17.1875 
L 47.609375 0 
L 37.796875 0 
L 37.796875 17.1875 
L 4.890625 17.1875 
L 4.890625 26.703125 
z
" id="DejaVuSans-52"/>
       </defs>
       <use xlink:href="#DejaVuSans-50"/>
       <use x="63.623047" xlink:href="#DejaVuSans-49"/>
       <use x="127.246094" xlink:href="#DejaVuSans-58"/>
       <use x="160.9375" xlink:href="#DejaVuSans-50"/>
       <use x="224.560547" xlink:href="#DejaVuSans-48"/>
       <use x="288.183594" xlink:href="#DejaVuSans-58"/>
       <use x="321.875" xlink:href="#DejaVuSans-52"/>
       <use x="385.498047" xlink:href="#DejaVuSans-55"/>
      </g>
     </g>
    </g>
    <g id="xtick_5">
     <g id="line2d_5">
      <g>
       <use style="stroke:#000000;stroke-width:0.8;" x="228.863335" xlink:href="#mb25aa20870" y="448.56"/>
      </g>
     </g>
     <g id="text_5">
      <!-- 21:22:38 -->
      <g transform="translate(231.62271 500.4725)rotate(-90)scale(0.1 -0.1)">
       <use xlink:href="#DejaVuSans-50"/>
       <use x="63.623047" xlink:href="#DejaVuSans-49"/>
       <use x="127.246094" xlink:href="#DejaVuSans-58"/>
       <use x="160.9375" xlink:href="#DejaVuSans-50"/>
       <use x="224.560547" xlink:href="#DejaVuSans-50"/>
       <use x="288.183594" xlink:href="#DejaVuSans-58"/>
       <use x="321.875" xlink:href="#DejaVuSans-51"/>
       <use x="385.498047" xlink:href="#DejaVuSans-56"/>
      </g>
     </g>
    </g>
    <g id="xtick_6">
     <g id="line2d_6">
      <g>
       <use style="stroke:#000000;stroke-width:0.8;" x="252.991896" xlink:href="#mb25aa20870" y="448.56"/>
      </g>
     </g>
     <g id="text_6">
      <!-- 21:24:29 -->
      <g transform="translate(255.751271 500.4725)rotate(-90)scale(0.1 -0.1)">
       <defs>
        <path d="M 10.984375 1.515625 
L 10.984375 10.5 
Q 14.703125 8.734375 18.5 7.8125 
Q 22.3125 6.890625 25.984375 6.890625 
Q 35.75 6.890625 40.890625 13.453125 
Q 46.046875 20.015625 46.78125 33.40625 
Q 43.953125 29.203125 39.59375 26.953125 
Q 35.25 24.703125 29.984375 24.703125 
Q 19.046875 24.703125 12.671875 31.3125 
Q 6.296875 37.9375 6.296875 49.421875 
Q 6.296875 60.640625 12.9375 67.421875 
Q 19.578125 74.21875 30.609375 74.21875 
Q 43.265625 74.21875 49.921875 64.515625 
Q 56.59375 54.828125 56.59375 36.375 
Q 56.59375 19.140625 48.40625 8.859375 
Q 40.234375 -1.421875 26.421875 -1.421875 
Q 22.703125 -1.421875 18.890625 -0.6875 
Q 15.09375 0.046875 10.984375 1.515625 
z
M 30.609375 32.421875 
Q 37.25 32.421875 41.125 36.953125 
Q 45.015625 41.5 45.015625 49.421875 
Q 45.015625 57.28125 41.125 61.84375 
Q 37.25 66.40625 30.609375 66.40625 
Q 23.96875 66.40625 20.09375 61.84375 
Q 16.21875 57.28125 16.21875 49.421875 
Q 16.21875 41.5 20.09375 36.953125 
Q 23.96875 32.421875 30.609375 32.421875 
z
" id="DejaVuSans-57"/>
       </defs>
       <use xlink:href="#DejaVuSans-50"/>
       <use x="63.623047" xlink:href="#DejaVuSans-49"/>
       <use x="127.246094" xlink:href="#DejaVuSans-58"/>
       <use x="160.9375" xlink:href="#DejaVuSans-50"/>
       <use x="224.560547" xlink:href="#DejaVuSans-52"/>
       <use x="288.183594" xlink:href="#DejaVuSans-58"/>
       <use x="321.875" xlink:href="#DejaVuSans-50"/>
       <use x="385.498047" xlink:href="#DejaVuSans-57"/>
      </g>
     </g>
    </g>
    <g id="xtick_7">
     <g id="line2d_7">
      <g>
       <use style="stroke:#000000;stroke-width:0.8;" x="277.120457" xlink:href="#mb25aa20870" y="448.56"/>
      </g>
     </g>
     <g id="text_7">
      <!-- 21:26:20 -->
      <g transform="translate(279.879832 500.4725)rotate(-90)scale(0.1 -0.1)">
       <use xlink:href="#DejaVuSans-50"/>
       <use x="63.623047" xlink:href="#DejaVuSans-49"/>
       <use x="127.246094" xlink:href="#DejaVuSans-58"/>
       <use x="160.9375" xlink:href="#DejaVuSans-50"/>
       <use x="224.560547" xlink:href="#DejaVuSans-54"/>
       <use x="288.183594" xlink:href="#DejaVuSans-58"/>
       <use x="321.875" xlink:href="#DejaVuSans-50"/>
       <use x="385.498047" xlink:href="#DejaVuSans-48"/>
      </g>
     </g>
    </g>
    <g id="xtick_8">
     <g id="line2d_8">
      <g>
       <use style="stroke:#000000;stroke-width:0.8;" x="301.249018" xlink:href="#mb25aa20870" y="448.56"/>
      </g>
     </g>
     <g id="text_8">
      <!-- 21:28:12 -->
      <g transform="translate(304.008393 500.4725)rotate(-90)scale(0.1 -0.1)">
       <use xlink:href="#DejaVuSans-50"/>
       <use x="63.623047" xlink:href="#DejaVuSans-49"/>
       <use x="127.246094" xlink:href="#DejaVuSans-58"/>
       <use x="160.9375" xlink:href="#DejaVuSans-50"/>
       <use x="224.560547" xlink:href="#DejaVuSans-56"/>
       <use x="288.183594" xlink:href="#DejaVuSans-58"/>
       <use x="321.875" xlink:href="#DejaVuSans-49"/>
       <use x="385.498047" xlink:href="#DejaVuSans-50"/>
      </g>
     </g>
    </g>
    <g id="xtick_9">
     <g id="line2d_9">
      <g>
       <use style="stroke:#000000;stroke-width:0.8;" x="325.377579" xlink:href="#mb25aa20870" y="448.56"/>
      </g>
     </g>
     <g id="text_9">
      <!-- 21:30:03 -->
      <g transform="translate(328.136954 500.4725)rotate(-90)scale(0.1 -0.1)">
       <use xlink:href="#DejaVuSans-50"/>
       <use x="63.623047" xlink:href="#DejaVuSans-49"/>
       <use x="127.246094" xlink:href="#DejaVuSans-58"/>
       <use x="160.9375" xlink:href="#DejaVuSans-51"/>
       <use x="224.560547" xlink:href="#DejaVuSans-48"/>
       <use x="288.183594" xlink:href="#DejaVuSans-58"/>
       <use x="321.875" xlink:href="#DejaVuSans-48"/>
       <use x="385.498047" xlink:href="#DejaVuSans-51"/>
      </g>
     </g>
    </g>
    <g id="xtick_10">
     <g id="line2d_10">
      <g>
       <use style="stroke:#000000;stroke-width:0.8;" x="349.50614" xlink:href="#mb25aa20870" y="448.56"/>
      </g>
     </g>
     <g id="text_10">
      <!-- 21:31:54 -->
      <g transform="translate(352.265515 500.4725)rotate(-90)scale(0.1 -0.1)">
       <use xlink:href="#DejaVuSans-50"/>
       <use x="63.623047" xlink:href="#DejaVuSans-49"/>
       <use x="127.246094" xlink:href="#DejaVuSans-58"/>
       <use x="160.9375" xlink:href="#DejaVuSans-51"/>
       <use x="224.560547" xlink:href="#DejaVuSans-49"/>
       <use x="288.183594" xlink:href="#DejaVuSans-58"/>
       <use x="321.875" xlink:href="#DejaVuSans-53"/>
       <use x="385.498047" xlink:href="#DejaVuSans-52"/>
      </g>
     </g>
    </g>
    <g id="xtick_11">
     <g id="line2d_11">
      <g>
       <use style="stroke:#000000;stroke-width:0.8;" x="373.634701" xlink:href="#mb25aa20870" y="448.56"/>
      </g>
     </g>
     <g id="text_11">
      <!-- 21:33:45 -->
      <g transform="translate(376.394076 500.4725)rotate(-90)scale(0.1 -0.1)">
       <use xlink:href="#DejaVuSans-50"/>
       <use x="63.623047" xlink:href="#DejaVuSans-49"/>
       <use x="127.246094" xlink:href="#DejaVuSans-58"/>
       <use x="160.9375" xlink:href="#DejaVuSans-51"/>
       <use x="224.560547" xlink:href="#DejaVuSans-51"/>
       <use x="288.183594" xlink:href="#DejaVuSans-58"/>
       <use x="321.875" xlink:href="#DejaVuSans-52"/>
       <use x="385.498047" xlink:href="#DejaVuSans-53"/>
      </g>
     </g>
    </g>
    <g id="xtick_12">
     <g id="line2d_12">
      <g>
       <use style="stroke:#000000;stroke-width:0.8;" x="397.763262" xlink:href="#mb25aa20870" y="448.56"/>
      </g>
     </g>
     <g id="text_12">
      <!-- 21:35:36 -->
      <g transform="translate(400.522637 500.4725)rotate(-90)scale(0.1 -0.1)">
       <use xlink:href="#DejaVuSans-50"/>
       <use x="63.623047" xlink:href="#DejaVuSans-49"/>
       <use x="127.246094" xlink:href="#DejaVuSans-58"/>
       <use x="160.9375" xlink:href="#DejaVuSans-51"/>
       <use x="224.560547" xlink:href="#DejaVuSans-53"/>
       <use x="288.183594" xlink:href="#DejaVuSans-58"/>
       <use x="321.875" xlink:href="#DejaVuSans-51"/>
       <use x="385.498047" xlink:href="#DejaVuSans-54"/>
      </g>
     </g>
    </g>
    <g id="xtick_13">
     <g id="line2d_13">
      <g>
       <use style="stroke:#000000;stroke-width:0.8;" x="421.891824" xlink:href="#mb25aa20870" y="448.56"/>
      </g>
     </g>
     <g id="text_13">
      <!-- 21:37:28 -->
      <g transform="translate(424.651199 500.4725)rotate(-90)scale(0.1 -0.1)">
       <use xlink:href="#DejaVuSans-50"/>
       <use x="63.623047" xlink:href="#DejaVuSans-49"/>
       <use x="127.246094" xlink:href="#DejaVuSans-58"/>
       <use x="160.9375" xlink:href="#DejaVuSans-51"/>
       <use x="224.560547" xlink:href="#DejaVuSans-55"/>
       <use x="288.183594" xlink:href="#DejaVuSans-58"/>
       <use x="321.875" xlink:href="#DejaVuSans-50"/>
       <use x="385.498047" xlink:href="#DejaVuSans-56"/>
      </g>
     </g>
    </g>
    <g id="xtick_14">
     <g id="line2d_14">
      <g>
       <use style="stroke:#000000;stroke-width:0.8;" x="446.020385" xlink:href="#mb25aa20870" y="448.56"/>
      </g>
     </g>
     <g id="text_14">
      <!-- 21:39:19 -->
      <g transform="translate(448.77976 500.4725)rotate(-90)scale(0.1 -0.1)">
       <use xlink:href="#DejaVuSans-50"/>
       <use x="63.623047" xlink:href="#DejaVuSans-49"/>
       <use x="127.246094" xlink:href="#DejaVuSans-58"/>
       <use x="160.9375" xlink:href="#DejaVuSans-51"/>
       <use x="224.560547" xlink:href="#DejaVuSans-57"/>
       <use x="288.183594" xlink:href="#DejaVuSans-58"/>
       <use x="321.875" xlink:href="#DejaVuSans-49"/>
       <use x="385.498047" xlink:href="#DejaVuSans-57"/>
      </g>
     </g>
    </g>
    <g id="xtick_15">
     <g id="line2d_15">
      <g>
       <use style="stroke:#000000;stroke-width:0.8;" x="470.148946" xlink:href="#mb25aa20870" y="448.56"/>
      </g>
     </g>
     <g id="text_15">
      <!-- 21:41:10 -->
      <g transform="translate(472.908321 500.4725)rotate(-90)scale(0.1 -0.1)">
       <use xlink:href="#DejaVuSans-50"/>
       <use x="63.623047" xlink:href="#DejaVuSans-49"/>
       <use x="127.246094" xlink:href="#DejaVuSans-58"/>
       <use x="160.9375" xlink:href="#DejaVuSans-52"/>
       <use x="224.560547" xlink:href="#DejaVuSans-49"/>
       <use x="288.183594" xlink:href="#DejaVuSans-58"/>
       <use x="321.875" xlink:href="#DejaVuSans-49"/>
       <use x="385.498047" xlink:href="#DejaVuSans-48"/>
      </g>
     </g>
    </g>
    <g id="xtick_16">
     <g id="line2d_16">
      <g>
       <use style="stroke:#000000;stroke-width:0.8;" x="494.277507" xlink:href="#mb25aa20870" y="448.56"/>
      </g>
     </g>
     <g id="text_16">
      <!-- 21:43:01 -->
      <g transform="translate(497.036882 500.4725)rotate(-90)scale(0.1 -0.1)">
       <use xlink:href="#DejaVuSans-50"/>
       <use x="63.623047" xlink:href="#DejaVuSans-49"/>
       <use x="127.246094" xlink:href="#DejaVuSans-58"/>
       <use x="160.9375" xlink:href="#DejaVuSans-52"/>
       <use x="224.560547" xlink:href="#DejaVuSans-51"/>
       <use x="288.183594" xlink:href="#DejaVuSans-58"/>
       <use x="321.875" xlink:href="#DejaVuSans-48"/>
       <use x="385.498047" xlink:href="#DejaVuSans-49"/>
      </g>
     </g>
    </g>
    <g id="xtick_17">
     <g id="line2d_17">
      <g>
       <use style="stroke:#000000;stroke-width:0.8;" x="518.406068" xlink:href="#mb25aa20870" y="448.56"/>
      </g>
     </g>
     <g id="text_17">
      <!-- 21:44:52 -->
      <g transform="translate(521.165443 500.4725)rotate(-90)scale(0.1 -0.1)">
       <use xlink:href="#DejaVuSans-50"/>
       <use x="63.623047" xlink:href="#DejaVuSans-49"/>
       <use x="127.246094" xlink:href="#DejaVuSans-58"/>
       <use x="160.9375" xlink:href="#DejaVuSans-52"/>
       <use x="224.560547" xlink:href="#DejaVuSans-52"/>
       <use x="288.183594" xlink:href="#DejaVuSans-58"/>
       <use x="321.875" xlink:href="#DejaVuSans-53"/>
       <use x="385.498047" xlink:href="#DejaVuSans-50"/>
      </g>
     </g>
    </g>
    <g id="xtick_18">
     <g id="line2d_18">
      <g>
       <use style="stroke:#000000;stroke-width:0.8;" x="542.534629" xlink:href="#mb25aa20870" y="448.56"/>
      </g>
     </g>
     <g id="text_18">
      <!-- 21:46:43 -->
      <g transform="translate(545.294004 500.4725)rotate(-90)scale(0.1 -0.1)">
       <use xlink:href="#DejaVuSans-50"/>
       <use x="63.623047" xlink:href="#DejaVuSans-49"/>
       <use x="127.246094" xlink:href="#DejaVuSans-58"/>
       <use x="160.9375" xlink:href="#DejaVuSans-52"/>
       <use x="224.560547" xlink:href="#DejaVuSans-54"/>
       <use x="288.183594" xlink:href="#DejaVuSans-58"/>
       <use x="321.875" xlink:href="#DejaVuSans-52"/>
       <use x="385.498047" xlink:href="#DejaVuSans-51"/>
      </g>
     </g>
    </g>
    <g id="xtick_19">
     <g id="line2d_19">
      <g>
       <use style="stroke:#000000;stroke-width:0.8;" x="566.66319" xlink:href="#mb25aa20870" y="448.56"/>
      </g>
     </g>
     <g id="text_19">
      <!-- 21:48:34 -->
      <g transform="translate(569.422565 500.4725)rotate(-90)scale(0.1 -0.1)">
       <use xlink:href="#DejaVuSans-50"/>
       <use x="63.623047" xlink:href="#DejaVuSans-49"/>
       <use x="127.246094" xlink:href="#DejaVuSans-58"/>
       <use x="160.9375" xlink:href="#DejaVuSans-52"/>
       <use x="224.560547" xlink:href="#DejaVuSans-56"/>
       <use x="288.183594" xlink:href="#DejaVuSans-58"/>
       <use x="321.875" xlink:href="#DejaVuSans-51"/>
       <use x="385.498047" xlink:href="#DejaVuSans-52"/>
      </g>
     </g>
    </g>
    <g id="xtick_20">
     <g id="line2d_20">
      <g>
       <use style="stroke:#000000;stroke-width:0.8;" x="590.791751" xlink:href="#mb25aa20870" y="448.56"/>
      </g>
     </g>
     <g id="text_20">
      <!-- 21:50:26 -->
      <g transform="translate(593.551126 500.4725)rotate(-90)scale(0.1 -0.1)">
       <use xlink:href="#DejaVuSans-50"/>
       <use x="63.623047" xlink:href="#DejaVuSans-49"/>
       <use x="127.246094" xlink:href="#DejaVuSans-58"/>
       <use x="160.9375" xlink:href="#DejaVuSans-53"/>
       <use x="224.560547" xlink:href="#DejaVuSans-48"/>
       <use x="288.183594" xlink:href="#DejaVuSans-58"/>
       <use x="321.875" xlink:href="#DejaVuSans-50"/>
       <use x="385.498047" xlink:href="#DejaVuSans-54"/>
      </g>
     </g>
    </g>
    <g id="xtick_21">
     <g id="line2d_21">
      <g>
       <use style="stroke:#000000;stroke-width:0.8;" x="614.920312" xlink:href="#mb25aa20870" y="448.56"/>
      </g>
     </g>
     <g id="text_21">
      <!-- 21:52:16 -->
      <g transform="translate(617.679687 500.4725)rotate(-90)scale(0.1 -0.1)">
       <use xlink:href="#DejaVuSans-50"/>
       <use x="63.623047" xlink:href="#DejaVuSans-49"/>
       <use x="127.246094" xlink:href="#DejaVuSans-58"/>
       <use x="160.9375" xlink:href="#DejaVuSans-53"/>
       <use x="224.560547" xlink:href="#DejaVuSans-50"/>
       <use x="288.183594" xlink:href="#DejaVuSans-58"/>
       <use x="321.875" xlink:href="#DejaVuSans-49"/>
       <use x="385.498047" xlink:href="#DejaVuSans-54"/>
      </g>
     </g>
    </g>
    <g id="text_22">
     <!-- timestamp -->
     <g transform="translate(354.264375 510.55125)scale(0.08 -0.08)">
      <defs>
       <path d="M 18.3125 70.21875 
L 18.3125 54.6875 
L 36.8125 54.6875 
L 36.8125 47.703125 
L 18.3125 47.703125 
L 18.3125 18.015625 
Q 18.3125 11.328125 20.140625 9.421875 
Q 21.96875 7.515625 27.59375 7.515625 
L 36.8125 7.515625 
L 36.8125 0 
L 27.59375 0 
Q 17.1875 0 13.234375 3.875 
Q 9.28125 7.765625 9.28125 18.015625 
L 9.28125 47.703125 
L 2.6875 47.703125 
L 2.6875 54.6875 
L 9.28125 54.6875 
L 9.28125 70.21875 
z
" id="DejaVuSans-116"/>
       <path d="M 9.421875 54.6875 
L 18.40625 54.6875 
L 18.40625 0 
L 9.421875 0 
z
M 9.421875 75.984375 
L 18.40625 75.984375 
L 18.40625 64.59375 
L 9.421875 64.59375 
z
" id="DejaVuSans-105"/>
       <path d="M 52 44.1875 
Q 55.375 50.25 60.0625 53.125 
Q 64.75 56 71.09375 56 
Q 79.640625 56 84.28125 50.015625 
Q 88.921875 44.046875 88.921875 33.015625 
L 88.921875 0 
L 79.890625 0 
L 79.890625 32.71875 
Q 79.890625 40.578125 77.09375 44.375 
Q 74.3125 48.1875 68.609375 48.1875 
Q 61.625 48.1875 57.5625 43.546875 
Q 53.515625 38.921875 53.515625 30.90625 
L 53.515625 0 
L 44.484375 0 
L 44.484375 32.71875 
Q 44.484375 40.625 41.703125 44.40625 
Q 38.921875 48.1875 33.109375 48.1875 
Q 26.21875 48.1875 22.15625 43.53125 
Q 18.109375 38.875 18.109375 30.90625 
L 18.109375 0 
L 9.078125 0 
L 9.078125 54.6875 
L 18.109375 54.6875 
L 18.109375 46.1875 
Q 21.1875 51.21875 25.484375 53.609375 
Q 29.78125 56 35.6875 56 
Q 41.65625 56 45.828125 52.96875 
Q 50 49.953125 52 44.1875 
z
" id="DejaVuSans-109"/>
       <path d="M 56.203125 29.59375 
L 56.203125 25.203125 
L 14.890625 25.203125 
Q 15.484375 15.921875 20.484375 11.0625 
Q 25.484375 6.203125 34.421875 6.203125 
Q 39.59375 6.203125 44.453125 7.46875 
Q 49.3125 8.734375 54.109375 11.28125 
L 54.109375 2.78125 
Q 49.265625 0.734375 44.1875 -0.34375 
Q 39.109375 -1.421875 33.890625 -1.421875 
Q 20.796875 -1.421875 13.15625 6.1875 
Q 5.515625 13.8125 5.515625 26.8125 
Q 5.515625 40.234375 12.765625 48.109375 
Q 20.015625 56 32.328125 56 
Q 43.359375 56 49.78125 48.890625 
Q 56.203125 41.796875 56.203125 29.59375 
z
M 47.21875 32.234375 
Q 47.125 39.59375 43.09375 43.984375 
Q 39.0625 48.390625 32.421875 48.390625 
Q 24.90625 48.390625 20.390625 44.140625 
Q 15.875 39.890625 15.1875 32.171875 
z
" id="DejaVuSans-101"/>
       <path d="M 44.28125 53.078125 
L 44.28125 44.578125 
Q 40.484375 46.53125 36.375 47.5 
Q 32.28125 48.484375 27.875 48.484375 
Q 21.1875 48.484375 17.84375 46.4375 
Q 14.5 44.390625 14.5 40.28125 
Q 14.5 37.15625 16.890625 35.375 
Q 19.28125 33.59375 26.515625 31.984375 
L 29.59375 31.296875 
Q 39.15625 29.25 43.1875 25.515625 
Q 47.21875 21.78125 47.21875 15.09375 
Q 47.21875 7.46875 41.1875 3.015625 
Q 35.15625 -1.421875 24.609375 -1.421875 
Q 20.21875 -1.421875 15.453125 -0.5625 
Q 10.6875 0.296875 5.421875 2 
L 5.421875 11.28125 
Q 10.40625 8.6875 15.234375 7.390625 
Q 20.0625 6.109375 24.8125 6.109375 
Q 31.15625 6.109375 34.5625 8.28125 
Q 37.984375 10.453125 37.984375 14.40625 
Q 37.984375 18.0625 35.515625 20.015625 
Q 33.0625 21.96875 24.703125 23.78125 
L 21.578125 24.515625 
Q 13.234375 26.265625 9.515625 29.90625 
Q 5.8125 33.546875 5.8125 39.890625 
Q 5.8125 47.609375 11.28125 51.796875 
Q 16.75 56 26.8125 56 
Q 31.78125 56 36.171875 55.265625 
Q 40.578125 54.546875 44.28125 53.078125 
z
" id="DejaVuSans-115"/>
       <path d="M 34.28125 27.484375 
Q 23.390625 27.484375 19.1875 25 
Q 14.984375 22.515625 14.984375 16.5 
Q 14.984375 11.71875 18.140625 8.90625 
Q 21.296875 6.109375 26.703125 6.109375 
Q 34.1875 6.109375 38.703125 11.40625 
Q 43.21875 16.703125 43.21875 25.484375 
L 43.21875 27.484375 
z
M 52.203125 31.203125 
L 52.203125 0 
L 43.21875 0 
L 43.21875 8.296875 
Q 40.140625 3.328125 35.546875 0.953125 
Q 30.953125 -1.421875 24.3125 -1.421875 
Q 15.921875 -1.421875 10.953125 3.296875 
Q 6 8.015625 6 15.921875 
Q 6 25.140625 12.171875 29.828125 
Q 18.359375 34.515625 30.609375 34.515625 
L 43.21875 34.515625 
L 43.21875 35.40625 
Q 43.21875 41.609375 39.140625 45 
Q 35.0625 48.390625 27.6875 48.390625 
Q 23 48.390625 18.546875 47.265625 
Q 14.109375 46.140625 10.015625 43.890625 
L 10.015625 52.203125 
Q 14.9375 54.109375 19.578125 55.046875 
Q 24.21875 56 28.609375 56 
Q 40.484375 56 46.34375 49.84375 
Q 52.203125 43.703125 52.203125 31.203125 
z
" id="DejaVuSans-97"/>
       <path d="M 18.109375 8.203125 
L 18.109375 -20.796875 
L 9.078125 -20.796875 
L 9.078125 54.6875 
L 18.109375 54.6875 
L 18.109375 46.390625 
Q 20.953125 51.265625 25.265625 53.625 
Q 29.59375 56 35.59375 56 
Q 45.5625 56 51.78125 48.09375 
Q 58.015625 40.1875 58.015625 27.296875 
Q 58.015625 14.40625 51.78125 6.484375 
Q 45.5625 -1.421875 35.59375 -1.421875 
Q 29.59375 -1.421875 25.265625 0.953125 
Q 20.953125 3.328125 18.109375 8.203125 
z
M 48.6875 27.296875 
Q 48.6875 37.203125 44.609375 42.84375 
Q 40.53125 48.484375 33.40625 48.484375 
Q 26.265625 48.484375 22.1875 42.84375 
Q 18.109375 37.203125 18.109375 27.296875 
Q 18.109375 17.390625 22.1875 11.75 
Q 26.265625 6.109375 33.40625 6.109375 
Q 40.53125 6.109375 44.609375 11.75 
Q 48.6875 17.390625 48.6875 27.296875 
z
" id="DejaVuSans-112"/>
      </defs>
      <use xlink:href="#DejaVuSans-116"/>
      <use x="39.208984" xlink:href="#DejaVuSans-105"/>
      <use x="66.992188" xlink:href="#DejaVuSans-109"/>
      <use x="164.404297" xlink:href="#DejaVuSans-101"/>
      <use x="225.927734" xlink:href="#DejaVuSans-115"/>
      <use x="278.027344" xlink:href="#DejaVuSans-116"/>
      <use x="317.236328" xlink:href="#DejaVuSans-97"/>
      <use x="378.515625" xlink:href="#DejaVuSans-109"/>
      <use x="475.927734" xlink:href="#DejaVuSans-112"/>
     </g>
    </g>
   </g>
   <g id="matplotlib.axis_2">
    <g id="ytick_1">
     <g id="line2d_22">
      <defs>
       <path d="M 0 0 
L -3.5 0 
" id="mc071fc5277" style="stroke:#000000;stroke-width:0.8;"/>
      </defs>
      <g>
       <use style="stroke:#000000;stroke-width:0.8;" x="108" xlink:href="#mc071fc5277" y="409.358702"/>
      </g>
     </g>
     <g id="text_23">
      <!-- 11250 -->
      <g transform="translate(69.1875 413.157921)scale(0.1 -0.1)">
       <use xlink:href="#DejaVuSans-49"/>
       <use x="63.623047" xlink:href="#DejaVuSans-49"/>
       <use x="127.246094" xlink:href="#DejaVuSans-50"/>
       <use x="190.869141" xlink:href="#DejaVuSans-53"/>
       <use x="254.492188" xlink:href="#DejaVuSans-48"/>
      </g>
     </g>
    </g>
    <g id="ytick_2">
     <g id="line2d_23">
      <g>
       <use style="stroke:#000000;stroke-width:0.8;" x="108" xlink:href="#mc071fc5277" y="355.459803"/>
      </g>
     </g>
     <g id="text_24">
      <!-- 11500 -->
      <g transform="translate(69.1875 359.259021)scale(0.1 -0.1)">
       <use xlink:href="#DejaVuSans-49"/>
       <use x="63.623047" xlink:href="#DejaVuSans-49"/>
       <use x="127.246094" xlink:href="#DejaVuSans-53"/>
       <use x="190.869141" xlink:href="#DejaVuSans-48"/>
       <use x="254.492188" xlink:href="#DejaVuSans-48"/>
      </g>
     </g>
    </g>
    <g id="ytick_3">
     <g id="line2d_24">
      <g>
       <use style="stroke:#000000;stroke-width:0.8;" x="108" xlink:href="#mc071fc5277" y="301.560903"/>
      </g>
     </g>
     <g id="text_25">
      <!-- 11750 -->
      <g transform="translate(69.1875 305.360122)scale(0.1 -0.1)">
       <use xlink:href="#DejaVuSans-49"/>
       <use x="63.623047" xlink:href="#DejaVuSans-49"/>
       <use x="127.246094" xlink:href="#DejaVuSans-55"/>
       <use x="190.869141" xlink:href="#DejaVuSans-53"/>
       <use x="254.492188" xlink:href="#DejaVuSans-48"/>
      </g>
     </g>
    </g>
    <g id="ytick_4">
     <g id="line2d_25">
      <g>
       <use style="stroke:#000000;stroke-width:0.8;" x="108" xlink:href="#mc071fc5277" y="247.662004"/>
      </g>
     </g>
     <g id="text_26">
      <!-- 12000 -->
      <g transform="translate(69.1875 251.461223)scale(0.1 -0.1)">
       <use xlink:href="#DejaVuSans-49"/>
       <use x="63.623047" xlink:href="#DejaVuSans-50"/>
       <use x="127.246094" xlink:href="#DejaVuSans-48"/>
       <use x="190.869141" xlink:href="#DejaVuSans-48"/>
       <use x="254.492188" xlink:href="#DejaVuSans-48"/>
      </g>
     </g>
    </g>
    <g id="ytick_5">
     <g id="line2d_26">
      <g>
       <use style="stroke:#000000;stroke-width:0.8;" x="108" xlink:href="#mc071fc5277" y="193.763105"/>
      </g>
     </g>
     <g id="text_27">
      <!-- 12250 -->
      <g transform="translate(69.1875 197.562324)scale(0.1 -0.1)">
       <use xlink:href="#DejaVuSans-49"/>
       <use x="63.623047" xlink:href="#DejaVuSans-50"/>
       <use x="127.246094" xlink:href="#DejaVuSans-50"/>
       <use x="190.869141" xlink:href="#DejaVuSans-53"/>
       <use x="254.492188" xlink:href="#DejaVuSans-48"/>
      </g>
     </g>
    </g>
    <g id="ytick_6">
     <g id="line2d_27">
      <g>
       <use style="stroke:#000000;stroke-width:0.8;" x="108" xlink:href="#mc071fc5277" y="139.864206"/>
      </g>
     </g>
     <g id="text_28">
      <!-- 12500 -->
      <g transform="translate(69.1875 143.663424)scale(0.1 -0.1)">
       <use xlink:href="#DejaVuSans-49"/>
       <use x="63.623047" xlink:href="#DejaVuSans-50"/>
       <use x="127.246094" xlink:href="#DejaVuSans-53"/>
       <use x="190.869141" xlink:href="#DejaVuSans-48"/>
       <use x="254.492188" xlink:href="#DejaVuSans-48"/>
      </g>
     </g>
    </g>
    <g id="ytick_7">
     <g id="line2d_28">
      <g>
       <use style="stroke:#000000;stroke-width:0.8;" x="108" xlink:href="#mc071fc5277" y="85.965306"/>
      </g>
     </g>
     <g id="text_29">
      <!-- 12750 -->
      <g transform="translate(69.1875 89.764525)scale(0.1 -0.1)">
       <use xlink:href="#DejaVuSans-49"/>
       <use x="63.623047" xlink:href="#DejaVuSans-50"/>
       <use x="127.246094" xlink:href="#DejaVuSans-55"/>
       <use x="190.869141" xlink:href="#DejaVuSans-53"/>
       <use x="254.492188" xlink:href="#DejaVuSans-48"/>
      </g>
     </g>
    </g>
    <g id="text_30">
     <!-- MB -->
     <g transform="translate(63.52375 260.715625)rotate(-90)scale(0.08 -0.08)">
      <defs>
       <path d="M 9.8125 72.90625 
L 24.515625 72.90625 
L 43.109375 23.296875 
L 61.8125 72.90625 
L 76.515625 72.90625 
L 76.515625 0 
L 66.890625 0 
L 66.890625 64.015625 
L 48.09375 14.015625 
L 38.1875 14.015625 
L 19.390625 64.015625 
L 19.390625 0 
L 9.8125 0 
z
" id="DejaVuSans-77"/>
       <path d="M 19.671875 34.8125 
L 19.671875 8.109375 
L 35.5 8.109375 
Q 43.453125 8.109375 47.28125 11.40625 
Q 51.125 14.703125 51.125 21.484375 
Q 51.125 28.328125 47.28125 31.5625 
Q 43.453125 34.8125 35.5 34.8125 
z
M 19.671875 64.796875 
L 19.671875 42.828125 
L 34.28125 42.828125 
Q 41.5 42.828125 45.03125 45.53125 
Q 48.578125 48.25 48.578125 53.8125 
Q 48.578125 59.328125 45.03125 62.0625 
Q 41.5 64.796875 34.28125 64.796875 
z
M 9.8125 72.90625 
L 35.015625 72.90625 
Q 46.296875 72.90625 52.390625 68.21875 
Q 58.5 63.53125 58.5 54.890625 
Q 58.5 48.1875 55.375 44.234375 
Q 52.25 40.28125 46.1875 39.3125 
Q 53.46875 37.75 57.5 32.78125 
Q 61.53125 27.828125 61.53125 20.40625 
Q 61.53125 10.640625 54.890625 5.3125 
Q 48.25 0 35.984375 0 
L 9.8125 0 
z
" id="DejaVuSans-66"/>
      </defs>
      <use xlink:href="#DejaVuSans-77"/>
      <use x="86.279297" xlink:href="#DejaVuSans-66"/>
     </g>
    </g>
   </g>
   <g id="line2d_29">
    <path clip-path="url(#p009c5e8e92)" d="M 132.349091 79.031338 
L 132.608538 78.716962 
L 132.867985 78.12 
L 133.127432 78.347835 
L 133.386878 79.78902 
L 133.646325 82.590149 
L 133.905772 82.009082 
L 134.165219 81.885451 
L 134.424666 79.977999 
L 134.684113 79.831408 
L 135.203007 78.328407 
L 135.462454 79.371324 
L 135.721901 79.712192 
L 136.240794 103.516485 
L 137.797476 260.862719 
L 138.316369 313.132198 
L 138.575816 349.301371 
L 139.354157 389.612187 
L 139.873051 396.615008 
L 140.132498 402.878692 
L 140.391945 403.705254 
L 140.651391 403.643438 
L 140.910838 403.312284 
L 141.429732 404.783494 
L 141.689179 404.612177 
L 141.948626 404.071732 
L 142.726967 404.957461 
L 143.24586 404.243049 
L 143.505307 404.834713 
L 143.764754 406.874627 
L 144.543095 404.454989 
L 144.802542 406.261769 
L 145.061989 406.285612 
L 145.580882 405.5765 
L 145.840329 407.090098 
L 146.099776 405.935913 
L 146.61867 404.627189 
L 146.878117 404.988369 
L 147.137564 406.412776 
L 147.397011 406.398647 
L 147.656458 405.650678 
L 148.175351 406.368622 
L 148.434798 405.61977 
L 148.694245 405.583564 
L 148.953692 404.470001 
L 149.213139 405.552656 
L 149.472586 404.87975 
L 149.732033 404.84266 
L 149.99148 404.01963 
L 150.250927 404.306631 
L 150.510373 406.425139 
L 151.029267 406.354493 
L 151.288714 405.320406 
L 151.548161 405.982716 
L 151.807608 406.206135 
L 152.067055 405.896174 
L 152.326502 404.947747 
L 152.845395 406.883457 
L 153.104842 406.924962 
L 153.364289 406.07544 
L 153.623736 406.74658 
L 153.883183 406.82694 
L 154.14263 406.030402 
L 154.402077 406.154917 
L 154.661524 405.212671 
L 154.920971 406.534641 
L 155.180417 405.252409 
L 155.699311 404.324293 
L 156.218205 406.20172 
L 156.737099 406.108113 
L 156.996546 405.518216 
L 157.255993 406.216732 
L 157.774886 406.244108 
L 158.034333 405.296563 
L 158.553227 407.278194 
L 158.812674 406.99031 
L 159.072121 406.323585 
L 159.331568 406.113412 
L 159.591015 406.801331 
L 160.109908 406.721854 
L 160.369355 406.040116 
L 160.628802 406.183175 
L 160.888249 407.688826 
L 161.147696 407.484835 
L 161.66659 405.579149 
L 161.926037 407.795679 
L 162.185484 406.764242 
L 162.44493 406.569081 
L 162.704377 405.557955 
L 162.963824 406.53729 
L 163.482718 406.156683 
L 163.742165 405.586213 
L 164.001612 406.094867 
L 164.261059 407.944036 
L 164.520506 407.161627 
L 164.779953 407.003556 
L 165.039399 406.199954 
L 165.298846 406.992076 
L 165.558293 406.459579 
L 165.81774 406.407477 
L 166.336634 408.644318 
L 166.596081 408.803272 
L 166.855528 408.619592 
L 167.114975 406.092218 
L 167.374421 405.512035 
L 167.633868 407.030049 
L 168.412209 405.620654 
L 168.671656 409.319874 
L 168.931103 410.999491 
L 169.19055 410.992427 
L 169.449997 410.378686 
L 169.709444 408.296385 
L 169.96889 408.946331 
L 170.228337 408.86862 
L 170.487784 408.465936 
L 170.747231 407.533404 
L 171.006678 408.318462 
L 171.266125 408.179818 
L 171.525572 408.541881 
L 171.785019 407.209314 
L 172.044466 407.428317 
L 172.303912 406.960285 
L 172.563359 407.203132 
L 172.822806 407.031815 
L 173.082253 406.233511 
L 173.3417 408.047356 
L 173.601147 407.98819 
L 174.120041 407.289674 
L 174.379488 407.967879 
L 174.898381 407.955516 
L 175.157828 406.797799 
L 175.676722 408.36968 
L 175.936169 407.734746 
L 176.455063 407.018568 
L 176.973957 409.343717 
L 177.49285 408.622241 
L 177.752297 408.732626 
L 178.011744 409.652795 
L 178.530638 407.589038 
L 178.790085 407.416837 
L 179.049532 409.594512 
L 179.308979 409.59981 
L 179.568425 409.481477 
L 179.827872 408.68229 
L 180.087319 409.874448 
L 180.606213 409.539761 
L 180.86566 408.772365 
L 181.125107 409.501788 
L 181.384554 410.70366 
L 181.644001 409.94686 
L 181.903447 410.022805 
L 182.162894 409.31016 
L 182.422341 410.012208 
L 182.681788 409.897408 
L 182.941235 410.027221 
L 183.200682 409.256292 
L 183.460129 409.67134 
L 183.719576 411.44368 
L 183.979023 411.040996 
L 184.23847 409.626302 
L 184.497916 408.838595 
L 184.757363 409.880629 
L 185.01681 410.071375 
L 185.535704 409.152089 
L 185.795151 410.354843 
L 186.054598 410.459046 
L 186.314045 410.379569 
L 186.573492 409.563604 
L 186.832938 410.192356 
L 187.092385 410.13319 
L 187.351832 410.544705 
L 187.611279 410.671869 
L 187.870726 409.237747 
L 188.130173 410.359258 
L 188.38962 410.479357 
L 188.649067 410.460813 
L 188.908514 409.545942 
L 189.16796 411.286492 
L 189.686854 410.611819 
L 189.946301 409.545059 
L 190.205748 409.42496 
L 190.465195 411.242338 
L 190.724642 411.024217 
L 190.984089 411.252935 
L 191.243536 409.648379 
L 191.502983 410.580911 
L 191.762429 410.54029 
L 192.021876 410.740749 
L 192.281323 410.051947 
L 192.54077 410.553536 
L 192.800217 411.898466 
L 193.578558 409.586564 
L 193.838005 411.28296 
L 194.097451 411.273246 
L 194.616345 409.836475 
L 194.875792 409.982184 
L 195.135239 409.748167 
L 195.394686 409.908005 
L 195.654133 409.207723 
L 195.91358 409.187412 
L 196.173027 410.750463 
L 196.432473 410.995076 
L 197.210814 409.856786 
L 197.470261 410.20472 
L 197.729708 410.091685 
L 197.989155 408.902177 
L 198.248602 409.309277 
L 198.508049 410.64361 
L 198.767496 413.505671 
L 199.286389 412.581087 
L 199.545836 411.23704 
L 199.805283 411.992956 
L 200.324177 409.669573 
L 200.583624 410.169396 
L 200.843071 411.093098 
L 201.361964 411.205249 
L 201.621411 410.656856 
L 201.880858 410.729269 
L 202.140305 409.945977 
L 202.399752 409.834709 
L 202.659199 408.96311 
L 203.178093 410.400763 
L 203.43754 410.318637 
L 203.696986 409.488542 
L 203.956433 409.71461 
L 204.21588 411.677696 
L 204.734774 411.497548 
L 204.994221 410.326585 
L 205.253668 410.886457 
L 205.513115 411.915245 
L 205.772562 411.568194 
L 206.032009 410.50585 
L 206.291455 411.024217 
L 206.550902 409.92655 
L 206.810349 410.105815 
L 207.069796 409.213904 
L 207.329243 408.860672 
L 207.58869 410.142021 
L 208.107584 410.173812 
L 208.626477 409.605992 
L 208.885924 411.01362 
L 209.145371 410.845835 
L 209.404818 411.373917 
L 209.664265 410.056362 
L 209.923712 411.454277 
L 210.442606 410.912949 
L 210.702053 410.137606 
L 210.961499 410.562367 
L 211.220946 410.391049 
L 211.480393 409.915953 
L 211.73984 412.755936 
L 211.999287 412.613761 
L 212.258734 413.125064 
L 212.518181 413.004082 
L 212.777628 410.314221 
L 213.037075 409.724324 
L 213.296522 410.088153 
L 213.555968 410.656856 
L 213.815415 410.59769 
L 214.074862 409.604225 
L 214.334309 410.16763 
L 214.593756 411.656502 
L 215.11265 411.400409 
L 215.372097 409.67134 
L 215.631544 410.72397 
L 215.89099 410.721321 
L 216.150437 410.547354 
L 216.409884 410.068725 
L 216.669331 410.391049 
L 216.928778 411.771303 
L 217.188225 411.750109 
L 217.447672 411.358021 
L 217.707119 410.763709 
L 217.966566 411.049827 
L 218.226012 411.071904 
L 218.485459 410.424606 
L 218.744906 409.016978 
L 219.2638 410.659506 
L 219.523247 410.781371 
L 219.782694 409.880629 
L 220.042141 409.855903 
L 220.301588 410.710724 
L 220.820481 410.80698 
L 221.079928 409.697832 
L 221.339375 411.725383 
L 221.858269 411.944386 
L 222.117716 410.939442 
L 222.377163 411.115175 
L 222.63661 412.401822 
L 223.155503 412.075965 
L 223.41495 411.177873 
L 223.674397 412.302034 
L 223.933844 412.020331 
L 224.452738 410.572081 
L 224.712185 409.844423 
L 224.971632 411.218495 
L 225.231079 411.407474 
L 225.490526 410.676284 
L 225.749972 410.361025 
L 226.009419 411.454277 
L 226.268866 411.411006 
L 226.78776 410.579145 
L 227.047207 411.422486 
L 227.306654 411.394228 
L 227.566101 410.465228 
L 227.825548 410.986245 
L 228.084994 411.187587 
L 228.344441 412.251698 
L 229.122782 411.753641 
L 229.382229 413.80945 
L 229.641676 412.103341 
L 229.901123 411.869325 
L 230.16057 411.34036 
L 230.420016 411.569961 
L 230.679463 412.954629 
L 230.93891 412.846894 
L 231.198357 415.560597 
L 231.457804 415.007789 
L 231.717251 416.28119 
L 231.976698 415.462575 
L 232.236145 413.194827 
L 232.495592 412.377095 
L 232.755039 413.318458 
L 233.014485 412.9405 
L 233.273932 412.939617 
L 233.533379 411.24587 
L 233.792826 415.097863 
L 234.052273 416.388043 
L 234.31172 416.417184 
L 234.571167 416.290904 
L 234.830614 413.272538 
L 235.090061 414.668687 
L 235.349507 413.09239 
L 235.868401 411.823404 
L 236.127848 412.252581 
L 236.387295 413.597511 
L 236.646742 413.631068 
L 236.906189 413.548942 
L 237.165636 412.844244 
L 237.425083 414.253639 
L 237.684529 413.413831 
L 237.943976 411.79073 
L 238.203423 411.7245 
L 238.46287 412.378861 
L 238.722317 413.971937 
L 238.981764 413.908355 
L 239.500658 413.221319 
L 239.760105 414.154734 
L 240.019552 413.60016 
L 240.278998 413.757349 
L 240.538445 413.33612 
L 240.797892 413.410298 
L 241.057339 414.624533 
L 241.316786 414.650142 
L 241.576233 414.27395 
L 241.83568 412.079497 
L 242.095127 414.200655 
L 242.354574 414.209485 
L 242.61402 412.587268 
L 242.873467 412.307332 
L 243.392361 413.996663 
L 243.651808 413.013796 
L 243.911255 412.531634 
L 244.170702 413.437674 
L 244.430149 414.855017 
L 244.689596 414.80733 
L 244.949042 414.392283 
L 245.208489 413.471231 
L 245.467936 414.639545 
L 245.727383 414.388751 
L 245.98683 414.367557 
L 246.246277 413.422662 
L 246.505724 414.367557 
L 246.765171 414.774656 
L 247.024618 414.060245 
L 247.284065 414.719905 
L 247.543511 413.927783 
L 247.802958 414.987478 
L 248.062405 414.324286 
L 248.321852 414.438203 
L 248.581299 413.830644 
L 249.100193 414.490305 
L 249.35964 414.158267 
L 249.619087 413.231033 
L 250.13798 414.522979 
L 250.397427 414.469994 
L 250.656874 414.706659 
L 250.916321 413.966639 
L 251.175768 415.133187 
L 251.694662 414.866497 
L 251.954109 414.168864 
L 252.213555 414.840887 
L 252.732449 415.226793 
L 252.991896 414.042583 
L 253.251343 413.927783 
L 253.51079 414.439086 
L 253.770237 414.684582 
L 254.029684 414.580379 
L 254.289131 413.82358 
L 254.548578 413.80945 
L 254.808024 415.303621 
L 255.067471 415.020152 
L 255.326918 414.9707 
L 255.586365 414.12471 
L 255.845812 416.071017 
L 256.105259 416.034811 
L 256.364706 415.646256 
L 256.624153 414.666038 
L 256.8836 414.99366 
L 257.143046 414.3914 
L 257.402493 414.315455 
L 257.66194 413.429726 
L 257.921387 413.250461 
L 258.180834 414.488539 
L 258.440281 414.596274 
L 258.699728 414.455865 
L 258.959175 413.518917 
L 259.218622 413.707013 
L 259.478068 415.058125 
L 259.996962 413.814749 
L 260.256409 414.161799 
L 260.515856 414.754345 
L 261.03475 414.60952 
L 261.294197 413.990482 
L 261.553644 415.129654 
L 262.331984 413.978119 
L 262.591431 414.009909 
L 262.850878 415.222378 
L 263.110325 415.192353 
L 263.369772 415.338944 
L 263.629219 414.401997 
L 263.888666 419.358722 
L 264.407559 418.156851 
L 264.667006 415.379566 
L 264.926453 414.723438 
L 265.1859 415.988008 
L 265.445347 415.938555 
L 265.704794 414.860315 
L 265.964241 415.179107 
L 266.223688 414.699595 
L 266.483135 414.644844 
L 266.742581 413.626653 
L 267.002028 413.661976 
L 267.520922 415.837884 
L 267.780369 415.836118 
L 268.039816 414.843537 
L 268.299263 415.310686 
L 268.55871 416.836647 
L 268.818157 415.383098 
L 269.33705 414.362258 
L 269.596497 415.843183 
L 269.855944 415.947386 
L 270.115391 415.791081 
L 270.374838 415.485535 
L 270.634285 414.093802 
L 270.893732 415.907647 
L 271.412626 415.523508 
L 271.672072 413.973703 
L 271.931519 415.921777 
L 272.190966 415.695708 
L 272.450413 414.840887 
L 272.70986 411.484302 
L 273.228754 413.652262 
L 273.747648 412.218141 
L 274.007094 411.99119 
L 274.266541 413.436791 
L 274.525988 412.695004 
L 274.785435 412.80009 
L 275.044882 412.230504 
L 275.563776 415.256818 
L 275.823223 415.087266 
L 276.342117 413.926017 
L 276.601563 414.127359 
L 276.86101 414.105282 
L 277.120457 413.330821 
L 277.379904 413.436791 
L 277.898798 414.452332 
L 278.158245 414.337532 
L 278.417692 413.586914 
L 278.677139 413.905706 
L 278.936585 415.277129 
L 279.196032 415.116408 
L 279.455479 414.792318 
L 279.714926 413.798853 
L 279.974373 415.101396 
L 280.23382 415.345126 
L 280.752714 414.120294 
L 281.012161 414.614819 
L 281.271607 415.89705 
L 281.790501 414.10175 
L 282.309395 415.021036 
L 282.828289 414.234212 
L 283.087736 413.321107 
L 283.60663 418.472994 
L 283.866076 418.283131 
L 284.125523 417.726791 
L 284.38497 417.653496 
L 284.644417 415.943854 
L 284.903864 415.796379 
L 285.163311 415.845832 
L 285.422758 414.525628 
L 285.682205 416.397757 
L 286.201098 416.487831 
L 286.460545 415.258584 
L 286.719992 415.766355 
L 286.979439 415.547351 
L 287.498333 413.871266 
L 287.75778 413.974586 
L 288.536121 413.599277 
L 288.795567 413.133894 
L 289.055014 413.553357 
L 289.314461 415.327464 
L 289.573908 415.255052 
L 289.833355 414.69253 
L 290.092802 414.632481 
L 290.352249 415.069605 
L 290.611696 415.025451 
L 290.871143 414.787019 
L 291.130589 414.168864 
L 291.390036 415.979177 
L 291.649483 415.720435 
L 291.90893 415.838767 
L 292.168377 415.216196 
L 292.427824 416.589385 
L 292.687271 415.678047 
L 293.206165 415.672748 
L 293.465611 414.8559 
L 293.725058 416.069251 
L 293.984505 415.983592 
L 294.243952 416.565542 
L 294.503399 415.620647 
L 294.762846 415.815807 
L 295.022293 416.971758 
L 295.28174 417.009731 
L 295.541187 416.088679 
L 295.800634 415.933257 
L 296.06008 416.540815 
L 296.319527 416.063952 
L 296.578974 418.805031 
L 296.838421 418.230147 
L 297.097868 419.824988 
L 297.357315 417.172217 
L 297.616762 416.359784 
L 297.876209 416.078082 
L 298.135656 415.622413 
L 298.395102 416.126651 
L 298.654549 415.893518 
L 298.913996 418.352895 
L 299.43289 420.436962 
L 299.692337 420.829933 
L 299.951784 417.838942 
L 300.211231 417.412415 
L 300.470678 416.580554 
L 300.989571 416.622059 
L 301.249018 415.824638 
L 301.767912 416.259113 
L 302.286806 415.501431 
L 302.546253 414.945974 
L 302.8057 417.199593 
L 303.065147 417.199593 
L 303.324593 416.664447 
L 303.58404 415.678047 
L 303.843487 415.917361 
L 304.102934 417.315276 
L 304.362381 417.30203 
L 304.881275 416.305033 
L 305.140722 415.353073 
L 305.400169 415.539403 
L 305.659615 415.540286 
L 305.919062 414.969817 
L 306.437956 416.76865 
L 306.697403 416.750988 
L 306.95685 416.108106 
L 307.216297 416.064836 
L 307.475744 417.35943 
L 307.994637 415.583557 
L 308.254084 415.566779 
L 308.772978 416.871087 
L 309.032425 416.721847 
L 309.291872 416.042759 
L 309.551319 416.435729 
L 309.810766 417.248162 
L 310.070213 416.984121 
L 310.32966 416.898463 
L 310.589106 416.273242 
L 310.848553 417.75505 
L 311.108 418.060595 
L 311.367447 417.816865 
L 311.886341 416.285605 
L 312.145788 417.317042 
L 312.405235 417.206657 
L 312.664682 417.613757 
L 312.924128 416.823401 
L 313.183575 417.45392 
L 313.702469 416.194648 
L 314.740257 417.901641 
L 314.999704 417.303796 
L 315.778044 418.19659 
L 316.037491 418.18246 
L 316.296938 417.16427 
L 316.556385 417.487477 
L 317.075279 418.419126 
L 317.334726 417.596979 
L 317.853619 418.90217 
L 318.63196 417.38504 
L 319.150854 417.759465 
L 319.410301 417.041522 
L 319.669748 416.779247 
L 320.188641 418.571898 
L 320.448088 418.298144 
L 320.707535 418.317572 
L 320.966982 417.448621 
L 321.226429 419.120291 
L 321.485876 418.978115 
L 321.745323 418.171863 
L 322.00477 416.63089 
L 322.523663 418.647843 
L 322.78311 418.347596 
L 323.042557 417.542228 
L 323.302004 418.073842 
L 323.561451 418.297261 
L 323.820898 418.337882 
L 324.080345 418.065894 
L 324.339792 417.453037 
L 324.599239 418.94809 
L 324.858686 418.910118 
L 325.118132 419.146783 
L 325.377579 417.274655 
L 325.896473 418.340532 
L 326.15592 418.175396 
L 326.674814 417.362963 
L 326.934261 419.858545 
L 327.193708 419.171509 
L 327.453154 418.972817 
L 327.712601 418.499486 
L 327.972048 417.426544 
L 328.231495 418.313156 
L 328.490942 418.167448 
L 328.750389 417.508671 
L 329.009836 420.427249 
L 329.52873 420.744274 
L 330.047623 416.733327 
L 330.566517 419.235091 
L 330.825964 417.699416 
L 331.085411 417.010614 
L 331.344858 417.41683 
L 331.604305 418.740567 
L 331.863752 418.712308 
L 332.123199 418.378504 
L 332.382645 418.636363 
L 332.642092 419.828521 
L 333.160986 419.943321 
L 333.420433 419.18299 
L 333.67988 418.952506 
L 333.939327 420.165857 
L 334.198774 418.771474 
L 334.458221 419.13442 
L 334.717667 418.040285 
L 334.977114 419.043463 
L 335.236561 419.122057 
L 335.755455 418.274301 
L 336.014902 419.039931 
L 336.274349 420.1897 
L 336.533796 420.379562 
L 336.793243 419.779068 
L 337.052689 419.478821 
L 337.312136 419.978644 
L 337.571583 420.17822 
L 337.83103 420.136715 
L 338.090477 419.318984 
L 338.349924 421.553175 
L 338.609371 420.793727 
L 338.868818 420.580904 
L 339.128265 418.872145 
L 339.387712 418.128593 
L 339.647158 419.517677 
L 339.906605 419.361372 
L 340.166052 419.364021 
L 340.425499 418.93661 
L 340.684946 420.758403 
L 340.944393 419.562714 
L 341.20384 419.577726 
L 341.463287 421.539929 
L 341.722734 422.171331 
L 341.98218 423.113577 
L 342.241627 427.564298 
L 342.501074 427.008841 
L 342.760521 422.714425 
L 343.019968 422.326753 
L 343.279415 422.415061 
L 343.538862 422.32587 
L 343.798309 419.897401 
L 344.317202 422.347947 
L 344.576649 422.157201 
L 344.836096 420.633889 
L 345.095543 419.891219 
L 345.35499 420.576489 
L 345.614437 420.214426 
L 345.873884 420.305384 
L 346.133331 419.653671 
L 346.392778 421.741271 
L 346.652225 421.02421 
L 346.911671 420.911176 
L 347.171118 419.983943 
L 347.430565 420.08638 
L 347.690012 421.503723 
L 347.949459 421.615874 
L 348.208906 421.553175 
L 348.468353 420.836998 
L 348.7278 422.205771 
L 348.987247 422.127177 
L 349.50614 420.796376 
L 349.765587 421.150491 
L 350.025034 422.060063 
L 350.284481 421.742154 
L 350.543928 421.041872 
L 350.803375 421.358898 
L 351.062822 420.714249 
L 351.581716 420.164091 
L 351.841162 419.928309 
L 352.100609 421.40835 
L 352.360056 421.648548 
L 352.619503 421.696234 
L 352.87895 420.517323 
L 353.138397 420.450209 
L 353.397844 421.008315 
L 353.657291 421.032158 
L 353.916738 420.896164 
L 354.176184 420.251516 
L 354.435631 421.80397 
L 354.695078 421.951444 
L 354.954525 421.798671 
L 355.213972 421.144309 
L 355.473419 421.45427 
L 355.732866 421.494009 
L 356.25176 421.959392 
L 356.511206 420.51644 
L 356.770653 421.04982 
L 357.289547 420.815804 
L 357.548994 419.651022 
L 357.808441 420.434313 
L 358.067888 421.765114 
L 358.327335 421.498424 
L 358.586782 420.495246 
L 358.846229 420.784896 
L 359.105675 422.283482 
L 359.365122 422.045933 
L 359.624569 421.243214 
L 359.884016 420.830816 
L 360.143463 421.817216 
L 360.40291 422.092737 
L 360.662357 420.25858 
L 360.921804 419.683696 
L 361.181251 420.264762 
L 361.440697 424.333993 
L 361.700144 424.316331 
L 361.959591 424.148546 
L 362.737932 422.540458 
L 362.997379 422.584612 
L 363.516273 420.246217 
L 363.775719 421.41983 
L 364.035166 424.40199 
L 364.55406 423.729083 
L 364.813507 424.552113 
L 365.072954 422.382387 
L 365.332401 422.40623 
L 365.591848 421.378325 
L 366.110742 421.978819 
L 366.370188 421.950561 
L 366.629635 421.350067 
L 366.889082 421.657378 
L 367.148529 422.471578 
L 367.407976 421.995598 
L 367.667423 421.842825 
L 367.92687 421.003016 
L 368.186317 422.762994 
L 368.445764 421.784542 
L 368.964657 421.121349 
L 369.224104 421.314744 
L 369.483551 422.622584 
L 369.742998 422.464513 
L 370.002445 422.616403 
L 370.261892 421.818099 
L 370.521339 421.722726 
L 370.780786 422.021207 
L 371.040232 421.125765 
L 371.299679 420.637422 
L 371.559126 421.023327 
L 371.818573 422.530744 
L 372.337467 421.297082 
L 372.856361 423.093266 
L 373.115808 423.178925 
L 373.375255 423.11181 
L 373.634701 422.052115 
L 373.894148 423.445615 
L 374.413042 423.133004 
L 374.931936 421.356248 
L 375.191383 422.391218 
L 375.45083 422.53251 
L 375.969723 420.93237 
L 376.22917 422.513083 
L 376.488617 421.283836 
L 376.748064 421.387156 
L 377.007511 420.889982 
L 377.266958 421.231734 
L 377.526405 422.250808 
L 377.785852 422.101567 
L 378.045299 421.554941 
L 378.304745 422.282599 
L 378.564192 421.960275 
L 378.823639 422.131592 
L 379.083086 422.090971 
L 379.342533 421.139894 
L 379.861427 424.039044 
L 380.380321 422.835407 
L 380.639768 422.686166 
L 380.899214 422.802733 
L 381.158661 422.264937 
L 381.418108 422.101567 
L 381.677555 421.48871 
L 381.937002 422.780656 
L 382.196449 422.832757 
L 382.455896 423.03145 
L 382.715343 422.414178 
L 382.97479 422.634948 
L 383.234236 424.21566 
L 383.493683 423.978995 
L 384.012577 423.033216 
L 384.531471 424.6572 
L 384.790918 424.1353 
L 385.050365 423.340528 
L 385.309812 425.097856 
L 385.569258 423.608101 
L 385.828705 423.292842 
L 386.088152 421.771296 
L 386.607046 423.80856 
L 386.866493 423.709655 
L 387.12594 423.270765 
L 387.385387 422.587261 
L 387.644834 423.778536 
L 388.163727 423.59044 
L 388.423174 422.830991 
L 388.942068 424.448793 
L 389.460962 424.043459 
L 389.720409 423.945438 
L 389.979856 424.371965 
L 390.498749 422.92813 
L 390.758196 423.107395 
L 391.017643 423.551584 
L 391.27709 424.50531 
L 391.536537 424.499128 
L 392.314878 423.208066 
L 392.574325 423.491535 
L 392.833771 423.371436 
L 393.093218 422.548406 
L 393.352665 424.355187 
L 393.612112 424.52827 
L 393.871559 424.36755 
L 394.131006 425.980936 
L 394.390453 426.248509 
L 394.6499 426.746566 
L 394.909347 424.004604 
L 395.168794 424.107924 
L 395.42824 423.367904 
L 395.687687 425.588849 
L 395.947134 424.855893 
L 396.206581 425.083727 
L 396.466028 424.592735 
L 396.725475 425.278005 
L 396.984922 425.479347 
L 397.244369 425.096973 
L 397.503816 424.245685 
L 397.763262 425.391922 
L 398.022709 424.41347 
L 398.282156 424.567126 
L 398.541603 422.972284 
L 398.80105 422.7992 
L 399.060497 425.517319 
L 399.319944 425.732791 
L 399.579391 425.605627 
L 399.838838 424.931837 
L 400.098284 424.960979 
L 400.357731 425.394571 
L 400.876625 424.944201 
L 401.136072 424.412587 
L 401.395519 426.034804 
L 401.914413 426.086022 
L 402.17386 425.134063 
L 402.433307 425.625055 
L 402.692753 426.4525 
L 402.9522 426.271469 
L 403.211647 425.774295 
L 403.471094 424.789662 
L 403.730541 426.247626 
L 403.989988 425.515553 
L 404.249435 425.525267 
L 404.508882 425.383091 
L 404.768329 424.659849 
L 405.027775 425.369845 
L 405.287222 424.989238 
L 405.546669 424.178571 
L 405.806116 424.291605 
L 406.065563 425.136712 
L 406.32501 425.210008 
L 406.584457 424.979524 
L 406.843904 424.175038 
L 407.103351 425.97917 
L 407.622244 425.65243 
L 407.881691 424.85501 
L 408.141138 425.154374 
L 408.400585 426.007428 
L 408.919479 425.867019 
L 409.178926 425.207358 
L 409.438373 425.927951 
L 409.69782 425.843176 
L 409.957266 425.954444 
L 410.47616 425.05017 
L 410.995054 424.733145 
L 411.254501 423.824456 
L 411.773395 426.237912 
L 412.032842 426.011844 
L 412.292288 426.040102 
L 412.551735 425.626821 
L 413.070629 426.483408 
L 413.589523 425.878499 
L 414.108417 426.886093 
L 414.367864 426.708594 
L 414.627311 426.742151 
L 414.886757 426.012727 
L 415.146204 426.445436 
L 415.665098 425.222371 
L 415.924545 425.180866 
L 416.183992 425.745154 
L 416.443439 426.972634 
L 416.702886 427.200469 
L 416.962333 426.351829 
L 417.740673 425.701 
L 418.00012 425.806086 
L 418.259567 424.48235 
L 418.519014 426.828692 
L 418.778461 426.48959 
L 419.037908 426.614987 
L 419.297355 425.989767 
L 419.556801 426.539042 
L 419.816248 427.491002 
L 420.075695 427.489236 
L 420.594589 426.17698 
L 420.854036 426.32622 
L 421.37293 426.107216 
L 421.632377 425.252395 
L 421.891824 425.589732 
L 422.15127 427.086552 
L 422.670164 425.575602 
L 422.929611 426.186694 
L 423.448505 426.299728 
L 423.967399 425.456387 
L 424.226846 426.949674 
L 424.486292 427.170444 
L 425.005186 425.883797 
L 425.264633 426.150487 
L 425.52408 427.373552 
L 426.302421 426.195524 
L 426.561868 430.156136 
L 426.821314 430.355712 
L 427.340208 429.640418 
L 427.599655 426.085139 
L 427.859102 427.793015 
L 428.118549 427.370903 
L 428.377996 425.529682 
L 428.637443 426.024207 
L 428.89689 427.524559 
L 429.156337 430.92 
L 429.415783 430.861717 
L 429.67523 429.284537 
L 429.934677 429.827631 
L 430.194124 427.574895 
L 430.453571 427.711772 
L 430.713018 427.085669 
L 430.972465 426.879911 
L 431.231912 427.407109 
L 431.750805 426.496654 
L 432.010252 425.462568 
L 432.269699 426.405697 
L 432.529146 426.656492 
L 432.788593 426.53551 
L 433.04804 425.306263 
L 433.566934 426.469279 
L 433.826381 426.274118 
L 434.085827 425.814034 
L 434.345274 426.702412 
L 434.604721 426.202589 
L 434.864168 426.365076 
L 435.123615 426.181395 
L 435.383062 425.610926 
L 435.642509 427.850415 
L 435.901956 427.345294 
L 436.161403 427.477756 
L 436.42085 426.818979 
L 436.680296 426.858717 
L 436.939743 427.574895 
L 437.19919 427.528091 
L 437.458637 427.759458 
L 437.718084 426.867548 
L 437.977531 428.272527 
L 438.496425 427.603153 
L 438.755872 426.451617 
L 439.015318 426.832225 
L 439.274765 427.56783 
L 439.534212 427.915763 
L 439.793659 427.707357 
L 440.053106 427.19782 
L 440.312553 428.026148 
L 440.572 428.325512 
L 440.831447 428.054407 
L 441.090894 427.410642 
L 441.35034 426.224666 
L 441.609787 427.212832 
L 441.869234 426.940843 
L 442.128681 425.849357 
L 442.388128 425.538513 
L 442.647575 425.953561 
L 442.907022 425.372494 
L 443.166469 425.344236 
L 443.425916 424.632473 
L 443.685363 426.803083 
L 444.204256 424.985705 
L 444.72315 425.013964 
L 444.982597 425.380442 
L 445.242044 425.2365 
L 445.760938 423.572778 
L 446.020385 425.431661 
L 446.539278 424.944201 
L 447.058172 423.653138 
L 447.317619 424.563593 
L 447.836513 423.580726 
L 448.09596 424.45939 
L 448.355407 424.940668 
L 448.614853 424.721665 
L 448.8743 424.832049 
L 449.133747 424.065536 
L 449.393194 425.455504 
L 449.652641 425.327457 
L 449.912088 425.430777 
L 450.171535 423.933958 
L 450.430982 424.355187 
L 450.690429 425.443141 
L 450.949876 425.403402 
L 451.468769 424.343706 
L 451.728216 424.968044 
L 451.987663 424.349888 
L 452.24711 424.092029 
L 452.506557 423.494184 
L 453.025451 424.787896 
L 453.544344 424.934487 
L 453.803791 424.537101 
L 454.063238 424.488532 
L 454.322685 424.79496 
L 454.582132 424.696055 
L 454.841579 423.383799 
L 455.101026 423.86596 
L 455.360473 424.916825 
L 455.879366 424.10086 
L 456.39826 425.470516 
L 456.657707 425.128764 
L 456.917154 425.149075 
L 457.176601 424.281891 
L 457.436048 425.288602 
L 457.695495 424.606864 
L 457.954942 424.524738 
L 458.214389 423.87744 
L 458.992729 426.102801 
L 459.252176 427.2667 
L 459.511623 427.574012 
L 459.77107 428.699055 
L 460.030517 426.590261 
L 460.289964 426.352712 
L 460.549411 425.595913 
L 460.808857 428.4827 
L 461.068304 429.486762 
L 461.327751 427.17486 
L 461.587198 427.279946 
L 461.846645 426.833991 
L 462.106092 426.786305 
L 462.624986 426.327103 
L 462.884433 425.320392 
L 463.662773 426.657375 
L 463.92222 426.021558 
L 464.181667 424.64307 
L 464.441114 427.001776 
L 464.700561 426.61587 
L 464.960008 425.394571 
L 465.219455 425.330106 
L 465.478902 424.980407 
L 465.738348 426.223783 
L 465.997795 425.02721 
L 466.516689 423.683163 
L 466.776136 424.932721 
L 467.035583 424.692523 
L 467.29503 424.793194 
L 467.554477 424.277476 
L 467.813924 425.315977 
L 468.332817 425.346002 
L 468.592264 424.807323 
L 468.851711 424.925656 
L 469.370605 424.496479 
L 469.889499 424.881502 
L 470.148946 426.401282 
L 470.667839 426.538159 
L 470.927286 425.492593 
L 471.186733 428.931305 
L 471.44618 429.403752 
L 471.705627 429.34282 
L 472.224521 426.227315 
L 472.483968 427.039748 
L 472.743415 426.933779 
L 473.002861 425.969456 
L 473.262308 425.577369 
L 473.521755 426.32622 
L 473.781202 426.29178 
L 474.040649 426.42954 
L 474.300096 425.920004 
L 474.559543 426.421593 
L 474.81899 425.798139 
L 475.078437 425.883797 
L 475.337883 425.659495 
L 475.59733 424.780831 
L 475.856777 426.445436 
L 476.116224 426.391568 
L 476.375671 426.660907 
L 476.635118 425.6436 
L 476.894565 425.482879 
L 477.154012 428.160376 
L 477.413459 424.183869 
L 477.672906 422.860133 
L 478.191799 424.662498 
L 478.710693 424.484999 
L 478.97014 423.571895 
L 479.229587 424.222725 
L 479.489034 424.070835 
L 479.748481 423.628412 
L 480.007928 422.342648 
L 480.267374 422.90517 
L 480.526821 424.205946 
L 480.786268 424.031979 
L 481.305162 422.791253 
L 481.564609 422.643778 
L 482.083503 422.627 
L 482.34295 421.777477 
L 482.602396 423.277829 
L 482.861843 423.218663 
L 483.12129 422.913118 
L 483.380737 422.227848 
L 483.640184 421.944379 
L 483.899631 422.425658 
L 484.159078 422.220783 
L 484.677972 420.472286 
L 484.937419 421.441024 
L 485.196865 422.922831 
L 485.456312 422.649077 
L 485.715759 421.543461 
L 485.975206 421.619406 
L 486.234653 422.562535 
L 486.4941 422.423008 
L 487.012994 421.1761 
L 487.272441 421.813684 
L 487.531887 421.146958 
L 487.791334 421.103688 
L 488.050781 420.288605 
L 488.569675 421.59468 
L 488.829122 421.630003 
L 489.088569 420.732794 
L 489.348016 420.355719 
L 489.607463 422.117463 
L 489.866909 422.235796 
L 490.126356 421.954093 
L 490.385803 420.946499 
L 490.64525 423.192171 
L 490.904697 423.623997 
L 491.423591 421.300614 
L 491.683038 423.989592 
L 491.942485 425.122583 
L 492.201932 425.124349 
L 492.461378 422.428307 
L 492.720825 422.078607 
L 492.980272 424.242152 
L 493.239719 424.416119 
L 493.499166 421.736856 
L 494.01806 420.697471 
L 494.277507 425.120816 
L 494.536954 423.945438 
L 494.7964 423.694643 
L 495.315294 420.636538 
L 495.574741 420.511141 
L 495.834188 420.55088 
L 496.093635 419.318101 
L 496.353082 419.281894 
L 496.612529 420.127885 
L 496.871976 419.571545 
L 497.131422 418.616936 
L 497.909763 417.61464 
L 498.428657 416.204362 
L 498.688104 417.480412 
L 498.947551 415.8997 
L 499.206998 415.907647 
L 499.466445 414.942441 
L 499.725891 415.790198 
L 499.985338 417.456569 
L 500.504232 417.519268 
L 500.763679 416.612345 
L 501.023126 417.37091 
L 501.282573 417.197827 
L 501.801467 415.522625 
L 502.060913 415.778718 
L 502.32036 416.388926 
L 502.579807 416.075433 
L 502.839254 416.176104 
L 503.098701 415.265649 
L 503.358148 416.382744 
L 503.617595 416.355369 
L 503.877042 414.743749 
L 504.136489 415.058125 
L 504.395935 416.92937 
L 504.655382 417.079494 
L 504.914829 416.586736 
L 505.174276 415.774302 
L 505.433723 415.627711 
L 505.69317 417.063599 
L 505.952617 416.103691 
L 506.212064 416.028629 
L 506.471511 415.493483 
L 506.730958 416.76865 
L 506.990404 416.561126 
L 507.249851 416.050706 
L 507.768745 415.731915 
L 508.028192 417.781542 
L 508.547086 415.923543 
L 508.806533 415.463458 
L 509.06598 416.558477 
L 509.584873 416.298852 
L 509.84432 415.585323 
L 510.363214 417.044171 
L 510.882108 416.313864 
L 511.141555 415.330113 
L 511.401002 416.71125 
L 511.660448 416.727145 
L 511.919895 416.320046 
L 512.179342 415.050177 
L 512.438789 415.006023 
L 512.698236 414.677518 
L 512.957683 414.107048 
L 513.21713 412.161624 
L 513.736024 413.965755 
L 513.995471 414.059362 
L 514.254917 413.590447 
L 514.514364 412.807155 
L 514.773811 413.802386 
L 515.552152 411.456926 
L 515.811599 411.557597 
L 516.071046 412.929903 
L 516.330493 412.671161 
L 516.589939 412.631422 
L 516.849386 412.037993 
L 517.108833 411.836651 
L 517.36828 412.012383 
L 517.627727 411.555831 
L 517.887174 410.661272 
L 518.146621 411.232624 
L 518.406068 410.832589 
L 518.665515 411.053359 
L 518.924961 409.980417 
L 519.184408 409.804685 
L 519.443855 410.554419 
L 519.703302 410.151735 
L 519.962749 410.189707 
L 520.222196 409.187412 
L 521.000537 410.118178 
L 521.259984 409.295148 
L 521.51943 410.16763 
L 521.778877 410.307157 
L 522.038324 410.011325 
L 522.297771 409.976885 
L 522.557218 408.483597 
L 522.816665 410.39988 
L 523.076112 410.595924 
L 523.335559 410.317754 
L 523.595006 409.790555 
L 523.854452 410.115529 
L 524.113899 409.738454 
L 524.373346 412.715315 
L 524.632793 412.69677 
L 524.89224 412.15191 
L 525.151687 411.028633 
L 525.411134 410.99331 
L 525.670581 411.118707 
L 525.930028 409.857669 
L 526.189474 409.869149 
L 526.448921 411.4322 
L 526.967815 410.049298 
L 527.227262 410.037818 
L 527.486709 411.446329 
L 528.005603 411.243221 
L 528.26505 410.608287 
L 528.524497 410.890872 
L 528.783943 410.894405 
L 529.04339 410.633013 
L 529.302837 409.741986 
L 529.562284 409.628952 
L 530.081178 408.586918 
L 530.340625 407.3144 
L 530.600072 406.92143 
L 530.859519 408.238101 
L 531.118965 408.063252 
L 531.378412 407.423019 
L 531.637859 406.258237 
L 532.156753 407.301154 
L 532.675647 406.196421 
L 532.935094 405.229449 
L 533.194541 406.138138 
L 533.453988 405.739869 
L 533.713434 405.580032 
L 534.232328 404.092043 
L 534.491775 403.867741 
L 534.751222 403.955165 
L 535.270116 402.934326 
L 535.529563 403.989606 
L 535.78901 404.280139 
L 536.048456 404.198012 
L 536.307903 402.899002 
L 536.826797 404.938916 
L 537.345691 402.80098 
L 537.605138 402.727685 
L 537.864585 404.034643 
L 538.124032 403.923375 
L 538.383478 404.049655 
L 538.642925 403.388228 
L 538.902372 404.207726 
L 539.161819 404.04259 
L 539.421266 404.324293 
L 539.680713 403.488016 
L 539.94016 401.887876 
L 540.199607 403.152446 
L 540.459054 403.20808 
L 540.718501 402.018572 
L 540.977947 402.2676 
L 541.237394 403.809457 
L 541.496841 404.013449 
L 541.756288 403.338776 
L 542.015735 403.041178 
L 542.275182 403.013803 
L 542.534629 404.281905 
L 542.794076 404.475299 
L 543.053523 403.425318 
L 543.312969 404.034643 
L 543.572416 403.492432 
L 543.831863 403.653152 
L 544.09131 402.943156 
L 544.350757 402.871627 
L 544.610204 404.771131 
L 544.869651 404.874451 
L 545.129098 404.515038 
L 545.388545 403.286674 
L 545.647991 403.241637 
L 545.907438 402.99879 
L 546.166885 403.503029 
L 546.426332 403.17364 
L 546.685779 402.554601 
L 546.945226 404.627189 
L 547.204673 404.505324 
L 547.46412 404.193597 
L 547.723567 402.662337 
L 547.983014 402.454813 
L 548.24246 402.727685 
L 548.761354 401.027757 
L 549.020801 401.179646 
L 549.280248 402.059194 
L 549.539695 401.50462 
L 549.799142 401.374807 
L 550.318036 400.461703 
L 550.577482 401.092222 
L 551.096376 398.62578 
L 551.355823 399.006388 
L 551.61527 400.035175 
L 551.874717 399.92479 
L 552.134164 399.968061 
L 552.393611 399.404656 
L 552.653058 399.194484 
L 552.912504 399.248351 
L 553.171951 399.042594 
L 553.431398 397.969652 
L 553.690845 398.395297 
L 553.950292 398.554251 
L 554.469186 397.021225 
L 554.728633 397.754181 
L 554.98808 399.28809 
L 555.247527 398.964 
L 555.506973 398.87216 
L 555.76642 398.064142 
L 556.025867 398.593989 
L 556.285314 399.698722 
L 556.544761 399.619245 
L 556.804208 401.388053 
L 557.063655 401.790737 
L 557.323102 403.148914 
L 557.582549 402.376219 
L 557.841995 399.650153 
L 558.101442 399.024932 
L 558.360889 399.367567 
L 558.620336 398.299041 
L 558.879783 397.898123 
L 559.13923 397.167816 
L 559.398677 397.283499 
L 559.658124 400.628605 
L 559.917571 400.592399 
L 560.177017 400.787559 
L 560.436464 397.919317 
L 560.695911 399.199782 
L 560.955358 399.002855 
L 561.214805 398.597522 
L 561.474252 397.73387 
L 561.733699 398.036766 
L 561.993146 398.547186 
L 562.252593 398.765307 
L 562.771486 397.624368 
L 563.030933 399.259831 
L 563.549827 399.63514 
L 564.068721 398.048246 
L 564.328168 398.941923 
L 564.587615 398.773255 
L 565.106508 397.114831 
L 565.365955 397.821295 
L 565.884849 396.603528 
L 566.144296 394.745529 
L 566.403743 396.175235 
L 566.66319 396.238816 
L 566.922637 396.119601 
L 567.182084 395.486432 
L 567.44153 395.41402 
L 567.700977 395.942102 
L 568.479318 393.21162 
L 568.738765 393.883643 
L 568.998212 393.740584 
L 569.257659 393.394417 
L 569.517106 392.464534 
L 570.035999 394.230693 
L 570.295446 393.810347 
L 570.554893 393.012927 
L 571.333234 393.430623 
L 571.592681 393.40678 
L 571.852128 392.60671 
L 572.111575 393.563085 
L 572.371021 393.995794 
L 572.630468 393.462414 
L 572.889915 392.063616 
L 573.149362 392.973188 
L 573.408809 393.286681 
L 574.18715 392.080395 
L 574.446597 391.747474 
L 574.706043 391.798692 
L 575.224937 390.71427 
L 575.743831 392.686187 
L 576.262725 391.304168 
L 576.522172 390.822889 
L 576.781619 392.297632 
L 577.041066 391.476368 
L 577.300512 391.748357 
L 577.559959 391.154927 
L 577.819406 391.540833 
L 578.078853 392.555491 
L 578.3383 392.308229 
L 578.597747 391.743058 
L 578.857194 391.524938 
L 579.116641 392.011514 
L 579.376088 392.204026 
L 579.635534 391.983256 
L 579.894981 391.139915 
L 580.154428 392.295866 
L 580.413875 392.304697 
L 580.673322 391.226457 
L 580.932769 391.146096 
L 581.192216 390.925327 
L 581.451663 392.580218 
L 582.230003 391.027764 
L 582.48945 391.42515 
L 582.748897 391.51699 
L 583.008344 390.908548 
L 583.267791 389.466479 
L 583.527238 389.717274 
L 584.046132 390.821123 
L 584.305579 390.155281 
L 584.565025 389.978665 
L 584.824472 390.92356 
L 585.083919 390.528824 
L 585.343366 390.44758 
L 585.602813 389.501802 
L 585.86226 390.985376 
L 586.121707 390.164995 
L 586.381154 388.589581 
L 586.640601 387.733877 
L 586.900047 388.138327 
L 587.159494 387.326777 
L 587.937835 386.64504 
L 588.197282 387.90961 
L 588.456729 387.67736 
L 588.716176 387.930804 
L 588.975623 387.082164 
L 589.23507 387.473368 
L 589.494516 391.091345 
L 589.753963 390.987142 
L 590.01341 389.97425 
L 590.272857 387.202263 
L 590.532304 388.656695 
L 590.791751 388.299931 
L 591.051198 388.338786 
L 591.310645 387.119254 
L 591.570092 387.209328 
L 591.829538 387.753305 
L 592.088985 387.804523 
L 592.348432 387.054789 
L 592.607879 387.354153 
L 592.867326 388.608126 
L 593.38622 388.540129 
L 593.645667 387.088346 
L 593.905114 389.522113 
L 594.16456 387.672944 
L 594.683454 386.229109 
L 595.202348 387.793926 
L 595.980689 387.165174 
L 596.240136 388.231934 
L 596.759029 387.914025 
L 597.018476 387.219925 
L 597.277923 387.823951 
L 597.796817 387.971425 
L 598.056264 387.516639 
L 598.834605 387.876053 
L 599.094051 388.80152 
L 599.353498 387.663231 
L 599.612945 389.48679 
L 599.872392 388.978136 
L 600.131839 388.837726 
L 600.650733 387.081281 
L 600.91018 390.542953 
L 601.429073 389.195374 
L 601.947967 386.568212 
L 602.207414 386.620314 
L 602.466861 386.342144 
L 602.726308 384.940696 
L 603.245202 385.574747 
L 603.764096 383.335258 
L 604.023542 383.645219 
L 604.282989 383.741474 
L 604.542436 384.100888 
L 604.801883 384.145925 
L 605.06133 383.200146 
L 605.320777 383.445643 
L 605.580224 384.939813 
L 605.839671 384.953942 
L 606.099118 383.143629 
L 606.358564 382.476904 
L 606.618011 383.531301 
L 606.877458 383.97814 
L 607.396352 383.230171 
L 607.915246 383.748539 
L 608.43414 382.128971 
L 608.953033 383.35027 
L 609.471927 382.189903 
L 609.731374 382.18902 
L 609.990821 383.165706 
L 610.250268 383.195731 
L 610.509715 382.990857 
L 610.769162 381.888773 
L 611.028609 381.836672 
L 611.288055 383.389126 
L 611.547502 383.333491 
L 611.806949 383.116254 
L 612.066396 381.111663 
L 612.325843 382.390363 
L 612.844737 382.264082 
L 613.104184 381.313005 
L 613.363631 382.241122 
L 613.623077 382.212864 
L 613.882524 382.34091 
L 614.141971 381.604422 
L 614.401418 382.721517 
L 614.660865 383.005869 
L 615.179759 382.780684 
L 615.439206 381.327135 
L 615.698653 382.302055 
L 616.217546 382.740945 
L 616.476993 382.160762 
L 616.995887 382.996155 
L 617.255334 381.717456 
L 617.514781 381.888773 
L 617.774228 381.16818 
L 618.033675 382.563446 
L 618.293122 382.31795 
L 618.812015 381.235294 
L 619.071462 380.537662 
L 619.330909 380.543843 
L 619.330909 380.543843 
" style="fill:none;stroke:#1f77b4;stroke-linecap:square;stroke-width:1.5;"/>
   </g>
   <g id="patch_3">
    <path d="M 108 448.56 
L 108 60.48 
" style="fill:none;stroke:#000000;stroke-linecap:square;stroke-linejoin:miter;stroke-width:0.8;"/>
   </g>
   <g id="patch_4">
    <path d="M 643.68 448.56 
L 643.68 60.48 
" style="fill:none;stroke:#000000;stroke-linecap:square;stroke-linejoin:miter;stroke-width:0.8;"/>
   </g>
   <g id="patch_5">
    <path d="M 108 448.56 
L 643.68 448.56 
" style="fill:none;stroke:#000000;stroke-linecap:square;stroke-linejoin:miter;stroke-width:0.8;"/>
   </g>
   <g id="patch_6">
    <path d="M 108 60.48 
L 643.68 60.48 
" style="fill:none;stroke:#000000;stroke-linecap:square;stroke-linejoin:miter;stroke-width:0.8;"/>
   </g>
   <g id="text_31">
    <!-- unikernel_fbuddyalloc - free -->
    <g transform="translate(271.560703 54.48)scale(0.15 -0.15)">
     <defs>
      <path d="M 8.5 21.578125 
L 8.5 54.6875 
L 17.484375 54.6875 
L 17.484375 21.921875 
Q 17.484375 14.15625 20.5 10.265625 
Q 23.53125 6.390625 29.59375 6.390625 
Q 36.859375 6.390625 41.078125 11.03125 
Q 45.3125 15.671875 45.3125 23.6875 
L 45.3125 54.6875 
L 54.296875 54.6875 
L 54.296875 0 
L 45.3125 0 
L 45.3125 8.40625 
Q 42.046875 3.421875 37.71875 1 
Q 33.40625 -1.421875 27.6875 -1.421875 
Q 18.265625 -1.421875 13.375 4.4375 
Q 8.5 10.296875 8.5 21.578125 
z
M 31.109375 56 
z
" id="DejaVuSans-117"/>
      <path d="M 54.890625 33.015625 
L 54.890625 0 
L 45.90625 0 
L 45.90625 32.71875 
Q 45.90625 40.484375 42.875 44.328125 
Q 39.84375 48.1875 33.796875 48.1875 
Q 26.515625 48.1875 22.3125 43.546875 
Q 18.109375 38.921875 18.109375 30.90625 
L 18.109375 0 
L 9.078125 0 
L 9.078125 54.6875 
L 18.109375 54.6875 
L 18.109375 46.1875 
Q 21.34375 51.125 25.703125 53.5625 
Q 30.078125 56 35.796875 56 
Q 45.21875 56 50.046875 50.171875 
Q 54.890625 44.34375 54.890625 33.015625 
z
" id="DejaVuSans-110"/>
      <path d="M 9.078125 75.984375 
L 18.109375 75.984375 
L 18.109375 31.109375 
L 44.921875 54.6875 
L 56.390625 54.6875 
L 27.390625 29.109375 
L 57.625 0 
L 45.90625 0 
L 18.109375 26.703125 
L 18.109375 0 
L 9.078125 0 
z
" id="DejaVuSans-107"/>
      <path d="M 41.109375 46.296875 
Q 39.59375 47.171875 37.8125 47.578125 
Q 36.03125 48 33.890625 48 
Q 26.265625 48 22.1875 43.046875 
Q 18.109375 38.09375 18.109375 28.8125 
L 18.109375 0 
L 9.078125 0 
L 9.078125 54.6875 
L 18.109375 54.6875 
L 18.109375 46.1875 
Q 20.953125 51.171875 25.484375 53.578125 
Q 30.03125 56 36.53125 56 
Q 37.453125 56 38.578125 55.875 
Q 39.703125 55.765625 41.0625 55.515625 
z
" id="DejaVuSans-114"/>
      <path d="M 9.421875 75.984375 
L 18.40625 75.984375 
L 18.40625 0 
L 9.421875 0 
z
" id="DejaVuSans-108"/>
      <path d="M 50.984375 -16.609375 
L 50.984375 -23.578125 
L -0.984375 -23.578125 
L -0.984375 -16.609375 
z
" id="DejaVuSans-95"/>
      <path d="M 37.109375 75.984375 
L 37.109375 68.5 
L 28.515625 68.5 
Q 23.6875 68.5 21.796875 66.546875 
Q 19.921875 64.59375 19.921875 59.515625 
L 19.921875 54.6875 
L 34.71875 54.6875 
L 34.71875 47.703125 
L 19.921875 47.703125 
L 19.921875 0 
L 10.890625 0 
L 10.890625 47.703125 
L 2.296875 47.703125 
L 2.296875 54.6875 
L 10.890625 54.6875 
L 10.890625 58.5 
Q 10.890625 67.625 15.140625 71.796875 
Q 19.390625 75.984375 28.609375 75.984375 
z
" id="DejaVuSans-102"/>
      <path d="M 48.6875 27.296875 
Q 48.6875 37.203125 44.609375 42.84375 
Q 40.53125 48.484375 33.40625 48.484375 
Q 26.265625 48.484375 22.1875 42.84375 
Q 18.109375 37.203125 18.109375 27.296875 
Q 18.109375 17.390625 22.1875 11.75 
Q 26.265625 6.109375 33.40625 6.109375 
Q 40.53125 6.109375 44.609375 11.75 
Q 48.6875 17.390625 48.6875 27.296875 
z
M 18.109375 46.390625 
Q 20.953125 51.265625 25.265625 53.625 
Q 29.59375 56 35.59375 56 
Q 45.5625 56 51.78125 48.09375 
Q 58.015625 40.1875 58.015625 27.296875 
Q 58.015625 14.40625 51.78125 6.484375 
Q 45.5625 -1.421875 35.59375 -1.421875 
Q 29.59375 -1.421875 25.265625 0.953125 
Q 20.953125 3.328125 18.109375 8.203125 
L 18.109375 0 
L 9.078125 0 
L 9.078125 75.984375 
L 18.109375 75.984375 
z
" id="DejaVuSans-98"/>
      <path d="M 45.40625 46.390625 
L 45.40625 75.984375 
L 54.390625 75.984375 
L 54.390625 0 
L 45.40625 0 
L 45.40625 8.203125 
Q 42.578125 3.328125 38.25 0.953125 
Q 33.9375 -1.421875 27.875 -1.421875 
Q 17.96875 -1.421875 11.734375 6.484375 
Q 5.515625 14.40625 5.515625 27.296875 
Q 5.515625 40.1875 11.734375 48.09375 
Q 17.96875 56 27.875 56 
Q 33.9375 56 38.25 53.625 
Q 42.578125 51.265625 45.40625 46.390625 
z
M 14.796875 27.296875 
Q 14.796875 17.390625 18.875 11.75 
Q 22.953125 6.109375 30.078125 6.109375 
Q 37.203125 6.109375 41.296875 11.75 
Q 45.40625 17.390625 45.40625 27.296875 
Q 45.40625 37.203125 41.296875 42.84375 
Q 37.203125 48.484375 30.078125 48.484375 
Q 22.953125 48.484375 18.875 42.84375 
Q 14.796875 37.203125 14.796875 27.296875 
z
" id="DejaVuSans-100"/>
      <path d="M 32.171875 -5.078125 
Q 28.375 -14.84375 24.75 -17.8125 
Q 21.140625 -20.796875 15.09375 -20.796875 
L 7.90625 -20.796875 
L 7.90625 -13.28125 
L 13.1875 -13.28125 
Q 16.890625 -13.28125 18.9375 -11.515625 
Q 21 -9.765625 23.484375 -3.21875 
L 25.09375 0.875 
L 2.984375 54.6875 
L 12.5 54.6875 
L 29.59375 11.921875 
L 46.6875 54.6875 
L 56.203125 54.6875 
z
" id="DejaVuSans-121"/>
      <path d="M 30.609375 48.390625 
Q 23.390625 48.390625 19.1875 42.75 
Q 14.984375 37.109375 14.984375 27.296875 
Q 14.984375 17.484375 19.15625 11.84375 
Q 23.34375 6.203125 30.609375 6.203125 
Q 37.796875 6.203125 41.984375 11.859375 
Q 46.1875 17.53125 46.1875 27.296875 
Q 46.1875 37.015625 41.984375 42.703125 
Q 37.796875 48.390625 30.609375 48.390625 
z
M 30.609375 56 
Q 42.328125 56 49.015625 48.375 
Q 55.71875 40.765625 55.71875 27.296875 
Q 55.71875 13.875 49.015625 6.21875 
Q 42.328125 -1.421875 30.609375 -1.421875 
Q 18.84375 -1.421875 12.171875 6.21875 
Q 5.515625 13.875 5.515625 27.296875 
Q 5.515625 40.765625 12.171875 48.375 
Q 18.84375 56 30.609375 56 
z
" id="DejaVuSans-111"/>
      <path d="M 48.78125 52.59375 
L 48.78125 44.1875 
Q 44.96875 46.296875 41.140625 47.34375 
Q 37.3125 48.390625 33.40625 48.390625 
Q 24.65625 48.390625 19.8125 42.84375 
Q 14.984375 37.3125 14.984375 27.296875 
Q 14.984375 17.28125 19.8125 11.734375 
Q 24.65625 6.203125 33.40625 6.203125 
Q 37.3125 6.203125 41.140625 7.25 
Q 44.96875 8.296875 48.78125 10.40625 
L 48.78125 2.09375 
Q 45.015625 0.34375 40.984375 -0.53125 
Q 36.96875 -1.421875 32.421875 -1.421875 
Q 20.0625 -1.421875 12.78125 6.34375 
Q 5.515625 14.109375 5.515625 27.296875 
Q 5.515625 40.671875 12.859375 48.328125 
Q 20.21875 56 33.015625 56 
Q 37.15625 56 41.109375 55.140625 
Q 45.0625 54.296875 48.78125 52.59375 
z
" id="DejaVuSans-99"/>
      <path id="DejaVuSans-32"/>
      <path d="M 4.890625 31.390625 
L 31.203125 31.390625 
L 31.203125 23.390625 
L 4.890625 23.390625 
z
" id="DejaVuSans-45"/>
     </defs>
     <use xlink:href="#DejaVuSans-117"/>
     <use x="63.378906" xlink:href="#DejaVuSans-110"/>
     <use x="126.757812" xlink:href="#DejaVuSans-105"/>
     <use x="154.541016" xlink:href="#DejaVuSans-107"/>
     <use x="208.826172" xlink:href="#DejaVuSans-101"/>
     <use x="270.349609" xlink:href="#DejaVuSans-114"/>
     <use x="309.712891" xlink:href="#DejaVuSans-110"/>
     <use x="373.091797" xlink:href="#DejaVuSans-101"/>
     <use x="434.615234" xlink:href="#DejaVuSans-108"/>
     <use x="462.398438" xlink:href="#DejaVuSans-95"/>
     <use x="512.398438" xlink:href="#DejaVuSans-102"/>
     <use x="547.603516" xlink:href="#DejaVuSans-98"/>
     <use x="611.080078" xlink:href="#DejaVuSans-117"/>
     <use x="674.458984" xlink:href="#DejaVuSans-100"/>
     <use x="737.935547" xlink:href="#DejaVuSans-100"/>
     <use x="801.412109" xlink:href="#DejaVuSans-121"/>
     <use x="860.591797" xlink:href="#DejaVuSans-97"/>
     <use x="921.871094" xlink:href="#DejaVuSans-108"/>
     <use x="949.654297" xlink:href="#DejaVuSans-108"/>
     <use x="977.4375" xlink:href="#DejaVuSans-111"/>
     <use x="1038.619141" xlink:href="#DejaVuSans-99"/>
     <use x="1093.599609" xlink:href="#DejaVuSans-32"/>
     <use x="1125.386719" xlink:href="#DejaVuSans-45"/>
     <use x="1161.470703" xlink:href="#DejaVuSans-32"/>
     <use x="1193.257812" xlink:href="#DejaVuSans-102"/>
     <use x="1228.462891" xlink:href="#DejaVuSans-114"/>
     <use x="1267.326172" xlink:href="#DejaVuSans-101"/>
     <use x="1328.849609" xlink:href="#DejaVuSans-101"/>
    </g>
   </g>
   <g id="legend_1">
    <g id="patch_7">
     <path d="M 650.68 258.52 
L 654.68 258.52 
Q 656.68 258.52 656.68 256.52 
L 656.68 252.52 
Q 656.68 250.52 654.68 250.52 
L 650.68 250.52 
Q 648.68 250.52 648.68 252.52 
L 648.68 256.52 
Q 648.68 258.52 650.68 258.52 
z
" style="fill:#ffffff;opacity:0.8;stroke:#cccccc;stroke-linejoin:miter;"/>
    </g>
   </g>
  </g>
 </g>
 <defs>
  <clipPath id="p009c5e8e92">
   <rect height="388.08" width="535.68" x="108" y="60.48"/>
  </clipPath>
 </defs>
</svg>
