<?xml version="1.0" encoding="utf-8" standalone="no"?>
<!DOCTYPE svg PUBLIC "-//W3C//DTD SVG 1.1//EN"
  "http://www.w3.org/Graphics/SVG/1.1/DTD/svg11.dtd">
<!-- Created with matplotlib (https://matplotlib.org/) -->
<svg height="504pt" version="1.1" viewBox="0 0 864 504" width="864pt" xmlns="http://www.w3.org/2000/svg" xmlns:xlink="http://www.w3.org/1999/xlink">
 <metadata>
  <rdf:RDF xmlns:cc="http://creativecommons.org/ns#" xmlns:dc="http://purl.org/dc/elements/1.1/" xmlns:rdf="http://www.w3.org/1999/02/22-rdf-syntax-ns#">
   <cc:Work>
    <dc:type rdf:resource="http://purl.org/dc/dcmitype/StillImage"/>
    <dc:date>2022-05-29T16:57:23.680550</dc:date>
    <dc:format>image/svg+xml</dc:format>
    <dc:creator>
     <cc:Agent>
      <dc:title>Matplotlib v3.3.4, https://matplotlib.org/</dc:title>
     </cc:Agent>
    </dc:creator>
   </cc:Work>
  </rdf:RDF>
 </metadata>
 <defs>
  <style type="text/css">*{stroke-linecap:butt;stroke-linejoin:round;}</style>
 </defs>
 <g id="figure_1">
  <g id="patch_1">
   <path d="M 0 504 
L 864 504 
L 864 0 
L 0 0 
z
" style="fill:#ffffff;"/>
  </g>
  <g id="axes_1">
   <g id="patch_2">
    <path d="M 108 448.56 
L 643.68 448.56 
L 643.68 60.48 
L 108 60.48 
z
" style="fill:#ffffff;"/>
   </g>
   <g id="matplotlib.axis_1">
    <g id="xtick_1">
     <g id="line2d_1">
      <defs>
       <path d="M 0 0 
L 0 3.5 
" id="m4eec8b414d" style="stroke:#000000;stroke-width:0.8;"/>
      </defs>
      <g>
       <use style="stroke:#000000;stroke-width:0.8;" x="132.349091" xlink:href="#m4eec8b414d" y="448.56"/>
      </g>
     </g>
     <g id="text_1">
      <!-- 19:54:11 -->
      <g transform="translate(135.108466 500.4725)rotate(-90)scale(0.1 -0.1)">
       <defs>
        <path d="M 12.40625 8.296875 
L 28.515625 8.296875 
L 28.515625 63.921875 
L 10.984375 60.40625 
L 10.984375 69.390625 
L 28.421875 72.90625 
L 38.28125 72.90625 
L 38.28125 8.296875 
L 54.390625 8.296875 
L 54.390625 0 
L 12.40625 0 
z
" id="DejaVuSans-49"/>
        <path d="M 10.984375 1.515625 
L 10.984375 10.5 
Q 14.703125 8.734375 18.5 7.8125 
Q 22.3125 6.890625 25.984375 6.890625 
Q 35.75 6.890625 40.890625 13.453125 
Q 46.046875 20.015625 46.78125 33.40625 
Q 43.953125 29.203125 39.59375 26.953125 
Q 35.25 24.703125 29.984375 24.703125 
Q 19.046875 24.703125 12.671875 31.3125 
Q 6.296875 37.9375 6.296875 49.421875 
Q 6.296875 60.640625 12.9375 67.421875 
Q 19.578125 74.21875 30.609375 74.21875 
Q 43.265625 74.21875 49.921875 64.515625 
Q 56.59375 54.828125 56.59375 36.375 
Q 56.59375 19.140625 48.40625 8.859375 
Q 40.234375 -1.421875 26.421875 -1.421875 
Q 22.703125 -1.421875 18.890625 -0.6875 
Q 15.09375 0.046875 10.984375 1.515625 
z
M 30.609375 32.421875 
Q 37.25 32.421875 41.125 36.953125 
Q 45.015625 41.5 45.015625 49.421875 
Q 45.015625 57.28125 41.125 61.84375 
Q 37.25 66.40625 30.609375 66.40625 
Q 23.96875 66.40625 20.09375 61.84375 
Q 16.21875 57.28125 16.21875 49.421875 
Q 16.21875 41.5 20.09375 36.953125 
Q 23.96875 32.421875 30.609375 32.421875 
z
" id="DejaVuSans-57"/>
        <path d="M 11.71875 12.40625 
L 22.015625 12.40625 
L 22.015625 0 
L 11.71875 0 
z
M 11.71875 51.703125 
L 22.015625 51.703125 
L 22.015625 39.3125 
L 11.71875 39.3125 
z
" id="DejaVuSans-58"/>
        <path d="M 10.796875 72.90625 
L 49.515625 72.90625 
L 49.515625 64.59375 
L 19.828125 64.59375 
L 19.828125 46.734375 
Q 21.96875 47.46875 24.109375 47.828125 
Q 26.265625 48.1875 28.421875 48.1875 
Q 40.625 48.1875 47.75 41.5 
Q 54.890625 34.8125 54.890625 23.390625 
Q 54.890625 11.625 47.5625 5.09375 
Q 40.234375 -1.421875 26.90625 -1.421875 
Q 22.3125 -1.421875 17.546875 -0.640625 
Q 12.796875 0.140625 7.71875 1.703125 
L 7.71875 11.625 
Q 12.109375 9.234375 16.796875 8.0625 
Q 21.484375 6.890625 26.703125 6.890625 
Q 35.15625 6.890625 40.078125 11.328125 
Q 45.015625 15.765625 45.015625 23.390625 
Q 45.015625 31 40.078125 35.4375 
Q 35.15625 39.890625 26.703125 39.890625 
Q 22.75 39.890625 18.8125 39.015625 
Q 14.890625 38.140625 10.796875 36.28125 
z
" id="DejaVuSans-53"/>
        <path d="M 37.796875 64.3125 
L 12.890625 25.390625 
L 37.796875 25.390625 
z
M 35.203125 72.90625 
L 47.609375 72.90625 
L 47.609375 25.390625 
L 58.015625 25.390625 
L 58.015625 17.1875 
L 47.609375 17.1875 
L 47.609375 0 
L 37.796875 0 
L 37.796875 17.1875 
L 4.890625 17.1875 
L 4.890625 26.703125 
z
" id="DejaVuSans-52"/>
       </defs>
       <use xlink:href="#DejaVuSans-49"/>
       <use x="63.623047" xlink:href="#DejaVuSans-57"/>
       <use x="127.246094" xlink:href="#DejaVuSans-58"/>
       <use x="160.9375" xlink:href="#DejaVuSans-53"/>
       <use x="224.560547" xlink:href="#DejaVuSans-52"/>
       <use x="288.183594" xlink:href="#DejaVuSans-58"/>
       <use x="321.875" xlink:href="#DejaVuSans-49"/>
       <use x="385.498047" xlink:href="#DejaVuSans-49"/>
      </g>
     </g>
    </g>
    <g id="xtick_2">
     <g id="line2d_2">
      <g>
       <use style="stroke:#000000;stroke-width:0.8;" x="156.545363" xlink:href="#m4eec8b414d" y="448.56"/>
      </g>
     </g>
     <g id="text_2">
      <!-- 19:56:04 -->
      <g transform="translate(159.304738 500.4725)rotate(-90)scale(0.1 -0.1)">
       <defs>
        <path d="M 33.015625 40.375 
Q 26.375 40.375 22.484375 35.828125 
Q 18.609375 31.296875 18.609375 23.390625 
Q 18.609375 15.53125 22.484375 10.953125 
Q 26.375 6.390625 33.015625 6.390625 
Q 39.65625 6.390625 43.53125 10.953125 
Q 47.40625 15.53125 47.40625 23.390625 
Q 47.40625 31.296875 43.53125 35.828125 
Q 39.65625 40.375 33.015625 40.375 
z
M 52.59375 71.296875 
L 52.59375 62.3125 
Q 48.875 64.0625 45.09375 64.984375 
Q 41.3125 65.921875 37.59375 65.921875 
Q 27.828125 65.921875 22.671875 59.328125 
Q 17.53125 52.734375 16.796875 39.40625 
Q 19.671875 43.65625 24.015625 45.921875 
Q 28.375 48.1875 33.59375 48.1875 
Q 44.578125 48.1875 50.953125 41.515625 
Q 57.328125 34.859375 57.328125 23.390625 
Q 57.328125 12.15625 50.6875 5.359375 
Q 44.046875 -1.421875 33.015625 -1.421875 
Q 20.359375 -1.421875 13.671875 8.265625 
Q 6.984375 17.96875 6.984375 36.375 
Q 6.984375 53.65625 15.1875 63.9375 
Q 23.390625 74.21875 37.203125 74.21875 
Q 40.921875 74.21875 44.703125 73.484375 
Q 48.484375 72.75 52.59375 71.296875 
z
" id="DejaVuSans-54"/>
        <path d="M 31.78125 66.40625 
Q 24.171875 66.40625 20.328125 58.90625 
Q 16.5 51.421875 16.5 36.375 
Q 16.5 21.390625 20.328125 13.890625 
Q 24.171875 6.390625 31.78125 6.390625 
Q 39.453125 6.390625 43.28125 13.890625 
Q 47.125 21.390625 47.125 36.375 
Q 47.125 51.421875 43.28125 58.90625 
Q 39.453125 66.40625 31.78125 66.40625 
z
M 31.78125 74.21875 
Q 44.046875 74.21875 50.515625 64.515625 
Q 56.984375 54.828125 56.984375 36.375 
Q 56.984375 17.96875 50.515625 8.265625 
Q 44.046875 -1.421875 31.78125 -1.421875 
Q 19.53125 -1.421875 13.0625 8.265625 
Q 6.59375 17.96875 6.59375 36.375 
Q 6.59375 54.828125 13.0625 64.515625 
Q 19.53125 74.21875 31.78125 74.21875 
z
" id="DejaVuSans-48"/>
       </defs>
       <use xlink:href="#DejaVuSans-49"/>
       <use x="63.623047" xlink:href="#DejaVuSans-57"/>
       <use x="127.246094" xlink:href="#DejaVuSans-58"/>
       <use x="160.9375" xlink:href="#DejaVuSans-53"/>
       <use x="224.560547" xlink:href="#DejaVuSans-54"/>
       <use x="288.183594" xlink:href="#DejaVuSans-58"/>
       <use x="321.875" xlink:href="#DejaVuSans-48"/>
       <use x="385.498047" xlink:href="#DejaVuSans-52"/>
      </g>
     </g>
    </g>
    <g id="xtick_3">
     <g id="line2d_3">
      <g>
       <use style="stroke:#000000;stroke-width:0.8;" x="180.741636" xlink:href="#m4eec8b414d" y="448.56"/>
      </g>
     </g>
     <g id="text_3">
      <!-- 19:57:58 -->
      <g transform="translate(183.501011 500.4725)rotate(-90)scale(0.1 -0.1)">
       <defs>
        <path d="M 8.203125 72.90625 
L 55.078125 72.90625 
L 55.078125 68.703125 
L 28.609375 0 
L 18.3125 0 
L 43.21875 64.59375 
L 8.203125 64.59375 
z
" id="DejaVuSans-55"/>
        <path d="M 31.78125 34.625 
Q 24.75 34.625 20.71875 30.859375 
Q 16.703125 27.09375 16.703125 20.515625 
Q 16.703125 13.921875 20.71875 10.15625 
Q 24.75 6.390625 31.78125 6.390625 
Q 38.8125 6.390625 42.859375 10.171875 
Q 46.921875 13.96875 46.921875 20.515625 
Q 46.921875 27.09375 42.890625 30.859375 
Q 38.875 34.625 31.78125 34.625 
z
M 21.921875 38.8125 
Q 15.578125 40.375 12.03125 44.71875 
Q 8.5 49.078125 8.5 55.328125 
Q 8.5 64.0625 14.71875 69.140625 
Q 20.953125 74.21875 31.78125 74.21875 
Q 42.671875 74.21875 48.875 69.140625 
Q 55.078125 64.0625 55.078125 55.328125 
Q 55.078125 49.078125 51.53125 44.71875 
Q 48 40.375 41.703125 38.8125 
Q 48.828125 37.15625 52.796875 32.3125 
Q 56.78125 27.484375 56.78125 20.515625 
Q 56.78125 9.90625 50.3125 4.234375 
Q 43.84375 -1.421875 31.78125 -1.421875 
Q 19.734375 -1.421875 13.25 4.234375 
Q 6.78125 9.90625 6.78125 20.515625 
Q 6.78125 27.484375 10.78125 32.3125 
Q 14.796875 37.15625 21.921875 38.8125 
z
M 18.3125 54.390625 
Q 18.3125 48.734375 21.84375 45.5625 
Q 25.390625 42.390625 31.78125 42.390625 
Q 38.140625 42.390625 41.71875 45.5625 
Q 45.3125 48.734375 45.3125 54.390625 
Q 45.3125 60.0625 41.71875 63.234375 
Q 38.140625 66.40625 31.78125 66.40625 
Q 25.390625 66.40625 21.84375 63.234375 
Q 18.3125 60.0625 18.3125 54.390625 
z
" id="DejaVuSans-56"/>
       </defs>
       <use xlink:href="#DejaVuSans-49"/>
       <use x="63.623047" xlink:href="#DejaVuSans-57"/>
       <use x="127.246094" xlink:href="#DejaVuSans-58"/>
       <use x="160.9375" xlink:href="#DejaVuSans-53"/>
       <use x="224.560547" xlink:href="#DejaVuSans-55"/>
       <use x="288.183594" xlink:href="#DejaVuSans-58"/>
       <use x="321.875" xlink:href="#DejaVuSans-53"/>
       <use x="385.498047" xlink:href="#DejaVuSans-56"/>
      </g>
     </g>
    </g>
    <g id="xtick_4">
     <g id="line2d_4">
      <g>
       <use style="stroke:#000000;stroke-width:0.8;" x="204.937908" xlink:href="#m4eec8b414d" y="448.56"/>
      </g>
     </g>
     <g id="text_4">
      <!-- 19:59:52 -->
      <g transform="translate(207.697283 500.4725)rotate(-90)scale(0.1 -0.1)">
       <defs>
        <path d="M 19.1875 8.296875 
L 53.609375 8.296875 
L 53.609375 0 
L 7.328125 0 
L 7.328125 8.296875 
Q 12.9375 14.109375 22.625 23.890625 
Q 32.328125 33.6875 34.8125 36.53125 
Q 39.546875 41.84375 41.421875 45.53125 
Q 43.3125 49.21875 43.3125 52.78125 
Q 43.3125 58.59375 39.234375 62.25 
Q 35.15625 65.921875 28.609375 65.921875 
Q 23.96875 65.921875 18.8125 64.3125 
Q 13.671875 62.703125 7.8125 59.421875 
L 7.8125 69.390625 
Q 13.765625 71.78125 18.9375 73 
Q 24.125 74.21875 28.421875 74.21875 
Q 39.75 74.21875 46.484375 68.546875 
Q 53.21875 62.890625 53.21875 53.421875 
Q 53.21875 48.921875 51.53125 44.890625 
Q 49.859375 40.875 45.40625 35.40625 
Q 44.1875 33.984375 37.640625 27.21875 
Q 31.109375 20.453125 19.1875 8.296875 
z
" id="DejaVuSans-50"/>
       </defs>
       <use xlink:href="#DejaVuSans-49"/>
       <use x="63.623047" xlink:href="#DejaVuSans-57"/>
       <use x="127.246094" xlink:href="#DejaVuSans-58"/>
       <use x="160.9375" xlink:href="#DejaVuSans-53"/>
       <use x="224.560547" xlink:href="#DejaVuSans-57"/>
       <use x="288.183594" xlink:href="#DejaVuSans-58"/>
       <use x="321.875" xlink:href="#DejaVuSans-53"/>
       <use x="385.498047" xlink:href="#DejaVuSans-50"/>
      </g>
     </g>
    </g>
    <g id="xtick_5">
     <g id="line2d_5">
      <g>
       <use style="stroke:#000000;stroke-width:0.8;" x="229.13418" xlink:href="#m4eec8b414d" y="448.56"/>
      </g>
     </g>
     <g id="text_5">
      <!-- 20:01:46 -->
      <g transform="translate(231.893555 500.4725)rotate(-90)scale(0.1 -0.1)">
       <use xlink:href="#DejaVuSans-50"/>
       <use x="63.623047" xlink:href="#DejaVuSans-48"/>
       <use x="127.246094" xlink:href="#DejaVuSans-58"/>
       <use x="160.9375" xlink:href="#DejaVuSans-48"/>
       <use x="224.560547" xlink:href="#DejaVuSans-49"/>
       <use x="288.183594" xlink:href="#DejaVuSans-58"/>
       <use x="321.875" xlink:href="#DejaVuSans-52"/>
       <use x="385.498047" xlink:href="#DejaVuSans-54"/>
      </g>
     </g>
    </g>
    <g id="xtick_6">
     <g id="line2d_6">
      <g>
       <use style="stroke:#000000;stroke-width:0.8;" x="253.330453" xlink:href="#m4eec8b414d" y="448.56"/>
      </g>
     </g>
     <g id="text_6">
      <!-- 20:03:40 -->
      <g transform="translate(256.089828 500.4725)rotate(-90)scale(0.1 -0.1)">
       <defs>
        <path d="M 40.578125 39.3125 
Q 47.65625 37.796875 51.625 33 
Q 55.609375 28.21875 55.609375 21.1875 
Q 55.609375 10.40625 48.1875 4.484375 
Q 40.765625 -1.421875 27.09375 -1.421875 
Q 22.515625 -1.421875 17.65625 -0.515625 
Q 12.796875 0.390625 7.625 2.203125 
L 7.625 11.71875 
Q 11.71875 9.328125 16.59375 8.109375 
Q 21.484375 6.890625 26.8125 6.890625 
Q 36.078125 6.890625 40.9375 10.546875 
Q 45.796875 14.203125 45.796875 21.1875 
Q 45.796875 27.640625 41.28125 31.265625 
Q 36.765625 34.90625 28.71875 34.90625 
L 20.21875 34.90625 
L 20.21875 43.015625 
L 29.109375 43.015625 
Q 36.375 43.015625 40.234375 45.921875 
Q 44.09375 48.828125 44.09375 54.296875 
Q 44.09375 59.90625 40.109375 62.90625 
Q 36.140625 65.921875 28.71875 65.921875 
Q 24.65625 65.921875 20.015625 65.03125 
Q 15.375 64.15625 9.8125 62.3125 
L 9.8125 71.09375 
Q 15.4375 72.65625 20.34375 73.4375 
Q 25.25 74.21875 29.59375 74.21875 
Q 40.828125 74.21875 47.359375 69.109375 
Q 53.90625 64.015625 53.90625 55.328125 
Q 53.90625 49.265625 50.4375 45.09375 
Q 46.96875 40.921875 40.578125 39.3125 
z
" id="DejaVuSans-51"/>
       </defs>
       <use xlink:href="#DejaVuSans-50"/>
       <use x="63.623047" xlink:href="#DejaVuSans-48"/>
       <use x="127.246094" xlink:href="#DejaVuSans-58"/>
       <use x="160.9375" xlink:href="#DejaVuSans-48"/>
       <use x="224.560547" xlink:href="#DejaVuSans-51"/>
       <use x="288.183594" xlink:href="#DejaVuSans-58"/>
       <use x="321.875" xlink:href="#DejaVuSans-52"/>
       <use x="385.498047" xlink:href="#DejaVuSans-48"/>
      </g>
     </g>
    </g>
    <g id="xtick_7">
     <g id="line2d_7">
      <g>
       <use style="stroke:#000000;stroke-width:0.8;" x="277.526725" xlink:href="#m4eec8b414d" y="448.56"/>
      </g>
     </g>
     <g id="text_7">
      <!-- 20:05:34 -->
      <g transform="translate(280.2861 500.4725)rotate(-90)scale(0.1 -0.1)">
       <use xlink:href="#DejaVuSans-50"/>
       <use x="63.623047" xlink:href="#DejaVuSans-48"/>
       <use x="127.246094" xlink:href="#DejaVuSans-58"/>
       <use x="160.9375" xlink:href="#DejaVuSans-48"/>
       <use x="224.560547" xlink:href="#DejaVuSans-53"/>
       <use x="288.183594" xlink:href="#DejaVuSans-58"/>
       <use x="321.875" xlink:href="#DejaVuSans-51"/>
       <use x="385.498047" xlink:href="#DejaVuSans-52"/>
      </g>
     </g>
    </g>
    <g id="xtick_8">
     <g id="line2d_8">
      <g>
       <use style="stroke:#000000;stroke-width:0.8;" x="301.722997" xlink:href="#m4eec8b414d" y="448.56"/>
      </g>
     </g>
     <g id="text_8">
      <!-- 20:07:28 -->
      <g transform="translate(304.482372 500.4725)rotate(-90)scale(0.1 -0.1)">
       <use xlink:href="#DejaVuSans-50"/>
       <use x="63.623047" xlink:href="#DejaVuSans-48"/>
       <use x="127.246094" xlink:href="#DejaVuSans-58"/>
       <use x="160.9375" xlink:href="#DejaVuSans-48"/>
       <use x="224.560547" xlink:href="#DejaVuSans-55"/>
       <use x="288.183594" xlink:href="#DejaVuSans-58"/>
       <use x="321.875" xlink:href="#DejaVuSans-50"/>
       <use x="385.498047" xlink:href="#DejaVuSans-56"/>
      </g>
     </g>
    </g>
    <g id="xtick_9">
     <g id="line2d_9">
      <g>
       <use style="stroke:#000000;stroke-width:0.8;" x="325.91927" xlink:href="#m4eec8b414d" y="448.56"/>
      </g>
     </g>
     <g id="text_9">
      <!-- 20:09:22 -->
      <g transform="translate(328.678645 500.4725)rotate(-90)scale(0.1 -0.1)">
       <use xlink:href="#DejaVuSans-50"/>
       <use x="63.623047" xlink:href="#DejaVuSans-48"/>
       <use x="127.246094" xlink:href="#DejaVuSans-58"/>
       <use x="160.9375" xlink:href="#DejaVuSans-48"/>
       <use x="224.560547" xlink:href="#DejaVuSans-57"/>
       <use x="288.183594" xlink:href="#DejaVuSans-58"/>
       <use x="321.875" xlink:href="#DejaVuSans-50"/>
       <use x="385.498047" xlink:href="#DejaVuSans-50"/>
      </g>
     </g>
    </g>
    <g id="xtick_10">
     <g id="line2d_10">
      <g>
       <use style="stroke:#000000;stroke-width:0.8;" x="350.115542" xlink:href="#m4eec8b414d" y="448.56"/>
      </g>
     </g>
     <g id="text_10">
      <!-- 20:11:16 -->
      <g transform="translate(352.874917 500.4725)rotate(-90)scale(0.1 -0.1)">
       <use xlink:href="#DejaVuSans-50"/>
       <use x="63.623047" xlink:href="#DejaVuSans-48"/>
       <use x="127.246094" xlink:href="#DejaVuSans-58"/>
       <use x="160.9375" xlink:href="#DejaVuSans-49"/>
       <use x="224.560547" xlink:href="#DejaVuSans-49"/>
       <use x="288.183594" xlink:href="#DejaVuSans-58"/>
       <use x="321.875" xlink:href="#DejaVuSans-49"/>
       <use x="385.498047" xlink:href="#DejaVuSans-54"/>
      </g>
     </g>
    </g>
    <g id="xtick_11">
     <g id="line2d_11">
      <g>
       <use style="stroke:#000000;stroke-width:0.8;" x="374.311814" xlink:href="#m4eec8b414d" y="448.56"/>
      </g>
     </g>
     <g id="text_11">
      <!-- 20:13:10 -->
      <g transform="translate(377.071189 500.4725)rotate(-90)scale(0.1 -0.1)">
       <use xlink:href="#DejaVuSans-50"/>
       <use x="63.623047" xlink:href="#DejaVuSans-48"/>
       <use x="127.246094" xlink:href="#DejaVuSans-58"/>
       <use x="160.9375" xlink:href="#DejaVuSans-49"/>
       <use x="224.560547" xlink:href="#DejaVuSans-51"/>
       <use x="288.183594" xlink:href="#DejaVuSans-58"/>
       <use x="321.875" xlink:href="#DejaVuSans-49"/>
       <use x="385.498047" xlink:href="#DejaVuSans-48"/>
      </g>
     </g>
    </g>
    <g id="xtick_12">
     <g id="line2d_12">
      <g>
       <use style="stroke:#000000;stroke-width:0.8;" x="398.508087" xlink:href="#m4eec8b414d" y="448.56"/>
      </g>
     </g>
     <g id="text_12">
      <!-- 20:15:04 -->
      <g transform="translate(401.267462 500.4725)rotate(-90)scale(0.1 -0.1)">
       <use xlink:href="#DejaVuSans-50"/>
       <use x="63.623047" xlink:href="#DejaVuSans-48"/>
       <use x="127.246094" xlink:href="#DejaVuSans-58"/>
       <use x="160.9375" xlink:href="#DejaVuSans-49"/>
       <use x="224.560547" xlink:href="#DejaVuSans-53"/>
       <use x="288.183594" xlink:href="#DejaVuSans-58"/>
       <use x="321.875" xlink:href="#DejaVuSans-48"/>
       <use x="385.498047" xlink:href="#DejaVuSans-52"/>
      </g>
     </g>
    </g>
    <g id="xtick_13">
     <g id="line2d_13">
      <g>
       <use style="stroke:#000000;stroke-width:0.8;" x="422.704359" xlink:href="#m4eec8b414d" y="448.56"/>
      </g>
     </g>
     <g id="text_13">
      <!-- 20:16:58 -->
      <g transform="translate(425.463734 500.4725)rotate(-90)scale(0.1 -0.1)">
       <use xlink:href="#DejaVuSans-50"/>
       <use x="63.623047" xlink:href="#DejaVuSans-48"/>
       <use x="127.246094" xlink:href="#DejaVuSans-58"/>
       <use x="160.9375" xlink:href="#DejaVuSans-49"/>
       <use x="224.560547" xlink:href="#DejaVuSans-54"/>
       <use x="288.183594" xlink:href="#DejaVuSans-58"/>
       <use x="321.875" xlink:href="#DejaVuSans-53"/>
       <use x="385.498047" xlink:href="#DejaVuSans-56"/>
      </g>
     </g>
    </g>
    <g id="xtick_14">
     <g id="line2d_14">
      <g>
       <use style="stroke:#000000;stroke-width:0.8;" x="446.900631" xlink:href="#m4eec8b414d" y="448.56"/>
      </g>
     </g>
     <g id="text_14">
      <!-- 20:18:52 -->
      <g transform="translate(449.660006 500.4725)rotate(-90)scale(0.1 -0.1)">
       <use xlink:href="#DejaVuSans-50"/>
       <use x="63.623047" xlink:href="#DejaVuSans-48"/>
       <use x="127.246094" xlink:href="#DejaVuSans-58"/>
       <use x="160.9375" xlink:href="#DejaVuSans-49"/>
       <use x="224.560547" xlink:href="#DejaVuSans-56"/>
       <use x="288.183594" xlink:href="#DejaVuSans-58"/>
       <use x="321.875" xlink:href="#DejaVuSans-53"/>
       <use x="385.498047" xlink:href="#DejaVuSans-50"/>
      </g>
     </g>
    </g>
    <g id="xtick_15">
     <g id="line2d_15">
      <g>
       <use style="stroke:#000000;stroke-width:0.8;" x="471.096904" xlink:href="#m4eec8b414d" y="448.56"/>
      </g>
     </g>
     <g id="text_15">
      <!-- 20:20:46 -->
      <g transform="translate(473.856279 500.4725)rotate(-90)scale(0.1 -0.1)">
       <use xlink:href="#DejaVuSans-50"/>
       <use x="63.623047" xlink:href="#DejaVuSans-48"/>
       <use x="127.246094" xlink:href="#DejaVuSans-58"/>
       <use x="160.9375" xlink:href="#DejaVuSans-50"/>
       <use x="224.560547" xlink:href="#DejaVuSans-48"/>
       <use x="288.183594" xlink:href="#DejaVuSans-58"/>
       <use x="321.875" xlink:href="#DejaVuSans-52"/>
       <use x="385.498047" xlink:href="#DejaVuSans-54"/>
      </g>
     </g>
    </g>
    <g id="xtick_16">
     <g id="line2d_16">
      <g>
       <use style="stroke:#000000;stroke-width:0.8;" x="495.293176" xlink:href="#m4eec8b414d" y="448.56"/>
      </g>
     </g>
     <g id="text_16">
      <!-- 20:22:40 -->
      <g transform="translate(498.052551 500.4725)rotate(-90)scale(0.1 -0.1)">
       <use xlink:href="#DejaVuSans-50"/>
       <use x="63.623047" xlink:href="#DejaVuSans-48"/>
       <use x="127.246094" xlink:href="#DejaVuSans-58"/>
       <use x="160.9375" xlink:href="#DejaVuSans-50"/>
       <use x="224.560547" xlink:href="#DejaVuSans-50"/>
       <use x="288.183594" xlink:href="#DejaVuSans-58"/>
       <use x="321.875" xlink:href="#DejaVuSans-52"/>
       <use x="385.498047" xlink:href="#DejaVuSans-48"/>
      </g>
     </g>
    </g>
    <g id="xtick_17">
     <g id="line2d_17">
      <g>
       <use style="stroke:#000000;stroke-width:0.8;" x="519.489448" xlink:href="#m4eec8b414d" y="448.56"/>
      </g>
     </g>
     <g id="text_17">
      <!-- 20:24:34 -->
      <g transform="translate(522.248823 500.4725)rotate(-90)scale(0.1 -0.1)">
       <use xlink:href="#DejaVuSans-50"/>
       <use x="63.623047" xlink:href="#DejaVuSans-48"/>
       <use x="127.246094" xlink:href="#DejaVuSans-58"/>
       <use x="160.9375" xlink:href="#DejaVuSans-50"/>
       <use x="224.560547" xlink:href="#DejaVuSans-52"/>
       <use x="288.183594" xlink:href="#DejaVuSans-58"/>
       <use x="321.875" xlink:href="#DejaVuSans-51"/>
       <use x="385.498047" xlink:href="#DejaVuSans-52"/>
      </g>
     </g>
    </g>
    <g id="xtick_18">
     <g id="line2d_18">
      <g>
       <use style="stroke:#000000;stroke-width:0.8;" x="543.685721" xlink:href="#m4eec8b414d" y="448.56"/>
      </g>
     </g>
     <g id="text_18">
      <!-- 20:26:28 -->
      <g transform="translate(546.445096 500.4725)rotate(-90)scale(0.1 -0.1)">
       <use xlink:href="#DejaVuSans-50"/>
       <use x="63.623047" xlink:href="#DejaVuSans-48"/>
       <use x="127.246094" xlink:href="#DejaVuSans-58"/>
       <use x="160.9375" xlink:href="#DejaVuSans-50"/>
       <use x="224.560547" xlink:href="#DejaVuSans-54"/>
       <use x="288.183594" xlink:href="#DejaVuSans-58"/>
       <use x="321.875" xlink:href="#DejaVuSans-50"/>
       <use x="385.498047" xlink:href="#DejaVuSans-56"/>
      </g>
     </g>
    </g>
    <g id="xtick_19">
     <g id="line2d_19">
      <g>
       <use style="stroke:#000000;stroke-width:0.8;" x="567.881993" xlink:href="#m4eec8b414d" y="448.56"/>
      </g>
     </g>
     <g id="text_19">
      <!-- 20:28:22 -->
      <g transform="translate(570.641368 500.4725)rotate(-90)scale(0.1 -0.1)">
       <use xlink:href="#DejaVuSans-50"/>
       <use x="63.623047" xlink:href="#DejaVuSans-48"/>
       <use x="127.246094" xlink:href="#DejaVuSans-58"/>
       <use x="160.9375" xlink:href="#DejaVuSans-50"/>
       <use x="224.560547" xlink:href="#DejaVuSans-56"/>
       <use x="288.183594" xlink:href="#DejaVuSans-58"/>
       <use x="321.875" xlink:href="#DejaVuSans-50"/>
       <use x="385.498047" xlink:href="#DejaVuSans-50"/>
      </g>
     </g>
    </g>
    <g id="xtick_20">
     <g id="line2d_20">
      <g>
       <use style="stroke:#000000;stroke-width:0.8;" x="592.078266" xlink:href="#m4eec8b414d" y="448.56"/>
      </g>
     </g>
     <g id="text_20">
      <!-- 20:30:16 -->
      <g transform="translate(594.837641 500.4725)rotate(-90)scale(0.1 -0.1)">
       <use xlink:href="#DejaVuSans-50"/>
       <use x="63.623047" xlink:href="#DejaVuSans-48"/>
       <use x="127.246094" xlink:href="#DejaVuSans-58"/>
       <use x="160.9375" xlink:href="#DejaVuSans-51"/>
       <use x="224.560547" xlink:href="#DejaVuSans-48"/>
       <use x="288.183594" xlink:href="#DejaVuSans-58"/>
       <use x="321.875" xlink:href="#DejaVuSans-49"/>
       <use x="385.498047" xlink:href="#DejaVuSans-54"/>
      </g>
     </g>
    </g>
    <g id="xtick_21">
     <g id="line2d_21">
      <g>
       <use style="stroke:#000000;stroke-width:0.8;" x="616.274538" xlink:href="#m4eec8b414d" y="448.56"/>
      </g>
     </g>
     <g id="text_21">
      <!-- 20:32:10 -->
      <g transform="translate(619.033913 500.4725)rotate(-90)scale(0.1 -0.1)">
       <use xlink:href="#DejaVuSans-50"/>
       <use x="63.623047" xlink:href="#DejaVuSans-48"/>
       <use x="127.246094" xlink:href="#DejaVuSans-58"/>
       <use x="160.9375" xlink:href="#DejaVuSans-51"/>
       <use x="224.560547" xlink:href="#DejaVuSans-50"/>
       <use x="288.183594" xlink:href="#DejaVuSans-58"/>
       <use x="321.875" xlink:href="#DejaVuSans-49"/>
       <use x="385.498047" xlink:href="#DejaVuSans-48"/>
      </g>
     </g>
    </g>
    <g id="text_22">
     <!-- timestamp -->
     <g transform="translate(354.264375 510.55125)scale(0.08 -0.08)">
      <defs>
       <path d="M 18.3125 70.21875 
L 18.3125 54.6875 
L 36.8125 54.6875 
L 36.8125 47.703125 
L 18.3125 47.703125 
L 18.3125 18.015625 
Q 18.3125 11.328125 20.140625 9.421875 
Q 21.96875 7.515625 27.59375 7.515625 
L 36.8125 7.515625 
L 36.8125 0 
L 27.59375 0 
Q 17.1875 0 13.234375 3.875 
Q 9.28125 7.765625 9.28125 18.015625 
L 9.28125 47.703125 
L 2.6875 47.703125 
L 2.6875 54.6875 
L 9.28125 54.6875 
L 9.28125 70.21875 
z
" id="DejaVuSans-116"/>
       <path d="M 9.421875 54.6875 
L 18.40625 54.6875 
L 18.40625 0 
L 9.421875 0 
z
M 9.421875 75.984375 
L 18.40625 75.984375 
L 18.40625 64.59375 
L 9.421875 64.59375 
z
" id="DejaVuSans-105"/>
       <path d="M 52 44.1875 
Q 55.375 50.25 60.0625 53.125 
Q 64.75 56 71.09375 56 
Q 79.640625 56 84.28125 50.015625 
Q 88.921875 44.046875 88.921875 33.015625 
L 88.921875 0 
L 79.890625 0 
L 79.890625 32.71875 
Q 79.890625 40.578125 77.09375 44.375 
Q 74.3125 48.1875 68.609375 48.1875 
Q 61.625 48.1875 57.5625 43.546875 
Q 53.515625 38.921875 53.515625 30.90625 
L 53.515625 0 
L 44.484375 0 
L 44.484375 32.71875 
Q 44.484375 40.625 41.703125 44.40625 
Q 38.921875 48.1875 33.109375 48.1875 
Q 26.21875 48.1875 22.15625 43.53125 
Q 18.109375 38.875 18.109375 30.90625 
L 18.109375 0 
L 9.078125 0 
L 9.078125 54.6875 
L 18.109375 54.6875 
L 18.109375 46.1875 
Q 21.1875 51.21875 25.484375 53.609375 
Q 29.78125 56 35.6875 56 
Q 41.65625 56 45.828125 52.96875 
Q 50 49.953125 52 44.1875 
z
" id="DejaVuSans-109"/>
       <path d="M 56.203125 29.59375 
L 56.203125 25.203125 
L 14.890625 25.203125 
Q 15.484375 15.921875 20.484375 11.0625 
Q 25.484375 6.203125 34.421875 6.203125 
Q 39.59375 6.203125 44.453125 7.46875 
Q 49.3125 8.734375 54.109375 11.28125 
L 54.109375 2.78125 
Q 49.265625 0.734375 44.1875 -0.34375 
Q 39.109375 -1.421875 33.890625 -1.421875 
Q 20.796875 -1.421875 13.15625 6.1875 
Q 5.515625 13.8125 5.515625 26.8125 
Q 5.515625 40.234375 12.765625 48.109375 
Q 20.015625 56 32.328125 56 
Q 43.359375 56 49.78125 48.890625 
Q 56.203125 41.796875 56.203125 29.59375 
z
M 47.21875 32.234375 
Q 47.125 39.59375 43.09375 43.984375 
Q 39.0625 48.390625 32.421875 48.390625 
Q 24.90625 48.390625 20.390625 44.140625 
Q 15.875 39.890625 15.1875 32.171875 
z
" id="DejaVuSans-101"/>
       <path d="M 44.28125 53.078125 
L 44.28125 44.578125 
Q 40.484375 46.53125 36.375 47.5 
Q 32.28125 48.484375 27.875 48.484375 
Q 21.1875 48.484375 17.84375 46.4375 
Q 14.5 44.390625 14.5 40.28125 
Q 14.5 37.15625 16.890625 35.375 
Q 19.28125 33.59375 26.515625 31.984375 
L 29.59375 31.296875 
Q 39.15625 29.25 43.1875 25.515625 
Q 47.21875 21.78125 47.21875 15.09375 
Q 47.21875 7.46875 41.1875 3.015625 
Q 35.15625 -1.421875 24.609375 -1.421875 
Q 20.21875 -1.421875 15.453125 -0.5625 
Q 10.6875 0.296875 5.421875 2 
L 5.421875 11.28125 
Q 10.40625 8.6875 15.234375 7.390625 
Q 20.0625 6.109375 24.8125 6.109375 
Q 31.15625 6.109375 34.5625 8.28125 
Q 37.984375 10.453125 37.984375 14.40625 
Q 37.984375 18.0625 35.515625 20.015625 
Q 33.0625 21.96875 24.703125 23.78125 
L 21.578125 24.515625 
Q 13.234375 26.265625 9.515625 29.90625 
Q 5.8125 33.546875 5.8125 39.890625 
Q 5.8125 47.609375 11.28125 51.796875 
Q 16.75 56 26.8125 56 
Q 31.78125 56 36.171875 55.265625 
Q 40.578125 54.546875 44.28125 53.078125 
z
" id="DejaVuSans-115"/>
       <path d="M 34.28125 27.484375 
Q 23.390625 27.484375 19.1875 25 
Q 14.984375 22.515625 14.984375 16.5 
Q 14.984375 11.71875 18.140625 8.90625 
Q 21.296875 6.109375 26.703125 6.109375 
Q 34.1875 6.109375 38.703125 11.40625 
Q 43.21875 16.703125 43.21875 25.484375 
L 43.21875 27.484375 
z
M 52.203125 31.203125 
L 52.203125 0 
L 43.21875 0 
L 43.21875 8.296875 
Q 40.140625 3.328125 35.546875 0.953125 
Q 30.953125 -1.421875 24.3125 -1.421875 
Q 15.921875 -1.421875 10.953125 3.296875 
Q 6 8.015625 6 15.921875 
Q 6 25.140625 12.171875 29.828125 
Q 18.359375 34.515625 30.609375 34.515625 
L 43.21875 34.515625 
L 43.21875 35.40625 
Q 43.21875 41.609375 39.140625 45 
Q 35.0625 48.390625 27.6875 48.390625 
Q 23 48.390625 18.546875 47.265625 
Q 14.109375 46.140625 10.015625 43.890625 
L 10.015625 52.203125 
Q 14.9375 54.109375 19.578125 55.046875 
Q 24.21875 56 28.609375 56 
Q 40.484375 56 46.34375 49.84375 
Q 52.203125 43.703125 52.203125 31.203125 
z
" id="DejaVuSans-97"/>
       <path d="M 18.109375 8.203125 
L 18.109375 -20.796875 
L 9.078125 -20.796875 
L 9.078125 54.6875 
L 18.109375 54.6875 
L 18.109375 46.390625 
Q 20.953125 51.265625 25.265625 53.625 
Q 29.59375 56 35.59375 56 
Q 45.5625 56 51.78125 48.09375 
Q 58.015625 40.1875 58.015625 27.296875 
Q 58.015625 14.40625 51.78125 6.484375 
Q 45.5625 -1.421875 35.59375 -1.421875 
Q 29.59375 -1.421875 25.265625 0.953125 
Q 20.953125 3.328125 18.109375 8.203125 
z
M 48.6875 27.296875 
Q 48.6875 37.203125 44.609375 42.84375 
Q 40.53125 48.484375 33.40625 48.484375 
Q 26.265625 48.484375 22.1875 42.84375 
Q 18.109375 37.203125 18.109375 27.296875 
Q 18.109375 17.390625 22.1875 11.75 
Q 26.265625 6.109375 33.40625 6.109375 
Q 40.53125 6.109375 44.609375 11.75 
Q 48.6875 17.390625 48.6875 27.296875 
z
" id="DejaVuSans-112"/>
      </defs>
      <use xlink:href="#DejaVuSans-116"/>
      <use x="39.208984" xlink:href="#DejaVuSans-105"/>
      <use x="66.992188" xlink:href="#DejaVuSans-109"/>
      <use x="164.404297" xlink:href="#DejaVuSans-101"/>
      <use x="225.927734" xlink:href="#DejaVuSans-115"/>
      <use x="278.027344" xlink:href="#DejaVuSans-116"/>
      <use x="317.236328" xlink:href="#DejaVuSans-97"/>
      <use x="378.515625" xlink:href="#DejaVuSans-109"/>
      <use x="475.927734" xlink:href="#DejaVuSans-112"/>
     </g>
    </g>
   </g>
   <g id="matplotlib.axis_2">
    <g id="ytick_1">
     <g id="line2d_22">
      <defs>
       <path d="M 0 0 
L -3.5 0 
" id="mbf05696988" style="stroke:#000000;stroke-width:0.8;"/>
      </defs>
      <g>
       <use style="stroke:#000000;stroke-width:0.8;" x="108" xlink:href="#mbf05696988" y="429.5056"/>
      </g>
     </g>
     <g id="text_23">
      <!-- 11200 -->
      <g transform="translate(69.1875 433.304818)scale(0.1 -0.1)">
       <use xlink:href="#DejaVuSans-49"/>
       <use x="63.623047" xlink:href="#DejaVuSans-49"/>
       <use x="127.246094" xlink:href="#DejaVuSans-50"/>
       <use x="190.869141" xlink:href="#DejaVuSans-48"/>
       <use x="254.492188" xlink:href="#DejaVuSans-48"/>
      </g>
     </g>
    </g>
    <g id="ytick_2">
     <g id="line2d_23">
      <g>
       <use style="stroke:#000000;stroke-width:0.8;" x="108" xlink:href="#mbf05696988" y="385.905529"/>
      </g>
     </g>
     <g id="text_24">
      <!-- 11400 -->
      <g transform="translate(69.1875 389.704747)scale(0.1 -0.1)">
       <use xlink:href="#DejaVuSans-49"/>
       <use x="63.623047" xlink:href="#DejaVuSans-49"/>
       <use x="127.246094" xlink:href="#DejaVuSans-52"/>
       <use x="190.869141" xlink:href="#DejaVuSans-48"/>
       <use x="254.492188" xlink:href="#DejaVuSans-48"/>
      </g>
     </g>
    </g>
    <g id="ytick_3">
     <g id="line2d_24">
      <g>
       <use style="stroke:#000000;stroke-width:0.8;" x="108" xlink:href="#mbf05696988" y="342.305457"/>
      </g>
     </g>
     <g id="text_25">
      <!-- 11600 -->
      <g transform="translate(69.1875 346.104676)scale(0.1 -0.1)">
       <use xlink:href="#DejaVuSans-49"/>
       <use x="63.623047" xlink:href="#DejaVuSans-49"/>
       <use x="127.246094" xlink:href="#DejaVuSans-54"/>
       <use x="190.869141" xlink:href="#DejaVuSans-48"/>
       <use x="254.492188" xlink:href="#DejaVuSans-48"/>
      </g>
     </g>
    </g>
    <g id="ytick_4">
     <g id="line2d_25">
      <g>
       <use style="stroke:#000000;stroke-width:0.8;" x="108" xlink:href="#mbf05696988" y="298.705386"/>
      </g>
     </g>
     <g id="text_26">
      <!-- 11800 -->
      <g transform="translate(69.1875 302.504605)scale(0.1 -0.1)">
       <use xlink:href="#DejaVuSans-49"/>
       <use x="63.623047" xlink:href="#DejaVuSans-49"/>
       <use x="127.246094" xlink:href="#DejaVuSans-56"/>
       <use x="190.869141" xlink:href="#DejaVuSans-48"/>
       <use x="254.492188" xlink:href="#DejaVuSans-48"/>
      </g>
     </g>
    </g>
    <g id="ytick_5">
     <g id="line2d_26">
      <g>
       <use style="stroke:#000000;stroke-width:0.8;" x="108" xlink:href="#mbf05696988" y="255.105315"/>
      </g>
     </g>
     <g id="text_27">
      <!-- 12000 -->
      <g transform="translate(69.1875 258.904534)scale(0.1 -0.1)">
       <use xlink:href="#DejaVuSans-49"/>
       <use x="63.623047" xlink:href="#DejaVuSans-50"/>
       <use x="127.246094" xlink:href="#DejaVuSans-48"/>
       <use x="190.869141" xlink:href="#DejaVuSans-48"/>
       <use x="254.492188" xlink:href="#DejaVuSans-48"/>
      </g>
     </g>
    </g>
    <g id="ytick_6">
     <g id="line2d_27">
      <g>
       <use style="stroke:#000000;stroke-width:0.8;" x="108" xlink:href="#mbf05696988" y="211.505244"/>
      </g>
     </g>
     <g id="text_28">
      <!-- 12200 -->
      <g transform="translate(69.1875 215.304463)scale(0.1 -0.1)">
       <use xlink:href="#DejaVuSans-49"/>
       <use x="63.623047" xlink:href="#DejaVuSans-50"/>
       <use x="127.246094" xlink:href="#DejaVuSans-50"/>
       <use x="190.869141" xlink:href="#DejaVuSans-48"/>
       <use x="254.492188" xlink:href="#DejaVuSans-48"/>
      </g>
     </g>
    </g>
    <g id="ytick_7">
     <g id="line2d_28">
      <g>
       <use style="stroke:#000000;stroke-width:0.8;" x="108" xlink:href="#mbf05696988" y="167.905173"/>
      </g>
     </g>
     <g id="text_29">
      <!-- 12400 -->
      <g transform="translate(69.1875 171.704392)scale(0.1 -0.1)">
       <use xlink:href="#DejaVuSans-49"/>
       <use x="63.623047" xlink:href="#DejaVuSans-50"/>
       <use x="127.246094" xlink:href="#DejaVuSans-52"/>
       <use x="190.869141" xlink:href="#DejaVuSans-48"/>
       <use x="254.492188" xlink:href="#DejaVuSans-48"/>
      </g>
     </g>
    </g>
    <g id="ytick_8">
     <g id="line2d_29">
      <g>
       <use style="stroke:#000000;stroke-width:0.8;" x="108" xlink:href="#mbf05696988" y="124.305102"/>
      </g>
     </g>
     <g id="text_30">
      <!-- 12600 -->
      <g transform="translate(69.1875 128.104321)scale(0.1 -0.1)">
       <use xlink:href="#DejaVuSans-49"/>
       <use x="63.623047" xlink:href="#DejaVuSans-50"/>
       <use x="127.246094" xlink:href="#DejaVuSans-54"/>
       <use x="190.869141" xlink:href="#DejaVuSans-48"/>
       <use x="254.492188" xlink:href="#DejaVuSans-48"/>
      </g>
     </g>
    </g>
    <g id="ytick_9">
     <g id="line2d_30">
      <g>
       <use style="stroke:#000000;stroke-width:0.8;" x="108" xlink:href="#mbf05696988" y="80.705031"/>
      </g>
     </g>
     <g id="text_31">
      <!-- 12800 -->
      <g transform="translate(69.1875 84.50425)scale(0.1 -0.1)">
       <use xlink:href="#DejaVuSans-49"/>
       <use x="63.623047" xlink:href="#DejaVuSans-50"/>
       <use x="127.246094" xlink:href="#DejaVuSans-56"/>
       <use x="190.869141" xlink:href="#DejaVuSans-48"/>
       <use x="254.492188" xlink:href="#DejaVuSans-48"/>
      </g>
     </g>
    </g>
    <g id="text_32">
     <!-- MB -->
     <g transform="translate(63.52375 260.715625)rotate(-90)scale(0.08 -0.08)">
      <defs>
       <path d="M 9.8125 72.90625 
L 24.515625 72.90625 
L 43.109375 23.296875 
L 61.8125 72.90625 
L 76.515625 72.90625 
L 76.515625 0 
L 66.890625 0 
L 66.890625 64.015625 
L 48.09375 14.015625 
L 38.1875 14.015625 
L 19.390625 64.015625 
L 19.390625 0 
L 9.8125 0 
z
" id="DejaVuSans-77"/>
       <path d="M 19.671875 34.8125 
L 19.671875 8.109375 
L 35.5 8.109375 
Q 43.453125 8.109375 47.28125 11.40625 
Q 51.125 14.703125 51.125 21.484375 
Q 51.125 28.328125 47.28125 31.5625 
Q 43.453125 34.8125 35.5 34.8125 
z
M 19.671875 64.796875 
L 19.671875 42.828125 
L 34.28125 42.828125 
Q 41.5 42.828125 45.03125 45.53125 
Q 48.578125 48.25 48.578125 53.8125 
Q 48.578125 59.328125 45.03125 62.0625 
Q 41.5 64.796875 34.28125 64.796875 
z
M 9.8125 72.90625 
L 35.015625 72.90625 
Q 46.296875 72.90625 52.390625 68.21875 
Q 58.5 63.53125 58.5 54.890625 
Q 58.5 48.1875 55.375 44.234375 
Q 52.25 40.28125 46.1875 39.3125 
Q 53.46875 37.75 57.5 32.78125 
Q 61.53125 27.828125 61.53125 20.40625 
Q 61.53125 10.640625 54.890625 5.3125 
Q 48.25 0 35.984375 0 
L 9.8125 0 
z
" id="DejaVuSans-66"/>
      </defs>
      <use xlink:href="#DejaVuSans-77"/>
      <use x="86.279297" xlink:href="#DejaVuSans-66"/>
     </g>
    </g>
   </g>
   <g id="line2d_31">
    <path clip-path="url(#p0caaa6048e)" d="M 132.349091 78.688796 
L 132.603789 79.259378 
L 132.858486 79.524578 
L 133.367881 78.15661 
L 133.622579 78.949531 
L 133.877277 79.187051 
L 134.131974 79.187944 
L 134.386672 78.416453 
L 134.641369 78.301265 
L 134.896067 79.804065 
L 135.405462 79.495111 
L 135.66016 78.12 
L 135.914857 78.691475 
L 136.169555 80.079087 
L 136.424253 80.298748 
L 136.67895 79.871035 
L 136.933648 82.000671 
L 137.443043 109.193945 
L 137.697741 144.489661 
L 137.952438 158.978334 
L 138.207136 181.251566 
L 138.461833 227.432985 
L 139.480624 303.383779 
L 139.735321 325.862385 
L 139.990019 362.457313 
L 140.244717 375.51462 
L 140.499414 395.403731 
L 140.754112 399.92999 
L 141.008809 400.530039 
L 141.263507 399.203146 
L 141.518205 399.428164 
L 141.772902 399.994281 
L 142.0276 401.836395 
L 142.282297 404.606262 
L 142.536995 405.325963 
L 142.791693 404.672339 
L 143.301088 404.24284 
L 143.555785 403.613324 
L 143.810483 405.087551 
L 144.065181 405.531337 
L 144.574576 403.951745 
L 144.829273 406.355511 
L 145.083971 406.928771 
L 145.338669 406.915377 
L 145.593366 407.136824 
L 145.848064 406.647499 
L 146.102762 409.731677 
L 146.357459 409.65042 
L 146.612157 409.755786 
L 146.866854 411.611293 
L 147.37625 412.71674 
L 147.630947 412.706025 
L 147.885645 409.682566 
L 148.140342 410.394231 
L 148.39504 409.74775 
L 148.649738 408.123511 
L 148.904435 407.875277 
L 149.159133 407.801163 
L 149.41383 410.198679 
L 149.668528 409.903119 
L 149.923226 409.98259 
L 150.177923 409.453083 
L 150.432621 409.326287 
L 150.687318 410.188857 
L 150.942016 410.109386 
L 151.196714 412.139908 
L 151.451411 410.507633 
L 151.706109 412.589944 
L 152.215504 412.223843 
L 152.470202 411.471996 
L 152.979597 412.697096 
L 153.234294 412.486364 
L 153.488992 411.907746 
L 153.74369 412.01579 
L 153.998387 412.375641 
L 154.253085 412.3051 
L 154.507782 411.482712 
L 154.76248 411.509499 
L 155.017178 411.188045 
L 155.271875 410.615677 
L 155.526573 410.523705 
L 155.78127 409.548626 
L 156.290666 411.910425 
L 156.545363 411.989003 
L 157.054758 411.32377 
L 157.309456 412.165803 
L 157.564154 412.087225 
L 157.818851 411.855956 
L 158.073549 411.290732 
L 158.582944 413.006049 
L 158.837642 412.723884 
L 159.092339 412.79889 
L 159.347037 411.838098 
L 159.601734 412.585479 
L 159.856432 412.388142 
L 160.365827 411.02196 
L 160.620525 411.437172 
L 160.875223 411.266623 
L 161.12992 411.359487 
L 161.384618 410.279936 
L 161.639315 411.447887 
L 161.894013 413.873977 
L 162.148711 412.586372 
L 162.658106 411.358594 
L 162.912803 411.124647 
L 163.167501 411.747019 
L 163.422199 411.693443 
L 163.676896 410.913916 
L 164.186291 412.814962 
L 164.695687 412.236344 
L 164.950384 411.907746 
L 165.205082 412.140801 
L 165.459779 411.663083 
L 165.714477 411.672013 
L 165.969175 411.059463 
L 166.223872 411.063928 
L 166.47857 412.018469 
L 166.733267 411.955964 
L 166.987965 411.60415 
L 167.242663 410.030808 
L 167.49736 411.208582 
L 167.752058 411.568433 
L 168.006755 411.603257 
L 168.261453 410.658538 
L 168.770848 411.996146 
L 169.025546 412.116692 
L 169.280243 411.132683 
L 169.534941 411.65594 
L 169.789639 412.968546 
L 170.044336 413.109629 
L 170.299034 412.726562 
L 170.553731 412.108655 
L 170.808429 412.973011 
L 171.317824 411.65594 
L 171.572522 411.333592 
L 171.827219 411.797916 
L 172.081917 411.597899 
L 172.336615 411.781843 
L 172.591312 411.259479 
L 172.84601 411.62558 
L 173.100707 412.456898 
L 173.355405 412.506009 
L 173.8648 411.143398 
L 174.119498 412.458683 
L 174.374196 412.189912 
L 174.628893 412.5703 
L 174.883591 411.784522 
L 175.392986 414.19186 
L 175.902381 413.915944 
L 176.157079 413.405189 
L 176.411776 414.113282 
L 176.666474 414.254365 
L 176.921172 413.718607 
L 177.175869 412.164017 
L 177.685264 413.254284 
L 177.939962 412.823892 
L 178.19466 411.855063 
L 178.449357 411.860421 
L 178.704055 413.496268 
L 178.958752 416.346498 
L 179.21345 416.308995 
L 179.468148 415.505359 
L 179.722845 413.845403 
L 180.23224 413.148025 
L 180.486938 411.900603 
L 180.741636 412.447968 
L 180.996333 416.25542 
L 181.251031 416.397395 
L 181.505728 413.535556 
L 181.760426 413.015871 
L 182.015124 414.817803 
L 182.269821 414.142748 
L 182.524519 414.034704 
L 182.779216 412.976583 
L 183.033914 413.178385 
L 183.288612 413.075698 
L 183.543309 412.567621 
L 183.798007 411.664869 
L 184.307402 413.920409 
L 184.5621 413.653423 
L 184.816797 413.63735 
L 185.071495 413.02748 
L 185.835588 413.782898 
L 186.090285 413.107843 
L 186.59968 414.844591 
L 187.109076 414.54546 
L 187.363773 413.763253 
L 187.618471 414.438308 
L 187.873169 413.554308 
L 188.127866 411.747019 
L 188.637261 412.617625 
L 188.891959 412.557799 
L 189.146657 412.276526 
L 189.401354 412.407787 
L 189.656052 411.522 
L 189.910749 414.70708 
L 190.165447 413.81415 
L 190.420145 413.710571 
L 190.674842 412.973011 
L 190.92954 413.278393 
L 191.184237 414.144534 
L 191.438935 413.86594 
L 191.693633 413.123023 
L 191.94833 414.136498 
L 192.203028 414.251686 
L 192.457725 413.997201 
L 192.967121 412.491722 
L 193.221818 412.642627 
L 193.476516 413.681104 
L 193.731213 414.148106 
L 193.985911 412.948009 
L 194.240609 413.648958 
L 194.495306 413.10695 
L 194.750004 413.042659 
L 195.004701 412.82032 
L 195.259399 412.357782 
L 195.514097 414.043633 
L 195.768794 414.240971 
L 196.023492 413.840045 
L 196.278189 413.140882 
L 196.787585 413.991843 
L 197.042282 413.817722 
L 197.29698 414.061492 
L 197.551677 413.481088 
L 198.061073 413.598954 
L 198.31577 413.14356 
L 198.570468 413.025694 
L 198.825165 413.235532 
L 199.079863 413.590918 
L 199.334561 413.612348 
L 199.589258 412.927471 
L 199.843956 413.562344 
L 200.098653 415.096397 
L 200.353351 415.470535 
L 200.862746 413.838259 
L 201.117444 414.435629 
L 201.372141 414.569569 
L 201.626839 414.372231 
L 201.881537 413.752538 
L 202.136234 414.257043 
L 202.390932 414.328478 
L 202.64563 413.927552 
L 203.155025 412.634591 
L 203.409722 414.673149 
L 203.66442 414.470454 
L 203.919118 414.494563 
L 204.173815 413.418583 
L 204.428513 413.876655 
L 204.68321 414.885666 
L 204.937908 414.44188 
L 205.192606 413.448049 
L 205.702001 415.055322 
L 206.466094 414.095423 
L 206.720791 414.09453 
L 206.975489 414.291868 
L 207.230186 414.037383 
L 207.739582 412.803354 
L 207.994279 413.994522 
L 208.248977 414.125783 
L 208.503674 412.763172 
L 208.758372 413.382865 
L 209.01307 414.763334 
L 209.267767 414.666005 
L 209.522465 414.239185 
L 209.777162 413.474837 
L 210.03186 413.601633 
L 210.286558 414.387411 
L 210.541255 414.572248 
L 211.05065 417.893945 
L 211.305348 417.448373 
L 211.560046 415.157116 
L 211.814743 414.997282 
L 212.069441 413.914159 
L 212.324138 415.597331 
L 212.833534 414.483847 
L 213.088231 413.565023 
L 213.342929 413.976664 
L 213.597626 414.682078 
L 213.852324 414.84727 
L 214.361719 414.035597 
L 214.871114 414.28651 
L 215.125812 414.311512 
L 215.38051 413.394474 
L 215.635207 413.529306 
L 215.889905 414.565997 
L 216.144603 414.404377 
L 216.3993 413.46055 
L 216.653998 414.486526 
L 216.908695 413.913266 
L 217.418091 412.291706 
L 217.672788 411.497891 
L 217.927486 413.582882 
L 218.182183 413.498053 
L 218.691579 412.556906 
L 218.946276 412.553334 
L 219.200974 413.370364 
L 219.710369 413.324825 
L 219.965067 412.560477 
L 220.219764 414.1615 
L 220.474462 414.018631 
L 220.729159 414.012381 
L 220.983857 413.054267 
L 221.493252 414.434736 
L 221.74795 414.212397 
L 222.002647 413.409653 
L 222.257345 413.499839 
L 222.76674 412.377427 
L 223.021438 412.771209 
L 223.276135 412.379213 
L 223.530833 413.973985 
L 223.785531 413.960591 
L 224.040228 414.19186 
L 224.294926 413.431977 
L 224.549623 413.318575 
L 225.059019 413.656995 
L 225.313716 413.588239 
L 225.568414 412.90872 
L 225.823111 414.194538 
L 226.332507 413.842724 
L 226.587204 412.848894 
L 226.841902 414.111496 
L 227.096599 414.017738 
L 227.605995 412.619411 
L 227.860692 412.758708 
L 228.11539 413.624849 
L 228.370087 413.56413 
L 228.879483 412.34796 
L 229.13418 412.705132 
L 229.388878 414.653504 
L 229.643576 414.632967 
L 229.898273 413.481981 
L 230.407668 414.446344 
L 230.917064 414.269544 
L 231.171761 413.759682 
L 231.426459 414.419557 
L 231.681156 413.825758 
L 231.935854 414.012381 
L 232.190552 413.361435 
L 232.445249 413.355185 
L 232.699947 414.524922 
L 233.209342 414.599928 
L 233.46404 413.356078 
L 233.718737 417.226927 
L 233.973435 417.479626 
L 234.228132 417.232284 
L 234.48283 416.801892 
L 234.737528 413.732001 
L 234.992225 414.927633 
L 235.246923 414.247221 
L 235.50162 412.928364 
L 236.011016 414.388304 
L 236.265713 414.509742 
L 236.520411 414.115961 
L 236.775108 413.352506 
L 237.029806 414.077565 
L 237.284504 414.369553 
L 237.539201 413.973985 
L 237.793899 413.832009 
L 238.048596 413.900765 
L 238.303294 414.915132 
L 238.557992 414.689221 
L 238.812689 413.155168 
L 239.067387 413.23196 
L 239.322084 414.058813 
L 239.576782 413.997201 
L 239.83148 413.778433 
L 240.086177 413.224817 
L 240.340875 414.472239 
L 240.595572 414.829411 
L 240.85027 414.581177 
L 241.104968 413.741823 
L 241.614363 415.29552 
L 241.86906 415.038357 
L 242.123758 415.144615 
L 242.378456 414.147213 
L 242.633153 418.271654 
L 242.887851 418.09664 
L 243.142548 416.402753 
L 243.397246 416.267921 
L 243.651944 414.386518 
L 243.906641 415.266054 
L 244.416037 414.215969 
L 244.925432 419.404782 
L 245.180129 416.421504 
L 245.434827 416.083084 
L 245.689525 415.534825 
L 246.19892 413.54895 
L 246.453617 413.103379 
L 246.708315 413.223924 
L 246.963013 413.174813 
L 247.21771 414.026668 
L 247.727105 414.190967 
L 247.981803 413.187314 
L 248.236501 415.148187 
L 248.491198 415.140151 
L 249.000593 413.833795 
L 249.255291 414.23472 
L 249.509989 415.016926 
L 249.764686 414.714223 
L 250.019384 413.971306 
L 250.274081 414.592785 
L 250.528779 414.918704 
L 250.783477 414.937456 
L 251.038174 414.266866 
L 251.292872 414.319548 
L 251.547569 415.011569 
L 251.802267 415.247302 
L 252.056965 415.174082 
L 252.311662 413.887371 
L 252.56636 413.988272 
L 252.821057 414.335621 
L 253.075755 414.299904 
L 253.330453 414.066849 
L 253.58515 413.647173 
L 253.839848 415.30445 
L 254.349243 415.108898 
L 254.603941 414.254365 
L 255.113336 415.573221 
L 255.368033 415.339274 
L 255.622731 414.677613 
L 255.877429 415.401779 
L 256.132126 415.171403 
L 256.386824 415.364276 
L 256.641521 415.069609 
L 256.896219 413.647173 
L 257.150917 413.255177 
L 257.405614 414.927633 
L 257.91501 413.592704 
L 258.169707 414.328478 
L 258.424405 414.583856 
L 258.679102 414.49992 
L 258.9338 414.627609 
L 259.188498 414.028453 
L 259.443195 415.188369 
L 259.697893 415.128543 
L 259.95259 414.886559 
L 260.207288 414.066849 
L 260.716683 414.891023 
L 260.971381 415.00264 
L 261.226078 413.322146 
L 261.735474 414.919597 
L 262.244869 414.665112 
L 262.499566 414.187395 
L 262.754264 416.1063 
L 263.008962 415.217836 
L 263.263659 415.244623 
L 263.518357 414.632967 
L 263.773054 414.757977 
L 264.027752 415.215157 
L 264.537147 415.140151 
L 264.791845 414.356159 
L 265.046542 416.424183 
L 265.30124 416.532228 
L 265.810635 415.204442 
L 266.065333 415.058894 
L 266.32003 415.985755 
L 266.574728 415.965217 
L 266.829426 414.616001 
L 267.084123 414.313298 
L 267.338821 414.991031 
L 267.593518 415.010676 
L 267.848216 413.757896 
L 268.102914 413.212316 
L 268.357611 415.160688 
L 268.612309 415.409815 
L 269.121704 414.644575 
L 269.376402 414.844591 
L 269.631099 415.587508 
L 269.885797 415.479464 
L 270.140494 414.995496 
L 270.395192 414.833876 
L 270.64989 415.855387 
L 270.904587 415.629476 
L 271.159285 415.786632 
L 271.413983 414.906203 
L 271.66868 415.256231 
L 271.923378 415.837529 
L 272.178075 415.685731 
L 272.432773 414.874058 
L 272.687471 415.497322 
L 272.942168 414.976745 
L 273.451563 415.105326 
L 273.706261 413.743609 
L 273.960959 415.415173 
L 274.215656 416.027723 
L 274.470354 419.037788 
L 274.725051 417.84662 
L 274.979749 418.255582 
L 275.489144 416.392038 
L 275.743842 416.226846 
L 275.998539 415.134793 
L 276.253237 416.258991 
L 276.507935 416.08487 
L 276.762632 415.771452 
L 277.01733 415.264268 
L 277.272027 415.508038 
L 277.526725 416.331319 
L 277.781423 416.659917 
L 278.03612 415.636619 
L 278.290818 416.284886 
L 278.545515 415.583044 
L 279.054911 414.882987 
L 279.309608 414.272223 
L 279.564306 415.880389 
L 279.819003 415.432139 
L 280.073701 414.016845 
L 280.328399 414.223112 
L 280.583096 414.664219 
L 280.837794 415.764308 
L 281.092491 415.265161 
L 281.347189 415.326773 
L 281.601887 414.56689 
L 281.856584 417.157278 
L 282.111282 416.984943 
L 282.365979 417.047448 
L 282.620677 415.885747 
L 282.875375 415.875032 
L 283.130072 416.191129 
L 283.38477 416.132195 
L 283.639467 415.296413 
L 283.894165 415.820563 
L 284.148863 416.066118 
L 284.658258 414.827625 
L 284.912955 414.774942 
L 285.167653 415.888426 
L 285.422351 416.042009 
L 285.931746 414.331157 
L 286.186444 414.984781 
L 286.441141 416.863504 
L 286.950536 417.071557 
L 287.205234 415.646442 
L 287.459932 416.616163 
L 287.714629 416.938511 
L 287.969327 416.885828 
L 288.224024 416.559016 
L 288.478722 415.98129 
L 288.73342 417.104595 
L 288.988117 416.662595 
L 289.242815 416.903686 
L 289.497512 415.884854 
L 289.75221 417.198353 
L 290.261605 417.500163 
L 290.516303 416.728672 
L 290.771 416.514369 
L 291.025698 418.171646 
L 291.280396 417.860014 
L 291.535093 417.066199 
L 291.789791 414.688328 
L 292.299186 415.498215 
L 292.553884 415.667872 
L 292.808581 414.671363 
L 293.063279 415.494644 
L 293.317976 415.720555 
L 293.572674 415.474999 
L 293.827372 414.617787 
L 294.336767 416.467937 
L 294.846162 416.244704 
L 295.10086 415.727698 
L 295.355557 416.1947 
L 295.610255 416.18845 
L 295.864952 416.333997 
L 296.11965 415.148187 
L 296.374348 415.93843 
L 296.883743 415.88664 
L 297.13844 415.101755 
L 297.393138 413.875763 
L 297.647836 414.682971 
L 298.157231 415.11247 
L 298.411928 414.394555 
L 298.666626 415.098183 
L 298.921324 416.398288 
L 299.176021 416.329533 
L 299.430719 414.906203 
L 299.940114 416.978692 
L 300.194812 416.742959 
L 300.704207 415.705375 
L 300.958905 417.042983 
L 301.213602 415.228551 
L 301.4683 414.932991 
L 301.722997 415.067823 
L 301.977695 415.898248 
L 302.741788 416.131302 
L 302.996485 415.89289 
L 303.251183 417.53588 
L 303.505881 417.590349 
L 303.760578 417.364438 
L 304.015276 416.099157 
L 304.269973 416.395609 
L 304.524671 417.081379 
L 304.779369 416.827787 
L 305.034066 415.991112 
L 305.543461 418.327016 
L 305.798159 418.152895 
L 306.052857 418.138608 
L 306.307554 420.097695 
L 306.562252 420.186095 
L 307.071647 420.619166 
L 307.326345 417.756434 
L 307.581042 417.342115 
L 307.83574 417.438551 
L 308.090437 416.561694 
L 308.345135 418.966353 
L 308.599833 418.669901 
L 308.85453 421.475485 
L 309.109228 420.377182 
L 309.363925 417.61803 
L 309.618623 416.845646 
L 309.873321 417.246571 
L 310.128018 417.41087 
L 310.382716 417.275145 
L 310.637413 416.815286 
L 310.892111 416.817965 
L 311.146809 418.09664 
L 311.401506 418.466313 
L 311.656204 418.242188 
L 311.910901 417.151921 
L 312.165599 418.091282 
L 312.420297 417.698394 
L 312.674994 418.018062 
L 312.929692 416.305424 
L 313.18439 416.869755 
L 313.693785 418.31005 
L 313.948482 418.162717 
L 314.20318 417.428729 
L 314.967273 417.612672 
L 315.22197 416.649201 
L 315.476668 416.974228 
L 315.731366 417.885909 
L 315.986063 417.836798 
L 316.240761 417.015303 
L 316.495458 417.75822 
L 316.750156 417.966272 
L 317.004854 417.91984 
L 317.259551 417.759113 
L 317.514249 416.550979 
L 317.768946 418.268083 
L 318.023644 418.94403 
L 318.278342 418.567214 
L 318.533039 417.277824 
L 318.787737 417.62428 
L 319.297132 418.939565 
L 319.55183 418.089497 
L 319.806527 417.675177 
L 320.061225 417.991274 
L 320.315922 417.7734 
L 320.57062 417.784115 
L 320.825318 417.288539 
L 321.080015 418.247545 
L 321.334713 418.520782 
L 321.58941 418.107355 
L 321.844108 417.393905 
L 322.098806 418.137715 
L 322.353503 418.306478 
L 322.608201 417.850192 
L 322.862898 417.897517 
L 323.117596 417.254608 
L 323.372294 417.353723 
L 323.626991 418.005561 
L 323.881689 418.211828 
L 324.136386 417.595707 
L 324.391084 418.138608 
L 324.645782 418.969032 
L 324.900479 418.909206 
L 325.155177 419.119937 
L 325.409874 418.369876 
L 325.664572 418.380592 
L 325.91927 418.274333 
L 326.173967 418.028777 
L 326.428665 417.295682 
L 326.93806 418.898491 
L 327.192758 418.821699 
L 327.447455 417.565347 
L 327.702153 418.314515 
L 327.956851 418.515424 
L 328.211548 418.220757 
L 328.466246 418.365412 
L 328.720943 418.089497 
L 328.975641 418.912778 
L 329.230339 418.405594 
L 329.485036 418.418095 
L 329.739734 417.686785 
L 330.249129 418.863666 
L 330.503827 418.75205 
L 330.758524 417.598385 
L 331.267919 419.226196 
L 331.522617 419.258341 
L 331.777315 419.082434 
L 332.032012 418.394879 
L 332.541407 418.947602 
L 332.796105 419.101186 
L 333.050803 418.411844 
L 333.3055 418.475242 
L 333.560198 419.100293 
L 333.814895 419.07797 
L 334.069593 418.810091 
L 334.324291 418.118963 
L 334.578988 418.138608 
L 335.088383 418.535068 
L 335.343081 417.360866 
L 335.597779 417.452838 
L 335.852476 418.733299 
L 336.107174 418.333266 
L 336.361871 417.386761 
L 336.616569 417.959129 
L 337.125964 417.598385 
L 337.380662 417.748398 
L 337.635359 416.980478 
L 338.144755 421.340653 
L 338.399452 421.439768 
L 338.65415 420.770071 
L 338.908847 418.771695 
L 339.418243 418.514531 
L 339.67294 416.487581 
L 340.182335 418.342196 
L 340.691731 418.202899 
L 340.946428 417.850192 
L 341.201126 418.559178 
L 341.710521 418.264511 
L 341.965219 417.251929 
L 342.219916 418.424345 
L 342.474614 418.319872 
L 342.729312 417.88323 
L 342.984009 418.037707 
L 343.238707 417.159064 
L 343.493404 419.219052 
L 344.257497 416.66081 
L 344.512195 417.243892 
L 344.766892 418.58418 
L 345.02159 418.802054 
L 345.276288 417.522486 
L 345.530985 417.19121 
L 345.785683 419.561044 
L 346.04038 418.755622 
L 346.295078 418.322551 
L 346.549776 417.516236 
L 347.059171 418.458277 
L 347.313868 418.209149 
L 347.568566 417.80108 
L 347.823264 418.214507 
L 348.077961 417.974309 
L 348.332659 417.283181 
L 348.587356 417.136741 
L 348.842054 416.083977 
L 349.096752 417.97788 
L 349.606147 417.851084 
L 349.860844 417.179602 
L 350.115542 417.414442 
L 350.37024 418.265404 
L 350.624937 418.617218 
L 350.879635 417.473375 
L 351.134332 418.438632 
L 351.898425 419.068147 
L 352.153123 418.027885 
L 352.40782 418.795804 
L 352.662518 419.161012 
L 352.917216 418.792232 
L 353.171913 417.909125 
L 353.426611 418.566321 
L 353.681308 418.757408 
L 353.936006 418.142179 
L 354.190704 418.234151 
L 354.445401 417.684107 
L 354.700099 417.772507 
L 355.209494 417.518915 
L 355.464192 416.955476 
L 355.718889 417.844834 
L 355.973587 419.144046 
L 356.228285 418.823485 
L 356.482982 417.97163 
L 356.992377 419.673553 
L 357.501773 419.20298 
L 357.75647 418.547569 
L 358.011168 420.56559 
L 358.265865 419.966434 
L 358.520563 420.028939 
L 358.775261 419.446749 
L 359.029958 419.757489 
L 359.284656 420.323606 
L 359.794051 418.921707 
L 360.048749 419.415497 
L 360.812841 419.028858 
L 361.322237 421.715683 
L 361.576934 422.34252 
L 361.831632 422.29698 
L 362.086329 419.449428 
L 362.341027 420.116447 
L 362.595725 420.304855 
L 362.850422 420.039655 
L 363.359817 419.293166 
L 363.614515 421.246002 
L 364.12391 421.629962 
L 364.378608 420.597735 
L 364.633305 420.496834 
L 364.888003 421.25136 
L 365.142701 421.352261 
L 365.652096 420.04144 
L 365.906793 420.101267 
L 366.416189 420.474511 
L 366.670886 419.537828 
L 367.180281 421.421909 
L 367.434979 421.393336 
L 367.689677 420.886152 
L 368.199072 421.300471 
L 368.453769 421.066523 
L 368.708467 421.109384 
L 368.963165 420.19056 
L 369.217862 421.304043 
L 369.47256 421.119206 
L 369.727258 421.16921 
L 369.981955 423.258665 
L 370.49135 424.887369 
L 370.746048 423.576548 
L 371.000746 423.145263 
L 371.510141 421.879089 
L 371.764838 421.965703 
L 372.019536 424.718605 
L 372.274234 424.268568 
L 372.528931 424.706104 
L 372.783629 423.620302 
L 373.038326 423.370281 
L 373.293024 422.916673 
L 373.547722 423.272059 
L 374.057117 422.786306 
L 374.311814 422.369308 
L 374.566512 421.105812 
L 374.82121 422.85774 
L 375.075907 422.942568 
L 375.330605 423.212233 
L 375.585302 422.372879 
L 375.84 422.834524 
L 376.094698 424.138201 
L 376.349395 424.02212 
L 376.604093 422.618435 
L 377.113488 421.515667 
L 377.368186 421.689788 
L 377.622883 421.616568 
L 377.877581 421.091525 
L 378.386976 423.094366 
L 378.896371 421.600495 
L 379.151069 422.446099 
L 379.405766 422.300552 
L 379.660464 422.019279 
L 379.915162 422.013922 
L 380.169859 421.409408 
L 380.424557 423.496184 
L 380.679254 423.673877 
L 381.18865 422.615756 
L 381.443347 422.747017 
L 381.698045 423.859607 
L 382.20744 421.692467 
L 382.462138 421.976419 
L 382.716835 422.962213 
L 382.971533 423.163122 
L 383.226231 423.023825 
L 383.480928 422.516641 
L 383.990323 423.508686 
L 384.245021 423.509578 
L 384.499719 422.764875 
L 385.009114 424.338217 
L 385.263811 424.306964 
L 385.518509 424.3909 
L 385.773207 423.435465 
L 386.027904 425.512419 
L 386.791997 423.152407 
L 387.301392 424.215886 
L 387.55609 424.071231 
L 387.810787 424.268568 
L 388.065485 423.672985 
L 388.320183 424.982019 
L 388.57488 424.801647 
L 388.829578 424.991841 
L 389.338973 423.173837 
L 389.593671 424.226601 
L 389.848368 424.063195 
L 390.103066 423.514936 
L 390.612461 424.663243 
L 390.867159 424.583773 
L 391.121856 424.682888 
L 391.376554 423.840855 
L 391.631251 425.547243 
L 391.885949 425.164177 
L 392.140647 425.424912 
L 392.395344 424.481979 
L 392.650042 424.321251 
L 392.904739 424.623061 
L 393.159437 424.498051 
L 393.414135 424.209635 
L 393.668832 423.097938 
L 393.92353 425.685648 
L 394.178227 425.844589 
L 394.432925 425.419555 
L 394.94232 423.547974 
L 395.197018 425.210609 
L 395.706413 423.606015 
L 395.961111 423.747991 
L 396.215808 424.37572 
L 396.725203 424.218564 
L 396.979901 423.755134 
L 397.234599 424.983805 
L 397.489296 424.978447 
L 397.743994 424.649849 
L 397.998692 424.054265 
L 398.253389 424.241781 
L 398.762784 423.365817 
L 399.017482 422.867562 
L 399.27218 423.069364 
L 399.526877 423.764063 
L 399.781575 423.814067 
L 400.036272 423.572976 
L 400.29097 422.938104 
L 400.545668 423.227413 
L 400.800365 424.013191 
L 401.055063 424.146237 
L 401.30976 423.185445 
L 401.564458 424.075696 
L 401.819156 427.013434 
L 402.073853 427.099155 
L 402.328551 427.042007 
L 402.583248 423.707809 
L 403.092644 425.053453 
L 403.347341 424.530197 
L 403.602039 423.070257 
L 403.856736 423.664948 
L 404.111434 424.75075 
L 404.366132 424.873082 
L 404.620829 424.835579 
L 404.875527 424.071231 
L 405.130224 425.517777 
L 405.384922 424.868617 
L 405.63962 424.956124 
L 406.149015 423.378318 
L 406.403712 424.645385 
L 406.65841 424.493587 
L 406.913108 424.003368 
L 407.167805 423.887288 
L 407.422503 424.238209 
L 407.6772 424.363219 
L 407.931898 423.259558 
L 408.186596 423.170265 
L 408.695991 424.55252 
L 409.205386 423.824783 
L 409.460084 424.118556 
L 409.714781 424.713247 
L 410.224176 424.757001 
L 410.733572 423.440823 
L 411.242967 423.727453 
L 411.497665 423.701558 
L 411.752362 426.337486 
L 412.261757 426.858957 
L 412.516455 424.937373 
L 412.771153 425.292759 
L 413.02585 425.424019 
L 413.280548 424.648956 
L 413.535245 424.496265 
L 413.789943 424.087304 
L 414.044641 425.748153 
L 414.299338 425.904415 
L 414.554036 425.65886 
L 414.808733 424.894512 
L 415.063431 424.860581 
L 415.318129 425.876734 
L 415.572826 426.048177 
L 415.827524 425.742795 
L 416.082221 424.523053 
L 416.336919 426.435708 
L 416.591617 426.85092 
L 416.846314 426.540181 
L 417.355709 425.690112 
L 417.610407 426.695551 
L 417.865105 426.479462 
L 418.119802 426.045498 
L 418.3745 427.122371 
L 418.629197 426.017817 
L 418.883895 425.911559 
L 419.138593 425.007021 
L 419.39329 424.862367 
L 419.647988 427.012541 
L 419.902685 427.25631 
L 420.157383 427.084868 
L 420.412081 425.957098 
L 420.666778 426.114254 
L 420.921476 426.612508 
L 421.430871 426.266052 
L 421.685569 425.590997 
L 421.940266 427.272383 
L 422.449661 427.342925 
L 422.704359 426.45446 
L 422.959057 426.002637 
L 423.213754 426.056213 
L 423.468452 425.29633 
L 423.977847 425.440092 
L 424.232545 426.353559 
L 424.74194 426.516965 
L 424.996638 425.797264 
L 425.251335 428.320682 
L 425.506033 427.397393 
L 425.76073 427.481329 
L 426.015428 426.300876 
L 426.270126 426.496427 
L 426.524823 426.994682 
L 426.779521 426.979502 
L 427.034218 426.2473 
L 427.543614 428.106379 
L 427.798311 427.959046 
L 428.053009 427.962618 
L 428.307706 426.932177 
L 428.562404 426.838419 
L 428.817102 426.611615 
L 429.071799 425.04631 
L 429.326497 425.256148 
L 429.581194 426.206225 
L 429.835892 426.535716 
L 430.09059 426.38749 
L 430.345287 426.563397 
L 430.599985 426.074965 
L 430.854682 428.236747 
L 431.10938 427.800104 
L 431.364078 427.614375 
L 431.618775 426.041926 
L 431.873473 426.411599 
L 432.12817 427.653664 
L 432.382868 427.630448 
L 432.637566 426.647333 
L 433.146961 428.142096 
L 433.401658 428.073341 
L 433.656356 430.896784 
L 433.911054 430.192262 
L 434.165751 430.92 
L 434.420449 427.378642 
L 434.675146 427.133086 
L 434.929844 426.354452 
L 435.184542 426.034783 
L 435.439239 426.645547 
L 435.693937 429.851163 
L 435.948634 429.743119 
L 436.203332 428.90823 
L 436.967425 428.515341 
L 437.47682 427.505438 
L 437.731518 428.634101 
L 437.986215 427.282205 
L 438.240913 426.854492 
L 438.49561 427.759923 
L 438.750308 427.067009 
L 439.005006 427.093797 
L 439.514401 426.053534 
L 439.769099 428.114416 
L 440.533191 425.387409 
L 441.042587 426.975931 
L 441.297284 426.675013 
L 441.551982 426.629474 
L 441.806679 426.162472 
L 442.061377 428.154597 
L 442.316075 427.871539 
L 442.570772 426.408027 
L 442.82547 426.334807 
L 443.080167 426.52768 
L 443.334865 426.983967 
L 443.589563 427.14023 
L 443.84426 426.254444 
L 444.353655 428.364436 
L 444.608353 428.425155 
L 444.863051 428.231389 
L 445.117748 427.469721 
L 445.372446 427.425967 
L 445.627143 427.179519 
L 445.881841 426.775914 
L 446.136539 425.327583 
L 446.391236 425.830302 
L 446.645934 427.212557 
L 447.410027 424.808791 
L 447.664724 427.008076 
L 447.919422 426.891102 
L 448.174119 426.970573 
L 448.428817 426.505357 
L 448.683515 427.994763 
L 448.938212 428.218888 
L 449.19291 428.162634 
L 449.447607 427.28667 
L 449.702305 426.816096 
L 449.957003 427.566157 
L 450.2117 427.714383 
L 450.466398 427.528654 
L 450.721095 426.778593 
L 450.975793 427.076832 
L 451.485188 425.953526 
L 451.739886 424.045336 
L 451.994583 424.499837 
L 452.249281 426.138363 
L 452.503979 426.495535 
L 452.758676 425.070419 
L 453.268072 426.285696 
L 453.522769 425.870484 
L 454.032164 423.995332 
L 454.54156 424.904334 
L 455.050955 424.084625 
L 455.305652 423.998904 
L 455.56035 424.208742 
L 455.815048 423.764956 
L 456.069745 423.572084 
L 456.324443 422.626471 
L 456.57914 423.49172 
L 456.833838 423.459574 
L 457.343233 422.544322 
L 457.597931 423.312241 
L 457.852628 425.070419 
L 458.616721 423.294382 
L 458.871419 424.278391 
L 459.126116 423.91854 
L 459.380814 423.989082 
L 459.635512 423.130976 
L 459.890209 424.029263 
L 460.144907 422.392524 
L 460.399604 422.590754 
L 460.654302 421.997849 
L 460.909 423.172051 
L 461.163697 423.776564 
L 461.418395 423.78728 
L 461.673092 423.974795 
L 461.92779 423.230984 
L 462.182488 424.681995 
L 462.437185 424.258746 
L 462.691883 424.05873 
L 462.94658 422.841667 
L 463.455976 424.894512 
L 463.710673 424.075696 
L 464.220068 423.667627 
L 464.474766 424.474835 
L 464.729464 424.344467 
L 464.984161 424.542698 
L 465.238859 423.93997 
L 465.493556 427.026828 
L 466.002952 427.283098 
L 466.257649 424.612346 
L 466.512347 423.161336 
L 466.767045 423.833712 
L 467.021742 423.44618 
L 467.27644 423.312241 
L 467.531137 422.698798 
L 467.785835 422.847918 
L 468.040533 422.86399 
L 468.549928 420.915618 
L 468.804625 421.429946 
L 469.059323 422.990786 
L 469.314021 423.256879 
L 469.568718 423.29349 
L 469.823416 422.177328 
L 470.078113 424.035514 
L 470.332811 423.906039 
L 470.587509 423.402427 
L 470.842206 421.616568 
L 471.096904 421.679073 
L 471.351601 422.416633 
L 471.606299 422.244297 
L 471.860997 420.261994 
L 472.370392 421.946059 
L 472.625089 422.116608 
L 472.879787 421.894269 
L 473.134485 421.320115 
L 473.389182 422.101429 
L 473.64388 421.996956 
L 473.898577 422.086249 
L 474.153275 421.579958 
L 474.407973 422.215724 
L 474.66267 422.51932 
L 474.917368 421.908556 
L 475.172065 421.819263 
L 475.426763 421.154923 
L 475.681461 421.244216 
L 475.936158 420.671849 
L 476.445553 420.240564 
L 476.700251 421.909449 
L 476.954949 420.665598 
L 477.209646 420.745962 
L 477.464344 420.022689 
L 477.719041 420.260208 
L 477.973739 421.446018 
L 478.483134 421.238859 
L 478.737832 420.644168 
L 478.992529 421.07456 
L 479.247227 421.224572 
L 479.501925 421.230822 
L 479.756622 420.797752 
L 480.01132 421.603174 
L 480.520715 421.49513 
L 480.775413 420.19056 
L 481.03011 420.100374 
L 481.284808 421.196891 
L 481.539506 421.277255 
L 481.794203 421.08974 
L 482.048901 420.694172 
L 482.303598 421.331723 
L 482.558296 423.239914 
L 482.812994 422.989001 
L 483.067691 421.230822 
L 483.322389 420.58702 
L 483.577086 421.575493 
L 483.831784 421.558528 
L 484.086482 421.340653 
L 484.341179 420.177166 
L 484.595877 420.628988 
L 485.105272 419.50479 
L 485.35997 417.751076 
L 485.614667 418.821699 
L 485.869365 418.913671 
L 486.124062 418.040386 
L 486.37876 417.974309 
L 486.633458 417.534987 
L 486.888155 418.057351 
L 487.39755 417.119775 
L 487.652248 416.144696 
L 487.906946 416.207201 
L 488.161643 416.871541 
L 488.416341 419.517291 
L 488.925736 418.563642 
L 489.180434 419.520863 
L 489.435131 418.297549 
L 489.689829 418.107355 
L 489.944526 417.167101 
L 490.453922 418.079674 
L 490.708619 418.00824 
L 490.963317 417.207282 
L 491.218014 417.002801 
L 491.982107 415.631262 
L 492.236805 415.763415 
L 492.491502 416.958155 
L 492.7462 417.044769 
L 493.255595 416.677775 
L 493.510293 417.957343 
L 493.76499 418.368091 
L 494.019688 418.04485 
L 494.274386 417.282288 
L 494.529083 416.926902 
L 494.783781 418.119856 
L 495.038479 417.303719 
L 495.293176 417.126026 
L 495.547874 416.399181 
L 496.057269 418.482386 
L 496.311967 418.197541 
L 496.566664 417.283181 
L 496.821362 417.207282 
L 497.076059 421.055808 
L 497.330757 420.838826 
L 497.585455 420.995089 
L 497.840152 419.922681 
L 498.09485 417.870729 
L 498.349547 417.91984 
L 498.604245 417.812689 
L 498.858943 415.921464 
L 499.11364 416.82868 
L 499.368338 420.989732 
L 499.623035 419.668196 
L 499.877733 418.967246 
L 500.132431 417.252822 
L 500.387128 418.127893 
L 500.896523 418.056458 
L 501.151221 416.729565 
L 501.405919 416.886721 
L 501.660616 417.734111 
L 502.170011 415.1339 
L 502.424709 414.980316 
L 502.679407 415.551791 
L 503.188802 415.592866 
L 503.443499 414.934777 
L 503.698197 415.634834 
L 504.207592 413.998987 
L 504.46229 413.873084 
L 505.226383 411.477354 
L 505.48108 411.513964 
L 505.735778 410.65318 
L 505.990475 413.09177 
L 506.245173 412.843536 
L 506.499871 412.802461 
L 506.754568 411.622009 
L 507.263963 412.631019 
L 507.518661 412.366712 
L 507.773359 411.798809 
L 508.282754 413.364114 
L 508.537452 412.547084 
L 508.792149 412.478328 
L 509.046847 411.544324 
L 509.301544 412.212235 
L 509.556242 412.43011 
L 510.065637 410.682647 
L 510.320335 411.206796 
L 510.575032 412.43011 
L 510.82973 412.589944 
L 511.084428 412.034542 
L 511.339125 409.90937 
L 511.593823 412.290813 
L 512.103218 412.241702 
L 512.357916 411.396097 
L 512.612613 411.81131 
L 513.376706 410.783548 
L 513.631404 411.115718 
L 513.886101 412.522974 
L 514.140799 412.76853 
L 514.395496 412.610481 
L 514.650194 411.418421 
L 515.159589 412.090797 
L 515.414287 412.04615 
L 515.668984 411.411277 
L 515.923682 411.980073 
L 516.433077 411.541645 
L 516.687775 410.824623 
L 517.451868 412.10419 
L 517.706565 412.120263 
L 517.961263 411.387168 
L 518.21596 411.328235 
L 518.470658 411.02196 
L 518.725356 410.346012 
L 518.980053 409.20217 
L 519.234751 408.571762 
L 519.489448 409.701317 
L 519.744146 409.228958 
L 519.998844 409.071802 
L 520.253541 408.363709 
L 520.508239 410.272792 
L 521.017634 408.39764 
L 521.272332 407.902957 
L 521.527029 408.515507 
L 522.036424 406.417123 
L 522.291122 405.34025 
L 522.54582 405.3465 
L 522.800517 406.826084 
L 523.055215 406.937701 
L 523.56461 405.996553 
L 523.819308 406.568921 
L 524.074005 406.76983 
L 524.583401 405.491155 
L 524.838098 406.016197 
L 525.092796 407.034137 
L 525.347493 407.107357 
L 525.602191 406.932343 
L 526.111586 405.567947 
L 526.366284 405.697422 
L 526.620981 405.352751 
L 526.875679 404.546436 
L 527.385074 406.568028 
L 527.639772 406.660893 
L 527.894469 404.473215 
L 528.149167 405.223276 
L 528.403865 405.320605 
L 528.658562 404.708949 
L 528.91326 407.043066 
L 529.167957 407.205579 
L 529.422655 408.377103 
L 529.677353 408.389604 
L 529.93205 405.785822 
L 530.186748 405.152735 
L 530.441445 405.632238 
L 530.696143 405.750104 
L 531.205538 405.665276 
L 531.460236 404.895571 
L 531.714933 405.729567 
L 532.224329 405.734032 
L 532.479026 404.725914 
L 532.733724 405.506335 
L 532.988421 404.938432 
L 533.243119 405.130411 
L 533.497817 404.319631 
L 534.007212 405.84922 
L 534.261909 405.484904 
L 534.516607 403.991926 
L 535.026002 404.380351 
L 535.2807 405.510799 
L 535.535397 405.23042 
L 535.790095 404.190157 
L 536.044793 404.470537 
L 536.29949 404.58126 
L 536.808886 403.513316 
L 537.063583 402.420371 
L 537.318281 403.195433 
L 537.827676 403.272225 
L 538.082374 402.122132 
L 538.337071 402.398047 
L 538.591769 401.827465 
L 538.846466 401.62477 
L 539.101164 400.60951 
L 539.355862 400.40235 
L 539.610559 401.137231 
L 539.865257 400.428245 
L 540.119954 400.15233 
L 540.374652 399.489776 
L 540.62935 401.113122 
L 540.884047 401.476544 
L 541.393442 399.896952 
L 541.902838 401.444399 
L 542.157535 401.032758 
L 542.412233 400.330023 
L 542.66693 400.040714 
L 542.921628 401.1917 
L 543.176326 400.672015 
L 543.685721 399.098673 
L 543.940418 399.920168 
L 544.704511 398.348612 
L 544.959209 399.257614 
L 545.213906 399.69515 
L 545.468604 399.734439 
L 545.977999 397.924471 
L 546.487394 399.429057 
L 546.742092 399.252257 
L 546.99679 398.528984 
L 547.251487 398.728107 
L 547.506185 399.846055 
L 548.01558 399.663897 
L 548.270278 398.706677 
L 548.524975 399.53978 
L 548.779673 399.734439 
L 549.03437 399.555853 
L 549.289068 398.954911 
L 549.543766 398.964734 
L 549.798463 398.758467 
L 550.053161 398.937946 
L 550.307859 397.946794 
L 550.562556 397.753921 
L 550.817254 399.713008 
L 551.326649 399.527279 
L 551.581347 398.484337 
L 551.836044 400.271089 
L 552.345439 399.502277 
L 552.600137 398.12538 
L 553.109532 399.307618 
L 553.36423 399.333513 
L 553.618927 398.829901 
L 553.873625 397.971796 
L 554.128323 397.571764 
L 554.38302 397.477113 
L 554.892415 396.173436 
L 555.147113 396.79938 
L 555.401811 396.324341 
L 555.911206 394.505444 
L 556.165903 394.250959 
L 556.420601 395.562672 
L 556.675299 394.588486 
L 556.929996 394.109876 
L 557.184694 393.373209 
L 557.694089 394.297391 
L 557.948787 394.077731 
L 558.203484 393.233019 
L 558.712879 396.920818 
L 558.967577 396.754733 
L 559.476972 395.30283 
L 559.73167 396.224333 
L 559.986367 395.933238 
L 560.495763 394.133985 
L 560.75046 397.736063 
L 561.005158 397.705703 
L 561.514553 396.229691 
L 561.769251 394.846543 
L 562.023948 395.350155 
L 562.278646 395.269791 
L 562.788041 394.650991 
L 563.042739 397.411929 
L 563.297436 397.746778 
L 563.552134 397.414608 
L 563.806831 396.74759 
L 564.061529 395.37605 
L 564.316227 395.823408 
L 564.570924 395.985921 
L 565.08032 394.127735 
L 565.335017 394.885832 
L 565.589715 394.780466 
L 565.844412 394.07148 
L 566.09911 394.206312 
L 566.353808 394.737605 
L 566.608505 395.58946 
L 566.863203 395.743937 
L 567.1179 394.764393 
L 567.372598 395.549278 
L 567.627296 394.702781 
L 568.136691 394.984947 
L 568.391388 393.824139 
L 568.646086 394.158987 
L 568.900784 395.284971 
L 569.155481 395.105492 
L 569.410179 394.326858 
L 569.664876 394.463476 
L 569.919574 394.898333 
L 570.428969 393.561617 
L 570.683667 393.156227 
L 570.938364 394.697424 
L 571.44776 393.287488 
L 571.702457 392.272227 
L 571.957155 392.482959 
L 572.211852 393.341064 
L 572.46655 393.066042 
L 572.721248 392.20615 
L 572.975945 392.197221 
L 573.230643 391.623068 
L 573.48534 391.379298 
L 573.740038 390.272065 
L 573.994736 389.777382 
L 574.249433 389.918465 
L 574.504131 390.446187 
L 574.758828 389.183584 
L 575.013526 388.67015 
L 575.522921 389.878283 
L 575.777619 389.425568 
L 576.032316 389.558615 
L 576.287014 388.804089 
L 576.541712 390.731924 
L 576.796409 391.007839 
L 577.051107 390.696207 
L 577.305804 389.582724 
L 577.560502 389.341633 
L 577.8152 389.272877 
L 578.069897 388.782659 
L 578.324595 387.804901 
L 578.579293 388.604073 
L 578.83399 388.788909 
L 579.088688 388.440667 
L 579.343385 388.381734 
L 579.598083 387.646853 
L 579.852781 388.588 
L 580.107478 388.879988 
L 580.362176 388.298691 
L 580.616873 387.437907 
L 580.871571 387.80758 
L 581.126269 388.379948 
L 581.890361 386.887863 
L 582.145059 388.604073 
L 582.654454 388.574606 
L 582.909152 387.812045 
L 583.418547 389.262162 
L 583.673245 389.128223 
L 583.927942 388.392449 
L 584.18264 388.211184 
L 584.437337 388.486206 
L 584.692035 388.211184 
L 584.946733 387.259321 
L 585.20143 386.827143 
L 585.456128 388.788909 
L 585.710825 388.903204 
L 585.965523 388.683544 
L 586.220221 387.77097 
L 586.474918 387.774542 
L 586.729616 388.18261 
L 586.984313 387.881693 
L 587.239011 387.908481 
L 587.493709 386.861075 
L 587.748406 387.810259 
L 588.257801 386.586052 
L 588.512499 385.552933 
L 588.767197 385.589543 
L 589.021894 386.753923 
L 589.276592 386.773568 
L 589.531289 385.70741 
L 590.040685 386.14941 
L 590.295382 385.797596 
L 590.55008 384.369802 
L 591.059475 383.087555 
L 591.314173 383.145595 
L 591.56887 383.413474 
L 591.823568 382.508044 
L 592.078266 382.866108 
L 592.332963 384.019773 
L 592.587661 383.712605 
L 592.842358 386.753923 
L 593.097056 386.070832 
L 593.351754 386.563729 
L 593.606451 384.650181 
L 593.861149 384.583212 
L 594.115846 383.642064 
L 594.370544 383.931373 
L 594.625242 383.975127 
L 595.134637 381.633866 
L 595.389334 381.316876 
L 595.644032 382.743777 
L 596.153427 382.558048 
L 596.408125 381.911567 
L 596.662822 381.849062 
L 596.91752 383.243818 
L 597.172218 383.062553 
L 597.681613 382.050864 
L 597.93631 383.309001 
L 598.191008 383.292929 
L 598.700403 382.199983 
L 598.955101 382.876824 
L 599.209798 382.640197 
L 599.464496 381.377595 
L 599.719194 381.230262 
L 599.973891 381.77227 
L 600.228589 382.926828 
L 600.483286 382.933078 
L 600.737984 382.349995 
L 600.992682 381.03471 
L 601.247379 382.198197 
L 601.502077 382.318743 
L 601.756774 382.111583 
L 602.011472 381.302589 
L 602.26617 381.832096 
L 602.520867 382.675914 
L 602.775565 382.384819 
L 603.030262 381.511534 
L 603.539658 383.094698 
L 603.794355 383.265248 
L 604.049053 383.225066 
L 604.30375 382.472326 
L 604.558448 382.823248 
L 604.813146 382.715203 
L 605.067843 382.027648 
L 605.322541 380.958811 
L 605.577238 381.255264 
L 606.086634 379.540839 
L 606.341331 379.48012 
L 606.596029 378.512184 
L 606.850727 380.005162 
L 607.105424 379.997126 
L 607.360122 379.618524 
L 607.614819 378.464859 
L 607.869517 378.837211 
L 608.124215 378.564867 
L 608.378912 378.128225 
L 608.63361 377.207614 
L 609.143005 378.271093 
L 609.397703 378.071077 
L 609.6524 378.170192 
L 609.907098 376.74597 
L 610.416493 378.184479 
L 610.671191 378.296095 
L 610.925888 377.138859 
L 611.180586 377.387986 
L 611.435283 378.44075 
L 611.689981 378.344314 
L 611.944679 377.957675 
L 612.199376 375.336927 
L 612.454074 376.889732 
L 612.963469 376.762043 
L 613.218167 376.167352 
L 613.472864 376.493271 
L 613.727562 376.437909 
L 613.982259 375.930725 
L 614.491655 375.761069 
L 614.746352 377.088855 
L 615.00105 377.156717 
L 615.255747 376.763828 
L 615.510445 375.841432 
L 615.765143 379.945336 
L 616.01984 380.321259 
L 616.274538 379.881938 
L 617.038631 376.723647 
L 617.293328 376.467376 
L 617.548026 375.230669 
L 617.802723 375.158341 
L 618.057421 376.103061 
L 618.312119 376.262895 
L 618.566816 376.250394 
L 618.821514 374.677945 
L 619.076211 374.825279 
L 619.330909 376.617388 
L 619.330909 376.617388 
" style="fill:none;stroke:#1f77b4;stroke-linecap:square;stroke-width:1.5;"/>
   </g>
   <g id="patch_3">
    <path d="M 108 448.56 
L 108 60.48 
" style="fill:none;stroke:#000000;stroke-linecap:square;stroke-linejoin:miter;stroke-width:0.8;"/>
   </g>
   <g id="patch_4">
    <path d="M 643.68 448.56 
L 643.68 60.48 
" style="fill:none;stroke:#000000;stroke-linecap:square;stroke-linejoin:miter;stroke-width:0.8;"/>
   </g>
   <g id="patch_5">
    <path d="M 108 448.56 
L 643.68 448.56 
" style="fill:none;stroke:#000000;stroke-linecap:square;stroke-linejoin:miter;stroke-width:0.8;"/>
   </g>
   <g id="patch_6">
    <path d="M 108 60.48 
L 643.68 60.48 
" style="fill:none;stroke:#000000;stroke-linecap:square;stroke-linejoin:miter;stroke-width:0.8;"/>
   </g>
   <g id="text_33">
    <!-- unikernel_dce-allocpool - free -->
    <g transform="translate(265.448203 54.48)scale(0.15 -0.15)">
     <defs>
      <path d="M 8.5 21.578125 
L 8.5 54.6875 
L 17.484375 54.6875 
L 17.484375 21.921875 
Q 17.484375 14.15625 20.5 10.265625 
Q 23.53125 6.390625 29.59375 6.390625 
Q 36.859375 6.390625 41.078125 11.03125 
Q 45.3125 15.671875 45.3125 23.6875 
L 45.3125 54.6875 
L 54.296875 54.6875 
L 54.296875 0 
L 45.3125 0 
L 45.3125 8.40625 
Q 42.046875 3.421875 37.71875 1 
Q 33.40625 -1.421875 27.6875 -1.421875 
Q 18.265625 -1.421875 13.375 4.4375 
Q 8.5 10.296875 8.5 21.578125 
z
M 31.109375 56 
z
" id="DejaVuSans-117"/>
      <path d="M 54.890625 33.015625 
L 54.890625 0 
L 45.90625 0 
L 45.90625 32.71875 
Q 45.90625 40.484375 42.875 44.328125 
Q 39.84375 48.1875 33.796875 48.1875 
Q 26.515625 48.1875 22.3125 43.546875 
Q 18.109375 38.921875 18.109375 30.90625 
L 18.109375 0 
L 9.078125 0 
L 9.078125 54.6875 
L 18.109375 54.6875 
L 18.109375 46.1875 
Q 21.34375 51.125 25.703125 53.5625 
Q 30.078125 56 35.796875 56 
Q 45.21875 56 50.046875 50.171875 
Q 54.890625 44.34375 54.890625 33.015625 
z
" id="DejaVuSans-110"/>
      <path d="M 9.078125 75.984375 
L 18.109375 75.984375 
L 18.109375 31.109375 
L 44.921875 54.6875 
L 56.390625 54.6875 
L 27.390625 29.109375 
L 57.625 0 
L 45.90625 0 
L 18.109375 26.703125 
L 18.109375 0 
L 9.078125 0 
z
" id="DejaVuSans-107"/>
      <path d="M 41.109375 46.296875 
Q 39.59375 47.171875 37.8125 47.578125 
Q 36.03125 48 33.890625 48 
Q 26.265625 48 22.1875 43.046875 
Q 18.109375 38.09375 18.109375 28.8125 
L 18.109375 0 
L 9.078125 0 
L 9.078125 54.6875 
L 18.109375 54.6875 
L 18.109375 46.1875 
Q 20.953125 51.171875 25.484375 53.578125 
Q 30.03125 56 36.53125 56 
Q 37.453125 56 38.578125 55.875 
Q 39.703125 55.765625 41.0625 55.515625 
z
" id="DejaVuSans-114"/>
      <path d="M 9.421875 75.984375 
L 18.40625 75.984375 
L 18.40625 0 
L 9.421875 0 
z
" id="DejaVuSans-108"/>
      <path d="M 50.984375 -16.609375 
L 50.984375 -23.578125 
L -0.984375 -23.578125 
L -0.984375 -16.609375 
z
" id="DejaVuSans-95"/>
      <path d="M 45.40625 46.390625 
L 45.40625 75.984375 
L 54.390625 75.984375 
L 54.390625 0 
L 45.40625 0 
L 45.40625 8.203125 
Q 42.578125 3.328125 38.25 0.953125 
Q 33.9375 -1.421875 27.875 -1.421875 
Q 17.96875 -1.421875 11.734375 6.484375 
Q 5.515625 14.40625 5.515625 27.296875 
Q 5.515625 40.1875 11.734375 48.09375 
Q 17.96875 56 27.875 56 
Q 33.9375 56 38.25 53.625 
Q 42.578125 51.265625 45.40625 46.390625 
z
M 14.796875 27.296875 
Q 14.796875 17.390625 18.875 11.75 
Q 22.953125 6.109375 30.078125 6.109375 
Q 37.203125 6.109375 41.296875 11.75 
Q 45.40625 17.390625 45.40625 27.296875 
Q 45.40625 37.203125 41.296875 42.84375 
Q 37.203125 48.484375 30.078125 48.484375 
Q 22.953125 48.484375 18.875 42.84375 
Q 14.796875 37.203125 14.796875 27.296875 
z
" id="DejaVuSans-100"/>
      <path d="M 48.78125 52.59375 
L 48.78125 44.1875 
Q 44.96875 46.296875 41.140625 47.34375 
Q 37.3125 48.390625 33.40625 48.390625 
Q 24.65625 48.390625 19.8125 42.84375 
Q 14.984375 37.3125 14.984375 27.296875 
Q 14.984375 17.28125 19.8125 11.734375 
Q 24.65625 6.203125 33.40625 6.203125 
Q 37.3125 6.203125 41.140625 7.25 
Q 44.96875 8.296875 48.78125 10.40625 
L 48.78125 2.09375 
Q 45.015625 0.34375 40.984375 -0.53125 
Q 36.96875 -1.421875 32.421875 -1.421875 
Q 20.0625 -1.421875 12.78125 6.34375 
Q 5.515625 14.109375 5.515625 27.296875 
Q 5.515625 40.671875 12.859375 48.328125 
Q 20.21875 56 33.015625 56 
Q 37.15625 56 41.109375 55.140625 
Q 45.0625 54.296875 48.78125 52.59375 
z
" id="DejaVuSans-99"/>
      <path d="M 4.890625 31.390625 
L 31.203125 31.390625 
L 31.203125 23.390625 
L 4.890625 23.390625 
z
" id="DejaVuSans-45"/>
      <path d="M 30.609375 48.390625 
Q 23.390625 48.390625 19.1875 42.75 
Q 14.984375 37.109375 14.984375 27.296875 
Q 14.984375 17.484375 19.15625 11.84375 
Q 23.34375 6.203125 30.609375 6.203125 
Q 37.796875 6.203125 41.984375 11.859375 
Q 46.1875 17.53125 46.1875 27.296875 
Q 46.1875 37.015625 41.984375 42.703125 
Q 37.796875 48.390625 30.609375 48.390625 
z
M 30.609375 56 
Q 42.328125 56 49.015625 48.375 
Q 55.71875 40.765625 55.71875 27.296875 
Q 55.71875 13.875 49.015625 6.21875 
Q 42.328125 -1.421875 30.609375 -1.421875 
Q 18.84375 -1.421875 12.171875 6.21875 
Q 5.515625 13.875 5.515625 27.296875 
Q 5.515625 40.765625 12.171875 48.375 
Q 18.84375 56 30.609375 56 
z
" id="DejaVuSans-111"/>
      <path id="DejaVuSans-32"/>
      <path d="M 37.109375 75.984375 
L 37.109375 68.5 
L 28.515625 68.5 
Q 23.6875 68.5 21.796875 66.546875 
Q 19.921875 64.59375 19.921875 59.515625 
L 19.921875 54.6875 
L 34.71875 54.6875 
L 34.71875 47.703125 
L 19.921875 47.703125 
L 19.921875 0 
L 10.890625 0 
L 10.890625 47.703125 
L 2.296875 47.703125 
L 2.296875 54.6875 
L 10.890625 54.6875 
L 10.890625 58.5 
Q 10.890625 67.625 15.140625 71.796875 
Q 19.390625 75.984375 28.609375 75.984375 
z
" id="DejaVuSans-102"/>
     </defs>
     <use xlink:href="#DejaVuSans-117"/>
     <use x="63.378906" xlink:href="#DejaVuSans-110"/>
     <use x="126.757812" xlink:href="#DejaVuSans-105"/>
     <use x="154.541016" xlink:href="#DejaVuSans-107"/>
     <use x="208.826172" xlink:href="#DejaVuSans-101"/>
     <use x="270.349609" xlink:href="#DejaVuSans-114"/>
     <use x="309.712891" xlink:href="#DejaVuSans-110"/>
     <use x="373.091797" xlink:href="#DejaVuSans-101"/>
     <use x="434.615234" xlink:href="#DejaVuSans-108"/>
     <use x="462.398438" xlink:href="#DejaVuSans-95"/>
     <use x="512.398438" xlink:href="#DejaVuSans-100"/>
     <use x="575.875" xlink:href="#DejaVuSans-99"/>
     <use x="630.855469" xlink:href="#DejaVuSans-101"/>
     <use x="692.378906" xlink:href="#DejaVuSans-45"/>
     <use x="728.462891" xlink:href="#DejaVuSans-97"/>
     <use x="789.742188" xlink:href="#DejaVuSans-108"/>
     <use x="817.525391" xlink:href="#DejaVuSans-108"/>
     <use x="845.308594" xlink:href="#DejaVuSans-111"/>
     <use x="906.490234" xlink:href="#DejaVuSans-99"/>
     <use x="961.470703" xlink:href="#DejaVuSans-112"/>
     <use x="1024.947266" xlink:href="#DejaVuSans-111"/>
     <use x="1086.128906" xlink:href="#DejaVuSans-111"/>
     <use x="1147.310547" xlink:href="#DejaVuSans-108"/>
     <use x="1175.09375" xlink:href="#DejaVuSans-32"/>
     <use x="1206.880859" xlink:href="#DejaVuSans-45"/>
     <use x="1242.964844" xlink:href="#DejaVuSans-32"/>
     <use x="1274.751953" xlink:href="#DejaVuSans-102"/>
     <use x="1309.957031" xlink:href="#DejaVuSans-114"/>
     <use x="1348.820312" xlink:href="#DejaVuSans-101"/>
     <use x="1410.34375" xlink:href="#DejaVuSans-101"/>
    </g>
   </g>
   <g id="legend_1">
    <g id="patch_7">
     <path d="M 650.68 258.52 
L 654.68 258.52 
Q 656.68 258.52 656.68 256.52 
L 656.68 252.52 
Q 656.68 250.52 654.68 250.52 
L 650.68 250.52 
Q 648.68 250.52 648.68 252.52 
L 648.68 256.52 
Q 648.68 258.52 650.68 258.52 
z
" style="fill:#ffffff;opacity:0.8;stroke:#cccccc;stroke-linejoin:miter;"/>
    </g>
   </g>
  </g>
 </g>
 <defs>
  <clipPath id="p0caaa6048e">
   <rect height="388.08" width="535.68" x="108" y="60.48"/>
  </clipPath>
 </defs>
</svg>
