<?xml version="1.0" encoding="utf-8" standalone="no"?>
<!DOCTYPE svg PUBLIC "-//W3C//DTD SVG 1.1//EN"
  "http://www.w3.org/Graphics/SVG/1.1/DTD/svg11.dtd">
<!-- Created with matplotlib (https://matplotlib.org/) -->
<svg height="504pt" version="1.1" viewBox="0 0 864 504" width="864pt" xmlns="http://www.w3.org/2000/svg" xmlns:xlink="http://www.w3.org/1999/xlink">
 <metadata>
  <rdf:RDF xmlns:cc="http://creativecommons.org/ns#" xmlns:dc="http://purl.org/dc/elements/1.1/" xmlns:rdf="http://www.w3.org/1999/02/22-rdf-syntax-ns#">
   <cc:Work>
    <dc:type rdf:resource="http://purl.org/dc/dcmitype/StillImage"/>
    <dc:date>2022-05-29T16:54:49.294103</dc:date>
    <dc:format>image/svg+xml</dc:format>
    <dc:creator>
     <cc:Agent>
      <dc:title>Matplotlib v3.3.4, https://matplotlib.org/</dc:title>
     </cc:Agent>
    </dc:creator>
   </cc:Work>
  </rdf:RDF>
 </metadata>
 <defs>
  <style type="text/css">*{stroke-linecap:butt;stroke-linejoin:round;}</style>
 </defs>
 <g id="figure_1">
  <g id="patch_1">
   <path d="M 0 504 
L 864 504 
L 864 0 
L 0 0 
z
" style="fill:#ffffff;"/>
  </g>
  <g id="axes_1">
   <g id="patch_2">
    <path d="M 108 448.56 
L 643.68 448.56 
L 643.68 60.48 
L 108 60.48 
z
" style="fill:#ffffff;"/>
   </g>
   <g id="matplotlib.axis_1">
    <g id="xtick_1">
     <g id="line2d_1">
      <defs>
       <path d="M 0 0 
L 0 3.5 
" id="m1efd93bc50" style="stroke:#000000;stroke-width:0.8;"/>
      </defs>
      <g>
       <use style="stroke:#000000;stroke-width:0.8;" x="132.349091" xlink:href="#m1efd93bc50" y="448.56"/>
      </g>
     </g>
     <g id="text_1">
      <!-- 18:34:03 -->
      <g transform="translate(135.108466 500.4725)rotate(-90)scale(0.1 -0.1)">
       <defs>
        <path d="M 12.40625 8.296875 
L 28.515625 8.296875 
L 28.515625 63.921875 
L 10.984375 60.40625 
L 10.984375 69.390625 
L 28.421875 72.90625 
L 38.28125 72.90625 
L 38.28125 8.296875 
L 54.390625 8.296875 
L 54.390625 0 
L 12.40625 0 
z
" id="DejaVuSans-49"/>
        <path d="M 31.78125 34.625 
Q 24.75 34.625 20.71875 30.859375 
Q 16.703125 27.09375 16.703125 20.515625 
Q 16.703125 13.921875 20.71875 10.15625 
Q 24.75 6.390625 31.78125 6.390625 
Q 38.8125 6.390625 42.859375 10.171875 
Q 46.921875 13.96875 46.921875 20.515625 
Q 46.921875 27.09375 42.890625 30.859375 
Q 38.875 34.625 31.78125 34.625 
z
M 21.921875 38.8125 
Q 15.578125 40.375 12.03125 44.71875 
Q 8.5 49.078125 8.5 55.328125 
Q 8.5 64.0625 14.71875 69.140625 
Q 20.953125 74.21875 31.78125 74.21875 
Q 42.671875 74.21875 48.875 69.140625 
Q 55.078125 64.0625 55.078125 55.328125 
Q 55.078125 49.078125 51.53125 44.71875 
Q 48 40.375 41.703125 38.8125 
Q 48.828125 37.15625 52.796875 32.3125 
Q 56.78125 27.484375 56.78125 20.515625 
Q 56.78125 9.90625 50.3125 4.234375 
Q 43.84375 -1.421875 31.78125 -1.421875 
Q 19.734375 -1.421875 13.25 4.234375 
Q 6.78125 9.90625 6.78125 20.515625 
Q 6.78125 27.484375 10.78125 32.3125 
Q 14.796875 37.15625 21.921875 38.8125 
z
M 18.3125 54.390625 
Q 18.3125 48.734375 21.84375 45.5625 
Q 25.390625 42.390625 31.78125 42.390625 
Q 38.140625 42.390625 41.71875 45.5625 
Q 45.3125 48.734375 45.3125 54.390625 
Q 45.3125 60.0625 41.71875 63.234375 
Q 38.140625 66.40625 31.78125 66.40625 
Q 25.390625 66.40625 21.84375 63.234375 
Q 18.3125 60.0625 18.3125 54.390625 
z
" id="DejaVuSans-56"/>
        <path d="M 11.71875 12.40625 
L 22.015625 12.40625 
L 22.015625 0 
L 11.71875 0 
z
M 11.71875 51.703125 
L 22.015625 51.703125 
L 22.015625 39.3125 
L 11.71875 39.3125 
z
" id="DejaVuSans-58"/>
        <path d="M 40.578125 39.3125 
Q 47.65625 37.796875 51.625 33 
Q 55.609375 28.21875 55.609375 21.1875 
Q 55.609375 10.40625 48.1875 4.484375 
Q 40.765625 -1.421875 27.09375 -1.421875 
Q 22.515625 -1.421875 17.65625 -0.515625 
Q 12.796875 0.390625 7.625 2.203125 
L 7.625 11.71875 
Q 11.71875 9.328125 16.59375 8.109375 
Q 21.484375 6.890625 26.8125 6.890625 
Q 36.078125 6.890625 40.9375 10.546875 
Q 45.796875 14.203125 45.796875 21.1875 
Q 45.796875 27.640625 41.28125 31.265625 
Q 36.765625 34.90625 28.71875 34.90625 
L 20.21875 34.90625 
L 20.21875 43.015625 
L 29.109375 43.015625 
Q 36.375 43.015625 40.234375 45.921875 
Q 44.09375 48.828125 44.09375 54.296875 
Q 44.09375 59.90625 40.109375 62.90625 
Q 36.140625 65.921875 28.71875 65.921875 
Q 24.65625 65.921875 20.015625 65.03125 
Q 15.375 64.15625 9.8125 62.3125 
L 9.8125 71.09375 
Q 15.4375 72.65625 20.34375 73.4375 
Q 25.25 74.21875 29.59375 74.21875 
Q 40.828125 74.21875 47.359375 69.109375 
Q 53.90625 64.015625 53.90625 55.328125 
Q 53.90625 49.265625 50.4375 45.09375 
Q 46.96875 40.921875 40.578125 39.3125 
z
" id="DejaVuSans-51"/>
        <path d="M 37.796875 64.3125 
L 12.890625 25.390625 
L 37.796875 25.390625 
z
M 35.203125 72.90625 
L 47.609375 72.90625 
L 47.609375 25.390625 
L 58.015625 25.390625 
L 58.015625 17.1875 
L 47.609375 17.1875 
L 47.609375 0 
L 37.796875 0 
L 37.796875 17.1875 
L 4.890625 17.1875 
L 4.890625 26.703125 
z
" id="DejaVuSans-52"/>
        <path d="M 31.78125 66.40625 
Q 24.171875 66.40625 20.328125 58.90625 
Q 16.5 51.421875 16.5 36.375 
Q 16.5 21.390625 20.328125 13.890625 
Q 24.171875 6.390625 31.78125 6.390625 
Q 39.453125 6.390625 43.28125 13.890625 
Q 47.125 21.390625 47.125 36.375 
Q 47.125 51.421875 43.28125 58.90625 
Q 39.453125 66.40625 31.78125 66.40625 
z
M 31.78125 74.21875 
Q 44.046875 74.21875 50.515625 64.515625 
Q 56.984375 54.828125 56.984375 36.375 
Q 56.984375 17.96875 50.515625 8.265625 
Q 44.046875 -1.421875 31.78125 -1.421875 
Q 19.53125 -1.421875 13.0625 8.265625 
Q 6.59375 17.96875 6.59375 36.375 
Q 6.59375 54.828125 13.0625 64.515625 
Q 19.53125 74.21875 31.78125 74.21875 
z
" id="DejaVuSans-48"/>
       </defs>
       <use xlink:href="#DejaVuSans-49"/>
       <use x="63.623047" xlink:href="#DejaVuSans-56"/>
       <use x="127.246094" xlink:href="#DejaVuSans-58"/>
       <use x="160.9375" xlink:href="#DejaVuSans-51"/>
       <use x="224.560547" xlink:href="#DejaVuSans-52"/>
       <use x="288.183594" xlink:href="#DejaVuSans-58"/>
       <use x="321.875" xlink:href="#DejaVuSans-48"/>
       <use x="385.498047" xlink:href="#DejaVuSans-51"/>
      </g>
     </g>
    </g>
    <g id="xtick_2">
     <g id="line2d_2">
      <g>
       <use style="stroke:#000000;stroke-width:0.8;" x="156.543748" xlink:href="#m1efd93bc50" y="448.56"/>
      </g>
     </g>
     <g id="text_2">
      <!-- 18:35:56 -->
      <g transform="translate(159.303123 500.4725)rotate(-90)scale(0.1 -0.1)">
       <defs>
        <path d="M 10.796875 72.90625 
L 49.515625 72.90625 
L 49.515625 64.59375 
L 19.828125 64.59375 
L 19.828125 46.734375 
Q 21.96875 47.46875 24.109375 47.828125 
Q 26.265625 48.1875 28.421875 48.1875 
Q 40.625 48.1875 47.75 41.5 
Q 54.890625 34.8125 54.890625 23.390625 
Q 54.890625 11.625 47.5625 5.09375 
Q 40.234375 -1.421875 26.90625 -1.421875 
Q 22.3125 -1.421875 17.546875 -0.640625 
Q 12.796875 0.140625 7.71875 1.703125 
L 7.71875 11.625 
Q 12.109375 9.234375 16.796875 8.0625 
Q 21.484375 6.890625 26.703125 6.890625 
Q 35.15625 6.890625 40.078125 11.328125 
Q 45.015625 15.765625 45.015625 23.390625 
Q 45.015625 31 40.078125 35.4375 
Q 35.15625 39.890625 26.703125 39.890625 
Q 22.75 39.890625 18.8125 39.015625 
Q 14.890625 38.140625 10.796875 36.28125 
z
" id="DejaVuSans-53"/>
        <path d="M 33.015625 40.375 
Q 26.375 40.375 22.484375 35.828125 
Q 18.609375 31.296875 18.609375 23.390625 
Q 18.609375 15.53125 22.484375 10.953125 
Q 26.375 6.390625 33.015625 6.390625 
Q 39.65625 6.390625 43.53125 10.953125 
Q 47.40625 15.53125 47.40625 23.390625 
Q 47.40625 31.296875 43.53125 35.828125 
Q 39.65625 40.375 33.015625 40.375 
z
M 52.59375 71.296875 
L 52.59375 62.3125 
Q 48.875 64.0625 45.09375 64.984375 
Q 41.3125 65.921875 37.59375 65.921875 
Q 27.828125 65.921875 22.671875 59.328125 
Q 17.53125 52.734375 16.796875 39.40625 
Q 19.671875 43.65625 24.015625 45.921875 
Q 28.375 48.1875 33.59375 48.1875 
Q 44.578125 48.1875 50.953125 41.515625 
Q 57.328125 34.859375 57.328125 23.390625 
Q 57.328125 12.15625 50.6875 5.359375 
Q 44.046875 -1.421875 33.015625 -1.421875 
Q 20.359375 -1.421875 13.671875 8.265625 
Q 6.984375 17.96875 6.984375 36.375 
Q 6.984375 53.65625 15.1875 63.9375 
Q 23.390625 74.21875 37.203125 74.21875 
Q 40.921875 74.21875 44.703125 73.484375 
Q 48.484375 72.75 52.59375 71.296875 
z
" id="DejaVuSans-54"/>
       </defs>
       <use xlink:href="#DejaVuSans-49"/>
       <use x="63.623047" xlink:href="#DejaVuSans-56"/>
       <use x="127.246094" xlink:href="#DejaVuSans-58"/>
       <use x="160.9375" xlink:href="#DejaVuSans-51"/>
       <use x="224.560547" xlink:href="#DejaVuSans-53"/>
       <use x="288.183594" xlink:href="#DejaVuSans-58"/>
       <use x="321.875" xlink:href="#DejaVuSans-53"/>
       <use x="385.498047" xlink:href="#DejaVuSans-54"/>
      </g>
     </g>
    </g>
    <g id="xtick_3">
     <g id="line2d_3">
      <g>
       <use style="stroke:#000000;stroke-width:0.8;" x="180.738405" xlink:href="#m1efd93bc50" y="448.56"/>
      </g>
     </g>
     <g id="text_3">
      <!-- 18:37:49 -->
      <g transform="translate(183.49778 500.4725)rotate(-90)scale(0.1 -0.1)">
       <defs>
        <path d="M 8.203125 72.90625 
L 55.078125 72.90625 
L 55.078125 68.703125 
L 28.609375 0 
L 18.3125 0 
L 43.21875 64.59375 
L 8.203125 64.59375 
z
" id="DejaVuSans-55"/>
        <path d="M 10.984375 1.515625 
L 10.984375 10.5 
Q 14.703125 8.734375 18.5 7.8125 
Q 22.3125 6.890625 25.984375 6.890625 
Q 35.75 6.890625 40.890625 13.453125 
Q 46.046875 20.015625 46.78125 33.40625 
Q 43.953125 29.203125 39.59375 26.953125 
Q 35.25 24.703125 29.984375 24.703125 
Q 19.046875 24.703125 12.671875 31.3125 
Q 6.296875 37.9375 6.296875 49.421875 
Q 6.296875 60.640625 12.9375 67.421875 
Q 19.578125 74.21875 30.609375 74.21875 
Q 43.265625 74.21875 49.921875 64.515625 
Q 56.59375 54.828125 56.59375 36.375 
Q 56.59375 19.140625 48.40625 8.859375 
Q 40.234375 -1.421875 26.421875 -1.421875 
Q 22.703125 -1.421875 18.890625 -0.6875 
Q 15.09375 0.046875 10.984375 1.515625 
z
M 30.609375 32.421875 
Q 37.25 32.421875 41.125 36.953125 
Q 45.015625 41.5 45.015625 49.421875 
Q 45.015625 57.28125 41.125 61.84375 
Q 37.25 66.40625 30.609375 66.40625 
Q 23.96875 66.40625 20.09375 61.84375 
Q 16.21875 57.28125 16.21875 49.421875 
Q 16.21875 41.5 20.09375 36.953125 
Q 23.96875 32.421875 30.609375 32.421875 
z
" id="DejaVuSans-57"/>
       </defs>
       <use xlink:href="#DejaVuSans-49"/>
       <use x="63.623047" xlink:href="#DejaVuSans-56"/>
       <use x="127.246094" xlink:href="#DejaVuSans-58"/>
       <use x="160.9375" xlink:href="#DejaVuSans-51"/>
       <use x="224.560547" xlink:href="#DejaVuSans-55"/>
       <use x="288.183594" xlink:href="#DejaVuSans-58"/>
       <use x="321.875" xlink:href="#DejaVuSans-52"/>
       <use x="385.498047" xlink:href="#DejaVuSans-57"/>
      </g>
     </g>
    </g>
    <g id="xtick_4">
     <g id="line2d_4">
      <g>
       <use style="stroke:#000000;stroke-width:0.8;" x="204.933062" xlink:href="#m1efd93bc50" y="448.56"/>
      </g>
     </g>
     <g id="text_4">
      <!-- 18:39:41 -->
      <g transform="translate(207.692437 500.4725)rotate(-90)scale(0.1 -0.1)">
       <use xlink:href="#DejaVuSans-49"/>
       <use x="63.623047" xlink:href="#DejaVuSans-56"/>
       <use x="127.246094" xlink:href="#DejaVuSans-58"/>
       <use x="160.9375" xlink:href="#DejaVuSans-51"/>
       <use x="224.560547" xlink:href="#DejaVuSans-57"/>
       <use x="288.183594" xlink:href="#DejaVuSans-58"/>
       <use x="321.875" xlink:href="#DejaVuSans-52"/>
       <use x="385.498047" xlink:href="#DejaVuSans-49"/>
      </g>
     </g>
    </g>
    <g id="xtick_5">
     <g id="line2d_5">
      <g>
       <use style="stroke:#000000;stroke-width:0.8;" x="229.127719" xlink:href="#m1efd93bc50" y="448.56"/>
      </g>
     </g>
     <g id="text_5">
      <!-- 18:41:34 -->
      <g transform="translate(231.887094 500.4725)rotate(-90)scale(0.1 -0.1)">
       <use xlink:href="#DejaVuSans-49"/>
       <use x="63.623047" xlink:href="#DejaVuSans-56"/>
       <use x="127.246094" xlink:href="#DejaVuSans-58"/>
       <use x="160.9375" xlink:href="#DejaVuSans-52"/>
       <use x="224.560547" xlink:href="#DejaVuSans-49"/>
       <use x="288.183594" xlink:href="#DejaVuSans-58"/>
       <use x="321.875" xlink:href="#DejaVuSans-51"/>
       <use x="385.498047" xlink:href="#DejaVuSans-52"/>
      </g>
     </g>
    </g>
    <g id="xtick_6">
     <g id="line2d_6">
      <g>
       <use style="stroke:#000000;stroke-width:0.8;" x="253.322376" xlink:href="#m1efd93bc50" y="448.56"/>
      </g>
     </g>
     <g id="text_6">
      <!-- 18:43:27 -->
      <g transform="translate(256.081751 500.4725)rotate(-90)scale(0.1 -0.1)">
       <defs>
        <path d="M 19.1875 8.296875 
L 53.609375 8.296875 
L 53.609375 0 
L 7.328125 0 
L 7.328125 8.296875 
Q 12.9375 14.109375 22.625 23.890625 
Q 32.328125 33.6875 34.8125 36.53125 
Q 39.546875 41.84375 41.421875 45.53125 
Q 43.3125 49.21875 43.3125 52.78125 
Q 43.3125 58.59375 39.234375 62.25 
Q 35.15625 65.921875 28.609375 65.921875 
Q 23.96875 65.921875 18.8125 64.3125 
Q 13.671875 62.703125 7.8125 59.421875 
L 7.8125 69.390625 
Q 13.765625 71.78125 18.9375 73 
Q 24.125 74.21875 28.421875 74.21875 
Q 39.75 74.21875 46.484375 68.546875 
Q 53.21875 62.890625 53.21875 53.421875 
Q 53.21875 48.921875 51.53125 44.890625 
Q 49.859375 40.875 45.40625 35.40625 
Q 44.1875 33.984375 37.640625 27.21875 
Q 31.109375 20.453125 19.1875 8.296875 
z
" id="DejaVuSans-50"/>
       </defs>
       <use xlink:href="#DejaVuSans-49"/>
       <use x="63.623047" xlink:href="#DejaVuSans-56"/>
       <use x="127.246094" xlink:href="#DejaVuSans-58"/>
       <use x="160.9375" xlink:href="#DejaVuSans-52"/>
       <use x="224.560547" xlink:href="#DejaVuSans-51"/>
       <use x="288.183594" xlink:href="#DejaVuSans-58"/>
       <use x="321.875" xlink:href="#DejaVuSans-50"/>
       <use x="385.498047" xlink:href="#DejaVuSans-55"/>
      </g>
     </g>
    </g>
    <g id="xtick_7">
     <g id="line2d_7">
      <g>
       <use style="stroke:#000000;stroke-width:0.8;" x="277.517032" xlink:href="#m1efd93bc50" y="448.56"/>
      </g>
     </g>
     <g id="text_7">
      <!-- 18:45:19 -->
      <g transform="translate(280.276407 500.4725)rotate(-90)scale(0.1 -0.1)">
       <use xlink:href="#DejaVuSans-49"/>
       <use x="63.623047" xlink:href="#DejaVuSans-56"/>
       <use x="127.246094" xlink:href="#DejaVuSans-58"/>
       <use x="160.9375" xlink:href="#DejaVuSans-52"/>
       <use x="224.560547" xlink:href="#DejaVuSans-53"/>
       <use x="288.183594" xlink:href="#DejaVuSans-58"/>
       <use x="321.875" xlink:href="#DejaVuSans-49"/>
       <use x="385.498047" xlink:href="#DejaVuSans-57"/>
      </g>
     </g>
    </g>
    <g id="xtick_8">
     <g id="line2d_8">
      <g>
       <use style="stroke:#000000;stroke-width:0.8;" x="301.711689" xlink:href="#m1efd93bc50" y="448.56"/>
      </g>
     </g>
     <g id="text_8">
      <!-- 18:47:12 -->
      <g transform="translate(304.471064 500.4725)rotate(-90)scale(0.1 -0.1)">
       <use xlink:href="#DejaVuSans-49"/>
       <use x="63.623047" xlink:href="#DejaVuSans-56"/>
       <use x="127.246094" xlink:href="#DejaVuSans-58"/>
       <use x="160.9375" xlink:href="#DejaVuSans-52"/>
       <use x="224.560547" xlink:href="#DejaVuSans-55"/>
       <use x="288.183594" xlink:href="#DejaVuSans-58"/>
       <use x="321.875" xlink:href="#DejaVuSans-49"/>
       <use x="385.498047" xlink:href="#DejaVuSans-50"/>
      </g>
     </g>
    </g>
    <g id="xtick_9">
     <g id="line2d_9">
      <g>
       <use style="stroke:#000000;stroke-width:0.8;" x="325.906346" xlink:href="#m1efd93bc50" y="448.56"/>
      </g>
     </g>
     <g id="text_9">
      <!-- 18:49:05 -->
      <g transform="translate(328.665721 500.4725)rotate(-90)scale(0.1 -0.1)">
       <use xlink:href="#DejaVuSans-49"/>
       <use x="63.623047" xlink:href="#DejaVuSans-56"/>
       <use x="127.246094" xlink:href="#DejaVuSans-58"/>
       <use x="160.9375" xlink:href="#DejaVuSans-52"/>
       <use x="224.560547" xlink:href="#DejaVuSans-57"/>
       <use x="288.183594" xlink:href="#DejaVuSans-58"/>
       <use x="321.875" xlink:href="#DejaVuSans-48"/>
       <use x="385.498047" xlink:href="#DejaVuSans-53"/>
      </g>
     </g>
    </g>
    <g id="xtick_10">
     <g id="line2d_10">
      <g>
       <use style="stroke:#000000;stroke-width:0.8;" x="350.101003" xlink:href="#m1efd93bc50" y="448.56"/>
      </g>
     </g>
     <g id="text_10">
      <!-- 18:50:58 -->
      <g transform="translate(352.860378 500.4725)rotate(-90)scale(0.1 -0.1)">
       <use xlink:href="#DejaVuSans-49"/>
       <use x="63.623047" xlink:href="#DejaVuSans-56"/>
       <use x="127.246094" xlink:href="#DejaVuSans-58"/>
       <use x="160.9375" xlink:href="#DejaVuSans-53"/>
       <use x="224.560547" xlink:href="#DejaVuSans-48"/>
       <use x="288.183594" xlink:href="#DejaVuSans-58"/>
       <use x="321.875" xlink:href="#DejaVuSans-53"/>
       <use x="385.498047" xlink:href="#DejaVuSans-56"/>
      </g>
     </g>
    </g>
    <g id="xtick_11">
     <g id="line2d_11">
      <g>
       <use style="stroke:#000000;stroke-width:0.8;" x="374.29566" xlink:href="#m1efd93bc50" y="448.56"/>
      </g>
     </g>
     <g id="text_11">
      <!-- 18:52:51 -->
      <g transform="translate(377.055035 500.4725)rotate(-90)scale(0.1 -0.1)">
       <use xlink:href="#DejaVuSans-49"/>
       <use x="63.623047" xlink:href="#DejaVuSans-56"/>
       <use x="127.246094" xlink:href="#DejaVuSans-58"/>
       <use x="160.9375" xlink:href="#DejaVuSans-53"/>
       <use x="224.560547" xlink:href="#DejaVuSans-50"/>
       <use x="288.183594" xlink:href="#DejaVuSans-58"/>
       <use x="321.875" xlink:href="#DejaVuSans-53"/>
       <use x="385.498047" xlink:href="#DejaVuSans-49"/>
      </g>
     </g>
    </g>
    <g id="xtick_12">
     <g id="line2d_12">
      <g>
       <use style="stroke:#000000;stroke-width:0.8;" x="398.490317" xlink:href="#m1efd93bc50" y="448.56"/>
      </g>
     </g>
     <g id="text_12">
      <!-- 18:54:44 -->
      <g transform="translate(401.249692 500.4725)rotate(-90)scale(0.1 -0.1)">
       <use xlink:href="#DejaVuSans-49"/>
       <use x="63.623047" xlink:href="#DejaVuSans-56"/>
       <use x="127.246094" xlink:href="#DejaVuSans-58"/>
       <use x="160.9375" xlink:href="#DejaVuSans-53"/>
       <use x="224.560547" xlink:href="#DejaVuSans-52"/>
       <use x="288.183594" xlink:href="#DejaVuSans-58"/>
       <use x="321.875" xlink:href="#DejaVuSans-52"/>
       <use x="385.498047" xlink:href="#DejaVuSans-52"/>
      </g>
     </g>
    </g>
    <g id="xtick_13">
     <g id="line2d_13">
      <g>
       <use style="stroke:#000000;stroke-width:0.8;" x="422.684974" xlink:href="#m1efd93bc50" y="448.56"/>
      </g>
     </g>
     <g id="text_13">
      <!-- 18:56:37 -->
      <g transform="translate(425.444349 500.4725)rotate(-90)scale(0.1 -0.1)">
       <use xlink:href="#DejaVuSans-49"/>
       <use x="63.623047" xlink:href="#DejaVuSans-56"/>
       <use x="127.246094" xlink:href="#DejaVuSans-58"/>
       <use x="160.9375" xlink:href="#DejaVuSans-53"/>
       <use x="224.560547" xlink:href="#DejaVuSans-54"/>
       <use x="288.183594" xlink:href="#DejaVuSans-58"/>
       <use x="321.875" xlink:href="#DejaVuSans-51"/>
       <use x="385.498047" xlink:href="#DejaVuSans-55"/>
      </g>
     </g>
    </g>
    <g id="xtick_14">
     <g id="line2d_14">
      <g>
       <use style="stroke:#000000;stroke-width:0.8;" x="446.879631" xlink:href="#m1efd93bc50" y="448.56"/>
      </g>
     </g>
     <g id="text_14">
      <!-- 18:58:30 -->
      <g transform="translate(449.639006 500.4725)rotate(-90)scale(0.1 -0.1)">
       <use xlink:href="#DejaVuSans-49"/>
       <use x="63.623047" xlink:href="#DejaVuSans-56"/>
       <use x="127.246094" xlink:href="#DejaVuSans-58"/>
       <use x="160.9375" xlink:href="#DejaVuSans-53"/>
       <use x="224.560547" xlink:href="#DejaVuSans-56"/>
       <use x="288.183594" xlink:href="#DejaVuSans-58"/>
       <use x="321.875" xlink:href="#DejaVuSans-51"/>
       <use x="385.498047" xlink:href="#DejaVuSans-48"/>
      </g>
     </g>
    </g>
    <g id="xtick_15">
     <g id="line2d_15">
      <g>
       <use style="stroke:#000000;stroke-width:0.8;" x="471.074288" xlink:href="#m1efd93bc50" y="448.56"/>
      </g>
     </g>
     <g id="text_15">
      <!-- 19:00:23 -->
      <g transform="translate(473.833663 500.4725)rotate(-90)scale(0.1 -0.1)">
       <use xlink:href="#DejaVuSans-49"/>
       <use x="63.623047" xlink:href="#DejaVuSans-57"/>
       <use x="127.246094" xlink:href="#DejaVuSans-58"/>
       <use x="160.9375" xlink:href="#DejaVuSans-48"/>
       <use x="224.560547" xlink:href="#DejaVuSans-48"/>
       <use x="288.183594" xlink:href="#DejaVuSans-58"/>
       <use x="321.875" xlink:href="#DejaVuSans-50"/>
       <use x="385.498047" xlink:href="#DejaVuSans-51"/>
      </g>
     </g>
    </g>
    <g id="xtick_16">
     <g id="line2d_16">
      <g>
       <use style="stroke:#000000;stroke-width:0.8;" x="495.268945" xlink:href="#m1efd93bc50" y="448.56"/>
      </g>
     </g>
     <g id="text_16">
      <!-- 19:02:16 -->
      <g transform="translate(498.02832 500.4725)rotate(-90)scale(0.1 -0.1)">
       <use xlink:href="#DejaVuSans-49"/>
       <use x="63.623047" xlink:href="#DejaVuSans-57"/>
       <use x="127.246094" xlink:href="#DejaVuSans-58"/>
       <use x="160.9375" xlink:href="#DejaVuSans-48"/>
       <use x="224.560547" xlink:href="#DejaVuSans-50"/>
       <use x="288.183594" xlink:href="#DejaVuSans-58"/>
       <use x="321.875" xlink:href="#DejaVuSans-49"/>
       <use x="385.498047" xlink:href="#DejaVuSans-54"/>
      </g>
     </g>
    </g>
    <g id="xtick_17">
     <g id="line2d_17">
      <g>
       <use style="stroke:#000000;stroke-width:0.8;" x="519.463602" xlink:href="#m1efd93bc50" y="448.56"/>
      </g>
     </g>
     <g id="text_17">
      <!-- 19:04:09 -->
      <g transform="translate(522.222977 500.4725)rotate(-90)scale(0.1 -0.1)">
       <use xlink:href="#DejaVuSans-49"/>
       <use x="63.623047" xlink:href="#DejaVuSans-57"/>
       <use x="127.246094" xlink:href="#DejaVuSans-58"/>
       <use x="160.9375" xlink:href="#DejaVuSans-48"/>
       <use x="224.560547" xlink:href="#DejaVuSans-52"/>
       <use x="288.183594" xlink:href="#DejaVuSans-58"/>
       <use x="321.875" xlink:href="#DejaVuSans-48"/>
       <use x="385.498047" xlink:href="#DejaVuSans-57"/>
      </g>
     </g>
    </g>
    <g id="xtick_18">
     <g id="line2d_18">
      <g>
       <use style="stroke:#000000;stroke-width:0.8;" x="543.658259" xlink:href="#m1efd93bc50" y="448.56"/>
      </g>
     </g>
     <g id="text_18">
      <!-- 19:06:02 -->
      <g transform="translate(546.417634 500.4725)rotate(-90)scale(0.1 -0.1)">
       <use xlink:href="#DejaVuSans-49"/>
       <use x="63.623047" xlink:href="#DejaVuSans-57"/>
       <use x="127.246094" xlink:href="#DejaVuSans-58"/>
       <use x="160.9375" xlink:href="#DejaVuSans-48"/>
       <use x="224.560547" xlink:href="#DejaVuSans-54"/>
       <use x="288.183594" xlink:href="#DejaVuSans-58"/>
       <use x="321.875" xlink:href="#DejaVuSans-48"/>
       <use x="385.498047" xlink:href="#DejaVuSans-50"/>
      </g>
     </g>
    </g>
    <g id="xtick_19">
     <g id="line2d_19">
      <g>
       <use style="stroke:#000000;stroke-width:0.8;" x="567.852916" xlink:href="#m1efd93bc50" y="448.56"/>
      </g>
     </g>
     <g id="text_19">
      <!-- 19:07:54 -->
      <g transform="translate(570.612291 500.4725)rotate(-90)scale(0.1 -0.1)">
       <use xlink:href="#DejaVuSans-49"/>
       <use x="63.623047" xlink:href="#DejaVuSans-57"/>
       <use x="127.246094" xlink:href="#DejaVuSans-58"/>
       <use x="160.9375" xlink:href="#DejaVuSans-48"/>
       <use x="224.560547" xlink:href="#DejaVuSans-55"/>
       <use x="288.183594" xlink:href="#DejaVuSans-58"/>
       <use x="321.875" xlink:href="#DejaVuSans-53"/>
       <use x="385.498047" xlink:href="#DejaVuSans-52"/>
      </g>
     </g>
    </g>
    <g id="xtick_20">
     <g id="line2d_20">
      <g>
       <use style="stroke:#000000;stroke-width:0.8;" x="592.047573" xlink:href="#m1efd93bc50" y="448.56"/>
      </g>
     </g>
     <g id="text_20">
      <!-- 19:09:47 -->
      <g transform="translate(594.806948 500.4725)rotate(-90)scale(0.1 -0.1)">
       <use xlink:href="#DejaVuSans-49"/>
       <use x="63.623047" xlink:href="#DejaVuSans-57"/>
       <use x="127.246094" xlink:href="#DejaVuSans-58"/>
       <use x="160.9375" xlink:href="#DejaVuSans-48"/>
       <use x="224.560547" xlink:href="#DejaVuSans-57"/>
       <use x="288.183594" xlink:href="#DejaVuSans-58"/>
       <use x="321.875" xlink:href="#DejaVuSans-52"/>
       <use x="385.498047" xlink:href="#DejaVuSans-55"/>
      </g>
     </g>
    </g>
    <g id="xtick_21">
     <g id="line2d_21">
      <g>
       <use style="stroke:#000000;stroke-width:0.8;" x="616.242229" xlink:href="#m1efd93bc50" y="448.56"/>
      </g>
     </g>
     <g id="text_21">
      <!-- 19:11:41 -->
      <g transform="translate(619.001604 500.4725)rotate(-90)scale(0.1 -0.1)">
       <use xlink:href="#DejaVuSans-49"/>
       <use x="63.623047" xlink:href="#DejaVuSans-57"/>
       <use x="127.246094" xlink:href="#DejaVuSans-58"/>
       <use x="160.9375" xlink:href="#DejaVuSans-49"/>
       <use x="224.560547" xlink:href="#DejaVuSans-49"/>
       <use x="288.183594" xlink:href="#DejaVuSans-58"/>
       <use x="321.875" xlink:href="#DejaVuSans-52"/>
       <use x="385.498047" xlink:href="#DejaVuSans-49"/>
      </g>
     </g>
    </g>
    <g id="text_22">
     <!-- timestamp -->
     <g transform="translate(354.264375 510.55125)scale(0.08 -0.08)">
      <defs>
       <path d="M 18.3125 70.21875 
L 18.3125 54.6875 
L 36.8125 54.6875 
L 36.8125 47.703125 
L 18.3125 47.703125 
L 18.3125 18.015625 
Q 18.3125 11.328125 20.140625 9.421875 
Q 21.96875 7.515625 27.59375 7.515625 
L 36.8125 7.515625 
L 36.8125 0 
L 27.59375 0 
Q 17.1875 0 13.234375 3.875 
Q 9.28125 7.765625 9.28125 18.015625 
L 9.28125 47.703125 
L 2.6875 47.703125 
L 2.6875 54.6875 
L 9.28125 54.6875 
L 9.28125 70.21875 
z
" id="DejaVuSans-116"/>
       <path d="M 9.421875 54.6875 
L 18.40625 54.6875 
L 18.40625 0 
L 9.421875 0 
z
M 9.421875 75.984375 
L 18.40625 75.984375 
L 18.40625 64.59375 
L 9.421875 64.59375 
z
" id="DejaVuSans-105"/>
       <path d="M 52 44.1875 
Q 55.375 50.25 60.0625 53.125 
Q 64.75 56 71.09375 56 
Q 79.640625 56 84.28125 50.015625 
Q 88.921875 44.046875 88.921875 33.015625 
L 88.921875 0 
L 79.890625 0 
L 79.890625 32.71875 
Q 79.890625 40.578125 77.09375 44.375 
Q 74.3125 48.1875 68.609375 48.1875 
Q 61.625 48.1875 57.5625 43.546875 
Q 53.515625 38.921875 53.515625 30.90625 
L 53.515625 0 
L 44.484375 0 
L 44.484375 32.71875 
Q 44.484375 40.625 41.703125 44.40625 
Q 38.921875 48.1875 33.109375 48.1875 
Q 26.21875 48.1875 22.15625 43.53125 
Q 18.109375 38.875 18.109375 30.90625 
L 18.109375 0 
L 9.078125 0 
L 9.078125 54.6875 
L 18.109375 54.6875 
L 18.109375 46.1875 
Q 21.1875 51.21875 25.484375 53.609375 
Q 29.78125 56 35.6875 56 
Q 41.65625 56 45.828125 52.96875 
Q 50 49.953125 52 44.1875 
z
" id="DejaVuSans-109"/>
       <path d="M 56.203125 29.59375 
L 56.203125 25.203125 
L 14.890625 25.203125 
Q 15.484375 15.921875 20.484375 11.0625 
Q 25.484375 6.203125 34.421875 6.203125 
Q 39.59375 6.203125 44.453125 7.46875 
Q 49.3125 8.734375 54.109375 11.28125 
L 54.109375 2.78125 
Q 49.265625 0.734375 44.1875 -0.34375 
Q 39.109375 -1.421875 33.890625 -1.421875 
Q 20.796875 -1.421875 13.15625 6.1875 
Q 5.515625 13.8125 5.515625 26.8125 
Q 5.515625 40.234375 12.765625 48.109375 
Q 20.015625 56 32.328125 56 
Q 43.359375 56 49.78125 48.890625 
Q 56.203125 41.796875 56.203125 29.59375 
z
M 47.21875 32.234375 
Q 47.125 39.59375 43.09375 43.984375 
Q 39.0625 48.390625 32.421875 48.390625 
Q 24.90625 48.390625 20.390625 44.140625 
Q 15.875 39.890625 15.1875 32.171875 
z
" id="DejaVuSans-101"/>
       <path d="M 44.28125 53.078125 
L 44.28125 44.578125 
Q 40.484375 46.53125 36.375 47.5 
Q 32.28125 48.484375 27.875 48.484375 
Q 21.1875 48.484375 17.84375 46.4375 
Q 14.5 44.390625 14.5 40.28125 
Q 14.5 37.15625 16.890625 35.375 
Q 19.28125 33.59375 26.515625 31.984375 
L 29.59375 31.296875 
Q 39.15625 29.25 43.1875 25.515625 
Q 47.21875 21.78125 47.21875 15.09375 
Q 47.21875 7.46875 41.1875 3.015625 
Q 35.15625 -1.421875 24.609375 -1.421875 
Q 20.21875 -1.421875 15.453125 -0.5625 
Q 10.6875 0.296875 5.421875 2 
L 5.421875 11.28125 
Q 10.40625 8.6875 15.234375 7.390625 
Q 20.0625 6.109375 24.8125 6.109375 
Q 31.15625 6.109375 34.5625 8.28125 
Q 37.984375 10.453125 37.984375 14.40625 
Q 37.984375 18.0625 35.515625 20.015625 
Q 33.0625 21.96875 24.703125 23.78125 
L 21.578125 24.515625 
Q 13.234375 26.265625 9.515625 29.90625 
Q 5.8125 33.546875 5.8125 39.890625 
Q 5.8125 47.609375 11.28125 51.796875 
Q 16.75 56 26.8125 56 
Q 31.78125 56 36.171875 55.265625 
Q 40.578125 54.546875 44.28125 53.078125 
z
" id="DejaVuSans-115"/>
       <path d="M 34.28125 27.484375 
Q 23.390625 27.484375 19.1875 25 
Q 14.984375 22.515625 14.984375 16.5 
Q 14.984375 11.71875 18.140625 8.90625 
Q 21.296875 6.109375 26.703125 6.109375 
Q 34.1875 6.109375 38.703125 11.40625 
Q 43.21875 16.703125 43.21875 25.484375 
L 43.21875 27.484375 
z
M 52.203125 31.203125 
L 52.203125 0 
L 43.21875 0 
L 43.21875 8.296875 
Q 40.140625 3.328125 35.546875 0.953125 
Q 30.953125 -1.421875 24.3125 -1.421875 
Q 15.921875 -1.421875 10.953125 3.296875 
Q 6 8.015625 6 15.921875 
Q 6 25.140625 12.171875 29.828125 
Q 18.359375 34.515625 30.609375 34.515625 
L 43.21875 34.515625 
L 43.21875 35.40625 
Q 43.21875 41.609375 39.140625 45 
Q 35.0625 48.390625 27.6875 48.390625 
Q 23 48.390625 18.546875 47.265625 
Q 14.109375 46.140625 10.015625 43.890625 
L 10.015625 52.203125 
Q 14.9375 54.109375 19.578125 55.046875 
Q 24.21875 56 28.609375 56 
Q 40.484375 56 46.34375 49.84375 
Q 52.203125 43.703125 52.203125 31.203125 
z
" id="DejaVuSans-97"/>
       <path d="M 18.109375 8.203125 
L 18.109375 -20.796875 
L 9.078125 -20.796875 
L 9.078125 54.6875 
L 18.109375 54.6875 
L 18.109375 46.390625 
Q 20.953125 51.265625 25.265625 53.625 
Q 29.59375 56 35.59375 56 
Q 45.5625 56 51.78125 48.09375 
Q 58.015625 40.1875 58.015625 27.296875 
Q 58.015625 14.40625 51.78125 6.484375 
Q 45.5625 -1.421875 35.59375 -1.421875 
Q 29.59375 -1.421875 25.265625 0.953125 
Q 20.953125 3.328125 18.109375 8.203125 
z
M 48.6875 27.296875 
Q 48.6875 37.203125 44.609375 42.84375 
Q 40.53125 48.484375 33.40625 48.484375 
Q 26.265625 48.484375 22.1875 42.84375 
Q 18.109375 37.203125 18.109375 27.296875 
Q 18.109375 17.390625 22.1875 11.75 
Q 26.265625 6.109375 33.40625 6.109375 
Q 40.53125 6.109375 44.609375 11.75 
Q 48.6875 17.390625 48.6875 27.296875 
z
" id="DejaVuSans-112"/>
      </defs>
      <use xlink:href="#DejaVuSans-116"/>
      <use x="39.208984" xlink:href="#DejaVuSans-105"/>
      <use x="66.992188" xlink:href="#DejaVuSans-109"/>
      <use x="164.404297" xlink:href="#DejaVuSans-101"/>
      <use x="225.927734" xlink:href="#DejaVuSans-115"/>
      <use x="278.027344" xlink:href="#DejaVuSans-116"/>
      <use x="317.236328" xlink:href="#DejaVuSans-97"/>
      <use x="378.515625" xlink:href="#DejaVuSans-109"/>
      <use x="475.927734" xlink:href="#DejaVuSans-112"/>
     </g>
    </g>
   </g>
   <g id="matplotlib.axis_2">
    <g id="ytick_1">
     <g id="line2d_22">
      <defs>
       <path d="M 0 0 
L -3.5 0 
" id="m4e12c5b3bf" style="stroke:#000000;stroke-width:0.8;"/>
      </defs>
      <g>
       <use style="stroke:#000000;stroke-width:0.8;" x="108" xlink:href="#m4e12c5b3bf" y="433.817628"/>
      </g>
     </g>
     <g id="text_23">
      <!-- 11200 -->
      <g transform="translate(69.1875 437.616847)scale(0.1 -0.1)">
       <use xlink:href="#DejaVuSans-49"/>
       <use x="63.623047" xlink:href="#DejaVuSans-49"/>
       <use x="127.246094" xlink:href="#DejaVuSans-50"/>
       <use x="190.869141" xlink:href="#DejaVuSans-48"/>
       <use x="254.492188" xlink:href="#DejaVuSans-48"/>
      </g>
     </g>
    </g>
    <g id="ytick_2">
     <g id="line2d_23">
      <g>
       <use style="stroke:#000000;stroke-width:0.8;" x="108" xlink:href="#m4e12c5b3bf" y="389.836974"/>
      </g>
     </g>
     <g id="text_24">
      <!-- 11400 -->
      <g transform="translate(69.1875 393.636193)scale(0.1 -0.1)">
       <use xlink:href="#DejaVuSans-49"/>
       <use x="63.623047" xlink:href="#DejaVuSans-49"/>
       <use x="127.246094" xlink:href="#DejaVuSans-52"/>
       <use x="190.869141" xlink:href="#DejaVuSans-48"/>
       <use x="254.492188" xlink:href="#DejaVuSans-48"/>
      </g>
     </g>
    </g>
    <g id="ytick_3">
     <g id="line2d_24">
      <g>
       <use style="stroke:#000000;stroke-width:0.8;" x="108" xlink:href="#m4e12c5b3bf" y="345.85632"/>
      </g>
     </g>
     <g id="text_25">
      <!-- 11600 -->
      <g transform="translate(69.1875 349.655539)scale(0.1 -0.1)">
       <use xlink:href="#DejaVuSans-49"/>
       <use x="63.623047" xlink:href="#DejaVuSans-49"/>
       <use x="127.246094" xlink:href="#DejaVuSans-54"/>
       <use x="190.869141" xlink:href="#DejaVuSans-48"/>
       <use x="254.492188" xlink:href="#DejaVuSans-48"/>
      </g>
     </g>
    </g>
    <g id="ytick_4">
     <g id="line2d_25">
      <g>
       <use style="stroke:#000000;stroke-width:0.8;" x="108" xlink:href="#m4e12c5b3bf" y="301.875666"/>
      </g>
     </g>
     <g id="text_26">
      <!-- 11800 -->
      <g transform="translate(69.1875 305.674885)scale(0.1 -0.1)">
       <use xlink:href="#DejaVuSans-49"/>
       <use x="63.623047" xlink:href="#DejaVuSans-49"/>
       <use x="127.246094" xlink:href="#DejaVuSans-56"/>
       <use x="190.869141" xlink:href="#DejaVuSans-48"/>
       <use x="254.492188" xlink:href="#DejaVuSans-48"/>
      </g>
     </g>
    </g>
    <g id="ytick_5">
     <g id="line2d_26">
      <g>
       <use style="stroke:#000000;stroke-width:0.8;" x="108" xlink:href="#m4e12c5b3bf" y="257.895012"/>
      </g>
     </g>
     <g id="text_27">
      <!-- 12000 -->
      <g transform="translate(69.1875 261.694231)scale(0.1 -0.1)">
       <use xlink:href="#DejaVuSans-49"/>
       <use x="63.623047" xlink:href="#DejaVuSans-50"/>
       <use x="127.246094" xlink:href="#DejaVuSans-48"/>
       <use x="190.869141" xlink:href="#DejaVuSans-48"/>
       <use x="254.492188" xlink:href="#DejaVuSans-48"/>
      </g>
     </g>
    </g>
    <g id="ytick_6">
     <g id="line2d_27">
      <g>
       <use style="stroke:#000000;stroke-width:0.8;" x="108" xlink:href="#m4e12c5b3bf" y="213.914358"/>
      </g>
     </g>
     <g id="text_28">
      <!-- 12200 -->
      <g transform="translate(69.1875 217.713577)scale(0.1 -0.1)">
       <use xlink:href="#DejaVuSans-49"/>
       <use x="63.623047" xlink:href="#DejaVuSans-50"/>
       <use x="127.246094" xlink:href="#DejaVuSans-50"/>
       <use x="190.869141" xlink:href="#DejaVuSans-48"/>
       <use x="254.492188" xlink:href="#DejaVuSans-48"/>
      </g>
     </g>
    </g>
    <g id="ytick_7">
     <g id="line2d_28">
      <g>
       <use style="stroke:#000000;stroke-width:0.8;" x="108" xlink:href="#m4e12c5b3bf" y="169.933704"/>
      </g>
     </g>
     <g id="text_29">
      <!-- 12400 -->
      <g transform="translate(69.1875 173.732923)scale(0.1 -0.1)">
       <use xlink:href="#DejaVuSans-49"/>
       <use x="63.623047" xlink:href="#DejaVuSans-50"/>
       <use x="127.246094" xlink:href="#DejaVuSans-52"/>
       <use x="190.869141" xlink:href="#DejaVuSans-48"/>
       <use x="254.492188" xlink:href="#DejaVuSans-48"/>
      </g>
     </g>
    </g>
    <g id="ytick_8">
     <g id="line2d_29">
      <g>
       <use style="stroke:#000000;stroke-width:0.8;" x="108" xlink:href="#m4e12c5b3bf" y="125.95305"/>
      </g>
     </g>
     <g id="text_30">
      <!-- 12600 -->
      <g transform="translate(69.1875 129.752269)scale(0.1 -0.1)">
       <use xlink:href="#DejaVuSans-49"/>
       <use x="63.623047" xlink:href="#DejaVuSans-50"/>
       <use x="127.246094" xlink:href="#DejaVuSans-54"/>
       <use x="190.869141" xlink:href="#DejaVuSans-48"/>
       <use x="254.492188" xlink:href="#DejaVuSans-48"/>
      </g>
     </g>
    </g>
    <g id="ytick_9">
     <g id="line2d_30">
      <g>
       <use style="stroke:#000000;stroke-width:0.8;" x="108" xlink:href="#m4e12c5b3bf" y="81.972396"/>
      </g>
     </g>
     <g id="text_31">
      <!-- 12800 -->
      <g transform="translate(69.1875 85.771614)scale(0.1 -0.1)">
       <use xlink:href="#DejaVuSans-49"/>
       <use x="63.623047" xlink:href="#DejaVuSans-50"/>
       <use x="127.246094" xlink:href="#DejaVuSans-56"/>
       <use x="190.869141" xlink:href="#DejaVuSans-48"/>
       <use x="254.492188" xlink:href="#DejaVuSans-48"/>
      </g>
     </g>
    </g>
    <g id="text_32">
     <!-- MB -->
     <g transform="translate(63.52375 260.715625)rotate(-90)scale(0.08 -0.08)">
      <defs>
       <path d="M 9.8125 72.90625 
L 24.515625 72.90625 
L 43.109375 23.296875 
L 61.8125 72.90625 
L 76.515625 72.90625 
L 76.515625 0 
L 66.890625 0 
L 66.890625 64.015625 
L 48.09375 14.015625 
L 38.1875 14.015625 
L 19.390625 64.015625 
L 19.390625 0 
L 9.8125 0 
z
" id="DejaVuSans-77"/>
       <path d="M 19.671875 34.8125 
L 19.671875 8.109375 
L 35.5 8.109375 
Q 43.453125 8.109375 47.28125 11.40625 
Q 51.125 14.703125 51.125 21.484375 
Q 51.125 28.328125 47.28125 31.5625 
Q 43.453125 34.8125 35.5 34.8125 
z
M 19.671875 64.796875 
L 19.671875 42.828125 
L 34.28125 42.828125 
Q 41.5 42.828125 45.03125 45.53125 
Q 48.578125 48.25 48.578125 53.8125 
Q 48.578125 59.328125 45.03125 62.0625 
Q 41.5 64.796875 34.28125 64.796875 
z
M 9.8125 72.90625 
L 35.015625 72.90625 
Q 46.296875 72.90625 52.390625 68.21875 
Q 58.5 63.53125 58.5 54.890625 
Q 58.5 48.1875 55.375 44.234375 
Q 52.25 40.28125 46.1875 39.3125 
Q 53.46875 37.75 57.5 32.78125 
Q 61.53125 27.828125 61.53125 20.40625 
Q 61.53125 10.640625 54.890625 5.3125 
Q 48.25 0 35.984375 0 
L 9.8125 0 
z
" id="DejaVuSans-66"/>
      </defs>
      <use xlink:href="#DejaVuSans-77"/>
      <use x="86.279297" xlink:href="#DejaVuSans-66"/>
     </g>
    </g>
   </g>
   <g id="line2d_31">
    <path clip-path="url(#p93f2c8b05c)" d="M 132.349091 80.494308 
L 132.606481 80.537543 
L 132.863871 78.662236 
L 133.121261 79.402631 
L 133.378651 79.219784 
L 133.636041 78.815359 
L 133.893431 78.175845 
L 134.150821 80.243006 
L 134.665601 78.82977 
L 134.922991 78.200164 
L 135.180381 78.12 
L 135.437771 80.53394 
L 135.95255 102.37469 
L 136.20994 116.714213 
L 136.72472 171.561987 
L 137.2395 237.96875 
L 138.52645 369.451906 
L 139.04123 407.229163 
L 139.29862 406.930122 
L 139.55601 406.397795 
L 139.8134 406.234764 
L 140.07079 408.775705 
L 140.58557 407.526402 
L 140.84296 408.266797 
L 141.10035 410.674431 
L 141.35774 410.215963 
L 141.61513 410.441144 
L 141.87252 409.861078 
L 142.12991 411.474274 
L 142.3873 411.139205 
L 142.64469 411.250894 
L 142.90208 410.773511 
L 143.15947 410.572649 
L 143.41686 411.975076 
L 143.931639 411.483281 
L 144.189029 410.709559 
L 144.446419 411.254497 
L 144.703809 410.414122 
L 144.961199 412.280422 
L 145.218589 411.410323 
L 145.733369 413.095577 
L 145.990759 413.218075 
L 146.248149 412.217371 
L 146.505539 412.351579 
L 146.762929 413.017214 
L 147.020319 412.905524 
L 147.277709 412.356083 
L 147.535099 411.43194 
L 147.792489 413.464874 
L 148.049879 413.78373 
L 148.307269 413.243296 
L 148.564659 415.618504 
L 148.822049 416.080575 
L 149.079439 416.049951 
L 149.336829 415.851792 
L 149.594219 413.682849 
L 150.366389 412.134505 
L 150.623779 412.247996 
L 150.881169 411.014905 
L 151.653338 413.130705 
L 151.910728 411.694951 
L 152.168118 412.071454 
L 152.425508 413.707168 
L 152.682898 412.782125 
L 152.940288 412.409225 
L 153.197678 411.503097 
L 153.455068 413.29824 
L 153.712458 413.308148 
L 154.227238 412.40292 
L 154.484628 412.701961 
L 154.742018 413.288332 
L 154.999408 413.461271 
L 155.256798 413.332467 
L 155.514188 412.175938 
L 155.771578 412.721776 
L 156.028968 412.852381 
L 156.543748 411.580559 
L 156.801138 412.272315 
L 157.058528 412.492092 
L 157.573308 411.101374 
L 157.830698 411.35718 
L 158.088088 412.574958 
L 158.602868 412.81365 
L 158.860258 412.14171 
L 159.117648 412.362388 
L 159.375037 413.426142 
L 159.632427 413.532428 
L 159.889817 412.418233 
L 160.404597 414.340377 
L 160.661987 413.828766 
L 160.919377 412.940652 
L 161.176767 412.535327 
L 161.434157 413.73419 
L 161.948937 412.162427 
L 162.206327 412.241691 
L 162.463717 411.935445 
L 162.721107 412.80104 
L 162.978497 412.886609 
L 163.235887 412.010205 
L 163.493277 411.937246 
L 163.750667 413.448661 
L 164.008057 413.599982 
L 164.265447 413.160429 
L 164.522837 412.207463 
L 164.780227 414.07016 
L 165.295007 414.836676 
L 165.552397 413.704466 
L 165.809787 413.43515 
L 166.067177 413.586471 
L 166.324567 413.300041 
L 166.581957 411.914728 
L 166.839347 412.21647 
L 167.096736 413.732389 
L 167.354126 413.789134 
L 167.868906 413.400021 
L 168.126296 411.809343 
L 168.383686 414.280929 
L 168.641076 413.648621 
L 168.898466 413.65943 
L 169.155856 413.28653 
L 169.413246 413.893618 
L 169.670636 413.611692 
L 169.928026 413.780127 
L 170.185416 413.154124 
L 170.442806 412.953262 
L 170.700196 414.280029 
L 170.957586 414.052145 
L 171.214976 413.356787 
L 171.472366 413.036129 
L 171.729756 413.777425 
L 172.244536 414.002606 
L 172.501926 413.295537 
L 172.759316 415.316762 
L 173.016706 414.353888 
L 173.531486 413.189252 
L 173.788876 413.735091 
L 174.046266 412.999199 
L 174.303656 413.039732 
L 174.818436 411.950757 
L 175.075825 414.380009 
L 175.590605 413.690955 
L 175.847995 413.008207 
L 176.362775 414.643921 
L 176.620165 414.540338 
L 176.877555 413.471179 
L 177.392335 414.236794 
L 177.649725 414.354789 
L 177.907115 414.334072 
L 178.164505 413.500903 
L 178.421895 415.122205 
L 178.679285 414.769122 
L 179.194065 412.662329 
L 179.451455 413.75851 
L 179.708845 415.371706 
L 180.223625 413.847681 
L 180.481015 411.839067 
L 180.738405 416.394027 
L 180.995795 416.626414 
L 181.253185 416.444468 
L 181.510575 415.858097 
L 181.767965 413.979187 
L 182.282745 414.451166 
L 182.540135 415.99951 
L 182.797525 416.654337 
L 183.054914 415.148326 
L 183.312304 415.005111 
L 183.569694 415.074467 
L 183.827084 414.031429 
L 184.084474 414.543941 
L 184.599254 412.66413 
L 184.856644 412.592973 
L 185.371424 414.560154 
L 185.886204 414.615098 
L 186.143594 412.448857 
L 186.400984 414.822264 
L 186.658374 414.086373 
L 186.915764 414.08277 
L 187.173154 412.841573 
L 187.430544 412.731684 
L 187.687934 413.395518 
L 187.945324 413.420738 
L 188.202714 412.795636 
L 188.717494 414.224184 
L 188.974884 414.014315 
L 189.232274 414.585374 
L 189.489664 413.681047 
L 189.747054 414.532231 
L 190.261834 413.662132 
L 190.519224 413.558549 
L 190.776613 413.125301 
L 191.034003 414.087274 
L 191.548783 414.126906 
L 191.806173 413.114492 
L 192.063563 413.654026 
L 192.578343 413.569358 
L 192.835733 412.743394 
L 193.093123 413.657628 
L 193.350513 413.953066 
L 193.607903 414.010712 
L 193.865293 413.306346 
L 194.122683 413.810751 
L 194.380073 414.886216 
L 194.637463 414.869102 
L 195.152243 413.682849 
L 195.409633 414.878109 
L 195.667023 414.144019 
L 195.924413 413.756708 
L 196.181803 413.068555 
L 196.439193 413.760311 
L 196.696583 415.380713 
L 196.953973 414.652928 
L 197.211363 414.511515 
L 197.468753 414.173743 
L 197.726143 414.158431 
L 197.983533 414.410634 
L 198.240923 414.131409 
L 198.498313 413.208167 
L 198.755702 414.026024 
L 199.013092 413.990896 
L 199.270482 413.750403 
L 199.527872 413.337872 
L 199.785262 413.140613 
L 200.042652 414.271922 
L 200.300042 414.242198 
L 200.557432 413.167635 
L 200.814822 412.67584 
L 201.072212 413.320758 
L 201.329602 414.850187 
L 201.586992 414.673645 
L 201.844382 414.022422 
L 202.101772 414.45657 
L 202.359162 415.722988 
L 202.616552 414.900627 
L 202.873942 414.639417 
L 203.131332 414.217879 
L 203.388722 414.924046 
L 203.646112 414.885315 
L 203.903502 414.73039 
L 204.418282 414.013414 
L 204.933062 414.357491 
L 205.190452 414.402527 
L 205.447842 412.161526 
L 205.705232 414.479989 
L 206.220012 414.484493 
L 206.477401 413.441455 
L 206.992181 414.824966 
L 208.021741 412.866793 
L 208.279131 413.002802 
L 208.536521 412.946957 
L 208.793911 412.493893 
L 209.051301 412.88751 
L 209.308691 414.65473 
L 209.566081 414.531331 
L 210.080861 413.683749 
L 210.338251 414.938458 
L 210.595641 414.827669 
L 210.853031 414.544841 
L 211.110421 413.926044 
L 211.625201 415.953573 
L 211.882591 414.833073 
L 212.139981 414.286334 
L 212.397371 414.278227 
L 212.654761 414.147622 
L 212.912151 414.230489 
L 213.169541 417.289347 
L 213.426931 416.376914 
L 213.684321 418.190971 
L 213.941711 416.01212 
L 214.199101 415.427551 
L 214.45649 414.152126 
L 214.71388 413.807149 
L 214.97127 414.4935 
L 215.22866 414.423244 
L 215.48605 413.391915 
L 215.74344 414.063855 
L 216.00083 414.400726 
L 216.51561 413.985492 
L 216.773 413.200061 
L 217.28778 415.627511 
L 217.54517 415.570766 
L 217.80256 414.883514 
L 218.31734 415.034835 
L 218.57473 414.770022 
L 219.08951 413.500903 
L 219.60429 414.303447 
L 219.86168 414.333171 
L 220.11907 413.055044 
L 220.63385 415.46448 
L 220.89124 415.448267 
L 221.14863 413.876504 
L 221.40602 414.202566 
L 221.66341 414.806952 
L 221.9208 414.715078 
L 222.17819 414.470982 
L 222.435579 414.013414 
L 222.692969 415.847288 
L 222.950359 415.633816 
L 223.207749 415.749109 
L 223.465139 414.753809 
L 223.722529 415.196965 
L 223.979919 415.016821 
L 224.237309 415.104191 
L 224.494699 415.063658 
L 224.752089 414.607892 
L 225.009479 415.871608 
L 225.266869 416.337282 
L 225.524259 416.239103 
L 225.781649 415.795046 
L 226.039039 414.554749 
L 226.553819 414.470982 
L 227.068599 413.278424 
L 227.325989 415.19066 
L 227.583379 415.273527 
L 227.840769 415.193363 
L 228.098159 413.97108 
L 228.612939 416.128314 
L 228.870329 415.931055 
L 229.127719 414.968182 
L 229.385109 415.355493 
L 229.642499 416.361601 
L 229.899889 416.619208 
L 230.157278 416.240904 
L 230.414668 415.450069 
L 230.672058 416.294047 
L 230.929448 416.597591 
L 231.186838 416.55886 
L 231.444228 415.473488 
L 231.701618 415.254612 
L 231.959008 416.055355 
L 232.216398 415.639221 
L 232.473788 415.859898 
L 232.731178 415.530233 
L 232.988568 415.995907 
L 233.245958 416.184159 
L 233.503348 415.532035 
L 233.760738 414.460173 
L 234.018128 414.736696 
L 234.275518 415.969786 
L 234.532908 416.207578 
L 234.790298 415.349188 
L 235.047688 415.783337 
L 235.562468 416.004014 
L 235.819858 415.67525 
L 236.077248 414.788938 
L 236.592028 416.668748 
L 236.849418 416.785842 
L 237.106808 415.941864 
L 237.364198 416.191364 
L 237.878978 415.915743 
L 238.136367 415.826571 
L 238.393757 415.099687 
L 238.651147 415.665342 
L 239.165927 415.567163 
L 239.423317 414.897024 
L 240.195487 415.9869 
L 240.452877 415.287939 
L 240.967657 415.959878 
L 241.482437 415.671647 
L 241.739827 414.782632 
L 241.997217 416.236401 
L 242.254607 416.066164 
L 242.511997 415.722087 
L 242.769387 414.883514 
L 243.284167 416.514724 
L 243.541557 416.203074 
L 243.798947 416.194067 
L 244.056337 415.693264 
L 244.571117 416.440865 
L 244.828507 415.266321 
L 245.085897 417.196572 
L 245.343287 417.364107 
L 245.600677 418.270235 
L 245.858067 418.448578 
L 246.115456 415.248307 
L 246.372846 415.959878 
L 246.630236 415.7383 
L 246.887626 417.998216 
L 247.145016 418.435968 
L 247.402406 417.775738 
L 247.659796 416.129215 
L 247.917186 416.428255 
L 248.174576 415.490601 
L 248.431966 414.996104 
L 248.946746 416.193166 
L 249.204136 415.7374 
L 249.461526 415.012317 
L 249.718916 415.118602 
L 249.976306 415.713981 
L 250.233696 415.60139 
L 250.491086 415.840082 
L 250.748476 415.062758 
L 251.263256 415.696867 
L 251.520646 415.604993 
L 251.778036 415.133915 
L 252.035426 414.424144 
L 252.292816 416.357998 
L 252.807596 416.309359 
L 253.064986 415.457275 
L 253.322376 416.530037 
L 253.579766 416.163442 
L 253.837155 415.406834 
L 254.094545 414.267418 
L 254.609325 416.564264 
L 254.866715 415.997709 
L 255.124105 415.973389 
L 255.381495 415.32667 
L 255.638885 416.814665 
L 255.896275 416.720089 
L 256.153665 416.315664 
L 256.411055 415.390621 
L 256.668445 415.373507 
L 256.925835 416.16074 
L 257.183225 415.768925 
L 257.440615 416.13642 
L 257.698005 415.229391 
L 257.955395 416.717387 
L 258.212785 416.593988 
L 258.470175 414.91594 
L 258.727565 414.758313 
L 258.984955 415.139319 
L 259.242345 416.040043 
L 259.499735 415.922949 
L 259.757125 415.281633 
L 260.014515 415.58878 
L 260.271905 416.826375 
L 260.529295 416.655237 
L 260.786685 416.33548 
L 261.301465 415.012317 
L 261.558855 415.81306 
L 261.816244 415.689661 
L 262.073634 414.761916 
L 262.588414 415.614001 
L 262.845804 415.746407 
L 263.360584 415.205973 
L 263.617974 416.18596 
L 263.875364 415.948169 
L 264.132754 415.932857 
L 264.390144 415.315861 
L 264.647534 415.660838 
L 264.904924 416.590385 
L 265.162314 416.460681 
L 265.419704 415.468984 
L 265.934484 416.631818 
L 266.191874 416.803857 
L 266.449264 416.640826 
L 266.706654 416.068866 
L 266.964044 416.772331 
L 267.221434 416.343587 
L 267.478824 416.229195 
L 267.736214 415.591482 
L 268.250994 417.829781 
L 268.765774 417.297453 
L 269.023164 416.811062 
L 269.280554 416.702075 
L 269.795333 417.015527 
L 270.052723 416.084178 
L 270.310113 416.635421 
L 270.567503 417.893732 
L 271.082283 416.47239 
L 271.339673 417.040747 
L 271.597063 418.257625 
L 271.854453 418.45128 
L 272.111843 418.453983 
L 272.369233 417.769433 
L 272.626623 418.000018 
L 272.884013 417.109202 
L 273.141403 417.209182 
L 273.398793 416.394928 
L 273.656183 417.503719 
L 273.913573 417.892832 
L 274.428353 417.192969 
L 274.685743 416.482298 
L 274.943133 417.553259 
L 275.200523 417.824377 
L 275.457913 417.818072 
L 275.972693 418.509828 
L 276.230083 419.66996 
L 276.487473 419.678066 
L 276.744863 418.805265 
L 277.002253 418.452181 
L 277.259643 419.215995 
L 277.517032 422.104616 
L 277.774422 421.849711 
L 278.289202 420.406752 
L 278.546592 420.672465 
L 278.803982 420.622926 
L 279.061372 419.718599 
L 279.318762 418.311668 
L 279.576152 418.532346 
L 279.833542 418.444075 
L 280.090932 417.058762 
L 280.348322 417.341589 
L 280.605712 418.648539 
L 280.863102 418.663851 
L 281.377882 417.425356 
L 281.892662 419.480808 
L 282.150052 419.182668 
L 282.407442 418.311668 
L 282.922222 419.961794 
L 283.437002 419.90685 
L 283.694392 418.524239 
L 283.951782 419.12322 
L 284.209172 419.288053 
L 284.466562 419.128625 
L 284.723952 417.949577 
L 284.981342 418.789052 
L 285.238732 418.748519 
L 285.753511 417.114606 
L 286.268291 418.879124 
L 286.783071 418.593595 
L 287.040461 418.048657 
L 287.297851 418.588191 
L 287.555241 418.689072 
L 287.812631 418.464791 
L 288.070021 417.847796 
L 288.327411 418.74942 
L 288.584801 420.067179 
L 288.842191 419.763635 
L 289.099581 419.988816 
L 289.356971 419.492517 
L 289.871751 419.735713 
L 290.386531 418.179262 
L 290.643921 418.688171 
L 290.901311 420.103208 
L 291.158701 419.874424 
L 291.416091 419.258329 
L 291.673481 418.135126 
L 291.930871 419.274542 
L 292.445651 419.613214 
L 292.703041 418.553062 
L 292.960431 419.479006 
L 293.47521 419.120518 
L 293.7326 418.517033 
L 294.24738 420.252728 
L 294.76216 418.245015 
L 295.01955 418.383726 
L 295.27694 418.789052 
L 295.53433 418.871018 
L 296.04911 417.86581 
L 296.3065 418.726902 
L 296.56389 420.197784 
L 296.82128 420.017639 
L 297.07867 419.64474 
L 297.33606 418.371116 
L 297.59345 419.708691 
L 297.85084 419.708691 
L 298.10823 419.837494 
L 298.36562 418.969197 
L 298.62301 418.962892 
L 298.8804 418.677362 
L 299.13779 417.319071 
L 299.39518 417.310964 
L 299.65257 417.917151 
L 299.90996 419.102504 
L 300.16735 419.144838 
L 300.68213 418.826882 
L 300.93952 422.715307 
L 301.454299 421.670467 
L 301.711689 418.65034 
L 301.969079 419.546561 
L 302.226469 419.98161 
L 302.483859 419.818579 
L 302.741249 418.842195 
L 302.998639 418.495416 
L 303.256029 419.024141 
L 303.513419 419.231307 
L 303.770809 419.252925 
L 304.028199 417.817171 
L 304.800369 419.811373 
L 305.057759 418.466593 
L 305.315149 418.564772 
L 305.572539 419.229506 
L 305.829929 419.059269 
L 306.087319 419.105206 
L 306.344709 418.67466 
L 306.602099 420.376127 
L 306.859489 420.084293 
L 307.116879 420.259033 
L 307.374269 419.566377 
L 307.631659 420.256331 
L 307.889049 420.062675 
L 308.146439 418.442273 
L 308.403829 418.329683 
L 308.661219 417.970294 
L 308.918608 419.056567 
L 309.175998 419.029545 
L 309.433388 419.132228 
L 309.690778 421.563281 
L 310.205558 422.616227 
L 310.720338 418.535048 
L 310.977728 419.561873 
L 311.235118 423.247635 
L 311.492508 423.261146 
L 311.749898 420.734615 
L 312.007288 419.978007 
L 312.264678 421.366923 
L 312.522068 419.953688 
L 312.779458 420.036554 
L 313.036848 419.228605 
L 313.294238 420.170762 
L 313.551628 419.361012 
L 313.809018 419.183569 
L 314.066408 418.372918 
L 314.323798 418.853904 
L 314.581188 420.303169 
L 314.838578 420.407653 
L 315.095968 420.18067 
L 315.353358 418.919657 
L 315.610748 419.984312 
L 315.868138 420.057271 
L 316.125528 419.709592 
L 316.382918 419.029545 
L 316.640308 420.376127 
L 316.897697 420.694083 
L 317.155087 420.177968 
L 317.412477 420.213096 
L 317.669867 419.523142 
L 317.927257 420.576989 
L 318.184647 420.449086 
L 318.442037 419.779848 
L 318.699427 419.727606 
L 318.956817 419.373622 
L 319.214207 420.743623 
L 319.471597 420.625628 
L 319.728987 420.223004 
L 319.986377 418.181063 
L 320.243767 420.683274 
L 320.758547 420.000525 
L 321.015937 419.16015 
L 321.273327 419.916758 
L 321.530717 420.08069 
L 322.045497 419.12232 
L 322.560277 421.18858 
L 322.817667 420.971506 
L 323.075057 421.07599 
L 323.332447 419.940177 
L 323.589837 420.622025 
L 323.847227 420.250927 
L 324.104617 420.340098 
L 324.362007 419.003424 
L 324.619397 419.721301 
L 324.876786 420.880533 
L 325.134176 421.046266 
L 325.391566 420.730112 
L 325.648956 419.068276 
L 325.906346 420.150046 
L 326.163736 420.101406 
L 326.678516 419.382629 
L 326.935906 419.89424 
L 327.193296 421.416463 
L 327.450686 421.355214 
L 327.708076 420.474306 
L 327.965466 420.243721 
L 328.222856 421.545267 
L 328.480246 421.046266 
L 328.737636 421.219205 
L 328.995026 420.351808 
L 329.252416 420.39234 
L 329.509806 421.052571 
L 329.767196 420.980513 
L 330.024586 420.13113 
L 330.281976 420.742722 
L 330.539366 422.025353 
L 330.796756 421.950592 
L 331.054146 422.291066 
L 331.311536 420.876029 
L 331.568926 420.090598 
L 331.826316 420.978711 
L 332.083706 420.901249 
L 332.341096 420.619323 
L 332.598485 420.584194 
L 332.855875 421.919968 
L 333.370655 419.55827 
L 333.628045 419.598803 
L 333.885435 420.910256 
L 334.142825 421.352512 
L 334.657605 420.176167 
L 334.914995 420.476108 
L 335.172385 421.226411 
L 335.429775 421.416463 
L 335.687165 420.823787 
L 335.944555 422.734222 
L 336.201945 423.373736 
L 336.716725 423.271954 
L 336.974115 422.343308 
L 337.231505 422.90626 
L 337.488895 422.479317 
L 337.746285 422.378436 
L 338.003675 420.697686 
L 338.261065 421.545267 
L 338.518455 422.993631 
L 338.775845 422.834202 
L 339.033235 422.846813 
L 339.290625 422.186582 
L 339.548015 424.28707 
L 339.805405 423.26655 
L 340.062795 423.208003 
L 340.320185 422.23342 
L 340.577574 422.48292 
L 340.834964 423.188187 
L 341.092354 423.462007 
L 341.349744 422.902657 
L 341.607134 423.233223 
L 341.864524 426.04168 
L 342.121914 425.814698 
L 342.379304 425.246341 
L 342.636694 423.024255 
L 342.894084 424.948201 
L 343.151474 425.001344 
L 343.408864 424.53567 
L 343.923644 422.248732 
L 344.181034 423.24133 
L 344.438424 423.49083 
L 344.695814 423.423276 
L 344.953204 422.724314 
L 345.210594 423.794374 
L 345.725374 423.297175 
L 345.982764 422.639646 
L 346.240154 422.931481 
L 346.497544 423.770955 
L 346.754934 423.580903 
L 347.012324 423.232322 
L 347.269714 423.843914 
L 347.527104 423.745735 
L 348.041884 421.971309 
L 348.299273 422.409061 
L 348.556663 424.082606 
L 348.814053 422.384741 
L 349.071443 422.199192 
L 349.328833 421.509238 
L 350.101003 424.505045 
L 350.358393 424.737432 
L 350.615783 423.085504 
L 350.873173 423.624137 
L 351.387953 424.06369 
L 351.645343 423.386346 
L 352.160123 424.068194 
L 352.417513 424.28707 
L 352.674903 422.517148 
L 352.932293 422.620731 
L 353.189683 424.16277 
L 353.447073 423.495334 
L 353.704463 423.376438 
L 353.961853 422.710803 
L 354.219243 423.519653 
L 354.476633 423.555682 
L 354.734023 423.202599 
L 354.991413 422.090205 
L 355.506193 423.992533 
L 356.020973 423.452099 
L 356.278362 422.657661 
L 356.535752 424.019555 
L 356.793142 424.331205 
L 357.307922 423.196293 
L 357.565312 424.31229 
L 358.080092 424.527563 
L 358.337482 423.722316 
L 358.594872 423.298075 
L 358.852262 424.757248 
L 359.367042 424.341113 
L 359.624432 423.788069 
L 359.881822 424.126741 
L 360.139212 423.620534 
L 360.396602 423.414269 
L 360.653992 422.527056 
L 360.911382 423.738529 
L 361.168772 427.295487 
L 361.426162 427.32341 
L 361.683552 427.690905 
L 361.940942 425.341818 
L 362.198332 426.093021 
L 362.713112 426.356033 
L 362.970502 424.762652 
L 363.227892 429.181603 
L 363.485282 430.838034 
L 363.742672 427.667486 
L 364.000062 426.298386 
L 365.029621 425.131048 
L 365.287011 424.339312 
L 365.544401 425.327406 
L 365.801791 424.642856 
L 366.059181 424.791475 
L 366.316571 423.98893 
L 366.573961 425.005848 
L 367.088741 424.791475 
L 367.346131 424.99594 
L 367.603521 424.215913 
L 367.860911 424.863533 
L 368.375691 425.069799 
L 368.633081 423.911468 
L 368.890471 424.832008 
L 369.147861 426.335316 
L 369.405251 426.526269 
L 369.662641 424.867136 
L 369.920031 425.203106 
L 370.177421 425.961516 
L 370.434811 425.889458 
L 370.692201 425.677788 
L 370.949591 424.846419 
L 371.206981 427.293686 
L 371.721761 427.038781 
L 372.23654 425.395861 
L 372.49393 426.012857 
L 372.75132 426.040779 
L 373.2661 424.67348 
L 373.52349 425.757051 
L 373.78088 429.305002 
L 374.03827 429.086126 
L 374.29566 428.362845 
L 374.55305 429.069013 
L 374.81044 427.51076 
L 375.06783 427.396369 
L 375.32522 426.939702 
L 375.58261 429.176199 
L 375.84 429.699519 
L 376.09739 428.9294 
L 376.61217 428.185403 
L 376.86956 426.495645 
L 377.38434 426.174987 
L 377.64173 424.503244 
L 378.15651 425.758853 
L 378.4139 425.649865 
L 378.67129 424.677083 
L 378.92868 425.119339 
L 379.18607 426.335316 
L 379.44346 426.192101 
L 379.958239 425.137353 
L 380.215629 426.644264 
L 380.730409 426.138958 
L 380.987799 425.532771 
L 381.502579 426.655073 
L 382.017359 426.605533 
L 382.274749 425.778669 
L 382.532139 427.33602 
L 382.789529 427.297289 
L 383.046919 427.48554 
L 383.561699 425.812896 
L 383.819089 426.106532 
L 384.076479 425.920082 
L 384.333869 424.464513 
L 384.591259 425.338215 
L 384.848649 425.787676 
L 385.106039 425.894862 
L 385.363429 425.68049 
L 385.620819 424.741935 
L 386.135599 426.20381 
L 386.392989 425.835414 
L 386.650379 425.179687 
L 387.165159 427.038781 
L 387.422549 426.742443 
L 387.679938 426.83792 
L 387.937328 426.1912 
L 388.194718 428.189005 
L 388.452108 426.231733 
L 388.709498 425.988537 
L 388.966888 424.950003 
L 389.481668 425.844421 
L 389.739058 425.854329 
L 390.253838 424.625742 
L 390.511228 426.816302 
L 390.768618 426.644264 
L 391.283398 424.538372 
L 391.798178 426.162377 
L 392.055568 426.048886 
L 392.312958 425.09592 
L 393.085128 426.500148 
L 393.342518 426.419083 
L 393.599908 425.309391 
L 393.857298 427.237841 
L 394.114688 427.629656 
L 394.372078 427.346829 
L 394.629468 426.193002 
L 394.886858 425.745342 
L 395.144248 426.444303 
L 395.401638 426.619044 
L 395.659027 425.039174 
L 395.916417 425.010351 
L 396.173807 426.112837 
L 396.431197 425.911075 
L 396.688587 425.884053 
L 396.945977 424.944598 
L 397.203367 427.113541 
L 397.460757 427.449511 
L 398.232927 425.734533 
L 398.490317 427.017164 
L 398.747707 427.050491 
L 399.005097 426.834317 
L 399.262487 425.806591 
L 399.519877 426.956815 
L 399.777267 426.547887 
L 400.292047 425.28327 
L 400.806827 426.324507 
L 401.064217 426.279471 
L 401.321607 425.826407 
L 401.578997 426.076808 
L 401.836387 426.881154 
L 402.093777 425.998445 
L 402.351167 425.952508 
L 402.608557 425.188694 
L 402.865947 427.094626 
L 403.380727 427.079314 
L 403.638116 426.048886 
L 403.895506 426.071404 
L 404.152896 426.519964 
L 404.410286 426.506453 
L 404.667676 425.940799 
L 404.925066 426.119142 
L 405.182456 427.354935 
L 405.439846 427.429695 
L 405.697236 427.227933 
L 405.954626 429.37706 
L 406.212016 428.776277 
L 406.469406 429.315811 
L 406.726796 427.987243 
L 406.984186 425.585914 
L 407.241576 425.839918 
L 407.498966 426.918084 
L 408.013746 426.940602 
L 408.271136 426.204711 
L 408.528526 427.506257 
L 408.785916 427.715225 
L 409.043306 428.078216 
L 409.300696 426.546986 
L 409.558086 426.890162 
L 409.815476 427.754857 
L 410.072866 427.841326 
L 410.330256 426.52717 
L 410.845036 428.774476 
L 411.102426 428.832122 
L 411.617205 427.221628 
L 412.131985 427.359439 
L 412.646765 425.636354 
L 413.161545 427.574712 
L 413.676325 427.170287 
L 413.933715 426.232633 
L 414.191105 428.25746 
L 414.705885 427.603535 
L 414.963275 427.008157 
L 415.220665 427.063101 
L 415.478055 428.10794 
L 415.735445 428.038585 
L 415.992835 427.274771 
L 416.250225 427.194606 
L 416.765005 427.271168 
L 417.022395 425.967821 
L 417.279785 425.99214 
L 417.794565 427.0622 
L 418.309345 425.779569 
L 418.566735 426.171384 
L 418.824125 427.23694 
L 419.081515 427.046888 
L 419.338904 427.020767 
L 419.596294 426.00385 
L 419.853684 427.354935 
L 420.368464 427.581918 
L 420.625854 426.773968 
L 420.883244 427.166684 
L 421.140634 428.237645 
L 421.398024 428.229538 
L 421.655414 426.886559 
L 421.912804 427.934101 
L 422.170194 428.504259 
L 422.684974 426.39026 
L 422.942364 426.650569 
L 423.199754 427.316204 
L 423.457144 427.558499 
L 423.714534 427.567506 
L 423.971924 426.82531 
L 424.229314 426.569504 
L 424.486704 427.060399 
L 425.001484 427.066704 
L 425.258874 426.754152 
L 425.516264 428.344831 
L 426.031044 428.180899 
L 426.288434 427.805297 
L 426.545824 427.658479 
L 426.803214 428.75466 
L 427.060603 428.596133 
L 427.317993 428.003456 
L 427.575383 428.25746 
L 428.347553 427.342325 
L 428.604943 426.828012 
L 428.862333 428.071011 
L 429.119723 428.09533 
L 429.377113 427.854837 
L 429.634503 426.494744 
L 429.891893 426.953212 
L 430.149283 428.247552 
L 430.406673 428.389867 
L 430.921453 427.148669 
L 431.178843 428.588026 
L 431.436233 428.255659 
L 431.951013 428.113345 
L 432.208403 428.227737 
L 432.723183 430.202123 
L 432.980573 430.221939 
L 433.237963 430.44712 
L 433.495353 429.223937 
L 433.752743 429.545495 
L 434.010133 429.614851 
L 434.267523 428.371852 
L 434.782303 429.908487 
L 435.039692 429.568914 
L 435.297082 428.894272 
L 435.811862 430.377764 
L 436.069252 429.708526 
L 436.584032 427.240543 
L 436.841422 428.77898 
L 437.613592 427.245948 
L 437.870982 427.911583 
L 438.128372 430.874063 
L 438.643152 428.826718 
L 438.900542 427.117144 
L 439.157932 428.690709 
L 439.415322 428.632162 
L 439.672712 427.607138 
L 440.187492 430.92 
L 440.444882 430.829027 
L 440.702272 428.561905 
L 440.959662 427.866546 
L 441.217052 428.037684 
L 441.474442 428.952819 
L 441.731832 428.677198 
L 441.989222 427.706217 
L 442.246612 427.359439 
L 442.504002 428.519571 
L 442.761392 428.651977 
L 443.018781 428.506961 
L 443.276171 427.69631 
L 443.533561 428.36915 
L 443.790951 428.650176 
L 444.048341 427.340524 
L 444.305731 427.277473 
L 444.820511 428.311504 
L 445.077901 428.524075 
L 445.335291 428.502457 
L 445.592681 428.128657 
L 446.107461 428.04579 
L 446.364851 428.153877 
L 446.622241 426.914481 
L 446.879631 427.582818 
L 447.137021 428.828519 
L 447.394411 428.975337 
L 447.651801 428.594331 
L 448.166581 429.026679 
L 448.423971 428.116047 
L 448.681361 428.354739 
L 448.938751 426.946007 
L 449.196141 428.582622 
L 449.710921 428.707822 
L 449.968311 427.703515 
L 450.225701 428.074614 
L 450.483091 428.94111 
L 450.74048 428.85464 
L 450.99787 428.906882 
L 451.25526 428.190807 
L 451.51265 430.319217 
L 451.77004 429.556304 
L 452.02743 429.282484 
L 452.54221 427.744949 
L 452.7996 427.840425 
L 453.05699 427.668387 
L 453.31438 427.061299 
L 453.57177 427.508959 
L 453.82916 428.268269 
L 454.08655 427.980038 
L 454.60133 426.982036 
L 454.85872 427.444107 
L 455.11611 428.875357 
L 455.3735 428.596133 
L 455.63089 427.262161 
L 455.88828 427.72153 
L 456.40306 429.215831 
L 456.66045 429.019473 
L 456.91784 428.205218 
L 457.17523 429.909388 
L 457.43262 429.609447 
L 457.69001 429.624759 
L 457.9474 429.099637 
L 458.20479 428.073713 
L 458.46218 428.972635 
L 458.976959 427.718828 
L 459.234349 427.916987 
L 459.491739 429.095134 
L 459.749129 428.784384 
L 460.006519 428.714127 
L 460.263909 428.113345 
L 460.778689 430.104845 
L 461.036079 429.669795 
L 461.293469 428.782582 
L 461.550859 429.18971 
L 461.808249 430.378665 
L 462.065639 430.266975 
L 462.323029 429.995857 
L 462.837809 428.842931 
L 463.095199 428.799696 
L 463.352589 428.542089 
L 463.609979 427.118045 
L 464.124759 428.447513 
L 464.382149 428.302497 
L 464.639539 427.632358 
L 464.896929 427.829617 
L 465.154319 428.887967 
L 465.411709 428.983444 
L 465.926489 428.018769 
L 466.183879 429.09063 
L 466.441268 429.26447 
L 466.698658 428.835725 
L 466.956048 428.092628 
L 467.213438 428.50606 
L 467.470828 429.396876 
L 467.728218 429.298697 
L 467.985608 428.795193 
L 468.242998 428.661885 
L 468.500388 428.379058 
L 469.015168 428.261063 
L 469.272558 427.433298 
L 469.787338 428.287184 
L 470.044728 427.844028 
L 470.302118 428.946514 
L 470.559508 429.100538 
L 470.816898 429.494154 
L 471.074288 427.121648 
L 471.331678 427.822411 
L 471.589068 427.247749 
L 471.846458 428.702418 
L 472.103848 428.083621 
L 472.361238 428.069209 
L 472.618628 426.758656 
L 472.876018 426.628051 
L 473.133408 426.973929 
L 473.390798 426.909978 
L 473.648188 426.292982 
L 473.905578 426.326309 
L 474.162968 428.556501 
L 474.677747 428.102536 
L 474.935137 426.383054 
L 475.192527 425.839918 
L 475.449917 427.313502 
L 475.707307 426.901871 
L 475.964697 425.425585 
L 476.222087 425.607531 
L 476.479477 426.252449 
L 476.994257 426.206512 
L 477.251647 425.576906 
L 477.509037 426.535277 
L 477.766427 426.665882 
L 478.023817 426.558695 
L 478.281207 425.741739 
L 478.538597 426.037176 
L 478.795987 426.655974 
L 479.053377 426.782075 
L 479.310767 425.68139 
L 479.568157 425.112133 
L 479.825547 427.655777 
L 480.082937 427.623351 
L 480.340327 427.015362 
L 480.855107 424.990535 
L 481.112497 425.876847 
L 481.369887 425.599425 
L 481.627277 424.99684 
L 481.884667 425.499444 
L 482.142057 426.267762 
L 482.399446 426.356033 
L 482.656836 425.905671 
L 482.914226 425.174283 
L 483.171616 426.840622 
L 483.686396 427.042384 
L 483.943786 425.521962 
L 484.201176 426.219123 
L 484.458566 426.51456 
L 484.715956 426.375848 
L 484.973346 424.980627 
L 485.230736 425.235532 
L 485.488126 426.111936 
L 485.745516 426.128149 
L 486.002906 425.957913 
L 486.260296 425.224723 
L 486.517686 425.149063 
L 486.775076 425.263455 
L 487.032466 424.85993 
L 487.289856 423.21701 
L 487.804636 424.01325 
L 488.062026 423.460206 
L 488.319416 423.576399 
L 488.576806 422.944091 
L 488.834196 422.96751 
L 489.348976 421.619126 
L 489.606366 421.252531 
L 489.863756 421.81098 
L 490.121145 421.765043 
L 490.378535 421.359718 
L 490.635925 420.54186 
L 490.893315 420.712998 
L 491.150705 422.063183 
L 491.408095 422.184781 
L 491.665485 421.902854 
L 491.922875 420.372524 
L 492.180265 421.481315 
L 492.437655 420.778751 
L 492.695045 420.751729 
L 492.952435 419.451084 
L 493.209825 420.595003 
L 493.467215 420.407653 
L 493.724605 420.039257 
L 493.981995 419.009729 
L 494.239385 418.503522 
L 494.496775 420.24282 
L 495.011555 420.360815 
L 495.268945 419.273641 
L 495.526335 419.030446 
L 495.783725 420.26714 
L 496.041115 420.116719 
L 496.298505 419.409651 
L 496.555895 419.144838 
L 496.813285 420.045562 
L 497.070675 419.985213 
L 497.328065 419.630328 
L 497.585455 419.077284 
L 497.842845 420.443682 
L 498.100234 420.286956 
L 498.357624 418.755725 
L 498.615014 418.789953 
L 498.872404 418.56297 
L 499.129794 419.631229 
L 499.387184 419.99422 
L 499.901964 418.775541 
L 500.159354 420.331091 
L 500.416744 419.843799 
L 500.674134 419.872623 
L 500.931524 418.38823 
L 501.188914 419.009729 
L 501.446304 420.085193 
L 501.703694 419.576285 
L 501.961084 419.349302 
L 502.218474 419.30967 
L 502.475864 422.770251 
L 502.733254 422.123531 
L 502.990644 422.048771 
L 503.248034 419.206087 
L 503.505424 420.35451 
L 503.762814 420.263537 
L 504.020204 418.545856 
L 504.277594 420.843603 
L 504.534984 420.797666 
L 504.792374 421.382236 
L 505.049764 418.463891 
L 505.564544 417.511826 
L 505.821933 417.899137 
L 506.079323 417.857704 
L 506.336713 417.011023 
L 506.594103 416.619208 
L 506.851493 416.449872 
L 507.108883 417.34339 
L 507.366273 416.535441 
L 507.623663 415.188859 
L 507.881053 415.735598 
L 508.138443 415.070864 
L 508.395833 415.038438 
L 508.653223 415.384316 
L 508.910613 414.851087 
L 509.168003 414.860095 
L 509.425393 413.840475 
L 509.682783 414.072862 
L 509.940173 413.222579 
L 510.197563 413.886412 
L 510.454953 415.655434 
L 510.712343 415.532935 
L 511.227123 414.55565 
L 511.484513 414.847485 
L 511.999293 414.292639 
L 512.256683 413.419837 
L 512.771463 414.851988 
L 513.286243 413.018115 
L 513.543633 413.557648 
L 513.801022 415.199668 
L 514.058412 415.187057 
L 514.315802 415.060956 
L 514.573192 414.461074 
L 514.830582 416.823673 
L 515.087972 415.225789 
L 515.602752 413.627905 
L 515.860142 413.455866 
L 516.374922 415.913041 
L 516.632312 415.969786 
L 516.889702 415.432054 
L 517.147092 416.431858 
L 517.404482 416.730898 
L 517.661872 416.485901 
L 517.919262 415.198767 
L 518.434042 416.452574 
L 518.691432 416.506618 
L 518.948822 415.160036 
L 519.463602 416.47149 
L 519.720992 416.069767 
L 519.978382 416.199471 
L 520.235772 415.323967 
L 520.493162 415.581574 
L 520.750552 415.069063 
L 521.007942 415.1159 
L 521.265332 414.142218 
L 521.522722 414.859194 
L 521.780111 416.423751 
L 522.037501 415.650029 
L 522.294891 415.259115 
L 522.552281 413.512612 
L 522.809671 413.581067 
L 523.067061 413.515314 
L 523.324451 412.111986 
L 523.581841 412.012907 
L 523.839231 412.089468 
L 524.096621 413.29824 
L 524.354011 412.774018 
L 524.611401 411.665227 
L 525.126181 412.229981 
L 525.383571 411.640007 
L 525.640961 411.514807 
L 525.898351 411.044629 
L 526.155741 411.214866 
L 526.670521 410.779816 
L 526.927911 410.232176 
L 527.442691 412.073255 
L 527.700081 412.055241 
L 528.214861 410.431236 
L 528.472251 411.266207 
L 528.987031 409.186436 
L 529.244421 408.850466 
L 529.7592 411.277015 
L 530.01659 411.353577 
L 530.27398 411.047331 
L 530.53137 410.987883 
L 531.04615 411.650816 
L 531.30354 411.360783 
L 531.56093 410.596969 
L 532.07571 412.235386 
L 532.3331 411.875096 
L 532.84788 410.496989 
L 533.10527 411.150914 
L 533.62005 411.461664 
L 533.87744 410.656417 
L 534.13483 411.664327 
L 534.39222 411.530119 
L 534.64961 413.390113 
L 534.907 412.547036 
L 535.16439 413.084768 
L 535.42178 411.966069 
L 535.93656 411.741789 
L 536.19395 410.571749 
L 536.70873 410.969869 
L 536.96612 410.972571 
L 537.22351 410.221367 
L 537.738289 412.577661 
L 538.510459 409.866482 
L 538.767849 411.781421 
L 539.025239 411.555339 
L 539.540019 409.237777 
L 539.797409 409.672826 
L 540.054799 409.19184 
L 540.569579 407.53721 
L 541.084359 408.591958 
L 541.341749 408.399203 
L 541.599139 407.946139 
L 541.856529 407.099458 
L 542.113919 407.394896 
L 542.628699 406.082541 
L 542.886089 405.74477 
L 543.400869 407.35076 
L 543.658259 407.444436 
L 544.173039 406.262686 
L 544.430429 407.345356 
L 544.687819 407.094054 
L 544.945209 407.106664 
L 545.202599 405.686223 
L 545.459988 406.596855 
L 545.717378 406.083442 
L 545.974768 404.147787 
L 546.232158 404.164 
L 546.489548 404.481054 
L 546.746938 405.859162 
L 547.004328 405.574533 
L 547.261718 405.756479 
L 547.519108 405.243067 
L 547.776498 406.134783 
L 548.291278 406.365369 
L 548.548668 405.280897 
L 548.806058 405.1602 
L 549.320838 404.503573 
L 549.578228 403.598345 
L 549.835618 404.989963 
L 550.093008 405.722252 
L 550.350398 405.715947 
L 550.607788 405.594349 
L 550.865178 404.775591 
L 551.122568 406.115868 
L 551.379958 405.397991 
L 551.637348 405.476354 
L 551.894738 404.323428 
L 552.152128 404.847649 
L 552.409518 405.946532 
L 552.666908 405.714145 
L 552.924298 405.905099 
L 553.181687 405.125973 
L 553.439077 406.734665 
L 553.696467 405.860063 
L 553.953857 405.917709 
L 554.211247 404.644085 
L 554.468637 405.18542 
L 554.726027 406.759886 
L 554.983417 406.574337 
L 555.240807 405.798813 
L 555.498197 404.52519 
L 555.755587 405.692528 
L 556.270367 405.213343 
L 556.527757 404.100949 
L 556.785147 403.819923 
L 557.299927 402.26077 
L 557.557317 400.897074 
L 558.072097 402.621961 
L 558.586877 402.505767 
L 558.844267 401.665392 
L 559.101657 402.674202 
L 559.616437 401.568114 
L 559.873827 399.790986 
L 560.131217 400.271071 
L 560.388607 400.047692 
L 560.903387 398.790281 
L 561.160776 398.892964 
L 561.418166 400.345831 
L 561.932946 400.287284 
L 562.190336 399.168585 
L 562.447726 399.999954 
L 562.962506 399.507258 
L 563.219896 399.07491 
L 563.477286 399.142464 
L 563.734676 400.926798 
L 564.249456 400.154878 
L 564.506846 398.854233 
L 564.764236 399.118145 
L 565.021626 400.160282 
L 565.536406 398.393062 
L 565.793796 398.966823 
L 566.051186 399.999954 
L 566.308576 399.822511 
L 566.565966 399.963925 
L 566.823356 402.232848 
L 567.338136 401.911289 
L 567.595526 397.957112 
L 567.852916 397.684193 
L 568.110306 398.563299 
L 568.367696 398.930794 
L 568.625086 401.425799 
L 568.882475 401.539291 
L 569.397255 400.08282 
L 569.912035 400.434102 
L 570.169425 399.138862 
L 570.426815 398.911879 
L 570.684205 399.618047 
L 570.941595 399.651373 
L 571.198985 398.543483 
L 571.713765 399.936903 
L 571.971155 399.781078 
L 572.485935 398.251649 
L 572.743325 399.030775 
L 573.000715 399.27397 
L 573.515495 397.599525 
L 573.772885 397.851727 
L 574.030275 398.633556 
L 574.287665 398.085915 
L 574.545055 396.928485 
L 574.802445 396.325 
L 575.059835 397.322102 
L 575.317225 397.153666 
L 575.574615 396.690694 
L 575.832005 395.837709 
L 576.089395 396.380845 
L 576.346785 396.258347 
L 576.604175 395.791772 
L 576.861564 394.521751 
L 577.118954 394.866729 
L 577.376344 395.832305 
L 577.891124 393.983119 
L 578.148514 393.801172 
L 578.405904 394.310081 
L 578.920684 393.998431 
L 579.178074 393.542665 
L 579.435464 393.318384 
L 579.692854 394.012842 
L 579.950244 393.977714 
L 580.207634 393.144545 
L 580.722414 394.61903 
L 580.979804 394.191186 
L 581.494584 392.935577 
L 581.751974 394.309181 
L 582.009364 394.318188 
L 582.266754 394.200193 
L 582.524144 393.356215 
L 582.781534 394.004736 
L 583.038924 393.920068 
L 583.296314 394.102915 
L 583.553704 394.127234 
L 583.811094 392.813078 
L 584.068484 392.497825 
L 584.325874 392.804972 
L 584.583264 392.576188 
L 584.840653 391.825885 
L 585.355433 392.753631 
L 585.612823 392.697786 
L 585.870213 392.350106 
L 586.384993 393.782257 
L 586.642383 393.528253 
L 586.899773 393.504834 
L 587.157163 392.781553 
L 587.414553 393.890344 
L 587.671943 393.664262 
L 587.929333 393.707497 
L 588.186723 392.839199 
L 588.701503 393.867826 
L 589.216283 393.575991 
L 589.473673 390.883728 
L 589.731063 393.419265 
L 589.988453 393.16346 
L 590.503233 392.100606 
L 591.018013 392.925669 
L 591.275403 392.523045 
L 591.532793 390.986411 
L 591.790183 391.079185 
L 592.304963 391.481809 
L 592.819742 390.087488 
L 593.077132 390.714392 
L 593.334522 390.714392 
L 593.591912 390.48831 
L 593.849302 389.391229 
L 594.106692 389.906443 
L 594.621472 388.561662 
L 594.878862 387.409636 
L 595.136252 387.561859 
L 595.393642 388.32207 
L 595.651032 388.411241 
L 595.908422 387.690662 
L 596.423202 387.233094 
L 596.680592 387.656435 
L 596.937982 387.85009 
L 597.195372 386.926848 
L 597.710152 388.079775 
L 597.967542 388.186961 
L 598.224932 387.919446 
L 598.482322 386.681851 
L 598.739712 390.748619 
L 599.254492 389.322774 
L 599.511882 389.295752 
L 599.769272 387.943766 
L 600.026662 388.585982 
L 600.284052 388.487803 
L 600.798831 386.376506 
L 601.056221 387.243002 
L 601.313611 387.335777 
L 601.828391 385.54694 
L 602.085781 386.888117 
L 602.343171 387.357394 
L 602.600561 386.970083 
L 602.857951 386.204468 
L 603.115341 386.85479 
L 603.372731 388.34729 
L 604.144901 387.504212 
L 604.402291 388.348191 
L 604.659681 388.358999 
L 604.917071 388.042845 
L 605.174461 387.183555 
L 605.431851 387.424048 
L 605.689241 388.458079 
L 606.204021 387.656435 
L 606.718801 386.723285 
L 606.976191 386.867401 
L 607.233581 386.485494 
L 607.490971 385.863994 
L 607.748361 388.097789 
L 608.005751 387.287138 
L 608.26314 387.431254 
L 608.77792 386.280129 
L 609.03531 386.292739 
L 609.55009 385.117294 
L 609.80748 384.044532 
L 610.06487 386.130609 
L 610.32226 386.276526 
L 610.57965 386.20717 
L 610.83704 384.905624 
L 611.09443 384.905624 
L 611.35182 384.410226 
L 611.60921 384.219273 
L 611.8666 382.115182 
L 612.12399 382.670028 
L 612.38138 381.295523 
L 612.63877 381.506293 
L 612.89616 381.289218 
L 613.15355 380.602867 
L 613.41094 382.105274 
L 613.66833 382.191743 
L 613.92572 382.069245 
L 614.18311 381.082052 
L 614.69789 382.326852 
L 615.21267 381.758495 
L 615.47006 380.983873 
L 615.72745 382.913223 
L 615.98484 381.476569 
L 616.242229 381.195543 
L 616.499619 380.665917 
L 616.757009 380.869481 
L 617.014399 381.545924 
L 617.271789 381.245083 
L 617.529179 380.541617 
L 617.786569 380.399303 
L 618.301349 380.485772 
L 618.558739 380.424523 
L 618.816129 379.327442 
L 619.073519 380.483971 
L 619.330909 380.865878 
L 619.330909 380.865878 
" style="fill:none;stroke:#1f77b4;stroke-linecap:square;stroke-width:1.5;"/>
   </g>
   <g id="patch_3">
    <path d="M 108 448.56 
L 108 60.48 
" style="fill:none;stroke:#000000;stroke-linecap:square;stroke-linejoin:miter;stroke-width:0.8;"/>
   </g>
   <g id="patch_4">
    <path d="M 643.68 448.56 
L 643.68 60.48 
" style="fill:none;stroke:#000000;stroke-linecap:square;stroke-linejoin:miter;stroke-width:0.8;"/>
   </g>
   <g id="patch_5">
    <path d="M 108 448.56 
L 643.68 448.56 
" style="fill:none;stroke:#000000;stroke-linecap:square;stroke-linejoin:miter;stroke-width:0.8;"/>
   </g>
   <g id="patch_6">
    <path d="M 108 60.48 
L 643.68 60.48 
" style="fill:none;stroke:#000000;stroke-linecap:square;stroke-linejoin:miter;stroke-width:0.8;"/>
   </g>
   <g id="text_33">
    <!-- unikernel_base - free -->
    <g transform="translate(297.273984 54.48)scale(0.15 -0.15)">
     <defs>
      <path d="M 8.5 21.578125 
L 8.5 54.6875 
L 17.484375 54.6875 
L 17.484375 21.921875 
Q 17.484375 14.15625 20.5 10.265625 
Q 23.53125 6.390625 29.59375 6.390625 
Q 36.859375 6.390625 41.078125 11.03125 
Q 45.3125 15.671875 45.3125 23.6875 
L 45.3125 54.6875 
L 54.296875 54.6875 
L 54.296875 0 
L 45.3125 0 
L 45.3125 8.40625 
Q 42.046875 3.421875 37.71875 1 
Q 33.40625 -1.421875 27.6875 -1.421875 
Q 18.265625 -1.421875 13.375 4.4375 
Q 8.5 10.296875 8.5 21.578125 
z
M 31.109375 56 
z
" id="DejaVuSans-117"/>
      <path d="M 54.890625 33.015625 
L 54.890625 0 
L 45.90625 0 
L 45.90625 32.71875 
Q 45.90625 40.484375 42.875 44.328125 
Q 39.84375 48.1875 33.796875 48.1875 
Q 26.515625 48.1875 22.3125 43.546875 
Q 18.109375 38.921875 18.109375 30.90625 
L 18.109375 0 
L 9.078125 0 
L 9.078125 54.6875 
L 18.109375 54.6875 
L 18.109375 46.1875 
Q 21.34375 51.125 25.703125 53.5625 
Q 30.078125 56 35.796875 56 
Q 45.21875 56 50.046875 50.171875 
Q 54.890625 44.34375 54.890625 33.015625 
z
" id="DejaVuSans-110"/>
      <path d="M 9.078125 75.984375 
L 18.109375 75.984375 
L 18.109375 31.109375 
L 44.921875 54.6875 
L 56.390625 54.6875 
L 27.390625 29.109375 
L 57.625 0 
L 45.90625 0 
L 18.109375 26.703125 
L 18.109375 0 
L 9.078125 0 
z
" id="DejaVuSans-107"/>
      <path d="M 41.109375 46.296875 
Q 39.59375 47.171875 37.8125 47.578125 
Q 36.03125 48 33.890625 48 
Q 26.265625 48 22.1875 43.046875 
Q 18.109375 38.09375 18.109375 28.8125 
L 18.109375 0 
L 9.078125 0 
L 9.078125 54.6875 
L 18.109375 54.6875 
L 18.109375 46.1875 
Q 20.953125 51.171875 25.484375 53.578125 
Q 30.03125 56 36.53125 56 
Q 37.453125 56 38.578125 55.875 
Q 39.703125 55.765625 41.0625 55.515625 
z
" id="DejaVuSans-114"/>
      <path d="M 9.421875 75.984375 
L 18.40625 75.984375 
L 18.40625 0 
L 9.421875 0 
z
" id="DejaVuSans-108"/>
      <path d="M 50.984375 -16.609375 
L 50.984375 -23.578125 
L -0.984375 -23.578125 
L -0.984375 -16.609375 
z
" id="DejaVuSans-95"/>
      <path d="M 48.6875 27.296875 
Q 48.6875 37.203125 44.609375 42.84375 
Q 40.53125 48.484375 33.40625 48.484375 
Q 26.265625 48.484375 22.1875 42.84375 
Q 18.109375 37.203125 18.109375 27.296875 
Q 18.109375 17.390625 22.1875 11.75 
Q 26.265625 6.109375 33.40625 6.109375 
Q 40.53125 6.109375 44.609375 11.75 
Q 48.6875 17.390625 48.6875 27.296875 
z
M 18.109375 46.390625 
Q 20.953125 51.265625 25.265625 53.625 
Q 29.59375 56 35.59375 56 
Q 45.5625 56 51.78125 48.09375 
Q 58.015625 40.1875 58.015625 27.296875 
Q 58.015625 14.40625 51.78125 6.484375 
Q 45.5625 -1.421875 35.59375 -1.421875 
Q 29.59375 -1.421875 25.265625 0.953125 
Q 20.953125 3.328125 18.109375 8.203125 
L 18.109375 0 
L 9.078125 0 
L 9.078125 75.984375 
L 18.109375 75.984375 
z
" id="DejaVuSans-98"/>
      <path id="DejaVuSans-32"/>
      <path d="M 4.890625 31.390625 
L 31.203125 31.390625 
L 31.203125 23.390625 
L 4.890625 23.390625 
z
" id="DejaVuSans-45"/>
      <path d="M 37.109375 75.984375 
L 37.109375 68.5 
L 28.515625 68.5 
Q 23.6875 68.5 21.796875 66.546875 
Q 19.921875 64.59375 19.921875 59.515625 
L 19.921875 54.6875 
L 34.71875 54.6875 
L 34.71875 47.703125 
L 19.921875 47.703125 
L 19.921875 0 
L 10.890625 0 
L 10.890625 47.703125 
L 2.296875 47.703125 
L 2.296875 54.6875 
L 10.890625 54.6875 
L 10.890625 58.5 
Q 10.890625 67.625 15.140625 71.796875 
Q 19.390625 75.984375 28.609375 75.984375 
z
" id="DejaVuSans-102"/>
     </defs>
     <use xlink:href="#DejaVuSans-117"/>
     <use x="63.378906" xlink:href="#DejaVuSans-110"/>
     <use x="126.757812" xlink:href="#DejaVuSans-105"/>
     <use x="154.541016" xlink:href="#DejaVuSans-107"/>
     <use x="208.826172" xlink:href="#DejaVuSans-101"/>
     <use x="270.349609" xlink:href="#DejaVuSans-114"/>
     <use x="309.712891" xlink:href="#DejaVuSans-110"/>
     <use x="373.091797" xlink:href="#DejaVuSans-101"/>
     <use x="434.615234" xlink:href="#DejaVuSans-108"/>
     <use x="462.398438" xlink:href="#DejaVuSans-95"/>
     <use x="512.398438" xlink:href="#DejaVuSans-98"/>
     <use x="575.875" xlink:href="#DejaVuSans-97"/>
     <use x="637.154297" xlink:href="#DejaVuSans-115"/>
     <use x="689.253906" xlink:href="#DejaVuSans-101"/>
     <use x="750.777344" xlink:href="#DejaVuSans-32"/>
     <use x="782.564453" xlink:href="#DejaVuSans-45"/>
     <use x="818.648438" xlink:href="#DejaVuSans-32"/>
     <use x="850.435547" xlink:href="#DejaVuSans-102"/>
     <use x="885.640625" xlink:href="#DejaVuSans-114"/>
     <use x="924.503906" xlink:href="#DejaVuSans-101"/>
     <use x="986.027344" xlink:href="#DejaVuSans-101"/>
    </g>
   </g>
   <g id="legend_1">
    <g id="patch_7">
     <path d="M 650.68 258.52 
L 654.68 258.52 
Q 656.68 258.52 656.68 256.52 
L 656.68 252.52 
Q 656.68 250.52 654.68 250.52 
L 650.68 250.52 
Q 648.68 250.52 648.68 252.52 
L 648.68 256.52 
Q 648.68 258.52 650.68 258.52 
z
" style="fill:#ffffff;opacity:0.8;stroke:#cccccc;stroke-linejoin:miter;"/>
    </g>
   </g>
  </g>
 </g>
 <defs>
  <clipPath id="p93f2c8b05c">
   <rect height="388.08" width="535.68" x="108" y="60.48"/>
  </clipPath>
 </defs>
</svg>
