<?xml version="1.0" encoding="utf-8" standalone="no"?>
<!DOCTYPE svg PUBLIC "-//W3C//DTD SVG 1.1//EN"
  "http://www.w3.org/Graphics/SVG/1.1/DTD/svg11.dtd">
<!-- Created with matplotlib (https://matplotlib.org/) -->
<svg height="504pt" version="1.1" viewBox="0 0 864 504" width="864pt" xmlns="http://www.w3.org/2000/svg" xmlns:xlink="http://www.w3.org/1999/xlink">
 <metadata>
  <rdf:RDF xmlns:cc="http://creativecommons.org/ns#" xmlns:dc="http://purl.org/dc/elements/1.1/" xmlns:rdf="http://www.w3.org/1999/02/22-rdf-syntax-ns#">
   <cc:Work>
    <dc:type rdf:resource="http://purl.org/dc/dcmitype/StillImage"/>
    <dc:date>2022-06-15T17:14:15.699089</dc:date>
    <dc:format>image/svg+xml</dc:format>
    <dc:creator>
     <cc:Agent>
      <dc:title>Matplotlib v3.3.4, https://matplotlib.org/</dc:title>
     </cc:Agent>
    </dc:creator>
   </cc:Work>
  </rdf:RDF>
 </metadata>
 <defs>
  <style type="text/css">*{stroke-linecap:butt;stroke-linejoin:round;}</style>
 </defs>
 <g id="figure_1">
  <g id="patch_1">
   <path d="M 0 504 
L 864 504 
L 864 0 
L 0 0 
z
" style="fill:#ffffff;"/>
  </g>
  <g id="axes_1">
   <g id="patch_2">
    <path d="M 108 448.56 
L 643.68 448.56 
L 643.68 60.48 
L 108 60.48 
z
" style="fill:#ffffff;"/>
   </g>
   <g id="matplotlib.axis_1">
    <g id="xtick_1">
     <g id="line2d_1">
      <defs>
       <path d="M 0 0 
L 0 3.5 
" id="m2762f1eaa7" style="stroke:#000000;stroke-width:0.8;"/>
      </defs>
      <g>
       <use style="stroke:#000000;stroke-width:0.8;" x="132.093859" xlink:href="#m2762f1eaa7" y="448.56"/>
      </g>
     </g>
     <g id="text_1">
      <!-- 0 -->
      <g transform="translate(128.912609 463.158437)scale(0.1 -0.1)">
       <defs>
        <path d="M 31.78125 66.40625 
Q 24.171875 66.40625 20.328125 58.90625 
Q 16.5 51.421875 16.5 36.375 
Q 16.5 21.390625 20.328125 13.890625 
Q 24.171875 6.390625 31.78125 6.390625 
Q 39.453125 6.390625 43.28125 13.890625 
Q 47.125 21.390625 47.125 36.375 
Q 47.125 51.421875 43.28125 58.90625 
Q 39.453125 66.40625 31.78125 66.40625 
z
M 31.78125 74.21875 
Q 44.046875 74.21875 50.515625 64.515625 
Q 56.984375 54.828125 56.984375 36.375 
Q 56.984375 17.96875 50.515625 8.265625 
Q 44.046875 -1.421875 31.78125 -1.421875 
Q 19.53125 -1.421875 13.0625 8.265625 
Q 6.59375 17.96875 6.59375 36.375 
Q 6.59375 54.828125 13.0625 64.515625 
Q 19.53125 74.21875 31.78125 74.21875 
z
" id="DejaVuSans-48"/>
       </defs>
       <use xlink:href="#DejaVuSans-48"/>
      </g>
     </g>
    </g>
    <g id="xtick_2">
     <g id="line2d_2">
      <g>
       <use style="stroke:#000000;stroke-width:0.8;" x="195.90175" xlink:href="#m2762f1eaa7" y="448.56"/>
      </g>
     </g>
     <g id="text_2">
      <!-- 250 -->
      <g transform="translate(186.358 463.158437)scale(0.1 -0.1)">
       <defs>
        <path d="M 19.1875 8.296875 
L 53.609375 8.296875 
L 53.609375 0 
L 7.328125 0 
L 7.328125 8.296875 
Q 12.9375 14.109375 22.625 23.890625 
Q 32.328125 33.6875 34.8125 36.53125 
Q 39.546875 41.84375 41.421875 45.53125 
Q 43.3125 49.21875 43.3125 52.78125 
Q 43.3125 58.59375 39.234375 62.25 
Q 35.15625 65.921875 28.609375 65.921875 
Q 23.96875 65.921875 18.8125 64.3125 
Q 13.671875 62.703125 7.8125 59.421875 
L 7.8125 69.390625 
Q 13.765625 71.78125 18.9375 73 
Q 24.125 74.21875 28.421875 74.21875 
Q 39.75 74.21875 46.484375 68.546875 
Q 53.21875 62.890625 53.21875 53.421875 
Q 53.21875 48.921875 51.53125 44.890625 
Q 49.859375 40.875 45.40625 35.40625 
Q 44.1875 33.984375 37.640625 27.21875 
Q 31.109375 20.453125 19.1875 8.296875 
z
" id="DejaVuSans-50"/>
        <path d="M 10.796875 72.90625 
L 49.515625 72.90625 
L 49.515625 64.59375 
L 19.828125 64.59375 
L 19.828125 46.734375 
Q 21.96875 47.46875 24.109375 47.828125 
Q 26.265625 48.1875 28.421875 48.1875 
Q 40.625 48.1875 47.75 41.5 
Q 54.890625 34.8125 54.890625 23.390625 
Q 54.890625 11.625 47.5625 5.09375 
Q 40.234375 -1.421875 26.90625 -1.421875 
Q 22.3125 -1.421875 17.546875 -0.640625 
Q 12.796875 0.140625 7.71875 1.703125 
L 7.71875 11.625 
Q 12.109375 9.234375 16.796875 8.0625 
Q 21.484375 6.890625 26.703125 6.890625 
Q 35.15625 6.890625 40.078125 11.328125 
Q 45.015625 15.765625 45.015625 23.390625 
Q 45.015625 31 40.078125 35.4375 
Q 35.15625 39.890625 26.703125 39.890625 
Q 22.75 39.890625 18.8125 39.015625 
Q 14.890625 38.140625 10.796875 36.28125 
z
" id="DejaVuSans-53"/>
       </defs>
       <use xlink:href="#DejaVuSans-50"/>
       <use x="63.623047" xlink:href="#DejaVuSans-53"/>
       <use x="127.246094" xlink:href="#DejaVuSans-48"/>
      </g>
     </g>
    </g>
    <g id="xtick_3">
     <g id="line2d_3">
      <g>
       <use style="stroke:#000000;stroke-width:0.8;" x="259.70964" xlink:href="#m2762f1eaa7" y="448.56"/>
      </g>
     </g>
     <g id="text_3">
      <!-- 500 -->
      <g transform="translate(250.16589 463.158437)scale(0.1 -0.1)">
       <use xlink:href="#DejaVuSans-53"/>
       <use x="63.623047" xlink:href="#DejaVuSans-48"/>
       <use x="127.246094" xlink:href="#DejaVuSans-48"/>
      </g>
     </g>
    </g>
    <g id="xtick_4">
     <g id="line2d_4">
      <g>
       <use style="stroke:#000000;stroke-width:0.8;" x="323.51753" xlink:href="#m2762f1eaa7" y="448.56"/>
      </g>
     </g>
     <g id="text_4">
      <!-- 750 -->
      <g transform="translate(313.97378 463.158437)scale(0.1 -0.1)">
       <defs>
        <path d="M 8.203125 72.90625 
L 55.078125 72.90625 
L 55.078125 68.703125 
L 28.609375 0 
L 18.3125 0 
L 43.21875 64.59375 
L 8.203125 64.59375 
z
" id="DejaVuSans-55"/>
       </defs>
       <use xlink:href="#DejaVuSans-55"/>
       <use x="63.623047" xlink:href="#DejaVuSans-53"/>
       <use x="127.246094" xlink:href="#DejaVuSans-48"/>
      </g>
     </g>
    </g>
    <g id="xtick_5">
     <g id="line2d_5">
      <g>
       <use style="stroke:#000000;stroke-width:0.8;" x="387.32542" xlink:href="#m2762f1eaa7" y="448.56"/>
      </g>
     </g>
     <g id="text_5">
      <!-- 1000 -->
      <g transform="translate(374.60042 463.158437)scale(0.1 -0.1)">
       <defs>
        <path d="M 12.40625 8.296875 
L 28.515625 8.296875 
L 28.515625 63.921875 
L 10.984375 60.40625 
L 10.984375 69.390625 
L 28.421875 72.90625 
L 38.28125 72.90625 
L 38.28125 8.296875 
L 54.390625 8.296875 
L 54.390625 0 
L 12.40625 0 
z
" id="DejaVuSans-49"/>
       </defs>
       <use xlink:href="#DejaVuSans-49"/>
       <use x="63.623047" xlink:href="#DejaVuSans-48"/>
       <use x="127.246094" xlink:href="#DejaVuSans-48"/>
       <use x="190.869141" xlink:href="#DejaVuSans-48"/>
      </g>
     </g>
    </g>
    <g id="xtick_6">
     <g id="line2d_6">
      <g>
       <use style="stroke:#000000;stroke-width:0.8;" x="451.13331" xlink:href="#m2762f1eaa7" y="448.56"/>
      </g>
     </g>
     <g id="text_6">
      <!-- 1250 -->
      <g transform="translate(438.40831 463.158437)scale(0.1 -0.1)">
       <use xlink:href="#DejaVuSans-49"/>
       <use x="63.623047" xlink:href="#DejaVuSans-50"/>
       <use x="127.246094" xlink:href="#DejaVuSans-53"/>
       <use x="190.869141" xlink:href="#DejaVuSans-48"/>
      </g>
     </g>
    </g>
    <g id="xtick_7">
     <g id="line2d_7">
      <g>
       <use style="stroke:#000000;stroke-width:0.8;" x="514.941201" xlink:href="#m2762f1eaa7" y="448.56"/>
      </g>
     </g>
     <g id="text_7">
      <!-- 1500 -->
      <g transform="translate(502.216201 463.158437)scale(0.1 -0.1)">
       <use xlink:href="#DejaVuSans-49"/>
       <use x="63.623047" xlink:href="#DejaVuSans-53"/>
       <use x="127.246094" xlink:href="#DejaVuSans-48"/>
       <use x="190.869141" xlink:href="#DejaVuSans-48"/>
      </g>
     </g>
    </g>
    <g id="xtick_8">
     <g id="line2d_8">
      <g>
       <use style="stroke:#000000;stroke-width:0.8;" x="578.749091" xlink:href="#m2762f1eaa7" y="448.56"/>
      </g>
     </g>
     <g id="text_8">
      <!-- 1750 -->
      <g transform="translate(566.024091 463.158437)scale(0.1 -0.1)">
       <use xlink:href="#DejaVuSans-49"/>
       <use x="63.623047" xlink:href="#DejaVuSans-55"/>
       <use x="127.246094" xlink:href="#DejaVuSans-53"/>
       <use x="190.869141" xlink:href="#DejaVuSans-48"/>
      </g>
     </g>
    </g>
    <g id="xtick_9">
     <g id="line2d_9">
      <g>
       <use style="stroke:#000000;stroke-width:0.8;" x="642.556981" xlink:href="#m2762f1eaa7" y="448.56"/>
      </g>
     </g>
     <g id="text_9">
      <!-- 2000 -->
      <g transform="translate(629.831981 463.158437)scale(0.1 -0.1)">
       <use xlink:href="#DejaVuSans-50"/>
       <use x="63.623047" xlink:href="#DejaVuSans-48"/>
       <use x="127.246094" xlink:href="#DejaVuSans-48"/>
       <use x="190.869141" xlink:href="#DejaVuSans-48"/>
      </g>
     </g>
    </g>
    <g id="text_10">
     <!-- timestamp -->
     <g transform="translate(354.264375 475.316875)scale(0.08 -0.08)">
      <defs>
       <path d="M 18.3125 70.21875 
L 18.3125 54.6875 
L 36.8125 54.6875 
L 36.8125 47.703125 
L 18.3125 47.703125 
L 18.3125 18.015625 
Q 18.3125 11.328125 20.140625 9.421875 
Q 21.96875 7.515625 27.59375 7.515625 
L 36.8125 7.515625 
L 36.8125 0 
L 27.59375 0 
Q 17.1875 0 13.234375 3.875 
Q 9.28125 7.765625 9.28125 18.015625 
L 9.28125 47.703125 
L 2.6875 47.703125 
L 2.6875 54.6875 
L 9.28125 54.6875 
L 9.28125 70.21875 
z
" id="DejaVuSans-116"/>
       <path d="M 9.421875 54.6875 
L 18.40625 54.6875 
L 18.40625 0 
L 9.421875 0 
z
M 9.421875 75.984375 
L 18.40625 75.984375 
L 18.40625 64.59375 
L 9.421875 64.59375 
z
" id="DejaVuSans-105"/>
       <path d="M 52 44.1875 
Q 55.375 50.25 60.0625 53.125 
Q 64.75 56 71.09375 56 
Q 79.640625 56 84.28125 50.015625 
Q 88.921875 44.046875 88.921875 33.015625 
L 88.921875 0 
L 79.890625 0 
L 79.890625 32.71875 
Q 79.890625 40.578125 77.09375 44.375 
Q 74.3125 48.1875 68.609375 48.1875 
Q 61.625 48.1875 57.5625 43.546875 
Q 53.515625 38.921875 53.515625 30.90625 
L 53.515625 0 
L 44.484375 0 
L 44.484375 32.71875 
Q 44.484375 40.625 41.703125 44.40625 
Q 38.921875 48.1875 33.109375 48.1875 
Q 26.21875 48.1875 22.15625 43.53125 
Q 18.109375 38.875 18.109375 30.90625 
L 18.109375 0 
L 9.078125 0 
L 9.078125 54.6875 
L 18.109375 54.6875 
L 18.109375 46.1875 
Q 21.1875 51.21875 25.484375 53.609375 
Q 29.78125 56 35.6875 56 
Q 41.65625 56 45.828125 52.96875 
Q 50 49.953125 52 44.1875 
z
" id="DejaVuSans-109"/>
       <path d="M 56.203125 29.59375 
L 56.203125 25.203125 
L 14.890625 25.203125 
Q 15.484375 15.921875 20.484375 11.0625 
Q 25.484375 6.203125 34.421875 6.203125 
Q 39.59375 6.203125 44.453125 7.46875 
Q 49.3125 8.734375 54.109375 11.28125 
L 54.109375 2.78125 
Q 49.265625 0.734375 44.1875 -0.34375 
Q 39.109375 -1.421875 33.890625 -1.421875 
Q 20.796875 -1.421875 13.15625 6.1875 
Q 5.515625 13.8125 5.515625 26.8125 
Q 5.515625 40.234375 12.765625 48.109375 
Q 20.015625 56 32.328125 56 
Q 43.359375 56 49.78125 48.890625 
Q 56.203125 41.796875 56.203125 29.59375 
z
M 47.21875 32.234375 
Q 47.125 39.59375 43.09375 43.984375 
Q 39.0625 48.390625 32.421875 48.390625 
Q 24.90625 48.390625 20.390625 44.140625 
Q 15.875 39.890625 15.1875 32.171875 
z
" id="DejaVuSans-101"/>
       <path d="M 44.28125 53.078125 
L 44.28125 44.578125 
Q 40.484375 46.53125 36.375 47.5 
Q 32.28125 48.484375 27.875 48.484375 
Q 21.1875 48.484375 17.84375 46.4375 
Q 14.5 44.390625 14.5 40.28125 
Q 14.5 37.15625 16.890625 35.375 
Q 19.28125 33.59375 26.515625 31.984375 
L 29.59375 31.296875 
Q 39.15625 29.25 43.1875 25.515625 
Q 47.21875 21.78125 47.21875 15.09375 
Q 47.21875 7.46875 41.1875 3.015625 
Q 35.15625 -1.421875 24.609375 -1.421875 
Q 20.21875 -1.421875 15.453125 -0.5625 
Q 10.6875 0.296875 5.421875 2 
L 5.421875 11.28125 
Q 10.40625 8.6875 15.234375 7.390625 
Q 20.0625 6.109375 24.8125 6.109375 
Q 31.15625 6.109375 34.5625 8.28125 
Q 37.984375 10.453125 37.984375 14.40625 
Q 37.984375 18.0625 35.515625 20.015625 
Q 33.0625 21.96875 24.703125 23.78125 
L 21.578125 24.515625 
Q 13.234375 26.265625 9.515625 29.90625 
Q 5.8125 33.546875 5.8125 39.890625 
Q 5.8125 47.609375 11.28125 51.796875 
Q 16.75 56 26.8125 56 
Q 31.78125 56 36.171875 55.265625 
Q 40.578125 54.546875 44.28125 53.078125 
z
" id="DejaVuSans-115"/>
       <path d="M 34.28125 27.484375 
Q 23.390625 27.484375 19.1875 25 
Q 14.984375 22.515625 14.984375 16.5 
Q 14.984375 11.71875 18.140625 8.90625 
Q 21.296875 6.109375 26.703125 6.109375 
Q 34.1875 6.109375 38.703125 11.40625 
Q 43.21875 16.703125 43.21875 25.484375 
L 43.21875 27.484375 
z
M 52.203125 31.203125 
L 52.203125 0 
L 43.21875 0 
L 43.21875 8.296875 
Q 40.140625 3.328125 35.546875 0.953125 
Q 30.953125 -1.421875 24.3125 -1.421875 
Q 15.921875 -1.421875 10.953125 3.296875 
Q 6 8.015625 6 15.921875 
Q 6 25.140625 12.171875 29.828125 
Q 18.359375 34.515625 30.609375 34.515625 
L 43.21875 34.515625 
L 43.21875 35.40625 
Q 43.21875 41.609375 39.140625 45 
Q 35.0625 48.390625 27.6875 48.390625 
Q 23 48.390625 18.546875 47.265625 
Q 14.109375 46.140625 10.015625 43.890625 
L 10.015625 52.203125 
Q 14.9375 54.109375 19.578125 55.046875 
Q 24.21875 56 28.609375 56 
Q 40.484375 56 46.34375 49.84375 
Q 52.203125 43.703125 52.203125 31.203125 
z
" id="DejaVuSans-97"/>
       <path d="M 18.109375 8.203125 
L 18.109375 -20.796875 
L 9.078125 -20.796875 
L 9.078125 54.6875 
L 18.109375 54.6875 
L 18.109375 46.390625 
Q 20.953125 51.265625 25.265625 53.625 
Q 29.59375 56 35.59375 56 
Q 45.5625 56 51.78125 48.09375 
Q 58.015625 40.1875 58.015625 27.296875 
Q 58.015625 14.40625 51.78125 6.484375 
Q 45.5625 -1.421875 35.59375 -1.421875 
Q 29.59375 -1.421875 25.265625 0.953125 
Q 20.953125 3.328125 18.109375 8.203125 
z
M 48.6875 27.296875 
Q 48.6875 37.203125 44.609375 42.84375 
Q 40.53125 48.484375 33.40625 48.484375 
Q 26.265625 48.484375 22.1875 42.84375 
Q 18.109375 37.203125 18.109375 27.296875 
Q 18.109375 17.390625 22.1875 11.75 
Q 26.265625 6.109375 33.40625 6.109375 
Q 40.53125 6.109375 44.609375 11.75 
Q 48.6875 17.390625 48.6875 27.296875 
z
" id="DejaVuSans-112"/>
      </defs>
      <use xlink:href="#DejaVuSans-116"/>
      <use x="39.208984" xlink:href="#DejaVuSans-105"/>
      <use x="66.992188" xlink:href="#DejaVuSans-109"/>
      <use x="164.404297" xlink:href="#DejaVuSans-101"/>
      <use x="225.927734" xlink:href="#DejaVuSans-115"/>
      <use x="278.027344" xlink:href="#DejaVuSans-116"/>
      <use x="317.236328" xlink:href="#DejaVuSans-97"/>
      <use x="378.515625" xlink:href="#DejaVuSans-109"/>
      <use x="475.927734" xlink:href="#DejaVuSans-112"/>
     </g>
    </g>
   </g>
   <g id="matplotlib.axis_2">
    <g id="ytick_1">
     <g id="line2d_10">
      <defs>
       <path d="M 0 0 
L -3.5 0 
" id="m627922328f" style="stroke:#000000;stroke-width:0.8;"/>
      </defs>
      <g>
       <use style="stroke:#000000;stroke-width:0.8;" x="108" xlink:href="#m627922328f" y="401.324818"/>
      </g>
     </g>
     <g id="text_11">
      <!-- 35 -->
      <g transform="translate(88.275 405.124037)scale(0.1 -0.1)">
       <defs>
        <path d="M 40.578125 39.3125 
Q 47.65625 37.796875 51.625 33 
Q 55.609375 28.21875 55.609375 21.1875 
Q 55.609375 10.40625 48.1875 4.484375 
Q 40.765625 -1.421875 27.09375 -1.421875 
Q 22.515625 -1.421875 17.65625 -0.515625 
Q 12.796875 0.390625 7.625 2.203125 
L 7.625 11.71875 
Q 11.71875 9.328125 16.59375 8.109375 
Q 21.484375 6.890625 26.8125 6.890625 
Q 36.078125 6.890625 40.9375 10.546875 
Q 45.796875 14.203125 45.796875 21.1875 
Q 45.796875 27.640625 41.28125 31.265625 
Q 36.765625 34.90625 28.71875 34.90625 
L 20.21875 34.90625 
L 20.21875 43.015625 
L 29.109375 43.015625 
Q 36.375 43.015625 40.234375 45.921875 
Q 44.09375 48.828125 44.09375 54.296875 
Q 44.09375 59.90625 40.109375 62.90625 
Q 36.140625 65.921875 28.71875 65.921875 
Q 24.65625 65.921875 20.015625 65.03125 
Q 15.375 64.15625 9.8125 62.3125 
L 9.8125 71.09375 
Q 15.4375 72.65625 20.34375 73.4375 
Q 25.25 74.21875 29.59375 74.21875 
Q 40.828125 74.21875 47.359375 69.109375 
Q 53.90625 64.015625 53.90625 55.328125 
Q 53.90625 49.265625 50.4375 45.09375 
Q 46.96875 40.921875 40.578125 39.3125 
z
" id="DejaVuSans-51"/>
       </defs>
       <use xlink:href="#DejaVuSans-51"/>
       <use x="63.623047" xlink:href="#DejaVuSans-53"/>
      </g>
     </g>
    </g>
    <g id="ytick_2">
     <g id="line2d_11">
      <g>
       <use style="stroke:#000000;stroke-width:0.8;" x="108" xlink:href="#m627922328f" y="323.340325"/>
      </g>
     </g>
     <g id="text_12">
      <!-- 40 -->
      <g transform="translate(88.275 327.139544)scale(0.1 -0.1)">
       <defs>
        <path d="M 37.796875 64.3125 
L 12.890625 25.390625 
L 37.796875 25.390625 
z
M 35.203125 72.90625 
L 47.609375 72.90625 
L 47.609375 25.390625 
L 58.015625 25.390625 
L 58.015625 17.1875 
L 47.609375 17.1875 
L 47.609375 0 
L 37.796875 0 
L 37.796875 17.1875 
L 4.890625 17.1875 
L 4.890625 26.703125 
z
" id="DejaVuSans-52"/>
       </defs>
       <use xlink:href="#DejaVuSans-52"/>
       <use x="63.623047" xlink:href="#DejaVuSans-48"/>
      </g>
     </g>
    </g>
    <g id="ytick_3">
     <g id="line2d_12">
      <g>
       <use style="stroke:#000000;stroke-width:0.8;" x="108" xlink:href="#m627922328f" y="245.355831"/>
      </g>
     </g>
     <g id="text_13">
      <!-- 45 -->
      <g transform="translate(88.275 249.15505)scale(0.1 -0.1)">
       <use xlink:href="#DejaVuSans-52"/>
       <use x="63.623047" xlink:href="#DejaVuSans-53"/>
      </g>
     </g>
    </g>
    <g id="ytick_4">
     <g id="line2d_13">
      <g>
       <use style="stroke:#000000;stroke-width:0.8;" x="108" xlink:href="#m627922328f" y="167.371338"/>
      </g>
     </g>
     <g id="text_14">
      <!-- 50 -->
      <g transform="translate(88.275 171.170557)scale(0.1 -0.1)">
       <use xlink:href="#DejaVuSans-53"/>
       <use x="63.623047" xlink:href="#DejaVuSans-48"/>
      </g>
     </g>
    </g>
    <g id="ytick_5">
     <g id="line2d_14">
      <g>
       <use style="stroke:#000000;stroke-width:0.8;" x="108" xlink:href="#m627922328f" y="89.386844"/>
      </g>
     </g>
     <g id="text_15">
      <!-- 55 -->
      <g transform="translate(88.275 93.186063)scale(0.1 -0.1)">
       <use xlink:href="#DejaVuSans-53"/>
       <use x="63.623047" xlink:href="#DejaVuSans-53"/>
      </g>
     </g>
    </g>
    <g id="text_16">
     <!-- MB -->
     <g transform="translate(82.61125 260.715625)rotate(-90)scale(0.08 -0.08)">
      <defs>
       <path d="M 9.8125 72.90625 
L 24.515625 72.90625 
L 43.109375 23.296875 
L 61.8125 72.90625 
L 76.515625 72.90625 
L 76.515625 0 
L 66.890625 0 
L 66.890625 64.015625 
L 48.09375 14.015625 
L 38.1875 14.015625 
L 19.390625 64.015625 
L 19.390625 0 
L 9.8125 0 
z
" id="DejaVuSans-77"/>
       <path d="M 19.671875 34.8125 
L 19.671875 8.109375 
L 35.5 8.109375 
Q 43.453125 8.109375 47.28125 11.40625 
Q 51.125 14.703125 51.125 21.484375 
Q 51.125 28.328125 47.28125 31.5625 
Q 43.453125 34.8125 35.5 34.8125 
z
M 19.671875 64.796875 
L 19.671875 42.828125 
L 34.28125 42.828125 
Q 41.5 42.828125 45.03125 45.53125 
Q 48.578125 48.25 48.578125 53.8125 
Q 48.578125 59.328125 45.03125 62.0625 
Q 41.5 64.796875 34.28125 64.796875 
z
M 9.8125 72.90625 
L 35.015625 72.90625 
Q 46.296875 72.90625 52.390625 68.21875 
Q 58.5 63.53125 58.5 54.890625 
Q 58.5 48.1875 55.375 44.234375 
Q 52.25 40.28125 46.1875 39.3125 
Q 53.46875 37.75 57.5 32.78125 
Q 61.53125 27.828125 61.53125 20.40625 
Q 61.53125 10.640625 54.890625 5.3125 
Q 48.25 0 35.984375 0 
L 9.8125 0 
z
" id="DejaVuSans-66"/>
      </defs>
      <use xlink:href="#DejaVuSans-77"/>
      <use x="86.279297" xlink:href="#DejaVuSans-66"/>
     </g>
    </g>
   </g>
   <g id="line2d_15">
    <path clip-path="url(#pfcf56f93df)" d="M 132.349091 430.854582 
L 132.604322 430.92 
L 132.859554 428.875683 
L 133.114786 430.854582 
L 133.370017 430.92 
L 133.625249 428.875683 
L 133.88048 428.875683 
L 134.135712 430.92 
L 136.432796 430.92 
L 136.688027 428.875683 
L 136.943259 430.92 
L 137.198491 430.854582 
L 137.453722 430.609264 
L 137.708954 429.317256 
L 137.964185 427.027621 
L 138.219417 421.941361 
L 138.72988 395.774107 
L 139.495575 327.314029 
L 140.006038 269.647944 
L 141.026964 152.631255 
L 141.282196 125.155639 
L 141.537427 113.625693 
L 142.04789 104.107354 
L 142.303122 105.399362 
L 142.558353 104.843308 
L 142.813585 104.712472 
L 143.068816 104.712472 
L 143.324048 102.798991 
L 143.57928 104.843308 
L 143.834511 104.385381 
L 144.344974 102.275646 
L 144.600206 101.703238 
L 144.855437 99.707984 
L 145.110669 101.883137 
L 145.365901 101.883137 
L 145.621132 102.14481 
L 146.131595 100.607484 
L 146.386827 97.352932 
L 146.642058 97.990758 
L 146.89729 97.401995 
L 147.152521 97.352932 
L 147.407753 96.895005 
L 147.662985 96.69875 
L 147.918216 96.960423 
L 148.173448 96.845941 
L 148.428679 97.352932 
L 148.683911 95.635706 
L 149.194374 100.100493 
L 149.449605 99.446312 
L 149.704837 99.397248 
L 149.960069 99.789757 
L 150.2153 97.467413 
L 150.470532 98.563167 
L 150.725763 97.663668 
L 150.980995 95.553933 
L 151.491458 98.808485 
L 151.74669 98.399622 
L 152.001921 98.252431 
L 152.257153 97.74544 
L 152.512384 97.696377 
L 152.767616 98.906612 
L 153.022847 96.862296 
L 153.278079 99.102867 
L 153.53331 96.993132 
L 153.788542 98.530458 
L 154.043774 98.792131 
L 154.299005 97.778149 
L 154.554237 97.908986 
L 154.809468 97.647313 
L 155.0647 96.306241 
L 155.319931 98.28514 
L 155.575163 96.306241 
L 155.830395 98.088886 
L 156.085626 98.28514 
L 156.340858 97.516477 
L 156.596089 97.827213 
L 156.851321 99.266412 
L 157.106552 99.642566 
L 157.361784 99.397248 
L 157.617015 98.743067 
L 157.872247 98.497749 
L 158.127479 98.694003 
L 158.38271 98.514103 
L 158.637942 99.969657 
L 158.893173 97.859922 
L 159.148405 97.663668 
L 159.403636 99.707984 
L 159.658868 100.035075 
L 159.914099 98.056177 
L 160.169331 98.056177 
L 160.424563 97.859922 
L 160.679794 99.33183 
L 161.190257 98.710358 
L 161.445489 99.953302 
L 161.70072 99.887884 
L 161.955952 100.476648 
L 162.211184 100.214975 
L 162.466415 100.656547 
L 162.976878 100.542066 
L 163.23211 98.628585 
L 163.487341 100.820093 
L 163.742573 98.775776 
L 163.997804 100.754675 
L 164.253036 100.313102 
L 164.508268 100.182266 
L 164.763499 98.187013 
L 165.018731 100.37852 
L 165.273962 100.182266 
L 165.529194 100.37852 
L 165.784425 98.710358 
L 166.039657 98.121595 
L 166.294889 98.710358 
L 166.805352 98.82484 
L 167.060583 99.462666 
L 167.571046 98.661294 
L 167.826278 96.289887 
L 168.081509 98.546813 
L 168.336741 98.023467 
L 168.591973 97.958049 
L 168.847204 96.175405 
L 169.102436 98.546813 
L 169.357667 99.168285 
L 169.612899 98.710358 
L 169.86813 99.446312 
L 170.123362 99.642566 
L 170.378593 99.479021 
L 170.633825 99.479021 
L 171.144288 100.362166 
L 171.39952 100.100493 
L 171.654751 97.810859 
L 171.909983 99.789757 
L 172.165214 99.200994 
L 172.420446 99.200994 
L 172.675678 99.69163 
L 172.930909 96.829587 
L 173.186141 98.759421 
L 173.441372 96.51885 
L 173.696604 98.612231 
L 173.951835 98.10524 
L 174.207067 98.170658 
L 174.462298 95.848314 
L 174.71753 98.334204 
L 174.972762 98.203367 
L 175.483225 98.415976 
L 175.738456 95.570287 
L 175.993688 97.483768 
L 176.248919 95.766542 
L 176.504151 97.810859 
L 177.014614 97.876277 
L 177.269846 97.696377 
L 177.525077 97.876277 
L 178.03554 98.530458 
L 178.290772 100.05143 
L 178.546003 98.007113 
L 178.801235 99.021094 
L 179.056467 101.065411 
L 179.311698 100.607484 
L 179.56693 100.542066 
L 179.822161 100.803738 
L 180.077393 100.542066 
L 180.332624 98.056177 
L 180.587856 100.345811 
L 180.843087 100.345811 
L 181.098319 98.187013 
L 181.353551 100.23133 
L 181.608782 100.05143 
L 181.864014 100.182266 
L 182.374477 100.803738 
L 182.629708 100.803738 
L 182.88494 96.715105 
L 183.140172 100.803738 
L 183.395403 100.623838 
L 183.650635 100.591129 
L 183.905866 100.247684 
L 184.161098 100.313102 
L 184.671561 100.182266 
L 185.437256 101.817719 
L 185.692487 99.789757 
L 185.947719 99.544439 
L 186.20295 101.523338 
L 186.458182 101.768656 
L 186.713413 99.593503 
L 186.968645 101.637819 
L 187.223877 101.637819 
L 187.479108 99.707984 
L 187.73434 101.752301 
L 187.989571 101.506983 
L 188.755266 101.506983 
L 189.010497 99.528085 
L 189.265729 102.210228 
L 189.520961 100.296748 
L 189.776192 100.165911 
L 190.031424 97.92534 
L 190.286655 102.079392 
L 190.541887 101.948556 
L 190.797118 99.838821 
L 191.05235 101.883137 
L 191.307581 102.079392 
L 192.838971 102.095746 
L 193.094202 100.247684 
L 193.349434 102.046683 
L 193.604666 99.855175 
L 193.859897 101.735947 
L 194.115129 99.626212 
L 194.37036 101.735947 
L 194.625592 99.757048 
L 194.880823 101.42521 
L 195.136055 101.490629 
L 195.391286 101.42521 
L 195.646518 101.670528 
L 196.412213 101.556047 
L 196.667444 99.822466 
L 196.922676 99.577148 
L 197.177907 101.556047 
L 197.433139 101.752301 
L 197.68837 101.752301 
L 197.943602 101.883137 
L 198.198834 99.528085 
L 198.454065 101.768656 
L 198.709297 101.392501 
L 198.964528 99.413603 
L 199.21976 99.479021 
L 199.474991 102.013974 
L 199.985455 102.079392 
L 200.240686 99.838821 
L 200.495918 101.883137 
L 200.751149 101.637819 
L 201.006381 101.752301 
L 201.516844 101.637819 
L 202.027307 101.572401 
L 202.53777 101.572401 
L 203.048233 100.869156 
L 203.303465 98.939321 
L 203.558696 100.91822 
L 203.813928 99.397248 
L 204.06916 101.441565 
L 204.324391 101.114474 
L 204.834854 101.049056 
L 205.345317 101.376147 
L 205.85578 101.310729 
L 206.366244 100.476648 
L 206.621475 100.787384 
L 206.876707 100.91822 
L 207.131938 100.869156 
L 207.38717 101.130829 
L 207.642401 99.15193 
L 207.897633 98.890258 
L 208.152864 98.955676 
L 208.408096 101.130829 
L 208.918559 101.130829 
L 209.173791 101.572401 
L 209.429022 101.376147 
L 209.684254 100.983638 
L 210.449949 100.869156 
L 210.70518 100.934574 
L 210.960412 98.906612 
L 211.215643 100.820093 
L 211.470875 101.065411 
L 211.726106 100.623838 
L 211.981338 100.803738 
L 212.491801 101.408856 
L 213.002264 101.343438 
L 213.257496 99.299121 
L 213.512727 101.45792 
L 214.02319 101.523338 
L 214.278422 99.479021 
L 214.533654 99.413603 
L 214.788885 101.327083 
L 215.044117 98.841194 
L 215.299348 100.950929 
L 215.55458 101.114474 
L 215.809811 101.42521 
L 216.320274 101.474274 
L 216.575506 101.130829 
L 216.830738 101.196247 
L 217.085969 99.15193 
L 217.341201 101.081765 
L 217.596432 100.836447 
L 218.362127 100.836447 
L 218.617358 96.862296 
L 219.127822 100.443938 
L 219.383053 100.394875 
L 220.148748 100.623838 
L 220.403979 100.493002 
L 220.659211 100.803738 
L 220.914443 98.955676 
L 221.169674 100.803738 
L 221.424906 100.73832 
L 221.680137 100.852802 
L 221.935369 98.301495 
L 222.1906 99.953302 
L 222.445832 99.887884 
L 222.956295 100.133202 
L 223.211527 100.967284 
L 223.466758 99.315476 
L 223.72199 100.55842 
L 223.977221 99.609857 
L 224.232453 97.74544 
L 224.487684 100.05143 
L 224.742916 100.37852 
L 224.998148 100.182266 
L 225.253379 95.897378 
L 225.508611 100.165911 
L 225.763842 100.165911 
L 226.019074 99.986011 
L 226.274305 100.182266 
L 227.295232 99.887884 
L 227.550463 97.451059 
L 227.805695 99.250057 
L 228.826621 99.200994 
L 229.081852 99.021094 
L 230.102779 99.593503 
L 230.35801 100.280393 
L 230.613242 100.280393 
L 230.868473 98.219722 
L 231.123705 99.887884 
L 232.144631 99.69163 
L 232.399863 99.69163 
L 232.655094 97.581895 
L 232.910326 99.626212 
L 233.165557 99.757048 
L 233.420789 97.958049 
L 233.676021 97.958049 
L 233.931252 100.116848 
L 234.186484 99.757048 
L 234.441715 97.532831 
L 234.696947 99.626212 
L 234.952178 97.647313 
L 235.20741 99.757048 
L 235.462642 99.757048 
L 235.717873 99.887884 
L 235.973105 99.822466 
L 236.228336 99.887884 
L 236.483568 100.394875 
L 236.994031 100.264039 
L 237.249262 100.427584 
L 237.504494 100.427584 
L 237.759726 98.563167 
L 238.014957 100.55842 
L 238.270189 100.247684 
L 238.52542 100.116848 
L 239.035883 100.116848 
L 239.291115 99.936948 
L 239.801578 99.87153 
L 240.05681 100.247684 
L 240.312041 99.544439 
L 240.567273 97.565541 
L 240.822504 99.462666 
L 241.588199 99.413603 
L 241.843431 99.413603 
L 242.098662 99.15193 
L 242.353894 99.086512 
L 242.864357 99.233703 
L 243.119588 97.009486 
L 243.37482 99.69163 
L 243.630051 99.887884 
L 243.885283 99.936948 
L 244.140515 100.182266 
L 244.395746 100.002366 
L 244.650978 99.675275 
L 244.906209 97.500122 
L 245.161441 97.173032 
L 245.416672 99.282767 
L 245.927136 99.397248 
L 246.182367 97.41835 
L 246.437599 98.857549 
L 246.69283 98.677649 
L 246.948062 98.28514 
L 247.203293 98.137949 
L 247.458525 98.661294 
L 247.713756 98.595876 
L 247.968988 97.941695 
L 248.22422 97.876277 
L 248.479451 98.072531 
L 248.734683 97.74544 
L 249.755609 97.680022 
L 250.01084 95.766542 
L 250.266072 98.072531 
L 250.521304 96.404369 
L 250.776535 98.268785 
L 251.031767 96.813232 
L 251.286998 98.317849 
L 251.54223 93.934834 
L 252.052693 98.28514 
L 252.307925 96.175405 
L 252.563156 98.088886 
L 252.818388 96.044569 
L 253.073619 97.892631 
L 253.328851 97.630959 
L 253.839314 97.434704 
L 254.094545 97.761795 
L 254.349777 97.761795 
L 254.605009 98.710358 
L 254.86024 98.383267 
L 255.115472 98.317849 
L 255.370703 97.941695 
L 255.625935 97.173032 
L 255.881166 95.259551 
L 256.136398 97.23845 
L 256.39163 97.23845 
L 256.646861 97.549186 
L 256.902093 97.303868 
L 257.157324 95.455806 
L 257.412556 95.014233 
L 257.667787 97.369286 
L 257.923019 97.680022 
L 258.17825 97.74544 
L 258.433482 98.056177 
L 258.688714 98.759421 
L 258.943945 98.82484 
L 259.454408 98.64494 
L 259.70964 98.64494 
L 259.964871 97.042195 
L 260.220103 99.086512 
L 260.475334 98.775776 
L 260.730566 97.107614 
L 260.985798 99.021094 
L 261.241029 98.497749 
L 261.496261 98.334204 
L 261.751492 98.775776 
L 262.261955 98.775776 
L 262.517187 97.352932 
L 262.772419 97.287513 
L 263.02765 99.004739 
L 263.282882 98.563167 
L 263.538113 98.448685 
L 263.793345 98.64494 
L 264.303808 99.462666 
L 264.559039 99.462666 
L 264.814271 97.222095 
L 265.069503 99.217348 
L 265.579966 99.806112 
L 265.835197 99.806112 
L 266.090429 97.941695 
L 266.34566 97.712731 
L 266.600892 97.696377 
L 266.856123 99.675275 
L 267.111355 97.778149 
L 267.366587 99.887884 
L 267.621818 97.647313 
L 267.87705 99.69163 
L 268.387513 99.757048 
L 268.897976 99.560794 
L 269.153208 99.560794 
L 269.408439 98.841194 
L 269.663671 98.710358 
L 269.918902 98.955676 
L 270.174134 98.628585 
L 270.429365 98.514103 
L 270.939828 97.778149 
L 271.19506 96.159051 
L 271.450292 98.007113 
L 271.705523 95.962796 
L 271.960755 98.072531 
L 272.215986 97.941695 
L 272.471218 98.383267 
L 272.726449 96.077278 
L 272.981681 98.563167 
L 273.236913 96.600623 
L 273.492144 98.579522 
L 273.747376 98.530458 
L 274.002607 98.088886 
L 274.257839 96.109987 
L 274.51307 98.137949 
L 274.768302 98.268785 
L 275.023533 98.203367 
L 275.278765 95.897378 
L 275.533997 96.273532 
L 275.789228 98.514103 
L 276.04446 98.448685 
L 276.299691 98.694003 
L 276.554923 98.514103 
L 276.810154 98.137949 
L 277.320617 98.121595 
L 277.575849 96.273532 
L 277.831081 98.317849 
L 278.086312 98.317849 
L 278.341544 98.187013 
L 278.596775 98.28514 
L 278.852007 97.908986 
L 279.617702 97.827213 
L 279.872933 98.481394 
L 280.383396 98.546813 
L 280.638628 98.170658 
L 281.149091 97.974404 
L 281.404322 98.219722 
L 281.659554 98.154304 
L 281.914786 96.060923 
L 282.170017 97.990758 
L 282.68048 98.007113 
L 282.935712 98.366913 
L 283.446175 98.317849 
L 283.956638 98.072531 
L 284.21187 96.289887 
L 284.467101 96.33895 
L 284.722333 98.497749 
L 284.977564 98.432331 
L 285.232796 96.33895 
L 285.488027 98.334204 
L 285.743259 98.579522 
L 285.998491 98.514103 
L 286.253722 98.137949 
L 286.764185 98.154304 
L 287.274648 99.364539 
L 287.52988 99.315476 
L 288.040343 98.743067 
L 288.295575 98.939321 
L 288.550806 98.939321 
L 288.806038 96.895005 
L 289.061269 98.743067 
L 289.316501 98.546813 
L 289.571732 98.857549 
L 289.826964 98.726712 
L 290.082196 98.726712 
L 290.337427 99.053803 
L 290.592659 98.922967 
L 290.84789 99.315476 
L 291.103122 99.315476 
L 291.358353 96.813232 
L 291.613585 98.857549 
L 291.868816 98.792131 
L 292.124048 98.481394 
L 292.37928 98.661294 
L 292.889743 98.219722 
L 293.144974 97.385641 
L 293.655437 97.205741 
L 293.910669 95.210488 
L 294.165901 97.451059 
L 294.421132 97.140323 
L 294.676364 94.883397 
L 294.931595 96.796877 
L 295.442058 96.862296 
L 295.69729 97.123968 
L 296.207753 97.320223 
L 296.462985 97.451059 
L 296.973448 97.451059 
L 297.228679 97.761795 
L 297.483911 95.848314 
L 297.739142 98.399622 
L 298.249605 98.792131 
L 299.270532 98.792131 
L 299.525763 98.595876 
L 299.780995 98.792131 
L 300.036226 98.661294 
L 300.291458 97.958049 
L 301.057153 94.883397 
L 301.567616 94.212861 
L 302.078079 94.507243 
L 302.33331 93.73858 
L 302.588542 93.983898 
L 302.843774 90.287773 
L 303.099005 94.867042 
L 303.609468 95.128715 
L 303.8647 94.997879 
L 304.119931 95.586642 
L 304.375163 95.079651 
L 304.630395 91.154563 
L 304.885626 95.177779 
L 305.140858 94.589015 
L 305.396089 94.392761 
L 305.651321 94.458179 
L 305.906552 90.107873 
L 306.161784 94.441825 
L 306.927479 93.329716 
L 307.18271 94.114734 
L 307.437942 94.24557 
L 307.693173 93.084398 
L 307.948405 95.128715 
L 308.203636 94.229216 
L 308.458868 93.787643 
L 308.714099 93.656807 
L 309.479794 95.439451 
L 309.735026 95.177779 
L 309.990257 95.504869 
L 310.245489 91.2854 
L 310.50072 95.946442 
L 310.755952 96.208114 
L 311.011184 96.208114 
L 311.266415 93.983898 
L 311.521647 95.962796 
L 312.287341 95.83196 
L 312.542573 95.83196 
L 312.797804 96.273532 
L 313.308268 96.208114 
L 313.563499 96.51885 
L 313.818731 94.654434 
L 314.073962 95.897378 
L 314.329194 95.570287 
L 314.584425 96.028214 
L 315.35012 95.962796 
L 315.605352 96.731459 
L 315.860583 96.731459 
L 316.371046 95.439451 
L 316.626278 95.619351 
L 316.881509 96.388014 
L 317.136741 96.208114 
L 317.647204 96.273532 
L 317.902436 94.801624 
L 318.157667 97.254804 
L 318.412899 94.556306 
L 318.66813 96.649687 
L 319.178593 96.33895 
L 319.433825 96.33895 
L 319.689057 96.600623 
L 319.944288 96.666041 
L 320.19952 96.993132 
L 320.454751 96.862296 
L 320.709983 95.014233 
L 320.965214 96.862296 
L 321.730909 97.107614 
L 322.241372 98.121595 
L 322.496604 95.619351 
L 322.751835 95.177779 
L 323.007067 97.107614 
L 323.772762 97.41835 
L 324.027993 96.927714 
L 324.283225 96.862296 
L 324.538456 96.469787 
L 324.793688 97.320223 
L 325.048919 97.516477 
L 325.559383 97.254804 
L 325.814614 95.537578 
L 326.069846 97.451059 
L 326.325077 95.717478 
L 326.580309 97.565541 
L 326.83554 97.434704 
L 327.346003 97.876277 
L 327.601235 95.570287 
L 327.856467 97.614604 
L 328.111698 97.990758 
L 328.622161 97.352932 
L 328.877393 97.614604 
L 329.387856 97.696377 
L 329.643087 97.827213 
L 329.898319 97.696377 
L 330.153551 97.827213 
L 330.408782 98.088886 
L 330.664014 95.782896 
L 330.919245 97.761795 
L 331.174477 98.072531 
L 331.429708 98.137949 
L 331.68494 99.102867 
L 331.940172 97.827213 
L 332.195403 99.87153 
L 332.705866 99.364539 
L 333.216329 99.429957 
L 333.471561 97.320223 
L 333.726792 99.429957 
L 333.982024 99.544439 
L 334.492487 99.315476 
L 334.747719 99.200994 
L 335.00295 99.446312 
L 335.258182 99.446312 
L 335.513413 99.250057 
L 335.768645 97.140323 
L 336.023877 99.184639 
L 336.279108 99.119221 
L 336.53434 97.140323 
L 336.789571 99.184639 
L 337.044803 99.446312 
L 337.555266 99.446312 
L 337.810497 97.271159 
L 338.065729 99.380894 
L 338.320961 99.315476 
L 338.576192 97.320223 
L 338.831424 99.626212 
L 339.086655 97.074905 
L 339.341887 98.988385 
L 339.597118 98.922967 
L 339.85235 96.87865 
L 340.107581 99.119221 
L 340.362813 98.808485 
L 340.618045 98.743067 
L 340.873276 98.808485 
L 341.128508 98.677649 
L 341.383739 98.219722 
L 341.638971 98.154304 
L 341.894202 98.28514 
L 342.149434 98.088886 
L 342.659897 98.088886 
L 342.915129 96.240823 
L 343.17036 97.843568 
L 343.425592 95.259551 
L 343.680823 97.173032 
L 344.446518 97.369286 
L 344.70175 95.521224 
L 344.956981 97.369286 
L 345.212213 97.173032 
L 345.977907 97.369286 
L 346.48837 97.320223 
L 346.743602 95.455806 
L 346.998834 97.320223 
L 347.509297 97.385641 
L 347.764528 95.341324 
L 348.01976 97.451059 
L 348.274991 95.537578 
L 348.530223 97.434704 
L 348.785455 97.434704 
L 349.040686 97.876277 
L 349.295918 97.287513 
L 349.551149 97.025841 
L 349.806381 97.156677 
L 350.061612 97.156677 
L 350.316844 96.960423 
L 350.572075 96.960423 
L 350.827307 97.156677 
L 351.082539 94.981524 
L 351.33777 97.025841 
L 351.593002 97.41835 
L 351.848233 97.287513 
L 352.103465 95.194133 
L 352.358696 94.687143 
L 352.613928 96.420723 
L 352.86916 96.355305 
L 353.124391 94.539952 
L 353.379623 97.352932 
L 353.634854 97.59825 
L 354.400549 97.369286 
L 354.65578 97.303868 
L 354.911012 97.680022 
L 355.421475 97.680022 
L 355.676707 98.007113 
L 356.18717 97.892631 
L 356.442401 98.203367 
L 356.952864 98.072531 
L 357.208096 97.434704 
L 357.463328 97.23845 
L 357.718559 95.063297 
L 357.973791 97.369286 
L 358.229022 97.173032 
L 358.484254 97.369286 
L 358.739485 95.390388 
L 358.994717 97.434704 
L 359.249949 97.434704 
L 359.50518 97.303868 
L 359.760412 97.303868 
L 360.015643 98.121595 
L 360.270875 98.187013 
L 360.526106 98.497749 
L 360.781338 96.51885 
L 361.036569 98.82484 
L 361.291801 98.775776 
L 361.547033 97.05855 
L 361.802264 99.102867 
L 362.057496 99.168285 
L 362.312727 97.123968 
L 362.567959 99.904239 
L 362.82319 97.729086 
L 363.078422 99.707984 
L 363.333654 99.577148 
L 363.588885 99.577148 
L 363.844117 99.004739 
L 364.609811 99.070158 
L 364.865043 99.200994 
L 365.630738 99.135576 
L 366.141201 98.939321 
L 366.396432 98.023467 
L 366.651664 95.390388 
L 366.906895 97.434704 
L 367.67259 97.500122 
L 367.927822 97.565541 
L 368.438285 96.37166 
L 368.693516 96.388014 
L 368.948748 96.551559 
L 369.203979 96.551559 
L 369.969674 96.862296 
L 370.224906 97.254804 
L 370.480137 96.567914 
L 370.735369 96.764168 
L 371.245832 96.502496 
L 371.501063 96.437078 
L 371.756295 96.109987 
L 372.011527 95.979151 
L 372.266758 96.37166 
L 373.287684 96.388014 
L 373.542916 94.670788 
L 373.798148 96.715105 
L 374.053379 96.780523 
L 374.308611 94.539952 
L 374.563842 96.845941 
L 374.819074 96.649687 
L 375.074305 96.616978 
L 375.329537 94.572661 
L 375.584768 96.616978 
L 375.84 96.551559 
L 376.095232 96.993132 
L 376.350463 96.437078 
L 376.605695 93.91848 
L 376.860926 95.897378 
L 377.371389 96.616978 
L 377.626621 96.731459 
L 377.881852 96.437078 
L 378.137084 94.932461 
L 378.392316 94.719852 
L 378.647547 95.308615 
L 378.902779 95.374033 
L 379.15801 95.962796 
L 379.413242 95.962796 
L 379.668473 95.83196 
L 379.923705 93.460553 
L 380.178937 95.11236 
L 380.434168 94.932461 
L 380.944631 95.619351 
L 381.199863 96.715105 
L 381.455094 94.670788 
L 381.710326 97.352932 
L 381.965557 95.177779 
L 382.220789 97.156677 
L 382.476021 94.850688 
L 382.731252 97.352932 
L 383.241715 97.042195 
L 383.496947 97.107614 
L 383.752178 95.374033 
L 384.00741 97.287513 
L 384.262642 96.845941 
L 384.517873 95.930087 
L 384.773105 95.83196 
L 385.028336 96.01186 
L 385.283568 96.584268 
L 385.538799 94.670788 
L 385.794031 96.845941 
L 386.304494 96.911359 
L 386.559726 96.060923 
L 386.814957 96.257178 
L 387.070189 96.257178 
L 387.32542 94.474534 
L 387.580652 96.51885 
L 387.835883 96.51885 
L 388.091115 94.360052 
L 388.346346 94.032961 
L 388.601578 96.388014 
L 388.85681 96.649687 
L 389.367273 95.815605 
L 389.622504 96.584268 
L 389.877736 96.584268 
L 390.132967 96.273532 
L 390.388199 96.33895 
L 390.643431 96.273532 
L 390.898662 96.077278 
L 391.409125 97.156677 
L 392.17482 96.895005 
L 392.430051 94.654434 
L 392.685283 94.654434 
L 392.940515 96.437078 
L 393.450978 96.813232 
L 393.706209 96.813232 
L 393.961441 97.451059 
L 394.216672 93.362425 
L 394.471904 95.096006 
L 394.727136 95.619351 
L 395.237599 95.259551 
L 395.49283 95.701124 
L 395.748062 97.810859 
L 396.003293 97.74544 
L 396.258525 95.324969 
L 396.513756 95.962796 
L 396.768988 97.827213 
L 397.02422 97.761795 
L 397.279451 97.827213 
L 397.534683 95.782896 
L 397.789914 97.827213 
L 398.045146 95.65206 
L 398.300377 97.680022 
L 398.555609 97.581895 
L 398.81084 97.254804 
L 399.066072 97.123968 
L 399.831767 97.123968 
L 400.086998 97.451059 
L 400.34223 95.210488 
L 400.597461 97.810859 
L 400.852693 95.701124 
L 401.107925 95.701124 
L 401.363156 97.614604 
L 401.618388 97.565541 
L 401.873619 95.521224 
L 402.128851 96.649687 
L 402.384082 95.766542 
L 402.639314 93.673162 
L 402.894545 96.044569 
L 403.915472 96.486141 
L 404.170703 96.289887 
L 404.425935 96.289887 
L 405.19163 97.352932 
L 405.957324 97.042195 
L 406.467787 96.044569 
L 406.723019 96.175405 
L 406.97825 96.044569 
L 407.233482 96.616978 
L 407.488714 96.551559 
L 407.743945 94.621724 
L 407.999177 96.616978 
L 408.50964 95.29226 
L 409.020103 96.159051 
L 409.275334 96.420723 
L 409.530566 96.355305 
L 409.785798 96.682396 
L 410.041029 96.551559 
L 410.296261 96.551559 
L 411.061955 96.862296 
L 411.82765 96.813232 
L 412.338113 96.257178 
L 412.593345 94.343697 
L 412.848576 96.51885 
L 413.103808 96.322596 
L 413.359039 95.930087 
L 413.614271 93.88577 
L 413.869503 95.930087 
L 414.124734 96.109987 
L 414.379966 94.131088 
L 414.635197 96.175405 
L 414.890429 96.306241 
L 415.14566 94.441825 
L 415.400892 96.551559 
L 415.911355 96.469787 
L 416.166587 94.507243 
L 416.421818 96.469787 
L 416.67705 96.911359 
L 416.932281 96.862296 
L 417.187513 94.670788 
L 417.442744 97.156677 
L 417.697976 96.077278 
L 417.953208 93.640452 
L 418.208439 95.553933 
L 418.463671 96.142696 
L 418.718902 96.273532 
L 418.974134 96.273532 
L 419.229365 95.766542 
L 419.484597 95.897378 
L 419.739828 95.701124 
L 420.250292 96.273532 
L 420.505523 96.159051 
L 420.760755 96.420723 
L 421.271218 96.420723 
L 421.781681 95.766542 
L 422.036913 96.093632 
L 422.547376 95.962796 
L 422.802607 94.376406 
L 423.057839 96.420723 
L 423.31307 96.420723 
L 423.568302 96.87865 
L 423.823533 96.551559 
L 424.078765 94.441825 
L 424.333997 96.616978 
L 424.589228 96.616978 
L 424.84446 95.194133 
L 425.099691 97.303868 
L 425.354923 97.500122 
L 426.120617 96.208114 
L 426.375849 93.705871 
L 426.631081 95.750187 
L 426.886312 95.750187 
L 427.141544 96.33895 
L 427.396775 96.33895 
L 427.652007 96.01186 
L 427.907238 95.946442 
L 428.16247 96.126342 
L 428.417702 96.01186 
L 428.672933 93.967543 
L 428.928165 96.208114 
L 429.183396 94.163798 
L 429.438628 96.584268 
L 429.693859 96.51885 
L 429.949091 96.69875 
L 430.204322 94.654434 
L 430.459554 97.287513 
L 430.714786 94.932461 
L 430.970017 97.025841 
L 431.225249 97.483768 
L 431.735712 97.434704 
L 431.990943 97.810859 
L 432.501407 97.549186 
L 433.01187 96.142696 
L 433.267101 95.946442 
L 434.032796 96.19176 
L 434.288027 96.19176 
L 434.543259 96.584268 
L 434.798491 97.222095 
L 435.053722 96.420723 
L 435.308954 96.469787 
L 435.564185 96.845941 
L 436.074648 96.911359 
L 436.32988 95.635706 
L 436.585111 97.173032 
L 436.840343 96.584268 
L 437.095575 96.388014 
L 437.350806 97.009486 
L 437.606038 97.025841 
L 437.861269 97.401995 
L 438.116501 95.423097 
L 438.371732 97.025841 
L 438.626964 97.336577 
L 438.882196 96.322596 
L 439.137427 96.33895 
L 439.392659 94.212861 
L 439.64789 96.19176 
L 440.158353 95.684769 
L 440.413585 93.836707 
L 440.668816 95.570287 
L 440.924048 95.553933 
L 441.17928 93.215235 
L 441.434511 95.504869 
L 441.689743 95.47216 
L 441.944974 95.259551 
L 442.200206 93.247944 
L 442.455437 95.11236 
L 442.710669 94.932461 
L 443.221132 94.932461 
L 443.476364 95.259551 
L 443.731595 95.308615 
L 443.986827 94.932461 
L 444.242058 95.570287 
L 444.752521 95.194133 
L 445.007753 95.455806 
L 445.262985 95.979151 
L 445.518216 96.044569 
L 445.773448 95.848314 
L 446.028679 93.084398 
L 446.283911 95.374033 
L 446.539142 95.324969 
L 447.304837 94.556306 
L 447.560069 94.490888 
L 447.8153 94.556306 
L 448.070532 94.490888 
L 448.325763 94.817979 
L 448.580995 94.572661 
L 448.836226 93.934834 
L 449.091458 94.000252 
L 449.34669 94.24557 
L 449.601921 94.834333 
L 449.857153 94.883397 
L 450.112384 94.768915 
L 450.367616 95.406742 
L 450.622847 95.259551 
L 450.878079 95.324969 
L 451.13331 93.215235 
L 451.388542 94.997879 
L 451.643774 95.455806 
L 451.899005 94.114734 
L 452.154237 96.796877 
L 452.409468 95.619351 
L 452.6647 92.937207 
L 452.919931 94.981524 
L 453.175163 95.11236 
L 453.430395 93.19888 
L 453.685626 95.308615 
L 453.940858 95.11236 
L 454.451321 93.88577 
L 455.217015 94.539952 
L 455.727479 94.474534 
L 455.98271 95.046942 
L 456.237942 95.046942 
L 456.493173 95.439451 
L 456.748405 95.374033 
L 457.003636 95.570287 
L 457.258868 96.33895 
L 457.514099 96.273532 
L 457.769331 96.404369 
L 458.279794 96.289887 
L 458.535026 96.404369 
L 458.790257 96.289887 
L 459.555952 96.404369 
L 459.811184 94.24557 
L 460.066415 96.33895 
L 460.321647 96.33895 
L 460.83211 95.684769 
L 461.087341 94.997879 
L 461.597804 92.675535 
L 462.108268 85.266931 
L 462.618731 80.622244 
L 462.873962 80.295153 
L 463.129194 78.12 
L 463.384425 80.164317 
L 464.15012 81.178298 
L 464.405352 81.243716 
L 464.660583 82.257697 
L 464.915815 82.650206 
L 465.426278 84.400141 
L 465.681509 82.617497 
L 465.936741 84.596395 
L 466.191973 84.07305 
L 466.447204 83.942214 
L 466.702436 81.767061 
L 466.957667 83.811378 
L 467.46813 83.615123 
L 467.723362 81.047462 
L 467.978593 82.699269 
L 468.233825 83.320742 
L 468.744288 83.778669 
L 468.99952 83.713251 
L 469.254751 85.250577 
L 469.509983 85.315995 
L 469.765214 87.687402 
L 470.020446 85.773922 
L 470.275678 86.608003 
L 470.530909 88.586902 
L 470.786141 88.586902 
L 471.296604 90.124228 
L 471.807067 89.862555 
L 472.062298 89.993391 
L 472.572762 90.778409 
L 472.827993 88.930347 
L 473.083225 90.909245 
L 473.338456 90.598509 
L 473.593688 90.663927 
L 473.848919 90.533091 
L 474.104151 91.498009 
L 474.359383 91.825099 
L 474.614614 91.890517 
L 474.869846 92.184899 
L 475.125077 91.923226 
L 475.380309 91.923226 
L 475.63554 91.596136 
L 475.890772 92.233963 
L 476.146003 91.906872 
L 476.401235 92.233963 
L 476.656467 92.937207 
L 476.911698 92.561053 
L 477.16693 92.871789 
L 477.422161 92.806371 
L 477.677393 92.937207 
L 477.932624 90.663927 
L 478.187856 93.297007 
L 478.698319 93.297007 
L 478.953551 94.049316 
L 479.208782 92.691889 
L 479.464014 92.103126 
L 479.719245 94.082025 
L 479.974477 92.315735 
L 480.229708 94.638079 
L 480.48494 95.161424 
L 480.740172 94.96517 
L 480.995403 94.278279 
L 481.250635 94.850688 
L 481.505866 91.906872 
L 481.761098 94.458179 
L 482.016329 95.29226 
L 482.271561 95.357678 
L 482.526792 94.850688 
L 483.037256 94.899752 
L 484.058182 94.96517 
L 484.313413 95.226842 
L 484.568645 95.275906 
L 485.079108 95.65206 
L 485.33434 96.404369 
L 485.589571 96.600623 
L 485.844803 96.616978 
L 486.100034 96.486141 
L 486.355266 96.109987 
L 486.610497 94.06567 
L 486.865729 96.486141 
L 487.120961 96.813232 
L 487.376192 96.69875 
L 487.631424 96.895005 
L 488.141887 96.895005 
L 488.397118 94.261925 
L 488.65235 95.406742 
L 488.907581 93.673162 
L 489.162813 96.028214 
L 489.418045 96.028214 
L 489.673276 96.289887 
L 490.438971 96.044569 
L 490.694202 95.014233 
L 490.949434 95.341324 
L 491.204666 95.079651 
L 491.459897 93.329716 
L 491.715129 95.390388 
L 491.97036 95.586642 
L 492.480823 96.584268 
L 492.736055 96.51885 
L 492.991286 96.649687 
L 493.246518 97.042195 
L 493.50175 96.780523 
L 494.012213 97.107614 
L 494.522676 96.993132 
L 494.777907 94.752561 
L 495.033139 94.098379 
L 495.28837 95.684769 
L 495.798834 95.504869 
L 496.054065 95.194133 
L 496.564528 95.324969 
L 496.81976 94.556306 
L 497.074991 94.932461 
L 497.330223 94.932461 
L 497.840686 94.670788 
L 498.095918 92.691889 
L 498.351149 94.801624 
L 498.606381 94.736206 
L 499.116844 96.224469 
L 499.372075 96.159051 
L 499.882539 96.273532 
L 500.13777 96.109987 
L 500.393002 96.437078 
L 500.648233 94.212861 
L 500.903465 96.19176 
L 501.158696 96.19176 
L 501.413928 92.168544 
L 501.66916 96.388014 
L 501.924391 94.343697 
L 502.179623 96.19176 
L 502.434854 96.126342 
L 502.690086 96.388014 
L 502.945317 94.343697 
L 503.200549 96.453432 
L 503.45578 94.670788 
L 503.711012 96.584268 
L 503.966244 94.539952 
L 504.221475 96.649687 
L 504.476707 96.780523 
L 504.98717 96.715105 
L 505.242401 92.626471 
L 505.497633 96.584268 
L 505.752864 96.584268 
L 506.008096 94.850688 
L 506.263328 96.682396 
L 506.518559 96.420723 
L 506.773791 96.796877 
L 507.029022 96.666041 
L 507.284254 96.731459 
L 507.539485 94.490888 
L 507.794717 96.600623 
L 508.049949 96.616978 
L 508.560412 95.848314 
L 508.815643 95.848314 
L 509.070875 96.109987 
L 509.326106 95.979151 
L 509.581338 95.717478 
L 509.836569 96.224469 
L 510.091801 95.897378 
L 510.602264 95.717478 
L 510.857496 96.109987 
L 511.112727 94.000252 
L 511.367959 94.000252 
L 511.62319 93.869416 
L 511.878422 95.913733 
L 512.133654 93.803998 
L 512.388885 95.782896 
L 512.644117 94.131088 
L 512.899348 96.175405 
L 513.15458 96.175405 
L 513.665043 91.694263 
L 513.920274 96.077278 
L 514.175506 94.229216 
L 514.430738 96.208114 
L 514.685969 96.322596 
L 515.196432 96.224469 
L 515.451664 96.028214 
L 515.706895 96.682396 
L 515.962127 94.572661 
L 516.217358 97.05855 
L 516.47259 96.927714 
L 516.727822 92.822726 
L 516.983053 96.469787 
L 517.238285 96.600623 
L 517.493516 96.600623 
L 517.748748 96.796877 
L 518.003979 96.731459 
L 518.259211 96.796877 
L 518.514443 96.731459 
L 519.024906 96.796877 
L 519.7906 96.731459 
L 520.045832 96.666041 
L 520.301063 94.736206 
L 520.556295 96.142696 
L 520.811527 96.142696 
L 521.066758 96.51885 
L 521.32199 96.208114 
L 521.577221 96.224469 
L 521.832453 96.01186 
L 522.087684 95.962796 
L 522.342916 94.294634 
L 522.598148 94.752561 
L 522.853379 96.535205 
L 523.619074 92.83908 
L 523.874305 95.324969 
L 524.64 95.128715 
L 524.895232 93.084398 
L 525.150463 95.455806 
L 525.660926 95.079651 
L 525.916158 95.488515 
L 526.171389 95.324969 
L 526.426621 93.068044 
L 526.681852 94.932461 
L 527.447547 94.932461 
L 527.702779 95.308615 
L 527.95801 95.308615 
L 528.468473 95.881024 
L 528.723705 94.212861 
L 528.978937 94.589015 
L 529.234168 92.348444 
L 529.4894 96.502496 
L 529.744631 96.567914 
L 530.510326 96.322596 
L 530.765557 95.881024 
L 531.276021 95.488515 
L 531.786484 95.553933 
L 532.041715 95.553933 
L 532.296947 95.815605 
L 532.80741 95.226842 
L 533.062642 93.182525 
L 533.317873 93.493262 
L 533.573105 94.981524 
L 533.828336 94.850688 
L 534.083568 94.916106 
L 534.338799 95.226842 
L 534.594031 93.117107 
L 534.849262 95.096006 
L 535.104494 95.930087 
L 535.359726 95.488515 
L 535.614957 94.768915 
L 535.870189 93.55868 
L 536.12542 95.864669 
L 536.380652 95.864669 
L 536.635883 94.000252 
L 536.891115 95.979151 
L 537.401578 95.913733 
L 537.65681 93.803998 
L 537.912041 95.521224 
L 538.167273 95.766542 
L 538.677736 95.701124 
L 538.932967 95.766542 
L 539.188199 96.208114 
L 539.443431 95.619351 
L 539.698662 93.329716 
L 539.953894 94.817979 
L 540.464357 94.572661 
L 540.719588 94.834333 
L 541.230051 94.768915 
L 541.485283 94.572661 
L 541.740515 94.638079 
L 541.995746 94.360052 
L 542.250978 94.556306 
L 542.506209 95.684769 
L 542.761441 95.684769 
L 543.016672 96.142696 
L 543.271904 94.098379 
L 543.527136 95.864669 
L 543.782367 93.362425 
L 544.037599 95.275906 
L 544.29283 95.275906 
L 544.548062 93.231589 
L 544.803293 95.341324 
L 545.568988 95.390388 
L 545.82422 95.390388 
L 546.334683 95.65206 
L 546.589914 96.289887 
L 546.845146 95.979151 
L 547.355609 95.782896 
L 547.61084 95.962796 
L 547.866072 95.962796 
L 548.631767 95.65206 
L 548.886998 95.83196 
L 549.14223 96.780523 
L 549.397461 96.780523 
L 549.652693 97.107614 
L 549.907925 95.324969 
L 550.163156 95.897378 
L 550.418388 95.881024 
L 550.673619 97.663668 
L 551.184082 97.467413 
L 551.439314 97.042195 
L 551.694545 95.128715 
L 551.949777 97.042195 
L 552.205009 97.042195 
L 552.46024 95.063297 
L 552.715472 96.911359 
L 552.970703 96.584268 
L 553.225935 94.539952 
L 553.481166 96.584268 
L 553.99163 96.649687 
L 554.246861 96.649687 
L 554.502093 94.539952 
L 554.757324 96.453432 
L 555.012556 96.453432 
L 555.267787 96.208114 
L 555.77825 96.960423 
L 556.033482 97.271159 
L 556.288714 97.401995 
L 556.543945 95.423097 
L 556.799177 97.451059 
L 557.054408 93.427844 
L 557.30964 97.385641 
L 557.820103 92.740953 
L 558.075334 96.51885 
L 558.330566 94.409116 
L 558.585798 96.584268 
L 558.841029 96.584268 
L 559.096261 96.388014 
L 559.351492 95.946442 
L 559.861955 95.635706 
L 560.117187 95.570287 
L 560.372419 95.897378 
L 560.62765 95.897378 
L 560.882882 96.224469 
L 561.138113 93.983898 
L 561.393345 96.028214 
L 561.648576 95.83196 
L 561.903808 95.063297 
L 562.414271 94.752561 
L 562.669503 94.621724 
L 562.924734 94.736206 
L 563.179966 95.177779 
L 563.435197 95.308615 
L 563.690429 95.586642 
L 564.200892 95.521224 
L 564.456123 95.766542 
L 564.966587 95.717478 
L 565.221818 95.799251 
L 565.47705 93.754934 
L 565.732281 95.733833 
L 565.987513 95.864669 
L 566.242744 95.668415 
L 566.497976 95.668415 
L 566.753208 95.799251 
L 567.263671 95.537578 
L 567.518902 95.733833 
L 567.774134 95.47216 
L 568.029365 93.607743 
L 568.284597 95.733833 
L 568.539828 95.537578 
L 568.79506 95.537578 
L 569.050292 93.754934 
L 569.305523 96.257178 
L 569.560755 94.114734 
L 569.815986 95.766542 
L 570.326449 95.439451 
L 570.581681 95.962796 
L 570.836913 96.142696 
L 571.092144 94.049316 
L 571.347376 96.093632 
L 571.602607 95.815605 
L 572.11307 95.602996 
L 572.368302 95.423097 
L 572.623533 95.930087 
L 572.878765 93.88577 
L 573.133997 95.930087 
L 573.389228 95.930087 
L 573.64446 95.668415 
L 573.899691 95.602996 
L 574.154923 91.579781 
L 574.665386 95.602996 
L 574.920617 95.864669 
L 575.431081 95.799251 
L 575.686312 96.109987 
L 575.941544 95.65206 
L 576.452007 95.537578 
L 576.707238 96.01186 
L 576.96247 95.897378 
L 577.728165 96.19176 
L 577.983396 96.666041 
L 578.238628 96.404369 
L 578.493859 95.308615 
L 578.749091 95.128715 
L 579.004322 95.324969 
L 579.259554 93.329716 
L 579.514786 95.521224 
L 579.770017 93.542325 
L 580.025249 94.948815 
L 580.535712 94.736206 
L 580.790943 94.621724 
L 581.046175 94.850688 
L 581.301407 95.570287 
L 581.556638 95.324969 
L 581.81187 93.215235 
L 582.067101 95.259551 
L 582.322333 93.084398 
L 582.577564 95.324969 
L 582.832796 93.215235 
L 583.088027 93.084398 
L 583.343259 95.128715 
L 583.853722 96.33895 
L 584.108954 96.616978 
L 584.364185 96.420723 
L 584.619417 94.883397 
L 584.874648 96.927714 
L 585.12988 96.993132 
L 585.640343 96.927714 
L 585.895575 97.23845 
L 586.406038 97.107614 
L 586.661269 94.801624 
L 586.916501 97.173032 
L 587.426964 97.107614 
L 587.682196 95.063297 
L 587.937427 94.997879 
L 588.192659 96.666041 
L 588.44789 95.782896 
L 588.703122 95.423097 
L 588.958353 93.689516 
L 589.213585 95.668415 
L 589.468816 95.733833 
L 589.97928 95.47216 
L 590.234511 95.619351 
L 590.489743 94.899752 
L 590.744974 95.063297 
L 591.000206 93.460553 
L 591.255437 95.701124 
L 591.510669 95.701124 
L 591.765901 95.83196 
L 592.021132 94.850688 
L 592.276364 95.079651 
L 592.531595 95.079651 
L 593.042058 95.341324 
L 593.29729 95.341324 
L 593.552521 93.55868 
L 593.807753 93.509616 
L 594.062985 95.423097 
L 594.318216 95.29226 
L 594.573448 94.78527 
L 594.828679 94.850688 
L 595.083911 93.068044 
L 595.339142 95.374033 
L 596.104837 95.439451 
L 596.360069 94.78527 
L 596.870532 94.490888 
L 597.125763 95.014233 
L 597.380995 94.948815 
L 597.636226 95.275906 
L 597.891458 95.406742 
L 598.14669 95.324969 
L 598.401921 94.441825 
L 598.657153 94.360052 
L 598.912384 94.981524 
L 599.167616 95.29226 
L 599.422847 95.357678 
L 599.678079 95.668415 
L 600.188542 95.750187 
L 600.443774 95.619351 
L 600.954237 95.684769 
L 601.719931 95.553933 
L 601.975163 95.946442 
L 602.230395 96.060923 
L 602.485626 93.836707 
L 602.740858 95.684769 
L 602.996089 95.619351 
L 603.251321 93.575034 
L 603.506552 95.619351 
L 603.761784 96.077278 
L 604.017015 95.83196 
L 604.272247 96.33895 
L 604.527479 96.273532 
L 604.78271 96.469787 
L 605.037942 94.621724 
L 605.293173 96.731459 
L 605.548405 96.535205 
L 605.803636 96.142696 
L 606.058868 96.355305 
L 606.314099 96.142696 
L 606.569331 94.42547 
L 606.824563 96.109987 
L 607.079794 95.782896 
L 607.845489 95.782896 
L 608.355952 95.913733 
L 608.611184 93.869416 
L 608.866415 95.733833 
L 609.121647 95.275906 
L 609.376878 95.14507 
L 609.63211 92.969917 
L 609.887341 94.948815 
L 610.142573 95.079651 
L 610.653036 95.079651 
L 610.908268 94.556306 
L 611.163499 94.360052 
L 611.418731 93.346071 
L 611.929194 94.360052 
L 612.184425 94.60537 
L 612.439657 94.670788 
L 612.694889 94.343697 
L 612.95012 92.119481 
L 613.205352 91.79239 
L 613.460583 91.939581 
L 613.715815 93.91848 
L 614.991973 93.983898 
L 615.757667 94.60537 
L 616.012899 92.691889 
L 616.26813 94.867042 
L 616.523362 94.997879 
L 616.778593 94.867042 
L 617.033825 94.997879 
L 617.544288 94.867042 
L 617.79952 94.997879 
L 618.054751 94.867042 
L 618.309983 94.867042 
L 618.565214 92.953562 
L 618.820446 94.932461 
L 619.075678 92.953562 
L 619.330909 94.997879 
L 619.330909 94.997879 
" style="fill:none;stroke:#1f77b4;stroke-linecap:square;stroke-width:1.5;"/>
   </g>
   <g id="patch_3">
    <path d="M 108 448.56 
L 108 60.48 
" style="fill:none;stroke:#000000;stroke-linecap:square;stroke-linejoin:miter;stroke-width:0.8;"/>
   </g>
   <g id="patch_4">
    <path d="M 643.68 448.56 
L 643.68 60.48 
" style="fill:none;stroke:#000000;stroke-linecap:square;stroke-linejoin:miter;stroke-width:0.8;"/>
   </g>
   <g id="patch_5">
    <path d="M 108 448.56 
L 643.68 448.56 
" style="fill:none;stroke:#000000;stroke-linecap:square;stroke-linejoin:miter;stroke-width:0.8;"/>
   </g>
   <g id="patch_6">
    <path d="M 108 60.48 
L 643.68 60.48 
" style="fill:none;stroke:#000000;stroke-linecap:square;stroke-linejoin:miter;stroke-width:0.8;"/>
   </g>
   <g id="text_17">
    <!-- docker - stats -->
    <g transform="translate(324.832969 54.48)scale(0.15 -0.15)">
     <defs>
      <path d="M 45.40625 46.390625 
L 45.40625 75.984375 
L 54.390625 75.984375 
L 54.390625 0 
L 45.40625 0 
L 45.40625 8.203125 
Q 42.578125 3.328125 38.25 0.953125 
Q 33.9375 -1.421875 27.875 -1.421875 
Q 17.96875 -1.421875 11.734375 6.484375 
Q 5.515625 14.40625 5.515625 27.296875 
Q 5.515625 40.1875 11.734375 48.09375 
Q 17.96875 56 27.875 56 
Q 33.9375 56 38.25 53.625 
Q 42.578125 51.265625 45.40625 46.390625 
z
M 14.796875 27.296875 
Q 14.796875 17.390625 18.875 11.75 
Q 22.953125 6.109375 30.078125 6.109375 
Q 37.203125 6.109375 41.296875 11.75 
Q 45.40625 17.390625 45.40625 27.296875 
Q 45.40625 37.203125 41.296875 42.84375 
Q 37.203125 48.484375 30.078125 48.484375 
Q 22.953125 48.484375 18.875 42.84375 
Q 14.796875 37.203125 14.796875 27.296875 
z
" id="DejaVuSans-100"/>
      <path d="M 30.609375 48.390625 
Q 23.390625 48.390625 19.1875 42.75 
Q 14.984375 37.109375 14.984375 27.296875 
Q 14.984375 17.484375 19.15625 11.84375 
Q 23.34375 6.203125 30.609375 6.203125 
Q 37.796875 6.203125 41.984375 11.859375 
Q 46.1875 17.53125 46.1875 27.296875 
Q 46.1875 37.015625 41.984375 42.703125 
Q 37.796875 48.390625 30.609375 48.390625 
z
M 30.609375 56 
Q 42.328125 56 49.015625 48.375 
Q 55.71875 40.765625 55.71875 27.296875 
Q 55.71875 13.875 49.015625 6.21875 
Q 42.328125 -1.421875 30.609375 -1.421875 
Q 18.84375 -1.421875 12.171875 6.21875 
Q 5.515625 13.875 5.515625 27.296875 
Q 5.515625 40.765625 12.171875 48.375 
Q 18.84375 56 30.609375 56 
z
" id="DejaVuSans-111"/>
      <path d="M 48.78125 52.59375 
L 48.78125 44.1875 
Q 44.96875 46.296875 41.140625 47.34375 
Q 37.3125 48.390625 33.40625 48.390625 
Q 24.65625 48.390625 19.8125 42.84375 
Q 14.984375 37.3125 14.984375 27.296875 
Q 14.984375 17.28125 19.8125 11.734375 
Q 24.65625 6.203125 33.40625 6.203125 
Q 37.3125 6.203125 41.140625 7.25 
Q 44.96875 8.296875 48.78125 10.40625 
L 48.78125 2.09375 
Q 45.015625 0.34375 40.984375 -0.53125 
Q 36.96875 -1.421875 32.421875 -1.421875 
Q 20.0625 -1.421875 12.78125 6.34375 
Q 5.515625 14.109375 5.515625 27.296875 
Q 5.515625 40.671875 12.859375 48.328125 
Q 20.21875 56 33.015625 56 
Q 37.15625 56 41.109375 55.140625 
Q 45.0625 54.296875 48.78125 52.59375 
z
" id="DejaVuSans-99"/>
      <path d="M 9.078125 75.984375 
L 18.109375 75.984375 
L 18.109375 31.109375 
L 44.921875 54.6875 
L 56.390625 54.6875 
L 27.390625 29.109375 
L 57.625 0 
L 45.90625 0 
L 18.109375 26.703125 
L 18.109375 0 
L 9.078125 0 
z
" id="DejaVuSans-107"/>
      <path d="M 41.109375 46.296875 
Q 39.59375 47.171875 37.8125 47.578125 
Q 36.03125 48 33.890625 48 
Q 26.265625 48 22.1875 43.046875 
Q 18.109375 38.09375 18.109375 28.8125 
L 18.109375 0 
L 9.078125 0 
L 9.078125 54.6875 
L 18.109375 54.6875 
L 18.109375 46.1875 
Q 20.953125 51.171875 25.484375 53.578125 
Q 30.03125 56 36.53125 56 
Q 37.453125 56 38.578125 55.875 
Q 39.703125 55.765625 41.0625 55.515625 
z
" id="DejaVuSans-114"/>
      <path id="DejaVuSans-32"/>
      <path d="M 4.890625 31.390625 
L 31.203125 31.390625 
L 31.203125 23.390625 
L 4.890625 23.390625 
z
" id="DejaVuSans-45"/>
     </defs>
     <use xlink:href="#DejaVuSans-100"/>
     <use x="63.476562" xlink:href="#DejaVuSans-111"/>
     <use x="124.658203" xlink:href="#DejaVuSans-99"/>
     <use x="179.638672" xlink:href="#DejaVuSans-107"/>
     <use x="233.923828" xlink:href="#DejaVuSans-101"/>
     <use x="295.447266" xlink:href="#DejaVuSans-114"/>
     <use x="336.560547" xlink:href="#DejaVuSans-32"/>
     <use x="368.347656" xlink:href="#DejaVuSans-45"/>
     <use x="404.431641" xlink:href="#DejaVuSans-32"/>
     <use x="436.21875" xlink:href="#DejaVuSans-115"/>
     <use x="488.318359" xlink:href="#DejaVuSans-116"/>
     <use x="527.527344" xlink:href="#DejaVuSans-97"/>
     <use x="588.806641" xlink:href="#DejaVuSans-116"/>
     <use x="628.015625" xlink:href="#DejaVuSans-115"/>
    </g>
   </g>
   <g id="legend_1">
    <g id="patch_7">
     <path d="M 650.68 258.52 
L 654.68 258.52 
Q 656.68 258.52 656.68 256.52 
L 656.68 252.52 
Q 656.68 250.52 654.68 250.52 
L 650.68 250.52 
Q 648.68 250.52 648.68 252.52 
L 648.68 256.52 
Q 648.68 258.52 650.68 258.52 
z
" style="fill:#ffffff;opacity:0.8;stroke:#cccccc;stroke-linejoin:miter;"/>
    </g>
   </g>
  </g>
 </g>
 <defs>
  <clipPath id="pfcf56f93df">
   <rect height="388.08" width="535.68" x="108" y="60.48"/>
  </clipPath>
 </defs>
</svg>
