<?xml version="1.0" encoding="utf-8" standalone="no"?>
<!DOCTYPE svg PUBLIC "-//W3C//DTD SVG 1.1//EN"
  "http://www.w3.org/Graphics/SVG/1.1/DTD/svg11.dtd">
<!-- Created with matplotlib (https://matplotlib.org/) -->
<svg height="504pt" version="1.1" viewBox="0 0 864 504" width="864pt" xmlns="http://www.w3.org/2000/svg" xmlns:xlink="http://www.w3.org/1999/xlink">
 <metadata>
  <rdf:RDF xmlns:cc="http://creativecommons.org/ns#" xmlns:dc="http://purl.org/dc/elements/1.1/" xmlns:rdf="http://www.w3.org/1999/02/22-rdf-syntax-ns#">
   <cc:Work>
    <dc:type rdf:resource="http://purl.org/dc/dcmitype/StillImage"/>
    <dc:date>2022-05-29T16:57:57.583151</dc:date>
    <dc:format>image/svg+xml</dc:format>
    <dc:creator>
     <cc:Agent>
      <dc:title>Matplotlib v3.3.4, https://matplotlib.org/</dc:title>
     </cc:Agent>
    </dc:creator>
   </cc:Work>
  </rdf:RDF>
 </metadata>
 <defs>
  <style type="text/css">*{stroke-linecap:butt;stroke-linejoin:round;}</style>
 </defs>
 <g id="figure_1">
  <g id="patch_1">
   <path d="M 0 504 
L 864 504 
L 864 0 
L 0 0 
z
" style="fill:#ffffff;"/>
  </g>
  <g id="axes_1">
   <g id="patch_2">
    <path d="M 108 448.56 
L 643.68 448.56 
L 643.68 60.48 
L 108 60.48 
z
" style="fill:#ffffff;"/>
   </g>
   <g id="matplotlib.axis_1">
    <g id="xtick_1">
     <g id="line2d_1">
      <defs>
       <path d="M 0 0 
L 0 3.5 
" id="m7b686e1d94" style="stroke:#000000;stroke-width:0.8;"/>
      </defs>
      <g>
       <use style="stroke:#000000;stroke-width:0.8;" x="132.349091" xlink:href="#m7b686e1d94" y="448.56"/>
      </g>
     </g>
     <g id="text_1">
      <!-- 20:34:18 -->
      <g transform="translate(135.108466 500.4725)rotate(-90)scale(0.1 -0.1)">
       <defs>
        <path d="M 19.1875 8.296875 
L 53.609375 8.296875 
L 53.609375 0 
L 7.328125 0 
L 7.328125 8.296875 
Q 12.9375 14.109375 22.625 23.890625 
Q 32.328125 33.6875 34.8125 36.53125 
Q 39.546875 41.84375 41.421875 45.53125 
Q 43.3125 49.21875 43.3125 52.78125 
Q 43.3125 58.59375 39.234375 62.25 
Q 35.15625 65.921875 28.609375 65.921875 
Q 23.96875 65.921875 18.8125 64.3125 
Q 13.671875 62.703125 7.8125 59.421875 
L 7.8125 69.390625 
Q 13.765625 71.78125 18.9375 73 
Q 24.125 74.21875 28.421875 74.21875 
Q 39.75 74.21875 46.484375 68.546875 
Q 53.21875 62.890625 53.21875 53.421875 
Q 53.21875 48.921875 51.53125 44.890625 
Q 49.859375 40.875 45.40625 35.40625 
Q 44.1875 33.984375 37.640625 27.21875 
Q 31.109375 20.453125 19.1875 8.296875 
z
" id="DejaVuSans-50"/>
        <path d="M 31.78125 66.40625 
Q 24.171875 66.40625 20.328125 58.90625 
Q 16.5 51.421875 16.5 36.375 
Q 16.5 21.390625 20.328125 13.890625 
Q 24.171875 6.390625 31.78125 6.390625 
Q 39.453125 6.390625 43.28125 13.890625 
Q 47.125 21.390625 47.125 36.375 
Q 47.125 51.421875 43.28125 58.90625 
Q 39.453125 66.40625 31.78125 66.40625 
z
M 31.78125 74.21875 
Q 44.046875 74.21875 50.515625 64.515625 
Q 56.984375 54.828125 56.984375 36.375 
Q 56.984375 17.96875 50.515625 8.265625 
Q 44.046875 -1.421875 31.78125 -1.421875 
Q 19.53125 -1.421875 13.0625 8.265625 
Q 6.59375 17.96875 6.59375 36.375 
Q 6.59375 54.828125 13.0625 64.515625 
Q 19.53125 74.21875 31.78125 74.21875 
z
" id="DejaVuSans-48"/>
        <path d="M 11.71875 12.40625 
L 22.015625 12.40625 
L 22.015625 0 
L 11.71875 0 
z
M 11.71875 51.703125 
L 22.015625 51.703125 
L 22.015625 39.3125 
L 11.71875 39.3125 
z
" id="DejaVuSans-58"/>
        <path d="M 40.578125 39.3125 
Q 47.65625 37.796875 51.625 33 
Q 55.609375 28.21875 55.609375 21.1875 
Q 55.609375 10.40625 48.1875 4.484375 
Q 40.765625 -1.421875 27.09375 -1.421875 
Q 22.515625 -1.421875 17.65625 -0.515625 
Q 12.796875 0.390625 7.625 2.203125 
L 7.625 11.71875 
Q 11.71875 9.328125 16.59375 8.109375 
Q 21.484375 6.890625 26.8125 6.890625 
Q 36.078125 6.890625 40.9375 10.546875 
Q 45.796875 14.203125 45.796875 21.1875 
Q 45.796875 27.640625 41.28125 31.265625 
Q 36.765625 34.90625 28.71875 34.90625 
L 20.21875 34.90625 
L 20.21875 43.015625 
L 29.109375 43.015625 
Q 36.375 43.015625 40.234375 45.921875 
Q 44.09375 48.828125 44.09375 54.296875 
Q 44.09375 59.90625 40.109375 62.90625 
Q 36.140625 65.921875 28.71875 65.921875 
Q 24.65625 65.921875 20.015625 65.03125 
Q 15.375 64.15625 9.8125 62.3125 
L 9.8125 71.09375 
Q 15.4375 72.65625 20.34375 73.4375 
Q 25.25 74.21875 29.59375 74.21875 
Q 40.828125 74.21875 47.359375 69.109375 
Q 53.90625 64.015625 53.90625 55.328125 
Q 53.90625 49.265625 50.4375 45.09375 
Q 46.96875 40.921875 40.578125 39.3125 
z
" id="DejaVuSans-51"/>
        <path d="M 37.796875 64.3125 
L 12.890625 25.390625 
L 37.796875 25.390625 
z
M 35.203125 72.90625 
L 47.609375 72.90625 
L 47.609375 25.390625 
L 58.015625 25.390625 
L 58.015625 17.1875 
L 47.609375 17.1875 
L 47.609375 0 
L 37.796875 0 
L 37.796875 17.1875 
L 4.890625 17.1875 
L 4.890625 26.703125 
z
" id="DejaVuSans-52"/>
        <path d="M 12.40625 8.296875 
L 28.515625 8.296875 
L 28.515625 63.921875 
L 10.984375 60.40625 
L 10.984375 69.390625 
L 28.421875 72.90625 
L 38.28125 72.90625 
L 38.28125 8.296875 
L 54.390625 8.296875 
L 54.390625 0 
L 12.40625 0 
z
" id="DejaVuSans-49"/>
        <path d="M 31.78125 34.625 
Q 24.75 34.625 20.71875 30.859375 
Q 16.703125 27.09375 16.703125 20.515625 
Q 16.703125 13.921875 20.71875 10.15625 
Q 24.75 6.390625 31.78125 6.390625 
Q 38.8125 6.390625 42.859375 10.171875 
Q 46.921875 13.96875 46.921875 20.515625 
Q 46.921875 27.09375 42.890625 30.859375 
Q 38.875 34.625 31.78125 34.625 
z
M 21.921875 38.8125 
Q 15.578125 40.375 12.03125 44.71875 
Q 8.5 49.078125 8.5 55.328125 
Q 8.5 64.0625 14.71875 69.140625 
Q 20.953125 74.21875 31.78125 74.21875 
Q 42.671875 74.21875 48.875 69.140625 
Q 55.078125 64.0625 55.078125 55.328125 
Q 55.078125 49.078125 51.53125 44.71875 
Q 48 40.375 41.703125 38.8125 
Q 48.828125 37.15625 52.796875 32.3125 
Q 56.78125 27.484375 56.78125 20.515625 
Q 56.78125 9.90625 50.3125 4.234375 
Q 43.84375 -1.421875 31.78125 -1.421875 
Q 19.734375 -1.421875 13.25 4.234375 
Q 6.78125 9.90625 6.78125 20.515625 
Q 6.78125 27.484375 10.78125 32.3125 
Q 14.796875 37.15625 21.921875 38.8125 
z
M 18.3125 54.390625 
Q 18.3125 48.734375 21.84375 45.5625 
Q 25.390625 42.390625 31.78125 42.390625 
Q 38.140625 42.390625 41.71875 45.5625 
Q 45.3125 48.734375 45.3125 54.390625 
Q 45.3125 60.0625 41.71875 63.234375 
Q 38.140625 66.40625 31.78125 66.40625 
Q 25.390625 66.40625 21.84375 63.234375 
Q 18.3125 60.0625 18.3125 54.390625 
z
" id="DejaVuSans-56"/>
       </defs>
       <use xlink:href="#DejaVuSans-50"/>
       <use x="63.623047" xlink:href="#DejaVuSans-48"/>
       <use x="127.246094" xlink:href="#DejaVuSans-58"/>
       <use x="160.9375" xlink:href="#DejaVuSans-51"/>
       <use x="224.560547" xlink:href="#DejaVuSans-52"/>
       <use x="288.183594" xlink:href="#DejaVuSans-58"/>
       <use x="321.875" xlink:href="#DejaVuSans-49"/>
       <use x="385.498047" xlink:href="#DejaVuSans-56"/>
      </g>
     </g>
    </g>
    <g id="xtick_2">
     <g id="line2d_2">
      <g>
       <use style="stroke:#000000;stroke-width:0.8;" x="156.698182" xlink:href="#m7b686e1d94" y="448.56"/>
      </g>
     </g>
     <g id="text_2">
      <!-- 20:36:08 -->
      <g transform="translate(159.457557 500.4725)rotate(-90)scale(0.1 -0.1)">
       <defs>
        <path d="M 33.015625 40.375 
Q 26.375 40.375 22.484375 35.828125 
Q 18.609375 31.296875 18.609375 23.390625 
Q 18.609375 15.53125 22.484375 10.953125 
Q 26.375 6.390625 33.015625 6.390625 
Q 39.65625 6.390625 43.53125 10.953125 
Q 47.40625 15.53125 47.40625 23.390625 
Q 47.40625 31.296875 43.53125 35.828125 
Q 39.65625 40.375 33.015625 40.375 
z
M 52.59375 71.296875 
L 52.59375 62.3125 
Q 48.875 64.0625 45.09375 64.984375 
Q 41.3125 65.921875 37.59375 65.921875 
Q 27.828125 65.921875 22.671875 59.328125 
Q 17.53125 52.734375 16.796875 39.40625 
Q 19.671875 43.65625 24.015625 45.921875 
Q 28.375 48.1875 33.59375 48.1875 
Q 44.578125 48.1875 50.953125 41.515625 
Q 57.328125 34.859375 57.328125 23.390625 
Q 57.328125 12.15625 50.6875 5.359375 
Q 44.046875 -1.421875 33.015625 -1.421875 
Q 20.359375 -1.421875 13.671875 8.265625 
Q 6.984375 17.96875 6.984375 36.375 
Q 6.984375 53.65625 15.1875 63.9375 
Q 23.390625 74.21875 37.203125 74.21875 
Q 40.921875 74.21875 44.703125 73.484375 
Q 48.484375 72.75 52.59375 71.296875 
z
" id="DejaVuSans-54"/>
       </defs>
       <use xlink:href="#DejaVuSans-50"/>
       <use x="63.623047" xlink:href="#DejaVuSans-48"/>
       <use x="127.246094" xlink:href="#DejaVuSans-58"/>
       <use x="160.9375" xlink:href="#DejaVuSans-51"/>
       <use x="224.560547" xlink:href="#DejaVuSans-54"/>
       <use x="288.183594" xlink:href="#DejaVuSans-58"/>
       <use x="321.875" xlink:href="#DejaVuSans-48"/>
       <use x="385.498047" xlink:href="#DejaVuSans-56"/>
      </g>
     </g>
    </g>
    <g id="xtick_3">
     <g id="line2d_3">
      <g>
       <use style="stroke:#000000;stroke-width:0.8;" x="181.047273" xlink:href="#m7b686e1d94" y="448.56"/>
      </g>
     </g>
     <g id="text_3">
      <!-- 20:37:58 -->
      <g transform="translate(183.806648 500.4725)rotate(-90)scale(0.1 -0.1)">
       <defs>
        <path d="M 8.203125 72.90625 
L 55.078125 72.90625 
L 55.078125 68.703125 
L 28.609375 0 
L 18.3125 0 
L 43.21875 64.59375 
L 8.203125 64.59375 
z
" id="DejaVuSans-55"/>
        <path d="M 10.796875 72.90625 
L 49.515625 72.90625 
L 49.515625 64.59375 
L 19.828125 64.59375 
L 19.828125 46.734375 
Q 21.96875 47.46875 24.109375 47.828125 
Q 26.265625 48.1875 28.421875 48.1875 
Q 40.625 48.1875 47.75 41.5 
Q 54.890625 34.8125 54.890625 23.390625 
Q 54.890625 11.625 47.5625 5.09375 
Q 40.234375 -1.421875 26.90625 -1.421875 
Q 22.3125 -1.421875 17.546875 -0.640625 
Q 12.796875 0.140625 7.71875 1.703125 
L 7.71875 11.625 
Q 12.109375 9.234375 16.796875 8.0625 
Q 21.484375 6.890625 26.703125 6.890625 
Q 35.15625 6.890625 40.078125 11.328125 
Q 45.015625 15.765625 45.015625 23.390625 
Q 45.015625 31 40.078125 35.4375 
Q 35.15625 39.890625 26.703125 39.890625 
Q 22.75 39.890625 18.8125 39.015625 
Q 14.890625 38.140625 10.796875 36.28125 
z
" id="DejaVuSans-53"/>
       </defs>
       <use xlink:href="#DejaVuSans-50"/>
       <use x="63.623047" xlink:href="#DejaVuSans-48"/>
       <use x="127.246094" xlink:href="#DejaVuSans-58"/>
       <use x="160.9375" xlink:href="#DejaVuSans-51"/>
       <use x="224.560547" xlink:href="#DejaVuSans-55"/>
       <use x="288.183594" xlink:href="#DejaVuSans-58"/>
       <use x="321.875" xlink:href="#DejaVuSans-53"/>
       <use x="385.498047" xlink:href="#DejaVuSans-56"/>
      </g>
     </g>
    </g>
    <g id="xtick_4">
     <g id="line2d_4">
      <g>
       <use style="stroke:#000000;stroke-width:0.8;" x="205.396364" xlink:href="#m7b686e1d94" y="448.56"/>
      </g>
     </g>
     <g id="text_4">
      <!-- 20:39:48 -->
      <g transform="translate(208.155739 500.4725)rotate(-90)scale(0.1 -0.1)">
       <defs>
        <path d="M 10.984375 1.515625 
L 10.984375 10.5 
Q 14.703125 8.734375 18.5 7.8125 
Q 22.3125 6.890625 25.984375 6.890625 
Q 35.75 6.890625 40.890625 13.453125 
Q 46.046875 20.015625 46.78125 33.40625 
Q 43.953125 29.203125 39.59375 26.953125 
Q 35.25 24.703125 29.984375 24.703125 
Q 19.046875 24.703125 12.671875 31.3125 
Q 6.296875 37.9375 6.296875 49.421875 
Q 6.296875 60.640625 12.9375 67.421875 
Q 19.578125 74.21875 30.609375 74.21875 
Q 43.265625 74.21875 49.921875 64.515625 
Q 56.59375 54.828125 56.59375 36.375 
Q 56.59375 19.140625 48.40625 8.859375 
Q 40.234375 -1.421875 26.421875 -1.421875 
Q 22.703125 -1.421875 18.890625 -0.6875 
Q 15.09375 0.046875 10.984375 1.515625 
z
M 30.609375 32.421875 
Q 37.25 32.421875 41.125 36.953125 
Q 45.015625 41.5 45.015625 49.421875 
Q 45.015625 57.28125 41.125 61.84375 
Q 37.25 66.40625 30.609375 66.40625 
Q 23.96875 66.40625 20.09375 61.84375 
Q 16.21875 57.28125 16.21875 49.421875 
Q 16.21875 41.5 20.09375 36.953125 
Q 23.96875 32.421875 30.609375 32.421875 
z
" id="DejaVuSans-57"/>
       </defs>
       <use xlink:href="#DejaVuSans-50"/>
       <use x="63.623047" xlink:href="#DejaVuSans-48"/>
       <use x="127.246094" xlink:href="#DejaVuSans-58"/>
       <use x="160.9375" xlink:href="#DejaVuSans-51"/>
       <use x="224.560547" xlink:href="#DejaVuSans-57"/>
       <use x="288.183594" xlink:href="#DejaVuSans-58"/>
       <use x="321.875" xlink:href="#DejaVuSans-52"/>
       <use x="385.498047" xlink:href="#DejaVuSans-56"/>
      </g>
     </g>
    </g>
    <g id="xtick_5">
     <g id="line2d_5">
      <g>
       <use style="stroke:#000000;stroke-width:0.8;" x="229.745455" xlink:href="#m7b686e1d94" y="448.56"/>
      </g>
     </g>
     <g id="text_5">
      <!-- 20:41:39 -->
      <g transform="translate(232.50483 500.4725)rotate(-90)scale(0.1 -0.1)">
       <use xlink:href="#DejaVuSans-50"/>
       <use x="63.623047" xlink:href="#DejaVuSans-48"/>
       <use x="127.246094" xlink:href="#DejaVuSans-58"/>
       <use x="160.9375" xlink:href="#DejaVuSans-52"/>
       <use x="224.560547" xlink:href="#DejaVuSans-49"/>
       <use x="288.183594" xlink:href="#DejaVuSans-58"/>
       <use x="321.875" xlink:href="#DejaVuSans-51"/>
       <use x="385.498047" xlink:href="#DejaVuSans-57"/>
      </g>
     </g>
    </g>
    <g id="xtick_6">
     <g id="line2d_6">
      <g>
       <use style="stroke:#000000;stroke-width:0.8;" x="254.094545" xlink:href="#m7b686e1d94" y="448.56"/>
      </g>
     </g>
     <g id="text_6">
      <!-- 20:43:29 -->
      <g transform="translate(256.85392 500.4725)rotate(-90)scale(0.1 -0.1)">
       <use xlink:href="#DejaVuSans-50"/>
       <use x="63.623047" xlink:href="#DejaVuSans-48"/>
       <use x="127.246094" xlink:href="#DejaVuSans-58"/>
       <use x="160.9375" xlink:href="#DejaVuSans-52"/>
       <use x="224.560547" xlink:href="#DejaVuSans-51"/>
       <use x="288.183594" xlink:href="#DejaVuSans-58"/>
       <use x="321.875" xlink:href="#DejaVuSans-50"/>
       <use x="385.498047" xlink:href="#DejaVuSans-57"/>
      </g>
     </g>
    </g>
    <g id="xtick_7">
     <g id="line2d_7">
      <g>
       <use style="stroke:#000000;stroke-width:0.8;" x="278.443636" xlink:href="#m7b686e1d94" y="448.56"/>
      </g>
     </g>
     <g id="text_7">
      <!-- 20:45:19 -->
      <g transform="translate(281.203011 500.4725)rotate(-90)scale(0.1 -0.1)">
       <use xlink:href="#DejaVuSans-50"/>
       <use x="63.623047" xlink:href="#DejaVuSans-48"/>
       <use x="127.246094" xlink:href="#DejaVuSans-58"/>
       <use x="160.9375" xlink:href="#DejaVuSans-52"/>
       <use x="224.560547" xlink:href="#DejaVuSans-53"/>
       <use x="288.183594" xlink:href="#DejaVuSans-58"/>
       <use x="321.875" xlink:href="#DejaVuSans-49"/>
       <use x="385.498047" xlink:href="#DejaVuSans-57"/>
      </g>
     </g>
    </g>
    <g id="xtick_8">
     <g id="line2d_8">
      <g>
       <use style="stroke:#000000;stroke-width:0.8;" x="302.792727" xlink:href="#m7b686e1d94" y="448.56"/>
      </g>
     </g>
     <g id="text_8">
      <!-- 20:47:09 -->
      <g transform="translate(305.552102 500.4725)rotate(-90)scale(0.1 -0.1)">
       <use xlink:href="#DejaVuSans-50"/>
       <use x="63.623047" xlink:href="#DejaVuSans-48"/>
       <use x="127.246094" xlink:href="#DejaVuSans-58"/>
       <use x="160.9375" xlink:href="#DejaVuSans-52"/>
       <use x="224.560547" xlink:href="#DejaVuSans-55"/>
       <use x="288.183594" xlink:href="#DejaVuSans-58"/>
       <use x="321.875" xlink:href="#DejaVuSans-48"/>
       <use x="385.498047" xlink:href="#DejaVuSans-57"/>
      </g>
     </g>
    </g>
    <g id="xtick_9">
     <g id="line2d_9">
      <g>
       <use style="stroke:#000000;stroke-width:0.8;" x="327.141818" xlink:href="#m7b686e1d94" y="448.56"/>
      </g>
     </g>
     <g id="text_9">
      <!-- 20:48:59 -->
      <g transform="translate(329.901193 500.4725)rotate(-90)scale(0.1 -0.1)">
       <use xlink:href="#DejaVuSans-50"/>
       <use x="63.623047" xlink:href="#DejaVuSans-48"/>
       <use x="127.246094" xlink:href="#DejaVuSans-58"/>
       <use x="160.9375" xlink:href="#DejaVuSans-52"/>
       <use x="224.560547" xlink:href="#DejaVuSans-56"/>
       <use x="288.183594" xlink:href="#DejaVuSans-58"/>
       <use x="321.875" xlink:href="#DejaVuSans-53"/>
       <use x="385.498047" xlink:href="#DejaVuSans-57"/>
      </g>
     </g>
    </g>
    <g id="xtick_10">
     <g id="line2d_10">
      <g>
       <use style="stroke:#000000;stroke-width:0.8;" x="351.490909" xlink:href="#m7b686e1d94" y="448.56"/>
      </g>
     </g>
     <g id="text_10">
      <!-- 20:50:49 -->
      <g transform="translate(354.250284 500.4725)rotate(-90)scale(0.1 -0.1)">
       <use xlink:href="#DejaVuSans-50"/>
       <use x="63.623047" xlink:href="#DejaVuSans-48"/>
       <use x="127.246094" xlink:href="#DejaVuSans-58"/>
       <use x="160.9375" xlink:href="#DejaVuSans-53"/>
       <use x="224.560547" xlink:href="#DejaVuSans-48"/>
       <use x="288.183594" xlink:href="#DejaVuSans-58"/>
       <use x="321.875" xlink:href="#DejaVuSans-52"/>
       <use x="385.498047" xlink:href="#DejaVuSans-57"/>
      </g>
     </g>
    </g>
    <g id="xtick_11">
     <g id="line2d_11">
      <g>
       <use style="stroke:#000000;stroke-width:0.8;" x="375.84" xlink:href="#m7b686e1d94" y="448.56"/>
      </g>
     </g>
     <g id="text_11">
      <!-- 20:52:39 -->
      <g transform="translate(378.599375 500.4725)rotate(-90)scale(0.1 -0.1)">
       <use xlink:href="#DejaVuSans-50"/>
       <use x="63.623047" xlink:href="#DejaVuSans-48"/>
       <use x="127.246094" xlink:href="#DejaVuSans-58"/>
       <use x="160.9375" xlink:href="#DejaVuSans-53"/>
       <use x="224.560547" xlink:href="#DejaVuSans-50"/>
       <use x="288.183594" xlink:href="#DejaVuSans-58"/>
       <use x="321.875" xlink:href="#DejaVuSans-51"/>
       <use x="385.498047" xlink:href="#DejaVuSans-57"/>
      </g>
     </g>
    </g>
    <g id="xtick_12">
     <g id="line2d_12">
      <g>
       <use style="stroke:#000000;stroke-width:0.8;" x="400.189091" xlink:href="#m7b686e1d94" y="448.56"/>
      </g>
     </g>
     <g id="text_12">
      <!-- 20:54:29 -->
      <g transform="translate(402.948466 500.4725)rotate(-90)scale(0.1 -0.1)">
       <use xlink:href="#DejaVuSans-50"/>
       <use x="63.623047" xlink:href="#DejaVuSans-48"/>
       <use x="127.246094" xlink:href="#DejaVuSans-58"/>
       <use x="160.9375" xlink:href="#DejaVuSans-53"/>
       <use x="224.560547" xlink:href="#DejaVuSans-52"/>
       <use x="288.183594" xlink:href="#DejaVuSans-58"/>
       <use x="321.875" xlink:href="#DejaVuSans-50"/>
       <use x="385.498047" xlink:href="#DejaVuSans-57"/>
      </g>
     </g>
    </g>
    <g id="xtick_13">
     <g id="line2d_13">
      <g>
       <use style="stroke:#000000;stroke-width:0.8;" x="424.538182" xlink:href="#m7b686e1d94" y="448.56"/>
      </g>
     </g>
     <g id="text_13">
      <!-- 20:56:19 -->
      <g transform="translate(427.297557 500.4725)rotate(-90)scale(0.1 -0.1)">
       <use xlink:href="#DejaVuSans-50"/>
       <use x="63.623047" xlink:href="#DejaVuSans-48"/>
       <use x="127.246094" xlink:href="#DejaVuSans-58"/>
       <use x="160.9375" xlink:href="#DejaVuSans-53"/>
       <use x="224.560547" xlink:href="#DejaVuSans-54"/>
       <use x="288.183594" xlink:href="#DejaVuSans-58"/>
       <use x="321.875" xlink:href="#DejaVuSans-49"/>
       <use x="385.498047" xlink:href="#DejaVuSans-57"/>
      </g>
     </g>
    </g>
    <g id="xtick_14">
     <g id="line2d_14">
      <g>
       <use style="stroke:#000000;stroke-width:0.8;" x="448.887273" xlink:href="#m7b686e1d94" y="448.56"/>
      </g>
     </g>
     <g id="text_14">
      <!-- 20:58:09 -->
      <g transform="translate(451.646648 500.4725)rotate(-90)scale(0.1 -0.1)">
       <use xlink:href="#DejaVuSans-50"/>
       <use x="63.623047" xlink:href="#DejaVuSans-48"/>
       <use x="127.246094" xlink:href="#DejaVuSans-58"/>
       <use x="160.9375" xlink:href="#DejaVuSans-53"/>
       <use x="224.560547" xlink:href="#DejaVuSans-56"/>
       <use x="288.183594" xlink:href="#DejaVuSans-58"/>
       <use x="321.875" xlink:href="#DejaVuSans-48"/>
       <use x="385.498047" xlink:href="#DejaVuSans-57"/>
      </g>
     </g>
    </g>
    <g id="xtick_15">
     <g id="line2d_15">
      <g>
       <use style="stroke:#000000;stroke-width:0.8;" x="473.236364" xlink:href="#m7b686e1d94" y="448.56"/>
      </g>
     </g>
     <g id="text_15">
      <!-- 20:59:59 -->
      <g transform="translate(475.995739 500.4725)rotate(-90)scale(0.1 -0.1)">
       <use xlink:href="#DejaVuSans-50"/>
       <use x="63.623047" xlink:href="#DejaVuSans-48"/>
       <use x="127.246094" xlink:href="#DejaVuSans-58"/>
       <use x="160.9375" xlink:href="#DejaVuSans-53"/>
       <use x="224.560547" xlink:href="#DejaVuSans-57"/>
       <use x="288.183594" xlink:href="#DejaVuSans-58"/>
       <use x="321.875" xlink:href="#DejaVuSans-53"/>
       <use x="385.498047" xlink:href="#DejaVuSans-57"/>
      </g>
     </g>
    </g>
    <g id="xtick_16">
     <g id="line2d_16">
      <g>
       <use style="stroke:#000000;stroke-width:0.8;" x="497.585455" xlink:href="#m7b686e1d94" y="448.56"/>
      </g>
     </g>
     <g id="text_16">
      <!-- 21:01:49 -->
      <g transform="translate(500.34483 500.4725)rotate(-90)scale(0.1 -0.1)">
       <use xlink:href="#DejaVuSans-50"/>
       <use x="63.623047" xlink:href="#DejaVuSans-49"/>
       <use x="127.246094" xlink:href="#DejaVuSans-58"/>
       <use x="160.9375" xlink:href="#DejaVuSans-48"/>
       <use x="224.560547" xlink:href="#DejaVuSans-49"/>
       <use x="288.183594" xlink:href="#DejaVuSans-58"/>
       <use x="321.875" xlink:href="#DejaVuSans-52"/>
       <use x="385.498047" xlink:href="#DejaVuSans-57"/>
      </g>
     </g>
    </g>
    <g id="xtick_17">
     <g id="line2d_17">
      <g>
       <use style="stroke:#000000;stroke-width:0.8;" x="521.934545" xlink:href="#m7b686e1d94" y="448.56"/>
      </g>
     </g>
     <g id="text_17">
      <!-- 21:03:39 -->
      <g transform="translate(524.69392 500.4725)rotate(-90)scale(0.1 -0.1)">
       <use xlink:href="#DejaVuSans-50"/>
       <use x="63.623047" xlink:href="#DejaVuSans-49"/>
       <use x="127.246094" xlink:href="#DejaVuSans-58"/>
       <use x="160.9375" xlink:href="#DejaVuSans-48"/>
       <use x="224.560547" xlink:href="#DejaVuSans-51"/>
       <use x="288.183594" xlink:href="#DejaVuSans-58"/>
       <use x="321.875" xlink:href="#DejaVuSans-51"/>
       <use x="385.498047" xlink:href="#DejaVuSans-57"/>
      </g>
     </g>
    </g>
    <g id="xtick_18">
     <g id="line2d_18">
      <g>
       <use style="stroke:#000000;stroke-width:0.8;" x="546.283636" xlink:href="#m7b686e1d94" y="448.56"/>
      </g>
     </g>
     <g id="text_18">
      <!-- 21:05:29 -->
      <g transform="translate(549.043011 500.4725)rotate(-90)scale(0.1 -0.1)">
       <use xlink:href="#DejaVuSans-50"/>
       <use x="63.623047" xlink:href="#DejaVuSans-49"/>
       <use x="127.246094" xlink:href="#DejaVuSans-58"/>
       <use x="160.9375" xlink:href="#DejaVuSans-48"/>
       <use x="224.560547" xlink:href="#DejaVuSans-53"/>
       <use x="288.183594" xlink:href="#DejaVuSans-58"/>
       <use x="321.875" xlink:href="#DejaVuSans-50"/>
       <use x="385.498047" xlink:href="#DejaVuSans-57"/>
      </g>
     </g>
    </g>
    <g id="xtick_19">
     <g id="line2d_19">
      <g>
       <use style="stroke:#000000;stroke-width:0.8;" x="570.632727" xlink:href="#m7b686e1d94" y="448.56"/>
      </g>
     </g>
     <g id="text_19">
      <!-- 21:07:19 -->
      <g transform="translate(573.392102 500.4725)rotate(-90)scale(0.1 -0.1)">
       <use xlink:href="#DejaVuSans-50"/>
       <use x="63.623047" xlink:href="#DejaVuSans-49"/>
       <use x="127.246094" xlink:href="#DejaVuSans-58"/>
       <use x="160.9375" xlink:href="#DejaVuSans-48"/>
       <use x="224.560547" xlink:href="#DejaVuSans-55"/>
       <use x="288.183594" xlink:href="#DejaVuSans-58"/>
       <use x="321.875" xlink:href="#DejaVuSans-49"/>
       <use x="385.498047" xlink:href="#DejaVuSans-57"/>
      </g>
     </g>
    </g>
    <g id="xtick_20">
     <g id="line2d_20">
      <g>
       <use style="stroke:#000000;stroke-width:0.8;" x="594.981818" xlink:href="#m7b686e1d94" y="448.56"/>
      </g>
     </g>
     <g id="text_20">
      <!-- 21:09:09 -->
      <g transform="translate(597.741193 500.4725)rotate(-90)scale(0.1 -0.1)">
       <use xlink:href="#DejaVuSans-50"/>
       <use x="63.623047" xlink:href="#DejaVuSans-49"/>
       <use x="127.246094" xlink:href="#DejaVuSans-58"/>
       <use x="160.9375" xlink:href="#DejaVuSans-48"/>
       <use x="224.560547" xlink:href="#DejaVuSans-57"/>
       <use x="288.183594" xlink:href="#DejaVuSans-58"/>
       <use x="321.875" xlink:href="#DejaVuSans-48"/>
       <use x="385.498047" xlink:href="#DejaVuSans-57"/>
      </g>
     </g>
    </g>
    <g id="xtick_21">
     <g id="line2d_21">
      <g>
       <use style="stroke:#000000;stroke-width:0.8;" x="619.330909" xlink:href="#m7b686e1d94" y="448.56"/>
      </g>
     </g>
     <g id="text_21">
      <!-- 21:10:59 -->
      <g transform="translate(622.090284 500.4725)rotate(-90)scale(0.1 -0.1)">
       <use xlink:href="#DejaVuSans-50"/>
       <use x="63.623047" xlink:href="#DejaVuSans-49"/>
       <use x="127.246094" xlink:href="#DejaVuSans-58"/>
       <use x="160.9375" xlink:href="#DejaVuSans-49"/>
       <use x="224.560547" xlink:href="#DejaVuSans-48"/>
       <use x="288.183594" xlink:href="#DejaVuSans-58"/>
       <use x="321.875" xlink:href="#DejaVuSans-53"/>
       <use x="385.498047" xlink:href="#DejaVuSans-57"/>
      </g>
     </g>
    </g>
    <g id="text_22">
     <!-- timestamp -->
     <g transform="translate(354.264375 510.55125)scale(0.08 -0.08)">
      <defs>
       <path d="M 18.3125 70.21875 
L 18.3125 54.6875 
L 36.8125 54.6875 
L 36.8125 47.703125 
L 18.3125 47.703125 
L 18.3125 18.015625 
Q 18.3125 11.328125 20.140625 9.421875 
Q 21.96875 7.515625 27.59375 7.515625 
L 36.8125 7.515625 
L 36.8125 0 
L 27.59375 0 
Q 17.1875 0 13.234375 3.875 
Q 9.28125 7.765625 9.28125 18.015625 
L 9.28125 47.703125 
L 2.6875 47.703125 
L 2.6875 54.6875 
L 9.28125 54.6875 
L 9.28125 70.21875 
z
" id="DejaVuSans-116"/>
       <path d="M 9.421875 54.6875 
L 18.40625 54.6875 
L 18.40625 0 
L 9.421875 0 
z
M 9.421875 75.984375 
L 18.40625 75.984375 
L 18.40625 64.59375 
L 9.421875 64.59375 
z
" id="DejaVuSans-105"/>
       <path d="M 52 44.1875 
Q 55.375 50.25 60.0625 53.125 
Q 64.75 56 71.09375 56 
Q 79.640625 56 84.28125 50.015625 
Q 88.921875 44.046875 88.921875 33.015625 
L 88.921875 0 
L 79.890625 0 
L 79.890625 32.71875 
Q 79.890625 40.578125 77.09375 44.375 
Q 74.3125 48.1875 68.609375 48.1875 
Q 61.625 48.1875 57.5625 43.546875 
Q 53.515625 38.921875 53.515625 30.90625 
L 53.515625 0 
L 44.484375 0 
L 44.484375 32.71875 
Q 44.484375 40.625 41.703125 44.40625 
Q 38.921875 48.1875 33.109375 48.1875 
Q 26.21875 48.1875 22.15625 43.53125 
Q 18.109375 38.875 18.109375 30.90625 
L 18.109375 0 
L 9.078125 0 
L 9.078125 54.6875 
L 18.109375 54.6875 
L 18.109375 46.1875 
Q 21.1875 51.21875 25.484375 53.609375 
Q 29.78125 56 35.6875 56 
Q 41.65625 56 45.828125 52.96875 
Q 50 49.953125 52 44.1875 
z
" id="DejaVuSans-109"/>
       <path d="M 56.203125 29.59375 
L 56.203125 25.203125 
L 14.890625 25.203125 
Q 15.484375 15.921875 20.484375 11.0625 
Q 25.484375 6.203125 34.421875 6.203125 
Q 39.59375 6.203125 44.453125 7.46875 
Q 49.3125 8.734375 54.109375 11.28125 
L 54.109375 2.78125 
Q 49.265625 0.734375 44.1875 -0.34375 
Q 39.109375 -1.421875 33.890625 -1.421875 
Q 20.796875 -1.421875 13.15625 6.1875 
Q 5.515625 13.8125 5.515625 26.8125 
Q 5.515625 40.234375 12.765625 48.109375 
Q 20.015625 56 32.328125 56 
Q 43.359375 56 49.78125 48.890625 
Q 56.203125 41.796875 56.203125 29.59375 
z
M 47.21875 32.234375 
Q 47.125 39.59375 43.09375 43.984375 
Q 39.0625 48.390625 32.421875 48.390625 
Q 24.90625 48.390625 20.390625 44.140625 
Q 15.875 39.890625 15.1875 32.171875 
z
" id="DejaVuSans-101"/>
       <path d="M 44.28125 53.078125 
L 44.28125 44.578125 
Q 40.484375 46.53125 36.375 47.5 
Q 32.28125 48.484375 27.875 48.484375 
Q 21.1875 48.484375 17.84375 46.4375 
Q 14.5 44.390625 14.5 40.28125 
Q 14.5 37.15625 16.890625 35.375 
Q 19.28125 33.59375 26.515625 31.984375 
L 29.59375 31.296875 
Q 39.15625 29.25 43.1875 25.515625 
Q 47.21875 21.78125 47.21875 15.09375 
Q 47.21875 7.46875 41.1875 3.015625 
Q 35.15625 -1.421875 24.609375 -1.421875 
Q 20.21875 -1.421875 15.453125 -0.5625 
Q 10.6875 0.296875 5.421875 2 
L 5.421875 11.28125 
Q 10.40625 8.6875 15.234375 7.390625 
Q 20.0625 6.109375 24.8125 6.109375 
Q 31.15625 6.109375 34.5625 8.28125 
Q 37.984375 10.453125 37.984375 14.40625 
Q 37.984375 18.0625 35.515625 20.015625 
Q 33.0625 21.96875 24.703125 23.78125 
L 21.578125 24.515625 
Q 13.234375 26.265625 9.515625 29.90625 
Q 5.8125 33.546875 5.8125 39.890625 
Q 5.8125 47.609375 11.28125 51.796875 
Q 16.75 56 26.8125 56 
Q 31.78125 56 36.171875 55.265625 
Q 40.578125 54.546875 44.28125 53.078125 
z
" id="DejaVuSans-115"/>
       <path d="M 34.28125 27.484375 
Q 23.390625 27.484375 19.1875 25 
Q 14.984375 22.515625 14.984375 16.5 
Q 14.984375 11.71875 18.140625 8.90625 
Q 21.296875 6.109375 26.703125 6.109375 
Q 34.1875 6.109375 38.703125 11.40625 
Q 43.21875 16.703125 43.21875 25.484375 
L 43.21875 27.484375 
z
M 52.203125 31.203125 
L 52.203125 0 
L 43.21875 0 
L 43.21875 8.296875 
Q 40.140625 3.328125 35.546875 0.953125 
Q 30.953125 -1.421875 24.3125 -1.421875 
Q 15.921875 -1.421875 10.953125 3.296875 
Q 6 8.015625 6 15.921875 
Q 6 25.140625 12.171875 29.828125 
Q 18.359375 34.515625 30.609375 34.515625 
L 43.21875 34.515625 
L 43.21875 35.40625 
Q 43.21875 41.609375 39.140625 45 
Q 35.0625 48.390625 27.6875 48.390625 
Q 23 48.390625 18.546875 47.265625 
Q 14.109375 46.140625 10.015625 43.890625 
L 10.015625 52.203125 
Q 14.9375 54.109375 19.578125 55.046875 
Q 24.21875 56 28.609375 56 
Q 40.484375 56 46.34375 49.84375 
Q 52.203125 43.703125 52.203125 31.203125 
z
" id="DejaVuSans-97"/>
       <path d="M 18.109375 8.203125 
L 18.109375 -20.796875 
L 9.078125 -20.796875 
L 9.078125 54.6875 
L 18.109375 54.6875 
L 18.109375 46.390625 
Q 20.953125 51.265625 25.265625 53.625 
Q 29.59375 56 35.59375 56 
Q 45.5625 56 51.78125 48.09375 
Q 58.015625 40.1875 58.015625 27.296875 
Q 58.015625 14.40625 51.78125 6.484375 
Q 45.5625 -1.421875 35.59375 -1.421875 
Q 29.59375 -1.421875 25.265625 0.953125 
Q 20.953125 3.328125 18.109375 8.203125 
z
M 48.6875 27.296875 
Q 48.6875 37.203125 44.609375 42.84375 
Q 40.53125 48.484375 33.40625 48.484375 
Q 26.265625 48.484375 22.1875 42.84375 
Q 18.109375 37.203125 18.109375 27.296875 
Q 18.109375 17.390625 22.1875 11.75 
Q 26.265625 6.109375 33.40625 6.109375 
Q 40.53125 6.109375 44.609375 11.75 
Q 48.6875 17.390625 48.6875 27.296875 
z
" id="DejaVuSans-112"/>
      </defs>
      <use xlink:href="#DejaVuSans-116"/>
      <use x="39.208984" xlink:href="#DejaVuSans-105"/>
      <use x="66.992188" xlink:href="#DejaVuSans-109"/>
      <use x="164.404297" xlink:href="#DejaVuSans-101"/>
      <use x="225.927734" xlink:href="#DejaVuSans-115"/>
      <use x="278.027344" xlink:href="#DejaVuSans-116"/>
      <use x="317.236328" xlink:href="#DejaVuSans-97"/>
      <use x="378.515625" xlink:href="#DejaVuSans-109"/>
      <use x="475.927734" xlink:href="#DejaVuSans-112"/>
     </g>
    </g>
   </g>
   <g id="matplotlib.axis_2">
    <g id="ytick_1">
     <g id="line2d_22">
      <defs>
       <path d="M 0 0 
L -3.5 0 
" id="md55b8aa93b" style="stroke:#000000;stroke-width:0.8;"/>
      </defs>
      <g>
       <use style="stroke:#000000;stroke-width:0.8;" x="108" xlink:href="#md55b8aa93b" y="413.882766"/>
      </g>
     </g>
     <g id="text_23">
      <!-- 9600 -->
      <g transform="translate(75.55 417.681985)scale(0.1 -0.1)">
       <use xlink:href="#DejaVuSans-57"/>
       <use x="63.623047" xlink:href="#DejaVuSans-54"/>
       <use x="127.246094" xlink:href="#DejaVuSans-48"/>
       <use x="190.869141" xlink:href="#DejaVuSans-48"/>
      </g>
     </g>
    </g>
    <g id="ytick_2">
     <g id="line2d_23">
      <g>
       <use style="stroke:#000000;stroke-width:0.8;" x="108" xlink:href="#md55b8aa93b" y="370.652028"/>
      </g>
     </g>
     <g id="text_24">
      <!-- 9800 -->
      <g transform="translate(75.55 374.451247)scale(0.1 -0.1)">
       <use xlink:href="#DejaVuSans-57"/>
       <use x="63.623047" xlink:href="#DejaVuSans-56"/>
       <use x="127.246094" xlink:href="#DejaVuSans-48"/>
       <use x="190.869141" xlink:href="#DejaVuSans-48"/>
      </g>
     </g>
    </g>
    <g id="ytick_3">
     <g id="line2d_24">
      <g>
       <use style="stroke:#000000;stroke-width:0.8;" x="108" xlink:href="#md55b8aa93b" y="327.42129"/>
      </g>
     </g>
     <g id="text_25">
      <!-- 10000 -->
      <g transform="translate(69.1875 331.220509)scale(0.1 -0.1)">
       <use xlink:href="#DejaVuSans-49"/>
       <use x="63.623047" xlink:href="#DejaVuSans-48"/>
       <use x="127.246094" xlink:href="#DejaVuSans-48"/>
       <use x="190.869141" xlink:href="#DejaVuSans-48"/>
       <use x="254.492188" xlink:href="#DejaVuSans-48"/>
      </g>
     </g>
    </g>
    <g id="ytick_4">
     <g id="line2d_25">
      <g>
       <use style="stroke:#000000;stroke-width:0.8;" x="108" xlink:href="#md55b8aa93b" y="284.190552"/>
      </g>
     </g>
     <g id="text_26">
      <!-- 10200 -->
      <g transform="translate(69.1875 287.989771)scale(0.1 -0.1)">
       <use xlink:href="#DejaVuSans-49"/>
       <use x="63.623047" xlink:href="#DejaVuSans-48"/>
       <use x="127.246094" xlink:href="#DejaVuSans-50"/>
       <use x="190.869141" xlink:href="#DejaVuSans-48"/>
       <use x="254.492188" xlink:href="#DejaVuSans-48"/>
      </g>
     </g>
    </g>
    <g id="ytick_5">
     <g id="line2d_26">
      <g>
       <use style="stroke:#000000;stroke-width:0.8;" x="108" xlink:href="#md55b8aa93b" y="240.959814"/>
      </g>
     </g>
     <g id="text_27">
      <!-- 10400 -->
      <g transform="translate(69.1875 244.759033)scale(0.1 -0.1)">
       <use xlink:href="#DejaVuSans-49"/>
       <use x="63.623047" xlink:href="#DejaVuSans-48"/>
       <use x="127.246094" xlink:href="#DejaVuSans-52"/>
       <use x="190.869141" xlink:href="#DejaVuSans-48"/>
       <use x="254.492188" xlink:href="#DejaVuSans-48"/>
      </g>
     </g>
    </g>
    <g id="ytick_6">
     <g id="line2d_27">
      <g>
       <use style="stroke:#000000;stroke-width:0.8;" x="108" xlink:href="#md55b8aa93b" y="197.729076"/>
      </g>
     </g>
     <g id="text_28">
      <!-- 10600 -->
      <g transform="translate(69.1875 201.528295)scale(0.1 -0.1)">
       <use xlink:href="#DejaVuSans-49"/>
       <use x="63.623047" xlink:href="#DejaVuSans-48"/>
       <use x="127.246094" xlink:href="#DejaVuSans-54"/>
       <use x="190.869141" xlink:href="#DejaVuSans-48"/>
       <use x="254.492188" xlink:href="#DejaVuSans-48"/>
      </g>
     </g>
    </g>
    <g id="ytick_7">
     <g id="line2d_28">
      <g>
       <use style="stroke:#000000;stroke-width:0.8;" x="108" xlink:href="#md55b8aa93b" y="154.498339"/>
      </g>
     </g>
     <g id="text_29">
      <!-- 10800 -->
      <g transform="translate(69.1875 158.297557)scale(0.1 -0.1)">
       <use xlink:href="#DejaVuSans-49"/>
       <use x="63.623047" xlink:href="#DejaVuSans-48"/>
       <use x="127.246094" xlink:href="#DejaVuSans-56"/>
       <use x="190.869141" xlink:href="#DejaVuSans-48"/>
       <use x="254.492188" xlink:href="#DejaVuSans-48"/>
      </g>
     </g>
    </g>
    <g id="ytick_8">
     <g id="line2d_29">
      <g>
       <use style="stroke:#000000;stroke-width:0.8;" x="108" xlink:href="#md55b8aa93b" y="111.267601"/>
      </g>
     </g>
     <g id="text_30">
      <!-- 11000 -->
      <g transform="translate(69.1875 115.066819)scale(0.1 -0.1)">
       <use xlink:href="#DejaVuSans-49"/>
       <use x="63.623047" xlink:href="#DejaVuSans-49"/>
       <use x="127.246094" xlink:href="#DejaVuSans-48"/>
       <use x="190.869141" xlink:href="#DejaVuSans-48"/>
       <use x="254.492188" xlink:href="#DejaVuSans-48"/>
      </g>
     </g>
    </g>
    <g id="ytick_9">
     <g id="line2d_30">
      <g>
       <use style="stroke:#000000;stroke-width:0.8;" x="108" xlink:href="#md55b8aa93b" y="68.036863"/>
      </g>
     </g>
     <g id="text_31">
      <!-- 11200 -->
      <g transform="translate(69.1875 71.836081)scale(0.1 -0.1)">
       <use xlink:href="#DejaVuSans-49"/>
       <use x="63.623047" xlink:href="#DejaVuSans-49"/>
       <use x="127.246094" xlink:href="#DejaVuSans-50"/>
       <use x="190.869141" xlink:href="#DejaVuSans-48"/>
       <use x="254.492188" xlink:href="#DejaVuSans-48"/>
      </g>
     </g>
    </g>
    <g id="text_32">
     <!-- MB -->
     <g transform="translate(63.52375 260.715625)rotate(-90)scale(0.08 -0.08)">
      <defs>
       <path d="M 9.8125 72.90625 
L 24.515625 72.90625 
L 43.109375 23.296875 
L 61.8125 72.90625 
L 76.515625 72.90625 
L 76.515625 0 
L 66.890625 0 
L 66.890625 64.015625 
L 48.09375 14.015625 
L 38.1875 14.015625 
L 19.390625 64.015625 
L 19.390625 0 
L 9.8125 0 
z
" id="DejaVuSans-77"/>
       <path d="M 19.671875 34.8125 
L 19.671875 8.109375 
L 35.5 8.109375 
Q 43.453125 8.109375 47.28125 11.40625 
Q 51.125 14.703125 51.125 21.484375 
Q 51.125 28.328125 47.28125 31.5625 
Q 43.453125 34.8125 35.5 34.8125 
z
M 19.671875 64.796875 
L 19.671875 42.828125 
L 34.28125 42.828125 
Q 41.5 42.828125 45.03125 45.53125 
Q 48.578125 48.25 48.578125 53.8125 
Q 48.578125 59.328125 45.03125 62.0625 
Q 41.5 64.796875 34.28125 64.796875 
z
M 9.8125 72.90625 
L 35.015625 72.90625 
Q 46.296875 72.90625 52.390625 68.21875 
Q 58.5 63.53125 58.5 54.890625 
Q 58.5 48.1875 55.375 44.234375 
Q 52.25 40.28125 46.1875 39.3125 
Q 53.46875 37.75 57.5 32.78125 
Q 61.53125 27.828125 61.53125 20.40625 
Q 61.53125 10.640625 54.890625 5.3125 
Q 48.25 0 35.984375 0 
L 9.8125 0 
z
" id="DejaVuSans-66"/>
      </defs>
      <use xlink:href="#DejaVuSans-77"/>
      <use x="86.279297" xlink:href="#DejaVuSans-66"/>
     </g>
    </g>
   </g>
   <g id="line2d_31">
    <path clip-path="url(#p256ddc447d)" d="M 132.349091 80.513254 
L 132.613755 80.827109 
L 132.878419 80.48818 
L 133.143083 79.307981 
L 133.407747 79.536239 
L 133.672411 80.333414 
L 133.937075 80.360217 
L 134.201739 80.189888 
L 134.466403 79.536239 
L 134.731067 79.807728 
L 134.995731 79.55699 
L 135.525059 78.12 
L 135.789723 78.822932 
L 136.319051 83.429599 
L 136.848379 99.800215 
L 137.377708 140.93945 
L 137.642372 185.020104 
L 137.907036 203.122543 
L 138.436364 263.33518 
L 139.230356 337.684267 
L 139.49502 366.789794 
L 140.289012 399.665041 
L 140.553676 400.302262 
L 140.81834 399.7247 
L 141.083004 399.505952 
L 141.612332 398.228916 
L 141.876996 399.384906 
L 142.406324 399.535349 
L 142.670988 399.077968 
L 142.935652 400.196779 
L 143.200316 399.614029 
L 143.46498 399.559558 
L 143.729644 398.624045 
L 143.994308 399.307091 
L 144.258972 400.483831 
L 144.523636 400.651567 
L 145.052964 399.823266 
L 145.317628 400.572887 
L 145.582292 400.421579 
L 145.846957 402.984297 
L 146.111621 402.310762 
L 146.376285 402.945389 
L 146.640949 403.194399 
L 146.905613 401.258526 
L 147.434941 399.54486 
L 147.699605 400.27373 
L 147.964269 400.514093 
L 148.228933 400.492477 
L 148.493597 399.584632 
L 148.758261 400.91268 
L 149.022925 401.038914 
L 149.552253 399.667635 
L 149.816917 399.978896 
L 150.081581 401.106354 
L 150.610909 401.264578 
L 150.875573 400.54176 
L 151.140237 401.35104 
L 151.404901 401.379572 
L 151.669565 401.20492 
L 151.934229 400.451841 
L 152.198893 401.644144 
L 152.463557 401.82139 
L 152.728221 401.854246 
L 152.992885 401.244692 
L 153.257549 399.595872 
L 153.522213 400.756185 
L 153.786877 400.63168 
L 154.051542 400.36365 
L 154.316206 399.753232 
L 154.58087 399.958145 
L 154.845534 400.882419 
L 155.110198 400.735434 
L 155.374862 399.660718 
L 155.90419 401.72023 
L 156.168854 401.757409 
L 156.433518 401.356228 
L 156.698182 400.637733 
L 156.962846 402.198362 
L 157.22751 401.72023 
L 157.756838 399.945176 
L 158.021502 400.497665 
L 158.286166 401.793723 
L 159.080158 399.876007 
L 159.344822 402.015064 
L 159.87415 400.762237 
L 160.138814 400.242604 
L 160.403478 400.300533 
L 160.668142 400.975797 
L 160.932806 401.051019 
L 161.19747 400.381807 
L 161.462134 401.290517 
L 161.726798 401.75395 
L 161.991462 401.779024 
L 162.256126 401.57411 
L 162.520791 399.840558 
L 162.785455 401.232588 
L 163.050119 401.31732 
L 163.314783 401.170335 
L 163.579447 400.034232 
L 163.844111 400.415527 
L 164.108775 401.88883 
L 164.373439 401.700344 
L 164.638103 401.715907 
L 164.902767 400.772613 
L 165.167431 402.24851 
L 165.432095 402.420568 
L 165.696759 402.229488 
L 165.961423 401.472951 
L 166.490751 402.928097 
L 166.755415 402.711079 
L 167.020079 402.189716 
L 167.284743 402.828666 
L 167.549407 402.906482 
L 167.814071 402.847688 
L 168.078735 401.484191 
L 168.343399 401.558547 
L 168.608063 402.860657 
L 168.872727 403.100156 
L 169.137391 402.66266 
L 169.402055 401.972698 
L 169.666719 402.623753 
L 169.931383 402.119682 
L 170.196047 402.125735 
L 170.460711 401.952812 
L 170.725375 401.573246 
L 170.99004 403.072488 
L 171.254704 402.912534 
L 171.519368 403.131282 
L 171.784032 401.736658 
L 172.048696 402.258021 
L 172.31336 403.567912 
L 172.578024 403.554078 
L 172.842688 402.454288 
L 173.107352 402.149079 
L 173.372016 403.471075 
L 173.63668 402.994673 
L 173.901344 402.908211 
L 174.166008 402.616836 
L 174.430672 404.069389 
L 174.695336 402.960953 
L 174.96 402.398953 
L 175.224664 402.286553 
L 175.489328 402.758633 
L 175.753992 402.211332 
L 176.28332 402.32719 
L 176.547984 401.725418 
L 176.812648 403.329278 
L 177.077312 403.493555 
L 177.341976 403.016288 
L 177.60664 402.309898 
L 178.135968 403.367321 
L 178.400632 403.099291 
L 178.665296 402.298658 
L 178.92996 403.197857 
L 179.194625 406.900137 
L 179.723953 406.886304 
L 179.988617 403.900789 
L 180.253281 404.735142 
L 181.047273 401.912175 
L 181.311937 405.701781 
L 181.576601 406.632971 
L 181.841265 406.607898 
L 182.105929 406.313064 
L 182.370593 401.83263 
L 182.635257 403.810869 
L 182.899921 403.902518 
L 183.429249 401.869809 
L 183.693913 402.267532 
L 183.958577 402.975651 
L 184.223241 403.10102 
L 184.487905 402.508759 
L 184.752569 402.401547 
L 185.017233 404.101379 
L 185.281897 403.788389 
L 185.546561 403.654374 
L 185.811225 403.106208 
L 186.075889 403.615466 
L 186.340553 402.65315 
L 186.605217 402.22603 
L 187.134545 402.511353 
L 187.399209 402.365233 
L 187.663874 402.753445 
L 187.928538 402.269261 
L 188.193202 401.176388 
L 188.457866 403.073352 
L 188.72253 403.181429 
L 188.987194 403.081999 
L 189.251858 402.579657 
L 189.516522 402.86498 
L 189.781186 403.330143 
L 190.04585 403.476263 
L 190.310514 402.965276 
L 190.575178 403.018882 
L 190.839842 405.585923 
L 191.36917 405.336914 
L 191.633834 403.784066 
L 191.898498 404.118672 
L 192.163162 403.694146 
L 192.427826 403.771961 
L 192.69249 403.431303 
L 192.957154 403.687229 
L 193.221818 404.396213 
L 193.486482 404.124724 
L 193.751146 404.138558 
L 194.01581 402.253698 
L 194.280474 404.683265 
L 194.545138 404.72736 
L 195.074466 403.266162 
L 195.603794 403.903383 
L 195.868458 403.568777 
L 196.133123 402.742205 
L 196.397787 403.008506 
L 196.662451 404.442902 
L 196.927115 404.488727 
L 197.191779 404.308022 
L 197.456443 403.650051 
L 197.721107 403.935373 
L 197.985771 404.565678 
L 198.250435 404.070253 
L 198.515099 402.758633 
L 198.779763 403.453783 
L 199.044427 404.524176 
L 199.309091 404.54925 
L 199.573755 404.402265 
L 199.838419 403.80741 
L 200.103083 404.411776 
L 200.367747 403.878309 
L 200.632411 403.808275 
L 200.897075 403.226389 
L 201.426403 405.238348 
L 201.691067 405.184742 
L 201.955731 405.359394 
L 202.220395 404.725631 
L 202.485059 404.573459 
L 202.749723 404.891637 
L 203.014387 404.59421 
L 203.279051 403.358675 
L 203.543715 404.254416 
L 203.808379 406.050221 
L 204.337708 404.071983 
L 204.602372 404.479216 
L 204.867036 405.123354 
L 205.396364 404.826791 
L 205.661028 404.116078 
L 205.925692 405.859141 
L 206.190356 404.611502 
L 206.45502 404.842354 
L 206.719684 403.846318 
L 207.249012 404.894231 
L 207.513676 404.543198 
L 208.043004 403.344841 
L 208.307668 404.163632 
L 208.572332 403.945749 
L 208.836996 404.276032 
L 209.10166 403.465888 
L 209.366324 404.074576 
L 209.630988 405.922258 
L 209.895652 405.645581 
L 210.160316 404.449819 
L 210.954308 405.280714 
L 211.218972 405.157939 
L 211.483636 404.651274 
L 211.7483 406.307876 
L 212.012964 405.530588 
L 212.277628 406.803301 
L 212.542292 406.952879 
L 213.071621 405.66028 
L 213.336285 405.895455 
L 213.865613 404.473164 
L 214.130277 405.234889 
L 214.394941 404.814687 
L 214.659605 404.646951 
L 214.924269 403.644863 
L 215.453597 405.003173 
L 215.982925 405.342102 
L 216.247589 404.74033 
L 216.512253 405.726855 
L 217.041581 405.5254 
L 217.306245 404.400536 
L 217.570909 405.448449 
L 217.835573 405.955978 
L 218.100237 404.149798 
L 218.364901 404.361628 
L 218.629565 403.236765 
L 218.894229 405.406948 
L 219.423557 405.349019 
L 219.688221 404.57173 
L 220.217549 405.87384 
L 220.746877 404.78529 
L 221.011542 405.093093 
L 221.276206 406.215362 
L 221.54087 406.105556 
L 222.070198 405.052456 
L 222.334862 406.101233 
L 222.599526 406.152246 
L 222.86419 405.305788 
L 223.128854 404.866563 
L 223.393518 405.650769 
L 223.922846 405.333455 
L 224.18751 404.598533 
L 224.452174 405.224514 
L 224.716838 406.438433 
L 224.981502 406.610491 
L 225.246166 406.576771 
L 225.51083 405.161397 
L 225.775494 405.083582 
L 226.040158 405.783055 
L 226.304822 405.540963 
L 226.569486 404.934868 
L 227.098814 406.698682 
L 227.363478 406.560344 
L 227.628142 406.604439 
L 227.892806 406.070972 
L 228.15747 406.486852 
L 228.422134 406.264646 
L 228.686798 406.233519 
L 228.951462 405.470929 
L 229.216126 405.7502 
L 229.480791 406.952014 
L 229.745455 406.876793 
L 230.010119 406.523165 
L 230.274783 405.290225 
L 230.539447 406.589741 
L 230.804111 406.253406 
L 231.068775 406.160027 
L 231.333439 405.45796 
L 231.598103 408.642336 
L 231.862767 408.921607 
L 232.127431 408.700265 
L 232.392095 408.096764 
L 232.656759 406.627784 
L 232.921423 406.881116 
L 233.186087 407.853807 
L 233.450751 406.60271 
L 233.715415 406.502415 
L 234.244743 407.205346 
L 234.774071 406.22055 
L 235.038735 406.464372 
L 235.303399 408.343179 
L 235.568063 408.440881 
L 235.832727 407.838244 
L 236.097391 405.612726 
L 236.362055 407.551192 
L 236.626719 407.552057 
L 236.891383 407.251171 
L 237.156047 406.157433 
L 237.420711 407.118885 
L 237.685375 407.288349 
L 238.214704 405.98451 
L 238.479368 406.585418 
L 238.744032 408.464225 
L 239.008696 408.350961 
L 239.538024 407.273651 
L 239.802688 408.433099 
L 240.067352 407.897038 
L 240.332016 407.956697 
L 240.59668 407.162116 
L 240.861344 407.776857 
L 241.126008 408.791914 
L 241.390672 408.664816 
L 241.655336 408.316376 
L 241.92 408.743496 
L 242.184664 407.921247 
L 242.713992 407.932487 
L 242.978656 407.134448 
L 243.24332 408.432235 
L 243.507984 408.282656 
L 243.772648 408.30773 
L 244.037312 407.565026 
L 244.301976 407.528712 
L 244.56664 407.929029 
L 245.095968 408.157287 
L 245.625296 412.073992 
L 245.88996 411.958134 
L 246.154625 409.682468 
L 246.419289 408.967431 
L 246.683953 408.964837 
L 246.948617 409.533754 
L 247.213281 408.630232 
L 247.477945 408.680379 
L 247.742609 411.533608 
L 248.007273 412.066211 
L 248.536601 411.6071 
L 248.801265 407.377405 
L 249.065929 408.461632 
L 249.330593 408.884428 
L 249.859921 407.640248 
L 250.124585 407.55638 
L 250.389249 408.514373 
L 250.653913 408.703724 
L 251.183241 407.558974 
L 251.447905 408.727068 
L 251.712569 408.740038 
L 251.977233 408.608616 
L 252.241897 407.884934 
L 252.506561 408.126161 
L 252.771225 408.746955 
L 253.035889 408.981265 
L 253.300553 409.055622 
L 253.565217 408.343179 
L 253.829881 410.064627 
L 254.094545 409.847609 
L 254.359209 409.864037 
L 254.623874 409.290797 
L 254.888538 408.40889 
L 255.153202 408.740038 
L 255.417866 408.84725 
L 255.947194 407.409395 
L 256.211858 409.422219 
L 256.476522 409.312413 
L 256.741186 408.758195 
L 257.00585 407.788961 
L 257.270514 408.131349 
L 257.535178 409.13949 
L 257.799842 409.111822 
L 258.064506 408.280063 
L 258.32917 408.772893 
L 258.593834 409.673822 
L 259.123162 409.408385 
L 259.387826 408.478924 
L 259.65249 409.665175 
L 259.917154 409.719646 
L 260.181818 408.866271 
L 260.711146 408.242884 
L 260.97581 408.81353 
L 261.240474 408.286979 
L 261.505138 408.424453 
L 261.769802 407.521795 
L 262.034466 408.647524 
L 262.563794 408.652712 
L 262.828458 407.750054 
L 263.357787 409.352185 
L 263.622451 409.073779 
L 263.887115 409.098853 
L 264.151779 408.533395 
L 264.416443 409.244108 
L 264.681107 409.222493 
L 264.945771 409.02709 
L 265.210435 408.231644 
L 265.739763 410.127744 
L 266.004427 410.312772 
L 266.533755 409.039194 
L 266.798419 409.512139 
L 267.063083 408.770299 
L 267.327747 408.966567 
L 267.592411 408.24029 
L 267.857075 410.017938 
L 268.386403 409.065133 
L 268.651067 408.337127 
L 268.915731 408.769434 
L 269.180395 409.644425 
L 269.445059 409.596006 
L 269.709723 410.269541 
L 269.974387 409.620215 
L 270.239051 411.836223 
L 270.503715 411.743709 
L 270.768379 411.853515 
L 271.033043 410.693202 
L 271.297708 411.580297 
L 271.827036 411.101301 
L 272.0917 410.304126 
L 272.621028 411.758408 
L 272.885692 411.092654 
L 273.150356 411.37106 
L 273.41502 410.647378 
L 273.679684 411.212836 
L 274.209012 411.022621 
L 274.473676 410.437276 
L 274.73834 410.777935 
L 275.267668 412.009146 
L 275.532332 411.746303 
L 275.796996 411.285463 
L 276.06166 412.553853 
L 276.326324 412.74061 
L 276.590988 412.346346 
L 277.120316 413.06657 
L 277.649644 413.139197 
L 277.914308 412.601407 
L 278.178972 411.711719 
L 278.443636 416.039115 
L 278.7083 415.464147 
L 278.972964 415.273931 
L 279.502292 413.48072 
L 279.766957 413.630299 
L 280.031621 413.586203 
L 280.296285 411.916632 
L 280.560949 412.283229 
L 280.825613 413.071758 
L 281.619605 412.35845 
L 281.884269 413.349299 
L 282.148933 413.5594 
L 282.413597 413.303474 
L 282.678261 412.610918 
L 282.942925 413.191939 
L 283.207589 413.34584 
L 283.472253 413.110665 
L 283.736917 412.520133 
L 284.001581 412.284093 
L 284.266245 414.045314 
L 284.530909 413.931185 
L 284.795573 412.955035 
L 285.060237 412.604001 
L 285.324901 413.953665 
L 285.589565 414.126588 
L 286.118893 413.113259 
L 286.648221 414.169818 
L 286.912885 414.181923 
L 287.177549 413.934643 
L 287.442213 413.15649 
L 287.706877 413.618194 
L 287.971542 413.747886 
L 288.236206 414.085951 
L 288.50087 413.229982 
L 288.765534 413.608683 
L 289.030198 412.876355 
L 289.294862 412.939471 
L 289.559526 412.159589 
L 289.82419 412.660201 
L 290.353518 414.276166 
L 290.618182 413.798034 
L 291.14751 412.53829 
L 291.412174 413.038902 
L 291.676838 413.26716 
L 291.941502 412.621293 
L 292.206166 413.676988 
L 292.47083 415.247993 
L 292.735494 414.551113 
L 293.000158 414.627199 
L 293.264822 413.88536 
L 293.529486 414.755162 
L 293.79415 414.680806 
L 294.058814 414.440443 
L 294.323478 413.903517 
L 294.852806 415.705374 
L 295.11747 415.602485 
L 295.382134 415.656091 
L 295.911462 414.021969 
L 296.176126 414.35571 
L 296.440791 414.034938 
L 296.705455 413.109801 
L 296.970119 413.321631 
L 297.234783 415.267879 
L 297.499447 414.879667 
L 297.764111 413.692551 
L 298.028775 413.899194 
L 298.293439 415.575682 
L 298.558103 415.303328 
L 298.822767 415.253181 
L 299.087431 414.778507 
L 299.352095 415.103602 
L 299.616759 414.80531 
L 299.881423 414.012458 
L 300.146087 414.061741 
L 300.410751 414.774184 
L 300.675415 416.486986 
L 300.940079 415.630153 
L 301.204743 415.273067 
L 301.469407 414.216507 
L 301.734071 414.916845 
L 301.998735 414.933273 
L 302.263399 414.660919 
L 302.528063 414.029751 
L 303.057391 414.786289 
L 303.322055 414.728359 
L 303.586719 415.295547 
L 303.851383 414.802716 
L 304.116047 416.407441 
L 304.380711 416.195611 
L 304.645375 416.237977 
L 304.91004 415.264421 
L 305.174704 416.11866 
L 305.439368 416.502549 
L 305.704032 416.327897 
L 305.968696 415.855817 
L 306.23336 416.072835 
L 306.498024 417.00489 
L 307.027352 417.022182 
L 307.292016 416.135952 
L 307.55668 416.984139 
L 308.086008 416.262186 
L 308.350672 415.56963 
L 308.88 416.864822 
L 309.144664 416.875198 
L 309.409328 416.728213 
L 309.673992 416.288124 
L 309.938656 417.322204 
L 310.20332 417.460542 
L 310.997312 415.866192 
L 311.261976 416.779226 
L 311.52664 416.483527 
L 311.791304 418.872458 
L 312.055968 418.351095 
L 312.320632 419.513137 
L 312.585296 416.896813 
L 312.84996 416.951284 
L 313.114625 416.266509 
L 313.379289 416.550967 
L 313.643953 417.123342 
L 313.908617 417.103456 
L 314.173281 419.604787 
L 314.967273 419.693842 
L 315.231937 417.005755 
L 315.496601 416.34346 
L 316.290593 417.641247 
L 316.555257 416.977222 
L 316.819921 417.082705 
L 317.084585 418.026865 
L 317.349249 417.99228 
L 317.878577 416.728213 
L 318.143241 418.530935 
L 318.407905 418.413348 
L 318.672569 418.034646 
L 318.937233 417.426822 
L 319.201897 418.005249 
L 319.731225 416.356429 
L 319.995889 415.686353 
L 320.260553 415.644851 
L 320.525217 417.698311 
L 321.054545 417.176084 
L 321.319209 416.43165 
L 321.583874 417.272056 
L 321.848538 417.625683 
L 322.113202 417.626548 
L 322.377866 416.454995 
L 322.64253 417.031693 
L 322.907194 418.773027 
L 323.436522 417.997468 
L 323.701186 417.279838 
L 323.96585 418.220538 
L 324.230514 418.221403 
L 324.495178 418.381357 
L 324.759842 417.380133 
L 325.024506 418.77908 
L 325.28917 417.796013 
L 325.553834 417.574671 
L 326.083162 415.57914 
L 326.347826 416.862229 
L 326.877154 416.561343 
L 327.141818 416.125577 
L 327.671146 417.171761 
L 327.93581 417.381862 
L 328.200474 416.374586 
L 328.729802 418.010437 
L 329.25913 418.145317 
L 329.523794 417.267733 
L 329.788458 418.026 
L 330.053123 418.172985 
L 330.582451 416.775767 
L 331.111779 417.580724 
L 331.376443 416.629647 
L 331.641107 416.66769 
L 331.905771 416.308875 
L 332.170435 418.4756 
L 332.435099 418.433234 
L 332.699763 418.73412 
L 332.964427 417.998332 
L 333.229091 417.680154 
L 333.493755 418.585406 
L 333.758419 418.388274 
L 334.023083 417.604068 
L 334.287747 418.390003 
L 334.552411 419.705082 
L 334.817075 419.654934 
L 335.081739 418.602698 
L 335.346403 418.066637 
L 335.611067 419.130978 
L 335.875731 417.760563 
L 336.140395 417.872963 
L 336.405059 416.987598 
L 336.669723 417.882474 
L 336.934387 419.278827 
L 337.199051 419.239919 
L 337.463715 418.939033 
L 337.728379 418.29576 
L 338.257708 418.672732 
L 338.522372 418.611344 
L 338.787036 417.292807 
L 339.0517 417.918788 
L 339.316364 419.329839 
L 339.581028 419.186313 
L 339.845692 418.309594 
L 340.37502 419.345402 
L 340.639684 419.617756 
L 340.904348 419.635913 
L 341.169012 418.768704 
L 341.433676 420.208288 
L 341.69834 419.099852 
L 341.963004 418.879375 
L 342.227668 418.383086 
L 342.492332 418.313052 
L 342.756996 419.162969 
L 343.02166 419.192365 
L 343.286324 418.498944 
L 343.550988 419.191501 
L 343.815652 419.494116 
L 344.34498 418.977076 
L 344.609644 418.17212 
L 344.874308 421.51645 
L 345.138972 422.330917 
L 345.403636 422.168369 
L 345.6683 421.380705 
L 345.932964 420.091565 
L 346.462292 420.235091 
L 346.726957 418.309594 
L 346.991621 418.646793 
L 347.256285 420.209152 
L 347.520949 420.232497 
L 347.785613 420.083783 
L 348.050277 419.515731 
L 348.314941 419.667904 
L 348.579605 420.342303 
L 349.108933 418.964972 
L 349.373597 419.18199 
L 349.638261 421.107487 
L 349.902925 420.966555 
L 350.167589 420.639731 
L 350.696917 419.278827 
L 350.961581 420.200506 
L 351.226245 420.338845 
L 351.490909 419.781168 
L 352.020237 420.779798 
L 352.284901 420.631084 
L 352.549565 420.828217 
L 352.814229 419.452614 
L 353.078893 420.566238 
L 353.608221 420.839457 
L 353.872885 420.12442 
L 354.137549 420.065626 
L 354.402213 420.689878 
L 354.666877 420.337115 
L 354.931542 420.421848 
L 355.196206 419.961873 
L 355.46087 420.418389 
L 355.990198 420.444328 
L 356.254862 419.301307 
L 356.78419 420.465943 
L 357.048854 420.448651 
L 357.313518 419.038464 
L 357.578182 419.399008 
L 358.10751 420.876635 
L 358.372174 420.586989 
L 358.636838 419.998186 
L 358.901502 421.345256 
L 359.166166 421.453333 
L 359.43083 421.410102 
L 359.695494 420.624167 
L 359.960158 420.656158 
L 360.224822 421.109216 
L 360.75415 420.893063 
L 361.018814 420.184943 
L 361.283478 420.346626 
L 361.812806 420.111451 
L 362.07747 419.112821 
L 362.342134 420.029312 
L 362.606798 421.86489 
L 363.136126 420.276592 
L 363.400791 420.354408 
L 363.930119 423.709978 
L 364.194783 423.919214 
L 364.459447 423.152301 
L 364.724111 425.345829 
L 364.988775 423.04163 
L 365.253439 422.907615 
L 365.518103 422.253102 
L 365.782767 421.225939 
L 366.047431 421.121321 
L 366.312095 421.231127 
L 366.841423 419.91086 
L 367.106087 421.723093 
L 367.635415 421.743844 
L 367.900079 421.227669 
L 368.164743 421.296838 
L 368.958735 420.280915 
L 369.488063 421.623662 
L 370.017391 421.566598 
L 370.282055 421.154176 
L 370.546719 421.822524 
L 370.811383 421.749031 
L 371.076047 421.555358 
L 371.340711 421.112675 
L 371.605375 421.950486 
L 372.134704 422.131191 
L 372.399368 421.14553 
L 372.664032 421.049558 
L 372.928696 421.96432 
L 373.19336 422.282499 
L 373.458024 422.154536 
L 373.722688 421.245825 
L 373.987352 421.602911 
L 374.252016 421.590807 
L 374.781344 420.183214 
L 375.310672 421.769782 
L 375.84 422.071533 
L 376.104664 421.197407 
L 376.369328 421.955674 
L 376.633992 422.125139 
L 376.898656 422.562634 
L 377.16332 421.820794 
L 377.427984 422.068074 
L 377.692648 422.747661 
L 377.957312 422.529778 
L 378.221976 425.224783 
L 378.48664 423.864744 
L 378.751304 425.610401 
L 379.015968 423.17651 
L 379.80996 421.723093 
L 380.074625 421.711853 
L 380.339289 421.57265 
L 380.603953 423.709978 
L 380.868617 423.369319 
L 381.133281 424.988743 
L 381.397945 422.896375 
L 381.662609 422.766683 
L 381.927273 422.225434 
L 382.456601 422.500381 
L 382.721265 422.369825 
L 382.985929 420.963961 
L 383.250593 421.956539 
L 383.515257 424.031614 
L 384.044585 422.472714 
L 384.309249 422.271259 
L 384.573913 423.767907 
L 384.838577 423.50247 
L 385.103241 423.498147 
L 385.367905 422.572145 
L 385.632569 422.644772 
L 386.161897 423.149707 
L 386.426561 423.02088 
L 386.691225 422.216788 
L 386.955889 424.361897 
L 387.220553 424.122399 
L 387.485217 424.157848 
L 387.749881 423.241356 
L 388.543874 423.914027 
L 388.808538 422.426025 
L 389.073202 422.815966 
L 389.337866 423.930454 
L 389.60253 423.128092 
L 389.867194 423.173916 
L 390.131858 422.607594 
L 390.396522 423.920944 
L 390.92585 424.105971 
L 391.190514 423.348569 
L 391.455178 423.663288 
L 391.719842 423.629568 
L 391.984506 423.409092 
L 392.24917 423.430707 
L 392.513834 422.557446 
L 392.778498 424.185516 
L 393.57249 422.243591 
L 393.837154 422.469255 
L 394.101818 423.249138 
L 394.366482 422.986295 
L 394.631146 423.132415 
L 394.89581 422.574738 
L 395.160474 423.960716 
L 395.425138 423.899328 
L 395.689802 423.999623 
L 395.954466 423.303609 
L 396.483794 424.013457 
L 396.748458 424.13191 
L 397.013123 423.485178 
L 397.542451 424.552977 
L 397.807115 424.258143 
L 398.071779 423.203313 
L 398.865771 422.809914 
L 399.130435 423.058058 
L 399.395099 422.414785 
L 399.659763 423.474802 
L 399.924427 424.071386 
L 400.189091 424.317802 
L 400.453755 424.347199 
L 400.718419 423.728134 
L 400.983083 424.567675 
L 401.247747 424.444035 
L 401.512411 424.4449 
L 401.777075 423.779147 
L 402.306403 425.676976 
L 402.571067 425.687351 
L 402.835731 424.904875 
L 403.100395 423.492959 
L 403.365059 425.178093 
L 403.629723 425.221324 
L 403.894387 425.405487 
L 404.159051 424.250362 
L 404.423715 425.114977 
L 404.688379 425.322484 
L 404.953043 424.987014 
L 405.217708 424.239122 
L 405.482372 423.076215 
L 405.747036 424.43366 
L 406.0117 423.926131 
L 406.276364 423.956393 
L 406.541028 423.51371 
L 406.805692 424.830518 
L 407.33502 424.43366 
L 407.599684 423.837076 
L 408.129012 425.574087 
L 408.393676 425.262826 
L 408.65834 425.373496 
L 408.923004 424.610041 
L 409.187668 425.045807 
L 409.452332 425.013817 
L 409.716996 424.158713 
L 409.98166 423.788657 
L 410.246324 424.048042 
L 410.510988 425.630287 
L 410.775652 425.249856 
L 411.040316 424.302239 
L 411.569644 427.46327 
L 412.098972 427.565295 
L 412.363636 425.068287 
L 412.6283 425.09682 
L 412.892964 425.841253 
L 413.422292 424.383512 
L 413.686957 424.657595 
L 413.951621 425.152155 
L 414.216285 424.900552 
L 414.480949 423.888953 
L 414.745613 423.803356 
L 415.010277 424.841758 
L 415.274941 425.010358 
L 415.539605 424.722441 
L 415.804269 424.089543 
L 416.068933 425.644121 
L 416.333597 424.886718 
L 416.598261 424.872884 
L 416.862925 425.114977 
L 417.127589 424.476026 
L 417.392253 425.775542 
L 417.656917 425.80321 
L 417.921581 426.03752 
L 418.186245 425.138321 
L 418.450909 426.208714 
L 418.715573 426.691169 
L 418.980237 426.118794 
L 419.244901 425.14178 
L 419.509565 425.45477 
L 419.774229 427.426956 
L 420.038893 425.951924 
L 420.303557 426.188828 
L 420.568221 425.766896 
L 420.832885 426.325437 
L 421.362213 426.523434 
L 421.626877 425.835201 
L 421.891542 426.232923 
L 422.156206 427.742541 
L 422.42087 427.859264 
L 422.685534 427.505636 
L 422.950198 425.508376 
L 423.214862 427.063818 
L 423.479526 427.407935 
L 424.008854 425.707238 
L 424.273518 425.973539 
L 424.538182 426.627188 
L 424.802846 426.776766 
L 425.06751 425.574087 
L 425.596838 426.776766 
L 425.861502 426.851988 
L 426.126166 426.603843 
L 426.39083 425.766031 
L 426.655494 427.803928 
L 426.920158 427.858399 
L 427.449486 426.426597 
L 427.71415 427.26095 
L 428.243478 426.848529 
L 428.508142 426.805298 
L 428.772806 426.067782 
L 429.03747 427.461541 
L 429.566798 427.428686 
L 429.831462 426.647074 
L 430.096126 427.545409 
L 430.360791 427.061224 
L 430.625455 426.978221 
L 430.890119 426.387689 
L 431.154783 426.238976 
L 431.419447 427.715738 
L 431.948775 427.585181 
L 432.213439 426.692898 
L 432.478103 427.964747 
L 433.007431 427.899901 
L 433.272095 426.369533 
L 433.536759 427.03788 
L 434.066087 426.504412 
L 434.330751 426.575311 
L 434.595415 426.392013 
L 434.860079 427.490073 
L 435.124743 427.415716 
L 435.389407 427.523793 
L 435.654071 427.09235 
L 435.918735 427.04739 
L 436.183399 427.27219 
L 436.448063 427.196104 
L 436.712727 426.321979 
L 436.977391 427.173624 
L 437.506719 427.511689 
L 437.771383 427.503042 
L 438.036047 426.810486 
L 438.565375 427.746864 
L 438.83004 427.716602 
L 439.094704 427.117424 
L 439.359368 427.520335 
L 439.624032 428.423857 
L 439.888696 428.798235 
L 440.15336 428.425586 
L 440.418024 426.18364 
L 440.682688 428.268227 
L 440.947352 428.427316 
L 441.212016 428.438556 
L 441.47668 427.615442 
L 441.741344 428.051208 
L 442.006008 427.825544 
L 442.270672 427.899901 
L 442.535336 426.661772 
L 442.8 426.431785 
L 443.064664 428.163608 
L 443.593992 427.770208 
L 443.858656 426.956606 
L 444.12332 427.953507 
L 444.387984 428.326156 
L 444.652648 430.755723 
L 444.917312 430.32428 
L 445.181976 430.620843 
L 445.44664 430.035499 
L 445.711304 430.145305 
L 445.975968 430.040687 
L 446.240632 428.700534 
L 446.505296 428.659897 
L 446.76996 428.872592 
L 447.034625 430.92 
L 447.563953 429.857388 
L 448.622609 425.244669 
L 448.887273 425.951924 
L 449.416601 425.988237 
L 449.681265 425.646715 
L 449.945929 425.721071 
L 450.210593 426.104096 
L 450.475257 425.435749 
L 450.739921 424.372272 
L 451.004585 425.417592 
L 451.533913 425.208355 
L 451.798577 424.834841 
L 452.063241 424.076574 
L 452.327905 425.582733 
L 452.592569 424.865103 
L 452.857233 423.601901 
L 453.121897 423.832753 
L 453.386561 424.263331 
L 453.651225 425.766031 
L 453.915889 425.681299 
L 454.180553 424.932543 
L 454.445217 424.961075 
L 454.709881 426.216496 
L 455.239209 426.070376 
L 455.503874 425.738364 
L 455.768538 426.292582 
L 456.033202 426.539862 
L 456.297866 426.277883 
L 456.56253 425.686487 
L 456.827194 426.098908 
L 457.091858 425.659684 
L 457.621186 425.740958 
L 457.88585 424.940324 
L 458.150514 426.792329 
L 458.415178 427.083704 
L 458.679842 427.036151 
L 458.944506 425.224783 
L 459.20917 425.892265 
L 459.473834 426.231194 
L 459.738498 425.941548 
L 460.003162 425.280983 
L 460.267826 425.089903 
L 460.53249 426.426597 
L 461.061818 426.46464 
L 461.326482 425.765167 
L 461.591146 425.864598 
L 461.85581 426.361751 
L 462.120474 426.552831 
L 462.385138 425.858545 
L 462.649802 426.65572 
L 462.914466 426.197474 
L 463.17913 426.522569 
L 463.443794 426.174994 
L 463.708458 425.440072 
L 463.973123 427.538492 
L 464.237787 427.758104 
L 464.502451 426.582228 
L 464.767115 426.545914 
L 465.031779 426.907323 
L 465.296443 427.612849 
L 465.561107 427.506501 
L 465.825771 426.730941 
L 466.090435 427.132987 
L 466.619763 428.436826 
L 466.884427 428.346906 
L 467.149091 427.907682 
L 467.413755 429.090475 
L 467.678419 429.257346 
L 468.207747 427.413123 
L 468.472411 427.781448 
L 468.737075 428.387543 
L 469.001739 428.280331 
L 469.266403 427.751187 
L 469.531067 427.521199 
L 469.795731 427.982904 
L 470.060395 427.10359 
L 470.325059 427.08284 
L 470.589723 426.462046 
L 470.854387 426.369533 
L 471.119051 428.076282 
L 471.383715 428.071959 
L 471.648379 428.212027 
L 471.913043 426.807028 
L 472.177708 428.105679 
L 472.707036 428.072824 
L 472.9717 426.794923 
L 473.501028 428.368522 
L 473.765692 428.245747 
L 474.030356 426.973034 
L 474.559684 428.339125 
L 474.824348 427.247117 
L 475.089012 427.310233 
L 475.353676 426.900406 
L 475.61834 426.2286 
L 475.883004 427.388049 
L 476.147668 427.48575 
L 476.412332 426.938449 
L 476.676996 426.992055 
L 476.94166 428.183494 
L 477.470988 427.865316 
L 477.735652 429.586764 
L 478.000316 430.350219 
L 478.26498 430.544757 
L 478.529644 428.404836 
L 478.794308 427.706227 
L 479.058972 428.111731 
L 479.323636 429.017848 
L 479.852964 427.92411 
L 480.117628 427.239335 
L 480.382292 428.622719 
L 480.646957 428.885561 
L 481.440949 426.840748 
L 481.705613 428.530205 
L 481.970277 428.230183 
L 482.234941 427.644839 
L 482.499605 427.739947 
L 482.764269 428.987586 
L 483.028933 427.618901 
L 483.293597 427.109643 
L 483.558261 425.551607 
L 483.822925 426.735265 
L 484.087589 426.018499 
L 484.352253 426.251945 
L 484.616917 425.558524 
L 484.881581 426.162025 
L 485.146245 427.334443 
L 485.410909 427.232418 
L 485.675573 426.839883 
L 485.940237 426.103231 
L 486.469565 425.855087 
L 486.998893 423.766177 
L 487.263557 424.043719 
L 487.528221 424.156983 
L 487.792885 424.116346 
L 488.057549 423.395258 
L 488.322213 423.398716 
L 488.586877 425.461687 
L 489.116206 424.92822 
L 489.38087 424.248633 
L 489.910198 424.722441 
L 490.174862 424.416368 
L 490.439526 423.278535 
L 490.968854 424.28754 
L 491.233518 423.933048 
L 491.498182 422.89724 
L 491.762846 422.707024 
L 492.02751 423.139332 
L 492.292174 424.129316 
L 492.556838 423.810273 
L 492.821502 423.298421 
L 493.086166 423.800762 
L 493.35083 423.281129 
L 493.615494 423.332141 
L 493.880158 423.166999 
L 494.144822 422.499517 
L 494.409486 424.001353 
L 494.67415 423.901057 
L 494.938814 423.614005 
L 495.203478 422.680221 
L 495.468142 423.441947 
L 495.732806 423.609682 
L 495.99747 423.610547 
L 496.262134 425.296546 
L 496.526798 425.121893 
L 496.791462 427.388913 
L 497.056126 427.342224 
L 497.320791 424.514934 
L 497.585455 423.978873 
L 498.114783 425.092497 
L 498.379447 425.088173 
L 498.644111 424.003082 
L 498.908775 423.714301 
L 499.173439 425.69081 
L 499.438103 425.124487 
L 499.702767 425.276659 
L 500.232095 423.447999 
L 500.761423 423.538784 
L 501.026087 422.679357 
L 501.290751 422.547071 
L 501.820079 421.258795 
L 502.084743 420.166786 
L 502.349407 420.183214 
L 502.614071 420.79709 
L 502.878735 421.856243 
L 503.143399 421.705801 
L 503.408063 420.629355 
L 503.672727 420.953586 
L 503.937391 421.564004 
L 504.202055 420.101076 
L 504.731383 418.664086 
L 504.996047 420.453838 
L 505.525375 420.453838 
L 506.054704 418.702129 
L 506.319368 419.523513 
L 506.584032 419.322058 
L 506.848696 418.144452 
L 507.11336 419.452614 
L 507.642688 419.8097 
L 507.907352 417.752782 
L 508.172016 417.546139 
L 508.43668 417.918788 
L 508.701344 418.921741 
L 508.966008 418.566384 
L 509.230672 417.927434 
L 509.495336 417.928299 
L 510.024664 418.555144 
L 510.289328 418.323428 
L 510.553992 417.678425 
L 511.08332 420.790173 
L 511.347984 420.94494 
L 511.612648 420.242872 
L 511.877312 418.648523 
L 512.141976 419.390362 
L 512.40664 419.023766 
L 512.671304 417.942997 
L 512.935968 418.262905 
L 513.200632 418.275009 
L 513.465296 421.638361 
L 513.72996 421.708394 
L 513.994625 420.612927 
L 514.259289 420.174568 
L 514.523953 419.520919 
L 515.317945 418.59751 
L 515.582609 419.153458 
L 515.847273 418.849113 
L 516.111937 419.118873 
L 516.376601 419.150864 
L 516.641265 420.542029 
L 516.905929 420.586989 
L 517.435257 419.094664 
L 517.699921 419.130978 
L 518.229249 418.911366 
L 518.493913 417.24093 
L 518.758577 417.837514 
L 519.023241 418.884563 
L 519.287905 417.301453 
L 519.817233 415.867922 
L 520.081897 415.665602 
L 520.346561 416.123848 
L 520.611225 416.27602 
L 520.875889 415.762439 
L 521.405217 417.251305 
L 521.669881 416.886438 
L 521.934545 415.899048 
L 522.199209 414.269249 
L 522.463874 414.741329 
L 522.993202 414.763809 
L 523.257866 413.915622 
L 523.787194 415.171042 
L 524.051858 414.565812 
L 524.316522 414.317667 
L 524.581186 413.627705 
L 524.84585 414.397212 
L 525.375178 414.185381 
L 525.639842 413.555942 
L 525.904506 413.775554 
L 526.16917 414.176735 
L 526.433834 413.675259 
L 526.698498 412.688733 
L 526.963162 413.897465 
L 527.227826 414.294323 
L 527.49249 414.487132 
L 528.021818 413.178105 
L 528.286482 414.114483 
L 528.551146 414.452547 
L 529.080474 413.485908 
L 529.345138 414.210455 
L 529.874466 413.62684 
L 530.13913 413.018151 
L 530.403794 413.045819 
L 530.668458 413.759991 
L 531.197787 413.931185 
L 531.462451 412.474309 
L 531.727115 412.636856 
L 531.991779 413.619059 
L 532.521107 412.475173 
L 532.785771 412.476038 
L 533.050435 413.871526 
L 533.315099 414.099784 
L 533.579763 413.903517 
L 533.844427 412.983567 
L 534.373755 414.104108 
L 534.638419 413.872391 
L 534.903083 413.137468 
L 535.432411 414.781966 
L 536.226403 414.432661 
L 536.491067 414.192298 
L 536.755731 413.738376 
L 537.285059 411.29411 
L 537.814387 412.456152 
L 538.343715 411.61834 
L 538.608379 411.282005 
L 538.873043 411.972832 
L 539.402372 411.084008 
L 539.9317 409.85712 
L 540.196364 410.559187 
L 540.725692 409.0366 
L 540.990356 409.180991 
L 541.519684 408.838604 
L 541.784348 409.192231 
L 542.049012 407.991281 
L 542.313676 408.852438 
L 542.57834 408.65617 
L 542.843004 408.253259 
L 543.107668 407.508826 
L 543.636996 408.64493 
L 543.90166 408.425318 
L 544.166324 411.164417 
L 544.430988 410.616252 
L 544.695652 411.918361 
L 544.960316 409.51992 
L 545.22498 409.628862 
L 545.489644 408.91469 
L 545.754308 408.866271 
L 546.283636 409.527702 
L 546.5483 409.437782 
L 546.812964 408.732256 
L 547.077628 409.701489 
L 547.342292 409.941852 
L 547.871621 408.796238 
L 548.136285 407.788961 
L 548.400949 409.143813 
L 548.665613 409.25189 
L 548.930277 408.472007 
L 549.194941 408.491029 
L 549.459605 409.670363 
L 549.724269 409.923695 
L 549.988933 409.766335 
L 550.253597 408.765111 
L 550.518261 409.080696 
L 550.782925 410.211612 
L 551.047589 409.833775 
L 551.312253 409.255348 
L 551.576917 409.590819 
L 551.841581 410.471861 
L 552.106245 409.769794 
L 552.370909 409.661717 
L 552.635573 409.057351 
L 552.900237 409.894298 
L 553.164901 409.557099 
L 553.429565 409.417896 
L 553.694229 408.808342 
L 553.958893 408.548958 
L 554.223557 409.460262 
L 554.488221 409.487929 
L 554.752885 409.308954 
L 555.017549 408.364795 
L 555.282213 409.294256 
L 555.546877 408.908637 
L 556.076206 406.71511 
L 556.605534 407.839109 
L 556.870198 407.931623 
L 557.134862 406.882845 
L 557.399526 407.303912 
L 557.66419 405.620508 
L 558.193518 404.574324 
L 558.458182 403.608549 
L 558.722846 404.901148 
L 558.98751 405.484763 
L 559.252174 405.703511 
L 559.516838 405.101739 
L 559.781502 405.191659 
L 560.046166 405.011819 
L 560.31083 405.111249 
L 560.840158 403.766774 
L 561.104822 405.374092 
L 561.369486 405.393114 
L 561.63415 405.162262 
L 561.898814 404.746382 
L 562.163478 404.659056 
L 562.428142 404.793071 
L 562.95747 403.529869 
L 563.222134 404.066795 
L 563.486798 402.834719 
L 563.751462 402.460341 
L 564.016126 402.465528 
L 564.280791 401.751356 
L 564.545455 404.07717 
L 564.810119 404.601991 
L 565.074783 404.286407 
L 565.339447 403.401906 
L 565.604111 403.612007 
L 565.868775 404.784425 
L 566.133439 404.561354 
L 566.398103 404.542333 
L 566.662767 403.437355 
L 566.927431 404.554438 
L 567.192095 404.95216 
L 567.456759 404.732548 
L 567.721423 404.013189 
L 567.986087 404.492185 
L 568.250751 404.513801 
L 568.515415 404.168819 
L 568.780079 403.515171 
L 569.044743 403.913758 
L 569.309407 405.198576 
L 569.574071 404.472299 
L 569.838735 404.307158 
L 570.103399 403.53938 
L 570.368063 403.257515 
L 570.632727 405.209816 
L 570.897391 405.304059 
L 571.162055 404.722173 
L 571.426719 403.837672 
L 571.691383 404.704016 
L 571.956047 404.888179 
L 572.220711 404.708339 
L 572.485375 403.592121 
L 572.75004 404.365952 
L 573.014704 403.70625 
L 573.279368 401.881049 
L 573.544032 401.253338 
L 573.808696 401.089062 
L 574.07336 401.850787 
L 574.338024 401.756544 
L 574.867352 400.895388 
L 575.132016 401.908716 
L 575.39668 401.678729 
L 575.661344 400.987037 
L 575.926008 399.901946 
L 576.190672 399.606247 
L 576.455336 399.799056 
L 576.72 399.517192 
L 576.984664 398.961245 
L 577.249328 402.27099 
L 577.513992 403.14598 
L 577.778656 402.980839 
L 578.04332 402.962682 
L 578.307984 399.79041 
L 578.572648 401.067446 
L 579.36664 398.793509 
L 579.631304 398.820312 
L 579.895968 402.432673 
L 580.160632 401.97875 
L 580.425296 401.118458 
L 580.68996 399.264724 
L 580.954625 398.610211 
L 581.219289 398.777082 
L 581.748617 397.133449 
L 582.013281 399.274235 
L 582.277945 398.899857 
L 582.542609 398.832417 
L 582.807273 397.686803 
L 583.336601 398.517697 
L 583.601265 397.873559 
L 583.865929 398.007575 
L 584.130593 397.325394 
L 584.395257 400.069681 
L 584.659921 399.390958 
L 584.924585 399.279423 
L 585.189249 398.47706 
L 585.453913 398.251396 
L 585.718577 398.886023 
L 585.983241 399.098718 
L 586.247905 399.127251 
L 586.512569 398.549688 
L 586.777233 399.384041 
L 587.041897 399.399604 
L 587.306561 399.191232 
L 587.571225 398.170987 
L 587.835889 399.228411 
L 588.100553 398.516833 
L 588.365217 398.649983 
L 588.629881 397.713606 
L 588.894545 398.874783 
L 589.159209 399.480878 
L 589.423874 399.748909 
L 589.688538 399.619217 
L 589.953202 398.874783 
L 590.217866 400.08265 
L 590.48253 399.831912 
L 591.011858 397.389375 
L 591.276522 398.15283 
L 591.541186 399.501629 
L 591.80585 398.494353 
L 592.070514 398.256584 
L 592.335178 397.69199 
L 592.599842 398.275605 
L 592.864506 398.23151 
L 593.12917 397.750784 
L 593.393834 396.444351 
L 593.658498 395.871976 
L 593.923162 394.779968 
L 594.187826 394.592346 
L 594.45249 393.990574 
L 594.717154 394.05715 
L 594.981818 395.686084 
L 595.246482 395.296143 
L 595.511146 395.618644 
L 595.77581 394.850866 
L 596.040474 395.283173 
L 596.305138 395.252047 
L 596.834466 393.700928 
L 597.363794 395.524401 
L 597.628458 395.040217 
L 598.157787 393.477858 
L 598.422451 394.979694 
L 598.951779 395.017737 
L 599.216443 394.076171 
L 599.481107 394.332097 
L 599.745771 393.682772 
L 600.010435 393.61879 
L 600.539763 392.883868 
L 600.804427 394.6961 
L 601.069091 394.705611 
L 601.598419 393.792578 
L 601.863083 394.633848 
L 602.127747 393.595445 
L 602.392411 393.889414 
L 602.657075 393.282455 
L 602.921739 393.746753 
L 603.186403 394.618285 
L 603.451067 394.624337 
L 603.715731 396.552428 
L 603.980395 395.673979 
L 604.245059 397.522526 
L 604.509723 397.596018 
L 604.774387 397.484483 
L 605.039051 396.286991 
L 605.303715 397.339227 
L 605.568379 397.437793 
L 605.833043 396.014638 
L 606.097708 395.688678 
L 606.627036 396.597388 
L 606.8917 396.448674 
L 607.421028 395.699053 
L 607.685692 395.965355 
L 607.950356 397.348738 
L 608.21502 396.753883 
L 608.744348 394.937328 
L 609.009012 395.302195 
L 609.273676 395.086906 
L 609.53834 394.613962 
L 609.803004 393.802953 
L 610.067668 394.489457 
L 610.332332 394.591482 
L 610.596996 396.897409 
L 610.86166 396.47029 
L 611.126324 396.807489 
L 611.390988 394.738466 
L 611.655652 394.447956 
L 612.18498 391.48665 
L 612.449644 392.481822 
L 612.714308 392.646963 
L 612.978972 392.300253 
L 613.243636 390.730112 
L 613.5083 391.389813 
L 613.772964 392.60892 
L 614.302292 391.024081 
L 614.566957 391.40797 
L 614.831621 393.32828 
L 615.096285 393.242683 
L 615.360949 392.836314 
L 615.625613 392.098797 
L 615.890277 392.308034 
L 616.419605 392.310628 
L 616.684269 390.726654 
L 617.213597 392.218114 
L 617.742925 391.243693 
L 618.007589 389.909593 
L 618.272253 391.575705 
L 618.801581 391.13821 
L 619.066245 390.389454 
L 619.330909 391.931062 
L 619.330909 391.931062 
" style="fill:none;stroke:#1f77b4;stroke-linecap:square;stroke-width:1.5;"/>
   </g>
   <g id="patch_3">
    <path d="M 108 448.56 
L 108 60.48 
" style="fill:none;stroke:#000000;stroke-linecap:square;stroke-linejoin:miter;stroke-width:0.8;"/>
   </g>
   <g id="patch_4">
    <path d="M 643.68 448.56 
L 643.68 60.48 
" style="fill:none;stroke:#000000;stroke-linecap:square;stroke-linejoin:miter;stroke-width:0.8;"/>
   </g>
   <g id="patch_5">
    <path d="M 108 448.56 
L 643.68 448.56 
" style="fill:none;stroke:#000000;stroke-linecap:square;stroke-linejoin:miter;stroke-width:0.8;"/>
   </g>
   <g id="patch_6">
    <path d="M 108 60.48 
L 643.68 60.48 
" style="fill:none;stroke:#000000;stroke-linecap:square;stroke-linejoin:miter;stroke-width:0.8;"/>
   </g>
   <g id="text_33">
    <!-- unikernel_falloc - vmstat -->
    <g transform="translate(283.693125 54.48)scale(0.15 -0.15)">
     <defs>
      <path d="M 8.5 21.578125 
L 8.5 54.6875 
L 17.484375 54.6875 
L 17.484375 21.921875 
Q 17.484375 14.15625 20.5 10.265625 
Q 23.53125 6.390625 29.59375 6.390625 
Q 36.859375 6.390625 41.078125 11.03125 
Q 45.3125 15.671875 45.3125 23.6875 
L 45.3125 54.6875 
L 54.296875 54.6875 
L 54.296875 0 
L 45.3125 0 
L 45.3125 8.40625 
Q 42.046875 3.421875 37.71875 1 
Q 33.40625 -1.421875 27.6875 -1.421875 
Q 18.265625 -1.421875 13.375 4.4375 
Q 8.5 10.296875 8.5 21.578125 
z
M 31.109375 56 
z
" id="DejaVuSans-117"/>
      <path d="M 54.890625 33.015625 
L 54.890625 0 
L 45.90625 0 
L 45.90625 32.71875 
Q 45.90625 40.484375 42.875 44.328125 
Q 39.84375 48.1875 33.796875 48.1875 
Q 26.515625 48.1875 22.3125 43.546875 
Q 18.109375 38.921875 18.109375 30.90625 
L 18.109375 0 
L 9.078125 0 
L 9.078125 54.6875 
L 18.109375 54.6875 
L 18.109375 46.1875 
Q 21.34375 51.125 25.703125 53.5625 
Q 30.078125 56 35.796875 56 
Q 45.21875 56 50.046875 50.171875 
Q 54.890625 44.34375 54.890625 33.015625 
z
" id="DejaVuSans-110"/>
      <path d="M 9.078125 75.984375 
L 18.109375 75.984375 
L 18.109375 31.109375 
L 44.921875 54.6875 
L 56.390625 54.6875 
L 27.390625 29.109375 
L 57.625 0 
L 45.90625 0 
L 18.109375 26.703125 
L 18.109375 0 
L 9.078125 0 
z
" id="DejaVuSans-107"/>
      <path d="M 41.109375 46.296875 
Q 39.59375 47.171875 37.8125 47.578125 
Q 36.03125 48 33.890625 48 
Q 26.265625 48 22.1875 43.046875 
Q 18.109375 38.09375 18.109375 28.8125 
L 18.109375 0 
L 9.078125 0 
L 9.078125 54.6875 
L 18.109375 54.6875 
L 18.109375 46.1875 
Q 20.953125 51.171875 25.484375 53.578125 
Q 30.03125 56 36.53125 56 
Q 37.453125 56 38.578125 55.875 
Q 39.703125 55.765625 41.0625 55.515625 
z
" id="DejaVuSans-114"/>
      <path d="M 9.421875 75.984375 
L 18.40625 75.984375 
L 18.40625 0 
L 9.421875 0 
z
" id="DejaVuSans-108"/>
      <path d="M 50.984375 -16.609375 
L 50.984375 -23.578125 
L -0.984375 -23.578125 
L -0.984375 -16.609375 
z
" id="DejaVuSans-95"/>
      <path d="M 37.109375 75.984375 
L 37.109375 68.5 
L 28.515625 68.5 
Q 23.6875 68.5 21.796875 66.546875 
Q 19.921875 64.59375 19.921875 59.515625 
L 19.921875 54.6875 
L 34.71875 54.6875 
L 34.71875 47.703125 
L 19.921875 47.703125 
L 19.921875 0 
L 10.890625 0 
L 10.890625 47.703125 
L 2.296875 47.703125 
L 2.296875 54.6875 
L 10.890625 54.6875 
L 10.890625 58.5 
Q 10.890625 67.625 15.140625 71.796875 
Q 19.390625 75.984375 28.609375 75.984375 
z
" id="DejaVuSans-102"/>
      <path d="M 30.609375 48.390625 
Q 23.390625 48.390625 19.1875 42.75 
Q 14.984375 37.109375 14.984375 27.296875 
Q 14.984375 17.484375 19.15625 11.84375 
Q 23.34375 6.203125 30.609375 6.203125 
Q 37.796875 6.203125 41.984375 11.859375 
Q 46.1875 17.53125 46.1875 27.296875 
Q 46.1875 37.015625 41.984375 42.703125 
Q 37.796875 48.390625 30.609375 48.390625 
z
M 30.609375 56 
Q 42.328125 56 49.015625 48.375 
Q 55.71875 40.765625 55.71875 27.296875 
Q 55.71875 13.875 49.015625 6.21875 
Q 42.328125 -1.421875 30.609375 -1.421875 
Q 18.84375 -1.421875 12.171875 6.21875 
Q 5.515625 13.875 5.515625 27.296875 
Q 5.515625 40.765625 12.171875 48.375 
Q 18.84375 56 30.609375 56 
z
" id="DejaVuSans-111"/>
      <path d="M 48.78125 52.59375 
L 48.78125 44.1875 
Q 44.96875 46.296875 41.140625 47.34375 
Q 37.3125 48.390625 33.40625 48.390625 
Q 24.65625 48.390625 19.8125 42.84375 
Q 14.984375 37.3125 14.984375 27.296875 
Q 14.984375 17.28125 19.8125 11.734375 
Q 24.65625 6.203125 33.40625 6.203125 
Q 37.3125 6.203125 41.140625 7.25 
Q 44.96875 8.296875 48.78125 10.40625 
L 48.78125 2.09375 
Q 45.015625 0.34375 40.984375 -0.53125 
Q 36.96875 -1.421875 32.421875 -1.421875 
Q 20.0625 -1.421875 12.78125 6.34375 
Q 5.515625 14.109375 5.515625 27.296875 
Q 5.515625 40.671875 12.859375 48.328125 
Q 20.21875 56 33.015625 56 
Q 37.15625 56 41.109375 55.140625 
Q 45.0625 54.296875 48.78125 52.59375 
z
" id="DejaVuSans-99"/>
      <path id="DejaVuSans-32"/>
      <path d="M 4.890625 31.390625 
L 31.203125 31.390625 
L 31.203125 23.390625 
L 4.890625 23.390625 
z
" id="DejaVuSans-45"/>
      <path d="M 2.984375 54.6875 
L 12.5 54.6875 
L 29.59375 8.796875 
L 46.6875 54.6875 
L 56.203125 54.6875 
L 35.6875 0 
L 23.484375 0 
z
" id="DejaVuSans-118"/>
     </defs>
     <use xlink:href="#DejaVuSans-117"/>
     <use x="63.378906" xlink:href="#DejaVuSans-110"/>
     <use x="126.757812" xlink:href="#DejaVuSans-105"/>
     <use x="154.541016" xlink:href="#DejaVuSans-107"/>
     <use x="208.826172" xlink:href="#DejaVuSans-101"/>
     <use x="270.349609" xlink:href="#DejaVuSans-114"/>
     <use x="309.712891" xlink:href="#DejaVuSans-110"/>
     <use x="373.091797" xlink:href="#DejaVuSans-101"/>
     <use x="434.615234" xlink:href="#DejaVuSans-108"/>
     <use x="462.398438" xlink:href="#DejaVuSans-95"/>
     <use x="512.398438" xlink:href="#DejaVuSans-102"/>
     <use x="547.603516" xlink:href="#DejaVuSans-97"/>
     <use x="608.882812" xlink:href="#DejaVuSans-108"/>
     <use x="636.666016" xlink:href="#DejaVuSans-108"/>
     <use x="664.449219" xlink:href="#DejaVuSans-111"/>
     <use x="725.630859" xlink:href="#DejaVuSans-99"/>
     <use x="780.611328" xlink:href="#DejaVuSans-32"/>
     <use x="812.398438" xlink:href="#DejaVuSans-45"/>
     <use x="848.482422" xlink:href="#DejaVuSans-32"/>
     <use x="880.269531" xlink:href="#DejaVuSans-118"/>
     <use x="939.449219" xlink:href="#DejaVuSans-109"/>
     <use x="1036.861328" xlink:href="#DejaVuSans-115"/>
     <use x="1088.960938" xlink:href="#DejaVuSans-116"/>
     <use x="1128.169922" xlink:href="#DejaVuSans-97"/>
     <use x="1189.449219" xlink:href="#DejaVuSans-116"/>
    </g>
   </g>
   <g id="legend_1">
    <g id="patch_7">
     <path d="M 650.68 258.52 
L 654.68 258.52 
Q 656.68 258.52 656.68 256.52 
L 656.68 252.52 
Q 656.68 250.52 654.68 250.52 
L 650.68 250.52 
Q 648.68 250.52 648.68 252.52 
L 648.68 256.52 
Q 648.68 258.52 650.68 258.52 
z
" style="fill:#ffffff;opacity:0.8;stroke:#cccccc;stroke-linejoin:miter;"/>
    </g>
   </g>
  </g>
 </g>
 <defs>
  <clipPath id="p256ddc447d">
   <rect height="388.08" width="535.68" x="108" y="60.48"/>
  </clipPath>
 </defs>
</svg>
