<?xml version="1.0" encoding="utf-8" standalone="no"?>
<!DOCTYPE svg PUBLIC "-//W3C//DTD SVG 1.1//EN"
  "http://www.w3.org/Graphics/SVG/1.1/DTD/svg11.dtd">
<!-- Created with matplotlib (https://matplotlib.org/) -->
<svg height="504pt" version="1.1" viewBox="0 0 864 504" width="864pt" xmlns="http://www.w3.org/2000/svg" xmlns:xlink="http://www.w3.org/1999/xlink">
 <metadata>
  <rdf:RDF xmlns:cc="http://creativecommons.org/ns#" xmlns:dc="http://purl.org/dc/elements/1.1/" xmlns:rdf="http://www.w3.org/1999/02/22-rdf-syntax-ns#">
   <cc:Work>
    <dc:type rdf:resource="http://purl.org/dc/dcmitype/StillImage"/>
    <dc:date>2022-05-29T16:57:16.537550</dc:date>
    <dc:format>image/svg+xml</dc:format>
    <dc:creator>
     <cc:Agent>
      <dc:title>Matplotlib v3.3.4, https://matplotlib.org/</dc:title>
     </cc:Agent>
    </dc:creator>
   </cc:Work>
  </rdf:RDF>
 </metadata>
 <defs>
  <style type="text/css">*{stroke-linecap:butt;stroke-linejoin:round;}</style>
 </defs>
 <g id="figure_1">
  <g id="patch_1">
   <path d="M 0 504 
L 864 504 
L 864 0 
L 0 0 
z
" style="fill:#ffffff;"/>
  </g>
  <g id="axes_1">
   <g id="patch_2">
    <path d="M 108 448.56 
L 643.68 448.56 
L 643.68 60.48 
L 108 60.48 
z
" style="fill:#ffffff;"/>
   </g>
   <g id="matplotlib.axis_1">
    <g id="xtick_1">
     <g id="line2d_1">
      <defs>
       <path d="M 0 0 
L 0 3.5 
" id="m2092ee43c3" style="stroke:#000000;stroke-width:0.8;"/>
      </defs>
      <g>
       <use style="stroke:#000000;stroke-width:0.8;" x="132.349091" xlink:href="#m2092ee43c3" y="448.56"/>
      </g>
     </g>
     <g id="text_1">
      <!-- 19:14:31 -->
      <g transform="translate(135.108466 500.4725)rotate(-90)scale(0.1 -0.1)">
       <defs>
        <path d="M 12.40625 8.296875 
L 28.515625 8.296875 
L 28.515625 63.921875 
L 10.984375 60.40625 
L 10.984375 69.390625 
L 28.421875 72.90625 
L 38.28125 72.90625 
L 38.28125 8.296875 
L 54.390625 8.296875 
L 54.390625 0 
L 12.40625 0 
z
" id="DejaVuSans-49"/>
        <path d="M 10.984375 1.515625 
L 10.984375 10.5 
Q 14.703125 8.734375 18.5 7.8125 
Q 22.3125 6.890625 25.984375 6.890625 
Q 35.75 6.890625 40.890625 13.453125 
Q 46.046875 20.015625 46.78125 33.40625 
Q 43.953125 29.203125 39.59375 26.953125 
Q 35.25 24.703125 29.984375 24.703125 
Q 19.046875 24.703125 12.671875 31.3125 
Q 6.296875 37.9375 6.296875 49.421875 
Q 6.296875 60.640625 12.9375 67.421875 
Q 19.578125 74.21875 30.609375 74.21875 
Q 43.265625 74.21875 49.921875 64.515625 
Q 56.59375 54.828125 56.59375 36.375 
Q 56.59375 19.140625 48.40625 8.859375 
Q 40.234375 -1.421875 26.421875 -1.421875 
Q 22.703125 -1.421875 18.890625 -0.6875 
Q 15.09375 0.046875 10.984375 1.515625 
z
M 30.609375 32.421875 
Q 37.25 32.421875 41.125 36.953125 
Q 45.015625 41.5 45.015625 49.421875 
Q 45.015625 57.28125 41.125 61.84375 
Q 37.25 66.40625 30.609375 66.40625 
Q 23.96875 66.40625 20.09375 61.84375 
Q 16.21875 57.28125 16.21875 49.421875 
Q 16.21875 41.5 20.09375 36.953125 
Q 23.96875 32.421875 30.609375 32.421875 
z
" id="DejaVuSans-57"/>
        <path d="M 11.71875 12.40625 
L 22.015625 12.40625 
L 22.015625 0 
L 11.71875 0 
z
M 11.71875 51.703125 
L 22.015625 51.703125 
L 22.015625 39.3125 
L 11.71875 39.3125 
z
" id="DejaVuSans-58"/>
        <path d="M 37.796875 64.3125 
L 12.890625 25.390625 
L 37.796875 25.390625 
z
M 35.203125 72.90625 
L 47.609375 72.90625 
L 47.609375 25.390625 
L 58.015625 25.390625 
L 58.015625 17.1875 
L 47.609375 17.1875 
L 47.609375 0 
L 37.796875 0 
L 37.796875 17.1875 
L 4.890625 17.1875 
L 4.890625 26.703125 
z
" id="DejaVuSans-52"/>
        <path d="M 40.578125 39.3125 
Q 47.65625 37.796875 51.625 33 
Q 55.609375 28.21875 55.609375 21.1875 
Q 55.609375 10.40625 48.1875 4.484375 
Q 40.765625 -1.421875 27.09375 -1.421875 
Q 22.515625 -1.421875 17.65625 -0.515625 
Q 12.796875 0.390625 7.625 2.203125 
L 7.625 11.71875 
Q 11.71875 9.328125 16.59375 8.109375 
Q 21.484375 6.890625 26.8125 6.890625 
Q 36.078125 6.890625 40.9375 10.546875 
Q 45.796875 14.203125 45.796875 21.1875 
Q 45.796875 27.640625 41.28125 31.265625 
Q 36.765625 34.90625 28.71875 34.90625 
L 20.21875 34.90625 
L 20.21875 43.015625 
L 29.109375 43.015625 
Q 36.375 43.015625 40.234375 45.921875 
Q 44.09375 48.828125 44.09375 54.296875 
Q 44.09375 59.90625 40.109375 62.90625 
Q 36.140625 65.921875 28.71875 65.921875 
Q 24.65625 65.921875 20.015625 65.03125 
Q 15.375 64.15625 9.8125 62.3125 
L 9.8125 71.09375 
Q 15.4375 72.65625 20.34375 73.4375 
Q 25.25 74.21875 29.59375 74.21875 
Q 40.828125 74.21875 47.359375 69.109375 
Q 53.90625 64.015625 53.90625 55.328125 
Q 53.90625 49.265625 50.4375 45.09375 
Q 46.96875 40.921875 40.578125 39.3125 
z
" id="DejaVuSans-51"/>
       </defs>
       <use xlink:href="#DejaVuSans-49"/>
       <use x="63.623047" xlink:href="#DejaVuSans-57"/>
       <use x="127.246094" xlink:href="#DejaVuSans-58"/>
       <use x="160.9375" xlink:href="#DejaVuSans-49"/>
       <use x="224.560547" xlink:href="#DejaVuSans-52"/>
       <use x="288.183594" xlink:href="#DejaVuSans-58"/>
       <use x="321.875" xlink:href="#DejaVuSans-51"/>
       <use x="385.498047" xlink:href="#DejaVuSans-49"/>
      </g>
     </g>
    </g>
    <g id="xtick_2">
     <g id="line2d_2">
      <g>
       <use style="stroke:#000000;stroke-width:0.8;" x="156.518199" xlink:href="#m2092ee43c3" y="448.56"/>
      </g>
     </g>
     <g id="text_2">
      <!-- 19:16:23 -->
      <g transform="translate(159.277574 500.4725)rotate(-90)scale(0.1 -0.1)">
       <defs>
        <path d="M 33.015625 40.375 
Q 26.375 40.375 22.484375 35.828125 
Q 18.609375 31.296875 18.609375 23.390625 
Q 18.609375 15.53125 22.484375 10.953125 
Q 26.375 6.390625 33.015625 6.390625 
Q 39.65625 6.390625 43.53125 10.953125 
Q 47.40625 15.53125 47.40625 23.390625 
Q 47.40625 31.296875 43.53125 35.828125 
Q 39.65625 40.375 33.015625 40.375 
z
M 52.59375 71.296875 
L 52.59375 62.3125 
Q 48.875 64.0625 45.09375 64.984375 
Q 41.3125 65.921875 37.59375 65.921875 
Q 27.828125 65.921875 22.671875 59.328125 
Q 17.53125 52.734375 16.796875 39.40625 
Q 19.671875 43.65625 24.015625 45.921875 
Q 28.375 48.1875 33.59375 48.1875 
Q 44.578125 48.1875 50.953125 41.515625 
Q 57.328125 34.859375 57.328125 23.390625 
Q 57.328125 12.15625 50.6875 5.359375 
Q 44.046875 -1.421875 33.015625 -1.421875 
Q 20.359375 -1.421875 13.671875 8.265625 
Q 6.984375 17.96875 6.984375 36.375 
Q 6.984375 53.65625 15.1875 63.9375 
Q 23.390625 74.21875 37.203125 74.21875 
Q 40.921875 74.21875 44.703125 73.484375 
Q 48.484375 72.75 52.59375 71.296875 
z
" id="DejaVuSans-54"/>
        <path d="M 19.1875 8.296875 
L 53.609375 8.296875 
L 53.609375 0 
L 7.328125 0 
L 7.328125 8.296875 
Q 12.9375 14.109375 22.625 23.890625 
Q 32.328125 33.6875 34.8125 36.53125 
Q 39.546875 41.84375 41.421875 45.53125 
Q 43.3125 49.21875 43.3125 52.78125 
Q 43.3125 58.59375 39.234375 62.25 
Q 35.15625 65.921875 28.609375 65.921875 
Q 23.96875 65.921875 18.8125 64.3125 
Q 13.671875 62.703125 7.8125 59.421875 
L 7.8125 69.390625 
Q 13.765625 71.78125 18.9375 73 
Q 24.125 74.21875 28.421875 74.21875 
Q 39.75 74.21875 46.484375 68.546875 
Q 53.21875 62.890625 53.21875 53.421875 
Q 53.21875 48.921875 51.53125 44.890625 
Q 49.859375 40.875 45.40625 35.40625 
Q 44.1875 33.984375 37.640625 27.21875 
Q 31.109375 20.453125 19.1875 8.296875 
z
" id="DejaVuSans-50"/>
       </defs>
       <use xlink:href="#DejaVuSans-49"/>
       <use x="63.623047" xlink:href="#DejaVuSans-57"/>
       <use x="127.246094" xlink:href="#DejaVuSans-58"/>
       <use x="160.9375" xlink:href="#DejaVuSans-49"/>
       <use x="224.560547" xlink:href="#DejaVuSans-54"/>
       <use x="288.183594" xlink:href="#DejaVuSans-58"/>
       <use x="321.875" xlink:href="#DejaVuSans-50"/>
       <use x="385.498047" xlink:href="#DejaVuSans-51"/>
      </g>
     </g>
    </g>
    <g id="xtick_3">
     <g id="line2d_3">
      <g>
       <use style="stroke:#000000;stroke-width:0.8;" x="180.687307" xlink:href="#m2092ee43c3" y="448.56"/>
      </g>
     </g>
     <g id="text_3">
      <!-- 19:18:16 -->
      <g transform="translate(183.446682 500.4725)rotate(-90)scale(0.1 -0.1)">
       <defs>
        <path d="M 31.78125 34.625 
Q 24.75 34.625 20.71875 30.859375 
Q 16.703125 27.09375 16.703125 20.515625 
Q 16.703125 13.921875 20.71875 10.15625 
Q 24.75 6.390625 31.78125 6.390625 
Q 38.8125 6.390625 42.859375 10.171875 
Q 46.921875 13.96875 46.921875 20.515625 
Q 46.921875 27.09375 42.890625 30.859375 
Q 38.875 34.625 31.78125 34.625 
z
M 21.921875 38.8125 
Q 15.578125 40.375 12.03125 44.71875 
Q 8.5 49.078125 8.5 55.328125 
Q 8.5 64.0625 14.71875 69.140625 
Q 20.953125 74.21875 31.78125 74.21875 
Q 42.671875 74.21875 48.875 69.140625 
Q 55.078125 64.0625 55.078125 55.328125 
Q 55.078125 49.078125 51.53125 44.71875 
Q 48 40.375 41.703125 38.8125 
Q 48.828125 37.15625 52.796875 32.3125 
Q 56.78125 27.484375 56.78125 20.515625 
Q 56.78125 9.90625 50.3125 4.234375 
Q 43.84375 -1.421875 31.78125 -1.421875 
Q 19.734375 -1.421875 13.25 4.234375 
Q 6.78125 9.90625 6.78125 20.515625 
Q 6.78125 27.484375 10.78125 32.3125 
Q 14.796875 37.15625 21.921875 38.8125 
z
M 18.3125 54.390625 
Q 18.3125 48.734375 21.84375 45.5625 
Q 25.390625 42.390625 31.78125 42.390625 
Q 38.140625 42.390625 41.71875 45.5625 
Q 45.3125 48.734375 45.3125 54.390625 
Q 45.3125 60.0625 41.71875 63.234375 
Q 38.140625 66.40625 31.78125 66.40625 
Q 25.390625 66.40625 21.84375 63.234375 
Q 18.3125 60.0625 18.3125 54.390625 
z
" id="DejaVuSans-56"/>
       </defs>
       <use xlink:href="#DejaVuSans-49"/>
       <use x="63.623047" xlink:href="#DejaVuSans-57"/>
       <use x="127.246094" xlink:href="#DejaVuSans-58"/>
       <use x="160.9375" xlink:href="#DejaVuSans-49"/>
       <use x="224.560547" xlink:href="#DejaVuSans-56"/>
       <use x="288.183594" xlink:href="#DejaVuSans-58"/>
       <use x="321.875" xlink:href="#DejaVuSans-49"/>
       <use x="385.498047" xlink:href="#DejaVuSans-54"/>
      </g>
     </g>
    </g>
    <g id="xtick_4">
     <g id="line2d_4">
      <g>
       <use style="stroke:#000000;stroke-width:0.8;" x="204.856415" xlink:href="#m2092ee43c3" y="448.56"/>
      </g>
     </g>
     <g id="text_4">
      <!-- 19:20:08 -->
      <g transform="translate(207.61579 500.4725)rotate(-90)scale(0.1 -0.1)">
       <defs>
        <path d="M 31.78125 66.40625 
Q 24.171875 66.40625 20.328125 58.90625 
Q 16.5 51.421875 16.5 36.375 
Q 16.5 21.390625 20.328125 13.890625 
Q 24.171875 6.390625 31.78125 6.390625 
Q 39.453125 6.390625 43.28125 13.890625 
Q 47.125 21.390625 47.125 36.375 
Q 47.125 51.421875 43.28125 58.90625 
Q 39.453125 66.40625 31.78125 66.40625 
z
M 31.78125 74.21875 
Q 44.046875 74.21875 50.515625 64.515625 
Q 56.984375 54.828125 56.984375 36.375 
Q 56.984375 17.96875 50.515625 8.265625 
Q 44.046875 -1.421875 31.78125 -1.421875 
Q 19.53125 -1.421875 13.0625 8.265625 
Q 6.59375 17.96875 6.59375 36.375 
Q 6.59375 54.828125 13.0625 64.515625 
Q 19.53125 74.21875 31.78125 74.21875 
z
" id="DejaVuSans-48"/>
       </defs>
       <use xlink:href="#DejaVuSans-49"/>
       <use x="63.623047" xlink:href="#DejaVuSans-57"/>
       <use x="127.246094" xlink:href="#DejaVuSans-58"/>
       <use x="160.9375" xlink:href="#DejaVuSans-50"/>
       <use x="224.560547" xlink:href="#DejaVuSans-48"/>
       <use x="288.183594" xlink:href="#DejaVuSans-58"/>
       <use x="321.875" xlink:href="#DejaVuSans-48"/>
       <use x="385.498047" xlink:href="#DejaVuSans-56"/>
      </g>
     </g>
    </g>
    <g id="xtick_5">
     <g id="line2d_5">
      <g>
       <use style="stroke:#000000;stroke-width:0.8;" x="229.025524" xlink:href="#m2092ee43c3" y="448.56"/>
      </g>
     </g>
     <g id="text_5">
      <!-- 19:22:00 -->
      <g transform="translate(231.784899 500.4725)rotate(-90)scale(0.1 -0.1)">
       <use xlink:href="#DejaVuSans-49"/>
       <use x="63.623047" xlink:href="#DejaVuSans-57"/>
       <use x="127.246094" xlink:href="#DejaVuSans-58"/>
       <use x="160.9375" xlink:href="#DejaVuSans-50"/>
       <use x="224.560547" xlink:href="#DejaVuSans-50"/>
       <use x="288.183594" xlink:href="#DejaVuSans-58"/>
       <use x="321.875" xlink:href="#DejaVuSans-48"/>
       <use x="385.498047" xlink:href="#DejaVuSans-48"/>
      </g>
     </g>
    </g>
    <g id="xtick_6">
     <g id="line2d_6">
      <g>
       <use style="stroke:#000000;stroke-width:0.8;" x="253.194632" xlink:href="#m2092ee43c3" y="448.56"/>
      </g>
     </g>
     <g id="text_6">
      <!-- 19:23:53 -->
      <g transform="translate(255.954007 500.4725)rotate(-90)scale(0.1 -0.1)">
       <defs>
        <path d="M 10.796875 72.90625 
L 49.515625 72.90625 
L 49.515625 64.59375 
L 19.828125 64.59375 
L 19.828125 46.734375 
Q 21.96875 47.46875 24.109375 47.828125 
Q 26.265625 48.1875 28.421875 48.1875 
Q 40.625 48.1875 47.75 41.5 
Q 54.890625 34.8125 54.890625 23.390625 
Q 54.890625 11.625 47.5625 5.09375 
Q 40.234375 -1.421875 26.90625 -1.421875 
Q 22.3125 -1.421875 17.546875 -0.640625 
Q 12.796875 0.140625 7.71875 1.703125 
L 7.71875 11.625 
Q 12.109375 9.234375 16.796875 8.0625 
Q 21.484375 6.890625 26.703125 6.890625 
Q 35.15625 6.890625 40.078125 11.328125 
Q 45.015625 15.765625 45.015625 23.390625 
Q 45.015625 31 40.078125 35.4375 
Q 35.15625 39.890625 26.703125 39.890625 
Q 22.75 39.890625 18.8125 39.015625 
Q 14.890625 38.140625 10.796875 36.28125 
z
" id="DejaVuSans-53"/>
       </defs>
       <use xlink:href="#DejaVuSans-49"/>
       <use x="63.623047" xlink:href="#DejaVuSans-57"/>
       <use x="127.246094" xlink:href="#DejaVuSans-58"/>
       <use x="160.9375" xlink:href="#DejaVuSans-50"/>
       <use x="224.560547" xlink:href="#DejaVuSans-51"/>
       <use x="288.183594" xlink:href="#DejaVuSans-58"/>
       <use x="321.875" xlink:href="#DejaVuSans-53"/>
       <use x="385.498047" xlink:href="#DejaVuSans-51"/>
      </g>
     </g>
    </g>
    <g id="xtick_7">
     <g id="line2d_7">
      <g>
       <use style="stroke:#000000;stroke-width:0.8;" x="277.36374" xlink:href="#m2092ee43c3" y="448.56"/>
      </g>
     </g>
     <g id="text_7">
      <!-- 19:25:45 -->
      <g transform="translate(280.123115 500.4725)rotate(-90)scale(0.1 -0.1)">
       <use xlink:href="#DejaVuSans-49"/>
       <use x="63.623047" xlink:href="#DejaVuSans-57"/>
       <use x="127.246094" xlink:href="#DejaVuSans-58"/>
       <use x="160.9375" xlink:href="#DejaVuSans-50"/>
       <use x="224.560547" xlink:href="#DejaVuSans-53"/>
       <use x="288.183594" xlink:href="#DejaVuSans-58"/>
       <use x="321.875" xlink:href="#DejaVuSans-52"/>
       <use x="385.498047" xlink:href="#DejaVuSans-53"/>
      </g>
     </g>
    </g>
    <g id="xtick_8">
     <g id="line2d_8">
      <g>
       <use style="stroke:#000000;stroke-width:0.8;" x="301.532848" xlink:href="#m2092ee43c3" y="448.56"/>
      </g>
     </g>
     <g id="text_8">
      <!-- 19:27:38 -->
      <g transform="translate(304.292223 500.4725)rotate(-90)scale(0.1 -0.1)">
       <defs>
        <path d="M 8.203125 72.90625 
L 55.078125 72.90625 
L 55.078125 68.703125 
L 28.609375 0 
L 18.3125 0 
L 43.21875 64.59375 
L 8.203125 64.59375 
z
" id="DejaVuSans-55"/>
       </defs>
       <use xlink:href="#DejaVuSans-49"/>
       <use x="63.623047" xlink:href="#DejaVuSans-57"/>
       <use x="127.246094" xlink:href="#DejaVuSans-58"/>
       <use x="160.9375" xlink:href="#DejaVuSans-50"/>
       <use x="224.560547" xlink:href="#DejaVuSans-55"/>
       <use x="288.183594" xlink:href="#DejaVuSans-58"/>
       <use x="321.875" xlink:href="#DejaVuSans-51"/>
       <use x="385.498047" xlink:href="#DejaVuSans-56"/>
      </g>
     </g>
    </g>
    <g id="xtick_9">
     <g id="line2d_9">
      <g>
       <use style="stroke:#000000;stroke-width:0.8;" x="325.701956" xlink:href="#m2092ee43c3" y="448.56"/>
      </g>
     </g>
     <g id="text_9">
      <!-- 19:29:31 -->
      <g transform="translate(328.461331 500.4725)rotate(-90)scale(0.1 -0.1)">
       <use xlink:href="#DejaVuSans-49"/>
       <use x="63.623047" xlink:href="#DejaVuSans-57"/>
       <use x="127.246094" xlink:href="#DejaVuSans-58"/>
       <use x="160.9375" xlink:href="#DejaVuSans-50"/>
       <use x="224.560547" xlink:href="#DejaVuSans-57"/>
       <use x="288.183594" xlink:href="#DejaVuSans-58"/>
       <use x="321.875" xlink:href="#DejaVuSans-51"/>
       <use x="385.498047" xlink:href="#DejaVuSans-49"/>
      </g>
     </g>
    </g>
    <g id="xtick_10">
     <g id="line2d_10">
      <g>
       <use style="stroke:#000000;stroke-width:0.8;" x="349.871065" xlink:href="#m2092ee43c3" y="448.56"/>
      </g>
     </g>
     <g id="text_10">
      <!-- 19:31:23 -->
      <g transform="translate(352.63044 500.4725)rotate(-90)scale(0.1 -0.1)">
       <use xlink:href="#DejaVuSans-49"/>
       <use x="63.623047" xlink:href="#DejaVuSans-57"/>
       <use x="127.246094" xlink:href="#DejaVuSans-58"/>
       <use x="160.9375" xlink:href="#DejaVuSans-51"/>
       <use x="224.560547" xlink:href="#DejaVuSans-49"/>
       <use x="288.183594" xlink:href="#DejaVuSans-58"/>
       <use x="321.875" xlink:href="#DejaVuSans-50"/>
       <use x="385.498047" xlink:href="#DejaVuSans-51"/>
      </g>
     </g>
    </g>
    <g id="xtick_11">
     <g id="line2d_11">
      <g>
       <use style="stroke:#000000;stroke-width:0.8;" x="374.040173" xlink:href="#m2092ee43c3" y="448.56"/>
      </g>
     </g>
     <g id="text_11">
      <!-- 19:33:16 -->
      <g transform="translate(376.799548 500.4725)rotate(-90)scale(0.1 -0.1)">
       <use xlink:href="#DejaVuSans-49"/>
       <use x="63.623047" xlink:href="#DejaVuSans-57"/>
       <use x="127.246094" xlink:href="#DejaVuSans-58"/>
       <use x="160.9375" xlink:href="#DejaVuSans-51"/>
       <use x="224.560547" xlink:href="#DejaVuSans-51"/>
       <use x="288.183594" xlink:href="#DejaVuSans-58"/>
       <use x="321.875" xlink:href="#DejaVuSans-49"/>
       <use x="385.498047" xlink:href="#DejaVuSans-54"/>
      </g>
     </g>
    </g>
    <g id="xtick_12">
     <g id="line2d_12">
      <g>
       <use style="stroke:#000000;stroke-width:0.8;" x="398.209281" xlink:href="#m2092ee43c3" y="448.56"/>
      </g>
     </g>
     <g id="text_12">
      <!-- 19:35:09 -->
      <g transform="translate(400.968656 500.4725)rotate(-90)scale(0.1 -0.1)">
       <use xlink:href="#DejaVuSans-49"/>
       <use x="63.623047" xlink:href="#DejaVuSans-57"/>
       <use x="127.246094" xlink:href="#DejaVuSans-58"/>
       <use x="160.9375" xlink:href="#DejaVuSans-51"/>
       <use x="224.560547" xlink:href="#DejaVuSans-53"/>
       <use x="288.183594" xlink:href="#DejaVuSans-58"/>
       <use x="321.875" xlink:href="#DejaVuSans-48"/>
       <use x="385.498047" xlink:href="#DejaVuSans-57"/>
      </g>
     </g>
    </g>
    <g id="xtick_13">
     <g id="line2d_13">
      <g>
       <use style="stroke:#000000;stroke-width:0.8;" x="422.378389" xlink:href="#m2092ee43c3" y="448.56"/>
      </g>
     </g>
     <g id="text_13">
      <!-- 19:37:02 -->
      <g transform="translate(425.137764 500.4725)rotate(-90)scale(0.1 -0.1)">
       <use xlink:href="#DejaVuSans-49"/>
       <use x="63.623047" xlink:href="#DejaVuSans-57"/>
       <use x="127.246094" xlink:href="#DejaVuSans-58"/>
       <use x="160.9375" xlink:href="#DejaVuSans-51"/>
       <use x="224.560547" xlink:href="#DejaVuSans-55"/>
       <use x="288.183594" xlink:href="#DejaVuSans-58"/>
       <use x="321.875" xlink:href="#DejaVuSans-48"/>
       <use x="385.498047" xlink:href="#DejaVuSans-50"/>
      </g>
     </g>
    </g>
    <g id="xtick_14">
     <g id="line2d_14">
      <g>
       <use style="stroke:#000000;stroke-width:0.8;" x="446.547497" xlink:href="#m2092ee43c3" y="448.56"/>
      </g>
     </g>
     <g id="text_14">
      <!-- 19:38:55 -->
      <g transform="translate(449.306872 500.4725)rotate(-90)scale(0.1 -0.1)">
       <use xlink:href="#DejaVuSans-49"/>
       <use x="63.623047" xlink:href="#DejaVuSans-57"/>
       <use x="127.246094" xlink:href="#DejaVuSans-58"/>
       <use x="160.9375" xlink:href="#DejaVuSans-51"/>
       <use x="224.560547" xlink:href="#DejaVuSans-56"/>
       <use x="288.183594" xlink:href="#DejaVuSans-58"/>
       <use x="321.875" xlink:href="#DejaVuSans-53"/>
       <use x="385.498047" xlink:href="#DejaVuSans-53"/>
      </g>
     </g>
    </g>
    <g id="xtick_15">
     <g id="line2d_15">
      <g>
       <use style="stroke:#000000;stroke-width:0.8;" x="470.716606" xlink:href="#m2092ee43c3" y="448.56"/>
      </g>
     </g>
     <g id="text_15">
      <!-- 19:40:48 -->
      <g transform="translate(473.475981 500.4725)rotate(-90)scale(0.1 -0.1)">
       <use xlink:href="#DejaVuSans-49"/>
       <use x="63.623047" xlink:href="#DejaVuSans-57"/>
       <use x="127.246094" xlink:href="#DejaVuSans-58"/>
       <use x="160.9375" xlink:href="#DejaVuSans-52"/>
       <use x="224.560547" xlink:href="#DejaVuSans-48"/>
       <use x="288.183594" xlink:href="#DejaVuSans-58"/>
       <use x="321.875" xlink:href="#DejaVuSans-52"/>
       <use x="385.498047" xlink:href="#DejaVuSans-56"/>
      </g>
     </g>
    </g>
    <g id="xtick_16">
     <g id="line2d_16">
      <g>
       <use style="stroke:#000000;stroke-width:0.8;" x="494.885714" xlink:href="#m2092ee43c3" y="448.56"/>
      </g>
     </g>
     <g id="text_16">
      <!-- 19:42:41 -->
      <g transform="translate(497.645089 500.4725)rotate(-90)scale(0.1 -0.1)">
       <use xlink:href="#DejaVuSans-49"/>
       <use x="63.623047" xlink:href="#DejaVuSans-57"/>
       <use x="127.246094" xlink:href="#DejaVuSans-58"/>
       <use x="160.9375" xlink:href="#DejaVuSans-52"/>
       <use x="224.560547" xlink:href="#DejaVuSans-50"/>
       <use x="288.183594" xlink:href="#DejaVuSans-58"/>
       <use x="321.875" xlink:href="#DejaVuSans-52"/>
       <use x="385.498047" xlink:href="#DejaVuSans-49"/>
      </g>
     </g>
    </g>
    <g id="xtick_17">
     <g id="line2d_17">
      <g>
       <use style="stroke:#000000;stroke-width:0.8;" x="519.054822" xlink:href="#m2092ee43c3" y="448.56"/>
      </g>
     </g>
     <g id="text_17">
      <!-- 19:44:33 -->
      <g transform="translate(521.814197 500.4725)rotate(-90)scale(0.1 -0.1)">
       <use xlink:href="#DejaVuSans-49"/>
       <use x="63.623047" xlink:href="#DejaVuSans-57"/>
       <use x="127.246094" xlink:href="#DejaVuSans-58"/>
       <use x="160.9375" xlink:href="#DejaVuSans-52"/>
       <use x="224.560547" xlink:href="#DejaVuSans-52"/>
       <use x="288.183594" xlink:href="#DejaVuSans-58"/>
       <use x="321.875" xlink:href="#DejaVuSans-51"/>
       <use x="385.498047" xlink:href="#DejaVuSans-51"/>
      </g>
     </g>
    </g>
    <g id="xtick_18">
     <g id="line2d_18">
      <g>
       <use style="stroke:#000000;stroke-width:0.8;" x="543.22393" xlink:href="#m2092ee43c3" y="448.56"/>
      </g>
     </g>
     <g id="text_18">
      <!-- 19:46:26 -->
      <g transform="translate(545.983305 500.4725)rotate(-90)scale(0.1 -0.1)">
       <use xlink:href="#DejaVuSans-49"/>
       <use x="63.623047" xlink:href="#DejaVuSans-57"/>
       <use x="127.246094" xlink:href="#DejaVuSans-58"/>
       <use x="160.9375" xlink:href="#DejaVuSans-52"/>
       <use x="224.560547" xlink:href="#DejaVuSans-54"/>
       <use x="288.183594" xlink:href="#DejaVuSans-58"/>
       <use x="321.875" xlink:href="#DejaVuSans-50"/>
       <use x="385.498047" xlink:href="#DejaVuSans-54"/>
      </g>
     </g>
    </g>
    <g id="xtick_19">
     <g id="line2d_19">
      <g>
       <use style="stroke:#000000;stroke-width:0.8;" x="567.393038" xlink:href="#m2092ee43c3" y="448.56"/>
      </g>
     </g>
     <g id="text_19">
      <!-- 19:48:19 -->
      <g transform="translate(570.152413 500.4725)rotate(-90)scale(0.1 -0.1)">
       <use xlink:href="#DejaVuSans-49"/>
       <use x="63.623047" xlink:href="#DejaVuSans-57"/>
       <use x="127.246094" xlink:href="#DejaVuSans-58"/>
       <use x="160.9375" xlink:href="#DejaVuSans-52"/>
       <use x="224.560547" xlink:href="#DejaVuSans-56"/>
       <use x="288.183594" xlink:href="#DejaVuSans-58"/>
       <use x="321.875" xlink:href="#DejaVuSans-49"/>
       <use x="385.498047" xlink:href="#DejaVuSans-57"/>
      </g>
     </g>
    </g>
    <g id="xtick_20">
     <g id="line2d_20">
      <g>
       <use style="stroke:#000000;stroke-width:0.8;" x="591.562146" xlink:href="#m2092ee43c3" y="448.56"/>
      </g>
     </g>
     <g id="text_20">
      <!-- 19:50:12 -->
      <g transform="translate(594.321521 500.4725)rotate(-90)scale(0.1 -0.1)">
       <use xlink:href="#DejaVuSans-49"/>
       <use x="63.623047" xlink:href="#DejaVuSans-57"/>
       <use x="127.246094" xlink:href="#DejaVuSans-58"/>
       <use x="160.9375" xlink:href="#DejaVuSans-53"/>
       <use x="224.560547" xlink:href="#DejaVuSans-48"/>
       <use x="288.183594" xlink:href="#DejaVuSans-58"/>
       <use x="321.875" xlink:href="#DejaVuSans-49"/>
       <use x="385.498047" xlink:href="#DejaVuSans-50"/>
      </g>
     </g>
    </g>
    <g id="xtick_21">
     <g id="line2d_21">
      <g>
       <use style="stroke:#000000;stroke-width:0.8;" x="615.731255" xlink:href="#m2092ee43c3" y="448.56"/>
      </g>
     </g>
     <g id="text_21">
      <!-- 19:52:05 -->
      <g transform="translate(618.49063 500.4725)rotate(-90)scale(0.1 -0.1)">
       <use xlink:href="#DejaVuSans-49"/>
       <use x="63.623047" xlink:href="#DejaVuSans-57"/>
       <use x="127.246094" xlink:href="#DejaVuSans-58"/>
       <use x="160.9375" xlink:href="#DejaVuSans-53"/>
       <use x="224.560547" xlink:href="#DejaVuSans-50"/>
       <use x="288.183594" xlink:href="#DejaVuSans-58"/>
       <use x="321.875" xlink:href="#DejaVuSans-48"/>
       <use x="385.498047" xlink:href="#DejaVuSans-53"/>
      </g>
     </g>
    </g>
    <g id="text_22">
     <!-- timestamp -->
     <g transform="translate(354.264375 510.55125)scale(0.08 -0.08)">
      <defs>
       <path d="M 18.3125 70.21875 
L 18.3125 54.6875 
L 36.8125 54.6875 
L 36.8125 47.703125 
L 18.3125 47.703125 
L 18.3125 18.015625 
Q 18.3125 11.328125 20.140625 9.421875 
Q 21.96875 7.515625 27.59375 7.515625 
L 36.8125 7.515625 
L 36.8125 0 
L 27.59375 0 
Q 17.1875 0 13.234375 3.875 
Q 9.28125 7.765625 9.28125 18.015625 
L 9.28125 47.703125 
L 2.6875 47.703125 
L 2.6875 54.6875 
L 9.28125 54.6875 
L 9.28125 70.21875 
z
" id="DejaVuSans-116"/>
       <path d="M 9.421875 54.6875 
L 18.40625 54.6875 
L 18.40625 0 
L 9.421875 0 
z
M 9.421875 75.984375 
L 18.40625 75.984375 
L 18.40625 64.59375 
L 9.421875 64.59375 
z
" id="DejaVuSans-105"/>
       <path d="M 52 44.1875 
Q 55.375 50.25 60.0625 53.125 
Q 64.75 56 71.09375 56 
Q 79.640625 56 84.28125 50.015625 
Q 88.921875 44.046875 88.921875 33.015625 
L 88.921875 0 
L 79.890625 0 
L 79.890625 32.71875 
Q 79.890625 40.578125 77.09375 44.375 
Q 74.3125 48.1875 68.609375 48.1875 
Q 61.625 48.1875 57.5625 43.546875 
Q 53.515625 38.921875 53.515625 30.90625 
L 53.515625 0 
L 44.484375 0 
L 44.484375 32.71875 
Q 44.484375 40.625 41.703125 44.40625 
Q 38.921875 48.1875 33.109375 48.1875 
Q 26.21875 48.1875 22.15625 43.53125 
Q 18.109375 38.875 18.109375 30.90625 
L 18.109375 0 
L 9.078125 0 
L 9.078125 54.6875 
L 18.109375 54.6875 
L 18.109375 46.1875 
Q 21.1875 51.21875 25.484375 53.609375 
Q 29.78125 56 35.6875 56 
Q 41.65625 56 45.828125 52.96875 
Q 50 49.953125 52 44.1875 
z
" id="DejaVuSans-109"/>
       <path d="M 56.203125 29.59375 
L 56.203125 25.203125 
L 14.890625 25.203125 
Q 15.484375 15.921875 20.484375 11.0625 
Q 25.484375 6.203125 34.421875 6.203125 
Q 39.59375 6.203125 44.453125 7.46875 
Q 49.3125 8.734375 54.109375 11.28125 
L 54.109375 2.78125 
Q 49.265625 0.734375 44.1875 -0.34375 
Q 39.109375 -1.421875 33.890625 -1.421875 
Q 20.796875 -1.421875 13.15625 6.1875 
Q 5.515625 13.8125 5.515625 26.8125 
Q 5.515625 40.234375 12.765625 48.109375 
Q 20.015625 56 32.328125 56 
Q 43.359375 56 49.78125 48.890625 
Q 56.203125 41.796875 56.203125 29.59375 
z
M 47.21875 32.234375 
Q 47.125 39.59375 43.09375 43.984375 
Q 39.0625 48.390625 32.421875 48.390625 
Q 24.90625 48.390625 20.390625 44.140625 
Q 15.875 39.890625 15.1875 32.171875 
z
" id="DejaVuSans-101"/>
       <path d="M 44.28125 53.078125 
L 44.28125 44.578125 
Q 40.484375 46.53125 36.375 47.5 
Q 32.28125 48.484375 27.875 48.484375 
Q 21.1875 48.484375 17.84375 46.4375 
Q 14.5 44.390625 14.5 40.28125 
Q 14.5 37.15625 16.890625 35.375 
Q 19.28125 33.59375 26.515625 31.984375 
L 29.59375 31.296875 
Q 39.15625 29.25 43.1875 25.515625 
Q 47.21875 21.78125 47.21875 15.09375 
Q 47.21875 7.46875 41.1875 3.015625 
Q 35.15625 -1.421875 24.609375 -1.421875 
Q 20.21875 -1.421875 15.453125 -0.5625 
Q 10.6875 0.296875 5.421875 2 
L 5.421875 11.28125 
Q 10.40625 8.6875 15.234375 7.390625 
Q 20.0625 6.109375 24.8125 6.109375 
Q 31.15625 6.109375 34.5625 8.28125 
Q 37.984375 10.453125 37.984375 14.40625 
Q 37.984375 18.0625 35.515625 20.015625 
Q 33.0625 21.96875 24.703125 23.78125 
L 21.578125 24.515625 
Q 13.234375 26.265625 9.515625 29.90625 
Q 5.8125 33.546875 5.8125 39.890625 
Q 5.8125 47.609375 11.28125 51.796875 
Q 16.75 56 26.8125 56 
Q 31.78125 56 36.171875 55.265625 
Q 40.578125 54.546875 44.28125 53.078125 
z
" id="DejaVuSans-115"/>
       <path d="M 34.28125 27.484375 
Q 23.390625 27.484375 19.1875 25 
Q 14.984375 22.515625 14.984375 16.5 
Q 14.984375 11.71875 18.140625 8.90625 
Q 21.296875 6.109375 26.703125 6.109375 
Q 34.1875 6.109375 38.703125 11.40625 
Q 43.21875 16.703125 43.21875 25.484375 
L 43.21875 27.484375 
z
M 52.203125 31.203125 
L 52.203125 0 
L 43.21875 0 
L 43.21875 8.296875 
Q 40.140625 3.328125 35.546875 0.953125 
Q 30.953125 -1.421875 24.3125 -1.421875 
Q 15.921875 -1.421875 10.953125 3.296875 
Q 6 8.015625 6 15.921875 
Q 6 25.140625 12.171875 29.828125 
Q 18.359375 34.515625 30.609375 34.515625 
L 43.21875 34.515625 
L 43.21875 35.40625 
Q 43.21875 41.609375 39.140625 45 
Q 35.0625 48.390625 27.6875 48.390625 
Q 23 48.390625 18.546875 47.265625 
Q 14.109375 46.140625 10.015625 43.890625 
L 10.015625 52.203125 
Q 14.9375 54.109375 19.578125 55.046875 
Q 24.21875 56 28.609375 56 
Q 40.484375 56 46.34375 49.84375 
Q 52.203125 43.703125 52.203125 31.203125 
z
" id="DejaVuSans-97"/>
       <path d="M 18.109375 8.203125 
L 18.109375 -20.796875 
L 9.078125 -20.796875 
L 9.078125 54.6875 
L 18.109375 54.6875 
L 18.109375 46.390625 
Q 20.953125 51.265625 25.265625 53.625 
Q 29.59375 56 35.59375 56 
Q 45.5625 56 51.78125 48.09375 
Q 58.015625 40.1875 58.015625 27.296875 
Q 58.015625 14.40625 51.78125 6.484375 
Q 45.5625 -1.421875 35.59375 -1.421875 
Q 29.59375 -1.421875 25.265625 0.953125 
Q 20.953125 3.328125 18.109375 8.203125 
z
M 48.6875 27.296875 
Q 48.6875 37.203125 44.609375 42.84375 
Q 40.53125 48.484375 33.40625 48.484375 
Q 26.265625 48.484375 22.1875 42.84375 
Q 18.109375 37.203125 18.109375 27.296875 
Q 18.109375 17.390625 22.1875 11.75 
Q 26.265625 6.109375 33.40625 6.109375 
Q 40.53125 6.109375 44.609375 11.75 
Q 48.6875 17.390625 48.6875 27.296875 
z
" id="DejaVuSans-112"/>
      </defs>
      <use xlink:href="#DejaVuSans-116"/>
      <use x="39.208984" xlink:href="#DejaVuSans-105"/>
      <use x="66.992188" xlink:href="#DejaVuSans-109"/>
      <use x="164.404297" xlink:href="#DejaVuSans-101"/>
      <use x="225.927734" xlink:href="#DejaVuSans-115"/>
      <use x="278.027344" xlink:href="#DejaVuSans-116"/>
      <use x="317.236328" xlink:href="#DejaVuSans-97"/>
      <use x="378.515625" xlink:href="#DejaVuSans-109"/>
      <use x="475.927734" xlink:href="#DejaVuSans-112"/>
     </g>
    </g>
   </g>
   <g id="matplotlib.axis_2">
    <g id="ytick_1">
     <g id="line2d_22">
      <defs>
       <path d="M 0 0 
L -3.5 0 
" id="macc156734d" style="stroke:#000000;stroke-width:0.8;"/>
      </defs>
      <g>
       <use style="stroke:#000000;stroke-width:0.8;" x="108" xlink:href="#macc156734d" y="414.846416"/>
      </g>
     </g>
     <g id="text_23">
      <!-- 9800 -->
      <g transform="translate(75.55 418.645634)scale(0.1 -0.1)">
       <use xlink:href="#DejaVuSans-57"/>
       <use x="63.623047" xlink:href="#DejaVuSans-56"/>
       <use x="127.246094" xlink:href="#DejaVuSans-48"/>
       <use x="190.869141" xlink:href="#DejaVuSans-48"/>
      </g>
     </g>
    </g>
    <g id="ytick_2">
     <g id="line2d_23">
      <g>
       <use style="stroke:#000000;stroke-width:0.8;" x="108" xlink:href="#macc156734d" y="371.10401"/>
      </g>
     </g>
     <g id="text_24">
      <!-- 10000 -->
      <g transform="translate(69.1875 374.903228)scale(0.1 -0.1)">
       <use xlink:href="#DejaVuSans-49"/>
       <use x="63.623047" xlink:href="#DejaVuSans-48"/>
       <use x="127.246094" xlink:href="#DejaVuSans-48"/>
       <use x="190.869141" xlink:href="#DejaVuSans-48"/>
       <use x="254.492188" xlink:href="#DejaVuSans-48"/>
      </g>
     </g>
    </g>
    <g id="ytick_3">
     <g id="line2d_24">
      <g>
       <use style="stroke:#000000;stroke-width:0.8;" x="108" xlink:href="#macc156734d" y="327.361604"/>
      </g>
     </g>
     <g id="text_25">
      <!-- 10200 -->
      <g transform="translate(69.1875 331.160823)scale(0.1 -0.1)">
       <use xlink:href="#DejaVuSans-49"/>
       <use x="63.623047" xlink:href="#DejaVuSans-48"/>
       <use x="127.246094" xlink:href="#DejaVuSans-50"/>
       <use x="190.869141" xlink:href="#DejaVuSans-48"/>
       <use x="254.492188" xlink:href="#DejaVuSans-48"/>
      </g>
     </g>
    </g>
    <g id="ytick_4">
     <g id="line2d_25">
      <g>
       <use style="stroke:#000000;stroke-width:0.8;" x="108" xlink:href="#macc156734d" y="283.619198"/>
      </g>
     </g>
     <g id="text_26">
      <!-- 10400 -->
      <g transform="translate(69.1875 287.418417)scale(0.1 -0.1)">
       <use xlink:href="#DejaVuSans-49"/>
       <use x="63.623047" xlink:href="#DejaVuSans-48"/>
       <use x="127.246094" xlink:href="#DejaVuSans-52"/>
       <use x="190.869141" xlink:href="#DejaVuSans-48"/>
       <use x="254.492188" xlink:href="#DejaVuSans-48"/>
      </g>
     </g>
    </g>
    <g id="ytick_5">
     <g id="line2d_26">
      <g>
       <use style="stroke:#000000;stroke-width:0.8;" x="108" xlink:href="#macc156734d" y="239.876792"/>
      </g>
     </g>
     <g id="text_27">
      <!-- 10600 -->
      <g transform="translate(69.1875 243.676011)scale(0.1 -0.1)">
       <use xlink:href="#DejaVuSans-49"/>
       <use x="63.623047" xlink:href="#DejaVuSans-48"/>
       <use x="127.246094" xlink:href="#DejaVuSans-54"/>
       <use x="190.869141" xlink:href="#DejaVuSans-48"/>
       <use x="254.492188" xlink:href="#DejaVuSans-48"/>
      </g>
     </g>
    </g>
    <g id="ytick_6">
     <g id="line2d_27">
      <g>
       <use style="stroke:#000000;stroke-width:0.8;" x="108" xlink:href="#macc156734d" y="196.134386"/>
      </g>
     </g>
     <g id="text_28">
      <!-- 10800 -->
      <g transform="translate(69.1875 199.933605)scale(0.1 -0.1)">
       <use xlink:href="#DejaVuSans-49"/>
       <use x="63.623047" xlink:href="#DejaVuSans-48"/>
       <use x="127.246094" xlink:href="#DejaVuSans-56"/>
       <use x="190.869141" xlink:href="#DejaVuSans-48"/>
       <use x="254.492188" xlink:href="#DejaVuSans-48"/>
      </g>
     </g>
    </g>
    <g id="ytick_7">
     <g id="line2d_28">
      <g>
       <use style="stroke:#000000;stroke-width:0.8;" x="108" xlink:href="#macc156734d" y="152.391981"/>
      </g>
     </g>
     <g id="text_29">
      <!-- 11000 -->
      <g transform="translate(69.1875 156.191199)scale(0.1 -0.1)">
       <use xlink:href="#DejaVuSans-49"/>
       <use x="63.623047" xlink:href="#DejaVuSans-49"/>
       <use x="127.246094" xlink:href="#DejaVuSans-48"/>
       <use x="190.869141" xlink:href="#DejaVuSans-48"/>
       <use x="254.492188" xlink:href="#DejaVuSans-48"/>
      </g>
     </g>
    </g>
    <g id="ytick_8">
     <g id="line2d_29">
      <g>
       <use style="stroke:#000000;stroke-width:0.8;" x="108" xlink:href="#macc156734d" y="108.649575"/>
      </g>
     </g>
     <g id="text_30">
      <!-- 11200 -->
      <g transform="translate(69.1875 112.448793)scale(0.1 -0.1)">
       <use xlink:href="#DejaVuSans-49"/>
       <use x="63.623047" xlink:href="#DejaVuSans-49"/>
       <use x="127.246094" xlink:href="#DejaVuSans-50"/>
       <use x="190.869141" xlink:href="#DejaVuSans-48"/>
       <use x="254.492188" xlink:href="#DejaVuSans-48"/>
      </g>
     </g>
    </g>
    <g id="ytick_9">
     <g id="line2d_30">
      <g>
       <use style="stroke:#000000;stroke-width:0.8;" x="108" xlink:href="#macc156734d" y="64.907169"/>
      </g>
     </g>
     <g id="text_31">
      <!-- 11400 -->
      <g transform="translate(69.1875 68.706388)scale(0.1 -0.1)">
       <use xlink:href="#DejaVuSans-49"/>
       <use x="63.623047" xlink:href="#DejaVuSans-49"/>
       <use x="127.246094" xlink:href="#DejaVuSans-52"/>
       <use x="190.869141" xlink:href="#DejaVuSans-48"/>
       <use x="254.492188" xlink:href="#DejaVuSans-48"/>
      </g>
     </g>
    </g>
    <g id="text_32">
     <!-- MB -->
     <g transform="translate(63.52375 260.715625)rotate(-90)scale(0.08 -0.08)">
      <defs>
       <path d="M 9.8125 72.90625 
L 24.515625 72.90625 
L 43.109375 23.296875 
L 61.8125 72.90625 
L 76.515625 72.90625 
L 76.515625 0 
L 66.890625 0 
L 66.890625 64.015625 
L 48.09375 14.015625 
L 38.1875 14.015625 
L 19.390625 64.015625 
L 19.390625 0 
L 9.8125 0 
z
" id="DejaVuSans-77"/>
       <path d="M 19.671875 34.8125 
L 19.671875 8.109375 
L 35.5 8.109375 
Q 43.453125 8.109375 47.28125 11.40625 
Q 51.125 14.703125 51.125 21.484375 
Q 51.125 28.328125 47.28125 31.5625 
Q 43.453125 34.8125 35.5 34.8125 
z
M 19.671875 64.796875 
L 19.671875 42.828125 
L 34.28125 42.828125 
Q 41.5 42.828125 45.03125 45.53125 
Q 48.578125 48.25 48.578125 53.8125 
Q 48.578125 59.328125 45.03125 62.0625 
Q 41.5 64.796875 34.28125 64.796875 
z
M 9.8125 72.90625 
L 35.015625 72.90625 
Q 46.296875 72.90625 52.390625 68.21875 
Q 58.5 63.53125 58.5 54.890625 
Q 58.5 48.1875 55.375 44.234375 
Q 52.25 40.28125 46.1875 39.3125 
Q 53.46875 37.75 57.5 32.78125 
Q 61.53125 27.828125 61.53125 20.40625 
Q 61.53125 10.640625 54.890625 5.3125 
Q 48.25 0 35.984375 0 
L 9.8125 0 
z
" id="DejaVuSans-66"/>
      </defs>
      <use xlink:href="#DejaVuSans-77"/>
      <use x="86.279297" xlink:href="#DejaVuSans-66"/>
     </g>
    </g>
   </g>
   <g id="line2d_31">
    <path clip-path="url(#p469a995e74)" d="M 132.349091 78.218858 
L 132.606209 79.024593 
L 132.863327 79.04034 
L 133.377564 78.12 
L 133.634682 79.074459 
L 133.8918 79.540753 
L 134.148918 79.589745 
L 134.406036 78.791883 
L 134.920273 80.052539 
L 135.177391 80.238882 
L 135.434509 78.514557 
L 135.691627 79.658858 
L 136.462982 122.704885 
L 136.7201 144.33288 
L 137.491454 250.824642 
L 139.034163 383.700948 
L 139.291282 398.484131 
L 139.5484 397.844617 
L 139.805518 397.573414 
L 140.062636 396.389745 
L 140.319754 396.59096 
L 140.833991 400.897837 
L 141.348227 399.987995 
L 141.605345 401.854046 
L 141.862463 401.823426 
L 142.119581 401.616087 
L 142.3767 401.052685 
L 142.633818 404.203013 
L 142.890936 404.923888 
L 143.148054 404.721798 
L 143.405172 405.733123 
L 143.66229 403.503135 
L 144.176527 403.385905 
L 144.690763 402.279222 
L 144.947881 402.458566 
L 145.205 403.469891 
L 145.462118 403.452394 
L 145.719236 402.596792 
L 145.976354 403.001847 
L 146.233472 404.342989 
L 146.49059 404.140899 
L 146.747709 404.125152 
L 147.004827 403.053463 
L 147.261945 404.007047 
L 147.519063 404.19514 
L 147.776181 404.161021 
L 148.290418 403.492637 
L 148.547536 404.937011 
L 148.804654 404.953633 
L 149.061772 405.127728 
L 149.31889 404.540705 
L 149.576008 404.306245 
L 149.833127 403.364909 
L 150.090245 403.557375 
L 150.347363 402.837375 
L 150.604481 403.087582 
L 150.861599 404.117278 
L 151.118717 404.435723 
L 151.375836 403.306294 
L 151.632954 404.024544 
L 151.890072 404.105905 
L 152.404308 403.842576 
L 152.661427 402.831252 
L 152.918545 404.360486 
L 153.175663 404.62644 
L 153.432781 404.321118 
L 153.689899 403.714848 
L 154.204136 404.805784 
L 154.461254 404.872272 
L 154.718372 404.775164 
L 154.97549 404.028919 
L 155.232608 405.306197 
L 155.489726 405.342066 
L 155.746845 405.130352 
L 156.003963 404.07616 
L 156.261081 403.786586 
L 156.518199 404.391981 
L 156.775317 404.652685 
L 157.032435 403.322041 
L 157.289554 403.312418 
L 157.546672 404.154022 
L 157.80379 404.558202 
L 158.318026 403.233682 
L 158.575144 403.891567 
L 158.832263 405.053366 
L 159.089381 405.162722 
L 159.346499 404.380608 
L 159.603617 404.687679 
L 159.860735 405.758493 
L 160.117854 405.31407 
L 160.374972 405.349939 
L 160.63209 404.373609 
L 160.889208 406.509113 
L 161.146326 406.377886 
L 161.660563 405.450547 
L 161.917681 404.51096 
L 162.174799 404.897643 
L 162.431917 404.010547 
L 162.689035 403.852199 
L 162.946153 403.287047 
L 163.203272 404.956258 
L 163.46039 404.442722 
L 163.717508 404.489089 
L 163.974626 403.876695 
L 164.231744 405.151349 
L 164.488862 404.870522 
L 164.745981 404.762916 
L 165.003099 404.123402 
L 165.517335 405.352564 
L 165.774453 405.40068 
L 166.031571 405.709502 
L 166.28869 404.658809 
L 166.545808 405.712126 
L 166.802926 406.246659 
L 167.060044 406.004326 
L 167.317162 404.801409 
L 167.574281 404.177643 
L 167.831399 404.944885 
L 168.088517 404.776039 
L 168.345635 404.019295 
L 168.602753 403.972053 
L 168.859871 404.68418 
L 169.374108 404.766416 
L 169.631226 403.981677 
L 169.888344 404.676306 
L 170.145462 406.455747 
L 170.659699 405.104107 
L 170.916817 405.286075 
L 171.173935 406.657837 
L 171.431053 406.460122 
L 171.945289 405.663135 
L 172.202408 405.932588 
L 172.459526 406.523985 
L 172.716644 405.992078 
L 172.973762 405.733123 
L 173.23088 404.216136 
L 173.487998 405.452296 
L 173.745117 405.831106 
L 174.002235 405.492539 
L 174.259353 404.877521 
L 174.516471 405.762868 
L 175.030707 408.757473 
L 175.287826 407.76627 
L 175.544944 408.181823 
L 175.802062 406.777691 
L 176.05918 406.718202 
L 176.316298 406.812685 
L 176.573417 406.349016 
L 176.830535 408.764471 
L 177.087653 408.931567 
L 177.344771 408.894824 
L 177.601889 405.961458 
L 177.859007 406.434751 
L 178.116126 407.605298 
L 178.373244 406.747947 
L 178.88748 406.187169 
L 179.144598 405.389307 
L 179.401716 405.598396 
L 179.658835 404.243256 
L 180.173071 404.7148 
L 180.430189 405.470668 
L 180.944425 404.300122 
L 181.201544 405.049866 
L 181.458662 406.713827 
L 181.71578 406.435626 
L 181.972898 406.394508 
L 182.230016 405.145225 
L 182.487134 407.014775 
L 183.001371 406.286027 
L 183.258489 405.421677 
L 183.515607 406.23616 
L 183.772725 405.821482 
L 184.029844 405.838979 
L 184.286962 405.663135 
L 184.54408 405.097983 
L 184.801198 406.056817 
L 185.058316 405.965832 
L 185.315434 405.082236 
L 185.572553 404.937011 
L 186.086789 405.841604 
L 186.343907 405.703378 
L 186.601025 405.926464 
L 186.858143 405.566902 
L 187.115262 406.93079 
L 187.37238 406.69983 
L 187.629498 406.652588 
L 187.886616 405.813609 
L 188.143734 406.579976 
L 188.400852 406.892296 
L 188.915089 406.075188 
L 189.429325 406.401507 
L 189.686443 406.328894 
L 189.943561 406.371762 
L 190.20068 405.629016 
L 190.457798 408.13983 
L 190.714916 406.161798 
L 190.972034 405.438299 
L 191.229152 405.4348 
L 191.486271 405.617643 
L 191.743389 406.431252 
L 192.000507 406.413755 
L 192.257625 406.228287 
L 192.514743 405.367436 
L 192.771861 407.274605 
L 193.02898 407.455699 
L 193.286098 407.340219 
L 193.543216 406.401507 
L 193.800334 407.18712 
L 194.31457 407.763645 
L 194.828807 407.250984 
L 195.085925 407.850255 
L 195.343043 407.88 
L 195.857279 405.943961 
L 196.114398 406.676209 
L 196.371516 406.548481 
L 196.628634 405.354313 
L 196.885752 405.267704 
L 197.14287 405.700753 
L 197.399988 406.641215 
L 197.657107 406.460122 
L 197.914225 406.484617 
L 198.171343 406.108433 
L 198.428461 408.126707 
L 198.685579 408.362041 
L 198.942698 408.169575 
L 199.199816 407.285103 
L 199.456934 407.324471 
L 199.714052 408.408408 
L 199.97117 408.095213 
L 200.228288 407.209866 
L 200.485407 407.93949 
L 200.742525 407.310474 
L 200.999643 406.984156 
L 201.513879 405.293074 
L 201.770997 406.021823 
L 202.028116 407.404083 
L 202.542352 406.128554 
L 202.79947 406.475869 
L 203.056588 407.579927 
L 203.570825 407.572053 
L 203.827943 406.81531 
L 204.085061 408.488894 
L 204.342179 408.550134 
L 204.856415 406.996403 
L 205.370652 407.998104 
L 205.62777 408.021725 
L 205.884888 407.201993 
L 206.142006 407.378712 
L 206.399125 408.593001 
L 206.656243 407.85113 
L 206.913361 407.763645 
L 207.170479 407.323597 
L 207.427597 409.506343 
L 207.684715 410.512418 
L 207.941834 410.718007 
L 208.198952 407.893123 
L 208.45607 407.831009 
L 208.713188 408.530887 
L 208.970306 407.915869 
L 209.227424 408.159077 
L 209.484543 406.960535 
L 209.741661 408.249186 
L 209.998779 408.220316 
L 210.513015 407.655164 
L 211.027252 408.982309 
L 211.28437 408.609623 
L 211.541488 408.62712 
L 212.312842 406.892296 
L 212.569961 406.808311 
L 212.827079 405.77599 
L 213.341315 407.799514 
L 213.598433 407.840632 
L 213.855552 406.84418 
L 214.369788 408.977934 
L 214.626906 408.942066 
L 215.141142 407.687533 
L 215.655379 407.754022 
L 215.912497 407.449575 
L 216.169615 406.809186 
L 216.426733 407.157375 
L 216.683851 408.172199 
L 217.198088 407.922868 
L 217.455206 407.335844 
L 217.712324 408.191446 
L 217.969442 407.840632 
L 218.22656 407.747023 
L 218.483679 407.047145 
L 218.740797 407.593925 
L 218.997915 409.230765 
L 219.255033 408.323548 
L 219.512151 408.308676 
L 219.769269 407.481069 
L 220.283506 407.931616 
L 220.540624 407.824885 
L 220.797742 406.542357 
L 221.05486 407.365589 
L 221.311978 409.600826 
L 221.826215 407.867752 
L 222.083333 407.897497 
L 222.340451 408.596501 
L 222.597569 408.385662 
L 222.854688 408.388287 
L 223.111806 407.767145 
L 223.368924 407.774143 
L 223.626042 407.963985 
L 224.140278 406.838056 
L 224.654515 409.351495 
L 225.168751 408.950814 
L 225.425869 408.345419 
L 225.682987 409.416233 
L 226.197224 409.322625 
L 226.454342 408.4539 
L 226.71146 408.621871 
L 226.968578 409.823038 
L 227.225696 409.717181 
L 227.482815 407.847631 
L 227.739933 408.075966 
L 227.997051 409.459976 
L 228.254169 409.072418 
L 228.511287 409.441604 
L 228.768405 408.835334 
L 229.025524 409.197521 
L 229.282642 408.85983 
L 229.53976 408.927193 
L 229.796878 408.460899 
L 230.053996 408.366416 
L 230.311115 409.229016 
L 230.568233 409.190522 
L 230.825351 408.904447 
L 231.082469 407.587801 
L 231.339587 408.981434 
L 231.853824 408.865954 
L 232.110942 408.043597 
L 232.36806 408.734727 
L 232.625178 409.761798 
L 233.396533 408.91932 
L 233.653651 409.357618 
L 233.910769 409.102163 
L 234.167887 409.155529 
L 234.425005 408.834459 
L 234.682123 410.207096 
L 234.939242 412.68729 
L 235.19636 412.749405 
L 235.453478 411.975164 
L 235.710596 411.661094 
L 235.967714 409.899149 
L 236.224832 409.974386 
L 236.481951 409.294629 
L 236.739069 408.269307 
L 236.996187 409.328748 
L 237.253305 409.487971 
L 237.510423 409.14503 
L 237.767542 408.547509 
L 238.02466 409.089915 
L 238.281778 410.037375 
L 238.538896 409.933269 
L 238.796014 409.696185 
L 239.053132 409.022552 
L 239.310251 410.47305 
L 239.567369 413.150085 
L 239.824487 412.966367 
L 240.081605 412.101142 
L 240.338723 412.757278 
L 240.595841 410.322576 
L 241.110078 409.515966 
L 241.367196 409.6087 
L 241.624314 413.501774 
L 241.881432 413.299684 
L 242.652787 410.294581 
L 242.909905 410.682139 
L 243.424141 408.460024 
L 243.938378 410.15373 
L 244.452614 409.32 
L 244.709732 409.208019 
L 244.96685 410.55791 
L 245.223969 410.541288 
L 245.738205 409.300753 
L 245.995323 410.174727 
L 246.252441 409.187023 
L 246.509559 409.110036 
L 246.766678 408.471397 
L 247.023796 409.882527 
L 247.538032 409.788919 
L 247.79515 409.168651 
L 248.052268 409.074168 
L 248.309387 409.944642 
L 248.566505 410.064496 
L 248.823623 409.937643 
L 249.080741 409.278882 
L 249.337859 409.630571 
L 249.594977 410.895601 
L 249.852096 410.753876 
L 250.109214 410.807242 
L 250.366332 410.41181 
L 250.62345 411.058323 
L 250.880568 411.028578 
L 251.137686 410.851859 
L 251.394805 410.074994 
L 251.651923 411.359271 
L 251.909041 410.701385 
L 252.166159 410.533414 
L 252.423277 409.49147 
L 252.680396 410.466051 
L 252.937514 410.857983 
L 253.194632 410.634022 
L 253.45175 410.123985 
L 253.708868 410.514168 
L 253.965986 411.645346 
L 254.223105 411.475626 
L 254.480223 411.486999 
L 254.737341 411.004957 
L 254.994459 411.280535 
L 255.251577 412.059149 
L 255.508695 412.194751 
L 256.022932 411.594605 
L 256.28005 412.538566 
L 256.794286 412.336476 
L 257.051404 411.737205 
L 257.308523 412.186877 
L 257.565641 412.984739 
L 257.822759 413.251567 
L 258.079877 412.167631 
L 258.336995 411.754702 
L 258.594113 412.186877 
L 258.851232 412.17113 
L 259.365468 410.717132 
L 259.622586 411.382017 
L 259.879704 412.497448 
L 260.136823 412.411713 
L 260.393941 411.815067 
L 260.908177 412.207874 
L 261.165295 412.3426 
L 261.422413 415.082625 
L 261.679532 414.509599 
L 261.93665 415.749259 
L 262.193768 415.767631 
L 262.708004 412.31548 
L 262.965122 412.347849 
L 263.222241 412.636549 
L 263.479359 411.459004 
L 263.736477 411.397764 
L 263.993595 410.937594 
L 264.250713 413.194702 
L 264.76495 412.60243 
L 265.022068 411.908676 
L 265.279186 412.242868 
L 265.536304 413.46678 
L 265.793422 413.252442 
L 266.05054 412.3426 
L 266.307659 411.842187 
L 266.564777 412.779149 
L 267.079013 412.448457 
L 267.336131 412.160632 
L 267.593249 413.214824 
L 268.107486 410.831738 
L 268.364604 410.764374 
L 268.621722 411.383767 
L 268.87884 412.635674 
L 269.650195 411.605978 
L 269.907313 412.998736 
L 270.678668 412.297983 
L 270.935786 412.846513 
L 271.192904 413.915577 
L 271.450022 413.934824 
L 271.70714 415.8 
L 271.964258 416.648603 
L 272.221377 416.095699 
L 272.478495 416.2348 
L 272.992731 412.367971 
L 273.249849 413.045978 
L 273.764086 412.056525 
L 274.021204 410.991835 
L 274.53544 413.0626 
L 275.049676 413.160583 
L 275.306795 412.481701 
L 275.563913 413.345176 
L 276.078149 413.507023 
L 276.335267 412.506197 
L 276.592386 413.583135 
L 276.849504 413.618129 
L 277.36374 411.863183 
L 277.620858 411.687339 
L 277.877976 413.202576 
L 278.392213 413.550765 
L 278.649331 412.753779 
L 278.906449 414.268141 
L 279.163567 413.734484 
L 279.420685 413.674994 
L 279.934922 412.23062 
L 280.19204 413.067849 
L 280.963394 412.050401 
L 281.220513 412.778275 
L 281.477631 413.119465 
L 281.734749 411.534241 
L 281.991867 411.917424 
L 282.248985 412.584933 
L 282.506103 413.640875 
L 282.763222 413.470279 
L 283.02034 412.726659 
L 283.791694 413.694241 
L 284.048813 413.540267 
L 284.305931 412.23062 
L 284.563049 414.39062 
L 284.820167 412.947995 
L 285.077285 412.86401 
L 285.334403 412.245492 
L 285.84864 413.903329 
L 286.362876 413.584885 
L 286.877112 412.807145 
L 287.134231 412.54644 
L 287.391349 412.089769 
L 287.648467 412.071397 
L 287.905585 412.57706 
L 288.162703 413.688117 
L 288.419821 413.623378 
L 288.67694 412.601555 
L 289.191176 413.920826 
L 289.448294 413.465905 
L 289.705412 413.373171 
L 289.96253 412.985614 
L 290.219649 413.702989 
L 290.733885 413.071349 
L 290.991003 412.555188 
L 291.762358 414.548967 
L 292.019476 414.230522 
L 292.276594 413.500024 
L 292.533712 414.220899 
L 292.79083 414.424739 
L 293.305067 412.729283 
L 293.819303 414.225273 
L 294.076421 414.084423 
L 294.333539 413.517521 
L 294.590658 413.55339 
L 294.847776 414.146537 
L 295.362012 413.936574 
L 295.61913 413.168457 
L 296.133367 414.898906 
L 296.390485 414.800923 
L 296.647603 414.01356 
L 296.904721 414.47373 
L 297.161839 414.258518 
L 297.418957 414.498226 
L 297.933194 413.716112 
L 298.190312 415.266343 
L 298.44743 415.150863 
L 298.704548 414.716063 
L 298.961667 413.879708 
L 299.218785 413.823718 
L 299.733021 414.199028 
L 299.990139 413.451033 
L 300.247257 413.21045 
L 300.504376 415.075626 
L 300.761494 414.905905 
L 301.018612 415.124617 
L 301.27573 414.203402 
L 301.532848 414.245395 
L 301.789966 415.545419 
L 302.047085 415.216476 
L 302.304203 414.405492 
L 302.561321 415.265468 
L 302.818439 417.008165 
L 303.075557 416.69497 
L 303.332675 415.873487 
L 303.589794 415.462309 
L 303.846912 415.813123 
L 304.10403 418.961701 
L 304.618266 417.658177 
L 304.875384 415.916355 
L 305.132503 416.69322 
L 305.646739 416.081701 
L 306.160975 420.013269 
L 306.418094 419.217157 
L 306.675212 417.131519 
L 306.93233 416.591738 
L 307.189448 416.51825 
L 307.446566 416.102697 
L 307.703684 416.067704 
L 307.960803 414.745808 
L 308.217921 415.672272 
L 308.475039 415.028384 
L 308.989275 415.171859 
L 309.246393 414.611956 
L 309.503512 416.485006 
L 309.76063 415.850741 
L 310.017748 415.890984 
L 310.274866 415.205103 
L 310.531984 415.532296 
L 310.789102 416.043208 
L 311.046221 416.055456 
L 311.303339 415.841993 
L 311.560457 415.031883 
L 311.817575 416.571616 
L 312.074693 416.742211 
L 312.331811 416.651227 
L 312.58893 415.987217 
L 312.846048 416.141191 
L 313.103166 416.918931 
L 313.360284 416.51825 
L 313.617402 416.345905 
L 313.87452 417.269745 
L 314.131639 417.461337 
L 314.388757 417.283742 
L 314.645875 417.422843 
L 314.902993 416.22955 
L 315.160111 416.216428 
L 315.41723 417.229502 
L 315.674348 417.255747 
L 315.931466 416.310911 
L 316.188584 416.725589 
L 316.445702 417.713293 
L 316.70282 417.778032 
L 317.217057 416.9513 
L 317.474175 418.353682 
L 317.731293 418.505905 
L 317.988411 418.421045 
L 318.245529 418.006367 
L 318.502648 418.367679 
L 318.759766 417.72904 
L 319.016884 417.591689 
L 319.274002 417.076403 
L 319.53112 417.228627 
L 319.788238 417.190134 
L 320.045357 417.323985 
L 320.302475 417.322236 
L 320.559593 416.496379 
L 320.816711 418.311689 
L 321.073829 418.656379 
L 321.330947 418.659004 
L 321.588066 417.035286 
L 321.845184 417.504204 
L 322.102302 418.345808 
L 322.35942 418.424544 
L 322.873657 417.139392 
L 323.130775 417.930255 
L 323.387893 417.930255 
L 323.902129 416.653852 
L 324.159247 417.449089 
L 324.416366 417.838396 
L 324.673484 417.632807 
L 324.930602 417.053657 
L 325.18772 418.01599 
L 325.444838 417.919757 
L 325.701956 417.677424 
L 325.959075 417.689672 
L 326.216193 416.681847 
L 326.473311 418.62051 
L 326.987547 418.876841 
L 327.244665 418.033487 
L 327.501784 418.468287 
L 328.273138 418.006367 
L 328.530256 417.051033 
L 328.787374 419.175164 
L 329.044493 419.222406 
L 329.558729 418.616136 
L 330.072965 420.013269 
L 330.330084 419.826926 
L 330.587202 419.052685 
L 330.84432 418.882965 
L 331.101438 420.14887 
L 331.358556 420.248603 
L 331.615674 419.911786 
L 332.129911 418.726367 
L 332.387029 420.248603 
L 332.644147 420.048262 
L 332.901265 418.603888 
L 333.158383 418.332685 
L 333.415502 419.162916 
L 333.67262 419.201409 
L 334.186856 417.636306 
L 334.443974 419.28627 
L 334.958211 418.73949 
L 335.215329 418.167339 
L 335.472447 418.617886 
L 335.729565 420.074508 
L 335.986683 419.217157 
L 336.243801 422.049915 
L 336.50092 421.231057 
L 336.758038 421.629113 
L 337.015156 419.63096 
L 337.272274 419.810304 
L 337.529392 419.049186 
L 338.043629 419.926659 
L 338.300747 419.843548 
L 338.557865 418.321312 
L 338.814983 418.767485 
L 339.072101 419.728068 
L 339.32922 419.765687 
L 339.586338 419.289769 
L 339.843456 418.480535 
L 340.100574 420.828627 
L 340.357692 420.669405 
L 340.61481 420.66678 
L 340.871929 419.856671 
L 341.129047 420.345711 
L 341.386165 421.424399 
L 341.643283 421.420024 
L 342.414638 419.817303 
L 342.671756 419.770936 
L 343.185992 417.925006 
L 343.44311 420.214484 
L 343.700228 420.536428 
L 344.214465 418.900462 
L 344.471583 419.34401 
L 344.728701 420.886367 
L 344.985819 420.540802 
L 345.500056 419.377254 
L 345.757174 420.979976 
L 346.27141 420.640535 
L 346.528528 420.182989 
L 346.785647 420.308967 
L 347.042765 421.542503 
L 347.814119 419.983524 
L 348.071237 421.106829 
L 348.328356 421.076209 
L 348.842592 419.644083 
L 349.09971 419.91966 
L 349.356828 420.022017 
L 349.613946 419.917035 
L 349.871065 419.229405 
L 350.128183 419.613463 
L 350.385301 421.078834 
L 350.642419 421.097205 
L 351.156655 419.487485 
L 351.413774 420.396452 
L 351.92801 420.4087 
L 352.185128 419.736817 
L 352.699365 422.363111 
L 352.956483 421.851324 
L 353.213601 421.730595 
L 353.470719 421.114702 
L 353.727837 421.58712 
L 353.984955 421.568748 
L 354.242074 421.719222 
L 354.499192 420.784885 
L 354.75631 421.629988 
L 355.013428 420.798882 
L 355.270546 420.770887 
L 355.784783 419.068433 
L 356.041901 421.594994 
L 356.299019 421.860073 
L 356.813255 419.918785 
L 357.070373 420.140122 
L 357.327492 420.587169 
L 357.58461 420.470814 
L 357.841728 419.988773 
L 358.098846 420.532928 
L 358.355964 421.343038 
L 358.613082 421.620365 
L 358.870201 421.533755 
L 359.127319 420.742892 
L 359.384437 421.76209 
L 359.641555 422.19514 
L 359.898673 421.938809 
L 360.155791 420.916112 
L 360.41291 421.737594 
L 360.670028 421.427023 
L 360.927146 421.309793 
L 361.441382 420.030765 
L 361.698501 421.70435 
L 361.955619 421.203062 
L 362.212737 420.026391 
L 362.469855 420.2661 
L 362.726973 420.658032 
L 362.984091 421.580996 
L 363.24121 421.708724 
L 363.498328 423.466294 
L 363.755446 424.06644 
L 364.012564 425.383961 
L 364.269682 425.325346 
L 364.5268 422.790911 
L 364.783919 421.977303 
L 365.041037 422.65356 
L 365.298155 422.02367 
L 365.555273 422.231883 
L 365.812391 421.543378 
L 366.069509 423.556403 
L 366.326628 423.542406 
L 366.583746 423.079611 
L 367.097982 422.542454 
L 367.3551 423.134727 
L 367.869337 422.879271 
L 368.126455 422.031543 
L 368.383573 424.591349 
L 368.640691 425.696282 
L 368.897809 425.437327 
L 369.154928 422.462843 
L 369.412046 423.078736 
L 369.669164 424.092685 
L 369.926282 424.055067 
L 370.1834 424.58435 
L 370.440518 425.429453 
L 370.697637 427.024301 
L 370.954755 425.002527 
L 371.211873 424.971033 
L 371.468991 424.719077 
L 371.726109 424.683208 
L 371.983227 424.160923 
L 372.240346 423.964957 
L 372.497464 423.249332 
L 372.754582 423.061239 
L 373.0117 423.933463 
L 373.268818 424.139927 
L 373.525936 423.999077 
L 373.783055 422.482965 
L 374.040173 423.553779 
L 374.297291 423.531033 
L 374.554409 423.838104 
L 374.811527 423.31757 
L 375.068645 423.510911 
L 375.325764 424.265905 
L 375.582882 424.32627 
L 375.84 424.220413 
L 376.097118 423.514411 
L 376.354236 424.387509 
L 376.611355 424.677959 
L 377.125591 423.817983 
L 377.382709 424.248408 
L 377.639827 423.971956 
L 378.154064 422.475091 
L 378.411182 423.213463 
L 378.6683 424.47062 
L 378.925418 424.417254 
L 379.182536 424.12418 
L 379.439654 423.263329 
L 379.953891 424.311397 
L 380.211009 424.214289 
L 380.468127 423.250207 
L 380.725245 424.176671 
L 380.982363 425.698032 
L 381.239482 425.743524 
L 381.4966 425.978858 
L 381.753718 425.862503 
L 382.010836 426.232564 
L 382.525072 425.830134 
L 382.782191 424.463621 
L 383.039309 425.21599 
L 383.296427 426.871203 
L 383.553545 426.532637 
L 384.067782 425.166999 
L 384.3249 426.410158 
L 384.582018 425.27723 
L 384.839136 425.112758 
L 385.096254 424.665711 
L 385.610491 425.692783 
L 385.867609 425.621045 
L 386.124727 424.686707 
L 386.381845 425.365589 
L 386.896081 425.546683 
L 387.1532 423.983329 
L 387.410318 424.215164 
L 387.667436 425.483694 
L 388.181672 425.558056 
L 388.43879 424.913293 
L 388.695909 425.521312 
L 388.953027 425.723402 
L 389.210145 425.656914 
L 389.724381 424.123305 
L 389.981499 425.000778 
L 390.238618 424.926416 
L 390.495736 424.971908 
L 390.752854 424.385759 
L 391.009972 425.286853 
L 391.26709 425.383086 
L 391.524209 425.257983 
L 391.781327 424.666586 
L 392.038445 425.10226 
L 392.295563 425.761021 
L 392.552681 425.135504 
L 392.809799 425.380462 
L 393.066918 424.859927 
L 393.324036 426.451276 
L 393.581154 426.155577 
L 393.838272 426.101337 
L 394.09539 425.509939 
L 394.609627 426.516015 
L 394.866745 426.041847 
L 395.123863 426.163451 
L 395.380981 424.09531 
L 395.638099 425.507315 
L 395.895217 425.740899 
L 396.152336 425.773269 
L 396.409454 425.313098 
L 396.666572 425.532685 
L 396.92369 426.180073 
L 397.180808 425.957861 
L 397.437926 425.243985 
L 397.695045 425.755772 
L 397.952163 425.996355 
L 398.466399 424.475869 
L 398.723517 424.415504 
L 398.980635 425.840632 
L 399.237754 425.895747 
L 399.494872 426.74435 
L 399.75199 426.442527 
L 400.009108 426.534386 
L 400.266226 427.254386 
L 400.523345 429.79932 
L 400.780463 429.161555 
L 401.037581 430.301482 
L 401.294699 427.599077 
L 401.551817 427.558834 
L 401.808935 427.401361 
L 402.066054 426.324423 
L 402.323172 427.98226 
L 402.58029 428.12486 
L 402.837408 427.795043 
L 403.094526 426.722479 
L 403.351644 427.507217 
L 403.865881 427.681312 
L 404.380117 425.897497 
L 404.637235 427.804666 
L 404.894353 427.40486 
L 405.151472 427.250012 
L 405.40859 426.714605 
L 405.922826 429.291033 
L 406.437062 427.803791 
L 406.951299 429.766075 
L 407.465535 429.511495 
L 407.979772 428.375067 
L 408.494008 428.327825 
L 408.751126 427.613074 
L 409.008244 428.52904 
L 409.522481 428.491422 
L 410.036717 427.098663 
L 410.293835 427.949016 
L 410.550953 428.277084 
L 410.808071 428.084617 
L 411.06519 427.57633 
L 411.322308 428.276209 
L 411.579426 429.467752 
L 412.093662 428.251713 
L 412.35078 428.138858 
L 412.607899 428.847485 
L 412.865017 428.784496 
L 413.122135 429.006707 
L 413.379253 428.6174 
L 413.893489 428.625273 
L 414.150608 427.848408 
L 414.664844 427.599077 
L 414.921962 428.99096 
L 415.436199 428.967339 
L 415.693317 428.103864 
L 415.950435 428.802868 
L 416.207553 428.193098 
L 416.464671 428.416185 
L 416.721789 427.271009 
L 416.978908 427.702309 
L 417.236026 429.181677 
L 417.493144 429.309405 
L 417.750262 428.718007 
L 418.00738 428.828238 
L 418.521617 429.480875 
L 418.778735 429.378518 
L 419.035853 428.696136 
L 419.292971 429.009332 
L 419.550089 430.92 
L 419.807207 430.066148 
L 420.064326 429.88068 
L 420.321444 429.076695 
L 420.578562 429.201798 
L 421.092798 428.412685 
L 421.349916 427.677813 
L 421.607035 428.921847 
L 421.864153 429.542114 
L 422.121271 429.533366 
L 422.378389 428.854484 
L 422.635507 428.796744 
L 422.892626 430.215747 
L 423.66398 428.480923 
L 423.921098 429.157181 
L 424.435335 428.168603 
L 424.692453 426.858955 
L 424.949571 426.950814 
L 425.206689 427.474848 
L 425.463807 426.208068 
L 425.720925 426.108335 
L 425.978044 425.522187 
L 426.235162 426.533512 
L 426.749398 425.746148 
L 427.006516 424.789064 
L 427.263634 426.54051 
L 427.520753 425.614921 
L 427.777871 425.694532 
L 428.034989 424.972783 
L 428.549225 426.449526 
L 429.063462 426.509891 
L 429.32058 425.972734 
L 429.577698 427.102163 
L 430.091934 426.732102 
L 430.349053 426.103086 
L 430.606171 426.483645 
L 430.863289 427.248262 
L 431.120407 427.107412 
L 431.634643 424.817934 
L 431.891762 426.439903 
L 432.14888 426.299052 
L 432.405998 426.404909 
L 432.920234 429.694338 
L 433.177352 430.322479 
L 433.434471 427.448603 
L 433.691589 426.949939 
L 433.948707 427.181774 
L 434.462943 428.632272 
L 434.720061 430.787898 
L 434.97718 430.409964 
L 435.234298 427.620073 
L 435.748534 427.812539 
L 436.005652 425.520437 
L 436.26277 426.991057 
L 436.519889 426.086464 
L 436.777007 425.842382 
L 437.034125 425.156501 
L 437.548361 426.481021 
L 437.80548 426.373414 
L 438.062598 426.551009 
L 438.319716 425.760146 
L 438.833952 426.872953 
L 439.348189 425.90887 
L 439.605307 426.207193 
L 439.862425 427.133657 
L 440.119543 427.232515 
L 440.376661 427.100413 
L 440.633779 426.373414 
L 440.890898 427.0313 
L 441.148016 427.076792 
L 441.662252 425.740024 
L 441.91937 426.801215 
L 442.176488 426.238688 
L 442.433607 426.061094 
L 442.690725 425.294727 
L 443.204961 427.314751 
L 443.462079 427.194897 
L 443.719197 426.881701 
L 443.976316 426.391786 
L 444.490552 427.347995 
L 444.74767 427.286756 
L 445.004788 426.150328 
L 445.261906 428.163354 
L 445.519025 428.209721 
L 445.776143 427.992758 
L 446.033261 426.534386 
L 446.290379 426.476646 
L 446.547497 427.676063 
L 446.804616 427.14503 
L 447.318852 426.849332 
L 447.57597 428.109113 
L 447.833088 428.684763 
L 448.090206 428.174727 
L 448.604443 426.671738 
L 448.861561 427.733803 
L 449.375797 427.736428 
L 449.632915 426.894824 
L 449.890034 427.984885 
L 450.147152 427.768797 
L 450.40427 427.705808 
L 450.661388 426.85983 
L 450.918506 428.085492 
L 451.175624 428.631397 
L 451.432743 428.403937 
L 451.946979 426.97531 
L 452.204097 427.709307 
L 452.718333 427.570207 
L 452.975452 426.8887 
L 453.489688 428.827363 
L 453.746806 428.491422 
L 454.261043 427.319125 
L 454.518161 428.015504 
L 455.032397 427.950765 
L 455.289515 427.244763 
L 455.546633 427.896525 
L 455.803752 427.468724 
L 456.06087 427.611324 
L 456.317988 426.879077 
L 456.575106 427.796792 
L 456.832224 427.803791 
L 457.089342 427.69706 
L 457.346461 427.032175 
L 457.603579 426.696233 
L 457.860697 428.361069 
L 458.117815 428.352321 
L 458.632051 426.386537 
L 458.88917 427.83791 
L 459.403406 425.853755 
L 459.660524 425.216865 
L 459.917642 425.866002 
L 460.17476 427.111786 
L 460.688997 426.57288 
L 460.946115 425.739149 
L 461.203233 426.353293 
L 461.460351 425.098761 
L 461.71747 425.081264 
L 461.974588 424.61322 
L 462.231706 424.738323 
L 462.488824 426.201069 
L 463.00306 424.768068 
L 463.260179 425.074265 
L 463.517297 426.13808 
L 463.774415 426.152953 
L 464.288651 424.901045 
L 464.545769 425.718153 
L 464.802888 429.256914 
L 465.060006 428.102114 
L 465.317124 427.602576 
L 465.574242 424.685832 
L 465.83136 425.001652 
L 466.088478 424.928165 
L 466.345597 423.746245 
L 466.602715 423.225711 
L 466.859833 424.49774 
L 467.116951 424.437375 
L 467.374069 424.048068 
L 467.631187 423.116355 
L 468.145424 425.097011 
L 468.402542 424.966659 
L 468.65966 424.197667 
L 469.431015 424.817934 
L 469.688133 424.889672 
L 469.945251 424.387509 
L 470.202369 424.673584 
L 470.459487 424.559854 
L 470.973724 423.162722 
L 471.48796 424.570352 
L 471.745078 424.453123 
L 472.002196 423.811859 
L 472.259315 423.743621 
L 472.516433 425.4487 
L 472.773551 424.682333 
L 473.030669 424.829307 
L 473.287787 424.2974 
L 473.544905 426.128457 
L 474.059142 426.327922 
L 474.31626 425.717278 
L 474.573378 424.567728 
L 474.830496 425.712029 
L 475.344733 425.021774 
L 475.601851 423.31407 
L 475.858969 423.236209 
L 476.116087 422.808408 
L 476.373205 422.794411 
L 476.630324 420.871495 
L 476.887442 421.783086 
L 477.14456 423.768991 
L 477.401678 423.48729 
L 477.658796 422.301871 
L 477.915914 421.901191 
L 478.173033 422.481215 
L 478.430151 421.207436 
L 478.944387 420.067509 
L 479.201505 421.533755 
L 479.458623 421.840826 
L 479.715742 421.773463 
L 479.97286 421.890693 
L 480.229978 422.293998 
L 480.487096 423.394557 
L 480.744214 423.107606 
L 481.001332 421.640486 
L 481.258451 420.990474 
L 481.515569 422.077035 
L 481.772687 421.569623 
L 482.029805 421.494386 
L 482.286923 420.588044 
L 482.544041 420.403451 
L 482.80116 422.038542 
L 483.058278 421.671106 
L 483.572514 420.32209 
L 483.829632 421.513633 
L 484.343869 421.063961 
L 484.600987 420.225857 
L 484.858105 421.601993 
L 485.115223 421.397278 
L 485.372341 419.83305 
L 485.62946 419.734192 
L 485.886578 420.306343 
L 486.143696 420.483062 
L 486.91505 420.229356 
L 487.172169 420.358834 
L 487.429287 419.980899 
L 487.686405 419.381628 
L 487.943523 419.325638 
L 488.200641 419.646707 
L 488.457759 420.778761 
L 488.714878 420.842625 
L 488.971996 419.888165 
L 489.229114 420.441944 
L 489.486232 420.545176 
L 489.74335 420.523305 
L 490.257587 419.97565 
L 490.514705 422.015796 
L 490.771823 420.687776 
L 491.028941 420.943232 
L 491.286059 420.530304 
L 491.543177 420.611665 
L 491.800296 421.422649 
L 492.057414 423.831106 
L 492.314532 423.497789 
L 492.57165 421.783086 
L 492.828768 422.830279 
L 493.085887 419.836549 
L 493.343005 419.386002 
L 493.600123 418.415796 
L 493.857241 418.808603 
L 494.628596 417.079028 
L 494.885714 417.967874 
L 495.142832 417.491956 
L 495.657068 415.349453 
L 495.914186 415.502552 
L 496.171305 417.643305 
L 496.428423 417.832272 
L 496.685541 419.80418 
L 496.942659 419.08418 
L 497.199777 420.108627 
L 497.456895 421.82158 
L 497.971132 417.724666 
L 498.22825 417.953001 
L 498.485368 418.570644 
L 498.742486 421.267801 
L 498.999604 421.173317 
L 499.256723 418.169089 
L 499.513841 419.220656 
L 499.770959 419.469113 
L 500.028077 419.545225 
L 500.285195 418.544399 
L 500.542314 416.960923 
L 500.799432 416.555869 
L 501.313668 416.932053 
L 501.570786 416.393147 
L 501.827904 416.994168 
L 502.342141 417.021288 
L 502.599259 416.00384 
L 503.113495 417.661677 
L 503.370613 417.3826 
L 503.627732 416.744836 
L 503.88485 416.502503 
L 504.141968 417.5287 
L 504.656204 417.403597 
L 504.913322 416.717716 
L 505.427559 418.601264 
L 505.684677 418.371179 
L 505.941795 417.856768 
L 506.198913 417.051908 
L 506.456031 417.565443 
L 506.71315 416.98017 
L 506.970268 416.074702 
L 507.227386 416.099198 
L 507.484504 416.63548 
L 507.741622 416.878688 
L 507.998741 416.687971 
L 508.255859 415.999465 
L 508.770095 418.203208 
L 509.027213 417.87164 
L 509.284331 417.073779 
L 509.54145 417.002041 
L 509.798568 417.379101 
L 510.055686 417.104399 
L 510.312804 416.510377 
L 510.569922 414.588335 
L 511.084159 415.979344 
L 511.341277 415.670522 
L 511.855513 414.321507 
L 512.112631 414.873536 
L 512.369749 414.160535 
L 512.626868 413.814095 
L 512.883986 412.549939 
L 513.141104 413.0661 
L 513.398222 413.129089 
L 513.65534 412.674168 
L 513.912458 411.871057 
L 514.169577 412.041652 
L 514.426695 413.243694 
L 514.683813 413.29706 
L 514.940931 412.328603 
L 515.198049 412.264739 
L 515.455168 413.177205 
L 515.712286 412.923499 
L 515.969404 413.2052 
L 516.226522 412.644423 
L 516.740758 414.13079 
L 516.997877 413.58051 
L 517.512113 411.759951 
L 517.769231 411.534241 
L 518.026349 411.96729 
L 518.283467 411.682965 
L 518.540586 410.682139 
L 518.797704 411.830814 
L 519.054822 412.17113 
L 519.31194 412.123013 
L 519.569058 410.919222 
L 519.826176 411.238542 
L 520.083295 413.045978 
L 520.340413 412.220122 
L 520.597531 412.264739 
L 520.854649 411.695213 
L 521.111767 412.671543 
L 521.368885 412.861385 
L 521.626004 412.722284 
L 521.883122 412.119514 
L 522.14024 412.374095 
L 522.397358 412.826391 
L 522.654476 412.648797 
L 522.911595 411.591981 
L 523.168713 412.180753 
L 523.425831 413.702989 
L 523.682949 413.521896 
L 524.197185 412.078396 
L 524.454304 412.737157 
L 524.711422 412.384593 
L 524.96854 411.601604 
L 525.225658 411.667217 
L 525.739894 413.315431 
L 526.254131 413.046853 
L 526.511249 412.458955 
L 526.768367 413.154459 
L 527.025485 412.909502 
L 527.539722 411.330401 
L 527.79684 411.242916 
L 528.053958 409.592078 
L 528.311076 409.219392 
L 528.568194 408.059344 
L 528.825312 411.762576 
L 529.082431 412.881507 
L 529.339549 412.709162 
L 529.596667 412.762527 
L 529.853785 409.667315 
L 530.110903 409.600826 
L 530.368022 409.293755 
L 530.62514 407.7339 
L 530.882258 406.878299 
L 531.396494 409.253512 
L 531.653612 408.655115 
L 531.910731 408.481021 
L 532.167849 408.023475 
L 532.424967 408.465273 
L 532.682085 408.250936 
L 532.939203 408.194945 
L 533.196321 407.64904 
L 533.45344 407.765395 
L 533.710558 409.164277 
L 533.967676 409.144156 
L 534.481912 407.662163 
L 534.73903 408.17045 
L 534.996149 407.959611 
L 535.253267 407.459198 
L 535.510385 406.235286 
L 535.767503 408.391786 
L 536.281739 408.250061 
L 536.538858 407.166999 
L 537.053094 408.19407 
L 537.310212 407.905371 
L 537.56733 407.883499 
L 537.824448 407.351592 
L 538.081567 409.512467 
L 538.338685 407.941239 
L 538.595803 407.220365 
L 538.852921 407.36384 
L 539.110039 407.740899 
L 539.367158 408.548384 
L 539.624276 408.345419 
L 539.881394 407.524812 
L 540.138512 408.103961 
L 540.39563 409.003305 
L 540.652748 409.041798 
L 541.166985 407.99373 
L 541.424103 408.3113 
L 541.681221 408.318299 
L 541.938339 408.175699 
L 542.195457 407.543183 
L 542.709694 408.481896 
L 542.966812 407.888748 
L 543.22393 408.089964 
L 543.481048 407.615796 
L 543.738166 408.118834 
L 543.995285 408.106586 
L 544.252403 407.116258 
L 544.509521 406.661337 
L 544.766639 406.95966 
L 545.280875 405.831981 
L 545.537994 404.690304 
L 545.795112 405.645638 
L 546.309348 404.730547 
L 546.566466 404.854775 
L 546.823585 403.862697 
L 547.080703 405.776865 
L 547.337821 405.524909 
L 547.594939 404.914265 
L 547.852057 403.726221 
L 548.109175 403.248554 
L 548.366294 403.553876 
L 548.623412 403.546877 
L 548.88053 403.424399 
L 549.137648 402.305468 
L 549.394766 404.316744 
L 549.651884 403.547752 
L 549.909003 403.4139 
L 550.166121 402.81288 
L 550.680357 405.275577 
L 550.937475 404.42435 
L 551.194593 404.172394 
L 551.70883 404.618566 
L 551.965948 404.328991 
L 552.223066 404.433098 
L 552.480184 403.441896 
L 552.737302 404.197764 
L 553.251539 403.746343 
L 553.508657 402.891616 
L 554.022893 403.797084 
L 554.280012 403.764714 
L 554.794248 402.457691 
L 555.051366 404.294872 
L 555.308484 404.369235 
L 555.565602 404.170644 
L 555.822721 402.702649 
L 556.079839 403.089332 
L 556.336957 404.165395 
L 556.594075 404.315869 
L 557.108311 403.207436 
L 557.36543 403.914313 
L 557.622548 403.974678 
L 557.879666 403.913439 
L 558.136784 403.438396 
L 558.393902 404.156646 
L 558.65102 404.514459 
L 559.165257 402.456817 
L 559.422375 402.842625 
L 559.679493 404.71305 
L 559.936611 404.10853 
L 560.193729 403.90294 
L 560.450848 404.255504 
L 560.707966 405.244083 
L 560.965084 408.026974 
L 561.222202 407.846756 
L 561.47932 406.734824 
L 561.736439 407.122382 
L 561.993557 405.931713 
L 562.250675 405.470668 
L 562.764911 402.75514 
L 563.022029 405.752369 
L 563.279148 405.731373 
L 563.536266 402.842625 
L 563.793384 401.924909 
L 564.050502 402.141871 
L 564.30762 403.712224 
L 564.564738 401.570595 
L 565.078975 400.482284 
L 565.336093 401.385128 
L 565.593211 400.648505 
L 565.850329 400.773609 
L 566.107447 400.165589 
L 566.364566 401.476987 
L 566.878802 401.441993 
L 567.13592 400.816476 
L 567.393038 399.55407 
L 567.650156 400.496282 
L 567.907275 400.582017 
L 568.164393 400.297691 
L 568.421511 399.484957 
L 568.678629 400.434168 
L 568.935747 400.79373 
L 569.449984 398.168311 
L 569.707102 398.819198 
L 569.96422 399.799028 
L 570.221338 400.142843 
L 570.478456 399.507704 
L 570.735575 399.78678 
L 570.992693 400.474411 
L 571.506929 400.374678 
L 571.764047 399.350231 
L 572.021165 400.747363 
L 572.278284 400.874216 
L 572.535402 400.428044 
L 572.79252 399.365103 
L 573.306756 400.155091 
L 573.563874 398.979295 
L 573.820993 398.708092 
L 574.078111 398.104447 
L 574.335229 400.224204 
L 574.592347 399.848019 
L 574.849465 400.014241 
L 575.106583 399.18226 
L 575.363702 399.311738 
L 575.62082 399.75791 
L 575.877938 399.566318 
L 576.135056 398.947801 
L 576.649293 400.725492 
L 576.906411 400.700122 
L 577.163529 400.50503 
L 577.420647 399.780656 
L 577.677765 400.222454 
L 577.934883 400.141968 
L 578.44912 398.771081 
L 578.963356 400.231203 
L 579.220474 400.183961 
L 579.477592 399.078153 
L 579.734711 401.616962 
L 579.991829 398.34503 
L 580.506065 397.238348 
L 580.763183 396.857789 
L 581.020301 397.16661 
L 581.534538 396.554216 
L 581.791656 395.228821 
L 582.048774 395.408165 
L 582.305892 395.736233 
L 582.56301 395.449283 
L 582.820129 394.864885 
L 583.077247 393.825565 
L 583.334365 395.194702 
L 583.591483 395.215699 
L 584.105719 393.869307 
L 584.362838 394.812394 
L 584.619956 394.116015 
L 584.877074 393.954168 
L 585.134192 393.241166 
L 585.39131 393.081069 
L 585.648429 394.712661 
L 585.905547 394.511446 
L 586.162665 394.644423 
L 586.419783 395.78435 
L 586.676901 395.821968 
L 586.934019 395.100219 
L 587.191138 395.142211 
L 587.448256 394.469453 
L 587.962492 395.884957 
L 588.476728 395.980316 
L 588.733847 395.360923 
L 588.990965 395.808846 
L 589.248083 395.961944 
L 589.505201 395.712612 
L 589.762319 395.066974 
L 590.019437 395.471154 
L 590.276556 395.049478 
L 590.533674 395.157084 
L 590.790792 394.501823 
L 591.305028 396.607582 
L 591.819265 396.807922 
L 592.076383 396.201652 
L 592.333501 396.584836 
L 592.590619 395.751981 
L 592.847737 395.824593 
L 593.104856 397.180608 
L 593.361974 397.85599 
L 593.619092 399.417594 
L 593.87621 398.892685 
L 594.133328 396.606707 
L 594.390446 395.852588 
L 594.647565 396.435237 
L 594.904683 395.820219 
L 595.161801 395.909453 
L 595.418919 395.238445 
L 595.676037 396.435237 
L 595.933155 395.655747 
L 596.190274 395.599757 
L 596.447392 394.738032 
L 596.961628 395.629502 
L 597.475864 394.947995 
L 597.732983 393.648846 
L 597.990101 393.978663 
L 598.247219 394.127388 
L 598.504337 393.667217 
L 598.761455 392.238591 
L 599.275692 394.428335 
L 599.53281 393.964666 
L 600.047046 392.326075 
L 600.304164 392.864982 
L 600.561283 391.879903 
L 600.818401 391.63582 
L 601.075519 390.998056 
L 601.332637 391.616574 
L 601.589755 392.936719 
L 601.846873 392.925346 
L 602.36111 390.998931 
L 602.618228 391.945516 
L 603.132464 391.829162 
L 603.389582 391.395237 
L 603.646701 392.944593 
L 604.160937 389.334095 
L 604.418055 389.426829 
L 604.675173 390.068092 
L 604.932291 391.211519 
L 605.18941 391.284131 
L 605.446528 391.089915 
L 605.703646 390.393536 
L 605.960764 390.999806 
L 606.475 390.786343 
L 606.732119 390.10921 
L 607.246355 391.792418 
L 607.503473 391.795917 
L 607.760591 390.991932 
L 608.01771 389.660413 
L 608.274828 390.984933 
L 608.531946 390.763597 
L 608.789064 389.666537 
L 609.046182 389.573803 
L 609.3033 390.764471 
L 609.560419 391.03305 
L 609.817537 390.045346 
L 610.074655 389.783767 
L 610.331773 390.190571 
L 610.588891 392.395188 
L 610.846009 391.501094 
L 611.103128 391.072418 
L 611.360246 390.872953 
L 611.617364 392.15723 
L 612.1316 392.081993 
L 612.388718 391.068044 
L 612.645837 391.522965 
L 612.902955 390.061094 
L 613.160073 389.983232 
L 613.417191 389.141628 
L 613.674309 389.208117 
L 613.931427 389.827509 
L 614.188546 389.88175 
L 614.445664 389.505565 
L 614.702782 388.532734 
L 614.9599 388.444374 
L 615.731255 387.245832 
L 616.245491 389.084763 
L 616.502609 388.944787 
L 617.016846 387.696379 
L 617.273964 388.173171 
L 618.045318 385.708724 
L 618.302436 386.649186 
L 618.816673 387.314945 
L 619.073791 386.698177 
L 619.330909 385.541628 
L 619.330909 385.541628 
" style="fill:none;stroke:#1f77b4;stroke-linecap:square;stroke-width:1.5;"/>
   </g>
   <g id="patch_3">
    <path d="M 108 448.56 
L 108 60.48 
" style="fill:none;stroke:#000000;stroke-linecap:square;stroke-linejoin:miter;stroke-width:0.8;"/>
   </g>
   <g id="patch_4">
    <path d="M 643.68 448.56 
L 643.68 60.48 
" style="fill:none;stroke:#000000;stroke-linecap:square;stroke-linejoin:miter;stroke-width:0.8;"/>
   </g>
   <g id="patch_5">
    <path d="M 108 448.56 
L 643.68 448.56 
" style="fill:none;stroke:#000000;stroke-linecap:square;stroke-linejoin:miter;stroke-width:0.8;"/>
   </g>
   <g id="patch_6">
    <path d="M 108 60.48 
L 643.68 60.48 
" style="fill:none;stroke:#000000;stroke-linecap:square;stroke-linejoin:miter;stroke-width:0.8;"/>
   </g>
   <g id="text_33">
    <!-- unikernel_dce - vmstat -->
    <g transform="translate(290.309531 54.48)scale(0.15 -0.15)">
     <defs>
      <path d="M 8.5 21.578125 
L 8.5 54.6875 
L 17.484375 54.6875 
L 17.484375 21.921875 
Q 17.484375 14.15625 20.5 10.265625 
Q 23.53125 6.390625 29.59375 6.390625 
Q 36.859375 6.390625 41.078125 11.03125 
Q 45.3125 15.671875 45.3125 23.6875 
L 45.3125 54.6875 
L 54.296875 54.6875 
L 54.296875 0 
L 45.3125 0 
L 45.3125 8.40625 
Q 42.046875 3.421875 37.71875 1 
Q 33.40625 -1.421875 27.6875 -1.421875 
Q 18.265625 -1.421875 13.375 4.4375 
Q 8.5 10.296875 8.5 21.578125 
z
M 31.109375 56 
z
" id="DejaVuSans-117"/>
      <path d="M 54.890625 33.015625 
L 54.890625 0 
L 45.90625 0 
L 45.90625 32.71875 
Q 45.90625 40.484375 42.875 44.328125 
Q 39.84375 48.1875 33.796875 48.1875 
Q 26.515625 48.1875 22.3125 43.546875 
Q 18.109375 38.921875 18.109375 30.90625 
L 18.109375 0 
L 9.078125 0 
L 9.078125 54.6875 
L 18.109375 54.6875 
L 18.109375 46.1875 
Q 21.34375 51.125 25.703125 53.5625 
Q 30.078125 56 35.796875 56 
Q 45.21875 56 50.046875 50.171875 
Q 54.890625 44.34375 54.890625 33.015625 
z
" id="DejaVuSans-110"/>
      <path d="M 9.078125 75.984375 
L 18.109375 75.984375 
L 18.109375 31.109375 
L 44.921875 54.6875 
L 56.390625 54.6875 
L 27.390625 29.109375 
L 57.625 0 
L 45.90625 0 
L 18.109375 26.703125 
L 18.109375 0 
L 9.078125 0 
z
" id="DejaVuSans-107"/>
      <path d="M 41.109375 46.296875 
Q 39.59375 47.171875 37.8125 47.578125 
Q 36.03125 48 33.890625 48 
Q 26.265625 48 22.1875 43.046875 
Q 18.109375 38.09375 18.109375 28.8125 
L 18.109375 0 
L 9.078125 0 
L 9.078125 54.6875 
L 18.109375 54.6875 
L 18.109375 46.1875 
Q 20.953125 51.171875 25.484375 53.578125 
Q 30.03125 56 36.53125 56 
Q 37.453125 56 38.578125 55.875 
Q 39.703125 55.765625 41.0625 55.515625 
z
" id="DejaVuSans-114"/>
      <path d="M 9.421875 75.984375 
L 18.40625 75.984375 
L 18.40625 0 
L 9.421875 0 
z
" id="DejaVuSans-108"/>
      <path d="M 50.984375 -16.609375 
L 50.984375 -23.578125 
L -0.984375 -23.578125 
L -0.984375 -16.609375 
z
" id="DejaVuSans-95"/>
      <path d="M 45.40625 46.390625 
L 45.40625 75.984375 
L 54.390625 75.984375 
L 54.390625 0 
L 45.40625 0 
L 45.40625 8.203125 
Q 42.578125 3.328125 38.25 0.953125 
Q 33.9375 -1.421875 27.875 -1.421875 
Q 17.96875 -1.421875 11.734375 6.484375 
Q 5.515625 14.40625 5.515625 27.296875 
Q 5.515625 40.1875 11.734375 48.09375 
Q 17.96875 56 27.875 56 
Q 33.9375 56 38.25 53.625 
Q 42.578125 51.265625 45.40625 46.390625 
z
M 14.796875 27.296875 
Q 14.796875 17.390625 18.875 11.75 
Q 22.953125 6.109375 30.078125 6.109375 
Q 37.203125 6.109375 41.296875 11.75 
Q 45.40625 17.390625 45.40625 27.296875 
Q 45.40625 37.203125 41.296875 42.84375 
Q 37.203125 48.484375 30.078125 48.484375 
Q 22.953125 48.484375 18.875 42.84375 
Q 14.796875 37.203125 14.796875 27.296875 
z
" id="DejaVuSans-100"/>
      <path d="M 48.78125 52.59375 
L 48.78125 44.1875 
Q 44.96875 46.296875 41.140625 47.34375 
Q 37.3125 48.390625 33.40625 48.390625 
Q 24.65625 48.390625 19.8125 42.84375 
Q 14.984375 37.3125 14.984375 27.296875 
Q 14.984375 17.28125 19.8125 11.734375 
Q 24.65625 6.203125 33.40625 6.203125 
Q 37.3125 6.203125 41.140625 7.25 
Q 44.96875 8.296875 48.78125 10.40625 
L 48.78125 2.09375 
Q 45.015625 0.34375 40.984375 -0.53125 
Q 36.96875 -1.421875 32.421875 -1.421875 
Q 20.0625 -1.421875 12.78125 6.34375 
Q 5.515625 14.109375 5.515625 27.296875 
Q 5.515625 40.671875 12.859375 48.328125 
Q 20.21875 56 33.015625 56 
Q 37.15625 56 41.109375 55.140625 
Q 45.0625 54.296875 48.78125 52.59375 
z
" id="DejaVuSans-99"/>
      <path id="DejaVuSans-32"/>
      <path d="M 4.890625 31.390625 
L 31.203125 31.390625 
L 31.203125 23.390625 
L 4.890625 23.390625 
z
" id="DejaVuSans-45"/>
      <path d="M 2.984375 54.6875 
L 12.5 54.6875 
L 29.59375 8.796875 
L 46.6875 54.6875 
L 56.203125 54.6875 
L 35.6875 0 
L 23.484375 0 
z
" id="DejaVuSans-118"/>
     </defs>
     <use xlink:href="#DejaVuSans-117"/>
     <use x="63.378906" xlink:href="#DejaVuSans-110"/>
     <use x="126.757812" xlink:href="#DejaVuSans-105"/>
     <use x="154.541016" xlink:href="#DejaVuSans-107"/>
     <use x="208.826172" xlink:href="#DejaVuSans-101"/>
     <use x="270.349609" xlink:href="#DejaVuSans-114"/>
     <use x="309.712891" xlink:href="#DejaVuSans-110"/>
     <use x="373.091797" xlink:href="#DejaVuSans-101"/>
     <use x="434.615234" xlink:href="#DejaVuSans-108"/>
     <use x="462.398438" xlink:href="#DejaVuSans-95"/>
     <use x="512.398438" xlink:href="#DejaVuSans-100"/>
     <use x="575.875" xlink:href="#DejaVuSans-99"/>
     <use x="630.855469" xlink:href="#DejaVuSans-101"/>
     <use x="692.378906" xlink:href="#DejaVuSans-32"/>
     <use x="724.166016" xlink:href="#DejaVuSans-45"/>
     <use x="760.25" xlink:href="#DejaVuSans-32"/>
     <use x="792.037109" xlink:href="#DejaVuSans-118"/>
     <use x="851.216797" xlink:href="#DejaVuSans-109"/>
     <use x="948.628906" xlink:href="#DejaVuSans-115"/>
     <use x="1000.728516" xlink:href="#DejaVuSans-116"/>
     <use x="1039.9375" xlink:href="#DejaVuSans-97"/>
     <use x="1101.216797" xlink:href="#DejaVuSans-116"/>
    </g>
   </g>
   <g id="legend_1">
    <g id="patch_7">
     <path d="M 650.68 258.52 
L 654.68 258.52 
Q 656.68 258.52 656.68 256.52 
L 656.68 252.52 
Q 656.68 250.52 654.68 250.52 
L 650.68 250.52 
Q 648.68 250.52 648.68 252.52 
L 648.68 256.52 
Q 648.68 258.52 650.68 258.52 
z
" style="fill:#ffffff;opacity:0.8;stroke:#cccccc;stroke-linejoin:miter;"/>
    </g>
   </g>
  </g>
 </g>
 <defs>
  <clipPath id="p469a995e74">
   <rect height="388.08" width="535.68" x="108" y="60.48"/>
  </clipPath>
 </defs>
</svg>
