<?xml version="1.0" encoding="utf-8" standalone="no"?>
<!DOCTYPE svg PUBLIC "-//W3C//DTD SVG 1.1//EN"
  "http://www.w3.org/Graphics/SVG/1.1/DTD/svg11.dtd">
<!-- Created with matplotlib (https://matplotlib.org/) -->
<svg height="504pt" version="1.1" viewBox="0 0 864 504" width="864pt" xmlns="http://www.w3.org/2000/svg" xmlns:xlink="http://www.w3.org/1999/xlink">
 <metadata>
  <rdf:RDF xmlns:cc="http://creativecommons.org/ns#" xmlns:dc="http://purl.org/dc/elements/1.1/" xmlns:rdf="http://www.w3.org/1999/02/22-rdf-syntax-ns#">
   <cc:Work>
    <dc:type rdf:resource="http://purl.org/dc/dcmitype/StillImage"/>
    <dc:date>2022-05-29T16:55:09.091451</dc:date>
    <dc:format>image/svg+xml</dc:format>
    <dc:creator>
     <cc:Agent>
      <dc:title>Matplotlib v3.3.4, https://matplotlib.org/</dc:title>
     </cc:Agent>
    </dc:creator>
   </cc:Work>
  </rdf:RDF>
 </metadata>
 <defs>
  <style type="text/css">*{stroke-linecap:butt;stroke-linejoin:round;}</style>
 </defs>
 <g id="figure_1">
  <g id="patch_1">
   <path d="M 0 504 
L 864 504 
L 864 0 
L 0 0 
z
" style="fill:#ffffff;"/>
  </g>
  <g id="axes_1">
   <g id="patch_2">
    <path d="M 108 448.56 
L 643.68 448.56 
L 643.68 60.48 
L 108 60.48 
z
" style="fill:#ffffff;"/>
   </g>
   <g id="matplotlib.axis_1">
    <g id="xtick_1">
     <g id="line2d_1">
      <defs>
       <path d="M 0 0 
L 0 3.5 
" id="mb236a86112" style="stroke:#000000;stroke-width:0.8;"/>
      </defs>
      <g>
       <use style="stroke:#000000;stroke-width:0.8;" x="132.349091" xlink:href="#mb236a86112" y="448.56"/>
      </g>
     </g>
     <g id="text_1">
      <!-- 18:34:03 -->
      <g transform="translate(135.108466 500.4725)rotate(-90)scale(0.1 -0.1)">
       <defs>
        <path d="M 12.40625 8.296875 
L 28.515625 8.296875 
L 28.515625 63.921875 
L 10.984375 60.40625 
L 10.984375 69.390625 
L 28.421875 72.90625 
L 38.28125 72.90625 
L 38.28125 8.296875 
L 54.390625 8.296875 
L 54.390625 0 
L 12.40625 0 
z
" id="DejaVuSans-49"/>
        <path d="M 31.78125 34.625 
Q 24.75 34.625 20.71875 30.859375 
Q 16.703125 27.09375 16.703125 20.515625 
Q 16.703125 13.921875 20.71875 10.15625 
Q 24.75 6.390625 31.78125 6.390625 
Q 38.8125 6.390625 42.859375 10.171875 
Q 46.921875 13.96875 46.921875 20.515625 
Q 46.921875 27.09375 42.890625 30.859375 
Q 38.875 34.625 31.78125 34.625 
z
M 21.921875 38.8125 
Q 15.578125 40.375 12.03125 44.71875 
Q 8.5 49.078125 8.5 55.328125 
Q 8.5 64.0625 14.71875 69.140625 
Q 20.953125 74.21875 31.78125 74.21875 
Q 42.671875 74.21875 48.875 69.140625 
Q 55.078125 64.0625 55.078125 55.328125 
Q 55.078125 49.078125 51.53125 44.71875 
Q 48 40.375 41.703125 38.8125 
Q 48.828125 37.15625 52.796875 32.3125 
Q 56.78125 27.484375 56.78125 20.515625 
Q 56.78125 9.90625 50.3125 4.234375 
Q 43.84375 -1.421875 31.78125 -1.421875 
Q 19.734375 -1.421875 13.25 4.234375 
Q 6.78125 9.90625 6.78125 20.515625 
Q 6.78125 27.484375 10.78125 32.3125 
Q 14.796875 37.15625 21.921875 38.8125 
z
M 18.3125 54.390625 
Q 18.3125 48.734375 21.84375 45.5625 
Q 25.390625 42.390625 31.78125 42.390625 
Q 38.140625 42.390625 41.71875 45.5625 
Q 45.3125 48.734375 45.3125 54.390625 
Q 45.3125 60.0625 41.71875 63.234375 
Q 38.140625 66.40625 31.78125 66.40625 
Q 25.390625 66.40625 21.84375 63.234375 
Q 18.3125 60.0625 18.3125 54.390625 
z
" id="DejaVuSans-56"/>
        <path d="M 11.71875 12.40625 
L 22.015625 12.40625 
L 22.015625 0 
L 11.71875 0 
z
M 11.71875 51.703125 
L 22.015625 51.703125 
L 22.015625 39.3125 
L 11.71875 39.3125 
z
" id="DejaVuSans-58"/>
        <path d="M 40.578125 39.3125 
Q 47.65625 37.796875 51.625 33 
Q 55.609375 28.21875 55.609375 21.1875 
Q 55.609375 10.40625 48.1875 4.484375 
Q 40.765625 -1.421875 27.09375 -1.421875 
Q 22.515625 -1.421875 17.65625 -0.515625 
Q 12.796875 0.390625 7.625 2.203125 
L 7.625 11.71875 
Q 11.71875 9.328125 16.59375 8.109375 
Q 21.484375 6.890625 26.8125 6.890625 
Q 36.078125 6.890625 40.9375 10.546875 
Q 45.796875 14.203125 45.796875 21.1875 
Q 45.796875 27.640625 41.28125 31.265625 
Q 36.765625 34.90625 28.71875 34.90625 
L 20.21875 34.90625 
L 20.21875 43.015625 
L 29.109375 43.015625 
Q 36.375 43.015625 40.234375 45.921875 
Q 44.09375 48.828125 44.09375 54.296875 
Q 44.09375 59.90625 40.109375 62.90625 
Q 36.140625 65.921875 28.71875 65.921875 
Q 24.65625 65.921875 20.015625 65.03125 
Q 15.375 64.15625 9.8125 62.3125 
L 9.8125 71.09375 
Q 15.4375 72.65625 20.34375 73.4375 
Q 25.25 74.21875 29.59375 74.21875 
Q 40.828125 74.21875 47.359375 69.109375 
Q 53.90625 64.015625 53.90625 55.328125 
Q 53.90625 49.265625 50.4375 45.09375 
Q 46.96875 40.921875 40.578125 39.3125 
z
" id="DejaVuSans-51"/>
        <path d="M 37.796875 64.3125 
L 12.890625 25.390625 
L 37.796875 25.390625 
z
M 35.203125 72.90625 
L 47.609375 72.90625 
L 47.609375 25.390625 
L 58.015625 25.390625 
L 58.015625 17.1875 
L 47.609375 17.1875 
L 47.609375 0 
L 37.796875 0 
L 37.796875 17.1875 
L 4.890625 17.1875 
L 4.890625 26.703125 
z
" id="DejaVuSans-52"/>
        <path d="M 31.78125 66.40625 
Q 24.171875 66.40625 20.328125 58.90625 
Q 16.5 51.421875 16.5 36.375 
Q 16.5 21.390625 20.328125 13.890625 
Q 24.171875 6.390625 31.78125 6.390625 
Q 39.453125 6.390625 43.28125 13.890625 
Q 47.125 21.390625 47.125 36.375 
Q 47.125 51.421875 43.28125 58.90625 
Q 39.453125 66.40625 31.78125 66.40625 
z
M 31.78125 74.21875 
Q 44.046875 74.21875 50.515625 64.515625 
Q 56.984375 54.828125 56.984375 36.375 
Q 56.984375 17.96875 50.515625 8.265625 
Q 44.046875 -1.421875 31.78125 -1.421875 
Q 19.53125 -1.421875 13.0625 8.265625 
Q 6.59375 17.96875 6.59375 36.375 
Q 6.59375 54.828125 13.0625 64.515625 
Q 19.53125 74.21875 31.78125 74.21875 
z
" id="DejaVuSans-48"/>
       </defs>
       <use xlink:href="#DejaVuSans-49"/>
       <use x="63.623047" xlink:href="#DejaVuSans-56"/>
       <use x="127.246094" xlink:href="#DejaVuSans-58"/>
       <use x="160.9375" xlink:href="#DejaVuSans-51"/>
       <use x="224.560547" xlink:href="#DejaVuSans-52"/>
       <use x="288.183594" xlink:href="#DejaVuSans-58"/>
       <use x="321.875" xlink:href="#DejaVuSans-48"/>
       <use x="385.498047" xlink:href="#DejaVuSans-51"/>
      </g>
     </g>
    </g>
    <g id="xtick_2">
     <g id="line2d_2">
      <g>
       <use style="stroke:#000000;stroke-width:0.8;" x="156.543748" xlink:href="#mb236a86112" y="448.56"/>
      </g>
     </g>
     <g id="text_2">
      <!-- 18:35:56 -->
      <g transform="translate(159.303123 500.4725)rotate(-90)scale(0.1 -0.1)">
       <defs>
        <path d="M 10.796875 72.90625 
L 49.515625 72.90625 
L 49.515625 64.59375 
L 19.828125 64.59375 
L 19.828125 46.734375 
Q 21.96875 47.46875 24.109375 47.828125 
Q 26.265625 48.1875 28.421875 48.1875 
Q 40.625 48.1875 47.75 41.5 
Q 54.890625 34.8125 54.890625 23.390625 
Q 54.890625 11.625 47.5625 5.09375 
Q 40.234375 -1.421875 26.90625 -1.421875 
Q 22.3125 -1.421875 17.546875 -0.640625 
Q 12.796875 0.140625 7.71875 1.703125 
L 7.71875 11.625 
Q 12.109375 9.234375 16.796875 8.0625 
Q 21.484375 6.890625 26.703125 6.890625 
Q 35.15625 6.890625 40.078125 11.328125 
Q 45.015625 15.765625 45.015625 23.390625 
Q 45.015625 31 40.078125 35.4375 
Q 35.15625 39.890625 26.703125 39.890625 
Q 22.75 39.890625 18.8125 39.015625 
Q 14.890625 38.140625 10.796875 36.28125 
z
" id="DejaVuSans-53"/>
        <path d="M 33.015625 40.375 
Q 26.375 40.375 22.484375 35.828125 
Q 18.609375 31.296875 18.609375 23.390625 
Q 18.609375 15.53125 22.484375 10.953125 
Q 26.375 6.390625 33.015625 6.390625 
Q 39.65625 6.390625 43.53125 10.953125 
Q 47.40625 15.53125 47.40625 23.390625 
Q 47.40625 31.296875 43.53125 35.828125 
Q 39.65625 40.375 33.015625 40.375 
z
M 52.59375 71.296875 
L 52.59375 62.3125 
Q 48.875 64.0625 45.09375 64.984375 
Q 41.3125 65.921875 37.59375 65.921875 
Q 27.828125 65.921875 22.671875 59.328125 
Q 17.53125 52.734375 16.796875 39.40625 
Q 19.671875 43.65625 24.015625 45.921875 
Q 28.375 48.1875 33.59375 48.1875 
Q 44.578125 48.1875 50.953125 41.515625 
Q 57.328125 34.859375 57.328125 23.390625 
Q 57.328125 12.15625 50.6875 5.359375 
Q 44.046875 -1.421875 33.015625 -1.421875 
Q 20.359375 -1.421875 13.671875 8.265625 
Q 6.984375 17.96875 6.984375 36.375 
Q 6.984375 53.65625 15.1875 63.9375 
Q 23.390625 74.21875 37.203125 74.21875 
Q 40.921875 74.21875 44.703125 73.484375 
Q 48.484375 72.75 52.59375 71.296875 
z
" id="DejaVuSans-54"/>
       </defs>
       <use xlink:href="#DejaVuSans-49"/>
       <use x="63.623047" xlink:href="#DejaVuSans-56"/>
       <use x="127.246094" xlink:href="#DejaVuSans-58"/>
       <use x="160.9375" xlink:href="#DejaVuSans-51"/>
       <use x="224.560547" xlink:href="#DejaVuSans-53"/>
       <use x="288.183594" xlink:href="#DejaVuSans-58"/>
       <use x="321.875" xlink:href="#DejaVuSans-53"/>
       <use x="385.498047" xlink:href="#DejaVuSans-54"/>
      </g>
     </g>
    </g>
    <g id="xtick_3">
     <g id="line2d_3">
      <g>
       <use style="stroke:#000000;stroke-width:0.8;" x="180.738405" xlink:href="#mb236a86112" y="448.56"/>
      </g>
     </g>
     <g id="text_3">
      <!-- 18:37:49 -->
      <g transform="translate(183.49778 500.4725)rotate(-90)scale(0.1 -0.1)">
       <defs>
        <path d="M 8.203125 72.90625 
L 55.078125 72.90625 
L 55.078125 68.703125 
L 28.609375 0 
L 18.3125 0 
L 43.21875 64.59375 
L 8.203125 64.59375 
z
" id="DejaVuSans-55"/>
        <path d="M 10.984375 1.515625 
L 10.984375 10.5 
Q 14.703125 8.734375 18.5 7.8125 
Q 22.3125 6.890625 25.984375 6.890625 
Q 35.75 6.890625 40.890625 13.453125 
Q 46.046875 20.015625 46.78125 33.40625 
Q 43.953125 29.203125 39.59375 26.953125 
Q 35.25 24.703125 29.984375 24.703125 
Q 19.046875 24.703125 12.671875 31.3125 
Q 6.296875 37.9375 6.296875 49.421875 
Q 6.296875 60.640625 12.9375 67.421875 
Q 19.578125 74.21875 30.609375 74.21875 
Q 43.265625 74.21875 49.921875 64.515625 
Q 56.59375 54.828125 56.59375 36.375 
Q 56.59375 19.140625 48.40625 8.859375 
Q 40.234375 -1.421875 26.421875 -1.421875 
Q 22.703125 -1.421875 18.890625 -0.6875 
Q 15.09375 0.046875 10.984375 1.515625 
z
M 30.609375 32.421875 
Q 37.25 32.421875 41.125 36.953125 
Q 45.015625 41.5 45.015625 49.421875 
Q 45.015625 57.28125 41.125 61.84375 
Q 37.25 66.40625 30.609375 66.40625 
Q 23.96875 66.40625 20.09375 61.84375 
Q 16.21875 57.28125 16.21875 49.421875 
Q 16.21875 41.5 20.09375 36.953125 
Q 23.96875 32.421875 30.609375 32.421875 
z
" id="DejaVuSans-57"/>
       </defs>
       <use xlink:href="#DejaVuSans-49"/>
       <use x="63.623047" xlink:href="#DejaVuSans-56"/>
       <use x="127.246094" xlink:href="#DejaVuSans-58"/>
       <use x="160.9375" xlink:href="#DejaVuSans-51"/>
       <use x="224.560547" xlink:href="#DejaVuSans-55"/>
       <use x="288.183594" xlink:href="#DejaVuSans-58"/>
       <use x="321.875" xlink:href="#DejaVuSans-52"/>
       <use x="385.498047" xlink:href="#DejaVuSans-57"/>
      </g>
     </g>
    </g>
    <g id="xtick_4">
     <g id="line2d_4">
      <g>
       <use style="stroke:#000000;stroke-width:0.8;" x="204.933062" xlink:href="#mb236a86112" y="448.56"/>
      </g>
     </g>
     <g id="text_4">
      <!-- 18:39:41 -->
      <g transform="translate(207.692437 500.4725)rotate(-90)scale(0.1 -0.1)">
       <use xlink:href="#DejaVuSans-49"/>
       <use x="63.623047" xlink:href="#DejaVuSans-56"/>
       <use x="127.246094" xlink:href="#DejaVuSans-58"/>
       <use x="160.9375" xlink:href="#DejaVuSans-51"/>
       <use x="224.560547" xlink:href="#DejaVuSans-57"/>
       <use x="288.183594" xlink:href="#DejaVuSans-58"/>
       <use x="321.875" xlink:href="#DejaVuSans-52"/>
       <use x="385.498047" xlink:href="#DejaVuSans-49"/>
      </g>
     </g>
    </g>
    <g id="xtick_5">
     <g id="line2d_5">
      <g>
       <use style="stroke:#000000;stroke-width:0.8;" x="229.127719" xlink:href="#mb236a86112" y="448.56"/>
      </g>
     </g>
     <g id="text_5">
      <!-- 18:41:34 -->
      <g transform="translate(231.887094 500.4725)rotate(-90)scale(0.1 -0.1)">
       <use xlink:href="#DejaVuSans-49"/>
       <use x="63.623047" xlink:href="#DejaVuSans-56"/>
       <use x="127.246094" xlink:href="#DejaVuSans-58"/>
       <use x="160.9375" xlink:href="#DejaVuSans-52"/>
       <use x="224.560547" xlink:href="#DejaVuSans-49"/>
       <use x="288.183594" xlink:href="#DejaVuSans-58"/>
       <use x="321.875" xlink:href="#DejaVuSans-51"/>
       <use x="385.498047" xlink:href="#DejaVuSans-52"/>
      </g>
     </g>
    </g>
    <g id="xtick_6">
     <g id="line2d_6">
      <g>
       <use style="stroke:#000000;stroke-width:0.8;" x="253.322376" xlink:href="#mb236a86112" y="448.56"/>
      </g>
     </g>
     <g id="text_6">
      <!-- 18:43:27 -->
      <g transform="translate(256.081751 500.4725)rotate(-90)scale(0.1 -0.1)">
       <defs>
        <path d="M 19.1875 8.296875 
L 53.609375 8.296875 
L 53.609375 0 
L 7.328125 0 
L 7.328125 8.296875 
Q 12.9375 14.109375 22.625 23.890625 
Q 32.328125 33.6875 34.8125 36.53125 
Q 39.546875 41.84375 41.421875 45.53125 
Q 43.3125 49.21875 43.3125 52.78125 
Q 43.3125 58.59375 39.234375 62.25 
Q 35.15625 65.921875 28.609375 65.921875 
Q 23.96875 65.921875 18.8125 64.3125 
Q 13.671875 62.703125 7.8125 59.421875 
L 7.8125 69.390625 
Q 13.765625 71.78125 18.9375 73 
Q 24.125 74.21875 28.421875 74.21875 
Q 39.75 74.21875 46.484375 68.546875 
Q 53.21875 62.890625 53.21875 53.421875 
Q 53.21875 48.921875 51.53125 44.890625 
Q 49.859375 40.875 45.40625 35.40625 
Q 44.1875 33.984375 37.640625 27.21875 
Q 31.109375 20.453125 19.1875 8.296875 
z
" id="DejaVuSans-50"/>
       </defs>
       <use xlink:href="#DejaVuSans-49"/>
       <use x="63.623047" xlink:href="#DejaVuSans-56"/>
       <use x="127.246094" xlink:href="#DejaVuSans-58"/>
       <use x="160.9375" xlink:href="#DejaVuSans-52"/>
       <use x="224.560547" xlink:href="#DejaVuSans-51"/>
       <use x="288.183594" xlink:href="#DejaVuSans-58"/>
       <use x="321.875" xlink:href="#DejaVuSans-50"/>
       <use x="385.498047" xlink:href="#DejaVuSans-55"/>
      </g>
     </g>
    </g>
    <g id="xtick_7">
     <g id="line2d_7">
      <g>
       <use style="stroke:#000000;stroke-width:0.8;" x="277.517032" xlink:href="#mb236a86112" y="448.56"/>
      </g>
     </g>
     <g id="text_7">
      <!-- 18:45:19 -->
      <g transform="translate(280.276407 500.4725)rotate(-90)scale(0.1 -0.1)">
       <use xlink:href="#DejaVuSans-49"/>
       <use x="63.623047" xlink:href="#DejaVuSans-56"/>
       <use x="127.246094" xlink:href="#DejaVuSans-58"/>
       <use x="160.9375" xlink:href="#DejaVuSans-52"/>
       <use x="224.560547" xlink:href="#DejaVuSans-53"/>
       <use x="288.183594" xlink:href="#DejaVuSans-58"/>
       <use x="321.875" xlink:href="#DejaVuSans-49"/>
       <use x="385.498047" xlink:href="#DejaVuSans-57"/>
      </g>
     </g>
    </g>
    <g id="xtick_8">
     <g id="line2d_8">
      <g>
       <use style="stroke:#000000;stroke-width:0.8;" x="301.711689" xlink:href="#mb236a86112" y="448.56"/>
      </g>
     </g>
     <g id="text_8">
      <!-- 18:47:12 -->
      <g transform="translate(304.471064 500.4725)rotate(-90)scale(0.1 -0.1)">
       <use xlink:href="#DejaVuSans-49"/>
       <use x="63.623047" xlink:href="#DejaVuSans-56"/>
       <use x="127.246094" xlink:href="#DejaVuSans-58"/>
       <use x="160.9375" xlink:href="#DejaVuSans-52"/>
       <use x="224.560547" xlink:href="#DejaVuSans-55"/>
       <use x="288.183594" xlink:href="#DejaVuSans-58"/>
       <use x="321.875" xlink:href="#DejaVuSans-49"/>
       <use x="385.498047" xlink:href="#DejaVuSans-50"/>
      </g>
     </g>
    </g>
    <g id="xtick_9">
     <g id="line2d_9">
      <g>
       <use style="stroke:#000000;stroke-width:0.8;" x="325.906346" xlink:href="#mb236a86112" y="448.56"/>
      </g>
     </g>
     <g id="text_9">
      <!-- 18:49:05 -->
      <g transform="translate(328.665721 500.4725)rotate(-90)scale(0.1 -0.1)">
       <use xlink:href="#DejaVuSans-49"/>
       <use x="63.623047" xlink:href="#DejaVuSans-56"/>
       <use x="127.246094" xlink:href="#DejaVuSans-58"/>
       <use x="160.9375" xlink:href="#DejaVuSans-52"/>
       <use x="224.560547" xlink:href="#DejaVuSans-57"/>
       <use x="288.183594" xlink:href="#DejaVuSans-58"/>
       <use x="321.875" xlink:href="#DejaVuSans-48"/>
       <use x="385.498047" xlink:href="#DejaVuSans-53"/>
      </g>
     </g>
    </g>
    <g id="xtick_10">
     <g id="line2d_10">
      <g>
       <use style="stroke:#000000;stroke-width:0.8;" x="350.101003" xlink:href="#mb236a86112" y="448.56"/>
      </g>
     </g>
     <g id="text_10">
      <!-- 18:50:58 -->
      <g transform="translate(352.860378 500.4725)rotate(-90)scale(0.1 -0.1)">
       <use xlink:href="#DejaVuSans-49"/>
       <use x="63.623047" xlink:href="#DejaVuSans-56"/>
       <use x="127.246094" xlink:href="#DejaVuSans-58"/>
       <use x="160.9375" xlink:href="#DejaVuSans-53"/>
       <use x="224.560547" xlink:href="#DejaVuSans-48"/>
       <use x="288.183594" xlink:href="#DejaVuSans-58"/>
       <use x="321.875" xlink:href="#DejaVuSans-53"/>
       <use x="385.498047" xlink:href="#DejaVuSans-56"/>
      </g>
     </g>
    </g>
    <g id="xtick_11">
     <g id="line2d_11">
      <g>
       <use style="stroke:#000000;stroke-width:0.8;" x="374.29566" xlink:href="#mb236a86112" y="448.56"/>
      </g>
     </g>
     <g id="text_11">
      <!-- 18:52:51 -->
      <g transform="translate(377.055035 500.4725)rotate(-90)scale(0.1 -0.1)">
       <use xlink:href="#DejaVuSans-49"/>
       <use x="63.623047" xlink:href="#DejaVuSans-56"/>
       <use x="127.246094" xlink:href="#DejaVuSans-58"/>
       <use x="160.9375" xlink:href="#DejaVuSans-53"/>
       <use x="224.560547" xlink:href="#DejaVuSans-50"/>
       <use x="288.183594" xlink:href="#DejaVuSans-58"/>
       <use x="321.875" xlink:href="#DejaVuSans-53"/>
       <use x="385.498047" xlink:href="#DejaVuSans-49"/>
      </g>
     </g>
    </g>
    <g id="xtick_12">
     <g id="line2d_12">
      <g>
       <use style="stroke:#000000;stroke-width:0.8;" x="398.490317" xlink:href="#mb236a86112" y="448.56"/>
      </g>
     </g>
     <g id="text_12">
      <!-- 18:54:44 -->
      <g transform="translate(401.249692 500.4725)rotate(-90)scale(0.1 -0.1)">
       <use xlink:href="#DejaVuSans-49"/>
       <use x="63.623047" xlink:href="#DejaVuSans-56"/>
       <use x="127.246094" xlink:href="#DejaVuSans-58"/>
       <use x="160.9375" xlink:href="#DejaVuSans-53"/>
       <use x="224.560547" xlink:href="#DejaVuSans-52"/>
       <use x="288.183594" xlink:href="#DejaVuSans-58"/>
       <use x="321.875" xlink:href="#DejaVuSans-52"/>
       <use x="385.498047" xlink:href="#DejaVuSans-52"/>
      </g>
     </g>
    </g>
    <g id="xtick_13">
     <g id="line2d_13">
      <g>
       <use style="stroke:#000000;stroke-width:0.8;" x="422.684974" xlink:href="#mb236a86112" y="448.56"/>
      </g>
     </g>
     <g id="text_13">
      <!-- 18:56:37 -->
      <g transform="translate(425.444349 500.4725)rotate(-90)scale(0.1 -0.1)">
       <use xlink:href="#DejaVuSans-49"/>
       <use x="63.623047" xlink:href="#DejaVuSans-56"/>
       <use x="127.246094" xlink:href="#DejaVuSans-58"/>
       <use x="160.9375" xlink:href="#DejaVuSans-53"/>
       <use x="224.560547" xlink:href="#DejaVuSans-54"/>
       <use x="288.183594" xlink:href="#DejaVuSans-58"/>
       <use x="321.875" xlink:href="#DejaVuSans-51"/>
       <use x="385.498047" xlink:href="#DejaVuSans-55"/>
      </g>
     </g>
    </g>
    <g id="xtick_14">
     <g id="line2d_14">
      <g>
       <use style="stroke:#000000;stroke-width:0.8;" x="446.879631" xlink:href="#mb236a86112" y="448.56"/>
      </g>
     </g>
     <g id="text_14">
      <!-- 18:58:30 -->
      <g transform="translate(449.639006 500.4725)rotate(-90)scale(0.1 -0.1)">
       <use xlink:href="#DejaVuSans-49"/>
       <use x="63.623047" xlink:href="#DejaVuSans-56"/>
       <use x="127.246094" xlink:href="#DejaVuSans-58"/>
       <use x="160.9375" xlink:href="#DejaVuSans-53"/>
       <use x="224.560547" xlink:href="#DejaVuSans-56"/>
       <use x="288.183594" xlink:href="#DejaVuSans-58"/>
       <use x="321.875" xlink:href="#DejaVuSans-51"/>
       <use x="385.498047" xlink:href="#DejaVuSans-48"/>
      </g>
     </g>
    </g>
    <g id="xtick_15">
     <g id="line2d_15">
      <g>
       <use style="stroke:#000000;stroke-width:0.8;" x="471.074288" xlink:href="#mb236a86112" y="448.56"/>
      </g>
     </g>
     <g id="text_15">
      <!-- 19:00:23 -->
      <g transform="translate(473.833663 500.4725)rotate(-90)scale(0.1 -0.1)">
       <use xlink:href="#DejaVuSans-49"/>
       <use x="63.623047" xlink:href="#DejaVuSans-57"/>
       <use x="127.246094" xlink:href="#DejaVuSans-58"/>
       <use x="160.9375" xlink:href="#DejaVuSans-48"/>
       <use x="224.560547" xlink:href="#DejaVuSans-48"/>
       <use x="288.183594" xlink:href="#DejaVuSans-58"/>
       <use x="321.875" xlink:href="#DejaVuSans-50"/>
       <use x="385.498047" xlink:href="#DejaVuSans-51"/>
      </g>
     </g>
    </g>
    <g id="xtick_16">
     <g id="line2d_16">
      <g>
       <use style="stroke:#000000;stroke-width:0.8;" x="495.268945" xlink:href="#mb236a86112" y="448.56"/>
      </g>
     </g>
     <g id="text_16">
      <!-- 19:02:16 -->
      <g transform="translate(498.02832 500.4725)rotate(-90)scale(0.1 -0.1)">
       <use xlink:href="#DejaVuSans-49"/>
       <use x="63.623047" xlink:href="#DejaVuSans-57"/>
       <use x="127.246094" xlink:href="#DejaVuSans-58"/>
       <use x="160.9375" xlink:href="#DejaVuSans-48"/>
       <use x="224.560547" xlink:href="#DejaVuSans-50"/>
       <use x="288.183594" xlink:href="#DejaVuSans-58"/>
       <use x="321.875" xlink:href="#DejaVuSans-49"/>
       <use x="385.498047" xlink:href="#DejaVuSans-54"/>
      </g>
     </g>
    </g>
    <g id="xtick_17">
     <g id="line2d_17">
      <g>
       <use style="stroke:#000000;stroke-width:0.8;" x="519.463602" xlink:href="#mb236a86112" y="448.56"/>
      </g>
     </g>
     <g id="text_17">
      <!-- 19:04:09 -->
      <g transform="translate(522.222977 500.4725)rotate(-90)scale(0.1 -0.1)">
       <use xlink:href="#DejaVuSans-49"/>
       <use x="63.623047" xlink:href="#DejaVuSans-57"/>
       <use x="127.246094" xlink:href="#DejaVuSans-58"/>
       <use x="160.9375" xlink:href="#DejaVuSans-48"/>
       <use x="224.560547" xlink:href="#DejaVuSans-52"/>
       <use x="288.183594" xlink:href="#DejaVuSans-58"/>
       <use x="321.875" xlink:href="#DejaVuSans-48"/>
       <use x="385.498047" xlink:href="#DejaVuSans-57"/>
      </g>
     </g>
    </g>
    <g id="xtick_18">
     <g id="line2d_18">
      <g>
       <use style="stroke:#000000;stroke-width:0.8;" x="543.658259" xlink:href="#mb236a86112" y="448.56"/>
      </g>
     </g>
     <g id="text_18">
      <!-- 19:06:02 -->
      <g transform="translate(546.417634 500.4725)rotate(-90)scale(0.1 -0.1)">
       <use xlink:href="#DejaVuSans-49"/>
       <use x="63.623047" xlink:href="#DejaVuSans-57"/>
       <use x="127.246094" xlink:href="#DejaVuSans-58"/>
       <use x="160.9375" xlink:href="#DejaVuSans-48"/>
       <use x="224.560547" xlink:href="#DejaVuSans-54"/>
       <use x="288.183594" xlink:href="#DejaVuSans-58"/>
       <use x="321.875" xlink:href="#DejaVuSans-48"/>
       <use x="385.498047" xlink:href="#DejaVuSans-50"/>
      </g>
     </g>
    </g>
    <g id="xtick_19">
     <g id="line2d_19">
      <g>
       <use style="stroke:#000000;stroke-width:0.8;" x="567.852916" xlink:href="#mb236a86112" y="448.56"/>
      </g>
     </g>
     <g id="text_19">
      <!-- 19:07:54 -->
      <g transform="translate(570.612291 500.4725)rotate(-90)scale(0.1 -0.1)">
       <use xlink:href="#DejaVuSans-49"/>
       <use x="63.623047" xlink:href="#DejaVuSans-57"/>
       <use x="127.246094" xlink:href="#DejaVuSans-58"/>
       <use x="160.9375" xlink:href="#DejaVuSans-48"/>
       <use x="224.560547" xlink:href="#DejaVuSans-55"/>
       <use x="288.183594" xlink:href="#DejaVuSans-58"/>
       <use x="321.875" xlink:href="#DejaVuSans-53"/>
       <use x="385.498047" xlink:href="#DejaVuSans-52"/>
      </g>
     </g>
    </g>
    <g id="xtick_20">
     <g id="line2d_20">
      <g>
       <use style="stroke:#000000;stroke-width:0.8;" x="592.047573" xlink:href="#mb236a86112" y="448.56"/>
      </g>
     </g>
     <g id="text_20">
      <!-- 19:09:47 -->
      <g transform="translate(594.806948 500.4725)rotate(-90)scale(0.1 -0.1)">
       <use xlink:href="#DejaVuSans-49"/>
       <use x="63.623047" xlink:href="#DejaVuSans-57"/>
       <use x="127.246094" xlink:href="#DejaVuSans-58"/>
       <use x="160.9375" xlink:href="#DejaVuSans-48"/>
       <use x="224.560547" xlink:href="#DejaVuSans-57"/>
       <use x="288.183594" xlink:href="#DejaVuSans-58"/>
       <use x="321.875" xlink:href="#DejaVuSans-52"/>
       <use x="385.498047" xlink:href="#DejaVuSans-55"/>
      </g>
     </g>
    </g>
    <g id="xtick_21">
     <g id="line2d_21">
      <g>
       <use style="stroke:#000000;stroke-width:0.8;" x="616.242229" xlink:href="#mb236a86112" y="448.56"/>
      </g>
     </g>
     <g id="text_21">
      <!-- 19:11:41 -->
      <g transform="translate(619.001604 500.4725)rotate(-90)scale(0.1 -0.1)">
       <use xlink:href="#DejaVuSans-49"/>
       <use x="63.623047" xlink:href="#DejaVuSans-57"/>
       <use x="127.246094" xlink:href="#DejaVuSans-58"/>
       <use x="160.9375" xlink:href="#DejaVuSans-49"/>
       <use x="224.560547" xlink:href="#DejaVuSans-49"/>
       <use x="288.183594" xlink:href="#DejaVuSans-58"/>
       <use x="321.875" xlink:href="#DejaVuSans-52"/>
       <use x="385.498047" xlink:href="#DejaVuSans-49"/>
      </g>
     </g>
    </g>
    <g id="text_22">
     <!-- timestamp -->
     <g transform="translate(354.264375 510.55125)scale(0.08 -0.08)">
      <defs>
       <path d="M 18.3125 70.21875 
L 18.3125 54.6875 
L 36.8125 54.6875 
L 36.8125 47.703125 
L 18.3125 47.703125 
L 18.3125 18.015625 
Q 18.3125 11.328125 20.140625 9.421875 
Q 21.96875 7.515625 27.59375 7.515625 
L 36.8125 7.515625 
L 36.8125 0 
L 27.59375 0 
Q 17.1875 0 13.234375 3.875 
Q 9.28125 7.765625 9.28125 18.015625 
L 9.28125 47.703125 
L 2.6875 47.703125 
L 2.6875 54.6875 
L 9.28125 54.6875 
L 9.28125 70.21875 
z
" id="DejaVuSans-116"/>
       <path d="M 9.421875 54.6875 
L 18.40625 54.6875 
L 18.40625 0 
L 9.421875 0 
z
M 9.421875 75.984375 
L 18.40625 75.984375 
L 18.40625 64.59375 
L 9.421875 64.59375 
z
" id="DejaVuSans-105"/>
       <path d="M 52 44.1875 
Q 55.375 50.25 60.0625 53.125 
Q 64.75 56 71.09375 56 
Q 79.640625 56 84.28125 50.015625 
Q 88.921875 44.046875 88.921875 33.015625 
L 88.921875 0 
L 79.890625 0 
L 79.890625 32.71875 
Q 79.890625 40.578125 77.09375 44.375 
Q 74.3125 48.1875 68.609375 48.1875 
Q 61.625 48.1875 57.5625 43.546875 
Q 53.515625 38.921875 53.515625 30.90625 
L 53.515625 0 
L 44.484375 0 
L 44.484375 32.71875 
Q 44.484375 40.625 41.703125 44.40625 
Q 38.921875 48.1875 33.109375 48.1875 
Q 26.21875 48.1875 22.15625 43.53125 
Q 18.109375 38.875 18.109375 30.90625 
L 18.109375 0 
L 9.078125 0 
L 9.078125 54.6875 
L 18.109375 54.6875 
L 18.109375 46.1875 
Q 21.1875 51.21875 25.484375 53.609375 
Q 29.78125 56 35.6875 56 
Q 41.65625 56 45.828125 52.96875 
Q 50 49.953125 52 44.1875 
z
" id="DejaVuSans-109"/>
       <path d="M 56.203125 29.59375 
L 56.203125 25.203125 
L 14.890625 25.203125 
Q 15.484375 15.921875 20.484375 11.0625 
Q 25.484375 6.203125 34.421875 6.203125 
Q 39.59375 6.203125 44.453125 7.46875 
Q 49.3125 8.734375 54.109375 11.28125 
L 54.109375 2.78125 
Q 49.265625 0.734375 44.1875 -0.34375 
Q 39.109375 -1.421875 33.890625 -1.421875 
Q 20.796875 -1.421875 13.15625 6.1875 
Q 5.515625 13.8125 5.515625 26.8125 
Q 5.515625 40.234375 12.765625 48.109375 
Q 20.015625 56 32.328125 56 
Q 43.359375 56 49.78125 48.890625 
Q 56.203125 41.796875 56.203125 29.59375 
z
M 47.21875 32.234375 
Q 47.125 39.59375 43.09375 43.984375 
Q 39.0625 48.390625 32.421875 48.390625 
Q 24.90625 48.390625 20.390625 44.140625 
Q 15.875 39.890625 15.1875 32.171875 
z
" id="DejaVuSans-101"/>
       <path d="M 44.28125 53.078125 
L 44.28125 44.578125 
Q 40.484375 46.53125 36.375 47.5 
Q 32.28125 48.484375 27.875 48.484375 
Q 21.1875 48.484375 17.84375 46.4375 
Q 14.5 44.390625 14.5 40.28125 
Q 14.5 37.15625 16.890625 35.375 
Q 19.28125 33.59375 26.515625 31.984375 
L 29.59375 31.296875 
Q 39.15625 29.25 43.1875 25.515625 
Q 47.21875 21.78125 47.21875 15.09375 
Q 47.21875 7.46875 41.1875 3.015625 
Q 35.15625 -1.421875 24.609375 -1.421875 
Q 20.21875 -1.421875 15.453125 -0.5625 
Q 10.6875 0.296875 5.421875 2 
L 5.421875 11.28125 
Q 10.40625 8.6875 15.234375 7.390625 
Q 20.0625 6.109375 24.8125 6.109375 
Q 31.15625 6.109375 34.5625 8.28125 
Q 37.984375 10.453125 37.984375 14.40625 
Q 37.984375 18.0625 35.515625 20.015625 
Q 33.0625 21.96875 24.703125 23.78125 
L 21.578125 24.515625 
Q 13.234375 26.265625 9.515625 29.90625 
Q 5.8125 33.546875 5.8125 39.890625 
Q 5.8125 47.609375 11.28125 51.796875 
Q 16.75 56 26.8125 56 
Q 31.78125 56 36.171875 55.265625 
Q 40.578125 54.546875 44.28125 53.078125 
z
" id="DejaVuSans-115"/>
       <path d="M 34.28125 27.484375 
Q 23.390625 27.484375 19.1875 25 
Q 14.984375 22.515625 14.984375 16.5 
Q 14.984375 11.71875 18.140625 8.90625 
Q 21.296875 6.109375 26.703125 6.109375 
Q 34.1875 6.109375 38.703125 11.40625 
Q 43.21875 16.703125 43.21875 25.484375 
L 43.21875 27.484375 
z
M 52.203125 31.203125 
L 52.203125 0 
L 43.21875 0 
L 43.21875 8.296875 
Q 40.140625 3.328125 35.546875 0.953125 
Q 30.953125 -1.421875 24.3125 -1.421875 
Q 15.921875 -1.421875 10.953125 3.296875 
Q 6 8.015625 6 15.921875 
Q 6 25.140625 12.171875 29.828125 
Q 18.359375 34.515625 30.609375 34.515625 
L 43.21875 34.515625 
L 43.21875 35.40625 
Q 43.21875 41.609375 39.140625 45 
Q 35.0625 48.390625 27.6875 48.390625 
Q 23 48.390625 18.546875 47.265625 
Q 14.109375 46.140625 10.015625 43.890625 
L 10.015625 52.203125 
Q 14.9375 54.109375 19.578125 55.046875 
Q 24.21875 56 28.609375 56 
Q 40.484375 56 46.34375 49.84375 
Q 52.203125 43.703125 52.203125 31.203125 
z
" id="DejaVuSans-97"/>
       <path d="M 18.109375 8.203125 
L 18.109375 -20.796875 
L 9.078125 -20.796875 
L 9.078125 54.6875 
L 18.109375 54.6875 
L 18.109375 46.390625 
Q 20.953125 51.265625 25.265625 53.625 
Q 29.59375 56 35.59375 56 
Q 45.5625 56 51.78125 48.09375 
Q 58.015625 40.1875 58.015625 27.296875 
Q 58.015625 14.40625 51.78125 6.484375 
Q 45.5625 -1.421875 35.59375 -1.421875 
Q 29.59375 -1.421875 25.265625 0.953125 
Q 20.953125 3.328125 18.109375 8.203125 
z
M 48.6875 27.296875 
Q 48.6875 37.203125 44.609375 42.84375 
Q 40.53125 48.484375 33.40625 48.484375 
Q 26.265625 48.484375 22.1875 42.84375 
Q 18.109375 37.203125 18.109375 27.296875 
Q 18.109375 17.390625 22.1875 11.75 
Q 26.265625 6.109375 33.40625 6.109375 
Q 40.53125 6.109375 44.609375 11.75 
Q 48.6875 17.390625 48.6875 27.296875 
z
" id="DejaVuSans-112"/>
      </defs>
      <use xlink:href="#DejaVuSans-116"/>
      <use x="39.208984" xlink:href="#DejaVuSans-105"/>
      <use x="66.992188" xlink:href="#DejaVuSans-109"/>
      <use x="164.404297" xlink:href="#DejaVuSans-101"/>
      <use x="225.927734" xlink:href="#DejaVuSans-115"/>
      <use x="278.027344" xlink:href="#DejaVuSans-116"/>
      <use x="317.236328" xlink:href="#DejaVuSans-97"/>
      <use x="378.515625" xlink:href="#DejaVuSans-109"/>
      <use x="475.927734" xlink:href="#DejaVuSans-112"/>
     </g>
    </g>
   </g>
   <g id="matplotlib.axis_2">
    <g id="ytick_1">
     <g id="line2d_22">
      <defs>
       <path d="M 0 0 
L -3.5 0 
" id="mde308e598f" style="stroke:#000000;stroke-width:0.8;"/>
      </defs>
      <g>
       <use style="stroke:#000000;stroke-width:0.8;" x="108" xlink:href="#mde308e598f" y="431.514495"/>
      </g>
     </g>
     <g id="text_23">
      <!-- 9800 -->
      <g transform="translate(75.55 435.313714)scale(0.1 -0.1)">
       <use xlink:href="#DejaVuSans-57"/>
       <use x="63.623047" xlink:href="#DejaVuSans-56"/>
       <use x="127.246094" xlink:href="#DejaVuSans-48"/>
       <use x="190.869141" xlink:href="#DejaVuSans-48"/>
      </g>
     </g>
    </g>
    <g id="ytick_2">
     <g id="line2d_23">
      <g>
       <use style="stroke:#000000;stroke-width:0.8;" x="108" xlink:href="#mde308e598f" y="387.865822"/>
      </g>
     </g>
     <g id="text_24">
      <!-- 10000 -->
      <g transform="translate(69.1875 391.665041)scale(0.1 -0.1)">
       <use xlink:href="#DejaVuSans-49"/>
       <use x="63.623047" xlink:href="#DejaVuSans-48"/>
       <use x="127.246094" xlink:href="#DejaVuSans-48"/>
       <use x="190.869141" xlink:href="#DejaVuSans-48"/>
       <use x="254.492188" xlink:href="#DejaVuSans-48"/>
      </g>
     </g>
    </g>
    <g id="ytick_3">
     <g id="line2d_24">
      <g>
       <use style="stroke:#000000;stroke-width:0.8;" x="108" xlink:href="#mde308e598f" y="344.217149"/>
      </g>
     </g>
     <g id="text_25">
      <!-- 10200 -->
      <g transform="translate(69.1875 348.016368)scale(0.1 -0.1)">
       <use xlink:href="#DejaVuSans-49"/>
       <use x="63.623047" xlink:href="#DejaVuSans-48"/>
       <use x="127.246094" xlink:href="#DejaVuSans-50"/>
       <use x="190.869141" xlink:href="#DejaVuSans-48"/>
       <use x="254.492188" xlink:href="#DejaVuSans-48"/>
      </g>
     </g>
    </g>
    <g id="ytick_4">
     <g id="line2d_25">
      <g>
       <use style="stroke:#000000;stroke-width:0.8;" x="108" xlink:href="#mde308e598f" y="300.568477"/>
      </g>
     </g>
     <g id="text_26">
      <!-- 10400 -->
      <g transform="translate(69.1875 304.367696)scale(0.1 -0.1)">
       <use xlink:href="#DejaVuSans-49"/>
       <use x="63.623047" xlink:href="#DejaVuSans-48"/>
       <use x="127.246094" xlink:href="#DejaVuSans-52"/>
       <use x="190.869141" xlink:href="#DejaVuSans-48"/>
       <use x="254.492188" xlink:href="#DejaVuSans-48"/>
      </g>
     </g>
    </g>
    <g id="ytick_5">
     <g id="line2d_26">
      <g>
       <use style="stroke:#000000;stroke-width:0.8;" x="108" xlink:href="#mde308e598f" y="256.919804"/>
      </g>
     </g>
     <g id="text_27">
      <!-- 10600 -->
      <g transform="translate(69.1875 260.719023)scale(0.1 -0.1)">
       <use xlink:href="#DejaVuSans-49"/>
       <use x="63.623047" xlink:href="#DejaVuSans-48"/>
       <use x="127.246094" xlink:href="#DejaVuSans-54"/>
       <use x="190.869141" xlink:href="#DejaVuSans-48"/>
       <use x="254.492188" xlink:href="#DejaVuSans-48"/>
      </g>
     </g>
    </g>
    <g id="ytick_6">
     <g id="line2d_27">
      <g>
       <use style="stroke:#000000;stroke-width:0.8;" x="108" xlink:href="#mde308e598f" y="213.271131"/>
      </g>
     </g>
     <g id="text_28">
      <!-- 10800 -->
      <g transform="translate(69.1875 217.07035)scale(0.1 -0.1)">
       <use xlink:href="#DejaVuSans-49"/>
       <use x="63.623047" xlink:href="#DejaVuSans-48"/>
       <use x="127.246094" xlink:href="#DejaVuSans-56"/>
       <use x="190.869141" xlink:href="#DejaVuSans-48"/>
       <use x="254.492188" xlink:href="#DejaVuSans-48"/>
      </g>
     </g>
    </g>
    <g id="ytick_7">
     <g id="line2d_28">
      <g>
       <use style="stroke:#000000;stroke-width:0.8;" x="108" xlink:href="#mde308e598f" y="169.622459"/>
      </g>
     </g>
     <g id="text_29">
      <!-- 11000 -->
      <g transform="translate(69.1875 173.421677)scale(0.1 -0.1)">
       <use xlink:href="#DejaVuSans-49"/>
       <use x="63.623047" xlink:href="#DejaVuSans-49"/>
       <use x="127.246094" xlink:href="#DejaVuSans-48"/>
       <use x="190.869141" xlink:href="#DejaVuSans-48"/>
       <use x="254.492188" xlink:href="#DejaVuSans-48"/>
      </g>
     </g>
    </g>
    <g id="ytick_8">
     <g id="line2d_29">
      <g>
       <use style="stroke:#000000;stroke-width:0.8;" x="108" xlink:href="#mde308e598f" y="125.973786"/>
      </g>
     </g>
     <g id="text_30">
      <!-- 11200 -->
      <g transform="translate(69.1875 129.773005)scale(0.1 -0.1)">
       <use xlink:href="#DejaVuSans-49"/>
       <use x="63.623047" xlink:href="#DejaVuSans-49"/>
       <use x="127.246094" xlink:href="#DejaVuSans-50"/>
       <use x="190.869141" xlink:href="#DejaVuSans-48"/>
       <use x="254.492188" xlink:href="#DejaVuSans-48"/>
      </g>
     </g>
    </g>
    <g id="ytick_9">
     <g id="line2d_30">
      <g>
       <use style="stroke:#000000;stroke-width:0.8;" x="108" xlink:href="#mde308e598f" y="82.325113"/>
      </g>
     </g>
     <g id="text_31">
      <!-- 11400 -->
      <g transform="translate(69.1875 86.124332)scale(0.1 -0.1)">
       <use xlink:href="#DejaVuSans-49"/>
       <use x="63.623047" xlink:href="#DejaVuSans-49"/>
       <use x="127.246094" xlink:href="#DejaVuSans-52"/>
       <use x="190.869141" xlink:href="#DejaVuSans-48"/>
       <use x="254.492188" xlink:href="#DejaVuSans-48"/>
      </g>
     </g>
    </g>
    <g id="text_32">
     <!-- MB -->
     <g transform="translate(63.52375 260.715625)rotate(-90)scale(0.08 -0.08)">
      <defs>
       <path d="M 9.8125 72.90625 
L 24.515625 72.90625 
L 43.109375 23.296875 
L 61.8125 72.90625 
L 76.515625 72.90625 
L 76.515625 0 
L 66.890625 0 
L 66.890625 64.015625 
L 48.09375 14.015625 
L 38.1875 14.015625 
L 19.390625 64.015625 
L 19.390625 0 
L 9.8125 0 
z
" id="DejaVuSans-77"/>
       <path d="M 19.671875 34.8125 
L 19.671875 8.109375 
L 35.5 8.109375 
Q 43.453125 8.109375 47.28125 11.40625 
Q 51.125 14.703125 51.125 21.484375 
Q 51.125 28.328125 47.28125 31.5625 
Q 43.453125 34.8125 35.5 34.8125 
z
M 19.671875 64.796875 
L 19.671875 42.828125 
L 34.28125 42.828125 
Q 41.5 42.828125 45.03125 45.53125 
Q 48.578125 48.25 48.578125 53.8125 
Q 48.578125 59.328125 45.03125 62.0625 
Q 41.5 64.796875 34.28125 64.796875 
z
M 9.8125 72.90625 
L 35.015625 72.90625 
Q 46.296875 72.90625 52.390625 68.21875 
Q 58.5 63.53125 58.5 54.890625 
Q 58.5 48.1875 55.375 44.234375 
Q 52.25 40.28125 46.1875 39.3125 
Q 53.46875 37.75 57.5 32.78125 
Q 61.53125 27.828125 61.53125 20.40625 
Q 61.53125 10.640625 54.890625 5.3125 
Q 48.25 0 35.984375 0 
L 9.8125 0 
z
" id="DejaVuSans-66"/>
      </defs>
      <use xlink:href="#DejaVuSans-77"/>
      <use x="86.279297" xlink:href="#DejaVuSans-66"/>
     </g>
    </g>
   </g>
   <g id="line2d_31">
    <path clip-path="url(#p5da94dccf7)" d="M 132.349091 80.415047 
L 132.606481 80.514566 
L 132.863871 78.931865 
L 133.121261 79.434698 
L 133.378651 79.322084 
L 133.893431 78.323403 
L 134.408211 79.74635 
L 134.922991 78.350465 
L 135.180381 78.12 
L 135.437771 79.767301 
L 135.95255 98.237673 
L 136.46733 136.239081 
L 137.49689 257.653975 
L 138.52645 357.222708 
L 139.04123 397.390836 
L 139.29862 397.199654 
L 139.55601 396.603414 
L 139.8134 396.457627 
L 140.07079 398.888858 
L 140.58557 397.710344 
L 140.84296 397.870098 
L 141.10035 400.853048 
L 141.35774 400.358945 
L 141.61513 400.387753 
L 141.87252 399.945156 
L 142.12991 401.964343 
L 142.3873 401.241521 
L 142.64469 401.3262 
L 143.15947 400.705516 
L 143.41686 402.057752 
L 143.931639 401.585473 
L 144.189029 400.822494 
L 144.446419 401.322708 
L 144.703809 400.660994 
L 144.961199 402.393846 
L 145.218589 401.632614 
L 145.475979 402.214014 
L 145.733369 403.286898 
L 145.990759 403.35499 
L 146.248149 401.891887 
L 146.505539 402.924614 
L 146.762929 403.183014 
L 147.020319 403.136747 
L 147.277709 402.675817 
L 147.535099 401.897998 
L 147.792489 402.615582 
L 148.049879 404.071701 
L 148.307269 403.558393 
L 148.564659 405.697178 
L 149.079439 406.243659 
L 149.336829 406.0324 
L 149.594219 403.915439 
L 150.366389 402.546617 
L 150.623779 402.551855 
L 150.881169 401.661422 
L 151.138559 402.109257 
L 151.395948 403.16992 
L 151.653338 403.455382 
L 151.910728 402.185206 
L 152.168118 402.348452 
L 152.425508 403.799334 
L 152.682898 403.235393 
L 152.940288 402.964771 
L 153.197678 401.974819 
L 153.455068 403.898853 
L 153.969848 403.617755 
L 154.227238 402.75613 
L 154.484628 403.072147 
L 154.742018 403.847347 
L 155.256798 403.748701 
L 155.514188 402.660976 
L 155.771578 403.55752 
L 156.028968 403.398639 
L 156.543748 402.262027 
L 156.801138 402.744782 
L 157.058528 402.981358 
L 157.573308 401.809827 
L 157.830698 401.996644 
L 158.088088 403.199601 
L 158.602868 403.334039 
L 158.860258 402.802398 
L 159.117648 403.075639 
L 159.375037 403.999245 
L 159.632427 404.055115 
L 159.889817 402.974374 
L 160.404597 404.94904 
L 160.661987 404.463666 
L 160.919377 403.512125 
L 161.176767 403.172539 
L 161.434157 404.43835 
L 161.691547 403.430066 
L 161.948937 402.914139 
L 162.206327 403.12016 
L 162.463717 402.445352 
L 162.721107 403.564504 
L 162.978497 403.560139 
L 163.235887 403.386417 
L 163.493277 402.778828 
L 163.750667 404.263756 
L 164.008057 404.442715 
L 164.265447 403.911074 
L 164.522837 402.997071 
L 165.037617 405.194345 
L 165.295007 405.533932 
L 165.552397 404.549218 
L 165.809787 404.278596 
L 166.067177 404.399066 
L 166.324567 404.104874 
L 166.581957 402.557965 
L 166.839347 403.004055 
L 167.096736 404.613818 
L 167.354126 404.79365 
L 167.868906 404.288199 
L 168.126296 402.827714 
L 168.383686 405.073002 
L 168.641076 404.526521 
L 168.898466 404.645245 
L 169.155856 404.123207 
L 169.413246 404.847775 
L 169.670636 404.64088 
L 169.928026 404.788413 
L 170.185416 404.204393 
L 170.442806 404.056861 
L 170.700196 405.273786 
L 170.957586 405.120143 
L 171.214976 404.400812 
L 171.472366 404.022815 
L 171.729756 404.82595 
L 171.987146 404.995307 
L 172.244536 405.022369 
L 172.501926 404.323991 
L 172.759316 405.681464 
L 173.016706 405.36894 
L 173.531486 404.215742 
L 173.788876 404.67318 
L 174.046266 404.034164 
L 174.303656 404.190426 
L 174.818436 403.344515 
L 175.075825 405.509489 
L 175.590605 404.803253 
L 175.847995 404.044639 
L 176.105385 405.316562 
L 176.362775 405.720748 
L 176.620165 405.712019 
L 176.877555 404.744764 
L 177.134945 404.368512 
L 177.392335 405.356718 
L 177.649725 405.563613 
L 177.907115 405.554883 
L 178.164505 404.677545 
L 178.421895 406.275959 
L 178.679285 406.1616 
L 178.936675 404.643499 
L 179.194065 403.976547 
L 179.708845 406.474124 
L 179.966235 405.705035 
L 180.223625 405.814156 
L 180.481015 403.12889 
L 180.738405 407.557484 
L 180.995795 407.75303 
L 181.253185 407.786203 
L 181.510575 407.044176 
L 181.767965 405.27204 
L 182.282745 405.684083 
L 182.540135 407.395111 
L 182.797525 408.109204 
L 183.054914 406.564914 
L 183.569694 406.382462 
L 183.827084 405.381162 
L 184.084474 407.154171 
L 184.341864 404.84341 
L 184.599254 404.088288 
L 184.856644 404.134555 
L 185.371424 405.945975 
L 185.628814 405.965181 
L 185.886204 406.13803 
L 186.143594 405.21617 
L 186.400984 406.251516 
L 186.658374 405.396875 
L 186.915764 405.561867 
L 187.173154 404.363275 
L 187.430544 404.318753 
L 187.687934 404.978721 
L 187.945324 405.009275 
L 188.202714 404.473269 
L 188.460104 404.667942 
L 188.717494 405.789713 
L 188.974884 405.662259 
L 189.232274 405.906692 
L 189.489664 405.370686 
L 189.747054 405.388145 
L 190.004444 405.746064 
L 190.261834 405.306086 
L 190.519224 405.219662 
L 190.776613 404.75524 
L 191.034003 405.753048 
L 191.291393 405.602024 
L 191.548783 405.684956 
L 191.806173 404.732542 
L 192.063563 405.43354 
L 192.578343 405.363702 
L 192.835733 404.349307 
L 193.093123 405.290372 
L 193.350513 405.754794 
L 193.607903 405.750429 
L 193.865293 405.025861 
L 194.122683 405.210059 
L 194.380073 406.370241 
L 194.637463 406.682765 
L 195.152243 405.331402 
L 195.409633 406.785776 
L 195.667023 405.805427 
L 195.924413 405.577581 
L 196.181803 404.917613 
L 196.439193 405.661386 
L 196.696583 407.189963 
L 196.953973 406.458411 
L 197.211363 406.349289 
L 197.468753 405.834235 
L 197.726143 405.881375 
L 197.983533 406.17644 
L 198.240923 406.069065 
L 198.498313 405.249343 
L 198.755702 405.842965 
L 199.013092 405.924151 
L 199.270482 405.751302 
L 199.785262 405.036337 
L 200.042652 406.150251 
L 200.300042 406.227073 
L 200.557432 405.211805 
L 200.814822 404.653975 
L 201.072212 405.212678 
L 201.329602 406.809346 
L 201.586992 406.586738 
L 201.844382 405.963435 
L 202.101772 406.408651 
L 202.359162 407.666606 
L 202.616552 406.796252 
L 202.873942 406.736016 
L 203.131332 406.221835 
L 203.646112 406.859979 
L 203.903502 406.783157 
L 204.418282 405.998354 
L 204.675672 406.392938 
L 204.933062 406.413016 
L 205.190452 406.127554 
L 205.447842 404.601596 
L 205.705232 406.783157 
L 205.962622 407.011876 
L 206.220012 406.853868 
L 206.477401 405.924151 
L 206.992181 407.207422 
L 207.249571 406.706335 
L 207.506961 407.004892 
L 207.764351 406.370241 
L 208.021741 405.320926 
L 208.536521 405.619483 
L 208.793911 405.095699 
L 209.051301 405.271167 
L 209.308691 407.019733 
L 209.566081 407.021479 
L 209.823471 406.640862 
L 210.080861 405.676227 
L 210.338251 407.423919 
L 210.595641 407.615974 
L 210.853031 406.876565 
L 211.110421 406.582373 
L 211.625201 408.386809 
L 212.139981 406.892279 
L 212.397371 407.023225 
L 212.654761 406.594595 
L 212.912151 406.885295 
L 213.169541 409.695396 
L 213.426931 409.113123 
L 213.684321 410.734235 
L 213.941711 408.572753 
L 214.199101 407.980004 
L 214.45649 406.783157 
L 214.71388 406.456665 
L 215.22866 407.250198 
L 215.48605 406.075175 
L 215.74344 406.054224 
L 216.00083 407.193454 
L 216.25822 406.905373 
L 216.51561 406.852122 
L 216.773 405.939865 
L 217.28778 408.241896 
L 217.54517 408.24015 
L 217.80256 407.722476 
L 218.57473 407.573198 
L 219.08951 406.536978 
L 219.60429 407.183852 
L 219.86168 407.217898 
L 220.11907 406.039384 
L 220.63385 408.337923 
L 220.89124 408.273323 
L 221.14863 406.753476 
L 221.40602 406.785776 
L 221.66341 407.642163 
L 222.17819 407.425665 
L 222.435579 406.870454 
L 222.950359 408.550055 
L 223.207749 408.751712 
L 223.465139 407.861279 
L 223.722529 408.399904 
L 223.979919 408.010558 
L 224.237309 408.203485 
L 224.494699 408.120552 
L 224.752089 407.581928 
L 225.009479 408.868691 
L 225.524259 409.278115 
L 225.781649 408.758696 
L 226.039039 407.526057 
L 226.296429 407.453601 
L 226.811209 407.830725 
L 227.068599 406.451427 
L 227.325989 408.19039 
L 227.583379 408.481963 
L 227.840769 408.29602 
L 228.098159 407.120125 
L 228.612939 409.28248 
L 228.870329 408.942893 
L 229.127719 408.241023 
L 229.385109 408.02889 
L 229.642499 409.488502 
L 229.899889 409.751267 
L 230.157278 409.387237 
L 230.414668 408.57188 
L 230.672058 409.706745 
L 230.929448 409.735553 
L 231.186838 409.589767 
L 231.701618 408.229674 
L 231.959008 409.142804 
L 232.473788 409.030191 
L 232.731178 408.734253 
L 232.988568 409.228356 
L 233.245958 409.348826 
L 233.503348 408.989161 
L 233.760738 407.855168 
L 234.018128 408.155471 
L 234.275518 409.274623 
L 234.532908 409.459694 
L 234.790298 408.772663 
L 235.047688 408.798853 
L 235.305078 409.187326 
L 235.562468 409.236212 
L 235.819858 409.101774 
L 236.077248 408.138012 
L 236.334638 409.341842 
L 236.592028 410.00181 
L 236.849418 409.973002 
L 237.106808 409.336604 
L 237.621588 409.353191 
L 237.878978 409.392475 
L 238.136367 409.309542 
L 238.393757 408.349271 
L 238.651147 408.958607 
L 239.165927 409.099156 
L 239.423317 408.281179 
L 239.938097 409.215261 
L 240.195487 409.539134 
L 240.710267 408.492439 
L 240.967657 409.468423 
L 241.482437 409.156772 
L 241.739827 408.361493 
L 241.997217 409.400331 
L 242.254607 409.609845 
L 242.511997 409.264148 
L 242.769387 408.519501 
L 243.284167 410.021888 
L 243.541557 409.781821 
L 243.798947 409.856896 
L 244.056337 409.312161 
L 244.313727 409.729442 
L 244.571117 409.926734 
L 244.828507 408.914085 
L 245.085897 410.810184 
L 245.343287 410.956843 
L 245.600677 411.797516 
L 245.858067 412.0952 
L 246.115456 409.623813 
L 246.372846 408.763934 
L 246.887626 410.459248 
L 247.145016 412.022744 
L 247.402406 411.299049 
L 247.659796 409.689286 
L 247.917186 410.263702 
L 248.174576 409.184707 
L 248.431966 408.880912 
L 248.946746 410.082997 
L 249.461526 408.880912 
L 249.718916 408.784012 
L 249.976306 409.538261 
L 250.233696 409.471915 
L 250.491086 409.67881 
L 250.748476 408.955115 
L 251.520646 409.688413 
L 251.778036 409.684921 
L 252.035426 408.659177 
L 252.292816 410.086489 
L 252.550206 410.275924 
L 252.807596 410.281162 
L 253.064986 409.352318 
L 253.322376 409.970383 
L 253.579766 410.105694 
L 254.094545 408.404269 
L 254.609325 410.531705 
L 254.866715 409.995699 
L 255.124105 410.094345 
L 255.381495 409.395967 
L 255.638885 410.321318 
L 255.896275 410.675746 
L 256.153665 410.341397 
L 256.411055 409.563577 
L 256.668445 409.439615 
L 256.925835 410.05157 
L 257.183225 409.788805 
L 257.440615 410.063791 
L 257.698005 409.290337 
L 257.955395 411.645619 
L 258.212785 410.650429 
L 258.470175 409.060745 
L 258.727565 409.030191 
L 258.984955 409.465804 
L 259.242345 410.288145 
L 259.499735 410.07514 
L 259.757125 409.541753 
L 260.014515 409.698015 
L 260.271905 410.900973 
L 260.529295 410.775265 
L 260.786685 410.477581 
L 261.301465 409.299939 
L 261.558855 409.96078 
L 261.816244 409.891815 
L 262.073634 408.857342 
L 262.331024 409.512945 
L 262.845804 409.867372 
L 263.103194 409.861261 
L 263.360584 409.295575 
L 263.617974 410.326556 
L 263.875364 410.181643 
L 264.132754 410.302986 
L 264.390144 409.725077 
L 264.647534 409.92848 
L 264.904924 410.734235 
L 265.162314 410.804073 
L 265.419704 409.834199 
L 265.677094 409.73468 
L 265.934484 410.962954 
L 266.191874 411.170722 
L 266.449264 411.015332 
L 266.706654 410.488929 
L 266.964044 411.292065 
L 267.221434 410.768281 
L 267.478824 410.539562 
L 267.736214 410.050697 
L 267.993604 410.869546 
L 268.250994 412.238368 
L 268.508384 411.826325 
L 268.765774 411.659587 
L 269.023164 411.240559 
L 269.795333 411.494595 
L 270.052723 410.684475 
L 270.310113 411.187308 
L 270.567503 412.305587 
L 271.082283 411.017951 
L 271.597063 412.658268 
L 271.854453 412.807547 
L 272.111843 413.137531 
L 272.369233 412.398995 
L 272.626623 412.680966 
L 272.884013 411.647365 
L 273.141403 411.866481 
L 273.398793 411.084297 
L 273.656183 412.117898 
L 273.913573 412.368441 
L 274.170963 411.979968 
L 274.428353 411.943303 
L 274.685743 411.313889 
L 275.200523 412.53256 
L 275.457913 412.529068 
L 275.972693 413.334823 
L 276.230083 414.152799 
L 276.487473 414.254064 
L 276.744863 413.530369 
L 277.002253 413.141896 
L 277.259643 413.798372 
L 277.517032 416.807511 
L 277.774422 416.508081 
L 278.289202 414.952443 
L 278.546592 415.38631 
L 278.803982 415.250999 
L 279.061372 414.371915 
L 279.318762 413.007458 
L 279.833542 413.291174 
L 280.348322 412.158927 
L 280.605712 413.229193 
L 280.863102 413.467515 
L 281.120492 413.118325 
L 281.377882 412.498514 
L 281.635272 413.185544 
L 281.892662 414.257556 
L 282.150052 413.975585 
L 282.407442 413.240542 
L 282.922222 414.824115 
L 283.179612 414.662615 
L 283.437002 414.664361 
L 283.694392 413.323474 
L 283.951782 414.203431 
L 284.466562 413.972093 
L 284.723952 412.861671 
L 284.981342 413.793134 
L 285.238732 413.766072 
L 285.753511 412.085598 
L 286.010901 412.562241 
L 286.268291 413.858607 
L 286.783071 413.733772 
L 287.040461 413.024917 
L 287.297851 413.644728 
L 287.555241 413.739882 
L 287.812631 413.411644 
L 288.070021 412.825879 
L 288.584801 415.056326 
L 288.842191 414.820624 
L 289.099581 415.144497 
L 289.356971 414.324775 
L 289.614361 414.644283 
L 289.871751 414.633807 
L 290.129141 414.066374 
L 290.386531 413.218717 
L 290.643921 413.725915 
L 290.901311 414.94284 
L 291.158701 414.980378 
L 291.673481 413.227447 
L 291.930871 414.391994 
L 292.188261 414.748167 
L 292.445651 414.671345 
L 292.703041 413.684885 
L 292.960431 414.974267 
L 293.47521 414.506353 
L 293.7326 413.644728 
L 294.24738 415.467497 
L 294.76216 413.565288 
L 295.01955 413.451801 
L 295.27694 414.241842 
L 295.53433 414.10042 
L 295.79172 413.737263 
L 296.04911 413.173323 
L 296.3065 414.077723 
L 296.56389 415.465751 
L 296.82128 415.352264 
L 297.07867 414.887843 
L 297.33606 413.655204 
L 297.59345 415.067675 
L 298.10823 415.243143 
L 298.36562 414.462704 
L 298.62301 414.427785 
L 298.8804 414.118753 
L 299.13779 412.875639 
L 299.39518 412.785722 
L 299.65257 413.431723 
L 299.90996 414.474926 
L 300.42474 414.524686 
L 300.68213 414.277634 
L 300.93952 418.126574 
L 301.454299 417.085117 
L 301.711689 414.213034 
L 302.226469 415.520748 
L 302.483859 415.25711 
L 302.741249 414.498496 
L 302.998639 414.099547 
L 303.256029 414.723723 
L 303.770809 414.861653 
L 304.028199 413.491958 
L 304.285589 414.082088 
L 304.542979 415.138386 
L 304.800369 415.439562 
L 305.057759 414.090818 
L 305.315149 414.383264 
L 305.572539 415.076405 
L 305.829929 414.807529 
L 306.087319 414.735945 
L 306.344709 414.254937 
L 306.602099 415.926681 
L 306.859489 415.831527 
L 307.116879 416.00874 
L 307.374269 415.225683 
L 307.631659 415.953743 
L 307.889049 415.587094 
L 308.403829 414.154545 
L 308.661219 413.683139 
L 308.918608 414.844194 
L 309.175998 414.761261 
L 309.433388 414.806656 
L 309.690778 417.17416 
L 309.948168 417.397641 
L 310.205558 418.32212 
L 310.720338 414.440007 
L 310.977728 415.251872 
L 311.235118 418.907012 
L 311.492508 419.052799 
L 311.749898 416.552603 
L 312.007288 415.829781 
L 312.264678 417.224792 
L 312.522068 415.760816 
L 312.779458 415.784386 
L 313.036848 414.946332 
L 313.294238 416.027946 
L 313.551628 415.374089 
L 313.809018 415.070294 
L 314.066408 414.418183 
L 314.323798 414.188591 
L 314.581188 416.306424 
L 314.838578 416.367533 
L 315.095968 416.153654 
L 315.353358 414.941094 
L 315.610748 415.772165 
L 315.868138 416.054135 
L 316.125528 415.725897 
L 316.382918 415.078151 
L 316.640308 416.222619 
L 316.897697 416.517684 
L 317.155087 416.096038 
L 317.412477 416.13183 
L 317.669867 415.497178 
L 317.927257 416.852906 
L 318.184647 416.508081 
L 318.442037 415.801846 
L 318.699427 415.88827 
L 318.956817 415.402024 
L 319.214207 416.706246 
L 319.471597 416.854652 
L 319.728987 416.305551 
L 319.986377 416.593633 
L 320.243767 416.707992 
L 320.501157 416.5753 
L 321.015937 415.466624 
L 321.530717 416.387611 
L 322.045497 415.349645 
L 322.560277 417.298995 
L 322.817667 417.340025 
L 323.075057 417.210825 
L 323.332447 416.213889 
L 323.589837 416.845922 
L 323.847227 416.550857 
L 324.104617 416.586649 
L 324.362007 415.176797 
L 324.876786 417.130511 
L 325.391566 417.130511 
L 325.648956 415.433451 
L 325.906346 416.451338 
L 326.163736 416.42253 
L 326.421126 416.213889 
L 326.678516 415.65344 
L 326.935906 416.182462 
L 327.193296 417.761671 
L 327.450686 417.612393 
L 327.965466 416.759498 
L 328.222856 417.872539 
L 328.480246 417.46486 
L 328.737636 417.507636 
L 328.995026 416.688787 
L 329.252416 416.627679 
L 329.509806 417.379309 
L 329.767196 417.297249 
L 330.024586 416.504589 
L 330.539366 418.357912 
L 330.796756 418.350055 
L 331.054146 418.577028 
L 331.311536 417.232649 
L 331.568926 416.515065 
L 331.826316 417.264076 
L 332.083706 417.389784 
L 332.341096 417.079006 
L 332.598485 417.202968 
L 332.855875 418.385847 
L 333.113265 417.557395 
L 333.370655 416.225238 
L 333.628045 416.206032 
L 333.885435 417.542555 
L 334.142825 417.814923 
L 334.657605 416.708865 
L 334.914995 416.902665 
L 335.172385 417.760798 
L 335.429775 417.860317 
L 335.687165 417.292884 
L 336.201945 419.949343 
L 336.459335 420.061083 
L 336.716725 419.817524 
L 336.974115 418.980342 
L 337.231505 419.491905 
L 337.746285 418.927964 
L 338.003675 417.360103 
L 338.261065 418.148398 
L 338.518455 419.603645 
L 338.775845 419.513729 
L 339.033235 419.624596 
L 339.290625 418.80662 
L 339.548015 421.058892 
L 339.805405 419.965056 
L 340.062795 419.813159 
L 340.320185 418.963756 
L 340.577574 419.14708 
L 340.834964 419.877759 
L 341.092354 420.141397 
L 341.349744 419.612375 
L 341.607134 419.529442 
L 341.864524 422.553422 
L 342.121914 422.451285 
L 342.379304 421.916152 
L 342.636694 419.773002 
L 342.894084 420.484475 
L 343.151474 421.75989 
L 343.408864 421.126111 
L 343.923644 418.885188 
L 344.181034 419.982516 
L 344.438424 420.172824 
L 344.695814 420.186791 
L 344.953204 419.415083 
L 345.210594 420.586613 
L 345.725374 420.020053 
L 345.982764 419.214299 
L 346.497544 420.62677 
L 347.012324 420.185045 
L 347.269714 420.528124 
L 347.527104 420.590978 
L 348.041884 418.951534 
L 348.556663 420.175443 
L 348.814053 419.337388 
L 349.071443 419.166285 
L 349.328833 418.584012 
L 350.101003 421.398479 
L 350.358393 421.571327 
L 350.615783 420.158856 
L 350.873173 421.072859 
L 351.130563 420.728908 
L 351.387953 421.105159 
L 351.645343 420.333451 
L 351.902733 420.843267 
L 352.417513 421.267533 
L 352.932293 419.695307 
L 353.189683 421.345227 
L 353.447073 420.613675 
L 353.961853 420.053226 
L 354.219243 420.578756 
L 354.476633 420.70883 
L 354.734023 420.317737 
L 354.991413 419.480556 
L 355.506193 421.176743 
L 355.763583 421.062384 
L 356.020973 420.668673 
L 356.278362 419.953707 
L 356.535752 421.286738 
L 356.793142 421.53117 
L 357.050532 421.040559 
L 357.307922 420.293294 
L 357.565312 421.327768 
L 357.822702 421.709257 
L 358.080092 421.759017 
L 358.594872 420.459159 
L 358.852262 421.951071 
L 359.367042 421.601881 
L 359.624432 420.85287 
L 359.881822 421.254438 
L 360.396602 420.689624 
L 360.653992 419.955453 
L 360.911382 420.985562 
L 361.168772 424.576975 
L 361.426162 424.513248 
L 361.683552 424.877278 
L 361.940942 422.656433 
L 362.198332 423.349574 
L 362.455722 423.481393 
L 362.713112 423.422904 
L 362.970502 422.401525 
L 363.227892 426.299352 
L 363.485282 428.021728 
L 363.742672 425.153137 
L 364.000062 423.613212 
L 364.514841 423.102523 
L 365.287011 422.040987 
L 365.544401 422.556914 
L 365.801791 422.073287 
L 366.059181 422.178917 
L 366.316571 421.58093 
L 366.573961 422.573501 
L 366.831351 422.663417 
L 367.088741 422.439936 
L 367.346131 422.476601 
L 367.603521 421.838457 
L 367.860911 422.419857 
L 368.118301 422.41462 
L 368.375691 422.583976 
L 368.633081 421.520695 
L 368.890471 422.239152 
L 369.147861 423.882961 
L 369.405251 423.994702 
L 369.662641 422.473109 
L 369.920031 422.851979 
L 370.177421 423.625434 
L 370.434811 423.369653 
L 370.692201 423.408063 
L 370.949591 422.581358 
L 371.206981 424.666891 
L 371.721761 424.566499 
L 372.23654 423.072842 
L 372.49393 423.493615 
L 372.75132 423.589642 
L 373.2661 422.255738 
L 373.52349 423.339971 
L 373.78088 426.308954 
L 374.03827 426.636319 
L 374.29566 426.006905 
L 374.55305 426.767265 
L 374.81044 425.072824 
L 375.06783 425.075443 
L 375.32522 424.599672 
L 375.58261 425.394078 
L 375.84 427.471755 
L 376.09739 426.579576 
L 376.61217 425.984208 
L 376.86956 425.430743 
L 377.12695 424.048826 
L 377.38434 423.851534 
L 377.64173 422.421603 
L 378.15651 423.556469 
L 378.4139 423.629799 
L 378.67129 422.521995 
L 378.92868 422.755952 
L 379.18607 424.211199 
L 379.44346 424.185883 
L 379.958239 422.999512 
L 380.473019 424.340399 
L 380.730409 424.026129 
L 380.987799 423.386239 
L 381.502579 424.786489 
L 382.017359 424.627607 
L 382.274749 423.79741 
L 382.532139 425.293686 
L 383.046919 425.4063 
L 383.561699 423.968512 
L 384.076479 423.97375 
L 384.333869 422.454776 
L 384.591259 422.569136 
L 384.848649 423.800029 
L 385.106039 423.945815 
L 385.363429 423.783442 
L 385.620819 422.88166 
L 386.135599 424.197231 
L 386.392989 423.913515 
L 386.650379 423.338226 
L 386.907769 424.026129 
L 387.165159 425.241308 
L 387.422549 424.879024 
L 387.679938 424.893864 
L 387.937328 424.449521 
L 388.194718 425.208135 
L 388.452108 424.382302 
L 388.709498 424.417221 
L 388.966888 423.231723 
L 389.481668 424.05581 
L 389.996448 424.276672 
L 390.253838 422.650322 
L 390.511228 424.947116 
L 390.768618 424.857199 
L 391.283398 422.917452 
L 391.798178 424.363096 
L 392.055568 424.295004 
L 392.312958 423.430761 
L 392.570348 423.749396 
L 393.085128 424.753316 
L 393.342518 424.747205 
L 393.599908 423.679558 
L 393.857298 425.72057 
L 394.114688 425.797392 
L 394.372078 425.730173 
L 394.629468 424.430315 
L 394.886858 424.078507 
L 395.144248 424.790853 
L 395.401638 424.938386 
L 395.659027 423.330369 
L 395.916417 423.408936 
L 396.173807 424.35524 
L 396.431197 424.565626 
L 396.688587 424.303734 
L 396.945977 423.399334 
L 397.203367 424.204215 
L 397.460757 426.576084 
L 397.975537 424.420713 
L 398.232927 424.261831 
L 398.490317 425.520659 
L 399.005097 425.345192 
L 399.262487 424.298496 
L 399.519877 426.292368 
L 399.777267 425.059729 
L 400.292047 423.89431 
L 400.549437 424.53158 
L 400.806827 424.853707 
L 401.064217 424.997748 
L 401.321607 424.385794 
L 401.836387 425.426378 
L 402.093777 424.604037 
L 402.351167 424.535945 
L 402.608557 423.850661 
L 402.865947 425.999049 
L 403.123337 425.745013 
L 403.380727 425.674303 
L 403.638116 424.564753 
L 403.895506 424.610148 
L 404.152896 425.148772 
L 404.410286 425.202897 
L 404.667676 425.067586 
L 404.925066 424.773394 
L 405.182456 426.064522 
L 405.439846 426.059284 
L 405.697236 425.916989 
L 405.954626 427.873323 
L 406.212016 427.512785 
L 406.469406 427.853244 
L 406.726796 426.737584 
L 406.984186 424.38754 
L 407.241576 424.553405 
L 407.498966 425.661208 
L 407.756356 425.573038 
L 408.013746 425.906513 
L 408.271136 425.120837 
L 408.528526 426.164041 
L 409.043306 426.922655 
L 409.300696 425.433362 
L 409.558086 425.7939 
L 409.815476 426.635446 
L 410.072866 426.613622 
L 410.330256 425.517167 
L 410.587646 425.906513 
L 410.845036 427.59659 
L 411.102426 427.600955 
L 411.617205 426.080235 
L 411.874595 425.901276 
L 412.131985 426.182373 
L 412.646765 424.716651 
L 413.161545 426.474819 
L 413.676325 426.159676 
L 413.933715 425.234324 
L 414.191105 427.115582 
L 414.705885 426.725363 
L 414.963275 426.162295 
L 415.220665 426.188484 
L 415.478055 427.002968 
L 415.735445 426.860673 
L 416.250225 425.84977 
L 416.507615 426.358714 
L 416.765005 426.353476 
L 417.022395 425.103378 
L 417.279785 425.194167 
L 417.794565 426.127376 
L 418.051955 425.789535 
L 418.309345 425.03354 
L 418.566735 425.404554 
L 418.824125 426.440773 
L 419.081515 426.3107 
L 419.338904 426.381411 
L 419.596294 425.385348 
L 419.853684 426.525452 
L 420.368464 426.742822 
L 420.625854 426.070632 
L 420.883244 426.397998 
L 421.140634 427.566909 
L 421.398024 427.351285 
L 421.655414 426.343 
L 422.170194 427.683014 
L 422.684974 425.881197 
L 422.942364 426.032222 
L 423.199754 425.48574 
L 423.457144 426.837976 
L 423.714534 426.71576 
L 424.229314 425.809613 
L 424.486704 426.435535 
L 425.001484 426.574338 
L 425.258874 425.900403 
L 425.516264 427.832293 
L 425.773654 427.533736 
L 426.031044 427.681268 
L 426.288434 427.274463 
L 426.545824 427.216847 
L 426.803214 428.411947 
L 427.317993 427.504928 
L 427.575383 427.065822 
L 427.832773 427.427233 
L 428.090163 427.423741 
L 428.347553 426.839722 
L 428.604943 426.637192 
L 428.862333 427.49969 
L 429.377113 427.611431 
L 429.634503 426.081981 
L 429.891893 426.640684 
L 430.149283 427.782533 
L 430.406673 427.909115 
L 430.664063 427.052728 
L 430.921453 426.786471 
L 431.178843 428.215528 
L 431.436233 427.860228 
L 431.693623 427.876815 
L 431.951013 427.608812 
L 432.208403 427.810469 
L 432.723183 429.778151 
L 432.980573 429.827037 
L 433.237963 429.620143 
L 433.495353 429.215956 
L 434.010133 429.266588 
L 434.267523 428.136088 
L 434.782303 429.627126 
L 435.297082 428.609239 
L 435.811862 430.046154 
L 436.069252 429.354759 
L 436.584032 427.043998 
L 436.841422 428.597018 
L 437.613592 427.096376 
L 437.870982 427.847133 
L 438.128372 430.586524 
L 438.643152 428.546385 
L 438.900542 429.262223 
L 439.157932 428.450358 
L 439.415322 428.514958 
L 439.672712 427.435963 
L 440.187492 430.517559 
L 440.444882 430.674694 
L 440.702272 428.480039 
L 440.959662 427.758963 
L 441.217052 427.821817 
L 441.474442 429.162704 
L 441.731832 428.557734 
L 441.989222 428.327269 
L 442.246612 427.25613 
L 442.504002 428.436391 
L 442.761392 428.576066 
L 443.018781 428.252193 
L 443.276171 427.62016 
L 443.533561 428.378774 
L 443.790951 428.617096 
L 444.048341 428.080217 
L 444.305731 427.284939 
L 444.820511 428.362188 
L 445.335291 428.631937 
L 445.592681 428.141325 
L 445.850071 428.081963 
L 446.107461 428.240844 
L 446.364851 428.203307 
L 446.622241 427.184547 
L 446.879631 427.718806 
L 447.137021 429.131277 
L 447.909191 428.60662 
L 448.166581 428.961048 
L 448.423971 428.250447 
L 448.681361 428.402345 
L 448.938751 427.283193 
L 449.196141 427.824436 
L 449.453531 428.745423 
L 449.710921 428.788199 
L 449.968311 427.936177 
L 450.225701 428.305445 
L 450.483091 429.206353 
L 450.74048 429.069296 
L 450.99787 429.231669 
L 451.25526 428.332507 
L 451.51265 430.460816 
L 451.77004 429.846243 
L 452.02743 429.620143 
L 452.54221 427.83142 
L 452.7996 428.152674 
L 453.05699 428.049663 
L 453.31438 427.427233 
L 453.82916 428.491388 
L 454.60133 427.43509 
L 454.85872 427.744996 
L 455.11611 429.127785 
L 455.3735 428.961048 
L 455.63089 427.623652 
L 456.14567 428.901685 
L 456.40306 429.630618 
L 456.66045 429.425469 
L 456.91784 428.60051 
L 457.17523 430.067978 
L 457.43262 430.119483 
L 457.69001 429.992902 
L 457.9474 429.49618 
L 458.20479 428.675585 
L 458.46218 429.452532 
L 458.976959 428.165769 
L 459.234349 428.576939 
L 459.491739 429.542448 
L 459.749129 429.387059 
L 460.263909 428.795183 
L 460.778689 430.627554 
L 461.036079 430.437246 
L 461.293469 429.35214 
L 461.550859 429.679505 
L 461.808249 430.92 
L 462.323029 430.651124 
L 462.580419 429.867194 
L 462.837809 430.645013 
L 463.095199 429.306745 
L 463.352589 429.236034 
L 463.609979 427.940542 
L 464.124759 429.241272 
L 464.382149 429.04398 
L 464.639539 428.232115 
L 464.896929 428.58305 
L 465.154319 429.520624 
L 465.411709 429.425469 
L 465.926489 428.680823 
L 466.183879 429.773786 
L 466.441268 429.916081 
L 466.698658 429.576494 
L 466.956048 428.975888 
L 467.213438 429.167069 
L 467.470828 430.15964 
L 467.728218 429.981554 
L 467.985608 430.026948 
L 468.242998 429.438564 
L 468.500388 429.382694 
L 468.757778 429.077153 
L 469.015168 429.119929 
L 469.272558 428.410201 
L 469.529948 428.610985 
L 469.787338 429.133896 
L 470.044728 428.633683 
L 470.302118 430.019964 
L 470.559508 429.801721 
L 470.816898 430.337727 
L 471.074288 428.199815 
L 471.331678 428.730583 
L 471.589068 428.110771 
L 471.846458 429.394042 
L 472.361238 428.937477 
L 472.618628 427.680396 
L 472.876018 427.711823 
L 473.390798 427.950144 
L 473.648188 427.962366 
L 473.905578 426.973287 
L 474.162968 429.448167 
L 474.677747 429.135642 
L 474.935137 427.42636 
L 475.192527 426.955828 
L 475.449917 428.342109 
L 475.707307 427.911733 
L 475.964697 426.643303 
L 476.222087 426.830119 
L 476.479477 427.41152 
L 476.994257 427.25613 
L 477.251647 426.68346 
L 477.509037 427.668174 
L 478.023817 427.811342 
L 478.281207 427.016936 
L 478.795987 427.805231 
L 479.053377 428.018236 
L 479.310767 426.753298 
L 479.568157 426.452995 
L 479.825547 428.437263 
L 480.082937 428.791691 
L 480.340327 428.46258 
L 480.855107 426.129122 
L 481.112497 427.248274 
L 481.369887 427.037014 
L 481.627277 426.483549 
L 482.142057 427.533736 
L 482.399446 427.62889 
L 482.656836 427.315493 
L 482.914226 426.474819 
L 483.171616 428.121247 
L 483.429006 428.305445 
L 483.686396 428.306317 
L 483.943786 426.920909 
L 484.201176 427.608812 
L 484.458566 427.845387 
L 484.715956 427.724917 
L 484.973346 426.39887 
L 485.230736 426.429425 
L 485.488126 427.606193 
L 485.745516 427.512785 
L 486.002906 427.294541 
L 486.260296 426.831865 
L 486.775076 426.788217 
L 487.032466 426.31943 
L 487.289856 424.73411 
L 487.804636 425.534627 
L 488.062026 425.245673 
L 488.319416 425.237816 
L 488.576806 424.416348 
L 488.834196 425.464789 
L 489.091586 423.88558 
L 489.348976 423.27799 
L 489.606366 422.992528 
L 490.121145 423.358304 
L 490.378535 422.975942 
L 490.635925 422.956736 
L 490.893315 422.011306 
L 491.150705 423.591388 
L 491.408095 423.959783 
L 491.665485 423.582658 
L 491.922875 422.206852 
L 492.180265 423.266642 
L 492.437655 422.559533 
L 492.695045 422.831901 
L 492.952435 421.518076 
L 493.209825 422.38843 
L 493.467215 422.213836 
L 493.724605 421.752033 
L 493.981995 420.879059 
L 494.239385 420.696608 
L 494.496775 422.092492 
L 494.754165 422.260976 
L 495.011555 422.117809 
L 495.268945 421.186346 
L 495.526335 421.085081 
L 495.783725 422.304625 
L 496.041115 422.211217 
L 496.298505 421.367051 
L 496.555895 421.214281 
L 496.813285 421.919644 
L 497.070675 421.93623 
L 497.585455 421.094684 
L 497.842845 423.477028 
L 498.357624 420.801365 
L 498.615014 420.82057 
L 498.872404 420.511538 
L 499.129794 421.653387 
L 499.387184 421.841076 
L 499.901964 420.976832 
L 500.159354 423.224739 
L 500.416744 422.087255 
L 500.674134 422.025273 
L 500.931524 420.514156 
L 501.188914 421.058892 
L 501.446304 422.107333 
L 501.961084 421.390622 
L 502.218474 421.429906 
L 502.475864 424.799583 
L 502.733254 424.184137 
L 502.990644 424.220802 
L 503.248034 421.26666 
L 503.505424 422.492314 
L 503.762814 422.265341 
L 504.020204 420.72367 
L 504.277594 423.044033 
L 504.534984 423.172361 
L 504.792374 423.613212 
L 505.049764 420.761208 
L 505.564544 419.86641 
L 506.079323 420.176316 
L 506.336713 419.29985 
L 506.594103 418.938439 
L 506.851493 418.777812 
L 507.108883 419.758161 
L 507.366273 419.121764 
L 507.623663 417.752941 
L 507.881053 417.868174 
L 508.138443 417.536444 
L 508.395833 417.590568 
L 508.653223 418.018325 
L 509.425393 416.562206 
L 509.682783 416.621568 
L 509.940173 415.802719 
L 510.197563 416.632043 
L 510.454953 418.238315 
L 510.969733 417.606282 
L 511.227123 417.285028 
L 511.484513 417.531206 
L 511.741903 417.393276 
L 511.999293 416.941076 
L 512.256683 416.126592 
L 512.771463 417.446528 
L 513.286243 415.945886 
L 513.543633 416.582284 
L 513.801022 417.759925 
L 514.058412 417.896982 
L 514.315802 417.839366 
L 514.573192 417.285028 
L 514.830582 418.466161 
L 515.345362 417.304233 
L 515.602752 416.43126 
L 515.860142 416.439116 
L 516.374922 418.551712 
L 516.632312 418.613693 
L 516.889702 418.352674 
L 517.404482 419.496269 
L 517.661872 419.203823 
L 517.919262 417.881268 
L 518.434042 419.481429 
L 518.691432 419.31731 
L 518.948822 418.016579 
L 519.463602 419.21168 
L 519.978382 419.030102 
L 520.235772 418.189428 
L 520.493162 418.343071 
L 520.750552 417.90222 
L 521.007942 417.983406 
L 521.265332 417.160192 
L 521.522722 417.793098 
L 521.780111 419.476191 
L 522.037501 418.587504 
L 522.294891 418.38672 
L 522.552281 416.416419 
L 522.809671 416.364041 
L 523.067061 416.549111 
L 523.324451 415.132275 
L 523.581841 415.118308 
L 523.839231 415.310362 
L 524.096621 416.222619 
L 524.354011 416.047151 
L 524.611401 414.895699 
L 524.868791 414.365804 
L 525.126181 415.414246 
L 525.383571 414.81364 
L 525.640961 414.70801 
L 525.898351 414.295094 
L 526.155741 414.481037 
L 526.927911 413.653458 
L 527.185301 414.33525 
L 527.442691 415.408135 
L 527.700081 415.211716 
L 528.214861 413.72155 
L 528.472251 415.3479 
L 528.987031 412.537798 
L 529.244421 412.277652 
L 529.7592 414.577937 
L 530.27398 414.674837 
L 530.53137 414.314299 
L 530.78876 414.801418 
L 531.04615 414.894826 
L 531.30354 414.81364 
L 531.56093 414.013996 
L 532.07571 415.705819 
L 532.59049 414.603253 
L 532.84788 413.794007 
L 533.10527 414.687059 
L 533.62005 414.875621 
L 533.87744 414.169385 
L 534.13483 415.472735 
L 534.39222 415.161083 
L 534.64961 417.010041 
L 534.907 416.139686 
L 535.16439 416.302932 
L 535.42178 415.529478 
L 535.93656 415.251872 
L 536.19395 414.241842 
L 536.70873 414.469688 
L 536.96612 414.451356 
L 537.22351 413.936301 
L 537.738289 416.119608 
L 538.510459 413.630761 
L 538.767849 415.382818 
L 539.025239 415.222191 
L 539.282629 414.340488 
L 539.540019 413.053725 
L 539.797409 413.993045 
L 540.312189 412.069011 
L 540.569579 411.318254 
L 541.084359 412.361457 
L 541.341749 412.295111 
L 541.599139 411.867354 
L 541.856529 410.855578 
L 542.113919 411.459676 
L 542.628699 409.961653 
L 542.886089 409.543499 
L 543.400869 411.282462 
L 543.915649 411.39333 
L 544.173039 409.61421 
L 544.430429 411.309524 
L 544.687819 411.127073 
L 544.945209 411.211751 
L 545.202599 409.72595 
L 545.459988 409.829834 
L 545.717378 410.129264 
L 545.974768 408.324828 
L 546.232158 408.203485 
L 546.489548 408.598942 
L 546.746938 410.054188 
L 547.004328 409.495485 
L 547.261718 409.976494 
L 547.519108 409.174231 
L 547.776498 410.980413 
L 548.033888 410.399886 
L 548.291278 410.426075 
L 548.548668 409.387237 
L 548.806058 409.271131 
L 549.063448 408.863453 
L 549.320838 408.677509 
L 549.578228 407.952068 
L 549.835618 408.330939 
L 550.093008 409.864753 
L 550.350398 409.773964 
L 550.607788 409.815867 
L 550.865178 409.080823 
L 551.122568 409.63778 
L 551.637348 409.692777 
L 551.894738 408.833772 
L 552.152128 409.230102 
L 552.409518 410.289891 
L 552.666908 410.054188 
L 552.924298 410.027999 
L 553.181687 409.496358 
L 553.439077 410.97343 
L 553.696467 410.241878 
L 553.953857 410.124026 
L 554.211247 409.082569 
L 554.468637 409.494613 
L 554.726027 410.918432 
L 554.983417 410.772646 
L 555.240807 410.916686 
L 555.498197 410.090853 
L 555.755587 410.156326 
L 556.270367 409.612464 
L 556.527757 408.516882 
L 556.785147 408.307369 
L 557.299927 406.862598 
L 557.557317 405.375051 
L 557.814707 406.042875 
L 558.072097 407.05989 
L 558.329487 407.234484 
L 558.586877 407.0337 
L 558.844267 406.223581 
L 559.101657 407.264165 
L 559.616437 406.450554 
L 559.873827 404.439223 
L 560.131217 404.933326 
L 560.388607 404.809364 
L 560.645997 404.296929 
L 560.903387 404.295183 
L 561.160776 403.730369 
L 561.418166 405.077367 
L 561.932946 405.096572 
L 562.190336 404.083923 
L 562.447726 404.653102 
L 562.705116 404.628658 
L 562.962506 404.372877 
L 563.477286 403.473715 
L 563.734676 405.685829 
L 563.992066 405.485045 
L 564.249456 405.100064 
L 564.506846 403.911947 
L 564.764236 403.99488 
L 565.021626 405.024115 
L 565.536406 403.324436 
L 566.051186 404.894042 
L 566.565966 404.854759 
L 566.823356 407.012749 
L 567.080746 406.789268 
L 567.338136 406.723795 
L 567.595526 403.026752 
L 567.852916 402.786684 
L 568.110306 403.384671 
L 568.367696 404.543107 
L 568.625086 406.406905 
L 568.882475 406.588484 
L 569.397255 405.100064 
L 569.654645 405.107921 
L 569.912035 405.448381 
L 570.169425 404.119715 
L 570.426815 403.902345 
L 570.684205 404.633896 
L 570.941595 404.803253 
L 571.198985 403.72775 
L 571.713765 404.998799 
L 571.971155 404.764842 
L 572.485935 403.194363 
L 572.743325 404.243677 
L 573.000715 404.408669 
L 573.515495 402.880966 
L 573.772885 403.060798 
L 574.030275 403.834253 
L 574.545055 402.243695 
L 574.802445 400.990978 
L 575.059835 402.470668 
L 575.317225 402.449717 
L 575.574615 401.961725 
L 575.832005 401.169938 
L 576.089395 401.199619 
L 576.346785 401.539205 
L 576.604175 401.001454 
L 576.861564 399.944283 
L 577.118954 400.227999 
L 577.376344 401.17954 
L 577.891124 399.513034 
L 578.148514 399.416134 
L 578.405904 399.66755 
L 578.663294 399.650964 
L 578.920684 399.492956 
L 579.178074 398.930761 
L 579.435464 398.720374 
L 579.692854 399.536604 
L 579.950244 399.444069 
L 580.207634 398.667996 
L 580.465024 398.537923 
L 580.722414 400.159034 
L 580.979804 399.800242 
L 581.494584 398.488163 
L 581.751974 400.173875 
L 582.009364 399.743499 
L 582.266754 399.792386 
L 582.524144 399.066945 
L 582.781534 399.746118 
L 583.038924 399.390818 
L 583.553704 399.733896 
L 583.811094 398.557128 
L 584.068484 398.688947 
L 584.325874 398.444515 
L 584.583264 398.434039 
L 584.840653 397.721692 
L 585.098043 398.015885 
L 585.355433 398.558001 
L 585.612823 398.414833 
L 585.870213 398.023741 
L 586.127603 398.082231 
L 586.384993 399.543588 
L 586.642383 399.302647 
L 586.899773 399.355899 
L 587.157163 398.32579 
L 587.414553 399.677153 
L 587.671943 399.623902 
L 587.929333 399.369866 
L 588.186723 398.677598 
L 588.701503 399.87881 
L 589.216283 399.380342 
L 589.473673 396.799833 
L 589.731063 399.209239 
L 589.988453 399.057342 
L 590.503233 398.068263 
L 590.760623 398.125006 
L 591.018013 398.757912 
L 591.275403 398.391263 
L 591.532793 397.165608 
L 591.790183 397.101008 
L 592.047573 397.340203 
L 592.304963 397.342822 
L 592.819742 396.1678 
L 593.077132 396.32057 
L 593.334522 396.847846 
L 593.591912 396.516116 
L 593.849302 395.578543 
L 594.106692 396.025505 
L 594.621472 394.742234 
L 594.878862 393.575942 
L 595.136252 393.885847 
L 595.393642 394.772788 
L 595.651032 394.624383 
L 595.908422 393.874498 
L 596.165812 393.840453 
L 596.423202 393.293971 
L 596.680592 394.129407 
L 596.937982 394.118931 
L 597.195372 393.175247 
L 597.710152 394.339793 
L 597.967542 394.457645 
L 598.224932 393.96005 
L 598.482322 393.197071 
L 598.739712 395.623937 
L 598.997102 396.53794 
L 599.254492 395.731313 
L 599.511882 395.589018 
L 599.769272 394.393045 
L 600.026662 395.023332 
L 600.284052 394.988413 
L 600.798831 393.222387 
L 601.056221 393.719982 
L 601.313611 393.730458 
L 601.828391 391.998479 
L 602.343171 393.781963 
L 602.600561 393.47555 
L 602.857951 392.85923 
L 603.115341 393.431901 
L 603.372731 394.770169 
L 603.887511 394.228926 
L 604.144901 394.034253 
L 604.402291 394.875799 
L 604.659681 395.001507 
L 604.917071 394.706442 
L 605.174461 393.704269 
L 605.431851 394.063061 
L 605.689241 394.950875 
L 606.204021 394.248131 
L 606.461411 394.317969 
L 606.718801 393.391744 
L 606.976191 393.511342 
L 607.490971 392.544087 
L 607.748361 393.639669 
L 608.26314 394.163453 
L 608.77792 392.99716 
L 609.03531 393.128979 
L 609.80748 390.819091 
L 610.32226 392.974463 
L 610.57965 393.054776 
L 610.83704 391.733095 
L 611.09443 391.740951 
L 611.60921 391.081856 
L 611.8666 389.203218 
L 612.38138 388.332863 
L 612.63877 388.610469 
L 612.89616 388.378258 
L 613.15355 387.672895 
L 613.41094 388.859266 
L 613.66833 389.193615 
L 613.92572 389.077509 
L 614.18311 388.182712 
L 614.69789 389.218931 
L 615.21267 388.782444 
L 615.47006 388.193187 
L 615.72745 389.705177 
L 615.98484 388.638404 
L 616.242229 388.333736 
L 616.499619 387.775906 
L 616.757009 387.816936 
L 617.014399 388.76062 
L 617.271789 388.407066 
L 617.529179 388.41405 
L 618.043959 387.695592 
L 618.558739 387.654563 
L 618.816129 386.655881 
L 619.073519 387.182284 
L 619.330909 387.998514 
L 619.330909 387.998514 
" style="fill:none;stroke:#1f77b4;stroke-linecap:square;stroke-width:1.5;"/>
   </g>
   <g id="patch_3">
    <path d="M 108 448.56 
L 108 60.48 
" style="fill:none;stroke:#000000;stroke-linecap:square;stroke-linejoin:miter;stroke-width:0.8;"/>
   </g>
   <g id="patch_4">
    <path d="M 643.68 448.56 
L 643.68 60.48 
" style="fill:none;stroke:#000000;stroke-linecap:square;stroke-linejoin:miter;stroke-width:0.8;"/>
   </g>
   <g id="patch_5">
    <path d="M 108 448.56 
L 643.68 448.56 
" style="fill:none;stroke:#000000;stroke-linecap:square;stroke-linejoin:miter;stroke-width:0.8;"/>
   </g>
   <g id="patch_6">
    <path d="M 108 60.48 
L 643.68 60.48 
" style="fill:none;stroke:#000000;stroke-linecap:square;stroke-linejoin:miter;stroke-width:0.8;"/>
   </g>
   <g id="text_33">
    <!-- unikernel_base - vmstat -->
    <g transform="translate(285.930234 54.48)scale(0.15 -0.15)">
     <defs>
      <path d="M 8.5 21.578125 
L 8.5 54.6875 
L 17.484375 54.6875 
L 17.484375 21.921875 
Q 17.484375 14.15625 20.5 10.265625 
Q 23.53125 6.390625 29.59375 6.390625 
Q 36.859375 6.390625 41.078125 11.03125 
Q 45.3125 15.671875 45.3125 23.6875 
L 45.3125 54.6875 
L 54.296875 54.6875 
L 54.296875 0 
L 45.3125 0 
L 45.3125 8.40625 
Q 42.046875 3.421875 37.71875 1 
Q 33.40625 -1.421875 27.6875 -1.421875 
Q 18.265625 -1.421875 13.375 4.4375 
Q 8.5 10.296875 8.5 21.578125 
z
M 31.109375 56 
z
" id="DejaVuSans-117"/>
      <path d="M 54.890625 33.015625 
L 54.890625 0 
L 45.90625 0 
L 45.90625 32.71875 
Q 45.90625 40.484375 42.875 44.328125 
Q 39.84375 48.1875 33.796875 48.1875 
Q 26.515625 48.1875 22.3125 43.546875 
Q 18.109375 38.921875 18.109375 30.90625 
L 18.109375 0 
L 9.078125 0 
L 9.078125 54.6875 
L 18.109375 54.6875 
L 18.109375 46.1875 
Q 21.34375 51.125 25.703125 53.5625 
Q 30.078125 56 35.796875 56 
Q 45.21875 56 50.046875 50.171875 
Q 54.890625 44.34375 54.890625 33.015625 
z
" id="DejaVuSans-110"/>
      <path d="M 9.078125 75.984375 
L 18.109375 75.984375 
L 18.109375 31.109375 
L 44.921875 54.6875 
L 56.390625 54.6875 
L 27.390625 29.109375 
L 57.625 0 
L 45.90625 0 
L 18.109375 26.703125 
L 18.109375 0 
L 9.078125 0 
z
" id="DejaVuSans-107"/>
      <path d="M 41.109375 46.296875 
Q 39.59375 47.171875 37.8125 47.578125 
Q 36.03125 48 33.890625 48 
Q 26.265625 48 22.1875 43.046875 
Q 18.109375 38.09375 18.109375 28.8125 
L 18.109375 0 
L 9.078125 0 
L 9.078125 54.6875 
L 18.109375 54.6875 
L 18.109375 46.1875 
Q 20.953125 51.171875 25.484375 53.578125 
Q 30.03125 56 36.53125 56 
Q 37.453125 56 38.578125 55.875 
Q 39.703125 55.765625 41.0625 55.515625 
z
" id="DejaVuSans-114"/>
      <path d="M 9.421875 75.984375 
L 18.40625 75.984375 
L 18.40625 0 
L 9.421875 0 
z
" id="DejaVuSans-108"/>
      <path d="M 50.984375 -16.609375 
L 50.984375 -23.578125 
L -0.984375 -23.578125 
L -0.984375 -16.609375 
z
" id="DejaVuSans-95"/>
      <path d="M 48.6875 27.296875 
Q 48.6875 37.203125 44.609375 42.84375 
Q 40.53125 48.484375 33.40625 48.484375 
Q 26.265625 48.484375 22.1875 42.84375 
Q 18.109375 37.203125 18.109375 27.296875 
Q 18.109375 17.390625 22.1875 11.75 
Q 26.265625 6.109375 33.40625 6.109375 
Q 40.53125 6.109375 44.609375 11.75 
Q 48.6875 17.390625 48.6875 27.296875 
z
M 18.109375 46.390625 
Q 20.953125 51.265625 25.265625 53.625 
Q 29.59375 56 35.59375 56 
Q 45.5625 56 51.78125 48.09375 
Q 58.015625 40.1875 58.015625 27.296875 
Q 58.015625 14.40625 51.78125 6.484375 
Q 45.5625 -1.421875 35.59375 -1.421875 
Q 29.59375 -1.421875 25.265625 0.953125 
Q 20.953125 3.328125 18.109375 8.203125 
L 18.109375 0 
L 9.078125 0 
L 9.078125 75.984375 
L 18.109375 75.984375 
z
" id="DejaVuSans-98"/>
      <path id="DejaVuSans-32"/>
      <path d="M 4.890625 31.390625 
L 31.203125 31.390625 
L 31.203125 23.390625 
L 4.890625 23.390625 
z
" id="DejaVuSans-45"/>
      <path d="M 2.984375 54.6875 
L 12.5 54.6875 
L 29.59375 8.796875 
L 46.6875 54.6875 
L 56.203125 54.6875 
L 35.6875 0 
L 23.484375 0 
z
" id="DejaVuSans-118"/>
     </defs>
     <use xlink:href="#DejaVuSans-117"/>
     <use x="63.378906" xlink:href="#DejaVuSans-110"/>
     <use x="126.757812" xlink:href="#DejaVuSans-105"/>
     <use x="154.541016" xlink:href="#DejaVuSans-107"/>
     <use x="208.826172" xlink:href="#DejaVuSans-101"/>
     <use x="270.349609" xlink:href="#DejaVuSans-114"/>
     <use x="309.712891" xlink:href="#DejaVuSans-110"/>
     <use x="373.091797" xlink:href="#DejaVuSans-101"/>
     <use x="434.615234" xlink:href="#DejaVuSans-108"/>
     <use x="462.398438" xlink:href="#DejaVuSans-95"/>
     <use x="512.398438" xlink:href="#DejaVuSans-98"/>
     <use x="575.875" xlink:href="#DejaVuSans-97"/>
     <use x="637.154297" xlink:href="#DejaVuSans-115"/>
     <use x="689.253906" xlink:href="#DejaVuSans-101"/>
     <use x="750.777344" xlink:href="#DejaVuSans-32"/>
     <use x="782.564453" xlink:href="#DejaVuSans-45"/>
     <use x="818.648438" xlink:href="#DejaVuSans-32"/>
     <use x="850.435547" xlink:href="#DejaVuSans-118"/>
     <use x="909.615234" xlink:href="#DejaVuSans-109"/>
     <use x="1007.027344" xlink:href="#DejaVuSans-115"/>
     <use x="1059.126953" xlink:href="#DejaVuSans-116"/>
     <use x="1098.335938" xlink:href="#DejaVuSans-97"/>
     <use x="1159.615234" xlink:href="#DejaVuSans-116"/>
    </g>
   </g>
   <g id="legend_1">
    <g id="patch_7">
     <path d="M 650.68 258.52 
L 654.68 258.52 
Q 656.68 258.52 656.68 256.52 
L 656.68 252.52 
Q 656.68 250.52 654.68 250.52 
L 650.68 250.52 
Q 648.68 250.52 648.68 252.52 
L 648.68 256.52 
Q 648.68 258.52 650.68 258.52 
z
" style="fill:#ffffff;opacity:0.8;stroke:#cccccc;stroke-linejoin:miter;"/>
    </g>
   </g>
  </g>
 </g>
 <defs>
  <clipPath id="p5da94dccf7">
   <rect height="388.08" width="535.68" x="108" y="60.48"/>
  </clipPath>
 </defs>
</svg>
