<?xml version="1.0" encoding="utf-8" standalone="no"?>
<!DOCTYPE svg PUBLIC "-//W3C//DTD SVG 1.1//EN"
  "http://www.w3.org/Graphics/SVG/1.1/DTD/svg11.dtd">
<!-- Created with matplotlib (https://matplotlib.org/) -->
<svg height="504pt" version="1.1" viewBox="0 0 864 504" width="864pt" xmlns="http://www.w3.org/2000/svg" xmlns:xlink="http://www.w3.org/1999/xlink">
 <metadata>
  <rdf:RDF xmlns:cc="http://creativecommons.org/ns#" xmlns:dc="http://purl.org/dc/elements/1.1/" xmlns:rdf="http://www.w3.org/1999/02/22-rdf-syntax-ns#">
   <cc:Work>
    <dc:type rdf:resource="http://purl.org/dc/dcmitype/StillImage"/>
    <dc:date>2022-05-29T17:27:53.808686</dc:date>
    <dc:format>image/svg+xml</dc:format>
    <dc:creator>
     <cc:Agent>
      <dc:title>Matplotlib v3.3.4, https://matplotlib.org/</dc:title>
     </cc:Agent>
    </dc:creator>
   </cc:Work>
  </rdf:RDF>
 </metadata>
 <defs>
  <style type="text/css">*{stroke-linecap:butt;stroke-linejoin:round;}</style>
 </defs>
 <g id="figure_1">
  <g id="patch_1">
   <path d="M 0 504 
L 864 504 
L 864 0 
L 0 0 
z
" style="fill:#ffffff;"/>
  </g>
  <g id="axes_1">
   <g id="patch_2">
    <path d="M 108 448.56 
L 643.68 448.56 
L 643.68 60.48 
L 108 60.48 
z
" style="fill:#ffffff;"/>
   </g>
   <g id="matplotlib.axis_1">
    <g id="xtick_1">
     <g id="line2d_1">
      <defs>
       <path d="M 0 0 
L 0 3.5 
" id="m613af60716" style="stroke:#000000;stroke-width:0.8;"/>
      </defs>
      <g>
       <use style="stroke:#000000;stroke-width:0.8;" x="132.349091" xlink:href="#m613af60716" y="448.56"/>
      </g>
     </g>
     <g id="text_1">
      <!-- 22:36:58 -->
      <g transform="translate(135.108466 500.4725)rotate(-90)scale(0.1 -0.1)">
       <defs>
        <path d="M 19.1875 8.296875 
L 53.609375 8.296875 
L 53.609375 0 
L 7.328125 0 
L 7.328125 8.296875 
Q 12.9375 14.109375 22.625 23.890625 
Q 32.328125 33.6875 34.8125 36.53125 
Q 39.546875 41.84375 41.421875 45.53125 
Q 43.3125 49.21875 43.3125 52.78125 
Q 43.3125 58.59375 39.234375 62.25 
Q 35.15625 65.921875 28.609375 65.921875 
Q 23.96875 65.921875 18.8125 64.3125 
Q 13.671875 62.703125 7.8125 59.421875 
L 7.8125 69.390625 
Q 13.765625 71.78125 18.9375 73 
Q 24.125 74.21875 28.421875 74.21875 
Q 39.75 74.21875 46.484375 68.546875 
Q 53.21875 62.890625 53.21875 53.421875 
Q 53.21875 48.921875 51.53125 44.890625 
Q 49.859375 40.875 45.40625 35.40625 
Q 44.1875 33.984375 37.640625 27.21875 
Q 31.109375 20.453125 19.1875 8.296875 
z
" id="DejaVuSans-50"/>
        <path d="M 11.71875 12.40625 
L 22.015625 12.40625 
L 22.015625 0 
L 11.71875 0 
z
M 11.71875 51.703125 
L 22.015625 51.703125 
L 22.015625 39.3125 
L 11.71875 39.3125 
z
" id="DejaVuSans-58"/>
        <path d="M 40.578125 39.3125 
Q 47.65625 37.796875 51.625 33 
Q 55.609375 28.21875 55.609375 21.1875 
Q 55.609375 10.40625 48.1875 4.484375 
Q 40.765625 -1.421875 27.09375 -1.421875 
Q 22.515625 -1.421875 17.65625 -0.515625 
Q 12.796875 0.390625 7.625 2.203125 
L 7.625 11.71875 
Q 11.71875 9.328125 16.59375 8.109375 
Q 21.484375 6.890625 26.8125 6.890625 
Q 36.078125 6.890625 40.9375 10.546875 
Q 45.796875 14.203125 45.796875 21.1875 
Q 45.796875 27.640625 41.28125 31.265625 
Q 36.765625 34.90625 28.71875 34.90625 
L 20.21875 34.90625 
L 20.21875 43.015625 
L 29.109375 43.015625 
Q 36.375 43.015625 40.234375 45.921875 
Q 44.09375 48.828125 44.09375 54.296875 
Q 44.09375 59.90625 40.109375 62.90625 
Q 36.140625 65.921875 28.71875 65.921875 
Q 24.65625 65.921875 20.015625 65.03125 
Q 15.375 64.15625 9.8125 62.3125 
L 9.8125 71.09375 
Q 15.4375 72.65625 20.34375 73.4375 
Q 25.25 74.21875 29.59375 74.21875 
Q 40.828125 74.21875 47.359375 69.109375 
Q 53.90625 64.015625 53.90625 55.328125 
Q 53.90625 49.265625 50.4375 45.09375 
Q 46.96875 40.921875 40.578125 39.3125 
z
" id="DejaVuSans-51"/>
        <path d="M 33.015625 40.375 
Q 26.375 40.375 22.484375 35.828125 
Q 18.609375 31.296875 18.609375 23.390625 
Q 18.609375 15.53125 22.484375 10.953125 
Q 26.375 6.390625 33.015625 6.390625 
Q 39.65625 6.390625 43.53125 10.953125 
Q 47.40625 15.53125 47.40625 23.390625 
Q 47.40625 31.296875 43.53125 35.828125 
Q 39.65625 40.375 33.015625 40.375 
z
M 52.59375 71.296875 
L 52.59375 62.3125 
Q 48.875 64.0625 45.09375 64.984375 
Q 41.3125 65.921875 37.59375 65.921875 
Q 27.828125 65.921875 22.671875 59.328125 
Q 17.53125 52.734375 16.796875 39.40625 
Q 19.671875 43.65625 24.015625 45.921875 
Q 28.375 48.1875 33.59375 48.1875 
Q 44.578125 48.1875 50.953125 41.515625 
Q 57.328125 34.859375 57.328125 23.390625 
Q 57.328125 12.15625 50.6875 5.359375 
Q 44.046875 -1.421875 33.015625 -1.421875 
Q 20.359375 -1.421875 13.671875 8.265625 
Q 6.984375 17.96875 6.984375 36.375 
Q 6.984375 53.65625 15.1875 63.9375 
Q 23.390625 74.21875 37.203125 74.21875 
Q 40.921875 74.21875 44.703125 73.484375 
Q 48.484375 72.75 52.59375 71.296875 
z
" id="DejaVuSans-54"/>
        <path d="M 10.796875 72.90625 
L 49.515625 72.90625 
L 49.515625 64.59375 
L 19.828125 64.59375 
L 19.828125 46.734375 
Q 21.96875 47.46875 24.109375 47.828125 
Q 26.265625 48.1875 28.421875 48.1875 
Q 40.625 48.1875 47.75 41.5 
Q 54.890625 34.8125 54.890625 23.390625 
Q 54.890625 11.625 47.5625 5.09375 
Q 40.234375 -1.421875 26.90625 -1.421875 
Q 22.3125 -1.421875 17.546875 -0.640625 
Q 12.796875 0.140625 7.71875 1.703125 
L 7.71875 11.625 
Q 12.109375 9.234375 16.796875 8.0625 
Q 21.484375 6.890625 26.703125 6.890625 
Q 35.15625 6.890625 40.078125 11.328125 
Q 45.015625 15.765625 45.015625 23.390625 
Q 45.015625 31 40.078125 35.4375 
Q 35.15625 39.890625 26.703125 39.890625 
Q 22.75 39.890625 18.8125 39.015625 
Q 14.890625 38.140625 10.796875 36.28125 
z
" id="DejaVuSans-53"/>
        <path d="M 31.78125 34.625 
Q 24.75 34.625 20.71875 30.859375 
Q 16.703125 27.09375 16.703125 20.515625 
Q 16.703125 13.921875 20.71875 10.15625 
Q 24.75 6.390625 31.78125 6.390625 
Q 38.8125 6.390625 42.859375 10.171875 
Q 46.921875 13.96875 46.921875 20.515625 
Q 46.921875 27.09375 42.890625 30.859375 
Q 38.875 34.625 31.78125 34.625 
z
M 21.921875 38.8125 
Q 15.578125 40.375 12.03125 44.71875 
Q 8.5 49.078125 8.5 55.328125 
Q 8.5 64.0625 14.71875 69.140625 
Q 20.953125 74.21875 31.78125 74.21875 
Q 42.671875 74.21875 48.875 69.140625 
Q 55.078125 64.0625 55.078125 55.328125 
Q 55.078125 49.078125 51.53125 44.71875 
Q 48 40.375 41.703125 38.8125 
Q 48.828125 37.15625 52.796875 32.3125 
Q 56.78125 27.484375 56.78125 20.515625 
Q 56.78125 9.90625 50.3125 4.234375 
Q 43.84375 -1.421875 31.78125 -1.421875 
Q 19.734375 -1.421875 13.25 4.234375 
Q 6.78125 9.90625 6.78125 20.515625 
Q 6.78125 27.484375 10.78125 32.3125 
Q 14.796875 37.15625 21.921875 38.8125 
z
M 18.3125 54.390625 
Q 18.3125 48.734375 21.84375 45.5625 
Q 25.390625 42.390625 31.78125 42.390625 
Q 38.140625 42.390625 41.71875 45.5625 
Q 45.3125 48.734375 45.3125 54.390625 
Q 45.3125 60.0625 41.71875 63.234375 
Q 38.140625 66.40625 31.78125 66.40625 
Q 25.390625 66.40625 21.84375 63.234375 
Q 18.3125 60.0625 18.3125 54.390625 
z
" id="DejaVuSans-56"/>
       </defs>
       <use xlink:href="#DejaVuSans-50"/>
       <use x="63.623047" xlink:href="#DejaVuSans-50"/>
       <use x="127.246094" xlink:href="#DejaVuSans-58"/>
       <use x="160.9375" xlink:href="#DejaVuSans-51"/>
       <use x="224.560547" xlink:href="#DejaVuSans-54"/>
       <use x="288.183594" xlink:href="#DejaVuSans-58"/>
       <use x="321.875" xlink:href="#DejaVuSans-53"/>
       <use x="385.498047" xlink:href="#DejaVuSans-56"/>
      </g>
     </g>
    </g>
    <g id="xtick_2">
     <g id="line2d_2">
      <g>
       <use style="stroke:#000000;stroke-width:0.8;" x="156.518199" xlink:href="#m613af60716" y="448.56"/>
      </g>
     </g>
     <g id="text_2">
      <!-- 22:37:51 -->
      <g transform="translate(159.277574 500.4725)rotate(-90)scale(0.1 -0.1)">
       <defs>
        <path d="M 8.203125 72.90625 
L 55.078125 72.90625 
L 55.078125 68.703125 
L 28.609375 0 
L 18.3125 0 
L 43.21875 64.59375 
L 8.203125 64.59375 
z
" id="DejaVuSans-55"/>
        <path d="M 12.40625 8.296875 
L 28.515625 8.296875 
L 28.515625 63.921875 
L 10.984375 60.40625 
L 10.984375 69.390625 
L 28.421875 72.90625 
L 38.28125 72.90625 
L 38.28125 8.296875 
L 54.390625 8.296875 
L 54.390625 0 
L 12.40625 0 
z
" id="DejaVuSans-49"/>
       </defs>
       <use xlink:href="#DejaVuSans-50"/>
       <use x="63.623047" xlink:href="#DejaVuSans-50"/>
       <use x="127.246094" xlink:href="#DejaVuSans-58"/>
       <use x="160.9375" xlink:href="#DejaVuSans-51"/>
       <use x="224.560547" xlink:href="#DejaVuSans-55"/>
       <use x="288.183594" xlink:href="#DejaVuSans-58"/>
       <use x="321.875" xlink:href="#DejaVuSans-53"/>
       <use x="385.498047" xlink:href="#DejaVuSans-49"/>
      </g>
     </g>
    </g>
    <g id="xtick_3">
     <g id="line2d_3">
      <g>
       <use style="stroke:#000000;stroke-width:0.8;" x="180.687307" xlink:href="#m613af60716" y="448.56"/>
      </g>
     </g>
     <g id="text_3">
      <!-- 22:38:44 -->
      <g transform="translate(183.446682 500.4725)rotate(-90)scale(0.1 -0.1)">
       <defs>
        <path d="M 37.796875 64.3125 
L 12.890625 25.390625 
L 37.796875 25.390625 
z
M 35.203125 72.90625 
L 47.609375 72.90625 
L 47.609375 25.390625 
L 58.015625 25.390625 
L 58.015625 17.1875 
L 47.609375 17.1875 
L 47.609375 0 
L 37.796875 0 
L 37.796875 17.1875 
L 4.890625 17.1875 
L 4.890625 26.703125 
z
" id="DejaVuSans-52"/>
       </defs>
       <use xlink:href="#DejaVuSans-50"/>
       <use x="63.623047" xlink:href="#DejaVuSans-50"/>
       <use x="127.246094" xlink:href="#DejaVuSans-58"/>
       <use x="160.9375" xlink:href="#DejaVuSans-51"/>
       <use x="224.560547" xlink:href="#DejaVuSans-56"/>
       <use x="288.183594" xlink:href="#DejaVuSans-58"/>
       <use x="321.875" xlink:href="#DejaVuSans-52"/>
       <use x="385.498047" xlink:href="#DejaVuSans-52"/>
      </g>
     </g>
    </g>
    <g id="xtick_4">
     <g id="line2d_4">
      <g>
       <use style="stroke:#000000;stroke-width:0.8;" x="204.856415" xlink:href="#m613af60716" y="448.56"/>
      </g>
     </g>
     <g id="text_4">
      <!-- 22:39:37 -->
      <g transform="translate(207.61579 500.4725)rotate(-90)scale(0.1 -0.1)">
       <defs>
        <path d="M 10.984375 1.515625 
L 10.984375 10.5 
Q 14.703125 8.734375 18.5 7.8125 
Q 22.3125 6.890625 25.984375 6.890625 
Q 35.75 6.890625 40.890625 13.453125 
Q 46.046875 20.015625 46.78125 33.40625 
Q 43.953125 29.203125 39.59375 26.953125 
Q 35.25 24.703125 29.984375 24.703125 
Q 19.046875 24.703125 12.671875 31.3125 
Q 6.296875 37.9375 6.296875 49.421875 
Q 6.296875 60.640625 12.9375 67.421875 
Q 19.578125 74.21875 30.609375 74.21875 
Q 43.265625 74.21875 49.921875 64.515625 
Q 56.59375 54.828125 56.59375 36.375 
Q 56.59375 19.140625 48.40625 8.859375 
Q 40.234375 -1.421875 26.421875 -1.421875 
Q 22.703125 -1.421875 18.890625 -0.6875 
Q 15.09375 0.046875 10.984375 1.515625 
z
M 30.609375 32.421875 
Q 37.25 32.421875 41.125 36.953125 
Q 45.015625 41.5 45.015625 49.421875 
Q 45.015625 57.28125 41.125 61.84375 
Q 37.25 66.40625 30.609375 66.40625 
Q 23.96875 66.40625 20.09375 61.84375 
Q 16.21875 57.28125 16.21875 49.421875 
Q 16.21875 41.5 20.09375 36.953125 
Q 23.96875 32.421875 30.609375 32.421875 
z
" id="DejaVuSans-57"/>
       </defs>
       <use xlink:href="#DejaVuSans-50"/>
       <use x="63.623047" xlink:href="#DejaVuSans-50"/>
       <use x="127.246094" xlink:href="#DejaVuSans-58"/>
       <use x="160.9375" xlink:href="#DejaVuSans-51"/>
       <use x="224.560547" xlink:href="#DejaVuSans-57"/>
       <use x="288.183594" xlink:href="#DejaVuSans-58"/>
       <use x="321.875" xlink:href="#DejaVuSans-51"/>
       <use x="385.498047" xlink:href="#DejaVuSans-55"/>
      </g>
     </g>
    </g>
    <g id="xtick_5">
     <g id="line2d_5">
      <g>
       <use style="stroke:#000000;stroke-width:0.8;" x="229.025524" xlink:href="#m613af60716" y="448.56"/>
      </g>
     </g>
     <g id="text_5">
      <!-- 22:40:30 -->
      <g transform="translate(231.784899 500.4725)rotate(-90)scale(0.1 -0.1)">
       <defs>
        <path d="M 31.78125 66.40625 
Q 24.171875 66.40625 20.328125 58.90625 
Q 16.5 51.421875 16.5 36.375 
Q 16.5 21.390625 20.328125 13.890625 
Q 24.171875 6.390625 31.78125 6.390625 
Q 39.453125 6.390625 43.28125 13.890625 
Q 47.125 21.390625 47.125 36.375 
Q 47.125 51.421875 43.28125 58.90625 
Q 39.453125 66.40625 31.78125 66.40625 
z
M 31.78125 74.21875 
Q 44.046875 74.21875 50.515625 64.515625 
Q 56.984375 54.828125 56.984375 36.375 
Q 56.984375 17.96875 50.515625 8.265625 
Q 44.046875 -1.421875 31.78125 -1.421875 
Q 19.53125 -1.421875 13.0625 8.265625 
Q 6.59375 17.96875 6.59375 36.375 
Q 6.59375 54.828125 13.0625 64.515625 
Q 19.53125 74.21875 31.78125 74.21875 
z
" id="DejaVuSans-48"/>
       </defs>
       <use xlink:href="#DejaVuSans-50"/>
       <use x="63.623047" xlink:href="#DejaVuSans-50"/>
       <use x="127.246094" xlink:href="#DejaVuSans-58"/>
       <use x="160.9375" xlink:href="#DejaVuSans-52"/>
       <use x="224.560547" xlink:href="#DejaVuSans-48"/>
       <use x="288.183594" xlink:href="#DejaVuSans-58"/>
       <use x="321.875" xlink:href="#DejaVuSans-51"/>
       <use x="385.498047" xlink:href="#DejaVuSans-48"/>
      </g>
     </g>
    </g>
    <g id="xtick_6">
     <g id="line2d_6">
      <g>
       <use style="stroke:#000000;stroke-width:0.8;" x="253.194632" xlink:href="#m613af60716" y="448.56"/>
      </g>
     </g>
     <g id="text_6">
      <!-- 22:41:23 -->
      <g transform="translate(255.954007 500.4725)rotate(-90)scale(0.1 -0.1)">
       <use xlink:href="#DejaVuSans-50"/>
       <use x="63.623047" xlink:href="#DejaVuSans-50"/>
       <use x="127.246094" xlink:href="#DejaVuSans-58"/>
       <use x="160.9375" xlink:href="#DejaVuSans-52"/>
       <use x="224.560547" xlink:href="#DejaVuSans-49"/>
       <use x="288.183594" xlink:href="#DejaVuSans-58"/>
       <use x="321.875" xlink:href="#DejaVuSans-50"/>
       <use x="385.498047" xlink:href="#DejaVuSans-51"/>
      </g>
     </g>
    </g>
    <g id="xtick_7">
     <g id="line2d_7">
      <g>
       <use style="stroke:#000000;stroke-width:0.8;" x="277.36374" xlink:href="#m613af60716" y="448.56"/>
      </g>
     </g>
     <g id="text_7">
      <!-- 22:42:16 -->
      <g transform="translate(280.123115 500.4725)rotate(-90)scale(0.1 -0.1)">
       <use xlink:href="#DejaVuSans-50"/>
       <use x="63.623047" xlink:href="#DejaVuSans-50"/>
       <use x="127.246094" xlink:href="#DejaVuSans-58"/>
       <use x="160.9375" xlink:href="#DejaVuSans-52"/>
       <use x="224.560547" xlink:href="#DejaVuSans-50"/>
       <use x="288.183594" xlink:href="#DejaVuSans-58"/>
       <use x="321.875" xlink:href="#DejaVuSans-49"/>
       <use x="385.498047" xlink:href="#DejaVuSans-54"/>
      </g>
     </g>
    </g>
    <g id="xtick_8">
     <g id="line2d_8">
      <g>
       <use style="stroke:#000000;stroke-width:0.8;" x="301.532848" xlink:href="#m613af60716" y="448.56"/>
      </g>
     </g>
     <g id="text_8">
      <!-- 22:43:09 -->
      <g transform="translate(304.292223 500.4725)rotate(-90)scale(0.1 -0.1)">
       <use xlink:href="#DejaVuSans-50"/>
       <use x="63.623047" xlink:href="#DejaVuSans-50"/>
       <use x="127.246094" xlink:href="#DejaVuSans-58"/>
       <use x="160.9375" xlink:href="#DejaVuSans-52"/>
       <use x="224.560547" xlink:href="#DejaVuSans-51"/>
       <use x="288.183594" xlink:href="#DejaVuSans-58"/>
       <use x="321.875" xlink:href="#DejaVuSans-48"/>
       <use x="385.498047" xlink:href="#DejaVuSans-57"/>
      </g>
     </g>
    </g>
    <g id="xtick_9">
     <g id="line2d_9">
      <g>
       <use style="stroke:#000000;stroke-width:0.8;" x="325.701956" xlink:href="#m613af60716" y="448.56"/>
      </g>
     </g>
     <g id="text_9">
      <!-- 22:44:02 -->
      <g transform="translate(328.461331 500.4725)rotate(-90)scale(0.1 -0.1)">
       <use xlink:href="#DejaVuSans-50"/>
       <use x="63.623047" xlink:href="#DejaVuSans-50"/>
       <use x="127.246094" xlink:href="#DejaVuSans-58"/>
       <use x="160.9375" xlink:href="#DejaVuSans-52"/>
       <use x="224.560547" xlink:href="#DejaVuSans-52"/>
       <use x="288.183594" xlink:href="#DejaVuSans-58"/>
       <use x="321.875" xlink:href="#DejaVuSans-48"/>
       <use x="385.498047" xlink:href="#DejaVuSans-50"/>
      </g>
     </g>
    </g>
    <g id="xtick_10">
     <g id="line2d_10">
      <g>
       <use style="stroke:#000000;stroke-width:0.8;" x="349.871065" xlink:href="#m613af60716" y="448.56"/>
      </g>
     </g>
     <g id="text_10">
      <!-- 22:44:55 -->
      <g transform="translate(352.63044 500.4725)rotate(-90)scale(0.1 -0.1)">
       <use xlink:href="#DejaVuSans-50"/>
       <use x="63.623047" xlink:href="#DejaVuSans-50"/>
       <use x="127.246094" xlink:href="#DejaVuSans-58"/>
       <use x="160.9375" xlink:href="#DejaVuSans-52"/>
       <use x="224.560547" xlink:href="#DejaVuSans-52"/>
       <use x="288.183594" xlink:href="#DejaVuSans-58"/>
       <use x="321.875" xlink:href="#DejaVuSans-53"/>
       <use x="385.498047" xlink:href="#DejaVuSans-53"/>
      </g>
     </g>
    </g>
    <g id="xtick_11">
     <g id="line2d_11">
      <g>
       <use style="stroke:#000000;stroke-width:0.8;" x="374.040173" xlink:href="#m613af60716" y="448.56"/>
      </g>
     </g>
     <g id="text_11">
      <!-- 22:45:47 -->
      <g transform="translate(376.799548 500.4725)rotate(-90)scale(0.1 -0.1)">
       <use xlink:href="#DejaVuSans-50"/>
       <use x="63.623047" xlink:href="#DejaVuSans-50"/>
       <use x="127.246094" xlink:href="#DejaVuSans-58"/>
       <use x="160.9375" xlink:href="#DejaVuSans-52"/>
       <use x="224.560547" xlink:href="#DejaVuSans-53"/>
       <use x="288.183594" xlink:href="#DejaVuSans-58"/>
       <use x="321.875" xlink:href="#DejaVuSans-52"/>
       <use x="385.498047" xlink:href="#DejaVuSans-55"/>
      </g>
     </g>
    </g>
    <g id="xtick_12">
     <g id="line2d_12">
      <g>
       <use style="stroke:#000000;stroke-width:0.8;" x="398.209281" xlink:href="#m613af60716" y="448.56"/>
      </g>
     </g>
     <g id="text_12">
      <!-- 22:46:40 -->
      <g transform="translate(400.968656 500.4725)rotate(-90)scale(0.1 -0.1)">
       <use xlink:href="#DejaVuSans-50"/>
       <use x="63.623047" xlink:href="#DejaVuSans-50"/>
       <use x="127.246094" xlink:href="#DejaVuSans-58"/>
       <use x="160.9375" xlink:href="#DejaVuSans-52"/>
       <use x="224.560547" xlink:href="#DejaVuSans-54"/>
       <use x="288.183594" xlink:href="#DejaVuSans-58"/>
       <use x="321.875" xlink:href="#DejaVuSans-52"/>
       <use x="385.498047" xlink:href="#DejaVuSans-48"/>
      </g>
     </g>
    </g>
    <g id="xtick_13">
     <g id="line2d_13">
      <g>
       <use style="stroke:#000000;stroke-width:0.8;" x="422.378389" xlink:href="#m613af60716" y="448.56"/>
      </g>
     </g>
     <g id="text_13">
      <!-- 22:47:33 -->
      <g transform="translate(425.137764 500.4725)rotate(-90)scale(0.1 -0.1)">
       <use xlink:href="#DejaVuSans-50"/>
       <use x="63.623047" xlink:href="#DejaVuSans-50"/>
       <use x="127.246094" xlink:href="#DejaVuSans-58"/>
       <use x="160.9375" xlink:href="#DejaVuSans-52"/>
       <use x="224.560547" xlink:href="#DejaVuSans-55"/>
       <use x="288.183594" xlink:href="#DejaVuSans-58"/>
       <use x="321.875" xlink:href="#DejaVuSans-51"/>
       <use x="385.498047" xlink:href="#DejaVuSans-51"/>
      </g>
     </g>
    </g>
    <g id="xtick_14">
     <g id="line2d_14">
      <g>
       <use style="stroke:#000000;stroke-width:0.8;" x="446.547497" xlink:href="#m613af60716" y="448.56"/>
      </g>
     </g>
     <g id="text_14">
      <!-- 22:48:26 -->
      <g transform="translate(449.306872 500.4725)rotate(-90)scale(0.1 -0.1)">
       <use xlink:href="#DejaVuSans-50"/>
       <use x="63.623047" xlink:href="#DejaVuSans-50"/>
       <use x="127.246094" xlink:href="#DejaVuSans-58"/>
       <use x="160.9375" xlink:href="#DejaVuSans-52"/>
       <use x="224.560547" xlink:href="#DejaVuSans-56"/>
       <use x="288.183594" xlink:href="#DejaVuSans-58"/>
       <use x="321.875" xlink:href="#DejaVuSans-50"/>
       <use x="385.498047" xlink:href="#DejaVuSans-54"/>
      </g>
     </g>
    </g>
    <g id="xtick_15">
     <g id="line2d_15">
      <g>
       <use style="stroke:#000000;stroke-width:0.8;" x="470.716606" xlink:href="#m613af60716" y="448.56"/>
      </g>
     </g>
     <g id="text_15">
      <!-- 22:49:19 -->
      <g transform="translate(473.475981 500.4725)rotate(-90)scale(0.1 -0.1)">
       <use xlink:href="#DejaVuSans-50"/>
       <use x="63.623047" xlink:href="#DejaVuSans-50"/>
       <use x="127.246094" xlink:href="#DejaVuSans-58"/>
       <use x="160.9375" xlink:href="#DejaVuSans-52"/>
       <use x="224.560547" xlink:href="#DejaVuSans-57"/>
       <use x="288.183594" xlink:href="#DejaVuSans-58"/>
       <use x="321.875" xlink:href="#DejaVuSans-49"/>
       <use x="385.498047" xlink:href="#DejaVuSans-57"/>
      </g>
     </g>
    </g>
    <g id="xtick_16">
     <g id="line2d_16">
      <g>
       <use style="stroke:#000000;stroke-width:0.8;" x="494.885714" xlink:href="#m613af60716" y="448.56"/>
      </g>
     </g>
     <g id="text_16">
      <!-- 22:50:12 -->
      <g transform="translate(497.645089 500.4725)rotate(-90)scale(0.1 -0.1)">
       <use xlink:href="#DejaVuSans-50"/>
       <use x="63.623047" xlink:href="#DejaVuSans-50"/>
       <use x="127.246094" xlink:href="#DejaVuSans-58"/>
       <use x="160.9375" xlink:href="#DejaVuSans-53"/>
       <use x="224.560547" xlink:href="#DejaVuSans-48"/>
       <use x="288.183594" xlink:href="#DejaVuSans-58"/>
       <use x="321.875" xlink:href="#DejaVuSans-49"/>
       <use x="385.498047" xlink:href="#DejaVuSans-50"/>
      </g>
     </g>
    </g>
    <g id="xtick_17">
     <g id="line2d_17">
      <g>
       <use style="stroke:#000000;stroke-width:0.8;" x="519.054822" xlink:href="#m613af60716" y="448.56"/>
      </g>
     </g>
     <g id="text_17">
      <!-- 22:51:05 -->
      <g transform="translate(521.814197 500.4725)rotate(-90)scale(0.1 -0.1)">
       <use xlink:href="#DejaVuSans-50"/>
       <use x="63.623047" xlink:href="#DejaVuSans-50"/>
       <use x="127.246094" xlink:href="#DejaVuSans-58"/>
       <use x="160.9375" xlink:href="#DejaVuSans-53"/>
       <use x="224.560547" xlink:href="#DejaVuSans-49"/>
       <use x="288.183594" xlink:href="#DejaVuSans-58"/>
       <use x="321.875" xlink:href="#DejaVuSans-48"/>
       <use x="385.498047" xlink:href="#DejaVuSans-53"/>
      </g>
     </g>
    </g>
    <g id="xtick_18">
     <g id="line2d_18">
      <g>
       <use style="stroke:#000000;stroke-width:0.8;" x="543.22393" xlink:href="#m613af60716" y="448.56"/>
      </g>
     </g>
     <g id="text_18">
      <!-- 22:51:58 -->
      <g transform="translate(545.983305 500.4725)rotate(-90)scale(0.1 -0.1)">
       <use xlink:href="#DejaVuSans-50"/>
       <use x="63.623047" xlink:href="#DejaVuSans-50"/>
       <use x="127.246094" xlink:href="#DejaVuSans-58"/>
       <use x="160.9375" xlink:href="#DejaVuSans-53"/>
       <use x="224.560547" xlink:href="#DejaVuSans-49"/>
       <use x="288.183594" xlink:href="#DejaVuSans-58"/>
       <use x="321.875" xlink:href="#DejaVuSans-53"/>
       <use x="385.498047" xlink:href="#DejaVuSans-56"/>
      </g>
     </g>
    </g>
    <g id="xtick_19">
     <g id="line2d_19">
      <g>
       <use style="stroke:#000000;stroke-width:0.8;" x="567.393038" xlink:href="#m613af60716" y="448.56"/>
      </g>
     </g>
     <g id="text_19">
      <!-- 22:52:51 -->
      <g transform="translate(570.152413 500.4725)rotate(-90)scale(0.1 -0.1)">
       <use xlink:href="#DejaVuSans-50"/>
       <use x="63.623047" xlink:href="#DejaVuSans-50"/>
       <use x="127.246094" xlink:href="#DejaVuSans-58"/>
       <use x="160.9375" xlink:href="#DejaVuSans-53"/>
       <use x="224.560547" xlink:href="#DejaVuSans-50"/>
       <use x="288.183594" xlink:href="#DejaVuSans-58"/>
       <use x="321.875" xlink:href="#DejaVuSans-53"/>
       <use x="385.498047" xlink:href="#DejaVuSans-49"/>
      </g>
     </g>
    </g>
    <g id="xtick_20">
     <g id="line2d_20">
      <g>
       <use style="stroke:#000000;stroke-width:0.8;" x="591.562146" xlink:href="#m613af60716" y="448.56"/>
      </g>
     </g>
     <g id="text_20">
      <!-- 22:53:44 -->
      <g transform="translate(594.321521 500.4725)rotate(-90)scale(0.1 -0.1)">
       <use xlink:href="#DejaVuSans-50"/>
       <use x="63.623047" xlink:href="#DejaVuSans-50"/>
       <use x="127.246094" xlink:href="#DejaVuSans-58"/>
       <use x="160.9375" xlink:href="#DejaVuSans-53"/>
       <use x="224.560547" xlink:href="#DejaVuSans-51"/>
       <use x="288.183594" xlink:href="#DejaVuSans-58"/>
       <use x="321.875" xlink:href="#DejaVuSans-52"/>
       <use x="385.498047" xlink:href="#DejaVuSans-52"/>
      </g>
     </g>
    </g>
    <g id="xtick_21">
     <g id="line2d_21">
      <g>
       <use style="stroke:#000000;stroke-width:0.8;" x="615.731255" xlink:href="#m613af60716" y="448.56"/>
      </g>
     </g>
     <g id="text_21">
      <!-- 22:54:37 -->
      <g transform="translate(618.49063 500.4725)rotate(-90)scale(0.1 -0.1)">
       <use xlink:href="#DejaVuSans-50"/>
       <use x="63.623047" xlink:href="#DejaVuSans-50"/>
       <use x="127.246094" xlink:href="#DejaVuSans-58"/>
       <use x="160.9375" xlink:href="#DejaVuSans-53"/>
       <use x="224.560547" xlink:href="#DejaVuSans-52"/>
       <use x="288.183594" xlink:href="#DejaVuSans-58"/>
       <use x="321.875" xlink:href="#DejaVuSans-51"/>
       <use x="385.498047" xlink:href="#DejaVuSans-55"/>
      </g>
     </g>
    </g>
    <g id="text_22">
     <!-- timestamp -->
     <g transform="translate(354.264375 510.55125)scale(0.08 -0.08)">
      <defs>
       <path d="M 18.3125 70.21875 
L 18.3125 54.6875 
L 36.8125 54.6875 
L 36.8125 47.703125 
L 18.3125 47.703125 
L 18.3125 18.015625 
Q 18.3125 11.328125 20.140625 9.421875 
Q 21.96875 7.515625 27.59375 7.515625 
L 36.8125 7.515625 
L 36.8125 0 
L 27.59375 0 
Q 17.1875 0 13.234375 3.875 
Q 9.28125 7.765625 9.28125 18.015625 
L 9.28125 47.703125 
L 2.6875 47.703125 
L 2.6875 54.6875 
L 9.28125 54.6875 
L 9.28125 70.21875 
z
" id="DejaVuSans-116"/>
       <path d="M 9.421875 54.6875 
L 18.40625 54.6875 
L 18.40625 0 
L 9.421875 0 
z
M 9.421875 75.984375 
L 18.40625 75.984375 
L 18.40625 64.59375 
L 9.421875 64.59375 
z
" id="DejaVuSans-105"/>
       <path d="M 52 44.1875 
Q 55.375 50.25 60.0625 53.125 
Q 64.75 56 71.09375 56 
Q 79.640625 56 84.28125 50.015625 
Q 88.921875 44.046875 88.921875 33.015625 
L 88.921875 0 
L 79.890625 0 
L 79.890625 32.71875 
Q 79.890625 40.578125 77.09375 44.375 
Q 74.3125 48.1875 68.609375 48.1875 
Q 61.625 48.1875 57.5625 43.546875 
Q 53.515625 38.921875 53.515625 30.90625 
L 53.515625 0 
L 44.484375 0 
L 44.484375 32.71875 
Q 44.484375 40.625 41.703125 44.40625 
Q 38.921875 48.1875 33.109375 48.1875 
Q 26.21875 48.1875 22.15625 43.53125 
Q 18.109375 38.875 18.109375 30.90625 
L 18.109375 0 
L 9.078125 0 
L 9.078125 54.6875 
L 18.109375 54.6875 
L 18.109375 46.1875 
Q 21.1875 51.21875 25.484375 53.609375 
Q 29.78125 56 35.6875 56 
Q 41.65625 56 45.828125 52.96875 
Q 50 49.953125 52 44.1875 
z
" id="DejaVuSans-109"/>
       <path d="M 56.203125 29.59375 
L 56.203125 25.203125 
L 14.890625 25.203125 
Q 15.484375 15.921875 20.484375 11.0625 
Q 25.484375 6.203125 34.421875 6.203125 
Q 39.59375 6.203125 44.453125 7.46875 
Q 49.3125 8.734375 54.109375 11.28125 
L 54.109375 2.78125 
Q 49.265625 0.734375 44.1875 -0.34375 
Q 39.109375 -1.421875 33.890625 -1.421875 
Q 20.796875 -1.421875 13.15625 6.1875 
Q 5.515625 13.8125 5.515625 26.8125 
Q 5.515625 40.234375 12.765625 48.109375 
Q 20.015625 56 32.328125 56 
Q 43.359375 56 49.78125 48.890625 
Q 56.203125 41.796875 56.203125 29.59375 
z
M 47.21875 32.234375 
Q 47.125 39.59375 43.09375 43.984375 
Q 39.0625 48.390625 32.421875 48.390625 
Q 24.90625 48.390625 20.390625 44.140625 
Q 15.875 39.890625 15.1875 32.171875 
z
" id="DejaVuSans-101"/>
       <path d="M 44.28125 53.078125 
L 44.28125 44.578125 
Q 40.484375 46.53125 36.375 47.5 
Q 32.28125 48.484375 27.875 48.484375 
Q 21.1875 48.484375 17.84375 46.4375 
Q 14.5 44.390625 14.5 40.28125 
Q 14.5 37.15625 16.890625 35.375 
Q 19.28125 33.59375 26.515625 31.984375 
L 29.59375 31.296875 
Q 39.15625 29.25 43.1875 25.515625 
Q 47.21875 21.78125 47.21875 15.09375 
Q 47.21875 7.46875 41.1875 3.015625 
Q 35.15625 -1.421875 24.609375 -1.421875 
Q 20.21875 -1.421875 15.453125 -0.5625 
Q 10.6875 0.296875 5.421875 2 
L 5.421875 11.28125 
Q 10.40625 8.6875 15.234375 7.390625 
Q 20.0625 6.109375 24.8125 6.109375 
Q 31.15625 6.109375 34.5625 8.28125 
Q 37.984375 10.453125 37.984375 14.40625 
Q 37.984375 18.0625 35.515625 20.015625 
Q 33.0625 21.96875 24.703125 23.78125 
L 21.578125 24.515625 
Q 13.234375 26.265625 9.515625 29.90625 
Q 5.8125 33.546875 5.8125 39.890625 
Q 5.8125 47.609375 11.28125 51.796875 
Q 16.75 56 26.8125 56 
Q 31.78125 56 36.171875 55.265625 
Q 40.578125 54.546875 44.28125 53.078125 
z
" id="DejaVuSans-115"/>
       <path d="M 34.28125 27.484375 
Q 23.390625 27.484375 19.1875 25 
Q 14.984375 22.515625 14.984375 16.5 
Q 14.984375 11.71875 18.140625 8.90625 
Q 21.296875 6.109375 26.703125 6.109375 
Q 34.1875 6.109375 38.703125 11.40625 
Q 43.21875 16.703125 43.21875 25.484375 
L 43.21875 27.484375 
z
M 52.203125 31.203125 
L 52.203125 0 
L 43.21875 0 
L 43.21875 8.296875 
Q 40.140625 3.328125 35.546875 0.953125 
Q 30.953125 -1.421875 24.3125 -1.421875 
Q 15.921875 -1.421875 10.953125 3.296875 
Q 6 8.015625 6 15.921875 
Q 6 25.140625 12.171875 29.828125 
Q 18.359375 34.515625 30.609375 34.515625 
L 43.21875 34.515625 
L 43.21875 35.40625 
Q 43.21875 41.609375 39.140625 45 
Q 35.0625 48.390625 27.6875 48.390625 
Q 23 48.390625 18.546875 47.265625 
Q 14.109375 46.140625 10.015625 43.890625 
L 10.015625 52.203125 
Q 14.9375 54.109375 19.578125 55.046875 
Q 24.21875 56 28.609375 56 
Q 40.484375 56 46.34375 49.84375 
Q 52.203125 43.703125 52.203125 31.203125 
z
" id="DejaVuSans-97"/>
       <path d="M 18.109375 8.203125 
L 18.109375 -20.796875 
L 9.078125 -20.796875 
L 9.078125 54.6875 
L 18.109375 54.6875 
L 18.109375 46.390625 
Q 20.953125 51.265625 25.265625 53.625 
Q 29.59375 56 35.59375 56 
Q 45.5625 56 51.78125 48.09375 
Q 58.015625 40.1875 58.015625 27.296875 
Q 58.015625 14.40625 51.78125 6.484375 
Q 45.5625 -1.421875 35.59375 -1.421875 
Q 29.59375 -1.421875 25.265625 0.953125 
Q 20.953125 3.328125 18.109375 8.203125 
z
M 48.6875 27.296875 
Q 48.6875 37.203125 44.609375 42.84375 
Q 40.53125 48.484375 33.40625 48.484375 
Q 26.265625 48.484375 22.1875 42.84375 
Q 18.109375 37.203125 18.109375 27.296875 
Q 18.109375 17.390625 22.1875 11.75 
Q 26.265625 6.109375 33.40625 6.109375 
Q 40.53125 6.109375 44.609375 11.75 
Q 48.6875 17.390625 48.6875 27.296875 
z
" id="DejaVuSans-112"/>
      </defs>
      <use xlink:href="#DejaVuSans-116"/>
      <use x="39.208984" xlink:href="#DejaVuSans-105"/>
      <use x="66.992188" xlink:href="#DejaVuSans-109"/>
      <use x="164.404297" xlink:href="#DejaVuSans-101"/>
      <use x="225.927734" xlink:href="#DejaVuSans-115"/>
      <use x="278.027344" xlink:href="#DejaVuSans-116"/>
      <use x="317.236328" xlink:href="#DejaVuSans-97"/>
      <use x="378.515625" xlink:href="#DejaVuSans-109"/>
      <use x="475.927734" xlink:href="#DejaVuSans-112"/>
     </g>
    </g>
   </g>
   <g id="matplotlib.axis_2">
    <g id="ytick_1">
     <g id="line2d_22">
      <defs>
       <path d="M 0 0 
L -3.5 0 
" id="mcac69e31cd" style="stroke:#000000;stroke-width:0.8;"/>
      </defs>
      <g>
       <use style="stroke:#000000;stroke-width:0.8;" x="108" xlink:href="#mcac69e31cd" y="444.112251"/>
      </g>
     </g>
     <g id="text_23">
      <!-- 13000 -->
      <g transform="translate(69.1875 447.91147)scale(0.1 -0.1)">
       <use xlink:href="#DejaVuSans-49"/>
       <use x="63.623047" xlink:href="#DejaVuSans-51"/>
       <use x="127.246094" xlink:href="#DejaVuSans-48"/>
       <use x="190.869141" xlink:href="#DejaVuSans-48"/>
       <use x="254.492188" xlink:href="#DejaVuSans-48"/>
      </g>
     </g>
    </g>
    <g id="ytick_2">
     <g id="line2d_23">
      <g>
       <use style="stroke:#000000;stroke-width:0.8;" x="108" xlink:href="#mcac69e31cd" y="363.491104"/>
      </g>
     </g>
     <g id="text_24">
      <!-- 13200 -->
      <g transform="translate(69.1875 367.290322)scale(0.1 -0.1)">
       <use xlink:href="#DejaVuSans-49"/>
       <use x="63.623047" xlink:href="#DejaVuSans-51"/>
       <use x="127.246094" xlink:href="#DejaVuSans-50"/>
       <use x="190.869141" xlink:href="#DejaVuSans-48"/>
       <use x="254.492188" xlink:href="#DejaVuSans-48"/>
      </g>
     </g>
    </g>
    <g id="ytick_3">
     <g id="line2d_24">
      <g>
       <use style="stroke:#000000;stroke-width:0.8;" x="108" xlink:href="#mcac69e31cd" y="282.869956"/>
      </g>
     </g>
     <g id="text_25">
      <!-- 13400 -->
      <g transform="translate(69.1875 286.669175)scale(0.1 -0.1)">
       <use xlink:href="#DejaVuSans-49"/>
       <use x="63.623047" xlink:href="#DejaVuSans-51"/>
       <use x="127.246094" xlink:href="#DejaVuSans-52"/>
       <use x="190.869141" xlink:href="#DejaVuSans-48"/>
       <use x="254.492188" xlink:href="#DejaVuSans-48"/>
      </g>
     </g>
    </g>
    <g id="ytick_4">
     <g id="line2d_25">
      <g>
       <use style="stroke:#000000;stroke-width:0.8;" x="108" xlink:href="#mcac69e31cd" y="202.248808"/>
      </g>
     </g>
     <g id="text_26">
      <!-- 13600 -->
      <g transform="translate(69.1875 206.048027)scale(0.1 -0.1)">
       <use xlink:href="#DejaVuSans-49"/>
       <use x="63.623047" xlink:href="#DejaVuSans-51"/>
       <use x="127.246094" xlink:href="#DejaVuSans-54"/>
       <use x="190.869141" xlink:href="#DejaVuSans-48"/>
       <use x="254.492188" xlink:href="#DejaVuSans-48"/>
      </g>
     </g>
    </g>
    <g id="ytick_5">
     <g id="line2d_26">
      <g>
       <use style="stroke:#000000;stroke-width:0.8;" x="108" xlink:href="#mcac69e31cd" y="121.62766"/>
      </g>
     </g>
     <g id="text_27">
      <!-- 13800 -->
      <g transform="translate(69.1875 125.426879)scale(0.1 -0.1)">
       <use xlink:href="#DejaVuSans-49"/>
       <use x="63.623047" xlink:href="#DejaVuSans-51"/>
       <use x="127.246094" xlink:href="#DejaVuSans-56"/>
       <use x="190.869141" xlink:href="#DejaVuSans-48"/>
       <use x="254.492188" xlink:href="#DejaVuSans-48"/>
      </g>
     </g>
    </g>
    <g id="text_28">
     <!-- MB -->
     <g transform="translate(63.52375 260.715625)rotate(-90)scale(0.08 -0.08)">
      <defs>
       <path d="M 9.8125 72.90625 
L 24.515625 72.90625 
L 43.109375 23.296875 
L 61.8125 72.90625 
L 76.515625 72.90625 
L 76.515625 0 
L 66.890625 0 
L 66.890625 64.015625 
L 48.09375 14.015625 
L 38.1875 14.015625 
L 19.390625 64.015625 
L 19.390625 0 
L 9.8125 0 
z
" id="DejaVuSans-77"/>
       <path d="M 19.671875 34.8125 
L 19.671875 8.109375 
L 35.5 8.109375 
Q 43.453125 8.109375 47.28125 11.40625 
Q 51.125 14.703125 51.125 21.484375 
Q 51.125 28.328125 47.28125 31.5625 
Q 43.453125 34.8125 35.5 34.8125 
z
M 19.671875 64.796875 
L 19.671875 42.828125 
L 34.28125 42.828125 
Q 41.5 42.828125 45.03125 45.53125 
Q 48.578125 48.25 48.578125 53.8125 
Q 48.578125 59.328125 45.03125 62.0625 
Q 41.5 64.796875 34.28125 64.796875 
z
M 9.8125 72.90625 
L 35.015625 72.90625 
Q 46.296875 72.90625 52.390625 68.21875 
Q 58.5 63.53125 58.5 54.890625 
Q 58.5 48.1875 55.375 44.234375 
Q 52.25 40.28125 46.1875 39.3125 
Q 53.46875 37.75 57.5 32.78125 
Q 61.53125 27.828125 61.53125 20.40625 
Q 61.53125 10.640625 54.890625 5.3125 
Q 48.25 0 35.984375 0 
L 9.8125 0 
z
" id="DejaVuSans-66"/>
      </defs>
      <use xlink:href="#DejaVuSans-77"/>
      <use x="86.279297" xlink:href="#DejaVuSans-66"/>
     </g>
    </g>
   </g>
   <g id="line2d_27">
    <path clip-path="url(#pfb9a95ce88)" d="M 132.349091 79.838817 
L 132.863327 80.038603 
L 133.377564 79.817352 
L 133.8918 78.615336 
L 134.406036 78.506362 
L 134.920273 79.908164 
L 135.434509 80.018789 
L 135.948745 78.12 
L 136.462982 78.621941 
L 136.977218 81.24227 
L 137.491454 81.333082 
L 138.005691 80.90379 
L 138.519927 112.694476 
L 139.034163 124.803798 
L 139.5484 197.993043 
L 140.062636 225.408258 
L 140.576872 246.176059 
L 141.091109 276.820867 
L 141.605345 316.621141 
L 142.119581 335.734519 
L 142.633818 365.700716 
L 143.148054 379.038473 
L 143.66229 377.691158 
L 144.176527 384.551566 
L 145.719236 380.007681 
L 146.747709 384.137135 
L 147.261945 383.684727 
L 148.290418 382.096349 
L 148.804654 384.251062 
L 149.31889 385.198805 
L 150.347363 382.570221 
L 151.375836 382.732031 
L 151.890072 381.931237 
L 152.404308 381.366553 
L 152.918545 380.304883 
L 153.432781 386.691419 
L 153.947017 386.973761 
L 154.461254 386.686466 
L 154.97549 385.393638 
L 155.489726 385.218619 
L 156.003963 388.93199 
L 156.518199 387.013388 
L 157.032435 386.906065 
L 157.546672 383.839933 
L 158.060908 385.855952 
L 158.575144 388.335936 
L 159.089381 387.962782 
L 159.603617 386.184525 
L 160.117854 385.902183 
L 160.63209 388.349145 
L 161.146326 388.337587 
L 161.660563 387.832344 
L 162.174799 387.533491 
L 162.689035 386.0739 
L 163.203272 387.034852 
L 163.717508 387.284171 
L 164.231744 387.041457 
L 164.745981 385.63305 
L 165.260217 385.268153 
L 165.774453 387.350216 
L 166.28869 387.368379 
L 166.802926 394.331156 
L 167.317162 394.359225 
L 167.831399 399.563559 
L 168.345635 400.012664 
L 168.859871 399.976339 
L 169.374108 394.877677 
L 170.40258 394.51278 
L 171.945289 391.720734 
L 172.459526 394.393899 
L 172.973762 394.965187 
L 173.487998 394.679543 
L 174.002235 393.538618 
L 174.516471 393.307461 
L 175.030707 394.250251 
L 175.544944 393.502294 
L 176.05918 392.308533 
L 176.573417 390.249585 
L 177.601889 394.256856 
L 178.116126 393.581547 
L 178.630362 392.272208 
L 179.144598 392.338253 
L 179.658835 393.939841 
L 180.173071 393.991025 
L 180.687307 393.707033 
L 181.201544 391.999773 
L 181.71578 392.214419 
L 182.230016 392.736173 
L 182.744253 392.656919 
L 183.258489 391.672851 
L 183.772725 391.469763 
L 184.286962 395.158368 
L 184.801198 394.890886 
L 185.315434 394.253554 
L 185.829671 392.440623 
L 186.343907 392.296975 
L 186.858143 394.311343 
L 187.37238 394.1743 
L 187.886616 394.400503 
L 188.400852 391.653038 
L 188.915089 392.708104 
L 189.429325 394.237042 
L 189.943561 394.623405 
L 190.972034 392.374578 
L 191.486271 395.064254 
L 192.514743 395.14681 
L 193.02898 394.004234 
L 193.543216 393.654197 
L 194.057452 394.228787 
L 194.571689 393.340484 
L 195.085925 393.038328 
L 195.600161 391.666247 
L 196.114398 394.712565 
L 196.628634 394.488013 
L 197.14287 394.446735 
L 197.657107 393.049886 
L 198.171343 392.846798 
L 199.199816 393.277741 
L 199.714052 391.757058 
L 200.228288 391.451601 
L 200.742525 392.409251 
L 201.256761 394.040559 
L 201.770997 393.555129 
L 202.285234 388.464723 
L 202.79947 387.148779 
L 203.313706 391.415276 
L 203.827943 390.939754 
L 204.342179 390.877011 
L 204.856415 387.820786 
L 205.370652 387.432772 
L 205.884888 390.470835 
L 206.399125 389.037662 
L 206.913361 389.03436 
L 207.427597 388.228613 
L 207.941834 389.850014 
L 208.45607 394.671287 
L 208.970306 394.790168 
L 209.484543 394.545802 
L 209.998779 393.457713 
L 210.513015 393.550176 
L 211.027252 392.90789 
L 211.541488 392.703151 
L 212.055724 388.988128 
L 212.569961 390.125751 
L 213.084197 390.231423 
L 213.598433 390.069613 
L 214.11267 389.693157 
L 214.626906 388.727251 
L 215.141142 393.487433 
L 215.655379 393.845727 
L 216.169615 391.884195 
L 216.683851 392.192954 
L 217.198088 390.578158 
L 217.712324 393.532014 
L 218.22656 391.142841 
L 218.740797 389.767458 
L 219.255033 389.486767 
L 220.283506 393.811053 
L 221.311978 393.619523 
L 221.826215 391.638178 
L 222.340451 391.590295 
L 222.854688 392.088934 
L 223.368924 391.724036 
L 223.88316 389.182961 
L 224.397397 389.19617 
L 224.911633 392.95247 
L 225.425869 392.855054 
L 225.940106 391.771919 
L 226.454342 390.079519 
L 226.968578 392.572712 
L 227.482815 391.350883 
L 227.997051 391.806592 
L 228.511287 391.241909 
L 229.025524 390.472486 
L 229.53976 394.537546 
L 230.053996 394.053768 
L 230.568233 393.946445 
L 231.082469 392.364671 
L 231.596705 390.150518 
L 232.110942 392.939261 
L 232.625178 392.681686 
L 233.139414 391.572133 
L 233.653651 391.009101 
L 234.167887 392.08398 
L 234.682123 391.941984 
L 235.19636 390.170331 
L 235.710596 389.391002 
L 236.739069 396.817745 
L 237.253305 396.386802 
L 237.767542 390.862151 
L 238.281778 390.888569 
L 238.796014 391.821452 
L 239.310251 394.312994 
L 239.824487 393.42304 
L 240.338723 399.424865 
L 240.85296 397.730815 
L 241.367196 396.527147 
L 241.881432 394.976745 
L 242.395669 395.181484 
L 242.909905 392.973935 
L 243.424141 389.772411 
L 243.938378 392.67178 
L 244.452614 397.646607 
L 244.96685 396.809489 
L 245.481087 395.254133 
L 245.995323 397.466635 
L 246.509559 393.639337 
L 247.023796 392.650315 
L 247.538032 392.258999 
L 248.052268 391.352534 
L 248.566505 393.494038 
L 249.080741 393.048235 
L 249.594977 398.368147 
L 250.109214 398.449052 
L 250.62345 399.966433 
L 251.137686 402.372116 
L 251.651923 401.635716 
L 252.680396 398.878344 
L 253.708868 399.832692 
L 254.223105 399.769949 
L 254.737341 399.489259 
L 255.251577 397.76879 
L 255.765814 400.711088 
L 256.28005 400.737506 
L 257.308523 397.608632 
L 257.822759 399.834343 
L 258.336995 400.633486 
L 258.851232 400.1398 
L 259.365468 398.671954 
L 259.879704 397.859602 
L 260.393941 401.21468 
L 260.908177 400.826667 
L 261.422413 400.062198 
L 261.93665 399.053363 
L 262.965122 403.012751 
L 263.479359 401.723225 
L 263.993595 400.032477 
L 264.507831 400.460118 
L 265.022068 402.208655 
L 266.564777 401.371537 
L 267.079013 399.852505 
L 267.593249 399.205266 
L 268.107486 399.190406 
L 268.621722 398.630676 
L 269.135959 396.546961 
L 269.650195 397.138062 
L 270.164431 400.187683 
L 270.678668 399.49091 
L 271.70714 397.235478 
L 272.221377 400.024222 
L 272.735613 399.974688 
L 273.249849 399.414958 
L 273.764086 398.145246 
L 274.278322 397.5624 
L 274.792558 400.332982 
L 275.306795 400.69953 
L 276.335267 398.650489 
L 277.36374 399.396796 
L 277.877976 399.464492 
L 278.392213 398.984016 
L 278.906449 396.910207 
L 279.420685 401.381443 
L 279.934922 400.957105 
L 280.449158 398.627373 
L 280.963394 398.308707 
L 281.477631 399.414958 
L 281.991867 402.317629 
L 282.506103 400.866294 
L 283.02034 400.932338 
L 283.534576 399.433121 
L 284.048813 401.22954 
L 285.591522 401.079288 
L 286.105758 399.319193 
L 286.619994 399.380285 
L 287.648467 399.198661 
L 288.162703 398.2245 
L 289.191176 400.228961 
L 289.705412 400.281797 
L 290.219649 398.840368 
L 290.733885 398.028016 
L 291.248121 401.696808 
L 291.762358 400.828318 
L 292.276594 399.6973 
L 292.79083 398.10727 
L 293.305067 398.805694 
L 293.819303 400.981872 
L 294.333539 400.869596 
L 294.847776 401.340165 
L 295.362012 399.956526 
L 296.904721 400.129894 
L 297.418957 398.544817 
L 297.933194 398.432541 
L 298.44743 393.667406 
L 298.961667 393.971212 
L 299.475903 394.496268 
L 299.990139 393.030073 
L 300.504376 397.772093 
L 301.018612 395.934395 
L 301.532848 395.937697 
L 302.047085 393.005306 
L 303.075557 404.738173 
L 303.589794 405.126186 
L 304.10403 403.868032 
L 304.618266 408.667841 
L 305.132503 408.71077 
L 305.646739 411.661323 
L 306.160975 412.741157 
L 307.189448 411.672881 
L 307.703684 413.637715 
L 308.217921 412.543022 
L 308.732157 412.323423 
L 309.246393 411.116453 
L 309.76063 411.070222 
L 310.274866 413.297584 
L 310.789102 413.104403 
L 311.303339 412.724645 
L 311.817575 411.549047 
L 312.846048 415.300394 
L 313.360284 415.30865 
L 313.87452 413.789619 
L 314.388757 412.827015 
L 314.902993 414.965217 
L 315.41723 414.912381 
L 315.931466 413.294282 
L 316.445702 413.259609 
L 316.959939 412.382863 
L 317.474175 416.190349 
L 317.988411 416.292718 
L 319.53112 413.728527 
L 320.045357 416.57506 
L 320.559593 415.688408 
L 321.073829 415.321859 
L 321.588066 414.324582 
L 322.102302 415.526598 
L 322.616538 415.980656 
L 323.130775 415.427531 
L 323.645011 415.273976 
L 324.159247 409.916088 
L 324.673484 413.682296 
L 325.18772 412.793993 
L 325.701956 413.115961 
L 326.216193 411.220474 
L 326.730429 411.634905 
L 327.244665 413.077985 
L 327.758902 412.440653 
L 328.787374 410.048178 
L 329.301611 414.529321 
L 329.815847 414.063705 
L 330.330084 414.015822 
L 330.84432 412.651996 
L 331.358556 413.475906 
L 331.872793 415.174909 
L 332.387029 414.529321 
L 332.901265 413.218331 
L 333.415502 411.179196 
L 333.929738 414.98503 
L 334.443974 414.975123 
L 334.958211 415.331766 
L 335.472447 415.049424 
L 335.986683 414.004264 
L 336.50092 414.651504 
L 337.015156 414.195794 
L 337.529392 414.083518 
L 338.043629 412.321772 
L 338.557865 414.147912 
L 339.072101 415.503482 
L 339.586338 414.869452 
L 340.100574 414.945403 
L 340.61481 413.713667 
L 341.129047 415.364788 
L 341.643283 413.300887 
L 342.157519 413.502323 
L 342.671756 413.860617 
L 343.185992 412.325074 
L 343.700228 415.784173 
L 344.214465 415.457251 
L 344.728701 415.5299 
L 345.242938 413.637715 
L 345.757174 414.179283 
L 346.27141 415.227745 
L 346.785647 414.549134 
L 347.299883 414.270095 
L 347.814119 419.320874 
L 348.328356 421.414496 
L 348.842592 421.820672 
L 349.871065 420.674794 
L 350.385301 417.88605 
L 350.899537 420.696258 
L 351.413774 421.006669 
L 351.92801 419.987927 
L 352.442246 420.001136 
L 352.956483 422.152547 
L 353.470719 421.893321 
L 353.984955 421.411194 
L 354.499192 421.135456 
L 355.013428 420.078739 
L 355.527664 422.682557 
L 356.041901 422.400215 
L 357.070373 420.370987 
L 357.58461 420.920811 
L 358.098846 420.962089 
L 358.613082 420.859719 
L 359.127319 418.315341 
L 359.641555 417.909166 
L 360.155791 420.747443 
L 360.670028 421.102434 
L 361.184264 420.600493 
L 361.698501 420.724327 
L 362.212737 419.675865 
L 362.726973 422.0832 
L 363.24121 421.832229 
L 363.755446 421.893321 
L 364.269682 419.405081 
L 365.298155 422.517445 
L 365.812391 422.581838 
L 366.326628 422.443144 
L 366.840864 421.416147 
L 367.3551 422.372146 
L 367.869337 422.850971 
L 368.383573 422.279683 
L 368.897809 419.216854 
L 369.412046 420.455194 
L 369.926282 420.813488 
L 370.440518 421.318731 
L 370.954755 420.62526 
L 371.468991 419.309316 
L 371.983227 422.400215 
L 372.497464 421.723255 
L 373.0117 427.160397 
L 373.525936 427.485668 
L 374.040173 426.762477 
L 374.554409 428.170883 
L 375.068645 423.915944 
L 375.582882 422.020457 
L 376.097118 421.723255 
L 376.611355 422.170709 
L 377.125591 425.008986 
L 377.639827 430.92 
L 378.154064 430.470895 
L 378.6683 423.810273 
L 379.696773 423.653416 
L 380.211009 422.857576 
L 380.725245 420.375941 
L 381.239482 419.424895 
L 381.753718 423.544442 
L 382.267954 423.750832 
L 382.782191 422.438191 
L 383.296427 420.468403 
L 383.810663 421.802509 
L 384.3249 421.353404 
L 384.839136 421.061156 
L 385.353372 421.00832 
L 385.867609 419.456266 
L 386.381845 423.08543 
L 386.896081 423.443724 
L 387.410318 422.887296 
L 387.924554 421.239477 
L 388.43879 420.821743 
L 388.953027 422.619814 
L 389.467263 421.554841 
L 389.981499 420.228991 
L 390.495736 419.563589 
L 391.524209 423.901084 
L 392.038445 423.207613 
L 392.552681 423.309983 
L 393.066918 422.646232 
L 393.581154 424.478977 
L 394.09539 423.593976 
L 394.609627 423.230729 
L 395.123863 421.927994 
L 396.152336 425.114658 
L 396.666572 425.233539 
L 397.180808 424.540068 
L 397.695045 423.395841 
L 398.209281 424.157008 
L 398.723517 423.899433 
L 399.237754 423.376028 
L 399.75199 421.427705 
L 400.266226 421.845438 
L 400.780463 425.438278 
L 401.294699 424.758016 
L 401.808935 421.754627 
L 402.323172 421.515214 
L 402.837408 422.892249 
L 403.351644 423.301727 
L 403.865881 423.470142 
L 404.380117 421.916437 
L 404.894353 422.565327 
L 405.40859 424.441001 
L 405.922826 424.731598 
L 406.951299 422.708975 
L 407.465535 422.461307 
L 407.979772 423.245589 
L 408.494008 423.05571 
L 409.522481 422.231801 
L 410.036717 425.725573 
L 410.550953 424.379909 
L 411.06519 423.617091 
L 411.579426 421.241128 
L 412.093662 420.638469 
L 412.607899 424.579695 
L 413.122135 423.361168 
L 413.636371 422.898854 
L 414.150608 421.926343 
L 414.664844 421.967621 
L 415.17908 425.619901 
L 415.693317 424.024918 
L 416.207553 424.360096 
L 416.721789 422.758508 
L 417.236026 423.29182 
L 417.750262 423.405748 
L 418.264498 423.138266 
L 418.778735 421.746371 
L 419.292971 422.776671 
L 419.807207 424.346887 
L 420.321444 424.488883 
L 420.83568 424.067847 
L 421.349916 422.58349 
L 421.864153 422.926923 
L 422.378389 423.74753 
L 422.892626 424.039778 
L 423.406862 423.835039 
L 423.921098 421.885065 
L 424.435335 424.942942 
L 424.949571 424.578044 
L 425.463807 423.935758 
L 425.978044 422.136036 
L 426.49228 423.750832 
L 427.006516 423.757437 
L 427.520753 424.155357 
L 428.034989 423.210916 
L 428.549225 421.790951 
L 429.063462 425.007335 
L 429.577698 425.322699 
L 430.091934 424.824061 
L 430.606171 423.156429 
L 431.120407 423.693043 
L 431.634643 422.517445 
L 432.14888 422.915365 
L 432.663116 422.193825 
L 433.177352 420.945577 
L 433.691589 424.345236 
L 434.205825 425.312793 
L 434.720061 425.297933 
L 435.748534 422.30445 
L 436.26277 423.096988 
L 436.777007 423.2621 
L 437.291243 422.614861 
L 437.80548 419.154111 
L 438.319716 420.937322 
L 438.833952 423.387586 
L 439.348189 422.499282 
L 439.862425 421.974226 
L 440.376661 420.773861 
L 440.890898 422.180616 
L 441.405134 422.197127 
L 441.91937 427.087748 
L 442.433607 425.70576 
L 442.947843 426.111935 
L 443.462079 421.427705 
L 443.976316 421.92139 
L 444.490552 421.462378 
L 445.004788 420.15469 
L 446.033261 422.586792 
L 446.547497 422.410122 
L 447.061734 421.094178 
L 447.57597 421.123898 
L 448.090206 421.644002 
L 448.604443 421.577957 
L 449.118679 419.97802 
L 449.632915 419.515707 
L 450.147152 418.792515 
L 450.661388 423.257147 
L 451.175624 422.738695 
L 451.689861 421.485494 
L 452.204097 419.745212 
L 452.718333 421.639048 
L 453.23257 420.957135 
L 453.746806 420.866324 
L 454.261043 420.41887 
L 454.775279 419.010463 
L 455.289515 421.341846 
L 455.803752 420.366034 
L 456.317988 418.693448 
L 456.832224 417.877794 
L 457.346461 417.816703 
L 457.860697 418.589428 
L 458.374933 418.615846 
L 458.88917 418.495314 
L 459.403406 417.54757 
L 459.917642 420.334663 
L 460.431879 419.030277 
L 460.946115 418.855258 
L 461.460351 417.359342 
L 461.974588 418.201414 
L 462.488824 419.274643 
L 463.00306 418.987348 
L 463.517297 418.22453 
L 464.031533 416.865657 
L 464.545769 420.777163 
L 465.574242 421.115643 
L 466.088478 420.745792 
L 466.602715 419.140902 
L 467.116951 419.527264 
L 467.631187 419.172273 
L 468.145424 417.973559 
L 468.65966 417.816703 
L 469.173897 418.809027 
L 469.688133 419.452964 
L 470.202369 419.03523 
L 471.230842 415.734639 
L 471.745078 418.17995 
L 472.259315 418.330202 
L 472.773551 416.672476 
L 473.287787 416.713754 
L 473.802024 418.955976 
L 474.31626 420.303291 
L 474.830496 417.598755 
L 475.344733 416.499108 
L 475.858969 416.147419 
L 476.373205 415.562923 
L 476.887442 415.964145 
L 477.401678 415.790777 
L 477.915914 415.863427 
L 478.430151 415.411019 
L 478.944387 430.059766 
L 479.97286 429.71303 
L 480.487096 428.000818 
L 481.001332 424.88185 
L 481.515569 425.624855 
L 482.029805 425.155936 
L 483.058278 421.289011 
L 483.572514 426.754221 
L 484.086751 426.883009 
L 485.62946 423.204311 
L 486.143696 424.607764 
L 486.657932 424.574742 
L 487.172169 424.305609 
L 487.686405 422.190523 
L 488.200641 425.296282 
L 488.714878 427.566573 
L 489.229114 427.597944 
L 489.74335 425.193912 
L 490.771823 423.110197 
L 491.286059 424.119032 
L 491.800296 424.066196 
L 492.314532 422.705672 
L 492.828768 423.10029 
L 493.343005 423.339703 
L 493.857241 422.968201 
L 494.371477 420.498124 
L 494.885714 419.139251 
L 495.39995 421.587864 
L 495.914186 421.543283 
L 496.428423 421.059505 
L 496.942659 420.927415 
L 497.456895 419.646145 
L 497.971132 422.216941 
L 498.485368 421.998993 
L 498.999604 421.368264 
L 499.513841 419.921882 
L 500.542314 423.390888 
L 501.05655 423.331447 
L 501.570786 427.034912 
L 502.085023 427.132328 
L 502.599259 427.862124 
L 503.113495 427.634269 
L 503.627732 422.877389 
L 504.141968 422.33417 
L 504.656204 421.143712 
L 505.170441 423.24724 
L 505.684677 422.740346 
L 506.198913 419.41829 
L 506.71315 418.909745 
L 507.227386 419.35885 
L 507.741622 420.833301 
L 508.255859 420.298338 
L 508.770095 420.291733 
L 509.284331 418.886629 
L 509.798568 420.001136 
L 510.312804 425.266561 
L 510.82704 425.464696 
L 511.341277 423.886224 
L 511.855513 420.947229 
L 512.369749 421.852043 
L 512.883986 422.069991 
L 513.398222 421.904879 
L 513.912458 420.044065 
L 514.426695 425.497718 
L 514.940931 425.030451 
L 515.455168 420.415568 
L 515.969404 416.860704 
L 516.48364 417.025816 
L 516.997877 420.441985 
L 517.512113 419.350594 
L 518.026349 416.901982 
L 518.540586 416.499108 
L 519.054822 417.40062 
L 519.569058 420.012694 
L 520.083295 419.198691 
L 520.597531 417.313111 
L 521.111767 417.6648 
L 521.626004 420.30164 
L 522.14024 420.887788 
L 522.654476 420.869626 
L 523.168713 419.532218 
L 523.682949 419.246574 
L 524.197185 419.499195 
L 524.711422 419.139251 
L 525.225658 418.957628 
L 525.739894 417.684613 
L 526.254131 421.454123 
L 526.768367 418.675286 
L 527.282603 417.859632 
L 527.79684 415.265721 
L 528.311076 413.921708 
L 528.825312 416.852448 
L 529.853785 413.974544 
L 530.368022 413.682296 
L 530.882258 415.138584 
L 531.396494 415.749499 
L 531.910731 415.409368 
L 532.424967 413.830897 
L 532.939203 413.45279 
L 533.45344 416.542037 
L 534.481912 416.274556 
L 534.996149 414.478136 
L 535.510385 414.499601 
L 536.024621 416.839239 
L 536.538858 415.571178 
L 537.053094 414.80836 
L 537.56733 412.874897 
L 538.081567 415.884891 
L 538.595803 412.52486 
L 539.110039 411.692695 
L 539.624276 411.387237 
L 540.138512 409.480192 
L 540.652748 412.86334 
L 541.166985 412.911222 
L 541.681221 412.516604 
L 542.195457 411.22873 
L 543.22393 413.82099 
L 543.738166 413.079636 
L 544.252403 412.633834 
L 544.766639 411.014084 
L 545.280875 414.844685 
L 545.795112 412.80555 
L 546.309348 411.415306 
L 546.823585 411.027293 
L 547.337821 409.904531 
L 547.852057 411.97999 
L 548.366294 411.055362 
L 548.88053 411.146174 
L 549.394766 409.897926 
L 550.423239 413.766503 
L 550.937475 413.82099 
L 551.451712 413.619553 
L 551.965948 411.61179 
L 552.994421 412.03943 
L 553.508657 411.563907 
L 554.022893 409.618887 
L 555.051366 413.201819 
L 555.565602 413.170448 
L 556.079839 412.209496 
L 556.594075 410.632675 
L 557.108311 412.719692 
L 557.622548 412.135195 
L 558.136784 411.719113 
L 558.65102 409.438914 
L 559.165257 409.44717 
L 559.679493 412.404328 
L 560.193729 411.388888 
L 560.707966 411.076827 
L 561.222202 408.719026 
L 561.736439 406.960582 
L 562.250675 409.128504 
L 562.764911 407.65075 
L 563.279148 407.4295 
L 563.793384 405.276438 
L 564.30762 408.253409 
L 564.821857 408.213783 
L 565.336093 406.039256 
L 565.850329 406.095394 
L 566.878802 407.672215 
L 567.393038 405.974862 
L 567.907275 404.72001 
L 568.421511 404.444273 
L 568.935747 409.457077 
L 569.449984 409.437263 
L 569.96422 407.467476 
L 570.478456 406.057418 
L 570.992693 405.766821 
L 571.506929 406.833445 
L 572.021165 406.757494 
L 572.535402 406.125114 
L 573.049638 403.587341 
L 574.078111 406.532941 
L 574.592347 406.51643 
L 575.106583 404.008377 
L 575.62082 403.856474 
L 576.135056 405.5142 
L 576.649293 406.017791 
L 577.163529 405.715636 
L 577.677765 404.840542 
L 578.192002 404.214767 
L 578.706238 413.076334 
L 579.734711 412.204542 
L 580.248947 406.42727 
L 580.763183 409.722907 
L 581.27742 407.962812 
L 581.791656 407.776235 
L 582.305892 405.893957 
L 582.820129 405.116279 
L 583.334365 403.711175 
L 583.848601 404.062864 
L 584.362838 403.628619 
L 584.877074 401.987405 
L 585.39131 403.044122 
L 585.905547 405.631429 
L 586.419783 405.718939 
L 586.934019 404.587921 
L 587.448256 402.669318 
L 587.962492 404.835589 
L 588.476728 404.825682 
L 588.990965 404.467389 
L 589.505201 403.473414 
L 590.019437 403.524599 
L 590.533674 405.489433 
L 591.04791 403.846567 
L 591.562146 403.80694 
L 592.076383 402.433208 
L 592.590619 404.756335 
L 593.619092 404.313835 
L 594.133328 402.725456 
L 594.647565 402.472834 
L 595.161801 405.933584 
L 595.676037 406.153183 
L 596.190274 405.515851 
L 596.70451 403.744198 
L 597.218746 404.678732 
L 598.247219 402.751874 
L 598.761455 402.875708 
L 599.275692 400.952152 
L 599.789928 403.937379 
L 600.304164 402.67262 
L 600.818401 400.329679 
L 601.332637 399.913597 
L 601.846873 398.691767 
L 602.36111 400.138149 
L 602.875346 400.526163 
L 603.389582 400.052291 
L 603.903819 399.069874 
L 604.418055 400.661555 
L 604.932291 403.836661 
L 605.446528 403.588992 
L 605.960764 403.560923 
L 606.475 400.729251 
L 606.989237 401.561416 
L 607.503473 401.777712 
L 608.01771 401.733132 
L 609.046182 398.338427 
L 609.560419 402.294513 
L 610.074655 402.117843 
L 610.588891 401.333561 
L 611.103128 399.238288 
L 611.617364 399.221777 
L 612.1316 397.813371 
L 612.645837 397.674677 
L 613.160073 396.262968 
L 613.674309 396.720329 
L 614.188546 397.985087 
L 614.702782 397.872811 
L 615.217018 397.623492 
L 615.731255 395.91293 
L 616.245491 400.047338 
L 616.759727 398.511795 
L 617.273964 398.591049 
L 617.7882 397.63505 
L 618.302436 395.957511 
L 618.816673 397.980134 
L 619.330909 397.489751 
L 619.330909 397.489751 
" style="fill:none;stroke:#1f77b4;stroke-linecap:square;stroke-width:1.5;"/>
   </g>
   <g id="patch_3">
    <path d="M 108 448.56 
L 108 60.48 
" style="fill:none;stroke:#000000;stroke-linecap:square;stroke-linejoin:miter;stroke-width:0.8;"/>
   </g>
   <g id="patch_4">
    <path d="M 643.68 448.56 
L 643.68 60.48 
" style="fill:none;stroke:#000000;stroke-linecap:square;stroke-linejoin:miter;stroke-width:0.8;"/>
   </g>
   <g id="patch_5">
    <path d="M 108 448.56 
L 643.68 448.56 
" style="fill:none;stroke:#000000;stroke-linecap:square;stroke-linejoin:miter;stroke-width:0.8;"/>
   </g>
   <g id="patch_6">
    <path d="M 108 60.48 
L 643.68 60.48 
" style="fill:none;stroke:#000000;stroke-linecap:square;stroke-linejoin:miter;stroke-width:0.8;"/>
   </g>
   <g id="text_29">
    <!-- unikernel_base - free -->
    <g transform="translate(297.273984 54.48)scale(0.15 -0.15)">
     <defs>
      <path d="M 8.5 21.578125 
L 8.5 54.6875 
L 17.484375 54.6875 
L 17.484375 21.921875 
Q 17.484375 14.15625 20.5 10.265625 
Q 23.53125 6.390625 29.59375 6.390625 
Q 36.859375 6.390625 41.078125 11.03125 
Q 45.3125 15.671875 45.3125 23.6875 
L 45.3125 54.6875 
L 54.296875 54.6875 
L 54.296875 0 
L 45.3125 0 
L 45.3125 8.40625 
Q 42.046875 3.421875 37.71875 1 
Q 33.40625 -1.421875 27.6875 -1.421875 
Q 18.265625 -1.421875 13.375 4.4375 
Q 8.5 10.296875 8.5 21.578125 
z
M 31.109375 56 
z
" id="DejaVuSans-117"/>
      <path d="M 54.890625 33.015625 
L 54.890625 0 
L 45.90625 0 
L 45.90625 32.71875 
Q 45.90625 40.484375 42.875 44.328125 
Q 39.84375 48.1875 33.796875 48.1875 
Q 26.515625 48.1875 22.3125 43.546875 
Q 18.109375 38.921875 18.109375 30.90625 
L 18.109375 0 
L 9.078125 0 
L 9.078125 54.6875 
L 18.109375 54.6875 
L 18.109375 46.1875 
Q 21.34375 51.125 25.703125 53.5625 
Q 30.078125 56 35.796875 56 
Q 45.21875 56 50.046875 50.171875 
Q 54.890625 44.34375 54.890625 33.015625 
z
" id="DejaVuSans-110"/>
      <path d="M 9.078125 75.984375 
L 18.109375 75.984375 
L 18.109375 31.109375 
L 44.921875 54.6875 
L 56.390625 54.6875 
L 27.390625 29.109375 
L 57.625 0 
L 45.90625 0 
L 18.109375 26.703125 
L 18.109375 0 
L 9.078125 0 
z
" id="DejaVuSans-107"/>
      <path d="M 41.109375 46.296875 
Q 39.59375 47.171875 37.8125 47.578125 
Q 36.03125 48 33.890625 48 
Q 26.265625 48 22.1875 43.046875 
Q 18.109375 38.09375 18.109375 28.8125 
L 18.109375 0 
L 9.078125 0 
L 9.078125 54.6875 
L 18.109375 54.6875 
L 18.109375 46.1875 
Q 20.953125 51.171875 25.484375 53.578125 
Q 30.03125 56 36.53125 56 
Q 37.453125 56 38.578125 55.875 
Q 39.703125 55.765625 41.0625 55.515625 
z
" id="DejaVuSans-114"/>
      <path d="M 9.421875 75.984375 
L 18.40625 75.984375 
L 18.40625 0 
L 9.421875 0 
z
" id="DejaVuSans-108"/>
      <path d="M 50.984375 -16.609375 
L 50.984375 -23.578125 
L -0.984375 -23.578125 
L -0.984375 -16.609375 
z
" id="DejaVuSans-95"/>
      <path d="M 48.6875 27.296875 
Q 48.6875 37.203125 44.609375 42.84375 
Q 40.53125 48.484375 33.40625 48.484375 
Q 26.265625 48.484375 22.1875 42.84375 
Q 18.109375 37.203125 18.109375 27.296875 
Q 18.109375 17.390625 22.1875 11.75 
Q 26.265625 6.109375 33.40625 6.109375 
Q 40.53125 6.109375 44.609375 11.75 
Q 48.6875 17.390625 48.6875 27.296875 
z
M 18.109375 46.390625 
Q 20.953125 51.265625 25.265625 53.625 
Q 29.59375 56 35.59375 56 
Q 45.5625 56 51.78125 48.09375 
Q 58.015625 40.1875 58.015625 27.296875 
Q 58.015625 14.40625 51.78125 6.484375 
Q 45.5625 -1.421875 35.59375 -1.421875 
Q 29.59375 -1.421875 25.265625 0.953125 
Q 20.953125 3.328125 18.109375 8.203125 
L 18.109375 0 
L 9.078125 0 
L 9.078125 75.984375 
L 18.109375 75.984375 
z
" id="DejaVuSans-98"/>
      <path id="DejaVuSans-32"/>
      <path d="M 4.890625 31.390625 
L 31.203125 31.390625 
L 31.203125 23.390625 
L 4.890625 23.390625 
z
" id="DejaVuSans-45"/>
      <path d="M 37.109375 75.984375 
L 37.109375 68.5 
L 28.515625 68.5 
Q 23.6875 68.5 21.796875 66.546875 
Q 19.921875 64.59375 19.921875 59.515625 
L 19.921875 54.6875 
L 34.71875 54.6875 
L 34.71875 47.703125 
L 19.921875 47.703125 
L 19.921875 0 
L 10.890625 0 
L 10.890625 47.703125 
L 2.296875 47.703125 
L 2.296875 54.6875 
L 10.890625 54.6875 
L 10.890625 58.5 
Q 10.890625 67.625 15.140625 71.796875 
Q 19.390625 75.984375 28.609375 75.984375 
z
" id="DejaVuSans-102"/>
     </defs>
     <use xlink:href="#DejaVuSans-117"/>
     <use x="63.378906" xlink:href="#DejaVuSans-110"/>
     <use x="126.757812" xlink:href="#DejaVuSans-105"/>
     <use x="154.541016" xlink:href="#DejaVuSans-107"/>
     <use x="208.826172" xlink:href="#DejaVuSans-101"/>
     <use x="270.349609" xlink:href="#DejaVuSans-114"/>
     <use x="309.712891" xlink:href="#DejaVuSans-110"/>
     <use x="373.091797" xlink:href="#DejaVuSans-101"/>
     <use x="434.615234" xlink:href="#DejaVuSans-108"/>
     <use x="462.398438" xlink:href="#DejaVuSans-95"/>
     <use x="512.398438" xlink:href="#DejaVuSans-98"/>
     <use x="575.875" xlink:href="#DejaVuSans-97"/>
     <use x="637.154297" xlink:href="#DejaVuSans-115"/>
     <use x="689.253906" xlink:href="#DejaVuSans-101"/>
     <use x="750.777344" xlink:href="#DejaVuSans-32"/>
     <use x="782.564453" xlink:href="#DejaVuSans-45"/>
     <use x="818.648438" xlink:href="#DejaVuSans-32"/>
     <use x="850.435547" xlink:href="#DejaVuSans-102"/>
     <use x="885.640625" xlink:href="#DejaVuSans-114"/>
     <use x="924.503906" xlink:href="#DejaVuSans-101"/>
     <use x="986.027344" xlink:href="#DejaVuSans-101"/>
    </g>
   </g>
   <g id="legend_1">
    <g id="patch_7">
     <path d="M 650.68 258.52 
L 654.68 258.52 
Q 656.68 258.52 656.68 256.52 
L 656.68 252.52 
Q 656.68 250.52 654.68 250.52 
L 650.68 250.52 
Q 648.68 250.52 648.68 252.52 
L 648.68 256.52 
Q 648.68 258.52 650.68 258.52 
z
" style="fill:#ffffff;opacity:0.8;stroke:#cccccc;stroke-linejoin:miter;"/>
    </g>
   </g>
  </g>
 </g>
 <defs>
  <clipPath id="pfb9a95ce88">
   <rect height="388.08" width="535.68" x="108" y="60.48"/>
  </clipPath>
 </defs>
</svg>
