<?xml version="1.0" encoding="utf-8" standalone="no"?>
<!DOCTYPE svg PUBLIC "-//W3C//DTD SVG 1.1//EN"
  "http://www.w3.org/Graphics/SVG/1.1/DTD/svg11.dtd">
<!-- Created with matplotlib (https://matplotlib.org/) -->
<svg height="504pt" version="1.1" viewBox="0 0 864 504" width="864pt" xmlns="http://www.w3.org/2000/svg" xmlns:xlink="http://www.w3.org/1999/xlink">
 <metadata>
  <rdf:RDF xmlns:cc="http://creativecommons.org/ns#" xmlns:dc="http://purl.org/dc/elements/1.1/" xmlns:rdf="http://www.w3.org/1999/02/22-rdf-syntax-ns#">
   <cc:Work>
    <dc:type rdf:resource="http://purl.org/dc/dcmitype/StillImage"/>
    <dc:date>2022-05-29T17:28:36.812438</dc:date>
    <dc:format>image/svg+xml</dc:format>
    <dc:creator>
     <cc:Agent>
      <dc:title>Matplotlib v3.3.4, https://matplotlib.org/</dc:title>
     </cc:Agent>
    </dc:creator>
   </cc:Work>
  </rdf:RDF>
 </metadata>
 <defs>
  <style type="text/css">*{stroke-linecap:butt;stroke-linejoin:round;}</style>
 </defs>
 <g id="figure_1">
  <g id="patch_1">
   <path d="M 0 504 
L 864 504 
L 864 0 
L 0 0 
z
" style="fill:#ffffff;"/>
  </g>
  <g id="axes_1">
   <g id="patch_2">
    <path d="M 108 448.56 
L 643.68 448.56 
L 643.68 60.48 
L 108 60.48 
z
" style="fill:#ffffff;"/>
   </g>
   <g id="matplotlib.axis_1">
    <g id="xtick_1">
     <g id="line2d_1">
      <defs>
       <path d="M 0 0 
L 0 3.5 
" id="m606c5a7649" style="stroke:#000000;stroke-width:0.8;"/>
      </defs>
      <g>
       <use style="stroke:#000000;stroke-width:0.8;" x="132.349091" xlink:href="#m606c5a7649" y="448.56"/>
      </g>
     </g>
     <g id="text_1">
      <!-- 23:16:16 -->
      <g transform="translate(135.108466 500.4725)rotate(-90)scale(0.1 -0.1)">
       <defs>
        <path d="M 19.1875 8.296875 
L 53.609375 8.296875 
L 53.609375 0 
L 7.328125 0 
L 7.328125 8.296875 
Q 12.9375 14.109375 22.625 23.890625 
Q 32.328125 33.6875 34.8125 36.53125 
Q 39.546875 41.84375 41.421875 45.53125 
Q 43.3125 49.21875 43.3125 52.78125 
Q 43.3125 58.59375 39.234375 62.25 
Q 35.15625 65.921875 28.609375 65.921875 
Q 23.96875 65.921875 18.8125 64.3125 
Q 13.671875 62.703125 7.8125 59.421875 
L 7.8125 69.390625 
Q 13.765625 71.78125 18.9375 73 
Q 24.125 74.21875 28.421875 74.21875 
Q 39.75 74.21875 46.484375 68.546875 
Q 53.21875 62.890625 53.21875 53.421875 
Q 53.21875 48.921875 51.53125 44.890625 
Q 49.859375 40.875 45.40625 35.40625 
Q 44.1875 33.984375 37.640625 27.21875 
Q 31.109375 20.453125 19.1875 8.296875 
z
" id="DejaVuSans-50"/>
        <path d="M 40.578125 39.3125 
Q 47.65625 37.796875 51.625 33 
Q 55.609375 28.21875 55.609375 21.1875 
Q 55.609375 10.40625 48.1875 4.484375 
Q 40.765625 -1.421875 27.09375 -1.421875 
Q 22.515625 -1.421875 17.65625 -0.515625 
Q 12.796875 0.390625 7.625 2.203125 
L 7.625 11.71875 
Q 11.71875 9.328125 16.59375 8.109375 
Q 21.484375 6.890625 26.8125 6.890625 
Q 36.078125 6.890625 40.9375 10.546875 
Q 45.796875 14.203125 45.796875 21.1875 
Q 45.796875 27.640625 41.28125 31.265625 
Q 36.765625 34.90625 28.71875 34.90625 
L 20.21875 34.90625 
L 20.21875 43.015625 
L 29.109375 43.015625 
Q 36.375 43.015625 40.234375 45.921875 
Q 44.09375 48.828125 44.09375 54.296875 
Q 44.09375 59.90625 40.109375 62.90625 
Q 36.140625 65.921875 28.71875 65.921875 
Q 24.65625 65.921875 20.015625 65.03125 
Q 15.375 64.15625 9.8125 62.3125 
L 9.8125 71.09375 
Q 15.4375 72.65625 20.34375 73.4375 
Q 25.25 74.21875 29.59375 74.21875 
Q 40.828125 74.21875 47.359375 69.109375 
Q 53.90625 64.015625 53.90625 55.328125 
Q 53.90625 49.265625 50.4375 45.09375 
Q 46.96875 40.921875 40.578125 39.3125 
z
" id="DejaVuSans-51"/>
        <path d="M 11.71875 12.40625 
L 22.015625 12.40625 
L 22.015625 0 
L 11.71875 0 
z
M 11.71875 51.703125 
L 22.015625 51.703125 
L 22.015625 39.3125 
L 11.71875 39.3125 
z
" id="DejaVuSans-58"/>
        <path d="M 12.40625 8.296875 
L 28.515625 8.296875 
L 28.515625 63.921875 
L 10.984375 60.40625 
L 10.984375 69.390625 
L 28.421875 72.90625 
L 38.28125 72.90625 
L 38.28125 8.296875 
L 54.390625 8.296875 
L 54.390625 0 
L 12.40625 0 
z
" id="DejaVuSans-49"/>
        <path d="M 33.015625 40.375 
Q 26.375 40.375 22.484375 35.828125 
Q 18.609375 31.296875 18.609375 23.390625 
Q 18.609375 15.53125 22.484375 10.953125 
Q 26.375 6.390625 33.015625 6.390625 
Q 39.65625 6.390625 43.53125 10.953125 
Q 47.40625 15.53125 47.40625 23.390625 
Q 47.40625 31.296875 43.53125 35.828125 
Q 39.65625 40.375 33.015625 40.375 
z
M 52.59375 71.296875 
L 52.59375 62.3125 
Q 48.875 64.0625 45.09375 64.984375 
Q 41.3125 65.921875 37.59375 65.921875 
Q 27.828125 65.921875 22.671875 59.328125 
Q 17.53125 52.734375 16.796875 39.40625 
Q 19.671875 43.65625 24.015625 45.921875 
Q 28.375 48.1875 33.59375 48.1875 
Q 44.578125 48.1875 50.953125 41.515625 
Q 57.328125 34.859375 57.328125 23.390625 
Q 57.328125 12.15625 50.6875 5.359375 
Q 44.046875 -1.421875 33.015625 -1.421875 
Q 20.359375 -1.421875 13.671875 8.265625 
Q 6.984375 17.96875 6.984375 36.375 
Q 6.984375 53.65625 15.1875 63.9375 
Q 23.390625 74.21875 37.203125 74.21875 
Q 40.921875 74.21875 44.703125 73.484375 
Q 48.484375 72.75 52.59375 71.296875 
z
" id="DejaVuSans-54"/>
       </defs>
       <use xlink:href="#DejaVuSans-50"/>
       <use x="63.623047" xlink:href="#DejaVuSans-51"/>
       <use x="127.246094" xlink:href="#DejaVuSans-58"/>
       <use x="160.9375" xlink:href="#DejaVuSans-49"/>
       <use x="224.560547" xlink:href="#DejaVuSans-54"/>
       <use x="288.183594" xlink:href="#DejaVuSans-58"/>
       <use x="321.875" xlink:href="#DejaVuSans-49"/>
       <use x="385.498047" xlink:href="#DejaVuSans-54"/>
      </g>
     </g>
    </g>
    <g id="xtick_2">
     <g id="line2d_2">
      <g>
       <use style="stroke:#000000;stroke-width:0.8;" x="156.230928" xlink:href="#m606c5a7649" y="448.56"/>
      </g>
     </g>
     <g id="text_2">
      <!-- 23:17:08 -->
      <g transform="translate(158.990303 500.4725)rotate(-90)scale(0.1 -0.1)">
       <defs>
        <path d="M 8.203125 72.90625 
L 55.078125 72.90625 
L 55.078125 68.703125 
L 28.609375 0 
L 18.3125 0 
L 43.21875 64.59375 
L 8.203125 64.59375 
z
" id="DejaVuSans-55"/>
        <path d="M 31.78125 66.40625 
Q 24.171875 66.40625 20.328125 58.90625 
Q 16.5 51.421875 16.5 36.375 
Q 16.5 21.390625 20.328125 13.890625 
Q 24.171875 6.390625 31.78125 6.390625 
Q 39.453125 6.390625 43.28125 13.890625 
Q 47.125 21.390625 47.125 36.375 
Q 47.125 51.421875 43.28125 58.90625 
Q 39.453125 66.40625 31.78125 66.40625 
z
M 31.78125 74.21875 
Q 44.046875 74.21875 50.515625 64.515625 
Q 56.984375 54.828125 56.984375 36.375 
Q 56.984375 17.96875 50.515625 8.265625 
Q 44.046875 -1.421875 31.78125 -1.421875 
Q 19.53125 -1.421875 13.0625 8.265625 
Q 6.59375 17.96875 6.59375 36.375 
Q 6.59375 54.828125 13.0625 64.515625 
Q 19.53125 74.21875 31.78125 74.21875 
z
" id="DejaVuSans-48"/>
        <path d="M 31.78125 34.625 
Q 24.75 34.625 20.71875 30.859375 
Q 16.703125 27.09375 16.703125 20.515625 
Q 16.703125 13.921875 20.71875 10.15625 
Q 24.75 6.390625 31.78125 6.390625 
Q 38.8125 6.390625 42.859375 10.171875 
Q 46.921875 13.96875 46.921875 20.515625 
Q 46.921875 27.09375 42.890625 30.859375 
Q 38.875 34.625 31.78125 34.625 
z
M 21.921875 38.8125 
Q 15.578125 40.375 12.03125 44.71875 
Q 8.5 49.078125 8.5 55.328125 
Q 8.5 64.0625 14.71875 69.140625 
Q 20.953125 74.21875 31.78125 74.21875 
Q 42.671875 74.21875 48.875 69.140625 
Q 55.078125 64.0625 55.078125 55.328125 
Q 55.078125 49.078125 51.53125 44.71875 
Q 48 40.375 41.703125 38.8125 
Q 48.828125 37.15625 52.796875 32.3125 
Q 56.78125 27.484375 56.78125 20.515625 
Q 56.78125 9.90625 50.3125 4.234375 
Q 43.84375 -1.421875 31.78125 -1.421875 
Q 19.734375 -1.421875 13.25 4.234375 
Q 6.78125 9.90625 6.78125 20.515625 
Q 6.78125 27.484375 10.78125 32.3125 
Q 14.796875 37.15625 21.921875 38.8125 
z
M 18.3125 54.390625 
Q 18.3125 48.734375 21.84375 45.5625 
Q 25.390625 42.390625 31.78125 42.390625 
Q 38.140625 42.390625 41.71875 45.5625 
Q 45.3125 48.734375 45.3125 54.390625 
Q 45.3125 60.0625 41.71875 63.234375 
Q 38.140625 66.40625 31.78125 66.40625 
Q 25.390625 66.40625 21.84375 63.234375 
Q 18.3125 60.0625 18.3125 54.390625 
z
" id="DejaVuSans-56"/>
       </defs>
       <use xlink:href="#DejaVuSans-50"/>
       <use x="63.623047" xlink:href="#DejaVuSans-51"/>
       <use x="127.246094" xlink:href="#DejaVuSans-58"/>
       <use x="160.9375" xlink:href="#DejaVuSans-49"/>
       <use x="224.560547" xlink:href="#DejaVuSans-55"/>
       <use x="288.183594" xlink:href="#DejaVuSans-58"/>
       <use x="321.875" xlink:href="#DejaVuSans-48"/>
       <use x="385.498047" xlink:href="#DejaVuSans-56"/>
      </g>
     </g>
    </g>
    <g id="xtick_3">
     <g id="line2d_3">
      <g>
       <use style="stroke:#000000;stroke-width:0.8;" x="180.112766" xlink:href="#m606c5a7649" y="448.56"/>
      </g>
     </g>
     <g id="text_3">
      <!-- 23:17:59 -->
      <g transform="translate(182.872141 500.4725)rotate(-90)scale(0.1 -0.1)">
       <defs>
        <path d="M 10.796875 72.90625 
L 49.515625 72.90625 
L 49.515625 64.59375 
L 19.828125 64.59375 
L 19.828125 46.734375 
Q 21.96875 47.46875 24.109375 47.828125 
Q 26.265625 48.1875 28.421875 48.1875 
Q 40.625 48.1875 47.75 41.5 
Q 54.890625 34.8125 54.890625 23.390625 
Q 54.890625 11.625 47.5625 5.09375 
Q 40.234375 -1.421875 26.90625 -1.421875 
Q 22.3125 -1.421875 17.546875 -0.640625 
Q 12.796875 0.140625 7.71875 1.703125 
L 7.71875 11.625 
Q 12.109375 9.234375 16.796875 8.0625 
Q 21.484375 6.890625 26.703125 6.890625 
Q 35.15625 6.890625 40.078125 11.328125 
Q 45.015625 15.765625 45.015625 23.390625 
Q 45.015625 31 40.078125 35.4375 
Q 35.15625 39.890625 26.703125 39.890625 
Q 22.75 39.890625 18.8125 39.015625 
Q 14.890625 38.140625 10.796875 36.28125 
z
" id="DejaVuSans-53"/>
        <path d="M 10.984375 1.515625 
L 10.984375 10.5 
Q 14.703125 8.734375 18.5 7.8125 
Q 22.3125 6.890625 25.984375 6.890625 
Q 35.75 6.890625 40.890625 13.453125 
Q 46.046875 20.015625 46.78125 33.40625 
Q 43.953125 29.203125 39.59375 26.953125 
Q 35.25 24.703125 29.984375 24.703125 
Q 19.046875 24.703125 12.671875 31.3125 
Q 6.296875 37.9375 6.296875 49.421875 
Q 6.296875 60.640625 12.9375 67.421875 
Q 19.578125 74.21875 30.609375 74.21875 
Q 43.265625 74.21875 49.921875 64.515625 
Q 56.59375 54.828125 56.59375 36.375 
Q 56.59375 19.140625 48.40625 8.859375 
Q 40.234375 -1.421875 26.421875 -1.421875 
Q 22.703125 -1.421875 18.890625 -0.6875 
Q 15.09375 0.046875 10.984375 1.515625 
z
M 30.609375 32.421875 
Q 37.25 32.421875 41.125 36.953125 
Q 45.015625 41.5 45.015625 49.421875 
Q 45.015625 57.28125 41.125 61.84375 
Q 37.25 66.40625 30.609375 66.40625 
Q 23.96875 66.40625 20.09375 61.84375 
Q 16.21875 57.28125 16.21875 49.421875 
Q 16.21875 41.5 20.09375 36.953125 
Q 23.96875 32.421875 30.609375 32.421875 
z
" id="DejaVuSans-57"/>
       </defs>
       <use xlink:href="#DejaVuSans-50"/>
       <use x="63.623047" xlink:href="#DejaVuSans-51"/>
       <use x="127.246094" xlink:href="#DejaVuSans-58"/>
       <use x="160.9375" xlink:href="#DejaVuSans-49"/>
       <use x="224.560547" xlink:href="#DejaVuSans-55"/>
       <use x="288.183594" xlink:href="#DejaVuSans-58"/>
       <use x="321.875" xlink:href="#DejaVuSans-53"/>
       <use x="385.498047" xlink:href="#DejaVuSans-57"/>
      </g>
     </g>
    </g>
    <g id="xtick_4">
     <g id="line2d_4">
      <g>
       <use style="stroke:#000000;stroke-width:0.8;" x="203.994604" xlink:href="#m606c5a7649" y="448.56"/>
      </g>
     </g>
     <g id="text_4">
      <!-- 23:18:51 -->
      <g transform="translate(206.753979 500.4725)rotate(-90)scale(0.1 -0.1)">
       <use xlink:href="#DejaVuSans-50"/>
       <use x="63.623047" xlink:href="#DejaVuSans-51"/>
       <use x="127.246094" xlink:href="#DejaVuSans-58"/>
       <use x="160.9375" xlink:href="#DejaVuSans-49"/>
       <use x="224.560547" xlink:href="#DejaVuSans-56"/>
       <use x="288.183594" xlink:href="#DejaVuSans-58"/>
       <use x="321.875" xlink:href="#DejaVuSans-53"/>
       <use x="385.498047" xlink:href="#DejaVuSans-49"/>
      </g>
     </g>
    </g>
    <g id="xtick_5">
     <g id="line2d_5">
      <g>
       <use style="stroke:#000000;stroke-width:0.8;" x="227.876441" xlink:href="#m606c5a7649" y="448.56"/>
      </g>
     </g>
     <g id="text_5">
      <!-- 23:19:43 -->
      <g transform="translate(230.635816 500.4725)rotate(-90)scale(0.1 -0.1)">
       <defs>
        <path d="M 37.796875 64.3125 
L 12.890625 25.390625 
L 37.796875 25.390625 
z
M 35.203125 72.90625 
L 47.609375 72.90625 
L 47.609375 25.390625 
L 58.015625 25.390625 
L 58.015625 17.1875 
L 47.609375 17.1875 
L 47.609375 0 
L 37.796875 0 
L 37.796875 17.1875 
L 4.890625 17.1875 
L 4.890625 26.703125 
z
" id="DejaVuSans-52"/>
       </defs>
       <use xlink:href="#DejaVuSans-50"/>
       <use x="63.623047" xlink:href="#DejaVuSans-51"/>
       <use x="127.246094" xlink:href="#DejaVuSans-58"/>
       <use x="160.9375" xlink:href="#DejaVuSans-49"/>
       <use x="224.560547" xlink:href="#DejaVuSans-57"/>
       <use x="288.183594" xlink:href="#DejaVuSans-58"/>
       <use x="321.875" xlink:href="#DejaVuSans-52"/>
       <use x="385.498047" xlink:href="#DejaVuSans-51"/>
      </g>
     </g>
    </g>
    <g id="xtick_6">
     <g id="line2d_6">
      <g>
       <use style="stroke:#000000;stroke-width:0.8;" x="251.758279" xlink:href="#m606c5a7649" y="448.56"/>
      </g>
     </g>
     <g id="text_6">
      <!-- 23:20:35 -->
      <g transform="translate(254.517654 500.4725)rotate(-90)scale(0.1 -0.1)">
       <use xlink:href="#DejaVuSans-50"/>
       <use x="63.623047" xlink:href="#DejaVuSans-51"/>
       <use x="127.246094" xlink:href="#DejaVuSans-58"/>
       <use x="160.9375" xlink:href="#DejaVuSans-50"/>
       <use x="224.560547" xlink:href="#DejaVuSans-48"/>
       <use x="288.183594" xlink:href="#DejaVuSans-58"/>
       <use x="321.875" xlink:href="#DejaVuSans-51"/>
       <use x="385.498047" xlink:href="#DejaVuSans-53"/>
      </g>
     </g>
    </g>
    <g id="xtick_7">
     <g id="line2d_7">
      <g>
       <use style="stroke:#000000;stroke-width:0.8;" x="275.640116" xlink:href="#m606c5a7649" y="448.56"/>
      </g>
     </g>
     <g id="text_7">
      <!-- 23:21:26 -->
      <g transform="translate(278.399491 500.4725)rotate(-90)scale(0.1 -0.1)">
       <use xlink:href="#DejaVuSans-50"/>
       <use x="63.623047" xlink:href="#DejaVuSans-51"/>
       <use x="127.246094" xlink:href="#DejaVuSans-58"/>
       <use x="160.9375" xlink:href="#DejaVuSans-50"/>
       <use x="224.560547" xlink:href="#DejaVuSans-49"/>
       <use x="288.183594" xlink:href="#DejaVuSans-58"/>
       <use x="321.875" xlink:href="#DejaVuSans-50"/>
       <use x="385.498047" xlink:href="#DejaVuSans-54"/>
      </g>
     </g>
    </g>
    <g id="xtick_8">
     <g id="line2d_8">
      <g>
       <use style="stroke:#000000;stroke-width:0.8;" x="299.521954" xlink:href="#m606c5a7649" y="448.56"/>
      </g>
     </g>
     <g id="text_8">
      <!-- 23:22:19 -->
      <g transform="translate(302.281329 500.4725)rotate(-90)scale(0.1 -0.1)">
       <use xlink:href="#DejaVuSans-50"/>
       <use x="63.623047" xlink:href="#DejaVuSans-51"/>
       <use x="127.246094" xlink:href="#DejaVuSans-58"/>
       <use x="160.9375" xlink:href="#DejaVuSans-50"/>
       <use x="224.560547" xlink:href="#DejaVuSans-50"/>
       <use x="288.183594" xlink:href="#DejaVuSans-58"/>
       <use x="321.875" xlink:href="#DejaVuSans-49"/>
       <use x="385.498047" xlink:href="#DejaVuSans-57"/>
      </g>
     </g>
    </g>
    <g id="xtick_9">
     <g id="line2d_9">
      <g>
       <use style="stroke:#000000;stroke-width:0.8;" x="323.403791" xlink:href="#m606c5a7649" y="448.56"/>
      </g>
     </g>
     <g id="text_9">
      <!-- 23:23:10 -->
      <g transform="translate(326.163166 500.4725)rotate(-90)scale(0.1 -0.1)">
       <use xlink:href="#DejaVuSans-50"/>
       <use x="63.623047" xlink:href="#DejaVuSans-51"/>
       <use x="127.246094" xlink:href="#DejaVuSans-58"/>
       <use x="160.9375" xlink:href="#DejaVuSans-50"/>
       <use x="224.560547" xlink:href="#DejaVuSans-51"/>
       <use x="288.183594" xlink:href="#DejaVuSans-58"/>
       <use x="321.875" xlink:href="#DejaVuSans-49"/>
       <use x="385.498047" xlink:href="#DejaVuSans-48"/>
      </g>
     </g>
    </g>
    <g id="xtick_10">
     <g id="line2d_10">
      <g>
       <use style="stroke:#000000;stroke-width:0.8;" x="347.285629" xlink:href="#m606c5a7649" y="448.56"/>
      </g>
     </g>
     <g id="text_10">
      <!-- 23:24:02 -->
      <g transform="translate(350.045004 500.4725)rotate(-90)scale(0.1 -0.1)">
       <use xlink:href="#DejaVuSans-50"/>
       <use x="63.623047" xlink:href="#DejaVuSans-51"/>
       <use x="127.246094" xlink:href="#DejaVuSans-58"/>
       <use x="160.9375" xlink:href="#DejaVuSans-50"/>
       <use x="224.560547" xlink:href="#DejaVuSans-52"/>
       <use x="288.183594" xlink:href="#DejaVuSans-58"/>
       <use x="321.875" xlink:href="#DejaVuSans-48"/>
       <use x="385.498047" xlink:href="#DejaVuSans-50"/>
      </g>
     </g>
    </g>
    <g id="xtick_11">
     <g id="line2d_11">
      <g>
       <use style="stroke:#000000;stroke-width:0.8;" x="371.167467" xlink:href="#m606c5a7649" y="448.56"/>
      </g>
     </g>
     <g id="text_11">
      <!-- 23:24:54 -->
      <g transform="translate(373.926842 500.4725)rotate(-90)scale(0.1 -0.1)">
       <use xlink:href="#DejaVuSans-50"/>
       <use x="63.623047" xlink:href="#DejaVuSans-51"/>
       <use x="127.246094" xlink:href="#DejaVuSans-58"/>
       <use x="160.9375" xlink:href="#DejaVuSans-50"/>
       <use x="224.560547" xlink:href="#DejaVuSans-52"/>
       <use x="288.183594" xlink:href="#DejaVuSans-58"/>
       <use x="321.875" xlink:href="#DejaVuSans-53"/>
       <use x="385.498047" xlink:href="#DejaVuSans-52"/>
      </g>
     </g>
    </g>
    <g id="xtick_12">
     <g id="line2d_12">
      <g>
       <use style="stroke:#000000;stroke-width:0.8;" x="395.049304" xlink:href="#m606c5a7649" y="448.56"/>
      </g>
     </g>
     <g id="text_12">
      <!-- 23:25:45 -->
      <g transform="translate(397.808679 500.4725)rotate(-90)scale(0.1 -0.1)">
       <use xlink:href="#DejaVuSans-50"/>
       <use x="63.623047" xlink:href="#DejaVuSans-51"/>
       <use x="127.246094" xlink:href="#DejaVuSans-58"/>
       <use x="160.9375" xlink:href="#DejaVuSans-50"/>
       <use x="224.560547" xlink:href="#DejaVuSans-53"/>
       <use x="288.183594" xlink:href="#DejaVuSans-58"/>
       <use x="321.875" xlink:href="#DejaVuSans-52"/>
       <use x="385.498047" xlink:href="#DejaVuSans-53"/>
      </g>
     </g>
    </g>
    <g id="xtick_13">
     <g id="line2d_13">
      <g>
       <use style="stroke:#000000;stroke-width:0.8;" x="418.931142" xlink:href="#m606c5a7649" y="448.56"/>
      </g>
     </g>
     <g id="text_13">
      <!-- 23:26:37 -->
      <g transform="translate(421.690517 500.4725)rotate(-90)scale(0.1 -0.1)">
       <use xlink:href="#DejaVuSans-50"/>
       <use x="63.623047" xlink:href="#DejaVuSans-51"/>
       <use x="127.246094" xlink:href="#DejaVuSans-58"/>
       <use x="160.9375" xlink:href="#DejaVuSans-50"/>
       <use x="224.560547" xlink:href="#DejaVuSans-54"/>
       <use x="288.183594" xlink:href="#DejaVuSans-58"/>
       <use x="321.875" xlink:href="#DejaVuSans-51"/>
       <use x="385.498047" xlink:href="#DejaVuSans-55"/>
      </g>
     </g>
    </g>
    <g id="xtick_14">
     <g id="line2d_14">
      <g>
       <use style="stroke:#000000;stroke-width:0.8;" x="442.812979" xlink:href="#m606c5a7649" y="448.56"/>
      </g>
     </g>
     <g id="text_14">
      <!-- 23:27:29 -->
      <g transform="translate(445.572354 500.4725)rotate(-90)scale(0.1 -0.1)">
       <use xlink:href="#DejaVuSans-50"/>
       <use x="63.623047" xlink:href="#DejaVuSans-51"/>
       <use x="127.246094" xlink:href="#DejaVuSans-58"/>
       <use x="160.9375" xlink:href="#DejaVuSans-50"/>
       <use x="224.560547" xlink:href="#DejaVuSans-55"/>
       <use x="288.183594" xlink:href="#DejaVuSans-58"/>
       <use x="321.875" xlink:href="#DejaVuSans-50"/>
       <use x="385.498047" xlink:href="#DejaVuSans-57"/>
      </g>
     </g>
    </g>
    <g id="xtick_15">
     <g id="line2d_15">
      <g>
       <use style="stroke:#000000;stroke-width:0.8;" x="466.694817" xlink:href="#m606c5a7649" y="448.56"/>
      </g>
     </g>
     <g id="text_15">
      <!-- 23:28:21 -->
      <g transform="translate(469.454192 500.4725)rotate(-90)scale(0.1 -0.1)">
       <use xlink:href="#DejaVuSans-50"/>
       <use x="63.623047" xlink:href="#DejaVuSans-51"/>
       <use x="127.246094" xlink:href="#DejaVuSans-58"/>
       <use x="160.9375" xlink:href="#DejaVuSans-50"/>
       <use x="224.560547" xlink:href="#DejaVuSans-56"/>
       <use x="288.183594" xlink:href="#DejaVuSans-58"/>
       <use x="321.875" xlink:href="#DejaVuSans-50"/>
       <use x="385.498047" xlink:href="#DejaVuSans-49"/>
      </g>
     </g>
    </g>
    <g id="xtick_16">
     <g id="line2d_16">
      <g>
       <use style="stroke:#000000;stroke-width:0.8;" x="490.576654" xlink:href="#m606c5a7649" y="448.56"/>
      </g>
     </g>
     <g id="text_16">
      <!-- 23:29:13 -->
      <g transform="translate(493.336029 500.4725)rotate(-90)scale(0.1 -0.1)">
       <use xlink:href="#DejaVuSans-50"/>
       <use x="63.623047" xlink:href="#DejaVuSans-51"/>
       <use x="127.246094" xlink:href="#DejaVuSans-58"/>
       <use x="160.9375" xlink:href="#DejaVuSans-50"/>
       <use x="224.560547" xlink:href="#DejaVuSans-57"/>
       <use x="288.183594" xlink:href="#DejaVuSans-58"/>
       <use x="321.875" xlink:href="#DejaVuSans-49"/>
       <use x="385.498047" xlink:href="#DejaVuSans-51"/>
      </g>
     </g>
    </g>
    <g id="xtick_17">
     <g id="line2d_17">
      <g>
       <use style="stroke:#000000;stroke-width:0.8;" x="514.458492" xlink:href="#m606c5a7649" y="448.56"/>
      </g>
     </g>
     <g id="text_17">
      <!-- 23:30:05 -->
      <g transform="translate(517.217867 500.4725)rotate(-90)scale(0.1 -0.1)">
       <use xlink:href="#DejaVuSans-50"/>
       <use x="63.623047" xlink:href="#DejaVuSans-51"/>
       <use x="127.246094" xlink:href="#DejaVuSans-58"/>
       <use x="160.9375" xlink:href="#DejaVuSans-51"/>
       <use x="224.560547" xlink:href="#DejaVuSans-48"/>
       <use x="288.183594" xlink:href="#DejaVuSans-58"/>
       <use x="321.875" xlink:href="#DejaVuSans-48"/>
       <use x="385.498047" xlink:href="#DejaVuSans-53"/>
      </g>
     </g>
    </g>
    <g id="xtick_18">
     <g id="line2d_18">
      <g>
       <use style="stroke:#000000;stroke-width:0.8;" x="538.34033" xlink:href="#m606c5a7649" y="448.56"/>
      </g>
     </g>
     <g id="text_18">
      <!-- 23:30:57 -->
      <g transform="translate(541.099705 500.4725)rotate(-90)scale(0.1 -0.1)">
       <use xlink:href="#DejaVuSans-50"/>
       <use x="63.623047" xlink:href="#DejaVuSans-51"/>
       <use x="127.246094" xlink:href="#DejaVuSans-58"/>
       <use x="160.9375" xlink:href="#DejaVuSans-51"/>
       <use x="224.560547" xlink:href="#DejaVuSans-48"/>
       <use x="288.183594" xlink:href="#DejaVuSans-58"/>
       <use x="321.875" xlink:href="#DejaVuSans-53"/>
       <use x="385.498047" xlink:href="#DejaVuSans-55"/>
      </g>
     </g>
    </g>
    <g id="xtick_19">
     <g id="line2d_19">
      <g>
       <use style="stroke:#000000;stroke-width:0.8;" x="562.222167" xlink:href="#m606c5a7649" y="448.56"/>
      </g>
     </g>
     <g id="text_19">
      <!-- 23:31:48 -->
      <g transform="translate(564.981542 500.4725)rotate(-90)scale(0.1 -0.1)">
       <use xlink:href="#DejaVuSans-50"/>
       <use x="63.623047" xlink:href="#DejaVuSans-51"/>
       <use x="127.246094" xlink:href="#DejaVuSans-58"/>
       <use x="160.9375" xlink:href="#DejaVuSans-51"/>
       <use x="224.560547" xlink:href="#DejaVuSans-49"/>
       <use x="288.183594" xlink:href="#DejaVuSans-58"/>
       <use x="321.875" xlink:href="#DejaVuSans-52"/>
       <use x="385.498047" xlink:href="#DejaVuSans-56"/>
      </g>
     </g>
    </g>
    <g id="xtick_20">
     <g id="line2d_20">
      <g>
       <use style="stroke:#000000;stroke-width:0.8;" x="586.104005" xlink:href="#m606c5a7649" y="448.56"/>
      </g>
     </g>
     <g id="text_20">
      <!-- 23:32:40 -->
      <g transform="translate(588.86338 500.4725)rotate(-90)scale(0.1 -0.1)">
       <use xlink:href="#DejaVuSans-50"/>
       <use x="63.623047" xlink:href="#DejaVuSans-51"/>
       <use x="127.246094" xlink:href="#DejaVuSans-58"/>
       <use x="160.9375" xlink:href="#DejaVuSans-51"/>
       <use x="224.560547" xlink:href="#DejaVuSans-50"/>
       <use x="288.183594" xlink:href="#DejaVuSans-58"/>
       <use x="321.875" xlink:href="#DejaVuSans-52"/>
       <use x="385.498047" xlink:href="#DejaVuSans-48"/>
      </g>
     </g>
    </g>
    <g id="xtick_21">
     <g id="line2d_21">
      <g>
       <use style="stroke:#000000;stroke-width:0.8;" x="609.985842" xlink:href="#m606c5a7649" y="448.56"/>
      </g>
     </g>
     <g id="text_21">
      <!-- 23:33:31 -->
      <g transform="translate(612.745217 500.4725)rotate(-90)scale(0.1 -0.1)">
       <use xlink:href="#DejaVuSans-50"/>
       <use x="63.623047" xlink:href="#DejaVuSans-51"/>
       <use x="127.246094" xlink:href="#DejaVuSans-58"/>
       <use x="160.9375" xlink:href="#DejaVuSans-51"/>
       <use x="224.560547" xlink:href="#DejaVuSans-51"/>
       <use x="288.183594" xlink:href="#DejaVuSans-58"/>
       <use x="321.875" xlink:href="#DejaVuSans-51"/>
       <use x="385.498047" xlink:href="#DejaVuSans-49"/>
      </g>
     </g>
    </g>
    <g id="text_22">
     <!-- timestamp -->
     <g transform="translate(354.264375 510.55125)scale(0.08 -0.08)">
      <defs>
       <path d="M 18.3125 70.21875 
L 18.3125 54.6875 
L 36.8125 54.6875 
L 36.8125 47.703125 
L 18.3125 47.703125 
L 18.3125 18.015625 
Q 18.3125 11.328125 20.140625 9.421875 
Q 21.96875 7.515625 27.59375 7.515625 
L 36.8125 7.515625 
L 36.8125 0 
L 27.59375 0 
Q 17.1875 0 13.234375 3.875 
Q 9.28125 7.765625 9.28125 18.015625 
L 9.28125 47.703125 
L 2.6875 47.703125 
L 2.6875 54.6875 
L 9.28125 54.6875 
L 9.28125 70.21875 
z
" id="DejaVuSans-116"/>
       <path d="M 9.421875 54.6875 
L 18.40625 54.6875 
L 18.40625 0 
L 9.421875 0 
z
M 9.421875 75.984375 
L 18.40625 75.984375 
L 18.40625 64.59375 
L 9.421875 64.59375 
z
" id="DejaVuSans-105"/>
       <path d="M 52 44.1875 
Q 55.375 50.25 60.0625 53.125 
Q 64.75 56 71.09375 56 
Q 79.640625 56 84.28125 50.015625 
Q 88.921875 44.046875 88.921875 33.015625 
L 88.921875 0 
L 79.890625 0 
L 79.890625 32.71875 
Q 79.890625 40.578125 77.09375 44.375 
Q 74.3125 48.1875 68.609375 48.1875 
Q 61.625 48.1875 57.5625 43.546875 
Q 53.515625 38.921875 53.515625 30.90625 
L 53.515625 0 
L 44.484375 0 
L 44.484375 32.71875 
Q 44.484375 40.625 41.703125 44.40625 
Q 38.921875 48.1875 33.109375 48.1875 
Q 26.21875 48.1875 22.15625 43.53125 
Q 18.109375 38.875 18.109375 30.90625 
L 18.109375 0 
L 9.078125 0 
L 9.078125 54.6875 
L 18.109375 54.6875 
L 18.109375 46.1875 
Q 21.1875 51.21875 25.484375 53.609375 
Q 29.78125 56 35.6875 56 
Q 41.65625 56 45.828125 52.96875 
Q 50 49.953125 52 44.1875 
z
" id="DejaVuSans-109"/>
       <path d="M 56.203125 29.59375 
L 56.203125 25.203125 
L 14.890625 25.203125 
Q 15.484375 15.921875 20.484375 11.0625 
Q 25.484375 6.203125 34.421875 6.203125 
Q 39.59375 6.203125 44.453125 7.46875 
Q 49.3125 8.734375 54.109375 11.28125 
L 54.109375 2.78125 
Q 49.265625 0.734375 44.1875 -0.34375 
Q 39.109375 -1.421875 33.890625 -1.421875 
Q 20.796875 -1.421875 13.15625 6.1875 
Q 5.515625 13.8125 5.515625 26.8125 
Q 5.515625 40.234375 12.765625 48.109375 
Q 20.015625 56 32.328125 56 
Q 43.359375 56 49.78125 48.890625 
Q 56.203125 41.796875 56.203125 29.59375 
z
M 47.21875 32.234375 
Q 47.125 39.59375 43.09375 43.984375 
Q 39.0625 48.390625 32.421875 48.390625 
Q 24.90625 48.390625 20.390625 44.140625 
Q 15.875 39.890625 15.1875 32.171875 
z
" id="DejaVuSans-101"/>
       <path d="M 44.28125 53.078125 
L 44.28125 44.578125 
Q 40.484375 46.53125 36.375 47.5 
Q 32.28125 48.484375 27.875 48.484375 
Q 21.1875 48.484375 17.84375 46.4375 
Q 14.5 44.390625 14.5 40.28125 
Q 14.5 37.15625 16.890625 35.375 
Q 19.28125 33.59375 26.515625 31.984375 
L 29.59375 31.296875 
Q 39.15625 29.25 43.1875 25.515625 
Q 47.21875 21.78125 47.21875 15.09375 
Q 47.21875 7.46875 41.1875 3.015625 
Q 35.15625 -1.421875 24.609375 -1.421875 
Q 20.21875 -1.421875 15.453125 -0.5625 
Q 10.6875 0.296875 5.421875 2 
L 5.421875 11.28125 
Q 10.40625 8.6875 15.234375 7.390625 
Q 20.0625 6.109375 24.8125 6.109375 
Q 31.15625 6.109375 34.5625 8.28125 
Q 37.984375 10.453125 37.984375 14.40625 
Q 37.984375 18.0625 35.515625 20.015625 
Q 33.0625 21.96875 24.703125 23.78125 
L 21.578125 24.515625 
Q 13.234375 26.265625 9.515625 29.90625 
Q 5.8125 33.546875 5.8125 39.890625 
Q 5.8125 47.609375 11.28125 51.796875 
Q 16.75 56 26.8125 56 
Q 31.78125 56 36.171875 55.265625 
Q 40.578125 54.546875 44.28125 53.078125 
z
" id="DejaVuSans-115"/>
       <path d="M 34.28125 27.484375 
Q 23.390625 27.484375 19.1875 25 
Q 14.984375 22.515625 14.984375 16.5 
Q 14.984375 11.71875 18.140625 8.90625 
Q 21.296875 6.109375 26.703125 6.109375 
Q 34.1875 6.109375 38.703125 11.40625 
Q 43.21875 16.703125 43.21875 25.484375 
L 43.21875 27.484375 
z
M 52.203125 31.203125 
L 52.203125 0 
L 43.21875 0 
L 43.21875 8.296875 
Q 40.140625 3.328125 35.546875 0.953125 
Q 30.953125 -1.421875 24.3125 -1.421875 
Q 15.921875 -1.421875 10.953125 3.296875 
Q 6 8.015625 6 15.921875 
Q 6 25.140625 12.171875 29.828125 
Q 18.359375 34.515625 30.609375 34.515625 
L 43.21875 34.515625 
L 43.21875 35.40625 
Q 43.21875 41.609375 39.140625 45 
Q 35.0625 48.390625 27.6875 48.390625 
Q 23 48.390625 18.546875 47.265625 
Q 14.109375 46.140625 10.015625 43.890625 
L 10.015625 52.203125 
Q 14.9375 54.109375 19.578125 55.046875 
Q 24.21875 56 28.609375 56 
Q 40.484375 56 46.34375 49.84375 
Q 52.203125 43.703125 52.203125 31.203125 
z
" id="DejaVuSans-97"/>
       <path d="M 18.109375 8.203125 
L 18.109375 -20.796875 
L 9.078125 -20.796875 
L 9.078125 54.6875 
L 18.109375 54.6875 
L 18.109375 46.390625 
Q 20.953125 51.265625 25.265625 53.625 
Q 29.59375 56 35.59375 56 
Q 45.5625 56 51.78125 48.09375 
Q 58.015625 40.1875 58.015625 27.296875 
Q 58.015625 14.40625 51.78125 6.484375 
Q 45.5625 -1.421875 35.59375 -1.421875 
Q 29.59375 -1.421875 25.265625 0.953125 
Q 20.953125 3.328125 18.109375 8.203125 
z
M 48.6875 27.296875 
Q 48.6875 37.203125 44.609375 42.84375 
Q 40.53125 48.484375 33.40625 48.484375 
Q 26.265625 48.484375 22.1875 42.84375 
Q 18.109375 37.203125 18.109375 27.296875 
Q 18.109375 17.390625 22.1875 11.75 
Q 26.265625 6.109375 33.40625 6.109375 
Q 40.53125 6.109375 44.609375 11.75 
Q 48.6875 17.390625 48.6875 27.296875 
z
" id="DejaVuSans-112"/>
      </defs>
      <use xlink:href="#DejaVuSans-116"/>
      <use x="39.208984" xlink:href="#DejaVuSans-105"/>
      <use x="66.992188" xlink:href="#DejaVuSans-109"/>
      <use x="164.404297" xlink:href="#DejaVuSans-101"/>
      <use x="225.927734" xlink:href="#DejaVuSans-115"/>
      <use x="278.027344" xlink:href="#DejaVuSans-116"/>
      <use x="317.236328" xlink:href="#DejaVuSans-97"/>
      <use x="378.515625" xlink:href="#DejaVuSans-109"/>
      <use x="475.927734" xlink:href="#DejaVuSans-112"/>
     </g>
    </g>
   </g>
   <g id="matplotlib.axis_2">
    <g id="ytick_1">
     <g id="line2d_22">
      <defs>
       <path d="M 0 0 
L -3.5 0 
" id="m3864c9d250" style="stroke:#000000;stroke-width:0.8;"/>
      </defs>
      <g>
       <use style="stroke:#000000;stroke-width:0.8;" x="108" xlink:href="#m3864c9d250" y="367.558469"/>
      </g>
     </g>
     <g id="text_23">
      <!-- 13200 -->
      <g transform="translate(69.1875 371.357688)scale(0.1 -0.1)">
       <use xlink:href="#DejaVuSans-49"/>
       <use x="63.623047" xlink:href="#DejaVuSans-51"/>
       <use x="127.246094" xlink:href="#DejaVuSans-50"/>
       <use x="190.869141" xlink:href="#DejaVuSans-48"/>
       <use x="254.492188" xlink:href="#DejaVuSans-48"/>
      </g>
     </g>
    </g>
    <g id="ytick_2">
     <g id="line2d_23">
      <g>
       <use style="stroke:#000000;stroke-width:0.8;" x="108" xlink:href="#m3864c9d250" y="284.416281"/>
      </g>
     </g>
     <g id="text_24">
      <!-- 13400 -->
      <g transform="translate(69.1875 288.2155)scale(0.1 -0.1)">
       <use xlink:href="#DejaVuSans-49"/>
       <use x="63.623047" xlink:href="#DejaVuSans-51"/>
       <use x="127.246094" xlink:href="#DejaVuSans-52"/>
       <use x="190.869141" xlink:href="#DejaVuSans-48"/>
       <use x="254.492188" xlink:href="#DejaVuSans-48"/>
      </g>
     </g>
    </g>
    <g id="ytick_3">
     <g id="line2d_24">
      <g>
       <use style="stroke:#000000;stroke-width:0.8;" x="108" xlink:href="#m3864c9d250" y="201.274093"/>
      </g>
     </g>
     <g id="text_25">
      <!-- 13600 -->
      <g transform="translate(69.1875 205.073312)scale(0.1 -0.1)">
       <use xlink:href="#DejaVuSans-49"/>
       <use x="63.623047" xlink:href="#DejaVuSans-51"/>
       <use x="127.246094" xlink:href="#DejaVuSans-54"/>
       <use x="190.869141" xlink:href="#DejaVuSans-48"/>
       <use x="254.492188" xlink:href="#DejaVuSans-48"/>
      </g>
     </g>
    </g>
    <g id="ytick_4">
     <g id="line2d_25">
      <g>
       <use style="stroke:#000000;stroke-width:0.8;" x="108" xlink:href="#m3864c9d250" y="118.131905"/>
      </g>
     </g>
     <g id="text_26">
      <!-- 13800 -->
      <g transform="translate(69.1875 121.931124)scale(0.1 -0.1)">
       <use xlink:href="#DejaVuSans-49"/>
       <use x="63.623047" xlink:href="#DejaVuSans-51"/>
       <use x="127.246094" xlink:href="#DejaVuSans-56"/>
       <use x="190.869141" xlink:href="#DejaVuSans-48"/>
       <use x="254.492188" xlink:href="#DejaVuSans-48"/>
      </g>
     </g>
    </g>
    <g id="text_27">
     <!-- MB -->
     <g transform="translate(63.52375 260.715625)rotate(-90)scale(0.08 -0.08)">
      <defs>
       <path d="M 9.8125 72.90625 
L 24.515625 72.90625 
L 43.109375 23.296875 
L 61.8125 72.90625 
L 76.515625 72.90625 
L 76.515625 0 
L 66.890625 0 
L 66.890625 64.015625 
L 48.09375 14.015625 
L 38.1875 14.015625 
L 19.390625 64.015625 
L 19.390625 0 
L 9.8125 0 
z
" id="DejaVuSans-77"/>
       <path d="M 19.671875 34.8125 
L 19.671875 8.109375 
L 35.5 8.109375 
Q 43.453125 8.109375 47.28125 11.40625 
Q 51.125 14.703125 51.125 21.484375 
Q 51.125 28.328125 47.28125 31.5625 
Q 43.453125 34.8125 35.5 34.8125 
z
M 19.671875 64.796875 
L 19.671875 42.828125 
L 34.28125 42.828125 
Q 41.5 42.828125 45.03125 45.53125 
Q 48.578125 48.25 48.578125 53.8125 
Q 48.578125 59.328125 45.03125 62.0625 
Q 41.5 64.796875 34.28125 64.796875 
z
M 9.8125 72.90625 
L 35.015625 72.90625 
Q 46.296875 72.90625 52.390625 68.21875 
Q 58.5 63.53125 58.5 54.890625 
Q 58.5 48.1875 55.375 44.234375 
Q 52.25 40.28125 46.1875 39.3125 
Q 53.46875 37.75 57.5 32.78125 
Q 61.53125 27.828125 61.53125 20.40625 
Q 61.53125 10.640625 54.890625 5.3125 
Q 48.25 0 35.984375 0 
L 9.8125 0 
z
" id="DejaVuSans-66"/>
      </defs>
      <use xlink:href="#DejaVuSans-77"/>
      <use x="86.279297" xlink:href="#DejaVuSans-66"/>
     </g>
    </g>
   </g>
   <g id="line2d_26">
    <path clip-path="url(#p2d5059eb76)" d="M 132.349091 78.12 
L 132.868261 78.508227 
L 133.387432 80.919324 
L 133.906602 79.80913 
L 134.425772 80.079868 
L 134.944943 78.513336 
L 135.464113 80.742238 
L 135.983284 80.747346 
L 136.502454 80.633262 
L 137.021624 79.603097 
L 137.540795 80.451068 
L 138.059965 78.4912 
L 138.579135 78.416279 
L 139.098306 109.81162 
L 139.617476 118.163619 
L 140.136647 185.09199 
L 141.174987 255.791956 
L 141.694158 273.114052 
L 143.251669 375.093573 
L 143.770839 381.661087 
L 144.29001 392.063199 
L 144.80918 396.064666 
L 145.32835 395.501055 
L 145.847521 395.320564 
L 146.366691 393.575243 
L 146.885862 393.706355 
L 147.405032 395.470406 
L 147.924202 393.811925 
L 148.443373 393.743815 
L 148.962543 392.614891 
L 149.481714 394.164395 
L 150.000884 396.609547 
L 151.039225 393.731896 
L 151.558395 393.656975 
L 152.077565 393.043984 
L 152.596736 394.419808 
L 153.115906 394.045202 
L 153.635077 393.273856 
L 154.154247 391.571104 
L 154.673417 395.449973 
L 155.192588 395.492542 
L 155.711758 392.96736 
L 156.230928 393.089959 
L 156.750099 395.203074 
L 157.269269 395.967609 
L 157.78844 395.729224 
L 158.30761 393.222773 
L 158.82678 394.052013 
L 159.345951 396.744064 
L 159.865121 396.624872 
L 160.384292 394.441944 
L 160.903462 394.106502 
L 161.422632 395.209885 
L 161.941803 395.569166 
L 162.460973 393.442428 
L 162.980143 393.462861 
L 163.499314 392.144931 
L 164.018484 392.316909 
L 164.537655 392.35437 
L 165.056825 392.098957 
L 165.575995 392.260718 
L 166.095166 390.694187 
L 166.614336 394.840388 
L 167.133506 394.401078 
L 167.652677 394.562839 
L 168.171847 393.147852 
L 168.691018 392.846465 
L 169.210188 395.208182 
L 169.729358 394.431727 
L 170.248529 394.108204 
L 170.767699 393.398157 
L 171.28687 396.820688 
L 171.80604 395.848417 
L 172.32521 395.657709 
L 172.844381 394.731412 
L 173.363551 396.568681 
L 173.882721 394.56965 
L 174.401892 393.112094 
L 174.921062 392.88052 
L 175.440233 391.737973 
L 175.959403 394.756953 
L 176.478573 394.966391 
L 176.997744 394.743331 
L 177.516914 393.358993 
L 178.036085 393.943037 
L 178.555255 393.805114 
L 179.074425 393.919199 
L 179.593596 392.347559 
L 180.112766 391.688594 
L 181.151107 395.824578 
L 181.670277 395.753063 
L 182.189448 396.202589 
L 182.708618 393.575243 
L 183.227788 395.902905 
L 183.746959 394.7859 
L 184.266129 394.913606 
L 184.785299 392.710245 
L 185.82364 402.640695 
L 186.342811 400.878346 
L 186.861981 399.565524 
L 187.381151 399.728989 
L 187.900322 400.738721 
L 188.419492 402.189465 
L 188.938663 402.175843 
L 189.457833 397.506897 
L 189.977003 395.085584 
L 190.496174 395.146883 
L 191.015344 394.559434 
L 191.534514 393.639947 
L 192.053685 392.430994 
L 192.572855 393.965173 
L 193.092026 395.872255 
L 193.611196 395.75136 
L 194.130366 393.776168 
L 194.649537 393.881738 
L 195.168707 395.092395 
L 195.687877 393.650164 
L 196.207048 394.000931 
L 196.726218 392.570619 
L 197.245389 392.701731 
L 197.764559 396.340512 
L 198.283729 396.183859 
L 198.8029 394.877848 
L 199.32207 394.256344 
L 199.841241 396.732145 
L 200.360411 397.314486 
L 200.879581 397.241268 
L 201.398752 395.799037 
L 201.917922 393.90728 
L 202.437092 394.074149 
L 203.475433 393.880036 
L 203.994604 392.248799 
L 204.513774 394.465782 
L 205.032944 395.839903 
L 205.552115 395.594707 
L 206.071285 394.976608 
L 206.590456 393.774465 
L 207.109626 395.436351 
L 207.628796 393.813628 
L 208.147967 393.515647 
L 208.667137 392.158553 
L 209.186307 392.800491 
L 209.705478 396.755984 
L 210.743819 396.614655 
L 211.262989 395.555544 
L 211.782159 395.472109 
L 212.30133 394.624138 
L 212.8205 395.075367 
L 213.33967 394.915309 
L 213.858841 393.537782 
L 214.378011 397.924072 
L 214.897182 397.915558 
L 215.416352 397.154428 
L 216.454693 393.696138 
L 216.973863 395.61514 
L 217.493034 402.851836 
L 218.012204 402.146897 
L 218.531374 400.999242 
L 219.050545 403.093627 
L 219.569715 403.209414 
L 220.608056 399.89075 
L 221.127226 399.926508 
L 221.646397 403.876893 
L 222.165567 402.729238 
L 222.684737 402.116247 
L 223.203908 401.132056 
L 223.723078 400.903888 
L 224.242248 403.505693 
L 224.761419 403.297957 
L 225.280589 403.21963 
L 225.79976 401.961297 
L 226.31893 402.669641 
L 226.8381 402.669641 
L 227.357271 402.39039 
L 227.876441 400.808533 
L 228.395612 400.830669 
L 228.914782 403.585722 
L 229.433952 403.669157 
L 229.953123 401.367036 
L 230.472293 401.540717 
L 230.991463 404.23447 
L 231.510634 402.661128 
L 232.029804 402.260981 
L 232.548975 402.0873 
L 233.068145 400.377737 
L 233.587315 403.343931 
L 234.106486 403.641913 
L 234.625656 403.655535 
L 235.144827 401.620746 
L 235.663997 402.199682 
L 236.183167 403.909245 
L 236.702338 403.902434 
L 237.221508 402.666236 
L 237.740678 402.415931 
L 238.259849 404.629509 
L 238.779019 404.85938 
L 239.29819 404.280445 
L 239.81736 403.410339 
L 240.33653 404.071006 
L 240.855701 405.712459 
L 241.374871 404.362177 
L 241.894041 404.547777 
L 242.413212 403.343931 
L 242.932382 405.016034 
L 243.451553 405.240797 
L 244.489893 404.345149 
L 245.009064 403.35585 
L 245.528234 405.017736 
L 246.047405 405.099469 
L 246.566575 403.137898 
L 247.085745 402.40912 
L 247.604916 403.812188 
L 248.124086 405.806111 
L 249.162427 405.712459 
L 249.681597 403.873487 
L 250.200768 403.813891 
L 250.719938 403.950111 
L 251.239108 402.773509 
L 251.758279 403.340526 
L 252.277449 402.327388 
L 252.796619 405.807813 
L 253.31579 405.833355 
L 253.83496 405.37872 
L 254.354131 403.245172 
L 254.873301 404.806595 
L 255.911642 404.609076 
L 256.430812 403.827513 
L 257.469153 410.350756 
L 257.988323 409.93869 
L 258.507494 405.346368 
L 259.026664 403.800269 
L 259.545834 404.672078 
L 260.065005 406.98782 
L 260.584175 404.455828 
L 261.103346 403.136195 
L 261.622516 408.271696 
L 262.141686 411.777662 
L 262.660857 412.128429 
L 263.180027 408.079285 
L 263.699198 406.531483 
L 264.218368 406.051307 
L 264.737538 407.091688 
L 265.256709 404.810001 
L 265.775879 404.973465 
L 266.295049 403.183873 
L 266.81422 403.820702 
L 267.33339 404.997303 
L 267.852561 404.60567 
L 268.371731 403.340526 
L 268.890901 403.761105 
L 269.410072 407.423725 
L 269.929242 406.233501 
L 270.967583 402.230331 
L 271.486753 401.028188 
L 272.005924 404.449017 
L 272.525094 404.374096 
L 273.044264 402.485744 
L 273.563435 401.986838 
L 274.082605 402.766698 
L 274.601776 402.564071 
L 275.120946 402.691777 
L 275.640116 401.540717 
L 276.159287 401.663315 
L 276.678457 397.561385 
L 277.197627 397.697606 
L 277.716798 397.646523 
L 278.235968 402.955704 
L 278.755139 405.523454 
L 279.274309 407.17342 
L 280.31265 402.62537 
L 280.83182 402.419337 
L 281.350991 407.057633 
L 281.870161 407.193853 
L 282.389331 406.567241 
L 282.908502 406.907791 
L 283.427672 405.683512 
L 283.946842 409.339321 
L 284.985183 409.40062 
L 285.504354 406.725597 
L 286.023524 407.377751 
L 286.542694 409.228642 
L 287.061865 409.441486 
L 287.581035 407.702976 
L 288.100205 407.994147 
L 288.619376 409.85866 
L 289.138546 410.030638 
L 289.657717 407.871549 
L 290.176887 406.512753 
L 290.696057 407.270477 
L 291.215228 409.589626 
L 291.734398 409.530029 
L 292.253569 409.300158 
L 292.772739 408.622462 
L 293.291909 410.553383 
L 293.81108 410.720253 
L 294.33025 410.665765 
L 294.84942 409.688385 
L 295.368591 409.390404 
L 295.887761 410.486976 
L 296.926102 410.589141 
L 297.445272 408.816576 
L 297.964443 411.876422 
L 299.002783 410.945016 
L 299.521954 409.341024 
L 300.041124 409.945501 
L 300.560295 411.440517 
L 301.079465 410.257104 
L 301.598635 409.519813 
L 302.117806 409.448297 
L 302.636976 410.595952 
L 303.156147 412.528576 
L 303.675317 412.516656 
L 304.713658 410.267321 
L 305.232828 411.941126 
L 305.751998 412.123321 
L 306.271169 412.123321 
L 306.790339 409.724143 
L 307.30951 409.625383 
L 307.82868 412.279974 
L 308.34785 411.486491 
L 308.867021 409.671358 
L 309.386191 409.329105 
L 309.905362 410.822418 
L 310.943702 409.298455 
L 311.462873 409.596437 
L 311.982043 408.479431 
L 312.501213 410.350756 
L 313.020384 410.221347 
L 313.539554 410.340539 
L 314.577895 408.802954 
L 315.097065 410.090235 
L 315.616236 409.589626 
L 316.135406 410.062991 
L 316.654576 408.72633 
L 317.173747 411.096561 
L 318.212088 411.13913 
L 318.731258 409.647519 
L 319.250428 410.263915 
L 319.769599 411.614198 
L 320.288769 411.641442 
L 320.80794 409.358051 
L 321.32711 409.327402 
L 321.84628 412.094374 
L 322.365451 412.279974 
L 322.884621 412.273163 
L 323.403791 411.876422 
L 323.922962 411.273647 
L 324.442132 416.322307 
L 324.961303 413.511063 
L 325.480473 417.154953 
L 325.999643 417.371202 
L 326.518814 417.381419 
L 327.037984 417.262226 
L 327.557154 412.77888 
L 328.076325 412.571144 
L 328.595495 411.360488 
L 329.114666 413.921427 
L 329.633836 413.112619 
L 330.153006 412.969588 
L 330.672177 411.934315 
L 331.191347 411.755526 
L 331.710518 413.776693 
L 332.229688 412.818043 
L 332.748858 411.462653 
L 333.268029 409.584517 
L 333.787199 414.9567 
L 334.306369 415.646314 
L 334.82554 413.96059 
L 335.34471 412.722689 
L 335.863881 412.59328 
L 336.383051 413.379952 
L 336.902221 413.230109 
L 337.421392 412.397464 
L 337.940562 412.128429 
L 338.459733 413.832884 
L 338.978903 411.4916 
L 339.498073 410.837743 
L 340.017244 410.567005 
L 340.536414 409.022609 
L 341.055584 413.073456 
L 341.574755 413.21819 
L 342.093925 412.923614 
L 342.613096 410.657251 
L 343.132266 410.728767 
L 343.651436 412.417897 
L 344.170607 412.262946 
L 344.689777 408.963013 
L 345.208947 409.06007 
L 346.247288 413.303328 
L 346.766459 412.731203 
L 347.285629 411.622711 
L 347.804799 412.1727 
L 348.32397 413.005346 
L 348.84314 412.86572 
L 349.362311 413.058131 
L 349.881481 411.34346 
L 350.400651 410.76793 
L 350.919822 414.081485 
L 351.438992 413.599607 
L 352.477333 411.300891 
L 352.996503 410.757713 
L 353.515674 412.647768 
L 354.034844 412.453654 
L 354.554014 411.88153 
L 355.073185 411.093156 
L 355.592355 413.425926 
L 356.111525 413.017265 
L 357.149866 410.442704 
L 357.669037 411.321324 
L 358.188207 413.001941 
L 358.707377 413.034293 
L 359.226548 412.744825 
L 359.745718 410.931394 
L 360.264889 414.091702 
L 361.8224 413.637067 
L 362.34157 412.046697 
L 362.86074 414.416928 
L 363.899081 414.101918 
L 364.418252 411.483086 
L 364.937422 413.337383 
L 365.456592 414.696179 
L 366.494933 412.87764 
L 367.014104 412.870829 
L 367.533274 414.864751 
L 368.052444 413.795423 
L 368.571615 413.342491 
L 369.090785 412.004128 
L 369.609955 411.922396 
L 370.129126 413.499144 
L 370.648296 413.136458 
L 371.167467 411.791284 
L 371.686637 411.859394 
L 372.205807 414.737045 
L 372.724978 420.822681 
L 373.244148 421.045741 
L 373.763318 420.933359 
L 374.282489 418.770864 
L 374.801659 418.508641 
L 375.32083 418.455855 
L 375.84 417.916083 
L 376.35917 416.211628 
L 376.878341 416.810997 
L 377.397511 420.594512 
L 377.916682 420.740948 
L 378.435852 419.583077 
L 378.955022 419.245932 
L 379.474193 420.48213 
L 379.993363 419.657998 
L 380.512533 419.48602 
L 381.031704 418.336663 
L 381.550874 418.874732 
L 382.070045 422.646328 
L 382.589215 420.95209 
L 383.108385 420.473616 
L 383.627556 419.324259 
L 384.146726 419.870842 
L 384.665896 422.050365 
L 385.185067 421.028714 
L 385.704237 420.972523 
L 386.223408 419.123334 
L 386.742578 423.458541 
L 387.261748 420.541726 
L 387.780919 420.677947 
L 388.300089 418.946248 
L 388.81926 417.69132 
L 389.33843 421.287532 
L 389.8576 421.081499 
L 390.376771 419.470695 
L 390.895941 418.847488 
L 391.934282 421.888603 
L 392.453452 421.284126 
L 392.972623 420.291422 
L 393.491793 419.668215 
L 394.010963 421.260288 
L 394.530134 420.175635 
L 395.049304 426.022885 
L 395.568475 426.334489 
L 396.087645 425.372434 
L 396.606815 427.230136 
L 397.125986 423.032853 
L 397.645156 423.712251 
L 398.164326 421.80006 
L 398.683497 421.318181 
L 399.202667 421.408427 
L 399.721838 427.694988 
L 400.760178 425.031884 
L 401.279349 427.72734 
L 401.798519 423.354673 
L 402.317689 422.407943 
L 403.35603 420.117741 
L 403.875201 421.32329 
L 404.394371 420.912926 
L 404.913541 420.933359 
L 405.432712 420.519591 
L 405.951882 423.180992 
L 406.471053 423.385322 
L 406.990223 422.702519 
L 407.509393 421.61446 
L 408.028564 421.507187 
L 408.547734 424.269051 
L 409.066904 422.741682 
L 409.586075 422.470945 
L 410.105245 419.80784 
L 410.624416 420.129661 
L 411.143586 422.322805 
L 411.662756 421.558269 
L 412.181927 421.466321 
L 412.701097 420.218204 
L 413.220267 421.54635 
L 413.739438 421.338614 
L 414.258608 420.650703 
L 414.777779 419.38045 
L 415.296949 420.436156 
L 415.816119 422.750196 
L 416.33529 421.91755 
L 416.85446 422.224045 
L 417.373631 420.139877 
L 417.892801 422.600354 
L 418.411971 423.25421 
L 418.931142 422.67868 
L 419.450312 420.950387 
L 419.969482 420.269286 
L 420.488653 423.392133 
L 421.007823 422.721249 
L 421.526994 422.724655 
L 422.046164 421.049147 
L 422.565334 419.996846 
L 423.084505 420.524699 
L 423.603675 419.593294 
L 424.122846 419.550725 
L 424.642016 418.801514 
L 425.161186 421.22453 
L 425.680357 421.188772 
L 426.199527 428.118973 
L 426.718697 427.242056 
L 427.237868 427.352735 
L 427.757038 429.035054 
L 428.276209 428.299465 
L 428.795379 426.828287 
L 429.314549 426.971318 
L 429.83372 429.440309 
L 430.35289 428.868184 
L 430.87206 428.864778 
L 431.391231 427.255678 
L 431.910401 426.12505 
L 432.429572 427.987861 
L 432.948742 428.09854 
L 433.467912 426.930452 
L 433.987083 424.55341 
L 434.506253 425.191942 
L 435.025424 427.334004 
L 435.544594 426.983237 
L 436.063764 427.070078 
L 436.582935 425.709579 
L 437.102105 429.540771 
L 437.621275 429.728074 
L 438.140446 429.711046 
L 438.659616 428.881806 
L 439.178787 426.555847 
L 439.697957 426.724419 
L 440.217127 426.317461 
L 440.736298 424.917799 
L 441.255468 425.127238 
L 441.774638 423.04988 
L 442.293809 426.10632 
L 442.812979 426.22381 
L 443.33215 425.905395 
L 443.85132 423.404053 
L 444.37049 426.591604 
L 444.889661 430.519853 
L 445.408831 430.92 
L 445.928002 430.819538 
L 446.447172 428.088323 
L 446.966342 428.745586 
L 447.485513 428.331817 
L 448.004683 427.49236 
L 448.523853 426.423032 
L 449.043024 427.626878 
L 450.081365 428.880103 
L 450.600535 426.698878 
L 451.119705 425.171509 
L 451.638876 426.113131 
L 452.158046 426.213593 
L 452.677217 425.881557 
L 453.196387 424.614709 
L 453.715557 423.916581 
L 454.234728 426.680147 
L 454.753898 426.467303 
L 455.792239 423.448324 
L 456.311409 425.4133 
L 456.83058 425.071047 
L 457.34975 423.633924 
L 457.86892 421.660435 
L 458.388091 422.350049 
L 458.907261 423.872309 
L 459.426431 423.528354 
L 459.945602 422.01631 
L 460.464772 422.200207 
L 460.983943 422.57311 
L 461.503113 422.634409 
L 462.022283 422.470945 
L 462.541454 420.887385 
L 463.060624 420.793734 
L 463.579795 426.419626 
L 464.098965 429.968162 
L 464.618135 429.940918 
L 465.137306 427.904426 
L 465.656476 424.221374 
L 466.175646 424.997829 
L 467.213987 423.790577 
L 467.733158 421.445888 
L 468.252328 424.514247 
L 468.771498 424.19413 
L 469.290669 424.127722 
L 469.809839 423.332537 
L 470.329009 422.980067 
L 470.84818 424.6709 
L 471.36735 424.333755 
L 471.886521 422.510108 
L 472.405691 422.544163 
L 472.924861 424.221374 
L 473.444032 421.817088 
L 473.963202 420.95209 
L 474.482373 420.449778 
L 475.001543 417.77816 
L 475.520713 421.873279 
L 476.039884 421.745572 
L 476.559054 420.742651 
L 477.078224 420.117741 
L 477.597395 419.031385 
L 478.116565 420.611539 
L 479.154906 420.8346 
L 479.674076 419.165903 
L 480.193247 420.991253 
L 480.712417 422.315994 
L 481.231588 422.333022 
L 481.750758 421.062769 
L 482.269928 420.553646 
L 482.789099 421.272207 
L 483.308269 421.723436 
L 483.827439 421.832413 
L 484.34661 419.853815 
L 484.86578 421.714923 
L 485.384951 422.847253 
L 485.904121 423.104368 
L 486.423291 420.0922 
L 486.942462 420.194365 
L 487.461632 421.476537 
L 487.980802 421.548053 
L 488.499973 420.378262 
L 489.019143 420.568971 
L 489.538314 419.39918 
L 490.057484 420.694974 
L 491.095825 420.621756 
L 491.614995 419.205066 
L 492.134166 418.95987 
L 492.653336 420.901007 
L 493.172506 420.538321 
L 493.691677 420.017279 
L 494.210847 418.40307 
L 494.730017 420.507671 
L 495.249188 420.579187 
L 495.768358 420.012171 
L 496.287529 417.975679 
L 496.806699 416.879107 
L 497.325869 419.25104 
L 497.84504 418.592075 
L 498.36421 417.127709 
L 498.883381 416.08903 
L 499.402551 418.432017 
L 499.921721 418.48991 
L 500.440892 418.922409 
L 501.479232 416.507907 
L 501.998403 420.764787 
L 503.036744 419.927033 
L 503.555914 417.52445 
L 504.075084 417.788376 
L 504.594255 420.623459 
L 505.113425 420.429345 
L 505.632595 417.810512 
L 506.151766 418.091466 
L 506.670936 418.071033 
L 507.190107 418.212362 
L 507.709277 417.801999 
L 508.228447 415.711019 
L 508.747618 414.985647 
L 509.266788 417.541477 
L 509.785959 418.074439 
L 510.824299 414.859643 
L 511.34347 417.137925 
L 511.86264 417.27074 
L 513.420151 415.642909 
L 513.939322 418.232795 
L 514.977662 415.390902 
L 515.496833 415.201896 
L 516.016003 415.447092 
L 516.535173 416.135004 
L 517.573514 416.349551 
L 518.092685 414.408414 
L 518.611855 419.487723 
L 519.131025 418.835569 
L 519.650196 418.622725 
L 520.169366 418.273661 
L 520.688537 417.269037 
L 521.207707 418.692538 
L 521.726877 418.680619 
L 522.246048 416.819511 
L 522.765218 415.739966 
L 523.284388 419.19485 
L 523.803559 418.786189 
L 524.322729 418.523965 
L 524.8419 417.519342 
L 525.36107 417.546586 
L 525.88024 418.125521 
L 526.399411 418.476288 
L 526.918581 417.968868 
L 527.437752 415.305764 
L 527.956922 416.451716 
L 528.476092 420.264178 
L 528.995263 418.767459 
L 530.033603 414.473118 
L 530.552774 413.604715 
L 531.071944 413.289706 
L 531.591115 412.041588 
L 532.110285 412.349787 
L 532.629455 410.662359 
L 533.148626 419.007547 
L 533.667796 417.854784 
L 534.186966 417.636832 
L 534.706137 416.220142 
L 535.225307 411.864502 
L 535.744478 414.347115 
L 536.263648 413.431034 
L 536.782818 412.816341 
L 537.821159 419.591591 
L 538.8595 419.853815 
L 539.37867 418.758945 
L 539.897841 413.849911 
L 540.417011 415.925566 
L 540.936181 414.983944 
L 541.455352 411.767445 
L 541.974522 410.442704 
L 542.493693 411.585251 
L 543.012863 409.737765 
L 543.532033 409.039637 
L 544.051204 409.107747 
L 544.570374 407.747248 
L 545.089544 412.455357 
L 546.127885 411.740201 
L 546.647056 410.973963 
L 547.166226 409.037934 
L 547.685396 411.552899 
L 548.723737 411.459247 
L 549.242908 410.493787 
L 549.762078 412.853801 
L 550.281248 413.182432 
L 550.800419 411.729985 
L 551.319589 411.123805 
L 551.838759 409.793956 
L 552.35793 410.963746 
L 552.8771 410.725361 
L 553.396271 410.762822 
L 553.915441 408.087798 
L 554.434611 407.823872 
L 554.953782 407.880063 
L 555.992123 408.545839 
L 556.511293 406.368019 
L 557.030463 408.012877 
L 557.549634 410.803688 
L 558.068804 409.620275 
L 558.587974 409.652627 
L 559.107145 408.353428 
L 559.626315 411.47968 
L 560.145486 410.549978 
L 560.664656 409.863769 
L 561.183826 408.981743 
L 561.702997 410.342242 
L 562.741337 409.000473 
L 563.260508 409.690088 
L 563.779678 408.530514 
L 564.298849 409.473838 
L 564.818019 417.432501 
L 565.337189 418.008032 
L 565.85636 414.922645 
L 566.37553 414.849427 
L 566.894701 416.05838 
L 567.413871 415.944296 
L 567.933041 413.279489 
L 568.452212 412.162484 
L 568.971382 412.664796 
L 569.490552 414.037214 
L 570.009723 413.541713 
L 570.528893 413.509361 
L 571.048064 412.383842 
L 571.567234 412.913397 
L 572.086404 412.278271 
L 572.605575 412.489412 
L 573.124745 411.44222 
L 573.643915 409.93869 
L 574.163086 414.777911 
L 575.720597 411.484789 
L 576.239767 411.605684 
L 576.758938 413.819262 
L 577.278108 412.869126 
L 577.797279 411.198726 
L 578.316449 410.188994 
L 578.835619 413.526388 
L 579.35479 414.105324 
L 579.87396 412.559225 
L 580.912301 410.188994 
L 581.431471 409.989772 
L 581.950642 409.92677 
L 582.469812 408.377266 
L 582.988982 408.687167 
L 583.508153 411.692524 
L 584.027323 411.723174 
L 584.546494 411.00291 
L 585.065664 409.077097 
L 585.584834 408.578191 
L 586.104005 410.301376 
L 586.623175 408.733141 
L 587.661516 404.741891 
L 588.180686 403.800269 
L 588.699857 405.475777 
L 589.219027 404.546074 
L 589.738197 404.437098 
L 590.257368 402.638992 
L 591.295708 402.688372 
L 591.814879 402.358038 
L 592.334049 401.321062 
L 592.85322 401.045216 
L 593.37239 402.126464 
L 593.89156 402.158816 
L 594.929901 399.90948 
L 595.449072 400.830669 
L 595.968242 402.988056 
L 596.487412 402.524907 
L 597.525753 400.357304 
L 598.044923 402.736049 
L 599.083264 403.216225 
L 599.602435 401.722911 
L 600.121605 401.823374 
L 600.640775 402.114544 
L 601.159946 401.816563 
L 601.679116 400.585473 
L 602.198286 400.738721 
L 602.717457 408.855739 
L 603.236627 410.069802 
L 603.755798 408.889794 
L 604.274968 408.746763 
L 604.794138 403.476746 
L 605.313309 402.816078 
L 605.832479 402.988056 
L 606.87082 399.357789 
L 607.38999 399.087051 
L 607.909161 399.783477 
L 608.428331 398.87591 
L 608.947501 398.317407 
L 609.466672 396.817283 
L 609.985842 398.96275 
L 610.505013 399.385033 
L 611.024183 399.3646 
L 611.543353 398.377004 
L 612.062524 398.119888 
L 612.581694 402.904621 
L 613.100865 403.13279 
L 613.620035 402.320577 
L 614.139205 402.082192 
L 614.658376 399.826046 
L 615.177546 399.465062 
L 615.696716 397.702714 
L 616.215887 397.871286 
L 616.735057 396.079991 
L 617.254228 400.685935 
L 617.773398 398.559198 
L 618.292568 411.042073 
L 619.330909 420.642189 
L 619.330909 420.642189 
" style="fill:none;stroke:#1f77b4;stroke-linecap:square;stroke-width:1.5;"/>
   </g>
   <g id="patch_3">
    <path d="M 108 448.56 
L 108 60.48 
" style="fill:none;stroke:#000000;stroke-linecap:square;stroke-linejoin:miter;stroke-width:0.8;"/>
   </g>
   <g id="patch_4">
    <path d="M 643.68 448.56 
L 643.68 60.48 
" style="fill:none;stroke:#000000;stroke-linecap:square;stroke-linejoin:miter;stroke-width:0.8;"/>
   </g>
   <g id="patch_5">
    <path d="M 108 448.56 
L 643.68 448.56 
" style="fill:none;stroke:#000000;stroke-linecap:square;stroke-linejoin:miter;stroke-width:0.8;"/>
   </g>
   <g id="patch_6">
    <path d="M 108 60.48 
L 643.68 60.48 
" style="fill:none;stroke:#000000;stroke-linecap:square;stroke-linejoin:miter;stroke-width:0.8;"/>
   </g>
   <g id="text_28">
    <!-- unikernel_dce-allocpool - free -->
    <g transform="translate(265.448203 54.48)scale(0.15 -0.15)">
     <defs>
      <path d="M 8.5 21.578125 
L 8.5 54.6875 
L 17.484375 54.6875 
L 17.484375 21.921875 
Q 17.484375 14.15625 20.5 10.265625 
Q 23.53125 6.390625 29.59375 6.390625 
Q 36.859375 6.390625 41.078125 11.03125 
Q 45.3125 15.671875 45.3125 23.6875 
L 45.3125 54.6875 
L 54.296875 54.6875 
L 54.296875 0 
L 45.3125 0 
L 45.3125 8.40625 
Q 42.046875 3.421875 37.71875 1 
Q 33.40625 -1.421875 27.6875 -1.421875 
Q 18.265625 -1.421875 13.375 4.4375 
Q 8.5 10.296875 8.5 21.578125 
z
M 31.109375 56 
z
" id="DejaVuSans-117"/>
      <path d="M 54.890625 33.015625 
L 54.890625 0 
L 45.90625 0 
L 45.90625 32.71875 
Q 45.90625 40.484375 42.875 44.328125 
Q 39.84375 48.1875 33.796875 48.1875 
Q 26.515625 48.1875 22.3125 43.546875 
Q 18.109375 38.921875 18.109375 30.90625 
L 18.109375 0 
L 9.078125 0 
L 9.078125 54.6875 
L 18.109375 54.6875 
L 18.109375 46.1875 
Q 21.34375 51.125 25.703125 53.5625 
Q 30.078125 56 35.796875 56 
Q 45.21875 56 50.046875 50.171875 
Q 54.890625 44.34375 54.890625 33.015625 
z
" id="DejaVuSans-110"/>
      <path d="M 9.078125 75.984375 
L 18.109375 75.984375 
L 18.109375 31.109375 
L 44.921875 54.6875 
L 56.390625 54.6875 
L 27.390625 29.109375 
L 57.625 0 
L 45.90625 0 
L 18.109375 26.703125 
L 18.109375 0 
L 9.078125 0 
z
" id="DejaVuSans-107"/>
      <path d="M 41.109375 46.296875 
Q 39.59375 47.171875 37.8125 47.578125 
Q 36.03125 48 33.890625 48 
Q 26.265625 48 22.1875 43.046875 
Q 18.109375 38.09375 18.109375 28.8125 
L 18.109375 0 
L 9.078125 0 
L 9.078125 54.6875 
L 18.109375 54.6875 
L 18.109375 46.1875 
Q 20.953125 51.171875 25.484375 53.578125 
Q 30.03125 56 36.53125 56 
Q 37.453125 56 38.578125 55.875 
Q 39.703125 55.765625 41.0625 55.515625 
z
" id="DejaVuSans-114"/>
      <path d="M 9.421875 75.984375 
L 18.40625 75.984375 
L 18.40625 0 
L 9.421875 0 
z
" id="DejaVuSans-108"/>
      <path d="M 50.984375 -16.609375 
L 50.984375 -23.578125 
L -0.984375 -23.578125 
L -0.984375 -16.609375 
z
" id="DejaVuSans-95"/>
      <path d="M 45.40625 46.390625 
L 45.40625 75.984375 
L 54.390625 75.984375 
L 54.390625 0 
L 45.40625 0 
L 45.40625 8.203125 
Q 42.578125 3.328125 38.25 0.953125 
Q 33.9375 -1.421875 27.875 -1.421875 
Q 17.96875 -1.421875 11.734375 6.484375 
Q 5.515625 14.40625 5.515625 27.296875 
Q 5.515625 40.1875 11.734375 48.09375 
Q 17.96875 56 27.875 56 
Q 33.9375 56 38.25 53.625 
Q 42.578125 51.265625 45.40625 46.390625 
z
M 14.796875 27.296875 
Q 14.796875 17.390625 18.875 11.75 
Q 22.953125 6.109375 30.078125 6.109375 
Q 37.203125 6.109375 41.296875 11.75 
Q 45.40625 17.390625 45.40625 27.296875 
Q 45.40625 37.203125 41.296875 42.84375 
Q 37.203125 48.484375 30.078125 48.484375 
Q 22.953125 48.484375 18.875 42.84375 
Q 14.796875 37.203125 14.796875 27.296875 
z
" id="DejaVuSans-100"/>
      <path d="M 48.78125 52.59375 
L 48.78125 44.1875 
Q 44.96875 46.296875 41.140625 47.34375 
Q 37.3125 48.390625 33.40625 48.390625 
Q 24.65625 48.390625 19.8125 42.84375 
Q 14.984375 37.3125 14.984375 27.296875 
Q 14.984375 17.28125 19.8125 11.734375 
Q 24.65625 6.203125 33.40625 6.203125 
Q 37.3125 6.203125 41.140625 7.25 
Q 44.96875 8.296875 48.78125 10.40625 
L 48.78125 2.09375 
Q 45.015625 0.34375 40.984375 -0.53125 
Q 36.96875 -1.421875 32.421875 -1.421875 
Q 20.0625 -1.421875 12.78125 6.34375 
Q 5.515625 14.109375 5.515625 27.296875 
Q 5.515625 40.671875 12.859375 48.328125 
Q 20.21875 56 33.015625 56 
Q 37.15625 56 41.109375 55.140625 
Q 45.0625 54.296875 48.78125 52.59375 
z
" id="DejaVuSans-99"/>
      <path d="M 4.890625 31.390625 
L 31.203125 31.390625 
L 31.203125 23.390625 
L 4.890625 23.390625 
z
" id="DejaVuSans-45"/>
      <path d="M 30.609375 48.390625 
Q 23.390625 48.390625 19.1875 42.75 
Q 14.984375 37.109375 14.984375 27.296875 
Q 14.984375 17.484375 19.15625 11.84375 
Q 23.34375 6.203125 30.609375 6.203125 
Q 37.796875 6.203125 41.984375 11.859375 
Q 46.1875 17.53125 46.1875 27.296875 
Q 46.1875 37.015625 41.984375 42.703125 
Q 37.796875 48.390625 30.609375 48.390625 
z
M 30.609375 56 
Q 42.328125 56 49.015625 48.375 
Q 55.71875 40.765625 55.71875 27.296875 
Q 55.71875 13.875 49.015625 6.21875 
Q 42.328125 -1.421875 30.609375 -1.421875 
Q 18.84375 -1.421875 12.171875 6.21875 
Q 5.515625 13.875 5.515625 27.296875 
Q 5.515625 40.765625 12.171875 48.375 
Q 18.84375 56 30.609375 56 
z
" id="DejaVuSans-111"/>
      <path id="DejaVuSans-32"/>
      <path d="M 37.109375 75.984375 
L 37.109375 68.5 
L 28.515625 68.5 
Q 23.6875 68.5 21.796875 66.546875 
Q 19.921875 64.59375 19.921875 59.515625 
L 19.921875 54.6875 
L 34.71875 54.6875 
L 34.71875 47.703125 
L 19.921875 47.703125 
L 19.921875 0 
L 10.890625 0 
L 10.890625 47.703125 
L 2.296875 47.703125 
L 2.296875 54.6875 
L 10.890625 54.6875 
L 10.890625 58.5 
Q 10.890625 67.625 15.140625 71.796875 
Q 19.390625 75.984375 28.609375 75.984375 
z
" id="DejaVuSans-102"/>
     </defs>
     <use xlink:href="#DejaVuSans-117"/>
     <use x="63.378906" xlink:href="#DejaVuSans-110"/>
     <use x="126.757812" xlink:href="#DejaVuSans-105"/>
     <use x="154.541016" xlink:href="#DejaVuSans-107"/>
     <use x="208.826172" xlink:href="#DejaVuSans-101"/>
     <use x="270.349609" xlink:href="#DejaVuSans-114"/>
     <use x="309.712891" xlink:href="#DejaVuSans-110"/>
     <use x="373.091797" xlink:href="#DejaVuSans-101"/>
     <use x="434.615234" xlink:href="#DejaVuSans-108"/>
     <use x="462.398438" xlink:href="#DejaVuSans-95"/>
     <use x="512.398438" xlink:href="#DejaVuSans-100"/>
     <use x="575.875" xlink:href="#DejaVuSans-99"/>
     <use x="630.855469" xlink:href="#DejaVuSans-101"/>
     <use x="692.378906" xlink:href="#DejaVuSans-45"/>
     <use x="728.462891" xlink:href="#DejaVuSans-97"/>
     <use x="789.742188" xlink:href="#DejaVuSans-108"/>
     <use x="817.525391" xlink:href="#DejaVuSans-108"/>
     <use x="845.308594" xlink:href="#DejaVuSans-111"/>
     <use x="906.490234" xlink:href="#DejaVuSans-99"/>
     <use x="961.470703" xlink:href="#DejaVuSans-112"/>
     <use x="1024.947266" xlink:href="#DejaVuSans-111"/>
     <use x="1086.128906" xlink:href="#DejaVuSans-111"/>
     <use x="1147.310547" xlink:href="#DejaVuSans-108"/>
     <use x="1175.09375" xlink:href="#DejaVuSans-32"/>
     <use x="1206.880859" xlink:href="#DejaVuSans-45"/>
     <use x="1242.964844" xlink:href="#DejaVuSans-32"/>
     <use x="1274.751953" xlink:href="#DejaVuSans-102"/>
     <use x="1309.957031" xlink:href="#DejaVuSans-114"/>
     <use x="1348.820312" xlink:href="#DejaVuSans-101"/>
     <use x="1410.34375" xlink:href="#DejaVuSans-101"/>
    </g>
   </g>
   <g id="legend_1">
    <g id="patch_7">
     <path d="M 650.68 258.52 
L 654.68 258.52 
Q 656.68 258.52 656.68 256.52 
L 656.68 252.52 
Q 656.68 250.52 654.68 250.52 
L 650.68 250.52 
Q 648.68 250.52 648.68 252.52 
L 648.68 256.52 
Q 648.68 258.52 650.68 258.52 
z
" style="fill:#ffffff;opacity:0.8;stroke:#cccccc;stroke-linejoin:miter;"/>
    </g>
   </g>
  </g>
 </g>
 <defs>
  <clipPath id="p2d5059eb76">
   <rect height="388.08" width="535.68" x="108" y="60.48"/>
  </clipPath>
 </defs>
</svg>
