<?xml version="1.0" encoding="utf-8" standalone="no"?>
<!DOCTYPE svg PUBLIC "-//W3C//DTD SVG 1.1//EN"
  "http://www.w3.org/Graphics/SVG/1.1/DTD/svg11.dtd">
<!-- Created with matplotlib (https://matplotlib.org/) -->
<svg height="504pt" version="1.1" viewBox="0 0 864 504" width="864pt" xmlns="http://www.w3.org/2000/svg" xmlns:xlink="http://www.w3.org/1999/xlink">
 <metadata>
  <rdf:RDF xmlns:cc="http://creativecommons.org/ns#" xmlns:dc="http://purl.org/dc/elements/1.1/" xmlns:rdf="http://www.w3.org/1999/02/22-rdf-syntax-ns#">
   <cc:Work>
    <dc:type rdf:resource="http://purl.org/dc/dcmitype/StillImage"/>
    <dc:date>2022-05-29T17:27:28.115734</dc:date>
    <dc:format>image/svg+xml</dc:format>
    <dc:creator>
     <cc:Agent>
      <dc:title>Matplotlib v3.3.4, https://matplotlib.org/</dc:title>
     </cc:Agent>
    </dc:creator>
   </cc:Work>
  </rdf:RDF>
 </metadata>
 <defs>
  <style type="text/css">*{stroke-linecap:butt;stroke-linejoin:round;}</style>
 </defs>
 <g id="figure_1">
  <g id="patch_1">
   <path d="M 0 504 
L 864 504 
L 864 0 
L 0 0 
z
" style="fill:#ffffff;"/>
  </g>
  <g id="axes_1">
   <g id="patch_2">
    <path d="M 108 448.56 
L 643.68 448.56 
L 643.68 60.48 
L 108 60.48 
z
" style="fill:#ffffff;"/>
   </g>
   <g id="matplotlib.axis_1">
    <g id="xtick_1">
     <g id="line2d_1">
      <defs>
       <path d="M 0 0 
L 0 3.5 
" id="m79cde2ff97" style="stroke:#000000;stroke-width:0.8;"/>
      </defs>
      <g>
       <use style="stroke:#000000;stroke-width:0.8;" x="132.349091" xlink:href="#m79cde2ff97" y="448.56"/>
      </g>
     </g>
     <g id="text_1">
      <!-- 00:12:56 -->
      <g transform="translate(135.108466 500.4725)rotate(-90)scale(0.1 -0.1)">
       <defs>
        <path d="M 31.78125 66.40625 
Q 24.171875 66.40625 20.328125 58.90625 
Q 16.5 51.421875 16.5 36.375 
Q 16.5 21.390625 20.328125 13.890625 
Q 24.171875 6.390625 31.78125 6.390625 
Q 39.453125 6.390625 43.28125 13.890625 
Q 47.125 21.390625 47.125 36.375 
Q 47.125 51.421875 43.28125 58.90625 
Q 39.453125 66.40625 31.78125 66.40625 
z
M 31.78125 74.21875 
Q 44.046875 74.21875 50.515625 64.515625 
Q 56.984375 54.828125 56.984375 36.375 
Q 56.984375 17.96875 50.515625 8.265625 
Q 44.046875 -1.421875 31.78125 -1.421875 
Q 19.53125 -1.421875 13.0625 8.265625 
Q 6.59375 17.96875 6.59375 36.375 
Q 6.59375 54.828125 13.0625 64.515625 
Q 19.53125 74.21875 31.78125 74.21875 
z
" id="DejaVuSans-48"/>
        <path d="M 11.71875 12.40625 
L 22.015625 12.40625 
L 22.015625 0 
L 11.71875 0 
z
M 11.71875 51.703125 
L 22.015625 51.703125 
L 22.015625 39.3125 
L 11.71875 39.3125 
z
" id="DejaVuSans-58"/>
        <path d="M 12.40625 8.296875 
L 28.515625 8.296875 
L 28.515625 63.921875 
L 10.984375 60.40625 
L 10.984375 69.390625 
L 28.421875 72.90625 
L 38.28125 72.90625 
L 38.28125 8.296875 
L 54.390625 8.296875 
L 54.390625 0 
L 12.40625 0 
z
" id="DejaVuSans-49"/>
        <path d="M 19.1875 8.296875 
L 53.609375 8.296875 
L 53.609375 0 
L 7.328125 0 
L 7.328125 8.296875 
Q 12.9375 14.109375 22.625 23.890625 
Q 32.328125 33.6875 34.8125 36.53125 
Q 39.546875 41.84375 41.421875 45.53125 
Q 43.3125 49.21875 43.3125 52.78125 
Q 43.3125 58.59375 39.234375 62.25 
Q 35.15625 65.921875 28.609375 65.921875 
Q 23.96875 65.921875 18.8125 64.3125 
Q 13.671875 62.703125 7.8125 59.421875 
L 7.8125 69.390625 
Q 13.765625 71.78125 18.9375 73 
Q 24.125 74.21875 28.421875 74.21875 
Q 39.75 74.21875 46.484375 68.546875 
Q 53.21875 62.890625 53.21875 53.421875 
Q 53.21875 48.921875 51.53125 44.890625 
Q 49.859375 40.875 45.40625 35.40625 
Q 44.1875 33.984375 37.640625 27.21875 
Q 31.109375 20.453125 19.1875 8.296875 
z
" id="DejaVuSans-50"/>
        <path d="M 10.796875 72.90625 
L 49.515625 72.90625 
L 49.515625 64.59375 
L 19.828125 64.59375 
L 19.828125 46.734375 
Q 21.96875 47.46875 24.109375 47.828125 
Q 26.265625 48.1875 28.421875 48.1875 
Q 40.625 48.1875 47.75 41.5 
Q 54.890625 34.8125 54.890625 23.390625 
Q 54.890625 11.625 47.5625 5.09375 
Q 40.234375 -1.421875 26.90625 -1.421875 
Q 22.3125 -1.421875 17.546875 -0.640625 
Q 12.796875 0.140625 7.71875 1.703125 
L 7.71875 11.625 
Q 12.109375 9.234375 16.796875 8.0625 
Q 21.484375 6.890625 26.703125 6.890625 
Q 35.15625 6.890625 40.078125 11.328125 
Q 45.015625 15.765625 45.015625 23.390625 
Q 45.015625 31 40.078125 35.4375 
Q 35.15625 39.890625 26.703125 39.890625 
Q 22.75 39.890625 18.8125 39.015625 
Q 14.890625 38.140625 10.796875 36.28125 
z
" id="DejaVuSans-53"/>
        <path d="M 33.015625 40.375 
Q 26.375 40.375 22.484375 35.828125 
Q 18.609375 31.296875 18.609375 23.390625 
Q 18.609375 15.53125 22.484375 10.953125 
Q 26.375 6.390625 33.015625 6.390625 
Q 39.65625 6.390625 43.53125 10.953125 
Q 47.40625 15.53125 47.40625 23.390625 
Q 47.40625 31.296875 43.53125 35.828125 
Q 39.65625 40.375 33.015625 40.375 
z
M 52.59375 71.296875 
L 52.59375 62.3125 
Q 48.875 64.0625 45.09375 64.984375 
Q 41.3125 65.921875 37.59375 65.921875 
Q 27.828125 65.921875 22.671875 59.328125 
Q 17.53125 52.734375 16.796875 39.40625 
Q 19.671875 43.65625 24.015625 45.921875 
Q 28.375 48.1875 33.59375 48.1875 
Q 44.578125 48.1875 50.953125 41.515625 
Q 57.328125 34.859375 57.328125 23.390625 
Q 57.328125 12.15625 50.6875 5.359375 
Q 44.046875 -1.421875 33.015625 -1.421875 
Q 20.359375 -1.421875 13.671875 8.265625 
Q 6.984375 17.96875 6.984375 36.375 
Q 6.984375 53.65625 15.1875 63.9375 
Q 23.390625 74.21875 37.203125 74.21875 
Q 40.921875 74.21875 44.703125 73.484375 
Q 48.484375 72.75 52.59375 71.296875 
z
" id="DejaVuSans-54"/>
       </defs>
       <use xlink:href="#DejaVuSans-48"/>
       <use x="63.623047" xlink:href="#DejaVuSans-48"/>
       <use x="127.246094" xlink:href="#DejaVuSans-58"/>
       <use x="160.9375" xlink:href="#DejaVuSans-49"/>
       <use x="224.560547" xlink:href="#DejaVuSans-50"/>
       <use x="288.183594" xlink:href="#DejaVuSans-58"/>
       <use x="321.875" xlink:href="#DejaVuSans-53"/>
       <use x="385.498047" xlink:href="#DejaVuSans-54"/>
      </g>
     </g>
    </g>
    <g id="xtick_2">
     <g id="line2d_2">
      <g>
       <use style="stroke:#000000;stroke-width:0.8;" x="156.476603" xlink:href="#m79cde2ff97" y="448.56"/>
      </g>
     </g>
     <g id="text_2">
      <!-- 00:13:47 -->
      <g transform="translate(159.235978 500.4725)rotate(-90)scale(0.1 -0.1)">
       <defs>
        <path d="M 40.578125 39.3125 
Q 47.65625 37.796875 51.625 33 
Q 55.609375 28.21875 55.609375 21.1875 
Q 55.609375 10.40625 48.1875 4.484375 
Q 40.765625 -1.421875 27.09375 -1.421875 
Q 22.515625 -1.421875 17.65625 -0.515625 
Q 12.796875 0.390625 7.625 2.203125 
L 7.625 11.71875 
Q 11.71875 9.328125 16.59375 8.109375 
Q 21.484375 6.890625 26.8125 6.890625 
Q 36.078125 6.890625 40.9375 10.546875 
Q 45.796875 14.203125 45.796875 21.1875 
Q 45.796875 27.640625 41.28125 31.265625 
Q 36.765625 34.90625 28.71875 34.90625 
L 20.21875 34.90625 
L 20.21875 43.015625 
L 29.109375 43.015625 
Q 36.375 43.015625 40.234375 45.921875 
Q 44.09375 48.828125 44.09375 54.296875 
Q 44.09375 59.90625 40.109375 62.90625 
Q 36.140625 65.921875 28.71875 65.921875 
Q 24.65625 65.921875 20.015625 65.03125 
Q 15.375 64.15625 9.8125 62.3125 
L 9.8125 71.09375 
Q 15.4375 72.65625 20.34375 73.4375 
Q 25.25 74.21875 29.59375 74.21875 
Q 40.828125 74.21875 47.359375 69.109375 
Q 53.90625 64.015625 53.90625 55.328125 
Q 53.90625 49.265625 50.4375 45.09375 
Q 46.96875 40.921875 40.578125 39.3125 
z
" id="DejaVuSans-51"/>
        <path d="M 37.796875 64.3125 
L 12.890625 25.390625 
L 37.796875 25.390625 
z
M 35.203125 72.90625 
L 47.609375 72.90625 
L 47.609375 25.390625 
L 58.015625 25.390625 
L 58.015625 17.1875 
L 47.609375 17.1875 
L 47.609375 0 
L 37.796875 0 
L 37.796875 17.1875 
L 4.890625 17.1875 
L 4.890625 26.703125 
z
" id="DejaVuSans-52"/>
        <path d="M 8.203125 72.90625 
L 55.078125 72.90625 
L 55.078125 68.703125 
L 28.609375 0 
L 18.3125 0 
L 43.21875 64.59375 
L 8.203125 64.59375 
z
" id="DejaVuSans-55"/>
       </defs>
       <use xlink:href="#DejaVuSans-48"/>
       <use x="63.623047" xlink:href="#DejaVuSans-48"/>
       <use x="127.246094" xlink:href="#DejaVuSans-58"/>
       <use x="160.9375" xlink:href="#DejaVuSans-49"/>
       <use x="224.560547" xlink:href="#DejaVuSans-51"/>
       <use x="288.183594" xlink:href="#DejaVuSans-58"/>
       <use x="321.875" xlink:href="#DejaVuSans-52"/>
       <use x="385.498047" xlink:href="#DejaVuSans-55"/>
      </g>
     </g>
    </g>
    <g id="xtick_3">
     <g id="line2d_3">
      <g>
       <use style="stroke:#000000;stroke-width:0.8;" x="180.604114" xlink:href="#m79cde2ff97" y="448.56"/>
      </g>
     </g>
     <g id="text_3">
      <!-- 00:14:39 -->
      <g transform="translate(183.363489 500.4725)rotate(-90)scale(0.1 -0.1)">
       <defs>
        <path d="M 10.984375 1.515625 
L 10.984375 10.5 
Q 14.703125 8.734375 18.5 7.8125 
Q 22.3125 6.890625 25.984375 6.890625 
Q 35.75 6.890625 40.890625 13.453125 
Q 46.046875 20.015625 46.78125 33.40625 
Q 43.953125 29.203125 39.59375 26.953125 
Q 35.25 24.703125 29.984375 24.703125 
Q 19.046875 24.703125 12.671875 31.3125 
Q 6.296875 37.9375 6.296875 49.421875 
Q 6.296875 60.640625 12.9375 67.421875 
Q 19.578125 74.21875 30.609375 74.21875 
Q 43.265625 74.21875 49.921875 64.515625 
Q 56.59375 54.828125 56.59375 36.375 
Q 56.59375 19.140625 48.40625 8.859375 
Q 40.234375 -1.421875 26.421875 -1.421875 
Q 22.703125 -1.421875 18.890625 -0.6875 
Q 15.09375 0.046875 10.984375 1.515625 
z
M 30.609375 32.421875 
Q 37.25 32.421875 41.125 36.953125 
Q 45.015625 41.5 45.015625 49.421875 
Q 45.015625 57.28125 41.125 61.84375 
Q 37.25 66.40625 30.609375 66.40625 
Q 23.96875 66.40625 20.09375 61.84375 
Q 16.21875 57.28125 16.21875 49.421875 
Q 16.21875 41.5 20.09375 36.953125 
Q 23.96875 32.421875 30.609375 32.421875 
z
" id="DejaVuSans-57"/>
       </defs>
       <use xlink:href="#DejaVuSans-48"/>
       <use x="63.623047" xlink:href="#DejaVuSans-48"/>
       <use x="127.246094" xlink:href="#DejaVuSans-58"/>
       <use x="160.9375" xlink:href="#DejaVuSans-49"/>
       <use x="224.560547" xlink:href="#DejaVuSans-52"/>
       <use x="288.183594" xlink:href="#DejaVuSans-58"/>
       <use x="321.875" xlink:href="#DejaVuSans-51"/>
       <use x="385.498047" xlink:href="#DejaVuSans-57"/>
      </g>
     </g>
    </g>
    <g id="xtick_4">
     <g id="line2d_4">
      <g>
       <use style="stroke:#000000;stroke-width:0.8;" x="204.731626" xlink:href="#m79cde2ff97" y="448.56"/>
      </g>
     </g>
     <g id="text_4">
      <!-- 00:15:30 -->
      <g transform="translate(207.491001 500.4725)rotate(-90)scale(0.1 -0.1)">
       <use xlink:href="#DejaVuSans-48"/>
       <use x="63.623047" xlink:href="#DejaVuSans-48"/>
       <use x="127.246094" xlink:href="#DejaVuSans-58"/>
       <use x="160.9375" xlink:href="#DejaVuSans-49"/>
       <use x="224.560547" xlink:href="#DejaVuSans-53"/>
       <use x="288.183594" xlink:href="#DejaVuSans-58"/>
       <use x="321.875" xlink:href="#DejaVuSans-51"/>
       <use x="385.498047" xlink:href="#DejaVuSans-48"/>
      </g>
     </g>
    </g>
    <g id="xtick_5">
     <g id="line2d_5">
      <g>
       <use style="stroke:#000000;stroke-width:0.8;" x="228.859138" xlink:href="#m79cde2ff97" y="448.56"/>
      </g>
     </g>
     <g id="text_5">
      <!-- 00:16:22 -->
      <g transform="translate(231.618513 500.4725)rotate(-90)scale(0.1 -0.1)">
       <use xlink:href="#DejaVuSans-48"/>
       <use x="63.623047" xlink:href="#DejaVuSans-48"/>
       <use x="127.246094" xlink:href="#DejaVuSans-58"/>
       <use x="160.9375" xlink:href="#DejaVuSans-49"/>
       <use x="224.560547" xlink:href="#DejaVuSans-54"/>
       <use x="288.183594" xlink:href="#DejaVuSans-58"/>
       <use x="321.875" xlink:href="#DejaVuSans-50"/>
       <use x="385.498047" xlink:href="#DejaVuSans-50"/>
      </g>
     </g>
    </g>
    <g id="xtick_6">
     <g id="line2d_6">
      <g>
       <use style="stroke:#000000;stroke-width:0.8;" x="252.98665" xlink:href="#m79cde2ff97" y="448.56"/>
      </g>
     </g>
     <g id="text_6">
      <!-- 00:17:13 -->
      <g transform="translate(255.746025 500.4725)rotate(-90)scale(0.1 -0.1)">
       <use xlink:href="#DejaVuSans-48"/>
       <use x="63.623047" xlink:href="#DejaVuSans-48"/>
       <use x="127.246094" xlink:href="#DejaVuSans-58"/>
       <use x="160.9375" xlink:href="#DejaVuSans-49"/>
       <use x="224.560547" xlink:href="#DejaVuSans-55"/>
       <use x="288.183594" xlink:href="#DejaVuSans-58"/>
       <use x="321.875" xlink:href="#DejaVuSans-49"/>
       <use x="385.498047" xlink:href="#DejaVuSans-51"/>
      </g>
     </g>
    </g>
    <g id="xtick_7">
     <g id="line2d_7">
      <g>
       <use style="stroke:#000000;stroke-width:0.8;" x="277.114161" xlink:href="#m79cde2ff97" y="448.56"/>
      </g>
     </g>
     <g id="text_7">
      <!-- 00:18:05 -->
      <g transform="translate(279.873536 500.4725)rotate(-90)scale(0.1 -0.1)">
       <defs>
        <path d="M 31.78125 34.625 
Q 24.75 34.625 20.71875 30.859375 
Q 16.703125 27.09375 16.703125 20.515625 
Q 16.703125 13.921875 20.71875 10.15625 
Q 24.75 6.390625 31.78125 6.390625 
Q 38.8125 6.390625 42.859375 10.171875 
Q 46.921875 13.96875 46.921875 20.515625 
Q 46.921875 27.09375 42.890625 30.859375 
Q 38.875 34.625 31.78125 34.625 
z
M 21.921875 38.8125 
Q 15.578125 40.375 12.03125 44.71875 
Q 8.5 49.078125 8.5 55.328125 
Q 8.5 64.0625 14.71875 69.140625 
Q 20.953125 74.21875 31.78125 74.21875 
Q 42.671875 74.21875 48.875 69.140625 
Q 55.078125 64.0625 55.078125 55.328125 
Q 55.078125 49.078125 51.53125 44.71875 
Q 48 40.375 41.703125 38.8125 
Q 48.828125 37.15625 52.796875 32.3125 
Q 56.78125 27.484375 56.78125 20.515625 
Q 56.78125 9.90625 50.3125 4.234375 
Q 43.84375 -1.421875 31.78125 -1.421875 
Q 19.734375 -1.421875 13.25 4.234375 
Q 6.78125 9.90625 6.78125 20.515625 
Q 6.78125 27.484375 10.78125 32.3125 
Q 14.796875 37.15625 21.921875 38.8125 
z
M 18.3125 54.390625 
Q 18.3125 48.734375 21.84375 45.5625 
Q 25.390625 42.390625 31.78125 42.390625 
Q 38.140625 42.390625 41.71875 45.5625 
Q 45.3125 48.734375 45.3125 54.390625 
Q 45.3125 60.0625 41.71875 63.234375 
Q 38.140625 66.40625 31.78125 66.40625 
Q 25.390625 66.40625 21.84375 63.234375 
Q 18.3125 60.0625 18.3125 54.390625 
z
" id="DejaVuSans-56"/>
       </defs>
       <use xlink:href="#DejaVuSans-48"/>
       <use x="63.623047" xlink:href="#DejaVuSans-48"/>
       <use x="127.246094" xlink:href="#DejaVuSans-58"/>
       <use x="160.9375" xlink:href="#DejaVuSans-49"/>
       <use x="224.560547" xlink:href="#DejaVuSans-56"/>
       <use x="288.183594" xlink:href="#DejaVuSans-58"/>
       <use x="321.875" xlink:href="#DejaVuSans-48"/>
       <use x="385.498047" xlink:href="#DejaVuSans-53"/>
      </g>
     </g>
    </g>
    <g id="xtick_8">
     <g id="line2d_8">
      <g>
       <use style="stroke:#000000;stroke-width:0.8;" x="301.241673" xlink:href="#m79cde2ff97" y="448.56"/>
      </g>
     </g>
     <g id="text_8">
      <!-- 00:18:57 -->
      <g transform="translate(304.001048 500.4725)rotate(-90)scale(0.1 -0.1)">
       <use xlink:href="#DejaVuSans-48"/>
       <use x="63.623047" xlink:href="#DejaVuSans-48"/>
       <use x="127.246094" xlink:href="#DejaVuSans-58"/>
       <use x="160.9375" xlink:href="#DejaVuSans-49"/>
       <use x="224.560547" xlink:href="#DejaVuSans-56"/>
       <use x="288.183594" xlink:href="#DejaVuSans-58"/>
       <use x="321.875" xlink:href="#DejaVuSans-53"/>
       <use x="385.498047" xlink:href="#DejaVuSans-55"/>
      </g>
     </g>
    </g>
    <g id="xtick_9">
     <g id="line2d_9">
      <g>
       <use style="stroke:#000000;stroke-width:0.8;" x="325.369185" xlink:href="#m79cde2ff97" y="448.56"/>
      </g>
     </g>
     <g id="text_9">
      <!-- 00:19:48 -->
      <g transform="translate(328.12856 500.4725)rotate(-90)scale(0.1 -0.1)">
       <use xlink:href="#DejaVuSans-48"/>
       <use x="63.623047" xlink:href="#DejaVuSans-48"/>
       <use x="127.246094" xlink:href="#DejaVuSans-58"/>
       <use x="160.9375" xlink:href="#DejaVuSans-49"/>
       <use x="224.560547" xlink:href="#DejaVuSans-57"/>
       <use x="288.183594" xlink:href="#DejaVuSans-58"/>
       <use x="321.875" xlink:href="#DejaVuSans-52"/>
       <use x="385.498047" xlink:href="#DejaVuSans-56"/>
      </g>
     </g>
    </g>
    <g id="xtick_10">
     <g id="line2d_10">
      <g>
       <use style="stroke:#000000;stroke-width:0.8;" x="349.496696" xlink:href="#m79cde2ff97" y="448.56"/>
      </g>
     </g>
     <g id="text_10">
      <!-- 00:20:40 -->
      <g transform="translate(352.256071 500.4725)rotate(-90)scale(0.1 -0.1)">
       <use xlink:href="#DejaVuSans-48"/>
       <use x="63.623047" xlink:href="#DejaVuSans-48"/>
       <use x="127.246094" xlink:href="#DejaVuSans-58"/>
       <use x="160.9375" xlink:href="#DejaVuSans-50"/>
       <use x="224.560547" xlink:href="#DejaVuSans-48"/>
       <use x="288.183594" xlink:href="#DejaVuSans-58"/>
       <use x="321.875" xlink:href="#DejaVuSans-52"/>
       <use x="385.498047" xlink:href="#DejaVuSans-48"/>
      </g>
     </g>
    </g>
    <g id="xtick_11">
     <g id="line2d_11">
      <g>
       <use style="stroke:#000000;stroke-width:0.8;" x="373.624208" xlink:href="#m79cde2ff97" y="448.56"/>
      </g>
     </g>
     <g id="text_11">
      <!-- 00:21:32 -->
      <g transform="translate(376.383583 500.4725)rotate(-90)scale(0.1 -0.1)">
       <use xlink:href="#DejaVuSans-48"/>
       <use x="63.623047" xlink:href="#DejaVuSans-48"/>
       <use x="127.246094" xlink:href="#DejaVuSans-58"/>
       <use x="160.9375" xlink:href="#DejaVuSans-50"/>
       <use x="224.560547" xlink:href="#DejaVuSans-49"/>
       <use x="288.183594" xlink:href="#DejaVuSans-58"/>
       <use x="321.875" xlink:href="#DejaVuSans-51"/>
       <use x="385.498047" xlink:href="#DejaVuSans-50"/>
      </g>
     </g>
    </g>
    <g id="xtick_12">
     <g id="line2d_12">
      <g>
       <use style="stroke:#000000;stroke-width:0.8;" x="397.75172" xlink:href="#m79cde2ff97" y="448.56"/>
      </g>
     </g>
     <g id="text_12">
      <!-- 00:22:23 -->
      <g transform="translate(400.511095 500.4725)rotate(-90)scale(0.1 -0.1)">
       <use xlink:href="#DejaVuSans-48"/>
       <use x="63.623047" xlink:href="#DejaVuSans-48"/>
       <use x="127.246094" xlink:href="#DejaVuSans-58"/>
       <use x="160.9375" xlink:href="#DejaVuSans-50"/>
       <use x="224.560547" xlink:href="#DejaVuSans-50"/>
       <use x="288.183594" xlink:href="#DejaVuSans-58"/>
       <use x="321.875" xlink:href="#DejaVuSans-50"/>
       <use x="385.498047" xlink:href="#DejaVuSans-51"/>
      </g>
     </g>
    </g>
    <g id="xtick_13">
     <g id="line2d_13">
      <g>
       <use style="stroke:#000000;stroke-width:0.8;" x="421.879232" xlink:href="#m79cde2ff97" y="448.56"/>
      </g>
     </g>
     <g id="text_13">
      <!-- 00:23:15 -->
      <g transform="translate(424.638607 500.4725)rotate(-90)scale(0.1 -0.1)">
       <use xlink:href="#DejaVuSans-48"/>
       <use x="63.623047" xlink:href="#DejaVuSans-48"/>
       <use x="127.246094" xlink:href="#DejaVuSans-58"/>
       <use x="160.9375" xlink:href="#DejaVuSans-50"/>
       <use x="224.560547" xlink:href="#DejaVuSans-51"/>
       <use x="288.183594" xlink:href="#DejaVuSans-58"/>
       <use x="321.875" xlink:href="#DejaVuSans-49"/>
       <use x="385.498047" xlink:href="#DejaVuSans-53"/>
      </g>
     </g>
    </g>
    <g id="xtick_14">
     <g id="line2d_14">
      <g>
       <use style="stroke:#000000;stroke-width:0.8;" x="446.006743" xlink:href="#m79cde2ff97" y="448.56"/>
      </g>
     </g>
     <g id="text_14">
      <!-- 00:24:06 -->
      <g transform="translate(448.766118 500.4725)rotate(-90)scale(0.1 -0.1)">
       <use xlink:href="#DejaVuSans-48"/>
       <use x="63.623047" xlink:href="#DejaVuSans-48"/>
       <use x="127.246094" xlink:href="#DejaVuSans-58"/>
       <use x="160.9375" xlink:href="#DejaVuSans-50"/>
       <use x="224.560547" xlink:href="#DejaVuSans-52"/>
       <use x="288.183594" xlink:href="#DejaVuSans-58"/>
       <use x="321.875" xlink:href="#DejaVuSans-48"/>
       <use x="385.498047" xlink:href="#DejaVuSans-54"/>
      </g>
     </g>
    </g>
    <g id="xtick_15">
     <g id="line2d_15">
      <g>
       <use style="stroke:#000000;stroke-width:0.8;" x="470.134255" xlink:href="#m79cde2ff97" y="448.56"/>
      </g>
     </g>
     <g id="text_15">
      <!-- 00:24:58 -->
      <g transform="translate(472.89363 500.4725)rotate(-90)scale(0.1 -0.1)">
       <use xlink:href="#DejaVuSans-48"/>
       <use x="63.623047" xlink:href="#DejaVuSans-48"/>
       <use x="127.246094" xlink:href="#DejaVuSans-58"/>
       <use x="160.9375" xlink:href="#DejaVuSans-50"/>
       <use x="224.560547" xlink:href="#DejaVuSans-52"/>
       <use x="288.183594" xlink:href="#DejaVuSans-58"/>
       <use x="321.875" xlink:href="#DejaVuSans-53"/>
       <use x="385.498047" xlink:href="#DejaVuSans-56"/>
      </g>
     </g>
    </g>
    <g id="xtick_16">
     <g id="line2d_16">
      <g>
       <use style="stroke:#000000;stroke-width:0.8;" x="494.261767" xlink:href="#m79cde2ff97" y="448.56"/>
      </g>
     </g>
     <g id="text_16">
      <!-- 00:25:50 -->
      <g transform="translate(497.021142 500.4725)rotate(-90)scale(0.1 -0.1)">
       <use xlink:href="#DejaVuSans-48"/>
       <use x="63.623047" xlink:href="#DejaVuSans-48"/>
       <use x="127.246094" xlink:href="#DejaVuSans-58"/>
       <use x="160.9375" xlink:href="#DejaVuSans-50"/>
       <use x="224.560547" xlink:href="#DejaVuSans-53"/>
       <use x="288.183594" xlink:href="#DejaVuSans-58"/>
       <use x="321.875" xlink:href="#DejaVuSans-53"/>
       <use x="385.498047" xlink:href="#DejaVuSans-48"/>
      </g>
     </g>
    </g>
    <g id="xtick_17">
     <g id="line2d_17">
      <g>
       <use style="stroke:#000000;stroke-width:0.8;" x="518.389278" xlink:href="#m79cde2ff97" y="448.56"/>
      </g>
     </g>
     <g id="text_17">
      <!-- 00:26:41 -->
      <g transform="translate(521.148653 500.4725)rotate(-90)scale(0.1 -0.1)">
       <use xlink:href="#DejaVuSans-48"/>
       <use x="63.623047" xlink:href="#DejaVuSans-48"/>
       <use x="127.246094" xlink:href="#DejaVuSans-58"/>
       <use x="160.9375" xlink:href="#DejaVuSans-50"/>
       <use x="224.560547" xlink:href="#DejaVuSans-54"/>
       <use x="288.183594" xlink:href="#DejaVuSans-58"/>
       <use x="321.875" xlink:href="#DejaVuSans-52"/>
       <use x="385.498047" xlink:href="#DejaVuSans-49"/>
      </g>
     </g>
    </g>
    <g id="xtick_18">
     <g id="line2d_18">
      <g>
       <use style="stroke:#000000;stroke-width:0.8;" x="542.51679" xlink:href="#m79cde2ff97" y="448.56"/>
      </g>
     </g>
     <g id="text_18">
      <!-- 00:27:33 -->
      <g transform="translate(545.276165 500.4725)rotate(-90)scale(0.1 -0.1)">
       <use xlink:href="#DejaVuSans-48"/>
       <use x="63.623047" xlink:href="#DejaVuSans-48"/>
       <use x="127.246094" xlink:href="#DejaVuSans-58"/>
       <use x="160.9375" xlink:href="#DejaVuSans-50"/>
       <use x="224.560547" xlink:href="#DejaVuSans-55"/>
       <use x="288.183594" xlink:href="#DejaVuSans-58"/>
       <use x="321.875" xlink:href="#DejaVuSans-51"/>
       <use x="385.498047" xlink:href="#DejaVuSans-51"/>
      </g>
     </g>
    </g>
    <g id="xtick_19">
     <g id="line2d_19">
      <g>
       <use style="stroke:#000000;stroke-width:0.8;" x="566.644302" xlink:href="#m79cde2ff97" y="448.56"/>
      </g>
     </g>
     <g id="text_19">
      <!-- 00:28:25 -->
      <g transform="translate(569.403677 500.4725)rotate(-90)scale(0.1 -0.1)">
       <use xlink:href="#DejaVuSans-48"/>
       <use x="63.623047" xlink:href="#DejaVuSans-48"/>
       <use x="127.246094" xlink:href="#DejaVuSans-58"/>
       <use x="160.9375" xlink:href="#DejaVuSans-50"/>
       <use x="224.560547" xlink:href="#DejaVuSans-56"/>
       <use x="288.183594" xlink:href="#DejaVuSans-58"/>
       <use x="321.875" xlink:href="#DejaVuSans-50"/>
       <use x="385.498047" xlink:href="#DejaVuSans-53"/>
      </g>
     </g>
    </g>
    <g id="xtick_20">
     <g id="line2d_20">
      <g>
       <use style="stroke:#000000;stroke-width:0.8;" x="590.771814" xlink:href="#m79cde2ff97" y="448.56"/>
      </g>
     </g>
     <g id="text_20">
      <!-- 00:29:16 -->
      <g transform="translate(593.531189 500.4725)rotate(-90)scale(0.1 -0.1)">
       <use xlink:href="#DejaVuSans-48"/>
       <use x="63.623047" xlink:href="#DejaVuSans-48"/>
       <use x="127.246094" xlink:href="#DejaVuSans-58"/>
       <use x="160.9375" xlink:href="#DejaVuSans-50"/>
       <use x="224.560547" xlink:href="#DejaVuSans-57"/>
       <use x="288.183594" xlink:href="#DejaVuSans-58"/>
       <use x="321.875" xlink:href="#DejaVuSans-49"/>
       <use x="385.498047" xlink:href="#DejaVuSans-54"/>
      </g>
     </g>
    </g>
    <g id="xtick_21">
     <g id="line2d_21">
      <g>
       <use style="stroke:#000000;stroke-width:0.8;" x="614.899325" xlink:href="#m79cde2ff97" y="448.56"/>
      </g>
     </g>
     <g id="text_21">
      <!-- 00:30:08 -->
      <g transform="translate(617.6587 500.4725)rotate(-90)scale(0.1 -0.1)">
       <use xlink:href="#DejaVuSans-48"/>
       <use x="63.623047" xlink:href="#DejaVuSans-48"/>
       <use x="127.246094" xlink:href="#DejaVuSans-58"/>
       <use x="160.9375" xlink:href="#DejaVuSans-51"/>
       <use x="224.560547" xlink:href="#DejaVuSans-48"/>
       <use x="288.183594" xlink:href="#DejaVuSans-58"/>
       <use x="321.875" xlink:href="#DejaVuSans-48"/>
       <use x="385.498047" xlink:href="#DejaVuSans-56"/>
      </g>
     </g>
    </g>
    <g id="text_22">
     <!-- timestamp -->
     <g transform="translate(354.264375 510.55125)scale(0.08 -0.08)">
      <defs>
       <path d="M 18.3125 70.21875 
L 18.3125 54.6875 
L 36.8125 54.6875 
L 36.8125 47.703125 
L 18.3125 47.703125 
L 18.3125 18.015625 
Q 18.3125 11.328125 20.140625 9.421875 
Q 21.96875 7.515625 27.59375 7.515625 
L 36.8125 7.515625 
L 36.8125 0 
L 27.59375 0 
Q 17.1875 0 13.234375 3.875 
Q 9.28125 7.765625 9.28125 18.015625 
L 9.28125 47.703125 
L 2.6875 47.703125 
L 2.6875 54.6875 
L 9.28125 54.6875 
L 9.28125 70.21875 
z
" id="DejaVuSans-116"/>
       <path d="M 9.421875 54.6875 
L 18.40625 54.6875 
L 18.40625 0 
L 9.421875 0 
z
M 9.421875 75.984375 
L 18.40625 75.984375 
L 18.40625 64.59375 
L 9.421875 64.59375 
z
" id="DejaVuSans-105"/>
       <path d="M 52 44.1875 
Q 55.375 50.25 60.0625 53.125 
Q 64.75 56 71.09375 56 
Q 79.640625 56 84.28125 50.015625 
Q 88.921875 44.046875 88.921875 33.015625 
L 88.921875 0 
L 79.890625 0 
L 79.890625 32.71875 
Q 79.890625 40.578125 77.09375 44.375 
Q 74.3125 48.1875 68.609375 48.1875 
Q 61.625 48.1875 57.5625 43.546875 
Q 53.515625 38.921875 53.515625 30.90625 
L 53.515625 0 
L 44.484375 0 
L 44.484375 32.71875 
Q 44.484375 40.625 41.703125 44.40625 
Q 38.921875 48.1875 33.109375 48.1875 
Q 26.21875 48.1875 22.15625 43.53125 
Q 18.109375 38.875 18.109375 30.90625 
L 18.109375 0 
L 9.078125 0 
L 9.078125 54.6875 
L 18.109375 54.6875 
L 18.109375 46.1875 
Q 21.1875 51.21875 25.484375 53.609375 
Q 29.78125 56 35.6875 56 
Q 41.65625 56 45.828125 52.96875 
Q 50 49.953125 52 44.1875 
z
" id="DejaVuSans-109"/>
       <path d="M 56.203125 29.59375 
L 56.203125 25.203125 
L 14.890625 25.203125 
Q 15.484375 15.921875 20.484375 11.0625 
Q 25.484375 6.203125 34.421875 6.203125 
Q 39.59375 6.203125 44.453125 7.46875 
Q 49.3125 8.734375 54.109375 11.28125 
L 54.109375 2.78125 
Q 49.265625 0.734375 44.1875 -0.34375 
Q 39.109375 -1.421875 33.890625 -1.421875 
Q 20.796875 -1.421875 13.15625 6.1875 
Q 5.515625 13.8125 5.515625 26.8125 
Q 5.515625 40.234375 12.765625 48.109375 
Q 20.015625 56 32.328125 56 
Q 43.359375 56 49.78125 48.890625 
Q 56.203125 41.796875 56.203125 29.59375 
z
M 47.21875 32.234375 
Q 47.125 39.59375 43.09375 43.984375 
Q 39.0625 48.390625 32.421875 48.390625 
Q 24.90625 48.390625 20.390625 44.140625 
Q 15.875 39.890625 15.1875 32.171875 
z
" id="DejaVuSans-101"/>
       <path d="M 44.28125 53.078125 
L 44.28125 44.578125 
Q 40.484375 46.53125 36.375 47.5 
Q 32.28125 48.484375 27.875 48.484375 
Q 21.1875 48.484375 17.84375 46.4375 
Q 14.5 44.390625 14.5 40.28125 
Q 14.5 37.15625 16.890625 35.375 
Q 19.28125 33.59375 26.515625 31.984375 
L 29.59375 31.296875 
Q 39.15625 29.25 43.1875 25.515625 
Q 47.21875 21.78125 47.21875 15.09375 
Q 47.21875 7.46875 41.1875 3.015625 
Q 35.15625 -1.421875 24.609375 -1.421875 
Q 20.21875 -1.421875 15.453125 -0.5625 
Q 10.6875 0.296875 5.421875 2 
L 5.421875 11.28125 
Q 10.40625 8.6875 15.234375 7.390625 
Q 20.0625 6.109375 24.8125 6.109375 
Q 31.15625 6.109375 34.5625 8.28125 
Q 37.984375 10.453125 37.984375 14.40625 
Q 37.984375 18.0625 35.515625 20.015625 
Q 33.0625 21.96875 24.703125 23.78125 
L 21.578125 24.515625 
Q 13.234375 26.265625 9.515625 29.90625 
Q 5.8125 33.546875 5.8125 39.890625 
Q 5.8125 47.609375 11.28125 51.796875 
Q 16.75 56 26.8125 56 
Q 31.78125 56 36.171875 55.265625 
Q 40.578125 54.546875 44.28125 53.078125 
z
" id="DejaVuSans-115"/>
       <path d="M 34.28125 27.484375 
Q 23.390625 27.484375 19.1875 25 
Q 14.984375 22.515625 14.984375 16.5 
Q 14.984375 11.71875 18.140625 8.90625 
Q 21.296875 6.109375 26.703125 6.109375 
Q 34.1875 6.109375 38.703125 11.40625 
Q 43.21875 16.703125 43.21875 25.484375 
L 43.21875 27.484375 
z
M 52.203125 31.203125 
L 52.203125 0 
L 43.21875 0 
L 43.21875 8.296875 
Q 40.140625 3.328125 35.546875 0.953125 
Q 30.953125 -1.421875 24.3125 -1.421875 
Q 15.921875 -1.421875 10.953125 3.296875 
Q 6 8.015625 6 15.921875 
Q 6 25.140625 12.171875 29.828125 
Q 18.359375 34.515625 30.609375 34.515625 
L 43.21875 34.515625 
L 43.21875 35.40625 
Q 43.21875 41.609375 39.140625 45 
Q 35.0625 48.390625 27.6875 48.390625 
Q 23 48.390625 18.546875 47.265625 
Q 14.109375 46.140625 10.015625 43.890625 
L 10.015625 52.203125 
Q 14.9375 54.109375 19.578125 55.046875 
Q 24.21875 56 28.609375 56 
Q 40.484375 56 46.34375 49.84375 
Q 52.203125 43.703125 52.203125 31.203125 
z
" id="DejaVuSans-97"/>
       <path d="M 18.109375 8.203125 
L 18.109375 -20.796875 
L 9.078125 -20.796875 
L 9.078125 54.6875 
L 18.109375 54.6875 
L 18.109375 46.390625 
Q 20.953125 51.265625 25.265625 53.625 
Q 29.59375 56 35.59375 56 
Q 45.5625 56 51.78125 48.09375 
Q 58.015625 40.1875 58.015625 27.296875 
Q 58.015625 14.40625 51.78125 6.484375 
Q 45.5625 -1.421875 35.59375 -1.421875 
Q 29.59375 -1.421875 25.265625 0.953125 
Q 20.953125 3.328125 18.109375 8.203125 
z
M 48.6875 27.296875 
Q 48.6875 37.203125 44.609375 42.84375 
Q 40.53125 48.484375 33.40625 48.484375 
Q 26.265625 48.484375 22.1875 42.84375 
Q 18.109375 37.203125 18.109375 27.296875 
Q 18.109375 17.390625 22.1875 11.75 
Q 26.265625 6.109375 33.40625 6.109375 
Q 40.53125 6.109375 44.609375 11.75 
Q 48.6875 17.390625 48.6875 27.296875 
z
" id="DejaVuSans-112"/>
      </defs>
      <use xlink:href="#DejaVuSans-116"/>
      <use x="39.208984" xlink:href="#DejaVuSans-105"/>
      <use x="66.992188" xlink:href="#DejaVuSans-109"/>
      <use x="164.404297" xlink:href="#DejaVuSans-101"/>
      <use x="225.927734" xlink:href="#DejaVuSans-115"/>
      <use x="278.027344" xlink:href="#DejaVuSans-116"/>
      <use x="317.236328" xlink:href="#DejaVuSans-97"/>
      <use x="378.515625" xlink:href="#DejaVuSans-109"/>
      <use x="475.927734" xlink:href="#DejaVuSans-112"/>
     </g>
    </g>
   </g>
   <g id="matplotlib.axis_2">
    <g id="ytick_1">
     <g id="line2d_22">
      <defs>
       <path d="M 0 0 
L -3.5 0 
" id="m6c1ffe9dc4" style="stroke:#000000;stroke-width:0.8;"/>
      </defs>
      <g>
       <use style="stroke:#000000;stroke-width:0.8;" x="108" xlink:href="#m6c1ffe9dc4" y="387.276833"/>
      </g>
     </g>
     <g id="text_23">
      <!-- 14590 -->
      <g transform="translate(69.1875 391.076051)scale(0.1 -0.1)">
       <use xlink:href="#DejaVuSans-49"/>
       <use x="63.623047" xlink:href="#DejaVuSans-52"/>
       <use x="127.246094" xlink:href="#DejaVuSans-53"/>
       <use x="190.869141" xlink:href="#DejaVuSans-57"/>
       <use x="254.492188" xlink:href="#DejaVuSans-48"/>
      </g>
     </g>
    </g>
    <g id="ytick_2">
     <g id="line2d_23">
      <g>
       <use style="stroke:#000000;stroke-width:0.8;" x="108" xlink:href="#m6c1ffe9dc4" y="324.552676"/>
      </g>
     </g>
     <g id="text_24">
      <!-- 14600 -->
      <g transform="translate(69.1875 328.351894)scale(0.1 -0.1)">
       <use xlink:href="#DejaVuSans-49"/>
       <use x="63.623047" xlink:href="#DejaVuSans-52"/>
       <use x="127.246094" xlink:href="#DejaVuSans-54"/>
       <use x="190.869141" xlink:href="#DejaVuSans-48"/>
       <use x="254.492188" xlink:href="#DejaVuSans-48"/>
      </g>
     </g>
    </g>
    <g id="ytick_3">
     <g id="line2d_24">
      <g>
       <use style="stroke:#000000;stroke-width:0.8;" x="108" xlink:href="#m6c1ffe9dc4" y="261.828518"/>
      </g>
     </g>
     <g id="text_25">
      <!-- 14610 -->
      <g transform="translate(69.1875 265.627737)scale(0.1 -0.1)">
       <use xlink:href="#DejaVuSans-49"/>
       <use x="63.623047" xlink:href="#DejaVuSans-52"/>
       <use x="127.246094" xlink:href="#DejaVuSans-54"/>
       <use x="190.869141" xlink:href="#DejaVuSans-49"/>
       <use x="254.492188" xlink:href="#DejaVuSans-48"/>
      </g>
     </g>
    </g>
    <g id="ytick_4">
     <g id="line2d_25">
      <g>
       <use style="stroke:#000000;stroke-width:0.8;" x="108" xlink:href="#m6c1ffe9dc4" y="199.104361"/>
      </g>
     </g>
     <g id="text_26">
      <!-- 14620 -->
      <g transform="translate(69.1875 202.90358)scale(0.1 -0.1)">
       <use xlink:href="#DejaVuSans-49"/>
       <use x="63.623047" xlink:href="#DejaVuSans-52"/>
       <use x="127.246094" xlink:href="#DejaVuSans-54"/>
       <use x="190.869141" xlink:href="#DejaVuSans-50"/>
       <use x="254.492188" xlink:href="#DejaVuSans-48"/>
      </g>
     </g>
    </g>
    <g id="ytick_5">
     <g id="line2d_26">
      <g>
       <use style="stroke:#000000;stroke-width:0.8;" x="108" xlink:href="#m6c1ffe9dc4" y="136.380204"/>
      </g>
     </g>
     <g id="text_27">
      <!-- 14630 -->
      <g transform="translate(69.1875 140.179423)scale(0.1 -0.1)">
       <use xlink:href="#DejaVuSans-49"/>
       <use x="63.623047" xlink:href="#DejaVuSans-52"/>
       <use x="127.246094" xlink:href="#DejaVuSans-54"/>
       <use x="190.869141" xlink:href="#DejaVuSans-51"/>
       <use x="254.492188" xlink:href="#DejaVuSans-48"/>
      </g>
     </g>
    </g>
    <g id="ytick_6">
     <g id="line2d_27">
      <g>
       <use style="stroke:#000000;stroke-width:0.8;" x="108" xlink:href="#m6c1ffe9dc4" y="73.656047"/>
      </g>
     </g>
     <g id="text_28">
      <!-- 14640 -->
      <g transform="translate(69.1875 77.455266)scale(0.1 -0.1)">
       <use xlink:href="#DejaVuSans-49"/>
       <use x="63.623047" xlink:href="#DejaVuSans-52"/>
       <use x="127.246094" xlink:href="#DejaVuSans-54"/>
       <use x="190.869141" xlink:href="#DejaVuSans-52"/>
       <use x="254.492188" xlink:href="#DejaVuSans-48"/>
      </g>
     </g>
    </g>
    <g id="text_29">
     <!-- MB -->
     <g transform="translate(63.52375 260.715625)rotate(-90)scale(0.08 -0.08)">
      <defs>
       <path d="M 9.8125 72.90625 
L 24.515625 72.90625 
L 43.109375 23.296875 
L 61.8125 72.90625 
L 76.515625 72.90625 
L 76.515625 0 
L 66.890625 0 
L 66.890625 64.015625 
L 48.09375 14.015625 
L 38.1875 14.015625 
L 19.390625 64.015625 
L 19.390625 0 
L 9.8125 0 
z
" id="DejaVuSans-77"/>
       <path d="M 19.671875 34.8125 
L 19.671875 8.109375 
L 35.5 8.109375 
Q 43.453125 8.109375 47.28125 11.40625 
Q 51.125 14.703125 51.125 21.484375 
Q 51.125 28.328125 47.28125 31.5625 
Q 43.453125 34.8125 35.5 34.8125 
z
M 19.671875 64.796875 
L 19.671875 42.828125 
L 34.28125 42.828125 
Q 41.5 42.828125 45.03125 45.53125 
Q 48.578125 48.25 48.578125 53.8125 
Q 48.578125 59.328125 45.03125 62.0625 
Q 41.5 64.796875 34.28125 64.796875 
z
M 9.8125 72.90625 
L 35.015625 72.90625 
Q 46.296875 72.90625 52.390625 68.21875 
Q 58.5 63.53125 58.5 54.890625 
Q 58.5 48.1875 55.375 44.234375 
Q 52.25 40.28125 46.1875 39.3125 
Q 53.46875 37.75 57.5 32.78125 
Q 61.53125 27.828125 61.53125 20.40625 
Q 61.53125 10.640625 54.890625 5.3125 
Q 48.25 0 35.984375 0 
L 9.8125 0 
z
" id="DejaVuSans-66"/>
      </defs>
      <use xlink:href="#DejaVuSans-77"/>
      <use x="86.279297" xlink:href="#DejaVuSans-66"/>
     </g>
    </g>
   </g>
   <g id="line2d_28">
    <path clip-path="url(#p69c084a149)" d="M 132.349091 212.693726 
L 132.841489 106.509455 
L 133.333887 105.122097 
L 133.826286 94.511378 
L 134.318684 114.936371 
L 134.811082 89.475782 
L 135.30348 85.159557 
L 135.795878 89.707008 
L 136.288276 99.649741 
L 136.780675 118.199231 
L 137.273073 109.875083 
L 137.765471 78.12 
L 138.257869 137.057023 
L 138.750267 137.365325 
L 139.242666 145.149945 
L 139.735064 107.716971 
L 140.227462 112.752566 
L 140.71986 170.019621 
L 141.212258 168.272578 
L 141.704657 212.668034 
L 142.197055 215.519825 
L 142.689453 261.790784 
L 143.181851 323.810824 
L 143.674249 241.134565 
L 144.166648 215.519825 
L 144.659046 215.468442 
L 145.151444 189.082948 
L 145.643842 187.875433 
L 146.13624 199.359674 
L 146.628639 203.804358 
L 147.121037 205.911087 
L 147.613435 203.162062 
L 148.105833 194.837914 
L 148.598231 201.055334 
L 149.09063 197.124486 
L 149.583028 203.521748 
L 150.075426 201.903163 
L 150.567824 209.533632 
L 151.060222 212.642342 
L 151.552621 207.529671 
L 152.045019 216.8558 
L 153.029815 208.583035 
L 153.522213 211.075141 
L 154.014612 206.681841 
L 154.50701 218.037623 
L 154.999408 217.85778 
L 155.491806 163.185599 
L 155.984204 162.697454 
L 156.476603 154.167772 
L 156.969001 153.705319 
L 157.461399 273.583327 
L 157.953797 344.878112 
L 158.446195 316.514349 
L 158.938594 307.522214 
L 159.430992 290.180239 
L 159.92339 306.597308 
L 160.415788 316.642808 
L 160.908186 316.796959 
L 161.400585 299.68621 
L 161.892983 298.607154 
L 162.385381 300.945109 
L 162.877779 310.86215 
L 163.370177 310.605232 
L 163.862576 307.445138 
L 164.354974 309.320641 
L 164.847372 308.678345 
L 165.33977 307.316679 
L 165.832168 314.818689 
L 166.324567 316.565733 
L 166.816965 328.897804 
L 167.309363 311.375986 
L 167.801761 305.980705 
L 168.294159 283.628826 
L 168.786558 293.725709 
L 169.278956 270.474617 
L 169.771354 268.701882 
L 170.263752 246.093085 
L 170.75615 255.033836 
L 171.248549 259.016068 
L 171.740947 265.027952 
L 172.233345 265.721631 
L 172.725743 241.340099 
L 173.218141 237.768937 
L 173.71054 250.923146 
L 174.202938 259.529904 
L 174.695336 272.427195 
L 175.680132 242.085162 
L 176.172531 255.830283 
L 176.664929 252.670189 
L 177.157327 262.818456 
L 177.649725 261.7394 
L 178.142123 262.02201 
L 178.634522 257.06349 
L 179.12692 257.3461 
L 179.619318 253.723554 
L 180.604114 284.142662 
L 181.096513 270.705843 
L 181.588911 262.844148 
L 182.081309 259.529904 
L 182.573707 262.921223 
L 183.066105 274.328389 
L 183.558504 276.101124 
L 184.050902 278.541847 
L 184.5433 274.251314 
L 185.035698 260.480501 
L 185.528096 269.678171 
L 186.020495 270.65446 
L 186.512893 258.19393 
L 187.005291 254.006164 
L 187.497689 245.990318 
L 187.990087 268.11097 
L 188.974884 284.348197 
L 189.467282 264.771034 
L 189.95968 271.014145 
L 190.452078 282.215776 
L 190.944477 265.978549 
L 191.436875 284.24543 
L 191.929273 279.286909 
L 192.421671 270.474617 
L 192.914069 286.09524 
L 193.406468 281.445022 
L 193.898866 279.029991 
L 194.391264 279.363985 
L 194.883662 278.362004 
L 195.37606 288.047818 
L 195.868458 287.456906 
L 196.360857 276.512193 
L 196.853255 285.24741 
L 197.345653 287.636749 
L 197.838051 288.818573 
L 198.330449 278.952916 
L 198.822848 280.365966 
L 199.315246 287.148605 
L 199.807644 306.468849 
L 200.300042 303.36014 
L 200.79244 268.67619 
L 201.284839 270.911378 
L 202.762033 302.692153 
L 203.254431 304.233662 
L 203.74683 295.318602 
L 204.239228 292.235584 
L 204.731626 300.354197 
L 205.224024 299.943128 
L 205.716422 297.373947 
L 206.208821 292.46681 
L 206.701219 289.692094 
L 207.193617 297.065645 
L 207.686015 296.115048 
L 208.178413 299.223758 
L 208.670812 299.660518 
L 209.16321 305.569636 
L 210.148006 299.737594 
L 210.640404 299.4036 
L 211.132803 304.593347 
L 211.625201 307.445138 
L 212.117599 301.484637 
L 212.609997 290.771151 
L 213.102395 293.494483 
L 213.594794 316.154664 
L 214.087192 312.891803 
L 214.57959 275.587288 
L 216.056785 309.115106 
L 216.549183 308.061742 
L 217.041581 400.886269 
L 217.533979 408.182744 
L 218.026377 387.88621 
L 218.518776 388.631273 
L 219.011174 336.656732 
L 219.503572 339.842517 
L 219.99597 342.206164 
L 220.488368 331.235759 
L 220.980767 309.397716 
L 221.965563 323.630982 
L 222.457961 321.90963 
L 222.950359 321.318718 
L 223.442758 323.271296 
L 224.427554 330.721923 
L 224.919952 331.441293 
L 225.41235 327.43337 
L 226.397147 324.144818 
L 226.889545 329.514407 
L 227.381943 330.465004 
L 227.874341 330.953149 
L 228.859138 310.040012 
L 229.351536 315.949129 
L 229.843934 316.565733 
L 230.336332 324.992648 
L 230.828731 336.091512 
L 231.321129 336.168587 
L 232.305925 316.540041 
L 233.290722 338.994687 
L 233.78312 339.842517 
L 234.275518 331.004532 
L 234.767916 330.182394 
L 235.260314 332.751576 
L 236.245111 322.063781 
L 236.737509 312.99457 
L 237.229907 310.194163 
L 237.722305 312.99457 
L 238.214704 314.176394 
L 238.707102 319.340449 
L 239.1995 323.296988 
L 239.691898 324.915572 
L 240.184296 330.516388 
L 240.676695 334.806921 
L 241.169093 300.739575 
L 241.661491 305.826554 
L 242.153889 271.014145 
L 242.646287 284.990492 
L 243.138686 258.450848 
L 243.631084 261.071413 
L 244.123482 278.721689 
L 244.61588 285.504329 
L 245.108278 289.949013 
L 245.600677 290.360082 
L 246.093075 275.201911 
L 246.585473 277.205872 
L 247.077871 290.000396 
L 247.570269 296.449042 
L 248.062668 298.247469 
L 248.555066 288.35612 
L 249.047464 285.864014 
L 249.539862 289.48656 
L 250.03226 280.674267 
L 250.524659 290.077472 
L 251.017057 277.539866 
L 251.509455 284.81065 
L 252.001853 285.170335 
L 252.494251 280.443041 
L 252.98665 285.838322 
L 253.479048 294.265237 
L 253.971446 285.889706 
L 254.463844 281.624865 
L 254.956242 271.65644 
L 255.448641 287.996435 
L 255.941039 297.579482 
L 256.925835 260.095124 
L 257.418233 264.616883 
L 257.910631 265.439021 
L 258.40303 289.332409 
L 258.895428 299.018223 
L 259.880224 291.079452 
L 260.372622 272.195969 
L 260.865021 284.271121 
L 261.357419 275.690055 
L 261.849817 287.456906 
L 262.342215 280.751343 
L 262.834613 284.733574 
L 263.327012 286.300775 
L 263.81941 289.949013 
L 264.311808 283.911436 
L 264.804206 283.526059 
L 265.296604 289.306717 
L 266.281401 284.116971 
L 266.773799 284.065587 
L 267.266197 274.174238 
L 267.758595 283.808669 
L 268.250994 284.322505 
L 268.743392 287.867976 
L 269.23579 295.395677 
L 269.728188 294.804766 
L 270.220586 293.417408 
L 271.697781 273.557635 
L 272.682577 298.247469 
L 273.174976 302.79492 
L 273.667374 305.749479 
L 274.159772 290.925301 
L 274.65217 290.462849 
L 275.144568 295.29291 
L 276.129365 302.538002 
L 276.621763 291.362062 
L 277.114161 303.514291 
L 277.606559 294.188162 
L 278.591356 309.860169 
L 279.576152 295.267218 
L 280.06855 296.14074 
L 280.560949 297.939167 
L 281.053347 303.051838 
L 281.545745 315.974821 
L 282.038143 306.211931 
L 283.02294 303.205989 
L 283.515338 319.828593 
L 284.007736 311.093376 
L 284.500134 314.304853 
L 285.484931 284.425272 
L 286.469727 305.0558 
L 286.962125 306.674384 
L 287.454523 305.0558 
L 287.946922 300.25143 
L 288.43932 304.079511 
L 288.931718 317.670481 
L 289.424116 321.293027 
L 289.916514 315.075607 
L 290.408913 313.508407 
L 291.393709 321.34441 
L 291.886107 319.006455 
L 292.378505 315.897745 
L 292.870904 316.899726 
L 293.363302 303.976743 
L 293.8557 309.706018 
L 294.348098 313.174413 
L 294.840496 310.502464 
L 295.332895 297.142721 
L 296.317691 319.109222 
L 296.810089 314.844381 
L 297.302487 323.194221 
L 297.794886 311.016301 
L 298.287284 308.549886 
L 298.779682 318.287084 
L 299.27208 304.850265 
L 299.764478 313.713941 
L 300.256877 331.852362 
L 300.749275 326.30293 
L 301.241673 322.346391 
L 301.734071 325.840478 
L 302.226469 308.31866 
L 302.718868 317.644789 
L 303.211266 313.354256 
L 303.703664 325.378025 
L 304.196062 325.146799 
L 305.180859 317.593405 
L 305.673257 322.834535 
L 306.165655 325.73771 
L 306.658053 319.494599 
L 307.150451 323.374064 
L 307.64285 322.038089 
L 308.135248 322.75746 
L 308.627646 332.494658 
L 309.120044 328.409659 
L 309.612442 330.490696 
L 310.104841 335.295066 
L 310.597239 330.798998 
L 311.089637 331.544061 
L 311.582035 337.555945 
L 312.074433 345.160722 
L 312.566832 341.923554 
L 313.05923 320.573656 
L 313.551628 313.457023 
L 314.044026 318.64677 
L 314.536424 340.304969 
L 315.028823 352.251663 
L 315.521221 427.477297 
L 316.013619 412.216359 
L 316.506017 412.113592 
L 316.998415 278.59323 
L 317.490813 329.617174 
L 317.983212 270.474617 
L 318.47561 265.670248 
L 318.968008 253.646478 
L 319.952804 192.525651 
L 320.445203 241.417174 
L 320.937601 226.541614 
L 321.429999 207.118602 
L 321.922397 200.875491 
L 322.414795 226.695765 
L 322.907194 233.247177 
L 323.399592 232.887492 
L 323.89199 219.630516 
L 324.384388 215.288599 
L 324.876786 262.407387 
L 325.369185 252.053586 
L 325.861583 265.28487 
L 326.846379 209.507941 
L 327.338777 206.938759 
L 327.831176 213.387405 
L 328.323574 223.79259 
L 328.815972 238.308465 
L 329.30837 235.430982 
L 330.293167 223.150294 
L 330.785565 238.154314 
L 331.277963 232.887492 
L 331.770361 241.108873 
L 332.262759 207.452595 
L 332.755158 195.094833 
L 333.247556 199.796435 
L 333.739954 181.940623 
L 334.232352 177.213329 
L 334.72475 179.859586 
L 335.709547 176.108581 
L 336.201945 172.97418 
L 336.694343 173.308174 
L 337.186741 185.845779 
L 337.67914 174.746915 
L 338.171538 185.126408 
L 338.663936 179.422826 
L 339.156334 186.205465 
L 339.648732 198.717378 
L 340.141131 178.21531 
L 340.633529 171.895124 
L 341.125927 158.869374 
L 341.618325 158.997833 
L 342.110723 179.602668 
L 342.603122 307.75344 
L 343.09552 366.407853 
L 343.587918 351.249682 
L 344.080316 343.310912 
L 344.572714 323.682365 
L 345.065113 321.935322 
L 345.557511 319.751518 
L 346.049909 315.769286 
L 346.542307 314.921456 
L 347.034705 317.619097 
L 347.527104 317.901707 
L 348.5119 326.405698 
L 349.004298 326.405698 
L 349.496696 323.014378 
L 349.989095 308.03605 
L 350.481493 310.117087 
L 350.973891 323.528214 
L 351.466289 330.439313 
L 352.451086 321.395794 
L 352.943484 318.980763 
L 353.435882 328.2812 
L 353.92828 335.038147 
L 354.420678 331.210067 
L 354.913077 305.543944 
L 355.405475 290.360082 
L 355.897873 293.905552 
L 356.390271 301.792939 
L 356.882669 315.152683 
L 357.375068 320.625039 
L 357.867466 305.389793 
L 358.359864 310.117087 
L 358.852262 324.247585 
L 359.34466 320.008436 
L 359.837059 300.713883 
L 360.329457 300.379889 
L 360.821855 304.798881 
L 361.314253 322.063781 
L 362.29905 317.773248 
L 362.791448 312.686269 
L 364.268642 328.127049 
L 364.761041 325.095415 
L 365.253439 309.038031 
L 365.745837 314.356237 
L 366.238235 325.58356 
L 366.730633 318.749537 
L 367.223032 317.978782 
L 367.71543 312.403659 
L 368.700226 315.409601 
L 369.192624 296.680268 
L 369.685023 290.33439 
L 370.177421 299.198066 
L 370.669819 313.611174 
L 371.654615 319.828593 
L 372.147014 318.132933 
L 372.639412 320.77919 
L 373.13181 320.856266 
L 373.624208 323.117145 
L 374.116606 327.15076 
L 374.609005 287.456906 
L 375.101403 280.597192 
L 375.593801 279.697978 
L 376.086199 267.417291 
L 376.578597 272.452887 
L 377.070995 265.490405 
L 377.563394 348.629117 
L 378.055792 353.099493 
L 378.54819 355.514524 
L 379.040588 303.668442 
L 379.532986 291.61898 
L 380.025385 287.893667 
L 380.517783 292.954955 
L 381.010181 282.601154 
L 381.502579 287.148605 
L 381.994977 288.844264 
L 382.487376 284.707882 
L 382.979774 264.180122 
L 383.472172 258.34808 
L 383.96457 267.597134 
L 384.456968 280.699959 
L 384.949367 272.863956 
L 385.934163 281.599173 
L 386.426561 281.265179 
L 386.918959 279.004299 
L 387.411358 281.727632 
L 387.903756 293.59725 
L 388.888552 278.567539 
L 389.38095 293.134798 
L 389.873349 282.215776 
L 390.365747 283.885744 
L 390.858145 276.717728 
L 391.350543 282.678229 
L 391.842941 285.273102 
L 392.33534 284.322505 
L 392.827738 292.543886 
L 393.320136 284.630807 
L 393.812534 285.915398 
L 394.304932 276.666344 
L 394.797331 294.933225 
L 395.289729 295.909514 
L 395.782127 298.632846 
L 396.274525 296.680268 
L 396.766923 280.648576 
L 397.259322 280.931186 
L 397.75172 266.235468 
L 398.244118 273.300717 
L 399.228914 298.761305 
L 399.721313 295.626904 
L 400.213711 293.468791 
L 400.706109 286.557693 
L 401.198507 284.194046 
L 401.690905 297.605173 
L 402.183304 297.939167 
L 402.675702 292.595269 
L 403.1681 302.79492 
L 403.660498 308.113126 
L 404.152896 297.682249 
L 404.645295 301.38187 
L 405.137693 297.579482 
L 405.630091 288.998415 
L 406.122489 295.909514 
L 406.614887 283.757285 
L 407.107286 285.118951 
L 407.599684 286.840303 
L 408.092082 311.041992 
L 408.58448 290.103163 
L 409.076878 294.907533 
L 409.569277 285.170335 
L 410.061675 292.852188 
L 410.554073 295.85813 
L 411.046471 282.755304 
L 411.538869 282.010242 
L 412.031268 280.956877 
L 412.523666 354.101474 
L 413.016064 371.777442 
L 413.508462 376.222126 
L 414.00086 367.461218 
L 414.493259 300.585424 
L 414.985657 307.984666 
L 415.970453 313.970859 
L 416.462851 291.670364 
L 416.95525 295.318602 
L 417.447648 304.285045 
L 417.940046 300.200047 
L 418.432444 304.798881 
L 418.924842 287.379831 
L 419.417241 280.468733 
L 419.909639 286.583385 
L 420.402037 299.994512 
L 420.894435 300.970801 
L 421.386833 287.867976 
L 421.879232 301.227719 
L 422.37163 294.753382 
L 422.864028 299.96882 
L 423.356426 306.828535 
L 423.848824 303.000454 
L 424.341223 312.223816 
L 424.833621 303.051838 
L 425.326019 291.259295 
L 425.818417 282.960839 
L 426.310815 281.162412 
L 426.803214 309.73171 
L 427.295612 316.565733 
L 427.78801 314.356237 
L 428.280408 294.599231 
L 428.772806 305.852246 
L 429.265205 295.85813 
L 429.757603 305.107183 
L 430.250001 319.520291 
L 430.742399 306.05778 
L 431.234797 309.320641 
L 431.727196 308.215893 
L 432.219594 324.915572 
L 432.711992 318.852304 
L 433.20439 307.085453 
L 433.696788 313.27718 
L 434.189187 303.976743 
L 434.681585 303.848284 
L 435.666381 316.976802 
L 436.158779 307.059761 
L 436.651177 312.789036 
L 437.143576 312.42935 
L 437.635974 321.575636 
L 438.128372 322.140856 
L 438.62077 316.000513 
L 439.113168 306.828535 
L 440.097965 302.666461 
L 440.590363 319.623059 
L 441.082761 325.429409 
L 441.575159 316.771267 
L 442.067558 332.905727 
L 442.559956 321.138876 
L 443.052354 321.215951 
L 443.544752 317.542022 
L 444.03715 315.872054 
L 444.529549 306.417466 
L 445.021947 310.682307 
L 445.514345 317.953091 
L 446.006743 320.265354 
L 446.499141 325.763402 
L 446.99154 316.128972 
L 447.483938 313.816708 
L 447.976336 308.524195 
L 448.961132 266.004241 
L 449.453531 279.44106 
L 449.945929 266.286851 
L 450.438327 265.233487 
L 450.930725 274.302697 
L 451.423123 273.275025 
L 451.915522 277.796784 
L 452.40792 274.893609 
L 452.900318 273.994396 
L 453.392716 257.808552 
L 453.885114 258.425156 
L 454.377513 253.004183 
L 454.869911 267.365907 
L 455.362309 272.093201 
L 455.854707 267.622826 
L 456.347105 250.435001 
L 456.839504 261.893551 
L 457.331902 276.049741 
L 457.8243 281.70194 
L 458.316698 266.672228 
L 458.809096 269.24141 
L 459.301495 281.70194 
L 459.793893 283.577442 
L 460.286291 281.496405 
L 460.778689 283.860052 
L 461.271087 271.579365 
L 461.763486 275.998357 
L 462.255884 282.241468 
L 462.748282 274.148546 
L 463.24068 268.599114 
L 463.733078 257.474559 
L 464.225477 269.472636 
L 464.717875 275.201911 
L 465.210273 274.919301 
L 465.702671 280.031972 
L 466.195069 288.998415 
L 466.687468 287.251372 
L 467.179866 271.527981 
L 467.672264 278.850149 
L 468.164662 269.549712 
L 468.65706 276.846187 
L 469.641857 287.867976 
L 470.134255 273.583327 
L 470.626653 267.108989 
L 471.119051 291.61898 
L 471.61145 350.941381 
L 472.103848 345.186414 
L 472.596246 344.364276 
L 473.088644 304.002435 
L 473.581042 329.385948 
L 474.073441 372.137128 
L 474.565839 224.486269 
L 475.058237 200.464422 
L 475.550635 201.260868 
L 476.043033 294.958916 
L 476.535432 337.247643 
L 477.02783 327.895823 
L 477.520228 193.527632 
L 478.012626 188.54342 
L 478.997423 220.067276 
L 479.489821 233.658246 
L 480.474617 192.114582 
L 480.967015 251.950819 
L 481.459414 242.804532 
L 481.951812 247.685977 
L 482.44421 233.375636 
L 482.936608 241.751168 
L 483.429006 270.243391 
L 483.921405 271.116912 
L 484.906201 232.142429 
L 485.398599 223.972432 
L 486.383396 242.085162 
L 486.875794 226.541614 
L 487.368192 219.168063 
L 487.86059 231.345983 
L 488.352988 231.191832 
L 488.845387 237.306484 
L 489.337785 227.286676 
L 489.830183 230.035701 
L 490.322581 225.436866 
L 490.814979 227.90328 
L 491.307378 237.049566 
L 491.799776 235.071296 
L 492.292174 222.071238 
L 492.784572 229.984317 
L 493.27697 226.798532 
L 493.769369 231.371675 
L 494.261767 234.814378 
L 495.246563 221.634477 
L 495.738961 214.492153 
L 496.231359 220.452654 
L 496.723758 241.417174 
L 497.216156 358.340623 
L 497.708554 380.538351 
L 498.200952 337.607329 
L 498.69335 320.419505 
L 499.185749 312.763344 
L 499.678147 321.524253 
L 500.170545 317.773248 
L 500.662943 315.435293 
L 501.155341 307.984666 
L 501.64774 311.941206 
L 502.140138 311.273219 
L 502.632536 313.225797 
L 503.124934 294.624923 
L 503.617332 304.619039 
L 504.109731 292.672345 
L 504.602129 305.955013 
L 505.094527 305.723787 
L 505.586925 311.42737 
L 506.571722 305.877938 
L 507.06412 307.342371 
L 507.556518 312.583501 
L 508.048916 309.962936 
L 508.541314 314.715922 
L 509.526111 283.577442 
L 510.018509 287.585366 
L 510.510907 292.929263 
L 511.003305 305.441177 
L 511.495704 305.800862 
L 511.988102 312.737652 
L 512.4805 296.500425 
L 512.972898 293.443099 
L 513.957695 305.0558 
L 514.450093 307.419447 
L 514.942491 311.273219 
L 515.927287 298.709921 
L 516.419686 298.375928 
L 516.912084 296.500425 
L 517.404482 296.397658 
L 517.89688 305.261334 
L 518.389278 289.820553 
L 518.881677 293.237565 
L 519.374075 303.617058 
L 519.866473 303.539983 
L 520.358871 304.053819 
L 521.343668 289.820553 
L 521.836066 304.387812 
L 522.328464 292.723729 
L 522.820862 294.779074 
L 523.31326 281.856091 
L 523.805659 294.881841 
L 524.298057 300.53404 
L 524.790455 312.763344 
L 525.282853 309.269257 
L 525.775251 296.860111 
L 526.26765 303.848284 
L 526.760048 301.38187 
L 527.252446 315.101299 
L 527.744844 317.901707 
L 528.237242 315.229758 
L 528.729641 303.539983 
L 529.222039 312.095357 
L 530.206835 299.249449 
L 530.699233 306.520233 
L 531.191632 295.549828 
L 531.68403 300.020204 
L 532.176428 310.142779 
L 532.668826 302.538002 
L 533.161224 313.55979 
L 534.146021 307.162528 
L 534.638419 313.097338 
L 535.130817 316.822651 
L 535.623215 313.55979 
L 536.115614 302.897687 
L 536.608012 315.897745 
L 537.10041 311.42737 
L 537.592808 305.569636 
L 538.085206 307.650673 
L 538.577605 430.92 
L 539.562401 398.753848 
L 540.054799 369.90194 
L 540.547197 349.913708 
L 541.039596 253.209717 
L 541.531994 215.288599 
L 542.024392 224.049508 
L 542.51679 209.302406 
L 543.009188 156.659878 
L 543.501587 245.193871 
L 543.993985 240.697804 
L 544.486383 223.818281 
L 544.978781 213.46448 
L 545.471179 233.966548 
L 545.963578 260.120816 
L 546.455976 245.630632 
L 546.948374 221.608785 
L 547.440772 214.543536 
L 547.93317 289.126874 
L 548.425569 244.654343 
L 548.917967 259.401445 
L 549.410365 243.729438 
L 549.902763 231.602901 
L 550.395161 256.806572 
L 550.88756 259.735438 
L 551.379958 211.614669 
L 551.872356 204.061276 
L 552.364754 205.602785 
L 552.857152 222.199697 
L 553.349551 214.286618 
L 553.841949 213.541555 
L 554.334347 211.974355 
L 554.826745 221.557402 
L 555.319143 224.280734 
L 555.811542 236.81834 
L 556.30394 223.79259 
L 556.796338 219.579132 
L 557.288736 229.855858 
L 557.781134 222.302464 
L 558.273532 217.986239 
L 558.765931 223.201678 
L 559.258329 221.043565 
L 559.750727 211.511902 
L 560.243125 216.547498 
L 560.735523 218.962528 
L 561.227922 212.642342 
L 561.72032 220.452654 
L 562.212718 221.172024 
L 562.705116 208.839953 
L 563.197514 223.304445 
L 563.689913 219.681899 
L 564.674709 228.982336 
L 565.659505 199.30829 
L 566.151904 210.047469 
L 566.644302 214.183851 
L 567.1367 226.438846 
L 567.629098 223.535671 
L 568.121496 215.494133 
L 568.613895 210.689764 
L 569.106293 226.824224 
L 569.598691 347.061917 
L 570.091089 378.585773 
L 570.583487 375.605523 
L 571.568284 335.937361 
L 572.060682 328.538118 
L 572.55308 342.925535 
L 573.045478 335.808902 
L 573.537877 334.08755 
L 574.030275 320.342429 
L 574.522673 330.182394 
L 575.507469 335.911669 
L 575.999868 342.463082 
L 576.492266 342.077705 
L 576.984664 336.322738 
L 577.477062 334.729846 
L 577.96946 344.235817 
L 578.461859 347.781288 
L 578.954257 341.820786 
L 579.446655 333.470947 
L 579.939053 333.265412 
L 580.431451 347.781288 
L 580.92385 357.235875 
L 581.416248 359.57383 
L 581.908646 355.334681 
L 582.401044 324.787113 
L 582.893442 328.538118 
L 583.385841 337.350411 
L 583.878239 328.820728 
L 584.370637 336.322738 
L 584.863035 323.194221 
L 585.355433 317.721864 
L 585.847832 333.265412 
L 586.34023 331.235759 
L 586.832628 333.008494 
L 587.325026 335.988745 
L 587.817424 332.80296 
L 588.309823 326.688308 
L 588.802221 332.134972 
L 589.294619 344.544119 
L 589.787017 343.413679 
L 590.279415 326.996609 
L 590.771814 326.457081 
L 591.264212 335.089531 
L 591.75661 337.067801 
L 592.249008 344.467043 
L 592.741406 336.425505 
L 593.233805 317.387871 
L 594.218601 329.103338 
L 595.203397 354.923612 
L 595.695796 349.348488 
L 596.188194 327.71598 
L 596.680592 326.559849 
L 597.17299 327.459062 
L 597.665388 334.986764 
L 598.157787 337.864247 
L 598.650185 331.004532 
L 599.142583 322.551925 
L 599.634981 332.52035 
L 600.127379 338.635001 
L 600.619778 328.101357 
L 601.604574 345.520408 
L 602.096972 348.295124 
L 602.58937 332.443274 
L 603.081769 344.338584 
L 603.574167 337.787172 
L 604.066565 335.731826 
L 604.558963 293.494483 
L 605.051361 306.700076 
L 606.036158 294.316621 
L 606.528556 278.336312 
L 607.513352 267.879744 
L 608.005751 273.737477 
L 608.498149 267.520058 
L 608.990547 285.401561 
L 609.482945 288.484579 
L 609.975343 281.753324 
L 610.467742 277.180181 
L 610.96014 276.024049 
L 611.452538 279.235526 
L 611.944936 284.707882 
L 612.437334 288.869956 
L 612.929733 283.577442 
L 613.422131 275.715747 
L 613.914529 277.822476 
L 614.406927 285.170335 
L 614.899325 289.20395 
L 615.391724 286.146624 
L 615.884122 282.318544 
L 616.37652 284.373889 
L 616.868918 285.864014 
L 617.361316 289.666403 
L 617.853714 276.306659 
L 618.346113 291.516213 
L 618.838511 283.937128 
L 619.330909 283.140682 
L 619.330909 283.140682 
" style="fill:none;stroke:#1f77b4;stroke-linecap:square;stroke-width:1.5;"/>
   </g>
   <g id="patch_3">
    <path d="M 108 448.56 
L 108 60.48 
" style="fill:none;stroke:#000000;stroke-linecap:square;stroke-linejoin:miter;stroke-width:0.8;"/>
   </g>
   <g id="patch_4">
    <path d="M 643.68 448.56 
L 643.68 60.48 
" style="fill:none;stroke:#000000;stroke-linecap:square;stroke-linejoin:miter;stroke-width:0.8;"/>
   </g>
   <g id="patch_5">
    <path d="M 108 448.56 
L 643.68 448.56 
" style="fill:none;stroke:#000000;stroke-linecap:square;stroke-linejoin:miter;stroke-width:0.8;"/>
   </g>
   <g id="patch_6">
    <path d="M 108 60.48 
L 643.68 60.48 
" style="fill:none;stroke:#000000;stroke-linecap:square;stroke-linejoin:miter;stroke-width:0.8;"/>
   </g>
   <g id="text_30">
    <!-- docker - free -->
    <g transform="translate(328.339219 54.48)scale(0.15 -0.15)">
     <defs>
      <path d="M 45.40625 46.390625 
L 45.40625 75.984375 
L 54.390625 75.984375 
L 54.390625 0 
L 45.40625 0 
L 45.40625 8.203125 
Q 42.578125 3.328125 38.25 0.953125 
Q 33.9375 -1.421875 27.875 -1.421875 
Q 17.96875 -1.421875 11.734375 6.484375 
Q 5.515625 14.40625 5.515625 27.296875 
Q 5.515625 40.1875 11.734375 48.09375 
Q 17.96875 56 27.875 56 
Q 33.9375 56 38.25 53.625 
Q 42.578125 51.265625 45.40625 46.390625 
z
M 14.796875 27.296875 
Q 14.796875 17.390625 18.875 11.75 
Q 22.953125 6.109375 30.078125 6.109375 
Q 37.203125 6.109375 41.296875 11.75 
Q 45.40625 17.390625 45.40625 27.296875 
Q 45.40625 37.203125 41.296875 42.84375 
Q 37.203125 48.484375 30.078125 48.484375 
Q 22.953125 48.484375 18.875 42.84375 
Q 14.796875 37.203125 14.796875 27.296875 
z
" id="DejaVuSans-100"/>
      <path d="M 30.609375 48.390625 
Q 23.390625 48.390625 19.1875 42.75 
Q 14.984375 37.109375 14.984375 27.296875 
Q 14.984375 17.484375 19.15625 11.84375 
Q 23.34375 6.203125 30.609375 6.203125 
Q 37.796875 6.203125 41.984375 11.859375 
Q 46.1875 17.53125 46.1875 27.296875 
Q 46.1875 37.015625 41.984375 42.703125 
Q 37.796875 48.390625 30.609375 48.390625 
z
M 30.609375 56 
Q 42.328125 56 49.015625 48.375 
Q 55.71875 40.765625 55.71875 27.296875 
Q 55.71875 13.875 49.015625 6.21875 
Q 42.328125 -1.421875 30.609375 -1.421875 
Q 18.84375 -1.421875 12.171875 6.21875 
Q 5.515625 13.875 5.515625 27.296875 
Q 5.515625 40.765625 12.171875 48.375 
Q 18.84375 56 30.609375 56 
z
" id="DejaVuSans-111"/>
      <path d="M 48.78125 52.59375 
L 48.78125 44.1875 
Q 44.96875 46.296875 41.140625 47.34375 
Q 37.3125 48.390625 33.40625 48.390625 
Q 24.65625 48.390625 19.8125 42.84375 
Q 14.984375 37.3125 14.984375 27.296875 
Q 14.984375 17.28125 19.8125 11.734375 
Q 24.65625 6.203125 33.40625 6.203125 
Q 37.3125 6.203125 41.140625 7.25 
Q 44.96875 8.296875 48.78125 10.40625 
L 48.78125 2.09375 
Q 45.015625 0.34375 40.984375 -0.53125 
Q 36.96875 -1.421875 32.421875 -1.421875 
Q 20.0625 -1.421875 12.78125 6.34375 
Q 5.515625 14.109375 5.515625 27.296875 
Q 5.515625 40.671875 12.859375 48.328125 
Q 20.21875 56 33.015625 56 
Q 37.15625 56 41.109375 55.140625 
Q 45.0625 54.296875 48.78125 52.59375 
z
" id="DejaVuSans-99"/>
      <path d="M 9.078125 75.984375 
L 18.109375 75.984375 
L 18.109375 31.109375 
L 44.921875 54.6875 
L 56.390625 54.6875 
L 27.390625 29.109375 
L 57.625 0 
L 45.90625 0 
L 18.109375 26.703125 
L 18.109375 0 
L 9.078125 0 
z
" id="DejaVuSans-107"/>
      <path d="M 41.109375 46.296875 
Q 39.59375 47.171875 37.8125 47.578125 
Q 36.03125 48 33.890625 48 
Q 26.265625 48 22.1875 43.046875 
Q 18.109375 38.09375 18.109375 28.8125 
L 18.109375 0 
L 9.078125 0 
L 9.078125 54.6875 
L 18.109375 54.6875 
L 18.109375 46.1875 
Q 20.953125 51.171875 25.484375 53.578125 
Q 30.03125 56 36.53125 56 
Q 37.453125 56 38.578125 55.875 
Q 39.703125 55.765625 41.0625 55.515625 
z
" id="DejaVuSans-114"/>
      <path id="DejaVuSans-32"/>
      <path d="M 4.890625 31.390625 
L 31.203125 31.390625 
L 31.203125 23.390625 
L 4.890625 23.390625 
z
" id="DejaVuSans-45"/>
      <path d="M 37.109375 75.984375 
L 37.109375 68.5 
L 28.515625 68.5 
Q 23.6875 68.5 21.796875 66.546875 
Q 19.921875 64.59375 19.921875 59.515625 
L 19.921875 54.6875 
L 34.71875 54.6875 
L 34.71875 47.703125 
L 19.921875 47.703125 
L 19.921875 0 
L 10.890625 0 
L 10.890625 47.703125 
L 2.296875 47.703125 
L 2.296875 54.6875 
L 10.890625 54.6875 
L 10.890625 58.5 
Q 10.890625 67.625 15.140625 71.796875 
Q 19.390625 75.984375 28.609375 75.984375 
z
" id="DejaVuSans-102"/>
     </defs>
     <use xlink:href="#DejaVuSans-100"/>
     <use x="63.476562" xlink:href="#DejaVuSans-111"/>
     <use x="124.658203" xlink:href="#DejaVuSans-99"/>
     <use x="179.638672" xlink:href="#DejaVuSans-107"/>
     <use x="233.923828" xlink:href="#DejaVuSans-101"/>
     <use x="295.447266" xlink:href="#DejaVuSans-114"/>
     <use x="336.560547" xlink:href="#DejaVuSans-32"/>
     <use x="368.347656" xlink:href="#DejaVuSans-45"/>
     <use x="404.431641" xlink:href="#DejaVuSans-32"/>
     <use x="436.21875" xlink:href="#DejaVuSans-102"/>
     <use x="471.423828" xlink:href="#DejaVuSans-114"/>
     <use x="510.287109" xlink:href="#DejaVuSans-101"/>
     <use x="571.810547" xlink:href="#DejaVuSans-101"/>
    </g>
   </g>
   <g id="legend_1">
    <g id="patch_7">
     <path d="M 650.68 258.52 
L 654.68 258.52 
Q 656.68 258.52 656.68 256.52 
L 656.68 252.52 
Q 656.68 250.52 654.68 250.52 
L 650.68 250.52 
Q 648.68 250.52 648.68 252.52 
L 648.68 256.52 
Q 648.68 258.52 650.68 258.52 
z
" style="fill:#ffffff;opacity:0.8;stroke:#cccccc;stroke-linejoin:miter;"/>
    </g>
   </g>
  </g>
 </g>
 <defs>
  <clipPath id="p69c084a149">
   <rect height="388.08" width="535.68" x="108" y="60.48"/>
  </clipPath>
 </defs>
</svg>
