<?xml version="1.0" encoding="utf-8" standalone="no"?>
<!DOCTYPE svg PUBLIC "-//W3C//DTD SVG 1.1//EN"
  "http://www.w3.org/Graphics/SVG/1.1/DTD/svg11.dtd">
<!-- Created with matplotlib (https://matplotlib.org/) -->
<svg height="504pt" version="1.1" viewBox="0 0 864 504" width="864pt" xmlns="http://www.w3.org/2000/svg" xmlns:xlink="http://www.w3.org/1999/xlink">
 <metadata>
  <rdf:RDF xmlns:cc="http://creativecommons.org/ns#" xmlns:dc="http://purl.org/dc/elements/1.1/" xmlns:rdf="http://www.w3.org/1999/02/22-rdf-syntax-ns#">
   <cc:Work>
    <dc:type rdf:resource="http://purl.org/dc/dcmitype/StillImage"/>
    <dc:date>2022-05-29T17:27:41.466635</dc:date>
    <dc:format>image/svg+xml</dc:format>
    <dc:creator>
     <cc:Agent>
      <dc:title>Matplotlib v3.3.4, https://matplotlib.org/</dc:title>
     </cc:Agent>
    </dc:creator>
   </cc:Work>
  </rdf:RDF>
 </metadata>
 <defs>
  <style type="text/css">*{stroke-linecap:butt;stroke-linejoin:round;}</style>
 </defs>
 <g id="figure_1">
  <g id="patch_1">
   <path d="M 0 504 
L 864 504 
L 864 0 
L 0 0 
z
" style="fill:#ffffff;"/>
  </g>
  <g id="axes_1">
   <g id="patch_2">
    <path d="M 108 448.56 
L 643.68 448.56 
L 643.68 60.48 
L 108 60.48 
z
" style="fill:#ffffff;"/>
   </g>
   <g id="matplotlib.axis_1">
    <g id="xtick_1">
     <g id="line2d_1">
      <defs>
       <path d="M 0 0 
L 0 3.5 
" id="m54afd6cc91" style="stroke:#000000;stroke-width:0.8;"/>
      </defs>
      <g>
       <use style="stroke:#000000;stroke-width:0.8;" x="132.349091" xlink:href="#m54afd6cc91" y="448.56"/>
      </g>
     </g>
     <g id="text_1">
      <!-- 21:53:14 -->
      <g transform="translate(135.108466 500.4725)rotate(-90)scale(0.1 -0.1)">
       <defs>
        <path d="M 19.1875 8.296875 
L 53.609375 8.296875 
L 53.609375 0 
L 7.328125 0 
L 7.328125 8.296875 
Q 12.9375 14.109375 22.625 23.890625 
Q 32.328125 33.6875 34.8125 36.53125 
Q 39.546875 41.84375 41.421875 45.53125 
Q 43.3125 49.21875 43.3125 52.78125 
Q 43.3125 58.59375 39.234375 62.25 
Q 35.15625 65.921875 28.609375 65.921875 
Q 23.96875 65.921875 18.8125 64.3125 
Q 13.671875 62.703125 7.8125 59.421875 
L 7.8125 69.390625 
Q 13.765625 71.78125 18.9375 73 
Q 24.125 74.21875 28.421875 74.21875 
Q 39.75 74.21875 46.484375 68.546875 
Q 53.21875 62.890625 53.21875 53.421875 
Q 53.21875 48.921875 51.53125 44.890625 
Q 49.859375 40.875 45.40625 35.40625 
Q 44.1875 33.984375 37.640625 27.21875 
Q 31.109375 20.453125 19.1875 8.296875 
z
" id="DejaVuSans-50"/>
        <path d="M 12.40625 8.296875 
L 28.515625 8.296875 
L 28.515625 63.921875 
L 10.984375 60.40625 
L 10.984375 69.390625 
L 28.421875 72.90625 
L 38.28125 72.90625 
L 38.28125 8.296875 
L 54.390625 8.296875 
L 54.390625 0 
L 12.40625 0 
z
" id="DejaVuSans-49"/>
        <path d="M 11.71875 12.40625 
L 22.015625 12.40625 
L 22.015625 0 
L 11.71875 0 
z
M 11.71875 51.703125 
L 22.015625 51.703125 
L 22.015625 39.3125 
L 11.71875 39.3125 
z
" id="DejaVuSans-58"/>
        <path d="M 10.796875 72.90625 
L 49.515625 72.90625 
L 49.515625 64.59375 
L 19.828125 64.59375 
L 19.828125 46.734375 
Q 21.96875 47.46875 24.109375 47.828125 
Q 26.265625 48.1875 28.421875 48.1875 
Q 40.625 48.1875 47.75 41.5 
Q 54.890625 34.8125 54.890625 23.390625 
Q 54.890625 11.625 47.5625 5.09375 
Q 40.234375 -1.421875 26.90625 -1.421875 
Q 22.3125 -1.421875 17.546875 -0.640625 
Q 12.796875 0.140625 7.71875 1.703125 
L 7.71875 11.625 
Q 12.109375 9.234375 16.796875 8.0625 
Q 21.484375 6.890625 26.703125 6.890625 
Q 35.15625 6.890625 40.078125 11.328125 
Q 45.015625 15.765625 45.015625 23.390625 
Q 45.015625 31 40.078125 35.4375 
Q 35.15625 39.890625 26.703125 39.890625 
Q 22.75 39.890625 18.8125 39.015625 
Q 14.890625 38.140625 10.796875 36.28125 
z
" id="DejaVuSans-53"/>
        <path d="M 40.578125 39.3125 
Q 47.65625 37.796875 51.625 33 
Q 55.609375 28.21875 55.609375 21.1875 
Q 55.609375 10.40625 48.1875 4.484375 
Q 40.765625 -1.421875 27.09375 -1.421875 
Q 22.515625 -1.421875 17.65625 -0.515625 
Q 12.796875 0.390625 7.625 2.203125 
L 7.625 11.71875 
Q 11.71875 9.328125 16.59375 8.109375 
Q 21.484375 6.890625 26.8125 6.890625 
Q 36.078125 6.890625 40.9375 10.546875 
Q 45.796875 14.203125 45.796875 21.1875 
Q 45.796875 27.640625 41.28125 31.265625 
Q 36.765625 34.90625 28.71875 34.90625 
L 20.21875 34.90625 
L 20.21875 43.015625 
L 29.109375 43.015625 
Q 36.375 43.015625 40.234375 45.921875 
Q 44.09375 48.828125 44.09375 54.296875 
Q 44.09375 59.90625 40.109375 62.90625 
Q 36.140625 65.921875 28.71875 65.921875 
Q 24.65625 65.921875 20.015625 65.03125 
Q 15.375 64.15625 9.8125 62.3125 
L 9.8125 71.09375 
Q 15.4375 72.65625 20.34375 73.4375 
Q 25.25 74.21875 29.59375 74.21875 
Q 40.828125 74.21875 47.359375 69.109375 
Q 53.90625 64.015625 53.90625 55.328125 
Q 53.90625 49.265625 50.4375 45.09375 
Q 46.96875 40.921875 40.578125 39.3125 
z
" id="DejaVuSans-51"/>
        <path d="M 37.796875 64.3125 
L 12.890625 25.390625 
L 37.796875 25.390625 
z
M 35.203125 72.90625 
L 47.609375 72.90625 
L 47.609375 25.390625 
L 58.015625 25.390625 
L 58.015625 17.1875 
L 47.609375 17.1875 
L 47.609375 0 
L 37.796875 0 
L 37.796875 17.1875 
L 4.890625 17.1875 
L 4.890625 26.703125 
z
" id="DejaVuSans-52"/>
       </defs>
       <use xlink:href="#DejaVuSans-50"/>
       <use x="63.623047" xlink:href="#DejaVuSans-49"/>
       <use x="127.246094" xlink:href="#DejaVuSans-58"/>
       <use x="160.9375" xlink:href="#DejaVuSans-53"/>
       <use x="224.560547" xlink:href="#DejaVuSans-51"/>
       <use x="288.183594" xlink:href="#DejaVuSans-58"/>
       <use x="321.875" xlink:href="#DejaVuSans-49"/>
       <use x="385.498047" xlink:href="#DejaVuSans-52"/>
      </g>
     </g>
    </g>
    <g id="xtick_2">
     <g id="line2d_2">
      <g>
       <use style="stroke:#000000;stroke-width:0.8;" x="156.671744" xlink:href="#m54afd6cc91" y="448.56"/>
      </g>
     </g>
     <g id="text_2">
      <!-- 21:54:06 -->
      <g transform="translate(159.431119 500.4725)rotate(-90)scale(0.1 -0.1)">
       <defs>
        <path d="M 31.78125 66.40625 
Q 24.171875 66.40625 20.328125 58.90625 
Q 16.5 51.421875 16.5 36.375 
Q 16.5 21.390625 20.328125 13.890625 
Q 24.171875 6.390625 31.78125 6.390625 
Q 39.453125 6.390625 43.28125 13.890625 
Q 47.125 21.390625 47.125 36.375 
Q 47.125 51.421875 43.28125 58.90625 
Q 39.453125 66.40625 31.78125 66.40625 
z
M 31.78125 74.21875 
Q 44.046875 74.21875 50.515625 64.515625 
Q 56.984375 54.828125 56.984375 36.375 
Q 56.984375 17.96875 50.515625 8.265625 
Q 44.046875 -1.421875 31.78125 -1.421875 
Q 19.53125 -1.421875 13.0625 8.265625 
Q 6.59375 17.96875 6.59375 36.375 
Q 6.59375 54.828125 13.0625 64.515625 
Q 19.53125 74.21875 31.78125 74.21875 
z
" id="DejaVuSans-48"/>
        <path d="M 33.015625 40.375 
Q 26.375 40.375 22.484375 35.828125 
Q 18.609375 31.296875 18.609375 23.390625 
Q 18.609375 15.53125 22.484375 10.953125 
Q 26.375 6.390625 33.015625 6.390625 
Q 39.65625 6.390625 43.53125 10.953125 
Q 47.40625 15.53125 47.40625 23.390625 
Q 47.40625 31.296875 43.53125 35.828125 
Q 39.65625 40.375 33.015625 40.375 
z
M 52.59375 71.296875 
L 52.59375 62.3125 
Q 48.875 64.0625 45.09375 64.984375 
Q 41.3125 65.921875 37.59375 65.921875 
Q 27.828125 65.921875 22.671875 59.328125 
Q 17.53125 52.734375 16.796875 39.40625 
Q 19.671875 43.65625 24.015625 45.921875 
Q 28.375 48.1875 33.59375 48.1875 
Q 44.578125 48.1875 50.953125 41.515625 
Q 57.328125 34.859375 57.328125 23.390625 
Q 57.328125 12.15625 50.6875 5.359375 
Q 44.046875 -1.421875 33.015625 -1.421875 
Q 20.359375 -1.421875 13.671875 8.265625 
Q 6.984375 17.96875 6.984375 36.375 
Q 6.984375 53.65625 15.1875 63.9375 
Q 23.390625 74.21875 37.203125 74.21875 
Q 40.921875 74.21875 44.703125 73.484375 
Q 48.484375 72.75 52.59375 71.296875 
z
" id="DejaVuSans-54"/>
       </defs>
       <use xlink:href="#DejaVuSans-50"/>
       <use x="63.623047" xlink:href="#DejaVuSans-49"/>
       <use x="127.246094" xlink:href="#DejaVuSans-58"/>
       <use x="160.9375" xlink:href="#DejaVuSans-53"/>
       <use x="224.560547" xlink:href="#DejaVuSans-52"/>
       <use x="288.183594" xlink:href="#DejaVuSans-58"/>
       <use x="321.875" xlink:href="#DejaVuSans-48"/>
       <use x="385.498047" xlink:href="#DejaVuSans-54"/>
      </g>
     </g>
    </g>
    <g id="xtick_3">
     <g id="line2d_3">
      <g>
       <use style="stroke:#000000;stroke-width:0.8;" x="180.994397" xlink:href="#m54afd6cc91" y="448.56"/>
      </g>
     </g>
     <g id="text_3">
      <!-- 21:54:58 -->
      <g transform="translate(183.753772 500.4725)rotate(-90)scale(0.1 -0.1)">
       <defs>
        <path d="M 31.78125 34.625 
Q 24.75 34.625 20.71875 30.859375 
Q 16.703125 27.09375 16.703125 20.515625 
Q 16.703125 13.921875 20.71875 10.15625 
Q 24.75 6.390625 31.78125 6.390625 
Q 38.8125 6.390625 42.859375 10.171875 
Q 46.921875 13.96875 46.921875 20.515625 
Q 46.921875 27.09375 42.890625 30.859375 
Q 38.875 34.625 31.78125 34.625 
z
M 21.921875 38.8125 
Q 15.578125 40.375 12.03125 44.71875 
Q 8.5 49.078125 8.5 55.328125 
Q 8.5 64.0625 14.71875 69.140625 
Q 20.953125 74.21875 31.78125 74.21875 
Q 42.671875 74.21875 48.875 69.140625 
Q 55.078125 64.0625 55.078125 55.328125 
Q 55.078125 49.078125 51.53125 44.71875 
Q 48 40.375 41.703125 38.8125 
Q 48.828125 37.15625 52.796875 32.3125 
Q 56.78125 27.484375 56.78125 20.515625 
Q 56.78125 9.90625 50.3125 4.234375 
Q 43.84375 -1.421875 31.78125 -1.421875 
Q 19.734375 -1.421875 13.25 4.234375 
Q 6.78125 9.90625 6.78125 20.515625 
Q 6.78125 27.484375 10.78125 32.3125 
Q 14.796875 37.15625 21.921875 38.8125 
z
M 18.3125 54.390625 
Q 18.3125 48.734375 21.84375 45.5625 
Q 25.390625 42.390625 31.78125 42.390625 
Q 38.140625 42.390625 41.71875 45.5625 
Q 45.3125 48.734375 45.3125 54.390625 
Q 45.3125 60.0625 41.71875 63.234375 
Q 38.140625 66.40625 31.78125 66.40625 
Q 25.390625 66.40625 21.84375 63.234375 
Q 18.3125 60.0625 18.3125 54.390625 
z
" id="DejaVuSans-56"/>
       </defs>
       <use xlink:href="#DejaVuSans-50"/>
       <use x="63.623047" xlink:href="#DejaVuSans-49"/>
       <use x="127.246094" xlink:href="#DejaVuSans-58"/>
       <use x="160.9375" xlink:href="#DejaVuSans-53"/>
       <use x="224.560547" xlink:href="#DejaVuSans-52"/>
       <use x="288.183594" xlink:href="#DejaVuSans-58"/>
       <use x="321.875" xlink:href="#DejaVuSans-53"/>
       <use x="385.498047" xlink:href="#DejaVuSans-56"/>
      </g>
     </g>
    </g>
    <g id="xtick_4">
     <g id="line2d_4">
      <g>
       <use style="stroke:#000000;stroke-width:0.8;" x="205.317051" xlink:href="#m54afd6cc91" y="448.56"/>
      </g>
     </g>
     <g id="text_4">
      <!-- 21:55:50 -->
      <g transform="translate(208.076426 500.4725)rotate(-90)scale(0.1 -0.1)">
       <use xlink:href="#DejaVuSans-50"/>
       <use x="63.623047" xlink:href="#DejaVuSans-49"/>
       <use x="127.246094" xlink:href="#DejaVuSans-58"/>
       <use x="160.9375" xlink:href="#DejaVuSans-53"/>
       <use x="224.560547" xlink:href="#DejaVuSans-53"/>
       <use x="288.183594" xlink:href="#DejaVuSans-58"/>
       <use x="321.875" xlink:href="#DejaVuSans-53"/>
       <use x="385.498047" xlink:href="#DejaVuSans-48"/>
      </g>
     </g>
    </g>
    <g id="xtick_5">
     <g id="line2d_5">
      <g>
       <use style="stroke:#000000;stroke-width:0.8;" x="229.639704" xlink:href="#m54afd6cc91" y="448.56"/>
      </g>
     </g>
     <g id="text_5">
      <!-- 21:56:41 -->
      <g transform="translate(232.399079 500.4725)rotate(-90)scale(0.1 -0.1)">
       <use xlink:href="#DejaVuSans-50"/>
       <use x="63.623047" xlink:href="#DejaVuSans-49"/>
       <use x="127.246094" xlink:href="#DejaVuSans-58"/>
       <use x="160.9375" xlink:href="#DejaVuSans-53"/>
       <use x="224.560547" xlink:href="#DejaVuSans-54"/>
       <use x="288.183594" xlink:href="#DejaVuSans-58"/>
       <use x="321.875" xlink:href="#DejaVuSans-52"/>
       <use x="385.498047" xlink:href="#DejaVuSans-49"/>
      </g>
     </g>
    </g>
    <g id="xtick_6">
     <g id="line2d_6">
      <g>
       <use style="stroke:#000000;stroke-width:0.8;" x="253.962357" xlink:href="#m54afd6cc91" y="448.56"/>
      </g>
     </g>
     <g id="text_6">
      <!-- 21:57:33 -->
      <g transform="translate(256.721732 500.4725)rotate(-90)scale(0.1 -0.1)">
       <defs>
        <path d="M 8.203125 72.90625 
L 55.078125 72.90625 
L 55.078125 68.703125 
L 28.609375 0 
L 18.3125 0 
L 43.21875 64.59375 
L 8.203125 64.59375 
z
" id="DejaVuSans-55"/>
       </defs>
       <use xlink:href="#DejaVuSans-50"/>
       <use x="63.623047" xlink:href="#DejaVuSans-49"/>
       <use x="127.246094" xlink:href="#DejaVuSans-58"/>
       <use x="160.9375" xlink:href="#DejaVuSans-53"/>
       <use x="224.560547" xlink:href="#DejaVuSans-55"/>
       <use x="288.183594" xlink:href="#DejaVuSans-58"/>
       <use x="321.875" xlink:href="#DejaVuSans-51"/>
       <use x="385.498047" xlink:href="#DejaVuSans-51"/>
      </g>
     </g>
    </g>
    <g id="xtick_7">
     <g id="line2d_7">
      <g>
       <use style="stroke:#000000;stroke-width:0.8;" x="278.28501" xlink:href="#m54afd6cc91" y="448.56"/>
      </g>
     </g>
     <g id="text_7">
      <!-- 21:58:25 -->
      <g transform="translate(281.044385 500.4725)rotate(-90)scale(0.1 -0.1)">
       <use xlink:href="#DejaVuSans-50"/>
       <use x="63.623047" xlink:href="#DejaVuSans-49"/>
       <use x="127.246094" xlink:href="#DejaVuSans-58"/>
       <use x="160.9375" xlink:href="#DejaVuSans-53"/>
       <use x="224.560547" xlink:href="#DejaVuSans-56"/>
       <use x="288.183594" xlink:href="#DejaVuSans-58"/>
       <use x="321.875" xlink:href="#DejaVuSans-50"/>
       <use x="385.498047" xlink:href="#DejaVuSans-53"/>
      </g>
     </g>
    </g>
    <g id="xtick_8">
     <g id="line2d_8">
      <g>
       <use style="stroke:#000000;stroke-width:0.8;" x="302.607664" xlink:href="#m54afd6cc91" y="448.56"/>
      </g>
     </g>
     <g id="text_8">
      <!-- 21:59:17 -->
      <g transform="translate(305.367039 500.4725)rotate(-90)scale(0.1 -0.1)">
       <defs>
        <path d="M 10.984375 1.515625 
L 10.984375 10.5 
Q 14.703125 8.734375 18.5 7.8125 
Q 22.3125 6.890625 25.984375 6.890625 
Q 35.75 6.890625 40.890625 13.453125 
Q 46.046875 20.015625 46.78125 33.40625 
Q 43.953125 29.203125 39.59375 26.953125 
Q 35.25 24.703125 29.984375 24.703125 
Q 19.046875 24.703125 12.671875 31.3125 
Q 6.296875 37.9375 6.296875 49.421875 
Q 6.296875 60.640625 12.9375 67.421875 
Q 19.578125 74.21875 30.609375 74.21875 
Q 43.265625 74.21875 49.921875 64.515625 
Q 56.59375 54.828125 56.59375 36.375 
Q 56.59375 19.140625 48.40625 8.859375 
Q 40.234375 -1.421875 26.421875 -1.421875 
Q 22.703125 -1.421875 18.890625 -0.6875 
Q 15.09375 0.046875 10.984375 1.515625 
z
M 30.609375 32.421875 
Q 37.25 32.421875 41.125 36.953125 
Q 45.015625 41.5 45.015625 49.421875 
Q 45.015625 57.28125 41.125 61.84375 
Q 37.25 66.40625 30.609375 66.40625 
Q 23.96875 66.40625 20.09375 61.84375 
Q 16.21875 57.28125 16.21875 49.421875 
Q 16.21875 41.5 20.09375 36.953125 
Q 23.96875 32.421875 30.609375 32.421875 
z
" id="DejaVuSans-57"/>
       </defs>
       <use xlink:href="#DejaVuSans-50"/>
       <use x="63.623047" xlink:href="#DejaVuSans-49"/>
       <use x="127.246094" xlink:href="#DejaVuSans-58"/>
       <use x="160.9375" xlink:href="#DejaVuSans-53"/>
       <use x="224.560547" xlink:href="#DejaVuSans-57"/>
       <use x="288.183594" xlink:href="#DejaVuSans-58"/>
       <use x="321.875" xlink:href="#DejaVuSans-49"/>
       <use x="385.498047" xlink:href="#DejaVuSans-55"/>
      </g>
     </g>
    </g>
    <g id="xtick_9">
     <g id="line2d_9">
      <g>
       <use style="stroke:#000000;stroke-width:0.8;" x="326.930317" xlink:href="#m54afd6cc91" y="448.56"/>
      </g>
     </g>
     <g id="text_9">
      <!-- 22:00:09 -->
      <g transform="translate(329.689692 500.4725)rotate(-90)scale(0.1 -0.1)">
       <use xlink:href="#DejaVuSans-50"/>
       <use x="63.623047" xlink:href="#DejaVuSans-50"/>
       <use x="127.246094" xlink:href="#DejaVuSans-58"/>
       <use x="160.9375" xlink:href="#DejaVuSans-48"/>
       <use x="224.560547" xlink:href="#DejaVuSans-48"/>
       <use x="288.183594" xlink:href="#DejaVuSans-58"/>
       <use x="321.875" xlink:href="#DejaVuSans-48"/>
       <use x="385.498047" xlink:href="#DejaVuSans-57"/>
      </g>
     </g>
    </g>
    <g id="xtick_10">
     <g id="line2d_10">
      <g>
       <use style="stroke:#000000;stroke-width:0.8;" x="351.25297" xlink:href="#m54afd6cc91" y="448.56"/>
      </g>
     </g>
     <g id="text_10">
      <!-- 22:01:00 -->
      <g transform="translate(354.012345 500.4725)rotate(-90)scale(0.1 -0.1)">
       <use xlink:href="#DejaVuSans-50"/>
       <use x="63.623047" xlink:href="#DejaVuSans-50"/>
       <use x="127.246094" xlink:href="#DejaVuSans-58"/>
       <use x="160.9375" xlink:href="#DejaVuSans-48"/>
       <use x="224.560547" xlink:href="#DejaVuSans-49"/>
       <use x="288.183594" xlink:href="#DejaVuSans-58"/>
       <use x="321.875" xlink:href="#DejaVuSans-48"/>
       <use x="385.498047" xlink:href="#DejaVuSans-48"/>
      </g>
     </g>
    </g>
    <g id="xtick_11">
     <g id="line2d_11">
      <g>
       <use style="stroke:#000000;stroke-width:0.8;" x="375.575623" xlink:href="#m54afd6cc91" y="448.56"/>
      </g>
     </g>
     <g id="text_11">
      <!-- 22:01:52 -->
      <g transform="translate(378.334998 500.4725)rotate(-90)scale(0.1 -0.1)">
       <use xlink:href="#DejaVuSans-50"/>
       <use x="63.623047" xlink:href="#DejaVuSans-50"/>
       <use x="127.246094" xlink:href="#DejaVuSans-58"/>
       <use x="160.9375" xlink:href="#DejaVuSans-48"/>
       <use x="224.560547" xlink:href="#DejaVuSans-49"/>
       <use x="288.183594" xlink:href="#DejaVuSans-58"/>
       <use x="321.875" xlink:href="#DejaVuSans-53"/>
       <use x="385.498047" xlink:href="#DejaVuSans-50"/>
      </g>
     </g>
    </g>
    <g id="xtick_12">
     <g id="line2d_12">
      <g>
       <use style="stroke:#000000;stroke-width:0.8;" x="399.898277" xlink:href="#m54afd6cc91" y="448.56"/>
      </g>
     </g>
     <g id="text_12">
      <!-- 22:02:44 -->
      <g transform="translate(402.657652 500.4725)rotate(-90)scale(0.1 -0.1)">
       <use xlink:href="#DejaVuSans-50"/>
       <use x="63.623047" xlink:href="#DejaVuSans-50"/>
       <use x="127.246094" xlink:href="#DejaVuSans-58"/>
       <use x="160.9375" xlink:href="#DejaVuSans-48"/>
       <use x="224.560547" xlink:href="#DejaVuSans-50"/>
       <use x="288.183594" xlink:href="#DejaVuSans-58"/>
       <use x="321.875" xlink:href="#DejaVuSans-52"/>
       <use x="385.498047" xlink:href="#DejaVuSans-52"/>
      </g>
     </g>
    </g>
    <g id="xtick_13">
     <g id="line2d_13">
      <g>
       <use style="stroke:#000000;stroke-width:0.8;" x="424.22093" xlink:href="#m54afd6cc91" y="448.56"/>
      </g>
     </g>
     <g id="text_13">
      <!-- 22:03:36 -->
      <g transform="translate(426.980305 500.4725)rotate(-90)scale(0.1 -0.1)">
       <use xlink:href="#DejaVuSans-50"/>
       <use x="63.623047" xlink:href="#DejaVuSans-50"/>
       <use x="127.246094" xlink:href="#DejaVuSans-58"/>
       <use x="160.9375" xlink:href="#DejaVuSans-48"/>
       <use x="224.560547" xlink:href="#DejaVuSans-51"/>
       <use x="288.183594" xlink:href="#DejaVuSans-58"/>
       <use x="321.875" xlink:href="#DejaVuSans-51"/>
       <use x="385.498047" xlink:href="#DejaVuSans-54"/>
      </g>
     </g>
    </g>
    <g id="xtick_14">
     <g id="line2d_14">
      <g>
       <use style="stroke:#000000;stroke-width:0.8;" x="448.543583" xlink:href="#m54afd6cc91" y="448.56"/>
      </g>
     </g>
     <g id="text_14">
      <!-- 22:04:28 -->
      <g transform="translate(451.302958 500.4725)rotate(-90)scale(0.1 -0.1)">
       <use xlink:href="#DejaVuSans-50"/>
       <use x="63.623047" xlink:href="#DejaVuSans-50"/>
       <use x="127.246094" xlink:href="#DejaVuSans-58"/>
       <use x="160.9375" xlink:href="#DejaVuSans-48"/>
       <use x="224.560547" xlink:href="#DejaVuSans-52"/>
       <use x="288.183594" xlink:href="#DejaVuSans-58"/>
       <use x="321.875" xlink:href="#DejaVuSans-50"/>
       <use x="385.498047" xlink:href="#DejaVuSans-56"/>
      </g>
     </g>
    </g>
    <g id="xtick_15">
     <g id="line2d_15">
      <g>
       <use style="stroke:#000000;stroke-width:0.8;" x="472.866236" xlink:href="#m54afd6cc91" y="448.56"/>
      </g>
     </g>
     <g id="text_15">
      <!-- 22:05:20 -->
      <g transform="translate(475.625611 500.4725)rotate(-90)scale(0.1 -0.1)">
       <use xlink:href="#DejaVuSans-50"/>
       <use x="63.623047" xlink:href="#DejaVuSans-50"/>
       <use x="127.246094" xlink:href="#DejaVuSans-58"/>
       <use x="160.9375" xlink:href="#DejaVuSans-48"/>
       <use x="224.560547" xlink:href="#DejaVuSans-53"/>
       <use x="288.183594" xlink:href="#DejaVuSans-58"/>
       <use x="321.875" xlink:href="#DejaVuSans-50"/>
       <use x="385.498047" xlink:href="#DejaVuSans-48"/>
      </g>
     </g>
    </g>
    <g id="xtick_16">
     <g id="line2d_16">
      <g>
       <use style="stroke:#000000;stroke-width:0.8;" x="497.18889" xlink:href="#m54afd6cc91" y="448.56"/>
      </g>
     </g>
     <g id="text_16">
      <!-- 22:06:12 -->
      <g transform="translate(499.948265 500.4725)rotate(-90)scale(0.1 -0.1)">
       <use xlink:href="#DejaVuSans-50"/>
       <use x="63.623047" xlink:href="#DejaVuSans-50"/>
       <use x="127.246094" xlink:href="#DejaVuSans-58"/>
       <use x="160.9375" xlink:href="#DejaVuSans-48"/>
       <use x="224.560547" xlink:href="#DejaVuSans-54"/>
       <use x="288.183594" xlink:href="#DejaVuSans-58"/>
       <use x="321.875" xlink:href="#DejaVuSans-49"/>
       <use x="385.498047" xlink:href="#DejaVuSans-50"/>
      </g>
     </g>
    </g>
    <g id="xtick_17">
     <g id="line2d_17">
      <g>
       <use style="stroke:#000000;stroke-width:0.8;" x="521.511543" xlink:href="#m54afd6cc91" y="448.56"/>
      </g>
     </g>
     <g id="text_17">
      <!-- 22:07:04 -->
      <g transform="translate(524.270918 500.4725)rotate(-90)scale(0.1 -0.1)">
       <use xlink:href="#DejaVuSans-50"/>
       <use x="63.623047" xlink:href="#DejaVuSans-50"/>
       <use x="127.246094" xlink:href="#DejaVuSans-58"/>
       <use x="160.9375" xlink:href="#DejaVuSans-48"/>
       <use x="224.560547" xlink:href="#DejaVuSans-55"/>
       <use x="288.183594" xlink:href="#DejaVuSans-58"/>
       <use x="321.875" xlink:href="#DejaVuSans-48"/>
       <use x="385.498047" xlink:href="#DejaVuSans-52"/>
      </g>
     </g>
    </g>
    <g id="xtick_18">
     <g id="line2d_18">
      <g>
       <use style="stroke:#000000;stroke-width:0.8;" x="545.834196" xlink:href="#m54afd6cc91" y="448.56"/>
      </g>
     </g>
     <g id="text_18">
      <!-- 22:07:56 -->
      <g transform="translate(548.593571 500.4725)rotate(-90)scale(0.1 -0.1)">
       <use xlink:href="#DejaVuSans-50"/>
       <use x="63.623047" xlink:href="#DejaVuSans-50"/>
       <use x="127.246094" xlink:href="#DejaVuSans-58"/>
       <use x="160.9375" xlink:href="#DejaVuSans-48"/>
       <use x="224.560547" xlink:href="#DejaVuSans-55"/>
       <use x="288.183594" xlink:href="#DejaVuSans-58"/>
       <use x="321.875" xlink:href="#DejaVuSans-53"/>
       <use x="385.498047" xlink:href="#DejaVuSans-54"/>
      </g>
     </g>
    </g>
    <g id="xtick_19">
     <g id="line2d_19">
      <g>
       <use style="stroke:#000000;stroke-width:0.8;" x="570.156849" xlink:href="#m54afd6cc91" y="448.56"/>
      </g>
     </g>
     <g id="text_19">
      <!-- 22:08:48 -->
      <g transform="translate(572.916224 500.4725)rotate(-90)scale(0.1 -0.1)">
       <use xlink:href="#DejaVuSans-50"/>
       <use x="63.623047" xlink:href="#DejaVuSans-50"/>
       <use x="127.246094" xlink:href="#DejaVuSans-58"/>
       <use x="160.9375" xlink:href="#DejaVuSans-48"/>
       <use x="224.560547" xlink:href="#DejaVuSans-56"/>
       <use x="288.183594" xlink:href="#DejaVuSans-58"/>
       <use x="321.875" xlink:href="#DejaVuSans-52"/>
       <use x="385.498047" xlink:href="#DejaVuSans-56"/>
      </g>
     </g>
    </g>
    <g id="xtick_20">
     <g id="line2d_20">
      <g>
       <use style="stroke:#000000;stroke-width:0.8;" x="594.479503" xlink:href="#m54afd6cc91" y="448.56"/>
      </g>
     </g>
     <g id="text_20">
      <!-- 22:09:39 -->
      <g transform="translate(597.238878 500.4725)rotate(-90)scale(0.1 -0.1)">
       <use xlink:href="#DejaVuSans-50"/>
       <use x="63.623047" xlink:href="#DejaVuSans-50"/>
       <use x="127.246094" xlink:href="#DejaVuSans-58"/>
       <use x="160.9375" xlink:href="#DejaVuSans-48"/>
       <use x="224.560547" xlink:href="#DejaVuSans-57"/>
       <use x="288.183594" xlink:href="#DejaVuSans-58"/>
       <use x="321.875" xlink:href="#DejaVuSans-51"/>
       <use x="385.498047" xlink:href="#DejaVuSans-57"/>
      </g>
     </g>
    </g>
    <g id="xtick_21">
     <g id="line2d_21">
      <g>
       <use style="stroke:#000000;stroke-width:0.8;" x="618.802156" xlink:href="#m54afd6cc91" y="448.56"/>
      </g>
     </g>
     <g id="text_21">
      <!-- 22:10:32 -->
      <g transform="translate(621.561531 500.4725)rotate(-90)scale(0.1 -0.1)">
       <use xlink:href="#DejaVuSans-50"/>
       <use x="63.623047" xlink:href="#DejaVuSans-50"/>
       <use x="127.246094" xlink:href="#DejaVuSans-58"/>
       <use x="160.9375" xlink:href="#DejaVuSans-49"/>
       <use x="224.560547" xlink:href="#DejaVuSans-48"/>
       <use x="288.183594" xlink:href="#DejaVuSans-58"/>
       <use x="321.875" xlink:href="#DejaVuSans-51"/>
       <use x="385.498047" xlink:href="#DejaVuSans-50"/>
      </g>
     </g>
    </g>
    <g id="text_22">
     <!-- timestamp -->
     <g transform="translate(354.264375 510.55125)scale(0.08 -0.08)">
      <defs>
       <path d="M 18.3125 70.21875 
L 18.3125 54.6875 
L 36.8125 54.6875 
L 36.8125 47.703125 
L 18.3125 47.703125 
L 18.3125 18.015625 
Q 18.3125 11.328125 20.140625 9.421875 
Q 21.96875 7.515625 27.59375 7.515625 
L 36.8125 7.515625 
L 36.8125 0 
L 27.59375 0 
Q 17.1875 0 13.234375 3.875 
Q 9.28125 7.765625 9.28125 18.015625 
L 9.28125 47.703125 
L 2.6875 47.703125 
L 2.6875 54.6875 
L 9.28125 54.6875 
L 9.28125 70.21875 
z
" id="DejaVuSans-116"/>
       <path d="M 9.421875 54.6875 
L 18.40625 54.6875 
L 18.40625 0 
L 9.421875 0 
z
M 9.421875 75.984375 
L 18.40625 75.984375 
L 18.40625 64.59375 
L 9.421875 64.59375 
z
" id="DejaVuSans-105"/>
       <path d="M 52 44.1875 
Q 55.375 50.25 60.0625 53.125 
Q 64.75 56 71.09375 56 
Q 79.640625 56 84.28125 50.015625 
Q 88.921875 44.046875 88.921875 33.015625 
L 88.921875 0 
L 79.890625 0 
L 79.890625 32.71875 
Q 79.890625 40.578125 77.09375 44.375 
Q 74.3125 48.1875 68.609375 48.1875 
Q 61.625 48.1875 57.5625 43.546875 
Q 53.515625 38.921875 53.515625 30.90625 
L 53.515625 0 
L 44.484375 0 
L 44.484375 32.71875 
Q 44.484375 40.625 41.703125 44.40625 
Q 38.921875 48.1875 33.109375 48.1875 
Q 26.21875 48.1875 22.15625 43.53125 
Q 18.109375 38.875 18.109375 30.90625 
L 18.109375 0 
L 9.078125 0 
L 9.078125 54.6875 
L 18.109375 54.6875 
L 18.109375 46.1875 
Q 21.1875 51.21875 25.484375 53.609375 
Q 29.78125 56 35.6875 56 
Q 41.65625 56 45.828125 52.96875 
Q 50 49.953125 52 44.1875 
z
" id="DejaVuSans-109"/>
       <path d="M 56.203125 29.59375 
L 56.203125 25.203125 
L 14.890625 25.203125 
Q 15.484375 15.921875 20.484375 11.0625 
Q 25.484375 6.203125 34.421875 6.203125 
Q 39.59375 6.203125 44.453125 7.46875 
Q 49.3125 8.734375 54.109375 11.28125 
L 54.109375 2.78125 
Q 49.265625 0.734375 44.1875 -0.34375 
Q 39.109375 -1.421875 33.890625 -1.421875 
Q 20.796875 -1.421875 13.15625 6.1875 
Q 5.515625 13.8125 5.515625 26.8125 
Q 5.515625 40.234375 12.765625 48.109375 
Q 20.015625 56 32.328125 56 
Q 43.359375 56 49.78125 48.890625 
Q 56.203125 41.796875 56.203125 29.59375 
z
M 47.21875 32.234375 
Q 47.125 39.59375 43.09375 43.984375 
Q 39.0625 48.390625 32.421875 48.390625 
Q 24.90625 48.390625 20.390625 44.140625 
Q 15.875 39.890625 15.1875 32.171875 
z
" id="DejaVuSans-101"/>
       <path d="M 44.28125 53.078125 
L 44.28125 44.578125 
Q 40.484375 46.53125 36.375 47.5 
Q 32.28125 48.484375 27.875 48.484375 
Q 21.1875 48.484375 17.84375 46.4375 
Q 14.5 44.390625 14.5 40.28125 
Q 14.5 37.15625 16.890625 35.375 
Q 19.28125 33.59375 26.515625 31.984375 
L 29.59375 31.296875 
Q 39.15625 29.25 43.1875 25.515625 
Q 47.21875 21.78125 47.21875 15.09375 
Q 47.21875 7.46875 41.1875 3.015625 
Q 35.15625 -1.421875 24.609375 -1.421875 
Q 20.21875 -1.421875 15.453125 -0.5625 
Q 10.6875 0.296875 5.421875 2 
L 5.421875 11.28125 
Q 10.40625 8.6875 15.234375 7.390625 
Q 20.0625 6.109375 24.8125 6.109375 
Q 31.15625 6.109375 34.5625 8.28125 
Q 37.984375 10.453125 37.984375 14.40625 
Q 37.984375 18.0625 35.515625 20.015625 
Q 33.0625 21.96875 24.703125 23.78125 
L 21.578125 24.515625 
Q 13.234375 26.265625 9.515625 29.90625 
Q 5.8125 33.546875 5.8125 39.890625 
Q 5.8125 47.609375 11.28125 51.796875 
Q 16.75 56 26.8125 56 
Q 31.78125 56 36.171875 55.265625 
Q 40.578125 54.546875 44.28125 53.078125 
z
" id="DejaVuSans-115"/>
       <path d="M 34.28125 27.484375 
Q 23.390625 27.484375 19.1875 25 
Q 14.984375 22.515625 14.984375 16.5 
Q 14.984375 11.71875 18.140625 8.90625 
Q 21.296875 6.109375 26.703125 6.109375 
Q 34.1875 6.109375 38.703125 11.40625 
Q 43.21875 16.703125 43.21875 25.484375 
L 43.21875 27.484375 
z
M 52.203125 31.203125 
L 52.203125 0 
L 43.21875 0 
L 43.21875 8.296875 
Q 40.140625 3.328125 35.546875 0.953125 
Q 30.953125 -1.421875 24.3125 -1.421875 
Q 15.921875 -1.421875 10.953125 3.296875 
Q 6 8.015625 6 15.921875 
Q 6 25.140625 12.171875 29.828125 
Q 18.359375 34.515625 30.609375 34.515625 
L 43.21875 34.515625 
L 43.21875 35.40625 
Q 43.21875 41.609375 39.140625 45 
Q 35.0625 48.390625 27.6875 48.390625 
Q 23 48.390625 18.546875 47.265625 
Q 14.109375 46.140625 10.015625 43.890625 
L 10.015625 52.203125 
Q 14.9375 54.109375 19.578125 55.046875 
Q 24.21875 56 28.609375 56 
Q 40.484375 56 46.34375 49.84375 
Q 52.203125 43.703125 52.203125 31.203125 
z
" id="DejaVuSans-97"/>
       <path d="M 18.109375 8.203125 
L 18.109375 -20.796875 
L 9.078125 -20.796875 
L 9.078125 54.6875 
L 18.109375 54.6875 
L 18.109375 46.390625 
Q 20.953125 51.265625 25.265625 53.625 
Q 29.59375 56 35.59375 56 
Q 45.5625 56 51.78125 48.09375 
Q 58.015625 40.1875 58.015625 27.296875 
Q 58.015625 14.40625 51.78125 6.484375 
Q 45.5625 -1.421875 35.59375 -1.421875 
Q 29.59375 -1.421875 25.265625 0.953125 
Q 20.953125 3.328125 18.109375 8.203125 
z
M 48.6875 27.296875 
Q 48.6875 37.203125 44.609375 42.84375 
Q 40.53125 48.484375 33.40625 48.484375 
Q 26.265625 48.484375 22.1875 42.84375 
Q 18.109375 37.203125 18.109375 27.296875 
Q 18.109375 17.390625 22.1875 11.75 
Q 26.265625 6.109375 33.40625 6.109375 
Q 40.53125 6.109375 44.609375 11.75 
Q 48.6875 17.390625 48.6875 27.296875 
z
" id="DejaVuSans-112"/>
      </defs>
      <use xlink:href="#DejaVuSans-116"/>
      <use x="39.208984" xlink:href="#DejaVuSans-105"/>
      <use x="66.992188" xlink:href="#DejaVuSans-109"/>
      <use x="164.404297" xlink:href="#DejaVuSans-101"/>
      <use x="225.927734" xlink:href="#DejaVuSans-115"/>
      <use x="278.027344" xlink:href="#DejaVuSans-116"/>
      <use x="317.236328" xlink:href="#DejaVuSans-97"/>
      <use x="378.515625" xlink:href="#DejaVuSans-109"/>
      <use x="475.927734" xlink:href="#DejaVuSans-112"/>
     </g>
    </g>
   </g>
   <g id="matplotlib.axis_2">
    <g id="ytick_1">
     <g id="line2d_22">
      <defs>
       <path d="M 0 0 
L -3.5 0 
" id="m2ef3ceb3b9" style="stroke:#000000;stroke-width:0.8;"/>
      </defs>
      <g>
       <use style="stroke:#000000;stroke-width:0.8;" x="108" xlink:href="#m2ef3ceb3b9" y="368.631132"/>
      </g>
     </g>
     <g id="text_23">
      <!-- 13200 -->
      <g transform="translate(69.1875 372.43035)scale(0.1 -0.1)">
       <use xlink:href="#DejaVuSans-49"/>
       <use x="63.623047" xlink:href="#DejaVuSans-51"/>
       <use x="127.246094" xlink:href="#DejaVuSans-50"/>
       <use x="190.869141" xlink:href="#DejaVuSans-48"/>
       <use x="254.492188" xlink:href="#DejaVuSans-48"/>
      </g>
     </g>
    </g>
    <g id="ytick_2">
     <g id="line2d_23">
      <g>
       <use style="stroke:#000000;stroke-width:0.8;" x="108" xlink:href="#m2ef3ceb3b9" y="285.290642"/>
      </g>
     </g>
     <g id="text_24">
      <!-- 13400 -->
      <g transform="translate(69.1875 289.089861)scale(0.1 -0.1)">
       <use xlink:href="#DejaVuSans-49"/>
       <use x="63.623047" xlink:href="#DejaVuSans-51"/>
       <use x="127.246094" xlink:href="#DejaVuSans-52"/>
       <use x="190.869141" xlink:href="#DejaVuSans-48"/>
       <use x="254.492188" xlink:href="#DejaVuSans-48"/>
      </g>
     </g>
    </g>
    <g id="ytick_3">
     <g id="line2d_24">
      <g>
       <use style="stroke:#000000;stroke-width:0.8;" x="108" xlink:href="#m2ef3ceb3b9" y="201.950153"/>
      </g>
     </g>
     <g id="text_25">
      <!-- 13600 -->
      <g transform="translate(69.1875 205.749371)scale(0.1 -0.1)">
       <use xlink:href="#DejaVuSans-49"/>
       <use x="63.623047" xlink:href="#DejaVuSans-51"/>
       <use x="127.246094" xlink:href="#DejaVuSans-54"/>
       <use x="190.869141" xlink:href="#DejaVuSans-48"/>
       <use x="254.492188" xlink:href="#DejaVuSans-48"/>
      </g>
     </g>
    </g>
    <g id="ytick_4">
     <g id="line2d_25">
      <g>
       <use style="stroke:#000000;stroke-width:0.8;" x="108" xlink:href="#m2ef3ceb3b9" y="118.609663"/>
      </g>
     </g>
     <g id="text_26">
      <!-- 13800 -->
      <g transform="translate(69.1875 122.408882)scale(0.1 -0.1)">
       <use xlink:href="#DejaVuSans-49"/>
       <use x="63.623047" xlink:href="#DejaVuSans-51"/>
       <use x="127.246094" xlink:href="#DejaVuSans-56"/>
       <use x="190.869141" xlink:href="#DejaVuSans-48"/>
       <use x="254.492188" xlink:href="#DejaVuSans-48"/>
      </g>
     </g>
    </g>
    <g id="text_27">
     <!-- MB -->
     <g transform="translate(63.52375 260.715625)rotate(-90)scale(0.08 -0.08)">
      <defs>
       <path d="M 9.8125 72.90625 
L 24.515625 72.90625 
L 43.109375 23.296875 
L 61.8125 72.90625 
L 76.515625 72.90625 
L 76.515625 0 
L 66.890625 0 
L 66.890625 64.015625 
L 48.09375 14.015625 
L 38.1875 14.015625 
L 19.390625 64.015625 
L 19.390625 0 
L 9.8125 0 
z
" id="DejaVuSans-77"/>
       <path d="M 19.671875 34.8125 
L 19.671875 8.109375 
L 35.5 8.109375 
Q 43.453125 8.109375 47.28125 11.40625 
Q 51.125 14.703125 51.125 21.484375 
Q 51.125 28.328125 47.28125 31.5625 
Q 43.453125 34.8125 35.5 34.8125 
z
M 19.671875 64.796875 
L 19.671875 42.828125 
L 34.28125 42.828125 
Q 41.5 42.828125 45.03125 45.53125 
Q 48.578125 48.25 48.578125 53.8125 
Q 48.578125 59.328125 45.03125 62.0625 
Q 41.5 64.796875 34.28125 64.796875 
z
M 9.8125 72.90625 
L 35.015625 72.90625 
Q 46.296875 72.90625 52.390625 68.21875 
Q 58.5 63.53125 58.5 54.890625 
Q 58.5 48.1875 55.375 44.234375 
Q 52.25 40.28125 46.1875 39.3125 
Q 53.46875 37.75 57.5 32.78125 
Q 61.53125 27.828125 61.53125 20.40625 
Q 61.53125 10.640625 54.890625 5.3125 
Q 48.25 0 35.984375 0 
L 9.8125 0 
z
" id="DejaVuSans-66"/>
      </defs>
      <use xlink:href="#DejaVuSans-77"/>
      <use x="86.279297" xlink:href="#DejaVuSans-66"/>
     </g>
    </g>
   </g>
   <g id="line2d_26">
    <path clip-path="url(#p58cf10c3dc)" d="M 132.349091 78.12 
L 132.877844 83.388932 
L 133.406598 82.281211 
L 133.935351 80.523193 
L 134.464104 87.681568 
L 134.992858 87.287294 
L 135.521611 80.828713 
L 136.050364 80.292773 
L 136.579118 79.080936 
L 137.107871 81.600192 
L 137.636624 80.381528 
L 138.165378 78.154136 
L 139.222884 125.651335 
L 139.751638 153.823994 
L 140.280391 214.340763 
L 140.809144 245.061695 
L 141.337898 267.502875 
L 143.452911 386.218562 
L 143.981664 387.851982 
L 144.510418 393.175532 
L 145.039171 391.919318 
L 145.567924 391.497735 
L 146.096678 390.267123 
L 146.625431 391.659882 
L 147.154184 392.264094 
L 147.682938 390.833785 
L 148.211691 390.630674 
L 148.740444 389.413716 
L 149.269198 392.163392 
L 149.797951 392.313592 
L 150.326704 392.701038 
L 150.855458 390.774046 
L 151.384211 390.494129 
L 151.912964 390.898644 
L 152.441718 391.525044 
L 153.499224 388.937515 
L 154.027977 393.028746 
L 154.556731 393.286475 
L 155.085484 393.295009 
L 155.614237 391.564301 
L 156.142991 392.567907 
L 156.671744 392.48598 
L 157.200497 391.567714 
L 157.729251 389.388114 
L 158.258004 389.019442 
L 159.315511 392.467205 
L 159.844264 391.738396 
L 160.373017 391.651348 
L 160.901771 389.918933 
L 161.430524 392.340901 
L 161.959277 389.946242 
L 162.488031 388.550069 
L 163.016784 388.754886 
L 163.545537 390.751858 
L 164.074291 393.404245 
L 164.603044 391.813495 
L 165.131797 392.011486 
L 165.660551 390.961796 
L 166.189304 392.530357 
L 166.718057 392.808568 
L 167.246811 392.25044 
L 167.775564 389.869435 
L 168.304317 390.403668 
L 168.833071 393.143103 
L 169.361824 393.250632 
L 169.890577 391.014707 
L 170.419331 390.919125 
L 170.948084 390.192023 
L 171.476837 393.216496 
L 172.005591 393.206255 
L 172.534344 391.077859 
L 173.063097 389.843833 
L 173.591851 393.679042 
L 174.120604 393.143103 
L 175.178111 391.492615 
L 175.706864 389.96843 
L 176.235617 392.690797 
L 176.764371 392.719813 
L 177.293124 392.59863 
L 177.821877 389.401768 
L 178.350631 392.059277 
L 178.879384 391.835684 
L 179.408137 391.874941 
L 180.465644 390.116923 
L 180.994397 390.927659 
L 181.523151 391.228058 
L 182.051904 390.652862 
L 182.580657 389.371046 
L 183.109411 390.912298 
L 183.638164 393.581754 
L 185.224424 390.972037 
L 185.753177 393.085071 
L 186.810684 393.015092 
L 187.339437 393.177239 
L 187.868191 390.296138 
L 188.396944 393.923117 
L 188.925697 393.699524 
L 189.454451 392.484273 
L 189.983204 390.555574 
L 190.511957 391.622332 
L 191.040711 391.332174 
L 191.569464 390.801355 
L 192.098217 389.717529 
L 192.626971 389.837006 
L 193.155724 392.955353 
L 193.684477 392.987783 
L 194.213231 392.859772 
L 194.741984 391.731568 
L 195.270737 391.250247 
L 195.799491 391.979056 
L 196.856997 391.274142 
L 197.385751 390.34905 
L 197.914504 393.508361 
L 198.443257 393.871912 
L 198.972011 393.595408 
L 199.500764 391.190509 
L 200.029517 391.47384 
L 200.558271 392.991197 
L 201.087024 393.172119 
L 201.615777 390.144232 
L 202.144531 390.116923 
L 202.673284 391.076152 
L 203.202037 395.645291 
L 204.259544 395.08887 
L 204.788297 393.201135 
L 205.317051 392.038795 
L 205.845804 391.804961 
L 206.374557 391.895422 
L 206.903311 389.15428 
L 207.432064 394.206448 
L 207.960817 396.357032 
L 208.489571 396.585745 
L 209.018324 391.368017 
L 209.547077 390.943021 
L 210.075831 394.00675 
L 211.133337 392.936579 
L 211.662091 392.357969 
L 212.190844 390.137405 
L 212.719597 393.38547 
L 213.248351 393.605649 
L 213.777104 391.820323 
L 214.305857 391.291211 
L 215.363364 394.416386 
L 215.892117 394.991582 
L 216.420871 393.33768 
L 216.949624 392.183874 
L 217.478377 392.955353 
L 218.007131 393.935064 
L 218.535884 392.846117 
L 219.064637 392.503048 
L 219.593391 390.755271 
L 220.122144 393.622717 
L 220.650897 392.888788 
L 221.179651 391.274142 
L 221.708404 390.335395 
L 222.237157 391.368017 
L 222.765911 392.653248 
L 223.294664 392.313592 
L 223.823417 391.067618 
L 224.352171 391.362897 
L 224.880924 390.929366 
L 225.938431 390.615313 
L 226.467184 389.010908 
L 226.995937 388.611514 
L 227.524691 391.475546 
L 228.053444 391.540405 
L 228.582197 391.20587 
L 229.110951 389.927467 
L 229.639704 391.477253 
L 230.168457 393.537377 
L 230.697211 393.711472 
L 231.225964 392.004659 
L 231.754717 390.855973 
L 232.283471 394.071609 
L 232.812224 392.407466 
L 233.340977 392.433069 
L 233.869731 390.81501 
L 234.398484 390.867921 
L 234.927237 392.028554 
L 235.455991 392.130963 
L 235.984744 391.951747 
L 236.513497 390.291018 
L 237.042251 395.186158 
L 238.099757 394.931843 
L 238.628511 393.066296 
L 239.157264 391.909077 
L 239.686017 395.309049 
L 240.214771 395.20664 
L 240.743524 394.018698 
L 241.272277 392.351142 
L 241.801031 392.682263 
L 242.329784 394.295202 
L 243.38729 393.487879 
L 243.916044 392.455257 
L 244.444797 394.969393 
L 244.97355 394.213275 
L 245.502304 393.88898 
L 246.031057 391.357776 
L 246.55981 391.461892 
L 247.088564 395.664066 
L 247.617317 394.861864 
L 248.14607 394.977927 
L 248.674824 392.124135 
L 249.203577 393.364989 
L 250.261084 393.817294 
L 250.789837 391.886888 
L 251.31859 391.690605 
L 251.847344 396.710343 
L 252.376097 396.089063 
L 252.90485 393.68587 
L 253.433604 393.477638 
L 253.962357 394.00163 
L 254.49111 391.635987 
L 255.548617 392.037088 
L 256.07737 390.374652 
L 256.606124 393.388884 
L 257.134877 393.093605 
L 257.66363 393.141396 
L 258.192384 393.484466 
L 258.721137 391.381672 
L 259.24989 395.167383 
L 259.778644 394.989875 
L 260.307397 395.203226 
L 260.83615 392.719813 
L 261.364904 393.421313 
L 261.893657 395.894486 
L 262.42241 395.961052 
L 263.479917 393.276234 
L 264.00867 395.31929 
L 264.537424 395.041079 
L 265.066177 394.50514 
L 265.59493 394.264479 
L 266.123684 393.025333 
L 266.652437 395.129834 
L 267.709944 392.520116 
L 268.238697 392.001245 
L 268.76745 393.052642 
L 269.296204 393.394004 
L 269.824957 393.440088 
L 270.35371 391.816909 
L 270.882464 391.968815 
L 271.411217 394.131348 
L 271.93997 393.566393 
L 272.468724 392.059277 
L 272.997477 391.610385 
L 273.52623 393.120914 
L 274.054984 399.364437 
L 274.583737 399.990838 
L 275.11249 399.664836 
L 275.641244 393.457157 
L 276.169997 396.660845 
L 276.69875 395.810852 
L 277.227504 395.699909 
L 277.756257 393.424727 
L 278.28501 393.115794 
L 278.813764 400.897155 
L 279.342517 399.586323 
L 279.87127 399.002593 
L 280.400024 398.150893 
L 280.928777 402.19092 
L 281.45753 402.721739 
L 281.986284 402.607382 
L 282.515037 402.679068 
L 283.04379 401.748855 
L 283.572544 402.370135 
L 284.63005 402.81732 
L 285.158804 400.318546 
L 285.687557 401.325566 
L 286.21631 405.348524 
L 286.745064 404.880857 
L 287.273817 401.861505 
L 287.80257 402.016825 
L 288.331324 402.556178 
L 288.860077 402.511801 
L 289.38883 405.951029 
L 289.917584 406.406748 
L 290.446337 405.701835 
L 290.97509 408.818476 
L 291.503844 403.648538 
L 292.032597 403.638297 
L 292.56135 402.349653 
L 293.090104 403.204767 
L 293.618857 401.081491 
L 294.676364 401.158298 
L 295.205117 399.681904 
L 295.73387 403.863597 
L 296.262624 402.991415 
L 296.791377 402.648346 
L 297.32013 401.158298 
L 297.848884 402.257486 
L 298.377637 410.595268 
L 298.90639 410.27268 
L 299.435144 409.584835 
L 299.963897 407.773906 
L 300.49265 410.945165 
L 301.021404 411.153396 
L 301.550157 410.882013 
L 302.07891 409.147891 
L 302.607664 409.328813 
L 303.136417 410.033727 
L 303.66517 410.062742 
L 304.722677 408.712653 
L 305.25143 411.82076 
L 305.780184 410.511634 
L 306.308937 410.233424 
L 306.83769 408.775805 
L 307.366444 408.780926 
L 307.895197 409.158131 
L 308.42395 409.004518 
L 308.952704 408.461752 
L 309.481457 407.258448 
L 310.01021 408.260348 
L 310.538964 408.914057 
L 311.067717 408.796287 
L 311.59647 407.748304 
L 312.125224 409.10522 
L 312.653977 408.931125 
L 313.18273 408.244986 
L 313.711484 408.134043 
L 314.240237 408.217677 
L 314.76899 406.49721 
L 315.297744 409.982522 
L 316.35525 407.386459 
L 316.884004 406.910258 
L 317.412757 408.045289 
L 317.94151 410.986128 
L 318.470264 410.491153 
L 318.999017 409.509735 
L 319.52777 408.082839 
L 320.056524 409.584835 
L 320.585277 409.927904 
L 321.11403 409.757223 
L 321.642784 407.125317 
L 322.171537 406.493796 
L 322.70029 409.337347 
L 323.229044 407.688565 
L 323.757797 407.811456 
L 324.28655 406.985358 
L 324.815304 406.903431 
L 325.344057 409.888647 
L 325.87281 409.816961 
L 326.401564 407.738063 
L 326.930317 406.394801 
L 327.45907 410.359728 
L 327.987824 409.950093 
L 328.516577 410.212942 
L 329.04533 408.808235 
L 329.574084 408.178421 
L 330.102837 410.131015 
L 330.63159 410.34778 
L 331.160344 410.339246 
L 331.689097 408.927712 
L 332.21785 411.015144 
L 332.746603 411.033919 
L 333.275357 410.892254 
L 333.80411 408.934539 
L 334.332863 407.756838 
L 334.861617 410.393864 
L 335.39037 410.508221 
L 336.447877 407.301119 
L 336.97663 408.541972 
L 337.505383 411.102192 
L 338.034137 409.473892 
L 338.56289 409.123995 
L 339.091643 407.369391 
L 340.14915 406.922206 
L 340.677903 407.135558 
L 341.206657 406.927327 
L 341.73541 405.899825 
L 342.264163 408.927712 
L 342.792917 408.995984 
L 343.32167 408.123803 
L 343.850423 406.643996 
L 344.379177 415.353863 
L 344.90793 415.437497 
L 345.436683 415.329968 
L 345.965437 408.989157 
L 346.49419 409.076204 
L 347.022943 412.699769 
L 347.551697 412.48471 
L 348.08045 410.538943 
L 348.609203 415.053464 
L 349.66671 415.282177 
L 350.195463 415.545026 
L 350.724217 414.066926 
L 351.25297 418.095005 
L 351.781723 419.882039 
L 352.310477 420.672293 
L 352.83923 421.051206 
L 353.367983 420.957331 
L 353.896737 419.19078 
L 354.42549 421.087049 
L 354.954243 419.527022 
L 355.482997 417.33206 
L 356.01175 416.874634 
L 356.540503 420.279726 
L 357.069257 421.020483 
L 357.59801 419.631137 
L 358.126763 419.588467 
L 358.655517 418.472211 
L 359.18427 420.271192 
L 359.713023 419.987861 
L 360.241777 420.296795 
L 360.77053 422.03433 
L 361.299283 425.014426 
L 361.828037 424.644048 
L 362.35679 426.045341 
L 362.885543 428.888892 
L 363.414297 425.755183 
L 363.94305 428.24201 
L 364.471803 429.022024 
L 365.000557 427.101859 
L 365.52931 427.246938 
L 366.058063 427.593421 
L 366.586817 430.288479 
L 367.11557 430.92 
L 367.644323 428.86329 
L 368.173077 409.426101 
L 368.70183 411.313837 
L 369.230583 411.109019 
L 370.28809 408.772392 
L 370.816843 408.547092 
L 371.345597 412.544449 
L 371.87435 412.650271 
L 372.931857 410.46043 
L 373.46061 410.453603 
L 373.989363 410.965647 
L 374.518117 410.755709 
L 375.575623 407.888262 
L 376.104377 412.489831 
L 377.161883 413.039425 
L 377.690637 410.439948 
L 378.21939 409.902302 
L 378.748143 409.531924 
L 379.276897 409.673589 
L 379.80565 409.620678 
L 380.334403 408.123803 
L 380.863157 412.209913 
L 381.39191 412.47959 
L 381.920663 412.020457 
L 382.449417 410.407519 
L 382.97817 410.23001 
L 383.506923 412.01363 
L 384.035677 411.520361 
L 384.56443 411.214841 
L 385.093183 409.816961 
L 386.15069 412.609308 
L 387.208197 412.576878 
L 387.73695 410.839342 
L 388.265703 412.116039 
L 388.794457 411.86343 
L 389.851963 410.079811 
L 390.380717 410.238544 
L 390.90947 413.539521 
L 391.438223 413.413217 
L 391.966977 413.804077 
L 392.49573 411.641545 
L 393.024483 410.393864 
L 393.553237 412.107505 
L 394.08199 412.259411 
L 394.610743 412.0563 
L 395.139497 410.994662 
L 395.66825 412.372061 
L 396.197003 412.066541 
L 396.725757 409.1752 
L 397.25451 409.422687 
L 397.783263 409.808427 
L 398.312017 412.43692 
L 398.84077 411.912928 
L 399.369523 410.127601 
L 399.898277 410.393864 
L 400.42703 415.326554 
L 400.955783 413.423458 
L 401.484537 413.225467 
L 402.01329 410.911029 
L 402.542043 410.651593 
L 403.070797 410.233424 
L 403.59955 410.839342 
L 404.128303 410.298283 
L 404.657057 409.275902 
L 405.18581 411.854896 
L 405.714563 413.431992 
L 406.243317 413.397855 
L 406.77207 412.653685 
L 407.300823 411.549377 
L 407.829577 412.991634 
L 408.35833 413.017236 
L 408.887083 410.970767 
L 409.415837 410.146376 
L 409.94459 410.515048 
L 410.473343 415.085894 
L 411.002097 414.452666 
L 412.059603 412.320856 
L 413.11711 413.843334 
L 413.645863 413.474662 
L 414.174617 412.851675 
L 414.70337 417.231358 
L 415.232123 420.080029 
L 415.760877 419.735253 
L 416.28963 414.824751 
L 416.818383 413.633396 
L 417.347137 411.605702 
L 417.87589 414.270037 
L 418.404643 413.123059 
L 418.933397 412.904586 
L 419.46215 411.899273 
L 419.990903 413.271551 
L 420.519656 412.471056 
L 421.04841 412.477883 
L 421.577163 411.423073 
L 422.105916 411.728592 
L 422.63467 412.303788 
L 423.692176 411.911221 
L 424.22093 410.378503 
L 424.749683 413.036011 
L 425.278436 413.746045 
L 425.80719 413.41663 
L 426.335943 412.631496 
L 426.864696 411.641545 
L 427.39345 412.901173 
L 427.922203 412.145055 
L 428.450956 411.883912 
L 428.97971 410.166858 
L 429.508463 411.972666 
L 430.037216 413.080388 
L 431.094723 413.264724 
L 431.623476 412.51714 
L 432.15223 412.718544 
L 433.209736 412.776575 
L 434.267243 410.344367 
L 434.795996 413.548055 
L 435.32475 413.653877 
L 435.853503 413.556589 
L 436.382256 412.162123 
L 436.91101 412.320856 
L 437.439763 413.44906 
L 437.968516 412.631496 
L 438.49727 419.931536 
L 439.026023 418.052335 
L 439.554776 421.68102 
L 440.08353 421.98654 
L 440.612283 419.946898 
L 441.141036 419.680635 
L 441.66979 418.286169 
L 442.198543 421.228715 
L 442.727296 421.182631 
L 443.25605 420.730325 
L 443.784803 418.726526 
L 444.313556 421.126306 
L 444.84231 418.929637 
L 445.371063 418.716285 
L 445.899816 417.477139 
L 446.42857 418.060869 
L 446.957323 420.871991 
L 447.486076 420.836147 
L 448.01483 420.419685 
L 448.543583 418.393698 
L 449.072336 419.735253 
L 449.60109 422.150394 
L 450.129843 429.365093 
L 450.658596 429.402643 
L 451.18735 425.768838 
L 452.244856 426.362809 
L 452.77361 425.599863 
L 453.302363 424.271962 
L 453.831116 419.124214 
L 454.35987 420.827613 
L 454.888623 420.713257 
L 455.94613 418.402232 
L 456.474883 422.793862 
L 457.003636 422.821171 
L 457.53239 421.401103 
L 458.061143 420.94197 
L 458.589896 419.863264 
L 459.11865 424.073972 
L 459.647403 424.200276 
L 460.176156 422.546374 
L 460.70491 422.34497 
L 461.233663 421.848288 
L 461.762416 424.399973 
L 462.29117 423.724075 
L 462.819923 423.336629 
L 463.348676 421.3755 
L 463.87743 425.657895 
L 464.406183 425.951467 
L 464.934936 424.239533 
L 465.46369 423.759919 
L 465.992443 424.024475 
L 466.521196 428.356367 
L 467.04995 427.241818 
L 467.578703 424.505796 
L 468.107456 424.248067 
L 468.63621 428.310283 
L 469.164963 426.927764 
L 469.693716 426.299657 
L 470.22247 424.98541 
L 470.751223 424.558707 
L 471.279976 425.226071 
L 471.80873 425.258501 
L 472.337483 424.152486 
L 472.866236 423.852086 
L 473.39499 424.256601 
L 473.923743 426.154577 
L 474.452496 425.750063 
L 474.98125 425.688617 
L 475.510003 424.219051 
L 476.038756 426.885094 
L 477.096263 425.058803 
L 477.625016 423.783814 
L 478.15377 425.721047 
L 478.682523 423.974977 
L 479.211276 423.222272 
L 479.74003 422.855308 
L 480.268783 422.143566 
L 480.797536 425.492334 
L 481.32629 425.700565 
L 481.855043 424.67477 
L 482.91255 424.794247 
L 483.441303 425.942933 
L 483.970056 425.538418 
L 484.49881 430.394302 
L 485.027563 426.787805 
L 485.556316 430.083662 
L 486.08507 430.850021 
L 486.613823 425.758597 
L 487.142576 423.213738 
L 487.67133 423.252995 
L 488.200083 425.255087 
L 488.728836 428.474137 
L 489.25759 428.351246 
L 489.786343 427.093325 
L 490.315096 424.729388 
L 490.84385 426.967021 
L 491.372603 426.932884 
L 491.901356 425.494041 
L 492.43011 425.325066 
L 492.958863 424.382905 
L 494.01637 423.099382 
L 494.545123 423.326388 
L 495.073876 419.876918 
L 495.60263 423.410022 
L 496.660136 423.077193 
L 497.18889 420.284847 
L 497.717643 421.387448 
L 498.246396 425.744942 
L 498.77515 424.164433 
L 499.303903 423.03623 
L 499.832656 421.409637 
L 500.36141 424.289031 
L 501.418916 422.887737 
L 501.94767 421.056326 
L 502.476423 422.18453 
L 503.005176 422.42007 
L 503.53393 422.128205 
L 504.062683 421.197992 
L 504.591436 421.739052 
L 505.12019 422.003608 
L 505.648943 420.592073 
L 506.177696 420.726911 
L 506.70645 420.271192 
L 507.235203 419.057648 
L 507.763956 422.013849 
L 508.29271 422.135032 
L 508.821463 420.716671 
L 509.350216 420.554523 
L 509.878969 420.59378 
L 510.407723 422.611233 
L 510.936476 422.343264 
L 511.993983 420.330931 
L 512.522736 424.249774 
L 513.051489 424.280497 
L 513.580243 423.901584 
L 514.108996 420.535748 
L 514.637749 420.366774 
L 515.166503 423.717248 
L 515.695256 422.9287 
L 516.224009 421.110944 
L 516.752763 420.726911 
L 517.281516 423.210325 
L 517.810269 419.97762 
L 518.339023 420.151715 
L 518.867776 419.04058 
L 519.396529 418.832349 
L 520.454036 420.457235 
L 520.982789 419.474111 
L 521.511543 417.045315 
L 522.040296 416.936079 
L 522.569049 419.590174 
L 523.097803 419.847903 
L 523.626556 417.968701 
L 524.155309 416.990697 
L 524.684063 417.753643 
L 525.212816 418.873312 
L 525.741569 416.82855 
L 526.270323 416.82855 
L 526.799076 415.130271 
L 527.327829 418.909155 
L 527.856583 417.338887 
L 528.385336 416.185081 
L 528.914089 416.531565 
L 529.442843 417.95334 
L 529.971596 417.313285 
L 530.500349 416.948027 
L 531.029103 415.758378 
L 531.557856 415.324848 
L 532.086609 418.077937 
L 532.615363 417.468605 
L 533.144116 416.666403 
L 533.672869 414.369032 
L 534.201623 415.946128 
L 534.730376 416.340401 
L 535.787883 416.396726 
L 536.316636 415.254868 
L 536.845389 418.328839 
L 537.374143 417.268908 
L 537.902896 416.879754 
L 538.431649 415.915405 
L 538.960403 414.672845 
L 539.489156 414.508991 
L 540.017909 414.502164 
L 540.546663 413.845041 
L 541.075416 412.551276 
L 541.604169 413.455887 
L 542.132923 415.650849 
L 542.661676 414.362205 
L 543.190429 414.200058 
L 543.719183 412.858502 
L 544.247936 414.763306 
L 544.776689 415.382879 
L 545.834196 412.064834 
L 546.362949 412.537622 
L 546.891703 415.635488 
L 547.420456 415.183182 
L 547.949209 415.070532 
L 548.477963 413.507091 
L 549.006716 414.657484 
L 549.535469 414.829872 
L 550.064223 414.427064 
L 550.592976 413.41663 
L 551.121729 413.60438 
L 551.650483 415.369225 
L 552.179236 415.765205 
L 552.707989 413.945742 
L 553.236743 414.181283 
L 554.294249 421.032431 
L 554.823003 420.448701 
L 555.880509 416.826843 
L 556.409263 418.680442 
L 556.938016 413.433699 
L 557.466769 411.148276 
L 558.524276 409.234938 
L 559.053029 413.276672 
L 560.110536 411.030506 
L 560.639289 409.695778 
L 561.168043 409.089859 
L 561.696796 410.77619 
L 562.225549 411.363334 
L 563.283056 409.357829 
L 563.811809 409.709432 
L 565.398069 409.982522 
L 565.926823 407.369391 
L 566.455576 409.224697 
L 566.984329 409.658228 
L 567.513083 407.108249 
L 568.041836 406.198517 
L 568.570589 406.307753 
L 569.099343 410.240251 
L 569.628096 410.634525 
L 570.685603 407.362564 
L 571.214356 410.677195 
L 571.743109 410.701091 
L 572.271863 409.636039 
L 572.800616 406.980238 
L 573.329369 407.318187 
L 573.858123 406.871002 
L 574.386876 405.176136 
L 574.915629 405.06178 
L 575.444383 403.655366 
L 575.973136 409.506321 
L 576.501889 408.656328 
L 577.030643 408.214264 
L 577.559396 414.398048 
L 578.088149 412.698062 
L 578.616903 414.589211 
L 579.145656 414.638709 
L 579.674409 414.802563 
L 580.203163 411.175585 
L 580.731916 412.848262 
L 581.260669 415.782274 
L 581.789423 415.394827 
L 582.846929 412.9831 
L 583.375683 414.879369 
L 583.904436 415.087601 
L 584.433189 414.421943 
L 584.961943 413.013822 
L 585.490696 412.368647 
L 586.019449 415.193423 
L 586.548203 415.640608 
L 587.076956 414.642122 
L 587.605709 414.374153 
L 588.134463 413.72727 
L 588.663216 414.956176 
L 589.191969 414.869128 
L 589.720723 414.3861 
L 590.249476 411.790037 
L 590.778229 415.35045 
L 591.306983 415.946128 
L 592.364489 413.841627 
L 592.893243 412.472763 
L 593.421996 413.563416 
L 593.950749 412.979686 
L 594.479503 411.115846 
L 595.008256 410.404105 
L 595.537009 412.2816 
L 596.065763 417.845811 
L 596.594516 415.790808 
L 597.123269 414.222246 
L 597.652023 410.359728 
L 598.180776 410.750588 
L 598.709529 410.26244 
L 599.238282 409.982522 
L 599.767036 406.118297 
L 600.824542 408.965262 
L 601.353296 409.243472 
L 601.882049 408.627312 
L 602.410802 407.62712 
L 602.939556 410.31023 
L 603.468309 410.158324 
L 604.525816 407.661256 
L 605.054569 407.779026 
L 605.583322 409.695778 
L 606.112076 409.212749 
L 606.640829 406.251428 
L 607.169582 406.050025 
L 607.698336 407.505936 
L 608.227089 407.731236 
L 608.755842 407.534952 
L 609.284596 407.719288 
L 609.813349 406.551828 
L 610.342102 409.072791 
L 610.870856 408.115269 
L 611.399609 407.934346 
L 611.928362 404.607767 
L 612.457116 404.945716 
L 612.985869 405.968097 
L 613.514622 405.537981 
L 614.043376 405.49019 
L 614.572129 404.119619 
L 615.100882 408.432736 
L 615.629636 408.451511 
L 617.215896 404.341504 
L 617.744649 419.605535 
L 618.273402 414.41853 
L 618.802156 413.155488 
L 619.330909 416.246527 
L 619.330909 416.246527 
" style="fill:none;stroke:#1f77b4;stroke-linecap:square;stroke-width:1.5;"/>
   </g>
   <g id="patch_3">
    <path d="M 108 448.56 
L 108 60.48 
" style="fill:none;stroke:#000000;stroke-linecap:square;stroke-linejoin:miter;stroke-width:0.8;"/>
   </g>
   <g id="patch_4">
    <path d="M 643.68 448.56 
L 643.68 60.48 
" style="fill:none;stroke:#000000;stroke-linecap:square;stroke-linejoin:miter;stroke-width:0.8;"/>
   </g>
   <g id="patch_5">
    <path d="M 108 448.56 
L 643.68 448.56 
" style="fill:none;stroke:#000000;stroke-linecap:square;stroke-linejoin:miter;stroke-width:0.8;"/>
   </g>
   <g id="patch_6">
    <path d="M 108 60.48 
L 643.68 60.48 
" style="fill:none;stroke:#000000;stroke-linecap:square;stroke-linejoin:miter;stroke-width:0.8;"/>
   </g>
   <g id="text_28">
    <!-- unikernel_allocpool - free -->
    <g transform="translate(281.654063 54.48)scale(0.15 -0.15)">
     <defs>
      <path d="M 8.5 21.578125 
L 8.5 54.6875 
L 17.484375 54.6875 
L 17.484375 21.921875 
Q 17.484375 14.15625 20.5 10.265625 
Q 23.53125 6.390625 29.59375 6.390625 
Q 36.859375 6.390625 41.078125 11.03125 
Q 45.3125 15.671875 45.3125 23.6875 
L 45.3125 54.6875 
L 54.296875 54.6875 
L 54.296875 0 
L 45.3125 0 
L 45.3125 8.40625 
Q 42.046875 3.421875 37.71875 1 
Q 33.40625 -1.421875 27.6875 -1.421875 
Q 18.265625 -1.421875 13.375 4.4375 
Q 8.5 10.296875 8.5 21.578125 
z
M 31.109375 56 
z
" id="DejaVuSans-117"/>
      <path d="M 54.890625 33.015625 
L 54.890625 0 
L 45.90625 0 
L 45.90625 32.71875 
Q 45.90625 40.484375 42.875 44.328125 
Q 39.84375 48.1875 33.796875 48.1875 
Q 26.515625 48.1875 22.3125 43.546875 
Q 18.109375 38.921875 18.109375 30.90625 
L 18.109375 0 
L 9.078125 0 
L 9.078125 54.6875 
L 18.109375 54.6875 
L 18.109375 46.1875 
Q 21.34375 51.125 25.703125 53.5625 
Q 30.078125 56 35.796875 56 
Q 45.21875 56 50.046875 50.171875 
Q 54.890625 44.34375 54.890625 33.015625 
z
" id="DejaVuSans-110"/>
      <path d="M 9.078125 75.984375 
L 18.109375 75.984375 
L 18.109375 31.109375 
L 44.921875 54.6875 
L 56.390625 54.6875 
L 27.390625 29.109375 
L 57.625 0 
L 45.90625 0 
L 18.109375 26.703125 
L 18.109375 0 
L 9.078125 0 
z
" id="DejaVuSans-107"/>
      <path d="M 41.109375 46.296875 
Q 39.59375 47.171875 37.8125 47.578125 
Q 36.03125 48 33.890625 48 
Q 26.265625 48 22.1875 43.046875 
Q 18.109375 38.09375 18.109375 28.8125 
L 18.109375 0 
L 9.078125 0 
L 9.078125 54.6875 
L 18.109375 54.6875 
L 18.109375 46.1875 
Q 20.953125 51.171875 25.484375 53.578125 
Q 30.03125 56 36.53125 56 
Q 37.453125 56 38.578125 55.875 
Q 39.703125 55.765625 41.0625 55.515625 
z
" id="DejaVuSans-114"/>
      <path d="M 9.421875 75.984375 
L 18.40625 75.984375 
L 18.40625 0 
L 9.421875 0 
z
" id="DejaVuSans-108"/>
      <path d="M 50.984375 -16.609375 
L 50.984375 -23.578125 
L -0.984375 -23.578125 
L -0.984375 -16.609375 
z
" id="DejaVuSans-95"/>
      <path d="M 30.609375 48.390625 
Q 23.390625 48.390625 19.1875 42.75 
Q 14.984375 37.109375 14.984375 27.296875 
Q 14.984375 17.484375 19.15625 11.84375 
Q 23.34375 6.203125 30.609375 6.203125 
Q 37.796875 6.203125 41.984375 11.859375 
Q 46.1875 17.53125 46.1875 27.296875 
Q 46.1875 37.015625 41.984375 42.703125 
Q 37.796875 48.390625 30.609375 48.390625 
z
M 30.609375 56 
Q 42.328125 56 49.015625 48.375 
Q 55.71875 40.765625 55.71875 27.296875 
Q 55.71875 13.875 49.015625 6.21875 
Q 42.328125 -1.421875 30.609375 -1.421875 
Q 18.84375 -1.421875 12.171875 6.21875 
Q 5.515625 13.875 5.515625 27.296875 
Q 5.515625 40.765625 12.171875 48.375 
Q 18.84375 56 30.609375 56 
z
" id="DejaVuSans-111"/>
      <path d="M 48.78125 52.59375 
L 48.78125 44.1875 
Q 44.96875 46.296875 41.140625 47.34375 
Q 37.3125 48.390625 33.40625 48.390625 
Q 24.65625 48.390625 19.8125 42.84375 
Q 14.984375 37.3125 14.984375 27.296875 
Q 14.984375 17.28125 19.8125 11.734375 
Q 24.65625 6.203125 33.40625 6.203125 
Q 37.3125 6.203125 41.140625 7.25 
Q 44.96875 8.296875 48.78125 10.40625 
L 48.78125 2.09375 
Q 45.015625 0.34375 40.984375 -0.53125 
Q 36.96875 -1.421875 32.421875 -1.421875 
Q 20.0625 -1.421875 12.78125 6.34375 
Q 5.515625 14.109375 5.515625 27.296875 
Q 5.515625 40.671875 12.859375 48.328125 
Q 20.21875 56 33.015625 56 
Q 37.15625 56 41.109375 55.140625 
Q 45.0625 54.296875 48.78125 52.59375 
z
" id="DejaVuSans-99"/>
      <path id="DejaVuSans-32"/>
      <path d="M 4.890625 31.390625 
L 31.203125 31.390625 
L 31.203125 23.390625 
L 4.890625 23.390625 
z
" id="DejaVuSans-45"/>
      <path d="M 37.109375 75.984375 
L 37.109375 68.5 
L 28.515625 68.5 
Q 23.6875 68.5 21.796875 66.546875 
Q 19.921875 64.59375 19.921875 59.515625 
L 19.921875 54.6875 
L 34.71875 54.6875 
L 34.71875 47.703125 
L 19.921875 47.703125 
L 19.921875 0 
L 10.890625 0 
L 10.890625 47.703125 
L 2.296875 47.703125 
L 2.296875 54.6875 
L 10.890625 54.6875 
L 10.890625 58.5 
Q 10.890625 67.625 15.140625 71.796875 
Q 19.390625 75.984375 28.609375 75.984375 
z
" id="DejaVuSans-102"/>
     </defs>
     <use xlink:href="#DejaVuSans-117"/>
     <use x="63.378906" xlink:href="#DejaVuSans-110"/>
     <use x="126.757812" xlink:href="#DejaVuSans-105"/>
     <use x="154.541016" xlink:href="#DejaVuSans-107"/>
     <use x="208.826172" xlink:href="#DejaVuSans-101"/>
     <use x="270.349609" xlink:href="#DejaVuSans-114"/>
     <use x="309.712891" xlink:href="#DejaVuSans-110"/>
     <use x="373.091797" xlink:href="#DejaVuSans-101"/>
     <use x="434.615234" xlink:href="#DejaVuSans-108"/>
     <use x="462.398438" xlink:href="#DejaVuSans-95"/>
     <use x="512.398438" xlink:href="#DejaVuSans-97"/>
     <use x="573.677734" xlink:href="#DejaVuSans-108"/>
     <use x="601.460938" xlink:href="#DejaVuSans-108"/>
     <use x="629.244141" xlink:href="#DejaVuSans-111"/>
     <use x="690.425781" xlink:href="#DejaVuSans-99"/>
     <use x="745.40625" xlink:href="#DejaVuSans-112"/>
     <use x="808.882812" xlink:href="#DejaVuSans-111"/>
     <use x="870.064453" xlink:href="#DejaVuSans-111"/>
     <use x="931.246094" xlink:href="#DejaVuSans-108"/>
     <use x="959.029297" xlink:href="#DejaVuSans-32"/>
     <use x="990.816406" xlink:href="#DejaVuSans-45"/>
     <use x="1026.900391" xlink:href="#DejaVuSans-32"/>
     <use x="1058.6875" xlink:href="#DejaVuSans-102"/>
     <use x="1093.892578" xlink:href="#DejaVuSans-114"/>
     <use x="1132.755859" xlink:href="#DejaVuSans-101"/>
     <use x="1194.279297" xlink:href="#DejaVuSans-101"/>
    </g>
   </g>
   <g id="legend_1">
    <g id="patch_7">
     <path d="M 650.68 258.52 
L 654.68 258.52 
Q 656.68 258.52 656.68 256.52 
L 656.68 252.52 
Q 656.68 250.52 654.68 250.52 
L 650.68 250.52 
Q 648.68 250.52 648.68 252.52 
L 648.68 256.52 
Q 648.68 258.52 650.68 258.52 
z
" style="fill:#ffffff;opacity:0.8;stroke:#cccccc;stroke-linejoin:miter;"/>
    </g>
   </g>
  </g>
 </g>
 <defs>
  <clipPath id="p58cf10c3dc">
   <rect height="388.08" width="535.68" x="108" y="60.48"/>
  </clipPath>
 </defs>
</svg>
