<?xml version="1.0" encoding="utf-8" standalone="no"?>
<!DOCTYPE svg PUBLIC "-//W3C//DTD SVG 1.1//EN"
  "http://www.w3.org/Graphics/SVG/1.1/DTD/svg11.dtd">
<!-- Created with matplotlib (https://matplotlib.org/) -->
<svg height="504pt" version="1.1" viewBox="0 0 864 504" width="864pt" xmlns="http://www.w3.org/2000/svg" xmlns:xlink="http://www.w3.org/1999/xlink">
 <metadata>
  <rdf:RDF xmlns:cc="http://creativecommons.org/ns#" xmlns:dc="http://purl.org/dc/elements/1.1/" xmlns:rdf="http://www.w3.org/1999/02/22-rdf-syntax-ns#">
   <cc:Work>
    <dc:type rdf:resource="http://purl.org/dc/dcmitype/StillImage"/>
    <dc:date>2022-05-29T17:28:16.711234</dc:date>
    <dc:format>image/svg+xml</dc:format>
    <dc:creator>
     <cc:Agent>
      <dc:title>Matplotlib v3.3.4, https://matplotlib.org/</dc:title>
     </cc:Agent>
    </dc:creator>
   </cc:Work>
  </rdf:RDF>
 </metadata>
 <defs>
  <style type="text/css">*{stroke-linecap:butt;stroke-linejoin:round;}</style>
 </defs>
 <g id="figure_1">
  <g id="patch_1">
   <path d="M 0 504 
L 864 504 
L 864 0 
L 0 0 
z
" style="fill:#ffffff;"/>
  </g>
  <g id="axes_1">
   <g id="patch_2">
    <path d="M 108 448.56 
L 643.68 448.56 
L 643.68 60.48 
L 108 60.48 
z
" style="fill:#ffffff;"/>
   </g>
   <g id="matplotlib.axis_1">
    <g id="xtick_1">
     <g id="line2d_1">
      <defs>
       <path d="M 0 0 
L 0 3.5 
" id="mffc056e3a5" style="stroke:#000000;stroke-width:0.8;"/>
      </defs>
      <g>
       <use style="stroke:#000000;stroke-width:0.8;" x="132.349091" xlink:href="#mffc056e3a5" y="448.56"/>
      </g>
     </g>
     <g id="text_1">
      <!-- 22:56:36 -->
      <g transform="translate(135.108466 500.4725)rotate(-90)scale(0.1 -0.1)">
       <defs>
        <path d="M 19.1875 8.296875 
L 53.609375 8.296875 
L 53.609375 0 
L 7.328125 0 
L 7.328125 8.296875 
Q 12.9375 14.109375 22.625 23.890625 
Q 32.328125 33.6875 34.8125 36.53125 
Q 39.546875 41.84375 41.421875 45.53125 
Q 43.3125 49.21875 43.3125 52.78125 
Q 43.3125 58.59375 39.234375 62.25 
Q 35.15625 65.921875 28.609375 65.921875 
Q 23.96875 65.921875 18.8125 64.3125 
Q 13.671875 62.703125 7.8125 59.421875 
L 7.8125 69.390625 
Q 13.765625 71.78125 18.9375 73 
Q 24.125 74.21875 28.421875 74.21875 
Q 39.75 74.21875 46.484375 68.546875 
Q 53.21875 62.890625 53.21875 53.421875 
Q 53.21875 48.921875 51.53125 44.890625 
Q 49.859375 40.875 45.40625 35.40625 
Q 44.1875 33.984375 37.640625 27.21875 
Q 31.109375 20.453125 19.1875 8.296875 
z
" id="DejaVuSans-50"/>
        <path d="M 11.71875 12.40625 
L 22.015625 12.40625 
L 22.015625 0 
L 11.71875 0 
z
M 11.71875 51.703125 
L 22.015625 51.703125 
L 22.015625 39.3125 
L 11.71875 39.3125 
z
" id="DejaVuSans-58"/>
        <path d="M 10.796875 72.90625 
L 49.515625 72.90625 
L 49.515625 64.59375 
L 19.828125 64.59375 
L 19.828125 46.734375 
Q 21.96875 47.46875 24.109375 47.828125 
Q 26.265625 48.1875 28.421875 48.1875 
Q 40.625 48.1875 47.75 41.5 
Q 54.890625 34.8125 54.890625 23.390625 
Q 54.890625 11.625 47.5625 5.09375 
Q 40.234375 -1.421875 26.90625 -1.421875 
Q 22.3125 -1.421875 17.546875 -0.640625 
Q 12.796875 0.140625 7.71875 1.703125 
L 7.71875 11.625 
Q 12.109375 9.234375 16.796875 8.0625 
Q 21.484375 6.890625 26.703125 6.890625 
Q 35.15625 6.890625 40.078125 11.328125 
Q 45.015625 15.765625 45.015625 23.390625 
Q 45.015625 31 40.078125 35.4375 
Q 35.15625 39.890625 26.703125 39.890625 
Q 22.75 39.890625 18.8125 39.015625 
Q 14.890625 38.140625 10.796875 36.28125 
z
" id="DejaVuSans-53"/>
        <path d="M 33.015625 40.375 
Q 26.375 40.375 22.484375 35.828125 
Q 18.609375 31.296875 18.609375 23.390625 
Q 18.609375 15.53125 22.484375 10.953125 
Q 26.375 6.390625 33.015625 6.390625 
Q 39.65625 6.390625 43.53125 10.953125 
Q 47.40625 15.53125 47.40625 23.390625 
Q 47.40625 31.296875 43.53125 35.828125 
Q 39.65625 40.375 33.015625 40.375 
z
M 52.59375 71.296875 
L 52.59375 62.3125 
Q 48.875 64.0625 45.09375 64.984375 
Q 41.3125 65.921875 37.59375 65.921875 
Q 27.828125 65.921875 22.671875 59.328125 
Q 17.53125 52.734375 16.796875 39.40625 
Q 19.671875 43.65625 24.015625 45.921875 
Q 28.375 48.1875 33.59375 48.1875 
Q 44.578125 48.1875 50.953125 41.515625 
Q 57.328125 34.859375 57.328125 23.390625 
Q 57.328125 12.15625 50.6875 5.359375 
Q 44.046875 -1.421875 33.015625 -1.421875 
Q 20.359375 -1.421875 13.671875 8.265625 
Q 6.984375 17.96875 6.984375 36.375 
Q 6.984375 53.65625 15.1875 63.9375 
Q 23.390625 74.21875 37.203125 74.21875 
Q 40.921875 74.21875 44.703125 73.484375 
Q 48.484375 72.75 52.59375 71.296875 
z
" id="DejaVuSans-54"/>
        <path d="M 40.578125 39.3125 
Q 47.65625 37.796875 51.625 33 
Q 55.609375 28.21875 55.609375 21.1875 
Q 55.609375 10.40625 48.1875 4.484375 
Q 40.765625 -1.421875 27.09375 -1.421875 
Q 22.515625 -1.421875 17.65625 -0.515625 
Q 12.796875 0.390625 7.625 2.203125 
L 7.625 11.71875 
Q 11.71875 9.328125 16.59375 8.109375 
Q 21.484375 6.890625 26.8125 6.890625 
Q 36.078125 6.890625 40.9375 10.546875 
Q 45.796875 14.203125 45.796875 21.1875 
Q 45.796875 27.640625 41.28125 31.265625 
Q 36.765625 34.90625 28.71875 34.90625 
L 20.21875 34.90625 
L 20.21875 43.015625 
L 29.109375 43.015625 
Q 36.375 43.015625 40.234375 45.921875 
Q 44.09375 48.828125 44.09375 54.296875 
Q 44.09375 59.90625 40.109375 62.90625 
Q 36.140625 65.921875 28.71875 65.921875 
Q 24.65625 65.921875 20.015625 65.03125 
Q 15.375 64.15625 9.8125 62.3125 
L 9.8125 71.09375 
Q 15.4375 72.65625 20.34375 73.4375 
Q 25.25 74.21875 29.59375 74.21875 
Q 40.828125 74.21875 47.359375 69.109375 
Q 53.90625 64.015625 53.90625 55.328125 
Q 53.90625 49.265625 50.4375 45.09375 
Q 46.96875 40.921875 40.578125 39.3125 
z
" id="DejaVuSans-51"/>
       </defs>
       <use xlink:href="#DejaVuSans-50"/>
       <use x="63.623047" xlink:href="#DejaVuSans-50"/>
       <use x="127.246094" xlink:href="#DejaVuSans-58"/>
       <use x="160.9375" xlink:href="#DejaVuSans-53"/>
       <use x="224.560547" xlink:href="#DejaVuSans-54"/>
       <use x="288.183594" xlink:href="#DejaVuSans-58"/>
       <use x="321.875" xlink:href="#DejaVuSans-51"/>
       <use x="385.498047" xlink:href="#DejaVuSans-54"/>
      </g>
     </g>
    </g>
    <g id="xtick_2">
     <g id="line2d_2">
      <g>
       <use style="stroke:#000000;stroke-width:0.8;" x="156.492704" xlink:href="#mffc056e3a5" y="448.56"/>
      </g>
     </g>
     <g id="text_2">
      <!-- 22:57:29 -->
      <g transform="translate(159.252079 500.4725)rotate(-90)scale(0.1 -0.1)">
       <defs>
        <path d="M 8.203125 72.90625 
L 55.078125 72.90625 
L 55.078125 68.703125 
L 28.609375 0 
L 18.3125 0 
L 43.21875 64.59375 
L 8.203125 64.59375 
z
" id="DejaVuSans-55"/>
        <path d="M 10.984375 1.515625 
L 10.984375 10.5 
Q 14.703125 8.734375 18.5 7.8125 
Q 22.3125 6.890625 25.984375 6.890625 
Q 35.75 6.890625 40.890625 13.453125 
Q 46.046875 20.015625 46.78125 33.40625 
Q 43.953125 29.203125 39.59375 26.953125 
Q 35.25 24.703125 29.984375 24.703125 
Q 19.046875 24.703125 12.671875 31.3125 
Q 6.296875 37.9375 6.296875 49.421875 
Q 6.296875 60.640625 12.9375 67.421875 
Q 19.578125 74.21875 30.609375 74.21875 
Q 43.265625 74.21875 49.921875 64.515625 
Q 56.59375 54.828125 56.59375 36.375 
Q 56.59375 19.140625 48.40625 8.859375 
Q 40.234375 -1.421875 26.421875 -1.421875 
Q 22.703125 -1.421875 18.890625 -0.6875 
Q 15.09375 0.046875 10.984375 1.515625 
z
M 30.609375 32.421875 
Q 37.25 32.421875 41.125 36.953125 
Q 45.015625 41.5 45.015625 49.421875 
Q 45.015625 57.28125 41.125 61.84375 
Q 37.25 66.40625 30.609375 66.40625 
Q 23.96875 66.40625 20.09375 61.84375 
Q 16.21875 57.28125 16.21875 49.421875 
Q 16.21875 41.5 20.09375 36.953125 
Q 23.96875 32.421875 30.609375 32.421875 
z
" id="DejaVuSans-57"/>
       </defs>
       <use xlink:href="#DejaVuSans-50"/>
       <use x="63.623047" xlink:href="#DejaVuSans-50"/>
       <use x="127.246094" xlink:href="#DejaVuSans-58"/>
       <use x="160.9375" xlink:href="#DejaVuSans-53"/>
       <use x="224.560547" xlink:href="#DejaVuSans-55"/>
       <use x="288.183594" xlink:href="#DejaVuSans-58"/>
       <use x="321.875" xlink:href="#DejaVuSans-50"/>
       <use x="385.498047" xlink:href="#DejaVuSans-57"/>
      </g>
     </g>
    </g>
    <g id="xtick_3">
     <g id="line2d_3">
      <g>
       <use style="stroke:#000000;stroke-width:0.8;" x="180.636318" xlink:href="#mffc056e3a5" y="448.56"/>
      </g>
     </g>
     <g id="text_3">
      <!-- 22:58:22 -->
      <g transform="translate(183.395693 500.4725)rotate(-90)scale(0.1 -0.1)">
       <defs>
        <path d="M 31.78125 34.625 
Q 24.75 34.625 20.71875 30.859375 
Q 16.703125 27.09375 16.703125 20.515625 
Q 16.703125 13.921875 20.71875 10.15625 
Q 24.75 6.390625 31.78125 6.390625 
Q 38.8125 6.390625 42.859375 10.171875 
Q 46.921875 13.96875 46.921875 20.515625 
Q 46.921875 27.09375 42.890625 30.859375 
Q 38.875 34.625 31.78125 34.625 
z
M 21.921875 38.8125 
Q 15.578125 40.375 12.03125 44.71875 
Q 8.5 49.078125 8.5 55.328125 
Q 8.5 64.0625 14.71875 69.140625 
Q 20.953125 74.21875 31.78125 74.21875 
Q 42.671875 74.21875 48.875 69.140625 
Q 55.078125 64.0625 55.078125 55.328125 
Q 55.078125 49.078125 51.53125 44.71875 
Q 48 40.375 41.703125 38.8125 
Q 48.828125 37.15625 52.796875 32.3125 
Q 56.78125 27.484375 56.78125 20.515625 
Q 56.78125 9.90625 50.3125 4.234375 
Q 43.84375 -1.421875 31.78125 -1.421875 
Q 19.734375 -1.421875 13.25 4.234375 
Q 6.78125 9.90625 6.78125 20.515625 
Q 6.78125 27.484375 10.78125 32.3125 
Q 14.796875 37.15625 21.921875 38.8125 
z
M 18.3125 54.390625 
Q 18.3125 48.734375 21.84375 45.5625 
Q 25.390625 42.390625 31.78125 42.390625 
Q 38.140625 42.390625 41.71875 45.5625 
Q 45.3125 48.734375 45.3125 54.390625 
Q 45.3125 60.0625 41.71875 63.234375 
Q 38.140625 66.40625 31.78125 66.40625 
Q 25.390625 66.40625 21.84375 63.234375 
Q 18.3125 60.0625 18.3125 54.390625 
z
" id="DejaVuSans-56"/>
       </defs>
       <use xlink:href="#DejaVuSans-50"/>
       <use x="63.623047" xlink:href="#DejaVuSans-50"/>
       <use x="127.246094" xlink:href="#DejaVuSans-58"/>
       <use x="160.9375" xlink:href="#DejaVuSans-53"/>
       <use x="224.560547" xlink:href="#DejaVuSans-56"/>
       <use x="288.183594" xlink:href="#DejaVuSans-58"/>
       <use x="321.875" xlink:href="#DejaVuSans-50"/>
       <use x="385.498047" xlink:href="#DejaVuSans-50"/>
      </g>
     </g>
    </g>
    <g id="xtick_4">
     <g id="line2d_4">
      <g>
       <use style="stroke:#000000;stroke-width:0.8;" x="204.779931" xlink:href="#mffc056e3a5" y="448.56"/>
      </g>
     </g>
     <g id="text_4">
      <!-- 22:59:15 -->
      <g transform="translate(207.539306 500.4725)rotate(-90)scale(0.1 -0.1)">
       <defs>
        <path d="M 12.40625 8.296875 
L 28.515625 8.296875 
L 28.515625 63.921875 
L 10.984375 60.40625 
L 10.984375 69.390625 
L 28.421875 72.90625 
L 38.28125 72.90625 
L 38.28125 8.296875 
L 54.390625 8.296875 
L 54.390625 0 
L 12.40625 0 
z
" id="DejaVuSans-49"/>
       </defs>
       <use xlink:href="#DejaVuSans-50"/>
       <use x="63.623047" xlink:href="#DejaVuSans-50"/>
       <use x="127.246094" xlink:href="#DejaVuSans-58"/>
       <use x="160.9375" xlink:href="#DejaVuSans-53"/>
       <use x="224.560547" xlink:href="#DejaVuSans-57"/>
       <use x="288.183594" xlink:href="#DejaVuSans-58"/>
       <use x="321.875" xlink:href="#DejaVuSans-49"/>
       <use x="385.498047" xlink:href="#DejaVuSans-53"/>
      </g>
     </g>
    </g>
    <g id="xtick_5">
     <g id="line2d_5">
      <g>
       <use style="stroke:#000000;stroke-width:0.8;" x="228.923544" xlink:href="#mffc056e3a5" y="448.56"/>
      </g>
     </g>
     <g id="text_5">
      <!-- 23:00:08 -->
      <g transform="translate(231.682919 500.4725)rotate(-90)scale(0.1 -0.1)">
       <defs>
        <path d="M 31.78125 66.40625 
Q 24.171875 66.40625 20.328125 58.90625 
Q 16.5 51.421875 16.5 36.375 
Q 16.5 21.390625 20.328125 13.890625 
Q 24.171875 6.390625 31.78125 6.390625 
Q 39.453125 6.390625 43.28125 13.890625 
Q 47.125 21.390625 47.125 36.375 
Q 47.125 51.421875 43.28125 58.90625 
Q 39.453125 66.40625 31.78125 66.40625 
z
M 31.78125 74.21875 
Q 44.046875 74.21875 50.515625 64.515625 
Q 56.984375 54.828125 56.984375 36.375 
Q 56.984375 17.96875 50.515625 8.265625 
Q 44.046875 -1.421875 31.78125 -1.421875 
Q 19.53125 -1.421875 13.0625 8.265625 
Q 6.59375 17.96875 6.59375 36.375 
Q 6.59375 54.828125 13.0625 64.515625 
Q 19.53125 74.21875 31.78125 74.21875 
z
" id="DejaVuSans-48"/>
       </defs>
       <use xlink:href="#DejaVuSans-50"/>
       <use x="63.623047" xlink:href="#DejaVuSans-51"/>
       <use x="127.246094" xlink:href="#DejaVuSans-58"/>
       <use x="160.9375" xlink:href="#DejaVuSans-48"/>
       <use x="224.560547" xlink:href="#DejaVuSans-48"/>
       <use x="288.183594" xlink:href="#DejaVuSans-58"/>
       <use x="321.875" xlink:href="#DejaVuSans-48"/>
       <use x="385.498047" xlink:href="#DejaVuSans-56"/>
      </g>
     </g>
    </g>
    <g id="xtick_6">
     <g id="line2d_6">
      <g>
       <use style="stroke:#000000;stroke-width:0.8;" x="253.067158" xlink:href="#mffc056e3a5" y="448.56"/>
      </g>
     </g>
     <g id="text_6">
      <!-- 23:01:01 -->
      <g transform="translate(255.826533 500.4725)rotate(-90)scale(0.1 -0.1)">
       <use xlink:href="#DejaVuSans-50"/>
       <use x="63.623047" xlink:href="#DejaVuSans-51"/>
       <use x="127.246094" xlink:href="#DejaVuSans-58"/>
       <use x="160.9375" xlink:href="#DejaVuSans-48"/>
       <use x="224.560547" xlink:href="#DejaVuSans-49"/>
       <use x="288.183594" xlink:href="#DejaVuSans-58"/>
       <use x="321.875" xlink:href="#DejaVuSans-48"/>
       <use x="385.498047" xlink:href="#DejaVuSans-49"/>
      </g>
     </g>
    </g>
    <g id="xtick_7">
     <g id="line2d_7">
      <g>
       <use style="stroke:#000000;stroke-width:0.8;" x="277.210771" xlink:href="#mffc056e3a5" y="448.56"/>
      </g>
     </g>
     <g id="text_7">
      <!-- 23:01:54 -->
      <g transform="translate(279.970146 500.4725)rotate(-90)scale(0.1 -0.1)">
       <defs>
        <path d="M 37.796875 64.3125 
L 12.890625 25.390625 
L 37.796875 25.390625 
z
M 35.203125 72.90625 
L 47.609375 72.90625 
L 47.609375 25.390625 
L 58.015625 25.390625 
L 58.015625 17.1875 
L 47.609375 17.1875 
L 47.609375 0 
L 37.796875 0 
L 37.796875 17.1875 
L 4.890625 17.1875 
L 4.890625 26.703125 
z
" id="DejaVuSans-52"/>
       </defs>
       <use xlink:href="#DejaVuSans-50"/>
       <use x="63.623047" xlink:href="#DejaVuSans-51"/>
       <use x="127.246094" xlink:href="#DejaVuSans-58"/>
       <use x="160.9375" xlink:href="#DejaVuSans-48"/>
       <use x="224.560547" xlink:href="#DejaVuSans-49"/>
       <use x="288.183594" xlink:href="#DejaVuSans-58"/>
       <use x="321.875" xlink:href="#DejaVuSans-53"/>
       <use x="385.498047" xlink:href="#DejaVuSans-52"/>
      </g>
     </g>
    </g>
    <g id="xtick_8">
     <g id="line2d_8">
      <g>
       <use style="stroke:#000000;stroke-width:0.8;" x="301.354384" xlink:href="#mffc056e3a5" y="448.56"/>
      </g>
     </g>
     <g id="text_8">
      <!-- 23:02:47 -->
      <g transform="translate(304.113759 500.4725)rotate(-90)scale(0.1 -0.1)">
       <use xlink:href="#DejaVuSans-50"/>
       <use x="63.623047" xlink:href="#DejaVuSans-51"/>
       <use x="127.246094" xlink:href="#DejaVuSans-58"/>
       <use x="160.9375" xlink:href="#DejaVuSans-48"/>
       <use x="224.560547" xlink:href="#DejaVuSans-50"/>
       <use x="288.183594" xlink:href="#DejaVuSans-58"/>
       <use x="321.875" xlink:href="#DejaVuSans-52"/>
       <use x="385.498047" xlink:href="#DejaVuSans-55"/>
      </g>
     </g>
    </g>
    <g id="xtick_9">
     <g id="line2d_9">
      <g>
       <use style="stroke:#000000;stroke-width:0.8;" x="325.497998" xlink:href="#mffc056e3a5" y="448.56"/>
      </g>
     </g>
     <g id="text_9">
      <!-- 23:03:40 -->
      <g transform="translate(328.257373 500.4725)rotate(-90)scale(0.1 -0.1)">
       <use xlink:href="#DejaVuSans-50"/>
       <use x="63.623047" xlink:href="#DejaVuSans-51"/>
       <use x="127.246094" xlink:href="#DejaVuSans-58"/>
       <use x="160.9375" xlink:href="#DejaVuSans-48"/>
       <use x="224.560547" xlink:href="#DejaVuSans-51"/>
       <use x="288.183594" xlink:href="#DejaVuSans-58"/>
       <use x="321.875" xlink:href="#DejaVuSans-52"/>
       <use x="385.498047" xlink:href="#DejaVuSans-48"/>
      </g>
     </g>
    </g>
    <g id="xtick_10">
     <g id="line2d_10">
      <g>
       <use style="stroke:#000000;stroke-width:0.8;" x="349.641611" xlink:href="#mffc056e3a5" y="448.56"/>
      </g>
     </g>
     <g id="text_10">
      <!-- 23:04:32 -->
      <g transform="translate(352.400986 500.4725)rotate(-90)scale(0.1 -0.1)">
       <use xlink:href="#DejaVuSans-50"/>
       <use x="63.623047" xlink:href="#DejaVuSans-51"/>
       <use x="127.246094" xlink:href="#DejaVuSans-58"/>
       <use x="160.9375" xlink:href="#DejaVuSans-48"/>
       <use x="224.560547" xlink:href="#DejaVuSans-52"/>
       <use x="288.183594" xlink:href="#DejaVuSans-58"/>
       <use x="321.875" xlink:href="#DejaVuSans-51"/>
       <use x="385.498047" xlink:href="#DejaVuSans-50"/>
      </g>
     </g>
    </g>
    <g id="xtick_11">
     <g id="line2d_11">
      <g>
       <use style="stroke:#000000;stroke-width:0.8;" x="373.785224" xlink:href="#mffc056e3a5" y="448.56"/>
      </g>
     </g>
     <g id="text_11">
      <!-- 23:05:25 -->
      <g transform="translate(376.544599 500.4725)rotate(-90)scale(0.1 -0.1)">
       <use xlink:href="#DejaVuSans-50"/>
       <use x="63.623047" xlink:href="#DejaVuSans-51"/>
       <use x="127.246094" xlink:href="#DejaVuSans-58"/>
       <use x="160.9375" xlink:href="#DejaVuSans-48"/>
       <use x="224.560547" xlink:href="#DejaVuSans-53"/>
       <use x="288.183594" xlink:href="#DejaVuSans-58"/>
       <use x="321.875" xlink:href="#DejaVuSans-50"/>
       <use x="385.498047" xlink:href="#DejaVuSans-53"/>
      </g>
     </g>
    </g>
    <g id="xtick_12">
     <g id="line2d_12">
      <g>
       <use style="stroke:#000000;stroke-width:0.8;" x="397.928838" xlink:href="#mffc056e3a5" y="448.56"/>
      </g>
     </g>
     <g id="text_12">
      <!-- 23:06:18 -->
      <g transform="translate(400.688213 500.4725)rotate(-90)scale(0.1 -0.1)">
       <use xlink:href="#DejaVuSans-50"/>
       <use x="63.623047" xlink:href="#DejaVuSans-51"/>
       <use x="127.246094" xlink:href="#DejaVuSans-58"/>
       <use x="160.9375" xlink:href="#DejaVuSans-48"/>
       <use x="224.560547" xlink:href="#DejaVuSans-54"/>
       <use x="288.183594" xlink:href="#DejaVuSans-58"/>
       <use x="321.875" xlink:href="#DejaVuSans-49"/>
       <use x="385.498047" xlink:href="#DejaVuSans-56"/>
      </g>
     </g>
    </g>
    <g id="xtick_13">
     <g id="line2d_13">
      <g>
       <use style="stroke:#000000;stroke-width:0.8;" x="422.072451" xlink:href="#mffc056e3a5" y="448.56"/>
      </g>
     </g>
     <g id="text_13">
      <!-- 23:07:11 -->
      <g transform="translate(424.831826 500.4725)rotate(-90)scale(0.1 -0.1)">
       <use xlink:href="#DejaVuSans-50"/>
       <use x="63.623047" xlink:href="#DejaVuSans-51"/>
       <use x="127.246094" xlink:href="#DejaVuSans-58"/>
       <use x="160.9375" xlink:href="#DejaVuSans-48"/>
       <use x="224.560547" xlink:href="#DejaVuSans-55"/>
       <use x="288.183594" xlink:href="#DejaVuSans-58"/>
       <use x="321.875" xlink:href="#DejaVuSans-49"/>
       <use x="385.498047" xlink:href="#DejaVuSans-49"/>
      </g>
     </g>
    </g>
    <g id="xtick_14">
     <g id="line2d_14">
      <g>
       <use style="stroke:#000000;stroke-width:0.8;" x="446.216064" xlink:href="#mffc056e3a5" y="448.56"/>
      </g>
     </g>
     <g id="text_14">
      <!-- 23:08:04 -->
      <g transform="translate(448.975439 500.4725)rotate(-90)scale(0.1 -0.1)">
       <use xlink:href="#DejaVuSans-50"/>
       <use x="63.623047" xlink:href="#DejaVuSans-51"/>
       <use x="127.246094" xlink:href="#DejaVuSans-58"/>
       <use x="160.9375" xlink:href="#DejaVuSans-48"/>
       <use x="224.560547" xlink:href="#DejaVuSans-56"/>
       <use x="288.183594" xlink:href="#DejaVuSans-58"/>
       <use x="321.875" xlink:href="#DejaVuSans-48"/>
       <use x="385.498047" xlink:href="#DejaVuSans-52"/>
      </g>
     </g>
    </g>
    <g id="xtick_15">
     <g id="line2d_15">
      <g>
       <use style="stroke:#000000;stroke-width:0.8;" x="470.359678" xlink:href="#mffc056e3a5" y="448.56"/>
      </g>
     </g>
     <g id="text_15">
      <!-- 23:08:57 -->
      <g transform="translate(473.119053 500.4725)rotate(-90)scale(0.1 -0.1)">
       <use xlink:href="#DejaVuSans-50"/>
       <use x="63.623047" xlink:href="#DejaVuSans-51"/>
       <use x="127.246094" xlink:href="#DejaVuSans-58"/>
       <use x="160.9375" xlink:href="#DejaVuSans-48"/>
       <use x="224.560547" xlink:href="#DejaVuSans-56"/>
       <use x="288.183594" xlink:href="#DejaVuSans-58"/>
       <use x="321.875" xlink:href="#DejaVuSans-53"/>
       <use x="385.498047" xlink:href="#DejaVuSans-55"/>
      </g>
     </g>
    </g>
    <g id="xtick_16">
     <g id="line2d_16">
      <g>
       <use style="stroke:#000000;stroke-width:0.8;" x="494.503291" xlink:href="#mffc056e3a5" y="448.56"/>
      </g>
     </g>
     <g id="text_16">
      <!-- 23:09:50 -->
      <g transform="translate(497.262666 500.4725)rotate(-90)scale(0.1 -0.1)">
       <use xlink:href="#DejaVuSans-50"/>
       <use x="63.623047" xlink:href="#DejaVuSans-51"/>
       <use x="127.246094" xlink:href="#DejaVuSans-58"/>
       <use x="160.9375" xlink:href="#DejaVuSans-48"/>
       <use x="224.560547" xlink:href="#DejaVuSans-57"/>
       <use x="288.183594" xlink:href="#DejaVuSans-58"/>
       <use x="321.875" xlink:href="#DejaVuSans-53"/>
       <use x="385.498047" xlink:href="#DejaVuSans-48"/>
      </g>
     </g>
    </g>
    <g id="xtick_17">
     <g id="line2d_17">
      <g>
       <use style="stroke:#000000;stroke-width:0.8;" x="518.646904" xlink:href="#mffc056e3a5" y="448.56"/>
      </g>
     </g>
     <g id="text_17">
      <!-- 23:10:43 -->
      <g transform="translate(521.406279 500.4725)rotate(-90)scale(0.1 -0.1)">
       <use xlink:href="#DejaVuSans-50"/>
       <use x="63.623047" xlink:href="#DejaVuSans-51"/>
       <use x="127.246094" xlink:href="#DejaVuSans-58"/>
       <use x="160.9375" xlink:href="#DejaVuSans-49"/>
       <use x="224.560547" xlink:href="#DejaVuSans-48"/>
       <use x="288.183594" xlink:href="#DejaVuSans-58"/>
       <use x="321.875" xlink:href="#DejaVuSans-52"/>
       <use x="385.498047" xlink:href="#DejaVuSans-51"/>
      </g>
     </g>
    </g>
    <g id="xtick_18">
     <g id="line2d_18">
      <g>
       <use style="stroke:#000000;stroke-width:0.8;" x="542.790518" xlink:href="#mffc056e3a5" y="448.56"/>
      </g>
     </g>
     <g id="text_18">
      <!-- 23:11:36 -->
      <g transform="translate(545.549893 500.4725)rotate(-90)scale(0.1 -0.1)">
       <use xlink:href="#DejaVuSans-50"/>
       <use x="63.623047" xlink:href="#DejaVuSans-51"/>
       <use x="127.246094" xlink:href="#DejaVuSans-58"/>
       <use x="160.9375" xlink:href="#DejaVuSans-49"/>
       <use x="224.560547" xlink:href="#DejaVuSans-49"/>
       <use x="288.183594" xlink:href="#DejaVuSans-58"/>
       <use x="321.875" xlink:href="#DejaVuSans-51"/>
       <use x="385.498047" xlink:href="#DejaVuSans-54"/>
      </g>
     </g>
    </g>
    <g id="xtick_19">
     <g id="line2d_19">
      <g>
       <use style="stroke:#000000;stroke-width:0.8;" x="566.934131" xlink:href="#mffc056e3a5" y="448.56"/>
      </g>
     </g>
     <g id="text_19">
      <!-- 23:12:29 -->
      <g transform="translate(569.693506 500.4725)rotate(-90)scale(0.1 -0.1)">
       <use xlink:href="#DejaVuSans-50"/>
       <use x="63.623047" xlink:href="#DejaVuSans-51"/>
       <use x="127.246094" xlink:href="#DejaVuSans-58"/>
       <use x="160.9375" xlink:href="#DejaVuSans-49"/>
       <use x="224.560547" xlink:href="#DejaVuSans-50"/>
       <use x="288.183594" xlink:href="#DejaVuSans-58"/>
       <use x="321.875" xlink:href="#DejaVuSans-50"/>
       <use x="385.498047" xlink:href="#DejaVuSans-57"/>
      </g>
     </g>
    </g>
    <g id="xtick_20">
     <g id="line2d_20">
      <g>
       <use style="stroke:#000000;stroke-width:0.8;" x="591.077745" xlink:href="#mffc056e3a5" y="448.56"/>
      </g>
     </g>
     <g id="text_20">
      <!-- 23:13:22 -->
      <g transform="translate(593.83712 500.4725)rotate(-90)scale(0.1 -0.1)">
       <use xlink:href="#DejaVuSans-50"/>
       <use x="63.623047" xlink:href="#DejaVuSans-51"/>
       <use x="127.246094" xlink:href="#DejaVuSans-58"/>
       <use x="160.9375" xlink:href="#DejaVuSans-49"/>
       <use x="224.560547" xlink:href="#DejaVuSans-51"/>
       <use x="288.183594" xlink:href="#DejaVuSans-58"/>
       <use x="321.875" xlink:href="#DejaVuSans-50"/>
       <use x="385.498047" xlink:href="#DejaVuSans-50"/>
      </g>
     </g>
    </g>
    <g id="xtick_21">
     <g id="line2d_21">
      <g>
       <use style="stroke:#000000;stroke-width:0.8;" x="615.221358" xlink:href="#mffc056e3a5" y="448.56"/>
      </g>
     </g>
     <g id="text_21">
      <!-- 23:14:15 -->
      <g transform="translate(617.980733 500.4725)rotate(-90)scale(0.1 -0.1)">
       <use xlink:href="#DejaVuSans-50"/>
       <use x="63.623047" xlink:href="#DejaVuSans-51"/>
       <use x="127.246094" xlink:href="#DejaVuSans-58"/>
       <use x="160.9375" xlink:href="#DejaVuSans-49"/>
       <use x="224.560547" xlink:href="#DejaVuSans-52"/>
       <use x="288.183594" xlink:href="#DejaVuSans-58"/>
       <use x="321.875" xlink:href="#DejaVuSans-49"/>
       <use x="385.498047" xlink:href="#DejaVuSans-53"/>
      </g>
     </g>
    </g>
    <g id="text_22">
     <!-- timestamp -->
     <g transform="translate(354.264375 510.55125)scale(0.08 -0.08)">
      <defs>
       <path d="M 18.3125 70.21875 
L 18.3125 54.6875 
L 36.8125 54.6875 
L 36.8125 47.703125 
L 18.3125 47.703125 
L 18.3125 18.015625 
Q 18.3125 11.328125 20.140625 9.421875 
Q 21.96875 7.515625 27.59375 7.515625 
L 36.8125 7.515625 
L 36.8125 0 
L 27.59375 0 
Q 17.1875 0 13.234375 3.875 
Q 9.28125 7.765625 9.28125 18.015625 
L 9.28125 47.703125 
L 2.6875 47.703125 
L 2.6875 54.6875 
L 9.28125 54.6875 
L 9.28125 70.21875 
z
" id="DejaVuSans-116"/>
       <path d="M 9.421875 54.6875 
L 18.40625 54.6875 
L 18.40625 0 
L 9.421875 0 
z
M 9.421875 75.984375 
L 18.40625 75.984375 
L 18.40625 64.59375 
L 9.421875 64.59375 
z
" id="DejaVuSans-105"/>
       <path d="M 52 44.1875 
Q 55.375 50.25 60.0625 53.125 
Q 64.75 56 71.09375 56 
Q 79.640625 56 84.28125 50.015625 
Q 88.921875 44.046875 88.921875 33.015625 
L 88.921875 0 
L 79.890625 0 
L 79.890625 32.71875 
Q 79.890625 40.578125 77.09375 44.375 
Q 74.3125 48.1875 68.609375 48.1875 
Q 61.625 48.1875 57.5625 43.546875 
Q 53.515625 38.921875 53.515625 30.90625 
L 53.515625 0 
L 44.484375 0 
L 44.484375 32.71875 
Q 44.484375 40.625 41.703125 44.40625 
Q 38.921875 48.1875 33.109375 48.1875 
Q 26.21875 48.1875 22.15625 43.53125 
Q 18.109375 38.875 18.109375 30.90625 
L 18.109375 0 
L 9.078125 0 
L 9.078125 54.6875 
L 18.109375 54.6875 
L 18.109375 46.1875 
Q 21.1875 51.21875 25.484375 53.609375 
Q 29.78125 56 35.6875 56 
Q 41.65625 56 45.828125 52.96875 
Q 50 49.953125 52 44.1875 
z
" id="DejaVuSans-109"/>
       <path d="M 56.203125 29.59375 
L 56.203125 25.203125 
L 14.890625 25.203125 
Q 15.484375 15.921875 20.484375 11.0625 
Q 25.484375 6.203125 34.421875 6.203125 
Q 39.59375 6.203125 44.453125 7.46875 
Q 49.3125 8.734375 54.109375 11.28125 
L 54.109375 2.78125 
Q 49.265625 0.734375 44.1875 -0.34375 
Q 39.109375 -1.421875 33.890625 -1.421875 
Q 20.796875 -1.421875 13.15625 6.1875 
Q 5.515625 13.8125 5.515625 26.8125 
Q 5.515625 40.234375 12.765625 48.109375 
Q 20.015625 56 32.328125 56 
Q 43.359375 56 49.78125 48.890625 
Q 56.203125 41.796875 56.203125 29.59375 
z
M 47.21875 32.234375 
Q 47.125 39.59375 43.09375 43.984375 
Q 39.0625 48.390625 32.421875 48.390625 
Q 24.90625 48.390625 20.390625 44.140625 
Q 15.875 39.890625 15.1875 32.171875 
z
" id="DejaVuSans-101"/>
       <path d="M 44.28125 53.078125 
L 44.28125 44.578125 
Q 40.484375 46.53125 36.375 47.5 
Q 32.28125 48.484375 27.875 48.484375 
Q 21.1875 48.484375 17.84375 46.4375 
Q 14.5 44.390625 14.5 40.28125 
Q 14.5 37.15625 16.890625 35.375 
Q 19.28125 33.59375 26.515625 31.984375 
L 29.59375 31.296875 
Q 39.15625 29.25 43.1875 25.515625 
Q 47.21875 21.78125 47.21875 15.09375 
Q 47.21875 7.46875 41.1875 3.015625 
Q 35.15625 -1.421875 24.609375 -1.421875 
Q 20.21875 -1.421875 15.453125 -0.5625 
Q 10.6875 0.296875 5.421875 2 
L 5.421875 11.28125 
Q 10.40625 8.6875 15.234375 7.390625 
Q 20.0625 6.109375 24.8125 6.109375 
Q 31.15625 6.109375 34.5625 8.28125 
Q 37.984375 10.453125 37.984375 14.40625 
Q 37.984375 18.0625 35.515625 20.015625 
Q 33.0625 21.96875 24.703125 23.78125 
L 21.578125 24.515625 
Q 13.234375 26.265625 9.515625 29.90625 
Q 5.8125 33.546875 5.8125 39.890625 
Q 5.8125 47.609375 11.28125 51.796875 
Q 16.75 56 26.8125 56 
Q 31.78125 56 36.171875 55.265625 
Q 40.578125 54.546875 44.28125 53.078125 
z
" id="DejaVuSans-115"/>
       <path d="M 34.28125 27.484375 
Q 23.390625 27.484375 19.1875 25 
Q 14.984375 22.515625 14.984375 16.5 
Q 14.984375 11.71875 18.140625 8.90625 
Q 21.296875 6.109375 26.703125 6.109375 
Q 34.1875 6.109375 38.703125 11.40625 
Q 43.21875 16.703125 43.21875 25.484375 
L 43.21875 27.484375 
z
M 52.203125 31.203125 
L 52.203125 0 
L 43.21875 0 
L 43.21875 8.296875 
Q 40.140625 3.328125 35.546875 0.953125 
Q 30.953125 -1.421875 24.3125 -1.421875 
Q 15.921875 -1.421875 10.953125 3.296875 
Q 6 8.015625 6 15.921875 
Q 6 25.140625 12.171875 29.828125 
Q 18.359375 34.515625 30.609375 34.515625 
L 43.21875 34.515625 
L 43.21875 35.40625 
Q 43.21875 41.609375 39.140625 45 
Q 35.0625 48.390625 27.6875 48.390625 
Q 23 48.390625 18.546875 47.265625 
Q 14.109375 46.140625 10.015625 43.890625 
L 10.015625 52.203125 
Q 14.9375 54.109375 19.578125 55.046875 
Q 24.21875 56 28.609375 56 
Q 40.484375 56 46.34375 49.84375 
Q 52.203125 43.703125 52.203125 31.203125 
z
" id="DejaVuSans-97"/>
       <path d="M 18.109375 8.203125 
L 18.109375 -20.796875 
L 9.078125 -20.796875 
L 9.078125 54.6875 
L 18.109375 54.6875 
L 18.109375 46.390625 
Q 20.953125 51.265625 25.265625 53.625 
Q 29.59375 56 35.59375 56 
Q 45.5625 56 51.78125 48.09375 
Q 58.015625 40.1875 58.015625 27.296875 
Q 58.015625 14.40625 51.78125 6.484375 
Q 45.5625 -1.421875 35.59375 -1.421875 
Q 29.59375 -1.421875 25.265625 0.953125 
Q 20.953125 3.328125 18.109375 8.203125 
z
M 48.6875 27.296875 
Q 48.6875 37.203125 44.609375 42.84375 
Q 40.53125 48.484375 33.40625 48.484375 
Q 26.265625 48.484375 22.1875 42.84375 
Q 18.109375 37.203125 18.109375 27.296875 
Q 18.109375 17.390625 22.1875 11.75 
Q 26.265625 6.109375 33.40625 6.109375 
Q 40.53125 6.109375 44.609375 11.75 
Q 48.6875 17.390625 48.6875 27.296875 
z
" id="DejaVuSans-112"/>
      </defs>
      <use xlink:href="#DejaVuSans-116"/>
      <use x="39.208984" xlink:href="#DejaVuSans-105"/>
      <use x="66.992188" xlink:href="#DejaVuSans-109"/>
      <use x="164.404297" xlink:href="#DejaVuSans-101"/>
      <use x="225.927734" xlink:href="#DejaVuSans-115"/>
      <use x="278.027344" xlink:href="#DejaVuSans-116"/>
      <use x="317.236328" xlink:href="#DejaVuSans-97"/>
      <use x="378.515625" xlink:href="#DejaVuSans-109"/>
      <use x="475.927734" xlink:href="#DejaVuSans-112"/>
     </g>
    </g>
   </g>
   <g id="matplotlib.axis_2">
    <g id="ytick_1">
     <g id="line2d_22">
      <defs>
       <path d="M 0 0 
L -3.5 0 
" id="m2787da2498" style="stroke:#000000;stroke-width:0.8;"/>
      </defs>
      <g>
       <use style="stroke:#000000;stroke-width:0.8;" x="108" xlink:href="#m2787da2498" y="432.473396"/>
      </g>
     </g>
     <g id="text_23">
      <!-- 13100 -->
      <g transform="translate(69.1875 436.272615)scale(0.1 -0.1)">
       <use xlink:href="#DejaVuSans-49"/>
       <use x="63.623047" xlink:href="#DejaVuSans-51"/>
       <use x="127.246094" xlink:href="#DejaVuSans-49"/>
       <use x="190.869141" xlink:href="#DejaVuSans-48"/>
       <use x="254.492188" xlink:href="#DejaVuSans-48"/>
      </g>
     </g>
    </g>
    <g id="ytick_2">
     <g id="line2d_23">
      <g>
       <use style="stroke:#000000;stroke-width:0.8;" x="108" xlink:href="#m2787da2498" y="388.569524"/>
      </g>
     </g>
     <g id="text_24">
      <!-- 13200 -->
      <g transform="translate(69.1875 392.368742)scale(0.1 -0.1)">
       <use xlink:href="#DejaVuSans-49"/>
       <use x="63.623047" xlink:href="#DejaVuSans-51"/>
       <use x="127.246094" xlink:href="#DejaVuSans-50"/>
       <use x="190.869141" xlink:href="#DejaVuSans-48"/>
       <use x="254.492188" xlink:href="#DejaVuSans-48"/>
      </g>
     </g>
    </g>
    <g id="ytick_3">
     <g id="line2d_24">
      <g>
       <use style="stroke:#000000;stroke-width:0.8;" x="108" xlink:href="#m2787da2498" y="344.665651"/>
      </g>
     </g>
     <g id="text_25">
      <!-- 13300 -->
      <g transform="translate(69.1875 348.46487)scale(0.1 -0.1)">
       <use xlink:href="#DejaVuSans-49"/>
       <use x="63.623047" xlink:href="#DejaVuSans-51"/>
       <use x="127.246094" xlink:href="#DejaVuSans-51"/>
       <use x="190.869141" xlink:href="#DejaVuSans-48"/>
       <use x="254.492188" xlink:href="#DejaVuSans-48"/>
      </g>
     </g>
    </g>
    <g id="ytick_4">
     <g id="line2d_25">
      <g>
       <use style="stroke:#000000;stroke-width:0.8;" x="108" xlink:href="#m2787da2498" y="300.761778"/>
      </g>
     </g>
     <g id="text_26">
      <!-- 13400 -->
      <g transform="translate(69.1875 304.560997)scale(0.1 -0.1)">
       <use xlink:href="#DejaVuSans-49"/>
       <use x="63.623047" xlink:href="#DejaVuSans-51"/>
       <use x="127.246094" xlink:href="#DejaVuSans-52"/>
       <use x="190.869141" xlink:href="#DejaVuSans-48"/>
       <use x="254.492188" xlink:href="#DejaVuSans-48"/>
      </g>
     </g>
    </g>
    <g id="ytick_5">
     <g id="line2d_26">
      <g>
       <use style="stroke:#000000;stroke-width:0.8;" x="108" xlink:href="#m2787da2498" y="256.857906"/>
      </g>
     </g>
     <g id="text_27">
      <!-- 13500 -->
      <g transform="translate(69.1875 260.657125)scale(0.1 -0.1)">
       <use xlink:href="#DejaVuSans-49"/>
       <use x="63.623047" xlink:href="#DejaVuSans-51"/>
       <use x="127.246094" xlink:href="#DejaVuSans-53"/>
       <use x="190.869141" xlink:href="#DejaVuSans-48"/>
       <use x="254.492188" xlink:href="#DejaVuSans-48"/>
      </g>
     </g>
    </g>
    <g id="ytick_6">
     <g id="line2d_27">
      <g>
       <use style="stroke:#000000;stroke-width:0.8;" x="108" xlink:href="#m2787da2498" y="212.954033"/>
      </g>
     </g>
     <g id="text_28">
      <!-- 13600 -->
      <g transform="translate(69.1875 216.753252)scale(0.1 -0.1)">
       <use xlink:href="#DejaVuSans-49"/>
       <use x="63.623047" xlink:href="#DejaVuSans-51"/>
       <use x="127.246094" xlink:href="#DejaVuSans-54"/>
       <use x="190.869141" xlink:href="#DejaVuSans-48"/>
       <use x="254.492188" xlink:href="#DejaVuSans-48"/>
      </g>
     </g>
    </g>
    <g id="ytick_7">
     <g id="line2d_28">
      <g>
       <use style="stroke:#000000;stroke-width:0.8;" x="108" xlink:href="#m2787da2498" y="169.050161"/>
      </g>
     </g>
     <g id="text_29">
      <!-- 13700 -->
      <g transform="translate(69.1875 172.849379)scale(0.1 -0.1)">
       <use xlink:href="#DejaVuSans-49"/>
       <use x="63.623047" xlink:href="#DejaVuSans-51"/>
       <use x="127.246094" xlink:href="#DejaVuSans-55"/>
       <use x="190.869141" xlink:href="#DejaVuSans-48"/>
       <use x="254.492188" xlink:href="#DejaVuSans-48"/>
      </g>
     </g>
    </g>
    <g id="ytick_8">
     <g id="line2d_29">
      <g>
       <use style="stroke:#000000;stroke-width:0.8;" x="108" xlink:href="#m2787da2498" y="125.146288"/>
      </g>
     </g>
     <g id="text_30">
      <!-- 13800 -->
      <g transform="translate(69.1875 128.945507)scale(0.1 -0.1)">
       <use xlink:href="#DejaVuSans-49"/>
       <use x="63.623047" xlink:href="#DejaVuSans-51"/>
       <use x="127.246094" xlink:href="#DejaVuSans-56"/>
       <use x="190.869141" xlink:href="#DejaVuSans-48"/>
       <use x="254.492188" xlink:href="#DejaVuSans-48"/>
      </g>
     </g>
    </g>
    <g id="ytick_9">
     <g id="line2d_30">
      <g>
       <use style="stroke:#000000;stroke-width:0.8;" x="108" xlink:href="#m2787da2498" y="81.242415"/>
      </g>
     </g>
     <g id="text_31">
      <!-- 13900 -->
      <g transform="translate(69.1875 85.041634)scale(0.1 -0.1)">
       <use xlink:href="#DejaVuSans-49"/>
       <use x="63.623047" xlink:href="#DejaVuSans-51"/>
       <use x="127.246094" xlink:href="#DejaVuSans-57"/>
       <use x="190.869141" xlink:href="#DejaVuSans-48"/>
       <use x="254.492188" xlink:href="#DejaVuSans-48"/>
      </g>
     </g>
    </g>
    <g id="text_32">
     <!-- MB -->
     <g transform="translate(63.52375 260.715625)rotate(-90)scale(0.08 -0.08)">
      <defs>
       <path d="M 9.8125 72.90625 
L 24.515625 72.90625 
L 43.109375 23.296875 
L 61.8125 72.90625 
L 76.515625 72.90625 
L 76.515625 0 
L 66.890625 0 
L 66.890625 64.015625 
L 48.09375 14.015625 
L 38.1875 14.015625 
L 19.390625 64.015625 
L 19.390625 0 
L 9.8125 0 
z
" id="DejaVuSans-77"/>
       <path d="M 19.671875 34.8125 
L 19.671875 8.109375 
L 35.5 8.109375 
Q 43.453125 8.109375 47.28125 11.40625 
Q 51.125 14.703125 51.125 21.484375 
Q 51.125 28.328125 47.28125 31.5625 
Q 43.453125 34.8125 35.5 34.8125 
z
M 19.671875 64.796875 
L 19.671875 42.828125 
L 34.28125 42.828125 
Q 41.5 42.828125 45.03125 45.53125 
Q 48.578125 48.25 48.578125 53.8125 
Q 48.578125 59.328125 45.03125 62.0625 
Q 41.5 64.796875 34.28125 64.796875 
z
M 9.8125 72.90625 
L 35.015625 72.90625 
Q 46.296875 72.90625 52.390625 68.21875 
Q 58.5 63.53125 58.5 54.890625 
Q 58.5 48.1875 55.375 44.234375 
Q 52.25 40.28125 46.1875 39.3125 
Q 53.46875 37.75 57.5 32.78125 
Q 61.53125 27.828125 61.53125 20.40625 
Q 61.53125 10.640625 54.890625 5.3125 
Q 48.25 0 35.984375 0 
L 9.8125 0 
z
" id="DejaVuSans-66"/>
      </defs>
      <use xlink:href="#DejaVuSans-77"/>
      <use x="86.279297" xlink:href="#DejaVuSans-66"/>
     </g>
    </g>
   </g>
   <g id="line2d_31">
    <path clip-path="url(#p88c0c78e76)" d="M 132.349091 78.12 
L 132.862785 78.60734 
L 133.376479 81.049435 
L 133.890173 80.411038 
L 134.403867 78.796162 
L 134.91756 78.670281 
L 135.431254 83.637192 
L 135.944948 83.067131 
L 136.458642 81.029654 
L 136.972336 79.600003 
L 137.48603 79.529869 
L 137.999724 79.849967 
L 138.513418 92.720419 
L 139.540806 144.013405 
L 140.568193 244.351498 
L 141.081887 269.96652 
L 142.109275 344.297561 
L 143.136663 395.31181 
L 143.650357 407.581629 
L 144.164051 410.401367 
L 144.677745 412.58091 
L 145.191438 413.282248 
L 145.705132 413.435104 
L 146.218826 412.773328 
L 146.73252 411.153058 
L 147.246214 414.88993 
L 147.759908 414.61479 
L 148.787296 412.473012 
L 149.30099 412.525162 
L 149.814684 415.567891 
L 150.328377 414.560841 
L 150.842071 414.42417 
L 151.355765 413.3326 
L 151.869459 412.577313 
L 152.383153 412.931579 
L 152.896847 412.366912 
L 153.410541 412.593498 
L 153.924235 411.706935 
L 154.437929 414.192189 
L 154.951623 413.584363 
L 155.465316 412.203266 
L 155.97901 410.306057 
L 156.492704 410.759229 
L 157.006398 414.249735 
L 157.520092 413.102418 
L 158.033786 412.473012 
L 158.54748 410.618962 
L 159.061174 415.30354 
L 159.574868 414.898922 
L 160.602255 411.688952 
L 161.115949 411.219595 
L 161.629643 414.096879 
L 162.657031 413.388348 
L 163.684419 411.054151 
L 164.198113 413.791168 
L 164.711807 414.296491 
L 165.225501 414.195786 
L 165.739194 412.543146 
L 166.252888 416.218876 
L 166.766582 414.902519 
L 167.280276 411.79685 
L 167.79397 410.021925 
L 168.307664 410.818573 
L 168.821358 412.77153 
L 169.335052 412.196073 
L 169.848746 412.287787 
L 170.36244 411.487542 
L 170.876133 412.97294 
L 171.389827 412.818286 
L 172.417215 413.073645 
L 172.930909 412.602489 
L 173.444603 413.737218 
L 173.958297 414.273113 
L 174.471991 414.256928 
L 175.499379 410.930068 
L 176.013072 412.956755 
L 176.526766 413.44949 
L 177.04046 413.183341 
L 178.067848 421.423164 
L 178.581542 420.279443 
L 179.095236 418.477544 
L 179.60893 411.940714 
L 180.122624 412.354324 
L 180.636318 415.014013 
L 181.150012 413.974594 
L 181.663705 412.58091 
L 182.177399 412.755345 
L 182.691093 414.862956 
L 183.718481 414.568034 
L 184.232175 414.758654 
L 184.745869 412.223048 
L 185.259563 416.199095 
L 185.773257 416.10918 
L 186.286951 415.844829 
L 186.800644 414.201181 
L 187.314338 414.436758 
L 187.828032 415.30354 
L 188.341726 414.791024 
L 189.369114 413.014301 
L 189.882808 415.647016 
L 190.396502 415.165071 
L 190.910196 413.613136 
L 191.42389 413.501641 
L 191.937583 413.219307 
L 192.451277 415.184852 
L 192.964971 414.746066 
L 193.478665 413.742613 
L 193.992359 413.098821 
L 194.506053 418.583644 
L 195.019747 419.020632 
L 195.533441 419.18068 
L 196.047135 417.261892 
L 196.560829 416.542571 
L 197.074522 416.459849 
L 197.588216 416.799728 
L 198.10191 416.722401 
L 198.615604 415.344901 
L 199.129298 417.028112 
L 199.642992 416.520991 
L 200.67038 415.848426 
L 201.184074 414.422372 
L 201.697768 417.042499 
L 202.211461 417.209741 
L 202.725155 416.666653 
L 203.238849 412.996318 
L 203.752543 414.060913 
L 204.266237 418.247361 
L 204.779931 418.945103 
L 205.293625 415.305338 
L 205.807319 413.186938 
L 206.321013 416.630687 
L 206.834707 417.222329 
L 207.3484 416.38432 
L 207.862094 414.654353 
L 208.375788 414.666941 
L 208.889482 418.283327 
L 209.403176 417.948843 
L 209.91687 417.407554 
L 210.944258 415.368279 
L 211.457952 416.884248 
L 211.971646 416.914819 
L 212.485339 417.085658 
L 212.999033 415.352094 
L 213.512727 418.144858 
L 214.026421 415.798073 
L 214.540115 421.460928 
L 215.053809 420.284838 
L 215.567503 419.493585 
L 216.081197 423.336558 
L 216.594891 418.939708 
L 217.108585 415.675789 
L 217.622278 415.587672 
L 218.135972 415.346699 
L 218.649666 415.382665 
L 219.16336 415.147088 
L 219.677054 415.193844 
L 220.190748 414.11666 
L 220.704442 417.173775 
L 221.218136 417.483083 
L 221.73183 417.153993 
L 222.245524 416.981356 
L 222.759217 413.507036 
L 223.272911 416.244052 
L 223.786605 415.91856 
L 224.813993 412.904604 
L 225.327687 415.977904 
L 225.841381 416.878853 
L 226.355075 415.603857 
L 226.868769 413.728227 
L 227.382463 412.534154 
L 227.896157 415.52653 
L 228.40985 414.147231 
L 228.923544 413.872091 
L 229.437238 412.352525 
L 229.950932 413.730025 
L 230.464626 416.197296 
L 231.492014 415.098534 
L 232.005708 414.249735 
L 232.519402 414.213769 
L 233.033096 414.300087 
L 233.546789 414.542858 
L 234.060483 414.323465 
L 234.574177 413.026889 
L 235.087871 416.425681 
L 235.601565 416.335766 
L 236.628953 412.95136 
L 237.142647 414.35044 
L 237.656341 416.364539 
L 238.170035 415.936543 
L 238.683728 414.030342 
L 239.197422 413.712042 
L 239.711116 418.324688 
L 240.22481 417.182766 
L 240.738504 416.972365 
L 241.252198 417.470495 
L 241.765892 415.736931 
L 242.279586 418.405612 
L 242.79328 418.371444 
L 243.306974 418.107094 
L 243.820667 416.752972 
L 244.334361 414.913308 
L 244.848055 414.657949 
L 245.361749 414.618387 
L 245.875443 417.537032 
L 246.389137 419.130328 
L 246.902831 422.036385 
L 247.416525 422.579472 
L 247.930219 417.281673 
L 248.443913 416.17212 
L 248.957606 416.17212 
L 249.4713 418.882162 
L 249.984994 415.61105 
L 250.498688 422.106519 
L 251.012382 420.024084 
L 251.526076 419.646441 
L 252.03977 419.083572 
L 252.553464 418.321092 
L 253.067158 418.642988 
L 253.580852 417.314042 
L 254.094545 418.6304 
L 254.608239 418.464956 
L 255.121933 417.668308 
L 255.635627 416.492218 
L 256.149321 418.858784 
L 256.663015 418.864179 
L 257.176709 419.20226 
L 258.204097 415.233406 
L 258.717791 416.265632 
L 259.231484 416.79793 
L 259.745178 416.96697 
L 260.258872 415.20823 
L 260.772566 418.934313 
L 261.28626 417.148599 
L 261.799954 415.922156 
L 262.313648 414.377414 
L 263.341036 415.244196 
L 263.85473 415.422228 
L 264.368423 415.114718 
L 264.882117 414.488909 
L 265.395811 414.224558 
L 265.909505 418.349865 
L 266.423199 417.979414 
L 266.936893 416.425681 
L 267.450587 415.368279 
L 267.964281 416.603713 
L 268.477975 416.393311 
L 268.991669 415.956324 
L 269.505362 415.172264 
L 270.019056 413.431507 
L 270.53275 415.181255 
L 271.046444 414.069904 
L 271.560138 413.643707 
L 272.073832 411.037966 
L 272.587526 412.116948 
L 273.10122 415.629033 
L 273.614914 415.571487 
L 274.128608 414.733478 
L 274.642301 413.426112 
L 275.155995 414.141837 
L 275.669689 414.391801 
L 276.183383 413.965603 
L 276.697077 412.715783 
L 277.210771 414.325263 
L 277.724465 416.569545 
L 278.238159 416.344757 
L 278.751853 415.988693 
L 279.265547 414.145433 
L 279.779241 416.859072 
L 280.292934 416.898634 
L 280.806628 415.832241 
L 281.320322 415.817855 
L 281.834016 413.070048 
L 282.34771 416.905828 
L 282.861404 416.413093 
L 283.375098 415.702763 
L 284.402486 412.651044 
L 284.91618 414.643563 
L 285.429873 414.242541 
L 285.943567 414.154425 
L 286.457261 412.593498 
L 286.970955 415.569689 
L 287.484649 415.627234 
L 287.998343 415.334111 
L 288.512037 415.310733 
L 289.025731 412.764337 
L 289.539425 415.569689 
L 290.053119 415.375472 
L 290.566812 415.344901 
L 291.080506 413.641908 
L 291.5942 416.738586 
L 292.107894 416.046239 
L 292.621588 416.315984 
L 293.135282 414.870149 
L 293.648976 413.077241 
L 294.16267 417.125221 
L 294.676364 417.287068 
L 295.190058 416.350152 
L 295.703751 414.981644 
L 296.217445 414.21197 
L 296.731139 417.916474 
L 297.244833 415.830443 
L 297.758527 415.819653 
L 298.272221 414.555446 
L 298.785915 416.272825 
L 299.299609 415.826846 
L 299.813303 415.78009 
L 300.326997 416.024659 
L 300.84069 421.651548 
L 301.354384 422.62443 
L 301.868078 421.876336 
L 302.381772 422.097527 
L 302.895466 414.433162 
L 303.40916 415.071559 
L 303.922854 418.114287 
L 304.436548 416.779946 
L 304.950242 414.99603 
L 305.463936 414.999627 
L 305.977629 416.605511 
L 306.491323 417.100044 
L 307.518711 414.817998 
L 308.032405 414.294692 
L 308.546099 415.765704 
L 309.059793 415.467186 
L 309.573487 415.789082 
L 310.087181 413.794764 
L 310.600875 416.339362 
L 311.114568 415.337708 
L 312.141956 414.632773 
L 312.65565 414.120257 
L 313.169344 417.161187 
L 313.683038 416.745779 
L 314.196732 419.03322 
L 315.22412 419.337133 
L 315.737814 419.157303 
L 316.251507 415.571487 
L 316.765201 414.150828 
L 317.278895 414.343246 
L 317.792589 418.92712 
L 319.333671 413.791168 
L 319.847365 412.607884 
L 320.361059 415.751317 
L 320.874753 414.949274 
L 321.388446 415.103928 
L 321.90214 414.382809 
L 322.415834 416.420286 
L 322.929528 417.738442 
L 323.443222 417.689888 
L 323.956916 416.326774 
L 324.47061 416.413093 
L 324.984304 417.546023 
L 325.497998 417.251102 
L 326.525386 414.298289 
L 327.039079 415.492362 
L 327.552773 417.981213 
L 328.066467 418.517107 
L 328.580161 417.675501 
L 329.093855 416.371732 
L 329.607549 414.303684 
L 330.121243 414.73168 
L 330.634937 414.787427 
L 331.148631 414.569833 
L 331.662325 413.57717 
L 332.176018 416.922012 
L 332.689712 416.911223 
L 333.203406 414.577026 
L 333.7171 414.706504 
L 334.230794 414.172408 
L 334.744488 417.608964 
L 335.258182 416.706216 
L 335.771876 416.646872 
L 336.28557 414.877342 
L 336.799264 416.562352 
L 337.312957 416.677443 
L 337.826651 414.683126 
L 338.340345 413.551993 
L 338.854039 410.788002 
L 339.367733 415.359287 
L 339.881427 415.181255 
L 340.395121 415.339506 
L 340.908815 414.001569 
L 341.422509 417.393168 
L 341.936203 415.932946 
L 342.449896 416.012071 
L 342.96359 415.718948 
L 343.477284 414.560841 
L 343.990978 414.812603 
L 344.504672 415.326918 
L 345.018366 415.012215 
L 345.53206 413.609539 
L 346.045754 414.621983 
L 346.559448 416.844685 
L 347.586835 415.979702 
L 348.100529 414.652554 
L 348.614223 414.679529 
L 349.127917 414.934888 
L 349.641611 414.260525 
L 350.668999 413.74621 
L 351.182693 417.488478 
L 351.696387 416.995743 
L 352.210081 417.085658 
L 352.723774 415.839434 
L 353.237468 415.407842 
L 353.751162 415.807065 
L 354.264856 415.513941 
L 354.77855 415.97071 
L 355.292244 413.740815 
L 355.805938 417.767215 
L 356.319632 417.74024 
L 356.833326 416.826702 
L 357.34702 416.4059 
L 357.860713 415.31433 
L 358.374407 417.54962 
L 358.888101 418.263546 
L 359.401795 416.064222 
L 359.915489 415.952727 
L 360.429183 420.667877 
L 360.942877 419.340729 
L 361.456571 416.761963 
L 361.970265 416.783543 
L 362.483959 415.576882 
L 362.997652 416.380723 
L 363.511346 416.411294 
L 364.02504 416.105583 
L 364.538734 415.035593 
L 365.052428 414.663344 
L 365.566122 417.670106 
L 366.079816 417.788794 
L 366.59351 416.531781 
L 367.107204 416.339362 
L 367.620898 416.722401 
L 368.134591 418.069329 
L 368.648285 417.029911 
L 369.161979 417.332025 
L 369.675673 416.235061 
L 370.189367 418.856986 
L 370.703061 419.833464 
L 371.216755 419.18068 
L 372.244143 416.245851 
L 372.757837 417.511856 
L 373.27153 417.661115 
L 373.785224 416.46884 
L 374.298918 416.679242 
L 374.812612 417.506461 
L 375.84 414.490707 
L 376.353694 413.690463 
L 376.867388 413.422515 
L 377.381082 418.05854 
L 377.894776 417.267286 
L 378.40847 417.472293 
L 378.922163 415.925753 
L 379.435857 417.715064 
L 379.949551 420.238082 
L 380.976939 416.249447 
L 381.490633 415.68478 
L 382.004327 419.493585 
L 382.518021 419.637449 
L 383.031715 424.771603 
L 383.545409 423.074006 
L 384.059102 422.716143 
L 384.572796 424.474883 
L 385.08649 419.709381 
L 385.600184 419.617668 
L 386.113878 418.504519 
L 386.627572 421.252325 
L 387.141266 420.585155 
L 387.65496 424.674495 
L 388.168654 423.1855 
L 388.682348 415.884392 
L 389.196041 418.517107 
L 389.709735 418.912733 
L 390.223429 418.017179 
L 390.737123 416.37353 
L 391.250817 419.008043 
L 391.764511 420.279443 
L 392.278205 420.254267 
L 392.791899 419.802893 
L 393.305593 418.529695 
L 394.33298 419.617668 
L 394.846674 419.004447 
L 395.360368 417.513654 
L 395.874062 418.565661 
L 396.387756 421.743262 
L 396.90145 420.955605 
L 397.415144 419.324545 
L 397.928838 418.137665 
L 398.442532 420.158957 
L 399.469919 418.32289 
L 399.983613 418.700534 
L 400.497307 417.853533 
L 401.011001 418.928918 
L 401.524695 418.081918 
L 402.552083 415.540916 
L 403.065777 416.751174 
L 403.579471 418.560266 
L 404.606858 417.837348 
L 405.120552 416.513798 
L 405.634246 419.484594 
L 406.14794 419.937766 
L 407.175328 417.198951 
L 407.689022 417.900289 
L 408.202716 420.482652 
L 408.71641 420.635507 
L 409.230104 420.592348 
L 409.743797 419.407267 
L 410.257491 419.790305 
L 410.771185 426.852239 
L 411.284879 427.084221 
L 411.798573 426.773114 
L 412.312267 425.302103 
L 412.825961 430.524373 
L 413.339655 428.670323 
L 413.853349 428.434746 
L 414.367043 426.411655 
L 414.880736 423.908418 
L 415.39443 428.058901 
L 415.908124 427.533796 
L 416.935512 425.066525 
L 417.449206 428.004951 
L 417.9629 427.843104 
L 418.476594 427.496032 
L 418.990288 426.532142 
L 419.503982 426.273186 
L 420.017675 428.330444 
L 420.531369 427.737004 
L 421.045063 427.986968 
L 421.558757 426.219237 
L 422.072451 428.934674 
L 422.586145 425.124071 
L 423.099839 425.390219 
L 423.613533 424.469488 
L 424.127227 424.969417 
L 424.640921 425.041349 
L 425.154614 424.554009 
L 425.668308 424.699671 
L 426.182002 423.487615 
L 426.695696 424.187155 
L 427.20939 427.240673 
L 427.723084 427.154354 
L 428.236778 426.684997 
L 428.750472 424.284263 
L 429.264166 425.686939 
L 429.77786 426.307354 
L 430.291554 426.397269 
L 430.805247 425.875761 
L 431.318941 424.884896 
L 431.832635 426.98891 
L 432.346329 426.663418 
L 432.860023 425.079113 
L 433.373717 424.577387 
L 433.887411 424.589975 
L 434.401105 426.069978 
L 434.914799 425.161835 
L 435.428493 425.008979 
L 435.942186 423.253836 
L 436.45588 427.398923 
L 436.969574 427.255059 
L 437.483268 427.267647 
L 437.996962 426.499772 
L 438.510656 426.007037 
L 439.02435 426.577099 
L 440.051738 426.300161 
L 440.565432 424.501858 
L 441.079125 428.99222 
L 441.592819 428.625366 
L 442.106513 428.521064 
L 442.620207 426.456613 
L 443.133901 426.186867 
L 443.647595 427.979775 
L 444.161289 425.242759 
L 444.674983 425.386623 
L 445.188677 424.237507 
L 445.702371 425.444169 
L 446.216064 427.643493 
L 446.729758 427.933019 
L 447.243452 426.043003 
L 447.757146 426.138313 
L 448.27084 425.539479 
L 448.784534 425.938702 
L 449.298228 425.354253 
L 449.811922 422.705354 
L 450.325616 421.860151 
L 450.83931 424.131408 
L 451.353003 429.992076 
L 451.866697 428.134429 
L 452.380391 428.235134 
L 452.894085 430.92 
L 453.407779 426.53394 
L 453.921473 426.147305 
L 454.435167 425.019769 
L 454.948861 424.620546 
L 456.489942 424.406548 
L 457.003636 423.363532 
L 458.031024 424.528832 
L 458.544718 424.554009 
L 459.058412 423.338356 
L 459.572106 423.075804 
L 460.0858 419.241823 
L 460.599494 418.538686 
L 461.113188 416.833896 
L 461.626881 416.729594 
L 462.140575 418.928918 
L 462.654269 420.358569 
L 463.167963 419.538543 
L 463.681657 418.114287 
L 464.195351 418.412805 
L 464.709045 422.51833 
L 465.736433 421.795412 
L 466.250127 420.157159 
L 466.76382 419.905396 
L 467.277514 422.581271 
L 467.791208 421.685716 
L 468.304902 418.943305 
L 468.818596 417.786996 
L 469.33229 419.543938 
L 469.845984 418.427192 
L 470.359678 417.817567 
L 470.873372 417.598174 
L 471.900759 425.983659 
L 472.414453 426.12033 
L 472.928147 426.404462 
L 473.441841 420.786565 
L 473.955535 420.705641 
L 474.469229 425.45316 
L 474.982923 424.915468 
L 475.496617 424.052282 
L 476.010311 420.896261 
L 476.524005 421.658741 
L 477.037699 422.011209 
L 477.551392 421.500491 
L 478.065086 421.410576 
L 478.57878 420.56897 
L 479.092474 422.509339 
L 479.606168 422.856411 
L 480.119862 420.964597 
L 481.14725 421.460928 
L 481.660944 422.458986 
L 482.174638 420.705641 
L 482.688331 421.000563 
L 483.202025 419.256209 
L 483.715719 421.982436 
L 484.229413 421.822387 
L 484.743107 421.275703 
L 485.256801 419.97553 
L 485.770495 416.630687 
L 486.284189 418.932515 
L 486.797883 419.365906 
L 487.82527 417.209741 
L 488.338964 418.186219 
L 488.852658 420.345981 
L 489.366352 420.013295 
L 489.880046 420.180537 
L 490.39374 417.035305 
L 490.907434 420.693053 
L 491.421128 420.538399 
L 491.934822 420.074437 
L 492.448516 418.675357 
L 493.475903 420.135579 
L 493.989597 419.013438 
L 494.503291 419.473804 
L 495.016985 415.643419 
L 495.530679 420.069042 
L 496.044373 418.675357 
L 496.558067 418.398419 
L 497.071761 416.769157 
L 497.585455 417.118027 
L 498.099148 420.01869 
L 498.612842 419.619466 
L 499.126536 419.5835 
L 499.64023 417.83555 
L 500.153924 417.619754 
L 500.667618 420.036673 
L 501.181312 420.049261 
L 501.695006 419.108748 
L 502.2087 416.986751 
L 502.722394 419.13932 
L 503.236087 418.202404 
L 503.749781 416.494016 
L 504.263475 413.810949 
L 504.777169 414.612992 
L 505.290863 416.887845 
L 505.804557 416.95618 
L 506.318251 416.763762 
L 506.831945 415.48337 
L 507.345639 414.913308 
L 507.859333 415.269372 
L 508.373026 415.474379 
L 508.88672 415.389859 
L 509.400414 412.715783 
L 509.914108 416.195498 
L 510.427802 416.253044 
L 510.941496 416.089398 
L 511.45519 414.600404 
L 511.968884 415.228011 
L 512.482578 418.161043 
L 513.509965 414.372019 
L 514.023659 413.974594 
L 514.537353 418.12148 
L 515.051047 418.50272 
L 515.564741 417.918272 
L 516.078435 417.508259 
L 516.592129 416.136154 
L 517.105823 413.643707 
L 517.619517 413.598749 
L 518.133211 412.064797 
L 518.646904 410.01653 
L 519.160598 411.208805 
L 519.674292 418.522502 
L 520.187986 417.932658 
L 520.70168 415.627234 
L 521.215374 415.632629 
L 521.729068 413.345188 
L 522.242762 413.424314 
L 522.756456 412.336341 
L 523.27015 409.682046 
L 523.783843 410.568609 
L 524.297537 420.678667 
L 524.811231 420.01869 
L 525.324925 418.236572 
L 525.838619 418.292319 
L 526.352313 414.283902 
L 526.866007 414.568034 
L 527.379701 414.634571 
L 527.893395 413.339794 
L 528.407089 412.726572 
L 528.920783 414.724487 
L 529.434476 414.359431 
L 529.94817 413.334399 
L 530.461864 410.964236 
L 531.489252 413.593354 
L 532.002946 413.35418 
L 532.51664 413.596951 
L 533.030334 412.30577 
L 533.544028 414.665143 
L 534.057722 414.53027 
L 534.571415 412.728371 
L 535.085109 412.516171 
L 535.598803 410.858136 
L 536.112497 411.286132 
L 537.139885 408.604863 
L 537.653579 407.626586 
L 538.167273 408.919566 
L 538.680967 407.977255 
L 539.194661 407.775845 
L 539.708354 408.115724 
L 540.222048 407.013365 
L 540.735742 406.236498 
L 541.249436 406.062063 
L 541.76313 406.189742 
L 542.276824 404.643202 
L 542.790518 404.159459 
L 543.304212 407.684132 
L 543.817906 407.613998 
L 544.845293 404.900359 
L 545.358987 407.725493 
L 545.872681 408.198446 
L 546.386375 407.687728 
L 546.900069 406.339001 
L 547.413763 403.810588 
L 547.927457 406.20233 
L 548.441151 406.409135 
L 548.954845 407.10328 
L 549.468539 405.200676 
L 549.982232 404.251172 
L 550.495926 405.436254 
L 551.00962 405.360725 
L 551.523314 405.750956 
L 552.037008 401.967328 
L 552.550702 404.195425 
L 553.57809 403.756639 
L 554.091784 401.391871 
L 554.605478 401.377485 
L 555.119171 403.805193 
L 555.632865 403.970637 
L 556.146559 400.981858 
L 556.660253 401.086159 
L 557.173947 402.001496 
L 557.687641 404.652194 
L 558.201335 404.547892 
L 558.715029 404.603639 
L 559.742417 402.238871 
L 560.25611 402.43129 
L 561.797192 402.188519 
L 562.310886 405.531564 
L 562.82458 404.814041 
L 563.338274 403.211753 
L 563.851968 401.978118 
L 564.365662 404.484951 
L 564.879356 417.020919 
L 565.393049 410.516458 
L 565.906743 407.1878 
L 566.420437 405.42906 
L 566.934131 410.212545 
L 567.447825 410.34562 
L 567.961519 406.01171 
L 568.475213 403.771025 
L 568.988907 403.648741 
L 569.502601 405.371515 
L 570.529988 403.456322 
L 571.043682 401.296561 
L 571.557376 403.031923 
L 572.07107 404.092921 
L 573.098458 401.43503 
L 573.612152 399.692475 
L 574.125846 399.500057 
L 574.63954 399.769802 
L 575.153234 398.726786 
L 575.666928 396.588605 
L 576.180621 399.374175 
L 576.694315 400.579038 
L 577.208009 400.359645 
L 577.721703 398.680031 
L 578.235397 397.433807 
L 578.749091 399.841734 
L 579.262785 400.151042 
L 579.776479 400.289511 
L 580.803867 396.691108 
L 581.31756 399.489267 
L 581.831254 398.061414 
L 582.344948 398.417478 
L 582.858642 396.246927 
L 583.372336 397.649603 
L 583.88603 397.428412 
L 584.399724 397.701754 
L 585.427112 396.079685 
L 585.940806 398.061414 
L 586.454499 397.529117 
L 587.481887 393.337273 
L 587.995581 399.01991 
L 588.509275 402.53739 
L 589.022969 401.580693 
L 589.536663 400.176218 
L 590.050357 396.28649 
L 590.564051 399.737433 
L 591.077745 397.352883 
L 591.591438 397.570478 
L 592.105132 396.270305 
L 592.618826 394.412658 
L 593.13252 397.511134 
L 593.646214 397.23959 
L 594.159908 397.554293 
L 594.673602 396.293683 
L 595.187296 398.915608 
L 595.70099 395.709235 
L 596.214684 395.694848 
L 596.728377 395.896258 
L 597.242071 393.261745 
L 597.755765 397.023794 
L 598.783153 396.37101 
L 599.296847 394.382087 
L 599.810541 394.608673 
L 600.324235 397.583066 
L 600.837929 397.243187 
L 601.351623 395.259659 
L 601.865316 395.669672 
L 602.37901 399.375974 
L 602.892704 398.989339 
L 603.406398 396.883526 
L 603.920092 396.230742 
L 604.433786 394.328138 
L 604.94748 394.306559 
L 605.461174 393.108889 
L 605.974868 392.538827 
L 606.488562 390.943733 
L 607.002255 391.988547 
L 607.515949 391.986748 
L 608.029643 390.832238 
L 608.543337 390.267571 
L 609.057031 388.061054 
L 609.570725 391.48682 
L 610.084419 391.69902 
L 610.598113 391.416686 
L 611.111807 390.400645 
L 611.625501 389.873743 
L 612.139194 390.916758 
L 612.652888 390.751314 
L 613.166582 390.326915 
L 613.680276 388.436899 
L 614.19397 393.184418 
L 614.707664 392.920067 
L 615.221358 393.105292 
L 615.735052 391.968765 
L 616.248746 391.161327 
L 616.76244 391.245848 
L 617.276133 391.580332 
L 618.303521 388.343387 
L 618.817215 390.219017 
L 619.330909 390.05717 
L 619.330909 390.05717 
" style="fill:none;stroke:#1f77b4;stroke-linecap:square;stroke-width:1.5;"/>
   </g>
   <g id="patch_3">
    <path d="M 108 448.56 
L 108 60.48 
" style="fill:none;stroke:#000000;stroke-linecap:square;stroke-linejoin:miter;stroke-width:0.8;"/>
   </g>
   <g id="patch_4">
    <path d="M 643.68 448.56 
L 643.68 60.48 
" style="fill:none;stroke:#000000;stroke-linecap:square;stroke-linejoin:miter;stroke-width:0.8;"/>
   </g>
   <g id="patch_5">
    <path d="M 108 448.56 
L 643.68 448.56 
" style="fill:none;stroke:#000000;stroke-linecap:square;stroke-linejoin:miter;stroke-width:0.8;"/>
   </g>
   <g id="patch_6">
    <path d="M 108 60.48 
L 643.68 60.48 
" style="fill:none;stroke:#000000;stroke-linecap:square;stroke-linejoin:miter;stroke-width:0.8;"/>
   </g>
   <g id="text_33">
    <!-- unikernel_dce - free -->
    <g transform="translate(301.653281 54.48)scale(0.15 -0.15)">
     <defs>
      <path d="M 8.5 21.578125 
L 8.5 54.6875 
L 17.484375 54.6875 
L 17.484375 21.921875 
Q 17.484375 14.15625 20.5 10.265625 
Q 23.53125 6.390625 29.59375 6.390625 
Q 36.859375 6.390625 41.078125 11.03125 
Q 45.3125 15.671875 45.3125 23.6875 
L 45.3125 54.6875 
L 54.296875 54.6875 
L 54.296875 0 
L 45.3125 0 
L 45.3125 8.40625 
Q 42.046875 3.421875 37.71875 1 
Q 33.40625 -1.421875 27.6875 -1.421875 
Q 18.265625 -1.421875 13.375 4.4375 
Q 8.5 10.296875 8.5 21.578125 
z
M 31.109375 56 
z
" id="DejaVuSans-117"/>
      <path d="M 54.890625 33.015625 
L 54.890625 0 
L 45.90625 0 
L 45.90625 32.71875 
Q 45.90625 40.484375 42.875 44.328125 
Q 39.84375 48.1875 33.796875 48.1875 
Q 26.515625 48.1875 22.3125 43.546875 
Q 18.109375 38.921875 18.109375 30.90625 
L 18.109375 0 
L 9.078125 0 
L 9.078125 54.6875 
L 18.109375 54.6875 
L 18.109375 46.1875 
Q 21.34375 51.125 25.703125 53.5625 
Q 30.078125 56 35.796875 56 
Q 45.21875 56 50.046875 50.171875 
Q 54.890625 44.34375 54.890625 33.015625 
z
" id="DejaVuSans-110"/>
      <path d="M 9.078125 75.984375 
L 18.109375 75.984375 
L 18.109375 31.109375 
L 44.921875 54.6875 
L 56.390625 54.6875 
L 27.390625 29.109375 
L 57.625 0 
L 45.90625 0 
L 18.109375 26.703125 
L 18.109375 0 
L 9.078125 0 
z
" id="DejaVuSans-107"/>
      <path d="M 41.109375 46.296875 
Q 39.59375 47.171875 37.8125 47.578125 
Q 36.03125 48 33.890625 48 
Q 26.265625 48 22.1875 43.046875 
Q 18.109375 38.09375 18.109375 28.8125 
L 18.109375 0 
L 9.078125 0 
L 9.078125 54.6875 
L 18.109375 54.6875 
L 18.109375 46.1875 
Q 20.953125 51.171875 25.484375 53.578125 
Q 30.03125 56 36.53125 56 
Q 37.453125 56 38.578125 55.875 
Q 39.703125 55.765625 41.0625 55.515625 
z
" id="DejaVuSans-114"/>
      <path d="M 9.421875 75.984375 
L 18.40625 75.984375 
L 18.40625 0 
L 9.421875 0 
z
" id="DejaVuSans-108"/>
      <path d="M 50.984375 -16.609375 
L 50.984375 -23.578125 
L -0.984375 -23.578125 
L -0.984375 -16.609375 
z
" id="DejaVuSans-95"/>
      <path d="M 45.40625 46.390625 
L 45.40625 75.984375 
L 54.390625 75.984375 
L 54.390625 0 
L 45.40625 0 
L 45.40625 8.203125 
Q 42.578125 3.328125 38.25 0.953125 
Q 33.9375 -1.421875 27.875 -1.421875 
Q 17.96875 -1.421875 11.734375 6.484375 
Q 5.515625 14.40625 5.515625 27.296875 
Q 5.515625 40.1875 11.734375 48.09375 
Q 17.96875 56 27.875 56 
Q 33.9375 56 38.25 53.625 
Q 42.578125 51.265625 45.40625 46.390625 
z
M 14.796875 27.296875 
Q 14.796875 17.390625 18.875 11.75 
Q 22.953125 6.109375 30.078125 6.109375 
Q 37.203125 6.109375 41.296875 11.75 
Q 45.40625 17.390625 45.40625 27.296875 
Q 45.40625 37.203125 41.296875 42.84375 
Q 37.203125 48.484375 30.078125 48.484375 
Q 22.953125 48.484375 18.875 42.84375 
Q 14.796875 37.203125 14.796875 27.296875 
z
" id="DejaVuSans-100"/>
      <path d="M 48.78125 52.59375 
L 48.78125 44.1875 
Q 44.96875 46.296875 41.140625 47.34375 
Q 37.3125 48.390625 33.40625 48.390625 
Q 24.65625 48.390625 19.8125 42.84375 
Q 14.984375 37.3125 14.984375 27.296875 
Q 14.984375 17.28125 19.8125 11.734375 
Q 24.65625 6.203125 33.40625 6.203125 
Q 37.3125 6.203125 41.140625 7.25 
Q 44.96875 8.296875 48.78125 10.40625 
L 48.78125 2.09375 
Q 45.015625 0.34375 40.984375 -0.53125 
Q 36.96875 -1.421875 32.421875 -1.421875 
Q 20.0625 -1.421875 12.78125 6.34375 
Q 5.515625 14.109375 5.515625 27.296875 
Q 5.515625 40.671875 12.859375 48.328125 
Q 20.21875 56 33.015625 56 
Q 37.15625 56 41.109375 55.140625 
Q 45.0625 54.296875 48.78125 52.59375 
z
" id="DejaVuSans-99"/>
      <path id="DejaVuSans-32"/>
      <path d="M 4.890625 31.390625 
L 31.203125 31.390625 
L 31.203125 23.390625 
L 4.890625 23.390625 
z
" id="DejaVuSans-45"/>
      <path d="M 37.109375 75.984375 
L 37.109375 68.5 
L 28.515625 68.5 
Q 23.6875 68.5 21.796875 66.546875 
Q 19.921875 64.59375 19.921875 59.515625 
L 19.921875 54.6875 
L 34.71875 54.6875 
L 34.71875 47.703125 
L 19.921875 47.703125 
L 19.921875 0 
L 10.890625 0 
L 10.890625 47.703125 
L 2.296875 47.703125 
L 2.296875 54.6875 
L 10.890625 54.6875 
L 10.890625 58.5 
Q 10.890625 67.625 15.140625 71.796875 
Q 19.390625 75.984375 28.609375 75.984375 
z
" id="DejaVuSans-102"/>
     </defs>
     <use xlink:href="#DejaVuSans-117"/>
     <use x="63.378906" xlink:href="#DejaVuSans-110"/>
     <use x="126.757812" xlink:href="#DejaVuSans-105"/>
     <use x="154.541016" xlink:href="#DejaVuSans-107"/>
     <use x="208.826172" xlink:href="#DejaVuSans-101"/>
     <use x="270.349609" xlink:href="#DejaVuSans-114"/>
     <use x="309.712891" xlink:href="#DejaVuSans-110"/>
     <use x="373.091797" xlink:href="#DejaVuSans-101"/>
     <use x="434.615234" xlink:href="#DejaVuSans-108"/>
     <use x="462.398438" xlink:href="#DejaVuSans-95"/>
     <use x="512.398438" xlink:href="#DejaVuSans-100"/>
     <use x="575.875" xlink:href="#DejaVuSans-99"/>
     <use x="630.855469" xlink:href="#DejaVuSans-101"/>
     <use x="692.378906" xlink:href="#DejaVuSans-32"/>
     <use x="724.166016" xlink:href="#DejaVuSans-45"/>
     <use x="760.25" xlink:href="#DejaVuSans-32"/>
     <use x="792.037109" xlink:href="#DejaVuSans-102"/>
     <use x="827.242188" xlink:href="#DejaVuSans-114"/>
     <use x="866.105469" xlink:href="#DejaVuSans-101"/>
     <use x="927.628906" xlink:href="#DejaVuSans-101"/>
    </g>
   </g>
   <g id="legend_1">
    <g id="patch_7">
     <path d="M 650.68 258.52 
L 654.68 258.52 
Q 656.68 258.52 656.68 256.52 
L 656.68 252.52 
Q 656.68 250.52 654.68 250.52 
L 650.68 250.52 
Q 648.68 250.52 648.68 252.52 
L 648.68 256.52 
Q 648.68 258.52 650.68 258.52 
z
" style="fill:#ffffff;opacity:0.8;stroke:#cccccc;stroke-linejoin:miter;"/>
    </g>
   </g>
  </g>
 </g>
 <defs>
  <clipPath id="p88c0c78e76">
   <rect height="388.08" width="535.68" x="108" y="60.48"/>
  </clipPath>
 </defs>
</svg>
