<?xml version="1.0" encoding="utf-8" standalone="no"?>
<!DOCTYPE svg PUBLIC "-//W3C//DTD SVG 1.1//EN"
  "http://www.w3.org/Graphics/SVG/1.1/DTD/svg11.dtd">
<!-- Created with matplotlib (https://matplotlib.org/) -->
<svg height="504pt" version="1.1" viewBox="0 0 864 504" width="864pt" xmlns="http://www.w3.org/2000/svg" xmlns:xlink="http://www.w3.org/1999/xlink">
 <metadata>
  <rdf:RDF xmlns:cc="http://creativecommons.org/ns#" xmlns:dc="http://purl.org/dc/elements/1.1/" xmlns:rdf="http://www.w3.org/1999/02/22-rdf-syntax-ns#">
   <cc:Work>
    <dc:type rdf:resource="http://purl.org/dc/dcmitype/StillImage"/>
    <dc:date>2022-06-15T08:00:19.419685</dc:date>
    <dc:format>image/svg+xml</dc:format>
    <dc:creator>
     <cc:Agent>
      <dc:title>Matplotlib v3.3.4, https://matplotlib.org/</dc:title>
     </cc:Agent>
    </dc:creator>
   </cc:Work>
  </rdf:RDF>
 </metadata>
 <defs>
  <style type="text/css">*{stroke-linecap:butt;stroke-linejoin:round;}</style>
 </defs>
 <g id="figure_1">
  <g id="patch_1">
   <path d="M 0 504 
L 864 504 
L 864 0 
L 0 0 
z
" style="fill:#ffffff;"/>
  </g>
  <g id="axes_1">
   <g id="patch_2">
    <path d="M 108 448.56 
L 643.68 448.56 
L 643.68 60.48 
L 108 60.48 
z
" style="fill:#ffffff;"/>
   </g>
   <g id="matplotlib.axis_1">
    <g id="xtick_1">
     <g id="line2d_1">
      <defs>
       <path d="M 0 0 
L 0 3.5 
" id="mdd63f41fed" style="stroke:#000000;stroke-width:0.8;"/>
      </defs>
      <g>
       <use style="stroke:#000000;stroke-width:0.8;" x="131.856693" xlink:href="#mdd63f41fed" y="448.56"/>
      </g>
     </g>
     <g id="text_1">
      <!-- 0 -->
      <g transform="translate(128.675443 463.158437)scale(0.1 -0.1)">
       <defs>
        <path d="M 31.78125 66.40625 
Q 24.171875 66.40625 20.328125 58.90625 
Q 16.5 51.421875 16.5 36.375 
Q 16.5 21.390625 20.328125 13.890625 
Q 24.171875 6.390625 31.78125 6.390625 
Q 39.453125 6.390625 43.28125 13.890625 
Q 47.125 21.390625 47.125 36.375 
Q 47.125 51.421875 43.28125 58.90625 
Q 39.453125 66.40625 31.78125 66.40625 
z
M 31.78125 74.21875 
Q 44.046875 74.21875 50.515625 64.515625 
Q 56.984375 54.828125 56.984375 36.375 
Q 56.984375 17.96875 50.515625 8.265625 
Q 44.046875 -1.421875 31.78125 -1.421875 
Q 19.53125 -1.421875 13.0625 8.265625 
Q 6.59375 17.96875 6.59375 36.375 
Q 6.59375 54.828125 13.0625 64.515625 
Q 19.53125 74.21875 31.78125 74.21875 
z
" id="DejaVuSans-48"/>
       </defs>
       <use xlink:href="#DejaVuSans-48"/>
      </g>
     </g>
    </g>
    <g id="xtick_2">
     <g id="line2d_2">
      <g>
       <use style="stroke:#000000;stroke-width:0.8;" x="230.336332" xlink:href="#mdd63f41fed" y="448.56"/>
      </g>
     </g>
     <g id="text_2">
      <!-- 200 -->
      <g transform="translate(220.792582 463.158437)scale(0.1 -0.1)">
       <defs>
        <path d="M 19.1875 8.296875 
L 53.609375 8.296875 
L 53.609375 0 
L 7.328125 0 
L 7.328125 8.296875 
Q 12.9375 14.109375 22.625 23.890625 
Q 32.328125 33.6875 34.8125 36.53125 
Q 39.546875 41.84375 41.421875 45.53125 
Q 43.3125 49.21875 43.3125 52.78125 
Q 43.3125 58.59375 39.234375 62.25 
Q 35.15625 65.921875 28.609375 65.921875 
Q 23.96875 65.921875 18.8125 64.3125 
Q 13.671875 62.703125 7.8125 59.421875 
L 7.8125 69.390625 
Q 13.765625 71.78125 18.9375 73 
Q 24.125 74.21875 28.421875 74.21875 
Q 39.75 74.21875 46.484375 68.546875 
Q 53.21875 62.890625 53.21875 53.421875 
Q 53.21875 48.921875 51.53125 44.890625 
Q 49.859375 40.875 45.40625 35.40625 
Q 44.1875 33.984375 37.640625 27.21875 
Q 31.109375 20.453125 19.1875 8.296875 
z
" id="DejaVuSans-50"/>
       </defs>
       <use xlink:href="#DejaVuSans-50"/>
       <use x="63.623047" xlink:href="#DejaVuSans-48"/>
       <use x="127.246094" xlink:href="#DejaVuSans-48"/>
      </g>
     </g>
    </g>
    <g id="xtick_3">
     <g id="line2d_3">
      <g>
       <use style="stroke:#000000;stroke-width:0.8;" x="328.815972" xlink:href="#mdd63f41fed" y="448.56"/>
      </g>
     </g>
     <g id="text_3">
      <!-- 400 -->
      <g transform="translate(319.272222 463.158437)scale(0.1 -0.1)">
       <defs>
        <path d="M 37.796875 64.3125 
L 12.890625 25.390625 
L 37.796875 25.390625 
z
M 35.203125 72.90625 
L 47.609375 72.90625 
L 47.609375 25.390625 
L 58.015625 25.390625 
L 58.015625 17.1875 
L 47.609375 17.1875 
L 47.609375 0 
L 37.796875 0 
L 37.796875 17.1875 
L 4.890625 17.1875 
L 4.890625 26.703125 
z
" id="DejaVuSans-52"/>
       </defs>
       <use xlink:href="#DejaVuSans-52"/>
       <use x="63.623047" xlink:href="#DejaVuSans-48"/>
       <use x="127.246094" xlink:href="#DejaVuSans-48"/>
      </g>
     </g>
    </g>
    <g id="xtick_4">
     <g id="line2d_4">
      <g>
       <use style="stroke:#000000;stroke-width:0.8;" x="427.295612" xlink:href="#mdd63f41fed" y="448.56"/>
      </g>
     </g>
     <g id="text_4">
      <!-- 600 -->
      <g transform="translate(417.751862 463.158437)scale(0.1 -0.1)">
       <defs>
        <path d="M 33.015625 40.375 
Q 26.375 40.375 22.484375 35.828125 
Q 18.609375 31.296875 18.609375 23.390625 
Q 18.609375 15.53125 22.484375 10.953125 
Q 26.375 6.390625 33.015625 6.390625 
Q 39.65625 6.390625 43.53125 10.953125 
Q 47.40625 15.53125 47.40625 23.390625 
Q 47.40625 31.296875 43.53125 35.828125 
Q 39.65625 40.375 33.015625 40.375 
z
M 52.59375 71.296875 
L 52.59375 62.3125 
Q 48.875 64.0625 45.09375 64.984375 
Q 41.3125 65.921875 37.59375 65.921875 
Q 27.828125 65.921875 22.671875 59.328125 
Q 17.53125 52.734375 16.796875 39.40625 
Q 19.671875 43.65625 24.015625 45.921875 
Q 28.375 48.1875 33.59375 48.1875 
Q 44.578125 48.1875 50.953125 41.515625 
Q 57.328125 34.859375 57.328125 23.390625 
Q 57.328125 12.15625 50.6875 5.359375 
Q 44.046875 -1.421875 33.015625 -1.421875 
Q 20.359375 -1.421875 13.671875 8.265625 
Q 6.984375 17.96875 6.984375 36.375 
Q 6.984375 53.65625 15.1875 63.9375 
Q 23.390625 74.21875 37.203125 74.21875 
Q 40.921875 74.21875 44.703125 73.484375 
Q 48.484375 72.75 52.59375 71.296875 
z
" id="DejaVuSans-54"/>
       </defs>
       <use xlink:href="#DejaVuSans-54"/>
       <use x="63.623047" xlink:href="#DejaVuSans-48"/>
       <use x="127.246094" xlink:href="#DejaVuSans-48"/>
      </g>
     </g>
    </g>
    <g id="xtick_5">
     <g id="line2d_5">
      <g>
       <use style="stroke:#000000;stroke-width:0.8;" x="525.775251" xlink:href="#mdd63f41fed" y="448.56"/>
      </g>
     </g>
     <g id="text_5">
      <!-- 800 -->
      <g transform="translate(516.231501 463.158437)scale(0.1 -0.1)">
       <defs>
        <path d="M 31.78125 34.625 
Q 24.75 34.625 20.71875 30.859375 
Q 16.703125 27.09375 16.703125 20.515625 
Q 16.703125 13.921875 20.71875 10.15625 
Q 24.75 6.390625 31.78125 6.390625 
Q 38.8125 6.390625 42.859375 10.171875 
Q 46.921875 13.96875 46.921875 20.515625 
Q 46.921875 27.09375 42.890625 30.859375 
Q 38.875 34.625 31.78125 34.625 
z
M 21.921875 38.8125 
Q 15.578125 40.375 12.03125 44.71875 
Q 8.5 49.078125 8.5 55.328125 
Q 8.5 64.0625 14.71875 69.140625 
Q 20.953125 74.21875 31.78125 74.21875 
Q 42.671875 74.21875 48.875 69.140625 
Q 55.078125 64.0625 55.078125 55.328125 
Q 55.078125 49.078125 51.53125 44.71875 
Q 48 40.375 41.703125 38.8125 
Q 48.828125 37.15625 52.796875 32.3125 
Q 56.78125 27.484375 56.78125 20.515625 
Q 56.78125 9.90625 50.3125 4.234375 
Q 43.84375 -1.421875 31.78125 -1.421875 
Q 19.734375 -1.421875 13.25 4.234375 
Q 6.78125 9.90625 6.78125 20.515625 
Q 6.78125 27.484375 10.78125 32.3125 
Q 14.796875 37.15625 21.921875 38.8125 
z
M 18.3125 54.390625 
Q 18.3125 48.734375 21.84375 45.5625 
Q 25.390625 42.390625 31.78125 42.390625 
Q 38.140625 42.390625 41.71875 45.5625 
Q 45.3125 48.734375 45.3125 54.390625 
Q 45.3125 60.0625 41.71875 63.234375 
Q 38.140625 66.40625 31.78125 66.40625 
Q 25.390625 66.40625 21.84375 63.234375 
Q 18.3125 60.0625 18.3125 54.390625 
z
" id="DejaVuSans-56"/>
       </defs>
       <use xlink:href="#DejaVuSans-56"/>
       <use x="63.623047" xlink:href="#DejaVuSans-48"/>
       <use x="127.246094" xlink:href="#DejaVuSans-48"/>
      </g>
     </g>
    </g>
    <g id="xtick_6">
     <g id="line2d_6">
      <g>
       <use style="stroke:#000000;stroke-width:0.8;" x="624.254891" xlink:href="#mdd63f41fed" y="448.56"/>
      </g>
     </g>
     <g id="text_6">
      <!-- 1000 -->
      <g transform="translate(611.529891 463.158437)scale(0.1 -0.1)">
       <defs>
        <path d="M 12.40625 8.296875 
L 28.515625 8.296875 
L 28.515625 63.921875 
L 10.984375 60.40625 
L 10.984375 69.390625 
L 28.421875 72.90625 
L 38.28125 72.90625 
L 38.28125 8.296875 
L 54.390625 8.296875 
L 54.390625 0 
L 12.40625 0 
z
" id="DejaVuSans-49"/>
       </defs>
       <use xlink:href="#DejaVuSans-49"/>
       <use x="63.623047" xlink:href="#DejaVuSans-48"/>
       <use x="127.246094" xlink:href="#DejaVuSans-48"/>
       <use x="190.869141" xlink:href="#DejaVuSans-48"/>
      </g>
     </g>
    </g>
    <g id="text_7">
     <!-- timestamp -->
     <g transform="translate(354.264375 475.316875)scale(0.08 -0.08)">
      <defs>
       <path d="M 18.3125 70.21875 
L 18.3125 54.6875 
L 36.8125 54.6875 
L 36.8125 47.703125 
L 18.3125 47.703125 
L 18.3125 18.015625 
Q 18.3125 11.328125 20.140625 9.421875 
Q 21.96875 7.515625 27.59375 7.515625 
L 36.8125 7.515625 
L 36.8125 0 
L 27.59375 0 
Q 17.1875 0 13.234375 3.875 
Q 9.28125 7.765625 9.28125 18.015625 
L 9.28125 47.703125 
L 2.6875 47.703125 
L 2.6875 54.6875 
L 9.28125 54.6875 
L 9.28125 70.21875 
z
" id="DejaVuSans-116"/>
       <path d="M 9.421875 54.6875 
L 18.40625 54.6875 
L 18.40625 0 
L 9.421875 0 
z
M 9.421875 75.984375 
L 18.40625 75.984375 
L 18.40625 64.59375 
L 9.421875 64.59375 
z
" id="DejaVuSans-105"/>
       <path d="M 52 44.1875 
Q 55.375 50.25 60.0625 53.125 
Q 64.75 56 71.09375 56 
Q 79.640625 56 84.28125 50.015625 
Q 88.921875 44.046875 88.921875 33.015625 
L 88.921875 0 
L 79.890625 0 
L 79.890625 32.71875 
Q 79.890625 40.578125 77.09375 44.375 
Q 74.3125 48.1875 68.609375 48.1875 
Q 61.625 48.1875 57.5625 43.546875 
Q 53.515625 38.921875 53.515625 30.90625 
L 53.515625 0 
L 44.484375 0 
L 44.484375 32.71875 
Q 44.484375 40.625 41.703125 44.40625 
Q 38.921875 48.1875 33.109375 48.1875 
Q 26.21875 48.1875 22.15625 43.53125 
Q 18.109375 38.875 18.109375 30.90625 
L 18.109375 0 
L 9.078125 0 
L 9.078125 54.6875 
L 18.109375 54.6875 
L 18.109375 46.1875 
Q 21.1875 51.21875 25.484375 53.609375 
Q 29.78125 56 35.6875 56 
Q 41.65625 56 45.828125 52.96875 
Q 50 49.953125 52 44.1875 
z
" id="DejaVuSans-109"/>
       <path d="M 56.203125 29.59375 
L 56.203125 25.203125 
L 14.890625 25.203125 
Q 15.484375 15.921875 20.484375 11.0625 
Q 25.484375 6.203125 34.421875 6.203125 
Q 39.59375 6.203125 44.453125 7.46875 
Q 49.3125 8.734375 54.109375 11.28125 
L 54.109375 2.78125 
Q 49.265625 0.734375 44.1875 -0.34375 
Q 39.109375 -1.421875 33.890625 -1.421875 
Q 20.796875 -1.421875 13.15625 6.1875 
Q 5.515625 13.8125 5.515625 26.8125 
Q 5.515625 40.234375 12.765625 48.109375 
Q 20.015625 56 32.328125 56 
Q 43.359375 56 49.78125 48.890625 
Q 56.203125 41.796875 56.203125 29.59375 
z
M 47.21875 32.234375 
Q 47.125 39.59375 43.09375 43.984375 
Q 39.0625 48.390625 32.421875 48.390625 
Q 24.90625 48.390625 20.390625 44.140625 
Q 15.875 39.890625 15.1875 32.171875 
z
" id="DejaVuSans-101"/>
       <path d="M 44.28125 53.078125 
L 44.28125 44.578125 
Q 40.484375 46.53125 36.375 47.5 
Q 32.28125 48.484375 27.875 48.484375 
Q 21.1875 48.484375 17.84375 46.4375 
Q 14.5 44.390625 14.5 40.28125 
Q 14.5 37.15625 16.890625 35.375 
Q 19.28125 33.59375 26.515625 31.984375 
L 29.59375 31.296875 
Q 39.15625 29.25 43.1875 25.515625 
Q 47.21875 21.78125 47.21875 15.09375 
Q 47.21875 7.46875 41.1875 3.015625 
Q 35.15625 -1.421875 24.609375 -1.421875 
Q 20.21875 -1.421875 15.453125 -0.5625 
Q 10.6875 0.296875 5.421875 2 
L 5.421875 11.28125 
Q 10.40625 8.6875 15.234375 7.390625 
Q 20.0625 6.109375 24.8125 6.109375 
Q 31.15625 6.109375 34.5625 8.28125 
Q 37.984375 10.453125 37.984375 14.40625 
Q 37.984375 18.0625 35.515625 20.015625 
Q 33.0625 21.96875 24.703125 23.78125 
L 21.578125 24.515625 
Q 13.234375 26.265625 9.515625 29.90625 
Q 5.8125 33.546875 5.8125 39.890625 
Q 5.8125 47.609375 11.28125 51.796875 
Q 16.75 56 26.8125 56 
Q 31.78125 56 36.171875 55.265625 
Q 40.578125 54.546875 44.28125 53.078125 
z
" id="DejaVuSans-115"/>
       <path d="M 34.28125 27.484375 
Q 23.390625 27.484375 19.1875 25 
Q 14.984375 22.515625 14.984375 16.5 
Q 14.984375 11.71875 18.140625 8.90625 
Q 21.296875 6.109375 26.703125 6.109375 
Q 34.1875 6.109375 38.703125 11.40625 
Q 43.21875 16.703125 43.21875 25.484375 
L 43.21875 27.484375 
z
M 52.203125 31.203125 
L 52.203125 0 
L 43.21875 0 
L 43.21875 8.296875 
Q 40.140625 3.328125 35.546875 0.953125 
Q 30.953125 -1.421875 24.3125 -1.421875 
Q 15.921875 -1.421875 10.953125 3.296875 
Q 6 8.015625 6 15.921875 
Q 6 25.140625 12.171875 29.828125 
Q 18.359375 34.515625 30.609375 34.515625 
L 43.21875 34.515625 
L 43.21875 35.40625 
Q 43.21875 41.609375 39.140625 45 
Q 35.0625 48.390625 27.6875 48.390625 
Q 23 48.390625 18.546875 47.265625 
Q 14.109375 46.140625 10.015625 43.890625 
L 10.015625 52.203125 
Q 14.9375 54.109375 19.578125 55.046875 
Q 24.21875 56 28.609375 56 
Q 40.484375 56 46.34375 49.84375 
Q 52.203125 43.703125 52.203125 31.203125 
z
" id="DejaVuSans-97"/>
       <path d="M 18.109375 8.203125 
L 18.109375 -20.796875 
L 9.078125 -20.796875 
L 9.078125 54.6875 
L 18.109375 54.6875 
L 18.109375 46.390625 
Q 20.953125 51.265625 25.265625 53.625 
Q 29.59375 56 35.59375 56 
Q 45.5625 56 51.78125 48.09375 
Q 58.015625 40.1875 58.015625 27.296875 
Q 58.015625 14.40625 51.78125 6.484375 
Q 45.5625 -1.421875 35.59375 -1.421875 
Q 29.59375 -1.421875 25.265625 0.953125 
Q 20.953125 3.328125 18.109375 8.203125 
z
M 48.6875 27.296875 
Q 48.6875 37.203125 44.609375 42.84375 
Q 40.53125 48.484375 33.40625 48.484375 
Q 26.265625 48.484375 22.1875 42.84375 
Q 18.109375 37.203125 18.109375 27.296875 
Q 18.109375 17.390625 22.1875 11.75 
Q 26.265625 6.109375 33.40625 6.109375 
Q 40.53125 6.109375 44.609375 11.75 
Q 48.6875 17.390625 48.6875 27.296875 
z
" id="DejaVuSans-112"/>
      </defs>
      <use xlink:href="#DejaVuSans-116"/>
      <use x="39.208984" xlink:href="#DejaVuSans-105"/>
      <use x="66.992188" xlink:href="#DejaVuSans-109"/>
      <use x="164.404297" xlink:href="#DejaVuSans-101"/>
      <use x="225.927734" xlink:href="#DejaVuSans-115"/>
      <use x="278.027344" xlink:href="#DejaVuSans-116"/>
      <use x="317.236328" xlink:href="#DejaVuSans-97"/>
      <use x="378.515625" xlink:href="#DejaVuSans-109"/>
      <use x="475.927734" xlink:href="#DejaVuSans-112"/>
     </g>
    </g>
   </g>
   <g id="matplotlib.axis_2">
    <g id="ytick_1">
     <g id="line2d_7">
      <defs>
       <path d="M 0 0 
L -3.5 0 
" id="m063afbc8c7" style="stroke:#000000;stroke-width:0.8;"/>
      </defs>
      <g>
       <use style="stroke:#000000;stroke-width:0.8;" x="108" xlink:href="#m063afbc8c7" y="407.212303"/>
      </g>
     </g>
     <g id="text_8">
      <!-- 18 -->
      <g transform="translate(88.275 411.011521)scale(0.1 -0.1)">
       <use xlink:href="#DejaVuSans-49"/>
       <use x="63.623047" xlink:href="#DejaVuSans-56"/>
      </g>
     </g>
    </g>
    <g id="ytick_2">
     <g id="line2d_8">
      <g>
       <use style="stroke:#000000;stroke-width:0.8;" x="108" xlink:href="#m063afbc8c7" y="345.533788"/>
      </g>
     </g>
     <g id="text_9">
      <!-- 20 -->
      <g transform="translate(88.275 349.333006)scale(0.1 -0.1)">
       <use xlink:href="#DejaVuSans-50"/>
       <use x="63.623047" xlink:href="#DejaVuSans-48"/>
      </g>
     </g>
    </g>
    <g id="ytick_3">
     <g id="line2d_9">
      <g>
       <use style="stroke:#000000;stroke-width:0.8;" x="108" xlink:href="#m063afbc8c7" y="283.855273"/>
      </g>
     </g>
     <g id="text_10">
      <!-- 22 -->
      <g transform="translate(88.275 287.654492)scale(0.1 -0.1)">
       <use xlink:href="#DejaVuSans-50"/>
       <use x="63.623047" xlink:href="#DejaVuSans-50"/>
      </g>
     </g>
    </g>
    <g id="ytick_4">
     <g id="line2d_10">
      <g>
       <use style="stroke:#000000;stroke-width:0.8;" x="108" xlink:href="#m063afbc8c7" y="222.176758"/>
      </g>
     </g>
     <g id="text_11">
      <!-- 24 -->
      <g transform="translate(88.275 225.975977)scale(0.1 -0.1)">
       <use xlink:href="#DejaVuSans-50"/>
       <use x="63.623047" xlink:href="#DejaVuSans-52"/>
      </g>
     </g>
    </g>
    <g id="ytick_5">
     <g id="line2d_11">
      <g>
       <use style="stroke:#000000;stroke-width:0.8;" x="108" xlink:href="#m063afbc8c7" y="160.498243"/>
      </g>
     </g>
     <g id="text_12">
      <!-- 26 -->
      <g transform="translate(88.275 164.297462)scale(0.1 -0.1)">
       <use xlink:href="#DejaVuSans-50"/>
       <use x="63.623047" xlink:href="#DejaVuSans-54"/>
      </g>
     </g>
    </g>
    <g id="ytick_6">
     <g id="line2d_12">
      <g>
       <use style="stroke:#000000;stroke-width:0.8;" x="108" xlink:href="#m063afbc8c7" y="98.819728"/>
      </g>
     </g>
     <g id="text_13">
      <!-- 28 -->
      <g transform="translate(88.275 102.618947)scale(0.1 -0.1)">
       <use xlink:href="#DejaVuSans-50"/>
       <use x="63.623047" xlink:href="#DejaVuSans-56"/>
      </g>
     </g>
    </g>
    <g id="text_14">
     <!-- MB -->
     <g transform="translate(82.61125 260.715625)rotate(-90)scale(0.08 -0.08)">
      <defs>
       <path d="M 9.8125 72.90625 
L 24.515625 72.90625 
L 43.109375 23.296875 
L 61.8125 72.90625 
L 76.515625 72.90625 
L 76.515625 0 
L 66.890625 0 
L 66.890625 64.015625 
L 48.09375 14.015625 
L 38.1875 14.015625 
L 19.390625 64.015625 
L 19.390625 0 
L 9.8125 0 
z
" id="DejaVuSans-77"/>
       <path d="M 19.671875 34.8125 
L 19.671875 8.109375 
L 35.5 8.109375 
Q 43.453125 8.109375 47.28125 11.40625 
Q 51.125 14.703125 51.125 21.484375 
Q 51.125 28.328125 47.28125 31.5625 
Q 43.453125 34.8125 35.5 34.8125 
z
M 19.671875 64.796875 
L 19.671875 42.828125 
L 34.28125 42.828125 
Q 41.5 42.828125 45.03125 45.53125 
Q 48.578125 48.25 48.578125 53.8125 
Q 48.578125 59.328125 45.03125 62.0625 
Q 41.5 64.796875 34.28125 64.796875 
z
M 9.8125 72.90625 
L 35.015625 72.90625 
Q 46.296875 72.90625 52.390625 68.21875 
Q 58.5 63.53125 58.5 54.890625 
Q 58.5 48.1875 55.375 44.234375 
Q 52.25 40.28125 46.1875 39.3125 
Q 53.46875 37.75 57.5 32.78125 
Q 61.53125 27.828125 61.53125 20.40625 
Q 61.53125 10.640625 54.890625 5.3125 
Q 48.25 0 35.984375 0 
L 9.8125 0 
z
" id="DejaVuSans-66"/>
      </defs>
      <use xlink:href="#DejaVuSans-77"/>
      <use x="86.279297" xlink:href="#DejaVuSans-66"/>
     </g>
    </g>
   </g>
   <g id="line2d_13">
    <path clip-path="url(#p2300c3cc6e)" d="M 132.349091 430.92 
L 132.841489 430.790651 
L 133.333887 430.92 
L 133.826286 430.661302 
L 134.318684 430.790651 
L 134.811082 426.877837 
L 135.30348 430.790651 
L 135.795878 430.92 
L 136.288276 430.661302 
L 136.780675 430.92 
L 137.273073 430.92 
L 137.765471 426.263428 
L 138.257869 399.100092 
L 139.735064 289.670651 
L 140.227462 263.542108 
L 142.197055 114.59648 
L 142.689453 105.833071 
L 143.181851 100.56209 
L 143.674249 102.211292 
L 144.659046 102.308304 
L 145.643842 101.693896 
L 146.13624 101.079487 
L 146.628639 96.293566 
L 147.121037 99.818332 
L 147.613435 99.947681 
L 148.105833 99.300935 
L 148.598231 92.607113 
L 149.09063 101.564546 
L 149.583028 100.07703 
L 150.075426 100.07703 
L 150.567824 103.375435 
L 151.060222 99.300935 
L 151.552621 102.534665 
L 152.045019 103.343098 
L 153.029815 101.920257 
L 153.522213 101.823245 
L 154.014612 101.920257 
L 154.50701 101.564546 
L 154.999408 103.375435 
L 155.491806 103.989844 
L 155.984204 103.407773 
L 156.476603 103.92517 
L 156.969001 105.153987 
L 157.461399 105.153987 
L 157.953797 103.634134 
L 158.446195 90.860898 
L 158.938594 99.559633 
L 159.430992 95.776169 
L 159.92339 98.007443 
L 160.415788 94.256315 
L 160.908186 97.942768 
L 161.400585 95.291109 
L 161.892983 100.335729 
L 162.385381 99.947681 
L 162.877779 100.335729 
L 163.370177 99.947681 
L 163.862576 100.626764 
L 164.354974 100.626764 
L 164.847372 100.885463 
L 165.33977 99.753657 
L 165.832168 99.753657 
L 166.816965 100.368066 
L 167.309363 99.462621 
L 168.294159 99.72132 
L 168.786558 100.271054 
L 169.278956 99.106911 
L 169.771354 99.23626 
L 170.263752 99.23626 
L 170.75615 98.686526 
L 171.740947 96.778625 
L 172.233345 97.166673 
L 172.725743 97.813419 
L 173.218141 94.126966 
L 173.71054 97.328359 
L 174.202938 92.768799 
L 174.695336 96.552264 
L 175.187734 96.649276 
L 175.680132 97.037324 
L 176.172531 94.126966 
L 176.664929 97.781082 
L 177.157327 97.522383 
L 177.649725 97.942768 
L 178.142123 97.942768 
L 178.634522 97.328359 
L 179.12692 88.855985 
L 179.619318 97.037324 
L 180.111716 92.99516 
L 180.604114 97.037324 
L 181.096513 97.813419 
L 181.588911 100.07703 
L 182.081309 100.335729 
L 183.066105 100.07703 
L 183.558504 100.303391 
L 184.050902 99.559633 
L 184.5433 99.430284 
L 185.035698 98.654189 
L 186.020495 98.654189 
L 186.512893 98.783538 
L 187.497689 98.427828 
L 187.990087 97.68407 
L 188.482486 92.865811 
L 188.974884 98.201467 
L 189.95968 99.559633 
L 190.452078 99.203923 
L 190.944477 99.074574 
L 191.436875 98.686526 
L 191.929273 98.654189 
L 192.421671 98.460165 
L 192.914069 98.718863 
L 193.406468 98.330816 
L 194.391264 98.589514 
L 194.883662 98.848213 
L 195.37606 98.589514 
L 195.868458 98.201467 
L 196.360857 97.263685 
L 196.853255 93.092172 
L 197.345653 97.037324 
L 197.838051 97.393034 
L 198.330449 97.55472 
L 198.822848 96.131879 
L 199.315246 95.485133 
L 199.807644 95.388121 
L 200.300042 95.51747 
L 200.79244 95.905518 
L 201.777237 95.258772 
L 202.269635 95.646819 
L 202.762033 96.552264 
L 203.254431 98.427828 
L 203.74683 99.042236 
L 204.239228 98.557177 
L 204.731626 99.203923 
L 205.224024 98.945225 
L 205.716422 99.074574 
L 206.208821 98.427828 
L 206.701219 98.169129 
L 207.193617 93.609569 
L 207.686015 97.522383 
L 208.178413 97.522383 
L 208.670812 93.12451 
L 209.16321 97.425371 
L 209.655608 97.522383 
L 210.148006 97.393034 
L 210.640404 98.298478 
L 211.132803 99.656645 
L 211.625201 95.388121 
L 212.117599 98.298478 
L 212.609997 96.778625 
L 213.102395 96.649276 
L 213.594794 96.649276 
L 214.087192 97.296022 
L 214.57959 98.686526 
L 215.071988 98.072117 
L 215.564386 98.072117 
L 216.056785 97.296022 
L 216.549183 93.641907 
L 217.041581 98.169129 
L 217.533979 97.910431 
L 218.026377 98.266141 
L 218.518776 99.268598 
L 219.011174 99.139248 
L 219.503572 94.385665 
L 219.99597 96.422915 
L 220.488368 90.893236 
L 220.980767 95.291109 
L 221.965563 95.549808 
L 222.457961 95.905518 
L 223.935156 93.803593 
L 224.427554 94.418002 
L 224.919952 96.00253 
L 225.41235 96.746288 
L 225.904749 92.316077 
L 226.397147 95.776169 
L 226.889545 90.763886 
L 227.381943 94.806049 
L 228.36674 95.388121 
L 228.859138 91.151934 
L 229.351536 95.032411 
L 229.843934 94.062291 
L 230.336332 93.932942 
L 230.828731 94.288653 
L 231.321129 94.288653 
L 231.813527 95.776169 
L 232.305925 96.099542 
L 232.798323 94.223978 
L 233.290722 93.609569 
L 233.78312 93.609569 
L 234.767916 94.644363 
L 235.260314 94.644363 
L 235.752713 94.515014 
L 236.245111 94.644363 
L 236.737509 94.256315 
L 237.229907 95.420458 
L 237.722305 95.291109 
L 238.214704 94.515014 
L 239.1995 93.900605 
L 239.691898 94.029954 
L 240.184296 93.771256 
L 240.676695 93.771256 
L 241.661491 94.903061 
L 242.153889 94.159303 
L 242.646287 92.898148 
L 243.138686 93.027498 
L 243.631084 93.383208 
L 244.123482 94.773712 
L 244.61588 90.343501 
L 245.108278 94.062291 
L 245.600677 93.027498 
L 246.093075 92.865811 
L 246.585473 85.20187 
L 247.077871 93.544895 
L 247.570269 93.674244 
L 248.062668 88.758973 
L 248.555066 92.316077 
L 249.539862 92.28374 
L 250.03226 91.766343 
L 250.524659 91.766343 
L 251.017057 92.542438 
L 251.509455 92.413089 
L 252.001853 92.413089 
L 252.494251 91.895692 
L 252.98665 93.544895 
L 253.479048 92.542438 
L 253.971446 92.413089 
L 254.463844 91.895692 
L 254.956242 92.025041 
L 255.448641 92.025041 
L 255.941039 92.542438 
L 256.433437 92.413089 
L 256.925835 89.341045 
L 257.418233 93.189184 
L 257.910631 92.542438 
L 258.40303 92.63945 
L 258.895428 92.025041 
L 259.387826 92.801137 
L 259.880224 91.766343 
L 260.372622 92.801137 
L 260.865021 94.223978 
L 261.357419 94.353327 
L 261.849817 93.415545 
L 262.342215 92.801137 
L 262.834613 93.189184 
L 263.327012 93.83593 
L 263.81941 90.052466 
L 264.311808 94.482676 
L 264.804206 94.482676 
L 265.296604 93.96528 
L 265.789003 94.612026 
L 266.281401 94.741375 
L 266.773799 90.569863 
L 267.266197 94.741375 
L 267.758595 94.838387 
L 269.23579 93.221522 
L 269.728188 93.092172 
L 270.220586 94.385665 
L 270.712985 94.126966 
L 271.205383 92.316077 
L 271.697781 91.281283 
L 272.190179 90.893236 
L 272.682577 86.592374 
L 273.174976 92.28374 
L 273.667374 92.025041 
L 274.159772 92.15439 
L 274.65217 88.726636 
L 275.144568 93.12451 
L 275.636967 93.738918 
L 276.129365 89.082346 
L 276.621763 93.512557 
L 277.114161 93.12451 
L 277.606559 90.731549 
L 278.098958 94.256315 
L 278.591356 93.738918 
L 279.083754 93.868268 
L 280.06855 93.12451 
L 280.560949 93.512557 
L 281.053347 93.253859 
L 281.545745 93.253859 
L 282.038143 94.741375 
L 282.530541 94.288653 
L 283.02294 93.059835 
L 283.515338 92.671787 
L 284.007736 92.898148 
L 284.500134 92.542438 
L 284.992532 93.415545 
L 285.484931 93.286196 
L 285.977329 93.286196 
L 286.469727 93.156847 
L 286.962125 92.63945 
L 287.454523 91.863355 
L 287.946922 91.604656 
L 288.43932 91.087259 
L 288.931718 89.341045 
L 289.424116 90.084803 
L 289.916514 90.311164 
L 290.901311 90.311164 
L 291.393709 82.226838 
L 291.886107 90.440513 
L 292.378505 86.527699 
L 292.870904 90.828561 
L 293.363302 91.345958 
L 293.8557 91.216609 
L 294.348098 92.251402 
L 294.840496 92.122053 
L 295.332895 92.251402 
L 295.825293 88.209239 
L 296.317691 91.863355 
L 297.302487 90.699212 
L 297.794886 90.472851 
L 298.287284 89.826104 
L 298.779682 88.047553 
L 299.27208 87.012759 
L 299.764478 86.75406 
L 300.256877 86.75406 
L 300.749275 80.771659 
L 301.241673 83.908378 
L 301.734071 83.908378 
L 302.226469 84.167076 
L 302.718868 85.55758 
L 303.211266 85.331219 
L 303.703664 85.719267 
L 304.196062 85.848616 
L 304.68846 84.070064 
L 305.180859 89.082346 
L 305.673257 86.430687 
L 306.165655 91.345958 
L 306.658053 91.475307 
L 307.150451 91.087259 
L 307.64285 86.527699 
L 308.135248 89.244033 
L 308.627646 89.76143 
L 309.120044 89.502731 
L 309.612442 88.726636 
L 310.104841 88.370926 
L 310.597239 88.338588 
L 311.089637 84.328763 
L 311.582035 89.632081 
L 312.074433 89.017672 
L 312.566832 90.343501 
L 313.05923 92.025041 
L 313.551628 89.373382 
L 314.044026 89.76143 
L 314.536424 89.632081 
L 315.028823 89.632081 
L 315.521221 86.592374 
L 316.013619 90.505188 
L 316.506017 89.858442 
L 316.998415 88.952997 
L 317.490813 89.470394 
L 317.983212 89.729093 
L 318.47561 89.729093 
L 319.460406 91.604656 
L 319.952804 93.286196 
L 320.445203 93.641907 
L 320.937601 91.895692 
L 321.429999 91.636994 
L 321.922397 90.731549 
L 322.414795 90.472851 
L 322.907194 86.04264 
L 323.399592 89.696755 
L 323.89199 88.015215 
L 324.384388 87.497819 
L 324.876786 87.659505 
L 325.369185 87.433144 
L 325.861583 87.950541 
L 326.353981 85.040183 
L 326.846379 89.341045 
L 327.338777 89.114684 
L 327.831176 89.373382 
L 328.323574 88.726636 
L 328.815972 80.771659 
L 329.30837 88.467938 
L 329.800768 84.555124 
L 330.293167 88.726636 
L 330.785565 89.244033 
L 331.277963 88.726636 
L 331.770361 88.467938 
L 332.262759 88.597287 
L 332.755158 83.132282 
L 333.247556 86.560037 
L 333.739954 88.047553 
L 334.232352 83.132282 
L 334.72475 86.301338 
L 335.217149 86.010302 
L 335.709547 86.139652 
L 336.201945 86.657049 
L 336.694343 82.226838 
L 337.186741 84.264088 
L 337.67914 83.87604 
L 338.171538 84.490449 
L 338.663936 84.3611 
L 339.648732 89.793767 
L 340.141131 89.308708 
L 340.633529 88.661962 
L 341.125927 83.52033 
L 341.618325 87.23912 
L 342.110723 87.109771 
L 342.603122 88.112227 
L 343.09552 87.59483 
L 343.587918 87.465481 
L 344.080316 87.950541 
L 344.572714 84.425775 
L 345.065113 85.331219 
L 345.557511 89.76143 
L 346.049909 89.632081 
L 347.034705 90.278827 
L 348.019502 88.985335 
L 348.5119 85.072521 
L 349.004298 88.726636 
L 349.496696 88.597287 
L 349.989095 89.373382 
L 350.481493 89.890779 
L 350.973891 90.020128 
L 351.466289 92.15439 
L 351.958687 93.544895 
L 352.451086 93.027498 
L 352.943484 93.156847 
L 353.435882 93.12451 
L 353.92828 83.811366 
L 354.420678 91.636994 
L 354.913077 91.248946 
L 355.405475 86.721723 
L 355.897873 91.022585 
L 356.390271 91.022585 
L 356.882669 90.375839 
L 357.375068 86.204326 
L 357.867466 90.893236 
L 358.359864 90.893236 
L 358.852262 82.808909 
L 359.34466 90.990247 
L 359.837059 87.433144 
L 360.329457 91.475307 
L 360.821855 91.604656 
L 361.314253 90.505188 
L 361.806651 90.084803 
L 362.29905 89.826104 
L 362.791448 85.783941 
L 363.283846 89.826104 
L 363.776244 89.826104 
L 364.268642 85.654592 
L 364.761041 89.696755 
L 365.253439 91.475307 
L 365.745837 90.6022 
L 366.238235 87.853529 
L 366.730633 89.211696 
L 367.223032 93.12451 
L 367.71543 91.734005 
L 368.207828 90.731549 
L 368.700226 90.084803 
L 369.685023 90.084803 
L 370.177421 91.604656 
L 371.162217 91.087259 
L 371.654615 87.562493 
L 372.147014 88.306251 
L 372.639412 92.089716 
L 373.13181 88.952997 
L 373.624208 88.4356 
L 374.116606 92.833474 
L 374.609005 93.609569 
L 375.101403 93.48022 
L 375.593801 93.83593 
L 376.086199 93.577232 
L 377.070995 92.186728 
L 378.055792 91.701668 
L 378.54819 91.831017 
L 379.040588 90.472851 
L 379.532986 87.853529 
L 380.025385 92.025041 
L 380.517783 90.343501 
L 381.010181 93.868268 
L 381.994977 92.63945 
L 382.487376 92.122053 
L 382.979774 91.863355 
L 383.472172 91.863355 
L 383.96457 92.122053 
L 384.456968 91.734005 
L 384.949367 91.863355 
L 385.441765 91.345958 
L 385.934163 91.475307 
L 386.426561 87.336132 
L 386.918959 91.345958 
L 387.411358 87.433144 
L 387.903756 89.082346 
L 388.396154 93.221522 
L 388.888552 93.221522 
L 389.38095 89.27637 
L 389.873349 92.930486 
L 390.365747 91.928029 
L 390.858145 90.472851 
L 391.350543 89.696755 
L 391.842941 89.826104 
L 392.33534 90.214152 
L 392.827738 87.077434 
L 393.320136 90.990247 
L 393.812534 90.375839 
L 394.304932 90.634537 
L 394.797331 89.211696 
L 395.289729 90.020128 
L 395.782127 86.495362 
L 396.274525 90.763886 
L 396.766923 90.763886 
L 397.259322 90.634537 
L 397.75172 90.860898 
L 398.244118 90.6022 
L 398.736516 89.955454 
L 399.228914 88.726636 
L 399.721313 88.823648 
L 400.213711 89.082346 
L 400.706109 88.823648 
L 401.198507 89.826104 
L 401.690905 86.430687 
L 402.183304 91.151934 
L 402.675702 90.763886 
L 403.1681 89.632081 
L 403.660498 86.333676 
L 404.152896 91.022585 
L 404.645295 91.119597 
L 405.137693 90.990247 
L 406.122489 90.990247 
L 406.614887 90.505188 
L 407.107286 90.375839 
L 407.599684 85.945628 
L 408.092082 90.246489 
L 408.58448 90.763886 
L 409.076878 89.858442 
L 409.569277 94.6767 
L 410.061675 93.544895 
L 410.554073 93.286196 
L 411.046471 92.542438 
L 411.538869 92.510101 
L 412.523666 91.960367 
L 413.016064 87.788854 
L 413.508462 91.831017 
L 414.00086 91.992704 
L 414.493259 87.691842 
L 414.985657 92.380752 
L 415.478055 91.766343 
L 415.970453 91.992704 
L 416.462851 92.380752 
L 416.95525 92.510101 
L 417.447648 92.251402 
L 417.940046 92.768799 
L 418.924842 92.768799 
L 419.909639 91.734005 
L 420.402037 92.122053 
L 420.894435 92.122053 
L 421.386833 93.12451 
L 421.879232 88.56495 
L 422.37163 92.865811 
L 422.864028 89.211696 
L 423.356426 89.082346 
L 423.848824 93.48022 
L 424.341223 89.082346 
L 424.833621 88.694299 
L 425.326019 92.99516 
L 425.818417 92.089716 
L 426.310815 92.089716 
L 426.803214 88.4356 
L 427.295612 91.734005 
L 427.78801 91.863355 
L 428.772806 91.507644 
L 429.265205 92.122053 
L 430.250001 92.768799 
L 430.742399 93.447883 
L 431.234797 93.189184 
L 431.727196 94.773712 
L 432.219594 95.129423 
L 432.711992 90.699212 
L 433.20439 89.987791 
L 433.696788 93.868268 
L 434.189187 93.512557 
L 434.681585 89.341045 
L 435.173983 93.641907 
L 435.666381 93.512557 
L 436.158779 92.348414 
L 436.651177 87.433144 
L 437.143576 91.734005 
L 437.635974 93.383208 
L 438.128372 93.512557 
L 438.62077 92.865811 
L 439.605567 93.12451 
L 440.097965 92.510101 
L 440.590363 92.607113 
L 441.082761 93.156847 
L 441.575159 88.855985 
L 442.067558 92.63945 
L 442.559956 91.248946 
L 443.052354 92.089716 
L 444.03715 92.865811 
L 444.529549 93.48022 
L 445.021947 93.12451 
L 445.514345 91.604656 
L 446.006743 87.174445 
L 446.499141 90.084803 
L 447.483938 89.923116 
L 448.961132 89.923116 
L 449.945929 89.923116 
L 450.438327 90.569863 
L 450.930725 82.744235 
L 451.423123 91.087259 
L 451.915522 91.345958 
L 452.40792 93.253859 
L 452.900318 93.771256 
L 453.392716 93.900605 
L 453.885114 85.816279 
L 454.869911 93.900605 
L 455.362309 89.211696 
L 455.854707 92.768799 
L 456.347105 92.99516 
L 456.839504 88.306251 
L 457.331902 92.736462 
L 457.8243 90.731549 
L 458.316698 87.982878 
L 458.809096 86.560037 
L 459.301495 86.430687 
L 459.793893 85.913291 
L 460.286291 85.686929 
L 460.778689 85.913291 
L 461.763486 89.987791 
L 462.255884 92.99516 
L 462.748282 92.607113 
L 463.24068 92.736462 
L 464.225477 92.736462 
L 464.717875 92.477764 
L 465.210273 94.126966 
L 465.702671 84.393437 
L 466.195069 92.445426 
L 466.687468 88.306251 
L 467.179866 88.532612 
L 467.672264 91.831017 
L 468.164662 91.960367 
L 468.65706 91.960367 
L 469.149459 92.219065 
L 469.641857 91.475307 
L 470.134255 91.507644 
L 470.626653 92.99516 
L 471.119051 92.477764 
L 471.61145 91.701668 
L 472.596246 92.348414 
L 473.088644 92.574775 
L 473.581042 92.445426 
L 474.073441 92.089716 
L 474.565839 90.343501 
L 475.058237 86.171989 
L 475.550635 90.084803 
L 476.043033 88.047553 
L 476.535432 92.865811 
L 477.02783 93.253859 
L 477.520228 92.089716 
L 478.012626 91.572319 
L 478.505024 91.604656 
L 478.997423 87.562493 
L 479.489821 92.865811 
L 479.982219 92.865811 
L 480.474617 88.403263 
L 480.967015 92.089716 
L 481.459414 91.960367 
L 481.951812 92.348414 
L 482.44421 91.831017 
L 482.936608 90.828561 
L 483.429006 91.087259 
L 483.921405 92.219065 
L 484.413803 93.027498 
L 484.906201 92.122053 
L 485.398599 91.863355 
L 485.890997 92.99516 
L 486.383396 88.56495 
L 486.875794 92.865811 
L 487.368192 93.512557 
L 487.86059 93.253859 
L 488.352988 91.831017 
L 488.845387 92.089716 
L 489.337785 92.477764 
L 489.830183 88.823648 
L 490.322581 87.691842 
L 490.814979 91.863355 
L 491.799776 91.345958 
L 492.292174 91.475307 
L 492.784572 87.562493 
L 493.27697 91.863355 
L 493.769369 92.219065 
L 494.261767 92.348414 
L 494.754165 92.348414 
L 495.246563 93.350871 
L 495.738961 93.221522 
L 496.723758 90.214152 
L 497.216156 89.567406 
L 497.708554 89.438057 
L 498.69335 91.475307 
L 499.185749 91.345958 
L 499.678147 90.472851 
L 500.170545 90.6022 
L 500.662943 90.246489 
L 501.155341 82.000477 
L 501.64774 91.216609 
L 502.140138 91.475307 
L 502.632536 91.345958 
L 503.124934 90.699212 
L 503.617332 90.95791 
L 504.109731 90.343501 
L 504.602129 90.472851 
L 505.094527 90.731549 
L 505.586925 92.122053 
L 506.079323 92.63945 
L 506.571722 92.510101 
L 507.06412 83.908378 
L 507.556518 91.345958 
L 508.048916 91.475307 
L 508.541314 91.863355 
L 509.033713 92.736462 
L 509.526111 91.960367 
L 510.018509 91.475307 
L 510.510907 91.216609 
L 511.003305 91.734005 
L 511.495704 91.734005 
L 511.988102 91.475307 
L 512.4805 91.734005 
L 512.972898 91.475307 
L 513.465296 93.12451 
L 513.957695 92.510101 
L 514.450093 92.380752 
L 514.942491 92.510101 
L 515.434889 92.768799 
L 515.927287 92.251402 
L 516.419686 92.510101 
L 516.912084 93.12451 
L 517.404482 88.823648 
L 517.89688 92.63945 
L 518.389278 91.216609 
L 518.881677 91.604656 
L 519.374075 91.636994 
L 519.866473 93.286196 
L 520.358871 93.027498 
L 520.851269 91.734005 
L 521.343668 90.990247 
L 521.836066 91.119597 
L 522.328464 87.982878 
L 522.820862 92.542438 
L 523.31326 92.768799 
L 523.805659 91.992704 
L 524.298057 91.636994 
L 524.790455 87.336132 
L 525.282853 91.863355 
L 525.775251 91.604656 
L 526.26765 91.216609 
L 527.252446 91.119597 
L 527.744844 86.851072 
L 528.237242 86.430687 
L 528.729641 85.816279 
L 529.222039 87.23912 
L 529.714437 87.336132 
L 530.206835 91.507644 
L 530.699233 87.950541 
L 531.191632 91.734005 
L 531.68403 87.72418 
L 532.176428 91.636994 
L 532.668826 91.119597 
L 533.161224 87.045096 
L 533.653623 87.174445 
L 534.146021 92.930486 
L 534.638419 92.63945 
L 535.130817 88.694299 
L 535.623215 91.054922 
L 536.115614 90.569863 
L 536.608012 89.793767 
L 537.592808 90.052466 
L 538.085206 91.054922 
L 538.577605 90.440513 
L 539.070003 86.39835 
L 539.562401 89.955454 
L 540.054799 90.052466 
L 540.547197 90.311164 
L 541.039596 90.052466 
L 541.531994 91.507644 
L 542.024392 87.336132 
L 542.51679 91.604656 
L 543.009188 86.915747 
L 543.501587 91.216609 
L 543.993985 87.562493 
L 544.486383 91.345958 
L 544.978781 90.828561 
L 545.471179 89.955454 
L 545.963578 90.084803 
L 546.455976 89.826104 
L 546.948374 91.216609 
L 547.440772 90.860898 
L 547.93317 90.95791 
L 548.425569 90.828561 
L 548.917967 91.734005 
L 549.410365 91.863355 
L 549.902763 93.12451 
L 550.395161 93.221522 
L 551.379958 93.221522 
L 551.872356 92.930486 
L 552.364754 91.734005 
L 552.857152 86.333676 
L 553.349551 89.858442 
L 553.841949 89.987791 
L 554.334347 89.599743 
L 554.826745 85.913291 
L 555.319143 89.567406 
L 555.811542 90.505188 
L 556.30394 88.855985 
L 556.796338 89.082346 
L 557.288736 89.696755 
L 557.781134 90.95791 
L 558.273532 91.831017 
L 558.765931 91.087259 
L 559.258329 89.826104 
L 559.750727 89.599743 
L 560.243125 86.333676 
L 560.735523 90.408176 
L 561.227922 90.246489 
L 561.72032 90.375839 
L 562.212718 90.246489 
L 562.705116 89.470394 
L 563.197514 89.341045 
L 563.689913 86.04264 
L 564.182311 90.699212 
L 564.674709 85.880953 
L 565.167107 90.278827 
L 565.659505 91.475307 
L 566.151904 91.572319 
L 567.1367 90.699212 
L 567.629098 91.863355 
L 568.121496 92.122053 
L 568.613895 90.990247 
L 569.106293 91.766343 
L 570.091089 92.801137 
L 570.583487 93.027498 
L 571.075886 89.599743 
L 571.568284 92.865811 
L 572.060682 91.863355 
L 573.045478 91.44297 
L 573.537877 92.089716 
L 574.030275 91.863355 
L 575.015071 90.796224 
L 575.999868 90.763886 
L 576.492266 90.893236 
L 576.984664 92.122053 
L 577.477062 92.122053 
L 577.96946 91.604656 
L 578.954257 91.734005 
L 579.446655 88.176902 
L 579.939053 92.251402 
L 580.431451 91.669331 
L 580.92385 91.766343 
L 581.416248 91.507644 
L 581.908646 90.925573 
L 582.893442 91.054922 
L 583.385841 91.313621 
L 583.878239 87.271457 
L 584.370637 92.057379 
L 584.863035 91.928029 
L 585.355433 93.027498 
L 585.847832 91.895692 
L 586.34023 91.895692 
L 586.832628 92.380752 
L 587.325026 93.415545 
L 587.817424 92.768799 
L 588.309823 92.380752 
L 588.802221 86.851072 
L 589.294619 90.505188 
L 589.787017 90.6022 
L 590.279415 90.95791 
L 590.771814 90.828561 
L 591.264212 87.142108 
L 591.75661 91.087259 
L 592.249008 90.6022 
L 592.741406 88.338588 
L 593.233805 91.507644 
L 593.726203 91.345958 
L 594.218601 91.604656 
L 594.710999 92.219065 
L 595.203397 88.047553 
L 595.695796 91.44297 
L 596.188194 90.731549 
L 597.17299 89.858442 
L 598.157787 91.604656 
L 598.650185 88.07989 
L 599.142583 91.410632 
L 599.634981 89.632081 
L 600.127379 89.373382 
L 600.619778 89.76143 
L 601.112176 89.858442 
L 601.604574 90.375839 
L 602.096972 90.472851 
L 602.58937 89.632081 
L 603.081769 89.373382 
L 603.574167 85.55758 
L 604.066565 89.729093 
L 604.558963 90.828561 
L 605.051361 86.430687 
L 605.54376 89.632081 
L 606.036158 88.629624 
L 606.528556 88.241577 
L 607.020954 84.522786 
L 607.513352 84.522786 
L 608.005751 88.370926 
L 608.498149 85.55758 
L 608.990547 81.386068 
L 609.482945 85.55758 
L 609.975343 86.074977 
L 610.467742 78.12 
L 610.96014 86.333676 
L 611.452538 86.721723 
L 611.944936 86.721723 
L 612.437334 88.370926 
L 612.929733 89.373382 
L 613.422131 89.373382 
L 613.914529 90.149478 
L 614.406927 90.020128 
L 614.899325 86.107314 
L 615.391724 85.977965 
L 615.884122 90.149478 
L 616.37652 90.020128 
L 616.868918 90.020128 
L 617.361316 90.149478 
L 618.346113 90.149478 
L 618.838511 90.020128 
L 619.330909 90.020128 
L 619.330909 90.020128 
" style="fill:none;stroke:#1f77b4;stroke-linecap:square;stroke-width:1.5;"/>
   </g>
   <g id="patch_3">
    <path d="M 108 448.56 
L 108 60.48 
" style="fill:none;stroke:#000000;stroke-linecap:square;stroke-linejoin:miter;stroke-width:0.8;"/>
   </g>
   <g id="patch_4">
    <path d="M 643.68 448.56 
L 643.68 60.48 
" style="fill:none;stroke:#000000;stroke-linecap:square;stroke-linejoin:miter;stroke-width:0.8;"/>
   </g>
   <g id="patch_5">
    <path d="M 108 448.56 
L 643.68 448.56 
" style="fill:none;stroke:#000000;stroke-linecap:square;stroke-linejoin:miter;stroke-width:0.8;"/>
   </g>
   <g id="patch_6">
    <path d="M 108 60.48 
L 643.68 60.48 
" style="fill:none;stroke:#000000;stroke-linecap:square;stroke-linejoin:miter;stroke-width:0.8;"/>
   </g>
   <g id="text_15">
    <!-- docker - stats -->
    <g transform="translate(324.832969 54.48)scale(0.15 -0.15)">
     <defs>
      <path d="M 45.40625 46.390625 
L 45.40625 75.984375 
L 54.390625 75.984375 
L 54.390625 0 
L 45.40625 0 
L 45.40625 8.203125 
Q 42.578125 3.328125 38.25 0.953125 
Q 33.9375 -1.421875 27.875 -1.421875 
Q 17.96875 -1.421875 11.734375 6.484375 
Q 5.515625 14.40625 5.515625 27.296875 
Q 5.515625 40.1875 11.734375 48.09375 
Q 17.96875 56 27.875 56 
Q 33.9375 56 38.25 53.625 
Q 42.578125 51.265625 45.40625 46.390625 
z
M 14.796875 27.296875 
Q 14.796875 17.390625 18.875 11.75 
Q 22.953125 6.109375 30.078125 6.109375 
Q 37.203125 6.109375 41.296875 11.75 
Q 45.40625 17.390625 45.40625 27.296875 
Q 45.40625 37.203125 41.296875 42.84375 
Q 37.203125 48.484375 30.078125 48.484375 
Q 22.953125 48.484375 18.875 42.84375 
Q 14.796875 37.203125 14.796875 27.296875 
z
" id="DejaVuSans-100"/>
      <path d="M 30.609375 48.390625 
Q 23.390625 48.390625 19.1875 42.75 
Q 14.984375 37.109375 14.984375 27.296875 
Q 14.984375 17.484375 19.15625 11.84375 
Q 23.34375 6.203125 30.609375 6.203125 
Q 37.796875 6.203125 41.984375 11.859375 
Q 46.1875 17.53125 46.1875 27.296875 
Q 46.1875 37.015625 41.984375 42.703125 
Q 37.796875 48.390625 30.609375 48.390625 
z
M 30.609375 56 
Q 42.328125 56 49.015625 48.375 
Q 55.71875 40.765625 55.71875 27.296875 
Q 55.71875 13.875 49.015625 6.21875 
Q 42.328125 -1.421875 30.609375 -1.421875 
Q 18.84375 -1.421875 12.171875 6.21875 
Q 5.515625 13.875 5.515625 27.296875 
Q 5.515625 40.765625 12.171875 48.375 
Q 18.84375 56 30.609375 56 
z
" id="DejaVuSans-111"/>
      <path d="M 48.78125 52.59375 
L 48.78125 44.1875 
Q 44.96875 46.296875 41.140625 47.34375 
Q 37.3125 48.390625 33.40625 48.390625 
Q 24.65625 48.390625 19.8125 42.84375 
Q 14.984375 37.3125 14.984375 27.296875 
Q 14.984375 17.28125 19.8125 11.734375 
Q 24.65625 6.203125 33.40625 6.203125 
Q 37.3125 6.203125 41.140625 7.25 
Q 44.96875 8.296875 48.78125 10.40625 
L 48.78125 2.09375 
Q 45.015625 0.34375 40.984375 -0.53125 
Q 36.96875 -1.421875 32.421875 -1.421875 
Q 20.0625 -1.421875 12.78125 6.34375 
Q 5.515625 14.109375 5.515625 27.296875 
Q 5.515625 40.671875 12.859375 48.328125 
Q 20.21875 56 33.015625 56 
Q 37.15625 56 41.109375 55.140625 
Q 45.0625 54.296875 48.78125 52.59375 
z
" id="DejaVuSans-99"/>
      <path d="M 9.078125 75.984375 
L 18.109375 75.984375 
L 18.109375 31.109375 
L 44.921875 54.6875 
L 56.390625 54.6875 
L 27.390625 29.109375 
L 57.625 0 
L 45.90625 0 
L 18.109375 26.703125 
L 18.109375 0 
L 9.078125 0 
z
" id="DejaVuSans-107"/>
      <path d="M 41.109375 46.296875 
Q 39.59375 47.171875 37.8125 47.578125 
Q 36.03125 48 33.890625 48 
Q 26.265625 48 22.1875 43.046875 
Q 18.109375 38.09375 18.109375 28.8125 
L 18.109375 0 
L 9.078125 0 
L 9.078125 54.6875 
L 18.109375 54.6875 
L 18.109375 46.1875 
Q 20.953125 51.171875 25.484375 53.578125 
Q 30.03125 56 36.53125 56 
Q 37.453125 56 38.578125 55.875 
Q 39.703125 55.765625 41.0625 55.515625 
z
" id="DejaVuSans-114"/>
      <path id="DejaVuSans-32"/>
      <path d="M 4.890625 31.390625 
L 31.203125 31.390625 
L 31.203125 23.390625 
L 4.890625 23.390625 
z
" id="DejaVuSans-45"/>
     </defs>
     <use xlink:href="#DejaVuSans-100"/>
     <use x="63.476562" xlink:href="#DejaVuSans-111"/>
     <use x="124.658203" xlink:href="#DejaVuSans-99"/>
     <use x="179.638672" xlink:href="#DejaVuSans-107"/>
     <use x="233.923828" xlink:href="#DejaVuSans-101"/>
     <use x="295.447266" xlink:href="#DejaVuSans-114"/>
     <use x="336.560547" xlink:href="#DejaVuSans-32"/>
     <use x="368.347656" xlink:href="#DejaVuSans-45"/>
     <use x="404.431641" xlink:href="#DejaVuSans-32"/>
     <use x="436.21875" xlink:href="#DejaVuSans-115"/>
     <use x="488.318359" xlink:href="#DejaVuSans-116"/>
     <use x="527.527344" xlink:href="#DejaVuSans-97"/>
     <use x="588.806641" xlink:href="#DejaVuSans-116"/>
     <use x="628.015625" xlink:href="#DejaVuSans-115"/>
    </g>
   </g>
   <g id="legend_1">
    <g id="patch_7">
     <path d="M 650.68 258.52 
L 654.68 258.52 
Q 656.68 258.52 656.68 256.52 
L 656.68 252.52 
Q 656.68 250.52 654.68 250.52 
L 650.68 250.52 
Q 648.68 250.52 648.68 252.52 
L 648.68 256.52 
Q 648.68 258.52 650.68 258.52 
z
" style="fill:#ffffff;opacity:0.8;stroke:#cccccc;stroke-linejoin:miter;"/>
    </g>
   </g>
  </g>
 </g>
 <defs>
  <clipPath id="p2300c3cc6e">
   <rect height="388.08" width="535.68" x="108" y="60.48"/>
  </clipPath>
 </defs>
</svg>
