<?xml version="1.0" encoding="utf-8" standalone="no"?>
<!DOCTYPE svg PUBLIC "-//W3C//DTD SVG 1.1//EN"
  "http://www.w3.org/Graphics/SVG/1.1/DTD/svg11.dtd">
<!-- Created with matplotlib (https://matplotlib.org/) -->
<svg height="504pt" version="1.1" viewBox="0 0 864 504" width="864pt" xmlns="http://www.w3.org/2000/svg" xmlns:xlink="http://www.w3.org/1999/xlink">
 <metadata>
  <rdf:RDF xmlns:cc="http://creativecommons.org/ns#" xmlns:dc="http://purl.org/dc/elements/1.1/" xmlns:rdf="http://www.w3.org/1999/02/22-rdf-syntax-ns#">
   <cc:Work>
    <dc:type rdf:resource="http://purl.org/dc/dcmitype/StillImage"/>
    <dc:date>2022-05-29T17:29:09.377639</dc:date>
    <dc:format>image/svg+xml</dc:format>
    <dc:creator>
     <cc:Agent>
      <dc:title>Matplotlib v3.3.4, https://matplotlib.org/</dc:title>
     </cc:Agent>
    </dc:creator>
   </cc:Work>
  </rdf:RDF>
 </metadata>
 <defs>
  <style type="text/css">*{stroke-linecap:butt;stroke-linejoin:round;}</style>
 </defs>
 <g id="figure_1">
  <g id="patch_1">
   <path d="M 0 504 
L 864 504 
L 864 0 
L 0 0 
z
" style="fill:#ffffff;"/>
  </g>
  <g id="axes_1">
   <g id="patch_2">
    <path d="M 108 448.56 
L 643.68 448.56 
L 643.68 60.48 
L 108 60.48 
z
" style="fill:#ffffff;"/>
   </g>
   <g id="matplotlib.axis_1">
    <g id="xtick_1">
     <g id="line2d_1">
      <defs>
       <path d="M 0 0 
L 0 3.5 
" id="m9b34790e2b" style="stroke:#000000;stroke-width:0.8;"/>
      </defs>
      <g>
       <use style="stroke:#000000;stroke-width:0.8;" x="132.349091" xlink:href="#m9b34790e2b" y="448.56"/>
      </g>
     </g>
     <g id="text_1">
      <!-- 23:35:04 -->
      <g transform="translate(135.108466 500.4725)rotate(-90)scale(0.1 -0.1)">
       <defs>
        <path d="M 19.1875 8.296875 
L 53.609375 8.296875 
L 53.609375 0 
L 7.328125 0 
L 7.328125 8.296875 
Q 12.9375 14.109375 22.625 23.890625 
Q 32.328125 33.6875 34.8125 36.53125 
Q 39.546875 41.84375 41.421875 45.53125 
Q 43.3125 49.21875 43.3125 52.78125 
Q 43.3125 58.59375 39.234375 62.25 
Q 35.15625 65.921875 28.609375 65.921875 
Q 23.96875 65.921875 18.8125 64.3125 
Q 13.671875 62.703125 7.8125 59.421875 
L 7.8125 69.390625 
Q 13.765625 71.78125 18.9375 73 
Q 24.125 74.21875 28.421875 74.21875 
Q 39.75 74.21875 46.484375 68.546875 
Q 53.21875 62.890625 53.21875 53.421875 
Q 53.21875 48.921875 51.53125 44.890625 
Q 49.859375 40.875 45.40625 35.40625 
Q 44.1875 33.984375 37.640625 27.21875 
Q 31.109375 20.453125 19.1875 8.296875 
z
" id="DejaVuSans-50"/>
        <path d="M 40.578125 39.3125 
Q 47.65625 37.796875 51.625 33 
Q 55.609375 28.21875 55.609375 21.1875 
Q 55.609375 10.40625 48.1875 4.484375 
Q 40.765625 -1.421875 27.09375 -1.421875 
Q 22.515625 -1.421875 17.65625 -0.515625 
Q 12.796875 0.390625 7.625 2.203125 
L 7.625 11.71875 
Q 11.71875 9.328125 16.59375 8.109375 
Q 21.484375 6.890625 26.8125 6.890625 
Q 36.078125 6.890625 40.9375 10.546875 
Q 45.796875 14.203125 45.796875 21.1875 
Q 45.796875 27.640625 41.28125 31.265625 
Q 36.765625 34.90625 28.71875 34.90625 
L 20.21875 34.90625 
L 20.21875 43.015625 
L 29.109375 43.015625 
Q 36.375 43.015625 40.234375 45.921875 
Q 44.09375 48.828125 44.09375 54.296875 
Q 44.09375 59.90625 40.109375 62.90625 
Q 36.140625 65.921875 28.71875 65.921875 
Q 24.65625 65.921875 20.015625 65.03125 
Q 15.375 64.15625 9.8125 62.3125 
L 9.8125 71.09375 
Q 15.4375 72.65625 20.34375 73.4375 
Q 25.25 74.21875 29.59375 74.21875 
Q 40.828125 74.21875 47.359375 69.109375 
Q 53.90625 64.015625 53.90625 55.328125 
Q 53.90625 49.265625 50.4375 45.09375 
Q 46.96875 40.921875 40.578125 39.3125 
z
" id="DejaVuSans-51"/>
        <path d="M 11.71875 12.40625 
L 22.015625 12.40625 
L 22.015625 0 
L 11.71875 0 
z
M 11.71875 51.703125 
L 22.015625 51.703125 
L 22.015625 39.3125 
L 11.71875 39.3125 
z
" id="DejaVuSans-58"/>
        <path d="M 10.796875 72.90625 
L 49.515625 72.90625 
L 49.515625 64.59375 
L 19.828125 64.59375 
L 19.828125 46.734375 
Q 21.96875 47.46875 24.109375 47.828125 
Q 26.265625 48.1875 28.421875 48.1875 
Q 40.625 48.1875 47.75 41.5 
Q 54.890625 34.8125 54.890625 23.390625 
Q 54.890625 11.625 47.5625 5.09375 
Q 40.234375 -1.421875 26.90625 -1.421875 
Q 22.3125 -1.421875 17.546875 -0.640625 
Q 12.796875 0.140625 7.71875 1.703125 
L 7.71875 11.625 
Q 12.109375 9.234375 16.796875 8.0625 
Q 21.484375 6.890625 26.703125 6.890625 
Q 35.15625 6.890625 40.078125 11.328125 
Q 45.015625 15.765625 45.015625 23.390625 
Q 45.015625 31 40.078125 35.4375 
Q 35.15625 39.890625 26.703125 39.890625 
Q 22.75 39.890625 18.8125 39.015625 
Q 14.890625 38.140625 10.796875 36.28125 
z
" id="DejaVuSans-53"/>
        <path d="M 31.78125 66.40625 
Q 24.171875 66.40625 20.328125 58.90625 
Q 16.5 51.421875 16.5 36.375 
Q 16.5 21.390625 20.328125 13.890625 
Q 24.171875 6.390625 31.78125 6.390625 
Q 39.453125 6.390625 43.28125 13.890625 
Q 47.125 21.390625 47.125 36.375 
Q 47.125 51.421875 43.28125 58.90625 
Q 39.453125 66.40625 31.78125 66.40625 
z
M 31.78125 74.21875 
Q 44.046875 74.21875 50.515625 64.515625 
Q 56.984375 54.828125 56.984375 36.375 
Q 56.984375 17.96875 50.515625 8.265625 
Q 44.046875 -1.421875 31.78125 -1.421875 
Q 19.53125 -1.421875 13.0625 8.265625 
Q 6.59375 17.96875 6.59375 36.375 
Q 6.59375 54.828125 13.0625 64.515625 
Q 19.53125 74.21875 31.78125 74.21875 
z
" id="DejaVuSans-48"/>
        <path d="M 37.796875 64.3125 
L 12.890625 25.390625 
L 37.796875 25.390625 
z
M 35.203125 72.90625 
L 47.609375 72.90625 
L 47.609375 25.390625 
L 58.015625 25.390625 
L 58.015625 17.1875 
L 47.609375 17.1875 
L 47.609375 0 
L 37.796875 0 
L 37.796875 17.1875 
L 4.890625 17.1875 
L 4.890625 26.703125 
z
" id="DejaVuSans-52"/>
       </defs>
       <use xlink:href="#DejaVuSans-50"/>
       <use x="63.623047" xlink:href="#DejaVuSans-51"/>
       <use x="127.246094" xlink:href="#DejaVuSans-58"/>
       <use x="160.9375" xlink:href="#DejaVuSans-51"/>
       <use x="224.560547" xlink:href="#DejaVuSans-53"/>
       <use x="288.183594" xlink:href="#DejaVuSans-58"/>
       <use x="321.875" xlink:href="#DejaVuSans-48"/>
       <use x="385.498047" xlink:href="#DejaVuSans-52"/>
      </g>
     </g>
    </g>
    <g id="xtick_2">
     <g id="line2d_2">
      <g>
       <use style="stroke:#000000;stroke-width:0.8;" x="156.333206" xlink:href="#m9b34790e2b" y="448.56"/>
      </g>
     </g>
     <g id="text_2">
      <!-- 23:35:57 -->
      <g transform="translate(159.092581 500.4725)rotate(-90)scale(0.1 -0.1)">
       <defs>
        <path d="M 8.203125 72.90625 
L 55.078125 72.90625 
L 55.078125 68.703125 
L 28.609375 0 
L 18.3125 0 
L 43.21875 64.59375 
L 8.203125 64.59375 
z
" id="DejaVuSans-55"/>
       </defs>
       <use xlink:href="#DejaVuSans-50"/>
       <use x="63.623047" xlink:href="#DejaVuSans-51"/>
       <use x="127.246094" xlink:href="#DejaVuSans-58"/>
       <use x="160.9375" xlink:href="#DejaVuSans-51"/>
       <use x="224.560547" xlink:href="#DejaVuSans-53"/>
       <use x="288.183594" xlink:href="#DejaVuSans-58"/>
       <use x="321.875" xlink:href="#DejaVuSans-53"/>
       <use x="385.498047" xlink:href="#DejaVuSans-55"/>
      </g>
     </g>
    </g>
    <g id="xtick_3">
     <g id="line2d_3">
      <g>
       <use style="stroke:#000000;stroke-width:0.8;" x="180.317321" xlink:href="#m9b34790e2b" y="448.56"/>
      </g>
     </g>
     <g id="text_3">
      <!-- 23:36:48 -->
      <g transform="translate(183.076696 500.4725)rotate(-90)scale(0.1 -0.1)">
       <defs>
        <path d="M 33.015625 40.375 
Q 26.375 40.375 22.484375 35.828125 
Q 18.609375 31.296875 18.609375 23.390625 
Q 18.609375 15.53125 22.484375 10.953125 
Q 26.375 6.390625 33.015625 6.390625 
Q 39.65625 6.390625 43.53125 10.953125 
Q 47.40625 15.53125 47.40625 23.390625 
Q 47.40625 31.296875 43.53125 35.828125 
Q 39.65625 40.375 33.015625 40.375 
z
M 52.59375 71.296875 
L 52.59375 62.3125 
Q 48.875 64.0625 45.09375 64.984375 
Q 41.3125 65.921875 37.59375 65.921875 
Q 27.828125 65.921875 22.671875 59.328125 
Q 17.53125 52.734375 16.796875 39.40625 
Q 19.671875 43.65625 24.015625 45.921875 
Q 28.375 48.1875 33.59375 48.1875 
Q 44.578125 48.1875 50.953125 41.515625 
Q 57.328125 34.859375 57.328125 23.390625 
Q 57.328125 12.15625 50.6875 5.359375 
Q 44.046875 -1.421875 33.015625 -1.421875 
Q 20.359375 -1.421875 13.671875 8.265625 
Q 6.984375 17.96875 6.984375 36.375 
Q 6.984375 53.65625 15.1875 63.9375 
Q 23.390625 74.21875 37.203125 74.21875 
Q 40.921875 74.21875 44.703125 73.484375 
Q 48.484375 72.75 52.59375 71.296875 
z
" id="DejaVuSans-54"/>
        <path d="M 31.78125 34.625 
Q 24.75 34.625 20.71875 30.859375 
Q 16.703125 27.09375 16.703125 20.515625 
Q 16.703125 13.921875 20.71875 10.15625 
Q 24.75 6.390625 31.78125 6.390625 
Q 38.8125 6.390625 42.859375 10.171875 
Q 46.921875 13.96875 46.921875 20.515625 
Q 46.921875 27.09375 42.890625 30.859375 
Q 38.875 34.625 31.78125 34.625 
z
M 21.921875 38.8125 
Q 15.578125 40.375 12.03125 44.71875 
Q 8.5 49.078125 8.5 55.328125 
Q 8.5 64.0625 14.71875 69.140625 
Q 20.953125 74.21875 31.78125 74.21875 
Q 42.671875 74.21875 48.875 69.140625 
Q 55.078125 64.0625 55.078125 55.328125 
Q 55.078125 49.078125 51.53125 44.71875 
Q 48 40.375 41.703125 38.8125 
Q 48.828125 37.15625 52.796875 32.3125 
Q 56.78125 27.484375 56.78125 20.515625 
Q 56.78125 9.90625 50.3125 4.234375 
Q 43.84375 -1.421875 31.78125 -1.421875 
Q 19.734375 -1.421875 13.25 4.234375 
Q 6.78125 9.90625 6.78125 20.515625 
Q 6.78125 27.484375 10.78125 32.3125 
Q 14.796875 37.15625 21.921875 38.8125 
z
M 18.3125 54.390625 
Q 18.3125 48.734375 21.84375 45.5625 
Q 25.390625 42.390625 31.78125 42.390625 
Q 38.140625 42.390625 41.71875 45.5625 
Q 45.3125 48.734375 45.3125 54.390625 
Q 45.3125 60.0625 41.71875 63.234375 
Q 38.140625 66.40625 31.78125 66.40625 
Q 25.390625 66.40625 21.84375 63.234375 
Q 18.3125 60.0625 18.3125 54.390625 
z
" id="DejaVuSans-56"/>
       </defs>
       <use xlink:href="#DejaVuSans-50"/>
       <use x="63.623047" xlink:href="#DejaVuSans-51"/>
       <use x="127.246094" xlink:href="#DejaVuSans-58"/>
       <use x="160.9375" xlink:href="#DejaVuSans-51"/>
       <use x="224.560547" xlink:href="#DejaVuSans-54"/>
       <use x="288.183594" xlink:href="#DejaVuSans-58"/>
       <use x="321.875" xlink:href="#DejaVuSans-52"/>
       <use x="385.498047" xlink:href="#DejaVuSans-56"/>
      </g>
     </g>
    </g>
    <g id="xtick_4">
     <g id="line2d_4">
      <g>
       <use style="stroke:#000000;stroke-width:0.8;" x="204.301437" xlink:href="#m9b34790e2b" y="448.56"/>
      </g>
     </g>
     <g id="text_4">
      <!-- 23:37:40 -->
      <g transform="translate(207.060812 500.4725)rotate(-90)scale(0.1 -0.1)">
       <use xlink:href="#DejaVuSans-50"/>
       <use x="63.623047" xlink:href="#DejaVuSans-51"/>
       <use x="127.246094" xlink:href="#DejaVuSans-58"/>
       <use x="160.9375" xlink:href="#DejaVuSans-51"/>
       <use x="224.560547" xlink:href="#DejaVuSans-55"/>
       <use x="288.183594" xlink:href="#DejaVuSans-58"/>
       <use x="321.875" xlink:href="#DejaVuSans-52"/>
       <use x="385.498047" xlink:href="#DejaVuSans-48"/>
      </g>
     </g>
    </g>
    <g id="xtick_5">
     <g id="line2d_5">
      <g>
       <use style="stroke:#000000;stroke-width:0.8;" x="228.285552" xlink:href="#m9b34790e2b" y="448.56"/>
      </g>
     </g>
     <g id="text_5">
      <!-- 23:38:32 -->
      <g transform="translate(231.044927 500.4725)rotate(-90)scale(0.1 -0.1)">
       <use xlink:href="#DejaVuSans-50"/>
       <use x="63.623047" xlink:href="#DejaVuSans-51"/>
       <use x="127.246094" xlink:href="#DejaVuSans-58"/>
       <use x="160.9375" xlink:href="#DejaVuSans-51"/>
       <use x="224.560547" xlink:href="#DejaVuSans-56"/>
       <use x="288.183594" xlink:href="#DejaVuSans-58"/>
       <use x="321.875" xlink:href="#DejaVuSans-51"/>
       <use x="385.498047" xlink:href="#DejaVuSans-50"/>
      </g>
     </g>
    </g>
    <g id="xtick_6">
     <g id="line2d_6">
      <g>
       <use style="stroke:#000000;stroke-width:0.8;" x="252.269667" xlink:href="#m9b34790e2b" y="448.56"/>
      </g>
     </g>
     <g id="text_6">
      <!-- 23:39:24 -->
      <g transform="translate(255.029042 500.4725)rotate(-90)scale(0.1 -0.1)">
       <defs>
        <path d="M 10.984375 1.515625 
L 10.984375 10.5 
Q 14.703125 8.734375 18.5 7.8125 
Q 22.3125 6.890625 25.984375 6.890625 
Q 35.75 6.890625 40.890625 13.453125 
Q 46.046875 20.015625 46.78125 33.40625 
Q 43.953125 29.203125 39.59375 26.953125 
Q 35.25 24.703125 29.984375 24.703125 
Q 19.046875 24.703125 12.671875 31.3125 
Q 6.296875 37.9375 6.296875 49.421875 
Q 6.296875 60.640625 12.9375 67.421875 
Q 19.578125 74.21875 30.609375 74.21875 
Q 43.265625 74.21875 49.921875 64.515625 
Q 56.59375 54.828125 56.59375 36.375 
Q 56.59375 19.140625 48.40625 8.859375 
Q 40.234375 -1.421875 26.421875 -1.421875 
Q 22.703125 -1.421875 18.890625 -0.6875 
Q 15.09375 0.046875 10.984375 1.515625 
z
M 30.609375 32.421875 
Q 37.25 32.421875 41.125 36.953125 
Q 45.015625 41.5 45.015625 49.421875 
Q 45.015625 57.28125 41.125 61.84375 
Q 37.25 66.40625 30.609375 66.40625 
Q 23.96875 66.40625 20.09375 61.84375 
Q 16.21875 57.28125 16.21875 49.421875 
Q 16.21875 41.5 20.09375 36.953125 
Q 23.96875 32.421875 30.609375 32.421875 
z
" id="DejaVuSans-57"/>
       </defs>
       <use xlink:href="#DejaVuSans-50"/>
       <use x="63.623047" xlink:href="#DejaVuSans-51"/>
       <use x="127.246094" xlink:href="#DejaVuSans-58"/>
       <use x="160.9375" xlink:href="#DejaVuSans-51"/>
       <use x="224.560547" xlink:href="#DejaVuSans-57"/>
       <use x="288.183594" xlink:href="#DejaVuSans-58"/>
       <use x="321.875" xlink:href="#DejaVuSans-50"/>
       <use x="385.498047" xlink:href="#DejaVuSans-52"/>
      </g>
     </g>
    </g>
    <g id="xtick_7">
     <g id="line2d_7">
      <g>
       <use style="stroke:#000000;stroke-width:0.8;" x="276.253782" xlink:href="#m9b34790e2b" y="448.56"/>
      </g>
     </g>
     <g id="text_7">
      <!-- 23:40:16 -->
      <g transform="translate(279.013157 500.4725)rotate(-90)scale(0.1 -0.1)">
       <defs>
        <path d="M 12.40625 8.296875 
L 28.515625 8.296875 
L 28.515625 63.921875 
L 10.984375 60.40625 
L 10.984375 69.390625 
L 28.421875 72.90625 
L 38.28125 72.90625 
L 38.28125 8.296875 
L 54.390625 8.296875 
L 54.390625 0 
L 12.40625 0 
z
" id="DejaVuSans-49"/>
       </defs>
       <use xlink:href="#DejaVuSans-50"/>
       <use x="63.623047" xlink:href="#DejaVuSans-51"/>
       <use x="127.246094" xlink:href="#DejaVuSans-58"/>
       <use x="160.9375" xlink:href="#DejaVuSans-52"/>
       <use x="224.560547" xlink:href="#DejaVuSans-48"/>
       <use x="288.183594" xlink:href="#DejaVuSans-58"/>
       <use x="321.875" xlink:href="#DejaVuSans-49"/>
       <use x="385.498047" xlink:href="#DejaVuSans-54"/>
      </g>
     </g>
    </g>
    <g id="xtick_8">
     <g id="line2d_8">
      <g>
       <use style="stroke:#000000;stroke-width:0.8;" x="300.237898" xlink:href="#m9b34790e2b" y="448.56"/>
      </g>
     </g>
     <g id="text_8">
      <!-- 23:41:07 -->
      <g transform="translate(302.997273 500.4725)rotate(-90)scale(0.1 -0.1)">
       <use xlink:href="#DejaVuSans-50"/>
       <use x="63.623047" xlink:href="#DejaVuSans-51"/>
       <use x="127.246094" xlink:href="#DejaVuSans-58"/>
       <use x="160.9375" xlink:href="#DejaVuSans-52"/>
       <use x="224.560547" xlink:href="#DejaVuSans-49"/>
       <use x="288.183594" xlink:href="#DejaVuSans-58"/>
       <use x="321.875" xlink:href="#DejaVuSans-48"/>
       <use x="385.498047" xlink:href="#DejaVuSans-55"/>
      </g>
     </g>
    </g>
    <g id="xtick_9">
     <g id="line2d_9">
      <g>
       <use style="stroke:#000000;stroke-width:0.8;" x="324.222013" xlink:href="#m9b34790e2b" y="448.56"/>
      </g>
     </g>
     <g id="text_9">
      <!-- 23:42:00 -->
      <g transform="translate(326.981388 500.4725)rotate(-90)scale(0.1 -0.1)">
       <use xlink:href="#DejaVuSans-50"/>
       <use x="63.623047" xlink:href="#DejaVuSans-51"/>
       <use x="127.246094" xlink:href="#DejaVuSans-58"/>
       <use x="160.9375" xlink:href="#DejaVuSans-52"/>
       <use x="224.560547" xlink:href="#DejaVuSans-50"/>
       <use x="288.183594" xlink:href="#DejaVuSans-58"/>
       <use x="321.875" xlink:href="#DejaVuSans-48"/>
       <use x="385.498047" xlink:href="#DejaVuSans-48"/>
      </g>
     </g>
    </g>
    <g id="xtick_10">
     <g id="line2d_10">
      <g>
       <use style="stroke:#000000;stroke-width:0.8;" x="348.206128" xlink:href="#m9b34790e2b" y="448.56"/>
      </g>
     </g>
     <g id="text_10">
      <!-- 23:42:51 -->
      <g transform="translate(350.965503 500.4725)rotate(-90)scale(0.1 -0.1)">
       <use xlink:href="#DejaVuSans-50"/>
       <use x="63.623047" xlink:href="#DejaVuSans-51"/>
       <use x="127.246094" xlink:href="#DejaVuSans-58"/>
       <use x="160.9375" xlink:href="#DejaVuSans-52"/>
       <use x="224.560547" xlink:href="#DejaVuSans-50"/>
       <use x="288.183594" xlink:href="#DejaVuSans-58"/>
       <use x="321.875" xlink:href="#DejaVuSans-53"/>
       <use x="385.498047" xlink:href="#DejaVuSans-49"/>
      </g>
     </g>
    </g>
    <g id="xtick_11">
     <g id="line2d_11">
      <g>
       <use style="stroke:#000000;stroke-width:0.8;" x="372.190243" xlink:href="#m9b34790e2b" y="448.56"/>
      </g>
     </g>
     <g id="text_11">
      <!-- 23:43:43 -->
      <g transform="translate(374.949618 500.4725)rotate(-90)scale(0.1 -0.1)">
       <use xlink:href="#DejaVuSans-50"/>
       <use x="63.623047" xlink:href="#DejaVuSans-51"/>
       <use x="127.246094" xlink:href="#DejaVuSans-58"/>
       <use x="160.9375" xlink:href="#DejaVuSans-52"/>
       <use x="224.560547" xlink:href="#DejaVuSans-51"/>
       <use x="288.183594" xlink:href="#DejaVuSans-58"/>
       <use x="321.875" xlink:href="#DejaVuSans-52"/>
       <use x="385.498047" xlink:href="#DejaVuSans-51"/>
      </g>
     </g>
    </g>
    <g id="xtick_12">
     <g id="line2d_12">
      <g>
       <use style="stroke:#000000;stroke-width:0.8;" x="396.174359" xlink:href="#m9b34790e2b" y="448.56"/>
      </g>
     </g>
     <g id="text_12">
      <!-- 23:44:35 -->
      <g transform="translate(398.933734 500.4725)rotate(-90)scale(0.1 -0.1)">
       <use xlink:href="#DejaVuSans-50"/>
       <use x="63.623047" xlink:href="#DejaVuSans-51"/>
       <use x="127.246094" xlink:href="#DejaVuSans-58"/>
       <use x="160.9375" xlink:href="#DejaVuSans-52"/>
       <use x="224.560547" xlink:href="#DejaVuSans-52"/>
       <use x="288.183594" xlink:href="#DejaVuSans-58"/>
       <use x="321.875" xlink:href="#DejaVuSans-51"/>
       <use x="385.498047" xlink:href="#DejaVuSans-53"/>
      </g>
     </g>
    </g>
    <g id="xtick_13">
     <g id="line2d_13">
      <g>
       <use style="stroke:#000000;stroke-width:0.8;" x="420.158474" xlink:href="#m9b34790e2b" y="448.56"/>
      </g>
     </g>
     <g id="text_13">
      <!-- 23:45:27 -->
      <g transform="translate(422.917849 500.4725)rotate(-90)scale(0.1 -0.1)">
       <use xlink:href="#DejaVuSans-50"/>
       <use x="63.623047" xlink:href="#DejaVuSans-51"/>
       <use x="127.246094" xlink:href="#DejaVuSans-58"/>
       <use x="160.9375" xlink:href="#DejaVuSans-52"/>
       <use x="224.560547" xlink:href="#DejaVuSans-53"/>
       <use x="288.183594" xlink:href="#DejaVuSans-58"/>
       <use x="321.875" xlink:href="#DejaVuSans-50"/>
       <use x="385.498047" xlink:href="#DejaVuSans-55"/>
      </g>
     </g>
    </g>
    <g id="xtick_14">
     <g id="line2d_14">
      <g>
       <use style="stroke:#000000;stroke-width:0.8;" x="444.142589" xlink:href="#m9b34790e2b" y="448.56"/>
      </g>
     </g>
     <g id="text_14">
      <!-- 23:46:19 -->
      <g transform="translate(446.901964 500.4725)rotate(-90)scale(0.1 -0.1)">
       <use xlink:href="#DejaVuSans-50"/>
       <use x="63.623047" xlink:href="#DejaVuSans-51"/>
       <use x="127.246094" xlink:href="#DejaVuSans-58"/>
       <use x="160.9375" xlink:href="#DejaVuSans-52"/>
       <use x="224.560547" xlink:href="#DejaVuSans-54"/>
       <use x="288.183594" xlink:href="#DejaVuSans-58"/>
       <use x="321.875" xlink:href="#DejaVuSans-49"/>
       <use x="385.498047" xlink:href="#DejaVuSans-57"/>
      </g>
     </g>
    </g>
    <g id="xtick_15">
     <g id="line2d_15">
      <g>
       <use style="stroke:#000000;stroke-width:0.8;" x="468.126704" xlink:href="#m9b34790e2b" y="448.56"/>
      </g>
     </g>
     <g id="text_15">
      <!-- 23:47:10 -->
      <g transform="translate(470.886079 500.4725)rotate(-90)scale(0.1 -0.1)">
       <use xlink:href="#DejaVuSans-50"/>
       <use x="63.623047" xlink:href="#DejaVuSans-51"/>
       <use x="127.246094" xlink:href="#DejaVuSans-58"/>
       <use x="160.9375" xlink:href="#DejaVuSans-52"/>
       <use x="224.560547" xlink:href="#DejaVuSans-55"/>
       <use x="288.183594" xlink:href="#DejaVuSans-58"/>
       <use x="321.875" xlink:href="#DejaVuSans-49"/>
       <use x="385.498047" xlink:href="#DejaVuSans-48"/>
      </g>
     </g>
    </g>
    <g id="xtick_16">
     <g id="line2d_16">
      <g>
       <use style="stroke:#000000;stroke-width:0.8;" x="492.11082" xlink:href="#m9b34790e2b" y="448.56"/>
      </g>
     </g>
     <g id="text_16">
      <!-- 23:48:02 -->
      <g transform="translate(494.870195 500.4725)rotate(-90)scale(0.1 -0.1)">
       <use xlink:href="#DejaVuSans-50"/>
       <use x="63.623047" xlink:href="#DejaVuSans-51"/>
       <use x="127.246094" xlink:href="#DejaVuSans-58"/>
       <use x="160.9375" xlink:href="#DejaVuSans-52"/>
       <use x="224.560547" xlink:href="#DejaVuSans-56"/>
       <use x="288.183594" xlink:href="#DejaVuSans-58"/>
       <use x="321.875" xlink:href="#DejaVuSans-48"/>
       <use x="385.498047" xlink:href="#DejaVuSans-50"/>
      </g>
     </g>
    </g>
    <g id="xtick_17">
     <g id="line2d_17">
      <g>
       <use style="stroke:#000000;stroke-width:0.8;" x="516.094935" xlink:href="#m9b34790e2b" y="448.56"/>
      </g>
     </g>
     <g id="text_17">
      <!-- 23:48:54 -->
      <g transform="translate(518.85431 500.4725)rotate(-90)scale(0.1 -0.1)">
       <use xlink:href="#DejaVuSans-50"/>
       <use x="63.623047" xlink:href="#DejaVuSans-51"/>
       <use x="127.246094" xlink:href="#DejaVuSans-58"/>
       <use x="160.9375" xlink:href="#DejaVuSans-52"/>
       <use x="224.560547" xlink:href="#DejaVuSans-56"/>
       <use x="288.183594" xlink:href="#DejaVuSans-58"/>
       <use x="321.875" xlink:href="#DejaVuSans-53"/>
       <use x="385.498047" xlink:href="#DejaVuSans-52"/>
      </g>
     </g>
    </g>
    <g id="xtick_18">
     <g id="line2d_18">
      <g>
       <use style="stroke:#000000;stroke-width:0.8;" x="540.07905" xlink:href="#m9b34790e2b" y="448.56"/>
      </g>
     </g>
     <g id="text_18">
      <!-- 23:49:46 -->
      <g transform="translate(542.838425 500.4725)rotate(-90)scale(0.1 -0.1)">
       <use xlink:href="#DejaVuSans-50"/>
       <use x="63.623047" xlink:href="#DejaVuSans-51"/>
       <use x="127.246094" xlink:href="#DejaVuSans-58"/>
       <use x="160.9375" xlink:href="#DejaVuSans-52"/>
       <use x="224.560547" xlink:href="#DejaVuSans-57"/>
       <use x="288.183594" xlink:href="#DejaVuSans-58"/>
       <use x="321.875" xlink:href="#DejaVuSans-52"/>
       <use x="385.498047" xlink:href="#DejaVuSans-54"/>
      </g>
     </g>
    </g>
    <g id="xtick_19">
     <g id="line2d_19">
      <g>
       <use style="stroke:#000000;stroke-width:0.8;" x="564.063165" xlink:href="#m9b34790e2b" y="448.56"/>
      </g>
     </g>
     <g id="text_19">
      <!-- 23:50:38 -->
      <g transform="translate(566.82254 500.4725)rotate(-90)scale(0.1 -0.1)">
       <use xlink:href="#DejaVuSans-50"/>
       <use x="63.623047" xlink:href="#DejaVuSans-51"/>
       <use x="127.246094" xlink:href="#DejaVuSans-58"/>
       <use x="160.9375" xlink:href="#DejaVuSans-53"/>
       <use x="224.560547" xlink:href="#DejaVuSans-48"/>
       <use x="288.183594" xlink:href="#DejaVuSans-58"/>
       <use x="321.875" xlink:href="#DejaVuSans-51"/>
       <use x="385.498047" xlink:href="#DejaVuSans-56"/>
      </g>
     </g>
    </g>
    <g id="xtick_20">
     <g id="line2d_20">
      <g>
       <use style="stroke:#000000;stroke-width:0.8;" x="588.047281" xlink:href="#m9b34790e2b" y="448.56"/>
      </g>
     </g>
     <g id="text_20">
      <!-- 23:51:30 -->
      <g transform="translate(590.806656 500.4725)rotate(-90)scale(0.1 -0.1)">
       <use xlink:href="#DejaVuSans-50"/>
       <use x="63.623047" xlink:href="#DejaVuSans-51"/>
       <use x="127.246094" xlink:href="#DejaVuSans-58"/>
       <use x="160.9375" xlink:href="#DejaVuSans-53"/>
       <use x="224.560547" xlink:href="#DejaVuSans-49"/>
       <use x="288.183594" xlink:href="#DejaVuSans-58"/>
       <use x="321.875" xlink:href="#DejaVuSans-51"/>
       <use x="385.498047" xlink:href="#DejaVuSans-48"/>
      </g>
     </g>
    </g>
    <g id="xtick_21">
     <g id="line2d_21">
      <g>
       <use style="stroke:#000000;stroke-width:0.8;" x="612.031396" xlink:href="#m9b34790e2b" y="448.56"/>
      </g>
     </g>
     <g id="text_21">
      <!-- 23:52:22 -->
      <g transform="translate(614.790771 500.4725)rotate(-90)scale(0.1 -0.1)">
       <use xlink:href="#DejaVuSans-50"/>
       <use x="63.623047" xlink:href="#DejaVuSans-51"/>
       <use x="127.246094" xlink:href="#DejaVuSans-58"/>
       <use x="160.9375" xlink:href="#DejaVuSans-53"/>
       <use x="224.560547" xlink:href="#DejaVuSans-50"/>
       <use x="288.183594" xlink:href="#DejaVuSans-58"/>
       <use x="321.875" xlink:href="#DejaVuSans-50"/>
       <use x="385.498047" xlink:href="#DejaVuSans-50"/>
      </g>
     </g>
    </g>
    <g id="text_22">
     <!-- timestamp -->
     <g transform="translate(354.264375 510.55125)scale(0.08 -0.08)">
      <defs>
       <path d="M 18.3125 70.21875 
L 18.3125 54.6875 
L 36.8125 54.6875 
L 36.8125 47.703125 
L 18.3125 47.703125 
L 18.3125 18.015625 
Q 18.3125 11.328125 20.140625 9.421875 
Q 21.96875 7.515625 27.59375 7.515625 
L 36.8125 7.515625 
L 36.8125 0 
L 27.59375 0 
Q 17.1875 0 13.234375 3.875 
Q 9.28125 7.765625 9.28125 18.015625 
L 9.28125 47.703125 
L 2.6875 47.703125 
L 2.6875 54.6875 
L 9.28125 54.6875 
L 9.28125 70.21875 
z
" id="DejaVuSans-116"/>
       <path d="M 9.421875 54.6875 
L 18.40625 54.6875 
L 18.40625 0 
L 9.421875 0 
z
M 9.421875 75.984375 
L 18.40625 75.984375 
L 18.40625 64.59375 
L 9.421875 64.59375 
z
" id="DejaVuSans-105"/>
       <path d="M 52 44.1875 
Q 55.375 50.25 60.0625 53.125 
Q 64.75 56 71.09375 56 
Q 79.640625 56 84.28125 50.015625 
Q 88.921875 44.046875 88.921875 33.015625 
L 88.921875 0 
L 79.890625 0 
L 79.890625 32.71875 
Q 79.890625 40.578125 77.09375 44.375 
Q 74.3125 48.1875 68.609375 48.1875 
Q 61.625 48.1875 57.5625 43.546875 
Q 53.515625 38.921875 53.515625 30.90625 
L 53.515625 0 
L 44.484375 0 
L 44.484375 32.71875 
Q 44.484375 40.625 41.703125 44.40625 
Q 38.921875 48.1875 33.109375 48.1875 
Q 26.21875 48.1875 22.15625 43.53125 
Q 18.109375 38.875 18.109375 30.90625 
L 18.109375 0 
L 9.078125 0 
L 9.078125 54.6875 
L 18.109375 54.6875 
L 18.109375 46.1875 
Q 21.1875 51.21875 25.484375 53.609375 
Q 29.78125 56 35.6875 56 
Q 41.65625 56 45.828125 52.96875 
Q 50 49.953125 52 44.1875 
z
" id="DejaVuSans-109"/>
       <path d="M 56.203125 29.59375 
L 56.203125 25.203125 
L 14.890625 25.203125 
Q 15.484375 15.921875 20.484375 11.0625 
Q 25.484375 6.203125 34.421875 6.203125 
Q 39.59375 6.203125 44.453125 7.46875 
Q 49.3125 8.734375 54.109375 11.28125 
L 54.109375 2.78125 
Q 49.265625 0.734375 44.1875 -0.34375 
Q 39.109375 -1.421875 33.890625 -1.421875 
Q 20.796875 -1.421875 13.15625 6.1875 
Q 5.515625 13.8125 5.515625 26.8125 
Q 5.515625 40.234375 12.765625 48.109375 
Q 20.015625 56 32.328125 56 
Q 43.359375 56 49.78125 48.890625 
Q 56.203125 41.796875 56.203125 29.59375 
z
M 47.21875 32.234375 
Q 47.125 39.59375 43.09375 43.984375 
Q 39.0625 48.390625 32.421875 48.390625 
Q 24.90625 48.390625 20.390625 44.140625 
Q 15.875 39.890625 15.1875 32.171875 
z
" id="DejaVuSans-101"/>
       <path d="M 44.28125 53.078125 
L 44.28125 44.578125 
Q 40.484375 46.53125 36.375 47.5 
Q 32.28125 48.484375 27.875 48.484375 
Q 21.1875 48.484375 17.84375 46.4375 
Q 14.5 44.390625 14.5 40.28125 
Q 14.5 37.15625 16.890625 35.375 
Q 19.28125 33.59375 26.515625 31.984375 
L 29.59375 31.296875 
Q 39.15625 29.25 43.1875 25.515625 
Q 47.21875 21.78125 47.21875 15.09375 
Q 47.21875 7.46875 41.1875 3.015625 
Q 35.15625 -1.421875 24.609375 -1.421875 
Q 20.21875 -1.421875 15.453125 -0.5625 
Q 10.6875 0.296875 5.421875 2 
L 5.421875 11.28125 
Q 10.40625 8.6875 15.234375 7.390625 
Q 20.0625 6.109375 24.8125 6.109375 
Q 31.15625 6.109375 34.5625 8.28125 
Q 37.984375 10.453125 37.984375 14.40625 
Q 37.984375 18.0625 35.515625 20.015625 
Q 33.0625 21.96875 24.703125 23.78125 
L 21.578125 24.515625 
Q 13.234375 26.265625 9.515625 29.90625 
Q 5.8125 33.546875 5.8125 39.890625 
Q 5.8125 47.609375 11.28125 51.796875 
Q 16.75 56 26.8125 56 
Q 31.78125 56 36.171875 55.265625 
Q 40.578125 54.546875 44.28125 53.078125 
z
" id="DejaVuSans-115"/>
       <path d="M 34.28125 27.484375 
Q 23.390625 27.484375 19.1875 25 
Q 14.984375 22.515625 14.984375 16.5 
Q 14.984375 11.71875 18.140625 8.90625 
Q 21.296875 6.109375 26.703125 6.109375 
Q 34.1875 6.109375 38.703125 11.40625 
Q 43.21875 16.703125 43.21875 25.484375 
L 43.21875 27.484375 
z
M 52.203125 31.203125 
L 52.203125 0 
L 43.21875 0 
L 43.21875 8.296875 
Q 40.140625 3.328125 35.546875 0.953125 
Q 30.953125 -1.421875 24.3125 -1.421875 
Q 15.921875 -1.421875 10.953125 3.296875 
Q 6 8.015625 6 15.921875 
Q 6 25.140625 12.171875 29.828125 
Q 18.359375 34.515625 30.609375 34.515625 
L 43.21875 34.515625 
L 43.21875 35.40625 
Q 43.21875 41.609375 39.140625 45 
Q 35.0625 48.390625 27.6875 48.390625 
Q 23 48.390625 18.546875 47.265625 
Q 14.109375 46.140625 10.015625 43.890625 
L 10.015625 52.203125 
Q 14.9375 54.109375 19.578125 55.046875 
Q 24.21875 56 28.609375 56 
Q 40.484375 56 46.34375 49.84375 
Q 52.203125 43.703125 52.203125 31.203125 
z
" id="DejaVuSans-97"/>
       <path d="M 18.109375 8.203125 
L 18.109375 -20.796875 
L 9.078125 -20.796875 
L 9.078125 54.6875 
L 18.109375 54.6875 
L 18.109375 46.390625 
Q 20.953125 51.265625 25.265625 53.625 
Q 29.59375 56 35.59375 56 
Q 45.5625 56 51.78125 48.09375 
Q 58.015625 40.1875 58.015625 27.296875 
Q 58.015625 14.40625 51.78125 6.484375 
Q 45.5625 -1.421875 35.59375 -1.421875 
Q 29.59375 -1.421875 25.265625 0.953125 
Q 20.953125 3.328125 18.109375 8.203125 
z
M 48.6875 27.296875 
Q 48.6875 37.203125 44.609375 42.84375 
Q 40.53125 48.484375 33.40625 48.484375 
Q 26.265625 48.484375 22.1875 42.84375 
Q 18.109375 37.203125 18.109375 27.296875 
Q 18.109375 17.390625 22.1875 11.75 
Q 26.265625 6.109375 33.40625 6.109375 
Q 40.53125 6.109375 44.609375 11.75 
Q 48.6875 17.390625 48.6875 27.296875 
z
" id="DejaVuSans-112"/>
      </defs>
      <use xlink:href="#DejaVuSans-116"/>
      <use x="39.208984" xlink:href="#DejaVuSans-105"/>
      <use x="66.992188" xlink:href="#DejaVuSans-109"/>
      <use x="164.404297" xlink:href="#DejaVuSans-101"/>
      <use x="225.927734" xlink:href="#DejaVuSans-115"/>
      <use x="278.027344" xlink:href="#DejaVuSans-116"/>
      <use x="317.236328" xlink:href="#DejaVuSans-97"/>
      <use x="378.515625" xlink:href="#DejaVuSans-109"/>
      <use x="475.927734" xlink:href="#DejaVuSans-112"/>
     </g>
    </g>
   </g>
   <g id="matplotlib.axis_2">
    <g id="ytick_1">
     <g id="line2d_22">
      <defs>
       <path d="M 0 0 
L -3.5 0 
" id="m93cd042262" style="stroke:#000000;stroke-width:0.8;"/>
      </defs>
      <g>
       <use style="stroke:#000000;stroke-width:0.8;" x="108" xlink:href="#m93cd042262" y="444.615293"/>
      </g>
     </g>
     <g id="text_23">
      <!-- 11000 -->
      <g transform="translate(69.1875 448.414512)scale(0.1 -0.1)">
       <use xlink:href="#DejaVuSans-49"/>
       <use x="63.623047" xlink:href="#DejaVuSans-49"/>
       <use x="127.246094" xlink:href="#DejaVuSans-48"/>
       <use x="190.869141" xlink:href="#DejaVuSans-48"/>
       <use x="254.492188" xlink:href="#DejaVuSans-48"/>
      </g>
     </g>
    </g>
    <g id="ytick_2">
     <g id="line2d_23">
      <g>
       <use style="stroke:#000000;stroke-width:0.8;" x="108" xlink:href="#m93cd042262" y="364.281571"/>
      </g>
     </g>
     <g id="text_24">
      <!-- 11200 -->
      <g transform="translate(69.1875 368.08079)scale(0.1 -0.1)">
       <use xlink:href="#DejaVuSans-49"/>
       <use x="63.623047" xlink:href="#DejaVuSans-49"/>
       <use x="127.246094" xlink:href="#DejaVuSans-50"/>
       <use x="190.869141" xlink:href="#DejaVuSans-48"/>
       <use x="254.492188" xlink:href="#DejaVuSans-48"/>
      </g>
     </g>
    </g>
    <g id="ytick_3">
     <g id="line2d_24">
      <g>
       <use style="stroke:#000000;stroke-width:0.8;" x="108" xlink:href="#m93cd042262" y="283.947849"/>
      </g>
     </g>
     <g id="text_25">
      <!-- 11400 -->
      <g transform="translate(69.1875 287.747068)scale(0.1 -0.1)">
       <use xlink:href="#DejaVuSans-49"/>
       <use x="63.623047" xlink:href="#DejaVuSans-49"/>
       <use x="127.246094" xlink:href="#DejaVuSans-52"/>
       <use x="190.869141" xlink:href="#DejaVuSans-48"/>
       <use x="254.492188" xlink:href="#DejaVuSans-48"/>
      </g>
     </g>
    </g>
    <g id="ytick_4">
     <g id="line2d_25">
      <g>
       <use style="stroke:#000000;stroke-width:0.8;" x="108" xlink:href="#m93cd042262" y="203.614127"/>
      </g>
     </g>
     <g id="text_26">
      <!-- 11600 -->
      <g transform="translate(69.1875 207.413346)scale(0.1 -0.1)">
       <use xlink:href="#DejaVuSans-49"/>
       <use x="63.623047" xlink:href="#DejaVuSans-49"/>
       <use x="127.246094" xlink:href="#DejaVuSans-54"/>
       <use x="190.869141" xlink:href="#DejaVuSans-48"/>
       <use x="254.492188" xlink:href="#DejaVuSans-48"/>
      </g>
     </g>
    </g>
    <g id="ytick_5">
     <g id="line2d_26">
      <g>
       <use style="stroke:#000000;stroke-width:0.8;" x="108" xlink:href="#m93cd042262" y="123.280405"/>
      </g>
     </g>
     <g id="text_27">
      <!-- 11800 -->
      <g transform="translate(69.1875 127.079624)scale(0.1 -0.1)">
       <use xlink:href="#DejaVuSans-49"/>
       <use x="63.623047" xlink:href="#DejaVuSans-49"/>
       <use x="127.246094" xlink:href="#DejaVuSans-56"/>
       <use x="190.869141" xlink:href="#DejaVuSans-48"/>
       <use x="254.492188" xlink:href="#DejaVuSans-48"/>
      </g>
     </g>
    </g>
    <g id="text_28">
     <!-- MB -->
     <g transform="translate(63.52375 260.715625)rotate(-90)scale(0.08 -0.08)">
      <defs>
       <path d="M 9.8125 72.90625 
L 24.515625 72.90625 
L 43.109375 23.296875 
L 61.8125 72.90625 
L 76.515625 72.90625 
L 76.515625 0 
L 66.890625 0 
L 66.890625 64.015625 
L 48.09375 14.015625 
L 38.1875 14.015625 
L 19.390625 64.015625 
L 19.390625 0 
L 9.8125 0 
z
" id="DejaVuSans-77"/>
       <path d="M 19.671875 34.8125 
L 19.671875 8.109375 
L 35.5 8.109375 
Q 43.453125 8.109375 47.28125 11.40625 
Q 51.125 14.703125 51.125 21.484375 
Q 51.125 28.328125 47.28125 31.5625 
Q 43.453125 34.8125 35.5 34.8125 
z
M 19.671875 64.796875 
L 19.671875 42.828125 
L 34.28125 42.828125 
Q 41.5 42.828125 45.03125 45.53125 
Q 48.578125 48.25 48.578125 53.8125 
Q 48.578125 59.328125 45.03125 62.0625 
Q 41.5 64.796875 34.28125 64.796875 
z
M 9.8125 72.90625 
L 35.015625 72.90625 
Q 46.296875 72.90625 52.390625 68.21875 
Q 58.5 63.53125 58.5 54.890625 
Q 58.5 48.1875 55.375 44.234375 
Q 52.25 40.28125 46.1875 39.3125 
Q 53.46875 37.75 57.5 32.78125 
Q 61.53125 27.828125 61.53125 20.40625 
Q 61.53125 10.640625 54.890625 5.3125 
Q 48.25 0 35.984375 0 
L 9.8125 0 
z
" id="DejaVuSans-66"/>
      </defs>
      <use xlink:href="#DejaVuSans-77"/>
      <use x="86.279297" xlink:href="#DejaVuSans-66"/>
     </g>
    </g>
   </g>
   <g id="line2d_27">
    <path clip-path="url(#pcdfed6a084)" d="M 132.349091 80.043189 
L 132.870485 83.209945 
L 133.391879 81.776791 
L 133.913272 79.273592 
L 134.434666 78.12 
L 134.95606 82.592982 
L 135.477454 80.944534 
L 135.998848 79.913049 
L 136.520241 78.581116 
L 137.041635 78.910484 
L 137.563029 80.86902 
L 138.084423 89.877644 
L 138.605817 101.956622 
L 139.12721 120.158637 
L 139.648604 152.708254 
L 140.691392 231.452975 
L 141.212786 251.068863 
L 142.776967 351.172714 
L 143.298361 365.158815 
L 143.819755 373.160054 
L 144.862542 377.978471 
L 145.383936 376.127582 
L 145.90533 375.131443 
L 146.426724 375.468845 
L 146.948118 380.195681 
L 147.990905 376.958232 
L 148.512299 377.285994 
L 149.033693 376.677064 
L 149.555087 378.924802 
L 150.597874 379.098323 
L 151.119268 382.184744 
L 151.640662 384.477469 
L 152.162056 384.748997 
L 152.683449 390.841506 
L 153.204843 386.88266 
L 153.726237 384.811657 
L 154.247631 387.867552 
L 155.290419 384.748997 
L 155.811812 390.855966 
L 156.333206 391.757311 
L 156.8546 390.913806 
L 157.375994 389.315165 
L 157.897388 384.345721 
L 158.418781 384.297521 
L 158.940175 387.608877 
L 160.504357 384.040453 
L 161.02575 384.067767 
L 161.547144 386.646479 
L 162.068538 387.085101 
L 162.589932 386.704319 
L 163.111326 385.475213 
L 163.632719 387.003161 
L 164.154113 386.974241 
L 164.675507 386.590246 
L 165.718295 384.385888 
L 166.239689 388.519862 
L 167.282476 388.453988 
L 167.80387 386.069683 
L 168.325264 384.461402 
L 168.846658 385.992563 
L 169.368051 385.819042 
L 169.889445 384.103114 
L 170.410839 383.473297 
L 170.932233 387.022441 
L 171.453627 387.295576 
L 171.97502 386.08093 
L 172.496414 386.14359 
L 173.017808 384.241288 
L 173.539202 386.78144 
L 174.060596 387.054574 
L 174.581989 386.83928 
L 175.103383 385.693721 
L 175.624777 386.251237 
L 176.146171 387.865945 
L 176.667565 387.650651 
L 177.188959 391.948505 
L 177.710352 390.576405 
L 178.231746 393.167971 
L 178.75314 393.569639 
L 179.274534 389.771461 
L 179.795928 388.535928 
L 180.317321 388.841196 
L 180.838715 388.13908 
L 181.360109 385.269559 
L 181.881503 383.831586 
L 182.402897 384.079013 
L 182.92429 387.208815 
L 183.445684 386.852133 
L 183.967078 386.971027 
L 184.488472 386.813573 
L 185.009866 385.38524 
L 185.531259 387.485163 
L 186.052653 387.552644 
L 186.574047 387.017621 
L 187.095441 385.721035 
L 188.138229 388.712662 
L 188.659622 387.891652 
L 189.181016 387.984839 
L 189.70241 387.285936 
L 190.223804 389.758608 
L 190.745198 389.729687 
L 191.266591 388.784963 
L 191.787985 387.237735 
L 192.309379 387.268262 
L 192.830773 389.408353 
L 193.352167 388.200133 
L 193.87356 388.317421 
L 194.916348 385.317759 
L 195.437742 386.84892 
L 195.959136 386.22553 
L 196.480529 386.535619 
L 197.001923 384.806837 
L 197.523317 387.751871 
L 198.566105 387.287542 
L 199.087499 386.000596 
L 199.608892 385.44308 
L 200.130286 387.078675 
L 200.65168 387.139728 
L 201.173074 386.22553 
L 201.694468 385.078365 
L 202.215861 388.632329 
L 202.737255 387.149368 
L 203.258649 387.162222 
L 203.780043 385.52502 
L 204.301437 385.083185 
L 204.82283 387.809711 
L 205.344224 387.869158 
L 205.865618 387.130088 
L 206.387012 385.872062 
L 207.429799 386.932467 
L 207.951193 386.554899 
L 208.472587 386.675399 
L 208.993981 384.189874 
L 209.515375 387.49641 
L 210.036769 387.44821 
L 210.558162 386.999948 
L 211.079556 385.994169 
L 211.60095 386.366918 
L 212.122344 387.695638 
L 213.165131 387.189535 
L 213.686525 386.166084 
L 214.207919 389.474226 
L 215.250707 388.372048 
L 215.7721 388.474875 
L 216.293494 387.006374 
L 216.814888 388.672496 
L 217.336282 387.713311 
L 217.857676 386.439218 
L 218.379069 385.958823 
L 218.900463 388.18246 
L 219.421857 389.377826 
L 219.943251 389.493506 
L 220.464645 395.15864 
L 220.986039 394.119122 
L 221.507432 393.611413 
L 222.028826 393.571246 
L 222.55022 388.86851 
L 223.071614 387.383943 
L 223.593008 387.163828 
L 224.114401 389.936948 
L 224.635795 388.977764 
L 225.157189 388.621082 
L 225.678583 386.959781 
L 226.199977 388.253154 
L 227.242764 389.080591 
L 227.764158 388.83959 
L 228.285552 387.632977 
L 228.806946 390.558731 
L 229.849733 387.425716 
L 230.371127 387.647437 
L 230.892521 386.580606 
L 231.413915 387.327709 
L 231.935309 387.504443 
L 232.456702 387.411256 
L 232.978096 385.905802 
L 233.49949 388.27886 
L 234.020884 387.793645 
L 234.542278 387.729378 
L 235.063671 387.917359 
L 235.585065 387.178288 
L 236.106459 387.475523 
L 236.627853 387.605664 
L 237.149247 387.131695 
L 237.67064 392.477101 
L 238.192034 395.491222 
L 238.713428 395.121687 
L 239.234822 394.996366 
L 239.756216 395.087947 
L 240.277609 394.242836 
L 240.799003 395.465515 
L 241.320397 395.291994 
L 241.841791 394.509544 
L 242.363185 393.03301 
L 242.884579 393.155117 
L 243.405972 395.589229 
L 244.44876 395.648676 
L 244.970154 393.041043 
L 245.491548 396.207799 
L 247.055729 395.007613 
L 247.577123 394.078955 
L 248.098517 398.791331 
L 248.61991 398.850778 
L 249.141304 398.596924 
L 249.662698 395.266288 
L 250.184092 395.666349 
L 250.705486 397.150917 
L 251.22688 396.832795 
L 251.748273 397.089863 
L 252.269667 395.80613 
L 252.791061 398.363956 
L 253.312455 398.60817 
L 253.833849 398.675651 
L 254.355242 397.314797 
L 255.39803 396.582154 
L 255.919424 402.430449 
L 256.962211 399.891903 
L 257.483605 403.98089 
L 258.004999 405.010768 
L 258.526393 402.58951 
L 259.047787 403.29484 
L 259.56918 401.840799 
L 260.090574 403.984103 
L 260.611968 403.363927 
L 261.133362 403.452294 
L 261.654756 402.350115 
L 262.17615 403.140599 
L 262.697543 405.234096 
L 263.218937 403.563154 
L 263.740331 404.119064 
L 264.261725 402.587903 
L 264.783119 404.552866 
L 265.304512 404.527159 
L 265.825906 403.919836 
L 266.3473 402.478649 
L 267.390088 405.590777 
L 267.911481 404.6573 
L 268.432875 404.454859 
L 268.954269 403.871636 
L 269.475663 402.74857 
L 269.997057 402.673057 
L 270.51845 401.548385 
L 271.039844 401.826339 
L 271.561238 400.870368 
L 272.082632 403.99053 
L 272.604026 403.335007 
L 273.12542 403.012065 
L 273.646813 408.739859 
L 274.168207 410.484708 
L 274.689601 410.714462 
L 275.210995 410.696789 
L 275.732389 409.514276 
L 276.253782 409.658877 
L 276.775176 411.958028 
L 277.817964 411.361952 
L 278.339358 409.893452 
L 278.860751 409.311835 
L 279.382145 410.383487 
L 279.903539 410.25656 
L 280.424933 409.798658 
L 280.946327 408.612932 
L 281.46772 410.736956 
L 281.989114 410.603602 
L 282.510508 410.600388 
L 283.031902 409.797051 
L 283.553296 408.547058 
L 284.07469 410.608422 
L 284.596083 411.047044 
L 285.117477 408.847507 
L 285.638871 407.599121 
L 286.160265 408.675592 
L 286.681659 410.854243 
L 287.203052 410.341714 
L 287.724446 410.380274 
L 288.24584 409.004961 
L 288.767234 409.903092 
L 289.288628 410.274233 
L 289.810021 415.184231 
L 290.331415 415.023563 
L 290.852809 413.196774 
L 291.374203 417.023873 
L 291.895597 413.678777 
L 292.41699 413.346195 
L 292.938384 411.673647 
L 293.459778 412.065675 
L 293.981172 411.324999 
L 294.502566 411.858414 
L 295.02396 415.643739 
L 295.545353 414.033852 
L 296.066747 417.216674 
L 296.588141 417.173294 
L 297.109535 413.040927 
L 297.630929 412.99112 
L 298.152322 411.972488 
L 298.673716 412.211883 
L 299.19511 411.770047 
L 299.716504 411.554753 
L 300.237898 410.115173 
L 300.759291 411.834314 
L 301.802079 411.225385 
L 302.323473 409.663697 
L 302.844867 409.111001 
L 303.36626 411.776474 
L 303.887654 411.905008 
L 304.409048 409.602644 
L 304.930442 409.258815 
L 305.97323 411.067931 
L 306.494623 410.454181 
L 307.016017 410.425261 
L 307.537411 409.133495 
L 308.058805 412.081742 
L 308.580199 412.044789 
L 309.622986 412.176536 
L 310.14438 411.361952 
L 310.665774 413.802491 
L 311.187168 413.770357 
L 311.708561 412.914 
L 312.229955 411.426219 
L 313.272743 414.078839 
L 313.794137 413.344588 
L 314.31553 410.807649 
L 314.836924 410.073399 
L 315.358318 413.071454 
L 315.879712 413.153394 
L 316.401106 410.394734 
L 316.9225 409.52713 
L 317.443893 409.660484 
L 317.965287 411.675254 
L 318.486681 411.834314 
L 319.008075 411.753981 
L 319.529469 410.359387 
L 320.050862 412.475377 
L 320.572256 411.57082 
L 321.09365 423.492344 
L 322.136438 418.305999 
L 322.657831 416.591677 
L 323.179225 416.413336 
L 323.700619 411.117738 
L 324.222013 411.423006 
L 324.743407 410.497561 
L 325.2648 410.929757 
L 325.786194 411.080784 
L 326.307588 408.368718 
L 326.828982 408.355864 
L 327.350376 405.156975 
L 327.87177 405.216422 
L 328.914557 402.531669 
L 329.435951 402.836937 
L 329.957345 407.173352 
L 331.000132 406.112947 
L 331.521526 405.158582 
L 332.04292 409.435549 
L 332.564314 410.078219 
L 333.085708 409.792231 
L 333.607101 408.624179 
L 334.128495 408.437805 
L 334.649889 409.991459 
L 335.171283 410.206753 
L 335.692677 409.318262 
L 336.21407 408.069876 
L 336.735464 407.844942 
L 337.256858 408.79288 
L 337.778252 408.905347 
L 338.299646 409.458043 
L 338.82104 406.995011 
L 339.342433 411.302505 
L 339.863827 411.108097 
L 340.385221 411.056684 
L 340.906615 410.695182 
L 341.428009 409.523916 
L 341.949402 413.882824 
L 342.470796 413.575949 
L 342.99219 411.040617 
L 343.513584 411.220565 
L 344.034978 410.953857 
L 344.556371 412.29543 
L 345.077765 411.898581 
L 345.599159 412.33881 
L 346.120553 411.159511 
L 346.641947 414.249146 
L 347.16334 413.415282 
L 347.684734 413.254615 
L 348.206128 411.996588 
L 348.727522 412.048002 
L 349.77031 412.873833 
L 350.291703 411.718634 
L 350.813097 410.163373 
L 351.334491 412.849733 
L 351.855885 412.960593 
L 352.377279 412.125122 
L 352.898672 412.346843 
L 353.420066 411.294472 
L 353.94146 412.860979 
L 354.462854 412.264903 
L 354.984248 412.605518 
L 355.505641 411.562786 
L 356.027035 412.001408 
L 356.548429 414.954476 
L 357.069823 414.517461 
L 357.591217 412.544464 
L 358.11261 412.064069 
L 358.634004 414.135072 
L 359.155398 414.215406 
L 359.676792 418.749441 
L 360.198186 417.785436 
L 360.71958 417.075286 
L 361.240973 415.887954 
L 361.762367 414.994643 
L 362.283761 410.765876 
L 362.805155 410.655015 
L 363.326549 410.912083 
L 363.847942 411.744341 
L 364.369336 411.490486 
L 364.89073 410.492741 
L 365.412124 410.243707 
L 365.933518 412.149223 
L 366.454911 412.195816 
L 366.976305 412.481804 
L 367.497699 410.86549 
L 368.019093 411.307325 
L 368.540487 413.833017 
L 369.06188 413.118047 
L 369.583274 411.718634 
L 370.104668 411.090424 
L 370.626062 414.091692 
L 371.147456 413.384755 
L 371.66885 413.601656 
L 372.190243 411.929108 
L 372.711637 412.467344 
L 373.233031 414.906276 
L 374.275819 411.212531 
L 374.797212 411.223778 
L 375.318606 412.949346 
L 375.84 411.994982 
L 376.361394 412.113876 
L 376.882788 411.074357 
L 377.404181 410.510415 
L 377.925575 413.150181 
L 378.446969 413.566309 
L 378.968363 413.257828 
L 379.489757 412.072102 
L 380.01115 412.799926 
L 380.532544 414.29092 
L 381.053938 413.887644 
L 381.575332 411.255912 
L 382.096726 411.988555 
L 382.61812 415.041237 
L 383.139513 415.291878 
L 384.182301 414.512641 
L 384.703695 413.108407 
L 385.225089 414.125432 
L 386.267876 413.089127 
L 386.78927 411.087211 
L 387.310664 412.94292 
L 387.832058 413.505256 
L 388.353451 412.94292 
L 388.874845 412.896326 
L 389.396239 412.517151 
L 389.917633 412.502691 
L 390.439027 413.023253 
L 390.96042 412.885079 
L 391.481814 413.198381 
L 392.003208 411.566 
L 392.524602 414.564054 
L 393.045996 414.761675 
L 393.56739 413.630576 
L 394.610177 413.746257 
L 395.131571 415.425232 
L 395.652965 415.304731 
L 396.174359 413.322095 
L 396.695752 413.299601 
L 397.217146 417.706709 
L 397.73854 417.446428 
L 398.259934 417.031906 
L 398.781328 415.520026 
L 399.302721 416.45993 
L 400.345509 412.674605 
L 400.866903 413.471516 
L 401.388297 412.473771 
L 401.90969 415.062123 
L 402.952478 415.16013 
L 403.473872 415.450939 
L 403.995266 414.893422 
L 404.51666 416.178762 
L 405.038053 415.71604 
L 405.559447 416.096822 
L 406.080841 413.963158 
L 407.123629 417.356454 
L 407.645022 417.007806 
L 408.166416 415.905627 
L 408.68781 415.611606 
L 409.209204 417.036726 
L 409.730598 417.023873 
L 410.251991 415.283844 
L 410.773385 414.438734 
L 411.294779 413.206414 
L 411.816173 417.396621 
L 412.337567 416.384416 
L 412.85896 422.412659 
L 413.380354 421.151419 
L 413.901748 421.422947 
L 414.423142 422.960535 
L 414.944536 422.888234 
L 415.46593 422.695434 
L 415.987323 420.280602 
L 416.508717 422.067224 
L 417.030111 422.420692 
L 418.072899 419.565632 
L 419.115686 424.000053 
L 419.63708 423.784759 
L 420.158474 423.36381 
L 420.679868 422.250385 
L 421.201261 423.042475 
L 422.765443 421.590042 
L 423.286837 420.132788 
L 423.80823 423.640158 
L 424.851018 423.545364 
L 425.372412 422.343572 
L 425.893806 420.524816 
L 426.4152 423.466637 
L 426.936593 423.201536 
L 427.457987 422.149164 
L 427.979381 420.524816 
L 428.500775 422.713107 
L 429.022169 427.955686 
L 429.543562 427.888205 
L 430.064956 426.598046 
L 430.58635 422.401412 
L 431.107744 424.012907 
L 431.629138 422.891448 
L 432.150531 422.748454 
L 432.671925 420.359329 
L 433.193319 423.074609 
L 433.714713 428.882737 
L 434.236107 428.561402 
L 434.7575 428.579075 
L 435.278894 427.235896 
L 435.800288 423.280263 
L 436.321682 423.41201 
L 436.843076 423.424864 
L 437.36447 421.763562 
L 437.885863 427.255176 
L 438.407257 430.825206 
L 438.928651 430.92 
L 439.450045 426.848687 
L 439.971439 424.575243 
L 440.492832 425.385007 
L 441.014226 424.602556 
L 441.53562 424.120554 
L 442.057014 422.968568 
L 442.578408 422.901088 
L 443.099801 424.894971 
L 443.621195 423.199929 
L 444.142589 422.942861 
L 444.663983 422.118637 
L 445.185377 424.233021 
L 445.70677 424.125374 
L 446.228164 423.685145 
L 446.749558 423.530904 
L 447.270952 422.778981 
L 447.792346 424.380835 
L 448.31374 424.922284 
L 448.835133 424.951204 
L 449.356527 424.019333 
L 449.877921 423.911686 
L 450.399315 423.269016 
L 450.920709 422.918761 
L 451.442102 421.27192 
L 451.963496 421.312087 
L 452.48489 425.208272 
L 453.006284 425.278966 
L 453.527678 425.086165 
L 454.049071 423.476277 
L 454.570465 423.791186 
L 455.091859 423.926146 
L 455.613253 423.31079 
L 456.134647 421.998137 
L 456.65604 422.04955 
L 457.177434 425.651715 
L 457.698828 424.244268 
L 458.220222 423.736559 
L 458.741616 423.707638 
L 459.26301 422.370885 
L 459.784403 423.930966 
L 460.305797 423.681932 
L 460.827191 422.309832 
L 461.348585 422.117031 
L 461.869979 423.018375 
L 462.391372 425.142399 
L 462.912766 424.751977 
L 463.43416 424.71181 
L 463.955554 423.309183 
L 464.476948 423.656225 
L 465.519735 423.058542 
L 466.041129 421.400454 
L 466.562523 421.691262 
L 467.083917 423.580711 
L 467.60531 422.184511 
L 468.126704 420.463763 
L 468.648098 420.57623 
L 469.169492 423.092282 
L 470.21228 423.513231 
L 470.733673 422.986242 
L 471.255067 422.110604 
L 471.776461 425.270933 
L 472.297855 423.590351 
L 472.819249 423.9872 
L 473.340642 422.369279 
L 473.862036 421.86639 
L 474.38343 423.40237 
L 474.904824 423.514838 
L 475.426218 422.835214 
L 475.947611 421.795696 
L 476.469005 423.881159 
L 476.990399 423.768692 
L 477.511793 423.236883 
L 478.033187 422.897875 
L 478.55458 422.290552 
L 479.075974 425.662961 
L 480.118762 422.229498 
L 480.640156 422.04473 
L 481.16155 423.611238 
L 481.682943 424.162327 
L 482.204337 423.40237 
L 482.725731 423.055329 
L 483.247125 421.789269 
L 483.768519 420.920058 
L 484.289912 421.439014 
L 484.811306 420.923272 
L 485.3327 418.60966 
L 485.854094 419.96248 
L 486.375488 421.887276 
L 486.896881 421.729822 
L 487.418275 421.445441 
L 487.939669 420.287029 
L 488.461063 422.446399 
L 488.982457 422.949288 
L 489.50385 421.961183 
L 490.025244 421.583615 
L 490.546638 420.492683 
L 491.068032 422.647233 
L 491.589426 420.875071 
L 492.11082 420.64853 
L 492.632213 419.396931 
L 493.153607 421.104826 
L 493.675001 421.467934 
L 494.196395 421.21408 
L 494.717789 421.337794 
L 495.239182 419.543138 
L 495.760576 423.365417 
L 496.28197 422.915548 
L 496.803364 422.804687 
L 497.846151 419.168783 
L 498.367545 426.7796 
L 498.888939 425.921636 
L 499.410333 426.297598 
L 499.931727 420.148855 
L 500.45312 420.417169 
L 500.974514 421.667162 
L 501.495908 421.710542 
L 502.017302 421.029312 
L 502.538696 419.93838 
L 503.06009 421.998137 
L 503.581483 421.625388 
L 504.102877 418.341346 
L 504.624271 418.448993 
L 505.145665 418.913322 
L 505.667059 420.48947 
L 506.188452 419.371224 
L 506.709846 419.374437 
L 507.23124 418.757474 
L 507.752634 420.060487 
L 508.274028 419.670066 
L 508.795421 418.248159 
L 509.316815 418.330099 
L 509.838209 417.374128 
L 510.359603 420.346476 
L 510.880997 420.270962 
L 511.402391 419.734333 
L 511.923784 419.615439 
L 512.445178 427.492963 
L 513.487966 427.920339 
L 514.00936 427.825545 
L 514.530753 426.475939 
L 515.052147 428.048873 
L 515.573541 428.448935 
L 516.094935 426.565912 
L 517.137722 425.017078 
L 517.659116 427.936406 
L 518.18051 427.208582 
L 518.701904 426.234937 
L 519.223298 426.169064 
L 519.744691 429.702141 
L 520.266085 428.347714 
L 520.787479 428.357354 
L 521.308873 428.853817 
L 521.830267 426.242971 
L 522.351661 427.529917 
L 522.873054 426.408458 
L 523.915842 423.540544 
L 524.437236 424.234628 
L 524.95863 425.788282 
L 525.480023 426.295991 
L 526.522811 424.170361 
L 527.044205 426.295991 
L 527.565599 425.082952 
L 528.086992 424.964058 
L 528.608386 423.627305 
L 529.12978 424.491696 
L 529.651174 426.206017 
L 530.172568 426.949907 
L 530.693961 426.639819 
L 531.215355 425.492654 
L 531.736749 424.875691 
L 532.258143 425.232372 
L 532.779537 423.829746 
L 533.300931 421.932263 
L 533.822324 421.408487 
L 534.343718 424.483662 
L 534.865112 424.62023 
L 535.386506 424.216954 
L 535.9079 423.254556 
L 536.429293 423.158156 
L 536.950687 424.939958 
L 537.472081 424.504549 
L 537.993475 422.883414 
L 538.514869 422.052764 
L 539.036262 423.608025 
L 539.557656 422.61028 
L 540.07905 421.921016 
L 540.600444 420.791524 
L 541.121838 420.849365 
L 541.643231 423.41683 
L 542.686019 420.242042 
L 543.207413 419.988187 
L 543.728807 423.153336 
L 544.250201 423.881159 
L 544.771594 423.458604 
L 545.292988 421.463114 
L 545.814382 421.111253 
L 546.335776 423.058542 
L 546.85717 423.013555 
L 547.378563 422.245565 
L 547.899957 420.730471 
L 548.421351 421.230146 
L 548.942745 422.587786 
L 549.464139 422.817541 
L 549.985532 422.846461 
L 550.506926 421.729822 
L 551.02832 423.686752 
L 551.549714 422.166838 
L 552.071108 422.547619 
L 552.592501 422.481746 
L 553.113895 420.137608 
L 553.635289 423.376664 
L 554.156683 423.42165 
L 555.199471 421.614142 
L 555.720864 421.863176 
L 556.242258 423.840992 
L 556.763652 422.210218 
L 557.285046 422.403019 
L 557.80644 421.459901 
L 558.327833 424.147867 
L 558.849227 423.501984 
L 559.892015 421.125713 
L 560.413409 420.198661 
L 560.934802 419.581698 
L 561.97759 417.75973 
L 562.498984 416.333003 
L 563.020378 419.877327 
L 563.541771 419.586519 
L 564.063165 418.41686 
L 564.584559 417.74527 
L 565.105953 416.731458 
L 565.627347 417.139553 
L 566.148741 416.872845 
L 566.670134 417.448035 
L 567.191528 416.627024 
L 567.712922 422.296978 
L 568.234316 422.997488 
L 568.75571 422.995882 
L 569.277103 418.367053 
L 569.798497 416.707358 
L 570.319891 418.633761 
L 570.841285 418.664287 
L 571.362679 416.895339 
L 571.884072 415.945794 
L 572.405466 420.360936 
L 572.92686 422.912335 
L 573.448254 422.999095 
L 573.969648 422.266451 
L 574.491041 418.016798 
L 575.012435 419.393718 
L 575.533829 417.292187 
L 576.576617 415.09747 
L 577.098011 414.800235 
L 577.619404 417.582995 
L 578.140798 417.423935 
L 578.662192 417.454462 
L 579.183586 416.344249 
L 579.70498 416.871239 
L 580.226373 416.733065 
L 580.747767 415.963468 
L 581.269161 414.97697 
L 581.790555 413.392789 
L 582.311949 416.54669 
L 582.833342 417.065646 
L 583.87613 414.753642 
L 584.397524 414.853256 
L 584.918918 417.422328 
L 585.440311 415.553766 
L 585.961705 414.699015 
L 586.483099 414.462834 
L 587.004493 415.830114 
L 587.525887 417.621556 
L 588.047281 417.441608 
L 588.568674 416.818218 
L 589.090068 414.061165 
L 589.611462 416.663978 
L 590.132856 416.643091 
L 590.65425 416.225356 
L 591.175643 414.527101 
L 591.697037 415.992388 
L 592.218431 416.35389 
L 592.739825 414.547987 
L 593.261219 414.294133 
L 593.782612 412.799926 
L 594.304006 416.453503 
L 594.8254 416.125742 
L 595.346794 415.582686 
L 595.868188 416.108068 
L 596.389581 415.156917 
L 596.910975 416.403696 
L 597.953763 416.403696 
L 598.475157 413.630576 
L 598.996551 414.448374 
L 599.517944 413.156607 
L 600.039338 412.41593 
L 600.560732 408.90374 
L 601.082126 408.694872 
L 601.60352 411.721847 
L 602.124913 411.879301 
L 602.646307 410.052512 
L 603.167701 408.657919 
L 603.689095 409.58497 
L 604.210489 411.858414 
L 604.731882 411.455139 
L 605.253276 409.779378 
L 605.77467 410.084646 
L 606.296064 411.65758 
L 606.817458 411.823068 
L 607.860245 411.066324 
L 608.381639 410.28066 
L 608.903033 413.808917 
L 609.945821 412.547678 
L 610.467214 409.808298 
L 610.988608 409.361642 
L 611.510002 410.722496 
L 612.031396 410.507201 
L 612.55279 409.088508 
L 613.074183 408.093976 
L 613.595577 410.410801 
L 614.116971 410.372241 
L 614.638365 409.226682 
L 615.159759 407.679454 
L 615.681152 408.331764 
L 616.202546 407.192632 
L 616.72394 407.284212 
L 617.245334 406.866477 
L 617.766728 405.629338 
L 618.288121 409.729571 
L 618.809515 409.504636 
L 619.330909 408.8941 
L 619.330909 408.8941 
" style="fill:none;stroke:#1f77b4;stroke-linecap:square;stroke-width:1.5;"/>
   </g>
   <g id="patch_3">
    <path d="M 108 448.56 
L 108 60.48 
" style="fill:none;stroke:#000000;stroke-linecap:square;stroke-linejoin:miter;stroke-width:0.8;"/>
   </g>
   <g id="patch_4">
    <path d="M 643.68 448.56 
L 643.68 60.48 
" style="fill:none;stroke:#000000;stroke-linecap:square;stroke-linejoin:miter;stroke-width:0.8;"/>
   </g>
   <g id="patch_5">
    <path d="M 108 448.56 
L 643.68 448.56 
" style="fill:none;stroke:#000000;stroke-linecap:square;stroke-linejoin:miter;stroke-width:0.8;"/>
   </g>
   <g id="patch_6">
    <path d="M 108 60.48 
L 643.68 60.48 
" style="fill:none;stroke:#000000;stroke-linecap:square;stroke-linejoin:miter;stroke-width:0.8;"/>
   </g>
   <g id="text_29">
    <!-- unikernel_falloc - vmstat -->
    <g transform="translate(283.693125 54.48)scale(0.15 -0.15)">
     <defs>
      <path d="M 8.5 21.578125 
L 8.5 54.6875 
L 17.484375 54.6875 
L 17.484375 21.921875 
Q 17.484375 14.15625 20.5 10.265625 
Q 23.53125 6.390625 29.59375 6.390625 
Q 36.859375 6.390625 41.078125 11.03125 
Q 45.3125 15.671875 45.3125 23.6875 
L 45.3125 54.6875 
L 54.296875 54.6875 
L 54.296875 0 
L 45.3125 0 
L 45.3125 8.40625 
Q 42.046875 3.421875 37.71875 1 
Q 33.40625 -1.421875 27.6875 -1.421875 
Q 18.265625 -1.421875 13.375 4.4375 
Q 8.5 10.296875 8.5 21.578125 
z
M 31.109375 56 
z
" id="DejaVuSans-117"/>
      <path d="M 54.890625 33.015625 
L 54.890625 0 
L 45.90625 0 
L 45.90625 32.71875 
Q 45.90625 40.484375 42.875 44.328125 
Q 39.84375 48.1875 33.796875 48.1875 
Q 26.515625 48.1875 22.3125 43.546875 
Q 18.109375 38.921875 18.109375 30.90625 
L 18.109375 0 
L 9.078125 0 
L 9.078125 54.6875 
L 18.109375 54.6875 
L 18.109375 46.1875 
Q 21.34375 51.125 25.703125 53.5625 
Q 30.078125 56 35.796875 56 
Q 45.21875 56 50.046875 50.171875 
Q 54.890625 44.34375 54.890625 33.015625 
z
" id="DejaVuSans-110"/>
      <path d="M 9.078125 75.984375 
L 18.109375 75.984375 
L 18.109375 31.109375 
L 44.921875 54.6875 
L 56.390625 54.6875 
L 27.390625 29.109375 
L 57.625 0 
L 45.90625 0 
L 18.109375 26.703125 
L 18.109375 0 
L 9.078125 0 
z
" id="DejaVuSans-107"/>
      <path d="M 41.109375 46.296875 
Q 39.59375 47.171875 37.8125 47.578125 
Q 36.03125 48 33.890625 48 
Q 26.265625 48 22.1875 43.046875 
Q 18.109375 38.09375 18.109375 28.8125 
L 18.109375 0 
L 9.078125 0 
L 9.078125 54.6875 
L 18.109375 54.6875 
L 18.109375 46.1875 
Q 20.953125 51.171875 25.484375 53.578125 
Q 30.03125 56 36.53125 56 
Q 37.453125 56 38.578125 55.875 
Q 39.703125 55.765625 41.0625 55.515625 
z
" id="DejaVuSans-114"/>
      <path d="M 9.421875 75.984375 
L 18.40625 75.984375 
L 18.40625 0 
L 9.421875 0 
z
" id="DejaVuSans-108"/>
      <path d="M 50.984375 -16.609375 
L 50.984375 -23.578125 
L -0.984375 -23.578125 
L -0.984375 -16.609375 
z
" id="DejaVuSans-95"/>
      <path d="M 37.109375 75.984375 
L 37.109375 68.5 
L 28.515625 68.5 
Q 23.6875 68.5 21.796875 66.546875 
Q 19.921875 64.59375 19.921875 59.515625 
L 19.921875 54.6875 
L 34.71875 54.6875 
L 34.71875 47.703125 
L 19.921875 47.703125 
L 19.921875 0 
L 10.890625 0 
L 10.890625 47.703125 
L 2.296875 47.703125 
L 2.296875 54.6875 
L 10.890625 54.6875 
L 10.890625 58.5 
Q 10.890625 67.625 15.140625 71.796875 
Q 19.390625 75.984375 28.609375 75.984375 
z
" id="DejaVuSans-102"/>
      <path d="M 30.609375 48.390625 
Q 23.390625 48.390625 19.1875 42.75 
Q 14.984375 37.109375 14.984375 27.296875 
Q 14.984375 17.484375 19.15625 11.84375 
Q 23.34375 6.203125 30.609375 6.203125 
Q 37.796875 6.203125 41.984375 11.859375 
Q 46.1875 17.53125 46.1875 27.296875 
Q 46.1875 37.015625 41.984375 42.703125 
Q 37.796875 48.390625 30.609375 48.390625 
z
M 30.609375 56 
Q 42.328125 56 49.015625 48.375 
Q 55.71875 40.765625 55.71875 27.296875 
Q 55.71875 13.875 49.015625 6.21875 
Q 42.328125 -1.421875 30.609375 -1.421875 
Q 18.84375 -1.421875 12.171875 6.21875 
Q 5.515625 13.875 5.515625 27.296875 
Q 5.515625 40.765625 12.171875 48.375 
Q 18.84375 56 30.609375 56 
z
" id="DejaVuSans-111"/>
      <path d="M 48.78125 52.59375 
L 48.78125 44.1875 
Q 44.96875 46.296875 41.140625 47.34375 
Q 37.3125 48.390625 33.40625 48.390625 
Q 24.65625 48.390625 19.8125 42.84375 
Q 14.984375 37.3125 14.984375 27.296875 
Q 14.984375 17.28125 19.8125 11.734375 
Q 24.65625 6.203125 33.40625 6.203125 
Q 37.3125 6.203125 41.140625 7.25 
Q 44.96875 8.296875 48.78125 10.40625 
L 48.78125 2.09375 
Q 45.015625 0.34375 40.984375 -0.53125 
Q 36.96875 -1.421875 32.421875 -1.421875 
Q 20.0625 -1.421875 12.78125 6.34375 
Q 5.515625 14.109375 5.515625 27.296875 
Q 5.515625 40.671875 12.859375 48.328125 
Q 20.21875 56 33.015625 56 
Q 37.15625 56 41.109375 55.140625 
Q 45.0625 54.296875 48.78125 52.59375 
z
" id="DejaVuSans-99"/>
      <path id="DejaVuSans-32"/>
      <path d="M 4.890625 31.390625 
L 31.203125 31.390625 
L 31.203125 23.390625 
L 4.890625 23.390625 
z
" id="DejaVuSans-45"/>
      <path d="M 2.984375 54.6875 
L 12.5 54.6875 
L 29.59375 8.796875 
L 46.6875 54.6875 
L 56.203125 54.6875 
L 35.6875 0 
L 23.484375 0 
z
" id="DejaVuSans-118"/>
     </defs>
     <use xlink:href="#DejaVuSans-117"/>
     <use x="63.378906" xlink:href="#DejaVuSans-110"/>
     <use x="126.757812" xlink:href="#DejaVuSans-105"/>
     <use x="154.541016" xlink:href="#DejaVuSans-107"/>
     <use x="208.826172" xlink:href="#DejaVuSans-101"/>
     <use x="270.349609" xlink:href="#DejaVuSans-114"/>
     <use x="309.712891" xlink:href="#DejaVuSans-110"/>
     <use x="373.091797" xlink:href="#DejaVuSans-101"/>
     <use x="434.615234" xlink:href="#DejaVuSans-108"/>
     <use x="462.398438" xlink:href="#DejaVuSans-95"/>
     <use x="512.398438" xlink:href="#DejaVuSans-102"/>
     <use x="547.603516" xlink:href="#DejaVuSans-97"/>
     <use x="608.882812" xlink:href="#DejaVuSans-108"/>
     <use x="636.666016" xlink:href="#DejaVuSans-108"/>
     <use x="664.449219" xlink:href="#DejaVuSans-111"/>
     <use x="725.630859" xlink:href="#DejaVuSans-99"/>
     <use x="780.611328" xlink:href="#DejaVuSans-32"/>
     <use x="812.398438" xlink:href="#DejaVuSans-45"/>
     <use x="848.482422" xlink:href="#DejaVuSans-32"/>
     <use x="880.269531" xlink:href="#DejaVuSans-118"/>
     <use x="939.449219" xlink:href="#DejaVuSans-109"/>
     <use x="1036.861328" xlink:href="#DejaVuSans-115"/>
     <use x="1088.960938" xlink:href="#DejaVuSans-116"/>
     <use x="1128.169922" xlink:href="#DejaVuSans-97"/>
     <use x="1189.449219" xlink:href="#DejaVuSans-116"/>
    </g>
   </g>
   <g id="legend_1">
    <g id="patch_7">
     <path d="M 650.68 258.52 
L 654.68 258.52 
Q 656.68 258.52 656.68 256.52 
L 656.68 252.52 
Q 656.68 250.52 654.68 250.52 
L 650.68 250.52 
Q 648.68 250.52 648.68 252.52 
L 648.68 256.52 
Q 648.68 258.52 650.68 258.52 
z
" style="fill:#ffffff;opacity:0.8;stroke:#cccccc;stroke-linejoin:miter;"/>
    </g>
   </g>
  </g>
 </g>
 <defs>
  <clipPath id="pcdfed6a084">
   <rect height="388.08" width="535.68" x="108" y="60.48"/>
  </clipPath>
 </defs>
</svg>
