<?xml version="1.0" encoding="utf-8" standalone="no"?>
<!DOCTYPE svg PUBLIC "-//W3C//DTD SVG 1.1//EN"
  "http://www.w3.org/Graphics/SVG/1.1/DTD/svg11.dtd">
<!-- Created with matplotlib (https://matplotlib.org/) -->
<svg height="504pt" version="1.1" viewBox="0 0 864 504" width="864pt" xmlns="http://www.w3.org/2000/svg" xmlns:xlink="http://www.w3.org/1999/xlink">
 <metadata>
  <rdf:RDF xmlns:cc="http://creativecommons.org/ns#" xmlns:dc="http://purl.org/dc/elements/1.1/" xmlns:rdf="http://www.w3.org/1999/02/22-rdf-syntax-ns#">
   <cc:Work>
    <dc:type rdf:resource="http://purl.org/dc/dcmitype/StillImage"/>
    <dc:date>2022-05-29T17:27:37.171969</dc:date>
    <dc:format>image/svg+xml</dc:format>
    <dc:creator>
     <cc:Agent>
      <dc:title>Matplotlib v3.3.4, https://matplotlib.org/</dc:title>
     </cc:Agent>
    </dc:creator>
   </cc:Work>
  </rdf:RDF>
 </metadata>
 <defs>
  <style type="text/css">*{stroke-linecap:butt;stroke-linejoin:round;}</style>
 </defs>
 <g id="figure_1">
  <g id="patch_1">
   <path d="M 0 504 
L 864 504 
L 864 0 
L 0 0 
z
" style="fill:#ffffff;"/>
  </g>
  <g id="axes_1">
   <g id="patch_2">
    <path d="M 108 448.56 
L 643.68 448.56 
L 643.68 60.48 
L 108 60.48 
z
" style="fill:#ffffff;"/>
   </g>
   <g id="matplotlib.axis_1">
    <g id="xtick_1">
     <g id="line2d_1">
      <defs>
       <path d="M 0 0 
L 0 3.5 
" id="mff2f6b3b86" style="stroke:#000000;stroke-width:0.8;"/>
      </defs>
      <g>
       <use style="stroke:#000000;stroke-width:0.8;" x="132.349091" xlink:href="#mff2f6b3b86" y="448.56"/>
      </g>
     </g>
     <g id="text_1">
      <!-- 00:12:56 -->
      <g transform="translate(135.108466 500.4725)rotate(-90)scale(0.1 -0.1)">
       <defs>
        <path d="M 31.78125 66.40625 
Q 24.171875 66.40625 20.328125 58.90625 
Q 16.5 51.421875 16.5 36.375 
Q 16.5 21.390625 20.328125 13.890625 
Q 24.171875 6.390625 31.78125 6.390625 
Q 39.453125 6.390625 43.28125 13.890625 
Q 47.125 21.390625 47.125 36.375 
Q 47.125 51.421875 43.28125 58.90625 
Q 39.453125 66.40625 31.78125 66.40625 
z
M 31.78125 74.21875 
Q 44.046875 74.21875 50.515625 64.515625 
Q 56.984375 54.828125 56.984375 36.375 
Q 56.984375 17.96875 50.515625 8.265625 
Q 44.046875 -1.421875 31.78125 -1.421875 
Q 19.53125 -1.421875 13.0625 8.265625 
Q 6.59375 17.96875 6.59375 36.375 
Q 6.59375 54.828125 13.0625 64.515625 
Q 19.53125 74.21875 31.78125 74.21875 
z
" id="DejaVuSans-48"/>
        <path d="M 11.71875 12.40625 
L 22.015625 12.40625 
L 22.015625 0 
L 11.71875 0 
z
M 11.71875 51.703125 
L 22.015625 51.703125 
L 22.015625 39.3125 
L 11.71875 39.3125 
z
" id="DejaVuSans-58"/>
        <path d="M 12.40625 8.296875 
L 28.515625 8.296875 
L 28.515625 63.921875 
L 10.984375 60.40625 
L 10.984375 69.390625 
L 28.421875 72.90625 
L 38.28125 72.90625 
L 38.28125 8.296875 
L 54.390625 8.296875 
L 54.390625 0 
L 12.40625 0 
z
" id="DejaVuSans-49"/>
        <path d="M 19.1875 8.296875 
L 53.609375 8.296875 
L 53.609375 0 
L 7.328125 0 
L 7.328125 8.296875 
Q 12.9375 14.109375 22.625 23.890625 
Q 32.328125 33.6875 34.8125 36.53125 
Q 39.546875 41.84375 41.421875 45.53125 
Q 43.3125 49.21875 43.3125 52.78125 
Q 43.3125 58.59375 39.234375 62.25 
Q 35.15625 65.921875 28.609375 65.921875 
Q 23.96875 65.921875 18.8125 64.3125 
Q 13.671875 62.703125 7.8125 59.421875 
L 7.8125 69.390625 
Q 13.765625 71.78125 18.9375 73 
Q 24.125 74.21875 28.421875 74.21875 
Q 39.75 74.21875 46.484375 68.546875 
Q 53.21875 62.890625 53.21875 53.421875 
Q 53.21875 48.921875 51.53125 44.890625 
Q 49.859375 40.875 45.40625 35.40625 
Q 44.1875 33.984375 37.640625 27.21875 
Q 31.109375 20.453125 19.1875 8.296875 
z
" id="DejaVuSans-50"/>
        <path d="M 10.796875 72.90625 
L 49.515625 72.90625 
L 49.515625 64.59375 
L 19.828125 64.59375 
L 19.828125 46.734375 
Q 21.96875 47.46875 24.109375 47.828125 
Q 26.265625 48.1875 28.421875 48.1875 
Q 40.625 48.1875 47.75 41.5 
Q 54.890625 34.8125 54.890625 23.390625 
Q 54.890625 11.625 47.5625 5.09375 
Q 40.234375 -1.421875 26.90625 -1.421875 
Q 22.3125 -1.421875 17.546875 -0.640625 
Q 12.796875 0.140625 7.71875 1.703125 
L 7.71875 11.625 
Q 12.109375 9.234375 16.796875 8.0625 
Q 21.484375 6.890625 26.703125 6.890625 
Q 35.15625 6.890625 40.078125 11.328125 
Q 45.015625 15.765625 45.015625 23.390625 
Q 45.015625 31 40.078125 35.4375 
Q 35.15625 39.890625 26.703125 39.890625 
Q 22.75 39.890625 18.8125 39.015625 
Q 14.890625 38.140625 10.796875 36.28125 
z
" id="DejaVuSans-53"/>
        <path d="M 33.015625 40.375 
Q 26.375 40.375 22.484375 35.828125 
Q 18.609375 31.296875 18.609375 23.390625 
Q 18.609375 15.53125 22.484375 10.953125 
Q 26.375 6.390625 33.015625 6.390625 
Q 39.65625 6.390625 43.53125 10.953125 
Q 47.40625 15.53125 47.40625 23.390625 
Q 47.40625 31.296875 43.53125 35.828125 
Q 39.65625 40.375 33.015625 40.375 
z
M 52.59375 71.296875 
L 52.59375 62.3125 
Q 48.875 64.0625 45.09375 64.984375 
Q 41.3125 65.921875 37.59375 65.921875 
Q 27.828125 65.921875 22.671875 59.328125 
Q 17.53125 52.734375 16.796875 39.40625 
Q 19.671875 43.65625 24.015625 45.921875 
Q 28.375 48.1875 33.59375 48.1875 
Q 44.578125 48.1875 50.953125 41.515625 
Q 57.328125 34.859375 57.328125 23.390625 
Q 57.328125 12.15625 50.6875 5.359375 
Q 44.046875 -1.421875 33.015625 -1.421875 
Q 20.359375 -1.421875 13.671875 8.265625 
Q 6.984375 17.96875 6.984375 36.375 
Q 6.984375 53.65625 15.1875 63.9375 
Q 23.390625 74.21875 37.203125 74.21875 
Q 40.921875 74.21875 44.703125 73.484375 
Q 48.484375 72.75 52.59375 71.296875 
z
" id="DejaVuSans-54"/>
       </defs>
       <use xlink:href="#DejaVuSans-48"/>
       <use x="63.623047" xlink:href="#DejaVuSans-48"/>
       <use x="127.246094" xlink:href="#DejaVuSans-58"/>
       <use x="160.9375" xlink:href="#DejaVuSans-49"/>
       <use x="224.560547" xlink:href="#DejaVuSans-50"/>
       <use x="288.183594" xlink:href="#DejaVuSans-58"/>
       <use x="321.875" xlink:href="#DejaVuSans-53"/>
       <use x="385.498047" xlink:href="#DejaVuSans-54"/>
      </g>
     </g>
    </g>
    <g id="xtick_2">
     <g id="line2d_2">
      <g>
       <use style="stroke:#000000;stroke-width:0.8;" x="156.476603" xlink:href="#mff2f6b3b86" y="448.56"/>
      </g>
     </g>
     <g id="text_2">
      <!-- 00:13:47 -->
      <g transform="translate(159.235978 500.4725)rotate(-90)scale(0.1 -0.1)">
       <defs>
        <path d="M 40.578125 39.3125 
Q 47.65625 37.796875 51.625 33 
Q 55.609375 28.21875 55.609375 21.1875 
Q 55.609375 10.40625 48.1875 4.484375 
Q 40.765625 -1.421875 27.09375 -1.421875 
Q 22.515625 -1.421875 17.65625 -0.515625 
Q 12.796875 0.390625 7.625 2.203125 
L 7.625 11.71875 
Q 11.71875 9.328125 16.59375 8.109375 
Q 21.484375 6.890625 26.8125 6.890625 
Q 36.078125 6.890625 40.9375 10.546875 
Q 45.796875 14.203125 45.796875 21.1875 
Q 45.796875 27.640625 41.28125 31.265625 
Q 36.765625 34.90625 28.71875 34.90625 
L 20.21875 34.90625 
L 20.21875 43.015625 
L 29.109375 43.015625 
Q 36.375 43.015625 40.234375 45.921875 
Q 44.09375 48.828125 44.09375 54.296875 
Q 44.09375 59.90625 40.109375 62.90625 
Q 36.140625 65.921875 28.71875 65.921875 
Q 24.65625 65.921875 20.015625 65.03125 
Q 15.375 64.15625 9.8125 62.3125 
L 9.8125 71.09375 
Q 15.4375 72.65625 20.34375 73.4375 
Q 25.25 74.21875 29.59375 74.21875 
Q 40.828125 74.21875 47.359375 69.109375 
Q 53.90625 64.015625 53.90625 55.328125 
Q 53.90625 49.265625 50.4375 45.09375 
Q 46.96875 40.921875 40.578125 39.3125 
z
" id="DejaVuSans-51"/>
        <path d="M 37.796875 64.3125 
L 12.890625 25.390625 
L 37.796875 25.390625 
z
M 35.203125 72.90625 
L 47.609375 72.90625 
L 47.609375 25.390625 
L 58.015625 25.390625 
L 58.015625 17.1875 
L 47.609375 17.1875 
L 47.609375 0 
L 37.796875 0 
L 37.796875 17.1875 
L 4.890625 17.1875 
L 4.890625 26.703125 
z
" id="DejaVuSans-52"/>
        <path d="M 8.203125 72.90625 
L 55.078125 72.90625 
L 55.078125 68.703125 
L 28.609375 0 
L 18.3125 0 
L 43.21875 64.59375 
L 8.203125 64.59375 
z
" id="DejaVuSans-55"/>
       </defs>
       <use xlink:href="#DejaVuSans-48"/>
       <use x="63.623047" xlink:href="#DejaVuSans-48"/>
       <use x="127.246094" xlink:href="#DejaVuSans-58"/>
       <use x="160.9375" xlink:href="#DejaVuSans-49"/>
       <use x="224.560547" xlink:href="#DejaVuSans-51"/>
       <use x="288.183594" xlink:href="#DejaVuSans-58"/>
       <use x="321.875" xlink:href="#DejaVuSans-52"/>
       <use x="385.498047" xlink:href="#DejaVuSans-55"/>
      </g>
     </g>
    </g>
    <g id="xtick_3">
     <g id="line2d_3">
      <g>
       <use style="stroke:#000000;stroke-width:0.8;" x="180.604114" xlink:href="#mff2f6b3b86" y="448.56"/>
      </g>
     </g>
     <g id="text_3">
      <!-- 00:14:39 -->
      <g transform="translate(183.363489 500.4725)rotate(-90)scale(0.1 -0.1)">
       <defs>
        <path d="M 10.984375 1.515625 
L 10.984375 10.5 
Q 14.703125 8.734375 18.5 7.8125 
Q 22.3125 6.890625 25.984375 6.890625 
Q 35.75 6.890625 40.890625 13.453125 
Q 46.046875 20.015625 46.78125 33.40625 
Q 43.953125 29.203125 39.59375 26.953125 
Q 35.25 24.703125 29.984375 24.703125 
Q 19.046875 24.703125 12.671875 31.3125 
Q 6.296875 37.9375 6.296875 49.421875 
Q 6.296875 60.640625 12.9375 67.421875 
Q 19.578125 74.21875 30.609375 74.21875 
Q 43.265625 74.21875 49.921875 64.515625 
Q 56.59375 54.828125 56.59375 36.375 
Q 56.59375 19.140625 48.40625 8.859375 
Q 40.234375 -1.421875 26.421875 -1.421875 
Q 22.703125 -1.421875 18.890625 -0.6875 
Q 15.09375 0.046875 10.984375 1.515625 
z
M 30.609375 32.421875 
Q 37.25 32.421875 41.125 36.953125 
Q 45.015625 41.5 45.015625 49.421875 
Q 45.015625 57.28125 41.125 61.84375 
Q 37.25 66.40625 30.609375 66.40625 
Q 23.96875 66.40625 20.09375 61.84375 
Q 16.21875 57.28125 16.21875 49.421875 
Q 16.21875 41.5 20.09375 36.953125 
Q 23.96875 32.421875 30.609375 32.421875 
z
" id="DejaVuSans-57"/>
       </defs>
       <use xlink:href="#DejaVuSans-48"/>
       <use x="63.623047" xlink:href="#DejaVuSans-48"/>
       <use x="127.246094" xlink:href="#DejaVuSans-58"/>
       <use x="160.9375" xlink:href="#DejaVuSans-49"/>
       <use x="224.560547" xlink:href="#DejaVuSans-52"/>
       <use x="288.183594" xlink:href="#DejaVuSans-58"/>
       <use x="321.875" xlink:href="#DejaVuSans-51"/>
       <use x="385.498047" xlink:href="#DejaVuSans-57"/>
      </g>
     </g>
    </g>
    <g id="xtick_4">
     <g id="line2d_4">
      <g>
       <use style="stroke:#000000;stroke-width:0.8;" x="204.731626" xlink:href="#mff2f6b3b86" y="448.56"/>
      </g>
     </g>
     <g id="text_4">
      <!-- 00:15:30 -->
      <g transform="translate(207.491001 500.4725)rotate(-90)scale(0.1 -0.1)">
       <use xlink:href="#DejaVuSans-48"/>
       <use x="63.623047" xlink:href="#DejaVuSans-48"/>
       <use x="127.246094" xlink:href="#DejaVuSans-58"/>
       <use x="160.9375" xlink:href="#DejaVuSans-49"/>
       <use x="224.560547" xlink:href="#DejaVuSans-53"/>
       <use x="288.183594" xlink:href="#DejaVuSans-58"/>
       <use x="321.875" xlink:href="#DejaVuSans-51"/>
       <use x="385.498047" xlink:href="#DejaVuSans-48"/>
      </g>
     </g>
    </g>
    <g id="xtick_5">
     <g id="line2d_5">
      <g>
       <use style="stroke:#000000;stroke-width:0.8;" x="228.859138" xlink:href="#mff2f6b3b86" y="448.56"/>
      </g>
     </g>
     <g id="text_5">
      <!-- 00:16:22 -->
      <g transform="translate(231.618513 500.4725)rotate(-90)scale(0.1 -0.1)">
       <use xlink:href="#DejaVuSans-48"/>
       <use x="63.623047" xlink:href="#DejaVuSans-48"/>
       <use x="127.246094" xlink:href="#DejaVuSans-58"/>
       <use x="160.9375" xlink:href="#DejaVuSans-49"/>
       <use x="224.560547" xlink:href="#DejaVuSans-54"/>
       <use x="288.183594" xlink:href="#DejaVuSans-58"/>
       <use x="321.875" xlink:href="#DejaVuSans-50"/>
       <use x="385.498047" xlink:href="#DejaVuSans-50"/>
      </g>
     </g>
    </g>
    <g id="xtick_6">
     <g id="line2d_6">
      <g>
       <use style="stroke:#000000;stroke-width:0.8;" x="252.98665" xlink:href="#mff2f6b3b86" y="448.56"/>
      </g>
     </g>
     <g id="text_6">
      <!-- 00:17:13 -->
      <g transform="translate(255.746025 500.4725)rotate(-90)scale(0.1 -0.1)">
       <use xlink:href="#DejaVuSans-48"/>
       <use x="63.623047" xlink:href="#DejaVuSans-48"/>
       <use x="127.246094" xlink:href="#DejaVuSans-58"/>
       <use x="160.9375" xlink:href="#DejaVuSans-49"/>
       <use x="224.560547" xlink:href="#DejaVuSans-55"/>
       <use x="288.183594" xlink:href="#DejaVuSans-58"/>
       <use x="321.875" xlink:href="#DejaVuSans-49"/>
       <use x="385.498047" xlink:href="#DejaVuSans-51"/>
      </g>
     </g>
    </g>
    <g id="xtick_7">
     <g id="line2d_7">
      <g>
       <use style="stroke:#000000;stroke-width:0.8;" x="277.114161" xlink:href="#mff2f6b3b86" y="448.56"/>
      </g>
     </g>
     <g id="text_7">
      <!-- 00:18:05 -->
      <g transform="translate(279.873536 500.4725)rotate(-90)scale(0.1 -0.1)">
       <defs>
        <path d="M 31.78125 34.625 
Q 24.75 34.625 20.71875 30.859375 
Q 16.703125 27.09375 16.703125 20.515625 
Q 16.703125 13.921875 20.71875 10.15625 
Q 24.75 6.390625 31.78125 6.390625 
Q 38.8125 6.390625 42.859375 10.171875 
Q 46.921875 13.96875 46.921875 20.515625 
Q 46.921875 27.09375 42.890625 30.859375 
Q 38.875 34.625 31.78125 34.625 
z
M 21.921875 38.8125 
Q 15.578125 40.375 12.03125 44.71875 
Q 8.5 49.078125 8.5 55.328125 
Q 8.5 64.0625 14.71875 69.140625 
Q 20.953125 74.21875 31.78125 74.21875 
Q 42.671875 74.21875 48.875 69.140625 
Q 55.078125 64.0625 55.078125 55.328125 
Q 55.078125 49.078125 51.53125 44.71875 
Q 48 40.375 41.703125 38.8125 
Q 48.828125 37.15625 52.796875 32.3125 
Q 56.78125 27.484375 56.78125 20.515625 
Q 56.78125 9.90625 50.3125 4.234375 
Q 43.84375 -1.421875 31.78125 -1.421875 
Q 19.734375 -1.421875 13.25 4.234375 
Q 6.78125 9.90625 6.78125 20.515625 
Q 6.78125 27.484375 10.78125 32.3125 
Q 14.796875 37.15625 21.921875 38.8125 
z
M 18.3125 54.390625 
Q 18.3125 48.734375 21.84375 45.5625 
Q 25.390625 42.390625 31.78125 42.390625 
Q 38.140625 42.390625 41.71875 45.5625 
Q 45.3125 48.734375 45.3125 54.390625 
Q 45.3125 60.0625 41.71875 63.234375 
Q 38.140625 66.40625 31.78125 66.40625 
Q 25.390625 66.40625 21.84375 63.234375 
Q 18.3125 60.0625 18.3125 54.390625 
z
" id="DejaVuSans-56"/>
       </defs>
       <use xlink:href="#DejaVuSans-48"/>
       <use x="63.623047" xlink:href="#DejaVuSans-48"/>
       <use x="127.246094" xlink:href="#DejaVuSans-58"/>
       <use x="160.9375" xlink:href="#DejaVuSans-49"/>
       <use x="224.560547" xlink:href="#DejaVuSans-56"/>
       <use x="288.183594" xlink:href="#DejaVuSans-58"/>
       <use x="321.875" xlink:href="#DejaVuSans-48"/>
       <use x="385.498047" xlink:href="#DejaVuSans-53"/>
      </g>
     </g>
    </g>
    <g id="xtick_8">
     <g id="line2d_8">
      <g>
       <use style="stroke:#000000;stroke-width:0.8;" x="301.241673" xlink:href="#mff2f6b3b86" y="448.56"/>
      </g>
     </g>
     <g id="text_8">
      <!-- 00:18:57 -->
      <g transform="translate(304.001048 500.4725)rotate(-90)scale(0.1 -0.1)">
       <use xlink:href="#DejaVuSans-48"/>
       <use x="63.623047" xlink:href="#DejaVuSans-48"/>
       <use x="127.246094" xlink:href="#DejaVuSans-58"/>
       <use x="160.9375" xlink:href="#DejaVuSans-49"/>
       <use x="224.560547" xlink:href="#DejaVuSans-56"/>
       <use x="288.183594" xlink:href="#DejaVuSans-58"/>
       <use x="321.875" xlink:href="#DejaVuSans-53"/>
       <use x="385.498047" xlink:href="#DejaVuSans-55"/>
      </g>
     </g>
    </g>
    <g id="xtick_9">
     <g id="line2d_9">
      <g>
       <use style="stroke:#000000;stroke-width:0.8;" x="325.369185" xlink:href="#mff2f6b3b86" y="448.56"/>
      </g>
     </g>
     <g id="text_9">
      <!-- 00:19:48 -->
      <g transform="translate(328.12856 500.4725)rotate(-90)scale(0.1 -0.1)">
       <use xlink:href="#DejaVuSans-48"/>
       <use x="63.623047" xlink:href="#DejaVuSans-48"/>
       <use x="127.246094" xlink:href="#DejaVuSans-58"/>
       <use x="160.9375" xlink:href="#DejaVuSans-49"/>
       <use x="224.560547" xlink:href="#DejaVuSans-57"/>
       <use x="288.183594" xlink:href="#DejaVuSans-58"/>
       <use x="321.875" xlink:href="#DejaVuSans-52"/>
       <use x="385.498047" xlink:href="#DejaVuSans-56"/>
      </g>
     </g>
    </g>
    <g id="xtick_10">
     <g id="line2d_10">
      <g>
       <use style="stroke:#000000;stroke-width:0.8;" x="349.496696" xlink:href="#mff2f6b3b86" y="448.56"/>
      </g>
     </g>
     <g id="text_10">
      <!-- 00:20:40 -->
      <g transform="translate(352.256071 500.4725)rotate(-90)scale(0.1 -0.1)">
       <use xlink:href="#DejaVuSans-48"/>
       <use x="63.623047" xlink:href="#DejaVuSans-48"/>
       <use x="127.246094" xlink:href="#DejaVuSans-58"/>
       <use x="160.9375" xlink:href="#DejaVuSans-50"/>
       <use x="224.560547" xlink:href="#DejaVuSans-48"/>
       <use x="288.183594" xlink:href="#DejaVuSans-58"/>
       <use x="321.875" xlink:href="#DejaVuSans-52"/>
       <use x="385.498047" xlink:href="#DejaVuSans-48"/>
      </g>
     </g>
    </g>
    <g id="xtick_11">
     <g id="line2d_11">
      <g>
       <use style="stroke:#000000;stroke-width:0.8;" x="373.624208" xlink:href="#mff2f6b3b86" y="448.56"/>
      </g>
     </g>
     <g id="text_11">
      <!-- 00:21:32 -->
      <g transform="translate(376.383583 500.4725)rotate(-90)scale(0.1 -0.1)">
       <use xlink:href="#DejaVuSans-48"/>
       <use x="63.623047" xlink:href="#DejaVuSans-48"/>
       <use x="127.246094" xlink:href="#DejaVuSans-58"/>
       <use x="160.9375" xlink:href="#DejaVuSans-50"/>
       <use x="224.560547" xlink:href="#DejaVuSans-49"/>
       <use x="288.183594" xlink:href="#DejaVuSans-58"/>
       <use x="321.875" xlink:href="#DejaVuSans-51"/>
       <use x="385.498047" xlink:href="#DejaVuSans-50"/>
      </g>
     </g>
    </g>
    <g id="xtick_12">
     <g id="line2d_12">
      <g>
       <use style="stroke:#000000;stroke-width:0.8;" x="397.75172" xlink:href="#mff2f6b3b86" y="448.56"/>
      </g>
     </g>
     <g id="text_12">
      <!-- 00:22:23 -->
      <g transform="translate(400.511095 500.4725)rotate(-90)scale(0.1 -0.1)">
       <use xlink:href="#DejaVuSans-48"/>
       <use x="63.623047" xlink:href="#DejaVuSans-48"/>
       <use x="127.246094" xlink:href="#DejaVuSans-58"/>
       <use x="160.9375" xlink:href="#DejaVuSans-50"/>
       <use x="224.560547" xlink:href="#DejaVuSans-50"/>
       <use x="288.183594" xlink:href="#DejaVuSans-58"/>
       <use x="321.875" xlink:href="#DejaVuSans-50"/>
       <use x="385.498047" xlink:href="#DejaVuSans-51"/>
      </g>
     </g>
    </g>
    <g id="xtick_13">
     <g id="line2d_13">
      <g>
       <use style="stroke:#000000;stroke-width:0.8;" x="421.879232" xlink:href="#mff2f6b3b86" y="448.56"/>
      </g>
     </g>
     <g id="text_13">
      <!-- 00:23:15 -->
      <g transform="translate(424.638607 500.4725)rotate(-90)scale(0.1 -0.1)">
       <use xlink:href="#DejaVuSans-48"/>
       <use x="63.623047" xlink:href="#DejaVuSans-48"/>
       <use x="127.246094" xlink:href="#DejaVuSans-58"/>
       <use x="160.9375" xlink:href="#DejaVuSans-50"/>
       <use x="224.560547" xlink:href="#DejaVuSans-51"/>
       <use x="288.183594" xlink:href="#DejaVuSans-58"/>
       <use x="321.875" xlink:href="#DejaVuSans-49"/>
       <use x="385.498047" xlink:href="#DejaVuSans-53"/>
      </g>
     </g>
    </g>
    <g id="xtick_14">
     <g id="line2d_14">
      <g>
       <use style="stroke:#000000;stroke-width:0.8;" x="446.006743" xlink:href="#mff2f6b3b86" y="448.56"/>
      </g>
     </g>
     <g id="text_14">
      <!-- 00:24:06 -->
      <g transform="translate(448.766118 500.4725)rotate(-90)scale(0.1 -0.1)">
       <use xlink:href="#DejaVuSans-48"/>
       <use x="63.623047" xlink:href="#DejaVuSans-48"/>
       <use x="127.246094" xlink:href="#DejaVuSans-58"/>
       <use x="160.9375" xlink:href="#DejaVuSans-50"/>
       <use x="224.560547" xlink:href="#DejaVuSans-52"/>
       <use x="288.183594" xlink:href="#DejaVuSans-58"/>
       <use x="321.875" xlink:href="#DejaVuSans-48"/>
       <use x="385.498047" xlink:href="#DejaVuSans-54"/>
      </g>
     </g>
    </g>
    <g id="xtick_15">
     <g id="line2d_15">
      <g>
       <use style="stroke:#000000;stroke-width:0.8;" x="470.134255" xlink:href="#mff2f6b3b86" y="448.56"/>
      </g>
     </g>
     <g id="text_15">
      <!-- 00:24:58 -->
      <g transform="translate(472.89363 500.4725)rotate(-90)scale(0.1 -0.1)">
       <use xlink:href="#DejaVuSans-48"/>
       <use x="63.623047" xlink:href="#DejaVuSans-48"/>
       <use x="127.246094" xlink:href="#DejaVuSans-58"/>
       <use x="160.9375" xlink:href="#DejaVuSans-50"/>
       <use x="224.560547" xlink:href="#DejaVuSans-52"/>
       <use x="288.183594" xlink:href="#DejaVuSans-58"/>
       <use x="321.875" xlink:href="#DejaVuSans-53"/>
       <use x="385.498047" xlink:href="#DejaVuSans-56"/>
      </g>
     </g>
    </g>
    <g id="xtick_16">
     <g id="line2d_16">
      <g>
       <use style="stroke:#000000;stroke-width:0.8;" x="494.261767" xlink:href="#mff2f6b3b86" y="448.56"/>
      </g>
     </g>
     <g id="text_16">
      <!-- 00:25:50 -->
      <g transform="translate(497.021142 500.4725)rotate(-90)scale(0.1 -0.1)">
       <use xlink:href="#DejaVuSans-48"/>
       <use x="63.623047" xlink:href="#DejaVuSans-48"/>
       <use x="127.246094" xlink:href="#DejaVuSans-58"/>
       <use x="160.9375" xlink:href="#DejaVuSans-50"/>
       <use x="224.560547" xlink:href="#DejaVuSans-53"/>
       <use x="288.183594" xlink:href="#DejaVuSans-58"/>
       <use x="321.875" xlink:href="#DejaVuSans-53"/>
       <use x="385.498047" xlink:href="#DejaVuSans-48"/>
      </g>
     </g>
    </g>
    <g id="xtick_17">
     <g id="line2d_17">
      <g>
       <use style="stroke:#000000;stroke-width:0.8;" x="518.389278" xlink:href="#mff2f6b3b86" y="448.56"/>
      </g>
     </g>
     <g id="text_17">
      <!-- 00:26:41 -->
      <g transform="translate(521.148653 500.4725)rotate(-90)scale(0.1 -0.1)">
       <use xlink:href="#DejaVuSans-48"/>
       <use x="63.623047" xlink:href="#DejaVuSans-48"/>
       <use x="127.246094" xlink:href="#DejaVuSans-58"/>
       <use x="160.9375" xlink:href="#DejaVuSans-50"/>
       <use x="224.560547" xlink:href="#DejaVuSans-54"/>
       <use x="288.183594" xlink:href="#DejaVuSans-58"/>
       <use x="321.875" xlink:href="#DejaVuSans-52"/>
       <use x="385.498047" xlink:href="#DejaVuSans-49"/>
      </g>
     </g>
    </g>
    <g id="xtick_18">
     <g id="line2d_18">
      <g>
       <use style="stroke:#000000;stroke-width:0.8;" x="542.51679" xlink:href="#mff2f6b3b86" y="448.56"/>
      </g>
     </g>
     <g id="text_18">
      <!-- 00:27:33 -->
      <g transform="translate(545.276165 500.4725)rotate(-90)scale(0.1 -0.1)">
       <use xlink:href="#DejaVuSans-48"/>
       <use x="63.623047" xlink:href="#DejaVuSans-48"/>
       <use x="127.246094" xlink:href="#DejaVuSans-58"/>
       <use x="160.9375" xlink:href="#DejaVuSans-50"/>
       <use x="224.560547" xlink:href="#DejaVuSans-55"/>
       <use x="288.183594" xlink:href="#DejaVuSans-58"/>
       <use x="321.875" xlink:href="#DejaVuSans-51"/>
       <use x="385.498047" xlink:href="#DejaVuSans-51"/>
      </g>
     </g>
    </g>
    <g id="xtick_19">
     <g id="line2d_19">
      <g>
       <use style="stroke:#000000;stroke-width:0.8;" x="566.644302" xlink:href="#mff2f6b3b86" y="448.56"/>
      </g>
     </g>
     <g id="text_19">
      <!-- 00:28:25 -->
      <g transform="translate(569.403677 500.4725)rotate(-90)scale(0.1 -0.1)">
       <use xlink:href="#DejaVuSans-48"/>
       <use x="63.623047" xlink:href="#DejaVuSans-48"/>
       <use x="127.246094" xlink:href="#DejaVuSans-58"/>
       <use x="160.9375" xlink:href="#DejaVuSans-50"/>
       <use x="224.560547" xlink:href="#DejaVuSans-56"/>
       <use x="288.183594" xlink:href="#DejaVuSans-58"/>
       <use x="321.875" xlink:href="#DejaVuSans-50"/>
       <use x="385.498047" xlink:href="#DejaVuSans-53"/>
      </g>
     </g>
    </g>
    <g id="xtick_20">
     <g id="line2d_20">
      <g>
       <use style="stroke:#000000;stroke-width:0.8;" x="590.771814" xlink:href="#mff2f6b3b86" y="448.56"/>
      </g>
     </g>
     <g id="text_20">
      <!-- 00:29:16 -->
      <g transform="translate(593.531189 500.4725)rotate(-90)scale(0.1 -0.1)">
       <use xlink:href="#DejaVuSans-48"/>
       <use x="63.623047" xlink:href="#DejaVuSans-48"/>
       <use x="127.246094" xlink:href="#DejaVuSans-58"/>
       <use x="160.9375" xlink:href="#DejaVuSans-50"/>
       <use x="224.560547" xlink:href="#DejaVuSans-57"/>
       <use x="288.183594" xlink:href="#DejaVuSans-58"/>
       <use x="321.875" xlink:href="#DejaVuSans-49"/>
       <use x="385.498047" xlink:href="#DejaVuSans-54"/>
      </g>
     </g>
    </g>
    <g id="xtick_21">
     <g id="line2d_21">
      <g>
       <use style="stroke:#000000;stroke-width:0.8;" x="614.899325" xlink:href="#mff2f6b3b86" y="448.56"/>
      </g>
     </g>
     <g id="text_21">
      <!-- 00:30:08 -->
      <g transform="translate(617.6587 500.4725)rotate(-90)scale(0.1 -0.1)">
       <use xlink:href="#DejaVuSans-48"/>
       <use x="63.623047" xlink:href="#DejaVuSans-48"/>
       <use x="127.246094" xlink:href="#DejaVuSans-58"/>
       <use x="160.9375" xlink:href="#DejaVuSans-51"/>
       <use x="224.560547" xlink:href="#DejaVuSans-48"/>
       <use x="288.183594" xlink:href="#DejaVuSans-58"/>
       <use x="321.875" xlink:href="#DejaVuSans-48"/>
       <use x="385.498047" xlink:href="#DejaVuSans-56"/>
      </g>
     </g>
    </g>
    <g id="text_22">
     <!-- timestamp -->
     <g transform="translate(354.264375 510.55125)scale(0.08 -0.08)">
      <defs>
       <path d="M 18.3125 70.21875 
L 18.3125 54.6875 
L 36.8125 54.6875 
L 36.8125 47.703125 
L 18.3125 47.703125 
L 18.3125 18.015625 
Q 18.3125 11.328125 20.140625 9.421875 
Q 21.96875 7.515625 27.59375 7.515625 
L 36.8125 7.515625 
L 36.8125 0 
L 27.59375 0 
Q 17.1875 0 13.234375 3.875 
Q 9.28125 7.765625 9.28125 18.015625 
L 9.28125 47.703125 
L 2.6875 47.703125 
L 2.6875 54.6875 
L 9.28125 54.6875 
L 9.28125 70.21875 
z
" id="DejaVuSans-116"/>
       <path d="M 9.421875 54.6875 
L 18.40625 54.6875 
L 18.40625 0 
L 9.421875 0 
z
M 9.421875 75.984375 
L 18.40625 75.984375 
L 18.40625 64.59375 
L 9.421875 64.59375 
z
" id="DejaVuSans-105"/>
       <path d="M 52 44.1875 
Q 55.375 50.25 60.0625 53.125 
Q 64.75 56 71.09375 56 
Q 79.640625 56 84.28125 50.015625 
Q 88.921875 44.046875 88.921875 33.015625 
L 88.921875 0 
L 79.890625 0 
L 79.890625 32.71875 
Q 79.890625 40.578125 77.09375 44.375 
Q 74.3125 48.1875 68.609375 48.1875 
Q 61.625 48.1875 57.5625 43.546875 
Q 53.515625 38.921875 53.515625 30.90625 
L 53.515625 0 
L 44.484375 0 
L 44.484375 32.71875 
Q 44.484375 40.625 41.703125 44.40625 
Q 38.921875 48.1875 33.109375 48.1875 
Q 26.21875 48.1875 22.15625 43.53125 
Q 18.109375 38.875 18.109375 30.90625 
L 18.109375 0 
L 9.078125 0 
L 9.078125 54.6875 
L 18.109375 54.6875 
L 18.109375 46.1875 
Q 21.1875 51.21875 25.484375 53.609375 
Q 29.78125 56 35.6875 56 
Q 41.65625 56 45.828125 52.96875 
Q 50 49.953125 52 44.1875 
z
" id="DejaVuSans-109"/>
       <path d="M 56.203125 29.59375 
L 56.203125 25.203125 
L 14.890625 25.203125 
Q 15.484375 15.921875 20.484375 11.0625 
Q 25.484375 6.203125 34.421875 6.203125 
Q 39.59375 6.203125 44.453125 7.46875 
Q 49.3125 8.734375 54.109375 11.28125 
L 54.109375 2.78125 
Q 49.265625 0.734375 44.1875 -0.34375 
Q 39.109375 -1.421875 33.890625 -1.421875 
Q 20.796875 -1.421875 13.15625 6.1875 
Q 5.515625 13.8125 5.515625 26.8125 
Q 5.515625 40.234375 12.765625 48.109375 
Q 20.015625 56 32.328125 56 
Q 43.359375 56 49.78125 48.890625 
Q 56.203125 41.796875 56.203125 29.59375 
z
M 47.21875 32.234375 
Q 47.125 39.59375 43.09375 43.984375 
Q 39.0625 48.390625 32.421875 48.390625 
Q 24.90625 48.390625 20.390625 44.140625 
Q 15.875 39.890625 15.1875 32.171875 
z
" id="DejaVuSans-101"/>
       <path d="M 44.28125 53.078125 
L 44.28125 44.578125 
Q 40.484375 46.53125 36.375 47.5 
Q 32.28125 48.484375 27.875 48.484375 
Q 21.1875 48.484375 17.84375 46.4375 
Q 14.5 44.390625 14.5 40.28125 
Q 14.5 37.15625 16.890625 35.375 
Q 19.28125 33.59375 26.515625 31.984375 
L 29.59375 31.296875 
Q 39.15625 29.25 43.1875 25.515625 
Q 47.21875 21.78125 47.21875 15.09375 
Q 47.21875 7.46875 41.1875 3.015625 
Q 35.15625 -1.421875 24.609375 -1.421875 
Q 20.21875 -1.421875 15.453125 -0.5625 
Q 10.6875 0.296875 5.421875 2 
L 5.421875 11.28125 
Q 10.40625 8.6875 15.234375 7.390625 
Q 20.0625 6.109375 24.8125 6.109375 
Q 31.15625 6.109375 34.5625 8.28125 
Q 37.984375 10.453125 37.984375 14.40625 
Q 37.984375 18.0625 35.515625 20.015625 
Q 33.0625 21.96875 24.703125 23.78125 
L 21.578125 24.515625 
Q 13.234375 26.265625 9.515625 29.90625 
Q 5.8125 33.546875 5.8125 39.890625 
Q 5.8125 47.609375 11.28125 51.796875 
Q 16.75 56 26.8125 56 
Q 31.78125 56 36.171875 55.265625 
Q 40.578125 54.546875 44.28125 53.078125 
z
" id="DejaVuSans-115"/>
       <path d="M 34.28125 27.484375 
Q 23.390625 27.484375 19.1875 25 
Q 14.984375 22.515625 14.984375 16.5 
Q 14.984375 11.71875 18.140625 8.90625 
Q 21.296875 6.109375 26.703125 6.109375 
Q 34.1875 6.109375 38.703125 11.40625 
Q 43.21875 16.703125 43.21875 25.484375 
L 43.21875 27.484375 
z
M 52.203125 31.203125 
L 52.203125 0 
L 43.21875 0 
L 43.21875 8.296875 
Q 40.140625 3.328125 35.546875 0.953125 
Q 30.953125 -1.421875 24.3125 -1.421875 
Q 15.921875 -1.421875 10.953125 3.296875 
Q 6 8.015625 6 15.921875 
Q 6 25.140625 12.171875 29.828125 
Q 18.359375 34.515625 30.609375 34.515625 
L 43.21875 34.515625 
L 43.21875 35.40625 
Q 43.21875 41.609375 39.140625 45 
Q 35.0625 48.390625 27.6875 48.390625 
Q 23 48.390625 18.546875 47.265625 
Q 14.109375 46.140625 10.015625 43.890625 
L 10.015625 52.203125 
Q 14.9375 54.109375 19.578125 55.046875 
Q 24.21875 56 28.609375 56 
Q 40.484375 56 46.34375 49.84375 
Q 52.203125 43.703125 52.203125 31.203125 
z
" id="DejaVuSans-97"/>
       <path d="M 18.109375 8.203125 
L 18.109375 -20.796875 
L 9.078125 -20.796875 
L 9.078125 54.6875 
L 18.109375 54.6875 
L 18.109375 46.390625 
Q 20.953125 51.265625 25.265625 53.625 
Q 29.59375 56 35.59375 56 
Q 45.5625 56 51.78125 48.09375 
Q 58.015625 40.1875 58.015625 27.296875 
Q 58.015625 14.40625 51.78125 6.484375 
Q 45.5625 -1.421875 35.59375 -1.421875 
Q 29.59375 -1.421875 25.265625 0.953125 
Q 20.953125 3.328125 18.109375 8.203125 
z
M 48.6875 27.296875 
Q 48.6875 37.203125 44.609375 42.84375 
Q 40.53125 48.484375 33.40625 48.484375 
Q 26.265625 48.484375 22.1875 42.84375 
Q 18.109375 37.203125 18.109375 27.296875 
Q 18.109375 17.390625 22.1875 11.75 
Q 26.265625 6.109375 33.40625 6.109375 
Q 40.53125 6.109375 44.609375 11.75 
Q 48.6875 17.390625 48.6875 27.296875 
z
" id="DejaVuSans-112"/>
      </defs>
      <use xlink:href="#DejaVuSans-116"/>
      <use x="39.208984" xlink:href="#DejaVuSans-105"/>
      <use x="66.992188" xlink:href="#DejaVuSans-109"/>
      <use x="164.404297" xlink:href="#DejaVuSans-101"/>
      <use x="225.927734" xlink:href="#DejaVuSans-115"/>
      <use x="278.027344" xlink:href="#DejaVuSans-116"/>
      <use x="317.236328" xlink:href="#DejaVuSans-97"/>
      <use x="378.515625" xlink:href="#DejaVuSans-109"/>
      <use x="475.927734" xlink:href="#DejaVuSans-112"/>
     </g>
    </g>
   </g>
   <g id="matplotlib.axis_2">
    <g id="ytick_1">
     <g id="line2d_22">
      <defs>
       <path d="M 0 0 
L -3.5 0 
" id="m9d65025768" style="stroke:#000000;stroke-width:0.8;"/>
      </defs>
      <g>
       <use style="stroke:#000000;stroke-width:0.8;" x="108" xlink:href="#m9d65025768" y="421.117346"/>
      </g>
     </g>
     <g id="text_23">
      <!-- 12440 -->
      <g transform="translate(69.1875 424.916565)scale(0.1 -0.1)">
       <use xlink:href="#DejaVuSans-49"/>
       <use x="63.623047" xlink:href="#DejaVuSans-50"/>
       <use x="127.246094" xlink:href="#DejaVuSans-52"/>
       <use x="190.869141" xlink:href="#DejaVuSans-52"/>
       <use x="254.492188" xlink:href="#DejaVuSans-48"/>
      </g>
     </g>
    </g>
    <g id="ytick_2">
     <g id="line2d_23">
      <g>
       <use style="stroke:#000000;stroke-width:0.8;" x="108" xlink:href="#m9d65025768" y="373.346128"/>
      </g>
     </g>
     <g id="text_24">
      <!-- 12450 -->
      <g transform="translate(69.1875 377.145347)scale(0.1 -0.1)">
       <use xlink:href="#DejaVuSans-49"/>
       <use x="63.623047" xlink:href="#DejaVuSans-50"/>
       <use x="127.246094" xlink:href="#DejaVuSans-52"/>
       <use x="190.869141" xlink:href="#DejaVuSans-53"/>
       <use x="254.492188" xlink:href="#DejaVuSans-48"/>
      </g>
     </g>
    </g>
    <g id="ytick_3">
     <g id="line2d_24">
      <g>
       <use style="stroke:#000000;stroke-width:0.8;" x="108" xlink:href="#m9d65025768" y="325.57491"/>
      </g>
     </g>
     <g id="text_25">
      <!-- 12460 -->
      <g transform="translate(69.1875 329.374129)scale(0.1 -0.1)">
       <use xlink:href="#DejaVuSans-49"/>
       <use x="63.623047" xlink:href="#DejaVuSans-50"/>
       <use x="127.246094" xlink:href="#DejaVuSans-52"/>
       <use x="190.869141" xlink:href="#DejaVuSans-54"/>
       <use x="254.492188" xlink:href="#DejaVuSans-48"/>
      </g>
     </g>
    </g>
    <g id="ytick_4">
     <g id="line2d_25">
      <g>
       <use style="stroke:#000000;stroke-width:0.8;" x="108" xlink:href="#m9d65025768" y="277.803692"/>
      </g>
     </g>
     <g id="text_26">
      <!-- 12470 -->
      <g transform="translate(69.1875 281.60291)scale(0.1 -0.1)">
       <use xlink:href="#DejaVuSans-49"/>
       <use x="63.623047" xlink:href="#DejaVuSans-50"/>
       <use x="127.246094" xlink:href="#DejaVuSans-52"/>
       <use x="190.869141" xlink:href="#DejaVuSans-55"/>
       <use x="254.492188" xlink:href="#DejaVuSans-48"/>
      </g>
     </g>
    </g>
    <g id="ytick_5">
     <g id="line2d_26">
      <g>
       <use style="stroke:#000000;stroke-width:0.8;" x="108" xlink:href="#m9d65025768" y="230.032474"/>
      </g>
     </g>
     <g id="text_27">
      <!-- 12480 -->
      <g transform="translate(69.1875 233.831692)scale(0.1 -0.1)">
       <use xlink:href="#DejaVuSans-49"/>
       <use x="63.623047" xlink:href="#DejaVuSans-50"/>
       <use x="127.246094" xlink:href="#DejaVuSans-52"/>
       <use x="190.869141" xlink:href="#DejaVuSans-56"/>
       <use x="254.492188" xlink:href="#DejaVuSans-48"/>
      </g>
     </g>
    </g>
    <g id="ytick_6">
     <g id="line2d_27">
      <g>
       <use style="stroke:#000000;stroke-width:0.8;" x="108" xlink:href="#m9d65025768" y="182.261255"/>
      </g>
     </g>
     <g id="text_28">
      <!-- 12490 -->
      <g transform="translate(69.1875 186.060474)scale(0.1 -0.1)">
       <use xlink:href="#DejaVuSans-49"/>
       <use x="63.623047" xlink:href="#DejaVuSans-50"/>
       <use x="127.246094" xlink:href="#DejaVuSans-52"/>
       <use x="190.869141" xlink:href="#DejaVuSans-57"/>
       <use x="254.492188" xlink:href="#DejaVuSans-48"/>
      </g>
     </g>
    </g>
    <g id="ytick_7">
     <g id="line2d_28">
      <g>
       <use style="stroke:#000000;stroke-width:0.8;" x="108" xlink:href="#m9d65025768" y="134.490037"/>
      </g>
     </g>
     <g id="text_29">
      <!-- 12500 -->
      <g transform="translate(69.1875 138.289256)scale(0.1 -0.1)">
       <use xlink:href="#DejaVuSans-49"/>
       <use x="63.623047" xlink:href="#DejaVuSans-50"/>
       <use x="127.246094" xlink:href="#DejaVuSans-53"/>
       <use x="190.869141" xlink:href="#DejaVuSans-48"/>
       <use x="254.492188" xlink:href="#DejaVuSans-48"/>
      </g>
     </g>
    </g>
    <g id="ytick_8">
     <g id="line2d_29">
      <g>
       <use style="stroke:#000000;stroke-width:0.8;" x="108" xlink:href="#m9d65025768" y="86.718819"/>
      </g>
     </g>
     <g id="text_30">
      <!-- 12510 -->
      <g transform="translate(69.1875 90.518038)scale(0.1 -0.1)">
       <use xlink:href="#DejaVuSans-49"/>
       <use x="63.623047" xlink:href="#DejaVuSans-50"/>
       <use x="127.246094" xlink:href="#DejaVuSans-53"/>
       <use x="190.869141" xlink:href="#DejaVuSans-49"/>
       <use x="254.492188" xlink:href="#DejaVuSans-48"/>
      </g>
     </g>
    </g>
    <g id="text_31">
     <!-- MB -->
     <g transform="translate(63.52375 260.715625)rotate(-90)scale(0.08 -0.08)">
      <defs>
       <path d="M 9.8125 72.90625 
L 24.515625 72.90625 
L 43.109375 23.296875 
L 61.8125 72.90625 
L 76.515625 72.90625 
L 76.515625 0 
L 66.890625 0 
L 66.890625 64.015625 
L 48.09375 14.015625 
L 38.1875 14.015625 
L 19.390625 64.015625 
L 19.390625 0 
L 9.8125 0 
z
" id="DejaVuSans-77"/>
       <path d="M 19.671875 34.8125 
L 19.671875 8.109375 
L 35.5 8.109375 
Q 43.453125 8.109375 47.28125 11.40625 
Q 51.125 14.703125 51.125 21.484375 
Q 51.125 28.328125 47.28125 31.5625 
Q 43.453125 34.8125 35.5 34.8125 
z
M 19.671875 64.796875 
L 19.671875 42.828125 
L 34.28125 42.828125 
Q 41.5 42.828125 45.03125 45.53125 
Q 48.578125 48.25 48.578125 53.8125 
Q 48.578125 59.328125 45.03125 62.0625 
Q 41.5 64.796875 34.28125 64.796875 
z
M 9.8125 72.90625 
L 35.015625 72.90625 
Q 46.296875 72.90625 52.390625 68.21875 
Q 58.5 63.53125 58.5 54.890625 
Q 58.5 48.1875 55.375 44.234375 
Q 52.25 40.28125 46.1875 39.3125 
Q 53.46875 37.75 57.5 32.78125 
Q 61.53125 27.828125 61.53125 20.40625 
Q 61.53125 10.640625 54.890625 5.3125 
Q 48.25 0 35.984375 0 
L 9.8125 0 
z
" id="DejaVuSans-66"/>
      </defs>
      <use xlink:href="#DejaVuSans-77"/>
      <use x="86.279297" xlink:href="#DejaVuSans-66"/>
     </g>
    </g>
   </g>
   <g id="line2d_30">
    <path clip-path="url(#pcbb573f1e6)" d="M 132.349091 176.77712 
L 132.841489 97.839959 
L 133.333887 96.884534 
L 133.826286 89.202923 
L 134.318684 99.559723 
L 134.811082 84.387584 
L 135.30348 79.209184 
L 135.795878 83.795221 
L 136.780675 99.59794 
L 137.273073 102.196694 
L 137.765471 78.12 
L 138.257869 123.292464 
L 138.750267 121.935761 
L 139.242666 125.184204 
L 139.735064 99.196661 
L 140.227462 101.566114 
L 140.71986 145.343658 
L 141.212258 145.018814 
L 141.704657 178.726185 
L 142.197055 179.452308 
L 142.689453 211.287048 
L 143.181851 258.695204 
L 143.674249 203.433459 
L 144.166648 181.076529 
L 144.659046 181.019204 
L 145.151444 163.649589 
L 145.643842 160.687773 
L 146.13624 168.445819 
L 146.628639 170.815272 
L 147.121037 177.235723 
L 147.613435 174.063714 
L 148.105833 166.706947 
L 148.598231 172.783446 
L 149.09063 166.362994 
L 149.583028 172.649686 
L 150.075426 173.853521 
L 150.567824 179.643393 
L 151.060222 180.350407 
L 151.552621 177.694327 
L 152.045019 184.172104 
L 152.537417 180.617926 
L 153.029815 181.401374 
L 153.522213 181.554241 
L 154.014612 177.866303 
L 154.50701 185.547915 
L 154.999408 184.344081 
L 155.491806 147.59846 
L 155.984204 147.311832 
L 156.476603 137.222551 
L 156.969001 139.439136 
L 157.461399 225.236243 
L 157.953797 277.612607 
L 158.446195 260.816247 
L 158.938594 249.312937 
L 159.430992 240.484816 
L 159.92339 255.064592 
L 160.415788 260.414968 
L 160.908186 262.516902 
L 161.400585 251.605956 
L 161.892983 245.758759 
L 162.385381 245.663216 
L 162.877779 256.039125 
L 163.370177 257.969082 
L 163.862576 258.217492 
L 164.847372 251.070918 
L 165.832168 258.714313 
L 166.324567 259.115591 
L 166.816965 270.886419 
L 167.309363 255.561413 
L 167.801761 256.612379 
L 168.294159 238.497533 
L 168.786558 245.147287 
L 169.278956 229.287243 
L 169.771354 226.631163 
L 170.263752 212.509991 
L 170.75615 212.949486 
L 171.248549 222.006909 
L 171.740947 223.076984 
L 172.233345 224.873182 
L 172.725743 207.350699 
L 173.218141 204.388884 
L 173.71054 211.191505 
L 174.202938 220.516447 
L 174.695336 226.66938 
L 175.187734 222.350862 
L 175.680132 207.580001 
L 176.172531 215.280721 
L 176.664929 214.229755 
L 177.157327 219.369938 
L 177.649725 222.771248 
L 178.142123 221.338112 
L 178.634522 218.20432 
L 179.12692 218.261645 
L 179.619318 216.94316 
L 180.604114 239.663151 
L 181.096513 225.350894 
L 181.588911 224.0133 
L 182.081309 220.401796 
L 182.573707 221.204352 
L 183.066105 228.752205 
L 184.050902 238.115364 
L 184.5433 235.077114 
L 185.035698 223.76489 
L 185.528096 229.764955 
L 186.020495 231.484719 
L 186.512893 220.401796 
L 187.005291 220.554664 
L 187.497689 213.159679 
L 187.990087 228.866856 
L 188.482486 237.389241 
L 188.974884 243.656825 
L 189.467282 226.573837 
L 190.452078 243.198221 
L 190.944477 229.860497 
L 191.436875 242.663184 
L 191.929273 239.472066 
L 192.421671 234.828704 
L 192.914069 240.886094 
L 193.406468 238.612184 
L 193.898866 241.363807 
L 194.391264 239.529392 
L 194.883662 239.835128 
L 195.37606 246.790617 
L 195.868458 244.058103 
L 196.360857 238.66951 
L 196.853255 246.523098 
L 197.345653 249.771541 
L 197.838051 248.988093 
L 198.330449 239.835128 
L 198.822848 243.312872 
L 199.315246 244.86066 
L 199.807644 258.255709 
L 200.300042 257.395827 
L 200.79244 236.510251 
L 201.284839 234.389209 
L 201.777237 239.911562 
L 202.269635 253.57413 
L 202.762033 260.39586 
L 203.254431 261.007331 
L 203.74683 252.160102 
L 204.239228 246.828834 
L 204.731626 257.166525 
L 205.224024 260.758921 
L 205.716422 253.860757 
L 206.208821 256.039125 
L 206.701219 250.822508 
L 207.193617 257.87354 
L 207.686015 255.886257 
L 208.178413 255.637847 
L 208.670812 258.695204 
L 209.16321 262.612444 
L 210.640404 256.402186 
L 211.132803 261.695237 
L 211.625201 263.472326 
L 212.117599 259.459544 
L 212.609997 250.249253 
L 213.102395 260.01369 
L 213.594794 273.179438 
L 214.087192 267.84817 
L 214.57959 243.236438 
L 215.071988 246.217362 
L 215.564386 253.57413 
L 216.056785 265.4405 
L 216.549183 268.918245 
L 217.041581 334.001753 
L 217.533979 341.454063 
L 218.026377 326.511226 
L 218.518776 328.441183 
L 219.011174 285.27511 
L 219.503572 293.606411 
L 219.99597 295.364391 
L 220.980767 266.682552 
L 221.473165 267.829061 
L 221.965563 274.134862 
L 222.457961 275.472456 
L 222.950359 279.46613 
L 223.442758 279.103069 
L 223.935156 279.59989 
L 224.427554 288.370685 
L 224.919952 287.54902 
L 225.41235 283.249611 
L 225.904749 282.485271 
L 226.397147 278.988418 
L 226.889545 286.345186 
L 227.381943 283.306936 
L 227.874341 285.867473 
L 228.36674 277.497956 
L 228.859138 272.453315 
L 229.351536 275.701758 
L 229.843934 273.790909 
L 230.336332 281.376979 
L 231.321129 289.82293 
L 231.813527 282.466163 
L 232.305925 278.166753 
L 233.290722 293.816604 
L 233.78312 293.912146 
L 234.275518 286.421619 
L 234.767916 283.880191 
L 235.260314 289.230567 
L 235.752713 282.580814 
L 236.737509 275.510673 
L 237.229907 272.147579 
L 237.722305 271.650759 
L 238.214704 278.510706 
L 238.707102 282.50438 
L 239.691898 285.561738 
L 240.184296 288.466228 
L 240.676695 293.052265 
L 241.169093 268.153906 
L 241.661491 267.790844 
L 242.153889 245.911626 
L 242.646287 252.924441 
L 243.138686 235.688586 
L 243.631084 236.605793 
L 244.123482 247.058136 
L 245.108278 261.886322 
L 245.600677 259.63152 
L 246.093075 249.828866 
L 246.585473 249.523131 
L 247.077871 258.179275 
L 247.570269 261.542369 
L 248.062668 266.739878 
L 248.555066 256.612379 
L 249.047464 254.376686 
L 249.539862 256.574162 
L 250.03226 254.701531 
L 250.524659 258.274818 
L 251.017057 253.115526 
L 251.509455 253.19196 
L 252.001853 254.83529 
L 252.98665 258.599662 
L 253.479048 261.924539 
L 253.971446 261.255742 
L 254.956242 247.593173 
L 255.448641 253.19196 
L 255.941039 262.650661 
L 256.433437 256.841681 
L 256.925835 241.745976 
L 257.418233 245.223721 
L 257.910631 245.128179 
L 258.40303 259.975473 
L 258.895428 268.47875 
L 259.387826 266.911854 
L 259.880224 264.064689 
L 260.372622 250.134602 
L 260.865021 257.682455 
L 261.357419 254.223818 
L 261.849817 260.281209 
L 262.342215 257.606021 
L 262.834613 257.911756 
L 263.327012 257.300285 
L 263.81941 264.790812 
L 264.311808 257.376719 
L 264.804206 258.599662 
L 265.789003 264.771703 
L 266.281401 257.395827 
L 266.773799 261.809888 
L 267.266197 253.32572 
L 267.758595 260.739813 
L 268.250994 260.854464 
L 268.743392 262.822638 
L 269.23579 267.867278 
L 269.728188 266.911854 
L 270.220586 267.657085 
L 270.712985 264.56151 
L 271.205383 256.306644 
L 271.697781 252.676031 
L 272.190179 261.179308 
L 272.682577 274.001103 
L 273.174976 274.325947 
L 273.667374 275.797301 
L 274.159772 267.867278 
L 274.65217 262.727095 
L 275.144568 270.255839 
L 275.636967 273.733584 
L 276.129365 275.625324 
L 276.621763 264.122015 
L 277.114161 276.045711 
L 277.606559 269.510608 
L 278.098958 272.759051 
L 278.591356 277.899234 
L 279.083754 275.950168 
L 279.576152 271.994712 
L 280.06855 274.020211 
L 280.560949 273.40874 
L 281.053347 277.765475 
L 281.545745 287.797431 
L 282.038143 286.096775 
L 282.530541 278.911984 
L 283.02294 277.841909 
L 283.515338 287.357935 
L 284.007736 285.007591 
L 284.500134 286.478945 
L 284.992532 277.803692 
L 285.484931 264.886354 
L 286.469727 278.529814 
L 286.962125 280.899267 
L 287.454523 282.064884 
L 287.946922 278.510706 
L 288.43932 277.975668 
L 288.931718 291.657345 
L 289.424116 292.86118 
L 289.916514 287.759214 
L 290.408913 286.077667 
L 290.901311 286.708247 
L 291.393709 293.224241 
L 291.886107 292.555444 
L 292.378505 291.447152 
L 292.870904 293.166915 
L 293.363302 281.262328 
L 293.8557 285.313327 
L 294.348098 283.784648 
L 294.840496 285.122242 
L 295.332895 276.408772 
L 296.317691 290.033124 
L 296.810089 288.714638 
L 297.302487 293.721062 
L 297.794886 288.408902 
L 298.287284 289.077699 
L 298.779682 291.829321 
L 299.27208 283.899299 
L 299.764478 285.313327 
L 300.256877 299.377174 
L 300.749275 299.396282 
L 301.241673 290.052232 
L 301.734071 301.479107 
L 302.226469 288.523553 
L 303.211266 292.517227 
L 304.196062 299.950428 
L 304.68846 298.058688 
L 305.180859 294.198774 
L 305.673257 295.670127 
L 306.165655 298.135122 
L 306.658053 298.555509 
L 307.150451 294.963113 
L 307.64285 300.523683 
L 308.135248 300.332598 
L 308.627646 307.479172 
L 309.120044 303.581041 
L 309.612442 303.007786 
L 310.104841 311.148002 
L 310.597239 305.300805 
L 311.089637 305.071503 
L 311.582035 307.249871 
L 312.074433 316.077992 
L 312.566832 315.21811 
L 313.05923 300.733876 
L 313.551628 294.084123 
L 314.044026 296.931287 
L 314.536424 311.587497 
L 315.028823 322.001623 
L 315.521221 379.00224 
L 316.013619 368.760091 
L 316.506017 365.932035 
L 316.998415 349.785363 
L 317.983212 265.650694 
L 318.47561 258.026407 
L 318.968008 248.01356 
L 319.460406 223.115201 
L 319.952804 206.796553 
L 320.445203 239.854236 
L 320.937601 232.172624 
L 321.429999 215.853976 
L 321.922397 212.318906 
L 322.414795 233.892388 
L 322.907194 237.27459 
L 323.399592 237.503892 
L 323.89199 229.745846 
L 324.384388 226.077017 
L 324.876786 257.701563 
L 325.369185 253.631455 
L 325.861583 258.255709 
L 326.846379 218.357188 
L 327.338777 213.522741 
L 327.831176 219.46548 
L 328.815972 238.440208 
L 329.30837 238.631293 
L 330.293167 230.147125 
L 330.785565 242.319231 
L 331.277963 237.752302 
L 331.770361 240.714118 
L 332.262759 218.987768 
L 332.755158 208.611859 
L 333.247556 209.261548 
L 333.739954 200.433427 
L 334.232352 201.331526 
L 334.72475 196.076692 
L 335.217149 197.433394 
L 335.709547 195.579871 
L 336.201945 189.847325 
L 336.694343 192.675381 
L 337.186741 201.350634 
L 337.67914 197.87289 
L 338.171538 201.713695 
L 338.663936 201.541719 
L 339.156334 201.962106 
L 339.648732 211.287048 
L 340.141131 200.834705 
L 340.633529 196.573512 
L 341.125927 187.993802 
L 341.618325 187.955585 
L 342.110723 196.936574 
L 342.603122 292.211491 
L 343.09552 340.383987 
L 343.587918 328.785136 
L 344.080316 320.64492 
L 344.572714 307.402738 
L 345.557511 305.10972 
L 346.049909 302.721159 
L 346.542307 302.262555 
L 347.034705 305.167045 
L 347.527104 302.778485 
L 348.019502 308.071536 
L 348.5119 310.746724 
L 349.004298 309.447347 
L 349.496696 310.937809 
L 349.989095 299.988645 
L 350.481493 300.17973 
L 351.466289 313.632105 
L 351.958687 311.071568 
L 352.451086 305.415456 
L 352.943484 307.345413 
L 353.435882 315.581171 
L 353.92828 314.816832 
L 354.420678 315.829581 
L 355.405475 285.236893 
L 355.897873 287.988515 
L 356.390271 292.517227 
L 356.882669 306.542857 
L 357.375068 309.40913 
L 357.867466 299.854886 
L 358.359864 300.409032 
L 358.852262 308.319946 
L 359.34466 309.103394 
L 359.837059 298.555509 
L 360.329457 291.045873 
L 360.821855 296.854853 
L 361.314253 305.186154 
L 361.806651 305.931385 
L 362.29905 304.383597 
L 362.791448 300.084188 
L 364.268642 313.689431 
L 364.761041 312.332728 
L 365.253439 297.695627 
L 365.745837 305.186154 
L 366.238235 314.491987 
L 366.730633 311.893233 
L 367.71543 303.542824 
L 368.207828 305.625649 
L 368.700226 309.561998 
L 369.192624 293.625519 
L 369.685023 288.466228 
L 370.177421 295.249741 
L 370.669819 303.886777 
L 371.162217 305.49189 
L 371.654615 312.141643 
L 372.147014 309.007851 
L 372.639412 312.370945 
L 373.13181 307.995102 
L 373.624208 310.383662 
L 374.116606 316.746789 
L 374.609005 288.523553 
L 375.101403 279.982059 
L 375.593801 281.396087 
L 376.086199 272.89281 
L 376.578597 275.510673 
L 377.070995 267.408675 
L 377.563394 331.536758 
L 378.055792 333.715125 
L 378.54819 336.715158 
L 379.040588 299.510933 
L 379.532986 289.249676 
L 380.025385 290.052232 
L 380.517783 291.561803 
L 381.010181 279.294154 
L 381.502579 289.975798 
L 381.994977 291.236958 
L 382.487376 283.039417 
L 382.979774 270.294056 
L 383.472172 267.504217 
L 383.96457 274.803659 
L 384.456968 280.020276 
L 384.949367 279.962951 
L 385.441765 281.950233 
L 385.934163 285.427978 
L 386.426561 286.517162 
L 386.918959 280.689073 
L 387.411358 288.523553 
L 387.903756 292.708312 
L 388.396154 287.720997 
L 388.888552 284.873832 
L 389.38095 289.19235 
L 389.873349 283.306936 
L 390.365747 289.230567 
L 390.858145 281.606281 
L 391.350543 283.402478 
L 391.842941 286.708247 
L 392.33534 291.160524 
L 392.827738 293.071373 
L 393.320136 289.689171 
L 393.812534 288.064949 
L 394.304932 284.606313 
L 394.797331 296.377141 
L 395.289729 299.68291 
L 395.782127 300.332598 
L 396.274525 299.319848 
L 396.766923 288.829289 
L 397.259322 286.268752 
L 397.75172 277.039352 
L 398.244118 277.708149 
L 398.736516 293.854821 
L 399.228914 302.893135 
L 399.721313 297.772061 
L 400.213711 291.122307 
L 400.706109 288.963048 
L 401.690905 301.651084 
L 402.183304 301.307131 
L 402.675702 296.759311 
L 403.660498 307.479172 
L 404.152896 300.94407 
L 404.645295 298.975896 
L 405.137693 303.198871 
L 405.630091 294.848462 
L 406.122489 295.555476 
L 407.107286 289.19235 
L 407.599684 290.893005 
L 408.092082 309.753082 
L 408.58448 297.523651 
L 409.076878 299.281631 
L 409.569277 291.619128 
L 410.061675 298.440858 
L 410.554073 302.128796 
L 411.046471 287.644563 
L 411.538869 289.001265 
L 412.031268 292.650986 
L 413.016064 361.5753 
L 413.508462 361.5753 
L 414.00086 355.040197 
L 414.493259 308.549248 
L 414.985657 313.307261 
L 415.478055 313.57478 
L 415.970453 314.988808 
L 416.462851 301.44089 
L 416.95525 302.912244 
L 417.447648 307.7658 
L 417.940046 307.899559 
L 418.432444 309.046068 
L 419.417241 291.026765 
L 419.909639 296.740203 
L 420.402037 307.498281 
L 420.894435 310.402771 
L 421.386833 297.791169 
L 421.879232 308.568356 
L 422.37163 303.103329 
L 422.864028 304.268947 
L 423.356426 312.581138 
L 423.848824 311.243544 
L 424.341223 317.549345 
L 425.818417 293.98858 
L 426.310815 293.453543 
L 426.803214 312.56203 
L 427.295612 319.823255 
L 427.78801 319.593953 
L 428.280408 304.192513 
L 428.772806 312.065209 
L 429.265205 305.950493 
L 430.250001 323.511193 
L 430.742399 315.562063 
L 431.234797 316.536595 
L 431.727196 316.0971 
L 432.219594 327.160914 
L 432.711992 328.078122 
L 433.20439 316.899657 
L 433.696788 318.275468 
L 434.189187 313.460129 
L 434.681585 313.976058 
L 435.173983 317.453803 
L 435.666381 321.810538 
L 436.158779 317.549345 
L 436.651177 319.460194 
L 437.143576 320.434727 
L 437.635974 327.371108 
L 438.62077 325.517584 
L 439.605567 314.300902 
L 440.097965 310.746724 
L 440.590363 325.727778 
L 441.082761 331.670517 
L 441.575159 322.861505 
L 442.067558 330.256489 
L 442.559956 327.08448 
L 443.052354 329.49215 
L 443.544752 324.619485 
L 444.03715 326.511226 
L 444.529549 318.829614 
L 445.021947 319.746821 
L 445.514345 323.377434 
L 446.006743 328.498508 
L 446.499141 331.154588 
L 446.99154 327.791494 
L 447.483938 322.555769 
L 447.976336 319.020699 
L 448.468734 301.727518 
L 448.961132 289.631845 
L 449.453531 293.300675 
L 449.945929 285.771931 
L 450.438327 289.230567 
L 450.930725 293.549085 
L 451.423123 294.733811 
L 451.915522 297.141481 
L 452.40792 292.994939 
L 452.900318 297.542759 
L 453.392716 284.969374 
L 453.885114 281.224111 
L 454.377513 282.045776 
L 455.362309 295.364391 
L 455.854707 291.447152 
L 456.347105 281.319653 
L 456.839504 285.982124 
L 457.331902 296.625552 
L 457.8243 303.695692 
L 458.316698 292.001298 
L 458.809096 289.975798 
L 459.301495 300.94407 
L 459.793893 306.676616 
L 460.286291 300.504575 
L 460.778689 305.10972 
L 461.271087 299.319848 
L 461.763486 300.160622 
L 462.255884 303.542824 
L 462.748282 300.332598 
L 463.24068 294.638269 
L 463.733078 283.192285 
L 464.225477 295.077764 
L 464.717875 300.141513 
L 465.210273 300.122405 
L 465.702671 303.160654 
L 466.195069 305.453673 
L 466.687468 305.319913 
L 467.179866 297.886712 
L 467.672264 301.096938 
L 468.164662 292.899397 
L 468.65706 305.835842 
L 469.149459 307.364521 
L 469.641857 307.421847 
L 470.134255 301.345348 
L 470.626653 292.689203 
L 471.119051 312.581138 
L 471.61145 362.053012 
L 472.103848 354.906438 
L 472.596246 350.759896 
L 473.088644 319.918798 
L 473.581042 342.294836 
L 474.073441 376.212401 
L 474.565839 346.231185 
L 475.058237 250.765182 
L 475.550635 333.27563 
L 476.043033 323.68317 
L 476.535432 350.339509 
L 477.02783 336.638724 
L 477.520228 330.982612 
L 478.012626 238.593076 
L 478.505024 250.134602 
L 478.997423 257.682455 
L 479.489821 269.166655 
L 479.982219 258.580554 
L 480.474617 237.389241 
L 480.967015 285.771931 
L 481.459414 279.71454 
L 481.951812 277.746366 
L 482.44421 274.096645 
L 482.936608 277.555281 
L 483.429006 300.791202 
L 483.921405 300.485466 
L 484.906201 270.408707 
L 485.398599 266.529684 
L 485.890997 274.689008 
L 486.383396 280.077602 
L 487.368192 262.650661 
L 487.86059 272.204905 
L 488.352988 268.173014 
L 488.845387 273.141221 
L 489.337785 269.4915 
L 489.830183 272.548858 
L 490.322581 268.077472 
L 491.307378 273.27498 
L 491.799776 275.376914 
L 492.292174 266.223948 
L 492.784572 267.924604 
L 494.261767 276.924701 
L 494.754165 271.230372 
L 495.246563 271.039287 
L 495.738961 262.765312 
L 496.231359 266.644335 
L 496.723758 278.988418 
L 497.216156 366.467073 
L 497.708554 386.053272 
L 498.200952 352.09749 
L 498.69335 341.454063 
L 499.185749 334.517682 
L 499.678147 337.632365 
L 500.170545 339.791624 
L 500.662943 337.288413 
L 501.155341 331.804277 
L 501.64774 335.778842 
L 502.140138 333.466715 
L 502.632536 336.065469 
L 503.124934 320.109882 
L 503.617332 327.887037 
L 504.109731 319.937906 
L 504.602129 327.581301 
L 505.094527 326.893395 
L 505.586925 334.861635 
L 506.079323 330.294706 
L 506.571722 327.581301 
L 507.06412 332.568616 
L 507.556518 336.141903 
L 508.048916 333.524041 
L 508.541314 337.976318 
L 509.033713 327.887037 
L 509.526111 312.600247 
L 510.018509 317.816864 
L 510.510907 326.58766 
L 511.003305 329.473041 
L 511.495704 333.676908 
L 511.988102 333.218305 
L 512.4805 324.447509 
L 512.972898 326.931612 
L 513.465296 325.95708 
L 513.957695 328.766027 
L 514.450093 335.071828 
L 514.942491 333.772451 
L 515.434889 329.071763 
L 515.927287 325.82332 
L 516.419686 323.530302 
L 516.912084 326.816961 
L 517.404482 322.727745 
L 517.89688 331.192805 
L 518.389278 322.211816 
L 518.881677 321.447477 
L 519.374075 333.543149 
L 519.866473 334.116404 
L 520.851269 328.498508 
L 521.343668 324.160882 
L 521.836066 332.89346 
L 523.31326 318.61942 
L 523.805659 323.836037 
L 524.298057 326.759636 
L 524.790455 337.632365 
L 525.282853 338.778875 
L 525.775251 328.383857 
L 526.26765 332.549508 
L 526.760048 334.135512 
L 527.252446 342.046426 
L 527.744844 344.205685 
L 528.237242 343.116501 
L 528.729641 329.033546 
L 529.222039 339.352129 
L 529.714437 337.804342 
L 530.206835 332.969894 
L 531.191632 334.03997 
L 531.68403 328.957112 
L 532.176428 336.94446 
L 532.668826 338.511356 
L 533.161224 339.390346 
L 533.653623 342.562355 
L 534.146021 334.689658 
L 534.638419 344.129251 
L 535.130817 345.581496 
L 535.623215 343.861732 
L 536.115614 334.995394 
L 536.608012 343.727973 
L 537.10041 342.829874 
L 537.592808 333.715125 
L 538.085206 340.154686 
L 538.577605 430.92 
L 539.070003 415.977163 
L 539.562401 410.07264 
L 540.547197 368.01486 
L 541.039596 300.026862 
L 541.531994 272.89281 
L 542.024392 277.937451 
L 542.51679 267.446892 
L 543.009188 234.618511 
L 543.501587 294.428076 
L 543.993985 291.08409 
L 544.486383 277.306871 
L 544.978781 272.988353 
L 545.963578 308.205295 
L 546.455976 299.854886 
L 546.948374 277.975668 
L 547.440772 272.873702 
L 547.93317 327.065372 
L 548.425569 298.230665 
L 548.917967 304.307164 
L 549.410365 292.421684 
L 549.902763 287.357935 
L 550.395161 303.867668 
L 550.88756 306.084253 
L 551.379958 270.542467 
L 551.872356 262.956397 
L 552.364754 267.102939 
L 552.857152 279.236828 
L 553.349551 276.332338 
L 553.841949 276.007494 
L 554.334347 273.580716 
L 555.811542 289.765605 
L 556.30394 282.75279 
L 556.796338 279.122177 
L 557.288736 287.338827 
L 558.273532 278.931092 
L 558.765931 280.173144 
L 559.258329 279.943842 
L 559.750727 274.478815 
L 560.243125 276.045711 
L 560.735523 280.517097 
L 561.227922 275.663541 
L 561.72032 281.548955 
L 562.705116 274.860985 
L 563.197514 281.873799 
L 563.689913 279.408805 
L 564.182311 287.529912 
L 564.674709 286.115884 
L 565.659505 265.058331 
L 566.151904 272.319556 
L 566.644302 276.026602 
L 567.1367 282.580814 
L 567.629098 282.695464 
L 568.613895 271.153938 
L 569.106293 289.32611 
L 569.598691 372.18051 
L 570.091089 393.238063 
L 570.583487 398.83685 
L 571.568284 368.511681 
L 572.060682 362.817351 
L 572.55308 372.887524 
L 573.045478 366.161337 
L 573.537877 367.231412 
L 574.030275 359.16763 
L 575.015071 367.919318 
L 575.507469 368.39703 
L 575.999868 371.473496 
L 576.492266 372.906633 
L 576.984664 368.588115 
L 577.477062 367.881101 
L 577.96946 377.416236 
L 578.461859 376.441703 
L 578.954257 374.569071 
L 579.446655 368.435247 
L 579.939053 364.766417 
L 580.92385 386.339899 
L 581.416248 388.556484 
L 581.908646 386.435442 
L 582.401044 360.237706 
L 582.893442 363.887427 
L 583.385841 370.441638 
L 583.878239 364.250488 
L 584.370637 368.817416 
L 584.863035 364.116729 
L 585.355433 357.849145 
L 585.847832 364.556224 
L 586.34023 369.333346 
L 586.832628 370.728265 
L 587.325026 373.174152 
L 587.817424 371.320628 
L 588.309823 366.256879 
L 588.802221 368.072185 
L 589.294619 377.49267 
L 589.787017 376.632788 
L 590.279415 368.148619 
L 590.771814 366.524398 
L 591.264212 370.384312 
L 591.75661 369.40978 
L 592.249008 380.2634 
L 592.741406 376.881198 
L 593.233805 359.568909 
L 593.726203 367.785558 
L 594.218601 364.709092 
L 594.710999 378.600962 
L 595.203397 385.766645 
L 595.695796 380.626462 
L 596.188194 367.231412 
L 596.680592 368.89385 
L 597.17299 368.607223 
L 597.665388 372.639114 
L 598.157787 373.346128 
L 599.142583 363.142196 
L 599.634981 374.167793 
L 600.127379 375.333411 
L 600.619778 369.830166 
L 601.604574 381.581886 
L 602.096972 383.913121 
L 602.58937 376.021316 
L 603.081769 378.772938 
L 603.574167 379.078674 
L 604.066565 373.632755 
L 604.558963 343.708864 
L 605.051361 351.2185 
L 605.54376 347.530562 
L 606.036158 348.294901 
L 606.528556 333.982644 
L 607.513352 326.20549 
L 608.005751 325.402933 
L 608.498149 329.49215 
L 608.990547 340.689723 
L 609.482945 342.734331 
L 609.975343 339.199261 
L 610.467742 334.575007 
L 610.96014 332.587725 
L 611.452538 336.18012 
L 611.944936 337.078219 
L 612.437334 338.301162 
L 612.929733 341.11011 
L 613.422131 334.078187 
L 613.914529 334.517682 
L 614.406927 339.103719 
L 614.899325 345.715255 
L 615.391724 341.262978 
L 615.884122 339.275695 
L 616.37652 339.333021 
L 617.361316 343.212044 
L 617.853714 332.339314 
L 618.346113 351.868188 
L 618.838511 339.08461 
L 619.330909 337.231087 
L 619.330909 337.231087 
" style="fill:none;stroke:#1f77b4;stroke-linecap:square;stroke-width:1.5;"/>
   </g>
   <g id="patch_3">
    <path d="M 108 448.56 
L 108 60.48 
" style="fill:none;stroke:#000000;stroke-linecap:square;stroke-linejoin:miter;stroke-width:0.8;"/>
   </g>
   <g id="patch_4">
    <path d="M 643.68 448.56 
L 643.68 60.48 
" style="fill:none;stroke:#000000;stroke-linecap:square;stroke-linejoin:miter;stroke-width:0.8;"/>
   </g>
   <g id="patch_5">
    <path d="M 108 448.56 
L 643.68 448.56 
" style="fill:none;stroke:#000000;stroke-linecap:square;stroke-linejoin:miter;stroke-width:0.8;"/>
   </g>
   <g id="patch_6">
    <path d="M 108 60.48 
L 643.68 60.48 
" style="fill:none;stroke:#000000;stroke-linecap:square;stroke-linejoin:miter;stroke-width:0.8;"/>
   </g>
   <g id="text_32">
    <!-- docker - vmstat -->
    <g transform="translate(316.995469 54.48)scale(0.15 -0.15)">
     <defs>
      <path d="M 45.40625 46.390625 
L 45.40625 75.984375 
L 54.390625 75.984375 
L 54.390625 0 
L 45.40625 0 
L 45.40625 8.203125 
Q 42.578125 3.328125 38.25 0.953125 
Q 33.9375 -1.421875 27.875 -1.421875 
Q 17.96875 -1.421875 11.734375 6.484375 
Q 5.515625 14.40625 5.515625 27.296875 
Q 5.515625 40.1875 11.734375 48.09375 
Q 17.96875 56 27.875 56 
Q 33.9375 56 38.25 53.625 
Q 42.578125 51.265625 45.40625 46.390625 
z
M 14.796875 27.296875 
Q 14.796875 17.390625 18.875 11.75 
Q 22.953125 6.109375 30.078125 6.109375 
Q 37.203125 6.109375 41.296875 11.75 
Q 45.40625 17.390625 45.40625 27.296875 
Q 45.40625 37.203125 41.296875 42.84375 
Q 37.203125 48.484375 30.078125 48.484375 
Q 22.953125 48.484375 18.875 42.84375 
Q 14.796875 37.203125 14.796875 27.296875 
z
" id="DejaVuSans-100"/>
      <path d="M 30.609375 48.390625 
Q 23.390625 48.390625 19.1875 42.75 
Q 14.984375 37.109375 14.984375 27.296875 
Q 14.984375 17.484375 19.15625 11.84375 
Q 23.34375 6.203125 30.609375 6.203125 
Q 37.796875 6.203125 41.984375 11.859375 
Q 46.1875 17.53125 46.1875 27.296875 
Q 46.1875 37.015625 41.984375 42.703125 
Q 37.796875 48.390625 30.609375 48.390625 
z
M 30.609375 56 
Q 42.328125 56 49.015625 48.375 
Q 55.71875 40.765625 55.71875 27.296875 
Q 55.71875 13.875 49.015625 6.21875 
Q 42.328125 -1.421875 30.609375 -1.421875 
Q 18.84375 -1.421875 12.171875 6.21875 
Q 5.515625 13.875 5.515625 27.296875 
Q 5.515625 40.765625 12.171875 48.375 
Q 18.84375 56 30.609375 56 
z
" id="DejaVuSans-111"/>
      <path d="M 48.78125 52.59375 
L 48.78125 44.1875 
Q 44.96875 46.296875 41.140625 47.34375 
Q 37.3125 48.390625 33.40625 48.390625 
Q 24.65625 48.390625 19.8125 42.84375 
Q 14.984375 37.3125 14.984375 27.296875 
Q 14.984375 17.28125 19.8125 11.734375 
Q 24.65625 6.203125 33.40625 6.203125 
Q 37.3125 6.203125 41.140625 7.25 
Q 44.96875 8.296875 48.78125 10.40625 
L 48.78125 2.09375 
Q 45.015625 0.34375 40.984375 -0.53125 
Q 36.96875 -1.421875 32.421875 -1.421875 
Q 20.0625 -1.421875 12.78125 6.34375 
Q 5.515625 14.109375 5.515625 27.296875 
Q 5.515625 40.671875 12.859375 48.328125 
Q 20.21875 56 33.015625 56 
Q 37.15625 56 41.109375 55.140625 
Q 45.0625 54.296875 48.78125 52.59375 
z
" id="DejaVuSans-99"/>
      <path d="M 9.078125 75.984375 
L 18.109375 75.984375 
L 18.109375 31.109375 
L 44.921875 54.6875 
L 56.390625 54.6875 
L 27.390625 29.109375 
L 57.625 0 
L 45.90625 0 
L 18.109375 26.703125 
L 18.109375 0 
L 9.078125 0 
z
" id="DejaVuSans-107"/>
      <path d="M 41.109375 46.296875 
Q 39.59375 47.171875 37.8125 47.578125 
Q 36.03125 48 33.890625 48 
Q 26.265625 48 22.1875 43.046875 
Q 18.109375 38.09375 18.109375 28.8125 
L 18.109375 0 
L 9.078125 0 
L 9.078125 54.6875 
L 18.109375 54.6875 
L 18.109375 46.1875 
Q 20.953125 51.171875 25.484375 53.578125 
Q 30.03125 56 36.53125 56 
Q 37.453125 56 38.578125 55.875 
Q 39.703125 55.765625 41.0625 55.515625 
z
" id="DejaVuSans-114"/>
      <path id="DejaVuSans-32"/>
      <path d="M 4.890625 31.390625 
L 31.203125 31.390625 
L 31.203125 23.390625 
L 4.890625 23.390625 
z
" id="DejaVuSans-45"/>
      <path d="M 2.984375 54.6875 
L 12.5 54.6875 
L 29.59375 8.796875 
L 46.6875 54.6875 
L 56.203125 54.6875 
L 35.6875 0 
L 23.484375 0 
z
" id="DejaVuSans-118"/>
     </defs>
     <use xlink:href="#DejaVuSans-100"/>
     <use x="63.476562" xlink:href="#DejaVuSans-111"/>
     <use x="124.658203" xlink:href="#DejaVuSans-99"/>
     <use x="179.638672" xlink:href="#DejaVuSans-107"/>
     <use x="233.923828" xlink:href="#DejaVuSans-101"/>
     <use x="295.447266" xlink:href="#DejaVuSans-114"/>
     <use x="336.560547" xlink:href="#DejaVuSans-32"/>
     <use x="368.347656" xlink:href="#DejaVuSans-45"/>
     <use x="404.431641" xlink:href="#DejaVuSans-32"/>
     <use x="436.21875" xlink:href="#DejaVuSans-118"/>
     <use x="495.398438" xlink:href="#DejaVuSans-109"/>
     <use x="592.810547" xlink:href="#DejaVuSans-115"/>
     <use x="644.910156" xlink:href="#DejaVuSans-116"/>
     <use x="684.119141" xlink:href="#DejaVuSans-97"/>
     <use x="745.398438" xlink:href="#DejaVuSans-116"/>
    </g>
   </g>
   <g id="legend_1">
    <g id="patch_7">
     <path d="M 650.68 258.52 
L 654.68 258.52 
Q 656.68 258.52 656.68 256.52 
L 656.68 252.52 
Q 656.68 250.52 654.68 250.52 
L 650.68 250.52 
Q 648.68 250.52 648.68 252.52 
L 648.68 256.52 
Q 648.68 258.52 650.68 258.52 
z
" style="fill:#ffffff;opacity:0.8;stroke:#cccccc;stroke-linejoin:miter;"/>
    </g>
   </g>
  </g>
 </g>
 <defs>
  <clipPath id="pcbb573f1e6">
   <rect height="388.08" width="535.68" x="108" y="60.48"/>
  </clipPath>
 </defs>
</svg>
