<?xml version="1.0" encoding="utf-8" standalone="no"?>
<!DOCTYPE svg PUBLIC "-//W3C//DTD SVG 1.1//EN"
  "http://www.w3.org/Graphics/SVG/1.1/DTD/svg11.dtd">
<!-- Created with matplotlib (https://matplotlib.org/) -->
<svg height="504pt" version="1.1" viewBox="0 0 864 504" width="864pt" xmlns="http://www.w3.org/2000/svg" xmlns:xlink="http://www.w3.org/1999/xlink">
 <metadata>
  <rdf:RDF xmlns:cc="http://creativecommons.org/ns#" xmlns:dc="http://purl.org/dc/elements/1.1/" xmlns:rdf="http://www.w3.org/1999/02/22-rdf-syntax-ns#">
   <cc:Work>
    <dc:type rdf:resource="http://purl.org/dc/dcmitype/StillImage"/>
    <dc:date>2022-05-29T17:29:20.477667</dc:date>
    <dc:format>image/svg+xml</dc:format>
    <dc:creator>
     <cc:Agent>
      <dc:title>Matplotlib v3.3.4, https://matplotlib.org/</dc:title>
     </cc:Agent>
    </dc:creator>
   </cc:Work>
  </rdf:RDF>
 </metadata>
 <defs>
  <style type="text/css">*{stroke-linecap:butt;stroke-linejoin:round;}</style>
 </defs>
 <g id="figure_1">
  <g id="patch_1">
   <path d="M 0 504 
L 864 504 
L 864 0 
L 0 0 
z
" style="fill:#ffffff;"/>
  </g>
  <g id="axes_1">
   <g id="patch_2">
    <path d="M 108 448.56 
L 643.68 448.56 
L 643.68 60.48 
L 108 60.48 
z
" style="fill:#ffffff;"/>
   </g>
   <g id="matplotlib.axis_1">
    <g id="xtick_1">
     <g id="line2d_1">
      <defs>
       <path d="M 0 0 
L 0 3.5 
" id="m6a72cb5807" style="stroke:#000000;stroke-width:0.8;"/>
      </defs>
      <g>
       <use style="stroke:#000000;stroke-width:0.8;" x="132.349091" xlink:href="#m6a72cb5807" y="448.56"/>
      </g>
     </g>
     <g id="text_1">
      <!-- 23:54:09 -->
      <g transform="translate(135.108466 500.4725)rotate(-90)scale(0.1 -0.1)">
       <defs>
        <path d="M 19.1875 8.296875 
L 53.609375 8.296875 
L 53.609375 0 
L 7.328125 0 
L 7.328125 8.296875 
Q 12.9375 14.109375 22.625 23.890625 
Q 32.328125 33.6875 34.8125 36.53125 
Q 39.546875 41.84375 41.421875 45.53125 
Q 43.3125 49.21875 43.3125 52.78125 
Q 43.3125 58.59375 39.234375 62.25 
Q 35.15625 65.921875 28.609375 65.921875 
Q 23.96875 65.921875 18.8125 64.3125 
Q 13.671875 62.703125 7.8125 59.421875 
L 7.8125 69.390625 
Q 13.765625 71.78125 18.9375 73 
Q 24.125 74.21875 28.421875 74.21875 
Q 39.75 74.21875 46.484375 68.546875 
Q 53.21875 62.890625 53.21875 53.421875 
Q 53.21875 48.921875 51.53125 44.890625 
Q 49.859375 40.875 45.40625 35.40625 
Q 44.1875 33.984375 37.640625 27.21875 
Q 31.109375 20.453125 19.1875 8.296875 
z
" id="DejaVuSans-50"/>
        <path d="M 40.578125 39.3125 
Q 47.65625 37.796875 51.625 33 
Q 55.609375 28.21875 55.609375 21.1875 
Q 55.609375 10.40625 48.1875 4.484375 
Q 40.765625 -1.421875 27.09375 -1.421875 
Q 22.515625 -1.421875 17.65625 -0.515625 
Q 12.796875 0.390625 7.625 2.203125 
L 7.625 11.71875 
Q 11.71875 9.328125 16.59375 8.109375 
Q 21.484375 6.890625 26.8125 6.890625 
Q 36.078125 6.890625 40.9375 10.546875 
Q 45.796875 14.203125 45.796875 21.1875 
Q 45.796875 27.640625 41.28125 31.265625 
Q 36.765625 34.90625 28.71875 34.90625 
L 20.21875 34.90625 
L 20.21875 43.015625 
L 29.109375 43.015625 
Q 36.375 43.015625 40.234375 45.921875 
Q 44.09375 48.828125 44.09375 54.296875 
Q 44.09375 59.90625 40.109375 62.90625 
Q 36.140625 65.921875 28.71875 65.921875 
Q 24.65625 65.921875 20.015625 65.03125 
Q 15.375 64.15625 9.8125 62.3125 
L 9.8125 71.09375 
Q 15.4375 72.65625 20.34375 73.4375 
Q 25.25 74.21875 29.59375 74.21875 
Q 40.828125 74.21875 47.359375 69.109375 
Q 53.90625 64.015625 53.90625 55.328125 
Q 53.90625 49.265625 50.4375 45.09375 
Q 46.96875 40.921875 40.578125 39.3125 
z
" id="DejaVuSans-51"/>
        <path d="M 11.71875 12.40625 
L 22.015625 12.40625 
L 22.015625 0 
L 11.71875 0 
z
M 11.71875 51.703125 
L 22.015625 51.703125 
L 22.015625 39.3125 
L 11.71875 39.3125 
z
" id="DejaVuSans-58"/>
        <path d="M 10.796875 72.90625 
L 49.515625 72.90625 
L 49.515625 64.59375 
L 19.828125 64.59375 
L 19.828125 46.734375 
Q 21.96875 47.46875 24.109375 47.828125 
Q 26.265625 48.1875 28.421875 48.1875 
Q 40.625 48.1875 47.75 41.5 
Q 54.890625 34.8125 54.890625 23.390625 
Q 54.890625 11.625 47.5625 5.09375 
Q 40.234375 -1.421875 26.90625 -1.421875 
Q 22.3125 -1.421875 17.546875 -0.640625 
Q 12.796875 0.140625 7.71875 1.703125 
L 7.71875 11.625 
Q 12.109375 9.234375 16.796875 8.0625 
Q 21.484375 6.890625 26.703125 6.890625 
Q 35.15625 6.890625 40.078125 11.328125 
Q 45.015625 15.765625 45.015625 23.390625 
Q 45.015625 31 40.078125 35.4375 
Q 35.15625 39.890625 26.703125 39.890625 
Q 22.75 39.890625 18.8125 39.015625 
Q 14.890625 38.140625 10.796875 36.28125 
z
" id="DejaVuSans-53"/>
        <path d="M 37.796875 64.3125 
L 12.890625 25.390625 
L 37.796875 25.390625 
z
M 35.203125 72.90625 
L 47.609375 72.90625 
L 47.609375 25.390625 
L 58.015625 25.390625 
L 58.015625 17.1875 
L 47.609375 17.1875 
L 47.609375 0 
L 37.796875 0 
L 37.796875 17.1875 
L 4.890625 17.1875 
L 4.890625 26.703125 
z
" id="DejaVuSans-52"/>
        <path d="M 31.78125 66.40625 
Q 24.171875 66.40625 20.328125 58.90625 
Q 16.5 51.421875 16.5 36.375 
Q 16.5 21.390625 20.328125 13.890625 
Q 24.171875 6.390625 31.78125 6.390625 
Q 39.453125 6.390625 43.28125 13.890625 
Q 47.125 21.390625 47.125 36.375 
Q 47.125 51.421875 43.28125 58.90625 
Q 39.453125 66.40625 31.78125 66.40625 
z
M 31.78125 74.21875 
Q 44.046875 74.21875 50.515625 64.515625 
Q 56.984375 54.828125 56.984375 36.375 
Q 56.984375 17.96875 50.515625 8.265625 
Q 44.046875 -1.421875 31.78125 -1.421875 
Q 19.53125 -1.421875 13.0625 8.265625 
Q 6.59375 17.96875 6.59375 36.375 
Q 6.59375 54.828125 13.0625 64.515625 
Q 19.53125 74.21875 31.78125 74.21875 
z
" id="DejaVuSans-48"/>
        <path d="M 10.984375 1.515625 
L 10.984375 10.5 
Q 14.703125 8.734375 18.5 7.8125 
Q 22.3125 6.890625 25.984375 6.890625 
Q 35.75 6.890625 40.890625 13.453125 
Q 46.046875 20.015625 46.78125 33.40625 
Q 43.953125 29.203125 39.59375 26.953125 
Q 35.25 24.703125 29.984375 24.703125 
Q 19.046875 24.703125 12.671875 31.3125 
Q 6.296875 37.9375 6.296875 49.421875 
Q 6.296875 60.640625 12.9375 67.421875 
Q 19.578125 74.21875 30.609375 74.21875 
Q 43.265625 74.21875 49.921875 64.515625 
Q 56.59375 54.828125 56.59375 36.375 
Q 56.59375 19.140625 48.40625 8.859375 
Q 40.234375 -1.421875 26.421875 -1.421875 
Q 22.703125 -1.421875 18.890625 -0.6875 
Q 15.09375 0.046875 10.984375 1.515625 
z
M 30.609375 32.421875 
Q 37.25 32.421875 41.125 36.953125 
Q 45.015625 41.5 45.015625 49.421875 
Q 45.015625 57.28125 41.125 61.84375 
Q 37.25 66.40625 30.609375 66.40625 
Q 23.96875 66.40625 20.09375 61.84375 
Q 16.21875 57.28125 16.21875 49.421875 
Q 16.21875 41.5 20.09375 36.953125 
Q 23.96875 32.421875 30.609375 32.421875 
z
" id="DejaVuSans-57"/>
       </defs>
       <use xlink:href="#DejaVuSans-50"/>
       <use x="63.623047" xlink:href="#DejaVuSans-51"/>
       <use x="127.246094" xlink:href="#DejaVuSans-58"/>
       <use x="160.9375" xlink:href="#DejaVuSans-53"/>
       <use x="224.560547" xlink:href="#DejaVuSans-52"/>
       <use x="288.183594" xlink:href="#DejaVuSans-58"/>
       <use x="321.875" xlink:href="#DejaVuSans-48"/>
       <use x="385.498047" xlink:href="#DejaVuSans-57"/>
      </g>
     </g>
    </g>
    <g id="xtick_2">
     <g id="line2d_2">
      <g>
       <use style="stroke:#000000;stroke-width:0.8;" x="156.569351" xlink:href="#m6a72cb5807" y="448.56"/>
      </g>
     </g>
     <g id="text_2">
      <!-- 23:55:02 -->
      <g transform="translate(159.328726 500.4725)rotate(-90)scale(0.1 -0.1)">
       <use xlink:href="#DejaVuSans-50"/>
       <use x="63.623047" xlink:href="#DejaVuSans-51"/>
       <use x="127.246094" xlink:href="#DejaVuSans-58"/>
       <use x="160.9375" xlink:href="#DejaVuSans-53"/>
       <use x="224.560547" xlink:href="#DejaVuSans-53"/>
       <use x="288.183594" xlink:href="#DejaVuSans-58"/>
       <use x="321.875" xlink:href="#DejaVuSans-48"/>
       <use x="385.498047" xlink:href="#DejaVuSans-50"/>
      </g>
     </g>
    </g>
    <g id="xtick_3">
     <g id="line2d_3">
      <g>
       <use style="stroke:#000000;stroke-width:0.8;" x="180.78961" xlink:href="#m6a72cb5807" y="448.56"/>
      </g>
     </g>
     <g id="text_3">
      <!-- 23:55:55 -->
      <g transform="translate(183.548985 500.4725)rotate(-90)scale(0.1 -0.1)">
       <use xlink:href="#DejaVuSans-50"/>
       <use x="63.623047" xlink:href="#DejaVuSans-51"/>
       <use x="127.246094" xlink:href="#DejaVuSans-58"/>
       <use x="160.9375" xlink:href="#DejaVuSans-53"/>
       <use x="224.560547" xlink:href="#DejaVuSans-53"/>
       <use x="288.183594" xlink:href="#DejaVuSans-58"/>
       <use x="321.875" xlink:href="#DejaVuSans-53"/>
       <use x="385.498047" xlink:href="#DejaVuSans-53"/>
      </g>
     </g>
    </g>
    <g id="xtick_4">
     <g id="line2d_4">
      <g>
       <use style="stroke:#000000;stroke-width:0.8;" x="205.00987" xlink:href="#m6a72cb5807" y="448.56"/>
      </g>
     </g>
     <g id="text_4">
      <!-- 23:56:48 -->
      <g transform="translate(207.769245 500.4725)rotate(-90)scale(0.1 -0.1)">
       <defs>
        <path d="M 33.015625 40.375 
Q 26.375 40.375 22.484375 35.828125 
Q 18.609375 31.296875 18.609375 23.390625 
Q 18.609375 15.53125 22.484375 10.953125 
Q 26.375 6.390625 33.015625 6.390625 
Q 39.65625 6.390625 43.53125 10.953125 
Q 47.40625 15.53125 47.40625 23.390625 
Q 47.40625 31.296875 43.53125 35.828125 
Q 39.65625 40.375 33.015625 40.375 
z
M 52.59375 71.296875 
L 52.59375 62.3125 
Q 48.875 64.0625 45.09375 64.984375 
Q 41.3125 65.921875 37.59375 65.921875 
Q 27.828125 65.921875 22.671875 59.328125 
Q 17.53125 52.734375 16.796875 39.40625 
Q 19.671875 43.65625 24.015625 45.921875 
Q 28.375 48.1875 33.59375 48.1875 
Q 44.578125 48.1875 50.953125 41.515625 
Q 57.328125 34.859375 57.328125 23.390625 
Q 57.328125 12.15625 50.6875 5.359375 
Q 44.046875 -1.421875 33.015625 -1.421875 
Q 20.359375 -1.421875 13.671875 8.265625 
Q 6.984375 17.96875 6.984375 36.375 
Q 6.984375 53.65625 15.1875 63.9375 
Q 23.390625 74.21875 37.203125 74.21875 
Q 40.921875 74.21875 44.703125 73.484375 
Q 48.484375 72.75 52.59375 71.296875 
z
" id="DejaVuSans-54"/>
        <path d="M 31.78125 34.625 
Q 24.75 34.625 20.71875 30.859375 
Q 16.703125 27.09375 16.703125 20.515625 
Q 16.703125 13.921875 20.71875 10.15625 
Q 24.75 6.390625 31.78125 6.390625 
Q 38.8125 6.390625 42.859375 10.171875 
Q 46.921875 13.96875 46.921875 20.515625 
Q 46.921875 27.09375 42.890625 30.859375 
Q 38.875 34.625 31.78125 34.625 
z
M 21.921875 38.8125 
Q 15.578125 40.375 12.03125 44.71875 
Q 8.5 49.078125 8.5 55.328125 
Q 8.5 64.0625 14.71875 69.140625 
Q 20.953125 74.21875 31.78125 74.21875 
Q 42.671875 74.21875 48.875 69.140625 
Q 55.078125 64.0625 55.078125 55.328125 
Q 55.078125 49.078125 51.53125 44.71875 
Q 48 40.375 41.703125 38.8125 
Q 48.828125 37.15625 52.796875 32.3125 
Q 56.78125 27.484375 56.78125 20.515625 
Q 56.78125 9.90625 50.3125 4.234375 
Q 43.84375 -1.421875 31.78125 -1.421875 
Q 19.734375 -1.421875 13.25 4.234375 
Q 6.78125 9.90625 6.78125 20.515625 
Q 6.78125 27.484375 10.78125 32.3125 
Q 14.796875 37.15625 21.921875 38.8125 
z
M 18.3125 54.390625 
Q 18.3125 48.734375 21.84375 45.5625 
Q 25.390625 42.390625 31.78125 42.390625 
Q 38.140625 42.390625 41.71875 45.5625 
Q 45.3125 48.734375 45.3125 54.390625 
Q 45.3125 60.0625 41.71875 63.234375 
Q 38.140625 66.40625 31.78125 66.40625 
Q 25.390625 66.40625 21.84375 63.234375 
Q 18.3125 60.0625 18.3125 54.390625 
z
" id="DejaVuSans-56"/>
       </defs>
       <use xlink:href="#DejaVuSans-50"/>
       <use x="63.623047" xlink:href="#DejaVuSans-51"/>
       <use x="127.246094" xlink:href="#DejaVuSans-58"/>
       <use x="160.9375" xlink:href="#DejaVuSans-53"/>
       <use x="224.560547" xlink:href="#DejaVuSans-54"/>
       <use x="288.183594" xlink:href="#DejaVuSans-58"/>
       <use x="321.875" xlink:href="#DejaVuSans-52"/>
       <use x="385.498047" xlink:href="#DejaVuSans-56"/>
      </g>
     </g>
    </g>
    <g id="xtick_5">
     <g id="line2d_5">
      <g>
       <use style="stroke:#000000;stroke-width:0.8;" x="229.23013" xlink:href="#m6a72cb5807" y="448.56"/>
      </g>
     </g>
     <g id="text_5">
      <!-- 23:57:41 -->
      <g transform="translate(231.989505 500.4725)rotate(-90)scale(0.1 -0.1)">
       <defs>
        <path d="M 8.203125 72.90625 
L 55.078125 72.90625 
L 55.078125 68.703125 
L 28.609375 0 
L 18.3125 0 
L 43.21875 64.59375 
L 8.203125 64.59375 
z
" id="DejaVuSans-55"/>
        <path d="M 12.40625 8.296875 
L 28.515625 8.296875 
L 28.515625 63.921875 
L 10.984375 60.40625 
L 10.984375 69.390625 
L 28.421875 72.90625 
L 38.28125 72.90625 
L 38.28125 8.296875 
L 54.390625 8.296875 
L 54.390625 0 
L 12.40625 0 
z
" id="DejaVuSans-49"/>
       </defs>
       <use xlink:href="#DejaVuSans-50"/>
       <use x="63.623047" xlink:href="#DejaVuSans-51"/>
       <use x="127.246094" xlink:href="#DejaVuSans-58"/>
       <use x="160.9375" xlink:href="#DejaVuSans-53"/>
       <use x="224.560547" xlink:href="#DejaVuSans-55"/>
       <use x="288.183594" xlink:href="#DejaVuSans-58"/>
       <use x="321.875" xlink:href="#DejaVuSans-52"/>
       <use x="385.498047" xlink:href="#DejaVuSans-49"/>
      </g>
     </g>
    </g>
    <g id="xtick_6">
     <g id="line2d_6">
      <g>
       <use style="stroke:#000000;stroke-width:0.8;" x="253.45039" xlink:href="#m6a72cb5807" y="448.56"/>
      </g>
     </g>
     <g id="text_6">
      <!-- 23:58:33 -->
      <g transform="translate(256.209765 500.4725)rotate(-90)scale(0.1 -0.1)">
       <use xlink:href="#DejaVuSans-50"/>
       <use x="63.623047" xlink:href="#DejaVuSans-51"/>
       <use x="127.246094" xlink:href="#DejaVuSans-58"/>
       <use x="160.9375" xlink:href="#DejaVuSans-53"/>
       <use x="224.560547" xlink:href="#DejaVuSans-56"/>
       <use x="288.183594" xlink:href="#DejaVuSans-58"/>
       <use x="321.875" xlink:href="#DejaVuSans-51"/>
       <use x="385.498047" xlink:href="#DejaVuSans-51"/>
      </g>
     </g>
    </g>
    <g id="xtick_7">
     <g id="line2d_7">
      <g>
       <use style="stroke:#000000;stroke-width:0.8;" x="277.670649" xlink:href="#m6a72cb5807" y="448.56"/>
      </g>
     </g>
     <g id="text_7">
      <!-- 23:59:26 -->
      <g transform="translate(280.430024 500.4725)rotate(-90)scale(0.1 -0.1)">
       <use xlink:href="#DejaVuSans-50"/>
       <use x="63.623047" xlink:href="#DejaVuSans-51"/>
       <use x="127.246094" xlink:href="#DejaVuSans-58"/>
       <use x="160.9375" xlink:href="#DejaVuSans-53"/>
       <use x="224.560547" xlink:href="#DejaVuSans-57"/>
       <use x="288.183594" xlink:href="#DejaVuSans-58"/>
       <use x="321.875" xlink:href="#DejaVuSans-50"/>
       <use x="385.498047" xlink:href="#DejaVuSans-54"/>
      </g>
     </g>
    </g>
    <g id="xtick_8">
     <g id="line2d_8">
      <g>
       <use style="stroke:#000000;stroke-width:0.8;" x="301.890909" xlink:href="#m6a72cb5807" y="448.56"/>
      </g>
     </g>
     <g id="text_8">
      <!-- 00:00:19 -->
      <g transform="translate(304.650284 500.4725)rotate(-90)scale(0.1 -0.1)">
       <use xlink:href="#DejaVuSans-48"/>
       <use x="63.623047" xlink:href="#DejaVuSans-48"/>
       <use x="127.246094" xlink:href="#DejaVuSans-58"/>
       <use x="160.9375" xlink:href="#DejaVuSans-48"/>
       <use x="224.560547" xlink:href="#DejaVuSans-48"/>
       <use x="288.183594" xlink:href="#DejaVuSans-58"/>
       <use x="321.875" xlink:href="#DejaVuSans-49"/>
       <use x="385.498047" xlink:href="#DejaVuSans-57"/>
      </g>
     </g>
    </g>
    <g id="xtick_9">
     <g id="line2d_9">
      <g>
       <use style="stroke:#000000;stroke-width:0.8;" x="326.111169" xlink:href="#m6a72cb5807" y="448.56"/>
      </g>
     </g>
     <g id="text_9">
      <!-- 00:01:12 -->
      <g transform="translate(328.870544 500.4725)rotate(-90)scale(0.1 -0.1)">
       <use xlink:href="#DejaVuSans-48"/>
       <use x="63.623047" xlink:href="#DejaVuSans-48"/>
       <use x="127.246094" xlink:href="#DejaVuSans-58"/>
       <use x="160.9375" xlink:href="#DejaVuSans-48"/>
       <use x="224.560547" xlink:href="#DejaVuSans-49"/>
       <use x="288.183594" xlink:href="#DejaVuSans-58"/>
       <use x="321.875" xlink:href="#DejaVuSans-49"/>
       <use x="385.498047" xlink:href="#DejaVuSans-50"/>
      </g>
     </g>
    </g>
    <g id="xtick_10">
     <g id="line2d_10">
      <g>
       <use style="stroke:#000000;stroke-width:0.8;" x="350.331429" xlink:href="#m6a72cb5807" y="448.56"/>
      </g>
     </g>
     <g id="text_10">
      <!-- 00:02:05 -->
      <g transform="translate(353.090804 500.4725)rotate(-90)scale(0.1 -0.1)">
       <use xlink:href="#DejaVuSans-48"/>
       <use x="63.623047" xlink:href="#DejaVuSans-48"/>
       <use x="127.246094" xlink:href="#DejaVuSans-58"/>
       <use x="160.9375" xlink:href="#DejaVuSans-48"/>
       <use x="224.560547" xlink:href="#DejaVuSans-50"/>
       <use x="288.183594" xlink:href="#DejaVuSans-58"/>
       <use x="321.875" xlink:href="#DejaVuSans-48"/>
       <use x="385.498047" xlink:href="#DejaVuSans-53"/>
      </g>
     </g>
    </g>
    <g id="xtick_11">
     <g id="line2d_11">
      <g>
       <use style="stroke:#000000;stroke-width:0.8;" x="374.551688" xlink:href="#m6a72cb5807" y="448.56"/>
      </g>
     </g>
     <g id="text_11">
      <!-- 00:02:58 -->
      <g transform="translate(377.311063 500.4725)rotate(-90)scale(0.1 -0.1)">
       <use xlink:href="#DejaVuSans-48"/>
       <use x="63.623047" xlink:href="#DejaVuSans-48"/>
       <use x="127.246094" xlink:href="#DejaVuSans-58"/>
       <use x="160.9375" xlink:href="#DejaVuSans-48"/>
       <use x="224.560547" xlink:href="#DejaVuSans-50"/>
       <use x="288.183594" xlink:href="#DejaVuSans-58"/>
       <use x="321.875" xlink:href="#DejaVuSans-53"/>
       <use x="385.498047" xlink:href="#DejaVuSans-56"/>
      </g>
     </g>
    </g>
    <g id="xtick_12">
     <g id="line2d_12">
      <g>
       <use style="stroke:#000000;stroke-width:0.8;" x="398.771948" xlink:href="#m6a72cb5807" y="448.56"/>
      </g>
     </g>
     <g id="text_12">
      <!-- 00:03:51 -->
      <g transform="translate(401.531323 500.4725)rotate(-90)scale(0.1 -0.1)">
       <use xlink:href="#DejaVuSans-48"/>
       <use x="63.623047" xlink:href="#DejaVuSans-48"/>
       <use x="127.246094" xlink:href="#DejaVuSans-58"/>
       <use x="160.9375" xlink:href="#DejaVuSans-48"/>
       <use x="224.560547" xlink:href="#DejaVuSans-51"/>
       <use x="288.183594" xlink:href="#DejaVuSans-58"/>
       <use x="321.875" xlink:href="#DejaVuSans-53"/>
       <use x="385.498047" xlink:href="#DejaVuSans-49"/>
      </g>
     </g>
    </g>
    <g id="xtick_13">
     <g id="line2d_13">
      <g>
       <use style="stroke:#000000;stroke-width:0.8;" x="422.992208" xlink:href="#m6a72cb5807" y="448.56"/>
      </g>
     </g>
     <g id="text_13">
      <!-- 00:04:44 -->
      <g transform="translate(425.751583 500.4725)rotate(-90)scale(0.1 -0.1)">
       <use xlink:href="#DejaVuSans-48"/>
       <use x="63.623047" xlink:href="#DejaVuSans-48"/>
       <use x="127.246094" xlink:href="#DejaVuSans-58"/>
       <use x="160.9375" xlink:href="#DejaVuSans-48"/>
       <use x="224.560547" xlink:href="#DejaVuSans-52"/>
       <use x="288.183594" xlink:href="#DejaVuSans-58"/>
       <use x="321.875" xlink:href="#DejaVuSans-52"/>
       <use x="385.498047" xlink:href="#DejaVuSans-52"/>
      </g>
     </g>
    </g>
    <g id="xtick_14">
     <g id="line2d_14">
      <g>
       <use style="stroke:#000000;stroke-width:0.8;" x="447.212468" xlink:href="#m6a72cb5807" y="448.56"/>
      </g>
     </g>
     <g id="text_14">
      <!-- 00:05:37 -->
      <g transform="translate(449.971843 500.4725)rotate(-90)scale(0.1 -0.1)">
       <use xlink:href="#DejaVuSans-48"/>
       <use x="63.623047" xlink:href="#DejaVuSans-48"/>
       <use x="127.246094" xlink:href="#DejaVuSans-58"/>
       <use x="160.9375" xlink:href="#DejaVuSans-48"/>
       <use x="224.560547" xlink:href="#DejaVuSans-53"/>
       <use x="288.183594" xlink:href="#DejaVuSans-58"/>
       <use x="321.875" xlink:href="#DejaVuSans-51"/>
       <use x="385.498047" xlink:href="#DejaVuSans-55"/>
      </g>
     </g>
    </g>
    <g id="xtick_15">
     <g id="line2d_15">
      <g>
       <use style="stroke:#000000;stroke-width:0.8;" x="471.432727" xlink:href="#m6a72cb5807" y="448.56"/>
      </g>
     </g>
     <g id="text_15">
      <!-- 00:06:30 -->
      <g transform="translate(474.192102 500.4725)rotate(-90)scale(0.1 -0.1)">
       <use xlink:href="#DejaVuSans-48"/>
       <use x="63.623047" xlink:href="#DejaVuSans-48"/>
       <use x="127.246094" xlink:href="#DejaVuSans-58"/>
       <use x="160.9375" xlink:href="#DejaVuSans-48"/>
       <use x="224.560547" xlink:href="#DejaVuSans-54"/>
       <use x="288.183594" xlink:href="#DejaVuSans-58"/>
       <use x="321.875" xlink:href="#DejaVuSans-51"/>
       <use x="385.498047" xlink:href="#DejaVuSans-48"/>
      </g>
     </g>
    </g>
    <g id="xtick_16">
     <g id="line2d_16">
      <g>
       <use style="stroke:#000000;stroke-width:0.8;" x="495.652987" xlink:href="#m6a72cb5807" y="448.56"/>
      </g>
     </g>
     <g id="text_16">
      <!-- 00:07:23 -->
      <g transform="translate(498.412362 500.4725)rotate(-90)scale(0.1 -0.1)">
       <use xlink:href="#DejaVuSans-48"/>
       <use x="63.623047" xlink:href="#DejaVuSans-48"/>
       <use x="127.246094" xlink:href="#DejaVuSans-58"/>
       <use x="160.9375" xlink:href="#DejaVuSans-48"/>
       <use x="224.560547" xlink:href="#DejaVuSans-55"/>
       <use x="288.183594" xlink:href="#DejaVuSans-58"/>
       <use x="321.875" xlink:href="#DejaVuSans-50"/>
       <use x="385.498047" xlink:href="#DejaVuSans-51"/>
      </g>
     </g>
    </g>
    <g id="xtick_17">
     <g id="line2d_17">
      <g>
       <use style="stroke:#000000;stroke-width:0.8;" x="519.873247" xlink:href="#m6a72cb5807" y="448.56"/>
      </g>
     </g>
     <g id="text_17">
      <!-- 00:08:16 -->
      <g transform="translate(522.632622 500.4725)rotate(-90)scale(0.1 -0.1)">
       <use xlink:href="#DejaVuSans-48"/>
       <use x="63.623047" xlink:href="#DejaVuSans-48"/>
       <use x="127.246094" xlink:href="#DejaVuSans-58"/>
       <use x="160.9375" xlink:href="#DejaVuSans-48"/>
       <use x="224.560547" xlink:href="#DejaVuSans-56"/>
       <use x="288.183594" xlink:href="#DejaVuSans-58"/>
       <use x="321.875" xlink:href="#DejaVuSans-49"/>
       <use x="385.498047" xlink:href="#DejaVuSans-54"/>
      </g>
     </g>
    </g>
    <g id="xtick_18">
     <g id="line2d_18">
      <g>
       <use style="stroke:#000000;stroke-width:0.8;" x="544.093506" xlink:href="#m6a72cb5807" y="448.56"/>
      </g>
     </g>
     <g id="text_18">
      <!-- 00:09:09 -->
      <g transform="translate(546.852881 500.4725)rotate(-90)scale(0.1 -0.1)">
       <use xlink:href="#DejaVuSans-48"/>
       <use x="63.623047" xlink:href="#DejaVuSans-48"/>
       <use x="127.246094" xlink:href="#DejaVuSans-58"/>
       <use x="160.9375" xlink:href="#DejaVuSans-48"/>
       <use x="224.560547" xlink:href="#DejaVuSans-57"/>
       <use x="288.183594" xlink:href="#DejaVuSans-58"/>
       <use x="321.875" xlink:href="#DejaVuSans-48"/>
       <use x="385.498047" xlink:href="#DejaVuSans-57"/>
      </g>
     </g>
    </g>
    <g id="xtick_19">
     <g id="line2d_19">
      <g>
       <use style="stroke:#000000;stroke-width:0.8;" x="568.313766" xlink:href="#m6a72cb5807" y="448.56"/>
      </g>
     </g>
     <g id="text_19">
      <!-- 00:10:02 -->
      <g transform="translate(571.073141 500.4725)rotate(-90)scale(0.1 -0.1)">
       <use xlink:href="#DejaVuSans-48"/>
       <use x="63.623047" xlink:href="#DejaVuSans-48"/>
       <use x="127.246094" xlink:href="#DejaVuSans-58"/>
       <use x="160.9375" xlink:href="#DejaVuSans-49"/>
       <use x="224.560547" xlink:href="#DejaVuSans-48"/>
       <use x="288.183594" xlink:href="#DejaVuSans-58"/>
       <use x="321.875" xlink:href="#DejaVuSans-48"/>
       <use x="385.498047" xlink:href="#DejaVuSans-50"/>
      </g>
     </g>
    </g>
    <g id="xtick_20">
     <g id="line2d_20">
      <g>
       <use style="stroke:#000000;stroke-width:0.8;" x="592.534026" xlink:href="#m6a72cb5807" y="448.56"/>
      </g>
     </g>
     <g id="text_20">
      <!-- 00:10:55 -->
      <g transform="translate(595.293401 500.4725)rotate(-90)scale(0.1 -0.1)">
       <use xlink:href="#DejaVuSans-48"/>
       <use x="63.623047" xlink:href="#DejaVuSans-48"/>
       <use x="127.246094" xlink:href="#DejaVuSans-58"/>
       <use x="160.9375" xlink:href="#DejaVuSans-49"/>
       <use x="224.560547" xlink:href="#DejaVuSans-48"/>
       <use x="288.183594" xlink:href="#DejaVuSans-58"/>
       <use x="321.875" xlink:href="#DejaVuSans-53"/>
       <use x="385.498047" xlink:href="#DejaVuSans-53"/>
      </g>
     </g>
    </g>
    <g id="xtick_21">
     <g id="line2d_21">
      <g>
       <use style="stroke:#000000;stroke-width:0.8;" x="616.754286" xlink:href="#m6a72cb5807" y="448.56"/>
      </g>
     </g>
     <g id="text_21">
      <!-- 00:11:48 -->
      <g transform="translate(619.513661 500.4725)rotate(-90)scale(0.1 -0.1)">
       <use xlink:href="#DejaVuSans-48"/>
       <use x="63.623047" xlink:href="#DejaVuSans-48"/>
       <use x="127.246094" xlink:href="#DejaVuSans-58"/>
       <use x="160.9375" xlink:href="#DejaVuSans-49"/>
       <use x="224.560547" xlink:href="#DejaVuSans-49"/>
       <use x="288.183594" xlink:href="#DejaVuSans-58"/>
       <use x="321.875" xlink:href="#DejaVuSans-52"/>
       <use x="385.498047" xlink:href="#DejaVuSans-56"/>
      </g>
     </g>
    </g>
    <g id="text_22">
     <!-- timestamp -->
     <g transform="translate(354.264375 510.55125)scale(0.08 -0.08)">
      <defs>
       <path d="M 18.3125 70.21875 
L 18.3125 54.6875 
L 36.8125 54.6875 
L 36.8125 47.703125 
L 18.3125 47.703125 
L 18.3125 18.015625 
Q 18.3125 11.328125 20.140625 9.421875 
Q 21.96875 7.515625 27.59375 7.515625 
L 36.8125 7.515625 
L 36.8125 0 
L 27.59375 0 
Q 17.1875 0 13.234375 3.875 
Q 9.28125 7.765625 9.28125 18.015625 
L 9.28125 47.703125 
L 2.6875 47.703125 
L 2.6875 54.6875 
L 9.28125 54.6875 
L 9.28125 70.21875 
z
" id="DejaVuSans-116"/>
       <path d="M 9.421875 54.6875 
L 18.40625 54.6875 
L 18.40625 0 
L 9.421875 0 
z
M 9.421875 75.984375 
L 18.40625 75.984375 
L 18.40625 64.59375 
L 9.421875 64.59375 
z
" id="DejaVuSans-105"/>
       <path d="M 52 44.1875 
Q 55.375 50.25 60.0625 53.125 
Q 64.75 56 71.09375 56 
Q 79.640625 56 84.28125 50.015625 
Q 88.921875 44.046875 88.921875 33.015625 
L 88.921875 0 
L 79.890625 0 
L 79.890625 32.71875 
Q 79.890625 40.578125 77.09375 44.375 
Q 74.3125 48.1875 68.609375 48.1875 
Q 61.625 48.1875 57.5625 43.546875 
Q 53.515625 38.921875 53.515625 30.90625 
L 53.515625 0 
L 44.484375 0 
L 44.484375 32.71875 
Q 44.484375 40.625 41.703125 44.40625 
Q 38.921875 48.1875 33.109375 48.1875 
Q 26.21875 48.1875 22.15625 43.53125 
Q 18.109375 38.875 18.109375 30.90625 
L 18.109375 0 
L 9.078125 0 
L 9.078125 54.6875 
L 18.109375 54.6875 
L 18.109375 46.1875 
Q 21.1875 51.21875 25.484375 53.609375 
Q 29.78125 56 35.6875 56 
Q 41.65625 56 45.828125 52.96875 
Q 50 49.953125 52 44.1875 
z
" id="DejaVuSans-109"/>
       <path d="M 56.203125 29.59375 
L 56.203125 25.203125 
L 14.890625 25.203125 
Q 15.484375 15.921875 20.484375 11.0625 
Q 25.484375 6.203125 34.421875 6.203125 
Q 39.59375 6.203125 44.453125 7.46875 
Q 49.3125 8.734375 54.109375 11.28125 
L 54.109375 2.78125 
Q 49.265625 0.734375 44.1875 -0.34375 
Q 39.109375 -1.421875 33.890625 -1.421875 
Q 20.796875 -1.421875 13.15625 6.1875 
Q 5.515625 13.8125 5.515625 26.8125 
Q 5.515625 40.234375 12.765625 48.109375 
Q 20.015625 56 32.328125 56 
Q 43.359375 56 49.78125 48.890625 
Q 56.203125 41.796875 56.203125 29.59375 
z
M 47.21875 32.234375 
Q 47.125 39.59375 43.09375 43.984375 
Q 39.0625 48.390625 32.421875 48.390625 
Q 24.90625 48.390625 20.390625 44.140625 
Q 15.875 39.890625 15.1875 32.171875 
z
" id="DejaVuSans-101"/>
       <path d="M 44.28125 53.078125 
L 44.28125 44.578125 
Q 40.484375 46.53125 36.375 47.5 
Q 32.28125 48.484375 27.875 48.484375 
Q 21.1875 48.484375 17.84375 46.4375 
Q 14.5 44.390625 14.5 40.28125 
Q 14.5 37.15625 16.890625 35.375 
Q 19.28125 33.59375 26.515625 31.984375 
L 29.59375 31.296875 
Q 39.15625 29.25 43.1875 25.515625 
Q 47.21875 21.78125 47.21875 15.09375 
Q 47.21875 7.46875 41.1875 3.015625 
Q 35.15625 -1.421875 24.609375 -1.421875 
Q 20.21875 -1.421875 15.453125 -0.5625 
Q 10.6875 0.296875 5.421875 2 
L 5.421875 11.28125 
Q 10.40625 8.6875 15.234375 7.390625 
Q 20.0625 6.109375 24.8125 6.109375 
Q 31.15625 6.109375 34.5625 8.28125 
Q 37.984375 10.453125 37.984375 14.40625 
Q 37.984375 18.0625 35.515625 20.015625 
Q 33.0625 21.96875 24.703125 23.78125 
L 21.578125 24.515625 
Q 13.234375 26.265625 9.515625 29.90625 
Q 5.8125 33.546875 5.8125 39.890625 
Q 5.8125 47.609375 11.28125 51.796875 
Q 16.75 56 26.8125 56 
Q 31.78125 56 36.171875 55.265625 
Q 40.578125 54.546875 44.28125 53.078125 
z
" id="DejaVuSans-115"/>
       <path d="M 34.28125 27.484375 
Q 23.390625 27.484375 19.1875 25 
Q 14.984375 22.515625 14.984375 16.5 
Q 14.984375 11.71875 18.140625 8.90625 
Q 21.296875 6.109375 26.703125 6.109375 
Q 34.1875 6.109375 38.703125 11.40625 
Q 43.21875 16.703125 43.21875 25.484375 
L 43.21875 27.484375 
z
M 52.203125 31.203125 
L 52.203125 0 
L 43.21875 0 
L 43.21875 8.296875 
Q 40.140625 3.328125 35.546875 0.953125 
Q 30.953125 -1.421875 24.3125 -1.421875 
Q 15.921875 -1.421875 10.953125 3.296875 
Q 6 8.015625 6 15.921875 
Q 6 25.140625 12.171875 29.828125 
Q 18.359375 34.515625 30.609375 34.515625 
L 43.21875 34.515625 
L 43.21875 35.40625 
Q 43.21875 41.609375 39.140625 45 
Q 35.0625 48.390625 27.6875 48.390625 
Q 23 48.390625 18.546875 47.265625 
Q 14.109375 46.140625 10.015625 43.890625 
L 10.015625 52.203125 
Q 14.9375 54.109375 19.578125 55.046875 
Q 24.21875 56 28.609375 56 
Q 40.484375 56 46.34375 49.84375 
Q 52.203125 43.703125 52.203125 31.203125 
z
" id="DejaVuSans-97"/>
       <path d="M 18.109375 8.203125 
L 18.109375 -20.796875 
L 9.078125 -20.796875 
L 9.078125 54.6875 
L 18.109375 54.6875 
L 18.109375 46.390625 
Q 20.953125 51.265625 25.265625 53.625 
Q 29.59375 56 35.59375 56 
Q 45.5625 56 51.78125 48.09375 
Q 58.015625 40.1875 58.015625 27.296875 
Q 58.015625 14.40625 51.78125 6.484375 
Q 45.5625 -1.421875 35.59375 -1.421875 
Q 29.59375 -1.421875 25.265625 0.953125 
Q 20.953125 3.328125 18.109375 8.203125 
z
M 48.6875 27.296875 
Q 48.6875 37.203125 44.609375 42.84375 
Q 40.53125 48.484375 33.40625 48.484375 
Q 26.265625 48.484375 22.1875 42.84375 
Q 18.109375 37.203125 18.109375 27.296875 
Q 18.109375 17.390625 22.1875 11.75 
Q 26.265625 6.109375 33.40625 6.109375 
Q 40.53125 6.109375 44.609375 11.75 
Q 48.6875 17.390625 48.6875 27.296875 
z
" id="DejaVuSans-112"/>
      </defs>
      <use xlink:href="#DejaVuSans-116"/>
      <use x="39.208984" xlink:href="#DejaVuSans-105"/>
      <use x="66.992188" xlink:href="#DejaVuSans-109"/>
      <use x="164.404297" xlink:href="#DejaVuSans-101"/>
      <use x="225.927734" xlink:href="#DejaVuSans-115"/>
      <use x="278.027344" xlink:href="#DejaVuSans-116"/>
      <use x="317.236328" xlink:href="#DejaVuSans-97"/>
      <use x="378.515625" xlink:href="#DejaVuSans-109"/>
      <use x="475.927734" xlink:href="#DejaVuSans-112"/>
     </g>
    </g>
   </g>
   <g id="matplotlib.axis_2">
    <g id="ytick_1">
     <g id="line2d_22">
      <defs>
       <path d="M 0 0 
L -3.5 0 
" id="mcddc31ead0" style="stroke:#000000;stroke-width:0.8;"/>
      </defs>
      <g>
       <use style="stroke:#000000;stroke-width:0.8;" x="108" xlink:href="#mcddc31ead0" y="367.894166"/>
      </g>
     </g>
     <g id="text_23">
      <!-- 11200 -->
      <g transform="translate(69.1875 371.693385)scale(0.1 -0.1)">
       <use xlink:href="#DejaVuSans-49"/>
       <use x="63.623047" xlink:href="#DejaVuSans-49"/>
       <use x="127.246094" xlink:href="#DejaVuSans-50"/>
       <use x="190.869141" xlink:href="#DejaVuSans-48"/>
       <use x="254.492188" xlink:href="#DejaVuSans-48"/>
      </g>
     </g>
    </g>
    <g id="ytick_2">
     <g id="line2d_23">
      <g>
       <use style="stroke:#000000;stroke-width:0.8;" x="108" xlink:href="#mcddc31ead0" y="282.592709"/>
      </g>
     </g>
     <g id="text_24">
      <!-- 11400 -->
      <g transform="translate(69.1875 286.391928)scale(0.1 -0.1)">
       <use xlink:href="#DejaVuSans-49"/>
       <use x="63.623047" xlink:href="#DejaVuSans-49"/>
       <use x="127.246094" xlink:href="#DejaVuSans-52"/>
       <use x="190.869141" xlink:href="#DejaVuSans-48"/>
       <use x="254.492188" xlink:href="#DejaVuSans-48"/>
      </g>
     </g>
    </g>
    <g id="ytick_3">
     <g id="line2d_24">
      <g>
       <use style="stroke:#000000;stroke-width:0.8;" x="108" xlink:href="#mcddc31ead0" y="197.291253"/>
      </g>
     </g>
     <g id="text_25">
      <!-- 11600 -->
      <g transform="translate(69.1875 201.090472)scale(0.1 -0.1)">
       <use xlink:href="#DejaVuSans-49"/>
       <use x="63.623047" xlink:href="#DejaVuSans-49"/>
       <use x="127.246094" xlink:href="#DejaVuSans-54"/>
       <use x="190.869141" xlink:href="#DejaVuSans-48"/>
       <use x="254.492188" xlink:href="#DejaVuSans-48"/>
      </g>
     </g>
    </g>
    <g id="ytick_4">
     <g id="line2d_25">
      <g>
       <use style="stroke:#000000;stroke-width:0.8;" x="108" xlink:href="#mcddc31ead0" y="111.989796"/>
      </g>
     </g>
     <g id="text_26">
      <!-- 11800 -->
      <g transform="translate(69.1875 115.789015)scale(0.1 -0.1)">
       <use xlink:href="#DejaVuSans-49"/>
       <use x="63.623047" xlink:href="#DejaVuSans-49"/>
       <use x="127.246094" xlink:href="#DejaVuSans-56"/>
       <use x="190.869141" xlink:href="#DejaVuSans-48"/>
       <use x="254.492188" xlink:href="#DejaVuSans-48"/>
      </g>
     </g>
    </g>
    <g id="text_27">
     <!-- MB -->
     <g transform="translate(63.52375 260.715625)rotate(-90)scale(0.08 -0.08)">
      <defs>
       <path d="M 9.8125 72.90625 
L 24.515625 72.90625 
L 43.109375 23.296875 
L 61.8125 72.90625 
L 76.515625 72.90625 
L 76.515625 0 
L 66.890625 0 
L 66.890625 64.015625 
L 48.09375 14.015625 
L 38.1875 14.015625 
L 19.390625 64.015625 
L 19.390625 0 
L 9.8125 0 
z
" id="DejaVuSans-77"/>
       <path d="M 19.671875 34.8125 
L 19.671875 8.109375 
L 35.5 8.109375 
Q 43.453125 8.109375 47.28125 11.40625 
Q 51.125 14.703125 51.125 21.484375 
Q 51.125 28.328125 47.28125 31.5625 
Q 43.453125 34.8125 35.5 34.8125 
z
M 19.671875 64.796875 
L 19.671875 42.828125 
L 34.28125 42.828125 
Q 41.5 42.828125 45.03125 45.53125 
Q 48.578125 48.25 48.578125 53.8125 
Q 48.578125 59.328125 45.03125 62.0625 
Q 41.5 64.796875 34.28125 64.796875 
z
M 9.8125 72.90625 
L 35.015625 72.90625 
Q 46.296875 72.90625 52.390625 68.21875 
Q 58.5 63.53125 58.5 54.890625 
Q 58.5 48.1875 55.375 44.234375 
Q 52.25 40.28125 46.1875 39.3125 
Q 53.46875 37.75 57.5 32.78125 
Q 61.53125 27.828125 61.53125 20.40625 
Q 61.53125 10.640625 54.890625 5.3125 
Q 48.25 0 35.984375 0 
L 9.8125 0 
z
" id="DejaVuSans-66"/>
      </defs>
      <use xlink:href="#DejaVuSans-77"/>
      <use x="86.279297" xlink:href="#DejaVuSans-66"/>
     </g>
    </g>
   </g>
   <g id="line2d_26">
    <path clip-path="url(#pd5c71cc37c)" d="M 132.349091 81.545706 
L 132.864416 81.021956 
L 133.37974 80.934948 
L 133.895065 84.249763 
L 134.41039 81.148202 
L 134.925714 80.494793 
L 135.441039 80.460672 
L 135.956364 78.464618 
L 136.471688 78.12 
L 136.987013 80.346368 
L 137.502338 80.269597 
L 138.017662 78.36055 
L 138.532987 83.98874 
L 139.048312 108.142701 
L 139.563636 141.284023 
L 140.594286 221.987731 
L 141.624935 285.842695 
L 142.14026 333.538151 
L 143.170909 375.948329 
L 143.686234 389.509555 
L 144.201558 397.149153 
L 145.232208 395.811627 
L 145.747532 394.371738 
L 146.262857 395.279345 
L 146.778182 394.689059 
L 147.293506 394.868192 
L 147.808831 393.781452 
L 148.324156 393.946937 
L 148.839481 395.763858 
L 149.354805 395.762152 
L 149.87013 394.670293 
L 150.385455 393.122925 
L 150.900779 395.415828 
L 151.931429 394.875017 
L 152.446753 393.677384 
L 152.962078 394.298379 
L 153.477403 397.843507 
L 153.992727 398.278545 
L 154.508052 398.242718 
L 155.023377 397.045086 
L 155.538701 397.562012 
L 156.569351 397.188392 
L 157.084675 395.977111 
L 157.6 395.888398 
L 158.115325 399.680901 
L 158.630649 398.918306 
L 159.145974 398.957544 
L 159.661299 396.915427 
L 160.176623 396.360968 
L 160.691948 397.031437 
L 161.207273 396.792593 
L 161.722597 396.291021 
L 162.753247 403.086135 
L 163.268571 403.847024 
L 163.783896 402.715926 
L 164.299221 396.821596 
L 164.814545 396.591282 
L 165.32987 397.369231 
L 165.845195 397.512538 
L 166.360519 395.038795 
L 166.875844 393.720035 
L 167.391169 394.04418 
L 167.906494 397.393116 
L 168.421818 397.029731 
L 168.937143 396.246664 
L 169.452468 396.401913 
L 169.967792 396.163069 
L 170.483117 395.7758 
L 170.998442 395.745091 
L 171.513766 396.021468 
L 172.029091 393.737095 
L 172.544416 394.965436 
L 173.05974 394.994439 
L 173.575065 394.759007 
L 174.09039 392.73395 
L 174.605714 392.959146 
L 175.121039 396.947842 
L 175.636364 396.461624 
L 176.151688 395.304936 
L 176.667013 400.383785 
L 177.182338 402.502673 
L 178.212987 402.509497 
L 178.728312 396.647581 
L 179.243636 396.567397 
L 179.758961 399.177622 
L 180.274286 396.767003 
L 180.78961 396.48892 
L 181.304935 398.573688 
L 182.335584 403.95621 
L 182.850909 403.980094 
L 183.366234 398.358728 
L 183.881558 396.922251 
L 184.396883 399.812265 
L 184.912208 400.131292 
L 185.427532 397.611487 
L 186.458182 396.894955 
L 186.973506 398.491798 
L 187.488831 398.68458 
L 188.004156 397.510832 
L 188.519481 396.796005 
L 189.034805 396.956372 
L 189.55013 397.821329 
L 190.065455 397.585897 
L 190.580779 396.912015 
L 191.096104 395.716089 
L 191.611429 397.867392 
L 192.126753 397.63196 
L 192.642078 397.846919 
L 193.157403 395.879868 
L 193.672727 395.913988 
L 194.188052 399.851504 
L 194.703377 399.366991 
L 195.218701 399.657016 
L 195.734026 397.174744 
L 196.249351 400.733521 
L 196.764675 401.547296 
L 197.28 398.420145 
L 197.795325 398.473032 
L 199.341299 395.267403 
L 199.856623 395.137745 
L 200.371948 393.875283 
L 200.887273 396.127242 
L 201.402597 396.594694 
L 202.433247 396.117006 
L 202.948571 394.39221 
L 203.463896 396.796005 
L 203.979221 397.478417 
L 205.00987 395.456772 
L 205.525195 394.639585 
L 206.040519 399.494943 
L 206.555844 399.493237 
L 207.586494 397.070676 
L 208.617143 399.628014 
L 209.132468 399.469353 
L 209.647792 398.196655 
L 210.163117 398.230776 
L 210.678442 400.213182 
L 211.193766 399.822501 
L 211.709091 399.885624 
L 212.224416 398.836416 
L 212.73974 399.213449 
L 213.255065 400.250714 
L 213.77039 397.91516 
L 214.285714 404.887702 
L 214.801039 402.301361 
L 215.316364 408.009735 
L 215.831688 408.630729 
L 216.347013 408.212752 
L 217.377662 405.508696 
L 217.892987 407.448451 
L 218.408312 406.979293 
L 218.923636 406.278115 
L 219.438961 405.005418 
L 219.954286 407.537165 
L 220.46961 408.270757 
L 220.984935 407.716298 
L 222.015584 405.909613 
L 222.530909 407.078243 
L 223.046234 405.501872 
L 223.561558 405.564995 
L 224.076883 405.448985 
L 224.592208 404.456076 
L 225.107532 407.905667 
L 226.138182 408.379943 
L 226.653506 406.457248 
L 227.168831 407.1226 
L 227.684156 407.443333 
L 228.199481 406.537432 
L 228.714805 406.738743 
L 229.23013 404.933764 
L 229.745455 408.289524 
L 230.260779 408.037031 
L 230.776104 408.151335 
L 231.291429 406.626145 
L 231.806753 406.221816 
L 232.322078 408.008029 
L 232.837403 408.211046 
L 233.352727 407.342677 
L 233.868052 407.178899 
L 234.383377 408.125745 
L 234.898701 406.728507 
L 235.414026 406.745567 
L 235.929351 407.214725 
L 236.444675 404.210408 
L 236.96 406.119455 
L 237.475325 406.421422 
L 237.990649 406.317354 
L 238.505974 404.425368 
L 239.021299 405.72195 
L 239.536623 408.147923 
L 240.051948 407.037298 
L 240.567273 406.634675 
L 241.082597 404.81946 
L 241.597922 408.014853 
L 242.113247 407.361444 
L 242.628571 405.684417 
L 243.143896 405.904495 
L 243.659221 407.81866 
L 244.174545 408.419182 
L 244.68987 408.676792 
L 245.205195 412.841209 
L 245.720519 412.844621 
L 246.235844 412.008667 
L 246.751169 412.209979 
L 247.266494 408.052386 
L 247.781818 407.680471 
L 248.297143 405.578643 
L 248.812468 409.023116 
L 249.327792 408.241755 
L 249.843117 408.490835 
L 250.358442 406.895698 
L 250.873766 407.344383 
L 251.389091 408.524956 
L 251.904416 408.731385 
L 252.935065 406.447012 
L 253.45039 409.864188 
L 253.965714 409.768651 
L 255.511688 408.489129 
L 256.027013 410.034791 
L 256.542338 409.664583 
L 257.057662 408.224694 
L 257.572987 408.420888 
L 258.088312 411.418381 
L 259.118961 409.688467 
L 259.634286 408.313408 
L 260.14961 407.366562 
L 260.664935 406.064862 
L 261.18026 406.167223 
L 261.695584 405.98809 
L 262.210909 405.187963 
L 262.726234 406.030741 
L 263.241558 407.543989 
L 263.756883 407.772597 
L 264.272208 406.136515 
L 264.787532 405.99662 
L 265.302857 408.55737 
L 265.818182 408.770624 
L 266.333506 408.286112 
L 266.848831 407.168662 
L 267.364156 407.218137 
L 267.879481 410.456181 
L 268.394805 410.109857 
L 268.91013 410.382821 
L 269.425455 409.151068 
L 269.940779 409.806183 
L 270.456104 409.45986 
L 270.971429 408.862749 
L 271.486753 408.669968 
L 272.002078 405.924967 
L 272.517403 410.034791 
L 273.548052 408.852513 
L 274.063377 407.01512 
L 275.094026 409.83348 
L 275.609351 409.25343 
L 276.124675 406.979293 
L 276.64 407.086773 
L 277.155325 410.611429 
L 278.185974 410.261693 
L 278.701299 408.767212 
L 279.216623 409.12036 
L 279.731948 410.773502 
L 280.247273 410.348701 
L 280.762597 408.724561 
L 281.277922 408.485717 
L 282.308571 410.601193 
L 282.823896 410.33164 
L 283.339221 410.225867 
L 283.854545 409.115242 
L 284.36987 410.150801 
L 284.885195 410.700143 
L 285.400519 410.208806 
L 285.915844 409.041882 
L 286.431169 408.516425 
L 286.946494 410.923633 
L 287.977143 410.324816 
L 288.492468 408.514719 
L 289.007792 409.603166 
L 289.523117 411.153946 
L 290.553766 408.838865 
L 291.069091 408.05068 
L 291.584416 411.442265 
L 292.09974 411.628223 
L 292.615065 411.455914 
L 293.13039 409.988729 
L 293.645714 409.238076 
L 294.161039 410.283872 
L 294.676364 409.85054 
L 295.191688 408.886634 
L 295.707013 407.499632 
L 296.222338 411.916542 
L 296.737662 411.911423 
L 297.252987 411.773235 
L 297.768312 410.599487 
L 298.283636 409.741354 
L 298.798961 412.65184 
L 299.314286 412.092263 
L 299.82961 410.466417 
L 300.344935 409.35238 
L 300.86026 409.787417 
L 301.375584 413.233596 
L 301.890909 412.573363 
L 302.406234 412.134913 
L 302.921558 410.988462 
L 303.436883 411.810768 
L 303.952208 410.109857 
L 304.467532 410.150801 
L 304.982857 408.722855 
L 305.498182 409.84201 
L 306.013506 411.83124 
L 306.528831 412.128089 
L 307.559481 409.39503 
L 308.074805 411.812474 
L 308.59013 411.235836 
L 309.105455 411.142004 
L 309.620779 409.606578 
L 310.136104 409.203955 
L 310.651429 414.064432 
L 311.166753 411.635047 
L 311.682078 410.266811 
L 312.197403 410.29752 
L 312.712727 411.899481 
L 313.228052 414.922565 
L 313.743377 421.837101 
L 314.258701 425.644958 
L 314.774026 424.877245 
L 315.289351 427.704135 
L 315.804675 422.427387 
L 316.32 421.982113 
L 316.835325 420.924375 
L 317.350649 417.200114 
L 317.865974 418.080425 
L 318.381299 424.025936 
L 318.896623 423.258223 
L 319.411948 422.140774 
L 319.927273 425.172388 
L 320.442597 419.880285 
L 320.957922 419.511783 
L 321.473247 418.18108 
L 321.988571 417.363893 
L 322.503896 420.572933 
L 323.019221 421.272405 
L 323.534545 420.49275 
L 324.565195 420.525165 
L 325.080519 420.630938 
L 325.595844 420.595112 
L 326.626494 417.974651 
L 327.141818 419.750627 
L 327.657143 419.931466 
L 328.172468 419.53908 
L 328.687792 417.502081 
L 329.203117 418.621236 
L 329.718442 420.398918 
L 330.233766 420.632644 
L 330.749091 420.008238 
L 331.264416 417.561792 
L 331.77974 419.071628 
L 332.295065 421.639202 
L 332.81039 420.257318 
L 333.325714 420.224903 
L 333.841039 417.142109 
L 334.356364 419.114278 
L 334.871688 418.930027 
L 335.387013 417.222292 
L 335.902338 417.597619 
L 336.417662 417.537908 
L 336.932987 419.864931 
L 337.448312 420.187371 
L 337.963636 420.241964 
L 338.478961 419.10063 
L 338.994286 418.793545 
L 339.50961 417.735807 
L 340.024935 418.001947 
L 340.54026 418.010478 
L 341.055584 417.147227 
L 341.570909 421.159807 
L 342.601558 420.837368 
L 343.116883 417.969533 
L 343.632208 419.682386 
L 344.147532 419.888816 
L 344.662857 417.986593 
L 345.178182 416.584237 
L 345.693506 416.775312 
L 346.208831 421.436184 
L 346.724156 419.917818 
L 347.239481 419.818868 
L 347.754805 418.537641 
L 348.27013 418.484754 
L 348.785455 421.088154 
L 349.300779 421.772272 
L 349.816104 421.753505 
L 350.331429 419.808632 
L 350.846753 414.475585 
L 351.362078 417.986593 
L 351.877403 415.459964 
L 352.392727 414.934507 
L 352.908052 413.79488 
L 353.423377 418.068483 
L 353.938701 418.135018 
L 354.454026 417.652211 
L 354.969351 416.555235 
L 355.484675 414.905505 
L 356 420.881725 
L 356.515325 419.841047 
L 357.030649 419.989471 
L 357.545974 418.481342 
L 358.061299 418.087249 
L 358.576623 416.362453 
L 359.091948 416.353923 
L 360.122597 413.610628 
L 360.637922 416.637124 
L 361.153247 416.780431 
L 361.668571 416.765076 
L 362.183896 415.343954 
L 362.699221 419.020447 
L 363.214545 421.466893 
L 364.245195 421.688676 
L 364.760519 420.881725 
L 365.275844 422.785653 
L 366.821818 420.5917 
L 367.337143 420.378446 
L 367.852468 419.910994 
L 368.367792 420.182253 
L 368.883117 420.584876 
L 369.398442 419.624381 
L 369.913766 421.396945 
L 370.429091 422.333555 
L 370.944416 422.662819 
L 371.975065 419.66362 
L 372.49039 421.33894 
L 373.521039 420.816895 
L 374.036364 419.675562 
L 374.551688 419.230288 
L 375.067013 421.502719 
L 375.582338 421.878046 
L 376.097662 419.759157 
L 376.612987 419.516901 
L 377.128312 421.352589 
L 378.158961 421.820041 
L 378.674286 421.796156 
L 379.18961 420.869782 
L 379.704935 423.848509 
L 380.22026 423.824625 
L 380.735584 423.647198 
L 381.250909 422.775417 
L 381.766234 423.060324 
L 382.281558 425.822385 
L 382.796883 426.837472 
L 383.827532 423.879218 
L 384.342857 422.853894 
L 385.373506 423.179746 
L 385.888831 421.639202 
L 386.404156 421.427654 
L 386.919481 423.082502 
L 387.434805 422.884603 
L 388.465455 420.274378 
L 388.980779 424.996667 
L 389.496104 425.080262 
L 390.011429 423.085914 
L 390.526753 423.263341 
L 391.042078 422.149304 
L 391.557403 423.278696 
L 392.072727 422.215839 
L 392.588052 422.077651 
L 393.103377 420.695767 
L 393.618701 425.760968 
L 394.134026 420.637762 
L 394.649351 420.12766 
L 395.164675 420.757184 
L 395.68 419.346298 
L 396.195325 421.709149 
L 396.710649 421.756918 
L 397.225974 421.659674 
L 397.741299 420.056006 
L 398.256623 419.598791 
L 398.771948 421.936051 
L 399.287273 421.855867 
L 399.802597 421.176868 
L 400.317922 419.902464 
L 400.833247 423.265047 
L 401.863896 422.345498 
L 402.379221 422.278962 
L 402.894545 421.523192 
L 403.40987 423.282108 
L 404.440519 421.195634 
L 404.955844 421.560724 
L 405.471169 420.030416 
L 405.986494 422.804419 
L 406.501818 422.48198 
L 407.017143 421.514661 
L 407.532468 421.168337 
L 408.047792 423.084208 
L 409.078442 423.208748 
L 410.109091 421.239991 
L 410.624416 422.811244 
L 411.13974 422.794183 
L 411.655065 422.533161 
L 412.17039 421.698913 
L 412.685714 424.906247 
L 413.716364 424.464386 
L 414.231688 424.170949 
L 415.262338 421.92752 
L 415.777662 422.209015 
L 416.292987 421.866103 
L 416.808312 420.340913 
L 417.323636 420.825426 
L 417.838961 423.737617 
L 418.86961 423.640374 
L 419.384935 422.140774 
L 419.90026 429.111609 
L 420.415584 429.817905 
L 420.930909 428.988775 
L 421.446234 428.492321 
L 421.961558 422.674761 
L 422.476883 425.209921 
L 422.992208 425.177506 
L 423.507532 424.061763 
L 424.022857 423.297462 
L 424.538182 424.068587 
L 425.053506 423.17804 
L 425.568831 423.655728 
L 426.084156 422.603108 
L 426.599481 421.866103 
L 427.114805 425.592071 
L 427.63013 425.619367 
L 428.145455 426.301779 
L 428.660779 423.387881 
L 429.176104 423.464653 
L 430.206753 423.415178 
L 430.722078 422.369382 
L 431.237403 420.647999 
L 431.752727 424.029348 
L 432.268052 424.515567 
L 432.783377 424.583808 
L 433.298701 424.539451 
L 433.814026 423.415178 
L 434.329351 425.638134 
L 434.844675 424.834594 
L 435.36 424.780001 
L 435.875325 423.640374 
L 436.390649 425.363463 
L 437.421299 425.566481 
L 437.936623 424.50533 
L 438.451948 424.585514 
L 438.967273 426.230126 
L 439.482597 426.039051 
L 439.997922 424.437089 
L 440.513247 424.307431 
L 441.028571 424.358612 
L 441.543896 423.363997 
L 442.059221 423.708615 
L 442.574545 423.42712 
L 443.08987 421.175162 
L 443.605195 423.928693 
L 444.635844 424.275017 
L 445.151169 423.29405 
L 445.666494 423.449298 
L 446.181818 425.414644 
L 446.697143 425.520418 
L 447.212468 424.50533 
L 447.727792 422.795889 
L 448.243117 422.898251 
L 448.758442 424.660579 
L 449.273766 423.640374 
L 449.789091 423.66767 
L 450.304416 422.869249 
L 450.81974 425.576717 
L 451.335065 429.249797 
L 451.85039 429.613182 
L 452.365714 428.181823 
L 452.881039 422.579224 
L 453.396364 426.450204 
L 453.911688 426.165297 
L 454.427013 425.28328 
L 454.942338 423.307698 
L 455.457662 424.739056 
L 455.972987 430.577088 
L 456.488312 430.92 
L 457.003636 430.693098 
L 457.518961 429.567119 
L 458.034286 426.3359 
L 459.064935 424.669109 
L 459.58026 422.662819 
L 460.095584 422.664525 
L 460.610909 425.30887 
L 461.126234 424.536039 
L 461.641558 424.285253 
L 462.156883 422.447859 
L 462.672208 423.602841 
L 463.187532 422.703764 
L 463.702857 422.69694 
L 464.733506 421.040385 
L 465.248831 423.718851 
L 465.764156 423.544836 
L 466.279481 423.585781 
L 466.794805 421.980407 
L 467.31013 422.098123 
L 467.825455 423.019379 
L 468.340779 422.70547 
L 468.856104 422.226076 
L 469.371429 420.839074 
L 469.886753 422.956256 
L 470.402078 423.292344 
L 470.917403 423.172922 
L 471.432727 422.725942 
L 471.948052 423.133683 
L 472.463377 425.138267 
L 472.978701 424.675933 
L 473.494026 424.624753 
L 474.009351 423.55166 
L 474.524675 426.044169 
L 475.04 423.188276 
L 475.555325 422.58093 
L 476.070649 422.369382 
L 476.585974 420.584876 
L 477.101299 423.251399 
L 477.616623 423.073972 
L 478.131948 422.376206 
L 478.647273 420.736712 
L 479.162597 420.946554 
L 479.677922 421.867809 
L 480.193247 420.323853 
L 480.708571 420.663353 
L 481.223896 419.455484 
L 481.739221 423.041557 
L 482.254545 423.04497 
L 482.76987 423.268459 
L 483.285195 422.070827 
L 483.800519 421.804686 
L 485.346494 423.358879 
L 485.861818 421.10692 
L 486.377143 424.179479 
L 486.892468 423.432238 
L 487.407792 423.858745 
L 487.923117 420.216373 
L 488.438442 419.946821 
L 488.953766 421.767154 
L 489.469091 421.705737 
L 489.984416 419.489605 
L 490.49974 418.225437 
L 491.015065 417.483315 
L 491.53039 421.814923 
L 492.045714 421.871221 
L 492.561039 420.961908 
L 493.076364 418.208377 
L 493.591688 419.849577 
L 494.107013 419.861519 
L 494.622338 419.044331 
L 495.137662 419.090394 
L 495.652987 417.677802 
L 496.168312 420.357974 
L 496.683636 420.711122 
L 497.198961 420.228315 
L 497.714286 418.832784 
L 498.22961 419.153517 
L 498.744935 420.949966 
L 499.26026 421.035267 
L 500.290909 417.88935 
L 500.806234 418.60247 
L 501.321558 418.788427 
L 501.836883 418.580291 
L 502.352208 417.452606 
L 502.867532 417.380953 
L 503.382857 420.721358 
L 503.898182 420.801541 
L 504.413506 418.534229 
L 504.928831 418.269794 
L 505.444156 418.334623 
L 505.959481 420.615584 
L 506.474805 420.581463 
L 506.99013 420.84078 
L 507.505455 419.823987 
L 508.020779 422.326731 
L 508.536104 420.639468 
L 509.051429 420.654823 
L 509.566753 419.231994 
L 510.082078 419.41454 
L 510.597403 417.964415 
L 511.112727 417.138697 
L 511.628052 414.497764 
L 512.143377 413.122704 
L 512.658701 416.684893 
L 513.174026 416.894735 
L 513.689351 416.662715 
L 514.204675 416.553529 
L 514.72 416.138964 
L 515.235325 418.276618 
L 515.750649 417.090928 
L 516.265974 416.650772 
L 516.781299 415.543559 
L 517.296623 418.721892 
L 517.811948 419.774512 
L 518.327273 419.470839 
L 518.842597 417.875701 
L 519.357922 423.099562 
L 519.873247 424.133416 
L 520.903896 423.005731 
L 521.419221 417.239352 
L 521.934545 417.24447 
L 522.44987 416.277152 
L 522.965195 415.864293 
L 523.995844 413.359842 
L 524.511169 415.976891 
L 525.026494 415.284243 
L 525.541818 414.100259 
L 526.057143 414.1685 
L 526.572468 413.690812 
L 527.087792 414.345927 
L 527.603117 413.987661 
L 528.118442 412.590423 
L 528.633766 412.684255 
L 529.149091 415.163115 
L 529.664416 415.214296 
L 530.17974 414.101965 
L 530.695065 414.390284 
L 531.21039 412.662076 
L 531.725714 414.217975 
L 532.241039 414.291334 
L 532.756364 413.905771 
L 533.271688 412.97428 
L 533.787013 414.403932 
L 534.302338 416.376102 
L 534.817662 416.25668 
L 535.332987 415.637391 
L 536.363636 412.285044 
L 536.878961 412.399348 
L 537.394286 411.484916 
L 537.90961 411.873891 
L 538.424935 418.733834 
L 538.94026 421.371355 
L 539.970909 421.606787 
L 540.486234 420.134484 
L 541.001558 421.333822 
L 541.516883 421.620435 
L 542.032208 421.007971 
L 542.547532 419.554434 
L 543.062857 419.042625 
L 543.578182 421.946287 
L 544.093506 421.483953 
L 544.608831 419.881992 
L 545.124156 417.491845 
L 545.639481 417.143815 
L 546.154805 417.698274 
L 546.67013 417.155757 
L 547.185455 417.123342 
L 547.700779 415.819936 
L 548.216104 418.564937 
L 548.731429 419.056273 
L 549.246753 418.738952 
L 550.277403 414.595007 
L 550.792727 417.589088 
L 551.308052 418.355095 
L 551.823377 416.285682 
L 552.338701 415.074401 
L 552.854026 418.462575 
L 553.369351 418.63659 
L 553.884675 418.343153 
L 554.4 418.547877 
L 554.915325 415.891589 
L 555.430649 418.51205 
L 556.976623 414.755374 
L 557.491948 415.043693 
L 558.007273 416.877674 
L 558.522597 417.133579 
L 559.037922 415.393429 
L 559.553247 414.521648 
L 560.068571 415.430962 
L 560.583896 416.034896 
L 561.099221 415.169939 
L 561.614545 412.842915 
L 562.12987 409.453035 
L 562.645195 412.249217 
L 563.675844 412.62625 
L 564.191169 410.952635 
L 564.706494 413.238714 
L 565.221818 413.887005 
L 566.252468 414.178736 
L 566.767792 411.655519 
L 567.283117 415.789228 
L 567.798442 415.374663 
L 568.313766 415.11364 
L 568.829091 411.97284 
L 569.344416 412.772968 
L 569.85974 415.782404 
L 570.375065 415.468494 
L 570.89039 414.352751 
L 571.405714 414.509706 
L 571.921039 416.408516 
L 572.436364 415.703926 
L 573.982338 411.945544 
L 574.497662 416.082665 
L 575.012987 415.516263 
L 575.528312 413.363254 
L 576.043636 413.458792 
L 576.558961 417.107988 
L 577.074286 415.647627 
L 577.58961 413.625983 
L 578.62026 410.503949 
L 579.135584 412.824149 
L 579.650909 411.855124 
L 580.166234 411.287017 
L 580.681558 409.442799 
L 581.196883 409.70894 
L 581.712208 409.678231 
L 582.227532 409.139126 
L 582.742857 408.818393 
L 583.258182 407.893725 
L 583.773506 410.125211 
L 584.288831 417.659036 
L 584.804156 417.54985 
L 585.319481 415.260359 
L 585.834805 415.332012 
L 586.35013 416.403398 
L 586.865455 415.709044 
L 587.380779 416.009305 
L 587.896104 415.001042 
L 588.411429 422.118596 
L 588.926753 424.725408 
L 589.442078 422.609932 
L 589.957403 417.91494 
L 590.472727 415.881353 
L 590.988052 418.216907 
L 591.503377 416.258386 
L 592.018701 415.20406 
L 592.534026 413.520209 
L 593.049351 419.699446 
L 593.564675 421.56243 
L 594.08 421.221224 
L 594.595325 420.279496 
L 595.110649 414.06102 
L 595.625974 415.028339 
L 596.141299 414.755374 
L 596.656623 411.658931 
L 597.171948 409.536631 
L 597.687273 409.848834 
L 598.202597 413.890417 
L 598.717922 413.916008 
L 599.233247 413.103938 
L 599.748571 411.387672 
L 600.263896 411.83124 
L 600.779221 411.783471 
L 601.294545 411.316019 
L 601.80987 411.641871 
L 602.325195 410.32311 
L 602.840519 413.777819 
L 603.355844 413.755641 
L 603.871169 412.571657 
L 604.386494 412.65184 
L 604.901818 412.614307 
L 605.417143 413.847766 
L 605.932468 413.237008 
L 606.447792 413.429789 
L 606.963117 411.793707 
L 607.478442 411.329667 
L 607.993766 411.032818 
L 609.024416 408.482305 
L 609.53974 407.863016 
L 610.055065 411.420087 
L 610.57039 412.024021 
L 611.085714 410.481771 
L 611.601039 410.715497 
L 612.116364 410.811035 
L 613.147013 411.790295 
L 613.662338 411.807356 
L 614.177662 409.809596 
L 614.692987 412.604071 
L 615.208312 412.948689 
L 615.723636 412.837797 
L 616.238961 410.606311 
L 616.754286 410.892924 
L 617.26961 410.43912 
L 617.784935 409.751591 
L 618.30026 408.313408 
L 618.815584 427.900328 
L 619.330909 425.911098 
L 619.330909 425.911098 
" style="fill:none;stroke:#1f77b4;stroke-linecap:square;stroke-width:1.5;"/>
   </g>
   <g id="patch_3">
    <path d="M 108 448.56 
L 108 60.48 
" style="fill:none;stroke:#000000;stroke-linecap:square;stroke-linejoin:miter;stroke-width:0.8;"/>
   </g>
   <g id="patch_4">
    <path d="M 643.68 448.56 
L 643.68 60.48 
" style="fill:none;stroke:#000000;stroke-linecap:square;stroke-linejoin:miter;stroke-width:0.8;"/>
   </g>
   <g id="patch_5">
    <path d="M 108 448.56 
L 643.68 448.56 
" style="fill:none;stroke:#000000;stroke-linecap:square;stroke-linejoin:miter;stroke-width:0.8;"/>
   </g>
   <g id="patch_6">
    <path d="M 108 60.48 
L 643.68 60.48 
" style="fill:none;stroke:#000000;stroke-linecap:square;stroke-linejoin:miter;stroke-width:0.8;"/>
   </g>
   <g id="text_28">
    <!-- unikernel_fbuddyalloc - vmstat -->
    <g transform="translate(260.216953 54.48)scale(0.15 -0.15)">
     <defs>
      <path d="M 8.5 21.578125 
L 8.5 54.6875 
L 17.484375 54.6875 
L 17.484375 21.921875 
Q 17.484375 14.15625 20.5 10.265625 
Q 23.53125 6.390625 29.59375 6.390625 
Q 36.859375 6.390625 41.078125 11.03125 
Q 45.3125 15.671875 45.3125 23.6875 
L 45.3125 54.6875 
L 54.296875 54.6875 
L 54.296875 0 
L 45.3125 0 
L 45.3125 8.40625 
Q 42.046875 3.421875 37.71875 1 
Q 33.40625 -1.421875 27.6875 -1.421875 
Q 18.265625 -1.421875 13.375 4.4375 
Q 8.5 10.296875 8.5 21.578125 
z
M 31.109375 56 
z
" id="DejaVuSans-117"/>
      <path d="M 54.890625 33.015625 
L 54.890625 0 
L 45.90625 0 
L 45.90625 32.71875 
Q 45.90625 40.484375 42.875 44.328125 
Q 39.84375 48.1875 33.796875 48.1875 
Q 26.515625 48.1875 22.3125 43.546875 
Q 18.109375 38.921875 18.109375 30.90625 
L 18.109375 0 
L 9.078125 0 
L 9.078125 54.6875 
L 18.109375 54.6875 
L 18.109375 46.1875 
Q 21.34375 51.125 25.703125 53.5625 
Q 30.078125 56 35.796875 56 
Q 45.21875 56 50.046875 50.171875 
Q 54.890625 44.34375 54.890625 33.015625 
z
" id="DejaVuSans-110"/>
      <path d="M 9.078125 75.984375 
L 18.109375 75.984375 
L 18.109375 31.109375 
L 44.921875 54.6875 
L 56.390625 54.6875 
L 27.390625 29.109375 
L 57.625 0 
L 45.90625 0 
L 18.109375 26.703125 
L 18.109375 0 
L 9.078125 0 
z
" id="DejaVuSans-107"/>
      <path d="M 41.109375 46.296875 
Q 39.59375 47.171875 37.8125 47.578125 
Q 36.03125 48 33.890625 48 
Q 26.265625 48 22.1875 43.046875 
Q 18.109375 38.09375 18.109375 28.8125 
L 18.109375 0 
L 9.078125 0 
L 9.078125 54.6875 
L 18.109375 54.6875 
L 18.109375 46.1875 
Q 20.953125 51.171875 25.484375 53.578125 
Q 30.03125 56 36.53125 56 
Q 37.453125 56 38.578125 55.875 
Q 39.703125 55.765625 41.0625 55.515625 
z
" id="DejaVuSans-114"/>
      <path d="M 9.421875 75.984375 
L 18.40625 75.984375 
L 18.40625 0 
L 9.421875 0 
z
" id="DejaVuSans-108"/>
      <path d="M 50.984375 -16.609375 
L 50.984375 -23.578125 
L -0.984375 -23.578125 
L -0.984375 -16.609375 
z
" id="DejaVuSans-95"/>
      <path d="M 37.109375 75.984375 
L 37.109375 68.5 
L 28.515625 68.5 
Q 23.6875 68.5 21.796875 66.546875 
Q 19.921875 64.59375 19.921875 59.515625 
L 19.921875 54.6875 
L 34.71875 54.6875 
L 34.71875 47.703125 
L 19.921875 47.703125 
L 19.921875 0 
L 10.890625 0 
L 10.890625 47.703125 
L 2.296875 47.703125 
L 2.296875 54.6875 
L 10.890625 54.6875 
L 10.890625 58.5 
Q 10.890625 67.625 15.140625 71.796875 
Q 19.390625 75.984375 28.609375 75.984375 
z
" id="DejaVuSans-102"/>
      <path d="M 48.6875 27.296875 
Q 48.6875 37.203125 44.609375 42.84375 
Q 40.53125 48.484375 33.40625 48.484375 
Q 26.265625 48.484375 22.1875 42.84375 
Q 18.109375 37.203125 18.109375 27.296875 
Q 18.109375 17.390625 22.1875 11.75 
Q 26.265625 6.109375 33.40625 6.109375 
Q 40.53125 6.109375 44.609375 11.75 
Q 48.6875 17.390625 48.6875 27.296875 
z
M 18.109375 46.390625 
Q 20.953125 51.265625 25.265625 53.625 
Q 29.59375 56 35.59375 56 
Q 45.5625 56 51.78125 48.09375 
Q 58.015625 40.1875 58.015625 27.296875 
Q 58.015625 14.40625 51.78125 6.484375 
Q 45.5625 -1.421875 35.59375 -1.421875 
Q 29.59375 -1.421875 25.265625 0.953125 
Q 20.953125 3.328125 18.109375 8.203125 
L 18.109375 0 
L 9.078125 0 
L 9.078125 75.984375 
L 18.109375 75.984375 
z
" id="DejaVuSans-98"/>
      <path d="M 45.40625 46.390625 
L 45.40625 75.984375 
L 54.390625 75.984375 
L 54.390625 0 
L 45.40625 0 
L 45.40625 8.203125 
Q 42.578125 3.328125 38.25 0.953125 
Q 33.9375 -1.421875 27.875 -1.421875 
Q 17.96875 -1.421875 11.734375 6.484375 
Q 5.515625 14.40625 5.515625 27.296875 
Q 5.515625 40.1875 11.734375 48.09375 
Q 17.96875 56 27.875 56 
Q 33.9375 56 38.25 53.625 
Q 42.578125 51.265625 45.40625 46.390625 
z
M 14.796875 27.296875 
Q 14.796875 17.390625 18.875 11.75 
Q 22.953125 6.109375 30.078125 6.109375 
Q 37.203125 6.109375 41.296875 11.75 
Q 45.40625 17.390625 45.40625 27.296875 
Q 45.40625 37.203125 41.296875 42.84375 
Q 37.203125 48.484375 30.078125 48.484375 
Q 22.953125 48.484375 18.875 42.84375 
Q 14.796875 37.203125 14.796875 27.296875 
z
" id="DejaVuSans-100"/>
      <path d="M 32.171875 -5.078125 
Q 28.375 -14.84375 24.75 -17.8125 
Q 21.140625 -20.796875 15.09375 -20.796875 
L 7.90625 -20.796875 
L 7.90625 -13.28125 
L 13.1875 -13.28125 
Q 16.890625 -13.28125 18.9375 -11.515625 
Q 21 -9.765625 23.484375 -3.21875 
L 25.09375 0.875 
L 2.984375 54.6875 
L 12.5 54.6875 
L 29.59375 11.921875 
L 46.6875 54.6875 
L 56.203125 54.6875 
z
" id="DejaVuSans-121"/>
      <path d="M 30.609375 48.390625 
Q 23.390625 48.390625 19.1875 42.75 
Q 14.984375 37.109375 14.984375 27.296875 
Q 14.984375 17.484375 19.15625 11.84375 
Q 23.34375 6.203125 30.609375 6.203125 
Q 37.796875 6.203125 41.984375 11.859375 
Q 46.1875 17.53125 46.1875 27.296875 
Q 46.1875 37.015625 41.984375 42.703125 
Q 37.796875 48.390625 30.609375 48.390625 
z
M 30.609375 56 
Q 42.328125 56 49.015625 48.375 
Q 55.71875 40.765625 55.71875 27.296875 
Q 55.71875 13.875 49.015625 6.21875 
Q 42.328125 -1.421875 30.609375 -1.421875 
Q 18.84375 -1.421875 12.171875 6.21875 
Q 5.515625 13.875 5.515625 27.296875 
Q 5.515625 40.765625 12.171875 48.375 
Q 18.84375 56 30.609375 56 
z
" id="DejaVuSans-111"/>
      <path d="M 48.78125 52.59375 
L 48.78125 44.1875 
Q 44.96875 46.296875 41.140625 47.34375 
Q 37.3125 48.390625 33.40625 48.390625 
Q 24.65625 48.390625 19.8125 42.84375 
Q 14.984375 37.3125 14.984375 27.296875 
Q 14.984375 17.28125 19.8125 11.734375 
Q 24.65625 6.203125 33.40625 6.203125 
Q 37.3125 6.203125 41.140625 7.25 
Q 44.96875 8.296875 48.78125 10.40625 
L 48.78125 2.09375 
Q 45.015625 0.34375 40.984375 -0.53125 
Q 36.96875 -1.421875 32.421875 -1.421875 
Q 20.0625 -1.421875 12.78125 6.34375 
Q 5.515625 14.109375 5.515625 27.296875 
Q 5.515625 40.671875 12.859375 48.328125 
Q 20.21875 56 33.015625 56 
Q 37.15625 56 41.109375 55.140625 
Q 45.0625 54.296875 48.78125 52.59375 
z
" id="DejaVuSans-99"/>
      <path id="DejaVuSans-32"/>
      <path d="M 4.890625 31.390625 
L 31.203125 31.390625 
L 31.203125 23.390625 
L 4.890625 23.390625 
z
" id="DejaVuSans-45"/>
      <path d="M 2.984375 54.6875 
L 12.5 54.6875 
L 29.59375 8.796875 
L 46.6875 54.6875 
L 56.203125 54.6875 
L 35.6875 0 
L 23.484375 0 
z
" id="DejaVuSans-118"/>
     </defs>
     <use xlink:href="#DejaVuSans-117"/>
     <use x="63.378906" xlink:href="#DejaVuSans-110"/>
     <use x="126.757812" xlink:href="#DejaVuSans-105"/>
     <use x="154.541016" xlink:href="#DejaVuSans-107"/>
     <use x="208.826172" xlink:href="#DejaVuSans-101"/>
     <use x="270.349609" xlink:href="#DejaVuSans-114"/>
     <use x="309.712891" xlink:href="#DejaVuSans-110"/>
     <use x="373.091797" xlink:href="#DejaVuSans-101"/>
     <use x="434.615234" xlink:href="#DejaVuSans-108"/>
     <use x="462.398438" xlink:href="#DejaVuSans-95"/>
     <use x="512.398438" xlink:href="#DejaVuSans-102"/>
     <use x="547.603516" xlink:href="#DejaVuSans-98"/>
     <use x="611.080078" xlink:href="#DejaVuSans-117"/>
     <use x="674.458984" xlink:href="#DejaVuSans-100"/>
     <use x="737.935547" xlink:href="#DejaVuSans-100"/>
     <use x="801.412109" xlink:href="#DejaVuSans-121"/>
     <use x="860.591797" xlink:href="#DejaVuSans-97"/>
     <use x="921.871094" xlink:href="#DejaVuSans-108"/>
     <use x="949.654297" xlink:href="#DejaVuSans-108"/>
     <use x="977.4375" xlink:href="#DejaVuSans-111"/>
     <use x="1038.619141" xlink:href="#DejaVuSans-99"/>
     <use x="1093.599609" xlink:href="#DejaVuSans-32"/>
     <use x="1125.386719" xlink:href="#DejaVuSans-45"/>
     <use x="1161.470703" xlink:href="#DejaVuSans-32"/>
     <use x="1193.257812" xlink:href="#DejaVuSans-118"/>
     <use x="1252.4375" xlink:href="#DejaVuSans-109"/>
     <use x="1349.849609" xlink:href="#DejaVuSans-115"/>
     <use x="1401.949219" xlink:href="#DejaVuSans-116"/>
     <use x="1441.158203" xlink:href="#DejaVuSans-97"/>
     <use x="1502.4375" xlink:href="#DejaVuSans-116"/>
    </g>
   </g>
   <g id="legend_1">
    <g id="patch_7">
     <path d="M 650.68 258.52 
L 654.68 258.52 
Q 656.68 258.52 656.68 256.52 
L 656.68 252.52 
Q 656.68 250.52 654.68 250.52 
L 650.68 250.52 
Q 648.68 250.52 648.68 252.52 
L 648.68 256.52 
Q 648.68 258.52 650.68 258.52 
z
" style="fill:#ffffff;opacity:0.8;stroke:#cccccc;stroke-linejoin:miter;"/>
    </g>
   </g>
  </g>
 </g>
 <defs>
  <clipPath id="pd5c71cc37c">
   <rect height="388.08" width="535.68" x="108" y="60.48"/>
  </clipPath>
 </defs>
</svg>
