<?xml version="1.0" encoding="utf-8" standalone="no"?>
<!DOCTYPE svg PUBLIC "-//W3C//DTD SVG 1.1//EN"
  "http://www.w3.org/Graphics/SVG/1.1/DTD/svg11.dtd">
<!-- Created with matplotlib (https://matplotlib.org/) -->
<svg height="504pt" version="1.1" viewBox="0 0 864 504" width="864pt" xmlns="http://www.w3.org/2000/svg" xmlns:xlink="http://www.w3.org/1999/xlink">
 <metadata>
  <rdf:RDF xmlns:cc="http://creativecommons.org/ns#" xmlns:dc="http://purl.org/dc/elements/1.1/" xmlns:rdf="http://www.w3.org/1999/02/22-rdf-syntax-ns#">
   <cc:Work>
    <dc:type rdf:resource="http://purl.org/dc/dcmitype/StillImage"/>
    <dc:date>2022-05-29T17:28:08.712871</dc:date>
    <dc:format>image/svg+xml</dc:format>
    <dc:creator>
     <cc:Agent>
      <dc:title>Matplotlib v3.3.4, https://matplotlib.org/</dc:title>
     </cc:Agent>
    </dc:creator>
   </cc:Work>
  </rdf:RDF>
 </metadata>
 <defs>
  <style type="text/css">*{stroke-linecap:butt;stroke-linejoin:round;}</style>
 </defs>
 <g id="figure_1">
  <g id="patch_1">
   <path d="M 0 504 
L 864 504 
L 864 0 
L 0 0 
z
" style="fill:#ffffff;"/>
  </g>
  <g id="axes_1">
   <g id="patch_2">
    <path d="M 108 448.56 
L 643.68 448.56 
L 643.68 60.48 
L 108 60.48 
z
" style="fill:#ffffff;"/>
   </g>
   <g id="matplotlib.axis_1">
    <g id="xtick_1">
     <g id="line2d_1">
      <defs>
       <path d="M 0 0 
L 0 3.5 
" id="m1b1d2512c2" style="stroke:#000000;stroke-width:0.8;"/>
      </defs>
      <g>
       <use style="stroke:#000000;stroke-width:0.8;" x="132.349091" xlink:href="#m1b1d2512c2" y="448.56"/>
      </g>
     </g>
     <g id="text_1">
      <!-- 22:36:58 -->
      <g transform="translate(135.108466 500.4725)rotate(-90)scale(0.1 -0.1)">
       <defs>
        <path d="M 19.1875 8.296875 
L 53.609375 8.296875 
L 53.609375 0 
L 7.328125 0 
L 7.328125 8.296875 
Q 12.9375 14.109375 22.625 23.890625 
Q 32.328125 33.6875 34.8125 36.53125 
Q 39.546875 41.84375 41.421875 45.53125 
Q 43.3125 49.21875 43.3125 52.78125 
Q 43.3125 58.59375 39.234375 62.25 
Q 35.15625 65.921875 28.609375 65.921875 
Q 23.96875 65.921875 18.8125 64.3125 
Q 13.671875 62.703125 7.8125 59.421875 
L 7.8125 69.390625 
Q 13.765625 71.78125 18.9375 73 
Q 24.125 74.21875 28.421875 74.21875 
Q 39.75 74.21875 46.484375 68.546875 
Q 53.21875 62.890625 53.21875 53.421875 
Q 53.21875 48.921875 51.53125 44.890625 
Q 49.859375 40.875 45.40625 35.40625 
Q 44.1875 33.984375 37.640625 27.21875 
Q 31.109375 20.453125 19.1875 8.296875 
z
" id="DejaVuSans-50"/>
        <path d="M 11.71875 12.40625 
L 22.015625 12.40625 
L 22.015625 0 
L 11.71875 0 
z
M 11.71875 51.703125 
L 22.015625 51.703125 
L 22.015625 39.3125 
L 11.71875 39.3125 
z
" id="DejaVuSans-58"/>
        <path d="M 40.578125 39.3125 
Q 47.65625 37.796875 51.625 33 
Q 55.609375 28.21875 55.609375 21.1875 
Q 55.609375 10.40625 48.1875 4.484375 
Q 40.765625 -1.421875 27.09375 -1.421875 
Q 22.515625 -1.421875 17.65625 -0.515625 
Q 12.796875 0.390625 7.625 2.203125 
L 7.625 11.71875 
Q 11.71875 9.328125 16.59375 8.109375 
Q 21.484375 6.890625 26.8125 6.890625 
Q 36.078125 6.890625 40.9375 10.546875 
Q 45.796875 14.203125 45.796875 21.1875 
Q 45.796875 27.640625 41.28125 31.265625 
Q 36.765625 34.90625 28.71875 34.90625 
L 20.21875 34.90625 
L 20.21875 43.015625 
L 29.109375 43.015625 
Q 36.375 43.015625 40.234375 45.921875 
Q 44.09375 48.828125 44.09375 54.296875 
Q 44.09375 59.90625 40.109375 62.90625 
Q 36.140625 65.921875 28.71875 65.921875 
Q 24.65625 65.921875 20.015625 65.03125 
Q 15.375 64.15625 9.8125 62.3125 
L 9.8125 71.09375 
Q 15.4375 72.65625 20.34375 73.4375 
Q 25.25 74.21875 29.59375 74.21875 
Q 40.828125 74.21875 47.359375 69.109375 
Q 53.90625 64.015625 53.90625 55.328125 
Q 53.90625 49.265625 50.4375 45.09375 
Q 46.96875 40.921875 40.578125 39.3125 
z
" id="DejaVuSans-51"/>
        <path d="M 33.015625 40.375 
Q 26.375 40.375 22.484375 35.828125 
Q 18.609375 31.296875 18.609375 23.390625 
Q 18.609375 15.53125 22.484375 10.953125 
Q 26.375 6.390625 33.015625 6.390625 
Q 39.65625 6.390625 43.53125 10.953125 
Q 47.40625 15.53125 47.40625 23.390625 
Q 47.40625 31.296875 43.53125 35.828125 
Q 39.65625 40.375 33.015625 40.375 
z
M 52.59375 71.296875 
L 52.59375 62.3125 
Q 48.875 64.0625 45.09375 64.984375 
Q 41.3125 65.921875 37.59375 65.921875 
Q 27.828125 65.921875 22.671875 59.328125 
Q 17.53125 52.734375 16.796875 39.40625 
Q 19.671875 43.65625 24.015625 45.921875 
Q 28.375 48.1875 33.59375 48.1875 
Q 44.578125 48.1875 50.953125 41.515625 
Q 57.328125 34.859375 57.328125 23.390625 
Q 57.328125 12.15625 50.6875 5.359375 
Q 44.046875 -1.421875 33.015625 -1.421875 
Q 20.359375 -1.421875 13.671875 8.265625 
Q 6.984375 17.96875 6.984375 36.375 
Q 6.984375 53.65625 15.1875 63.9375 
Q 23.390625 74.21875 37.203125 74.21875 
Q 40.921875 74.21875 44.703125 73.484375 
Q 48.484375 72.75 52.59375 71.296875 
z
" id="DejaVuSans-54"/>
        <path d="M 10.796875 72.90625 
L 49.515625 72.90625 
L 49.515625 64.59375 
L 19.828125 64.59375 
L 19.828125 46.734375 
Q 21.96875 47.46875 24.109375 47.828125 
Q 26.265625 48.1875 28.421875 48.1875 
Q 40.625 48.1875 47.75 41.5 
Q 54.890625 34.8125 54.890625 23.390625 
Q 54.890625 11.625 47.5625 5.09375 
Q 40.234375 -1.421875 26.90625 -1.421875 
Q 22.3125 -1.421875 17.546875 -0.640625 
Q 12.796875 0.140625 7.71875 1.703125 
L 7.71875 11.625 
Q 12.109375 9.234375 16.796875 8.0625 
Q 21.484375 6.890625 26.703125 6.890625 
Q 35.15625 6.890625 40.078125 11.328125 
Q 45.015625 15.765625 45.015625 23.390625 
Q 45.015625 31 40.078125 35.4375 
Q 35.15625 39.890625 26.703125 39.890625 
Q 22.75 39.890625 18.8125 39.015625 
Q 14.890625 38.140625 10.796875 36.28125 
z
" id="DejaVuSans-53"/>
        <path d="M 31.78125 34.625 
Q 24.75 34.625 20.71875 30.859375 
Q 16.703125 27.09375 16.703125 20.515625 
Q 16.703125 13.921875 20.71875 10.15625 
Q 24.75 6.390625 31.78125 6.390625 
Q 38.8125 6.390625 42.859375 10.171875 
Q 46.921875 13.96875 46.921875 20.515625 
Q 46.921875 27.09375 42.890625 30.859375 
Q 38.875 34.625 31.78125 34.625 
z
M 21.921875 38.8125 
Q 15.578125 40.375 12.03125 44.71875 
Q 8.5 49.078125 8.5 55.328125 
Q 8.5 64.0625 14.71875 69.140625 
Q 20.953125 74.21875 31.78125 74.21875 
Q 42.671875 74.21875 48.875 69.140625 
Q 55.078125 64.0625 55.078125 55.328125 
Q 55.078125 49.078125 51.53125 44.71875 
Q 48 40.375 41.703125 38.8125 
Q 48.828125 37.15625 52.796875 32.3125 
Q 56.78125 27.484375 56.78125 20.515625 
Q 56.78125 9.90625 50.3125 4.234375 
Q 43.84375 -1.421875 31.78125 -1.421875 
Q 19.734375 -1.421875 13.25 4.234375 
Q 6.78125 9.90625 6.78125 20.515625 
Q 6.78125 27.484375 10.78125 32.3125 
Q 14.796875 37.15625 21.921875 38.8125 
z
M 18.3125 54.390625 
Q 18.3125 48.734375 21.84375 45.5625 
Q 25.390625 42.390625 31.78125 42.390625 
Q 38.140625 42.390625 41.71875 45.5625 
Q 45.3125 48.734375 45.3125 54.390625 
Q 45.3125 60.0625 41.71875 63.234375 
Q 38.140625 66.40625 31.78125 66.40625 
Q 25.390625 66.40625 21.84375 63.234375 
Q 18.3125 60.0625 18.3125 54.390625 
z
" id="DejaVuSans-56"/>
       </defs>
       <use xlink:href="#DejaVuSans-50"/>
       <use x="63.623047" xlink:href="#DejaVuSans-50"/>
       <use x="127.246094" xlink:href="#DejaVuSans-58"/>
       <use x="160.9375" xlink:href="#DejaVuSans-51"/>
       <use x="224.560547" xlink:href="#DejaVuSans-54"/>
       <use x="288.183594" xlink:href="#DejaVuSans-58"/>
       <use x="321.875" xlink:href="#DejaVuSans-53"/>
       <use x="385.498047" xlink:href="#DejaVuSans-56"/>
      </g>
     </g>
    </g>
    <g id="xtick_2">
     <g id="line2d_2">
      <g>
       <use style="stroke:#000000;stroke-width:0.8;" x="156.518199" xlink:href="#m1b1d2512c2" y="448.56"/>
      </g>
     </g>
     <g id="text_2">
      <!-- 22:37:51 -->
      <g transform="translate(159.277574 500.4725)rotate(-90)scale(0.1 -0.1)">
       <defs>
        <path d="M 8.203125 72.90625 
L 55.078125 72.90625 
L 55.078125 68.703125 
L 28.609375 0 
L 18.3125 0 
L 43.21875 64.59375 
L 8.203125 64.59375 
z
" id="DejaVuSans-55"/>
        <path d="M 12.40625 8.296875 
L 28.515625 8.296875 
L 28.515625 63.921875 
L 10.984375 60.40625 
L 10.984375 69.390625 
L 28.421875 72.90625 
L 38.28125 72.90625 
L 38.28125 8.296875 
L 54.390625 8.296875 
L 54.390625 0 
L 12.40625 0 
z
" id="DejaVuSans-49"/>
       </defs>
       <use xlink:href="#DejaVuSans-50"/>
       <use x="63.623047" xlink:href="#DejaVuSans-50"/>
       <use x="127.246094" xlink:href="#DejaVuSans-58"/>
       <use x="160.9375" xlink:href="#DejaVuSans-51"/>
       <use x="224.560547" xlink:href="#DejaVuSans-55"/>
       <use x="288.183594" xlink:href="#DejaVuSans-58"/>
       <use x="321.875" xlink:href="#DejaVuSans-53"/>
       <use x="385.498047" xlink:href="#DejaVuSans-49"/>
      </g>
     </g>
    </g>
    <g id="xtick_3">
     <g id="line2d_3">
      <g>
       <use style="stroke:#000000;stroke-width:0.8;" x="180.687307" xlink:href="#m1b1d2512c2" y="448.56"/>
      </g>
     </g>
     <g id="text_3">
      <!-- 22:38:44 -->
      <g transform="translate(183.446682 500.4725)rotate(-90)scale(0.1 -0.1)">
       <defs>
        <path d="M 37.796875 64.3125 
L 12.890625 25.390625 
L 37.796875 25.390625 
z
M 35.203125 72.90625 
L 47.609375 72.90625 
L 47.609375 25.390625 
L 58.015625 25.390625 
L 58.015625 17.1875 
L 47.609375 17.1875 
L 47.609375 0 
L 37.796875 0 
L 37.796875 17.1875 
L 4.890625 17.1875 
L 4.890625 26.703125 
z
" id="DejaVuSans-52"/>
       </defs>
       <use xlink:href="#DejaVuSans-50"/>
       <use x="63.623047" xlink:href="#DejaVuSans-50"/>
       <use x="127.246094" xlink:href="#DejaVuSans-58"/>
       <use x="160.9375" xlink:href="#DejaVuSans-51"/>
       <use x="224.560547" xlink:href="#DejaVuSans-56"/>
       <use x="288.183594" xlink:href="#DejaVuSans-58"/>
       <use x="321.875" xlink:href="#DejaVuSans-52"/>
       <use x="385.498047" xlink:href="#DejaVuSans-52"/>
      </g>
     </g>
    </g>
    <g id="xtick_4">
     <g id="line2d_4">
      <g>
       <use style="stroke:#000000;stroke-width:0.8;" x="204.856415" xlink:href="#m1b1d2512c2" y="448.56"/>
      </g>
     </g>
     <g id="text_4">
      <!-- 22:39:37 -->
      <g transform="translate(207.61579 500.4725)rotate(-90)scale(0.1 -0.1)">
       <defs>
        <path d="M 10.984375 1.515625 
L 10.984375 10.5 
Q 14.703125 8.734375 18.5 7.8125 
Q 22.3125 6.890625 25.984375 6.890625 
Q 35.75 6.890625 40.890625 13.453125 
Q 46.046875 20.015625 46.78125 33.40625 
Q 43.953125 29.203125 39.59375 26.953125 
Q 35.25 24.703125 29.984375 24.703125 
Q 19.046875 24.703125 12.671875 31.3125 
Q 6.296875 37.9375 6.296875 49.421875 
Q 6.296875 60.640625 12.9375 67.421875 
Q 19.578125 74.21875 30.609375 74.21875 
Q 43.265625 74.21875 49.921875 64.515625 
Q 56.59375 54.828125 56.59375 36.375 
Q 56.59375 19.140625 48.40625 8.859375 
Q 40.234375 -1.421875 26.421875 -1.421875 
Q 22.703125 -1.421875 18.890625 -0.6875 
Q 15.09375 0.046875 10.984375 1.515625 
z
M 30.609375 32.421875 
Q 37.25 32.421875 41.125 36.953125 
Q 45.015625 41.5 45.015625 49.421875 
Q 45.015625 57.28125 41.125 61.84375 
Q 37.25 66.40625 30.609375 66.40625 
Q 23.96875 66.40625 20.09375 61.84375 
Q 16.21875 57.28125 16.21875 49.421875 
Q 16.21875 41.5 20.09375 36.953125 
Q 23.96875 32.421875 30.609375 32.421875 
z
" id="DejaVuSans-57"/>
       </defs>
       <use xlink:href="#DejaVuSans-50"/>
       <use x="63.623047" xlink:href="#DejaVuSans-50"/>
       <use x="127.246094" xlink:href="#DejaVuSans-58"/>
       <use x="160.9375" xlink:href="#DejaVuSans-51"/>
       <use x="224.560547" xlink:href="#DejaVuSans-57"/>
       <use x="288.183594" xlink:href="#DejaVuSans-58"/>
       <use x="321.875" xlink:href="#DejaVuSans-51"/>
       <use x="385.498047" xlink:href="#DejaVuSans-55"/>
      </g>
     </g>
    </g>
    <g id="xtick_5">
     <g id="line2d_5">
      <g>
       <use style="stroke:#000000;stroke-width:0.8;" x="229.025524" xlink:href="#m1b1d2512c2" y="448.56"/>
      </g>
     </g>
     <g id="text_5">
      <!-- 22:40:30 -->
      <g transform="translate(231.784899 500.4725)rotate(-90)scale(0.1 -0.1)">
       <defs>
        <path d="M 31.78125 66.40625 
Q 24.171875 66.40625 20.328125 58.90625 
Q 16.5 51.421875 16.5 36.375 
Q 16.5 21.390625 20.328125 13.890625 
Q 24.171875 6.390625 31.78125 6.390625 
Q 39.453125 6.390625 43.28125 13.890625 
Q 47.125 21.390625 47.125 36.375 
Q 47.125 51.421875 43.28125 58.90625 
Q 39.453125 66.40625 31.78125 66.40625 
z
M 31.78125 74.21875 
Q 44.046875 74.21875 50.515625 64.515625 
Q 56.984375 54.828125 56.984375 36.375 
Q 56.984375 17.96875 50.515625 8.265625 
Q 44.046875 -1.421875 31.78125 -1.421875 
Q 19.53125 -1.421875 13.0625 8.265625 
Q 6.59375 17.96875 6.59375 36.375 
Q 6.59375 54.828125 13.0625 64.515625 
Q 19.53125 74.21875 31.78125 74.21875 
z
" id="DejaVuSans-48"/>
       </defs>
       <use xlink:href="#DejaVuSans-50"/>
       <use x="63.623047" xlink:href="#DejaVuSans-50"/>
       <use x="127.246094" xlink:href="#DejaVuSans-58"/>
       <use x="160.9375" xlink:href="#DejaVuSans-52"/>
       <use x="224.560547" xlink:href="#DejaVuSans-48"/>
       <use x="288.183594" xlink:href="#DejaVuSans-58"/>
       <use x="321.875" xlink:href="#DejaVuSans-51"/>
       <use x="385.498047" xlink:href="#DejaVuSans-48"/>
      </g>
     </g>
    </g>
    <g id="xtick_6">
     <g id="line2d_6">
      <g>
       <use style="stroke:#000000;stroke-width:0.8;" x="253.194632" xlink:href="#m1b1d2512c2" y="448.56"/>
      </g>
     </g>
     <g id="text_6">
      <!-- 22:41:23 -->
      <g transform="translate(255.954007 500.4725)rotate(-90)scale(0.1 -0.1)">
       <use xlink:href="#DejaVuSans-50"/>
       <use x="63.623047" xlink:href="#DejaVuSans-50"/>
       <use x="127.246094" xlink:href="#DejaVuSans-58"/>
       <use x="160.9375" xlink:href="#DejaVuSans-52"/>
       <use x="224.560547" xlink:href="#DejaVuSans-49"/>
       <use x="288.183594" xlink:href="#DejaVuSans-58"/>
       <use x="321.875" xlink:href="#DejaVuSans-50"/>
       <use x="385.498047" xlink:href="#DejaVuSans-51"/>
      </g>
     </g>
    </g>
    <g id="xtick_7">
     <g id="line2d_7">
      <g>
       <use style="stroke:#000000;stroke-width:0.8;" x="277.36374" xlink:href="#m1b1d2512c2" y="448.56"/>
      </g>
     </g>
     <g id="text_7">
      <!-- 22:42:16 -->
      <g transform="translate(280.123115 500.4725)rotate(-90)scale(0.1 -0.1)">
       <use xlink:href="#DejaVuSans-50"/>
       <use x="63.623047" xlink:href="#DejaVuSans-50"/>
       <use x="127.246094" xlink:href="#DejaVuSans-58"/>
       <use x="160.9375" xlink:href="#DejaVuSans-52"/>
       <use x="224.560547" xlink:href="#DejaVuSans-50"/>
       <use x="288.183594" xlink:href="#DejaVuSans-58"/>
       <use x="321.875" xlink:href="#DejaVuSans-49"/>
       <use x="385.498047" xlink:href="#DejaVuSans-54"/>
      </g>
     </g>
    </g>
    <g id="xtick_8">
     <g id="line2d_8">
      <g>
       <use style="stroke:#000000;stroke-width:0.8;" x="301.532848" xlink:href="#m1b1d2512c2" y="448.56"/>
      </g>
     </g>
     <g id="text_8">
      <!-- 22:43:09 -->
      <g transform="translate(304.292223 500.4725)rotate(-90)scale(0.1 -0.1)">
       <use xlink:href="#DejaVuSans-50"/>
       <use x="63.623047" xlink:href="#DejaVuSans-50"/>
       <use x="127.246094" xlink:href="#DejaVuSans-58"/>
       <use x="160.9375" xlink:href="#DejaVuSans-52"/>
       <use x="224.560547" xlink:href="#DejaVuSans-51"/>
       <use x="288.183594" xlink:href="#DejaVuSans-58"/>
       <use x="321.875" xlink:href="#DejaVuSans-48"/>
       <use x="385.498047" xlink:href="#DejaVuSans-57"/>
      </g>
     </g>
    </g>
    <g id="xtick_9">
     <g id="line2d_9">
      <g>
       <use style="stroke:#000000;stroke-width:0.8;" x="325.701956" xlink:href="#m1b1d2512c2" y="448.56"/>
      </g>
     </g>
     <g id="text_9">
      <!-- 22:44:02 -->
      <g transform="translate(328.461331 500.4725)rotate(-90)scale(0.1 -0.1)">
       <use xlink:href="#DejaVuSans-50"/>
       <use x="63.623047" xlink:href="#DejaVuSans-50"/>
       <use x="127.246094" xlink:href="#DejaVuSans-58"/>
       <use x="160.9375" xlink:href="#DejaVuSans-52"/>
       <use x="224.560547" xlink:href="#DejaVuSans-52"/>
       <use x="288.183594" xlink:href="#DejaVuSans-58"/>
       <use x="321.875" xlink:href="#DejaVuSans-48"/>
       <use x="385.498047" xlink:href="#DejaVuSans-50"/>
      </g>
     </g>
    </g>
    <g id="xtick_10">
     <g id="line2d_10">
      <g>
       <use style="stroke:#000000;stroke-width:0.8;" x="349.871065" xlink:href="#m1b1d2512c2" y="448.56"/>
      </g>
     </g>
     <g id="text_10">
      <!-- 22:44:55 -->
      <g transform="translate(352.63044 500.4725)rotate(-90)scale(0.1 -0.1)">
       <use xlink:href="#DejaVuSans-50"/>
       <use x="63.623047" xlink:href="#DejaVuSans-50"/>
       <use x="127.246094" xlink:href="#DejaVuSans-58"/>
       <use x="160.9375" xlink:href="#DejaVuSans-52"/>
       <use x="224.560547" xlink:href="#DejaVuSans-52"/>
       <use x="288.183594" xlink:href="#DejaVuSans-58"/>
       <use x="321.875" xlink:href="#DejaVuSans-53"/>
       <use x="385.498047" xlink:href="#DejaVuSans-53"/>
      </g>
     </g>
    </g>
    <g id="xtick_11">
     <g id="line2d_11">
      <g>
       <use style="stroke:#000000;stroke-width:0.8;" x="374.040173" xlink:href="#m1b1d2512c2" y="448.56"/>
      </g>
     </g>
     <g id="text_11">
      <!-- 22:45:47 -->
      <g transform="translate(376.799548 500.4725)rotate(-90)scale(0.1 -0.1)">
       <use xlink:href="#DejaVuSans-50"/>
       <use x="63.623047" xlink:href="#DejaVuSans-50"/>
       <use x="127.246094" xlink:href="#DejaVuSans-58"/>
       <use x="160.9375" xlink:href="#DejaVuSans-52"/>
       <use x="224.560547" xlink:href="#DejaVuSans-53"/>
       <use x="288.183594" xlink:href="#DejaVuSans-58"/>
       <use x="321.875" xlink:href="#DejaVuSans-52"/>
       <use x="385.498047" xlink:href="#DejaVuSans-55"/>
      </g>
     </g>
    </g>
    <g id="xtick_12">
     <g id="line2d_12">
      <g>
       <use style="stroke:#000000;stroke-width:0.8;" x="398.209281" xlink:href="#m1b1d2512c2" y="448.56"/>
      </g>
     </g>
     <g id="text_12">
      <!-- 22:46:40 -->
      <g transform="translate(400.968656 500.4725)rotate(-90)scale(0.1 -0.1)">
       <use xlink:href="#DejaVuSans-50"/>
       <use x="63.623047" xlink:href="#DejaVuSans-50"/>
       <use x="127.246094" xlink:href="#DejaVuSans-58"/>
       <use x="160.9375" xlink:href="#DejaVuSans-52"/>
       <use x="224.560547" xlink:href="#DejaVuSans-54"/>
       <use x="288.183594" xlink:href="#DejaVuSans-58"/>
       <use x="321.875" xlink:href="#DejaVuSans-52"/>
       <use x="385.498047" xlink:href="#DejaVuSans-48"/>
      </g>
     </g>
    </g>
    <g id="xtick_13">
     <g id="line2d_13">
      <g>
       <use style="stroke:#000000;stroke-width:0.8;" x="422.378389" xlink:href="#m1b1d2512c2" y="448.56"/>
      </g>
     </g>
     <g id="text_13">
      <!-- 22:47:33 -->
      <g transform="translate(425.137764 500.4725)rotate(-90)scale(0.1 -0.1)">
       <use xlink:href="#DejaVuSans-50"/>
       <use x="63.623047" xlink:href="#DejaVuSans-50"/>
       <use x="127.246094" xlink:href="#DejaVuSans-58"/>
       <use x="160.9375" xlink:href="#DejaVuSans-52"/>
       <use x="224.560547" xlink:href="#DejaVuSans-55"/>
       <use x="288.183594" xlink:href="#DejaVuSans-58"/>
       <use x="321.875" xlink:href="#DejaVuSans-51"/>
       <use x="385.498047" xlink:href="#DejaVuSans-51"/>
      </g>
     </g>
    </g>
    <g id="xtick_14">
     <g id="line2d_14">
      <g>
       <use style="stroke:#000000;stroke-width:0.8;" x="446.547497" xlink:href="#m1b1d2512c2" y="448.56"/>
      </g>
     </g>
     <g id="text_14">
      <!-- 22:48:26 -->
      <g transform="translate(449.306872 500.4725)rotate(-90)scale(0.1 -0.1)">
       <use xlink:href="#DejaVuSans-50"/>
       <use x="63.623047" xlink:href="#DejaVuSans-50"/>
       <use x="127.246094" xlink:href="#DejaVuSans-58"/>
       <use x="160.9375" xlink:href="#DejaVuSans-52"/>
       <use x="224.560547" xlink:href="#DejaVuSans-56"/>
       <use x="288.183594" xlink:href="#DejaVuSans-58"/>
       <use x="321.875" xlink:href="#DejaVuSans-50"/>
       <use x="385.498047" xlink:href="#DejaVuSans-54"/>
      </g>
     </g>
    </g>
    <g id="xtick_15">
     <g id="line2d_15">
      <g>
       <use style="stroke:#000000;stroke-width:0.8;" x="470.716606" xlink:href="#m1b1d2512c2" y="448.56"/>
      </g>
     </g>
     <g id="text_15">
      <!-- 22:49:19 -->
      <g transform="translate(473.475981 500.4725)rotate(-90)scale(0.1 -0.1)">
       <use xlink:href="#DejaVuSans-50"/>
       <use x="63.623047" xlink:href="#DejaVuSans-50"/>
       <use x="127.246094" xlink:href="#DejaVuSans-58"/>
       <use x="160.9375" xlink:href="#DejaVuSans-52"/>
       <use x="224.560547" xlink:href="#DejaVuSans-57"/>
       <use x="288.183594" xlink:href="#DejaVuSans-58"/>
       <use x="321.875" xlink:href="#DejaVuSans-49"/>
       <use x="385.498047" xlink:href="#DejaVuSans-57"/>
      </g>
     </g>
    </g>
    <g id="xtick_16">
     <g id="line2d_16">
      <g>
       <use style="stroke:#000000;stroke-width:0.8;" x="494.885714" xlink:href="#m1b1d2512c2" y="448.56"/>
      </g>
     </g>
     <g id="text_16">
      <!-- 22:50:12 -->
      <g transform="translate(497.645089 500.4725)rotate(-90)scale(0.1 -0.1)">
       <use xlink:href="#DejaVuSans-50"/>
       <use x="63.623047" xlink:href="#DejaVuSans-50"/>
       <use x="127.246094" xlink:href="#DejaVuSans-58"/>
       <use x="160.9375" xlink:href="#DejaVuSans-53"/>
       <use x="224.560547" xlink:href="#DejaVuSans-48"/>
       <use x="288.183594" xlink:href="#DejaVuSans-58"/>
       <use x="321.875" xlink:href="#DejaVuSans-49"/>
       <use x="385.498047" xlink:href="#DejaVuSans-50"/>
      </g>
     </g>
    </g>
    <g id="xtick_17">
     <g id="line2d_17">
      <g>
       <use style="stroke:#000000;stroke-width:0.8;" x="519.054822" xlink:href="#m1b1d2512c2" y="448.56"/>
      </g>
     </g>
     <g id="text_17">
      <!-- 22:51:05 -->
      <g transform="translate(521.814197 500.4725)rotate(-90)scale(0.1 -0.1)">
       <use xlink:href="#DejaVuSans-50"/>
       <use x="63.623047" xlink:href="#DejaVuSans-50"/>
       <use x="127.246094" xlink:href="#DejaVuSans-58"/>
       <use x="160.9375" xlink:href="#DejaVuSans-53"/>
       <use x="224.560547" xlink:href="#DejaVuSans-49"/>
       <use x="288.183594" xlink:href="#DejaVuSans-58"/>
       <use x="321.875" xlink:href="#DejaVuSans-48"/>
       <use x="385.498047" xlink:href="#DejaVuSans-53"/>
      </g>
     </g>
    </g>
    <g id="xtick_18">
     <g id="line2d_18">
      <g>
       <use style="stroke:#000000;stroke-width:0.8;" x="543.22393" xlink:href="#m1b1d2512c2" y="448.56"/>
      </g>
     </g>
     <g id="text_18">
      <!-- 22:51:58 -->
      <g transform="translate(545.983305 500.4725)rotate(-90)scale(0.1 -0.1)">
       <use xlink:href="#DejaVuSans-50"/>
       <use x="63.623047" xlink:href="#DejaVuSans-50"/>
       <use x="127.246094" xlink:href="#DejaVuSans-58"/>
       <use x="160.9375" xlink:href="#DejaVuSans-53"/>
       <use x="224.560547" xlink:href="#DejaVuSans-49"/>
       <use x="288.183594" xlink:href="#DejaVuSans-58"/>
       <use x="321.875" xlink:href="#DejaVuSans-53"/>
       <use x="385.498047" xlink:href="#DejaVuSans-56"/>
      </g>
     </g>
    </g>
    <g id="xtick_19">
     <g id="line2d_19">
      <g>
       <use style="stroke:#000000;stroke-width:0.8;" x="567.393038" xlink:href="#m1b1d2512c2" y="448.56"/>
      </g>
     </g>
     <g id="text_19">
      <!-- 22:52:51 -->
      <g transform="translate(570.152413 500.4725)rotate(-90)scale(0.1 -0.1)">
       <use xlink:href="#DejaVuSans-50"/>
       <use x="63.623047" xlink:href="#DejaVuSans-50"/>
       <use x="127.246094" xlink:href="#DejaVuSans-58"/>
       <use x="160.9375" xlink:href="#DejaVuSans-53"/>
       <use x="224.560547" xlink:href="#DejaVuSans-50"/>
       <use x="288.183594" xlink:href="#DejaVuSans-58"/>
       <use x="321.875" xlink:href="#DejaVuSans-53"/>
       <use x="385.498047" xlink:href="#DejaVuSans-49"/>
      </g>
     </g>
    </g>
    <g id="xtick_20">
     <g id="line2d_20">
      <g>
       <use style="stroke:#000000;stroke-width:0.8;" x="591.562146" xlink:href="#m1b1d2512c2" y="448.56"/>
      </g>
     </g>
     <g id="text_20">
      <!-- 22:53:44 -->
      <g transform="translate(594.321521 500.4725)rotate(-90)scale(0.1 -0.1)">
       <use xlink:href="#DejaVuSans-50"/>
       <use x="63.623047" xlink:href="#DejaVuSans-50"/>
       <use x="127.246094" xlink:href="#DejaVuSans-58"/>
       <use x="160.9375" xlink:href="#DejaVuSans-53"/>
       <use x="224.560547" xlink:href="#DejaVuSans-51"/>
       <use x="288.183594" xlink:href="#DejaVuSans-58"/>
       <use x="321.875" xlink:href="#DejaVuSans-52"/>
       <use x="385.498047" xlink:href="#DejaVuSans-52"/>
      </g>
     </g>
    </g>
    <g id="xtick_21">
     <g id="line2d_21">
      <g>
       <use style="stroke:#000000;stroke-width:0.8;" x="615.731255" xlink:href="#m1b1d2512c2" y="448.56"/>
      </g>
     </g>
     <g id="text_21">
      <!-- 22:54:37 -->
      <g transform="translate(618.49063 500.4725)rotate(-90)scale(0.1 -0.1)">
       <use xlink:href="#DejaVuSans-50"/>
       <use x="63.623047" xlink:href="#DejaVuSans-50"/>
       <use x="127.246094" xlink:href="#DejaVuSans-58"/>
       <use x="160.9375" xlink:href="#DejaVuSans-53"/>
       <use x="224.560547" xlink:href="#DejaVuSans-52"/>
       <use x="288.183594" xlink:href="#DejaVuSans-58"/>
       <use x="321.875" xlink:href="#DejaVuSans-51"/>
       <use x="385.498047" xlink:href="#DejaVuSans-55"/>
      </g>
     </g>
    </g>
    <g id="text_22">
     <!-- timestamp -->
     <g transform="translate(354.264375 510.55125)scale(0.08 -0.08)">
      <defs>
       <path d="M 18.3125 70.21875 
L 18.3125 54.6875 
L 36.8125 54.6875 
L 36.8125 47.703125 
L 18.3125 47.703125 
L 18.3125 18.015625 
Q 18.3125 11.328125 20.140625 9.421875 
Q 21.96875 7.515625 27.59375 7.515625 
L 36.8125 7.515625 
L 36.8125 0 
L 27.59375 0 
Q 17.1875 0 13.234375 3.875 
Q 9.28125 7.765625 9.28125 18.015625 
L 9.28125 47.703125 
L 2.6875 47.703125 
L 2.6875 54.6875 
L 9.28125 54.6875 
L 9.28125 70.21875 
z
" id="DejaVuSans-116"/>
       <path d="M 9.421875 54.6875 
L 18.40625 54.6875 
L 18.40625 0 
L 9.421875 0 
z
M 9.421875 75.984375 
L 18.40625 75.984375 
L 18.40625 64.59375 
L 9.421875 64.59375 
z
" id="DejaVuSans-105"/>
       <path d="M 52 44.1875 
Q 55.375 50.25 60.0625 53.125 
Q 64.75 56 71.09375 56 
Q 79.640625 56 84.28125 50.015625 
Q 88.921875 44.046875 88.921875 33.015625 
L 88.921875 0 
L 79.890625 0 
L 79.890625 32.71875 
Q 79.890625 40.578125 77.09375 44.375 
Q 74.3125 48.1875 68.609375 48.1875 
Q 61.625 48.1875 57.5625 43.546875 
Q 53.515625 38.921875 53.515625 30.90625 
L 53.515625 0 
L 44.484375 0 
L 44.484375 32.71875 
Q 44.484375 40.625 41.703125 44.40625 
Q 38.921875 48.1875 33.109375 48.1875 
Q 26.21875 48.1875 22.15625 43.53125 
Q 18.109375 38.875 18.109375 30.90625 
L 18.109375 0 
L 9.078125 0 
L 9.078125 54.6875 
L 18.109375 54.6875 
L 18.109375 46.1875 
Q 21.1875 51.21875 25.484375 53.609375 
Q 29.78125 56 35.6875 56 
Q 41.65625 56 45.828125 52.96875 
Q 50 49.953125 52 44.1875 
z
" id="DejaVuSans-109"/>
       <path d="M 56.203125 29.59375 
L 56.203125 25.203125 
L 14.890625 25.203125 
Q 15.484375 15.921875 20.484375 11.0625 
Q 25.484375 6.203125 34.421875 6.203125 
Q 39.59375 6.203125 44.453125 7.46875 
Q 49.3125 8.734375 54.109375 11.28125 
L 54.109375 2.78125 
Q 49.265625 0.734375 44.1875 -0.34375 
Q 39.109375 -1.421875 33.890625 -1.421875 
Q 20.796875 -1.421875 13.15625 6.1875 
Q 5.515625 13.8125 5.515625 26.8125 
Q 5.515625 40.234375 12.765625 48.109375 
Q 20.015625 56 32.328125 56 
Q 43.359375 56 49.78125 48.890625 
Q 56.203125 41.796875 56.203125 29.59375 
z
M 47.21875 32.234375 
Q 47.125 39.59375 43.09375 43.984375 
Q 39.0625 48.390625 32.421875 48.390625 
Q 24.90625 48.390625 20.390625 44.140625 
Q 15.875 39.890625 15.1875 32.171875 
z
" id="DejaVuSans-101"/>
       <path d="M 44.28125 53.078125 
L 44.28125 44.578125 
Q 40.484375 46.53125 36.375 47.5 
Q 32.28125 48.484375 27.875 48.484375 
Q 21.1875 48.484375 17.84375 46.4375 
Q 14.5 44.390625 14.5 40.28125 
Q 14.5 37.15625 16.890625 35.375 
Q 19.28125 33.59375 26.515625 31.984375 
L 29.59375 31.296875 
Q 39.15625 29.25 43.1875 25.515625 
Q 47.21875 21.78125 47.21875 15.09375 
Q 47.21875 7.46875 41.1875 3.015625 
Q 35.15625 -1.421875 24.609375 -1.421875 
Q 20.21875 -1.421875 15.453125 -0.5625 
Q 10.6875 0.296875 5.421875 2 
L 5.421875 11.28125 
Q 10.40625 8.6875 15.234375 7.390625 
Q 20.0625 6.109375 24.8125 6.109375 
Q 31.15625 6.109375 34.5625 8.28125 
Q 37.984375 10.453125 37.984375 14.40625 
Q 37.984375 18.0625 35.515625 20.015625 
Q 33.0625 21.96875 24.703125 23.78125 
L 21.578125 24.515625 
Q 13.234375 26.265625 9.515625 29.90625 
Q 5.8125 33.546875 5.8125 39.890625 
Q 5.8125 47.609375 11.28125 51.796875 
Q 16.75 56 26.8125 56 
Q 31.78125 56 36.171875 55.265625 
Q 40.578125 54.546875 44.28125 53.078125 
z
" id="DejaVuSans-115"/>
       <path d="M 34.28125 27.484375 
Q 23.390625 27.484375 19.1875 25 
Q 14.984375 22.515625 14.984375 16.5 
Q 14.984375 11.71875 18.140625 8.90625 
Q 21.296875 6.109375 26.703125 6.109375 
Q 34.1875 6.109375 38.703125 11.40625 
Q 43.21875 16.703125 43.21875 25.484375 
L 43.21875 27.484375 
z
M 52.203125 31.203125 
L 52.203125 0 
L 43.21875 0 
L 43.21875 8.296875 
Q 40.140625 3.328125 35.546875 0.953125 
Q 30.953125 -1.421875 24.3125 -1.421875 
Q 15.921875 -1.421875 10.953125 3.296875 
Q 6 8.015625 6 15.921875 
Q 6 25.140625 12.171875 29.828125 
Q 18.359375 34.515625 30.609375 34.515625 
L 43.21875 34.515625 
L 43.21875 35.40625 
Q 43.21875 41.609375 39.140625 45 
Q 35.0625 48.390625 27.6875 48.390625 
Q 23 48.390625 18.546875 47.265625 
Q 14.109375 46.140625 10.015625 43.890625 
L 10.015625 52.203125 
Q 14.9375 54.109375 19.578125 55.046875 
Q 24.21875 56 28.609375 56 
Q 40.484375 56 46.34375 49.84375 
Q 52.203125 43.703125 52.203125 31.203125 
z
" id="DejaVuSans-97"/>
       <path d="M 18.109375 8.203125 
L 18.109375 -20.796875 
L 9.078125 -20.796875 
L 9.078125 54.6875 
L 18.109375 54.6875 
L 18.109375 46.390625 
Q 20.953125 51.265625 25.265625 53.625 
Q 29.59375 56 35.59375 56 
Q 45.5625 56 51.78125 48.09375 
Q 58.015625 40.1875 58.015625 27.296875 
Q 58.015625 14.40625 51.78125 6.484375 
Q 45.5625 -1.421875 35.59375 -1.421875 
Q 29.59375 -1.421875 25.265625 0.953125 
Q 20.953125 3.328125 18.109375 8.203125 
z
M 48.6875 27.296875 
Q 48.6875 37.203125 44.609375 42.84375 
Q 40.53125 48.484375 33.40625 48.484375 
Q 26.265625 48.484375 22.1875 42.84375 
Q 18.109375 37.203125 18.109375 27.296875 
Q 18.109375 17.390625 22.1875 11.75 
Q 26.265625 6.109375 33.40625 6.109375 
Q 40.53125 6.109375 44.609375 11.75 
Q 48.6875 17.390625 48.6875 27.296875 
z
" id="DejaVuSans-112"/>
      </defs>
      <use xlink:href="#DejaVuSans-116"/>
      <use x="39.208984" xlink:href="#DejaVuSans-105"/>
      <use x="66.992188" xlink:href="#DejaVuSans-109"/>
      <use x="164.404297" xlink:href="#DejaVuSans-101"/>
      <use x="225.927734" xlink:href="#DejaVuSans-115"/>
      <use x="278.027344" xlink:href="#DejaVuSans-116"/>
      <use x="317.236328" xlink:href="#DejaVuSans-97"/>
      <use x="378.515625" xlink:href="#DejaVuSans-109"/>
      <use x="475.927734" xlink:href="#DejaVuSans-112"/>
     </g>
    </g>
   </g>
   <g id="matplotlib.axis_2">
    <g id="ytick_1">
     <g id="line2d_22">
      <defs>
       <path d="M 0 0 
L -3.5 0 
" id="m6f0def418d" style="stroke:#000000;stroke-width:0.8;"/>
      </defs>
      <g>
       <use style="stroke:#000000;stroke-width:0.8;" x="108" xlink:href="#m6f0def418d" y="412.197521"/>
      </g>
     </g>
     <g id="text_23">
      <!-- 11200 -->
      <g transform="translate(69.1875 415.996739)scale(0.1 -0.1)">
       <use xlink:href="#DejaVuSans-49"/>
       <use x="63.623047" xlink:href="#DejaVuSans-49"/>
       <use x="127.246094" xlink:href="#DejaVuSans-50"/>
       <use x="190.869141" xlink:href="#DejaVuSans-48"/>
       <use x="254.492188" xlink:href="#DejaVuSans-48"/>
      </g>
     </g>
    </g>
    <g id="ytick_2">
     <g id="line2d_23">
      <g>
       <use style="stroke:#000000;stroke-width:0.8;" x="108" xlink:href="#m6f0def418d" y="331.203926"/>
      </g>
     </g>
     <g id="text_24">
      <!-- 11400 -->
      <g transform="translate(69.1875 335.003144)scale(0.1 -0.1)">
       <use xlink:href="#DejaVuSans-49"/>
       <use x="63.623047" xlink:href="#DejaVuSans-49"/>
       <use x="127.246094" xlink:href="#DejaVuSans-52"/>
       <use x="190.869141" xlink:href="#DejaVuSans-48"/>
       <use x="254.492188" xlink:href="#DejaVuSans-48"/>
      </g>
     </g>
    </g>
    <g id="ytick_3">
     <g id="line2d_24">
      <g>
       <use style="stroke:#000000;stroke-width:0.8;" x="108" xlink:href="#m6f0def418d" y="250.210331"/>
      </g>
     </g>
     <g id="text_25">
      <!-- 11600 -->
      <g transform="translate(69.1875 254.00955)scale(0.1 -0.1)">
       <use xlink:href="#DejaVuSans-49"/>
       <use x="63.623047" xlink:href="#DejaVuSans-49"/>
       <use x="127.246094" xlink:href="#DejaVuSans-54"/>
       <use x="190.869141" xlink:href="#DejaVuSans-48"/>
       <use x="254.492188" xlink:href="#DejaVuSans-48"/>
      </g>
     </g>
    </g>
    <g id="ytick_4">
     <g id="line2d_25">
      <g>
       <use style="stroke:#000000;stroke-width:0.8;" x="108" xlink:href="#m6f0def418d" y="169.216736"/>
      </g>
     </g>
     <g id="text_26">
      <!-- 11800 -->
      <g transform="translate(69.1875 173.015955)scale(0.1 -0.1)">
       <use xlink:href="#DejaVuSans-49"/>
       <use x="63.623047" xlink:href="#DejaVuSans-49"/>
       <use x="127.246094" xlink:href="#DejaVuSans-56"/>
       <use x="190.869141" xlink:href="#DejaVuSans-48"/>
       <use x="254.492188" xlink:href="#DejaVuSans-48"/>
      </g>
     </g>
    </g>
    <g id="ytick_5">
     <g id="line2d_26">
      <g>
       <use style="stroke:#000000;stroke-width:0.8;" x="108" xlink:href="#m6f0def418d" y="88.223141"/>
      </g>
     </g>
     <g id="text_27">
      <!-- 12000 -->
      <g transform="translate(69.1875 92.02236)scale(0.1 -0.1)">
       <use xlink:href="#DejaVuSans-49"/>
       <use x="63.623047" xlink:href="#DejaVuSans-50"/>
       <use x="127.246094" xlink:href="#DejaVuSans-48"/>
       <use x="190.869141" xlink:href="#DejaVuSans-48"/>
       <use x="254.492188" xlink:href="#DejaVuSans-48"/>
      </g>
     </g>
    </g>
    <g id="text_28">
     <!-- MB -->
     <g transform="translate(63.52375 260.715625)rotate(-90)scale(0.08 -0.08)">
      <defs>
       <path d="M 9.8125 72.90625 
L 24.515625 72.90625 
L 43.109375 23.296875 
L 61.8125 72.90625 
L 76.515625 72.90625 
L 76.515625 0 
L 66.890625 0 
L 66.890625 64.015625 
L 48.09375 14.015625 
L 38.1875 14.015625 
L 19.390625 64.015625 
L 19.390625 0 
L 9.8125 0 
z
" id="DejaVuSans-77"/>
       <path d="M 19.671875 34.8125 
L 19.671875 8.109375 
L 35.5 8.109375 
Q 43.453125 8.109375 47.28125 11.40625 
Q 51.125 14.703125 51.125 21.484375 
Q 51.125 28.328125 47.28125 31.5625 
Q 43.453125 34.8125 35.5 34.8125 
z
M 19.671875 64.796875 
L 19.671875 42.828125 
L 34.28125 42.828125 
Q 41.5 42.828125 45.03125 45.53125 
Q 48.578125 48.25 48.578125 53.8125 
Q 48.578125 59.328125 45.03125 62.0625 
Q 41.5 64.796875 34.28125 64.796875 
z
M 9.8125 72.90625 
L 35.015625 72.90625 
Q 46.296875 72.90625 52.390625 68.21875 
Q 58.5 63.53125 58.5 54.890625 
Q 58.5 48.1875 55.375 44.234375 
Q 52.25 40.28125 46.1875 39.3125 
Q 53.46875 37.75 57.5 32.78125 
Q 61.53125 27.828125 61.53125 20.40625 
Q 61.53125 10.640625 54.890625 5.3125 
Q 48.25 0 35.984375 0 
L 9.8125 0 
z
" id="DejaVuSans-66"/>
      </defs>
      <use xlink:href="#DejaVuSans-77"/>
      <use x="86.279297" xlink:href="#DejaVuSans-66"/>
     </g>
    </g>
   </g>
   <g id="line2d_27">
    <path clip-path="url(#p46fb65f42a)" d="M 132.349091 79.626481 
L 132.863327 79.942356 
L 133.377564 79.610282 
L 133.8918 78.669137 
L 134.406036 78.49419 
L 134.920273 79.960174 
L 135.434509 79.973133 
L 135.948745 78.12 
L 136.462982 78.218812 
L 136.977218 81.056828 
L 137.491454 81.162119 
L 138.005691 81.050348 
L 138.519927 112.598973 
L 139.034163 123.866802 
L 139.5484 194.013735 
L 140.062636 216.003496 
L 141.091109 268.343177 
L 141.605345 307.348072 
L 142.119581 330.622392 
L 142.633818 360.549525 
L 143.148054 373.521459 
L 143.66229 372.11703 
L 144.176527 378.964229 
L 145.719236 374.541978 
L 146.747709 378.627295 
L 147.261945 378.173731 
L 147.776181 377.158072 
L 148.290418 376.647812 
L 148.804654 378.452349 
L 149.31889 379.83086 
L 149.833127 378.431291 
L 150.347363 377.972867 
L 151.375836 377.438309 
L 151.890072 376.349756 
L 152.404308 376.007963 
L 152.918545 375.207746 
L 153.432781 381.253108 
L 153.947017 381.578702 
L 154.461254 381.279026 
L 154.97549 380.234208 
L 155.489726 379.855158 
L 156.003963 383.146738 
L 156.518199 381.419955 
L 157.032435 381.525246 
L 157.546672 378.44749 
L 158.060908 380.315202 
L 158.575144 382.979891 
L 159.089381 382.61542 
L 159.603617 380.880537 
L 160.117854 380.703971 
L 160.63209 383.054405 
L 161.660563 382.659157 
L 162.174799 382.098681 
L 162.689035 380.948572 
L 163.203272 381.85084 
L 163.717508 381.708292 
L 164.231744 381.85732 
L 164.745981 380.663474 
L 165.260217 380.229349 
L 165.774453 382.160236 
L 166.28869 382.187774 
L 166.802926 388.916722 
L 167.317162 386.619743 
L 167.831399 394.173206 
L 168.345635 394.495561 
L 168.859871 394.385409 
L 169.374108 390.442641 
L 169.888344 389.357327 
L 170.40258 389.610027 
L 171.945289 386.171039 
L 172.459526 389.266614 
L 172.973762 389.57439 
L 173.487998 389.532273 
L 174.002235 388.207218 
L 174.516471 388.200738 
L 175.030707 389.132165 
L 175.544944 388.29955 
L 176.05918 387.147822 
L 176.573417 385.354623 
L 177.601889 389.206679 
L 178.116126 388.521473 
L 178.630362 387.499334 
L 179.144598 387.338966 
L 179.658835 388.93616 
L 180.173071 389.148363 
L 180.687307 388.660782 
L 181.201544 387.316288 
L 182.230016 387.959377 
L 182.744253 387.512293 
L 183.258489 386.383242 
L 183.772725 386.647281 
L 184.286962 389.653763 
L 184.801198 390.110567 
L 185.315434 389.736377 
L 185.829671 387.852466 
L 186.343907 387.154301 
L 186.858143 389.264994 
L 187.886616 389.550092 
L 188.400852 386.906461 
L 188.915089 388.017693 
L 189.429325 389.556571 
L 189.943561 389.791453 
L 190.457798 389.06575 
L 190.972034 387.750414 
L 191.486271 390.478278 
L 192.000507 390.411863 
L 192.514743 390.684002 
L 193.02898 390.598149 
L 193.543216 389.245556 
L 194.057452 389.593828 
L 194.571689 388.869745 
L 195.085925 388.576549 
L 195.600161 387.131623 
L 196.114398 390.439401 
L 196.628634 389.963159 
L 197.14287 389.989077 
L 197.657107 388.124604 
L 198.171343 388.267153 
L 198.685579 388.187779 
L 199.199816 388.675361 
L 199.714052 388.455058 
L 200.228288 387.018232 
L 200.742525 388.037131 
L 201.256761 389.469098 
L 201.770997 389.326549 
L 202.285234 384.021469 
L 202.79947 382.440474 
L 203.313706 386.828707 
L 203.827943 386.482054 
L 204.342179 386.66024 
L 205.370652 383.047926 
L 205.884888 386.167799 
L 206.399125 384.977193 
L 206.913361 384.776329 
L 207.427597 383.898359 
L 207.941834 385.414559 
L 208.45607 390.249876 
L 208.970306 390.573851 
L 209.998779 389.386485 
L 210.513015 389.271474 
L 211.027252 388.654302 
L 211.541488 388.468017 
L 212.055724 384.941556 
L 212.569961 385.848684 
L 213.084197 386.169419 
L 213.598433 385.822766 
L 214.11267 385.664019 
L 214.626906 384.6354 
L 215.141142 388.547391 
L 215.655379 389.682921 
L 216.169615 387.764993 
L 216.683851 387.962617 
L 217.198088 386.579247 
L 217.712324 389.345988 
L 218.22656 386.872443 
L 218.740797 385.871363 
L 219.255033 385.356243 
L 220.283506 389.853008 
L 221.311978 389.520934 
L 221.826215 387.79901 
L 222.340451 387.6759 
L 222.854688 387.80063 
L 223.368924 387.705058 
L 223.88316 386.443177 
L 224.397397 385.561967 
L 224.911633 389.154843 
L 225.425869 388.960458 
L 226.454342 386.261752 
L 226.968578 387.261213 
L 227.482815 387.862185 
L 227.997051 387.758513 
L 228.511287 387.287131 
L 229.025524 386.622983 
L 229.53976 390.223958 
L 230.053996 390.295233 
L 230.568233 389.887025 
L 231.082469 388.592747 
L 231.596705 386.258512 
L 232.110942 389.179141 
L 232.625178 389.044692 
L 233.139414 387.964237 
L 233.653651 387.261213 
L 234.167887 388.019313 
L 234.682123 388.351386 
L 235.19636 386.634322 
L 235.710596 385.39998 
L 236.224832 389.750956 
L 236.739069 393.078173 
L 237.253305 392.674824 
L 237.767542 387.219096 
L 238.281778 387.322768 
L 238.796014 388.220177 
L 239.310251 390.556032 
L 239.824487 389.733137 
L 240.338723 395.533898 
L 241.881432 391.516616 
L 242.395669 391.493938 
L 242.909905 389.538752 
L 243.424141 388.218557 
L 243.938378 389.253655 
L 244.452614 394.168346 
L 244.96685 393.23854 
L 245.481087 391.72072 
L 245.995323 392.700742 
L 246.509559 390.279034 
L 247.023796 389.31359 
L 247.538032 388.876225 
L 248.052268 387.79739 
L 248.566505 390.173742 
L 249.080741 389.613267 
L 249.594977 395.188866 
L 250.109214 394.968563 
L 250.62345 396.249882 
L 251.137686 398.857876 
L 251.651923 398.308739 
L 252.680396 395.360572 
L 253.194632 396.037679 
L 254.223105 396.279039 
L 254.737341 396.071696 
L 255.251577 394.327094 
L 255.765814 397.560358 
L 256.28005 397.2785 
L 256.794286 395.919428 
L 257.308523 394.208843 
L 257.822759 396.572236 
L 258.336995 397.435628 
L 258.851232 396.837895 
L 259.365468 395.420507 
L 259.879704 394.516619 
L 260.393941 397.821158 
L 260.908177 397.652691 
L 261.93665 395.836814 
L 262.450886 397.429149 
L 262.965122 399.638654 
L 263.479359 398.593836 
L 263.993595 397.069537 
L 264.507831 397.0258 
L 265.022068 398.878934 
L 266.05054 398.480445 
L 266.564777 398.239084 
L 267.079013 396.543079 
L 267.593249 396.068456 
L 268.621722 395.969644 
L 269.135959 393.416726 
L 269.650195 394.346532 
L 270.164431 396.917269 
L 270.678668 396.407009 
L 271.192904 395.475583 
L 271.70714 394.306035 
L 272.221377 396.998263 
L 272.735613 396.928608 
L 273.249849 396.360033 
L 273.764086 396.496102 
L 274.278322 394.673746 
L 274.792558 397.589516 
L 275.306795 397.552259 
L 275.821031 396.434547 
L 276.335267 395.703985 
L 277.877976 396.711545 
L 278.392213 396.441027 
L 278.906449 394.024178 
L 279.420685 398.135413 
L 279.934922 398.109495 
L 280.449158 395.963164 
L 280.963394 395.652149 
L 281.477631 396.217484 
L 281.991867 399.377854 
L 282.506103 398.328177 
L 283.02034 397.861654 
L 283.534576 396.590055 
L 284.048813 398.684549 
L 284.563049 398.409171 
L 285.591522 398.133793 
L 286.105758 396.215864 
L 286.619994 396.700206 
L 287.134231 396.488003 
L 287.648467 396.455606 
L 288.162703 395.310356 
L 288.67694 396.661329 
L 289.191176 397.581416 
L 289.705412 397.638112 
L 290.219649 396.236923 
L 290.733885 395.462624 
L 291.248121 399.157552 
L 292.79083 395.587354 
L 293.305067 396.115432 
L 293.819303 398.439949 
L 294.333539 398.073858 
L 294.847776 398.579258 
L 295.362012 397.563598 
L 295.876248 397.351395 
L 296.904721 397.586276 
L 297.418957 395.909709 
L 297.933194 396.304957 
L 298.44743 391.409705 
L 298.961667 391.654305 
L 299.475903 392.174284 
L 299.990139 390.750417 
L 300.504376 394.952364 
L 301.018612 393.7407 
L 301.532848 393.74394 
L 302.047085 390.71316 
L 303.075557 402.353559 
L 303.589794 402.33574 
L 304.10403 403.10356 
L 304.618266 406.223433 
L 305.132503 406.417818 
L 305.646739 409.202377 
L 306.160975 410.153242 
L 306.675212 410.028512 
L 307.189448 409.029051 
L 307.703684 411.047412 
L 308.217921 410.18726 
L 308.732157 409.746654 
L 309.246393 408.703457 
L 309.76063 408.850865 
L 310.274866 410.848167 
L 311.303339 410.42862 
L 311.817575 409.088986 
L 312.331811 411.074949 
L 312.846048 412.597629 
L 313.360284 412.988018 
L 313.87452 411.544712 
L 314.388757 410.601947 
L 314.902993 412.71264 
L 315.41723 412.693201 
L 315.931466 411.428081 
L 316.445702 410.865986 
L 316.959939 409.665661 
L 317.474175 413.768796 
L 317.988411 413.998818 
L 319.016884 411.867067 
L 319.53112 411.753676 
L 320.045357 414.520417 
L 320.559593 413.747738 
L 321.073829 413.21642 
L 321.588066 411.990177 
L 322.102302 413.21642 
L 322.616538 413.885427 
L 323.130775 413.237478 
L 323.645011 413.054433 
L 324.159247 408.050649 
L 324.673484 411.18834 
L 325.701956 410.640824 
L 326.216193 409.087367 
L 326.730429 409.597626 
L 327.244665 410.909722 
L 327.758902 410.710478 
L 328.273138 409.246114 
L 328.787374 408.176999 
L 329.301611 412.597629 
L 329.815847 412.144065 
L 330.330084 412.007996 
L 330.84432 410.56307 
L 331.358556 410.240715 
L 331.872793 413.203461 
L 332.387029 412.508536 
L 332.901265 411.502596 
L 333.415502 409.380563 
L 333.929738 412.96696 
L 334.443974 413.420524 
L 334.958211 413.404325 
L 335.472447 413.209941 
L 335.986683 411.802272 
L 336.50092 412.574951 
L 337.015156 412.58467 
L 337.529392 412.053352 
L 338.043629 410.551731 
L 338.557865 412.566851 
L 339.072101 413.695902 
L 339.586338 413.141906 
L 340.100574 413.09007 
L 340.61481 411.662963 
L 341.129047 413.929164 
L 341.643283 411.588449 
L 342.157519 411.635425 
L 342.671756 412.148924 
L 343.185992 410.763934 
L 343.700228 414.172144 
L 344.214465 413.997198 
L 344.728701 413.694282 
L 345.242938 412.20076 
L 345.757174 412.532834 
L 346.27141 413.529055 
L 347.299883 412.628407 
L 347.814119 417.603033 
L 348.328356 419.904871 
L 348.842592 419.985865 
L 349.356828 419.477225 
L 349.871065 418.359513 
L 350.385301 416.175926 
L 350.899537 419.035 
L 351.413774 419.684569 
L 351.92801 418.468045 
L 352.442246 418.370852 
L 352.956483 420.500984 
L 353.984955 419.79148 
L 354.499192 419.676469 
L 355.013428 418.506922 
L 355.527664 420.713187 
L 356.041901 420.742345 
L 356.556137 420.969127 
L 357.070373 418.848715 
L 357.58461 419.618154 
L 358.613082 419.357354 
L 359.127319 416.908108 
L 359.641555 416.469123 
L 360.155791 419.597095 
L 360.670028 419.444827 
L 361.184264 419.044719 
L 361.698501 419.195367 
L 362.212737 418.137591 
L 362.726973 420.345476 
L 363.755446 420.403792 
L 364.269682 418.351414 
L 365.298155 420.938349 
L 365.812391 421.080898 
L 366.326628 420.943209 
L 366.840864 420.107355 
L 367.3551 421.050121 
L 367.869337 421.662432 
L 368.383573 421.204008 
L 368.897809 418.123012 
L 369.412046 417.559297 
L 369.926282 419.810919 
L 370.440518 420.094396 
L 370.954755 419.318477 
L 371.468991 418.038779 
L 371.983227 421.250985 
L 372.497464 420.536621 
L 373.0117 425.86114 
L 373.525936 426.003689 
L 374.040173 425.180794 
L 374.554409 426.99991 
L 375.068645 422.728308 
L 375.582882 421.105196 
L 376.097118 420.818479 
L 376.611355 421.139213 
L 377.125591 423.650015 
L 377.639827 429.692137 
L 378.154064 429.230474 
L 378.6683 422.908114 
L 379.182536 422.765565 
L 380.211009 422.179171 
L 380.725245 419.380033 
L 381.239482 418.746663 
L 381.753718 422.166212 
L 382.267954 422.838459 
L 383.296427 419.632733 
L 383.810663 420.956168 
L 384.3249 420.290401 
L 385.353372 419.887053 
L 385.867609 418.689967 
L 386.381845 422.041482 
L 386.896081 422.295802 
L 387.410318 421.978307 
L 387.924554 420.483165 
L 388.43879 420.074958 
L 388.953027 421.631655 
L 389.467263 421.247745 
L 389.981499 419.303899 
L 390.495736 418.670529 
L 391.524209 422.938891 
L 392.038445 422.491807 
L 392.552681 422.506385 
L 393.066918 421.749905 
L 393.581154 423.445911 
L 394.09539 422.880576 
L 394.609627 422.57604 
L 395.123863 421.024203 
L 396.152336 424.110059 
L 396.666572 424.353039 
L 397.180808 423.684032 
L 397.695045 422.775284 
L 398.209281 423.160814 
L 398.723517 423.348719 
L 399.237754 422.95347 
L 399.75199 422.268264 
L 400.266226 421.259084 
L 400.780463 424.709411 
L 401.294699 424.262326 
L 401.808935 421.474527 
L 402.323172 420.986946 
L 402.837408 421.562 
L 403.351644 422.610057 
L 403.865881 422.943751 
L 404.380117 421.421071 
L 404.894353 421.963728 
L 405.40859 423.907575 
L 405.922826 424.037164 
L 406.437062 423.292023 
L 406.951299 422.239106 
L 407.465535 421.884355 
L 407.979772 423.011785 
L 409.008244 422.430251 
L 409.522481 421.722367 
L 410.036717 425.548505 
L 410.550953 424.066322 
L 411.06519 423.442671 
L 411.579426 421.020963 
L 412.093662 420.363295 
L 412.607899 424.108439 
L 413.122135 422.903254 
L 413.636371 423.023124 
L 414.150608 421.459948 
L 414.664844 421.620315 
L 415.17908 425.067403 
L 415.693317 423.496127 
L 416.207553 423.892996 
L 416.721789 422.548502 
L 417.236026 423.024744 
L 418.264498 423.110598 
L 418.778735 421.707789 
L 419.292971 422.553362 
L 419.807207 423.952931 
L 420.321444 424.267186 
L 420.83568 423.868698 
L 421.349916 422.423772 
L 421.864153 422.465889 
L 422.892626 423.881657 
L 423.406862 423.539864 
L 423.921098 421.615456 
L 424.435335 424.623558 
L 424.949571 424.553903 
L 425.978044 422.256925 
L 426.49228 423.578741 
L 427.006516 424.009626 
L 427.520753 423.891376 
L 428.034989 423.172153 
L 428.549225 421.782303 
L 429.063462 424.957252 
L 429.577698 424.932953 
L 430.091934 424.72237 
L 430.606171 423.228848 
L 431.120407 423.875177 
L 431.634643 422.621396 
L 432.14888 422.856278 
L 432.663116 422.422152 
L 433.177352 421.110056 
L 433.691589 424.47615 
L 434.205825 425.321723 
L 434.720061 425.473991 
L 435.234298 424.200771 
L 435.748534 422.601958 
L 436.26277 423.384356 
L 436.777007 423.46049 
L 437.291243 422.355737 
L 437.80548 419.320097 
L 438.319716 420.862215 
L 438.833952 423.726149 
L 439.348189 422.755846 
L 439.862425 422.371936 
L 440.376661 420.956168 
L 440.890898 422.648934 
L 441.405134 422.472368 
L 441.91937 427.205634 
L 442.433607 426.078203 
L 442.947843 425.925935 
L 443.462079 421.738566 
L 443.976316 422.06254 
L 444.490552 421.94591 
L 445.004788 420.471826 
L 446.033261 422.997207 
L 446.547497 422.69591 
L 447.061734 421.539322 
L 447.57597 421.367615 
L 448.090206 422.101417 
L 448.604443 422.151633 
L 449.118679 420.483165 
L 449.632915 420.037701 
L 450.147152 419.064158 
L 450.661388 423.557682 
L 451.175624 423.008546 
L 452.204097 420.327658 
L 452.718333 422.06578 
L 453.746806 421.31092 
L 454.261043 421.035542 
L 454.775279 419.485324 
L 455.289515 422.386515 
L 456.317988 419.375173 
L 456.832224 418.587915 
L 457.346461 418.327116 
L 457.860697 419.601955 
L 458.374933 419.344395 
L 458.88917 419.331436 
L 459.403406 418.542559 
L 459.917642 421.033922 
L 460.431879 419.687808 
L 460.946115 419.522581 
L 461.460351 418.359513 
L 462.488824 419.927549 
L 463.00306 419.927549 
L 463.517297 419.106274 
L 464.031533 417.829815 
L 464.545769 421.445369 
L 465.060006 421.835758 
L 465.574242 421.889214 
L 466.088478 421.608976 
L 466.602715 419.79634 
L 467.116951 420.264483 
L 467.631187 420.236945 
L 468.145424 419.070637 
L 468.65966 418.822797 
L 469.173897 420.219126 
L 469.688133 420.335757 
L 470.202369 419.851415 
L 471.230842 417.040938 
L 471.745078 419.132192 
L 472.259315 419.427009 
L 472.773551 418.928088 
L 473.287787 417.803897 
L 473.802024 418.490723 
L 474.31626 421.067939 
L 474.830496 418.971825 
L 475.344733 417.658109 
L 475.858969 417.243422 
L 476.373205 417.292018 
L 477.401678 417.037698 
L 477.915914 417.155948 
L 478.430151 416.561455 
L 478.944387 430.890842 
L 479.458623 430.92 
L 479.97286 430.717516 
L 480.487096 429.066867 
L 481.001332 426.1106 
L 481.515569 426.522048 
L 482.029805 426.232091 
L 483.058278 422.409193 
L 483.572514 427.549047 
L 484.086751 428.01719 
L 484.600987 427.037167 
L 485.115223 425.566323 
L 485.62946 425.009087 
L 486.143696 425.72993 
L 486.657932 425.658656 
L 487.172169 425.35898 
L 487.686405 423.735868 
L 488.200641 426.628959 
L 488.714878 428.39624 
L 489.229114 428.802827 
L 489.74335 426.711573 
L 490.771823 424.620318 
L 491.286059 425.363839 
L 491.800296 425.542025 
L 492.314532 424.050123 
L 492.828768 424.941053 
L 493.343005 425.025286 
L 493.857241 424.459951 
L 494.371477 421.93619 
L 494.885714 421.008004 
L 495.39995 421.463188 
L 495.914186 422.992347 
L 496.942659 422.420532 
L 497.456895 421.482626 
L 497.971132 423.658114 
L 498.485368 423.59008 
L 498.999604 423.071721 
L 499.513841 421.615456 
L 500.542314 424.902176 
L 501.05655 424.968591 
L 501.570786 428.397859 
L 502.085023 428.697536 
L 502.599259 430.746674 
L 503.113495 428.971294 
L 503.627732 424.673774 
L 504.656204 422.694291 
L 505.170441 425.623019 
L 505.684677 424.47615 
L 506.198913 421.328738 
L 506.71315 420.743965 
L 507.741622 422.44969 
L 508.255859 422.026903 
L 508.770095 422.130575 
L 509.284331 420.763403 
L 509.798568 422.19051 
L 510.312804 426.645158 
L 510.82704 427.246131 
L 511.341277 425.972911 
L 511.855513 422.833599 
L 512.369749 424.058223 
L 512.883986 423.858978 
L 513.398222 423.800663 
L 513.912458 421.858437 
L 514.426695 427.205634 
L 514.940931 426.904338 
L 515.455168 422.475608 
L 515.969404 419.114374 
L 516.48364 418.992883 
L 516.997877 422.341158 
L 517.512113 421.387054 
L 518.026349 419.106274 
L 518.540586 419.025281 
L 519.054822 419.519342 
L 519.569058 421.919992 
L 520.083295 421.30768 
L 520.597531 419.462646 
L 521.111767 419.603575 
L 521.626004 422.791483 
L 522.14024 422.877336 
L 522.654476 423.21265 
L 523.168713 422.900014 
L 523.682949 421.843858 
L 524.197185 421.617076 
L 524.711422 421.576579 
L 525.225658 421.06146 
L 525.739894 419.882193 
L 526.254131 423.83468 
L 526.768367 420.721287 
L 527.282603 420.30174 
L 527.79684 417.731003 
L 528.311076 416.216423 
L 528.825312 419.143531 
L 529.853785 416.200224 
L 530.368022 416.141909 
L 531.396494 418.221824 
L 531.910731 418.037159 
L 532.424967 416.206704 
L 532.939203 416.219663 
L 533.45344 418.966965 
L 533.967676 419.182408 
L 534.481912 418.668909 
L 534.996149 417.353573 
L 535.510385 417.581975 
L 536.024621 419.456167 
L 536.538858 417.943206 
L 537.053094 417.523659 
L 537.56733 415.510159 
L 538.081567 418.469665 
L 538.595803 415.284996 
L 539.110039 414.147846 
L 539.624276 414.071712 
L 540.138512 412.33197 
L 540.652748 415.456703 
L 541.166985 415.4891 
L 541.681221 415.134348 
L 542.195457 413.97776 
L 543.22393 416.63435 
L 544.252403 415.050115 
L 544.766639 413.669984 
L 545.280875 417.612752 
L 546.309348 414.149466 
L 546.823585 414.10087 
L 547.337821 412.566851 
L 547.852057 414.585212 
L 548.366294 414.050654 
L 548.88053 414.047414 
L 549.394766 412.626787 
L 550.423239 416.647309 
L 550.937475 416.820635 
L 551.451712 416.7526 
L 551.965948 414.667825 
L 552.994421 415.059834 
L 553.508657 414.708322 
L 554.022893 412.70778 
L 554.53713 413.47236 
L 555.051366 416.132189 
L 556.079839 415.383809 
L 556.594075 413.966421 
L 557.108311 415.696444 
L 557.622548 415.163506 
L 558.136784 414.959402 
L 558.65102 412.620307 
L 559.165257 412.591149 
L 559.679493 415.437264 
L 560.193729 414.578732 
L 560.707966 414.382728 
L 561.222202 411.965879 
L 561.736439 410.360586 
L 562.250675 412.505296 
L 562.764911 411.058751 
L 563.279148 410.631104 
L 563.793384 408.481534 
L 564.30762 411.645144 
L 564.821857 411.57225 
L 565.336093 409.335207 
L 565.850329 409.377324 
L 566.364566 410.300651 
L 566.878802 410.972897 
L 567.393038 409.276892 
L 567.907275 408.133262 
L 568.421511 407.810908 
L 568.935747 412.847089 
L 569.449984 412.83413 
L 569.96422 410.924301 
L 570.478456 409.468036 
L 570.992693 409.482615 
L 571.506929 410.389744 
L 572.021165 410.375165 
L 572.535402 409.693199 
L 573.049638 407.177538 
L 573.563874 408.147841 
L 574.078111 410.085208 
L 574.592347 410.081968 
L 575.106583 407.849784 
L 575.62082 407.595465 
L 576.135056 409.012852 
L 576.649293 409.432399 
L 577.163529 409.238015 
L 577.677765 408.398921 
L 578.192002 408.068467 
L 578.706238 416.430246 
L 579.220474 416.2553 
L 579.734711 415.779057 
L 580.248947 410.469117 
L 580.763183 412.971819 
L 581.27742 411.155943 
L 581.791656 411.439421 
L 582.305892 409.631644 
L 583.334365 407.507991 
L 583.848601 407.802808 
L 584.362838 407.660259 
L 584.877074 405.956154 
L 585.39131 407.164579 
L 585.905547 409.367604 
L 586.419783 409.600866 
L 586.934019 408.272571 
L 587.448256 406.524729 
L 587.962492 408.656481 
L 588.476728 408.766632 
L 588.990965 408.338986 
L 589.505201 407.564687 
L 590.019437 407.942117 
L 590.533674 409.534451 
L 591.04791 407.976134 
L 591.562146 407.830346 
L 592.076383 406.378941 
L 592.590619 408.607884 
L 593.104856 408.322787 
L 593.619092 408.251513 
L 594.133328 406.531209 
L 594.647565 406.583045 
L 595.161801 410.294171 
L 595.676037 410.101406 
L 596.190274 409.596006 
L 596.70451 407.750972 
L 597.218746 408.750433 
L 597.732983 407.495032 
L 598.247219 407.054427 
L 598.761455 407.209935 
L 599.275692 405.296866 
L 599.789928 408.15432 
L 600.304164 407.120842 
L 600.818401 404.712093 
L 601.332637 404.350861 
L 601.846873 402.938333 
L 602.36111 404.452913 
L 602.875346 404.545246 
L 603.389582 404.268248 
L 603.903819 403.437253 
L 604.418055 404.49665 
L 604.932291 408.005292 
L 605.960764 407.729914 
L 606.475 405.113821 
L 606.989237 405.837904 
L 607.503473 406.26717 
L 608.01771 406.150539 
L 609.046182 402.902696 
L 609.560419 406.698056 
L 610.074655 406.442116 
L 610.588891 405.899459 
L 611.103128 403.85356 
L 611.617364 405.335743 
L 612.1316 402.374617 
L 612.645837 402.458851 
L 613.160073 401.179152 
L 613.674309 401.132176 
L 614.188546 402.690492 
L 615.217018 402.251507 
L 615.731255 400.57656 
L 616.245491 404.174295 
L 616.759727 403.527966 
L 617.273964 403.294705 
L 618.302436 400.941031 
L 618.816673 402.727749 
L 619.330909 402.784445 
L 619.330909 402.784445 
" style="fill:none;stroke:#1f77b4;stroke-linecap:square;stroke-width:1.5;"/>
   </g>
   <g id="patch_3">
    <path d="M 108 448.56 
L 108 60.48 
" style="fill:none;stroke:#000000;stroke-linecap:square;stroke-linejoin:miter;stroke-width:0.8;"/>
   </g>
   <g id="patch_4">
    <path d="M 643.68 448.56 
L 643.68 60.48 
" style="fill:none;stroke:#000000;stroke-linecap:square;stroke-linejoin:miter;stroke-width:0.8;"/>
   </g>
   <g id="patch_5">
    <path d="M 108 448.56 
L 643.68 448.56 
" style="fill:none;stroke:#000000;stroke-linecap:square;stroke-linejoin:miter;stroke-width:0.8;"/>
   </g>
   <g id="patch_6">
    <path d="M 108 60.48 
L 643.68 60.48 
" style="fill:none;stroke:#000000;stroke-linecap:square;stroke-linejoin:miter;stroke-width:0.8;"/>
   </g>
   <g id="text_29">
    <!-- unikernel_base - vmstat -->
    <g transform="translate(285.930234 54.48)scale(0.15 -0.15)">
     <defs>
      <path d="M 8.5 21.578125 
L 8.5 54.6875 
L 17.484375 54.6875 
L 17.484375 21.921875 
Q 17.484375 14.15625 20.5 10.265625 
Q 23.53125 6.390625 29.59375 6.390625 
Q 36.859375 6.390625 41.078125 11.03125 
Q 45.3125 15.671875 45.3125 23.6875 
L 45.3125 54.6875 
L 54.296875 54.6875 
L 54.296875 0 
L 45.3125 0 
L 45.3125 8.40625 
Q 42.046875 3.421875 37.71875 1 
Q 33.40625 -1.421875 27.6875 -1.421875 
Q 18.265625 -1.421875 13.375 4.4375 
Q 8.5 10.296875 8.5 21.578125 
z
M 31.109375 56 
z
" id="DejaVuSans-117"/>
      <path d="M 54.890625 33.015625 
L 54.890625 0 
L 45.90625 0 
L 45.90625 32.71875 
Q 45.90625 40.484375 42.875 44.328125 
Q 39.84375 48.1875 33.796875 48.1875 
Q 26.515625 48.1875 22.3125 43.546875 
Q 18.109375 38.921875 18.109375 30.90625 
L 18.109375 0 
L 9.078125 0 
L 9.078125 54.6875 
L 18.109375 54.6875 
L 18.109375 46.1875 
Q 21.34375 51.125 25.703125 53.5625 
Q 30.078125 56 35.796875 56 
Q 45.21875 56 50.046875 50.171875 
Q 54.890625 44.34375 54.890625 33.015625 
z
" id="DejaVuSans-110"/>
      <path d="M 9.078125 75.984375 
L 18.109375 75.984375 
L 18.109375 31.109375 
L 44.921875 54.6875 
L 56.390625 54.6875 
L 27.390625 29.109375 
L 57.625 0 
L 45.90625 0 
L 18.109375 26.703125 
L 18.109375 0 
L 9.078125 0 
z
" id="DejaVuSans-107"/>
      <path d="M 41.109375 46.296875 
Q 39.59375 47.171875 37.8125 47.578125 
Q 36.03125 48 33.890625 48 
Q 26.265625 48 22.1875 43.046875 
Q 18.109375 38.09375 18.109375 28.8125 
L 18.109375 0 
L 9.078125 0 
L 9.078125 54.6875 
L 18.109375 54.6875 
L 18.109375 46.1875 
Q 20.953125 51.171875 25.484375 53.578125 
Q 30.03125 56 36.53125 56 
Q 37.453125 56 38.578125 55.875 
Q 39.703125 55.765625 41.0625 55.515625 
z
" id="DejaVuSans-114"/>
      <path d="M 9.421875 75.984375 
L 18.40625 75.984375 
L 18.40625 0 
L 9.421875 0 
z
" id="DejaVuSans-108"/>
      <path d="M 50.984375 -16.609375 
L 50.984375 -23.578125 
L -0.984375 -23.578125 
L -0.984375 -16.609375 
z
" id="DejaVuSans-95"/>
      <path d="M 48.6875 27.296875 
Q 48.6875 37.203125 44.609375 42.84375 
Q 40.53125 48.484375 33.40625 48.484375 
Q 26.265625 48.484375 22.1875 42.84375 
Q 18.109375 37.203125 18.109375 27.296875 
Q 18.109375 17.390625 22.1875 11.75 
Q 26.265625 6.109375 33.40625 6.109375 
Q 40.53125 6.109375 44.609375 11.75 
Q 48.6875 17.390625 48.6875 27.296875 
z
M 18.109375 46.390625 
Q 20.953125 51.265625 25.265625 53.625 
Q 29.59375 56 35.59375 56 
Q 45.5625 56 51.78125 48.09375 
Q 58.015625 40.1875 58.015625 27.296875 
Q 58.015625 14.40625 51.78125 6.484375 
Q 45.5625 -1.421875 35.59375 -1.421875 
Q 29.59375 -1.421875 25.265625 0.953125 
Q 20.953125 3.328125 18.109375 8.203125 
L 18.109375 0 
L 9.078125 0 
L 9.078125 75.984375 
L 18.109375 75.984375 
z
" id="DejaVuSans-98"/>
      <path id="DejaVuSans-32"/>
      <path d="M 4.890625 31.390625 
L 31.203125 31.390625 
L 31.203125 23.390625 
L 4.890625 23.390625 
z
" id="DejaVuSans-45"/>
      <path d="M 2.984375 54.6875 
L 12.5 54.6875 
L 29.59375 8.796875 
L 46.6875 54.6875 
L 56.203125 54.6875 
L 35.6875 0 
L 23.484375 0 
z
" id="DejaVuSans-118"/>
     </defs>
     <use xlink:href="#DejaVuSans-117"/>
     <use x="63.378906" xlink:href="#DejaVuSans-110"/>
     <use x="126.757812" xlink:href="#DejaVuSans-105"/>
     <use x="154.541016" xlink:href="#DejaVuSans-107"/>
     <use x="208.826172" xlink:href="#DejaVuSans-101"/>
     <use x="270.349609" xlink:href="#DejaVuSans-114"/>
     <use x="309.712891" xlink:href="#DejaVuSans-110"/>
     <use x="373.091797" xlink:href="#DejaVuSans-101"/>
     <use x="434.615234" xlink:href="#DejaVuSans-108"/>
     <use x="462.398438" xlink:href="#DejaVuSans-95"/>
     <use x="512.398438" xlink:href="#DejaVuSans-98"/>
     <use x="575.875" xlink:href="#DejaVuSans-97"/>
     <use x="637.154297" xlink:href="#DejaVuSans-115"/>
     <use x="689.253906" xlink:href="#DejaVuSans-101"/>
     <use x="750.777344" xlink:href="#DejaVuSans-32"/>
     <use x="782.564453" xlink:href="#DejaVuSans-45"/>
     <use x="818.648438" xlink:href="#DejaVuSans-32"/>
     <use x="850.435547" xlink:href="#DejaVuSans-118"/>
     <use x="909.615234" xlink:href="#DejaVuSans-109"/>
     <use x="1007.027344" xlink:href="#DejaVuSans-115"/>
     <use x="1059.126953" xlink:href="#DejaVuSans-116"/>
     <use x="1098.335938" xlink:href="#DejaVuSans-97"/>
     <use x="1159.615234" xlink:href="#DejaVuSans-116"/>
    </g>
   </g>
   <g id="legend_1">
    <g id="patch_7">
     <path d="M 650.68 258.52 
L 654.68 258.52 
Q 656.68 258.52 656.68 256.52 
L 656.68 252.52 
Q 656.68 250.52 654.68 250.52 
L 650.68 250.52 
Q 648.68 250.52 648.68 252.52 
L 648.68 256.52 
Q 648.68 258.52 650.68 258.52 
z
" style="fill:#ffffff;opacity:0.8;stroke:#cccccc;stroke-linejoin:miter;"/>
    </g>
   </g>
  </g>
 </g>
 <defs>
  <clipPath id="p46fb65f42a">
   <rect height="388.08" width="535.68" x="108" y="60.48"/>
  </clipPath>
 </defs>
</svg>
