<?xml version="1.0" encoding="utf-8" standalone="no"?>
<!DOCTYPE svg PUBLIC "-//W3C//DTD SVG 1.1//EN"
  "http://www.w3.org/Graphics/SVG/1.1/DTD/svg11.dtd">
<!-- Created with matplotlib (https://matplotlib.org/) -->
<svg height="504pt" version="1.1" viewBox="0 0 864 504" width="864pt" xmlns="http://www.w3.org/2000/svg" xmlns:xlink="http://www.w3.org/1999/xlink">
 <metadata>
  <rdf:RDF xmlns:cc="http://creativecommons.org/ns#" xmlns:dc="http://purl.org/dc/elements/1.1/" xmlns:rdf="http://www.w3.org/1999/02/22-rdf-syntax-ns#">
   <cc:Work>
    <dc:type rdf:resource="http://purl.org/dc/dcmitype/StillImage"/>
    <dc:date>2022-05-29T17:28:43.383361</dc:date>
    <dc:format>image/svg+xml</dc:format>
    <dc:creator>
     <cc:Agent>
      <dc:title>Matplotlib v3.3.4, https://matplotlib.org/</dc:title>
     </cc:Agent>
    </dc:creator>
   </cc:Work>
  </rdf:RDF>
 </metadata>
 <defs>
  <style type="text/css">*{stroke-linecap:butt;stroke-linejoin:round;}</style>
 </defs>
 <g id="figure_1">
  <g id="patch_1">
   <path d="M 0 504 
L 864 504 
L 864 0 
L 0 0 
z
" style="fill:#ffffff;"/>
  </g>
  <g id="axes_1">
   <g id="patch_2">
    <path d="M 108 448.56 
L 643.68 448.56 
L 643.68 60.48 
L 108 60.48 
z
" style="fill:#ffffff;"/>
   </g>
   <g id="matplotlib.axis_1">
    <g id="xtick_1">
     <g id="line2d_1">
      <defs>
       <path d="M 0 0 
L 0 3.5 
" id="m5cdc1dbb2a" style="stroke:#000000;stroke-width:0.8;"/>
      </defs>
      <g>
       <use style="stroke:#000000;stroke-width:0.8;" x="132.349091" xlink:href="#m5cdc1dbb2a" y="448.56"/>
      </g>
     </g>
     <g id="text_1">
      <!-- 23:16:16 -->
      <g transform="translate(135.108466 500.4725)rotate(-90)scale(0.1 -0.1)">
       <defs>
        <path d="M 19.1875 8.296875 
L 53.609375 8.296875 
L 53.609375 0 
L 7.328125 0 
L 7.328125 8.296875 
Q 12.9375 14.109375 22.625 23.890625 
Q 32.328125 33.6875 34.8125 36.53125 
Q 39.546875 41.84375 41.421875 45.53125 
Q 43.3125 49.21875 43.3125 52.78125 
Q 43.3125 58.59375 39.234375 62.25 
Q 35.15625 65.921875 28.609375 65.921875 
Q 23.96875 65.921875 18.8125 64.3125 
Q 13.671875 62.703125 7.8125 59.421875 
L 7.8125 69.390625 
Q 13.765625 71.78125 18.9375 73 
Q 24.125 74.21875 28.421875 74.21875 
Q 39.75 74.21875 46.484375 68.546875 
Q 53.21875 62.890625 53.21875 53.421875 
Q 53.21875 48.921875 51.53125 44.890625 
Q 49.859375 40.875 45.40625 35.40625 
Q 44.1875 33.984375 37.640625 27.21875 
Q 31.109375 20.453125 19.1875 8.296875 
z
" id="DejaVuSans-50"/>
        <path d="M 40.578125 39.3125 
Q 47.65625 37.796875 51.625 33 
Q 55.609375 28.21875 55.609375 21.1875 
Q 55.609375 10.40625 48.1875 4.484375 
Q 40.765625 -1.421875 27.09375 -1.421875 
Q 22.515625 -1.421875 17.65625 -0.515625 
Q 12.796875 0.390625 7.625 2.203125 
L 7.625 11.71875 
Q 11.71875 9.328125 16.59375 8.109375 
Q 21.484375 6.890625 26.8125 6.890625 
Q 36.078125 6.890625 40.9375 10.546875 
Q 45.796875 14.203125 45.796875 21.1875 
Q 45.796875 27.640625 41.28125 31.265625 
Q 36.765625 34.90625 28.71875 34.90625 
L 20.21875 34.90625 
L 20.21875 43.015625 
L 29.109375 43.015625 
Q 36.375 43.015625 40.234375 45.921875 
Q 44.09375 48.828125 44.09375 54.296875 
Q 44.09375 59.90625 40.109375 62.90625 
Q 36.140625 65.921875 28.71875 65.921875 
Q 24.65625 65.921875 20.015625 65.03125 
Q 15.375 64.15625 9.8125 62.3125 
L 9.8125 71.09375 
Q 15.4375 72.65625 20.34375 73.4375 
Q 25.25 74.21875 29.59375 74.21875 
Q 40.828125 74.21875 47.359375 69.109375 
Q 53.90625 64.015625 53.90625 55.328125 
Q 53.90625 49.265625 50.4375 45.09375 
Q 46.96875 40.921875 40.578125 39.3125 
z
" id="DejaVuSans-51"/>
        <path d="M 11.71875 12.40625 
L 22.015625 12.40625 
L 22.015625 0 
L 11.71875 0 
z
M 11.71875 51.703125 
L 22.015625 51.703125 
L 22.015625 39.3125 
L 11.71875 39.3125 
z
" id="DejaVuSans-58"/>
        <path d="M 12.40625 8.296875 
L 28.515625 8.296875 
L 28.515625 63.921875 
L 10.984375 60.40625 
L 10.984375 69.390625 
L 28.421875 72.90625 
L 38.28125 72.90625 
L 38.28125 8.296875 
L 54.390625 8.296875 
L 54.390625 0 
L 12.40625 0 
z
" id="DejaVuSans-49"/>
        <path d="M 33.015625 40.375 
Q 26.375 40.375 22.484375 35.828125 
Q 18.609375 31.296875 18.609375 23.390625 
Q 18.609375 15.53125 22.484375 10.953125 
Q 26.375 6.390625 33.015625 6.390625 
Q 39.65625 6.390625 43.53125 10.953125 
Q 47.40625 15.53125 47.40625 23.390625 
Q 47.40625 31.296875 43.53125 35.828125 
Q 39.65625 40.375 33.015625 40.375 
z
M 52.59375 71.296875 
L 52.59375 62.3125 
Q 48.875 64.0625 45.09375 64.984375 
Q 41.3125 65.921875 37.59375 65.921875 
Q 27.828125 65.921875 22.671875 59.328125 
Q 17.53125 52.734375 16.796875 39.40625 
Q 19.671875 43.65625 24.015625 45.921875 
Q 28.375 48.1875 33.59375 48.1875 
Q 44.578125 48.1875 50.953125 41.515625 
Q 57.328125 34.859375 57.328125 23.390625 
Q 57.328125 12.15625 50.6875 5.359375 
Q 44.046875 -1.421875 33.015625 -1.421875 
Q 20.359375 -1.421875 13.671875 8.265625 
Q 6.984375 17.96875 6.984375 36.375 
Q 6.984375 53.65625 15.1875 63.9375 
Q 23.390625 74.21875 37.203125 74.21875 
Q 40.921875 74.21875 44.703125 73.484375 
Q 48.484375 72.75 52.59375 71.296875 
z
" id="DejaVuSans-54"/>
       </defs>
       <use xlink:href="#DejaVuSans-50"/>
       <use x="63.623047" xlink:href="#DejaVuSans-51"/>
       <use x="127.246094" xlink:href="#DejaVuSans-58"/>
       <use x="160.9375" xlink:href="#DejaVuSans-49"/>
       <use x="224.560547" xlink:href="#DejaVuSans-54"/>
       <use x="288.183594" xlink:href="#DejaVuSans-58"/>
       <use x="321.875" xlink:href="#DejaVuSans-49"/>
       <use x="385.498047" xlink:href="#DejaVuSans-54"/>
      </g>
     </g>
    </g>
    <g id="xtick_2">
     <g id="line2d_2">
      <g>
       <use style="stroke:#000000;stroke-width:0.8;" x="156.230928" xlink:href="#m5cdc1dbb2a" y="448.56"/>
      </g>
     </g>
     <g id="text_2">
      <!-- 23:17:08 -->
      <g transform="translate(158.990303 500.4725)rotate(-90)scale(0.1 -0.1)">
       <defs>
        <path d="M 8.203125 72.90625 
L 55.078125 72.90625 
L 55.078125 68.703125 
L 28.609375 0 
L 18.3125 0 
L 43.21875 64.59375 
L 8.203125 64.59375 
z
" id="DejaVuSans-55"/>
        <path d="M 31.78125 66.40625 
Q 24.171875 66.40625 20.328125 58.90625 
Q 16.5 51.421875 16.5 36.375 
Q 16.5 21.390625 20.328125 13.890625 
Q 24.171875 6.390625 31.78125 6.390625 
Q 39.453125 6.390625 43.28125 13.890625 
Q 47.125 21.390625 47.125 36.375 
Q 47.125 51.421875 43.28125 58.90625 
Q 39.453125 66.40625 31.78125 66.40625 
z
M 31.78125 74.21875 
Q 44.046875 74.21875 50.515625 64.515625 
Q 56.984375 54.828125 56.984375 36.375 
Q 56.984375 17.96875 50.515625 8.265625 
Q 44.046875 -1.421875 31.78125 -1.421875 
Q 19.53125 -1.421875 13.0625 8.265625 
Q 6.59375 17.96875 6.59375 36.375 
Q 6.59375 54.828125 13.0625 64.515625 
Q 19.53125 74.21875 31.78125 74.21875 
z
" id="DejaVuSans-48"/>
        <path d="M 31.78125 34.625 
Q 24.75 34.625 20.71875 30.859375 
Q 16.703125 27.09375 16.703125 20.515625 
Q 16.703125 13.921875 20.71875 10.15625 
Q 24.75 6.390625 31.78125 6.390625 
Q 38.8125 6.390625 42.859375 10.171875 
Q 46.921875 13.96875 46.921875 20.515625 
Q 46.921875 27.09375 42.890625 30.859375 
Q 38.875 34.625 31.78125 34.625 
z
M 21.921875 38.8125 
Q 15.578125 40.375 12.03125 44.71875 
Q 8.5 49.078125 8.5 55.328125 
Q 8.5 64.0625 14.71875 69.140625 
Q 20.953125 74.21875 31.78125 74.21875 
Q 42.671875 74.21875 48.875 69.140625 
Q 55.078125 64.0625 55.078125 55.328125 
Q 55.078125 49.078125 51.53125 44.71875 
Q 48 40.375 41.703125 38.8125 
Q 48.828125 37.15625 52.796875 32.3125 
Q 56.78125 27.484375 56.78125 20.515625 
Q 56.78125 9.90625 50.3125 4.234375 
Q 43.84375 -1.421875 31.78125 -1.421875 
Q 19.734375 -1.421875 13.25 4.234375 
Q 6.78125 9.90625 6.78125 20.515625 
Q 6.78125 27.484375 10.78125 32.3125 
Q 14.796875 37.15625 21.921875 38.8125 
z
M 18.3125 54.390625 
Q 18.3125 48.734375 21.84375 45.5625 
Q 25.390625 42.390625 31.78125 42.390625 
Q 38.140625 42.390625 41.71875 45.5625 
Q 45.3125 48.734375 45.3125 54.390625 
Q 45.3125 60.0625 41.71875 63.234375 
Q 38.140625 66.40625 31.78125 66.40625 
Q 25.390625 66.40625 21.84375 63.234375 
Q 18.3125 60.0625 18.3125 54.390625 
z
" id="DejaVuSans-56"/>
       </defs>
       <use xlink:href="#DejaVuSans-50"/>
       <use x="63.623047" xlink:href="#DejaVuSans-51"/>
       <use x="127.246094" xlink:href="#DejaVuSans-58"/>
       <use x="160.9375" xlink:href="#DejaVuSans-49"/>
       <use x="224.560547" xlink:href="#DejaVuSans-55"/>
       <use x="288.183594" xlink:href="#DejaVuSans-58"/>
       <use x="321.875" xlink:href="#DejaVuSans-48"/>
       <use x="385.498047" xlink:href="#DejaVuSans-56"/>
      </g>
     </g>
    </g>
    <g id="xtick_3">
     <g id="line2d_3">
      <g>
       <use style="stroke:#000000;stroke-width:0.8;" x="180.112766" xlink:href="#m5cdc1dbb2a" y="448.56"/>
      </g>
     </g>
     <g id="text_3">
      <!-- 23:17:59 -->
      <g transform="translate(182.872141 500.4725)rotate(-90)scale(0.1 -0.1)">
       <defs>
        <path d="M 10.796875 72.90625 
L 49.515625 72.90625 
L 49.515625 64.59375 
L 19.828125 64.59375 
L 19.828125 46.734375 
Q 21.96875 47.46875 24.109375 47.828125 
Q 26.265625 48.1875 28.421875 48.1875 
Q 40.625 48.1875 47.75 41.5 
Q 54.890625 34.8125 54.890625 23.390625 
Q 54.890625 11.625 47.5625 5.09375 
Q 40.234375 -1.421875 26.90625 -1.421875 
Q 22.3125 -1.421875 17.546875 -0.640625 
Q 12.796875 0.140625 7.71875 1.703125 
L 7.71875 11.625 
Q 12.109375 9.234375 16.796875 8.0625 
Q 21.484375 6.890625 26.703125 6.890625 
Q 35.15625 6.890625 40.078125 11.328125 
Q 45.015625 15.765625 45.015625 23.390625 
Q 45.015625 31 40.078125 35.4375 
Q 35.15625 39.890625 26.703125 39.890625 
Q 22.75 39.890625 18.8125 39.015625 
Q 14.890625 38.140625 10.796875 36.28125 
z
" id="DejaVuSans-53"/>
        <path d="M 10.984375 1.515625 
L 10.984375 10.5 
Q 14.703125 8.734375 18.5 7.8125 
Q 22.3125 6.890625 25.984375 6.890625 
Q 35.75 6.890625 40.890625 13.453125 
Q 46.046875 20.015625 46.78125 33.40625 
Q 43.953125 29.203125 39.59375 26.953125 
Q 35.25 24.703125 29.984375 24.703125 
Q 19.046875 24.703125 12.671875 31.3125 
Q 6.296875 37.9375 6.296875 49.421875 
Q 6.296875 60.640625 12.9375 67.421875 
Q 19.578125 74.21875 30.609375 74.21875 
Q 43.265625 74.21875 49.921875 64.515625 
Q 56.59375 54.828125 56.59375 36.375 
Q 56.59375 19.140625 48.40625 8.859375 
Q 40.234375 -1.421875 26.421875 -1.421875 
Q 22.703125 -1.421875 18.890625 -0.6875 
Q 15.09375 0.046875 10.984375 1.515625 
z
M 30.609375 32.421875 
Q 37.25 32.421875 41.125 36.953125 
Q 45.015625 41.5 45.015625 49.421875 
Q 45.015625 57.28125 41.125 61.84375 
Q 37.25 66.40625 30.609375 66.40625 
Q 23.96875 66.40625 20.09375 61.84375 
Q 16.21875 57.28125 16.21875 49.421875 
Q 16.21875 41.5 20.09375 36.953125 
Q 23.96875 32.421875 30.609375 32.421875 
z
" id="DejaVuSans-57"/>
       </defs>
       <use xlink:href="#DejaVuSans-50"/>
       <use x="63.623047" xlink:href="#DejaVuSans-51"/>
       <use x="127.246094" xlink:href="#DejaVuSans-58"/>
       <use x="160.9375" xlink:href="#DejaVuSans-49"/>
       <use x="224.560547" xlink:href="#DejaVuSans-55"/>
       <use x="288.183594" xlink:href="#DejaVuSans-58"/>
       <use x="321.875" xlink:href="#DejaVuSans-53"/>
       <use x="385.498047" xlink:href="#DejaVuSans-57"/>
      </g>
     </g>
    </g>
    <g id="xtick_4">
     <g id="line2d_4">
      <g>
       <use style="stroke:#000000;stroke-width:0.8;" x="203.994604" xlink:href="#m5cdc1dbb2a" y="448.56"/>
      </g>
     </g>
     <g id="text_4">
      <!-- 23:18:51 -->
      <g transform="translate(206.753979 500.4725)rotate(-90)scale(0.1 -0.1)">
       <use xlink:href="#DejaVuSans-50"/>
       <use x="63.623047" xlink:href="#DejaVuSans-51"/>
       <use x="127.246094" xlink:href="#DejaVuSans-58"/>
       <use x="160.9375" xlink:href="#DejaVuSans-49"/>
       <use x="224.560547" xlink:href="#DejaVuSans-56"/>
       <use x="288.183594" xlink:href="#DejaVuSans-58"/>
       <use x="321.875" xlink:href="#DejaVuSans-53"/>
       <use x="385.498047" xlink:href="#DejaVuSans-49"/>
      </g>
     </g>
    </g>
    <g id="xtick_5">
     <g id="line2d_5">
      <g>
       <use style="stroke:#000000;stroke-width:0.8;" x="227.876441" xlink:href="#m5cdc1dbb2a" y="448.56"/>
      </g>
     </g>
     <g id="text_5">
      <!-- 23:19:43 -->
      <g transform="translate(230.635816 500.4725)rotate(-90)scale(0.1 -0.1)">
       <defs>
        <path d="M 37.796875 64.3125 
L 12.890625 25.390625 
L 37.796875 25.390625 
z
M 35.203125 72.90625 
L 47.609375 72.90625 
L 47.609375 25.390625 
L 58.015625 25.390625 
L 58.015625 17.1875 
L 47.609375 17.1875 
L 47.609375 0 
L 37.796875 0 
L 37.796875 17.1875 
L 4.890625 17.1875 
L 4.890625 26.703125 
z
" id="DejaVuSans-52"/>
       </defs>
       <use xlink:href="#DejaVuSans-50"/>
       <use x="63.623047" xlink:href="#DejaVuSans-51"/>
       <use x="127.246094" xlink:href="#DejaVuSans-58"/>
       <use x="160.9375" xlink:href="#DejaVuSans-49"/>
       <use x="224.560547" xlink:href="#DejaVuSans-57"/>
       <use x="288.183594" xlink:href="#DejaVuSans-58"/>
       <use x="321.875" xlink:href="#DejaVuSans-52"/>
       <use x="385.498047" xlink:href="#DejaVuSans-51"/>
      </g>
     </g>
    </g>
    <g id="xtick_6">
     <g id="line2d_6">
      <g>
       <use style="stroke:#000000;stroke-width:0.8;" x="251.758279" xlink:href="#m5cdc1dbb2a" y="448.56"/>
      </g>
     </g>
     <g id="text_6">
      <!-- 23:20:35 -->
      <g transform="translate(254.517654 500.4725)rotate(-90)scale(0.1 -0.1)">
       <use xlink:href="#DejaVuSans-50"/>
       <use x="63.623047" xlink:href="#DejaVuSans-51"/>
       <use x="127.246094" xlink:href="#DejaVuSans-58"/>
       <use x="160.9375" xlink:href="#DejaVuSans-50"/>
       <use x="224.560547" xlink:href="#DejaVuSans-48"/>
       <use x="288.183594" xlink:href="#DejaVuSans-58"/>
       <use x="321.875" xlink:href="#DejaVuSans-51"/>
       <use x="385.498047" xlink:href="#DejaVuSans-53"/>
      </g>
     </g>
    </g>
    <g id="xtick_7">
     <g id="line2d_7">
      <g>
       <use style="stroke:#000000;stroke-width:0.8;" x="275.640116" xlink:href="#m5cdc1dbb2a" y="448.56"/>
      </g>
     </g>
     <g id="text_7">
      <!-- 23:21:26 -->
      <g transform="translate(278.399491 500.4725)rotate(-90)scale(0.1 -0.1)">
       <use xlink:href="#DejaVuSans-50"/>
       <use x="63.623047" xlink:href="#DejaVuSans-51"/>
       <use x="127.246094" xlink:href="#DejaVuSans-58"/>
       <use x="160.9375" xlink:href="#DejaVuSans-50"/>
       <use x="224.560547" xlink:href="#DejaVuSans-49"/>
       <use x="288.183594" xlink:href="#DejaVuSans-58"/>
       <use x="321.875" xlink:href="#DejaVuSans-50"/>
       <use x="385.498047" xlink:href="#DejaVuSans-54"/>
      </g>
     </g>
    </g>
    <g id="xtick_8">
     <g id="line2d_8">
      <g>
       <use style="stroke:#000000;stroke-width:0.8;" x="299.521954" xlink:href="#m5cdc1dbb2a" y="448.56"/>
      </g>
     </g>
     <g id="text_8">
      <!-- 23:22:19 -->
      <g transform="translate(302.281329 500.4725)rotate(-90)scale(0.1 -0.1)">
       <use xlink:href="#DejaVuSans-50"/>
       <use x="63.623047" xlink:href="#DejaVuSans-51"/>
       <use x="127.246094" xlink:href="#DejaVuSans-58"/>
       <use x="160.9375" xlink:href="#DejaVuSans-50"/>
       <use x="224.560547" xlink:href="#DejaVuSans-50"/>
       <use x="288.183594" xlink:href="#DejaVuSans-58"/>
       <use x="321.875" xlink:href="#DejaVuSans-49"/>
       <use x="385.498047" xlink:href="#DejaVuSans-57"/>
      </g>
     </g>
    </g>
    <g id="xtick_9">
     <g id="line2d_9">
      <g>
       <use style="stroke:#000000;stroke-width:0.8;" x="323.403791" xlink:href="#m5cdc1dbb2a" y="448.56"/>
      </g>
     </g>
     <g id="text_9">
      <!-- 23:23:10 -->
      <g transform="translate(326.163166 500.4725)rotate(-90)scale(0.1 -0.1)">
       <use xlink:href="#DejaVuSans-50"/>
       <use x="63.623047" xlink:href="#DejaVuSans-51"/>
       <use x="127.246094" xlink:href="#DejaVuSans-58"/>
       <use x="160.9375" xlink:href="#DejaVuSans-50"/>
       <use x="224.560547" xlink:href="#DejaVuSans-51"/>
       <use x="288.183594" xlink:href="#DejaVuSans-58"/>
       <use x="321.875" xlink:href="#DejaVuSans-49"/>
       <use x="385.498047" xlink:href="#DejaVuSans-48"/>
      </g>
     </g>
    </g>
    <g id="xtick_10">
     <g id="line2d_10">
      <g>
       <use style="stroke:#000000;stroke-width:0.8;" x="347.285629" xlink:href="#m5cdc1dbb2a" y="448.56"/>
      </g>
     </g>
     <g id="text_10">
      <!-- 23:24:02 -->
      <g transform="translate(350.045004 500.4725)rotate(-90)scale(0.1 -0.1)">
       <use xlink:href="#DejaVuSans-50"/>
       <use x="63.623047" xlink:href="#DejaVuSans-51"/>
       <use x="127.246094" xlink:href="#DejaVuSans-58"/>
       <use x="160.9375" xlink:href="#DejaVuSans-50"/>
       <use x="224.560547" xlink:href="#DejaVuSans-52"/>
       <use x="288.183594" xlink:href="#DejaVuSans-58"/>
       <use x="321.875" xlink:href="#DejaVuSans-48"/>
       <use x="385.498047" xlink:href="#DejaVuSans-50"/>
      </g>
     </g>
    </g>
    <g id="xtick_11">
     <g id="line2d_11">
      <g>
       <use style="stroke:#000000;stroke-width:0.8;" x="371.167467" xlink:href="#m5cdc1dbb2a" y="448.56"/>
      </g>
     </g>
     <g id="text_11">
      <!-- 23:24:54 -->
      <g transform="translate(373.926842 500.4725)rotate(-90)scale(0.1 -0.1)">
       <use xlink:href="#DejaVuSans-50"/>
       <use x="63.623047" xlink:href="#DejaVuSans-51"/>
       <use x="127.246094" xlink:href="#DejaVuSans-58"/>
       <use x="160.9375" xlink:href="#DejaVuSans-50"/>
       <use x="224.560547" xlink:href="#DejaVuSans-52"/>
       <use x="288.183594" xlink:href="#DejaVuSans-58"/>
       <use x="321.875" xlink:href="#DejaVuSans-53"/>
       <use x="385.498047" xlink:href="#DejaVuSans-52"/>
      </g>
     </g>
    </g>
    <g id="xtick_12">
     <g id="line2d_12">
      <g>
       <use style="stroke:#000000;stroke-width:0.8;" x="395.049304" xlink:href="#m5cdc1dbb2a" y="448.56"/>
      </g>
     </g>
     <g id="text_12">
      <!-- 23:25:45 -->
      <g transform="translate(397.808679 500.4725)rotate(-90)scale(0.1 -0.1)">
       <use xlink:href="#DejaVuSans-50"/>
       <use x="63.623047" xlink:href="#DejaVuSans-51"/>
       <use x="127.246094" xlink:href="#DejaVuSans-58"/>
       <use x="160.9375" xlink:href="#DejaVuSans-50"/>
       <use x="224.560547" xlink:href="#DejaVuSans-53"/>
       <use x="288.183594" xlink:href="#DejaVuSans-58"/>
       <use x="321.875" xlink:href="#DejaVuSans-52"/>
       <use x="385.498047" xlink:href="#DejaVuSans-53"/>
      </g>
     </g>
    </g>
    <g id="xtick_13">
     <g id="line2d_13">
      <g>
       <use style="stroke:#000000;stroke-width:0.8;" x="418.931142" xlink:href="#m5cdc1dbb2a" y="448.56"/>
      </g>
     </g>
     <g id="text_13">
      <!-- 23:26:37 -->
      <g transform="translate(421.690517 500.4725)rotate(-90)scale(0.1 -0.1)">
       <use xlink:href="#DejaVuSans-50"/>
       <use x="63.623047" xlink:href="#DejaVuSans-51"/>
       <use x="127.246094" xlink:href="#DejaVuSans-58"/>
       <use x="160.9375" xlink:href="#DejaVuSans-50"/>
       <use x="224.560547" xlink:href="#DejaVuSans-54"/>
       <use x="288.183594" xlink:href="#DejaVuSans-58"/>
       <use x="321.875" xlink:href="#DejaVuSans-51"/>
       <use x="385.498047" xlink:href="#DejaVuSans-55"/>
      </g>
     </g>
    </g>
    <g id="xtick_14">
     <g id="line2d_14">
      <g>
       <use style="stroke:#000000;stroke-width:0.8;" x="442.812979" xlink:href="#m5cdc1dbb2a" y="448.56"/>
      </g>
     </g>
     <g id="text_14">
      <!-- 23:27:29 -->
      <g transform="translate(445.572354 500.4725)rotate(-90)scale(0.1 -0.1)">
       <use xlink:href="#DejaVuSans-50"/>
       <use x="63.623047" xlink:href="#DejaVuSans-51"/>
       <use x="127.246094" xlink:href="#DejaVuSans-58"/>
       <use x="160.9375" xlink:href="#DejaVuSans-50"/>
       <use x="224.560547" xlink:href="#DejaVuSans-55"/>
       <use x="288.183594" xlink:href="#DejaVuSans-58"/>
       <use x="321.875" xlink:href="#DejaVuSans-50"/>
       <use x="385.498047" xlink:href="#DejaVuSans-57"/>
      </g>
     </g>
    </g>
    <g id="xtick_15">
     <g id="line2d_15">
      <g>
       <use style="stroke:#000000;stroke-width:0.8;" x="466.694817" xlink:href="#m5cdc1dbb2a" y="448.56"/>
      </g>
     </g>
     <g id="text_15">
      <!-- 23:28:21 -->
      <g transform="translate(469.454192 500.4725)rotate(-90)scale(0.1 -0.1)">
       <use xlink:href="#DejaVuSans-50"/>
       <use x="63.623047" xlink:href="#DejaVuSans-51"/>
       <use x="127.246094" xlink:href="#DejaVuSans-58"/>
       <use x="160.9375" xlink:href="#DejaVuSans-50"/>
       <use x="224.560547" xlink:href="#DejaVuSans-56"/>
       <use x="288.183594" xlink:href="#DejaVuSans-58"/>
       <use x="321.875" xlink:href="#DejaVuSans-50"/>
       <use x="385.498047" xlink:href="#DejaVuSans-49"/>
      </g>
     </g>
    </g>
    <g id="xtick_16">
     <g id="line2d_16">
      <g>
       <use style="stroke:#000000;stroke-width:0.8;" x="490.576654" xlink:href="#m5cdc1dbb2a" y="448.56"/>
      </g>
     </g>
     <g id="text_16">
      <!-- 23:29:13 -->
      <g transform="translate(493.336029 500.4725)rotate(-90)scale(0.1 -0.1)">
       <use xlink:href="#DejaVuSans-50"/>
       <use x="63.623047" xlink:href="#DejaVuSans-51"/>
       <use x="127.246094" xlink:href="#DejaVuSans-58"/>
       <use x="160.9375" xlink:href="#DejaVuSans-50"/>
       <use x="224.560547" xlink:href="#DejaVuSans-57"/>
       <use x="288.183594" xlink:href="#DejaVuSans-58"/>
       <use x="321.875" xlink:href="#DejaVuSans-49"/>
       <use x="385.498047" xlink:href="#DejaVuSans-51"/>
      </g>
     </g>
    </g>
    <g id="xtick_17">
     <g id="line2d_17">
      <g>
       <use style="stroke:#000000;stroke-width:0.8;" x="514.458492" xlink:href="#m5cdc1dbb2a" y="448.56"/>
      </g>
     </g>
     <g id="text_17">
      <!-- 23:30:05 -->
      <g transform="translate(517.217867 500.4725)rotate(-90)scale(0.1 -0.1)">
       <use xlink:href="#DejaVuSans-50"/>
       <use x="63.623047" xlink:href="#DejaVuSans-51"/>
       <use x="127.246094" xlink:href="#DejaVuSans-58"/>
       <use x="160.9375" xlink:href="#DejaVuSans-51"/>
       <use x="224.560547" xlink:href="#DejaVuSans-48"/>
       <use x="288.183594" xlink:href="#DejaVuSans-58"/>
       <use x="321.875" xlink:href="#DejaVuSans-48"/>
       <use x="385.498047" xlink:href="#DejaVuSans-53"/>
      </g>
     </g>
    </g>
    <g id="xtick_18">
     <g id="line2d_18">
      <g>
       <use style="stroke:#000000;stroke-width:0.8;" x="538.34033" xlink:href="#m5cdc1dbb2a" y="448.56"/>
      </g>
     </g>
     <g id="text_18">
      <!-- 23:30:57 -->
      <g transform="translate(541.099705 500.4725)rotate(-90)scale(0.1 -0.1)">
       <use xlink:href="#DejaVuSans-50"/>
       <use x="63.623047" xlink:href="#DejaVuSans-51"/>
       <use x="127.246094" xlink:href="#DejaVuSans-58"/>
       <use x="160.9375" xlink:href="#DejaVuSans-51"/>
       <use x="224.560547" xlink:href="#DejaVuSans-48"/>
       <use x="288.183594" xlink:href="#DejaVuSans-58"/>
       <use x="321.875" xlink:href="#DejaVuSans-53"/>
       <use x="385.498047" xlink:href="#DejaVuSans-55"/>
      </g>
     </g>
    </g>
    <g id="xtick_19">
     <g id="line2d_19">
      <g>
       <use style="stroke:#000000;stroke-width:0.8;" x="562.222167" xlink:href="#m5cdc1dbb2a" y="448.56"/>
      </g>
     </g>
     <g id="text_19">
      <!-- 23:31:48 -->
      <g transform="translate(564.981542 500.4725)rotate(-90)scale(0.1 -0.1)">
       <use xlink:href="#DejaVuSans-50"/>
       <use x="63.623047" xlink:href="#DejaVuSans-51"/>
       <use x="127.246094" xlink:href="#DejaVuSans-58"/>
       <use x="160.9375" xlink:href="#DejaVuSans-51"/>
       <use x="224.560547" xlink:href="#DejaVuSans-49"/>
       <use x="288.183594" xlink:href="#DejaVuSans-58"/>
       <use x="321.875" xlink:href="#DejaVuSans-52"/>
       <use x="385.498047" xlink:href="#DejaVuSans-56"/>
      </g>
     </g>
    </g>
    <g id="xtick_20">
     <g id="line2d_20">
      <g>
       <use style="stroke:#000000;stroke-width:0.8;" x="586.104005" xlink:href="#m5cdc1dbb2a" y="448.56"/>
      </g>
     </g>
     <g id="text_20">
      <!-- 23:32:40 -->
      <g transform="translate(588.86338 500.4725)rotate(-90)scale(0.1 -0.1)">
       <use xlink:href="#DejaVuSans-50"/>
       <use x="63.623047" xlink:href="#DejaVuSans-51"/>
       <use x="127.246094" xlink:href="#DejaVuSans-58"/>
       <use x="160.9375" xlink:href="#DejaVuSans-51"/>
       <use x="224.560547" xlink:href="#DejaVuSans-50"/>
       <use x="288.183594" xlink:href="#DejaVuSans-58"/>
       <use x="321.875" xlink:href="#DejaVuSans-52"/>
       <use x="385.498047" xlink:href="#DejaVuSans-48"/>
      </g>
     </g>
    </g>
    <g id="xtick_21">
     <g id="line2d_21">
      <g>
       <use style="stroke:#000000;stroke-width:0.8;" x="609.985842" xlink:href="#m5cdc1dbb2a" y="448.56"/>
      </g>
     </g>
     <g id="text_21">
      <!-- 23:33:31 -->
      <g transform="translate(612.745217 500.4725)rotate(-90)scale(0.1 -0.1)">
       <use xlink:href="#DejaVuSans-50"/>
       <use x="63.623047" xlink:href="#DejaVuSans-51"/>
       <use x="127.246094" xlink:href="#DejaVuSans-58"/>
       <use x="160.9375" xlink:href="#DejaVuSans-51"/>
       <use x="224.560547" xlink:href="#DejaVuSans-51"/>
       <use x="288.183594" xlink:href="#DejaVuSans-58"/>
       <use x="321.875" xlink:href="#DejaVuSans-51"/>
       <use x="385.498047" xlink:href="#DejaVuSans-49"/>
      </g>
     </g>
    </g>
    <g id="text_22">
     <!-- timestamp -->
     <g transform="translate(354.264375 510.55125)scale(0.08 -0.08)">
      <defs>
       <path d="M 18.3125 70.21875 
L 18.3125 54.6875 
L 36.8125 54.6875 
L 36.8125 47.703125 
L 18.3125 47.703125 
L 18.3125 18.015625 
Q 18.3125 11.328125 20.140625 9.421875 
Q 21.96875 7.515625 27.59375 7.515625 
L 36.8125 7.515625 
L 36.8125 0 
L 27.59375 0 
Q 17.1875 0 13.234375 3.875 
Q 9.28125 7.765625 9.28125 18.015625 
L 9.28125 47.703125 
L 2.6875 47.703125 
L 2.6875 54.6875 
L 9.28125 54.6875 
L 9.28125 70.21875 
z
" id="DejaVuSans-116"/>
       <path d="M 9.421875 54.6875 
L 18.40625 54.6875 
L 18.40625 0 
L 9.421875 0 
z
M 9.421875 75.984375 
L 18.40625 75.984375 
L 18.40625 64.59375 
L 9.421875 64.59375 
z
" id="DejaVuSans-105"/>
       <path d="M 52 44.1875 
Q 55.375 50.25 60.0625 53.125 
Q 64.75 56 71.09375 56 
Q 79.640625 56 84.28125 50.015625 
Q 88.921875 44.046875 88.921875 33.015625 
L 88.921875 0 
L 79.890625 0 
L 79.890625 32.71875 
Q 79.890625 40.578125 77.09375 44.375 
Q 74.3125 48.1875 68.609375 48.1875 
Q 61.625 48.1875 57.5625 43.546875 
Q 53.515625 38.921875 53.515625 30.90625 
L 53.515625 0 
L 44.484375 0 
L 44.484375 32.71875 
Q 44.484375 40.625 41.703125 44.40625 
Q 38.921875 48.1875 33.109375 48.1875 
Q 26.21875 48.1875 22.15625 43.53125 
Q 18.109375 38.875 18.109375 30.90625 
L 18.109375 0 
L 9.078125 0 
L 9.078125 54.6875 
L 18.109375 54.6875 
L 18.109375 46.1875 
Q 21.1875 51.21875 25.484375 53.609375 
Q 29.78125 56 35.6875 56 
Q 41.65625 56 45.828125 52.96875 
Q 50 49.953125 52 44.1875 
z
" id="DejaVuSans-109"/>
       <path d="M 56.203125 29.59375 
L 56.203125 25.203125 
L 14.890625 25.203125 
Q 15.484375 15.921875 20.484375 11.0625 
Q 25.484375 6.203125 34.421875 6.203125 
Q 39.59375 6.203125 44.453125 7.46875 
Q 49.3125 8.734375 54.109375 11.28125 
L 54.109375 2.78125 
Q 49.265625 0.734375 44.1875 -0.34375 
Q 39.109375 -1.421875 33.890625 -1.421875 
Q 20.796875 -1.421875 13.15625 6.1875 
Q 5.515625 13.8125 5.515625 26.8125 
Q 5.515625 40.234375 12.765625 48.109375 
Q 20.015625 56 32.328125 56 
Q 43.359375 56 49.78125 48.890625 
Q 56.203125 41.796875 56.203125 29.59375 
z
M 47.21875 32.234375 
Q 47.125 39.59375 43.09375 43.984375 
Q 39.0625 48.390625 32.421875 48.390625 
Q 24.90625 48.390625 20.390625 44.140625 
Q 15.875 39.890625 15.1875 32.171875 
z
" id="DejaVuSans-101"/>
       <path d="M 44.28125 53.078125 
L 44.28125 44.578125 
Q 40.484375 46.53125 36.375 47.5 
Q 32.28125 48.484375 27.875 48.484375 
Q 21.1875 48.484375 17.84375 46.4375 
Q 14.5 44.390625 14.5 40.28125 
Q 14.5 37.15625 16.890625 35.375 
Q 19.28125 33.59375 26.515625 31.984375 
L 29.59375 31.296875 
Q 39.15625 29.25 43.1875 25.515625 
Q 47.21875 21.78125 47.21875 15.09375 
Q 47.21875 7.46875 41.1875 3.015625 
Q 35.15625 -1.421875 24.609375 -1.421875 
Q 20.21875 -1.421875 15.453125 -0.5625 
Q 10.6875 0.296875 5.421875 2 
L 5.421875 11.28125 
Q 10.40625 8.6875 15.234375 7.390625 
Q 20.0625 6.109375 24.8125 6.109375 
Q 31.15625 6.109375 34.5625 8.28125 
Q 37.984375 10.453125 37.984375 14.40625 
Q 37.984375 18.0625 35.515625 20.015625 
Q 33.0625 21.96875 24.703125 23.78125 
L 21.578125 24.515625 
Q 13.234375 26.265625 9.515625 29.90625 
Q 5.8125 33.546875 5.8125 39.890625 
Q 5.8125 47.609375 11.28125 51.796875 
Q 16.75 56 26.8125 56 
Q 31.78125 56 36.171875 55.265625 
Q 40.578125 54.546875 44.28125 53.078125 
z
" id="DejaVuSans-115"/>
       <path d="M 34.28125 27.484375 
Q 23.390625 27.484375 19.1875 25 
Q 14.984375 22.515625 14.984375 16.5 
Q 14.984375 11.71875 18.140625 8.90625 
Q 21.296875 6.109375 26.703125 6.109375 
Q 34.1875 6.109375 38.703125 11.40625 
Q 43.21875 16.703125 43.21875 25.484375 
L 43.21875 27.484375 
z
M 52.203125 31.203125 
L 52.203125 0 
L 43.21875 0 
L 43.21875 8.296875 
Q 40.140625 3.328125 35.546875 0.953125 
Q 30.953125 -1.421875 24.3125 -1.421875 
Q 15.921875 -1.421875 10.953125 3.296875 
Q 6 8.015625 6 15.921875 
Q 6 25.140625 12.171875 29.828125 
Q 18.359375 34.515625 30.609375 34.515625 
L 43.21875 34.515625 
L 43.21875 35.40625 
Q 43.21875 41.609375 39.140625 45 
Q 35.0625 48.390625 27.6875 48.390625 
Q 23 48.390625 18.546875 47.265625 
Q 14.109375 46.140625 10.015625 43.890625 
L 10.015625 52.203125 
Q 14.9375 54.109375 19.578125 55.046875 
Q 24.21875 56 28.609375 56 
Q 40.484375 56 46.34375 49.84375 
Q 52.203125 43.703125 52.203125 31.203125 
z
" id="DejaVuSans-97"/>
       <path d="M 18.109375 8.203125 
L 18.109375 -20.796875 
L 9.078125 -20.796875 
L 9.078125 54.6875 
L 18.109375 54.6875 
L 18.109375 46.390625 
Q 20.953125 51.265625 25.265625 53.625 
Q 29.59375 56 35.59375 56 
Q 45.5625 56 51.78125 48.09375 
Q 58.015625 40.1875 58.015625 27.296875 
Q 58.015625 14.40625 51.78125 6.484375 
Q 45.5625 -1.421875 35.59375 -1.421875 
Q 29.59375 -1.421875 25.265625 0.953125 
Q 20.953125 3.328125 18.109375 8.203125 
z
M 48.6875 27.296875 
Q 48.6875 37.203125 44.609375 42.84375 
Q 40.53125 48.484375 33.40625 48.484375 
Q 26.265625 48.484375 22.1875 42.84375 
Q 18.109375 37.203125 18.109375 27.296875 
Q 18.109375 17.390625 22.1875 11.75 
Q 26.265625 6.109375 33.40625 6.109375 
Q 40.53125 6.109375 44.609375 11.75 
Q 48.6875 17.390625 48.6875 27.296875 
z
" id="DejaVuSans-112"/>
      </defs>
      <use xlink:href="#DejaVuSans-116"/>
      <use x="39.208984" xlink:href="#DejaVuSans-105"/>
      <use x="66.992188" xlink:href="#DejaVuSans-109"/>
      <use x="164.404297" xlink:href="#DejaVuSans-101"/>
      <use x="225.927734" xlink:href="#DejaVuSans-115"/>
      <use x="278.027344" xlink:href="#DejaVuSans-116"/>
      <use x="317.236328" xlink:href="#DejaVuSans-97"/>
      <use x="378.515625" xlink:href="#DejaVuSans-109"/>
      <use x="475.927734" xlink:href="#DejaVuSans-112"/>
     </g>
    </g>
   </g>
   <g id="matplotlib.axis_2">
    <g id="ytick_1">
     <g id="line2d_22">
      <defs>
       <path d="M 0 0 
L -3.5 0 
" id="ma3ab33a64e" style="stroke:#000000;stroke-width:0.8;"/>
      </defs>
      <g>
       <use style="stroke:#000000;stroke-width:0.8;" x="108" xlink:href="#ma3ab33a64e" y="389.977823"/>
      </g>
     </g>
     <g id="text_23">
      <!-- 11200 -->
      <g transform="translate(69.1875 393.777042)scale(0.1 -0.1)">
       <use xlink:href="#DejaVuSans-49"/>
       <use x="63.623047" xlink:href="#DejaVuSans-49"/>
       <use x="127.246094" xlink:href="#DejaVuSans-50"/>
       <use x="190.869141" xlink:href="#DejaVuSans-48"/>
       <use x="254.492188" xlink:href="#DejaVuSans-48"/>
      </g>
     </g>
    </g>
    <g id="ytick_2">
     <g id="line2d_23">
      <g>
       <use style="stroke:#000000;stroke-width:0.8;" x="108" xlink:href="#ma3ab33a64e" y="306.531351"/>
      </g>
     </g>
     <g id="text_24">
      <!-- 11400 -->
      <g transform="translate(69.1875 310.33057)scale(0.1 -0.1)">
       <use xlink:href="#DejaVuSans-49"/>
       <use x="63.623047" xlink:href="#DejaVuSans-49"/>
       <use x="127.246094" xlink:href="#DejaVuSans-52"/>
       <use x="190.869141" xlink:href="#DejaVuSans-48"/>
       <use x="254.492188" xlink:href="#DejaVuSans-48"/>
      </g>
     </g>
    </g>
    <g id="ytick_3">
     <g id="line2d_24">
      <g>
       <use style="stroke:#000000;stroke-width:0.8;" x="108" xlink:href="#ma3ab33a64e" y="223.08488"/>
      </g>
     </g>
     <g id="text_25">
      <!-- 11600 -->
      <g transform="translate(69.1875 226.884098)scale(0.1 -0.1)">
       <use xlink:href="#DejaVuSans-49"/>
       <use x="63.623047" xlink:href="#DejaVuSans-49"/>
       <use x="127.246094" xlink:href="#DejaVuSans-54"/>
       <use x="190.869141" xlink:href="#DejaVuSans-48"/>
       <use x="254.492188" xlink:href="#DejaVuSans-48"/>
      </g>
     </g>
    </g>
    <g id="ytick_4">
     <g id="line2d_25">
      <g>
       <use style="stroke:#000000;stroke-width:0.8;" x="108" xlink:href="#ma3ab33a64e" y="139.638408"/>
      </g>
     </g>
     <g id="text_26">
      <!-- 11800 -->
      <g transform="translate(69.1875 143.437627)scale(0.1 -0.1)">
       <use xlink:href="#DejaVuSans-49"/>
       <use x="63.623047" xlink:href="#DejaVuSans-49"/>
       <use x="127.246094" xlink:href="#DejaVuSans-56"/>
       <use x="190.869141" xlink:href="#DejaVuSans-48"/>
       <use x="254.492188" xlink:href="#DejaVuSans-48"/>
      </g>
     </g>
    </g>
    <g id="text_27">
     <!-- MB -->
     <g transform="translate(63.52375 260.715625)rotate(-90)scale(0.08 -0.08)">
      <defs>
       <path d="M 9.8125 72.90625 
L 24.515625 72.90625 
L 43.109375 23.296875 
L 61.8125 72.90625 
L 76.515625 72.90625 
L 76.515625 0 
L 66.890625 0 
L 66.890625 64.015625 
L 48.09375 14.015625 
L 38.1875 14.015625 
L 19.390625 64.015625 
L 19.390625 0 
L 9.8125 0 
z
" id="DejaVuSans-77"/>
       <path d="M 19.671875 34.8125 
L 19.671875 8.109375 
L 35.5 8.109375 
Q 43.453125 8.109375 47.28125 11.40625 
Q 51.125 14.703125 51.125 21.484375 
Q 51.125 28.328125 47.28125 31.5625 
Q 43.453125 34.8125 35.5 34.8125 
z
M 19.671875 64.796875 
L 19.671875 42.828125 
L 34.28125 42.828125 
Q 41.5 42.828125 45.03125 45.53125 
Q 48.578125 48.25 48.578125 53.8125 
Q 48.578125 59.328125 45.03125 62.0625 
Q 41.5 64.796875 34.28125 64.796875 
z
M 9.8125 72.90625 
L 35.015625 72.90625 
Q 46.296875 72.90625 52.390625 68.21875 
Q 58.5 63.53125 58.5 54.890625 
Q 58.5 48.1875 55.375 44.234375 
Q 52.25 40.28125 46.1875 39.3125 
Q 53.46875 37.75 57.5 32.78125 
Q 61.53125 27.828125 61.53125 20.40625 
Q 61.53125 10.640625 54.890625 5.3125 
Q 48.25 0 35.984375 0 
L 9.8125 0 
z
" id="DejaVuSans-66"/>
      </defs>
      <use xlink:href="#DejaVuSans-77"/>
      <use x="86.279297" xlink:href="#DejaVuSans-66"/>
     </g>
    </g>
   </g>
   <g id="line2d_26">
    <path clip-path="url(#p6a73c7dc1e)" d="M 132.349091 78.12 
L 132.868261 78.512198 
L 133.387432 80.887085 
L 133.906602 79.483515 
L 134.425772 79.964167 
L 134.944943 78.452117 
L 135.464113 80.758577 
L 135.983284 80.453163 
L 136.502454 80.453163 
L 137.021624 79.561955 
L 137.540795 80.620056 
L 138.059965 78.675754 
L 138.579135 78.435428 
L 139.098306 109.098668 
L 139.617476 115.609162 
L 140.136647 159.977651 
L 140.655817 216.347412 
L 141.174987 249.106827 
L 141.694158 269.227441 
L 143.251669 369.439977 
L 143.770839 375.85868 
L 144.29001 385.989082 
L 144.80918 389.582287 
L 145.847521 389.191757 
L 146.366691 387.647998 
L 146.885862 387.542855 
L 147.405032 389.363657 
L 147.924202 387.642991 
L 148.443373 387.641322 
L 148.962543 386.49143 
L 149.481714 388.167035 
L 150.000884 390.860687 
L 151.039225 387.906682 
L 151.558395 387.731444 
L 152.077565 386.339557 
L 152.596736 388.00348 
L 153.115906 388.270508 
L 153.635077 387.838256 
L 154.154247 385.738742 
L 154.673417 389.200102 
L 155.192588 389.60899 
L 155.711758 387.140643 
L 156.230928 387.277495 
L 156.750099 389.096628 
L 157.269269 389.992843 
L 157.78844 389.996181 
L 158.30761 387.676369 
L 158.82678 388.348948 
L 159.345951 390.768896 
L 159.865121 390.932451 
L 160.384292 388.684403 
L 160.903462 388.385664 
L 161.422632 389.303576 
L 161.941803 389.719139 
L 162.460973 387.901675 
L 162.980143 387.355935 
L 163.499314 386.50645 
L 164.018484 386.785161 
L 165.056825 386.606586 
L 165.575995 386.524808 
L 166.095166 385.359895 
L 166.614336 389.200102 
L 167.133506 388.893019 
L 167.652677 388.96979 
L 168.171847 387.360942 
L 168.691018 387.611281 
L 169.210188 389.664064 
L 169.729358 388.888012 
L 170.248529 388.362299 
L 170.767699 388.008486 
L 171.28687 390.859018 
L 171.80604 390.538583 
L 172.32521 390.04458 
L 172.844381 389.223467 
L 173.363551 390.146385 
L 173.882721 389.089953 
L 174.401892 387.676369 
L 174.921062 387.365949 
L 175.440233 386.454713 
L 175.959403 389.43709 
L 176.997744 389.582287 
L 177.516914 388.120305 
L 178.036085 388.547551 
L 178.555255 388.480793 
L 179.074425 388.572585 
L 179.593596 386.963737 
L 180.112766 386.139285 
L 181.151107 390.692125 
L 181.670277 390.558611 
L 182.189448 390.733848 
L 182.708618 388.058554 
L 183.227788 390.727172 
L 183.746959 389.807592 
L 184.266129 389.572273 
L 184.785299 387.879979 
L 185.82364 397.334464 
L 186.342811 395.582088 
L 186.861981 394.692549 
L 187.381151 394.432196 
L 187.900322 394.497284 
L 188.419492 396.837123 
L 188.938663 396.685251 
L 189.457833 392.389426 
L 189.977003 390.051256 
L 190.496174 390.211473 
L 191.015344 389.268528 
L 191.534514 388.752829 
L 192.053685 387.471091 
L 193.092026 390.869031 
L 193.611196 390.929113 
L 194.130366 388.662707 
L 194.649537 388.883005 
L 195.168707 390.30994 
L 195.687877 388.926398 
L 196.207048 389.029871 
L 196.726218 387.871634 
L 197.245389 388.006817 
L 197.764559 391.58834 
L 198.283729 391.015897 
L 198.8029 389.954458 
L 199.32207 389.455448 
L 199.841241 391.818652 
L 200.360411 392.155776 
L 200.879581 392.152438 
L 201.398752 390.899072 
L 201.917922 389.158379 
L 202.437092 389.4688 
L 202.956263 389.412056 
L 203.475433 389.185082 
L 203.994604 387.604605 
L 205.032944 391.139398 
L 205.552115 390.80895 
L 206.071285 390.189777 
L 206.590456 389.044892 
L 207.109626 390.713821 
L 207.628796 389.198433 
L 208.147967 388.864647 
L 208.667137 387.599599 
L 209.186307 388.227116 
L 209.705478 391.549955 
L 210.224648 391.983876 
L 210.743819 392.112384 
L 211.262989 391.101013 
L 211.782159 390.370022 
L 212.30133 390.243183 
L 212.8205 390.433441 
L 213.33967 390.164743 
L 213.858841 389.061581 
L 214.378011 393.384108 
L 214.897182 393.429169 
L 215.416352 392.759928 
L 215.935522 390.897403 
L 216.454693 388.407361 
L 216.973863 390.969167 
L 217.493034 398.057111 
L 218.012204 397.818454 
L 218.531374 396.536716 
L 219.050545 398.647912 
L 219.569715 398.669608 
L 220.608056 395.445236 
L 221.127226 395.48529 
L 221.646397 399.597532 
L 222.165567 398.242362 
L 223.203908 396.710284 
L 223.723078 396.725305 
L 224.242248 399.116881 
L 224.761419 399.075157 
L 225.280589 398.839838 
L 225.79976 397.314437 
L 226.31893 398.345835 
L 226.8381 398.345835 
L 227.357271 398.028739 
L 227.876441 396.426566 
L 228.395612 396.676906 
L 228.914782 399.510748 
L 229.433952 399.370558 
L 229.953123 397.244342 
L 230.472293 397.344478 
L 230.991463 399.353869 
L 231.510634 398.335822 
L 232.029804 398.16726 
L 232.548975 398.132212 
L 233.068145 396.368154 
L 233.587315 399.150259 
L 234.625656 399.360544 
L 235.144827 397.484668 
L 235.663997 397.860177 
L 236.183167 399.662621 
L 236.702338 399.590857 
L 237.740678 397.987015 
L 238.259849 400.513775 
L 238.779019 400.742418 
L 239.81736 399.355538 
L 240.33653 399.836189 
L 240.855701 401.7371 
L 241.374871 400.356895 
L 241.894041 400.515444 
L 242.413212 399.201996 
L 242.932382 401.047832 
L 243.451553 401.01946 
L 244.489893 400.47372 
L 245.009064 399.300463 
L 245.528234 400.961048 
L 246.047405 400.95771 
L 246.566575 399.190314 
L 247.085745 398.372538 
L 247.604916 398.497708 
L 248.124086 402.094251 
L 249.162427 401.793844 
L 249.681597 400.291807 
L 250.200768 399.497397 
L 250.719938 400.05315 
L 251.239108 399.073489 
L 251.758279 399.519093 
L 252.277449 398.778088 
L 252.796619 402.037507 
L 253.83496 401.630288 
L 254.354131 399.610884 
L 254.873301 399.822838 
L 255.392471 400.976068 
L 255.911642 400.850898 
L 256.430812 400.046474 
L 257.469153 406.687145 
L 257.988323 405.972843 
L 258.507494 401.441699 
L 259.026664 400.174982 
L 259.545834 400.548822 
L 260.065005 403.332596 
L 260.584175 400.895959 
L 261.103346 399.69433 
L 261.622516 404.52755 
L 262.141686 408.080701 
L 262.660857 408.337716 
L 263.180027 404.580956 
L 263.699198 402.960425 
L 264.218368 403.437739 
L 264.737538 403.536206 
L 265.256709 401.188022 
L 265.775879 401.545173 
L 266.295049 399.729378 
L 267.33339 401.520139 
L 267.852561 401.384956 
L 268.371731 400.161631 
L 268.890901 400.243408 
L 269.410072 403.844958 
L 269.929242 402.653342 
L 270.967583 398.656256 
L 271.486753 397.726662 
L 272.005924 401.324874 
L 272.525094 401.031143 
L 273.044264 399.520762 
L 273.563435 398.714669 
L 274.082605 399.200327 
L 274.601776 399.373896 
L 275.120946 399.342186 
L 275.640116 398.210652 
L 276.159287 398.44764 
L 276.678457 394.14514 
L 277.197627 394.527325 
L 277.716798 394.443878 
L 278.235968 399.620897 
L 278.755139 402.212745 
L 279.274309 403.806572 
L 279.793479 402.01748 
L 280.31265 399.709351 
L 280.83182 399.257071 
L 281.350991 404.030209 
L 281.870161 404.070263 
L 282.389331 403.634673 
L 282.908502 403.846627 
L 283.427672 402.518159 
L 283.946842 406.31998 
L 284.466013 406.473522 
L 284.985183 406.261568 
L 285.504354 403.671389 
L 286.023524 404.337292 
L 286.542694 406.052951 
L 287.061865 406.263237 
L 287.581035 404.9331 
L 288.100205 404.903059 
L 288.619376 406.658773 
L 289.138546 406.765584 
L 289.657717 404.749518 
L 290.176887 403.678065 
L 290.696057 404.369002 
L 291.215228 406.808976 
L 291.734398 406.456832 
L 292.253569 406.46017 
L 292.772739 405.815963 
L 293.291909 407.289628 
L 293.81108 407.765273 
L 294.84942 407.883767 
L 295.368591 406.543617 
L 295.887761 407.483224 
L 296.926102 407.591704 
L 297.445272 406.163101 
L 297.964443 409.100417 
L 298.483613 408.442858 
L 299.002783 408.214215 
L 299.521954 406.64709 
L 300.041124 407.571677 
L 300.560295 408.723239 
L 301.079465 407.262925 
L 301.598635 406.717185 
L 302.117806 406.690482 
L 302.636976 407.670144 
L 303.156147 409.524325 
L 303.675317 409.746292 
L 304.713658 407.559995 
L 305.232828 408.960226 
L 305.751998 409.278992 
L 306.271169 409.327391 
L 306.790339 406.737212 
L 307.30951 406.778936 
L 307.82868 409.462574 
L 308.34785 408.79834 
L 308.867021 406.945829 
L 309.386191 406.859044 
L 309.905362 408.324364 
L 310.943702 406.830673 
L 311.462873 407.03762 
L 311.982043 405.755882 
L 312.501213 407.806996 
L 313.020384 407.970551 
L 313.539554 407.873753 
L 314.577895 406.360034 
L 315.097065 407.616738 
L 315.616236 407.289628 
L 316.135406 407.469873 
L 316.654576 406.231527 
L 317.173747 408.568028 
L 317.692917 408.940199 
L 318.212088 408.883456 
L 318.731258 406.877403 
L 319.250428 406.798963 
L 319.769599 409.367445 
L 320.288769 409.270647 
L 320.80794 407.159452 
L 321.32711 407.141093 
L 321.84628 409.854773 
L 322.884621 409.848097 
L 323.922962 408.666495 
L 324.442132 413.806798 
L 324.961303 411.154869 
L 325.480473 411.58879 
L 325.999643 415.025116 
L 327.037984 414.836527 
L 327.557154 410.662535 
L 328.076325 410.363796 
L 328.595495 409.067038 
L 329.114666 411.580446 
L 329.633836 411.044719 
L 330.153006 410.862806 
L 330.672177 409.642819 
L 331.191347 409.317377 
L 331.710518 411.627176 
L 332.229688 410.487297 
L 333.268029 407.872085 
L 333.787199 412.121179 
L 334.306369 413.574816 
L 335.34471 410.664203 
L 335.863881 410.569074 
L 336.383051 411.441925 
L 336.902221 411.036375 
L 337.421392 410.323742 
L 337.940562 409.964922 
L 338.459733 411.600473 
L 338.978903 409.65617 
L 339.498073 408.835057 
L 340.017244 408.881787 
L 340.536414 407.257918 
L 341.055584 410.816076 
L 341.574755 411.174896 
L 342.093925 410.889509 
L 342.613096 409.167174 
L 343.132266 408.87678 
L 343.651436 410.3421 
L 344.170607 410.345438 
L 344.689777 407.334689 
L 345.208947 407.161121 
L 346.247288 411.520364 
L 346.766459 410.974624 
L 347.285629 410.156849 
L 347.804799 410.241964 
L 348.32397 411.173227 
L 348.84314 411.463621 
L 349.881481 411.305072 
L 350.400651 409.330729 
L 350.919822 412.276389 
L 351.438992 411.845805 
L 351.958162 410.569074 
L 352.996503 408.846739 
L 353.515674 411.249998 
L 354.034844 410.63917 
L 354.554014 410.303715 
L 355.073185 409.762982 
L 355.592355 411.834123 
L 356.111525 411.315086 
L 357.149866 408.945206 
L 357.669037 409.818056 
L 358.188207 411.236646 
L 358.707377 411.508682 
L 359.226548 411.475303 
L 359.745718 409.619454 
L 360.264889 412.49335 
L 361.303229 412.36818 
L 361.8224 412.091138 
L 362.34157 410.158518 
L 362.86074 412.989022 
L 363.379911 412.800433 
L 363.899081 412.855508 
L 364.418252 410.133484 
L 364.937422 410.772684 
L 365.456592 413.150908 
L 365.975763 412.598493 
L 366.494933 411.403539 
L 367.014104 411.453607 
L 367.533274 413.431288 
L 368.052444 412.464978 
L 368.571615 411.795738 
L 369.090785 411.612155 
L 369.609955 410.312059 
L 370.129126 412.146213 
L 370.648296 412.114503 
L 371.167467 410.70092 
L 371.686637 410.667541 
L 372.205807 411.895873 
L 372.724978 419.35265 
L 373.244148 419.486164 
L 373.763318 419.467806 
L 374.282489 417.496801 
L 374.801659 416.832567 
L 375.32083 417.106271 
L 375.84 416.914344 
L 376.35917 415.25209 
L 376.878341 415.449024 
L 377.397511 419.155716 
L 377.916682 419.592976 
L 378.435852 418.431401 
L 378.955022 418.227792 
L 379.474193 418.940425 
L 379.993363 418.780207 
L 380.512533 418.498158 
L 381.031704 417.379975 
L 381.550874 417.500138 
L 382.070045 421.632408 
L 382.589215 419.714808 
L 383.108385 419.53957 
L 383.627556 418.187737 
L 384.146726 419.008851 
L 384.665896 420.991539 
L 385.185067 419.764876 
L 385.704237 419.890045 
L 386.223408 418.022513 
L 386.742578 422.597049 
L 387.261748 419.562935 
L 387.780919 419.613003 
L 388.300089 418.137669 
L 388.81926 417.146325 
L 389.33843 420.574306 
L 389.8576 420.155405 
L 390.376771 418.498158 
L 390.895941 417.880654 
L 391.934282 420.98987 
L 392.453452 420.36569 
L 392.972623 419.32094 
L 393.491793 418.851971 
L 394.010963 420.292257 
L 394.530134 419.350981 
L 395.049304 425.107119 
L 395.568475 425.357458 
L 396.087645 424.374459 
L 396.606815 426.425573 
L 397.125986 422.33002 
L 397.645156 422.707198 
L 398.164326 420.883058 
L 398.683497 420.464157 
L 399.202667 420.649408 
L 399.721838 426.607486 
L 400.760178 424.129126 
L 401.279349 426.857826 
L 401.798519 422.747253 
L 402.317689 421.829341 
L 403.35603 418.559909 
L 403.875201 420.681118 
L 404.913541 420.00687 
L 405.432712 419.921755 
L 405.951882 422.435163 
L 406.471053 422.824023 
L 406.990223 422.323344 
L 407.509393 420.933126 
L 408.028564 420.918106 
L 408.547734 423.586724 
L 409.066904 422.56367 
L 409.586075 422.088025 
L 410.105245 419.38436 
L 410.624416 419.52455 
L 411.143586 421.639083 
L 411.662756 421.123384 
L 412.181927 421.049951 
L 412.701097 419.870018 
L 413.220267 420.98987 
L 414.258608 420.287251 
L 414.777779 418.83862 
L 415.296949 418.690085 
L 415.816119 422.430156 
L 416.33529 421.759246 
L 416.85446 421.765922 
L 417.373631 420.192122 
L 417.892801 423.06268 
L 418.411971 423.014281 
L 418.931142 422.390102 
L 419.450312 420.816301 
L 419.969482 419.83664 
L 420.488653 423.017619 
L 421.007823 422.585366 
L 421.526994 422.430156 
L 422.046164 420.903086 
L 422.565334 419.83664 
L 423.084505 420.534252 
L 423.603675 419.466137 
L 424.122846 419.529557 
L 424.642016 418.471455 
L 425.161186 421.190141 
L 425.680357 421.188472 
L 426.199527 428.02107 
L 427.237868 425.814745 
L 427.757038 428.707 
L 428.276209 428.418275 
L 428.795379 426.756021 
L 429.314549 426.806089 
L 429.83372 429.424639 
L 430.35289 428.605195 
L 430.87206 428.433295 
L 431.910401 425.836441 
L 432.429572 427.827474 
L 432.948742 427.590486 
L 433.467912 427.083131 
L 433.987083 424.646494 
L 434.506253 425.013659 
L 435.025424 427.296754 
L 435.544594 427.24168 
L 436.063764 426.932928 
L 436.582935 425.804731 
L 437.102105 429.603215 
L 437.621275 429.686661 
L 438.140446 429.654951 
L 438.659616 428.882237 
L 439.178787 426.395532 
L 439.697957 426.887866 
L 440.217127 426.514026 
L 440.736298 425.13716 
L 441.255468 425.203917 
L 441.774638 423.10941 
L 442.293809 426.170227 
L 442.812979 426.52404 
L 443.33215 426.156875 
L 443.85132 423.653481 
L 444.889661 429.421301 
L 445.408831 430.92 
L 445.928002 430.908317 
L 446.447172 429.755087 
L 446.966342 429.005738 
L 447.485513 428.606864 
L 448.004683 427.825805 
L 448.523853 426.622507 
L 449.043024 427.461978 
L 449.562194 428.513404 
L 450.081365 428.945656 
L 451.119705 425.547716 
L 451.638876 426.387188 
L 452.158046 426.709291 
L 452.677217 426.512357 
L 453.196387 425.05872 
L 453.715557 424.155829 
L 454.234728 426.899549 
L 454.753898 427.011367 
L 455.792239 424.077389 
L 456.311409 425.626156 
L 456.83058 425.908205 
L 457.86892 422.458528 
L 458.388091 423.064349 
L 458.907261 424.551365 
L 459.426431 424.010632 
L 459.945602 422.628759 
L 460.464772 422.612069 
L 460.983943 423.124431 
L 461.503113 423.059342 
L 462.022283 423.137782 
L 462.541454 421.710847 
L 463.060624 421.418785 
L 463.579795 427.159902 
L 464.098965 430.547829 
L 464.618135 430.412645 
L 465.137306 428.299781 
L 465.656476 429.039117 
L 466.175646 425.397513 
L 466.694817 425.352451 
L 467.213987 424.66819 
L 467.733158 422.258256 
L 468.252328 425.716278 
L 468.771498 424.961922 
L 469.290669 424.718258 
L 470.329009 423.907159 
L 470.84818 425.547716 
L 471.36735 424.915192 
L 471.886521 423.503278 
L 472.405691 423.416493 
L 472.924861 425.138828 
L 473.444032 422.910808 
L 473.963202 421.842693 
L 474.482373 421.081661 
L 475.001543 418.938756 
L 475.520713 422.551988 
L 476.039884 422.680495 
L 476.559054 421.810983 
L 477.078224 421.200155 
L 477.597395 419.97683 
L 478.116565 421.827672 
L 478.635736 421.729206 
L 479.154906 421.799301 
L 479.674076 420.105337 
L 480.193247 422.163127 
L 480.712417 423.334716 
L 481.231588 423.570035 
L 481.750758 422.228216 
L 482.269928 421.640752 
L 482.789099 422.351716 
L 483.827439 422.800658 
L 484.34661 421.201824 
L 485.384951 424.172518 
L 485.904121 423.78032 
L 486.423291 421.500562 
L 486.942462 421.517252 
L 487.461632 422.748921 
L 487.980802 423.066018 
L 488.499973 421.705841 
L 489.019143 421.780942 
L 489.538314 420.766233 
L 490.057484 422.131418 
L 490.576654 421.899436 
L 491.095825 421.820997 
L 491.614995 420.340656 
L 492.134166 420.197128 
L 492.653336 422.428487 
L 493.172506 422.098039 
L 493.691677 421.321987 
L 494.210847 419.811606 
L 494.730017 421.974538 
L 495.249188 421.982883 
L 495.768358 421.507238 
L 496.806699 417.997479 
L 497.325869 420.649408 
L 498.36421 418.970465 
L 498.883381 417.630315 
L 499.402551 419.818281 
L 499.921721 420.359015 
L 500.440892 420.457481 
L 501.479232 418.226123 
L 501.998403 422.411798 
L 502.517573 421.872734 
L 503.036744 421.86272 
L 503.555914 419.374346 
L 504.075084 419.469475 
L 504.594255 422.453521 
L 505.113425 422.09637 
L 505.632595 419.427752 
L 506.670936 419.978499 
L 507.190107 419.970154 
L 507.709277 419.686436 
L 508.228447 417.568565 
L 508.747618 417.084575 
L 509.266788 419.461131 
L 509.785959 419.686436 
L 510.824299 416.857601 
L 511.34347 417.880654 
L 511.86264 419.359326 
L 512.38181 418.554902 
L 512.900981 418.38634 
L 513.420151 417.463422 
L 513.939322 420.232176 
L 514.458492 418.593287 
L 514.977662 417.478442 
L 516.016003 417.538524 
L 516.535173 418.139338 
L 517.054344 418.391347 
L 517.573514 418.361306 
L 518.092685 416.637302 
L 518.611855 421.30196 
L 519.650196 420.761227 
L 520.169366 420.152067 
L 520.688537 419.854998 
L 521.207707 421.326994 
L 521.726877 420.602678 
L 522.246048 419.093966 
L 522.765218 418.154359 
L 523.284388 418.882012 
L 523.803559 421.372055 
L 524.322729 420.699476 
L 524.8419 419.536232 
L 525.36107 419.868349 
L 525.88024 420.664429 
L 526.399411 420.777916 
L 526.918581 420.30394 
L 527.437752 417.610288 
L 527.956922 417.426706 
L 528.476092 422.33002 
L 528.995263 421.128391 
L 530.552774 414.741398 
L 531.071944 415.712715 
L 531.591115 414.466025 
L 532.110285 414.950014 
L 532.629455 413.596512 
L 533.148626 421.490549 
L 533.667796 419.968485 
L 534.186966 420.260548 
L 534.706137 418.725133 
L 535.225307 414.502741 
L 535.744478 417.064548 
L 536.782818 415.278793 
L 537.301989 417.343259 
L 537.821159 422.365068 
L 538.8595 422.336696 
L 539.37867 421.352028 
L 539.897841 416.445375 
L 540.417011 418.594956 
L 540.936181 417.828918 
L 541.455352 414.542795 
L 541.974522 413.359524 
L 542.493693 414.312483 
L 543.012863 412.466647 
L 543.532033 411.991002 
L 544.051204 411.875846 
L 544.570374 411.009672 
L 545.089544 415.410639 
L 545.608715 414.534451 
L 546.127885 414.51943 
L 546.647056 413.925292 
L 547.166226 412.0878 
L 547.685396 414.23905 
L 548.204567 414.335848 
L 548.723737 414.557816 
L 549.242908 413.406255 
L 549.762078 415.837885 
L 550.281248 416.290165 
L 550.800419 414.821507 
L 551.319589 414.168955 
L 551.838759 412.621858 
L 552.35793 413.791777 
L 552.8771 413.972022 
L 553.396271 413.750054 
L 553.915441 411.421897 
L 554.434611 410.886171 
L 554.953782 411.181572 
L 555.472952 411.238315 
L 555.992123 411.747339 
L 556.511293 409.732941 
L 557.030463 411.184909 
L 557.549634 414.108874 
L 558.068804 412.843825 
L 558.587974 412.875535 
L 559.107145 411.507013 
L 559.626315 414.42597 
L 560.664656 413.140895 
L 561.183826 412.176254 
L 561.702997 412.006023 
L 562.222167 413.199307 
L 562.741337 412.905576 
L 563.260508 413.227679 
L 563.779678 411.785724 
L 564.298849 411.653879 
L 564.818019 420.764564 
L 565.337189 421.213506 
L 565.85636 418.080926 
L 566.37553 418.032527 
L 566.894701 419.255852 
L 567.413871 419.24417 
L 567.933041 417.733789 
L 568.452212 415.547491 
L 568.971382 414.996744 
L 569.490552 417.510152 
L 570.009723 416.93604 
L 570.528893 417.004466 
L 571.048064 415.809513 
L 571.567234 417.226434 
L 572.086404 415.966392 
L 572.605575 415.841223 
L 573.643915 413.930298 
L 574.163086 418.232798 
L 575.201427 416.044832 
L 575.720597 415.080191 
L 576.239767 415.063501 
L 576.758938 417.042852 
L 577.278108 416.318536 
L 577.797279 414.804817 
L 578.316449 413.721682 
L 578.835619 417.21642 
L 579.35479 417.848945 
L 579.87396 416.233421 
L 580.39313 415.163637 
L 580.912301 413.394572 
L 581.431471 413.639905 
L 581.950642 413.311126 
L 582.469812 412.189605 
L 582.988982 412.409904 
L 583.508153 415.569187 
L 584.027323 415.417314 
L 584.546494 414.689661 
L 585.065664 412.922265 
L 585.584834 412.39989 
L 586.104005 413.920285 
L 587.142345 410.869482 
L 587.661516 408.843401 
L 588.180686 408.107404 
L 588.699857 409.694555 
L 589.219027 408.708218 
L 589.738197 408.391122 
L 590.257368 406.812314 
L 590.776538 406.682138 
L 591.295708 406.682138 
L 591.814879 406.375055 
L 592.334049 405.60234 
L 592.85322 405.352001 
L 593.37239 406.505231 
L 593.89156 406.228189 
L 594.929901 404.133683 
L 595.449072 405.140047 
L 595.968242 407.010917 
L 596.487412 406.687145 
L 597.525753 404.534226 
L 598.044923 406.847362 
L 598.564094 407.019262 
L 599.083264 407.373075 
L 599.602435 406.032924 
L 600.121605 406.084661 
L 600.640775 406.355028 
L 601.159946 406.25823 
L 601.679116 404.737835 
L 602.198286 404.998188 
L 602.717457 412.2597 
L 603.236627 414.502741 
L 603.755798 413.58483 
L 604.274968 412.950637 
L 604.794138 407.538299 
L 605.313309 407.112722 
L 605.832479 407.284621 
L 606.35165 405.341987 
L 607.38999 402.544862 
L 607.909161 403.866654 
L 608.428331 403.04721 
L 608.947501 402.761823 
L 609.466672 401.076204 
L 609.985842 403.192406 
L 610.505013 403.819924 
L 611.024183 404.125338 
L 611.543353 402.841931 
L 612.062524 402.770167 
L 612.581694 407.404784 
L 613.100865 407.756928 
L 614.139205 406.728868 
L 614.658376 404.677754 
L 615.177546 404.207115 
L 615.696716 402.488118 
L 616.215887 402.544862 
L 616.735057 400.917656 
L 617.254228 405.35367 
L 617.773398 403.641348 
L 618.292568 415.504099 
L 618.811739 420.088648 
L 619.330909 422.321676 
L 619.330909 422.321676 
" style="fill:none;stroke:#1f77b4;stroke-linecap:square;stroke-width:1.5;"/>
   </g>
   <g id="patch_3">
    <path d="M 108 448.56 
L 108 60.48 
" style="fill:none;stroke:#000000;stroke-linecap:square;stroke-linejoin:miter;stroke-width:0.8;"/>
   </g>
   <g id="patch_4">
    <path d="M 643.68 448.56 
L 643.68 60.48 
" style="fill:none;stroke:#000000;stroke-linecap:square;stroke-linejoin:miter;stroke-width:0.8;"/>
   </g>
   <g id="patch_5">
    <path d="M 108 448.56 
L 643.68 448.56 
" style="fill:none;stroke:#000000;stroke-linecap:square;stroke-linejoin:miter;stroke-width:0.8;"/>
   </g>
   <g id="patch_6">
    <path d="M 108 60.48 
L 643.68 60.48 
" style="fill:none;stroke:#000000;stroke-linecap:square;stroke-linejoin:miter;stroke-width:0.8;"/>
   </g>
   <g id="text_28">
    <!-- unikernel_dce-allocpool - vmstat -->
    <g transform="translate(254.104453 54.48)scale(0.15 -0.15)">
     <defs>
      <path d="M 8.5 21.578125 
L 8.5 54.6875 
L 17.484375 54.6875 
L 17.484375 21.921875 
Q 17.484375 14.15625 20.5 10.265625 
Q 23.53125 6.390625 29.59375 6.390625 
Q 36.859375 6.390625 41.078125 11.03125 
Q 45.3125 15.671875 45.3125 23.6875 
L 45.3125 54.6875 
L 54.296875 54.6875 
L 54.296875 0 
L 45.3125 0 
L 45.3125 8.40625 
Q 42.046875 3.421875 37.71875 1 
Q 33.40625 -1.421875 27.6875 -1.421875 
Q 18.265625 -1.421875 13.375 4.4375 
Q 8.5 10.296875 8.5 21.578125 
z
M 31.109375 56 
z
" id="DejaVuSans-117"/>
      <path d="M 54.890625 33.015625 
L 54.890625 0 
L 45.90625 0 
L 45.90625 32.71875 
Q 45.90625 40.484375 42.875 44.328125 
Q 39.84375 48.1875 33.796875 48.1875 
Q 26.515625 48.1875 22.3125 43.546875 
Q 18.109375 38.921875 18.109375 30.90625 
L 18.109375 0 
L 9.078125 0 
L 9.078125 54.6875 
L 18.109375 54.6875 
L 18.109375 46.1875 
Q 21.34375 51.125 25.703125 53.5625 
Q 30.078125 56 35.796875 56 
Q 45.21875 56 50.046875 50.171875 
Q 54.890625 44.34375 54.890625 33.015625 
z
" id="DejaVuSans-110"/>
      <path d="M 9.078125 75.984375 
L 18.109375 75.984375 
L 18.109375 31.109375 
L 44.921875 54.6875 
L 56.390625 54.6875 
L 27.390625 29.109375 
L 57.625 0 
L 45.90625 0 
L 18.109375 26.703125 
L 18.109375 0 
L 9.078125 0 
z
" id="DejaVuSans-107"/>
      <path d="M 41.109375 46.296875 
Q 39.59375 47.171875 37.8125 47.578125 
Q 36.03125 48 33.890625 48 
Q 26.265625 48 22.1875 43.046875 
Q 18.109375 38.09375 18.109375 28.8125 
L 18.109375 0 
L 9.078125 0 
L 9.078125 54.6875 
L 18.109375 54.6875 
L 18.109375 46.1875 
Q 20.953125 51.171875 25.484375 53.578125 
Q 30.03125 56 36.53125 56 
Q 37.453125 56 38.578125 55.875 
Q 39.703125 55.765625 41.0625 55.515625 
z
" id="DejaVuSans-114"/>
      <path d="M 9.421875 75.984375 
L 18.40625 75.984375 
L 18.40625 0 
L 9.421875 0 
z
" id="DejaVuSans-108"/>
      <path d="M 50.984375 -16.609375 
L 50.984375 -23.578125 
L -0.984375 -23.578125 
L -0.984375 -16.609375 
z
" id="DejaVuSans-95"/>
      <path d="M 45.40625 46.390625 
L 45.40625 75.984375 
L 54.390625 75.984375 
L 54.390625 0 
L 45.40625 0 
L 45.40625 8.203125 
Q 42.578125 3.328125 38.25 0.953125 
Q 33.9375 -1.421875 27.875 -1.421875 
Q 17.96875 -1.421875 11.734375 6.484375 
Q 5.515625 14.40625 5.515625 27.296875 
Q 5.515625 40.1875 11.734375 48.09375 
Q 17.96875 56 27.875 56 
Q 33.9375 56 38.25 53.625 
Q 42.578125 51.265625 45.40625 46.390625 
z
M 14.796875 27.296875 
Q 14.796875 17.390625 18.875 11.75 
Q 22.953125 6.109375 30.078125 6.109375 
Q 37.203125 6.109375 41.296875 11.75 
Q 45.40625 17.390625 45.40625 27.296875 
Q 45.40625 37.203125 41.296875 42.84375 
Q 37.203125 48.484375 30.078125 48.484375 
Q 22.953125 48.484375 18.875 42.84375 
Q 14.796875 37.203125 14.796875 27.296875 
z
" id="DejaVuSans-100"/>
      <path d="M 48.78125 52.59375 
L 48.78125 44.1875 
Q 44.96875 46.296875 41.140625 47.34375 
Q 37.3125 48.390625 33.40625 48.390625 
Q 24.65625 48.390625 19.8125 42.84375 
Q 14.984375 37.3125 14.984375 27.296875 
Q 14.984375 17.28125 19.8125 11.734375 
Q 24.65625 6.203125 33.40625 6.203125 
Q 37.3125 6.203125 41.140625 7.25 
Q 44.96875 8.296875 48.78125 10.40625 
L 48.78125 2.09375 
Q 45.015625 0.34375 40.984375 -0.53125 
Q 36.96875 -1.421875 32.421875 -1.421875 
Q 20.0625 -1.421875 12.78125 6.34375 
Q 5.515625 14.109375 5.515625 27.296875 
Q 5.515625 40.671875 12.859375 48.328125 
Q 20.21875 56 33.015625 56 
Q 37.15625 56 41.109375 55.140625 
Q 45.0625 54.296875 48.78125 52.59375 
z
" id="DejaVuSans-99"/>
      <path d="M 4.890625 31.390625 
L 31.203125 31.390625 
L 31.203125 23.390625 
L 4.890625 23.390625 
z
" id="DejaVuSans-45"/>
      <path d="M 30.609375 48.390625 
Q 23.390625 48.390625 19.1875 42.75 
Q 14.984375 37.109375 14.984375 27.296875 
Q 14.984375 17.484375 19.15625 11.84375 
Q 23.34375 6.203125 30.609375 6.203125 
Q 37.796875 6.203125 41.984375 11.859375 
Q 46.1875 17.53125 46.1875 27.296875 
Q 46.1875 37.015625 41.984375 42.703125 
Q 37.796875 48.390625 30.609375 48.390625 
z
M 30.609375 56 
Q 42.328125 56 49.015625 48.375 
Q 55.71875 40.765625 55.71875 27.296875 
Q 55.71875 13.875 49.015625 6.21875 
Q 42.328125 -1.421875 30.609375 -1.421875 
Q 18.84375 -1.421875 12.171875 6.21875 
Q 5.515625 13.875 5.515625 27.296875 
Q 5.515625 40.765625 12.171875 48.375 
Q 18.84375 56 30.609375 56 
z
" id="DejaVuSans-111"/>
      <path id="DejaVuSans-32"/>
      <path d="M 2.984375 54.6875 
L 12.5 54.6875 
L 29.59375 8.796875 
L 46.6875 54.6875 
L 56.203125 54.6875 
L 35.6875 0 
L 23.484375 0 
z
" id="DejaVuSans-118"/>
     </defs>
     <use xlink:href="#DejaVuSans-117"/>
     <use x="63.378906" xlink:href="#DejaVuSans-110"/>
     <use x="126.757812" xlink:href="#DejaVuSans-105"/>
     <use x="154.541016" xlink:href="#DejaVuSans-107"/>
     <use x="208.826172" xlink:href="#DejaVuSans-101"/>
     <use x="270.349609" xlink:href="#DejaVuSans-114"/>
     <use x="309.712891" xlink:href="#DejaVuSans-110"/>
     <use x="373.091797" xlink:href="#DejaVuSans-101"/>
     <use x="434.615234" xlink:href="#DejaVuSans-108"/>
     <use x="462.398438" xlink:href="#DejaVuSans-95"/>
     <use x="512.398438" xlink:href="#DejaVuSans-100"/>
     <use x="575.875" xlink:href="#DejaVuSans-99"/>
     <use x="630.855469" xlink:href="#DejaVuSans-101"/>
     <use x="692.378906" xlink:href="#DejaVuSans-45"/>
     <use x="728.462891" xlink:href="#DejaVuSans-97"/>
     <use x="789.742188" xlink:href="#DejaVuSans-108"/>
     <use x="817.525391" xlink:href="#DejaVuSans-108"/>
     <use x="845.308594" xlink:href="#DejaVuSans-111"/>
     <use x="906.490234" xlink:href="#DejaVuSans-99"/>
     <use x="961.470703" xlink:href="#DejaVuSans-112"/>
     <use x="1024.947266" xlink:href="#DejaVuSans-111"/>
     <use x="1086.128906" xlink:href="#DejaVuSans-111"/>
     <use x="1147.310547" xlink:href="#DejaVuSans-108"/>
     <use x="1175.09375" xlink:href="#DejaVuSans-32"/>
     <use x="1206.880859" xlink:href="#DejaVuSans-45"/>
     <use x="1242.964844" xlink:href="#DejaVuSans-32"/>
     <use x="1274.751953" xlink:href="#DejaVuSans-118"/>
     <use x="1333.931641" xlink:href="#DejaVuSans-109"/>
     <use x="1431.34375" xlink:href="#DejaVuSans-115"/>
     <use x="1483.443359" xlink:href="#DejaVuSans-116"/>
     <use x="1522.652344" xlink:href="#DejaVuSans-97"/>
     <use x="1583.931641" xlink:href="#DejaVuSans-116"/>
    </g>
   </g>
   <g id="legend_1">
    <g id="patch_7">
     <path d="M 650.68 258.52 
L 654.68 258.52 
Q 656.68 258.52 656.68 256.52 
L 656.68 252.52 
Q 656.68 250.52 654.68 250.52 
L 650.68 250.52 
Q 648.68 250.52 648.68 252.52 
L 648.68 256.52 
Q 648.68 258.52 650.68 258.52 
z
" style="fill:#ffffff;opacity:0.8;stroke:#cccccc;stroke-linejoin:miter;"/>
    </g>
   </g>
  </g>
 </g>
 <defs>
  <clipPath id="p6a73c7dc1e">
   <rect height="388.08" width="535.68" x="108" y="60.48"/>
  </clipPath>
 </defs>
</svg>
